<?xml version="1.0" encoding="utf-8"?>
<!-- Generator: Adobe Illustrator 17.0.0, SVG Export Plug-In . SVG Version: 6.00 Build 0)  -->
<!DOCTYPE svg PUBLIC "-//W3C//DTD SVG 1.1//EN" "http://www.w3.org/Graphics/SVG/1.1/DTD/svg11.dtd" [
	<!ENTITY ns_flows "http://ns.adobe.com/Flows/1.0/">
	<!ENTITY ns_extend "http://ns.adobe.com/Extensibility/1.0/">
	<!ENTITY ns_ai "http://ns.adobe.com/AdobeIllustrator/10.0/">
	<!ENTITY ns_graphs "http://ns.adobe.com/Graphs/1.0/">
]>
<svg version="1.1" id="Layer_1" xmlns:x="&ns_extend;" xmlns:i="&ns_ai;" xmlns:graph="&ns_graphs;"
	 xmlns="http://www.w3.org/2000/svg" xmlns:xlink="http://www.w3.org/1999/xlink" xmlns:a="http://ns.adobe.com/AdobeSVGViewerExtensions/3.0/"
	 x="0px" y="0px" width="612px" height="792px" viewBox="0 0 612 792" style="enable-background:new 0 0 612 792;"
	 xml:space="preserve">
<pattern  x="0.5" y="792.5" width="107.9" height="108.5" patternUnits="userSpaceOnUse" id="SVGID_1_" viewBox="0 -108.5 107.9 108.5" style="overflow:visible;">
	<g>
		<polygon style="fill:none;" points="0,0 107.9,0 107.9,-108.5 0,-108.5 		"/>
		<g>
			<polygon style="fill:none;" points="0,0 107.9,0 107.9,-108.5 0,-108.5 			"/>
		</g>
	</g>
</pattern>
<pattern  x="0.5" y="792.5" width="107.9" height="108.5" patternUnits="userSpaceOnUse" id="SVGID_2_" viewBox="0 -108.5 107.9 108.5" style="overflow:visible;">
	<g>
		<polygon style="fill:none;" points="0,0 107.9,0 107.9,-108.5 0,-108.5 		"/>
		<g>
			<polygon style="fill:none;" points="0,0 107.9,0 107.9,-108.5 0,-108.5 			"/>
		</g>
	</g>
</pattern>
<pattern  x="0.5" y="792.5" width="107.9" height="108.5" patternUnits="userSpaceOnUse" id="SVGID_3_" viewBox="0 -108.5 107.9 108.5" style="overflow:visible;">
	<g>
		<polygon style="fill:none;" points="0,0 107.9,0 107.9,-108.5 0,-108.5 		"/>
		<g>
			<polygon style="fill:none;" points="0,0 107.9,0 107.9,-108.5 0,-108.5 			"/>
		</g>
	</g>
</pattern>
<pattern  x="0.5" y="792.5" width="107.9" height="108.5" patternUnits="userSpaceOnUse" id="SVGID_4_" viewBox="0 -108.5 107.9 108.5" style="overflow:visible;">
	<g>
		<polygon style="fill:none;" points="0,0 107.9,0 107.9,-108.5 0,-108.5 		"/>
		<g>
			<polygon style="fill:none;" points="0,0 107.9,0 107.9,-108.5 0,-108.5 			"/>
		</g>
	</g>
</pattern>
<g transform="translate(3.7367 -942.76)">
	<pattern  id="SVGID_5_" xlink:href="#SVGID_1_" patternTransform="matrix(4.1149 0 0 4.841 47588.9375 77260.6797)">
	</pattern>
	<path style="fill:url(#SVGID_5_);stroke:#FF0000;stroke-width:0.3543;" d="M113.6,1367.1l-10.3,20.6c-14.9-10.4-22-25.6-30-40.2
		l-3.8,25.2c-15.9-23.8-15.4-47.9-19-69c-8.2,10.3-10.3,19.6-11,28.7c-7.3-19.4-7.9-42.7-3.8-67.2l-14.9,8.6
		c6.6-23.8,13.3-47.5,32-68.5l-26.1,12c8.2-17.5,16.9-34.8,42.3-47.9c-3.6-5-8.1-7.4-13.7-7.3l-18.9,5.1
		c11.2-17.9,32.5-25.1,57.4-28.2l-0.8-18.9c-1.3-5.5-6.7-6.8-11.1-9c3.9-1.9,5.7-5.1,14.9-3.8l27,6l26.5-10.6
		c11.4-1.9,24.1-0.1,39,6l-1.7-10.6l-12.1-4.5h-20.2c7.1-3,4.9-7.7,28.8-9.6c21.8,2.5,32.4,16.1,46.3,26.5
		c11.4-10,23.9-17.2,38.1-20.1c16-0.1,28.9,2.5,38.5,8.1c-13.9,0.5-24.3,2.3-31.7,5.6c-9.1,3.2-14.5,6.1-18.9,9
		c15.3-1.2,29.5,1.1,43.6,3.5c12.7,5,23.1,11,27.9,19.2c-8,3.1-17.9,3.5-29.5,1.3c19.5,9.9,33.5,22.5,44.1,36.8
		c-9.9-3.9-19.8-8-28.2-6.5c13.7,16.9,26.7,33.7,26.5,51.4l-15.4-11.6l-11.1,2.2c8.4,9.7,10.6,18.9,14.6,28.2
		c4.7,14.6,8.1,28.9,6,41.5l-15.8-26.1c-0.8,11.1-2,21.9-7.3,28.7l8.6,14.9c9,12.4,6.5,23.8,4.3,31.7l-10.9,22.2l-10.5-23.5
		c-8.4,25.8-23,52.4-34.7,66.3c-0.2-8.5,0.2-17.9-3-21.9c-9.1,24.4-20.7,32.5-31.2,47.1l-1.7-13.1c-4.7-5-7.9-3-10.3-1
		c-6.1,4.8-13.3,11.6-16.7,12c-12.4-1.3-22.4-5.9-31.7-11.1c-8.5-4.9-13.5-12.4-18.9-19.7c1,10.4-0.4,17.9,3.5,31.9
		c-20.8-11.4-28.6-20.8-33.8-29.8L113.6,1367.1z"/>
	<path shape-rendering="auto" color-rendering="auto" image-rendering="auto" d="M267.4,1190.5c-1.6,1.4-4.4,5.5-3.5,11.1
		c1,5.6,6.8,6,8,8c3.6-1.8,5.1-2,7.6-5.5c1.2-1.7,4.3-11,4.4-13c-1.6-1.4-2.7-2.4-4.4-3c-1.9-0.5-3.9-1.2-7.1-0.8
		S268.7,1189.4,267.4,1190.5L267.4,1190.5z M278.9,1199.4c-0.7,1.4-3.3,4.4-5.4,5.5c-1.1,0.5-5.7,2.7-6.9-2.2c-1-7.8,0.1-11,6-12.1
		c1.4-0.2,7.6,0.8,8.6,2C279.8,1195.8,279.5,1198.2,278.9,1199.4L278.9,1199.4z"/>
	<path shape-rendering="auto" color-rendering="auto" image-rendering="auto" d="M212.4,1202.2c3.9,3.3,10.2,7.3,22.6,3.1
		c7.3-2.4,2.2-6,2.5-10.4c-3.5-4.4-8.6-9.1-12.2-9.2c-3.7-0.1-8,0.8-11.2,2.3c-2.2,1-5.9,3.9-10.5,2.5
		C204.1,1194.8,207.9,1198.4,212.4,1202.2L212.4,1202.2z M236,1197.9c0.7,2.9-5.4,7.1-12.2,6s-10.4-5.6-13.6-9
		c5.9-3.1,7.5-5.6,13.9-5.4C228.2,1189.6,235.3,1195,236,1197.9L236,1197.9z"/>
	<g>
		<pattern  id="SVGID_6_" xlink:href="#SVGID_2_" patternTransform="matrix(1.5423 2.513 6.4841 -3.9792 14235.9268 -65829.1484)">
		</pattern>
		<path style="fill:url(#SVGID_6_);" d="M291.4,1405.9c0,0,28.1-12.2,42.1-9.7c14.8,2.6,38.4,23.1,38.4,23.1
			c-2.2-10.2-5.6-19.8-13.3-37.2c0,0-11.7-11.5-19-12.1c-14.5-1.2-40.5,14.2-40.5,14.2L291.4,1405.9z"/>
		<pattern  id="SVGID_7_" xlink:href="#SVGID_3_" patternTransform="matrix(1.5423 2.513 6.4841 -3.9792 14235.9268 -65829.1484)">
		</pattern>
		<path style="fill:url(#SVGID_7_);" d="M138.4,1420c10.2,17.6,36.3,23.5,48.8,19c13.4-4.9,21.8-8.1,21.8-8.1l-2.4-14.8
			c-18-3.7-36.5-5.7-51.4-32l3.6,33c-14.2-6-22.5-16-32-25.1L138.4,1420z"/>
	</g>
	<path shape-rendering="auto" color-rendering="auto" image-rendering="auto" d="M183,1081.6c-14.5,0.6-23.4,6.5-32.5,13.6
		c9.4,0.2,26.3-2.3,34.1,3.3c1.8,1.3,2.7,3.7,0.1,5.4c-9-3.9-19.8-6.1-33.5-4.4c-5.6,0.6-24,10.2-30.2,10.3
		c-7.5,0.1-17.2-4.3-26.2-4.5c-6.8-0.1-13.3,3.2-17.1,6.7c2.4,1.9,7.7,2.3,10,3.5c2.6,1.2,3.1,4.9,3.1,6.5c-0.1,4.1-3,12.1-1.9,13.9
		c-7.5,0.7-7.5,1.4-12.8,2.2c-12.9,1.7-24.5,8.8-33.5,17.9c-4.1,4.2-13.7,13.6-16.4,18.9c9.6-3.8,15.3-7.2,18.5-8
		c9.8-2.6,16.3-0.2,17.9,2.5c-1.2,0.8-10.2,6.8-11.4,7.8c-6.6,5-12.1,11-16.6,17.8c-6,8.7-10.3,18.6-13.1,28.8
		c7.1-3.8,14.1-9.9,21.3-10.6c-10.9,14.2-18.5,30.6-23.1,47.9c-1.6,5.9-2.9,17.2-3.6,23.2c7.4-8.8,11-11.4,17.2-14.6
		c-1.1,4.2-4.4,16.6-4.7,20.8c-1.2,19.2,5.1,38.3,13.1,55.6c2.2-9.4,0.5-22.5,6.8-31.1c-1,10.9,1.4,23.3,5.9,35s10.8,22.7,17.5,30.7
		c1.6-4.8,3.1-15.5,3.3-22.9c3.6,5.6,5.1,11.5,11.4,20.3c5.1,7.2,11.2,12.7,20.4,16.1c0.1-4.2,1-11.2,5.4-20.7
		c9.2,19.4,28.3,39.2,48.3,47.2c-3-9.6-3.1-17.7-3.8-29c4.1,8.4,14.7,16.4,24.5,20.8c9.4,4.2,19.8,6.5,28,6.3
		c4.4-6.2,12.1-14,16.9-13.7c3,0.1,4.8,1.7,4.7,10.2c0,4.7-0.5,7.9-2.2,12.7c3.3-3.9,9.8-10.6,12.2-14c9-12.2,19-21.5,24-36
		c2.9,9.1-1,16.3-1.8,25.5c16.9-19.4,32.3-45.5,40.2-70.2c-0.4,8.8,8.5,15.2,9.4,23.7c1.4-1.8,7.6-14.9,8.8-17
		c6.3-10.8,8.2-23.8,4.9-36.3c-2-7.7-7.2-15.5-11.5-21.8c2.6-4.2,5.6-9,6.7-18.3c4.8,6.6,9,14.8,14.7,25.5
		c4.7-23.3-5-57.7-18.4-76.5c3.1-1.3,7.6-1,10.9,0.8c6.2,3.6,10.8,11.2,13.6,12.3c1.3-10.6-0.7-20-4.8-28.2
		c-3.3-6.9-13.5-21.9-19-27.5c8.8,1.6,20.7,4.4,27.7,10c0.6-5-7.8-17.8-13.3-21.9c-6.7-5-15.7-12.4-24-16.9
		c7.5,0.8,20.7-0.2,25.5-1.9c-9.4-12.3-20.3-20.7-34.8-26.1c-4.9-1.8-23.2-4.4-37.2-1.9c6-1.2,16.1-7.8,27.4-9.1
		c12-1.4,21.9-0.5,30.2,1.1c-8.5-5-17.7-9.7-27.3-12.6c-11-3.3-22.8-3.8-34.2-0.7c-10.8,3-24.1,13.6-28,14.1
		c-3.9,0.5-14.3-9.2-22-13.7C202.3,1085.6,191,1081.2,183,1081.6L183,1081.6z M178.7,1087.9c4.9-0.1,9.3,0.2,10.2,0.4
		c9.6,1.4,17.3,6.2,24.5,12c5.9,4.8,11.4,10.3,17.1,15.4c6.8-6.1,22.5-16.6,31.1-20.1c10.8-4.4,22.8-1.7,34.4,1.7
		c-8.2,0.6-23.5,3.9-30.6,7.5c-6.1,3.1-12.1,7.1-18.4,11.5c12.2-2.4,17-1.9,20.1-1.9c6.9-0.1,11.5,0.6,22.2,3.3
		c13,3.5,25.8,9.4,34.3,16.4c-10.6,1.9-30.6,0.1-39-3.5c14.3,10,19.6,14.1,29.9,21.5c5.6,4.1,15.5,10.5,19.8,15.7
		c-12.6-4.4-20.2-4.8-25.6-2.9c2.6,5,9.3,15.2,14.2,22.6c5.4,8,11.6,15.5,12,23.2c-13.9-13.4-15.7-4.9-18.3-5.7
		c-5.5-1.7-8.4-3-16.4-6.7c4.2,5.3,7.6,7.7,13.1,14.6c4.7,6.6,8.6,13.7,11.6,21.3c4.2,10.4,8.4,25.3,9,36.9
		c-4.9-7.2-10.4-17.6-14.3-22.9c-4.9-6.8-10-11.6-18.3-13.3c2.5,3.3,7.2,5.9,10.2,10.8c2.4,3.9,3.5,9.9,3.7,15.8
		c0.2,6.5-2.2,11-4.4,14.3c-2.5-1-5.5-1.8-7.4-4.1c-1.1-1.2-5.4-6.2-7.9-8.7c-1.1,2.3,3.2,9.2,5.3,11.8c2.6,3.2,5.5,3.7,5.4,7.2
		c0,1.7-2.4,5.3-3.5,6.7c-3.7,5-6,8.2-8.2,10.4c-1.2-4.9,0.7-15.2-1.2-18.9c-1.6-2.9-1.4-3.8-6.9-9.4c1.9,5.5,3.8,11,4.2,14
		c1.1,8.5-1.7,21.6,0.4,22c2.4,0.5,8-5.6,11.4-9.8c3.6-4.4,7.6-7.8,9.1-8.6c6.6,9.9,13.9,18.6,12.1,30.2c-0.8,5.4-6.3,22.4-10,27
		c-0.6-7.1-4.8-14.9-6.5-19.5c-3.5-9.6-5.1-12.8-7.3-15.1c0.2,4.5,1.7,7.4,0.7,11.8c-1.6,7.1-5.7,15.3-8.2,20.9
		c-3.5,8.1-7.4,17.8-10.9,25c-1.4,3.1-6.3,13.7-10.4,17.8c-0.2-5.1-3.2-17.3-3.8-20.3c-1.9-8.7,3.1-17.8,1.9-26.9
		c-0.7-5.1-5.3-7.3-8.7-13c-4.8-7.9-3.7-10.6-3.9-17.2c-3.5,8-2.7,9.6-1.2,15.3c1.7,6.1,4.5,6.8,6.9,12.9c2.2,5.4,3.6,11,2,17
		c-4.8,6.6-3.5,5.6-2.4,15.3c-1.3,1.4-1.7,8.1-5,14.1c-3.2,5.9-9.6,12-10.8,13.9c-2.2,3.5-6.1,8.8-9.7,13.4c-1-6.2-0.5-8.4-5.4-11
		c1.3-4.7,6.6-14,9.6-19.8c4.3-8.4,7.9-17.9,1.3-26.7c-6-8-10.4-17.3-11.8-27c-0.8-5.7,0.7-12.6-0.2-17c-2.7,5.4-5,9.7-3.9,17.1
		c1.3,9,5.3,18.8,9.2,24.4c9.2,13.3-0.4,35.7-9.3,44.8c-5.6,5.6-10.5,16.3-16.9,16.3c-2.3,0-4.2-5.9-7.5-10.6
		c-3.1-4.4-9.9-9.7-12-13.7c-2.3-4.5-3.3-9.4-2.9-14.6c0.6-6.6,0.7-10.9,3.1-17.8c3.6-10.4,9.9-13.3,7.2-22.4c-0.8,8-7.5,14-10.5,22
		c-2.6,7.1-4.4,12.3-5.3,17.5c-0.7,4.3,1.2,9.7,3.5,14.8c2.6,5.9,7.3,11.4,12.8,16.3c1.6,2.2,5.7,8.5,5.1,9.7
		c-1.9-1-17.6-4.9-19.7-5.9c-9.2-4.4-19.1-14.3-22.4-23.1c-1.3-3.5,0.6-6.7,1.8-11.5c1.8-6.9,5.3-17.2,6.9-22.9
		c-3.1,3.9-9.3,14.8-11.2,18.9c-2.4,5.3-5.3,12-5.5,17.7c-0.2,6,2.7,19.4,3.9,25.6c-7.2-0.7-18.3-11.1-26.4-23.2
		c-4.8-7.1-7.9-15.3-10.3-20.7c-5.1-12.1-6-22.8-4.8-36c1-10.5,4.9-24,4.7-32.2c-4.8,7.3-8.4,18.3-10.5,29.6
		c-2.2,12.1-1.1,28.8,1.1,37.9c-2.6,3.9-4.8,5.4-9.6,14.3c-14-12.3-21.3-33.7-23.9-48.4c-1.8-10.4-2.3-22.2,1.1-32.6
		c2-6.5,5.9-12.2,11.2-17.1c8.4-7.7,15.7-22.9,15.2-35.9c-4.8,10.9-10.9,26.7-22.2,36c-4.8,3.9-7.3,9.4-9.3,14.8
		c-3.8,10.4-4.2,22-4.1,32.9c0,4.3,2.6,25.8,1,30.7c-3-2.5-8-15.4-9.3-23.2c-2.2-11.7-4.4-40.5-3.2-48.1c1.6-9.3,1.8-19.2,6.5-28.1
		c3-5.6,7.2-10.2,10.3-15.7c-7.3,5.7-12.7,10.2-15.9,17.7c-3.5,7.9-6.5,16.9-7.4,23.9c-1.1,8-1.3,12.2-4.4,16.6
		c-2.3,3.3-3.7,4.8-6.8,9.3c-3.7-15.8-1.6-38.8,1.3-56.4c-6.2,4.9-7.9,7.7-13.1,8.5c0.6-1.9,5-15.7,5.7-17.6
		c3.7-9.9,9-20.1,15.2-29.3c5.3-7.8,11.1-14.9,17.2-21c-5.9-0.5-27.9,9.8-33.6,14.1c6-7.9,8.2-13,12.8-18.4
		c9.3-11,17.1-18.6,28.6-24.6c4.3-2.3,11.2-6,15.9-5.4c0.1-2.7,3.8-6.5,6.7-8.6c7.2-5.5,17.2-8,26.7-10.6c8.6-2.3,17.3-3.6,24.7-4.3
		c-5.7-1.4-18.2-0.6-28.3,1.2c-16,2.7-25.8,7.8-34.1,16.9c-5.4,1-9.8,2.7-13.6,5.9c-6.2-6.8-12.4-6.6-25-3.7
		c12.1-13,51.6-20.6,51.6-20.6s-2.3-7.2-1.2-13.1c0.8-4.8-2.5-13.3-8-16.3c1.4-0.2,9.1-1.8,14.1-0.4c8,2.4,12.6,4.7,18,6
		c5,1.2,10.2,1.9,14.7,2.5c7.8,1,15.2,2.9,20.3,3.7c4.8,0.7,9.2,2.9,12.7,5.6c-6.2-0.6-12.4-0.4-18.6,1.1c-1.6,0.4-8.7,2.5-10.8,5.7
		c11.4-3,22.2-2.7,30.5-2.5c3.5,0.1,14.8,3.5,21.2,6.3c1.7,0.7,7.1,2.9,11.6,4.5c-5.9-6.2-17.8-13-22.8-14.6
		c-5.9-4.4-10.9-8.1-17.7-10.9c-8.1-3.2-16.7-4.7-25.5-5.5c1.3-1.2,11.2-6.2,13.3-6.8c18.8-5.4,25.2-0.1,42.7,6.9
		c4.4,1.8,22.8,12.3,27.7,8.7c-6.3-1.4-15.3-7.1-19.5-9.6c-4.2-2.6-7.1-5.1-8.1-12.4c-1.4-4.5-8.8-8.1-16.1-8.8
		c-3.7-0.4-9.8,1.2-13.9,0.7C165,1089.7,173.8,1088,178.7,1087.9L178.7,1087.9z M265,1120.8c-9.1,0.6-12.9,0.5-21,4.7
		c-7.5,3.8-7.4,8.6-6.8,10.6c2.5-6.5,12.7-9.9,17.5-11.2c7.8-2.2,11.5-1,19.4-1.9c13.6-1.6,21.2,6.2,32.8,5.6
		c-8.4-3-14.7-5.9-23.3-8.1C279.2,1119.3,274.5,1120.3,265,1120.8L265,1120.8z M135.1,1155.3c-5.3-0.1-10.4,0.2-15.4,1.1
		c-8.7,1.6-16.6,5.4-24.3,11.2c-6.6,5.1-16.5,5.9-21.8,12.3c-2.4,2.9-6.8,7.2-14.7,14.6c11.5-6.1,12-8.6,19.8-14.2
		c6.5-4.7,14.6-6.7,20.3-9.8c8.4-4.5,14-9.3,20.8-10.2c6.2-0.7,14.7-1.6,20.6-4.9C138.7,1155.4,136.9,1155.3,135.1,1155.3
		L135.1,1155.3z M118.8,1178.5c-4.9,2-18,12.1-22.1,15.5c-5.6,4.9-10.8,10.5-16.5,14.9c-4.8,3.7-10.2,6.6-16.6,7.9
		s-10.9,6.6-15.3,11.6c-5.6,6.5-6.5,17.1-7.4,24.1c4.1-9,7.5-16,12.9-22.5c4.2-5.1,8.2-7.4,11.6-8.2c11.7-2.7,20.6-10,28.6-18.3
		C100.7,1196.9,111.3,1186,118.8,1178.5z M141.7,1178.9c-7.4,2-11.1,6.2-13.9,11c-4.1,7.4-6,15.8-14.9,21.4
		c-6.1,3.7-14.1,6.8-19.4,11.5c-6.2,5.5-9.8,12.7-15.5,18.6c13.7-3.8,17.1-15.4,22-17.2c6.6-2.5,16.9-8.2,20.9-12.9
		c6.2-7.2,4.5-9.6,9.8-18C133.8,1188.2,137.8,1183.9,141.7,1178.9L141.7,1178.9z M150.6,1193.7c-7.6,6.9-14.9,13-20.7,20.3
		c-4.3,5.5-8.2,11.7-9.3,19.7c-1.4,11.2,8.5,17.7,12.8,27.6c1.8,4.3,1.8,10.9,0.6,16c-1.4,5.7-5.3,14.6-5.6,22.5
		c1.7-5,10.2-13.9,11-19.2c0.7-5.3,1.3-10.5,0.2-15.5c-1.2-5.3-4.2-10.4-8.1-14.8c-11.8-13.5-1.3-30.5,8.4-41.5
		C144.6,1202.9,146.3,1200.7,150.6,1193.7L150.6,1193.7z M172,1206c-8.2,5.1-13.3,13.3-16.6,18.2c-4.3,6.5-5.7,18.4-3.9,26.5
		c2.6,11.4,8,20.9,13.9,30.4c3.9,6.3,7.3,10.6,10,18.2c1.8,4.9,3,9.3,2.2,14.9c-2.2,16.3-4.1,20.4-7.3,29.3
		c7.6-2.4,13.7-11.4,17.8-20.7c3.2-7.5,5-15.1,5.1-19.7c0.5-21-9-32.3-13-51.2c1.2,0.2,5.1,4.8,9.8,11.2c7.9,11.1,10,17.1,13.9,27.5
		c2.5,6.7,5.9,17.8,5.4,29.3c-0.5,11-1.9,26.8-2.2,35.9c4.3-9,7.6-29.2,7.1-40.6c-0.6-11.8-2-20.1-5.4-28.6
		c-3.8-9.7-12.4-27.9-20.6-35.3c-5.9-2.2-13.4-7.3-16.4-14.8c-3.8,20.8,5.3,29.4,12.7,46.1c1,2.3,4.2,9.9,4.2,17.3
		c0,5.4-1.7,17-2.9,19.6c-3.1,6.8-6.5,12.6-11,18c1-4.5,4.7-11.7,6.2-19.7c1.3-6.8,0.7-14.7,0.1-17.6c-1.8-8-7.6-15.3-12.6-22.9
		c-3.9-6.2-7.6-12.6-9.6-19.1c-3.8-13.6-3.1-21.8,0.8-30.5C163.5,1219.3,166,1214.1,172,1206L172,1206z M149.7,1286.1
		c-0.1,8.1,3,25.6-7.6,34.4c-4.3,3.6-6.8,9.4-8.2,14.6c-2.2,8-1.6,15.3,1.1,20.6c3,6,4.5,9.1,10.4,17.7c-2.3-6-3.3-8.6-5.3-15.4
		c-2.6-9.3-3.7-12.6-1.7-21.5c1.2-5.5,6.1-10.6,9.4-15.7C153.6,1312,157.7,1298.5,149.7,1286.1L149.7,1286.1z"/>
	<path shape-rendering="auto" color-rendering="auto" image-rendering="auto" d="M362,1228c-9.9,0.1-23.1,2.2-30.8,7.7
		c0,1.2,0.1,2.4,0.7,4.1c12.2-2.4,23.7-3.6,38.3-1.3c19.8,3.2,30.2,14.5,45.9,29.3c12.9,12.2,19.8,36.5,19.4,50.1
		c-0.6,20,4.8,34.7,3.9,54.3c-0.8,20.7-5.5,36.6-10.8,56.4c-1.1,3.9-3.2,7.2-5.6,10.2c3.5,3.5,7.9,6.9,9.1,12.7
		c0.5,2.4-1,9-1.7,12.3c-3.3,16.3-2,36,1.2,52.5c-2.7,3-4.2,5.7-4.7,8.4c-0.7,4.2,1,8,3,11.8c2.3,4.5,9,10.3,8.5,15.9
		c-0.6,6.3-6,9.2-8,10.5c-2,1.4-4.5,0.6-7.5-2c0.6-3.1,0.7-7.4,0.2-9.7c-0.8-3.7-1.4-6.9-3.7-10.3c-1.3,2,0.4,4.2,0.6,8.2
		c0.2,3.9,0.8,8.4-0.2,11.6c-2.6,3.6-4.8,3.7-8.6,3.9c-1.7,0.1-3.8-0.6-6-2.4c0.4-1.1-1.4-6.3-1.3-9c0.5-5.6,2.5-8.6,0-13.7
		c-0.7,2.7-1.6,5.3-2.3,9c-0.8,4.7-1.2,9.7,0,13.4c-3.2,2.6-5.7,3.3-8.8,2.4c-2.4-0.7-4.3-2.2-5.7-3.8c-0.5-4.1-1.1-4.8-0.4-10.5
		c0.5-4.2,3.9-9,4.3-10.9c-2.9,1.3-4.9,4.3-6,7.3c-1.4,4.2-1.9,9.2-1.2,12.8c-3,2.7-6.8-1.1-7.9-2.2c-2.5-2.6-2.9-6.3-2.2-10.4
		c2-11.7,13.9-17,21.9-12.1c8.6-9,12.6-19.1,11-32c-2.3-18.3-3.6-33.6-10.6-49.4c2-3.5,4.3-9.9,3.5-12.6c-2-6.1-12.8-9.6-17.6-16.1
		c-4.3-6.1-7.3-12.2-9.9-18c-4.8-10.8-6.3-22.2-14.7-31.2c-1.8-1.9-8.8-5.5-11-6.5c4.7-2.3,8-4.1,12.7-9.1c5.3-5.6,6.6-20.9,5.5-22
		c-6.3,16.7-13.4,20.9-23.2,24.4c-2.5,0.8-5.1,2.3-8.2,2.6c-7.6,0.7-15.5,3.2-22.2,7.8c-3.5,2.3-6.6,4.9-9.3,7.7
		c0.1-1.2,0.1-2.3,0.1-3.3c-0.2-4.3-0.1-7.1-1.2-9.6c-2.5-6.5-5.9-8.2-10.4-11.5c0,0,4.2,6.9,5.9,11.1s1.2,7.4,0.6,10.2
		c-0.7,3.7-2.6,8.2-4.1,12.9c-1.1,3.7-2.2,6-2.6,8.4c-1.4,7.3-4.5,21.8-4.3,34.2c0.7,27.1-6.9,54-14.2,80c0.4,7.2,1.4,16.5,2.5,23.1
		c-0.7,3.1-3,4.9-3.3,9.4c-4.1-2.9-8.6-4.9-13.3-4.8c-5.3,0.1-12.1,1.9-18.6,5.3c4.9-1,13.1-0.5,17.9,0.2c3.7,0.5,8.1,2.2,13,6
		c5.6,4.3,9.6,13.9,9.4,22c-0.1,5.9-2.4,10.4-7.1,12.4c-3.6,1.6-8.1,1.8-12.4-2.4c-1.6-4.2-1.8-8.1-1.8-13.4c0-2.9-0.4-6-1.9-8.7
		c-1.4,1.9-0.7,5.9-1.1,9.3c-0.5,4.2,0.4,8.2,1.3,11.5c-1.4,3.8-3.6,5.9-7.2,6.1c-2.7,0.2-6.7-1.2-9.4-3.5c-2-3.1-1.7-6.9-2-10.4
		c-0.2-2.4,0.1-7.3-0.1-11.8c-1.8,3-3,7.8-3.1,12.4c-0.1,3-0.4,7.1,0.6,9.4c-2,2.5-3.6,3.1-6,2.7c-4.1-0.6-6.5-1.8-8.5-3.5
		c-1-3.7-1.4-5.6-1.8-8.7c-0.4-2.6,1.8-9.8,3.7-14.3c-3.6,2.6-5.9,8.4-6.5,12.9c-0.4,3.2-0.2,6.6,0.6,9.3c-0.6,1.2-0.4,3.7-3.7,3.5
		c-7.3-0.5-7.3-5.7-7.6-9.9c-0.7-9.6,11.7-23.1,19.7-27.7c4.8-0.5,7.1-2.4,8.1-5c1.4-3.8-2-8.8-2.6-14c-1.1-8-0.7-16.4,0-24.3
		c4.9-13.5,6.9-29.4,5-44.6c-2.3-19.1-8.7-37.3-18.4-53.7c-7.1,6.9-3.9,9.2-13.5,7.9c2.4,16.1,6.1,33,0.1,48.9
		c8.6,15.7,4.7,34.7,11.1,51c-7.2,11.1,12.1,24.7-2.3,33c-6,8.6-16.1,18.8-26.1,22.6c-6.2,2.4-12.6,2.6-17.6-1.9
		c-2.7-2.6-5.7-8.8-5.3-13.6c0.5-3.8,3.6-8,5.4-11c-6.1,2.3-8.7,8.7-8.4,14.9c0.2,4.3,1.9,8.5,4.8,11.4c-6.5,2.4-14.3,1.2-19.8-2.7
		c-1.2-4.2-0.7-9.8,1.4-14c2.5-4.9,5.6-7.1,9.2-10.4c-5.4,1.2-9.1,4.1-11.2,7.5c-2.3,3.7-4.4,8-3.2,14.7c-3.6-0.5-5.3-5.7-4.2-11.2
		c0.7-4.2,3.6-8.8,6.1-11c5.7-5.3,17.2-6.1,24.6-2.2c4.4,0.4,5.7-1.1,7.6-1.3c4.3-0.1,8.6,1.9,12.8,2.6c4.1,0.7,9,1.8,13.6-0.1
		c3.8-1.6,6.9-6.5,4.9-10.2c-0.8,3.5-3,5.6-5.6,6.7c-3.1,1.3-7.1,1.2-10.8,0c-2.5-0.8-6.1-3.9-10.6-4.2c3.7-7.8,1.4-20.8,0.6-28.4
		c-2.4-21.3-17.3-38.3-22.9-59c-4.7-17.6-20.7-29.8-25.6-47.7c-4.9-4.7-7.9-8.2-12.2-14c7.5,18,13.1,36.6,25.6,52.2
		c9.3,11.6,8.8,27.6,16,40.5c5.4,9.7,11.8,19.7,13.4,30.6c0.6,4.3,1.4,10.6,0.4,15.8c-0.7,3.9-3.2,6.7-3.8,9.9
		c-5.5-1.3-12.8-3.5-18.3-2.9c-11.6,1.4-20.6,9.4-22.7,23.2c-2.2,12.9,9.1,21,20.8,22.7c6,0.8,12.3-1.3,16.7-2.9
		c6.5,5.3,10.6,7.1,17.3,6.2c6-0.8,12-6.9,16.3-13c-4.9,12.9-1.4,19.2-0.6,20.2c2.2,2,3.9,4.4,7.4,5.5c2.4,0.7,7.9,0.5,12.2-2.7
		c1.6,2.7,3.6,4.4,6.3,4.4c5.4,0,6.3-0.2,11.8-5.5c2.3,4.4,6.6,6.2,11.7,6.7c3.2,0.2,6.2-1.4,8.7-4.7c4.5,4.2,11.8,4.8,16.4,3.2
		c9.3-3.2,13.3-15.7,12.4-25.7c-1.1-12.1-16.3-19-8.5-31.3c-1.9-18.4,3.8-35.6,9.3-53.6c7.2-23.5,4.7-49.1,4.3-73.6
		c0-2.3,2.4-2.9,3.6-2.7c1.4,0.1,2.9,1.3,4.3,3.1c4.9,6.1,10.6,19.1,12.9,24.5c4.1,9.2,12.7,15.5,20,22.5
		c6.7,6.5,11.7,13.4,12.2,23.8c0.5,9.8,6.8,23.5,1.3,32c-1.3,2-3.1,6.7-6.5,8.2c-3.5,1.7-8.5-1.7-12.4-2.3
		c-7.3-1.3-18.8,1.2-22.8,6.2c-6.3,7.5-11.6,25.9-4.7,34.2c1.8,2,6.2,5.1,10.6,5.3c4.2,0.1,8.2-2.5,10.9-4.4c2.2,3.8,6,6.6,9.4,6.7
		c3.2,0.1,8.2-0.7,10.5-4.2c2,1.8,9.1,6,11.7,6.3c3.2,0.4,11.8-1.9,15.2-9.9c0,2,1.2,6.1,4.3,8.4c2.3,1.6,7.2,3.3,10.3,0
		c3.3,7.4,13.6,10.8,19.5,4.7c5.3,4.2,12.3,7.1,17.9-0.6c6,2.7,11,2,14.8-0.6c5.1-3.5,8.5-10.2,10-16.5c3.5-14.1-12.3-22.9-9.3-36.6
		c3-9.2-1.4-24.9-0.1-40.4c0.8-9.8,4.4-19.8,6.5-25.7c-4.2-7.5-8.1-10.5-13.6-14.5c7.6-13.6,14.9-36.9,17.3-53.8
		c3.3-24.1-2.7-44.9-4.7-69.3c-1.3-15.9-4.5-27.7-8.6-36c-3.6-7.2-9.1-16.9-16.3-24.6c-8.7-9.6-18.6-15.1-26.9-20.2
		C384.2,1230.5,373.3,1227.9,362,1228L362,1228z M337,1372c4.4,0.1,8.1,1.4,11.5,3.6c10.3,6.9,15.2,22.6,17.9,35.3
		c2.2,9.6,10,17.3,16.4,24.9c2.3,2.6,5.9,5,6.5,8.5c0.6,3.9-2.2,9.1-3.9,15.1c-4.3,14.6-9,30.5-8.6,45.2c3.5,9.6,2.6,18.6-2.5,25.7
		c-5.1,6.9-9.2,12-8.8,21.2c0.4,8.4-7.1,12.2-13.6,10.5c-4.5-1.2-8.5-2.4-11-5.5c-1.7-2.2-2.5-5.6-2.4-8.5c0.1-1.6,0.7-6,1.3-9.9
		c-2.4,1.8-4.1,5.5-4.5,8.6c-0.6,4.1,0.6,8,2.3,10.9c-1.7,1.3-4.8,1.4-6.6,1.3c-3.3-0.4-7.5-1.6-8.4-9.4c-0.6-5.4,1.1-7.9,2.3-12.9
		c-3.6,2.9-4.8,6.3-5.4,9.4c-0.7,4.3-0.4,7.1,0.4,10.8c-2.6,2.7-9.9,2.5-11.6,1.3c-7.3-5.3-0.6-19.1,2.7-23.8
		c6.1-8.2,15.5-6.7,22.1-5.5c3.7,0.7,7.9,2.3,10.6,0.4c3.1-2.2,6.7-1.9,10.3-1.4c3,0.5,8.1,3.5,11,4.8c-1.2-3.3-4.3-5.5-7.4-7.5
		c-1.2-0.7-5.6-1.1-6.7-1.4c1.6-3.6,4.3-9.2,5-14.2c1.7-11.5-0.7-24-2-35c-1.2-10.5-8.7-17.3-16-24c-7.2-6.6-14.7-12.9-18.2-22.4
		c-2.5-6.7-5-14.1-9.3-18.6c-3.8-3.9-9.2-5.3-14.5-8.6c0.5-1.6,2-6.2,2.7-8.4c0.5-1.4,0.8-3,1.2-4.5c2.2-1.8,4.8-3.2,6-3.9
		c6.8-3.7,12.9-6.5,21.4-9.7C329.3,1373.5,335.7,1372,337,1372L337,1372z M212.2,1413.9c8.7,14.5,16.3,32.5,17.1,49.6
		c0.7,14.2-2.6,28.7-5.6,42.2c1.2,7.2,0.8,18.3,3.5,32.4c0.4,1.7,0,4.5-3,3.8c-2.3-4.7-7.2-18.2-3.6-26.3
		c-3.7-7.7-1.8-25.5-3.8-34.4c-2.5-10.8-6-11.7-6.8-17.3c5.5-14.3,7.5-24.6,1.1-41.4l-0.6-6.2L212.2,1413.9z M391.7,1461.9
		c0.1,7.3,4.2,22.5,5,31.6c1.3,12.9,4.7,25.2-4.4,35.5c-3.9-1.1-9,1.1-12,1.8c3.6-6.8,7.5-24.3,2.2-29.9
		C386.3,1492.3,386.2,1469.6,391.7,1461.9L391.7,1461.9z"/>
	<pattern  id="SVGID_8_" xlink:href="#SVGID_4_" patternTransform="matrix(4.8512 0 0 3.5673 59606.9492 56766.1719)">
	</pattern>
	<path style="fill:url(#SVGID_8_);" d="M453.8,1139.9c0.8,5.4,3.8,7.7,9.8,5.6c14.1,2.2,25.3,3.1,28,0.2c1.9,0,8.1-6.1,21.4-22
		c4.1-6.1,9.4-8.6,12-19.2c1.9-6.6,0.4-9,0.2-13c-1.7,5.9-7.5,8.1-12.4,11.4c-9.8-0.5-19.5,5.5-29.3,8.6c-9.6,1.1-17.7,3-24.4,5.7
		C453.6,1122,449.8,1128.2,453.8,1139.9L453.8,1139.9z"/>
	<path shape-rendering="auto" color-rendering="auto" image-rendering="auto" d="M512.9,1099.9c-5.9-0.7-18.5,4.3-24.6,7.3
		c-7.9,3.9-17,1.3-25,4.3c-8.8,3.2-20.2,15.9-11.5,28.3c-9,3.3-16.1,10.5-20.7,16.6c-7.4,10-16.4,22.4-14.8,35.3
		c1,8.5,7.2,18.6,14,24.5c9.7,8.2,16.5,18.8,22.8,30.2c5.4,9.7,7.5,16.3,2.7,27.5c-1.8,4.4-4.5,9.1-10.6,8.7
		c-4.3-0.2-7.8,0-12.2-4.9c2.2,3.9,2.9,6.8,3.9,9.2c5.9,6.7,9,10.6,17.7,5c10.3-6.7,15.2-17.2,12.6-29.2c-2-9.3-2.9-13.1-7.1-21.8
		c-3.3-6.9-7.9-14.2-13.6-19.5c-5.5-5.1-14.7-16.1-18.8-22.2c-5-7.4-2.3-18.4,2.3-26.5c6.3-11.4,14.9-26.9,24.5-29.2
		c4.4-2.5-3-14.3,2-19.7c8.8-9.4,19.4-9.2,25.1-9.1c8.1,0.2,10.6-6.1,22.6-7.4c6.1-0.7,13.1-0.5,18.9-8.5c-2.6,9-8.5,20.7-12.6,22.9
		c-6.7,3.5-11.7,9.8-14.6,16.9c-2.9,6.8-15.2,5.4-22,5.4c-5.9,0-11.2-3-14.1,3.7c-5.4,14.1-9.6,17.9-14.2,26.8
		c-5,9.6-0.5,17.8,5.9,26.2c9.9,13.3,22.6,20.4,30.8,35c6.3,11.2,9.4,24.7,6.6,37.5c-3.1,14.1-12.9,24.9-25.5,31.8
		c-6.9,3.8-15.1,2.7-21.6,4.5c0.1,2.5,0.5,4.4,1,5.7c5.4,1.7,11.5,1.3,17.5-0.4c5.5-1.6,10.9-4.2,15.4-7.3
		c10.8-7.4,18-18.8,21.2-31.2c3.3-13,2.3-27.1-3.7-39.3c-6-12.3-16-21.5-26.8-29.5c-7.3-5.4-15.5-12.4-16.7-21.4
		c-1.2-8.6,5.3-17,9.9-24.1c4.3-6.7,4.5-9.1,5.4-14c5.5-1.6,14.5,5.7,21.4,4.3c9.7-2,16.5-11.4,22.2-19.2c4.9-6.8,9.6-8.7,14.9-18
		c2.3-3.1,4.8-7.8,5.3-13.3c0.4-4.8,1-13.6-3.6-16.7C524.4,1089.8,518.7,1096.3,512.9,1099.9L512.9,1099.9z"/>
	<path shape-rendering="auto" color-rendering="auto" image-rendering="auto" d="M189.9,1122.3c-2.4,0.1-10.4,0.4-9.8,1.8
		c9.2,4.3,14.3,6.3,24,13.4c3.9,2.9,6.9,4.9,9.2,7.9c-3-0.2-7.4-0.6-11.4,0.8c-3.6,1.3-6.7,4.3-7.6,5.1
		c-4.3-10.5-17.5-14.5-27.5-13.1c-16.7,2.2-26.9,16.9-25.2,32.4c0.6,5.5,7.8,17.9,16.6,16.5c-6.2-4.2-9.9-11.5-9.8-19
		c0.1-12.1,7.6-22.2,20.9-23.1c9.1-0.6,19.2,2.3,22,12c0.8,2.7,2.3,7.8,3.3,8.8c1.7-5.3,3.6-13.9,10.4-15.2
		c5.9-1.2,13.1,0.2,17.7,0.4c-1.7-8.7-22.8-20.1-30.8-24.3c7.2,0.2,13.4,1.7,16.5,2.6c5.9,1.9,19.4,6.9,27.7,11.8
		c-5.6-6-14.5-11.2-19-13.6C209,1123.3,199.2,1121.9,189.9,1122.3L189.9,1122.3z M262.1,1148.2c-4.5-4.9-17.9-5.5-22.2-4.7
		c2.7,3.5,6,8.2,7.9,12.4c2.2,4.5,0.1,8.7-2.5,14.5c4.1-2.7,7.2-9.2,7.1-12c-0.2-6.1-2-6-5.1-10.4c5.6-0.1,11.1,0.8,15.9,4.4
		c6-4.4,7.9-10.9,16.4-11.1c5.5-0.1,15.1,1.7,18.3,11.1c1.7,4.8-0.2,11.4-2,15.4c-2.4,5.5-14.8,11.8-21.6,4.8
		c-3.5-3.6-4.2-8-3.2-11.6c0.8-3,3.6-6,9.7-4.9c2.7,0.5,5.3,0.7,7.1,6.5c2.7-5.3-2-9.3-3.9-10.2c-5.6-2.5-11.6-0.8-14.5,1.6
		c-3.7,3.1-5.6,9.7-3.9,14.5c2.6,7.4,9.8,12.2,16.1,15.2c4.7,2.2,8.5,8.4,8.7,12.3c0.2,3.6,0.7,16.6-2.6,21.3
		c1.9,2.4,0.7,10,2.9,12.1c3.8,3.7,7.2,14.1-3.5,24.1c-3,2.9-6,3-9,1c-1.2-0.8-1.2-5-0.7-6.7c1.1-3.2,0.6-3.7-3.9-3.5
		c-1.9-0.2-4.5-0.5-4.8,2.3c-0.2,1.6-1,7.7-1.7,8.2c-13.5,5.7-21.6,6.6-34.1,4.7c-5.3-0.8-11.1-3.2-15.9-7.3
		c-2.7-2.3-5.3-5.4-4.8-9.3c0.6-4.5,12.9-8.1,12.4-10.8c-2.5,0.2-7.2,0.4-8.5-1.1c-2.3-2.4-5.4-6.9-6.9-9.8c-1,2.5-0.8,4.8,0.1,8
		c0.5,1.4,1.7,3.6,1.4,4.9c-0.1,1.2-1.2,1.7-2.5,2.9c-2.9,2.6-3.6,5.7-2.9,8.8c1,4.9,3.7,11.1,8.5,13.4c10.9,5.3,24.3,10.3,36.6,9.1
		c8.1-0.8,16-7.2,22-8.8c1,2.5,5.5,6.3,8.7,4.5c1.3,1.7,2.4,12.6-1.3,14.9c7.9,9.4,3.2,16.4-0.7,23.1c0.1-6.6-3.9-8.7-7.4-15.1
		c-2.9-5.1-6.2-9.3-8.8-11.2c0,3.3,1.3,4.4,2.5,7.2c0.8,2,1.1,3.7,1.2,5.6c0.1,1.7-1.6,5.7-2.9,9c-0.6,1.7-1.4,3.6-2.5,5.9
		c-4.5-1.6-7.9-5.1-10.6-9.9c-3.6-6.2-0.7-14.3-2.3-17.9c-0.8,3.7,0.4,6.2-3.3,11.4c-0.5,7.3-3.2,9.9-5.3,13.9
		c-3.2-2.2-5.7-6.8-6.8-11.1c-0.6-2.6-0.7-5-1.1-7.2c-0.1-0.7,1-3,1-5c0-2.2-0.4-4.1,0.8-6c-2.3,1.7-2.9,3.7-3.8,5.3
		c-0.7,1.2-2.4,1.7-2.9,1.6c-6.8-1-14.9-5.7-17.9-10c-1.7-2.5-4.3-12-7.4-14.8c-1.2-1.1-7.5-8.5-8.2-14.1c-1,1.8-2.5,6.7,1.9,10.8
		c-6.8-2.6-15.3-6.7-17.8-14.5c-0.8-2.6-1.4-8.6-1.4-11.8c0-4.5,4.7-10.6,4.4-13.9c-3.5,2-8.6,6.7-9.4,13.4
		c-1.3,9.7-0.4,15.9,4.2,20.1c6.2,5.9,15.7,12,23.9,14.1c2.5,5,1.4,10.8,8.1,15.8c5.1,3.9,15.7,8.6,19.4,10.6
		c-0.1,4.1-2.9,10.6,5.1,15.3c2.9,1.8,8,9.7,10.5,7.4l5.5-11.1c2.5,6.8,8.4,11.7,15.4,13.5c2.2-5,4.2-15.9,6.6-17.7
		c6.5,5.6,7.2,12.6,7.3,20.1c3.2-3.9,6.3-7.8,8.4-12.6c1.4-3.2,4.9-14.1,0.2-19.7c1.3-6.6,3.3-9.3,1.2-16.4
		c4.8-1.1,12.8-10.6,14-19.8c1.3-10.3-4.5-17.5-9.1-26.1c2.4-5,3.8-13,3.1-20.4c-0.6-6-2.7-11.4-5-15.5c8.4-2.6,12.8-9.4,13.6-14.6
		c1.2-6.8,2.3-19.7-9-26.8c-7.1-4.4-13.5-5.5-19.4-3.5C269.3,1138,264.8,1141.6,262.1,1148.2L262.1,1148.2z M157.4,1170.9
		c1.6,4.9,8.6,9.8,11.1,5.6c-5.5-0.8-7.4-5.7-6.6-10.4c0.7-4.2,3.7-8.6,8.1-8c8.4,1,13.1,13.1,9.2,20.9
		c-2.6,5.1-10.9,13.6-19.7,18.9c9.3-0.2,19.6-8.2,22.4-12.3c4.7-6.9,5.9-11.1,5.6-14.5c-0.8-9.4-6.6-17-16.9-17.8
		S154,1160.3,157.4,1170.9L157.4,1170.9z M217.8,1185.6c9.3,3.5,16.9,2,18.3,13.5c0.7,5.6-5.6,4.2-2.4,9.2
		c-4.1,0.1-8.1,2.4-15.1,1.8c-4.4-0.5-16.4-5.7-17.6-9.3c-2.2,4.1,11.1,14,17,14c4.5,0,10.9,0.5,15.3-0.2c3.6-0.5,8.1-1.6,9-2.9
		c1.4-3.7-2.4-2.7-4.4-4.9c0-1.9,3.2-6.3,3.5-9.3c0.2-4.5-3.3-7.4-7.2-11c-6.1-5.9-23.9-7.1-30.5-7.7
		C205.1,1182.1,215.5,1184.7,217.8,1185.6L217.8,1185.6z M272.9,1185.4c-3.8,1.6-7.8,3.9-9.2,7.5c-2,4.9-2,12.4,2,16.3
		c3.2,3.1,8,5.6,14.2,6.8c-3.9-3.1-5.5-4.8-9-8.4c-2.9-2.9-4.3-6.3-4.2-9.9C266.9,1191.2,270.6,1189.4,272.9,1185.4L272.9,1185.4z"
		/>
	<path style="stroke:#FF0000;stroke-width:0.3543;" d="M275.1,1223.7c-5.9,0.1-13.5-4.8-18.9-2.4c-2.6,1.2-4.7,4.1-5.1,6.9
		c-0.4,2.2,0.4,4.8,1.8,6.3c3.3,3.7,10,2.4,13.9,5.5c1.7,1.3,1.9,4.1,3.6,5.1c2.4,1.4,5.5,2.4,8.1,1.6c3.2-1.1,4.2-5.5,6.9-7.5
		c2.9-2.2,6.8-1.8,8.7-4.8c1.9-3.1,2.9-7.7,1-10.6c-1.3-2-3-2.4-5.4-2.7C284.7,1220.4,280.1,1223.6,275.1,1223.7L275.1,1223.7z"/>
	<path shape-rendering="auto" color-rendering="auto" image-rendering="auto" d="M275.1,1222.1c-2.3,0-8-2.3-10.2-2.9
		c-5-1.2-8.5-0.2-12.9,2.3c-2.5,1.4-3.5,4.2-3.8,7.4c-0.4,2.7,1,5.3,3.1,6.9c3,2.2,9.4,3.7,12.8,4.8c2.3,0.7,2.3,4.9,4.1,6.3
		c3.8,3,6.7,3.3,11.4,1.7c2.3-0.8,4.3-5.7,6.3-7.1c3.6-2.4,7.9-2.9,10.3-6.6c2.2-3.5,2.4-8.5,0.6-12.2c-1.7-3.3-5.6-4.9-9.6-4.1
		C283.2,1219.8,279,1222.1,275.1,1222.1L275.1,1222.1z M292,1224.4c2,1.6,2,5.4,1.1,7.2c-1.8,3.6-8.4,4.4-10.3,6
		c-1.6,1.3-5,5.4-7.3,5.5c-2.3,0.1-5.1-2.2-6.5-3.8c-2.4-3.1-7.3-1.9-10.8-3.7c-2.7-1.4-5.3-5.9-4.2-8.2c1.7-3.7,10.8-3.6,13.4-2.6
		c4.7,1.7,9.4,1,14.7-1.1C284.6,1222.7,289.2,1222.3,292,1224.4L292,1224.4z"/>
	<path d="M230.5,1196.6c0,3-2,5.7-4.9,6.6c-2.9,0.8-6-0.4-7.6-2.9s-1.3-5.9,0.7-8.1c2-2.3,5.3-3,8-1.7c-1.9,1.8-3.5,3.6-4.3,7.5
		C223.7,1196.8,225.3,1194.7,230.5,1196.6L230.5,1196.6z"/>
	<path d="M279.1,1197.9c-0.7,3.3-3.3,6.2-4.9,6.6c-2.2,0.5-5.1,0.2-6.8-2.4c-0.8-2.2-0.7-5.6,0.1-8.4c2-2.3,5-3.2,7.8-1.9
		c-1.9,1.8-2.4,2.2-3.3,6.1C273.3,1196.6,273.9,1195.8,279.1,1197.9L279.1,1197.9z"/>
	<path shape-rendering="auto" color-rendering="auto" image-rendering="auto" d="M495.8,1115.5c-3.5,2.9-10.3,5-14.3,5.5
		c-4.1,0.5-8.7,0.7-13.3,3.5c-2.7,1.7-4.7,4.7-6.2,7.2c-1.6,2.6-3.8,8.5-3.8,8.5c3.6-3.6,3.8-5.6,6.7-8.5c2.3-2.2,4.2-4.2,5.3-4.9
		c3.3-2,7.3-2.5,11.4-3.6C487.9,1121.5,493.4,1122,495.8,1115.5L495.8,1115.5z"/>
	<path shape-rendering="auto" color-rendering="auto" image-rendering="auto" d="M504,1117.7c-4.2,2.2-5.1,1.2-8.8,4.1
		c-4.5,3.6-6.7,10.4-11.5,13.5c-6.3,4.2-14.8,0.5-23.4,6.1c3.6-0.4,6.9-1.2,9.9-1.6c2.7-0.4,11.2,1.3,15.7-1.1
		c5.4-2.9,5.7-11.7,11.2-14.3c6.7-3.2,17.6-11.8,16.4-13.6C513.4,1110.9,506.3,1116.5,504,1117.7L504,1117.7z"/>
</g>
</svg>
