<?xml version="1.0" encoding="utf-8"?>
<!-- Generator: Adobe Illustrator 17.0.0, SVG Export Plug-In . SVG Version: 6.00 Build 0)  -->
<!DOCTYPE svg PUBLIC "-//W3C//DTD SVG 1.1//EN" "http://www.w3.org/Graphics/SVG/1.1/DTD/svg11.dtd" [
	<!ENTITY ns_flows "http://ns.adobe.com/Flows/1.0/">
	<!ENTITY ns_extend "http://ns.adobe.com/Extensibility/1.0/">
	<!ENTITY ns_ai "http://ns.adobe.com/AdobeIllustrator/10.0/">
	<!ENTITY ns_graphs "http://ns.adobe.com/Graphs/1.0/">
]>
<svg version="1.1" id="Layer_1" xmlns:x="&ns_extend;" xmlns:i="&ns_ai;" xmlns:graph="&ns_graphs;"
	 xmlns="http://www.w3.org/2000/svg" xmlns:xlink="http://www.w3.org/1999/xlink" xmlns:a="http://ns.adobe.com/AdobeSVGViewerExtensions/3.0/"
	 x="0px" y="0px" width="612px" height="792px" viewBox="0 0 612 792" style="enable-background:new 0 0 612 792;"
	 xml:space="preserve">
<path style="fill:none;stroke:#000000;stroke-width:3;stroke-miterlimit:10;" d="M202.4,356.4v2.9c0,25.3-20.7,46-46,46h-50.8
	c-6.9,0-13.4-1.6-19.4-4.3c0-8.8,0-17.7,0.1-26.5c-3.8,0-7.5-0.5-11.4-0.5c0,6.6,0,13,0,19.6c-6.2-5.6-11-12.8-13.4-21h47.8
	c25.3,0,46-20.7,46-46v-2.9c0-4.5-0.7-9.1-2-13.3h3C181.7,310.4,202.4,331.1,202.4,356.4z"/>
<path style="fill:none;stroke:#000000;stroke-width:3;stroke-miterlimit:10;" d="M1.8,630.4c0-7.3,0-14.5,0-21.8
	c1.6-0.7,1.3-2.4,1.7-3.7c2.5-11.5,7.8-21.6,15.5-30.4c9.9-11.2,22.5-18,36.9-21.8c5.1-0.1,10.4-0.2,15.5-0.2c136.4,0,272.7,0,409,0
	c5.1,0,10.4,0.1,15.5,0.2c1.2,0.4,2.4,0.7,3.6,1.1c30.7,8.4,51.3,35.6,50.6,67.2c-0.7,31.3-22.6,57.7-53.8,64.7
	c-1.4,0.4-3.2-0.1-4.3,1.6c-144.2,0-288.4,0-432.6,0c-1-1.6-2.7-1.3-4.2-1.7C28,678.5,10.6,661.4,3.5,634
	C3.2,632.7,3.5,631,1.8,630.4z M98.4,614.1c-12.1,0-24.3,0-36.3,0c-3.8,0-6.9,1-6.8,5.3c0.1,4.2,3.2,5.1,7.1,5.1
	c23.9,0,47.9,0,71.8,0c3.7,0,6.9-1,6.8-5.3c0-4.3-3.3-5.1-7.1-5C122,614.3,110.2,614.1,98.4,614.1z M266.8,614.1
	c-12,0-23.9,0-35.9,0c-3.7,0-6.9,0.7-7.1,5c-0.1,4.2,3,5.4,6.8,5.4c24,0,48.2,0,72.2,0c3.6,0,6.5-1.1,6.6-5c0.1-4.4-3-5.3-6.8-5.3
	C290.7,614.3,278.7,614.1,266.8,614.1z M435.3,614.1c-12.1,0-24.3,0-36.3,0c-3.7,0-6.9,0.8-6.9,5.1c0,4.2,3.2,5.3,6.9,5.3
	c23.9,0,47.9,0,71.8,0c3.7,0,6.9-1,6.9-5.1c0-4.3-3.2-5.1-6.9-5.1C459,614.3,447.2,614.1,435.3,614.1z"/>
<path style="fill:none;stroke:#000000;stroke-width:3;stroke-miterlimit:10;" d="M578.2,336.8c-1.7,0.8-1.4,2.6-1.9,4.1
	c-5.6,18.8-22.5,31.7-42.1,32.2c-8.5,0.2-17,0.1-25.5,0c-3.2,0-6.2,0.2-9.1,1.9c-1-2.6-3.2-2-5.3-2c-10.5,0-21.2,0-31.7,0
	c-21.4,0-40.4-17.5-42.8-38.6c-1.6-13-0.5-26.2-0.8-39.2c-0.1-4.8,0.7-9.4,1.7-14c2-10.4,8.4-18.2,15.4-25.6
	c3.6-1.9,7.1-4.1,10.9-5.6c6.9-2.9,14.2-3.8,21.6-3.8c24.9,0.2,49.7-1,74.5,0.8c1.6,0.6,3.1,1.3,4.8,1.9
	c14.6,5.5,24.1,15.7,28.7,30.7c0.5,1.8,0.1,3.8,1.6,5.3C578.2,302.2,578.2,319.5,578.2,336.8z"/>
<path style="fill:none;stroke:#000000;stroke-width:3;stroke-miterlimit:10;" d="M1.8,630.4c1.7,0.7,1.3,2.4,1.7,3.6
	c7.1,27.4,24.4,44.5,51.9,51.5c1.4,0.4,3.2,0,4.2,1.7c-18.2,0-36.5-0.1-54.6,0.1c-2.6,0-3.1-0.5-3.1-3.1
	C1.9,666.1,1.8,648.2,1.8,630.4z"/>
<path style="fill:none;stroke:#000000;stroke-width:3;stroke-miterlimit:10;" d="M502.5,532.7c1.9,3.6,4.7,6.7,3.5,11.6
	c-1.4,5.5-4.7,7.9-9.9,8.4c-5.1-0.1-10.4-0.2-15.5-0.2c-136.4,0-272.7,0-409,0c-5.1,0-10.4,0.2-15.5,0.2c-4.7-1.9-9.6-0.5-14.3-0.8
	c-3.6-0.4-7.8,1.2-9.8-3.5c-2.2-4.8-2-9.4,1.4-13.7c0.5-0.6,1-1.2,1.4-1.9C190.4,532.7,346.4,532.7,502.5,532.7z"/>
<path style="fill:none;stroke:#000000;stroke-width:3;stroke-miterlimit:10;" d="M98.4,614.1c11.8,0,23.7,0,35.4,0
	c3.7,0,6.9,0.7,7.1,5c0,4.3-3.1,5.3-6.8,5.3c-23.9,0-47.9,0-71.8,0c-3.7,0-6.9-1-7.1-5.1c-0.1-4.2,3.1-5.3,6.8-5.3
	C74.1,614.3,86.3,614.1,98.4,614.1z"/>
<path style="fill:none;stroke:#000000;stroke-width:3;stroke-miterlimit:10;" d="M266.8,614.1c12,0,23.9,0,35.9,0
	c3.7,0,6.8,0.8,6.8,5.3c-0.1,4.1-3,5-6.6,5c-24.1,0-48.2,0-72.2,0c-3.8,0-6.9-1.2-6.8-5.4c0.1-4.3,3.3-5,7.1-5
	C242.9,614.3,254.8,614.1,266.8,614.1z"/>
<path style="fill:none;stroke:#000000;stroke-width:3;stroke-miterlimit:10;" d="M435.3,614.1c11.8,0,23.7,0,35.4,0
	c3.7,0,6.9,1,6.9,5.1s-3.2,5.1-6.9,5.1c-23.9,0-47.9,0-71.8,0c-3.7,0-6.9-1-6.9-5.3c0-4.3,3.2-5.1,6.9-5.1
	C411.2,614.3,423.3,614.1,435.3,614.1z"/>
<path style="fill:none;stroke:#000000;stroke-width:3;stroke-miterlimit:10;" d="M502.5,532.7c-156,0-312,0-468,0
	c-5.7-1.6-11.5-3.3-15.7-8c-6.5-7.3-8-15.5-4.7-24.5c3.3-8.8,10.2-13.6,19.5-14.8c1.4-0.1,2.9,0,4.1-0.8c0.4-0.1,0.7-0.1,1-0.2
	c2.6,0.1,5.4,0.4,8,0.4c141.2,0,282.3,0,423.5,0c10,0,20.2,0,30.2,0.1c0,5,0,10,0.1,15.1c0.1,5.3,3.3,8.8,7.9,8.8
	c4.4,0,7.3-3.3,7.4-8.6c0.1-5,0-10,0-15.1c4.3-0.1,8.7-0.2,13-0.2c4.3,1.6,8.6,2.6,12.3,5.6c7.6,6.3,10.8,16.5,7.5,25.9
	c-3.2,9.3-11.5,15.3-21.5,15.7C519.1,532.3,510.8,531.2,502.5,532.7z"/>
<path style="fill:none;stroke:#000000;stroke-width:3;stroke-miterlimit:10;" d="M501.1,374c5-0.5,10-1,15.1-1.4
	c0.1,16.6,0.2,33.3,0.2,50c0,11.8,0,23.5,0.1,35.4c0,9.1,0,18,0,27.1c0,5,0.1,10,0,15.1c-0.1,5.3-3,8.6-7.4,8.6
	c-4.5,0.1-7.8-3.5-7.9-8.8c-0.1-5-0.1-10-0.1-15.1c0-0.4,0-0.8,0-1.2c0-8.5,0-17.1,0-25.6C501,430.1,501,402,501.1,374z"/>
<path style="fill:none;stroke:#000000;stroke-width:3;stroke-miterlimit:10;" d="M500.7,483.6c0,0.4,0,0.8,0,1.2
	c-10,0-20.2-0.1-30.2-0.1c-141.2,0-282.3,0-423.5,0c-2.6,0-5.4-0.2-8-0.4c2.2-1.3,4.7-0.7,6.9-0.7
	C197.5,483.6,349,483.6,500.7,483.6z"/>
<path style="fill:none;stroke:#000000;stroke-width:3;stroke-miterlimit:10;" d="M86.3,374.5c0,8.8,0,17.7-0.1,26.5
	c0,27.7,0,55.5,0,83.2c-15.4,0.5-14.8,2.5-11.2-32.4c-0.1-19.5,0-38.8,0-58.3c0-6.6,0-13,0-19.6C78.8,374,82.5,374.5,86.3,374.5z"/>
<path style="fill:none;stroke:#000000;stroke-width:3;stroke-miterlimit:10;" d="M155.4,323.7v2.9c0,25.3-20.7,46-46,46H58.6
	c-25.3,0-46-20.7-46-46v-2.9c0-25.3,20.7-46,46-46h50.8c20.7,0,38.4,13.9,44,32.8C154.7,314.6,155.4,319.1,155.4,323.7z"/>
<rect x="113.6" y="405.3" style="fill:none;stroke:#000000;stroke-width:3;stroke-miterlimit:10;" width="10.8" height="78.2"/>
</svg>
