<?xml version="1.0" encoding="utf-8"?>
<!-- Generator: Adobe Illustrator 17.0.0, SVG Export Plug-In . SVG Version: 6.00 Build 0)  -->
<!DOCTYPE svg PUBLIC "-//W3C//DTD SVG 1.1//EN" "http://www.w3.org/Graphics/SVG/1.1/DTD/svg11.dtd" [
	<!ENTITY ns_flows "http://ns.adobe.com/Flows/1.0/">
	<!ENTITY ns_extend "http://ns.adobe.com/Extensibility/1.0/">
	<!ENTITY ns_ai "http://ns.adobe.com/AdobeIllustrator/10.0/">
	<!ENTITY ns_graphs "http://ns.adobe.com/Graphs/1.0/">
]>
<svg version="1.1" id="Layer_1" xmlns:x="&ns_extend;" xmlns:i="&ns_ai;" xmlns:graph="&ns_graphs;"
	 xmlns="http://www.w3.org/2000/svg" xmlns:xlink="http://www.w3.org/1999/xlink" xmlns:a="http://ns.adobe.com/AdobeSVGViewerExtensions/3.0/"
	 x="0px" y="0px" width="612px" height="792px" viewBox="0 0 612 792" style="enable-background:new 0 0 612 792;"
	 xml:space="preserve">
<path d="M285.3,228.2c-18.2,0.7-30,13.4-42.6,24.3c-12.6,10.9-26.1,19.8-41.7,24.3c-15.9,5.4-28.3,15.9-39.9,27.6
	c-16.5,6.9-36.2,17.9-55,23.8c-9.3,3.3-16.7,9.8-23.8,16.5c-6.8,7.5-12,16.7-12,26.1l0.6,0.6c0-7.6,8.5-16.5,14.8-23.5
	c6.2-6.9,14.2-15.3,21.3-17.9c15.5-3.7,29.8-8.2,43.9-15.5c-9.2,11.1-11.7,22.2-20.2,33.9c-14.6,19.4-29.2,38.4-40.6,59.8
	c-3.9,6.7-14.2,21.8-25,35.6c-7.9,10.5-15.2,24-25.9,31.4l0.5,0.8c12.1-6.8,20.6-18.8,29-29.5c10.9-14,20.7-29.9,24.7-37.1
	c9.1-21.8,25.5-40.6,39.2-60.1c20.1-27.6,36.9-55.8,69.3-67.5c16.6-4.8,29.5-17.3,42.3-28.3c14.7-12.9,31.8-22.7,50.3-11.2
	c9.7,2.5,17.8,2,22.5,11.6c7.2,7.9,13.4,16.4,18.9,25.2c0.5,0.8-14.1,17.6-21.6,40.6c-8,24.4-9.2,55.1-8.7,55.9
	c0.4,0.5,1.7-16.9,4.4-31.1c0.4-1.8,8,12,8.4,10.2c0.4-1.3-7.1-13.6-6.7-14.9c1.6-6,3.2-12,5.4-17.3c8.7-21.5,21.6-39.4,22.1-38.6
	c9.3,16.6,20,39.9,27.7,57.4h0.1v0.1c29.5,49.8,43.5,100.6,43.2,158.4c1.3,20.1,9.4,47.8,18.6,65.4l2.7-2.2
	c-6.9-8.4-14.5-28.8-14.7-43c0-1.3,7.9,1.3,21.9,4.5c1.6,0.4-2,19.5-0.6,19.8c3.8,0.8,3.6-19.4,6.9-18.6c8.6,1.9,15.1,3.1,14.9,2.3
	c-0.4-3.3-27.3-6.1-43.4-14.2c-4.5-2.3-1.9-13.1-2-14c1.6-57.9-18.9-109.4-45.5-159.3c-12.9-31.7-26.7-62.4-48.4-88.7
	c7.4,2.6,14.6,5.7,21.9,8.5c21.3,1.2,41.2,6.3,61,13.9c1,0.1,5.9,14.7,18.8,27.7c20.6,20.8,52.2,43.6,53.7,43.9
	c1.3,0.2-33.6-24.9-51.8-45.4c-10-11.5-14.2-24.9-13.5-24.7c34.3,6.9,70.5,25.9,100.3,44c-1.1,6.3-3.9,16.7-6.9,27.7
	c-3.1,11.5-6.2,23.5-6.9,33c2.2,21.4-4.1,42.1-9.6,62.5l1,0.2c5.1-20.3,15.5-40.3,13.1-62.4c0.7-8.8,3.8-20.8,6.8-32.2
	c2.7-9.9,6.2-15.7,7.5-22.5c5.9,5.7,8.1,9.8,11.1,17.2c2.9,7.5,6,15.5,12.6,22.6c4.7,3.3,9.3,6.8,13.6,10.6c1.6,1.3-4.2,21.5-2.7,23
	c1.2,1.1,5.4-22,6.6-20.8c3.7,3.8,11.1,13,14.1,17.3l1-0.7c-7.8-12.7-17.2-23.3-29.3-32.5c-5.7-6-8.7-13.6-11.7-21.3
	c-2.9-7.5-6-15.5-12.6-22.4c-33.1-26.4-72.9-38.3-113.6-47.3c-20.7-9.3-43-13.6-65.3-17.6c-12.2-4.4-23.2-10.9-33.9-18.3
	L285.3,228.2L285.3,228.2z M212.5,324.5l3.1,3.1c-9.8,8.7-19.2,17.6-30.5,25.5c-4.5,6-6.6,12.9-9,19.6
	c-17.6,22.2-32.5,50.8-48.8,76.4c2,15.7-0.8,30.1,6.6,47.1l-5.4,1.2l-8.7-20.1l1.4-31l51-82.1c4.7-7.9,6-16.9,15.4-23.3L212.5,324.5
	L212.5,324.5z M83.4,477c8.4,0.2,13,6,17.8,12.2c9.1,5.1,33.2,10.4,15.8,19.2c-7.8,0.1-17.3,1.1-22.4-1.4h-0.2
	c-9.2-2.9-23.1-2-28.2-10.2C66,488.4,75.1,479.3,83.4,477z M265.5,484.1c-1.3,0-2.7,0-4.2,0.1c-18.5,14.3-17.2,31.2-8.2,50.8
	c10.2,5.9,22.8,6.9,34.4,7.6h0.5c12.1-2.9,19.6-0.8,27.5,2s12.9,5.4,25.3,5.5c24.1-3.7,39-12.2,29.8-36.6
	c-6.9-9.7-12.2-14.3-18.8-16.5s-23.8,8.7-35,8.8C296.8,499.5,285.4,484.3,265.5,484.1L265.5,484.1z M266.4,488.5
	c19.2-0.6,30.7,14.1,50,19.6c5.3,0.1,20.4-8,25.8-7.9c-11.1,7.8-8.6,16-46.1,26.7l0.6,0.6c19.7-2.2,41-18.6,53.7-26.1
	c5.4,1.7,9.8,5.6,16.5,14.9c12.2,18.2-2.3,29.4-20,31.3c-9.6,0-21-3.9-29.9-7.3c-8-2.9-16.9-4.9-29.5-2.2
	c-10.9-0.4-21.8-3.8-32.9-4.4c-11.5-16.3-5.5-32.2,7.9-45.2C263.9,488.6,265.2,488.6,266.4,488.5L266.4,488.5z"/>
<path style="fill:none;stroke:#000000;stroke-miterlimit:10;" d="M260.9,284.6c-6.5,6.5-9.8,16.5-17.6,19.6
	c-1,2.3-12.2,15.3-14.9,12.7c-4.2-4.1-0.6-25-3.5-22.8c1.8,7.4-3,28.1-5.9,32.3c-3.3-2.4-5.9-3.3-11.2-3.2
	c-5.9,6.2-13.1,11.5-21.5,15.1c-9.9,4.5-14.1,13.7-17.7,23.5c-10.2,29.5-34.7,50.8-49.2,79.4c-0.2,0.6-4.8,0.6-10.2,0.5
	c-1.1,0-2.5-11-3.6-11c-1.4,0,1,10.9-0.6,10.9c-6.2-0.1-15.4-0.2-15.7,0.5c-0.1,1.6,28.4,2.6,28.3,4.2c-0.4,8.8-1.2,21.8-1.2,30.6
	c0.2,5.6,1.1,11,2.9,15.5c-5.3-2.7-11.2-4.8-15.1-6c-3.9-6.6-9.6-11.6-16.1-13.1c-15.3-1-23.4,10-23.8,23.2
	c4.1,10.9,18.2,11.5,28.2,15.1c7.7,3,16.6,2,25,1.7c5.5-1,8.2-4.8,11.6-8.8c0.2-0.8-0.2-3.7-0.5-4.5c10-2.7,21,0.1,31.3,2.2
	c9.1,2.9,18,7.9,27.5,12.7l43.7,6.5l5.7,9.7l-6.6,13.1l8-11.7l19.8,28.9c0.2-0.5-4.4-9.4-8.2-17c-0.6-1.1,10.2,1,9.6-0.2
	c-0.5-1-10.5-2.5-11.1-3.5c-5.5-8.4-11.4-20.3-11.1-22.6c3.2-29.2,6.7-55,5.1-82.4c4.1-29.6-3-58.3-11.4-86.4
	c-1-6.2-1.4-4.7-4.3-10.4c-0.2-4.2,3.9-15.1,7.4-17.8c1.9-1.4,1.9-4.9,3.8-6.6c24.9,4.3,51.2-2.9,72.8-15.8l-2.7-0.8
	c-18.6,13.6-45.5,16.5-64.5,14.8c1.2-1.6,2.4-3.2,3.2-5.1h0.1c0.1-0.2,0.2-0.4,0.2-0.6c2.7-3.8,5.1-8,7.4-11.4L260.9,284.6
	L260.9,284.6z"/>
</svg>
