<?xml version="1.0" encoding="utf-8"?>
<!-- Generator: Adobe Illustrator 17.0.0, SVG Export Plug-In . SVG Version: 6.00 Build 0)  -->
<!DOCTYPE svg PUBLIC "-//W3C//DTD SVG 1.1//EN" "http://www.w3.org/Graphics/SVG/1.1/DTD/svg11.dtd" [
	<!ENTITY ns_flows "http://ns.adobe.com/Flows/1.0/">
	<!ENTITY ns_extend "http://ns.adobe.com/Extensibility/1.0/">
	<!ENTITY ns_ai "http://ns.adobe.com/AdobeIllustrator/10.0/">
	<!ENTITY ns_graphs "http://ns.adobe.com/Graphs/1.0/">
]>
<svg version="1.1" id="Layer_1" xmlns:x="&ns_extend;" xmlns:i="&ns_ai;" xmlns:graph="&ns_graphs;"
	 xmlns="http://www.w3.org/2000/svg" xmlns:xlink="http://www.w3.org/1999/xlink" xmlns:a="http://ns.adobe.com/AdobeSVGViewerExtensions/3.0/"
	 x="0px" y="0px" width="612px" height="792px" viewBox="0 0 612 792" style="enable-background:new 0 0 612 792;"
	 xml:space="preserve">
<g transform="translate(-107.34 -116.37)">
	<path style="fill:none;stroke:#000000;stroke-width:4;" d="M206,738.6l1.1-3.6l3.3,1.6l0.5-18l-2.2-1.2l0,0l0.7-4.2l-2.9-2.2v-1.8
		l-35.5-7.4L184.9,324l0,0l75.1-7.4l25.5,15.8l0,0L274,700.1l-25.9,16.7l0,0l-11.7-0.4L236,719l-2.6-0.5l-0.1,19.8"/>
	<path style="fill:none;stroke:#000000;stroke-width:4;" d="M180.8,690.1l57.4,10.8l4.4-117.9l0,0l-59.8-6.7l0,0L180.8,690.1
		L180.8,690.1z"/>
	<path style="fill:none;stroke:#000000;stroke-width:4;" d="M269.6,689.4l-15.8,10.4l0.7-89.1l1.2-28.9l14-4.5L269.6,689.4
		L269.6,689.4z"/>
	<path style="fill:none;stroke:#000000;stroke-width:4;" d="M256.9,573.8l3.3-116.8l15.4,1.9l-3.3,111.2L256.9,573.8L256.9,573.8z"
		/>
	<path style="fill:none;stroke:#000000;stroke-width:4;" d="M261.5,449.1l3.7-117.5L281,342l-4.4,110.4L261.5,449.1L261.5,449.1z"/>
	<path style="fill:none;stroke:#000000;stroke-width:4;" d="M186.2,447.9l60.6,0.8l4.9-119.1l-61.1,5.3L186.2,447.9L186.2,447.9z"/>
	<path style="fill:none;stroke:#000000;stroke-width:4;" d="M186.4,455.2l-3.7,114.3l61,7.1l3.3-120.4L186.4,455.2L186.4,455.2z"/>
	<path style="fill:none;stroke:#000000;stroke-width:4;" d="M355.7,621.8l4.5-194.1l-76.5-33"/>
	<path style="fill:none;stroke:#000000;stroke-width:4;" d="M367.3,622.3l3.6-195.9l125.7-1.9l-38.5-137.3l-197.3,19.5l-10,11.4"/>
	<path style="fill:none;stroke:#000000;stroke-width:4;" d="M285.8,343.3l180.7-12.1"/>
	<path style="fill:none;stroke:#000000;stroke-width:4;" d="M285.8,347.3l183-11.7l-2.5-4.8"/>
	<path style="fill:none;stroke:#000000;stroke-width:4;" d="M285.4,334.3h0.8l179.2-8.8l0.8,6.6"/>
	<path style="fill:none;stroke:#000000;stroke-width:4;" d="M442.8,326.2L427.6,290"/>
	<path style="fill:#212121;stroke:#000000;stroke-width:4;" d="M449.2,337.7l36.1,86.8"/>
	<path style="fill:none;stroke:#000000;stroke-width:4;" d="M355,419.4l-8.6-3.9l-62.6-29.2"/>
	<path style="fill:none;stroke:#000000;stroke-width:4;" d="M284.8,372.8l12.7,7.6c33.9-24.3,54.3-26.2,76.5-31.1"/>
	<path style="fill:none;stroke:#000000;stroke-width:4;" d="M304.8,384.7c23.8-19,49.5-25.6,75.7-29.2h0.1l20.7,22.1
		c-16.7-0.5-35.1,1.8-65.4,23.2L304.8,384.7L304.8,384.7z"/>
	<path style="fill:none;stroke:#000000;stroke-width:4;" d="M343.5,404.9c22.5-18.2,43.9-21.2,61.8-23.3l12.7,12.6
		c-15.7,0.5-33,3.8-53.5,18.8h-5.3L343.5,404.9L343.5,404.9z"/>
	<path style="fill:none;stroke:#000000;stroke-width:4;" d="M368.7,343.3l1.1,1.1l4.5,4.8"/>
	<path style="fill:none;stroke:#000000;stroke-width:4;" d="M354.8,330.8l-13.4-16.4c-19.2,0.7-38,8.7-56.7,16.7"/>
	<path style="fill:none;stroke:#000000;stroke-width:4;" d="M276.2,325.1c16.9-9,35.4-16,58-18.4l-4.5-6.7"/>
	<path style="fill:none;stroke:#000000;stroke-width:4;" d="M338.2,299.8l0.8,0.7l3.9,4.8c28.3-2.5,57.5-0.1,89.1,14.3l-13.1-28.1"
		/>
	<path style="fill:none;stroke:#000000;stroke-width:4;" d="M349.8,314.8c19.1,0.1,27.7-6.7,75.8,12.3"/>
	<path style="fill:none;stroke:#000000;stroke-width:4;" d="M376.5,342.1l4.8,6.3c24.3-2.4,47.8,2.2,70.6,12.1"/>
	<path style="fill:none;stroke:#000000;stroke-width:4;" d="M456.3,370.6c-23.5-11.8-45.7-17-66.5-15.2l17.8,20.2
		c16.4-0.4,33.7,0.8,57,11.7L456.3,370.6z"/>
	<path style="fill:none;stroke:#000000;stroke-width:4;" d="M412.7,381l11.5,12.2c12.3-2.3,28.4,1.9,46.9,10l-1.9-8.6
		C443.8,382.1,427.4,380.6,412.7,381L412.7,381z"/>
	<path style="fill:none;stroke:#000000;stroke-width:4;" d="M353.9,418.9l5.5,8.1"/>
	<path style="fill:none;stroke:#000000;stroke-width:4;" d="M451.8,360.7l-10-23.5"/>
	<path style="fill:none;stroke:#000000;stroke-width:4;" d="M350.4,314.9l14.1,14.8"/>
	<path style="fill:none;stroke:#000000;stroke-width:4;" d="M370.5,419.3l106.5-2.2C459.6,396.3,405.5,387.6,370.5,419.3z"/>
	<path style="fill:none;stroke:#000000;stroke-width:4;" d="M458.1,262h-24.4c-57.9-29.2-175-67.4-290.1,36.1l-17.3,2.2"/>
	<path style="fill:none;stroke:#000000;stroke-width:4;" d="M433.4,261.6l-26.5,1.4c-67.5-25.9-138.7-43-247,32.2l-17,2.9"/>
	<path style="fill:none;stroke:#000000;stroke-width:4;" d="M125.2,298.7v24.4l59.4,26.2"/>
	<path style="fill:none;stroke:#000000;stroke-width:4;" d="M184.3,335.5l-36.7-14.1l59.4-8.5"/>
	<path style="fill:none;stroke:#000000;stroke-width:4;" d="M193.1,323.4l-12.7-6.7"/>
	<path style="fill:none;stroke:#000000;stroke-width:4;" d="M125.2,322.7l23.7-1.8"/>
	<path style="fill:none;stroke:#000000;stroke-width:4;" d="M356.8,621.1c5.4,5,7.9,2.3,10.6,0"/>
	<path style="fill:none;stroke:#000000;stroke-width:4;" d="M457.4,287.8l0.7-26.5l37.1,145.6l1.8,16.6"/>
	<path style="fill:none;stroke:#000000;stroke-width:4;" d="M405.2,263.8l-140,15.9"/>
	<path style="fill:none;stroke:#000000;stroke-width:4;" d="M157.7,295.6l47-7.1"/>
	<path style="fill:none;stroke:#000000;stroke-width:4;" d="M215.7,319.7c-8.1-5.5-12.9-15.4-11.6-26.7
		c1.9-17.3,17.3-31.3,34.3-31.3s29.3,14,27.4,31.3c-1,9-5.5,17-12.1,22.7"/>
	<path style="fill:none;stroke:#000000;stroke-width:4;" d="M328.1,634.8l0.1-16.7l2.9-3.6l10.6-7.2v-2.7l-13.7-0.2l0.6-8l-7.1-13
		c-2.9-4.5-5.9-4.4-9-4.4l-35.6,19.4"/>
	<path style="fill:none;stroke:#000000;stroke-width:4;" d="M324.6,635.3l0.5-17.8l-49,28.4"/>
	<path style="fill:none;stroke:#000000;stroke-width:4;" d="M277.3,602.7l33.6-19.1c3-2.4,5.4-1.9,7.3,1.1l7.3,14.3l0.1,3.8
		l-1.4,0.5l-0.5,1.9l-47.3,27.5"/>
	<path style="fill:none;stroke:#000000;stroke-width:4;" d="M233.5,737.8l-0.2,63.8"/>
	<path style="fill:none;stroke:#000000;stroke-width:4;" d="M205.9,738.3l-0.1,66"/>
	<path style="fill:none;stroke:#000000;stroke-width:4;" d="M263.4,318.5l0.1-0.8l-2.6-4.5c5.4-2.5,5.3-4.5,5.6-6.6"/>
	<path style="fill:none;stroke:#000000;stroke-width:4;" d="M209.4,322.2c-2-2.3-3.5-0.2-6.3-8.8"/>
	<path style="fill:none;stroke:#000000;stroke-width:4;" d="M205.2,803.7c24.9,15.2,28.2-3.9,28.3-4.2"/>
	<path style="fill:none;stroke:#000000;stroke-width:4;" d="M324.6,634.8c4.5,0.4,4.5-0.4,4.5-0.4"/>
</g>
</svg>
