<?xml version="1.0" encoding="utf-8"?>
<!-- Generator: Adobe Illustrator 17.0.0, SVG Export Plug-In . SVG Version: 6.00 Build 0)  -->
<!DOCTYPE svg PUBLIC "-//W3C//DTD SVG 1.1//EN" "http://www.w3.org/Graphics/SVG/1.1/DTD/svg11.dtd" [
	<!ENTITY ns_flows "http://ns.adobe.com/Flows/1.0/">
	<!ENTITY ns_extend "http://ns.adobe.com/Extensibility/1.0/">
	<!ENTITY ns_ai "http://ns.adobe.com/AdobeIllustrator/10.0/">
	<!ENTITY ns_graphs "http://ns.adobe.com/Graphs/1.0/">
]>
<svg version="1.1" id="Layer_1" xmlns:x="&ns_extend;" xmlns:i="&ns_ai;" xmlns:graph="&ns_graphs;"
	 xmlns="http://www.w3.org/2000/svg" xmlns:xlink="http://www.w3.org/1999/xlink" xmlns:a="http://ns.adobe.com/AdobeSVGViewerExtensions/3.0/"
	 x="0px" y="0px" width="612px" height="792px" viewBox="0 0 612 792" style="enable-background:new 0 0 612 792;"
	 xml:space="preserve">
<path shape-rendering="auto" color-rendering="auto" image-rendering="auto" d="M490.3,307.6c1.4,5.5,2.1,13.1-5.5,15.1
	c0,5.5,1.4,12.4-1.4,15.1c-2.1,2.1-8.3,2.1-11.7,2.8c-1.4,4.1-0.7,8.3-1.4,13.1c-0.7,3.4-6.2,3.4-9.6,2.8c-2.1,4.8-3.4,11-6.2,12.4
	c-3.4,1.4-10.3,0.7-13.8,2.1c0,3.4-0.7,8.9-4.8,9.6c-4.8,1.4-9.6,0-14.4,2.1c12.4,4.8,15.1,4.1,20.6,2.1c3.4-1.4,2.8-6.2,4.1-8.3
	c5.5-0.7,11-1.4,14.4-5.5c2.8-2.8,2.1-5.5,3.4-8.3c2.8,0,8.3-1.4,9.6-2.8c1.4-2.1,4.1-8.3,0.7-15.1c10.3,1.4,13.1,1.4,15.1-6.9
	c0.7-3.4-0.7-6.9-2.8-11.7c3.4-1.4,6.9-5.5,6.9-6.9C494.4,314.5,493,311.8,490.3,307.6L490.3,307.6z"/>
<g transform="matrix(1.0886 0 0 1.0886 -3.5562 -86.592)" shape-rendering="auto">
	<path color-rendering="auto" image-rendering="auto" d="M307.4,441.2c6.9,6.9,17.2,14.4,17.9,25.4c0,4.8-4.8,8.9-8.3,12.4
		c-0.7,4.8-1.4,11.7-4.1,15.8c-4.1,6.2-10.3,8.9-11.7,10.3c0.7,6.2,2.8,9.6,1.4,15.1s-5.5,13.1-6.2,17.2
		c-1.4,8.3-8.3,18.6-15.8,17.9c0,5.5-2.8,9.6-4.8,13.8c-3.4,6.2-8.3,10.3-13.1,13.1c10.3-1.4,18.6-11,21.3-23.4
		c4.8,2.1,8.9-3.4,11.7-8.3c2.8-4.1,4.8-10.3,6.2-15.1c2.8-8.9,7.6-19.3,4.1-28.9c4.1-1.4,9.6-4.1,12.4-9.6
		c2.8-4.8,2.8-12.4,3.4-17.2c4.8-2.8,8.3-6.2,8.9-11C331.5,460.4,322.6,448.7,307.4,441.2L307.4,441.2z"/>
	<path color-rendering="auto" image-rendering="auto" d="M252.4,449.4c-5.5,2.8-11,4.8-17.2,4.1c-2.1,0-4.8-0.7-6.9-1.4
		c5.5,5.5,16.5,6.9,21.3,4.8c2.1-0.7,4.1-2.1,8.9-3.4c9.6-2.1,19.3,1.4,24.1-4.1c-4.1-0.7-8.3,0-13.1-0.7
		C264.1,448.7,257.9,446.7,252.4,449.4L252.4,449.4z"/>
</g>
<path shape-rendering="auto" color-rendering="auto" image-rendering="auto" d="M274.4,372.3c-4.1,0-8.3,2.1-11.7,4.1
	c-4.8,2.8-8.9,6.2-12.4,10.3c-6.9,7.6-10.3,6.9-15.8,12.4c6.2-1.4,13.8-4.1,19.3-7.6c3.4,4.8,8.9,7.6,14.4,7.6
	c9.6-0.7,18.6-7.6,23.4-10.3c4.8-2.1,9.6-2.8,11-2.1c6.2,3.4,9.6,8.9,17.2,7.6c-6.2-4.1-9.6-6.9-15.8-12.4c-1.4-1.4-5.5-0.7-7.6,0
	c-2.1,0.7-4.1-0.7-4.8-1.4C288.1,375,281.2,373,274.4,372.3L274.4,372.3z M273,377.1c5.5-0.7,13.8,3.4,17.9,6.9
	c-5.5,2.8-14.4,8.3-21.3,9.6c-4.1,0.7-8.3-3.4-11-6.9C263.4,383.3,267.5,378.5,273,377.1L273,377.1z"/>
<path shape-rendering="auto" color-rendering="auto" image-rendering="auto" d="M81.1,391.5c-4.8,3.4-2.1,3.4-5.5,8.3
	c-1.4,2.8-4.1,3.4-4.1,6.9c0,4.1,2.8,6.2,5.5,7.6c-2.1-3.4,4.1-16.5,7.6-17.9c1.4-1.4,0.7-5.5,2.8-7.6c2.1-2.1,6.9-2.1,8.9-3.4
	C88.7,380.5,86.6,381.2,81.1,391.5L81.1,391.5z"/>
<g transform="matrix(1.0886 0 0 1.0886 -3.5562 -86.592)" shape-rendering="auto">
	<path color-rendering="auto" image-rendering="auto" d="M218,507.2c-8.3,1.4-13.8,7.6-18.6,13.8c-6.2,8.9-13.1,17.9-22.7,24.1
		c-3.4,2.1-6.9,4.1-10.3,5.5c7.6,3.4,20.6-6.2,25.4-11c5.5-5.5,8.9-11.7,13.8-17.9c3.4-4.8,6.2-7.6,12.4-9.6
		c6.9-2.1,10.3-2.8,15.8-3.4C228.4,508.6,223.5,506.5,218,507.2z"/>
	<path color-rendering="auto" image-rendering="auto" d="M215.3,527.8c-4.1,2.8-6.9,7.6-10.3,11c-3.4,4.1-10.3,11-11.7,16.5
		c5.5-6.9,8.9-8.9,15.1-14.4c2.8-2.1,6.2-8.3,8.9-10.3c4.1-2.1,8.3-2.1,12.4-2.8C222.9,527.1,219.4,524.4,215.3,527.8L215.3,527.8z"
		/>
</g>
<g transform="matrix(1.0886 0 0 1.0886 -3.5562 -86.592)" shape-rendering="auto">
	<path color-rendering="auto" image-rendering="auto" d="M229,424.7c-2.8,2.8-8.3-0.7-11.7,1.4c-8.3,4.1-20.6,6.9-21.3,8.9
		c0,1.4,5.5,2.1,7.6,2.1c6.9,0,10.3-6.9,17.2-6.9c2.8,0,8.3,3.4,9.6,1.4c4.8-5.5,9.6-13.1,16.5-15.1c6.9-2.1,13.1,2.8,19.9,4.8
		c2.8,0.7,5.5,4.8,8.3,3.4c5.5-2.1,12.4-3.4,17.9-0.7c5.5,2.1,10.3,5.5,15.8,7.6c4.8,2.1,9.6,2.8,14.4,4.1
		c-8.3-5.5-15.8-10.3-22-14.4c-3.4-2.1-6.9-2.8-10.3-4.1c-5.5-1.4-11-0.7-16.5,1.4c-7.6-4.1-15.8-8.3-24.8-8.9c-1.4,0-3.4,0-7.6,1.4
		C239.4,413,234.5,419.2,229,424.7L229,424.7z"/>
	<path color-rendering="auto" image-rendering="auto" d="M374.8,208.1c-5.5-1.4-9.6,1.4-9.6,5.5c3.4-2.1,6.2-2.8,8.3-2.1
		c2.1,0.7,4.1,5.5,4.1,8.3c2.8-1.4,7.6-1.4,11,0c2.8,0.7,6.2,1.4,3.4,6.2c6.2,3.4,7.6,2.1,13.1,7.6c-0.7,2.1-1.4,5.5-0.7,6.2
		c1.4,2.1,3.4,0.7,6.2,2.1c1.4,2.8-1.4,6.2-3.4,6.9c1.4,1.4,6.2,6.2,5.5,6.9c-0.7,1.4-4.8,2.1-4.8,5.5c0,2.8,3.4,8.3,2.8,9.6
		c-1.4,4.1-8.3,3.4-12.4,6.9c-4.1,2.8-2.1,10.3-4.1,12.4c-0.7,0.7-6.2,0-8.3,0.7c-6.9,2.8-6.2,4.8-8.9,8.9c-1.4,0.7-9.6,2.8-11,3.4
		c-2.8,2.1-2.8,4.8-4.8,9.6c-2.8,0.7-8.9,1.4-11,2.8c-4.8,3.4-4.8,8.3-4.8,11.7c-3.4,0.7-10.3,3.4-12.4,4.8
		c-3.4,3.4-4.1,8.9-5.5,13.1c-3.4,1.4-11,2.8-13.8,6.2c-2.1,2.8-2.1,8.9-1.4,13.1c-4.1,3.4-6.9,4.8-9.6,11c-1.4,3.4,0,11.7,3.4,17.2
		c0-8.3-2.8-11.7,1.4-16.5c2.8-3.4,6.9-6.9,10.3-8.9c-1.4-4.1-2.8-10.3,0-12.4c2.8-2.1,11-4.1,13.8-4.8c2.1-5.5,1.4-7.6,4.1-13.1
		c2.8-4.8,8.3-4.1,12.4-4.8c0.7-4.1,0.7-9.6,3.4-12.4c2.1-2.1,9.6-2.8,12.4-2.8c0.7-4.1,1.4-7.6,4.1-9.6c1.4-0.7,8.9-3.4,11-2.8
		c4.1-3.4,0.7-5.5,6.2-8.3c4.1-2.1,12.4,1.4,14.4-0.7c-0.7-4.1-1.4-10.3,2.1-13.1c3.4-3.4,6.9-4.8,12.4-7.6c1.4-2.8-3.4-7.6-2.8-11
		c0.7-1.4,4.8-4.8,5.5-6.9c0.7-1.4-2.8-5.5-6.2-6.2c2.1-2.8,4.1-6.9,3.4-8.9c-0.7-2.8-4.8-2.8-6.9-4.1c0.7-3.4,0-6.9-2.1-8.9
		c-3.4-2.1-8.9-1.4-8.9-4.1c0.7-2.8-0.7-5.5-3.4-6.9c-4.1-2.1-10.3-3.4-15.1-1.4C380.3,210.8,377.6,208.1,374.8,208.1L374.8,208.1z"
		/>
	<path color-rendering="auto" image-rendering="auto" d="M430.5,239c2.1,2.8,0,9.6,1.4,11.7c1.4,1.4,3.4,4.1,3.4,5.5
		c0.7,3.4-2.1,5.5-6.2,7.6c3.4,4.1,7.6,6.2,7.6,13.1c-0.7,9.6-11.7,10.3-15.1,15.1c-4.8,6.2-0.7,9.6,1.4,14.4
		c-4.1-0.7-9.6-2.1-12.4,2.8c-2.1,4.1-2.1,8.9,0.7,13.1c-4.8,0.7-7.6-3.4-11.7,2.8c-3.4,4.8-1.4,8.3,0,11.7c-4.8,0-7.6-5.5-13.8,1.4
		c-4.8,5.5-0.7,11,0.7,14.4c-3.4-1.4-6.9-5.5-13.1,0.7c-4.1,4.1-2.1,6.9-0.7,11c-4.1-1.4-7.6-2.8-13.8,3.4
		c-5.5,5.5-4.8,11.7-2.8,16.5c-2.8-0.7-11.7-4.1-15.8-1.4c-4.8,3.4-6.2,11.7-3.4,16.5c2.1-6.2,3.4-8.3,6.2-11.7
		c3.4-4.1,11.7,0,16.5,0.7c0.7-6.2-1.4-15.8,6.2-16.5c4.8-1.4,6.2-3.4,10.3-4.1c0.7-2.8-1.4-7.6,0-10.3c2.1-2.8,8.3-2.8,11.7-2.1
		c3.4,0,0.7-8.9,2.1-11.7c3.4-4.8,6.2-2.1,13.1-5.5c0.7-2.8-0.7-6.9,0.7-9.6c1.4-2.1,8.3-3.4,11.7-3.4c-2.8-3.4-2.1-11-0.7-13.1
		c2.1-2.8,8.9-2.1,12.4-3.4c-2.8-5.5-3.4-8.3-0.7-12.4c2.1-3.4,6.2-2.8,9.6-6.2c3.4-4.1,6.9-5.5,6.2-11.7
		c-0.7-8.3-2.8-12.4-6.2-13.8c2.1-2.1,6.2-6.2,6.2-10.3c0-2.1-1.4-4.8-4.8-6.9c-6.9-24.1-16.5-17.2-19.3-16.5
		C425,232.1,427.8,234.2,430.5,239L430.5,239z"/>
	<path color-rendering="auto" image-rendering="auto" d="M278.6,336c-3.4,3.4-2.8,8.9-2.8,13.8c-4.1,1.4-9.6,2.1-11.7,6.9
		c-1.4,2.1,0,8.3,1.4,13.1c-4.1,1.4-11,0.7-12.4,6.2c-1.4,4.8,1.4,10.3,4.8,17.2c-1.4-6.9-2.8-11.7-1.4-15.8
		c1.4-5.5,8.3-4.8,11.7-6.2c-0.7-4.1-1.4-10.3,1.4-13.8c2.1-3.4,6.2-4.1,9.6-5.5c-0.7-4.8,0.7-8.9,3.4-12.4c2.8-2.8,8.3-3.4,11-4.1
		c0.7-4.8,2.1-9.6,6.2-12.4c2.8-1.4,6.2-2.1,7.6-0.7c-4.8-4.1-8.9-2.1-11.7-0.7c-4.1,2.1-4.8,7.6-4.1,11
		C286.8,332.5,282,332.5,278.6,336L278.6,336z"/>
	<path color-rendering="auto" image-rendering="auto" d="M319.1,396.5c-2.8,0-4.8,2.8-7.6,2.8c-4.1,0-8.3-2.8-12.4-1.4
		c-2.8,0.7-4.8,4.1-7.6,4.8c-4.1,0.7-8.9-1.4-12.4,0.7c-2.8,1.4-4.8,4.1-6.9,6.9c6.2-3.4,9.6-4.8,13.1-4.1c2.8,0.7,5.5,4.1,8.3,2.8
		c3.4-2.1,4.1-7.6,8.3-6.9c2.8,0,7.6,4.1,10.3,4.1c2.1,0,4.8-4.1,6.2-4.8c7.6-2.8,6.2-2.1,12.4-1.4
		C327.4,397.2,323.2,396.5,319.1,396.5L319.1,396.5z"/>
	<path color-rendering="auto" image-rendering="auto" d="M471.8,383.4c-8.3,11-0.7,21.3-5.5,31.6c-4.1,10.3-13.1,16.5-17.2,19.3
		l-12.4,8.9c15.1-3.4,25.4-11,31.6-21.3c3.4-6.2,0.7-17.9,2.1-28.9L471.8,383.4z"/>
</g>
<path shape-rendering="auto" color-rendering="auto" image-rendering="auto" d="M109.3,374.3c-1.4,4.8,2.8,6.2,6.2,9.6
	c4.8,5.5,7.6,6.2,15.8,7.6c5.5,0.7,5.5-2.8,6.2-7.6c0.7-5.5-2.1-9.6-6.2-12.4c-5.5-4.1-10.3-2.8-16.5-1.4
	C112.1,370.2,110,371.6,109.3,374.3L109.3,374.3z M116.9,375.7c0.7-2.8,4.1-0.7,6.9-0.7c4.1,0,6.2,2.1,8.3,6.2
	c0.7,2.1,0,2.8-2.1,4.1c-4.1,2.1-5.5-0.7-8.9-3.4C117.6,379.8,115.5,378.5,116.9,375.7L116.9,375.7z"/>
<path d="M280.6,385.3c0,3.4-2.8,6.9-6.2,7.6c-3.4,0.7-6.9-1.4-8.3-4.8s0-7.6,2.8-9.6c2.8-2.1,6.9-2.1,9.6,0.7
	c-6.2,2.1-6.2,4.1-6.9,6.2C275.1,384.7,277.8,383.3,280.6,385.3L280.6,385.3z"/>
<path shape-rendering="auto" color-rendering="auto" image-rendering="auto" d="M325.3,104.1c-1.4,8.3,1.4,20.6-2.1,23.4
	c-4.8-3.4-12.4-19.3-24.8-17.9c-1.4,8.9,0.7,16.5-1.4,22c-8.3-10.3-22.7-21.3-24.8-19.3c3.4,6.2,0.7,17.9,1.4,22.7
	c-6.9-4.8-26.1-15.8-30.3-13.8c4.1,6.9,3.4,17.9,5.5,24.1c-5.5-8.9-30.9-15.1-35.8-9.6c2.1,4.8,15.1,17.2,15.1,23.4
	c-8.9-15.8-35.8-17.2-41.3-11.7c4.1,5.5,5.5,9.6,12.4,18.6c-2.8-6.2-31.6-12.4-38.5-8.3c2.1,6.9,13.8,13.1,14.4,17.9
	c-8.9-2.1-33-13.8-38.5-6.9c6.2,7.6,11,12.4,13.8,18.6c-6.2,1.4-26.8-11.7-40.6-7.6c2.1,2.8,13.1,21.3,13.1,22
	c-8.9-2.1-26.8-17.9-33-13.8c4.8,4.8,6.2,13.8,7.6,19.3c-4.1-4.8-19.9-11.7-28.2-10.3c0.7,5.5-3.4,4.1-5.5,13.1
	c-3.4-0.7-15.1-11.7-25.4-11.7c0,2.8-3.4,15.8-4.8,15.8c-5.5,2.1-6.9-1.4-15.8-2.8c-2.1,18.6,10.3,33.7,17.9,37.1
	c14.4,6.9,37.1,6.2,53.6,13.8c26.1,13.8,58.4,6.2,87.3,2.1c28.9-4.1,43.3-41.9,75-42.6c28.9-0.7,52.3-17.2,81.1-12.4
	c14.4-4.1,45.4,0.7,46.8,8.3c0.7,3.4-6.2,9.6-17.9,13.8c-11-6.9-26.8-8.9-37.8-4.8c-14.4,5.5-22.7,20.6-26.8,32.3
	c-18.6,8.3-31.6,23.4-41.9,39.9c-7.6,12.4-11.7,19.3-16.5,33c-0.7,2.8-4.1,11.7-5.5,13.1c-4.1,2.1-12.4,0-19.9,1.4
	c-4.8,0.7-10.3,2.8-13.1,8.9c-10.3,19.3-46.1,22.7-59.1,4.1c-1.4-2.1-16.5-9.6-30.9-8.9C99.7,351,90.1,356.5,86,364
	c-19.3,6.9-19.9,13.8-25.4,22c-16.5,11-6.9,24.1,0.7,28.9c8.3,4.8,21.3,8.3,26.8,12.4c11.7,11.7,33.7,2.1,52.3,6.2
	c7.6,2.1,18.6-6.9,25.4-9.6c5.5-2.1,10.3-0.7,10.3,1.4c-3.4,4.1-4.1,8.3-6.9,11c-4.8-0.7-8.9-3.4-13.1,0c-0.7,1.4-3.4,2.1-4.1,2.1
	c-4.1,0-10.3-1.4-14.4-0.7c-6.9,2.1-14.4,4.1-18.6,11.7c2.1,0.7,11,0,13.1,0.7c-8.3,2.1-22.7,6.2-26.8,15.8
	c8.3-0.7,23.4-1.4,24.8-1.4c-3.4,2.8-12.4,12.4-11,17.2c6.2-1.4,16.5-2.8,25.4-4.1c-13.8,8.9-21.3,21.3-33.7,32.3
	c-17.2,14.4-45.4,26.8-39.9,53.6c4.1,8.3,9.6,17.2,16.5,22.7c11.7,8.9,26.8,11.7,41.9,11c24.8-1.4,46.1-17.2,71.5-11.7
	c24.8,6.2,48.1-4.1,71.5-8.3c19.9-15.8,35.1-15.1,61.2-13.1c29.6,2.8,47.4-27.5,68.8-41.9c11,5.5,35.1-15.1,37.1-14.4
	c13.8,1.4-5.5,11-10.3,17.9c-6.2,14.4-2.8,30.9-6.9,43.3c-2.1,6.2-8.3,10.3-14.4,14.4c-14.4,11-35.8,42.6-21.3,57.8
	c6.2-8.9,17.2-10.3,26.8-13.1c6.9-2.1,13.8-6.9,18.6-8.3c-2.8,13.8-2.1,15.8-3.4,29.6c1.4,15.8,7.6,26.8,9.6,37.8
	c4.1-5.5,16.5-17.2,23.4-28.2s8.3-24.8,10.3-30.3c11,6.2,14.4,6.2,21.3,15.8c6.2,5.5,20.6,21.3,26.8,27.5
	c8.9-14.4,3.4-33.7,3.4-38.5c11.7,0.7,14.4,7.6,25.4,10.3c0.7-13.8-8.9-32.3-17.9-38.5c2.8-1.4,4.1-2.1,8.3-1.4
	c4.8,0.7,14.4,6.2,17.2,6.2c-2.1-17.9-19.3-33.7-35.8-36.4c-19.9-9.6-2.8-19.3,4.8-30.9c16.5-22.7,22-52.9,13.8-79.8
	c2.1-23.4-19.9-37.8-32.3-46.8c17.9-8.9,25.4-28.9,25.4-48.1c3.4,5.5,8.9,11,11,10.3c1.4-5.5,1.4-6.9,3.4-19.3
	c4.1,6.2,15.8,11.7,18.6,10.3c4.1-2.1,1.4-19.9-2.1-28.2c11,0.7,19.3,4.8,27.5,6.9c0.7-7.6-6.9-19.3-10.3-22.7
	c-5.5-6.9-22.7-11.7-32.3-11.7c1.4-6.2,4.1-16.5,3.4-24.1c-2.1-22-20.6-29.6-38.5-35.1c3.4-13.1-0.7-26.1-4.1-39.9
	c-3.4-15.8-5.5-41.3-17.2-53.6c-2.8-2.8-8.3-1.4-13.1-2.8c2.1-12.4-0.7-15.8-5.5-19.9c-4.1-3.4-8.3-2.8-15.1,2.8
	c4.1-8.3-2.8-15.1-8.9-17.2c-3.4-1.4-11.7,0.7-14.4,8.9c-0.7-6.9-6.9-13.8-13.1-15.1c-6.2-1.4-13.1,4.1-14.4,11
	c-1.4-9.6-11-17.2-17.9-16.5c-6.2,0.7-5.5,8.9-7.6,14.4c-3.4-7.6-14.4-13.8-19.3-13.8c-6.2,0.7-6.2,8.9-8.3,13.1
	C349.3,119.9,336.3,103.4,325.3,104.1L325.3,104.1z M332.8,115.8c8.9,3.4,17.9,15.8,22.7,21.3c4.8-4.8,4.1-11.7,8.3-12.4
	c8.9,0,14.4,8.9,20.6,8.9c3.4-3.4,4.1-11.7,8.9-12.4c6.2-0.7,10.3,13.8,13.8,13.8c4.8-3.4,8.3-11,12.4-10.3c2.8,0,7.6,9.6,8.3,16.5
	c8.3,4.8,15.1-9.6,19.3-8.3c7.6,2.8,10.3,5.5,11,16.5c3.4-2.1,8.9-8.3,12.4-5.5c3.4,2.1,4.1,13.1,2.1,22.7
	c7.6-2.8,12.4-2.1,15.8,1.4c4.1,4.1,5.5,11.7,3.4,21.3c-2.8,4.8-3.4,12.4-1.4,17.9c2.8,7.6-0.7,17.2-7.6,22
	c-8.3,5.5-0.7,17.2-8.3,24.1c-4.1,4.1-2.1,11-4.1,18.6c-1.4,4.1-4.8,5.5-6.2,9.6c-1.4,2.8-2.1,8.3-2.8,12.4c-4.1,0-11,2.8-12.4,6.2
	c-1.4,3.4-1.4,7.6,0.7,11c-4.1,0-9.6,0.7-11.7,2.8c-2.8,4.1-2.1,10.3-2.1,13.8c-4.8-0.7-10.3,1.4-13.1,4.1
	c-4.1,4.1-4.8,9.6-6.2,13.8c-3.4-1.4-8.9-2.1-11.7,0c-3.4,2.8-4.8,8.3-6.2,11.7c-5.5-2.8-5.5-4.8-11.7-4.8c-4.8,0-6.9,2.8-11,8.3
	c-4.8-1.4-10.3-5.5-16.5-4.1c-6.2,1.4-13.1,8.9-15.1,14.4c6.2-4.8,10.3-8.3,17.2-9.6c6.2-0.7,9.6,2.8,16.5,6.9
	c2.8-5.5,5.5-8.3,10.3-10.3c4.8-2.1,7.6,2.8,11.7,6.2c2.1-3.4,4.8-11.7,8.3-14.4c3.4-2.8,7.6,0,12.4,2.8c0-5.5,4.8-11.7,7.6-16.5
	c4.1-2.8,11-4.1,15.8-2.8c-2.8-6.2-1.4-13.1-0.7-15.1c2.1-4.1,4.8-4.8,12.4-2.8c-2.8-6.2-4.1-7.6-2.1-12.4
	c2.8-6.2,10.3-3.4,15.1-3.4c-2.1-4.1-4.1-7.6,0-12.4c2.8-2.8,2.1-6.9,4.1-10.3c4.1-6.2,0.7-11.7,2.8-18.6c1.4-4.8,9.6-7.6,8.9-12.4
	c-0.7-6.9,0-13.1,6.2-17.2c6.9-4.8,7.6-16.5,5.5-24.8c-0.7-2.8,0-11.7,2.1-15.1c7.6,13.1,0.7,34.4,7.6,46.8c3.4,6.9,0,10.3-2.1,15.1
	c-6.9-0.7-15.1,4.1-19.9,8.3c-6.9,6.2-2.1,15.8-1.4,24.1c4.1-6.2,0.7-11,3.4-15.1c1.4-2.1,2.8-5.5,4.8-6.2c4.8-1.4,4.8-2.1,9.6-1.4
	c1.4,0,5.5-1.4,8.3-2.1c9.6,14.4,30.9,2.8,32.3,23.4c12.4,10.3-2.1,35.1,0,38.5c8.3-2.8,17.2-2.1,24.1,0.7c-0.7,0.7-2.1,2.1-2.8,3.4
	c-0.7,2.8-2.1,4.8-2.1,7.6c-3.4-2.1-13.8-5.5-13.8-4.1c1.4,2.8,4.1,3.4,6.2,4.1c2.1,1.4,3.4,2.8,4.1,3.4c-4.8,0-9.6,4.1-10.3,8.9
	c0,0-5.5-3.4-6.2-5.5c-2.1-0.7-2.8-0.7-2.8,0.7c0.7,2.1,6.2,7.6,5.5,8.9c-1.4-1.4-2.1-2.1-4.1-2.1c-4.1-0.7-7.6,2.1-10.3,6.2
	c0-0.7,0-2.1,0-2.8c1.4-7.6-2.8-19.3-9.6-26.8c4.1,4.1,12.4,2.1,13.8-0.7H526c-3.4,0-8.3-4.1-10.3-6.2c-2.8-4.1-3.4-6.9-7.6-10.3
	c-2.8-2.1-10.3-6.2-17.2-10.3c6.9,7.6,16.5,17.2,22,25.4c4.1,6.2,5.5,13.1,7.6,19.9c1.4,3.4,3.4,7.6,2.8,11c0,3.4-2.8,8.9-2.1,13.8
	c2.8,23.4-17.9,27.5-26.1,45.4c-15.1-4.1-26.1-6.9-41.9-6.2c-6.2,0-17.2,2.1-23.4,4.8c-5.5-2.8-10.3-4.1-15.8-4.8
	c-5.5-7.6-11-15.1-17.9-21.3c-4.1-3.4-8.9-6.2-13.8-7.6c-8.3-1.4-13.8-3.4-26.8,4.1c9.6-1.4,19.3-1.4,27.5,2.8
	c4.8,2.8,9.6,5.5,13.1,9.6c4.1,4.1,7.6,8.9,11,13.8c-1.4,0.7-2.1,1.4-3.4,2.8c-4.1,4.1-2.8,6.9-0.7,15.8c1.4-8.3,5.5-12.4,8.9-13.8
	c6.9,0,15.1,2.1,18.6,6.9c10.3-4.8,22-6.9,33-4.8c11,2.8,22.7,4.8,33,8.9c6.2,2.8,15.8,6.2,19.9,12.4c14.4,19.3,19.9,47.4,14.4,71.5
	c-4.8,20.6-17.9,38.5-34.4,51.6c-8.9-2.1-18.6-8.9-27.5-7.6c-9.6,1.4-15.8-0.7-27.5,13.1c8.9-5.5,18.6-8.9,28.2-7.6
	c8.3,0.7,17.2,4.8,24.8,7.6c11.7,4.1,15.8,15.1,28.2,17.9c-1.4,2.8-2.8,13.8,2.1,18.6c-2.8-1.4-14.4-2.8-16.5-4.1
	c0-10.3-6.9-14.4-13.8-11c1.4,1.4,5.5,2.8,6.9,3.4c2.1,1.4,2.8,7.6,3.4,9.6c5.5,2.8,13.8,2.8,17.9,6.2c1.4,2.1,4.1,6.9,5.5,9.6
	c-4.1,0.7-6.2,1.4-7.6,5.5c-0.7,3.4-2.8,7.6-3.4,8.9c-2.1-1.4-4.1-6.9-6.2-7.6c-2.8-4.8-6.9-9.6-11.7-12.4c-1.4-0.7-3.4,0-4.8-1.4
	c-4.8-3.4-6.2-8.9-12.4-14.4c2.8,4.8,4.1,11,7.6,15.1c0.7,1.4,2.1,2.8,3.4,4.1c2.8,2.1,4.8,2.1,7.6,5.5c2.1,2.1,6.9,5.5,8.3,7.6
	c-5.5,2.1-11.7,6.9-11.7,13.1c-11-7.6-21.3-19.3-31.6-11.7c0,5.5-2.1,11-4.8,15.8c-2.1-4.8-4.8-8.9-10.3-10.3
	c-4.1-0.7-10.3,0.7-13.8,2.8c-2.8-3.4-0.7-16.5,2.1-22.7c-8.3,0.7-13.1,5.5-24.1,9.6c0-4.8-6.9-15.8-9.6-18.6
	c2.8-2.1,7.6-6.2,6.9-8.9c19.3-3.4,11-20.6,22-31.6c-9.6-19.9,8.3-36.4,13.8-46.8c5.5-10.3,13.1-16.5,21.3-23.4
	c2.8-2.1,14.4-6.2,17.2-7.6c-11.7-5.5-25.4,7.6-29.6,11.7c-2.8,3.4-5.5,6.9-7.6,10.3c-4.1-3.4-7.6-4.1-11.7-2.8
	c-1.4-7.6-2.1-14.4-2.8-22c-0.7-4.8-7.6-8.9-5.5-13.8c0.7-2.1,2.8-12.4,1.4-13.1c-0.7-0.7-4.1,7.6-4.8,8.3
	c-4.8,5.5,2.1,13.1,4.1,19.3c1.4,3.4-0.7,6.2,0,9.6c0,2.1,1.4,8.3,0,8.3c-5.5-2.1-8.3-2.8-10.3-7.6c-2.1-4.1-1.4-13.8-3.4-21.3
	c0,4.8-3.4,16.5-2.1,22c3.4,6.9,8.9,10.3,14.4,14.4c-7.6,4.8-15.1,10.3-24.8,8.3c1.4-5.5,2.1-11,0-16.5c-1.4-4.1,1.4-6.9,3.4-9.6
	c3.4-5.5,2.8-11.7,4.1-17.9c0.7-4.1,5.5-7.6,5.5-12.4c0-10.3-4.1-11.7-10.3-19.9c0,6.9,6.2,13.1,4.1,19.9c-0.7,3.4-4.1,6.2-5.5,9.6
	c-1.4,4.8,1.4,11-2.1,15.8c-2.1,2.8-4.8,4.8-6.2,8.3c-2.1,5.5,2.8,8.3,2.1,13.8c0,2.8-6.2,8.9-5.5,15.1
	c-17.2,10.3-27.5,27.5-49.5,33c-21.3,4.8-45.4-11.7-63.3,7.6c-22.7,11.7-50.2,18.6-75.6,15.8c-4.8-2.1-9.6-2.8-15.1-2.1
	c2.1-2.8,4.1-4.8,6.2-6.9c2.8-2.1,9.6-0.7,13.1-4.1c3.4-4.1,8.3-7.6,13.8-8.9c6.2-2.1,13.8-0.7,19.3-2.1c6.2-2.1,18.6-6.2,26.1-11.7
	c9.6-7.6,11.7-17.9,11.7-17.9s8.9,0,12.4-4.1c4.8-8.3,11.7-20.6,7.6-26.8c-0.7,6.2-4.8,16.5-9.6,22c-4.1,4.8-8.9,4.8-13.8,6.9
	c-2.1,4.1-2.8,8.9-5.5,11c-8.9,8.3-17.9,12.4-29.6,15.8c-8.9,2.8-20.6,2.1-28.9,6.9c-5.5,2.8-9.6,8.3-15.8,9.6
	c-7.6,1.4-9.6,11.7-17.9,13.1c-8.9,2.1-18.6,4.1-28.9,0.7c-17.2,17.9-41.3,11-58.4,1.4c-9.6-5.5-14.4-22-8.9-30.3
	c1.4,4.1,4.8,9.6,7.6,11.7c3.4,6.2,7.6-2.1,12.4,1.4c8.3,2.1,16.5,6.2,24.1,10.3c1.4-6.9,9.6-8.3,15.1-4.1
	c4.8-6.9,4.8-10.3,9.6-17.9c6.2-4.8,19.3,4.8,24.8-4.1c5.5-0.7,13.1,1.4,15.8-5.5c6.2-8.9,15.1-1.4,22.7-4.8
	c8.9-1.4,16.5-6.9,22-13.1c7.6-8.9,14.4-20.6,27.5-22c6.2-8.9,8.9-19.9,19.3-25.4c5.5-1.4,7.6-13.1,7.6-18.6
	c4.1-6.9,8.3-4.8,14.4-7.6c3.4-3.4,14.4-4.8,19.3-4.8c-5.5-3.4-15.1-2.8-24.1-1.4c-2.1,1.4-6.2,1.4-8.9,3.4c0.7-2.8,0-4.1-1.4-6.9
	c3.4-0.7,6.9-3.4,8.9-5.5c5.5-4.1,8.3-10.3,13.1-12.4c2.8-0.7,5.5,0.7,9.6,2.8c3.4,1.4,5.5,4.1,13.8,10.3c-0.7-6.2-4.8-11-7.6-13.1
	c-3.4-2.8-8.9-5.5-15.8-6.2c-6.9-0.7-8.9,6.9-13.1,11c-3.4,1.4-10.3,2.1-15.8,0.7c-12.4,2.8-12.4,0-21.3,0.7
	c-6.9,0-15.1-4.1-20.6-6.9c-4.8,2.8-10.3,6.9-15.1,9.6c-5.5,2.1-8.3,4.8-13.8,0.7c-1.4-1.4-8.9-7.6-13.1-8.9
	c-2.8-0.7-10.3-0.7-13.8-1.4c-11-7.6-32.3-9.6-41.3,4.1c-20.6-2.8-37.1,2.8-52.3-9.6c-11.7,0.7-29.6-6.9-30.9-14.4
	c-0.7-2.8,7.6-6.2,11.7-10.3c4.1-14.4,22-19.9,32.3-28.2c15.1,0,37.8-0.7,41.9,18.6c11,4.1,28.9,0.7,39.9-4.8
	c16.5,4.8,21.3-16.5,31.6-21.3c4.1-2.1,8.9-1.4,15.8,4.1c4.8-3.4,9.6-4.8,15.1-5.5s12.4,0.7,15.8,3.4c2.8-4.1,6.2-7.6,11.7-8.3
	c6.2-1.4,13.8,2.8,17.2,3.4c0-3.4,0.7-7.6,2.8-9.6c2.1-1.4,7.6-2.1,9.6-2.1c-0.7-4.8-2.8-15.8,0-22c1.4-4.1,8.3-6.2,9.6-9.6
	c0-4.1-2.1-8.9,0-13.1c2.1-3.4,7.6-3.4,9.6-6.2c0-4.8-0.7-9.6,2.1-13.8c2.8-3.4,8.3-4.8,11-7.6c1.4-4.8,2.1-11,6.9-13.8
	c4.1-2.1,8.3-2.1,13.1-2.8c-0.7-3.4,0-9.6,5.5-11.7c4.1-4.8,11.7-8.9,20.6-14.4c8.3-5.5,15.8-13.1,19.9-22.7
	c-1.4-4.8,1.4-8.3,2.8-12.4c1.4-3.4,2.1-4.8,2.8-8.3c2.1-9.6-3.4-18.6-7.6-27.5c-2.1,2.8-3.4,5.5-5.5,8.3
	c-2.1-6.9-6.9-15.1-15.8-15.1c-2.8,0-5.5,0-4.1,3.4c2.1,7.6-4.8-2.8-7.6-4.1c-4.1-3.4-9.6-8.9-15.1-6.2c-4.1,2.1,1.4,13.1-4.1,8.3
	c-6.2-4.1-12.4-8.9-19.9-11c-3.4-0.7-10.3,0.7-8.9,4.8c0.7,3.4,0,5.5,0,7.6c-7.6-4.8-11.7-7.6-20.6-8.9c-2.8-0.7-13.8,1.4-10.3,3.4
	c2.8,2.1,8.3,11,2.1,6.9c-8.9-4.1-16.5-6.9-26.1-6.2c-0.7,6.2-3.4,13.1-4.1,14.4c-2.8-0.7-6.2-6.9-8.3-8.9c4.1-4.1,2.8-13.8,0-20.6
	c6.9-0.7,13.8,4.8,19.3,10.3c8.9-2.1,8.3-15.8,6.9-19.9c6.2,2.1,11,13.1,16.5,18.6c7.6-2.1,4.8-19.9,7.6-21.3
	c4.8,0,9.6,10.3,22.7,16.5C332.8,130.9,333.5,124.7,332.8,115.8L332.8,115.8z M224.2,139.2c10.3,3.4,18.6,8.3,24.8,15.1
	c4.8,5.5,10.3,12.4,17.9,13.8c2.8-5.5,5.5-11.7,4.8-15.8c5.5,0.7,22.7,6.2,28.2,8.3c-4.8,2.8-9.6,3.4-13.1,8.3
	c-1.4,2.1,0,11-0.7,13.8c0,6.9-6.2,12.4-3.4,18.6c0.7,2.1,2.1,4.1,2.8,6.2c-12.4,4.1-26.1,5.5-39.9,6.9c2.1-8.3,3.4-17.2,1.4-26.1
	c-0.7-2.8-0.7-6.2-2.8-8.3c-4.1-4.8-8.9-10.3-7.6-16.5C236.5,157.7,233.8,146.7,224.2,139.2L224.2,139.2z M330.1,144
	c2.1,0,4.8,2.1,6.2,2.8c6.9,2.8,8.9,8.3,15.1,11.7c0,6.9-3.4,13.8-7.6,19.3c-1.4,2.1-2.8,3.4-4.1,5.5c-2.8,4.1-3.4,10.3-1.4,14.4
	c0,0.7,0.7,1.4,1.4,2.1c-12.4,0.7-24.8,2.8-37.8,0c-3.4,2.1-7.6,4.1-11.7,5.5c-0.7-3.4-3.4-6.9-4.1-10.3c-0.7-4.8,4.1-8.3,3.4-13.1
	c-0.7-5.5-2.1-9.6-0.7-11c0.7-1.4,13.8-7.6,15.1-10.3c-0.7-4.1-1.4-4.1-4.1-6.9c-1.4-1.4-4.1-2.8-4.8-5.5
	c10.3-2.8,24.8,8.9,30.3,11.7c1.4-2.8,0.7-2.8,1.4-7.6c-0.7-2.8-2.8-6.9,0-8.3C328.7,144,329.4,144,330.1,144L330.1,144z M361,148.8
	c6.2,3.4,10.3,10.3,15.8,14.4c4.1,3.4,8.9-1.4,7.6-6.2c6.2,2.1,5.5,10.3,9.6,13.8c4.1,4.1,7.6-6.2,8.9,1.4
	c2.8,4.8,1.4,10.3-0.7,15.1c-1.4,4.1-1.4,4.8-3.4,8.3c-0.7,6.2-1.4,11.7-5.5,16.5c-1.4,2.1-2.8,3.4-4.1,4.8c0-4.1-3.4-8.9-12.4-11.7
	c-9.6-4.8-19.9-5.5-29.6-4.8c-1.4-2.1-2.8-4.1-3.4-6.2c-0.7-3.4,1.4-6.9,3.4-9.6c-0.7,0.7,1.4-1.4,2.1-2.1
	c4.8-6.2,8.9-14.4,8.9-22.7C361,157,359.6,149.5,361,148.8L361,148.8z M207,152.2c1.4,0,3.4,0,6.2,1.4c5.5,2.8,8.9,5.5,13.8,11.7
	c3.4,5.5,6.9,13.8,9.6,16.5c2.1,2.8,3.4,8.3,4.1,8.3c2.8,10.3,0.7,17.9-2.1,26.1c-13.1,3.4-23.4,12.4-34.4,20.6
	c-0.7-1.4-1.4-2.8-2.1-3.4c-1.4-2.8-2.8-6.2-3.4-9.6c-1.4-6.9,2.1-13.1,1.4-19.9c0-6.9-5.5-13.1-10.3-17.2
	c-4.8-4.1-9.6-15.1-13.1-20.6c6.2-1.4,27.5,6.9,33,12.4c3.4-7.6-6.2-17.2-9.6-25.4C203.5,152.9,205.6,152.2,207,152.2L207,152.2z
	 M155.4,176.3c3.4,0,17.9,4.1,22.7,6.2c4.8,2.1,8.9,9.6,11,12.4c2.8,2.8,4.8,5.5,4.8,9.6c0,6.9-3.4,14.4-0.7,21.3
	c1.4,4.8,2.8,10.3,6.2,15.1c-6.2,4.8-11,11.7-18.6,13.1c-16.5,4.1-35.8,5.5-52.3,4.1c2.1-4.1,5.5-13.1,4.8-17.9
	c0-4.8-2.1-8.9-4.1-13.1c-2.8-6.2,0-11.7,2.1-17.9c2.1-4.8-2.1-11-6.2-21.3c9.6,0.7,26.1,8.9,39.2,10.3
	C163.7,193.5,159.5,182.5,155.4,176.3L155.4,176.3z M105.9,198.3c4.1,5.5,15.1,9.6,19.9,10.3c-1.4,4.8-2.8,9.6-2.8,14.4
	c0,2.8,1.4,6.2,2.8,8.3c3.4,5.5,2.1,12.4,0.7,17.2c-1.4,4.8-6.2,6.2-9.6,8.3c-11.7,0.7-21.3-2.8-30.3-6.2
	c-12.4-4.8-24.8-6.9-41.3-10.3c-6.9-1.4-19.3-8.3-15.8-16.5c1.4-2.8,15.8,2.1,15.8,0.7c0.7-5.5,0.7-12.4,4.1-13.1
	c5.5-0.7,16.5,11,21.3,10.3c6.2-1.4,5.5-8.3,7.6-17.2c8.9,4.8,17.9,8.9,28.9,14.4C106.6,214.1,107.3,205.9,105.9,198.3L105.9,198.3z
	 M339,232.7c7.6,0,15.1,2.8,21.3,4.1c-2.8,4.1-4.1,5.5-5.5,12.4c-3.4,0.7-13.8,1.4-15.1,4.1c-10.3-1.4-23.4-0.7-30.9,3.4
	c1.4-4.1,5.5-9.6,8.3-12.4C321.1,238.9,332.1,233.4,339,232.7L339,232.7z M330.8,259.5c2.1,0,4.1,0,5.5,0.7
	c-0.7,2.1-1.4,4.1-1.4,5.5c-4.1,2.1-8.9,4.8-11,8.9c-1.4,2.1-2.1,8.3-1.4,12.4c-3.4,1.4-6.9,4.1-9.6,8.3c-2.1,3.4-0.7,8.9-0.7,13.1
	c-5.5,3.4-7.6,7.6-8.3,8.9c-2.8,6.2-2.1,13.1-1.4,19.9c-2.8,0-4.8,0.7-6.2,2.1c-2.1,1.4-4.1,4.1-4.8,6.9c-4.1-2.1-8.3-3.4-12.4-2.8
	c-6.2,0.7-5.5,2.8-12.4,9.6c-3.4-5.5-11.7-8.9-19.9-5.5c6.9-12.4,8.9-28.2,19.3-39.2c4.8-22,23.4-34.4,35.8-41.3
	C308.1,261.6,323.9,259.5,330.8,259.5L330.8,259.5z M570.7,325.5C571.4,325.5,571.4,325.5,570.7,325.5c2.8,1.4,4.1,2.1,6.2,3.4
	c2.1,2.1,6.9,8.3,6.2,11c-2.1-1.4-11-4.8-17.9-6.2c0-2.1,1.4-4.1,2.1-6.2C567.3,325.5,569.4,325.5,570.7,325.5L570.7,325.5z
	 M556.3,341.3c1.4-0.7,4.1,1.4,4.8,4.1c2.1,3.4,2.8,8.9,2.1,16.5c-2.8,2.1-10.3-3.4-13.8-9.6c-0.7-2.8,0.7-7.6,3.4-8.9
	C553.6,342.7,554.2,342,556.3,341.3L556.3,341.3z M541.9,355.8c-0.7,4.8-0.7,10.3-2.1,13.8c-2.1-0.7-6.2-6.2-8.3-10.3
	c0.7-2.8,0-6.2,4.1-6.9C539.1,351.6,539.8,354.4,541.9,355.8L541.9,355.8z M193.2,431.4c4.8,0.7,9.6,4.1,13.1,7.6
	c6.9,5.5,16.5,4.1,24.1,1.4c4.1-1.4,7.6-4.1,11.7-6.9c3.4-2.8,6.9,2.8,10.3,2.8c5.5,2.1,12.4,1.4,17.9,1.4c3.4-2.1,7.6,0.7,12.4,0.7
	c0,2.1,2.1,2.1,2.8,4.8c0.7,4.1,0,0.7-2.8,5.5c-1.4,2.8-2.1,5.5-2.1,8.3c-0.7,6.2-3.4,11.7-7.6,13.1c-6.9,5.5-9.6,14.4-14.4,21.3
	c-12.4,2.8-21.3,13.1-28.9,22.7c-3.4,2.8-11,11.7-18.6,12.4c-8.9-2.1-19.9,0.7-28.2,9.6c-8.9-2.8-15.1,6.2-23.4,2.1
	c-1.4-0.7-5.5,2.1-10.3,2.1c-4.8,0-8.9,11-9.6,15.1c-6.2-4.8-12.4,2.8-16.5,2.8c-2.8-1.4-5.5-3.4-8.3-4.8
	c2.8-8.3,10.3-13.8,16.5-19.9c7.6-7.6,17.2-15.8,25.4-22c14.4-10.3,24.8-19.9,41.3-28.2c7.6-3.4,15.1-9.6,11-24.1
	c-1.4,2.1-2.1,11.7-6.2,13.8c-4.8,2.1-10.3,5.5-14.4,7.6c-14.4,7.6-26.1,19.3-39.2,28.2c-14.4,9.6-28.9,20.6-37.8,35.8
	c-0.7,1.4-2.1,3.4-2.8,4.8c-0.7,0-1.4-0.7-2.1-0.7c-3.4-0.7-7.6,1.4-11,2.1c-4.8-2.1-4.8-6.9-6.2-9.6c1.4-0.7,6.2-4.1,10.3-8.9
	c10.3-11.7,22-17.2,31.6-28.9c5.5-6.9,31.6-26.1,34.4-31.6C182.2,464.4,194.6,447.9,193.2,431.4L193.2,431.4z M184.3,434.9
	c4.8,11.7-14.4,28.2-26.1,37.8c-6.9,0.7-19.3,0.7-26.1,2.1c5.5-5.5,13.1-10.3,19.3-14.4c-7.6,0.7-22-0.7-30.3,2.8
	c5.5-7.6,30.9-10.3,34.4-11c-6.2,0-17.9-1.4-23.4-3.4c6.9-4.1,15.1-4.8,24.1-2.8c4.8-2.8,9.6-3.4,15.1,0
	C174.7,441.7,180.8,435.5,184.3,434.9L184.3,434.9z M528.1,583.4c7.6,1.4,19.3,8.9,21.3,19.9c-8.3-4.1-16.5-4.1-19.9-3.4
	C526,597.1,526,587.5,528.1,583.4L528.1,583.4z M401.6,606.1c3.4,2.8,9.6,12.4,8.9,16.5c-4.1,1.4-14.4,2.8-18.6,9.6
	C384.4,627.4,394,610.9,401.6,606.1z M531.5,616.4c6.2,3.4,9.6,9.6,10.3,18.6c-7.6-7.6-15.1-2.8-18.6-4.8
	C521.9,626.7,525.4,617.1,531.5,616.4L531.5,616.4z M512.3,628.1c4.8,4.8,12.4,26.1,6.2,35.1c-1.4-1.4-12.4-10.3-18.6-21.3
	C497.9,634.3,508.2,628.1,512.3,628.1z M445.6,635.6c0.7,0,2.1,0,2.8,0c1.4,0,2.1,0.7,3.4,0.7c3.4,1.4,6.2,5.5,6.9,8.9
	c-2.1,6.9-12.4,22.7-17.2,26.8c-2.1-7.6-7.6-24.8-4.8-33.7C439.4,637,442.2,635.6,445.6,635.6L445.6,635.6z"/>
<g transform="matrix(1.0886 0 0 1.0886 -3.5562 -86.592)">
	<path style="fill:#FFFFFF;stroke:#000000;" d="M73.6,580.1c-0.7-8.3,2.8-11,6.2-13.1c2.1,6.2,6.9,16.5,3.4,20.6
		C77.1,588.3,76.4,587,73.6,580.1L73.6,580.1z"/>
	<path style="fill:#FFFFFF;stroke:#000000;" d="M92.2,571.1c-5.5-0.7-6.2-4.8-6.9-12.4c0-4.8-6.2-15.8,0.7-20.6
		c5.5,0,6.2,10.3,8.9,14.4c3.4,4.1,7.6,9.6,7.6,9.6C102.5,568.4,99.1,571.1,92.2,571.1L92.2,571.1z"/>
	<path style="fill:#FFFFFF;stroke:#000000;" d="M201.5,481.7c-0.7,4.8-0.7,11.7,5.5,15.8c4.1-6.2,7.6-13.1,6.9-17.2L201.5,481.7z"/>
	<path style="fill:#FFFFFF;stroke:#000000;" d="M178.2,472.1c-0.7,8.3,0.7,15.1,6.2,18.6c3.4-4.1,3.4-10.3,3.4-15.8L178.2,472.1z"/>
	<path style="fill:#FFFFFF;stroke:#000000;" d="M74.3,465.2c0,8.9,1.4,11.7,5.5,17.9c4.8-4.1,11-7.6,6.2-16.5
		C80.5,465.2,74.3,465.2,74.3,465.2L74.3,465.2z"/>
	<path style="fill:#FFFFFF;stroke:#000000;" d="M95,473.5c0,5.5,3.4,11.7,7.6,16.5c2.1-4.8,6.2-6.2,6.2-15.1
		C104.6,470.1,99.8,472.8,95,473.5L95,473.5z"/>
	<path style="fill:#FFFFFF;stroke:#000000;" d="M144.5,472.1c-2.1,10.3,0.7,23.4,4.8,24.8c4.1,0,7.6-13.8,13.1-30.9
		C156.8,463.2,143.8,470.1,144.5,472.1L144.5,472.1z"/>
	<path style="fill:#FFFFFF;stroke:#000000;" d="M59.2,456.3c-6.2,7.6-8.9,23.4,0.7,29.6c2.8,1.4,5.5-18.6,8.9-24.8L59.2,456.3z"/>
	<path style="fill:#FFFFFF;stroke:#000000;" d="M86.7,593.8c0-4.8-0.7-8.9,6.9-13.8c5.5,7.6,6.9,13.8,5.5,19.3
		C95.6,599.3,89.5,602.8,86.7,593.8z"/>
	<path style="fill:#FFFFFF;stroke:#000000;" d="M106,600c-1.4-4.1,0.7-10.3,5.5-17.2c8.3,6.2,9.6,11,7.6,19.3
		C114.9,604.1,109.4,604.8,106,600z"/>
	<path style="fill:#FFFFFF;stroke:#000000;" d="M128,599.3c-2.8-4.8-0.7-10.3,1.4-16.5c5.5,2.8,9.6,6.9,11,12.4
		C138.3,598,136.2,602.1,128,599.3L128,599.3z"/>
	<path style="fill:#FFFFFF;stroke:#000000;" d="M223.5,474.9c1.4,6.9,2.1,11.7,6.9,17.9c5.5-5.5,6.2-9.6,4.1-17.2L223.5,474.9z"/>
	<path style="fill:#FFFFFF;stroke:#000000;" d="M244.9,476.9c-2.1,7.6,2.8,13.8,4.1,15.8c8.3-4.8,6.9-8.9,7.6-15.8H244.9z"/>
	<path style="fill:#FFFFFF;stroke:#000000;" d="M183,580.8c-2.1-2.1-4.8-4.8,0.7-13.1c8.3,0.7,9.6,5.5,10.3,11
		C189.8,580.8,186.4,582.1,183,580.8L183,580.8z"/>
	<path style="fill:#FFFFFF;stroke:#000000;" d="M141.7,581.5c-2.8-4.1-6.9-19.3,0.7-25.4c6.2,2.1,7.6,13.1,11.7,17.2
		c2.8,2.8,7.6,7.6,6.9,9.6c-1.4,2.8,0,4.8-7.6,6.9C147.9,591.8,145.1,588.3,141.7,581.5L141.7,581.5z"/>
	<path style="fill:#FFFFFF;stroke:#000000;" d="M117,476.2c0,5.5,1.4,8.9,5.5,15.8c6.9-4.1,8.3-5.5,8.3-14.4
		C126.6,472.1,121.8,475.6,117,476.2L117,476.2z"/>
	<path style="fill:#FFFFFF;stroke:#000000;" d="M212.5,571.1c-2.8-2.1-10.3-12.4-7.6-22c8.3-1.4,15.8,12.4,17.2,17.2
		C220.1,569.8,216.7,571.8,212.5,571.1L212.5,571.1z"/>
	<path style="fill:#FFFFFF;stroke:#000000;" d="M235.9,558.1c-2.8-1.4-5.5-3.4-2.8-13.1c8.3-1.4,11,2.8,12.4,7.6
		C243.5,556,240,558.1,235.9,558.1L235.9,558.1z"/>
	<path style="fill:#FFFFFF;stroke:#000000;" d="M255.2,542.9c-3.4-1.4-6.2-2.8-4.8-12.4c7.6-2.8,11,0.7,13.8,5.5
		C261.4,540.2,258.6,542.9,255.2,542.9L255.2,542.9z"/>
	<path style="fill:#FFFFFF;stroke:#000000;" d="M269.6,520.9c-3.4-0.7-6.2-2.1-5.5-11.7c7.6-3.4,11,0,13.8,4.8
		C276.5,518.2,273.7,520.9,269.6,520.9L269.6,520.9z"/>
	<path style="fill:#FFFFFF;stroke:#000000;" d="M112.8,554.6c-2.8-1.4-5.5-3.4-2.8-13.1c8.3-1.4,11,2.8,12.4,8.3
		C119.7,553.3,116.3,555.3,112.8,554.6L112.8,554.6z"/>
	<path style="fill:#FFFFFF;stroke:#000000;" d="M132.1,538.1c-2.8-1.4-9.6-10.3-6.9-19.9c8.3-1.4,15.1,9.6,17.2,14.4
		C139,536.8,136.2,538.8,132.1,538.1z"/>
	<path style="fill:#FFFFFF;stroke:#000000;" d="M151.3,523c-2.8-1.4-5.5-3.4-2.8-13.1c8.3-1.4,11,2.8,12.4,7.6
		C158.2,520.9,154.8,523,151.3,523L151.3,523z"/>
	<path style="fill:#FFFFFF;stroke:#000000;" d="M169.9,505.8c-2.8-1.4-5.5-3.4-2.8-13.1c8.3-1.4,11,2.8,12.4,7.6
		C176.8,503.7,173.3,505.8,169.9,505.8z"/>
</g>
</svg>
