<?xml version="1.0" encoding="utf-8"?>
<!-- Generator: Adobe Illustrator 17.0.0, SVG Export Plug-In . SVG Version: 6.00 Build 0)  -->
<!DOCTYPE svg PUBLIC "-//W3C//DTD SVG 1.1//EN" "http://www.w3.org/Graphics/SVG/1.1/DTD/svg11.dtd" [
	<!ENTITY ns_flows "http://ns.adobe.com/Flows/1.0/">
	<!ENTITY ns_extend "http://ns.adobe.com/Extensibility/1.0/">
	<!ENTITY ns_ai "http://ns.adobe.com/AdobeIllustrator/10.0/">
	<!ENTITY ns_graphs "http://ns.adobe.com/Graphs/1.0/">
]>
<svg version="1.1" id="Layer_1" xmlns:x="&ns_extend;" xmlns:i="&ns_ai;" xmlns:graph="&ns_graphs;"
	 xmlns="http://www.w3.org/2000/svg" xmlns:xlink="http://www.w3.org/1999/xlink" xmlns:a="http://ns.adobe.com/AdobeSVGViewerExtensions/3.0/"
	 x="0px" y="0px" width="612px" height="792px" viewBox="0 0 612 792" style="enable-background:new 0 0 612 792;"
	 xml:space="preserve">
<path style="fill:none;stroke:#000000;stroke-miterlimit:10;" d="M525.3,485.9c-0.3,0-0.8,0.4-1.4,1.1c-0.8,0.9-1.6,2.3-2.7,4.1
	c-1,1.9-2.1,4.2-3.2,7.1c-1.1,2.9-2,6.2-2.8,10c-0.7,3.4-1.1,7.3-1.4,11.5c-0.3,4.1-0.3,8.5,0,13.2c0.5,6.8,1.4,14.1,3,21.6
	c1.5,7.6,3.6,13.6,6.1,21.4c0.5,1.6,1-1.5,1.5,0c0.2,0.6,0.4-0.6,0.6,0h9.9c-0.5-1.5-1,1.6-1.5,0c-0.5-1.5-1,1.5-1.4,0
	c-2.4-7.7-4.5-16.4-6.2-23.4c-1.7-7.2-3-13.9-3.7-20.3c-0.5-4.3-0.9-8.4-0.9-12.2c-0.1-3.8,0.1-7.5,0.3-10.7
	c0.6-7.2,1.8-12.9,2.8-16.8c0.5-2,0.8-3.5,1-4.6c0.2-1.1,0.2-1.7-0.1-1.8C525.4,485.9,525.3,485.9,525.3,485.9L525.3,485.9z"/>
<path style="fill:none;stroke:#000000;stroke-miterlimit:10;" d="M551.8,507.4c-0.7,0-1.3,2-2,5.5c-0.7,3.5-1.3,8.6-1.9,14.9
	c-0.7,6.3-1.2,13.8-1.7,22.2c-0.5,8.4-0.8,16.2-0.6,25.9c0,0.3,0-0.3,0,0c0,1.7,0.1-1.6,0.2,0H556c-0.1-1.7-0.1,1.8-0.2,0
	c0-0.3,0,0.3,0,0c-0.2-9.6-0.2-17.3-0.2-25.6c-0.1-8.3-0.2-15.9-0.5-22.2c-0.3-6.3-0.8-11.5-1.3-15
	C553.2,509.4,552.5,507.4,551.8,507.4L551.8,507.4z"/>
<path style="fill:none;stroke:#000000;stroke-miterlimit:10;" d="M561.2,515.3c-0.7,0.2-0.6,2.3-0.2,6c0.4,3.6,1.2,8.9,2.1,15.4
	c0.9,6.5,1.7,14.2,2.4,22.8c0.6,7.6,1.1,7.6,1.4,16.4h9.6c-0.4-9-1.1-9.5-2.2-17.3c-1.2-8.8-2.8-16.6-4.6-23.1
	c-1.7-6.5-3.6-11.6-5.2-15.1C563,516.9,561.8,515.1,561.2,515.3L561.2,515.3z"/>
<path style="fill:none;stroke:#000000;stroke-miterlimit:10;" d="M525.3,485.9c-0.3,0-0.8,0.4-1.4,1.1c-0.8,0.9-1.6,2.3-2.7,4.1
	c-1,1.9-2.1,4.2-3.2,7.1c-1.1,2.9-2,6.2-2.8,10c-0.7,3.4-1.1,7.3-1.4,11.5c-0.3,4.1-0.3,8.5,0,13.2c0.5,6.8,1.4,14.1,3,21.6
	c1.5,7.6,3.6,13.6,6.1,21.4c0.5,1.6,1-1.5,1.5,0c0.2,0.6,0.4-0.6,0.6,0h9.9c-0.5-1.5-1,1.6-1.5,0c-0.5-1.5-1,1.5-1.4,0
	c-2.4-7.7-4.5-16.4-6.2-23.4c-1.7-7.2-3-13.9-3.7-20.3c-0.5-4.3-0.9-8.4-0.9-12.2c-0.1-3.8,0.1-7.5,0.3-10.7
	c0.6-7.2,1.8-12.9,2.8-16.8c0.5-2,0.8-3.5,1-4.6c0.2-1.1,0.2-1.7-0.1-1.8C525.4,485.9,525.3,485.9,525.3,485.9L525.3,485.9z"/>
<path style="fill:none;stroke:#000000;stroke-miterlimit:10;" d="M551.8,507.4c-0.7,0-1.3,2-2,5.5c-0.7,3.5-1.3,8.6-1.9,14.9
	c-0.7,6.3-1.2,13.8-1.7,22.2c-0.5,8.4-0.8,16.2-0.6,25.9c0,0.3,0-0.3,0,0c0,1.7,0.1-1.6,0.2,0H556c-0.1-1.7-0.1,1.8-0.2,0
	c0-0.3,0,0.3,0,0c-0.2-9.6-0.2-17.3-0.2-25.6c-0.1-8.3-0.2-15.9-0.5-22.2c-0.3-6.3-0.8-11.5-1.3-15
	C553.2,509.4,552.5,507.4,551.8,507.4L551.8,507.4z"/>
<path style="fill:none;stroke:#000000;stroke-miterlimit:10;" d="M539.2,473.6c-0.3,0-0.8,0.4-1.4,1.1c-0.8,0.9-1.7,2.3-2.7,4.3
	c-1,2-2.1,4.4-3.2,7.3c-1.1,2.9-2,6.4-2.9,10.3c-0.7,3.5-1.2,7.6-1.4,11.8c-0.3,4.2-0.3,8.8,0,13.6c0.5,7,1.4,14.4,3.1,22.2
	c1.6,7.7,3.8,23.7,6.2,31.7c0.5,1.6,1.1-1.6,1.5,0c0.2,0.7,0.4-0.7,0.6,0h10.2c-0.5-1.6-1.1,1.6-1.5,0c-0.5-1.6-1-9.4-1.4-11
	c-2.4-7.9-4.6-15.6-6.3-22.9c-1.7-7.4-3.1-14.2-3.8-20.8c-0.5-4.4-0.9-8.7-1-12.6c-0.1-3.9,0.1-7.6,0.4-11
	c0.6-7.4,1.9-13.2,2.9-17.3c0.5-2,0.9-3.6,1.1-4.8c0.2-1.1,0.2-1.7-0.1-1.9C539.3,473.6,539.2,473.6,539.2,473.6L539.2,473.6z"/>
<path style="fill:none;stroke:#000000;stroke-miterlimit:10;" d="M489.5,474.3c-0.1,0-0.3,0-0.4,0.2c-0.1,0.2-0.2,0.5-0.2,0.7
	c-0.1,0.4-0.1,0.9,0,1.4c0.1,1.1,0.5,2.7,1,4.5c1,3.6,2.7,8.7,4.6,14.8c3.9,12,9.3,28.6,13.4,48.2c2,9.5,3.7,21,4.9,31.7h11.9
	c-1.2-11.7-3.3-24.1-5.9-34.2c-2.6-10-5.5-19.2-8.6-27.3c-3.1-8.1-6.2-15.2-9.1-20.9c-2.9-5.9-5.5-10.5-7.5-13.7
	c-1.1-1.6-1.8-2.9-2.5-3.7c-0.4-0.5-0.6-0.8-0.9-1.1c-0.2-0.2-0.3-0.3-0.5-0.3C489.7,474.4,489.7,474.3,489.5,474.3L489.5,474.3z"/>
<path style="fill:none;stroke:#000000;stroke-miterlimit:10;" d="M566.4,495.7c-0.8,0-1.4,2-2.1,5.6c-0.7,3.6-1.3,8.8-2,15.3
	c-0.7,6.5-1.2,14.2-1.7,22.8c-0.5,8.6-0.9,26.4-0.7,36.3c0,0.3,0-0.3,0,0c0,1.7,0.1-1.7,0.2,0h10.5c-0.1-1.8-0.1,1.8-0.2,0
	c0-0.3,0,0.3,0,0c-0.2-9.8-0.2-27.6-0.2-36.1c-0.1-8.6-0.2-16.3-0.5-22.9c-0.3-6.5-0.8-11.8-1.3-15.5S567.2,495.7,566.4,495.7
	L566.4,495.7z"/>
<path style="fill:none;stroke:#000000;stroke-miterlimit:10;" d="M576,503.9c-0.7,0.2-0.6,2.4-0.2,6.2c0.5,3.8,1.2,9.2,2.1,15.8
	c0.9,6.6,1.7,14.5,2.5,23.4c0.7,7.7,1.1,17.7,1.4,26.6h9.8c-0.4-9.3-1.1-19.5-2.3-27.6c-1.2-9.1-2.9-17.1-4.7-23.8
	c-1.8-6.7-3.7-12-5.3-15.5C578,505.5,576.7,503.7,576,503.9L576,503.9z"/>
<path style="fill:none;stroke:#000000;stroke-miterlimit:10;" d="M548.7,495.8c0.1,0,0.2,0,0.3,0.2c0.1,0.1,0.1,0.4,0.2,0.6
	c0,0.3,0.1,0.8,0,1.2c-0.1,1-0.4,2.3-0.9,3.9c-0.9,3.2-2.3,7.5-4,12.7c-3.3,10.4-8,24.7-11.6,41.5c-1.7,8.2-3.2,10.7-4.2,19.9h-10.2
	c1.1-10,2.9-13.3,5.2-22.1c2.2-8.7,4.8-16.5,7.5-23.6c2.7-7,5.4-13.1,7.8-18.1c2.5-5.1,4.8-9,6.5-11.8c0.9-1.4,1.6-2.5,2.2-3.3
	c0.3-0.4,0.6-0.7,0.8-0.9C548.3,496,548.5,496,548.7,495.8C548.6,495.9,548.6,495.8,548.7,495.8L548.7,495.8z"/>
<path style="fill:none;stroke:#000000;stroke-miterlimit:10;" d="M592.2,507.8c0.6,0.2,0.4,2.4-0.4,6.1c-0.7,3.8-1.9,9.2-3.3,16
	c-1.4,6.7-3,14.6-4.2,23.5c-1.1,7.5-1.7,14-1.8,22.5h-8.4c0.2-9,1.2-16,2.7-23.7c1.7-9.2,3.9-17.2,6-23.9c2.2-6.6,4.3-11.9,5.9-15.4
	C590.5,509.5,591.6,507.6,592.2,507.8L592.2,507.8z"/>
<path style="fill:none;stroke:#000000;stroke-miterlimit:10;" d="M507.5,506.6c-0.7,0-1.2,1.7-1.8,4.9c-0.6,3.2-1.1,7.7-1.7,13.2
	c-0.6,5.5-1.1,12.2-1.5,19.6c-0.4,7.5-0.7,22.9-0.6,31.6c0,0.3,0-0.3,0,0c0,1.5,0.1-1.4,0.1,0h9.1c0-1.5-0.1,1.5-0.1,0
	c0-0.3,0,0.3,0,0c-0.2-8.4-0.2-24-0.2-31.4c0-7.4-0.1-14.1-0.4-19.7c-0.3-5.6-0.7-10.1-1.1-13.3S508.2,506.6,507.5,506.6
	L507.5,506.6z"/>
<path style="fill:none;stroke:#000000;stroke-miterlimit:10;" d="M238.2,548.1c-0.5,1.8-1.1,3.7-1.5,5.6c-0.4,1.5-0.8,3.1-1.1,4.7
	c-0.8,3.3-1.4,14.1-2,17.4c-1.3-4.7-2.5-16.8-3.4-21.4c-1.5-7.5-2.6-14.7-3-21.6c-0.2-2.9-0.3-5.7-0.2-8.5l0,0
	c0-1.6,0.1-3.2,0.2-4.7c0.3-4.1,0.8-7.9,1.4-11.5c0.8-3.8,1.7-7.2,2.8-10c1.1-2.9,2.1-5.3,3.2-7.1c1-1.9,1.9-3.3,2.7-4.1
	c0.7-0.8,1.1-1.1,1.4-1.1h0.1c0.3,0.1,0.3,0.8,0.1,1.8c-0.2,1.1-0.5,2.7-1,4.6c-1,3.9-2.2,9.7-2.8,16.8c-0.3,3.3-0.4,6.9-0.3,10.7
	s0.4,7.9,0.9,12.3C236,537.2,237,542.6,238.2,548.1z"/>
<path style="fill:none;stroke:#000000;stroke-miterlimit:10;" d="M248.2,575.9h-9.9c-0.2-0.6-0.4,0.7-0.6,0l0,0h4.1
	c0.5-4.6,1.1,4.3,1.8,0c0.6,1.9,1.1-2,1.7,0c0.5,1.5,1-1.5,1.4,0C247.3,577.5,247.8,574.3,248.2,575.9z"/>
<path style="fill:none;stroke:#000000;stroke-miterlimit:10;" d="M190.1,486.6c-0.1,0-0.3,0-0.4,0.2c-0.1,0.2-0.2,0.5-0.2,0.7
	c-0.1,0.4-0.1,0.9,0,1.4c0.1,1.1,0.5,2.6,1,4.4c1,3.5,2.6,8.4,4.5,14.4c3.8,11.8,9,27.9,13.1,47c2,9.3,3.6,11,4.7,21.3h11.6
	c-1.2-11.4-3.3-14-5.8-23.8c-2.5-9.8-5.4-18.7-8.4-26.7c-3-7.9-6-14.7-8.8-20.4c-2.9-5.7-5.4-10.2-7.3-13.3c-1-1.6-1.8-2.8-2.4-3.6
	c-0.3-0.5-0.6-0.8-0.9-1c-0.2-0.2-0.3-0.3-0.4-0.3C190.2,486.7,190.2,486.6,190.1,486.6L190.1,486.6z"/>
<path style="fill:none;stroke:#000000;stroke-miterlimit:10;" d="M169.1,505.5c-0.6,0.2-0.4,2.7,0.4,7c0.8,4.3,2.1,10.4,3.7,18
	c1.5,7.6,3.3,16.5,4.7,26.6c1.1,8.4,2,9.3,2.1,18.8h9.5c-0.3-10.1-1.4-11.6-3.1-20.3c-1.9-10.3-4.4-19.4-6.9-27
	c-2.5-7.5-4.8-13.4-6.7-17.4C171,507.3,169.6,505.3,169.1,505.5L169.1,505.5z"/>
<path style="fill:none;stroke:#000000;stroke-miterlimit:10;" d="M264.9,507.4c-0.7,0-1.3,2-2,5.5c-0.7,3.5-1.3,8.6-1.9,14.9
	c-0.7,6.3-1.2,13.8-1.7,22.2c-0.5,8.4-0.8,16.2-0.6,25.9c0,0.3,0-0.3,0,0c0,1.7,0.1-1.6,0.2,0h10.2c-0.1-1.7-0.1,1.8-0.2,0
	c0-0.3,0,0.3,0,0c-0.2-9.6-0.2-17.3-0.2-25.6c-0.1-8.3-0.2-15.9-0.5-22.2c-0.3-6.3-0.8-11.5-1.3-15
	C266.3,509.4,265.6,507.4,264.9,507.4L264.9,507.4z"/>
<path style="fill:none;stroke:#000000;stroke-miterlimit:10;" d="M275.6,516.3c0,0.1,0,0.3,0,0.5c-0.3,2.7-0.6,5.6-0.8,8.8
	c-0.2-1.5-0.4-3-0.6-4.2c-0.5-3.6-0.5-5.8,0.2-6C274.6,515.2,275,515.5,275.6,516.3z"/>
<path style="fill:none;stroke:#000000;stroke-miterlimit:10;" d="M289.6,575.9L289.6,575.9h-9.6l0,0c-0.2-3.5-0.3,3.3-0.5,0
	c0-0.8-0.1,0.8-0.1,0h4.3c0-1.1-0.1,1.1-0.1,0c0-0.3,0,0.3,0,0c-0.2-9.8-0.2-27.5-0.2-36.1c0-0.8,0-1.4,0-2.2c1.5,6,2.9,13.2,4,21
	c0.6,4.2,1.1,12.8,1.4,17.3C289.2,579.9,289.5,571.7,289.6,575.9z"/>
<path style="fill:none;stroke:#000000;stroke-miterlimit:10;" d="M7.9,575.9C8,574.1,8,577.8,7.9,575.9c0-1.3-0.1,1.3-0.2,0
	c-0.3-8.3-1.2-18.6-3-25.9c-1.7-7.4-4.1-14-7-19.8c-2.7-5.4-5.7-10-8.9-13.9c-3.2-3.8-6.2-6.9-9-9.3c-6.3-4.2-9.8-7.1-9.6-7.8
	c0.4-0.8,4.7,0.6,12,3.7c3.4,2,7.3,4.9,11.3,8.7c3.9,3.8,7.8,8.8,11.3,14.6c3.6,6.2,6.6,13.5,8.7,21.4c2.1,7.9,3.3,19.2,3.7,28.1
	c0.1,1.4,0.1-1.4,0.1,0c0,1.9,0-1.9-0.1,0L7.9,575.9L7.9,575.9z"/>
<path style="fill:none;stroke:#000000;stroke-miterlimit:10;" d="M39.1,575.9c0.2-1.8,0.4,1.9,0.6,0c1.1-11.2,1.3-20.2,1.1-30.4
	c-0.3-12-1.5-23.1-3.1-33.2c-1.6-9.9-3.5-18.6-5.5-25.9c-1.8-7.3-3.5-13-4.5-17c-1.1-4-1.4-6.3-0.8-6.7c0.7-0.3,2.3,1.4,4.5,5.1
	s5.2,9.1,8.1,16.3s5.9,16.1,8.3,26.3c2.5,10.3,4.3,22,5.1,34.6c0.7,10.8,0.5,19.2-0.6,30.9c-0.1,1.5-0.3-1.5-0.5,0L39.1,575.9
	L39.1,575.9z"/>
<path style="fill:none;stroke:#000000;stroke-miterlimit:10;" d="M108.1,575.9c0.1-1.4,0.1,1.4,0.2,0c0-0.1,0,0.1,0,0
	c0.4-12,0.6-20.7,0.9-31.2c0.2-10.5,0.5-20.1,1-28c0.4-8,1-14.4,1.6-18.9c0.7-4.5,1.4-7,2.2-7c0.8,0,1.5,2.5,2.3,6.9
	c0.7,4.5,1.3,10.9,2,18.8s1.1,17.5,1.5,28.1c0.4,10.6,0.5,19,0.1,31.3c0,0.2,0-0.2,0,0c0,1.3-0.1-1.2-0.2,0L108.1,575.9L108.1,575.9
	z"/>
<path style="fill:none;stroke:#000000;stroke-miterlimit:10;" d="M238.2,548.1c-0.5,1.8-1.1,3.7-1.5,5.6c-0.4,1.5-0.8,3.1-1.1,4.7
	c-0.8,3.3-1.4,14.1-2,17.4c-1.3-4.7-2.5-16.8-3.4-21.4c-1.5-7.5-2.6-14.7-3-21.6c-0.2-2.9-0.3-5.7-0.2-8.5l0,0
	c0-1.6,0.1-3.2,0.2-4.7c0.3-4.1,0.8-7.9,1.4-11.5c0.8-3.8,1.7-7.2,2.8-10c1.1-2.9,2.1-5.3,3.2-7.1c1-1.9,1.9-3.3,2.7-4.1
	c0.7-0.8,1.1-1.1,1.4-1.1h0.1c0.3,0.1,0.3,0.8,0.1,1.8c-0.2,1.1-0.5,2.7-1,4.6c-1,3.9-2.2,9.7-2.8,16.8c-0.3,3.3-0.4,6.9-0.3,10.7
	s0.4,7.9,0.9,12.3C236,537.2,237,542.6,238.2,548.1z"/>
<path style="fill:none;stroke:#000000;stroke-miterlimit:10;" d="M248.2,575.9h-9.9c-0.2-0.6-0.4,0.7-0.6,0l0,0h4.1
	c0.5-4.6,1.1,4.3,1.8,0c0.6,1.9,1.1-2,1.7,0c0.5,1.5,1-1.5,1.4,0C247.3,577.5,247.8,574.3,248.2,575.9z"/>
<path style="fill:none;stroke:#000000;stroke-miterlimit:10;" d="M190.1,486.6c-0.1,0-0.3,0-0.4,0.2c-0.1,0.2-0.2,0.5-0.2,0.7
	c-0.1,0.4-0.1,0.9,0,1.4c0.1,1.1,0.5,2.6,1,4.4c1,3.5,2.6,8.4,4.5,14.4c3.8,11.8,9,27.9,13.1,47c2,9.3,3.6,11,4.7,21.3h11.6
	c-1.2-11.4-3.3-14-5.8-23.8c-2.5-9.8-5.4-18.7-8.4-26.7c-3-7.9-6-14.7-8.8-20.4c-2.9-5.7-5.4-10.2-7.3-13.3c-1-1.6-1.8-2.8-2.4-3.6
	c-0.3-0.5-0.6-0.8-0.9-1c-0.2-0.2-0.3-0.3-0.4-0.3C190.2,486.7,190.2,486.6,190.1,486.6L190.1,486.6z"/>
<path style="fill:none;stroke:#000000;stroke-miterlimit:10;" d="M169.1,505.5c-0.6,0.2-0.4,2.7,0.4,7c0.8,4.3,2.1,10.4,3.7,18
	c1.5,7.6,3.3,16.5,4.7,26.6c1.1,8.4,2,9.3,2.1,18.8h9.5c-0.3-10.1-1.4-11.6-3.1-20.3c-1.9-10.3-4.4-19.4-6.9-27
	c-2.5-7.5-4.8-13.4-6.7-17.4C171,507.3,169.6,505.3,169.1,505.5L169.1,505.5z"/>
<path style="fill:none;stroke:#000000;stroke-miterlimit:10;" d="M264.9,507.4c-0.7,0-1.3,2-2,5.5c-0.7,3.5-1.3,8.6-1.9,14.9
	c-0.7,6.3-1.2,13.8-1.7,22.2c-0.5,8.4-0.8,16.2-0.6,25.9c0,0.3,0-0.3,0,0c0,1.7,0.1-1.6,0.2,0h10.2c-0.1-1.7-0.1,1.8-0.2,0
	c0-0.3,0,0.3,0,0c-0.2-9.6-0.2-17.3-0.2-25.6c-0.1-8.3-0.2-15.9-0.5-22.2c-0.3-6.3-0.8-11.5-1.3-15
	C266.3,509.4,265.6,507.4,264.9,507.4L264.9,507.4z"/>
<path style="fill:none;stroke:#000000;stroke-miterlimit:10;" d="M275.6,516.3c0,0.1,0,0.3,0,0.5c-0.3,2.7-0.6,5.6-0.8,8.8
	c-0.2-1.5-0.4-3-0.6-4.2c-0.5-3.6-0.5-5.8,0.2-6C274.6,515.2,275,515.5,275.6,516.3z"/>
<path style="fill:none;stroke:#000000;stroke-miterlimit:10;" d="M289.6,575.9L289.6,575.9h-9.6l0,0c-0.2-3.5-0.3,3.3-0.5,0
	c0-0.8-0.1,0.8-0.1,0h4.3c0-1.1-0.1,1.1-0.1,0c0-0.3,0,0.3,0,0c-0.2-9.8-0.2-27.5-0.2-36.1c0-0.8,0-1.4,0-2.2c1.5,6,2.9,13.2,4,21
	c0.6,4.2,1.1,12.8,1.4,17.3C289.2,579.9,289.5,571.7,289.6,575.9z"/>
<path style="fill:none;stroke:#000000;stroke-miterlimit:10;" d="M15.7,575.9C15.7,574,15.7,577.9,15.7,575.9c0-1.3-0.1-10.7-0.2-12
	c-0.4-8.6-1.4-16.8-3.2-24.3s-4.2-14.3-7.2-20.4c-2.7-5.5-5.8-10.3-9-14.2s-6.4-7.1-9.3-9.5c-6.4-4.3-10.1-7.3-9.8-8
	c0.4-0.9,4.8,0.6,12.4,3.8c3.5,2,7.6,5,11.6,9c4,4,8,9,11.6,15c3.7,6.4,6.8,13.9,9,22s3.4,17,3.8,26.2c0.1,1.5,0.1,11,0.1,12.4
	c0,2,0-2-0.1,0H15.7L15.7,575.9z"/>
<path style="fill:none;stroke:#000000;stroke-miterlimit:10;" d="M62.3,552.2L62.3,552.2L62.3,552.2c-2.1,6.5-4.3,17.3-6.7,23.7h5.5
	c-0.1,0.8-0.2-0.8-0.2,0H47.7c0.1-0.8,0.2,0.8,0.3,0c0.1-1.2,0.3,1.2,0.4,0c1.1-11.5,1.3-30.5,1.1-41c-0.3-10-1.1-19.6-2.4-28.3
	c-0.3-1.9-0.6-3.9-0.9-5.7c-1.6-10.2-3.6-19.2-5.5-26.7c-1.9-7.5-3.6-13.4-4.7-17.5c-1.1-4.1-1.4-6.5-0.8-6.8
	c0.7-0.3,2.4,1.4,4.7,5.2s5.3,9.4,8.3,16.7c3.1,7.4,6.1,16.4,8.6,27.1c2.5,10.6,4.4,22.6,5.2,35.6C62.3,540.1,62.3,546.1,62.3,552.2
	z"/>
<path style="fill:none;stroke:#000000;stroke-miterlimit:10;" d="M101.3,509.1c-0.1,3.2-0.3,6.6-0.9,10.2c-0.5,3.6-1.2,7.6-2.1,11.8
	c-1.5,7-3.6,14.6-6,22.6c-1.7,5.7-3.7,16.1-5.7,22.2c-0.2,0.8-0.5-0.8-0.7,0H75.5c0.1-0.2,0.2,0.2,0.2,0c0.2-0.5,0.3,0.5,0.5,0
	c2.4-7.3,4.9-18.5,7.1-25.1c0.5-1.3,0.9-2.6,1.3-3.9c2.2-6.3,4.1-12.2,5.7-17.8c1.1-3.9,2.2-7.6,3-11s1.4-6.6,1.9-9.5s0.8-5.5,1-7.7
	c0.2-2.3,0.3-4.2,0.4-5.8c0.1-1.6,0.1-2.9,0.2-3.7c0.1-0.9,0.3-1.3,0.5-1.4c0.3-0.1,0.7,0.3,1.1,1.1c0.4,0.8,1,2,1.3,3.7
	c0.5,1.6,0.9,3.6,1.1,6.1C101.2,503.3,101.4,506.1,101.3,509.1z"/>
<g>
	<path style="fill:none;stroke:#000000;stroke-miterlimit:10;" d="M118.5,575.9c0.1-1.4,0.1,1.4,0.2,0c0-0.2,0,0.2,0,0
		c0.4-12.3,0.6-31,0.9-41.8c0.2-10.8,0.6-20.6,1-28.8s1-14.8,1.6-19.4c0.7-4.6,1.4-7.2,2.3-7.2s1.6,2.5,2.3,7.1
		c0.8,4.6,1.4,11.2,2.1,19.4c0.7,8.2,1.2,18,1.6,28.9c0.4,10.9,0.5,29.3,0.1,41.9c0,0.2,0-0.2,0,0c0,1.3-0.1-1.3-0.2,0L118.5,575.9
		L118.5,575.9z"/>
	<path style="fill:none;stroke:#000000;stroke-miterlimit:10;" d="M149.4,575.9c0.3-6.2,0.8-14.2,1.6-19.6c1-6.6,2.4-12.4,3.9-17.2
		c1.5-4.8,3.3-8.5,4.6-11c1.3-2.5,2.5-3.6,3-3.4c0.5,0.2,0.4,1.8-0.1,4.5c-0.5,2.7-1.2,6.5-2,11.3c-0.8,4.8-1.5,10.4-2,16.7
		c-0.4,5.2-0.7,12.9-0.9,18.7H149.4L149.4,575.9z"/>
</g>
<path style="fill:none;stroke:#000000;stroke-miterlimit:10;" d="M248.9,518.3c-1.6,3.6-3.3,7.6-4.9,12c-0.7,1.6-1.2,3.3-1.8,5.2
	c-0.8-4.6-1.2-9.1-1.5-13.4c-0.3-4.8-0.3-9.3,0-13.5c0.3-4.2,0.8-8.1,1.4-11.8c0.8-3.9,1.7-7.4,2.9-10.3c1.1-3,2.2-5.4,3.2-7.3
	c1.1-1.9,1.9-3.3,2.7-4.3c0.7-0.8,1.1-1.1,1.4-1.1h0.1c0.3,0.1,0.3,0.8,0.1,1.9c-0.2,1.1-0.6,2.7-1.1,4.8c-1,4.1-2.3,9.9-2.9,17.3
	c-0.3,3.3-0.4,7.1-0.4,11C248.4,511.7,248.6,515,248.9,518.3z"/>
<path style="fill:none;stroke:#000000;stroke-miterlimit:10;" d="M262.5,575.9h-10.2c-0.2-0.7-0.4,0.7-0.6,0c-0.5-1.6-1.1,1.6-1.5,0
	c-1.3-4.5-2.7-16.9-3.8-21.3c1.6-7.3,3.3-14.2,5.2-20.3c0.5,2.6,1.1,5.2,1.7,7.7c1.5,6.6,3.5,13.5,5.6,20.6c0.2,0.8,0.5,1.5,0.7,2.3
	c0.5,1.6,1,9.4,1.4,11C261.4,577.5,261.9,574.2,262.5,575.9z"/>
<path style="fill:none;stroke:#000000;stroke-miterlimit:10;" d="M235.5,558.5c-0.8,3.3-1.4,14.1-2,17.4c-0.4,2-0.7-2.1-1,0h-6.5
	c-0.2-1.6-0.4,1.6-0.6,0c-1.1-8.9-2.6-23.7-4.3-31.7c-4.1-19.5-9.5-36.1-13.4-48.2c-2-6.1-3.6-11.1-4.7-14.8c-0.5-1.8-0.9-3.3-1-4.5
	c-0.1-0.6,0-1.1,0-1.4c0-0.2,0.1-0.6,0.2-0.7c0.1-0.2,0.3-0.2,0.4-0.2c0.1,0,0.2,0.1,0.3,0.2c0.1,0.1,0.3,0.1,0.5,0.4
	s0.5,0.6,0.9,1.1c0.7,0.9,1.5,2.1,2.5,3.7c2,3.2,4.6,7.7,7.5,13.7c2.9,5.8,6,12.8,9.1,20.9c1.2,3.3,2.4,6.6,3.6,10.1l0,0
	c1.8,5.4,3.4,11.1,5,17.2C233.2,547,234.5,552.6,235.5,558.5z"/>
<path style="fill:none;stroke:#000000;stroke-miterlimit:10;" d="M181.1,493.8c-0.7,0.2-0.4,2.8,0.4,7.2c0.8,4.4,2.2,10.7,3.8,18.5
	c1.6,7.7,3.4,17,4.9,27.3c1.1,8.6,2,19.3,2.1,29.2h9.8c-0.3-10.4-1.4-21.6-3.1-30.6c-1.9-10.6-4.5-20-7-27.6
	c-2.5-7.7-5-13.8-6.9-17.8C183.1,495.7,181.7,493.6,181.1,493.8L181.1,493.8z"/>
<path style="fill:none;stroke:#000000;stroke-miterlimit:10;" d="M280.6,511.7c-1.3-1.3-2.8-2.6-4.1-3.6c0.3-2.6,0.7-4.8,1-6.6
	c0.2-0.8,0.3-1.5,0.5-2.2c1.3,1.3,2.7,2.7,3.9,4.3c0.4,2.9,0.7,6.3,1,10.5C282.1,513.2,281.3,512.4,280.6,511.7z"/>
<path style="fill:none;stroke:#000000;stroke-miterlimit:10;" d="M283.8,575.9h-4.3c-0.3-4.2-0.5-12.5-0.8-16.4
	c-0.7-8.6-1.5-16.4-2.4-22.8c-0.6-4.3-1.1-8.1-1.5-11.2l0,0c0.3-3.2,0.5-6,0.8-8.8c0-0.2,0-0.3,0-0.5c0-0.1,0-0.2,0-0.3
	c0.1,0.1,0.2,0.2,0.2,0.3c2.6,3.3,5.2,7,7.5,11.3c0.1,3.2,0.1,6.5,0.1,9.9l0,0c0,0.8,0,1.4,0,2.2c0,8.6,0,26.4,0.2,36.1
	c0,0.3,0-0.3,0,0C283.7,577,283.7,574.8,283.8,575.9z"/>
<path style="fill:none;stroke:#000000;stroke-miterlimit:10;" d="M283.8,575.9h-10.5c0-0.8-0.1,0.8-0.1,0c0-1-0.1,1-0.1,0
	c0-0.3,0,0.3,0,0c-0.2-10,0.2-27.7,0.7-36.3c0.3-5,0.6-9.7,1-14c0.5,3.2,1,6.9,1.5,11.2c0.9,6.5,1.7,14.2,2.4,22.8
	c0.3,3.8,0.6,12.1,0.8,16.4H283.8C283.8,576.6,283.8,575.2,283.8,575.9z"/>
<path style="fill:none;stroke:#000000;stroke-miterlimit:10;" d="M299.3,539.5c0.8,3.5,1.4,7.2,1.9,11c-0.2-0.9-0.5-1.8-0.7-2.7
	c-2.1-7.9-5.2-15.2-8.7-21.4c-0.3-0.4-0.5-0.9-0.8-1.2c-0.5-4-1.1-7.6-1.4-10.5c0.9,1.4,1.6,3,2.4,4.6
	C295.1,525.1,297.5,532,299.3,539.5z"/>
<path style="fill:none;stroke:#000000;stroke-miterlimit:10;" d="M304.9,575.9h-9.8c0-1-0.1,1-0.1,0h7.6c0-1.2,0,1.2,0,0
	c0-1.3-0.1-10.6-0.2-12c-0.2-4.6-0.6-9.1-1.1-13.4c1.6,6.7,2.6,18.1,3,25.4h0.6C304.9,576.6,304.9,575.2,304.9,575.9
	C304.9,576.2,304.9,575.7,304.9,575.9z"/>
<path style="fill:none;stroke:#000000;stroke-miterlimit:10;" d="M34.9,575.9C34.9,574.2,34.9,577.6,34.9,575.9
	C34.9,574.7,34.8,577.1,34.9,575.9c-0.4-7.4-1.3-22.2-2.8-28.7c-1.5-6.5-3.6-12.4-6.2-17.5c-2.4-4.8-5.1-8.9-7.8-12.3
	c-2.8-3.4-5.5-6.1-8-8.1c-5.5-3.7-8.7-6.2-8.4-7c0.3-0.7,4.1,0.5,10.7,3.3c3.1,1.7,6.5,4.3,9.9,7.7s7,7.7,9.9,13
	c3.2,5.5,5.8,12,7.7,19c1.9,7.1,3,22.8,3.3,30.7c0.1,1.2,0.1-1.2,0.1,0c0,1.7,0-1.7-0.1,0h-8.4V575.9z"/>
<path style="fill:none;stroke:#000000;stroke-miterlimit:10;" d="M76.2,535.2c-0.5,2-1.1,4-1.6,6.1c-2.7,10.2-5.7,24.6-9.1,34.6
	h-9.9c2.4-6.4,4.6-17.1,6.7-23.7l0,0l0,0c0.6-1.8,1.1-3.6,1.7-5.5c2.9-9.2,5.5-18.5,7.7-27.8c1.5-6.2,3-12.4,4.3-18.6
	C76.6,511.9,76.7,523.6,76.2,535.2z"/>
<path style="fill:none;stroke:#000000;stroke-miterlimit:10;" d="M63.9,543.3c-0.3-10.6-1.3-20.6-2.8-29.4c-1.4-8.8-3.2-16.5-4.8-23
	s-3.2-11.5-4-15.1c-1-3.5-1.2-5.6-0.7-5.9c0.6-0.3,2,1.2,4,4.4c2,3.2,4.6,8,7.2,14.3c2.6,6.3,5.3,14.2,7.5,23.3
	c0.6,2.2,1.1,4.5,1.5,6.9c-2.3,9.4-4.9,18.6-7.7,27.8C64,545.6,64,544.4,63.9,543.3z"/>
<path style="fill:none;stroke:#000000;stroke-miterlimit:10;" d="M75.1,555.2c0,5.4-0.3,15.1-0.8,20.7c0,0.4-0.1-0.4-0.1,0
	c0,0.1,0-0.1,0,0c-0.1,1.2-0.3-1.2-0.4,0H62.4c0.2-1.6,0.4,1.7,0.5,0c0-0.1,0,0.1,0,0h2.6c3.3-10,6.4-24.4,9.1-34.6
	c0,0.5,0.1,1,0.1,1.4C75,546.8,75.1,551,75.1,555.2z"/>
<path style="fill:none;stroke:#000000;stroke-miterlimit:10;" d="M86.5,575.9c2.3-7,4.6-12.7,6.8-18.9c2.3-6.7,4.4-13,6.1-18.7
	c1-3.3,1.8-6.5,2.6-9.5c0.7-3,1.2-5.6,1.6-8.1c0.4-2.5,0.7-4.7,0.9-6.7c0.2-1.9,0.3-3.6,0.3-5c0.1-1.3,0.1-2.5,0.2-3.3
	c0.1-0.8,0.2-1.1,0.5-1.2c0.2-0.1,0.6,0.3,1,1c0.4,0.7,0.8,1.7,1.1,3.2c0.4,1.4,0.8,3.2,1,5.3c0.2,2.1,0.3,4.5,0.3,7.2
	c-0.1,2.7-0.3,5.6-0.7,8.8c-0.4,3.2-1.1,6.6-1.8,10.1c-1.3,6-3.2,12.5-5.2,19.4c-1.7,5.5-3.6,10.5-5.5,16.4L86.5,575.9L86.5,575.9z"
	/>
<path style="fill:none;stroke:#000000;stroke-miterlimit:10;" d="M123.5,575.9c0.1-1.2,0.1,1.2,0.2,0c0-0.1,0,0.1,0,0
	c0.4-10.7,0.6-24.1,0.8-33.4s0.5-17.8,0.9-24.9s0.9-12.8,1.4-16.7c0.6-3.9,1.2-6.1,2-6.1c0.8,0,1.3,2.2,2,6.1
	c0.7,3.9,1.2,9.7,1.8,16.7c0.6,7.1,1.1,15.5,1.3,24.9c0.3,9.4,0.4,22.6,0.1,33.5c0,0.1,0-0.1,0,0c0,1.1-0.1-1.1-0.2,0L123.5,575.9
	L123.5,575.9z"/>
<path style="fill:none;stroke:#000000;stroke-miterlimit:10;" d="M196,491.1c-0.1,0-0.2,0-0.3,0.2c-0.1,0.1-0.1,0.4-0.2,0.6
	c0,0.3-0.1,0.8,0,1.2c0.1,1,0.4,2.3,0.9,3.9c0.9,3.2,2.3,7.5,4,12.7c3.3,10.4,8,24.7,11.6,41.5c1.7,8.2,3.2,15.5,4.2,24.7h10.2
	c-1.1-10-2.9-18.1-5.2-26.9c-2.2-8.7-4.8-16.5-7.5-23.6c-2.7-7-5.4-13.1-7.8-18.1c-2.5-5.1-4.8-9-6.5-11.8c-0.9-1.4-1.6-2.5-2.2-3.3
	c-0.3-0.4-0.6-0.7-0.8-0.9C196.4,491.2,196.2,491.2,196,491.1C196.2,491.1,196.1,491.1,196,491.1L196,491.1z"/>
<path style="fill:none;stroke:#000000;stroke-miterlimit:10;" d="M177.5,507.8c-0.6,0.2-0.4,2.4,0.4,6.1c0.7,3.8,1.9,9.2,3.3,16
	c1.4,6.7,3,14.6,4.2,23.5c1.1,7.5,1.7,14,1.8,22.5h8.4c-0.2-9-1.2-16-2.7-23.7c-1.7-9.2-3.9-17.2-6-23.9c-2.2-6.6-4.3-11.9-5.9-15.4
	C179.2,509.5,178,507.6,177.5,507.8L177.5,507.8z"/>
<path style="fill:none;stroke:#000000;stroke-miterlimit:10;" d="M171.6,575.9c-0.2-1.6-0.4,1.6-0.6,0c-0.9-9.9-1.1-23.6-1-32.7
	c0.3-10.6,1.3-20.6,2.8-29.4c1.4-8.8,3.2-16.5,4.8-23c1.6-6.4,3.2-11.5,4-15.1c1-3.5,1.2-5.6,0.7-5.9c-0.6-0.3-2,1.2-4,4.4
	c-2,3.2-4.6,8-7.2,14.3c-2.6,6.3-5.3,14.2-7.4,23.3c-2.2,9.1-3.8,19.5-4.5,30.7c-0.6,9.6-0.5,22.8,0.5,33.1c0.1,1.3,0.3-1.3,0.4,0
	h11.5V575.9z"/>
<path style="fill:none;stroke:#000000;stroke-miterlimit:10;" d="M137.8,490.5c0.3,0,0.7,0.3,1.2,1.1c0.7,0.8,1.4,2,2.3,3.6
	c0.9,1.6,1.8,3.7,2.8,6.3s1.8,5.5,2.4,8.9c0.6,3.1,1.1,6.5,1.2,10.1c0.2,3.6,0.2,7.6,0,11.7c-0.4,6-1.2,12.4-2.7,19.1
	c-1.3,6.6-3.3,17.8-5.4,24.7c-0.5,1.4-0.9-1.3-1.3,0c-0.2,0.6-0.4-0.6-0.6,0h-8.7c0.5-1.4,0.9,1.4,1.3,0c0.4-1.3,0.9,1.4,1.2,0
	c2.1-6.8,4-20.2,5.5-26.5c1.5-6.3,2.6-12.3,3.3-18c0.5-3.8,0.8-7.5,0.8-10.9c0.1-3.4-0.1-6.6-0.3-9.5c-0.5-6.3-1.6-11.4-2.5-14.9
	c-0.4-1.7-0.8-3.2-0.9-4.1c-0.2-1-0.1-1.5,0.1-1.6C137.7,490.5,137.7,490.5,137.8,490.5L137.8,490.5z"/>
<path style="fill:none;stroke:#000000;stroke-miterlimit:10;" d="M261.2,503.1c-0.9,3-2.1,6.9-3.6,11.4c-1.8,5.5-3.9,12.2-6.1,19.8
	c-1.7,6.2-3.5,13-5.2,20.3c-0.1,0.5-0.2,1-0.3,1.4c-0.9,4.1-1.7,15.5-2.4,19.9c-0.7,4.3-1.3-4.6-1.8,0h-10.2c0.3-2.6,0.6,2.5,1,0
	c0.3-2.1,0.7,2,1,0c0.6-3.4,1.2-14.2,2-17.4c0.4-1.5,0.8-3.2,1.1-4.7c0.5-1.9,1-3.8,1.5-5.6c1.2-4.5,2.7-8.8,4-12.8
	c0.6-1.7,1.2-3.4,1.8-5.2c1.6-4.3,3.3-8.3,4.9-12c1-2.2,2-4.3,2.9-6.2c2.4-5,4.6-8.8,6.3-11.6C258.9,501.3,259.8,502.1,261.2,503.1z
	"/>
<path style="fill:none;stroke:#000000;stroke-miterlimit:10;" d="M262.3,497.8c-0.1,0.6-0.2,1.3-0.4,2.2c-0.1,0.6-0.3,1.1-0.5,1.7
	c-0.1,0.4-0.3,0.9-0.4,1.3c-1.3-1-2.3-1.8-3-2.5c0-0.1,0.1-0.2,0.2-0.3c0.3-0.5,0.6-0.9,0.8-1.2c0.6-0.8,1-1.4,1.3-2
	c0.3-0.4,0.6-0.7,0.8-0.9c0.1-0.2,0.3-0.2,0.4-0.3c0.1-0.1,0.2-0.1,0.3-0.2c0.1,0,0.2,0,0.3,0.2c0.1,0.1,0.1,0.4,0.2,0.6
	C262.4,496.9,262.4,497.4,262.3,497.8z"/>
<path style="fill:none;stroke:#000000;stroke-miterlimit:10;" d="M156.6,512.7c0.6,0.2,0.5,2.1,0.1,5.4s-1.1,7.9-1.8,13.6
	c-0.8,5.7-1.5,12.5-2.1,20.2c-0.6,6.7-1,16.4-1.2,24.1h-8.5c0.4-8,1-18,1.9-25c1.1-7.8,2.5-14.7,4-20.5c1.5-5.7,3.2-10.3,4.6-13.3
	C155,514.1,156.1,512.5,156.6,512.7L156.6,512.7z"/>
<path style="fill:none;stroke:#000000;stroke-miterlimit:10;" d="M304.4,575.9C304.4,577.9,304.4,574,304.4,575.9h-9.6
	c0-1.9,0,1.9,0,0c0-1.3-0.1,1.3-0.2,0c0-0.7-0.1,0.7-0.1,0h7.9c0-1.2,0,1.2,0,0c0-1.3-0.1-10.6-0.2-12c-0.2-4.6-0.6-9.1-1.1-13.4
	c1.6,6.7,2.6,18.1,3,25.4C304.3,576.4,304.3,575.3,304.4,575.9C304.3,576.1,304.3,575.7,304.4,575.9
	C304.3,576.2,304.4,575.7,304.4,575.9C304.4,576.9,304.4,574.8,304.4,575.9z"/>
<path style="fill:none;stroke:#000000;stroke-miterlimit:10;" d="M326,575.9c0.2-1.8,0.4,1.9,0.6,0c1.1-11.2,1.3-20.2,1.1-30.4
	c-0.3-12-1.5-23.1-3.1-33.2c-1.6-9.9-3.5-18.6-5.5-25.9c-1.8-7.3-3.5-13-4.5-17c-1.1-4-1.4-6.3-0.8-6.7c0.7-0.3,2.3,1.4,4.5,5
	c2.2,3.5,5.2,9.1,8.1,16.3s5.9,16.1,8.3,26.3s4.3,22,5.1,34.6c0.7,10.8,0.5,19.2-0.6,30.9c-0.1,1.5-0.3-1.5-0.5,0H326V575.9z"/>
<path style="fill:none;stroke:#000000;stroke-miterlimit:10;" d="M353.1,575.9c2.6-7.8,5.2-7.8,7.6-14.9c2.6-7.6,5-14.6,6.9-21.1
	c1.1-3.8,2.1-7.4,2.9-10.7s1.4-6.4,1.8-9.3c0.5-2.8,0.8-5.4,1-7.6c0.2-2.2,0.3-4.1,0.3-5.6c0.1-1.5,0.1-2.8,0.2-3.6
	c0.1-0.9,0.3-1.3,0.5-1.3c0.3-0.1,0.7,0.3,1.1,1.1c0.4,0.8,0.9,2,1.3,3.6s0.9,3.5,1.1,5.9c0.2,2.4,0.4,5.1,0.3,8.1s-0.3,6.4-0.8,9.9
	s-1.1,7.5-2.1,11.4c-1.5,6.8-3.5,14.2-5.9,22c-1.9,6.3-4.1,5.4-6.2,12L353.1,575.9L353.1,575.9z"/>
<path style="fill:none;stroke:#000000;stroke-miterlimit:10;" d="M493.6,575.9c-0.1-1.4-0.1,1.4-0.2,0c0-0.1,0,0.1,0,0
	c-0.4-12-0.6-20.7-0.9-31.2c-0.3-10.5-0.5-20.1-1-28c-0.4-8-1-14.4-1.6-18.9c-0.7-4.5-1.4-7-2.2-7s-1.5,2.5-2.3,6.9
	c-0.7,4.5-1.3,10.9-2,18.8c-0.7,7.9-1.1,17.5-1.5,28.1c-0.4,10.6-0.5,19-0.1,31.3c0,0.2,0-0.2,0,0c0,1.3,0.1-1.2,0.2,0L493.6,575.9
	L493.6,575.9z"/>
<path style="fill:none;stroke:#000000;stroke-miterlimit:10;" d="M463.6,575.9c-0.3-6-0.8-4.3-1.5-9.6c-1-6.4-2.3-12.1-3.8-16.8
	c-1.5-4.7-3.2-8.3-4.5-10.7c-1.3-2.4-2.4-3.5-2.9-3.3c-0.5,0.2-0.4,1.8,0.1,4.4c0.5,2.7,1.2,6.3,2,10.9c0.8,4.6,1.4,10.1,2,16.4
	c0.4,5.1,0.7,3,0.9,8.8H463.6L463.6,575.9z"/>
<path style="fill:none;stroke:#000000;stroke-miterlimit:10;" d="M411.7,486.6c0.1,0,0.3,0,0.4,0.2c0.1,0.2,0.2,0.5,0.2,0.7
	c0.1,0.4,0.1,0.9,0,1.4c-0.1,1.1-0.5,2.6-1,4.4c-1,3.5-2.6,8.4-4.5,14.4c-3.8,11.8-9,27.9-13.1,47c-2,9.3-3.6,11-4.7,21.3h-11.6
	c1.2-11.4,3.3-14,5.8-23.8c2.5-9.8,5.4-18.7,8.4-26.7c3-7.9,6-14.7,8.8-20.4c2.9-5.7,5.4-10.2,7.3-13.3c1-1.6,1.8-2.8,2.4-3.6
	c0.3-0.5,0.6-0.8,0.9-1c0.2-0.2,0.3-0.3,0.4-0.3C411.5,486.7,411.6,486.6,411.7,486.6L411.7,486.6z"/>
<path style="fill:none;stroke:#000000;stroke-miterlimit:10;" d="M432.7,505.5c0.6,0.2,0.4,2.7-0.4,7c-0.8,4.3-2.1,10.4-3.7,18
	c-1.5,7.6-3.3,16.5-4.7,26.6c-1.1,8.4-2,9.3-2.1,18.8h-9.5c0.3-10.1,1.4-11.6,3.1-20.3c1.9-10.3,4.4-19.4,6.9-27
	c2.5-7.5,4.8-13.4,6.7-17.4C430.7,507.3,432,505.3,432.7,505.5L432.7,505.5z"/>
<path style="fill:none;stroke:#000000;stroke-miterlimit:10;" d="M302.6,575.9h-7.9c-0.4-7.6-1.3-19.1-3-25.9
	c-1.7-7.4-4.1-14-7-19.8c-0.5-0.9-0.9-1.7-1.3-2.6c-2.3-4.3-4.9-8.1-7.5-11.3c-0.1-0.1-0.1-0.2-0.2-0.3c-3.1-3.7-6.1-6.7-8.8-9
	c-2.2-1.5-4.1-2.9-5.6-3.9c-1.3-1-2.3-1.8-3-2.5c-0.8-0.7-1.1-1.1-1-1.4c0.1-0.3,0.8-0.3,1.8,0c0.8,0.2,1.7,0.5,2.9,0.9
	c1.9,0.7,4.4,1.6,7.4,3c2.2,1.3,4.7,3,7.2,5.1c1.3,1.1,2.7,2.3,4.1,3.6c0.8,0.8,1.5,1.5,2.3,2.4c2.9,3.2,5.7,6.9,8.2,11.1
	c0.3,0.4,0.5,0.8,0.8,1.2c3.6,6.2,6.6,13.5,8.7,21.4c0.3,0.9,0.5,1.8,0.7,2.7c0.6,4.3,1,8.8,1.1,13.4
	C302.5,565.3,302.6,574.5,302.6,575.9C302.6,577.1,302.6,574.7,302.6,575.9z"/>
<path style="fill:none;stroke:#000000;stroke-miterlimit:10;" d="M304.4,575.9C304.4,577.9,304.4,574,304.4,575.9h-9.6
	c0-1.9,0,1.9,0,0c0-1.3-0.1,1.3-0.2,0c0-0.7-0.1,0.7-0.1,0h7.9c0-1.2,0,1.2,0,0c0-1.3-0.1-10.6-0.2-12c-0.2-4.6-0.6-9.1-1.1-13.4
	c1.6,6.7,2.6,18.1,3,25.4C304.3,576.4,304.3,575.3,304.4,575.9C304.3,576.1,304.3,575.7,304.4,575.9
	C304.3,576.2,304.4,575.7,304.4,575.9C304.4,576.9,304.4,574.8,304.4,575.9z"/>
<path style="fill:none;stroke:#000000;stroke-miterlimit:10;" d="M326,575.9c0.2-1.8,0.4,1.9,0.6,0c1.1-11.2,1.3-20.2,1.1-30.4
	c-0.3-12-1.5-23.1-3.1-33.2c-1.6-9.9-3.5-18.6-5.5-25.9c-1.8-7.3-3.5-13-4.5-17c-1.1-4-1.4-6.3-0.8-6.7c0.7-0.3,2.3,1.4,4.5,5
	c2.2,3.5,5.2,9.1,8.1,16.3s5.9,16.1,8.3,26.3s4.3,22,5.1,34.6c0.7,10.8,0.5,19.2-0.6,30.9c-0.1,1.5-0.3-1.5-0.5,0H326V575.9z"/>
<path style="fill:none;stroke:#000000;stroke-miterlimit:10;" d="M353.1,575.9c2.6-7.8,5.2-7.8,7.6-14.9c2.6-7.6,5-14.6,6.9-21.1
	c1.1-3.8,2.1-7.4,2.9-10.7s1.4-6.4,1.8-9.3c0.5-2.8,0.8-5.4,1-7.6c0.2-2.2,0.3-4.1,0.3-5.6c0.1-1.5,0.1-2.8,0.2-3.6
	c0.1-0.9,0.3-1.3,0.5-1.3c0.3-0.1,0.7,0.3,1.1,1.1c0.4,0.8,0.9,2,1.3,3.6s0.9,3.5,1.1,5.9c0.2,2.4,0.4,5.1,0.3,8.1s-0.3,6.4-0.8,9.9
	s-1.1,7.5-2.1,11.4c-1.5,6.8-3.5,14.2-5.9,22c-1.9,6.3-4.1,5.4-6.2,12L353.1,575.9L353.1,575.9z"/>
<path style="fill:none;stroke:#000000;stroke-miterlimit:10;" d="M493.6,575.9c-0.1-1.4-0.1,1.4-0.2,0c0-0.1,0,0.1,0,0
	c-0.4-12-0.6-20.7-0.9-31.2c-0.3-10.5-0.5-20.1-1-28c-0.4-8-1-14.4-1.6-18.9c-0.7-4.5-1.4-7-2.2-7s-1.5,2.5-2.3,6.9
	c-0.7,4.5-1.3,10.9-2,18.8c-0.7,7.9-1.1,17.5-1.5,28.1c-0.4,10.6-0.5,19-0.1,31.3c0,0.2,0-0.2,0,0c0,1.3,0.1-1.2,0.2,0L493.6,575.9
	L493.6,575.9z"/>
<path style="fill:none;stroke:#000000;stroke-miterlimit:10;" d="M411.7,486.6c0.1,0,0.3,0,0.4,0.2c0.1,0.2,0.2,0.5,0.2,0.7
	c0.1,0.4,0.1,0.9,0,1.4c-0.1,1.1-0.5,2.6-1,4.4c-1,3.5-2.6,8.4-4.5,14.4c-3.8,11.8-9,27.9-13.1,47c-2,9.3-3.6,11-4.7,21.3h-11.6
	c1.2-11.4,3.3-14,5.8-23.8c2.5-9.8,5.4-18.7,8.4-26.7c3-7.9,6-14.7,8.8-20.4c2.9-5.7,5.4-10.2,7.3-13.3c1-1.6,1.8-2.8,2.4-3.6
	c0.3-0.5,0.6-0.8,0.9-1c0.2-0.2,0.3-0.3,0.4-0.3C411.5,486.7,411.6,486.6,411.7,486.6L411.7,486.6z"/>
<path style="fill:none;stroke:#000000;stroke-miterlimit:10;" d="M432.7,505.5c0.6,0.2,0.4,2.7-0.4,7c-0.8,4.3-2.1,10.4-3.7,18
	c-1.5,7.6-3.3,16.5-4.7,26.6c-1.1,8.4-2,9.3-2.1,18.8h-9.5c0.3-10.1,1.4-11.6,3.1-20.3c1.9-10.3,4.4-19.4,6.9-27
	c2.5-7.5,4.8-13.4,6.7-17.4C430.7,507.3,432,505.3,432.7,505.5L432.7,505.5z"/>
<path style="fill:none;stroke:#000000;stroke-miterlimit:10;" d="M312.3,575.9C312.3,577.1,312.3,574.6,312.3,575.9h-8.1
	c-0.4-7.4-1.4-18.7-3-25.4c-0.5-3.8-1.1-7.5-1.9-11c-1.7-7.6-4.2-14.3-7.2-20.4c-0.8-1.6-1.6-3.1-2.4-4.6c-2.1-3.6-4.4-6.9-6.7-9.8
	c-0.4-0.5-0.8-0.9-1.1-1.3c-1.3-1.5-2.7-3-3.9-4.3c-1.4-1.4-2.9-2.7-4.2-3.8c-6.4-4.3-10.1-7.3-9.8-8c0.4-0.9,4.8,0.6,12.4,3.8
	c3.5,2,7.6,5,11.6,9c0.7,0.7,1.2,1.3,1.9,2c-0.8-0.2-1.2-0.1-1.3,0.1c-0.3,0.6,1.8,2.4,5.6,5.1l0,0c1.8,2.4,3.6,5.1,5.3,7.8
	c3.7,6.4,6.8,13.9,9,22c2.2,8.1,3.4,17.1,3.8,26.2C312.3,565,312.3,574.4,312.3,575.9z"/>
<path style="fill:none;stroke:#000000;stroke-miterlimit:10;" d="M289.7,502.1c1.4,1.6,3,3.3,4.4,5.2c-3.8-2.7-5.9-4.5-5.6-5.1
	C288.6,502,289,502,289.7,502.1z"/>
<path style="fill:none;stroke:#000000;stroke-miterlimit:10;" d="M312.3,575.9C312.3,576.6,312.3,575.2,312.3,575.9h-9.8
	c0-0.8,0,0.8,0,0c0-1.2,0,1.2,0,0c0-1.3-0.1-10.6-0.2-12c-0.2-4.6-0.6-9.1-1.1-13.4c1.6,6.7,2.6,18.1,3,25.4H312.3z"/>
<path style="fill:none;stroke:#000000;stroke-miterlimit:10;" d="M331.5,575.9c0.3-2.2,0.6,2.2,0.8,0c1.2-13.1,1.6-34.4,1.2-46.4
	c-0.4-14.1-1.9-27.2-3.8-38.7c-2-11.7-4.4-21.9-6.7-30.3c-2.3-8.5-4.4-15.2-5.6-20c-1.2-4.7-1.7-7.5-1-7.7s2.9,1.6,5.6,5.8
	c2.8,4.2,6.4,10.6,10,19c3.6,8.4,7.4,18.7,10.4,30.8c3.1,12,5.4,25.7,6.3,40.5c0.8,12.6,0.6,33.3-0.7,47c-0.2,1.7-0.4-1.7-0.6,0
	L331.5,575.9L331.5,575.9z"/>
<path style="fill:none;stroke:#000000;stroke-miterlimit:10;" d="M362.4,575.9c2.6-8.1,5.4-17.9,7.8-25.1c2.7-7.7,5.1-15,7.1-21.7
	c1.1-3.9,2.2-7.6,3-11c0.9-3.4,1.4-6.6,1.9-9.5s0.8-5.5,1-7.7c0.2-2.3,0.3-4.2,0.4-5.8c0.1-1.6,0.1-2.9,0.2-3.7
	c0.1-0.9,0.3-1.3,0.5-1.4c0.3-0.1,0.7,0.3,1.1,1.1c0.4,0.8,0.9,2,1.3,3.7c0.5,1.6,0.9,3.6,1.1,6.1c0.3,2.5,0.4,5.3,0.3,8.3
	c-0.1,3.2-0.3,6.6-0.9,10.2c-0.5,3.6-1.2,7.6-2.1,11.8c-1.5,7-3.6,14.6-6,22.6c-2,6.5-4.2,15.3-6.4,22.2L362.4,575.9L362.4,575.9z"
	/>
<path style="fill:none;stroke:#000000;stroke-miterlimit:10;" d="M483.2,575.9c-0.1-1.4-0.1,1.4-0.2,0c0-0.2,0,0.2,0,0
	c-0.4-12.3-0.6-31-0.9-41.8c-0.3-10.8-0.6-20.6-1-28.8c-0.4-8.2-1-14.8-1.6-19.4c-0.7-4.6-1.4-7.2-2.3-7.2c-0.9,0-1.6,2.5-2.3,7.1
	c-0.8,4.6-1.4,11.2-2.1,19.4c-0.7,8.2-1.2,18-1.6,28.9c-0.4,10.9-0.5,29.3-0.1,41.9c0,0.2,0-0.2,0,0c0,1.3,0.1-1.3,0.2,0
	L483.2,575.9L483.2,575.9z"/>
<path style="fill:none;stroke:#000000;stroke-miterlimit:10;" d="M452.4,575.9c-0.3-6.2-0.8-14.2-1.6-19.6c-1-6.6-2.4-12.4-3.9-17.2
	s-3.3-8.5-4.6-11c-1.4-2.5-2.5-3.6-3-3.4c-0.5,0.2-0.4,1.8,0.1,4.5c0.5,2.7,1.2,6.5,2,11.3s1.5,10.4,2,16.7
	c0.4,5.2,0.7,12.9,0.9,18.7H452.4L452.4,575.9z"/>
<path style="fill:none;stroke:#000000;stroke-miterlimit:10;" d="M420.7,493.8c0.7,0.2,0.4,2.8-0.4,7.2c-0.8,4.4-2.2,10.7-3.8,18.5
	c-1.6,7.7-3.4,17-4.9,27.3c-1.1,8.6-2,19.3-2.1,29.2h-9.8c0.3-10.4,1.4-21.6,3.1-30.6c1.9-10.6,4.5-20,7-27.6
	c2.5-7.7,5-13.8,6.9-17.8C418.6,495.7,420,493.6,420.7,493.8L420.7,493.8z"/>
<path style="fill:none;stroke:#000000;stroke-miterlimit:10;" d="M330.2,575.9L330.2,575.9C330.2,577.6,330.2,574.1,330.2,575.9
	h-8.4c0-1.6,0,1.7,0,0l0,0c0-1.1-0.1,1.1-0.1,0c-0.3-7.4-1.2-22.2-2.7-28.7c-1.5-6.5-3.6-12.4-6.2-17.5c-2.4-4.8-5.1-8.9-7.8-12.3
	c-2.8-3.4-5.5-6-8-8.1c-1-0.7-1.9-1.2-2.8-1.9l0,0c-3.8-2.7-5.9-4.5-5.6-5.1c0.1-0.2,0.6-0.3,1.3-0.1c1.6,0.3,4.9,1.5,9.4,3.4
	c3.1,1.7,6.5,4.3,9.9,7.7s7,7.7,9.9,13c3.2,5.5,5.8,12,7.7,19C328.7,552.3,329.8,568,330.2,575.9
	C330.2,577.2,330.2,574.6,330.2,575.9z"/>
<path style="fill:none;stroke:#000000;stroke-miterlimit:10;" d="M350.3,575.9c0.2-1.6,0.4,1.6,0.6,0c0.9-9.9,1.1-23.6,1-32.7
	c-0.3-10.6-1.3-20.6-2.8-29.4c-1.4-8.8-3.2-16.5-4.8-23s-3.2-11.5-4-15.1c-1-3.5-1.2-5.6-0.7-5.9s2,1.2,4,4.4c2,3.2,4.6,8,7.2,14.3
	c2.6,6.3,5.3,14.2,7.4,23.3c2.2,9.1,3.8,19.5,4.5,30.7c0.6,9.6,0.5,22.8-0.5,33.1c-0.1,1.3-0.3-1.3-0.4,0h-11.5V575.9z"/>
<path style="fill:none;stroke:#000000;stroke-miterlimit:10;" d="M478.2,575.9c-0.1-1.2-0.1,1.2-0.2,0c0-0.1,0,0.1,0,0
	c-0.4-10.7-0.6-24.1-0.8-33.4s-0.5-17.8-0.9-24.9c-0.4-7.1-0.9-12.8-1.4-16.7s-1.2-6.1-2-6.1c-0.7,0-1.3,2.2-2,6.1
	c-0.7,3.9-1.2,9.7-1.8,16.7s-1.1,15.5-1.3,24.9c-0.3,9.4-0.4,22.6-0.1,33.5c0,0.1,0-0.1,0,0c0,1.1,0.1-1.1,0.2,0L478.2,575.9
	L478.2,575.9z"/>
<path style="fill:none;stroke:#000000;stroke-miterlimit:10;" d="M482.9,491.1c-0.1,0-0.2,0-0.3,0.2c-0.1,0.1-0.1,0.4-0.2,0.6
	c0,0.3-0.1,0.8,0,1.2c0.1,1,0.4,2.3,0.9,3.9c0.9,3.2,2.3,7.5,4,12.7c3.3,10.4,8,24.7,11.6,41.5c1.7,8.2,3.2,15.5,4.2,24.7h10.2
	c-1.1-10-2.9-18.1-5.2-26.9c-2.2-8.7-4.8-16.5-7.5-23.6c-2.7-7-5.4-13.1-7.8-18.1c-2.5-5.1-4.8-9-6.5-11.8c-0.9-1.4-1.6-2.5-2.2-3.3
	c-0.3-0.4-0.6-0.7-0.8-0.9C483.3,491.2,483.1,491.2,482.9,491.1C483.1,491.1,483,491.1,482.9,491.1L482.9,491.1z"/>
<path style="fill:none;stroke:#000000;stroke-miterlimit:10;" d="M424.2,507.8c0.6,0.2,0.4,2.4-0.4,6.1c-0.7,3.8-1.9,9.2-3.3,16
	c-1.4,6.7-3,14.6-4.2,23.5c-1.1,7.5-1.7,14-1.8,22.5h-8.4c0.2-9,1.2-16,2.7-23.7c1.7-9.2,3.9-17.2,6-23.9c2.2-6.6,4.3-11.9,5.9-15.4
	C422.5,509.5,423.7,507.6,424.2,507.8L424.2,507.8z"/>
<path style="fill:none;stroke:#000000;stroke-miterlimit:10;" d="M430,575.9c0.2-1.6,0.4,1.6,0.6,0c0.9-9.9,1.1-23.6,1-32.7
	c-0.3-10.6-1.3-20.6-2.8-29.4c-1.4-8.8-3.2-16.5-4.8-23s-3.2-11.5-4-15.1c-1-3.5-1.2-5.6-0.7-5.9c0.6-0.3,2,1.2,4,4.4
	c2,3.2,4.6,8,7.2,14.3c2.6,6.3,5.3,14.2,7.4,23.3c2.2,9.1,3.8,19.5,4.5,30.7c0.6,9.6,0.5,22.8-0.5,33.1c-0.1,1.3-0.3-1.3-0.4,0H430
	V575.9z"/>
<path style="fill:none;stroke:#000000;stroke-miterlimit:10;" d="M463.9,490.5c-0.3,0-0.7,0.3-1.2,1.1c-0.7,0.8-1.4,2-2.3,3.6
	c-0.9,1.6-1.8,3.7-2.8,6.3c-1,2.6-1.7,5.5-2.4,8.9c-0.6,3.1-1.1,6.5-1.2,10.1s-0.2,7.6,0,11.7c0.4,6,1.2,12.4,2.7,19.1
	c1.3,6.6,3.3,17.8,5.4,24.7c0.5,1.4,0.9-1.3,1.3,0c0.2,0.6,0.4-0.6,0.6,0h8.8c-0.5-1.4-0.9,1.4-1.3,0c-0.4-1.3-0.9,1.4-1.2,0
	c-2.1-6.8-4-20.2-5.5-26.5c-1.5-6.3-2.6-12.3-3.3-18c-0.5-3.8-0.8-7.5-0.8-10.9c-0.1-3.4,0.1-6.6,0.3-9.5c0.5-6.3,1.6-11.4,2.5-14.9
	c0.4-1.7,0.8-3.2,0.9-4.1c0.2-1,0.1-1.5-0.1-1.6C464,490.5,464,490.5,463.9,490.5L463.9,490.5z"/>
<path style="fill:none;stroke:#000000;stroke-miterlimit:10;" d="M12.7,399C12.7,399,12.8,399,12.7,399c-11,5.7-20.8,12.2-22.4,16
	c3.7,1.6,15.2,0.5,27.2-2.1c9.7,19.1,31.5,48.5,41.6,51.1c4.5,0.9,8.9,1.8,13.2,3.5l0.3,0.1h0.2c0.8-1.6-1.5-12.9-0.8-15.4
	C70,439.9,24,399,12.7,399L12.7,399L12.7,399z"/>
<path style="fill:none;stroke:#000000;stroke-miterlimit:10;" d="M63.1,450.8c-1.7,0.4-3.4,1.1-5,1.7c8,9.2,15.6,18.9,21.7,29.5
	c2.2-0.9,4.1-2,5.7-3.3C79.3,468.7,71.5,459.4,63.1,450.8L63.1,450.8z"/>
<path style="fill:none;stroke:#000000;stroke-miterlimit:10;" d="M103.4,410.6c1.4,0.4,2.8,0.9,4,1.4c-6.5,7.6-12.7,15.5-17.7,24.1
	c-1.7-0.7-3.3-1.6-4.7-2.7C90.2,425.3,96.5,417.6,103.4,410.6L103.4,410.6z"/>
<path style="fill:none;stroke:#000000;stroke-miterlimit:10;" d="M98.2,424.4c2.6-1.6,5.5-2.8,8.2-3.8c8.4-3.7,24.8-40.3,23.1-47.9
	c-7.4,1.3-33,33.4-32.9,41.7c0.8,1.5,0.5,9.3,1.2,10.2L98.2,424.4L98.2,424.4L98.2,424.4z"/>
<g>
	<path style="fill:none;stroke:#000000;stroke-miterlimit:10;" d="M65.6,575.9c-0.6,1.7-1.1-1.7-1.7,0c-0.1,0.4-0.3-0.4-0.4,0
		c0,8.2-6.5,0.8-10.5,0c0.7-1.6,1.2,1.6,1.8,0c0.3-0.8,0.6,0.8,0.8,0H65.6z"/>
	<path style="fill:none;stroke:#000000;stroke-miterlimit:10;" d="M121.2,223c-23.7,33.9-32.5,75.2-32.7,116
		c0,5.3,0.1,10.6,0.4,15.9c0.1,2.6,0.3,5.3,0.5,7.8c5.1,45.8,2.9,92.1-5.4,137.3c-0.7-9.2-1.6-18.4-2.9-27.4
		c3.6-24.2,5.5-48.7,5.4-73.2c-1.1-24.3-2.8-48.9-1.2-73.2c0-0.1,0-0.1,0-0.2c0.8-12.5,2.4-25.1,5.4-37.3c9-44,37.1-80.7,68.2-111.8
		C145.4,191.6,132.2,206.5,121.2,223z"/>
	<path style="fill:none;stroke:#000000;stroke-miterlimit:10;" d="M84.7,546.9c-0.5,1.2-0.9,2.6-1.3,3.9c-2.3,6.6-4.7,17.8-7.1,25.1
		h-1.9c0.5-5.5,0.7-15.3,0.8-20.7c0.6-6.7,1-13.3,1.1-20c0.4-11.7,0.4-23.3-0.2-34.9c-1.5-31.7-6.7-63-15.8-93.1
		c0-0.1,0-0.1-0.1-0.2c0.3,0.3,0.6,0.7,1,1c0.8-0.8,1.4-1.6,1.9-2.6c-1.5-1.5-3.1-3-4.6-4.4c-0.1-2.6-1-6.7-2.4-7.5
		c-0.6-1-1.1-1.9-1.6-3c-5.7-16.3-11.2-32.6-14.6-49.4c0.3,0.1,0.5,0.1,0.8,0.2c0.1,0.1,0.2,0.2,0.3,0.3c1.3,1.9,2.8,3.8,4.3,5.6
		c2.4,9.2,5.3,18.3,8.7,27.2c6.2,14.3,11.5,29.2,15.9,44.2c-0.7,1.8-1.2,3.5-1.8,5.4c0.8,0.7,1.6,1.2,2.6,1.6
		c0.2-0.7,0.4-1.4,0.6-2.1c4.4,16.2,7.7,32.5,10,49.2c1.2,9.1,2.2,18.3,2.9,27.4C85.1,515.5,85.3,531.2,84.7,546.9z"/>
	<path style="fill:none;stroke:#000000;stroke-miterlimit:10;" d="M38.8,296.2c0,1.3,0,2.7,0,4.1c0,10.2,1.1,20.5,2.8,30.6
		c0.5,2.7,1,5.4,1.5,7.9c0.2,1.1,0.5,2.2,0.8,3.3c0.4,1.7,0.8,3.3,1.2,5.1c-1.5-1.8-3-3.7-4.3-5.6c-0.1-0.1-0.2-0.1-0.3-0.3
		c-0.3,0-0.6-0.1-0.8-0.2c-1.1-5.5-2-10.9-2.7-16.4c-0.6-5-1-10-1.1-15.1c-0.5-8.5,0-17,1.3-25.3c0.2-1.1,0.3-2.1,0.5-3.2
		c2.1-12,5.7-23.7,10.2-35.4c0.4,0.2,0.1-0.1,0.5,0.1c-1.5,4-2.9,8.1-4,12.1c-0.1,0.3-0.2,0.6-0.3,0.9
		C40.8,271.1,39.1,283.6,38.8,296.2z"/>
	<path style="fill:none;stroke:#000000;stroke-miterlimit:10;" d="M58.4,401c1.5,1.4,3.2,2.9,4.6,4.4c-0.5,1-1.1,1.8-1.9,2.6
		c-0.3-0.4-0.6-0.7-1-1c-1.9-5.5-3.9-11-5.8-16.4c0.6,1,1.1,2,1.6,3C57.5,394.3,58.3,398.4,58.4,401z"/>
	<path style="fill:none;stroke:#000000;stroke-miterlimit:10;" d="M69.6,418.5c0.5,1.6,1,3.3,1.3,4.9c-0.2,0.7-0.4,1.4-0.6,2.1
		c-1-0.4-1.8-1-2.6-1.6C68.4,422,68.9,420.3,69.6,418.5z"/>
	<path style="fill:none;stroke:#000000;stroke-miterlimit:10;" d="M83.4,575.9c0.3,1,0.4-0.6,0.3,0c-0.4,3-4.4,0.4-7.9,0
		c-0.6-0.1-1.1,0-1.5,0c-0.4,0-0.7,0-1,0c0.1-0.5,0.1,0.5,0.2,0c0.7-5.5,1.2-15.2,1.6-20.7c0,5.4-0.3,15.1-0.8,20.7h1.9
		c2.4-7.3,4.9-18.5,7.1-25.1c0.5-1.3,0.9-2.6,1.3-3.9C84.4,554.4,84.1,568.4,83.4,575.9z"/>
</g>
<path style="fill:none;stroke:#000000;stroke-miterlimit:10;" d="M82.5,361.1c0.1-0.1,0.1-0.2,0.2-0.4c-0.1,0.1-0.2,0.2-0.2,0.2
	c-0.1-0.2-0.1-0.4-0.2-0.6C82.3,360.6,82.3,360.8,82.5,361.1C72.2,371,70,391.3,69,409c-0.9,1.4,0,5.7,1,8.3
	c-0.1,0.4-0.3,0.7-0.4,1.1c-0.7,1.8-1.2,3.5-1.8,5.4c0.8,0.7,1.6,1.2,2.6,1.6c0.2-0.7,0.4-1.4,0.6-2.1c0.5-1.7,1.1-3.4,1.6-5.2
	c1.4-0.6,2.1-2.3,4-5.1C82.4,396.3,88.4,375.6,82.5,361.1z M82.4,361.4c0.8,8-0.4,12.4-5.1,26.8C78.2,372.9,78.8,368.5,82.4,361.4z"
	/>
<path style="fill:none;stroke:#000000;stroke-miterlimit:10;" d="M59.3,266c-0.6,2.7-1.8,5.5-4.5,9.6c-6.1,4.9-16.4,9.9-14.4,18.1
	c-0.1,0.1-0.1,0.2-0.1,0.3c-1.1,1.8-2.2,3.6-3.3,5.5c0.5,0.5,1.1,0.9,1.6,1.1c0.9-1.8,1.8-3.5,2.9-5.3c9.8-1.6,11.5-11.8,14.7-18.6
	c3.3-3.8,5.5-5.7,8-7.1c-1.9,0.8-4.4,2.2-6.9,4C58.3,270.8,59.1,268.1,59.3,266L59.3,266z"/>
<path style="fill:none;stroke:#000000;stroke-miterlimit:10;" d="M22.7,246.7c1.9,2,3.4,4.6,5.3,9.2c0.5,7.8-1.2,19.1,6.5,22.2
	c0.1,0.1,0.1,0.2,0.2,0.3c0.9,2,1.7,3.9,2.7,5.8c0.7-0.1,1.3-0.4,1.9-0.7c-1-1.7-1.8-3.5-2.7-5.4c4.3-9-3.1-16.1-6.8-22.7
	c-1.2-4.9-1.5-7.9-1.1-10.6c-0.5,2-0.7,4.9-0.7,7.9C26,250.3,24.2,248.2,22.7,246.7L22.7,246.7z"/>
<path style="fill:none;stroke:#000000;stroke-miterlimit:10;" d="M47.1,346.1c-0.6,0.6-1.2,1-1.9,1.2l-0.1-0.2
	c-1.5-1.8-3-3.7-4.3-5.6c-0.1-0.1-0.2-0.1-0.3-0.3c-0.3,0-0.6-0.1-0.8-0.2c-8.7-2-9.7-14.6-12.1-23c-3.2-4.7-5.6-7.2-8.2-9
	c2.1,1.1,4.7,3.1,7.3,5.5c-0.8-3.4-1.2-6.6-1.2-9.1c0.3,3.2,1.3,6.5,4,11.6c2.3,2.5,5.1,4.9,7.7,7.6c1.8,1.9,3.4,3.9,4.5,6.1
	c1.1,2.4,1.8,5,1.5,7.9c-0.1,0.7-0.2,1.3-0.3,2c0.4,0.5,0.7,0.9,1.1,1.3C44.9,343.5,46.1,344.8,47.1,346.1z"/>
<path style="fill:none;stroke:#000000;stroke-miterlimit:10;" d="M54.6,248.8c-3.7,3.3-7.5,6.5-11.1,9.9c0.1,0.1,0.3,0.2,0.5,0.2
	C47.4,255.5,51.1,252.2,54.6,248.8L54.6,248.8z"/>
<path style="fill:none;stroke:#000000;stroke-miterlimit:10;" d="M58.4,401c-0.1-2.6-1-6.7-2.4-7.5c-0.6-1-1.1-1.9-1.6-3
	c-7.6-13.7-17.4-27.9-30.3-31.5c-0.1-0.2-0.2-0.4-0.2-0.6c0,0.2,0,0.4,0,0.6c-0.1,0-0.2-0.1-0.3-0.1c0.1,0.1,0.2,0.1,0.3,0.2
	c0.1,15,14.1,29.6,26.4,41.2c3,1.4,4.3,2.6,5.9,2.4c1.4,1.3,2.8,2.8,4.1,4.2c0.3,0.3,0.6,0.7,1,1c0.8-0.8,1.4-1.6,1.9-2.6
	C61.5,403.8,60,402.4,58.4,401z M24.2,359.4c6.3,4.3,8.6,7.8,15.6,20.3C29.5,369.7,26.7,366.5,24.2,359.4z"/>
<path style="fill:none;stroke:#000000;stroke-miterlimit:10;" d="M164.6,221.5c-30.1,25.4-58.2,56.4-70.2,95.7
	c-4,11.8-6.7,23.9-8.5,36.1c1.1,0.6,2.1,1.1,3.2,1.6c4.7-34.6,16.2-68.4,38.4-95.1C138.7,245.9,151.5,233.4,164.6,221.5L164.6,221.5
	z"/>
<g>
	<path style="fill:none;stroke:#000000;stroke-miterlimit:10;" d="M148.6,187.6L148.6,187.6c3.1,2.3,3.7,6.6,1.4,9.7l-27.5,37.3
		c-2.3,3.1-6.6,3.7-9.7,1.4l0,0c-3.1-2.3-3.7-6.6-1.4-9.7l27.5-37.3C141.2,186.1,145.5,185.4,148.6,187.6z"/>
	<path style="fill:none;stroke:#000000;stroke-miterlimit:10;" d="M154,230L154,230c2.3,2.2,2.5,5.8,0.3,8.1l-26.4,28.1
		c-2.2,2.3-5.8,2.5-8.1,0.3l0,0c-2.3-2.2-2.5-5.8-0.3-8.1l26.4-28.1C148,227.9,151.7,227.8,154,230z"/>
</g>
</svg>
