<?xml version="1.0" encoding="utf-8"?>
<!-- Generator: Adobe Illustrator 17.0.0, SVG Export Plug-In . SVG Version: 6.00 Build 0)  -->
<!DOCTYPE svg PUBLIC "-//W3C//DTD SVG 1.1//EN" "http://www.w3.org/Graphics/SVG/1.1/DTD/svg11.dtd" [
	<!ENTITY ns_flows "http://ns.adobe.com/Flows/1.0/">
	<!ENTITY ns_extend "http://ns.adobe.com/Extensibility/1.0/">
	<!ENTITY ns_ai "http://ns.adobe.com/AdobeIllustrator/10.0/">
	<!ENTITY ns_graphs "http://ns.adobe.com/Graphs/1.0/">
]>
<svg version="1.1" id="Layer_1" xmlns:x="&ns_extend;" xmlns:i="&ns_ai;" xmlns:graph="&ns_graphs;"
	 xmlns="http://www.w3.org/2000/svg" xmlns:xlink="http://www.w3.org/1999/xlink" xmlns:a="http://ns.adobe.com/AdobeSVGViewerExtensions/3.0/"
	 x="0px" y="0px" width="612px" height="792px" viewBox="0 0 612 792" style="enable-background:new 0 0 612 792;"
	 xml:space="preserve">
<g>
	<path d="M376.4,294.6c3.8-1.1,8.6-0.8,10.6-3.7c0-0.7-1.3-0.2-1.4-1c-2.6,1.4-6.3,1.7-8.2,3.7c-2,0-4.1-0.1-4.2,1.8
		C374.5,296.3,375.3,294.9,376.4,294.6z"/>
	<path d="M372.8,296.4c0.2-1.4-1-1.4-2.3-1.4C369.8,296.9,371.5,296.4,372.8,296.4z"/>
	<path d="M382,295.5c-0.2-1.1-2.3-0.2-3.2-0.5c-0.4,1.9-3.8,0.8-4.2,2.7C376.5,298.3,380.7,297.1,382,295.5z"/>
	<path d="M375.1,300.6L375.1,300.6L375.1,300.6z"/>
	<path d="M375.1,300.6c-6.3,0.2-10.5,3.1-15.7,4.7c-3.1,1-7.2,0.7-10.6,2.7c2.7,1.1,6.5-0.6,9.2-1c-1.7,1.3,2.3,2.2,2.3,0.5
		c-0.2-0.6-1.8-0.1-1.8-1c4.8-1.2,9.4-2.6,13.4-4.2C373.2,301.9,375.2,302.6,375.1,300.6z"/>
	<path d="M364,306.6c-0.4-0.8-3.3-0.2-3.2,1C361.8,307.2,364.3,308.4,364,306.6z"/>
	<path d="M445.6,310.8c1.6-0.7,4.7-1,4.2-3.2l0,0c-0.6,0-0.6-0.6-1.4-0.5c-9,3.5-20.3,7.8-30.5,10.2c-1.6,0.4-3.5,0.5-5,1
		c-1.2,0.4-3.9,0-4.2,2.3c9,0.2,16.5-4.3,24.4-6C438.6,313.3,441.9,312.4,445.6,310.8z"/>
	<path d="M342.3,309.8c1.9-0.2,2.9-1.4,5.5-1C347.4,307.1,341.7,307.5,342.3,309.8z"/>
	<path d="M357,310.8c3,0.7,3.1-1.4,6-1c0.4-2.6-4.3,0.2-3.2,0C359,310.1,356.7,308.7,357,310.8z"/>
	<path d="M350.6,314.8c4.3,1,8.8-2.3,14.7-2.3c-0.2-1.4,2.3-0.1,1.8-1.8c-3.7-0.2-9.4,1.3-12.9,2.3
		C353,313.4,351.3,313.9,350.6,314.8z"/>
	<path d="M348.3,311.6c-1.3,0.2-5.9,1.4-5.5,3.2c1.8,0.2,3.5-1,5-1.4c1.8-0.5,4.2-0.1,5-1.8C352,311.1,349.7,311.4,348.3,311.6z"/>
	<path d="M237.3,313c-3.8,0.4-10,2.3-12.9,5C230,317.7,234.5,316.3,237.3,313z"/>
	<path d="M345.6,316.3c1.2,0.8,3.8-0.2,4.7-1.4C349,313.9,345.9,315,345.6,316.3z"/>
	<path d="M496.3,316.3L496.3,316.3h-1.4c0.1,1.2-0.7,1.4-1.4,1.8c-1.1,0.2-1-0.8-2.3-0.5c-3.8,2.4-10.9,4.5-17.1,5.5
		c-3.7,0.6-7.4,0.2-7.4,3.7c8-1.4,20.1-5.1,28.6-6C495.6,319.3,496.4,318.2,496.3,316.3z"/>
	<path d="M234,317.2c-3-0.2-3.7,1.8-6.9,1.4c-1.1,2.7-7.1,0.7-6.9,4.7c3.5-0.2,5-2.3,8.7-2.3C229.5,318.4,233.8,319.9,234,317.2z"/>
	<path d="M223.9,318.1h-2.3v1C222.4,318.8,224.4,319.6,223.9,318.1z"/>
	<path d="M221.1,320c0.5-1.8-2.7-1.8-2.7-0.5C218.9,320,219.9,320,221.1,320z"/>
	<path d="M440.1,322.7c2,1.7,6-0.6,9.2-1.4c2.4-0.6,6.1-0.1,6.5-2.7c-4.3,0.8-8.8,1.1-12.9,2.3C442,321.1,440.5,321.8,440.1,322.7z"
		/>
	<path d="M378.3,328.7c5.6-1.8,12.7-2.5,17.9-4.2c0.7-0.2,1.2-1.1,1.8-1.4c1-0.4,2.3,0.5,2.3-1c2,0.6,6.6-0.2,7.4-2.3
		c-0.6,0-0.6-0.6-1.4-0.5c-6.8,2.6-15.2,3.8-22.1,5.5C382.1,325.6,378.1,326.1,378.3,328.7z"/>
	<path d="M229.4,322.2c1.8-0.2,3.8-0.1,4.2-1.8c-1.4-0.7-2.5,0.6-3.7,1c-3.7,1.1-8.8,1.3-10.2,4.7
		C223.9,325.6,226.5,323.8,229.4,322.2z"/>
	<path d="M202.7,323.7c3.5-2,10.4,1.8,12-1.4c-3.7-1.4-9.9-1.6-13.9,0c-2.4,1-5.3,2.9-5,5.5C198.9,327.3,200.2,324.9,202.7,323.7z"
		/>
	<path d="M236.3,321.3c-1.7,1-3.6,1.9-5.5,2.7c-1.9,0.7-4.5,0.8-5.5,2.7c4.3,0.4,10.3-1.7,12.9-4.7c-0.4-0.1-0.5-0.4-0.5-1h-1.4
		V321.3z"/>
	<path d="M243.7,324.5v-2.3c-2.3,1-5.1,1.3-6,3.7C240.5,326.3,241.3,324.6,243.7,324.5z"/>
	<path d="M402.2,324.2c-4.1,1.3-9.2,2.3-13.4,3.2c-1.9,0.5-4.7-0.4-5.5,1.8c6.3,0.2,13.6-2.2,18.4-3.7c2.5-0.8,5.1-0.7,6.5-2.7
		C406.5,322,403.8,323.6,402.2,324.2z"/>
	<path d="M432.7,326c1.3-0.6,3.7-1.4,3.2-3.2c-3.8,0.4-6.1,1.8-8.7,2.7c-1.8,0.6-4.5,0.1-5,2.3c1.2,0.7,3.2,0,5-0.5
		C428.9,326.9,431.5,326.4,432.7,326z"/>
	<path d="M219.7,327.7c-0.6-2.3-1.4-4.4-4.2-4.7C215.6,326.1,216.5,328.1,219.7,327.7z"/>
	<path d="M248.7,324.2c-1.4-0.8-4.3,0.1-4.2,2.3C246.7,326.3,248.6,326.1,248.7,324.2z"/>
	<path d="M406.4,326c-4.7,1.1-10,1.2-12.9,4.2c1.2,1.2,2.5-0.2,3.7-0.5c6.2-1.3,14.1-2.5,17.9-5C412.3,323.4,409.3,325.2,406.4,326z
		"/>
	<path d="M462.7,325c-2-0.5-7.5-0.4-7.4,2.7C458.2,327.3,461.6,327.4,462.7,325z"/>
	<path d="M436.4,327.7c1.8,1.8,11.5,0.1,12.4-2.3c-2.6-1-6,1.1-8.7,1.4c0-0.8-0.1-1.4-0.5-1.8h-1.4c-2.3,1.2-6.1,2-9.2,2.7
		c-1.6,0.4-4.4-0.4-4.7,1.8C427.3,331.5,432.2,327.7,436.4,327.7z"/>
	<path d="M421.1,328.2c-0.1-0.8-0.8-1.1-1.8-1c-3.2,1.6-9.4,0.1-10.2,4.2c2.6,0,5.3-1.3,7.9-1.8
		C418.4,329.3,420.6,330.3,421.1,328.2z"/>
	<path d="M21.5,348.5c0.1-1.1,3.5-1.4,4.2-0.5c-0.1,1.1-2,0.5-1.8,1.8c4.3,1.1,7.6-5,12-2.7c-1.1,1.2-3.6,1.1-4.2,2.7
		c1.9,1,5.9-2.5,8.2-1c-1.3,0.4-2.7,0.6-3.2,1.8c1.9,0.2,6.2-0.7,6.9-3.2c-8.5-3.3-16-2-24.9-1.8C19.6,346.8,20.4,347.7,21.5,348.5z
		"/>
	<path d="M120.1,351.8c-1.1,1.7,0.2,3.1,0.5,4.7c0.5,3.3-1,9.8,2.7,9.2c-1.3-3.1-1.8-8.6-1.4-12c2.6-1.7,9.6-1.6,12.4-1.4
		c-1.6,0-2,1.1-2.7,1.8c-0.2-1.1-1.8-1.1-2.7-1.4c0,3,0.4,5.7,1.4,7.9c0.8-0.7,0.6-2.5,1.4-3.2c0.4,2.7,2.3,2.2,1.4,5.5
		c3.1-1.3,6.3-2.6,8.2-5c-2.6-0.7-3.5,2.6-5.5,1c3.6-1.7,9-3.9,12-4.7c-1.1,1.2-3.9,0.7-3.7,3.2c2.3-0.5,3.6-1.9,6.5-1.8
		c-0.6,2.5-4.4,1.7-5,4.2c1.8,1.2,2.4-2,5-1.4c0.1,1.4-2.6,0.2-1.8,2.3c1.3,1.2,2.3-0.5,3.7-0.5c-0.1,1.8,0.8,2.5,0.5,4.7
		c-2.3-2.2-5.3,1-6,3.2c1.7,1.6,0.6,0.6,0.5,3.2c1.2,2.2,5.3,3.1,8.2,1.8c0-3.7-3.1-4.3-6-5c1.4-2.2,5-0.4,6.5,0.5
		c2.2-1.1,4.4-0.7,7.4-1c1.9-0.1,4.2-1,6-1c2,0,4.1,0.8,6,1c5.4,0.4,11.4-1.2,15.7,1.4c-1.6,0.6-3.9,0.4-4.7,1.8
		c1.7-0.1,14.7,1.1,10.2-2.3c3.7,0.4,6.3-0.8,8.7,0.5c-0.8-0.1-1.1,0.5-1,1.4c1.1,0.2,2.2,0.7,3.7,0.5c-0.7-2.4,2-2.7,3.2-1.8
		c0,1-1.3,0.6-1,1.8c3.2-1,1.3,3.2,4.7,2.3c1.6-1-1.2-1.9,0-2.3c2.3-0.1,4.2,0.1,6,0.5c1-2.6-2.4-1-2.3-2.7c1.6,0.1,3-0.1,3.7-1
		c-0.7-0.4-2.9-1.3-1.8-1.8c1.7-0.7,1-0.8,3.2-1c-0.8-3.3-3.3,0.7-5.5,1c-2.3,0.2-4.4-1.2-5.5-1.4c-2.3,1.1-5.7,1-9.2,1
		c-0.1,0.7,0.1,1.7-0.5,1.8c-12,0.1-21.5-1.1-28.6-1.8c0.7-1.1,1.9-1.7,3.7-1.8c0-0.8-0.1-1.4-0.5-1.8c0.8,0.2,0.8,1.3,2.3,1
		c-0.1-1.2-0.1-2.3,1-2.3c1.1-0.2-0.2,2.2,1.4,1.4c2-0.5,1.3-2.9,1-4.7c-0.7-0.2-2.4,0.6-2.3-0.5c2.9-0.1,5.3-1,7.4-1.8
		c-2-4.4-6.2,1.9-10.2,1.4c-4.9,5.5-16.1-0.2-18.4,8.2c5.7-1.4,11.7-4.7,16.9-5.5c-1.3,0.4-1.3,2.2-2.2,3.1
		c-5.9,1.6-11.6,5.6-19.4,3.7l0,0c1.9-3.5,5.4-5.4,9.2-6.9v-1.4c-1.9-0.1-2.6,1.2-2.3-1.4c-3-0.2-3.1,2.4-5.5,2.7
		c1.7,1.9-1.9,4.8-2.7,2.7c0.4-1.1,2.6-0.1,2.3-1.8c0-1.9-2.9,0.8-3.2-1.4c0.4-2.4,2.9-2.6,5.5-2.7c-0.6-2.4-4.2-1.8-5-0.5
		c-0.7-1.1-1.1-2.6-1.4-4.2c-2.6-0.5-1.4,2.9-4.2,2.3c-1.3-5.7-9-3.7-12-3.2c-4.9,0.7-9.9,0.5-13.9,1.4c0.4-1.4-0.5-1.7-0.5-2.7
		c-1.9,0.8-2.4-0.7-3.7,0v2.3C118.7,351.1,119.8,351.1,120.1,351.8z M216.5,368.4c-0.1,1-1.2,1-2.3,1
		C213.7,367.7,215.6,368.5,216.5,368.4z M178.7,356.8c1,0.2,1,0.7,0.5,1.4h-1C178.5,357.9,178.7,357.5,178.7,356.8z M172.7,364.2
		c-0.4,0.5-0.8,0.7-1.4,1C170.2,364.9,172.1,364.1,172.7,364.2z M137.2,353.1c0,1-1.3,0.6-1,1.8c0.5,1.2,0.8-1.2,2.3-0.5
		c0-0.8-0.4-1.2-1-1.4c1-0.8,2.2-1.4,3.7-1.8c-0.4,0.4-0.5,1.1-0.5,1.8c1.6-0.1,2-1.3,4.2-1c-3.7,1.9-6.7,4.4-11.5,5
		c-0.5-1.4,1.1-0.8,1.8-1v-1.8c-1-0.2-1.2,0.4-1.8,0.5C133,354.4,135.9,353.3,137.2,353.1z"/>
	<path d="M18.3,353.6c-0.2-3.5-3.5,0.8-4.7-1c1.3-1.3,4.3-1,4.2-3.7c-3.3,0.8-9.1,1.7-7.9,5.5c0.6-0.5,2.5-2.2,3.2-1
		c-1.1,0.6-2.7,0.6-3.7,1.4C12,357.6,14.9,353.1,18.3,353.6z"/>
	<path d="M73.2,352.3c2.4-2.4,10.5,1,12-2.3c-3.6,0.5-7.5-0.5-10.6-0.5c-1,0-3.2-0.4-3.2,1C70.9,352,73.4,350.8,73.2,352.3z"/>
	<path d="M557.1,352.3c-0.6,0.4-1.7-0.2-1.4,1c3,0.1,4.7-0.7,7.4-1.8V350C559.8,349.9,558.9,351.3,557.1,352.3z"/>
	<path d="M495.8,354c-1.6-1.7-5.5-1-8.2-1.4c-2.7-3-10.9-3-14.3-0.5c-6,1.2-12.7,3.1-19.4,3.7c-6,0.6-13.1,0.6-15.7,6
		c6.6-2.4,12-3.7,18.9-5c-0.5,0.7-0.5,1.2,0,1.8c2.5-0.4,4.2-1.6,6.9-1.8c0,0.7-1.2,0.4-1,1.4c1.2,0.5,2.4,1,4.2,1
		c0.2-0.8-0.7-1.2,0-1.4c1.4,1.7,6-0.5,6.5-2.7c-2.3-1.8-3.2,2.5-5,0l0,0c4.4-1.1,7.2-2.9,11.1-2.7c2.7,0,5.4,1.8,8.2,2.3
		C490.7,355,495,355.4,495.8,354z M465,356.8c-1.2-0.6,1.6-1.2,2.3-1.4C468,357.4,464.9,355.5,465,356.8z"/>
	<path d="M197.6,353.1c-0.8,1.6-3.2,1.7-3.7,3.7c3.3-0.1,4.1-3,6.9-3.7c2.9,0.1,6,2.4,7.9-0.5c-5.1-0.2-8-1-12.9-1.8
		c-1.1,1.8-3.3,2.5-4.7,4.2C193.6,356.6,194.6,352.6,197.6,353.1z"/>
	<path d="M115.1,353.6c0.1-1.3-1.7-1.7-2.3-1C112.4,354.3,114.3,353.4,115.1,353.6z"/>
	<path d="M495.8,362.8c2.5-0.4,4.1-1.8,6-2.7c0.1,0.8-0.5,1.1-0.5,1.8l0,0c5.1-0.1,6-4.5,11.1-4.7c0.2-3.8,6.6-1.7,7.4-5
		c-5,0.1-8.8,2.7-13.9,1.4c0,1.8,0.4,3.3,1.4,4.2c-1.6,0-3.5,2-4.2,1.4c0.4-1.2,0.6-1,1-2.7c-2.6-0.4-3.7,1.4-3.7,2.3
		c-1-1.3-3.2,0.1-4.2,0.5C497,361.3,495.9,360.6,495.8,362.8z"/>
	<path d="M112.8,357.3c1.8-1.7,6.1-1,6-4.7C116.9,354.3,113.6,354.5,112.8,357.3z"/>
	<path d="M584.7,354.5c0.2-1.7-1.3-1.4-2.7-1.4c0,0.5-0.1,0.7-0.5,1c-2.3,1.1-5.5,2.3-8.2,3.2c-3.1,1.1-6.7,1.3-8.2,3.2
		c1.8,1,5.3-0.2,6.9-1c0.7,0.4-0.1,2.3,1.4,1.8c1.4,0.6,0.4-1.4,1.8-1c0.5-1.4-0.7-1.1-1-1.8C578.2,357.6,580.2,354.9,584.7,354.5
		L584.7,354.5z"/>
	<path d="M500.5,354c-0.2-1-2.9-0.5-3.2,0C496.7,355.5,501.1,355.5,500.5,354z"/>
	<path d="M255.2,356c1.1,1.1,0.8-0.7,2.3-0.5c0-0.8-0.4-1.2-1-1.4C256.5,355,255.3,355,255.2,356z"/>
	<path d="M200.3,354.5c-1.7,0.6-4.9,1.7-3.7,3.7C198.7,357.6,200.2,356.8,200.3,354.5z"/>
	<path d="M580.7,357.8c2.7-0.1,4.5-1,5.5-2.7C583.6,355.1,581.3,355.6,580.7,357.8z"/>
	<path d="M471.9,359.2c3.1-0.6,6.2-1.2,7.9-3.2C477.6,355.7,472.9,356.7,471.9,359.2z"/>
	<path d="M51,356c-1.1,0.1-2.2,0.2-1.8,1.8C50.6,358,51.3,357.4,51,356z"/>
	<path d="M10,357.8h4.2C14.5,355.5,9.9,356.2,10,357.8z"/>
	<path d="M38.6,356.3c-1.4,0.2-2.9,0.6-3.2,1.8C36.3,359.3,39.1,358.3,38.6,356.3z"/>
	<path d="M61.7,356.3c-3.5,0.1-5.4,3.1-7.9,4.7c-1.8,1.1-4.3,1.2-5.5,3.2c2.7,0.8,6-2,8.7-2.7C57.6,358.8,61.2,359.2,61.7,356.3z"/>
	<path d="M337.7,356.8c-1.6,0-2.3,4.1,0,3.7C337.3,358.7,338.8,357.9,337.7,356.8z"/>
	<path d="M489.8,359.2c1.7-0.1,3.7,0,3.2-2.3C491.6,357.2,489.8,357.3,489.8,359.2z"/>
	<path d="M3.6,360.5c1.1-1.4-0.4-3.3-2.3-3.2C1.1,359.3,1.6,360.7,3.6,360.5z"/>
	<path d="M65.7,357.3c-1.9,0.4-3.6,1-3.7,3.2C63.8,360,65.6,359.4,65.7,357.3z"/>
	<path d="M202.2,357.8L202.2,357.8L202.2,357.8h1.4C204.3,356.4,201.5,356.4,202.2,357.8c-1.7-1.6-5.6,4.3-6.5,0.5
		c-1.9,0.1-1.6,2.4-3.2,2.7c-1.6,1.7-6.5,0-6,3.7c2.5-0.2,3.7-2.2,6.5-1c1.1-1.4,6,0.5,6.9-2.3c0.2-1.3-2.5,0.4-2.3-1
		C199.3,359.7,201.9,359.9,202.2,357.8z"/>
	<path d="M202.2,357.8L202.2,357.8L202.2,357.8z"/>
	<path d="M578.8,361.9c2.5,0,4.1-0.8,5-2.3c0.4-0.7,3.8,0.5,3.7-2.3c-3,0.1-6.6,2-8.2,1.8c0.2-0.7,1.4-0.4,1-1.8l0,0
		c-1.6,0.4-3.2,0.5-3.7,1.8C578.7,359.7,578.4,359.9,578.8,361.9z"/>
	<path d="M276,357.8c-1.2-0.1-2.3-0.1-2.3,1C274.3,359.4,276.1,359.1,276,357.8z"/>
	<path d="M343.3,358.2c-0.6-0.6-3.2-0.8-3.2,0.5C340.7,359.3,343.3,359.5,343.3,358.2z"/>
	<path d="M521.6,357.8c-1.4,1.9-5.5,1.2-6.5,3.7c0,0.6,0.8,0.5,1,1c3.1-0.6,4.3-3.1,7.9-3.2l0,0
		C524.1,357.8,522.9,357.6,521.6,357.8z"/>
	<path d="M202.2,360.5c1.3,1,2.7-1,4.7-1C206.6,356.8,202.2,358.8,202.2,360.5z"/>
	<path d="M28.4,365.2c2.9-0.7,8.1-2.9,10.6-5.5c-0.1-0.7-1.1-0.5-1.8-0.5C34.9,361.8,30.2,361.9,28.4,365.2z"/>
	<path d="M411.4,361.9c0.2-1.8-1.3-1.7-1.8-2.7c-3.2,1.4-7.1-1.2-9.2,2.3C402.9,361.2,408.4,362.4,411.4,361.9z"/>
	<path d="M411.9,361c0.6,0.4,3.9,0.6,4.2-1C414.9,359.4,411.7,358.2,411.9,361z"/>
	<path d="M81.4,365.2c3.6-0.6,5.6-2.7,8.7-3.7c-0.1,0.6-0.6,0.8-0.5,1.8c1.8-1.1,5.3-0.5,5-3.7c-2.3-0.4-2.7,1.3-4.2,1.8v-1.8
		C87.1,361,83.4,362.2,81.4,365.2z"/>
	<path d="M145.1,359.5c-1.1,0.5-2.9,0.1-2.7,1.8C144,361.7,144.8,360.9,145.1,359.5z"/>
	<path d="M495.8,359.5c-1.7-0.1-1.9,1.2-2.3,2.3C495.2,362.1,495.9,361.2,495.8,359.5z"/>
	<path d="M521.6,362.8c2.2-0.6,4.7-0.8,5.5-2.7C525.1,358.9,522,360.7,521.6,362.8z"/>
	<path d="M93.5,363.7c1.7,0.4,2.5-0.4,3.2-1c0.5,0.5,0.1,1.7,1.4,1.4c1.2-0.8,3.3-0.7,2.7-3.2C98.5,361.7,94.7,360.9,93.5,363.7z"/>
	<path d="M128,365.2c1.4,0.2,2,1.3,2.3,2.7c3.9,0.5,9,0.6,12.4,0.5c1.2,0,3.2,1.6,3.2-1c-1.4-1.4-4.2-1.8-5-1.4v-1.8
		c-1.7-0.4-3.1,2-4.7,0.5c1.2-1.8,5.5-0.7,5.5-3.7c-4.1,0.7-6.7,3.6-10.6,3.2c-0.1-1.3,0.4-3.1-1-3.2
		C131.4,364.2,128.9,363.7,128,365.2z"/>
	<path d="M346.5,361c-0.2,0.7-0.7,1.2-1,1.8c1.7,0.8,3.5,1.1,5.5,0.5C350.3,360.7,347.8,362.4,346.5,361z"/>
	<path d="M339.1,361.5c-0.1,2,2.7,1.2,4.2,1.8C342.9,361.6,341.3,361.2,339.1,361.5z"/>
	<path d="M565.9,361.9c-0.5,1.7,1.8,0.6,2.7,1C569.1,361.1,566.6,361.2,565.9,361.9z"/>
	<path d="M204.5,362.4c-1.1-1.2-4.1-0.4-3.7,1.4C202.5,363.6,204.4,364,204.5,362.4z"/>
	<path d="M254.2,364.2c1,0.7,4.2,0.5,4.2-1.4C256.8,362.3,254.8,362.1,254.2,364.2z"/>
	<path d="M104.5,362.8c-1.8,0.4-4.1,0.2-4.2,2.3C102,364.6,103.9,364.3,104.5,362.8z"/>
	<path d="M178.2,364.2c0.7,1.1,3-0.4,3.2-1.4C180,362.9,178,362.4,178.2,364.2z"/>
	<path d="M45.1,366c1-0.4,2.7,0,2.3-1.8h-1.4C46.5,365.6,44.5,364.6,45.1,366z"/>
	<path d="M125.3,365.6c0.8-0.1,2.3,0.5,1.8-1h-1.8V365.6z"/>
	<path d="M546.1,366.5c-0.2,0.8-1.3,0.8-1,2.3h2.3C547.6,367.6,547.6,366.4,546.1,366.5z"/>
	<path d="M357.5,369.7c-0.1-0.8,0.5-1.1,0.5-1.8c-2.4-0.5-3.3,0.6-3.2,1.4c-2-1.9-4.5-0.7-7.9-1c-1.3,0.7,0.8,1.9-0.5,2.3
		c-2.4,0.5-4.8-0.1-7.4,1c1.9,3.6,7.8-0.5,10.6,1c-0.1,1.1,0.1,1.8,1,1.8c4.3-1.6,10,0.7,13.4-1.4c-1.7-1.2-4.3-0.4-6.5-1.8
		c4.2-1.1,7.6,1.1,10.6-1C365.3,369.3,359.9,369.7,357.5,369.7z"/>
	<path d="M113.7,372.1c-0.5,3.2,4.2,1.4,3.7,4.7c3.1-0.2,7.3,0.6,9.7-0.5C127.5,370.2,118,371.9,113.7,372.1z"/>
	<path d="M180.1,372.9c-3.7-0.1-8.1-0.1-11.5,0c-4.3,0.1-10-1.3-11.5,1.8c3.2-0.1,9.8-0.5,15.7-0.5
		C175.4,374.4,179.2,375.4,180.1,372.9z"/>
	<path d="M80.1,373.4v1.8c3.6,0,10.2,0.7,12-1.4C88.6,373.2,84.2,373.5,80.1,373.4z"/>
	<path d="M95.3,378.5c1.3-0.1,3.6,0.8,4.2-1c-1.1-2-4.3-0.7-6.5-0.5c-2.3,0.2-6.1-0.2-6.5,1.8C89.4,379.3,92.5,378.8,95.3,378.5z"/>
	<path d="M72.7,378.1c-0.1-0.5-0.5-0.7-1-1c-4.3,1-11.8,0.4-16.6,0.5c-1.6,0-4.1-0.8-4.7,1c0,2.2,2.9,1.3,4.2,1.4
		c4.1,0.2,7.2-0.7,9.7-1C67.4,378.7,70.9,380.1,72.7,378.1z"/>
	<path d="M503.2,393.7v2.3c1.2-0.2,7.3,1.4,6.5-2.3H503.2z"/>
	<path d="M550.2,395c1.2,0.8,5.4,0.8,5.5-1C554.6,393.4,550.1,393.1,550.2,395z"/>
	<path d="M572.3,398.3v1.8c4.5-1,11.5,2.9,12.9-1C582.4,397.8,575.5,397.9,572.3,398.3z"/>
	<path d="M451.6,404.7c-1,1.1-0.4,3,1,3.2C452.9,406.9,453.4,404.8,451.6,404.7z"/>
	<path d="M518.9,408.9c1.2-0.1,2.2-0.6,2.7-1.4c-0.1-1.9-2.3-1.7-3.7-2.3C516.7,406.6,518.2,408.1,518.9,408.9z"/>
	<path d="M517.9,405.2L517.9,405.2L517.9,405.2z"/>
	<path d="M536,407.1c1.6,1.3,2.7,0.4,5,0.5C541.6,405.6,536,405.6,536,407.1z"/>
	<path d="M548.4,406.6c-0.1,1.1,0.1,1.8,0.5,2.3c1.2-0.5,3.6,0.2,3.2-1.8C551.8,406,549.5,406.9,548.4,406.6z"/>
	<path d="M575.1,409.4c1.1,2.5,4.9,2.3,7.9,2.7C582.4,409.3,578.5,409.5,575.1,409.4z"/>
	<path d="M453.9,413.6c0-1.7,0.4-3.7-1.8-3.2C451.8,412.3,452.1,413.7,453.9,413.6z"/>
	<path d="M446.9,412.1v1.8c1.8-0.1,2.2-1.6,4.2-1.4v-1.8C448.6,410.1,449.6,412.9,446.9,412.1z"/>
	<path d="M513.9,415.4c1.7-0.5,5.4,1.1,5.5-1c-1.9-1.3-3.5-1.1-5.5-1.4V415.4z"/>
	<path d="M149.2,415.8v1.8c2,0.5,9.3,2.3,10.6-0.5C158.3,414.8,152.9,416.2,149.2,415.8z"/>
	<path d="M212.8,418.1c-5.4-1.4-14.2,0.1-21.6-0.5c-2.7-0.2-5.4-1.6-7.9-1c-0.1-0.6-0.5-0.2-1,0v1.4c5.6,0.8,12.2,1,19.8,1
		C206.6,419.1,211.3,420.3,212.8,418.1z"/>
	<path d="M272.8,419.1c0.8-0.1,1.4-0.8,2.3-1c2.9-0.4,6.8,1.7,8.7-1l0,0c-1.7-2-4.4-0.2-6.5,0c-3.9,0.4-7.8,0.6-10.6,1
		c-5.6,0.6-13.1-0.8-18.4,0c-0.8,0.1-3,0.1-3.2,1.4c1.7,3.2,5.1,0.7,7.4,0.5C258.3,419.4,265.7,419.5,272.8,419.1z"/>
	<path d="M536.5,419.1c3.7-0.2,7.3,3.5,9.7,0.5C544.9,417.4,537.1,417.3,536.5,419.1z"/>
	<path d="M485.7,421.3c-0.6-1-3.9-0.6-4.7,0v1.4C482.8,422.4,485.9,423.6,485.7,421.3z"/>
	<path d="M62,423.3c-2.3-1.6-7.2-0.5-10.2-1.4c-0.1,1.2-0.1,2.3,0.5,2.7C54.5,424.8,62,426.6,62,423.3z"/>
	<path d="M434.5,435.7c0.2-4.3,0.1-7.9,1-12.4c-0.1-0.4-0.4-0.5-1-0.5c-2.3,8.8-4.4,17.7-6,27.3c3.5-2.6,2.6-9.7,4.2-14.3H434.5z"/>
	<path d="M551.2,424.6c2.6,0,5.3,2.2,6.5,0C555.8,423.7,552.5,422.3,551.2,424.6z"/>
	<path d="M456.6,427.3c0-1.3,0-2.7-1.4-2.7C455.3,426,455.1,427.7,456.6,427.3z"/>
	<path d="M99.9,425.5c-5.1-0.8-10.8,1.1-15.7,1c-2.4-0.1-5.6-2.2-6.9,0.5c1.1,2.5,4.9,1.1,6.9,1c3.8-0.4,9.2,0.5,12,0
		C97.5,427.6,99.8,427.6,99.9,425.5z"/>
	<path d="M457.1,434.7c1.6-1.9,0.5-6.2-1.8-6.9C455.3,430.7,454.7,434.3,457.1,434.7z"/>
	<path d="M546.1,434.7c2.3-0.7,4.9,1.8,5-1C550,432.8,545.4,431.1,546.1,434.7z"/>
	<path d="M240,439.4c3.8,0.5,10.3,3,11.5-0.5C248.4,438.8,241.8,436.4,240,439.4z"/>
	<path d="M494.5,476.2c-0.8-1.8-5.5-1-5,1.4C491.2,477.3,494.6,478.6,494.5,476.2z"/>
	<path d="M478.7,476.7c-1.8-0.1-2.9,0.5-3.2,1.8c1.6,0,3.8,3.6,5,1C479.3,479.2,479.2,477.8,478.7,476.7z"/>
	<path d="M304.6,482.7c2.9-0.2,6.5,1,7.9-1l0,0c0-2.4-2.9-1-3.7-1c-6.7,0.2-12.3,1.2-18.4,1.4c-4.7,0.1-9.3-1.3-13.9-1
		c-1.8,0.1-3.7,1.4-5.5,1.4c-1.6,0-3-1.1-4.7-1.4c-6.9-1.1-14.9-2-22.1-1.8c-4.1,0.1-7.8,1.6-12,1.8c-3.5,0.2-7.1-0.8-10.6-0.5
		c-1.9,0.2-3.7,1.2-5.5,1.4c-4.5,0.5-9.2-0.5-13.9,0c-3.1,0.4-7.4,1.2-12,1c-2.6-0.1-5.4-1.3-7.9-1c-1.4,0.2-2.6,1.6-4.2,1.8
		c-4.2,1-8.5-0.5-12.4,0c-0.5,1.7,1.8,0.6,2.7,1c0.5,1.2-1.6,2.4,0.5,2.3c6.2,1,12.4,0,17.9-0.5c1.9-0.1,4.5,1,6-1
		c-2.3-1-6.3-0.1-7.9-1.8c15.9,0.2,32-1.1,46.5-1c4.5,0,8.8-1.7,13.4-1.8c7.5-0.4,15.3,1.7,23.1,2.3
		C280.5,484.6,294.9,483.5,304.6,482.7z M173.7,486.4c1-2.7,6.7-1,9.2-1C181.3,487.2,176.7,486,173.7,486.4z"/>
	<path d="M164.8,484.9c-0.1-2.9-4.3-1.7-6.9-1.4c-2.6,0.4-5.7,0.7-6.9,1.8C155,486.7,159.1,484.3,164.8,484.9z"/>
	<path d="M147.9,485.4c0.6,0.6,2.7,0.8,2.7-0.5C150,484.3,147.9,484.2,147.9,485.4z"/>
	<path d="M165.8,486.4c-1.3,0.4-4.3-1-4.2,1C162.9,486.8,166,488.3,165.8,486.4z"/>
	<path d="M418.8,487.3c-1.8,0.2-4.4-1-4.7,1.4c1.3,2,4.1,0.6,6,0.5c4.2-0.2,9-0.5,13.4-0.5l0,0c0-0.6-0.2-1-0.5-1.4
		C428,486.4,423.9,486.7,418.8,487.3z"/>
	<path d="M93.8,488.2c-6.2-0.7-17.3-0.5-23.5-1.4c0,1,0,1.8,0,2.7c5.3-0.5,10-0.2,14.7-0.5C88,489,91.6,490,93.8,488.2z"/>
	<path d="M110.9,489.1c0.2-1.8-1.4-1.7-3.2-1.8c-2.7-0.2-10.8,0.4-11.5,1.8C99,490.1,105.7,488.6,110.9,489.1z"/>
	<path d="M112.4,489.1c2.9-0.7,9.8,1.6,10.2-1.4C119.3,487.8,114.3,486.7,112.4,489.1z"/>
	<path d="M124.8,487.3c-0.2,1.2,3.3,2.3,3.2,0.5C127.8,486.7,125.7,487.6,124.8,487.3z"/>
	<path d="M497.3,497.4c2.7-0.5,7.3,1.4,8.2-1.4c-5.1-2.5-10.9,1.9-17.1,1.4C490.7,500.8,495.1,497.7,497.3,497.4z"/>
	<path d="M449.3,499.8c-0.1,0.6-0.6,0.8-0.5,1.8h1.8C450.8,500.4,450.5,499.6,449.3,499.8z"/>
	<path d="M476,500.2v1.4c5.7,0,14.3,0.1,18.4,0.5c-2.6-3.2-8.4-1.9-11.1-1.8C480.5,500.2,477.6,499.8,476,500.2z"/>
	<path d="M454.3,503c-3.7-0.5-7.2,1-10.6,1l0,0c1.1,2.5,4.8,2.6,5.5,5.5c2,0,2.7,1.3,5,1c0,0.6-0.6,0.6-0.5,1.4c1.6-0.5,5,1.1,5-1
		c-0.8-1.9-3.3-2.3-5-3.2h6.5c0.2-0.8-0.7-1.2,0-1.4c0.8,1.3,4.5,1.7,3.7-1.4C460.3,505.8,457.2,503.3,454.3,503z"/>
	<path d="M257.5,506.2c-6.1,0.6-14,2.5-20.8,1.4c-4.1-0.6-13.6-2.5-14.7,1.8c8.8-0.2,19-0.8,29-1.4c4.7-0.2,9.4,0.6,13.9,0
		c0.4,0,2.5-0.1,2.7-1.4l0,0C265,505.1,261.2,505.8,257.5,506.2z"/>
	<path d="M511,506.2c-0.2,1.9,0.1,3.2,1.8,3.2c1.2-0.4,1.6-1.4,1.4-3.2C513.6,505.5,511.7,505.5,511,506.2z"/>
	<path d="M187.4,508.5c0,2.6,3,1,4.7,1h8.2c0.7,0,0.4-1.2,1.4-1c2,0.1,5.4,1.4,6-1C200.3,507.9,195.7,508.7,187.4,508.5z"/>
	<path d="M221.6,509.4c-2.7-4.5-9.8,0.4-14.3,0C210,512.4,216.6,508.6,221.6,509.4z"/>
	<path d="M186.9,508.5c-2.7-0.2-8-0.1-10.6,0C177.9,510.4,185.8,510.8,186.9,508.5z"/>
	<path d="M444.7,512.2c0.8,1.4,3.9,0.6,5,1.8h-2.7c-0.4,1.3,0.6,1.2,0.5,2.3c2.9,0.4,6.3,0.1,8.7,1c-1.1,1.4-4.4,0.6-6,1.4
		c0.5,2.5-0.5,3.6-1.4,4.7c-0.4,2.4,1.2,2.9,1.8,4.2c-0.2,0.8-1.3,0.8-1,2.3c0.6,1.2,1.4,2.2,3.7,1.8c-0.1-2.7,3.1-2.2,5-2.7
		c0.4-2.9-2.9-2-3.2-4.2c2.6-0.8,4.9,0.4,8.2,0c-0.6-3.9-8.6-2-11.5-2.3c0-3.9,5.9-2.2,7.4-4.7c-0.5-2.4-3.1-1.4-1.8-4.7
		c-1.3-0.6-2.7-1.2-5-1c0-0.6,0.6-0.6,0.5-1.4l0,0C449.8,510.3,445.6,507.8,444.7,512.2z"/>
	<path d="M467.2,534.8v-1c-8-1.7-12.8-0.7-19.8-1.4c0.1,0.8-0.5,1.1-0.5,1.8c3.2,2.4,6.9-0.5,10.6,0
		C460.7,534.8,464.9,538.1,467.2,534.8z"/>
	<path d="M453.4,539.3c0.1-1.3,0-2.5-1.4-2.3c-0.6,0.8-1.2,1.9-1.4,3.2c2.7,1.3,0.5,4.9,2.3,6.9c3.1,0.2,3-2.6,5.5-2.7
		c-0.2-2.3-0.2-2.4,0-4.7C456.5,540,455.1,539.6,453.4,539.3z"/>
	<path d="M509.7,562.9c2.9,0.8,5.6,1.4,7.4-0.5c1.4,0.8,3.6,1.6,3.7-1c-2.9-1.1-7.5-0.2-11.1-0.5L509.7,562.9L509.7,562.9z"/>
	<path d="M531.8,563.3c0,0.6,0.2,1,0.5,1.4c1.6,0.4,7.3,1.6,7.4-1l0,0C536.8,563.1,533.9,562.7,531.8,563.3z"/>
	<path d="M552.6,564.3c-1.3,0.1-3.8-0.8-4.7,1c1.2,1.8,5.5,0.7,8.2,1c1.9,0.1,5.1,0.7,5.5-1C559,563.2,555.2,564.1,552.6,564.3z"/>
	<path d="M293,570.3c-2-1.7-8.8-0.7-9.2,2.3C286.4,573,292.3,573,293,570.3z"/>
	<path d="M262.1,572.1c-1.9,0.1-5.1-0.5-7.4-0.5c-1.4,0-4.2-1.8-4.7,1c4.3,3.1,13.6,0.5,17.6,1c-0.2-1.1,0.8-1,0.5-2.3l0,0
		C266,570.2,264.5,572,262.1,572.1z"/>
	<path d="M349.3,572.5c-7.3-0.5-16.5-1.3-23.1-1.4c-2,0-4.3,1-6.5,1c-2.7,0-5.6-1.2-8.2-1.4c-3.1-0.2-6.1,0.2-8.2,0
		c-1.3-0.1-3,0.6-3.2,2.3c6.1-0.5,12.4,0.1,17.9,0.5c9.2,0.6,18.9,0.2,27.6,1c3.5,0.2,7.2,0.6,10.2-0.5l0,0
		C354.6,571.6,351.3,572.7,349.3,572.5z"/>
	<path d="M43.6,599.8c3.1,0.8,4.2,3.8,7.9,4.2C55.3,599.7,43.6,591.9,43.6,599.8z"/>
	<path d="M452.5,611.8L452.5,611.8c-5.9-1.1-12.2-1.3-17.9-2.3c-0.7,0.1-0.5,1.1-0.5,1.8c3.1,1.1,7.6,0.6,11.5,1
		C448.1,612.4,451.4,614,452.5,611.8z"/>
	<path d="M515.2,613.1c-1.4,0.2-4.2-1-4.7,1c2.6,1.7,6.8-0.5,11.1-0.5c1.1,0,1.9,0.4,3.2,0.5c3,0.2,9.2,0.7,9.2-1.8l0,0
		C528.7,611.4,519.4,612.5,515.2,613.1z"/>
	<path d="M353.8,615.5c-0.6,0.1-0.5,0.7-1,1c-0.7,0.2-3.2-0.7-2.7,1c4.9-0.7,11.5,0.1,14.3-2.7C361.7,615.1,357.4,614.7,353.8,615.5
		z"/>
	<path d="M29.8,616.8c-4.4-2.2-10.2-1.2-15.7-1c-3.1,0.1-7.3-1.2-8.7,1.4c0.4,3.2,3.8,1.2,6,1c3.8-0.4,8.4-0.4,12.4-0.5
		C25.8,617.7,28.8,618.6,29.8,616.8z"/>
	<path d="M343.8,618.2c3.3,0.5,6.5,3.8,8.7,1.4c-1.2-1.2-2.9-1.7-4.2-2.7c-7.1-0.1-15.8-1.1-22.1-0.5v1.4
		C331.5,619.2,338.2,617.4,343.8,618.2z"/>
	<path d="M371.4,619.5v1.4c6.2,0.2,12.4,0.6,18.4,1.4c2.6,0.4,6.7,2.9,8.2,0c-3.2-2.3-8.4-0.8-12.9-1.8c-3.7-0.8-9.3-1.1-12.9-1.4
		C371.9,619.2,371.7,619.5,371.4,619.5z"/>
	<path d="M398.2,622.4L398.2,622.4L398.2,622.4z"/>
	<path d="M14.6,621.9c3.1-0.5,7.9,0,8.7-1.8c-5.7-1.2-11.7,0.6-16.1,0v2.3C9.4,623.6,12.1,622.3,14.6,621.9z"/>
	<path d="M398.6,624.7c0.4,1,2.2,1.3,3.2,1.4c2,0.1,6.5-0.8,6.9-1.8C406.8,622.9,399.8,622.5,398.6,624.7z"/>
	<path d="M145.9,624.2v1.8h1.8C148,624.5,147.4,623.9,145.9,624.2z"/>
	<path d="M551.2,627.4c-4.9,0.4-10.8-0.6-15.7-0.5c-1.3,0-3.7-0.5-4.7,1c8.5,1,21.6,2.3,31.3,0.5c2.2,1.2,7.6,1.9,6.9-2.3
		C563.6,623.2,557,626.9,551.2,627.4z"/>
	<path d="M450.6,627.4c-1-0.1-2.4-2.4-3.2,0c0.1,0.4,0.4,0.5,1,0.5c8.5,1.2,23.5,1.8,34.5,1.4c1.3,0,4.9,1.1,5-1.4l0,0
		C478,627.9,462.8,628.6,450.6,627.4z"/>
	<path d="M530.4,627.4c-1.3-1.3-3.7-0.1-6,0c-2.5,0.1-6.9-1.2-7.4,1.4c1.9,0.5,4.5-0.2,7.4-0.5C526.3,628.2,529.2,629.2,530.4,627.4
		z"/>
	<path d="M23.8,630.2c-2.5-4.2-11.4-0.8-15.2-2.7c-0.1,0.6-1,0.5-1.4,1c-0.4,1.3,0.6,1.2,0.5,2.3C13.4,631.5,18.9,629.9,23.8,630.2z
		"/>
	<path d="M512,628.4c-2.4-0.1-4.8-0.7-6.5,0c1.8,2,7.3,0.4,10.6,1C516.1,626.7,513.3,628.4,512,628.4z"/>
	<path d="M292.1,633.9c1.7,0,3.2,0.6,5,0.5c1.7-0.1,3.2-0.8,5-1c5.7-0.1,13,0.4,18.4,1c2.2,0.2,4.4-0.7,5.5,1.4
		c-2.5,0.1-4.4-1.6-5.5,1c1.2,0,6.9,0.8,7.4-1.4c6,0.7,9.3-1.1,13.9-1.8c1.1,0.2-0.2,2.7,1.8,1.8c1.4,0,1.3-1.4,1.4-2.7l0,0
		c-2.4-0.4-5.7-0.8-8.7,0c-0.7,0.2-1.6,1.3-2.3,1.4c0,0-0.7-1-1.4-1c-0.6,0-1.4,1-1.8,1c-1.3,0-2.7-0.8-4.2-1
		c-13.7-1.2-26.8-0.7-40,0C287.2,635.8,290.3,633.9,292.1,633.9z"/>
	<path d="M360.3,637.1c-3-2.6-11.6-0.7-15.2-1.4c-0.6,1.1,1.2,1.7,0,1.8c-1.6,0.1-0.8-1.9-2.3-1.8l0,0c-1.9,1-3.3,2.5-6.9,1.8
		c0.1,1.7,2.3,0.8,3.2,1c1.6,0.1,3.2,0.1,4.7,0c3.8-0.4,9.4,0.4,13.9,0C358.5,638.4,359.9,638.4,360.3,637.1z"/>
	<path d="M158.4,637.1c-0.4,1.8,3,1,2.3-0.5C159.7,636.5,159,636.7,158.4,637.1z"/>
	<path d="M501.8,637.6c0,0.6,0.2,1,0.5,1.4c1.4-0.2,3.9,0.6,4.2-1l0,0C505.1,637.6,502.7,636.9,501.8,637.6z"/>
	<path d="M335.4,638.5c-1.3-1.1-2.7-0.1-4.2,0c-2,0.1-5.3-0.2-6.5,1.4c1.8,0.5,4.9,0.7,6.5-1C332.2,639.7,335,639.6,335.4,638.5z"/>
	<path d="M511.5,638.5c-0.2,2.2,2.6,0.7,2.7,1.4c0.1,1.7-3.1,0-2.3,2.3c2.9,0.1,8-0.1,11.5-1c1.6-0.4,3.9-0.8,4.2-2.3
		C522.6,638.3,515.1,637.9,511.5,638.5z"/>
	<path d="M319.3,642.6c2.7,0.1,7.8,1,9.2-1.4l0,0c-5-0.5-15.2-0.6-20.3-1v1.4C312,641.4,315.8,642.5,319.3,642.6z"/>
	<path d="M345.6,642.1c1,0,2,0.8,3.2,1c1.1,0.1,2.5-0.1,3.7,0c2.5,0.2,5.5,1.4,6.9-1c-4.5,1.2-9.4-1.2-14.3-1.4
		c-0.7,0-1.6,0.8-2.3,1c-1.7,0.1-4.1-0.4-6-0.5c-2.7-0.1-5.9-0.7-6.5,0.5C334.7,644,340.4,641.9,345.6,642.1z"/>
	<path d="M369.6,645c11.2-0.5,19.6-0.7,32.3-1.4c1.4,1.8,7.6,2.4,7.4-1.4l0,0c-12-0.8-26.5,1.4-37.8,0
		C372.1,644.4,369,642.8,369.6,645z"/>
	<path d="M479.2,648.6c-0.6-1.2-1.4-2.3-2.7-2.7c-8.5-0.2-19.6-1.1-29,0c-0.6,0.1-0.5,0.7-0.5,1.4c1.7,2,4.3,0.6,6.5,0.5
		c4.9-0.2,10.5-0.7,15.2,0c-2,0.2-5.4-0.8-5,1.8c3.9,1.4,8.1-0.1,12,0c2.5,0.1,5.1,1.2,7.4,1.4c1.3,0.1,3.6-1.1,4.2,1h-11.5
		c-3.8,0-8-0.7-10.6,1c0.6,2.9,3.2,0.8,5,1c5.3,0.2,12.7,1.6,18.9,1c0.4-2.2-3.8,0.1-4.2-1.4c3.2,0.4,5.3-0.6,8.2-0.5
		c1.1-0.2-0.1-2.5,1.4-2.3c1.4,0.2,3.9-0.6,4.7,0.5c0,0.7-1.2,0.4-1,1.4c3-0.1,7.1,0.8,6.5-2.7l0,0
		C496.9,647.3,488,651.1,479.2,648.6z"/>
	<path d="M89.8,656c-0.4-1-2.6-0.1-2.7-1.4c3.2-1.6,10.8,1.2,11.5-2.7c-0.8-1.2-2.2-1.9-4.2-1.8c0.1,0.6-0.1,1.3,0.5,1.4
		c-2.2,1-5.7,1.2-9.2,1.4c-4.8,0.4-9.9-0.4-13.9,1c-0.8,3.2,2.3,2.6,2.3,5c3.1-0.4,5.4,0.2,6.9,1.4C83.6,658.4,88.6,659.1,89.8,656z
		"/>
	<path d="M233.6,653.7c1.9,0.1,3.9,1.2,6,1.4c3.2,0.2,6.3-0.5,9.2,0c1.3,0.2,2,1,3.2,1c1.7,0,3.7-1.3,5.5-1.4c2-0.1,5.6,3,5.5-1
		c-4.5-2.2-9-0.1-13.4,0c-8.1,0.2-16.4-1.9-25.8-1.4C226.2,655.1,230.3,653.5,233.6,653.7z"/>
	<path d="M489.8,656.9c0.6,0.5,1.4,0.7,1.8,1.4c4.2-1.6,10.5-0.1,14.7-0.5c1-0.1,2.6-0.1,2.7-1.4c-2.5-2.3-9.9,1.2-12.9-1.4
		c1-0.2,3.2,0.7,2.7-1c-2-1.1-6-0.1-8.7-0.5l0,0C490.6,655.1,489.5,655.3,489.8,656.9z"/>
	<path d="M279.2,655L279.2,655c-0.7,0.2-1.2,0.7-1.8,1c1,3.3,6.3,1.4,8.7,1.4c19.7-0.6,36.9,1.7,53.4,1.4c7.8-0.1,15.7,0.5,23.1,0
		c6-0.4,11.7-1.4,17.6-1c4.2,0.4,9.3,3,11.1,0c-4.1-2.3-9.1-1.8-13.9-1.8c-5.4,0-11,0.2-16.6,0.5C331,657.7,307.7,654.4,279.2,655z"
		/>
	<path d="M208.7,660.2c-0.4-1.8-2.6-0.8-3.7-1c-4.2-0.6-9.8-1.7-13.9-2.3c0,0.6,0,1.2,0,1.8C195.8,661,202.4,660.6,208.7,660.2z"/>
	<path d="M257.1,661c0.5,0.6,0.5,1.7,1,2.3c4.1-0.5,11.5,2.6,12-2.3c-6.2,0.6-14.9-2.6-24-1.8c-2.3,0.2-6,0.5-6.9,2.7
		C244.1,660.8,251.4,660.2,257.1,661z"/>
	<path d="M101.7,660.2c-4.8,0-12.7-1.7-16.6,0.5c2.2,0.4,5.1,0.8,7.9,1C96.3,661.6,100.6,662.1,101.7,660.2z"/>
	<path d="M117.9,662.4c0-2.5-3.3-1.6-5.5-1.8c-3-0.4-7.7-1.4-9.2,0.5c1.6,1.1,5.3-0.1,6.5,1.4c-1.8,0.5-4.1,0.5-4.7,2.3
		C108.7,665.2,116.1,665.4,117.9,662.4z"/>
	<path d="M117.9,662.4L117.9,662.4L117.9,662.4z"/>
	<path d="M417.9,660.6h-2.3C415.3,662.6,418.1,662.2,417.9,660.6z"/>
	<path d="M420.3,660.6L420.3,660.6L420.3,660.6z"/>
	<path d="M442.9,662c3,0.1,9,1.6,10.6-0.5c-9.8-2-23.1-0.4-33.2-1c1,1.6,2.7,1.7,4.2,1.8C429.8,663,436.3,661.6,442.9,662z"/>
	<path d="M517.1,661c-0.7-0.5-5-1.3-5,0.5C514.3,661,516,662.8,517.1,661z"/>
	<path d="M523.5,661.5c-1.1,0-3.6-1.7-3.7,0.5c1.8,1.1,5.7,0.1,8.2,0.5C528,660.3,525.2,661.6,523.5,661.5z"/>
	<path d="M528.1,662.4L528.1,662.4L528.1,662.4z"/>
	<path d="M577.5,663.4c-4.8-2.2-11.2-2.2-16.6-2.3c-11.5-0.2-23.2,0.5-32.3,0.5c0.2,1.8,2.6,0.8,3.7,1c7.1,0.6,13.6-0.5,18.9,1
		c-0.2,1.4-4.2-0.7-3.7,1.4h5.5c0.2-0.8-0.7-1.2,0-1.4c0.8,0.2,0.4,1.8,1.8,1.4c5.1-0.2,10-0.7,15.7-0.5
		C572.2,665.2,577.5,667.1,577.5,663.4z"/>
	<path d="M377.4,664.2c0.1,4.7-8.4,0.6-9.2,4.2c4.1,0.4,8.6,0.2,13.9,0.5c0.7-2-3,0.2-2.3-1.8c7.2-1,13.3-1.4,19.4,0
		c-0.8,0.1-2.3-0.5-1.8,1c3.5,0.6,4.9-1,6.5-2.3c1.7,1.8,4.1,0,6.9,0.5c-0.1-1.8-0.6-1.8,1-2.3c1.9-0.1,1.1,2.6,3.7,1.8
		c0.2-0.8,1.3-0.8,1-2.3l0,0C404.3,660.9,392.2,665.7,377.4,664.2z"/>
	<path d="M547,663.9h-4.7C542,665.9,547.5,665.9,547,663.9z"/>
	<path d="M527.1,665.7c1.8-0.5,5.6,1.1,6-1C532.8,664.7,527.5,664,527.1,665.7z"/>
	<path d="M431.7,665.7c-0.5,1.6,1.4,0.7,2.3,1C434.4,664.9,432.5,664.9,431.7,665.7z"/>
	<path d="M435.5,665.7c-0.1,1.9,2.9,0.5,4.2,1C439.5,664.9,436.4,664.8,435.5,665.7z"/>
	<path d="M506.9,668.9c3.3,0.8,7.1-0.6,11.1,0.5v-1.8c-2.4-0.7-7.2-1.8-9.2,0c0.7-1.7-1.6-0.2-1.4-1.4c-3.7-0.6-7.6,0.5-11.1,1
		c-1.9,0.2-5.4-1.3-6,1.4c4.3,1.4,12-1.8,17.6-0.5C507.3,668.1,506.7,668.1,506.9,668.9z"/>
	<path d="M80.6,666.6h-8.8C72.4,668.8,80.1,669.6,80.6,666.6z"/>
	<path d="M98,667.5c1-0.2,3.2,0.7,2.7-1H98V667.5z"/>
	<path d="M386.6,667.9c2.3-0.5,5,1.7,5.5-1C390.4,666.7,387,665.9,386.6,667.9z"/>
	<path d="M386.1,667.1c-1.8,0-3.3,0.4-3.7,1.8C384.5,669.1,385.8,668.7,386.1,667.1z"/>
	<path d="M115.6,668.4h-1.8C113,670.6,116.1,670.1,115.6,668.4z"/>
	<path d="M395.8,673.9c-1.9-1.2-4.8-1.2-6.9-1.4c-5.5-0.4-10.3-0.6-13.4-0.5c-13.7,0.8-28.6,0.2-42.4-1c-3.1-0.2-6.8,1-8.2-1
		c4.5-1.9,10,1.3,13.4-0.5l0,0c-1-2.2-3.8-1.3-6-1.4c-2.3-0.1-5.6-0.4-7.9,0c-1.1,0.2-2,1-3.2,1c-1.4,0-5.1-1.4-5.5-1
		c-1.1,1.4-1.1,0.1-1.8,0.5c-1.1,0.4-1.4,1.6-2.7,1.8c-1.7-0.7-2.2,0.1-3.7-1c-5.1,1.6-12.3-0.2-18.4,0c-1.3,0-2.9,0.5-4.2,0.5
		c-3.9,0.1-8.6-1.4-12.4,0.5c2,3.3,6.9,1.8,9.7,1.8c3.5,0,7.2-0.1,10.6,0c6.7,0.2,13.6-0.4,20.3,0c1.4,0.1,2.4,0.8,3.7,1
		c1,0,2.3-0.5,3.2-0.5c11.5,0.1,23.3,2.2,34.5,1.8c8.8-0.2,18.6-1,28.1-1C387.4,674,391.9,675.8,395.8,673.9z"/>
	<path d="M342.8,668.9c-1.1,0-1.3-0.8-2.7-0.5C339.3,669.8,342.8,669.6,342.8,668.9z"/>
	<path d="M106.7,673.1c6.5-0.5,13.7,1.1,19.8,0.5c1.8-0.2,4.4-0.5,5-2.7c0.4-1.8-1.8-1.3-3.2-1.4l0,0c0,0.6,0.2,1,0.5,1.4
		c-2.5,2.4-5.6,0.1-8.7,0c-6.1-0.2-12.6,1.3-17.9,1.8c-2,0.1-5.3-1.8-6,1.4C99.7,675.1,102.8,673.3,106.7,673.1z"/>
	<path d="M501,669.8c-0.2,2.7,4.1,2.9,4.7,1.4C503.7,671,502.9,668.3,501,669.8z"/>
	<path d="M148.7,671.6c0.6,1.2,6,1.8,6.5,0C153.7,671.5,149.4,669.6,148.7,671.6z"/>
	<path d="M542.4,677.6c1.9,0,4.3,1.6,6-0.5c-0.8-2.5-4.1-1.3-6-1.4c-2.6,0-5.6,0.1-8.2,0c-6.3-0.2-17.3-0.7-22.1-3.2
		c4.9,0.5,6.7,0.6,11.1,0c-2-2.9-6.8-0.8-10.6-1c-2.2,0-3.9-0.5-5.5-1c-1.2,3.6-3.3,1.4-7.9,2.3c-1.6,0.2-2.6,1.3-3.7,1.4
		c-7.6,0.7-17.3-1.8-27.3-2.3c-3-0.1-6.1,0.1-9.2,0c-9.8-0.5-20.3-1.3-28.6,0c-1.2,0.2-2.6,0.8-3.7,1c-2.6,0.2-6.2-1-7.4,1
		c4.8,2.9,10.4,0.8,15.7,0.5c13.6-1,28.7-0.1,38.3,1c5.9,0.6,13,0.5,18.9,1c4.3,3.5,9,1,14.3,0.5c3-0.2,6.5-0.2,9.7,0
		C524.6,677.4,534.1,677.4,542.4,677.6z"/>
	<path d="M523.1,672.6L523.1,672.6L523.1,672.6z"/>
	<path d="M157.5,672.1c0.4,1.7,3.2,0.7,4.2,1.8c-0.1-1.2,2.6,0.5,1.8-1.4C161.7,671.4,159.1,671.9,157.5,672.1z"/>
	<path d="M396.7,674.4c2.9,0.7,6.3,0.7,9.2,1.4C406.6,671.9,397.1,673.1,396.7,674.4z"/>
	<path d="M354.3,680.4c5.5,0,11.6-1.4,16.1-1c1.2,0.1,2.5,1,3.7,1c2.9,0,6.5-1.6,9.7-1.4l0,0c-1.1-2.9-4.7-1.3-6.9-1.4
		c-8.8-0.1-16.4,1.1-25.3,1c-7.3-0.1-15.1-0.7-22.6-0.5c-5.9,0.2-11.7,0.5-17.6,1.8c-2.2-0.1-7.1-1.9-8.2,0c0.6,1.7,3,1,4.2,1
		c6.6,0.1,14.9,0.2,20.3-1c3.7,2.6,7.5,0.4,12,0C343.8,679.6,349,680.4,354.3,680.4z"/>
	<path d="M39.9,683.2c-7.1-0.5-13-1.8-20.3-1.8c3.6-2.2,14.6,1,17.9-2.7c-9.3,0.1-22.8,1.2-30.8,1c-1.7,0-5-1.1-5.5,1.4
		c1,1.6,3,1.1,4.7,1.4c14.2,2.4,30.2,2.5,43.7,2.3C47.6,682.2,43.4,683.4,39.9,683.2z"/>
	<path d="M50.6,678.1c-2,0.1-5.7-0.1-6.5,1.8c3.8,1.1,10.4,0.5,12-1.4C54.7,678,52.5,678,50.6,678.1z"/>
	<path d="M430.4,682.8c1.3,1.6,6-0.1,7.9-1c2.9,1,7.4-0.2,11.5-0.5c2.2-0.1,5.4,1.7,6-1.4c-8.5-0.6-16.5-0.1-24.4-0.5
		c-3.8-0.1-7.3,0.1-10.6,0c-2.9-0.1-7.2-3.1-9.2,1c2,0.1,4.5,0.4,6.5,0.5c5.5,0.5,12.7-1,16.9,0.7
		C433.3,681.1,430.3,681,430.4,682.8z"/>
	<path d="M427.2,683.6c1-0.2,3.2,0.7,2.7-1h-2.7V683.6z"/>
	<path d="M422.5,685.5c1.8-0.7,4.5,1.4,4.7-0.5c-0.2-1.6-2.9-1.8-4.7-1.8c-1.4,0-4.7,0.2-5,1.4C418.1,686,420.6,685.4,422.5,685.5z"
		/>
	<path d="M320.2,685.5c2.4,0,5.7-0.4,8.7-0.5c1.9,0,4.8,0.8,5.5-1c-6.7-0.4-12-0.6-19.4,0C315.6,685.7,318.3,685.5,320.2,685.5z"/>
	<path d="M559.9,690.5c3.2,0,7.9,1.3,9.2-1.8c-6.8-3.1-13.9-2.3-22.6-2.7c-1-0.1-0.1-2-1-2.3l0,0c-6.1,0.1-12.2,0.4-18.9,0.5
		c-4.4,0.1-9.6-1.1-11.5,1.4c2.6-0.6,5.1,0.6,7.9,1c7.3,0.8,16.7-0.2,24,0.5c1.6,0.1,4.3,0,5,1.8c-5.9,0.8-13.7-0.1-18.9,1.4
		C540.5,691.7,551.8,690.5,559.9,690.5z"/>
	<path d="M372.8,686.8c3.3-0.4,7.9-0.1,11.5,0c2.4,0.1,6.6,2.2,7.4-1.4c-2.4-1.8-5.3,0-8.2,0c-14.5,0.2-34.2,0.4-47.9-1.4
		c-1.6,0.2,1.2,1.8-1,1.4c-3.1-0.4-6,0.7-9.2,1c-2.4,0.1-5.4-0.8-7.4,1c0.7,1.2,3.9-0.2,4.7,1c-15.5,0-29.9,2-42.9,0
		c12-0.6,19.6-1.8,29.5-1c1.6,0.1,0.7-2,2.7-1.4c1.3,0,2.7,0,2.7-1.4l0,0c-3.9-0.7-7.6,0.6-11.5,1c-7.4,0.6-15.2-0.6-22.6,0
		c-2,0.1-3.9,0.8-6,1c-7.4,0.1-14.6-1-21.6-0.5c-5.4,0.4-10.3,0.6-15.7,0.5c-6.6-0.1-13.5-0.1-19.4,0.5c-1.4,0.1-3.2,1-4.7,1
		c-1.7,0-3.6-1.4-5.5-1.4c-1.8,0-5.6-0.1-6,3.2c18.5-1.3,42.7-1.6,60.4-1.8c0.2,0.8-0.6,2.7,1,2.3c22.1-1,41.1,3.2,63.6-1
		c0.6-2-2.7,0-2.7-1.4C337.1,685.4,360.7,688.3,372.8,686.8z"/>
	<path d="M508.2,685c0.5,2.2,5.4,1.7,6.5,0C512.5,684.1,511,685.9,508.2,685z"/>
	<path d="M312.3,687.3c1.4-0.5,3.8,1.8,4.2-0.5C315.8,685.9,312.7,686.3,312.3,687.3z"/>
	<path d="M374.1,691c11.7-0.6,29.2,0.5,40-0.5c1.4-0.1,4.4,0.6,5-1c0.5-2.6-3.8-0.5-4.7-1.8c1.4-0.8,2.9,1,3.2-1
		c-7.6,0-15.5-0.1-20.3,2.7c-1.9-1.1-5,0-6.9,0.5c-0.4-0.1-0.5-0.4-0.5-1C387.3,690.8,378,687.9,374.1,691z"/>
	<path d="M487.6,692c2.3,0.6,4.2-0.7,6.5-1c3.1-0.2,9.4,1,10.6-1.4c-3.7-0.1-10.6-0.5-14.7,0.5C488.9,690.3,487.4,690.5,487.6,692z"
		/>
	<path d="M367.7,691.5c2-0.4,2.6,0.8,4.7,0.5c-0.1-0.8,0.5-1.1,0.5-1.8C370.9,690.4,369,690.6,367.7,691.5z"/>
	<path d="M482.4,691.5c0.8,0.8,3,0.4,4.7,0.5C486.9,690.6,482.8,689.9,482.4,691.5z"/>
	<path d="M324.8,693.3c-0.8,0.5-1.1,1.4-1,2.7c2.6,0.8,5.9,0.2,8.7,0c1.8-0.1,5.1,1.3,5.5-1.4C335.8,691.5,329.7,693.4,324.8,693.3z
		"/>
	<path d="M309.6,696.1L309.6,696.1L309.6,696.1z"/>
	<path d="M279.2,697.5c2.7,0.4,6.1,0.2,8.7,0.7c-1.1,0-2,1.1-3.2,1.1c-3.8,0.2-9.6-2.3-11.5,1c4.8-0.5,11.5,1,14.7-1
		c2.6,0.4,6.6-0.1,11.1-0.5c4.1-0.2,9.6-0.4,10.6-2.7c-8.6,0.5-18,0.1-25.8,0.5C282.1,696.6,280.5,696.4,279.2,697.5z"/>
	<path d="M256.2,321.3c-0.1-2.9,1.7-3.8,2.7-5.5c3.7-1.9,7.6-3.7,13.9-3.2c1.7,0.2,1.7,2.3,4.2,1.8c0.2-1.4-1-1.8,0-2.7
		c10.3-1.9,17.5-6.8,26.3-10.2c-0.4-1.4,1.2-1,1.4-1.8c-10.6,3.3-19.7,8.2-30.8,11.1c3.5-2.7,9-3.3,13.4-5c1.1-1.6,3.1-2,4.7-3.2
		c-3.3-1.2-6.5,3-9.7,1.8c2.2-0.7,4.1-1.4,5.5-2.7c0.8,1.4,2.2-0.5,3.7,0c3.2-2.2,8-3.6,12.4-5c2.2-0.7,6.2-0.5,6.5-3.7
		c-7.9,1.3-13.1,5.3-21.2,6.5c-0.2,1.2-2,0.7-2.3,1.8h-2.7c-0.7,1-1.7,1.8-2.7,2.3c-6.1,1.2-12.6,4.3-17.6,6
		c-1.2,0.4-3.9-0.4-4.2,1.8c3.7,0.7,7.1-2.3,11.1-2.7c0.1-0.6-0.1-1.3,0.5-1.4c2.6,1.7,5.9-2.4,8.2-1c-4.1,1.4-8.4,2.7-11.5,5
		c-1.7,0.5-4.7,0.1-5.5,0.5c-0.4,0.1-1.1,1.4-2.3,1.8c-1.3,0.5-3.8,1.9-4.2,2.3C255.2,316.6,253.4,320.5,256.2,321.3z"/>
	<path d="M311.9,298.7c-6.6,3-14.2,4.8-19.4,9.2c-1.3-0.7-4.3,0.1-4.7,1.8c6.2-1.4,15.4-2.2,16.1,4.7c-0.6,0.4-2,3.7,0,3.7
		c4.9-4.2-1-8.5-2.7-10.6c2.9-0.8,3.7,0.6,5.5,1.8c0.1-0.4,0.4-0.5,1-0.5c0.1-1-0.6-1-1-1.4c3.2,2,7.9-2.5,11.1-1.8
		c-1.2,3.1-6.9,1.7-7.4,5.5c4.9-2.3,14.2-5.5,21.6-3.7c4.3,1.1,6.2,4.5,4.2,10.2c2.7,0.2,3-2.3,3.2-4.7c3-1.3,6.2-2.4,10.6-2.3
		c0-2.6-3.9-0.5-5,0c-1.9-1.1-2.6,0.5-4.7,0.5c-2.4-1.3-3.6-4.2-6.9-5c-2.6-0.6-5.4,0.5-7.9-0.5c1.6-1.3,4.7-1.2,5.5-3.2
		c-2-1.7-4.7,2.4-6.5,1c1.2-1.1,2.4-4.7,4.7-3.2l0,0c-1.4,0.4-2.4,1.3-3.2,2.3c3.5,0,3.9-2.7,7.4-2.7c-0.1-1.2-0.1-2.3,1-2.3
		s1.3-0.8,2.7-0.5c1.2-1.3,2.5-2.3,4.2-3.2c3.5-2,9.1-2.7,10.6-6.5c-6.5,0.6-11.8,6.3-18.9,7.9c-0.7,0.6-1.3,1.2-1.8,1.8
		c-2.9,0.5-4.1,2.6-7.4,2.7c-1,0.6-1.2,1.9-2.3,2.3c-5,0-7.9,4.7-12,4.2c1.4-0.7,3.5-0.8,2.7-3.7c-3.7-0.1-7.6,3-12,3.7
		c-1.1,0.6,0.5,1.7-0.5,1.8c-1.8,0.2-2.4-0.7-3.2-1.4c3.5-0.1,6.5-3.2,9.7-4.2C309,301.7,311.5,301.3,311.9,298.7z M322.5,304.3
		c1.4,0.8-0.5,2.2-1.8,1.8C320.2,304.4,322.7,305.8,322.5,304.3z"/>
	<path d="M228.1,356.3c-0.7,2-3.2,0.7-4.2,3.2c1.9,0.6,2-0.7,3.2-1c0.1,0.8-0.5,2.3,1,1.8c1.2-0.6-0.5-2.3,0.5-2.3
		c1.1-0.2,1,0.8,2.3,0.5c0.2-0.8-0.7-1.2,0-1.4c0.1,0.6,1,0.5,1.4,1c2.7-1.6,5.9-4.2,9.7-5c2-0.5,4.8,0.4,6.9,0
		c0.4-0.1,0.5-0.8,1.4-1c2.5-0.2,3.7-1.1,5.5-1c1.3-1,1-2.7,1.4-3.7c0.8,1,1.1,2.5,1.8,3.7c2.6,0.6,6.9,1.6,9.2,1
		c-0.1-3.3-5.4-1.4-7.9-2.3c-0.4-2.6-1.8-4.1-2.3-6.5c-1.2,0-2.6-0.1-3.2,0.5c-0.4,2.3,0.5,3.6,0.5,5.5c-5,2.5-14-0.8-17.1,4.2
		c-8.2,0.2-17.1,2.7-25.8-0.5c-0.8,0.8,0,1.2,0,2.3c-1.6,1-3.7,1.3-4.7,2.7c3.3,1.2,6.7-3.9,10.6-2.3c-5.1,1.2-8.5,4.1-13.4,5.5
		c-0.1,0.8,0.5,1.1,0.5,1.8c4.5-0.8,7.5-3,10.6-3.2c-0.1,1.3-2.2,0.6-1.8,2.3c2.6,0,0.1,0.4,0,1.4c2,0.7,5-0.2,5-2.7
		c-1.4-0.6-0.4,1.4-1.8,1C219.9,359.1,224,357.8,228.1,356.3z M221.6,357.3c-0.2,0.4-0.5,0.7-0.5,1.4c-1,0.2-0.8-0.7-1-1.4H221.6z"
		/>
	<path d="M28.4,372.1c0.1-0.7-0.1-1.7,0.5-1.8c3.1,0.4,4.8-0.7,7.9-0.5c0-0.8-0.4-1.4-0.8-1.8c1.6,0.2,3.8,0.8,4.5-1
		c-2,0.4-4.2-1.4-4.5,0.8c-0.7-0.6-1.6-0.8-2.3-1.3c2-0.5,3-2,5.5-1.8c0.5-0.8,0.4-2.4,2.3-1.8c-0.7,1-2.3,1.1-2.3,2.7
		c0.1,0.4,0.4,0.5,1,0.5c5.7-3.6,12.9-5.9,18.4-9.7c0.4-1.7-1.2-2.4,0.5-2.7c1,1.7,4.4-0.4,6.5-0.5c2.3-0.1,4.5,1.1,6.9,1.4
		c1.4,0.2,3-0.2,4.7,0c2.2,0.2,4.4,1.3,6.5,1.4c6.7,0.1,13-4.2,19.8-2.7c-3.1,1.1-6.7,1.7-7.9,4.7c1.2-0.7,3.1-0.7,4.7-1.4
		c2.6-1.2,5.4-4.3,7.4-2.7c-0.5,1-1.8,1-1.8,2.3c1.8,0.2,1.7-1.8,2.7,0c-0.7,1.9-2.4,7.9,1.4,7.9c1.6-1.1-1-3.2,0.5-4.2
		c1.2,0.8,0.1,3.8,2.3,3.7c0.6-1.2-1.3-1.9,0-2.3c0.7,0.7,1,1.8,1,3.2c-1.6-0.5-1.6,0.6-1.4,1.8c-1.9-0.4-2.4,2.2-3.7,1
		c-0.2,1.8-0.6,2.2,0.5,3.2c2.9,0.4,3.1-1.8,5-2.3c0,1.2-0.1,2.6,0.5,3.2c6.8-0.1,9.4,0,14.7-0.5c0.4-2.4-3.2-0.7-3.2-2.7
		c1.4,0.7,3.3,0.6,2.7-1.8c-3.5,0-4.3,0.2-7.4,0c-1.4-0.4-1.3-2.4-2.7-2.7c-1,0.4,0.1,3-1,3.2c-0.8,0.8-2.6,0.2-3.2-0.5
		c0.2-2.3-0.6-3.2,0-4.7c1.7-0.2,3.6-0.4,3.2-2.7c-2.2,0-2.2,2.2-4.2,2.3c-0.7-1.8,1.3-0.8,1-2.3c-1.2-0.6-2.7,0.8-2.7,0
		c0-1,1.3-0.6,1-1.8c-1.2,0.1-2-0.1-1.8-1.4c-0.4-1.4,0.5-1.7,0.5-2.7c-2.5-1.4-1.1-6.9-3.2-8.7c-1.3,1.4,0.5,6-1,7.4
		c-5.6,0.4-10-0.4-15.2-1.4c-1.1,2.7,1.7,1.7,1.8,3.2c-9.2,1.2-16.4,0.1-25.3-1c0.4-1.4-1.3-0.8-1-2.3c-2.6-0.7-9.6-3.7-9.7,0
		c0.5-0.8,3.8-0.8,3.7,0.5c-1.2,1-2.5,1.8-4.7,1.8c-0.7,0.8-0.2,2.9-1.4,3.2c-1-1.7-1.4-1.7-1-4.2c-2.4,1-5.5,1.2-6.5,3.7
		c2,1.1,4.7-0.8,6.5,1c-1.6,1.6-5.4,3.2-6.9,3.2c0.2-0.8,2.2,0,1.4-1.8c-6.1,1.3-9.2,5.6-15.2,6.9c-0.7,0.8-1.3,1.8-1.8,2.7
		c-3,0.4-8.1,1.1-11.1,0c3.6-1.8,7.4-3.3,10.6-5.5c1.4-0.2,4.5-1.2,2.7-3.2c-4.1,3.1-9,4.8-13.4,7.9S8.7,369.3,2.4,368
		c-0.4,1.1-1.1,2-1,3.7C9.2,372.2,20.4,372.6,28.4,372.1z M45.5,359.5h1v1h-1V359.5z"/>
	<path d="M364,365.2c-6.6-0.7-17.2,0.7-24-1.4c-1.7,1.7-7.3,1.9-10.2,1c1.9,0,3.2-0.7,5.5-0.5c-2.2-2.9-6.8,0-12-1
		c-0.5,1.9,3,0,2.7,1.8c-2.2-0.2-2.6,0.8-4.2,0c0-1,1.3-0.6,1-1.8c-2.7,0.8-5.1,2.3-7.9,1.8l0,0c1.6-1.6,4.5-1.6,6-3.2
		c-1.1-1.6-2.4-0.4-4.2,0c1.3-2,3.9-2.7,5.5-4.7c4.7,0.2,6.6,1.1,11.1,1.8c1.4-1.9-3.2-3.1-5-1.8c-0.8-1.8-3.9-1.2-5.5-2.3
		c-3,2-7.9,7.4-10.6,1.8c-12.7-2.6-22.2-3-38.3-3.2c-1.4,1.2-3.5,1.8-5.5,2.3c0-0.6,0.6-0.6,0.5-1.4c-6.3-2.2-11.2,2.5-16.1,4.7
		c0.6,1.2,2.7-0.4,2.7,0.5c-0.8,0.4-1.7,0.7-2.7,1c0.8-2-1.7-0.8-1.8-1.8c0.6-0.7,1.8-0.7,2.3-1.4c-0.7-1.3-2.4,0.7-2.7-0.5
		c1.3-0.2,2.2-1,2.3-2.3c-3.9-1.2-7.1,2.2-10.6,2.7c1.1-1.7-2.3-1.8-2.7-1.8c-3.6-0.1-10.4,4.8-12,6.9c-1.2-1-3.2,0.1-3.7,1.4
		c1.2,0.2,1.4,0.1,2.7,1c1.3-0.2,1.4-1.7,3.2-1.4c0,0.6-0.6,0.6-0.5,1.4c1.3,0.4,2.7-1.4,3.2-0.5c-1.8,1.7-3.6,0.5-5.5,0.5
		c1.7,2.5-2,1.8-2.7,3.2c2.3-0.1,4.2,0.1,4.7,1.8c6.1,0.1,9.8,0,16.1,0c0.5-2.3-2.3-0.7-2.3-1.4c1.7-1.2,3.9-0.7,5,1
		c1.8-0.4,4.9-3.2,6.5-1c-1-0.1-1.4,0.4-1.4,1.4c3-0.5,8.2-0.8,10.6-0.5c1.1-0.7-0.6-1.1,0.5-1.4c6.5-0.6,13.9,0.4,18.4,1
		c3.1-1.7,9-1.9,12.9-0.5c-10.8,0.5-21.8,1.8-31.3,2.3c-1.4,0.1-4.1-1.9-4.7,1c0.4,0.1,0.5,0.4,0.5,1c2.5-1.6,5.6-0.4,8.7-0.5
		c12.6-0.4,28.2-2.7,42-1.8c0.5-0.5,1-1,1.4-1.4c0.4,0.1,0.5,0.4,0.5,1c1.4,0.6,0.4-1.4,1.8-1c1.8,1.9,4.9,0.6,7.9,0.5
		c3.7-0.2,8-0.1,11.5,0c2.6,0.1,6.3,1.8,6.9-1c-2.7-1.4-6.8,1.1-8.7-1.4c9.8,0.5,17.8,0.2,29,0c-0.5,0.7-0.5,1.2,0,1.8
		c1.4-1.7,3.7,1.3,3.7-0.5c0.6-2.3-3.8,0.5-3.2-1.8h4.2v-3.7C363.5,362.2,365.3,365.2,364,365.2z M230.8,362.8
		c0.8-1,2.2-1.6,3.7-1.8C233.7,362.1,232.4,362.7,230.8,362.8z M236.3,360c1.1-0.5,1.7-1.4,3.2-1.4c0,1-1.3,0.6-1,1.8
		C237.3,360.9,237.4,359.9,236.3,360z M238.2,366c0.5-1.4,2.2-1.6,3.7-1.8C241.8,366,239.9,365.9,238.2,366z M302.3,356.3
		c-0.8,0.7-1.7,1.4-3.2,1.4C299.9,357,300.4,356.1,302.3,356.3z M299.1,359.2c-0.5,0.5-0.1,1.7-1.4,1.4
		C297.5,359.5,298,359.1,299.1,359.2z M248.3,358.2c-0.2,0.6-0.6,1-1.4,1C247.1,358.6,247.5,358.2,248.3,358.2z M245,359.5
		c2.3-1.2,0.4,0.7,0,0.5S244.7,359.8,245,359.5z M246.5,363.7c-1.3,0.1-1-1.6-2.7-1c0.6-1.6,3.5-0.8,4.2-2.3
		c0.7,0.4,1.4,0.7,1.4,1.8C248.4,362.9,246.8,362.7,246.5,363.7z M272.8,364.7c-1.4,0-7.9,1.4-10.6-0.5c-4.3,1.2-10.2,1.8-15.2,1
		c0.6-0.8,2.2-0.6,2.3-1.8c1.7,0.7,2.9,2.2,4.2,0c-0.1-0.6-0.8-0.4-1.4-0.5c3.5-4.1,7.4-0.2,12-1.8c1.4-0.5,3.2-1.4,5-2.3
		c2.9-1.3,5-3.6,10.2-3.2c0,0.8-1.6,0.4-1.4,1.4c1.9,1.2,3.3-1.8,6.5-1c0.2,1.4-2.2,0.4-2.3,1.4c2,2.4,5.4-1.7,8.2-1.4
		c-2.6,1.7-6.3,3.2-8.7,3.7c0,2.4,2.5,1.1,2.7,0c5.5-0.5,7.8-4.3,14.3-3.7c-7.1,1.9-11.4,6.6-19.8,6.9c0.5-1.1,2.3-0.8,2.7-1.8
		c-3.1-1.6-5.3,3-8.7,1.8C273.1,363.7,271.3,364.3,272.8,364.7z M277.8,366c-1-0.1-3,0-3.2-1.4l0,0c7.3,0,12.8,0,18.4-2.7
		c-1,1-2.2,1.9-3.7,2.3c0.2,0.6,0.6,1,1.4,1C287.6,364.9,282,366.4,277.8,366z M299.4,364.2c1.9-2.4,6.9-1.7,8.7-4.2
		c-3.5-1.9-6.9,2.2-11.1,3.2c-1.3,0.4-2.7,0.1-4.2,0.5c0.5-0.7,3.8-1,2.3-2.3c0.1-0.5,0.5-0.2,0.5,0c3.6,1.2,5.7-2.7,9.7-2.7
		c0.2-1.7-2.7,0-2.3-1.8c2.7,0.5,4.4,2,8.2,1.4c0,1.2,0.8,1.6,1.4,2.3C308.3,361.6,304.8,363.8,299.4,364.2z M309.6,364.2
		c1.1-0.7,4.8-1.3,3.7-2.7c0.8-1.4,1.4,1.3,3.2,0.5C314.4,363.2,312.8,365.2,309.6,364.2z M329.9,367.4
		C328.8,368.9,326.9,367,329.9,367.4L329.9,367.4z"/>
	<path d="M277.3,360c-4.1-0.4-6.2,2.4-10.6,3.2c0,1.7,3,0.4,3.7,1.4C271.7,362.1,275.6,362.2,277.3,360z"/>
	<path d="M267.2,361.5c-2.3,0.4-4.8,0.5-5.5,2.3c1.4,0.6,4.2,0.8,5-0.5C266.7,362.4,267.3,362.3,267.2,361.5z"/>
	<path d="M69.9,359.2c0.7-0.6,3,0.1,2.7-1.4c-1.3-1.4-2.7,0.8-3.7,1.4c-2.9,0.8-6.5,1-6.9,4.2C65.4,362.7,68.1,361.3,69.9,359.2z"/>
	<path d="M79.1,358.2c-2.2,0.1-4.1,2.3-6.5,2.7c-3.3,0.7-6.7,1-7.4,3.7c4.2-1.3,7.1-0.1,11.1-1.4c0.1,0.8-0.5,1.1-0.5,1.8
		c2-0.1,3.2-1.1,4.2-2.3c1.2,0.2,4.4-1,5-2.7c-2.9,0-3.9,1.9-6.5,2.3c0-1.2,1.4-1,1.4-2.3C78.7,360.5,79.2,359.1,79.1,358.2z"/>
	<path d="M301.3,495.1L301.3,495.1L301.3,495.1z"/>
	<path d="M322.5,497c-6.6,0-15.5-1.6-21.2-1.8c2.3,2.5,6.2,1.1,10.2,2.3c0.1,0.8-2.6,1.8-0.5,1.8c7.6,0.1,14.2-0.8,22.1-0.5
		C331.5,495.2,326.4,496.9,322.5,497z"/>
	<path d="M350.6,301.9c-5.3,1.6-11.1,1.4-13.9,4.7c-0.4,1.4,1.6,0.6,1.4,1.8c2.2-0.6,5.9-0.4,6.9-1.8c-1.4-1.8-4.5,1-5,0l0,0
		c1.9-1.3,5.1-1.3,7.4-2.3v1.8c6.3-2.4,14.2-3,20.8-5c0.7-0.2,1.2-1.1,1.8-1.4c1.3-0.5,3.8,0,4.2-1.8c-6.7,0.8-12.6,2.5-17.9,4.7
		c0.1-1.8,2.9-1.2,3.2-2.7l0,0c1-0.2,3.2,0.7,2.7-1c2.3,1,5.6-0.7,6.9-2.3c-2.7,0.4-5.6,0.6-6.9,2.3l0,0c-1,0.2-3.2-0.7-2.7,1
		C356.4,298.6,353.7,301.1,350.6,301.9z"/>
	<path d="M10.4,365.6c3.3-2.5,7.3-4.2,11.1-6.5c2.6-1.7,5.6-4.4,9.2-3.2c-2.3,2.5-6.8,2.7-8.2,6c7.8-1.3,12-9.8,21.2-5.5
		c-1.2,0.4-2.5,0.6-2.3,2.3c2-1.3,5.3-1.6,6-4.2c0-0.7-1.3-0.2-1.4-1c0.8-0.2,1.2-1,2.3-1c0.6-1.4-1.4-0.4-1-1.8
		c1.1-1.4,5.9,0.8,5.5-1.8c-9.1-2.2-14.1,6.5-21.6,4.7c1.6,0.2,2.6-0.1,2.3-1.8c-3.7,0.8-8.1,3.3-11.5,2.7c2-1.6,6.3-0.7,6.9-3.7
		c-4.1,0.2-3.6,2.4-7.9,2.3c-0.6,2.7-3.3,1.7-4.2,3.2c0,1.9,3.9-0.7,5,1c-3.8,1.8-7.4,3.6-10.6,6c-2.2,0.2-3.9,0.7-4.2,2.7
		C8.8,366.5,9,365.4,10.4,365.6z"/>
	<path d="M606,365.6L606,365.6c-6.2-1.6-14.5,1.4-20.3-1c1.7-0.5,5.4,1.1,5.5-1c-0.4-2.2-4.5-0.7-4.2-3.7c-2.2,0.1-2,2.6-4.2,2.7
		c-7.3-1-10.2,1.2-17.6,1v-1.4c-6.7,0.1-10.8-0.5-17.6,0.5c-1.9-2.2-4.5-2.5-7.4-2.7c0.7-2.4,6.5,0.2,6-3.2c-2.2,0-3.7,0.6-5,1.4
		c0.4-2.4,1.8-3.7,2.7-5.5c4.7-1.1,8.2-5.5,14.3-3.7c-3.5,0.8-6.3,3.1-9.2,4.2c-1.2,0.4-3.2-0.8-3.2,1.4c0.7,1.4,2-0.4,3.2,0
		c0,0.7-0.1,1.6,1,1.4c2.4-0.1,3.2-1.7,5.5-1.8c0.4-1.4-1.2-1-1.4-1.8c3.2-1.1,7.4-3.7,10.6-3.2c-0.6,0-1.1,0.1-1,1
		c1.7,1,3-0.5,3.7,0c-4.7,3-11.6,3.7-15.7,7.4c-0.8-1.2-3,0-2.7,1.4c1,2.3,4.1,1,5-0.5c1.2,1.8,3.2-1.7,4.2,0
		c-1.7,0.7-4.1,0.8-5,2.3c0.8,0.6,3.5,0.7,5,0.5c2.9-0.5,5.6-2.5,8.2-2.7c0.2-1.1,0.4-2.4,1.8-2.3c0,0.6-0.6,0.6-0.5,1.4
		c2.5-0.7,5.9-0.6,6.9-2.7c-1.7-1.8-4.2,1.9-5.5,0.5c2.3-1.7,7.1-3.1,9.2-3.2c-1.2,0.8-3.1,0.8-3.2,2.7c3.8-0.8,6.6-3.3,9.7-5
		c0.6-0.4,2.3,0.7,1.8-1c-2.2-3-6.6-1-9.7-1c-10.2,0-22.1-1.7-32.8-1.4c-0.8,0.6-1.9,1.2-3.2,1.4c-1.8-3.1-1.3-8.4-1.8-11.5
		c-4.7,0.4-1.2,9-2.3,12.9c-1.8,1.1-3.7-0.1-5.5,0c-0.6,0-1.4,1-2.3,1c-2.2,0-6.9,0.1-8.2,2.3c5.5,0.6,10.5-2.5,16.1-0.5
		c-0.2,2.6-0.1,5.4-1.8,6.5c-1.9-0.7,0.7-3.1,0-5.5c-2,1.3-3.1,6.2-1,7.9c-2.3,0.1-4.2-0.1-6-0.5c-1,0.4,0.1,3-1,3.2
		c-6.3,0.1-12.6,0.6-18.4-1c-0.2-1.2-0.6-1.6,0.5-2.3c0.8,0.8,0.8,0.4,0.5,1.8c3.5-0.5,5.4-2.6,8.7-3.2c-0.6-2.5-0.1-2.3,1-3.7
		c-1.4-0.4-1.3,0.8-2.7,0.5c-0.5,1.4,0.7,1.1,1,1.8c-2.5,0.1-3.3,1.9-5.5,2.3c-0.8-0.1-0.2-1.6-1-1.8c-1.9,1.2-4.1,2-5,4.2
		c1.1,0.6,1.7-1.2,1.8,0c-2.3,2-5.6,0.8-8.7,1.4c-0.5,0.8,1.4,1.6,0,1.8c-2.4-3.7-6.9,0.8-9.2,0c0.6-1.1,1.4-2,1.8-3.2
		c-1.9-0.2-3.6,2.3-5,1c1.2-1.2,4.3-0.6,4.7-2.7c-2.7-2.3-8.5-0.8-9.2,2.7c0.8-0.5,3.2-1.7,3.7-1c-0.2,2.6-7.1,1.2-8.7,1
		c1.6-1.3,4.4,0.1,4.7-3.2c-3,0-4.5,3.7-7.4,2.3c2.9-1.3,6.3-1.9,7.9-4.7c-4.9-0.1-8.8,4.7-14.7,5c0.1-1.6,2.9-0.6,2.3-2.7
		c-4.5,0.6-8.6,5.4-12.4,2.7c2.6-0.2,3.8-2,6.5-2.3c0.4-1.7-1.8-1-1.8-2.3c-4.4,0.7-9.1,5.9-13.4,3.7c2.5,0.1,4.1-0.8,5-2.3
		c-2.2-0.2-2.9,0.8-5,0.5c-0.8,1-0.7,2.2-1,2.7c-8.6-0.6-16.6,1.2-24,0c-1.7-0.2-2.9-1.4-4.7-1.4c-2.6,0.1-5,2.7-7.4,1
		c-1.4,0.8-2.5,2.2-5,1.8c0-0.6,0.6-0.6,0.5-1.4c-2.3-0.5-2.5,1.2-4.2,1.4c0-0.7,0.1-1.6-1-1.4c-1.3,1.1-4.8,2.2-6.5,1.4
		c0-0.7,1.2-0.4,1-1.4c-2-0.4-6.1,0.4-7.9,1.8c0.6-0.6,0.6-1.7,0-2.3c-1.9-0.6-0.8,1.9-1.8,2.3c-2-0.5-5.6,1-6.9-1
		c1.1-1.8,3.8,0.6,4.2-1.4c-2.5-1.4-7.2-0.7-9.7-2.3c-1.7,2.2,0.6,1.8,0.5,4.7c1.9,0.7,0.1-2.4,1.4-2.3c1.3,0.2,2.2,1,2.3,2.3
		c-1.9-0.4-2.4,0.7-4.2,0.5c0.1-1.1-0.1-1.8-0.5-2.3c-2,0.8-2,1.3-4.7,1c1.2,3.6-4.3,0.4-3.7,3.2c4.3,0.1,8.7-0.1,12.4,0
		c2.7,0.1,7.3-0.4,8.7,1.4c-1.3,1.7-4.7-1.6-4.7,1.4c2.5,0.2,6.9,0.4,8.7,0c-0.2-1.4-2.3-1.1-3.2-1.8c5.3-1,11.2-0.6,15.2,0.5
		c1.2-0.6,1.7-2,2.7-2.7c9.7,0.5,17.6-2.5,25.8-0.2c0.2-0.1,0.5-0.2,0.7-0.2c0.8,0,1.8,0,2.6,0.2c0.1-0.1,0.2-0.1,0.4-0.2
		c9.1-0.5,15.3-0.1,25.3,0c-0.1,1.1-1,1.9,0,2.7c4.7,1,9.9,0.4,14.7,0c4.8-0.4,8.8-0.4,13.9,0c6.7,0.5,13.6,0.6,20.8,0.5
		c1-0.7,1.3-2.2,1.8-3.2c1.4,0.2,3.9-0.6,4.7,0.5c-1.8,0.1-4.5-0.6-4.7,1.4c1,2.4,3.3,0.5,5,0.5c10.4-0.4,19.1,1.8,28.1,0
		c0.6-1.2-1.1-2.3,0-2.3c5.1,0.2,9.3-0.1,12.4-1c0.1,2.4,1.6,1.1,2.7,1.8c-0.5,1.1-2.9,0.1-2.3,2.3c14.8-2.3,31.7,0.2,47.5,1
		C606.1,368.3,606,366.8,606,365.6z M562.6,356.3c-1.1-0.1,0.6-1.2,0-2.3c0.5,0,0.4,0.6,0.5,1h1.8
		C564.7,356,562.9,355.2,562.6,356.3z M566.3,354.5c0.4-0.6,1-0.8,1.8-1C568.1,354.4,567.4,354.6,566.3,354.5z M577.9,348.5
		c1.1,1.2,3.1-0.4,3.7,0.5c-0.7,1.4-3.7,0.6-5,1.4C575.8,348.7,578.5,350.3,577.9,348.5z M569.1,349.9c2.3,0.4,3.6-0.5,5.5-0.5
		c-2.7,1-3.6,2.2-7.4,2.7C567.4,350.9,569.4,351.7,569.1,349.9z M467.2,365.2c-1,0.1-0.8,0.5-2.3,0.5
		C466.1,363.7,471.1,364.7,467.2,365.2z M472.7,363.2c-1-0.1,0.4-0.4,0.5-0.5s-0.1-0.8,0-1C474.2,361.5,473.9,363.5,472.7,363.2z
		 M488.4,360.5c-0.2,0.6-0.6,1-1.4,1C487.3,360.9,487.7,360.5,488.4,360.5z M537.3,359.2h1v1h-1V359.2z M536.5,364.7
		c1.2,0,2.5,0,3.7,0C537.1,365.8,529.5,364.8,536.5,364.7z M538.7,355.5c0.2-1.7,0.8-3.1,0-4.7c4.5-0.4,5.4-4.4,11.5-3.2
		c-2.2,2-4.5,3.7-8.2,4.2C541.1,353.3,540.8,355.2,538.7,355.5z"/>
	<path d="M368.6,364.7c0.8-1.3-0.7-3.3-1-5c-2.6-0.5-3.8,0.4-5.5-1v-2.3c-2.5-1.6-7.4-0.6-10.2-1.8c1.9-7.1-7.9-4.5-8.2-1
		c-1.9,0.2-5.3-1-4.7,1.8c2.7-0.4,4.2,0.2,6.9-0.5c0.5,2.2-0.6,2.7-1.4,3.7c0.7,0.4,1.4,0.7,1.4,1.8c1.7,0,2.6-0.7,4.2-1
		c-0.1,1.6,0.6,2.3,1.8,2.3c-0.1-1.2-0.1-2.3,1-2.3c-0.4,1.3,0.6,1.2,0.5,2.3c2-0.8,2.6,2.4,4.2,0.5c0.2,1.7,3.1,0.6,3.7,1.8
		c1-0.4-0.1-2.6,1-2.7C366.1,360.7,365.4,364.6,368.6,364.7z M347.4,354c-0.1,0.8-0.6-0.2-0.5-1C347.1,352.3,347.6,353.4,347.4,354z
		 M349.3,355.5c-0.6,1.2-1.2-4.7,1-3.7C349.7,352.8,348.8,353.4,349.3,355.5z M351.1,357.3c0.4-0.5,1.8-0.5,3.2,0
		C354.1,358.2,351.5,357.8,351.1,357.3z M357,356.8c0.6,0.2,1,0.6,1,1.4C356.4,358.6,356.4,357.5,357,356.8z"/>
	<path d="M43.2,367c-1.7,0.2-2.5,1.8-4.2,1.4c1.3,5.6,12.2-0.8,12.9,5.5c4.9,0.6,14.1,0.6,19.8,0c1.9-0.2,5.6,1.6,4.7-2.3
		c-2.4-0.8-5.7,0.8-8.2-0.5c2.9-0.8,6.8-0.7,11.1,0c-0.7,0-1.6-0.1-1.4,1c1.3,0.6,2.4,1,3.7,0.5c0.6-1.1-1.2-1.7,0-1.8
		c5.3-0.2,10.8,0.2,15.2,0c2.2-0.1,7.1-0.1,7.9-1.8c0.4-1.2-2.2,0.4-1.8-1c1.6-0.5,5,1.1,5-1c-1.2,0.2-1.8-0.8-3.2-1
		c-2.7-0.1-6.9,1.2-8.2,1.4c-9.4,0.8-20.6-0.5-29-0.5c-0.6,0.6,0,2.4-1.8,1.8c-1.8,0.7-0.1-2-1.8-1.4c-2.6-0.8-7.5,1-10.6-0.5
		c1.2-1.7,3.6-2.3,4.7-4.2c-0.6,0-0.6-0.6-1.4-0.5c0,0.5-0.1,0.7-0.5,1c-1.7,1.1-3.8,3.1-6,3.7C47.7,367.4,45.3,366.6,43.2,367z
		 M85.6,368.9c0.1,1-1.7,0.2-2.3,0.5C83.2,368.3,84.9,369.1,85.6,368.9z M82.4,368.9c-0.8,1.1-3.5,0.1-5,0.5
		C78.1,368.3,80.8,369.1,82.4,368.9z M71.7,368.9c0.1,1-1.7,0.2-2.3,0.5C69.3,368.3,71.1,369.1,71.7,368.9z M66.7,371.1
		c0,1.1-1.9,0.2-2.7,0.5C63.9,370.5,65.9,371.4,66.7,371.1z M57,371.1c1.1,0,1.7,0,2.7,0C57.1,372.2,51.3,371.3,57,371.1z"/>
	<path d="M219.7,382.1c2.3,2,8.1,0.5,12,1c0.7,0,0.2-1.3,1-1.4c3.5,0.2,7.5,1,12.4,1c0.6-1.1-1.2-1.8,0-1.8
		c10.4,0.7,20.4,0.4,30.8-0.5c3.1-0.2,6.8,1,8.2-1c-1-1.8-4.9-0.6-6.5-1.8c1.4-0.5,4.7,1,4.7-1c-4.5-1.1-11.5-1.8-14.3,1.4
		c-2.2,0.4-6.6-2.2-8.7,0c1.9,1,5.1,0.6,6.9,1.8c-8.7-0.7-16.1-0.6-23.1-1c-3.9-0.2-7.5,1.3-11.5,1.4c-2.6,0-6.3-1.9-8.7,0
		c0.2,0.6,1.8,0.1,1.8,1C223,381.5,220.1,380.5,219.7,382.1z"/>
	<path d="M427.6,474.9c-1.2,0.1-3.5-0.6-2.7,1.4c3.2,1.9,4.3-2.4,6.9-2.7v2.7c2.4,0,3.3-1.3,5-1.8c1.2,2.3,5,1.8,8.2,1.8
		c1.7-3.8,7.8-7.6,5-12.9c-5.6,1.4-8.4-2.3-13.4-2.7c-1.6,3.5,1,8.2-0.5,11.5c-1.2-3.1-0.7-7.9-1.4-11.5c4.8-0.6,7.1-3.7,12.4-3.7
		c0.8-0.5,0.6-2.2,1.4-2.7c4.1,0,8.7-1.3,12.9-1.8c2.6-0.4,7.1,1,7.4-2.3c-1.8-2.4-4.1,0.1-6-0.5c-4.5-1.4-4.9-7.2-2.7-11.5
		c-0.8-0.2-1.9-0.2-2.3-1c-2.9,1.7-7.3,3.9-11.5,2.7v-4.7c1.8,0.4,2.2-0.6,3.7-0.5c-0.1-2.6-4.1,0.1-1.8-2.7c-1.2,0-2.7,0.2-2.7-1
		v-6.9c4.4,0.2,6.7-2.3,10.2-0.5c-0.1-1.2,0.7-1.4,1.4-1.8c-1.9-1.7-1.6-5.7-3.7-7.4c-0.4,2.3,0.6,3.1,1,4.7
		c-1.4,2.4-5.4,2.4-8.7,2.7c-1.1-8.6-1.8-16.4-1.8-26.8c1.1-0.7,2.3-1.2,4.2-1c1.1,2.2,1.8,4.7,2.3,7.4c-1.6,0.1-3.9-0.6-3.7,1.4
		c1.1,2.3,4.4-0.6,5.5,1.4c-0.8-10.5-6.5-16.4-8.7-25.3H442l0,0c-1.3,11-2.6,25.9-3.7,36.9c-2.6-0.4-1.8,2.9-2.3,4.7
		c2.2,0.2,0.6-3.1,2.3-3.2c-0.5,8.5-1.2,17.1-2.3,24c-0.2,1.1,0.8,3.1-1,3.2c0.1-2.6,0.4-5.3-2.3-5c1.2,1.6,1,4.5,1,7.4
		c0.4,0.7,2.3-0.1,1.8,1.4c-0.8,2.5-1.3,5.4-1.8,8.2c-1.7-1.1-5.5,0-6.5-0.5c0.8-2.4-0.1-4.9-2.7-5c-2.7,2.4-0.5,9.8,1.4,12
		c-1,0.6-2.2,0.8-3.2,1.4C422.3,469.4,426.7,472.3,427.6,474.9z M439.2,471.2C439.3,469,442.5,472.9,439.2,471.2L439.2,471.2z
		 M443.3,469.3C440.2,470,439,467.4,443.3,469.3L443.3,469.3z M446.1,467c-2.4,1.1-5.7-1-7.9-1.8C440.6,464.1,443.3,466.9,446.1,467
		z M447.4,443.9c1.8-2.5,6.5-2.2,9.7-3.2c1,2.7,1.2,6.2,2.3,8.7c-3.3,1-6.6,2-11.1,1.8C448,449.3,446.7,445.6,447.4,443.9z
		 M446.1,445.8c-0.1,1.7,0.1,3,0.5,4.2c-1.4-0.4-4.7-0.4-6,1.8c1.1,2.3,3-0.5,5,0c0.1,0,0.1-0.1,0.1-0.1c-0.2,0.1-1.7,1.4-0.1,2.4
		c-0.6,0.6-2.4,0.8-1.8-1c-1.9,0.2-2.7,1.6-4.7,1.8c0.2-1.1,0.7-2.2,0.5-3.7C442.6,450.3,442.9,446.6,446.1,445.8z M444.7,438.9
		c1.6,0.5-0.5,1-0.5,1.4C442.9,440,444.9,439.5,444.7,438.9z M441.9,431c-1-0.2,0.4-2,1.8-1.4C443.9,430.9,442,430.1,441.9,431z
		 M443.3,385.8c1,2.3,3.6,2.9,3.7,6c-0.8,0.4-1.7,0.7-2.7,1C443.5,390.9,443.1,388.6,443.3,385.8z M443.3,417.6
		c-0.2,0.6-0.6,1-1.4,1C442.1,418,442.5,417.6,443.3,417.6z M442.9,424.6c1.2,0.2,0,1.8-1,1.4C442,425.4,442.7,425.3,442.9,424.6z
		 M442.4,426.8c1.6,0.2,0.7,1.8-1,1.4C441.5,427.7,442.3,427.6,442.4,426.8z M440.1,431.5c-0.2,0.6-0.6,1-1.4,1
		C438.4,431.5,439.4,431.5,440.1,431.5z M443.7,432.5c-1.1,1.8-3.3,2.4-5.5,3.2C439.6,434.1,441.4,433.1,443.7,432.5z M443.3,437.5
		c-0.1,0.8-0.8,1.1-1.8,1C441.8,437.8,442.4,437.6,443.3,437.5z M441,436.5C443.1,433.9,443.3,437.7,441,436.5L441,436.5z
		 M441.9,440.7c-0.2,0.4-0.5,0.7-0.5,1.4c1.6,0.2,2.6-0.2,3.7-0.5c-0.4,1.4,0.5,1.7,0.5,2.7c-1.1,1.2-3,1.7-5,1.8
		c1.2-2.2,0.8-1.7,1-3.7l0,0c-0.2-0.4-0.4-0.8-1-1c-1.9-0.4-1.1,1.9-2.7,1.8C436.4,441.4,439.9,440.8,441.9,440.7z M438.2,443.9
		c1.4,0.1,1,2.5-0.5,2.3C436.6,445.1,438.4,445.4,438.2,443.9z M437.7,448.6c0.7-0.1,0.8,0.5,1.4,0.5c-2.2,1.7,0.4,8.1-3.2,8.2
		C437.5,454.6,435.3,451.6,437.7,448.6z M429,472.5c-0.6-0.4-0.8-1-1-1.8c1.9,0.1,1.9-1.8,3.7-1.8C430.7,470,429.5,470.8,429,472.5z
		 M431.7,465.6c1.1-1-0.4-2,0.5-2.7c1.6,0,1.3,1.7,1.4,3.2C432.8,466.2,432.6,465.6,431.7,465.6z M435,457.8
		c-0.5,1.2-1.4,1.9-2.3,2.7c-2,0.5-1.6-1.6-3.2-1.4C431.1,458.5,433.2,458.3,435,457.8z M430,463.8c0.8,0.8-3.8,2.5-4.2,2.3
		C426.1,464.3,428.6,464.7,430,463.8z"/>
	<path d="M442.4,490.5L442.4,490.5c-2,0-4.7,1.6-6.2-0.2c-0.5,0.4-1.1,0.5-1.6,0.2c0,0.1,0,0.4,0,0.5c-1.7-0.1-4.1,0.7-6.5,1
		c-2.4,0.2-5.5-1-6.9,1c1.8,2.9,9.6,1,12.9,1v0.1h2.3c0-0.1,0-0.1,0-0.1c3.3-1.2,7.2,0.7,11.1,0.5c-0.4,1.4-1.8,1.6-1.4,3.7
		c-1.6-1.7-5.9-0.6-8.7-1l-0.1-0.1h-2.7c0,0.5,0.1,1,0.1,1.4l0,0c0.7,0.5,1.4,0.6,2.3,0.6c0.1,0,0.1,0,0.2,0
		c0.1-0.1,0.1-0.4,0.2-0.5c2.5-0.7,2,1.7,3.7,1.8c3.8-1.6,7.4-0.5,11.5-1.8c-0.7,0.7-0.5,2,1,1.8c2.5,0.2,2-2.6,5-1.8
		c-0.4-1.9,0.8-2.2,1-3.7c-0.8-0.2-1.9-0.2-2.3-1c1.2-1.1,4.9,0.4,5.5-1.4c-1.6-0.5,1.3-0.1,0.5-1.4
		C456.4,491,449,490.4,442.4,490.5z M451.1,497c-0.1-1,1.7-0.2,2.3-0.5C453.5,497.5,451.8,496.8,451.1,497z"/>
	<path d="M412.9,479c-2,0.7-4.4-0.7-6.5-1c-5.4-0.6-12.7,0.5-16.6,1c-3.2,0.4-7.6-1.1-8.7,1.8c1.4,2.4,6.8,0.4,9.2-0.5
		c5.5,0.4,8.6-1.6,14.3-1c-0.4,1.4,0.7,1.4,1,2.3c8.8,0.8,18-1.3,28.8,0c0.5-0.5,1.4-0.5,2,0c0-0.1,0.1-0.2,0.1-0.4
		c1.7-0.4,3.3-0.6,5.5-0.5c-1,5.6,4.2,3.5,6.5,5c-0.8,0.1-2.3-0.5-1.8,1c0.5,1.1,3.3-0.2,3.7,1c-2.6,0.6-7.6-1.2-8.7,1
		c5.6-0.2,16.1,1.7,19.8-2.3c-0.6-0.2-1.1-0.5-1.4-1c1.7-0.5,4.1-0.2,4.7-1.8c-7.9-0.1-13.5,0.2-19.8-1.4c6.9,0.4,11.4,0.2,18.4,0
		c1.8-1.9,4.4-3,6.9-4.2c1.9-0.5,4.1,1.7,4.2-1c-2.2-3.1-6.2-0.7-8.7-0.5c-4.5,0.6-8.8,0.7-13.9,1c0.1-1.3,0-2.5-1.4-2.3
		c-1.4,1.7-3.2,2-5.5,2.3c-1.6,0.1-3.6-0.2-5,0c-1,0.1-1.6,0.8-2.3,1c-1.4,0.1-2.7-0.5-4.2-0.5c-5.1,0.1-10.6,2.2-15.7,0.5
		c0.7-1.2,2.9-0.8,2.7-2.7c-1.9-0.5-3.5-0.2-6.5-0.5C412.6,476.7,414.4,478.1,412.9,479z M450.6,480.4c-0.6-0.7-2.6-0.1-3.2-1
		C447.9,478.5,451.2,478.7,450.6,480.4z"/>
	<path d="M186.9,643.5c1.2,2.9,7.8,0.2,9.7,2.3c-0.6,4.1,3.9,5.1,6.5,4.7c0,2,2.2,1.8,2.7,3.2c1.6,0.4,1.8-0.7,3.2-0.5
		c0.6,0.6,0.2,2.2,1,2.7c3.5,1,5.5-1,9.2-1c-0.7-3.5,1.8-1,2.3-3.2c-6.2-3-14.1-2.3-20.8-4.2c6-2.3,11.2,0.4,18.4,0
		c-1.2-3.5-7.1-3.2-11.5-3.7c-3.1-0.4-6.3,0-8.7-1c7.3,0,14.3,1.1,22.1,0c-1.3-3.3-6.1-0.5-8.7-2.3c1.7-0.5,5.4,1.1,5.5-1
		c-1.3-1.9-5.1-1.3-7.9-1.8c-0.5,1.9,0.1,2.9,0,3.2h-2.7c1.4-1.6-1.1-1.7-1.4-2.7c3.3-0.7,6.8-1.2,10.2-1.8c1.6,0.6,4.1,1.7,4.2-1
		c-1.2-1.3-4.1-0.8-5-3.2c1.4-0.5,4.7,1,4.7-1s-3.6-0.1-4.2-1.4c2.3-0.5,5-0.5,8.2,0c-0.6-2.3,2.6-0.7,1.8-3.2
		c-3.9-0.4-9.6,1-11.5-1.4c-2-0.4-8,0.4-9.7-1.8c1.9,0.4,3.6-0.5,5.5-0.5c1.6,0,4.2,1.8,5-0.5c-1.3-2.2-5.9-1.2-8.2-2.3
		c-1.3-1.3-3.1-2.2-4.7-3.2c1.6,0.2,2.6-0.1,2.3-1.8c-0.2-1.6-2.5-1-3.2-1.8c5.5-5.3,11.4-10.2,14.7-17.6c3.5-3.3,6-7.5,7.9-12.4
		c-3.8-1.7-7.8,0.5-8.7,3.2c-1.1,0.4-1.8,1-3.2,1c-2.7,3-7.3,4.7-11.5,6c-6.3,1.9-14.3,3.3-21.6,4.2c-6.7,0.7-10.6,1.6-16.6,1.8
		c-2.9,0.1-5.4,0.1-7.4,0.5c-2.7-7.1-5.6-14.1-11.1-18.4c-2.4-0.2-4.1-1.2-5-2.7c1.4-1.3,0.7-4.8,1-7.4c-4.1-2.2-9.2-1-12.4,1.4
		c-0.7,7.5,1.7,11.8,8.2,12c-2.6,6.6-8.5,9.9-15.7,12c-2.4-0.1-4.8-0.1-5,1.8v1.4c0.1,1.3,2.3,0.5,2.7,1.4c-7.2-1.3-13.7,0.8-19.8,0
		c-1.7-0.2-2.5-2-4.2-2.3c-3.6-0.6-5.6,2-9.2,2.3c-5.3-1.6-1.6-5.9-2.3-9.7c-0.4-2-2-1.3-2.3-3.7c0.1-2.6,3.2-2.3,3.7-4.7
		c-0.5-3.8-1.2-7.4-2.7-10.2c-5,0.4-9.9,0.8-13.4,2.7v3.2c2.3,0,2.5,2.2,4.2,2.7c2.3-2.6,2.6-7.2,7.9-6.9c-1.9,2.2-3.3,4.9-5,7.4
		c0,0.7,1.3,0.2,1.4,1c-1.6,4.5-10.9-0.8-12.4,4.2c-0.1,0.8,0.5,1.1,0.5,1.8c1.8,1.1,6.3-0.1,7.4,0.5c-1.1,4.3-1.8,9-3.2,12.9H52.8
		c-0.4,3.7,4.8,2,7.4,2.3c17.1,1.4,33.9-2.2,52.1-1.4c3,0.1,7.5-1.4,9.7,1.8c-14.8,0.1-36.5,1-52.6,1c-2.4,0-7.5-2.3-8.2,1.4
		c5.7,1.1,12.2,0.4,16.1,0c4.4-0.5,8.2,0.5,12.4,0.5c0.6,0,1.2-1,1.8-1c2.9,0,6,1.2,8.7,1c1.2-0.1,2.4-1,3.7-1c1.6,0,3.5,1,5,1
		c3,0,6.2-0.5,9.7-0.5c2.5,0,6-1,7.4,1.4c-5.5,0.5-12.6-0.4-18.9,0.5c-0.6,1.2,1.1,2.3,0,2.3h-2.3c0.1-0.6,0.6-0.8,0.5-1.8
		c-2.6,0-5.3-1.3-7.4-0.5c1.2,3.6,5-0.5,6.5,2.3c-11.1-0.1-19.7,1.2-30,1c0.2-1.3-1.7-0.5-1.8-1.4c3.5-0.2,8.4,0.5,12.4,0.5
		c2.9,0,7.3,0.2,8.2-2.3c-6.6,0.4-15.2,0.2-21.2,0.5c-1.3,0.7,1,2-1,1.8c-1.4,0.5-0.8-1.1-1-1.8c-8.1-0.2-13.7-1.4-20.8-1
		c-0.4-0.5-0.6-1.2-0.5-2.3c-3.6-1.8-4.7-6.1-7.4-8.7c1.4,0.2,1.4-1,1.4-2.3c-1.7,0.1-4.1-0.4-5,0.5c1.1,7.2,6.2,10.4,8.2,16.6
		c0.5,1.8-1.4,1.4-1,3.2c0.2,0.6,1.8,0.1,1.8,1c-2.9,0.2-7.4,0.8-10.6,0.5c-1.1,3.8-8.7,1.6-11.1,2.7c-0.4,1.3,0.6,1.2,0.5,2.3
		c5.1-0.8,12.4-2,17.6-1.4c-2.7-0.5-2.7,3.8-1.8,5.5c3.6-0.4,10.2,0.1,13.4,0c-4.1,1-10.8,1.1-15.7,1c-0.7,1-0.7,4.2,0,5
		c4.8-1.7,10.6-0.2,17.1-1c0.8-0.1,1.6-0.8,2.3-1c5.1-1,7.7,0.2,10.6,1.4c-3-0.2-4.7,1-6.9,1.4c-1.7-0.7-5.6-1.1-5,1.8
		c6.3,0.7,16.1-1.1,22.1,0.5c-0.7,0.8-3,0-3.7,1c-0.2,0.8,1.3,1.9,0,2.3c-2,0-3.9,0.1-3.7,2.3c1.8,1.8,4.8,2.3,7.9,2.7
		c-0.7,2.3-6.5-0.6-6,2.7c1.2,3.1,6.2,1.4,10.2,1.8c2.4,0.2,4.7,1.7,6.9,1c0.6-1.4,1.3-2.7,2.3-3.7c3.9-1,11.8,2,12.9-1.8
		c-1.6-1-3.9-1-6.5-1c-0.4-3.3-4.1-3.3-6.9-4.2c3-0.5,4.3-2.5,7.4-2.7c0.5-1.8-1.1-2.6,0-3.7c3.6-0.8,8.6,1.8,9.7-1
		c-3.5-2.5-9-1.6-13.9-1.8c-3.3-0.2-8-0.1-9.7-2.7c2.4,0.1,5.1-0.6,4.7,1.4c1.8-0.2,4.9,0,7.9,0c2.9,0,7.3,0.7,8.2-1
		c-2.7-1.6-9.6,1-11.5-1.4c3.6-2.4,7.7-0.5,11.5-0.5c0.4,0.8,1.3,1.2,1,2.7c5.1-0.6,8.4,1,12.9,1c0.2-1.8-1.7-1.4-2.3-2.3
		c3.9-1.1,12.1-1.9,15.2,0.5v2.7c-1.4,0.7-3.3,1-3.2,3.2c0.5,2,4.3,1,5.5,2.3c-3,0.5,0,2.6-0.5,4.7c-1.6,0.7-3.9,0.7-3.2,3.7
		c5.1,2.5,10.6-5,13.9-0.5c-1.2,0.7-3.6,0.1-4.7,1v1.8c0.4,1.3,2.9,0.6,3.7,1.4c-0.7,3.7,4.2,1.9,4.2,5c-2.3,2.9-8.7,1.4-12,3.2v3.2
		c0.8,0.8,3,0.4,4.7,0.5c1.6-3.2,7.1-3.6,10.2-2.7c-2.5,0.8-6.8-0.1-6.5,3.7c4.3-1,9.8-1.2,15.2-1.4c1.8-0.1,5,1.1,5.5-1.4
		c-1.2-2.5-8,0.6-9.2-1.8c2.7,0,5.7,0.1,6-2.3c-1.2,0-2.6-0.1-3.2,0.5c-1.1-1.8-2.4-3.5-3.7-5c0.8-0.2,2.7,0.6,2.3-1
		c-0.7-2.7-6.5-0.4-7.4-2.7c2-0.5,4.8-0.2,6.5-1c0.4-2-2.6-0.7-3.2-1.8c2.6,0.1,4.4-0.5,6-1.4c-1.1-2.7-4.2-3.5-5-6.5
		c-2-0.2-5.5,0.8-5.5-1.4c2.5,1.1,5.7-0.6,9.2,0c-1.2-2.5-4.9,0.2-6.5-1.8c2.5-3,9.2-0.6,11.5,1c1.6-0.1,2.9-1,3.7,0.5
		c-1.3,1.4-3.2-0.4-4.7,1.4c0.2,2.9,4.4,1,2.7,4.7c3,0.2,4.4-1.1,7.4-1c0.6-1.2-1.8-1.4-0.5-1.8c1.8,0.1,4.1-0.4,4.7,1h-3.2
		c-0.2,2.3,0.6,3.3,2.3,3.7c0.7-1.2,2.3-1.7,4.7-1.4c2.2,3.3,5.3,1.3,9.2,2.3C190.4,643.7,186.6,641.4,186.9,643.5z M218.4,652.8
		c-1.1,0.8-4.8,0.5-5-1C214.7,652.4,216.9,652.2,218.4,652.8z M70.4,601.6c0.8,0.2,1.2,1,2.3,1C72.4,603.4,69.4,603.4,70.4,601.6z
		 M70.9,598.4c0.7-1.6,0.1-4.4,1-6c1.8-0.2,2.2,1,2.7,1.8C73.8,596.1,73.4,598.2,70.9,598.4z M74.9,599.8c-1.3-0.2,0.7-0.7,0.5-1.4
		C77,598.8,74.9,599.3,74.9,599.8z M93.5,634.3h1v1h-1V634.3z M60.7,620c-0.8,1.4-2.2,0.6-3.7,0.5C57.4,619.4,59.6,620.4,60.7,620z
		 M55.6,612.2c-2.3,0.6-5,2.7-6.5,2.7C49.7,612.5,52.5,612.1,55.6,612.2z M55.6,620c-1.8,1.1-7.2,2.2-11.5,1.4
		C46.5,619.5,51.5,620.2,55.6,620z M54.7,629.7c0.6-2.3,3.7,0.1,5.5-0.5C59.3,630.3,56.4,629.4,54.7,629.7z M63.5,628.4
		c0.7-1.3,2.5,0.2,3.2,0.5C66,630.2,64.2,628.6,63.5,628.4z M43.6,624.7c6.7-3.5,17.9,0.8,25.3-1.4c0.7-0.2,2.2-1,2.3-2.3
		c-0.7,0.1-0.8-0.5-1.4-0.5c2-0.8,4.7,0.4,7.4-0.5c-0.6,1.4-3.1,2.2-0.5,3.2c-1.6,0.7-4.1,0.5-4.7,2.3
		C64.8,622.2,51.8,625.7,43.6,624.7z M69.9,632.4c-0.1-1,1.7-0.2,2.3-0.5C72.3,633,70.6,632.2,69.9,632.4z M75.9,629.7
		c0.6,0.7,1.6,0.8,2.7,1c-1.1,0.8-3.8,0.1-4.7,1.4v-1.4c-4.1-0.4,0.7-0.1,1.4-1c-0.8-1.1-3.5-0.1-5-0.5c1.8-2.7,5.9-2.2,9.7-1.8
		C80.1,630.5,77,627.7,75.9,629.7z M80.6,632.4C82.6,631,83.6,633.6,80.6,632.4L80.6,632.4z M86.5,642.6
		C85.5,644,83.6,642.1,86.5,642.6L86.5,642.6z M84.3,634.3c1.4,1,2.9-0.5,4.2,1C87.4,635.4,84.6,636.3,84.3,634.3z M88.8,639.8
		c1.1-0.2,1,0.8,2.3,0.5C91.2,641,88.1,641.3,88.8,639.8z M89.8,637.6c0.5-0.8,1.7-1.2,2.3-0.5C92.2,638.1,90.4,637.3,89.8,637.6z
		 M95.3,644.5c0,1.1-1.9,0.2-2.7,0.5C92.5,643.9,94.4,644.7,95.3,644.5z M92,631.1c-2.5,1.7-5.1,1-8.2,1.4
		C85.1,630.6,89.8,632.1,92,631.1z M81.4,625.6c1.8-2.3,5.1-0.4,8.7-1C88.3,626.3,83.9,625.7,81.4,625.6z M196.3,638.1
		c0.7-0.6,1.7-0.5,2.7-0.5l0,0c1.8,0.1,4.8,0.8,5.5,1.8C202.4,638.3,197.5,640,196.3,638.1z M211.5,627.9c0.6-0.6,2.2-0.6,2.7,0
		c-0.4,1-1.2,1.7-2.7,1.4V627.9z M196.6,633.9c4.2,0,11.4-3.2,13.9-0.5C206,634.3,200.9,634.3,196.6,633.9z M208.7,628.4
		c-1.4,1.7-8,1.4-8.2-1c-5.9,0.5-12.7,1.7-19.4,1c-1-0.1-3.2,0-3.7-1.4c4.3-0.6,8.5-0.2,12.4-0.5c1.7-0.1,3.5-1,5-1
		c2,0,3.7,1.3,5.5,1.4C202.8,627.1,206.4,625.7,208.7,628.4z M197.1,610.3c-0.2,3.5-2,2.4-4.7,1.8c-8.7,1.9-19.2,0.4-27.3,1.8
		c0.7-1.3,3.1-1.2,4.2-1.4C177.5,611.6,187.5,612,197.1,610.3z M185.2,609c0.8-1,3.6-0.1,4.7-1c-0.1,0.5-1,0.4-1,1H185.2z
		 M211,599.3c2.2-5,5.9-8.6,8.2-13.4c1.4,0.7-0.2,2.7-1,4.2c-0.7,1.6-2.5,2.9-2.3,4.7c-1,0.2-1.4,1-2.3,1.4
		c-2.7,5.1-6.5,9.9-10.6,13.9c-1.2,1.1-2.7,2.2-4.2,2.7c2.5-5,8.4-6.7,10.2-12.4C209.8,599.9,210.3,599.6,211,599.3z M121.6,601.6
		c1.8-1,3.3-2.3,6.5-1.8c5.5-3.5,12.8-5,12.9-13.9c0.2-1.2-3.1-1.2-1.8-1.8c1.4-1.2,3.5,0.4,5,0.5c0.7,2.4,2.9,3.5,4.2,5.5
		c0.4,0.6,0.1,1.7,0.5,2.3c0.8,1.6,3.1,2.5,2.3,5c-4.3,1.3-7.3,2.4-10.6-0.5c-0.5-2,1.6-1.6,1.4-3.2c-1.3-1.4-2,1.7-4.2,1
		c-0.5,1.9,1.2,3,0,4.2C131.4,597.5,129.6,603.4,121.6,601.6z M124.8,603.4c28.1,0.1,58.5-2.3,83.4-8.7c0.4-0.1,0.5,0.2,0.5,0.5
		c-3.5,4.4-6.2,9.4-10.2,13.4c-2.2,0.2-2.9-0.8-5-0.5c1.3-2,5.9-1,6-4.2c-1.8-1.4-3.8,0.6-5.5,1c-1.8,0.4-3.9,0.5-6,1
		c-4.2,0.8-10.4,1.7-15.2,2.3c-3,0.4-6.1-0.1-9.2,0c-6.2,0.4-12.7,1.6-18.9,1.4c-1.2,0-2.5-0.5-3.7-0.5c-3.7,0.1-9.2,2.5-11.5-1.4
		c12.9-1.2,29.2-0.1,44.2-1.4c9.4-0.8,18.9-1.4,25.8-5c-1.6-1.2-4.1,0-6,0.5c-5.3,1.2-12.6,1.7-18.4,2.3c-8.5,0.8-18.3,0.5-29,1
		c-5.1,0.2-10.8,1.6-17.1,1C126.9,605.5,124.9,606.5,124.8,603.4z M153.4,611.3c1.6-0.7,3.9-0.6,6-1
		C158,611.4,155.7,611.3,153.4,611.3z M156.1,613.1c-0.1,1-1.2,1-2.3,1C153.4,612.5,155.3,613.3,156.1,613.1z M151.9,611.3
		c-1,0.5-1.7,1.1-1.8,2.3c-6.3-0.2-11.7,1.2-16.1-1.4c3.6-2.2,9.3-0.4,12.9-1c0.8-0.1,0.7-0.5,1.4-0.5
		C149.5,610.8,151.1,611.2,151.9,611.3z M110.4,613.1c1-1.8-3.6-0.4-1.8-1.4c0.7-0.7,2.9-0.1,3.7,0.5c1.8-1.1,4.8-0.4,8.2-0.5
		c3.3-0.1,7.9-1.7,9.2,1c-6.6,0.1-12.4,1.7-17.6,0c-0.6,0.1-0.4,1.2-0.5,1.8c-4.8,0.2-7.1,0.2-12.9,0.5
		C102,613.5,107.2,614.3,110.4,613.1z M135.8,630.6c1.2-1.7,7.8-3.1,8.2,0C141.9,629.8,137.7,631.2,135.8,630.6z M139,641.3
		c-0.4-1.8,2.2-0.6,3.2-1C141.9,641.3,140.6,641.3,139,641.3z M142.7,636.6C142.1,638.4,140.1,636.4,142.7,636.6L142.7,636.6z
		 M144.2,637.1c0,0,2.2-1.2,4.2-0.5C146.4,637.3,145.1,637.3,144.2,637.1z M143.7,633.4c-0.8,0.1-1-0.5-0.5-0.5
		c1.2-0.6,5.3-0.8,6.5,0C147.1,632.6,146.1,633.6,143.7,633.4z M169.5,630.2c-5,0.2-12.9-1.1-18.9-1.8c-2.7-0.1-2.4,2.9-5.5,2.3
		c-0.1-1.4,1.2-1.6,1-3.2c-3-2.2-6.9-1.6-11.5-1.4c-0.4-1.4,1.2-1,1.4-1.8c-3.1-1.2-9,2.3-11.5-1c-11.5,1.1-21.8,0.7-30.8-0.5
		c4.1-1.2,11-4.9,14.7-1c10.2-1.9,21.4,1,31.8,0c-0.1-1.7-3-0.7-2.3-3.2c3.2,1.8,4.7,5.7,9.7,4.7c0.6-3.6-3.3-2.5-3.7-5
		c4.1-0.7,8.6-0.8,11.1,1.4l0,0c4.8-1.6,10.8-0.6,17.1-1.4c-5.4,1.9-16.1,2.6-21.6,1.4c1,6.2,5.4,6.3,12.4,6
		c0.6-1.8-1.3-1.2-1.8-1.8c2-1.9,3.1,1.1,4.7,1.4c1.9,0,1.2-2.5,2.7-2.7c7.5,0,12.7,0.5,19.8,1.4c-5.3,0.2-9.6,1.4-14.7,1.8
		c-1.8-0.1-1.6-2.5-4.2-1.8c-1.8,0.4-1.9,2.4-2.7,3.7c1.3,1.9,5.3,1.2,8.2,1.4C174.3,631.1,171.2,630,169.5,630.2z M160.8,621.4
		c0.1,1-1.7,0.2-2.3,0.5C158.4,620.8,160.1,621.7,160.8,621.4z M181.9,634.3c-2.6-1.4-7.5-0.5-10.6-1.4c-0.2-0.4-0.6-0.8,0-1
		c-0.1-0.5,0.1-0.8,0.5-1c5.9,0.6,12.1,0.7,19.4,0.5C188.9,633.3,183.6,632.1,181.9,634.3z M183.7,638.1c2.5-1.7,7.6-1.8,10.2,0
		C191.5,640.4,186.7,638.1,183.7,638.1z"/>
	<path d="M216.9,662.9c3.5-0.2,8.4,1.4,9.7-1.8c-4.1-1.2-9.6-1.2-12.9-1.8c-1.6,1.6,1.8,1,1.8,2.3c-1.8-0.4-3.9,0.4-6,0.5
		c-3.1,0.2-6.8-0.8-8.2,1.4C204.6,665.1,213.6,663.2,216.9,662.9z"/>
	<path d="M453,665.7c4.8-0.1,10.3,0.2,15.2,0c4.2-0.2,8.2-1.1,12-1c3.1,0.1,6.1,2,8.2-1c-9.8-1.7-23.8-1.1-34.1-2.3
		c0.8,2.6,6,1.2,8.2,2.3c-5,1.4-11.5,0.1-18.4,1C446.3,667,449.4,665.8,453,665.7z"/>
	<path d="M454.3,661.5L454.3,661.5L454.3,661.5z"/>
	<path d="M151.1,681.3c1.8-0.2,4.2-0.5,6-0.5c30.1,0.5,61.6-5,88.5-1.8c7.2-1.7,16.7-0.7,23.5-1.8c1.6-0.2,3.8,0.4,4.7-1.4
		c-1.8-0.8-4.2-1-6.9-1c-1.6-0.4-0.6,1.9-2.3,1.4c-12-2.3-23.9,1.8-36.9,0.5c-14.6-1.4-32.6-0.1-44.7,1c-2.9,0.2-6.1,0.7-8.7-0.5
		c0.5-1.7,3.8-0.5,3.2-3.2c-3.7-0.8-9.2-2.2-12.9-1.4c-0.2,0.7-0.6,0.7,0,1.4c1.7,1.1,5.7-0.2,7.4,1c-3,0.2-5.5,1-6,3.7
		c-27.4,2.2-56.2,0.5-85.7,1.8c-5.7,0.2-15.4-0.2-21.2,0.5c-1.7,0.2-5,0.1-5,2.7c1.2,2.5,5.1-1.3,6.9,0.5c-0.4,2.2-5.4-0.4-4.7,2.7
		c4.9,0.1,13-0.8,18.9-0.5c1-0.4-0.1-3,1-3.2C101.5,681.7,127.9,684,151.1,681.3z M67.7,683.6C66.6,685,64.7,683.1,67.7,683.6
		L67.7,683.6z"/>
	<path d="M274.6,696.1c-4.1-0.2-7.5-1-12.9-1c0,0.8-0.2,0.7-1,1c-14.7,3.8-32.3-0.7-46.5,1.4c-1.4-0.2-0.1,2.3-1.8,1.8
		c-3,0.4-6-0.5-9.2,0c-1.2,0.1-2.4,1.1-3.7,1.4c-2.7,0.6-5.5-0.1-8.2,0c-10.2,0.4-20.7-0.6-30.5,1.4c-8.8-2.3-19.8-0.7-30.5,0
		c-7.8,0.5-15.4-0.4-21.2-0.5c-1.8,0-5.3-1.9-6,1.4c2.2,4.1,7.4,0.8,11.5,0.5c7.3-0.7,16.5,0.5,24,0c8,3.5,18.9-0.1,30-1
		c9.8-0.7,18.5,1.1,26.8,0c0.8,1.9,2.7,2.9,6,2.3c2.2,0-0.6-2.7,1.4-2.3c13-1.8,28.1-1.6,42-2.3c3.8-0.2,7.4-1,11.1-1
		c1.1,0,2.6,1,3.7,1c1.2,0,2-1,3.2-1c3.2,0.1,7.3,2.5,10.2,0c-2-1.1-6.3,0.2-7.9-1.4C268.5,697.7,273.5,698.9,274.6,696.1z"/>
	<path d="M578.8,696.5c-2.5,3.2-7.1,1.2-10.6,1c-3.7-0.2-7.7,0.2-11.5,0c-14.1-0.8-29.2-2.7-43.3-3.2c-12.7-0.4-24.7-0.1-36.9-1.8
		c2-0.2,4.9,0.2,5.5-1.4l0,0c-31.3-4.4-63.9,3.7-95.4,2.3c-1.4,0-2.7-0.8-4.2-1c-4.7-0.4-9.6,0-13.9,0c-1.9,0.2-0.8-2.5-3.2-1.8
		c-5,0.2-10.2-1-13.9,0c-1.7,0.5-5.3,1.3-6,2.7c2.5,1.9,5.6-0.4,8.7-0.5c5.4-0.1,11.2,2.3,16.1,0.5c10.8,1.3,23.9,1.8,36.8,2.3
		c7.5,0.2,14.6-1.1,22.1-1.8c5.4-0.6,12.1,0.1,16.6,0c1.1,0,1.9-1,2.7-1c1.9,0,3.9,0.8,6,1c2.6,0.1,5.5-0.2,7.9,0
		c3.9,0.5,7.5,1.7,11.5,1.8c3.1,0.1,6.5-0.2,9.7,0c1.1,0.1,2,0.8,3.2,1c6.6,0.7,13.7-0.2,20.8,0c18.9,0.7,40.3,2.6,58.1,3.2
		c1.2-0.1-1.2,1.8,1,1.4c4.4-0.8,10,1.2,12.9-1.8c-0.2,1.2,0.2,1.7,1.4,1.4C582,698.9,580.7,697,578.8,696.5z M467.2,692.4
		c-1.1-0.1-1.7-0.7-3.2-0.5C464.1,691.2,467.8,690.9,467.2,692.4z"/>
</g>
</svg>
