<?xml version="1.0" encoding="utf-8"?>
<!-- Generator: Adobe Illustrator 17.0.0, SVG Export Plug-In . SVG Version: 6.00 Build 0)  -->
<!DOCTYPE svg PUBLIC "-//W3C//DTD SVG 1.1//EN" "http://www.w3.org/Graphics/SVG/1.1/DTD/svg11.dtd" [
	<!ENTITY ns_flows "http://ns.adobe.com/Flows/1.0/">
	<!ENTITY ns_extend "http://ns.adobe.com/Extensibility/1.0/">
	<!ENTITY ns_ai "http://ns.adobe.com/AdobeIllustrator/10.0/">
	<!ENTITY ns_graphs "http://ns.adobe.com/Graphs/1.0/">
]>
<svg version="1.1" id="Layer_1" xmlns:x="&ns_extend;" xmlns:i="&ns_ai;" xmlns:graph="&ns_graphs;"
	 xmlns="http://www.w3.org/2000/svg" xmlns:xlink="http://www.w3.org/1999/xlink" xmlns:a="http://ns.adobe.com/AdobeSVGViewerExtensions/3.0/"
	 x="0px" y="0px" width="612px" height="792px" viewBox="0 0 612 792" style="enable-background:new 0 0 612 792;"
	 xml:space="preserve">
<path d="M320.7,704.6c-9.3,0-18.5,0-27.9,0c-1.5-0.3-3.1-0.7-4.7-0.8c-28.1-1.6-55.2-7.3-81.6-17.3c-78-29.7-134.1-82.9-169.5-158.3
	C23.5,499.3,15,469,11.2,437.2c-1.1-8.5-1.8-17.1-2.8-25.6c0-9.6,0-19.2,0-28.8c0.3-1.7,0.6-3.4,0.8-5.1c1.3-11.2,2.2-22.6,3.9-33.7
	c8-50.2,28.1-95.5,58.3-136c21.8-29.1,48.6-53.3,79.6-72.7c36.1-22.7,75.2-37.1,117.6-42.6c8.1-1.1,16.1-1.9,24.2-2.8
	c9.3,0,18.5,0,27.9,0c1.7,0.3,3.5,0.6,5.2,0.9c17.2,2.4,34.9,2.9,51.5,7.5c88.5,24.6,154.5,77.4,195.9,160c16,32,26,66,30.1,101.5
	c1,8.4,1.8,16.8,2.8,25.2c0,7,0,14.1,0,21.1c-0.6,6.3-1.2,12.7-1.7,19c-2.4,28.2-8.3,55.7-18.3,82.1
	c-26.7,70.3-72.4,124.4-138.1,161.2c-31.9,17.8-66.1,29-102.3,33.6C337.1,702.9,328.9,703.6,320.7,704.6z M379.4,359.6
	c-1.7,0.1-3.6,0.2-5.3,0.4c-33,4.5-64.9,13.3-96.6,23.4c-11.5,3.7-18.3,10.5-22.4,21.9c-11.5,33-20.7,66.8-28.5,100.9
	c-1.2,5.5-0.1,9.9,3.4,14.2c23,28.2,49.6,52.5,77.9,75.1c2.3,1.8,6.7,2.5,9.8,1.8c20.8-4.5,41.5-9,62-14.5c15.9-4.2,31.4-9.7,47-15
	c2.2-0.8,5-2.9,5.7-5c11.4-35.2,22.5-70.5,33.8-105.8c1.5-4.9,0.6-8.4-2.8-12c-24.4-26.9-48.8-53.8-73.1-80.8
	C387.3,360.9,383.9,359.2,379.4,359.6z M130.5,530.1c0,0.2,0.1,0.4,0.1,0.7c17.1-2.3,34.3-4,51.2-7c13-2.3,25.7-6.1,38.5-9.5
	c1.3-0.4,2.9-1.9,3.3-3.2c4.7-18.9,8.6-37.9,14-56.7c5.7-19.6,12.3-38.9,19.4-58c2.2-5.9,2.4-9.9-1.4-14.8
	c-9.8-12.6-19.6-25.3-28.8-38.3c-11.2-15.9-21.7-32.3-32.9-48.3c-1-1.4-4-2.5-5.9-2.1c-11.8,2.1-23.3,5.3-35.3,6.9
	c-19.9,2.9-40,5.1-59.9,7.1c-4,0.4-6.1,1.2-7.6,5.1c-13.1,35.5-23.5,71.9-31.6,108.8c-1.2,5.7-0.6,10.9,2.8,15.9
	c19.6,29.2,39.1,58.5,58.3,87.9c3.3,5.1,7.1,6.9,12.7,6C128.5,530.2,129.5,530.2,130.5,530.1z M388.1,313.1c-0.4,0-0.8,0-1.2,0
	c0,13.3-0.1,26.5,0.1,39.9c0,2.4,1.1,5.3,2.7,7c24.6,27.4,49.4,54.6,74,81.9c6.2,6.9,6.3,7.7,15,4.2c24.3-9.8,48.4-20,72.4-30.3
	c1.3-0.6,2.6-2.8,2.9-4.4c1.5-9.1,3.4-18.3,4.1-27.5c2.1-27.8,3.9-55.5,5.6-83.3c0.2-2.8-0.9-6.1-2.5-8.4
	c-16.7-23.6-35-46.1-55.3-66.8c-5.9-5.9-12.3-11.2-18.9-16.2c-2.1-1.5-6-2.5-8.4-1.7c-26,8.8-51.8,18.3-77.8,26.9
	c-7.1,2.4-8.9,6.5-9.2,13.4C390.7,269.7,389.3,291.4,388.1,313.1z M98.4,304.4c28.3-2.4,56.5-6.7,84.2-12.7c6.1-1.3,10.9-4.2,15-8.6
	c18.3-19.5,36.7-38.8,54.7-58.6c6.5-7.2,11.9-15.4,17.9-23.1c2.8-3.7,3.3-7.6,1.8-11.7c-4.5-13.3-8.8-26.6-13.6-39.8
	c-1.8-5.1-4.6-9.8-7.1-14.6c-1.8-3.6-4.8-5.4-9-5c-3.5,0.3-7.1-0.1-10.6,0.4c-23.4,3.4-46.8,6.7-70.1,10.4c-6.2,1-13.4,1.2-18.3,4.7
	c-21.1,15-41.7,31.4-59.5,50.9c-6.8,7.5-12.3,16.2-17.9,24.8c-1.6,2.5-2.2,6.6-1.4,9.6c5.2,20.6,10.7,41.1,16.4,61.5
	C84.5,305.4,84.9,305.3,98.4,304.4z M250.8,128.7c2.6,4.9,5.2,8.9,6.9,13.4c6.1,15.7,11.6,31.4,17.6,47.1c0.8,1.9,2.5,4.2,4.3,5
	c22.4,9.7,44.8,19.6,67.4,28.6c12.4,4.9,25.4,8.5,38.2,12.4c2.6,0.8,5.9,1,8.4,0.1c15.9-5.6,31.8-11.6,47.7-17.3
	c9.4-3.4,19-6.5,28.5-9.8c8.8-3.1,9.7-3.8,7-12.7c-5.6-18-11.5-35.8-17.8-53.6c-1.2-3.4-3.8-6.8-6.7-8.7
	c-29.8-18.8-61.8-32-96.7-37.3c-4.9-0.8-10.5-1.2-15.2,0.4c-14.7,4.8-29,10.7-43.6,15.9C281.7,117.7,266.4,123.1,250.8,128.7z
	 M494.9,604.6c-5.7-3-11-5.4-15.9-8.4c-13.2-8.2-26.2-16.5-39.1-25.2c-3.7-2.5-6.7-2.8-11-1.3c-35.5,11.9-71.2,24-108.5,29.4
	c-9.1,1.3-15.3,5.3-20.7,12c-4,5-8.5,9.6-12.3,14.8c-8,10.8-15.6,21.9-23.3,32.8c-3.7,5.1-4,10-0.3,15.3c5,7,9.8,14.2,14.3,21.5
	c3,4.7,6.8,6.2,12.3,6.3c26.4,0.7,52.3-2.6,78.1-7.8c45.4-9.2,85.9-28.6,121.5-58.1c1.3-1.2,2.9-2.9,3-4.5
	C494.1,622.4,494.5,613.2,494.9,604.6z M12.4,428.2c2.1,11,3.7,20.3,5.7,29.5c7.1,32.4,16.1,64.2,33,93
	c17.7,30.5,41.1,56.2,67.1,79.7c12.4,11.3,12.4,11.2,25.6,0.6c2.7-2.2,3.7-4.1,2.5-7.7c-9.5-30.1-18.8-60.2-28.3-90.3
	c-0.6-1.9-2-3.6-3.2-5.3c-20.8-31.6-41.7-63.2-62.5-94.8c-0.8-1.2-2.3-2.7-3.6-2.8C36.9,429.4,25.4,428.9,12.4,428.2z M581.6,282.4
	c-4.5,3.7-8.3,6.8-12.3,9.7c-2.5,1.8-3.1,3.9-3.3,6.9c-1.5,38.1-3.3,76.4-9.5,114.1c-0.2,1.2,0.1,2.5,0.6,3.5
	c12.9,27.3,18.5,55.9,16,86c-0.2,2.2-0.8,4.5-1.2,6.8c9.4-2.4,14.3-7.8,16.8-16.8c8.5-30.9,14-62.3,14.6-94.4
	C604.3,358.5,593.8,320.6,581.6,282.4z M278.6,699.6c-1.2-1.5-2.2-2.9-3.2-4.3c-4.5-6.5-10.5-12.6-13.3-19.8
	c-3.2-8.1-8.1-10.3-15.9-11.8c-33.1-6.6-65-16.9-95.4-32c-1.2-0.6-3.3-0.8-4.2-0.1c-4.4,3.4-8.6,7-12.9,10.6
	C155.3,664.3,248.2,701.1,278.6,699.6z M581.1,509c-9.3,3.6-9.2,3.6-14.9,11.2c-20.8,28.1-41.4,56.1-65.9,81.1
	c-1,1.1-1.7,2.7-1.8,4.1c-0.2,7.8-0.1,15.5-0.1,22C535.1,595.7,565.1,557.1,581.1,509z M156.2,530.3c-11.7,0.9-23.3,1.6-35.5,2.6
	c1.8,5.3,3.5,10.2,5.1,14.8C136.9,543.1,143.1,530.7,156.2,530.3z M62.1,227.3c-3,8.5-5.5,15.9-8.1,23.4c3.8-2.8,7.5-5.4,11.6-8.3
	C64.7,238.4,63.4,233.3,62.1,227.3z M459.3,134.5c1.8,11.2,5.7,13.7,12.2,8.8C467.6,140.5,463.8,137.8,459.3,134.5z"/>
<path style="fill:#FFFFFF;" d="M119.3,562.9c-16.1,0.6-23.9,15.9-37.9,21.6c-1.9-5.7-4.1-11.8-6.3-18.4
	C90.1,564.9,104.7,563.8,119.3,562.9z"/>
<path style="fill:#FFFFFF;" d="M496.4,70.3c5.6,4.1,10.4,7.5,15.2,11C503.3,87.4,498.7,84.3,496.4,70.3z"/>
</svg>
