<?xml version="1.0" encoding="utf-8"?>
<!-- Generator: Adobe Illustrator 17.0.0, SVG Export Plug-In . SVG Version: 6.00 Build 0)  -->
<!DOCTYPE svg PUBLIC "-//W3C//DTD SVG 1.1//EN" "http://www.w3.org/Graphics/SVG/1.1/DTD/svg11.dtd" [
	<!ENTITY ns_flows "http://ns.adobe.com/Flows/1.0/">
	<!ENTITY ns_extend "http://ns.adobe.com/Extensibility/1.0/">
	<!ENTITY ns_ai "http://ns.adobe.com/AdobeIllustrator/10.0/">
	<!ENTITY ns_graphs "http://ns.adobe.com/Graphs/1.0/">
]>
<svg version="1.1" id="Layer_1" xmlns:x="&ns_extend;" xmlns:i="&ns_ai;" xmlns:graph="&ns_graphs;"
	 xmlns="http://www.w3.org/2000/svg" xmlns:xlink="http://www.w3.org/1999/xlink" xmlns:a="http://ns.adobe.com/AdobeSVGViewerExtensions/3.0/"
	 x="0px" y="0px" width="612px" height="792px" viewBox="0 0 612 792" style="enable-background:new 0 0 612 792;"
	 xml:space="preserve">
<path style="fill:none;stroke:#000000;stroke-width:2;stroke-miterlimit:10;" d="M512.7,513.3c-3.9-8.6-7.5-17.3-11.5-25.9
	c-5.3-11.6-6.4-22,5.3-30.9c3.2-2.4,7.1-6.6,4.2-12.1c9.4-10,18.6-20.1,26.3-31.5c1-1.5,2.2-2.4,3.8-2.9c-2.3-0.5-0.8-1.5-0.3-2.4
	c3.5-6.5,7.9-12.6,9.5-20c-5,2.4-10.1,4.6-15.9,4.5c-2.3,5.2-4.3,10.6-8.2,14.9c-4.5,9.5-10.4,18.1-18.5,25c-1.3,1.1-2.7,2-4.2,2.7
	c-2.8,1.3-6,2.3-8.6,0.4c-2.3-1.7-0.7-4.6-0.3-6.8c0.6-3.2,0.4-6.7,2.6-9.4c-0.9-4,1.5-7.3,2.1-11c0.6-3.4,1.9-6.7,2.8-10
	c-2.7,0.8-5.6,1.5-8,3c-0.3,0.3-0.6,0.6-1,0.9l0,0c0,0.4,0,0.7,0.1,1v0.1c0.1,1.2,0,2.4-0.1,3.6c-0.2,1.8-0.8,3.6-1.9,5.3
	c0,1.1,0.2,2.3-1,3c0,0.3,0,0.7,0,1c0,0.1,0,0.2,0,0.3c0,0.1,0,0.1,0,0.2l0,0c0,0.1,0,0.2-0.1,0.3c0,0,0,0.1-0.1,0.2
	c0,0.1,0,0.1-0.1,0.2c-0.2,0.3-0.4,0.6-0.9,0.8c-0.9,1.5-1.9,3.1-2.8,4.7c0,2.2-1.7,3.5-2.9,5c-2.1,2.4-4.8,4.1-7.9,3.2
	c-2.8-0.9-2.8-4.1-3.1-6.7c-2.3-6-0.5-12.2-1.2-18.2c-3.4,0.3-6.7,0.6-10.1,1c0,0.1,0,0.2,0,0.3c0,3.8,1.7,7.4,1.1,11.3
	c-0.4,2.4-0.5,4.9-2.8,6.5c-3,2.7-6.4,3.8-9.7,3.6c-0.1,0-0.3,0-0.4,0c-0.4,0-0.7-0.1-1.1-0.2c-0.2,0-0.4-0.1-0.5-0.1
	c-0.4-0.1-0.8-0.2-1.2-0.4c-0.2-0.1-0.4-0.2-0.6-0.3c-0.3-0.2-0.7-0.3-1-0.5c-0.2-0.1-0.3-0.2-0.5-0.3c-0.2-0.1-0.4-0.2-0.5-0.4
	c-0.2-0.1-0.4-0.3-0.5-0.4l0,0c-0.1-0.1-0.2-0.2-0.3-0.2l0,0c-0.1-0.1-0.2-0.2-0.3-0.3l-0.1-0.1c-0.2-0.2-0.4-0.4-0.7-0.7
	c-0.2-0.2-0.3-0.4-0.5-0.6c-0.2-0.3-0.4-0.6-0.6-0.9c-0.1-0.1-0.2-0.2-0.2-0.3c0,0,0,0,0-0.1c-0.1-0.2-0.3-0.4-0.3-0.6
	c-0.2-0.3-0.3-0.6-0.5-0.9s-0.3-0.6-0.4-1c-0.3-0.1-0.6-0.3-0.9-0.4c-0.8-0.4-1.4-0.9-2-1.4c-0.2-0.2-0.4-0.3-0.6-0.5
	c-2.4-2.5-3.8-5.9-6.2-8.4c-1.5-1.5-2.5-3.4-4.4-4.6c-2.9,4.2-7.2,6.9-11.1,10c0.3,0.7,0.7,1.4,1.1,2.1l0,0l0,0c0.3,0.3,0.7,0.7,1,1
	s0.7,0.7,1,1c0.2,0,0.5,0,0.7,0c0.1,0,0.2,0,0.2,0c0.1,0,0.1,0,0.2,0.1c0.1,0,0.1,0.1,0.2,0.1c0.2,0.1,0.4,0.3,0.5,0.5
	c0,0.1,0.1,0.2,0.2,0.3l0,0l0,0c0.3,0.3,0.7,0.6,1,1c0.3,0.3,0.7,0.7,1,1c0.2,0,0.3,0,0.5,0c0,0,0.1,0,0.2,0h0.1
	c0.1,0,0.2,0,0.3,0.1c0.1,0,0.2,0.1,0.3,0.2c0,0,0.1,0,0.1,0.1c0.1,0,0.1,0.1,0.2,0.1c0,0,0,0,0.1,0.1c0,0,0.1,0.1,0.1,0.2
	c0.1,0.1,0.1,0.2,0.2,0.3c0.1,0,0.2,0,0.3,0c0.1,0,0.1,0,0.2,0s0.3,0,0.4,0.1c0.1,0,0.3,0.1,0.3,0.2c0.1,0,0.2,0.1,0.2,0.1
	s0,0,0.1,0.1l0,0c0,0,0,0,0,0.1l0.1,0.1c0,0,0,0,0,0.1s0.1,0.1,0.1,0.2s0.1,0.1,0.1,0.2s0.1,0.2,0.1,0.3v0.1c0,0.1,0,0.3,0,0.4
	c0.4,0,0.9,0,1.2,0.2c0.2,0.1,0.3,0.2,0.4,0.3c0,0,0,0.1,0.1,0.1c0.1,0.1,0.2,0.2,0.3,0.4l0,0l0,0c0.3,0.3,0.7,0.7,1,1
	c0.3,0.4,0.7,0.9,1,1.3v0.4c0.4,0.1,0.7,0.2,1.1,0.2c0.3,0,0.5,0,0.8,0c0.1,0,0.3,0,0.4,0s0.3,0,0.5,0.1c0.1,0,0.2,0,0.3,0.1
	c0.1,0,0.2,0.1,0.2,0.1s0.1,0,0.1,0.1l0.1,0.1l0.1,0.1c0,0,0.1,0.1,0.1,0.2c0.1,0.1,0.1,0.2,0.1,0.2v0.1c0,0,0,0.1,0,0.2
	s0,0.1,0,0.2c0,0.2,0,0.4,0,0.7l0,0c0.3,0.3,0.7,0.6,1,0.9c0.3,0.2,0.5,0.4,0.7,0.7c0.1,0.1,0.2,0.2,0.3,0.3l0,0
	c0.3,0.3,0.7,0.6,1,0.9l0,0c0.5,0,0.9,0.1,1.2,0.3c0.1,0,0.1,0.1,0.2,0.2c0,0,0,0,0,0.1s0.1,0.1,0.1,0.2s0.1,0.2,0.1,0.2
	s0,0.1,0,0.2s0,0.2,0,0.3l0,0l0,0c0.2,0,0.3,0,0.5,0c0.1,0,0.2,0.1,0.2,0.1l0.1,0.1c0,0.1,0.1,0.1,0.1,0.2s0.1,0.2,0.1,0.2v0.2
	c0.2,0,0.3,0,0.5,0c0.1,0,0.2,0,0.3,0c1,0.1,1.5,0.7,1.8,1.5c0,0.1,0,0.1,0.1,0.2s0.1,0.3,0.1,0.4c0,0,0,0.1,0.1,0.2
	c0,0.2,0.1,0.4,0.1,0.7c0,0,0,0,0.1,0s0.1,0,0.2,0h0.1c0.2,0,0.3,0.1,0.3,0.2c0,0,0.1,0,0.1,0.1s0.1,0.1,0.1,0.2v0.1
	c0,0.1,0,0.2,0,0.3c0.1,0,0.1,0,0.2,0s0.2,0.1,0.3,0.1c0.1,0,0.1,0.1,0.2,0.1l0.1,0.1c0,0,0.1,0.1,0.1,0.2s0,0.1,0,0.2s0,0.2,0,0.4
	c-0.3-0.4-0.6-0.8-0.9-1.1l0,0c-0.3-0.3-0.6-0.6-0.9-1c-0.5-0.3-1-0.5-1.5-0.8c-0.6,3.4,0.2,6.6,1.4,9.7c2.7,6.8,3.3,14,2,21.1
	c-5.2,29-19.2,54.1-35.5,78.1c-5.3,7.8-11.9,14.6-17.3,22.3c-1.6,2.3-3.4,4.8-0.3,7.4c-4.9,5.5-10.8,9.7-18.1,13.5
	c7.8,2.3,14.3-1.4,21.1-1c0.5-0.1,1-0.3,1.5-0.4c1.3-0.1,2.7-0.2,4-0.3c12.6-2.3,25.3-3.5,38.1-2.9c4.3,0.2,8,2,11.2,4.8
	c4.2,3.5,8.3,7.1,12.4,10.7c9.2,5.1,11.7,4.5,16.4-3.6c1.4-4.6,2.5-9.3,4.1-13.8c2.2-6.1,6.2-8,12.6-6.7c6.7,1.3,12.6,4.4,17.6,8.9
	c1.5,1.3,4.5,0.5,4.7,3.4c0.6,0.1,1.3,0.3,1.9,0.4c3.9,2.3,7.8,4.8,11.9,7c3,1.6,6.4,4.4,9.6,2.1c3.3-2.5,0-6.1-0.3-9.2
	c2.7,0,3.8-1.5,3.8-4.1c0-5.5-1.6-10.5-3.8-15.3C530.5,551.5,521.5,532.5,512.7,513.3z M416,568c-0.1,0.6-0.3,1.1-1,1
	c0.2,1.2-0.3,1.9-1.5,2c0.5-0.7,0.5-1.7,1.5-2C415,568.3,415.2,567.9,416,568c-0.4-3.7,2.4-6,4.2-8.6c2.7-3.9,5.8-7.6,8.7-11.3
	c0,0,0,0,0-0.1C428.8,557.4,421.8,562.3,416,568z M454,474L454,474L454,474c-0.3,1.3,0.5,2.9-0.9,4c0,0,0,0-0.1,0l0,0
	C453.1,476.6,452.8,475.1,454,474z M450,487c0-0.8-0.1-1.7,1-2c-0.1-1.1-0.3-2.3,1-3l0,0l0,0c0,1.1,0,2.2-1,3
	C451,485.8,450.8,486.6,450,487c0,0.8-0.1,1.7-1,2c-0.1,1.1-0.1,2.2-1,3c0,0.3-0.1,0.7-0.1,1c-0.2,0-0.5,0.1-0.7,0.1
	c0.2-0.3,0.5-0.7,0.7-1.1l0,0c0.2-1.1,0-2.3,1-3.1C449.1,488.2,449,487.3,450,487z M447.7,447.2c0.3,0.1,0.5,0.2,0.7,0.3
	c0.1,0,0.1,0.1,0.2,0.1c0.3,0.4,0.3,1,0,1.6C448.3,448.6,448,447.9,447.7,447.2L447.7,447.2c-0.9-0.6-1.3-1.4-1.5-2.3
	C447.6,445.1,448.1,445.9,447.7,447.2z M443.5,441.4c1.3-0.2,1.4,0.7,1.5,1.7C444.5,442.5,444,442,443.5,441.4z M443,505L443,505
	c0.1-1.1,0-2.3,1-3c0.1-1.1,0.1-2.2,1-3c0.3-0.6,0.6-1.3,0.9-1.9c-0.1,0.7-0.1,1.5-0.9,2c-0.2,1,0.2,2.3-1,3
	C443.9,503.1,444.3,504.3,443,505c-0.6,5.8-1.7,11.6-4,17C439.7,516.2,440.3,510.4,443,505z M436.5,535.9c0.1-0.3,0.2-0.7,0.3-1
	c0.3-1.3,0.6-2.6,0.9-3.9l0,0c-0.3,1.3-0.6,2.6-0.9,3.9C437.8,535.6,437.4,535.8,436.5,535.9z M442.1,525.7c-0.6,0.9-1.3,1.8-2,2.7
	C440.7,527.5,441.4,526.6,442.1,525.7c0.9-1.3,1.7-2.5,2.4-3.9C443.7,523.2,442.9,524.5,442.1,525.7z M461.2,479.6
	c-1.3-5.1-2.6-10.2-2.1-16.1c1.6,1.9,1.7,3.7,2,5.5C460.5,472.5,463.2,476,461.2,479.6z M519.2,544.9c0.3,0.7,0.7,1.4,1,2
	C518.7,546.8,517.4,546.6,519.2,544.9z M505.1,514.9c1.4,1.8,2.3,3.9,2.9,6.1C505.3,519.8,503.9,518,505.1,514.9z M503.4,546.2
	c0,0.1-0.8,0.2-0.8,0.2c-0.3-0.7-0.6-1.4-0.9-2.2c-0.4-0.3-0.8-0.6-0.2-1c0,0,0.2,0.2,0.4,0.5c0.1,0.1,0.1,0.1,0.2,0.2
	C502.9,544.4,503.7,545.1,503.4,546.2z M500.2,503.9c1,1.2,1.6,2.5,1.8,4.1C499.9,507.3,498.2,506.5,500.2,503.9z M501.1,541.1
	c-4.1-3.9-5.7-9-6.2-14.6C497,531.4,499,536.3,501.1,541.1z M494.2,489.9c1.7,2.8,2.9,5.9,3.8,9.1
	C494.6,496.9,493.3,493.8,494.2,489.9z M493.5,523.5c0.1,0.3,0.2,0.5,0.3,0.8c-0.1,0.1-0.2,0.2-0.4,0.3c-0.1-0.3-0.2-0.5-0.3-0.8
	C493.2,523.7,493.4,523.6,493.5,523.5z M492.6,521.5c-1.2-0.8-1.8-1.7-1.1-3.1C492.5,519.2,493.2,520,492.6,521.5z M491.1,481.7
	c0.7,0.6,0.9,1.4,0.9,2.3C491.1,483.5,491.1,482.6,491.1,481.7z M490.9,481c-2.4-1.1-3.3-2.7-1.7-5.1
	C489.8,477.6,490.4,479.3,490.9,481z M488.3,471.8c0.2,0.7,0.4,1.4,0.5,2.2C487.2,473.7,486.5,473.1,488.3,471.8z M484.9,502.8
	c0,0,0.1,0.1,0.1,0.2s0,0.1,0,0.1c3.9,3.5,3.8,8.7,5.6,13c-2.5-4-4.8-8.3-5.6-13c0,0-0.1,0-0.1-0.1
	C484.9,503,484.9,502.9,484.9,502.8c-0.2-0.3-0.4-0.6-0.6-0.9C485.3,501.8,484.9,502.4,484.9,502.8z M483.6,498.7
	c0,0.2,0.1,0.3,0.1,0.5c-0.1,0-0.2,0.1-0.3,0.1c0-0.1-0.1-0.3-0.1-0.4C483.3,498.8,483.5,498.8,483.6,498.7z M482.4,493.7
	c0.3,0.7,0.4,1.5,0.5,2.2c-0.3,0.1-0.5,0.1-0.8,0.2c-0.3-0.7-0.7-1.4-0.7-2.2C481.5,493.5,482.2,493.3,482.4,493.7z M482.1,505.4
	c-1.1,6.1-2.3,12.2-3.4,18.3C478.4,517.3,479.5,511.2,482.1,505.4z M504,575c-1-0.4-1-1.2-1-2c-0.3-0.3-0.7-0.6-1-1
	c-4,0.2-7.9-1.6-12-1c-1,0-2,0-2.9,0c-3.9,2.1-7.7,4.2-10.1,8.1c-1.1,1.3,2.7,3.5-0.7,4.4c-0.3-0.9-0.7-1.8-1-2.7
	c-1.7-4.7-2.3-9.7-2.8-14.6c-0.2-1.6-1.5-4.1,1.5-5c0.1-0.7,0.3-1.5,0.4-2.2c0.5,2.8,1.8,5.5-0.3,8c0.1,1,0.1,1.9,0.2,2.9
	c4.7-1,8.2-4.9,13.2-5.1c0.6-0.7,1.2-1.3,1.8-2l0,0c0.3-0.3,0.6-0.6,0.9-1l0.1-0.1l0,0c4.7-3.5,9.6-1.7,13.2,5l0,0
	c0.3,0.2,0.5,0.5,0.8,0.7c-0.3-0.2-0.5-0.4-0.8-0.7c-0.1,1-0.1,2-0.1,3s-0.1,2-0.1,3C503.9,573.4,504.2,574.1,504,575
	c2.8,0.5,4.4,2.2,5,5C505.8,579.8,504.5,577.8,504,575z M509.3,523.8c0.3,0.7,0.6,1.4,1,2.1C508.7,525.8,507.3,525.6,509.3,523.8z
	 M510.8,558.2c-0.2-0.2-0.6-0.5-0.6-0.5c0.6-0.7,0.6,0,0.8,0.3L510.8,558.2z M511.2,527.9c1.7,3.7,3.5,7.3,5.2,11
	C512.4,536.3,510.8,532.6,511.2,527.9z M518,572c0-0.7,0-1.3,0-2c-2.4-1.7-3.1-4.4-4.2-6.8c-0.1-0.1-0.1-0.1-0.2-0.2
	c-0.6-0.5-0.8-1.2-0.6-2l0.1-0.1l0,0c0.2,0.3,0.4,0.6,0.7,0.9c0.2,0.3,0.5,0.6,0.7,0.9l0,0c1.9,0.9,2,3.2,3.5,4.4
	c0,1,0.1,1.9,0.1,2.9c2.2,1,2.3,3.2,3,5.4C518.8,575,519.1,572.9,518,572z M527.1,562.7c0.6,0.3,1,0.6,0.9,1.3
	C527.7,563.6,527.4,563.1,527.1,562.7z"/>
<path style="fill:none;stroke:#000000;stroke-width:2;stroke-miterlimit:10;" d="M542,198L542,198L542,198L542,198z"/>
<path style="fill:none;stroke:#000000;stroke-width:2;stroke-miterlimit:10;" d="M238.1,328.1L238.1,328.1L238.1,328.1L238.1,328.1z
	"/>
<path style="fill:none;stroke:#000000;stroke-width:2;stroke-miterlimit:10;" d="M238.1,328.1c0,0.3,0,0.6,0,1
	C238.1,328.7,238.1,328.4,238.1,328.1L238.1,328.1z"/>
<path style="fill:none;stroke:#000000;stroke-width:2;stroke-miterlimit:10;" d="M444,502L444,502L444,502L444,502z"/>
<path style="fill:none;stroke:#000000;stroke-width:2;stroke-miterlimit:10;" d="M445,499L445,499L445,499L445,499z"/>
<path style="fill:none;stroke:#000000;stroke-width:2;stroke-miterlimit:10;" d="M449,489L449,489L449,489L449,489z"/>
<path style="fill:none;stroke:#000000;stroke-width:2;stroke-miterlimit:10;" d="M450,487L450,487L450,487L450,487z"/>
<path style="fill:none;stroke:#000000;stroke-width:2;stroke-miterlimit:10;" d="M451,485L451,485L451,485L451,485z"/>
<path style="fill:none;stroke:#000000;stroke-width:2;stroke-miterlimit:10;" d="M452,482L452,482L452,482L452,482z"/>
<path style="fill:none;stroke:#000000;stroke-width:2;stroke-miterlimit:10;" d="M453,477.9v0.1C453,478,453,478,453,477.9
	C453,478,453,478,453,477.9z"/>
<path style="fill:none;stroke:#000000;stroke-width:2;stroke-miterlimit:10;" d="M454,474L454,474L454,474L454,474z"/>
<path style="fill:none;stroke:#000000;stroke-width:2;stroke-miterlimit:10;" d="M503,573L503,573L503,573L503,573z"/>
<path style="fill:none;stroke:#000000;stroke-width:2;stroke-miterlimit:10;" d="M504,575L504,575L504,575L504,575z"/>
<path style="fill:none;stroke:#000000;stroke-width:2;stroke-miterlimit:10;" d="M516.2,589.8L516.2,589.8L516.2,589.8
	C516.1,589.8,516.2,589.8,516.2,589.8z"/>
<path style="fill:none;stroke:#000000;stroke-width:2;stroke-miterlimit:10;" d="M417,419L417,419L417,419L417,419z"/>
<path style="fill:none;stroke:#000000;stroke-width:2;stroke-miterlimit:10;" d="M423,423L423,423L423,423z"/>
<path style="fill:none;stroke:#000000;stroke-width:2;stroke-miterlimit:10;" d="M425,425L425,425L425,425L425,425L425,425z"/>
<path style="fill:none;stroke:#000000;stroke-width:2;stroke-miterlimit:10;" d="M438.7,436.3L438.7,436.3
	C438.8,436.3,438.8,436.3,438.7,436.3C438.8,436.3,438.7,436.3,438.7,436.3z"/>
<path style="fill:none;stroke:#000000;stroke-width:2;stroke-miterlimit:10;" d="M441.7,439.3L441.7,439.3
	C441.7,439.3,441.8,439.3,441.7,439.3L441.7,439.3z"/>
<path style="fill:none;stroke:#000000;stroke-width:2;stroke-miterlimit:10;" d="M442.7,440.3L442.7,440.3L442.7,440.3L442.7,440.3z
	"/>
<path style="fill:none;stroke:#000000;stroke-width:2;stroke-miterlimit:10;" d="M447.7,447.2L447.7,447.2
	C447.7,447.2,447.7,447.3,447.7,447.2L447.7,447.2z"/>
<path style="fill:none;stroke:#000000;stroke-width:2;stroke-miterlimit:10;" d="M490,415L490,415L490,415L490,415z"/>
<path style="fill:none;stroke:#000000;stroke-width:2;stroke-miterlimit:10;" d="M426.6,425.5c-0.1-0.1-0.3-0.2-0.4-0.3
	C426.3,425.3,426.5,425.4,426.6,425.5z"/>
<path style="fill:none;stroke:#000000;stroke-width:2;stroke-miterlimit:10;" d="M432.9,431.2L432.9,431.2L432.9,431.2
	C432.8,431.1,432.8,431.2,432.9,431.2z"/>
<path style="fill:none;stroke:#000000;stroke-width:2;stroke-miterlimit:10;" d="M438.2,419.8c-0.8-0.4-1.4-0.9-2-1.4
	C436.8,419,437.4,419.4,438.2,419.8z"/>
<polygon style="fill:none;stroke:#000000;stroke-width:2;stroke-miterlimit:10;" points="437.7,435.3 437.7,435.4 437.6,435.4 "/>
<path style="fill:none;stroke:#000000;stroke-width:2;stroke-miterlimit:10;" d="M437.7,435.4L437.7,435.4L437.7,435.4
	C437.7,435.3,437.7,435.3,437.7,435.4z"/>
<path style="fill:none;stroke:#000000;stroke-width:2;stroke-miterlimit:10;" d="M438.2,435.4c-0.1,0-0.3-0.1-0.5,0
	C437.9,435.3,438.1,435.4,438.2,435.4z"/>
<path style="fill:none;stroke:#000000;stroke-width:2;stroke-miterlimit:10;" d="M439.1,420.2L439.1,420.2c-0.3-0.1-0.6-0.3-0.9-0.4
	C438.5,420,438.8,420.1,439.1,420.2z"/>
<path style="fill:none;stroke:#000000;stroke-width:2;stroke-miterlimit:10;" d="M460.9,407c0,0.1,0,0.2,0,0.3V407L460.9,407z"/>
<path style="fill:none;stroke:#000000;stroke-width:2;stroke-miterlimit:10;" d="M493,402.9c0-0.3,0-0.7-0.1-1l0,0l0,0
	C492.9,402.3,492.9,402.6,493,402.9z"/>
<path style="fill:none;stroke:#000000;stroke-width:2;stroke-miterlimit:10;" d="M492.8,406.7c0.2-1.2,0.2-2.4,0.1-3.6
	C493,404.3,493,405.5,492.8,406.7z"/>
<path style="fill:none;stroke:#000000;stroke-width:2;stroke-miterlimit:10;" d="M217.7,412.1c-12.3,5.1-24.9,6.3-37.9,3.8
	c8.7-7.9,18.6-14.2,28.2-20.9c11.4-9,22.9-17.8,33-28.3c0.8-0.8,1.6-3.7,3.6-0.9C249.9,386.9,235.1,404.8,217.7,412.1z"/>
<path style="fill:none;stroke:#000000;stroke-width:2;stroke-miterlimit:10;" d="M593.3,401.8c-7.4,1.3-14.4,0.1-20.8-4.7
	c-7-5.3-13.4-3.8-17.8,4c-3.1,5.5-7.3,9-13.8,9c-2.3-0.5-0.8-1.5-0.3-2.4c3.5-6.5,7.9-12.6,9.5-20c3.3-3.2,7.2-5.8,9.3-10.2
	c0.7-1.5,1.8-1.5,3.3-0.6c16.1,10.4,31.9,8.8,47.5-1C615.2,385.3,608.2,399.3,593.3,401.8z"/>
<path style="fill:none;stroke:#000000;stroke-width:2;stroke-miterlimit:10;" d="M442.7,440.3L442.7,440.3L442.7,440.3L442.7,440.3z
	"/>
<path style="fill:none;stroke:#000000;stroke-width:2;stroke-miterlimit:10;" d="M447.7,447.3C447.7,447.3,447.7,447.2,447.7,447.3
	L447.7,447.3L447.7,447.3z"/>
<path style="fill:none;stroke:#000000;stroke-width:2;stroke-miterlimit:10;" d="M423,423L423,423L423,423z"/>
<path style="fill:none;stroke:#000000;stroke-width:2;stroke-miterlimit:10;" d="M429,428.3v0.4c-11.1,10.5-26.2,12.1-37.3,4
	c-4-2.9-6.9-6.6-7.7-11.6l0,0c9.8,0.6,19.2-1.2,28.1-5.1c1,0.4,2,0.7,2.9,1.1c0.3,0.3,0.7,0.7,1,1s0.7,0.7,1,1l0,0l0,0
	c0.4,0.9,1.1,1.1,2,1c0.3,0.3,0.7,0.6,1,1c0.3,0.3,0.7,0.7,1,1c0.4,0.8,1.1,1.1,2,1c0,1.3,0.8,1.9,2,2c0.4,0.8,1.1,1.1,2,1
	c0.3,0.3,0.7,0.7,1,1C428.3,427.5,428.7,427.9,429,428.3z"/>
<path style="fill:none;stroke:#000000;stroke-width:2;stroke-miterlimit:10;" d="M114.9,394.3c-18.3-2.6-31.9-15.9-33-32.3
	c2.9-0.4,5.4,0.5,7.9,2.1c5.6,3.6,12,5.6,18.3,7.8c1.7,0.6,3.6,0.7,4.9,2.1c1.2,3.9,0.3,8.1,1.9,12
	C114.9,388.8,114.9,391.5,114.9,394.3z"/>
<path style="fill:none;stroke:#000000;stroke-width:2;stroke-miterlimit:10;" d="M542,198L542,198L542,198L542,198z"/>
<path style="fill:none;stroke:#000000;stroke-width:2;stroke-miterlimit:10;" d="M546.9,200.2c-1.3-0.5-2.6-1-3.9-1.5
	c-0.3-0.2-0.6-0.5-1-0.7c-0.3-2.4-2-2-3.6-1.9c-8.8-1.7-17.5-2.1-26.3,0.8c-4.6,1.5-8.7,3.8-12.3,7c-1.9,1.7-3.8,2.3-6.3,2.2
	c-7.1-0.4-14,1.1-20.1,4.7c-3.6,2.1-5.4,2.1-6.4-2.1c-0.2-1-0.7-1.8-1.1-2.7c7.4-0.1,14.4-2.5,21.6-3.6c6-1,11.5-2.8,16.9-5.5
	c6.7-3.3,13.3-5.3,21.1-5.2c6.7,0,12.7,1,18.5,3.7C545.9,196.1,549,196.9,546.9,200.2z"/>
<path style="fill:none;stroke:#000000;stroke-width:2;stroke-miterlimit:10;" d="M460.7,601.6c-4.9,1.1-7.6-3-10.6-5.3
	c-9.8-7.4-20.6-8-32.1-6.8c-5.1,0.5-10.2,1.1-15.2,1.5c-1.5,0.1-3.5,0.5-3.9-1.9c12.6-2.3,25.3-3.5,38.1-2.9c4.3,0.2,8,2,11.2,4.8
	C452.5,594.4,456.6,598,460.7,601.6z"/>
<path style="fill:none;stroke:#000000;stroke-width:2;stroke-miterlimit:10;" d="M516.2,589.8L516.2,589.8L516.2,589.8
	c-0.3,0-0.6,0-0.9,0c-0.1,0-0.2,0-0.3,0h-0.1c-0.2,0-0.4,0-0.6-0.1c0,0,0,0-0.1,0s-0.3,0-0.4-0.1c-0.2,0-0.4-0.1-0.6-0.1
	c-0.2,0-0.4-0.1-0.6-0.2c-0.4-0.1-0.8-0.3-1.2-0.4c-0.1,0-0.3-0.1-0.4-0.2c-0.2-0.1-0.4-0.2-0.6-0.3c-0.1,0-0.3-0.1-0.4-0.2
	c-0.5-0.2-1-0.5-1.5-0.8c-0.4-0.2-0.7-0.4-1.1-0.6l0,0c-0.5-0.3-1-0.6-1.5-0.9c-1.5-0.9-3.1-1.8-4.8-2.5c-8.7-3.4-13.7-1.6-17.6,6.8
	c-1.4,3-1.4,7.7-6.5,7.7c1.4-4.6,2.5-9.3,4.1-13.8c2.2-6.1,6.2-8,12.6-6.7c6.7,1.3,12.6,4.4,17.6,8.9
	C513,587.8,516,586.9,516.2,589.8z"/>
<path style="fill:none;stroke:#000000;stroke-width:2;stroke-miterlimit:10;" d="M353,396.3c-4.7-3.2-7.2-7.8-8.1-13.2
	c5.1-0.8,8.3,0.3,7.2,6.5C351.8,391.8,353.4,393.9,353,396.3z"/>
<path style="fill:none;stroke:#000000;stroke-width:2;stroke-miterlimit:10;" d="M133,234.2c0,1.4-0.2,2.9-2,2.7
	c-4.6-0.3-9.3-0.4-13.9-2.4c1.3-2.4,3.8-0.8,4.9-2.5c0.7,0.1,1.3,0.1,2,0.2c1.9,2.5,4.4,2.5,7,1.7C131.7,234,132.3,234.1,133,234.2z
	"/>
<path style="fill:none;stroke:#000000;stroke-width:2;stroke-miterlimit:10;" d="M199.6,578.1c-0.9-0.2-2.8,2-2.5-1.2
	c0.2-3-0.1-6-0.2-8.9c0.7-1,1.5-1.9,2.2-2.9C200.6,569.3,200.4,573.7,199.6,578.1z"/>
<path style="fill:none;stroke:#000000;stroke-width:2;stroke-miterlimit:10;" d="M72.9,362.8c-7.6,0.7-15.2,0.6-22.8,0
	C57.7,361.5,65.3,361.5,72.9,362.8z"/>
<path style="fill:none;stroke:#000000;stroke-width:2;stroke-miterlimit:10;" d="M258.1,351.9c-2.3,2.3-4.8,4.3-7.9,5.5
	c-0.7-2.2,2-3.3,1.8-5.4C254,352,256,352,258.1,351.9z"/>
<path style="fill:none;stroke:#000000;stroke-width:2;stroke-miterlimit:10;" d="M131,233.9c-2.7,0.8-5.1,0.8-7-1.7
	C126.4,232.6,128.9,232.6,131,233.9z"/>
<path style="fill:none;stroke:#000000;stroke-width:2;stroke-miterlimit:10;" d="M441.8,439.3c-0.5-0.3-1-0.5-1.5-0.8
	c-0.5-0.8-1-1.5-1.5-2.3l0,0c0.2,0,0.3,0,0.5,0c0.1,0,0.2,0,0.3,0c1,0.1,1.5,0.7,1.8,1.5c0,0.1,0,0.1,0.1,0.2s0.1,0.3,0.1,0.4
	c0,0,0,0.1,0.1,0.2C441.6,438.8,441.7,439,441.8,439.3C441.7,439.3,441.8,439.3,441.8,439.3z"/>
<path style="fill:none;stroke:#000000;stroke-width:2;stroke-miterlimit:10;" d="M432.9,431.2L432.9,431.2c-1.2-0.4-2.3-1-2.9-2.2
	c0.3,0,0.5,0,0.8,0c0.1,0,0.3,0,0.4,0s0.3,0,0.5,0.1c0.1,0,0.2,0,0.3,0.1c0.1,0,0.2,0.1,0.2,0.1s0.1,0,0.1,0.1l0.1,0.1l0.1,0.1
	c0,0,0.1,0.1,0.1,0.2s0.1,0.2,0.1,0.2v0.1c0,0,0,0.1,0,0.2s0,0.1,0,0.2C432.9,430.7,432.9,430.9,432.9,431.2z"/>
<path style="fill:none;stroke:#000000;stroke-width:2;stroke-miterlimit:10;" d="M518.1,590.2c-0.2,0.5-0.2,1.3-1,1.3
	c-0.1,0-0.1,0-0.2,0s-0.1,0-0.2,0c-0.2-0.1-0.3-0.2-0.4-0.3c0-0.1-0.1-0.2-0.1-0.2v-0.1c0-0.1,0-0.1,0-0.2c0-0.1,0-0.1,0-0.2
	s0-0.1,0-0.2c0-0.1,0-0.3,0-0.4l0,0l0,0C516.8,590,517.5,590.1,518.1,590.2z"/>
<path style="fill:none;stroke:#000000;stroke-width:2;stroke-miterlimit:10;" d="M437.7,435.3L437.7,435.3
	C437.7,435.4,437.7,435.4,437.7,435.3c-0.6-0.4-1.1-0.9-1.6-1.4c0.5,0,0.9,0.1,1.2,0.3c0.1,0,0.1,0.1,0.2,0.2c0,0,0,0,0,0.1
	s0.1,0.1,0.1,0.2s0.1,0.2,0.1,0.2s0,0.1,0,0.2C437.7,435.1,437.7,435.2,437.7,435.3z"/>
<path style="fill:none;stroke:#000000;stroke-width:2;stroke-miterlimit:10;" d="M438.8,436.3C438.8,436.3,438.7,436.3,438.8,436.3
	c-0.4-0.3-0.7-0.6-1.1-0.9l0,0l0,0l0,0l0,0c0.2,0,0.3,0,0.5,0c0.1,0,0.2,0.1,0.2,0.1l0.1,0.1c0,0.1,0.1,0.1,0.1,0.2s0.1,0.2,0.1,0.2
	L438.8,436.3L438.8,436.3z"/>
<path style="fill:none;stroke:#000000;stroke-width:2;stroke-miterlimit:10;" d="M199.4,580.7c0,0.1-0.1,0.2-0.2,0.3
	c0-0.3,0.1-0.6,0.1-1C199.3,580.2,199.4,580.4,199.4,580.7z"/>
<path style="fill:none;stroke:#000000;stroke-width:2;stroke-miterlimit:10;" d="M601.1,322c-3.1-1.1-1.9-2.5-1.2-4.4
	c4.7-11.8,2.9-22.5-5.7-31.9c-1.9-2.1-2.2-3.3-0.7-5.8c7.6-13.6,5-28.9-6.4-39.5c-6.5-6-14.3-8.9-22.8-10.3c-1.3-0.2-3,0.4-2.8-2.3
	c0.8-12.1-5.1-20.9-14.6-27.7c-1.3-0.5-2.6-1-3.9-1.5c-0.7,0.3-0.9-0.2-1-0.7c-1.5,0-2.6-1-3.6-1.9c-8.8-1.7-17.5-2.1-26.3,0.8
	c-4.6,1.5-8.7,3.8-12.3,7c-1.9,1.7-3.8,2.3-6.3,2.2c-7.1-0.4-14,1.1-20.1,4.7c-3.6,2.1-5.4,2.1-6.4-2.1c-0.2-1-0.7-1.8-1.1-2.7
	c-15.1-21.9-43.3-21.9-60.1-10c-14.8,10.4-19.4,27-11.9,42.9c0.6,1.2,2.1,2.3,0.3,3.9c-1.7,1.5-2.9,0.4-4.4-0.4
	c-9.6-5.1-19.8-6.4-30.5-4.2c-16.6,3.4-30.1,17.2-31.3,32c-1.4,17.2,9.8,31.5,28.5,36c2.4,0.6,3.8,1.2,3.4,4.1c-0.4,3-1.8,3.2-4.4,3
	c-11-0.8-21,2.1-30.1,8.4c-17.2,11.7-19.7,35.7-5,50.3c6.8,6.7,15.1,10.1,24.4,11.2c5.1-0.8,8.3,0.3,7.2,6.5
	c-0.3,2.2,1.3,4.4,0.8,6.7c5.8,13.3,16.1,21.1,30.1,24.2c0.1,0,0.1,0,0.2,0.1c0,0,0.1,0,0.1,0.1c0.1,0.1,0.3,0.2,0.4,0.3l0.1,0.1
	c9.8,0.6,19.2-1.2,28.1-5.1c0.4-0.8,1.1-0.9,1.9-1c3.9-3.2,8.2-5.8,11.1-10c1.2-2.3,3-1.9,5.1-1.4c3,0.7,6,1.2,9,1.7
	c3.3,0.5,6.6,0.9,9.9,1.2c1.7,0.1,3.3,0.3,5,0.4s3.3,0.2,5,0.2c0.6,0,1.2,0,1.9,0l0,0c3.4-0.3,6.7-0.6,10.1-1c7-1.3,14.1-2.7,21.1-4
	c0.3-0.1,0.6-0.1,0.9,0l0,0l0,0l0,0c0.3-0.3,0.6-0.6,1-0.9c2.4-1.6,5.3-2.2,8-3c5-2.8,10-5.5,15-8.3c0.9-0.5,1.9-0.8,2.8-0.2
	c4.5,2.6,9.4,2.6,14.4,2.8c5.7,0.1,10.8-2.1,15.9-4.5c3.3-3.2,7.2-5.8,9.3-10.2c0.7-1.5,1.8-1.5,3.3-0.6c16.1,10.4,31.9,8.8,47.5-1
	c0.2-0.3,0.3-0.6,0.6-0.8C630.9,358.7,624.6,330.2,601.1,322z M419,387c-0.3,0-0.7,0-1,0l0,0C418.4,387,418.7,387,419,387
	c0-1.3,0.7-2,2-2C421,386.3,420.3,387,419,387z M439.1,373c-0.1-1.5-0.1-2.9,1.8-3.1C441,371.4,440.3,372.4,439.1,373z M545.9,351.1
	c-1.2-0.3-2.5-0.5-1-2.1C545.8,349.4,546,350.2,545.9,351.1z"/>
<path style="fill:none;stroke:#000000;stroke-width:2;stroke-miterlimit:10;" d="M534.1,392.2c-2.3,5.2-4.3,10.6-8.2,14.9
	c-3.7,0.1-6.4,2.4-9.5,4c-6.2,3.3-12,7.6-19.5,7.8c-0.9-4,1.5-7.3,2.1-11c0.6-3.4,1.9-6.7,2.8-10c5-2.8,10-5.5,15-8.3
	c0.9-0.5,1.9-0.8,2.8-0.2C524.2,392,529.2,392.1,534.1,392.2z"/>
<path style="fill:none;stroke:#000000;stroke-width:2;stroke-miterlimit:10;" d="M458.7,423.3c-0.2,0-0.4,0-0.7,0
	c-0.8,0-1.5,0-2.2-0.1c-0.4-0.1-0.8-0.1-1.2-0.2c-0.8-0.1-1.5-0.3-2.3-0.4c-0.7-0.1-1.4-0.3-2.1-0.5c-0.4-0.1-0.8-0.2-1.3-0.3
	c-0.4-0.1-0.8-0.2-1.1-0.3c-0.4-0.1-0.8-0.2-1.1-0.3c-0.3-0.1-0.5-0.1-0.8-0.2s-0.5-0.1-0.8-0.2c-0.9-0.2-1.9-0.4-2.8-0.5
	c-0.3,0-0.5,0-0.8-0.1l0,0h-0.1l0,0c-0.4,0-0.8-0.1-1.3-0.1H440l0,0l0,0l0,0l0,0l0,0c-0.2,0-0.4,0-0.5,0h-0.3
	c-0.3-0.1-0.6-0.3-0.9-0.4c-0.8-0.4-1.4-0.9-2-1.4c-0.2-0.2-0.4-0.3-0.6-0.5c-2.4-2.5-3.8-5.9-6.2-8.4c-1.5-1.5-2.5-3.4-4.4-4.6
	c1.2-2.3,3-1.9,5.1-1.4c3,0.7,6,1.2,9,1.7c3.3,0.5,6.6,0.9,9.9,1.2c1.7,0.1,3.3,0.3,5,0.4s3.3,0.2,5,0.2
	C459.6,412.4,461.7,417.9,458.7,423.3z"/>
<path style="fill:none;stroke:#000000;stroke-width:2;stroke-miterlimit:10;" d="M490,415L490,415L490,415L490,415z"/>
<path style="fill:none;stroke:#000000;stroke-width:2;stroke-miterlimit:10;" d="M490.9,412C491,412,491,412,490.9,412
	C491,412,491,412,490.9,412L490.9,412z"/>
<path style="fill:none;stroke:#000000;stroke-width:2;stroke-miterlimit:10;" d="M490.9,412c-0.1,0.1-0.3,0.2-0.3,0.3
	c-0.1,0.1-0.2,0.2-0.3,0.3c-0.1,0.1-0.1,0.2-0.2,0.4c0,0.1-0.1,0.3-0.1,0.4s0,0.3,0,0.4c0,0.2,0,0.4,0,0.6s0,0.4,0,0.6
	c-0.1,0.1-0.1,0.1-0.2,0.1s-0.1,0.1-0.2,0.2s-0.2,0.2-0.2,0.3c0,0,0,0.1-0.1,0.1c0,0,0,0.1-0.1,0.1c0,0.1-0.1,0.2-0.1,0.3
	c0,0.1-0.1,0.2-0.1,0.3c-0.1,0.5-0.1,1.1-0.2,1.7c-0.9,1.5-1.9,3.1-2.8,4.7c-4.6,0.5-9.3,1-13.9,1.6c-2.3-6-0.5-12.2-1.2-18.2
	c7-1.3,14.1-2.7,21.1-4C492.2,405.3,490.5,408.5,490.9,412z"/>
<path style="fill:none;stroke:#000000;stroke-width:2;stroke-miterlimit:10;" d="M461.9,418.6c-0.4,2.4-0.5,4.9-2.8,6.5
	c-0.1-0.6-0.3-1.1-0.4-1.7c3-5.4,0.9-10.9,0.3-16.3c0.6,0,1.2,0,1.9,0l0,0c0,0.1,0,0.2,0,0.3C460.9,411.1,462.6,414.7,461.9,418.6z"
	/>
<path style="fill:none;stroke:#000000;stroke-width:2;stroke-miterlimit:10;" d="M492.8,406.7c-0.2,1.8-0.8,3.6-1.9,5.3l0,0l0,0
	c-0.5-3.4,1.2-6.6,1.1-10c0.3-0.1,0.6-0.1,0.9,0l0,0l0,0c0,0.4,0,0.7,0.1,1v0.1C493,404.3,493,405.5,492.8,406.7z"/>
<path style="fill:none;stroke:#000000;stroke-width:2;stroke-miterlimit:10;" d="M542,198L542,198L542,198c-1.6,0-2.6-1-3.6-1.9
	C539.9,196.1,541.7,195.6,542,198z"/>
<path style="fill:none;stroke:#000000;stroke-width:2;stroke-miterlimit:10;" d="M439.1,373c-0.1-1.5-0.1-2.9,1.8-3.1
	C441,371.4,440.3,372.4,439.1,373z"/>
<path style="fill:none;stroke:#000000;stroke-width:2;stroke-miterlimit:10;" d="M545.9,351.1c-1.2-0.3-2.5-0.5-1-2.1
	C545.8,349.4,546,350.2,545.9,351.1z"/>
<path style="fill:none;stroke:#000000;stroke-width:2;stroke-miterlimit:10;" d="M415,417c-1-0.4-2-0.7-2.9-1.1
	c0.4-0.8,1.1-0.9,1.9-1C414.3,415.6,414.6,416.3,415,417L415,417L415,417z"/>
<path style="fill:none;stroke:#000000;stroke-width:2;stroke-miterlimit:10;" d="M421,385c-0.1,1.3-0.8,1.9-2,2
	C419,385.7,419.7,385,421,385z"/>
<path style="fill:none;stroke:#000000;stroke-width:2;stroke-miterlimit:10;" d="M542.9,198.7c-0.7,0.3-0.9-0.2-1-0.7l0,0l0,0
	C542.3,198.3,542.6,198.5,542.9,198.7z"/>
<path style="fill:none;stroke:#000000;stroke-width:2;stroke-miterlimit:10;" d="M293.3,286.6c-5.5-5.5-12-9.4-19.4-11.8
	c-3-1-3.7-2.1-2.5-5.3c2-5,2.5-10.3,2-15.7c-1.4-14.8-9.3-25.8-21-34.1c-21.6-15.3-45.7-17.7-70.9-12c-17.4,3.9-32.1,12.5-41.7,28.3
	c-2.3-0.6-4.7-1.2-7-1.8c0,1.4-0.2,2.9-2,2.7c-4.6-0.3-9.3-0.4-13.9-2.4c1.3-2.4,3.8-0.8,4.9-2.5c-6-1.2-12-1.1-18,0
	c-12.9,1.3-24.5,5.9-34.1,14.7c-9.1,8.3-13.8,18.6-11.8,31.2c-0.7,1.3-2.1,0.7-3.1,1.1c-19.1,0.8-36.9,5.6-52,17.7
	C-14,310-14.8,329.2,1,343.7c13.8,12.6,30.8,17.4,49,19.1c7.6-1.3,15.2-1.3,22.8,0c3-0.3,6-0.5,9-0.8c2.9-0.4,5.4,0.5,7.9,2.1
	c5.6,3.6,12,5.6,18.3,7.8c1.7,0.6,3.6,0.7,4.9,2.1c1.7,0,3.5-0.5,5,0.9c2.6,0.4,5.3,0.8,7.9,1.2c5,0.4,9.9,0.7,14.9,1.1
	c15.7,0.3,31.1-1.1,46.1-6.2c12.1-4.2,22.9-10.3,31.7-19.9c4.6-5.1,5-5,11.5-1.1c3.8,0,7.4,0.9,11,2c1.6,0.1,3.3,0.1,4.9,0.2
	c2,0,4,0,6-0.1c2,0,4.1,0,6.1-0.1c1.1-0.3,2.2-0.7,3.3-0.9c11-1.8,21-5.8,29.7-13C308,324.2,309,302.1,293.3,286.6z M106.1,350.7
	c-0.4,0.1-0.7,0.2-1.1,0.3l0,0C105.4,350.9,105.7,350.8,106.1,350.7c0.7-0.2,1.4-0.5,2.1-0.8C107.5,350.2,106.8,350.5,106.1,350.7z
	 M232.9,332.1c0.1-0.3,0.2-0.6,0.2-1l0,0C233.1,331.5,233,331.8,232.9,332.1z M238.1,328.1c0,0.3,0,0.6,0,1
	C238.1,328.7,238.1,328.4,238.1,328.1L238.1,328.1c-0.1-0.1-0.2-0.2-0.2-0.2c0.2-0.1,0.4-0.3,0.5-0.4
	C238.3,327.7,238.2,327.9,238.1,328.1L238.1,328.1L238.1,328.1z"/>
<path style="fill:none;stroke:#000000;stroke-width:2;stroke-miterlimit:10;" d="M238.1,328.1c0,0.3,0,0.6,0,1
	C238.1,328.7,238.1,328.4,238.1,328.1L238.1,328.1z"/>
<path style="fill:none;stroke:#000000;stroke-width:2;stroke-miterlimit:10;" d="M230.1,349.9c-2.8,4.6-9.1,4.5-12.1,8.8
	c-0.3,0.4-0.7,0.8-1,1.2c-0.9,0-1.6,0.2-2,1l0,0l0,0c-0.3,0.3-0.7,0.7-1,1l0,0c-0.9,0-1.6,0.2-2,1c-0.3,0.3-0.7,0.7-1,1l0,0
	c-0.9,0-1.6,0.2-2,1c-0.3,0.3-0.6,0.7-1,1c-0.9,0-1.6,0.2-2,1l0,0l0,0c-0.3,0.3-0.6,0.6-1,1c-0.9,0-1.6,0.3-2,1l0,0l0,0
	c-0.2,0.2-0.3,0.3-0.5,0.5l0,0c-0.2,0.2-0.3,0.3-0.5,0.5l0,0c-0.8,0-1.6,0.3-2,1c-0.4,0.3-0.8,0.7-1.3,1c-1.3,0-2.1,0.7-2.7,1.8
	c-0.3,0.4-0.7,0.8-1,1.2c-0.9,0-1.6,0.2-2,1l0,0l0,0c-0.3,0.3-0.7,0.7-1,1l0,0c-0.9,0-1.6,0.2-2,1c-0.3,0.3-0.6,0.7-1,1
	c-0.9,0-1.6,0.2-2,1c-0.3,0.3-0.6,0.7-1,1c-0.9,0-1.6,0.3-2,1l0,0l0,0c-0.3,0.3-0.6,0.6-1,1c-0.9,0-1.6,0.3-2,1
	c-0.3,0.3-0.6,0.6-1,1c-0.8,0-1.6,0.3-2,1c-0.4,0.3-0.7,0.7-1.1,1c-1,0.7-1.9,1.3-2.8,2c-0.4,0.3-0.7,0.7-1.1,1l0,0l0,0
	c-0.9,0-1.6,0.2-2,1c-0.3,0.3-0.7,0.7-1,1l0,0c-0.9,0-1.6,0.2-2,1c-0.3,0.3-0.7,0.7-1,1l0,0l0,0c-5.3,1.9-9.2,6.4-14.3,8.6
	c-1.7-3.2-3.3-6.3-4.8-9.4c-2.1-5.4-5.5-10.3-7-15.9c15.7,0.3,31.1-1.1,46.1-6.2c12.1-4.2,22.9-10.3,31.7-19.9
	C223.2,345.9,223.6,346,230.1,349.9z"/>
<path style="fill:none;stroke:#000000;stroke-width:2;stroke-miterlimit:10;" d="M167,394L167,394L167,394
	C166.9,394,167,394,167,394z"/>
<path style="fill:none;stroke:#000000;stroke-width:2;stroke-miterlimit:10;" d="M184,382L184,382L184,382L184,382z"/>
<path style="fill:none;stroke:#000000;stroke-width:2;stroke-miterlimit:10;" d="M193,376L193,376L193,376L193,376z"/>
<path style="fill:none;stroke:#000000;stroke-width:2;stroke-miterlimit:10;" d="M203,369L203,369L203,369L203,369z"/>
<path style="fill:none;stroke:#000000;stroke-width:2;stroke-miterlimit:10;" d="M206,367L206,367L206,367L206,367z"/>
<path style="fill:none;stroke:#000000;stroke-width:2;stroke-miterlimit:10;" d="M215,361L215,361L215,361L215,361z"/>
<path style="fill:none;stroke:#000000;stroke-width:2;stroke-miterlimit:10;" d="M252,352c-2,0-4,0.1-6,0.1
	c-1.6-0.1-3.3-0.1-4.9-0.2c-3.6-1-7.2-2-11-2c-2.8,4.6-9.1,4.5-12.1,8.8c-0.3,0.4-0.7,0.8-1,1.2l0,0c0,0.1-0.1,0.2-0.2,0.3
	c-0.1,0.1-0.2,0.3-0.3,0.3c0,0-0.1,0.1-0.2,0.1c-0.2,0.1-0.4,0.2-0.5,0.2s-0.1,0-0.2,0c-0.1,0-0.2,0-0.3,0s-0.2,0-0.3,0
	c-0.3,0.3-0.7,0.7-1,1l0,0c-0.4,0.8-1.2,1-2,1l0,0c-0.3,0.3-0.7,0.7-1,1c-0.1,0.2-0.2,0.3-0.3,0.5l-0.1,0.1c0,0-0.1,0-0.1,0.1
	c-0.1,0-0.1,0.1-0.2,0.1c-0.1,0.1-0.2,0.1-0.3,0.1s-0.2,0.1-0.3,0.1s-0.2,0-0.3,0c-0.2,0-0.3,0-0.5,0l0,0c-0.3,0.3-0.6,0.7-1,1
	c-0.4,0.9-1.2,1-2,1c-0.3,0.3-0.6,0.6-1,1c-0.4,0.9-1.2,1-2,1c-0.2,0.2-0.3,0.3-0.5,0.5l0,0c-0.2,0.2-0.3,0.3-0.5,0.5
	c-0.4,0.9-1.2,1-2,1l0,0c-0.4,0.3-0.8,0.7-1.3,1c-1.3,0-2.1,0.7-2.7,1.8c-0.3,0.4-0.7,0.8-1,1.2l0,0c0,0.1-0.1,0.2-0.2,0.3
	c-0.1,0.1-0.2,0.2-0.3,0.3c-0.1,0.1-0.1,0.1-0.2,0.2c-0.1,0.1-0.2,0.1-0.4,0.2c-0.1,0-0.1,0-0.2,0c-0.3,0.1-0.5,0.1-0.8,0.1
	c-0.3,0.3-0.7,0.7-1,1l0,0c-0.1,0.2-0.2,0.3-0.3,0.5c-0.1,0.1-0.1,0.1-0.2,0.2c0,0-0.1,0.1-0.2,0.1c-0.1,0.1-0.2,0.1-0.3,0.1
	c-0.3,0.1-0.7,0.1-1,0.1l0,0c-0.3,0.3-0.6,0.7-1,1c-0.4,0.9-1.2,1-2,1l0,0c-0.3,0.3-0.6,0.7-1,1c-0.1,0.2-0.2,0.4-0.4,0.5
	c-0.1,0.1-0.3,0.2-0.5,0.3c-0.4,0.2-0.8,0.2-1.2,0.2c-0.3,0.3-0.6,0.6-1,1c-0.4,0.9-1.2,1-2,1l0,0c-0.3,0.3-0.6,0.6-1,1
	c0,0.1-0.1,0.2-0.2,0.3s-0.1,0.2-0.2,0.2c0,0.1-0.1,0.1-0.2,0.1c0,0-0.1,0.1-0.2,0.1c-0.1,0-0.1,0.1-0.2,0.1c-0.1,0-0.3,0.1-0.4,0.1
	c-0.1,0-0.1,0-0.2,0c-0.1,0-0.1,0-0.2,0c-0.1,0-0.2,0-0.2,0l0,0c-0.4,0.3-0.7,0.7-1.1,1c-1,0.7-1.9,1.3-2.8,2
	c-0.4,0.3-0.7,0.7-1.1,1l0,0l0,0c-0.4,0.8-1.2,1-2,1l0,0c-0.3,0.3-0.7,0.7-1,1c-0.1,0.2-0.2,0.3-0.3,0.5l-0.1,0.1c0,0-0.1,0-0.1,0.1
	c-0.1,0-0.1,0.1-0.2,0.1c-0.1,0.1-0.2,0.1-0.3,0.1s-0.2,0.1-0.3,0.1s-0.2,0-0.3,0c-0.2,0-0.3,0-0.5,0l0,0c-0.3,0.3-0.7,0.7-1,1l0,0
	l0,0c-5.3,1.9-9.2,6.4-14.3,8.6c-1.7-3.2-3.3-6.3-4.8-9.4c-2.1-5.4-5.5-10.3-7-15.9c-5-0.4-9.9-0.7-14.9-1.1
	c-2.6-0.4-5.3-0.8-7.9-1.2c-1.5-1.4-3.3-0.9-5-0.9c1.2,3.9,0.3,8.1,1.9,12c0,2.8,0,5.6,0.1,8.3c1.7,4,1.2,8.2,1.6,12.3
	c0.6,6.6,2.2,13.2,1.1,19.9c-1.6,10.3-3,20.7-4.7,31c-5,31-10.3,61.9-20.3,91.7c-3.8,11.3-6.6,23.9-19.9,29.4
	c3.1,3.4,7.3,4,11.2,5.2c29.7,8,59.9,11.5,90.6,10c5.8-0.3,11.6-1.3,16.9-3.8c3.9-1.8,7.2-4.2,7.6-9c0-0.3,0.1-0.6,0.1-1
	c0.1-0.6,0.3-1.2,0.4-1.9c-0.9-0.2-2.8,2-2.5-1.2c0.2-3-0.1-6-0.2-8.9c0.7-1,1.5-1.9,2.2-2.9c-1.6-19.1-6.1-37.6-10.6-56.1
	c-6.5-26.9-14-53.5-22.1-79.9c-0.4-1.4-2.5-3.5-0.3-4.8c4.6-2.9,8.5-6.8,13.8-8.4c8.7-7.9,18.6-14.2,28.2-20.9
	c11.4-9,22.9-17.8,33-28.3c0.8-0.8,1.6-3.7,3.6-0.9c-0.1-4.1,3.4-5.8,5.6-8.3C249.5,355.2,252.2,354.1,252,352z M162.1,443.6
	c1.6,1.4,1.8,3.4,1.9,5.4c-0.5,1.6-1.3,2.7-2.4,0.6C160.5,447.7,160.5,445.5,162.1,443.6z M114.4,513.3c-0.5,3.8-0.6,7.6-0.6,12.7
	C110.8,520.6,113.7,517,114.4,513.3z M113.4,573.3c-0.4-0.1-0.8-0.1-1.2-0.2c1-4.7,2.1-9.5,3.1-14.2
	C115.9,564,114.3,568.6,113.4,573.3z M116.5,556.2c-0.5-0.8-0.5-1.5,0-2.3C117,554.7,117,555.4,116.5,556.2z M116,484
	c0-4.8,0.3-9.6,3.1-13.8c0.5-0.1,1.2-0.6,1.3-0.4C122.9,473,120.1,482.2,116,484z M131.2,502.9c-0.6-6-1.1-12-1.7-18.1
	C132.6,490.7,131.9,496.8,131.2,502.9z M133.2,458c-0.4-9.5,0.4-18-1.1-27C135.1,435.4,135.5,446.6,133.2,458z M127,389.2
	c0.6,0.3,1.3,0.6,1.9,0.9c0.3,0.3,0.6,0.7,1,1l-0.1,0.1c2.3,8.7,7.1,16.3,11.1,24.5C137.4,415,128.4,397.4,127,389.2z M143,402
	L143,402c-1.3-0.7-2.4-1.6-3.3-2.5c-2.1-2.1-3.5-4.7-4.6-7.6c1.3,0.1,2.6,0.2,3.9,0.3C138.7,396.1,143.8,397.8,143,402z M148.5,503
	c0.1-4.5-2.2-8.8-0.7-13.4C149.5,494,148.9,498.5,148.5,503z M174.5,554.1c-0.4-5.4-0.4-10.8-1.4-16.1
	C175.8,543.2,174.8,548.7,174.5,554.1z M187.9,540.2c3.8,7.6,8.7,14.7,9.9,23.5c-2.1,0-1.2-2.3-2.5-2.8l-0.1,0.1
	c-1.4-0.9-1.4-1.8-0.3-2.9c-0.7-2.4-1.7-4.7-3.8-6.3c-1.5-5.9-6.2-10.3-8.1-16.9C185.8,536.2,185.9,539.1,187.9,540.2z M182.5,533.2
	l0.1,0.4h-0.3L182.5,533.2z M167.9,468.6c5.2,21.1,7.7,42.3,13.4,62.9c-4-6.6-6.6-14-7-21.5c-0.5-9.5-3.2-18.3-5.4-27.3
	C167.8,478.2,166.1,473.6,167.9,468.6z M166,509.3c-0.2,0.6-0.6,1-0.9,1.5c0,0,0,0.1,0,0.2c0,0,0,0-0.1,0c-0.1,0.4-0.2,0.8-0.3,1.2
	c-0.8-0.7-0.1-0.9,0.3-1.2v-0.1c0,0,0-0.1,0.1-0.1c1.1-9.7-1-18.8-5.8-27.2c-7.8-13.4-9.6-28.1-10.2-43.2
	c-0.5-11.9-0.7-23.9-4.5-35.4c-0.2-1.9-0.5-3.8-0.7-5.8c2.8,3.5,3,7.8,4.2,11.7c2.5,16.7,1.6,33.7,4.9,50.4
	c1.7,8.7,5.4,16.7,9.3,24.6C165.9,493.2,168.7,500.9,166,509.3z"/>
<path style="fill:none;stroke:#000000;stroke-width:2;stroke-miterlimit:10;" d="M518,570L518,570L518,570L518,570z M513,561
	L513,561c0.2,0.3,0.4,0.6,0.7,0.9C513.5,561.5,513.3,561.3,513,561z M503.3,567L503.3,567c0.3,0.3,0.5,0.5,0.8,0.7
	C503.8,567.5,503.5,567.3,503.3,567z M502,543.7c0.1,0.1,0.1,0.1,0.2,0.2l0,0C502.1,543.8,502,543.7,502,543.7z M490,562L490,562
	L490,562L490,562z M489,563L489,563L489,563L489,563z M442.1,525.7c0.9-1.3,1.7-2.5,2.4-3.9C443.7,523.2,442.9,524.5,442.1,525.7z
	 M440,528.4c0.7-0.9,1.4-1.8,2-2.7C441.4,526.6,440.7,527.5,440,528.4z M437.8,531c-0.3,1.3-0.6,2.6-0.9,3.9
	C437.2,533.6,437.5,532.3,437.8,531L437.8,531z M415,569L415,569L415,569L415,569z"/>
<path style="fill:none;stroke:#000000;stroke-width:2;stroke-miterlimit:10;" d="M503,573L503,573L503,573L503,573z"/>
<path style="fill:none;stroke:#000000;stroke-width:2;stroke-miterlimit:10;" d="M504,575L504,575L504,575L504,575z"/>
<path style="fill:none;stroke:#000000;stroke-width:2;stroke-miterlimit:10;" d="M504.1,567.7c-0.3-0.2-0.5-0.4-0.8-0.7l0,0
	C503.5,567.3,503.8,567.5,504.1,567.7z"/>
<path style="fill:none;stroke:#000000;stroke-width:2;stroke-miterlimit:10;" d="M518,570L518,570L518,570L518,570z"/>
<path style="fill:none;stroke:#000000;stroke-width:2;stroke-miterlimit:10;" d="M415,569L415,569L415,569L415,569z"/>
<path style="fill:none;stroke:#000000;stroke-width:2;stroke-miterlimit:10;" d="M416,568L416,568L416,568z"/>
<path style="fill:none;stroke:#000000;stroke-width:2;stroke-miterlimit:10;" d="M443,505L443,505L443,505L443,505L443,505z"/>
<path style="fill:none;stroke:#000000;stroke-width:2;stroke-miterlimit:10;" d="M444,502L444,502L444,502L444,502z"/>
<path style="fill:none;stroke:#000000;stroke-width:2;stroke-miterlimit:10;" d="M445,499L445,499L445,499L445,499z"/>
<path style="fill:none;stroke:#000000;stroke-width:2;stroke-miterlimit:10;" d="M448,492L448,492L448,492L448,492L448,492z"/>
<path style="fill:none;stroke:#000000;stroke-width:2;stroke-miterlimit:10;" d="M449,488.9C449,489,449,489,449,488.9
	C449,489,449,489,449,488.9L449,488.9z"/>
<path style="fill:none;stroke:#000000;stroke-width:2;stroke-miterlimit:10;" d="M450,487L450,487L450,487L450,487z"/>
<path style="fill:none;stroke:#000000;stroke-width:2;stroke-miterlimit:10;" d="M451,485L451,485L451,485L451,485z"/>
<path style="fill:none;stroke:#000000;stroke-width:2;stroke-miterlimit:10;" d="M452,482L452,482L452,482z"/>
<path style="fill:none;stroke:#000000;stroke-width:2;stroke-miterlimit:10;" d="M453,477.9L453,477.9c0,0.1,0,0.1-0.1,0.1
	L453,477.9z"/>
<path style="fill:none;stroke:#000000;stroke-width:2;stroke-miterlimit:10;" d="M454,474L454,474L454,474L454,474z"/>
<path style="fill:none;stroke:#000000;stroke-width:2;stroke-miterlimit:10;" d="M440,528.4c0.7-0.9,1.4-1.8,2-2.7
	C441.4,526.6,440.8,527.5,440,528.4z"/>
<path style="fill:none;stroke:#000000;stroke-width:2;stroke-miterlimit:10;" d="M444.5,521.8c-0.8,1.3-1.6,2.6-2.4,3.9
	C442.9,524.5,443.7,523.2,444.5,521.8z"/>
<path style="fill:none;stroke:#000000;stroke-width:2;stroke-miterlimit:10;" d="M489,563L489,563L489,563L489,563L489,563z"/>
<path style="fill:none;stroke:#000000;stroke-width:2;stroke-miterlimit:10;" d="M490,562L490,562L490,562L490,562L490,562z"/>
<path style="fill:none;stroke:#000000;stroke-width:2;stroke-miterlimit:10;" d="M501.9,572c-4,0.2-7.9-1.6-12-1
	c0.7-2.8-1-5.3-0.9-7.9c0.6-0.1,0.9-0.4,1-1c4.2-0.5,8.2-0.5,9.9,4.6C500.5,568.4,501.3,570.2,501.9,572z"/>
<path style="fill:none;stroke:#000000;stroke-width:2;stroke-miterlimit:10;" d="M487,569c0,0.7,0,1.4,0,2
	c-3.9,2.1-7.7,4.2-10.1,8.1c-1.5-2.9-2.1-6-2.8-9.1c4.7-1,8.2-4.9,13.2-5.1c-0.1,1-0.2,2.1-0.3,3.1c-0.1,0.1-0.3,0.2-0.3,0.3
	C486.7,568.5,486.8,568.7,487,569L487,569z"/>
<path style="fill:none;stroke:#000000;stroke-width:2;stroke-miterlimit:10;" d="M503.3,567c0,1-0.1,2-0.1,3s-0.1,2-0.1,3v0.1
	c0,0,0,0-0.1-0.1c-0.3-0.3-0.7-0.6-1-1c-0.7-1.8-1.4-3.6-2-5.4c-1.7-5.1-5.7-5.1-9.9-4.6l0,0c0,0,0,0,0.1,0
	C494.7,558.5,499.6,560.3,503.3,567z"/>
<path style="fill:none;stroke:#000000;stroke-width:2;stroke-miterlimit:10;" d="M476.2,583.5c-0.3-0.9-0.7-1.8-1-2.7
	c-1.7-4.7-2.3-9.7-2.8-14.6c-0.2-1.6-1.5-4.1,1.5-5c0,1.9,0,3.9,0,5.8c0.1,1,0.1,1.9,0.2,2.9c0.7,3.1,1.4,6.2,2.8,9.1
	C475.8,580.5,479.6,582.6,476.2,583.5z"/>
<path style="fill:none;stroke:#000000;stroke-width:2;stroke-miterlimit:10;" d="M437.8,531c-0.3,1.3-0.6,2.6-0.9,3.9
	C437.2,533.6,437.5,532.3,437.8,531L437.8,531z"/>
<path style="fill:none;stroke:#000000;stroke-width:2;stroke-miterlimit:10;" d="M443,505L443,505c-0.7,5.9-1.8,11.6-4,17.1
	C439.7,516.2,440.3,510.4,443,505L443,505L443,505z"/>
<path style="fill:none;stroke:#000000;stroke-width:2;stroke-miterlimit:10;" d="M489.9,571c-1,0-2,0-2.9,0c0-0.7,0-1.4,0-2l0,0
	c0.1-0.3,0.1-0.6,0-0.9c0.1-1,0.2-2.1,0.3-3.1c0.6-0.7,1.2-1.3,1.8-2l0,0l0,0C488.9,565.7,490.6,568.2,489.9,571z"/>
<path style="fill:none;stroke:#000000;stroke-width:2;stroke-miterlimit:10;" d="M509,580c-3.2-0.1-4.5-2.2-5-5l0,0l0,0
	C506.7,575.6,508.4,577.2,509,580z"/>
<path style="fill:none;stroke:#000000;stroke-width:2;stroke-miterlimit:10;" d="M454,474c-0.3,1.3,0.5,3-1,4c0,0,0,0-0.1,0l0,0
	C453.1,476.6,452.8,475.1,454,474L454,474L454,474z"/>
<path style="fill:none;stroke:#000000;stroke-width:2;stroke-miterlimit:10;" d="M452,482L452,482L452,482L452,482L452,482z"/>
<path style="fill:none;stroke:#000000;stroke-width:2;stroke-miterlimit:10;" d="M453,477.9L453,477.9c0,0.1,0,0.1-0.1,0.1
	C453,478,453,478,453,477.9C453,478,453,478,453,477.9z"/>
<path style="fill:none;stroke:#000000;stroke-width:2;stroke-miterlimit:10;" d="M452,482L452,482c0,1.1,0,2.3-1,3l0,0l0,0
	C450.9,483.8,450.7,482.7,452,482L452,482z"/>
<path style="fill:none;stroke:#000000;stroke-width:2;stroke-miterlimit:10;" d="M449,488.9C449,489,449,489,449,488.9
	c-0.1,1.2-0.1,2.3-1,3.1c0,0,0,0-0.1,0l0,0C448.1,491,447.9,489.8,449,488.9C449,489,449,489,449,488.9z"/>
<path style="fill:none;stroke:#000000;stroke-width:2;stroke-miterlimit:10;" d="M445,499L445,499c-0.2,1.1,0.2,2.4-1,3.1l0,0V502
	C444,500.9,444.1,499.8,445,499L445,499z"/>
<path style="fill:none;stroke:#000000;stroke-width:2;stroke-miterlimit:10;" d="M444,502L444,502c-0.1,1.1,0.3,2.4-1,3.1l0,0l0,0
	C443,503.9,442.9,502.8,444,502L444,502z"/>
<path style="fill:none;stroke:#000000;stroke-width:2;stroke-miterlimit:10;" d="M451,485L451,485c-0.1,0.8-0.2,1.6-1,2l0,0l0,0
	C450,486.2,449.9,485.3,451,485L451,485z"/>
<path style="fill:none;stroke:#000000;stroke-width:2;stroke-miterlimit:10;" d="M450,487L450,487c-0.1,0.8-0.1,1.7-1,2.1l0,0
	c0,0,0,0,0-0.1C449.1,488.2,449,487.3,450,487L450,487z"/>
<path style="fill:none;stroke:#000000;stroke-width:2;stroke-miterlimit:10;" d="M448,492L448,492c0,0.4-0.1,0.7-0.1,1
	c-0.2,0-0.5,0.1-0.7,0.1C447.5,492.8,447.7,492.4,448,492L448,492L448,492z"/>
<path style="fill:none;stroke:#000000;stroke-width:2;stroke-miterlimit:10;" d="M445.9,497.1c-0.1,0.7-0.1,1.5-0.9,2l0,0
	c0,0,0,0,0-0.1C445.3,498.3,445.6,497.7,445.9,497.1z"/>
<path style="fill:none;stroke:#000000;stroke-width:2;stroke-miterlimit:10;" d="M504,575L504,575L504,575c-1-0.4-1-1.2-1-2l0,0
	c0,0,0,0,0.1,0C503.9,573.4,504.2,574.1,504,575z"/>
<path style="fill:none;stroke:#000000;stroke-width:2;stroke-miterlimit:10;" d="M525.9,407.1c-4.5,9.5-10.4,18.1-18.5,25
	c-1.3,1.1-2.7,2-4.2,2.7c-2.8,1.3-6,2.3-8.6,0.4c-2.3-1.7-0.7-4.6-0.3-6.8c0.6-3.2,0.4-6.7,2.6-9.4c7.5-0.2,13.3-4.5,19.5-7.8
	C519.5,409.5,522.2,407.2,525.9,407.1z"/>
<path style="fill:none;stroke:#000000;stroke-width:2;stroke-miterlimit:10;" d="M459.1,425c-3,2.7-6.4,3.8-9.7,3.6
	c-0.1,0-0.3,0-0.4,0c-0.4,0-0.7-0.1-1.1-0.2c-0.2,0-0.4-0.1-0.5-0.1c-0.4-0.1-0.8-0.2-1.2-0.4c-0.2-0.1-0.4-0.2-0.6-0.3
	c-0.3-0.2-0.7-0.3-1-0.5c-0.2-0.1-0.3-0.2-0.5-0.3c-0.2-0.1-0.4-0.2-0.5-0.4c-0.2-0.1-0.4-0.3-0.5-0.4l0,0c-0.1-0.1-0.2-0.2-0.3-0.2
	l0,0c-0.1-0.1-0.2-0.2-0.3-0.3l-0.1-0.1c-0.2-0.2-0.4-0.5-0.7-0.7c-0.2-0.2-0.3-0.4-0.5-0.6c-0.2-0.3-0.4-0.6-0.6-0.9
	c-0.1-0.1-0.2-0.2-0.2-0.3c0,0,0,0,0-0.1c-0.1-0.2-0.2-0.4-0.3-0.6c-0.2-0.3-0.3-0.6-0.5-0.9s-0.3-0.6-0.4-1l0,0c0.3,0,0.6,0,0.9,0
	l0,0l0,0l0,0l0,0l0,0h0.1c0.4,0,0.8,0,1.3,0.1l0,0c0,0,0,0,0.1,0l0,0c0.3,0,0.5,0,0.8,0.1c0.9,0.1,1.9,0.3,2.8,0.5
	c0.3,0.1,0.5,0.1,0.8,0.2c0.3,0,0.5,0.1,0.8,0.2c0.4,0.1,0.8,0.2,1.1,0.3c0.4,0.1,0.8,0.2,1.1,0.3c0.4,0.1,0.9,0.2,1.3,0.3
	c0.7,0.2,1.4,0.4,2.1,0.5c0.8,0.2,1.5,0.3,2.3,0.4c0.4,0.1,0.8,0.1,1.2,0.2c0.7,0.1,1.5,0.1,2.2,0.1c0.2,0,0.5,0,0.7,0
	C458.9,423.9,459,424.5,459.1,425z"/>
<path style="fill:none;stroke:#000000;stroke-width:2;stroke-miterlimit:10;" d="M486,422.7c0,2.2-1.7,3.5-2.9,5
	c-2.1,2.4-4.8,4.1-7.9,3.2c-2.8-0.9-2.8-4.1-3.1-6.7C476.8,423.7,481.4,423.2,486,422.7z"/>
<path style="fill:none;stroke:#000000;stroke-width:2;stroke-miterlimit:10;" d="M425,425L425,425L425,425c-1.2-0.1-2-0.7-2-2l0,0
	l0,0l0,0c0.1,0,0.2,0,0.3,0c0.1,0,0.1,0,0.2,0s0.3,0,0.4,0.1c0.1,0,0.3,0.1,0.3,0.2c0.1,0,0.2,0.1,0.2,0.1s0,0,0.1,0.1l0,0
	c0,0,0,0,0,0.1l0.1,0.1c0,0,0,0,0,0.1s0.1,0.1,0.1,0.2s0.1,0.1,0.1,0.2s0.1,0.2,0.1,0.3v0.1C425,424.7,425,424.9,425,425z"/>
<path style="fill:none;stroke:#000000;stroke-width:2;stroke-miterlimit:10;" d="M447.7,447.2C447.7,447.2,447.7,447.3,447.7,447.2
	C447.7,447.3,447.7,447.2,447.7,447.2L447.7,447.2c-0.9-0.6-1.3-1.4-1.5-2.3C447.6,445.1,448.1,445.9,447.7,447.2z"/>
<path style="fill:none;stroke:#000000;stroke-width:2;stroke-miterlimit:10;" d="M490,415L490,415c0,0.3,0,0.7,0,1
	c0,0.1,0,0.2,0,0.3c0,0.1,0,0.1,0,0.2l0,0c0,0.1,0,0.2-0.1,0.3c0,0,0,0.1-0.1,0.2c0,0.1,0,0.1-0.1,0.2c-0.2,0.3-0.4,0.6-0.9,0.8
	c0.1-0.5,0.1-1.1,0.2-1.7c0-0.1,0-0.2,0.1-0.3c0-0.1,0.1-0.2,0.1-0.3c0,0,0-0.1,0.1-0.1c0,0,0-0.1,0.1-0.1c0.1-0.1,0.1-0.2,0.2-0.3
	c0-0.1,0.1-0.1,0.2-0.2C489.8,415.1,489.9,415,490,415L490,415z"/>
<path style="fill:none;stroke:#000000;stroke-width:2;stroke-miterlimit:10;" d="M490,415L490,415L490,415c0-0.2,0-0.4,0-0.6
	s0-0.4,0-0.6c0-0.1,0-0.3,0-0.4s0.1-0.3,0.1-0.4s0.1-0.2,0.2-0.4c0.1-0.1,0.2-0.2,0.3-0.3c0.1-0.1,0.2-0.2,0.3-0.3l0,0
	C490.9,413.1,491.2,414.3,490,415z"/>
<path style="fill:none;stroke:#000000;stroke-width:2;stroke-miterlimit:10;" d="M419,420c-0.9,0.1-1.6-0.1-2-1l0,0
	c0.2,0,0.5,0,0.7,0c0.1,0,0.1,0,0.2,0s0.1,0,0.2,0.1c0.1,0,0.1,0.1,0.2,0.1c0.2,0.1,0.4,0.3,0.5,0.5
	C418.9,419.8,418.9,419.9,419,420L419,420L419,420z"/>
<path style="fill:none;stroke:#000000;stroke-width:2;stroke-miterlimit:10;" d="M423,423L423,423L423,423c-0.9,0.1-1.6-0.2-2-1
	c0.2,0,0.3,0,0.5,0c0,0,0.1,0,0.2,0h0.1c0.1,0,0.2,0,0.3,0.1c0.1,0,0.2,0.1,0.3,0.2c0,0,0.1,0,0.1,0.1c0.1,0,0.1,0.1,0.2,0.1
	c0,0,0,0,0.1,0.1c0,0,0.1,0.1,0.1,0.2C422.9,422.8,422.9,422.9,423,423L423,423z"/>
<path style="fill:none;stroke:#000000;stroke-width:2;stroke-miterlimit:10;" d="M427,426c-0.9,0.1-1.6-0.2-2-1l0,0l0,0
	c0.4,0,0.9,0,1.2,0.2c0.2,0.1,0.3,0.2,0.4,0.3c0,0,0,0.1,0.1,0.1C426.8,425.7,426.9,425.9,427,426L427,426L427,426z"/>
<path style="fill:none;stroke:#000000;stroke-width:2;stroke-miterlimit:10;" d="M445,443.1c-0.5-0.6-1-1.1-1.5-1.7
	C444.8,441.3,445,442.2,445,443.1z"/>
<path style="fill:none;stroke:#000000;stroke-width:2;stroke-miterlimit:10;" d="M448.6,449.3c-0.3-0.7-0.6-1.4-0.9-2.1l0,0
	c0,0,0,0,0.1,0c0.3,0.1,0.5,0.2,0.7,0.3c0.1,0,0.1,0.1,0.2,0.1C448.9,448,448.8,448.6,448.6,449.3z"/>
<path style="fill:none;stroke:#000000;stroke-width:2;stroke-miterlimit:10;" d="M442.7,440.3L442.7,440.3L442.7,440.3L442.7,440.3
	c-0.4-0.3-0.7-0.6-1-1l-0.1-0.1h0.1c0,0,0,0,0.1,0s0.1,0,0.2,0h0.1c0.2,0,0.3,0.1,0.3,0.2c0,0,0.1,0,0.1,0.1s0.1,0.1,0.1,0.2v0.1
	C442.7,440.1,442.7,440.2,442.7,440.3z"/>
<path style="fill:none;stroke:#000000;stroke-width:2;stroke-miterlimit:10;" d="M443.6,441c0,0.1,0,0.2,0,0.4
	c-0.3-0.4-0.6-0.8-0.9-1.1l0,0l0,0c0.1,0,0.1,0,0.2,0s0.2,0.1,0.3,0.1c0.1,0,0.1,0.1,0.2,0.1l0.1,0.1c0,0,0.1,0.1,0.1,0.2
	C443.6,440.9,443.6,441,443.6,441z"/>
<path style="fill:none;stroke:#000000;stroke-width:2;stroke-miterlimit:10;" d="M165,511L165,511L165,511c0.1,0,0.1-0.1,0.1-0.1
	C165,510.9,165,510.9,165,511z"/>
<path style="fill:none;stroke:#000000;stroke-width:2;stroke-miterlimit:10;" d="M197.7,563.6c-2.1,0-1.2-2.3-2.5-2.8l-0.1,0.1
	c-0.1-1-0.2-1.9-0.3-2.9c-0.7-2.4-1.7-4.7-3.8-6.3c-1.5-5.9-6.2-10.3-8.1-16.9c2.9,1.3,3,4.2,4.9,5.3
	C191.7,547.8,196.5,554.9,197.7,563.6z"/>
<path style="fill:none;stroke:#000000;stroke-width:2;stroke-miterlimit:10;" d="M164,449c-0.5,1.6-1.3,2.7-2.4,0.6
	c-1-1.9-1.1-4.1,0.5-6C163.7,445,163.9,447,164,449z"/>
<path style="fill:none;stroke:#000000;stroke-width:2;stroke-miterlimit:10;" d="M516.4,538.9c-4-2.6-5.6-6.3-5.2-11
	C512.9,531.6,514.7,535.2,516.4,538.9z"/>
<path style="fill:none;stroke:#000000;stroke-width:2;stroke-miterlimit:10;" d="M498,499c-3.4-2.1-4.7-5.2-3.8-9.1
	C495.9,492.8,497.1,495.8,498,499z"/>
<path style="fill:none;stroke:#000000;stroke-width:2;stroke-miterlimit:10;" d="M508,521c-2.7-1.2-4.1-3-2.9-6.1
	C506.5,516.8,507.4,518.8,508,521z"/>
<path style="fill:none;stroke:#000000;stroke-width:2;stroke-miterlimit:10;" d="M490.9,481c-2.4-1.1-3.3-2.7-1.7-5.1
	C489.8,477.6,490.4,479.3,490.9,481z"/>
<path style="fill:none;stroke:#000000;stroke-width:2;stroke-miterlimit:10;" d="M502,508c-2.1-0.7-3.8-1.5-1.8-4.1
	C501.2,505.1,501.7,506.5,502,508z"/>
<path style="fill:none;stroke:#000000;stroke-width:2;stroke-miterlimit:10;" d="M510.3,525.9c-1.6-0.1-2.9-0.3-1-2.1
	C509.7,524.5,510,525.2,510.3,525.9z"/>
<path style="fill:none;stroke:#000000;stroke-width:2;stroke-miterlimit:10;" d="M520.2,547c-1.4-0.2-2.7-0.4-1-2
	C519.5,545.6,519.8,546.3,520.2,547z"/>
<path style="fill:none;stroke:#000000;stroke-width:2;stroke-miterlimit:10;" d="M488.9,474c-1.7-0.3-2.4-0.9-0.5-2.2
	C488.5,472.6,488.7,473.3,488.9,474z"/>
<path style="fill:none;stroke:#000000;stroke-width:2;stroke-miterlimit:10;" d="M492,484c-0.9-0.5-0.9-1.4-0.9-2.3
	C491.8,482.3,492,483.1,492,484z"/>
<path style="fill:none;stroke:#000000;stroke-width:2;stroke-miterlimit:10;" d="M528,564c-0.3-0.4-0.6-0.9-0.9-1.3
	C527.7,562.9,528.1,563.3,528,564z"/>
<path style="fill:none;stroke:#000000;stroke-width:2;stroke-miterlimit:10;" d="M116,484c0-4.8,0.3-9.6,3.1-13.8
	c0.5-0.1,1.2-0.6,1.3-0.4C122.9,473,120.1,482.2,116,484z"/>
<path style="fill:none;stroke:#000000;stroke-width:2;stroke-miterlimit:10;" d="M195.1,561c-1.4-0.9-1.4-1.8-0.3-2.9
	C194.9,559,195,560,195.1,561z"/>
<path style="fill:none;stroke:#000000;stroke-width:2;stroke-miterlimit:10;" d="M238.5,327.5c-0.1,0.2-0.2,0.4-0.4,0.5l0,0l0,0
	l-0.2-0.2C238.1,327.8,238.3,327.7,238.5,327.5z"/>
<path style="fill:none;stroke:#000000;stroke-width:2;stroke-miterlimit:10;" d="M167,394L167,394L167,394
	C166.9,394,167,394,167,394z"/>
<path style="fill:none;stroke:#000000;stroke-width:2;stroke-miterlimit:10;" d="M170,391.9C170,392,170,392,170,391.9
	c-0.1,0.2-0.2,0.3-0.3,0.5l-0.1,0.1c0,0-0.1,0-0.1,0.1c-0.1,0-0.1,0.1-0.2,0.1c-0.1,0.1-0.2,0.1-0.3,0.1s-0.2,0.1-0.3,0.1
	s-0.2,0-0.3,0c-0.2,0-0.3,0-0.5,0l0,0C168.4,392.2,169.1,391.9,170,391.9z"/>
<path style="fill:none;stroke:#000000;stroke-width:2;stroke-miterlimit:10;" d="M217,359.9C217,360,217,360,217,359.9
	c-0.1,0.1-0.1,0.2-0.2,0.3c-0.1,0.1-0.2,0.3-0.3,0.3c0,0-0.1,0.1-0.2,0.1c-0.2,0.1-0.4,0.2-0.5,0.2s-0.1,0-0.2,0c-0.1,0-0.2,0-0.3,0
	s-0.2,0-0.3,0l0,0C215.4,360.1,216.1,359.9,217,359.9z"/>
<path style="fill:none;stroke:#000000;stroke-width:2;stroke-miterlimit:10;" d="M214,361.9C214,362,214,362,214,361.9
	C214,362,214,362,214,361.9c-0.4,0.9-1.2,1-2,1l0,0C212.4,362.1,213.1,361.9,214,361.9z"/>
<path style="fill:none;stroke:#000000;stroke-width:2;stroke-miterlimit:10;" d="M211,363.9C211,364,211,364,211,363.9
	c-0.1,0.2-0.2,0.3-0.3,0.5l-0.1,0.1c0,0-0.1,0-0.1,0.1c-0.1,0-0.1,0.1-0.2,0.1c-0.1,0.1-0.2,0.1-0.3,0.1s-0.2,0.1-0.3,0.1
	s-0.2,0-0.3,0c-0.2,0-0.3,0-0.5,0l0,0C209.4,364.2,210.1,363.9,211,363.9z"/>
<path style="fill:none;stroke:#000000;stroke-width:2;stroke-miterlimit:10;" d="M208,365.9c-0.4,0.9-1.2,1-2,1l0,0
	C206.4,366.2,207.1,365.9,208,365.9z"/>
<path style="fill:none;stroke:#000000;stroke-width:2;stroke-miterlimit:10;" d="M205,367.9c-0.4,0.9-1.2,1-2,1l0,0
	C203.4,368.2,204.1,367.9,205,367.9z"/>
<path style="fill:none;stroke:#000000;stroke-width:2;stroke-miterlimit:10;" d="M202,370c-0.4,0.9-1.2,1-2,1l0,0
	C200.4,370.2,201.1,370,202,370L202,370z"/>
<path style="fill:none;stroke:#000000;stroke-width:2;stroke-miterlimit:10;" d="M195,374.9C195,375,195,375,195,374.9
	c-0.1,0.1-0.1,0.2-0.2,0.3c-0.1,0.1-0.2,0.2-0.3,0.3c-0.1,0.1-0.1,0.1-0.2,0.2c-0.1,0.1-0.2,0.1-0.4,0.2c-0.1,0-0.1,0-0.2,0
	c-0.3,0.1-0.5,0.1-0.8,0.1l0,0C193.4,375.1,194.1,374.9,195,374.9z"/>
<path style="fill:none;stroke:#000000;stroke-width:2;stroke-miterlimit:10;" d="M192,376.9C192,377,192,377,192,376.9
	C192,377,192,377,192,376.9c-0.1,0.2-0.2,0.4-0.3,0.5s-0.1,0.1-0.2,0.2c0,0-0.1,0.1-0.2,0.1c-0.1,0.1-0.2,0.1-0.3,0.1
	c-0.3,0.1-0.7,0.1-1,0.1l0,0C190.4,377.2,191.1,376.9,192,376.9z"/>
<path style="fill:none;stroke:#000000;stroke-width:2;stroke-miterlimit:10;" d="M189,378.9c-0.4,0.9-1.2,1-2,1l0,0
	C187.4,379.2,188.1,378.9,189,378.9z"/>
<path style="fill:none;stroke:#000000;stroke-width:2;stroke-miterlimit:10;" d="M186,380.9c-0.1,0.2-0.2,0.4-0.4,0.5
	c-0.1,0.1-0.3,0.2-0.5,0.3c-0.4,0.2-0.8,0.2-1.2,0.2l0,0C184.4,381.2,185.1,380.9,186,380.9z"/>
<path style="fill:none;stroke:#000000;stroke-width:2;stroke-miterlimit:10;" d="M183,382.9c-0.4,0.9-1.2,1-2,1l0,0
	C181.4,383.2,182.1,383,183,382.9z"/>
<path style="fill:none;stroke:#000000;stroke-width:2;stroke-miterlimit:10;" d="M180,385c0,0.1-0.1,0.2-0.2,0.3s-0.1,0.2-0.2,0.2
	c0,0.1-0.1,0.1-0.2,0.1c0,0-0.1,0.1-0.2,0.1c-0.1,0-0.1,0.1-0.2,0.1c-0.1,0-0.3,0.1-0.4,0.1c-0.1,0-0.1,0-0.2,0c-0.1,0-0.1,0-0.2,0
	c-0.1,0-0.2,0-0.2,0l0,0C178.4,385.2,179.1,385,180,385z"/>
<path style="fill:none;stroke:#000000;stroke-width:2;stroke-miterlimit:10;" d="M173,389.9C173,390,173,390,173,389.9L173,389.9
	L173,389.9c-0.4,0.9-1.2,1-2,1l0,0C171.4,390.1,172.1,389.9,173,389.9z"/>
<path style="fill:none;stroke:#000000;stroke-width:2;stroke-miterlimit:10;" d="M143,402c-1.3-0.7-2.4-1.6-3.3-2.5
	c-2.1-2.1-3.5-4.7-4.6-7.6c1.3,0.1,2.6,0.2,3.9,0.3C138.7,396.1,143.8,397.8,143,402z"/>
<path style="fill:none;stroke:#000000;stroke-width:2;stroke-miterlimit:10;" d="M140.9,415.7c-3.5-0.7-12.5-18.2-13.9-26.5
	c0.6,0.3,1.3,0.6,1.9,0.9c0.3,0.3,0.6,0.7,1,1l-0.1,0.1C132.2,399.9,136.9,407.5,140.9,415.7z"/>
<path style="fill:none;stroke:#000000;stroke-width:2;stroke-miterlimit:10;" d="M429,548c-0.2,9.4-7.2,14.3-13,20l0,0l0,0
	c-0.3-3.7,2.4-6,4.3-8.6C422.9,555.4,426,551.8,429,548L429,548z"/>
<path style="fill:none;stroke:#000000;stroke-width:2;stroke-miterlimit:10;" d="M482.1,505.4c-1.1,6.1-2.3,12.2-3.4,18.3
	C478.4,517.3,479.5,511.2,482.1,505.4z"/>
<path style="fill:none;stroke:#000000;stroke-width:2;stroke-miterlimit:10;" d="M501.1,541.1c-4.1-3.9-5.7-9-6.2-14.6
	C497,531.4,499,536.3,501.1,541.1z"/>
<path style="fill:none;stroke:#000000;stroke-width:2;stroke-miterlimit:10;" d="M461.2,479.6c-1.3-5.1-2.6-10.2-2.1-16.1
	c1.6,1.9,1.7,3.7,2,5.5C460.5,472.5,463.2,476,461.2,479.6z"/>
<path style="fill:none;stroke:#000000;stroke-width:2;stroke-miterlimit:10;" d="M485.1,503.1C485,503.1,485,503.1,485.1,503.1V503
	C485,503,485,503.1,485.1,503.1z"/>
<path style="fill:none;stroke:#000000;stroke-width:2;stroke-miterlimit:10;" d="M490.7,516.2c-2.5-4-4.8-8.3-5.6-13
	C489,506.6,488.9,511.8,490.7,516.2z"/>
<path style="fill:none;stroke:#000000;stroke-width:2;stroke-miterlimit:10;" d="M518,570L518,570L518,570c-2.4-1.6-3.1-4.4-4.2-6.8
	l0,0c0.2-0.2,0.4-0.3,0.6-0.5l0,0c1.9,0.9,2,3.2,3.5,4.4C518,568.1,518,569,518,570z"/>
<path style="fill:none;stroke:#000000;stroke-width:2;stroke-miterlimit:10;" d="M521,575.4c-2.3-0.4-2-2.5-3-3.4c0-0.7,0-1.3,0-2
	l0,0l0,0C520.2,571,520.4,573.2,521,575.4z"/>
<path style="fill:none;stroke:#000000;stroke-width:2;stroke-miterlimit:10;" d="M473.9,567.1c0-2,0-3.9,0-5.8
	c0.1-0.7,0.3-1.5,0.4-2.2C474.7,561.8,476,564.6,473.9,567.1z"/>
<path style="fill:none;stroke:#000000;stroke-width:2;stroke-miterlimit:10;" d="M483,496c-0.3,0.1-0.5,0.1-0.8,0.2
	c-0.3-0.7-0.7-1.4-0.7-2.2c0-0.5,0.7-0.7,0.9-0.3C482.8,494.4,482.8,495.2,483,496z"/>
<path style="fill:none;stroke:#000000;stroke-width:2;stroke-miterlimit:10;" d="M492.6,521.5c-1.2-0.8-1.8-1.7-1.1-3.1
	C492.5,519.2,493.2,520,492.6,521.5z"/>
<path style="fill:none;stroke:#000000;stroke-width:2;stroke-miterlimit:10;" d="M503.4,546.2c0,0.1-0.8,0.2-0.8,0.2
	c-0.3-0.7-0.6-1.4-0.9-2.2c0.1-0.1,0.3-0.3,0.4-0.4C502.9,544.4,503.7,545.1,503.4,546.2z"/>
<path style="fill:none;stroke:#000000;stroke-width:2;stroke-miterlimit:10;" d="M483.7,499.2c-0.1,0-0.2,0.1-0.3,0.1
	c0-0.1-0.1-0.3-0.1-0.4c0,0,0.2-0.1,0.3-0.1C483.6,498.9,483.7,499,483.7,499.2z"/>
<path style="fill:none;stroke:#000000;stroke-width:2;stroke-miterlimit:10;" d="M484.9,502.8c-0.2-0.3-0.4-0.6-0.6-0.9
	C485.3,501.8,484.9,502.4,484.9,502.8z"/>
<path style="fill:none;stroke:#000000;stroke-width:2;stroke-miterlimit:10;" d="M485,503L485,503c-0.1,0-0.1-0.1-0.1-0.2
	C485,502.9,485,502.9,485,503z"/>
<path style="fill:none;stroke:#000000;stroke-width:2;stroke-miterlimit:10;" d="M514.4,562.7c-0.2,0.2-0.4,0.3-0.6,0.5
	c-0.1-0.1-0.1-0.1-0.2-0.2c-0.6-0.5-0.8-1.2-0.6-2l0.1-0.1l0,0c0.2,0.3,0.4,0.6,0.7,0.9C513.9,562.1,514.2,562.4,514.4,562.7z"/>
<path style="fill:none;stroke:#000000;stroke-width:2;stroke-miterlimit:10;" d="M413.5,571c0.5-0.7,0.5-1.7,1.5-2l0,0l0,0
	C415.2,570.2,414.7,570.9,413.5,571z"/>
<path style="fill:none;stroke:#000000;stroke-width:2;stroke-miterlimit:10;" d="M493.8,524.2c-0.1,0.1-0.2,0.2-0.4,0.3
	c-0.1-0.3-0.2-0.5-0.3-0.8c0-0.1,0.2-0.2,0.3-0.3C493.6,523.7,493.7,524,493.8,524.2z"/>
<path style="fill:none;stroke:#000000;stroke-width:2;stroke-miterlimit:10;" d="M436.5,535.9c0.1-0.3,0.2-0.7,0.3-1
	C437.8,535.6,437.4,535.8,436.5,535.9z"/>
<path style="fill:none;stroke:#000000;stroke-width:2;stroke-miterlimit:10;" d="M502.2,543.8c-0.1,0.1-0.3,0.3-0.4,0.4
	c-0.4-0.3-0.8-0.6-0.2-1c0,0,0.2,0.2,0.4,0.5C502,543.7,502.1,543.8,502.2,543.8z"/>
<path style="fill:none;stroke:#000000;stroke-width:2;stroke-miterlimit:10;" d="M511.1,557.9l-0.2,0.2c-0.2-0.2-0.6-0.5-0.6-0.5
	C510.8,556.9,510.9,557.7,511.1,557.9z"/>
<path style="fill:none;stroke:#000000;stroke-width:2;stroke-miterlimit:10;" d="M490,562L490,562L490,562c-0.1,0.7-0.4,1-1,1.1
	c0,0,0,0-0.1,0c0,0,0,0,0.1,0C489.3,562.7,489.7,562.3,490,562L490,562z"/>
<path style="fill:none;stroke:#000000;stroke-width:2;stroke-miterlimit:10;" d="M416,568c-0.1,0.6-0.3,1.1-1,1l0,0l0,0
	C415,568.3,415.2,567.9,416,568L416,568z"/>
<path style="fill:none;stroke:#000000;stroke-width:2;stroke-miterlimit:10;" d="M487,568c0.1,0.3,0.1,0.6,0,0.9
	c-0.1-0.2-0.3-0.4-0.4-0.7C486.6,568.3,486.8,568.1,487,568z"/>
<path style="fill:none;stroke:#000000;stroke-width:2;stroke-miterlimit:10;" d="M165,510.9c0,0,0,0.1,0,0.2h-0.1
	C165,510.9,165,510.9,165,510.9z"/>
<path style="fill:none;stroke:#000000;stroke-width:2;stroke-miterlimit:10;" d="M166,509.3c-0.2,0.6-0.6,1-0.9,1.5
	c1.1-9.7-1-18.8-5.8-27.2c-7.8-13.4-9.6-28.1-10.2-43.2c-0.5-11.9-0.7-23.9-4.5-35.4c-0.2-1.9-0.5-3.8-0.7-5.8
	c2.8,3.5,3,7.8,4.2,11.7c2.5,16.7,1.6,33.7,4.9,50.4c1.7,8.7,5.4,16.7,9.3,24.6C165.9,493.2,168.7,500.9,166,509.3z"/>
<path style="fill:none;stroke:#000000;stroke-width:2;stroke-miterlimit:10;" d="M181.3,531.5c-4-6.6-6.6-14-7-21.5
	c-0.5-9.5-3.2-18.3-5.4-27.3c-1.1-4.5-2.8-9-1-14.1C173.1,489.7,175.6,510.9,181.3,531.5z"/>
<path style="fill:none;stroke:#000000;stroke-width:2;stroke-miterlimit:10;" d="M133.2,458c-0.4-9.5,0.4-18-1.1-27
	C135.1,435.4,135.5,446.6,133.2,458z"/>
<path style="fill:none;stroke:#000000;stroke-width:2;stroke-miterlimit:10;" d="M131.2,502.9c-0.6-6-1.1-12-1.7-18.1
	C132.6,490.7,131.9,496.8,131.2,502.9z"/>
<path style="fill:none;stroke:#000000;stroke-width:2;stroke-miterlimit:10;" d="M113.4,573.3c-0.4-0.1-0.8-0.1-1.2-0.2
	c1-4.7,2.1-9.5,3.1-14.2C115.9,564,114.3,568.6,113.4,573.3z"/>
<path style="fill:none;stroke:#000000;stroke-width:2;stroke-miterlimit:10;" d="M148.5,503c0.1-4.5-2.2-8.8-0.7-13.4
	C149.5,494,148.9,498.5,148.5,503z"/>
<path style="fill:none;stroke:#000000;stroke-width:2;stroke-miterlimit:10;" d="M114.4,513.3c-0.5,3.8-0.6,7.6-0.6,12.7
	C110.8,520.6,113.7,517,114.4,513.3z"/>
<path style="fill:none;stroke:#000000;stroke-width:2;stroke-miterlimit:10;" d="M174.5,554.1c-0.4-5.4-0.4-10.8-1.4-16.1
	C175.8,543.2,174.8,548.7,174.5,554.1z"/>
<path style="fill:none;stroke:#000000;stroke-width:2;stroke-miterlimit:10;" d="M116.5,556.2c-0.5-0.8-0.5-1.5,0-2.3
	C117,554.7,117,555.4,116.5,556.2z"/>
<path style="fill:none;stroke:#000000;stroke-width:2;stroke-miterlimit:10;" d="M165,511.1c-0.1,0.4-0.2,0.8-0.3,1.2
	C163.8,511.6,164.5,511.4,165,511.1z"/>
<path style="fill:none;stroke:#000000;stroke-width:2;stroke-miterlimit:10;" d="M165,511L165,511L165,511L165,511z"/>
<polygon style="fill:none;stroke:#000000;stroke-width:2;stroke-miterlimit:10;" points="182.7,533.6 182.3,533.6 182.5,533.2 "/>
</svg>
