<?xml version="1.0" encoding="utf-8"?>
<!-- Generator: Adobe Illustrator 17.0.0, SVG Export Plug-In . SVG Version: 6.00 Build 0)  -->
<!DOCTYPE svg PUBLIC "-//W3C//DTD SVG 1.1//EN" "http://www.w3.org/Graphics/SVG/1.1/DTD/svg11.dtd" [
	<!ENTITY ns_flows "http://ns.adobe.com/Flows/1.0/">
	<!ENTITY ns_extend "http://ns.adobe.com/Extensibility/1.0/">
	<!ENTITY ns_ai "http://ns.adobe.com/AdobeIllustrator/10.0/">
	<!ENTITY ns_graphs "http://ns.adobe.com/Graphs/1.0/">
]>
<svg version="1.1" id="Layer_1" xmlns:x="&ns_extend;" xmlns:i="&ns_ai;" xmlns:graph="&ns_graphs;"
	 xmlns="http://www.w3.org/2000/svg" xmlns:xlink="http://www.w3.org/1999/xlink" xmlns:a="http://ns.adobe.com/AdobeSVGViewerExtensions/3.0/"
	 x="0px" y="0px" width="612px" height="792px" viewBox="0 0 612 792" style="enable-background:new 0 0 612 792;"
	 xml:space="preserve">
<path d="M592.6,471.5c-1-0.7-4.1-3.3-6.7-5.9c-2.6-2.5-6.6-5.7-8.8-7.1c-2.2-1.4-6.3-4.6-9.3-7.1s-5.6-4.6-6.1-4.6
	c-0.5,0-2.7-1.7-5-3.7s-4.7-3.7-5.1-3.7s-1.9-0.8-3-1.7c-3.8-3.2-5.6-3.7-10.8-3.6c-3.2,0.2-6.6-0.2-9-1c-4.4-1.3-6.3-1.1-6.3,0.9
	c0,1.7,4.2,6.3,5.2,5.8c1.4-0.9,0.7-2.3-1.9-3.6c-2.1-1.1-4-4.3-2.1-3.2c0.3,0.2,1.8,0.9,3.3,1.5c1.5,0.7,3.2,1.9,3.7,2.7
	c0.6,0.8,2.2,1.9,3.8,2.5c1.5,0.6,2.8,1.5,2.8,2c0,1.8,7.4,8.1,11.2,9.5c4.2,1.6,5.5,3.2,2.7,3.1c-2.1,0-9.3-2.9-12.2-4.9
	c-1.2-0.8-3-1.7-4-2c-1-0.2-3-1.5-4.3-2.7c-1.3-1.3-2.8-2.2-3.3-2.2c-0.6,0-2.2-1.5-3.7-3.3c-1.5-1.8-3.2-3.3-3.8-3.3
	c-0.9,0-2.5-1.6-6.6-6.6c-0.8-0.9-1.8-1.5-2.5-1.3c-0.6,0.2-3.5-0.1-6.4-0.7c-6.6-1.3-6.6-1.3-2.1,2.1c2.1,1.5,3.7,3,3.7,3.4
	s1.5,1.4,3.4,2.4c1.8,0.9,4,2.8,4.7,4c1.4,2.3,12.3,9.3,14.6,9.3c0.7,0,1.1,0.4,0.9,0.9c-0.7,2.1-13-1.3-15.5-4.4
	c-0.5-0.6-1.6-1-2.5-1c-1.1,0-2.8-1.2-4.7-3.3c-1.9-2.2-3.3-3.2-4.1-2.9c-0.7,0.3-1.6-0.3-2.5-1.7c-2.3-3.5-4.8-6.1-5.7-5.8
	c-0.5,0.2-2.2-1.8-3.9-4.4c-2.5-3.6-3.5-4.7-5.2-4.8c-4.3-0.5-9.7-2.4-11.6-4.2c-1.1-1-2.1-1.6-2.3-1.3c-0.2,0.3,0.8,1.7,2.2,2.9
	c1.4,1.3,2.6,2.8,2.6,3.4c0,1.3,4.2,4.9,5.6,4.9c0.6,0,1,0.6,1,1.4c0,1.7,2.6,3.7,4.7,3.7c0.7,0,1.7,0.9,2.2,1.8
	c0.5,1,1.1,1.8,1.5,1.8c0.4,0,1.9,1.1,3.4,2.5c1.5,1.3,4.6,3.2,6.9,4.2c5,2.1,5,2.1,3.8,2.8c-1.4,0.9-7-0.4-11.4-2.6
	c-2.1-1.1-4.5-2.1-5.3-2.1c-0.8-0.1-3.1-1.8-5.2-4c-2.1-2.1-4.2-3.8-4.6-3.8s-2.1-1.8-3.6-4c-1.6-2.2-3.2-3.9-3.5-3.6
	c-0.7,0.5-4.6-3.8-6.3-6.8c-1-1.9-2-2.5-5.5-3.2c-2.5-0.5-5.2-1.7-6.5-2.7c-2.9-2.5-5.1-2.5-3.5-0.2c0.6,0.9,1.2,2.1,1.2,2.8
	c0,1.2,9.5,10.4,10.8,10.4c0.4,0,3,2.5,5.8,5.5c3.5,3.9,6.3,6.2,9.1,7.4c4.4,2.1,5.1,3.2,1.9,3.2c-3.1,0-7.7-2.1-12.3-5.8
	c-1.2-0.9-3.2-2.1-4.5-2.7c-1.3-0.6-3.5-2.4-4.8-4c-1.3-1.7-2.8-2.8-3.3-2.6c-0.9,0.4-3.9-2.7-6.1-6.5c-0.7-1.3-2-2.4-2.8-2.6
	c-0.9-0.2-2.2-1.8-3.2-4.1c-1.3-2.9-2.3-4-4.4-4.7c-1.5-0.6-4.3-1.9-6.3-2.8c-4.7-2.5-7-1.7-4.7,1.4c0.6,0.8,1.1,1.9,1.1,2.5
	c0,1.2,4.4,5.5,9.4,9.6c1.7,1.3,3.2,3.2,3.5,4.1c0.6,2.1,5.5,5.9,11.6,9.1c6,3.2,4.6,3.9-2.7,1.4c-5.9-2-11-5.4-10.4-7
	c0.2-0.6,1.1-0.2,2.6,1c3.2,2.8,3.8,2.5,0.6-0.4c-2.3-2.1-2.9-2.2-4.4-1.5c-1.6,0.7-2.1,0.5-4.7-2.5c-1.7-1.8-3.2-3.2-3.6-3
	c-0.9,0.6-1.8-0.2-4.2-4c-1.2-1.8-3.1-4.2-4.3-5.3c-1.2-1.1-2.6-3.2-3.2-4.7c-0.7-1.7-1.6-2.7-2.5-2.7c-0.8,0-3.2-0.7-5.5-1.6
	c-2.6-1-4.8-1.4-6-1.1l-1.9,0.5l2.3,3.2c1.3,1.8,3.5,4.4,4.8,5.7c1.3,1.3,2.5,2.8,2.5,3.2c0,0.4,1,1.4,2.2,2.3
	c1.3,0.8,3.4,3,4.9,4.8c1.5,1.9,5.9,5.5,10,8.2c7.2,4.8,8.4,6.3,4.5,5.4c-5.7-1.2-16.7-8-22-13.6c-1.2-1.3-3.3-2.8-4.7-3.5
	c-1.3-0.6-2.4-1.4-2.4-1.8c0-0.3-2-2.9-4.4-5.7c-2.4-2.8-4.7-5.8-5.2-6.7c-0.6-0.9-1.6-1.7-2.6-1.7c-0.9,0-3.3-0.9-5.4-1.8
	c-4.5-2.3-6.4-2.5-4.2-0.3c0.9,0.9,1.7,2.1,1.7,2.8c0,0.8,1.3,2.2,2.9,3.3c1.7,1.1,2.9,2.5,2.9,3.1s1.8,2.3,4,3.7
	c2.2,1.4,4.3,3.2,4.5,4c0.9,2.8,11.5,10.2,17.6,12.2c2.6,0.9,0.5,2.1-2.7,1.5c-3.6-0.6-7.6-2.5-12.4-5.9c-1.9-1.3-4.1-2.6-4.9-2.8
	c-0.9-0.2-3.2-2-5.1-3.8c-2-1.8-4-3.3-4.4-3.3c-1.2,0-5.5-4.4-6.7-6.8c-0.6-1.1-1.6-2.1-2.1-2.1c-0.6,0-1.9-1.3-2.8-2.8
	c-1.4-2.3-2.5-2.9-5.5-3.6c-2.1-0.5-4.8-1.7-6-2.5c-4.7-3.5-6.1-0.8-1.5,3.1c2.1,1.8,5.4,4.7,7.3,6.3c3.2,2.8,4.4,4,11.3,11.3
	c1.7,1.7,5.3,4.3,8.1,5.7c6.6,3.3,6.8,3.4,6.3,4.2c-0.2,0.4-1.7,0.2-3.5-0.4c-1.7-0.6-3.7-1.1-4.6-1.1c-0.9,0-3.2-1.1-5.4-2.4
	c-6.8-4.4-11.8-7.8-13.8-9.6c-2.8-2.5-9.5-8.3-12.3-10.7c-1.3-1.1-2.9-2.9-3.6-4.1c-0.9-1.7-2-2.2-4.7-2.5c-1.9-0.2-4.7-1-6.2-1.7
	c-2-0.9-3-0.9-3.6-0.4s-0.4,0.9,0.7,1.3c0.8,0.2,1.9,1.5,2.4,2.7c0.5,1.3,2.3,3.3,4,4.6c1.7,1.3,3.7,3,4.5,3.7
	c0.8,0.7,3.6,2.8,6.1,4.7c2.5,1.8,4.7,3.7,4.7,4.2c0,0.6,0.9,1.5,2.1,2.2c1.1,0.7,3,2.1,4.2,3.2c1.2,1,3.6,2.3,5.2,2.8
	c5.3,1.6,8.6,4.7,4,3.8c-7.5-1.5-15.4-5.3-24.6-11.9c-1.6-1.1-3.8-2.5-4.8-3.1c-1-0.6-5.3-4.5-9.5-8.7c-4.3-4.3-8.2-7.7-8.9-7.7
	c-0.8,0-3.2-0.6-5.3-1.2c-3-0.9-4.1-0.9-5-0.3c-1.5,1.3-1.3,1.6,1.3,4.1c1.3,1.3,3.8,3.6,5.5,5.1c1.7,1.6,4.7,3.7,6.6,4.7
	c2.4,1.3,3.9,2.7,4.5,4.3c1.1,2.5,11.7,8.5,17.2,9.6c4.7,0.9,2.6,2-3,1.6c-4.5-0.3-6.6-0.9-12.1-3.8c-3.6-1.9-7-3.4-7.4-3.4
	s-3.7-2.8-7.4-6.3c-3.6-3.5-7-6.3-7.4-6.3c-0.9,0-4.7-4.4-5.3-6.2c-0.3-1-1.3-1.3-4.3-1.3c-2.1,0-4.7-0.5-5.9-1.1
	c-1.7-0.9-2.4-0.9-3.9-0.1l-1.9,0.9l3.3,2.8c1.8,1.6,3.3,3.4,3.3,4.1c0,0.7,0.9,1.8,1.9,2.5c1,0.7,3,2.3,4.4,3.6
	c1.3,1.3,3.7,3.3,5.2,4.5c3.1,2.4,6.2,5.3,6.5,6.3c0.6,1.4,10.4,7.6,13.8,8.5c4.7,1.3,5,2.8,0.6,2.8c-4.6,0-10.2-2.4-15-6.3
	c-2.2-1.8-4.5-3.3-5.1-3.3c-2.1,0-18.4-15-22.9-21c-1.8-2.5-2.5-2.8-5.3-2.8c-1.7,0-4-0.3-5-0.7c-1.4-0.6-2.3-0.3-4,0.9l-2.2,1.6
	l2.9,3.9c1.6,2.1,3.9,4.3,5.1,4.7c1.2,0.5,2.9,1.8,3.8,2.8c0.9,1.1,2.8,2.5,4.2,3c1.4,0.6,4,2.4,5.5,4c3.3,3.2,9.2,6.3,13.1,6.6
	c3.2,0.3,3.7,1.7,0.9,2.3c-2.8,0.6-9.6-0.7-12.5-2.5c-1.3-0.8-3-1.5-3.7-1.5c-2,0-7.8-3.6-7.8-4.8c0-0.6-0.6-1.1-1.4-1.1
	s-3.6-1.9-6.2-4.3c-2.6-2.4-5.9-5.3-7.4-6.6c-1.5-1.3-3.2-3.2-4-4.4c-1.1-1.7-1.7-1.9-3.6-1.7c-1.3,0.2-3.6,0-5.2-0.6
	c-2.7-0.8-3.2-0.7-6.1,0.9l-3.2,1.7l3.9,3.6c2.1,2.1,5.8,5.5,8,7.6s5.2,4.5,6.6,5.3c1.4,0.7,4.1,2.8,5.9,4.6c2.9,2.8,8,5.9,12,7.2
	c0.7,0.2,1.3,0.8,1.3,1.3c0,2.9-17.8-4-23.6-9.3c-1.7-1.5-3.3-2.7-3.7-2.7c-0.4,0-2.7-1.8-4.9-4.1c-2.3-2.2-4.6-4.1-5.1-4.1
	c-1.1,0-4.9-3.8-4.9-5c0-3.2-10.4-4.1-14.7-1.3c-1.4,0.9-2.9,1.7-3.3,1.7c-0.4,0-0.1,0.7,0.8,1.7c0.9,0.9,2,2.5,2.5,3.6
	c1.1,2.1,9.5,10,12.7,12.2c1.1,0.7,2,1.7,2,2.2c0,2,7.6,7.3,11.7,8.2c2.8,0.6,3.3,2.6,0.7,2.6c-4,0-13.8-4.7-13.8-6.5
	c0-0.6,0.7-0.5,2.2,0.6c1.2,0.9,2.4,1.4,2.6,1.2c0.9-0.9-4.1-3.7-5.2-2.8c-0.6,0.5-1.5,0.6-2,0.3c-4.6-2.7-17.2-14.7-19.5-18.7
	c-0.8-1.3-1.6-2.4-1.8-2.5c-8.2-0.9-15.6,1.7-12.3,4.5c0.6,0.5,1.1,1.7,1.1,2.7c0,1.1,1.2,2.9,3.3,5c1.8,1.7,3.3,3.5,3.3,3.9
	s1.5,2.2,3.3,4c1.8,1.7,3.3,3.7,3.3,4.3c0,2.4,9.5,12.8,11.7,12.8c0.5,0,0.9,0.5,0.9,1.1c0,4.9-19.1-10-21.1-16.5
	c-0.3-0.9-0.8-1.7-1.1-1.7c-0.3,0-2.3-2.1-4.4-4.8c-2.1-2.7-4.2-4.8-4.7-4.8c-0.6,0-1.7-1.7-2.7-3.6c-2-4.3-5.9-5.5-11.5-3.5
	c-1.7,0.6-4,1.3-5.1,1.5c-2.4,0.5-2.5,1.6-0.6,4.1c0.8,1,1.5,2.4,1.5,2.9c0,0.6,1.3,2.5,3,4.4c1.6,1.7,2.9,3.5,2.9,3.9
	c0,0.4,1.3,2.1,2.9,3.7c1.7,1.8,2.9,3.8,2.9,4.7c0,2.3,7.4,10.9,10.4,12.2c2.8,1.2,2.9,2.2,0.2,2.2c-2.5,0-5.6-1.9-9.5-5.8
	c-1.7-1.7-4.4-4.4-6.1-6.3c-1.7-1.7-3.2-3.6-3.2-4.1c0-0.5-0.6-1.5-1.3-2.3s-2.5-3.2-3.7-5.5c-1.3-2.3-2.8-4.4-3.5-4.8
	c-0.6-0.3-1.7-2.3-2.5-4.3c-1.7-4.4-6.1-5.9-11.2-3.8c-1.4,0.6-3.2,1.3-4,1.5c-0.9,0.3-1.2,0.9-0.9,1.7c0.3,0.7,0.9,3.6,1.5,6.5
	s1.3,6.2,1.8,7.3c0.4,1.1,0.8,2.8,0.8,3.8c0,0.9,1,2.9,2.2,4.5c1.2,1.5,2.2,3.2,2.2,3.6c0,1.1,5.2,6.3,10,9.7
	c1.2,0.9,1.3,1.2,0.5,1.7c-3.2,2.1-15-7.1-17.5-13.7c-0.7-2-1.7-4.1-2.2-4.7s-1.3-3-1.8-5.4c-0.5-2.4-1.2-4.4-1.6-4.7
	c-0.3-0.2-0.9-2.2-1.1-4.4c-0.6-4.5-4.1-6.7-7.7-4.8c-0.8,0.4-2.1,0.8-2.8,0.8c-1,0-1.6,0.6-1.9,2.2c-1.3,6.2-4.7,11.2-9.2,13.1
	c-1.3,0.6-2.4,1.3-2.4,1.7c0,0.4-1.3,1.3-2.8,2c-1.5,0.7-2.9,1.5-3.2,1.7c-1.1,1.3-15.7,6.2-17.6,5.8c-2-0.4-1.7-2.3,0.5-2.6
	c1-0.2,3.6-1.1,5.7-2.1c2.1-1,4.2-1.8,4.5-1.8c0.4,0,1.5-0.9,2.5-2c0.9-1.1,3.3-2.6,5.1-3.4c3.9-1.7,9.7-7,9.2-8.4
	c-0.2-0.6-0.1-2.1,0.3-3.5l0.7-2.5l-3.6-0.4c-4.5-0.6-6.5,0.2-8.9,3.2c-1,1.3-2.5,3.2-3.3,4.1c-1.6,1.8-10.8,5.5-13.8,5.5
	c-1,0-3.3,0.6-5.1,1.2c-5.1,1.8-19.5,2.3-21.1,0.8c-0.6-0.6-1.1-1.3-0.9-1.3c0.2,0,2.8-0.2,5.9-0.3s6.3-0.6,7.2-1
	c0.8-0.5,2.5-0.8,3.7-0.8c1.3,0,2.4-0.3,2.6-0.6s1.8-0.8,3.6-1c7.9-0.9,19.5-9.5,12.8-9.5c-0.6,0-1.2-0.5-1.4-1
	c-0.7-1.7-4.4-0.2-6.3,2.6c-3.2,4.7-19.3,6.8-29.6,3.8c-5.5-1.7-3.4-2.2,9.4-2.5c11.6-0.2,12.7-0.4,14.2-1.8l1.6-1.6l-2.6-0.5
	c-1.4-0.2-3.2-1-3.8-1.7c-0.9-0.9-1.6-1-3.5-0.3c-2.8,0.9-7.8,1-8.3,0.2c-0.2-0.3-2.2-0.7-4.5-0.7c-2.8-0.1-4.5-0.5-5.4-1.4
	c-0.7-0.7-2.5-2.3-4.1-3.5c-2.3-1.8-3.6-4.1-2.4-4.1c0.9,0,7,3.3,7,3.9c0,0.9-0.6,0.7-2.8-0.6c-1.9-1.1-1.9-1.1,0.2,0.7
	c2.3,2,3.8,2.5,2.9,1c-0.4-0.6-0.1-0.7,0.9-0.3c5.5,2.3,8.9,1.3,4.5-1.3c-3.7-2.1-7.9-6.3-7.9-7.7c0-1.3-2.5-1.2-5.4,0.2
	c-1.3,0.6-3.1,1.3-4.1,1.4c-0.9,0.1-2.5,0.9-3.2,1.7c-0.8,0.9-2.1,1.6-2.9,1.6c-0.8,0-2,0.9-2.7,1.8c-0.6,1-1.7,1.8-2.3,1.8
	c-0.6,0-3.3,2.4-6.1,5.2c-2.8,2.8-5.2,5.2-5.6,5.2c-0.3,0-1.6,1-2.8,2.3c-1.2,1.3-2.5,2.1-2.8,1.9c-0.4-0.2-1.4,0.4-2.4,1.4
	c-0.9,1-2.1,1.8-2.5,1.8c-0.4,0-1.6,1-2.7,2.3c-1.7,2.1-2.1,2.2-3.5,1.3c-1.7-1.1-5.9,0.9-5,2.4c0.3,0.5,1.1,0.2,2.1-0.8
	c2.6-2.5,2.8-1.8,0.3,1.8c-1.3,2-2.7,3.2-3.2,3s-1.5,0.5-2.1,1.4c-1.3,2-3,2.4-3.6,0.9c-0.2-0.6-0.4-0.6-0.4,0.2
	c-0.1,1.5-3.3,4.6-5.1,4.7c-0.7,0.1-2.2,0.4-3.4,0.7c-1.1,0.3-2.3,0.4-2.5,0.2c-0.6-0.6,3.6-4.2,5-4.2c0.6,0,2.4-1.3,4-3
	c1.6-1.7,3.6-3.2,4.5-3.4c0.9-0.2,2.1-1.3,2.7-2.2c0.6-0.9,1.2-1.8,1.4-1.8s1.6-1,2.9-2.2c1.3-1.2,2.9-2.2,3.5-2.2s1.7-0.9,2.5-2
	c0.9-1.1,2.8-2.8,4.3-3.8c2.7-1.8,3.8-2.7,7.5-5.9c1.1-0.9,2.9-2.3,4-2.9c1.1-0.7,2.1-1.7,2.1-2.1c0-0.8,1.4-1.9,7.8-5.9
	c1.3-0.8,3-2.1,3.8-2.7c0.7-0.6,2.2-1.4,3.2-1.7c1-0.3,3-1.2,4.4-2c1.4-0.8,3.6-1.3,4.7-1.3h2.1l-1.5-2.1c-2.5-3.4-1.7-7,2.1-10.3
	c0.9-0.8,0.9-1,0.1-1.4c-0.6-0.2-1.7-1.2-2.6-2.1c-0.9-0.9-2.3-2.1-3.2-2.5c-0.9-0.5-1.5-1.3-1.3-1.9c0.2-0.6-0.6-1.7-2.1-2.7
	c-1.3-0.9-2.6-1.8-2.8-2s0.2-0.6,0.7-1c0.9-0.6,0.6-1.1-1.5-2.9c-2.1-1.7-2.4-2.4-1.5-2.9s0.6-1.1-1.3-2.7c-1.9-1.6-2.2-2.2-1.5-3.1
	c0.7-0.9,0.5-1.5-1.3-3.2c-1.7-1.7-1.9-2.4-1.3-3.1c0.7-0.7,0.3-1.3-1.5-2.9c-2.2-1.9-2.3-2.1-1.2-3.1c1.1-0.9,0.9-1.2-2.2-3.2
	c-3.2-2-3.3-2.2-1.7-2.5c1.7-0.2,1.5-0.5-1.7-2.5c-3.5-2.2-3.6-2.2-2.1-3.8c0.8-0.9,1-1.3,0.6-1.1c-0.5,0.2-1.4,0-2.2-0.6
	c-0.8-0.6-2.1-1.1-3-1.1c-2.1,0-2.8-1.3-1.2-2.1c1.1-0.6,0.9-0.9-1.4-2c-1.5-0.7-2.8-1.9-3.1-2.7c-0.2-0.8-1.4-1.7-2.7-2.2
	c-1.3-0.5-2.3-1.3-2.3-1.7c0-0.6-0.5-1.2-1.1-1.4c-2,0.2-1.9-1.2-0.2-1.2c1.8,0,10.4,5.9,14,9.7c5.5,5.8,7.7,8.4,7.7,9.3
	c0,0.5,0.6,1.3,1.3,1.9c1.6,1.2,6.8,9.5,6.8,10.9c0,0.6,0.6,1.8,1.5,2.8c0.8,1,1.5,2.4,1.5,3c0,1.5,3.6,9,4.3,9
	c0.3,0,1.1,1.3,1.7,2.8c1.7,3.8,10,12.8,11.5,12.3c0.9-0.3,0.9-0.6-0.2-1.3c-4-2.9,10.4-5.6,15.6-3c1.2,0.6,3.2,1.1,4.5,1.1
	c1.6,0,3.1,0.7,4.6,2.1c2,2,8.5,3.8,8.5,2.5c0-3.6-9.8-8.5-18.5-9.4c-5.8-0.6-7.4-1.1-5.5-1.7c3.5-1.3,12.1-1.6,14.2-0.5
	c1.2,0.6,3.3,1.3,4.8,1.6c2.8,0.6,8.9,5.9,11.9,10.7c1.1,1.8,1.7,2.1,2.7,1.6c0.7-0.4,2.1-0.5,2.9-0.2c1.8,0.5,1.9,0.5,0.8-2.5
	c-0.5-1.3-2.3-3.5-4.1-5c-1.8-1.5-3.2-2.9-2.9-3.2c0.2-0.3-0.9-1-2.6-1.5c-1.6-0.6-4.6-2.2-6.6-3.7s-5.9-3.7-8.5-4.9
	c-4.4-1.9-6.9-4-3.6-3c0.7,0.2,3.6,0.9,6.5,1.7c2.8,0.7,6.2,1.9,7.4,2.6c1.2,0.7,2.9,1.3,3.7,1.3c1.4,0,6.3,4,6.3,5.2
	c0,0.3,0.9,0.7,2.1,0.9c1.3,0.2,2.7,1.4,3.9,3.4c1,1.7,2.3,3,2.8,3c1.1,0,2.4,3,2.4,5.6c0,2.1,2.6,3.1,5.7,2.1
	c1.8-0.6,2.1-1,1.8-3.5c-0.2-1.5,0.2-3.2,0.6-3.8c0.6-0.8,0.4-1.9-1.1-4.8c-1.5-3-1.7-4.1-1.1-5.3c0.9-1.7-0.6-4.8-2.7-5.6
	c-2-0.8-2,0.4,0,2.2c3.3,3.1,2.1,3.7-1.4,0.8c-1.8-1.5-3.2-2.9-3-3.2c0.2-0.2-0.9-0.9-2.4-1.7c-1.5-0.7-3.8-2.2-5.1-3.4
	c-1.3-1.2-3.9-3.1-5.8-4.2c-3.4-2-4.5-3.6-2.5-3.6c2.5,0,16.4,7.5,17,9.3c0.2,0.6,1,1.1,1.7,1.1c1.7,0,4,2,6,5.3
	c0.9,1.5,2.1,2.8,2.7,3.1c0.6,0.2,1.4,2.4,1.9,4.7s1.2,4.9,1.6,5.6c0.4,0.7,0.7,2.2,0.7,3.4c0,1.9,0.3,2.2,2.7,2.6
	c6,0.9,6.6-1.3,5.1-20.8c-0.4-5.5-0.2-7.2,0.6-8.5c0.6-0.9,1.1-2.2,1.1-2.8c0-3.6,6.5-13.2,8.8-13.2c1.3,0,0.9,1.3-0.9,3.2
	c-3,3.2-5.5,19.3-3.8,24.3c0.9,2.4,0.9,3.2,0,5.2c-0.9,2-0.9,2.5,0,3.4c0.6,0.6,1,2,1,3.1c0,3.6,3,4,7.4,1c2.2-1.5,2.9-2.5,2.9-4
	c0-1.1,0.5-2.6,1.1-3.4c0.6-0.8,1.1-3.1,1.1-5.2c0-2.5,0.4-4.1,1.2-4.7c0.6-0.6,0.9-1.4,0.7-2c-0.2-0.6,0.1-2,0.6-3
	c2.2-4.4,3.4-7.4,4.5-11.2c1.1-4.1,5.1-9.7,7-9.7c1.2,0,1.2,0.2-0.6,3.3c-1.5,2.7-4.4,12.6-4.4,15c0,0.7-0.6,2.3-1.2,3.6
	c-0.6,1.2-1.3,3.8-1.4,5.7c-0.1,1.9-0.5,3.9-0.8,4.4c-0.3,0.5-0.6,2.7-0.7,4.8l-0.2,3.9l4.2,0.4c3.4,0.3,4.4,0.2,5.7-0.9
	c0.8-0.7,2.1-1.5,2.7-1.7c0.7-0.2,1.3-1.7,1.6-3.6c0.2-1.7,1-4,1.8-5.1c0.8-1,2-3.9,2.7-6.2c0.7-2.4,1.7-4.3,2.1-4.3
	c0.4,0,1.5-1.8,2.5-4c0.9-2.2,2.1-4.2,2.6-4.5s0.8-1.3,0.8-2.2c0-2.8,12.3-12.9,13.8-11.3c0.2,0.2-0.8,1.4-2.3,2.7
	c-3,2.6-7.8,11-9.7,16.9c-0.7,2.1-1.7,4.1-2.3,4.4c-0.6,0.2-1,1-1,1.9c0,0.8-0.6,2.7-1.4,4.2c-1.5,2.9-3,7.2-3,8.6
	c0,2.1,6.1,1.7,8.9-0.5c1.4-1.1,3.5-2.3,4.6-2.5c2.1-0.6,2.4-1,3.2-6.1c0.2-1.7,0.8-3.2,1.1-3.2s1-1.7,1.4-4
	c0.5-2.1,1.5-5.1,2.3-6.6s1.4-3.2,1.4-3.8c0-0.6,0.7-1.6,1.6-2.1c0.9-0.6,2.4-2.4,3.5-4c2.6-3.9,3.9-5.1,7.6-6.8
	c3.7-1.8,5.3-1.3,2.6,0.8c-2.3,1.8-7.8,9.9-7.8,11.6c0,0.6-1.2,2.5-2.5,4c-1.4,1.6-2.9,4.3-3.3,6c-0.5,1.7-1.1,3.7-1.4,4.4
	c-0.8,1.4-0.2,8.1,0.8,8.2c3.7,0.3,6.6,0,8.1-1c1-0.6,2.8-1.6,3.9-2.1c1.3-0.6,2.7-2.3,3.9-4.9c1-2.2,3-5.4,4.4-7s2.6-3.5,2.6-4
	c0-0.5,1.6-2.1,3.6-3.7c1.9-1.6,4.4-3.6,5.3-4.5c0.9-0.9,2-1.7,2.2-1.7c2.3-0.3,3.5-0.9,5.1-2.5c2.8-2.7,7.4-4.7,11.6-5.4
	c4.2-0.6,4.2,0.5,0.1,2.2c-1.4,0.6-4,2.5-5.7,4.4c-1.7,1.8-3.9,3.5-4.7,3.7s-2.8,1.7-4.4,3.1c-1.6,1.4-3.3,2.6-3.8,2.6
	c-0.5,0-1.8,1.5-2.8,3.4c-1.1,1.8-2.8,3.7-3.7,4.2c-1.3,0.6-2,1.7-2.4,3.9l-0.6,3l4,0.6c3.5,0.5,4.3,0.3,6.6-1.3
	c1.5-1,3.2-1.8,3.9-1.8c2.1,0,4.2-2.1,5.1-5.1c0.5-1.7,1.2-3,1.6-3c0.4,0,2.2-1.6,4-3.6c3.2-3.5,4.6-4.4,8.5-6.1
	c1-0.4,3.7-1.9,5.9-3.3c6.3-3.8,10.3-5.6,15.2-6.7c6.2-1.3,6.6-0.2,1,2.9c-6.5,3.7-11.8,7.1-14.6,9.3c-1.3,1-2.9,1.9-3.6,2
	c-0.6,0.1-1.4,0.5-1.7,0.9c-0.6,0.9-8.2,6.1-9,6.1c-0.3,0-0.9,0.9-1.3,2.1l-0.7,2.1l3.5,0.2c6.2,0.3,7.1,0.2,11.2-0.9
	c3.2-0.9,4.4-1.6,5.2-3.2c1.3-2.6,7.5-8.6,10.2-10c1.1-0.6,2.7-1.6,3.5-2.3c4.8-4.1,17.7-8.8,24.2-8.8c2.5,0,2.8,1.2,0.5,1.9
	c-3.3,1-13.9,6.4-13.9,7c0,0.9-6.1,4.4-7.6,4.4c-0.6,0-1.7,0.8-2.3,1.7c-0.6,0.9-2.2,2.2-3.6,2.9c-1.6,0.8-2.7,2.1-3.3,3.8l-0.9,2.7
	l2.5,0.5c1.7,0.3,3.6,0,6.2-1.1c2-0.9,4.5-1.6,5.5-1.6c1.2,0,2.2-0.6,2.8-1.7c1.4-2.6,12.4-12.3,13.9-12.3c0.7,0,1.6-0.3,1.8-0.7
	c0.2-0.4,2.4-1.3,4.7-2c2.3-0.6,6-2,8.2-3c4.4-2,14.9-3.4,14-1.9c-0.3,0.5-0.9,0.9-1.5,0.9c-1.3,0-9.8,4.3-14.5,7.3
	c-2.4,1.5-5.1,2.7-6.5,2.7c-1.8,0.1-3.3,0.9-5.8,3.2c-1.8,1.7-3.6,3.2-4.1,3.2s-1.3,1.1-1.8,2.4c-1.3,3.2,1.3,5.2,4.3,3.2
	c0.9-0.6,4.1-1.3,7-1.7c4.5-0.5,5.5-0.8,6.8-2.5c0.8-1,2.3-2.5,3.2-3.1c7.2-4.9,9.1-6,10.5-6c0.9,0,2.8-1,4.4-2.2
	c1.5-1.2,3.3-2.2,4-2.2c0.6,0,2.4-0.9,4-1.9c3.2-2.3,7-3.2,12.3-3.2c4.4,0,5.2,1.2,1.3,1.9c-1.4,0.2-4.6,1.8-7,3.4
	c-2.5,1.6-5.1,2.8-5.9,2.8s-1.9,0.8-2.5,1.7c-0.7,1-2.5,2.1-4.5,2.7c-1.9,0.6-3.4,1.2-3.4,1.5s-1.9,1.7-4.3,3.2
	c-4.3,2.7-7.8,6.6-4.9,5.3c0.8-0.3,4-0.7,7.3-0.9c5.2-0.3,6.3-0.6,9.2-2.8c1.8-1.3,3.8-2.5,4.4-2.5c0.6,0,2.6-1,4.4-2.2
	c1.8-1.2,3.9-2.2,4.7-2.2c0.7,0,2.1-0.6,3.1-1.3c2.7-2.1,6.3-3.8,8.2-3.8c0.9,0,3.3-0.8,5.4-1.7c4-1.9,14.1-3.2,14.8-2.1
	c0.2,0.4-1.1,1.1-3,1.6c-1.9,0.5-5.4,1.8-7.8,3.1c-2.4,1.2-4.8,2.2-5.5,2.2c-0.6,0-1.1,0.3-1.1,0.7c0,0.7-16,8.9-17.4,8.9
	c-0.8,0-4,3.3-4,4.1c0,1.5,14.7-0.3,17.7-2.1c1.7-1.1,4-2.2,4.7-2.4c0.9-0.2,1.7-0.6,2-0.9c0.2-0.3,2.6-1.6,5.2-2.8
	c2.7-1.2,5.8-2.8,6.9-3.6c1.1-0.8,3.3-1.6,4.8-1.7s3.8-0.6,5-1c3.3-1.3,13.1-2.5,15.7-1.9l2.1,0.6l-2.8,0.6
	c-1.5,0.3-6.8,2.5-11.7,4.7c-4.9,2.2-9.3,4.1-9.8,4.1c-0.5,0-1.7,0.5-2.8,0.9c-1,0.6-3.6,1.6-5.8,2.3c-4.1,1.3-9.4,5.8-8.8,7.4
	c1.3,3.3,15.5-0.1,20.6-4.9c2.1-2,8.4-4.9,10.5-4.9c1.2,0,4.2-0.9,6.7-1.9c2.7-1.1,6.5-2,9.1-2.1c2.5-0.2,5.8-0.6,7.3-1.1
	c2.1-0.7,3.6-0.7,6.4,0c4.6,1.1,4.7,1.9,0.2,2.5c-1.9,0.2-5.1,1.1-6.9,2c-1.8,0.9-4.3,1.5-5.3,1.5c-1.1,0-2.2,0.3-2.5,0.7
	c-0.6,0.9-5.7,2.3-8.6,2.4c-1.2,0-2.1,0.3-2.1,0.6c0,0.8-4.7,2.8-7.7,3.4c-1.5,0.2-2.7,0.8-2.7,1c0,0.3-0.9,1.4-1.9,2.5
	c-3.2,3.2-1.9,4,4.7,3.7c3.6-0.2,6.4,0,7.4,0.6c1.3,0.7,2.1,0.6,4.4-0.6c4.3-2.2,16.9-7.5,18-7.5c0.6,0,3-0.8,5.5-1.7
	c11.5-4.5,15-5.1,21-3.6c5.6,1.5,5.9,2.1,0.7,2.6c-2.1,0.2-6.9,1.6-10.6,3c-3.6,1.4-8.6,3.2-11,3.9c-2.4,0.7-4.8,1.8-5.5,2.5
	c-0.6,0.6-3.2,1.8-5.6,2.7c-5.1,1.7-6.6,3.3-5.1,5.6c0.6,0.9,0.8,1.7,0.6,2.1c-0.9,1.4,12.6,0,15.8-1.7c1.8-0.9,3.8-1.5,4.3-1.3
	c0.6,0.2,2.1-0.6,3.5-1.6c1.4-1,3.6-2.1,5-2.4s3.1-0.9,4-1.3c5-2.9,15.1-3.8,24.7-2.1c8.9,1.7,5.3,3.1-7.7,3.1
	c-3.6,0-6.3,0.3-6.6,0.8c-0.6,0.9-6.6,3.6-8.2,3.6c-1.9,0-11.4,4.7-11.4,5.8c0,0.6-0.4,0.9-0.9,0.9c-0.6,0-0.6,0.2,0,1
	c1.5,1.8,11.6,2.2,14.7,0.5c1.5-0.8,2.9-1.3,3.2-1.1c0.3,0.2,2.1-0.4,4.1-1.2c15.3-6.6,27.5-8.1,35.3-4.2c2.3,1.1,1.4,2-1.7,1.5
	c-3.2-0.4-15.7,2.3-18.2,4c-0.8,0.6-2.4,1-3.4,1c-2.1,0-10.7,3-13.2,4.6c-2,1.3-0.6,2.8,2.4,2.8c2.2,0,6,1,9.1,2.4
	c1,0.5,2.6,0.3,4.8-0.5c1.8-0.6,3.9-1.2,4.6-1.2c0.7,0,3.1-0.9,5.4-1.9c2.5-1.2,5.3-1.8,7.3-1.7c1.7,0.1,4.1-0.2,5.2-0.7
	c5.1-2.1,25.4,1.3,26.4,4.3c0.2,0.8-0.2,0.9-2.1,0.4c-5.1-1.3-22.1,0-29.5,2.4c-1.8,0.6-4,1-4.9,1c-0.9,0-2.1,0.5-2.5,1.1
	s-1.6,1.1-2.5,1.1c-2.8,0-0.2,1.6,4.4,2.7c2.4,0.6,6,1.8,8,2.8c3.1,1.5,4.1,1.7,6.6,1.1c1.7-0.4,4-0.6,5.1-0.4
	c1.2,0.2,5,0.1,8.4-0.2c3.6-0.3,7.9-0.2,10.1,0.2c2.1,0.4,6.3,1,9.3,1.4c5.7,0.7,13.5,4,13.5,5.5c0,0.7-0.9,0.7-3.9-0.1
	c-3.3-0.9-21.3-0.9-28-0.2c-0.6,0.1-2.2-0.2-3.6-0.4c-3.9-0.9-2.9,0.8,1.7,2.9c2.3,1.1,5.6,3.2,7.4,4.8c2.4,2.1,4,2.9,5.7,2.9
	c1.3,0,3.6,0.5,5.1,0.9c1.5,0.6,5,1,7.8,1.1c2.8,0.1,5.5,0.4,5.9,0.7c0.4,0.3,2.5,0.6,4.7,0.7c3.9,0.2,7,0.7,13.1,2.2
	c1.7,0.4,7.8,0.9,13.7,1.2c10,0.4,13.6,1.2,12.1,2.7c-1.3,1.3-22.3,1-38.5-0.4c-11.1-1-15.1-0.9-15.6,0.2c-0.3,0.9-0.9,0.6-2.6-0.9
	c-1.3-1.3-2.6-1.9-3.3-1.6c-0.6,0.2-2,0.1-3-0.4c-2.3-1-3.3-0.2-3.5,2.8c-0.2,2,0.1,2.2,3.2,2.9c2,0.4,3.2,1.1,3.1,1.6
	c-0.3,1,2.2,1.7,4.7,1.3c1.8-0.3,2.5,0.7,1,1.6c-1.4,0.9-0.7,1.7,3.3,4.2c2.2,1.3,4.2,3,4.4,3.7c0.2,0.7,1.7,2,3.5,2.8
	c3.1,1.6,6.6,4.9,6.6,6.3c0,0.8,5.5,5.5,6.3,5.5s11.6,10.8,11.6,11.7c0,0.5,0.3,0.9,0.7,0.9c0.7,0,1.9,2.8,1.4,3.3
	C594.7,472.6,593.6,472.2,592.6,471.5L592.6,471.5z M588.8,464.8c-1.1-1.1-1.3-1.1-1.3-0.1c0,0.6,0.4,1.3,0.9,1.5
	C590,466.9,590.2,466.1,588.8,464.8L588.8,464.8z M584.5,461.2c-0.9-1-1.9-1.7-2.1-1.4s0.4,1.1,1.3,1.8
	C586.2,463.7,586.7,463.5,584.5,461.2L584.5,461.2z M579.8,457.2c-1.4-1.6-2.6-1.9-2.6-0.9c0,0.3,0.7,1,1.7,1.4
	C581.2,458.9,581.3,458.9,579.8,457.2L579.8,457.2z M575.7,454.3c0-0.9-1.4-1.8-2-1.3c-0.6,0.6,0.4,2,1.3,2
	C575.4,455,575.7,454.7,575.7,454.3L575.7,454.3z M171.6,451.8c-1.2-0.9-2.8-2.5-3.8-3.6c-0.9-1-1.7-1.5-1.7-1c0,1,5.6,6.2,6.7,6.2
	C173.5,453.5,172.8,452.7,171.6,451.8z M572.6,450.1c-0.2-1.3-7.8-6-8.5-5.4c-0.7,0.7,0.6,2.5,4,5.1
	C571.6,452.5,573.1,452.6,572.6,450.1L572.6,450.1z M197.7,446.2c-0.4-0.3-1.7-1.7-2.8-3c-1.1-1.3-2.1-2.1-2.1-1.7
	c0,1.1,4.6,6.2,5.1,5.6C198.2,446.9,198.1,446.5,197.7,446.2L197.7,446.2z M165.1,445c0.5-1.3-3.3-7.3-4.2-6.7
	c-0.3,0.2-0.2,1.4,0.4,2.8c0.6,1.3,1.2,2.9,1.4,3.7C163.2,446.3,164.6,446.4,165.1,445L165.1,445z M536,443.3
	c-0.9-1.3-6.3-3.5-6.3-2.5c0,1.3,5.5,5.2,6.3,4.4C536.4,444.8,536.4,444.2,536,443.3L536,443.3z M562.3,444.2c0-0.2,0.2-0.8,0.4-1.4
	c0.5-1.2-8.3-6.3-9.2-5.3c-0.6,0.6,6.6,7,7.8,7C561.9,444.5,562.3,444.5,562.3,444.2L562.3,444.2z M117,441.5
	c1.7-0.7,3.2-1.5,3.2-1.7c0-0.5-2,0.3-6.6,2.5C109.6,444.1,112.4,443.5,117,441.5L117,441.5z M221.4,439.7c-2.1-2.7-2.5-3.1-2.5-2
	c0,0.6,3.6,4.6,4.2,4.6C223.2,442.3,222.5,441.1,221.4,439.7L221.4,439.7z M493.7,439.4c-2.1-2.2-3.3-2.8-3.3-1.6
	c0,0.6,4.3,3.7,5.1,3.8C495.7,441.6,494.9,440.6,493.7,439.4L493.7,439.4z M511.9,440.1c0-0.9-0.7-1.8-1.7-2.2
	c-0.9-0.4-2.5-1.3-3.6-2.1l-1.8-1.3l1.3,2.2C508.9,441.1,511.9,442.9,511.9,440.1L511.9,440.1z M15.4,438.1c0.2-0.6-0.2-0.7-0.9-0.4
	c-0.6,0.2-1.2,0.8-1.2,1.2C13.4,439.7,15,439.2,15.4,438.1z M192.4,438.9c0.2-0.2-0.6-2-1.8-3.8c-2.9-4.2-4.6-3.3-2.5,1.3
	C189.3,439.2,191.1,440.2,192.4,438.9z M126,437.5c4.3-2.1,4.1-4-0.2-2.5c-2.8,0.9-3.7,1.8-3,3C123.4,438.8,123.3,438.8,126,437.5
	L126,437.5z M488.9,436.4c0-1.8-0.4-2.3-2.1-2.7c-1.1-0.2-2.8-1-3.9-1.7c-2.3-1.4-1.3,0.1,2.8,4.2
	C488.6,439.2,488.9,439.2,488.9,436.4L488.9,436.4z M551.9,435.6c-0.2-0.9-1.3-2.1-2.8-2.9c-1.4-0.7-2.8-1.7-3.3-2.1
	c-1.1-1.1-2.5-0.9-2.9,0.3c-0.3,0.7,0.4,1.5,2.1,2.3c1.3,0.6,3.1,1.8,3.8,2.6C550.4,437.7,552.1,437.6,551.9,435.6L551.9,435.6z
	 M161.3,435.8c0.5-0.8-1.8-6.8-2.6-6.8c-0.6,0-0.2,4.2,0.5,6.5C159.5,436.6,160.7,436.7,161.3,435.8L161.3,435.8z M470.4,436.1
	c0-0.6-4.8-4.8-5.5-4.8c-0.4,0,0.4,1.2,1.8,2.5C469,436.1,470.4,437,470.4,436.1L470.4,436.1z M217.8,435c0.2-0.4-0.9-2.1-2.5-3.9
	c-2.6-2.8-3-2.9-3-1.6C212.2,432.4,216.7,436.8,217.8,435L217.8,435z M503.7,433.9c0-0.9-5.2-5.6-6.3-5.6c-0.6,0,1.5,3.5,3.6,5.7
	C502.5,435.7,503.7,435.6,503.7,433.9L503.7,433.9z M94.6,432.7c0.6-0.9-1.7-0.9-3.7,0c-1.3,0.6-1.1,0.6,0.9,0.7
	C93.1,433.4,94.3,433.1,94.6,432.7z M136.5,429.7c0.7-1.3,0.3-2.2-1.1-2.2c-1.2,0-4.3,4.4-3.7,5.2
	C132.2,433.6,135.6,431.6,136.5,429.7L136.5,429.7z M520.4,432.6c0.6-1-2.5-4-4.8-4.7c-1.7-0.6-1.7-0.4,0.6,2.5
	C518.8,433.5,519.7,434,520.4,432.6L520.4,432.6z M101.8,431.3c2.3-1,2.8-1.5,1.6-1.5c-2.2,0-5.5,1.3-5.5,2.2
	C98,432.9,98,432.9,101.8,431.3z M538.2,431.9c3.2-1.2,5.5-5.8,3.6-7.1c-1.1-0.9-1.1-0.9,0.4-0.9c5,0,0.9-3.3-8.4-6.6
	c-9.3-3.4-10.1-3.7-7-3.2c1.4,0.2,5.4,1.5,8.9,2.8c5.8,2.3,6.1,2.3,4.1,0.7c-1.2-0.9-4-2.5-6.3-3.4c-4.7-1.9-6.6-3.2-2.9-2.1
	c1.4,0.4,3.2,0.9,4,1.2c0.8,0.2,2.9,1.4,4.7,2.7c3.4,2.4,5,2.2,2.7-0.3c-1.5-1.7-8.5-5.4-13.1-7c-3.5-1.2-7.3,3.4-8.3,10.1
	c-0.2,1.3-0.6,3.8-0.9,5.5l-0.5,3l5,2.1C531.9,432.7,534.7,433.2,538.2,431.9L538.2,431.9z M536.3,429.7c-1.7-1.4-1.7-1.5-0.2-0.7
	c0.9,0.4,1.8,1.1,2.1,1.5C539,431.6,538.2,431.3,536.3,429.7L536.3,429.7z M537.1,426.4c-1.1-0.6-1.4-1-0.7-1c0.6,0,2,0.5,2.9,1
	c1.1,0.6,1.4,1,0.7,1C539.4,427.5,538.2,427,537.1,426.4z M536,422c-2.1-0.9-3.5-1.8-3.2-1.8c0.7-0.1,7.4,2.9,7.4,3.3
	C540.1,424,540.1,424,536,422L536,422z M186.4,430.8c0.2-0.2-0.7-1.9-2.2-3.7c-3.2-4-3.8-3.7-1.6,0.8
	C184.2,431,185.3,431.9,186.4,430.8L186.4,430.8z M463.5,430c0.2-0.7,0.1-1.3-0.4-1.5s-2.1-1.1-3.5-2.1c-4.2-2.8-4.7-1.9-1,2.2
	C461.1,431.5,462.7,431.9,463.5,430L463.5,430z M26.3,429.4c0.2-0.7,0.1-0.9-0.6-0.6c-0.6,0.2-1.1,0.7-1.1,1.1
	C24.5,430.9,25.8,430.5,26.3,429.4z M112.7,428.3c2.3-1.3,2-2.5-0.5-2c-2.5,0.6-5.4,2.4-5.4,3.3
	C106.8,430.5,110.2,429.7,112.7,428.3L112.7,428.3z M423.7,427.9c-2.1-1.4-4.1-2.5-4.3-2.3c-0.6,0.6,5.8,5,7.1,5
	C427.1,430.5,425.9,429.3,423.7,427.9L423.7,427.9z M481,429.8c0.4-0.6-5.4-5.7-5.9-5.1c-0.2,0.2,0.6,1.5,1.6,3
	C478.5,430.4,480.2,431.2,481,429.8z M238.3,425.2c-1.9-1.7-2.7-2.1-3.3-1.3c-0.6,0.6-0.2,1.4,1.7,3.1c1.9,1.7,2.7,2.1,3.3,1.3
	C240.6,427.6,240.2,426.8,238.3,425.2z M273.1,426.7c-2.5-2.2-4.3-2.9-3.3-1.4c0.5,0.8,4.8,3.6,5.5,3.6
	C275.5,429,274.5,427.9,273.1,426.7z M321.6,424.8c-3.2-2.3-5.9-4-6-3.8c-0.5,0.5,5.5,5.2,8.3,6.6C328,429.8,327.4,429,321.6,424.8
	L321.6,424.8z M207.9,422.1c-1.7-1.7-3.2-2.8-3.5-2.5c-0.6,0.6,3,6.3,4.7,7.2C211.7,428.2,210.9,425.2,207.9,422.1z M496.7,426.7
	c0.6-0.9-3.6-5.2-5.1-5.2c-1.7,0-1.4,1.5,0.8,3.9C494.5,427.6,495.9,428,496.7,426.7L496.7,426.7z M158.3,424.4
	c0.4-2.7-0.8-5.9-2-5.5c-1,0.3-1,6.6-0.1,7.4C157.5,427.1,157.9,426.8,158.3,424.4L158.3,424.4z M594.3,426c-1.3-0.9-4-1-3.4-0.2
	c0.2,0.3,1.3,0.6,2.5,0.7C594.9,426.7,595.1,426.6,594.3,426z M600.7,425.8c0.3-0.3-0.6-0.5-1.9-0.5c-1.3,0-2.2,0.3-2,0.6
	C597.2,426.6,599.9,426.6,600.7,425.8z M33.4,423.6c0.6-0.2,0.3-0.4-0.7-0.3c-1.2,0.1-1.9,0.7-2.1,1.7c-0.2,1.3-0.1,1.3,0.7,0.3
	C31.9,424.6,32.8,423.8,33.4,423.6z M119.2,424c2.7-3.6,2.7-3.9,0.8-3.9c-2.1,0-4.6,3.2-4,4.9C116.6,426.5,117.5,426.3,119.2,424
	L119.2,424z M138.7,424.6c1.3-2.5,0.9-5.2-0.7-5.2c-1,0-1.6,0.7-1.9,2.5C135.4,425.8,137.1,427.5,138.7,424.6L138.7,424.6z
	 M513,425.3c2.1,0,2.3-0.2,4.7-7.9l2.5-7.9l-1.7-1.3c-0.9-0.7-3.8-2.1-6.3-3c-2.5-0.9-4.4-1.8-4.3-2c0.4-0.4,10.6,3.4,11.9,4.5
	c0.6,0.4,1,0.4,1.3-0.1c0.6-0.9-7-4.5-13.1-6.3c-4.7-1.3-6.8-0.8-7.6,2.1c-0.2,0.9-1.1,2.4-1.9,3.3c-0.8,0.9-1.5,2.3-1.5,2.9
	c0,0.6-0.5,2.1-1,3.2c-2.1,4-1.8,8.2,0.7,9.4c3.6,1.7,11,3.7,12.6,3.3C510.2,425.5,511.8,425.3,513,425.3L513,425.3z M503.7,406.4
	c-3.5-1.3-2-1.3,2.2,0c1.8,0.6,2.7,1,1.8,1C507,407.4,505.2,406.9,503.7,406.4L503.7,406.4z M518.5,422c0-2.6-1.3-1.7-1.5,1.1
	c-0.2,2.8,0,3.4,0.8,2.2C518.2,424.7,518.5,423.2,518.5,422z M580.5,425.6c2.8-1.1,1-2.4-4.1-2.8c-7.6-0.7-8.3,0.5-1.3,2.1
	c2.1,0.6,4,1,4.1,1C579.3,425.9,579.8,425.8,580.5,425.6L580.5,425.6z M99.1,423.7c0.4-0.4-0.1-0.6-1.3-0.6c-2.4,0-4.3,0.7-4.3,1.6
	C93.5,425.4,98,424.6,99.1,423.7L99.1,423.7z M267.4,422.5c-1.2-1.9-6.7-5.1-7.4-4.4c-0.6,0.6,2.1,3.8,4.6,5.5
	C267,425.3,268.7,424.6,267.4,422.5L267.4,422.5z M89.3,424.1c-0.9-0.2-2.5-0.2-3.3,0c-0.9,0.2-0.2,0.3,1.7,0.3
	C89.4,424.4,90.2,424.2,89.3,424.1z M299.4,423.7c-0.8-0.5-2.2-1.5-3.2-2.3c-1.4-1.3-1.7-1.3-1.7-0.3c0,1.3,3.2,3.4,5.2,3.4
	C300.5,424.5,300.4,424.2,299.4,423.7L299.4,423.7z M454.8,422.8c0-0.5-1.3-2.2-2.9-3.8c-3.7-3.6-4.3-1.5-0.7,2.8
	C453.3,424.4,454.8,424.8,454.8,422.8L454.8,422.8z M568.3,423c0-1.1-1.7-1.7-6-1.9c-4.7-0.3-5.8,0.6-1.9,1.9
	C564.9,424.4,568.3,424.4,568.3,423L568.3,423z M414.3,419.2c-1.8-1.8-3.4-2.8-4-2.5c-0.6,0.4,0.2,1.6,2.3,3.8c2.1,2.1,3.5,3,4,2.5
	C417,422.5,416.2,421.2,414.3,419.2L414.3,419.2z M437.8,422.8c0-1.4-5.1-5.2-6-4.4c-0.8,0.8,3.4,5.5,4.9,5.5
	C437.3,423.8,437.8,423.3,437.8,422.8L437.8,422.8z M232.3,420.3c-0.8-1.4-4.6-4.6-5.5-4.6c-1.5,0,0,3.2,2.3,5.1
	C232,423.2,233.8,422.9,232.3,420.3L232.3,420.3z M471.8,418.8c-2.3-2.4-5.1-3.3-5.1-1.7c0,1.8,5.2,6.1,6.4,5.1
	C474,421.4,473.8,421,471.8,418.8z M105.5,419.1c0.7-1.3,0.6-1.3-1.5,0.2c-1.3,0.9-2.1,2-1.8,2.3
	C102.6,422.5,104.5,421.1,105.5,419.1L105.5,419.1z M179.9,421.6c0.6-0.9-1.3-4.6-2.8-5.9c-1.8-1.5-2.3,0.5-0.8,3.6
	C177.6,422.2,179,423.1,179.9,421.6L179.9,421.6z M380.1,419.3c-3.5-3.2-3.9-3.4-3.9-1.9c0,0.6,1.4,1.9,3.2,2.9
	C383.6,422.9,383.7,422.8,380.1,419.3L380.1,419.3z M554.9,421.3c0-1.3-1.2-1.7-5.9-2.4c-5.5-0.7-4.4,1.5,1.3,2.5
	c2.3,0.4,4.3,0.8,4.4,0.8C554.9,422.3,554.9,421.8,554.9,421.3L554.9,421.3z M37.7,420c0.9-1.4,0.9-1.5-0.6-0.7
	c-0.9,0.5-1.5,1.1-1.5,1.5C35.7,422.1,36.7,421.7,37.7,420L37.7,420z M362.1,420c-2.6-2.1-4.4-3.1-4.4-2.4c0,0.7,4.5,4,5.5,3.9
	C363.6,421.5,363.1,420.9,362.1,420z M292.3,419.3c0-2.1-6.4-5.3-7.4-3.7c-0.8,1.3,0.2,2.5,2.8,4C290.7,421.2,292.3,421,292.3,419.3
	L292.3,419.3z M342.1,420.5c0-0.2-1.1-0.9-2.4-1.6c-1.3-0.6-3.2-1.9-4.1-2.8c-1.3-1.2-1.7-1.3-1.7-0.5c0,0.6,1.7,2,3.9,3.1
	C342.2,421,342.1,421,342.1,420.5z M314.6,418.7c0-1-6.6-5.3-7-4.6c-0.8,1.2,0.9,3.5,3.5,4.7C313.4,419.9,314.6,419.9,314.6,418.7
	L314.6,418.7z M396.9,418.3c0-1.1-6.6-6.6-7.2-6c-0.9,0.9,0.9,3.6,3.4,5.3C396.2,419.6,396.9,419.8,396.9,418.3L396.9,418.3z
	 M492,418.3c0.1-0.6,0.2-1.3,0.2-1.7s0.4-2.2,0.7-4.3c0.3-2.1,1.3-4.9,2-6.5c2.5-4.7,1.3-5.8-9.7-8.7c-1.7-0.5-3.1-0.9-2.9-1.1
	c0.4-0.4,8.2,1.5,11.3,2.8c1.6,0.6,3.2,1.2,3.7,1.2c1.1,0-2.5-2.8-4.4-3.4c-0.8-0.2-2.9-1.1-4.7-1.9c-7.1-3.2-9-2.4-11.3,4.9
	c-0.6,1.7-1.2,3.3-1.5,3.7c-0.3,0.4-0.8,1.4-0.9,2.2c-0.2,0.8-0.3,0.4-0.2-0.9c0.2-2.8-0.6-3.2-1.3-0.7c-0.7,2.8-0.5,7.2,0.2,5.4
	c0.5-1.2,0.6-0.9,0.7,1.5c0,1.7,0.3,3.3,0.6,3.8C476.7,417.7,491.8,420.8,492,418.3L492,418.3z M485.9,415.1c-1-0.2-2.2-0.6-2.6-1
	c-0.7-0.7,2.5-0.2,6.3,0.9l1.8,0.6h-1.8C488.6,415.4,487,415.3,485.9,415.1L485.9,415.1z M490.5,401.6c-1.5-0.5-1.6-0.6-0.4-0.6
	c0.8,0,2,0.2,2.6,0.6C493.9,402.4,493.1,402.4,490.5,401.6L490.5,401.6z M204.1,416.5c0-1-3-3.8-4.1-3.8c-1.3,0-1.3,1,0.1,3.7
	C201.1,418.5,204.1,418.6,204.1,416.5L204.1,416.5z M258.9,416.5c0-1.3-2.4-3.9-5-5.2c-4.4-2.3-4.3,0.3,0.2,4.3
	C257.7,418.6,259,418.8,258.9,416.5z M428.1,414c-3.6-3.2-4.9-2.6-1.9,0.9c1,1.3,1.9,2.6,1.9,3c0,0.4,0.7,0.3,1.7-0.2
	C431.3,416.9,431.3,416.9,428.1,414L428.1,414z M43,416.3c0.9-1.3,0.8-1.5-0.4-1.3c-0.7,0.2-1.4,0.9-1.6,1.6
	C40.7,418.4,41.8,418.2,43,416.3L43,416.3z M127.2,416.3c0.4-0.3,0.2-2-0.2-4c-0.6-1.8-1-6.2-1.1-9.7c-0.2-7.3-0.1-7.2-4.1-7.2
	c-1.7,0-2.8-0.2-2.6-0.5c0.2-0.2,2.1-0.5,4.3-0.5c2.5,0,3.9-0.3,4.1-1c0.2-0.8-0.5-0.9-3.8-0.7c-2.3,0.2-4.2,0.1-4.2-0.2
	s2-0.6,4.4-0.6c3.5,0,4.4-0.2,4.4-1.1c0-0.8-0.8-1.1-2.9-1.1c-1.7,0-2.9-0.3-2.9-0.6c0-0.3,1.4-0.5,3.2-0.3c2.3,0.3,2.9,0.2,2.4-0.4
	c-3-3.2-9.3-1-9.3,3.2c0,0.4-1.2,2.5-2.6,4.4c-3,4.2-3.1,4.7-1.2,10.4c1.1,3.2,1.3,4.9,0.7,7.2c-0.4,1.7-0.5,3.2-0.2,3.6
	C115.9,417.9,126.3,417.2,127.2,416.3L127.2,416.3z M121.1,412.9c0.7-0.2,1.7-0.2,2.2,0c0.5,0.2-0.1,0.4-1.3,0.3
	S120.4,413.1,121.1,412.9L121.1,412.9z M121.9,410.7c0.7-0.2,1.9-0.2,2.6,0c0.7,0.2,0.2,0.3-1.3,0.3
	C121.8,411,121.2,410.8,121.9,410.7L121.9,410.7z M117.7,398.6c0.2-0.4,1.4-0.7,2.6-0.7c1.2,0,2.2,0.3,2.2,0.7s-1.2,0.7-2.6,0.7
	C118.2,399.3,117.4,399,117.7,398.6z M142.2,416.1l2.3-0.7l-0.6-3.8c-0.3-2.1-0.7-6.6-0.8-9.9c-0.2-6.5-0.3-6.7-4.8-6.2
	c-0.5,0.1-0.9-0.2-0.9-0.7c0-0.6,1-0.8,2.8-0.6c2.7,0.2,2.8,0.2,4.4-3.2c1.6-3.5,1.6-3.6,0.1-3.6c-0.8,0-1.3,0.3-1,0.7
	c0.3,0.5-0.6,0.6-2.2,0.6c-1.4-0.1-2.6-0.4-2.6-0.7s-0.9,0-2.1,0.6c-1.1,0.6-2.5,1-2.8,1.1c-3.6,0-6.4,15.4-4.5,24.7l0.6,2.8l5-0.2
	C137.6,416.9,140.9,416.5,142.2,416.1L142.2,416.1z M133,412.2c0.7-0.2,1.9-0.2,2.6,0c0.7,0.2,0.2,0.3-1.3,0.3
	S132.3,412.3,133,412.2L133,412.2z M134.6,398c0.2-0.3,1.5-0.6,2.8-0.7c2.2-0.1,2.3-0.1,0.6,0.5C135.6,398.7,134.2,398.7,134.6,398
	L134.6,398z M132.9,395.7c0-0.8,3.1-1.8,3.6-1.2c0.5,0.5,0,0.8-2,1.4C133.6,396.2,132.9,396.1,132.9,395.7L132.9,395.7z
	 M132.9,392.7c0-1.5,6.6-2.6,9.3-1.5c1,0.5,0.4,0.6-2.5,0.6c-2.1,0-4.6,0.4-5.4,0.8C133.4,393.2,132.9,393.2,132.9,392.7
	L132.9,392.7z M356.7,415.4c0.2-1.3-6.2-6.1-7.3-5.4c-1.5,0.9-0.6,2.5,2.5,4.7C355.2,417.2,356.4,417.3,356.7,415.4L356.7,415.4z
	 M110.1,415.9c4.2-0.7,4.8-4.7,1.9-11.9c-0.8-1.9-0.8-2.8,0.2-5.8c1.3-3.9,1.2-4-3.7-4.9l-3.5-0.6l3.2-0.1c1.7-0.1,3.8,0.2,4.6,0.6
	c0.9,0.6,1.6,0.5,1.9-0.1c0.7-1.1-0.8-2-5.6-3c-2.2-0.5-3.5-1-2.8-1.2s3.2,0.3,5.4,0.9c3.8,1.2,8.2,0.5,4.7-0.8
	c-12.3-4.5-17.6-3.5-15.5,3.1c0.9,2.7,0.6,6.6-0.6,9.9c-0.4,1-0.7,2.1-0.6,2.3s-0.3,0.9-0.8,1.6C92.6,413.8,97.4,418,110.1,415.9
	L110.1,415.9z M104.7,410.6c0-0.3,1-0.5,2.2-0.3s2.2,0.5,2.2,0.6s-1,0.3-2.2,0.3S104.7,410.9,104.7,410.6z M107.2,394.9
	c-0.2-0.4,0.2-0.7,1-0.7s1.7,0.3,2,0.7c0.2,0.4-0.2,0.7-1,0.7C108.4,395.6,107.5,395.2,107.2,394.9z M159.6,415.2
	c4.6-1.5,4.5-1.3,2.8-6.3c-0.8-2.2-1.8-6.8-2.2-10.2l-0.8-6.1L156,393c-1.9,0.2-4.4,0.7-5.5,1c-1.6,0.5-2,0.4-1.8-0.2
	c0.3-1,3.3-1.8,7.8-1.9c2.5-0.1,3.2-0.4,3.2-1.4c0-0.7,0.2-2,0.4-2.8c0.5-1.7-3.4-1.6-7.4,0.1c-1,0.4-1.3,0.3-0.9-0.2
	c0.3-0.6,0.2-0.7-0.5-0.5c-0.6,0.2-1.4,1.1-2,2.1c-0.9,1.4-0.9,1.6,0.1,0.7c0.6-0.5,3.1-1.1,5.5-1.3l4.4-0.3l-3.3,0.8
	c-1.8,0.4-4,1-4.8,1.3c-0.8,0.3-1.7,0.6-2.1,0.5c-2.5-0.3-3.6,12.3-1.7,19c0.6,2.3,1.2,4.4,1.1,4.7c-0.1,0.3-0.1,0.9,0,1.1
	C148.5,416.9,155.9,416.4,159.6,415.2L159.6,415.2z M151.5,410.2c0.2-0.2,2.6-0.5,5.5-0.7c4-0.3,4.5-0.2,2.2,0.2
	C156.2,410.4,150.9,410.7,151.5,410.2z M151.5,396.1c0.9-0.8,5.9-1.2,5.9-0.5c0,0.4-1.4,0.8-3.1,0.8
	C152.6,396.4,151.3,396.2,151.5,396.1L151.5,396.1z M88.5,414.7c-0.7-0.7-1.1-0.7-1.7,0c-0.7,0.7-0.5,0.9,0.9,0.9
	C88.9,415.6,89.2,415.4,88.5,414.7z M409.1,415.1c0.3-0.3-0.4-1.3-1.6-2.4c-1.1-1-2.6-2.7-3.2-3.7c-0.7-1.1-1.5-1.6-2.1-1.3
	c-0.7,0.4-0.6,1,0.3,2.5C405.4,414.8,407.7,416.5,409.1,415.1z M448.4,413.1c-1.3-2.3-2.9-3.4-4.9-3.4c-2.1,0-2.1,0.1-1,1.3
	c0.7,0.7,1.3,1.7,1.3,2.1s0.4,1.1,0.9,1.6C445.6,415.7,449.1,414.3,448.4,413.1L448.4,413.1z M81.3,414.2c-0.8-0.3-2.5-0.6-3.7-0.6
	c-1.9,0-2,0.1-0.7,0.6c0.8,0.3,2.5,0.6,3.7,0.6C82.5,414.8,82.5,414.7,81.3,414.2z M145.9,409.7c-0.6-2.2-1.1-3.2-1.1-2.3
	c-0.1,2.1,1.7,8.1,2,7C146.9,414,146.5,411.9,145.9,409.7z M226.2,413.7c0.6-1.7-3.7-5.5-5.5-5l-1.7,0.5l2.1,2.8
	C222.9,414.9,225.4,415.7,226.2,413.7L226.2,413.7z M283.4,413.8c0-1.2-5.7-5.6-7.2-5.6c-2.1,0-0.7,2.3,2.8,4.8
	C281.9,415.1,283.4,415.3,283.4,413.8L283.4,413.8z M332.8,414c0.3-0.5-0.2-1.4-1.3-2.3c-0.9-0.8-2.4-1.9-3.1-2.5
	c-3.3-2.8-4.4,0.5-1.1,3.4C329.9,415,332,415.5,332.8,414L332.8,414z M375,414.2c0.9-1.5-4.7-5.7-5.9-4.4c-1.1,1.1-1,1.3,0.9,3.1
	C371.9,414.9,374.2,415.5,375,414.2z M305.9,413.1c0.5-1.2-6.6-7.8-8.2-7.8c-1.5,0-1.2,0.6,2.8,4.8
	C304.7,414.4,305.3,414.8,305.9,413.1L305.9,413.1z M469.4,413.6c0.5-0.3,1.2-2.8,1.6-5.5s1.7-6.9,3-9.4l2.3-4.5l-3.5-1.7
	c-1.9-0.9-5.5-2.3-7.9-3c-2.5-0.7-3.7-1.3-2.8-1.3c2.1-0.1,8.9,2.1,11.9,3.8c2,1.1,2.5,1.1,3.2,0.3c0.9-1.2,0.6-1.5-4.8-3.9
	c-2.1-0.9-3.2-1.7-2.5-1.7s2.8,0.6,4.7,1.5c3.3,1.4,5.2,1.4,3.7,0c-2.4-2.2-8.6-4.6-11.6-4.4l-3.2,0.2l2.6,1.2l2.6,1.2l-3.7-0.4
	c-4.7-0.5-5.3,0.1-8.5,7.6c-5.9,14.1-4.5,17.8,7,19.6C468.5,414.2,468.5,414.2,469.4,413.6L469.4,413.6z M463.2,407.4
	c-2.4-0.9-2.1-1.5,0.4-0.7c4.2,1.3,4.3,1.4,2.8,1.4C465.5,408.1,464.1,407.8,463.2,407.4L463.2,407.4z M457.1,406
	c-1.5-0.5-1.6-0.6-0.4-0.6c0.8,0,2.1,0.2,2.9,0.6C461.5,406.8,459.6,406.8,457.1,406L457.1,406z M466.3,405.6
	c-0.4-0.2-2.2-0.6-4-1.1c-1.7-0.5-3.1-0.9-2.8-1.2c0.5-0.5,7.4,1.3,8.3,2.1C468.5,406,467.7,406.1,466.3,405.6L466.3,405.6z
	 M464.4,392.6c-2.5-0.6-2.5-0.6-0.4-0.6c1.2-0.1,2.7,0.2,3.3,0.6C468.7,393.4,468.2,393.4,464.4,392.6L464.4,392.6z M183.5,411.8
	c2.5-0.9,2.5-0.8,0.2-4.6c-1-1.7-2-4.3-2.1-5.7s-0.7-4.7-1.2-7.4s-0.6-6.2-0.4-7.8l0.5-3.1l-4,0.3c-12.7,1-14.7,3.4-13.2,14.7
	c1.2,8.7,3.1,13.9,5.3,14.6C171,413.4,181,412.8,183.5,411.8L183.5,411.8z M170.1,409.2c0.7-0.2,1.7-0.2,2.2,0
	c0.5,0.2-0.1,0.4-1.3,0.3C169.8,409.6,169.4,409.4,170.1,409.2L170.1,409.2z M174.6,408.5c0.7-0.2,1.7-0.2,2.2,0
	c0.5,0.2-0.1,0.4-1.3,0.3C174.2,408.7,173.9,408.6,174.6,408.5L174.6,408.5z M164.8,389.1c0-0.9,4-2.1,10-2.7
	c6.1-0.6,4.5,0.5-2.1,1.5c-2.9,0.5-5.9,1.1-6.6,1.3C165.3,389.6,164.8,389.6,164.8,389.1L164.8,389.1z M92.3,412.3
	c0.6-0.2,1.2-0.7,1.2-1s1.2-2.5,2.6-4.9c2.9-4.8,2.9-5.6,0.3-6.3c-1.6-0.5-1.6-0.5,0.6-0.6c2.9-0.1,3.5-2.3,0.6-2.3
	c-1,0-1.8-0.4-1.8-0.8c0-0.5,0.7-0.6,1.8-0.4c1.3,0.3,1.8,0.2,1.8-0.6c0-0.6-0.6-1.1-1.3-1.1s-1.8-0.4-2.4-0.8
	c-0.9-0.6-0.5-0.7,1.5-0.4c2.5,0.4,2.5,0.3,1.2-0.7c-0.8-0.6-2.1-1.1-2.8-1.1s-1.5-0.2-1.7-0.6c-0.2-0.3,0.7-0.5,2-0.2
	c3.8,0.6,1.7-0.8-3-1.8l-4.3-0.9l4.8,0.3c3.7,0.2,4.5,0.2,3.5-0.5c-0.9-0.5-4.4-0.7-9.1-0.6c-4.8,0.2-7.4,0-7-0.4
	c0.9-0.9,13-1,15.7-0.2c2.8,0.8,2.6-0.6-0.3-1.6c-3.6-1.3-12.3-0.9-18.4,0.7c-5.3,1.4-8.3,2.9-5.9,2.9c0.7,0,0.4,0.6-0.8,1.5
	l-1.9,1.4l2.2-0.4l2.2-0.4l-1.7,1.3c-2.1,1.5-2.2,4-0.2,4.5c0.8,0.2,1.5,0.7,1.5,1c0,0.4,0.6,0.6,1.5,0.6c0.9,0,1.5,0.3,1.5,0.7
	s-0.5,0.7-1.1,0.7c-4.5,0,1.1,6.7,8.9,10.7C89.6,412.7,90.4,413,92.3,412.3L92.3,412.3z M90.9,408.2c-1.5-0.6-1.5-0.6,0-0.7
	c0.8,0,2,0.3,2.6,0.7C95,409.2,93.1,409.2,90.9,408.2z M82.6,403.2c-1.7-0.7-3.4-1.5-3.7-1.9c-0.8-0.8,5.8,1.7,6.7,2.6
	C86.6,404.7,86.3,404.7,82.6,403.2L82.6,403.2z M76.3,392.9c-1.8-0.5-0.9-1.7,1.3-1.7c2.1,0,3.1,1.2,1.4,1.7
	c-0.6,0.2-1.2,0.4-1.3,0.4C77.6,393.3,77,393,76.3,392.9L76.3,392.9z M73.5,388.9c0-0.4,1.2-0.7,2.6-0.7s2.6,0.3,2.6,0.7
	s-1.2,0.7-2.6,0.7C74.7,389.7,73.5,389.3,73.5,388.9z M388.1,410.8c0-1.5-5.4-6.3-7.1-6.3c-1.2,0,0.1,2.2,2.8,5
	C387.3,413.1,388.1,413.4,388.1,410.8L388.1,410.8z M202.2,410.2c5.8-0.8,4.8-5.9-1-5.3c-3,0.3-3.1,0.2-0.9-0.3
	c3.3-0.9,3.5-1.1,2.2-4.3c-1.7-4.3-3-13.4-2.5-17.1l0.5-3.3l-4.4,0.4c-13.8,1.3-15.9,5.7-10.3,21.3c3,8.4,5.6,10.2,13.2,9.1
	C199.9,410.5,201.4,410.4,202.2,410.2L202.2,410.2z M192.8,405.5c0.9-0.2,2.5-0.2,3.3,0c0.9,0.2,0.2,0.3-1.7,0.3
	C192.6,405.8,191.8,405.6,192.8,405.5L192.8,405.5z M194.5,402.8c0.2-0.2,1.7-0.5,3.2-0.7c2.1-0.3,2.6-0.2,1.8,0.2
	C198.6,402.9,193.8,403.4,194.5,402.8L194.5,402.8z M188.6,387.8c0.2-0.2,1.7-0.6,3.2-0.7c2.1-0.2,2.5-0.2,1.7,0.4
	C192.5,388.2,187.9,388.5,188.6,387.8L188.6,387.8z M187.1,385c0.8-0.9,2.8-1.3,6.3-1.6l5.1-0.3l-4.8,0.9c-2.7,0.6-5.5,1.3-6.3,1.6
	C186,386.1,186,386.1,187.1,385L187.1,385z M347.2,408.6c0-1.3-5.7-5.9-6.6-5.2c-1.2,0.8,0.2,3.2,2.9,5.1
	C346.2,410.4,347.2,410.4,347.2,408.6L347.2,408.6z M186.3,407c-0.8-1.3-0.8-1.3-0.4,0c0.2,0.7,0.5,1.7,0.5,2.2
	c0.1,0.6,0.2,0.6,0.4,0C187,408.7,186.7,407.7,186.3,407z M249.8,408.5c0.3-0.8-0.5-1.9-2.1-3.3c-4.4-3.7-6.5-2.4-2.8,1.8
	C247.4,409.9,249.1,410.4,249.8,408.5L249.8,408.5z M367.2,408c0-2.6-5.6-7-6.6-5.1c-0.9,1.7,0.2,3.6,3.1,5.4
	C366.9,410.1,367.2,410,367.2,408L367.2,408z M424.4,409c1.4-0.9-0.9-3.3-3.9-4c-2.5-0.6-2.5-0.2-0.5,2.6
	C421.6,409.8,422.6,410.1,424.4,409L424.4,409z M324,407.1c0.2-0.9-2.5-3.3-5.4-5.1c-2.4-1.4-1.4,1.3,1.3,4
	C323,408.9,323.6,409.1,324,407.1z M55.7,405.5c0-0.2-0.2-0.1-0.6,0.1c-0.3,0.2-1.2,0.6-1.9,0.8s-1.1,0.8-0.9,1.2
	C52.7,408.1,55.7,406.2,55.7,405.5L55.7,405.5z M450.1,402.6c0.5-2.8,1.9-7.4,3.2-10.2c1.3-2.8,2.3-5.2,2.3-5.3
	c0-0.5-10.6-4-16.9-5.5c-2.3-0.6-2.4-0.5-4,3.2c-2.8,6.5-5.8,17.4-4.8,18.2c1.9,1.4,16.7,5.4,18.6,5
	C448.9,407.8,449.6,405.5,450.1,402.6L450.1,402.6z M438.9,401.2c-5-1.3-1.9-1.3,3.7-0.1c2.8,0.6,3.6,1,2.2,1
	C443.5,402.1,440.9,401.7,438.9,401.2z M438.9,398.7c-2.5-0.6-4.1-1.3-3.7-1.4c0.4-0.2,3.2,0.4,6.3,1.2c3,0.8,4.7,1.4,3.7,1.4
	C444.2,399.9,441.3,399.4,438.9,398.7z M445.2,385.9c-0.8-0.6-0.5-0.6,1.1-0.2c2.7,0.6,3.3,1,1.4,1
	C446.9,386.7,445.7,386.4,445.2,385.9L445.2,385.9z M440.2,384.7c0.7-0.2,1.7-0.2,2.2,0c0.5,0.2-0.1,0.4-1.3,0.3
	C439.9,385,439.4,384.9,440.2,384.7z M224.3,404.9c2.4-1,4.1-2.2,3.9-2.6c-2.1-3.4-4.8-13.6-4.8-18c0-5.9-0.6-6-16.7-3.1
	c-1.7,0.3-2,0.2-0.9-0.4c1.2-0.8,15.6-3.1,17.2-2.8c0.4,0.1,0.9-0.5,1.1-1.3c0.6-2.8-16.9-0.4-19.2,2.7c-2.7,3.5-1.5,14.7,2.3,23
	l2.3,5l5.4-0.3C218.2,406.9,221.5,406.2,224.3,404.9L224.3,404.9z M213.2,398.1c0.7-0.2,1.7-0.2,2.2,0c0.5,0.2-0.1,0.4-1.3,0.3
	S212.5,398.3,213.2,398.1L213.2,398.1z M219.3,397.1c1.2-0.3,3.1-0.6,4.1-0.6h1.8l-1.8,0.6c-1,0.3-2.8,0.6-4.1,0.6h-2.2L219.3,397.1
	L219.3,397.1z M210,383c0-0.6,4.4-1.4,7.4-1.4c1.1,0,1.5,0.2,1.1,0.6C217.6,383,210,383.7,210,383L210,383z M274.5,405.7
	c0-1.9-4.7-5.6-7-5.6h-2.2l3.5,3.3C272.3,406.8,274.5,407.7,274.5,405.7L274.5,405.7z M401.4,405.5c0-0.9-2.2-3.9-2.8-3.9
	c-3.2,0.1-2.2,4.4,1,4.4C400.6,406,401.4,405.8,401.4,405.5L401.4,405.5z M521.6,404.8c-1.7-2.1-9.3-5.4-13.3-5.9
	c-4.5-0.6-4.7,0.7-0.2,1.4c1.5,0.2,5.1,1.6,8,3C521.9,406.2,522.9,406.5,521.6,404.8L521.6,404.8z M452.5,402.1c0.4-1.7,0.9-4,1.3-5
	c0.8-2.8-0.6-1.1-1.7,2.1c-0.9,2.7-1.3,6.1-0.7,6.1C451.6,405.2,452.1,403.9,452.5,402.1L452.5,402.1z M531,404
	c-0.3-1.7-6.6-2.4-6.6-0.7c0,1.6,0.8,2.1,3.9,2.1C530.8,405.2,531.3,405,531,404L531,404z M541,404c2.5-2.3,1.7-3.4-2.1-2.8
	c-5.1,0.7-6.1,1.1-6.1,2.2C532.7,405.3,539,405.8,541,404L541,404z M552.5,404c0.4-1.2-3.9-2.7-5.9-2.1c-3.2,1-3,2.1,0.7,2.6
	C551.5,405.1,552.2,405.1,552.5,404L552.5,404z M296.7,403.6c1.2-1.4-4.6-7.4-6.5-6.6c-1.3,0.5-1.3,0.8,1.6,4
	C294.9,404.7,295.4,405.1,296.7,403.6z M60.5,403c0.2-0.4-0.1-0.7-0.7-0.7c-0.6,0-1.2,0.3-1.2,0.7s0.3,0.7,0.7,0.7
	C59.7,403.8,60.2,403.5,60.5,403z M557.4,403.3c-0.5-0.2-1.5-0.2-2.2,0c-0.7,0.2-0.3,0.3,0.9,0.4
	C557.3,403.6,557.9,403.5,557.4,403.3L557.4,403.3z M184,400.2c-0.5-1.3-0.9-2.2-1.1-2.1s0.1,1.3,0.6,2.7c0.5,1.3,0.9,2.2,1.1,2.1
	C184.6,402.7,184.4,401.4,184,400.2z M338.4,400.6c0-3.1-5.6-7.3-7-5.1c-0.5,0.8,5.6,7.4,6.4,7C338,402.4,338.4,401.5,338.4,400.6
	L338.4,400.6z M358.1,399.3c-1.7-2.1-4.2-3.3-5.8-2.8c-0.5,0.2,0.6,1.7,2.2,3.5C358.4,403.8,361.3,403.2,358.1,399.3L358.1,399.3z
	 M380,401.2c-0.4-2.2-1.2-2.8-3.3-2.2c-1.9,0.5-1.9,0.6-0.7,2.3C377.4,403.6,380.4,403.5,380,401.2L380,401.2z M426.3,401.5
	c0.6-0.5,1.1-2.1,1.1-3.5c0-3,4-15,6.1-18.6c1.4-2.4,1.4-2.5,0.1-3.5c-3.7-2.7-18.6-7-20.5-5.8c-1.1,0.7,0.3,1.7,2.4,1.7
	c1.2,0,3.2,0.5,4.6,1.1c3.2,1.3,2.2,1.3-3.4,0c-6.6-1.6-8.5,1.3-10,15.4c-0.9,8.7-2.2,13-1.6,5.3c0.2-2.4,0-4-0.4-4s-0.8,2-0.8,4.4
	c-0.1,4,0.1,4.4,1.4,4.4c0.8,0,2.2,0.4,3.1,0.9C413.7,402.4,423.8,403.5,426.3,401.5L426.3,401.5z M416.9,395.6
	c-2.5-0.8,0.2-0.8,3.3,0c2,0.5,2.1,0.6,0.4,0.6C419.6,396.2,418,396,416.9,395.6L416.9,395.6z M416.9,392.5c-1.4-0.4-2.2-0.9-1.8-1
	s2.1,0.2,3.7,0.8C422.2,393.4,420.8,393.7,416.9,392.5L416.9,392.5z M417.7,379.3c-1.5-0.5-1.6-0.6-0.4-0.6c0.8,0,2,0.2,2.6,0.6
	C421.2,380.1,420.3,380.1,417.7,379.3L417.7,379.3z M420.7,377.8c-6-1.7-7-2.1-6.6-2.5c0.5-0.5,10.4,2.5,11.3,3.4
	c0.4,0.4,0.6,0.6,0.4,0.6C425.6,379.2,423.4,378.5,420.7,377.8L420.7,377.8z M427.8,376.7c-0.8-0.6-1.1-1.1-0.7-1.1s1.4,0.5,2.2,1.1
	c0.8,0.6,1.1,1.1,0.7,1.1C429.5,377.8,428.6,377.3,427.8,376.7z M241.7,401.2c4.4-0.6,9.2-3.6,8.7-5.6c-0.2-0.8-0.6-2.1-0.9-3
	c-0.2-0.9-0.9-1.3-1.4-1.2c-0.6,0.2-2.3,0.6-3.8,0.8l-2.8,0.4l3.2-1.1c4.2-1.4,4-0.7,2.7-7.1c-0.6-3.2-0.9-7.4-0.6-9.8l0.4-4.3h-2.5
	c-2.4,0-9.7,1.4-14.4,2.8c-5.1,1.5-4.9,14.9,0.2,25.3l2,4l3-0.4C237.2,401.8,240,401.4,241.7,401.2L241.7,401.2z M238.3,396.1
	c0.2-0.2,1.7-0.5,3.2-0.7c2.1-0.3,2.5-0.2,1.5,0.2C241.6,396.2,237.6,396.7,238.3,396.1z M235.6,393.3c4-0.8,6.6-0.8,4.1,0.1
	c-1,0.3-3,0.6-4.4,0.6h-2.6L235.6,393.3L235.6,393.3z M232.7,377.8c0.5-0.5,3.2-1,6.3-1.2c4.9-0.2,5.1-0.2,1.7,0.4
	c-2.1,0.3-4.9,0.9-6.3,1.2C232.4,378.6,232.1,378.6,232.7,377.8z M228.5,376.5c0-1.6,15.2-4.6,16.5-3.2c0.6,0.6,0.1,0.9-2.1,0.9
	c-2.8,0-10.2,1.5-13.1,2.6C229.1,377,228.5,376.9,228.5,376.5L228.5,376.5z M68,400.9c0.4-0.4,1.5-0.9,2.5-1c1-0.2,0.4-0.3-1.4-0.2
	c-1.9,0.1-3.4,0.5-3.6,1C65.1,401.7,66.9,401.9,68,400.9L68,400.9z M316,400.5c0-1.7-2.4-4.1-4.3-4.1c-1.6,0-1.7,0.2-0.8,1.7
	C312.6,401.1,316,402.8,316,400.5z M400.8,398.7c2-0.8,2.1-1,2.1-6c0-4,0.2-5.1,0.9-4.7c0.7,0.4,0.7,0.3,0.1-0.5
	c-0.6-0.8-0.5-2.4,0.6-6.3c2.1-8.2,2.1-8.2-9.7-11c-4.7-1.1-4.7-1.1-1.1-0.8c2.1,0.2,5.9,0.9,8.7,1.7c4,1.1,5.1,1.2,5.4,0.4
	c0.6-1.7-9-4.7-15.2-4.7c-6,0-12.1,27.4-6.8,30.9C389.2,399.9,396.3,400.4,400.8,398.7L400.8,398.7z M395.4,392.9
	c-8.2-2.1-8.9-2.5-5.5-2c4.1,0.5,9.5,1.9,10.4,2.6C401.1,394.3,400.6,394.2,395.4,392.9L395.4,392.9z M393.2,388.8
	c-4-1.2-4.3-1.3-1.7-1c1.7,0.2,4.3,0.9,5.5,1.4C400.4,390.7,399,390.5,393.2,388.8L393.2,388.8z M399.1,374.8
	c-1.4-0.3-3.9-0.8-5.5-1.1c-1.6-0.2-2.7-0.6-2.5-0.9c0.5-0.5,10.2,1.2,11.6,2C404.3,375.7,402.9,375.7,399.1,374.8L399.1,374.8z
	 M265.7,397.8c6.9-0.9,8.1-1.5,8.1-4c0-2.8-0.8-4.1-2.1-3.4c-0.7,0.3-2.7,0.9-4.6,1.1c-8.2,1.2-8.5,1.3-7,0.6c0.8-0.4,3.5-0.9,6-1.2
	c6.1-0.7,6.5-1,5.7-4.6c-0.3-1.6-0.6-7-0.4-11.9l0.2-9l-5,0.4c-16,1.2-18.9,4.7-15.6,18.8C254.2,398.4,255,399.2,265.7,397.8
	L265.7,397.8z M262.9,388.4c1.1-0.2,2.8-0.2,3.7,0s0,0.3-2.1,0.3C262.5,388.7,261.8,388.6,262.9,388.4L262.9,388.4z M262.1,372.1
	c1.1-0.2,2.8-0.2,3.7,0s0,0.3-2.1,0.3C261.8,372.4,261,372.2,262.1,372.1L262.1,372.1z M256.1,369.7c0.7-0.4,3.9-0.9,7-1.1
	c6.6-0.4,4,0.6-3.6,1.4C256.2,370.2,255.2,370.2,256.1,369.7L256.1,369.7z M499.7,397.1c0-1.3-11.8-7.4-14.5-7.4
	c-3.8,0-2.5,1.9,2.5,3.8c2.5,0.9,5.9,2.5,7.6,3.4C498.4,398.7,499.7,398.7,499.7,397.1L499.7,397.1z M431,390.9
	c0.4-1.6,0.4-2.6,0.1-2.2c-0.6,0.7-2.3,7.1-2.2,8.5C429,398.3,430,395.2,431,390.9L431,390.9z M377.3,396.3l3.3-0.8v-8.2
	c0-5.4,0.3-8.9,1-10.4c1.7-3.9,2.6-7.1,2.1-7.4c-1.3-0.8-10.5-2.8-15-3.4l-4.8-0.6l4.6-0.1c2.7-0.1,7,0.6,10.3,1.4
	c5.7,1.6,7.8,1.4,5.3-0.4c-1.3-1-8.1-2.4-15.1-3.2l-3.9-0.4l-1.7,4C354.6,386.7,361.1,400.4,377.3,396.3L377.3,396.3z M370.7,389.8
	c-0.2-0.3,0.4-0.5,1.4-0.3c1,0.2,1.8,0.5,1.8,0.6C374,390.7,371,390.4,370.7,389.8L370.7,389.8z M366.1,388.9
	c-2.1-0.6-2.1-0.6-0.4-0.6c1-0.1,2.4,0.2,2.9,0.6C370,389.8,369.4,389.8,366.1,388.9L366.1,388.9z M372.1,387.4
	c-2.5-0.8-5.5-1.4-6.9-1.4s-2.4-0.3-2.4-0.6s0.9-0.5,2.1-0.3c4,0.6,12.4,2.7,13.5,3.2C380.4,389.4,376.8,388.9,372.1,387.4
	L372.1,387.4z M374,369.6l-3.3-0.6l2.9-0.1c1.7-0.1,3.5,0.2,4.1,0.6c0.6,0.4,0.8,0.7,0.4,0.6C377.6,370.2,375.8,369.9,374,369.6
	L374,369.6z M145.7,394.1c0.2-0.8,0.2-1.3-0.2-1.1c-0.3,0.2-0.8,1-0.9,1.8c-0.2,0.8-0.2,1.3,0.2,1.1
	C145,395.8,145.4,394.9,145.7,394.1z M294,390.7c-0.2-1.2-0.3-7-0.4-13l-0.2-10.8h-5.2c-2.8,0-6.5,0.2-8.2,0.6
	c-2.5,0.5-2.7,0.4-1.5-0.3c0.8-0.5,4.6-1,8.5-1.3c7-0.4,10.3-1.6,6.2-2.4c-2.1-0.4-13.5,0.4-15.7,1.1c-1.3,0.4-2.1,4-3.4,13.7
	c-0.5,3.5,1.3,13.2,2.8,15.3C279.9,397.6,294.4,395.1,294,390.7L294,390.7z M282.2,389.2c0.7-0.2,1.9-0.2,2.6,0
	c0.7,0.2,0.2,0.3-1.3,0.3S281.4,389.4,282.2,389.2z M280.8,386.7c1.4-0.6,11.3-1,10.7-0.5c-0.2,0.2-3,0.5-6.3,0.6
	C281.9,387.1,280,387,280.8,386.7L280.8,386.7z M284.7,369.1c1.3-0.2,3.5-0.2,4.8,0c1.3,0.2,0.2,0.3-2.4,0.3
	C284.5,369.4,283.4,369.3,284.7,369.1z M314.8,392.1c0.9-0.7,0.9-1.7,0.5-4.1c-1-5.1-0.8-15.6,0.4-19.5c0.6-2,1.1-3.7,1.1-3.8
	c0-0.5-11.8-0.1-14.2,0.5c-1.5,0.3-2.8,0.4-2.8,0.1c0-0.9,3.4-1.4,11-1.6c6.6-0.2,8.5-0.6,6.7-1.7c-1.6-1-16.7-0.3-18.6,0.9
	c-3,1.8-3.2,27.6-0.3,30.5C300.4,394.9,312.3,394.1,314.8,392.1L314.8,392.1z M308.1,383.9c1.1-0.2,2.8-0.2,3.7,0s0,0.3-2.1,0.3
	C307.7,384.2,307,384.1,308.1,383.9L308.1,383.9z M305.1,366.9c1.1-0.2,2.9-0.2,4.1,0c1.1,0.2,0.2,0.3-2.1,0.3
	S304,367.1,305.1,366.9z M334.6,391.6c0.9-0.4,1.1-2.5,1.3-10.7c0.2-7.8,0.5-11.2,1.7-14.6c1.7-5.4,2.2-4.9-5.8-5.4
	c-11-0.6-13.3,2.2-13.8,16.4c-0.2,7-0.3,6.8,5.5,6.6c2.8-0.2,6.2,0.1,7.6,0.5c2,0.6,0.9,0.6-4.1,0.4c-8-0.4-8.5-0.1-8,4
	C319.5,393.6,326.8,394.9,334.6,391.6L334.6,391.6z M326.7,386.9c1.1-0.2,2.8-0.2,3.7,0s0,0.3-2.1,0.3
	C326.3,387.3,325.5,387.1,326.7,386.9L326.7,386.9z M322.9,367.5c1.9-1.2,7.4-1.9,7.4-0.9c0,0.5-1.1,0.9-2.4,0.9
	c-1.3,0-3.2,0.2-4.3,0.4C322.1,368.2,321.9,368.1,322.9,367.5L322.9,367.5z M324.3,363.8c2.6-0.9,13.3-0.9,11.9-0.1
	c-0.6,0.4-3.9,0.6-7.4,0.6C324.5,364.3,323,364.1,324.3,363.8L324.3,363.8z M357.2,392.8c-0.1-0.5-0.2-2.4-0.2-4.2
	c-0.2-3.7-1.3-4.2-10.3-4.4c-3.4-0.1-3.9-0.2-2.2-0.6c1.2-0.3,2.5-0.5,2.9-0.3s2.8,0.5,5.1,0.7l4.3,0.5v-3.9c0-3.7,0.9-8.2,2.1-11.3
	c2-4.7,2.3-5.8,1.9-6.3c-1.1-1.8-15.2-3.2-16.7-1.7c-0.5,0.5,1.5,1,6.2,1.7c3.8,0.5,7.6,1.3,8.4,1.6c1.1,0.6,0.7,0.6-1.5,0.3
	c-1.7-0.2-5.5-0.6-8.6-0.9l-5.6-0.5l-1.5,3.2c-1.5,3.2-2,6.6-2.8,18.5c-0.3,4.4-0.2,5.9,0.7,6.6
	C341.8,393.9,357.4,394.8,357.2,392.8L357.2,392.8z M352.1,387.7c-1.2-0.2-2.5-0.6-2.9-0.9c-0.9-0.9,4.9,0,5.9,0.9
	c0.5,0.4,0.5,0.6,0,0.6C354.6,388,353.3,387.8,352.1,387.7L352.1,387.7z M343.4,386.5c0.4-0.4,1.6-0.6,2.8-0.4
	c2,0.2,1.9,0.3-0.6,0.6C344,387,343,386.9,343.4,386.5L343.4,386.5z M349.8,366.7l-2.2-0.6h2.6c1.4,0,3.4,0.2,4.4,0.6
	C357.3,367.5,353.1,367.5,349.8,366.7L349.8,366.7z M502.7,392.6c2.7-1,1.1-3.3-1.8-2.6c-2.7,0.6-3.6,1.7-2.3,2.6
	C500,393.6,500.3,393.6,502.7,392.6L502.7,392.6z M317.3,386.9c-0.2-0.7-0.3-0.2-0.3,1.3c0,1.4,0.2,2,0.3,1.3
	C317.6,388.8,317.6,387.6,317.3,386.9z M512.4,389.6c4.2-1,4.4-3.4,0.3-3c-3.6,0.4-7.2,2.3-5.9,3.2
	C508.2,390.6,508.4,390.6,512.4,389.6L512.4,389.6z M526.2,386.9c0.9-0.6-0.9-2.5-2.3-2.5c-2.2,0-6.1,1.8-6.1,2.8
	C517.8,388.3,524.5,388,526.2,386.9L526.2,386.9z M534.9,386c1.4-0.5,1-0.6-2.1-0.6c-2.1-0.1-3.9,0.2-3.9,0.6
	C529,386.9,532.2,386.9,534.9,386z M159.1,385.2c1.1,0,1.9-0.3,1.7-0.6c-0.5-0.7-6.1,0.2-7,1c-0.3,0.3,0.3,0.4,1.3,0.1
	C156.1,385.4,157.9,385.3,159.1,385.2L159.1,385.2z M457,385c1.5-1.8-1.3-3-10.7-4.6c-1.7-0.3-2.5-0.6-2.1-0.8
	c1.3-0.5,8.9,1,11.8,2.5c1.4,0.7,2.8,1,3,0.8c2.4-2.4-15.7-6.7-20-4.7c-2.6,1.2-2.6,2.8,0.1,2.8c1.1,0,2.5,0.4,2.9,0.9
	c0.5,0.5,0.9,0.7,0.9,0.4c0-0.6,9,2,10.9,3C455.6,386.1,456,386.1,457,385L457,385z M106.4,384.7c-0.5-0.2-1.5-0.2-2.2,0
	c-0.7,0.2-0.3,0.3,0.9,0.4C106.3,385.1,106.8,385,106.4,384.7z M126.5,383.2c-0.6-2.8-0.9-3.2-2.2-3.2c-1.4,0-1.3,1.5,0.1,3.6
	C126,385.8,127,385.7,126.5,383.2L126.5,383.2z M141.3,384.5c0.9-1.3-0.5-4.5-1.9-4.5s-2.1,3.6-0.9,4.7
	C139.3,385.4,140.9,385.4,141.3,384.5L141.3,384.5z M174.6,382.6c6-0.7,7.3-1,6.7-2c-1-1.7-12.7-0.4-14.8,1.6
	c-2.7,2.5-2.3,3.1,1.1,1.8C169.4,383.5,172.5,382.8,174.6,382.6L174.6,382.6z M316.6,378c-0.2-1.5-0.3-0.5-0.3,2.4
	c0,2.8,0.2,4.1,0.3,2.8C316.8,381.9,316.8,379.6,316.6,378L316.6,378z M358.6,380.1c0.3-3.1,0.2-4.3-0.2-3.3
	c-0.6,1.4-1.1,9.1-0.5,8.5C358.1,385,358.4,382.7,358.6,380.1L358.6,380.1z M89.8,382.2c1.5-0.1,0.4-0.4-2.6-0.7
	c-5.5-0.6-10.5,0.2-10.5,1.8c0,0.6,1.3,0.6,5.2-0.1C84.8,382.7,88.4,382.3,89.8,382.2L89.8,382.2z M113.4,382.7
	c-0.8-1.7-3.6-2.7-3.6-1.2c0,1,2.2,3,3.4,3C114.1,384.5,114.1,384.2,113.4,382.7L113.4,382.7z M73,382.7c-0.5-1.2-1.7-1.5-1.7-0.4
	c0,0.6,0.6,0.9,2,1.5C73.4,383.7,73.3,383.2,73,382.7L73,382.7z M479.4,383c0.8-0.4,1.3-1.1,1-1.5c-0.6-1-3.7-0.9-4.7,0.3
	C474.2,383.6,476.6,384.4,479.4,383L479.4,383z M98.8,380.7c-1.7-1.4-3.8-1.9-3.8-0.9c0,0.6,4.7,2.9,5.1,2.5
	C100.4,382.3,99.8,381.5,98.8,380.7z M156,380.9c0.4-2.1-0.2-4.5-1.3-4.9c-0.8-0.3-1,0.4-1,2.9C153.6,382.3,155.4,383.9,156,380.9
	L156,380.9z M189.8,380.4c2.1-0.6,5.4-1.3,7.4-1.4c6.4-0.5,5.2-2.7-1.4-2.5c-4.4,0.1-4.8,0.2-2.5,0.6l2.9,0.5l-3.1,0.6
	c-1.7,0.3-3.7,0.7-4.4,0.9c-1.3,0.4-1.3,0.3,0.1-0.7c0.8-0.6,1.1-1.2,0.7-1.2c-0.9,0-2.6,1.3-4,3.2
	C184.4,381.8,184.9,381.8,189.8,380.4L189.8,380.4z M488,380c1.9-0.7,2.3-2.8,0.6-2.8c-0.9,0-5.2,1.8-6.2,2.6c-0.2,0.2,0,0.6,0.2,1
	C483.1,381.6,484.2,381.4,488,380L488,380z M69.5,377.8c-0.2-0.5-0.9-0.6-1.3-0.3c-0.5,0.3-0.4,0.7,0.2,1.1
	C69.6,379.3,70.1,378.9,69.5,377.8L69.5,377.8z M92.3,378.6c-1.1-1.1-6.2-1.8-6.2-0.9c0,0.7,1.2,0.9,5.9,1.5
	C92.7,379.3,92.8,379,92.3,378.6L92.3,378.6z M107.7,376.4c-0.8-1.4-4.1-2.9-4.9-2.1c-0.4,0.4,5.1,4.3,5.5,3.9
	C108.4,378,108.1,377.2,107.7,376.4L107.7,376.4z M173.2,375.4c0.6-2.6,0.2-3.2-1.3-2.5c-0.7,0.3-1.1,1.3-1.1,3
	C170.7,379.2,172.5,378.8,173.2,375.4L173.2,375.4z M498,376.6c1.2-1.1,1.2-1.3,0.2-1.9c-1.6-0.9-6.3,1.3-6.3,2.8
	C491.9,379,495.9,378.5,498,376.6z M121.5,376.2c-1.3-2-3.3-3.3-4-2.6c-0.6,0.6,3.3,4.2,4.4,4.3C122.3,377.8,122.2,377,121.5,376.2
	L121.5,376.2z M138.4,371.4c-2.1-3.2-2.8-0.9-0.9,3.1l1.7,3.6l0.2-2.4C139.5,374.3,139.1,372.5,138.4,371.4L138.4,371.4z
	 M458.1,377.4c1.5-0.6,1.5-2.1,0.1-3.2c-1.3-1.1-5.7,1.1-5.1,2.7C453.5,377.8,456.1,378.2,458.1,377.4L458.1,377.4z M211.8,375.6
	c1.7-0.4,5-0.8,7.4-0.9c4-0.2,5.5-0.8,5.5-2.2c0-0.5-1.3-0.4-11.1,0.9c-3,0.4-5.7,0.6-5.9,0.3c-0.5-0.5-2.4,1-2.4,1.9
	C205.6,376.5,208,376.5,211.8,375.6L211.8,375.6z M434.6,373.8c-4.7-3.7-11.5-6.4-15.5-6.2c-4.2,0.2-5.3,1.6-1.7,1.9
	c3.4,0.3,13.8,3.6,16.3,5.2C436.6,376.6,437.2,375.9,434.6,373.8L434.6,373.8z M65.8,374.1c-0.2-0.4-1-0.8-1.7-0.7
	c-1.1,0.1-1.1,0.2,0.1,0.4c0.7,0.2,1.3,0.7,1.3,1.2c0,0.5,0.2,0.6,0.5,0.4C66.1,375.1,66,374.6,65.8,374.1L65.8,374.1z M506.9,374.4
	c1.5-0.2,2.8-0.8,2.8-1.1c0-0.9-4.7-0.8-7,0.1c-2.4,0.9-2.6,2.6-0.2,2C503.4,375.1,505.4,374.6,506.9,374.4L506.9,374.4z M194,372.1
	c0.2-1.1,0.6-2.6,0.9-3.3c0.8-2.5-1.9-1.3-3,1.4c-1.4,3.5-1.4,4,0.3,4C193,374.1,193.7,373.4,194,372.1L194,372.1z M467.3,371.7
	c1.6-1.3,1.1-2.7-0.7-2.2c-2.1,0.5-5.8,3-5.8,3.9C460.8,374.1,465.9,372.8,467.3,371.7L467.3,371.7z M98.4,372.2
	c-2.6-1.2-4.1-1.3-4.1-0.4c0,0.9,1.4,1.4,4.1,1.4h2.2L98.4,372.2L98.4,372.2z M155.9,369.6c0-1.5-1.9-4.3-2.5-3.6
	c-0.2,0.2-0.2,2.1,0.1,4C153.8,373.6,155.9,373.2,155.9,369.6L155.9,369.6z M223,371.1c2.7-0.6,2.5-0.6-1.8-0.6
	c-2.7,0-6.2,0.5-7.8,1l-2.9,1l4.8-0.4C217.8,371.9,221.3,371.4,223,371.1z M235.7,370.8c4.9-0.9,9.2-1.6,11.6-1.8
	c0.3,0,0.6-0.4,0.6-0.9c0-1.7-16,1.1-18.1,3.2C228.8,372.1,228.8,372.1,235.7,370.8L235.7,370.8z M114.7,370.5c0.6-0.9-2.5-3-4.2-3
	c-2.4,0-2.2,1.5,0.2,2.6C113.7,371.3,114.1,371.4,114.7,370.5L114.7,370.5z M62.4,369c-1-1.8-2.3-2.7-2.3-1.5c0,0.5,0.6,1.3,1.3,1.9
	C63.2,370.7,63.3,370.6,62.4,369L62.4,369z M175.1,364.6c0-0.9-0.3-1.7-0.7-1.7c-1.1,0-2.2,2.6-2.2,5.3v2.5l1.5-2.2
	C174.5,367.3,175.1,365.6,175.1,364.6L175.1,364.6z M475.4,368.9c2.1-0.6,3.2-1.2,3.2-2c0-1.5-4.4-0.9-7.1,0.9
	c-1.7,1.2-1.8,2.8-0.1,2.2C471.9,369.8,473.7,369.4,475.4,368.9z M434.4,369.2c1.8-0.7,1.4-2.5-0.7-2.9c-2.4-0.6-4.4,0.9-3.2,2.4
	C431.3,369.8,432.5,369.9,434.4,369.2L434.4,369.2z M217,366.7c0.6-2.7-0.1-4.4-1.4-4.4c-1.4,0-2.3,5.1-0.9,6
	C216.2,369.3,216.5,369.1,217,366.7L217,366.7z M240.2,367.3c8-1,8.5-1.2,7.9-2.2c-1-1.7-16.6,1.3-16.6,3.2c0,0.5,0.5,0.6,1.1,0.4
	S236.7,367.8,240.2,367.3L240.2,367.3z M410.1,367.6c0.8-2.5-14-6-16.5-3.9c-1.9,1.6-1.3,2.2,2.1,2.2c1.7,0,5.1,0.6,7.6,1.4
	C408.2,369,409.7,369.1,410.1,367.6L410.1,367.6z M399.4,365.4c-0.9-0.2-1.7-0.6-1.7-0.9c0-0.6,5.1,0.5,5.9,1.2
	C404,366,401.7,365.9,399.4,365.4L399.4,365.4z M106.9,366.3c0-0.6-5.3-2.7-5.7-2.3c-0.2,0.2,0.7,0.9,2.1,1.5
	C106.1,366.7,106.9,366.8,106.9,366.3L106.9,366.3z M197.8,362.5c1.1-2.4,1.1-2.8,0.1-3.8c-1.3-1.3-1.9-0.2-3,4.8
	C194.1,366.8,196.1,366.1,197.8,362.5L197.8,362.5z M265.1,364.8c7.6-0.5,9.7-1.2,6.5-2c-2.8-0.7-16.8,1.3-17.6,2.6
	c-0.3,0.5,0.2,0.6,1.3,0.3C256.3,365.5,260.7,365,265.1,364.8L265.1,364.8z M386.9,364.4c-0.2-0.4-1.2-0.7-2.1-0.7s-3.2-0.5-5-1
	c-3.7-1.1-13.2-2.4-12.5-1.7c0.2,0.2,3.1,1,6.3,1.7c3.2,0.6,7.1,1.4,8.7,1.7c1.6,0.3,3,0.8,3.2,1
	C386.2,366.1,387.4,365.2,386.9,364.4L386.9,364.4z M442,364.8c2.4-0.7,4.2-1.8,5-2.9c1.6-2.4,0.8-2.3-5.9,0.5
	C433.2,365.7,433.9,367.2,442,364.8L442,364.8z M489,365.2c-4.7-0.9-6.6-0.8-6.6,0c0,0.4,2.1,0.7,5,0.6
	C492.2,365.7,492.2,365.7,489,365.2z M58.6,363c0-0.4-0.3-0.9-0.7-1.2c-0.4-0.2-0.7,0.1-0.7,0.7c0,0.6,0.3,1.2,0.7,1.2
	C58.3,363.7,58.6,363.4,58.6,363z M240.2,360.9c1.4-2.1,1.7-5.4,0.4-5.4c-0.8,0-2.8,3.2-3.6,5.8
	C235.7,364.7,237.8,364.4,240.2,360.9L240.2,360.9z M288.1,362.5c10.4-0.7,10.1-2-0.6-1.9h-5.2l4.1-0.7c2.2-0.4,5.3-0.6,6.9-0.4
	c1.5,0.2,2.8,0.1,2.8-0.3c0-0.9-6.1-1.7-9.7-1.2c-1.7,0.2-3.9,0.4-4.7,0.5c-1.3,0-2.1,1-3.9,4.7c-0.2,0.4,0.5,0.5,1.5,0.2
	C280.3,363.2,284.2,362.8,288.1,362.5L288.1,362.5z M388.1,363c0-1.6-8.5-4.7-12.5-4.6c-5.4,0.2-6.4,1.3-1.8,1.9
	c2.7,0.4,12.2,2.6,14.2,3.3C388,363.7,388.1,363.4,388.1,363L388.1,363z M154.6,361.3c0.8-2.8,0.6-5.1-0.5-4.8
	c-1.1,0.3-1.7,6.5-0.7,6.5C153.9,363,154.4,362.3,154.6,361.3L154.6,361.3z M269,361.5c5.5-0.5,7-1.7,2.5-2.1
	c-3.2-0.2-13.3,1.7-14.3,2.9c-0.6,0.6,0.2,0.7,2.9,0.2C262.2,362.3,266.1,361.8,269,361.5L269,361.5z M410.8,360.8
	c1.7-1.3,1.7-1.5,0.6-2.1c-1.3-0.7-6.2,1.7-6.2,3C405.1,362.8,409,362.2,410.8,360.8L410.8,360.8z M362.4,360.8
	c0.6-0.9-9.4-2.6-14.4-2.4c-3.5,0.2-0.1,1.3,4.4,1.4c2.3,0.1,5.2,0.4,6.4,0.8C361.7,361.6,361.9,361.6,362.4,360.8L362.4,360.8z
	 M177.6,356.2c0.3-2.4-0.7-3-1.3-0.9c-0.2,0.7-0.7,1.9-1.1,2.6c-1.2,2.2-0.8,3.1,0.7,1.7C176.6,359,177.3,357.4,177.6,356.2
	L177.6,356.2z M318.9,359.6c0.2-0.2-3.6-0.4-8.3-0.4s-8.5,0.2-8.3,0.6C302.7,360.5,318.3,360.3,318.9,359.6z M341.4,357.5
	c-0.9-0.9-16.8,0.2-18.3,1.3c-1,0.8,0.2,0.9,7.4,1c4.8,0,8.9,0.2,9.2,0.5c0.2,0.2,0.8-0.2,1.3-0.9
	C341.5,358.7,341.7,357.9,341.4,357.5L341.4,357.5z M455.7,358.9c2.8-0.5,4-2.7,1.5-2.6c-2.1,0-7.8,2.8-7.2,3.7
	c0.3,0.5,0.9,0.5,1.7,0.1C452.4,359.7,454.2,359.2,455.7,358.9L455.7,358.9z M126.1,359c-0.6-0.6-2.8-2-4.8-3.1l-3.7-2.1l2.6,2.6
	c2.6,2.6,4,3.4,5.9,3.5C127.1,360,127.1,359.9,126.1,359L126.1,359z M218.8,355.1c1-3.6,1-4,0.2-4c-0.9,0-2.3,4.1-2.3,6.6
	C216.7,360.2,217.7,358.9,218.8,355.1L218.8,355.1z M364.3,358.5c0-0.8-4.3-1.5-10.4-1.8c-3.7-0.2-5.1-0.1-4.1,0.4
	c0.8,0.4,3,0.7,4.8,0.8c1.8,0.1,4,0.4,4.8,0.7C361.2,359.2,364.3,359.2,364.3,358.5L364.3,358.5z M319.1,357.4c-1-1-13.8-0.9-14.8,0
	c-0.6,0.6,1.3,0.8,7.4,0.7C316.6,358.2,319.5,357.9,319.1,357.4L319.1,357.4z M389.7,356.3c2.1-1.9,2.3-2.2,1.1-2.7
	c-2.3-0.9-8.3,2.9-6.4,4.1C386.2,358.9,387.1,358.7,389.7,356.3z M56.2,355.9c-0.2-0.6-0.8-0.9-1.2-0.7c-0.5,0.3-0.4,0.8,0.2,1.4
	C56.3,357.9,56.8,357.5,56.2,355.9L56.2,355.9z M265.2,356.2c1.4-2.1,1.5-3.6,0.1-3.6c-1.3,0-1.5,0.4-2.2,3.2
	C262.6,358.2,263.7,358.4,265.2,356.2L265.2,356.2z M202.4,352.9c1.6-5.1-0.9-4.7-2.7,0.4c-1.2,3.4-1.1,4,0.5,3.1
	C201,356,201.9,354.4,202.4,352.9L202.4,352.9z M419.6,355.5c4.5-1.7,5.1-3.2,1.1-3.3c-2.1,0-8.9,3.3-8.9,4.4
	C411.8,357.5,415.7,356.9,419.6,355.5L419.6,355.5z M465.1,355.6c1.9-0.8,4-1.6,4.6-1.8s0.1-0.4-1.1-0.4c-3.4-0.1-7.8,1.3-7.8,2.5
	C460.8,357.3,460.9,357.3,465.1,355.6L465.1,355.6z M292.9,353.1c0.4-1.9-2.1-2.5-3.3-0.9c-0.6,0.8-1,1.8-1,2.3
	C288.7,355.9,292.7,354.6,292.9,353.1L292.9,353.1z M367.1,352c0.5-1.3-2.1-1.1-4.2,0.5c-2.6,2.1-1.3,3.5,1.6,1.7
	C365.7,353.5,366.9,352.5,367.1,352L367.1,352z M247,350.4c2.6-3.6,2-4.9-1.1-2.5c-1.4,1.1-4,5.3-4,6.5
	C241.9,355.3,245.4,352.5,247,350.4z M155.9,352.2c0-1-0.2-1.8-0.3-1.8s-0.5,0.9-0.6,1.8c-0.2,1-0.1,1.8,0.3,1.8
	C155.6,354.1,155.9,353.2,155.9,352.2L155.9,352.2z M316.5,353c0.9-0.9,0.9-1.2-0.1-1.9c-1.4-1.2-3-0.6-3.6,1.4
	C312.4,354.3,314.8,354.7,316.5,353L316.5,353z M342.8,353c1-1.2,0.5-2.6-1.1-2.6c-1.2,0-3.3,2-3.3,3
	C338.4,354.5,341.8,354.2,342.8,353L342.8,353z M397.3,351.3c4.6-1.6,4.7-1.7,3.4-2.5c-0.7-0.4-2.3,0-4.6,1.2
	C390.7,352.8,391.2,353.4,397.3,351.3L397.3,351.3z M433.4,351.4c1.5-0.5,2.4-3.2,1-3.2c-1.7,0-9.3,3.2-9.3,3.9
	C425.2,352.7,430.3,352.3,433.4,351.4L433.4,351.4z M53.3,350.2c-0.2-0.5-0.7-1-1.2-1.2c-0.6-0.2-0.7,0.2-0.4,0.9
	C52.2,351.3,53.7,351.6,53.3,350.2L53.3,350.2z M274,347.5c3.6-2.7,4-3.9,1.2-3.9c-1.3,0-7.3,5.5-7.3,6.8
	C267.9,351.4,270.3,350.2,274,347.5z M376,347.9l2.5-1.7l-2.1-0.2c-2.1-0.2-7.4,2.5-7.4,3.9C368.8,350.9,373.3,349.7,376,347.9
	L376,347.9z M224.1,347.1c1.3-1.5,0.6-2.1-1.8-1.6c-1.4,0.3-1.9,0.9-1.9,2.4C220.4,349.8,222,349.5,224.1,347.1L224.1,347.1z
	 M298.9,346.9c2.4-1.8,3.1-3.2,1.6-3.2c-1.9,0-7.4,4-7.4,5.4C293.1,350.1,296.1,349,298.9,346.9z M349.4,347.6c1.7-1.1,3-2.3,3-2.6
	c0-1.3-3.3-0.6-5.7,1.3C342.2,349.8,344.4,350.9,349.4,347.6L349.4,347.6z M442.8,348c3.8-1.1,2.3-1.5-1.7-0.5
	c-1.9,0.5-3.4,1.2-3.4,1.6s0.6,0.4,1.3,0.2C439.7,349,441.5,348.4,442.8,348L442.8,348z M323,346.2c3.5-2.7,4.3-4,2.5-4
	c-1.6,0-4.8,2.5-7.1,5.4C316.6,349.9,319.3,349.1,323,346.2L323,346.2z M410.5,346.6l1.6-0.9l-1.7-0.9c-1.9-1-3.8-0.4-7,2.2
	C401.4,348.5,407.6,348.1,410.5,346.6L410.5,346.6z M206.9,342.8l1.7-3.2l-2.6,2.9c-1.4,1.6-2.6,3.4-2.6,4
	C203.4,348.2,204.9,346.5,206.9,342.8L206.9,342.8z M255.3,342.9c2.6-2.2,2.6-2.2,0.7-2.2c-1.2,0-2.6,0.8-3.9,2.2
	C249.3,346,251.6,346,255.3,342.9z M384.7,344.1c2.6-1.1,3.7-3.3,1.6-3.3c-1.9,0-6.3,2.5-6.3,3.5
	C379.9,345.5,381.3,345.4,384.7,344.1L384.7,344.1z M417.2,343.4c0.7-0.6,1.3-1.2,1.3-1.4c0-0.6-4.4,0.9-4.9,1.8
	C413,344.8,415.7,344.5,417.2,343.4L417.2,343.4z M281.2,343c0-0.4,1.2-1.3,2.7-2.3c3.8-2.2,2.6-2.7-1.7-0.6
	c-3.9,1.8-5.1,3.6-2.6,3.6C280.5,343.7,281.2,343.4,281.2,343L281.2,343z M357.9,342.6c3.2-1.3,4-2.7,1.7-2.6c-0.9,0-2.7,0.9-4,1.8
	C353.3,343.9,354.2,344.2,357.9,342.6z M227.5,339.9c2.1-3.2,2.1-4,0.3-2.7c-0.9,0.7-2.9,4.4-2.9,5.4
	C224.8,343.6,225.8,342.6,227.5,339.9L227.5,339.9z M307.7,341.4c2.5-1.5,3-2.5,1.7-3.3c-1-0.6-7.5,3.2-7,4.1
	C303.1,343.3,305.1,343,307.7,341.4L307.7,341.4z M334.9,339.9c2.3-1.2,2.8-1.7,1.8-1.9c-1.7-0.4-8.1,2.1-7.5,2.9
	C329.8,341.8,331.6,341.6,334.9,339.9L334.9,339.9z M262,338c1.6-1.7,1.6-1.9,0.4-1.7c-1.4,0.2-4.1,3.6-2.9,3.6
	C259.9,339.9,261,339.1,262,338z M367.8,337c3.2-2,3.1-2.5-0.2-1.1c-1.5,0.6-2.8,1.1-2.9,1.1c-0.2,0-0.3,0.3-0.3,0.7
	C364.3,338.8,365.1,338.7,367.8,337L367.8,337z M292.5,335.4c4.2-2.5,4.1-2.5-1.1-0.4c-1.9,0.8-3.5,1.7-3.5,2.1
	C287.9,338.1,288.4,338,292.5,335.4L292.5,335.4z M315.7,336.3c1.7-0.8,2.4-1.4,1.7-1.4c-1.3-0.1-5.7,1.9-5.7,2.5
	C311.6,338,312.6,337.7,315.7,336.3L315.7,336.3z M344.1,334.3c-0.5-0.5-4.3,1.3-4.3,2.1c0,0.3,1,0.1,2.3-0.6
	C343.4,335.2,344.3,334.6,344.1,334.3L344.1,334.3z"/>
</svg>
