<?xml version="1.0" encoding="utf-8"?>
<!-- Generator: Adobe Illustrator 17.0.0, SVG Export Plug-In . SVG Version: 6.00 Build 0)  -->
<!DOCTYPE svg PUBLIC "-//W3C//DTD SVG 1.1//EN" "http://www.w3.org/Graphics/SVG/1.1/DTD/svg11.dtd" [
	<!ENTITY ns_flows "http://ns.adobe.com/Flows/1.0/">
	<!ENTITY ns_extend "http://ns.adobe.com/Extensibility/1.0/">
	<!ENTITY ns_ai "http://ns.adobe.com/AdobeIllustrator/10.0/">
	<!ENTITY ns_graphs "http://ns.adobe.com/Graphs/1.0/">
]>
<svg version="1.1" id="Layer_1" xmlns:x="&ns_extend;" xmlns:i="&ns_ai;" xmlns:graph="&ns_graphs;"
	 xmlns="http://www.w3.org/2000/svg" xmlns:xlink="http://www.w3.org/1999/xlink" xmlns:a="http://ns.adobe.com/AdobeSVGViewerExtensions/3.0/"
	 x="0px" y="0px" width="612px" height="792px" viewBox="0 0 612 792" style="enable-background:new 0 0 612 792;"
	 xml:space="preserve">
<g id="_x38_">
	<path style="fill:none;stroke:#000000;stroke-miterlimit:10;" d="M301.9,277.2c0,9.7,7.6,17.5,17.3,17.9
		c22.1,1.1,43.9,9.9,60.6,26.8c16.9,16.9,25.7,38.5,26.8,60.6c0.5,9.7,8.2,17.3,17.9,17.3h0.1c10.3,0,18.5-8.6,17.9-18.9
		c-1.4-30.7-14-61.1-37.4-84.5c-23.4-23.4-53.8-35.9-84.5-37.4C310.5,258.7,301.9,266.8,301.9,277.2L301.9,277.2z"/>
	<path style="fill:none;stroke:#000000;stroke-miterlimit:10;" d="M324.4,208.9c0,9.7,7.8,17.7,17.5,17.9
		c33.7,1.2,67.1,14.6,92.8,40.3s39.1,59,40.3,92.8c0.4,9.7,8.2,17.5,17.9,17.5l0,0c10.2,0,18.3-8.4,18-18.5
		c-1.4-42.6-18.3-84.7-50.7-117.1s-74.6-49.4-117.1-50.7C332.9,190.6,324.4,198.8,324.4,208.9L324.4,208.9z"/>
	<path style="fill:none;stroke:#000000;stroke-miterlimit:10;" d="M344,142.7c0,9.7,7.6,17.7,17.3,17.9
		c45.8,1.1,91.1,19.1,125.9,53.9s52.7,80.2,53.9,125.9c0.2,9.7,8.2,17.3,17.9,17.3l0,0c10.2,0,18.3-8.5,17.9-18.6
		c-1.4-54.5-23-108.5-64.4-150.1c-41.4-41.4-95.4-62.9-150-64.3C352.4,124.4,344,132.4,344,142.7L344,142.7z"/>
	<g>
		<g>
			<path style="fill:none;stroke:#000000;stroke-miterlimit:10;" d="M225.8,459.6"/>
		</g>
		<g>
			<path style="fill:none;stroke:#000000;stroke-miterlimit:10;" d="M359.7,667.3c-96.7,0-208.6-107-213.7-112l-0.6-0.6
				c-11.8-12.9-42.1-47.5-67.8-90.4c-34.2-57.1-46.7-106.5-37.2-146.4c24.1-102,81.3-119.8,83.7-120.5c20.3-5.9,65.6-4.2,92.9,44.2
				c14.9,26.7,22,50.2,21,70c-1,19.8-9.8,35.9-25.6,46.4c-11.1,7.4-24.9,19.5-27.1,35.1c-1.8,12.1,3.3,25.5,15.3,40
				c20.4,24.9,46.7,51.4,70.5,70.9c14.6,12,28,17.1,40,15.3c15.7-2.4,27.7-16,35.1-27.1c10.5-15.8,26.5-24.6,46.4-25.6
				c19.8-1,43.5,6.1,70,21l0,0c48.4,27.1,50.1,72.6,44.2,92.8c-0.7,2.5-18.5,59.6-120.5,83.8C377.7,666.4,368.8,667.3,359.7,667.3z
				 M166.1,535c6.8,6.5,129.5,121.3,213.7,101.4c83.1-19.7,98.9-61.9,99.6-63.7c0.2-1.1,2.4-10.3,0-21.8
				c-3.3-15.7-13.7-28.4-30.7-38l0,0c-22.2-12.4-61.9-29.5-78.5-4.5C355,531.2,336,544.9,315.3,548c-20.3,3-41.4-4.2-62.5-21.5
				c-25.1-20.6-53-48.5-74.5-74.8c-17.3-21-24.5-42.1-21.5-62.5c3.1-20.7,16.7-39.6,39.7-54.9c25-16.7,7.9-56.4-4.5-78.5
				c-9.6-17-22.4-27.3-38-30.7c-11.2-2.4-20.3-0.4-21.8-0.1c-3.6,1.2-44.3,17.1-63.8,99.6c-7.5,32,4.2,75.3,33.9,125.1
				C126.8,490.9,156.9,525,166.1,535z M132,225L132,225h-0.2H132z"/>
		</g>
	</g>
</g>
</svg>
