<?xml version="1.0" encoding="utf-8"?>
<!-- Generator: Adobe Illustrator 17.0.0, SVG Export Plug-In . SVG Version: 6.00 Build 0)  -->
<!DOCTYPE svg PUBLIC "-//W3C//DTD SVG 1.1//EN" "http://www.w3.org/Graphics/SVG/1.1/DTD/svg11.dtd" [
	<!ENTITY ns_flows "http://ns.adobe.com/Flows/1.0/">
	<!ENTITY ns_extend "http://ns.adobe.com/Extensibility/1.0/">
	<!ENTITY ns_ai "http://ns.adobe.com/AdobeIllustrator/10.0/">
	<!ENTITY ns_graphs "http://ns.adobe.com/Graphs/1.0/">
]>
<svg version="1.1" id="Layer_1" xmlns:x="&ns_extend;" xmlns:i="&ns_ai;" xmlns:graph="&ns_graphs;"
	 xmlns="http://www.w3.org/2000/svg" xmlns:xlink="http://www.w3.org/1999/xlink" xmlns:a="http://ns.adobe.com/AdobeSVGViewerExtensions/3.0/"
	 x="0px" y="0px" width="612px" height="792px" viewBox="0 0 612 792" style="enable-background:new 0 0 612 792;"
	 xml:space="preserve">
<path d="M464.3,606.7c-3.8,6.9-7.4,7.2-12.4,0.8c0-0.4-0.1-0.8-0.1-1.2l0.5,0.1c2.7-0.8,1.9-3.1,1.9-5c0-59.6,0-119.3,0-179.1
	c0-1.8,0.8-4.2-2-4.8c-0.1-0.5-0.2-0.8-0.2-1.3c-0.6-3.3-3.2-2.4-5.3-2.4c-36,0-72,0-107.9,0c-1.8,0-4.2-1-5.1,1.8
	c-3.6,0.5-2.3,3.5-2.9,5.6c-0.8,3.3-2.9,5.1-6.5,4.9c-3.2-0.2-4.9-2.3-5.3-5.5c-0.1-1.8-0.1-3.6-0.1-5.4
	c-0.1-23.2-0.1-46.5-0.2-69.7c1.1-4.3-0.4-6-5-5.7c-10.8,0.4-21.4,0.1-32.2,0.1c-8.8,0-8.8,0-9.4,8.4c-2.6,0.6-1.9,2.6-1.9,4.3
	c0,20.9,0,42,0,62.9c0,1.7-0.6,3.7,1.9,4.3c0,2,0,4.1,0,6.1c-2.5,0.7-1.9,2.7-1.9,4.4c0,73.4,0,146.9,0,220.3c0,1.9-0.6,4.2,2.3,4.8
	c1.2,0,2.5,0,3.7-0.1c0.4,0,0.8,0,1.2,0v0.6c0.5,1.8,1.8,1.8,3.2,1.8c11.4,0,22.7,0,34.1,0c1.4,0,2.9-0.1,3.2-1.9c1.9-2,1-4.5,1-6.8
	c0-52.1,0-104.2,0-156.3c0-1.6,0-3.2,0-4.8c0-2.9,1.1-5.1,3.8-6.1c3-1.1,5.4-0.2,6.8,2.7c-1.2,1.1-1,2.5-1,3.9c0,54,0,108.1,0,162.1
	c0,1.9-0.7,4.2,2.2,4.8c1.6,0,3.2,0,4.8,0l0.1,0.5c0.8,2.7,3.1,1.9,5,1.9c33,0,66,0,99,0c1.9,0,4.2,0.7,4.9-2l-0.1-0.5
	c5.4-1.1,7.5-4.8,7.3-9.9c-0.1-4.4,1-8.4,6.1-8.4c5.3,0.1,5.9,4.2,5.9,8.5c0,13.4-3.9,19.1-15.8,22.2c-34.4,0-68.9-0.1-103.3-0.1
	c-62.8,0-125.4,0.1-188.1,0.1c-0.5,0-1,0-1.4,0c-2.7,0-5.6-0.1-8.4-0.1c-12.9-0.1-20-6.9-20-19.8c-0.1-29.3,0-58.5,0-87.7
	c0-9.6,0-19.1,0-28.7c0-4.2,1.9-7.3,6.2-7.2c3.7,0.1,6.2,2.5,5.5,6.8c-1.8,1.3-1.2,3.2-1.2,5c0,36.1,0,72.1,0,108.2
	c0,1.8-0.8,4.2,1.8,5.1c1.6,3.3,4.2,5.6,7.8,6.5c0.7,2.9,3.1,1.9,4.9,1.9c34.1,0,68.3,0,102.3,0c1.8,0,4.2,1,5-1.9
	c1.9-2,1-4.5,1-6.8c0-71.8,0-143.7,0-215.5c0-2.2-0.1-4.4-0.2-6.6c0-2.3,0-4.7,0.1-6.9c0.2-1.6,0.6-3.1-0.8-4.2
	c-0.8-2.9-3.2-1.8-5-1.8c-36.5-0.1-72.8,0-109.3,0c-1.8,0-4.2-1.1-5,1.8c-0.5,0.6-1.2,1-0.7,1.9c-0.1,0.8-0.2,1.6-0.4,2.4
	c-0.7,3.9-3.7,5.9-7.1,5.9c-3.9-0.1-5.1-3.6-4.8-6.9c0.5-4.9-1-6.7-6.2-7.1c-8.4-0.6-14-7.1-14.1-15.7c-0.2-17.3-0.4-34.7,0-51.9
	c0.2-9.9,7.3-16.1,17.7-16.3c29-0.1,58.1,0,87.1,0c4.5,0,8.4,1.2,8.2,6.3c-0.1,4.8-3.8,5.7-8,5.7c-26.9-0.1-53.7,0-80.6-0.1
	c-5.7,0-10,1.8-12.4,7.2c-1.7,0.7-1.6,2.2-1.6,3.6c0,13.1,0,26.3,0,39.4c0,1.4,0,2.9,1.7,3.5c1.8,2,2.2,5.9,6.2,5.3h0.1l-0.1,0.6
	l0.5,0.2c0,0.2,0,0.4,0.1,0.6c1.4,3,4.2,1.7,6.3,1.7c40.4,0.1,80.9,0.1,121.3,0c2,0,4.4,1,6.1-1.3c0.8-1,1.1-2,1-3.3
	c-0.1-16.4-0.1-32.8-0.2-49.2c0.4-8.1,0.4-8.1-7.4-8.1c-1.2,0-2.4,0-3.6,0c-3.6-0.1-5.5-2.2-5.6-5.6c-0.1-3.6,2-5.7,5.3-6.1
	c3.7-0.4,7.5-0.1,11.7-0.1c-1.1-2.9-3.6-2.9-5.4-3.6c-20.8-8.4-41.4-17.6-60.1-30.1c-7.8-5.3-15.1-11-21.2-18.3
	c-12.9-15.7-11.8-32,3.5-45.2c13.4-11.5,28.4-19.2,46.9-15.5c12.3,2.5,22,9.6,30.1,19c16.7,19.4,26.1,42.6,33.7,66.5
	c2.7,8.5,4.9,17.1,7.6,26.8c5-21.3,11.1-40.9,19.8-59.5c6-12.8,13-25,22.8-35.5c24-25.7,60.5-23.5,81.6,4.8
	c7.3,9.8,7.9,20.1,2.5,30.8c-4.8,9.3-12.3,16-20.6,22.1c-20.7,15.2-44,25.2-67.5,34.9c-2.4,1-2.4,1-3.1,3c0.6,2.5,2.6,1.9,4.3,2
	c15.4,0,30.8,0,46.3,0c1.7,0,3.7,0.6,4.4-1.9c4.2,0.5,5.9,3.1,5.3,6.9c-0.7,3.8-3.6,4.8-7.2,4.8c-15.9-0.1-31.7,0.1-47.6-0.1
	c-4.8-0.1-6.6,1.2-5.4,5.9c-0.2,0-0.5,0-0.6,0c-1.4,0.4-1.8,1.3-1.8,2.6c0,16,0,31.9,0,47.9c0,1.4,0.2,2.7,2,3.1
	c1,0.4,1.8,0.8,2.7,1.2c1.4,1.9,3.6,1.3,5.5,1.3c40.2,0,80.4,0,120.6,0c1.8,0,4.1,0.8,5.3-1.6c4.2-1.8,7.4-4.5,7.4-9.7
	c-0.1-14.2-0.1-28.4-0.2-42.6c-1-6.1-5.1-8.1-10.6-8.1c-4.4,0-8.4-0.5-8.4-6c0.1-5.4,4.2-6.1,8.5-6c4.5,0.1,9.2-0.4,13.5,1.7
	c8.4,4.1,9.6,11.5,9.4,19.6c-0.1,15.4-0.1,31-0.2,46.4c-0.1,8.8-5.6,15.9-14.1,16.3c-6.7,0.2-6.7,3.3-6,8.1c0,2.7,0.1,5.5,0.1,8.2
	c-0.1,2.4-0.2,4.8-0.2,7.2c0,52,0,104,0,156C464,596.5,464.1,601.6,464.3,606.7z M281.6,321.7c-2.6-8.6-4.5-15.8-6.9-22.8
	c-7.1-20.3-15.2-40.2-29.6-56.5c-6-6.8-12.8-12.4-21.9-14.7c-14.7-3.6-26.4,3-37.1,11.7c-11.5,9.4-12,18.3-2.6,29.8
	c4.1,4.9,9,9,14.2,12.7C222.9,299.5,251.4,310.5,281.6,321.7z M309.8,320.5c1.1,0.1,1.7,0.4,2.2,0.1c28.1-10,55.7-21,80.4-38.3
	c7.1-4.9,13.6-10.4,18.3-17.7c3.2-5.1,4.5-10.5,1.8-16.4c-6-12.7-28.7-24-42.3-21.4c-11.5,2.3-19.7,9.2-26.5,17.9
	C326,267.1,317.4,293.4,309.8,320.5z"/>
<path d="M528.3,674.5c3,1.4,3.9,3.7,2.9,6.8c-1.1,3-3.3,4.2-6.6,4.1c-1,0-2,0-3,0c-149.2,0-298.3,0-447.5,0c-1,0-2,0-3,0
	c-2.9,0.2-5.3-0.7-6.3-3.5c-1.1-2.7-1-5.5,2.2-7.2c0.7,0.6,1,0.2,1.1-0.5c0.6-0.8,1.6-1,2.5-0.6c1.1,3.5,4.1,1.9,6.1,1.9
	c148.5,0.1,296.9,0.1,445.5,0C524.1,675.7,526.5,676.5,528.3,674.5z"/>
<path d="M528.3,674.5c-1.8,1.9-4.1,1.1-6.2,1.1c-148.5,0-296.9,0-445.5,0c-2,0-5,1.4-6.1-1.9c28.9-0.1,57.7-0.1,86.7-0.2
	c2.2,0,4.4-0.1,6.6-0.2c1.4,0.1,2.7,0.2,4.2,0.2c96.8,0,193.8,0,290.6,0c1.4,0,2.7-0.1,4.2-0.2c19.6,0.1,39.2,0.1,58.8,0.2
	C523.8,673.6,526.3,672.8,528.3,674.5z"/>
<path d="M156.7,667.8c62.8,0,125.4-0.1,188.1-0.1c34.4,0,68.9,0.1,103.3,0.1c-1.8,3.3-4.9,1.9-7.4,1.9c-92.5,0.1-185,0.1-277.6,0.1
	c-1.8,0-3.6,0-5.4,0c-0.4-0.4-0.7-0.7-1.1-1C156.7,668.4,156.7,668.1,156.7,667.8z"/>
<path d="M566.1,685.4c-6.9,0-13.9-0.1-20.8,0c-4.1,0.1-6.8-1.8-7.1-5.6c-0.2-4.3,2.7-6.3,6.9-6.5c13.9,0,27.9,0,41.7,0
	c4.1,0,7.2,1.6,7.3,6.1c0,4.5-3,6-7.2,6C580,685.4,573,685.4,566.1,685.4z"/>
<path d="M422.7,340.1c-6.3,0-12.7,0-19,0c-3.9,0-6.7-1.7-6.7-5.7c-0.1-4.2,2.6-6.1,6.5-6.2c12.6-0.1,25-0.1,37.5,0
	c3.9,0,6.7,1.9,6.7,6c0,4.3-2.7,6.1-7.1,6.1C434.5,339.9,428.6,340.1,422.7,340.1z"/>
<path d="M280.9,230c-9.1-0.1-16.1-7.5-15.9-16.5c0.2-9.1,7.4-16,16.6-15.9c9,0.1,16.3,7.7,16,16.6C297.4,223,290,230.1,280.9,230z
	 M281.4,203.9c-5.1-0.1-10,4.5-10,9.8c0,5,4.2,9.7,9.2,9.9c5.3,0.4,10-4.1,10.2-9.4C291.1,208.7,286.8,204.2,281.4,203.9z"/>
<path d="M131.5,498.8c-1.1,0.1-1.8-0.2-2.4-1.2c0.1-0.1,0.2-0.2,0.2-0.4l-0.2-0.2c-0.1,0-0.4,0.1-0.5,0.2l-0.4-0.4
	c1.2-20.6,0.8-41.2,0.1-61.8l0.1-0.1c0.8,0,1.3-0.5,1.4-1.2c3.1-1.4,6-2,7.5,2.3c0,17.9-0.1,35.7-0.1,53.7c0,1.6-0.4,3.2,1.2,4.4
	c0.2,1,0.1,1.9-0.8,2.5c-0.5,0.5-1,1-1.3,1.4l0.1-0.1C134.7,497.7,132.9,497,131.5,498.8z"/>
<path d="M63,221.1c3.8,10.5,11,17.1,22.6,21.3c-11.6,4.3-19,10.6-22.5,21.4c-4.3-10.4-11-17.6-21.5-21.3
	C52,238.3,58.9,231.5,63,221.1z M52.4,242.4c5.5,2.2,8.4,5.4,10.6,10.3c2.2-4.9,5.1-8.1,10.9-10.4c-6.1-1.3-8.4-5.5-11.1-9.8
	C60.7,237.1,57.9,240.3,52.4,242.4z"/>
<path d="M17.8,685.4c-4.5,0-9.1-0.1-13.7,0c-4.3,0.1-7.2-1.7-7.3-6c0-3.9,2.9-6,6.7-6.1c9.3-0.1,18.6-0.1,28,0
	c3.9,0,6.6,2.4,6.3,6.3c-0.1,3.5-2.5,5.6-6.5,5.6C26.9,685.4,22.4,685.4,17.8,685.4z"/>
<path d="M464.3,606.7c-0.1-5.1-0.2-10.4-0.2-15.5c0-52,0-104,0-156c0-2.4,0.1-4.8,0.2-7.2c0.7,0,1.3,0.1,2,0.1
	c0,56.9,0,113.9-0.1,170.8C466.1,601.7,467.4,604.8,464.3,606.7z"/>
<path d="M535.4,412.5c3,0.4,3.9,2.2,3.7,4.5c-0.4,3.6,1,5.1,4.7,4.7c2.4-0.2,4.5,0.7,4.7,3.3c0.1,2.6-1.9,3.9-4.3,3.8
	c-3.8-0.2-5.5,0.8-5,4.9c0.2,2.5-1,4.4-3.7,4.3s-3.7-2.2-3.3-4.7c0.5-3.8-1.2-4.9-4.7-4.5c-2.4,0.2-4.5-0.7-4.7-3.5
	c-0.1-3.1,2.4-4.1,4.9-3.7c3.8,0.4,4.9-1.4,4.5-4.9C531.7,414.5,532.8,412.7,535.4,412.5z"/>
<path d="M72.7,144.5c-0.1,5-4.7,9.4-9.6,9.6c-5.4,0.1-9.8-4.4-9.8-9.8c0.1-5.4,4.8-9.8,10-9.6C68.4,134.9,72.8,139.6,72.7,144.5z"/>
<path d="M161,170.1c-0.4,3.1-2.4,3.9-5,3.7c-3.3-0.4-4.7,0.8-4.3,4.3c0.2,2.5-0.4,5-3.6,5.1c-3.2,0.1-3.8-2.4-3.6-4.9
	c0.5-3.9-1.6-4.8-4.9-4.4c-2.4,0.2-4.5-0.6-4.5-3.5c0-2.7,2-3.9,4.4-3.7c4.5,0.6,5.4-1.6,5-5.4c-0.2-2.3,1.2-3.8,3.5-3.8
	c2,0,3.6,1.6,3.5,3.3c-0.4,4.5,1.2,6.5,5.9,6C159.3,166.6,160.5,168.3,161,170.1z"/>
<path d="M41.8,432c5.5,0.1,9.6,4.4,9.6,10c-0.1,5.3-4.8,9.8-10,9.6s-9.4-4.9-9.2-10.3C32.5,436,36.8,431.9,41.8,432z"/>
<path d="M150.6,655.4c23.3,0.1,46.6,0.2,69.9,0.2c12.9,0,25.9,0.1,38.8,0.1c-0.8,2.9-3.2,1.9-5,1.9c-34.1,0-68.3,0-102.3,0
	c-1.8,0-4.2,0.8-4.9-1.9C148.2,655.6,149.4,655.5,150.6,655.4z"/>
<path d="M594.3,409.5c-2.9-8.4-7.3-13-15.9-15.7c8.2-3,13.3-6.8,15.7-14c3.2,6.5,7.5,11.2,14.3,13.9
	C601.6,396.6,597.1,401.1,594.3,409.5z M600.6,393.5c-3.2-1.1-4.5-3.8-6.9-6.3c-0.8,3.7-3.7,4.8-6.2,7.2c3.8,0.5,4.7,3.5,7.2,5.6
	C595.6,397,598.3,395.8,600.6,393.5z"/>
<path d="M438.2,174.9c-0.6,4.2-2.7,6.8-6.9,6.7c-3.8-0.1-6.3-2.6-6.3-6.6c0-3.8,2.3-6.5,6.2-6.6
	C435.2,168.3,437.6,170.8,438.2,174.9z"/>
<path d="M567.5,350.7c-4.1-0.4-6.7-2.7-6.6-6.8c0.1-4.1,2.6-6.6,6.8-6.5c4.3,0.1,6.7,2.6,6.7,6.7
	C574.5,348.1,571.8,350.5,567.5,350.7z"/>
<path d="M617.7,205.7c0,4.4-4.2,8.4-8.6,8.2c-4.3-0.2-7.9-3.9-7.9-8.2c0-4.5,3.8-8.2,8.5-8.1C614,197.7,617.7,201.5,617.7,205.7z
	 M609.5,200.9c-3.1,0.2-4.8,1.8-4.8,4.9c0,2.9,1.8,4.5,4.4,4.7c3,0.1,5-1.6,5.1-4.5C614.4,202.8,612.5,201.2,609.5,200.9z"/>
<path d="M128.6,435.1c0.7,20.6,1,41.2-0.1,61.8c-1.7-1.8-1.6-3.9-1.6-6.2c0-16.5,0-33,0-49.6C126.8,438.9,126.7,436.8,128.6,435.1z"
	/>
<path d="M139.3,649.3c-2.6-1-1.8-3.2-1.8-5.1c0-36.1,0-72.1,0-108.2c0-1.7-0.6-3.7,1.2-5c0.1,36.8,0.1,73.6,0.2,110.4
	C138.9,644.1,139.1,646.8,139.3,649.3z"/>
<path d="M233.1,340.1c-5.6,0.1-8.1-2-8-6c0-3.9,2.9-6.1,6.7-6c3.6,0.1,6.1,1.9,6.2,5.7C238.1,338,235.6,339.9,233.1,340.1z"/>
<path d="M51.2,673.3c3.7,0.5,6.5,2,6.3,6.2c-0.1,3.8-2.4,5.6-6.1,5.7c-4.1,0.1-6.7-1.9-6.8-5.7C44.5,675.7,47.2,673.7,51.2,673.3z"
	/>
<path d="M386.1,328.3c-0.7,2.5-2.7,1.9-4.4,1.9c-15.4,0-30.8,0-46.3,0c-1.7,0-3.7,0.5-4.3-2C349.4,328.3,367.8,328.3,386.1,328.3z"
	/>
<path d="M138.9,511.9c-0.4,3.7-2.3,6-6.1,5.9c-3.7-0.1-5.9-2.6-5.9-6.2c0.1-3.6,2.3-6,6.1-5.9C137,505.8,138.8,508.1,138.9,511.9z"
	/>
<path d="M138.7,494c-1.6-1.2-1.2-2.9-1.2-4.4c0-17.9,0-35.7,0.1-53.7c1.4,0.6,1.3,1.9,1.3,3C138.8,457.3,138.7,475.6,138.7,494z"/>
<path d="M461.3,129.2c-1.8-0.5-4.9,1.2-5-2.4c-0.1-4.2,3.3-2.5,5.3-2.5c1.8,0,4.9-1.4,5,2.2C466.8,130.4,463.3,128.7,461.3,129.2z"
	/>
<path d="M486.1,124.1c2,0.8,5.1-1.3,5.4,2.3c0.2,4.1-3.1,2.7-5.1,2.7c-2,0-5.5,1.2-5.3-2.7C481.4,122.8,484.6,125,486.1,124.1z"/>
<path d="M476.5,114.1c-0.6,2,1.2,5.5-2.9,5.3c-3.2-0.2-2.2-3.3-2.2-5.3c0-2-1.4-5.4,2.7-5.1C477.8,109.2,475.7,112.4,476.5,114.1z"
	/>
<path d="M471.3,138.9c0.5-1.9-1.1-5,2.5-4.9c4.1,0,2.3,3.5,2.4,5.4c0.1,1.9,1.2,5-2.3,4.9C470,144.3,471.9,140.8,471.3,138.9z"/>
<path d="M100.4,485.3c-1.7-1-3.5-1.9-2.7-3.2c1.4-2.7,3.6-5.3,6.6-6.3c1.2-0.5,3,1.3,2.5,2.5C105.5,481.3,102.6,483,100.4,485.3z"/>
<path d="M118.8,393.5c-1.7-0.6-1.7-2-1.7-3.5c0-13.1,0-26.3,0-39.4c0-1.4-0.1-2.9,1.6-3.6C118.7,362.5,118.8,378.1,118.8,393.5z"/>
<path d="M107,499.3c-0.5,2-1.6,3.6-2.9,3c-3-1.2-5.1-3.7-6.5-6.6c-0.4-0.8,1.2-3,2.6-2.5C103.3,494.4,104.8,497.4,107,499.3z"/>
<path d="M487.6,137.3c-0.7,1.6-1.9,3.3-3,2.6c-2.7-1.7-5.7-3.5-6.2-7.1c-0.1-1,1.3-2.5,2.4-2C483.7,132.2,485.7,134.9,487.6,137.3z"
	/>
<path d="M469.9,133.5c-1.7,2.5-3.8,4.9-6.6,6.5c-1.3,0.7-3.1-1.1-2.7-2.3c0.8-3.1,3.6-5.1,6.2-6.8
	C468.1,130.2,469.2,132,469.9,133.5z"/>
<path d="M82.2,475.1c2.9,1.8,5.3,4.1,6.8,6.7c0.8,1.4-1.2,3-2.2,2.7c-3.2-0.7-5.1-3.5-6.8-6.1C79.2,477,81.2,476.3,82.2,475.1z"/>
<path d="M95.9,476.2c-0.8,2.2,1.4,5.6-2.6,5.6c-3.5,0-2.3-3.1-2.3-5c0.1-2-1.6-5.4,2.4-5.4C97.2,471.4,94.8,474.8,95.9,476.2z"/>
<path d="M95.7,501.7c-0.6,1.9,1.2,5-2.3,5.1c-3.9,0-2.4-3.3-2.4-5.4c0-1.8-1.3-4.9,2.2-5C97.3,496.4,94.9,499.9,95.7,501.7z"/>
<path d="M80.6,491.6c-2-0.4-5.1,1-4.9-2.5c0.1-3.8,3.6-2.2,5.5-2.3c1.8-0.1,4.9-1.4,4.8,2.3C85.8,493.1,82.4,490.9,80.6,491.6z"/>
<path d="M105.7,486.5c2,0.8,5.1-1.2,5.4,2.3c0.2,4.1-3.2,2.6-5.3,2.6c-2,0-5.5,1.4-5.1-2.6C100.9,485.3,104.1,487.6,105.7,486.5z"/>
<path d="M466.6,122.5c-2.3-1.9-5.1-3.7-6.1-6.7c-0.5-1.3,1.8-3,2.6-2.5c2.7,1.6,5.4,3.6,6.5,6.6C470,121.2,468.3,122,466.6,122.5z"
	/>
<path d="M487.3,116.2c-2,2.2-3.7,4.9-6.7,6c-1.2,0.5-3-1.3-2.4-2.5c1.2-2.9,3.7-5.1,6.5-6.5C485.5,113,487.1,114.4,487.3,116.2z"/>
<path d="M89.4,495.7c-2.2,2.7-3.9,5.5-6.9,6.6c-1.3,0.5-3-1.4-2.4-2.6c1.4-2.7,3.6-5.3,6.7-6.2C87.4,493.3,88.5,494.9,89.4,495.7z"
	/>
<path d="M131.5,498.8c1.4-1.8,3.2-1.1,5-1C135.1,499.4,133.4,499.4,131.5,498.8z"/>
<path d="M128.7,497.2c0.1-0.1,0.2-0.2,0.5-0.2c0.1,0,0.2,0.2,0.2,0.2c0,0.1-0.2,0.2-0.2,0.4C128.9,497.6,128.7,497.5,128.7,497.2z"
	/>
<path d="M136.4,497.8c0.5-0.5,1-1,1.3-1.4C137.2,497,136.9,497.4,136.4,497.8z"/>
<path d="M130.1,433.8c-0.1,0.8-0.6,1.2-1.4,1.2C129.1,434.6,129.6,434.1,130.1,433.8z"/>
<path d="M139.3,417.8c-0.5-1,0.2-1.3,0.7-1.9l0.2,0.4l-0.4,0.2c0.1,0.2,0.1,0.6,0.2,0.8c-0.2,0.2-0.4,0.4-0.5,0.6
	C139.5,417.9,139.3,417.8,139.3,417.8z"/>
<path d="M68.1,674.3c-0.1,0.6-0.4,1.1-1.1,0.5C67.4,674.6,67.8,674.5,68.1,674.3z"/>
<path d="M156.7,667.8c0,0.4-0.1,0.6-0.1,1c-0.5-0.4-0.8-0.7-1.3-1C155.7,667.7,156.2,667.7,156.7,667.8z"/>
<path d="M451.7,427.1c0-2.4,0-4.8,0.1-7.1c0-0.8,0-1.7,0-2.5l0.4,0.1c3,0.6,2,3,2,4.8c0,59.6,0,119.3,0,179.1c0,1.8,0.7,4.2-1.9,5
	c-0.1-14.5-0.2-29-0.2-43.5c0-42.7,0-85.5,0-128.1c0-2.2-0.1-4.3-0.2-6.6C451.7,427.8,451.7,427.4,451.7,427.1z"/>
<path d="M335.8,655.4c0-0.4,0.1-0.8,0.1-1.2c33.9,0,67.9,0,101.8,0.1c2.3,0,4.8-0.8,6.8,1l0.1,0.5c-36.3,0-72.6,0.1-108.9,0.1
	L335.8,655.4z"/>
<path d="M458.2,630.5c-3.7-0.2-6-2.3-6.1-5.9c-0.1-3.7,2-6.1,5.7-6.2c3.7-0.1,6,2.2,6,5.9C463.9,628,461.9,630,458.2,630.5z"/>
<path d="M451.7,606.4c0,0.4,0.1,0.8,0.1,1.2C451.1,607.2,450.9,606.9,451.7,606.4z"/>
<path d="M451.7,427.1c0,0.4,0,0.8,0,1.2c-0.4-0.4-0.7-0.8-1.1-1.2C451,427.1,451.4,427.1,451.7,427.1z"/>
<path d="M272.4,655.4c-2.9-0.6-2.3-2.9-2.3-4.8c0-73.4,0-146.9,0-220.3c0-1.7-0.6-3.7,1.9-4.4c0.1,0.4,0.4,0.7,0.5,1.2
	c-0.1,0.8-0.2,1.6-0.2,2.4C272.3,504.8,272.4,580.1,272.4,655.4z"/>
<path d="M329.7,484.6c1.7,2.5,1.2,5.4,1.2,8.1c0,54.3,0.1,108.5,0.1,162.7c-2.9-0.6-2.2-3-2.2-4.8c0-54,0-108.1,0-162.1
	C328.7,487.1,328.5,485.6,329.7,484.6z"/>
<path d="M318.7,345.7c-12.3,0-24.6,0.1-37.1,0c-2.5,0-4.9-0.1-4.9,3.3c-1.4-0.2-2.9-0.6-4.3-0.8l-0.4,0.1c0.6-8.4,0.6-8.4,9.4-8.4
	c10.8,0,21.5,0.2,32.2-0.1C318.4,339.7,319.7,341.4,318.7,345.7z"/>
<path d="M335.9,655.9c36.3,0,72.6-0.1,108.9-0.1c-0.7,2.7-3,2-4.9,2c-33,0-66,0-99,0C339,657.8,336.7,658.6,335.9,655.9z"/>
<path d="M125.6,400.2c36.5,0.1,72.8,0.1,109.3,0.2c8.1,0,16.4,0.1,24.5,0.1c-1.6,2.3-4.1,1.3-6.1,1.3c-40.4,0-80.9,0.1-121.3,0
	C129.8,402,127.1,403.2,125.6,400.2z"/>
<path d="M333.5,400.7c0.8-0.1,1.6-0.4,2.4-0.5c27.6,0.1,55.1,0.2,82.7,0.2c15.4,0,31,0,46.4,0c-1.2,2.4-3.5,1.6-5.3,1.6
	c-40.2,0-80.4,0-120.6,0C337.1,402,334.9,402.6,333.5,400.7z"/>
<path d="M330.5,345.8c0.1,17.9,0.1,35.7,0.2,53.7c-1.8-0.4-2-1.6-2-3.1c0-16,0-31.9,0-47.9C328.7,347.2,329.2,346.2,330.5,345.8z"/>
<path d="M277.3,656c13.5,0,27,0,40.5-0.1c-0.4,1.8-1.7,1.9-3.2,1.9c-11.4,0-22.7,0-34.1,0C279.1,657.8,277.8,657.7,277.3,656z"/>
<path d="M125.1,398.7c0.4,0,0.6,0,1,0c-0.2,0.2-0.4,0.5-0.6,0.8l-0.5-0.2L125.1,398.7z"/>
<path d="M276.1,655.4c0-0.4,0-0.7,0-1.2c0.2,0,0.6,0,0.8-0.1c0.1,0.4,0.2,0.8,0.2,1.2C277,655.4,276.5,655.4,276.1,655.4z"/>
<path d="M600.6,393.5c-2.5,2.3-5,3.5-5.9,6.5c-2.6-2-3.5-5.1-7.2-5.6c2.5-2.5,5.4-3.6,6.2-7.2C596.1,389.7,597.4,392.4,600.6,393.5z
	"/>
<path d="M609.5,200.9c3,0.2,4.9,1.9,4.7,4.9c-0.1,3-2.2,4.8-5.1,4.5c-2.6-0.1-4.4-1.8-4.4-4.7C604.7,202.7,606.5,201.2,609.5,200.9z
	"/>
<path d="M318.9,453.9c0-4.5,0-9.2,0-13.7c0-4.1,1.3-7.2,6-7.2c4.3,0,6,2.9,6,6.7c0.1,9.6,0.1,19.1,0,28.7c0,3.8-1.9,6.7-6.1,6.6
	c-4.2,0-5.9-2.7-5.9-6.7C318.9,463.4,318.9,458.6,318.9,453.9z"/>
</svg>
