<?xml version="1.0" encoding="utf-8"?>
<!-- Generator: Adobe Illustrator 17.0.0, SVG Export Plug-In . SVG Version: 6.00 Build 0)  -->
<!DOCTYPE svg PUBLIC "-//W3C//DTD SVG 1.1//EN" "http://www.w3.org/Graphics/SVG/1.1/DTD/svg11.dtd" [
	<!ENTITY ns_flows "http://ns.adobe.com/Flows/1.0/">
	<!ENTITY ns_extend "http://ns.adobe.com/Extensibility/1.0/">
	<!ENTITY ns_ai "http://ns.adobe.com/AdobeIllustrator/10.0/">
	<!ENTITY ns_graphs "http://ns.adobe.com/Graphs/1.0/">
]>
<svg version="1.1" id="Layer_1" xmlns:x="&ns_extend;" xmlns:i="&ns_ai;" xmlns:graph="&ns_graphs;"
	 xmlns="http://www.w3.org/2000/svg" xmlns:xlink="http://www.w3.org/1999/xlink" xmlns:a="http://ns.adobe.com/AdobeSVGViewerExtensions/3.0/"
	 x="0px" y="0px" width="612px" height="792px" viewBox="0 0 612 792" style="enable-background:new 0 0 612 792;"
	 xml:space="preserve">
<g transform="matrix(2.083 0 0 2.083 -1940.1 -934.13)">
	<path style="fill:none;stroke:#000000;stroke-miterlimit:10;" d="M1194.2,641.5c-0.2,0.2-0.5,0.5-0.7,0.7c-0.6,0.5-1.1,1.1-1.6,1.6
		c-1.3,1.2-2.3,2.2-2.3,2.2"/>
	<path style="fill:none;stroke:#000000;stroke-miterlimit:10;" d="M1195.4,626.2c1.6-2.6,5-7.5,7.9-10c2-1.8,4.3-3.3,6.9-3.9
		c1.4-0.4,3.2-0.6,4.2,0.4c1.2,1.2,1.2,3.3,0.7,5c-0.8,3.7-3.9,6.7-6.5,9.6c-1.1,1.3-2.3,2.6-3.5,3.8"/>
	<path style="fill:none;stroke:#000000;stroke-miterlimit:10;" d="M949.7,587.9c-1.7,31.8,5.5,28-8.6,93.8l4.4-6.9
		c0,6.5-1.1,11-3.1,13.9c1.9-2.6,3.8-4.9,5.7-8.5c1.9,3.1-0.2,11.6-0.6,17.9c10.8-39.8,13-72.4,5-108.8"/>
	<path style="fill:none;stroke:#000000;stroke-miterlimit:10;" d="M1192.7,627.9l-4.5,2.4l1.9,0.5c-0.8,0.7-1.8,1.8-2.7,2.9
		c-9.2-11.5-20.6-21.3-31.1-31.6c-12.1-11.8-24.4-23.7-38-33.5l-1.1-3.1c0,0,3.5,3.2,4.2,4.3c-0.1-0.7,0.1-2.7,0.1-2.7l2.6,4.1
		l1.2-2.6l4.3,6.7l1-3.8c0,0,3.6,7.8,3.7,7.4c0.2-0.4,1.3-5.6,1.3-4.7s1.6,9.1,1.8,8.6c0.2-0.6,3.1-7.1,3.1-7.1s1.8,9.2,1.7,8.6
		c-0.1-0.7,2.7-6.8,2.7-6.8l1.6,11.1l4.4-7.3l-2.3,9.7l9.1-5.1l-5.4,8.1l9.1-2.9l-4.3,5.4l7.3-1.1c0,0-8.1,4.4-6.6,4.4
		c1.7,0,12-0.4,12-0.4l-7.9,3.6l13.6-1l-7.9,3.2l8.6,1c0,0-8.2,3.1-7.2,3.1s12.8,1.2,12.8,1.2l-7.5,3.5l14.1,2.3l-9,3.3l10.4,0.7
		c0,0-6.9,2.7-6.2,2.9c0.7,0.2,11.2,1.3,11.2,1.3l-7.3,3L1192.7,627.9z"/>
	<path style="fill:none;stroke:#000000;stroke-miterlimit:10;" d="M1203.8,644.1l-9.2-0.4l-2.6-0.1h-1.6c0.8-0.7,1.9-1.3,3-1.8
		c0.4-0.1,0.6-0.2,1-0.4l0,0c0.8-0.7,1.6-1.6,2.3-2.2l1,0.7L1203.8,644.1z"/>
	<path style="fill:none;stroke:#000000;stroke-miterlimit:10;" d="M1200.3,688c-0.2-8.1,2.5-16.4,1.3-24.5c-0.8-6.3-3-12.7-6.2-18.3
		c-0.2-0.5-0.6-1-0.8-1.4l-2.6-0.1h-1.6c-0.2,0.2-0.5,0.5-0.7,0.7c-1.3,1.4-0.7,4.9-2.6,5.4c-2.5,0.7-5.1,1.7-4.7-3.6
		c0.1-1.4,1-4.9,2.2-7.9c0.4-1,0.8-1.9,1.3-2.7c0.4-0.6,0.8-1.3,1.4-1.9c-9.2-11.5-20.6-21.3-31.1-31.6
		c-12.1-11.8-24.4-23.7-38-33.5c-1.6-1.1-3.1-2.2-4.7-3.2c-5.1-3.5-10.5-6.9-16.6-8.2c-21-4.5-42.9,2-64.3,2.3
		c-15.4,0.1-31-3.1-46.1-0.7c-14.9,2.4-33.5,11.8-36.7,29.4c-0.2,1.4-0.4,2.9-0.1,4.4l0,0l0,0l0,0c0.5,5.4,3.3,11.1,6.6,17.2
		c3,5.5,6.2,11.2,8.5,17.1c0.7,0.7,1.3,1.4,1.9,2c2.9,2.6,6,5.4,9.7,6.3c3.2,0.8,7.2,1.1,9.9-0.7c3-2,3.8-6.2,4.8-9.7
		c0.4-1.3,0.4-3.9,0.4-3.9s4.1,6.2,7.3,7.8c5.3,2.6,11.7,2.2,17.6,1.7c6.7-0.5,13-3.2,19.6-4.5c10.2-2,20.8-2.2,30.5-5.5
		c4.1-1.4,11.2-6.1,11.2-6.1s-3.8,6-4.8,9.3c-0.8,3-1.6,6.1-1,9.2c0.5,2,3,5.5,3,5.5s6.8,0,10-0.6c3.6-0.6,6.8-2.4,10.3-3.2
		c4.2-1,8.4-1.9,12.6-1.9c4.4,0,10.6,1.4,13.1,1.7c0.4,0,1.6,0.6,2.7,1.2c12.6-1.8,24.7,17,36.5,23.3c0,0-3.1,4.1-3.6,6.6
		c-1,5.3,0,11,2.4,15.8c1.7,3.2,5.7,4.5,7.7,7.7c1.8,2.7,1.4,6.5,3.2,9.2c1.4,2.2,5.7,5.5,5.7,5.5s-0.8,3.9-0.1,5.5
		c1.2,2.4,4.1,3.1,6.7,3.8c3.5,1,7.5,0.8,10.9-0.6c3.8-1.6,7.5-4.5,9-8.5C1203.7,698.4,1200.5,693,1200.3,688z M1193.7,674.8v0.1
		c0,0.1,0,0.2,0,0.2v0.1l0,0c0,0.1,0,0.2,0,0.4l0,0c0,0.1,0,0.1,0,0.2c0,0.2,0.1,0.5,0.1,0.7v0.1l0,0c0,0.1,0,0.1,0,0.1s0,0,0-0.1
		s0-0.1,0-0.1s0-0.1,0-0.2c0-0.1,0-0.1-0.1-0.2c0-0.1,0-0.1-0.1-0.2v-0.1v-0.1c0-0.1-0.1-0.2-0.1-0.4s-0.1-0.2-0.1-0.4
		c-0.1-0.1-0.1-0.4-0.2-0.5c0-0.1-0.1-0.2-0.1-0.2c-0.1-0.4-0.4-0.7-0.6-1c0,0,0-0.1-0.1-0.1l0,0l-0.1-0.1c-1.3-1.1-3.5-0.6-4.9-1.4
		c-1-0.6-2.4-2.5-2.4-2.5s1.9,0.7,3,1.1c2,0.6,5-0.2,6.2,1.4c0.6,0.8-0.2,1.9-0.2,2.9C1193.7,674.6,1193.7,674.7,1193.7,674.8z"/>
	<path style="fill:none;stroke:#000000;stroke-miterlimit:10;" d="M1140.9,721.9h-14.1c-3.3-6.7-5.5-6.2-1.4-12c0,0-2.9-0.4-4.5-1.2
		c-0.2-0.1-0.5-0.4-0.7-0.5c-2.3-2.4-2.3-6.2-2.4-9.6c-0.1-1.9,0.6-3.7,0.7-5.6c0.1-4.5,0.2-9.2-0.7-13.6c-0.8-3.8-3.3-7.2-4.3-11
		c-0.7-2.7-0.1-5.7-1.1-8.5c-1.6-4.3-5.1-7.5-7.5-11.5c-1.2-2.2-3.3-6.6-3.3-6.6l0,0l-3.3,0.5l-2,0.4l0,0
		c-0.1,0.4-6.2,14.2-8.7,21.4c-2.4,7.1-2.3,15.1-6,21.5c-0.6,1.1-2.3,1.4-2.4,2.6c-1.6,8-2.5,14-2.6,20.7c0,2.3,1.1,6.8,1.1,6.8
		c4.2,2.2,6.2,6.7,8.2,10.9h-19.2c0,0-0.7-3.8-0.4-6c0.2-1.8,1.8-5.1,1.8-5.1s-3-2-4.7-4.2c-0.4-0.5-0.7-1.1-1-1.6
		c-1.7-4.3,6.2-13.6,7.1-20.9c0.6-4.8-1.9-9.7-1.2-14.6c0.8-5.6,5.1-10.3,6.1-15.8c0.7-4.1-0.4-12.2-0.4-12.2l0,0
		c-12,1.9-21.4,2.5-30.1,2c-1.1,0-2-0.1-3-0.2c-0.6,0-1.3-0.1-1.9-0.1c-1-0.1-2-0.2-3-0.4c-0.8-0.1-1.7-0.2-2.6-0.4c0,0,0,0-0.1,0
		c-8.8-1.3-17.8-3.5-29.3-6.5c-0.2,0-0.4-0.1-0.5,0c-0.1,0-0.1,0-0.2,0c-1.2,0.4-1.7,2.4-2.2,3.3c-4.9,8.6-9,17.2-13.9,25.8
		c-0.2,3.7-1.7,6.1-3.7,9.1c1.8,9.7,3.5,19.5,5.7,28.7c1.8,1.7,3.5,3.2,4.8,4.9c2.2,2.6,3.8,5.5,4.5,9.2h-17v-4.1
		c-1.7-2.3-2.3-6.2-2.4-9.1c0-0.7,0-1.4,0-1.9c0.5-10.5-5.4-17.8-8.4-29.5l0,0c-0.2,0.2-1.7,1.8-1.9,2.9c-1.2,8.1,7.4,15.3,7.5,23.5
		c0,2-1.8,5.9-1.8,5.9c0.2,2.7-0.1,5.3-0.8,7.5c-1.3,3.8-3.7,7.1-6.3,9.6l0,0c-2.4-4.7-4.8-8.6-7.2-13.1c1.2-1.6,1.8-2.4,3.2-2.6
		c0.1,0,0.2,0,0.4,0c0.1,0,0.2,0,0.4,0l0,0c0.1,0,0.2,0,0.4,0c0,0,0,0,0.1,0h0.2c0,0-1.4-3-1.7-4.7c-0.2-2,0.2-3.9,0.7-6
		c0.5-1.8,0.8-3.6,0.6-5.4c-1-8-5.9-15.1-9-22.6c-0.4-1-0.7-1.9-1.1-2.9c-0.6-1.8-1.1-3.6-1.3-5.4c-0.2-1.9-0.6-4.2,0.6-5.7
		c0.7-1,1.7-1.8,2.7-2.6c1.8-1.6,3.9-3,5.9-4.9c2.4-2.3,4.3-5.1,4.9-9.4c0.7-4.9-0.4-9.8-2.3-14.7c0.7,0.7,1.3,1.4,1.9,2
		c2.9,2.6,6,5.4,9.7,6.3c3.2,0.8,7.2,1.1,9.9-0.7c3-2,3.8-6.2,4.8-9.7c0.4-1.3,0.4-3.9,0.4-3.9s4.1,6.2,7.3,7.8
		c5.3,2.6,11.7,2.2,17.6,1.7c6.7-0.5,13-3.2,19.6-4.5c10.2-2,20.8-2.2,30.5-5.5c4.1-1.4,11.2-6.1,11.2-6.1s-3.8,6-4.8,9.3
		c-0.8,3-1.6,6.1-1,9.2c0.5,2,3,5.5,3,5.5s6.8,0,10-0.6c3.6-0.6,6.8-2.4,10.3-3.2c4.2-1,8.4-1.9,12.6-1.9c4.4,0,10.6,1.4,13.1,1.7
		c0.4,0,1.6,0.6,2.7,1.2c-0.1,0-0.1,0-0.2,0s-0.2,0-0.5,0.1c0,0-1,7.1-0.5,10.5c0.8,6.1,4.3,11.6,5.5,17.6c0.7,3.6,0.7,7.3,0.8,11
		c0.2,6.6-1.1,13.1,0.2,19.6c0.4,1.7,1.6,3.2,1.9,4.9c0.2,1.1-0.2,2.3,0.1,3.2c0.8,2.7,4.5,7.3,4.5,7.3l0,0
		C1139.7,711.3,1140.5,717.7,1140.9,721.9z"/>
	<path style="fill:none;stroke:#000000;stroke-miterlimit:10;" d="M1194.5,643.8l-2.6-0.1h-1.6c0.8-0.7,1.9-1.3,3-1.8
		c0.1,0.1,0.1,0.2,0.2,0.2C1193.9,642.7,1194.2,643.2,1194.5,643.8z"/>
	<path style="fill:none;stroke:#000000;stroke-miterlimit:10;" d="M1193.7,674.6c0,0.8,0.2,2.3,0.2,2.5c-0.1-0.2-0.8-3-1.9-3.8
		c-1.3-1.1-3.5-0.6-4.9-1.4c-1-0.6-2.4-2.5-2.4-2.5s1.9,0.7,3,1.1c2,0.6,5-0.2,6.2,1.4C1194.5,672.6,1193.7,673.6,1193.7,674.6z"/>
	<path style="fill:none;stroke:#000000;stroke-miterlimit:10;" d="M1193.7,674.6c0,0.8,0.2,2.3,0.2,2.5c-0.1-0.2-0.8-3-1.9-3.8
		c-1.3-1.1-3.5-0.6-4.9-1.4c-1-0.6-2.4-2.5-2.4-2.5s1.9,0.7,3,1.1c2,0.6,5-0.2,6.2,1.4C1194.5,672.6,1193.7,673.6,1193.7,674.6z"/>
	<path style="fill:none;stroke:#000000;stroke-miterlimit:10;" d="M1124.8,698.7c-0.1,2.9-0.7,6-2.5,8.2c-0.5,0.6-1,1.2-1.4,1.8l0,0
		c-0.2-0.1-0.5-0.4-0.7-0.6c-2.3-2.4-2.3-6.2-2.4-9.6c-0.1-1.9,0.6-3.7,0.7-5.6c0.1-4.5,0.2-9.2-0.7-13.6c-0.8-3.8-3.3-7.2-4.3-11
		c-0.7-2.7-0.1-5.7-1.1-8.5c-1.6-4.3-5.1-7.5-7.5-11.5c-1.2-2-3.2-6.2-3.3-6.6l0,0l-3.3,0.5l-2,0.4l0,0c0,0-1.9,4.2-3.9,9.1
		l-0.6-0.1c-3.7,1.8-6.9,1-10.9,0.4c0,0-1.1,6.8-1.7,8c-1.2,2.4-4.9,8.4-6.7,12.9c-0.8,2-1.6,4.1-1.7,6.3c-0.2,2.5,0.6,5,0.7,7.7
		c0.2,3.2,0.8,6.6,0.2,9.7c-0.6,3.2-3.8,9-3.8,9c-0.5,1-0.7,4.2-4.4,5.5h-0.1l0,0c-0.4-0.5-0.7-1.1-1-1.6
		c-1.7-4.3,6.2-13.6,7.1-20.9c0.6-4.8-1.9-9.7-1.2-14.6c0.8-5.6,5.1-10.3,6.1-15.8c0.7-3.9-0.4-11.8-0.5-12.2l0,0
		c-12,1.9-21.4,2.5-30.1,2c-1.1,0-2-0.1-3-0.2c-0.6,0-1.3-0.1-1.9-0.1c-1-0.1-2-0.2-3-0.4c-0.8-0.1-1.7-0.2-2.6-0.4c0,0,0,0-0.1,0
		c-8.8-1.3-17.8-3.5-29.3-6.5c-0.2,0-0.4-0.1-0.5,0c-0.1,0-0.1,0-0.2,0c-1.2,0.4-1.7,2.4-2.3,3.3c-4.9,8.6-9,17.2-13.9,25.8
		c-0.2,3.7-1.7,6.1-3.7,9.1c1.8,9.7,3.5,19.5,5.7,28.7c0.4,0.2,0.6,0.6,1,0.8c-3.6,0.7-7.1,0.6-10.9,0.1l0,0c0-0.7,0-1.4,0-1.9
		c0.5-10.5-5.4-17.8-8.4-29.5l0,0c0,0-1.8,1.7-1.9,2.9c-1.2,8.1,7.4,15.3,7.5,23.5c0,0.4,0,0.6-0.1,1c-1.2-3.9-7.7-2.4-12.4-4.5l0,0
		c0.5-1.8,0.8-3.6,0.6-5.4c-1-8-5.9-15.1-9-22.5l0,0c0.8-1.6,1.6-3,2.2-4.1c1.9-3.3,5.7-6.1,6.3-9.9c0.4-2.5-0.7-5-1.8-7.5l0,0
		c2.4-2.3,4.3-5.1,4.9-9.4c0.7-4.9-0.5-9.9-2.3-14.8c0,0,0,0.1,0.1,0.1c0.7,0.7,1.3,1.4,1.9,2c2.9,2.6,6,5.4,9.7,6.3
		c3.2,0.8,7.2,1.1,9.9-0.7c3-2,3.8-6.2,4.8-9.7c0.4-1.3,0.4-3.9,0.4-3.9s4.1,6.2,7.3,7.8c5.3,2.6,11.7,2.2,17.6,1.7
		c6.7-0.5,13-3.2,19.6-4.5c10.2-2,20.8-2.2,30.5-5.5c4.1-1.4,11.2-6.1,11.2-6.1s-3.8,6-4.8,9.3c-0.8,3-1.6,6.1-1,9.2
		c0.5,2,3,5.5,3,5.5s6.8,0,10-0.6c3.6-0.6,6.8-2.4,10.3-3.2c4.2-1,8.4-1.9,12.6-1.9c4.4,0,10.6,1.4,13.1,1.7c0.4,0,1.6,0.6,2.7,1.2
		l0,0c-0.1,0-0.2,0-0.2,0c-0.1,0-0.2,0-0.5,0.1l0,0c0,0-1,7.1-0.5,10.5c0.4,2.6,1.2,5.1,2.2,7.7c-0.2,1-0.6,1.9-1.1,2.7
		c-1.1,2-3.5,3.2-4.4,5.4c-1.2,2.7-1.3,6-1,9c0.2,2.5,1.3,4.8,2.3,7.1c0.7,1.7,2,3.2,2.5,4.9c0.7,2.7,0.2,5.7,0.6,8.6
		C1123.7,693.6,1124.9,696.1,1124.8,698.7z"/>
	<path style="fill:none;stroke:#000000;stroke-miterlimit:10;" d="M1205.5,630c-0.1,0.4-0.1,0.6-0.2,1l0,0c-2.5,2.5-5.3,4.9-7.8,7.4
		c-0.2,0.2-0.6,0.6-1,1c-0.7,0.7-1.4,1.4-2.3,2.2l0,0c-0.4,0.1-0.6,0.2-1,0.4c-1.1,0.5-2.2,1.1-3,1.8c-0.2,0.2-0.5,0.5-0.7,0.7
		c-1.3,1.4-0.7,4.9-2.6,5.4c-2.5,0.7-5.1,1.7-4.7-3.6c0.1-1.4,1-4.9,2.2-7.9c0.4-1,0.8-1.9,1.3-2.7c0.4-0.6,0.8-1.3,1.4-1.9
		c0.8-1.1,1.9-2.2,2.7-2.9c0.4-0.4,0.7-0.6,1-0.7c0.7-0.5,2.5-2.3,4.5-3.7c1.1-0.7,2.2-1.4,3.2-1.8c1.8-0.6,4.3-1.4,5.7-0.2
		C1206,625.4,1206,628.1,1205.5,630z"/>
	<path style="fill:none;stroke:#000000;stroke-miterlimit:10;" d="M1205.2,631c-1.1,3.1-3.6,5.6-6,7.8c-0.5,0.5-1.1,0.8-1.7,1.2
		c-1.1,0.6-2.2,1.1-3.2,1.6c0.8-0.7,1.6-1.6,2.3-2.2c0.4-0.4,0.7-0.6,1-1C1200.1,635.9,1202.7,633.5,1205.2,631z"/>
	<path style="fill:none;stroke:#000000;stroke-miterlimit:10;" d="M1125.3,710.1c-3.8,5.5-1.7,5.1,1.6,11.7h14.1
		c-0.6-4.2-1.2-10.6-5.4-12.4C1132.2,710.5,1128.4,710.1,1125.3,710.1L1125.3,710.1z M964.2,710.8c-2.2,0-2.9,0.8-4.3,2.7
		c2.4,4.7,4.8,8.6,7.2,13.3c2.6-2.5,5-5.7,6.3-9.6c-1.6-4.9-3.8-4.8-8.5-5.9L964.2,710.8z M993.7,712.7c-3.5,3.7-8.5,4.5-12.4,5.5
		v3.6h17C997.5,718.2,995.8,715.4,993.7,712.7L993.7,712.7z M1067.8,715.6c0,0-1.6,3.3-1.8,5.1c-0.2,2.2,0.4,6,0.4,6h19.2
		c-2-4.2-4.2-8.7-8.4-10.9C1075,716.9,1069.1,715.1,1067.8,715.6L1067.8,715.6z"/>
</g>
</svg>
