<?xml version="1.0" encoding="utf-8"?>
<!-- Generator: Adobe Illustrator 17.0.0, SVG Export Plug-In . SVG Version: 6.00 Build 0)  -->
<!DOCTYPE svg PUBLIC "-//W3C//DTD SVG 1.1//EN" "http://www.w3.org/Graphics/SVG/1.1/DTD/svg11.dtd" [
	<!ENTITY ns_flows "http://ns.adobe.com/Flows/1.0/">
	<!ENTITY ns_extend "http://ns.adobe.com/Extensibility/1.0/">
	<!ENTITY ns_ai "http://ns.adobe.com/AdobeIllustrator/10.0/">
	<!ENTITY ns_graphs "http://ns.adobe.com/Graphs/1.0/">
]>
<svg version="1.1" id="Layer_1" xmlns:x="&ns_extend;" xmlns:i="&ns_ai;" xmlns:graph="&ns_graphs;"
	 xmlns="http://www.w3.org/2000/svg" xmlns:xlink="http://www.w3.org/1999/xlink" xmlns:a="http://ns.adobe.com/AdobeSVGViewerExtensions/3.0/"
	 x="0px" y="0px" width="612px" height="792px" viewBox="0 0 612 792" style="enable-background:new 0 0 612 792;"
	 xml:space="preserve">
<path style="fill:none;stroke:#000000;stroke-miterlimit:10;" d="M1.9,200L1.9,200c197.8-126.2,412.6-22.5,608.8-37.5"/>
<path style="fill:none;stroke:#000000;stroke-miterlimit:10;" d="M2.7,203.1L2.7,203.1c197.2-116.7,412,27.1,607.5,13.1"/>
<path style="fill:none;stroke:#000000;stroke-miterlimit:10;" d="M2,251.6L2,251.6c201.1-94,409.5-22.8,608.7-34.1"/>
<path style="fill:none;stroke:#000000;stroke-miterlimit:10;" d="M543.1,509.1v166.7h36.1V509.1H543.1z M568.6,636.4l-1.9,5.4
	l-5.6,1.1l-3.7-4.3l1.9-5.4l5.6-1.1L568.6,636.4z M567.5,574l-1.9,5.4l-5.6,1.1l-3.7-4.3l1.9-5.4l5.6-1.1L567.5,574z"/>
<polygon style="fill:none;stroke:#000000;stroke-miterlimit:10;" points="560,580.3 556.3,576 558.2,570.6 563.8,569.6 567.5,574 
	565.6,579.4 "/>
<polygon style="fill:none;stroke:#000000;stroke-miterlimit:10;" points="568.6,636.4 566.7,641.8 561.1,642.8 557.4,638.4 
	559.3,633 564.8,632.1 "/>
<path style="fill:none;stroke:#000000;stroke-miterlimit:10;" d="M155.3,623.1c-0.8,10.4-2.5,20.7-5,31.1c-1.6,6.5-3.5,13-5.9,19.6
	V507c3.3,17.7,6.5,34.8,8.6,51.5c0.5,3.8,1,7.6,1.3,11.5l-3.6,0.7l-1.9,5.4l3.7,4.3l2.6-0.5c0.2,3.2,0.5,6.5,0.6,9.7
	C156.3,600.9,156.3,612,155.3,623.1z"/>
<polygon style="fill:none;stroke:#000000;stroke-miterlimit:10;" points="155.9,637.2 161.5,636.1 165.2,640.4 163.3,645.8 
	157.7,646.9 154,642.6 "/>
<path style="fill:none;stroke:#000000;stroke-miterlimit:10;" d="M180.5,654.2v19.6h-36.1c2.4-6.6,4.3-13,5.9-19.6H180.5z"/>
<path style="fill:none;stroke:#000000;stroke-miterlimit:10;" d="M144.4,507c3.3,17.7,6.5,34.8,8.6,51.5c0.5,3.8,1,7.6,1.3,11.5
	l2-0.4l3.7,4.3l-1.9,5.4l-3,0.6c0.2,3.2,0.5,6.5,0.6,9.7c0.6,11.2,0.5,22.5-0.5,33.6c-0.8,10.4-2.5,20.7-5,31.1h30.2V507H144.4z
	 M163.3,645.8l-5.6,1.1l-3.7-4.3l1.9-5.4l5.6-1.1l3.7,4.3L163.3,645.8z"/>
<polygon style="fill:none;stroke:#000000;stroke-miterlimit:10;" points="157.7,646.9 154,642.6 155.9,637.2 161.5,636.1 
	165.2,640.4 163.3,645.8 "/>
<path style="fill:none;stroke:#000000;stroke-miterlimit:10;" d="M180.5,654.2v19.6h-36.1c2.4-6.6,4.3-13,5.9-19.6H180.5z"/>
<g transform="translate(-87.529 1.357)">
	<polygon style="fill:none;stroke:#000000;stroke-miterlimit:10;" points="161,634.7 164.7,639.2 162.8,644.5 157.2,645.5 
		153.5,641.2 155.4,635.8 	"/>
	<polygon style="fill:none;stroke:#000000;stroke-miterlimit:10;" points="164,567.2 167.8,571.5 165.9,576.9 160.3,578 
		156.6,573.6 158.5,568.3 163.8,567.3 	"/>
	<path style="fill:none;stroke:#000000;stroke-miterlimit:10;" d="M170.3,552.9c-0.2,1.6-0.5,3-0.8,4.3h-5.3c-1.7,3-4.2,4.4-6.6,3.6
		c-1.4-0.5-2.7-1.8-3.8-3.6c-2-3.6-3.1-9.2-2.5-14.6c1.1-9.3,6.2-14.9,11.2-12.9C168.2,531.9,171.5,542.7,170.3,552.9z"/>
	<path style="fill:none;stroke:#000000;stroke-miterlimit:10;" d="M178.5,507.1v166.7c-1.8-7.1-3.2-14.1-4.3-20.9
		c-1.7-10.6-2.4-20.9-2.6-31.1c-0.2-11.4,0.2-22.5,1.1-33.6c0.7-10.4,1.8-20.7,2.7-31.1C177,540.7,178.5,524.2,178.5,507.1z"/>
	<path style="fill:none;stroke:#000000;stroke-miterlimit:10;" d="M171.5,621.8c-0.2-11.4,0.2-22.5,1.1-33.6
		c0.7-10.4,1.8-20.7,2.7-31.1c1.6-16.5,3.1-33.1,3.1-50.1h-36.1v166.7h36.1c-1.8-7.1-3.2-14.1-4.3-20.9
		C172.6,642.3,171.8,631.9,171.5,621.8z M162.8,644.5l-5.6,1.1l-3.7-4.3l1.9-5.4l5.6-1.1l3.7,4.3L162.8,644.5z M165.9,576.9
		l-5.6,1.1l-3.7-4.3l1.9-5.4l5.3-1h0.4l3.7,4.3L165.9,576.9z M170.3,552.9c-0.2,1.6-0.5,3-0.8,4.3h-5.3c-1.7,3-4.2,4.4-6.6,3.6
		c-1.4-0.5-2.7-1.8-3.8-3.6c-2-3.6-3.1-9.2-2.5-14.6c1.1-9.3,6.2-14.9,11.2-12.9C168.2,531.9,171.5,542.7,170.3,552.9z"/>
	<polygon style="fill:none;stroke:#000000;stroke-miterlimit:10;" points="161,634.7 164.7,639.2 162.8,644.5 157.2,645.5 
		153.5,641.2 155.4,635.8 	"/>
	<polygon style="fill:none;stroke:#000000;stroke-miterlimit:10;" points="164,567.2 167.8,571.5 165.9,576.9 160.3,578 
		156.6,573.6 158.5,568.3 163.8,567.3 	"/>
	<path style="fill:none;stroke:#000000;stroke-miterlimit:10;" d="M170.3,552.9c-0.2,1.6-0.5,3-0.8,4.3h-5.3c-1.7,3-4.2,4.4-6.6,3.6
		c-1.4-0.5-2.7-1.8-3.8-3.6c-2-3.6-3.1-9.2-2.5-14.6c1.1-9.3,6.2-14.9,11.2-12.9C168.2,531.9,171.5,542.7,170.3,552.9z"/>
</g>
<g transform="translate(93.636 1.357)">
	<path style="fill:none;stroke:#000000;stroke-miterlimit:10;" d="M146.7,652.8v20.9c0-6.7,0.1-13.7,0.4-20.9H146.7z M169.3,568.3
		l-5.6,1.1l-1.9,5.4l3.7,4.3l5.6-1.1l1.9-5.4L169.3,568.3z M166.7,635.6L166.7,635.6l-0.6-0.7l-5.6,1.1l-1.9,5.4l3.7,4.3l4.1-0.7
		l1.6-0.4l1.9-5.4L166.7,635.6z"/>
	<path style="fill:none;stroke:#000000;stroke-miterlimit:10;" d="M151.1,557.2c-0.1,9.8-0.5,20.3-1,31.1c-0.5,11-1.1,22.4-1.7,33.6
		c-0.6,10.5-1.1,21-1.4,31.1h-0.4V507.1C150.3,518.4,151.2,536.4,151.1,557.2z"/>
	<path style="fill:none;stroke:#000000;stroke-miterlimit:10;" d="M169.3,568.3l-5.6,1.1l-1.9,5.4l3.7,4.3l5.6-1.1l1.9-5.4
		L169.3,568.3z M166.7,635.6L166.7,635.6l-0.6-0.7l-5.6,1.1l-1.9,5.4l3.7,4.3l4.1-0.7l1.6-0.4l1.9-5.4L166.7,635.6z"/>
	<path style="fill:none;stroke:#000000;stroke-miterlimit:10;" d="M146.7,507.1c3.6,11.4,4.7,29.3,4.4,50.1
		c-0.1,9.8-0.5,20.3-1,31.1c-0.5,11-1.1,22.4-1.7,33.6c-0.6,10.5-1.1,21-1.4,31.1c-0.2,7.2-0.4,14.2-0.4,20.9h36.1V507.1H146.7z
		 M167.9,644.5l-1.6,0.4c-0.2,3-0.5,5.7-0.8,8c-0.8,6-2.2,9.8-3.6,9.8s-2.7-3.8-3.6-9.8c-0.7-5.1-1.2-12-1.2-19.4
		c0-4.2,0.1-8.1,0.4-11.7c0.7-10.3,2.5-17.5,4.4-17.5c2,0,3.7,7.2,4.4,17.5c0.2,3.6,0.4,7.5,0.4,11.7c0,0.7,0,1.3,0,2l0,0l3.1,3.6
		L167.9,644.5z M171,578l-5.6,1.1l-3.7-4.3l1.9-5.4l5.6-1.1l3.7,4.3L171,578z M173.7,546.6c0,3.9-0.5,7.5-1.2,10.5
		c-1.2,4.5-3.1,7.5-5.4,7.5c-2.2,0-4.2-3-5.4-7.5c-0.8-3-1.2-6.6-1.2-10.5l0,0c0-10,3-18,6.6-18
		C170.8,528.6,173.7,536.7,173.7,546.6L173.7,546.6z"/>
</g>
<g transform="translate(194.74 .67852)">
	<polygon style="fill:none;stroke:#000000;stroke-miterlimit:10;" points="177.3,640.8 175.4,646.2 169.8,647.3 166.1,643 
		168,637.6 173.6,636.5 	"/>
	<path style="fill:none;stroke:#000000;stroke-miterlimit:10;" d="M185.2,557.9v115.9c-2.5-5.5-4.4-12.3-5.7-20.2
		c-1.6-9-2.3-19.4-2.5-31.1c-0.2-10.3,0-21.5,0.6-33.6c0.5-9.8,1.2-20.2,2.2-31.1H185.2z"/>
	<path style="fill:none;stroke:#000000;stroke-miterlimit:10;" d="M185.2,507.1v50.8h-5.4C181.1,541.8,183,524.7,185.2,507.1z"/>
	<path style="fill:none;stroke:#000000;stroke-miterlimit:10;" d="M176.9,622.4c-0.2-10.3,0-21.5,0.6-33.6
		c0.5-9.8,1.2-20.2,2.2-31.1c1.4-16,3.2-33.1,5.4-50.8h-36v166.7h36.1c-2.5-5.5-4.4-12.3-5.7-20.2
		C177.9,644.5,177.2,634.1,176.9,622.4z M160.9,575.3l0.4-1c-2.3-2.5-3.8-7.9-3.9-14.2l0,0c0-0.8,0-1.6,0.1-2.3
		c0.5-7.5,3.2-13.3,6.6-13.4c3.3,0,6.1,5.7,6.6,13.4c0,0.7,0.1,1.6,0.1,2.3l0,0c0,3.6-0.5,6.9-1.4,9.6l3,3.5l-1.9,5.4l-5.6,1.1
		L160.9,575.3z M175.4,646.2l-5.6,1.1l-3.7-4.3l1.9-5.4l5.6-1.1l3.7,4.3L175.4,646.2z"/>
	<polygon style="fill:none;stroke:#000000;stroke-miterlimit:10;" points="177.3,640.8 175.4,646.2 169.8,647.3 166.1,643 
		168,637.6 173.6,636.5 	"/>
</g>
<g transform="translate(284.98 .67852)">
	<path style="fill:none;stroke:#000000;stroke-miterlimit:10;" d="M159.8,588.9c-0.8,11.2-2,22.4-3.3,33.6
		c-1.2,10.4-2.4,20.7-3.5,31.1c-0.7,6.7-1.3,13.5-1.7,20.2V507.1h2.7c4.7,17,6.6,33.9,6.8,50.8C161,568.3,160.5,578.5,159.8,588.9z"
		/>
	<polygon style="fill:none;stroke:#000000;stroke-miterlimit:10;" points="170.1,578.7 164.6,579.7 160.7,575.3 162.6,569.9 
		168.3,569 172,573.3 	"/>
	<polygon style="fill:none;stroke:#000000;stroke-miterlimit:10;" points="178.2,636.7 176.3,642.1 175.8,642.2 170.6,643.2 
		166.9,638.8 168.9,633.4 174.5,632.4 177.3,635.8 	"/>
	<path style="fill:none;stroke:#000000;stroke-miterlimit:10;" d="M153.9,507.1c4.7,17,6.6,33.9,6.8,50.8
		c0.1,10.4-0.2,20.7-1.1,31.1c-0.8,11.2-2,22.4-3.3,33.6c-1.2,10.4-2.4,20.7-3.5,31.1c-0.7,6.7-1.3,13.5-1.7,20.2h36.1V507.1H153.9z
		 M160.7,575.3l1.9-5.4l5.6-1.1l3.7,4.3l-1.9,5.4l-5.6,1.1L160.7,575.3z M176.3,642.1l-0.5,0.1c-1.2,2.9-2.6,4.5-4.4,4.5
		c-3.5,0-6.3-6.9-6.3-15.5V631c0-3.2,0.4-6.1,1-8.6c1.1-4.3,3-7.2,5.3-7.2c2.3,0,4.2,2.9,5.3,7.2c0.6,2.4,1,5.3,1,8.4v0.2
		c0,1.7-0.1,3.2-0.2,4.7l0.8,1L176.3,642.1z"/>
	<polygon style="fill:none;stroke:#000000;stroke-miterlimit:10;" points="170.1,578.7 164.6,579.7 160.7,575.3 162.6,569.9 
		168.3,569 172,573.3 	"/>
	<polygon style="fill:none;stroke:#000000;stroke-miterlimit:10;" points="178.2,636.7 176.3,642.1 175.8,642.2 170.6,643.2 
		166.9,638.8 168.9,633.4 174.5,632.4 177.3,635.8 	"/>
</g>
<path style="fill:none;stroke:#000000;stroke-miterlimit:10;" d="M70.9,570.4c1.8,0.1,3.6-0.5,5.3-1.8c2.5-2,4.5-5.5,5.7-10"/>
<path style="fill:none;stroke:#000000;stroke-miterlimit:10;" d="M72.2,548.5c-0.6-0.4,0-1.7,0.4-1.9c1-0.6,1.8,1.4,1.8,3.1
	c0,3-1.6,4.9-3,4.7c-2.2-0.4-3.6-4.3-3.3-8.1c0.4-5,3.1-8.2,5.7-7.4c3.3,1,5.4,7.2,4.8,13.1c-0.2,2.6-1,4.9-1.9,6.6"/>
<path style="fill:none;stroke:#000000;stroke-miterlimit:10;" d="M267.4,548L267.4,548c0,3.9-0.5,7.7-1.2,10.5
	c-1.2,4.5-3.1,7.5-5.4,7.5c-2.2,0-4.2-3-5.4-7.5c-0.8-3-1.2-6.6-1.2-10.5l0,0c0-10,3-18,6.6-18C264.4,529.9,267.4,538,267.4,548z"/>
<path style="fill:none;stroke:#000000;stroke-miterlimit:10;" d="M254.1,637.2l-1.9,5.4l3.7,4.3l4.1-0.7c-0.2,3-0.5,5.7-0.8,8
	c-0.8,6-2.2,9.8-3.6,9.8s-2.7-3.8-3.6-9.8c-0.7-5.1-1.2-12-1.2-19.4c0-4.2,0.1-8.1,0.4-11.7c0.7-10.3,2.5-17.5,4.4-17.5
	c2,0,3.7,7.2,4.4,17.5c0.2,3.6,0.4,7.5,0.4,11.7c0,0.7,0,1.3,0,2l-0.6-0.7L254.1,637.2z"/>
<path style="fill:none;stroke:#000000;stroke-miterlimit:10;" d="M260.3,636.9L260.3,636.9c0,3.3-0.1,6.3-0.4,9.3l-4.1,0.7l-3.7-4.3
	l1.9-5.4l5.6-1.1L260.3,636.9z"/>
<path style="fill:none;stroke:#000000;stroke-miterlimit:10;" d="M365.3,560.8L365.3,560.8c0,3.6-0.5,6.9-1.4,9.6l-0.7-0.8l-5.6,1.1
	l-1.6,4.4c-2.3-2.5-3.8-7.9-3.9-14.2l0,0c0-0.8,0-1.6,0.1-2.3c0.5-7.5,3.2-13.3,6.6-13.4c3.3,0,6.1,5.7,6.6,13.4
	C365.3,559.3,365.3,560.1,365.3,560.8z"/>
<path style="fill:none;stroke:#000000;stroke-miterlimit:10;" d="M462.6,631.5v0.2c0,1.7-0.1,3.2-0.2,4.7l-2.9-3.3l-5.6,1.1
	l-1.9,5.4l3.7,4.3l5.1-1c-1.2,2.9-2.6,4.5-4.4,4.5c-3.5,0-6.3-6.9-6.3-15.5v-0.2c0-3.2,0.4-6.1,1-8.6c1.1-4.3,3-7.2,5.3-7.2
	s4.2,2.9,5.3,7.2C462.2,625.5,462.6,628.4,462.6,631.5z"/>
<path style="fill:none;stroke:#000000;stroke-miterlimit:10;" d="M462.2,636.4c-0.4,2.5-0.8,4.7-1.6,6.5l-5.1,1l-3.7-4.3l1.9-5.4
	l5.6-1.1L462.2,636.4z"/>
<rect x="8.4" y="558.6" style="fill:none;stroke:#000000;stroke-miterlimit:10;" width="46.4" height="31.1"/>
<path style="fill:none;stroke:#000000;stroke-miterlimit:10;" d="M70,562.1c-1.4-0.5-2.7-1.8-3.8-3.6h10.4
	C74.9,561.6,72.4,563,70,562.1z"/>
<polygon style="fill:none;stroke:#000000;stroke-miterlimit:10;" points="76.5,568.6 80.2,572.9 78.3,578.3 72.7,579.4 69.1,575.1 
	70.9,569.7 76.1,568.6 "/>
<rect x="91" y="558.6" style="fill:none;stroke:#000000;stroke-miterlimit:10;" width="53.4" height="31.1"/>
<rect x="180.5" y="558.6" style="fill:none;stroke:#000000;stroke-miterlimit:10;" width="59.8" height="31.1"/>
<polygon style="fill:none;stroke:#000000;stroke-miterlimit:10;" points="266.6,574 264.6,579.4 259,580.3 255.3,576 257.2,570.6 
	262.8,569.6 "/>
<rect x="276.4" y="558.6" style="fill:none;stroke:#000000;stroke-miterlimit:10;" width="67.4" height="31.1"/>
<rect x="379.9" y="558.6" style="fill:none;stroke:#000000;stroke-miterlimit:10;" width="56.3" height="31.1"/>
<polygon style="fill:none;stroke:#000000;stroke-miterlimit:10;" points="453.3,569.6 457,574 455.1,579.4 449.4,580.3 445.7,576 
	447.6,570.6 "/>
<rect x="472.3" y="558.6" style="fill:none;stroke:#000000;stroke-miterlimit:10;" width="70.9" height="31.1"/>
<polygon style="fill:none;stroke:#000000;stroke-miterlimit:10;" points="563.8,569.6 567.5,574 565.6,579.4 560,580.3 556.3,576 
	558.2,570.6 "/>
<rect x="579.2" y="558.6" style="fill:none;stroke:#000000;stroke-miterlimit:10;" width="17.9" height="31.1"/>
<rect x="4.9" y="623.1" style="fill:none;stroke:#000000;stroke-miterlimit:10;" width="50" height="31.1"/>
<polygon style="fill:none;stroke:#000000;stroke-miterlimit:10;" points="73.5,636.1 77.2,640.4 75.3,645.8 69.7,646.9 66,642.6 
	67.9,637.2 "/>
<rect x="91" y="623.1" style="fill:none;stroke:#000000;stroke-miterlimit:10;" width="53.4" height="31.1"/>
<polygon style="fill:none;stroke:#000000;stroke-miterlimit:10;" points="161.5,636.1 165.2,640.4 163.3,645.8 157.7,646.9 
	154,642.6 155.9,637.2 "/>
<rect x="180.5" y="623.1" style="fill:none;stroke:#000000;stroke-miterlimit:10;" width="59.8" height="31.1"/>
<polygon style="fill:none;stroke:#000000;stroke-miterlimit:10;" points="263.4,640.4 261.5,645.8 260,646.2 256,646.9 252.2,642.6 
	254.1,637.2 259.7,636.1 260.3,636.9 260.3,636.9 "/>
<rect x="276.4" y="623.1" style="fill:none;stroke:#000000;stroke-miterlimit:10;" width="67.4" height="31.1"/>
<polygon style="fill:none;stroke:#000000;stroke-miterlimit:10;" points="372,641.5 370.1,646.9 364.5,648 360.7,643.5 362.7,638.2 
	368.3,637.2 "/>
<rect x="379.9" y="623.1" style="fill:none;stroke:#000000;stroke-miterlimit:10;" width="56.3" height="31.1"/>
<polygon style="fill:none;stroke:#000000;stroke-miterlimit:10;" points="463.1,637.5 461.2,642.8 460.8,642.8 455.7,643.8 
	451.9,639.5 453.7,634.1 459.4,633 462.2,636.4 "/>
<rect x="472.3" y="623.1" style="fill:none;stroke:#000000;stroke-miterlimit:10;" width="70.9" height="31.1"/>
<polygon style="fill:none;stroke:#000000;stroke-miterlimit:10;" points="564.8,632.1 568.6,636.4 566.7,641.8 561.1,642.8 
	557.4,638.4 559.3,633 "/>
<rect x="579.2" y="623.1" style="fill:none;stroke:#000000;stroke-miterlimit:10;" width="18.6" height="31.1"/>
<rect x="8.4" y="558.6" style="fill:none;stroke:#000000;stroke-miterlimit:10;" width="46.4" height="31.1"/>
<path style="fill:none;stroke:#000000;stroke-miterlimit:10;" d="M70,562.1c-1.4-0.5-2.7-1.8-3.8-3.6h10.4
	C74.9,561.6,72.4,563,70,562.1z"/>
<polygon style="fill:none;stroke:#000000;stroke-miterlimit:10;" points="76.5,568.6 80.2,572.9 78.3,578.3 72.7,579.4 69.1,575.1 
	70.9,569.7 76.1,568.6 "/>
<rect x="91" y="558.6" style="fill:none;stroke:#000000;stroke-miterlimit:10;" width="53.4" height="31.1"/>
<rect x="180.5" y="558.6" style="fill:none;stroke:#000000;stroke-miterlimit:10;" width="59.8" height="31.1"/>
<polygon style="fill:none;stroke:#000000;stroke-miterlimit:10;" points="266.6,574 264.6,579.4 259,580.3 255.3,576 257.2,570.6 
	262.8,569.6 "/>
<rect x="276.4" y="558.6" style="fill:none;stroke:#000000;stroke-miterlimit:10;" width="67.4" height="31.1"/>
<rect x="379.9" y="558.6" style="fill:none;stroke:#000000;stroke-miterlimit:10;" width="56.3" height="31.1"/>
<polygon style="fill:none;stroke:#000000;stroke-miterlimit:10;" points="453.3,569.6 457,574 455.1,579.4 449.4,580.3 445.7,576 
	447.6,570.6 "/>
<rect x="472.3" y="558.6" style="fill:none;stroke:#000000;stroke-miterlimit:10;" width="70.9" height="31.1"/>
<polygon style="fill:none;stroke:#000000;stroke-miterlimit:10;" points="563.8,569.6 567.5,574 565.6,579.4 560,580.3 556.3,576 
	558.2,570.6 "/>
<rect x="579.2" y="558.6" style="fill:none;stroke:#000000;stroke-miterlimit:10;" width="17.9" height="31.1"/>
<rect x="4.9" y="623.1" style="fill:none;stroke:#000000;stroke-miterlimit:10;" width="50" height="31.1"/>
<polygon style="fill:none;stroke:#000000;stroke-miterlimit:10;" points="73.5,636.1 77.2,640.4 75.3,645.8 69.7,646.9 66,642.6 
	67.9,637.2 "/>
<rect x="91" y="623.1" style="fill:none;stroke:#000000;stroke-miterlimit:10;" width="53.4" height="31.1"/>
<polygon style="fill:none;stroke:#000000;stroke-miterlimit:10;" points="161.5,636.1 165.2,640.4 163.3,645.8 157.7,646.9 
	154,642.6 155.9,637.2 "/>
<rect x="180.5" y="623.1" style="fill:none;stroke:#000000;stroke-miterlimit:10;" width="59.8" height="31.1"/>
<polygon style="fill:none;stroke:#000000;stroke-miterlimit:10;" points="263.4,640.4 261.5,645.8 260,646.2 256,646.9 252.2,642.6 
	254.1,637.2 259.7,636.1 260.3,636.9 260.3,636.9 "/>
<rect x="276.4" y="623.1" style="fill:none;stroke:#000000;stroke-miterlimit:10;" width="67.4" height="31.1"/>
<polygon style="fill:none;stroke:#000000;stroke-miterlimit:10;" points="372,641.5 370.1,646.9 364.5,648 360.7,643.5 362.7,638.2 
	368.3,637.2 "/>
<rect x="379.9" y="623.1" style="fill:none;stroke:#000000;stroke-miterlimit:10;" width="56.3" height="31.1"/>
<polygon style="fill:none;stroke:#000000;stroke-miterlimit:10;" points="463.1,637.5 461.2,642.8 460.8,642.8 455.7,643.8 
	451.9,639.5 453.7,634.1 459.4,633 462.2,636.4 "/>
<rect x="472.3" y="623.1" style="fill:none;stroke:#000000;stroke-miterlimit:10;" width="70.9" height="31.1"/>
<polygon style="fill:none;stroke:#000000;stroke-miterlimit:10;" points="564.8,632.1 568.6,636.4 566.7,641.8 561.1,642.8 
	557.4,638.4 559.3,633 "/>
<rect x="579.2" y="623.1" style="fill:none;stroke:#000000;stroke-miterlimit:10;" width="18.6" height="31.1"/>
<polygon style="fill:#FFFFFF;stroke:#000000;stroke-miterlimit:10;" points="77.2,640.4 75.3,645.8 69.7,646.9 66,642.6 67.9,637.2 
	73.5,636.1 "/>
<polygon style="fill:none;stroke:#000000;stroke-miterlimit:10;" points="80.2,572.9 78.3,578.3 72.7,579.4 69.1,575.1 70.9,569.7 
	76.1,568.6 76.5,568.6 "/>
<polygon style="fill:#FFFFFF;stroke:#000000;stroke-miterlimit:10;" points="165.2,640.4 163.3,645.8 157.7,646.9 154,642.6 
	155.9,637.2 161.5,636.1 "/>
<polygon style="fill:#FFFFFF;stroke:#000000;stroke-miterlimit:10;" points="263.4,640.4 261.5,645.8 260,646.2 256,646.9 
	252.2,642.6 254.1,637.2 259.7,636.1 260.3,636.9 260.3,636.9 "/>
<polygon style="fill:none;stroke:#000000;stroke-miterlimit:10;" points="160.1,574 158.1,579.4 155.3,579.8 152.6,580.3 148.8,576 
	150.7,570.6 154.3,569.9 156.3,569.6 "/>
<polygon style="fill:none;stroke:#000000;stroke-miterlimit:10;" points="266.6,574 264.6,579.4 259,580.3 255.3,576 257.2,570.6 
	262.8,569.6 "/>
<polygon style="fill:none;stroke:#000000;stroke-miterlimit:10;" points="366.8,574 364.9,579.4 359.4,580.3 355.6,576 356,575.1 
	357.5,570.6 363.1,569.6 364,570.5 "/>
<polygon style="fill:none;stroke:#000000;stroke-miterlimit:10;" points="457,574 455.1,579.4 449.4,580.3 445.7,576 447.6,570.6 
	453.3,569.6 "/>
<polygon style="fill:none;stroke:#000000;stroke-miterlimit:10;" points="567.5,574 565.6,579.4 560,580.3 556.3,576 558.2,570.6 
	563.8,569.6 "/>
<polygon style="fill:none;stroke:#000000;stroke-miterlimit:10;" points="568.6,636.4 566.7,641.8 561.1,642.8 557.4,638.4 
	559.3,633 564.8,632.1 "/>
<polygon style="fill:none;stroke:#000000;stroke-miterlimit:10;" points="463.1,637.5 461.2,642.8 460.8,642.8 455.7,643.8 
	451.9,639.5 453.7,634.1 459.4,633 462.2,636.4 "/>
<polygon style="fill:#FFFFFF;stroke:#000000;stroke-miterlimit:10;" points="372,641.5 370.1,646.9 364.5,648 360.7,643.5 
	362.7,638.2 368.3,637.2 "/>
</svg>
