<?xml version="1.0" encoding="utf-8"?>
<!-- Generator: Adobe Illustrator 17.0.0, SVG Export Plug-In . SVG Version: 6.00 Build 0)  -->
<!DOCTYPE svg PUBLIC "-//W3C//DTD SVG 1.1//EN" "http://www.w3.org/Graphics/SVG/1.1/DTD/svg11.dtd" [
	<!ENTITY ns_flows "http://ns.adobe.com/Flows/1.0/">
	<!ENTITY ns_extend "http://ns.adobe.com/Extensibility/1.0/">
	<!ENTITY ns_ai "http://ns.adobe.com/AdobeIllustrator/10.0/">
	<!ENTITY ns_graphs "http://ns.adobe.com/Graphs/1.0/">
]>
<svg version="1.1" id="Layer_1" xmlns:x="&ns_extend;" xmlns:i="&ns_ai;" xmlns:graph="&ns_graphs;"
	 xmlns="http://www.w3.org/2000/svg" xmlns:xlink="http://www.w3.org/1999/xlink" xmlns:a="http://ns.adobe.com/AdobeSVGViewerExtensions/3.0/"
	 x="0px" y="0px" width="612px" height="792px" viewBox="0 0 612 792" style="enable-background:new 0 0 612 792;"
	 xml:space="preserve">
<path d="M224.8,627.3c0.8-1,1.8-1.6,2-1.3c0.8,0.8-0.8,3.1-2.3,3.1C223.9,629.2,223.9,628.5,224.8,627.3L224.8,627.3z M234.9,627.4
	c1.3-1.1,4.4-1.9,6.9-1.9c6.3,0,5.7-1.3-2.9-6.9c-4.2-2.7-9.6-7.6-12.3-11.1c-2.6-3.5-7.3-9.2-10.3-12.7
	c-10-11.5-26.2-42.1-26.2-49.6c0-1.1-0.6-3.2-1.3-4.8l-1.3-2.7l-9.8-1.3c-5.4-0.7-12-1-14.6-0.5l-4.8,0.8l5.7,2.5
	c8.8,3.9,17.8,6,21.2,4.8s5-0.2,2.4,1.6s-11.6,0.4-20.3-3.1c-4.2-1.7-7.6-3-7.8-3c-1.7,0-5.5,13.4-5,17.5
	c0.7,6.9,6.3,14.3,10.3,13.7c1.6-0.2,4.1,0.2,5.6,1.1c1.6,0.8,4.1,1.2,5.9,0.8s3.1-0.1,3.1,0.5c0,1.6-11.7,1.2-12.2-0.4
	c-0.2-0.8-1.4-1.1-3.1-0.5l-2.7,0.8l1.4,1.7c1.8,2.3,1.3,2.2-4.1-0.6c-5.1-2.6-7.9-2.3-11.7,1.8c-1.4,1.6-3.6,2.9-4.5,2.9
	c-1.2,0-0.4-1.2,2-3.3l3.9-3.3l-3-1.4l-3-1.4v2v2l-1.2-1.8c-1.6-2.4-1.6-3.9,0-3c0.7,0.4,1.2-0.1,1.2-1.1s-0.5-1.9-1.1-1.9
	c-1.8,0-2.3-4.2-0.6-5.7l1.6-1.6l0.1,2.2c0.1,1.2,0.1,2.5,0,3c-0.1,0.5,0.4,2.3,1.1,3.9c1.4,3.7,4.1,4.2,3,0.5
	c-0.6-1.7-0.4-2.3,0.5-1.7c0.7,0.5,1.3,1.7,1.3,2.9v2h5.4c6.3,0,6.2,0.4,2.3-4.9l-3.1-4.1l-0.1-6.3c-0.1-4.8,0.7-7.8,3-11.8l3.1-5.5
	l-1.9-0.8c-1.1-0.5-3.7-1-5.9-1.1c-2.2-0.1-5.5-1.4-7.4-2.7c-4.3-3.2-5.3-3.2-3.6-0.2l1.2,2.3l-3.1-0.4c-1.7-0.2-3.5-0.8-3.8-1.4
	c-0.4-0.6-1.8-1.1-3.1-1.1c-1.6,0-2.5-1-2.7-2.7c-0.2-1.6,0.2-2.7,1.1-2.7c1.1,0,1.1-0.5-0.1-1.8c-1-1.1-1.1-1.8-0.2-1.8
	c0.7,0,1.6,0.6,2,1.2s1.3,1.2,2,1.2c0.7,0,0.4-1.1-0.8-2.4c-1.7-1.8-3.1-2.3-5.6-1.7c-2.3,0.5-3.3,0.2-3.3-0.7c0-2.2-6,3.7-7.3,7.2
	c-0.7,2-0.7,3.1,0.2,3.7c1,0.6,1,1.1,0,1.7c-0.7,0.5-1.7-0.1-2.2-1.2l-0.7-2l-1.6,2.9c-1.9,3.5-2.2,8.2-0.4,8.2c0.7,0,1-0.6,0.5-1.2
	s-0.1-1.2,0.6-1.2s1.2,1.4,1,3.3c-0.2,2.3,0.1,3.3,1.4,3.3c1,0,1.7-1,1.7-2s0.4-1.8,1-1.4c2.4,1.4-2.7,8.8-6.2,8.8
	c-1.1,0-0.8-0.6,0.6-1.6l2.2-1.6l-1.7-2.6c-2.5-3.9-5-3.3-4.4,1c0.4,2.3,0,3.6-1,3.6c-1.7,0-3.3,3.3-3,6l0.2,1.8l-1.1-1.6l-1.1-1.6
	l-1.6,1.8c-0.8,1-1.2,2.7-0.7,3.8l0.7,2l2.7-2.5c3.1-3,4.5-3.3,3.7-0.8c-0.4,1-1.7,1.9-3,2.3c-2.4,0.6-3.2,4.4-1.1,4.4
	c0.7,0,1,0.5,0.6,1.1c-0.6,1,2.4,9.7,3.3,9.7c0.2,0,0.2-3.2,0-7.2l-0.4-7.2h3.8l-1.4,1.8l-1.4,1.8l1.9,0.7c4.1,1.6,5.9-2.6,2.6-5.9
	l-1.8-1.8l2.4-0.7c1.3-0.4,2.4-1.7,2.4-2.9c0-2.7,1.1-3.7,3-2.9c1.2,0.5,0.7,1.6-1.7,3.8l-3.3,3.2l1.6,3.8l1.6,3.8h-1.8
	c-1,0-1.8,0.6-1.8,1.3c0,0.8,0.8,1,2.2,0.4c1.2-0.5,3.9-0.8,6.1-0.7c2.7,0.1,3.8-0.2,3.5-1.3c-0.2-0.8-1.7-1.4-3-1.2
	c-1.7,0.2-2.4-0.4-2.2-1.8c0.2-1.1-0.2-2.7-0.8-3.5c-0.8-1-0.4-2.4,1.3-4.5s2.3-4.3,1.9-7.5c-0.2-2.4-0.2-3.5,0.1-2.4
	s1.1,2.2,1.7,2.2s0.7,0.8,0.4,1.8c-1.1,2.6,0.7,4.7,2.4,2.7c0.7-0.8,1.2-1.3,1.1-1.1c-0.7,1.2,2.4,3.5,3.9,2.9l1.8-0.7l-1.4-1.7
	l-1.4-1.7l1.9,0.7c2.3,0.8,2.5,1.9,0.6,3.8c-1.1,1.1-1.1,1.8,0,3c1.3,1.7,0.7,3.2-1.3,3.2c-0.6,0-0.7-0.6-0.2-1.3
	c0.8-1.3-2.6-5.9-4.3-5.9c-0.5,0-0.2,1.4,0.7,3.2c1,1.8,1.4,3.6,1.1,4.2c-0.4,0.6,0.1,1,1,1c0.8,0,0.2,1-1.3,2.2l-2.9,2.2l2,0.8
	c1.1,0.5,3.2,0.8,4.7,1l2.6,0.1l-3,0.8c-1.7,0.5-3.6,0.5-4.3-0.1c-2.4-1.9-4.2,1.8-2.3,4.7c1.8,2.6,6.5,2.5,6.6-0.1
	c0-0.7,0.7-0.5,1.6,0.5c0.8,1,2.5,2.3,3.8,2.9c1.6,0.6,1.9,1.2,0.8,1.6c-0.8,0.4-2.3-0.1-3.2-0.8c-1.3-1.1-2.6-1.1-5.5-0.1
	c-2.2,0.7-3.8,1.2-3.9,1.1c-2-6-7.1-10.5-9.2-8.4l-1.4,1.4l1.4,1.8c0.8,1,1.2,2.4,0.7,3c-0.5,0.7,0.2,1.2,1.7,1.2
	c1.3,0,2.7,0.6,3.2,1.4c0.6,1,0.2,1.1-1.4,0.5c-1.3-0.5-7.4-1.2-13.6-1.4c-8-0.4-12-1.1-13.4-2.4c-1.6-1.4-3.3-1.7-7.2-1.1
	c-2.9,0.5-8.5,0.7-12.6,0.7s-9.6,0.4-12.3,1s-4.9,0.6-4.9,0.1c0-1.6,7.8-2.5,31.8-3.8l4.9-0.2l-0.6-2.2c-1-3.6,3.2-12.6,7.7-16.4
	c2.9-2.5,4.8-5.7,6-9.9c2.7-9.1,5.9-14.8,11.8-21.2l5.3-5.6l-2.2-2c-1.2-1.1-7.2-3.6-13.3-5.6c-12.3-3.9-20.2-8.1-22.5-11.8
	c-0.8-1.3-2-2.4-2.6-2.4s-5-2.5-9.8-5.5l-8.6-5.5l-7.8-1.1c-21.2-2.7-25.8-3.9-26.8-6.5c-0.4-1-1.7-1.8-3-1.8s-2.6-0.8-3-1.8
	s-2-2.3-3.7-3l-3-1.2v-17.8l5.7-5.3c3.2-2.7,7.2-6.9,8.8-9.4c2.7-4.1,9.1-8,21.8-13.5c2.2-1,7.2-0.7,23.9,0.7c2,0.1,7.4,1.4,12,2.9
	c4.5,1.4,9.8,2.9,11.6,3.2c3.9,0.8,20.9,16.9,28.4,26.8c5.1,6.8,10,11,14.8,12.9l2.3,0.8l-1.1-1.9c-0.6-1.1-4.4-5.5-8.5-9.8
	c-8.6-9.2-8.8-9.9-3.6-15.4c2.2-2.3,5.5-6.1,7.4-8.5c4.3-5.4,13.9-11,20.3-12c6.1-1,11.5-3,11.5-4.3c0-3,9.2-20.2,17.6-32.8
	c3.7-5.6,16.7-17.6,24.7-22.7l3.5-2.3l-5.6-1.4c-3.1-0.8-8.2-1.8-11.5-2.3s-5.9-1.3-5.9-1.9c0-1.2,5-0.6,15.5,2.2
	c8.7,2.2,9.8,2.2,20.9-1.4l9.6-3.1l11.7,0.8l11.7,0.8l5.3-4.8c20.6-18.9,74-26.5,93.2-13.4c2.7,1.9,6.6,3.7,8.5,3.9l3.5,0.5
	l-3.9,0.1c-2.7,0.1-5.6-1-9-3.5c-18.8-13.5-72.2-4.9-91.9,14.8c-1.8,1.8-4.5,3.1-6.2,3.1c-3.9,0-3.8,0.7,0.7,4.5
	c5.1,4.3,8.4,6.1,11.2,6.1c3.1,0,6.9,4.2,6.1,6.5c-0.7,1.8-3.5,3.5-13.5,8.4c-11.8,5.6-27.5,17.5-45.2,34.2
	c-11.2,10.6-18.8,16.9-20.3,16.9c-4.9,0-16.9-3.7-21-6.6c-2.4-1.6-5.7-3-7.6-3H171l8.2,4.3c19.2,9.9,19.4,13.3,0.7,21.3
	c-14.7,6.3-18.8,6.7-30.2,3.3c-4.2-1.2-9.1-2.6-10.9-3s-3.3-1.3-3.3-2c0-0.8-0.6-0.8-1.8,0.1c-2.4,2-2.3,4.8,0.2,6.7
	c1.4,1.1,2.5,1.2,3.5,0.4s3.5-0.5,7.8,0.8c3.5,1.1,8.2,2.5,10.5,3.2c7.4,2.2,9.1,3.9,12,13.1c3.1,9.8,7.2,14.9,17.7,22.2
	c4.1,2.7,6.6,5.5,6.9,7.4c1.7,8,5.3,12.8,32.4,42.2c5.1,5.6,15.3,12.7,25.5,17.8l7.8,3.8l24.5,0.1c13.5,0.1,30.1,0.6,37.1,1.1
	c8.1,0.6,14.5,0.5,17.9-0.4c3.9-1,8.7-1,17.6,0.1l12.2,1.4l9-2.3l9-2.3l5.7,2c9,3.2,36.3,2.4,57-1.7c6.7-1.3,8.6-0.6,3.6,1.3
	c-9.4,3.7-57.5,5.5-60.6,2.4c-1.8-1.8-7.6-1.6-17.1,0.6l-8.1,1.9l-11-1.3c-8-1-12.9-1.1-18-0.1c-5.1,1-11.1,1-21.9-0.1
	c-8.1-0.8-17.2-1.3-20.2-1.2c-3,0.1-12.3,0.2-20.9,0.1l-15.5-0.1l-8.8-4.1c-4.8-2.3-10.3-5.3-12-6.6c-1.7-1.3-6-4.5-9.4-7.2
	s-7.6-6.8-9.3-9.4c-2.9-4.3-7.6-5.7-7.6-2.3c0,0.6-1.8,1.9-3.9,2.7l-3.9,1.7l-4.5-4.3l-4.5-4.3l-2,2c-1.6,1.6-1.7,2.4-0.7,3.3
	c0.7,0.7,1.1,2.2,0.7,3.1c-0.4,1-0.2,2.2,0.4,2.5c1.6,1.1,4.2,12.1,3.3,13.5c-0.4,0.6,0.5,1.6,1.9,1.9c1.8,0.5,2.2,1,1.2,1.6
	c-1.1,0.6-0.1,3.2,3.3,9.1c2.6,4.5,6.1,10.6,7.8,13.6s5.6,8.4,8.8,12.1c3.2,3.7,7.6,9.1,9.9,12.1c2.3,3,6.1,6.8,8.5,8.5l4.3,3.1
	l5.3-1l5.3-1l-3.3-1.4c-2.2-0.8-4.1-1-5.4-0.2c-2,1.1-6.2-0.8-6.2-3c0-0.6,0.6-0.4,1.4,0.5c1.7,1.7,4.5,1.9,4.5,0.2
	c0-0.6-1.3-1.6-3-1.9c-1.7-0.4-3-1.3-3-1.9s-0.5-0.8-1-0.5c-1.6,1-6.2-2.7-6.1-5c0-1.4,0.4-1.3,1.2,0.7c1,2.5,4.8,3.9,4.7,1.8
	c-0.1-1.6-3.1-5.1-4.4-5.1c-0.7,0-1.2-1-1.1-2.2s-0.4-2-1.1-1.9c-0.7,0.1-2.3-1.2-3.6-3l-2.4-3.2l2,1.7c2.4,1.9,3.8,1.1,2.7-1.8
	c-0.5-1.3-1.6-1.8-3.3-1.3l-2.5,0.7l1.4-1.4l1.4-1.4l2.4,1.4l2.4,1.4V588c0-1,0.6-1.8,1.2-1.8s1.7-1.2,2.2-2.6l1-2.6l0.7,2
	c0.5,1.1,0.2,2-0.2,2s0,2,1.2,4.4c2.2,4.3,2,7.7-0.2,3.8c-1.1-1.9-5.9-1.8-5.9,0.2c0,1.1,2.4,2.7,4.2,3l2.7,0.4
	c1.8,0.2,2,4.5,0.2,5.6c-0.7,0.4-1,1.3-0.5,1.9s1.3,0.8,1.9,0.4c0.8-0.5,1,0.1,0.5,1.8l-0.8,2.5h2.5c2.9,0,3.1-1.2,1-3.5l-1.6-1.6
	l2.2,0.8c1.4,0.5,2,1.7,1.6,3.1c-0.6,2.5,1,4.2,2.2,2.2c0.5-0.7,1.9-1.1,3.3-1l2.6,0.4v-4.5c0-2.5,0.2-4.4,0.6-4.4
	c1.1,0,3,1.7,4.8,4.2l1.8,2.4l-1.7-1.6c-2.5-2.3-3.6-1.8-3.6,1.6c0,1.7,0.6,3,1.3,3c0.7,0,1-0.6,0.5-1.2c-0.5-0.6-0.1-1.2,0.5-1.2
	s1.3,0.8,1.3,1.9c0,1.4-0.8,1.8-3,1.3c-2.3-0.5-3-0.1-3,1.6c0,2.6,3.1,5.3,4.9,4.1c1-0.6,1-1.2-0.2-1.9c-1.2-0.8-1.1-1,0.7-0.7
	c1.3,0.2,2.4,1.3,2.4,2.5s0.8,2.6,1.8,3.2c1.1,0.7,1.2,1.2,0.4,1.2c-0.8,0-1.8-0.5-2.2-1.2c-1.4-2.4-3.1-1.2-1.8,1.3
	c0.7,1.3,2.3,2.3,3.5,2.2c1.2-0.2,2.3,0.1,2.4,0.8c0.1,0.7,0.8,1.9,1.6,2.7c0.8,1.1,0.8,1.6,0,1.6c-0.7,0-1.6-0.5-1.9-1.1
	c-1.3-2-8-2.5-13-0.8c-2.7,1-6.7,1.6-8.6,1.6s-4.7,0.4-6,0.8l-2.4,1L234.9,627.4L234.9,627.4z M254.7,621.9c0-1.8-5.5-3.9-7.8-3.1
	l-2,0.7l1.4,1.8C248,623.3,254.7,623.8,254.7,621.9L254.7,621.9z M249.7,612.2c-0.7-2.3-3.3-2.6-3.3-0.5c0,1.1,0.8,1.9,1.9,1.9
	S249.9,612.9,249.7,612.2L249.7,612.2z M236.8,599.3c0-0.6-0.5-1.4-1.2-1.9s-1.2,0.1-1.2,1.1c0,1,0.5,1.9,1.2,1.9
	S236.8,599.9,236.8,599.3z M233.3,589.2c0-0.6-0.6-1.3-1.3-1.6c-0.7-0.2-1.3,0.5-1.3,1.6c0,1.1,0.6,1.8,1.3,1.6
	C232.7,590.5,233.3,589.8,233.3,589.2z M114.9,575.9c0-1.3-3.9-6.6-4.9-6.6c-1.2,0-1.4,5.1-0.2,6.3
	C110.7,576.7,114.9,576.9,114.9,575.9L114.9,575.9z M102.9,574.2c0-2.5-2.9-7.2-4.4-7.2c-2.2,0-2-2,0.1-3.2l1.7-1l-1.7-1.6l-1.7-1.6
	l-1.2,3.1c-1.3,3.6-1.6,7.9-0.5,10.6C96.1,575.5,102.9,576.3,102.9,574.2L102.9,574.2z M127.4,563.5c0.4-0.6,0.1-1.4-0.6-1.9
	s-1.1-1.4-0.7-2.3c0.4-0.8-0.2-2.5-1.1-3.7l-1.7-2.3l-2,2l-2,2l1.8,1.1c1,0.6,1.3,1.2,0.8,1.2s-0.4,1.1,0.4,2.4
	C123.4,564.8,126.2,565.4,127.4,563.5L127.4,563.5z M204.3,536.9c-0.7-2.2-6.7-6.3-7.6-5.4c-1.1,1.1,4.3,6.8,6.5,6.8
	C203.9,538.4,204.5,537.6,204.3,536.9z M205.2,531.3c-2.3-2.3-3.5-2.7-4.4-1.8s-0.1,2.3,2.6,4.5
	C208.3,538.2,209.8,535.9,205.2,531.3z M137.3,529c-0.6-0.8-2-1.6-3-1.6c-1,0-1.6,0.7-1.2,1.6c0.4,0.8,1.2,1.3,2,1.2
	c0.8-0.1,1.1,0.2,0.7,1s-0.4,1.9,0.1,2.6c0.6,1,1.2,0.7,1.7-1C138.1,531.5,137.9,529.9,137.3,529L137.3,529z M159.7,533.2
	c1.3-0.1,7.2,0.2,13,0.7l10.6,1l-1-1.6l-1-1.6l2.2,1.7l2.2,1.7l3.9-2.2c2.6-1.4,3.8-2.7,3.3-3.9l-0.7-1.8l2.6,1.4l2.6,1.4l3.6-2.2
	c5.3-3.1,0.4-13.6-5.5-11.7c-1.7,0.6-1.8,0.5-0.6-0.5l1.7-1.2l-1.3-2.5c-2.4-4.4-4.2-2.9-3.9,3.1c0.1,1.9-0.6,1.9-2.5,0.1l-1.6-1.4
	l2.6-2.9l2.6-2.9l-1.3-2.9c-1.4-3.1-2.3-3.5-3.9-1.8c-0.7,0.7-1.2-0.1-1.3-2.4c-0.1-1.9,0.4-3.5,1-3.5s1.1,0.8,1.1,1.8
	s0.5,1.8,1.2,1.8c2,0,1.3-2.5-1.6-4.9c-3.6-3-6.1-3-5.4,0.1c0.7,3-0.1,3.1-2.3,0.4l-1.7-2.2l-1.2,2.2c-2,3.5-3.5,2.4-1.9-1.6
	c0.7-1.9,1.8-3.6,2.4-3.6s0.7,0.6,0.2,1.2s0.1,1.2,1.1,1.2c2.9,0,2.3-1.1-4.5-8.2l-6.3-6.7l-2.2-8.1l-2.2-8.1l-4.7-2.4
	c-4.2-2.2-8.5-3.3-19.4-5.5l-3.5-0.7l1.3,2.3c0.7,1.2,3.9,5.1,7.3,8.7l6,6.5h6.9h6.9l-5.7,1.4c-3.6,0.8-5.4,1.8-4.8,2.5
	c0.6,0.6-0.1,0.4-1.4-0.7s-5.1-2.7-8.4-3.8c-6.8-2.2-10-4.9-17.7-14.7c-3-3.8-9.2-10.6-13.7-15.1l-8.4-8.1L93,429.8
	c-6.5-1.8-17-3.9-23.3-4.7l-11.6-1.3l-3.9,1.7c-2.2,1-5.9,2.4-8.1,3.2c-2.4,0.8-9,6.3-15.4,12.7l-11.2,11.1l-0.5,7.1
	c-0.4,5.3,0,7.5,1.4,9l1.9,1.9l12.8-0.8c7.3-0.5,13.1-0.4,13.5,0.2s-4.1,1.1-10,1.2c-6.3,0-11.2,0.6-12.1,1.4
	c-1.1,1.1-0.6,1.4,1.8,1.4c2,0,3.7,1,4.5,2.5l1.3,2.5l6.3-0.4c3.5-0.2,6.1,0,5.9,0.4c-1,1.4,7.9,3.6,11.6,2.7l3.7-0.8l9.8,6
	c5.4,3.3,11.2,6.6,13,7.3s3.2,1.8,3.2,2.5c0,2.6,9.9,8.2,20,11.4c7.4,2.3,12.6,4.9,17.6,8.7c3.9,3,7.8,5.5,8.6,5.5s1.3,0.5,1.2,1.2
	c-0.1,0.7,2.6,3.6,6.2,6.5l6.5,5.4l4.9-0.7C155.2,533.8,158.4,533.3,159.7,533.2L159.7,533.2z M154.7,531.5c0.5-0.5,1.2-0.5,1.6,0
	c0.4,0.5,0.1,0.8-0.8,0.8S154.3,532,154.7,531.5L154.7,531.5z M148.8,529.3l-2.3-1.9l3,1.4c3.7,1.8,4.3,2.3,2.9,2.3
	C151.7,531.2,150.1,530.4,148.8,529.3L148.8,529.3z M172.6,530.4c0.5-0.5,1.2-0.5,1.6,0c0.4,0.5,0.1,0.8-0.8,0.8
	S172.2,530.8,172.6,530.4L172.6,530.4z M169.9,527.5c0-0.7,0.5-1,1.2-0.5c0.7,0.5,1.2,1,1.2,1.3s-0.5,0.5-1.2,0.5
	S169.9,528.2,169.9,527.5z M179.7,527.2c-0.8-0.8-1.4-1.9-1.4-2.5s0.8-0.1,1.9,0.8c1.1,1,1.7,2.2,1.4,2.5S180.4,528.1,179.7,527.2z
	 M185.2,528c0.8-0.4,1.9-0.4,2.3,0.1s-0.4,0.7-1.6,0.6C184.6,528.6,184.2,528.3,185.2,528L185.2,528z M140.4,525
	c-0.5-0.8-0.4-1.1,0.5-0.5c1.4,0.8,1.8,1.9,0.8,1.9C141.5,526.4,140.9,525.7,140.4,525z M192,525.2c0.4-0.6,1-1.2,1.3-1.2
	s0.2,0.6-0.1,1.2s-1,1.2-1.3,1.2S191.6,525.8,192,525.2z M185.4,523.1c0-1.2,0.4-1.6,1-1c0.5,0.6,1.4,1.6,2,2.2s0.2,1-1,1
	C186.2,525.2,185.4,524.3,185.4,523.1L185.4,523.1z M196.2,523.4c-0.8-1-1.1-1.8-0.7-1.8s1.7,0.8,2.6,1.8c1,1,1.3,1.8,0.7,1.8
	S197,524.4,196.2,523.4L196.2,523.4z M154.3,522.8c0-0.8,0.4-1.2,0.8-0.8c0.5,0.4,0.5,1.2,0,1.6S154.3,523.7,154.3,522.8z
	 M141,520.7l-1.7-2.2l2.4,1.8c1.3,1,2.6,1.9,2.9,2.2s-0.1,0.4-0.7,0.4S141.9,521.9,141,520.7L141,520.7z M165.1,520.4
	c0-0.8,0.4-1.2,0.8-0.8c0.5,0.4,0.5,1.2,0,1.6S165.1,521.3,165.1,520.4z M190.2,520.4c0-0.8,0.4-1.2,0.8-0.8c0.5,0.4,0.5,1.2,0,1.6
	S190.2,521.3,190.2,520.4z M172.4,517.7l-1-2.7l2.7-1.4c1.4-0.8,3-2.5,3.3-3.7l0.6-2.3l-2.3,0.6c-1.4,0.4-2.3,0-2.3-1.2
	c0-1-0.8-2.5-1.8-3.2l-1.8-1.4l-3,1.9c-3.9,2.5-4.5,2.4-3-0.6c0.7-1.3,1.1-2.7,0.7-3.1c-1.2-1.2-3.1,1-3.3,3.6l-0.1,2.6l-0.6-2.2
	c-0.7-2.5-2-2.6-3.8-0.4l-1.4,1.7l2.2,1.4l2.2,1.4l-2.2-0.7c-1.2-0.4-2.4-0.7-2.7-0.7s-0.5-0.7-0.5-1.7s-1.2-1.9-2.7-2.3
	c-1.7-0.4-1.1-0.6,1.7-0.7c4.3-0.1,7.1-1.9,4.3-2.9c-0.8-0.2-0.4-1.4,1.4-3.1c3.1-2.9,4.8-2.6,2.4,0.4c-0.8,1.1-1.2,2.3-0.7,2.7
	s1.3,0,2-1.2c1.4-2.5,4.8-1.4,3.8,1.1c-0.5,1.2-0.1,1.7,1,1.3c1-0.4,1.9-1.6,2.2-2.9c0.7-4.2,2.2-4.2,1.6,0.1
	c-0.6,4.7,0.7,5.3,5,2.4l2.7-1.8l0.7,2c1,2.5-0.2,3.9-1.6,1.8c-0.6-0.8-1.6-1.2-2.3-0.8c-1.9,1.2-1.6,4.3,0.5,4.3s4.2,4.5,3.2,6.9
	c-0.4,0.8-1.2,1.4-1.9,1.3c-3.2-0.4-4.3,0.2-4.3,2.4c0,1.3,1,2.5,2.2,2.9l2.2,0.6l-2.2,0.1C174.3,520.3,173,519.2,172.4,517.7
	L172.4,517.7z M181.8,517.9c0-1.7,0.6-3.7,1.4-4.5l1.4-1.4l-1.4-0.8c-1-0.6-1.1-1.6-0.4-2.6l1.1-1.7l0.7,1.9
	c0.4,1.1-0.1,4.3-1.1,7.2l-1.8,5.1V517.9L181.8,517.9z M153.8,518.3c0.7-0.5,1.6-1.6,1.8-2.4c0.4-1,1-0.7,2,1l1.6,2.4h-3.3
	C154,519.1,153.1,518.8,153.8,518.3L153.8,518.3z M162.8,517.6c0.2-0.2,2.2-0.8,4.1-1.2c2.6-0.6,3.1-0.5,1.8,0.4
	C167,517.8,161.6,518.6,162.8,517.6z M144.3,515.9c0.6-0.5,1.4-1.4,2-2.2c0.5-0.7,1-0.2,1,1s-0.8,2.2-2,2.2
	C144,516.8,143.7,516.4,144.3,515.9L144.3,515.9z M132.2,514.5c-0.5-0.7,0.1-0.8,1.1-0.5c2,0.8,2.4,1.7,0.7,1.7
	C133.4,515.7,132.6,515.1,132.2,514.5L132.2,514.5z M162.7,514.5c0-0.6,0.8-0.8,1.8-0.5s1.8,1,1.8,1.2s-0.8,0.5-1.8,0.5
	S162.7,515.1,162.7,514.5z M135.2,512.1c-1-0.6-1.3-1.2-0.6-1.2c0.7,0,2,0.5,3,1.2c1,0.7,1.3,1.2,0.6,1.2
	C137.5,513.3,136.1,512.7,135.2,512.1z M153.8,511c-0.4-0.6,0.4-0.8,1.7-0.5c2.7,0.7,3.1,1.6,0.7,1.6
	C155.3,512.1,154.2,511.6,153.8,511L153.8,511z M171.6,510.9c0.4-0.6,1-1.2,1.3-1.2s0.5,0.6,0.5,1.2s-0.6,1.2-1.3,1.2
	S171.3,511.5,171.6,510.9z M143,509.7c-0.5-0.7,0.1-0.8,1.1-0.5c2,0.8,2.4,1.7,0.7,1.7C144.2,510.9,143.3,510.3,143,509.7L143,509.7
	z M149.7,509c0-1.4,0.4-1.7,0.7-0.7c0.4,0.8,0.4,1.9-0.1,2.3C149.8,510.9,149.5,510.2,149.7,509L149.7,509z M162.3,509.4
	c0.8-0.8,1.8-1.2,2.2-0.8s-0.2,1.1-1.4,1.4l-2.2,0.8L162.3,509.4z M167.5,508.5c0-1.3,0.5-2.6,1.1-3s1,0.7,1,2.3
	C169.3,511.3,167.5,511.9,167.5,508.5z M117.3,506.6c-1.7-1-2.2-1.7-1.2-1.7s2.9,0.8,4.1,1.8C123,508.8,121.3,508.7,117.3,506.6z
	 M133.2,507.6c0.5-0.5,1.2-0.5,1.6,0s0.1,0.8-0.8,0.8C132.9,508.5,132.8,508.1,133.2,507.6L133.2,507.6z M129.6,506.4
	c0.5-0.5,1.2-0.5,1.6,0s0.1,0.8-0.8,0.8C129.3,507.3,129.2,506.9,129.6,506.4L129.6,506.4z M140.8,506.4c-1.1-1.1-1-2.7,0.2-2.7
	c0.6,0,1,0.8,1,1.8C142,507.5,141.9,507.5,140.8,506.4L140.8,506.4z M132,504.2c-0.4-1-0.5-2.2-0.1-2.4s0.8,0.5,1.2,1.8
	C133.9,506.4,133,506.9,132,504.2L132,504.2z M181,505.3c0.5-0.5,1.2-0.5,1.6,0s0.1,0.8-0.8,0.8S180.6,505.7,181,505.3L181,505.3z
	 M119.1,503c-2-1-2.7-1.7-1.8-1.7s3.1,0.7,4.8,1.7C125.9,505.3,123.8,505.1,119.1,503z M146.3,502.9c0.5-0.5,1.2-0.5,1.6,0
	s0.1,0.8-0.8,0.8C146.1,503.7,145.9,503.3,146.3,502.9L146.3,502.9z M104.6,499.9c-0.5-0.8-0.4-1.1,0.5-0.5c0.7,0.5,1.4,1.1,1.4,1.4
	C106.5,501.8,105.4,501.3,104.6,499.9z M144.9,498.2c0-1.4,0.4-1.7,0.7-0.7c0.4,0.8,0.4,1.9-0.1,2.3
	C145,500.1,144.8,499.4,144.9,498.2L144.9,498.2z M107.1,497.7c-0.5-0.7,0.1-0.8,1.1-0.5c2,0.8,2.4,1.7,0.7,1.7
	C108.3,498.9,107.5,498.3,107.1,497.7L107.1,497.7z M122,497.7c-1.1-0.7-1.2-1.2-0.4-1.2s1.8,0.5,2.2,1.2
	C124.8,499.2,124.3,499.2,122,497.7L122,497.7z M136.4,496.5c0-0.8,0.4-1.2,0.8-0.8c0.5,0.4,0.5,1.2,0,1.6
	C136.7,497.6,136.4,497.4,136.4,496.5z M149.8,496.9c-0.8-0.4-1.6-1.4-1.6-2.5v-1.9l1.7,2.3l1.7,2.3l1.9-2.4l1.9-2.4l-0.7,2.2
	c-0.4,1.2-0.7,2.4-0.7,2.7C154.3,497.8,151.7,497.6,149.8,496.9L149.8,496.9z M92.8,492.2l-3.6-3.1l3.9,2.6c2.2,1.4,3.9,2.7,3.9,3.1
	C96.9,495.7,96.5,495.3,92.8,492.2L92.8,492.2z M156.7,493.5c0-1,0.5-1.8,1.2-1.8s0.8,0.8,0.5,1.8s-1,1.8-1.2,1.8
	S156.7,494.5,156.7,493.5z M164.4,493.5c-1-2.5-0.1-5.7,1.7-6.3l1.6-0.5l-1.2,3.2c-1.7,4.3-1.6,4.5,1.2,3.8c1.3-0.4,2-0.1,1.7,0.5
	C168.2,495.9,165.1,495.5,164.4,493.5L164.4,493.5z M101.2,492.2c-1.3-1-1.8-1.8-1.1-1.8s1.9,0.8,2.7,1.8
	C104.8,494.5,104.2,494.5,101.2,492.2L101.2,492.2z M125,492.9c-0.4-0.6-0.2-1.4,0.4-1.8s1,0.1,1,1.1
	C126.5,494.4,126,494.5,125,492.9L125,492.9z M152.9,490l-2-1.6l1.2-4.4c1.6-5.6,2.5-5.6,1.6,0c-0.5,2.9-0.2,4.7,0.8,5.3
	c0.8,0.5,1.3,1.2,1,1.6S154,490.8,152.9,490L152.9,490z M141.2,488.8c-0.8-1.1-1.1-2.6-0.6-3.9l1-2.2l0.6,2.4
	c0.2,1.3,1.1,3.1,1.8,3.9c0.8,1,0.8,1.6,0,1.6C143.2,490.5,142,489.7,141.2,488.8L141.2,488.8z M160.4,488.5c0.8-1.4,1.8-2.4,2.2-2
	s-0.4,1.6-1.6,2.6l-2.2,2L160.4,488.5z M170.2,488.2c-0.4-1.3-1.1-2.4-1.8-2.4s-0.8-0.6-0.4-1.2c0.8-1.4,4.2,1.4,4.2,3.6
	c0,0.7,0.6,1,1.4,0.5s1.1-0.4,0.5,0.5C172.8,491.3,170.9,490.8,170.2,488.2L170.2,488.2z M147.3,487.3c0.8-1.4,1.8-2.4,2.2-2
	s-0.4,1.6-1.6,2.6l-2.2,2L147.3,487.3z M156.7,488.2c0-0.8,0.4-1.2,0.8-0.8s0.5,1.2,0,1.6S156.7,489,156.7,488.2z M95,486.7
	c-0.5-0.8-0.4-1.1,0.5-0.5c0.7,0.5,1.4,1.1,1.4,1.4C96.9,488.6,95.9,488.2,95,486.7z M134.6,487c-0.4-0.6-0.2-1.2,0.5-1.2
	s1.6,0.6,1.9,1.2c0.4,0.6,0.2,1.2-0.5,1.2C135.8,488.2,135,487.6,134.6,487z M127.2,484.9c0.5-0.5,1.2-0.5,1.6,0s0.1,0.8-0.8,0.8
	S126.8,485.4,127.2,484.9L127.2,484.9z M162.7,482.8c-0.8-1-1.2-2.7-0.8-3.9c0.4-1.6,0.6-1.4,0.7,0.7l0.1,2.9l2.5-0.6l2.5-0.6
	l-1.4,1.7C164.5,484.9,164.5,484.9,162.7,482.8L162.7,482.8z M137.6,479.8c0-1.3,0.5-2.6,1.2-3.1c0.7-0.5,1.2,0.4,1.2,1.7
	s0.7,2.6,1.6,3c0.8,0.4,0.2,0.6-1.2,0.7C138.4,482.1,137.6,481.5,137.6,479.8L137.6,479.8z M116.8,479.1c-1.3-1-1.8-1.8-1.2-1.7
	s2.2,0.8,3.5,1.8s1.8,1.8,1.2,1.7S118,480,116.8,479.1z M128.6,479.8c0.4-0.6,1-1.2,1.3-1.2s0.2,0.6-0.1,1.2c-0.4,0.6-1,1.2-1.3,1.2
	S128.3,480.4,128.6,479.8z M144.4,477.8c0.8-0.4,2.2-0.4,3,0s0.1,0.6-1.6,0.6S143.7,478.1,144.4,477.8z M41.1,476.6
	c0.5-0.5,1.2-0.5,1.6,0s0.1,0.8-0.8,0.8S40.8,477,41.1,476.6L41.1,476.6z M157.3,476.1c0.4-0.7,1.2-1,1.9-0.5
	c1.7,1.1,1.3,1.8-0.7,1.8C157.4,477.4,156.9,476.8,157.3,476.1L157.3,476.1z M163,475.4c0.5-0.5,1.2-0.5,1.6,0s0.1,0.8-0.8,0.8
	S162.7,475.8,163,475.4L163,475.4z M115.9,466.9l-1.7-2.2l2.2,1.7c1.2,1,2.2,1.8,2.2,2.2C118.5,469.5,117.5,468.9,115.9,466.9z
	 M89.1,465.2c-0.5-0.8-0.4-1.1,0.5-0.5c1.4,0.8,1.8,1.9,0.8,1.9C90.1,466.6,89.5,465.9,89.1,465.2L89.1,465.2z M89.6,460.9l-1.7-2.2
	l2.2,1.7c1.2,1,2.2,1.8,2.2,2.2C92.2,463.5,91.2,462.9,89.6,460.9z M37.4,455.5c-1.4-0.7-2.7-1.8-2.7-2.4s-0.5-0.8-1.1-0.4
	s-0.8-0.5-0.5-1.8c1.4-5.4,9-5.7,11.2-0.5l1.4,3l-2.3,1.8C41,457.3,41,457.3,37.4,455.5L37.4,455.5z M42.9,451.3
	c0.7-2.2-3.3-3.3-4.5-1.3c-0.6,1-1.1,2.2-1.1,2.6C37.2,454.2,42.3,453,42.9,451.3L42.9,451.3z M78.3,455.6c-0.5-0.8-0.4-1.1,0.5-0.5
	c1.4,0.8,1.8,1.9,0.8,1.9C79.4,457.1,78.8,456.4,78.3,455.6L78.3,455.6z M44.9,446.3c0.4-0.7,1-1.2,1.3-1.2s0.2,0.5-0.1,1.2
	s-1,1.2-1.3,1.2S44.6,446.9,44.9,446.3z M77,441.9c0.5-0.5,1.2-0.5,1.6,0c0.5,0.5,0.1,0.8-0.8,0.8S76.6,442.4,77,441.9L77,441.9z
	 M212.9,532.7c0-1.6-5.1-6.3-6.8-6.3c-2.4,0-1.9,2.4,1.1,4.9C209.9,533.5,212.9,534.3,212.9,532.7L212.9,532.7z M132.6,531
	c-0.7-2.3-3.3-2.6-3.3-0.5c0,1.1,0.8,1.9,1.9,1.9C132.2,532.4,132.8,531.7,132.6,531L132.6,531z M125.3,519c-0.4-1-0.7-0.7-0.7,0.7
	c0,1.3,0.2,1.9,0.6,1.6S125.6,519.8,125.3,519L125.3,519z M179.4,446.2c4.9-2.2,9.9-4.8,11.1-5.7l2.2-1.8l-3.1-3.3
	c-3.5-3.6-15.5-9.8-21.8-11.2c-8.8-1.9-27.4,9.1-29.5,17.7c-1.1,4.4-0.5,4.8,16.7,9C160.4,452.3,169.6,450.5,179.4,446.2
	L179.4,446.2z M157.1,447.9c0.5-0.5,1.2-0.5,1.6,0s0.1,0.8-0.8,0.8S156.7,448.4,157.1,447.9L157.1,447.9z M149.9,445.5
	c0.5-0.5,1.2-0.5,1.6,0c0.5,0.5,0.1,0.8-0.8,0.8C149.7,446.3,149.5,446,149.9,445.5L149.9,445.5z M207.1,427.6
	c2.2-1.8,8.2-7.3,13.5-12.4c21.3-20.4,31.1-27.7,49.4-36.9c11.5-5.7,12.1-7.6,3.5-10.9c-3.1-1.2-7.8-3.7-10.2-5.5
	c-15.8-12.2-35.1-8.4-58.9,11.4l-10.3,8.5l-7.5,12.6c-9.1,15.2-13.3,24.6-11.2,25.3c0.7,0.2,3.7,2,6.7,3.9c4.5,3,15.2,6.8,19.6,7.1
	C202.5,430.7,204.9,429.3,207.1,427.6L207.1,427.6z M54,626.7c0.8-0.6,2.5-1.1,3.6-1.1s2.9-1.1,4.1-2.4c2.7-3.1,5.6-3,8.5,0.2
	l2.3,2.6l-3.1-1.9l-3.1-1.9l-2.6,1.9c-1.4,1.1-2.4,2.3-2.2,2.7c0.2,0.5-1.7,0.8-4.3,1C54.1,627.7,53.1,627.3,54,626.7L54,626.7z
	 M217.4,626c-1.8-0.2-3.3-1.1-3.3-1.8c0-0.8,1.6-1,4.4-0.5l4.4,0.8l1.9-2.4c2.2-2.7,6.7-3.8,10.3-2.5l2.4,1l-4.1,0.1
	c-2.4,0-5.4,1.2-7.5,3.1c-1.9,1.7-3.9,2.9-4.3,2.9S219.2,626.2,217.4,626L217.4,626z M186.6,623.8c-1-1.2-1.1-1.8-0.2-1.8
	c1.4,0,3.1,2.3,2.3,3.1C188.4,625.4,187.4,624.8,186.6,623.8L186.6,623.8z M272.7,623.2c1.7-1.3,3.3-2.4,3.7-2.4
	c0.4,0,0.7-1.4,0.7-3.1s0.7-3.6,1.7-4.2l1.7-1.1l-2.3-1.8c-3-2.3-0.7-2.4,2.4-0.1l2.3,1.7l-2,2.3c-3.5,3.8,2.5,9.6,6.2,5.9
	c1-1,1.3-0.7,1.3,0.6c0,2.9-1.1,3.2-4.8,1.9l-3.5-1.3l-4.3,2C270,626.2,268.9,626.1,272.7,623.2L272.7,623.2z M296.1,622.2l-2.3-1
	l1.9-0.7c1.1-0.4,2.5,0,3.3,1C300.5,623.3,299.7,623.6,296.1,622.2L296.1,622.2z M322.4,621.4c-0.4-1-0.1-1.8,0.5-1.8
	s1.2,0.8,1.2,1.8c0,1-0.2,1.8-0.5,1.8S322.9,622.4,322.4,621.4z M332.8,622.4c0.5-0.5,1.2-0.5,1.6,0c0.4,0.5,0.1,0.8-0.8,0.8
	S332.4,622.9,332.8,622.4z M177.6,621.2c-1.3-0.2-3.5-1-4.8-1.6s-3.2-1.3-4.2-1.7c-1.1-0.4-0.7-0.6,1-0.7c1.4,0,3.6,0.4,4.8,1
	s3.9,1.7,6.2,2.3C184.7,621.7,182.3,622.3,177.6,621.2L177.6,621.2z M263.9,617.7c-1.3-1.8-1.6-2.9-0.7-2.9c1,0,1-0.5-0.1-1.8
	l-1.6-1.8l1.6-1.4l1.6-1.4l-0.7,2c-0.6,1.8,1.2,3.3,4.1,3.3c1.6,0,1.4-4.4-0.1-5.1c-0.7-0.4-0.6-0.5,0.4-0.4
	c2.9,0.6,1.8,6.1-1.2,6.5l-2.7,0.4l1.4,1.7c0.7,1,1.2,2.2,1,2.7C266.4,620.1,265.1,619.3,263.9,617.7L263.9,617.7z M269.4,620
	c-0.8-0.4-1.6-1.2-1.6-1.8c0-0.7,0.7-0.7,1.8,0.2c1.8,1.4,4.2,0.8,4.2-1.1c0-0.6-1-1.3-2.2-1.6c-1.6-0.4-1.4-0.6,0.6-0.7
	c3.2-0.1,3.8,3.9,0.8,5.1c-1.1,0.4-2,0.7-2.2,0.6C270.9,620.7,270.1,620.4,269.4,620L269.4,620z M302.4,619.8
	c2.6-1.7,0.6-6.9-3.5-9.1c-1.9-1-4.3-3.3-5.3-5.1s-5.3-6.6-9.6-10.8c-9.9-9.3-22.2-27.9-18.6-27.9c0.7,0,1.2,0.8,1.2,1.8
	c0,3,6,4.4,16.7,3.8c5.6-0.2,8-0.2,5.4,0l-4.8,0.6l2.4,1l2.4,1h-4.2c-2.3,0-6.2,0.4-8.6,0.8l-4.4,0.7l3.6,5.3
	c2,2.9,7.2,8.6,11.5,12.7c4.3,4.1,8.6,8.8,9.6,10.8c1,1.9,2.5,3.3,3.3,3.3c2.4,0,6.6,5.9,6.6,9.1c0,2.2-0.6,2.9-2.7,2.7
	C301.5,620.7,301.2,620.5,302.4,619.8L302.4,619.8z M277.1,574.6c-0.5-0.5-1.2-0.5-1.6,0c-0.4,0.5-0.1,0.8,0.8,0.8
	C277.3,575.4,277.4,575.1,277.1,574.6L277.1,574.6z M309.7,619.6c0-0.6,0.6-1.2,1.2-1.2s1.2,0.6,1.2,1.2s-0.6,1.2-1.2,1.2
	S309.7,620.2,309.7,619.6z M160.9,617.3c-0.5-0.7,0.1-0.8,1.1-0.5c2,0.8,2.4,1.7,0.7,1.7C162.2,618.4,161.4,617.9,160.9,617.3
	L160.9,617.3z M283.8,617.6c0.5-0.5,1.2-0.5,1.6,0c0.4,0.5,0.1,0.8-0.8,0.8S283.4,618.1,283.8,617.6L283.8,617.6z M149.5,613.7
	c0-0.8,0.4-1.2,0.8-0.8c0.5,0.4,0.5,1.2,0,1.6C149.9,614.7,149.5,614.5,149.5,613.7z M273.8,611.9c0-1,0.2-1.8,0.5-1.8
	s0.8,0.8,1.2,1.8c0.4,1,0.1,1.8-0.5,1.8S273.8,612.8,273.8,611.9z M109.8,611.6c0.8-0.4,1.9-0.4,2.3,0.1s-0.4,0.7-1.6,0.6
	C109.3,612.2,108.9,612,109.8,611.6L109.8,611.6z M126,611.6c0.5-0.5,1.2-0.5,1.6,0c0.4,0.5,0.1,0.8-0.8,0.8S125.6,612.1,126,611.6
	L126,611.6z M132.8,611.3c0-0.8,0.4-1.2,0.8-0.8c0.5,0.4,0.5,1.2,0,1.6C133.2,612.4,132.8,612.1,132.8,611.3z M85.9,610.4
	c0.8-0.4,1.9-0.4,2.3,0.1s-0.4,0.7-1.6,0.6C85.3,611,85,610.8,85.9,610.4L85.9,610.4z M96.1,610.4c0.5-0.5,1.2-0.5,1.6,0
	c0.4,0.5,0.1,0.8-0.8,0.8S95.7,610.9,96.1,610.4L96.1,610.4z M139.1,610.4c0.5-0.5,1.2-0.5,1.6,0c0.4,0.5,0.1,0.8-0.8,0.8
	C138.9,611.3,138.8,610.9,139.1,610.4L139.1,610.4z M304.9,610.1c0-0.6,0.6-1.2,1.2-1.2s1.2,0.6,1.2,1.2s-0.6,1.2-1.2,1.2
	S304.9,610.7,304.9,610.1z M74.8,607c-2.6-2.3-4.4-2.9-6.6-2.4c-2.3,0.5-2.6,0.4-1.2-0.5c3-2,5.4-1.4,10.2,2.4
	c2.5,1.9,3.8,3.6,2.9,3.6S76.9,608.6,74.8,607z M272.2,607.8c-0.8-1.3,0.4-4.9,1.7-4.9c2.2,0,3.6,2.9,2.3,4.4
	C274.6,609.1,273.1,609.2,272.2,607.8L272.2,607.8z M275,606.5c0-0.6-0.5-1.2-1.2-1.2s-1.2,0.6-1.2,1.2s0.5,1.2,1.2,1.2
	S275,607.1,275,606.5z M304.9,606.5c0-0.6,0.6-1.2,1.2-1.2s1.2,0.6,1.2,1.2s-0.6,1.2-1.2,1.2S304.9,607.1,304.9,606.5z M245.2,603.5
	c0-1.7,0.5-3,1.2-3s0.8,0.8,0.5,1.9c-0.4,1.1,0,2.4,1,3l1.7,1.1h-2.2C245.9,606.5,245.2,605.5,245.2,603.5L245.2,603.5z
	 M263.9,604.5c0.2-0.7-0.7-2.3-2.3-3.3c-1.6-1.1-2.2-1.9-1.4-1.9s1.2-1.2,1.2-2.7c-0.1-1.9,0.6-2.7,2.3-2.7c3.3,0,3.8,3.9,0.6,5.1
	l-2.6,1l1.9,1.6l1.9,1.6l1.7-1.4c1.2-1,1.9-1,2.5-0.1c0.5,0.7,0.2,1.2-0.5,1.2c-0.7,0-1,0.7-0.6,1.7c0.5,1.2-0.2,1.7-2.3,1.6
	C264.6,605.9,263.7,605.3,263.9,604.5L263.9,604.5z M263.8,594.8c-1.2-1.2-2.3,0.6-1.2,2.3l1,1.6l0.5-1.6
	C264.3,596.2,264.2,595.3,263.8,594.8L263.8,594.8z M457.3,599.9c-8.4-3.3-12.3-3.6-17.9-1.3c-2.3,1-4.4,1.3-4.8,1
	c-1.1-1.1,6.3-3.8,10.2-3.8c2.2,0,3.5-0.6,3.5-1.7c0-1,1-2.9,2.3-4.5c2.4-3.1,4.1-13,2.5-15.5c-0.5-0.8-0.1-2.7,1-4.3
	c2.5-3.8,2.5-3.8-9.8-2.2l-10.8,1.4l3.3,1c1.8,0.5,5.6,0.6,8.4,0.2c3.5-0.5,4.3-0.4,2.5,0.4c-1.4,0.6-6.8,1.1-12,1
	c-5.1-0.1-13.9,0.8-19.4,2s-10.2,1.8-10.5,1.6s4.2-1.4,9.9-2.5c15.5-2.9,15.7-2.9,11.6-3c-2-0.1-6.8,0.5-10.6,1.2
	c-5.1,1-10,1-19-0.2c-15.3-1.9-17.7-1.9-32.9,0c-6.8,0.8-12.9,1.1-13.4,0.5s2.4-1.1,6.5-1.3s11.1-0.8,15.5-1.7c6.1-1,10-1,15.7,0.1
	c10.9,2,20.2,1.9,42.6-0.4c23.7-2.5,23.8-2.5,24.5-6.6c0.4-1.8,1.7-5.1,3-7.6c1.3-2.5,2.4-5.7,2.4-7.3v-2.9l-6,3
	c-11.7,5.9-24.3,3.7-20.6-3.6c3.1-6,7.3-20.6,8-27.6c0.8-8.2,2.9-17.6,4.3-19.5c1.2-1.6,29.5-1.6,31.9,0c4.2,2.6-1.8,27.5-8.8,37.3
	l-1.8,2.5l8.7-0.4c9.3-0.4,9.9-0.5,20.1-5.1c3.6-1.7,9.8-3.7,13.7-4.7s9.2-3,11.6-4.7c2.4-1.7,5.5-3,6.7-3c3.5,0,15.9-6.8,20.3-11
	l3.9-3.8l-0.8-3.6c-1.3-5.9-6.5-15.3-11-20.1c-2.4-2.5-3.7-4.5-2.9-4.5c2.4,0,9.3,8,12.2,14.3c2.9,6.2,5.1,7.2,5.7,2.6
	c0.5-3.6-2.3-7.6-13.1-19.1l-9.2-9.8l-6,3.1c-3.3,1.7-6,2.6-6,2s2.4-2.3,5.4-3.7c6.1-3.1,6.1-2.9,3.6-17.6c-3-17-9-37.7-13-44.7
	c-9.7-16.9-25.1-30-40.2-34.2l-5.4-1.4l3.6-0.1c11.6-0.4,33,16.9,43.7,35c3.3,5.6,9.2,25.6,12.7,43.2l3.1,15.5l3.5,5
	c1.9,2.7,5,6.1,6.9,7.5c9.4,6.7,15.3,19.5,11,23.8c-1.4,1.4-2.2,3.3-1.8,4.7c0.8,3.2-3.5,8.1-11.2,12.7l-6.7,3.9l0.4,6.6l0.4,6.6
	l-2.7,4.2c-3.5,5.1-12.9,11.6-19.6,13.4l-5,1.3l-0.8,5.7c-0.5,3.1-0.5,6.2,0,6.9s1,2.7,1.2,4.5c0.2,1.8,0.8,4.3,1.3,5.4
	c0.5,1.1,0.2,2.2-0.4,2.2c-1.6,0-2.6-2.7-3.8-10.4l-1.1-6.2l2.4-9.9c1.3-5.5,2.2-11.4,1.8-13.3c-0.4-1.9-0.1-3.3,0.4-3.3
	c1.7,0,2.4,5,1.4,10.5c-1.1,5.9-0.5,6.1,6.7,3.2c11-4.5,16-10.9,16-20.3v-5.6l-3.9,0.7c-2.2,0.4-7.1,2.4-10.9,4.3s-8.4,3.6-9.9,3.6
	s-6.3,1.6-10.5,3.5c-9.9,4.5-15.4,6.1-22.8,6.1H472l-3.7,3.2c-4.2,3.7-4.9,8.1-1.7,10.8l2.2,1.7l-2.6-0.6c-3.1-0.7-6.3,3.5-6.3,8.1
	v3.1l8.2-0.8c6.1-0.6,8.5-0.4,9.1,0.7c0.7,1.1,0.1,1.3-2.5,0.8c-7.5-1.4-17.9,2.3-16.6,6c0.4,0.8,0.1,1.6-0.4,1.6s-1.1,3.3-1.2,7.4
	c-0.1,4.1-1,8.2-1.9,9.3c-0.8,1-1.9,3-2.4,4.3l-0.7,2.5l3.1,1.4c4.4,2,5.4,1.8,5.4-1.6c0-2.7,4.5-7.3,5.9-6c0.4,0.4-0.2,1.2-1.3,1.8
	c-5.7,3.2-3.5,9.4,3.5,9.4h3.9l0.1-3.3l0.1-3.3l1.2,3.3c0.8,2.4,2,3.3,4.3,3.3c5.3,0,2.5,0.8-5.1,1.6l-7.2,0.7L457.3,599.9
	L457.3,599.9z M452.4,545.8c14.1-5,25.8-26.5,25.8-47.5v-1.6h-14.8h-14.8l-1.3,5.5c-0.7,3-1.7,9-2,13.3c-0.7,6.9-5,22.4-8,27.9
	C434.9,548.3,442.3,549.5,452.4,545.8L452.4,545.8z M25.1,599.6l-1.7-2.2l2.2,1.7c2,1.6,2.6,2.5,1.7,2.5
	C26.9,601.7,25.9,600.8,25.1,599.6z M35.1,600.9c0.5-0.5,1.2-0.5,1.6,0c0.4,0.5,0.1,0.8-0.8,0.8C34.9,601.7,34.8,601.4,35.1,600.9
	L35.1,600.9z M300.4,600.3c0.2-0.8,1.1-1.6,1.9-1.7c0.8-0.1,0.8,0,0.2,0.4s-1,1.1-0.6,1.7c0.4,0.6,0.1,1.1-0.7,1.1
	S300.1,601,300.4,600.3z M239.8,599.3c-0.4-0.6-0.4-1.8,0-2.4c1-1.6,3.8-1.6,4.9,0.1c0.6,0.8,0,1.1-1.7,0.5
	c-1.4-0.5-2.5-0.2-2.5,0.4s1,1.4,2.2,1.8l2.2,0.6l-2,0.1C241.5,600.4,240.3,599.9,239.8,599.3z M429.6,599.7c0.5-0.5,1.2-0.5,1.6,0
	c0.4,0.5,0.1,0.8-0.8,0.8S429.2,600.2,429.6,599.7z M390.1,598.5c0.5-0.5,1.2-0.5,1.6,0c0.4,0.5,0.1,0.8-0.8,0.8
	S389.8,599,390.1,598.5z M405.3,598.1c0-0.8,0.4-1.2,0.8-0.8c0.5,0.4,0.5,1.2,0,1.6S405.3,599,405.3,598.1z M419,597.9
	c1.6-1,3-1,4.8,0l2.5,1.2h-4.8h-4.8L419,597.9L419,597.9z M246.8,595.6l-2.3-2.5l3.8,2.2c4.1,2.3,6.5,1.6,4.1-1.2l-1.4-1.7l2.2-1
	c1.2-0.6,3.7-1,5.7-1.1h3.6l-0.4-3.3c-0.5-3.8,0-4.1,2.7-1.3l1.9,1.9l-2.2,2c-2.4,2.2-7.9,4.1-6.8,2.4c0.4-0.6,0.1-1.1-0.5-1.1
	s-1.7,1.7-2.4,3.6C253.4,598.7,250.2,599.2,246.8,595.6L246.8,595.6z M263.9,586.5c-0.5-0.5-0.8-0.1-0.8,0.8c0,1,0.4,1.2,0.8,0.8
	C264.4,587.8,264.4,587,263.9,586.5z M308.3,597.3c0.8-0.4,1.9-0.4,2.3,0.1s-0.4,0.7-1.6,0.6C307.7,597.9,307.3,597.6,308.3,597.3
	L308.3,597.3z M315.4,597.3c0.8-0.4,2.2-0.4,3,0c0.8,0.4,0.1,0.6-1.6,0.6S314.6,597.6,315.4,597.3z M325,597.3
	c0.8-0.4,1.9-0.4,2.3,0.1s-0.4,0.7-1.6,0.6C324.4,597.9,324,597.6,325,597.3L325,597.3z M395.1,597.3c0.5-0.5,1.2-0.5,1.6,0
	c0.4,0.5,0.1,0.8-0.8,0.8S394.6,597.8,395.1,597.3z M399.8,597.3c0.5-0.5,1.2-0.5,1.6,0c0.4,0.5,0.1,0.8-0.8,0.8
	S399.4,597.8,399.8,597.3z M410.7,596.9c0.4-0.6,1-1.2,1.3-1.2s0.5,0.6,0.5,1.2s-0.6,1.2-1.3,1.2S410.4,597.5,410.7,596.9z
	 M498.6,595.7c0-0.8,0.4-1.2,0.8-0.8c0.5,0.4,0.5,1.2,0,1.6S498.6,596.6,498.6,595.7z M502.2,595.6c0-0.7,0.6-1,1.2-0.5
	c0.6,0.5,1.2,1,1.2,1.3s-0.6,0.5-1.2,0.5S502.2,596.3,502.2,595.6z M486.6,594.5c0-0.6,0.6-1.2,1.3-1.2s1,0.6,0.5,1.2
	s-1,1.2-1.3,1.2S486.6,595.1,486.6,594.5z M506.9,592.4c0-2,0.5-4.1,1.1-4.4c0.6-0.4,1.4-3.1,1.9-6.1c0.7-4.7,3-7.8,2.9-3.8
	C512.7,586.1,506.9,599.8,506.9,592.4L506.9,592.4z M241.1,592.9c0.4-1,0.1-2-0.5-2.5c-0.6-0.5-0.8-1.8-0.6-3.1
	c0.4-1.4,0-2.4-0.8-2.4c-0.7,0-1.1-0.6-0.6-1.2s0-2.2-0.8-3.2l-1.6-1.9l1.7,0.6c1,0.4,2.4,2.4,3.1,4.7c0.7,2.3,2.3,4.3,3.3,4.5
	c2.4,0.5,2.6-2.2,0.5-4.5c-0.8-1-0.4-0.7,1.1,0.5c3,2.5,2.4,5.5-1,5.5c-1.2,0-2.3,0.7-2.3,1.7s-0.5,2-1.2,2.5
	C241,594.3,240.7,593.8,241.1,592.9L241.1,592.9z M469.6,591.2c-0.5-2.7,6.8-5.5,9.9-3.8c1.2,0.6,3.5,0.8,5,0.5
	c1.7-0.4,3.2-0.1,3.7,0.6c1.3,2.2,0.5,2.3-6.3,1.2c-6.9-1.1-9.8-0.6-9.8,2C472.3,594.1,470.1,593.7,469.6,591.2L469.6,591.2z
	 M35.3,590.1c0.5-0.5,1.2-0.5,1.6,0c0.4,0.5,0.1,0.8-0.8,0.8C35,591,34.8,590.6,35.3,590.1L35.3,590.1z M498,588.6
	c-0.4-0.6-0.1-1.2,0.5-1.2s1.3,0.6,1.3,1.2s-0.2,1.2-0.5,1.2S498.4,589.2,498,588.6z M512.9,588.6c0-0.8,0.4-1.2,0.8-0.8
	c0.5,0.4,0.5,1.2,0,1.6C513.3,589.6,512.9,589.4,512.9,588.6z M528.4,588.6c0-0.6,0.5-1.2,1.1-1.2s1.4,0.6,1.9,1.2
	c0.5,0.6-0.1,1.2-1.1,1.2S528.4,589.2,528.4,588.6z M52,587.7c0.5-0.5,1.2-0.5,1.6,0c0.4,0.5,0.1,0.8-0.8,0.8S51.5,588.2,52,587.7
	L52,587.7z M517.9,587.3c1.2-0.7,3-0.7,4.8,0l2.7,1.1h-4.8h-4.8L517.9,587.3L517.9,587.3z M220.1,585.5c0-1.3-0.6-1.8-1.8-1.3
	c-1.2,0.5-2-0.2-2.5-2.3c-0.8-3.2-2.3-3.8-3.2-1.4c-0.4,0.8-0.6,0.6-0.7-0.6c-0.1-3.1,1.9-2.5,6.6,2c2.5,2.4,3.7,4.4,3,4.9
	C220.7,587.1,220.1,586.5,220.1,585.5L220.1,585.5z M249.6,585.5c-1-2.4,2.7-3.8,4.1-1.7c0.6,0.8,0.7,2,0.4,2.5
	C253,588,250.3,587.5,249.6,585.5L249.6,585.5z M253.5,585.6c0-0.2-0.5-0.8-1.2-1.3s-1.2-0.1-1.2,0.5s0.5,1.3,1.2,1.3
	S253.5,585.9,253.5,585.6z M256.5,586.1c-0.5-0.7-0.4-1.8,0.2-2.4c1.4-1.4,4.5,0.6,3.5,2.3C259.1,587.7,257.5,587.7,256.5,586.1
	L256.5,586.1z M492.6,586.2c0-0.6,0.6-1.2,1.2-1.2s1.2,0.6,1.2,1.2s-0.6,1.2-1.2,1.2S492.6,586.8,492.6,586.2z M226.5,585.3
	c0.5-0.5,1.2-0.5,1.6,0c0.4,0.5,0.1,0.8-0.8,0.8S226,585.8,226.5,585.3L226.5,585.3z M92.2,583.8c0-0.8,0.4-1.2,0.8-0.8
	c0.5,0.4,0.5,1.2,0,1.6S92.2,584.6,92.2,583.8z M223,582.6c0.4-0.6,1-1.2,1.3-1.2s0.2,0.6-0.1,1.2s-1,1.2-1.3,1.2
	S222.7,583.2,223,582.6z M229.6,582.6c0-0.8,0.4-1.2,0.8-0.8c0.5,0.4,0.5,1.2,0,1.6S229.6,583.4,229.6,582.6z M96.2,581.8
	c0.5-0.5,1.2-0.5,1.6,0c0.4,0.5,0.1,0.8-0.8,0.8S95.7,582.2,96.2,581.8L96.2,581.8z M227.7,579.6c0-1,0.5-1.4,1-1.1s0.7,1.1,0.4,1.8
	C228.1,581.8,227.7,581.6,227.7,579.6L227.7,579.6z M221.7,579.4c0.4-0.7-0.1-2-1.1-2.9l-1.9-1.6l-1.2,1.7l-1.2,1.7l0.5-1.7
	c0.7-2.5,2.5-2.7,5.1-0.7l2.4,1.7l-1.7,1.6C221.7,580.1,221.3,580.2,221.7,579.4L221.7,579.4z M249.2,578.3c-1.2-3,1.3-4.5,3.6-2.3
	c1.1,1.1,1.7,2.5,1.3,3.1C253,580.8,249.9,580.3,249.2,578.3L249.2,578.3z M252.3,577.8c0-0.6-0.5-1.2-1.2-1.2s-1.2,0.6-1.2,1.2
	s0.5,1.2,1.2,1.2S252.3,578.4,252.3,577.8z M257.7,577.9l0.8-2.9l-2,0.8c-1.3,0.5-1.9,0.2-1.6-0.7c0.7-2.3,3.8-1.8,4.3,0.7
	c0.2,1.2-0.2,2.9-1,3.6l-1.4,1.3L257.7,577.9L257.7,577.9z M360.3,579.4c1.2-0.4,3-0.4,4.2,0c1.2,0.4,0.2,0.6-2.2,0.6
	S359.1,579.6,360.3,579.4z M230.3,576.6c-0.5-1.7-0.8-4.4-0.7-6.3c0.2-3.6-1.9-4.5-2.7-1.2c-0.4,1.6-0.6,1.4-0.7-0.6
	c-0.1-1.6-1-2.7-2-2.7s-1.6,0.5-1.3,1c0.2,0.5-0.4,1.6-1.4,2.3l-2,1.3v-2.2c0-1.2,0.5-1.9,1-1.6s1,0,1-0.7c0-1.7,7.3-1.1,9.2,0.8
	c0.8,0.7,1.2,2.3,0.7,3.5c-0.7,1.9,2.2,5.3,4.7,5.3c1.4,0,1.2-3.2-0.2-3.9c-0.7-0.4-0.6-0.5,0.4-0.4c1,0.1,1.7,1.6,1.9,3.1l0.4,2.7
	l-3-0.7c-2.3-0.6-3.1-0.2-3.5,1.3l-0.5,2.2L230.3,576.6L230.3,576.6z M240.9,577.1c-1-2.5,1-4.3,3.1-3c1.8,1.1,1,4.9-1.1,4.9
	C242.1,579,241.2,578.2,240.9,577.1L240.9,577.1z M244,576.6c0-0.6-0.5-1.2-1.2-1.2s-1.2,0.6-1.2,1.2s0.5,1.2,1.2,1.2
	S244,577.2,244,576.6z M303.5,578c2.7-0.2,7.4-0.2,10.2,0s0.5,0.5-5.1,0.5S300.6,578.3,303.5,578L303.5,578z M350.1,578.2
	c0.8-0.4,2.2-0.4,3,0c0.8,0.4,0.1,0.6-1.6,0.6S349.3,578.5,350.1,578.2z M372.2,578.2c1.2-0.4,2.7-0.2,3.6,0
	c0.8,0.2-0.1,0.6-2.2,0.6S371,578.4,372.2,578.2z M390.3,578.2c0.5-0.5,1.2-0.5,1.6,0c0.4,0.5,0.1,0.8-0.8,0.8
	S389.8,578.6,390.3,578.2z M399.1,578c2.2-0.2,5.4-0.2,7.2,0s0,0.5-3.9,0.5S397,578.4,399.1,578z M481.1,575.7
	c-1.4-3.9-0.6-6.8,1.3-4.5c0.7,0.7,1,2.9,0.6,4.8l-0.6,3.5L481.1,575.7L481.1,575.7z M185.9,577c0.5-0.5,1.2-0.5,1.6,0
	c0.4,0.5,0.1,0.8-0.8,0.8S185.4,577.4,185.9,577L185.9,577z M291.8,576.6l-3-1h2.4c1.3,0,3.5,0.5,4.8,1
	C299.1,577.9,295.8,577.9,291.8,576.6z M320.5,576.6c-1-0.6-5.5-1.2-10.2-1.3s-9.4-0.6-10.8-1.1c-2.9-1.2,9-0.5,23.7,1.3
	c5.7,0.7,10.9,1,11.2,0.6s-1.2-0.7-3.6-0.7s-4.4-0.5-4.4-1.1s-3.6-1.4-8.1-1.8c-12-1.2-25.6-3.3-25-3.8c0.2-0.2,6.9,0.4,14.7,1.4
	c18.8,2.5,33.2,2.5,37.1,0c1.6-1.1,2.9-1.3,2.9-0.7c0,1.9-4.3,3.7-9.1,3.7c-5.7,0-4.7,1.1,3.3,3l6.3,1.6l-13.1,0.1
	C328.2,577.7,321.4,577.2,320.5,576.6L320.5,576.6z M380.6,577c1.8-0.2,4.5-0.2,6,0c1.4,0.2,0,0.5-3.3,0.5S378.8,577.2,380.6,577
	L380.6,577z M417.3,576c3.7-1,11.2-1.7,17.3-1.6l10.8,0.1l-12.6,0.8c-6.9,0.5-14.7,1.2-17.3,1.6C412.3,577.6,412.9,577.2,417.3,576
	L417.3,576z M50.3,575.4c0-0.8,0.4-1.2,0.8-0.8c0.5,0.4,0.5,1.2,0,1.6S50.3,576.3,50.3,575.4z M212.6,574.6c2.9-0.6,3.3-1.7,1.6-3.5
	c-0.7-0.7-0.7-1.8,0-3l1.2-1.8l1.1,1.7c1.7,2.6-0.4,6.7-3.6,6.9l-2.9,0.2L212.6,574.6L212.6,574.6z M345,574.2
	c0.4-0.6,1.3-1.2,1.9-1.2s0.8,0.6,0.5,1.2s-1.3,1.2-1.9,1.2S344.6,574.8,345,574.2z M350.1,574.7c-0.4-0.6,2.6-1.1,6.7-1.2
	s12.4-0.5,18.8-1c6.2-0.5,12.6-0.5,14.1,0.1c1.9,0.7-0.6,1.1-8.4,1.1c-6.1,0-15.4,0.5-20.8,1C354.8,575.3,350.5,575.3,350.1,574.7
	L350.1,574.7z M393.4,574.5c0-0.5,1.9-0.7,4.2-0.5c2.3,0.2,4.2,0.7,4.2,1c0,0.2-1.9,0.5-4.2,0.5S393.4,574.9,393.4,574.5z
	 M462.5,574.6c0.8-0.4,1.9-0.4,2.3,0.1s-0.4,0.7-1.6,0.6C461.9,575.2,461.5,574.9,462.5,574.6L462.5,574.6z M193.9,572.8
	c0-1.1,0.5-2.4,1.2-2.9c2.2-1.3,2.4,0.1,0.6,2.5l-1.8,2.3V572.8L193.9,572.8z M222.4,573c0-0.8,0.4-1.2,0.8-0.8
	c0.5,0.4,0.5,1.2,0,1.6S222.4,573.9,222.4,573z M447.2,573.7c0-0.2,0.8-0.8,1.9-1.2s1.6-0.2,1.1,0.5
	C449.4,574.1,447.2,574.7,447.2,573.7z M135.2,571.2c0-1,0.5-1.8,1.2-1.8c0.7,0,0.8,0.8,0.5,1.8c-0.4,1-1,1.8-1.2,1.8
	S135.2,572.2,135.2,571.2z M471.6,572.2c0.5-0.5,1.2-0.5,1.6,0c0.4,0.5,0.1,0.8-0.8,0.8S471.1,572.7,471.6,572.2z M210.3,571.1
	c-0.5-0.5-0.2-1.8,0.5-3.1c0.8-1.7,0.8-2.7-0.2-4.1c-1.9-2.3-3.2-2.2-3.9,0.4c-0.4,1.6-0.6,1.4-0.7-0.6c-0.1-3-1.3-3.5-3.5-1.3
	c-1.1,1.1-1.2,0.7-0.7-1.1c0.4-1.6,1.3-2.3,2.3-1.8c2,0.8,2.3-2.2,0.2-4.2c-1-1-1-1.4-0.1-1.4c0.7,0,1.3-1.4,1.3-3.2
	s1.1-3.9,2.5-5.1c1.8-1.3,2.2-2.4,1.4-3.7c-1.2-1.9-0.6-3.6,1.2-3.6s1.3,6.2-0.7,8.5l-1.9,2.2l2.7,3.7c4.3,5.9,6.5,4.8,2.3-1.1
	c-2.7-3.8-1.4-5.6,2.4-3.3c2.9,1.8,3.1,4.3,0.7,7.6l-1.7,2.3l2,2.4l2,2.4l-2.5-2.2c-3.1-2.6-4.5-2.6-3.6-0.2
	c0.4,1.1,0.2,1.6-0.4,1.2s-1.3-2.7-1.8-5.4c-0.5-2.6-1.4-5.1-2.2-5.6c-1-0.6-1.2-0.2-0.6,1.1c0.5,1.1,0.4,2-0.2,2
	c-2,0,0.4,6.5,3.6,9.4l3.3,3.1l-1.6,2.7C211.7,570.6,210.6,571.5,210.3,571.1L210.3,571.1z M215.5,550.1c-0.8-0.8-1.4-1-1.4-0.1
	c0,1.6,1.4,3,2.3,2.3C216.7,551.7,216.4,550.8,215.5,550.1L215.5,550.1z M240.5,570c-0.8-1-2.2-1.4-3-1.1c-1.8,0.7-3.6-3.6-2.3-5.7
	c0.6-1-0.2-1.2-3-0.6c-2.9,0.6-3.9,0.2-4.5-1.1c-1-2.5,0.2-3.5,2.9-2.3c1.2,0.5,2.7,0.8,3.6,0.7c0.8-0.1,2.3,1.8,3.3,4.2
	c1.3,3.2,2.3,4.1,3.2,3.1s2.2-1,4.2,0c3.1,1.4,3.6,2.7,1.4,4.1c-0.8,0.5-1.1,0.4-0.6-0.5c0.5-0.7-0.4-1.9-1.7-2.6l-2.5-1.3l0.8,2.5
	C243.1,572.2,242.4,572.5,240.5,570L240.5,570z M229.3,560.2c-0.5-0.5-0.8-0.1-0.8,0.8c0,1,0.4,1.2,0.8,0.8S229.7,560.7,229.3,560.2
	z M491.9,571c0.5-0.5,1.2-0.5,1.6,0c0.4,0.5,0.1,0.8-0.8,0.8S491.4,571.5,491.9,571z M31.2,568.2c0-0.6,0.6-1.2,1.3-1.2
	c0.7,0,1,0.6,0.5,1.2c-0.5,0.6-1,1.2-1.3,1.2C31.3,569.4,31.2,568.8,31.2,568.2z M268.8,568.6c0.8-0.4,2.2-0.4,3,0
	c0.8,0.4,0.1,0.6-1.6,0.6C268.6,569.2,268,569,268.8,568.6z M277.6,569c0.2-0.2,2.9-0.7,5.9-1.1c3.5-0.5,4.7-0.2,3.6,0.4
	C285.3,569.3,276.5,569.9,277.6,569L277.6,569z M522.5,568.2c0-0.6,0.8-1.2,1.8-1.2c1,0,1.8,0.6,1.8,1.2s-0.8,1.2-1.8,1.2
	C523.3,569.4,522.5,568.8,522.5,568.2z M531.3,568.6c0.5-0.5,1.2-0.5,1.6,0c0.4,0.5,0.1,0.8-0.8,0.8
	C531.1,569.4,530.8,569.1,531.3,568.6z M41.2,567.4c0.5-0.5,1.2-0.5,1.6,0c0.4,0.5,0.1,0.8-0.8,0.8S40.8,567.9,41.2,567.4
	L41.2,567.4z M58.5,567.4c0.8-0.4,1.9-0.4,2.3,0.1s-0.4,0.7-1.6,0.6C57.9,568,57.5,567.8,58.5,567.4L58.5,567.4z M70.3,566.9
	c2.2-0.6,4.2-1.7,4.5-2.3c1.3-2.2,10.2-1.1,10.2,1.3c0,0.6-1.3,0.4-3.1-0.4l-3.1-1.4l-3.5,2c-1.9,1.1-4.7,1.9-6.2,1.9l-2.7-0.1
	L70.3,566.9L70.3,566.9z M515.8,567.4c0.5-0.5,1.2-0.5,1.6,0c0.4,0.5,0.1,0.8-0.8,0.8C515.5,568.2,515.3,567.9,515.8,567.4z
	 M50.8,566.2c0.5-0.5,1.2-0.5,1.6,0c0.4,0.5,0.1,0.8-0.8,0.8S50.3,566.7,50.8,566.2L50.8,566.2z M133.4,564.8
	c-0.4-1.1-0.4-1.4,0.1-1c0.5,0.5,1.4,0,2.2-1l1.3-1.8l0.1,2.7C137.3,566.9,134.6,567.6,133.4,564.8L133.4,564.8z M487.2,564.7
	c-0.4-0.6-0.2-1.2,0.5-1.2s1.6,0.6,1.9,1.2s0.2,1.2-0.5,1.2S487.7,565.3,487.2,564.7z M145.8,563.1l1.7-2.2l-2.3-1.8l-2.3-1.8
	l2.7,1.3c3.2,1.6,3.3,2.7,0.6,4.9l-2.2,1.7L145.8,563.1z M481.1,563.8c0.5-0.5,1.2-0.5,1.6,0c0.4,0.5,0.1,0.8-0.8,0.8
	S480.6,564.3,481.1,563.8z M224.4,560.6c0.7-1.9-2.5-4.9-4.2-3.8c-0.7,0.4-0.8,1.7-0.5,2.7c0.5,1.3,0.2,1.7-0.6,1.1
	c-1.7-1.1-1.9-4.3-0.2-4.3c0.7,0,1.2-0.8,1.2-1.8s0.5-1.8,1.2-1.8s1.2,0.7,1.2,1.7s0.8,2,1.8,2.4c1.2,0.5,1.8-0.1,1.8-1.7
	c0-1.3-0.5-2.4-1.1-2.4s-1.3-1.1-1.7-2.4c-0.8-3.2,0.5-3,3.2,0.8l2.3,3.1l-1.4,2.2c-0.7,1.2-1.4,3-1.4,4.1c0,1.1-0.5,1.8-1.2,1.8
	S224,561.6,224.4,560.6L224.4,560.6z M271.1,558.3c-3-2.3-5.6-9.6-6.8-19.6c-0.6-5-2.2-12.7-3.5-17c-3.1-10.9-3.9-20.9-1.9-23.7
	l1.6-2.2l17.7-0.7c9.8-0.4,18.4-0.5,19.2-0.2c4.1,1.6,0.1,2-13.9,1.9c-8.5-0.1-17.1,0.5-19.5,1.2l-4.1,1.3l0.4,7.8
	c0.2,4.3,1.4,11,2.7,14.8c1.3,3.8,2.6,10.2,3,13.7c1.1,11,4.1,20,7.3,21.6l2.9,1.6l4.7-1.4c2.9-0.8,6.7-3.6,10-7.2l5.5-5.9l3-9.4
	c6.2-19.6,7.1-31.4,2.5-36.5c-2.9-3.2-1.3-4.3,1.8-1.2C319.5,513.4,288.4,571.4,271.1,558.3L271.1,558.3z M319.9,557.4
	c-2.6-1.2-5.6-3.6-6.5-5.1l-1.6-3l1.1-24.9l1.1-24.9l4.5-2.2c5-2.4,16.9-3.9,21.6-2.7c5.9,1.4,3.1,2.5-6.8,2.5
	c-6.5,0-11.1,0.6-13.4,1.8l-3.6,1.8l-1,14.9c-1.2,20.6-1,34.9,0.6,36.8c10.6,12.8,28.8,0.5,34.9-23.7c4.5-17.8,4.5-24.1,0-29
	c-1.7-1.8-2.7-3.7-2.3-4.2c0.5-0.5,2.4,1.1,4.3,3.3l3.5,4.2v5.7c0,9-4.5,27-8.7,34.8l-3.8,7.2l-7.1,4.5
	C328.8,560.4,326.8,560.6,319.9,557.4L319.9,557.4z M135.3,556.1c0.1-2,0.2-2.2,0.7-0.7c1,3.8,4.2,2.5,3.6-1.6c-0.4-2-0.1-3.3,0.4-3
	c2.3,1.3,0.7,7.2-2,7.6l-2.7,0.4L135.3,556.1L135.3,556.1z M357.9,555.6l-3.1-3.1l0.8-5.6c0.5-3.1,1.4-9.6,2.2-14.6
	c1.7-10.9,1.8-19,0.6-27l-1-6.1l4.5-1.9c5.3-2.3,28.4-4.1,29.5-2.4c0.5,0.7-4.5,1.4-12.6,2c-14.5,1-19,2.3-19,5.7c0,1.2,0.4,2,1,1.7
	c1.1-0.7,1,17.9-0.1,21.3c-1.7,5.3-3.1,25.9-2,28c10.3,19.2,45.8-31.6,37.8-54c-1.1-3.1-1.2-4.4-0.2-4.1c0.7,0.2,2.2,3,3.1,6
	l1.7,5.5l-1.8,8.4c-1.3,5.9-4.2,12.6-9.9,22.6l-8.1,14.2l-4.9,3.1c-3.3,2.2-6.5,3.1-10,3.1H361L357.9,555.6L357.9,555.6z
	 M395.1,557.4c-7.2-1.7-8-3.2-4.5-8.8c11.8-19.7,15.7-35.4,11.8-48.6c-0.4-1.1,0.5-3.1,1.9-4.5l2.5-2.5h13.6
	c7.5,0,14.5,0.4,15.5,0.7c4.9,1.9-0.8,31.4-9.8,50.8l-4.8,10.3l-4.2,1.6C411.4,558.2,400.8,558.7,395.1,557.4L395.1,557.4z
	 M417.5,553.5c6-3.9,17.7-38.4,17.7-52v-6.3l-14.7,0.4l-14.7,0.4l0.2,6c0.5,15.4-4.3,33.6-11.7,44.5c-1.9,2.7-3.5,5.5-3.5,6.2
	C391,556.3,412,557.2,417.5,553.5L417.5,553.5z M402.7,551.9c0.8-0.4,1.9-0.4,2.3,0.1s-0.4,0.7-1.6,0.6
	C402.1,552.5,401.7,552.2,402.7,551.9L402.7,551.9z M408.4,551.5c0.6-0.6,2.7-1.4,4.8-1.8l3.6-0.7l-4.1,1.8
	C408.1,552.9,406.8,553.2,408.4,551.5z M398.9,545.2c0.5-1.2,1.1-1.8,1.4-1.4s0,1.3-0.8,2.2l-1.4,1.4L398.9,545.2z M401.7,539.6
	c0-0.8,0.4-1.2,0.8-0.8c0.5,0.4,0.5,1.2,0,1.6S401.7,540.4,401.7,539.6z M405.3,531.2c0-0.8,0.4-1.2,0.8-0.8c0.5,0.4,0.5,1.2,0,1.6
	S405.3,532,405.3,531.2z M409.8,513.6c-0.5-0.5-0.8-1.7-0.7-2.7V509l1.3,2.2C411.5,513.4,411.2,515.1,409.8,513.6L409.8,513.6z
	 M199.9,555.6c0-1.4,0.4-1.7,0.7-0.7c0.4,0.8,0.4,1.9-0.1,2.3S199.7,556.8,199.9,555.6L199.9,555.6z M108.5,555.5
	c-0.5-0.5-0.8-1.3-0.8-2c0-0.7,0.6-0.7,1.4,0.1s1.2,1.7,0.8,2S108.9,555.9,108.5,555.5L108.5,555.5z M143.4,554.1l-1.7-2.2l2.4,1.8
	c1.3,1,2.6,1.9,2.9,2.2s-0.1,0.4-0.7,0.4S144.3,555.3,143.4,554.1L143.4,554.1z M196.7,551.3c-0.6-2.5-0.4-4.1,0.7-4.7l1.6-1
	l-2.2-0.8c-1.3-0.5-1.8-1.6-1.4-2.6s-0.5-3.1-1.9-4.7c-1.4-1.6-2-2.7-1.2-2.7s1.4,0.5,1.4,1.1c0,1.7,8.1,6.3,9.6,5.5
	c0.7-0.4,1.2,0.4,1.2,1.7s-0.5,2.7-1.1,3.1c-0.6,0.4-0.8,1.7-0.5,2.9c0.4,1.4-0.5,2.9-2.4,4.2l-3,1.9L196.7,551.3L196.7,551.3z
	 M202.1,550.9c0-0.2-0.4-1.3-0.7-2.4c-1.1-2.6-2.9-2.4-2.9,0.5c0,1.3,0.8,2.4,1.8,2.4C201.3,551.5,202.1,551.3,202.1,550.9z
	 M201.9,544c-0.2-0.8-1.6-1.7-2.7-1.9l-2.3-0.5l1.6,1.9C200.3,545.9,202.6,546.1,201.9,544L201.9,544z M359.3,552.7
	c-0.4-0.6-0.1-1.2,0.5-1.2s1.3,0.6,1.3,1.2s-0.2,1.2-0.5,1.2S359.8,553.3,359.3,552.7z M272.7,551.5c0-0.8,0.4-1.2,0.8-0.8
	c0.5,0.4,0.5,1.2,0,1.6C273,552.6,272.7,552.3,272.7,551.5z M330.4,551.9c0.5-0.5,1.2-0.5,1.6,0c0.4,0.5,0.1,0.8-0.8,0.8
	S330,552.3,330.4,551.9z M144.2,550.6c-0.7-0.5-1.3-1.6-1.6-2.4l-0.4-1.6l2.4,1.4c4.4,2.7,4.2-0.5-0.2-4.5l-4.5-4.1l3.3,0.8l3.3,0.8
	l-2.4-2.9l-2.4-2.9l2.7,2.3c1.8,1.4,2.5,3.1,2,4.5c-0.5,1.4-0.1,2.2,1.2,2.2c1.1,0,1.9,0.6,1.9,1.3c0,0.7,0.8,1,1.8,0.6
	s1.8-0.1,1.8,0.5s-0.6,1.2-1.3,1.2c-0.7,0-2,0.8-3.1,1.8C146.8,551.6,145.9,551.9,144.2,550.6L144.2,550.6z M219.5,550.3
	c-0.4-0.6-0.4-1.8,0-2.4s-0.4-1.2-1.7-1.2s-2.7-0.5-3.1-1.1s0.6-0.8,2-0.5l2.7,0.6l-2.4-2.2c-2.4-2.3-3.9-8.4-1.8-6.9
	c0.6,0.4,1.2,1.6,1.2,2.6s0.8,2.5,1.8,3.2c1,0.7,2,3.1,2.4,5.3C221.3,551.5,220.9,552.5,219.5,550.3L219.5,550.3z M471.1,550.3
	c0-0.6,0.6-1.2,1.2-1.2s1.2,0.6,1.2,1.2s-0.6,1.2-1.2,1.2S471.1,550.9,471.1,550.3z M116.7,549.1c0.4-0.6,1-1.2,1.3-1.2
	s0.2,0.6-0.1,1.2s-1,1.2-1.3,1.2S116.3,549.7,116.7,549.1L116.7,549.1z M135.7,549.5c1.6-0.4,2-1.3,1.7-3.5l-0.6-2.9l1.6,1.3
	c1.1,0.8,1.7,0.8,2.2-0.2c0.5-1.1,0.6-1,0.7,0.4c0.1,2.3-3.6,5.9-6,5.7C134.1,550.1,134.4,549.7,135.7,549.5L135.7,549.5z
	 M477.4,549.5c0.5-0.5,1.2-0.5,1.6,0c0.4,0.5,0.1,0.8-0.8,0.8S477,550,477.4,549.5z M126,548.4c0.5-0.5,0.2-1.7-0.5-2.5l-1.3-1.7
	l1.9,0.7c1.3,0.5,1.9,0.1,1.9-1.2c0-2,2-2.5,4.5-0.8c1.2,0.7,0.4,1.7-3,3.7C127.1,548.2,125.4,548.9,126,548.4L126,548.4z
	 M130.1,543.5c-0.5-0.5-0.8-0.1-0.8,0.8c0,1,0.4,1.2,0.8,0.8S130.4,544,130.1,543.5z M234.6,543.3c-16.5-17.7-22.5-24.7-23.4-27.7
	c-1.6-5.1,4.2-22.8,8.5-26.2l3.2-2.5l7.2,0.5c7.6,0.5,19,4.4,22.1,7.5l1.8,1.9v18.8c0,25.1-1.7,29.5-11.7,31.8l-3.3,0.8L234.6,543.3
	L234.6,543.3z M247,542.8c4.1-3.6,5.5-11.5,5.5-30.4v-14.8l-2.4-2.4c-1.3-1.3-3.3-2.4-4.5-2.4s-3.6-0.8-5.5-1.8
	c-2-1.1-6.6-1.8-10.9-1.8h-7.5l-2,3.1c-2.4,3.6-6.6,17.6-6.6,21.8c0,1.8,3.1,6.1,8.7,12.1c4.8,5.1,10.4,11.6,12.7,14.2
	C238.7,546.3,242.3,546.8,247,542.8L247,542.8z M238.3,539.9c1.2-0.4,2.7-0.2,3.6,0c0.8,0.2-0.1,0.6-2.2,0.6
	S237.1,540.2,238.3,539.9z M231.5,533.9l-0.8-2.2l1.4,1.4c0.8,0.8,1.2,1.8,0.8,2.2C232.6,535.7,232,535,231.5,533.9z M227.2,527.6
	c-0.7-1.3-1-2.4-0.7-2.4s1.2,1.1,1.9,2.4c0.7,1.3,1,2.4,0.7,2.4S227.9,528.9,227.2,527.6z M219.9,519.5l-1.7-2.2l2.2,1.7
	c1.2,1,2.2,1.8,2.2,2.2C222.4,522.1,221.5,521.5,219.9,519.5z M216.1,513.1c0.5-1.7,1-2.2,1.3-1.3c0.2,0.8,0,2.2-0.7,2.9
	C215.8,515.5,215.6,515.2,216.1,513.1L216.1,513.1z M219,503.7c0-0.4,0.7-2.7,1.7-5.4s1.7-3.7,1.7-2.4
	C222.3,497.8,219,505.5,219,503.7z M243.1,498.1c0.5-0.5,1.2-0.5,1.6,0s0.1,0.8-0.8,0.8S242.8,498.6,243.1,498.1L243.1,498.1z
	 M359.9,546.7c0-0.8,0.4-1.2,0.8-0.8c0.5,0.4,0.5,1.2,0,1.6S359.9,547.6,359.9,546.7z M271.5,544.3c0-0.8,0.4-1.2,0.8-0.8
	c0.5,0.4,0.5,1.2,0,1.6C271.8,545.4,271.5,545.2,271.5,544.3z M152.9,542.9l1.4-1.4l-1.4-1.9l-1.4-1.9l2,1.6c2.2,1.7,1.7,5-0.6,5
	C151.9,544.3,151.9,543.9,152.9,542.9L152.9,542.9z M148.8,541.2c-0.4-1-0.5-2.2-0.1-2.4c0.4-0.2,0.8,0.5,1.2,1.8
	C150.6,543.5,149.8,544,148.8,541.2L148.8,541.2z M125.3,539.8c-0.4-0.5,0.1-2.3,1.1-3.9l1.6-3l1.2,3c1.3,3.5,0.6,5-1.1,2.4
	c-1-1.6-1.7-0.8-1.3,1.6C126.8,541,126,541,125.3,539.8L125.3,539.8z M132,539.6c0.5-2,6.8-3,6.8-1.1c0,0.6-0.5,0.8-1.2,0.5
	c-0.7-0.4-1.2,0-1.2,0.8c0,1.2-0.4,1.1-1.2-0.2l-1.2-1.8l-1.3,1.8l-1.3,1.8L132,539.6L132,539.6z M117.3,537.8c0-1,0.2-1.8,0.5-1.8
	s0.8,0.8,1.2,1.8c0.4,1,0.1,1.8-0.5,1.8S117.3,538.7,117.3,537.8z M361.2,537.6c0-1.4,0.4-1.7,0.7-0.7c0.4,0.8,0.4,1.9-0.1,2.3
	S361.1,538.8,361.2,537.6L361.2,537.6z M121.2,536c0.5-1.7,0.1-2.2-1.1-1.7c-1.2,0.5-1.7-0.5-1.6-3.9l0.1-4.7l1.1,2.7
	c1.2,2.9,3.6,3.7,3.6,1.2c0-0.8-0.6-2.2-1.3-2.9c-0.8-0.8-0.8-1.6-0.1-2c1.3-0.8,3,1.2,3.3,4.1c0.1,1-0.2,2.2-1,2.5
	s-1.3,2.2-1.4,3.9s-0.6,3.1-1.2,3.1S120.8,537.3,121.2,536L121.2,536z M112.5,536c0-0.8,0.4-1.2,0.8-0.8c0.5,0.4,0.5,1.2,0,1.6
	S112.5,536.8,112.5,536z M317.2,531.8c0-9,1.4-23,2.2-20.9c0.4,1,0,7.4-0.7,14.3C317.8,532.5,317.2,535.3,317.2,531.8L317.2,531.8z
	 M269.3,532.4c0-2.3,0.2-3.2,0.6-2.2c0.4,1.1,0.4,3,0,4.2C269.5,535.6,269.3,534.7,269.3,532.4z M363.1,521.6
	c0.4-4.9,0.8-9.2,1.1-9.4c0.8-1,0.1,11.2-0.8,14.8C362.9,529.2,362.8,527,363.1,521.6L363.1,521.6z M480.3,527.2
	c-0.2-0.8,0.2-3,1.2-4.8s2-8.7,2.4-15.3c0.5-7.8,1.3-12.4,2.4-13.3l1.6-1.3l-0.6,3.5c-0.2,1.9-0.8,7.6-1.2,12.7s-1.4,11.1-2.4,13.4
	c-2,4.9-1.6,5.5,3.3,4.7c11.2-1.9,28.2-9,30.5-12.6l1.6-2.5l-1.4-11c-2.2-15.7-3.8-16.7-18.5-10.9c-4.3,1.7-8.1,2.7-8.5,2.4
	c-1.4-1.4,11.1-6,17.7-6.5l6.7-0.5l2,2c1.2,1.2,2,3.9,2,6.5s0.6,7.5,1.3,11.2l1.3,6.7l-1.9,3C514.9,522.1,482.1,532.4,480.3,527.2
	L480.3,527.2z M267.5,522c-0.5-0.5-0.8-1.3-0.8-2c0-0.7,0.6-0.7,1.4,0.1c0.8,0.8,1.2,1.7,0.8,2S268,522.5,267.5,522z M525.7,511.2
	c-0.5-0.5-0.8-2.4-0.8-4.2s-1.1-6.9-2.5-11.1c-3.5-10.8-3-12,5.7-16.1c4.1-1.9,7.5-3.1,7.5-2.5s-3,2.4-6.6,4.1
	c-7.5,3.6-7.6,3.9-4.2,15.1c1.3,4.3,2.4,9,2.4,10.4c0,4.1,1.7,4.2,9.2,1c13.6-6,14.2-10.8,3.2-25.3c-1.9-2.6-2.4-3.9-1.3-3.9
	c1.6,0,7.5,9,10.5,15.8C552.4,502.1,531.7,517.2,525.7,511.2L525.7,511.2z M264.3,509.7c0-0.8,0.4-1.2,0.8-0.8
	c0.5,0.4,0.5,1.2,0,1.6C264.6,510.7,264.3,510.5,264.3,509.7z M197.5,504.4c-2.7-4.4-3.2-12-1-15.8c3.5-5.9,12.2-16.3,12.6-15.1
	c0.2,0.7-2,4.5-5.1,8.6s-6.1,9.1-6.7,11.4l-1.2,4.2l2.6,4.7c3.5,6.2,9.1,1.4,14.1-12c0.6-1.7,2.6-4.8,4.3-6.9l3.2-3.8l-2.7-2.4
	c-1.6-1.3-3.7-2.6-4.9-3.1s-2.2-1.3-2.2-1.9c0-1.6,9.7,4.1,11.2,6.6c0.8,1.3,0.1,2.9-2.6,6.1c-2,2.4-4.8,6.7-6.1,9.7
	C207.1,507.9,201.8,511.3,197.5,504.4L197.5,504.4z M300.3,506.6c0-1.4,0.4-1.7,0.7-0.7c0.4,0.8,0.4,1.9-0.1,2.3
	C300.4,508.5,300.3,507.8,300.3,506.6L300.3,506.6z M269.8,502.3c0.4-0.5,1.3-0.6,2.3-0.2c2.4,1,2.2,1.6-0.6,1.3
	C270.3,503.2,269.5,502.7,269.8,502.3L269.8,502.3z M279.6,501.7c1.4-0.2,3.6-0.2,4.8,0s-0.1,0.5-2.7,0.5
	C279,502.1,278,501.9,279.6,501.7z M290.3,500.5c0.8-0.4,1.9-0.4,2.3,0.1s-0.4,0.7-1.6,0.6C289.7,501.1,289.4,500.8,290.3,500.5
	L290.3,500.5z M319.6,500.5c0.5-0.5,1.2-0.5,1.6,0s0.1,0.8-0.8,0.8S319.3,500.9,319.6,500.5z M203.3,487c0.7-1.3,1.6-2.4,1.9-2.4
	s0,1.1-0.7,2.4s-1.6,2.4-1.9,2.4S202.6,488.3,203.3,487z M270.9,487c-17.8-2.5-36.5-9.2-48.9-17.9c-10-6.9-19.7-23.1-12.7-21.3
	c1.6,0.5,2,0,1.6-1.7c-1-3.8,0.7-7.8,5.4-12.6c2.5-2.5,6.7-7.3,9.3-10.5c13.7-17,29.5-29.2,57.6-44.8l13.4-7.4l5.7,0.8
	c7.9,1.2,9.6,2.4,11,7.5c2.6,9.3,0.2,37.3-5.5,64.2c-1.7,7.9-3.6,17.8-4.3,22.1s-2,8.7-3.1,9.9l-1.9,2.2h-12.6
	c-14.7,0-15.4,0.7-2,1.8c10.9,0.8,12.9,2,9.6,5.4C290.7,487.2,280.9,488.3,270.9,487L270.9,487z M291.5,484.2c2.6-2.2,0-3-11.2-3.7
	c-19.4-1.2-28.9-4.4-44.1-14.7c-3.9-2.6-10.2-6.3-13.7-8.1s-7.8-4.3-9.2-5.6c-5.3-4.9-5.3-0.8,0.1,6.1
	C227.3,476.2,279.6,493.7,291.5,484.2L291.5,484.2z M261.4,473.6c-8.4-5.3-21.6-11.7-23.9-11.7c-1.1,0-3.7-0.8-5.7-1.9
	c-5.1-2.6-3-0.7,6,5.3c9.6,6.5,22.4,12.1,27.3,12.2C266.6,477.3,265.4,476.1,261.4,473.6L261.4,473.6z M299.7,470.6
	c0.7-2.5,1.9-7.5,2.7-11.1s2.4-11.4,3.6-17.3c7.9-38.1,8.1-66.3,0.6-68.3c-13-3.2-56.3,22.8-75.3,45.4c-3.2,3.8-8.6,10.2-12.1,14.2
	c-6.7,7.8-8,12.3-4.2,15.5c2.7,2.4,21.6,11.7,23.8,11.7c2,0,15.5,6.5,23.8,11.4l6.1,3.6l14.8-0.2l14.8-0.2L299.7,470.6L299.7,470.6z
	 M291.2,470.2c0.4-0.7,1-1.2,1.3-1.2c0.4,0,0.2,0.5-0.1,1.2c-0.4,0.7-1,1.2-1.3,1.2S290.8,470.8,291.2,470.2z M295.4,465.4
	c0-0.8,0.4-1.2,0.8-0.8c0.5,0.5,0.5,1.2,0,1.6C295.7,466.5,295.4,466.3,295.4,465.4L295.4,465.4z M293.4,461.4
	c0.4-1.2,1.3-6.1,1.9-10.8s2.5-13.6,4.1-20s3.5-15.5,4.3-20.7s1.9-9.3,2.4-9.3c1,0-1.7,14.6-4.9,27.5c-1.2,4.9-3.1,14-4.1,20.1
	c-1,6.1-2.4,12-3.1,13.1l-1.3,2L293.4,461.4L293.4,461.4z M296.8,461.3c0-1.3,0.5-3.5,1-4.8c1.3-3,1.3,0.1,0,4.2l-1,3V461.3z
	 M255.9,457.1c0-0.8,0.4-1.2,0.8-0.8c0.5,0.5,0.5,1.2,0,1.6C256.3,458.2,255.9,457.9,255.9,457.1L255.9,457.1z M299.5,449.3
	c1.3-9.4,3.1-19.1,3.7-19.7c1-1-0.7,10.2-2.7,17.9C299.4,452.3,299.2,452.8,299.5,449.3L299.5,449.3z M257.5,451.5
	c0.5-0.5,1.2-0.5,1.6,0c0.5,0.5,0.1,0.8-0.8,0.8S257.1,451.9,257.5,451.5L257.5,451.5z M263.4,439.5c0.5-0.5,1.2-0.5,1.6,0
	c0.5,0.5,0.1,0.8-0.8,0.8S263.1,440,263.4,439.5L263.4,439.5z M227.2,429.6c0-0.6,0.5-1.4,1.2-1.9s0.8,0.1,0.5,1.1
	C228.1,430.9,227.2,431.4,227.2,429.6L227.2,429.6z M267.3,426c0.4-0.7,1-1.2,1.3-1.2c0.4,0,0.5,0.5,0.5,1.2c0,0.6-0.6,1.2-1.3,1.2
	S266.9,426.6,267.3,426z M233.2,420.1c0-0.6,0.8-1.8,2-2.7l2-1.7l-1.4,2.7C234.3,421.2,233.2,421.9,233.2,420.1z M271.5,418.8
	c0-0.8,0.4-1.2,0.8-0.8c0.5,0.4,0.5,1.2,0,1.6C271.8,420,271.5,419.7,271.5,418.8L271.5,418.8z M308.3,403.3
	c0.5-4.3,0.7-10.9,0.7-14.6c-0.1-4.4,0.2-6.6,1.1-6.1c1.3,0.8,0.4,17.3-1.4,24.3C307.7,409.9,307.7,408.9,308.3,403.3L308.3,403.3z
	 M245.8,408.1c0.4-0.7,1-1.2,1.3-1.2s0.2,0.5-0.1,1.2c-0.4,0.6-1,1.2-1.3,1.2S245.4,408.7,245.8,408.1z M256.8,399.5
	c0.8-0.8,1.8-1.2,2.2-0.8c0.4,0.4-0.2,1.1-1.4,1.4l-2.2,0.8L256.8,399.5z M280.4,385.4c0.4-0.7,1-1.2,1.3-1.2c0.4,0,0.2,0.5-0.1,1.2
	c-0.4,0.7-1,1.2-1.3,1.2S280.1,386,280.4,385.4z M227.2,457.8c0-0.2-0.8-0.8-1.9-1.2c-1.1-0.4-1.6-0.2-1.1,0.5
	C225,458.2,227.2,458.8,227.2,457.8L227.2,457.8z M314.6,484.6l-4.1-3.5l0.8-6.9c0.5-3.8,1.9-11.1,3.1-16.1
	c1.6-6.1,2.4-13.5,2.4-22.1c0-7.2,0.6-15.9,1.2-19.5s1.7-11.4,2.4-17.3c3.1-25.9,7.2-28.8,43.9-30.1l20.4-0.7l5.3,2
	c2.9,1.1,7.2,3.5,9.6,5l4.4,3l5.5,13c4.7,11.2,7.6,20.8,12.7,40.5c0.6,2.3,1.4,13,1.8,23.9l0.7,19.7l-2.2,4.2l-2.2,4.2l-9.6,1.3
	c-5.3,0.7-28.1,1.7-50.8,2l-41.2,0.7L314.6,484.6L314.6,484.6z M383.8,485.6c7.5,0,18.5-0.7,24.5-1.6l10.8-1.4l1.6-3l1.6-3
	l-0.7-21.5c-0.4-11.8-1.3-23.4-2-25.7s-1.8-6.1-2.3-8.4c-2.4-10.5-5.1-19.1-8.4-26.3c-1.9-4.3-4.1-9.4-4.8-11.5
	c-1.7-4.4-6.2-8-14.2-11.1l-6-2.4l-17.7,0.5c-34.3,0.8-40.8,4.7-42.8,24.6c-0.5,4.2-1.6,11.4-2.5,16s-1.9,15.7-2.2,24.5
	c-0.2,9.2-1.3,19.2-2.3,23.3c-1.1,3.9-1.9,8.5-1.9,10.2s-0.4,4.7-0.8,6.7l-0.7,3.7l2.9,3.1c3.5,3.8,5.5,4.1,32.6,3.6
	C360.4,485.9,376.3,485.8,383.8,485.6L383.8,485.6z M330.6,477.4c0.4-0.6,1-1.2,1.3-1.2s0.5,0.6,0.5,1.2s-0.6,1.2-1.3,1.2
	S330.3,478,330.6,477.4z M357.9,477.8c0.5-0.5,1.2-0.5,1.6,0s0.1,0.8-0.8,0.8S357.5,478.2,357.9,477.8z M336.4,476.6
	c0.5-0.5,1.2-0.5,1.6,0s0.1,0.8-0.8,0.8S336,477,336.4,476.6z M343.5,476.6c0.5-0.5,1.2-0.5,1.6,0s0.1,0.8-0.8,0.8
	S343.2,477,343.5,476.6z M350.7,476.6c0.5-0.5,1.2-0.5,1.6,0s0.1,0.8-0.8,0.8S350.3,477,350.7,476.6z M365,474.4
	c0-1.2,1.1-1.8,3.1-1.7s2.4,0.4,1,0.7c-1.2,0.4-1.8,1.1-1.4,1.7s-0.1,1.1-1,1.1S365,475.4,365,474.4L365,474.4z M381.2,475.4
	c0.8-0.4,2.2-0.4,3,0s0.1,0.6-1.6,0.6S380.3,475.7,381.2,475.4z M351.5,473.8c1.8-1.2,9.3-1.7,8.2-0.6c-0.4,0.4-2.7,0.8-5.3,1.2
	C351.2,474.8,350.3,474.5,351.5,473.8z M389.9,474.5c0.2-0.2,3.2-0.7,6.5-1.1c3.8-0.5,5.1-0.4,3.6,0.4
	C397.7,474.8,388.8,475.5,389.9,474.5L389.9,474.5z M380.2,472.6c0-0.6,0.8-0.8,1.8-0.5s1.8,1,1.8,1.2s-0.8,0.5-1.8,0.5
	S380.2,473.2,380.2,472.6z M325.4,470.7c0-1.4,0.4-1.7,0.7-0.7c0.4,0.8,0.4,1.9-0.1,2.3S325.2,471.9,325.4,470.7L325.4,470.7z
	 M342.3,471.8c0.5-0.5,1.2-0.5,1.6,0s0.1,0.8-0.8,0.8S342,472.3,342.3,471.8z M388.6,471.8c1.7-0.2,5-1,7.6-1.6
	c2.6-0.6,4.2-0.6,3.6,0s-4.1,1.3-7.6,1.6S386.9,472,388.6,471.8L388.6,471.8z M338.8,470.6c0.5-0.5,1.2-0.5,1.6,0s0.1,0.8-0.8,0.8
	S338.4,471.1,338.8,470.6z M373.4,468.2c1.2-0.4,3-0.4,4.2,0s0.2,0.6-2.2,0.6S372.2,468.4,373.4,468.2z M343.5,467
	c1.2-0.4,3-0.4,4.2,0s0.2,0.6-2.2,0.6S342.3,467.2,343.5,467z M350.7,467c0.5-0.5,1.2-0.5,1.6,0c0.5,0.5,0.1,0.8-0.8,0.8
	S350.3,467.5,350.7,467z M384.2,467c1.8-0.2,4.8-0.2,6.6,0s0.4,0.5-3.3,0.5S382.4,467.2,384.2,467z M402.1,465.8
	c0.5-0.5,1.2-0.5,1.6,0c0.5,0.5,0.1,0.8-0.8,0.8S401.7,466.3,402.1,465.8z M409.5,461.9c-0.4-0.7-0.1-1.2,0.5-1.2s1.3,0.5,1.3,1.2
	s-0.2,1.2-0.5,1.2S410,462.5,409.5,461.9z M326.4,458.3c0-0.8,0.4-1.2,0.8-0.8c0.5,0.5,0.5,1.2,0,1.6S326.4,459.1,326.4,458.3
	L326.4,458.3z M326.8,450.3c0.5-0.5,1.2-0.5,1.6,0c0.5,0.5,0.1,0.8-0.8,0.8S326.4,450.7,326.8,450.3z M336.1,448
	c0-1.4,0.4-1.7,0.7-0.7c0.4,0.8,0.4,1.9-0.1,2.3S336,449.2,336.1,448L336.1,448z M327.6,445.1c0-0.8,0.4-1.2,0.8-0.8s0.5,1.2,0,1.6
	C328,446.3,327.6,446,327.6,445.1L327.6,445.1z M403.7,440.7l-0.8-2.2l1.4,1.4c0.8,0.8,1.2,1.8,0.8,2.2S404.1,441.8,403.7,440.7z
	 M328.8,435.6c0-0.8,0.4-1.2,0.8-0.8s0.5,1.2,0,1.6C329.2,436.8,328.8,436.4,328.8,435.6L328.8,435.6z M343.9,429.2
	c0.5-1.2,1.1-1.8,1.4-1.4s0,1.3-0.8,2.2l-1.4,1.4L343.9,429.2z M399.4,428.4c0-0.8,0.4-1.2,0.8-0.8s0.5,1.2,0,1.6
	C399.7,429.6,399.4,429.2,399.4,428.4L399.4,428.4z M330,424.8c0-0.8,0.4-1.2,0.8-0.8s0.5,1.2,0,1.6C330.4,426,330,425.6,330,424.8
	L330,424.8z M362.1,422.8c0.8-0.4,1.9-0.4,2.3,0.1s-0.4,0.7-1.6,0.6C361.5,423.4,361.1,423.1,362.1,422.8L362.1,422.8z M384.2,422.8
	c0.5-0.5,1.2-0.5,1.6,0s0.1,0.8-0.8,0.8S383.8,423.3,384.2,422.8z M349.2,414c0-0.8,0.4-1.2,0.8-0.8s0.5,1.2,0,1.6
	C349.5,415.2,349.2,414.9,349.2,414L349.2,414z M395.8,414c0-0.8,0.4-1.2,0.8-0.8s0.5,1.2,0,1.6C396.1,415.2,395.8,414.9,395.8,414
	L395.8,414z M330,412.9c0-0.7,0.6-1.2,1.2-1.2s1.2,0.5,1.2,1.2c0,0.6-0.6,1.2-1.2,1.2S330,413.5,330,412.9z M332.4,403.3
	c0-0.8,0.4-1.2,0.8-0.8s0.5,1.2,0,1.6C332.8,404.5,332.4,404.1,332.4,403.3L332.4,403.3z M397.1,401.4c0-1.4,0.4-1.7,0.7-0.7
	c0.4,0.8,0.4,1.9-0.1,2.3S397,402.6,397.1,401.4L397.1,401.4z M340.4,394.1c-0.5-0.5-0.8-1.3-0.8-2s0.6-0.7,1.4,0.1
	c0.8,0.8,1.2,1.7,0.8,2S340.8,394.6,340.4,394.1z M336,384.6c0-1.1,0.6-1.6,1.2-1.1s1.2,1.2,1.2,1.9s-0.6,1.1-1.2,1.1
	S336,385.7,336,384.6z M181.6,485.9c-1.9-0.7-14.1-16.5-14.1-18.2c0-1.7,7.2-10.5,10.5-12.9c4.3-3,11-4.7,11-2.6
	c0,0.7-1.3,1.3-2.9,1.3c-3.9,0-11.7,6-14.5,11l-2.3,4.3l6,7.6c3.2,4.2,6.9,7.8,8,8c2.3,0.5,19-13.9,21.3-18.2l1.3-2.5l-7.6-7.1
	c-4.2-3.9-6.9-6.8-6.1-6.6c2.3,0.7,12.8,9.6,14.5,12.2l1.4,2.2L206,468c-2.4,3.7-19.7,19.1-21.4,19
	C184.1,486.8,182.6,486.4,181.6,485.9L181.6,485.9z M446.2,485.8c-5.7-0.5-9.4-1.4-10.8-2.9l-2-2l-0.7-14.6
	c-0.4-8-1.7-19.7-2.7-25.9s-2.7-15.9-3.7-21.5c-1.6-9.6-8.2-25.9-14.6-36c-1.2-1.9-1.7-4.2-1.2-6.1l0.7-3.1l10.5-0.8
	c12.7-1,36.7,0.8,42.3,3.2c9.2,3.8,25.8,26.5,33.2,45.3c12.6,31.9,15.1,42.6,12.6,52C507.5,482.1,474.9,488.4,446.2,485.8
	L446.2,485.8z M484.1,482.8c8.1-1.6,16.7-3.9,19.1-5.1l4.3-2.3l0.8-6.3c1-7.6-0.4-13.3-8.5-35c-3.3-9-6.1-16.5-6.1-17
	c0-2.5-17-28.3-21.8-33.1c-8.2-8.2-30-12.4-48.3-9.3c-3.9,0.7-8,1.1-9,0.8c-2.6-0.6-2.9,4.7-0.4,8.4c1.2,1.8,4.4,8.2,7.3,14.5
	l5.1,11.2l2.3,15.8c1.2,8.6,3.1,19.4,4.2,23.8s1.9,13,1.9,19.1c0,14.1,0.1,14.3,12.2,15.9C462.8,486.1,468.2,485.9,484.1,482.8
	L484.1,482.8z M477.9,479.7c0.5-0.5,4.7-1.2,9.3-1.6s7.8-0.5,7.2-0.2C492.1,479,477,480.5,477.9,479.7L477.9,479.7z M462.5,478.8
	c2.9-0.2,7.2-0.2,9.6,0s0.1,0.5-5.1,0.5S459.6,479.1,462.5,478.8L462.5,478.8z M449.9,477.8c0.5-0.5,1.2-0.5,1.6,0s0.1,0.8-0.8,0.8
	S449.6,478.2,449.9,477.8z M454.7,477.8c0.5-0.5,1.2-0.5,1.6,0s0.1,0.8-0.8,0.8S454.3,478.2,454.7,477.8z M464.9,476.6
	c0.8-0.4,1.9-0.4,2.3,0.1s-0.4,0.7-1.6,0.6C464.3,477.2,463.9,476.9,464.9,476.6L464.9,476.6z M470.8,476.6c0.8-0.4,1.9-0.4,2.3,0.1
	s-0.4,0.7-1.6,0.6C470.2,477.2,469.9,476.9,470.8,476.6L470.8,476.6z M478.2,476.9c0-0.2,0.8-0.8,1.9-1.2s1.6-0.2,1.1,0.5
	C480.5,477.3,478.2,477.9,478.2,476.9z M446.3,475.4c0.5-0.5,1.2-0.5,1.6,0s0.1,0.8-0.8,0.8S446,475.8,446.3,475.4z M449.9,474.3
	l-1.6-1.7l7.5,0.7l7.5,0.7l1.8-1.8c1.2-1.2,3.6-1.7,6.5-1.6c4.1,0.2,13.9-1.2,24.4-3.5l3-0.7l-3,1.3c-1.7,0.7-6.5,2-10.8,2.9
	l-7.8,1.6l5.3,0.1c9.9,0.2,3.8,1.6-8.5,1.9c-6.8,0.2-14.7,0.6-17.7,1C453,475.7,450.9,475.5,449.9,474.3L449.9,474.3z M473.1,471.8
	c-0.5-0.5-1.2-0.5-1.6,0s-0.1,0.8,0.8,0.8S473.5,472.3,473.1,471.8z M442.4,473.8c0-0.8,0.4-1.2,0.8-0.8s0.5,1.2,0,1.6
	S442.4,474.7,442.4,473.8z M493.2,471.4c3.2-1.4,5.1-1.4,3,0c-1,0.6-2.6,1.1-3.6,1.1C491.4,472.4,491.6,472,493.2,471.4z
	 M451.5,470.3c-0.4-0.6,0.7-0.7,2.3-0.5s3,0.7,3,1.1C456.7,471.9,452.1,471.3,451.5,470.3L451.5,470.3z M441.5,468.2
	c0.5-0.5,1.2-0.5,1.6,0s0.1,0.8-0.8,0.8S441.2,468.7,441.5,468.2z M441.2,461.1c0-1.1,0.6-1.6,1.2-1.1c0.7,0.4,1,1.2,0.5,1.9
	C441.9,463.5,441.2,463.3,441.2,461.1L441.2,461.1z M447.5,457.7c0-3.3,0.2-4.5,0.5-2.6c0.2,1.8,0.2,4.5,0,6
	C447.8,462.5,447.5,460.9,447.5,457.7L447.5,457.7z M441.2,454.7c0-0.6,0.6-1.2,1.3-1.2s1,0.6,0.5,1.2c-0.4,0.7-1,1.2-1.3,1.2
	S441.2,455.3,441.2,454.7z M440,446.9c0-1,0.5-1.8,1.2-1.8s0.8,0.8,0.5,1.8c-0.4,1-1,1.8-1.2,1.8S440,447.9,440,446.9z M448.5,442
	c0-1.4,0.4-1.7,0.7-0.7c0.4,0.8,0.4,1.9-0.1,2.3S448.4,443.2,448.5,442L448.5,442z M437.6,429.5c0-0.7,0.6-1,1.2-0.5
	c0.6,0.4,1.2,1,1.2,1.3s-0.6,0.5-1.2,0.5S437.6,430.2,437.6,429.5z M475.6,422.8c0.8-0.4,1.9-0.4,2.3,0.1c0.4,0.4-0.4,0.7-1.6,0.6
	C475,423.4,474.7,423.1,475.6,422.8L475.6,422.8z M435.2,420c0-0.8,0.4-1.2,0.8-0.8c0.5,0.5,0.5,1.2,0,1.6S435.2,420.9,435.2,420
	L435.2,420z M432.8,411.7c0-0.8,0.4-1.2,0.8-0.8c0.5,0.5,0.5,1.2,0,1.6S432.8,412.5,432.8,411.7L432.8,411.7z M429.2,403.3
	c0-0.7,0.6-1.2,1.2-1.2s1.2,0.5,1.2,1.2s-0.6,1.2-1.2,1.2S429.2,403.9,429.2,403.3z M426.8,394.9c0-0.8,0.4-1.2,0.8-0.8
	c0.5,0.4,0.5,1.2,0,1.6C427.2,396.1,426.8,395.8,426.8,394.9L426.8,394.9z M430.3,389.2l-1.7-2.2l2.2,1.7c2,1.6,2.6,2.5,1.7,2.5
	C432.1,391.3,431.1,390.4,430.3,389.2z M426.2,384.2c-1.2-1.3-1.7-2.4-1.1-2.4s1.8,1.1,2.6,2.4s1.3,2.4,1.1,2.4
	S427.4,385.5,426.2,384.2z M177,475c0-0.8,0.4-1.2,0.8-0.8s0.5,1.2,0,1.6S177,475.8,177,475z M515.5,465.7c-0.7-1.8-1.6-7.2-1.9-12
	c-0.5-6.3-2.2-12.1-6-21.5c-2.9-7.1-6.5-16.4-7.9-20.7c-3.8-11.5-10-22.7-16.9-30.4c-5.3-6-7.5-12.2-3.3-9.7c0.7,0.4,1,1.3,0.5,1.9
	s1.8,3.9,4.8,7.4c6.3,7.2,14.8,23.2,18,33.7c1.2,3.9,2.9,8.2,3.6,9.6s2.2,4.5,2.9,7.2s1.9,5.3,2.4,6c1.6,2,3.3,10.3,4.1,18.5
	c0.4,4.2,1.4,9,2.5,10.5l1.8,2.7h-1.7C517.6,469,516.3,467.5,515.5,465.7L515.5,465.7z M123.2,386.6c0-0.8,0.4-1.2,0.8-0.8
	c0.5,0.4,0.5,1.2,0,1.6C123.6,387.6,123.2,387.4,123.2,386.6L123.2,386.6z M128,386.8c0.6-0.2,0.8-1.1,0.5-2c-0.4-1,1.7-3.9,4.4-6.7
	c3.5-3.5,4.5-5.3,3.5-5.6c-1-0.4-2.7-1.8-4.2-3.2c-2.3-2.5-5-3.5-8.5-3.1c-0.7,0.1-1.9,1.4-2.6,3.1c-1,2.3-2.3,3-5,3h-3.6v2.7
	c0,2-0.2,2.3-1.1,1c-1.6-2.5-0.2-4.7,3.2-5.1c1.7-0.2,3.6-1.3,4.3-2.4l1.3-2l-4.2-4.3c-10.4-10.8-24.4-16.1-28.7-11
	c-2.6,3.1-3.1,1.3-0.7-2.2c3.8-5.3,17.5,0,28.7,10.9l4.5,4.4l5.6,0.5c3.7,0.4,6.5,1.3,8.2,3.1c4.5,4.7,6.2,5.6,8.7,5.6
	c3.5,0,7.2,2.2,7.2,4.1c0,0.8,1.3,1.9,3,2.4c3.3,0.8,4.2,4.3,1,4.3c-1.1,0-1.7-0.2-1.3-0.6c0.4-0.4-1.1-2.4-3.1-4.4
	c-4.5-4.5-10.8-5.3-13.4-1.4c-0.8,1.3-2.9,3.6-4.3,5l-2.7,2.7h7.4c4.1,0,7.4,0.5,7.4,1.1s-3.7,1-8.4,1
	C130.5,387.5,127.3,386.9,128,386.8L128,386.8z M145.1,385.7c0.5-0.5,1.2-0.5,1.6,0s0.1,0.8-0.8,0.8
	C144.9,386.6,144.8,386.2,145.1,385.7L145.1,385.7z M148.3,385.4c0-0.7,0.6-1.2,1.3-1.2c0.7,0,1,0.5,0.5,1.2c-0.5,0.7-1,1.2-1.3,1.2
	S148.3,386,148.3,385.4z M64.3,378.2c-2.6-1.2-4.1-2.5-3.3-3c0.7-0.5,1.3-3.9,1.3-7.8v-6.9l3.9-3c5.3-4.1,11.1-6.9,13.6-6.8
	c1.2,0-0.1,1.1-3,2.4s-6.9,3.7-9.3,5.5l-4.2,3.2l0.1,7.5l0.1,7.5L66,378c1.4,0.6,4.7,0.6,8.1-0.1c3.8-0.8,6.7-0.7,8.5,0l2.7,1.2
	l-4.2-0.1c-2.3,0-6,0.2-8.4,0.7C70.2,380.1,67.4,379.6,64.3,378.2L64.3,378.2z M111.3,379.4c1.7-1.1,15.4-1.8,14.2-0.7
	c-0.2,0.2-3.9,0.7-8.2,1.2C112,380.2,110.1,380.1,111.3,379.4L111.3,379.4z M497.4,372.5c0-1.2,16.7-5.9,25.5-7.1l5.7-0.7l-0.8-6.3
	c-1-7.5,1.7-16.6,6.3-22.1l3-3.6l-2.3-2.5l-2.3-2.5l0.1-7.4l0.1-7.4l3.5-6.5c1.9-3.6,6.1-9.2,9.4-12.7l6-6.2l4.8-0.7
	c9.3-1.4,10.2-1.8,10.2-4.2c0-1.3,1.2-3.1,2.6-4.2c7.5-5.3,14.5,5.4,7.5,11.7l-2.9,2.7l0.7,5.3c0.4,2.9,1.3,5.7,2,6.2
	c1,0.6,0.8,0.8-0.1,1c-0.8,0-1.8,1.9-2.3,4.2c-0.5,2.3-2.3,6.6-4.2,9.4l-3.3,5.3l6,3.1c7.2,3.7,6.6,3.7,7.3,0.2
	c0.4-1.8-0.2-3.6-1.7-4.8c-5.1-4.4-0.6-13.1,6.5-12.4c2.9,0.2,3.9,1.1,4.4,3.2l0.7,2.9l3.8,0.4c2.2,0.1,4.4-0.5,5.3-1.3
	c0.7-1,2.3-1.7,3.2-1.7c1.4,0,1.2,0.5-0.7,1.9l-2.6,1.9l1.8,3.5c1,1.9,1.8,5.1,1.8,7.1c0,2.4,0.6,3.6,1.8,3.6c1,0,1.8,0.6,1.8,1.3
	s-0.7,1.1-1.7,0.7c-1.1-0.5-1.9,0.5-2.4,2.7c-1.1,5.3-6.8,11-11.1,11.2l-3.7,0.1l-0.7,7.8c-0.4,4.3-1,8.8-1.4,10.2l-0.7,2.4l7.5,0.2
	c10.5,0.4,17.7,1.6,17.7,3c0,0.7-0.8,0.8-2.2,0.4c-1.2-0.5-14.2-1.3-29-1.8c-14.8-0.5-30.6-1.4-35.3-2.2c-13-1.9-24.7-0.5-44,5.3
	C498.3,373.3,497.4,373.1,497.4,372.5L497.4,372.5z M574.7,367.8l7.2-0.7l1.7-3.7c6.6-14.9-7.8-41.6-20-36.9
	c-1.4,0.6-1.1-0.5,1.3-3.3c8-9.6,10.4-23.8,5.4-32l-2.5-4.1l-6.5,0.5c-20.8,1.7-36.5,38.4-19,44.6l4.7,1.7H543
	c-8.4,0.1-14.8,12.9-12.9,25.7l0.8,5.3l9.2,0.7c5,0.5,11.4,1.2,14,1.8C560.4,368.6,565.9,368.7,574.7,367.8L574.7,367.8z
	 M564.7,293.7c0.5-0.5,1.2-0.5,1.6,0c0.5,0.5,0.1,0.8-0.8,0.8C564.4,294.5,564.3,294.2,564.7,293.7z M596.3,343
	c7.3-6.6,5.3-24.7-2.7-24.7c-8.4,0-13.4,10.6-9.4,20.3C587.5,347.4,590.4,348.4,596.3,343L596.3,343z M585.6,319.6
	c4.5-3.8,2.7-8.6-2.7-7.5c-3.1,0.6-4.9,4.7-3.7,8C580,322.6,582.2,322.4,585.6,319.6L585.6,319.6z M576.3,287.9
	c3.1-3.8-0.7-10.4-5.1-8.6c-2.6,1.1-2.6,7.5,0.1,9.1C574,290.1,574.6,290,576.3,287.9L576.3,287.9z M454.9,369.6
	c-5.3-0.5-12.2-1.4-15.4-2.2s-14.2-1.8-24.5-2.4s-20.9-1.4-23.7-1.8l-5-0.6l-3.5-7.4c-3.7-7.9-5.5-12.8-4.5-12.8
	c0.6,0,6,10.9,7.9,15.9c0.8,2.3,2,3.3,3.9,3.3c6.9,0,47.8,3.6,52.5,4.7c2.9,0.6,9.9,1.6,15.7,1.9l10.4,0.8l0.7-1.8
	c3.6-9.3-20-23.3-49.8-29.5l-12.3-2.5l-10,1.3c-5.5,0.7-12.3,2.2-14.9,3c-5.7,2-7.1,2.2-6.2,0.7c1.6-2.6,16-5.4,28.2-5.4
	c27.4,0,62.4,14.9,66.9,28.6C473.3,370.1,471,371,454.9,369.6L454.9,369.6z M292.9,366c-7.8-1-22.7-6.7-24.3-9.3
	c-1.1-1.8,0.6-1.7,2.9,0.4c6.5,5.6,27.7,9.3,39.2,6.9c3.3-0.7,18.2-1.9,32.9-2.6c33.9-1.7,36-2.5,28-12.2c-1.7-1.9-2.6-4.1-2.3-4.8
	c0.5-0.7,1.2-0.4,2,1c0.7,1.2,2.2,3.2,3.5,4.4c2.5,2.4,3,8.4,0.7,10.2c-0.8,0.7-13,1.8-27.3,2.5c-22.1,1.1-29.6,1.8-44.8,4.2
	C301.8,366.8,297.2,366.6,292.9,366L292.9,366z M590,362.7c-0.4-0.7-0.1-1.2,0.5-1.2s1.3,0.5,1.3,1.2s-0.2,1.2-0.5,1.2
	S590.5,363.2,590,362.7z M441.4,358.2c-6.9-2.4-6-2.7,2.7-1.1c4.9,1,6.5,1.7,5,2.3c-1.2,0.5-2.3,0.7-2.3,0.7
	S444.3,359.2,441.4,358.2L441.4,358.2z M82.6,357.5c0-1.1,0.8-2.2,1.9-2.6l1.9-0.7l-1.7,2.2c-0.8,1.2-1.8,2.4-1.9,2.6
	S82.6,358.6,82.6,357.5L82.6,357.5z M288.5,358.2c0.5-0.5,1.2-0.5,1.6,0c0.4,0.5,0.1,0.8-0.8,0.8S288.2,358.7,288.5,358.2
	L288.5,358.2z M285,357c0.5-0.5,1.2-0.5,1.6,0c0.4,0.5,0.1,0.8-0.8,0.8S284.6,357.5,285,357L285,357z M590.6,356.7
	c0-0.7,0.6-1.2,1.2-1.2s1.2,0.5,1.2,1.2s-0.6,1.2-1.2,1.2S590.6,357.3,590.6,356.7z M182.4,355.4c-3.9-0.5-12.4-1.6-18.9-2.3
	s-14.2-2.2-17.3-3.1c-3.1-1-7.1-1.7-8.7-1.7s-5.5-0.7-8.4-1.7c-2.9-1-9.3-2.7-14.2-4.2l-9-2.5l-34.1-0.8c-19-0.5-31.9-1.2-29.3-1.7
	c5-0.8,8.7-0.8,43,0.6c21,0.8,29.8,2.3,44.2,7.4c2.6,1,6.1,1.7,7.5,1.7c1.4,0,5.5,0.8,9,1.8c5.6,1.6,16.1,3,38.1,5
	c4.4,0.4,8.4,1.2,8.7,1.8C194,356.8,192.9,356.7,182.4,355.4L182.4,355.4z M302.9,355.8c0.5-0.5,1.2-0.5,1.6,0
	c0.5,0.5,0.1,0.8-0.8,0.8S302.5,356.3,302.9,355.8L302.9,355.8z M405.7,355.8c0.5-0.5,1.2-0.5,1.6,0s0.1,0.8-0.8,0.8
	S405.3,356.3,405.7,355.8z M339.3,354.6c0.8-0.4,1.9-0.4,2.3,0.1s-0.4,0.7-1.6,0.6C338.8,355.2,338.4,355,339.3,354.6L339.3,354.6z
	 M414.9,354.3c-1.7-0.6,1.1-0.7,6.6-0.4c5.3,0.4,9.8,0.8,10,1.1C432.6,355.8,417.9,355.2,414.9,354.3L414.9,354.3z M288.5,353.4
	c0.5-0.5,1.2-0.5,1.6,0c0.4,0.5,0.1,0.8-0.8,0.8S288.2,353.9,288.5,353.4L288.5,353.4z M297.8,353.1c1-0.6,2.6-1.1,3.6-1.1
	c1.2,0,1,0.4-0.6,1.1C297.5,354.5,295.6,354.5,297.8,353.1z M438.6,353.4c0.8-0.4,2.2-0.4,3,0c0.8,0.4,0.1,0.6-1.6,0.6
	S437.7,353.8,438.6,353.4z M284.4,352.3c0.8-0.4,1.9-0.4,2.3,0.1s-0.4,0.7-1.6,0.6C283.8,352.8,283.4,352.6,284.4,352.3L284.4,352.3
	z M400.9,352.3c0.5-0.5,1.2-0.5,1.6,0s0.1,0.8-0.8,0.8S400.5,352.7,400.9,352.3z M406.9,352.3c1.2-0.4,2.7-0.2,3.6,0
	c0.8,0.2-0.1,0.6-2.2,0.6S405.7,352.5,406.9,352.3L406.9,352.3z M425.4,352.3c0.8-0.4,2.2-0.4,3,0c0.8,0.4,0.1,0.6-1.6,0.6
	S424.6,352.6,425.4,352.3z M593.8,352.3c-0.5-0.5-0.8-1.3-0.8-2s0.6-0.7,1.4,0.1c0.8,0.8,1.2,1.7,0.8,2S594.2,352.7,593.8,352.3z
	 M280.2,351.1c0.5-0.5,1.2-0.5,1.6,0c0.4,0.5,0.1,0.8-0.8,0.8S279.8,351.5,280.2,351.1L280.2,351.1z M318.4,351.1
	c0.5-0.5,1.2-0.5,1.6,0s0.1,0.8-0.8,0.8S318.1,351.5,318.4,351.1z M356.1,351.1c0.8-0.4,2.2-0.4,3,0c0.8,0.4,0.1,0.6-1.6,0.6
	S355.2,351.4,356.1,351.1z M524,351.1c0.5-0.5,1.2-0.5,1.6,0s0.1,0.8-0.8,0.8C523.8,351.9,523.7,351.5,524,351.1z M276.6,349.9
	c0.5-0.5,1.2-0.5,1.6,0c0.4,0.5,0.1,0.8-0.8,0.8S276.2,350.3,276.6,349.9L276.6,349.9z M287,349.5l-1.8-1.2h2.2
	c1.2,0,2.2,0.5,2.2,1.2C289.4,350.9,289.3,350.9,287,349.5z M331.6,349.9c1.8-0.2,4.8-0.2,6.6,0c1.8,0.2,0.4,0.5-3.3,0.5
	S329.7,350.1,331.6,349.9z M411.7,349.9c0.5-0.5,1.2-0.5,1.6,0s0.1,0.8-0.8,0.8S411.3,350.3,411.7,349.9z M404.5,348.7
	c1.2-0.4,3-0.4,4.2,0c1.2,0.4,0.2,0.6-2.2,0.6S403.3,348.9,404.5,348.7z M387.6,345.1l-1.6-3.5l2,2c1.1,1.1,1.8,2.6,1.6,3.5
	C389.4,347.9,388.5,347,387.6,345.1z M600.2,345.9c0-0.8,0.4-1.2,0.8-0.8c0.5,0.4,0.5,1.2,0,1.6C600.5,347,600.2,346.8,600.2,345.9
	L600.2,345.9z M524.6,343.9c0.8-0.4,1.9-0.4,2.3,0.1s-0.4,0.7-1.6,0.6C524,344.5,523.7,344.2,524.6,343.9L524.6,343.9z M603.8,339.8
	c0-0.7,0.6-1,1.2-0.5s1.2,1,1.2,1.3c0,0.4-0.6,0.5-1.2,0.5S603.8,340.5,603.8,339.8z M18.2,338.6c-5.7-1.1-16.1-5.7-15.2-6.8
	c0.4-0.4,1.9,0.2,3.3,1.2c1.4,1,6.7,2.7,11.4,3.9C29.4,339.8,29.8,340.9,18.2,338.6L18.2,338.6z M526.1,338.6c0-0.7,0.6-1,1.2-0.5
	s1.2,1,1.2,1.3c0,0.4-0.6,0.5-1.2,0.5S526.1,339.3,526.1,338.6z M29.8,337.9c1.4-0.2,3.9-0.2,5.4,0c1.4,0.2,0.2,0.5-2.7,0.5
	S28.2,338.1,29.8,337.9z M526.9,329.8c0.4-1,1.2-1.8,1.7-1.8c0.5,0,0.7,0.8,0.4,1.8c-0.4,1-1.2,1.8-1.7,1.8
	C526.8,331.6,526.4,330.7,526.9,329.8z M604.1,324.8c0.5-0.5,1.2-0.5,1.6,0s0.1,0.8-0.8,0.8C603.9,325.6,603.8,325.2,604.1,324.8
	L604.1,324.8z M526.1,322.5c0.8-1,1.8-1.6,2-1.3c0.8,0.8-0.8,3.1-2.3,3.1C525.1,324.4,525.1,323.7,526.1,322.5z M602.6,319.6
	c0-0.7,0.8-1.2,1.9-1.2c1.1,0,1.6,0.5,1.1,1.2c-0.5,0.7-1.2,1.2-1.9,1.2S602.6,320.2,602.6,319.6z M528.4,313.6
	c0-0.7,0.6-1.2,1.3-1.2c0.7,0,1,0.5,0.5,1.2c-0.5,0.7-1,1.2-1.3,1.2S528.4,314.2,528.4,313.6z M46.7,312.4c0-0.8,0.4-1.2,0.8-0.8
	c0.5,0.4,0.5,1.2,0,1.6C47.1,313.5,46.7,313.3,46.7,312.4L46.7,312.4z M594.2,312.4c0-0.7,0.6-1.2,1.3-1.2c0.7,0,1,0.5,0.5,1.2
	c-0.5,0.7-1,1.2-1.3,1.2S594.2,313,594.2,312.4z M53.3,311.3c0.4-0.7,1-1.2,1.3-1.2s0.5,0.5,0.5,1.2s-0.6,1.2-1.3,1.2
	S53,311.9,53.3,311.3L53.3,311.3z M58.6,311c-1.8-0.5-2-0.8-0.8-1c2.6-0.1,3.9-2.4,2.3-4.1c-0.7-0.7-1.3-2.5-1.3-3.8
	c0-3.3-1.2-4.4-3.2-2.7c-1.1,1-1.6,1-1.6,0c0-0.7,0.7-1.7,1.6-2.3c2.3-1.3,3.5-5.1,1.7-5.3c-0.8,0-0.2-0.6,1.2-1.2
	c2.7-1.1,3.7-3.6,1.6-3.6c-0.6,0-1.2-0.6-1.2-1.4v-1.4l1.4,1.4c2.4,2.4,3.6,1.6,2.9-1.9l-0.7-3.3l1.7,2.2c1,1.2,2.6,2.2,3.9,2.2h2.3
	l-3.6,2.2c-11.1,6.8-7.7,23,5,23h5.1l1.7-2.7c1-1.4,2-4.4,2.5-6.7l0.8-3.9l-3.1-4.7c-1.7-2.5-4.2-5-5.5-5.4
	c-1.3-0.4-2.2-1.2-1.9-1.7c0.4-0.5-0.7-2.2-2.3-3.6c-1.6-1.4-3.2-4.4-3.6-6.7c-0.4-2.3-1.4-4.3-2.2-4.5c-0.8-0.4-0.6-0.6,0.6-0.7
	c2.4-0.1,2.9-3.1,0.6-4.2c-1-0.5-0.8-0.6,0.4-0.5c2.3,0.2,9.6-4.1,9.6-5.6c0-1.2,4.1-5.4,6.8-7.1c0.8-0.5,2.5-0.4,3.8,0.4
	c1.7,1,2.5,0.8,3-0.2c0.4-0.8,0.4,0,0,1.7l-0.6,3.2l2.5,0.8c5.5,1.8,3.5,11.4-2.4,11.4h-2.2l1.3,4.2l1.3,4.2l-2.6,3.6
	c-1.7,2.4-2.2,3.6-1.1,3.6c0.8,0,2.3-1.1,3.1-2.5c0.8-1.4,1.9-2.2,2.3-1.8c0.4,0.4,0,1.6-0.8,2.5c-1.2,1.4-1.2,2.2-0.1,3.2
	c0.7,0.7,1.4,2.4,1.4,3.7c0,2.6,4.9,7.6,7.1,7.2c0.8-0.1,0.8,0,0.2,0.4c-0.7,0.4-1.2,2-1.2,3.8c0,6.1-4.7,9.3-10.6,7.2
	c-4.1-1.4-6.6-0.5-3.6,1.4c1,0.6,1.4,1.2,1.2,1.3C80.4,312,61,311.7,58.6,311L58.6,311z M92.6,305.8c3.2-3.2,0.7-11.2-3.5-11.2
	c-3.8,0-8.4,9.8-5.7,12.3C84.9,308.4,90.8,307.7,92.6,305.8L92.6,305.8z M83.4,294.5c-0.4-1.6,0-2.4,1.1-2.4c2.4,0,3.6-3.6,1.6-4.9
	c-2.7-1.7-3.5-1.3-3.5,1.9c0,1.9-0.5,2.7-1.3,2.3c-0.7-0.5-1.1-2.2-0.7-3.7c0.5-2.2,0.1-2.7-1.2-2.3c-1,0.4-1.9,0.7-2.2,0.7
	c-0.6,0,5.9,10.6,6.5,10.8C83.9,296.9,83.8,295.8,83.4,294.5L83.4,294.5z M82.6,281.4c5.1-5.1-0.7-19.1-8.1-19.1
	c-3.2,0-7.4,5.7-7.4,10.2C67.1,281,77.1,286.9,82.6,281.4z M89.5,266.8c2-2,1.8-6.6-0.4-7.4c-4.7-1.8-8.6,4.3-4.7,7.2
	C87.1,268.6,87.7,268.6,89.5,266.8z M81.9,260.5c0.4-1,0.2-1.8-0.4-1.8s-1.3,0.8-1.7,1.8c-0.4,1-0.2,1.8,0.4,1.8
	S81.5,261.4,81.9,260.5z M77.8,258.7c0-0.7-0.2-1.2-0.5-1.2s-0.8,0.5-1.3,1.2s-0.1,1.2,0.5,1.2S77.8,259.3,77.8,258.7z M84.5,256.1
	c1.1-1.7-2-3.7-3.5-2.3c-1.2,1.2,0,3.6,1.7,3.6C83.2,257.5,84,256.9,84.5,256.1z M114.3,308.9c-1.2-0.4-1.3-1.2-0.6-2.3l1.1-1.7
	l2,1.7l2,1.7l-0.6-5.3c-0.4-2.9-1.2-7.1-2-9.2c-2.6-7.3,0.7-14.7,9.1-20.2l3-1.9l-1.9-2.9l-2-3.1l1.8-3.5c1.3-2.5,1.3-3.6,0.4-4.1
	c-0.7-0.4-0.2-0.5,1.1-0.4c1.8,0.2,2.3-0.4,2-2.2l-0.4-2.4l1.7,2.2c2.4,3,5.3,2.6,8.5-1.1c2-2.4,3.8-3.2,7.2-3.2
	c3.3,0,4.3-0.5,4.1-1.9c-0.8-5.7,5-11,9.6-8.5c6.3,3.3,5.4,10.9-1.7,13.5l-3.9,1.4l1.1,2.2c0.6,1.2,1.1,3.5,1.1,5v2.9l3.3,0.7
	c5.6,1.2,7.9,3.7,7.9,8.6v4.4l-3.3,2.9c-2.3,1.9-4.8,2.9-8,2.9h-4.7v3c0,4.5-2.4,9.1-7.8,15.1l-4.9,5.4l-3-1.1
	c-1.6-0.4-3.5-0.4-4.1,0.1c-3.5,2.4-7.2,2.3-9.2-0.4l-2-2.6l0.6,2.4l0.6,2.4h-3.1C117.4,309.5,115.2,309.1,114.3,308.9L114.3,308.9z
	 M128.9,301.7c1.2,0,1.4,0.7,1,2.4c-0.8,2.7,0.2,3,3.5,0.6c1.8-1.3,2.7-1.4,3.9-0.4l1.7,1.3l3.7-3.5c10.9-10.4,8.4-25.6-4.9-29.2
	l-4.7-1.3l-3.9,1.7c-12.4,5.3-14.9,20.1-5.4,31.7l1.4,1.7l1.1-2.5C126.7,302.8,128,301.7,128.9,301.7L128.9,301.7z M132,299.7
	c0.5-0.5,1.2-0.5,1.6,0s0.1,0.8-0.8,0.8C131.7,300.5,131.6,300.1,132,299.7L132,299.7z M137.9,287.7c0.5-0.5,1.2-0.5,1.6,0
	s0.1,0.8-0.8,0.8C137.7,288.5,137.6,288.2,137.9,287.7L137.9,287.7z M137.9,279.3c0.5-0.5,1.2-0.5,1.6,0s0.1,0.8-0.8,0.8
	C137.7,280.2,137.6,279.8,137.9,279.3L137.9,279.3z M160.9,282.6c3.7-1.4,6-6,5-9.9c-1.6-6.3-14-6.3-16.4,0
	C146.7,280.1,152.9,285.6,160.9,282.6L160.9,282.6z M155.5,279c0-0.8,0.4-1.2,0.8-0.8c0.5,0.5,0.5,1.2,0,1.6
	C155.9,280.2,155.5,279.8,155.5,279L155.5,279z M147.1,273.6c0-3.1-0.4-3.6-4.4-4.9l-3.8-1.3l-0.7,1.8c-0.4,1-0.6,1.9-0.4,1.9
	c0.2,0.1,1.9,1.1,3.9,2.2C146.4,275.8,147.1,275.8,147.1,273.6L147.1,273.6z M137.3,265c1-6.6-6.8-8.1-9.7-2l-1.4,3l2.9,2.3l2.9,2.3
	l2.5-1.7C135.9,268.1,137.1,266.3,137.3,265L137.3,265z M152,266.9c5.5-3,1.2-14.3-5.5-14.3c-1.7,0-4.1,1.1-5.4,2.4
	C134.5,261.8,143.3,271.6,152,266.9L152,266.9z M160.9,250.3l2.2-2.4l-1.3-3c-2-4.4-9.8-2.9-9.8,1.9
	C151.9,252.2,157.3,254.2,160.9,250.3L160.9,250.3z M578.7,308.9c0-0.8,0.4-1.2,0.8-0.8c0.5,0.4,0.5,1.2,0,1.6
	C579,309.9,578.7,309.7,578.7,308.9L578.7,308.9z M592.3,309.2c0.5-0.5,1.2-0.5,1.6,0s0.1,0.8-0.8,0.8
	C592,310.1,591.8,309.7,592.3,309.2z M583.4,306.9c0-1.1,0.6-1.6,1.2-1.1s1,1.2,0.5,1.9C584.1,309.3,583.4,309.1,583.4,306.9
	L583.4,306.9z M587,307.7c0-0.6,0.6-1.2,1.2-1.2s1.2,0.6,1.2,1.2c0,0.7-0.6,1.2-1.2,1.2S587,308.3,587,307.7z M53.9,306.6
	c0-0.7,0.6-1.6,1.2-1.9c0.6-0.4,1.2-0.2,1.2,0.5c0,0.7-0.6,1.6-1.2,1.9C54.5,307.4,53.9,307.2,53.9,306.6z M530.8,306.4
	c0-0.6,0.8-1.2,1.8-1.2c1,0,1.8,0.2,1.8,0.5c0,0.2-0.8,0.8-1.8,1.2C531.7,307.2,530.8,307.1,530.8,306.4z M149.5,305.3
	c0-0.8,12.4-4.8,25.1-7.9c3.6-0.8,9-2.3,12-3s7.3-1.1,9.7-0.7c6.8,1.1,21.5-2.2,35.9-7.9c3.1-1.2,9.8-2.7,14.9-3.5
	s11.8-1.8,15.1-2.5l5.7-1.3v-5.3c0-2.9-0.5-5.3-1.2-5.3s-1.2-1.6-1.2-3.6c0-2.5,0.6-3.6,1.9-3.6h1.9l-0.2-5.7
	c-0.4-8.5-0.1-9.9,1.8-9.9c1,0,1.8-1,1.8-2.2v-2.2l-8.1-2c-4.4-1.1-13.5-2.5-20.1-3.1s-17.9-2.6-25.1-4.7
	c-7.2-1.9-18.6-4.7-25.6-6.1c-29-5.9-39.2-8.2-41.8-9.7c-5.9-3.1-16.7-4.9-34.1-5.5l-17.9-0.6l-11.4,4.4c-20.2,7.9-28,8.7-39.1,4.1
	l-3.8-1.6l-11.7,4.5c-11.4,4.4-15.4,5.5-26.4,7.2c-3.3,0.5-4.9,0.4-4.4-0.5c0.4-0.7,2.5-1.2,4.5-1.2c5.1,0,13.7-2.4,25.1-6.9
	c10.3-4.1,15.9-4.7,19.4-2c1.4,1.1,5.1,1.8,10,1.8h7.8l13.7-5.5l13.7-5.5l14.7,0.4c17.8,0.1,27.6,1.6,41,6.1
	c5.6,1.9,12.6,3.8,15.5,4.3c3,0.5,9.6,1.8,14.8,3.1c5.1,1.3,14.8,3.3,21.5,4.7c6.7,1.3,17,3.7,22.8,5.3c6.8,1.9,13.9,3,19.1,3
	c4.7,0,12,1,16.4,2.3c9.4,2.6,9.3,2.7,9.3-5.4c0-11.4,4.2-9.7,7.1,2.7l1.6,7.2l9.2,2.5c5,1.4,11.1,2.9,13.5,3.3l4.4,0.7l0.5-2.7
	c0.8-5-1.2-10.8-5.1-14.8l-3.8-3.9l-0.8-14.1c-1-16.3,0.4-21,4.5-16.9l1.4,1.4v-2.6c0-3.1,3.3-4.9,4.8-2.6c0.5,0.8,0.7,7.9,0.4,15.5
	c-0.7,14.6,0.4,18.2,3.7,12.9c1.2-1.9,1.9-8.1,2.3-22.1l0.6-19.4l-1.6-1.3c-3.2-2.7-9.8-2.7-13.1-0.1c-2.2,1.7-4.2,2.3-6.1,1.8
	c-2-0.5-4.1,0.2-6.9,2.4l-4.1,3.1l-5.5-1.2c-3.1-0.7-9.4-3.3-14.1-6c-4.7-2.6-10.9-5.5-13.9-6.6l-5.3-1.9l-2.2,1.9
	c-1.4,1.3-3.5,1.8-6.1,1.4c-2.5-0.4-6,0.4-9.8,2.2l-5.9,2.7l-4.3-1.6c-2.4-0.8-5.7-2.2-7.4-3l-3.1-1.4l-10.8,5.4
	c-6,3-11.8,5.4-13,5.4s-5.6,1-9.7,2l-7.4,2l-6.7-3.2c-3.7-1.8-8.2-4.7-10.3-6.3l-3.6-3.1l-4.7,1.6l-4.7,1.6l-4.1-2.5
	c-4.1-2.5-9.1-7.4-7.7-7.4c0.5,0,3.2,1.9,6.2,4.2l5.5,4.2l4.8-1.9l4.8-1.9l3.2,3c9.2,8.6,18.4,11,28.3,7.4c2.6-1,5.9-1.7,7.1-1.8
	c1.2-0.1,6.7-2.4,12.2-5.4l9.9-5.4l6.3,3c7.8,3.6,8.7,3.6,14.7,0.5c3.1-1.6,6.1-2.3,8.5-1.9s4.3,0,5.3-1.1c2.9-3.5,13.4-0.4,27.4,8
	c3,1.8,7.6,3.6,10.5,4.1l5.1,0.8l3.8-3.2c2.6-2.3,4.5-3,6.6-2.5c1.9,0.5,4.1-0.1,6.5-1.9l3.6-2.6l4.4,1.3c2.5,0.7,5.3,1.6,6.2,2
	c1.2,0.5,2.4-0.5,3.6-3c3.9-8.4,8.6-7.3,8.8,2l0.1,5.6l2.9,2.3c3.6,2.9,7.5,2.9,16.6-0.1l7.3-2.4l4.7,1.1c2.6,0.6,6.5,2.4,8.7,4.1
	c14.6,11,23.4,14.5,28,11.1c1.3-1,4.1-1.8,6.1-1.8c2.2,0,4.2-0.6,4.5-1.2s2.7-2,5.1-3.1l4.4-1.8l7.3,3.9l7.3,3.9l5.3-2.7l5.3-2.7
	l7.4,3.8c4.1,2.2,7.4,4.4,7.4,5s-3-0.5-6.6-2.5c-7.6-4.3-10.2-4.5-13-1.4l-2,2.3l1.6,0.6c0.8,0.4,1.2,1,0.7,1.4s-5.4-1.3-10.9-4.1
	c-10.6-5.1-11.8-5.3-17.9-1c-1.8,1.3-4.1,2-5,1.7c-1.7-0.7-9.9,3.3-11.6,5.7c-0.6,0.8-1.3,0.5-2.2-0.8c-0.7-1.2-1.8-2.2-2.4-2.2
	c-1.2,0-11.4-6.2-19.7-12c-6.8-4.7-12-5.4-20.3-2.4c-8.4,2.9-10.9,3-15.4,0.6c-4.7-2.5-4.8-2.3-5.3,12.9c-0.2,9.4,0,12.8,0.8,11.6
	c0.7-1,1.3-4.2,1.3-7.2c0-6.5,1.4-9,4.2-7.9l2,0.8l-0.6,8.6c-0.6,9.1-3.5,16.4-6.3,16.4c-1.2,0-1.8,1.3-1.8,4.1c0,5.3,2,6.6,3.6,2.4
	c1.4-3.7,3.8-3.3,4.8,0.7c1.2,5-0.1,8.5-3.8,9.9c-3.3,1.2-4.7,3.1-2.3,3.1c2,0,1.3,2.6-1.3,5.5c-4.1,4.3-1.8,5.6,12.7,7.2
	c3.3,0.4,9.3,1.4,13.4,2.4c4.1,1,12.3,2.3,18.4,2.7l11.1,1.1l10.3-2.7c5.6-1.6,12.7-3.1,15.7-3.6s9.4-1.8,14.3-3s12.2-2.5,16.1-3
	c11.2-1.2,38.1-5.1,52.6-7.6c8.2-1.4,21.8-2.5,36.5-3l23.3-0.7l15.5,2.9c8.5,1.6,21.2,3.7,28.1,4.8s13,2.5,13.7,3.2
	c0.8,0.8,0.1,1.1-2.4,0.6c-1.9-0.4-8.4-1.6-14.3-2.5s-18.3-3.2-27.4-4.9l-16.6-3l-10.6,1.4c-5.9,0.7-13.5,1.1-16.9,0.7
	c-6.7-0.8-15.8,0.1-39.6,3.9c-31.6,5.1-38.4,6.1-42.2,6.1c-2.2,0-8.4,1.1-13.7,2.3c-12.4,3-34.5,8-46.9,10.8c-5.3,1.2-13,2.5-17.3,3
	c-4.3,0.5-14.8,2.5-23.3,4.4c-18.9,4.4-35.4,6.9-46.6,6.9c-5,0-13.9,1.4-22.1,3.5c-7.5,1.9-17,3.8-20.9,4.2
	c-3.9,0.4-10.2,1.8-13.7,3.1c-17.1,5.9-24.9,7.6-34.7,7.9c-10.3,0.2-22.4,2.5-35.3,6.8C154.8,305.2,149.5,306.4,149.5,305.3
	L149.5,305.3z M277.8,265.5l0.6-10.9l3.1-2.3c1.7-1.2,3.1-2.9,3.1-3.7c0-0.7-0.6-0.5-1.2,0.7c-3,5-6,1.6-5.1-5.9
	c0.2-2.5-0.2-7.3-1.2-10.6l-1.7-6l-0.1,11.8l-0.1,11.8l-2.2-0.6l-2.2-0.6l0.4,7.5l0.4,7.5h-1.9c-2.2,0-2.5,1.8-0.7,3
	c0.7,0.4,1.2,2.5,1.2,4.7c0,4.8,0.5,5.3,4.1,4.7l2.7-0.5L277.8,265.5L277.8,265.5z M306.6,273.7c1.4-0.4,1.8-11.2,0.6-15.7
	c-0.6-2.2-0.5-4.1,0.4-5c2-2.5,0.1-4.1-5-4.1c-2.6,0-5.7-0.5-6.8-1.1s-3.5-1.4-5.3-1.8l-3.3-0.8v2.4c0,1.3-1.7,4.1-3.6,6.1l-3.6,3.7
	v17.5l12.9-0.5C299.8,274.2,306,273.8,306.6,273.7L306.6,273.7z M319.9,271.8c1.1,0,1.6-2.9,1.4-10.8v-10.8l3.1-3.2l3.1-3.2l-2-1.3
	l-2-1.3l1.3-2.2c0.7-1.2,2.6-2.5,4.2-2.9c2-0.5,3-1.7,3.2-4.1l0.4-3.5l-2,2l-2,2l-2.3-1.2l-2.3-1.2v-11.8h2.4c2.3,0,4.8-3.2,4.8-6
	c0-1-0.7-1-2.3-0.1c-1.3,0.7-3,1.2-3.8,1.2h-1.4l0.7-22.5l0.7-22.5l-2.3,2.6c-2.9,3.5-4.9,17.2-4.9,33.3c0,16.3-3.3,23.3-9,19.2
	l-2-1.4l0.4-12l0.4-12l-3.5,0.1l-3.5,0.1l0.2,11.7c0.2,13.3,1.2,16.6,6.2,21.5l3.6,3.5l-0.6,17.3c-0.6,20.3-0.5,21,4.3,20.1
	C316.8,272,319,271.8,319.9,271.8L319.9,271.8z M332.3,268.7c3.7-1.2,19.4-4.1,28.8-5.3c11.1-1.4,12.6-1.9,8.2-2.7
	c-1.6-0.4-7.2-1.4-12.4-2.4c-5.3-1-13.4-2.4-17.9-3.1c-4.5-0.6-9.8-1.6-11.5-1.9l-3.1-0.7l-0.7,3.3c-0.4,1.9-0.4,6,0,9.1l0.7,5.6
	l3.1-0.7C329.2,269.5,331.3,268.9,332.3,268.7L332.3,268.7z M282.8,244.4c-0.7-0.7-2.9,2.3-2.9,4.1c0,0.6,0.8,0.1,1.8-1.1
	C282.6,246.1,283.2,244.8,282.8,244.4L282.8,244.4z M332.3,203.9c-0.1-6.2-0.7-5.7-1.3,1.2c-0.2,2.5,0,4.5,0.5,4.5
	S332.4,207,332.3,203.9L332.3,203.9z M534.8,300.9c0.5-0.5,1.2-0.5,1.6,0s0.1,0.8-0.8,0.8C534.5,301.7,534.4,301.3,534.8,300.9z
	 M110.7,298.1c0.4-0.7,1-1.2,1.3-1.2s0.5,0.5,0.5,1.2s-0.6,1.2-1.3,1.2S110.3,298.7,110.7,298.1z M576.6,298.5
	c0.5-0.5,1.2-0.5,1.6,0s0.1,0.8-0.8,0.8C576.4,299.3,576.3,298.9,576.6,298.5z M110.7,292.1c0.4-0.7,1.3-1.2,1.9-1.2
	s0.8,0.5,0.5,1.2s-1.3,1.2-1.9,1.2S110.3,292.7,110.7,292.1L110.7,292.1z M544,289.7c0-0.8,0.4-1.2,0.8-0.8c0.5,0.4,0.5,1.2,0,1.6
	C544.3,290.8,544,290.6,544,289.7L544,289.7z M91.3,288.9c0.5-0.5,1.2-0.5,1.6,0s0.1,0.8-0.8,0.8S91,289.4,91.3,288.9L91.3,288.9z
	 M581,288.4c0-0.7,0.6-1,1.2-0.5s1.2,1,1.2,1.3c0,0.2-0.6,0.5-1.2,0.5S581,289.1,581,288.4z M548.8,286c0-0.7,0.6-1,1.2-0.5
	s1.2,1,1.2,1.3c0,0.2-0.6,0.5-1.2,0.5S548.8,286.7,548.8,286z M168.8,284.2c0-1.4,0.4-1.7,0.7-0.7c0.4,0.8,0.4,1.9-0.1,2.3
	S168.8,285.4,168.8,284.2L168.8,284.2z M112.5,283.8c0-0.8,0.4-1.2,0.8-0.8c0.5,0.5,0.5,1.2,0,1.6
	C112.8,285,112.5,284.6,112.5,283.8L112.5,283.8z M553.5,283.6c0-0.7,0.6-1,1.2-0.5c0.6,0.4,1.2,1,1.2,1.3c0,0.4-0.6,0.5-1.2,0.5
	S553.5,284.4,553.5,283.6z M558.3,283.8c0-0.8,0.4-1.2,0.8-0.8c0.5,0.5,0.5,1.2,0,1.6C558.7,285,558.3,284.6,558.3,283.8
	L558.3,283.8z M562.4,280.5c0.5-0.5,1.2-0.5,1.6,0s0.1,0.8-0.8,0.8C562.2,281.4,561.9,281,562.4,280.5z M581.6,280.2
	c-0.4-0.6-0.2-1.2,0.5-1.2s1.6,0.6,1.9,1.2c0.4,0.7,0.2,1.2-0.5,1.2C582.8,281.4,582.1,280.8,581.6,280.2z M62.3,276.6
	c0-0.6,0.6-1.2,1.3-1.2s1,0.6,0.5,1.2c-0.4,0.7-1,1.2-1.3,1.2S62.3,277.2,62.3,276.6L62.3,276.6z M170.5,275.4
	c-0.4-0.6-0.2-1.2,0.5-1.2s1.6,0.6,1.9,1.2c0.4,0.7,0.2,1.2-0.5,1.2S170.9,276,170.5,275.4z M567.4,275.4c-0.4-0.6-0.1-1.4,0.5-1.9
	s1.2,0.1,1.2,1.1C569.1,276.8,568.4,277.1,567.4,275.4L567.4,275.4z M118.5,273.6c-1-1.2-1.1-1.8-0.2-1.8c1.4,0,3.1,2.3,2.3,3.1
	C120.2,275.2,119.3,274.6,118.5,273.6L118.5,273.6z M578.4,274.6c0.8-0.4,1.9-0.4,2.3,0.1s-0.4,0.7-1.6,0.6
	C577.8,275.2,577.5,274.9,578.4,274.6L578.4,274.6z M574.5,273c0.4-0.7,1-1.2,1.3-1.2s0.5,0.5,0.5,1.2c0,0.6-0.6,1.2-1.3,1.2
	S574.1,273.6,574.5,273z M168.1,268.2c-0.4-0.7-0.2-1.2,0.5-1.2s1.6,0.5,1.9,1.2c0.4,0.6,0.2,1.2-0.5,1.2S168.5,268.8,168.1,268.2z
	 M162.1,263.4c0.4-0.7,1.3-1.2,1.9-1.2s0.8,0.5,0.5,1.2c-0.4,0.6-1.3,1.2-1.9,1.2S161.7,264,162.1,263.4z M66.2,260.2
	c0.5-0.5,1.2-0.5,1.6,0c0.4,0.5,0.1,0.8-0.8,0.8S65.9,260.7,66.2,260.2L66.2,260.2z M70,258.7c-0.4-0.7-0.1-1.2,0.5-1.2
	s1.3,0.5,1.3,1.2c0,0.6-0.2,1.2-0.5,1.2C71.1,259.9,70.5,259.3,70,258.7L70,258.7z M159.7,256.3c0.4-0.7,1.3-1.2,1.9-1.2
	s0.8,0.5,0.5,1.2c-0.4,0.6-1.3,1.2-1.9,1.2S159.3,256.9,159.7,256.3z M163.9,253.9c0-0.8,0.4-1.2,0.8-0.8c0.5,0.5,0.5,1.2,0,1.6
	C164.2,255.1,163.9,254.7,163.9,253.9L163.9,253.9z M136.6,251.5c0-1.7,0.2-2.3,0.6-1.6s0.4,2.2,0,3S136.6,253,136.6,251.5z
	 M85,250.3c0-0.8,0.4-1.2,0.8-0.8c0.5,0.5,0.5,1.2,0,1.6C85.3,251.5,85,251.1,85,250.3L85,250.3z M141.2,249.1
	c0-0.8,0.4-1.2,0.8-0.8c0.5,0.5,0.5,1.2,0,1.6C141.5,250.3,141.2,249.9,141.2,249.1L141.2,249.1z M166.3,249c0-0.7,0.5-1,1.2-0.5
	c0.7,0.4,1.2,1,1.2,1.3s-0.5,0.5-1.2,0.5S166.3,249.7,166.3,249z M79.4,248.3c0.5-0.5,1.2-0.5,1.6,0s0.1,0.8-0.8,0.8
	S79,248.7,79.4,248.3L79.4,248.3z M144.8,247.9c0-0.8,0.4-1.2,0.8-0.8c0.5,0.5,0.5,1.2,0,1.6C145.1,249.1,144.8,248.7,144.8,247.9
	L144.8,247.9z M166.6,242.3c0.5-0.5,1.2-0.5,1.6,0c0.4,0.5,0.1,0.8-0.8,0.8S166.3,242.8,166.6,242.3L166.6,242.3z M148.3,240
	c0-1.1,0.5-1.6,1.2-1.1c0.7,0.5,1.2,1.2,1.2,1.9c0,0.7-0.5,1.1-1.2,1.1C148.8,241.9,148.3,241.1,148.3,240z M162.1,238.3
	c0.4-0.7,1-1.2,1.3-1.2s0.5,0.5,0.5,1.2c0,0.7-0.6,1.2-1.3,1.2S161.7,238.9,162.1,238.3z M155.5,237.1c0-0.7,0.6-1.2,1.3-1.2
	s1,0.5,0.5,1.2c-0.5,0.7-1,1.2-1.3,1.2S155.5,237.7,155.5,237.1z M414.8,224.7c0.7-1,3.8-2.6,6.8-3.7c3-1.2,9.6-4.4,14.6-7.3
	l9.1-5.1l3.3,1.9l3.3,1.9l3.9-2c2.2-1.1,5.4-3,7.3-4.1l3.3-2.2l10.8,5.7c5.9,3.1,11.2,5.4,11.8,5s1.2-0.1,1.2,0.6
	c0,0.7-0.8,1.3-1.8,1.3s-1.8,0.5-1.8,1.1c0,1.2-4.9,2.7-5.9,1.9c-0.2-0.2,0.7-1,2.3-1.6l2.7-1l-4.1-2.4c-2.3-1.3-6.6-3.8-9.6-5.5
	l-5.5-3l-6.9,4.2l-6.9,4.2l-3.8-2l-3.8-2l-8.2,4.8c-4.5,2.6-10.8,5.7-13.6,6.8s-5.9,2.5-6.6,3.1C414.9,227,413.3,226.5,414.8,224.7
	L414.8,224.7z M416.1,219.1c0-0.7,0.6-1,1.2-0.5c0.6,0.5,1.2,1,1.2,1.3s-0.6,0.5-1.2,0.5S416.1,219.8,416.1,219.1z M410.1,214.3
	c0-0.7,0.6-1,1.2-0.5c0.6,0.5,1.2,1,1.2,1.3s-0.6,0.5-1.2,0.5S410.1,215,410.1,214.3z M494.4,213.2c0.4-0.6,4.1-2.9,8.1-4.9l7.4-3.7
	l4.9,0.7c9.3,1.4,12.3,1.1,21.4-3.2c12.6-6,12.2-7.1-4.1-11.6l-8.7-2.4l-5.4,2.4c-7.3,3.2-19.7,1.9-24.7-2.6
	c-1.9-1.8-4.2-1.2-8.6,2.2l-4.2,3.2l-3.8-2l-3.8-2l3.9,0.7l3.9,0.7l4.1-3.1c4.7-3.6,5.7-3.7,9.3-1.3c1.4,1,5.7,2.5,9.7,3.6l6.9,1.8
	l4.7-2.4c7.2-3.7,22.6-1.2,30,4.7l2.7,2.3l8-4.1c10.3-5.1,12-5.1,21.9,1l8.2,5l7.2-3.7c12.2-6.2,16.1-7.4,16.1-5.1
	c0,0.7-1,1.2-2.3,1.2c-4.1,0-16.7,7.3-16,9.2l0.7,1.8l-2.9-0.8c-1.6-0.5-7.1-3.2-12.3-6.1c-11.6-6.5-7.9-6.9-30.7,4.3
	c-20.1,9.9-21.8,10.4-30.1,8.2l-5.1-1.3l-8.1,4.3C494.5,214.7,493.2,215.1,494.4,213.2L494.4,213.2z M403.3,208.8
	c0.5-0.5,1.2-0.5,1.6,0c0.4,0.5,0.1,0.8-0.8,0.8S402.9,209.3,403.3,208.8z M594.5,202.8c0.5-0.5,1.2-0.5,1.6,0
	c0.4,0.5,0.1,0.8-0.8,0.8C594.3,203.7,594.2,203.3,594.5,202.8L594.5,202.8z M459.1,199c0-1.2,10.2-8.5,12-8.5c0.7,0,1.1,0.5,0.7,1
	C470.8,193,459.1,200,459.1,199L459.1,199z M4.9,189.3c-3.6-2.9-1.7-3.2,2.3-0.5l2.7,1.9l3.2-1.4c1.8-0.8,7.3-4.2,12.4-7.4
	c6.5-4.2,10-5.9,11.8-5.4c1.4,0.4,3.6,0,4.8-0.7c1.7-1,2.5-1.1,3.1-0.1c0.5,0.7,3.7,2.9,7.2,4.7l6.3,3.3l3-1.4
	c1.7-0.7,7.9-4.7,13.7-8.6s11.4-7.2,12.2-7.2c1.7,0-23.3,16.5-27.1,17.9c-1.8,0.6-4.3-0.1-8.8-2.6c-4.2-2.4-8.2-3.7-12-3.8l-5.5-0.2
	l-7.6,5.3C12.8,192.4,10,193.3,4.9,189.3L4.9,189.3z M390.6,188.7l-0.7-1.8h4.4h4.4l-2.3,1.8C393.5,191,391.5,191,390.6,188.7z
	 M385.2,184.2c-2.2-2.2-1.7-3.1,1.6-2.7c4.1,0.5,4.8,1.4,2,3C387.3,185.3,386.2,185.1,385.2,184.2L385.2,184.2z M549,179.5
	c-2.3-2.3-1.7-3.6,0.8-2.2c1.6,0.8,2.5,0.8,3.1,0c0.4-0.7,1.6-1.2,2.6-1.2h1.9l-2.2,2.4C553,181.3,551,181.6,549,179.5L549,179.5z
	 M111.9,168.3l-3.6-1.6l5.6,0.2c3.1,0.1,5.5,0.2,5.4,0.2s-1,0.6-2,1.3C115.9,169.5,114.5,169.4,111.9,168.3L111.9,168.3z M99.1,167
	c0.8-0.4,2.2-0.4,3,0c0.8,0.4,0.1,0.6-1.6,0.6S98.3,167.3,99.1,167z"/>
</svg>
