<?xml version="1.0" encoding="utf-8"?>
<!-- Generator: Adobe Illustrator 17.0.0, SVG Export Plug-In . SVG Version: 6.00 Build 0)  -->
<!DOCTYPE svg PUBLIC "-//W3C//DTD SVG 1.1//EN" "http://www.w3.org/Graphics/SVG/1.1/DTD/svg11.dtd" [
	<!ENTITY ns_flows "http://ns.adobe.com/Flows/1.0/">
	<!ENTITY ns_extend "http://ns.adobe.com/Extensibility/1.0/">
	<!ENTITY ns_ai "http://ns.adobe.com/AdobeIllustrator/10.0/">
	<!ENTITY ns_graphs "http://ns.adobe.com/Graphs/1.0/">
]>
<svg version="1.1" id="Layer_1" xmlns:x="&ns_extend;" xmlns:i="&ns_ai;" xmlns:graph="&ns_graphs;"
	 xmlns="http://www.w3.org/2000/svg" xmlns:xlink="http://www.w3.org/1999/xlink" xmlns:a="http://ns.adobe.com/AdobeSVGViewerExtensions/3.0/"
	 x="0px" y="0px" width="612px" height="792px" viewBox="0 0 612 792" style="enable-background:new 0 0 612 792;"
	 xml:space="preserve">
<g id="Layer_1_1_">
	<path style="fill:none;stroke:#000000;stroke-width:3;stroke-linecap:round;stroke-linejoin:round;stroke-miterlimit:10;" d="
		M529.4,318.9c0,5-2.2,41.3-6.5,41.3c-4.3,0-36.1,6.5-39.1,2.9c-2.9-3.6-5.8-5-5.8-5s-11.6,5.7-22.4,16.6c-9.3,9.3-27,24.9-32,29.3
		c-0.1-2-0.2-4.7-0.1-5.8c0.7-9.3,10.3-22.7,10.3-22.7l-0.6-0.4c14.9-8,42.6-24.8,42.6-27c0-2.9-5.8-31.8-1.4-36.1
		c4.3-4.3,21.7,2.9,21.7,2.9s2.9-7.2,9.4-10.2C512.1,301.6,529.4,313.9,529.4,318.9z"/>
	<path style="fill:none;stroke:#000000;stroke-width:3;stroke-linecap:round;stroke-linejoin:round;stroke-miterlimit:10;" d="
		M423.6,404c0.1,1.4,0.2,2.6,0.2,2.6c-4.2,0.2-7.4-2.8-10.4-7c0,0,0-0.1,0.1-0.1c3.4-4.9,2.3-9.5-1.9-13.3c-0.5-0.4-1.1-1.7-2-3.5
		c6-2.7,13.1-6.3,15.7-8.6c1-0.9,1.9-1.9,2.5-3l5.5,3.9l0.6,0.4c0,0-9.7,13.4-10.3,22.7C423.4,399.3,423.5,401.9,423.6,404z"/>
	<path style="fill:none;stroke:#000000;stroke-width:3;stroke-linecap:round;stroke-linejoin:round;stroke-miterlimit:10;" d="
		M403.4,408.5L403.4,408.5c0-1.1,0-2.1,0-3.1C403.4,406.4,403.4,407.5,403.4,408.5z"/>
	<path style="fill:none;stroke:#000000;stroke-width:3;stroke-linecap:round;stroke-linejoin:round;stroke-miterlimit:10;" d="
		M459.2,591.2L459.2,591.2"/>
	<path style="fill:none;stroke:#000000;stroke-width:3;stroke-linecap:round;stroke-linejoin:round;stroke-miterlimit:10;" d="
		M550.3,549.2c0,0-5.1,14.3-15.4,20c-8,4.4-36.2,18.5-57.8,22.1l0,0c2-5.9,4.3-12.2,6.8-18.6l0,0l0,0l0,0
		c15.4-11.6,34-23.8,41.3-24.4c11.4-1,23.2,0.7,24.8,1h0.1C550.2,549.2,550.3,549.2,550.3,549.2z"/>
	<path style="fill:none;stroke:#000000;stroke-width:3;stroke-linecap:round;stroke-linejoin:round;stroke-miterlimit:10;" d="
		M373.5,298.3c-1,0.4-2,0.8-3,1.1c-2.8,1.1-5.7,1.9-8.5,2.9c-0.4,0.2-0.8,0.3-1.1,0.4c-4,1.4-7.9,3-11.6,5.3c-5.2,3.3-12.5-5-4.7-8
		l11.9-4.5l1.3-0.5l10-3.8l0.7-0.3C373.6,289.2,377.2,296.8,373.5,298.3z"/>
	<path style="fill:none;stroke:#000000;stroke-width:3;stroke-linecap:round;stroke-linejoin:round;stroke-miterlimit:10;" d="
		M353.9,291.7l-3.8-1.6l0,0l-0.4-0.2c-0.1-0.2-0.2-0.3-0.3-0.4l0,0l-1.3-1.1c0.4,0.3,0.6,0.4,1,0.6l0,0
		C350.6,290,352.1,290.9,353.9,291.7L353.9,291.7C353.8,291.6,353.9,291.7,353.9,291.7z"/>
	<path style="fill:none;stroke:#000000;stroke-width:3;stroke-linecap:round;stroke-linejoin:round;stroke-miterlimit:10;" d="
		M164.8,344.6c-12,6.3-29.1,15.3-36.2,19.3c-11.6,6.5-5.7,29-5.7,34.7c0,5.7-18.8,10.2-18.8,10.2l-2.9-10.9c0,0-3.6-8-15.2-8
		c-6.1,0-5.1,5.8-6.5,9.1c-0.7,1.8-3.2,3.1-5.2,2.4c0,0-9.3-2.8-13.6-6.5s4.3-28.2,2.2-32.5c-2.2-4.3-4.3-9.4,0.7-13.8
		c5-4.3,25.4-2.9,35.4-4.3c10.2-1.4,17.4,7.2,25.4,5.7c5.2-1,24.2-10.5,37.6-17.2c0.1,1.6,0.4,3.2,0.7,4.9
		C163.1,340.1,163.8,342.4,164.8,344.6z"/>
	<path style="fill:none;stroke:#000000;stroke-width:3;stroke-linecap:round;stroke-linejoin:round;stroke-miterlimit:10;" d="
		M189.8,350c-4.4,1.6-9,3.3-12,4.5c-5.5,2.2-10.2-3.1-13-9.9c-0.9-2.2-1.7-4.5-2.2-6.8c-0.4-1.8-0.6-3.4-0.7-4.9
		c-0.4-6.9,2.4-12,6.5-13.2c1.9-0.5,4.9-1.6,7.9-2.7c-0.4,1.4-0.6,2.7-0.6,4.1C175.6,329.6,184.7,347.2,189.8,350z"/>
	<path style="fill:none;stroke:#000000;stroke-width:3;stroke-linecap:round;stroke-linejoin:round;stroke-miterlimit:10;" d="
		M459.2,591.2c0.9,0.2,1.8,0.4,2.6,0.4l0,0c-0.7,0.9-1.9,1.7-3.4,2.4l0,0C458.6,593.2,458.8,592.2,459.2,591.2"/>
	<path style="fill:none;stroke:#000000;stroke-width:3;stroke-linecap:round;stroke-linejoin:round;stroke-miterlimit:10;" d="
		M182.1,687.6c-0.1,0.1-0.2,0.2-0.4,0.4c-1.6,2.7-2.8,18.8-1.9,26.9c0,0.2,0,0.4,0.1,0.6c-12.6,17.4-15.6,49.2-20.2,62.9
		c-4.7,13.7-25.7,5-22.4,1.1c9.6-11.5,31.9-67.9,32.5-73.4c0.6-5.2,4-20.6,5.8-22.4C177.4,681.8,184,686.6,182.1,687.6z"/>
	<path style="fill:none;stroke:#000000;stroke-width:3;stroke-linecap:round;stroke-linejoin:round;stroke-miterlimit:10;" d="
		M235.7,623.6c-0.3,0.3-0.4,0.5-0.7,0.8C235.1,624.2,235.4,623.9,235.7,623.6C235.6,623.6,235.6,623.6,235.7,623.6z"/>
	<path style="fill:none;stroke:#000000;stroke-width:3;stroke-linecap:round;stroke-linejoin:round;stroke-miterlimit:10;" d="
		M251.3,629.6c-4.6,4-8.9,8.2-13.1,12.6c-22.5,23.9-39.4,52.7-58.3,72.6c-0.9-8,0.4-24.1,1.9-26.9h5.4c0,0,18.5-26.8,37.3-50.6
		c1.8-2.3,3.6-4.5,5.4-6.7c0.8-1,1.7-2,2.5-3c0.1-0.1,0.2-0.3,0.3-0.4c0.5-0.7,1.1-1.3,1.7-2c0.3-0.3,0.4-0.5,0.7-0.9
		c0.3-0.3,0.4-0.5,0.7-0.8C240.6,625.5,246.1,627.6,251.3,629.6z"/>
	<path style="fill:none;stroke:#000000;stroke-width:3;stroke-linecap:round;stroke-linejoin:round;stroke-miterlimit:10;" d="
		M251.3,629.6c-4.6,4-8.9,8.2-13.1,12.6h-0.1C242.4,637.8,246.7,633.5,251.3,629.6L251.3,629.6z"/>
	<path style="fill:none;stroke:#000000;stroke-width:3;stroke-linecap:round;stroke-linejoin:round;stroke-miterlimit:10;" d="
		M483.9,572.7c-2.5,6.5-4.8,12.7-6.8,18.6c-1.1,3.1-2,6.1-3,9.1c-8.2,25.7-11.8,45.7-9.6,58.9l0,0c-4.2,4.4-10.3,11-14.1,14.7
		c2.7-26.6,1.6-52.8,8-79.8l0,0c1.5-0.7,2.7-1.5,3.4-2.4C464.3,588.3,473.3,580.6,483.9,572.7z"/>
	<path style="fill:none;stroke:#000000;stroke-width:3;stroke-linecap:round;stroke-linejoin:round;stroke-miterlimit:10;" d="
		M461.7,591.7c-0.7,0.9-1.9,1.7-3.4,2.4c0.3-1,0.4-1.9,0.7-2.8C460,591.4,460.9,591.5,461.7,591.7L461.7,591.7z"/>
	<path style="fill:none;stroke:#000000;stroke-width:3;stroke-linecap:round;stroke-linejoin:round;stroke-miterlimit:10;" d="
		M483.9,572.7c-2.5,6.5-4.8,12.7-6.8,18.6c-1.1,3.1-2,6.1-3,9.1l0,0c1-2.9,1.9-6,3-9.1C479.1,585.3,481.4,579.1,483.9,572.7
		L483.9,572.7z"/>
	<path style="fill:none;stroke:#000000;stroke-width:3;stroke-linecap:round;stroke-linejoin:round;stroke-miterlimit:10;" d="
		M459.2,591.2c0.9,0.2,1.8,0.4,2.6,0.4l0,0c2.5-3.4,11.5-11,22.1-19.1l0,0l0,0l0,0c15.4-11.6,34-23.8,41.3-24.4
		c11.4-1,23.2,0.7,24.8,1h0.1h0.1c-0.5-0.9-34.3-56.4-37.8-65.5c-3.5-9.2-17.4-23.1-35.3-28.1c-17.9-5.1-68.6-32.3-74.2-39.4
		c0.2-2.1,0.4-4,0.4-5.7c-0.9-0.1-1.9-0.2-2.7-0.3c-1.5-0.1-2.8-0.2-3.8-0.2c-3.6,0-4.1-6.2-4.1-6.2s0,7.7-2.6,8.7
		c-2.6,1-16.9,0-34.8,2c-11.7,1.3-22.6,7-28.9,10.8c-1,0.6-1.9,1.1-2.6,1.6c0.1-0.4,0.1-0.8,0.2-1.1l0,0c-1.1,7.1-2.6,13.8-4,15.9
		c-3.5,5.1-101.3,54.8-108,56.8c-6.6,2-70.1,25.6-77.2,29.7c-7.2,4.1-7.2,11.8-2,13.3c5.1,1.5,11.8,5.7,12.8,9.2
		c1.1,3.5-2.6,6.1,4.6,11.2c7.2,5.1,58.3,54.3,67.5,55.8c3.2,0.5,10,3,17.9,5.9l0,0c5,1.9,10.4,4,15.6,5.9l0,0
		c10.3,3.8,19.5,7.1,22.6,7.1c3.5,0,7.4-1.1,9.8-3l2.4-3.4l8.8-12.4c0.6,0.1,1.2,0.3,1.9,0.4c11.2,2.6,60.4,20,77.8,14.8
		c15.1-4.4,35.3-15.5,34.6-20.6l0,0l6.5-14.5c13.3,0.2,33.8,0,42.5-3.9C458.6,593.2,458.8,592.2,459.2,591.2"/>
	<path style="fill:none;stroke:#000000;stroke-width:3;stroke-linecap:round;stroke-linejoin:round;stroke-miterlimit:10;" d="
		M326.4,425.4c-1,0.6-1.9,1.1-2.6,1.6c0.1-0.4,0.1-0.8,0.2-1.1h0.1L326.4,425.4z"/>
	<path style="fill:none;stroke:#000000;stroke-width:3;stroke-linecap:round;stroke-linejoin:round;stroke-miterlimit:10;" d="
		M403.4,408.5c0,0.3,0,0.6,0,0.9c0,0.1,0,0.2,0,0.3c0,0.3,0,0.5,0,0.8c-0.9-0.1-1.9-0.2-2.7-0.3
		C401.5,409.7,402.4,409.2,403.4,408.5c0-1.1,0-2.1,0-3.1C403.4,406.4,403.4,407.5,403.4,408.5z"/>
	<path style="fill:none;stroke:#000000;stroke-width:3;stroke-linecap:round;stroke-linejoin:round;stroke-miterlimit:10;" d="
		M286.2,630.3c-0.3,1.3-1.1,2.5-2.4,3.4L286.2,630.3z"/>
	<path style="fill:none;stroke:#000000;stroke-width:3;stroke-linecap:round;stroke-linejoin:round;stroke-miterlimit:10;" d="
		M326.4,425.4c-1,0.6-1.9,1.1-2.6,1.6c0.1-0.4,0.1-0.8,0.2-1.1h0.1L326.4,425.4z"/>
	<path style="fill:none;stroke:#000000;stroke-width:3;stroke-linecap:round;stroke-linejoin:round;stroke-miterlimit:10;" d="
		M403.4,408.5c0,0.3,0,0.5,0,0.9c0,0.1,0,0.2,0,0.3c0,0.3,0,0.5,0,0.8c-0.9-0.1-1.9-0.2-2.7-0.3
		C401.5,409.7,402.4,409.2,403.4,408.5z"/>
	<path style="fill:none;stroke:#000000;stroke-width:3;stroke-linecap:round;stroke-linejoin:round;stroke-miterlimit:10;" d="
		M349.5,289.5c0.1,0.1,0.2,0.3,0.3,0.4l0.4,0.2L349.5,289.5z M349.5,289.5c0.1,0.1,0.2,0.3,0.3,0.4l0.4,0.2L349.5,289.5z
		 M349.5,289.5c0.1,0.1,0.2,0.3,0.3,0.4l0.4,0.2L349.5,289.5z M349.5,289.5c0.1,0.1,0.2,0.3,0.3,0.4l0.4,0.2L349.5,289.5z
		 M349.5,289.5c0.1,0.1,0.2,0.3,0.3,0.4l0.4,0.2L349.5,289.5z M349.5,289.5c0.1,0.1,0.2,0.3,0.3,0.4l0.4,0.2L349.5,289.5z
		 M349.5,289.5c0.1,0.1,0.2,0.3,0.3,0.4l0.4,0.2L349.5,289.5z M349.5,289.5c0.1,0.1,0.2,0.3,0.3,0.4l0.4,0.2L349.5,289.5z
		 M349.5,289.5c0.1,0.1,0.2,0.3,0.3,0.4l0.4,0.2L349.5,289.5z M349.5,289.5c0.1,0.1,0.2,0.3,0.3,0.4l0.4,0.2L349.5,289.5z
		 M349.5,289.5c0.1,0.1,0.2,0.3,0.3,0.4l0.4,0.2L349.5,289.5z M349.5,289.5c0.1,0.1,0.2,0.3,0.3,0.4l0.4,0.2L349.5,289.5z
		 M349.5,289.5c0.1,0.1,0.2,0.3,0.3,0.4l0.4,0.2L349.5,289.5z M349.5,289.5c0.1,0.1,0.2,0.3,0.3,0.4l0.4,0.2L349.5,289.5z
		 M349.5,289.5c0.1,0.1,0.2,0.3,0.3,0.4l0.4,0.2L349.5,289.5z M349.5,289.5c0.1,0.1,0.2,0.3,0.3,0.4l0.4,0.2L349.5,289.5z
		 M349.5,289.5c0.1,0.1,0.2,0.3,0.3,0.4l0.4,0.2L349.5,289.5z"/>
	<path style="fill:none;stroke:#000000;stroke-width:3;stroke-linecap:round;stroke-linejoin:round;stroke-miterlimit:10;" d="
		M299.6,315.1l-17-15.7c-8.6-0.6-17.6-3.1-24.3-5.7c1.6,0.8,2.7,1.1,1.8,1.1c-6.3-0.2-14.8-6-22.8-13.1l0,0
		c-2.4-2.1-4.8-4.3-7.1-6.5c-11.6-2.1-22.4-3.4-25.7-1.9c-8,3.6-19.5,18.1-19.5,23.9c0,4.9-6.7,12.4-8.7,19.8
		c-0.4,1.4-0.6,2.7-0.6,4.1c0,8.5,9,26.1,14.1,28.8l0,0c0.1,0.1,0.2,0.1,0.3,0.2c5,2.2,1.4,8.7,8,12.3c6.5,3.6,13.8,5,13.8,5
		s9.4,10.2,15.2,10.2s29-5,37.6-12.3c3.1-2.6,8.8-9.2,14.9-16.8l0,0c3.4-4.3,7.1-8.9,10.4-13.2c7.2-9.3,13-17.1,13-17.1L299.6,315.1
		z"/>
	<path style="fill:none;stroke:#000000;stroke-width:3;stroke-linecap:round;stroke-linejoin:round;stroke-miterlimit:10;" d="
		M435.4,332.7c-3.6-10.4-20.4-20.2-33.1-26.2c3.4-0.9,6.9-1.2,10.3-0.9c2.3,0.3-6.6-12.2-11.2-17.3c-6.2-6.9-18.6-16.3-25.7-21.4
		c-4.2,0.6-8.8,5.5-12.7,10.8c-3.7,5-6.7,10.4-8,12.9l0,0c-0.4,0.9-0.7,1.4-0.7,1.4c-0.2-0.1-0.4-0.1-0.4-0.2c0,0,0,0.1,0.1,0.1
		l-3.8-1.6l0,0l-0.4-0.2c-0.1-0.2-0.2-0.3-0.3-0.4l0,0l-1.3-1.1c0.4,0.3,0.6,0.4,1,0.6c-3.5-4.9-6.3-7.9-12.4-11.5
		c-1.5-0.9-3.3-1.9-5.3-2.9c-2.5-1.2-9.1-2.3-15.6-3.5l-0.3-0.8c-15-1-25.1-1.4-33.8,1.2c-3.2,1-6.2,2.4-9.2,4.2
		c-4.8,3.1-9.3,4.8-13.5,5.6l0,0c-4.7,0.8-9.1,0.4-13-1.1c2.5,3.7,5.1,7.1,7.2,9.7c1.3,1.7,3.4,2.9,4.9,3.7l0,0
		c6.7,2.6,15.7,5,24.3,5.7l17,15.6l3.4,3.1c0,0-5.7,7.8-13,17.1c-3.4,4.2-7,8.8-10.4,13.2l0,0c5.6,9.5,11,17.7,14.4,20.1
		c9.7,6.6,17.4,18.5,17.9,28.6c0.4,8.7-6.6,22-2.6,25.1c2.5,1.9,7.2,2.7,10.6,3.2c-0.3,0-0.5-0.1-0.8-0.2c1.3,0.2,3,0.4,4.9,0.5l0,0
		h0.1l2.3-0.4c6.3-3.8,17.2-9.5,28.9-10.8c17.9-2,32.3-1,34.8-2c2.6-1.1,2.6-8.7,2.6-8.7s0.4,6.2,4.1,6.2c1,0,2.3,0.1,3.8,0.2
		c1-0.5,1.9-1.1,2.8-1.7c0-1.1,0-2.1,0-3.1c0,1,0.1,2,0,3.1c4.1-2.5,7.8-5.3,10-9c0,0,0-0.1,0.1-0.1c3.4-4.9,2.3-9.5-1.9-13.3
		c-0.5-0.4-1.1-1.7-2-3.5c6-2.7,13.1-6.3,15.7-8.6c1-0.9,1.9-1.9,2.5-3c2.7-4.5,3.2-10.2,3.2-10.2S438.8,342.7,435.4,332.7z
		 M344.5,300.1l11.9-4.5l1.3-0.5l10-3.8l0.7-0.3c5.2-1.9,8.8,5.7,5,7.2c-1,0.4-2,0.8-3,1.1c-2.8,1.1-5.7,1.9-8.5,2.9
		c-0.4,0.2-0.8,0.3-1.1,0.4c-4,1.4-7.9,3-11.6,5.3C344,311.3,336.8,303.1,344.5,300.1z M378.7,311c-1.4,0.4-2.7,0.8-4,1.1
		c-1.4,0.5-2.8,1-4.1,1.6c-0.5,0.3-1.1,0.4-1.6,0.7c-0.4,0.2-0.7,0.4-1.1,0.5c-3.1,1.6-6.1,3.4-9.9,5.7c-5.2,3.3-12.3-4.6-4.7-8
		l10.5-4.7l1.1-0.5l7.1-3.2l2-0.9c2.3-1,4.8,0.1,6.2,1.7C382.1,307.3,382.4,310.1,378.7,311z"/>
	<path style="fill:none;stroke:#000000;stroke-width:3;stroke-linecap:round;stroke-linejoin:round;stroke-miterlimit:10;" d="
		M401.4,27.2c-9.4-5.8-19.4-10.4-32.2-12.1c10.4-1.9,19.4-3.2,24.4-3.1h0.1l0,0c0,0,5.1,1.1,6.6,9.7
		C400.6,22.7,400.8,24.7,401.4,27.2z"/>
	<path style="fill:none;stroke:#000000;stroke-width:3;stroke-linecap:round;stroke-linejoin:round;stroke-miterlimit:10;" d="
		M344.8,210.2c0.7,0,1.3,0,2,0c9.6-0.1,20.1-3.5,30.2-5.4c-10.3,3.4-20.8,5.3-30.5,6.4c-9.1,1-17.5,1.2-24.5,1.6l20.5-2"/>
	<path style="fill:none;stroke:#000000;stroke-width:3;stroke-linecap:round;stroke-linejoin:round;stroke-miterlimit:10;" d="
		M287.8,177.2c-6,5.5-9.7,10.4-10.3,19.7c1.6-5,4.1-10.6,8.4-13.9c0.2-0.2,0.4-0.4,0.6-0.4c1.3-0.9,2.8-1.6,4.5-2L287.8,177.2z
		 M302.9,153.2c14-4.6,28.5-17.2,45.2-6l2.6,3.1l4.3-5.7C329.3,131.4,313.4,142.7,302.9,153.2z M382.5,149.3
		c2.7,10.5-3.3,13.3-20.6,11.6C377.3,168.8,391.4,162.9,382.5,149.3z M384.7,134.1c0.3,2.4-2.9,5.8,2.6,6.5l1.8-5.7
		c4-5.8,19.5-12.8,31.8-5.8C415.1,124.3,401.1,114.5,384.7,134.1z M287.8,177.2c-6,5.5-9.7,10.4-10.3,19.7c1.6-5,4.1-10.6,8.4-13.9
		c0.2-0.2,0.4-0.4,0.6-0.4c1.3-0.9,2.8-1.6,4.5-2L287.8,177.2z M302.9,153.2c14-4.6,28.5-17.2,45.2-6l2.6,3.1l4.3-5.7
		C329.3,131.4,313.4,142.7,302.9,153.2z M382.5,149.3c2.7,10.5-3.3,13.3-20.6,11.6C377.3,168.8,391.4,162.9,382.5,149.3z
		 M384.7,134.1c0.3,2.4-2.9,5.8,2.6,6.5l1.8-5.7c4-5.8,19.5-12.8,31.8-5.8C415.1,124.3,401.1,114.5,384.7,134.1z M287.8,177.2
		c-6,5.5-9.7,10.4-10.3,19.7c1.6-5,4.1-10.6,8.4-13.9c0.2-0.2,0.4-0.4,0.6-0.4c1.3-0.9,2.8-1.6,4.5-2L287.8,177.2z M302.9,153.2
		c14-4.6,28.5-17.2,45.2-6l2.6,3.1l4.3-5.7C329.3,131.4,313.4,142.7,302.9,153.2z M382.5,149.3c2.7,10.5-3.3,13.3-20.6,11.6
		C377.3,168.8,391.4,162.9,382.5,149.3z M384.7,134.1c0.3,2.4-2.9,5.8,2.6,6.5l1.8-5.7c4-5.8,19.5-12.8,31.8-5.8
		C415.1,124.3,401.1,114.5,384.7,134.1z M384.7,134.1c0.3,2.4-2.9,5.8,2.6,6.5l1.8-5.7c4-5.8,19.5-12.8,31.8-5.8
		C415.1,124.3,401.1,114.5,384.7,134.1z M382.5,149.3c2.7,10.5-3.3,13.3-20.6,11.6C377.3,168.8,391.4,162.9,382.5,149.3z
		 M302.9,153.2c14-4.6,28.5-17.2,45.2-6l2.6,3.1l4.3-5.7C329.3,131.4,313.4,142.7,302.9,153.2z M287.8,177.2
		c-6,5.5-9.7,10.4-10.3,19.7c1.6-5,4.1-10.6,8.4-13.9c0.2-0.2,0.4-0.4,0.6-0.4c1.3-0.9,2.8-1.6,4.5-2L287.8,177.2z M384.7,134.1
		c0.3,2.4-2.9,5.8,2.6,6.5l1.8-5.7c4-5.8,19.5-12.8,31.8-5.8C415.1,124.3,401.1,114.5,384.7,134.1z M382.5,149.3
		c2.7,10.5-3.3,13.3-20.6,11.6C377.3,168.8,391.4,162.9,382.5,149.3z M302.9,153.2c14-4.6,28.5-17.2,45.2-6l2.6,3.1l4.3-5.7
		C329.3,131.4,313.4,142.7,302.9,153.2z M287.8,177.2c-6,5.5-9.7,10.4-10.3,19.7c1.6-5,4.1-10.6,8.4-13.9c0.2-0.2,0.4-0.4,0.6-0.4
		c1.3-0.9,2.8-1.6,4.5-2L287.8,177.2z"/>
	<path style="fill:none;stroke:#000000;stroke-width:3;stroke-linecap:round;stroke-linejoin:round;stroke-miterlimit:10;" d="
		M382.5,149.3c2.7,10.5-3.3,13.3-20.6,11.6C377.3,168.8,391.4,162.9,382.5,149.3z M346.8,210.2l-0.3,1c9.7-1.1,20.1-2.9,30.5-6.4
		C367,206.7,356.5,210.2,346.8,210.2z"/>
	<path style="fill:none;stroke:#000000;stroke-width:3;stroke-linecap:round;stroke-linejoin:round;stroke-miterlimit:10;" d="
		M315.5,270.4c-15-1-25.1-1.4-33.8,1.2c-3.2,1-6.2,2.4-9.2,4.2c-4.8,3.1-9.3,4.8-13.5,5.6l0,0c-4.7,0.8-9.1,0.4-13-1.1
		c-0.4-0.7-1-1.5-1.4-2.2c-1.9-3.2-3.5-6.6-4.2-10c-0.1-0.5-0.2-1-0.3-1.5c-2.7-18.7-1.7-41.2,1.6-64.5c1.5,3,3.2,5.7,5,8.4
		c20.6,28.5,40,41.1,62.9,45.7l0,0L315.5,270.4z"/>
	<path style="fill:none;stroke:#000000;stroke-width:3;stroke-linecap:round;stroke-linejoin:round;stroke-miterlimit:10;" d="
		M458.2,225.8c-2.6,11.2-20,45.5-30.7,49.7c-10.8,4.1-41.4-9.2-51.2-8.7c-0.2,0-0.4,0-0.6,0.1c-4.2,0.6-8.8,5.5-12.7,10.8
		c-3.7,5-6.7,10.4-8,12.9l0,0c-0.4,0.9-0.7,1.4-0.7,1.4c-0.2-0.1-0.4-0.1-0.4-0.2l0,0c-3-4.5-5.8-9.4-8.6-14.6
		c-2.4-4.6-4.6-9.5-6.6-14.6c-0.5-1.4-1.1-2.7-1.6-4.2c8.2-0.2,17.1-0.8,26.4-1.8c41.2-4.2,69.3-31.9,76.9-66.1l0,0
		c1.7-7.4,2.3-15.1,1.9-23c-0.8-17.7-11.6-40.5-24.1-61.5c0.7-0.1,2.3-0.4,4.4-0.9c2.5,5.5,5.1,10.3,8,14.2
		C448.5,144,460.7,214.6,458.2,225.8z"/>
	<path style="fill:none;stroke:#000000;stroke-width:3;stroke-linecap:round;stroke-linejoin:round;stroke-miterlimit:10;" d="
		M353.8,291.6c-1.7-0.7-3.2-1.6-4.7-2.6l0,0c-3.5-4.9-6.3-7.9-12.4-11.5c-1.5-0.9-3.3-1.9-5.3-2.9c-2.5-1.2-9.1-2.3-15.6-3.5
		l-0.3-0.8l-5.7-14.2c2.2,0.4,4.5,0.8,6.8,1.1c5.2,0.7,10.6,1,16.3,1.1c1.4,0,2.7,0,4.2,0c0.5,1.4,1.1,2.8,1.6,4.2
		c2,5.1,4.2,10,6.6,14.6C348,282.3,350.9,287.1,353.8,291.6z"/>
	<path style="fill:none;stroke:#000000;stroke-width:3;stroke-linecap:round;stroke-linejoin:round;stroke-miterlimit:10;" d="
		M344.8,210.2c0.7,0,1.3,0,2,0c9.6-0.1,20.1-3.5,30.2-5.4c-10.3,3.4-20.8,5.3-30.5,6.4c-9.1,1-17.5,1.2-24.5,1.6l20.5-2"/>
	<path style="fill:none;stroke:#000000;stroke-width:3;stroke-linecap:round;stroke-linejoin:round;stroke-miterlimit:10;" d="
		M287.8,177.2c-6,5.5-9.7,10.4-10.3,19.7c1.6-5,4.1-10.6,8.4-13.9c0.2-0.2,0.4-0.4,0.6-0.4c1.3-0.9,2.8-1.6,4.5-2L287.8,177.2z
		 M384.7,134.1c0.3,2.4-2.9,5.8,2.6,6.5l1.8-5.7c4-5.8,19.5-12.8,31.8-5.8C415.1,124.3,401.1,114.5,384.7,134.1z M382.5,149.3
		c2.7,10.5-3.3,13.3-20.6,11.6C377.3,168.8,391.4,162.9,382.5,149.3z M302.9,153.2c14-4.6,28.5-17.2,45.2-6l2.6,3.1l4.3-5.7
		C329.3,131.4,313.4,142.7,302.9,153.2z"/>
	<path style="fill:none;stroke:#000000;stroke-width:3;stroke-linecap:round;stroke-linejoin:round;stroke-miterlimit:10;" d="
		M442.3,167.5c-0.8-17.7-11.6-40.5-24.1-61.5c-0.3,0-0.4,0.1-0.4,0.1l-8.2-12.3c0,0-38.9-4.1-61.4-8.2
		c-22.5-4.1-42.9-19.8-42.9-19.8s1.6,10.1-8.3,28.3c-6.8,12.5-25,27.8-40.2,39.1c-3.5,12.6-6.9,26-9.7,39.4
		c-2,9.8-3.9,19.7-5.2,29.4c1.5,3,3.2,5.7,5,8.4c20.6,28.5,40,41.1,62.9,45.7l0,0c2.2,0.4,4.5,0.8,6.8,1.1c5.2,0.7,10.6,1,16.3,1.1
		c1.4,0,2.7,0,4.2,0c8.2-0.2,17.1-0.8,26.4-1.8c41.2-4.2,69.3-31.9,76.9-66.1l0,0C442,183,442.6,175.3,442.3,167.5z M384.7,134.1
		c16.3-19.5,30.3-9.8,36.1-5c-12.3-7.1-27.9-0.1-31.8,5.8l-1.8,5.7C381.8,140,385,136.4,384.7,134.1z M382.5,149.3
		c8.8,13.6-5.3,19.5-20.6,11.6C379.3,162.5,385.4,159.8,382.5,149.3z M355,144.6l-4.3,5.7l-2.6-3.1c-16.7-11.2-31.3,1.3-45.2,6
		C313.4,142.7,329.3,131.4,355,144.6z M393.8,236.1c-18.1,6.3-37,6-54.3-0.3c-22.1-8-41.5-25.9-53.5-52.8c-4.2,3.3-6.8,8.8-8.4,13.9
		c0.4-9.3,4.2-14.2,10.3-19.7l3.4,3.4c-1.7,0.4-3.2,1.1-4.5,2c11.3,9.3,5.9,8.3,16.8,9c4.7,0.3,27.2-4.6,52.1-10.4l0,0
		c34.7-8.1,73.9-18.1,73.9-18.1l3.6-2.9C432.8,160.1,426.6,224.7,393.8,236.1z"/>
	<path style="fill:none;stroke:#000000;stroke-width:3;stroke-linecap:round;stroke-linejoin:round;stroke-miterlimit:10;" d="
		M447.4,93.9c-2.9,5.9-17.2,9.7-24.8,11.3c-2.1,0.4-3.7,0.7-4.4,0.9c-0.3,0-0.4,0.1-0.4,0.1l-8.2-12.3c0,0-38.9-4.1-61.4-8.2
		c-22.5-4.1-42.9-19.8-42.9-19.8s1.6,10.1-8.3,28.3c-6.8,12.5-25,27.8-40.2,39.1c12-42.8,26.5-77.9,32.1-84.4
		c3.2-3.9,0.3-3.2-0.8-5.7c-0.3-0.6-0.4-1.4-0.3-2.5c0.5-5.7,5.7-15.2,15.9-14.8c10.8,0.4,42-6.5,65.6-10.7
		c12.7,1.7,22.8,6.3,32.2,12.1c8.6,5.3,16.6,11.6,25.6,17.5C450.5,60,451.5,85.6,447.4,93.9z"/>
	<path style="fill:none;stroke:#000000;stroke-width:3;stroke-linecap:round;stroke-linejoin:round;stroke-miterlimit:10;" d="
		M355,144.6l-4.3,5.7l-2.6-3.1c-16.7-11.2-31.3,1.3-45.2,6C313.4,142.7,329.3,131.4,355,144.6z"/>
	<path style="fill:none;stroke:#000000;stroke-width:3;stroke-linecap:round;stroke-linejoin:round;stroke-miterlimit:10;" d="
		M420.9,129c-12.3-7.1-27.9-0.1-31.8,5.8l-1.8,5.7c-5.5-0.6-2.2-4.2-2.6-6.5C401.1,114.5,415.1,124.3,420.9,129z"/>
	<path style="fill:none;stroke:#000000;stroke-width:3;stroke-linecap:round;stroke-linejoin:round;stroke-miterlimit:10;" d="
		M291.1,180.5c-1.7,0.4-3.2,1.1-4.5,2c-0.3,0.2-0.4,0.3-0.6,0.4c-4.2,3.3-6.8,8.8-8.4,13.9c0.4-9.3,4.2-14.2,10.3-19.7L291.1,180.5z
		"/>
	<path style="fill:none;stroke:#000000;stroke-width:3;stroke-linecap:round;stroke-linejoin:round;stroke-miterlimit:10;" d="
		M344.8,210.2c0.7,0,1.3,0,2,0c9.6-0.1,20.1-3.5,30.2-5.4c-10.3,3.4-20.8,5.3-30.5,6.4c-9.1,1-17.5,1.2-24.5,1.6l20.5-2"/>
	<path style="fill:none;stroke:#000000;stroke-width:3;stroke-linecap:round;stroke-linejoin:round;stroke-miterlimit:10;" d="
		M285.2,181.4c0.3,0.5,0.4,1.1,0.7,1.6c0.2-0.2,0.4-0.4,0.6-0.4C286.1,182.2,285.7,181.9,285.2,181.4z"/>
	<path style="fill:none;stroke:#000000;stroke-width:3;stroke-linecap:round;stroke-linejoin:round;stroke-miterlimit:10;" d="
		M429.2,163c0,0-39.1,10-73.9,18.1l0,0c-24.7,5.8-47.4,10.7-52.1,10.4c-10.8-0.7-5.5,0.3-16.8-9c-0.3,0.2-0.4,0.3-0.6,0.4
		c11.9,27,31.5,44.7,53.5,52.8c17.3,6.3,36.2,6.5,54.3,0.3c32.9-11.3,39.1-76,39.1-76L429.2,163z M344.8,210.2c0.7,0,1.3,0,2,0
		c9.6-0.1,20.1-3.5,30.2-5.4c-10.3,3.4-20.8,5.3-30.5,6.4c-9.1,1-17.5,1.2-24.5,1.6l20.5-2"/>
	<path style="fill:none;stroke:#000000;stroke-width:3;stroke-linecap:round;stroke-linejoin:round;stroke-miterlimit:10;" d="
		M344.8,210.2c0.7,0,1.3,0,2,0c9.6-0.1,20.1-3.5,30.2-5.4c-10.3,3.4-20.8,5.3-30.5,6.4c-9.1,1-17.5,1.2-24.5,1.6l20.5-2"/>
	<path style="fill:none;stroke:#000000;stroke-width:3;stroke-linecap:round;stroke-linejoin:round;stroke-miterlimit:10;" d="
		M361.9,160.8c17.3,1.7,23.4-1.1,20.6-11.6C391.4,162.9,377.3,168.8,361.9,160.8z"/>
	<path style="fill:none;stroke:#000000;stroke-width:3;stroke-linecap:round;stroke-linejoin:round;stroke-miterlimit:10;" d="
		M344.8,210.2c0.7,0,1.3,0,2,0c9.6-0.1,20.1-3.5,30.2-5.4c-10.3,3.4-20.8,5.3-30.5,6.4c-9.1,1-17.5,1.2-24.5,1.6l20.5-2"/>
	<path style="fill:none;stroke:#000000;stroke-width:3;stroke-linecap:round;stroke-linejoin:round;stroke-miterlimit:10;" d="
		M344.1,6.8c-16.9,3.1-88.5,2-123.3,34.3c-12.7,11.8-100.9,128-108.5,137.2c-7.7,9.2-21.5,23.5-28.1,25.6c-6.6,2-15.4,8.2-4.6,10.8
		c10.8,2.6,22,0,28.2,1.1c6.1,1.1,13.3,2.6,20.9,0.5c4.1-1.1,8.5-1.3,11.8-1.3c0.3,0,0.4,0,0.7,0c0.2,0,0.3,0,0.4,0
		c0.7,0,1.4,0.1,1.9,0.1c0.2,0,0.3,0,0.4,0c0.1,0,0.3,0,0.4,0c0.8,0.1,1.1,0.1,1.1,0.1l0,0l0,0c0,0,0,0.1-0.1,0.3l0,0
		c-0.1,0.3-0.3,0.7-0.4,1.2c-0.9,2.6-1.8,7.6,3.1,8.7c6.6,1.5,11.2-1.5,11.2-1.5l0,0c-0.1,0.4-0.6,4.2,6.2,6.6
		c7.2,2.6,11.7,0.7,16.9,3.1c11.8,5.2,26.1,18.5,30.7,23.5c2.1,2.3,8.9,10.3,17.1,18.3c2.3,2.2,4.7,4.4,7.1,6.5l0,0
		c8.1,7.1,16.6,12.8,22.8,13.1c0.9,0-0.2-0.4-1.8-1.1l0,0c-1.6-0.8-3.6-1.9-4.9-3.7c-2.1-2.7-4.9-6-7.2-9.7c-0.4-0.7-1-1.5-1.4-2.2
		c-1.9-3.2-3.5-6.6-4.2-10c-0.1-0.5-0.2-1-0.3-1.5c-2.7-18.7-1.7-41.2,1.6-64.5c1.4-9.7,3.2-19.6,5.2-29.4
		c2.8-13.4,6.2-26.8,9.7-39.4c12-42.8,26.5-77.9,32.1-84.4c3.2-3.9,0.3-3.2-0.8-5.7c-0.3-0.6-0.4-1.4-0.3-2.5
		c0.5-5.7,5.7-15.2,15.9-14.8c10.8,0.4,42-6.5,65.6-10.7c10.4-1.9,19.4-3.2,24.4-3.1h0.1C392.8,11.8,360.7,3.8,344.1,6.8z"/>
	<path style="fill:none;stroke:#000000;stroke-width:3;stroke-linecap:round;stroke-linejoin:round;stroke-miterlimit:10;" d="
		M145.4,215.4c-0.1,0.3-0.3,0.7-0.4,1.2C145.1,216.1,145.2,215.6,145.4,215.4z"/>
	<path style="fill:none;stroke:#000000;stroke-width:3;stroke-linecap:round;stroke-linejoin:round;stroke-miterlimit:10;" d="
		M145.5,215.1c0,0,0,0.1-0.1,0.3C145.4,215.3,145.5,215.2,145.5,215.1L145.5,215.1z"/>
	<path style="fill:none;stroke:#000000;stroke-width:3;stroke-linecap:round;stroke-linejoin:round;stroke-miterlimit:10;" d="
		M393.7,11.9L393.7,11.9L393.7,11.9L393.7,11.9z"/>
	<path style="fill:none;stroke:#000000;stroke-width:3;stroke-linecap:round;stroke-linejoin:round;stroke-miterlimit:10;" d="
		M378.7,311c-1.4,0.4-2.7,0.8-4,1.1c-1.4,0.5-2.8,1-4.1,1.6c-0.5,0.3-1.1,0.4-1.6,0.7c-0.4,0.2-0.7,0.4-1.1,0.5
		c-3.1,1.6-6.1,3.4-9.9,5.7c-5.2,3.3-12.3-4.6-4.7-8l10.5-4.7l1.1-0.5l7.1-3.2l2-0.9c2.3-1,4.8,0.1,6.2,1.7
		C382.1,307.3,382.4,310.1,378.7,311z"/>
	<path style="fill:none;stroke:#000000;stroke-width:3;stroke-linecap:round;stroke-linejoin:round;stroke-miterlimit:10;" d="
		M543.9,643.5c-5,5.4-33.7,9.2-49.2,17c-15.5,7.8-38.7,30-43,29.3s-4.3-13-4.3-13c0.4-0.3,1.5-1.3,3.1-2.9
		c3.7-3.7,9.9-10.3,14.1-14.7l0,0c2.5-2.7,4.2-4.5,4.2-4.5l3.3,2.2c0,0,42.3-30.8,51.3-31.5C532.3,624.7,548.9,638.1,543.9,643.5z"
		/>
	<path style="fill:none;stroke:#000000;stroke-width:3;stroke-linecap:round;stroke-linejoin:round;stroke-miterlimit:10;" d="
		M144.4,215c0.6,0.1,1.1,0.1,1.1,0.1l0,0C145.5,215.1,145.1,215,144.4,215z"/>
</g>
<g id="Layer_2" style="display:none;">
	<path style="display:inline;" d="M350.9,0c-2.7,0.1-5.3,0.3-7.9,0.8c-6.8,1.2-30,1.9-54.9,6.2s-52.6,12-71.5,29.6
		c-4.2,4-11.6,13-21.8,25.7c-10.3,12.8-22.7,28.7-35,44.5s-24.5,31.6-34,44s-16.7,21.7-18.2,23.5c-3.7,4.4-8.9,10.2-14,14.9
		s-10.7,8.5-11.3,8.7c-4.2,1.3-8.6,3-11.8,7.2c-0.8,1.1-1.7,2.4-2,4.2c-0.4,1.9,0.1,4.2,1.1,5.9c2.1,3.4,5.1,4.4,8.6,5.2
		c6.3,1.5,12.5,1.4,17.5,1.2c5.1-0.2,9.5-0.4,11-0.2c5.9,1,14.2,2.9,23.6,0.4c2.5-0.7,5.4-0.8,8-0.9c0,0.4-0.1,0.8,0,1.2
		c0.5,3.4,3.9,7.9,8.4,8.8c3.7,0.9,6.7,0.6,9.4,0.1c1.8,1.9,4.1,3.7,7.3,4.9c4.4,1.6,8.2,1.9,10.9,1.9c2.7,0.2,4.1,0.3,5.6,1
		c10,4.4,24.7,17.8,28.6,22c0.6,0.6,3.9,4.1,5.3,5.7c-4.2-0.4-7.5-1-11.8,1c-5.7,2.7-10.7,7.5-14.9,12.8c-2.1,2.7-4.1,5.4-5.5,8
		c-1.4,2.7-2.7,5.1-2.7,8.6c0-0.4-0.9,2.6-2.8,5.8c-1.4,2.6-3.1,5.7-4.5,9c-1.9,0.6-3.9,1.3-4.9,1.6c-4,1.1-7,4.2-8.7,7.6
		c-1.1,2.3-1.7,4.9-1.9,7.5c-6,3-12.6,6.4-18.6,9.2c-3.4,1.7-6.7,3.1-9.3,4.2c-2.6,1.1-4.8,1.8-4.9,1.8c-1.3,0.3-3.4-0.4-6.8-1.8
		c-2.5-1.1-9-2.5-14.4-2.5c-12,0.8-32.3,1.7-39.2,4.5c-11.3,4.6-5.3,12.9-4.7,22.1c0.8,11.4-4.2,19.4-2,27.7
		c2.5,9.4,14.3,9.6,20.4,11.3c5.4,1.5,7.8-10,8.6-10.7c2.9-2.6,11,2.2,12.1,5.5c2.1,6.5,2.2,13.2,4.5,13.7s5-0.4,7.2-0.4
		c1.9-0.5,3.3-0.7,6.6-2c2.7-1,5.3-2.2,7.8-3.9c2.5-1.7,5.7-4.1,5.7-8.8c0-2.5-0.4-4.8-0.8-7.7c-0.4-2.9-0.7-6.3-0.7-9.4
		c0-3.2,0.4-6.1,1.1-8.2c0.7-2.1,1.6-3.3,3-4.1c6.5-3.7,19.7-10.6,30.8-16.3c1.1,1.7,2.4,3.3,4,4.7c3.4,2.9,8.8,4.6,13.8,2.7
		c1.9-0.7,4.9-1.8,7.7-2.8c0.6,2.7,2.5,7.7,7.4,10.4c6.2,3.4,11.4,4.8,13.6,5.2c0.9,0.9,1.9,2.1,4.6,4.2c3.4,2.8,7.2,6.5,13.7,6.5
		c4.7,0,11.4-1.4,19.4-3.6c8-2.3,16.3-5.2,22.2-10.1c2.9-2.4,6.5-6.5,10.3-11c1.2,1.9,2.5,4.2,3.6,5.8c2.7,3.8,4.8,6.7,8,8.8
		c8.1,5.6,14.8,16.4,15.2,23.9c0.1,2.6-1.1,7.9-2.5,12.9c-0.6,2.5-1.2,4.9-1.4,7.7c-0.1,2.7,0.4,6.6,3.8,9.2c3.8,2.8,7.7,3.5,11.1,4
		c-0.3,1.1-0.4,2.6-0.7,3.4c-0.5,2.1-1.1,3.4-1,3.3c-0.1,0.1-0.2,0.2-0.4,0.3c-0.7,0.5-1.9,1.2-3.3,2.1c-2.9,1.8-7,4.2-11.8,6.8
		c-9.7,5.4-22.4,12-35.3,18.6c-12.8,6.6-25.7,13.3-35.9,18.2c-5,2.5-9.5,4.6-12.7,6.2c-3.3,1.5-6,2.7-5.6,2.5
		c-4.4,1.3-21.2,7.5-38.8,14.2c-8.8,3.4-17.6,6.7-24.7,9.5c-7.1,2.8-12,4.8-14.9,6.5c-5,2.8-8.2,7.3-8.7,12.3
		c-0.5,4.9,2.7,10.6,8,12.2c1.9,0.5,4.3,1.8,6.2,3.1c1.9,1.2,2.7,3,2.5,1.9c-0.1-0.4-0.4,0.4-0.3,3.8c0.3,3.5,2.7,7.6,7.2,10.7
		c0.8,0.6,5.8,4.9,11.8,10.3c5.9,5.3,13.3,12,20.8,18.6s14.9,13.1,21.4,18.1c3.2,2.5,6.1,4.7,8.7,6.4c2.6,1.7,4.2,3,7.6,3.5
		c0.8,0.2,5.5,1.9,8.7,2.9c-18.7,23.1-36.8,48.7-40.5,54c-0.4-0.4-0.8-0.9-1.2-1.2c-1.3-0.9-2.7-1.6-4.5-2c-1.9-0.4-5.1-0.8-7.9,1.9
		c-1.4,1.4-1.6,2.2-2,3.1c-0.4,0.9-0.7,1.9-1.1,2.8c-0.7,2-1.3,4.4-1.9,6.8c-1.2,4.9-2.2,10-2.6,13.3c0.1-0.8-0.3,1.1-1,3.1
		c-0.7,2-1.6,4.6-2.7,7.7c-2.3,6.2-5.4,14.1-8.8,22.1c-3.4,8-7.1,16.2-10.4,23.1c-3.4,6.9-6.7,12.5-8.2,14.3c-1.8,2.1-2,6.1-1.1,8.2
		c1,2.1,2.3,3.2,3.6,4.2c2.7,1.9,5.7,3.2,9.4,3.8c3.5,0.6,7.6,0.6,11.6-1.1s7.8-5.3,9.5-10.3c2.7-7.9,4.5-19.1,7.3-30.7
		c2.8-11.6,6.7-23.2,12.1-30.7c0.4-0.5,0.6-1.1,0.8-1.6c19-20.6,35.4-48.1,56.7-70.7l0.2-0.2c0,0,0,0,0-0.1h0.1
		c1.8-1.9,3.4-3.7,5.2-5.5c-0.1,0.1,0.2-0.1,0.7-0.6c0.9-0.9,1.7-1.8,2.5-2.5c0,0,0.3-0.2,0.6-0.4l1.1-1c3.8,1.4,7.6,2.8,10.7,3.8
		c4.2,1.3,6.8,2.5,10.5,2.5s7.3-0.8,10.5-2.4c2.8-1.3,5.6-3.5,7-7l6.1-8.6c5.5,1.4,19.2,5.8,34.5,9.7c8,2,16.3,3.9,23.9,4.9
		c7.6,1,14.5,1.4,20.5-0.4c8.1-2.4,17.2-6.5,24.6-10.7c3.6-2.1,6.9-4.2,9.4-6.5c1.2-1.1,2.4-2.3,3.4-3.8c0.6-1,1.1-2.2,1.3-3.6
		l4.7-10.3c6.1,0,12.7,0,19.5-0.4c4-0.3,7.8-0.6,11.4-1.2c-4.2,23.7-4.2,46.4-6.3,68.7c-0.1,0.1-0.1,0.2-0.2,0.2
		c-0.4,0.4-1.4,1-0.1,0.2c-1.9,1.1-3,3.2-3,5.3c0,0,0,3.4,0.6,7.3c0.4,1.9,0.8,4,1.9,6.1s3.2,5,7,5.7c3.5,0.6,4.8-0.5,6.3-1.2
		c1.5-0.8,2.9-1.8,4.6-2.9c3.3-2.3,7.2-5.2,11.2-8.5c8.3-6.5,17.9-13.8,24.7-17.1c6.7-3.4,17.7-6.4,27.4-9c4.9-1.3,9.5-2.6,13.4-3.9
		c4-1.3,7.1-2.3,10.1-5.5c1.6-1.8,2.6-4.2,2.7-6.5c0-2.2-0.6-4.1-1.4-5.7c-1.6-3.2-4-5.7-6.7-8c-5.6-4.7-12.2-8.7-20-8.1
		c-2.7,0.2-4.5,1-6.8,2c-2.3,1.1-4.9,2.4-7.6,4c-5.5,3.1-11.7,7.1-17.6,11c-10,6.6-16.4,11.3-19,13.2c-0.5-0.4-1.1-0.5-1.7-0.7
		c0.4-11.4,3.7-27.3,9.9-46.6c0.6-1.9,1.2-3.9,1.9-5.8c22.4-4.7,47.8-17.3,56-21.8c13.3-7.3,18.2-23.2,18.2-23.2
		c0.6-1.8,0.4-3.7-0.6-5.3c0,0-8.5-14.1-17.5-29.2c-4.5-7.6-9.1-15.5-12.8-22s-6.5-12.1-7-13.3c-2.4-6.1-7.3-12.3-14.1-18
		c-6.7-5.7-15.4-11-25.4-13.8c-7.7-2.2-25.1-10.3-40.5-18.5c-7.7-4.2-15-8.3-20.7-11.8c-4.8-3-7.4-5.1-8.4-5.9
		c0-0.5,0.2-1.1,0.2-1.7c1.4-1,2.9-1.9,4.2-3.2c2.8,2.4,6.1,4.2,10.4,4.1c3.1-0.1,5.9-3,5.9-6.1c4.5-4,20.3-17.9,30-27.6
		c7.5-7.5,14-11.5,17.5-13.5c0.6,0.5,0.7,0.4,1.6,1.4c2.4,2.9,4.5,2.9,6.3,3.1s3.5,0.3,5.5,0.3c3.9-0.1,8.4-0.6,12.9-1.2
		s9-1.3,12.6-1.9c3.6-0.5,7.1-0.9,6.6-0.9c2.4,0,4.2-1.3,5.2-2.3c1-1,1.4-1.9,1.9-2.8c0.8-1.8,1.2-3.4,1.8-5.4
		c0.9-3.9,1.6-8.7,2.1-13.7c1.1-9.9,1.7-19.8,1.7-23.2c0-4.8-2.4-6.7-4.5-9c-2.2-2.3-4.9-4.4-7.8-6.4c-2.9-1.9-6.1-3.5-9.4-4.7
		c-3.3-1.1-6.8-1.9-10.9-0.1c-4.7,2.1-7.9,5.5-9.8,8.4c-1.8-0.6-2.2-0.9-4.8-1.6c-2.7-0.7-5.7-1.3-8.7-1.4s-6.6,0.1-9.7,3.2
		c-2,2-2.5,4-2.8,5.7c-0.4,1.8-0.4,3.6-0.5,5.6c-0.1,3.9,0.3,8.1,0.7,12.4c0.4,4.2,1.1,8.3,1.6,11.6c0.2,1.2,0.4,2.2,0.4,3.1
		c-0.5,0.4-0.9,0.7-1.7,1.2c-2.7,1.9-6.5,4.4-10.9,7.2c-6.7,4.2-14,8.3-20.5,11.9c0.5-2.3,0.7-3.5,0.7-4c0.4-0.9,1.9-4.4,3.4-10
		c1.6-6.3,3.3-14,0.7-21.4c-2.6-7.4-8.7-12.9-15.3-17.8c-2.4-1.8-5-3.2-7.6-4.8c0.8-1.6,1-2.9,0.9-3.7c-0.2-1.9-0.7-2.6-1.1-3.4
		c-0.9-1.8-1.9-3.6-3.3-5.6c-2.7-4-6.1-8.4-8.7-11.4c-1.7-1.9-4.2-3.9-6.5-5.8l0.4,0.1c5.2,1.4,10.5,2.7,15.5,3.4
		c4.9,0.7,9.6,1.1,14.3-0.6c4.9-1.9,8-5.5,11.6-9.8c3.4-4.3,6.9-9.6,10-15c6.3-10.9,11.3-21.9,12.9-29.2c1.1-5.2,0.5-11.2-0.6-20
		c-1.1-8.8-3-19.7-5.5-30.9c-5-22.5-12.3-46.5-22.5-60.4c-7.8-10.7-15.2-32.7-20.2-52.7c-5-20-8-38-8.8-42.5
		c-1-5.5-3.3-9.4-5.8-11.6c-2.3-2.1-4.9-2.9-5.4-3V5.9h-0.7C394.5,5.7,369.9-0.5,350.9,0L350.9,0z M186.9,691.1L186.9,691.1
		c-0.1,0.4-0.4,1.1-1.7,1.9C185.8,692.6,186.3,691.8,186.9,691.1L186.9,691.1z"/>
</g>
</svg>
