<?xml version="1.0" encoding="utf-8"?>
<!-- Generator: Adobe Illustrator 17.0.0, SVG Export Plug-In . SVG Version: 6.00 Build 0)  -->
<!DOCTYPE svg PUBLIC "-//W3C//DTD SVG 1.1//EN" "http://www.w3.org/Graphics/SVG/1.1/DTD/svg11.dtd" [
	<!ENTITY ns_flows "http://ns.adobe.com/Flows/1.0/">
	<!ENTITY ns_extend "http://ns.adobe.com/Extensibility/1.0/">
	<!ENTITY ns_ai "http://ns.adobe.com/AdobeIllustrator/10.0/">
	<!ENTITY ns_graphs "http://ns.adobe.com/Graphs/1.0/">
]>
<svg version="1.1" id="Layer_1" xmlns:x="&ns_extend;" xmlns:i="&ns_ai;" xmlns:graph="&ns_graphs;"
	 xmlns="http://www.w3.org/2000/svg" xmlns:xlink="http://www.w3.org/1999/xlink" xmlns:a="http://ns.adobe.com/AdobeSVGViewerExtensions/3.0/"
	 x="0px" y="0px" width="612px" height="792px" viewBox="0 0 612 792" style="enable-background:new 0 0 612 792;"
	 xml:space="preserve">
<path style="fill:#0D0D0D;" d="M192.7,340.5c16.6-1.9,28.6-12.1,38.6-23.9c18.6-22,30.1-26.2,56.4-16.1
	c10.8,4.1,21.4,14.2,30.1,15.8c14.2,2.6,14.2,14.8,22.7,19.8c5.3,3.1,9.2,10.8,17.1,4.7c2.3-1.8,5.5-0.7,6.1,1.3
	c3.2,11.8,14.2,11.7,22.7,15.5c1.6,1.7,3.2,3.5,3.9-0.6c1.2-1.3,0.7-7.6,4.4-2c7.8,11.8,19.7,14.8,32.5,16.5c2.7,0.4,5.6,1.3,8,2.6
	c32.8,18.5,69.7,17.7,104.6,15.8c39.4-2.2,67.7,45.9,61.8,79.6c-7.8,45.1-43.4,67.2-81.9,77.5c-12.2,3.2-23,5-32.9,13.6
	c-7.9,6.7-19.5,6.1-29.8,7.4c-5.5,0.7-11,1-14.8,5.7c-11.4,0-22.8,0-34.2,0c-4.2-5.1-9.8-14.6-15.2-9.9c-8.8,7.8-18.3,5.9-27.6,7.5
	c-10.3-1.2-20.7-2-30.8-3.7c-4.3-0.7-8.8-0.8-12.2-5.5c-12.1-16.5-28.6-22.2-48.9-20.7c-9.1,0.7-15.1,5.5-20.8,10.5
	c-14.2,12.3-30,12.9-46.6,7.4c-9.2-3.1-17.2-4.7-24.7,3c-1.6,1.6-4.1,2.6-6.2,2.7c-31.7,0.7-63.7,2.2-94.4-6.1
	c-40.5-11-58.5-50.4-42.6-90c1.9-4.8,0.8-8.2-0.4-12.1c-9.4-30.4-0.6-59.4,4.8-89.1c6-33.2,30.7-46,57.3-57.5
	c8.6-3.7,17.6,0.1,25.7,3.8c12.1,5.4,22.6,13.5,33.5,20.9c4.2,2.9,7.9,6.6,13.5,6.2C179.3,343.2,186.1,344.6,192.7,340.5z
	 M586.2,479.8c-28,23.5-61.6,30.6-96.7,34.1c-36.9,3.6-74.3,6.2-110.2-3.3c-44.9-12-90-19.5-136.4-19.7c-2.3,0-4.7-0.8-6.9-1.4
	c-34.8-8.4-56.9-7.5-87.6,2.7c-10.3,3.5-20.6,7.3-31.1,9c-21.6,3.3-43.3,1.8-64.4-3.8c-2.9-0.7-6.8-1.8-4.5-6.2
	c1.4-2.9,3.9-3.1,7.2-1.7c15.3,6.9,31.7,3.7,47.7,4.5c15.1,0.8,28.2-5.7,42-10.3c-33.1-0.8-66.1,0.5-97.8-9.7
	c-1.1,4.7-2.7,8.7-3,12.8c-1.2,17.9-3.7,38,11.6,50.1c14,11,31.4,18.6,50.6,19c13.3,0.2,26.4,0.8,39.7,2.2
	c10.9,1.1,22.7,2.4,32.9-4.4c9-6,17.9-6.6,28.1-2.7c14.3,5.4,28.2,5.5,40.9-5.7c19.1-17,39.8-14.7,61.8-4.7
	c14.1,6.6,22.7,23,42,20.8c12.6-1.3,25.8,5,37.3-5.6c5.3-4.9,10.6-0.8,15.5,2c3.6,2.2,5.5,6.9,10.2,7.2c23.3,1.1,47.2-1.8,67.2-12.1
	c13.3-6.8,25.9-10.4,39.7-14.7c28.3-8.8,56.8-21.9,67.3-54.6c1.8-1.7,2.6-4.2,1.1-5.7C588.5,476.3,587.1,478.5,586.2,479.8z
	 M119.8,353.4c-2.7-11.5-10.4-19-15.5-27.9c-1.4-2.5-3.3-4.8-6.8-3.6c-14.1,5.4-31.2,9.7-37.2,23.9c-12.8,30.2-22.8,62.2-18.2,95.9
	c1.8,12.9,5.9,27,23.4,28.9c17.8,2,35.6,3.6,53.7,3.5c25.1-0.4,50.2,0.7,75.3,1.6c24.9,0.8,48.9,10.6,74,6c0.1-0.7,0.4-1.4,0.1-1.6
	c-33.3-21.2-70.2-36.6-99.4-63.9c-1.9-1.8-3.9-2-6.5-1.4c-28.2,6.5-57,6.2-85.7,7.9c-16.5,1.1-20.2-4.3-16.3-20.3
	C67.8,373.1,86.9,357.2,119.8,353.4z M371.9,396.2c-0.6-18.6-0.6-18.4-19-16.3c-5.6,0.6-11.4,0.1-17.1,0.2
	c-33.9,1.1-63.8,14.1-92.4,31c-9.7,5.7-9.9,12.8-0.8,20c7.1,5.5,14.2,10.3,22.1,14.7c22.4,12.4,46.7,18.6,70.6,26.4
	c21,6.9,42.4,11.5,64.8,8.8c-7.6-3.9-15.5-6.6-23.2-9.9c-16.9-7.3-21.8-16.4-16.9-33.7c3.6-12.4,13.3-21.6,19.8-32.4
	c3.1-5.1,12.3-10.2,7.3-15.8c-4.7-5.3-6.8,7.2-12.7,6.7C373.7,396.1,372.7,396.2,371.9,396.2z M499.8,448.5c1.3-4.8,5.1-4.9,7.5-6.8
	c16.4-12.3,38.7-12.1,54.3-25.9c3-2.6,10.2-2.7,8.1-7.9c-1.7-4.2-7.4-7.3-12.7-7.5c-23-1.2-45.9-5.4-69.1-2.4
	c4.4,20.3,3.1,21.9-17.8,22.1c-5.3,0-10.4,0-15.7,0.1c-15.5,0.2-29.4,6.1-42.8,13.4c-6.5,3.5-9.1,8.8-9.4,16.3
	c-0.4,8.6,6.9,7.5,11.4,10c18.5,10.6,39.3,11.4,59.6,15.4c24.4,4.9,48.9,10,73.3,15.2c8.8,1.9,16.3-2.4,19.2-8.4
	c3.1-6.2-6.1-7.2-10-10.4c-5.1-4.3-11.8-5.7-17.3-9.1C526.5,455.3,511.5,456,499.8,448.5z M222.6,349.6c17.5,1.8,31.1,3.5,44.6,4.5
	c6,0.5,10.4,2.4,10.8,8.8c0.4,5.7-3.8,7.4-8.8,9.1c-28.1,9.3-57,15.8-84.1,27.9c-4.3,1.9-11.1,2.2-11.7,6.5c-0.7,5,5.6,8,9.4,11.1
	c25,20.3,54.5,33.5,81.4,50.7c29.5,18.8,64.3,19.7,96.8,28.4c9,2.4,17.6,5.6,26.5,8.2c9.4,2.7,14.2-5.5,20.8-9.6
	c1.2-0.7,2.2-4.3,1.6-4.9c-5.1-4.8-10.3,2.6-15.8,0.5c-2-0.8-4.7,0.1-7.1,0c-22.7-1.1-44.3-7.6-65.9-14.2
	c-30.6-9.3-61-19.2-85.6-40.9c-10.3-9-10.4-22.8,0.7-30.1c25-16.3,52.5-27,82-32c13.6-2.4,28,2,43.3-5.5c-5.7-3.2-7.5-10.6-14.6-3.5
	c-2.9,2.9-9.6,2.4-9.4-1c0.4-10.4-9-5.5-12.4-9.3c-5.9-6.6-16.3,1.4-22.5-8.2c-10.8-17-36.2-22-54.6-13.4
	C239.8,336.6,233.3,342.7,222.6,349.6z M531.9,498c-2.4-5-6.2-3.1-9.2-3.9c-36.9-10.8-76.6-9.4-112.4-26.2
	c-8.4-3.9-16.9-6.2-16.5-17.8c0.2-11.5,5.5-19.5,15.8-24.7c12.9-6.5,25.8-12.4,42.7-12.4c-22.4-8.6-1.6-15.2-1.2-23.1
	c-15.2-9.7-33.2-10.6-53.5-17c5,4.8,7.4,6.7,9.4,9c3.9,4.5,6.3,9.9,3.6,15.7c-3.1,6.6-7.4,2.6-11.6,0.5c-2.6-1.4-3.9,0.4-5.4,2.6
	c-7.9,11.7-16.9,23-23.8,35.1c-7.2,12.6-3,22.4,10.2,28.3c5.1,2.4,10.3,5.1,15.7,6.2c8.7,1.7,17,3.7,20.6,12.7
	c3.6,8.8,0.8,17-5.9,24.6c21.4,1.1,41.2,1.7,61.2-0.4C491.8,505,512,503.9,531.9,498z M268.8,362.7c-16.1-2-29.8-3.2-43.2-5.5
	c-7.4-1.3-13.3-1-19.2,4.3c-23.7,20.6-48.8,18.9-74.1,3.5c-3.9-2.4-7.7-2.9-12-2.7c-27.9,1.3-46.7,17.3-52.6,44.3
	c-0.8,4.1-1.9,8.2,3.9,8c28.7-1.2,57.6-1.8,85.9-6.7c7.3-1.2,9.9-11.1,17.6-13.6C205.7,384,236.2,373.8,268.8,362.7z M518.3,446
	c20.2,7.1,38.5,14,53.8,26.4c2.3,1.9,3.7,3.6,7.2,1.4c13.7-8.7,18-21.6,11.2-36.8c-2.3-5.1-5.7-9.7-8-14.8
	c-2.6-5.9-5.1-6.7-10.5-2.5c-11.1,8.7-23.5,15.2-37.8,17.8C529,438.4,524.6,442.5,518.3,446z M211.2,345.9c-3.5,0-5.6-0.6-7.2,0.1
	c-22,10-40.6,4.4-58.9-10c-9.7-7.6-20.1-15.9-34.3-17.7C137,377.7,178.1,381.2,211.2,345.9z M235.7,329.1
	c16.3-14.8,39.8-2.2,56.9-16C267,297.1,251,301.5,235.7,329.1z M481.8,411.4c-0.6-9.3-3.5-16.6-12.2-16.1c-8.4,0.5-8.7,10-14,16.1
	C465.2,411.4,473,411.4,481.8,411.4z"/>
<path style="fill:#FDFDFD;" d="M365.5,571.4c9.3-1.7,18.8,0.1,27.6-7.5c5.4-4.7,11,4.8,15.2,9.9c-14.2,0-28.4,0-42.8,0
	C365.5,572.9,365.5,572.2,365.5,571.4z"/>
<path style="fill:#FDFDFD;" d="M192.7,340.5c-6.6,4.1-13.4,2.6-20.2,1C179.1,336.6,185.8,336.2,192.7,340.5z"/>
<path style="fill:#FDFDFD;" d="M390.5,357.2c-0.7,3.9-2.4,2.2-3.9,0.6C387.9,357.5,389.2,357.4,390.5,357.2z"/>
<path style="fill:#0D0D0D;" d="M104.8,543.7c-5.9-0.8-15.2-1.2-24.5-3.6c-13.9-3.5-14.8-13.5-12.8-24c2.2-11.7,11.5-11.8,21.3-10
	c6.5,1.2,13,1.7,19.6,1.9c15.9,0.5,23.4,5.6,23.1,16.1C130.8,542.8,127.7,545.4,104.8,543.7z M108.1,536.6c6.5-0.5,14.7,3.1,15.1-9
	c0.4-11.1-6.5-10.5-13.9-11c-8-0.5-15.9-2-23.9-2.4c-3.7-0.1-9.3-2.5-10.3,4.1c-0.8,5.7-0.7,11.4,6.7,13.6
	C90.5,534.4,99.1,536.7,108.1,536.6z"/>
</svg>
