<?xml version="1.0" encoding="utf-8"?>
<!-- Generator: Adobe Illustrator 17.0.0, SVG Export Plug-In . SVG Version: 6.00 Build 0)  -->
<!DOCTYPE svg PUBLIC "-//W3C//DTD SVG 1.1//EN" "http://www.w3.org/Graphics/SVG/1.1/DTD/svg11.dtd" [
	<!ENTITY ns_flows "http://ns.adobe.com/Flows/1.0/">
	<!ENTITY ns_extend "http://ns.adobe.com/Extensibility/1.0/">
	<!ENTITY ns_ai "http://ns.adobe.com/AdobeIllustrator/10.0/">
	<!ENTITY ns_graphs "http://ns.adobe.com/Graphs/1.0/">
]>
<svg version="1.1" id="Layer_1" xmlns:x="&ns_extend;" xmlns:i="&ns_ai;" xmlns:graph="&ns_graphs;"
	 xmlns="http://www.w3.org/2000/svg" xmlns:xlink="http://www.w3.org/1999/xlink" xmlns:a="http://ns.adobe.com/AdobeSVGViewerExtensions/3.0/"
	 x="0px" y="0px" width="612px" height="792px" viewBox="0 0 612 792" style="enable-background:new 0 0 612 792;"
	 xml:space="preserve">
<g>
	<path style="fill:none;stroke:#010101;stroke-width:4;stroke-linecap:round;stroke-linejoin:round;" d="M156.1,399.4
		c-10.7-21.9-8.2-46.9,4.9-56.2c13.4-9.1,32.9,1.1,43.3,22.8c10.7,21.9,8.2,46.9-4.9,56.2C186.3,431.5,166.8,421.4,156.1,399.4z"/>
	<path style="fill:none;stroke:#010101;stroke-width:4;stroke-linecap:round;stroke-linejoin:round;" d="M214.8,231.8
		c0-11.5,9.3-20.8,20.8-20.8c11.5,0,20.6,9.3,20.6,20.8s-9.3,20.8-20.6,20.8C223.8,252.7,214.8,243.3,214.8,231.8z"/>
	<path style="fill:none;stroke:#010101;stroke-width:4;stroke-linecap:round;stroke-linejoin:round;" d="M330,231.8
		c0-11.5,9.3-20.8,20.8-20.8c11.5,0,20.6,9.3,20.6,20.8s-9.3,20.8-20.6,20.8C339.3,252.7,330,243.3,330,231.8z"/>
	<path style="fill:none;stroke:#010101;stroke-width:4;stroke-linecap:round;stroke-linejoin:round;" d="M410.7,525.6
		c-2.7,6.6-25.8,18.1-32.6,17.3c-7.1-1.1-48.8-35.4-31.3-38.4c18.7-3,42-16.2,51.3-27.4C407.9,465.8,413.7,518.5,410.7,525.6z"/>
	<path style="fill:none;stroke:#010101;stroke-width:4;stroke-linecap:round;stroke-linejoin:round;" d="M396.1,366.2
		c10.7-21.9,30.2-32.1,43.3-22.8c13.4,9.1,15.6,34.3,4.9,56.2c-10.7,21.9-30.2,32.1-43.3,23C387.9,413.1,385.4,387.9,396.1,366.2z"
		/>
	<path style="fill:none;stroke:#010101;stroke-width:4;stroke-linecap:round;stroke-linejoin:round;" d="M603.8,422.5
		c0,67.8-22.5,130.3-60.3,180.5c-46.6,62-116.6,105.3-196.7,116.9c-14.3,2.2-28.8,3-43.3,3c-14.8,0-29.4-1.1-43.6-3
		C179.4,708.3,109.5,665,63.1,603C25.2,552.8,2.7,490.2,2.7,422.5c0-78.7,30.2-150.6,79.8-204.1c-4.1,16.7-6.9,34.3-8.2,52.4
		c-28.8,30.2-45.5,66.7-45.5,105.6C28.8,481.7,150.3,567,300.4,567s271.6-85.3,271.6-190.6c0-39.2-16.7-75.4-45.5-105.6
		c-1.6-20.8-4.9-41.1-10.4-60.6C570.3,264.5,603.8,339.6,603.8,422.5z"/>
</g>
<g>
	<g>
		<path style="fill:none;stroke:#010101;stroke-width:4;stroke-linecap:round;stroke-linejoin:round;" d="M259.8,719.8
			c-11,42.5-56,48.3-110,48.3H147c-1.1,0-2.2,0-3.6,0C84.2,767.6,37,758.2,37,697.9c0-34,5.8-71.6,26.1-95.2
			C109.5,665,179.4,708.3,259.8,719.8z"/>
		<path style="fill:none;stroke:#010101;stroke-width:4;stroke-linecap:round;stroke-linejoin:round;" d="M237.3,733.3
			c4.4,16.7-9.1,22.8-26.1,27.4c-17,4.7-31.8,6.3-36.2-10.7c-4.4-16.7,5.8-34.3,23-38.7C215.1,706.4,232.9,716.3,237.3,733.3z"/>
		<path style="fill:none;stroke:#010101;stroke-width:4;stroke-linecap:round;stroke-linejoin:round;" d="M123.7,751.4
			c-4.4,16.7-19.2,15.1-36.2,10.7c-17.3-4.7-30.7-10.4-26.1-27.4c4.4-16.7,22.2-26.6,39.5-21.9C117.7,717.1,128.1,734.6,123.7,751.4
			z"/>
		<path style="fill:none;stroke:#010101;stroke-width:4;stroke-linecap:round;stroke-linejoin:round;" d="M179.1,748.6
			c0,17.3-14.5,19.8-32.4,19.8s-32.4-2.2-32.4-19.8c0-17.3,14.5-31.5,32.4-31.5C164.9,717.1,179.1,731.1,179.1,748.6z"/>
	</g>
	<path style="fill:none;stroke:#010101;stroke-width:4;stroke-linecap:round;stroke-linejoin:round;" d="M569.5,698.2
		c0,61.2-48.6,70-109.2,70.2c-1.1,0-2.2,0-3.3,0s-2.2,0-3.3,0c-52.7-0.3-96-6.9-107-48.3c80.4-11.5,150.3-54.9,196.7-116.9
		C563.7,626.3,569.5,664.1,569.5,698.2z"/>
	<g>
		<path style="fill:none;stroke:#010101;stroke-width:4;stroke-linecap:round;stroke-linejoin:round;" d="M547.3,733.3
			c4.4,16.7-9.1,22.8-26.1,27.4c-17,4.7-31.8,6.3-36.2-10.7c-4.4-16.7,5.8-34.3,23-38.7C525,706.4,542.9,716.3,547.3,733.3z"/>
		<path style="fill:none;stroke:#010101;stroke-width:4;stroke-linecap:round;stroke-linejoin:round;" d="M433.7,751.4
			c-4.4,16.7-19.2,15.1-36.2,10.7c-17.3-4.7-30.7-10.4-26.1-27.4c4.4-16.7,22.2-26.6,39.5-21.9C427.7,717.1,438.1,734.6,433.7,751.4
			z"/>
		<path style="fill:none;stroke:#010101;stroke-width:4;stroke-linecap:round;stroke-linejoin:round;" d="M489.1,748.6
			c0,17.3-14.5,19.8-32.4,19.8c-17.8,0-32.4-2.2-32.4-19.8c0-17.3,14.5-31.5,32.4-31.5C474.8,717.1,489.1,731.1,489.1,748.6z"/>
	</g>
</g>
<path style="fill:none;stroke:#010101;stroke-width:4;stroke-linecap:round;stroke-linejoin:round;" d="M526.4,270.8
	c-1.6-20.8-4.9-41.1-10.4-60.6c-4.7-17-10.7-33.5-18.1-48.8c17.6-13.2,29.4-36.5,29.4-63.1c0-41.1-28-74.3-62.5-74.3
	c-22.2,0-41.7,14-52.9,34.8C378.8,36.5,341,23.9,300.4,23.9s-78.5,12.6-111.6,34.8c-11-20.8-30.4-34.8-52.7-34.8
	c-34.6,0-62.5,33.2-62.5,74.3c0,26.6,11.8,49.9,29.4,63.1c-8.5,17.8-15.4,37-20.3,57.1c-4.1,16.7-6.9,34.3-8.2,52.4
	c-28.8,30.2-45.5,66.7-45.5,105.6C28.8,481.7,150.3,567,300.4,567s271.6-85.3,271.6-190.6C571.9,337.4,555.2,300.9,526.4,270.8z
	 M114.1,136.4c-9.9-7.4-16.5-20.6-16.5-35.4c0-23,15.9-42,35.1-42c12.6,0,23.6,8,29.6,19.5C143.5,94.1,127,113.6,114.1,136.4z
	 M199.7,422.2c-13.4,9.1-32.9-1.1-43.3-23c-10.7-21.9-8.2-46.9,4.9-56.2c13.4-9.1,32.9,1.1,43.3,22.8
	C215.3,387.9,212.9,413.1,199.7,422.2z M235.4,252.7c-11.5,0-20.8-9.3-20.8-20.8s9.3-20.8,20.8-20.8s20.6,9.3,20.6,20.8
	C256.2,243.3,246.9,252.7,235.4,252.7z M330,231.8c0-11.5,9.3-20.8,20.8-20.8c11.5,0,20.6,9.3,20.6,20.8s-9.3,20.8-20.6,20.8
	C339.3,252.7,330,243.3,330,231.8z M410.7,525.6c-2.7,6.6-25.8,18.1-32.6,17.3c-7.1-1.1-48.8-35.4-31.3-38.4
	c18.7-3,42-16.2,51.3-27.4C407.9,465.8,413.7,518.5,410.7,525.6z M444.7,399.4c-10.7,21.9-30.2,32.1-43.3,23
	c-13.4-9.3-15.6-34.3-4.9-56.2c10.7-21.9,30.2-32.1,43.3-22.8C452.9,352.5,455.1,377.5,444.7,399.4z M481.4,136.4
	c-12.9-22.8-29.4-42.5-48.6-57.9c6.3-11.8,17.3-19.5,29.6-19.5c19.5,0,35.4,18.7,35.4,42C497.9,115.8,491.3,129,481.4,136.4z"/>
<path style="fill:none;stroke:#010101;stroke-width:4;stroke-linecap:round;stroke-linejoin:round;" d="M162.7,78.5
	c-19.2,15.4-35.7,35.1-48.6,57.9c-9.9-7.4-16.5-20.6-16.5-35.4c0-23,15.9-42,35.1-42C145.7,59,156.6,67,162.7,78.5z"/>
<path style="fill:none;stroke:#010101;stroke-width:4;stroke-linecap:round;stroke-linejoin:round;" d="M204.6,366.2
	c10.7,21.9,8.2,46.9-4.9,56.2c-13.4,9.1-32.9-1.1-43.3-23c-10.7-21.9-8.2-46.9,4.9-56.2C174.7,334.1,193.9,344.3,204.6,366.2z"/>
<path style="fill:none;stroke:#010101;stroke-width:4;stroke-linecap:round;stroke-linejoin:round;" d="M256.2,231.8
	c0,11.5-9.3,20.8-20.6,20.8c-11.5,0-20.8-9.3-20.8-20.8s9.3-20.8,20.8-20.8C246.9,211,256.2,220.3,256.2,231.8z"/>
<path style="fill:none;stroke:#010101;stroke-width:4;stroke-linecap:round;stroke-linejoin:round;" d="M350.6,252.7
	c-11.5,0-20.8-9.3-20.8-20.8s9.3-20.8,20.8-20.8c11.5,0,20.6,9.3,20.6,20.8C371.4,243.3,362.1,252.7,350.6,252.7z"/>
<path style="fill:none;stroke:#010101;stroke-width:4;stroke-linecap:round;stroke-linejoin:round;" d="M410.7,525.6
	c-2.7,6.6-25.8,18.1-32.6,17.3c-7.1-1.1-48.8-35.4-31.3-38.4c18.7-3,42-16.2,51.3-27.4C407.9,465.8,413.7,518.5,410.7,525.6z"/>
<path style="fill:none;stroke:#010101;stroke-width:4;stroke-linecap:round;stroke-linejoin:round;" d="M444.7,399.4
	c-10.7,21.9-30.2,32.1-43.3,23c-13.4-9.3-15.6-34.3-4.9-56.2c10.7-21.9,30.2-32.1,43.3-22.8C452.9,352.5,455.1,377.5,444.7,399.4z"
	/>
<path style="fill:none;stroke:#010101;stroke-width:4;stroke-linecap:round;stroke-linejoin:round;" d="M497.9,101
	c0,14.8-6.6,28-16.5,35.4c-12.9-22.8-29.4-42.5-48.6-57.9c6.3-11.8,17.3-19.5,29.6-19.5C482.2,59,497.9,77.7,497.9,101z"/>
<g>
	<path style="fill:none;stroke:#010101;stroke-width:4;stroke-linecap:round;stroke-linejoin:round;" d="M444.7,399.4
		c-10.7,21.9-30.2,32.1-43.3,23c-13.4-9.3-15.6-34.3-4.9-56.2c10.7-21.9,30.2-32.1,43.3-22.8C452.9,352.5,455.1,377.5,444.7,399.4z"
		/>
	<path style="fill:none;stroke:#010101;stroke-width:4;stroke-linecap:round;stroke-linejoin:round;" d="M199.7,422.2
		c-13.4,9.1-32.9-1.1-43.3-23c-10.7-21.9-8.2-46.9,4.9-56.2c13.4-9.1,32.9,1.1,43.3,22.8C215.3,387.9,212.9,413.1,199.7,422.2z"/>
</g>
<g>
	<path style="fill:none;stroke:#010101;stroke-width:4;stroke-linecap:round;stroke-linejoin:round;" d="M497.9,101
		c0,14.8-6.6,28-16.5,35.4c-12.9-22.8-29.4-42.5-48.6-57.9c6.3-11.8,17.3-19.5,29.6-19.5C482.2,59,497.9,77.7,497.9,101z"/>
	<path style="fill:none;stroke:#010101;stroke-width:4;stroke-linecap:round;stroke-linejoin:round;" d="M162.7,78.5
		c-19.2,15.4-35.7,35.1-48.6,57.9c-9.9-7.4-16.5-20.6-16.5-35.4c0-23,15.9-42,35.1-42C145.7,59,156.6,67,162.7,78.5z"/>
</g>
<path style="fill:none;stroke:#010101;stroke-width:4;stroke-linecap:round;stroke-linejoin:round;" d="M371.4,231.8
	c0,11.5-9.3,20.8-20.6,20.8c-11.5,0-20.8-9.3-20.8-20.8s9.3-20.8,20.8-20.8C362.1,211,371.4,220.3,371.4,231.8z"/>
<path style="fill:none;stroke:#010101;stroke-width:4;stroke-linecap:round;stroke-linejoin:round;" d="M256.2,231.8
	c0,11.5-9.3,20.8-20.6,20.8c-11.5,0-20.8-9.3-20.8-20.8s9.3-20.8,20.8-20.8C246.9,211,256.2,220.3,256.2,231.8z"/>
<path style="fill:none;stroke:#010101;stroke-width:4;stroke-linejoin:round;" d="M410.7,525.6c-2.7,6.6-25.8,18.1-32.6,17.3
	c-7.1-1.1-48.8-35.4-31.3-38.4c18.7-3,42-16.2,51.3-27.4C407.9,465.8,413.7,518.5,410.7,525.6z"/>
</svg>
