<?xml version="1.0" encoding="utf-8"?>
<!-- Generator: Adobe Illustrator 17.0.0, SVG Export Plug-In . SVG Version: 6.00 Build 0)  -->
<!DOCTYPE svg PUBLIC "-//W3C//DTD SVG 1.1//EN" "http://www.w3.org/Graphics/SVG/1.1/DTD/svg11.dtd" [
	<!ENTITY ns_flows "http://ns.adobe.com/Flows/1.0/">
	<!ENTITY ns_extend "http://ns.adobe.com/Extensibility/1.0/">
	<!ENTITY ns_ai "http://ns.adobe.com/AdobeIllustrator/10.0/">
	<!ENTITY ns_graphs "http://ns.adobe.com/Graphs/1.0/">
]>
<svg version="1.1" id="Layer_1" xmlns:x="&ns_extend;" xmlns:i="&ns_ai;" xmlns:graph="&ns_graphs;"
	 xmlns="http://www.w3.org/2000/svg" xmlns:xlink="http://www.w3.org/1999/xlink" xmlns:a="http://ns.adobe.com/AdobeSVGViewerExtensions/3.0/"
	 x="0px" y="0px" width="612px" height="792px" viewBox="0 0 612 792" style="enable-background:new 0 0 612 792;"
	 xml:space="preserve">
<g id="BG">
</g>
<g id="Icon">
	<g>
		<path style="fill:none;stroke:#272525;stroke-width:8;stroke-miterlimit:10;" d="M284.8,349.1H90.1c-10.1,0-18.3,7.5-18.3,16.7
			v177.5c0,9.2,8.2,16.7,18.3,16.7h194.7c10.1,0,18.3-7.5,18.3-16.7V365.8C303.2,356.6,294.9,349.1,284.8,349.1z M200.6,454v38.6
			c0,7.3-5.9,13.2-13.2,13.2c-7.3,0-13.2-5.9-13.2-13.2V454c-10-4.9-16.9-15.1-16.9-26.9c0-16.6,13.5-30,30-30
			c16.6,0,30.1,13.5,30.1,30C217.5,438.9,210.6,449.1,200.6,454z"/>
		<path style="fill:none;stroke:#272525;stroke-width:8;stroke-miterlimit:10;" d="M129,334.1v-54.3c0-31.6,25.7-57.4,57.4-57.4
			s57.4,25.7,57.4,57.4v54.3h36.4v-54.3c0-51.7-42.1-93.8-93.8-93.8s-93.8,42.1-93.8,93.8v54.3H129z"/>
	</g>
	<g>
		<path style="fill:none;stroke:#272525;stroke-width:8;stroke-miterlimit:10;" d="M450,210.4c-14.5,1-28.2,8.5-37.2,20.4
			c-2.8,3.7-4.4,6.5-7,12c-1.4,3-3.1,8.9-3.8,14c-0.4,2.3-0.6,7.7-0.4,10.5c0.7,12.4,5,23.4,12.7,32.8c5.5,6.6,13.1,12.2,20.8,15.1
			c1.5,0.5,2.8,1.1,3.1,1.2c0.4,0.2,0.4,0.4-0.8,107.7l-1.3,107.6l0.5,1c0.6,1.1,1.9,2.2,3.3,2.6c0.7,0.2,3.4,0.3,9.7,0.3
			c8.4,0.1,8.7,0,9.7-0.5c1.9-1,2.7-2.4,2.9-5l0.2-1.8l14.9,0.2l14.9,0.2l0.1-8.7l0.1-8.7l-6.7-0.1l-6.7-0.1l0.1-5l0.1-4.9h4.3h4.2
			l0-6.2l0.1-6.2l-12.5-0.2l-12.5-0.2l1.1-85.7l1.1-85.7l2.1-0.6c17.2-5,30.8-18.8,35.9-36.5c2-6.8,2.7-14.8,1.9-21.8
			c-2-18.2-12.5-34.1-28.2-42.4c-5.7-3.1-12.1-4.9-19-5.5C454.3,210.2,453.6,210.2,450,210.4z M459.3,232.2
			c11,2.5,19.9,10.5,23.7,21.3c5.5,15.7-1,33.2-15.1,41.1c-12.9,7.2-29,4.3-38.7-7c-5.6-6.5-8.4-14.2-8.3-22.8
			c0.1-9.3,3.6-17.6,9.9-23.8c2.8-2.8,4.9-4.3,7.9-5.8c3.5-1.8,6.3-2.7,10.1-3.3C451.1,231.4,456.9,231.7,459.3,232.2z"/>
	</g>
</g>
</svg>
