<?xml version="1.0" encoding="utf-8"?>
<!-- Generator: Adobe Illustrator 17.0.0, SVG Export Plug-In . SVG Version: 6.00 Build 0)  -->
<!DOCTYPE svg PUBLIC "-//W3C//DTD SVG 1.1//EN" "http://www.w3.org/Graphics/SVG/1.1/DTD/svg11.dtd" [
	<!ENTITY ns_flows "http://ns.adobe.com/Flows/1.0/">
	<!ENTITY ns_extend "http://ns.adobe.com/Extensibility/1.0/">
	<!ENTITY ns_ai "http://ns.adobe.com/AdobeIllustrator/10.0/">
	<!ENTITY ns_graphs "http://ns.adobe.com/Graphs/1.0/">
]>
<svg version="1.1" id="Layer_1" xmlns:x="&ns_extend;" xmlns:i="&ns_ai;" xmlns:graph="&ns_graphs;"
	 xmlns="http://www.w3.org/2000/svg" xmlns:xlink="http://www.w3.org/1999/xlink" xmlns:a="http://ns.adobe.com/AdobeSVGViewerExtensions/3.0/"
	 x="0px" y="0px" width="612px" height="792px" viewBox="0 0 612 792" style="enable-background:new 0 0 612 792;"
	 xml:space="preserve">
<path style="fill:#333333;" d="M110.9,332.2l3.9-5.2l-7.1-0.2c-9,0.1-17.7,1.9-26,5.4c-6.6,2.8-12.6,6.5-18,11.2l5.7,1.8
	C69.4,345.3,110.9,332.2,110.9,332.2z M48,373.8l-3.2-4.4l-0.5,1.3v0.1c-3.2,8.3-4.7,16.9-4.6,26c0.1,8.7,1.8,17.1,5.1,25.1l2.5-3.4
	C47.4,418.3,48,373.8,48,373.8z M55.5,344l3.6-3.5c0.1,0,0.1,0,0.1-0.1c6.2-5.5,13-9.7,20.5-12.9v-0.1c8.9-3.7,18.2-5.7,27.9-5.7
	c3.1-0.1,6.2,0.1,9.3,0.4c6.4,0.7,12.6,2.3,18.6,4.5c3.7,1.5,7.3,3.2,10.7,5.2c5.2,3.1,10,6.6,14.2,10.8
	c7.2,7.1,12.7,15.2,16.6,24.4v-0.1c1.9,4.7,3.3,9.4,4.4,14.3c0.9,4.4,1.3,8.9,1.5,13.5c0.1,6.1-0.6,12.1-1.9,17.9
	c-0.7,3.4-1.8,6.8-3.1,10.1v0.1c-3.6,9.2-8.9,17.4-16,24.6c-4.9,5-10.4,9.3-16.4,12.8c-2.5,1.5-5.1,2.8-7.8,3.9
	c-7.5,3.1-15.2,4.9-23.2,5.6l-4.9,0.1c-9.7,0.1-19-1.5-28-5h-0.1c-8.1-3.1-15.4-7.6-22-13.4h-0.1l-2.6-2.4
	c-7.1-6.8-12.5-14.8-16.3-23.8l-0.1-0.4v-0.1l-0.1-0.1c-3.7-8.8-5.6-18-5.8-27.8c-0.1-9.7,1.5-19,4.9-28v-0.1l1.3-2.9h-0.1
	C44.2,357.7,49.1,350.4,55.5,344L55.5,344z M111.6,378.7l8.6-26.1L109.8,338l-36.3,11.5l-0.3,17.7l21.7,16.9L111.6,378.7
	L111.6,378.7z M142,348.9l-16.9,5.3l-8.7,26.2l10.1,14.2l27.6-0.6l10.7-14.3L142,348.9L142,348.9z M144.8,337l-0.1,7l26.1,35
	l5.2,1.7c-0.9-4-2.2-7.9-3.8-11.7V369c-3.6-8.6-8.7-16.1-15.3-22.7C153.1,342.6,149.1,339.6,144.8,337L144.8,337z M53.2,376.7
	l-0.6,39l16.8,5.7L92,405.5l0.1-17.2l-21.8-16.9L53.2,376.7L53.2,376.7z M173,420.9L173,420.9c1-2.7,1.9-5.4,2.5-8l-5.5,1.7
	l-25.7,36.4l-0.1,3.9c5-3.1,9.6-6.8,13.7-11v-0.1C164.6,437.1,169.5,429.4,173,420.9z M154,399.1l-27.5,0.6l-10.2,14l8.7,26.2
	l16.9,5.7l22.5-31.8L154,399.1L154,399.1z M67.8,447.5l-3.5,1.1c5.7,4.9,12.2,8.7,19.3,11.4c8.3,3.2,17,4.8,26,4.7l3-0.1l-2.3-3.3
	L67.8,447.5L67.8,447.5z M111.4,415.2l-16.4-5.5l-22.5,15.9l-0.2,17.9l37.1,12.1l10.8-14.3L111.4,415.2L111.4,415.2z"/>
</svg>
