<?xml version="1.0" encoding="utf-8"?>
<!-- Generator: Adobe Illustrator 17.0.0, SVG Export Plug-In . SVG Version: 6.00 Build 0)  -->
<!DOCTYPE svg PUBLIC "-//W3C//DTD SVG 1.1//EN" "http://www.w3.org/Graphics/SVG/1.1/DTD/svg11.dtd" [
	<!ENTITY ns_flows "http://ns.adobe.com/Flows/1.0/">
	<!ENTITY ns_extend "http://ns.adobe.com/Extensibility/1.0/">
	<!ENTITY ns_ai "http://ns.adobe.com/AdobeIllustrator/10.0/">
	<!ENTITY ns_graphs "http://ns.adobe.com/Graphs/1.0/">
]>
<svg version="1.1" id="Layer_1" xmlns:x="&ns_extend;" xmlns:i="&ns_ai;" xmlns:graph="&ns_graphs;"
	 xmlns="http://www.w3.org/2000/svg" xmlns:xlink="http://www.w3.org/1999/xlink" xmlns:a="http://ns.adobe.com/AdobeSVGViewerExtensions/3.0/"
	 x="0px" y="0px" width="612px" height="792px" viewBox="0 0 612 792" style="enable-background:new 0 0 612 792;"
	 xml:space="preserve">
<path style="fill:none;stroke:#000000;stroke-width:3;stroke-miterlimit:10;" d="M92,652c0-2.3,0-4.7,0-7c2.9-3.5,3-7.9,3.8-12
	c10.1-51.5,25-101.9,39-152.4c9.2-33.3,23.7-64.6,37.8-96c13.7-30.3,32.5-57.2,52.5-83.5c3.3-4.3,6.5-8.4,7.6-13.6
	c2.3-11.1,2.3-22.1-1.1-32.9c-6.1-19.1-14.2-37.6-19-57.2c-2-8.1-4.4-16.2-2.9-24.9c3.1-18.1,3.3-36.3,0.7-54.6
	c-1.5-10.2-2.3-20.4-3.2-30.7c-0.5-6.1,0.6-7,6.5-8.3c2.5-0.5,5.2-0.1,7.4-1.9c2.7,0,5.3,0,8,0c1.3,2.1,2.8,4,4,6.2
	c5,9.7,10.2,19.3,17,27.8c8.7,11,18.6,20.4,33.2,22.8c19.5,3.2,38.9,2,58.4-1.5c14.9-2.7,26.2-10.2,35.6-21.6
	c6.2-7.6,12.1-15.4,16.8-24c2.3-4.3,5.4-7.9,10.1-9.7c2.7,0,5.3,0,8,0c1.7,2,4.2,1.1,6.3,1.7c6.3,1.8,6.3,1.6,5,7.7
	c-5,24.6-7,49.5-9.4,74.4c-1.5,15.7-3.4,31.2-7.6,46.5c-3.6,13.1-10.2,25-14.9,37.6c-8,21.5-7.1,41.6,5.2,61.7
	c25.5,41.7,46,86.1,65.8,130.7c7.6,17,14.8,34.2,21.4,51.6c6.5,17.3,13.3,34.4,18.3,52.3c6.9,24.3,9.9,49.2,13.8,74
	c1.5,9.3,2.1,18.9,5.9,27.7c0,1.7,0,3.3,0,5c-2.1,3.3-5.2,5.5-8.7,7.1c-4.8,2.3-9.8,3.9-15,4.9c-4.1,0.8-6.3,2.3-5.5,7.1
	c0.6,3.7,0.1,7.6,0.3,11.5c0.1,2.3-0.7,3-3,3.5c-8.1,1.4-16.2,3.1-24.2,5c-3.5,0.8-7.8,1-9.9,4c-2.4,3.3-5.4,4.4-8.8,4.7
	c-8.9,1-17.9,1.4-26.8,2.3c-7.4,0.7-15.3-0.6-22.1,2.3c-4.6,2-8.9,3-13.8,2.8c-3.8-0.2-7.7,0-11.5-0.1c-2.3-0.1-4.6,0.8-4.7,2.8
	c-0.4,5.8-4.8,5.6-8.5,6.2c-9.6,1.5-19.2,1.2-28.9,1c-7.6-0.2-14.7,2.3-21.9,4c-15,0-30,0-45,0c-4.8-1.9-9.9-1.1-14.9-1.9
	c-7.9-1.2-15.8-2-21.7-8.3c-1.9-1.9-4.3-2.8-7.1-2.9c-5.3-0.3-10.9-1.3-14.5-5.3c-2.6-2.9-5.4-3.9-8.8-4.6c-6.9-1.3-13.7-2.9-19-7.8
	c-6.8-6.3-14.6-7.2-23-5c-2.8,0.7-5.4,0.9-8.3,0.3c-9.3-1.9-17.4-6.2-24.3-12.6c-5.7-5.3-11.8-9.5-19.8-10.3
	C98.1,658.1,94.4,655.9,92,652z"/>
</svg>
