<?xml version="1.0" encoding="utf-8"?>
<!-- Generator: Adobe Illustrator 17.0.0, SVG Export Plug-In . SVG Version: 6.00 Build 0)  -->
<!DOCTYPE svg PUBLIC "-//W3C//DTD SVG 1.1//EN" "http://www.w3.org/Graphics/SVG/1.1/DTD/svg11.dtd" [
	<!ENTITY ns_flows "http://ns.adobe.com/Flows/1.0/">
	<!ENTITY ns_extend "http://ns.adobe.com/Extensibility/1.0/">
	<!ENTITY ns_ai "http://ns.adobe.com/AdobeIllustrator/10.0/">
	<!ENTITY ns_graphs "http://ns.adobe.com/Graphs/1.0/">
]>
<svg version="1.1" id="Layer_1" xmlns:x="&ns_extend;" xmlns:i="&ns_ai;" xmlns:graph="&ns_graphs;"
	 xmlns="http://www.w3.org/2000/svg" xmlns:xlink="http://www.w3.org/1999/xlink" xmlns:a="http://ns.adobe.com/AdobeSVGViewerExtensions/3.0/"
	 x="0px" y="0px" width="612px" height="792px" viewBox="0 0 612 792" style="enable-background:new 0 0 612 792;"
	 xml:space="preserve">
<path style="fill:none;stroke:#000000;stroke-width:2;stroke-miterlimit:10;" d="M427.7,260.5L427.7,260.5l0.2-0.1
	C427.8,260.5,427.7,260.5,427.7,260.5z M441.6,526.4C441.6,526.4,441.6,526.5,441.6,526.4c0,0.1,0.1,0.1,0.1,0.1L441.6,526.4z
	 M427.7,260.5L427.7,260.5l0.2-0.1C427.8,260.5,427.7,260.5,427.7,260.5z M441.6,526.4C441.6,526.4,441.6,526.5,441.6,526.4
	c0,0.1,0.1,0.1,0.1,0.1L441.6,526.4z"/>
<path style="fill:none;stroke:#000000;stroke-width:2;stroke-miterlimit:10;" d="M613.8,281.3c-11.8-17.4-29.1-26.8-48.3-33.1
	c-21.5-7.1-43.8-10.5-66.1-13c-10.4-1.2-20.8,2.2-31.3,2.2c-0.2,0-0.3,0.1-0.5,0.1c-2.1,0.1-4.8,1.2-6.2-0.5
	c-1.6-1.9,0.5-4.1,1.5-5.8c6.1-10.2,6-20.7,2.2-31.6c-1.5-4.3-4-7.5-7.7-10.1c-13.5-9.1-28.4-13.8-44.5-15.3
	c-5.3,1.4-10.6,1.4-15.9,0c-7.8,0.5-14.8,3.3-21.3,7.4c-5.9,3.8-11.7,7.5-17.8,11c-4.1,2.4-5.7,1.4-6-3.1c-0.2-3-1.3-5.9-2.9-8.4
	c-6.9-10.8-15.6-19.4-29.1-21.2c-0.4,0-0.7-0.6-1-0.8h-26c-7.1,1.2-14.2,2.3-21.3,3.7c-32.8,6.5-61.1,22.1-86.9,42.9
	c-1.3,1-2.6,2.1-3.9,3.1c-7.6,6.2-7.6,6.2-16,0.5c-16.4-10.9-32.7-22.2-51.5-28.9c-4.3-1.6-8.8-2.9-13.4-3.3
	c-5.3,1.3-10.6,1.3-15.9,0c-22.5,4.1-42,24.2-45.2,46.8c-1.2,8.9-2.2,17.8-2.8,26.7c-0.4,5.9-3,9.6-8.5,11.5c-1.6,0.5-3,1.5-4.6,1.6
	c-11.3,1.4-18.3,8.6-23.7,17.7c-5.5,9.1-9.8,18.7-11.3,29.4c-0.1,0.4-0.6,0.7-0.9,1.1v17c3.8,12.1,11.8,21.2,20.4,29.9
	c2.6,2.7,5.9,4.3,8.9,6.3c4.7,3.1,5.1,5.1,0.7,8.9C2.9,386.3-1.7,402.4-2,420.3c-0.2,13.9,6.6,25.1,15.2,35.3
	c6.5,7.7,13.6,14.6,23.6,17.5c1.4,0.4,2.7,1.3,4,1.9c3.6,1.7,4.9,4.2,2.9,8c-3,5.7-5.4,11.8-8.9,17.2c-8.1,12.5-10.6,26.4-10.7,40.8
	c-0.1,15,2.2,29.6,7.2,43.9c6.8,19.3,21.4,28.2,40.1,32.1c2.1,0.4,4.3,0.6,6.4,0.8c5-1.4,9.9-1.4,14.9,0
	c14.9-1.9,28.6-6.2,39.4-17.6c6.7-7.1,9.8-6.5,15.2,1.5c2.7,4,6,6.9,10.3,9c9.7,4.7,19.4,9.4,28.8,14.6c15.9,8.8,32.4,10.8,50,6.8
	c15.2-3.5,30-7.9,44.1-14.6c6.8-3.2,12-8.2,16.7-13.9c10.2-12.1,12.9-12.3,24.1-1.5c5.4,5.2,10.6,10.6,15.9,15.9
	c7.4,7.4,14.9,14.5,25.5,17h22c5.7-1.3,11.5-2.4,17.1-4c11.2-3.2,20.1-9.1,24-20.9c1.3-3.9,3.4-7.5,5.5-11.1c3.5-5.9,6-6.7,11-2.2
	c9.6,8.6,21.3,14.1,31.4,21.9c11.8,9.1,25.2,12.1,39.6,12.3c5.8,0.1,11.7,0,17.5-0.3c17.3-1.1,29.3-11.2,38.4-24.7
	c16.8-24.8,21.4-51.8,11.4-80.5c-4.2-11.9-13.2-20.6-20.4-30.5c-2.1-2.8-4.2-5.6-6.5-8.3c-2-2.4-1.3-3.9,1.5-4.8
	c4.5-1.5,9.2-1.2,13.8-1.9c11.7-1.7,23.3-4.5,31.7-12.9c13.2-13.3,16.8-29.5,11.3-47.6c-2.9-9.6-7.4-18.4-13-26.7
	c-2.9-4.3-7.5-6.5-11.2-9.8c-2.5-2.2-5-4.3-7.1-7c-2.6-3.4-2-6,1.8-8.1c5-2.7,10.3-4.9,15.8-5.7c17.6-2.6,24.7-14.3,27.4-30.2
	c0.1-0.8,0-1.7,1-2.1v-17C624.2,301.8,620.4,291,613.8,281.3z M469.8,506.5c-0.4,0.3-0.6,0.8-1,1.1c-0.4,0.4-0.8,0.8-1.3,1.2
	l0.2-0.2c-0.4,0.4-0.9,0.7-1.3,1.1l0.2-0.2c-0.4,0.3-0.8,0.7-1.2,1c-0.1,0.6-0.4,0.9-1.1,0.8l-0.1,0.1c0,1.1-0.6,1.4-1.6,1.4
	l0.1-0.1c-0.4,0.4-0.9,0.7-1.3,1l0.2-0.2c-0.4,0.3-0.8,0.6-1.3,0.9c-0.1,1-0.8,1.4-1.7,1.4c-0.4,0.3-0.7,0.5-1.1,0.8
	c-0.3,0.9-1,1.2-1.9,1.3c-0.3,0.2-0.6,0.4-1,0.6c-0.5,0.4-0.9,0.7-1.4,1.1v-0.2c0,2-1.1,2.5-2.9,1.9l-0.2,0.1c0,1.2-0.8,1.4-1.7,1.2
	c-0.3,1.8-1.3,2.4-3.1,1.7l-0.2,0.1c-0.1,1.3-0.8,1.4-1.8,1h-0.1c-0.2,1.2-0.9,1.4-1.8,1.1l0.2,0.1l-0.3-0.2c-0.2,1.1-1,1.3-1.9,1.1
	c-0.3,1-1,1.3-2,1c-0.3,1-1.1,1.2-2,0.8h-0.1c-1.4,3-3.8,3.7-6.9,3h-0.1c-0.1,1.7-1.5,2-2.7,2.5c-12.5,4.6-25.5,7.5-38.8,9.1
	c-15.4,1.8-30.8,1.2-46.2-0.9c-1.6-0.2-3.4,0.1-3.7-2.2c-1-0.1-2.3-0.6-1.4-1.6c2-2.5,4-5.4,8-4.3c0.7,0.1,1.1-0.1,1.3-0.8
	c0.7-1.9,2.2-2.3,4-2.1c0.2-1.8,1.4-2.1,3-2c0.4-0.9,1.1-1.1,2-1c0.4-0.4,0.8-0.7,1.1-1.1c0.6-0.4,1.2-0.7,1.9-1.1
	c0.4-0.3,0.7-0.6,1.1-0.9l0,0c0.4-0.8,1.1-1,2-0.9c0.3-0.4,0.7-0.7,1-1c0.2-1.8,1.4-2.2,3-2c0-1.3,0.8-1.9,2-2.2
	c0.4,0.1,0.8,0.3,1.2,0.4l-0.2-0.1c0.4-0.4,0.8-0.8,1.2-1.1c0.9-0.7,1.9-1.4,2.8-2.1c0.7-3.3,3.2-4.3,6-4.8c0.3-0.3,0.6-0.5,0.9-0.8
	c0.1-2,1.5-2.3,3.1-2.2c1-0.9,2-1.9,2.9-2.8c0.3-0.8,0.3-1.8,0.8-2.3c7.1-5.6,12.2-13.2,19.1-19c0.7-0.3,1.4-0.6,2-0.9
	c0.1-0.6,0.4-1,1.1-1c0-0.6,0.3-1,1-1.1c-0.2-1,0.1-1.7,1.1-1.9c0-0.6,0.3-1,0.9-1.1c0-0.6,0.3-1,1-1c-0.1-0.7-0.1-1.4-0.2-2.1
	c1.1-3.6,2.3-7.1,6-9.1c0.4,0.1,0.9,0.2,1.3,0.3h-0.1c-0.4-5,3.9-8.4,4.7-13c-0.9-1.3,0.1-1.8,1.1-2.3c0.3-0.9,0.6-1.8,1-2.7
	c0-4.3,1.1-8.2,4-11.4c0-0.5,0.1-1.1,0.1-1.6c-1-1.3-0.1-1.8,0.9-2.3c0-0.5,0.1-1.1,0.1-1.7c-1-1.3-0.1-1.8,0.9-2.4
	c0-0.5,0-1.1,0-1.6c-1.1-1.5-0.5-2.6,1-3.4c0-0.5,0-1.1,0-1.6c-1.1-1.8-0.9-3.3,1-4.4c0-0.9,0.1-1.8,0.1-2.6c-1.2-2-1.3-3.9,0.9-5.4
	c0-1.2,0.1-2.4,0.1-3.7c-0.9-3.9-2-7.8,0.9-11.4c0-1.4,0-2.9,0-4.3c-2.9-3.6-1.8-7.5-0.9-11.4c0-1.2-0.1-2.4-0.1-3.6
	c-1.9-1.1-2.1-2.6-0.9-4.4c0-0.9-0.1-1.8-0.1-2.6c-1.5-0.8-2.1-1.9-0.9-3.4c0-0.5,0-1.1-0.1-1.6c-1.5-0.8-2.1-1.8-1-3.4
	c0-0.5,0-1.1,0-1.6c-1-0.6-1.9-1.1-1-2.4c-0.3-1.5-0.7-3.1-1-4.6c-2-1.3-3.2-2.9-2.1-5.4c-0.3-0.9-0.6-1.8-0.9-2.7
	c-1.7-1-3-2.1-2-4.3c-1.6-5.5-6.1-9.3-8.5-14.4c-0.8-1.8-2.5-3.1-2.5-5.3c-1.4-0.5-1.9-1.7-2.2-3c-3.8-4.1-7.4-8.4-11.4-12.4
	c-9.4-9.4-19.5-17.9-30.6-25.1c-1.5-1-3-2.1-3.8-3.9c-1.8-0.7-2.5-3.3-4.9-2.9c-6.3-2.3-12.5-4.7-16.9-10c-0.9,0.2-1.7-0.1-2.1-1
	c-0.9,0.1-1.6-0.2-2-1c-0.7,0.1-1.4,0-1.8-0.8c-1.9-2.2-1.8-2.9,1.3-3.8c6.9-1.9,13.9-3.4,21-4.4c11.1-1.6,22.3-0.8,33.4-0.9
	c10.7,1,21.2,3.3,31.4,6.9c1.4,0.5,2.9,0.8,3.3,2.6c0.1,0,0.2,0,0.2-0.1c2.1-0.5,3.9-0.4,4.7,2.1h0.1c1-0.4,1.7-0.2,2.1,0.8
	c3.5-0.2,6.4,0.5,7.9,4c1-0.2,1.7,0,1.8,1.2l0,0c0.5,0.2,0.9,0.4,1.4,0.6l-0.1-0.1c1.8-0.1,3.6-0.1,3.7,2.4l0.2-0.3l-0.1,0.3
	c1.8-0.6,2.9,0,3,2c1.7-0.5,2.8,0,2.9,1.8c0.5,0.4,0.9,0.8,1.4,1.1c0.3,0.2,0.6,0.4,0.9,0.6c0.9,0.1,1.7,0.4,1.8,1.5
	c0.4,0.3,0.8,0.6,1.3,0.8l-0.2-0.2c0.4,0.4,0.8,0.7,1.3,1.1c0.3,0.3,0.6,0.5,0.9,0.8c0.9,0.1,1.6,0.4,1.6,1.5c0-0.1,0.1-0.3,0.1-0.4
	c0,0.1-0.1,0.3-0.1,0.4c0.4,0.3,0.8,0.6,1.2,0.9l-0.1-0.1c0.4,0.3,0.8,0.6,1.1,0.9c1.4-0.1,2.1,0.5,2.2,2c0.3,0.3,0.7,0.7,1.1,1.1
	c1.9,1.9,3.9,3.9,5.8,5.8c0.4,0.4,0.8,0.8,1.2,1.2l-0.2-0.2c0.4,0.4,0.8,0.8,1.1,1.2c0.4,0.4,0.7,0.8,1.1,1.2
	c12.6,15.4,23.2,32.1,29,51.3C526,408,514.6,461.3,469.8,506.5z"/>
<path style="fill:none;stroke:#000000;stroke-width:2;stroke-miterlimit:10;" d="M478.9,296.5c12.6,15.4,23.2,32.1,29,51.3
	c18.1,60.2,6.7,113.5-38.1,158.7c-0.3,0.3-0.6,0.7-0.9,1.1c-0.4,0.4-0.8,0.8-1.3,1.2l0.2-0.2c-0.4,0.4-0.9,0.7-1.3,1.1l0.2-0.2
	c-0.4,0.4-0.8,0.7-1.3,1.1l0.1-0.1c-0.4,0.3-0.7,0.6-1.1,0.9l-0.1,0.1c-0.5,0.5-1,0.9-1.6,1.4l0.1-0.1c-0.4,0.3-0.9,0.7-1.3,1
	l0.2-0.2c-0.4,0.3-0.9,0.6-1.3,0.9l0.1-0.1c-0.6,0.5-1.1,1-1.7,1.5l0.1-0.1c-0.4,0.3-0.9,0.7-1.3,1l0.2-0.2c-0.7,0.5-1.3,0.9-2,1.4
	c-0.3,0.2-0.6,0.4-1,0.6c-0.5,0.4-0.9,0.7-1.4,1.1v-0.2c-1,0.6-1.9,1.2-2.9,1.9l-0.2,0.1c-0.6,0.4-1.2,0.8-1.8,1.2l0.1-0.1
	c-1,0.6-2.1,1.2-3.1,1.8l-0.2,0.1c-0.6,0.3-1.2,0.7-1.8,1h-0.1c-0.6,0.4-1.3,0.7-1.9,1.1l0.3,0.2l-0.3-0.2c-0.7,0.4-1.3,0.7-2,1.1
	l0.1-0.1c-0.7,0.4-1.4,0.7-2.1,1.1l0.1-0.1c-0.7,0.3-1.4,0.6-2.1,0.9h-0.1c-2.3,1-4.6,2-6.9,3h-0.1c-10.6,3.9-21.5,6.9-32.7,8.7
	c-19.6,3.1-39.2,2.3-58.7-0.3l0.2,0.1c2.2-2,4.3-4,6.5-5.9c0.7,0.1,1.1-0.1,1.3-0.8c1.9,0.4,3.2-0.4,4.1-2.1l-0.1,0.1
	c1.4-0.1,2.6-0.6,3.1-2.1H352c0.8-0.2,1.8,0.2,2.1-1H354c0.8,0,0.9-0.5,1.1-1.1c0.6-0.4,1.2-0.7,1.9-1.1c0.8,0.2,0.9-0.4,1.1-0.9
	l-0.1,0.2c0.8-0.3,1.8,0.1,2.1-1.1H360c0.7,0,0.9-0.5,1.1-1.1l-0.1,0.1c1.4-0.1,2.6-0.6,3.1-2.1l-0.1,0.1c0.7-0.2,1.7,0,2-1
	c0.4-0.3,0.8-0.6,1.2-0.9l-0.2-0.2c0.8,0.1,0.9-0.6,1.1-1.1c0.9-0.7,1.9-1.4,2.8-2.1c2.9-0.5,5-2,6.1-4.8c0.3-0.3,0.6-0.6,0.9-0.8
	c1-0.7,2.1-1.4,3.1-2.2c1-0.9,2-1.9,2.9-2.8c8.1-4.9,14.4-11.7,20-19.3c1.6-0.3,1.9-1.5,2.1-2.9h-0.1c0.6-0.1,1.2-0.2,1.1-1
	l-0.1,0.1c0.8,0,1-0.5,1-1.1l0,0c0.9-0.3,1.4-0.9,1.2-1.9l-0.1,0.1c0.9,0.1,1-0.5,1-1.2l-0.1,0.1c0.8,0,0.9-0.5,1-1.1l0,0
	c0.3-0.4,0.6-0.7,0.9-1.1c2.4-2.7,4.2-5.8,5.8-9c0.3-0.2,0.4-0.5,0.3-0.9h-0.1c3-3.7,4.7-8.2,6.5-12.5c6.9-15.5,10.4-31.7,11.3-48.6
	c0.6-8.3,0.9-16.6,0-25c-0.5-11.9-3.1-23.5-7.4-34.6l0,0c-0.6-1.6-1.3-3.2-1.9-4.8l0,0c-3.5-8.5-7.8-16.5-13.5-23.7l0,0
	c-0.3-0.4-0.6-0.8-0.9-1.2l0,0c-0.4-0.3-0.8-0.6-1.2-0.9c-1-1.5-1.8-3.1-2.9-4.5c-8.5-11.1-19.2-19.7-30.3-27.9
	c-4-2.9-7.4-7.1-12.8-7.6c-1.8-0.7-2.5-3.3-4.9-2.9c-4.6-5.3-10.8-7.6-17-10.1l0.1,0.1c-0.3-1.2-1.3-0.9-2.1-1.1l0.1,0.1
	c-0.3-1.2-1.3-0.9-2.1-1.1l0.1,0.1c-0.2-0.6-0.4-1-1.1-0.9c-1.2-2.3,0.8-1.8,1.8-2.1c17.4-4.8,35.1-6.7,53.2-5.4
	c11.9,1.3,23.4,4,34.7,8l0.2-0.1l-0.3,0.1c1.6,0.7,3.3,1.4,4.9,2.1h0.1c0.7,0.3,1.4,0.6,2.1,0.9l-0.1-0.1c2.7,1.4,5.3,2.7,8,4.1
	l-0.1-0.1c0.6,0.4,1.3,0.8,1.9,1.2l0,0c0.5,0.2,0.9,0.4,1.4,0.6l-0.1-0.1c1.2,0.8,2.5,1.6,3.7,2.4l0.2-0.3l-0.1,0.3c1,0.7,2,1.3,3,2
	c0.1-0.1,0.2-0.2,0.3-0.4c-0.1,0.1-0.2,0.2-0.3,0.4c1,0.7,2,1.3,2.9,2v-0.2c0.5,0.4,0.9,0.8,1.4,1.1c0.3,0.2,0.6,0.4,0.9,0.6
	c0.6,0.5,1.2,1,1.8,1.5l-0.1-0.1c0.4,0.3,0.9,0.6,1.3,0.9l-0.2-0.2c0.4,0.4,0.8,0.7,1.3,1.1c0.3,0.3,0.6,0.5,0.9,0.8
	c0.5,0.5,1.1,1,1.6,1.5c0-0.1,0.1-0.3,0.1-0.4c0,0.1-0.1,0.3-0.1,0.4c0.4,0.3,0.8,0.6,1.2,0.9l-0.1-0.1c0.4,0.3,0.9,0.7,1.3,1
	l-0.1-0.1c0.7,0.7,1.4,1.3,2.2,2l-0.1-0.1c0.4,0.4,0.8,0.8,1.2,1.2c1.9,1.9,3.9,3.9,5.8,5.8c0.4,0.4,0.8,0.8,1.2,1.2l-0.2-0.2
	c0.4,0.4,0.8,0.8,1.1,1.2l-0.2-0.2C478.1,295.6,478.5,296.1,478.9,296.5z"/>
<path style="fill:none;stroke:#000000;stroke-width:2;stroke-miterlimit:10;" d="M337.1,540.8c19.6,2.6,39.1,3.4,58.7,0.3
	c11.2-1.7,22.1-4.7,32.7-8.7c-0.2,1.7-1.5,2.1-2.7,2.5c-12.5,4.6-25.5,7.5-38.7,9.1c-15.4,1.8-30.8,1.2-46.2-0.9
	C339.2,542.8,337.3,543.2,337.1,540.8z"/>
<path style="fill:none;stroke:#000000;stroke-width:2;stroke-miterlimit:10;" d="M365,275.8c5.4,0.6,8.9,4.7,12.8,7.6
	c11.1,8.1,21.9,16.8,30.3,27.9c1.1,1.4,1.9,3,2.9,4.5c0,0.4,0,0.8-0.1,1.2l-0.3,0.2c-3.8-4.1-7.4-8.4-11.4-12.4
	c-9.4-9.4-19.5-17.9-30.6-25.2C367.3,278.7,365.8,277.6,365,275.8z"/>
<path style="fill:none;stroke:#000000;stroke-width:2;stroke-miterlimit:10;" d="M393,252.6c-18-1.4-35.7,0.6-53.2,5.4
	c-1,0.3-3.1-0.3-1.8,2.1c-0.2,0.1-0.5,0.1-0.7,0.2c-1.9-2.2-1.8-2.9,1.3-3.8c6.9-1.9,13.9-3.4,21-4.4c11.1-1.6,22.3-0.8,33.4-0.9
	C393,251.5,393,252.1,393,252.6z"/>
<path style="fill:none;stroke:#000000;stroke-width:2;stroke-miterlimit:10;" d="M435.9,406c-0.9,16.9-4.4,33.1-11.3,48.6
	c-0.2-0.2-0.4-0.4-0.6-0.6c0-0.7-0.1-1.5-0.1-2.2c0.3-0.9,0.6-1.8,1-2.7c2.3-3.4,3.3-7.4,4-11.4c0-0.6,0.1-1.1,0.1-1.7
	c0.8-0.6,1-1.4,0.9-2.3c0-0.6,0.1-1.1,0.1-1.7c0.8-0.6,1-1.4,0.9-2.4c0-0.5,0-1.1,0.1-1.6c1.2-0.9,1.2-2.1,0.9-3.4
	c0-0.5,0-1.1,0.1-1.6c1.4-1.2,1.1-2.8,1-4.4c0-0.9,0.1-1.8,0.1-2.6c1.6-1.6,1-3.5,0.9-5.4c0-1.2,0.1-2.4,0.1-3.7
	c0.4-0.3,0.7-0.7,1.1-1C435.3,406,435.6,406,435.9,406z"/>
<path style="fill:none;stroke:#000000;stroke-width:2;stroke-miterlimit:10;" d="M404,486.9c-5.6,7.6-11.9,14.4-20,19.3
	c0.3-0.8,0.3-1.8,0.8-2.3c7.1-5.6,12.2-13.2,19.1-19C404,485.6,404,486.3,404,486.9z"/>
<path style="fill:none;stroke:#000000;stroke-width:2;stroke-miterlimit:10;" d="M413.1,317.9c5.8,7.2,10.1,15.2,13.5,23.7
	c-0.9-0.6-1.9-1.1-2.8-1.7c-1.6-5.5-6.1-9.3-8.5-14.4c-0.8-1.8-2.5-3.1-2.5-5.3C413,319.5,413,318.7,413.1,317.9z"/>
<path style="fill:none;stroke:#000000;stroke-width:2;stroke-miterlimit:10;" d="M393,252.6c0-0.5,0-1,0-1.6
	c10.7,1,21.2,3.3,31.4,6.9c1.4,0.5,2.9,0.8,3.3,2.6C416.4,256.5,404.9,253.9,393,252.6z"/>
<path style="fill:none;stroke:#000000;stroke-width:2;stroke-miterlimit:10;" d="M428.5,346.4c4.3,11.1,6.8,22.6,7.4,34.6
	c-0.3,0-0.6,0-0.9,0c-0.4-0.3-0.7-0.7-1.1-1c0-1.2-0.1-2.4-0.1-3.6c0.2-1.6,0.5-3.1-0.9-4.4c0-0.9-0.1-1.8-0.1-2.6
	c0.2-1.3,0.2-2.5-0.9-3.4c0-0.5,0-1.1-0.1-1.6c0.2-1.3,0.2-2.5-1-3.4c0-0.5,0-1.1,0-1.6c0.1-1-0.1-1.8-0.9-2.4
	c-0.3-1.5-0.7-3.1-1-4.6C428.9,350.4,427.6,348.4,428.5,346.4z"/>
<path style="fill:none;stroke:#000000;stroke-width:2;stroke-miterlimit:10;" d="M343.1,262.8c6.2,2.5,12.5,4.8,17,10.1
	C353.8,270.6,347.6,268.2,343.1,262.8z"/>
<path style="fill:none;stroke:#000000;stroke-width:2;stroke-miterlimit:10;" d="M417.8,468c-1.6,3.2-3.4,6.3-5.8,9
	c-0.4-0.4-0.7-0.7-1.1-1.1c1.1-3.6,2.3-7.1,5.9-9.1C417.2,467.2,417.5,467.6,417.8,468z"/>
<path style="fill:none;stroke:#000000;stroke-width:2;stroke-miterlimit:10;" d="M343.8,534.9c-2.2,2-4.3,4-6.5,5.9
	c-1-0.1-2.4-0.5-1.5-1.7C337.8,536.8,339.7,533.8,343.8,534.9z"/>
<path style="fill:none;stroke:#000000;stroke-width:2;stroke-miterlimit:10;" d="M435,381c0.3,0,0.6,0,0.9,0c0.9,8.3,0.6,16.6,0,25
	c-0.3,0-0.6,0-0.9,0c-0.1-3.5-0.2-6.9-0.2-10.4c0-1.4,0-2.9,0-4.3C434.8,387.9,434.9,384.4,435,381z"/>
<path style="fill:none;stroke:#000000;stroke-width:2;stroke-miterlimit:10;" d="M424.6,454.6c-1.8,4.4-3.5,8.8-6.5,12.5
	c-0.4-5.1,3.9-8.4,4.7-13.1c0.4,0,0.8,0,1.2,0C424.2,454.2,424.4,454.4,424.6,454.6z"/>
<path style="fill:none;stroke:#000000;stroke-width:2;stroke-miterlimit:10;" d="M434.7,395.7c0.1,3.5,0.2,6.9,0.2,10.4
	c-0.4,0.3-0.7,0.7-1.1,1C433,403.1,431.8,399.2,434.7,395.7z"/>
<path style="fill:none;stroke:#000000;stroke-width:2;stroke-miterlimit:10;" d="M435,381c-0.1,3.5-0.1,6.9-0.2,10.4
	c-2.9-3.6-1.8-7.5-0.9-11.4C434.2,380.3,434.6,380.6,435,381z"/>
<path style="fill:none;stroke:#000000;stroke-width:2;stroke-miterlimit:10;" d="M428.8,437.7c-0.7,4-1.7,7.9-4,11.4
	C424.8,444.8,425.9,440.9,428.8,437.7z"/>
<path style="fill:none;stroke:#000000;stroke-width:2;stroke-miterlimit:10;" d="M377.1,512c-1.1,2.8-3.2,4.3-6.1,4.8
	C371.7,513.6,374.2,512.6,377.1,512z"/>
<path style="fill:none;stroke:#000000;stroke-width:2;stroke-miterlimit:10;" d="M397,174.1c5.3-0.5,10.6-0.4,15.9,0
	C407.7,175.5,402.3,175.5,397,174.1z"/>
<path style="fill:none;stroke:#000000;stroke-width:2;stroke-miterlimit:10;" d="M442.7,267.5c-2.7-1.4-5.3-2.7-8-4.1
	C438.2,263.1,441.1,263.9,442.7,267.5z"/>
<path style="fill:none;stroke:#000000;stroke-width:2;stroke-miterlimit:10;" d="M428.6,532.4c2.3-1,4.6-2,6.9-3
	C434.1,532.4,431.7,533.1,428.6,532.4z"/>
<path style="fill:none;stroke:#000000;stroke-width:2;stroke-miterlimit:10;" d="M433.8,410.7c0.1,1.9,0.7,3.8-0.9,5.4
	C431.7,414,431.6,412.2,433.8,410.7z"/>
<path style="fill:none;stroke:#000000;stroke-width:2;stroke-miterlimit:10;" d="M428.5,346.4c-0.9,2,0.4,3.9,0.3,5.9
	c-2-1.3-3.2-2.9-2.1-5.4C427.3,346.8,427.9,346.6,428.5,346.4L428.5,346.4z"/>
<path style="fill:none;stroke:#000000;stroke-width:2;stroke-miterlimit:10;" d="M432.9,372c1.4,1.2,1.1,2.8,0.9,4.4
	C431.9,375.2,431.6,373.7,432.9,372z"/>
<path style="fill:none;stroke:#000000;stroke-width:2;stroke-miterlimit:10;" d="M432.8,418.7c0.2,1.6,0.5,3.2-1,4.4
	C430.7,421.3,430.9,419.8,432.8,418.7z"/>
<path style="fill:none;stroke:#000000;stroke-width:2;stroke-miterlimit:10;" d="M423.8,340c0.9,0.6,1.9,1.1,2.8,1.7l0,0
	c-0.3,0.9-0.5,1.7-0.8,2.6C424.2,343.3,422.8,342.2,423.8,340z"/>
<path style="fill:none;stroke:#000000;stroke-width:2;stroke-miterlimit:10;" d="M432.5,262.6c-1.6-0.7-3.3-1.4-4.9-2.1
	C429.8,259.9,431.7,259.9,432.5,262.6z"/>
<path style="fill:none;stroke:#000000;stroke-width:2;stroke-miterlimit:10;" d="M381.1,509c-1,0.7-2.1,1.4-3.1,2.2
	C378.1,509.2,379.5,508.9,381.1,509z"/>
<path style="fill:none;stroke:#000000;stroke-width:2;stroke-miterlimit:10;" d="M425.8,344.3c0.3-0.9,0.5-1.7,0.8-2.6
	c0.6,1.6,1.3,3.2,1.9,4.8c-0.6,0.2-1.2,0.3-1.8,0.5C426.4,346,426.1,345.1,425.8,344.3z"/>
<path style="fill:none;stroke:#000000;stroke-width:2;stroke-miterlimit:10;" d="M431.8,424.7c0.2,1.3,0.2,2.5-0.9,3.4
	C429.7,426.5,430.3,425.5,431.8,424.7z"/>
<path style="fill:none;stroke:#000000;stroke-width:2;stroke-miterlimit:10;" d="M349.1,532.1c-0.8,1.7-2.1,2.5-4.1,2.1
	C345.8,532.2,347.3,531.9,349.1,532.1z"/>
<path style="fill:none;stroke:#000000;stroke-width:2;stroke-miterlimit:10;" d="M430.8,360.9c1.2,0.9,1.2,2.1,1,3.4
	C430.3,363.5,429.7,362.5,430.8,360.9z"/>
<path style="fill:none;stroke:#000000;stroke-width:2;stroke-miterlimit:10;" d="M431.9,366c1.1,0.9,1.1,2.1,0.9,3.4
	C431.3,368.5,430.7,367.5,431.9,366z"/>
<path style="fill:none;stroke:#000000;stroke-width:2;stroke-miterlimit:10;" d="M449.5,271.6c-1.2-0.8-2.5-1.6-3.7-2.4
	C447.6,269,449.4,269,449.5,271.6z"/>
<path style="fill:none;stroke:#000000;stroke-width:2;stroke-miterlimit:10;" d="M450.6,521.3c1-0.6,1.9-1.2,2.9-1.9
	C453.4,521.5,452.4,522,450.6,521.3z"/>
<path style="fill:none;stroke:#000000;stroke-width:2;stroke-miterlimit:10;" d="M413.1,317.9c-0.1,0.8-0.1,1.6-0.2,2.3
	c-1.4-0.5-1.9-1.7-2.2-3l0.3-0.2c0.4-0.1,0.8-0.1,1.2-0.2l0,0C412.5,317.1,412.8,317.5,413.1,317.9L413.1,317.9z"/>
<path style="fill:none;stroke:#000000;stroke-width:2;stroke-miterlimit:10;" d="M364.1,522.1c-0.5,1.5-1.7,2-3.1,2.1
	C361.2,522.2,362.5,521.9,364.1,522.1z"/>
<path style="fill:none;stroke:#000000;stroke-width:2;stroke-miterlimit:10;" d="M445.6,524.3c1-0.6,2.1-1.2,3.1-1.8
	C448.4,524.4,447.4,525.1,445.6,524.3z"/>
<path style="fill:none;stroke:#000000;stroke-width:2;stroke-miterlimit:10;" d="M352.1,530.1c-0.5,1.5-1.7,2-3.1,2.1
	C349.2,530.2,350.5,529.9,352.1,530.1z"/>
<path style="fill:none;stroke:#000000;stroke-width:2;stroke-miterlimit:10;" d="M455.5,275.6c-1-0.7-2-1.3-2.9-2
	C454.3,273,455.5,273.5,455.5,275.6z"/>
<path style="fill:none;stroke:#000000;stroke-width:2;stroke-miterlimit:10;" d="M452.6,273.5c-1-0.7-2-1.3-3-2
	C451.4,271,452.4,271.6,452.6,273.5z"/>
<path style="fill:none;stroke:#000000;stroke-width:2;stroke-miterlimit:10;" d="M430.8,429.7c0.1,0.9-0.1,1.8-0.9,2.4
	C428.9,430.8,429.8,430.2,430.8,429.7z"/>
<path style="fill:none;stroke:#000000;stroke-width:2;stroke-miterlimit:10;" d="M429.8,433.7c0.1,0.9-0.1,1.7-0.9,2.3
	C427.9,434.8,428.8,434.2,429.8,433.7z"/>
<path style="fill:none;stroke:#000000;stroke-width:2;stroke-miterlimit:10;" d="M424,454c-0.4,0-0.8,0-1.2,0
	c-0.9-1.3,0.1-1.8,1.1-2.3C423.9,452.5,423.9,453.2,424,454z"/>
<path style="fill:none;stroke:#000000;stroke-width:2;stroke-miterlimit:10;" d="M366.1,521.2c-0.4,0.9-1.3,0.7-2,1
	c-0.1-1.4,0.8-2,2-2.2C366.1,520.3,366.1,520.7,366.1,521.2z"/>
<path style="fill:none;stroke:#000000;stroke-width:2;stroke-miterlimit:10;" d="M429.8,356.9c0.8,0.6,1.1,1.4,0.9,2.4
	C429.8,358.8,428.9,358.2,429.8,356.9z"/>
<path style="fill:none;stroke:#000000;stroke-width:2;stroke-miterlimit:10;" d="M404,486.9c0-0.7,0-1.3,0-2
	c0.7-0.3,1.4-0.6,2.1-0.9C405.9,485.4,405.6,486.6,404,486.9z"/>
<path style="fill:none;stroke:#000000;stroke-width:2;stroke-miterlimit:10;" d="M468.8,286.2c-0.7-0.7-1.4-1.3-2.2-2
	C468.1,284.2,468.8,284.8,468.8,286.2z"/>
<path style="fill:none;stroke:#000000;stroke-width:2;stroke-miterlimit:10;" d="M410.9,475.9c0.4,0.4,0.7,0.7,1.1,1.1
	c-0.3,0.4-0.6,0.7-0.9,1.1C411,477.3,410.9,476.6,410.9,475.9z"/>
<path style="fill:none;stroke:#000000;stroke-width:2;stroke-miterlimit:10;" d="M455.9,518c0.7-0.5,1.3-0.9,2-1.4
	C457.5,517.5,456.8,517.9,455.9,518z"/>
<path style="fill:none;stroke:#000000;stroke-width:2;stroke-miterlimit:10;" d="M448.6,522.6c0.6-0.4,1.2-0.8,1.8-1.2
	C450.3,522.6,449.6,522.8,448.6,522.6z"/>
<path style="fill:none;stroke:#000000;stroke-width:2;stroke-miterlimit:10;" d="M339,260.9c0.8,0.2,1.9-0.2,2.1,1.1
	C340.2,262.1,339.4,261.8,339,260.9z"/>
<path style="fill:none;stroke:#000000;stroke-width:2;stroke-miterlimit:10;" d="M360.1,525.1c-0.3,1.2-1.4,0.8-2.1,1.1
	C358.4,525.2,359.2,524.9,360.1,525.1z"/>
<path style="fill:none;stroke:#000000;stroke-width:2;stroke-miterlimit:10;" d="M443.6,525.4c0.6-0.3,1.2-0.7,1.8-1
	C445.3,525.6,444.6,525.7,443.6,525.4z"/>
<path style="fill:none;stroke:#000000;stroke-width:2;stroke-miterlimit:10;" d="M441.6,526.5c0.6-0.4,1.3-0.7,1.9-1.1
	C443.4,526.6,442.6,526.8,441.6,526.5z"/>
<path style="fill:none;stroke:#000000;stroke-width:2;stroke-miterlimit:10;" d="M439.6,527.5c0.7-0.4,1.3-0.7,2-1.1
	C441.4,527.6,440.6,527.8,439.6,527.5z"/>
<path style="fill:none;stroke:#000000;stroke-width:2;stroke-miterlimit:10;" d="M437.6,528.6c0.7-0.4,1.4-0.7,2.1-1.1
	C439.4,528.6,438.6,528.8,437.6,528.6z"/>
<path style="fill:none;stroke:#000000;stroke-width:2;stroke-miterlimit:10;" d="M354.1,529.1c-0.3,1.2-1.4,0.8-2.1,1
	C352.4,529.1,353.2,528.9,354.1,529.1z"/>
<path style="fill:none;stroke:#000000;stroke-width:2;stroke-miterlimit:10;" d="M435.6,529.4c0.7-0.3,1.4-0.6,2.1-0.9
	C437.4,529.6,436.6,529.8,435.6,529.4z"/>
<path style="fill:none;stroke:#000000;stroke-width:2;stroke-miterlimit:10;" d="M341,261.9c0.8,0.2,1.8-0.1,2.1,1.1
	C342.2,263.1,341.4,262.8,341,261.9z"/>
<path style="fill:none;stroke:#000000;stroke-width:2;stroke-miterlimit:10;" d="M434.8,263.5c-0.7-0.3-1.4-0.6-2.1-0.9
	C433.6,262.2,434.4,262.4,434.8,263.5z"/>
<path style="fill:none;stroke:#000000;stroke-width:2;stroke-miterlimit:10;" d="M458.8,515.9c0.6-0.5,1.1-1,1.7-1.5
	C460.5,515.5,459.8,515.8,458.8,515.9z"/>
<path style="fill:none;stroke:#000000;stroke-width:2;stroke-miterlimit:10;" d="M409.3,480.2c0.2,1-0.3,1.6-1.2,1.9
	C407.8,481,408.2,480.3,409.3,480.2z"/>
<path style="fill:none;stroke:#000000;stroke-width:2;stroke-miterlimit:10;" d="M462.8,512.8c0.5-0.5,1-0.9,1.6-1.4
	C464.4,512.5,463.7,512.8,462.8,512.8z"/>
<path style="fill:none;stroke:#000000;stroke-width:2;stroke-miterlimit:10;" d="M464.5,282.6c-0.5-0.5-1.1-1-1.6-1.5
	C463.8,281.2,464.5,281.5,464.5,282.6z"/>
<path style="fill:none;stroke:#000000;stroke-width:2;stroke-miterlimit:10;" d="M459.6,278.6c-0.6-0.5-1.2-1-1.8-1.5
	C458.7,277.1,459.5,277.5,459.6,278.6z"/>
<path style="fill:none;stroke:#000000;stroke-width:2;stroke-miterlimit:10;" d="M337.3,260.1c0.2,0,0.5-0.1,0.7-0.2
	c0.7-0.1,1,0.4,1.1,0.9C338.4,261,337.6,261,337.3,260.1z"/>
<path style="fill:none;stroke:#000000;stroke-width:2;stroke-miterlimit:10;" d="M444.5,268.6c-0.6-0.4-1.3-0.8-1.9-1.2
	C443.6,267.2,444.4,267.4,444.5,268.6z"/>
<path style="fill:none;stroke:#000000;stroke-width:2;stroke-miterlimit:10;" d="M477.8,295.3c-0.4-0.4-0.7-0.8-1.1-1.2
	C477.1,294.5,477.5,294.9,477.8,295.3z"/>
<path style="fill:none;stroke:#000000;stroke-width:2;stroke-miterlimit:10;" d="M476.9,294.3c-0.4-0.4-0.8-0.8-1.2-1.2
	C476.1,293.5,476.5,293.9,476.9,294.3z"/>
<path style="fill:none;stroke:#000000;stroke-width:2;stroke-miterlimit:10;" d="M361.1,524c-0.1,0.6-0.3,1.1-1.1,1.1
	C360.4,524.8,360.7,524.4,361.1,524z"/>
<path style="fill:none;stroke:#000000;stroke-width:2;stroke-miterlimit:10;" d="M417.8,468c-0.3-0.4-0.6-0.8-1-1.2
	c0.4,0.1,0.9,0.2,1.3,0.3C418.2,467.5,418.1,467.8,417.8,468z"/>
<path style="fill:none;stroke:#000000;stroke-width:2;stroke-miterlimit:10;" d="M411.1,478c-0.1,0.6-0.2,1.2-1,1.1
	C410.1,478.5,410.4,478,411.1,478z"/>
<path style="fill:none;stroke:#000000;stroke-width:2;stroke-miterlimit:10;" d="M358.1,526c-0.2,0.5-0.3,1.1-1.1,0.9
	C357.4,526.6,357.7,526.3,358.1,526z"/>
<path style="fill:none;stroke:#000000;stroke-width:2;stroke-miterlimit:10;" d="M410.2,479.1c0.1,0.7,0,1.3-1,1.2
	C409.2,479.6,409.5,479.1,410.2,479.1z"/>
<path style="fill:none;stroke:#000000;stroke-width:2;stroke-miterlimit:10;" d="M355.2,528c-0.2,0.6-0.4,1.1-1.1,1.1
	C354.4,528.7,354.8,528.4,355.2,528z"/>
<path style="fill:none;stroke:#000000;stroke-width:2;stroke-miterlimit:10;" d="M408.1,482c0,0.6-0.2,1.1-1,1.1
	C407.1,482.5,407.4,482.1,408.1,482z"/>
<path style="fill:none;stroke:#000000;stroke-width:2;stroke-miterlimit:10;" d="M407.1,483.1c0,0.8-0.5,0.9-1.1,1
	C406.1,483.4,406.5,483.1,407.1,483.1z"/>
<path style="fill:none;stroke:#000000;stroke-width:2;stroke-miterlimit:10;" d="M469.9,287.3c-0.4-0.4-0.8-0.8-1.2-1.2
	C469.1,286.5,469.5,286.9,469.9,287.3z"/>
<path style="fill:none;stroke:#000000;stroke-width:2;stroke-miterlimit:10;" d="M467.6,508.9c0.4-0.4,0.8-0.8,1.3-1.2
	C468.5,508.1,468.1,508.5,467.6,508.9z"/>
<path style="fill:none;stroke:#000000;stroke-width:2;stroke-miterlimit:10;" d="M466.6,509.7c0.4-0.4,0.8-0.7,1.3-1.1
	C467.4,509,467,509.4,466.6,509.7z"/>
<path style="fill:none;stroke:#000000;stroke-width:2;stroke-miterlimit:10;" d="M466.8,284.4c-0.4-0.3-0.8-0.7-1.3-1
	C466,283.7,466.4,284,466.8,284.4z"/>
<path style="fill:none;stroke:#000000;stroke-width:2;stroke-miterlimit:10;" d="M465.5,510.6c0.4-0.4,0.8-0.7,1.3-1.1
	C466.3,509.9,465.9,510.2,465.5,510.6z"/>
<path style="fill:none;stroke:#000000;stroke-width:2;stroke-miterlimit:10;" d="M465.7,283.5c-0.4-0.3-0.8-0.6-1.2-0.9
	C464.9,282.9,465.3,283.2,465.7,283.5z"/>
<path style="fill:none;stroke:#000000;stroke-width:2;stroke-miterlimit:10;" d="M464.5,511.3c0.4-0.3,0.7-0.6,1.1-0.9
	C465.5,511.1,465.1,511.4,464.5,511.3z"/>
<path style="fill:none;stroke:#000000;stroke-width:2;stroke-miterlimit:10;" d="M461.9,280.2c-0.4-0.4-0.8-0.7-1.3-1.1
	C461.1,279.5,461.5,279.9,461.9,280.2z"/>
<path style="fill:none;stroke:#000000;stroke-width:2;stroke-miterlimit:10;" d="M460.8,279.4c-0.4-0.3-0.9-0.6-1.3-0.9
	C459.9,278.8,460.4,279.1,460.8,279.4z"/>
<path style="fill:none;stroke:#000000;stroke-width:2;stroke-miterlimit:10;" d="M461.6,513.8c0.4-0.3,0.9-0.7,1.3-1
	C462.5,513.1,462,513.4,461.6,513.8z"/>
<path style="fill:none;stroke:#000000;stroke-width:2;stroke-miterlimit:10;" d="M460.5,514.5c0.4-0.3,0.9-0.6,1.3-0.9
	C461.3,513.9,460.9,514.2,460.5,514.5z"/>
<path style="fill:none;stroke:#000000;stroke-width:2;stroke-miterlimit:10;" d="M457.6,516.8c0.4-0.3,0.9-0.7,1.3-1
	C458.5,516.1,458.1,516.5,457.6,516.8z"/>
<path style="fill:none;stroke:#000000;stroke-width:2;stroke-miterlimit:10;" d="M368.2,519c-0.2,0.5-0.3,1.2-1.1,1.1
	C367.4,519.8,367.8,519.4,368.2,519z"/>
<path style="fill:none;stroke:#000000;stroke-width:2;stroke-miterlimit:10;" d="M456.9,276.5c-0.5-0.4-0.9-0.8-1.4-1.1
	C456,275.7,456.4,276.1,456.9,276.5z"/>
<path style="fill:none;stroke:#000000;stroke-width:2;stroke-miterlimit:10;" d="M453.5,519.6c0.5-0.4,0.9-0.7,1.4-1.1
	C454.4,518.9,454,519.3,453.5,519.6z"/>
<path style="fill:none;stroke:#000000;stroke-width:2;stroke-miterlimit:10;" d="M478.9,296.5c-0.4-0.5-0.8-1-1.2-1.4
	C478.1,295.6,478.5,296.1,478.9,296.5z"/>
<path style="fill:none;stroke:#000000;stroke-width:2;stroke-miterlimit:10;" d="M445.9,269.2c-0.5-0.2-0.9-0.4-1.4-0.6
	C445,268.8,445.5,269,445.9,269.2z"/>
<path style="fill:none;stroke:#000000;stroke-width:2;stroke-miterlimit:10;" d="M366.1,521.2c0-0.4,0-0.8,0-1.3
	c0.4,0.1,0.8,0.3,1.2,0.4C366.9,520.6,366.5,520.9,366.1,521.2z"/>
<path style="fill:none;stroke:#000000;stroke-width:2;stroke-miterlimit:10;" d="M413.1,318c-0.3-0.4-0.6-0.8-0.9-1.2
	C412.5,317.1,412.8,317.5,413.1,318z"/>
<path style="fill:none;stroke:#000000;stroke-width:2;stroke-miterlimit:10;" d="M412.2,316.8c-0.4,0.1-0.8,0.1-1.2,0.2
	c0-0.4,0-0.8,0.1-1.2C411.5,316.2,411.8,316.5,412.2,316.8z"/>
</svg>
