<?xml version="1.0" encoding="utf-8"?>
<!-- Generator: Adobe Illustrator 17.0.0, SVG Export Plug-In . SVG Version: 6.00 Build 0)  -->
<!DOCTYPE svg PUBLIC "-//W3C//DTD SVG 1.1//EN" "http://www.w3.org/Graphics/SVG/1.1/DTD/svg11.dtd" [
	<!ENTITY ns_flows "http://ns.adobe.com/Flows/1.0/">
	<!ENTITY ns_extend "http://ns.adobe.com/Extensibility/1.0/">
	<!ENTITY ns_ai "http://ns.adobe.com/AdobeIllustrator/10.0/">
	<!ENTITY ns_graphs "http://ns.adobe.com/Graphs/1.0/">
]>
<svg version="1.1" id="Layer_1" xmlns:x="&ns_extend;" xmlns:i="&ns_ai;" xmlns:graph="&ns_graphs;"
	 xmlns="http://www.w3.org/2000/svg" xmlns:xlink="http://www.w3.org/1999/xlink" xmlns:a="http://ns.adobe.com/AdobeSVGViewerExtensions/3.0/"
	 x="0px" y="0px" width="612px" height="792px" viewBox="0 0 612 792" style="enable-background:new 0 0 612 792;"
	 xml:space="preserve">
<path style="fill:#231F20;" d="M158.9,500.3c0,0,73.6,4.7,100.1,0.8c26.5-3.9-2.7-6.5-17.1-11c-14.3-4.4,55.3-7.3,79.8-9.4
	c24.5-2.1,78.1-10.4,78.1-10.4l9.7-0.4c0,0-76.1,12.3-93.1,12.8c-16.9,0.5-79.7,4.7-71.7,6.6c8,2.1,36.1,5.7,26.2,11
	C263.2,506.3,179.2,503.7,158.9,500.3"/>
<path style="fill:none;stroke:#231F20;stroke-miterlimit:10;" d="M231.4,465.5c-11.2-1.4-15.2,2.4-26.3,3.5
	c-17.5,3.5-33.5-6.9-50.9-4.2l-14.2-4.8l-1.6-9.9c-1.2-1.7-2.3-3-1.6-5.2c-3.5-2.3-3.4-5.3-0.7-7.9c2-2.2,1.1-3.7,3.3-5.6
	c5-3.1,14.9,0.1,9.5,6.4c1.1,1.6,5,1.1,3.7,4.3V458c3.1-0.4,8.1-1.4,11.2-1.6l-1.3-17.5l-4.4-1c1.4-3.3,5.5-6.6,6.9-9.4
	c-0.9-3.7-1.4-8.6-2-12.1c2-0.5,7.3-2.8,8.9-2c-0.1,0.7,0.9,3.8,1.1,4.7c7.6-8.2,11.9-6,22.2-6l21.6,1l21.9,19.3l-4,1.5
	c-0.4,1.3-0.3,26.9,0.1,28.4C234.9,463.5,233.3,465.7,231.4,465.5"/>
<path style="fill:none;stroke:#231F20;stroke-miterlimit:10;" d="M398.6,469.4c-3.8,2.6-7.3,4.8-11.2,7.5
	c-10.4,2.3-22.2-0.3-31.3,2.6c-2.5,1.4-5.1,0.8-7.4,0.3c-3-0.4-5.4-0.1-8.3,1c-5.5-1.5-11.6-5.2-17-7.2c-8.3,0.9-12.4-0.3-18.7,1
	v-1.3c4-1,7.6-2.1,10.5-3.3c3.3-1.6,9.1,2.5,13,1.7c5-0.9,8.7-6.1,14.1-6.1c-1-7.5,0-33.8,0.8-41.3l-1.7-0.7
	c-2.5-5.9,2.3-11.8,5.9-16.2c4.7-4.7,11.7-4.6,17.3-1.8c6.5,5,10.6,9.8,11.4,19.1l-2.9,0.7c0.5,8,1,24.9,1.1,33.2
	c2.9-0.2,7.3-2.8,10.1-2.9c0.5-5,0.2-16,1-21c-1.1-1.5-3-1.2-4.7-1.4c3.5-11.1,10.1-19.7,18.1-27.9l-0.1-0.2c2-2,41.5,6.3,45.2,6.9
	c9.2,3.7,16.3,17.5,16.3,26.7c-1.7,0.1-2.8,1.3-4.6,1.1c-0.2,6.2,0,9.9,0.3,15.9c13,3-36.9,3.5-28.6,6.3
	C388.6,460,408.8,468.5,398.6,469.4"/>
<path style="fill:#231F20;" d="M571,389.4c-8.5-2.4-6.6-6.5-10.5-11.1c-1.2,0-1.2,0-2.1,0.3c-3,15.3-33.3,11.2-37.7-1.2
	c-0.9,0-1.4,1.5-1.8,2.2c-5.3,3.1-9.3,0.8-12-3c-6.5,0-8-0.4-12.3-4c-8,0-19.1,7.6-24.5-2.2c-0.8-2.4-0.3-4.3-0.8-6
	c-7.9,0-7.9-2.3-14.5,2.2c-8.1,1.5-12.9,1.5-19.2-2.6c-4.7-4.2-4.2-1.4-9.2,1.1c-6.9,1.7-15.3,1.5-20.6-2.5h-0.7
	c-5.2,5.2-9.1,0.7-11.5,1.8c-2.9,3.7-7.2,0.9-10,0.9c-5.2,6.1-15.3,6.8-18.3-1c-3.1,0-4.3,2.1-7.5-0.7c-5.6,0-6.2,1.7-9.2-4.6
	c-2.8,0-8.6,4.7-11.1,2.2c-23.2-6.1-7.2-33.5,7.2-26.3c0.2,0.3,0.5,0.3,1.1,0.3c2.5-3.5,3.6-1.5,6.5-2.1c0.8-6.6,9.1-10.6,14-5
	c0.7,0,4-6.9,5.1-8.2c5.6-4.2,12.5-3,17.8,1.8c0.1,0.2,4.6,6.6,1.6,6.6c-3.5-4.2-1.7-6.6-7.9-8.7c-11.8-1.1-11.8,2.5-13.6,12.5
	c-3.3,2-5.1-8.7-13.3-2.7c-0.5,0.8-2.8,12.9-5.2,5.7c-5.1,0-0.9,3-4.3,3.6c-4.6-7.5-14.5-0.8-17.2,4.8c-1.8,9.2,3.1,15.9,14.3,14.9
	c1-0.3,3.4-1.5,5.1-1.3c0.3,0.8,0.3,0.9,1.8,1.1c1.6,6.5,4.8,2.1,7.9,2.1c6.3,7.3,5.1-2.9,7.2-2.9c1.8,3.1,0.1,5.7,3.9,9
	c5.5,2.1,11.6,1.7,13.4-5c3.1-0.2,5.7,6,11-0.7c3,0,6.5,4.9,10.8-1.2h0.8c9.1,6,17.3,5.7,26.7-1.1h0.9c4.6,7,18.3,8.2,25.4,3.7
	c1.4-1.2,2.3-2.2,4-2.8c0,0.8,0,1.4,0.1,2.3c4.8,1.3,6.1-2.7,10.8-0.8c2.6,3.8,13-1.4,15.8-2.1c0,6.9-14.3,4.1-17.2,4.1
	c-2.1,8.1,4.9,13,12.6,8.9c0-1.4-1.6-2.2-1.6-3.5c0.8-0.8,6.2,6,11.3,0.9h0.9c2.2,3.1,6,6.7,11.2,4.1c0.4-2.3,0.5-3.5,1.8-5.1
	c1.2,4.3-1.8,7.6,4.1,10c4.2,0,6.2-0.4,7.5-4.6c0.7-0.1,1.3-0.1,2-0.1c4.7,8.1,4.3,8.2,15.4,11.2c4.6,0.7,20.2,0.8,19.7-7.5
	c-2.6-1.1-5-5.2-1.8-5.2c1.3,2.2,0.2,3.7,4.6,3.7c2-0.5,2.3-0.8,3.6,1.5c2.2,0,2.7,0.2,4.1-1.7c0.9,0,1.1,0.8,1.1,2.1
	c-3.1,3.1-6.5,0.3-2.5,6.5c5.5,4.2,10.6,3.3,15.8-2.1h0.3c3.6,4.7,12.1,6.3,16.8,0.5c-0.9-1.6-1.8-2.9,0.2-2.9
	c3.1,2.3,9.5,2,13.2-0.2v2.9c-6.7,2.1-9.5-0.4-14.4,4.3c-3.9,2.6-9.2,2.2-13.1,1.4C579.7,384.1,577,389.4,571,389.4"/>
<path style="fill:none;stroke:#231F20;stroke-miterlimit:10;" d="M456.6,436.8c-5.3,0.3-10.3,0.2-15.6,0.8l-20.5,1.3
	c-1.2,0-2.1-0.4-3.1-0.9c-0.4-1.6,3.9-2,4.9-2c6.9,0.3,13.3,0.5,20.3-0.1l-0.1,0.2l13-1.3l0.1,0.2c0.8,0,1.8,0.4,1.8,1.3
	C457.2,436.5,456.9,436.6,456.6,436.8"/>
<path style="fill:none;stroke:#231F20;stroke-miterlimit:10;" d="M450.3,432.3c-9.8,1.4-19.7,0.3-29.5,2.2c-1.4-0.2-3.6,0.3-3.6-1.7
	c6-1.8,10.4-2.8,16.8-2.5l19.8,0.9C453.6,432.4,451.2,432.3,450.3,432.3"/>
<path style="fill:none;stroke:#231F20;stroke-miterlimit:10;" d="M452.2,428.4c-10.8-1.3-21.7-1.2-32.5,0c-1.2-0.2-2.2,0.1-3-0.8
	c0.7-5.2,31.3-1.8,35.8-0.4l0.4,0.3l-0.1,1L452.2,428.4"/>
<path style="fill:none;stroke:#231F20;stroke-miterlimit:10;" d="M446.9,423.1c-5.9,0-11.4-1.3-17.5-0.9c-4.2,0-10.4,1.5-14.2,0.8
	c-0.5-0.2-1.1-0.5-1.5-1c1.7-4.1,24.2-2.3,27.9-1.8l9.8,3.3C449.5,424.1,448.6,423.4,446.9,423.1"/>
<path style="fill:none;stroke:#231F20;stroke-miterlimit:10;" d="M446.1,418.8c-8.1-1.2-16.6-2.5-24.7-1.7l-11.2-0.3
	c1.3-4.6,29.1-1.1,32.9-0.3c1.4,0.3,2.9,0.4,3.6,1.8L446.1,418.8"/>
<path style="fill:none;stroke:#231F20;stroke-miterlimit:10;" d="M428,411.9l-0.2-0.1l-0.4,0.1H427l-0.3-0.2l-0.1,0.1l-0.1-0.1h-0.3
	l-0.2,0.1l-0.2,0.1l-1.1-0.1l-2.1-0.1c-2.3,0-4.6,0-6.8,0.2c-4.6,0.1-6.2,1.7-10.3-0.4v-0.3l0.1-0.3l0.3-0.1l0.4-0.1l1.4-0.2
	c2.5-0.3,5-0.5,7.5-0.4c5,0,9.9,0.5,14.7,1.5l0.1,0.4l-0.4,0.1h-0.4l-0.4,0.1L428,411.9"/>
<path style="fill:#FFFFFF;" d="M428,450.8c-1.2,0.4-2.7,0.3-4,0.5l-0.1-0.8l-0.1-0.8l-0.1-0.8l0.1-0.8c1.4,0.1,2.8,0.3,4.2,0
	l0.1,0.7v0.7v0.7L428,450.8"/>
<path style="fill:none;stroke:#231F20;stroke-miterlimit:10;" d="M404,433.4l-4.7-0.1l0.2-3.9c1.5,0,2.6,0.2,4.2-0.1L404,433.4"/>
<path style="fill:none;stroke:#231F20;stroke-miterlimit:10;" d="M403.9,427.3c-1.2-0.3-2.9-0.4-4.2-0.4l0.1-4.4
	C404.3,423.6,403.5,422.3,403.9,427.3"/>
<path style="fill:none;stroke:#231F20;stroke-miterlimit:10;" d="M398,426.6l-3.4,0.1l0.4-3.8c1.3-0.5,2.1,0.1,3.1-0.1
	C398.5,423.5,398.1,425.8,398,426.6"/>
<path style="fill:none;stroke:#231F20;stroke-miterlimit:10;" d="M397.8,433c-1,0-2.5-0.2-3.5-0.4c-0.4-1.4,0.2-2.3,0.1-3.8l3.3,0.2
	C397.7,430.3,397.7,431.7,397.8,433"/>
<path style="fill:none;stroke:#231F20;stroke-miterlimit:10;" d="M273.8,459.9c-1.7,0-3.8,0.2-3.8-2.1c0.9-0.5,3-0.4,3.9,0l0.7,0.2
	l0.5,0.4l0.1,0.7l-0.3,0.4l-0.4,0.2L273.8,459.9"/>
<path style="fill:none;stroke:#231F20;stroke-miterlimit:10;" d="M252.5,446L252.5,446l-0.2,0.1V446H252.5"/>
<path style="fill:none;stroke:#231F20;stroke-miterlimit:10;" d="M248.3,450.4l-0.7-0.2l-0.4-0.4l-0.2-0.4l-0.1-0.5
	c2-1.7,2.3-1.1,3.1,1.1l-0.3,0.3l-0.4,0.1l-0.4,0.1L248.3,450.4"/>
<path style="fill:none;stroke:#231F20;stroke-miterlimit:10;" d="M248.3,421.9l-0.2,0.5l-0.4,0.4l-0.4,0.3l-0.4,0.4
	c-1.8-0.8-1-1.6-3.8-3c-1.1-0.9-3.5-2-4.9-2.1c2.4-2.3,6.4-0.8,8.3,1.4l2.5-1.4l0.8-0.1l0.9-0.1l0.8-0.1l0.8-0.2l0.8-0.1l0.8-0.1
	l0.8,0.1l0.8,0.2C253,419.3,250.7,420.6,248.3,421.9"/>
<path style="fill:none;stroke:#231F20;stroke-miterlimit:10;" d="M219.9,433.8c-0.2-1.4,0.1-1.4,0-2.3c1.1-0.4,1.7,0.1,2.8,0.3
	l0.2,1.6C221.9,433.9,220.9,433.7,219.9,433.8"/>
<path style="fill:none;stroke:#231F20;stroke-miterlimit:10;" d="M220.1,429.8l-0.1-2.2c1.1,0,1.8,0.2,2.7,0.8l-0.1,1.1L220.1,429.8
	"/>
<path style="fill:none;stroke:#231F20;stroke-miterlimit:10;" d="M221.6,446.4l-0.7-0.1l-0.7,0.1l-0.8,0.1l-0.8,0.1h-0.7l-0.5-0.1
	l-0.4-0.4l-0.2-0.8l-0.1-2.8l0.3-0.3l0.4-0.1l0.4-0.1c0.8,0,1.5,0.2,2.3,0.1l0.1-0.2h0.3l0.3,0.1l0.3,0.1l0.1,0.9l0.1,0.9l0.1,1
	l0.1,1L221.6,446.4"/>
<path style="fill:none;stroke:#231F20;stroke-miterlimit:10;" d="M214.5,433.8l-0.1-0.4v-0.5l0.1-0.4l0.1-0.3
	c1.2-0.4,2.5-0.1,3.7-0.1l0.1,0.4l0.1,0.4l0.1,0.4l0.1,0.5C217.3,434.1,215.7,434.9,214.5,433.8"/>
<path style="fill:none;stroke:#231F20;stroke-miterlimit:10;" d="M189,463.9c-1.6-2.4,3.6-1.6,2.6,0.5l0.2,0.1
	C190.8,465.3,190,464.2,189,463.9"/>
<path style="fill:none;stroke:#231F20;stroke-miterlimit:10;" d="M181.7,464c-2.3,0.2-4.1,0.1-2.9-2.8c0.9,0,1.7-0.1,2.6,0.3
	l0.3,0.1l0.2,0.3l0.2,0.5l0.1,0.5l-0.1,0.4L181.7,464"/>
<path style="fill:none;stroke:#231F20;stroke-miterlimit:10;" d="M178.2,448.3c-1.3,0-2.5,0.3-3.8,0.4l-0.1-2.8
	c1-0.2,2.5-0.3,3.5-0.8l0.1,0.8l0.1,0.8l0.1,0.8L178.2,448.3"/>
<path style="fill:none;stroke:#231F20;stroke-miterlimit:10;" d="M172.5,463.4c-0.9-0.4-2.3-0.3-1.6-2l0.3-0.8l0.4-0.4l0.7-0.4
	l0.3-0.1l0.3,0.1l0.2,0.1l0.3-0.2l0.5,0.2l0.5,0.4l0.4,0.3l0.4,0.4C175,462.8,173.7,462.7,172.5,463.4"/>
<path style="fill:none;stroke:#231F20;stroke-miterlimit:10;" d="M170.8,448.5l-0.1-0.5l-0.1-0.7l-0.1-0.5v-0.7h0.4l0.4-0.1h0.4h0.4
	l0.1,0.5v0.8l-0.1,0.7l0.1,0.7L170.8,448.5"/>
<path style="fill:none;stroke:#231F20;stroke-miterlimit:10;" d="M170.1,444.1v-2.8c1.6,0.7,2.7-0.9,2.1,2.6L170.1,444.1"/>
<path style="fill:none;stroke:#231F20;stroke-miterlimit:10;" d="M146.4,444l-0.2,0.1l-0.2,0.1h-0.2l-0.2-0.1l-0.4-1l0.1-1l0.8-1.7
	l0.3-0.1l0.2,0.1l0.2,0.2l0.2,0.1l0.1,0.8l-0.1,0.8l-0.2,0.9L146.4,444"/>
<path style="fill:none;stroke:#231F20;stroke-miterlimit:10;" d="M144.8,438l-0.4,0.1L144,438l-0.3-0.2l-0.4-0.1l-0.3-0.8v-0.9
	l0.2-0.8l0.4-0.8l0.2-0.1h0.2l0.2,0.1l0.2,0.1l0.5,0.8l0.2,1.1l-0.1,1L144.8,438"/>
<path style="fill:none;stroke:#231F20;stroke-miterlimit:10;" d="M148.2,449.4l-0.4,0.1l-0.3-0.1l-0.3-0.2l-0.4-0.1l-0.3-0.8v-0.9
	l0.2-0.8l0.4-0.8l0.2-0.1h0.2l0.2,0.1l0.2,0.1l0.5,0.8l0.2,1.1l-0.1,1L148.2,449.4"/>
<path style="fill:none;stroke:#231F20;stroke-miterlimit:10;" d="M142,445.2l-0.5-0.1l-0.3-0.4l-0.3-0.4l-0.1-0.4l0.1-0.3l0.2-0.3
	l0.2-0.2l0.4,0.1l0.4,0.1l0.3,0.3l0.2,0.3l0.1,0.4l-0.1,0.3l-0.1,0.3l-0.2,0.2L142,445.2"/>
<path style="fill:none;stroke:#231F20;stroke-miterlimit:10;" d="M141.1,440.7l-0.8-0.1l-0.7-0.3l-0.4-0.4l-0.3-0.7v-0.3l0.1-0.2
	l0.1-0.2l0.1-0.3l0.2-0.1l0.2-0.1h0.3h0.3l0.7,0.5l0.5,0.8l0.1,0.8L141.1,440.7"/>
<path style="fill:none;stroke:#231F20;stroke-miterlimit:10;" d="M472.2,465.3l0.5-0.4l-0.2-2.9l-15.7,0.4l-5.2,0.7l-0.2,0.9
	l0.4,2.4l7.6-0.3L472.2,465.3L472.2,465.3z"/>
<path style="fill:none;stroke:#231F20;stroke-miterlimit:10;" d="M472.2,465.3l0.5-0.4l-0.2-2.9l-15.7,0.4l-5.2,0.7l-0.2,0.9
	l0.4,2.4l7.6-0.3L472.2,465.3L472.2,465.3z"/>
<path style="fill:none;stroke:#231F20;stroke-miterlimit:10;" d="M446.3,465.2l0.1-1.2l-0.1-1l-0.7-0.3h-4.1l-6.6,0.4l-3.9,0.1
	l-1.6-0.3l-0.8,0.4h-1.3l-0.5,0.8l-0.3,0.9l-0.4,1.7l20-0.2L446.3,465.2L446.3,465.2z"/>
<path style="fill:none;stroke:#231F20;stroke-miterlimit:10;" d="M446.3,465.2l0.1-1.2l-0.1-1l-0.7-0.3h-4.1l-6.6,0.4l-3.9,0.1
	l-1.6-0.3l-0.8,0.4h-1.3l-0.5,0.8l-0.3,0.9l-0.4,1.7l20-0.2L446.3,465.2L446.3,465.2z"/>
<path style="fill:none;stroke:#231F20;stroke-miterlimit:10;" d="M545.6,432.6c0.8-4,1.2-6.4-2-9.3c0.1-2.4-1.3-4.7-3.8-3.4
	c-0.4-1.5,0.7-3.7-2-5.6c-3.4-1.3-3.3-1.3-5.7,0c-0.5-2.4-2.2-8.7-7-4.4l-0.3,1.1c-1.7-0.1-1.2,0-1.7-1.6
	c-1.2-13.3-19.4-7.5-15.7-0.5l0.1,0.7l-1.1,0.3c-2.4-2-4.6-0.2-4.4,2.5c0.2,0.9,0.8,1.8,0.2,2.6c-0.8,0.1-2.1-0.1-2.9,0
	c-2.5,2.9-0.2,6-2,8.6c-1.4,0-1.1-0.1-2-1.3c-4.2-1.7-6.1,4-6.3,7.3c-9.2,0.5-5.9,9.1-0.1,13.1c-1.3,3-2.7,4.3-0.7,6.9
	c2.2,1,2.7,0.8,4.4-0.8l6.1,0.1l-2.5-3.1l1.3-0.4l3,3l-2.9-8.2h0.7l3.4,5.7c1.6-3.8,5.6-5.7,1.4-10.2l0.1-1l1.7,2l0.7-0.4l-0.8-6.2
	c-1.6-1.2-2.6-1.5-2.2-3.6l0.9,0.1c1.4,2.6,1.8,2.8,4.9,3l0.9,1.1c-0.4,1.7-1,2.6,0.8,4l0.5-0.8l1.2,0.5l1.2,4.2
	c1.6,0.2,3.4,1.1,4.4-0.3l-1.4-2.4l0.9-0.1c2.3,1.8,2.9,1.3,5.7,1.3c1.5,3,1.7,3.4,5.1,2.7c-1.2,1.3-3,0.5-4.7,0.2l-1-1.7
	c-3.7,1-4.6,2.9-2.2,5.9c2.9,0.2,3.1-1.5,6.6,0.1c4.2,0.8,6.2-1.6,10.2,1.3c4.9,0.2,5.5-2.5,4.8-6.7
	C544.6,436.3,544.4,436.3,545.6,432.6L545.6,432.6z"/>
<path style="fill:none;stroke:#231F20;stroke-miterlimit:10;" d="M485.5,474.3L485,475l-0.8-0.3l0.4-0.7l1-0.3L485.5,474.3
	L485.5,474.3z"/>
<path style="fill:none;stroke:#231F20;stroke-miterlimit:10;" d="M485.5,474.3L485,475l-0.8-0.3l0.4-0.7l1-0.3L485.5,474.3
	L485.5,474.3z"/>
<path style="fill:none;stroke:#231F20;stroke-miterlimit:10;" d="M509.9,473.6l0.2,0.2v0.3h-0.3h-0.2v-0.2l-0.2-0.1l0.2-0.1v-0.2
	l0.2,0.1H509.9L509.9,473.6z"/>
<path style="fill:none;stroke:#231F20;stroke-miterlimit:10;" d="M509.9,473.6l0.2,0.2v0.3h-0.3h-0.2v-0.2l-0.2-0.1l0.2-0.1v-0.2
	l0.2,0.1H509.9L509.9,473.6z"/>
<path style="fill:none;stroke:#231F20;stroke-miterlimit:10;" d="M512.2,475.2l-0.7-0.3l-0.2-0.5l0.5-0.5l0.7,0.1l0.4,0.5v0.8H512.2
	L512.2,475.2z"/>
<path style="fill:none;stroke:#231F20;stroke-miterlimit:10;" d="M512.2,475.2l-0.7-0.3l-0.2-0.5l0.5-0.5l0.7,0.1l0.4,0.5v0.8H512.2
	L512.2,475.2z"/>
<path style="fill:none;stroke:#231F20;stroke-miterlimit:10;" d="M525.3,474.7l-0.1-0.1h-0.2l1-1l1.1-0.2l0.2,0.3l-0.3,0.4l-0.5,0.4
	l-0.5,0.3h-0.3L525.3,474.7L525.3,474.7z"/>
<path style="fill:none;stroke:#231F20;stroke-miterlimit:10;" d="M525.3,474.7l-0.1-0.1h-0.2l1-1l1.1-0.2l0.2,0.3l-0.3,0.4l-0.5,0.4
	l-0.5,0.3h-0.3L525.3,474.7L525.3,474.7z"/>
<path style="fill:none;stroke:#231F20;stroke-miterlimit:10;" d="M528.4,474.8l-0.2-0.3V474l0.7-0.3l0.7,0.1v0.4l-0.4,0.4h-0.3
	L528.4,474.8L528.4,474.8z"/>
<path style="fill:none;stroke:#231F20;stroke-miterlimit:10;" d="M528.4,474.8l-0.2-0.3V474l0.7-0.3l0.7,0.1v0.4l-0.4,0.4h-0.3
	L528.4,474.8L528.4,474.8z"/>
<path style="fill:none;stroke:#231F20;stroke-miterlimit:10;" d="M535.4,474.7L535,474l0.1-0.8l0.3-0.1l0.3,0.1l0.2,0.3l0.2,0.4
	l-0.1,0.5L535.4,474.7z"/>
<path style="fill:none;stroke:#231F20;stroke-miterlimit:10;" d="M535.4,474.7L535,474l0.1-0.8l0.3-0.1l0.3,0.1l0.2,0.3l0.2,0.4
	l-0.1,0.5L535.4,474.7z"/>
<path style="fill:#231F20;" d="M533.5,437.2l-0.3,0.8l-2.4,0.9l-0.8-0.1l-1.1-0.9l-0.9-1.2l-0.2-0.8l0.2-0.7h0.8l0.9,0.7l0.8,2.1
	L533.5,437.2L533.5,437.2z"/>
<path style="fill:none;stroke:#231F20;stroke-width:0.214;stroke-linejoin:bevel;stroke-miterlimit:2.613;" d="M533.5,437.2
	l-0.3,0.8l-2.4,0.9l-0.8-0.1l-1.1-0.9l-0.9-1.2l-0.2-0.8l0.2-0.7h0.8l0.9,0.7l0.8,2.1L533.5,437.2L533.5,437.2z"/>
<path style="fill:#231F20;" d="M524.8,423.8l-1.2,0.1l-0.5-0.9L523,422l-0.1-1.2l-0.8-0.9l-1.3,0.2l-1.3,1.2h-1.1l-0.8-1l-0.9-2.2
	l-0.8-0.7l-1.6-0.1l-1.6,0.5l-1.4,1.1l-1.2,1.4h-0.5c1.5-4.4,8.2-6.1,10.3-0.8l0.9-0.4l1.5-0.1l1.4,0.5l0.9,1.2l0.2,1.7l1.6-0.8
	l1,0.2l1.7,1.5l-2-0.9l-1.4,0.3L524.8,423.8L524.8,423.8z"/>
<path style="fill:none;stroke:#231F20;stroke-width:0.214;stroke-linejoin:bevel;stroke-miterlimit:2.613;" d="M524.8,423.8
	l-1.2,0.1l-0.5-0.9L523,422l-0.1-1.2l-0.8-0.9l-1.3,0.2l-1.3,1.2h-1.1l-0.8-1l-0.9-2.2l-0.8-0.7l-1.6-0.1l-1.6,0.5l-1.4,1.1
	l-1.2,1.4h-0.5c1.5-4.4,8.2-6.1,10.3-0.8l0.9-0.4l1.5-0.1l1.4,0.5l0.9,1.2l0.2,1.7l1.6-0.8l1,0.2l1.7,1.5l-2-0.9l-1.4,0.3
	L524.8,423.8L524.8,423.8z"/>
<path style="fill:none;stroke:#231F20;stroke-miterlimit:10;" d="M510.6,445.4l-0.1-0.5l-0.2-2.6l0.7-2.9l-0.3-0.2l-1.3,2.1
	l-1.3-2.8l-1.1-1.2l-0.3,0.5l2.2,4.4l1,3.5l-0.1,0.9l0.3,2l1.4,1.7l3,5.5l0.5,2.1l2.9,0.2l0.5-0.8l0.3-0.8l0.3-1.8l0.4-0.9l0.8,0.4
	l0.7-0.1l0.5-1.1l2.3-2l2.8-2.6l1.5-2.9l-2.3-0.3l-1.1,2.1l-1.2,1.8l-2.5,2.1l-2.8,1.5l-0.5-0.5l-0.4-2.5l0.2-4l0.7-2.4l-0.8-0.8
	l-0.7-1.5l-0.9,4.1l-0.2,2.2l-0.5,2.1l-1.5-0.2l-1.3-0.9l-1-1.3L510.6,445.4L510.6,445.4z"/>
<path style="fill:none;stroke:#231F20;stroke-miterlimit:10;" d="M510.6,445.4l-0.1-0.5l-0.2-2.6l0.7-2.9l-0.3-0.2l-1.3,2.1
	l-1.3-2.8l-1.1-1.2l-0.3,0.5l2.2,4.4l1,3.5l-0.1,0.9l0.3,2l1.4,1.7l3,5.5l0.5,2.1l2.9,0.2l0.5-0.8l0.3-0.8l0.3-1.8l0.4-0.9l0.8,0.4
	l0.7-0.1l0.5-1.1l2.3-2l2.8-2.6l1.5-2.9l-2.3-0.3l-1.1,2.1l-1.2,1.8l-2.5,2.1l-2.8,1.5l-0.5-0.5l-0.4-2.5l0.2-4l0.7-2.4l-0.8-0.8
	l-0.7-1.5l-0.9,4.1l-0.2,2.2l-0.5,2.1l-1.5-0.2l-1.3-0.9l-1-1.3L510.6,445.4L510.6,445.4z"/>
<path style="fill:none;stroke:#231F20;stroke-miterlimit:10;" d="M539.2,465.6l0.5,0.9l-0.1,1.1v3.6l1,3.1l1.1,0.2l1.2-0.1l1.1-0.4
	l-0.4-2.1l-0.8-2.1l-0.1-2.5v-2.6l-0.4-1.5l-0.3-1.5l0.3-0.9l-0.5-4.9l-0.5-1.5h-2.4l-0.3,0.3L539.2,465.6L539.2,465.6z"/>
<path style="fill:none;stroke:#231F20;stroke-miterlimit:10;" d="M539.2,465.6l0.5,0.9l-0.1,1.1v3.6l1,3.1l1.1,0.2l1.2-0.1l1.1-0.4
	l-0.4-2.1l-0.8-2.1l-0.1-2.5v-2.6l-0.4-1.5l-0.3-1.5l0.3-0.9l-0.5-4.9l-0.5-1.5h-2.4l-0.3,0.3L539.2,465.6L539.2,465.6z"/>
<path style="fill:none;stroke:#231F20;stroke-miterlimit:10;" d="M533.4,460.6l1.5,0.1l3.6-0.1l-0.1-2.5l-4.1-0.1h-3.7l-6.7,0.4
	l-0.5,2.6h4.2L533.4,460.6L533.4,460.6z"/>
<path style="fill:none;stroke:#231F20;stroke-miterlimit:10;" d="M533.4,460.6l1.5,0.1l3.6-0.1l-0.1-2.5l-4.1-0.1h-3.7l-6.7,0.4
	l-0.5,2.6h4.2L533.4,460.6L533.4,460.6z"/>
<path style="fill:none;stroke:#231F20;stroke-miterlimit:10;" d="M538.2,469.4l0.4-2.9l-6.9,0.1l-6.2-0.1l-2.9,0.4l-0.1,2.4l6.3,0.1
	l3.7-0.1L538.2,469.4z"/>
<path style="fill:none;stroke:#231F20;stroke-miterlimit:10;" d="M538.2,469.4l0.4-2.9l-6.9,0.1l-6.2-0.1l-2.9,0.4l-0.1,2.4l6.3,0.1
	l3.7-0.1L538.2,469.4z"/>
<path style="fill:none;stroke:#231F20;stroke-miterlimit:10;" d="M517.8,473.6l1.5,0.4l1.4-0.3l1-17.3l0.7-1.3l-1.8-0.2l-1,1.4
	l-0.2,4.7l-0.5,7.9L517.8,473.6z"/>
<path style="fill:none;stroke:#231F20;stroke-miterlimit:10;" d="M517.8,473.6l1.5,0.4l1.4-0.3l1-17.3l0.7-1.3l-1.8-0.2l-1,1.4
	l-0.2,4.7l-0.5,7.9L517.8,473.6z"/>
<path style="fill:none;stroke:#231F20;stroke-miterlimit:10;" d="M518.2,465.5l-0.3-2.7h-2l0.4,2.7H518.2L518.2,465.5z"/>
<path style="fill:none;stroke:#231F20;stroke-miterlimit:10;" d="M518.2,465.5l-0.3-2.7h-2l0.4,2.7H518.2L518.2,465.5z"/>
<path style="fill:none;stroke:#231F20;stroke-miterlimit:10;" d="M518.3,460.7v-2.1l-11.7-0.1l-2.6-0.2h-0.2l-2.3-0.2l-0.5,0.4v1.7
	l0.3,0.3l12.5,0.5L518.3,460.7L518.3,460.7z"/>
<path style="fill:none;stroke:#231F20;stroke-miterlimit:10;" d="M518.3,460.7v-2.1l-11.7-0.1l-2.6-0.2h-0.2l-2.3-0.2l-0.5,0.4v1.7
	l0.3,0.3l12.5,0.5L518.3,460.7L518.3,460.7z"/>
<path style="fill:none;stroke:#231F20;stroke-miterlimit:10;" d="M517.7,469.4l0.1-2.5l-1.4-0.3h-2.8l-7.4-0.3l-4,0.2l0.1,2.6
	l3.4,0.2L517.7,469.4L517.7,469.4z"/>
<path style="fill:none;stroke:#231F20;stroke-miterlimit:10;" d="M517.7,469.4l0.1-2.5l-1.4-0.3h-2.8l-7.4-0.3l-4,0.2l0.1,2.6
	l3.4,0.2L517.7,469.4L517.7,469.4z"/>
<path style="fill:none;stroke:#231F20;stroke-miterlimit:10;" d="M500.5,468.2l-0.9-10.2l-0.8-0.9l0.1-2.3l-1.5-0.9h-0.2l0.5,6.1
	l0.8,0.5v3.1l0.3,3.1l0.4,3l0.4,3.5l2.2,0.3L500.5,468.2z"/>
<path style="fill:none;stroke:#231F20;stroke-miterlimit:10;" d="M500.5,468.2l-0.9-10.2l-0.8-0.9l0.1-2.3l-1.5-0.9h-0.2l0.5,6.1
	l0.8,0.5v3.1l0.3,3.1l0.4,3l0.4,3.5l2.2,0.3L500.5,468.2z"/>
<path style="fill:none;stroke:#231F20;stroke-miterlimit:10;" d="M498.1,468.7l-0.1-1.6l-0.7-0.8l-3.4-0.2l-3.8,0.2l-12.5,0.4
	l-0.1,1.1l0.4,1.3l0.1,0.1l0.8-0.4l9.2,0.1l9.4,0.2L498.1,468.7z"/>
<path style="fill:none;stroke:#231F20;stroke-miterlimit:10;" d="M498.1,468.7l-0.1-1.6l-0.7-0.8l-3.4-0.2l-3.8,0.2l-12.5,0.4
	l-0.1,1.1l0.4,1.3l0.1,0.1l0.8-0.4l9.2,0.1l9.4,0.2L498.1,468.7z"/>
<path style="fill:none;stroke:#231F20;stroke-miterlimit:10;" d="M496.6,460.1l0.1-1.1l-0.3-0.7l-3-0.4l-9.5-0.3l-6.4,0.2l0.3,2.6
	l11.4-0.2l6.4,0.2L496.6,460.1L496.6,460.1z"/>
<path style="fill:none;stroke:#231F20;stroke-miterlimit:10;" d="M496.6,460.1l0.1-1.1l-0.3-0.7l-3-0.4l-9.5-0.3l-6.4,0.2l0.3,2.6
	l11.4-0.2l6.4,0.2L496.6,460.1L496.6,460.1z"/>
<path style="fill:none;stroke:#231F20;stroke-miterlimit:10;" d="M472.6,459.8l0.5-1.1l-0.3-1.5l-14.7,0.2l-6.4,0.4l-0.3,0.5v1.4
	l0.4,1.1l8-0.2L472.6,459.8L472.6,459.8z"/>
<path style="fill:none;stroke:#231F20;stroke-miterlimit:10;" d="M472.6,459.8l0.5-1.1l-0.3-1.5l-14.7,0.2l-6.4,0.4l-0.3,0.5v1.4
	l0.4,1.1l8-0.2L472.6,459.8L472.6,459.8z"/>
<path style="fill:none;stroke:#231F20;stroke-miterlimit:10;" d="M473.7,467.4l-0.5,5.1l0.2,1.5l1.6,0.1l1.1-1l0.1-1.1l-0.3-2.1
	l-0.3-1.7l0.1-6.9l0.1-7.2l-1.2,0.5l-0.4-0.9l-0.8,0.4l0.5,1.7l-0.3,6.1L473.7,467.4z"/>
<path style="fill:none;stroke:#231F20;stroke-miterlimit:10;" d="M473.7,467.4l-0.5,5.1l0.2,1.5l1.6,0.1l1.1-1l0.1-1.1l-0.3-2.1
	l-0.3-1.7l0.1-6.9l0.1-7.2l-1.2,0.5l-0.4-0.9l-0.8,0.4l0.5,1.7l-0.3,6.1L473.7,467.4z"/>
<path style="fill:none;stroke:#231F20;stroke-miterlimit:10;" d="M472.3,469l0.2-0.3l-0.1-2.1l-9-0.1l-9.8,0.5l-1.4,0.1l-0.4,0.4
	l-0.2,1.2l-0.1,1l1.6,0.3l15.9-0.5L472.3,469L472.3,469z"/>
<path style="fill:none;stroke:#231F20;stroke-miterlimit:10;" d="M472.3,469l0.2-0.3l-0.1-2.1l-9-0.1l-9.8,0.5l-1.4,0.1l-0.4,0.4
	l-0.2,1.2l-0.1,1l1.6,0.3l15.9-0.5L472.3,469L472.3,469z"/>
<path style="fill:none;stroke:#231F20;stroke-miterlimit:10;" d="M449.9,471.5c0-5.1-1.5-10.5,0.2-15.5c-1.1-0.8,0.4-1.5-2.7-2.9
	l-0.3,1.4v1.3l0.5,2.5l-0.1,2.4l-0.1,3.5v3.5l0.1,3.5l0.4,3.5l0.2,0.1l0.5-0.1l0.7-0.4l0.4-0.5v-1L449.9,471.5z"/>
<path style="fill:none;stroke:#231F20;stroke-miterlimit:10;" d="M449.9,471.5c0-5.1-1.5-10.5,0.2-15.5c-1.1-0.8,0.4-1.5-2.7-2.9
	l-0.3,1.4v1.3l0.5,2.5l-0.1,2.4l-0.1,3.5v3.5l0.1,3.5l0.4,3.5l0.2,0.1l0.5-0.1l0.7-0.4l0.4-0.5v-1L449.9,471.5z"/>
<path style="fill:none;stroke:#231F20;stroke-miterlimit:10;" d="M444.5,461.1l1.7-0.4l0.5-2l-0.4-0.8h-3.9l-9.7,0.1l-2.5-0.2h-1.1
	l-0.7,0.7l-0.7,2.8l1.8,0.2l12.6-0.5L444.5,461.1L444.5,461.1z"/>
<path style="fill:none;stroke:#231F20;stroke-miterlimit:10;" d="M444.5,461.1l1.7-0.4l0.5-2l-0.4-0.8h-3.9l-9.7,0.1l-2.5-0.2h-1.1
	l-0.7,0.7l-0.7,2.8l1.8,0.2l12.6-0.5L444.5,461.1L444.5,461.1z"/>
<path style="fill:none;stroke:#231F20;stroke-miterlimit:10;" d="M424.1,467.5l0.7-2.3l0.8-2.4l1-2.9l1.1-3l-0.2-0.3l-0.3-0.2
	l-0.2-0.3l0.1-0.5V455l-0.3-0.3l-0.7-0.2l-0.7-0.1h-0.7l-0.5,0.4c0.3,3.1-1.3,4.1-1.2,7c0.2,2.7,0.1,2.3-0.7,4.9
	c-0.8,2.2-1.1,4.6-1.8,6.7c-0.4,2.8,1.2,1.8,2.7,1.4L423,473l0.1-1.8l0.3-1.8L424.1,467.5L424.1,467.5z"/>
<path style="fill:none;stroke:#231F20;stroke-miterlimit:10;" d="M424.1,467.5l0.7-2.3l0.8-2.4l1-2.9l1.1-3l-0.2-0.3l-0.3-0.2
	l-0.2-0.3l0.1-0.5V455l-0.3-0.3l-0.7-0.2l-0.7-0.1h-0.7l-0.5,0.4c0.3,3.1-1.3,4.1-1.2,7c0.2,2.7,0.1,2.3-0.7,4.9
	c-0.8,2.2-1.1,4.6-1.8,6.7c-0.4,2.8,1.2,1.8,2.7,1.4L423,473l0.1-1.8l0.3-1.8L424.1,467.5L424.1,467.5z"/>
<path style="fill:none;stroke:#231F20;stroke-miterlimit:10;" d="M420.7,461.8l0.9-0.1l0.8-1l0.3-1.4l-0.1-0.5l-0.5-0.5l-8.8,0.4
	l-2.3-0.1l-0.1,3.1l8.8-0.2L420.7,461.8L420.7,461.8z"/>
<path style="fill:none;stroke:#231F20;stroke-miterlimit:10;" d="M420.7,461.8l0.9-0.1l0.8-1l0.3-1.4l-0.1-0.5l-0.5-0.5l-8.8,0.4
	l-2.3-0.1l-0.1,3.1l8.8-0.2L420.7,461.8L420.7,461.8z"/>
<path style="fill:none;stroke:#231F20;stroke-miterlimit:10;" d="M420.2,470.9l1.2-2.9l-9.7,0.4l-0.5,0.7l0.2,1.5l2.2,0.7
	L420.2,470.9L420.2,470.9z"/>
<path style="fill:none;stroke:#231F20;stroke-miterlimit:10;" d="M420.2,470.9l1.2-2.9l-9.7,0.4l-0.5,0.7l0.2,1.5l2.2,0.7
	L420.2,470.9L420.2,470.9z"/>
<path style="fill:none;stroke:#231F20;stroke-miterlimit:10;" d="M446.4,469.1l-0.1-1.6l-0.7-0.4l-2.2,0.2l-8.1-0.2l-9.3,0.5
	l-0.7,0.9l-0.2,1.2l0.2,0.9l15.4-0.2l5.2-0.4L446.4,469.1L446.4,469.1z"/>
<path style="fill:none;stroke:#231F20;stroke-miterlimit:10;" d="M446.4,469.1l-0.1-1.6l-0.7-0.4l-2.2,0.2l-8.1-0.2l-9.3,0.5
	l-0.7,0.9l-0.2,1.2l0.2,0.9l15.4-0.2l5.2-0.4L446.4,469.1L446.4,469.1z"/>
<path style="fill:#231F20;" d="M429.5,476.4l1-0.2l1.2,0.2l-0.1,0.3H431l-0.5-0.1l-1.2,0.2L429.5,476.4L429.5,476.4z"/>
<path style="fill:none;stroke:#231F20;stroke-width:0.214;stroke-linejoin:bevel;stroke-miterlimit:2.613;" d="M429.5,476.4l1-0.2
	l1.2,0.2l-0.1,0.3H431l-0.5-0.1l-1.2,0.2L429.5,476.4L429.5,476.4z"/>
<path style="fill:none;stroke:#231F20;stroke-miterlimit:10;" d="M233.3,467.3l0.5-0.4l-0.2-2.9l-15.7,0.4l-5.2,0.7l-0.2,0.9
	l0.4,2.4l7.6-0.2L233.3,467.3L233.3,467.3z"/>
<path style="fill:none;stroke:#231F20;stroke-miterlimit:10;" d="M233.3,467.3l0.5-0.4l-0.2-2.9l-15.7,0.4l-5.2,0.7l-0.2,0.9
	l0.4,2.4l7.6-0.2L233.3,467.3L233.3,467.3z"/>
<path style="fill:none;stroke:#231F20;stroke-miterlimit:10;" d="M207.4,467.2l0.1-1.2l-0.1-1l-0.7-0.3h-4.1l-6.6,0.4l-3.9,0.1
	l-1.6-0.3l-0.8,0.4h-1.3l-0.5,0.8l-0.3,0.9l-0.4,1.7l20-0.2L207.4,467.2L207.4,467.2z"/>
<path style="fill:none;stroke:#231F20;stroke-miterlimit:10;" d="M207.4,467.2l0.1-1.2l-0.1-1l-0.7-0.3h-4.1l-6.6,0.4l-3.9,0.1
	l-1.6-0.3l-0.8,0.4h-1.3l-0.5,0.8l-0.3,0.9l-0.4,1.7l20-0.2L207.4,467.2L207.4,467.2z"/>
<path style="fill:none;stroke:#231F20;stroke-miterlimit:10;" d="M306,434.4c0.8-3.5,1.1-7.2-2.2-9.5v-1.1l-0.2-0.9l-1.1-0.8h-1.1
	l-0.9,0.8l0.4,0.9l-1.3,0.2l-1.2-0.8l-0.5-1.5l0.8-2.9l0.2-1.4l-0.3-1.5l-1.5-0.5l-1.7,0.5l-2.2,1.5l-1,0.2l-1-0.8l-0.7-2.1
	l-0.1-1.4l-0.2-1.3l-1.3-1.2h-1.4l-1,0.9l-1,1.1l-0.2,0.9c-5.1,0.3-0.5-5.3-6.4-9.3l-2.2-0.8l-2.5-0.3l-2.7,0.2l-3.1,1.2l-1.3,1.3
	l-0.3,1.4l0.7,1.5v0.7h-0.8l-0.5,0.3l-1.1-0.9l-1.2-0.1l-1.2,0.4l-1,0.8l-0.2,0.5l-0.2,0.5l-0.1,0.8l0.1,0.7l0.1,0.8l-0.1,0.8
	l-0.2,0.2l-0.4,0.1l-0.7-0.1l-0.5-0.2l-1.6-0.2l-0.8,1.4l-0.9,2l-0.4,2v1.6l-0.8,0.7h-0.3h-0.3l-0.8-0.4l-1.1-0.3l-0.5,0.4l-0.4,0.5
	l-0.8,2.1l-0.2,2.6l0.3,2.9l-0.1,2.1l-2,0.1l-2,0.5l-1.2,1.3l-1.1,2.7l1,3l1.2,2l1.4,1.6l1.7,1.2l-1.6,3.6l-0.1,1.8l1.2,1.4l1.5,0.8
	l1.6-0.4l1.2-1l1.2,1.2l1.5,0.8l1.7-0.5l1.4-1.4l-2.5-3l1.2-0.3l1.5,1.7l1.4,1.3l-1.2-4.3l-1.6-3.7h0.7l3.4,5.5l1.1-2.4l1.7-1.5
	l0.3-0.8l-0.3-3.9l-1.3-1.4l1.8,1l0.7-0.4c2.2-0.8,7.9,8.3,6.2,0.2l0.9,2.1l2.8,0.4l1-0.1l0.5-0.7l-1.4-1.6v-0.8l0.9-0.1l1.7,1.4
	l2-0.1h2l1.1,2.2l0.9,0.7l1.3,0.1l1.6-0.3l-0.5,0.5l-1,0.3l-2.3-0.5l-1-1.7l-1.5,0.4l-1.5,1.2l-0.4,1.2l0.1,1.3l1.3,1.5l1.4,0.1
	l1.5-0.9l2,0.1l1.6,0.8l2.2,0.3l2.9-0.8l2.9,0.2l2,1.4l2.5,0.1l1.7-1.3l0.8-1.6l0.1-1.8l-0.3-2l1.4-1.1l1.3-1.2l0.3-0.5L306,434.4
	L306,434.4z"/>
<path style="fill:#231F20;" d="M246.5,476.3l-0.4,0.7l-0.8-0.3l0.4-0.7l1-0.3L246.5,476.3L246.5,476.3z"/>
<path style="fill:none;stroke:#231F20;stroke-width:0.214;stroke-linejoin:bevel;stroke-miterlimit:2.613;" d="M246.5,476.3
	l-0.4,0.7l-0.8-0.3l0.4-0.7l1-0.3L246.5,476.3L246.5,476.3z"/>
<path style="fill:#231F20;" d="M271,475.5l0.2,0.2v0.3h-0.3h-0.2v-0.2l-0.2-0.1l0.2-0.1v-0.2l0.2,0.1H271L271,475.5z"/>
<path style="fill:none;stroke:#231F20;stroke-width:0.214;stroke-linejoin:bevel;stroke-miterlimit:2.613;" d="M271,475.5l0.2,0.2
	v0.3h-0.3h-0.2v-0.2l-0.2-0.1l0.2-0.1v-0.2l0.2,0.1H271L271,475.5z"/>
<path style="fill:#231F20;" d="M273.4,477.2l-0.7-0.3l-0.2-0.5l0.5-0.5l0.7,0.1l0.4,0.5v0.8h-0.4H273.4L273.4,477.2z"/>
<path style="fill:none;stroke:#231F20;stroke-width:0.214;stroke-linejoin:bevel;stroke-miterlimit:2.613;" d="M273.4,477.2
	l-0.7-0.3l-0.2-0.5l0.5-0.5l0.7,0.1l0.4,0.5v0.8h-0.4H273.4L273.4,477.2z"/>
<path style="fill:#231F20;" d="M286.4,476.6l-0.1-0.1H286l1-1l1.1-0.2l0.2,0.3l-0.3,0.4l-0.5,0.4l-0.5,0.3h-0.3L286.4,476.6
	L286.4,476.6z"/>
<path style="fill:none;stroke:#231F20;stroke-width:0.214;stroke-linejoin:bevel;stroke-miterlimit:2.613;" d="M286.4,476.6
	l-0.1-0.1H286l1-1l1.1-0.2l0.2,0.3l-0.3,0.4l-0.5,0.4l-0.5,0.3h-0.3L286.4,476.6L286.4,476.6z"/>
<path style="fill:#231F20;" d="M289.5,476.7l-0.2-0.3V476l0.7-0.3l0.7,0.1v0.4l-0.4,0.4h-0.3L289.5,476.7L289.5,476.7z"/>
<path style="fill:none;stroke:#231F20;stroke-width:0.214;stroke-linejoin:bevel;stroke-miterlimit:2.613;" d="M289.5,476.7
	l-0.2-0.3V476l0.7-0.3l0.7,0.1v0.4l-0.4,0.4h-0.3L289.5,476.7L289.5,476.7z"/>
<path style="fill:#231F20;" d="M296.6,476.6l-0.4-0.7l0.1-0.8l0.3-0.1l0.3,0.1l0.2,0.3l0.2,0.4l-0.1,0.5L296.6,476.6z"/>
<path style="fill:none;stroke:#231F20;stroke-width:0.214;stroke-linejoin:bevel;stroke-miterlimit:2.613;" d="M296.6,476.6
	l-0.4-0.7l0.1-0.8l0.3-0.1l0.3,0.1l0.2,0.3l0.2,0.4l-0.1,0.5L296.6,476.6z"/>
<path style="fill:none;stroke:#231F20;stroke-miterlimit:10;" d="M294.6,439.1l-0.3,0.8l-2.4,0.9l-0.8-0.1l-1.1-0.9l-0.9-1.2
	l-0.2-0.8l0.2-0.7h0.8l0.9,0.7l0.8,2.1L294.6,439.1L294.6,439.1z"/>
<path style="fill:none;stroke:#231F20;stroke-miterlimit:10;" d="M294.6,439.1l-0.3,0.8l-2.4,0.9l-0.8-0.1l-1.1-0.9l-0.9-1.2
	l-0.2-0.8l0.2-0.7h0.8l0.9,0.7l0.8,2.1L294.6,439.1L294.6,439.1z"/>
<path style="fill:none;stroke:#231F20;stroke-miterlimit:10;" d="M271.7,447.3l-0.1-0.5l-0.2-2.6l0.7-2.9l-0.3-0.2l-1.3,2.1
	l-1.3-2.8l-1.1-1.2l-0.3,0.5l2.2,4.4l1,3.5l-0.1,0.9l0.3,2l1.4,1.7l3,5.5l0.5,2.1l2.9,0.2l0.5-0.8l0.3-0.8l0.3-1.8l0.3-0.9l0.8,0.4
	l0.7-0.1l0.5-1.1l2.3-2l1.7-2.6l1.5-2.9l-1.2-0.3l-1.1,2.1l-1.2,1.8l-2.5,2.1l-2.8,1.5l-0.5-0.5l-0.5-2.4l0.2-4l0.7-2.4l-0.8-0.8
	l-0.7-1.5l-0.9,4.1l-0.2,2.2l-0.5,2.1l-1.5-0.2l-1.3-0.9l-1-1.3L271.7,447.3L271.7,447.3z"/>
<path style="fill:none;stroke:#231F20;stroke-miterlimit:10;" d="M271.7,447.3l-0.1-0.5l-0.2-2.6l0.7-2.9l-0.3-0.2l-1.3,2.1
	l-1.3-2.8l-1.1-1.2l-0.3,0.5l2.2,4.4l1,3.5l-0.1,0.9l0.3,2l1.4,1.7l3,5.5l0.5,2.1l2.9,0.2l0.5-0.8l0.3-0.8l0.3-1.8l0.3-0.9l0.8,0.4
	l0.7-0.1l0.5-1.1l2.3-2l1.7-2.6l1.5-2.9l-1.2-0.3l-1.1,2.1l-1.2,1.8l-2.5,2.1l-2.8,1.5l-0.5-0.5l-0.5-2.4l0.2-4l0.7-2.4l-0.8-0.8
	l-0.7-1.5l-0.9,4.1l-0.2,2.2l-0.5,2.1l-1.5-0.2l-1.3-0.9l-1-1.3L271.7,447.3L271.7,447.3z"/>
<path style="fill:none;stroke:#231F20;stroke-miterlimit:10;" d="M300.4,467.5l0.5,0.9l-0.1,1.1v3.6l1,3.1l1.1,0.2l1.2-0.1l1.1-0.4
	l-0.4-2.1l-0.8-2.1v-2.5l-0.1-2.6l-0.4-1.5l-0.3-1.5l0.3-0.9l-0.5-4.9l-0.5-1.5h-2.4l-0.3,0.4L300.4,467.5z"/>
<path style="fill:none;stroke:#231F20;stroke-miterlimit:10;" d="M300.4,467.5l0.5,0.9l-0.1,1.1v3.6l1,3.1l1.1,0.2l1.2-0.1l1.1-0.4
	l-0.4-2.1l-0.8-2.1v-2.5l-0.1-2.6l-0.4-1.5l-0.3-1.5l0.3-0.9l-0.5-4.9l-0.5-1.5h-2.4l-0.3,0.4L300.4,467.5z"/>
<path style="fill:none;stroke:#231F20;stroke-miterlimit:10;" d="M294.5,462.5l1.5,0.1l3.6-0.1l-0.1-2.5l-4.1-0.1h-3.7l-6.7,0.4
	l-0.5,2.6h4.2L294.5,462.5L294.5,462.5z"/>
<path style="fill:none;stroke:#231F20;stroke-miterlimit:10;" d="M294.5,462.5l1.5,0.1l3.6-0.1l-0.1-2.5l-4.1-0.1h-3.7l-6.7,0.4
	l-0.5,2.6h4.2L294.5,462.5L294.5,462.5z"/>
<path style="fill:none;stroke:#231F20;stroke-miterlimit:10;" d="M299.3,471.3l0.4-2.8l-6.9,0.1l-6.2-0.1l-2.9,0.5l-0.1,2.4l6.3,0.1
	l3.7-0.1L299.3,471.3L299.3,471.3z"/>
<path style="fill:none;stroke:#231F20;stroke-miterlimit:10;" d="M299.3,471.3l0.4-2.8l-6.9,0.1l-6.2-0.1l-2.9,0.5l-0.1,2.4l6.3,0.1
	l3.7-0.1L299.3,471.3L299.3,471.3z"/>
<path style="fill:none;stroke:#231F20;stroke-miterlimit:10;" d="M278.8,475.5l1.5,0.4l1.4-0.3l1-17.3l0.7-1.3l-1.8-0.2l-1,1.4
	l-0.2,4.7l-0.5,7.9L278.8,475.5L278.8,475.5z"/>
<path style="fill:none;stroke:#231F20;stroke-miterlimit:10;" d="M278.8,475.5l1.5,0.4l1.4-0.3l1-17.3l0.7-1.3l-1.8-0.2l-1,1.4
	l-0.2,4.7l-0.5,7.9L278.8,475.5L278.8,475.5z"/>
<path style="fill:none;stroke:#231F20;stroke-miterlimit:10;" d="M279.3,467.4l-0.3-2.7h-2l0.4,2.7H279.3z"/>
<path style="fill:none;stroke:#231F20;stroke-miterlimit:10;" d="M279.3,467.4l-0.3-2.7h-2l0.4,2.7H279.3z"/>
<path style="fill:none;stroke:#231F20;stroke-miterlimit:10;" d="M279.4,462.6v-2.1l-11.7-0.1l-2.6-0.2h-0.2l-2.3-0.2l-0.5,0.4v1.7
	l0.3,0.3l12.5,0.5L279.4,462.6z"/>
<path style="fill:none;stroke:#231F20;stroke-miterlimit:10;" d="M279.4,462.6v-2.1l-11.7-0.1l-2.6-0.2h-0.2l-2.3-0.2l-0.5,0.4v1.7
	l0.3,0.3l12.5,0.5L279.4,462.6z"/>
<path style="fill:none;stroke:#231F20;stroke-miterlimit:10;" d="M278.8,471.3l0.1-2.5l-1.4-0.3h-2.8l-7.4-0.3l-4,0.2l0.1,2.6
	l3.4,0.2L278.8,471.3L278.8,471.3z"/>
<path style="fill:none;stroke:#231F20;stroke-miterlimit:10;" d="M278.8,471.3l0.1-2.5l-1.4-0.3h-2.8l-7.4-0.3l-4,0.2l0.1,2.6
	l3.4,0.2L278.8,471.3L278.8,471.3z"/>
<path style="fill:none;stroke:#231F20;stroke-miterlimit:10;" d="M261.7,470.1l-0.9-10.2l-0.8-0.9l0.1-2.3l-1.5-0.9h-0.2l0.5,6.1
	l0.8,0.5v3.1l0.3,3.1l0.4,3.1l0.4,3.5l2.2,0.3L261.7,470.1L261.7,470.1z"/>
<path style="fill:none;stroke:#231F20;stroke-miterlimit:10;" d="M261.7,470.1l-0.9-10.2l-0.8-0.9l0.1-2.3l-1.5-0.9h-0.2l0.5,6.1
	l0.8,0.5v3.1l0.3,3.1l0.4,3.1l0.4,3.5l2.2,0.3L261.7,470.1L261.7,470.1z"/>
<path style="fill:none;stroke:#231F20;stroke-miterlimit:10;" d="M259.3,470.7l-0.1-1.6l-0.7-0.8l-3.4-0.2l-3.8,0.2l-12.6,0.4
	l-0.1,1.1l0.4,1.3l0.1,0.1l0.8-0.4l9.2,0.1l9.4,0.2L259.3,470.7L259.3,470.7z"/>
<path style="fill:none;stroke:#231F20;stroke-miterlimit:10;" d="M259.3,470.7l-0.1-1.6l-0.7-0.8l-3.4-0.2l-3.8,0.2l-12.6,0.4
	l-0.1,1.1l0.4,1.3l0.1,0.1l0.8-0.4l9.2,0.1l9.4,0.2L259.3,470.7L259.3,470.7z"/>
<path style="fill:none;stroke:#231F20;stroke-miterlimit:10;" d="M257.7,462.1l0.1-1.1l-0.3-0.7l-3-0.4l-9.5-0.3l-6.4,0.2l0.2,2.6
	l11.4-0.2l6.4,0.2L257.7,462.1L257.7,462.1z"/>
<path style="fill:none;stroke:#231F20;stroke-miterlimit:10;" d="M257.7,462.1l0.1-1.1l-0.3-0.7l-3-0.4l-9.5-0.3l-6.4,0.2l0.2,2.6
	l11.4-0.2l6.4,0.2L257.7,462.1L257.7,462.1z"/>
<path style="fill:none;stroke:#231F20;stroke-miterlimit:10;" d="M233.6,461.8l0.5-1.1l-0.2-1.6l-14.7,0.2l-6.4,0.4l-0.3,0.5v1.4
	l0.4,1.1l8-0.2L233.6,461.8L233.6,461.8z"/>
<path style="fill:none;stroke:#231F20;stroke-miterlimit:10;" d="M233.6,461.8l0.5-1.1l-0.2-1.6l-14.7,0.2l-6.4,0.4l-0.3,0.5v1.4
	l0.4,1.1l8-0.2L233.6,461.8L233.6,461.8z"/>
<path style="fill:none;stroke:#231F20;stroke-miterlimit:10;" d="M234.9,469.4l-0.5,5.1l0.2,1.5l1.6,0.1l1.1-1l0.1-1.1L237,472
	l-0.3-1.7l0.1-6.9l0.1-7.3l-1.2,0.5l-0.4-0.9l-0.8,0.4l0.4,1.7l-0.3,6.1L234.9,469.4L234.9,469.4z"/>
<path style="fill:none;stroke:#231F20;stroke-miterlimit:10;" d="M234.9,469.4l-0.5,5.1l0.2,1.5l1.6,0.1l1.1-1l0.1-1.1L237,472
	l-0.3-1.7l0.1-6.9l0.1-7.3l-1.2,0.5l-0.4-0.9l-0.8,0.4l0.4,1.7l-0.3,6.1L234.9,469.4L234.9,469.4z"/>
<path style="fill:none;stroke:#231F20;stroke-miterlimit:10;" d="M233.5,471l0.2-0.3l-0.1-2.1l-9-0.1l-9.8,0.5l-1.4,0.1l-0.4,0.4
	l-0.2,1.2l-0.1,1l1.6,0.3l15.9-0.5L233.5,471L233.5,471z"/>
<path style="fill:none;stroke:#231F20;stroke-miterlimit:10;" d="M233.5,471l0.2-0.3l-0.1-2.1l-9-0.1l-9.8,0.5l-1.4,0.1l-0.4,0.4
	l-0.2,1.2l-0.1,1l1.6,0.3l15.9-0.5L233.5,471L233.5,471z"/>
<path style="fill:none;stroke:#231F20;stroke-miterlimit:10;" d="M211,473.5c0-5.1-1.5-10.5,0.2-15.5c-1.1-0.8,0.3-1.5-2.7-2.9
	l-0.3,1.4l0.1,1.3l0.5,2.5v2.4l-0.1,3.5v3.5l0.1,3.5l0.4,3.5l0.2,0.1l0.5-0.1l0.7-0.4l0.4-0.5v-1L211,473.5L211,473.5z"/>
<path style="fill:none;stroke:#231F20;stroke-miterlimit:10;" d="M211,473.5c0-5.1-1.5-10.5,0.2-15.5c-1.1-0.8,0.3-1.5-2.7-2.9
	l-0.3,1.4l0.1,1.3l0.5,2.5v2.4l-0.1,3.5v3.5l0.1,3.5l0.4,3.5l0.2,0.1l0.5-0.1l0.7-0.4l0.4-0.5v-1L211,473.5L211,473.5z"/>
<path style="fill:none;stroke:#231F20;stroke-miterlimit:10;" d="M205.6,463.1l1.7-0.4l0.5-2l-0.4-0.8h-3.9l-9.7,0.1l-2.5-0.2h-1.1
	l-0.7,0.7l-0.7,2.8l1.8,0.2l12.5-0.5L205.6,463.1L205.6,463.1z"/>
<path style="fill:none;stroke:#231F20;stroke-miterlimit:10;" d="M205.6,463.1l1.7-0.4l0.5-2l-0.4-0.8h-3.9l-9.7,0.1l-2.5-0.2h-1.1
	l-0.7,0.7l-0.7,2.8l1.8,0.2l12.5-0.5L205.6,463.1L205.6,463.1z"/>
<path style="fill:none;stroke:#231F20;stroke-miterlimit:10;" d="M207.5,471.1l-0.1-1.6l-0.7-0.5l-2.2,0.2l-8.1-0.2l-9.3,0.5
	l-0.7,0.9l-0.2,1.2l0.2,0.9l15.4-0.2l5.2-0.4L207.5,471.1L207.5,471.1z"/>
<path style="fill:none;stroke:#231F20;stroke-miterlimit:10;" d="M207.5,471.1l-0.1-1.6l-0.7-0.5l-2.2,0.2l-8.1-0.2l-9.3,0.5
	l-0.7,0.9l-0.2,1.2l0.2,0.9l15.4-0.2l5.2-0.4L207.5,471.1L207.5,471.1z"/>
<path style="fill:#231F20;" d="M190.6,478.4l1-0.2l1.2,0.2l-0.1,0.3h-0.5l-0.5-0.1l-1.2,0.2L190.6,478.4z"/>
<path style="fill:none;stroke:#231F20;stroke-width:0.214;stroke-linejoin:bevel;stroke-miterlimit:2.613;" d="M190.6,478.4l1-0.2
	l1.2,0.2l-0.1,0.3h-0.5l-0.5-0.1l-1.2,0.2L190.6,478.4z"/>
<path style="fill:none;stroke:#231F20;stroke-miterlimit:10;" d="M124.3,464.7l-0.5-0.4c0-1,0-2.1,0-3c5.3,0.2,10.6,0.4,16,0.7
	l5.4,0.8c0.1,0.3,0.1,0.7,0.2,1c-0.1,0.9-0.2,1.7-0.3,2.6l-7.8-0.4C137.2,465.7,124.3,464.7,124.3,464.7z"/>
<path style="fill:none;stroke:#231F20;stroke-miterlimit:10;" d="M124.3,464.7l-0.5-0.4c0-1,0-2.1,0-3c5.3,0.2,10.6,0.4,16,0.7
	l5.4,0.8c0.1,0.3,0.1,0.7,0.2,1c-0.1,0.9-0.2,1.7-0.3,2.6l-7.8-0.4C137.2,465.7,124.3,464.7,124.3,464.7z"/>
<path style="fill:none;stroke:#231F20;stroke-miterlimit:10;" d="M150.7,465c-0.1-0.4-0.1-0.9-0.1-1.2c0-0.3,0-0.7,0.1-1
	c0.2-0.1,0.4-0.2,0.8-0.3c1.4,0,2.8,0,4.2,0l6.9,0.5l1.7,0.1c0.8,0,1.6,0.1,2.4,0.1l1.7-0.3l0.8,0.4c0.4,0,0.9,0,1.3,0
	c0.2,0.3,0.4,0.5,0.5,0.9c0.1,0.3,0.2,0.7,0.4,1c0.2,0.7,0.3,1.3,0.5,1.8c-7-0.2-14-0.4-20.9-0.7C151,465.9,150.8,465.5,150.7,465
	L150.7,465z"/>
<path style="fill:none;stroke:#231F20;stroke-miterlimit:10;" d="M150.7,465c-0.1-0.4-0.1-0.9-0.1-1.2c0-0.3,0-0.7,0.1-1
	c0.2-0.1,0.4-0.2,0.8-0.3c1.4,0,2.8,0,4.2,0l6.9,0.5l1.7,0.1c0.8,0,1.6,0.1,2.4,0.1l1.7-0.3l0.8,0.4c0.4,0,0.9,0,1.3,0
	c0.2,0.3,0.4,0.5,0.5,0.9c0.1,0.3,0.2,0.7,0.4,1c0.2,0.7,0.3,1.3,0.5,1.8c-7-0.2-14-0.4-20.9-0.7C151,465.9,150.8,465.5,150.7,465
	L150.7,465z"/>
<path style="fill:none;stroke:#231F20;stroke-miterlimit:10;" d="M52.8,430.5c-0.2-0.8-0.3-1.4-0.5-2.2c0-0.8-0.1-1.5-0.1-2.2
	c0.1-0.8,0.1-1.5,0.2-2.2c0.3-0.7,0.7-1.2,1-1.8c0.3-0.3,0.7-0.7,1-1.1c0-0.3,0-0.8-0.1-1.1c0.1-0.3,0.1-0.7,0.2-1
	c0.3-0.2,0.7-0.4,1-0.8c0.3,0,0.7,0,1,0c0.3,0.2,0.5,0.5,0.9,0.8c-0.1,0.3-0.3,0.7-0.4,1l1.2,0.2l1.1-0.8c0.1-0.5,0.3-1,0.4-1.5
	c-0.3-1-0.5-2-0.9-2.9c-0.1-0.4-0.1-1-0.2-1.4c0.1-0.5,0.2-1,0.2-1.5c0.4-0.2,0.9-0.3,1.3-0.5c0.5,0.2,1.1,0.3,1.6,0.5
	c0.7,0.5,1.3,1,2.1,1.5c0.3,0.1,0.7,0.1,1,0.1c0.3-0.2,0.5-0.5,0.9-0.8c0.1-0.7,0.3-1.4,0.5-2.1c0-0.4,0-0.9,0-1.4
	c0-0.4,0.1-0.9,0.1-1.3c0.4-0.4,0.9-0.8,1.2-1.2l1.4-0.1c0.3,0.3,0.7,0.5,1,0.8c0.3,0.3,0.7,0.8,1,1.1c0.1,0.3,0.1,0.7,0.2,0.9
	l1.2-0.1c0.3-0.2,0.7-0.5,1.1-0.8c0.1-0.3,0.2-0.8,0.3-1.2c0-0.5,0-1.1,0.1-1.6c0.1-0.5,0.2-1.1,0.3-1.6c0.2-0.5,0.3-1.1,0.5-1.5
	c0.3-0.4,0.5-1,0.9-1.5c0.4-0.4,0.9-0.8,1.2-1.2c0.5-0.1,1.2-0.3,1.8-0.4h2.2c0.8,0.2,1.6,0.4,2.4,0.5l2.8,1.7
	c0.4,0.4,0.8,1,1.2,1.4c0.1,0.5,0.1,1,0.2,1.5c-0.3,0.5-0.5,1.2-0.8,1.7c0,0.2,0,0.4,0,0.7h0.7c0.1,0.1,0.3,0.2,0.4,0.3l0.9-0.9
	l1.1-0.1c0.3,0.2,0.7,0.3,1.1,0.5l0.9,0.8c0.1,0.2,0.1,0.4,0.2,0.5c0.1,0.2,0.1,0.4,0.2,0.5c0,0.3,0,0.5,0,0.9
	c-0.1,0.2-0.1,0.4-0.2,0.8c-0.1,0.3-0.1,0.5-0.1,0.8c0,0.3,0,0.5,0,0.8c0.1,0.1,0.1,0.2,0.2,0.3c0.1,0,0.3,0.1,0.4,0.1
	c0.2,0,0.3,0,0.5,0l0.4-0.1c0.4,0,0.9,0,1.3,0c0.3,0.4,0.7,0.8,1,1.1c0.2,1.1,0.3,2.2,0.5,3.3c0.1,1.1,0.1,2.2,0.2,3.4
	c0.2,0.2,0.3,0.5,0.5,0.8h0.9c0.1-0.2,0.3-0.4,0.4-0.7c0.1-0.2,0.2-0.4,0.4-0.7l0.5-0.2l0.8-0.1c0.2,0.1,0.5,0.1,0.8,0.1
	c0.2,0.1,0.4,0.2,0.7,0.2c0.5,0.4,1,0.9,1.5,1.2c0.4,0.7,0.8,1.2,1.2,1.8c0.2,0.7,0.4,1.4,0.7,2.1l0.2,2.1c0.7,0,1.2,0.1,1.8,0.1
	c0.7,0.2,1.3,0.3,2,0.5c0.4,0.4,0.9,0.9,1.3,1.3c0.4,1,0.8,1.8,1.2,2.8c-0.2,1.1-0.5,2.2-0.8,3.3c-0.3,0.7-0.7,1.4-1,2.1
	c-0.4,0.5-0.9,1.2-1.3,1.7c-0.5,0.4-1.1,0.9-1.6,1.3c0.5,1.2,1.2,2.5,1.7,3.7c0.1,0.7,0.1,1.3,0.2,1.8c-0.3,0.5-0.7,1-1.1,1.5
	c-0.4,0.2-1,0.4-1.4,0.8c-0.5-0.1-1.1-0.3-1.6-0.4l-1.3-1.1l-1.2,1.2l-1.5,0.8c-0.5-0.2-1.1-0.3-1.7-0.5c-0.4-0.4-1-1-1.5-1.4
	l2.3-3.1l-1.2-0.4c-0.4,0.5-1,1.2-1.4,1.7c-0.4,0.4-0.9,0.9-1.3,1.3c0.3-1.5,0.7-3,1-4.6c0.4-1.3,0.9-2.5,1.4-3.8H97
	c-1,2-2,3.8-2.9,5.7c-0.3-0.9-0.8-1.6-1.1-2.5c-0.5-0.5-1.2-1.1-1.7-1.6c-0.1-0.2-0.2-0.5-0.3-0.8c0-1.3,0-2.6,0.1-4
	c0.4-0.4,0.8-1,1.2-1.4c-0.1-0.3-0.1-0.7-0.2-1c-0.5,0.7-1,1.3-1.5,2l-0.7-0.4c0-1.4,0-2.8,0-4.3c0.1-0.7,0.3-1.3,0.4-1.8
	c0.5-0.4,1.1-1,1.7-1.4c0.1-0.3,0.2-0.8,0.4-1.1c-0.1-0.3-0.2-0.7-0.2-1.1c-0.3,0-0.5,0-0.9,0.1c-0.1,0.2-0.2,0.4-0.3,0.7
	c-0.1,0.3-0.1,0.7-0.2,0.9c-0.5,0.3-1,0.8-1.4,1.1l-0.8,0.2c-0.5,0-1.1,0.1-1.6,0.1c-0.2,0.3-0.5,0.8-0.8,1.1c0,0.1,0.1,0.3,0.1,0.4
	l0.5,1c-0.1,0.7-0.2,1.2-0.3,1.8l-0.8,0.7c-0.2-0.2-0.3-0.5-0.5-0.8l-1.1,0.5c0,0.7-0.1,1.4-0.1,2.1l-0.8,2.2
	c-0.9,0.2-1.8,0.3-2.7,0.4c-0.3,0-0.7-0.1-0.9-0.1c-0.2-0.2-0.3-0.4-0.5-0.7l1.2-1.6c0-0.2,0-0.5,0-0.8c-0.3,0-0.5-0.1-0.9-0.1
	c-0.5,0.4-1.1,1-1.5,1.4c-0.7,0-1.2-0.1-1.8-0.1c-0.7,0-1.2,0-1.8,0l-1,2.2c-0.2,0.2-0.5,0.4-0.9,0.7l-1.3,0.1l-1.5-0.3
	c0.2,0.2,0.3,0.4,0.5,0.5l1.6,0.2l2.1-0.5c0.3-0.5,0.5-1.2,0.9-1.7l1.5,0.4c0.4,0.4,1,0.9,1.4,1.2c0.2,0.4,0.3,0.9,0.5,1.2
	c0,0.4,0,0.9,0,1.4l-1.1,1.6c-0.4,0-1,0.1-1.4,0.1c-0.4-0.3-1-0.7-1.4-0.9c-0.7,0-1.2,0.1-1.8,0.1c-0.4,0.2-1,0.4-1.4,0.8
	c-0.7,0.1-1.3,0.2-2,0.4c-1-0.2-1.8-0.5-2.8-0.8c-0.9,0.1-1.8,0.2-2.7,0.2c-0.5,0.4-1.2,0.9-1.7,1.4l-2.3,0.1l-1.6-1.3
	c-0.2-0.5-0.5-1.1-0.8-1.6c-0.1-0.7-0.1-1.3-0.2-1.8c0.1-0.7,0.2-1.3,0.2-2c-0.4-0.3-0.9-0.7-1.4-1.1c-0.4-0.4-0.9-0.8-1.2-1.2
	c-0.1-0.2-0.2-0.4-0.3-0.5C53.5,432.5,53.1,431.5,52.8,430.5L52.8,430.5z"/>
<path style="fill:none;stroke:#231F20;stroke-miterlimit:10;" d="M52.8,430.5c-0.2-0.8-0.3-1.4-0.5-2.2c0-0.8-0.1-1.5-0.1-2.2
	c0.1-0.8,0.1-1.5,0.2-2.2c0.3-0.7,0.7-1.2,1-1.8c0.3-0.3,0.7-0.7,1-1.1c0-0.3,0-0.8-0.1-1.1c0.1-0.3,0.1-0.7,0.2-1
	c0.3-0.2,0.7-0.4,1-0.8c0.3,0,0.7,0,1,0c0.3,0.2,0.5,0.5,0.9,0.8c-0.1,0.3-0.3,0.7-0.4,1l1.2,0.2l1.1-0.8c0.1-0.5,0.3-1,0.4-1.5
	c-0.3-1-0.5-2-0.9-2.9c-0.1-0.4-0.1-1-0.2-1.4c0.1-0.5,0.2-1,0.2-1.5c0.4-0.2,0.9-0.3,1.3-0.5c0.5,0.2,1.1,0.3,1.6,0.5
	c0.7,0.5,1.3,1,2.1,1.5c0.3,0.1,0.7,0.1,1,0.1c0.3-0.2,0.5-0.5,0.9-0.8c0.1-0.7,0.3-1.4,0.5-2.1c0-0.4,0-0.9,0-1.4
	c0-0.4,0.1-0.9,0.1-1.3c0.4-0.4,0.9-0.8,1.2-1.2l1.4-0.1c0.3,0.3,0.7,0.5,1,0.8c0.3,0.3,0.7,0.8,1,1.1c0.1,0.3,0.1,0.7,0.2,0.9
	l1.2-0.1c0.3-0.2,0.7-0.5,1.1-0.8c0.1-0.3,0.2-0.8,0.3-1.2c0-0.5,0-1.1,0.1-1.6c0.1-0.5,0.2-1.1,0.3-1.6c0.2-0.5,0.3-1.1,0.5-1.5
	c0.3-0.4,0.5-1,0.9-1.5c0.4-0.4,0.9-0.8,1.2-1.2c0.5-0.1,1.2-0.3,1.8-0.4h2.2c0.8,0.2,1.6,0.4,2.4,0.5l2.8,1.7
	c0.4,0.4,0.8,1,1.2,1.4c0.1,0.5,0.1,1,0.2,1.5c-0.3,0.5-0.5,1.2-0.8,1.7c0,0.2,0,0.4,0,0.7h0.7c0.1,0.1,0.3,0.2,0.4,0.3l0.9-0.9
	l1.1-0.1c0.3,0.2,0.7,0.3,1.1,0.5l0.9,0.8c0.1,0.2,0.1,0.4,0.2,0.5c0.1,0.2,0.1,0.4,0.2,0.5c0,0.3,0,0.5,0,0.9
	c-0.1,0.2-0.1,0.4-0.2,0.8c-0.1,0.3-0.1,0.5-0.1,0.8c0,0.3,0,0.5,0,0.8c0.1,0.1,0.1,0.2,0.2,0.3c0.1,0,0.3,0.1,0.4,0.1
	c0.2,0,0.3,0,0.5,0l0.4-0.1c0.4,0,0.9,0,1.3,0c0.3,0.4,0.7,0.8,1,1.1c0.2,1.1,0.3,2.2,0.5,3.3c0.1,1.1,0.1,2.2,0.2,3.4
	c0.2,0.2,0.3,0.5,0.5,0.8h0.9c0.1-0.2,0.3-0.4,0.4-0.7c0.1-0.2,0.2-0.4,0.4-0.7l0.5-0.2l0.8-0.1c0.2,0.1,0.5,0.1,0.8,0.1
	c0.2,0.1,0.4,0.2,0.7,0.2c0.5,0.4,1,0.9,1.5,1.2c0.4,0.7,0.8,1.2,1.2,1.8c0.2,0.7,0.4,1.4,0.7,2.1l0.2,2.1c0.7,0,1.2,0.1,1.8,0.1
	c0.7,0.2,1.3,0.3,2,0.5c0.4,0.4,0.9,0.9,1.3,1.3c0.4,1,0.8,1.8,1.2,2.8c-0.2,1.1-0.5,2.2-0.8,3.3c-0.3,0.7-0.7,1.4-1,2.1
	c-0.4,0.5-0.9,1.2-1.3,1.7c-0.5,0.4-1.1,0.9-1.6,1.3c0.5,1.2,1.2,2.5,1.7,3.7c0.1,0.7,0.1,1.3,0.2,1.8c-0.3,0.5-0.7,1-1.1,1.5
	c-0.4,0.2-1,0.4-1.4,0.8c-0.5-0.1-1.1-0.3-1.6-0.4l-1.3-1.1l-1.2,1.2l-1.5,0.8c-0.5-0.2-1.1-0.3-1.7-0.5c-0.4-0.4-1-1-1.5-1.4
	l2.3-3.1l-1.2-0.4c-0.4,0.5-1,1.2-1.4,1.7c-0.4,0.4-0.9,0.9-1.3,1.3c0.3-1.5,0.7-3,1-4.6c0.4-1.3,0.9-2.5,1.4-3.8H97
	c-1,2-2,3.8-2.9,5.7c-0.3-0.9-0.8-1.6-1.1-2.5c-0.5-0.5-1.2-1.1-1.7-1.6c-0.1-0.2-0.2-0.5-0.3-0.8c0-1.3,0-2.6,0.1-4
	c0.4-0.4,0.8-1,1.2-1.4c-0.1-0.3-0.1-0.7-0.2-1c-0.5,0.7-1,1.3-1.5,2l-0.7-0.4c0-1.4,0-2.8,0-4.3c0.1-0.7,0.3-1.3,0.4-1.8
	c0.5-0.4,1.1-1,1.7-1.4c0.1-0.3,0.2-0.8,0.4-1.1c-0.1-0.3-0.2-0.7-0.2-1.1c-0.3,0-0.5,0-0.9,0.1c-0.1,0.2-0.2,0.4-0.3,0.7
	c-0.1,0.3-0.1,0.7-0.2,0.9c-0.5,0.3-1,0.8-1.4,1.1l-0.8,0.2c-0.5,0-1.1,0.1-1.6,0.1c-0.2,0.3-0.5,0.8-0.8,1.1c0,0.1,0.1,0.3,0.1,0.4
	l0.5,1c-0.1,0.7-0.2,1.2-0.3,1.8l-0.8,0.7c-0.2-0.2-0.3-0.5-0.5-0.8l-1.1,0.5c0,0.7-0.1,1.4-0.1,2.1l-0.8,2.2
	c-0.9,0.2-1.8,0.3-2.7,0.4c-0.3,0-0.7-0.1-0.9-0.1c-0.2-0.2-0.3-0.4-0.5-0.7l1.2-1.6c0-0.2,0-0.5,0-0.8c-0.3,0-0.5-0.1-0.9-0.1
	c-0.5,0.4-1.1,1-1.5,1.4c-0.7,0-1.2-0.1-1.8-0.1c-0.7,0-1.2,0-1.8,0l-1,2.2c-0.2,0.2-0.5,0.4-0.9,0.7l-1.3,0.1l-1.5-0.3
	c0.2,0.2,0.3,0.4,0.5,0.5l1.6,0.2l2.1-0.5c0.3-0.5,0.5-1.2,0.9-1.7l1.5,0.4c0.4,0.4,1,0.9,1.4,1.2c0.2,0.4,0.3,0.9,0.5,1.2
	c0,0.4,0,0.9,0,1.4l-1.1,1.6c-0.4,0-1,0.1-1.4,0.1c-0.4-0.3-1-0.7-1.4-0.9c-0.7,0-1.2,0.1-1.8,0.1c-0.4,0.2-1,0.4-1.4,0.8
	c-0.7,0.1-1.3,0.2-2,0.4c-1-0.2-1.8-0.5-2.8-0.8c-0.9,0.1-1.8,0.2-2.7,0.2c-0.5,0.4-1.2,0.9-1.7,1.4l-2.3,0.1l-1.6-1.3
	c-0.2-0.5-0.5-1.1-0.8-1.6c-0.1-0.7-0.1-1.3-0.2-1.8c0.1-0.7,0.2-1.3,0.2-2c-0.4-0.3-0.9-0.7-1.4-1.1c-0.4-0.4-0.9-0.8-1.2-1.2
	c-0.1-0.2-0.2-0.4-0.3-0.5C53.5,432.5,53.1,431.5,52.8,430.5L52.8,430.5z"/>
<path style="fill:#231F20;" d="M111.6,473.9l0.4,0.8l0.8-0.3c-0.2-0.2-0.3-0.4-0.4-0.8c-0.3-0.1-0.7-0.2-1-0.3
	C111.4,473.5,111.5,473.7,111.6,473.9L111.6,473.9z"/>
<path style="fill:none;stroke:#231F20;stroke-width:0.214;stroke-linejoin:bevel;stroke-miterlimit:2.613;" d="M111.6,473.9l0.4,0.8
	l0.8-0.3c-0.2-0.2-0.3-0.4-0.4-0.8c-0.3-0.1-0.7-0.2-1-0.3C111.4,473.5,111.5,473.7,111.6,473.9L111.6,473.9z"/>
<path style="fill:#231F20;" d="M87.7,472.5l-0.2,0.2v0.3h0.3H88c0-0.1,0-0.2,0-0.3l0.2-0.1c-0.1,0-0.1-0.1-0.2-0.1
	c0-0.1,0-0.2,0-0.3c-0.1,0-0.1,0.1-0.2,0.1C87.8,472.5,87.7,472.5,87.7,472.5z"/>
<path style="fill:none;stroke:#231F20;stroke-width:0.214;stroke-linejoin:bevel;stroke-miterlimit:2.613;" d="M87.7,472.5l-0.2,0.2
	v0.3h0.3H88c0-0.1,0-0.2,0-0.3l0.2-0.1c-0.1,0-0.1-0.1-0.2-0.1c0-0.1,0-0.2,0-0.3c-0.1,0-0.1,0.1-0.2,0.1
	C87.8,472.5,87.7,472.5,87.7,472.5z"/>
<path style="fill:#231F20;" d="M85.4,474.1c0.2-0.1,0.4-0.2,0.7-0.3c0.1-0.2,0.1-0.4,0.2-0.5c-0.2-0.2-0.4-0.3-0.5-0.5
	c-0.2,0-0.4,0-0.7,0c-0.1,0.2-0.3,0.4-0.4,0.5c0,0.2,0,0.5,0.1,0.8h0.4L85.4,474.1z"/>
<path style="fill:none;stroke:#231F20;stroke-width:0.214;stroke-linejoin:bevel;stroke-miterlimit:2.613;" d="M85.4,474.1
	c0.2-0.1,0.4-0.2,0.7-0.3c0.1-0.2,0.1-0.4,0.2-0.5c-0.2-0.2-0.4-0.3-0.5-0.5c-0.2,0-0.4,0-0.7,0c-0.1,0.2-0.3,0.4-0.4,0.5
	c0,0.2,0,0.5,0.1,0.8h0.4L85.4,474.1z"/>
<path style="fill:#231F20;" d="M73,473.4l0.1-0.1c0.1,0,0.1,0,0.2,0c-0.3-0.3-0.7-0.7-1-1c-0.3-0.1-0.7-0.1-1-0.2
	c-0.1,0.1-0.1,0.2-0.2,0.3c0.1,0.1,0.2,0.3,0.3,0.4c0.2,0.1,0.3,0.3,0.5,0.4c0.1,0.1,0.3,0.2,0.4,0.3h0.3
	C72.8,473.5,72.9,473.5,73,473.4L73,473.4z"/>
<path style="fill:none;stroke:#231F20;stroke-width:0.214;stroke-linejoin:bevel;stroke-miterlimit:2.613;" d="M73,473.4l0.1-0.1
	c0.1,0,0.1,0,0.2,0c-0.3-0.3-0.7-0.7-1-1c-0.3-0.1-0.7-0.1-1-0.2c-0.1,0.1-0.1,0.2-0.2,0.3c0.1,0.1,0.2,0.3,0.3,0.4
	c0.2,0.1,0.3,0.3,0.5,0.4c0.1,0.1,0.3,0.2,0.4,0.3h0.3C72.8,473.5,72.9,473.5,73,473.4L73,473.4z"/>
<path style="fill:#231F20;" d="M70,473.5c0.1-0.1,0.1-0.2,0.2-0.3c0-0.1,0-0.3,0-0.4c-0.2-0.1-0.4-0.2-0.7-0.3l-0.7,0.1
	c0,0.1,0,0.3,0,0.4c0.1,0.2,0.2,0.3,0.3,0.5h0.3H70z"/>
<path style="fill:none;stroke:#231F20;stroke-width:0.214;stroke-linejoin:bevel;stroke-miterlimit:2.613;" d="M70,473.5
	c0.1-0.1,0.1-0.2,0.2-0.3c0-0.1,0-0.3,0-0.4c-0.2-0.1-0.4-0.2-0.7-0.3l-0.7,0.1c0,0.1,0,0.3,0,0.4c0.1,0.2,0.2,0.3,0.3,0.5h0.3H70z"
	/>
<path style="fill:#231F20;" d="M63.4,473.2c0.1-0.2,0.2-0.4,0.4-0.7c0-0.2-0.1-0.4-0.1-0.8c-0.1,0-0.2-0.1-0.3-0.1s-0.2,0.1-0.3,0.1
	l-0.2,0.3c0,0.1-0.1,0.3-0.1,0.4c0,0.2,0.1,0.4,0.1,0.5L63.4,473.2L63.4,473.2z"/>
<path style="fill:none;stroke:#231F20;stroke-width:0.214;stroke-linejoin:bevel;stroke-miterlimit:2.613;" d="M63.4,473.2
	c0.1-0.2,0.2-0.4,0.4-0.7c0-0.2-0.1-0.4-0.1-0.8c-0.1,0-0.2-0.1-0.3-0.1s-0.2,0.1-0.3,0.1l-0.2,0.3c0,0.1-0.1,0.3-0.1,0.4
	c0,0.2,0.1,0.4,0.1,0.5L63.4,473.2L63.4,473.2z"/>
<path style="fill:none;stroke:#231F20;stroke-miterlimit:10;" d="M63.5,435.1c0.1,0.2,0.2,0.5,0.3,0.8c0.8,0.3,1.5,0.5,2.3,0.9
	l0.8-0.1l1-0.9l0.7-1.2c0.1-0.2,0.1-0.4,0.2-0.8c-0.1-0.2-0.2-0.4-0.2-0.7c-0.2,0-0.4,0-0.7,0l-0.8,0.7c-0.2,0.7-0.4,1.4-0.7,2.1
	L63.5,435.1L63.5,435.1z"/>
<path style="fill:none;stroke:#231F20;stroke-miterlimit:10;" d="M63.5,435.1c0.1,0.2,0.2,0.5,0.3,0.8c0.8,0.3,1.5,0.5,2.3,0.9
	l0.8-0.1l1-0.9l0.7-1.2c0.1-0.2,0.1-0.4,0.2-0.8c-0.1-0.2-0.2-0.4-0.2-0.7c-0.2,0-0.4,0-0.7,0l-0.8,0.7c-0.2,0.7-0.4,1.4-0.7,2.1
	L63.5,435.1L63.5,435.1z"/>
<path style="fill:none;stroke:#231F20;stroke-miterlimit:10;" d="M71,421.6l1.1,0.1c0.1-0.3,0.3-0.5,0.5-0.9c0-0.4,0-0.8,0.1-1.2
	c0-0.4,0.1-0.8,0.1-1.2c0.2-0.3,0.4-0.5,0.7-0.9c0.4,0.1,0.8,0.1,1.2,0.2l1.3,1.1c0.3,0,0.7,0,1.1,0c0.2-0.3,0.4-0.7,0.7-1
	c0.2-0.8,0.4-1.5,0.7-2.2c0.2-0.2,0.4-0.4,0.7-0.7l1.5-0.1l1.6,0.5c0.5,0.3,1,0.7,1.4,1.1c0.4,0.4,0.9,1,1.2,1.4h0.5
	c-0.2-0.5-0.5-1.1-0.8-1.6c-0.7-0.5-1.2-1-1.8-1.5c-0.7-0.3-1.3-0.5-2-0.9l-1.8-0.1c-0.5,0.2-1.1,0.4-1.7,0.8
	c-0.3,0.5-0.8,1-1.1,1.4c-0.2,0.4-0.4,0.8-0.5,1.2l-0.9-0.4l-1.5-0.1l-1.3,0.5c-0.3,0.4-0.5,0.9-0.8,1.2c0,0.5-0.1,1.2-0.1,1.7
	c-0.5-0.2-1.1-0.4-1.6-0.8l-1,0.2l-1.5,1.5l1.7-0.9c0.4,0.1,0.9,0.2,1.3,0.3C70.4,421.2,70.7,421.4,71,421.6z"/>
<path style="fill:none;stroke:#231F20;stroke-miterlimit:10;" d="M71,421.6l1.1,0.1c0.1-0.3,0.3-0.5,0.5-0.9c0-0.4,0-0.8,0.1-1.2
	c0-0.4,0.1-0.8,0.1-1.2c0.2-0.3,0.4-0.5,0.7-0.9c0.4,0.1,0.8,0.1,1.2,0.2l1.3,1.1c0.3,0,0.7,0,1.1,0c0.2-0.3,0.4-0.7,0.7-1
	c0.2-0.8,0.4-1.5,0.7-2.2c0.2-0.2,0.4-0.4,0.7-0.7l1.5-0.1l1.6,0.5c0.5,0.3,1,0.7,1.4,1.1c0.4,0.4,0.9,1,1.2,1.4h0.5
	c-0.2-0.5-0.5-1.1-0.8-1.6c-0.7-0.5-1.2-1-1.8-1.5c-0.7-0.3-1.3-0.5-2-0.9l-1.8-0.1c-0.5,0.2-1.1,0.4-1.7,0.8
	c-0.3,0.5-0.8,1-1.1,1.4c-0.2,0.4-0.4,0.8-0.5,1.2l-0.9-0.4l-1.5-0.1l-1.3,0.5c-0.3,0.4-0.5,0.9-0.8,1.2c0,0.5-0.1,1.2-0.1,1.7
	c-0.5-0.2-1.1-0.4-1.6-0.8l-1,0.2l-1.5,1.5l1.7-0.9c0.4,0.1,0.9,0.2,1.3,0.3C70.4,421.2,70.7,421.4,71,421.6z"/>
<path style="fill:none;stroke:#231F20;stroke-miterlimit:10;" d="M85.4,443.5l0.1-0.5c0-0.9,0.1-1.8,0.1-2.7c-0.2-1-0.5-2-0.8-2.9
	c0.1-0.1,0.2-0.1,0.3-0.2c0.4,0.7,0.9,1.4,1.4,2.1c0.3-1,0.8-2,1.1-2.8c0.3-0.4,0.7-0.8,1-1.2c0.1,0.2,0.2,0.3,0.3,0.5l-1.8,4.6
	c-0.2,1.2-0.5,2.4-0.8,3.6c0,0.3,0.1,0.5,0.1,0.9c-0.1,0.7-0.2,1.3-0.2,2c-0.4,0.5-0.9,1.2-1.3,1.7c-0.9,1.8-1.8,3.8-2.7,5.6
	c-0.2,0.8-0.3,1.4-0.4,2.2c-0.9,0.1-1.8,0.1-2.7,0.1c-0.2-0.3-0.4-0.5-0.7-0.9c-0.1-0.2-0.2-0.5-0.3-0.9c-0.1-0.7-0.3-1.3-0.4-2
	c-0.1-0.3-0.2-0.5-0.4-0.9l-0.8,0.4c-0.2,0-0.4,0-0.7-0.1c-0.2-0.3-0.3-0.8-0.5-1.1c-0.8-0.7-1.5-1.3-2.3-2.1
	c-0.5-0.9-1.2-1.8-1.7-2.7l-1.6-3c0.3-0.1,0.8-0.2,1.1-0.3c0.3,0.8,0.8,1.4,1.1,2.2c0.4,0.7,0.9,1.3,1.2,1.8
	c0.8,0.7,1.6,1.4,2.4,2.1l2.7,1.6l0.5-0.5c0.1-0.8,0.2-1.6,0.4-2.4c-0.1-1.4-0.2-2.7-0.4-4.1c-0.2-0.9-0.4-1.6-0.8-2.5
	c0.2-0.2,0.4-0.4,0.8-0.8c0.2-0.5,0.4-1,0.5-1.5c0.3,1.4,0.7,2.8,1.1,4.2c0.1,0.8,0.2,1.4,0.3,2.2c0.2,0.7,0.4,1.4,0.7,2.1l1.4-0.2
	c0.4-0.3,0.8-0.7,1.2-0.9c0.3-0.4,0.5-0.9,0.9-1.3C85.2,444.5,85.3,444.1,85.4,443.5L85.4,443.5z"/>
<path style="fill:none;stroke:#231F20;stroke-miterlimit:10;" d="M85.4,443.5l0.1-0.5c0-0.9,0.1-1.8,0.1-2.7c-0.2-1-0.5-2-0.8-2.9
	c0.1-0.1,0.2-0.1,0.3-0.2c0.4,0.7,0.9,1.4,1.4,2.1c0.3-1,0.8-2,1.1-2.8c0.3-0.4,0.7-0.8,1-1.2c0.1,0.2,0.2,0.3,0.3,0.5l-1.8,4.6
	c-0.2,1.2-0.5,2.4-0.8,3.6c0,0.3,0.1,0.5,0.1,0.9c-0.1,0.7-0.2,1.3-0.2,2c-0.4,0.5-0.9,1.2-1.3,1.7c-0.9,1.8-1.8,3.8-2.7,5.6
	c-0.2,0.8-0.3,1.4-0.4,2.2c-0.9,0.1-1.8,0.1-2.7,0.1c-0.2-0.3-0.4-0.5-0.7-0.9c-0.1-0.2-0.2-0.5-0.3-0.9c-0.1-0.7-0.3-1.3-0.4-2
	c-0.1-0.3-0.2-0.5-0.4-0.9l-0.8,0.4c-0.2,0-0.4,0-0.7-0.1c-0.2-0.3-0.3-0.8-0.5-1.1c-0.8-0.7-1.5-1.3-2.3-2.1
	c-0.5-0.9-1.2-1.8-1.7-2.7l-1.6-3c0.3-0.1,0.8-0.2,1.1-0.3c0.3,0.8,0.8,1.4,1.1,2.2c0.4,0.7,0.9,1.3,1.2,1.8
	c0.8,0.7,1.6,1.4,2.4,2.1l2.7,1.6l0.5-0.5c0.1-0.8,0.2-1.6,0.4-2.4c-0.1-1.4-0.2-2.7-0.4-4.1c-0.2-0.9-0.4-1.6-0.8-2.5
	c0.2-0.2,0.4-0.4,0.8-0.8c0.2-0.5,0.4-1,0.5-1.5c0.3,1.4,0.7,2.8,1.1,4.2c0.1,0.8,0.2,1.4,0.3,2.2c0.2,0.7,0.4,1.4,0.7,2.1l1.4-0.2
	c0.4-0.3,0.8-0.7,1.2-0.9c0.3-0.4,0.5-0.9,0.9-1.3C85.2,444.5,85.3,444.1,85.4,443.5L85.4,443.5z"/>
<path style="fill:none;stroke:#231F20;stroke-miterlimit:10;" d="M59.4,463.8c-0.2,0.3-0.3,0.5-0.5,0.9c0,0.3,0.1,0.8,0.1,1.1
	c0,1.2,0.1,2.4,0.1,3.7c-0.2,1.1-0.5,2.1-0.9,3.1c-0.3,0.1-0.7,0.1-1,0.2l-1.1-0.1l-1-0.5c0.1-0.7,0.2-1.4,0.3-2.1
	c0.2-0.7,0.4-1.3,0.7-2.1c0-0.9,0-1.7-0.1-2.6c0-0.9,0-1.7-0.1-2.6c0.1-0.5,0.2-1.1,0.4-1.5c0.1-0.5,0.1-1.1,0.2-1.5
	c-0.1-0.3-0.2-0.7-0.3-0.9c0.1-1.6,0.2-3.3,0.3-4.9c0.1-0.5,0.2-1.1,0.4-1.5c0.8,0,1.5,0.1,2.2,0.1c0.1,0.1,0.2,0.2,0.3,0.4
	C59.6,456.6,59.5,460.1,59.4,463.8L59.4,463.8z"/>
<path style="fill:none;stroke:#231F20;stroke-miterlimit:10;" d="M59.4,463.8c-0.2,0.3-0.3,0.5-0.5,0.9c0,0.3,0.1,0.8,0.1,1.1
	c0,1.2,0.1,2.4,0.1,3.7c-0.2,1.1-0.5,2.1-0.9,3.1c-0.3,0.1-0.7,0.1-1,0.2l-1.1-0.1l-1-0.5c0.1-0.7,0.2-1.4,0.3-2.1
	c0.2-0.7,0.4-1.3,0.7-2.1c0-0.9,0-1.7-0.1-2.6c0-0.9,0-1.7-0.1-2.6c0.1-0.5,0.2-1.1,0.4-1.5c0.1-0.5,0.1-1.1,0.2-1.5
	c-0.1-0.3-0.2-0.7-0.3-0.9c0.1-1.6,0.2-3.3,0.3-4.9c0.1-0.5,0.2-1.1,0.4-1.5c0.8,0,1.5,0.1,2.2,0.1c0.1,0.1,0.2,0.2,0.3,0.4
	C59.6,456.6,59.5,460.1,59.4,463.8L59.4,463.8z"/>
<path style="fill:none;stroke:#231F20;stroke-miterlimit:10;" d="M64.7,458.8c-0.5,0-1,0.1-1.5,0.1l-3.4-0.2c0-0.9,0-1.7,0-2.5h3.8
	c1.2,0,2.3,0,3.5,0.1c2.2,0.1,4.2,0.3,6.3,0.4c0.2,0.9,0.4,1.7,0.7,2.6c-1.3,0-2.7,0-4,0C68.3,459.2,66.6,458.9,64.7,458.8
	L64.7,458.8z"/>
<path style="fill:none;stroke:#231F20;stroke-miterlimit:10;" d="M64.7,458.8c-0.5,0-1,0.1-1.5,0.1l-3.4-0.2c0-0.9,0-1.7,0-2.5h3.8
	c1.2,0,2.3,0,3.5,0.1c2.2,0.1,4.2,0.3,6.3,0.4c0.2,0.9,0.4,1.7,0.7,2.6c-1.3,0-2.7,0-4,0C68.3,459.2,66.6,458.9,64.7,458.8
	L64.7,458.8z"/>
<path style="fill:none;stroke:#231F20;stroke-miterlimit:10;" d="M60.6,467.7c-0.2-1-0.3-2-0.5-2.9c2.2,0.1,4.3,0.1,6.5,0.2
	c2,0,3.9,0,5.9,0l2.8,0.5c0.1,0.9,0.2,1.6,0.2,2.5c-2,0-4,0-6,0c-1.2,0-2.3-0.1-3.5-0.1L60.6,467.7L60.6,467.7z"/>
<path style="fill:none;stroke:#231F20;stroke-miterlimit:10;" d="M60.6,467.7c-0.2-1-0.3-2-0.5-2.9c2.2,0.1,4.3,0.1,6.5,0.2
	c2,0,3.9,0,5.9,0l2.8,0.5c0.1,0.9,0.2,1.6,0.2,2.5c-2,0-4,0-6,0c-1.2,0-2.3-0.1-3.5-0.1L60.6,467.7L60.6,467.7z"/>
<path style="fill:none;stroke:#231F20;stroke-miterlimit:10;" d="M80.1,472.5c-0.4,0.1-1,0.2-1.4,0.4l-1.3-0.4
	c-0.7-6-1.2-11.8-1.8-17.7c-0.2-0.4-0.4-0.9-0.7-1.3c0.5-0.1,1.2-0.1,1.7-0.2c0.3,0.4,0.7,1,1,1.4c0.1,1.6,0.3,3.1,0.4,4.8
	c0.3,2.7,0.7,5.4,1,8.1L80.1,472.5z"/>
<path style="fill:none;stroke:#231F20;stroke-miterlimit:10;" d="M80.1,472.5c-0.4,0.1-1,0.2-1.4,0.4l-1.3-0.4
	c-0.7-6-1.2-11.8-1.8-17.7c-0.2-0.4-0.4-0.9-0.7-1.3c0.5-0.1,1.2-0.1,1.7-0.2c0.3,0.4,0.7,1,1,1.4c0.1,1.6,0.3,3.1,0.4,4.8
	c0.3,2.7,0.7,5.4,1,8.1L80.1,472.5z"/>
<path style="fill:none;stroke:#231F20;stroke-miterlimit:10;" d="M79.3,464c0-1,0.1-1.8,0.2-2.8l1.8,0.1c-0.1,0.9-0.2,1.8-0.3,2.7
	C80.5,464,79.8,464,79.3,464z"/>
<path style="fill:none;stroke:#231F20;stroke-miterlimit:10;" d="M79.3,464c0-1,0.1-1.8,0.2-2.8l1.8,0.1c-0.1,0.9-0.2,1.8-0.3,2.7
	C80.5,464,79.8,464,79.3,464z"/>
<path style="fill:none;stroke:#231F20;stroke-miterlimit:10;" d="M78.9,459.2c0-0.7,0-1.4-0.1-2.1H90l2.5-0.2c0.1,0,0.2,0,0.2,0
	c0.8-0.1,1.4-0.1,2.2-0.2c0.1,0.1,0.3,0.3,0.5,0.4c0,0.5,0,1.2,0.1,1.7l-0.3,0.3c-4,0.1-8,0.3-11.9,0.4
	C83.2,459.6,78.9,459.2,78.9,459.2z"/>
<path style="fill:none;stroke:#231F20;stroke-miterlimit:10;" d="M78.9,459.2c0-0.7,0-1.4-0.1-2.1H90l2.5-0.2c0.1,0,0.2,0,0.2,0
	c0.8-0.1,1.4-0.1,2.2-0.2c0.1,0.1,0.3,0.3,0.5,0.4c0,0.5,0,1.2,0.1,1.7l-0.3,0.3c-4,0.1-8,0.3-11.9,0.4
	C83.2,459.6,78.9,459.2,78.9,459.2z"/>
<path style="fill:none;stroke:#231F20;stroke-miterlimit:10;" d="M79.9,468.1c-0.1-0.9-0.2-1.6-0.3-2.5c0.4-0.1,0.9-0.2,1.3-0.3
	c0.9,0,1.7,0,2.6,0.1l7-0.2c1.3,0.1,2.6,0.2,3.9,0.3c0,0.9,0,1.7,0,2.7c-1.1,0-2.2,0.1-3.3,0.1L79.9,468.1z"/>
<path style="fill:none;stroke:#231F20;stroke-miterlimit:10;" d="M79.9,468.1c-0.1-0.9-0.2-1.6-0.3-2.5c0.4-0.1,0.9-0.2,1.3-0.3
	c0.9,0,1.7,0,2.6,0.1l7-0.2c1.3,0.1,2.6,0.2,3.9,0.3c0,0.9,0,1.7,0,2.7c-1.1,0-2.2,0.1-3.3,0.1L79.9,468.1z"/>
<path style="fill:none;stroke:#231F20;stroke-miterlimit:10;" d="M96.4,467.2c0.1-3.5,0.2-7,0.3-10.5c0.2-0.3,0.4-0.7,0.8-1
	c-0.1-0.8-0.1-1.5-0.2-2.3l1.4-0.9h0.2c-0.1,2.1-0.2,4.2-0.2,6.3l-0.7,0.5c0.1,1.1,0.1,2.2,0.1,3.3c0,1.1-0.1,2.2-0.1,3.3
	c-0.1,1.1-0.2,2.2-0.3,3.3c-0.1,1.2-0.2,2.4-0.3,3.6c-0.7,0.1-1.4,0.2-2.1,0.3C95.6,470.9,96,469,96.4,467.2L96.4,467.2z"/>
<path style="fill:none;stroke:#231F20;stroke-miterlimit:10;" d="M96.4,467.2c0.1-3.5,0.2-7,0.3-10.5c0.2-0.3,0.4-0.7,0.8-1
	c-0.1-0.8-0.1-1.5-0.2-2.3l1.4-0.9h0.2c-0.1,2.1-0.2,4.2-0.2,6.3l-0.7,0.5c0.1,1.1,0.1,2.2,0.1,3.3c0,1.1-0.1,2.2-0.1,3.3
	c-0.1,1.1-0.2,2.2-0.3,3.3c-0.1,1.2-0.2,2.4-0.3,3.6c-0.7,0.1-1.4,0.2-2.1,0.3C95.6,470.9,96,469,96.4,467.2L96.4,467.2z"/>
<path style="fill:none;stroke:#231F20;stroke-miterlimit:10;" d="M98.8,467.7c0-0.5,0-1.1,0.1-1.6l0.5-0.8c1.1,0,2.2-0.1,3.3-0.1
	l3.8,0.3c4.1,0.2,8.2,0.4,12.5,0.8c0.1,0.3,0.1,0.8,0.2,1.1c-0.1,0.4-0.2,1-0.3,1.4l-0.1,0.1l-0.8-0.4h-9.1c-3,0-6.2,0-9.2,0
	C99.3,468.3,99,468.1,98.8,467.7L98.8,467.7z"/>
<path style="fill:none;stroke:#231F20;stroke-miterlimit:10;" d="M98.8,467.7c0-0.5,0-1.1,0.1-1.6l0.5-0.8c1.1,0,2.2-0.1,3.3-0.1
	l3.8,0.3c4.1,0.2,8.2,0.4,12.5,0.8c0.1,0.3,0.1,0.8,0.2,1.1c-0.1,0.4-0.2,1-0.3,1.4l-0.1,0.1l-0.8-0.4h-9.1c-3,0-6.2,0-9.2,0
	C99.3,468.3,99,468.1,98.8,467.7L98.8,467.7z"/>
<path style="fill:none;stroke:#231F20;stroke-miterlimit:10;" d="M99.8,458.8c0-0.3-0.1-0.8-0.1-1.1c0.1-0.2,0.1-0.4,0.2-0.7
	l2.9-0.4l9.4-0.2c2.1,0.1,4.2,0.1,6.4,0.2c0,0.9-0.1,1.8-0.1,2.8l-4.6-0.2c-2.3-0.1-4.4-0.1-6.7-0.2c-2.1,0-4.2,0.1-6.3,0.1
	L99.8,458.8L99.8,458.8z"/>
<path style="fill:none;stroke:#231F20;stroke-miterlimit:10;" d="M99.8,458.8c0-0.3-0.1-0.8-0.1-1.1c0.1-0.2,0.1-0.4,0.2-0.7
	l2.9-0.4l9.4-0.2c2.1,0.1,4.2,0.1,6.4,0.2c0,0.9-0.1,1.8-0.1,2.8l-4.6-0.2c-2.3-0.1-4.4-0.1-6.7-0.2c-2.1,0-4.2,0.1-6.3,0.1
	L99.8,458.8L99.8,458.8z"/>
<path style="fill:none;stroke:#231F20;stroke-miterlimit:10;" d="M123.6,458.8c-0.2-0.3-0.3-0.8-0.5-1.1c0-0.5,0.1-1.1,0.1-1.6
	l15,0.4c2.2,0.2,4.3,0.3,6.6,0.5c0.1,0.2,0.3,0.4,0.4,0.7c0,0.5,0,1.1,0,1.5c-0.1,0.3-0.2,0.8-0.3,1.2l-8.2-0.3
	C132.3,459.7,128,459.3,123.6,458.8L123.6,458.8z"/>
<path style="fill:none;stroke:#231F20;stroke-miterlimit:10;" d="M123.6,458.8c-0.2-0.3-0.3-0.8-0.5-1.1c0-0.5,0.1-1.1,0.1-1.6
	l15,0.4c2.2,0.2,4.3,0.3,6.6,0.5c0.1,0.2,0.3,0.4,0.4,0.7c0,0.5,0,1.1,0,1.5c-0.1,0.3-0.2,0.8-0.3,1.2l-8.2-0.3
	C132.3,459.7,128,459.3,123.6,458.8L123.6,458.8z"/>
<path style="fill:none;stroke:#231F20;stroke-miterlimit:10;" d="M122.9,466.8c0.2,1.8,0.5,3.6,0.8,5.3c0,0.5-0.1,1.1-0.1,1.6
	l-1.6,0.1c-0.3-0.3-0.8-0.7-1.1-1c-0.1-0.4-0.1-0.8-0.2-1.2c0.1-0.8,0.1-1.5,0.2-2.2c0.1-0.7,0.1-1.2,0.2-1.8l-0.4-7.3
	c-0.2-2.5-0.3-5.1-0.5-7.6c0.4,0.2,0.8,0.4,1.2,0.5l0.3-1c0.2,0.1,0.5,0.3,0.8,0.4c-0.1,0.7-0.3,1.2-0.4,1.8
	c0.2,2.2,0.4,4.2,0.7,6.4C122.7,463,122.7,464.9,122.9,466.8L122.9,466.8z"/>
<path style="fill:none;stroke:#231F20;stroke-miterlimit:10;" d="M122.9,466.8c0.2,1.8,0.5,3.6,0.8,5.3c0,0.5-0.1,1.1-0.1,1.6
	l-1.6,0.1c-0.3-0.3-0.8-0.7-1.1-1c-0.1-0.4-0.1-0.8-0.2-1.2c0.1-0.8,0.1-1.5,0.2-2.2c0.1-0.7,0.1-1.2,0.2-1.8l-0.4-7.3
	c-0.2-2.5-0.3-5.1-0.5-7.6c0.4,0.2,0.8,0.4,1.2,0.5l0.3-1c0.2,0.1,0.5,0.3,0.8,0.4c-0.1,0.7-0.3,1.2-0.4,1.8
	c0.2,2.2,0.4,4.2,0.7,6.4C122.7,463,122.7,464.9,122.9,466.8L122.9,466.8z"/>
<path style="fill:none;stroke:#231F20;stroke-miterlimit:10;" d="M124.4,468.6c-0.1-0.1-0.2-0.2-0.2-0.3c0-0.8,0-1.4,0-2.2
	c3,0,6.1,0,9.1,0c3.4,0.2,6.6,0.5,10,0.8l1.5,0.1c0.1,0.1,0.3,0.3,0.4,0.4c0.1,0.4,0.2,0.9,0.3,1.3c0.1,0.3,0.1,0.8,0.2,1.1
	c-0.5,0.1-1.1,0.2-1.6,0.3c-5.4-0.3-10.8-0.7-16.3-1L124.4,468.6L124.4,468.6z"/>
<path style="fill:none;stroke:#231F20;stroke-miterlimit:10;" d="M124.4,468.6c-0.1-0.1-0.2-0.2-0.2-0.3c0-0.8,0-1.4,0-2.2
	c3,0,6.1,0,9.1,0c3.4,0.2,6.6,0.5,10,0.8l1.5,0.1c0.1,0.1,0.3,0.3,0.4,0.4c0.1,0.4,0.2,0.9,0.3,1.3c0.1,0.3,0.1,0.8,0.2,1.1
	c-0.5,0.1-1.1,0.2-1.6,0.3c-5.4-0.3-10.8-0.7-16.3-1L124.4,468.6L124.4,468.6z"/>
<path style="fill:none;stroke:#231F20;stroke-miterlimit:10;" d="M147.4,471.7c0-1.3,0-2.6,0-3.8c0-1.3,0.1-2.5,0.1-3.8
	c0-1.1-0.1-2.2-0.1-3.3c-0.2-1.1-0.3-2.2-0.5-3.3c-0.1-0.4-0.1-0.8-0.2-1.2s-0.3-0.8-0.4-1.2c0-0.1,0.1-0.1,0.2-0.2
	c0-0.1,0.1-0.1,0.2-0.2c0-0.3,0.1-0.7,0.2-1c0.2-0.2,0.3-0.5,0.5-0.8l0.7-0.5l0.8-0.3c0.1,0.5,0.3,1,0.4,1.5c0,0.4,0,1,0,1.4
	c-0.1,0.9-0.2,1.7-0.3,2.6c0.1,0.9,0.1,1.6,0.2,2.5c0.1,1.2,0.2,2.5,0.3,3.7c0.1,1.3,0.1,2.5,0.2,3.7c0,1.2,0,2.5,0.1,3.7
	c-0.1,1.2-0.2,2.5-0.2,3.7l-0.2,0.1l-0.5-0.1c-0.2-0.1-0.4-0.3-0.7-0.4l-0.4-0.7c0-0.3-0.1-0.8-0.1-1.1
	C147.4,472.4,147.4,472.1,147.4,471.7L147.4,471.7z"/>
<path style="fill:none;stroke:#231F20;stroke-miterlimit:10;" d="M147.4,471.7c0-1.3,0-2.6,0-3.8c0-1.3,0.1-2.5,0.1-3.8
	c0-1.1-0.1-2.2-0.1-3.3c-0.2-1.1-0.3-2.2-0.5-3.3c-0.1-0.4-0.1-0.8-0.2-1.2s-0.3-0.8-0.4-1.2c0-0.1,0.1-0.1,0.2-0.2
	c0-0.1,0.1-0.1,0.2-0.2c0-0.3,0.1-0.7,0.2-1c0.2-0.2,0.3-0.5,0.5-0.8l0.7-0.5l0.8-0.3c0.1,0.5,0.3,1,0.4,1.5c0,0.4,0,1,0,1.4
	c-0.1,0.9-0.2,1.7-0.3,2.6c0.1,0.9,0.1,1.6,0.2,2.5c0.1,1.2,0.2,2.5,0.3,3.7c0.1,1.3,0.1,2.5,0.2,3.7c0,1.2,0,2.5,0.1,3.7
	c-0.1,1.2-0.2,2.5-0.2,3.7l-0.2,0.1l-0.5-0.1c-0.2-0.1-0.4-0.3-0.7-0.4l-0.4-0.7c0-0.3-0.1-0.8-0.1-1.1
	C147.4,472.4,147.4,472.1,147.4,471.7L147.4,471.7z"/>
<path style="fill:none;stroke:#231F20;stroke-miterlimit:10;" d="M152.3,460.7c-0.7-0.2-1.2-0.3-1.8-0.5c-0.2-0.8-0.4-1.4-0.7-2.2
	c0.1-0.2,0.3-0.5,0.4-0.8h4.1c3.4,0.1,6.7,0.1,10.1,0.2c0.9-0.1,1.7-0.1,2.6-0.2h1.2c0.2,0.2,0.5,0.5,0.8,0.8c0.3,1,0.7,2.1,0.9,3
	l-2,0.2l-13.1-0.8C154,460.6,153.2,460.7,152.3,460.7L152.3,460.7z"/>
<path style="fill:none;stroke:#231F20;stroke-miterlimit:10;" d="M152.3,460.7c-0.7-0.2-1.2-0.3-1.8-0.5c-0.2-0.8-0.4-1.4-0.7-2.2
	c0.1-0.2,0.3-0.5,0.4-0.8h4.1c3.4,0.1,6.7,0.1,10.1,0.2c0.9-0.1,1.7-0.1,2.6-0.2h1.2c0.2,0.2,0.5,0.5,0.8,0.8c0.3,1,0.7,2.1,0.9,3
	l-2,0.2l-13.1-0.8C154,460.6,153.2,460.7,152.3,460.7L152.3,460.7z"/>
<path style="fill:none;stroke:#231F20;stroke-miterlimit:10;" d="M174.3,467.8c-0.3-0.8-0.5-1.6-0.9-2.5c-0.3-0.9-0.7-1.7-1-2.6
	c-0.4-1.1-0.9-2.2-1.2-3.3c-0.4-1.1-1-2.2-1.4-3.3c0.1-0.1,0.1-0.2,0.2-0.3c0.1-0.1,0.2-0.1,0.3-0.2c0.1-0.1,0.1-0.2,0.2-0.4
	c0-0.2-0.1-0.4-0.1-0.5c0-0.1,0-0.3,0-0.4c0.1-0.1,0.1-0.2,0.2-0.3l0.7-0.2l0.7-0.1h0.7c0.2,0.1,0.3,0.3,0.5,0.4c0,0.3,0,0.5,0,0.9
	c0,0.3,0,0.7,0,0.9c0.3,0.9,0.5,1.7,0.9,2.6c0.2,0.9,0.4,1.8,0.8,2.7c0,0.2,0,0.4,0,0.7c0,0.2,0,0.4,0,0.8c0,0.4-0.1,0.8-0.1,1.2
	c0.1,0.4,0.2,0.8,0.2,1.1c0.1,0.4,0.2,0.8,0.3,1.2c0.1,0.4,0.3,0.8,0.4,1.2c0.2,0.4,0.3,0.9,0.5,1.3c0.1,0.4,0.2,0.9,0.3,1.3
	c0.1,0.5,0.3,1.1,0.4,1.6l0.7,1.5c0.2,0.5,0.3,1,0.5,1.5c0,0.5,0.1,1.1,0.1,1.5c-0.1,0.2-0.2,0.3-0.4,0.4h-0.8
	c-0.3-0.1-0.7-0.2-0.9-0.2c-0.3-0.1-0.5-0.2-0.9-0.3c0-0.7,0-1.3,0-2c-0.1-0.7-0.2-1.3-0.2-2.1c-0.2-0.7-0.3-1.3-0.5-2
	C174.7,469.1,174.5,468.5,174.3,467.8L174.3,467.8z"/>
<path style="fill:none;stroke:#231F20;stroke-miterlimit:10;" d="M174.3,467.8c-0.3-0.8-0.5-1.6-0.9-2.5c-0.3-0.9-0.7-1.7-1-2.6
	c-0.4-1.1-0.9-2.2-1.2-3.3c-0.4-1.1-1-2.2-1.4-3.3c0.1-0.1,0.1-0.2,0.2-0.3c0.1-0.1,0.2-0.1,0.3-0.2c0.1-0.1,0.1-0.2,0.2-0.4
	c0-0.2-0.1-0.4-0.1-0.5c0-0.1,0-0.3,0-0.4c0.1-0.1,0.1-0.2,0.2-0.3l0.7-0.2l0.7-0.1h0.7c0.2,0.1,0.3,0.3,0.5,0.4c0,0.3,0,0.5,0,0.9
	c0,0.3,0,0.7,0,0.9c0.3,0.9,0.5,1.7,0.9,2.6c0.2,0.9,0.4,1.8,0.8,2.7c0,0.2,0,0.4,0,0.7c0,0.2,0,0.4,0,0.8c0,0.4-0.1,0.8-0.1,1.2
	c0.1,0.4,0.2,0.8,0.2,1.1c0.1,0.4,0.2,0.8,0.3,1.2c0.1,0.4,0.3,0.8,0.4,1.2c0.2,0.4,0.3,0.9,0.5,1.3c0.1,0.4,0.2,0.9,0.3,1.3
	c0.1,0.5,0.3,1.1,0.4,1.6l0.7,1.5c0.2,0.5,0.3,1,0.5,1.5c0,0.5,0.1,1.1,0.1,1.5c-0.1,0.2-0.2,0.3-0.4,0.4h-0.8
	c-0.3-0.1-0.7-0.2-0.9-0.2c-0.3-0.1-0.5-0.2-0.9-0.3c0-0.7,0-1.3,0-2c-0.1-0.7-0.2-1.3-0.2-2.1c-0.2-0.7-0.3-1.3-0.5-2
	C174.7,469.1,174.5,468.5,174.3,467.8L174.3,467.8z"/>
<path style="fill:none;stroke:#231F20;stroke-miterlimit:10;" d="M177.4,461.8l-0.9-0.1c-0.3-0.3-0.7-0.8-0.9-1.1
	c-0.2-0.4-0.3-1-0.5-1.5c0-0.2,0.1-0.4,0.1-0.5c0.2-0.2,0.3-0.4,0.5-0.7l9.4,0.5c0.8,0,1.6-0.1,2.5-0.1c0.1,1.2,0.2,2.3,0.3,3.5
	c-3.1-0.1-6.3-0.2-9.4-0.3L177.4,461.8L177.4,461.8z"/>
<path style="fill:none;stroke:#231F20;stroke-miterlimit:10;" d="M177.4,461.8l-0.9-0.1c-0.3-0.3-0.7-0.8-0.9-1.1
	c-0.2-0.4-0.3-1-0.5-1.5c0-0.2,0.1-0.4,0.1-0.5c0.2-0.2,0.3-0.4,0.5-0.7l9.4,0.5c0.8,0,1.6-0.1,2.5-0.1c0.1,1.2,0.2,2.3,0.3,3.5
	c-3.1-0.1-6.3-0.2-9.4-0.3L177.4,461.8L177.4,461.8z"/>
<path style="fill:none;stroke:#231F20;stroke-miterlimit:10;" d="M178.7,471.6c-0.5-1.1-1-2.2-1.5-3.3l10.4,0.7
	c0.2,0.2,0.4,0.5,0.5,0.8c0,0.5-0.1,1.1-0.1,1.6c-0.8,0.2-1.5,0.4-2.3,0.7L178.7,471.6L178.7,471.6z"/>
<path style="fill:none;stroke:#231F20;stroke-miterlimit:10;" d="M178.7,471.6c-0.5-1.1-1-2.2-1.5-3.3l10.4,0.7
	c0.2,0.2,0.4,0.5,0.5,0.8c0,0.5-0.1,1.1-0.1,1.6c-0.8,0.2-1.5,0.4-2.3,0.7L178.7,471.6L178.7,471.6z"/>
<path style="fill:none;stroke:#231F20;stroke-miterlimit:10;" d="M150.8,469.2c0-0.5,0-1.1,0-1.7c0.2-0.2,0.4-0.3,0.7-0.5
	c0.8,0.1,1.5,0.2,2.3,0.2l8.5-0.1c3.3,0.2,6.5,0.5,9.9,0.8c0.2,0.3,0.4,0.7,0.8,1c0.1,0.4,0.2,0.9,0.3,1.3c0,0.3-0.1,0.7-0.1,1
	c-5.4-0.2-10.8-0.4-16.3-0.7c-1.8-0.2-3.6-0.4-5.4-0.7C151.2,469.7,151,469.5,150.8,469.2z"/>
<path style="fill:none;stroke:#231F20;stroke-miterlimit:10;" d="M150.8,469.2c0-0.5,0-1.1,0-1.7c0.2-0.2,0.4-0.3,0.7-0.5
	c0.8,0.1,1.5,0.2,2.3,0.2l8.5-0.1c3.3,0.2,6.5,0.5,9.9,0.8c0.2,0.3,0.4,0.7,0.8,1c0.1,0.4,0.2,0.9,0.3,1.3c0,0.3-0.1,0.7-0.1,1
	c-5.4-0.2-10.8-0.4-16.3-0.7c-1.8-0.2-3.6-0.4-5.4-0.7C151.2,469.7,151,469.5,150.8,469.2z"/>
<path style="fill:#231F20;" d="M169.2,477.5c-0.3-0.1-0.7-0.1-1.1-0.2c-0.4,0.1-0.9,0.2-1.2,0.2c0,0.1,0.1,0.2,0.2,0.4h0.7l0.5-0.1
	l1.2,0.2C169.3,477.8,169.2,477.6,169.2,477.5L169.2,477.5z"/>
<path style="fill:none;stroke:#231F20;stroke-width:0.214;stroke-linejoin:bevel;stroke-miterlimit:2.613;" d="M169.2,477.5
	c-0.3-0.1-0.7-0.1-1.1-0.2c-0.4,0.1-0.9,0.2-1.2,0.2c0,0.1,0.1,0.2,0.2,0.4h0.7l0.5-0.1l1.2,0.2
	C169.3,477.8,169.2,477.6,169.2,477.5L169.2,477.5z"/>
<path style="fill:none;stroke:#231F20;stroke-miterlimit:10;" d="M267.3,422.9c0.9,0,1.6,0.5,1.6,1.4c0,0.8-0.7,1.4-1.5,1.5
	c-0.9,0.1-1.6-0.5-1.6-1.4C265.7,423.6,266.4,422.9,267.3,422.9"/>
<path style="fill:none;stroke:#231F20;stroke-miterlimit:10;" d="M251.2,433.7c0.9,0,1.6,0.5,1.6,1.4c0,0.8-0.7,1.4-1.5,1.5
	c-0.9,0.1-1.6-0.5-1.6-1.4C249.7,434.4,250.4,433.8,251.2,433.7"/>
<path style="fill:none;stroke:#231F20;stroke-miterlimit:10;" d="M255.6,427.1c0.9,0,1.6,0.5,1.6,1.4c0,0.8-0.7,1.4-1.5,1.5
	c-0.9,0-1.6-0.5-1.6-1.4S254.7,427.1,255.6,427.1"/>
<path style="fill:none;stroke:#231F20;stroke-miterlimit:10;" d="M260.7,433.8c0.9,0,1.6,0.5,1.6,1.4c0,0.8-0.7,1.4-1.5,1.5
	c-0.9,0-1.6-0.5-1.6-1.4C259,434.5,259.8,433.9,260.7,433.8"/>
<path style="fill:none;stroke:#231F20;stroke-miterlimit:10;" d="M255.7,436c0.9,0,1.6,0.5,1.6,1.4c0,0.8-0.7,1.4-1.5,1.5
	c-0.9,0-1.6-0.5-1.6-1.4C254.2,436.6,254.9,436.1,255.7,436"/>
<path style="fill:none;stroke:#231F20;stroke-miterlimit:10;" d="M262.1,426.8c0.9,0,1.6,0.5,1.6,1.4c0,0.8-0.7,1.4-1.5,1.5
	c-0.9,0-1.6-0.5-1.6-1.4C260.6,427.5,261.2,426.8,262.1,426.8"/>
<path style="fill:none;stroke:#231F20;stroke-miterlimit:10;" d="M261.2,420.3c0.9,0,1.6,0.5,1.6,1.4c0,0.8-0.7,1.4-1.5,1.5
	c-0.9,0.1-1.6-0.5-1.6-1.4C259.7,421,260.3,420.3,261.2,420.3"/>
<path style="fill:none;stroke:#231F20;stroke-miterlimit:10;" d="M277.6,422.6c0.9,0,1.6,0.5,1.6,1.4c0,0.8-0.7,1.4-1.5,1.5
	c-0.9,0-1.6-0.5-1.6-1.4C276.1,423.3,276.7,422.6,277.6,422.6"/>
<path style="fill:none;stroke:#231F20;stroke-miterlimit:10;" d="M277,433.1c0.9,0,1.6,0.5,1.6,1.4c0,0.8-0.7,1.4-1.5,1.5
	c-0.9,0.1-1.6-0.5-1.6-1.4C275.5,433.8,276.2,433.1,277,433.1"/>
<path style="fill:none;stroke:#231F20;stroke-miterlimit:10;" d="M274.8,418.9c0.9,0,1.6,0.5,1.6,1.4c0,0.8-0.7,1.4-1.5,1.5
	c-0.9,0-1.6-0.5-1.6-1.4C273.3,419.6,273.9,418.9,274.8,418.9"/>
<path style="fill:none;stroke:#231F20;stroke-miterlimit:10;" d="M290.4,434.9c0.9,0,1.6,0.5,1.6,1.4c0,0.8-0.7,1.4-1.5,1.5
	c-0.9,0.1-1.6-0.5-1.6-1.4C288.9,435.5,289.5,434.9,290.4,434.9"/>
<path style="fill:none;stroke:#231F20;stroke-miterlimit:10;" d="M288,427.4c0.9,0,1.6,0.5,1.6,1.4c0,0.8-0.7,1.4-1.5,1.5
	c-0.9,0-1.6-0.5-1.6-1.4C286.5,428,287.1,427.4,288,427.4"/>
<path style="fill:none;stroke:#231F20;stroke-miterlimit:10;" d="M282.1,440.4c0.9,0,1.6,0.5,1.6,1.4c0,0.8-0.7,1.4-1.5,1.5
	c-0.9,0.1-1.6-0.5-1.6-1.4C280.6,441.1,281.3,440.4,282.1,440.4"/>
<path style="fill:none;stroke:#231F20;stroke-miterlimit:10;" d="M284.2,434.2c0.9,0,1.6,0.5,1.6,1.4c0,0.8-0.7,1.4-1.5,1.5
	c-0.9,0-1.6-0.5-1.6-1.4C282.7,434.9,283.3,434.2,284.2,434.2"/>
<path style="fill:none;stroke:#231F20;stroke-miterlimit:10;" d="M301.6,446.3c0.9,0,1.6,0.5,1.6,1.4c0,0.8-0.7,1.4-1.5,1.5
	c-0.9,0.1-1.6-0.5-1.6-1.4C299.9,447,300.7,446.4,301.6,446.3"/>
<path style="fill:none;stroke:#231F20;stroke-miterlimit:10;" d="M302.3,436.7c0.9,0,1.6,0.5,1.6,1.4c0,0.8-0.7,1.4-1.5,1.5
	c-0.9,0-1.6-0.5-1.6-1.4S301.4,436.7,302.3,436.7"/>
<path style="fill:none;stroke:#231F20;stroke-miterlimit:10;" d="M294.9,440.3c0.9,0,1.6,0.5,1.6,1.4c0,0.8-0.7,1.4-1.5,1.5
	c-0.9,0.1-1.6-0.5-1.6-1.4S294.1,440.3,294.9,440.3"/>
<path style="fill:none;stroke:#231F20;stroke-miterlimit:10;" d="M295.6,429c0.9,0,1.6,0.5,1.6,1.4c0,0.8-0.7,1.4-1.5,1.5
	c-0.9,0-1.6-0.5-1.6-1.4C294.1,429.7,294.7,429,295.6,429"/>
<path style="fill:none;stroke:#231F20;stroke-miterlimit:10;" d="M269,433.2c0.9,0,1.6,0.5,1.6,1.4c0,0.8-0.7,1.4-1.5,1.5
	c-0.9,0-1.6-0.5-1.6-1.4C267.5,434,268.2,433.4,269,433.2"/>
<path style="fill:none;stroke:#231F20;stroke-miterlimit:10;" d="M255,440.8c0.9,0,1.6,0.5,1.6,1.4c0,0.8-0.7,1.4-1.5,1.5
	c-0.9,0-1.6-0.5-1.6-1.4C253.5,441.5,254.2,440.8,255,440.8"/>
<path style="fill:none;stroke:#231F20;stroke-miterlimit:10;" d="M265.3,412.5c0.9,0,1.6,0.5,1.6,1.4c0,0.8-0.7,1.4-1.5,1.5
	c-0.9,0-1.6-0.5-1.6-1.4C263.8,413.2,264.5,412.5,265.3,412.5"/>
<path style="fill:none;stroke:#231F20;stroke-miterlimit:10;" d="M274.3,430.9c0.9,0,1.6,0.5,1.6,1.4c0,0.8-0.7,1.4-1.5,1.5
	c-0.9,0-1.6-0.5-1.6-1.4C272.8,431.5,273.5,430.9,274.3,430.9"/>
<path style="fill:#231F20;" d="M55.6,471.1L0,472.8l55.7,0.3L55.6,471.1"/>
<path style="fill:none;stroke:#231F20;stroke-miterlimit:10;" d="M294.9,390.7h14.9v11.4h-14.9V390.7z"/>
</svg>
