<?xml version="1.0" encoding="utf-8"?>
<!-- Generator: Adobe Illustrator 17.0.0, SVG Export Plug-In . SVG Version: 6.00 Build 0)  -->
<!DOCTYPE svg PUBLIC "-//W3C//DTD SVG 1.1//EN" "http://www.w3.org/Graphics/SVG/1.1/DTD/svg11.dtd" [
	<!ENTITY ns_flows "http://ns.adobe.com/Flows/1.0/">
	<!ENTITY ns_extend "http://ns.adobe.com/Extensibility/1.0/">
	<!ENTITY ns_ai "http://ns.adobe.com/AdobeIllustrator/10.0/">
	<!ENTITY ns_graphs "http://ns.adobe.com/Graphs/1.0/">
]>
<svg version="1.1" id="Layer_1" xmlns:x="&ns_extend;" xmlns:i="&ns_ai;" xmlns:graph="&ns_graphs;"
	 xmlns="http://www.w3.org/2000/svg" xmlns:xlink="http://www.w3.org/1999/xlink" xmlns:a="http://ns.adobe.com/AdobeSVGViewerExtensions/3.0/"
	 x="0px" y="0px" width="612px" height="792px" viewBox="0 0 612 792" style="enable-background:new 0 0 612 792;"
	 xml:space="preserve">
<g>
	<path style="fill:none;stroke:#000000;stroke-width:3;stroke-miterlimit:10;" d="M99.7,425.2c35.8-41.9,45.8-36.7,45.8-36.7
		s1.4-0.9,2.2-1.3c39.7-20.7,54,1.3,54,1.3s1.5,1,2,1.1c67.2,12.3,61,32.2,61,32.2s1.5,2.1,2.1,1.8c18.6-9.1,44.1,36.2,44.1,36.2
		s8.7-39.5,31.9-39.4c1.6,0,3.3,1.3,4.8,0.6c38-19,66.5-9.1,66.5-9.1s2.5-1.6,3.8-2.4c27.3-17.5,50.9,8.2,50.9,8.2s1.5,2.6,2.4,2.8
		c31.1,6,35,39.3,35,39.3s36.3-44-58.7-124.4c-1.5-1.3,3.7-5,3.5-6.9c-0.1-0.6-1.5-1.1-2.7-0.2c-12,8.4-67.8,39.8-129,34.9
		c-47.8-3.7-89.3-45-110.5-63.2c-0.6-0.6-3.2-0.8-3.5,0c-0.4,1.1,3.2,3.8,2.2,4.3C114.6,348.4,90.7,435.8,99.7,425.2L99.7,425.2z"/>
	<path style="fill:none;stroke:#000000;stroke-width:3;stroke-miterlimit:10;" d="M512.8,432c0.6,1.7-0.5-5.5-1.2-7.2
		c-11.3-26-69-90.2-69-90.2l-1.6,1C441,335.7,504.3,409.4,512.8,432L512.8,432z"/>
	<path style="fill:none;stroke:#000000;stroke-width:3;stroke-miterlimit:10;" d="M298.4,312c-2.6,4.4-6.3,36.6,5.9,34.9v11.4
		c0,0-12.3,2.9-16.5,3.4c-6.4,0.6-20.1,0-25.4-3.6c-16.4-11.3-41.9-45.3-53.8-57.3c-0.6-0.6-4-0.2-3.5,0.4
		c12.4,13.8,54,62.4,54,62.4l33.2,6.7c0,0-9.5,19.8,0,29.3c1,1-0.2,4.7-1.4,5.6c-3.8,2.7-14.7,0.3-18.7,2.8c-3.5,2.1-7.5,14-7.5,14
		s-4.7,5.5-4.2,7.5c0.6,3.2,10.7-7.1,10.7-7.1s0.5-8.9,4.1-9.2c8.5-0.7,16.8-4.2,19.3,0.1c5.2,8.9,11.6,13.8,14.5,47.2
		c0.1,0.8,3.1,0.8,3.1,0c0-7.5-3.5-26.9-0.7-35.1c1-2.9,5.4-8.1,8.2-9.1c4.5-1.6,19.4-3.1,20.9,1.5c1.9,5.8,10.4,11.6,10.9,10.7
		c2.9-6.4-3.5-7-3.7-7.5c-1.6-5.1-1.6-6.8-1.8-7.3c-1.7-4.2-23.8-4.1-20.1-6.7c20.9-14.7,13.4-33.8,13.4-33.8l40.5,2.5
		c0,0,70.9-45.2,71-45.4c0.2-1-0.6-2-2.5-1.2c-7.2,3-50.8,34.9-69.9,41c-9.2,2.9-38-7-38-7s-1.9-11.7,0.8-12.5
		c14.4-4.4,13.8-23.3,13.8-34.7c0-0.7-18.1,16-21.6,12c-7.6-8.4-20.9-2.5-20.9-2.5S300,309.2,298.4,312L298.4,312z"/>
	<path style="fill:none;stroke:#000000;stroke-width:3;stroke-miterlimit:10;" d="M316.4,345.4c0,0-10.3-1.4-10.3,5
		c0,2.6,1.3,6.7,7.8,6.8c2.9,0,5.3-3.2,5.3-3.2s2.4,3.2,7.9,3.2c5.5,0,6.4-3.8,6.6-5.9c0.4-5.7-10.3-5.9-10.3-5.9s3.9-1.7,3.9-3.8
		c0-5.2-5.4-4.5-7-4.6c-1.6,0-6.9-1.1-6.9,3.8C313.5,343,316.4,345.4,316.4,345.4L316.4,345.4z"/>
	<path style="fill:none;stroke:#000000;stroke-width:3;stroke-miterlimit:10;" d="M319.1,346.8c-2.2,0-10.8-0.9-11.1,3.1
		c-0.2,2.2,3.4,4.5,7.4,4.6c2.5,0,3.8-2.1,3.8-2.1s1.7,1.9,4.2,2.1c4.5,0.3,8.4-1.4,8.4-3.7C331.8,347.2,320.7,346.8,319.1,346.8z"
		/>
	<path style="fill:none;stroke:#000000;stroke-width:3;stroke-miterlimit:10;" d="M311.5,350.1c0,0,5.6-2,7.5-1.9
		c2.3,0.1,8.8,2.8,8.8,2.8s-6.5,0.5-8.7,0.4C317.2,351.3,311.5,350.1,311.5,350.1L311.5,350.1z"/>
	<path style="fill:none;stroke:#000000;stroke-width:3;stroke-miterlimit:10;" d="M334.6,334.3c-1.9-0.7-5.3,4.2-5.3,6.3
		c0,2.2,3.2,7.3,5.3,6.9C337.8,346.8,338.9,335.8,334.6,334.3L334.6,334.3z"/>
	<path style="fill:none;stroke:#000000;stroke-width:3;stroke-miterlimit:10;" d="M307.7,332.8c1.9-0.7,5.3,4.2,5.3,6.3
		c0,2.2-3.2,7.3-5.3,6.9C304.5,345.3,303.4,334.3,307.7,332.8L307.7,332.8z"/>
	<path style="fill:none;stroke:#000000;stroke-width:3;stroke-miterlimit:10;" d="M307.9,335.4c-1.8,0.7-1.9,7.3,0,7.8
		c1.3,0.3,3.6-2.5,3.6-3.9C311.5,338,309.2,334.9,307.9,335.4z"/>
	<path style="fill:none;stroke:#000000;stroke-width:3;stroke-miterlimit:10;" d="M334.4,337c1.8,0.7,1.9,7.3,0,7.8
		c-1.3,0.3-3.6-2.5-3.6-3.9S333.2,336.4,334.4,337z"/>
	<ellipse style="fill:none;stroke:#000000;stroke-width:3;stroke-miterlimit:10;" cx="334.1" cy="340.3" rx="1.7" ry="2.1"/>
	<ellipse style="fill:none;stroke:#000000;stroke-width:3;stroke-miterlimit:10;" cx="308.3" cy="339.4" rx="1.7" ry="2.1"/>
	<ellipse style="fill:none;stroke:#000000;stroke-width:3;stroke-miterlimit:10;" cx="308.3" cy="338.6" rx="0.9" ry="1.3"/>
	<ellipse style="fill:none;stroke:#000000;stroke-width:3;stroke-miterlimit:10;" cx="334.1" cy="339.5" rx="0.9" ry="1.3"/>
	<ellipse style="fill:none;stroke:#000000;stroke-width:3;stroke-miterlimit:10;" cx="316.9" cy="341.4" rx="1" ry="1.2"/>
	<ellipse style="fill:none;stroke:#000000;stroke-width:3;stroke-miterlimit:10;" cx="323" cy="341.7" rx="1" ry="1.2"/>
	<path style="fill:none;stroke:#000000;stroke-width:3;stroke-miterlimit:10;" d="M353.3,318.9c0,0-15.1,13.8-13,24.3
		c1.3,7,10.1-2.4,11.5-8.6C352.7,330.4,353.3,318.9,353.3,318.9z"/>
	<path style="fill:none;stroke:#000000;stroke-width:3;stroke-miterlimit:10;" d="M299.3,315.8c-4.8,21.1,4.2,32.8,3.5,26.6
		c-0.6-6,3.8-14.9,3.8-14.9S300.1,311.9,299.3,315.8z"/>
	<path style="fill:none;stroke:#000000;stroke-width:3;stroke-miterlimit:10;" d="M200.8,387.4c0,0.9,3,3.1,2.9,2.2
		c-4.3-49.6,9.9-79.6,9.9-79.6l-1.4-1.7C212.2,308.3,197.8,326.9,200.8,387.4L200.8,387.4z"/>
	<path style="fill:none;stroke:#000000;stroke-width:3;stroke-miterlimit:10;" d="M209.6,311.5c0,0-48.6,52.8-60.5,74.7
		c-0.5,0.9-4,2.6-3.6,1.7c10.7-23.9,65.2-81.3,65.2-81.3l1.6,1.8L209.6,311.5L209.6,311.5z"/>
	<polygon style="fill:none;stroke:#000000;stroke-width:3;stroke-miterlimit:10;" points="210.5,306.5 209.1,304.7 124.1,370.8 
		120.4,377.6 	"/>
	<path style="fill:none;stroke:#000000;stroke-width:3;stroke-miterlimit:10;" d="M98.1,423.2c16.1-73.8,109.1-120.5,109.1-120.5
		l1,1.1c0,0-87.7,45-106.2,118c-0.4,1.5-4.1,4.5-4.1,4.5S97.5,425.8,98.1,423.2L98.1,423.2z"/>
	<path style="fill:none;stroke:#000000;stroke-width:3;stroke-miterlimit:10;" d="M437.4,338c0,0,4,34.8-23.3,73.8
		c-0.6,0.9,3.2-1.5,3.8-2.4c28.6-41.1,23.1-73.8,23.1-73.8L437.4,338L437.4,338z"/>
	<path style="fill:none;stroke:#000000;stroke-width:3;stroke-miterlimit:10;" d="M468.7,417.7c-0.2,0.6,1.4,2,1.4,2s2.3,1.7,2.5,1
		c5.1-28.4-28.9-86.8-28.9-86.8l-2.3,1.5C441.4,335.4,475.4,397.1,468.7,417.7L468.7,417.7z"/>
	<path style="fill:none;stroke:#000000;stroke-width:3;stroke-miterlimit:10;" d="M504.8,453.9c-0.7,1.3,0.5,7.2,1.3,5.9
		c32-53.5-61-126.6-61-126.6l-2.5,1.6C442.6,334.7,530.8,403.6,504.8,453.9L504.8,453.9z"/>
	<path style="fill:none;stroke:#000000;stroke-width:3;stroke-miterlimit:10;" d="M300.1,403.2c1.1,3.5,5.4,11.7,9.1,11.4
		c12.7-1.1,27.3-23,26.7-43.5c-0.1-4-0.7-17.5-4.1-15.4c-6.5,4-12.5-1.8-12.5-1.8s-4.2,5.8-10.6,1.7
		C308.3,355.4,293.3,381.6,300.1,403.2L300.1,403.2z"/>
	<polygon style="fill:none;stroke:#000000;stroke-width:3;stroke-miterlimit:10;" points="317.7,350.6 319.1,348.2 316.9,348.5 	"/>
	<polygon style="fill:none;stroke:#000000;stroke-width:3;stroke-miterlimit:10;" points="320.1,348.3 319.8,350.6 321.6,348.7 	"/>
</g>
</svg>
