<?xml version="1.0" encoding="utf-8"?>
<!-- Generator: Adobe Illustrator 17.0.0, SVG Export Plug-In . SVG Version: 6.00 Build 0)  -->
<!DOCTYPE svg PUBLIC "-//W3C//DTD SVG 1.1//EN" "http://www.w3.org/Graphics/SVG/1.1/DTD/svg11.dtd" [
	<!ENTITY ns_flows "http://ns.adobe.com/Flows/1.0/">
	<!ENTITY ns_extend "http://ns.adobe.com/Extensibility/1.0/">
	<!ENTITY ns_ai "http://ns.adobe.com/AdobeIllustrator/10.0/">
	<!ENTITY ns_graphs "http://ns.adobe.com/Graphs/1.0/">
]>
<svg version="1.1" id="Layer_1" xmlns:x="&ns_extend;" xmlns:i="&ns_ai;" xmlns:graph="&ns_graphs;"
	 xmlns="http://www.w3.org/2000/svg" xmlns:xlink="http://www.w3.org/1999/xlink" xmlns:a="http://ns.adobe.com/AdobeSVGViewerExtensions/3.0/"
	 x="0px" y="0px" width="612px" height="792px" viewBox="0 0 612 792" style="enable-background:new 0 0 612 792;"
	 xml:space="preserve">
<g id="Layer_3">
</g>
<g id="Layer_2">
	<g>
		<path d="M348.5,312.6c-0.2-0.2-0.3-0.4-0.4-0.4c-2.7,1.3-4.1,2.1-5.6,2.8c0.3,0.4,0.4,0.8,0.7,1.2
			C344.9,314.9,346.7,313.7,348.5,312.6z"/>
		<path d="M569.1,352.2c1.6,0,4.8-1,6,0.2c3.5,3.4,6.3,7.7,9.8,12.4c-3-0.2-4.8-0.3-6.4-0.4c0.6,5-3.9,5.6-6.5,7.8
			c1.2,0.4,2,0.7,2.8,1c-1.3,1-3.4,1.3-3.7,0.8c-0.5-1.1-0.2-2.7-0.2-4.5c-2.9-3-4.6,0.8-6.7,2.1c-2.9-3-5.6-5.9-8.5-9
			c1.1-1,2.1-1.9,3-2.8c-0.2-0.2-0.4-0.4-0.5-0.6c-3.1,2.2-6.3,4.4-9.4,6.5l0.3,0.3c4.2-2.6,7.3-1.1,9.7,2.6
			c1.8,2.7,3.4,5.5,5.1,8.2c-0.5,0.3-1,0.5-1.5,0.8c-0.3-0.5-0.5-1.1-0.9-1.9c-1.4,0.9-2.9,1.8-5,3.1c0.7-1.3,1.1-1.9,1.4-2.5
			c-2.2-0.3-4.4-0.6-7-1c0.6,1.3,1.2,2.6,2.2,4.8c-4.7,3.4-9.6,6.8-14.4,10.4c-3.4,2.6-8.1,3.9-9.4,9c-0.2,0.6-2.5,0.6-4.2-0.1
			c1-0.9,1.9-1.8,2.9-2.6c-0.1-0.2-0.3-0.4-0.4-0.5c-8,5.1-15.9,10.1-24.6,15.7c4.1-1,7.5-1.8,10.9-2.7c0.1,0.4,0.2,0.6,0.4,1
			c-4.1,2.6-8.2,5.3-12.5,8c-2.6-5.5-5.3-11-7.9-16.6c-0.3,0.1-0.5,0.3-0.8,0.4c2.2,5.4,4.4,10.8,6.5,16.1c-0.6,0.3-1.3,0.5-1.8,0.8
			c-2.2-4.8-4.4-9.7-6.6-14.5c-0.2,0.1-0.4,0.2-0.6,0.3c0.1,1,0.2,1.9,0.4,3.2c-1.5-0.2-2.8-0.4-3.9-0.5c-0.5-6.7,1-8.2,8.4-11.7
			c9.7-4.5,19.3-9.5,28.9-14.2c1-0.5,1.8-1.4,2.7-2.2l-0.1,0c-2.4,1.1-4.9,2.1-7.3,3.1c-12.2,5.5-24.4,10.9-36.6,16.3
			c-1.1,0.4-3,1-3.3,0.5c-2.7-3.6-5.8-1.5-8.8-0.5c-1.3-1.4-2.4-3-3.9-3.9c-2.6-1.8-5.4-3.3-8.5-5.3c1.4-1.3,1.9-1.6,2.3-2
			c5.6-4.4,4.7-10.1-1.8-13c-0.8-0.4-1.6-2.2-1.4-3.2c0.9-4.7-0.9-8.2-3.6-11.6c0.8,2.6,1.5,5.2,2.3,7.9c-0.4,0.2-1,0.3-1.4,0.4
			c-0.8-2.9-1.3-5.9-2.4-8.7c-0.9-2.3-2.2-4.6-3.4-6.8l0.1,0.1c-0.1-0.1-0.1-0.1-0.2-0.2l0,0l0,0c-1.9-1.8-3.6-4-5.8-5.4
			c-3.9-2.3-7.2-4.6-7.2-9.8c0-1.2-0.9-2.7-1.8-3.3c-4.6-3-9.2-5.8-13.9-8.5c-1-0.5-2.3-0.6-3.4-0.4c-2.8,0.4-3.7-0.4-3.6-3.3
			c0.2-6.6-4.4-9.9-10.8-8.6c-2.4,0.4-5.2-0.7-7.7-1.4c-2.5-0.7-4.9-2.8-7.3-2.7c-4.6,0.3-9.6,0.8-13.6,2.9
			c-6.8,3.4-13.8-0.6-20.3,2.2c-2.4-7.1-3.1-7.5-10-9.5c-5.5-1.6-11.1-3-15.1-7.9c-1.4-1.7-4.2-2.7-6.6-3.2
			c-5.1-1.3-10.3-2.1-15.4-3c-0.4-0.1-0.7-0.5-1.1-0.7c-5.8-3.8-12.5-3.1-17.1,1.3c-2.1-0.8-4.2-2.6-5.8-2.2
			c-5.8,1.5-11.5,3.6-17.1,5.7c-3,1.1-5.7,2.7-8.6,4c-1.6,0.7-3.4,1.1-5,1.8c-2.3,1-4.3,2.2-3,5.5c0.2,0.5-0.3,1.8-0.8,2
			c-0.7,0.4-2.1,0.5-2.6,0.1c-3.3-2.7-6.9-2.1-10.7-1.6c-1.6,0.2-3.3-0.4-5-0.6c-3-0.3-5.9-0.6-9-0.7c-1.3,0-2.5,0.8-3.8,0.8
			c-3.7,0-7.3-0.6-11-0.4c-9.2,0.6-18.2,10.6-18.2,19.8c0,1.4,0,3.4,0.9,4.3c4.2,4,2.3,8.8,2.1,13.4c-0.4,6.9,0.8,13.2,5.8,18.5
			c3,3.2,5.6,7.3,7.1,11.5c1.5,4.2,2.8,8.1,7.7,9.8c-2.1,4.8-3.9,9.2-6,14.2c5.6,2.2,11,4.5,16.6,6.6c-0.3,0.7-0.5,1.4-0.9,2.2
			c-5.4-2.2-10.8-4.2-16.2-6.5c-0.4-0.2-1.1-1-1-1.3c1.2-6.2-4.2-6.7-7.3-6.3c-5.2,0.7-8.4-2.1-12.2-4.2
			c-6.5-3.8-13.2-7.5-19.8-11.2c-0.3-0.2-0.7,0.1-1.3,0.1c1,1.3,1.8,2.3,2.9,3.7c-0.9,0.2-1.5,0.3-1.6,0.4c0,2.3,0,4.5,0,7.4
			c-5.1-3.2-3.9-6.4-2.1-9.2c-5-4-9.9-7.9-14.6-11.7c0.3-0.4,0.5-0.6,0.8-1c4.2,3.1,8.3,6.3,12.5,9.4c-6.3-8-15.1-14-18.3-13.6
			c1.9,3,3.9,6.2,6.1,9.8c-2.3-1-4.1-1.8-6-2.5c-0.7,0.1-1.3,0.2-2.1,0.2c7.2,4.9-3.9,5.1-0.9,8.5c3.7,0.4,6.8,0.6,9.9,0.9
			c0.1,0.3,0.1,0.6,0.2,0.9c-5.7,3.2-11.6,6.5-16.8,9.3c1.6-10,3-19.4,4.7-28.9c0.2-0.9,1.9-1.5,3-2.5c0.2,0.3-0.1-0.2-0.4-0.6
			c-8.8-8.7-17.5-17.4-26.3-26c-4.9-4.7-10.7-8-17.7-6.9c-6.5,1-13,2-19,4.3c-12.7,5-21.8,15-30.4,25.1
			c-10.6,12.5-20.1,25.6-24.3,41.8c-0.7,2.9-1.5,5.7-2.2,8.6c0,4.5,0,9,0,13.4c2.2,7,4.3,14.1,10.6,18.6c2.9,2.1,6.1,3.8,9,5.8
			c28.4,20,59,35.4,91.8,46.5c27.2,9.2,55.6,13.4,83.9,17c30.7,3.9,61.5,2.8,91.9-1.7c48.3-7.3,95.1-20.3,140.1-39
			c15-6.2,29.7-13.4,43.4-22c29.2-18.6,57.4-38.6,83.2-62c8-7.3,15.6-14.7,19.4-25.2c0-1.8,0-3.6,0-5.4
			C588.5,345,574.4,346.8,569.1,352.2z M490.8,410.1c-1.3,2.4-2.4,4.3-3.9,6.9c-1.1-2.8-1.9-4.7-2.8-6.9
			C486.2,410.1,487.9,410.1,490.8,410.1z M453,383.2c1.8,5.9,9.3,8.2,9.5,15.9c-3.9-5.5-7.3-10.2-10.8-15.1
			C452.2,383.7,452.6,383.4,453,383.2z M433.3,340c2.5,3,5,6,7.8,9.3c3.7-2.1,5.4,1.3,7.7,3.3c0.5,1.5,1.3,3,1.5,4.5
			c0.2,1.6-0.3,3.2-0.4,4.8c-0.5,0-1.1-0.1-1.6-0.1c-0.1-1.3-0.1-2.4-0.3-3.6c-0.4-4-3.3-6.5-7.3-6.8c-0.8-0.1-2-0.4-2.3-1
			c-2.2-3.1-4.1-6.4-6.1-9.6C432.6,340.5,433,340.2,433.3,340z M445.3,359.2c1.6,4.2,3.2,8.2,5,12.8
			C446,370,443.7,363.8,445.3,359.2z M439.3,354.8c3.5-3.1,4.4-2.8,6.5,1.7c-0.3,0.4-0.5,1-0.8,1.4
			C443.1,356.9,441.3,355.9,439.3,354.8z M429.1,336.4c0.7-0.1,2.2,1.3,2.2,2c0,1.3-0.9,2.4-1.4,3.7c-0.6-0.4-1.2-0.7-1.8-1.1
			c-0.6-0.9-1.3-1.7-1.9-2.6C427.2,337.6,428.1,336.5,429.1,336.4z M414.1,326.4c-13.6-1.2-13.6-1.2-14.2-4.4
			C404.6,323.6,409.3,325,414.1,326.4z M403.9,314.2c2.1,0.8,4.6,1.2,6.2,2.6c1.3,1.2,1.5,3.5,1.4,5.8c-2.7-2.5-2.9-7.5-8.6-6
			C403.1,315.8,403.5,315,403.9,314.2z M403.3,319.1c-4.3-1-8.1-1.9-11.6-2.7C393.9,313.9,399.9,314.9,403.3,319.1z M393.6,318.5
			c-5.8,5.7-12.5,5.6-14.4-0.2C383.9,322.9,388.2,320.7,393.6,318.5z M382.5,319c2-1.4,1.3-6.2,5.8-4.3c0.6,0.3,1.3,2.2,1.2,2.3
			c-2,1.3-4,2.4-6.1,3.6C383.1,320.1,382.8,319.5,382.5,319z M382.4,314L382.4,314c0.1-0.1,0.2-0.1,0.2-0.1c1.2-4.3,5.9-4.7,10.2-1
			c-3.4,0.4-6.8,0.7-10.2,1C382.6,314,382.6,314,382.4,314C382.6,314.1,382.5,314,382.4,314c0,0.6,0,1.3,0,1.4c-4-0.3-8-0.5-12-0.8
			C374.1,311.9,378.3,312.7,382.4,314z M365.2,322.9c-5.8-1-11.6-2.1-17.5-3c0.1-0.5,0.2-1.1,0.2-1.6c3,0.4,6.2,0.5,9.1,1.3
			C359.9,320.3,362.6,321.5,365.2,322.9z M321.2,297.1c1.5,1.3,3,2.8,4.5,4.1c-0.9,0.6-2,2-2.5,1.8c-2-0.8-3.9-1.9-5.4-3.3
			c-0.4-0.4,0.7-2.3,1.2-3.6C319.6,296.4,320.4,296.7,321.2,297.1z M301.9,290.9c2.2,0.4,4.3,0.9,6.5,1.1c3.5,0.4,6.8,1,9.8,5.1
			c-6.5-4-9.9-4.1-14.7-0.3c2.2,0.6,4.2,2.1,5.6,1.5c3.7-1.3,5.3,0.7,7.3,3c2.5,2.8,5.6,4.3,9.5,2.7c0.4-0.1,1-0.2,1.4-0.3
			c2.8-2.5,9.5-1.5,12.2,2.4c1.5,2.2,2.8,4.3,5.8,4.5c0.6,0,1.3,0.5,2.4,1.2c-1.5-1.6-3-3.2-4.4-4.7c5.2-1.1,8.2,1.7,6.7,7.2
			c2.4,0.5,4.8,1.2,7.3,1.7c-0.1,0.4-0.1,0.7-0.2,1.1c-0.9,0-1.8,0-2.7,0c-3.3,0-6.5,0-9.9,0c-0.4,0-0.9,0.1-1.3,0.1
			c-3.6-0.1-14.6-6.3-16.8-9.4c-9.3-2.8-17.3-8.6-27.5-10.3C304,295.9,302.8,293,301.9,290.9z M285.9,292.5c2.3,2.1,4.2,4.2,7.8,2.2
			c-3.1,4.9-8.8,4.1-11.9,5.7c-0.3,0.4-0.5,0.6-0.9,0.6c0.3-0.3,0.6-0.4,0.9-0.6c1-1.6,1.3-5.8,6.1-3c-3.4-6.7-5.4-6.5-14.2,0.1
			C274.4,291.4,281.2,288.5,285.9,292.5z M277.3,297.9c-1.4,4.4-6.9,8.2-11.5,8.4C269.5,303.7,273.4,300.9,277.3,297.9z
			 M269.4,297.2c3.1,3.3,1.4,4.7-0.6,5.4c-1.1,0.4-2.4-0.3-3.7-0.4C266.4,300.6,267.8,299,269.4,297.2z M260.2,304.1
			c0.4,0.4-0.2,2.6-0.9,3.3c-2.7,2.6-4.7,1.1-6.5-1.9C255.2,303.8,257.5,301.7,260.2,304.1z M263.6,304.2c0,5.7-4.7,8.8-11,7
			C257.3,310.5,261.7,309.3,263.6,304.2z M221.7,314.3c0.4-0.4,0.7-0.9,1.1-1.3c-0.6-2.1-1.2-4-1.8-6.1c4.7-2.2,8.2-0.6,11.3,6.6
			c-1.6-0.2-3.2-0.4-4.8-0.5c0.2-1.2,0.4-2.4,0.6-4.2c-0.8-0.4-2.2-0.9-4.2-1.6c0.7,2.8,1.3,4.8,2.1,8.2c-3.8-0.4-7-0.8-10.1-1.2
			c0-0.5-0.1-1-0.1-1.5c0.7-0.7,1.3-1.5,2.4-2.6c-1.9-1.1-3.6-1.9-5.7-3.1C218.1,306,219.7,310.5,221.7,314.3z M207.6,311.7
			c1.8,3.6,1.4,7.4-1.2,9.3c-3,2.1-5.8,1.5-9.1-1.4C204.9,321.1,205,320.9,207.6,311.7z M206.5,309.2c-1.1,3.6-2.1,6.9-3,10.2
			c-0.6-0.1-1.3-0.2-1.9-0.4c-1.3-2.7-2.7-5.3-4-8C200.5,310.5,202.9,310,206.5,309.2z M194.7,314.8c1.2-0.4,2.8,0.5,4.1,1.5
			c-5.4,0.1-5.8,0.4-6.5,6.1c-0.3,2.2-0.7,4.5-1.2,7.3C187.9,324.7,190.1,316.6,194.7,314.8z M195.2,327.6c0,3.4,0,6.8,0,10.1
			c-0.4,0-0.8,0-1.3,0c0-3.4,0-6.8,0-10.2C194.4,327.6,194.8,327.6,195.2,327.6z M201.2,362.5c-2-1.6-4.5-2.9-5.9-4.8
			c-3-4.1-4-13.4-2.2-17.2c1.1,2.9,2.1,5.6,3,8.2c0.2,0.4,0.5,1,0.4,1.3c-3.6,6.4,1.2,8.6,5.5,11
			C201.7,361.4,201.4,361.9,201.2,362.5z M200.3,352.2c0.4,0.2,0.8,0.4,1.2,0.5c-0.3,1.6-0.6,3.2-0.9,4.9c-1.3-0.7-2.7-1.4-4.8-2.6
			C198,353.5,199.1,352.8,200.3,352.2z M206.6,372.4c0.1,1.3,0.2,2.7,0.2,4c-1.4-2.4-4.1-4.8,0.8-6.5c0.8-0.3,1.5-3.6,0.9-4.7
			c-1.4-2.6-3.7-4.7-5.5-7c4-0.5,5.6,1.3,7.8,7.8C212.2,370.2,209.7,371.2,206.6,372.4z M219.1,391.7c-1.9,1.5-4.9,1.6-8.4,2.5
			c2.6,0.7,4.7,1.2,6.6,2c0.7,0.4,1.1,1.7,1.5,2.5c-0.8,0.3-1.8,1-2.5,0.8c-2-0.5-4.1-1.1-5.8-2.2c-1-0.6-2.1-2.6-1.7-3.4
			c0.9-2.2,2.5-4,3.9-6.1c0.4,0.4,1,0.7,1.4,1.1c-0.4,0.8-0.8,1.6-1.3,2.6c6.1,0.3,7-3.5,6.7-8.9
			C222.4,386.6,221.5,389.8,219.1,391.7z M212.1,387.1c1.2-5.6,2.3-11.2,3.3-16C218.3,374.7,216.9,383.7,212.1,387.1z M217.8,380.2
			c1.5-5.7,1-10.5-4.3-14.3c-2.3-1.7-3.5-5.1-5.1-7.8c-3.7-6.4-7.6-12.5-10.8-19.1c-1.2-2.4-0.4-5.4,0.7-8.6
			c2.2-6.3,10.1-5.6,11.8-11.6c0.1-0.4,1.5-0.7,2.4-0.8c6.7-0.3,13.4-2.8,20.3,0.9c3.5,1.8,8.2,1.3,11.2-2.7H244l0,0l0,0
			c-2.5,0.6-5,1.5-7.5,1.8c-1.6,0.2-3.3-0.7-5-1.1c0.1-0.6,0.2-1.2,0.3-1.8c4.1,0.4,8.2,0.7,12.3,1.1c0,0,0,0,0.1,0
			c1.6-1.4,3.2-2.8,4.8-4.1c-2.6,0.4-5.1,0.9-7.7,1.3c-0.1-0.4-0.2-0.6-0.3-1c3.7-1.4,7.3-2.9,11.1-4.3c0.2,0.3,0.4,0.6,0.5,0.9
			c-1.3,1.1-2.5,2.2-3.8,3.2c5.7,3,10.6,0.9,15.9-2c10.2-5.5,21-9.7,32.7-10.6c1.3-0.1,2.7,0,3.9,0.4c7.3,2.7,14.7,5.2,22,8.2
			c3.9,1.7,7.7,4,11.5,6.2c13.1,7.6,26.7,12.2,42.1,9.4c1.4-0.3,3,0.3,4.4,0.4c5.1,0.7,9.9,0.4,13.9-4.6c1.2,1.3,2.5,2.2,3,3.6
			c1.3,4,4.7,5.6,8.1,4.7c4.2-1,6.5,1.8,9,3.6c2.7,2,4.7,5.2,6.6,8.1c3.3,5,5.7,6.3,12.5,5.2c0.4,2.2,0.4,4.7,1.2,6.8
			c1.2,3.3,2.7,6.5,4.3,9.5c1.3,2.3,3.1,4.2,4.4,6.5c1.5,3,2.6,5.9,6.4,7c0.9,0.3,1.8,4.2,1.1,5.3c-2.2,3.1-2.1,5.7,0.3,8.5
			c0.2,0.3,0.5,0.4,0.5,0.7c-0.6,5.1-0.7,10.1,1.3,15.1c0.1,0.3-2.4,1.7-3.8,2.6c-3,2-8,0.9-8.6,6.3c-0.1,0.5-2.3,1-3.7,1.3
			c-37.8,9.7-76.3,13.7-115.3,12c-24.9-1.1-49.6-4.2-73.8-10.6c-1.3-0.4-2.4-1.1-3.8-1.4c-3.2-0.8-6.5-1.5-10.1-2.4
			c-0.4-1.6-0.5-4.9-2.2-6.5c-1.8-1.8-5.1-2.1-6.8-3.5c-1-3.1-2.1-6.3-3-9.5c-0.3-0.8-0.2-1.8,0-2.6
			C223.7,385.5,222.5,382.1,217.8,380.2z M434.3,430.6c-0.1,0.3-0.1,0.6-0.3,0.6c-62.7,21.1-127,24.7-192.2,18.2
			c-0.1-0.7-0.2-1.4-0.3-2.2c1.5-0.1,3.1-0.4,4.7-0.4c20.5,1,41,2.1,61.6,3.1c0.5,0,1.1-0.2,2.4-0.4c-22.8-1.3-45-2.6-67.7-3.9
			c0.5-2.9,0.8-4.1,1.2-5.6c64.4,9.8,127.9,6.5,190.2-13.2c0.1,0.4,0.2,0.7,0.4,1c-0.8,0.6-1.6,1.3-2.6,2.1
			C432.6,430.2,433.4,430.4,434.3,430.6z M229.6,443.8L229.6,443.8c-0.3,0-1,0.1-2.2,0.2c2.2-7,4.3-13.3,6.3-19.6
			c0.4-1.5,1-3.6,0.4-4.7c-1.8-3.4,1.2-4,2.8-4.3c0.9-0.2,3,1.9,3.3,3.2c0.5,1.8-0.1,3.9-0.5,5.8c-1-2.8,0.9-6.5-3.9-7.8
			c3.4,5.5-0.4,8.6-2.6,12.8C231.1,433.3,230.8,438.4,229.6,443.8C229.8,443.8,229.8,443.8,229.6,443.8z M232.8,434.4
			c0.3,0,0.5,0,0.8,0c0.1,1.1,0.3,2.2,0.4,3.6c1.6-3.1,3.1-5.8,5.1-9.5c1.3,6.1-1.5,9.8-3.6,13.5c-1.1-0.2-2.2-0.3-3.5-0.4
			C232.2,439.2,232.5,436.8,232.8,434.4z M242.5,416.2c1.8,21.4-5.5,40.5-15.5,58.9C234.2,456,243.4,437.4,242.5,416.2z M326,458.1
			c-23.3,0.2-46.5,0.4-69.8,0.5c-4,0-8.1-0.1-12.1-0.4c-4.1-0.4-5-1.9-3.8-6c66.4,6.5,131.9,2.4,195.6-19.6c1.3,6.5-3.5,6.3-6.6,7.3
			c-26.6,8.6-53.8,14.6-81.4,18.5c-25.2,3.7-50.4,4.7-75.9,4.7c-9.4,0-18.8-0.9-28.1-1.4c-2.1-0.1-4-0.6-6.1-0.9
			c0-0.4-0.1-1-0.1-1.4c1.4-0.2,3-0.5,4.4-0.4c29.5,3,59,2.7,88.5-0.1c0.8-0.1,1.6-0.4,2.4-1.4C330.7,457.6,328.3,458.1,326,458.1z
			 M243.7,435.3c18.2,1.8,35.3,3.6,52.5,5.3c0.1-0.4,0.1-1,0.2-1.4c-1.4-0.3-3-0.5-4.4-0.7c-14.5-1.5-29-3-43.6-4.5
			c-2.1-0.2-4-0.4-3.2-3.3c0.7-2.8,2.3-2,4.5-1.6c14.4,2,28.9,3.8,43.3,5.3c9.9,1.1,19.8,2.2,29.7,2.1c31.6-0.4,63.3-2.1,94.1-10.3
			c2.8-0.7,5.5-1.4,8.2-2.3c2.5-0.9,4.9-2,7.9-3.3c-1.3,3.4-2,3.7-15.1,7.2c-5.5,1.4-11,2.8-16.6,4.2c0.1,0.4,0.3,0.8,0.4,1.3
			c10.5-2.8,21-5.6,31.5-8.4C401.5,441.9,262.8,450,243.7,435.3z M429.1,419.9c-28.1,16-162.6,19.3-183.6,3.9
			C307,436,368.1,436.2,429.1,419.9z M245.7,417.3c54.6,13.8,109.6,15,164.9,5.1c0,0.5,0,1,0,1.5c-14.2,1.9-28.2,4-42.4,5.5
			c-24.4,2.4-48.9,2.4-73.3,0c-15.4-1.5-30.6-4.5-45.9-6.8C246.3,422.1,245,420.9,245.7,417.3z M222,417.2c1.5,0.3,3.1,0.6,5.6,1.1
			c-2.1,2.2-3.1,3.5-3.9,4.4c0.9,2,2,3.7,2.4,5.6c0.1,0.4-1.8,1.7-3,2c-1,0.3-2.6,0-3.1-0.6s-0.2-2.2,0.1-3.2c0.3-1.5,0.8-3,1.2-4.5
			C221.5,420.3,221.7,418.7,222,417.2z M203.9,401.1c5.6,2.2,11.2,4.4,16.8,6.6c-0.1,0.4-0.2,0.9-0.3,1.3c-6.3-0.8-11.9-3-17-6.5
			C203.5,402,203.7,401.5,203.9,401.1z M216.4,410.9c-0.2,0.4-0.4,0.9-0.5,1.3c-3.8-1.4-7.5-2.8-11.3-4.2c0.2-0.4,0.3-0.9,0.4-1.3
			C208.9,408.2,212.6,409.6,216.4,410.9z M200,416.7c0.5-2.2,0.4-4.7,0.6-7.4c2.4,6.6-2.1,26.2-8,36.6c-4.6,11-9.8,21.5-20.3,28.2
			c8.4-8.2,14.6-18.1,19.8-28.6C194.9,435.8,197.5,426.4,200,416.7z M182.5,388.5c3.7,2.1,8,3.2,7.4,7.4c-0.3,2-3.9,3.5-6,5.3
			c-0.4-0.4-0.8-0.7-1.3-1.1c1.2-2.4,2.4-4.8,3.6-7.3c-0.3-0.2-0.5-0.3-0.8-0.4c-1.3,1.6-2.5,3.3-3.7,4.9c-0.4-0.2-0.7-0.4-1.1-0.4
			C181.3,394.4,181.8,391.9,182.5,388.5z M183.9,409.3c-1.8,2.1-3.3,3.9-4.9,5.6c-0.4-0.2-0.7-0.4-1-0.6c0.4-2,1-3.9,1.5-6.2
			C180.9,408.5,182.1,408.9,183.9,409.3z M168.5,381.8c6.9,1.3,8.6,3.9,7.3,11.7C167,390.5,165.5,388.2,168.5,381.8z M143.5,385.7
			c-2.4,2.2-4.3,3.8-7.3,6.5c5,0.4,8.8,0.7,13.1,1c-0.5,1.2-0.7,2.2-1.3,2.5c-3.7,2.1-7.3,4.5-11.3,5.7c-2.1,0.6-4.7-0.9-7-1.4
			C131.6,392.2,135.9,388,143.5,385.7z M130.1,409.7c4.7,1.2,6.5,3,5.6,6.7c-0.3,1-2,1.7-2.8,2.2c0,1.2,0,2.7,0,4.8
			c-2.6-1.4-4.2-2.3-5.9-3.2C128.1,416.7,129,413.2,130.1,409.7z M122.1,408.8c1.3-2.4,3.1-5.4,4.8-8.4c0.4,0.1,0.9,0.1,1.3,0.2
			c0.4,1.3,0.7,2.7,1.3,5.1c0.4,0.3,2,1.3,3.3,2.2C129.5,408.2,125.9,408.4,122.1,408.8z M134.7,405.1c-0.4-0.1-0.7-0.4-1.2-0.6
			c3.3-1.4,6.5-2.7,10.3-4.3c0.6,0.6,1.5,1.4,2.1,2.4c0.2,0.4-0.6,1.3-1,2.1C141.2,400.9,138.1,406,134.7,405.1z M116.8,340.6
			c2.2,6.3,1.1,12.5-0.4,18.6c-6.3,24.6-19.5,44.9-39.2,61c-1.3,1.1-2.8,1.9-4.2,2.9C97.9,401,116.5,375.8,116.8,340.6z M40.7,365.3
			c-17.4,30.6-15.3,27.9-17,52.2C19.9,404.8,28.2,379,40.7,365.3z M31.7,433.9c-13.2-9.1-7.6-40,12.5-68.9
			c15-21.6,33.7-36,47.8-38.2c-11.2,0.9-21.8,6.8-36.1,21.1c8.6-13.3,33.3-28.9,52.1-19.6c-3.1-0.7-6.1-1.2-9-1.4
			c2,0.4,3.9,1.2,5.5,2.2c13.2,9.1,7.6,40-12.5,68.9C71.9,426.9,44.9,443,31.7,433.9z M81.4,441.6c3.3-2.2,6.6-4.4,9.9-6.7
			c1-0.7,1.9-1.7,2.6-2.7c0.7-1,0.9-2.3,1.6-3.1c4.7-4.8,9.4-9.5,14.1-14.2c0.7-0.8,1.3-1.8,1.9-2.7c2.1-3,4.2-5.8,6.3-8.8
			c0.7-1.1,1.2-2.3,2-3.3c4.5-5.3,4.6-12.5,7.6-18.4c0.4-0.9,0.5-2,0.8-3c0.7-2.6,1.4-5.3,2.4-8.7c-0.1-0.1-1.1-0.7-2.1-1.3
			c-0.4,1-0.8,2-1.2,3c-1.7,5.5-2.9,11.3-5.2,16.5c-7.1,16.1-17.8,29.6-30.6,41.5c-2.7,2.5-2.7,2.5-7.6-0.2c1.2,0,1.6,0,2.1,0
			c0.4,0,0.8,0.1,1,0.1c0-1.1-0.4-2.5,0.1-3c10.4-9.9,20.4-22.8,27.5-36c0.4-0.7,0.6-1.6,1.3-3.3c-6.1,8.4-11.4,16.1-17,23.6
			c-5.6,7.4-12.1,14.2-18,17.5c3.8-4.2,9.5-10,14.6-16.3c4.5-5.6,8.2-11.6,12.2-17.5c-2,2.3-3.9,4.7-5.9,6.9
			c-6.8,7.4-13.5,15.1-20.7,22.2c-2.4,2.4-5.9,3.7-8.9,5.6c-0.3-0.4-0.4-0.6-0.7-1c0.6-0.6,1.2-1.4,1.9-2c19.7-13.9,32.4-33,41-55.2
			c0.8-2,1.7-3.9,2.6-5.9c0-0.1-0.1-0.2-0.1-0.4c0.1-0.1,0.2-0.2,0.2-0.2c0.8-5,1.6-10,2.4-15.1c0.5,0.1,1,0.2,1.5,0.4
			c-0.6,4.1-1.1,8.2-2,12.3c-0.2,0.9-1.3,1.6-2.1,2.4c0,0.1,0,0.3-0.1,0.4c0,0.1-0.1,0.1-0.1,0.2c0.3,1.3,0.9,2.6,0.5,3.6
			c-2.9,7.5-6.1,15.1-9.1,22.6c-0.4,1.1-0.7,2.2-1,3.2c8.2-10,11.7-22,14.2-34.2c0.9-4.7,1.4-9.3,3-14.1c0,2.4-0.1,4.8,0,7.3
			c0.1,2.2-1.4,5.2,2.8,6.2c-0.4-1.2-0.8-2-1.2-2.8c0.4-0.2,0.8-0.4,1.3-0.5c0.8,2.2,1.6,4.3,2.9,7.6c0.8-2.6,1.9-4.3,1.8-6
			c-0.1-2-1.1-3.9-2-6.5c3.5,1.3,4.9,2.3,4.3,5.7c-0.7,3.9-0.2,8.2-0.3,12.2c0,1-0.2,2.2-0.7,3c-2,2.5-2.5,5-2.1,8.2
			c0.2,1.4-1.9,3-2.7,4.7c-0.7,1.4-1.1,3-1.6,4.6c0.5,0.3,1.2,0.5,1.7,0.7c-2.1,2.6-4.2,5.1-6.2,7.7c-0.5,0.8-1,1.9-1,2.9
			c0,3.6-0.4,6.6-4.8,7.2c-0.7,0.1-1.3,1.3-1.8,2.2c-0.4,0.6-0.1,1.6-0.4,2.2c-2.1,3-5.2,5.6-6.2,8.8c-1.3,4.3-3.7,6.5-7.9,7.4
			c-1,0.3-1.5,2.2-2.2,3.4c-1,1.6-1.5,3.9-2.9,4.7c-4.3,2.2-8.9,3.7-13.3,5.4C81.8,442.2,81.6,441.9,81.4,441.6z M106.8,458.2
			c-3.3,0.2-6.6,0.5-9.9,0.5c-3.7,0-7.3-0.2-10.9-0.8c-1.3-0.3-2.3-2-3.2-3.4c4.9,2.9,9.8,3.6,15.3,2.4c2.9-0.6,6.1,0.3,9.1,0.4
			C107.1,457.6,106.9,457.9,106.8,458.2z M112.5,458.1c-4.7-0.5-9-3-13.6-4.6c-0.5-0.7-1.1-1.3-1.6-2.1c1.6-0.8,3.2-1.6,4.9-2.4
			c-1.9-1.1-3.7-2.2-5.6-3.2c7.1,1.4,7.1,1.4,11.5,0.3c-0.7-1.2-1.3-2.3-2-3.5c0.4-0.3,1-0.5,1.4-0.8c0.6,1.7,1.1,3.4,1.8,5
			c1,2.1,2.2,4,4.1,5.7c-0.2-1-0.3-2.1-0.6-4.2c2.2,1.3,3.9,2.2,5.6,3.1c1.2-1.3,2.6-2.8,4.1-4.3c0.4,0.2,0.9,0.4,1.3,0.5
			c-4.7,3-2.9,5.4,0.8,7.9C120.1,456.6,116.1,458.5,112.5,458.1z M145,468.6c-0.6,1.2-1.5,2.2-2.3,3.3c-0.4-0.4-0.8-0.6-1.2-1
			c0.9-1.1,1.7-2.2,2.6-3.3c-0.2-0.2-0.3-0.4-0.4-0.6c-3.3,2.1-6.6,4.2-10,6.3c-0.2-0.3-0.4-0.5-0.5-0.7c0.9-0.8,1.9-1.6,3-2.6
			c-3.1-0.8-6-1.6-8.4-2.2c3.8-0.5,7.5-1.1,11.2-1.7c-2.7-0.9-5.5-1.4-8-2.6c-2.3-1.2-4.4-2.9-7.1-4.7c0.1,1.4,0.1,2.3,0.2,3.8
			c-2.1-0.9-3.9-1.6-6.5-2.8c3.6-1.2,6.3-2.1,9.5-3.1c-1.8-2-2.8-3.1-3.9-4.5c1.5-2,3-3.9,5-6.5c-5,0.4-9.9,1-13.5,1.3
			c-2.7-3.1-4.7-5.5-6.8-8.1c-2.3,1.2-6.9-1-7.1,4.6c-1.8-2.4-1.7-4.2,1-4.7c5.5-0.9,6-4.9,6.7-9c0.4-2.6,1.5-4.1,4.7-3.3
			c-2.2,5-3.3,10-2.2,14.9c1.5-3,2.8-6,4.7-8.7c3.8-5.2,4.8-11,4.7-17.2l0,0c-0.9,2.1-2.2,4-2.5,6.2c-0.4,3-1.8,3.1-5.6,2
			c3.1-3.1,5.6-5.6,8.1-8.1v-0.1c0,0,0,0,0,0.1l0,0c1.3-0.8,2.4-1.5,4.1-2.6c0.4,0.1,1.5,0.4,2.7,0.8c-1.7,4.2-3.5,8.5-5.1,12.5
			c1.8,0.4,3.7,0.7,6.4,1.3c-2.6,3.9-4.7,6.8-6.9,10c-2.8-2.2-5.3-3.9-1.2-6.9c-3.3,0.5-4.4,3.2-3.7,5.5c1.6,5.2,6,3.3,9.9,2.4
			c-2.2,4.3-4.7,3.9-12.5-1.1c-0.1,4.7,4.1,7.3,9.7,5.9c8.3-2,11.8,1.9,9.3,10.1c-0.2,0.7-0.4,1.4-0.8,2.3c-1.3-0.4-2.5-0.6-3.9-1
			c0.3,0.4,0.3,0.8,0.4,0.9c3.1,1.5,6.4,3,10,4.3c-4.5-3.8-4.5-7.7-1.3-12.1c0.4-0.5-1.6-3.7-3-4.3c-8.5-3.7-9.6-8.1-3.3-15.1
			c3.1-3.6,6.9-6.7,6.8-11.5c3.8-2.2,7.4-3.8,10.6-6.1c4.1-3.1,7.8-2.9,11.6,2.4c-2-0.5-3.4-0.9-4.7-1.3c-0.2,0.3-0.4,0.4-0.5,0.7
			c4.4,3.8,8.9,7.4,13.3,11.2c-0.1,0.3-0.2,0.4-0.2,0.7c-5.6-2.5-11.3-5-16.9-7.5c2.2,4.4,0.1,7.8-2.8,10.4c-2.7,2.4-6,4.1-10.2,6.8
			c1-2.1,1.3-2.8,1.6-3.5c-4.4,1.9-6.3,8.1-2.9,10.7c4,3.1,3,6,1.4,9.7c-0.5,1.3-0.4,3.6,0.4,4.7c1,1.3,3,1.9,4.6,2.9
			c0.3-0.5,0.6-1,0.9-1.5c-1.4-1-3-2.1-4.7-3.3c1.2-2.5,2.4-5.1,3.7-7.8c10.3,0.6,15.9-3.9,13.3-11.4c2.1,0.2,3.9,0.4,7.3,0.6
			c-4,5.7-7.2,10.8-11,15.3c-0.8,0.9-4.2-0.4-7.1-0.9c2.1,1.3,3.7,2.3,6.2,3.9c-3.9,3-7.3,5.7-10.8,8.6c-0.2-0.2,0.4,0.5,1.1,1.3
			c1.8-1.1,4-1.8,5.4-3.2c12.1-14.2,22.6-29.3,27.8-47.4c1.3-4.6,2.1-9.3,3-14c-0.5-0.1-1.1-0.3-1.5-0.4c-0.5,1.9-1.3,3.7-1.5,5.6
			c-0.6,4.3-3.3,5.7-7.6,5.8c-5.3,0.2-9-2.2-12.8-5.1c-2.6-2-6.1-3-8.3-3.9c2.2-2.5,3.8-4.5,5.5-6.4c-3-1.6-6-3.2-8.3-4.5
			c2.2-2.3,4.7-5.7,7.9-8.5c1.1-1,3.8-0.8,5.5-0.2c1.1,0.4,1.6,2.3,2.3,3.7c0.4,0.7,0.4,1.8,1.1,2.2c5.6,3.4,11.2,6.6,17.7,10.5
			c0.4-4.2,0.6-7.2,0.9-10.2c0.3-0.1,0.5-0.2,0.7-0.2c0.3,1.3,0.7,2.4,0.7,3.7c-0.6,12-2.7,23.7-7.8,34.7
			c-6.3,13.6-15.1,25.6-24.5,37.2C146.3,464.2,146,466.6,145,468.6z M171.3,412.8c-2.5,0.4-5,0.7-7.5,0.9c-0.7,0.1-1.4-0.5-2.2-0.8
			c0.6-0.5,1.3-1.5,2-1.6c3.2-0.4,6.5-0.4,9.7-0.6c0.3,0.2,0.4,0.4,0.7,0.5C173,411.7,172.2,412.6,171.3,412.8z M173,414.9
			c-1.6,2.4-2.4,3.5-2.8,4.1c-2.6-0.7-4.8-1.4-7.2-2.1c-0.1-0.4-0.1-0.8-0.2-1.3C165.9,415.5,168.8,415.2,173,414.9z M153.3,426
			c-0.2-0.4-0.3-0.7-0.4-1c1.3-0.8,2.9-2.5,3.9-2.2c3.3,1,6.7,2.2,9.4,4.3c0.6,0.4-1.4,4.4-2.5,7.7c-4.4-4.4-2.6-6.3,0.4-8.7
			C160.5,426,156.9,426,153.3,426z M153.1,437.2c-1.1-0.6-2.2-1.3-3.8-2.1c1.4-2.2,2.9-4.3,4.7-7.1c2.2-0.2,2.7,0.4,1.6,3.3
			C154.9,433.2,154,435,153.1,437.2z M153.2,440.1c-5.8,4.9-10.1,3.9-15.3-2.6c0.1-0.5,0.2-1.1,0.2-1.6c2.3,0.5,5.8,0.3,6.6,1.7
			C146.8,441,149.3,441.3,153.2,440.1z M168.7,451.2c-1.9-0.8-4-2.8-4.6-4.6c-0.4-1.4,1.5-3.5,2.3-5.3c0.4,0.2,0.8,0.3,1.3,0.4
			c0,2.3-0.8,5.2,0.3,6.8c0.9,1.3,4,1.2,6.2,1.6c0.1,0.2,0.2,0.4,0.3,0.6C172.5,451,170.3,451.9,168.7,451.2z M169.9,453.4
			c-0.2,0.6-0.4,1.3-0.5,1.9c-3.8-0.3-7.5-0.6-12.2-1c0.9-1.9,1.9-3.9,3.3-7.1C162.7,451.4,164.5,455.1,169.9,453.4z M166.6,439.4
			c2.2-3.9,4-7.4,5.9-10.8c0.4,5.6,2.7,11.6-2,16.5C167.5,443.9,173.5,438.2,166.6,439.4z M155.9,470.2c-1.6,2.1-3.9,2-6.1,0
			c-2.4-2.2-1.6-5.1,0.5-6.5c3.2-2,7-3,10.6-4.3c0.2,0.4,0.4,0.9,0.5,1.4c-2.4,0.6-5,0.8-7.1,2.2c-1.7,1.1-2.6,3.3-3.9,5.1
			C152.3,468.6,154,469.4,155.9,470.2z M192,395.7c5.8,14-12.4,59.1-28.9,71.8C182.3,447.7,190.2,423.3,192,395.7z M165.9,475.9
			c-0.4-0.2-0.7-0.4-1-0.5c0.7-5.4,1.1-9.2,4.9-9.1c2.7-3.1,4.7-5.4,6.5-7.7c0.6-0.8,0.9-1.8,1.4-2.7c3-4.4,7.1-8.2,8.4-13.6
			c0.3-1.3,1.6-2.3,1.6-3.5c0.3-4.5,0.5-5.3,4.7-8c0.3-3.2-2.3-7,1.8-9.7c0.4-0.3-0.8-2.4-0.7-3.7c0.1-1.5,0.6-3,1.3-4.4
			c0.2-0.4,2.6-0.2,2.6,0.1c0.3,1.3,0.4,2.8,0.2,4.2c-0.3,2.7-0.8,5.4-1.2,8c-0.1,0.4,0.2,1.1-0.1,1.3c-2.7,2.6-3,6.2-4.1,9.5
			c-1.7,5.1-3.6,10.5-6.8,14.6c-3,3.7-5.6,7.5-8.4,11.3c-0.6,0.8-2.1,1.1-3.4,1.7c-0.1,7.3-0.3,7.4-5.9,8.1
			C167.2,473.4,166.5,474.6,165.9,475.9z M173.9,480.6c2.2,0.3,4.6,0.4,6.8,0.7c0-0.2,0.1-0.4,0.1-0.4c-2.8-0.8-5.6-1.7-8.7-2.6
			c4.3-4.5,8.7-0.5,13-1.6c-2.5-0.6-5-1.3-8.2-2.2c16.3-18.4,24.8-39.7,27-63.7c1.1,0,1.3-0.1,1.6,0c10.1,2.7,10.4,2.9,8.2,13
			c-4.5,21.7-12.6,41.6-28.4,57.8c-0.8,0.8-1.7,1.6-2.4,2.2c-1.7-0.5-3.2-1-4.7-1.4C176.7,481.9,175.3,481.5,173.9,480.6z
			 M181.1,489.4c-0.2,0.1-0.5-0.1-1.2-0.3c10.9-8.8,17.6-20.7,24.9-32.1c6.1-13,10.1-26.6,12.5-40.8c-0.9,14.6-4.7,28.4-12,41.1
			C199.5,469.8,192.2,481.1,181.1,489.4z M202.8,475c1.5,5.3-1.3,7.2-6.1,7.3c-1.3-4.4-0.8-5.1,4.7-7.9c-0.9-3.7,0.5-6.2,3.6-7.8
			c1.5-2.2,3-4.3,4.6-6.4c0.4-0.6,1.3-1.5,1.2-2.1c-1.1-4,1.6-5.6,4.3-7.4c-0.4-0.2-0.8-0.4-1.2-0.6c1.1-2.2,2.5-4.3,3.1-6.6
			c0.6-2.4,0.3-5.2,0.8-7.7c0.3-1.3,1.5-2.2,2.3-3.3c1.1,0.7,2.6,1.3,3,2.3c0.4,1.1-0.2,2.8-0.9,3.9c-0.5,0.9-1.9,1.3-3.1,2.2
			c2.7,3.4,2.4,6.2-1.3,8.6c-0.5,0.4-1.1,1.6-0.8,2.3c0.9,2.9-0.1,4.5-2.9,5.6c-0.5,0.2-1.3,1.5-1.1,2.1c1.4,4.6-1.6,5.7-5.2,6.7
			C209.4,472.5,209.1,473.1,202.8,475z M213.2,471c3.9-9.2,8.2-18,11-27.2c2.9-9.1,4.2-18.8,6.5-28.9
			C231.3,429.6,220.6,463.7,213.2,471z M226.8,451.5c0.8-2.7,1.7-5.9,5-6.4c-1.3,3.7-2.5,7.2-3.8,10.7c-0.3,0.3-0.5,0.5-0.8,0.7
			C227.1,454.9,226.4,453.1,226.8,451.5z M259.4,489.5C259.4,489.5,259.4,489.4,259.4,489.5c-6.5,0-13.1,0-19.6,0c0-0.5,0-1.1,0-1.6
			c11.2-0.3,22.5-0.1,33.7,0.8c-4.7,0-9.3,0-14.1,0C259.4,488.9,259.4,489.2,259.4,489.5c7.4,0,14.9,0,22.3,0l0,0
			C274.3,489.5,266.9,489.5,259.4,489.5z M298.3,483c-21.6,2.4-42.7,1.3-64.1,0c1.5,0.2,3,0.4,4.5,0.6c0,0.2-0.1,0.4-0.1,0.6
			c-3.9-0.2-7.6-0.4-11.5-0.5c-0.1-0.4-0.2-1-0.2-1.4c2-0.4,3.9-1.4,5.9-1.3c29.8,1.8,59.7,1.5,89.4-2.2c12-1.5,23.8-3.8,35.8-5.7
			c1.2-0.2,2.3-0.4,3.5-0.4C340.6,477.7,319.5,480.6,298.3,483z M301.5,476.3c6.3-0.4,12.5-0.8,18.7-1.3c0,0.4,0,0.6,0.1,1
			c-9,0.5-17.9,1.1-27.8,1.7c2-0.4,3-0.7,4.2-0.9c0-0.1-0.1-0.3-0.1-0.4c-10.1,0-20.3,0-30.4,0c0,0.4,0,0.7-0.1,1.1
			c5.7,0,11.5,0,17.2,0c0.1,0.4,0.1,0.8,0.2,1.2c-1.8,0.5-3.7,1.4-5.5,1.5c-14.2,0.1-28.2,0.1-42.4,0.1c0-0.4,0-1,0-1.4
			c2.3,0,4.7,0,7.1,0c2.2,0,4.5,0,6.7,0c0.1-0.3,0.1-0.6,0.2-0.9c-5.6-1.2-11.2-2.4-16.6-3.6c24.3,0,48.7,0,72.9,0
			c0,0.1,0,0.3,0.1,0.4c-1.5,0.2-3,0.4-4.6,0.6C301.5,475.7,301.5,476.1,301.5,476.3z M330,472.9c0.3,0.2,0.5,0.4,0.9,0.6
			c0.4,0.2,0.7,0.2,1.4,0.4c-8.3,1.5-8.3,1.5-11.2-1.4c1.6,0.4,3.3,0.8,4.9,1.3c-0.1-0.3-0.3-0.6-0.4-0.9c3.4-0.6,6.7-1.5,10.2-1.9
			c3.9-0.3,7.9,0.3,11.7-0.1c3.9-0.3,7.6-1.1,11.5-2c3.4-0.7,6.8-1.8,10.5-1.7C356.7,470.4,344.2,476.8,330,472.9z M232.3,470
			c2.1-0.7,3.2-1.5,4.2-1.4c36.4,4.3,72.7,2.4,108.8-3.1c16.3-2.5,32.4-6.1,48.7-9.2c1-0.2,1.9-0.3,3.7-0.5
			C372.6,468.6,255.6,478.9,232.3,470z M409.4,465.9c-0.2-0.4-0.3-0.9-0.4-1.3c5.6-1.9,11-3.7,16.6-5.6c0.2,0.4,0.3,0.9,0.4,1.3
			C420.4,462.2,414.9,464,409.4,465.9z M407.2,462.2c-0.1-0.4-0.3-0.8-0.4-1.2c9.2-3,18.5-6,27.6-9c0.1,0.4,0.3,0.8,0.4,1.3
			C425.6,456.2,416.4,459.2,407.2,462.2z M427.4,445.7c3-1,6.1-2,9-2.9c0.1,0.4,0.3,0.7,0.4,1.1c-11.2,3.8-22.3,7.5-33.5,11.2
			c-0.2-0.4-0.3-0.8-0.4-1.3c1.9-0.7,3.8-1.5,5.6-2.2c-56.8,14.7-114.2,21.1-172.8,15.3c-0.2-0.8-0.3-1.6-0.4-2.4
			c1.3-0.4,2.7-1.3,4-1.2c29.3,2.9,58.7,3,87.9-0.6c17.9-2.2,35.9-3.9,53.5-7.7c17.6-3.8,34.7-9.7,52.1-14.6c1.5-0.4,3-1,4.4-1.5
			c0.2,0.4,0.4,0.8,0.5,1.3c-3.5,1.6-7,3.2-10.5,4.8C427.2,445.3,427.3,445.5,427.4,445.7z M433.8,418.6c5.2,8.6,7.8,18,7.7,28
			C438.9,437.4,436.3,428.1,433.8,418.6z M443.2,438.5c-1.2-5.6-2.3-11.2-3.5-16.8c-0.1-0.6-0.2-1.3-0.2-2c0.6,0.3,1.3,0.6,1.9,0.9
			c1.3,0.5,2.5,1,3.5,1.3c-1.4,2.2-2.5,3.9-3.3,5.2c2.2,2.3,4.7,3.9,5.4,6.2C447.2,434.9,445.1,437.1,443.2,438.5z M454.2,440.7
			c-1.4-5.4-2.9-10.8-4.4-16.3c-1.5,1.4-2.6,2.4-3.3,3.2c-0.8-3.3-1.5-6.4-2.3-9.9c1.2,1.3,2.2,2.6,3.5,4c0.2-0.5,0.4-1.2,0.6-1.7
			c0.4-0.1,0.9-0.3,1.3-0.4c2.1,6.9,4.2,13.7,6.3,20.6C455.3,440.3,454.8,440.5,454.2,440.7z M464,438.7c-2.5-8.3-4.8-16.1-7.2-24.2
			C460.9,419,465.1,432.7,464,438.7z M472.9,425.7c-2,0.1-3.9,0.3-5.9,0.4c0,0.4,0,0.8-0.1,1.3c0.6,0.2,1.3,0.4,2.9,0.7
			c-1.7,0.9-2.8,1.5-4,2.2c-1.5-3.9-2.9-7.3-4.3-10.7c-1.8-4,1.1-5.1,3.8-6.6c3-1.6,4.3-0.4,5.3,2.3c1.3,3.5,2.6,7,3.9,10.5
			C473.8,425.7,473.3,425.7,472.9,425.7z M468.6,407.5c-3.8,1.4-6.5,2.5-9.1,3.6c-0.2-0.4-0.4-0.7-0.4-1.2c3-1.3,5.9-2.5,9-3.9
			c7.3,7.7,8.9,17.5,10.3,27.1C475.2,424.6,472,416.1,468.6,407.5z M486.6,425.1c-3.1-7.2-6.2-14.3-9.5-22.1
			c2.6-0.4,4.8-0.8,7.1-1.3c0.3,0.6,0.5,1.3,0.7,1.8c-1.1,0.9-2.2,1.9-3.6,3c1.9,5.3,4,11.7,6.3,18.1
			C487.2,424.8,486.9,425,486.6,425.1z M489.3,418.6c0.7-2.1,1.4-4,2.2-6c0.4-0.1,0.9-0.1,1.3-0.2c0.9,2.2,1.9,4.4,2.8,6.5
			C493.4,418.9,491.6,418.8,489.3,418.6z M505.2,418.6c-0.2-0.3-0.3-0.5-0.4-0.8c4.3-2.7,8.6-5.5,12.8-8.2c0.4,0.6,0.7,1.3,1.1,1.9
			C514.2,414,509.7,416.3,505.2,418.6z M524.9,404.8c1.7-1.3,3.7-2.4,5.1-4c1.9-2.1,6-1.9,5.8-6.4c-0.1-1.3,3.4-2.6,5.3-3.9
			c0.4,0.5,0.9,1.1,1.4,1.6C538.2,398.1,531.8,401.8,524.9,404.8z M585.3,361.2c-2.9-3.4-5.8-6.9-9.2-10.8c3-0.6,6.1-1.3,9.8-2.1
			c-2.5,3.3-1.3,5.8,2.8,8C587.4,358.2,586.3,359.7,585.3,361.2z"/>
		<path d="M164.3,380.2L164.3,380.2C164.2,380.3,164.2,380.3,164.3,380.2z"/>
	</g>
</g>
</svg>
