<?xml version="1.0" encoding="utf-8"?>
<!-- Generator: Adobe Illustrator 17.0.0, SVG Export Plug-In . SVG Version: 6.00 Build 0)  -->
<!DOCTYPE svg PUBLIC "-//W3C//DTD SVG 1.1//EN" "http://www.w3.org/Graphics/SVG/1.1/DTD/svg11.dtd" [
	<!ENTITY ns_flows "http://ns.adobe.com/Flows/1.0/">
	<!ENTITY ns_extend "http://ns.adobe.com/Extensibility/1.0/">
	<!ENTITY ns_ai "http://ns.adobe.com/AdobeIllustrator/10.0/">
	<!ENTITY ns_graphs "http://ns.adobe.com/Graphs/1.0/">
]>
<svg version="1.1" id="Layer_1" xmlns:x="&ns_extend;" xmlns:i="&ns_ai;" xmlns:graph="&ns_graphs;"
	 xmlns="http://www.w3.org/2000/svg" xmlns:xlink="http://www.w3.org/1999/xlink" xmlns:a="http://ns.adobe.com/AdobeSVGViewerExtensions/3.0/"
	 x="0px" y="0px" width="612px" height="792px" viewBox="0 0 612 792" style="enable-background:new 0 0 612 792;"
	 xml:space="preserve">
<g transform="translate(-275.85 -398.76)">
	<path d="M407,1150.2c-0.7-1.1-4.2-2.4-7.9-3.3c-3.9-0.9-6.6-2.6-6.6-4.8s-1.5-3.3-3.9-2.8c-2.2,0.4-4.2-0.2-4.4-1.5
		c-0.2-1.1,1.5-2.4,3.9-2.8c2.4-0.4,4.4-1.7,4.4-3.1c0-1.5-3.3-1.7-8.7-0.9c-7,1.1-8.7,0.7-8.7-2c0-2.4-1.3-3.1-5.5-2
		c-3.1,0.9-5.5,0.4-5.5-0.9c0-1.3,4.2-2.8,9.4-3.7c13.3-2.2,18.4-5.9,6.1-4.6c-5.5,0.7-13.1,1.7-17.1,2.6c-4.2,0.9-7.2,0.7-7.2-0.7
		c0-1.1,6.1-3.5,13.8-5c16.6-3.3,22.3-7.2,8.3-5.5l-9.8,1.3l8.7-3.5c4.8-2,10.5-3.1,12.7-2.4c2.2,0.7,3.9-0.2,3.9-2
		c0-2.2-2.8-2.6-12-1.7c-6.6,0.7-12,0.7-12,0c0-0.7,5.5-2.4,12-3.7c6.6-1.3,12-3.5,12-4.6s-2.2-1.5-5-0.9
		c-21.2,4.8-47.9,8.7-50.3,7.4c-1.5-0.9-1.7-2-0.7-2c9.6-0.9,59.7-12.5,63.6-14.9c6.3-3.7-11.8-3.3-23.6,0.4
		c-12,3.9-47.2,9-49.2,7.2c-0.9-0.9,0.7-1.5,3.1-1.5s13.8-2.4,24.9-5.2c11.2-2.8,26-5.9,32.6-6.6c6.6-0.9,16-2.8,20.8-4.6l8.7-3.1
		h-9.8c-5.5,0-13.8,0.9-18.6,2.2c-13.8,3.3-60.8,10.9-61.9,10.1c-0.4-0.4,4.8-2,11.8-3.3c7-1.3,17.7-3.9,23.6-5.7
		c6.1-1.7,22.7-4.2,37.2-5.5c29.7-2.6,36.3-3.9,31.5-6.6c-3.3-1.7-53.1,1.1-56.6,3.3c-1.7,1.1-41.3,7.7-46.4,7.7
		c-1.1,0-1.7-1.1-1.7-2.2s3.9-2.2,8.5-2.2s19.2-2.6,32.4-5.7c13.1-3.1,30.2-6.1,37.8-6.8c25.2-2.2,22.1-5-4.4-3.9
		c-18.2,0.7-22.5,0.4-15.3-0.9c5.5-1.1,14.9-2,20.8-2.2c12.9-0.2,20.8-2,20.8-4.8c0-3.3-23.6-2.2-54.7,2.6
		c-16.2,2.4-33.2,5-37.8,5.7c-7.7,1.1-8.3,0.9-8.3-4.2c0-5,1.1-5.7,11.6-7c8.5-1.1,70-3.3,100.6-3.5c0.9,0,1.7-1.3,1.7-3.1
		c0-2-3.7-3.5-10.3-4.6c-15.1-2.2-35.9-12.5-45.7-22.3c-10.5-10.5-14.4-25.6-14.2-54.2c0.2-15.1,1.5-23.2,5.7-35
		c7.7-21.7,9.8-37.6,9.4-68.7l-0.4-27.1l-10.5-2.6c-5.7-1.5-13.8-5.2-18.2-8.5c-7.2-5.5-7.7-6.6-7.7-19c0-13.8,1.7-18.8,10.1-28.9
		c4.8-5.9,5-6.6,1.5-12.9c-3.1-5.9-3.1-8.5-0.7-19.7c1.5-7.2,3.9-14.2,5.2-15.5c1.3-1.3,4.6-5.7,7.2-9.4c4.4-6.3,13.6-11.4,13.6-7.4
		c0,0.9-3.3,5-7.4,9.4c-6.8,7-7.7,9.2-9,25.2c-1.7,19,1.3,33.5,6.8,33.5c4.8,0,6.1-6.3,3.3-14.4c-2.2-6.1-2-9.2,1.1-18.8
		c3.7-11.4,15.1-27.8,19-27.8c1.1,0,0.7,1.7-1.3,3.9c-8.5,9.4-14.7,25.4-14.4,36.3c0.2,6.1,0.7,8.7,1.1,5.7
		c1.7-11.2,9.8-29.7,14-32.4c2.6-1.5,4.4-1.7,4.4-0.4c0,1.3-0.9,2.2-1.7,2.2c-4.2,0-9.2,16-9,28c0.2,10.7,0.4,11.4,1.7,4.8
		c1.3-7.4,1.5-7.4,2.8,3.7c0.9,6.3,2.6,13.6,4.4,16.4l2.8,5l0.7-6.1c0.7-6.1,0.7-6.1,5.2,2.8c4.8,9.8,9.6,12,7.4,3.5
		c-0.9-3.1-0.4-5.5,0.9-5.5c1.3,0,2.2-1.7,2.4-3.9c0-2.8,0.9-2.4,2.6,1.7c2.2,4.8,2.6,3.3,4.2-12c1.1-11.4,3.3-19.2,5.9-23
		c2.2-3.1,4.8-8.1,5.9-10.9c1.7-5.5,1.7-5.5-3.1-1.3c-4.2,3.7-4.6,3.7-4.6,0.7c0-4.2-3.3-4.8-5.7-1.1c-1.1,1.7-2.2,1.3-3.3-1.7
		c-1.3-3.7-2.2-3.1-5.2,4.2c-2,4.6-4.2,7.9-4.8,7.2c-0.7-0.7,0.7-4.8,2.6-9.2c3.5-7.4,3.5-8.3,0.2-11.6c-3.1-3.1-4.4-3.3-8.5-0.7
		c-3.9,2.4-4.4,2.4-2.2,0c3.9-4.2,3.5-6.6-3.5-14.9c-3.7-4.4-6.8-6.3-7.7-5c-2.6,4.2-16.2-5.9-20.6-15.7
		c-8.7-18.6-10.1-24.7-7.4-33.7c2.6-9,19.7-38.5,22.7-39.6c1.1-0.4,3.1-2,4.6-3.5c5-5,19.5-8.3,30.8-7.2c7.4,0.7,12,0.2,13.8-1.5
		c1.3-1.5,6.6-3.3,11.6-4.2c5-0.9,9-2,9-2.4c0-0.4-3.9-5-8.5-9.6c-6.6-6.6-9-10.9-10.1-18.6c-2.2-14,0.7-37.8,4.6-39.2
		c1.7-0.7,3.1-2.6,3.1-4.2c0-4.6,10.9-13.6,20.6-16.6c10.5-3.5,28.4-1.5,39.8,4.2c4.6,2.4,8.7,3.7,9.2,3.3s1.7-5.5,2.8-10.9
		c3.9-21.4,18.8-44.6,28.7-44.6c2,0,4.2-0.9,4.8-2c0.7-1.1,7-3.1,14.2-4.6c12-2.6,14.2-2.4,28,2.4c19.5,6.8,32.4,15.7,36.3,25.8
		c4.8,12.2,6.3,21.7,3.7,23.2c-1.3,0.9-2.4,0-2.4-2s-6.1-9.6-13.8-17.5c-11.4-11.8-15.7-14.7-26.7-17.7
		c-26.9-7.7-50.1,3.1-63.4,29.3c-7.2,14.2-8.5,31.5-2.6,32.6c2.2,0.4,5-0.4,6.1-2.2c1.3-2,1.5,0.7,0.7,7.2
		c-0.9,6.1-0.4,10.7,0.9,11.6s2.4-1.3,2.6-5.9c0.2-6.6,0.4-6.8,1.3-1.3c1.3,8.3,3.9,7.4,6.8-2.4c1.3-4.6,5-10.7,8.3-13.8
		c5.2-4.8,5.5-4.8,3.5-0.9c-1.3,2.4-3.9,5.7-5.7,7.2c-1.7,1.5-3.9,5.9-4.6,9.6c-0.9,3.7-2,9-2.4,11.4c-0.9,3.7-0.4,3.5,3.5-1.1
		l4.6-5.5l-1.5,6.6c-1.3,5.7-7.9,17.3-11.6,20.8c-0.7,0.7-2.6,3.9-4.4,7.2c-1.7,3.5-3.5,5-3.9,3.7c-0.4-1.3,2.6-7,7-12.7
		c11.4-14.7,10.1-17.7-2.8-6.3l-5.2,4.6l3.9-6.1c2.2-3.3,3.5-6.6,2.8-7.2c-2-2-11.4,9.4-17.9,21.2c-5.5,10.1-6.6,14.2-6.6,28.4
		c0,9.2-0.9,15.5-1.7,14.2c-2.8-4.6-1.7-27.3,1.7-36.5c5.2-13.1,2-13.1-4.8,0.2c-5.7,11.4-6.6,24.5-2.2,35c1.3,3.1-0.2,3.3-10.3,2.4
		c-8.7-0.7-13.3,0-17.7,2.8c-3.3,2.2-6.3,3.3-6.8,2.8c-0.4-0.4,4.2-3.7,10.5-6.8l11.6-5.7h-8.7c-9.4,0-18.8,6.3-26.2,17.9
		c-2.2,3.3-4.4,5.7-5,5c-2.8-2.8,12.2-21,20.8-25.2c9.8-4.8,12.9-10.5,4.4-7.7c-15.1,4.8-28.2,18.2-31.3,32.2
		c-1.5,7.2,0.4,10.7,3.5,5.9c1.3-2.2,2-2.4,2-0.4c0,4.6,3.3,3.1,7.4-3.9c2.2-3.5,4.8-6.6,6.1-6.6c1.3,0,1.5,1.1,0.9,2.2
		c-1.7,2.8-0.2,2.8,8.3-0.7c3.9-1.5,9-2.4,11.2-2c2.8,0.7,0.4,2.2-7.4,5c-13.3,4.6-18.4,8.5-23.2,18.2c-4.8,9.2-6.6,30-3.1,36.1
		c1.7,3.1,1.7,4.4,0.2,3.5c-5.9-3.7-6.3-16.8-1.3-40.7l1.7-7.7l-5,6.3c-7,8.5-9,21.9-5.2,32.8c3.5,10.1,2.8,12-2.2,7
		c-2-2-3.5-7.2-3.5-12c0-10.7-3.9-11.2-9.8-1.5c-6.6,10.7-9.6,19.5-9.6,27.8c-0.2,13.1,3.5,14.7,5,2.2c1.5-11.4,5-19.7,8.7-19.7
		c1.1,0,0.9,1.3-0.4,2.8c-4.6,5.5-6.3,19.7-3.5,27.8l2.8,7.7l-0.2-10.9c-0.2-7.7,0.9-12.7,3.7-16.4l3.9-5.5l-1.5,5.5
		c-2.2,7.4-1.5,19.5,1.3,24.5c3.1,5.9,4.6,3.5,2.2-3.3c-1.3-3.3-1.3-8.1-0.2-11.8c1.7-5.9,2-5.7,2,2.8c0.2,7.2,1.3,9.8,5.7,12.7
		c4.6,3.1,6.3,3.1,10.5,0.9c2.6-1.5,8.7-3.3,13.6-3.9c7.9-1.1,8.7-2,9.4-7.9c0.4-3.7,1.7-7.7,2.8-9.2c1.5-1.7,0.9-3.3-2.2-4.8
		c-5.5-2.8-11.4-15.3-11.4-23.8s19.7-38.7,26.7-40.9c2.8-0.9,9.8-1.5,15.7-1.7c9.2-0.2,11.6,0.9,16,5.9c2.8,3.3,4.6,6.6,3.9,7.4
		c-0.7,0.7-3.1-0.9-5.2-3.7c-3.3-4.2-5.9-5.2-15.3-5.2c-7.9,0-12.7,1.3-15.7,3.9c-5.2,4.8-5.5,7.7-0.4,7.7c3.9,0,9.2,3.9,9.2,6.8
		c0,0.9-4.2,1.1-9.4,0.4c-14.4-1.5-18.2,2.4-18.2,19.7c0,10.9,0.9,15.3,4.2,18.8c3.7,4.2,4.6,4.4,7.9,1.3c2-2,9-5.5,15.3-7.7
		c10.9-4.2,11.6-4.2,17.3-0.4l5.7,3.9l-13.6,1.1c-15.5,1.3-21.7,5.7-28.2,19.9c-3.7,8.3-3.7,8.7,0.2,11.8c5.5,3.9,2.6,6.8-3.5,3.5
		c-7.9-4.2-30,3.7-38.7,14c-11.8,13.6-15.7,36.3-9.6,54.5c2.4,7,5.5,9.2,5.7,3.9c1.1-16.2,12.9-33.2,23.2-33.2c4.2,0,3.9,0.7-2.4,5
		c-5,3.3-9,9-12.2,17.5c-6.8,17.1-7.4,25.4-3.7,45.1c2.2,12,3.3,32.2,3.3,70.4c0,29.5,1.1,59.9,2.4,67.8
		c2.2,12.9,9.8,30.4,15.7,36.3c7.7,7.2,17.1,11.8,25.6,12.5l9.6,0.7l0.7-8.5c0.7-9,9.4-24.7,14.7-26.9c1.7-0.7,6.8,1.5,11.4,5
		c12.2,9.4,26.7,18.4,29.5,18.4c1.5,0,5.5-2,9-4.2l6.3-4.2l-7.7-3.3c-16.2-6.8-21.2-21-23-63.2c-1.7-43.5,3.9-72.8,17.9-90.3
		c12.2-15.3,20.3-31.7,30-60.4c5.9-17.7,10.7-34.6,10.7-37.6c0-7.4,5.9-33.2,10.1-44c3.7-9.8,15.5-23.2,20.3-23.2
		c2,0-0.2,3.5-5.7,9.4c-9.4,9.6-13.8,19.9-18.2,42.2c-6.6,33-8.7,42.2-12,51.2c-4.2,11.4-4.2,11.8-1.3,10.1
		c4.8-3.1,13.6-24.3,16.4-40.2c3.3-18.8,10.3-40,15.3-47c1.7-2.6,5-7,7.2-10.1c2.2-3.1,5.5-7.4,7.7-9.6c5-5.5,4.8-7.7-0.4-6.3
		c-2.4,0.7-4.4,0-4.4-1.3c0-1.3,3.7-3.1,8.3-3.7l8.3-1.3l2.6-16c1.7-10.5,4.2-17.3,7-19.9c2.4-2.2,4.4-5,4.4-6.3
		c0-4.4,14.4-16.4,25.2-21.2c13.6-6.1,34.3-5,44.2,2.2c7.4,5.5,20.1,27.3,17.5,30.2c-2,2-10.1-7-10.1-11.4c0-5-14.9-14.2-26.5-16.4
		c-16-3.1-25.8,0.2-37.8,12.2c-11.2,11.2-21,30.8-21,41.8c0,9.6,2.6,9.4,7.9-0.7c5.9-11.4,13.6-17.5,25.4-20.3
		c14.7-3.5,27.3-1.1,31.1,6.3c3.9,7.9,6.8,26.5,3.9,26.5c-1.1,0-2.8-4.4-3.7-9.6c-0.9-5.2-2.8-10.9-4.6-12.2
		c-4.8-3.9-16.8,6.3-23.8,20.1c-7.4,14.9-7.4,30.4-0.2,69.3c5,26.9,5.5,39.6,1.1,39.6c-0.9,0-2.2-7.2-2.8-16s-2.6-23.6-4.6-33.5
		c-5.5-26.7-6.6-40-3.9-45.5c3.7-7.4,7.7-21.4,6.3-22.5c-2.4-2.4-10.7,15.3-13.3,29.1c-2.6,13.1-3.1,13.8-3.3,6.1
		c-0.7-19.9,13.6-44.6,28.2-49c9.2-2.8,11.8-6.8,4.4-6.8c-7.2,0-25.2,12.5-29.3,20.1c-7.9,14.7-10.1,18.2-10.1,14.9
		c0-3.5,3.5-10.7,9.8-20.6c4.2-6.3,4.2-6.3-0.4-3.9c-2.4,1.3-8.3,10.1-13.1,19.5c-8.3,16.4-8.5,17.5-8.1,38.1
		c0.2,16.4,1.7,26,7.2,43.7c9.4,31.5,10.7,48.1,4.6,62.1c-2.6,6.1-4.2,8.5-3.5,5.5c4.4-20.1,2.6-55.1-3.1-62.3
		c-2.4-2.8-6.1-22.5-7.9-40c-0.7-7.7-1.7-15.7-2.2-17.9s0-7.2,1.1-10.7c1.5-5.2,1.3-6.6-1.3-6.6c-2.2,0-3.3,2.8-3.3,10.5
		c-0.4,21,0.7,41.1,2.8,49.9c7.2,29.3,9.2,45.5,6.8,57.1c-2.2,10.3-4.2,13.3-16.2,24.9c-19.2,18.4-21,19.7-24.5,19.7
		c-1.7,0-3.7,1.1-4.6,2.2s-3.1,2.2-5,2.2c-7.4,0-39.8,43.3-39.8,53.1c0,1.7-1.5,4.4-3.3,5.9c-2.6,2.2-3.3,2.2-3.3-0.7
		c0-2,0.9-3.9,2-4.6c1.1-0.7,2.6-3.9,3.5-7.2s4.8-11.2,9-17.3s7.4-12,7.4-13.1s3.3-4.6,7.2-7.7s11.2-9.4,16.2-13.8
		c5-4.4,10.9-7.7,13.3-7.7c5.9,0,26-18.4,31.3-28.7c4.8-9.4,5.7-27.1,2-39.2c-3.7-12.2-8.5-47.9-8.5-63.9c0-8.3-1.1-14.9-2.2-14.9
		c-1.1,0-2.2,1.3-2.2,2.8c0,1.7-0.7,1.7-2-0.4c-1.7-2.6-2.2-2.6-3.5,1.1c-0.9,2.4-3.3,6.8-5.2,9.8c-2,3.1-4.4,9.2-5.2,14
		s-2.4,10.1-3.5,12s-3.5,11.4-5.5,21c-3.5,16.6-10.1,32.6-18.4,44.8c-33.2,47.9-49.2,80.5-47.7,98l0.7,7.9l8.7-16.2
		c6.3-11.8,15.5-23.2,33.2-41.3c31.3-31.9,29.5-29.7,35.7-42.7c4.8-10.1,5.5-14.2,6.3-51.4l1.1-40.5l1.7,36.5
		c1.1,20.1,2.6,39.8,3.5,43.7c1.1,4.6,0.7,9.2-1.1,12.5l-2.6,5.2l-0.7-5c-0.7-4.4-1.5-3.7-5.7,4.8c-4.4,8.7-29.5,35.4-41.1,43.5
		c-2.4,1.7-8.5,8.5-13.8,15.1c-5.2,6.6-10.3,13.3-11.4,14.9c-1.3,1.5-4.6,9.2-7.7,17.1c-7.7,20.1-7.2,51.6,0.7,62.1
		c0.4,0.7,1.7-0.4,2.8-2.2c1.7-2.6,2-2.6,2,0.7c0,2.2,1.1,3.9,2.2,3.9s2.2,1.3,2.2,3.1c0,5,5.7,14.2,11.8,19c7.7,6.1,7.4,2-0.9-12.5
		c-9.4-16.6-8.1-17.5,2.2-1.1c4.8,7.7,9.8,13.1,10.9,12.5c1.3-0.7,1.5-2.6,0.7-3.9c-0.9-1.3-3.7-6.1-6.1-10.3
		c-5.7-9.2-10.3-26.7-7.9-29.1c0.9-0.9,2.8,3.9,4.4,10.9c1.3,7,5.2,16.6,8.5,21.4c3.3,4.8,6.1,9.2,6.1,9.4c0,0.2,4.2-1.3,9-3.7
		c16.8-8.1,31.5-12.9,31.3-10.3c0,2.2-7.7,6.3-33.2,17.7c-4.4,2-8.7,4.6-9.4,5.7c-3.1,5-11.6,1.3-25.2-11.2
		c-18.2-16.6-21.2-17.5-12.9-3.5c2.4,4.2,6.3,8.3,8.7,9c2.4,0.7,4.2,2.2,4.2,3.1c0,0.9,3.1,3.1,6.6,4.6c3.5,1.5,6.6,3.5,6.6,4.4
		c0,2-35.4,21.9-39.2,21.9c-1.3,0-13.3,7.4-26.9,16.4c-13.6,9-25.8,16.4-27.3,16.4s-2.8,0.9-2.8,1.7c0,0.9-4.4,4.2-9.8,7
		c-5.5,2.8-10.9,6.3-12.2,8.1c-1.3,1.5-3.7,2.8-5.5,2.8c-1.7,0-3.1,0.9-3.1,1.7c0,0.9-2.4,3.1-5.5,4.4c-3.1,1.3-6.8,3.5-8.3,4.8
		c-1.5,1.3-5.2,4.2-8.5,6.6c-5.2,3.9-5.7,5-3.7,10.7c3.1,8.7,1.7,21-2.4,21c-2.2,0-3.1-1.7-2.6-5.5c1.1-7.9-2.6-3.1-7.4,9.4
		c-2.2,5.7-4.8,10.9-5.7,11.6c-3.1,1.7-2.2-6.3,1.3-12.2c6.6-11.4,7.9-16,5.7-18.4c-1.5-1.5-2.2-1.1-2.2,1.5c0,2-1.1,3.7-2.4,3.7
		c-1.3,0-1.7-1.5-0.9-3.9c1.1-2.8,0.9-3.3-1.1-1.3c-1.3,1.3-3.7,2.2-5,1.5c-1.5-0.7-2.6,2.6-2.8,9.2c-0.4,9,0,9.6,2.6,6.1
		c1.7-2.2,3.1-5.2,3.1-6.8s0.9-2.8,2-2.8s0.9,3.5-0.4,7.7c-1.3,4.2-3.7,7.7-5.2,7.7s-2.8,1.1-2.8,2.2s1.1,2.2,2.2,2.2s2.2,2,2.2,4.2
		s1.5,4.8,3.5,5.5c5.5,2.2,16.6,1.5,15.3-0.7c-0.7-1.1,0.9-5.9,3.3-10.5c6.1-10.9,7-11.8,5.2-4.6c-1.3,5-0.9,5.7,2,4.8
		c2-0.7,4.2-5,5-9.4s2-6.8,2.4-5.2c0.4,1.5-0.2,6.3-1.7,10.7c-2.2,6.8-2.2,8.3,1.1,11.6c3.5,3.3,3.7,3.3,2.4-1.1
		c-0.7-2.6,0-7.2,1.7-10.5c2.6-5.2,3.3-5.5,4.6-2c1.5,3.7,1.7,3.7,3.5-0.4c1.1-2.4,2-7.7,2-11.6c0.2-10.3,4.6-8.7,4.6,1.7
		c0,8.3,0.2,8.5,4.4,6.1c2.4-1.5,3.5-3.1,2.2-3.5c-2.6-0.9-3.1-22.3-0.2-22.3c1.1,0,2.6,2.6,3.5,6.1l1.7,6.1l1.7-5.5
		c1.5-4.8,1.7-4.6,1.7,2.2c-0.2,10.9,0.4,12.7,2.6,7.7c1.1-2.4,2-8.7,2.2-14.2c0.2-7.4,0.7-8.7,2.2-5.5c1.1,2.4,1.3,7.2,0.7,10.7
		c-0.9,4.4-0.4,5.9,1.3,4.8c1.3-0.9,3.1-5.5,3.9-10.3c0.9-4.8,2.4-9.2,3.5-10.1c1.3-0.9,1.7,1.3,1.1,5.5c-0.7,3.7-0.2,6.8,0.7,6.8
		c2.2,0,4.2-5.9,4.2-12c0-2.8,1.1-5.9,2.4-6.8c1.7-1.1,2.2,0.9,1.5,6.3c-0.4,4.4-0.2,7.9,0.7,7.9s2.2-5.5,3.1-12
		c0.9-6.6,2.4-12,3.7-12s1.5,3.5,0.7,8.7c-0.9,5.7-0.7,8.7,0.9,8.7c1.3,0,3.1-5,3.7-10.9c0.7-5.9,2.4-10.9,3.5-10.9s1.5,2.4,0.9,5.5
		c-0.7,3.1-0.4,5.5,0.7,5.5c2.2,0,4.6-7.4,4.6-14.9c0-2.6,1.1-5,2.2-5c1.1,0,2.2,2,2.2,4.6c0,2.6,1.1,3.9,2.2,3.1
		c1.1-0.9,2.2-4.8,2.2-9s1.1-7.4,2.4-7.4c1.5,0,2,2.4,1.1,6.6c-0.7,3.7-0.4,6.6,0.7,6.6c2.2,0,4.6-7.7,4.6-15.1
		c0-2.8,0.7-4.6,1.5-3.7c0.9,0.9,1.3,5,1.1,9.2c-0.4,4.8,0.2,7.2,1.7,6.3c1.3-0.9,2.2-5.2,2.2-10.1c0-4.8,0.9-8.1,2-7.4
		s1.7,4.8,1.3,9.2c-0.7,7.2-0.4,7.7,2.4,3.9c1.7-2.2,3.1-6.6,3.1-9.6c0-3.1,1.1-7.7,2-10.1c1.5-3.5,2-2.8,2,3.9
		c0.2,11.8,3.5,10.1,6.1-3.3l2.2-11.6l0.4,8.7c0.4,7,0.9,7.9,2.4,4.4c1.1-2.4,2-7.2,2-10.9c0.2-8.5,3.9-4.6,5,5.5
		c0.7,5.9,0.9,5,1.3-3.9c0.4-12.9,4.8-16,4.8-3.3c0,6.1,0.7,7.4,2.2,5c1.1-1.7,2.2-5.5,2.2-8.1c0-3.5,1.1-4.4,3.3-3.5
		c2.4,0.9,3.1,0,2.8-3.7c-0.2-2.6,0.7-5.2,2.2-5.9c1.7-0.7,2.8,1.3,2.8,5.2c0.2,5.5,0.4,5.7,2,1.7c1.7-3.9,2-3.9,2,1.1
		c0.2,8.3,4.4,0.7,4.4-8.3c0-3.9,0.9-6.8,2-6.1c1.1,0.7,1.5,4.2,1.1,7.9c-1.1,9.2,3.1,6.1,4.8-3.5c1.7-9.8,6.1-9.8,4.8,0
		c-0.4,4.2-0.2,7,0.9,6.6c0.9-0.7,2.4-5.9,3.1-11.8c0.7-5.9,2.4-10.9,3.7-10.9c1.3,0,1.5,2.6,0.9,6.3c-0.7,3.5-0.7,7,0.2,7.9
		s2.6-3.7,3.9-10.1c1.5-7.7,2.6-9.6,2.8-5.7c0.2,7.2,3.3,7.7,7.7,1.3c1.7-2.6,3.9-4.2,4.8-3.3c2.2,2.2-5.2,16.4-9.6,18.8
		c-6.8,3.7-0.7,5.5,10.1,2.8c14.7-3.9,35.9-18.8,43.7-31.1c14.4-21.9,22.3-47,22.3-70.4c0-4.2,0.7-8.3,1.3-9s1.5-9.6,1.5-19.9
		c0-10.5,1.1-17.9,2.2-17.3c3.3,2-0.2,58.8-4.8,74.8c-6.3,23.2-13.6,36.7-26.9,51.4c-12.7,13.8-7.2,13.6,8.1-0.4
		c11.8-10.7,11.6-7-0.2,4.6c-5.5,5.5-13.1,10.7-17.1,11.6l-6.8,1.5l7.7,1.3c8.5,1.5,6.6,3.9-5.2,7c-6.8,1.7-6.6,1.7,1.3,1.3
		c4.4-0.2,8.7,0.4,9.6,1.3s0,1.5-2.2,1.5s-3.7,1.1-3.7,2.2s2.2,2,5,1.7c7.4-0.9,7.9,3.5,0.4,5c-5.7,1.3-5.2,1.3,3.1,1.7
		c12.7,0.4,9.6,4.6-3.1,4.6c-9,0-9.6-0.4-8.5-4.4c2.4-7.7-3.3-4.8-6.8,3.3c-3.5,8.5-3.7,8.5-9.8,5.5c-5.9-3.3-5.2-6.6,1.3-6.6
		c3.7,0,6.1-1.5,7.4-5c2.4-6.3,1.1-8.3-5.5-8.3c-4.6,0-6.3,2.2-10.7,12c-2.8,6.6-5.2,12.9-5.2,14s4.2,2.6,9.2,3.5
		c8.3,1.3,9.8,0.9,14.9-4.8c5-5.7,6.3-6.1,16.4-5l32.8,1.1l-33.2,2c-16,0.9-12.2,5.7,6.6,5.7c6.6,0,41.3-1.3,43.3-1.1
		c4.2,0.7-32.6,3.5-48.3,4.4c-22.3,1.3-30.4,2.8-30.4,5.7c0,2.2,4.4,2,47-2.2c10.9-1.1,68.5-2.8,69.1-2.4c2.4,2.2-54.5,6.3-63.6,6.8
		l-9.8,0.2l10.9,2c6.1,1.1,74.8-1.5,82-2.2c8.3-0.7,11.4-0.4,8.5,0.9c-2.4,1.1-10.9,2.4-18.6,2.8c-7.7,0.4-73.5,4.6-75.2,5.2
		c-1.7,0.7-7.9,1.7-13.8,2.6c-5.7,0.9-9.8,2.4-9.2,3.5c0.7,1.1,2.2,1.5,3.3,0.9s7.7-1.7,14.7-2.2s20.3-1.7,30-2.6
		c20.1-2,42.2-1.7,76.6,1.1c23.8,1.7,23.4,2-28.4,3.3c-59.1,1.7-82,3.5-85.3,6.6c-1.5,1.5,0.7,1.7,6.6,0.9
		c17.5-2.4,119.2-4.4,119.2-2.2c0,1.3-16,2.2-40.5,2.4c-36.3,0.2-78.3,4.6-82,8.5c-0.7,0.7,10.9,0.9,25.6,0.2
		c14.7-0.7,26.9,0,26.9,0.9s-6.3,1.7-13.8,1.7c-7.4,0-14.7,0.7-15.3,1.5c-0.9,0.9-4.2,2-7.4,2.4s-7,1.7-8.1,2.8
		c-1.5,1.5,1.1,1.5,7.7,0.4c5.5-0.9,32.6-1.7,60.1-1.7c51.2,0,62.3,1.3,62.3,8.3c0,2.6-1.7,2.4-10.5-0.7c-14.7-5.5-38.3-7-73.9-4.6
		c-47.9,3.1-48.3,6.3-0.9,5c39.8-1.1,53.8,0.2,70.4,6.6c4.2,1.5,5.5,3.1,3.9,4.6c-1.5,1.5-3.1,1.5-5-0.2c-7.7-6.3-75.9-9.8-91.4-4.6
		c-3.3,1.1,3.9,1.5,18.2,0.9c24.9-1.1,45.5,1.3,58,6.6c10.9,4.6,7.7,5.7-5,2c-12.2-3.7-61.7-4.6-72.2-1.3c-4.8,1.5,1.3,2.2,23.4,2.2
		c22.1,0.2,32.4,1.1,38.9,3.7c8.5,3.5,12.7,8.7,5,6.6c-18.6-5.5-27.3-6.3-52.5-5.9c-13.8,0.2-15.3,3.9-2.2,5.2l9.4,0.9l-10.5,0.4
		c-5.7,0.2-10.5,1.3-10.5,2.4c0,1.5,21,1.7,30.6,0.2c0.7,0-0.4-1.1-2.2-2.4c-2.4-1.5-0.9-2.2,5.9-2.2c9,0,24.7,5.7,24.7,9
		c0,0.9-2.8,0.2-6.1-1.5c-3.3-1.7-9.4-3.7-13.3-4.6c-5.7-1.1-7-0.9-6.1,1.5c0.7,1.7,3.7,4.4,7,5.9c7.4,3.7,6.1,5.7-1.7,2.6
		c-7.2-2.6-49.4-3.1-49.4-0.4c0,1.1,8.5,2.6,18.8,3.3c22.1,1.7,29.3,3.3,29.3,6.3c0,1.5-5.2,1.7-14.9,0.9c-20.8-2-60.6-2-90.1-0.2
		c-17.7,1.1-24.5,0.9-23.4-0.7c0.9-1.3,7-3.1,14-3.7c7-0.7,17.5-2,23.4-2.8c10.9-1.5,10.7-1.5-6.6-2.6
		c-33.5-2.4-165.1-0.2-192.5,3.1c-29.5,3.5-55.6,8.7-62.1,12C409.6,1152.6,408.5,1152.8,407,1150.2L407,1150.2z M490.3,1130.5
		c6.8-2.2,14-3.1,52.3-6.6c38.9-3.5,50.1-3.9,55.8-2.2c3.5,1.1-1.5,1.7-13.8,1.7c-11.2,0.2-19.2,1.1-19.2,2.4
		c0,1.3,6.3,2.2,14.9,2.2c35.2,0.2,92.7,2,94.5,3.1c2.4,1.5,9-0.9,9-3.1c0-0.9-8.1-2.6-18.2-3.5l-18.2-2l12.9-0.7
		c12.2-0.7,12.7-0.9,8.1-3.9c-2.6-1.7-8.3-3.1-12.9-2.8c-14,0.9-47.2,0-45.9-1.3c0.7-0.7,11.2-1.1,23.4-1.3c12.2,0,22.1-0.9,22.1-2
		c0-3.3-11.8-5.9-18.8-4.4c-3.7,0.9-23,1.5-42.7,1.7c-38.1,0.4-97.1,5.2-108,9c-6.8,2.2,9.6,1.7,44.8-1.1
		c10.1-0.9,13.1-0.7,10.7,1.1c-2,1.3-11.2,2.8-20.8,3.7c-15.3,1.3-25.2,2.6-52.9,7c-3.9,0.7-7.2,2-7.2,3.1
		C460.6,1133.1,482.2,1133.1,490.3,1130.5L490.3,1130.5z M637.7,1121.5c-2.6-1.7-2.4-2.2,1.5-2.2c2.6,0,5.5,0.9,6.1,2.2
		C647.1,1124.4,641.9,1124.4,637.7,1121.5L637.7,1121.5z M551.3,1115c6.8-1.7,44.2-2.8,42.4-1.3c-0.4,0.4-11.8,1.3-24.9,2
		C555.5,1116.3,547.6,1116,551.3,1115L551.3,1115z M718.7,1121.9c0-3.3-2-8.1-4.4-10.5c-2.4-2.4-8.3-8.1-12.9-12.9
		c-7.9-7.9-9.2-8.3-14.2-6.1c-7.7,3.5-9.6,12.5-4.2,19.9c5.2,7,21.4,15.5,29.5,15.7C717.8,1128.1,718.7,1127.2,718.7,1121.9
		L718.7,1121.9z M676.7,1108c-3.3-12-1.5-16.6,6.8-19.9c3.5-1.3,6.6-3.1,6.6-3.7c0-1.7-15.1-13.8-21.9-17.3
		c-3.1-1.5-12.9-8.3-21.9-15.1c-28.9-21.7-42-28.2-49.4-24.3c-3.1,1.5-4.6,3.9-3.7,5.9c0.9,2.2,0,3.1-2.8,2.6
		c-6.3-0.9-11.8,2.4-11.8,6.8c0,6.1,4.2,7.2,6.3,1.7c1.7-4.6,2-4.2,2.2,3.1c0,4.4,1.1,8.7,2.4,9.4c1.3,0.9,2.2-1.3,2.2-5.2
		c0-3.7,1.1-7.2,2.2-7.9c1.3-0.9,2.2,2.2,2.2,7.4c0,4.8,1.1,9,2.2,9s2.2-2.2,2.2-5c0-5.9,3.3-11.6,5-9c0.7,1.1,0.2,3.5-0.9,5.2
		s-2,5.9-2,9.4c0,7.7,5,6.8,6.1-0.9c1.5-11.8,4.4-8.1,3.1,4.4c-0.9,9.6-0.4,13.3,1.5,13.3c1.7,0,2.2-1.7,1.3-4.4
		c-0.9-2.4-0.4-4.4,0.9-4.4s2.4,2,2.4,4.4s1.1,4.4,2.2,4.4c1.1,0,2.2-2.4,2.2-5.5c0-3.7,1.3-5.5,3.7-5.5c2.8,0,3.1,0.7,1.1,2.6
		c-4.4,4.4-3.3,12.7,1.5,12.7c2.4,0,4.6,1.7,5.2,3.9c0.7,2.2,1.1,0.7,1.3-3.1s1.3-7.7,2.8-8.5c1.7-1.1,2.2,0,1.1,3.7
		c-0.7,2.8-0.4,6.6,0.4,8.3c1.3,2.2,2.4,1.3,4.2-3.3c2.2-5.9,2.2-5.7,2.4,4.2c0.2,10.7,4.6,14.9,4.6,4.4c0-4.8,0.4-5.5,2.4-2.8
		c1.7,2.4,2.6,2.6,3.5,0.7c2.4-6.1,4.6-2.2,3.5,6.6c-0.9,7-0.2,10.1,2.4,12.2c3.1,2.6,3.5,2.2,3.7-3.3c0-3.5,0.7-4.8,1.3-3.1
		c1.5,4.4,10.3,17.5,11.2,16.6C679.1,1118,678.2,1113.4,676.7,1108L676.7,1108z M520.7,1107.3c14.4-2,77.2-5.2,100.2-5.2
		c11.8,0,21-0.9,20.3-2s-14.9-1.3-31.5-0.9c-19.9,0.7-31.9,0.2-34.6-1.3c-3.3-2-1.7-2.4,9-2.8c7.2-0.2,20.8-0.2,30.2,0.2
		c10.3,0.4,17.1-0.2,17.1-1.5c0-1.1-2.2-2.8-5-3.5c-8.1-2.2-60.1-1.5-86,1.1c-34.1,3.5-35.2,7.2-1.7,5.2c16.2-0.9,26.9-0.7,26.9,0.7
		c0,1.1-10.3,2.8-23,3.5c-12.7,0.9-25.6,2-29.1,2.4c-17.3,2.8-20.1,3.5-20.1,5.5C493.4,1110.4,499.1,1110.1,520.7,1107.3
		L520.7,1107.3z M468.7,1101.4c-0.7-1.7-1.3-1.3-1.3,1.3c0,2.4,0.4,3.5,1.1,2.8C469.1,1104.9,469.1,1103.1,468.7,1101.4
		L468.7,1101.4z M613.5,1083c-2.4-3.1-8.1-3.3-39.6-2.8c-25.6,0.4-37.4,1.5-39.4,3.5c-2.2,2.2,5.7,2.8,39.6,2.8
		C612.6,1086.5,616.1,1086.3,613.5,1083z M600.6,1075.1c0-3.9-9.2-5.2-30.4-4.2c-15.1,0.9-23.2,2.2-23.6,3.9
		c-0.7,2,5.7,2.6,26.7,2.2C588.1,1077.1,600.6,1076.2,600.6,1075.1L600.6,1075.1z M585.2,1064.9c-1.7-1.1-7.7-1.1-13.1-0.2l-9.8,1.7
		l13.1,0.2C583.5,1066.6,587.2,1066,585.2,1064.9z M576.5,1058.1c0-2.8-6.6-2.8-10.9,0c-2.4,1.5-1.5,2.2,3.9,2.2
		C573.2,1060.3,576.5,1059.4,576.5,1058.1z M685.4,1053.5c6.3-0.2,11.4-1.3,11.4-2.4c0-2.2-4.8-2.2-18.2-0.4c-5.5,0.7-9.6,2.2-9,3.3
		c0.7,1.1,2,1.5,2.8,0.9C673.4,1054.1,679.1,1053.7,685.4,1053.5L685.4,1053.5z M463.8,1046.3c1.7-1.7,3.1-4.8,3.1-6.8
		c0-2.6,0.7-3.1,2.8-1.5c4.6,3.9,10.3-2.2,10.3-11.2c0-4.4-0.9-8.5-2.2-9.2c-1.3-0.9-1.5,1.3-0.7,5.7c1.1,5,0.7,6.6-1.1,5.5
		c-1.3-0.9-2.6-2.8-2.6-4.4c0-1.5-1.5-4.2-3.3-5.7c-2.6-2.2-3.3-2.2-3.3,0.9c0,2-1.1,3.5-2.2,3.5c-1.1,0-2.2-1.1-2.2-2.2
		c0-3.9-8.5-2.4-13.3,2.4c-4.6,4.6-4.8,12.7-0.9,22.3C450.3,1050.2,459.5,1050.6,463.8,1046.3L463.8,1046.3z M454,1038.6
		c-2.6-5-0.9-11.2,3.5-11.2c2,0,3.1,2.6,3.1,7.7C460.6,1043.6,457.5,1045.2,454,1038.6z M644.3,1024.8c0-2.2,1.3-5.7,2.6-8.1
		c3.7-6.1,1.1-7.4-7.4-3.7c-4.2,1.7-12.2,3.7-18.2,4.8l-10.7,1.5l5.5,4.2c2.8,2.2,7,3.5,9,3.1c2-0.7,4.2-0.2,5,1.1
		c0.9,1.3,2.8,1.5,4.6,0.9c1.7-0.7,3.7,0.4,4.6,2.4c1.1,2.8,1.7,3.1,3.3,0.9C643.4,1029.9,644.1,1026.8,644.3,1024.8L644.3,1024.8z
		 M489.4,1022c-0.7-2.8-2.4-5.2-3.9-5.2c-2.2,0-2.4,1.7-0.9,7c1.1,3.9,2,7.7,2,8.3s0.9-0.2,1.7-1.7
		C489.7,1028.6,490.1,1024.8,489.4,1022L489.4,1022z M499.9,1020.9c0-2.4-1.5-4.2-3.5-4.2c-2.4,0-3.1,1.1-2.2,3.5
		c0.7,2,1.3,4.4,1.3,5.7c0,1.1,1.1,1.5,2.2,0.9C498.8,1026.1,499.9,1023.1,499.9,1020.9z M440.9,1023.1c0-3.1,10.3-9.4,16-10.1
		c2.6-0.2,9.4-0.7,15.3-0.7c18.8-0.2,8.7-4.6-11.2-4.6c-10.7,0-21-1.3-23.6-2.8c-2.6-1.5-10.7-8.3-18.2-15.3
		c-16.4-15.3-23.2-29.3-25.4-51.4c-0.9-8.7-2.4-16.4-3.5-17.1c-1.1-0.7-2-3.5-2-6.6s-0.9-5.2-2-5.2c-6.8,0-9.6,62.6-3.5,74.4
		c1.7,3.5,3.3,7.7,3.3,9.4c0,6.6,19,21.9,33.2,26.9C434.8,1025.5,440.9,1026.4,440.9,1023.1L440.9,1023.1z M508.7,1019.1
		c0-2.8-2.6-4.8-4.8-3.5c-2.2,1.3-0.2,5.2,2.6,5.2C507.6,1020.9,508.7,1020,508.7,1019.1z M636.6,1008.9l8.7-3.1h-9
		c-4.8,0-10.7,1.3-13.1,3.1c-4.2,3.1-4.2,3.3,0.2,3.3C625.9,1012.1,631.8,1010.6,636.6,1008.9L636.6,1008.9z M514.8,991.4
		c0.9,0.9,1.1,4.8,0.7,9c-0.9,9,2.8,9.8,5.9,1.5l2.2-6.1l0.2,6.1c0,3.3,1.1,6.1,2.2,6.1s3.1-2.6,4.2-6.1c2-5.5,2.2-5.5,2.4-1.1
		c0.2,6.1,5.2,6.3,12.2,0.9l5.2-4.2l-5.9-3.1c-3.3-1.7-10.5-6.8-16-11.2c-5.5-4.4-10.9-8.3-12-8.3s-4.2,5-7,11.4
		c-4.4,9.6-4.8,12-2.4,16.8c2.8,5.7,2.8,5.7,4.8-3.7C512.4,994.2,513.9,990.5,514.8,991.4L514.8,991.4z M452,993.1
		c-4.8-5.7-9.8-13.3-11.2-16.8c-4.8-12.7-7.7-35.2-6.3-50.3c1.1-14.2,1.3-14.4,1.7-4.4c1.3,25.6,2.6,37.6,4.6,43.7
		c3.9,11.8,12.9,28,17.5,31.1c5.7,3.9,5.5,2.4-1.1-8.1c-3.1-4.8-6.8-14.4-8.5-21.7c-1.7-7.2-3.9-14.2-4.8-16c-1.1-1.5-2-30.4-2-64.1
		c0-62.6-0.7-68.9-6.3-75.5c-1.7-2-2.8-4.2-2.2-4.8c0.7-0.7,0.2-3.9-1.1-7.2c-1.3-3.3-2.8-5.5-3.7-4.6c-0.9,0.9-3.5-0.4-5.9-2.8
		c-2.4-2.4-7.4-4.6-11.2-5c-3.5-0.4-8.3-2.6-10.3-5c-3.3-3.7-4.2-3.9-6.1-1.1c-2.6,3.7-2.4,21.2,0.4,26.9c3.3,6.6,5.7,4.2,3.9-3.7
		c-1.1-5.2-0.9-8.7,1.3-11.6c2.6-3.5,3.1-3.1,3.1,4.4c0,9,3.3,16.8,6.8,16.8c1.3,0,1.3-1.7-0.2-4.6c-1.3-2.4-2-5.7-1.5-7.2
		c0.4-1.5,2.4,0.4,4.4,3.9c3.5,6.6,3.5,6.6,3.7,1.1c0.2-4.8,0.4-5,2.4-1.7c3.3,5.7,6.3,4.6,6.6-2.2c0-5.5,0.2-5.7,2.4-1.7
		c1.7,3.1,2,18.2,0.9,51.4c-2.2,65.4-2.8,75.5-5.5,76.3c-1.3,0.4-2.2,8.1-2.2,17.9c0,21.2,6.8,44,14.4,49c6.3,4.2,6.3,4.4-0.2-10.7
		c-7.4-16.6-6.8-21,0.7-5.2c3.5,7.4,9,14.9,13.3,18.2C460.8,1006.2,461.7,1004.5,452,993.1L452,993.1z M415.9,962.3
		c-5.7-17.5-5.9-30.4-1.3-59.5c1.5-9.8,2.2-27.3,1.5-43.7c-0.7-16.8-0.4-24.9,0.7-21c3.7,12.9,4.4,41.8,1.3,63.6
		c-1.7,12-2.6,22.3-2.2,22.7c1.7,2.2,3.1-2.4,5.2-18.6c3.1-22.7,2.8-44.2-1.1-63.9c-3.1-16-5.7-22.3-5.7-14.4c0,4.2-0.2,4.2-3.3,0
		c-3.9-5.2-4.2-2.4-1.1,14c2.2,12,3.1,33.2,1.5,46.2c-0.4,4.2-2,16.4-3.3,27.3c-1.3,10.9-2.8,23.2-3.3,27.3
		c-0.4,4.2-0.9,1.3-1.1-6.6c-0.2-7.9,1.1-26.2,2.8-40.7c3.1-25.8,2.6-48.8-1.3-55.6c-1.3-2.4-2-1.1-2.2,4.4l-0.2,7.7l-1.7-6.6
		c-0.9-3.7-1.7-9-1.7-12c-0.2-5.2,0-5.2,3.1-1.3c2.6,3.5,3.3,3.5,3.3,0.9c0-2.8-8.5-10.5-11.8-10.5c-0.7,0-1.1,21.9-0.9,48.8
		c0.2,43.1,0.4,47.5,2.8,38.9c2.6-9.6,2.8-9.2,2.4,12c-0.2,22.7,3.7,41.6,8.3,39.6c1.3-0.4,4.8,4.2,7.7,10.3
		C421.6,986.8,422.3,981.7,415.9,962.3L415.9,962.3z M405.9,954c0-2.6,0.7-3.1,1.3-1.3c0.7,1.5,0.7,3.5-0.2,4.2
		C406.3,957.7,405.9,956.4,405.9,954L405.9,954z M397.1,896.4c0-1.1,1.1-2.6,2.2-3.5c1.1-0.9,2.2,0.2,2.2,2c0,1.7-1.1,3.5-2.2,3.5
		C398.2,898.4,397.1,897.5,397.1,896.4z M416.2,928.6c-0.7-1.7-1.3-1.3-1.3,1.3c0,2.4,0.4,3.5,1.1,2.8
		C416.6,932.1,416.6,930.3,416.2,928.6L416.2,928.6z M424.5,822.5c-2.8-2.8-3.9,2-2.2,9.8l1.7,8.3l0.7-8.5
		C425.4,827.5,425.1,823.2,424.5,822.5z M390.4,804.4c-4.6-10.7-4.6-11.6-1.3-17.5c3.9-6.6,4.8-17.5,1.5-17.5
		c-3.1,0-7.4,15.1-7.7,26.5c-0.2,7.9,1.1,11.4,5.2,15.7c3.1,3.1,5.7,5.2,6.1,4.8C394.7,816,393,810.7,390.4,804.4L390.4,804.4z
		 M368.7,797.4c0-5,1.1-10.7,2.2-12.7c1.5-2.4,2.2,0.4,2.2,9.4c0,7.4,0.9,12.7,2.4,12.7c1.3,0,2.2-3.5,2-8.3
		c-0.2-4.6,1.1-11.8,3.1-16.4c2-4.4,3.5-9.8,3.5-12c0-3.3-0.9-2.8-4.2,1.5c-4.6,5.9-4.6,5.9-8.3-2.6c-4.6-10.5-8.3-7.2-11.4,9.4
		c-2.4,13.6-2.4,16,0.7,19.2c2,2.2,3.5,5,3.5,6.3c0,1.3,1.1,2.6,2.2,2.6C367.6,806.5,368.7,802.4,368.7,797.4L368.7,797.4z
		 M414.6,684.7c0-2.8-5.9-9.4-8.5-9.4c-2.2,0-0.2,11.2,2.6,14.9c1.7,2.4,2.6,2.4,4.2,0C413.8,688.7,414.4,686.3,414.6,684.7
		L414.6,684.7z M398,639.9c0.9-2.2,0.7-3.9-0.7-3.9c-3.5,0-6.1,17.1-5,30.6l1.1,12l1.3-17.5C395.8,651.5,397.1,641.8,398,639.9z
		 M414.4,661.8c-2.8-10.1-6.3-12.7-6.3-4.6c0,5.2,5.9,15.3,7.9,13.3C416.4,669.8,415.7,666.1,414.4,661.8L414.4,661.8z M386.2,655.8
		c0-6.8,1.1-11.6,3.3-13.3c1.7-1.5,3.3-4.4,3.3-6.3c0-6.8,19.5-24.3,26.9-24.3c2,0,4.2-1.1,5-2.4c1.1-1.7-0.9-2-7-0.9
		c-7.9,1.5-24.3,13.1-24.7,17.5c0,1.1-1.5,3.5-3.1,5.5c-5.9,6.8-10.5,35.2-5.7,35.2C385.1,666.6,386.2,661.8,386.2,655.8
		L386.2,655.8z M404.1,655.6c0.9-9.2,2.6-12.5,9.4-19.7c9.8-10.1,8.7-13.8-1.7-5.9c-7.7,5.9-12.5,17.3-12.5,29.7
		C399.3,670.7,403,667.7,404.1,655.6L404.1,655.6z M421.2,658.5c0-5.9-3.3-13.3-5-11.4c-0.4,0.7-0.4,4.8,0.2,9.2
		C417.5,665.7,421.2,667.4,421.2,658.5z M381.4,639.2c6.1-19,20.1-32.4,39.8-38.5c4.8-1.5,4.4-1.7-2.8-1.7
		c-10.5-0.2-15.7,2.6-26.2,13.8c-9.4,10.1-15.5,22.5-17.5,35C372.6,659.6,376.1,655.2,381.4,639.2L381.4,639.2z M428,646
		c-0.7-7.7,3.5-18.2,9.4-23c4.2-3.5,10.1-14.9,10.1-19.5c0-5.2-13.8,9.2-19.2,20.3c-4.6,9-6.3,27.3-3.3,30.4
		C427.3,656.7,428.6,653.4,428,646L428,646z M438.7,639.2c3.9-11.8,1.3-14.2-4.2-3.7c-2.6,5.2-4.2,10.3-3.5,11.6
		C433,650.4,435.9,647.5,438.7,639.2z M409.2,627.4c3.9-3.5,8.5-6.8,10.1-7.4s2.2-1.7,1.5-2.6c-1.7-2-19.7,9.6-21,13.6
		C398.4,635.5,401.5,634.2,409.2,627.4L409.2,627.4z M436.5,605.5c0-0.9,5.5-4.4,12-7.9c6.6-3.5,12-7.2,12-8.1
		c0-2.2-10.9,0.4-16.4,3.9c-10.7,6.8-18.8,17.9-10.9,14.9C435,607.7,436.5,606.4,436.5,605.5z M496.4,592.4c0.7-1.1,0.2-2.6-1.1-3.5
		c-3.3-2,0-29.3,4.4-36.5c3.3-5.5,14.2-15.1,23-20.3c3.3-2,3.1-3.3-2.2-14.7c-5-10.9-6.6-12.7-13.6-14c-22.5-4.2-55.1,9.6-55.3,23.6
		c0,2-1.5,5.2-3.3,7c-4.4,4.4-4.2,17.5,0.2,26.7c5,10.7,9.2,11.2,11.8,1.5c2.4-9,11.6-18.2,18.2-18.2c3.1,0,1.7,2-5.2,7.2
		c-7.7,5.9-9.6,8.7-10.1,15.3c-0.4,4.6,0.2,8.1,1.7,8.1c1.3,0,2.4-2.2,2.4-5c0-5.5,5.7-14.7,9-14.7c1.3,0,0.2,2.6-2.4,5.7
		c-4.4,5.7-6.1,14-2.8,14c0.9,0,2.6-2.2,3.9-4.8c1.3-2.6,3.9-5,6.1-5.2c2.6-0.2,2.8,0,0.7,0.7c-6.6,2-4.2,11.4,5.9,23
		C492.7,594.6,494.7,595.5,496.4,592.4L496.4,592.4z M507.6,559.8c3.3-4.8,7.2-9.2,9-9.8c3.9-1.5,4.2-5.7,0.4-5.7
		c-8.1,0-23.8,33-19.5,40.5c0.7,1.1,2-2,2.8-7C501,572.7,504.3,564.6,507.6,559.8L507.6,559.8z M416.2,1128.9
		c-2-3.1,1.7-13.8,5-13.8c2.8,0,2.8,2.8,0.2,5.5c-1.1,1.1-2.4,3.9-2.8,6.6S417.3,1130.5,416.2,1128.9L416.2,1128.9z M353.4,1112.8
		c1.7-1.1,5.2-2,7.7-2c4.4,0.2,4.4,0.2,0,2c-2.4,1.1-5.9,2-7.7,2C350.3,1115,350.3,1114.7,353.4,1112.8z M344.6,1106.2
		c0-2.4,0.4-2.4,14.2-3.3l8.7-0.7l-7.7,2.8C350.5,1108.8,344.6,1109.3,344.6,1106.2z M791.9,1080l-37.2-1.3l39.8-0.4
		c24.7-0.2,40.2,0.4,41.1,1.7c0.7,1.1-0.4,2-2.6,1.7C830.9,1081.5,812.3,1080.6,791.9,1080L791.9,1080z M826.3,1069.7
		c2.2-0.7,5.5-0.7,7.7,0s0.4,1.1-3.9,1.1C825.6,1070.8,824.3,1070.3,826.3,1069.7z M327.1,1060.7c0-1.7,16.4-5.2,36.1-7.9
		c7.7-1.1,8.1-0.9,3.3,1.3c-4.8,2.2-33.2,8.5-37.8,8.5C327.8,1062.5,327.1,1061.8,327.1,1060.7L327.1,1060.7z M484.4,987.2
		c-5.9-5-14-25.8-13.3-33.7c0.2-2.8,2-7.2,3.9-9.8c3.3-4.6,3.3-4.2,2,5.2c-2.6,18.2,2.6,29.3,17.7,38.3c3.7,2.2,3.7,2.4-0.4,3.5
		C491.4,991.4,487.7,990.1,484.4,987.2L484.4,987.2z M664.4,981.1c0.4-1.5,3.3-3.9,6.1-5.5c10.1-5,16.8-14.7,22.5-32.8
		c5-16.2,5.7-22.5,7-70.6c0.9-34.1,2.4-56.4,4.4-63.2c2.8-9.4,2.8-7.4,2,25.8c-2.8,96.9-5.7,113.7-21.9,133
		C678.4,975.4,663.1,985.5,664.4,981.1L664.4,981.1z M667.7,964c10.9-10.3,17.9-24.7,18.4-38.9l0.4-10.3l0.9,8.7
		c1.7,16.6-1.1,25.8-11.8,37.8c-5.5,6.3-11.6,11.4-13.6,11.4C659.6,972.8,661.6,969.9,667.7,964L667.7,964z M508,939.5
		c-0.7-16-2.4-32.6-3.9-37.2c-2.4-7-2.2-9.4,0.9-16c5-10.5,8.1-9.8,5.7,1.1c-1.3,5.5-1.1,12.5,0.2,18.6c2.6,11.6,2.6,62.3,0.2,62.3
		C510,968.4,508.7,955.5,508,939.5L508,939.5z M709.9,959.4c0-1.7,1.5-5.2,3.3-7.4c2.4-3.3,3.3-3.5,3.3-0.9c0,1.7-1.5,5.2-3.3,7.4
		C710.6,961.6,709.9,961.8,709.9,959.4z M515.2,959c0-4.2,5.2-22.5,6.8-24.3c1.1-1.3,1.3,2.6,0.4,8.7c-0.7,5.9-2.8,12.2-4.4,14
		C516.6,959.2,515.2,959.9,515.2,959L515.2,959z M589.6,957.5c0-1.3,1.1-1.7,2.2-0.9c1.1,0.9,2.2,1.7,2.2,2.4c0,0.7-1.1,0.9-2.2,0.9
		C590.7,959.9,589.6,958.6,589.6,957.5z M587.4,952.9c0-0.4-0.9-4.2-2-8.1s-1.1-7-0.2-7c2.2,0,5.2,12.9,3.5,14.7
		C587.9,953.3,587.4,953.5,587.4,952.9z M566.2,932.3c0-8.3,0.4-11.6,0.9-7s0.4,11.4,0,15.3S566.2,940.8,566.2,932.3L566.2,932.3z
		 M519.6,928.6c0-1.5,1.1-4.4,2.2-6.1c1.7-2.6,2.2-2.4,2.2,1.5c0,2.6-0.9,5.5-2.2,6.1S519.6,930.1,519.6,928.6z M723.3,919.8
		c-0.2-4.6,0.9-8.3,2-8.3c2.4,0,2.4,3.1,0,10.9C723.7,927.3,723.5,927.1,723.3,919.8z M725.2,901.9c0-4.4,0.4-7.9,0.9-7.9
		c1.7,0,2.6,13.3,0.9,14.4C725.9,909.1,725.2,906.1,725.2,901.9z M476.5,903.7c-0.9-2.2-2.6-5-4.2-6.3c-1.5-1.3-3.3-5-4.2-8.7
		c-0.9-3.5-2.6-7.2-3.9-7.9c-3.7-2.4-2.6-60.4,1.3-64.3c5.2-5.2,8.1-3.9,5.2,2.8c-1.5,3.5-2.4,16.2-2.2,30.2
		c0.2,19.7,1.3,27.1,5.9,40.2c3.1,9,5,16.6,4.6,17.3C478.5,907.4,477.4,906.1,476.5,903.7L476.5,903.7z M725,873.9
		c0-9.8-0.7-36.3-1.3-58.6c-1.1-36.3-0.9-40.9,2.4-43.5c3.5-2.8,3.5-1.1,2.4,24.9c-1.5,32.8,1.5,53.6,7.4,49c2.2-1.7,1.7,0-1.3,5
		c-3.5,5.7-4.8,12-5.2,24.7c-0.4,9.4-1.3,17.1-2.4,17.1S725.2,883.8,725,873.9L725,873.9z M585.5,877.4c0-2.6,0.7-3.1,1.3-1.3
		c0.7,1.5,0.7,3.5-0.2,4.2C585.7,881.1,585.2,879.8,585.5,877.4L585.5,877.4z M644.3,861c0-2,2-5.2,4.4-7.4
		c5.7-5,17.5-25.6,17.5-30.2c0-2,0.9-3.5,2-3.5c2.6,0,0.7,12.5-3.3,21C660.7,849.4,644.3,865.6,644.3,861L644.3,861z M505.8,847
		c-5-6.8-8.1-23.8-8.1-43.7c0-17.1,5.5-38.3,10.1-38.3c2,0,1.7,3.5-1.3,13.8c-6.1,20.6-5.7,47.5,1.1,62.3
		C513.1,853.1,512.4,856,505.8,847L505.8,847z M716.7,843.7c0-3.1,0.4-4.2,1.1-2.8c0.7,1.3,0.7,3.9,0,5.5
		C717.1,847.9,716.7,846.8,716.7,843.7z M745.1,838c1.7-2,7-5.5,11.8-7.7c17.7-7.9,41.8-36.3,49.2-58c5.7-16.2,5.5-17.5-2.4-25.4
		c-5.9-5.9-7.7-6.6-15.3-5.2l-8.7,1.3l3.5-5.5c5.5-8.1,12.9-7.2,23.4,3.3c8.5,8.5,8.7,9,7.4,20.3c-2.4,19.7-5.9,28-15.7,38.7
		c-5.2,5.7-9.6,11.4-9.6,12.5c0,3.3-16.6,16-24.7,18.6c-3.9,1.3-9.4,4.2-12.2,6.3C745.1,842.6,741.2,842.9,745.1,838L745.1,838z
		 M511.7,830c-0.7-3.9-0.9-10.3-0.4-13.8c0.9-5.7,0.9-5.5,1.3,1.7c0.2,4.4,1.3,10.5,2.4,13.8c1.3,3.3,1.3,5.7,0,5.7
		C514.2,837.2,512.6,833.9,511.7,830L511.7,830z M522.9,829.1c-5.2-13.3-2.4-70.9,3.3-67.4c1.1,0.7,3.1-2.6,4.6-7
		c2.4-7.4,12.5-24.7,14.2-24.7c1.1,0-1.7,7.4-4.2,10.5c-1.3,1.5-4.4,7.4-7,13.1c-4.4,9.4-5.7,13.6-9.4,28.9
		c-2,8.1-0.9,38.1,1.7,44.6c1.1,3.1,1.3,5.7,0.2,5.7C525.3,832.8,523.8,831,522.9,829.1L522.9,829.1z M735.3,821.9
		c0.9-6.6,1.7-24.3,2-39.4c0.2-15.1,1.3-29.7,2.6-32.8c2.8-6.6,10.9-14.4,12.9-12.5c0.7,0.7-0.9,3.3-3.9,5.7
		c-5,3.9-5.2,5.9-6.6,37.8c-1.3,34.1-2.6,43.7-6.6,49.9C734.4,832.8,734.2,830.2,735.3,821.9L735.3,821.9z M743.8,815.3
		c0.9-3.1,2.6-6.6,3.7-7.7c1.5-1.5,1.7-0.4,0.7,3.3c-0.9,3.1-2.6,6.6-3.7,7.7C742.9,820.1,742.7,819,743.8,815.3z M629,807.2
		c0-0.9,1.1-3.3,2.2-5c1.7-2.8,2.2-2.8,2.2,0.4c0,2-0.9,4.4-2.2,5C629.9,808.3,629,808.3,629,807.2z M528.4,795.8
		c0-3.9,1.1-11.6,2.6-17.3c2.8-11.4,10.9-24.7,12.2-20.3c0.7,1.7,2,1.5,4.2-1.3c2.8-3.5,2.8-3.5,0.7,1.5c-1.3,3.1-5,8.5-7.9,12.5
		s-6.1,12.2-7.4,18.4C530.1,803,528.4,805.7,528.4,795.8L528.4,795.8z M749.1,801.1c-0.2-1.1-0.2-3.3,0-4.4s0.4-11.4,0.2-22.5
		c-0.2-13.3,0.4-19.9,2-19c2.6,1.7,2.6,37.6,0,43.7C750.4,801.3,749.3,802.4,749.1,801.1L749.1,801.1z M685.9,790.1
		c0-1.1,0.9-3.7,2.2-5.5c1.3-1.7,2.2-2.2,2.2-1.1s-0.9,3.7-2.2,5.5C686.7,790.8,685.9,791.5,685.9,790.1z M685.9,774.8
		c-0.4-1.1-0.7-2.8-0.4-3.7c0.2-0.9-0.9-7-2-13.6c-1.1-6.6-2.6-14.9-3.3-18.2c-0.4-3.3-2-10.5-3.1-16s-2-13.3-2-17.5
		c0.2-5.7,0.4-6.3,1.1-2.2c0.4,3.1,3.3,14.9,6.3,26.5c3.7,14.4,5.2,24.9,4.6,33.9C686.9,771.3,686.3,776.1,685.9,774.8L685.9,774.8z
		 M549.6,768.9c2.4-2.6,9.6-15.5,15.7-28.4c9.2-19.2,11.2-25.2,10.5-32.8c-0.7-9-0.9-9.2-2.4-2.6c-5.2,20.1-9,30.2-12.7,34.6
		l-4.4,4.8l3.7-7.4c6.6-13.3,12-36.7,10.3-44.4c-1.5-7-1.5-7-3.1-1.7c-1.1,3.9-1.5,2.4-1.7-6.1c-0.2-15.7-6.6-14.7-7,1.3
		c0,3.3-1.1,7.9-2,10.3c-1.3,2.8-1.5-0.2-0.7-8.3c0.9-8.7,0.4-12.7-1.3-12.7c-1.5,0-2.4,3.7-2.4,9c0,9.4-9.6,40-14.4,45.7
		c-1.5,1.7-3.5,5.9-4.2,9.4c-1.5,6.6-5.5,10.3-5.5,5.5c0-1.7,1.5-7.9,3.3-13.8c1.7-5.9,4.4-19.7,5.5-30.4
		c4.6-41.3,8.3-62.6,11.4-66.3c1.7-2,3.9-5.7,4.6-8.1c2.6-8.5,16-26.9,24.9-34.6c10.1-8.5,19-11.4,28.9-9.2
		c7.2,1.5,17.5,12.5,13.1,13.8c-1.3,0.4-3.9-1.3-5.7-3.7c-3.9-5.7-19.5-6.3-29.1-1.3c-6.3,3.3-15.7,14.4-22.5,26.7
		c-4.6,8.5-4.8,10.3-0.7,8.7c3.7-1.5,3.9-0.9,1.3,10.3c-1.5,7-1.5,7.9,1.1,5.7c2.6-2.2,3.1-1.3,3.3,4.8l0.2,7.4l1.5-6.6
		c4.6-19.5,20.1-33.5,43.5-39.6c10.3-2.6,12.5-2.6,16.8,0.2c7.2,4.6,9.8,14.2,6.3,22.1l-2.8,6.3l-0.2-8.1c-0.2-6.3-1.5-9-6.6-12.7
		c-3.5-2.4-8.3-4.6-10.7-4.6c-6.3,0-29.3,10.9-33.9,16c-6.3,7.2-13.1,36.5-8.5,36.5c1.3,0,2.4-2.6,2.4-6.1c0-6.1,7.4-24.7,9.8-24.7
		c0.7,0-0.2,2.6-2,6.1c-2.8,5.5-7.9,27.8-7.9,34.8c0,1.5,0.9,2.8,2,2.8s2.4-4.4,3.3-9.8c0.7-5.5,3.1-13.1,5-17.1
		c4.8-9.4,15.7-19,21.4-19c4.2,0.2,4.2,0.2-0.7,2.2c-5.9,2.4-12.7,9.6-16,17.3c-3.9,8.7-10.5,41.8-10.5,52.7
		c0,11.6-5.5,29.3-11.4,36.7c-2.2,2.8-3.9,6.1-3.9,7.2c0,3.7-15.3,25.8-17.9,25.8C546.3,773.7,547.2,771.6,549.6,768.9L549.6,768.9z
		 M548.1,682.8c2.2-28.2,2.4-36.7,0.9-35.4c-2.2,2.2-5.7,24.9-7,44.4c-1.1,15.5-0.7,19.2,1.3,17.1
		C545.2,707.5,547.2,696.3,548.1,682.8L548.1,682.8z M513.1,764.1c-0.2-7.2,6.3-23.2,9.2-23.2c2.2,0,0.9,5-5,19.7
		C513.5,769.6,513.3,770,513.1,764.1z M414.2,761.5c-1.7-6.3,1.3-24.7,4.6-27.8c2.2-2.2,2.4-1.7,1.1,1.7c-0.9,2.4-2.4,10.3-3.1,17.5
		C416.2,761.3,415.1,764.6,414.2,761.5L414.2,761.5z M421.4,750.6c-0.2-7.9,3.7-20.6,6.3-20.6c1.1,0,0.4,4.2-1.1,9.4
		c-1.5,5.2-3.5,11.4-3.9,13.8C422.1,755.8,421.6,754.9,421.4,750.6L421.4,750.6z M704.9,751.4c-2.2-5.7,5.2-26.9,11.8-33.5
		c14.2-14.7,45.1-15.7,55.1-1.7c5.7,7.9,3.3,8.5-6.3,2.2c-20.1-13.8-51.8,0.9-55.1,25.2C709.3,752.3,706.6,756,704.9,751.4
		L704.9,751.4z M397.1,739c0-3.5,7.9-16.8,13.6-23.2c5-5.5,5-2.6-0.2,4.8c-2.2,3.3-6.1,9.4-8.7,13.6
		C399.3,738.5,397.1,740.7,397.1,739L397.1,739z M557,723.4c0-0.7,2-6.6,4.2-13.1c2.8-7.9,4.2-10.1,4.2-6.6
		C565.3,708.1,557,727.6,557,723.4L557,723.4z M795.4,708.8c0-7.2-1.7-13.6-5.7-20.6c-5.9-10.7-10.5-12.9-26.9-12.9
		c-7.4,0-20.3,5.9-20.3,9.2c0,0.9-1.5,1.7-3.3,1.7c-1.7,0-3.3-0.9-3.3-2c0-3.1,11.2-11.2,15.5-11.2c2.2,0,4.6-0.9,5.2-2
		c2.4-3.7,19.7-2.2,28.9,2.6c7.9,3.9,9.6,6.3,12.7,16.2c2.4,7.7,3.1,14.4,2.2,20.3C798.7,722.3,795.4,721.5,795.4,708.8L795.4,708.8
		z M732,691.5c0-2.6,0.7-3.1,1.3-1.3c0.7,1.5,0.7,3.5-0.2,4.2C732.4,695.2,731.8,693.9,732,691.5L732,691.5z M719.1,678.8
		c2.6-4.2,5.2-6.8,5.7-5.7c0.9,2.6-6.1,13.1-8.5,13.1C715.2,686.3,716.5,683,719.1,678.8L719.1,678.8z M465.4,677.5
		c-3.3-5.2-3.5-8.7-0.4-8.7c1.1,0,2.2,1.5,2.2,3.3s1.1,3.3,2.2,3.3c1.1,0,2.2,1.5,2.2,3.3C471.5,683.2,468.7,682.8,465.4,677.5
		L465.4,677.5z M456.6,675.3c-3.5-5.7-3.5-14.4,0.7-27.6c4.2-13.6,5.2-15.3,12-17.3c5.2-1.5,5.2-1.5-1.5,5.7
		c-9.8,10.5-12.9,22.3-8.7,34.1C462.3,680.3,461.2,682.8,456.6,675.3L456.6,675.3z M736.2,666.3c0-2,2.2-6.8,5-10.7
		c3.7-5.5,7.4-7.9,14.9-9.8c16.8-4.2,30.2,1.7,33.7,15.1c2,7.7,0,7.4-3.9-0.4c-7.4-14.7-30.4-13.8-42.9,1.5
		C738.6,666.8,736.2,668.5,736.2,666.3L736.2,666.3z M462.8,651.5c0-2.4,1.1-4.6,2.2-4.6s2.2,1.3,2.2,3.1c0,1.7-1.1,3.7-2.2,4.6
		S462.8,653.9,462.8,651.5z M468.7,642.3c1.5-1.5,3.3-2.2,3.9-1.5c0.7,0.7-0.4,2-2.6,2.6C466.9,644.7,466.5,644.5,468.7,642.3
		L468.7,642.3z M568,632.7c-0.2-6.8,22.7-28.7,30.8-29.7c11.2-1.5,10.9,3.5-0.2,5.2c-8.3,1.3-17.7,8.7-26.9,21.4
		C569.5,632.7,568,634,568,632.7L568,632.7z M594,627.4c3.1-2.4,5.9-3.7,6.6-3.1c1.3,1.3-6.6,7.4-9.6,7.2
		C589.6,631.6,590.9,629.6,594,627.4L594,627.4z M568.4,617.4c7.2-14.4,29.3-28.9,35.2-23c1.3,1.3-1.3,2.6-7.4,3.5
		c-9.8,1.5-11.6,2.8-23.8,17.3C566,622.8,565.6,623,568.4,617.4L568.4,617.4z M545.7,616c-1.3-2.4-2.8-10.1-3.3-17.1l-0.9-12.5
		l2,10.5c1.1,5.9,3.1,13.3,4.2,17.1C550.2,621.7,549.2,622.6,545.7,616L545.7,616z M536,616.5c-0.7-1.1-1.7-7.4-2.2-13.8
		c-0.9-10.5-0.7-10.7,0.9-2.4c0.9,5,2.8,10.5,4.4,12.5c1.7,2,2,3.7,0.7,4.6C538.4,618,536.7,617.6,536,616.5L536,616.5z
		 M526.4,607.9c-2.8-5.2-2.8-17.3,0-23.4c1.5-3.3,2-2.4,1.3,4.4c-0.4,4.8,0,11.6,1.1,15.1C530.8,611.9,529.5,613.9,526.4,607.9
		L526.4,607.9z M550.9,606c-2.2-8.5,2.6-28.9,8.3-35c5.5-5.9,8.7-5,3.5,0.9c-5.7,6.1-8.5,16.2-8.5,28.4
		C554.4,613.2,553.3,615.2,550.9,606L550.9,606z M517.2,603.8c-3.7-9.4-0.7-29.7,5.9-40c7.2-11.6,9.2-9.6,2.6,2.6
		c-4.2,7.7-5,12.9-4.8,26.5c0,9.4-0.2,17.1-0.7,17.1C519.8,609.7,518.5,607.1,517.2,603.8L517.2,603.8z M533,585.6
		c0-3.1,0.9-7,2-8.7c1.7-2.6,2.2-2.6,2,1.1c0,2.4-0.9,6.3-2,8.7C533.2,590.9,533,590.7,533,585.6z M528.6,575.6
		c0-2.6,0.7-3.1,1.3-1.3c0.7,1.5,0.7,3.5-0.2,4.2C529,579.3,528.4,578,528.6,575.6L528.6,575.6z M704.7,555.2
		c-3.5-9.8-8.1-19-10.1-20.6c-2.2-1.5-4.6-4.8-5.2-7.7c-2.6-8.5-23-16.2-43.7-16.4c-22.5-0.2-30.2,3.1-47.2,20.6
		c-8.5,8.7-13.1,12-13.1,9.6c0-10.7,15.3-27.1,32.4-34.6c15.5-7,48.1-6.6,61.7,0.4c10.9,5.9,14,8.5,22.3,19.7
		c6.3,8.5,11.4,27.8,10.3,38.9C711,572.3,710.4,571.2,704.7,555.2L704.7,555.2z M539.3,569c0-2.6,12.2-16.2,14.7-16
		c0.9,0,0.2,1.3-1.5,2.8c-1.7,1.5-5.5,5.5-8.3,9C541.3,568.4,539.3,570.1,539.3,569L539.3,569z M557.9,561.6
		c1.5-2.4,9.8-7.2,9.8-5.7c0,0.7-1.5,2.6-3.5,4.4C560.5,564.2,555.7,565.1,557.9,561.6z M569.9,552.8c0-1.3,1.1-1.7,2.2-0.9
		c1.1,0.9,2.2,1.7,2.2,2.4c0,0.7-1.1,0.9-2.2,0.9C571,555.2,569.9,553.9,569.9,552.8z M554.8,544.5c-0.4-11.2,15.5-35,21.9-32.8
		c2.2,0.9,1.5,1.7-2.4,3.7c-5.9,2.8-15.1,17.1-17.7,27.6C555.3,548.2,555.1,548.7,554.8,544.5L554.8,544.5z M565.6,535.6
		c0-2.8,11.2-16,12.7-14.7c0.7,0.7-2,4.6-5.7,9C568.6,534.2,565.6,536.9,565.6,535.6L565.6,535.6z M527.3,510.6
		c0.9-2.2,2-3.3,2.6-2.6c0.7,0.7,0,2.4-1.5,3.9C526.4,514.1,526.2,513.9,527.3,510.6L527.3,510.6z M542.8,510
		c0.7-2.6,4.2-7.4,8.1-10.9c5.9-5.5,5.7-4.2-1.3,4.6c-0.9,1.3-3.1,4.2-4.8,6.6C541.7,514.6,541.7,514.6,542.8,510L542.8,510z
		 M534.9,508.4c0-3.1,13.8-21.4,17.7-23.4c5.7-3.1,5.5,1.1,0,5c-2.4,1.7-7.2,6.8-10.9,11.4S534.9,509.1,534.9,508.4L534.9,508.4z
		 M528.4,503.8c0-4.4,9.4-21.2,12.9-23c5.2-2.8,6.1,0.2,1.1,4.4c-2,1.5-5.2,6.6-7.7,11.2C531,503.6,528.4,506.7,528.4,503.8
		L528.4,503.8z"/>
</g>
</svg>
