<?xml version="1.0" encoding="utf-8"?>
<!-- Generator: Adobe Illustrator 17.0.0, SVG Export Plug-In . SVG Version: 6.00 Build 0)  -->
<!DOCTYPE svg PUBLIC "-//W3C//DTD SVG 1.1//EN" "http://www.w3.org/Graphics/SVG/1.1/DTD/svg11.dtd" [
	<!ENTITY ns_flows "http://ns.adobe.com/Flows/1.0/">
	<!ENTITY ns_extend "http://ns.adobe.com/Extensibility/1.0/">
	<!ENTITY ns_ai "http://ns.adobe.com/AdobeIllustrator/10.0/">
	<!ENTITY ns_graphs "http://ns.adobe.com/Graphs/1.0/">
]>
<svg version="1.1" id="Layer_1" xmlns:x="&ns_extend;" xmlns:i="&ns_ai;" xmlns:graph="&ns_graphs;"
	 xmlns="http://www.w3.org/2000/svg" xmlns:xlink="http://www.w3.org/1999/xlink" xmlns:a="http://ns.adobe.com/AdobeSVGViewerExtensions/3.0/"
	 x="0px" y="0px" width="612px" height="792px" viewBox="0 0 612 792" style="enable-background:new 0 0 612 792;"
	 xml:space="preserve">
<path style="fill:none;stroke:#000000;stroke-width:3;stroke-miterlimit:10;" d="M310.8,518.6c-8.8,5.7-18.2,12.1-34.1,8.8
	c-34.3-6.8-18.9,6.8-63.5,0s-12-12-24-25.7c-12-13.7-27.5-12-27.5-12s-1.7-13.7-25.7-37.8s-15.4-25.7-17.2-34.3
	c0,0,10.3,5.1-30.8-24c-27.5-19.5-15.2-21.4,3.1-26.5c4.1,30.7,36.1,25.7,40.8,35.1c5.1,10.3-3.5,18.9,0,27.5
	c3.5,8.6,6.8,18.9,48.1,25.7s30.8,18.9,37.8,46.3c6.8,27.5,82.4-10.3,82.4-10.3s3.1-18.5,9.2-13.1
	C310.2,490.1,310.7,503.8,310.8,518.6z"/>
<path style="fill:none;stroke:#000000;stroke-width:3;stroke-miterlimit:10;" d="M341,468.8c-8.6-6.8-13.7-14.6-13.7-14.6l8-2.2
	C337.6,455.3,336.5,460.9,341,468.8z"/>
<path style="fill:none;stroke:#000000;stroke-width:3;stroke-miterlimit:10;" d="M489.1,504.9c-1.1,0.7-44.3,27.7-78.7,41.7
	c-34.3,14-27.5-14-61.7-31.3c-6.2-3.1-11.4-4.5-15.9-4.8c-0.5-6-0.8-11.5-1.2-16.3c20.3,12.2,47.3,26.4,47.3,26.4s51.5,0,70.3-8.8
	c11.8-5.6,30.6-17.7,43.3-27.5C495.9,490.2,490,504.4,489.1,504.9z"/>
<path style="fill:none;stroke:#000000;stroke-width:3;stroke-miterlimit:10;" d="M332.8,510.5c4.4,56.4,12.4,154.8,16.1,167.5h-44.8
	c0,0,7.2-90.5,6.7-159.3c-0.1-14.8-0.6-28.6-1.6-40.3c-0.8-10.4-2.2-19.2-3.8-25.5l-4.1-2.9c24.5-2.5,31.4-1.8,33.9,1.9l-8,2.2
	c0,0,5.1,7.8,13.7,14.6c3.1,5.3,8.6,11.5,19.4,18.8c-8.6-2-18.8-7.1-30.6-16.5c0,0,0.6,9,1.7,23.1l0,0
	C331.9,499,332.3,504.5,332.8,510.5z"/>
<path style="fill:none;stroke:#000000;stroke-width:3;stroke-miterlimit:10;" d="M407,450.4c-0.2,1.3-10.6,45.5-46.6,37.2
	c-10.8-7.3-16.4-13.5-19.4-18.8C355.8,480.5,380.9,489.5,407,450.4z"/>
<path style="fill:none;stroke:#000000;stroke-width:3;stroke-miterlimit:10;" d="M374.6,441.3l-39.3,10.6c-2.5-3.7-9.4-4.4-33.9-1.9
	l-70.3-48.6c2,1.1,65.5,36.1,77,43.7C319.1,452.7,371,442,374.6,441.3z"/>
<path style="fill:none;stroke:#000000;stroke-width:3;stroke-miterlimit:10;" d="M335.3,451.9l-8,2.2c0,0,5.1,7.8,13.7,14.6
	C336.5,460.9,337.6,455.3,335.3,451.9z M341,468.8c3.1,5.3,8.6,11.5,19.4,18.8c36,8.4,46.3-36,46.6-37.2
	C380.9,489.5,355.8,480.5,341,468.8z M307.9,445.1c-11.4-7.6-74.9-42.7-77-43.7l70.3,48.6c24.5-2.5,31.4-1.8,33.9,1.9l39.3-10.6
	C371,442,319.1,452.7,307.9,445.1z M427,401.4c-5.1-0.8-22.4-14.6-39.4-30c-17.1-15.4-12,6.8-25.7,18.9c-6.8,6-11.6,11.1-15.9,14.8
	c-4.3,3.6-8.1,5.7-13.3,5.7l27.5,12c0,0,12-6.8,17.2-6.8c5.1,0,29.2,6.8,49.7,6.8s13.7-5.1,20.6-21.4
	C454.5,385.1,432.1,402.3,427,401.4z"/>
<path style="fill:none;stroke:#000000;stroke-width:3;stroke-miterlimit:10;" d="M522.9,328.5c0-5.1-17.1-58.3-17.1-66.9
	c0-8.6,8.6-60,8.6-60s-24-6.8-56.5-42.9c-32.6-36,0,0-17.2-27.5c-17.1-27.5-25.7-8.6-77.2-26.9c-51.5-18.4-27.5-0.5-36,1.2
	c-8.6,1.7-34.3-3.5-49.7,0c-15.4,3.5-48.1,27.5-63.5,27.5s-60,18.9-77.2,29.2c-17.1,10.3-27.5,51.4-39.4,54.9
	c-12,3.5-25.7,27.5-25.7,36c0,4.5,5.7,21.9,10.9,43.2c2.2,8.8,4.2,18.4,5.6,28c1.8,11.4,2.9,22.8,2.4,33.5c-0.1,3.5,0,6.6,0.4,9.4
	c4.1,30.7,36.1,25.7,40.8,35.1c5.1,10.3-3.5,18.9,0,27.5c3.5,8.6,6.8,18.9,48.1,25.7s30.8,18.9,37.8,46.3
	c6.8,27.5,82.4-10.3,82.4-10.3s3.1-18.5,9.2-13.1c-0.8-10.4-2.2-19.2-3.8-25.5l-4.1-2.9l-70.3-48.6c2,1.1,65.5,36.1,77,43.7
	c11.1,7.4,63.1-3.1,66.7-3.8l-39.3,10.6c2.3,3.2,1.2,8.8,5.7,16.7c14.8,11.8,39.9,20.7,66-18.4c-0.2,1.3-10.6,45.5-46.6,37.2
	c-8.6-2-18.8-7.1-30.6-16.5c0,0,0.6,9,1.7,23.1l0,0C352,506,379,520.2,379,520.2s51.5,0,70.3-8.8c11.8-5.6,30.6-17.7,43.3-27.5
	c7.4-5.7,12.7-10.9,13.4-13.4c1.7-6.8,0-13.7,1.7-37.8s10.3-29.2,15.4-37.8C528.1,386.8,522.9,333.6,522.9,328.5z M319.7,324.3
	c-10.8,9.2-21.4,6-37.1,0c-15.5-6-13.6-2.6-13.6-15.9c0-13.3-24-15.9-22.4-33c0.1-0.6,0.1-1.3,0.2-1.9c2.5-15.3,15.2-15.3,15.2-15.3
	l36.3,12l34.1,23.9c0,0-1.1,11.2-6,20.9C324.9,318.5,322.6,321.8,319.7,324.3z M377.2,416c-5.1,0-17.2,6.8-17.2,6.8l-27.5-12
	c5.1,0,9-2.2,13.3-5.7s9-8.8,15.9-14.8c13.7-12,8.6-34.3,25.7-18.9c17.2,15.4,34.3,29.2,39.4,30c5.1,0.8,27.5-16.3,20.6,0
	c-6.8,16.3,0,21.4-20.6,21.4C406.4,422.9,382.4,416,377.2,416z"/>
<path style="fill:none;stroke:#000000;stroke-width:3;stroke-miterlimit:10;" d="M447.5,401.4c-6.8,16.3,0,21.4-20.6,21.4
	s-44.6-6.8-49.7-6.8c-5.1,0-17.2,6.8-17.2,6.8l-27.5-12c5.1,0,9-2.2,13.3-5.7s9-8.8,15.9-14.8c13.7-12,8.6-34.3,25.7-18.9
	c17.2,15.4,34.3,29.2,39.4,30C432.1,402.3,454.5,385.1,447.5,401.4z"/>
<path style="fill:none;stroke:#000000;stroke-width:3;stroke-miterlimit:10;" d="M332.7,294.2c0,0-1.1,11.2-6,20.9
	c-1.8,3.5-4.1,6.8-6.9,9.2c-10.8,9.2-21.4,6-37.1,0c-15.5-6-13.6-2.6-13.6-15.9c0-13.3-24-15.9-22.4-33c0.1-0.6,0.1-1.3,0.2-1.9
	c2.5-15.3,15.2-15.3,15.2-15.3l36.3,12L332.7,294.2z"/>
<path style="fill:none;stroke:#000000;stroke-width:3;stroke-miterlimit:10;" d="M443.2,301.1c13.7,30.8-49.7,25.7-61.8,14.1
	c-12-11.6-20.6-10.8-29.2-6.8c-4.5,2-14,5.7-25.7,6.6c4.9-9.7,6-20.9,6-20.9l-34.1-23.9l-36.3-12c0,0-12.7,0-15.2,15.3
	c-13.6-10.5-25.1-26.5-21.6-39.3c5.1-18.9-6.8-10.3-18.9-13.7c-12-3.5-10.3-30.8,0-34.3s41.1-27.5,39.4-36c-1.7-8.6,38-13.7,38-13.7
	c39.7-36,88.9-5.1,95.7,0c6.8,5.1,29.2,0,49.2,6.3c20.1,6.5,12.6,45.1,12.6,45.1s12.1,17.1,22.4,32.6c10.3,15.4-5.1,22.4-37.8,39.4
	C393.5,277.1,429.6,270.3,443.2,301.1z"/>
</svg>
