<?xml version="1.0" encoding="utf-8"?>
<!-- Generator: Adobe Illustrator 17.0.0, SVG Export Plug-In . SVG Version: 6.00 Build 0)  -->
<!DOCTYPE svg PUBLIC "-//W3C//DTD SVG 1.1//EN" "http://www.w3.org/Graphics/SVG/1.1/DTD/svg11.dtd" [
	<!ENTITY ns_flows "http://ns.adobe.com/Flows/1.0/">
	<!ENTITY ns_extend "http://ns.adobe.com/Extensibility/1.0/">
	<!ENTITY ns_ai "http://ns.adobe.com/AdobeIllustrator/10.0/">
	<!ENTITY ns_graphs "http://ns.adobe.com/Graphs/1.0/">
]>
<svg version="1.1" id="Layer_2" xmlns:x="&ns_extend;" xmlns:i="&ns_ai;" xmlns:graph="&ns_graphs;"
	 xmlns="http://www.w3.org/2000/svg" xmlns:xlink="http://www.w3.org/1999/xlink" xmlns:a="http://ns.adobe.com/AdobeSVGViewerExtensions/3.0/"
	 x="0px" y="0px" width="612px" height="792px" viewBox="0 0 612 792" style="enable-background:new 0 0 612 792;"
	 xml:space="preserve">
<ellipse style="fill:none;stroke:#1E1E1E;stroke-width:6;stroke-miterlimit:10;" cx="301.5" cy="281" rx="249.5" ry="49"/>
<path style="fill:none;stroke:#1E1E1E;stroke-width:6;stroke-miterlimit:10;" d="M551,281c0,22.5-25.4,188.1-153,243.8
	c-26.2,11.4-56.6,18.2-92,18.2c-40.2,0-74.2-8.1-103-21.4C76.6,463.1,52,303,52,281c0-27.1,111.7-49,249.5-49S551,253.9,551,281z"/>
<path style="fill:none;stroke:#1E1E1E;stroke-width:6;stroke-miterlimit:10;" d="M398,524.8V559c-64.5,13.4-129.6,13.2-195,0v-37.4
	c28.8,13.3,62.8,21.4,103,21.4C341.4,543,371.8,536.2,398,524.8z"/>
</svg>
