<?xml version="1.0" encoding="utf-8"?>
<!-- Generator: Adobe Illustrator 22.1.0, SVG Export Plug-In . SVG Version: 6.00 Build 0)  -->
<svg version="1.1" id="Layer_1" xmlns="http://www.w3.org/2000/svg" xmlns:xlink="http://www.w3.org/1999/xlink" x="0px" y="0px"
	 viewBox="0 0 600 600" style="enable-background:new 0 0 600 600;" xml:space="preserve">
<polygon style="fill:none;stroke:#070707;stroke-width:2;stroke-miterlimit:10;" points="27.3,306.3 65.7,272.6 94.8,171.3 
	180.9,183.2 200,166.1 199,100 196,92 204,88 262,102 259,108 259,118 337.3,136 403.6,118 425.8,167 482.9,205 560,312 560,316 
	550.3,315.5 536.6,418 528.3,419.5 524.4,418.3 537.5,318 531,318 535.5,325.3 534,329.9 528,329.2 515.5,430.1 447,443.5 
	444.5,452 280,478.5 119.5,439.5 108.7,340.7 87.3,339.3 98,428.7 90,432 78.7,430.3 63.3,310 27,310 "/>
<line style="fill:none;stroke:#070707;stroke-width:1.5;stroke-miterlimit:10;" x1="528" y1="329" x2="460" y2="329.3"/>
<polyline style="fill:none;stroke:#070707;stroke-miterlimit:10;" points="561.5,312 528,311.3 531,316.5 "/>
<line style="fill:none;stroke:#070707;stroke-miterlimit:10;" x1="535.5" y1="324.5" x2="460" y2="323.3"/>
<polyline style="fill:none;stroke:#070707;stroke-width:2;stroke-miterlimit:10;" points="63.3,308.5 265,306 404,133 488,320 
	492,312 426,167 "/>
<polyline style="fill:none;stroke:#070707;stroke-miterlimit:10;" points="31,304 262,297 404,118 "/>
<polyline style="fill:none;stroke:#070707;stroke-miterlimit:10;" points="260.5,118 262,133 210,200 202,201 200,166 "/>
<polyline style="fill:none;stroke:#070707;stroke-miterlimit:10;" points="210,200 206,96 204,88 "/>
<polyline style="fill:none;stroke:#070707;stroke-miterlimit:10;" points="199,100 206,96 260.5,108 "/>
<polyline style="fill:none;stroke:#070707;stroke-width:2;stroke-miterlimit:10;" points="94.8,171.4 170,284.1 162,286.1 99,189.5 
	65,292 58,292 65.7,272.5 "/>
<polyline style="fill:none;stroke:#070707;stroke-miterlimit:10;" points="67,288 85,277 153,274 "/>
<line style="fill:none;stroke:#070707;stroke-miterlimit:10;" x1="180.9" y1="183.1" x2="170" y2="284.1"/>
<line style="fill:none;stroke:#070707;stroke-miterlimit:10;" x1="273" y1="295" x2="280" y2="478.5"/>
<polyline style="fill:none;stroke:#070707;stroke-miterlimit:10;" points="77,417 88,420 96,418 "/>
<polyline style="fill:none;stroke:#070707;stroke-miterlimit:10;" points="116,425 277,455 447,434 "/>
<line style="fill:none;stroke:#070707;stroke-miterlimit:10;" x1="449" y1="428" x2="516" y2="417"/>
<polyline style="fill:none;stroke:#070707;stroke-miterlimit:10;" points="526,409 529.3,410.3 538.3,409.7 "/>
<line style="fill:none;stroke:#070707;stroke-miterlimit:10;" x1="537.5" y1="316.5" x2="551" y2="315.5"/>
<polyline style="fill:none;stroke:#070707;stroke-miterlimit:10;" points="536.7,321.7 542,321 549.7,321.7 "/>
<line style="fill:none;stroke:#070707;stroke-miterlimit:10;" x1="542" y1="316.7" x2="528.5" y2="419.5"/>
<polyline style="fill:none;stroke:#070707;stroke-width:2;stroke-miterlimit:10;" points="87,340 80,340 90,432.5 "/>
<g>
	<polygon style="fill:none;stroke:#070707;stroke-width:1.5;stroke-miterlimit:10;" points="139.8,346.3 145.3,401.3 170,402.8 
		168.3,344.8 	"/>
	<polygon style="fill:none;stroke:#070707;stroke-miterlimit:10;" points="143.5,348.8 148,399.3 155.5,399.5 151.5,349 	"/>
	<polygon style="fill:none;stroke:#070707;stroke-miterlimit:10;" points="154.3,349 158.8,400.3 166.8,400 165.3,348.5 	"/>
	<polyline style="fill:none;stroke:#070707;stroke-width:1.5;stroke-miterlimit:10;" points="168.8,346 170,346.3 171.3,403 
		170,402.8 	"/>
</g>
<g>
	<polygon style="fill:none;stroke:#070707;stroke-width:1.5;stroke-miterlimit:10;" points="194.5,345.4 200.4,405.4 226.2,407 
		224.4,343.8 	"/>
	<polygon style="fill:none;stroke:#070707;stroke-miterlimit:10;" points="198.4,348.1 203.1,403.2 211,403.4 206.8,348.4 	"/>
	<polygon style="fill:none;stroke:#070707;stroke-miterlimit:10;" points="209.7,348.4 214.4,404.3 222.8,404 221.2,347.8 	"/>
	<polyline style="fill:none;stroke:#070707;stroke-width:1.5;stroke-miterlimit:10;" points="224.9,345.1 226.2,345.4 227.5,407.3 
		226.2,407 	"/>
</g>
<g>
	<polygon style="fill:none;stroke:#070707;stroke-width:1.5;stroke-miterlimit:10;" points="329.3,337.3 333,425 413.3,417.3 
		421.3,337 	"/>
	<polygon style="fill:none;stroke:#070707;stroke-miterlimit:10;" points="336.3,342.5 338,420.8 410,412.2 416.7,342.1 395.3,342 
		392.3,412.5 388,412.5 390.7,342.5 364,342.5 365,415.5 360,415.5 359,342.5 	"/>
	<polyline style="fill:none;stroke:#070707;stroke-miterlimit:10;" points="409.7,343 404.7,409 410,412.2 	"/>
	<line style="fill:none;stroke:#070707;stroke-miterlimit:10;" x1="404.7" y1="409" x2="392.7" y2="410"/>
	<line style="fill:none;stroke:#070707;stroke-miterlimit:10;" x1="387.3" y1="410.3" x2="364.7" y2="412.7"/>
	<line style="fill:none;stroke:#070707;stroke-miterlimit:10;" x1="359.3" y1="413" x2="338.7" y2="414.3"/>
	<polyline style="fill:none;stroke:#070707;stroke-width:1.5;stroke-miterlimit:10;" points="329.3,338.1 326.3,338.8 329.8,425.3 
		333,425 	"/>
</g>
<polyline style="fill:none;stroke:#070707;stroke-miterlimit:10;" points="488,320 461,317 447,443.5 "/>
<line style="fill:none;stroke:#070707;stroke-miterlimit:10;" x1="461" y1="317" x2="389" y2="152"/>
<g>
	<path style="fill:none;stroke:#070707;stroke-width:1.5;stroke-miterlimit:10;" d="M398.4,222.6c3.9,5.1,5,10.4,5,10.4l-0.7,71.3
		l-45.3,0.3l-1-75.3c0,0,11.7-22,33.7-13.7C393.7,217.4,396.4,220,398.4,222.6"/>
	<path style="fill:none;stroke:#070707;stroke-miterlimit:10;" d="M395.4,226.8c3.1,4.4,4,9,4,9l-0.5,61.5l-36.3,0.3l-0.8-65
		c0,0,9.4-19,27-11.8C391.6,222.4,393.8,224.6,395.4,226.8"/>
	<polyline style="fill:none;stroke:#070707;stroke-miterlimit:10;" points="361.9,241 395.5,245 395.4,247.9 362,245 	"/>
	<polyline style="fill:none;stroke:#070707;stroke-miterlimit:10;" points="361.9,260.8 396.7,262.7 396.6,265.9 362,264.6 	"/>
	<polyline style="fill:none;stroke:#070707;stroke-miterlimit:10;" points="362.4,279.1 397.1,280.3 397,283.9 362.4,282.5 	"/>
	<path style="fill:none;stroke:#070707;stroke-miterlimit:10;" d="M365.5,227.8c0,0,17-11.8,27.3,5.8l-0.3,10.8"/>
	<line style="fill:none;stroke:#070707;stroke-miterlimit:10;" x1="392" y1="247.8" x2="392.3" y2="262"/>
	<line style="fill:none;stroke:#070707;stroke-miterlimit:10;" x1="392.5" y1="266" x2="392.5" y2="280"/>
	<line style="fill:none;stroke:#070707;stroke-miterlimit:10;" x1="392.3" y1="284" x2="392.5" y2="297.3"/>
</g>
<g>
	<polygon style="fill:none;stroke:#070707;stroke-miterlimit:10;" points="249.3,217.3 225,253.7 251.7,254 275,215.3 	"/>
	<polygon style="fill:none;stroke:#070707;stroke-miterlimit:10;" points="229,251.5 250.3,220.1 268.3,219.5 249.3,251.5 	"/>
	<polyline style="fill:none;stroke:#070707;stroke-width:1.5;stroke-miterlimit:10;" points="225,253.7 226,255.3 252.3,256.7 
		251.7,254 	"/>
	<polyline style="fill:none;stroke:#070707;stroke-width:1.5;stroke-miterlimit:10;" points="252.3,256.7 275.7,219.3 275,215.3 	
		"/>
</g>
<polyline style="fill:none;stroke:#070707;stroke-miterlimit:10;" points="111,275 107.5,229 123,227 "/>
<line style="fill:none;stroke:#070707;stroke-miterlimit:10;" x1="127.5" y1="233.5" x2="129.5" y2="275"/>
<polygon style="fill:none;stroke:#070707;stroke-miterlimit:10;" points="113.5,272.5 109.5,231.3 123.5,229.4 126,272.5 "/>
</svg>
