<?xml version="1.0" encoding="utf-8"?>
<!-- Generator: Adobe Illustrator 22.1.0, SVG Export Plug-In . SVG Version: 6.00 Build 0)  -->
<svg version="1.1" id="Layer_1" xmlns="http://www.w3.org/2000/svg" xmlns:xlink="http://www.w3.org/1999/xlink" x="0px" y="0px"
	 viewBox="0 0 456 201" style="enable-background:new 0 0 456 201;" xml:space="preserve">
<path d="M278.3,12.5c0.3,2,2.3,2.2,2.4,4.3c-2.8,1.8-6.9,5.2-10.4,4.3c-0.5-2,2-0.8,1.8-2.4C267.6,11.8,284.7,2.1,278.3,12.5
	L278.3,12.5z"/>
<path d="M263.6,14.9c-3.5,1.7-6.3-1-9.8-2.4C254.6,8,265.2,9.5,263.6,14.9z"/>
<path d="M248.9,11.9c4.2,0.6,2.6,4.1,1.8,7.3c-1.9-0.1-2.7,1.3-4.9,0.6C245.1,15.4,247.3,13.9,248.9,11.9L248.9,11.9z"/>
<path d="M291.1,12.5c1.7,0.8,0.1,3.7,2.4,4.9c0.2,3.6-7,5.2-9.2,2.4C285.8,16.5,290,16,291.1,12.5L291.1,12.5z"/>
<path d="M234.8,19.8v5.5c-3.3,2.9-8.5,1.6-12.2,3.1c-0.6-3.4-0.5-3.9-2.4-6.1C225.7,17.6,229.2,15.8,234.8,19.8L234.8,19.8z"/>
<path d="M263,18.6c-0.2,4.3-8.2,5.7-11.6,3.1C251.7,17.2,259.4,16.1,263,18.6L263,18.6z"/>
<path d="M294.2,18.6c4.8-0.5,6.7,1.8,6.1,6.7c-1.9,0.8-2,0.1-4.3,0c-1.4,1.3,0.7,2.6-1.2,3.7c-3.9-0.2-6.2-2-8.6-3.7
	c1.7-3.1,6.3-4.3,8.6-1.2C296.3,22.9,293.4,21,294.2,18.6L294.2,18.6z"/>
<path d="M313.1,22.9c0.2,6.1,0,11.2,6.1,13.5c-1.5,1.6-2.5,3.6-5.5,3.7c-0.1-4.2-8-2.6-7.3-9.2c1-1,3.6-0.5,5.5-0.6
	c-1.5-3.3-7.1-1.5-9.2,0C300.6,24.5,308.8,24.1,313.1,22.9L313.1,22.9z"/>
<path d="M243.4,24.1c2.3,1.2,5.1,1.9,6.7,3.7c1,1.6-1,4.4-3.1,4.9C243.6,32.1,243.1,28.5,243.4,24.1L243.4,24.1z"/>
<path d="M278.9,33.9c1.5,1.6,3.5,2.7,3.1,6.1c-4.5,2-10.3-1.2-8.6-5.5c1.8-1.1,3.1,0.2,4.3-0.6c-1-2.1-4.9-1.2-6.1-3.1
	C272,20,284.9,27.7,278.9,33.9L278.9,33.9z"/>
<path d="M266.6,27.2c0.4,2.3-1,2.6-0.6,4.9c-2.1-0.4-2.7-2.2-4.9-2.4c-1.6,1.6-2,4.5-4.9,4.9c-2.7-1.9-2.2-3.9-1.2-7.3
	c1.9,0.2,4.2-0.1,4.3,1.8c1.1-0.1,0.4-2.1,1.2-2.4C263.6,26,264.1,26.2,266.6,27.2z"/>
<path d="M316.2,25.9c3-0.4,3.7,1.6,6.7,1.2c1.5,2.1,2.4,4.9,0.6,7.3c-2.9-0.3-4.8-1.8-7.3-2.4C316,28.6,315.5,28.5,316.2,25.9
	L316.2,25.9z"/>
<path d="M283.8,27.2c2.1,0.7,3.7,2,4.9,3.7c-0.3,2.8-1.6,4.5-2.4,6.7C280.9,37,280.4,30.1,283.8,27.2L283.8,27.2z"/>
<path d="M213.4,37.6c-3.6-1.3-5-4.8-9.8-4.9C205.7,22.9,221.2,31.1,213.4,37.6z"/>
<path d="M156.5,35.7C143.4,34.5,161.8,21.4,156.5,35.7z"/>
<path d="M143.6,29.6c3.7,0.4,4.8,3.4,5.5,6.7c-3.6,3.5-7.2-1.1-7.3-4.9C142.7,31.1,143.3,30.5,143.6,29.6L143.6,29.6z"/>
<path d="M233,36.9c-0.5,0.3-1.1,0.5-1.2,1.2c-2.6-0.3-4.9-0.8-5.5-3.1c-1.1,0.1-1.4,1.1-1.2,2.4c1.9,1.1,4.9,1.2,4.9,4.3
	c-1.5,0.5-2.7,1.4-4.9,1.2c-1.2-1.4-2.5-2.6-1.2-4.9c-1.8-0.1-4,0.3-4.9-0.6C217.9,29.5,232.7,29.9,233,36.9L233,36.9z"/>
<path d="M342.5,41.8c-1.9,1.5-3.7-1.3-6.1-1.2C331.8,26.4,350.1,33.6,342.5,41.8L342.5,41.8z"/>
<path d="M266,32.7c2.5,5.1-3.7,8-7.3,5.5C258.3,33.5,262.3,33.2,266,32.7L266,32.7z"/>
<path d="M329.7,32.7c2.5,4.1,2.7,8.9-0.6,12.2c-3.4-0.9-5.5-3-8-4.9C324.3,37.9,325.8,34.1,329.7,32.7L329.7,32.7z"/>
<path d="M135.7,33.3c3.9,1.8,7.7,3.7,7.3,9.8C137.9,41.7,135.9,38.2,135.7,33.3L135.7,33.3z"/>
<path d="M198.1,33.9c8,0.9,15.4,10,8.6,17.1c-0.9-4,2-4.9-1.2-8C202.8,40.6,192.5,42,198.1,33.9L198.1,33.9z"/>
<path d="M173,35.1h1.8c0.8,6.2,3.1,12.9,3.7,18.4C168.8,55.1,170.6,42.3,173,35.1L173,35.1z"/>
<path d="M301.5,35.1c5.5-0.4,7.9,2.3,8.6,6.7c-2.2,1.8-5.5,2-8,0.6C300.9,41,301.7,37.5,301.5,35.1L301.5,35.1z"/>
<path d="M136.3,44.9c-1-0.2-1.1,0.6-1.8,0.6c-2.7-2-5.7-6.9-6.1-9.2C132.3,35.5,136.7,39.3,136.3,44.9L136.3,44.9z"/>
<path d="M125.3,48c-3-1.6-7.1-3.5-6.1-7.3C120.9,33.4,130.6,40.9,125.3,48L125.3,48z"/>
<path d="M153.4,46.7c-1.1,0.1-2,0.4-2.4,1.2c-2.7-1.6-5.6-3-5.5-7.3C150.2,36.7,155.2,41.4,153.4,46.7L153.4,46.7z"/>
<path d="M217.7,38.8c0,2.9-1.4,4.3-4.3,4.3C213.4,40.2,214.8,38.8,217.7,38.8L217.7,38.8z"/>
<path d="M97.8,42.4c0.4,2.3,1.4,4.3,0.6,6.1c-2-1.1-10.2-1.2-11.6-4.9C87.9,38.1,94,41,97.8,42.4z"/>
<path d="M255.6,45.5c-0.5,0.3-1.1,0.5-1.2,1.2c-3.9,1-5.7-4.4-3.1-6.1C254.1,40.9,255.7,42.4,255.6,45.5L255.6,45.5z"/>
<path d="M248.9,46.1c-2.6,2.8-6.6-0.8-8.6-2.4C241.3,38.8,249.4,42.1,248.9,46.1L248.9,46.1z"/>
<path d="M167.5,43.1c0.1,6.7,2.2,10.1-2.4,12.8c-1.7-0.7-3.5-1.4-5.5-1.8C156,49.3,158,37.5,167.5,43.1L167.5,43.1z"/>
<path d="M239.1,42.4c-0.1,3.6-3,7-6.1,5.5C232.1,45.7,235.3,40,239.1,42.4L239.1,42.4z"/>
<path d="M319.3,46.7c0.8-0.8,2.7-0.6,4.3-0.6c2.6,2.3,2,7.2-2.4,7.3c-1.4-1.2-0.8-4.5-1.8-6.1c-1.4,3.6-4.8,1.4-8.6,2.4
	C309.8,43.8,319.1,37.7,319.3,46.7L319.3,46.7z"/>
<path d="M106.3,42.4c1,1.5,1.6,3,0.6,4.9C102,48.9,101,41.1,106.3,42.4L106.3,42.4z"/>
<path d="M195.7,43.1c1.8,1.4-1,6,0.6,9.8C191.1,51.9,192.4,44.9,195.7,43.1L195.7,43.1z"/>
<path d="M258.1,43.1c2.5,0.2,4.9,0.4,6.1,1.8v1.2c0,2.5-5.2,2.1-6.1,1.8C257.2,47.1,257.2,44,258.1,43.1z"/>
<path d="M287.4,51c-0.7,3.7-5.5,3.4-8.6,4.9c-1-4.6-4.9-6.1-5.5-11c2.9-0.3,6.7,2,8-1.2C285.7,43.8,285.2,48.7,287.4,51L287.4,51z"
	/>
<path d="M83.1,48.6c-0.8,2.2-7,1.5-8,0C75.4,42.1,81.8,44.9,83.1,48.6z"/>
<path d="M116.7,54.1c-13-1,0.2-16.8,1.8-5.5C119,51.4,117.6,51.5,116.7,54.1L116.7,54.1z"/>
<path d="M223.8,45.5c-0.2,3-0.8,5.7-1.8,8C209.8,59.4,212.9,38.9,223.8,45.5L223.8,45.5z"/>
<path d="M305.8,44.9c0.1,2.5,2.7,2.6,2.4,5.5c-3.6,1.3-7.1,0.1-9.8-1.2C296.8,43.9,301.2,44.3,305.8,44.9L305.8,44.9z"/>
<path d="M180.4,44.9c3.2,0.5,3.9,3.4,7.3,3.7c2,4.7,1.4,10.8-3.7,11.6C179.5,56.3,181.2,49.3,180.4,44.9L180.4,44.9z"/>
<path d="M201.8,44.9c2.3,1.2,1.4,1.8,1.8,4.9C200.6,50,200.2,45.9,201.8,44.9L201.8,44.9z"/>
<path d="M268.5,46.7c1-0.2,1.1,0.6,1.8,0.6c1.4,3.1,0.2,8.2-2.4,9.2C264,55.1,266.7,48.2,268.5,46.7L268.5,46.7z"/>
<path d="M59.8,52.9c-4.3-0.7-5.5,1.8-8.6,2.4C49.9,49.2,63.8,43.6,59.8,52.9z"/>
<path d="M333.3,48.6c1.2,2.9-1,7.5-3.7,7.3C324.4,55.6,326.3,45.4,333.3,48.6L333.3,48.6z"/>
<path d="M335.2,48c3.7-0.3,6,1,6.7,3.7c-1.4,1.3-2.3,3-5.5,2.4C335,53.1,335.1,50.5,335.2,48L335.2,48z"/>
<path d="M130.8,57.7c-5.5,5.3-8.6-7-4.9-9.2C129.9,49.3,130.5,53.4,130.8,57.7L130.8,57.7z"/>
<path d="M151,49.8c-1.3,2.7-3.4,4.8-7.3,4.9c-1.3-1.3-2.5-2.8-3.1-4.9C144,50,146.7,49,151,49.8L151,49.8z"/>
<path d="M95.3,54.1c-0.9,0.7-1.5,1.8-2.4,2.4c-3.9-0.1-5-3.2-8.6-3.7v-2.4C88.4,48.8,94.6,50.2,95.3,54.1z"/>
<path d="M230.5,59c-0.5-0.5-3.1-0.4-4.3-1.8c0.4-2-0.4-2.8-0.6-4.3c1.9-0.2,1.9-2.2,3.1-3.1c4.4,2.7-1.1,11.1,7.3,8
	c0.8,4.3-3.8,3.1-6.1,4.3C229.1,61.2,229,59,230.5,59L230.5,59z"/>
<path d="M291.1,49.8c3.9,1.4,8.6,2,10.4,5.5c-3.4,1.1-6.1,2.8-8,5.5c-2-0.2-2.7-1.8-3.7-3.1C291,54.9,290.9,52.1,291.1,49.8
	L291.1,49.8z"/>
<path d="M101.4,50.4c1.3,0.7,3.3,0.7,3.7,2.4c-0.1,2.6-1.4,3.9-4.3,3.7C99.3,54.4,99.8,52.2,101.4,50.4L101.4,50.4z"/>
<path d="M139.4,57.7c-1.4,0.5-2.4,1.3-4.3,1.2C128.6,52.1,141.2,45.9,139.4,57.7L139.4,57.7z"/>
<path d="M233,50.4c3.1,0.2,3.6,2.9,5.5,4.3c-1.4,3.7-5,0-6.7-1.2C231.7,51.9,232.7,51.6,233,50.4L233,50.4z"/>
<path d="M319.9,56.5c-1,1-2.7,1.3-3.7,2.4c-1.5-1.8-4.4-2.1-5.5-4.3C311.7,49.8,321.7,48.5,319.9,56.5L319.9,56.5z"/>
<path d="M84.9,55.9c-4.3,2-8.8-4.1-11.6-0.6c-1.7,1.7,1.4,1.7,2.4,2.4c-2.9,2.8-11.5-0.1-12.2,4.9c0.4,0.6,1.1,0.9,1.8,1.2
	c2.3-2.7,8-2.9,9.8-1.2c3.7-0.9,6.7-5.8,11-2.4c-5.5,7.9-19.2,5-26.9,5.5c-0.9-1.8-3-2.3-3.1-4.9c0.8-0.4,1.1-1.3,1.2-2.4
	C66.7,55.7,75.6,49,84.9,55.9z"/>
<path d="M246.4,52.2c2.2,3,2.9,8.3,3.1,11.6c-2.8-1.2-5.6-2.6-7.3-4.9C243,56.2,245.6,55,246.4,52.2L246.4,52.2z"/>
<path d="M37.2,52.9c0.8,0.2,1,1.1,1.8,1.2c0.1,4.5-2.7,8.3-6.7,6.7C34.3,58.6,36.5,56.4,37.2,52.9z"/>
<path d="M334.6,54.7c0.9,0.9,2.9,0.8,3.7,1.8c1.3,1.5-1.4,2.7-2.4,3.7c-1.6-0.7-4.2-0.2-4.9-1.8C331.2,56.3,333.9,56.4,334.6,54.7
	L334.6,54.7z"/>
<path d="M152.2,55.3c1-0.2,1.1,0.6,1.8,0.6c0.3,3.4-0.8,5.3-1.8,7.3c-4.4,0.9-7-1.7-5.5-4.9C149.7,58.5,151.9,57.8,152.2,55.3
	L152.2,55.3z"/>
<path d="M196.9,55.3c2.5,0.9,1.3,8.1-1.2,8C194.2,60.4,195.4,57,196.9,55.3L196.9,55.3z"/>
<path d="M189.5,57.1c1-0.2,1.1,0.6,1.8,0.6c1.2,2.7,0.5,6.9-0.6,9.2c1.8,2.5,3.4,6,0.6,8.6c-2.9-3.1-5.3-6.6-6.7-11
	C185.8,61.5,190.5,62.1,189.5,57.1L189.5,57.1z"/>
<path d="M309.5,62c-1,0.8-2,1.6-4.3,1.2c0.8,2.9,2.8,2.6,2.4,5.5c0.8-2.2,5.9-2.8,8-0.6c1.2-0.6,1-2.7,3.1-2.4
	c0.7,2.1,2,3.7,3.7,4.9c1.9-0.9,3.8-1.9,4.3-4.3c7.8,6-10,12.2-10.4,2.4c-1.5,1.3-2.1,3.6-3.7,4.9c0.1,1.6,1.1,2.1,1.8,3.1
	c-0.9,2.2-2.1,4.1-4.9,4.3c-0.3-0.5-0.5-1.1-1.2-1.2c-0.6-2.7,1.3-2.8,1.8-4.3c-0.2-2.2-3.4-1.5-2.4-4.9c-2.1-0.5-0.8,2.5-3.1,1.8
	c-1.3-1.3-3-2.3-4.3-3.7c-1.6-1.7,1.9-3.3,2.4-5.5c0.2-0.9-1.1-1.6-0.6-2.4C304.2,57.1,308.4,54.5,309.5,62L309.5,62z"/>
<path d="M46.4,57.7c1.2,1.4,1.8,4.3,0,5.5c-1.3-1.8-4.3-1.8-4.3-4.9C43.5,58.2,44.4,57.4,46.4,57.7z"/>
<path d="M114.3,59c0.6,2.4,1.8,6.7,0,8c-2.6-0.2-4.4-1.3-5.5-3.1C109.2,60.8,110.6,58.8,114.3,59L114.3,59z"/>
<path d="M214.6,59.6c3,0.1,4.8,1.3,7.3,1.8c-0.5,5-1.1,9.9-3.1,13.5c-2.3-0.6-4.5-1.2-6.1-2.4C213.4,67.6,214.4,63.2,214.6,59.6
	L214.6,59.6z"/>
<path d="M94.7,60.2c3.8,0.5,7.3,1.3,8.6,4.3C99.8,65.9,95.5,63.4,94.7,60.2L94.7,60.2z"/>
<path d="M316.2,61.4C315.2,74.3,304,56.7,316.2,61.4z"/>
<path d="M326.6,62.6c-0.3,3.4-2.8,4.5-6.1,4.9C317.5,63.3,323.7,59.1,326.6,62.6L326.6,62.6z"/>
<path d="M123.5,72.4c-3.6-0.9,0.9-7.1-1.8-9.8C127.8,60.1,125.6,70,123.5,72.4L123.5,72.4z"/>
<path d="M286.2,62c2.4-0.1,3.2,1.3,4.9,1.8c-1.3,2.1-0.5,6.5-4.3,6.1c0.3-1.7,0.9-3.2,1.2-4.9c-1.5-1.1-3,3.1-3.7,4.9
	C282.6,67.4,285.5,64.2,286.2,62L286.2,62z"/>
<path d="M234.8,62.6c1.8,0.2,3.1,1,4.3,1.8c0.7,2.7,1.2,7.3-0.6,9.2C233,72.6,232.4,66.1,234.8,62.6L234.8,62.6z"/>
<path d="M38.4,63.3c1.8-0.1,3.3-0.1,3.1,1.8C40.2,66.4,38.4,65.1,38.4,63.3z"/>
<path d="M130.8,63.9h2.4c0.3,3.4-0.8,5.3-1.8,7.3C128.5,70,130,66.2,130.8,63.9L130.8,63.9z"/>
<path d="M264.8,63.9c4.7,3.4-0.8,13.2-3.1,13.5C257.8,72.6,263.4,67.3,264.8,63.9z"/>
<path d="M337.6,65.1c0.6,3-1.6,3.3-1.8,5.5c0,2.2,3.6,0.9,3.1,3.7c-4.6,1.4-5-3.6-8.6-4.3C329.8,65.3,334.2,62.2,337.6,65.1
	L337.6,65.1z"/>
<path d="M138.8,64.5c2.7,3.3-2.9,11-6.1,10.4C134.1,70.8,137,68.2,138.8,64.5L138.8,64.5z"/>
<path d="M154,65.7c3.4,1.9,5,5.6,6.1,9.8c-1.9,1.4-5,0-6.7-0.6C152.3,72.2,153.4,68.4,154,65.7L154,65.7z"/>
<path d="M345.6,67.5c-0.1,2.6-1.1,4.2-2.4,5.5c-2.3,0.7-1.7-1.5-3.7-1.2v-4.3C341.4,65.7,343.8,65.5,345.6,67.5L345.6,67.5z"/>
<path d="M244.6,66.3c6.5,0.3,2.8,10.4,1.8,14.1C242.2,77.6,242.5,71.1,244.6,66.3L244.6,66.3z"/>
<path d="M145.5,67.5c2.3,1,2.6,3.9,2.4,7.3c-1.3,0.5-2.1,1.6-4.3,1.2C141.1,73.3,143.5,69.3,145.5,67.5L145.5,67.5z"/>
<path d="M207.3,69.4c1.5,1.2,3.3,6.8,0,7.3C206.6,73.8,205.7,71.6,207.3,69.4z"/>
<path d="M225.6,71.2c2.3-0.5,0.8,2.9,1.2,4.3C225.4,75,224.4,72.5,225.6,71.2L225.6,71.2z"/>
<path d="M182.2,73c6-2.1,5.8,9.4,1.2,11C179.8,81.3,185.9,75.5,182.2,73L182.2,73z"/>
<path d="M285,73c0.8,0.2,1,1.1,1.8,1.2c0.1,2.5-1.4,3.5-2.4,4.9c-2.3,0.6-2-1.3-3.1-1.8C281.6,74.9,283.8,74.5,285,73L285,73z"/>
<path d="M368.8,79.8c-2.9-1.2-6.5-1.6-6.7-5.5C365.6,71.3,367.6,76.8,368.8,79.8L368.8,79.8z"/>
<path d="M114.3,75.5c0.8-1.7,2.7,0.5,3.7,0.6c0.1,1.3-2.2,0.3-3.1,0.6C115,76,114.8,75.6,114.3,75.5L114.3,75.5z"/>
<path d="M334.6,76.1c0.3,3.6-0.6,6-3.1,6.7C326.6,81.4,329.5,71.2,334.6,76.1L334.6,76.1z"/>
<path d="M321.7,80.4c0,2.1-1.4,2.7-2.4,3.7c-1.5-0.3-1.3-2.4-3.7-1.8c0.4-2.3-1-2.6-0.6-4.9C318.4,75.4,319.7,79,321.7,80.4
	L321.7,80.4z"/>
<path d="M163.2,77.3c3.9,2.6,8.2,4.8,8.6,11c-2.6,0.6-2.7,0.2-5.5,0c-1.1-3.6-4.1-5.3-4.9-9.2C162.3,78.8,162.9,78.2,163.2,77.3
	L163.2,77.3z"/>
<path d="M270.9,77.3c-0.2,2.5-1.6,3.7-2.4,5.5C265.2,81.9,266.3,75.8,270.9,77.3L270.9,77.3z"/>
<path d="M300.3,77.3c0.8,0.8,2.7,0.6,4.3,0.6c0.1,1.1,0.4,2,1.2,2.4c-0.6,3.1-2.1,5.2-4.9,6.1c-1.1-1.2-2.7-1.7-3.7-3.1
	C297.1,80.3,300.5,80.6,300.3,77.3z"/>
<path d="M341.3,78.5c0.5,3.8-1.1,5.5-4.3,5.5c-1.3-1-1.4-3.1-1.2-5.5C337.9,77.6,339.6,77.1,341.3,78.5L341.3,78.5z"/>
<path d="M122.8,77.9c2-0.2,2.2,2.7,1.2,3.7C121.8,82.1,121.9,78.9,122.8,77.9L122.8,77.9z"/>
<path d="M65.9,78.5c3.4-1.2,4.5,5.6,1.2,5.5C67.4,81.6,65.8,81,65.9,78.5z"/>
<path d="M138.8,79.2c3.4,0.8,12.2,1.7,8,8C141.9,86.6,138.5,84.7,138.8,79.2L138.8,79.2z"/>
<path d="M133.9,81c0.3,1.9-1.3,2-3.1,1.8c0.1-1.1-0.7-1.3-0.6-2.4C131,79.5,133.8,79.3,133.9,81L133.9,81z"/>
<path d="M159.6,85.9c-3.5,2.2-7.5-0.1-7.3-4.9C155.9,79,159.8,80.8,159.6,85.9L159.6,85.9z"/>
<path d="M193.8,79.8h1.8c0.4,3.2,1.3,6.1-2.4,7.3c-0.5-0.5-0.4-1.7-1.2-1.8C191.7,82.5,193.2,81.6,193.8,79.8L193.8,79.8z"/>
<path d="M296.6,86.5c-4.9,1.7-8.8-0.2-8.6-3.7C288.4,78.5,297.7,79.5,296.6,86.5L296.6,86.5z"/>
<path d="M281.3,80.4c0.1,0.6-0.1,7.4-0.6,11c-0.7-0.1-1.1,0.1-1.2,0.6c-2.2-0.9-2.7-3.4-5.5-3.7C275.5,84.8,277.9,82,281.3,80.4
	L281.3,80.4z"/>
<path d="M119.8,82.8c0.1,1.5,0.1,2.9-0.6,3.7C113.9,87.1,115.4,80.1,119.8,82.8L119.8,82.8z"/>
<path d="M315,82.2c0.8,2.8,2.6,4.1,0.6,6.7c-4.3,0.8-5.5-1.4-6.7-3.7C309.1,82.5,311.6,81.9,315,82.2L315,82.2z"/>
<path d="M177.9,82.8c4.9,0.6,2.1,8.1,3.1,10.4C174.7,93.2,176,85.4,177.9,82.8L177.9,82.8z"/>
<path d="M207.3,83.4c1.1,3.9-0.1,6.7-1.2,9.8C200.7,92.9,201.4,82.6,207.3,83.4L207.3,83.4z"/>
<path d="M329.7,83.4c4.2-0.1,8.5-0.3,8,4.3C334.2,89.3,329.4,87.5,329.7,83.4L329.7,83.4z"/>
<path d="M259.9,85.9c1.4,2.8,0.7,8.9-3.7,8C256.1,89.8,258,87.9,259.9,85.9L259.9,85.9z"/>
<path d="M327.8,87.1c0.7,6.1-8.4,6.9-9.2,1.8C319.2,85.6,325.5,85.1,327.8,87.1L327.8,87.1z"/>
<path d="M126.5,86.5c2-0.5,1.9,1,3.1,1.2C129.3,89.8,125.6,89.2,126.5,86.5z"/>
<path d="M162.6,89c2.5-0.3,1.9,2.6,4.3,2.4c0.6,3.7,0,9.2-1.8,13.5C158.9,102.8,163.4,95.2,162.6,89L162.6,89z"/>
<path d="M291.7,90.8c-0.9,3-5.6,5.1-8.6,2.4C283,88.7,289.4,87.8,291.7,90.8L291.7,90.8z"/>
<path d="M302.1,89.6c4.3-2.1,8.8,0.2,9.2,3.7C312.8,106.2,290.5,95.4,302.1,89.6L302.1,89.6z"/>
<path d="M359.6,89.6c0.7-0.1,1.1,0.1,1.2,0.6c0.6,3-3.3,6.4-6.7,7.3c-0.3-0.5-0.5-1.1-1.2-1.2C352.4,91.3,358.9,93.4,359.6,89.6
	L359.6,89.6z"/>
<path d="M145.5,90.8c1.6,3.2,1.2,6.6-2.4,7.3c-2.9-0.3-3.1-3.5-3.1-6.7C142.1,90.9,143.2,89.5,145.5,90.8L145.5,90.8z"/>
<path d="M158.3,93.8c0,2-1.7,2.3-1.2,4.9c-4.3-0.6-7.7-2.1-7.3-7.3C153.2,89.1,156.5,91.3,158.3,93.8L158.3,93.8z"/>
<path d="M293.6,90.8c2.2,0.7,3.4,2.3,3.1,5.5c-3.4,1-6.3,2.6-8.6,4.9c-2,0-2.1-2-4.3-1.8c0-1.6-0.2-3.5,0.6-4.3
	c2.9-0.2,4,1.3,6.1,1.8C292.5,95.8,291.5,91.8,293.6,90.8L293.6,90.8z"/>
<path d="M330.9,97.5c-2.6,0.5-2.9-1.2-4.9-1.2C325.3,87.4,337.3,92,330.9,97.5L330.9,97.5z"/>
<path d="M114.3,95.1c-0.5,0.5-1.7,0.4-1.8,1.2c-1.4-0.6-2-2.1-1.8-4.3C113,90.7,114.3,92.3,114.3,95.1L114.3,95.1z"/>
<path d="M325.4,98.7c-4.5,0.6-6.5-1.2-6.7-4.9C321.6,92.5,326.2,94.3,325.4,98.7z"/>
<path d="M81.2,96.3c2.8-0.3,4,3.3,3.1,4.9C82.5,100.3,81.8,98.4,81.2,96.3L81.2,96.3z"/>
<path d="M182.2,96.9c2.4,0.2,1.2,6.2,0.6,7.3C177.3,104.1,180.8,98.8,182.2,96.9L182.2,96.9z"/>
<path d="M316.2,98.7c0.8,4-3.5,3-4.9,4.9c0,3,4.5-0.2,4.9,1.2c0,1.4,1.1,1.8,0.6,3.7c-2.2,2.2-4.4,0.3-6.7-0.6
	C309.2,104.3,309.5,95.9,316.2,98.7L316.2,98.7z"/>
<path d="M187.7,98.7c1.9-0.3,2.4,0.9,3.7,1.2c0,3.5-1.4,5.5-3.1,7.3c-1.9,0.3-1.6-1.6-3.1-1.8C185.4,102.6,187.1,101.2,187.7,98.7
	L187.7,98.7z"/>
<path d="M51.3,105.5V103c2.3,1.3,2.4-1.2,3.1-3.1h3.1C57.5,104,55.5,105.8,51.3,105.5L51.3,105.5z"/>
<path d="M305.2,104.2c-0.7,9.7-13.5,6.1-12.2-0.6C294,98.3,303,99.6,305.2,104.2L305.2,104.2z"/>
<path d="M156.5,101.8c0.1,4-0.4,7.4-3.1,8.6C147.9,108.8,149.5,98.5,156.5,101.8L156.5,101.8z"/>
<path d="M318,101.2c3.2-0.2,4.1,2,4.3,4.9c-1.2,0-0.8,1.7-2.4,1.2C317.2,107.5,316.9,103,318,101.2L318,101.2z"/>
<path d="M148.5,102.4c-1,2.7,0.6,5.9-1.2,8.6h-3.1C141.6,107.1,141.9,100.1,148.5,102.4L148.5,102.4z"/>
<path d="M288,111c-4,3-8.6,1.1-14.1,0c-0.4-2.3,1-2.6,0.6-4.9C283.1,104.4,287.6,99.2,288,111L288,111z"/>
<path d="M310.1,111c-0.2,1.4-1,2.3-0.6,4.3c-3,1.9-6.2,1.1-6.7-2.4C305.3,111.8,307.1,108.1,310.1,111L310.1,111z"/>
<path d="M297.8,115.3c-0.6,0.4-0.9,1.1-1.2,1.8c-2.3,0.4-4.7-2.2-6.1-0.6C286.4,112.1,297.5,109.4,297.8,115.3L297.8,115.3z"/>
<path d="M314.4,112.2c0.5,3-0.8,4.1-1.2,6.1h-3.1C308.9,115.8,311.5,110.5,314.4,112.2L314.4,112.2z"/>
<path d="M395.7,111.6c2.9,1.1-0.3,6-1.2,7.3c-2,0-2.3-1.7-4.9-1.2c-0.4-1.9,1.1-1.8,0.6-3.7C392.9,114,394.5,113,395.7,111.6
	L395.7,111.6z"/>
<path d="M158.9,114.6c0.5,3.2-1.4,3.9-1.8,6.1c-1.2-0.3-1.5-1.3-3.1-1.2C151.2,115.1,156.5,110.1,158.9,114.6L158.9,114.6z"/>
<path d="M171.8,116.5c3,0.3,3.5,3,5.5,4.3c-0.9,2.1-1.1,5-3.1,6.1C171,125.8,169.8,119.1,171.8,116.5L171.8,116.5z"/>
<path d="M281.3,117.1h1.8c3.7,6.1,0,13.8-6.1,9.2C276.5,121.2,281.3,121.5,281.3,117.1L281.3,117.1z"/>
<path d="M292.9,118.3c-0.7,3.3-4.6,3.4-6.7,2.4C285.9,116.6,290.5,116.6,292.9,118.3L292.9,118.3z"/>
<path d="M303.3,117.1c5,0.3,9.5,2.2,5.5,7.3C306.1,124.6,301.4,121.4,303.3,117.1L303.3,117.1z"/>
<path d="M299.1,122c-1.7,1.5-4.3,1.2-5.5-0.6C293.3,116.4,299.6,117.3,299.1,122L299.1,122z"/>
<path d="M90.4,118.3c1.8-0.6,1.1,1.4,1.2,2.4h-1.8C89.5,119.5,90.2,119.1,90.4,118.3L90.4,118.3z"/>
<path d="M163.8,119.5c4.6,0.3,6,3.8,5.5,9.2c-2.6,0.1-4.3-0.6-6.1-1.2C162.9,125.9,163,121.7,163.8,119.5L163.8,119.5z"/>
<path d="M97.8,120.2h6.1c0.9,1.9,0.4,3.4-0.6,4.9C99.8,125.1,97.4,124,97.8,120.2L97.8,120.2z"/>
<path d="M152.2,120.2c-0.2,2-0.5,4-2.4,4.3C149.8,122.2,149.5,119.7,152.2,120.2L152.2,120.2z"/>
<path d="M299.7,122.6h1.8c0.3,6,0.7,9.1-3.7,11c-1.5-0.3-2.2-1.4-3.1-2.4C294.2,126.1,299.4,126.8,299.7,122.6L299.7,122.6z"/>
<path d="M156.5,123.8c2.3-0.7,1.7,1.5,3.7,1.2c-0.5,2.9,1,3.9,0.6,6.7C154.8,136.4,153.5,125.9,156.5,123.8L156.5,123.8z"/>
<path d="M288,131.2c-3.3-4.3,2.2-10.2,4.9-4.9C292.1,128.7,291.8,131.6,288,131.2L288,131.2z"/>
<path d="M86.7,126.9c1.8,1.7-1.2,3.6-3.1,3.7C82.2,128.7,85.5,127.9,86.7,126.9L86.7,126.9z"/>
<path d="M98.4,129.3c-1.1,2.2-1.7,4.9-5.5,4.3C89.1,128.8,95.2,124.6,98.4,129.3L98.4,129.3z"/>
<path d="M171.8,129.9c3.7,0.3,2.7,3,1.8,5.5C170.8,135.1,171.6,132,171.8,129.9L171.8,129.9z"/>
<path d="M164.5,130.6c4.7-0.4,4.8,3.8,5.5,7.3c-1.3,0.5-2.1,1.6-4.3,1.2C164.3,137.4,163.4,132.7,164.5,130.6L164.5,130.6z"/>
<path d="M287.4,136.1c-0.6,1.9-2.9,2-4.9,2.4C276,132.1,288.7,128.8,287.4,136.1L287.4,136.1z"/>
<path d="M297.2,136.7c-0.4,3.3-1.5,5.8-3.7,7.3C284.7,143.4,290.3,131.6,297.2,136.7L297.2,136.7z"/>
<path d="M86.1,136.1c1.4-0.5,2.6,2.1,3.1,0.6c1.7,0.8,1.2,3.3,0.6,4.9C86.2,142.3,84.7,138.4,86.1,136.1L86.1,136.1z"/>
<path d="M158.3,136.7c3.1-0.7,3.8,1.1,4.9,2.4c-0.8,1.9-1.9,3.4-4.3,3.7C157.7,140.5,157.5,139.6,158.3,136.7L158.3,136.7z"/>
<path d="M170.6,139.1c1.7,0.3,2.6,1.5,4.3,1.8c0.4,3.5-1.1,5-1.8,7.3c-2.2,0-2.3-2.1-3.7-3.1C170.2,142.9,171.9,142.3,170.6,139.1
	L170.6,139.1z"/>
<path d="M286.2,140.3c2.7,2.4-3,8.7-7.3,6.1c-0.3-2.6,1.1-3.4,1.2-5.5C281.9,141.5,285.7,143.7,286.2,140.3L286.2,140.3z"/>
<path d="M81.9,146.5c-0.7,2.3-6.3,1.3-6.1-1.2C77.9,143.5,79.3,146.7,81.9,146.5L81.9,146.5z"/>
<path d="M300.3,147.1c-0.4,1.9,1.1,1.8,0.6,3.7c-1.3,0.5-1.8,1.9-3.7,1.8c-0.8-1-1.6-2-1.2-4.3C297.4,147.8,298.4,147,300.3,147.1
	L300.3,147.1z"/>
<path d="M175.5,147.7c2.5-0.3,3.1,3.3,1.8,4.9C175.1,152.5,175.4,150,175.5,147.7L175.5,147.7z"/>
<path d="M292.3,147.7c1.8,3.2-1.6,4.3-3.1,6.1C285.7,152.5,287.5,146.1,292.3,147.7L292.3,147.7z"/>
<path d="M170,150.7c3.2,0.2,6.4,6.1,2.4,8C169.2,157.7,169.1,154.4,170,150.7L170,150.7z"/>
<path d="M425.7,151.4c2.6,0.2,4.4,1.3,5.5,3.1c-0.7,2.1-2,3.7-3.7,4.9C423,159,422.1,153.4,425.7,151.4L425.7,151.4z"/>
<path d="M73.3,152c3.1-0.6,3.1,1.8,4.9,2.4C76.4,156.2,73.2,154.1,73.3,152L73.3,152z"/>
<path d="M290.5,157.5c0.2,2.2,0.9,2.9,0,4.9H288C286.8,160.7,287.6,156.9,290.5,157.5L290.5,157.5z"/>
<path d="M296.6,158.1c4.7,0.4,0.5,4,0.6,6.7C293.7,164.7,295.9,159.4,296.6,158.1L296.6,158.1z"/>
<path d="M73.9,159.9c0.9,0.3,1.5,0.9,2.4,1.2c0,1.6,0.3,3.6-1.2,3.7C72.9,165,72.9,161.1,73.9,159.9L73.9,159.9z"/>
<path d="M63.5,161.1c1.5,0.3,4.1,0.5,4.3,3.7C65.2,164.8,64.1,163.2,63.5,161.1L63.5,161.1z"/>
<path d="M434.3,163c0.7,3.4-3.5,4.3-5.5,3.1C429.6,164,431.4,162.9,434.3,163L434.3,163z"/>
<path d="M173,166c0.4,3-0.8,4.5-3.1,4.9C166.4,168.5,168.6,162.6,173,166L173,166z"/>
<path d="M280.1,167.3c1.5-0.1,2.9-0.1,3.7,0.6c0.5,2.1-0.7,2.6-1.2,3.7c-1.5,0.1-1.9-1-3.1-1.2C279.2,168.9,280.6,169,280.1,167.3
	L280.1,167.3z"/>
<path d="M293.6,173.4c-1.9,0.3-2.4-0.9-3.7-1.2C290.7,169.9,294,170,293.6,173.4L293.6,173.4z"/>
<path d="M271.5,174.6c2.2,1.3,5.7,1.2,6.1,4.3c-1.7,1.1-5.3-0.1-6.7-1.2C270.7,176.2,271,175.3,271.5,174.6L271.5,174.6z"/>
<path d="M286.8,174.6c1.1,1-0.5,2.1,0,4.3c-2-0.5-3.2-1.7-3.7-3.7C283.9,174.5,285.3,174.5,286.8,174.6L286.8,174.6z"/>
<path d="M172.4,175.2c2.3-0.6,2,1.3,3.1,1.8C174.6,178.7,172.1,176.8,172.4,175.2L172.4,175.2z"/>
<path d="M255,176.4c1.2,0.4,1.6,1.6,1.8,3.1c-2.1,0.5-2.6-0.7-3.7-1.2C253,176.9,254.9,177.6,255,176.4L255,176.4z"/>
<path d="M171.8,181.3c1.3,0.5,2.4,1.2,2.4,3.1c-1.8,0.2-2.1-1.2-3.1-1.8C171.3,182.1,171.8,182,171.8,181.3L171.8,181.3z"/>
<path d="M151,185.6c-2.2,0.4-2.3-1.3-4.3-1.2C147.2,181.7,151.1,182.8,151,185.6L151,185.6z"/>
<path d="M167.5,182.6c0.8,0.8,0.8,2.9,0,3.7c-2.8,0.6-2.1-2.4-4.3-2.4C164.2,182.9,165.9,182.8,167.5,182.6L167.5,182.6z"/>
<path d="M404.9,170.3c-9.6,0.3-37.2,5-53.8,0c-6.3-1.9-16.5-7.4-16.5-15.3c0-4.7,3.7-5.7,4.9-10.4c17.7-5.7,22.9,9.3,35.5,14.1
	c14.9,0.9,35-0.4,44.7-9.8c-3.7-5.2-12.3-5.6-17.7-9.2c-14.1-2.8-25.3-3.5-34.9-8.6c-12.2-6.4-20.2-18.5-34.3-23.9
	c-9.9,6.6-19.8,18.7-24.5,32.4c-0.8,2.2-0.3,5.4-1.2,8c-0.9,2.7-3.3,4.8-3.7,6.7c-1,5.6,3.9,10.8,3.7,15.9
	c-2.9,4.8-8.6,8.7-14.7,12.2c-12.6,7.3-33.4,18.3-52,8.6c-8.1-8.5,1.8-14,7.3-19c6.6-0.1,11.7,3.2,17.7,1.8
	c4.1-0.9,12.7-5.9,13.5-9.8c0.7-3.6-2.4-5.1-4.3-8.6c-6.7-12-5.5-36.2-8.6-52.6c-5.7-2.4-16.3,0-22-4.3
	c-25.3-0.2-33.9,16.3-57.5,17.7c-2.6,9.9-1.4,22.6-2.4,34.9c-0.7,8.1-3,16.2-3.1,23.9c0,2.1,0.9,4.1,0.6,6.1
	c-0.8,6.1-9.3,18.9-14.1,19.6c-2.9,0.4-6.9-0.9-11.6-1.2c-9.7-0.6-18.2,0.2-23.9-7.3c-1.7-10.2,6.2-17.2,15.3-15.9
	c2.6,0.4,3.6,2.8,6.1,2.4c11.5-1.5,5.1-19.7,1.8-26.9c-5.6-12.3-11-28.5-15.9-41c-6.8,1.5-12.2-1.8-17.7,0
	c-6,14.4-17.6,24.8-27.5,36.7c-5.6,6.7-13.4,14.5-18.4,23.2c-1.9,3.4-1.3,6.2-3.7,8c-2,1.4-18.5,3.8-22.6,3.7
	c-5.9-0.2-13.5-4.7-14.7-7.3c-1.4-3.2,0.2-6.5,2.4-10.4c6.3-4.4,13-2.6,18.4-4.9c4.9-2.2,6.2-6.9,11.6-9.8
	c6-12.2,11.1-25.2,17.1-37.3c-9.8-11.2-27.1-5.8-37.9,0.6c-1.4,2.5-1.3,6.4-1.2,10.4c-4.9,9.5-20.2,8.5-24.5-0.6
	c0.3-3,2.6-3.9,3.7-6.1c-8.5,3.4-18-0.5-23.9-6.1c-2.4-10.1,4.6-20,8-30c1.4-4.2,1.2-9.7,3.1-12.8c4.6-8,22.6-23.9,32.4-26.9
	c10-3.1,26.8-1.4,39.2-3.7c3.8-0.7,7.3-3.8,11-2.4c1.9-0.8,0.1-1.8,1.8-3.1c15.4-3.1,28.1-13.1,44.7-17.1c4.2-1,10.2-1.6,15.3-2.4
	c10.3-1.7,18.1,3.4,30,3.7C209.5,16.6,225,2,246.4,0.8c7.7-0.4,19.6-1.2,26.9-0.6c1.7,0.1,3.5,1.6,5.5,1.8c4.7,0.6,8.2,0.5,13.5,1.8
	c5.3,1.4,8.1,3.8,14.1,6.1c7.3,2.8,14.9,3.7,22,6.7c3.4,1.4,5.4,2.7,9.2,3.7c3.2,0.8,7.1,3.4,10.4,5.5c3.6,2.3,7.2,3.2,10.4,4.9
	c2.6,1.3,4.2,4,6.7,5.5c4.4,2.6,10,3.1,14.7,5.5c1.6,0.8,2.6,2.9,4.3,3.7c2.4,1.1,5.7,1.2,8.6,2.4c2.1,0.9,4.1,3.1,6.1,3.7
	c6,1.9,11.2,3.1,16.5,6.7c3.1,2.1,6.3,6,9.8,8.6c8.7,6.5,15,11.9,20.8,21.4c3.2,5.3,5,11.2,8.6,15.9c4.3,17.1-1,27.6-8.6,41
	c-1.7,11.1-1.3,30.9-9.2,35.5C429.1,185.2,392.9,186.1,404.9,170.3L404.9,170.3z M246.4,189.9c-0.7-2.2-2-3.9,1.2-4.3
	c-0.5,2.5-0.1,2.1,0,4.9c6.7,4.3,13.9,0.7,20.2,1.2c6.7,0.6,11.2-7.9,17.7-8c3.6-6,12.5-6.7,17.1-11.6c0.8-6.1-2.9-10.7-3.1-17.7
	c3.4-1.3,3.9-8.7,3.7-11.6c-0.6,1.1-1.9,1.4-3.7,1.2c-0.7-3.3-0.7-5.9,1.8-8c2.6,0,2.3,3,4.9,3.1c0.1-2.2,1.8-2.7,1.8-4.9
	c-4.1,0.6-3.4-3.5-4.9-5.5c2.2-4,11-1.3,9.8-8.6c1.4,0.2,2.4-0.1,3.1-0.6c-1.3-6.2,6.3-8.2,9.8-11.6c-0.9-0.8-1.2-2.1-1.2-3.7
	c2-2.3,4.6-1.7,7.3-0.6c0-2.6,0.9-4.8,4.3-5.5v-6.7c2.3-0.1,2.6-2.3,4.9-2.4c1,0.5-0.1,3,1.8,2.4c0.1-3.3,2-4.9,3.1-7.3
	c-6.3-7.2,6.9-7.8,6.1-15.3c-2.1-1.6-3.5-1.9-4.3-3.7c0.6-2.5,3-3.1,5.5-3.7c1.5,3,4.5,8.1,8,5.5c1.2-3.9-4.7-5.8-6.1-9.2
	c0.7-1.6,2-5.1,4.9-6.1c6.6,3.8,5.5,15.3,15.3,15.9c0.9-4.8-8.7-10.3-4.9-15.9c4.5,0.2,4.1,5.3,6.7,7.3c3.6,0.5,3.7-2.5,6.1-3.1
	c0.4,4-2.4,8.6-3.7,12.8c2.5,0.7,6.7,1.1,8.6,0.6c1.7-3-1.5-7.2,1.2-9.2c7.9-0.4,7.1,7.6,4.3,12.2c1.4,0.6,3,1.1,4.9,1.2
	c-1.4-3.5,2.2-3.9,1.2-8.6c1.7,0.5,1.6-0.9,3.1-0.6c2.5,3.4,4.8,7,7.3,10.4c0.3,3.1-2.7,3-2.4,6.1c1.8,0.6,3.6,1.2,5.5,1.8
	c1.7-1.9,2.4-4.8,1.2-8c1.7,0.5,1.6-0.9,3.1-0.6c4.2,3.4,8.2,10,2.4,14.1c6.6,3.4,9.2,10.8,17.1,12.8c0.6-0.8,1.6-1.2,2.4-1.8
	c1,1.8,0.9,4.8,3.7,4.9c4.3,0.4,3.4-4.4,6.1-5.5c-1-3.2-2.8-5.8-4.9-8c-2.2,6.5-15.6,4.9-14.1-4.3c6.7-1.1,9.6-9.1,0.6-9.8
	c-1.2,1.6-1.6,4.1-4.9,3.7c-0.4-4.5,2.6-5.6,3.1-9.2c-1.5-0.3-1.3-2.4-3.7-1.8c0.3,2.3-0.3,3.8-1.8,4.3h-3.7c-2-5.1-8.1-6.2-8-13.5
	c-1.3-0.9-2.7-1.8-4.3-2.4c-0.3,3,2.8,2.5,1.8,6.1c-0.6,0-0.7,0.5-1.2,0.6c-5.8-1.7-6.3-8.8-11-11.6c-2.2,0.9-1.4,4.7-4.3,4.9
	c-1.2-1.6-3.2-2.5-5.5-3.1c0.3-2.9-0.3-5-1.2-6.7c-3,0.7-2,5.3-5.5,5.5c-0.1-0.7-1-0.7-1.8-0.6c-0.4-1.9,1.1-1.8,0.6-3.7
	c-5,0.3-8-1.4-7.3-6.7c-5.9-1-9.1,5.5-15.9,5.5c-2.3-1.1-1.9-4.2-1.2-6.7c-1.5-1.2-4-1.3-4.3-3.7c0.8-1.6,2.6-2.3,3.1-4.3
	c-2.6-0.4-3.3-2.8-6.1-3.1c-2.2-0.4-2.3,1.3-4.3,1.2c-6.2-4.2-17.6-1.3-21.4-6.7c1.2-1.5,2.1-3.2,2.4-5.5c-1.7-1.1-2.7-3-6.1-2.4
	c-1.7,2.6-5.7,6.1-10.4,3.7c-1.6-2.3,1.9-6.6,0.6-8.6c-5.2-0.7-1.7,7.2-4.3,9.2c-7.2-3.3-4.7-12.7-14.1-14.1
	c-1.9,2.4-1.4,7.2-5.5,7.3c-0.9-0.5-1.9-0.9-1.8-2.4c-0.2-2.3,2.5-1.6,1.8-4.3c0.3-1.5-1.1-1.3-0.6-3.1c-9.9-3.4-11.5,4.7-16.5,9.2
	c-1.5-1.7,1-3.1,0.6-5.5c-5.2-6.6-10.9-2.2-19-1.2c0.1-3.4-2.5-4-6.1-3.7c2.9,3.4,1.2,10.3-1.2,13.5c-6.5-0.4-10.4-3.4-11.6-9.2
	c-4.3,0.3-8.2,3.2-6.7,7.3c-3.7,1.4-6.6-0.4-9.2-1.8c-2,0.2-4,0.5-4.3,2.4c3.7,0.3,5.8,2.3,7.3,4.9c-0.2,3.3-6,4.8-8.6,4.3
	c-5-1.1-5.5-13.1-11.6-6.1c2.1,1.1,3.5,3.1,4.9,4.9c-1.4,10.7-15.4,2.3-15.9-4.3c-2.4,0.5-4.5-0.9-5.5,0c3,4.8,20,23.6,4.3,25.1
	c0.2-4-3.9-3.8-4.9-6.7c-0.6-2.4,1.8-1.8,1.2-4.3c-2.6-1.3-5.5-2.2-5.5-6.1c-1.6-0.7-3-1.5-5.5-1.2c3.1,7.8-4.9,12.4-8.6,7.3
	c1.8-8-4.8-9.3-11.6-9.2c-1.9-2.2-1.2-6.9-5.5-6.7c-0.9,0.8,2.6,6.2-0.6,7.3c-4.7,0.2-4.6-4.3-7.3-6.1c-1.4,1.5-4.4,1.3-4.9,3.7
	c3.3,0.9,6.6,2,6.7,6.1c-0.3,0.9-1,1.5-1.8,1.8c-2.4-1.9-4.1,0.3-7.3-0.6c-4.7-1.3-7.3-7.3-11.6-2.4c1.3,2.8,4.8,3.4,4.9,7.3
	c-5.1,1.5-15.7-4.8-19-1.2c1.6,2.5,8.5-0.4,8,4.3c-0.3,0.9-1,1.5-1.8,1.8c-8.1,2.8-13.2-2.5-20.2-1.8c-5.1,0.5-8,6.6-12.8,6.1
	c-2.1-0.2-3.5-2.7-5.5-2.4c-0.5,2.5,2.9,1.1,2.4,3.7c-3.4,0.2-4.7-1.8-7.3-2.4c-0.1,1.7,0.5,4.2-1.2,4.3c-3.8,0.1-4.6-2.7-6.1-4.9
	c-6-1.4-7.1,5.7-11.6,6.7c-2.6,0.6-6.9-0.2-9.8-2.4c-6.6,4.4-6.9,15.1-13.5,19.6c1.8,3.9,8.7-0.2,11.6,1.2c0.4,1.9,2.2,5.5,0.6,7.3
	c-4.9-7.3-21.3-3.8-22.6,4.9c3.1,2.6,12.1-0.7,12.8,4.3c-2-0.3-3.3-1.2-5.5-1.2c-1.7,2.2-1.1,6.6-5.5,6.1c0.9,4.5,6.7,0.4,7.3,3.1
	c-3.1,0-2.6,3.5-6.7,2.4c-0.6,2.8,1.5,3,1.2,5.5c2.9,0.1,5.4,0.8,6.1,3.1c-3.5-0.2-7.2-0.1-9.2-1.8c-2.1-7.3-0.6-11.7-1.2-19
	c-7,4.9-11.4,19.1-9.8,26.9c2.8,1.3,3.1-1.7,4.9,0.6c-0.5,1.3-1.6,2.1-1.2,4.3c7.6,7.9,17.9,2.2,22.6-4.3c1.9,0.3,2.6,1.3,5.5,0.6
	c2.8,3,2.3,10.1-2.4,10.4c-14-4.5-7.2,12.4,3.7,8.6c0.3-2.6,3.1-2.4,5.5-3.7c-1.4-16,11.9-18.7,21.4-22c0.8-1,0.5-3.2,1.8-3.7h3.1
	c-0.2,2.3,0.5,3.6,2.4,3.7c2.7,0.1,2-3.3,4.9-3.1c1.9,0,3.1,0.6,3.7,1.8c1,2.9-2,3.5-0.6,4.9c2.2,0.2,2.9,0.9,4.9,0
	c0.4,3.5,4.7,3,6.7,4.9c0-3.7-7.5-7.9-1.2-10.4c2.4,0.8,6.3,6.3,7.3,1.2c-4.7-0.3-5-6.1-3.1-9.8c2.5-0.6,5-1.2,5.5-3.7
	c-1.4-2-7.1-6.9-2.4-9.2c3,3.1,5.6,7.9,4.3,13.5c6,5.8-1.1,12-3.1,17.1c6.5,2.8,10.4-0.6,14.1-4.9c2.1,0.2,2.6,1.9,4.3,2.4
	c2-1.7,1.5-5.8,5.5-5.5c0.4,2.9,2.6,3.9,4.9,4.9c2.5-0.8,2.9-3.7,5.5-4.3c1,1.2,1.1,3.4,1.8,4.9c2.6-0.6,4.1,1.3,5.5,0
	c-0.1-2.2-3-4.7-1.2-6.7c2.2,3.7,4.6,7.3,5.5,12.2c2.9,0.6,5.2-0.4,6.1,1.2c-1,2-3.4,2.7-4.3,4.9c2.6,8.8,5.2,17.7,11,23.3
	c-1.6,2.6-1.4,6,1.2,7.3c0.9-1.6,1.4-3.5,3.7-3.7c1.4,1.1,2.2,2.7,1.8,5.5c-0.9,1.2-3,1.1-4.3,1.8c0.6,2.5,1.6,4.5,3.1,6.1
	c2.2-1.1,1.8,0.1,3.7,0.6c0.2-1.1-0.9-1.6,0-1.8c2.2,1.3,1.5,2.6,1.2,5.5c-2.3-0.1-1.7-0.7-3.7,0v5.5c2.3-0.1,2.7,1.8,3.1,3.7
	c-1.9,0.3-1.4-1.9-3.7-1.2c0.9,5.6-3.7,5.7-6.1,8c-0.2,1.9,2,2.4,0.6,3.7c-2.2-0.5-2.6-2.7-4.3-3.7c-8-2.2-18.2,1-15.3,7.3
	c-1.4,0.8-3.4,1.1-3.1,3.7c0.7,0.1,1,0.7,1.2,1.2c3.6,0.4,3-3.6,4.9-4.9c0.5,2.3-0.7,2.9-0.6,4.9c5.7,8.5,19,4.7,28.8,4.9
	c1.3-5.5,8.5-8.1,9.8-14.1c1.1-5.2-3.2-11.2,1.2-15.9c-0.5-4.1-1.9-5.7,0.6-8.6c-2.5-1.3-1.6-4.5-1.2-7.3c1.1-0.1,3.1,0.6,2.4-1.2
	c0.5-1.9-4.7-3.5-3.7-8c1-2.1,3.4,0.7,4.3-1.8c-3.3-1.4-10-6.7-4.3-9.8c1,0.8,2,1.6,4.3,1.2c-0.6-2.9-3.7-3.3-4.3-6.1
	c1.2-2.5,4-3.3,4.9-6.1c-1.7-0.9-2.5,0.2-4.9-0.6c-1.5-2.4-3.2-4.5-3.1-8.6c1.2,0,0.8-1.7,2.4-1.2c2.6,0,0.7,4.6,3.7,4.3
	c1.3-3.4,6.1-0.3,10.4-1.2c-1.8-4.8,2.1-7.2,3.7-10.4c1.5,0.9,4,0.9,4.3,3.1c-0.1,2.4-2.1,2.8-1.8,5.5c3.4,0.3,5.3-0.8,7.3-1.8
	c0.8-1.8,0.1-5.2,1.2-6.7c3.1-0.7,1.9,3,3.1,4.3c5.1-0.4,7.4-3.6,11.6-4.9c2.2-4.9,1.1-11.2,0.6-14.7c3.6,1.7,4.9,5.7,6.1,9.8h3.7
	c0.3-5.2,0.3-11.6-1.2-15.3c4.2,2.9,6.2,8,7.3,14.1c1.8,0.7,3.8,1.1,6.1,1.2c0.6-3.5,2.7-5.4,3.7-8.6c1.9-0.4,1.8,1.1,3.7,0.6
	c1.9-1.1,0.7-5.4,3.7-5.5c1.3,5.4-3.5,9.5-3.1,14.1c1.5,1.4,6,3,8.6,1.2c0.1-2.2,1-8.7,4.9-9.2c1.7,4.8-2.1,11.6,3.7,12.2
	c-0.6-4.4-0.4-9.7,4.3-10.4c0.9,2.2,4.7,1.4,4.9,4.3c-1.9,4-3.5,10.9-8.6,9.8c0.3,3.2,0.6,6.4,1.2,9.2c11.9,1.1,0.3,8.8,1.2,13.5
	c0.9,4.2,6.7,1.4,6.7,7.3c-0.2,2.6-4.6,1.1-4.9,3.7c-0.7,3.3,3.3,2,3.1,4.9c-1.6,2.5-2.6,7.3,0.6,9.2c1.2-3.2,6.5-2.7,9.2-3.1
	c0,3.1-2.7,3.4-3.7,5.5c-2.1,0.9-3.9-1.7-4.9,0c8.7,6.2,0.5,13.8-4.3,18.4c-1.2,0.1-1.4-0.7-2.4-0.6c-5.1,5.8-14.5,2.7-22.6,1.8
	c-1.6,2.1-4.9,2.4-5.5,5.5C246.8,178.5,237.9,190.7,246.4,189.9L246.4,189.9z M43.3,46.7c2.6,0.1,3.6-1.3,4.3-3.1
	C44.7,43.1,42.1,45.1,43.3,46.7z M417.2,142.8c2.8,1,3.8,3.9,5.5,6.1c5.2-4.8,13.1-12.8,11.6-20.2c-1.7,0.5-4.4-2.3-6.7-1.8
	c-0.3,0.9,0.7,3.2-0.6,3.1v-2.4C421.5,130.4,418.2,135.5,417.2,142.8L417.2,142.8z M416.5,128.1c2.5-1.4,8.1,2.4,9.2-3.1
	c-2.8-1.4-5.1-3.4-8.6-4.3c-0.2,3.5-4,1.2-6.1,3.7c-2.6-2.2-3.2-5.2-1.8-8.6c-1.8,0.1-2.9-3.5-4.3-1.8c1.3,0.6-0.5,3.1-1.8,3.1
	c-2.5-0.7-0.7-3.8,0-4.9c-3.5-3-6.7-6.4-11-8.6c-1.8,5.5-11.9,8.8-15.9,8c2.6-2.3,3.9-5.9,6.1-8.6c4.6,0.6,4.5-3.6,8-4.3
	c-0.4-3.6-3.1-5-3.7-8.6c-3,0-5.8-0.3-6.1-3.1c-0.6-2.4,1.8-1.8,1.2-4.3c-1.1-3.2-6.7-1.9-8-4.9c1.8-2.5,3.2-5.3,5.5-7.3
	c-4.9-1-12.5-2.8-17.7-1.2c-9.5,2.8-11.8,14.3-17.7,23.2c-3.6,5.4-8.5,7.8-11,12.2c1.3,0.7,6.8,1.2,3.7-0.6c6.3,1.9,10.4-4,13.5-1.2
	c-0.7,3.2-2.9,4.9-3.7,8c1.4,1.6,2.4,3.7,4.9,4.3c3.8-2.6,9.8,0.8,13.5-1.8c0.2-2.3-2.9-1.1-3.1-3.1c1.1-2.5,3.8-3.5,8-3.1
	c2.3-0.6,4-5,6.7-3.1c-2.5,3.5-7.5,6.7-6.7,11.6c-4.7,2.2-13.7-2.3-15.3,3.7c3.2,0.3,6.1,5.5,13.5,3.7c1.8-0.3,4.2-4.1,5.5-1.2
	c-0.6,2.7-2.8,3.8-5.5,4.3c-0.1,4.8,4.1,5.2,8,6.1c3-3.4,11.1-10.5,16.5-5.5c-2.1,1.4-5.3,1.6-4.3,6.1c2.8,1.5,5.2,3.3,9.2,3.7
	c3.1-2.2,2.6-7.7,1.8-12.2c1.6-1.2,3.9-2.5,5.5-0.6c-1.4,6,1.6,9.7-1.2,14.1c3.7,3,7.1,0.5,11,1.8
	C415.9,134.7,412.4,130.4,416.5,128.1L416.5,128.1z M390.2,92c5.5,7,7.3,12.3,14.7,17.1c2.7,1.8,7.6,2.9,9.8,4.9
	c0.9,0.8,0.4,2.5,1.2,3.1c2.2,1.4,5.8,1.2,8,2.4c0.9,0.5,1.7,2.5,2.4,3.1c3,1.9,6,2.4,8.6,3.7c4.9-21.4-12.4-38.7-28.8-44.1
	c-4-6.8-12.9-8.7-22-10.4C388.3,77.7,388.9,84.1,390.2,92L390.2,92z M88.6,113.4c-3.4,5.5-7,11-9.2,17.7c0.5,1.4,2.3,1.3,2.4,3.1
	c-0.2,1.9-3.5,2.5-4.9,1.2c-3.6,5.2-5.8,11.8-8.6,17.7c0.9,1.2,4.3,4.1,1.2,5.5c-4.6-6.1-7.1,1.5-12.2,3.1c-0.4,1.9,1.1,1.8,0.6,3.7
	c-2.7-0.4-3.5-2.6-6.7-2.4c-0.7,2,1.9,3.8,0,4.9c-1.6-0.9-3-2.1-1.8-4.3c-7.8-0.5-15.2,6.5-11,12.2c3.5-0.4,4.3-6.7,6.7-6.1
	c-4.9,4.6-2.9,12.4,6.1,11c7.2-3.3,14.6-1.7,20.2-4.3c4.6-9.1,9.8-17.5,15.9-25.1c0.1-1.7-1.8-1.4-1.8-3.1c1.4-1.2,2.5-2.8,4.9-3.1
	c1.3,1.3-0.1,2-0.6,3.1c3.5-1.1,6.6-4.5,4.3-8c1.6-2.5,5.8-3.4,8-3.7c-0.3-3.8-0.6-7.9,2.4-9.8c1.9-0.1,1.7,1.9,4.3,1.2
	c0.9-1.2,1.6-2.5,1.8-4.3c-1.6-0.5-2.6-1.5-3.1-3.1c0.1-2.2,0.3-4.2,1.8-4.9c1.5,1.5,3,3.1,5.5,3.7c0.6-2.7,2.6-3.5,1.2-6.7
	c-6.1,2-8.5-0.3-13.5,0.6c0.1,1.5,0.1,3-1.2,3.1c-1.5-1.3,0.5-2.7-0.6-3.7C96.1,110.2,94.7,114.4,88.6,113.4L88.6,113.4z
	 M439.2,115.3c-0.8,1.2-0.6,3.5-1.2,4.9c4.7,0.1,10.5,5.3,4.9,8.6c-2.9,0.2-3.6-1.2-5.5-0.6c-0.6,4.3-0.2,5.4,2.4,7.3
	c10.4,0.2,15.6-9.9,13.5-18.4c-1,2.3-3.4,2.7-6.1,1.8c-1.6-2.1,0-3.6-1.8-4.9C443.1,115.4,441,114.5,439.2,115.3L439.2,115.3z
	 M417.8,153.8c2.4,2.6,0.2,6,3.1,9.8c5.6-2.2,11.3-4.2,13.5-9.8c2.3-0.1,6.3-1.8,4.9-3.7c-0.1,1.6-2,1.2-3.7,1.2
	c-1.4-1.2-3.5-1.8-3.1-4.9C425.5,144.6,423.1,152.1,417.8,153.8L417.8,153.8z M441.6,149.5c-7,12-20.6,16.2-34.3,20.2
	c1.2,2.9-2.6,4.3-1.8,8.6c7.5,3.3,15.5,5.2,22.6,0.6c14,3.9,11.2-19.3,15.3-29.4C442.9,149.5,442.2,149.5,441.6,149.5L441.6,149.5z
	 M338.8,156.3c0.1,3.4,0.8,6.1,4.3,6.1c0.2-2.7,1.3-5.5,0-8C340.8,154.2,340.2,155.6,338.8,156.3L338.8,156.3z M402.5,158.7
	c-0.7,1.1,0.7,3.8-1.8,4.3c-3.2-0.8-3.1,1.8-6.1,1.2c-5-5.4-15.8-1.6-23.3-3.1c0.6,3,3.5,3.9,2.4,8.6c2.2,0.2,3.5,0.8,6.1,0
	c-0.3-3.8,2.4-4.5,5.5-4.9c1,1,1.5,2.6,1.2,4.9c5.6,0.2,9.8-0.8,14.7-1.2c1.2-0.4-0.2-3.4,1.2-3.7c1.4-0.6,3-1.1,4.9-1.2
	c0.8,0.8,0.4,2.9,1.2,3.7c2.2,0.2,4-0.1,5.5-0.6v-4.3c-1.6-1.8-6.2-0.8-5.5-4.9C405.5,156.8,405.1,158.9,402.5,158.7L402.5,158.7z
	 M363.3,168.5c1.6,0,4.7,1.8,5.5,0.6c-2.4-1.1-4.1-2.9-3.7-6.7c-1.7,0.5-1.6-0.9-3.1-0.6C362.6,165.1,363.5,164.4,363.3,168.5
	L363.3,168.5z M351.1,167.9c1.3,0.2,3.4,0.7,4.9,0c-0.7-1.5-0.3-4.2-2.4-4.3C353.1,165.4,350.6,165.2,351.1,167.9L351.1,167.9z"/>
<path d="M240.3,32.7c-1.9-0.2-2.2,0.2-5.5-0.6c-0.7-5.4,3.4-6,5.5-8.6c2.5,0.8,2.1,5.2,0.6,6.7c0.7,2.6,4.2,2.3,6.1,3.7
	c0,1.6,0.2,3.5-0.6,4.3c-2.3-0.9-5.6,0.4-8.6,0.6C235.7,35.9,237.9,33.9,240.3,32.7L240.3,32.7z"/>
<path d="M296,43.1c-0.3-3.2-4-2.9-5.5-4.9c1.3-3.7,4.4-4.9,8-4.9c1,2.9,1.1,6.6,1.8,9.8C297.7,42.9,297.9,43.9,296,43.1L296,43.1z"
	/>
<path d="M296.6,44.3c0,6-8.8,3.9-7.3-1.8C291.6,40.2,295.1,42.2,296.6,44.3L296.6,44.3z"/>
<path d="M351.1,57.1c-6.1,0.8-5.9-4.7-7.3-8.6C346.7,36.7,357.9,50.5,351.1,57.1L351.1,57.1z"/>
<path d="M245.8,50.4c-1.7,2.5-4.5,1.5-8,1.2C235.7,47.1,245.6,44.4,245.8,50.4L245.8,50.4z"/>
<path d="M201.8,53.5h5.5c2.8,4.9,1.3,8.9-1.8,12.2C203.1,62.7,202.8,57.7,201.8,53.5L201.8,53.5z"/>
<path d="M258.7,51c-0.2,2.2-1.6,2.2-0.6,4.3c5.2,2.9,2.1,12.3-1.8,14.7c-1.5-5.5-0.9-9.4,0.6-14.7c-1.7-0.6-8-1.8-4.9-6.7
	C253.6,47.8,257.2,49.7,258.7,51L258.7,51z"/>
<path d="M274.6,60.2c2.3,1.4,1.6,4.1,5.5,4.9c-0.3,6-2.5,10.1-6.1,12.8c-0.4-4.8,3.7-7.3,2.4-11c-2.7,0.4-1.8,4.3-4.9,4.3
	C268.5,67.3,272.9,63.2,274.6,60.2z"/>
<path d="M168.7,58.4c7.2,2.3,12.6,14,7.3,21.4C170.9,74.6,173.3,64.7,168.7,58.4L168.7,58.4z"/>
<path d="M201.8,75.5c-5.5,0.7-6.3-9.3-1.8-9.8C202.7,66.6,203,72.6,201.8,75.5L201.8,75.5z"/>
<path d="M162,63.3c5.1,1.8,9.1,7.8,7.3,12.8c-3.7,0-4.8-2.5-6.7-4.3C164.3,67.5,160.5,66.6,162,63.3L162,63.3z"/>
<path d="M300.9,76.7c-4.2,1.3-11.1,5-10.4-3.1C293.7,71.8,300.2,72.5,300.9,76.7L300.9,76.7z"/>
<path d="M84.9,76.7c2.4,3.1,4.1,6.9,4.9,11.6c-1.9,0.8-3,2.3-4.3,3.7c-2.7,0.5-3.7-0.8-6.1-0.6c-1.2-3.7-3.3-9-2.4-12.8
	C79.3,77.6,81.1,76.1,84.9,76.7z"/>
<path d="M176.7,93.2c-0.5,3.5,0.9,5.2,0.6,8.6c-1.3,0.7-2.5,1.6-4.9,1.2C170,100.1,168.6,90.7,176.7,93.2L176.7,93.2z"/>
<path d="M168.1,109.1c0.6,4.7-1.2,7-4.3,8C159.2,114.9,161.9,105.4,168.1,109.1L168.1,109.1z"/>
<path d="M427.6,136.1c0.5,1.9-0.5,7.1-4.9,6.1C422,138.3,425.3,135,427.6,136.1L427.6,136.1z"/>
<g transform="translate(-97.285 -240.7)">
	<path d="M-61.7,448.6c-1.4-0.6-2.9-2.1-3.2-3.4c-0.5-2-1.2-2.3-4.4-1.7c-4.1,0.7-5.7-1-4.4-4.4c0.6-1.5,1-1.6,2.4-0.3
		c1.4,1.1,2.2,1.2,3.9,0.1c1.5-0.9,3-1,5-0.2c4.9,1.8,5.2,0.1,1.2-5.5c-2.1-2.9-4.2-6.8-4.7-8.6s-1.3-3.9-1.9-4.7
		c-0.6-0.7-0.9-5-0.8-9.5c0.2-6.2-0.2-9.1-1.8-12.1c-1.4-2.7-2.1-6.2-2.1-11.2c0-8.4,1.6-12.3,5.2-12.3c1.4,0,4.9-2,7.9-4.5
		c4.9-4.1,8.5-5.6,8.5-3.7c0,1-7.9,8.2-9,8.2c-0.5,0-1.1,4.9-1.3,10.8c-0.2,6.8-0.8,11-1.6,11.2c-0.9,0.3-1.1-1.7-0.7-6.7
		c0.3-3.9,0.1-8.1-0.5-9.1c-1-1.9-1.3-1.8-3.6,0.5c-2.1,2.1-2.4,3.4-2,7.5c0.7,5.9,4.6,10.9,7.4,9.4c1.3-0.7,2.3-0.1,4.1,2.6
		c1.3,1.9,2.7,4.8,3.2,6.3c2.5,8.7,5.1,19.9,5.1,22c0,1.9,1.1,2.6,5.2,3.7c5.9,1.5,6.7,1.2,4.9-2.1c-3.2-5.9-5.6-16.5-5.6-24.1
		c0-5.9-0.7-9.6-2.4-13.5c-2.2-5-2.3-6.1-1.1-13.6c1.5-9.5,3.5-13.9,7.5-16.7c1.6-1.1,3.9-2.9,5-4c3.2-2.9,4-2.4,4.6,3
		c0.4,3.3,1.7,6.4,4.2,9.5c3.2,3.9,3.6,5.2,3.1,9.1c-0.3,2.5-0.2,4.8,0.4,5.1c0.6,0.3,1-0.4,1-1.7c0-2.9,0.5-2.9,3.4-0.1
		c2.5,2.5,4.8,2.8,9.8,1.1c3-1,3.5-1.8,4.1-6.8c0.4-3.1,1.6-7,2.7-8.6c3.1-4.7,5-10.5,5.1-15.3c0.1-2.5,0.5-4.8,1.1-5.2
		c0.5-0.4,0.4-1.7-0.3-3s-1.2-3.6-1.2-5.1c0-3.7-2.1-8.2-4.3-9.2c-1-0.4-8.1-0.9-15.8-0.9c-13.6-0.1-14.2-0.2-20.1-3.7
		c-22.1-12.8-27.8-14.1-44.7-9.7c-10.3,2.6-12.8,2.9-20.7,2.1c-4.9-0.5-13.2-0.9-18.5-0.9c-8.1,0-10.4,0.5-15.3,3
		c-6.5,3.4-9.6,3.7-13.7,1.3c-1.5-0.9-4.9-1.6-7.5-1.6c-3.3,0-6.2-1-9.7-3.4c-2.8-1.9-6.8-4.1-9.1-5.1c-3.8-1.6-4.1-1.6-3.7,0.3
		c0.2,1.1,1.8,2.7,3.4,3.5s3.1,1.9,3.1,2.5c0,1.4-3.8,3.3-6.6,3.3c-5.5,0,0.4,6,7.9,7.9c4.2,1.1,6,1.1,10.1-0.2
		c4.3-1.4,5.3-1.4,7.9,0.1c2.7,1.5,3.2,1.5,5.2-0.3c3.5-3.1,4-0.3,0.8,4.7c-1.5,2.4-4.8,5.5-7.2,6.9l-4.4,2.5l-0.1,8.6
		c-0.1,11-3.3,18.8-10.3,24.6l-3.7,3.1l2,5.3c1.6,4.1,2,8,1.7,17.8c-0.3,15.3-0.3,15.3,1.5,15.3c2,0,6.3,4.7,6.3,6.8
		c0,2.2,2.2,4.3,4.6,4.3c1.3,0,1.7-0.6,1.3-2.2c-0.4-1.7,0.1-2.4,2.3-2.9c3.7-0.9,3.7-1.6-0.6-5.6c-4.6-4.3-7.6-11.1-7.7-16.9
		c0-5.8,2-15.6,4.1-19.6c1.7-3.4,5.7-4.4,4.3-1.1c-3.9,9.9-5.3,24.7-2.6,29.7c0.7,1.3,3,4.3,5.1,6.7c2.1,2.3,4.1,5.7,4.4,7.5
		c0.4,1.8,1,3.2,1.4,3c1.3-0.4,1.3,2,0.1,5c-1.4,3.3-5.3,4.6-8.5,2.8c-1.1-0.6-4.1-1.4-6.5-1.8c-4.1-0.6-4.5-0.9-5-4.5
		c-0.5-3.2-1.3-4.3-5-6c-2.5-1.2-4.8-2.7-5.3-3.4c-0.4-0.7-0.5-5.4-0.1-10.4c0.6-7.3,0.3-10.2-1.4-14.8c-1.7-4.8-2.5-5.7-4.9-5.8
		c-1.6,0-2.1-0.3-1.2-0.6c3.6-1.2,6.7-3,6.7-4c0-0.6-1-0.7-2.2-0.3c-2.3,0.7-6.8-1-6.8-2.7c0-0.5,1.4-1.2,3.2-1.6
		c4.7-0.9,14-8.8,16.4-13.8c2.5-5.2,3-20.6,0.8-21.4c-2-0.7-1.7-2.5,0.4-2.5c0.9,0,2.3-0.5,3.1-1.2s3-2.2,5-3.3c6.2-3.6,4.7-4.8-5-4
		c-5,0.4-10.4,0.2-12.8-0.4c-5-1.4-10.4-5.7-12.7-10.1c-2.7-5.1-2.2-5.9,3.1-5c3.8,0.6,4.5,0.5,3.4-0.6c-0.8-0.8-1.4-3.3-1.4-5.6
		c0-3.6,0.4-4.2,2.4-4.2c1.3,0,6.5,2.2,11.5,4.9c5,2.7,9.6,4.7,10.4,4.4c2-0.7,10.1,1.8,12,3.6c1.5,1.5,2.4,1.3,8.2-1.3
		c6.9-3.1,7.9-3.2,37.8-2.6c9.2,0.2,13.5-0.2,17.3-1.6c2.8-1,8.6-2.2,12.9-2.5c9.2-0.8,13.9,0.7,28.6,9c9.3,5.3,9.6,5.4,20.6,5.8
		c6.2,0.2,13.3,0.7,15.8,1c6.1,0.8,11.6,5.9,11.6,10.7c0,7.3,0.6,7.6,16.2,6.9c8.3-0.4,14-0.2,14,0.4c0,2.5-9.9,6.7-21.7,9.3
		C9.5,357.2,3.2,363,3.1,366c0,0.7-1.3,3.5-2.8,6.2c-1.9,3.2-2.8,6.6-2.8,10c0,2.8-0.6,5.7-1.4,6.3c-0.8,0.6-4.6,1.9-8.6,2.8
		c-5.5,1.3-7.7,1.4-9.5,0.4c-5.3-3-6.2-4.4-6.2-9.7c0-3.7-1-7.2-3.5-11.8c-1.9-3.6-3.6-6.8-3.8-7s-2.1,0.9-4.2,2.6
		c-3.4,2.6-4.1,3.9-5.2,10.7c-1.4,8.4-0.7,15.7,2,19.8c1.2,1.9,1.5,4.1,0.9,8.4c-1,8,1,16.8,5.7,24.8c5.8,9.9,5.9,12,1,14.7
		c-4.8,2.6-7.6,1.5-8.5-3.5c-0.4-2.5-1.3-3.3-4-3.9c-5-1-5.8-1.8-5.2-4.9c0.6-3.4-2.6-18.7-5.2-24.1c-1.2-2.5-2.6-3.9-4.1-3.9
		c-1.9,0-2.3,0.9-2.6,6.6c-0.2,3.6,0.1,7.9,0.7,9.5s1.4,4.3,1.8,6s2.6,5.2,5,7.8c3.1,3.4,4.4,6,4.9,9.4c0.3,2.6,0.3,4.9-0.1,5.2
		C-55,449.2-59.4,449.5-61.7,448.6L-61.7,448.6z M11.4,352.7c-0.3-0.5-1.6-1.2-2.8-1.6c-1.5-0.4-2-0.1-1.6,1
		c0.3,0.9,1.6,1.6,2.8,1.6S11.8,353.2,11.4,352.7z M-73.6,435.1c-0.3-0.8-1.1-3.6-1.7-6.3c-1.8-6.9-6.7-13.8-9.4-13.1
		c-2.7,0.6-6.2-1.2-6.2-3.2c0-0.8-0.8-1.8-1.7-2.2c-2.5-1-2-2.7,0.8-2.7c1.4,0,3.5-0.2,4.7-0.4c1.4-0.3,2.3,0.3,2.6,1.7
		c0.2,1.2,1.8,3.3,3.5,4.7c5.2,4.4,11.8,20.5,9,22.2C-72.6,436.2-73.3,435.9-73.6,435.1L-73.6,435.1z M-110.7,430.7
		c-7.3-1-8.2-1.6-8.2-5.5c0-2-0.8-3.7-2-4.3c-1.1-0.6-3.7-4.4-5.7-8.4c-2.1-4.3-5.7-9.2-8.6-11.7c-4.4-3.9-5.2-5.8-2.5-5.8
		c3.6,0,16.6,17.4,16.6,22.2c0,0.7,1.1,1.8,2.5,2.5c3.1,1.6,4.3,3.4,3.7,5.2c-0.3,0.8,0,1.4,0.6,1.4s1.1-0.7,1.1-1.6s0.9-2.1,2-2.7
		c1.8-1,1.7-1.4-0.9-4.2c-9.7-10.6-16.4-30.1-11.9-35c0.8-0.8-0.2-0.4-2.1,0.9c-1.9,1.3-4.8,2.9-6.4,3.5s-2.9,1.7-2.9,2.3
		c0,1.5-2.8,4.4-4.3,4.4c-0.6,0-0.5-2.1,0.4-5.1c2.2-7.3,1.2-9.1-3.1-5.5c-4.1,3.5-5.9,3.1-5.9-1.3c0-2.8-0.4-3.2-2.5-2.8
		c-3.1,0.6-3.3-1.5-0.4-3.1c3.6-1.9,6.8-1.4,6.8,1.1c0,2.8,1.7,2.9,3.6,0.1c1.3-1.8,6.2-4.5,8.2-4.5c1.1,0,0.4,5.8-0.9,7.9
		c-1.2,1.9-1.1,2.4,0.3,3.3c2.4,1.5,3.1,1.4,3.9-1c0.4-1.2,1.9-2.9,3.3-3.9c1.5-1,3-3.2,3.4-5.1c0.7-3.1,3.4-6.6,4.5-5.6
		c0.3,0.3,0.7,1.8,1,3.4c1,5.7,4,7.3,14.3,7.8c8.2,0.4,9.4,0.2,9.7-1.6c0.2-1.1-0.3-2-1.3-2c-1.5,0-3-2.2-3-4.6c0-2,5.1-0.4,6.9,2.2
		c1.7,2.5,1.9,5,1.1,13.7c-0.1,1-1.8,3.4-3.7,5.3c-3.7,3.6-3.6,3.9,1.9,3.5c2.4-0.2,3,0.1,2.2,1c-1.5,1.6-9.9,2.1-10,0.6
		c0-0.6-0.4-1.7-0.9-2.5c-0.6-0.9-0.3-1.4,0.8-1.4c1.9,0,5.1-5.5,5.1-8.7c0-3.1-8.9-4.1-16.1-2c-5.1,1.5-5.4,1.5-5.9-0.5
		c-1.5-5.8-6.5,2.5-5.5,9.4c0.8,5.6,6.4,16.8,11.4,22.6c2.1,2.5,4.2,5.5,4.6,6.7s1.6,3.5,2.7,5.1c1.9,2.7,1.9,2.9,0.1,4
		C-104.1,431-107.4,431.2-110.7,430.7L-110.7,430.7z M-94.3,402.9c0-0.6,0.6-1.1,1.3-1.1c0.7,0,2.2-0.8,3.4-1.9c2.8-2.5,4-1,1.5,1.8
		C-90.3,404.1-94.3,404.8-94.3,402.9L-94.3,402.9z M-100.4,371.3c-0.5-1.1-0.5-3.3,0-5c0.8-2.9,0.9-2.9,1.3-0.6c0.2,1.4,0.2,3.6,0,5
		C-99.5,372.9-99.6,373-100.4,371.3z M-104.8,368.4c-0.9-1.4,0.4-7.9,1.7-8.7c0.6-0.4,0.7,1.5,0.3,4.2
		C-103.7,369.4-103.9,369.9-104.8,368.4z M-23.2,365.3c-2.2-2.2-2.2-4.9,0-8.1l1.8-2.5l3.3,2.3c3.2,2.3,4,4.7,2.6,8.2
		C-16.5,367.6-21,367.6-23.2,365.3L-23.2,365.3z M-109.8,361.8c0.2-0.5,1.3-3.2,2.5-6.2c1.2-2.9,2.6-5.3,3.2-5.3s0.9,0.4,0.6,0.8
		c-0.2,0.5-1.5,3.2-2.8,6.2c-1.3,2.9-2.7,5.3-3.1,5.3S-110,362.2-109.8,361.8L-109.8,361.8z M-111.6,350c1.4-4.5,4.2-9.3,4.7-7.9
		s-3.7,10.4-4.8,10.4C-112.1,352.6-112,351.4-111.6,350L-111.6,350z M-35,350.6c-2.2-0.3-4.4-0.9-5-1.4s-3-1.2-5.3-1.6
		c-8.3-1.5-16.5-14.1-9.2-14.1c3.3,0,6.7,1.6,10.3,4.8c2.4,2.2,2.9,2.2,8.4,0.8c7.6-1.9,16-2.1,17.7-0.4c2.1,2.1,0.3,3-3.2,1.6
		c-2.4-1-4.5-0.9-9.1,0.3c-3.3,0.9-6.3,1.9-6.6,2.2c-1.1,1.1,7.3,4,11.4,4c4.2,0,5.2,1.4,2,2.9C-26.2,350.9-30.2,351.2-35,350.6
		L-35,350.6z"/>
</g>
</svg>
