<?xml version="1.0" encoding="utf-8"?>
<!-- Generator: Adobe Illustrator 22.1.0, SVG Export Plug-In . SVG Version: 6.00 Build 0)  -->
<svg version="1.1" id="Layer_1" xmlns="http://www.w3.org/2000/svg" xmlns:xlink="http://www.w3.org/1999/xlink" x="0px" y="0px"
	 viewBox="0 0 512 512" style="enable-background:new 0 0 512 512;" xml:space="preserve">
<path d="M312.6,420.6c-5.7-2.5-22.7-6.9-26.4-6.9c-4,0-4.2-1.9-0.4-2.9c7.6-1.9,21,1.8,28.4,7.7
	C318.4,421.8,317.6,422.8,312.6,420.6L312.6,420.6z M307.1,412c-2.7-1.4-11.4-4.8-19.2-7.6c-7.8-2.8-16.3-6.5-18.8-8.2
	c-9.3-6.5-27.5-13-32.7-11.7c-1.2,0.3-4.9,2.8-8.2,5.5s-7.4,5.6-9.1,6.5L216,398l6.9,2.5c8.1,2.9,18,7.8,21.2,10.5
	c2.2,1.8,2.2,1.8,0,1c-12.1-4.3-17.4-6-22.5-7.2c-11-2.7-34.6-1.4-57.1,2.9c-7.5,1.5-14.7,2.6-15.9,2.6c-2.4-0.1,11-5.6,20.1-8.3
	c3.2-0.9,9-3.9,12.8-6.5s10.7-6.3,15.4-8.3c7.7-3.2,12.6-6.7,12.6-8.9c0-0.5-2.1-0.1-4.6,0.8c-5.2,1.8-25.6,4.2-28,3.3
	c-1-0.4-1.4-1.5-1-2.8c0.7-2.9-0.1-2.8-5.1,0.7c-3.8,2.6-4.5,2.7-6.9,1.4c-2.4-1.3-3.9-1.1-12.8,2.1c-6.1,2.1-14,3.9-19.9,4.6
	c-5.4,0.6-12.8,1.4-16.5,1.8c-6.1,0.7-6.5,0.7-5.1-1c0.8-1,2.2-1.8,3-1.8c3.9,0,14.8-5.3,24.2-11.7c13-8.9,17.4-10.7,32-13.6
	c6.5-1.2,16.2-3.3,21.5-4.5c8.9-2.1,9.9-2.6,11.9-6c1.2-2.1,3.8-4.5,5.7-5.5c5-2.5,10.4-8,11.6-11.8c0.6-1.9,1.8-7.3,2.7-12
	c1.8-9.7,3.5-12.8,8.2-15.6c7.7-4.5,8.8-21.1,1.6-24.4c-1.5-0.7-4.9-1.3-7.4-1.3c-4.2,0-5.2-0.6-10.2-5.8
	c-6.9-7.1-9.2-10.7-12.4-18.5c-1.4-3.4-4.2-7.8-6.5-10c-4.9-4.6-14.6-10.8-16.9-10.8c-0.9,0-3.8,1.7-6.3,3.8
	c-5.6,4.6-16,9.8-24.8,12.1c-3.7,1-13.2,2-21.9,2.4c-12.8,0.5-17.5,0.2-27.8-1.7c-31.9-5.9-43.9-20.4-33.3-40.1
	c5.3-9.7,24.4-25,33.1-26.5c3.2-0.5,2.6,0-3.9,3.5c-9.3,5-23.7,18.9-26.9,25.8c-2.8,6.2-2.8,12.6,0,17.2c2.9,4.7,13.1,9.5,24.1,11.4
	c12.9,2.1,44.8,1.9,55.6-0.5c9-1.9,22.5-7.3,23.8-9.4c1.2-1.9-5.7-2.7-11.3-1.3c-4.6,1.1-6.9,0.9-16.1-1.1c-9.6-2.1-11.6-2.2-17.7-1
	c-6.2,1.2-7.4,1.2-12.1-0.8c-3.8-1.6-5.8-3.3-7.4-6.2c-2.9-5.4-1.5-6.3,3.2-2.2c6.8,6,19.4,5.9,29.2-0.3c5.4-3.4,5.8-2,0.6,2.5
	c-3.6,3.1-3.6,3.3-1.4,3.9c13.7,3.3,20.3,1,30.8-10.4c3.8-4.1,7.5-7.5,8.2-7.5c1.8,0,1.5,5.1-0.5,8.9c-0.9,1.8-1.5,3.5-1.3,3.8
	c1,1,13.2,6,14.6,6c1.4,0,1.5-1.7,1-10.7c-0.6-9.2-0.4-10.4,0.9-8.8c2.6,3.1,5.4,16.7,4.1,20c-1,2.7-1.6,2.8-8.5,2.9l-7.4,0.1
	l5.5,2.5c10,4.6,14.3,8.7,21.5,20.4c3.8,6.1,9.3,13.6,12.4,16.6l5.6,5.5l6.1-0.8c5.1-0.6,9.4-2,14.6-4.7c0.5-0.2,0.8,0.4,0.8,1.4
	s-1.7,2.8-3.8,4s-3.6,2.7-3.2,3.3c1.2,2,5.6,0.9,9.3-2.3c4.4-3.7,5.4-4,5.4-1.5c0,1-2,3.7-4.5,6.1c-4.5,4.3-5,5.3-8.1,16.4
	c-1.5,5.5-2.3,6.5-6.7,9.1c-7.1,4.1-8.3,6.5-7.9,15.5c0.4,11.2-3.4,20.3-10.4,25.4c-2.9,2.1-5.2,4.2-5.2,4.7s-3.1,3.1-6.9,5.8
	c-6.7,4.8-7.1,4.9-17.3,5.4c-15.1,0.8-27.5,4.4-43.5,12.5c-13.6,6.9-13.7,7-9,7c3.6,0,7.3-1.3,14.9-5.2l10.1-5.2l3.3,1.9
	c3.2,1.9,3.3,1.9,8.8-1.5c5.8-3.6,8.9-3.6,8.9,0c0,1.2,0.4,2.4,0.8,2.6c1.9,1,24.4-1.4,28.5-3.1c5.1-2,11.8-9.8,12.9-14.9
	c0.9-4,3.8-4.3,3.8-0.4c0,3.6-1.6,6.7-5.9,11.2c-1.9,2-5.4,6.9-7.8,10.8c-4.2,6.9-4.7,7.3-12.5,10.3c-4.5,1.7-8.6,3.6-9.1,4.1
	c-1.4,1.4,18,0.7,23-0.9c2.6-0.8,7.2-4.3,12.5-9.5l8.4-8.2l6.9,0.8c10.5,1.2,17.1,4,27.4,11.3c10.7,7.7,18.6,11.9,24.1,12.9
	c3.8,0.7,3.8,0.6-5-8.5c-4.9-5.1-10.7-11.3-13-14l-4.2-4.8l0.5-11.7c0.5-10.3,1-12.8,4.5-21.3c2.4-5.8,4-11.4,4-14.3
	c0-3.9,0.2-4.3,1.2-2.6c1.1,1.9,0.9,7-0.8,19.1c-2.5,17.2,5.3,24,40.2,35.4c8.8,2.9,16.2,5,16.5,4.7c0.9-1-7.2-7.3-13.3-10.4
	c-3.2-1.6-8.8-3.8-12.5-4.8c-9.1-2.6-19.4-7.3-21.8-10c-1.6-1.8-2.1-4.8-2.6-14.8c-0.9-18-0.3-20.4,8.5-35.5
	c5.3-9.1,7.5-13.8,7-15.3c-0.4-1.2-0.9-5.8-1.3-10.2c-0.7-8.9,0.2-10.9,9.7-21.5l4.8-5.3l10-0.9c5.5-0.5,11.1-1.5,12.3-2.1
	c1.3-0.7,4.2-4.1,6.6-7.5c5.2-7.6,5.4-7.8,14.1-12.2c3.8-1.9,6.9-3.7,6.9-4.1c0-1-8,0.8-13.2,3.1c-2.7,1.2-7.3,4.4-10.1,7.2
	c-4.6,4.5-5.3,4.8-6,3c-0.8-2.1,1.3-8.9,6.3-20c2.6-5.8,2.3-8.7-0.5-5.7c-0.8,0.9-3.1,5.4-5,10.1c-1.9,4.7-4.6,10.1-5.9,12.1
	c-2.2,3.3-3.1,3.7-9.5,4.3c-3.9,0.4-9.3,1.5-11.9,2.5s-7.5,1.8-10.8,1.8c-5.7,0-6-0.1-5.3-2.5c1.9-6.5,3.9-17.1,3.8-20.6
	c0-4.3-6.1-13.7-16.2-25.2c-3.2-3.7-5.2-6.7-4.5-6.7c0.8,0,2.2,0.7,3.1,1.5c2.9,2.5,16.7,9.1,23.1,11c3.3,1,11.1,2.3,17.3,2.9
	c14,1.3,25.8,0,35.9-4l7.4-3l-4.3-3.3c-5.6-4.3-14.9-14-14.2-14.7c0.3-0.3,3.5,1.8,7.1,4.6c13.6,10.7,25.8,13.4,39.9,9
	c3.5-1.1,6.6-1.7,6.9-1.4c1.4,1.4-3.3,7.5-7.8,10.2c-4.3,2.5-5.7,2.8-10.6,2.2c-3.1-0.4-7.5-1.7-9.9-3c-3.9-2-4.5-2-6.2-0.6
	c-1,0.9-4,2.9-6.6,4.3l-4.8,2.7l3.8,2.9c6.5,4.9,16.9,8.4,27.1,9.1l9.3,0.6l-4.1-4.6c-5.9-6.5-5.5-9.6,0.4-3.9
	c2.2,2.1,4.5,3,8.5,3.4c7.4,0.7,10.4-0.2,15.5-4.8l4.3-3.9l3.3,2.7c6.6,5.6,16.7,4.8,23.9-1.7c4-3.7,2.8-0.1-1.4,4.1
	c-6.6,6.6-20.6,8.2-24.9,2.8l-1.9-2.4l-2.9,3.4c-3.8,4.5-6.4,5.8-13.6,6.8c-15.5,2.1-19.9,3.2-29.2,6.9c-11.7,4.7-22.1,10.9-20.3,12
	c2.4,1.5,20.6,2,30.3,0.8c10.7-1.3,22.5-4.1,24-5.6c0.6-0.6-0.7-1.6-2.9-2.6c-5.5-2.3-6.6-4.5-1.8-3.7c10.5,1.9,24.3,2.9,30.6,2.3
	c14.7-1.4,31.5-8.9,40.7-18.1c5-5,9.8-14.7,9.8-20c0-12.7-11.5-21.5-42.7-32.6c-9.2-3.3-40.3-11-44.3-11c-0.4,0-0.8-0.5-0.8-1.1
	c0-1.5,14.3-0.4,31.3,2.4c24.2,4,47,13.4,56.5,23.5c6.8,7.2,8.8,11.7,8.8,19.4c0,24.7-35.7,48.4-67.6,44.8
	c-6.7-0.8-8.2-0.6-12.5,1.6c-17.3,8.7-35.9,11.3-54.1,7.7l-9.6-1.9l-2.2,2.8c-2.5,3.2-11.2,6.7-19.2,7.8c-6.9,0.9-6.6,0.8-13.6,9.2
	l-5.7,6.9l1.7,7.7c2.9,12.7,2.5,15.1-3.9,25.3c-10.2,16.2-11.3,19.6-11.3,32.2c0,8,0.5,11.6,1.6,13c2.4,2.9,10.7,6.7,26.3,12.1
	c15.3,5.2,19.5,7.7,30.8,17.7c8.1,7.2,9.1,8.7,5.4,7.9c-13.5-3-49.7-12.8-58-15.8c-5.7-2.1-12.4-3.7-14.8-3.7h-4.4l8.2,7.9
	c4.5,4.4,9.9,10.1,11.9,12.9c2,2.7,6.7,7.7,10.3,11.1c4.7,4.4,6.4,6.7,5.9,8C314.6,415.3,313.1,415.1,307.1,412L307.1,412z
	 M313.4,239.6c1.4-0.4,2.5-1,2.5-1.5c0-0.9-8.8-7-9.3-6.4c-0.2,0.2-0.6,2.2-0.9,4.5c-0.6,3.9-0.5,4.1,2.3,4.1
	C309.6,240.2,312.1,239.9,313.4,239.6L313.4,239.6z M330.6,228.5c1.7-2.9,4.1-6.7,5.2-8.5l2-3.3h-29.5v3.4c0,3,0.9,3.9,8.5,8.5
	c4.7,2.8,9,5.1,9.6,5.2C326.9,233.7,328.9,231.3,330.6,228.5L330.6,228.5z M346.6,230.2c0-0.4,1.4-1,3-1.3c1.7-0.3,5-1.4,7.4-2.4
	c3.9-1.7,4.1-1.9,2.2-3c-1.2-0.6-4-2.6-6.3-4.4c-2.3-1.8-4.3-3.1-4.5-2.8c-1.6,1.9-6.1,14-6.1,16.6c0,0.5,1,0.2,2.2-0.5
	C345.6,231.6,346.6,230.6,346.6,230.2L346.6,230.2z M419,408c-4.9-2.1-15.8-4.1-22.1-4.1c-4.2,0-6.6-0.6-7.6-1.8
	c-1-1.3-2.5-1.5-5.1-1c-6.5,1.2-18.1-3.9-15.2-6.8c0.4-0.4,3.3,0.1,6.6,1c5.5,1.6,6.2,1.5,10.2-0.3l4.3-2l2.7,3.1
	c2.2,2.6,3.9,3.3,9.3,3.8c6.7,0.7,13.1,3.3,18.1,7.2C423.2,409.5,423,409.7,419,408L419,408z M75.5,400.7c0-0.6,1.3-1.4,2.9-1.8
	s6.3-2.3,10.3-4.3c7.2-3.5,7.5-3.5,9.9-1.5c3.2,2.6,2.1,3.5-7.2,5.5C79.8,401.3,75.5,401.8,75.5,400.7L75.5,400.7z M267.6,382.1
	c-5.1-6.2-10.3-25.5-6.8-25.5c1,0,1.6,1.4,5.6,13.2c1.3,3.9,3.7,9.2,5.2,11.8C275.2,387.7,272.5,388,267.6,382.1L267.6,382.1z
	 M225.3,346.4c0.8-2,2.1-6.5,2.9-10.2c0.8-3.6,1.8-7.2,2.4-7.8c1.6-2.1,2.5-12.9,1.1-12c-0.7,0.4-1.3,1.8-1.3,3c0,1.3-0.6,2-1.4,1.7
	c-1.9-0.7-1.2-5.3,1.2-7.7c4.8-4.8,8.3,2.1,5.2,10.2c-1.1,2.7-2.9,8.4-4.1,12.5c-2.4,8.5-4.9,13.9-6.4,13.9
	C224.3,350,224.5,348.4,225.3,346.4L225.3,346.4z M277.5,315.5c-2.6-3.1-2.5-8.7,0.1-13.8c3.7-7.1,5.4-6.8,2.9,0.6
	c-1.4,4.3-1.9,7.6-1.4,10.5C279.9,317.4,279.6,318,277.5,315.5L277.5,315.5z M284.3,309.2c-1.8-1.8-1.7-3.2,0.9-9.3
	c2.6-6,7.2-11.3,9.8-11.3c2.5,0,4.4,2.2,4.4,5.2c0,3.2-1.7,3.3-2.5,0.2c-0.3-1.3-1.3-2.1-2-1.8c-1.8,0.6-6.3,8.4-6.4,11
	c0,3.3,1.8,2.1,3.8-2.5c2.2-4.8,3.8-5.7,3.8-2.1c0,2.8-1.7,6.2-4.7,9.5C288.9,310.8,286.3,311.2,284.3,309.2L284.3,309.2z
	 M281.9,278c0-1.3,1-3.6,2.2-5.1c2.6-3.2,2.9-11.2,0.9-19.1c-1.1-4.2-0.9-6.3,0.7-12.8c3.4-13.6,5.1-11.3,2.7,3.6
	c-0.9,5.6-0.8,8,0.5,12.1c3.7,11.5,3.6,12.7-2,18.5C282.7,279.5,281.9,279.9,281.9,278L281.9,278z M160.6,261.6
	c-3.5-1.8-4.9-3.5-4.9-5.8c0-1,0.9-0.7,2.9,0.8c4.2,3.3,9.2,2.8,18.1-1.6c4.3-2.1,8.2-3.8,8.7-3.6c2.4,0.8-2.2,6.1-7.7,8.8
	C171,263.7,165.4,264.1,160.6,261.6L160.6,261.6z M221.8,255.5c-8-4-18.1-17.6-22.5-30.4c-2.4-7.1-4-21.8-2.2-20.7
	c0.6,0.4,1.4,2.4,1.7,4.4c0.8,5,6.9,20,9.7,23.9c2,2.8,2.9,3.2,8.3,3.2c7.4,0,11.8-2.1,17.1-8l4-4.6l3.4,3.3
	c8.1,7.8,11.8,17,8.8,22.5c-1.8,3.4-7.4,6.8-9.9,6c-2.9-0.9-2.8-2,1.1-7.3c1.8-2.5,3.3-5.8,3.3-7.3c0-3-2.3-10.1-3.2-10.1
	c-0.3,0-1.3,1.5-2.1,3.3s-3.2,4.7-5.4,6.3c-3.2,2.5-5,3-10.3,3c-3.5,0-6.4,0.2-6.4,0.3c0,1.1,7.7,6.6,12.4,9c3,1.5,5.7,3.4,6,4.1
	C236.2,258.7,226.9,258.1,221.8,255.5L221.8,255.5z M247.3,223.1c-5.3-4-5.4-4.1-16.4-4.2c-9.6-0.1-11.9-0.5-17.4-3.1
	c-7.5-3.5-7.5-5.9,0-3.4c10.3,3.5,28.3-0.6,36.1-8.1c4.2-4,9.4-13.3,9.3-16.5c0-1.3-2-2.9-5.5-4.5c-3.9-1.8-6.2-3.9-8.2-7.2
	c-4.3-7.4-3.2-10.4,1.3-3.5c2.8,4.3,10.4,8.4,15.6,8.4c2,0,5-0.8,6.9-1.7c3.1-1.6,3.3-1.6,3,0.1c-0.2,1-2.4,2.9-4.9,4.2
	c-4.1,2.1-4.6,2.8-5.1,7.1c-0.4,3.9,0.1,6,3,11.5c1.9,3.7,3.9,8,4.3,9.5c0.8,2.6,1,2.4,3.5-3c3.1-6.7,4.3-7.4,3.3-1.7
	c-1.5,8.2-5,15.7-7.3,15.7c-2,0-5-4.9-6.9-11.2c-0.4-1.3-1.7-1.9-3.9-1.9h-3.3l0.3,8.4c0.2,5.2-0.2,8.5-0.9,8.8
	C253.1,226.9,250.2,225.3,247.3,223.1L247.3,223.1z M251.6,215.7c-0.6-2.3-1-2.7-2.3-1.6c-1.3,1.1-1.3,1.6,0.3,3.3
	C251.9,219.9,252.5,219.4,251.6,215.7L251.6,215.7z M175,201.7c-9.9-1-20.2-5.3-27.8-11.5c-4.2-3.4-5-3.7-7.2-2.5
	c-11.3,6.1-31.1,0.4-36-10.3c-2.7-6-2.8-14,0-19.3c2.8-5.5,10-11.9,17.2-15.2c7.9-3.6,11.7-2.9,4.2,0.8
	c-11.4,5.6-20.7,18.4-18.6,25.5c1.2,3.9,5.8,9.4,9.4,11.3c5.3,2.7,17.4,3.3,24,1.1c6.2-2,7.7-1.6,5.7,1.5c-1.1,1.8-0.7,2.4,2.8,4.7
	c8.6,5.6,15.7,7.8,26.3,8.3c11.1,0.5,17.8-1.1,31.5-7.6c3.6-1.7,6.8-2.9,7-2.6c1.4,1.4-3,7.8-7.4,10.6
	C198.1,201.7,189.2,203.1,175,201.7L175,201.7z M334,158.1c-4.6-2.8-6.8-5.6-7.7-9.5l-0.7-3.3l2.8,4c4.3,6,13.3,8.3,19.4,4.8
	c3.5-2,4.4-2,4.4-0.1c0,0.9-1.3,2.6-2.9,3.8C345.5,160.7,338.5,160.8,334,158.1L334,158.1z M360.9,154.7
	c-7.9-1.5-12.6-5.4-15.4-12.7c-1.5-3.9,0.1-3.4,2.9,0.9c6.3,9.7,18.9,9.5,31.1-0.5c3.8-3.1,6.6-4,6.6-2.2c0,0.5-1.7,3.2-3.8,5.9
	C376.9,153.2,369.2,156.3,360.9,154.7L360.9,154.7z M427.8,151.8c0-0.4,1-1.9,2.2-3.4c2.9-3.7,3-15.4,0.2-21.7
	c-2.7-5.9-12.9-15-21.3-19.1c-8.3-4-24.3-8.4-37-10.1c-14.6-1.9-15-2.3-6.2-6.5c11.9-5.7,14.5-12.6,7.5-20.1
	c-3.4-3.6-14.9-9.5-18.6-9.5c-2.5,0-4.3-1.7-2.8-2.5c0.5-0.3,3.9,0.2,7.7,1c18.7,3.9,28.2,15.1,22.3,26.3c-1.3,2.5-4,5.5-5.9,6.7
	l-3.5,2.1l3.8,0.3c32.4,2.3,57,14.3,64.9,31.6c5.1,11.2-0.7,25.8-10.3,25.8C429.2,152.4,427.8,152.2,427.8,151.8L427.8,151.8z
	 M452.3,149.3c4-4.8,3.9-8.9-0.4-13.8c-2.6-3-3-3.9-1.6-3.9c3.3,0,8.2,3.3,10,6.7c3.2,6.2,0,12.3-7.2,13.8l-3.8,0.8L452.3,149.3
	L452.3,149.3z M133.9,137.4c-3-1.2-5.1-7.4-5.1-15.2c0-11.9,4.2-19.9,17.7-33.3c11.8-11.8,20.8-17.2,37.1-22.5
	c14.3-4.6,34.1-6.4,42.8-3.8c4.3,1.3,4.3,1.3-6,2.1c-21,1.7-30.2,4-44.3,10.9c-15.8,7.8-28.1,20.1-36.5,36.2
	c-2.5,4.7-3.1,7.4-3.1,13.6c0,4.2,0.3,8.8,0.8,10.2C138.2,138.2,137.2,138.8,133.9,137.4L133.9,137.4z M273.6,128.1
	c-1.8-0.6-3.9-1.6-4.6-2.2s-3.5-0.7-6.2-0.3c-2.7,0.4-6.5,0.4-8.4,0c-6-1.3-14.3-10.2-14.3-15.3c0-2.8,1.6-1.9,3.8,2.3
	c4.4,8.3,12.3,11.8,19.2,8.6c4-1.8,4.5-1.8,8.2-0.1c6.7,3.2,10.8,3.3,16.4,0.6c6-2.9,8.6-7.3,8.1-13.3c-0.5-5.2,0.9-5.5,3-0.6
	c2.2,5.3,0.5,10.6-5,15.3C287.3,128.8,280.4,130.4,273.6,128.1L273.6,128.1z M235.1,65.1c-1-1.5-2-5.1-2.3-8
	c-1-10.7,8.1-20.3,24.1-25.6c7.1-2.3,10-2.6,25.5-2.6c20.6,0,27.6,1.5,42.8,8.8c10.2,4.9,19.7,12.8,23.1,19.3
	c1.4,2.8,1.5,3.2,0.1,3.2c-3.1,0-6.9-2-14.3-7.6c-14.9-11.2-26.3-16.1-44.6-18.7c-10.2-1.5-26.8-0.2-37,2.8
	c-7.8,2.3-14.2,7.5-15.8,12.7c-1.2,3.9-1,5,1.2,10.1c1.4,3.1,2.7,6.3,3.1,7.1C242,69.2,236.9,68,235.1,65.1L235.1,65.1z"/>
</svg>
