<?xml version="1.0" encoding="utf-8"?>
<!-- Generator: Adobe Illustrator 22.1.0, SVG Export Plug-In . SVG Version: 6.00 Build 0)  -->
<svg version="1.1" id="Layer_1" xmlns="http://www.w3.org/2000/svg" xmlns:xlink="http://www.w3.org/1999/xlink" x="0px" y="0px"
	 viewBox="0 0 406.1 374.8" style="enable-background:new 0 0 406.1 374.8;" xml:space="preserve">
<path d="M281.3,7.3c-0.4,0.7-0.9-1.1-0.4-1.2C281.2,6,281.5,7,281.3,7.3z"/>
<path d="M301.1,11.7c0.7,0.3,0.1,0.7,0,1.2C300.4,12.6,301,12.2,301.1,11.7z"/>
<path d="M298.7,13.3c0.6,0.1,0.1,1.2,0.8,1.2c-0.1,0.9-1,0.9-2,0.8C297.3,14.1,298.5,14.3,298.7,13.3z"/>
<path d="M286.2,14.1c1.2,0.9-0.6,2.3-1.2,2.8C283.9,16.1,286.2,15.3,286.2,14.1z"/>
<path d="M284.2,17.8c-0.2,0.5-0.5,0.8-1.2,0.8C283.1,18.1,283.5,17.7,284.2,17.8z"/>
<path d="M297.4,18.6c1.2,1-1.3,1.7-0.4,3.6c-1.8,0.5-1.5-1-2.4-1.2C294.7,19.1,296.7,18.6,297.4,18.6L297.4,18.6z"/>
<path d="M291,21.4h0.8c0.2,0.9-0.6,0.8-1.2,0.8C290.7,21.9,291,21.8,291,21.4z"/>
<path d="M258,41.1c-1-0.3-2.2-0.5-3.6-0.4C253.2,40.3,258.5,39.5,258,41.1z"/>
<path d="M258.4,41.9c0.4-1.2,1.4,0.2,1.6,0.4C259.6,43.5,258.9,41.8,258.4,41.9z"/>
<path d="M260.4,44.3c1-0.5,2.9,1.3,4.8,1.2C263.7,46.6,261.1,45.4,260.4,44.3z"/>
<path d="M273.7,49.6c-4.2-3-11.6,4.9-12.9-1.2c0-1.9,0.9,0.5,1.6,0.4h4c1.6-1,3.1-2,6-1.6C272.9,48,273.7,48.3,273.7,49.6z"/>
<path d="M262.8,55.2c2.2,0.2,3.6,1.2,6.4,0.8C268.5,57.8,262.3,58.8,262.8,55.2z"/>
<path d="M256.4,55.6c1.3,1-0.5,2.1-0.8,2.8C254.7,57.8,256.1,56.2,256.4,55.6z"/>
<path d="M279.7,55.6c0.7,0.4,2,0.1,2.4,0.8c-0.9,1.3-0.9,1.8-1.2,3.2c-2.1-0.5-3.4,1.2-4.4,0.4C276.5,57.5,279.1,57.5,279.7,55.6z"
	/>
<path d="M266.5,60.4c-1.7,0.9-4-1.1-4-3.2C263.9,58.1,264.4,60.1,266.5,60.4z"/>
<path d="M287,61.2c1.2-0.4,0.7,0.9,0.8,1.6C287.1,62.7,286.9,62.1,287,61.2z"/>
<path d="M254,62c0.2,1.3-1,1.4-1.6,0.8C252.6,62.3,253.2,62.1,254,62z"/>
<path d="M244.3,72.5c3.2-1.1,6.6,1.2,8.9,2.4c-0.8,1.4-4-1.5-6-2C246,72.6,245.1,73.3,244.3,72.5z"/>
<path d="M225.4,126.8c0.2-0.8,0.5,0.3,0.4,0.8C225.6,128.4,225.3,127.4,225.4,126.8z"/>
<path d="M325.6,127.6c4.6,2.4,7.4,6.6,12.1,8.9c-1.9,0.3-5.1-1.6-6-3.6C329.3,131.5,326.8,130.2,325.6,127.6L325.6,127.6z"/>
<path d="M349.4,137.3c1.5-0.4,1.1,1,2.4,0.8c-0.3,0.6-1.3,0.6-2,0.8C349.5,138.5,349.3,138,349.4,137.3L349.4,137.3z"/>
<path d="M243.9,139.7c-4.2,1.9-8.7,3.3-14.5,3.6c2-1.5,4.9-1.3,7.6-2C239.4,140.7,241.8,139.1,243.9,139.7z"/>
<path d="M183.9,139.7c1,0.2,0,1.6-0.8,1.2C183.3,140.4,183.8,140.3,183.9,139.7z"/>
<path d="M244.7,142.1c-0.1,1.6-1.7,0.6-2.4,0.8c-4,1-8.4,2.7-12.1,4c-0.1-2.5,3-2.2,4.8-2.8C238,143.2,241.9,141.3,244.7,142.1
	L244.7,142.1z"/>
<path d="M345.7,142.1c0.6-1,2.5-0.1,3.2,0C348.2,143.4,347.1,141.7,345.7,142.1z"/>
<path d="M181.9,146.2c-2.6,1.3-7.8,2.1-11.3,1.2c0.4-1.6,2.2-0.3,3.2-0.4C176.3,146.8,179.2,145.8,181.9,146.2z"/>
<path d="M326.4,148.6C325.1,149.8,323.4,148.1,326.4,148.6z"/>
<path d="M182.7,151.4c-5.1,0.6-9.3-1.2-13.3-0.4c2.1-3.1,7.8,0.7,10.9-0.8C181,150.7,182.9,150,182.7,151.4L182.7,151.4z"/>
<path d="M313.1,149.8c-0.5,1-1.8,1.2-3.2,1.2C310.7,150.3,312,150.1,313.1,149.8z"/>
<path d="M183.1,156.2c-0.4,1.6-2.7,0-3.6-0.4c-4.4,0.3-6-2.4-10.5-2C172.5,151.6,179.5,154.8,183.1,156.2z"/>
<path d="M297.9,157.8c-0.4,0.8-1.5,0.9-2.8,0.8C294.7,157.1,296.9,158.1,297.9,157.8z"/>
<path d="M340.9,160.2c0.5,0.2,0.8,0.5,0.8,1.2C341.2,161.3,340.9,160.9,340.9,160.2z"/>
<path d="M359,161.9c1.8-0.1,0,1,0.4,2C358.6,163.9,359.3,162.4,359,161.9z"/>
<path d="M306.7,162.7c1.1-1.1,2.7,0.8,4,0.8C309.6,164.6,308.1,162.6,306.7,162.7z"/>
<path d="M346.1,162.7c0.8,1,1.3,3.8,0.8,4.8C346.3,166.2,346.3,164.4,346.1,162.7z"/>
<path d="M300.3,163.9c-1,0.3-4.9,1.3-4.8,0C296.8,162.8,298.7,163.9,300.3,163.9z"/>
<path d="M348.6,170.3c1.2,0.7-0.5,1.9,0,3.2C347.5,173,348.5,171.1,348.6,170.3z"/>
<path d="M208.1,172.7c0.2-0.8,0.5,0.3,0.4,0.8C208.3,174.3,208,173.3,208.1,172.7z"/>
<path d="M271.7,174.3c-0.4,0.7-1.3,0.9-2.4,0.8C269.8,174.6,270.7,174.4,271.7,174.3z"/>
<path d="M301.1,175.5c2.4,0,3.1,1.7,3.6,3.6C303.9,177.6,301.8,177.2,301.1,175.5z"/>
<path d="M195.6,177.5c1.7,0.4-1.1,3.6,0,4.8c-1.1-0.1-0.3,1.6-1.6,1.2C194.6,181.7,195.4,179.9,195.6,177.5z"/>
<path d="M198.8,177.9c1,1-0.2,3.3-0.4,4.4C197.2,181.1,198.7,179.2,198.8,177.9z"/>
<path d="M190.8,178.8C191.9,180.4,189.5,181.4,190.8,178.8z"/>
<path d="M315.2,179.2c0.9-0.2,0.8,0.6,0.8,1.2c-0.3-0.1-0.4-0.4-0.8-0.4V179.2z"/>
<path d="M303.5,180.8c0.2-0.8,0.5,0.3,0.4,0.8C303.7,182.3,303.4,181.3,303.5,180.8z"/>
<path d="M305.1,180.8c0.4,0.3,0.9,0.4,1.6,0.4v1.6C305.4,182.8,305.3,181.7,305.1,180.8z"/>
<path d="M185.1,181.2c1,0.2,0,1.6-0.8,1.2C184.5,181.8,185.1,181.7,185.1,181.2z"/>
<path d="M190,181.6c0.3-1.1,0.5,0.9,0.4,1.2C190.2,183.6,189.6,183.1,190,181.6z"/>
<path d="M170.7,182c-0.4,0.6-1.1,0.9-1.6,0.4C169.2,181.4,170.1,181.5,170.7,182z"/>
<path d="M187.2,181.6c1.1,0.6-0.2,2.2-1.2,2C186.2,182.7,186.8,182.3,187.2,181.6z"/>
<path d="M289.4,183.2c-0.2,0.5-0.5,0.8-1.2,0.8C288,183.1,288.8,183.2,289.4,183.2z"/>
<path d="M305.1,185.6C306.6,186.8,303.9,187,305.1,185.6z"/>
<path d="M311.5,186.8c0.7,0.3,0.1,0.7,0,1.2C310.8,187.7,311.5,187.3,311.5,186.8z"/>
<path d="M252.8,190c-0.1,0.5-0.7,0.6-0.8,1.2C251,191.1,251.9,189.7,252.8,190z"/>
<path d="M237.1,196.9c1,0.8-0.2,2.7-0.4,3.6C235.3,199.4,237.4,198.3,237.1,196.9z"/>
<path d="M269.7,202.9c0.1,1.9-2.1,3.6-3.2,5.6c-1.2,2.1-1.7,4.8-3.6,6C264.3,209.8,267.2,206.6,269.7,202.9z"/>
<path d="M331.3,213.8c1.1,0,0.8,1.7-0.4,1.6C330.7,214.5,331.1,214.3,331.3,213.8z"/>
<path d="M295,220.2c1.3,4.3-1.8,7.6-4,9.7c-0.3,0.9,1.1,1.3-0.4,1.2c-0.3-2.2,0.6-3.1,0.4-5.2c1.1,0.5-0.2,1.4,0.8,1.6
	C294.2,228.1,294.3,221.3,295,220.2z"/>
<path d="M94.2,224.6c1.3,0.5,2,5.3,0.4,6C95.2,228,94.3,227.4,94.2,224.6z"/>
<path d="M332.5,228.7c0.7,0.3,0.1,0.7,0,1.2C331.7,229.6,332.4,229.1,332.5,228.7z"/>
<path d="M328.8,229.5c1.5,0.8-0.8,1.3-0.8,2C326.9,231,328.5,229.9,328.8,229.5z"/>
<path d="M298.7,230.3c0.6,1.2-1.9,4.7-3.2,4C296,232.5,297.8,231.8,298.7,230.3z"/>
<path d="M2,230.7c16.9,2.9,36.9,2.8,55.9,4.4c3.8,0.3,7.6,1.3,11.3,1.6c3.4,0.3,6.9-0.8,10.1,0.8c-0.8,1.6-3.4,1.6-4.8,1.6
	c-5.1,0.2-10.9-1.9-16.9-2.4c-18.3-1.7-38.2-1.7-55.1-4.4C2.1,231.9,2,231.4,2,230.7L2,230.7z"/>
<path d="M90.2,230.7c0.9,0.4,0.3,2.7-0.8,2.4C88.9,231.6,90.4,231.9,90.2,230.7z"/>
<path d="M305.1,230.7c1.8,0.9-1.1,3.6-2.4,4C303,232.9,304.9,232.6,305.1,230.7z"/>
<path d="M93.8,234.3c0.9,0.2,0.8,1.9,0.8,2.8c0,3.8-0.6,9.4-1.2,12.5C92.8,244.5,93.4,239.5,93.8,234.3z"/>
<path d="M88.6,235.5c1.2,1.6-0.5,4.4-1.2,6.8c-3.2,11.3-6.2,24.5-9.3,37c-1.3-3,2.3-8.3,0.4-9.7C81.2,257.7,85.6,247.3,88.6,235.5z"
	/>
<path d="M253.2,236.3c0.3-1.1,0.5,0.9,0.4,1.2C253.4,238.3,252.8,237.8,253.2,236.3z"/>
<path d="M105.1,239.5c0.5,0.1,0.6,0.7,1.2,0.8c4.5,10.9,6.5,24.3,10.1,36.2c-1.4-1.4-2.1-4.3-2.8-6.4c-1.5-4.3-2.7-8.9-4-13.7
	C107.8,250.6,107.5,244.5,105.1,239.5L105.1,239.5z"/>
<path d="M271.7,240.7C272.8,242.4,270.4,243.4,271.7,240.7z"/>
<path d="M255.2,241.5c1.2,0.8-0.1,2.5,0,3.6C254,244.4,255.3,242.7,255.2,241.5z"/>
<path d="M5.6,242.8c1.7-0.5,4.9,1,7.2,1.2C9.8,244.2,7.8,243.5,5.6,242.8z"/>
<path d="M13.7,244.4c0.1-0.9,1.7-0.2,2.4-0.4C16.1,244.8,14.4,244.1,13.7,244.4z"/>
<path d="M51.5,248c-6.5,0.2-15.2-2-21.3-2.4c-1.3-0.1-1.7-0.4,0.4-0.4C36.3,245.3,45.1,247.2,51.5,248L51.5,248z"/>
<path d="M259.6,246.4c0.6,1-0.7,3.6-1.2,4.8C257.5,249.9,259.4,247.9,259.6,246.4z"/>
<path d="M166.2,248c-0.1,0.7-0.7,0.9-1.6,0.8C164.7,248.1,165.3,247.9,166.2,248z"/>
<path d="M91.4,248.4c-0.5,1,0.2,3.1-1.2,3.2C90.9,250.9,89.8,248.3,91.4,248.4z"/>
<path d="M260,249.6c1,0.5-0.6,1.8-0.4,2.8C258.6,251.9,259.9,250.3,260,249.6z"/>
<path d="M29,250.8C28.1,252,26.4,250.3,29,250.8z"/>
<path d="M250.4,250.8c-0.1,15.7,1.9,31.4,1.2,46.3c-1.5-3.4-0.7-7.6-0.8-11.3C250.3,274.5,249.7,262.6,250.4,250.8z"/>
<path d="M5.2,251.6c2.8-1.1,7.2,0.2,9.3,0C12.2,253.1,7.8,252.2,5.2,251.6z"/>
<path d="M18.1,251.6C16.4,252.8,14.7,251.1,18.1,251.6z"/>
<path d="M42.7,252.8c-3.5,0-9.7-1.7-2.8-0.8C40.6,252.1,42.8,251.4,42.7,252.8z"/>
<path d="M30.2,252.4C26.5,253.8,27.6,251.6,30.2,252.4z"/>
<path d="M269.3,252c0.9,1.7-0.4,4.7-1.2,6C267.1,256.2,269.3,254.2,269.3,252z"/>
<path d="M34.2,253.2c0.8-1,6.5,0.3,4.8,0.4C37.3,253.6,35.4,253.8,34.2,253.2z"/>
<path d="M86.9,252.8c0.7,0.8,0.4,4.1-0.8,4.4C85.8,255.2,87,254.6,86.9,252.8L86.9,252.8z"/>
<path d="M32.6,254.4c-1.5,1.2-4.1,0.5-6.4,0.4c-6.7-0.2-15.8-0.2-22.1,0.4c-0.7,0.1-0.7-0.4-1.2-0.4c0.2-0.4,0.4-0.7,0.8-0.8
	C13.6,254.1,22.6,253.9,32.6,254.4z"/>
<path d="M33,255.2c4.1-0.8,9.8,0.1,14.1,0.4C43.3,256.2,37.2,255.6,33,255.2z"/>
<path d="M36.2,257.6c-0.1-0.9,1.4-0.2,2-0.4C38.3,258.1,36.8,257.4,36.2,257.6z"/>
<path d="M67.2,258.9c-8.6,1.1-19.3-0.8-25.8-1.6C51.2,257.5,57.8,258.5,67.2,258.9z"/>
<path d="M88.1,257.2c0.6,0,0.9,3-0.4,2.4C87.7,258.7,88.4,258.5,88.1,257.2z"/>
<path d="M374.3,258.5c0-0.4,0.5-0.3,0.8-0.4c3.9,1.8,9,2.2,14.9,2c-0.9,1-5.6-0.3-1.6,1.6c0.8,0.4,2.4,0.1,2,1.2
	c-1.9-0.7-3.1-0.2-4.4,0C383.6,259.3,376.7,261.2,374.3,258.5L374.3,258.5z"/>
<path d="M60,263.7c-17.1-3.1-34.7-3.9-52.7-4.4c0.7-1.5,3-0.8,4.4-0.8c4.3,0.1,10.2-0.2,14.1,0.8c10.4,0.6,21.3,1.5,30.6,3.2
	C57.5,262.7,59.4,262.3,60,263.7z"/>
<path d="M30.2,262.9c-7.1-0.7-15.9-1.2-22.9-1.6c-0.5-0.5-0.2-0.6,0-1.2c0.3-0.1,0.4-0.4,0.8-0.4c4,0.8,9.2,1.6,14.1,2
	C24.9,261.9,28.4,260.7,30.2,262.9L30.2,262.9z"/>
<path d="M402.1,261.3c-1.4,0.5-7.4-0.1-7.6-0.8C396.9,259.3,399.8,261,402.1,261.3z"/>
<path d="M372.7,263.7c-0.2,1.8,2.3,0.9,3.2,1.6c-0.8,0.4-1.4,1-2.4,1.2c-3.9-2.9-10.4-3.2-16.1-4.4c0.7-1.3,2.6-0.3,4,0
	c3.1,0.6,6.7,1.3,9.3,2.4C371.9,264.8,371.5,263.4,372.7,263.7L372.7,263.7z"/>
<path d="M330,261.7c1.5,1.6,0.3,5.8-2.4,5.6c-0.4-0.4-0.8-0.8-1.2-1.2C326.3,263.3,328.4,262.7,330,261.7z M327.6,265.7
	c1.5,0.3,1.6-0.9,2-1.6c-0.5-0.1-0.8-0.6-1.6-0.4C327.7,264.1,327.5,264.8,327.6,265.7L327.6,265.7z"/>
<path d="M394.5,262.5c-0.1,0.5-1,0.3-1.6,0.4C393,261.9,393.9,262,394.5,262.5z"/>
<path d="M396.9,262.5c0.7-1,2.8-0.2,3.2,0.4C399.1,264.2,397.8,262.5,396.9,262.5z"/>
<path d="M33.8,262.5c9.7,0.3,17.5,2.4,26.6,3.2c-6.3,1.1-12.9,0.3-18.5-0.8c-2.4-0.5-4.9-0.6-6.8-1.2
	C34.5,263.5,33.7,263.8,33.8,262.5z"/>
<path d="M87.7,262.5c1.6,1.9-0.2,6.6-0.4,9.3c-1.1-0.6-0.6-3.1-0.4-4.8C87.1,265,87.9,263.5,87.7,262.5z"/>
<path d="M402.5,264.5c-0.1,2.4-2.8,0.5-3.6,0h-9.7c0.2,1.4,2.2,1.1,3.2,1.6c-1,3.4-3.8-0.3-5.6-0.8c0.6,0.8-0.6,1.7-2.4,0.8
	c-0.4-0.2,1.2-0.5,1.2-0.4c0.2-0.6-3.1-1.3-2-2C390.3,263.6,395.3,263.4,402.5,264.5z"/>
<path d="M376.3,265.3c1.6-0.1,2.6,0.4,3.2,1.2C378.9,267.3,376.4,266.5,376.3,265.3z"/>
<path d="M372.7,268.5c-5.1,0.3-12.5-2.4-17.7-2c0.2-0.6,0.5-0.8,1.2-0.8C361.1,265.3,368,268,372.7,268.5z"/>
<path d="M394.5,266.1c1.5,0.8,4.5,0,6,0.8C399.4,267.4,394.4,268.2,394.5,266.1z"/>
<path d="M90.2,267.3c0.7-0.1,0.8,0.3,0.8,0.8c-0.3-0.1-0.4,0.2-0.4,0.4C90.1,268.4,90.2,267.8,90.2,267.3z"/>
<path d="M394.5,270.1c-4.2,1.4-7.6-2.3-11.3-1.6c-0.7,0.1-0.8-0.4-0.4-0.4c-0.1-0.7,0.3-0.8,0.8-0.8
	C386.9,268.5,391.2,268.8,394.5,270.1z"/>
<path d="M350.2,269.7c0.5-0.8,2.9,0.2,2-2c7.2,0,13.7,0.8,19.3,2.4c-3.4,1.9-8.3-3.2-10.5,0c5.4,2,13.1,1.7,18.1,4
	C369.5,274.3,360.5,271,350.2,269.7z M359.8,269.7c-0.2-2-4.5-1.9-6-1.2C355.5,269.2,357.3,269.9,359.8,269.7z"/>
<path d="M376.7,268.9c0.1,0.9-1.4,0.2-2,0.4C375.1,268,375.5,269.1,376.7,268.9z"/>
<path d="M395.7,268.5c0.8,0.2,1.7,0.1,1.6,1.2C396.5,269.5,395.5,269.6,395.7,268.5z"/>
<path d="M260,268.9c1-0.2,0.3,2,0,2.8c-0.4,1.2-1.5,3.2-2.4,3.2C258.3,272.9,259.5,271.2,260,268.9z"/>
<path d="M373.9,270.9c0.1-0.9,1.8-0.2,2,0C375.6,272.1,374.6,270.7,373.9,270.9z"/>
<path d="M399.7,273.3c-0.2-0.8,1.8-0.6,1.2,0.4h-0.8C400.2,273.4,399.9,273.4,399.7,273.3z"/>
<path d="M352.2,273.8C351.3,275,349.6,273.3,352.2,273.8z"/>
<path d="M84.5,274.1c1.4,0.3,0,1,0.4,2.4C83.5,276.2,84.9,275.6,84.5,274.1z"/>
<path d="M89,274.1c1.7-0.1,0.5,2.5,0.4,3.2C88.4,277.1,89.2,275.1,89,274.1z"/>
<path d="M163.8,281.4c-2,0.3-2.8-0.7-4-1.2C159.4,271.9,168.3,275.6,163.8,281.4z M160.6,279.4c0.9,0.3,1.4,1,2.8,0.8
	C165.5,276.3,160.1,274.6,160.6,279.4z"/>
<path d="M289.8,277.4c0.3,3-1.1,4.2-2.4,5.6c-2.6,0.5-3.6-0.7-4.4-2C283.7,278.4,286.6,276.1,289.8,277.4L289.8,277.4z M284.6,280.6
	c0.6,0.1,0.5,0.9,0.8,1.2c2.6,0.4,2.5-1.8,3.2-3.2C286.8,277.4,284.8,278.9,284.6,280.6z"/>
<path d="M398.1,277.4c0.4-1.1,1.7,0.1,2.4,0C400,278.6,399.1,276.9,398.1,277.4z"/>
<path d="M130,278.2c0.9-0.8,4.3-0.5,5.2,0C134.2,279.1,131.1,278.5,130,278.2z"/>
<path d="M342.1,278.6C339.2,279.8,337.5,278.1,342.1,278.6z"/>
<path d="M84.9,279c1.4-0.3,1.4,1.4,0.8,2C84.3,281.3,84.3,279.6,84.9,279z"/>
<path d="M321.2,279.4C320.3,280.6,318.6,278.9,321.2,279.4z"/>
<path d="M390.4,280.2c-0.3,2-2.3-0.1-3.2,0C387.7,279,389.7,279.4,390.4,280.2z"/>
<path d="M397.7,281C396,282.2,394.9,279.9,397.7,281z"/>
<path d="M398.5,281.8c0-0.6,3-0.9,2.4,0.4C399.7,282.5,399.4,281.8,398.5,281.8z"/>
<path d="M264.4,284.2c-0.1,2.1-2.6,1.7-2.8,3.6c0.1,1.1,1.1,1.4,2,1.6c1.9,0.2,1.3-2.2,2.4-2.8c1.9,0.2-0.2,2.2,0,3.2
	c-2.3,1.3-4.8,0.6-6-1.2C259.9,285.5,261.5,284.2,264.4,284.2L264.4,284.2z"/>
<path d="M388.8,285c-0.1-0.9,1.4-0.2,2-0.4C390.9,285.5,389.4,284.8,388.8,285z"/>
<path d="M339.7,285.8c5.9,1.7,14.2,0.6,20.9,1.6c2.2,0.3,4,1.3,6,1.6c2.7,0.3,5.4-0.1,8,0.4c0.8,0.1,2.6,0,2.8,1.2
	c-12.5-1-23.5-3.7-37.4-3.2C340.2,286.7,339.6,286.6,339.7,285.8L339.7,285.8z"/>
<path d="M305.5,288.2C304.6,289.5,302.9,287.8,305.5,288.2z"/>
<path d="M391.2,288.6c0.1-0.9,1.7-0.2,2.4-0.4C393.6,289.1,391.9,288.4,391.2,288.6z"/>
<path d="M394,289c2.3-0.4,7.3-0.1,8.5,2C399.5,290.5,397.1,289.5,394,289z"/>
<path d="M358.6,291.1c-5.6,0.4-12.9-1.1-19.3-1.2c4.6-0.4,10.8-1.6,15.3-0.4C356.2,289.9,357,291.6,358.6,291.1z"/>
<path d="M371.1,292.3c12.8,0.5,22.6,4,35,4.8c-3.1,2.4-7.2,0.3-10.9-0.4c-11.3-2.1-24.6-2.9-36.2-4.8c1.9-0.9,5.3,0.1,8,0
	c0.5,0,0.1-0.7,0.4-0.8C368.8,290.7,373.6,291.6,371.1,292.3z"/>
<path d="M389.2,291C388.3,292.3,386.6,290.6,389.2,291z"/>
<path d="M360.6,294.7c-4.9-1-12.2-1.5-16.5-2c-1.7-0.2-3.6-1,0-0.8c2.3,0.1,5.1,0.8,8.5,1.2C355.6,293.5,359.2,292.8,360.6,294.7
	L360.6,294.7z"/>
<path d="M396.1,292.3c-0.1-0.9,1.4-0.2,2-0.4C398.1,292.7,396.6,292,396.1,292.3z"/>
<path d="M318.4,292.3c-0.1,0.7-0.7,0.9-1.6,0.8C316.9,292.4,317.5,292.1,318.4,292.3z"/>
<path d="M294.6,293.1c-11.2,2.9-22.1,6.1-33,9.3c9.5-3.9,20.1-6.8,30.6-9.7C292.7,293.1,293.6,293.1,294.6,293.1z"/>
<path d="M296.6,292.7C295.8,293.9,294.1,292.2,296.6,292.7z"/>
<path d="M270.5,297.1c-1.8,1.2-4.2,1.7-6.4,2.4C265.5,298,268.1,297.7,270.5,297.1z"/>
<path d="M391.6,300.3c-4.7-0.5-9.4-1-13.3-2.4c0.4-1.4,2.6-0.3,4,0s3.1,1,4.4,1.2C388.7,299.4,391,298.4,391.6,300.3z"/>
<path d="M289,297.9c-0.5,0.6-1.4,0.8-2.4,0.8C286.9,298,287.8,297.8,289,297.9z"/>
<path d="M294.6,297.9c-0.5,0.6-1.4,0.8-2.4,0.8C292.6,298,293.5,297.8,294.6,297.9z"/>
<path d="M185.6,301.9c-5.2,2.5-10.2,5.4-16.1,7.2c1.4-1.8,4.2-2.8,6.4-4C179.1,303.4,181.9,302,185.6,301.9z"/>
<path d="M70.4,302.7c0.2,2.2-0.4,3.6-2.4,3.6C66.3,304.9,67.4,301.8,70.4,302.7z"/>
<path d="M194,307.6C193.1,308.8,191.4,307.1,194,307.6z"/>
<path d="M67.2,309.6c0.2,2.4-0.8,3.5-3.2,3.2C62.4,310.3,65.6,307.5,67.2,309.6z"/>
<path d="M216.5,311.2c-1.9,1.9-5,2.3-8.5,3.2c-6.3,1.6-14.6,3.1-20.1,6c-2.3-0.5-4.2-0.4-6,0.4c-0.2,0.9,0.6,0.8,1.2,0.8
	c-1.4,1.5-3.7,2.3-6,2.8c0.6-1.4,2.8-1.2,4-2c-1.7-1.3-3.1,1.2-5.2,0.8c1-0.7,2.6-0.9,2.8-2.4C191.7,317.9,203.6,314.1,216.5,311.2
	L216.5,311.2z"/>
<path d="M65.2,314.4c0,1.6-0.8,2.4-2.4,2.4C61.1,315.3,63.2,313.3,65.2,314.4z"/>
<path d="M228.6,315.6c-1.6,1.9-5.2,1.8-8.1,2.4C222.8,316.7,225.7,316.1,228.6,315.6z"/>
<path d="M218.2,318.4c-6.8,2.8-14.8,4.2-22.5,6C202.5,321.8,210.1,319.9,218.2,318.4z"/>
<path d="M206.1,326.9c-0.3-0.9-2.5,0.8-3.2-0.4c5.8-3,13.9-3.8,20.9-5.6c-1.2,1.8-5.3,2.6-8.1,3.2c-3.2,0.7-6.2,0.9-8.9,2
	c-0.1,0.9,1.4,0.2,2,0.4c-7.1,3-15.8,4.5-23.3,7.2c1-0.7,0.3-0.7,0.8-1.6C193.2,330.7,199.6,328.7,206.1,326.9L206.1,326.9z"/>
<path d="M173.1,322c-0.5,3-5,2-7.6,2.8C168.1,324,170.1,322.5,173.1,322z"/>
<path d="M223.8,323.3c-3.5,1.5-9.1,2.9-12.9,2.8C214.4,324.3,218.9,323.6,223.8,323.3z"/>
<path d="M164.6,325.3c-1.3,1-3,1.6-5.2,1.6C160.6,326,163.4,324.8,164.6,325.3z"/>
<path d="M218.6,326.1c-1,1.5-4.6,2.2-6.4,1.6C213.8,326.7,216.3,326.5,218.6,326.1z"/>
<path d="M154.2,333.7c-2.5,1.7-5.3,3-8.9,3.6C147.7,335.6,150.8,334.5,154.2,333.7z"/>
<path d="M250.8,42.3c1.9,0.8,5,0.3,6,2c1.2,4.5,0.6,7.6-2,11.3c-3,4.2-7.6,7.4-10.5,10.1c1.6,6,10.2,1,13.3,3.2
	c0.3,3.7-8.4,4.1-10.1,0.8c-0.9,0.3-2.8,0.8-3.6,0c-1.6,1.4-1.6,4.3-1.6,7.2c-0.3,1.2-1.8,1.1-2.4,2c-1,3.1-1.6,6.4-2,10.1
	c2.4,4.1,6.7,2.2,10.9,1.2c3-0.7,5.5-0.5,8-2c3.3-1.9,8-5.3,12.1-7.2c-2.7,3.1-6.6,4.9-10.5,6.8c0.3,1.3,1.7,1.5,2.8,2
	c2.1-0.8,4.1-2.1,6.4-3.2c3.4-1.6,7.2-3,10.1-5.2c2-1.5,5.4-4,4-7.6c-1.5,0.6-2.3,2.5-4,0.8c-2.3,1.4-3.4,4.1-6.4,4.8
	c1.8-2.1,4.4-3.4,5.2-6.4c1.5-0.3,1.5,0.9,2.8,0.8c1-0.3,1.7-1,2-2c5.4-0.9,7.6-5,9.7-9.3c-0.4-2.9-4.4-4.4-6-1.6
	c0.3,1.4,1.4,1.8,1.6,3.2c0.2,2-1.8,1.7-2.4,2.8c-0.8-0.5,1.3-1.4,1.2-2.4c-2.1-0.1-5.5,1.9-3.6,3.2c-1.3,1.4-1.5-2-0.8-2.8
	c1.3-0.5,3.2-0.3,3.6-1.6c0.8-1.8-1.6-0.5-1.2-2c1.1-2.6,6.2-4.1,7.6-0.8c1.1-2.7-2.9-4.7-6-3.2c0.2-2.1,2.4-2.2,4-2.8
	c-0.4-2.3-2.8-2.5-5.6-2.4c1.4,1.5,0,1.6-0.4,3.2c-1.5-0.6-3.2-0.1-4-0.4c-0.1-2.3,2.7-1.6,3.2-3.2c-1.2-1.1-1.6,1.1-3.6,0.4
	c0.7-2.1,3.5-2.2,3.6-4.8c1.1,0,2.7-0.2,1.6,0.8c0.8-0.2,1.1-1,2.4-0.8c-4.3-7.6-13.1-12.6-25-11.3c3-1.7,5.4-1.1,9.7-0.8
	c1,0.1,2.2,1.2,3.2,1.6c2.9,1,3.8,0.6,6,2.4c0.8,0.7,1.2,1.7,2,2.4c0.4,0.3,1.3,0.2,1.6,0.4c2.9,2,6,7.5,6.8,10.1
	c0.4,1.2,0.2,2.5,0.4,3.6c0.5,2.4,1.3,5.9,0.4,9.3c5.8-0.7,6.5-8.7,4.8-14.5c0.2-0.6,0.4,0,0.4,0.4c3.8,6.1,1.4,14.8-5.6,15.7
	c-2.3,2.4-5.1,4.3-8.1,6c0.2,3.8-0.4,6.9-2.4,8.5c-0.1,6.9,0.7,13.6,0,20.5c1.5,0,2.2-0.8,2.8-1.6c1.6,3.2,5.4,2.3,7.2,0
	c2,0.6,3,2.1,4.8,2.8c-0.3,2.1,0.6,2.9,0.4,4.8c0.8,0.8,4.9,1.1,6.8,0.8c6.2-0.8,6.3-6.9,13.7-4.8c1,1.4,1.9,3,1.6,5.6
	c1.9,1.6,3.9,3.1,4.4,6c-1.4-0.1-1.2-1.8-2.4-2c-4,2.7-9.5,4-13.3,6.8c0.3-3.7,9.3-4.6,12.5-7.6c-0.4-3.2-3.6-2.3-6-1.6
	c0.8-1,1.6-1.8,3.6-1.6c0.2-1.1-0.9-3.8-2-4.8c-1.6,1-2.7,0.5-4,1.2c-2.9,1.4-4,4.2-8.9,4.4c-2.3,0.1-4.7-1.2-7.2-1.2
	c-2,0-3.4,1.4-5.2,0.8c0.6-2,4.6-0.8,5.2-2.8c0.4-1.5-1.7-0.4-2-1.2c0.3-1.1,1.8-0.9,2-2c-0.5-1.9-2.7-0.9-3.2,0.4
	c-1.2-0.6,0.8-2.1-0.4-2.8c-1.1,0.1-1.7,0.7-1.6,2c-1,0.1-1.7-0.2-2-0.8c-1.4,0.5-2,2.4-1.2,4c-0.7,0.1-0.9-0.5-1.6-0.4
	c-0.1,0.9-0.9,1.7,0.4,2c-2.5,0.8-0.9-2.4,0-3.6c0-1.5-1.7-1.3-2-2.4c-2.1,1.9-4.8,3.1-6.8,5.2c-1.2,1.3-1.6,3.2-2.8,4.4
	c-0.8,0.8-2,0.9-2.8,1.6c-2.3,1.9-4.1,4.4-5.6,6.8c1.7,0.2,3.3-3.1,5.6-3.6c-1.7,1.6-3.7,3-5.2,4.8c-0.1,0.8,1.2-0.1,1.2-0.4
	c-1.8,1.9-4.9,6.1-8,8.1c-0.5,2.7,3.3,1.2,5.2,1.6c5.3,4.7,3.7,16.4,7.6,22.5c0.2,1.3-0.9,1.3-2,1.2c0.1,1.2,0.7,2,1.6,2.4
	c5.4-1.8,11-5.2,17.7-6c1.9-0.2,3.9,0.2,5.6,0s3.1-1.3,4.8-1.6c2.6-0.5,5.5,0.1,8.5-0.4c5.3-0.8,10.4-3.4,15.3-4
	c3.4-0.4,7.2-0.4,10.1-0.4c0.9,0,2,0.6,2.8,0.4c3.3-1,6.5-6,4.4-10.1c-7.5-2.6-9.4-10.7-18.9-11.3c9.5-1.8,11.2,7.6,18.1,9.7
	c0.7-2.6-0.2-7-1.6-8.9c-2.8-1.4-6.6-1-9.7-2.4c-1.6-0.7-2.5-2.5-5.6-2.4c-0.7,0-0.9,0.6-1.6,0.8c-2.5,0.7-5.7,0.8-8.5,2.4
	c-1.2,0.4,1.8-0.8,2-1.6c-2.1,0.5-4.8,0.3-4.8,2.8c-4.9-0.2-12.1,3.5-19.3,4.8c-4.2,0.8-8.2,1.3-11.7,2c-2.5,0.5-5.9,0.1-8.9-0.4
	c0,2.8,2.5,4.2,3.2,8.1c0.6,3.3-0.3,7.1,0.8,10.1c0.8,2,2.8,2.8,2.8,4.4c-2.2-0.7-4.8-4.2-5.2-7.2c-0.2-1.5,0.5-3.3,0.4-4.8
	c-0.4-5-2.8-7.9-5.2-11.3c11.5-0.8,23.3-1.4,33-4c2.2-3.8,3.5-8.6,8-10.1c-0.6,1.8-1.9,3-2.8,4.4c1.3,1.4-0.1,1.5-0.8,2.8
	c7.1-1.4,13.5-3.5,20.1-3.6c0.9,0.2,0.6-0.8,1.2-0.8c3.5,3.6,11,3.2,14.9,6.4c7.2-1.1,16.3,3.2,20.5,7.2c1.3,1.3,3.8,4.2,4.4,5.6
	c0.4,0.9,0.1,2.1,0.4,3.2c1.1,3.6,2.7,7.4,2.8,10.9c0.7,21-13.5,33.9-25.8,40.7c-0.1,3.3-2.4,6.3-2.8,9.7c-0.3,2.2,0.4,4.3,0,6.4
	c-0.3,1.6-1.6,3.4-1.6,6c0,1.8,1.1,4.6,0.8,7.6c-0.2,1.9-1.8,5.3-2,7.6c-0.1,1.9,0.6,3.8,0.4,5.6c-0.4,4.2-1.4,10.2-1.6,15.7
	c2.4,1,5,0.5,7.6,0.4c5.9-0.2,14.1,2.4,21.7,2.8c8.4,0.5,19.3,1.4,27.4,2.8c1.1,0.2,2.1,0.6,3.2,1.2c1.4-0.2,3.6-0.9,4,0.8
	c-7.9,0.5-16-0.9-22.1-0.8c-0.3-0.7-0.9-1.3-1.6-1.6c-5.1-0.7-10.5,0.1-15.3-0.8c-0.9-0.2-1.5-1-2.4-1.2c-7.3-2.1-15.3-0.3-22.1-2
	c-1.8,3.4,2.2,8.7-0.8,10.9c-0.5-3.9-0.4-8.5-1.6-11.7c1.8-8,2.5-17.1,2.8-26.6c-0.4,0.3-0.6,0.7-0.8,1.2c-1.7-1.4,1.3-4.6-1.2-6
	c1.7-2.7-0.4-4.9,0.8-7.2c-1-0.7-1.9,2.1-1.6,4c-0.8,1.1-2.5,1.3-2.8,2.8c0-1.6,4.4-6.2,0.8-8.1c0.9-0.9,2.7-1.7,2.8-4.4
	c-0.9-0.8-1.8,2-2,3.2c-1.1-1.2,0.4-3.4,0.4-4.8c-1.2-0.6-1.9,1.2-1.2-1.6c-1.1,0.9-1.8,2.2-2,4c1.1,0.1,1-0.8,1.2-1.6
	c1.2,3.6-3.5,4.8-4,8.1c0.3,1.2,1-0.5,2,0c0.6,1.4,1.3,2.7,1.6,4.4c-1.4,0.4-2.4,1.4-2.8,2.8c-0.8-1.5,1-3.8,1.2-5.6
	c-2.6,0.2-2.7,3.2-3.6,4.8c-1.7,2.9-4,5.5-5.6,8.1c0.3,1.2,0.3,0.8,0,2c-1.1-0.1-1,0.8-1.2,1.6c-0.8,0.7-0.5,0-1.6,0
	c0.9,3.8-3.3,5-4.4,8.1c-0.8,0.1,0.1-1.2,0.4-1.2c-0.9-0.6-2,2.1-2.8,2.8c-1-2.6,4.7-4.1,3.2-7.2c5.3-5.2,9.6-11.3,13.3-18.1
	c-1.9-2.2,1.1-4.5,0.4-6.4c-0.7-0.8-1.2,2-2.4,2c0.6,1.2,0.2,2.5,0,3.6c-0.5,2.4-1.8,3.6-3.2,5.6c-0.9,1.3-0.8,4.1-2.8,4.4
	c1.2-4.1,4.3-6.4,4.8-11.3c-1.4,0.1-1.1,1.8-2,2.4c-1.1-2.1,2-3.4,2.4-5.2c-1-1.4-1.2,1.4-2.4,1.2c0.4-1.9,0.9-3.6,1.2-5.6
	c-1.6,0.5-1.9,2.1-2,4c-2.2,1.2-2.7,4-3.6,6.4c1.8,1,2.3-2.8,2.8-4.4c2.4,0.9-0.7,2.5-0.8,4.4c0.4,1.2,0.6,0.5,1.6,0.4
	c-1,1.9-1.9,4-3.2,5.6c-0.7-0.8,1.4-2.1,1.2-3.6c-1.7-0.9-2.1,2.8-2.4,0.8c0.3,0.1,0.4-0.2,0.4-0.4c-1.1,0.3-1.4,1.6-2,2.4
	c0.1,1,1.1-0.4,1.2-0.8c0.2,2-2.7,4.3-3.6,6.4c-0.9-1.2,1.8-2.2,1.6-4c-6.4,6.4-11,14.9-17.7,21.3c2.9-4.5,6.5-8.3,9.7-12.5
	c3.2-4.1,6.6-8.4,8.5-13.7c-2.1,1.7-3.3,4.3-4.8,6.4c-0.3-2.7,3.3-5,4-8.1c-0.3-0.3-1.1-0.2-1.2-0.8c-1.8,0.6-2.3,2.5-2.4,4.8
	c-3.8,1.7-3.9,7.1-7.6,8.9c0.4,3.1-3.6,4.9-4.8,7.6c0.8-4.2,6.3-7.1,6-13.7c-2.3-0.4-0.8,3-2.8,2.8c-0.3-0.4-0.4-0.9-0.4-1.6
	c-0.1-1.8,1.1,0.2,1.6-0.8c0.3-1.4,1.3-2.2,2-3.2c-0.6-4.5,1.4-7.4,0.8-11.7c-2.1,2.9-0.7,6.9-3.2,9.3c0.6,1.8,0.1,3.1-0.8,4.4
	c0.1,1.5-0.3,0.1-1.2,0.4c-0.9,2-2.2,3.4-3.6,4.8c-1.2-0.3,2.7-3-0.4-2.8c1.3-1,0.5-4,2.8-4c-0.3,1.5-1.8,1.7-1.2,4
	c1.8-0.9,2.8-2.6,3.6-4.4c0.2-1-0.2-1.4-1.2-1.2c2.6-2.3,2.4-7.3,4-10.5c-2.5,0.2-2.3,3.1-2.8,5.2c-2.4,0.1-2.8,2.3-3.2,4.4
	c-1.3-0.7-0.2-5.2,1.6-4c-0.3-1.4,0.9-1.9,0-2.8c-0.9,0.1-0.9,1-0.8,2c-1.3-2-3.1,0.8-4-0.8c-1.1,4.5-3.3,8.3-5.6,10.5
	c0-3.9,2.5-8.8,3.2-13.3c-1.6-0.6-2,2.9-3.6,3.6c0.4,1.2,0.4,2.9,0.8,4c-0.8,1.1-0.8,3-1.6,4v2.8c-3.4,3.1-2.5,10.6-4.8,14.9
	c0.3-8.6,4.5-16.4,4-26.6c-3,4-3.5,10.4-4.8,16.1v2.4c0.3,1-0.6,1.9-0.4,0.4v-4.8c-3.4,0.7-3.2,4.9-4,7.6
	c-1.5,4.9-3.6,10.2-6.4,13.3c4.6-8.9,8.5-22.1,12.1-33.4c0.9-0.2,0.6,0.8,1.2,0.8c1.1-1,0.4-1.7,0.8-3.6c-2.4,0-3.1,1.7-3.6,3.6
	c-1.8-0.6-1.2,1.2-2.8,0.8c-1.1,1.8-4.3,7.2-1.6,8.9c1.1-0.5,0-2.1,0-2.8c1.4,2.2,0.4-1.2,0.8-2.8c0.5-1.9,2.5-2,2.8-3.6
	c0.1,5.1-3.8,9.6-4,15.7c0.1,1.1-1.1,1-1.6,1.6c-0.5,2.4-1.7,4.2-3.6,5.2c-1.6,2.4-1.9,6.2-4.4,7.6c-0.6-2.8,2.3-5.5,2.8-8.5
	c2.7-0.8,4.1-4.5,3.6-7.2c-0.6-1.3-1,0.8-2,0.4c-0.2-2.6,1.4-3.4,1.2-6c-2.3,3.1-1.9,6.9-2.8,10.9c-1.2,0,0.6-3-1.2-2.4
	c2.3-3.4,1.7-9.8,4.8-12.5c0.5,0.2,0.8,0.5,0.8,1.2c1.1-0.5,1.2-2,1.6-3.2c-1.6-0.1-2.3,1.4-4.4,1.6c-0.2,1.1-0.6,2.1-0.8,3.2
	c-1,0.8,0.3-1.4,0-2.4c-2.5,0.6-2.8,1.7-4.8,0.4c-0.5,1.9-0.6,4.1-0.8,6.8c-2.3,0.2-2,3.1-2,5.6c-0.5-0.1-0.6-0.7-1.2-0.8
	c-1.7,2.8-0.4,8.5-3.2,10.1c1.7-4.8,1.9-11.2,3.6-16.1c-0.2-1-0.9,0.7-0.8,1.2c-0.9-0.7-0.1-3.1-0.4-4.4c-0.7-0.3-0.2,1.5-0.4,1.6
	c-0.5,0.1-0.4-1.2-0.4-1.2c-1.6,0.3-1.8,3.2-0.4,5.2c-0.8,0.3-0.1,2-1.6,1.6c-0.3,2.7-1.7,4.5-2,7.2c0.1,0.7-0.4,0.8-0.4,0.4
	c0-0.6-0.1-1.1,0.4-1.2c0.7-3.6,1.3-7.3,1.6-11.3c0.1-0.8-1.6-1.9-1.6-1.2c0-1.3,0.1-3.5-0.8-5.2c-0.9-1.8-3.2-2.5-3.2-4.4
	c3.3,0.2,5.9,2.6,8.9,3.6c2.9,1,7.8,0.4,11.3-0.8c0.8-0.3,1-1.3,1.6-1.6s1.8-0.1,2.4-0.4c1.5-0.7,2.3-2.1,3.6-2.4
	c0.5-0.3,0.8-0.9,0.8-1.6c6.5-1.1,8.1-7.2,15.7-7.2c9-3.7,21.2-6.9,32.2-10.5c0.9-0.3,2.1-0.6,3.2-1.2c3.3-1.8,7.5-3,12.1-5.6
	c4.5-2.6,9.3-4,9.7-7.2c-1.9-1.1-2.2,1.1-3.2,2c-0.1-2.6,2.6-6,2.4-10.1c-1.3,2-2.4,4.1-2.8,6.8c-1.5,0.5-2.1,1.9-2.8,3.2
	c-1.4-1.3,0.9-2.3,0.4-4c-0.8-0.6-1.7,2.1-2,3.2c-0.6-2.7,2.3-5.5,2.8-8.5c-1.5,0.9-1.6,3.3-2.4,4.8c-1,0.6-1.9,1.4-2.8,2
	c0.1,1.9-0.7,3.1-1.6,4c-1.8,0.1,0.4-1,0-2c-2,0-1.1,2.9-3.2,2.8c2-5.1,5.5-11.7,2.8-20.1c-0.2-1.7,0.9,1.6,1.2,2.8
	c0.5,2.3,0.6,5.8,0.8,7.6c1.6-0.6,0.8-3.5,2.4-4c-0.3-2.1,0.6-2.9,0.4-4.8c1.3,2,0.6,0.2,2-0.4c0.2,2.2-0.3,5.4,0,6.4
	c0.2,0.8,1.1-0.7,0.8,1.2c2.9-2.2,2.2-8,2.4-12.9c0.8,1.3,0.7,2.5,0.4,4c0.8,1.8,1.8,1.4,1.2,4c1.6-1.4,0-3.9,0.8-6.4
	c2.2,1.9,0.3,3.5,0.8,7.2c2-1.2,2.4-4,2.8-6.8c1,2.6-0.3,3.9-0.4,6.8c1-1.8,1.7-3.9,2-6.4c0.9-0.7,2.1,0.9,3.6,0.8
	c-0.7,1.8-1.3,3.8-1.6,6c0.7,1,1.3-1.3,1.6-2c1.2,0.3-0.5,1,0,2c1.4-1.3,2.3-3,2.8-5.2c-0.6-0.8-1.4,1.5-1.6,2.4
	c-1.1-2.1,1.5-3.8,0.8-6.8c-1.6,0-0.4,2.8-2,2.8c-2.7-0.6,0.3-3.7-0.4-6c3.2,2.2,4-6.6,2.8-10.1c0.5-1.2,1.5,0.6,2-0.4
	c0.2-4.7-2.3-6.8-3.2-10.5c-2.4-2.1-6.9-3-8.9-5.2c-1.7,0.2-1.3,1.1-3.2,0.4c1.4-1.7,3.6-0.8,6-0.8c-0.2-3.6-6.6-0.5-8.9-0.4
	c-0.2,1,1.8-0.2,1.2,1.2c-1.4,0.3-2.9,0.3-3.6,1.2c-0.5-0.6,0.9-1.1-0.8-1.6c-0.2-1.9,2.5-1,2.8-2.4c-3,0-4.2,1.8-5.2,3.6
	c-0.1,0.9,1.4,0.2,2,0.4c-0.6,1-2.1,1.1-3.2,1.6c-0.1,1.3,0.7,1.7,0.4,3.2c2.1,0.3,2.6-0.8,4.4-0.8c-0.6,1.4-2.3,0.8-3.2,1.2
	c-1.6,0.6-2.6,2.5-4,4c2.2,1.1,6.7,2.8,10.9,3.2c0.3,1.1,1.7,1,1.6,2.4c-2.9-2.3-7.8-2.7-11.3-4.4c-5.5,3.2-11.8,0.2-17.7,0.8
	c-2.2,0.2-5,2.1-8,2.8c-1.4,0.3-3.1,0-4.4,0.4c-0.7,0.2-1.3,1-2,1.2c-9.9,2.4-20,1.1-28.6,4.8c-7.1-0.4-10.9,7.2-16.5,9.3
	c-2.5,0.9-5.4,0.7-7.6,1.2c-4.1,1-7.8,2.9-11.3,5.6c-8.1,6.4-12.5,15.4-12.5,30.2c0.5,0.4,0.8,0.4,0.8-0.4c1,4,2,6,2.8,9.7
	c1.1-1.2,2.7-3.1,1.6-5.2c1.8-1,1.7-3.9,3.2-5.2c-2.3-3.2-0.5-7.4,2-9.7c-1,2.4-2.5,4.9-1.6,8.1c2.2-0.5,1.5-2.6,2-5.2
	c0.6-3.1,3.5-5.2,4.4-7.6c1.2,0.3-0.9,3-1.6,4.4c-0.9,1.8-1.9,3.4-2,5.2c0.9,1.3,1.2-1.2,2.4-0.8c0.8-4.4,2.5-7.9,5.6-10.1
	c-1.4,3-3.9,4.9-4.4,8.9c3.2-0.9,2.4-5.7,5.6-6.4c-0.9,1.9-2.2,3.4-3.2,5.2c2.6-0.1,4.2,1.6,7.2,2c1,2.6,2.6,4.6,2.8,7.2
	c0.4,6.7-4.7,9.8-10.5,11.3c-2.7,5.8-2.4,16.2-2,25.4c0.8,17.6,2.9,36.1,2,52.7c-0.9-15.8-2.2-33.1-3.2-49.5c-0.6-9.9-1.2-20.5,2-29
	c3.6-0.8,6.1-2.8,9.3-4c2.8-6.7,0.7-13-5.6-13.7c-11.3-1.2-14.8,13.5-14.9,24.1c-0.1,10.5,1.1,20.5,0.8,30.6c-0.1,2,0.7,4.6-0.8,6
	c0.1-7.1,0.6-19.4-1.6-25.4c-2.9,1.6-4.7,4.4-6.8,6.8c0.7,2.9,2.3,5,2.8,8.1c2.9-1.1,2.2-5.9,4.8-7.2c-0.2,3.1-3.5,5.9-3.6,9.3
	c-0.1,2.4,2,5.3,3.2,8.5c3.2,8.1,5.9,17.3,8.9,25.8c2.8,7.8,5,14.8,8.1,20.9c3,13,9.8,22.1,12.9,35c-0.9,0.8-3,0.4-4,0
	c-2.7-6.7-4.2-14.5-8.5-19.7c-0.5,5.8-0.1,10.8,0.8,16.1c-0.9,0.6-2.7,0.3-3.2,1.2c-0.9,0.8-1.4,2.1-2,3.2c-3.3,1.9-5.7,0-9.7-0.4
	c-3.3-2.6-0.9-9-2-13.3c-1.6,0-2.4,0.8-4,0.8c0.4-1.5,2.8-0.9,4-1.6c-0.2-6.9-2.1-12.1-2.4-18.9c-4.8,0.1-7.7-1.7-12.9-2.4
	c-4.8-0.6-9.9-2.5-14.9-4c-4.7-1.4-9.5-3.7-14.1-4.4c-8.9-1.4-18.7-3-29.4-4.4c-0.3,7.2,0.7,17.5,2.4,25c6.4-2.5,12.2-5.8,18.5-8.5
	c0.8-0.1,0.8-1.1,1.2-1.6c6.3-0.4,8.9-4.5,14.9-5.2c-5.9,3.9-13.4,6.2-20.1,9.3c1.9,0,4-0.5,6-1.6c1.4-0.8,2.4-1.5,4.4-2
	c0.8-0.2,1.7,0.2,2.4,0c2.5-0.7,5-2.4,8.1-2.4c-3.4,2.1-8.4,2.6-12.1,4.4c0.1,0.7,0.7,0.9,1.6,0.8c-0.1,1.2-2.1,0.6-2.4,1.6
	c0.9,0.9,2.6-0.8,4-0.8c0,1.4-2.1,0.6-2,2c7.5,0.2,13.5-4.5,20.5-6c-1.1,2.1-4.1,2.4-6.4,3.2c-2.3,0.8-4.5,2.2-6.8,2.8
	c-4,1-8.9,0.3-11.3,3.6c-1.9-1.3-5.8,0.4-7.6,1.6c-3-0.2-4.4,1.2-6.8,1.6c1.8,1.8,4.9-2.4,6,0c2.7-1.3,5.9-2.2,9.3-2.8
	c1.1,1.6-3.6,0.7-3.6,2.4c-3.5,0.4-6.1,1.7-8.5,3.2c-3.2-0.3-6,2-8.1,1.6c0.4-1.9,3.3-1.2,4.4-2.4c-1.1-0.9-2.4,1.3-4.4,0.8
	c0.9-1.2,2.7-1.6,4.4-2c0.2-1-1.8,0.2-1.2-1.2c4.7-1.6,9.3-3.3,13.3-5.6c-2.9-0.2-6,1.6-8.9,2.8c-2.9,1.2-6.1,2.3-8.5,4
	c-0.9,0.6-1.5,2.1-2.8,2c0.3,1.2,1-0.5,2,0c-0.6,2.2-3.5,4.5-6.4,4c0.7-1.6,3.8-0.7,4.4-2.4c-1-1.3-2.1,0.5-2.8,0.8
	c-4,0.5-5.9-1.1-9.3-1.2c-2-2.2-1.8-4.5-2-8.9c-0.6-11.8-3.4-24.1-5.2-34.6c-4.7-1.5-10.5-1.8-16.1-2.4c-1.9,2.3-1.2,6.2-1.2,9.7
	c0,3.8-0.3,7.9,0,11.7c0.8,9.9,2.4,18.8,2.8,30.6c0.2,1.4-1.4,1-1.2,2.4c1,5,3,9.1,6.4,11.7c-0.3,0.9-1,1.4-0.8,2.8
	c7.7-3,17.1-6.8,25-10.5c0.8-0.4,1.7,0,3.2-0.4c2-0.6,3.7-1.9,5.6-2.4c2.3-0.7,4,0.2,5.6-1.2c1-0.9,3.1-1.5,5.6-2
	c4.4-0.9,7.7-4.5,13.7-4.4c-19.5,7.4-40.1,13.8-58.8,22.1c5.8-0.2,11.3-4.2,17.7-5.2c0.9-0.3,1-1.4,1.6-2c2.8-0.7,5.4-1.6,7.6-2.8
	c1.4,0.8-1.2,0.9-1.2,1.6c7.8-1.7,14.1-5,21.3-7.2c-0.1-0.5-1-0.3-1.6-0.4c1.4-0.9,4.3-2,6-1.2c-1.1,1.2-3.7,0.8-4,2.8
	c-0.6-0.1,0.4-0.7-0.4-0.8c-3.2,3-8.9,3.4-13.3,5.2c-0.1,1.1,1.6,0.3,1.2,1.6c3.1-0.7,6.5-1.4,9.7-2.4c4.2-1.4,8.4-2.6,10.9-5.2
	c-3.7,0-4.2,3.3-8.5,2.8c0.6-1.2,2.4-1.1,3.6-1.6c-2.8-0.5,1.8-1.9,4.8-2.8c2.3-0.7,5.1-1.5,6.4-1.6c0,0.8-1.3,0.3-1.2,1.2
	c2.9-0.2,4.7-1.4,7.6-1.6c-1.8,2.3-7.3,0.8-8.1,4c-3.9,0.5-6.1,2.7-10.1,3.2c-0.8,0.1-0.8,1.1-1.2,1.6c-8,1.5-15.4,3.7-22.1,6.4
	c10.9-2.7,25-3.9,35.4-8.9c1.2-0.3,1.5,0.4,2.4,0.4c0.9-1.5,2.8-2,5.2-2c-2.3,3.1-7.2,3.8-12.9,5.2c-4.6,1.1-8,1.8-12.9,2.8
	c-2.1,1.4-5.4,1.6-7.2,3.2c-1.3-0.1-2.4-0.3-2.4-1.6c-5.7,1.3-10.5,3.4-15.7,5.2c4.1,0.2,8.6-2.7,13.3-3.2c-5,2.5-11.5,3.5-16.5,6
	c-3.6-1.2-7.7,2.2-12.1,2.4c-1,0-2.4-0.6-3.2-0.4c-1.7,0.4-1.7,1.5-3.2,2.4c-1.7,1-5.3,2.6-6.8,2.8c-1.5,0.2-3.1-0.4-4.8-0.4
	c-7.6,3.6-12.3,10-20.5,13.3c-2.3,0.9-4.8,2-7.2,2.8c-5.1,1.7-10.5,4.4-17.3,4c-0.3-1.5,0.9-1.5,0.8-2.8c6.5-3.9,12.5-8.2,18.5-12.5
	c-0.5-1.7,0.8-1.6,0.8-2.8c8.8-6.6,14.5-16.3,20.1-26.2c-6.1-1.9-13.1-3-20.9-3.2c1.2-17,2.6-33.5,2.8-49.9
	c-8,6.1-12.1,19.6-17.7,29.4c2,9.3-3.4,14.5-6.8,19.7c-2.9,1.1-5.9,1.4-9.7,0.8c-0.8-0.6-0.7-2-1.2-2.8c-5.5-1.2-10.5,0.1-15.3,0
	c-10.1-0.3-19.8-5.2-27.8-8.5c-2.7-1.1-5.9-1.7-7.6-4c1.5-3.2,5.9-1,8.9-0.8c4.5,0.3,9.6-0.1,13.3,0c14.7,0.5,26.4-5.7,35-12.5
	c-3.6-4.4-7.2-8.9-14.1-10.1c2.8-6.4,7.3-11.3,11.3-16.5c2.1-6.3,6.6-10.3,8.9-16.5c-6.4-1.2-15.6-1.5-21.7-1.6
	c0.2,0.9,2,0.2,2.8,0.4c-0.6,1-4.8,0.2-6.4,0c-2.7-0.3-6.1,0.4-7.2-1.2c2.9,0.6,6.1,0.9,9.7,0.8c-0.4-1.4-3.6,0.1-3.6-1.6
	c2,0.2,3.1,0.9,4.8,0.4c-8.7-1.7-18.5-2.5-27.8-3.6c17.4-0.5,33.2,4.1,49.9,5.6c5.9-8,8.4-18,13.3-26.6c4.9-8.7,9.4-17.4,13.3-26.6
	c6.7-9.4,10.9-21.3,18.1-30.2c6.5-3.7,16-3.9,20.9,1.2c2.1-1.1,3.7-2.7,5.2-4.4c-4.4-7.5-0.4-22.5,5.2-27c0.7-0.6,5.2-2.9,6-3.2
	c4.2-1.5,8.2,0.9,13.3-0.8c6.5,2.3,12.6,0.9,19.3-0.4c-6.7,3-12.8,3.8-20.5,2c-0.9,1.8,3.1,2.2,2.4,4c3.4,0.6,7.9,0.2,10.5-1.2
	c-2.3,3.1-8.4,1.7-12.1,4c-4.5,2.9-5.2,12.8,0,15.3c2.5,1.5,4.9,1.5,8.5,2.8c0.9,0.3,1.6,1.3,2.4,1.6c2.1,0.7,4.5,0.7,6.4,1.6
	c0.9,0.4,1.6,1.2,2.4,1.6c0.9,0.5,2.1,0.8,2.8,1.2c3.2,2,4.1,5,9.3,3.2c-2.5-3.7-8.1-4.2-11.3-7.2c4.3,0.7,6.6,3.4,10.5,4.4
	c1.2-0.3-0.2-1.3,0-2c-2.4-1.6-7-2.4-10.1-3.2c-2.4-0.6-4.8-0.2-5.2-2.8c1.5-1,3.1,0.8,4,1.6c4.5,1,8.1,2.9,13.3,3.2
	c1.1-0.3,0.9-2.1,1.6-2.8c-6.4-2.1-14.2-2.8-17.3-8.1c0.8-1.8,2.3,1,2.8,2c2.8,0.6,4.4,2.3,7.2,2.8c1-0.9,1.4-2.4,2.4-3.2
	c-3.8-3.1-9.9-4.1-11.3-9.7c2.4,2.9,8.1,2.6,12.1,4c1.5-0.5,2.2-1.8,2.8-3.2c-1.3-1.9-3.6-1.2-5.6-2c-3.7-1.4-5.8-4.6-10.9-3.2
	c2.4-1.8,6.8-0.2,9.3,0.4c1.8-1.2,5.3-0.6,6.4-2.4c-4.9,0.5-11-0.7-14.9-2.4c0.1-1.2,1.7-0.7,2.8-0.8c-2.6-7.4-5-14.9-8.5-21.3
	c-1.1-0.2-2.1-0.6-3.2-0.8c-1.4-1.6-2.6-3.7-2.4-6c0.1-1.9,1.9-5.2,3.2-6c1-0.6,4.6-1.3,5.6-1.2c2.8,0.3,5.2,3.2,4.4,6.8
	c-1.6-0.4-1.4-2.7-2-4c-6.9-5-14.1,6-6.8,9.7c2.7-0.6,3.3-3.7,6.8-2.4c1.3,0.1,0.2-2.2,2-1.6c0.2,1.6-1,1.7-1.2,2.8
	c1.2,4.6,3.5,9.1,4.8,13.7c0.5,1.6-0.1,3.8,1.6,4.8c2.6-0.6,4.9-2.1,7.2-3.6c2.1-1.4,4.7-3,6.4-4.4c2.4-2,3.8-6.2,5.6-9.7
	c0.5,1.8-2.1,4-2,6.8c-3.9,4.2-8.1,8-13.7,10.5c-0.8,1.2-3,1.1-3.2,2.8c-3.6-3.3-1.8-11.9-7.6-12.9c-0.5,0.1-0.6,0.7-1.2,0.8
	c1.3,5.7,3.7,10.2,5.2,15.7c1.9,0.8,3.8,2.3,5.2,0.4c0.4,2.4,5,0.7,7.2,1.2c0.5,1.7-0.8,1.6-0.8,2.8c4.7-0.6,10.7,0,15.3-0.8
	c0.4-2-0.5-2.7-1.2-3.6c2.7-6.2-7-6.2-7.2-12.1c2.1,1.3,1.9,4.8,5.2,4.8c0.2-2.9-2.4-6.4-1.6-11.3c1.7,3.4,1.5,8.7,3.6,11.7
	c1.9-1.1,0-2.6,0-4c-0.2-5.1,1.8-10.9,3.2-14.9c0,3.3-1.4,6.6-1.6,10.5c-0.3,5.5,1.4,11.8,1.2,18.1c2.6-1.4,2.2-4.2,2.4-8.1
	c0.5-8.6,3.6-17.2,6.8-22.9c-2.4-1.3-4-3.7-6.4-3.6c-3.8,0.1-5.3,5.1-8.1,6.8c1.8-3.7,4.4-9.1,8.9-8.9c3.2,0.2,3,3.3,6.4,4
	c1.5,0.3,0.9-1.5,2-1.6c-0.9-13-0.7-26.2,3.6-36.2c1.5-3.5,3.8-6.8,5.2-10.9c1.2-3.4,1.3-7.3,2.8-10.1c0.7,0.1,0.9-0.5,1.6-0.4
	c-0.1-3.9,3.8-3.7,4-7.2c2-1,3.6-2.3,4.8-4c-2-2.7-5.4-7.6-2.8-11.3c2.9,0.7,7,3.3,11.7,2c4.2-1.1,6.1-8.6,8.5-12.5
	c0.8-1.3,1.9-2.5,2.8-4c0.8-1.3,1.6-2.7,2.4-4c2.2-3.7,3.8-8.4,8.5-8.9c4.9-0.5,10.6,2.7,14.5,4.8c4.1,2.2,8.4,4.9,10.9,8.5
	c4.1,5.9-3,13.4-6.8,18.5c-1.7,2.3-3.4,5.2-5.6,7.2c0,3.3-1.8,6.3-0.8,9.3c-1.7-1.1-1.8-3.2-2.8-4.8c-1.4-2.2-3.6-3.9-4.4-6.4
	c-6.2-4-11.2-8.3-21.3-7.6c-3.8,0.2-7.6,1.5-13.3,1.2c-1.5-0.1-2-1.3-3.2-1.6c-0.8,3.2,1.2,6.8,2.8,8.9c1.1-0.4,2.1-0.9,3.2-1.2
	C256,38.2,252.3,40.3,250.8,42.3L250.8,42.3z M229,131.7c0.3-4.3,2.2-8.7,1.2-13.3c-2.5,0.6-1.6,4.6-3.6,5.6c0.6-5.3,5.2-6.6,4-13.7
	c-2.3,0.2-3.2,1.6-4,3.6c-0.5,1.2-0.4,3.1-0.8,4.8c-0.4,1.6-1.4,2.9-1.6,4c-0.1,0.7,0.2,1.8,0,2.4c-0.8,2.8-3.3,8.4-1.2,11.7
	c1.1-1.3,0.7-4.1,2-5.2c-0.1,2.6-1.1,4.2-1.6,6.4c-0.8-0.2-0.8-1.2-1.6-0.4c0.4,1.5-0.7,2.6,0,3.2c9.8-0.6,17.5-3.2,25-6
	c0.4-1.2,1.3-1.9,2-2.8c1.3-0.1,1.3,1.1,2.8,0.8c2.1-1.3,4.5-2.3,6.4-3.6c1.6-5,5.5-9.5,8.5-12.9c0.9-1.1,3-3.3,2-3.6
	c-10.1,4.8-18.8,11-26.6,18.1c-3.4,1.5-6.1,6-9.7,6c2.7-2.3,5.6-4.4,8.5-6.4c-0.9-5.3,0.5-8.6,3.6-10.9c-0.8-1.6,0.5-3.1,0.4-5.2
	c-2.3,0.8-3.7,3.2-5.2,4.8c-3.5,3.8-5.8,7.9-7.6,12.9c-1,2.6-1.3,6.4-3.2,6.4C230.2,136.4,228.8,134,229,131.7L229,131.7z
	 M253.2,106.3c-0.1-1.3,0.7-1.7,0.4-3.2c-2.3,0.1-4,2.2-6.4,2.8c-1.6,0.4-3.8-0.7-5.2,0.8c-0.6,1.7,1.1,3.1,0,4
	c-3.1-1.4-4.7-4.5-8.1-5.6c-2.3,1.2-2.5,2.7-2,6c1.7-0.1,1-2.5,2.8-2.4c1.1,2.2,4.5,4.4,4.8,6c-3-0.3-2.4-4.3-5.6-4.4
	c-3.5,3.9-2.6,14.3-3.2,19.7C236.5,120.5,243.7,112.3,253.2,106.3z M280.9,9.3c0.7-3.2,3.8-4,4-7.6c-2.2-0.5-2.9,0.2-4.8,0.8
	c-3.2,7.8-7.9,14.1-11.7,21.3c4.8,0,5-4.6,7.6-6.8c1.2,1.2,2.2-3.4,3.2-2.4c-0.6,2-2.2,2.9-2.4,5.2c-0.8,0.6-3.5,2.8-0.8,3.2
	c-0.2-3.5,3.6-6.2,5.2-9.3c0.7-0.1,1.3-0.3,1.6-0.8c-0.5-0.9,0.4-3.8,2-4c0.1,0.7-0.4,2,0.8,1.6c0.5-1.2,0.6-2.9-0.4-3.6
	c-2.4,1.4-3.3,4.3-5.2,6c0.9-1.5-0.4-2.3-1.2-3.2C279.4,9.4,280,9.2,280.9,9.3z M299.1,6.9c-3.4-0.7-4.9-3.1-9.3-3.6
	c-0.6,1.7-1.1,2.4,0.4,2.4c-2.5,3.7-5.3,9.2-8,11.3c0.4-0.4,2-1.7,0.8-2.4c-0.8,0.8-0.8,2.5-2.8,2c0.4,3.6-2,4.4-2.4,7.2
	c4.4-0.3,7.2,3,10.1,2.8c0,0.6,1,0.3,0.8,1.2c2.7-0.4,3.3-5,5.2-4.8c0.3,1.9-3.4,4-2.8,6c0.8-1.6,2.7-2.1,4-3.2
	c-0.2-1.8,0.6-2.6,2.4-2.4c-1.6,2.4-4.1,3.9-4.8,7.2c2.6-1.9,3.9-5.2,5.6-8c-0.3-0.1-0.8,0-0.8-0.4c1.8,0,2.4,0.2,4,0
	c0.4-1.7-2-0.7-2-2c0.1-1.4,2-1,1.6-2.8c-1.4-0.1-2,2.8-2.8,0.8c0.5-0.4,1.5-0.4,2-0.8c-0.3-2.9,1.8-4.4,3.6-6
	c-1.3-1.1-2.9-1.9-4-3.2c-1.5,1.5-2.1,3.8-4,4.8C296.7,10.7,299,9.9,299.1,6.9L299.1,6.9z M301.5,16.9c1.1-0.7,4.1-3.5,2.4-4.4
	C303.6,14.5,301.5,14.7,301.5,16.9z M305.1,16.1c1.4,1.5-0.5,1.9,0.4,3.2c1.4-1.1,3.3-4.2,0.8-4.8C306.4,15.5,305.7,15.8,305.1,16.1
	z M303.1,18.6c0.4-0.6,0.6-1.3,1.6-1.2v-0.8c-0.4,0-0.5-0.3-0.8-0.4C304,17.1,302,17.9,303.1,18.6z M307.9,18.2
	c-3.6,6.8-9.5,11.4-11.7,19.7c2.1-0.5,2.7-2.8,3.6-4.4c2.2-3.7,4.6-6.8,6.8-10.1c1-1.5,3.1-3.2,2.4-5.2
	C309.1,18.2,307.9,18.2,307.9,18.2z M295,29.8c0.7-1.3,2.1-1.9,2.4-3.6C296.3,26.8,294.8,29.2,295,29.8z M255.2,45.1
	c-4.4-3.2-11.1,1.8-10.9,7.2c1.1,1,2.1,1.6,1.2,3.6c1.4,1.9,6.3,3.2,6.8-0.4c-0.6-1.3-4.2-1.7-2.8-3.6c1.3,0.7,1.8,2.2,4.4,1.6
	C255.7,50.7,258.1,47.2,255.2,45.1L255.2,45.1z M283.4,48.7c-0.2,2,2.5,1,4,1.2c0.6-1.7-2.2,0.1-1.6-1.6c0-0.2-0.1-0.5-0.4-0.4
	C285.8,49.3,284.1,48.6,283.4,48.7z M283.4,51.2h0.8c0.6-1-1.4-1.2-1.2-0.4C283.2,50.8,283.4,50.8,283.4,51.2z M231.8,87
	c-0.4,6.6-0.6,12,0,18.5c1.7-0.1,1.9-1.6,3.6-1.6c2.2,1,3.4,3.1,5.6,4c0.4-1.8-0.8-3.1,0-4c4.4,2.5,9.2-0.7,12.9-1.6
	c0.1-3.1,1-8.2,0-12.1c-4.7,1.1-8.4,3.2-14.5,2.8c-3.2-2.3-2.8-5.3-2-8.5c1.5-6.4,4.5-10.9,5.6-16.9c0.2-1-0.1-2.1,0-3.2
	c0.6-5.3,2.9-9-0.4-12.5C240.7,64.1,232.8,72.8,231.8,87z M244.3,63.2c1.8-1,3.6-2.1,4.4-4C246.1,56.7,243.9,59.4,244.3,63.2z
	 M278.1,81.8c-5.2,4.9-14.2,6-18.1,12.1c0.2-2.3-0.7-4.6-4.4-4c0.6,5.7-1.3,11.7-1.2,18.1c1.7,0.5,3.6,0.7,5.2,1.2
	c3.2-0.4,5.8-2.5,9.7-3.2c0.8-0.1,1.6,0.4,2.4,0.4c3.2-0.2,7.3-1.3,8-4c0.3-0.9-0.3-2.3-0.4-3.2c-0.4-4.8,0.3-11.2,0-17.3
	C279.3,81.8,278.1,81.8,278.1,81.8z M247.9,116.8c0.5,0.6,1.7,0.4,2.8,0.4c0.4-1.1,0.4-1.7,0-2.8
	C248.8,114.2,248.5,115.5,247.9,116.8z M360.6,174.3c-0.1,1.2-2.4,2.4-1.6,3.2C359.6,176.8,361.6,175.3,360.6,174.3z M311.5,216.6
	c-1-0.5-1.3,1.6-1.6,0.4c0.1-0.7,1.3-3.3-0.4-3.2c-1.8,4-6.5,7.1-5.6,12.5c1.5-0.3,1.9-1.8,2.4-3.2c1.9-0.4,2.9-1.6,3.2-3.6
	c-1.5-1.3-1.1,1.8-2.8,1.6c1.2-1.5,2.4-3.6,4.4-3.2C311.1,217.2,311.3,216.9,311.5,216.6L311.5,216.6z M307.1,212.2
	c1.5-0.4,1.2-2.5,1.6-4c-1.6-0.1-2,2-2.4,3.2c-0.8,2.5-1.1,6-1.2,7.6C306.4,217.4,308.4,215.1,307.1,212.2L307.1,212.2z M289.8,211
	c0,0.2-0.1,0.5-0.4,0.4c0,0.5,0.1,1,0.8,0.8C290.1,211.7,290.3,211,289.8,211L289.8,211z M275.7,228.3c-1,2.8-1.9,5.6-2.8,8.5
	C274.5,235,277.3,230.6,275.7,228.3z M108.7,343.4c-2.3,3.2-4.5,4.8-6.8,7.2c-1,1.1-1.6,2.3-2.8,3.2c-1.7,1.2-3.3,1.5-4,3.2
	c2.8-0.7,5.4-0.1,7.6-0.4c7.5-0.8,11.8-5.4,17.3-8c0.9,0.7,0.5,2.7,1.6,3.2c0.7-0.7,0.3-2.4,0.4-3.6c3.7-1.3,6.3-3.6,9.3-5.6
	c-1.2-5.1-5.9-6.7-6-12.9c-2.7,0.8-7,0.7-9.3,0.8C113.3,335.1,111.3,339.6,108.7,343.4L108.7,343.4z M181.9,116
	c1.6,0,2.9-0.3,3.2-1.6C184,113.5,181.5,114,181.9,116z M182.3,116.8c-0.5,2.1,1.3,1.9,0.8,4c1.3,0,2.2-0.5,2.4-1.6
	c0.1-0.9-1.2-0.4-1.2-1.2c0.3-0.6,2,0.1,1.6-1.2C184.7,116.1,183.8,116.6,182.3,116.8z M184.3,122c0.8-0.6,2.7,0,3.2-0.8
	C186.8,120.1,184.2,120.1,184.3,122z M342.1,128.4c-0.7-0.2,0.1-0.5,0-1.2h-1.2C340.5,128.3,341.8,129.5,342.1,128.4z M342.5,131.7
	c1.9,0,2.3-1.5,3.2-2.4C344.2,129.6,342.4,129.7,342.5,131.7z M349,130.1c0.9,0.8,2.8,0.2,3.6-0.4C351.1,129.4,349.9,129,349,130.1z
	 M262.8,135.7c-2-4.7-6.9-6.3-10.1-1.6c3.5,1.2,5.2,4.2,6.4,7.6c1.5,0.1,2.6-0.1,3.6-0.4v-5.6H262.8z M264,133.3
	c0.4-1.7-1-1.7-2.4-1.6C261.3,133.3,263.2,134,264,133.3z M342.5,132.5c-0.1-0.3-1.1-0.5-1.2,0C341.1,133.4,342.9,133.3,342.5,132.5
	z M214.9,149.4c-2,1.1-4.3,1.2-6.4,2.4c-2.9,1.6-5,4.4-7.2,6.4c-0.9-0.7-3,0-2.8,1.6c5.2,1,7.7-2.5,12.5-4.8c2-0.9,4-1.5,5.2-2.4
	c2.4-1.8,3.5-6.2,6.8-5.2c-4.6,2.6-6.9,7.3-12.1,9.3c-0.8,5.4-6.5,5.8-8.1,10.5c7.5-0.4,9.7-9.6,16.9-11.7c0.4-1.1,0.8-2.1,0.8-3.6
	c1.8-0.6,1.5-3.4,3.6-3.6c-1.9,1.7-1.8,4.2-3.2,6.8c-1.1,2-3.6,3.7-4.4,5.6c-0.6,1.5-0.4,3.7-0.8,5.2c-0.6,2-2.9,4.2-1.2,6
	c1.8-1.8,3.5-5,4.8-7.2c0.5-0.8,0.7-2.5,1.2-3.2c0.9-1.3,3-2.5,4.4-4c2.1-2.3,3-4.6,5.6-4.8c5-0.5,8.3-0.8,11.7-2.8
	c3.1-1.8,4.8-4,7.6-4c3.3,0,5.8,3.8,8.9,1.6c0.4-6.5-3.6-12-9.3-13.7c-1.9,0.1-1.7,2.3-3.6,2.4c-7.1,2.3-13.2,5.6-22.9,5.2
	c-4.2,2.9-12.3,2.8-19.3,2.8c-2.9,0-5.9-0.7-8.1,0.8c2.6,1.9,7.6,1.5,10.9,2.8c1.5,0.6,0.8-1.1,2-0.8c6.5,3.3,10.6-3.5,14.9-2.4
	C219.2,144.9,217.5,148,214.9,149.4L214.9,149.4z M143.7,156.6c0,0.6,0.7,1.6,0.8,2.4c0.1,1-0.5,2.2-0.4,2.8
	c0.4,1.8,1.9,3.6,2.8,5.2c2.8-0.6,5.1-1.6,8.9-1.2c2.4-2.9,0.9-6.9,1.6-10.1c1.2-6,5.9-11.6,10.9-14.1
	C156,134.4,143.9,145.2,143.7,156.6z M265.2,142.5h2c0-1.6-0.1-3.2-1.6-3.2C265.4,140.3,265.1,141.1,265.2,142.5z M258.4,162.3
	c0.3-6.9,5-9.5,5.2-16.5c0.5,0.1,0.8,0.6,1.6,0.4c-0.3-1.1,0.6-1,0.4-2c-1.6-0.9-4.5-1.9-6.4-1.2c-0.6,2.6,1.3,2.7,1.2,4.8
	c-2.3-0.6-1.7,1.8-3.6,1.6c-1.5-0.3-2.7-1.1-4.8-0.8c-0.5,1.3-1.5,2-1.2,4c1.3,0.5,0.3-1.3,1.6-0.8c-1,1.8-0.7,3.4-0.4,5.2
	c-0.3,0.5-2.4,2.6-1.2,2c1-0.5,0.9-2,2.4-2c-0.2,1.5-1.9,1.6-2,3.2c1.8,0.1,1.1-2.4,2.8-2.4c-1.4,2.9-4.3,4.2-4.8,8.1
	C251.6,164.1,256.3,164.5,258.4,162.3L258.4,162.3z M259.2,162.7c2.9,0.1,2.7-3.9,3.6-6c0.8-2,3.6-4.6,1.6-6.4
	C261.5,152.7,259.3,158.8,259.2,162.7z M161,166.7c-1.7-0.4-1.8,2.2-2.8,1.2c1-1.2,1.3-3,2.8-3.6c1.4-5.9,1.7-13.1,4.4-17.7
	c0.7-0.9,2.3-0.9,2.4-2.4c-2.2-0.8-5.9,3.3-6.8,4.8c-1.4,2.2-2.2,5.9-2.4,8.5c-0.4,4.6-0.3,7.1-2.4,9.3c-6.1,1.3-12.7,2-15.7,6.4
	c0.8,1.6,2.7,1.3,4,2c2.3,1.2,3.9,3.2,6.4,4c5.6,1.9,9.9,3.1,15.3,4.4c1.9,0.5,3.3,0.8,4.4,1.2c1.7-0.5,1.6-2.7,3.2-3.2
	c-0.4,1.6-2.1,1.9-2,4c2.6,1.5,3.1-0.7,4.4-0.8c-1.2,2,1.9,0.2,0,2c2.3,1,5.3,1.4,7.6,2.4c0-2.4,2.6-2.1,3.2-2.8
	c-0.7,1.1-2,1.8-1.6,4c2.4-1.2,2.1-5.2,4.8-6c-0.9,2.2-3.1,3.1-2.8,6.4c3.4-1.7,3.5-6.6,6.4-8.9c-2.4,2.7-0.9,6.8-2.8,10.1
	c3.5-0.6,2.5-5.9,4.8-7.6c1.8,2.4-1.4,4.8-1.6,7.6h-1.6c-0.1,1.3,1,1.4,2,1.6c1.1-4,3.7-6.5,5.2-10.1c0.2,2.2-2.1,4-1.2,5.6
	c2.1-1.8,4-7.6,2.8-10.1c-0.6,0.7-0.2,2.5-1.2,2.8c0.1-2.3,1-5.6,0-7.6c-1.9-0.5-0.6,2-1.6,2.4c0.1-1,0.1-1.9-0.4-2.4
	c-2.3,0.2-3.9-1.2-5.6-0.4c0.4-1.3-0.6-1.3-1.6-1.2c-1-2-3.2-2.8-5.6-3.2c-1.8-3.3-8-2.2-10.1-5.2c-2.4-0.1-4.4-0.5-5.6-1.6
	c-1.4,1-2.9,2-5.2,2c-1.2,1.1-3.3,3.4-4.4,3.2C160.8,167.8,160.7,167,161,166.7L161,166.7z M229.4,154.2c-2.6,5.4-2.4,12-3.2,18.1
	c-1.2,8.4-4.1,16-5.6,23.3c1.2,0.9,2,1.8,3.6,2.4c1.6,0.6,4,0.2,5.6,0.8c0.8-15.3,6.9-25.3,16.5-31.8c0.4-1.6,0.4-2,0-3.6
	c0.8-1,1.4-2.1,2-3.2c-0.2-4.8,3.1-9.8,1.6-13.3C242.5,148.7,239.6,155.2,229.4,154.2L229.4,154.2z M266.1,150.2
	c1,0.9,0.7,3.1,2.8,2.8c0-1.9-1.2-2.5-2.4-3.2c0.9-1.1,0.8-2.4-0.8-2.8C264.6,147.4,264.4,150.3,266.1,150.2L266.1,150.2z
	 M200.4,155.8c4.1-1.9,7.4-4.6,11.7-6.4c-3.1-0.5-5.4-0.5-9.3-0.8C202.8,151.8,200.4,152.5,200.4,155.8z M199.6,156.2
	c0.5-3.5-5.6-3.8-8.9-4.8C192.8,154,195.8,155.4,199.6,156.2z M365.9,156.2c0.6-1.1,1.4-3.7,0-4.4
	C365.8,152.9,364.1,155.9,365.9,156.2z M265.2,157c-0.7,1.5-2.8,3.5-2,5.2c2.6-1.2,5.1-2.4,6.4-4.8c-1.3-1.7-1.5-4.4-4-4.8
	C265.7,154.3,263.4,156,265.2,157z M219.8,165.9c-1.4,8.9,0.5,22.8-2.4,30.6c2.6-1.6,2.9-5.6,3.6-8.5c2.5-10,3.4-21.2,6-30.6
	c-0.1-0.3,0-0.8-0.4-0.8C224.6,159.7,220.4,161.4,219.8,165.9L219.8,165.9z M365.5,161c-0.2-1.5,1.6-3.2,0-3.6
	C365.5,158.7,363.7,160.5,365.5,161z M207.7,160.6c0-0.6,0.2-0.9,0.4-1.2c-0.5-0.5-1.4-0.5-2.4-0.4
	C205.8,160.2,206.4,160.7,207.7,160.6L207.7,160.6z M214.1,176.3c0.2,1-0.5,2.9,0.4,3.2c0.8-2.1,1.6-4.3,2.8-6
	c-0.3-0.5-0.5-1.1-0.4-2c-1.9-0.1-2,1.7-4.4,1.2c0.9-4.7,2.9-8.4,3.2-13.7c-1.9,0.7-2.9,2.2-3.6,4c0.6,0.6,2.1,0.3,2,1.6
	c-1.7,1.4-2.5,3.7-4.4,4.8c-1.9-1-3.1-0.5-5.2-0.8c1.2,7,5,10,5.2,17.3c0.5,0.6,1,1.1,1.6,1.6c-0.3,0.9-1,3,0.8,2.8
	c0-4.6,0.1-6.8,1.2-10.5c-1.5-0.3-0.5,1.9-1.6,2C212.2,179.8,212.8,177.7,214.1,176.3L214.1,176.3z M198,161.8
	c2,1.7,7.6,3.3,8.1-0.8C203.6,160.2,200.7,161.6,198,161.8z M162.6,163.1c1-0.3,1.6-1.1,2.4-1.6C163.8,161.6,163,162.1,162.6,163.1z
	 M161.4,166.3c2.1-1.7,4.9-2.6,6.8-4.4C165.9,161.7,162.3,163.6,161.4,166.3z M209.7,165.5c1.3,0.6,3.3,0.6,3.2-1.2
	C211.7,163.1,210.1,163.8,209.7,165.5z M205.7,167.9c2.1-0.5,3.8,1.1,5.2,0C210.9,164.5,206.4,166.3,205.7,167.9z M200,168.7
	c1.1,4.4,2.4,8.6,4.4,12.1c2.8,11.5,7.2,22.6,11.3,33.4c4.2,11.1,8,22.1,12.1,33c8,21.9,16.2,43.5,24.1,65.6
	c2.8,2.6,3.4,6.8,4.8,10.5c0.7,1.8,1,4.6,3.2,4.8c-7.2-19.9-14.6-40.4-21.7-60c-2.4-6.7-4-13.7-7.6-19.7c-0.3-3.8-2-7.2-3.2-10.5
	c-4-10.4-8-19.5-10.9-30.6c-2.2-2.7-2.5-6.5-3.6-10.1c-2.1-6.8-4.6-13.8-6.8-20.5c-1-3.1-1.6-7.9-5.2-8.9c-0.1-0.3-0.3-0.5-0.8-0.4
	C200,168,199.3,168.4,200,168.7L200,168.7z M358.2,171.5c0.5-0.3,1.7-3.3,0.8-2.4C358.7,169.6,357.5,171.2,358.2,171.5z
	 M161.4,184.8c-7.4-3.5-16-6.5-23.3-10.1c-5.1-2.5-8.8-6-15.3-4c-4.2,1.3-6.4,4.2-8.5,8.1c-5.6,10.3-10.6,19.9-15.7,29.4
	c-2,3.7-3.8,7.7-5.6,11.7c-3.7,7.8-7.9,15.2-11.3,23.3s-7.6,15.7-11.7,22.9c-4.4,7.7-10.2,14-14.1,20.9c6.6,1,9,7.1,13.3,10.5
	c2.8,2.2,6.1,3.3,8.1,6.4c2.8-6.6,5.9-12.8,9.7-18.5c1.4-2,3.5-3.9,4-5.6c0.9-3.3-0.6-6.7,0.4-10.5c0.2-1.6,1.6,0.5,1.2-1.6
	c-1.3-1.9-0.8-10.8,0.8-13.7c0.5,3.9-0.9,12.2,0.4,15.7c1.1-4.8,0.6-10.3,0.8-14.9c0.2-2.7,1.6-5.4,0.4-7.2
	c2.3-2.2,0.6-7.7,1.6-11.3c0.3-1.2,1.4-1.6,1.2-2.8c0.2-1.3-2-0.1-1.6-1.6c2.5-7.6,1.4-18.7,4.4-25.8c1.3-1.4,3.9-3,4-4.4
	c4.7,0.8,7.5-1.1,10.5-1.6c2.8-0.4,5.8,0.6,8.1-1.2c-3.6-1.9-9.4-3.7-10.9-6.4c4,0.5,7.4,4,11.7,5.2c2.1,0.6,4.4,0.2,6.4,0.8
	c2.5,0.7,3.9,3,6.4,2.4c-2.6-1.9-5.9-3-8.1-5.2c-0.9-0.9-0.9-2.3-1.6-3.2c-0.8-1-2.3-1.6-3.2-2.8c-0.9-1.2-1.7-2.5-2-4
	c3,2.6,5.4,5.2,8.1,8.1c1.3,1.4,2.4,3.5,3.6,4.4c1.2,0.9,3.1,1.1,4.4,2c1.3,0.9,2.4,2.3,3.6,3.2c6.3,4.9,13.5,9.2,19.7,13.7
	c1.3,0.9,2.3,2.3,3.6,3.2c1.4,0.9,3.4,1.1,4.8,2c4.9,2.9,9.2,7.2,14.5,9.7c1.9,0.9,3.7,1.4,5.6,2.4c5.6,2.9,11.4,5.3,17.3,7.6
	c0.9,1.1,2.1,1.9,3.6,2.4c4.2-3,7.4-7.1,10.9-10.9c-4-10.5-8.3-20.6-12.1-31.4C194,196,179,189,161.4,184.8L161.4,184.8z
	 M346.1,175.5c0.5-0.7,0.8-3.8,0-4.4C345.9,172.2,344.9,175.4,346.1,175.5z M353.8,181.2c1.6-0.4,2.5-1.6,2.8-3.2
	c1.4-0.2,3.4-3.6,2-4C357.2,176.6,355.2,178.5,353.8,181.2z M215.7,181.6c2.2-0.6,2.9-4.9,2-7.2
	C216.8,176.4,216.7,179.4,215.7,181.6z M214.5,182.8c0.2-0.2,0.9-1.9,0-2C214.3,181,213.6,182.7,214.5,182.8z M201.3,192.4
	c1.1-1,1-3.3,2-4.4c0.7,3.3-3.1,5.8-1.2,7.6c1.5-2.5,2.2-5.9,2.8-9.3c-1.7,0.2-1.1,1.9-2,0C202.4,188.3,200.4,190.7,201.3,192.4z
	 M213.7,190.8c-0.4-1,1.4-2.4-0.4-2.4C213.2,189.3,212.4,190.6,213.7,190.8z M205.3,190.8c-0.2-0.7,1.2-1.7,0-2
	C205,189.1,204.3,190.7,205.3,190.8z M198.4,193.2c0.2-1,2.4-2.1,1.2-3.2C198.9,190.5,197.2,192.1,198.4,193.2z M196.4,194
	c0.6-0.3,1.7-3.2,0-3.2C196.3,191.6,195.4,193.5,196.4,194z M204.9,196.1c1.5-0.4,1.9-2.8,0.8-3.6
	C205.9,194.1,204.5,194.2,204.9,196.1z M339.3,194.5c1.4,0.7,2.5-1.7,0.8-1.6C340.4,193.9,339.3,193.7,339.3,194.5z M200,195.3
	c0.5-0.5,0.6-2-0.4-2C199.1,193.8,199,195.2,200,195.3z M335.7,199.3c0.7-1.3,1.6-2.4,2-4C336,195.3,335.5,198.7,335.7,199.3z
	 M338.9,197.7h0.8v-0.8h-0.8V197.7z M217.4,202.5c0.5,0.1,0.6,0.4,0.8,0.8c3.6-1.1,6.3,0.5,8.5,2c-2.3-0.2-3.3-1.8-6-1.6
	c1.9,3,6.5,3.1,9.7,4.8c0,0.6-1,0.3-0.8,1.2c0.9,0,1.2,0.7,2.4,0.4c-0.4-3.8-1.9-6.4-2-10.5c-4.2-0.1-8.1-0.4-10.5-2.4
	C218.6,198.9,217.3,200.1,217.4,202.5z M331.7,200.5c1.2-0.2,3.4-2.1,1.6-2.8C332.3,198.2,332.3,199.6,331.7,200.5z M327.6,200.1
	c1.1-0.2,1.9-0.8,2.4-1.6c-0.5-0.6-1.7-0.4-2.8-0.4C327.1,199,327.3,199.6,327.6,200.1L327.6,200.1z M338.1,200.5
	c1.2,0.6,1.1-2.1,0.4-2C338.8,199.6,337.9,199.5,338.1,200.5z M139.7,203.3c-4.4-0.1-7.1-2.9-11.3-3.2c-1-0.1-1.6,0.8-2.4,0.8
	c-6.8,0.4-17.4-0.4-21.3,2.8c-1.4,1.1-2.3,4.3-3.2,6.8c-1,2.9-2.2,5.8-2.4,8.1c-0.3,2.5,0.4,5.2,0.4,8.1
	c-0.1,14.6-0.9,27.9-1.6,42.7c-0.3,6.8,0.6,13.8,0.4,20.5c-0.4,12.1-2,26.3-3.6,35.4c11.9-1,22,5.2,31.8,2.4
	c-1.2-9.9-2-23.5-2.4-33.8c-0.5-11.4-0.2-22.6,1.2-32.6c0.3-2,1.1-3.7,1.2-5.6c0.2-3.2-0.5-6.4-0.8-9.3c-0.3-2.9,0.1-6.5-0.4-8.1
	c-0.8-2.8-5.9-6.5-3.2-8.9c2.5,1.6,2.3,6,4.4,8.1c-0.2-1.6-0.2-4.4,1.6-2.8c-1.8-2.9-4.3-5.1-5.6-8.5c-2.8-1.3-7.2-3-6.4-6.4
	c1.9,0.2,1.9,2.1,3.2,3.2c1.6,1.3,3.9,1.6,5.2,3.2c1.8,2.1,1.7,5.6,4.8,6.4c1-3.1,4.2-4.2,5.2-7.2c-0.8-0.4-1.2-1.2-1.2-2.4
	c-5.7-0.5-9.4-4.8-12.5-7.6c-1-0.9-3.2-2.1-2.4-3.6c4.5,2.7,8.2,6.3,12.5,9.3c3.2,0.1,4.3,2.1,4.8,4.8c-0.6,2-2.7,2.4-2.8,4.8
	c6.1,2.6,12.5,1.2,18.9,2c2.8,0.4,5.6,1.9,8.5,2.4c1,0.2,2.2-0.1,3.2,0c8,1.1,17.2,4.4,25,5.2c2.1,0.2,4.4-0.3,6.4,0s4.2,2,6.4,1.6
	c-1.7-2.2-4.6-1.9-6.8-2.8c-1-0.4-2-1.1-3.2-1.6c-5.5-2.4-10.8-5.7-18.1-6c-4.7-2.6-10.4-2.4-15.3-4.8c-1.1-0.6-2.1-1.9-3.2-2.4
	c-3.7-1.8-8.5-2.7-11.7-4c-0.8-0.3-3.5-0.3-2.8-2c12.6,3.9,23.8,11.4,37.8,12.5C164.5,222.2,152,212.8,139.7,203.3L139.7,203.3z
	 M321.2,202.5h1.6v-1.2C321.8,201.2,321.5,201.9,321.2,202.5z M321.6,205.3c1.9,0.1,2.2-1.5,2.8-2.8
	C323,201.6,322.3,204.2,321.6,205.3z M310.3,207.7c1.5-1.2,2.3-3,3.6-4.4C312.2,203.9,309.7,206.1,310.3,207.7z M334.1,205.3
	C336.2,204.5,334.8,203.1,334.1,205.3z M336.9,203.7v0.4C335,206.3,338.8,203.4,336.9,203.7z M227.8,235.1c1.8-3.7,6.9-4.1,7.2-9.3
	C231.6,227.5,223.4,230.6,227.8,235.1z M235.1,223.4c0.4-4.9-1-8.1-2.4-11.3c-5.6-2.2-10.1-5.4-15.7-7.6c0.2,4.4,2.4,8.8,4,13.3
	c1.6,4.4,2.9,9.2,5.2,12.9C228.5,227.6,233,226.8,235.1,223.4L235.1,223.4z M305.5,208.9c1.3-0.2,2.6-4.2,1.2-4.4
	C306.3,206,305.8,207.4,305.5,208.9z M307.9,206.9h0.8c0.5-0.6,0.4-1-0.4-1.2C308.3,206.2,307.8,206.3,307.9,206.9L307.9,206.9z
	 M302.7,208.9c0.4-0.9,1.4-1.3,1.2-2.8h-1.2C303,207.2,301.5,208.3,302.7,208.9z M323.6,209.7c0.2-1,2-2.5,0.8-3.6
	C324.2,207.1,322.4,208.6,323.6,209.7z M336.5,215.8c1-1.9,1.6-6.4,0.8-8.9C336.1,209.6,335.8,213,336.5,215.8z M296.2,213
	c1.8-0.9,1.6-3.8,2.4-5.6h-1.2C297,209.1,296,210.5,296.2,213z M316,210.1c1.4-0.3,1.9-1.4,2-2.8C316.3,207.3,316.7,209.2,316,210.1
	z M335.3,211.4c-0.1-1.2,1.6-2.7,0.4-3.6C335.8,208.9,334.1,210.4,335.3,211.4z M290.6,219.8c1.9-1.1,1.7-3.7,2.4-5.6
	c0.7-2,2.2-3.9,2.4-6h-1.6C292.7,212,291.8,216.1,290.6,219.8z M299.5,211c-0.1-0.7,1.1-2,0-2.4C299.1,208.8,298.6,210.8,299.5,211z
	 M317.6,211.8c1.1-0.1,1.8-2.8,1.2-3.2C318.6,209.8,317.5,210.2,317.6,211.8z M326,208.5C324.6,210.4,328.4,209.1,326,208.5z
	 M291.8,210.1h0.8v-0.8h-0.8V210.1z M312.3,217c0.7,0,2-1.6,2.4-2.8s0.8-4.4,0-4.4C313.4,211.6,312.7,214.2,312.3,217z M287.8,212.6
	c0.3-0.8,2.1-1.5,0.4-2C288.1,211,286.6,212.1,287.8,212.6z M299.1,213c0.1-0.3-0.1-2.3-0.4-1.2C298.3,213.3,298.9,213.8,299.1,213z
	 M315.2,218.6c0.5-1.7,0.8-3.5,1.2-5.2C314.8,214.3,314.6,216.6,315.2,218.6z M336.5,218.6c0.1-0.5-0.3-1.6-0.4-0.8
	C336,218.3,336.3,219.4,336.5,218.6z M286.6,221.8C286.3,223.5,287.1,218.7,286.6,221.8z M257.2,224.2c1.2,0.6,1.2-1.8,0-1.2V224.2z
	 M286.2,224.2c0.1-0.5,0.7-0.9,0-1.2C286.1,223.5,285.5,223.9,286.2,224.2z M259.2,225.4c1.1-0.9,1.7,0.1,2-1.6
	c-1,0.2-0.9-0.7-2-0.4V225.4L259.2,225.4z M262.8,225C264,223.1,261.5,224.1,262.8,225z M280.5,226.2v0.8c1,0.6,1.2-1.4,0.4-1.2
	C280.9,226.1,280.9,226.3,280.5,226.2z M273.7,229.5c1.3,0.6,1.9-2.3,0.4-2C273.8,227.9,273.6,228.5,273.7,229.5z M130,233.1
	c-0.4,0.3,0.1,2.8-0.8,3.6c-1.4,0.6-0.2-1.4-1.2-1.2c-0.7,1.2-0.3,3.5-0.8,4.8c2.1,0.6,6.4,0.7,8.1,0.4c0.3-1.6-0.8-5-0.4-8.1
	C133.2,232.8,131,232.3,130,233.1L130,233.1z M177.1,241.1c0-0.4-0.3-0.5-0.4-0.8c-4.8-1-9.7-2.7-14.9-3.6c-1.1-0.2-2.5,0.2-3.6,0
	c-2.6-0.4-4.7-2-7.2-2.4c-4.8-0.9-9.6,0-14.1-1.2c-0.5,15.4,6.1,27.1,7.6,41.9c0,1,1.6,0.6,1.6,1.6c-1.3,0.8-0.6,2.6-0.4,3.6
	c0.3,2.2,0.8,4.6,1.2,6.8c1.8,9.8,3.2,22.2,4.4,31.8c2.2,0.6,4.2,1.4,7.2,1.2c0.4-1.9-0.5-2.4-0.8-3.6c0.6-2.4,0.4-7,0-10.1
	c-1.3-10.2-2.9-20.5-4.8-30.6c-2.3-12.1-4.9-22.5-6-35c-2.2-1.1-7.3-2.8-5.2-5.6c1.4,1,2.1,2.8,3.6,3.6c1.5,0.4,1.1-1,2.4-0.8
	c0.3,0.8,1.1,1.1,2,1.2c5.3-1,7.5,1.2,10.5,2.4c0.9,0.4,2.1,0.1,2.8,0.4c1.5,0.7,2.6,2.3,4,2.8c1.3,0.5,3.1,0.3,4.4,0.8
	c2,0.8,3.3,2.1,5.2,2.4c1.1-0.7,0.4-3.1,1.6-3.6c0,1.4-0.6,2.3-0.8,3.6c1.2-0.3,1.2,0.7,2.4,0.4c0.4-1.3-1-0.8-1.2-1.6
	c1.1-1.7,2.8-2.9,3.6-4.8c-2-0.8-2.4,2.1-3.2,1.2c0.1-0.6,2.3-2.3,0.4-2.4c-1.8-0.2-3.5,3.2-4,5.6c-0.5-1.1-1.6-3.2-1.2-4
	C175.2,241.2,177.2,243.4,177.1,241.1L177.1,241.1z M208.1,271.7c3.8-10.2,6.9-18.9,12.5-27.4c2.5-3.8,5-5.5,1.2-8.9
	c-13.9,11.6-20.6,30.4-26.6,49.9c1.3,2.5,5.1,4.5,8.5,3.6C204.1,281.6,205.8,277.9,208.1,271.7L208.1,271.7z M153.8,271.7
	c2.9-1.4,0.2-6.3,0.4-8.9c-4-5.1-3.7-14.5-4.8-22.5c-0.5,0-0.6-0.5-1.2-0.4C147.8,251.1,152.5,260.8,153.8,271.7z M177.9,265.7
	c0.7-1.3,3.7-2.5,3.2-3.6c-1.4,1-2.9,2.4-4.4,3.6c-1.4,1.2-3,2.8-4.4,2.8c3.4-3.4,7.7-6,11.3-9.3c-2.2-0.3-4.4,1.1-6.4,2.4
	c-1.9,1.2-3.4,4-5.6,3.2c3-4.3,11.1-5.5,11.3-11.3c-3.6,0.1-6.4,1.8-8.9,4c2.4-0.8,3.7-2.8,6.4-3.2c-2.1,2-6.1,4.7-8.9,3.6
	c1-1,4.3-1.9,3.6-3.2c-0.6,0.4-2.8,1.2-3.2,0.4c2.3-1.8,6.3-2.1,8.1-4.4c-2.3,0.1-4.6,2.3-6,2c0.5-1.5,3-1,3.6-2.4
	c-2.3-0.4-6.4,2.9-8.9,2.4c2.1-0.9,4.4-1.8,5.6-3.6c-3.2-0.4-5.3,2.5-7.2,2c1.2-1.5,4.3-1.1,4.4-3.6c-2.3-0.8-3.8,2-4.8,0
	c0.8-0.2,1.7-0.1,1.6-1.2c-4.3,0.8-4.9-3.2-8.5-2c-1.6-2.8-4.7-4.2-9.3-4c0.7,6.6,1.3,13.4,3.2,19.7c0.7,0.2,1-0.6,1.2,0
	s-0.5,2.1,0.4,2c0.4-0.2,1-2.2,1.2-1.2c-0.6,1.1-1,2.5-0.8,4.4c1.2,0.5,1.5-1.9,2-0.8c-0.1,1.1-0.7,1-1.2,2.4c0,3.2,0.6,4.7,0.4,6.8
	c0.7,0.2,1-0.6,1.2,0c-2.4,2.2,1.1,6.4-0.4,8.9c-1.1-0.9-0.3-3.7-1.6-4.4c-1.6,2.2-0.4,6.6,0.4,8.9c8.4,1.2,16.9,2.1,25.4,3.2
	c0.3-2.2,1.9-3.1,2.4-5.2c-0.5-0.1-1.1,0.1-1.2-0.4c2.2-3.5,5.7-5.6,8.1-8.9c-4.3,2.9-7.7,4-11.7,7.6c1.4-2.5,4-3.7,6-5.6
	c-0.6-5,6.5-5.5,7.6-10.1c-7.2,3-10.1,12.4-17.3,14.1c2-3.2,8.1-4.4,8.1-8.5c-1.9,1.1-4.2,2-6,3.2c3.4-3.9,8.2-6.2,11.3-10.5
	c-4.4,1.4-6.1,5.4-10.5,6.8c-0.9,0.8-2.1,3.5-3.2,2.8c1.7-3.7,6.1-4.6,8.5-7.6c-1-0.4-1.4,1.7-2,0.4c4.2-3.8,8.8-7,12.1-11.7
	c-1.6,0.8-3.4,1.5-4.8,2.8c-0.6,0.6-0.4,1.8-1.2,2.4c-3.4,2.8-8.4,5.4-11.3,7.2c0.9-0.8,2.1-1.9,3.2-2.8c1.1-0.9,3.2-1.5,2.8-2.8
	C181.6,264.6,179.8,266.9,177.9,265.7L177.9,265.7z M186.4,270.5c1.8-0.7,3.3-1.8,4-3.6h-1.6C189.1,269.3,186.5,268.6,186.4,270.5z
	 M208.1,277.4c-0.6,2.7-2.5,5.8-1.6,8c-0.2,0.9-1.2,3-0.4,3.6c7.5-3.8,13.3,3.2,20.1,4c-1.6-6.5-2-14-1.6-22.1
	c0.3-5,1.7-9.7,1.6-13.7c-3.7,9.8-5.6,22.5-5.6,33c-1.5-3.4-1-8.6-0.4-13.3c1-7.1,4.2-14.7,5.6-20.5c2.3,1.6,0.9-2.5,2.8-2.4
	c-0.7,4.4-2.7,9.8-2.8,15.3c-0.1,3.7-0.4,8,0,11.3c0.2,1.5,1.7,3.7,2,5.6c0.2,1.2-0.3,2.4,0,3.2c0.2,0.7,1.5,0.9,1.2,1.6
	c-2.4,0.7-1.6,3-4,3.6c-2,0.5-3.9-1.4-6-1.2c-2.8,0.3-3.8,2-5.2,4.8c2.7-0.7,5.3-3.6,7.6-3.2c-0.7,1.3-4.2,1.9-3.2,3.6
	c1.7-1.1,3.1-2.5,5.6-2.8c-1.8,1.5-3.2,2.9-4.8,3.6c2.4,1.6,2.6-1.9,4.8-1.6c-0.3,1.1-1.7,1-1.6,2.4c1.6,0,3-2.4,4-1.6
	c0,0.8-3.3,1.7-1.2,2c0.8,1.4,1.6,0.3,2.8,0c0.7,2.9,5.3,1.9,7.6,3.2c1.1,10.6,4.3,19.4,3.2,31c1.8,1.2,4.4,1.5,6.8,2
	c1-9.9-1.3-20.5,0.8-30.6c0.1-1.3-1.1-1.3-0.8-2.8c1.6-3.7-0.9-6.3-2-9.3c-2.1-5.6-4.2-11.2-6-16.5c-1.3-3.8-1.3-7.7-4-10.5
	c-2.4,5.7-0.3,12.7-0.4,18.9c0,1.6,0.2,4.7-1.6,5.6c-1.5-1.3,0-3.3,0-5.2c0.1-7.1-2.4-16.6,2-20.9c-2-8.7-6.4-15.1-8.5-23.7
	c-0.6-0.1-0.7-0.7-1.2-0.8C217.6,251,211.2,264,208.1,277.4L208.1,277.4z M127.6,242.3h3.6C131.4,240.9,127.5,241.3,127.6,242.3z
	 M183.1,243.2c1.1,0.1,1-1.1,1.6-1.6C183.5,241.4,183,241.9,183.1,243.2z M189.6,243.2c0.7,0,1-0.3,1.2-0.8
	C190.1,242.3,189.8,242.7,189.6,243.2z M192.8,244.8c2-0.2,3.2-1.1,4-2.4C194.7,242.4,193.1,242.9,192.8,244.8z M128,258.9
	c2.2,0.7,6.9-0.4,8.1,1.2c-2.7,0.4-7.7-1.9-8.5,0.4c1.8,1.9,6.8,0.7,8.5,2.8c-3.4,0-5.3-1.4-8.5-1.6c-2.2,5.1,6.6,2.1,8.5,4.4
	c-3,0.7-7.3-2.6-8.9,0.4c4,1.1,10.3-0.1,13.3,2c-2.9-0.2-7-0.7-10.1-0.8c-1.1,0-3.6-1.4-3.6,0.8c1.5,2.4,5.3,1,8.1,1.2
	c2.5,0.2,4.5,0.9,6.8,0.8c-1.5-9.5-4-18-6-27c-3.2-0.3-4.9-0.9-7.6-0.8C126.7,247.8,129.1,253.9,128,258.9L128,258.9z M184.7,244
	c1.1,0.1,1.7-0.1,1.6-1.2C185.4,242.7,185.1,243.4,184.7,244z M200,247.6c1.8-1.2,2.2,0,3.6-0.4v1.6c1,0.4,1.4-1.7,2-0.4
	c0,1.2-1.7,0.7-1.6,2c1,0.9,2.7,0,3.6-0.4c-0.2-2.6,2.6-2.2,2.4-4.8c-1.1-1.3-4.3-0.5-4.8-2.4c-1.4,0.3-2.9-0.3-4,0
	c-0.5,0.1-3.9,3.4-4,3.6c0.1-0.1,0.9,0.6,0.8,0.8c-0.4,0.7-3.1,2.1-0.8,2.4c0.9-3,3.6-4.1,6-5.6C202.5,245.5,200.3,245.5,200,247.6
	L200,247.6z M196,244.8c1.2-0.1,2-0.7,2.4-1.6C197.4,243.5,196.1,243.5,196,244.8z M180.7,249.2c2,0.8,2.9,0.4,4.4,1.2
	c-0.2-2.1,0.5-3.2,0.8-4.8c-1.7,0.1-1,2.5-2.8,2.4c0-0.5-0.7-0.4-0.8-0.8c0.7-0.5,0.3-2.1,0.8-2.8c-0.6,0-0.9-0.2-1.2-0.4
	C180.6,244.8,180.6,246.9,180.7,249.2z M190.8,246c-0.1-0.5,1.6-1.2,0.4-1.6C191.2,244.9,189.6,245.6,190.8,246z M191.2,246.4
	c-0.3,1.2,0.7,1.2,0.4,2.4c-1.7,0.6-2.1,1.5-3.6,0.4v1.6c2.2-0.6,3.8,2.5,5.6,0.4c-0.5-0.1-1.1,0.1-1.2-0.4c0.8-2.6,0.2-4,2-5.6
	C192.7,244.9,192.6,246.3,191.2,246.4L191.2,246.4z M194,247.6c1.1-0.4,2.3-0.7,2.4-2C194.9,245.5,194.3,246.4,194,247.6z
	 M186,250.8h0.8c0.5-0.6,0.4-1-0.4-1.2C186.3,250.1,185.8,250.2,186,250.8z M202.1,251.2c0.1-0.5,0.7-0.9,0-1.2
	C202,250.5,201.3,250.9,202.1,251.2z M175.9,254.8c1.9-0.1,2.9-1.1,4-2C178,252.9,177,253.9,175.9,254.8z M200.4,256
	c0.8-1,2.3-1.2,2.4-2.8C201.6,253.4,199.9,255.3,200.4,256z M201.7,256.4c1.2-0.3,1.5,0.4,2.4,0.4c0.7-0.8,0.7-2.3,1.2-3.2h-0.8
	C204.3,255.3,201.6,254.6,201.7,256.4z M185.6,255.6c1.3,0.2,1.6-0.5,2-1.2C186.6,254.6,185.8,254.8,185.6,255.6z M184.3,258.9
	c1.3,0.1,2.8-1.2,4-2c0.9-0.7,3.6-1.8,2-2.4C188.3,255.9,185.6,256.6,184.3,258.9L184.3,258.9z M192.8,256.8c0.4-0.8,1.8-0.6,1.6-2
	C193.4,254.8,191.8,256.2,192.8,256.8z M183.1,256.4v0.8c1,0.6,1.2-1.4,0.4-1.2C183.5,256.3,183.5,256.5,183.1,256.4z M189.2,258.4
	c-0.1-0.5,1.6-1.2,0.4-1.6C189.6,257.4,187.9,258.1,189.2,258.4z M183.9,262.1c1.7-0.6,4.6-2.1,4-3.6
	C186.7,259.8,184.8,260.4,183.9,262.1z M200.8,260.9c1.2-0.2,1.8-0.8,2-2C201.7,259.1,200.6,259.3,200.8,260.9z M190,265.7
	c2.5-1.4,4.8-3,6-5.6c-0.1-0.3-0.3-0.5-0.8-0.4C194,261.9,188.3,263.2,190,265.7L190,265.7z M196.4,262.9c0.8-0.5,2.7-2.1,2-2.8
	C197.9,261.2,196.2,261,196.4,262.9z M200,262.9c0.7,0,1-0.3,1.2-0.8C200.6,262.1,200.2,262.4,200,262.9z M197.6,264.5
	c0.1-0.8,1.1-0.8,1.2-1.6C197.8,262.6,196.9,264.4,197.6,264.5z M126.4,273.7c5.4,0.4,11.5,2.2,16.5,1.6c0-1.9-0.6-3.2-1.2-4.4
	c-1.6-0.1-3.4,0.1-5.2,0c-2.8-0.1-9.3-2-9.7,0.8c3.1,1.8,9.6,0.1,12.5,2C135.4,273.7,129.6,271.7,126.4,273.7z M191.6,275.4
	c1.8-0.6,3.3-1.6,3.6-3.6C193.2,272.2,192.8,274.1,191.6,275.4z M91.4,278.6c2.3-0.4,1.5-3.9,2.4-5.6c-1.3,0.5-0.3-1.3-1.6-0.8
	C91.9,274.2,91.5,276.3,91.4,278.6z M195.2,274.5c0.7,0,1-0.3,1.2-0.8C195.7,273.7,195.4,274.1,195.2,274.5z M188,275.4
	c1,0.1,1.3-0.6,1.6-1.2C188.6,274.1,188.3,274.8,188,275.4z M155.4,276.2c0.1-0.2,1-1.5,0-1.6C155.8,275.3,154.2,275.9,155.4,276.2z
	 M94.2,277c0-0.2,0.1-0.5,0.4-0.4c0-0.5-0.1-1-0.8-0.8C93.8,276.2,93.7,276.9,94.2,277z M189.2,281.8c1.1,0.1,1.7-0.1,1.6-1.2
	C189.8,280.5,189.5,281.2,189.2,281.8z M189.6,284.2c1.6,0,2.4-0.8,2.4-2.4C190.7,282.1,189.9,282.9,189.6,284.2z M191.6,285.8
	c0.1-0.8,1.1-0.8,1.2-1.6C191.6,283.7,190.7,285.5,191.6,285.8z M183.1,290.2c0.5,0.6,1.7,0.4,2.8,0.4c0.2-1.1,1.3-3.5,0.4-4.4
	C185.3,287.5,183.3,288,183.1,290.2z M189.6,291.1c1,0.8,4-2.8,2.4-3.2C191.4,289.1,189.7,289.3,189.6,291.1z M157.8,289.8
	c1.1,0.1,1-1.1,1.6-1.6C158.3,288.2,158.4,289.4,157.8,289.8z M191.6,291.9c1.8-0.4,2.3-2,3.2-3.2
	C193.4,289.2,190.9,290.5,191.6,291.9z M208.9,289.4c0.9,0.1,1.5-0.1,1.6-0.8C209.8,288.7,208.5,288.2,208.9,289.4z M187.6,290.6
	c0.2-0.8,1.6-0.3,1.2-1.6C187.9,288.9,186.6,290.2,187.6,290.6z M158.6,303.1c0.7-0.9,0.4-2.8,1.6-3.2c0,1.9-1.5,4.4-0.8,5.6
	c1.3-1.9,3-5.4,1.2-8c0.6-0.1,0.9-3.3-0.4-2.8C160,297.5,156.7,300.8,158.6,303.1L158.6,303.1z M160.6,306.7
	c0.1-1.5,1.6-1.6,1.2-3.6C160.5,303.2,159.8,305.9,160.6,306.7z M160.2,289.8c-0.8,2.5-1.5,5.2-2.4,7.6
	C159.4,296.2,162.3,292.3,160.2,289.8z M205.7,291.9c0.6-0.9,2.2-0.8,2.4-2C206.7,289.7,204.7,291,205.7,291.9z M207.7,292.3
	c1.4-0.5,2.9-0.9,3.2-2.4C209.3,290.1,208,290.7,207.7,292.3z M194,292.3c1.7,0.2,1.9-1.1,2.4-2C195.1,290.4,194.7,291.5,194,292.3z
	 M210.5,293.1c1.5-0.5,3.1-0.9,3.6-2.4C212.5,289.7,211.1,291.7,210.5,293.1z M196.8,292.3c1.2,0,1.5-0.9,2-1.6
	C197.7,290.7,197.3,291.6,196.8,292.3z M157.8,293.5c1,0.2,1.6-2.1,0.8-2.4C158.7,292.2,157.7,292.3,157.8,293.5z M198.4,293.5
	c1,0.3,1.9-1.5,1.2-1.6C199.5,292.6,198.1,292.2,198.4,293.5z M209.7,297.1c1.4-0.5,2.8,0.9,3.2,0c-0.8-2.4,4.6-2.1,4.8-4.8
	C213.5,292.3,212,295.1,209.7,297.1z M202.1,294.7h0.8c0-0.5,0.5-0.6,0.4-1.2h-0.8C202.4,294,201.9,294,202.1,294.7z M208.1,296.7
	c1.5-0.1,1.5-1.7,2.4-2.4C209.4,294.8,207.9,294.9,208.1,296.7z M207.3,294.7h-1.6C205.4,296.2,207.6,296.2,207.3,294.7z
	 M216.5,298.7c0.1-0.5,0.7-0.9,0-1.2C216.5,298,215.8,298.4,216.5,298.7z M75.3,303.9c-2.4-1.5-4.4-3.4-7.2-4.4
	c-7.7,6.7-16.4,12.3-29,14.1c0.9,1.5,3.4,1.9,5.2,2.4c5.7,1.6,15.3,3.4,21.3,2.4c1.5-1.8,2.6-4.5,3.6-7.2c1-2.6,1.6-6.4,4-6.4
	c-1.8,5.4-2.7,11.8-6.4,15.3c3,0.3,4.8-0.6,7.6-0.4C76.2,315.8,76.6,308.4,75.3,303.9L75.3,303.9z M247.9,318.8
	c2.5-1.7,5.4-5.9,1.6-8.5c0.6-2.1-1-5.5-2.4-6.8c0.3,2.7-0.4,4.4-0.4,6.8c1.5,0,1.1,1.9,2.4,1.2c-0.7,1.4-1.6,2.7-2,4.4
	c1.6,0.7,1.6-2.4,2.4-1.2C249.1,316,247.4,318,247.9,318.8z M160.6,308.4c1,0.4,1.8-1.4,0.8-1.6
	C161.4,307.5,160.3,307.3,160.6,308.4z M159,308.8c1.1,0.3,0.8-0.8,1.2-1.2C159.1,307.3,159.4,308.4,159,308.8z M170.3,312.8
	c-1.9,0.8-4.9,0.8-4.4,2.8c3.2-1.6,7.4-2.3,9.7-4.8C173.8,310.8,172,312.1,170.3,312.8z M180.7,313.2c1.4-0.3,4.9-0.7,4-2
	C183.7,312.1,181.2,311.7,180.7,313.2z M248.3,324.1c1.6-0.4,2.5-1.6,2.4-3.6h-1.2C249.5,322,248.2,322.3,248.3,324.1z M250.8,317.2
	c-1.3,0.8-2.1,1.9-2.4,3.6C249.8,320.3,250.7,319.2,250.8,317.2z M60,323.3c2.4,0.5,2.7-1,2.8-2.8C61,319.2,59.4,320.9,60,323.3z
	 M248.7,326.5c0.9-0.3,1.7-0.7,1.6-2C249.1,324.4,249,325.5,248.7,326.5z M262.4,335.3c-0.5-2.2-0.3-5-2.4-5.6
	C260.7,331.7,260.7,334.3,262.4,335.3z M163.4,336.5c0.9,0.1,1.5-0.1,1.6-0.8C164.1,335.6,163.5,335.8,163.4,336.5z M167,336.9
	C163.8,338,169.7,336.2,167,336.9z M141.7,345.4C137.3,346.5,142.8,345.6,141.7,345.4z M132.8,347.8c1.2,0.9,2.2-1,3.2-1.6
	C134.5,346.2,133.1,346.5,132.8,347.8z M140.1,347.8c1,0.1,1.7-0.2,2-0.8C141.1,346.9,140.4,347.2,140.1,347.8z"/>
<path d="M298.7,11.7C297.5,14,296.4,12.8,298.7,11.7z"/>
<path d="M293.4,18.6C294.2,17.7,291.4,21,293.4,18.6z"/>
<path d="M295,18.2c0.4,0.3-0.9,2.3-2,2.4C293.4,19.5,294.6,19.2,295,18.2z"/>
<path d="M249.6,46.3c2.1,1.8-1,4.7-2.4,5.6C247.9,50.1,250.2,49.6,249.6,46.3z"/>
<path d="M254.4,50.4c1.2,0.4-0.5,1.1-0.4,1.6C253,51.9,254.4,50.9,254.4,50.4z"/>
<path d="M280.9,112.3c0.7-1.1,3-1.1,4.8-1.2c2.3-0.2,4.8,0.5,6.4-0.4c1.3,0.8-1.2,1.2-1.6,1.6c1.3,0.9,2,1.1,4,0.8
	c-0.6,3.7-3.7,5.9-6,8.1c-2.4,2.2-4.9,4.8-8.1,6c3.7-5,9.9-7.5,12.9-13.3C290.2,114.5,285.1,113.2,280.9,112.3L280.9,112.3z"/>
<path d="M311.9,111.5c-0.2,1.2-1.7,1-2,2C309.1,113,310.9,111.6,311.9,111.5z"/>
<path d="M279.3,117.2c0.2-0.7,0.3-2-2.4-1.6c0.2-0.9,5.4-0.2,7.6-0.4c0.1,0.7,1.4,0.2,1.6,0.8c-0.7,1.8-3.2-1.3-4.4,0.8
	C282.1,115.7,279.8,115.9,279.3,117.2L279.3,117.2z"/>
<path d="M284.2,118c-0.8,1.5-2.4,2.2-3.2,3.6c2.9-1.5,5.1-3.7,7.2-6c0.3,2.6-4,5-6.4,6.8c-0.9,0.7-2,2-3.6,2.4
	c-0.7,1.1,0.1-1.3,1.2-0.8C280,121.1,281.9,119.3,284.2,118z"/>
<path d="M279.3,118c-0.3,1-2.2,3.7-4,4.4C276.3,120.6,277.8,119.2,279.3,118z"/>
<path d="M226.2,124.8C226.7,123.6,225,127.4,226.2,124.8z"/>
<path d="M211.3,135.7c-1.8-0.1-5.2-2-7.6-2.8C204.5,132.4,210,134.4,211.3,135.7z"/>
<path d="M349.8,142.9c0.1-0.8,4.6,0.7,6,1.2C354.1,145,351.7,143.1,349.8,142.9z"/>
<path d="M296.6,153.8c3.3-1.1,6.8,0.5,9.7,0c2.2-0.4,3.6-2.4,6-2c-0.4,1.9-3.1,1.4-4.8,2c1.5,2.9,6.7-0.4,8.9,1.6
	c1.4-0.4-1.1-0.1-0.4-1.2c3.6,0.2,9.6-1.8,11.3,1.2c-2.2,0.7-4.9-1.9-7.6-0.8c0.6,1.2,2.9,0.6,4,1.2c-0.6,1.2-1.8-0.3-2.8,0
	c0.1,2,3,1,3.2,2.8c-8-2-16.5-2.3-25.4-0.8c1.1-1.2,2.9-1.7,4.8-2C302.3,154,299.6,153.8,296.6,153.8z"/>
<path d="M256.4,152.2c-0.1,2.3-2.1,2.7-2.8,4.4C253.4,155.4,254,152.8,256.4,152.2z"/>
<path d="M362.3,155C361.1,155.3,361.6,151.3,362.3,155z"/>
<path d="M254,157.4C254.6,155.5,256,156.9,254,157.4z"/>
<path d="M324.8,156.6c0-0.5,5,0.8,4.8,3.2C328.2,158.6,326.4,157.7,324.8,156.6z"/>
<path d="M303.9,161c-4.3,1-12.3,0.2-17.3,1.6C290.9,160.7,298,160.2,303.9,161z"/>
<path d="M289,165.5c0.3,1.7,2.9,1.2,3.6,2.4c-0.3,1.2-1-0.5-2,0c0.8,1.6,2.8,2.1,3.2,4c-3.4-2.3-5.8-5.5-10.9-6
	c-1.3,1.5-4.7-0.4-6.8,0.8c0.3,0.4,0.7,0.6,1.2,0.8c-1.2,0.6-3.4,1-4,0c-1.4,0.5-4.7,1.9-5.6,0.4c2.6-0.6,5-1.4,5.2-4.4
	c3.2-1.5,7.4,0,10.9-0.8c0.6,0.8,2.9,2.2,5.2,2c1-0.1,1.5-0.8,2.4-0.8c2.1,0.2,2.9,1.7,4.4,2.4C294.6,166.6,291.4,165.4,289,165.5
	L289,165.5z M275.3,164.7c-0.5,0-1,0.1-0.8,0.8c1.3-0.1,3.1,0.4,2.8-1.2c-1.6,0.9-2.8-1.8-2.8,0
	C274.8,164.4,275.3,164.3,275.3,164.7z M281.3,164.3c-0.5-0.6-1.7-0.4-2.8-0.4C278.3,165.3,281.2,165.6,281.3,164.3z M275.3,167.1
	c0-0.7-0.3-1-0.8-1.2C273.9,166.5,273.9,167.4,275.3,167.1z"/>
<path d="M334.1,164.7C336,165.7,334.6,167.1,334.1,164.7z"/>
<path d="M342.9,165.5c0.6,0.1,0.1,1.2,0.8,1.2c0,1.3,0,2.7,0,4C342.9,169.5,343.6,166.8,342.9,165.5L342.9,165.5z"/>
<path d="M331.3,166.3c2.3,2.3,1.8,7,2.4,10.5c0.5,2.7,2.4,5,0.8,6.8c3.1-2.6,3.5-7.1,2.8-12.5c2.4,0.3,0.6,4.7,2,6
	c-1.1,0.6-0.2,1.5-0.4,2.4c-0.5,2.6-2.3,5.2-3.2,7.6c-1.9-1.8-3.3,1.1-4.4,2.4c-0.8-1.7,1.1-2.5,1.6-4.4
	C334.3,179.6,332.7,171,331.3,166.3L331.3,166.3z"/>
<path d="M324,192.4c0.7-5.3,3.9-9.7,3.6-17.7c0.7-1.2,0.3,2.1,0.4,2.8c3-2.7-0.3-7.1-0.8-10.1c1.4,0.9,1.1,3.5,2.8,4
	c-0.2,5.1,2.1,12.1,0.4,16.9c-2.1,0.6-2.7,2.7-4.4,3.6c1.7-2.3,2.9-5.2,3.6-8.5c0.1-0.3-0.2-0.4-0.4-0.4
	C327,185.7,326,189.6,324,192.4z M330,177.5c-1.4,0.4-2.8,4.8-1.2,5.6C330.3,182.3,330.1,179.9,330,177.5z"/>
<path d="M336.5,169.1C335.8,166.4,337.5,172.4,336.5,169.1z"/>
<path d="M274.9,174.7v-0.8c-1.3-0.2-1.4,0.7-2.8,0.4c0.3-0.5,0.9-0.8,1.6-0.8c-2.4-2.3-6.3,0.3-8.5,0.8c1-1.6,5.3-1.4,4.4-3.6
	c4.2,1.4,8.6,2.7,13.3,3.6c-0.5,2,2.6,2,1.2,3.6c0,1.3,2.3,0.4,2.8,1.2c-1.4,1.3-6.7-1.7-7.2,1.2c0.2,0.9,2,0.2,2.8,0.4
	c1.3,0.6-1.6,0.2-1.6,0.8c1.8,2.8,4.1,5.8,4.4,10.1c0.1,1.5-0.3,3.1,0,4.4c1-2.2,1.9-5.4,1.6-8.1c-0.3-2.4-2.3-3.7-2.4-5.6
	c1.1-0.3,1,0.6,2,0.4c-0.1,1.5,0.8,3.6,1.6,5.2c1.7-0.6-0.8-1.4,0.4-2.8c2.1,2.4,0.4,9.5,0.4,14.5c1.6-1.9,2-5,2.4-8.1
	c1.2,1.5-0.3,3.8-0.4,5.2c4.1-2.9,1.3-11,1.2-13.7c1.3,0.9,0.9,3.4,3.2,3.2c-1,5.2-1.8,10.5-3.6,14.9c0.1,0.6,0.7,0,0.8-0.4
	c1.1,1.4-2,2-2.8,2.8c-0.9,1.5-2.4,2.4-3.6,3.6c-0.6-0.2-0.3-1.3-1.6-0.8c0.3-1.4,0.6-2.4,2-1.6c-0.3-1.2,0.7-1.2,0.4-2.4
	c-0.8,0.8-0.6,1.5-2,0.8c-2.9,2.8-3.9,7.4-6.8,10.1c-0.3-2.2,1.9-3.2,2.8-5.2c1.8-3.8,2.4-8.2,2.4-14.1c-0.6,0.6-0.6,1.8-0.8,2.8
	c-0.5-2.5-0.8-5.7,0.4-7.6c-0.8-4.3-4.5-5.7-4.8-10.5c-0.1-0.5-1-0.3-1.6-0.4c0.5-1.9,4.2-0.6,5.6-1.6c-1.4-0.8-4.3,0.2-6,0.4
	c1-1.4,3.5-1.4,5.6-1.6c-2-2.6-6.6,0-9.7,0C272.5,174.7,273.6,174.7,274.9,174.7L274.9,174.7z M279.3,178.4c0.5,0.5,2.8,0.8,2.8-0.4
	C281.3,177.7,279.5,177,279.3,178.4z M288.2,192c-0.1-0.7,0.4-2-0.8-1.6C287.3,191.3,287.5,191.9,288.2,192z M284.2,202.9
	c0.7-1.1,2.1-2.8,0.4-3.6C284.8,200.6,283.2,202.2,284.2,202.9z"/>
<path d="M266.5,171.5c0.5,1.1-2.2,2.3-4,2.4C263.3,172.6,265.8,173,266.5,171.5z"/>
<path d="M261.6,172.3c-0.9,0.9-1.9,1.6-3.6,1.6C258.9,173.1,260.4,172.8,261.6,172.3z"/>
<path d="M321.2,193.2c-1-0.8,1.1-1.8,0.8-3.2c-1.7,0.4-1.9,2.3-3.2,3.2c0.7-3.3,4.3-7.3,4.4-12.5c-0.7-0.1-0.8,0.3-0.8,0.8
	c-0.5-2,1.5-5,0.8-8.5c2.4,3.2,0.5,8.7,0,12.5c1.3-1.2,1.8-3.3,2-5.6C325.2,184.9,323.5,189.2,321.2,193.2z"/>
<path d="M190.8,173.5c0.5,0.8-1.3,2.8-1.6,4c-1.2-2-0.6,1.5-2.4,1.2C187.2,176.1,189,174.9,190.8,173.5L190.8,173.5z"/>
<path d="M325.2,176.3c-0.9-0.8,0-0.8,0.4,0v2.8C324.7,179,325.5,177.2,325.2,176.3z"/>
<path d="M314,196.1c1.5-3.2,2.9-6.5,4.4-9.7c-3.7,2.3-3.8,8.2-7.6,10.5c1.4-1.9,2.7-3.8,3.6-6c-2.9,1-3.5,4.3-5.6,6
	c-0.7-0.4,0.6-2,0.4-3.2c-1.9-0.3-3.8,2.2-5.2,4.4c-1.4-2,3.9-4.9,1.2-6.8c0.5-0.8,0.8-1.9,1.2-2.8c1-0.2,0.9,0.7,2,0.4V184
	c2.3,2-0.4,6.4-1.2,8.9c3.6,0.6,5.2-4.2,5.6-8.1c-2.1-0.4-1.2-5.6-0.8-7.2c0.9,1,0.1,3.6,0.4,5.2c1.7,0.6,1.2,3.4,1.6,5.2
	c3.1-0.5,2.2-5.3,1.6-7.2c2.8-0.1,0.6,2.8,1.2,5.2c2.2-1.8,2.9-5.2,2.8-9.3c0.6-1.3,0.4,1.4,0.4,2v6c0.8-0.6,1-1.9,1.6-2.8
	c0.6,1.4-0.7,2.1-1.2,3.2C318.6,188.9,317.3,194,314,196.1L314,196.1z M313.5,190.4c0-1,1.7-0.4,1.2-2h-1.2
	C313.7,189.6,311.9,189.9,313.5,190.4z"/>
<path d="M180.3,184.8c-0.8-1.1,1.4-2.6,1.2-4.4c-1.4,1.5-2.6,3.3-3.6,5.2c0.2-2.5,1.8-4.5,1.2-7.6c1.1-0.3-0.3,1.9,0.8,1.6
	c1.1,0.1,1.2-1,1.2-2c0.9,0.7,1.7,1.5,2.4,2.4c0.7-0.4,1.2-0.9,1.6-1.6C185.2,180.6,181.5,182.5,180.3,184.8L180.3,184.8z"/>
<path d="M175.9,179.6c1.3,0.5,0.9,0,2.4,0c-0.3,1.7-1.1,2.9-1.6,4.4c-1.2-0.6,1.7-3-0.8-2.8c-0.8,0.6-0.6,2.1-1.2,2.8
	C173.7,182.7,175.8,181.1,175.9,179.6z"/>
<path d="M298.7,180.4c1.9,1.8,2.6,6.7,2.8,8.9c1.2-0.1,2.2-0.1,2,1.2c0.8-0.7,1.1-1.9,1.2-3.2c0,3.8-0.2,8.8-4,10.5
	c0.2-2.7,2.5-3.2,2-6.4c-2.6,1.7-2.2,6.2-3.2,8.5c-1.3-0.7-0.5-1.9-0.4-3.2c-1.4,0.1-1.1,1.8-2,2.4c-1-0.9-1.9,0.4-2.8,0.8
	c0.2-3.4,2.5-8.3,3.2-12.5c0.8,3.7-1.5,7.7-2.4,10.9c3.1-2.3,4.1-6.7,4-12.1c-0.7-0.1-0.8,0.3-0.8,0.8c-1.8-1.5,1.6-2.2,1.6-0.4
	C300.6,184.9,299.3,181.9,298.7,180.4L298.7,180.4z M301.5,190.4c-1.4,0.5-1.6,2.2-2,3.6c1.6,0.3,0.1-2.6,2-2V190.4z"/>
<path d="M271.3,194.1c-3.4,4.4-7.5,8-9.7,13.7c2.6-1.2,3.8-7.2,7.6-8.5c-1,4.3-5.2,9.1-7.6,13.7c-0.9-0.6,0.5-2.2,0.8-2.8
	c-2.1,0.1-4.1,3.6-5.2,6c-1.1-1.2-1.3-1.2-2.8-0.4c-0.2-0.8,0.3-1.1,0.4-1.6c-1.5,0.3-2,1.5-2.8,2.4c-0.6-0.1-0.1-1.2-0.8-1.2
	c-0.9-0.1-0.4,1.2-1.2,1.2c-0.8,9.3,0,20.9,0.4,31.4c0.2,1.9-0.7,1-0.4-0.4c-1.5-10.3-1.9-22.1-0.4-33.4c0.9-0.1,1.5-0.6,2.8-0.4
	c2-0.6,2.8-2.1,4.4-3.2c0.4-0.3,1.2-0.1,1.6-0.4c5.3-4.4,4.3-13-0.4-17.3c-0.9-0.1-1.5,0.1-1.6,0.8c-0.6-0.6,0.7-2.7-1.6-2.4
	c0.5-1.2,2-0.1,3.2-1.2v2c1.8-0.1,1.3-2.5,3.2-2.4c-0.7,1.1-2.2,3-1.2,4.4c1.7-1,1.4-4,3.6-4.4c-0.5,2.1-3.7,5.4-1.2,6.8
	c2.1-0.9,2-3.9,4.4-4.4c-1.2,2.4-3.6,3.7-3.6,7.2c1.5,0.4,0.6-1.5,2-1.2c-0.5,1.1-1.3,2-1.6,3.2C266.3,200.6,268,195.5,271.3,194.1
	L271.3,194.1z M266.9,203.3c0-0.2,0.1-0.5,0.4-0.4c0-0.5-0.1-1-0.8-0.8C266.5,202.6,266.4,203.2,266.9,203.3L266.9,203.3z
	 M263.2,208.5c0.9-1.5,2-2.8,2.8-4.4C264.4,204.6,263.1,207.6,263.2,208.5z M256.8,214.6c0.6-1,1.4-1.8,2-2.8
	C257.5,211.8,256.3,214.1,256.8,214.6z"/>
<path d="M266.1,225c1.3,0.7,1.7-0.2,2.4-1.2c1.2,0.8-0.5,2.1,0,3.6c0.4,0,0.3-0.5,0.4-0.8c0.6,2.9-2.3,6.6-1.2,10.1
	c-1.8-0.1-0.8,2-1.6,3.6c-1.1-1.1-1.2-0.7-2-2c2-2.3,2.7-5.9,3.2-9.7c-0.6-0.1-0.7,0.4-1.2,0.4C263.9,233.4,265.9,227.4,266.1,225
	L266.1,225z"/>
<path d="M303.5,248c1.5,0.2,3.6-4.7,5.2-4.4c0.7,1.5-0.8,0.8-1.2,1.2c-1.5,1.5-2.9,3.4-4.4,5.2c-1.4,1.6-3.2,3.2-4.4,4.8
	c-2,2.6-4.2,5.9-6.8,8.5c-0.7-0.3-0.1-0.7,0-1.2c-1.9,0.1-1.7,2.3-3.6,2.4c5.4-7.9,10.9-15.7,16.5-23.3c-3,1.7-6.2,6.7-8.9,10.1
	c-0.5-1.7,1.4-3.2,2.4-4.4c3.2-3.7,7.1-8.2,10.5-12.1c0.7-2,1-4.3,2.8-5.2c-0.1,1.4-1.2,1.8-1.2,3.2c2.7-1.7,3.3-5.5,6-7.2
	c-0.6,3.7-3.1,5.5-5.2,7.6c-2.4,4.4-5.6,8.1-8.5,12.1c-2.7,3.8-6.2,7.5-7.6,12.5c1.4,0.2,1.2-1.2,1.2-2.4
	c6.1-5.9,10.4-13.4,16.1-19.7C310,240.3,306.1,243.5,303.5,248L303.5,248z"/>
<path d="M327.2,225.4C327.9,226.6,325.6,227.7,327.2,225.4z"/>
<path d="M307.9,227.1c1,0.8-1,1.9-1.2,2.8C305.6,229,308,228.2,307.9,227.1z"/>
<path d="M325.2,227.5c-1.4,1.7-2.3,3.8-4,5.2c0,0.6-0.1,1.1,0.4,1.2c-0.8,1.2-2,2-2,4c-7.1,6.8-12.2,15.7-18.9,22.9
	c-0.6,0.1-0.7-0.4-1.2-0.4c-4.5,5.6-10,10.1-14.5,15.7c-0.1-1.9,2.5-4.3,4-6c4.7-5.2,10.8-10.4,14.9-16.5h1.2c1.1-1.4,2-2.8,3.2-4
	c-0.6-1.5-0.6,0.9-1.6,0.4c3.7-3.8,6.2-8.8,10.1-12.5c-1,1.5-2.2,2.9-2.8,4.8c2.5-0.4,2.2-3.7,4.4-4.4v-2
	C321.1,233.6,322.2,229.6,325.2,227.5L325.2,227.5z"/>
<path d="M254.8,229.9C256,227.2,253.7,233.1,254.8,229.9z"/>
<path d="M331.3,231.1c0.7-1,0,2.4-1.2,2C330.4,232.4,331,231.9,331.3,231.1z"/>
<path d="M264.8,231.5c1.2,1.3-0.5,3,0,4.8c-1.9-0.3-2.2,2.7-2.8,4.8C260.7,237.2,264.9,235.4,264.8,231.5z"/>
<path d="M278.1,236.7c-0.2-1.5,0.7-0.6,0.4,0.4c-0.8,1.3-0.7,3.6-1.6,4.8c0.1,2.9-1.4,4.3-1.2,7.2c-1.3,1.2-0.8,4.3-2,5.6
	C273.9,249.1,276.3,242.2,278.1,236.7L278.1,236.7z"/>
<path d="M294.6,269.3c0.4-2.6,3.2-3.4,4.8-4.8c2.5-2.1,5-4.4,6-8c2.2-1.2,3.8-2.9,4.4-5.6c5.9-3,7.1-10.9,12.5-14.5
	c-1.2,2.4-3.1,4.1-4.4,6.4c2.3-0.6,2.8-3.1,4.8-4c-2.7,2.5-4,6.6-6.8,8.9c-0.2,0.2-1-0.2-1.2,0c-3.7,3.3-5.9,8-9.7,11.3
	c-0.1,0.7,0.5,0.8,0.4,1.6C301.7,263,297.8,267.6,294.6,269.3L294.6,269.3z"/>
<path d="M329.2,236.3c0.2,0.6-1.2,3.1-2.4,3.6C327.2,238.3,328.5,237.6,329.2,236.3z"/>
<path d="M326.4,240.3c0,2.4-3.2,5.1-4.4,7.6C322,245.6,325.2,242.9,326.4,240.3z"/>
<path d="M321.6,244.4c0.2,1.2-1.7,3.6-3.2,4.4c0.2-0.3,0.4-0.7,0.4-1.2c-1.2,0.8,0,2.1-1.2,3.2c-1.2-0.4,0.5-1.1,0.4-1.6
	c-1.1,0.1-1.1,1.3-2,1.6c0,0.4,0.5,0.3,0.8,0.4c-3.4,4.8-6.5,9.9-11.3,13.3c3.1-3.6,5.7-7.7,8.9-11.3c-0.2-0.6-0.5,0.2-1.2,0
	C315.7,250,318.3,246.9,321.6,244.4z"/>
<path d="M265.2,257.6c-1.2-0.3,0.2-1.3,0-2c-0.5,0.9-1.5,1.2-1.6,2.4c0.5-4.3,5.4-7.8,6.4-12.9c0.7,1.4-1.8,4-2.8,6.8
	C266.5,254,266.7,256.4,265.2,257.6z"/>
<path d="M264.8,245.6c-2.2,5.8-5.6,10.5-7.6,16.5c-0.1-2.8,1.9-5.7,3.2-8.5C261.8,250.8,262.5,247.3,264.8,245.6z"/>
<path d="M0,247.2c1.2-1.4,3.5-0.2,5.2,0c4.7,0.4,10.6,0.7,15.3,1.2c-1,1.7-2.7,0.2-4.4,0C10.7,247.8,4.4,248.2,0,247.2z"/>
<path d="M325.6,247.6c-1.4,1.9-2.4,4-4.4,5.2C321.6,251.6,323.4,248.4,325.6,247.6z"/>
<path d="M320.8,248.4c1,0.1-0.5,1.1-0.4,1.6C319.2,249.6,320.9,248.9,320.8,248.4z"/>
<path d="M327.6,250c-1.5,2.4-3.5,4.3-5.2,6.4C323,254.8,325.5,251.5,327.6,250z"/>
<path d="M320.8,253.2c-0.6,1.1-1.4,2.1-2.4,2.8C318.1,255.6,319.4,253.3,320.8,253.2z"/>
<path d="M310.3,254.8c1,1.2-1.5,2.3-2,3.2C307.7,257.2,310,256,310.3,254.8L310.3,254.8z"/>
<path d="M180.3,256.4c-1.8,1.3-3.5,2.7-5.6,3.6C176.2,258.5,178,257.2,180.3,256.4z"/>
<path d="M261.6,256.4c0.9,0.1-1.6,3.7-0.8,2.4C260.6,257.6,261.4,257.3,261.6,256.4z"/>
<path d="M309.5,274.1c-0.4-0.9-0.2-4.6-1.6-4c0.4-5.1,6-8.5,8.5-12.9c0.6,2.7-4.8,4.7-4,7.6c-0.9,1.3-2.3,2-2.8,3.6
	c6-1.4,7.1-7.6,11.7-10.5c-2.1,2.9-4.4,5.6-6.8,8C317.2,269.6,314,274.4,309.5,274.1L309.5,274.1z M309.9,269.7
	c-0.3,1.9,0.7,2.5,1.6,3.2c1.3-0.8,3.2-2.8,2.4-4.4C313,267.8,311.1,269.4,309.9,269.7z"/>
<path d="M262.4,258.9c1.2,1.1-1,2.2-0.8,3.6C260.7,261.6,262.6,260.2,262.4,258.9z"/>
<path d="M260,259.7c0.2,2.4-2.1,5.9-3.2,8.5C256.7,265.8,259.1,262.4,260,259.7z"/>
<path d="M375.9,261.7c-0.1,2.2-2.7,0-2.8,0c-1.9-0.4-5,0.2-6.4-0.8c-2.3,0.3-2.3-0.7,0-0.4C369.8,260.8,372.6,261.5,375.9,261.7
	L375.9,261.7z"/>
<path d="M263.6,261.3c0.8,2.3-1.9,4.5-2.4,6.8C260.8,266.2,263,263.4,263.6,261.3z"/>
<path d="M256,264.9C255.3,262.9,257.8,261.9,256,264.9z"/>
<path d="M260.8,263.3c0.8-0.3-1.2,3-1.2,4.4C258.7,266.5,260.5,264.6,260.8,263.3z"/>
<path d="M286.6,305.5c-0.1-0.5-1.7-0.8,0-0.8c-5.4-0.2-11,2.9-16.5,4c3.5-2.6,8.3-3,12.5-4c12.6-3.2,25.6-7.3,38.2-10.5
	c-2.4,1.1-4,3-7.2,3.2c2.7,0.9,6.4-1.4,8.5,0c1.7-1,5.1-0.3,5.6-2.4c-0.6-1-2.1,0.3-2.8,0.4c1.1-1,2.5-1.3,2-3.6
	c-0.8-3.7-3.7-12.2-4-16.1c-2.2,1-4.5,1.9-6,3.6c-3.8,0-6.7,0.8-8.9,2.4c3.4,2.3,10.7-1.1,13.7,2c-9.9-0.8-18.2-1.5-25.8,2
	c7.1,0.6,14.6,0.7,20.9,2c0.8,0.1,4-0.3,2.8,0.4c-9.5,0.3-15.9-2.5-23.3-1.2c-2.1-1.4-6.5,0.3-9.7,1.2c-11.5,3.5-24.3,9-33.8,13.7
	c3.4-3.7,8.7-5.7,13.7-8c2.6-1.2,5.1-2.2,7.6-3.2c7.4-2.9,15.7-4.7,24.1-6.8c3-0.8,6-2.4,9.3-3.6c4.9-1.9,9.9-2.6,14.5-4.8
	c0.8-0.4,1.3-0.9,2-1.2c5-2.2,11.1-4.3,11.7-10.1c1.2,1.1,0.4,3.2,0.4,4.8c0,4,0.1,8.6,0.8,12.5c9.5-0.3,17.7,0.7,27.8,1.2
	c-1.3-2-4.5-1.3-7.2-1.6c-3.1-0.4-7.3-0.6-11.7-1.2c-0.8-0.1-2.4,0-2.8-1.2c2.9,0,5.7-0.2,8-0.8c-3-2.2-10-0.5-12.5-3.2
	c3.7-0.6,7.5,0,11.7,0.8c-0.1,0.4-0.8,0.3-0.8,0.8c2.6,0.9,5.9,1,9.3,1.2c-2-1.3-6.2-0.3-7.6-2c9.2,0.6,18.7,4,29.4,4.4
	c1.7-0.1,1.4,1.8,3.6,1.2c0.1-1.1-2.3,0.4-1.6-1.2c2.3-0.2,2.7,1.6,4.4,2c-5.2,0.7-13.2-3-18.1-1.2c3.7,1.1,8.3,2.2,11.7,2.4
	c0.9,0.2,0.6-0.8,1.2-0.8c2.1,0.2,2.8,1.7,4.8,2c-5.4,0.7-10.9-2-17.3-1.6c0.7,1.4,3.2-0.6,3.2,2c-2.3-1-3.8-0.5-6.8-0.4
	c6.9,2.5,17.3,1.5,24.6,3.6c-1.1,1.6-2.7-0.4-4-0.4c-0.8,0-1.2,0.9-2,0.8c-0.7,0-1.3-0.7-2-0.8c-1.5-0.1-2.7,0.3-4,0
	c-2-0.4-5.7-1.9-9.3-1.6c-0.9,0.1-1.9,0.8-2.8,0.8c-8,0.4-16.4-2.4-25.4-1.6c1-1.2,3.1-1.1,4.4-1.2c3.4-0.2,7,0.6,10.9,0.4
	c-5.4-1.6-12.7-1.3-18.5-2.4c-0.7,4.6,1.2,10.1,1.6,14.9c-3.2,0.3-4.9,2.1-6.8,3.6c-1.5-1-2.8-2.3-4.8-2.8c-1.2,2.7-6.1,1.6-7.2,4.4
	c-1.1,0.3-0.8-0.8-1.6-0.8c-0.5,0.4-0.5,1.4-1.2,1.6c-8.2,2.5-17,4-24.6,6.8c-1.2,0.4-2.2,1.1-3.2,2c-1.8-0.7,0.7-1.7,1.2-2.4
	c-1.8,0.2-3.1,0.9-4.4,1.6c-6.1-1-10.7,4.8-16.5,4c2.2-2.5,6.7-2.7,9.7-4.4c-2.3-2.9-5.6,0.5-8.5,0.8c0.7-1.2,2.4-1.5,3.6-2
	C277.9,307.8,282.6,305.6,286.6,305.5L286.6,305.5z M334.5,273.3c-0.2-2.5-0.1-2.5,0.4-4.4c-2.1,0.1-2.3,2.2-3.6,3.2
	c-1.4-0.7-3.6,0.8-4,2.4c2,0.8,0.9,1.9,1.2,3.2c1,0.5,1.3-1.6,1.6-0.4c-0.5,1-1.5,1.5-1.2,3.2C331.2,278.6,332.3,275.5,334.5,273.3z
	 M333.7,274.5c-0.9,3.1-5.5,6.4-3.6,9.7c0.9-3.9,4.7-5,4.8-9.7H333.7z M331.7,284.2c0.6-0.5,1.4-2.8,2-2c-0.9,2-4.5,5-2.4,7.2
	c0.1-2.6,1.6-3.7,2.8-5.2c-1.2,2-1.7,4.7-3.2,6.4c0.5,2.3,0.8,4.8,1.2,7.2c2.5,0,3.1-2,5.2-2.4c-1.2-3.9-1.4-6.3-1.6-11.3
	c-0.5-1-0.8-0.3-1.2-0.8c0.6-0.3,0.6-1.3,0.8-2c-1.9-0.2,0.9-3-1.2-3.2C333.3,280,330.8,282.1,331.7,284.2L331.7,284.2z
	 M325.2,274.1c0,0.6-1,0.3-0.8,1.2c0.7,5.4,2.6,11.8,4,16.1c0.4,1.3,0.4,3.2,1.6,4c-0.5-6.2-2.6-14.3-3.6-21.3L325.2,274.1
	L325.2,274.1z M342.9,275.8c1.8-0.2,4.1,1.2,5.6,0C347.6,275.3,342.5,275,342.9,275.8z M358.2,278.2c-2.1-0.1-4.4-0.2-6,0.4
	c-0.4,0-0.3,0.5,0.4,0.4c4-0.2,8.2,1.4,11.3,0.8C363,278.6,360.3,278.3,358.2,278.2L358.2,278.2z M359,283.4c-1.6-0.2-2.9-1-3.6-0.4
	c1.1,0.7,5.9,1,8,1.2C363.2,282.7,360.4,283.6,359,283.4z M303.1,299.9c-0.4,0-0.3,0.5,0.4,0.4c1-0.4,1.7-0.9,3.2-0.8
	c0-0.5,0.7-0.4,0.8-0.8C305.9,299,304.6,299.5,303.1,299.9L303.1,299.9z M314.8,299.5c0.7,0,1-0.3,1.2-0.8
	C315.3,298.7,314.9,299,314.8,299.5z M316,300.3c0.9,0.1,1.5-0.1,1.6-0.8C316.7,299.4,316.1,299.6,316,300.3z M313.5,301.1
	c1,0.1,1.7-0.2,2-0.8C314.8,300.5,313.1,299.8,313.5,301.1z M297.9,301.5c-0.8,0.8,3,0,3.2-0.8C299.6,300.6,299.1,301.5,297.9,301.5
	z M291,303.5c-1-0.1-0.8,0.9-1.2,1.2c-2.2,1.6-6.5,1.5-8.5,3.6c6.9-1.1,15-4.3,21.7-6.8c-3.6-0.6-8.3,3.2-12.1,2.4
	c0.9-0.5,2.6-0.1,2.8-1.2C292.2,302.3,292.3,303.6,291,303.5z M294.6,306.7c4-0.4,13.8-2.6,18.1-5.6
	C306.4,302.6,300.3,304.5,294.6,306.7z"/>
<path d="M290.2,299.1c-0.1,2.2-3.3,2.9-5.6,3.6c-4.3,1.3-9.6,2.1-12.9,4.4c-3.2-2-7.7,2.8-10.9,2
	C270.3,305.5,279.7,301.8,290.2,299.1L290.2,299.1z M284.2,301.5c-2,0.1-3.2,0.8-4.4,1.6C281.5,302.9,283.4,302.7,284.2,301.5z"/>
<path d="M299.5,267.3c0.3,1.9-3.3,3.4-4,5.6C295.1,271,298.4,269.2,299.5,267.3z"/>
<path d="M302.3,267.7c-2,3-4.7,5.2-6.8,8c-0.3-1.6,1.7-2.7,2.8-4C299.5,270.3,300.6,268.2,302.3,267.7z"/>
<path d="M258.8,268.1c0.7,0.3-0.6,2.1-0.8,2.8C257,270.3,258.7,269,258.8,268.1z"/>
<path d="M303.5,268.9c1.2,1.2-0.8,1.1-1.2,1.6c-1.5,1.7-3,4.3-4.8,5.6C297.7,273.6,301.8,271.4,303.5,268.9L303.5,268.9z"/>
<path d="M331.3,272.5c-0.5,0.8-1.1,1.6-1.6,2.4C329.1,274.6,330.2,272.6,331.3,272.5z"/>
<path d="M316,290.3c-1.5,0.9-3.4,1.4-5.6,1.6C311.5,290.7,314,290.7,316,290.3z"/>
<path d="M307.5,292.3c-0.5,0.8-1.8,0.9-2.8,1.2C304.1,293.1,306.4,292.3,307.5,292.3z"/>
<path d="M325.2,293.1C326.2,293.4,320.1,293.9,325.2,293.1z"/>
<path d="M316,293.1c-1.1,1.2-3.9,0.6-5.2,1.6C310.2,293.5,313.9,293.1,316,293.1z"/>
<path d="M290.2,295.5c-10.1,3.5-20.4,7-31.4,9.7C268.5,301.1,279.8,298.8,290.2,295.5z"/>
<path d="M296.6,295.5c-0.9,0.9-1.9,0.7-2.4,0.8C292.2,296.7,294.1,295.6,296.6,295.5z"/>
<path d="M295,297.9c0.8-1,7.5-2.6,5.6-1.2C298.3,296.6,297.2,297.8,295,297.9z"/>
<path d="M291,297.1c-0.3,0.4-0.7,0.6-1.2,0.8C288.8,297.7,290.5,297,291,297.1z"/>
<path d="M286.2,298.7c-0.9,0.9-2.4,1.1-3.6,1.6C283.3,299.3,284.7,298.9,286.2,298.7z"/>
<path d="M188.8,300.7c-0.6,0.6-1.4,1-2.4,1.2C186.9,301.3,187.7,300.9,188.8,300.7z"/>
<path d="M205.7,302.3c0.1,0.3-5.6,1.9-8.1,2.8c-0.4,1.2,0.9,0.7,1.6,0.8c-1,1.1-3,1-4.4,1.6c0-1,1.5-0.6,2-1.2
	c-1.2-1.4-7.1,2.1-5.2,0C196.5,305.2,200.4,303.1,205.7,302.3L205.7,302.3z"/>
<path d="M214.5,307.6c-1.5,1.9-5.2,1.5-7.2,2.8c-2.2-0.6-5.9,1.2-5.6,0.4C206,309.8,209.7,308.1,214.5,307.6L214.5,307.6z"/>
<path d="M199.6,311.2c-1,1.4-4.5,2.1-6,1.6C195.6,312.2,197.8,311.9,199.6,311.2z"/>
<path d="M157.4,315.2c-0.9,0.9-2.4,1.1-3.6,1.6C154.5,315.8,155.9,315.4,157.4,315.2z"/>
<path d="M196.4,320.8c1-1.9,5-0.9,6.4-2.4h2c2.2-1,3.9-1.1,5.2-1.2c2.1-0.2-0.7,0.5-1.6,0.8c-1.3,0.4-3.1,0.9-4.4,0.8
	C201.8,319.7,199,320.2,196.4,320.8L196.4,320.8z"/>
<path d="M173.1,326.1c-1,1.7-3.4,2-5.6,2.4C169.2,327.5,171,326.6,173.1,326.1z"/>
<path d="M157.4,327.3c-0.7,0.7-1.5,1.2-2.8,1.2C155.1,327.7,156.3,327.6,157.4,327.3z"/>
<path d="M166.2,328.9c-0.6,0.6-1.4,1-2.4,1.2C164.1,329.1,165.3,329.2,166.2,328.9z"/>
<path d="M175.5,333.3v-0.4C178.3,332,173.3,334.9,175.5,333.3z"/>
<path d="M173.1,334.1c-0.1,0.9-1.8,0.4-2,1.2C170.2,334.9,172.1,333.9,173.1,334.1z"/>
<path d="M369.1,273.3c-0.2,1.7-3.4,0.4-4.8,0.8c2.8,1.5,6.8,1.8,10.5,2.4c-6.8,1.1-12.3-2-20.1-2c-4-2.2-10.2-2.1-15.7-2.8
	C348.9,270.8,357.7,273.6,369.1,273.3L369.1,273.3z"/>
<path d="M377.5,269.7c3.6-0.4,8.2,1.7,12.1,2.4c-1.5,1.3-3.2-0.5-4.8-0.4c1.1,2.5,5.6,1.6,8.9,2c0.9-0.2-0.5-0.6,0.4-1.2
	c1.9,0,2.5,1.3,3.2,2.4c-0.9-0.1-1.5,0.1-2,0.4c0.4,0.6,0.6,1.3,1.6,1.2c-2,0.8-5.6-0.2-8.1-0.4c2.7,2,7.6,1,11.7,2.4
	c-2.2,2.8-7-1-11.3,0c-0.7-1.2-2.4-1.4-4.4-1.2c0.2,0.6,1.3,0.3,0.8,1.6c-1.3-0.4-5.1,0.3-4.4-1.6c-2.2,0.4-3.7,1.3-5.6,0
	c0.1-0.8,3.2-1.5,0.4-1.6c0.2-0.9,2-0.2,2.8-0.4v1.6c0.9-0.1,1.5-0.6,2.8-0.4c0.8-0.4,0.9-1.5,0.8-2.8c0.2-1.5-2.5-0.2-2.8-1.2
	c0.9-2.2,3.2,1.3,4.4-0.8c-1.6-1.6-4.6-0.5-6.4,0c-0.3-1.2,1.1-0.8,0.8-2H377.5z M383.2,274.1c1.3,2.6,8.8,1.8,10.9,1.2
	C391,273.9,386.5,273.6,383.2,274.1z"/>
</svg>
