<?xml version="1.0" encoding="utf-8"?>
<!-- Generator: Adobe Illustrator 17.0.0, SVG Export Plug-In . SVG Version: 6.00 Build 0)  -->
<!DOCTYPE svg PUBLIC "-//W3C//DTD SVG 1.1//EN" "http://www.w3.org/Graphics/SVG/1.1/DTD/svg11.dtd" [
	<!ENTITY ns_flows "http://ns.adobe.com/Flows/1.0/">
	<!ENTITY ns_extend "http://ns.adobe.com/Extensibility/1.0/">
	<!ENTITY ns_ai "http://ns.adobe.com/AdobeIllustrator/10.0/">
	<!ENTITY ns_graphs "http://ns.adobe.com/Graphs/1.0/">
]>
<svg version="1.1" id="Layer_1" xmlns:x="&ns_extend;" xmlns:i="&ns_ai;" xmlns:graph="&ns_graphs;"
	 xmlns="http://www.w3.org/2000/svg" xmlns:xlink="http://www.w3.org/1999/xlink" xmlns:a="http://ns.adobe.com/AdobeSVGViewerExtensions/3.0/"
	 x="0px" y="0px" width="612px" height="792px" viewBox="0 0 612 792" style="enable-background:new 0 0 612 792;"
	 xml:space="preserve">
<path style="fill:none;stroke:#000000;stroke-width:2;stroke-linecap:round;stroke-linejoin:round;" d="M390.3,213.5
	c-54.3,0-100.6,36.1-119.5,87.4c-13.5-6-28.6-9.2-44.5-9.2c-53.3,0-97.5,37.8-107.2,87.7c-6.8-1.7-14-2.5-21.4-2.5
	c-47.9,0-86.8,38.3-86.8,85.3s38.8,85.3,86.8,85.3c15.1,0,29.3-3.8,41.6-10.4c21.3,21.4,55.9,35.4,95,35.4c31.4,0,60-9.1,81-23.7
	c18,19,43.5,30.7,71.5,30.7c36.5,0,68.4-19.8,85.7-49.6c12,6.7,25.5,10.6,39.7,10.6c49.7,0,90-46.1,90-103
	c0-54.9-37.4-99.6-84.5-102.8C509.9,266.2,455.8,213.5,390.3,213.5L390.3,213.5z"/>
</svg>
