<?xml version="1.0" encoding="utf-8"?>
<!-- Generator: Adobe Illustrator 22.1.0, SVG Export Plug-In . SVG Version: 6.00 Build 0)  -->
<svg version="1.1" id="Layer_1" xmlns="http://www.w3.org/2000/svg" xmlns:xlink="http://www.w3.org/1999/xlink" x="0px" y="0px"
	 viewBox="0 0 512 512" style="enable-background:new 0 0 512 512;" xml:space="preserve">
<g id="layer1">
	<g>
		<path style="fill:none;stroke:#000000;stroke-miterlimit:10;" d="M475.9,99.3c0,0,0,0,0.1,0.1c0.1,0.3,0.1,0.7,0,1
			c0,0.1,0,0.1-0.1,0.1c0,0-0.1-0.2-0.1-0.6S475.8,99.3,475.9,99.3z M198.3,54.1c-0.7,0-1.1,0.2-1.6,0.6c-0.6,0.5-0.7,0.8-0.7,1.9
			c0,1.1,0.1,1.4,1.1,2.3c0.6,0.6,1.7,1.6,2.5,2.4c0.8,0.7,1.9,2,2.5,2.9c0.6,0.9,1.4,1.7,1.8,1.9c0.3,0.2,0.6,0.5,0.6,0.7
			s0.3,0.7,0.6,1.1l0.6,0.7l-0.6,0.9c-0.3,0.5-0.7,0.8-0.8,0.8l0,0c-1.3-0.7-4.6-1.8-6.3-2.1c-0.7-0.1-1.9-0.4-2.7-0.5
			c-2.1-0.4-4.1-1-5.5-1.7c-0.7-0.3-1.7-0.6-2.3-0.6l0,0c-0.9,0-1.2,0.1-1.8,0.9c-0.8,1.1-1,3.2-0.4,4c0.5,0.7,4.5,2.5,5.8,2.5l0,0
			l0,0c0.4,0,1.6,0.4,2.5,0.8c0.9,0.5,1.9,0.8,2.1,0.8l0,0c0.2,0,1.1,0.2,1.9,0.4c0.8,0.2,2,0.6,2.7,0.7c1.1,0.3,1.2,0.4,0.9,0.7
			c-0.2,0.2-0.4,0.3-0.8,0.3c-0.2,0-0.4,0-0.6-0.1c-1.3-0.2-11.6-0.5-16.2-0.5c-1,0-1.8,0-2,0.1c-1.5,0.2-1.8,0.7-1.8,2.9
			c0,2.6,0.4,3,4,3.2c1.6,0.1,4.3,0.4,6,0.5c1.7,0.2,4.7,0.3,6.8,0.3h3.8l-0.4,0.6c-0.2,0.3-0.6,0.7-0.8,0.8
			c-0.6,0.3-3.1,0.9-4.7,1.1c-0.8,0.1-2.1,0.5-3,0.8s-3,0.7-4.7,0.9c-4.3,0.5-4.5,0.6-4.6,2.8c-0.1,1.4,0,1.8,0.5,2.4s0.6,0.7,3,0.7
			c0.6,0,1.4,0,2.4,0c5-0.1,9.4-0.7,11.2-1.5c0.7-0.3,1.6-0.5,3.7-0.5c0.1,0,0.3,0,0.5,0c2.8,0,3.3,0.1,4.6,0.8
			c0.8,0.4,1.5,0.8,1.6,1c0.2,0.3-0.4,2.5-1,3.5c-0.2,0.4-0.7,1-1.2,1.4c-1.3,1.2-1.7,4-1.1,7.7c0.5,3.3,0.9,4,2.7,4
			c0.3,0,0.6,0,0.9,0l1.4-0.1v-2c0-2.1,0.3-3.9,0.6-4.1c0.3-0.3,2-2.5,2-2.7c0-0.5,4.1-3.5,4.7-3.5c0.1,0,0.6-0.3,1.1-0.7
			c1-0.9,1.6-1.1,3.5-1.6c0.7-0.1,1.8-0.5,2.5-0.8s1.4-0.6,1.6-0.6c0.2,0,0.8-0.5,1.4-1.2c1.1-1.3,1.7-1.4,8.7-2.4
			c5.2-0.7,6.5-0.8,14.7-0.9c0.8,0,1.5,0,2.2,0c6.8,0,8.9,0.2,11.8,0.9c2.2,0.6,3.1,0.8,7.4,1.5c1.3,0.2,3.4,0.6,4.7,0.8
			c3.3,0.6,6.5,0.9,10.9,0.9c1.3,0,2.7,0,4.2-0.1l6.5-0.2l0.7,0.7c0.4,0.4,1.6,1.4,2.7,2.3s3.1,2.7,4.5,4.1c2.4,2.4,5.5,5.2,6.1,5.4
			c0.2,0.1,0.6,0.4,1,0.8c1.3,1.2,2.7,2.2,4.3,3.3c0.9,0.6,1.8,1.3,2.1,1.6c0.3,0.3,0.7,0.6,1,0.6l0,0c0.3,0,0.6,0.3,0.7,0.5
			c0.1,0.3,0.3,0.6,0.6,0.7c0.8,0.3,0.5,1.8-0.7,3.4c-0.6,0.8-1.3,1.9-1.6,2.5c-0.3,0.5-0.9,1.5-1.4,2.1s-1.2,1.5-1.6,2
			c-1,1.3-1.7,2-3,3.1c-3.1,2.5-5.7,5-7.4,6.9c-0.5,0.5-2,2.2-3.3,3.7c-1.4,1.5-2.5,2.8-2.5,2.9c0,0.2-1.1,1.7-2.3,3
			c-0.4,0.4-1.3,1.5-2.1,2.5c-0.7,0.9-2.7,3.1-4.4,4.8c-1.7,1.7-3.7,4-4.6,5s-1.7,1.9-1.8,1.9c-0.1,0.1-0.5,0.7-0.9,1.5
			s-0.8,1.4-1,1.4c-0.1,0-0.7,0.7-1.1,1.6c-1.6,2.9-2.2,3.8-2.9,4.6c-0.4,0.5-0.8,0.9-0.8,1.1c0,0.3-2.2,2.9-3.7,4.4
			c-0.4,0.4-0.8,1.1-1,1.5c-0.1,0.4-0.4,0.9-0.7,1c-0.3,0.2-0.6,0.5-0.7,0.8s-0.5,0.6-0.9,0.7c-1.6,0.3-4.1,2.9-4.6,4.7
			c-0.3,1.2-3.1,4.3-3.9,4.3c-0.3,0-1.3,0.5-2.2,1c-1.4,0.8-1.9,1.3-2.4,2.3c-0.6,1.3-1.4,2-2.6,2.3c-0.5,0.1-0.9,0.6-1.3,1.3
			c-0.3,0.6-1,1.5-1.5,1.9c-0.5,0.5-1.1,1-1.3,1.2c-0.7,0.7-3.3,1.8-4.1,1.8c-0.5,0-0.9,0.1-1,0.3c-0.1,0.1-1,0.7-1.9,1.3
			c-1,0.5-2.1,1.3-2.5,1.7c-0.3,0.4-1.3,0.9-2.2,1.2c-1.1,0.3-1.6,0.7-1.8,1.2c-0.2,0.4-0.7,0.8-1,0.9c-0.4,0.1-0.9,0.3-1.2,0.5
			c-0.2,0.2-1.1,0.7-2,1.1c-0.9,0.4-1.8,1-2.1,1.4s-0.7,0.8-0.9,0.8c-0.5,0.2-2.4,1.8-4.2,3.7c-2.5,2.5-2.9,2.9-3.3,3.9
			c-0.3,0.5-0.6,0.9-0.7,0.9c-0.1,0-0.4,0.4-0.6,0.9c-0.2,0.5-0.8,1.5-1.3,2.3s-0.9,1.5-0.9,1.6s-0.5,1.1-1.1,2.3s-1.3,3-1.6,4
			s-0.6,2.1-0.7,2.4c-0.5,1.1-1.1,4.4-1.1,5.5c0,0.6-0.2,1.5-0.4,1.9s-0.4,1.3-0.4,1.8s-0.1,1.3-0.3,1.6c-0.4,0.7-0.8,2.7-0.9,4.6
			c-0.1,1.7-0.4,2.3-1.2,2.7c-0.4,0.2-0.7,0.6-0.7,1c0,0.3-0.3,0.8-0.7,1.1s-0.8,0.8-0.9,1.3c-0.3,0.9-1.7,2.8-3,4
			c-0.5,0.4-1.6,1.5-2.4,2.4c-0.9,0.9-1.7,1.7-1.8,1.7c-0.2,0-6.1,5.9-7.9,7.9c-0.6,0.6-1.2,1.4-1.4,1.8s-0.7,1.1-1.2,1.7
			s-1,1.3-1.2,1.5c-0.1,0.3-1,1.4-1.9,2.6c-1.9,2.5-2.9,4.1-4.1,6.1c-0.5,0.8-1.1,1.9-1.5,2.3c-0.4,0.5-0.7,1-0.7,1.2
			s-0.3,0.7-0.7,1.1s-0.9,1.4-1.3,2.1c-0.3,0.7-0.8,1.5-1.1,1.7c-0.2,0.2-0.6,0.9-0.8,1.4s-0.5,0.9-0.6,0.9s-0.8,0.9-1.5,1.9
			c-0.7,1.1-1.4,2.1-1.6,2.3c-0.2,0.2-0.4,0.6-0.4,0.9s-0.1,0.5-0.3,0.5c-0.1,0-0.7,0.8-1.3,1.7c-0.6,0.9-1.2,1.9-1.5,2.1
			s-0.8,0.8-1.1,1.3c-0.4,0.5-1,1.1-1.6,1.4c-0.5,0.3-2.2,1.7-3.9,3.3c-3.6,3.5-4.4,4.1-6.8,5.4c-1,0.5-2.1,1.1-2.3,1.2
			c-1.6,0.9-4.8,2.3-5.4,2.5c-1,0.2-2.5,0.9-2.7,1.2c-0.1,0.1-1,0.7-2,1.2c-1.1,0.5-2,1.1-2,1.3c-0.1,0.2-0.3,0.4-0.5,0.4
			c-0.3,0-1.6,0.6-3.4,1.7c-0.3,0.2-1.3,0.7-2.1,1.1c-0.9,0.4-2.4,1.3-3.6,1.9c-1.1,0.6-2.5,1.4-3.2,1.7c-0.7,0.3-2,1.3-2.9,2.2
			c-0.9,0.9-1.8,1.5-2,1.5c-0.3,0-4.6,4.5-5.6,6c-0.5,0.7-1.3,1.7-1.9,2.4c-2.4,2.7-3.1,3.6-3.1,3.8c0,0.3-1.8,2-6.1,6.1
			c-0.9,0.9-3.2,3.2-5,5.1s-4.1,4.4-5,5.4c-1,1-2.1,2.3-2.5,2.8c-0.9,1.2-2.9,3.3-4.7,4.8c-0.7,0.6-1.3,1.3-1.3,1.3
			c0,0.5-5.8,5.8-6.9,6.5c-0.7,0.4-1.7,0.9-2,1.1c-0.4,0.2-0.9,0.7-1,1c-0.3,0.5-1.6,1.6-4,2.9c-0.3,0.2-0.8,0.5-1.1,0.8
			c-0.3,0.3-0.9,0.5-1.5,0.5c-0.5,0-1.2,0.2-1.6,0.5c-0.5,0.3-2.1,0.5-3.6,0.5c-1.4,0-2.7-0.2-3-0.5s-0.6-0.5-0.9-0.5l0,0
			c-0.2,0-0.7-0.2-1.1-0.4c-0.4-0.2-1.7-0.5-2.7-0.6c-1.1-0.1-2-0.3-2-0.4s-0.7-0.9-1.5-1.7c-1.2-1.1-1.7-1.4-2.5-1.4l0,0
			c-0.6,0-1.3,0.2-1.6,0.4c-0.3,0.2-0.9,0.5-1.2,0.5c-0.5,0.1-0.9,0.5-1.6,1.9c-0.8,1.5-1.1,2.7-1.5,5.8c-0.5,3.4-0.6,5.5-0.7,14
			c0,5.5-0.2,12.3-0.5,15.1c-0.2,2.8-0.5,6.6-0.6,8.5s-0.3,3.8-0.4,4.1c-0.1,0.3-0.4,1.3-0.5,2.2c-1.7,9.1-1.5,16.2,0.5,21.8
			c0.4,1.1,0.8,2.4,1,2.9c0.3,1.1,1,2,2.9,3.7c1.2,1.1,1.4,1.2,3,1.2c0.1,0,0.2,0,0.3,0c2.8,0,4.6-1,5.5-2.8
			c0.7-1.4,1.4-3.7,1.7-5.6c0.1-0.6,0.5-1.9,0.9-2.7c0.4-0.9,1-2.2,1.2-3s0.8-1.8,1.1-2.2c0.4-0.5,0.7-1.1,0.7-1.4s0.1-0.5,0.3-0.5
			c0.3,0,1.4-1.5,2.4-3.3c0.3-0.5,0.5-1.4,0.4-2.2c0-0.7,0.2-2.1,0.5-3.1c0.4-1.7,0.6-1.9,1.3-2c0.7-0.1,0.9-0.4,1.2-1.4
			c0.2-0.7,0.8-1.6,1.4-2.2c0.5-0.5,1-1.1,1-1.2c0-0.4,1.9-3.2,2.6-3.9c0.3-0.3,0.5-0.7,0.5-1s0.2-0.7,0.4-0.9
			c0.2-0.2,0.4-0.5,0.4-0.7c0-0.4,1.4-1.1,2.4-1.3c0.3-0.1,0.6-0.4,0.7-0.7c0.1-0.3,0.4-0.8,0.8-1.1c0.8-0.5,0.9-1.9,0.3-3.2
			c-0.3-0.6-0.2-0.8,0.4-1.5c0.4-0.4,0.9-1.1,1.2-1.6c0.3-0.4,0.9-1.2,1.4-1.7s1.1-1.3,1.4-1.7c0.3-0.4,0.8-0.8,1.1-0.8
			c0.3,0,0.6-0.1,0.6-0.3c0-0.2,0.3-0.6,0.6-0.9c0.3-0.3,0.8-0.9,1.1-1.5c0.3-0.5,0.8-1,1.1-1c0.3-0.1,0.8-0.5,1-0.9
			c0.2-0.5,0.7-0.9,0.9-1c0.6-0.2,3.2-2.6,3.2-3c0-0.3,1.6-2.3,3.1-3.9c0.6-0.7,1.1-1.3,1.1-1.5c0-0.5,3.5-3.9,6.5-6.3
			c1.5-1.2,3-2.4,3.3-2.8c0.4-0.3,0.8-0.6,0.9-0.6s1.4-0.9,3-2.1c1.5-1.2,3-2.3,3.4-2.5s0.9-0.6,1.1-0.8c0.2-0.3,0.9-0.7,1.4-1
			s1.4-0.9,2-1.3c0.5-0.4,1.5-1,2.1-1.3s1.1-0.6,1.1-0.7s0.5-0.4,1.1-0.7c0.6-0.3,1.6-0.9,2.2-1.3c1.9-1.4,4.1-2.8,4.3-2.8
			c0.1,0,0.9-0.5,1.6-1.1c0.7-0.6,1.5-1.1,1.7-1.1s0.7-0.4,1-0.9s0.8-0.9,1-0.9s1.1-0.6,1.9-1.3c0.9-0.7,1.7-1.3,1.8-1.3
			s0.6-0.3,0.9-0.7c0.4-0.4,0.8-0.7,1-0.7s0.9-0.5,1.6-1.1c0.7-0.6,1.4-1.1,1.5-1.1s0.7-0.5,1.2-1c0.5-0.6,1.4-1.3,2-1.6
			c0.6-0.3,1.1-0.7,1.1-0.8s0.5-0.5,1.2-0.9c1.6-0.8,2.4-1.3,2.8-1.7c0.2-0.2,0.5-0.3,0.7-0.3s0.9-0.3,1.4-0.7
			c0.6-0.4,1.6-0.9,2.3-1.1c0.7-0.3,2-1,3-1.6c0.9-0.6,1.9-1.1,2.1-1.1c0.2,0,0.5-0.2,0.7-0.4c0.2-0.2,1.1-0.6,1.9-0.9
			c0.9-0.3,1.8-0.7,2.1-0.9c0.2-0.2,0.6-0.4,0.8-0.4s0.6-0.1,0.9-0.3c0.3-0.1,1.3-0.7,2.3-1.1c3.2-1.6,3.6-1.8,5.9-3.9
			c3.2-2.9,3.8-3.5,4.7-3.9c0.4-0.2,1.1-0.8,1.5-1.3s0.9-0.9,1-0.9s1.2-0.9,2.4-2s2.2-2,2.4-2c0.1,0,0.5-0.2,0.8-0.5
			c0.5-0.4,1.4-1,6-3.4c1.1-0.6,2-1.2,2.1-1.4c0.1-0.2,0.7-0.6,1.3-0.9s1.1-0.6,1.1-0.7c0.1-0.1,0.8-0.7,1.6-1.2
			c0.9-0.5,2-1.3,2.6-1.8c0.5-0.4,1.3-1,1.7-1.3s1.5-1.2,2.4-1.9c2.2-1.7,3.5-2.9,6-5.4c2.6-2.6,3.6-3.5,4.7-4.1
			c0.4-0.3,1.2-0.9,1.6-1.3c1.8-1.7,5.6-4.9,6.6-5.5c0.5-0.3,1.8-1.3,2.7-2.2c2.2-2.1,2.5-2.4,2.9-2.9c0.7-0.9,2.6-2.4,3-2.6
			c0.3-0.1,0.6-0.5,0.7-0.8c0.1-0.3,0.5-0.8,1-1s1-0.7,1.1-1.1c0.2-0.4,0.4-0.7,0.6-0.7c0.1,0,0.9-0.6,1.6-1.4
			c4.4-4.4,8.9-8.5,11.7-10.6c0.5-0.4,1.5-1.2,2.1-1.8c0.7-0.6,1.3-1.1,1.4-1.1s0.6-0.3,1.1-0.8c1.6-1.4,4.4-3.2,4.8-3.2
			c0.2,0,0.5-0.1,0.6-0.3c0.1-0.2,0.7-0.7,1.3-1.1c0.6-0.4,1-0.7,1.4-0.7c0.3,0,0.7,0.1,1.3,0.4c1.7,0.7,5.2,1.7,6.1,1.7l0,0
			c0.5,0,2.3,0.4,3.9,1c1.6,0.5,3.4,1,4,1.1s2.3,0.5,3.8,1c1.5,0.4,3.3,1,4,1.2s2.2,0.6,3.3,1c1.1,0.3,3.5,0.8,5.3,0.9
			c1.8,0.2,4.4,0.5,5.8,0.7c1.4,0.3,5.2,0.7,8.4,1.1c3.2,0.4,6.9,0.9,8.1,1.1c1.3,0.3,3.8,0.6,5.6,0.8c4.6,0.6,5.8,0.7,6.1,1
			c0.2,0.1,0.9,0.3,1.7,0.5c0.8,0.2,1.8,0.4,2.3,0.6l0.8,0.3l-3.2,3.2c-3.6,3.7-4.9,5-6.7,7.5c-0.7,0.9-1.6,1.9-1.9,2.2
			c-0.3,0.3-0.7,0.8-0.8,1.1c-0.1,0.3-0.4,0.8-0.7,1.1c-0.3,0.3-0.8,1.1-1.2,1.9c-0.4,0.8-1,1.7-1.3,1.9c-0.3,0.3-0.7,0.9-0.7,1.3
			s-0.5,1.4-1,2.1s-0.9,1.6-1,2s-0.5,1.1-0.9,1.7c-0.3,0.6-0.8,1.5-1.1,2.1c-0.3,0.6-0.8,1.5-1.3,2.1c-0.4,0.6-1.1,1.6-1.4,2.2
			c-1.2,2.2-2.1,3.7-3,5c-0.5,0.7-1,1.5-1,1.6s-0.4,0.8-0.8,1.4c-0.5,0.6-0.8,1.2-0.8,1.4c0,0.1-0.4,0.8-0.8,1.4
			c-0.5,0.7-1.5,2.2-2.2,3.5s-1.7,2.7-2.1,3.1s-0.8,1.1-0.9,1.4s-0.7,1.3-1.3,2.1c-0.6,0.8-1.1,1.7-1.1,1.9c0,0.3-0.1,0.5-0.3,0.5
			c-0.1,0-0.6,0.6-1,1.3c-0.4,0.7-1.3,1.8-1.9,2.4c-0.7,0.6-1.6,1.8-2.2,2.6c-0.5,0.8-1.1,1.5-1.3,1.5c-0.5,0-1.2,0.9-1.2,1.5
			c0,0.4-0.5,1.1-1,1.7s-1,1.3-1,1.6c0,0.3-0.1,0.5-0.2,0.5s-0.6,0.5-1.1,1.2c-0.5,0.6-1.1,1.5-1.4,1.9c-0.4,0.4-0.7,0.9-0.7,1.2
			c0,0.7-3.3,4.1-3.9,4.1h-0.1c-0.2-0.3-1-0.5-1.8-0.5c-0.4,0-0.8,0.1-1,0.2c-0.3,0.2-1,1.3-1.6,2.4c-1,2.1-2.7,4.9-3.4,5.5
			c-0.7,0.5-2.8,5-2.9,6.2c-0.1,0.9-0.4,1.5-1,2.1c-0.5,0.5-1,1.2-1.1,1.6c-0.2,0.7-2.4,2.5-3.2,2.5c-0.5,0-1.2,1.3-1.2,2
			c0,1.1,1.1,3,2.4,4.1c2.3,2,2.9,2.5,3.7,2.8c0.4,0.1,1.1,0.5,1.6,0.6c0.5,0.2,1,0.4,1.2,0.4l0,0c0.2,0,0.7,0.3,1.3,0.7
			c0.5,0.4,1,0.7,1.1,0.7l0,0c0.1,0,0.9,0.3,1.7,0.7c0.8,0.4,1.9,0.8,2.5,0.8c0.9,0.2,4.1,1.3,5.2,1.8c0.3,0.1,1,0.3,1.7,0.4
			s1.7,0.4,2.4,0.8c1.4,0.7,4.2,1.6,4.7,1.6l0,0c0.2,0,1.2,0.4,2.2,0.8c1,0.5,2.1,0.8,2.3,0.8l0,0c0.2,0,1.2,0.5,2.2,1
			s2.1,1.1,2.5,1.2s1.1,0.4,1.5,0.7c0.5,0.3,1.4,0.7,2.1,0.9c0.7,0.2,1.9,0.8,2.6,1.2c0.7,0.5,1.7,0.9,2.2,1s1.5,0.5,2.2,0.9
			c0.8,0.4,2,0.7,2.7,0.8s1.4,0.1,1.5,0.3c0.4,0.5,3.4,0.8,9.3,1c1.5,0,2.7,0,3.7,0c1.9,0,2.7-0.1,2.7-0.2c0-0.2,0.5-0.3,1.3-0.3
			c2.9,0,7.9-1.7,8.9-2.9c0.2-0.3,0.5-0.7,0.7-0.9c1.2-1.2,1.4-1.9,1.2-4c-0.2-2-0.8-3.9-1.3-3.9l0,0c-0.1,0-0.4-0.3-0.6-0.7
			c-0.6-1.1-2.1-1.7-5.4-2.3c-1.2-0.2-3.2-0.6-4.6-0.8c-1.3-0.3-2.8-0.5-3.3-0.6c-0.7-0.1-0.9-0.3-0.9-0.7c0-0.3-0.3-0.7-0.8-0.9
			c-0.4-0.2-0.8-0.6-0.9-0.9c-0.2-0.9-0.6-1.2-1.9-1.4c-0.7-0.1-1.9-0.5-2.7-0.9c-1.2-0.6-1.6-1-2.1-2c-0.3-0.7-0.7-1.2-1-1.2l0,0
			c-0.2,0-0.4-0.2-0.4-0.4c0-0.2-0.5-0.8-1.1-1.3s-1.3-1.3-1.6-1.7c-0.3-0.5-0.8-0.9-1.1-1c-0.5-0.1-0.7-0.4-0.7-0.7
			c0-0.3-0.2-0.6-0.4-0.7c-0.2-0.1-0.4-0.4-0.4-0.6s-0.6-1-1.4-1.8c-1.5-1.4-1.8-2.3-0.9-2.3c0.3,0,0.7-0.3,0.9-0.6
			c0.4-0.7,0.2-2-0.3-2l0,0c-0.2,0-0.3-0.4-0.3-1c0-0.5-0.3-1.3-0.6-1.7c-0.7-0.8-0.6-1.9,0.2-3.8c1.2-2.7,1.4-3.3,1.4-3.7
			c0-0.2,0.2-0.5,0.4-0.6c0.3-0.1,0.4-0.5,0.4-1s0.1-0.9,0.2-0.9c0.5-0.2,1.8-2.2,1.8-2.8c0-0.3,0.1-0.6,0.3-0.6
			c0.2,0,0.3-0.3,0.3-0.7c0-0.3,0.3-1,0.7-1.4c0.4-0.4,1.5-1.8,2.4-3.1c1-1.3,2.1-2.7,2.5-3.2c1.7-1.8,2.8-3.2,2.8-3.5
			c0-0.1,0.4-0.5,0.9-0.8s1-0.8,1.2-1.2c0.1-0.3,0.6-0.8,1.1-1.1c0.4-0.3,0.8-0.6,0.8-0.8c0-0.2,0.5-0.7,1.1-1.1s1.1-1,1.1-1.2
			s0.2-0.4,0.4-0.4c0.2,0,0.9-0.5,1.4-1.1s1.6-1.5,2.3-2.1c0.7-0.5,1.7-1.4,2.2-1.9s2-1.9,3.3-3c4.2-3.7,18.7-18.5,21.7-22.1
			c2-2.4,2.8-3.4,3.6-4.1c3.3-3.1,11.5-11.9,11.5-12.5c0-0.3,2.2-3.6,3.1-4.6c1.2-1.3,3.1-4.7,3.4-6.1c0.2-0.7,0.3-2.9,0.3-4.9
			c0-3.3-0.1-3.8-0.7-5c-0.4-0.7-1-1.6-1.4-2s-0.7-0.8-0.7-0.9s-0.3-0.3-0.7-0.4c-0.4-0.1-1.1-0.7-1.7-1.3c-0.7-0.7-2.3-1.7-4.3-2.7
			c-1.7-0.8-3.4-1.7-3.6-1.8s-1.6-0.8-3-1.5s-3.3-1.8-4.3-2.4c-1-0.6-2.3-1.4-2.9-1.8c-0.7-0.4-2.1-1.2-3.1-1.9
			c-1.1-0.7-2.2-1.3-2.4-1.4c-0.3-0.1-0.5-0.3-0.5-0.4c0-0.1-0.1-0.3-0.3-0.3l0,0c-0.2,0-0.7-0.3-1.2-0.7s-1.1-0.7-1.2-0.7l0,0
			c-0.1,0-0.5-0.3-0.8-0.5c-0.3-0.3-0.9-0.7-1.4-0.9s-1.5-0.8-2.2-1.3s-1.6-1-2-1.1s-1-0.5-1.3-0.7c-0.3-0.3-1.1-0.7-1.8-1
			c-0.7-0.2-1.6-0.7-2-1.1c-0.4-0.4-1.2-0.8-1.7-1s-1.2-0.5-1.4-0.6c-0.2-0.1-0.9-0.5-1.4-0.7c-0.5-0.3-2.2-1-3.7-1.7
			s-3.1-1.5-3.6-1.7c-0.5-0.3-1.5-0.8-2.3-1.2s-1.8-1-2.2-1.4c-0.4-0.4-1-0.9-1.3-1c-0.3-0.2-1.2-0.7-1.9-1.2
			c-0.7-0.5-1.5-0.9-1.7-0.9l0,0c-0.2,0-0.5-0.1-0.5-0.2c-0.1-0.1-1.1-0.6-2.2-1s-2.3-0.9-2.5-1c-1.3-0.8-2.9-1.4-4.6-1.6
			c-1-0.2-1.9-0.4-2.1-0.6c-0.1-0.1-0.7-0.3-1.2-0.3l0,0l0,0c-0.5,0-1.1-0.2-1.4-0.6c-0.3-0.3-0.9-0.6-1.5-0.6l0,0l0,0
			c-0.5,0-0.9-0.1-0.9-0.3c0-0.4,1.5-1.7,3.1-2.6c0.7-0.4,1.6-1.1,2-1.5s0.8-0.7,1-0.7c0.1,0,0.7-0.4,1.1-0.9c0.5-0.5,1-0.9,1.1-0.9
			c0.2,0,0.9-0.5,1.6-1.1c2.2-1.7,3.9-2.9,4.7-3.3c0.4-0.2,1-0.6,1.3-0.9c0.3-0.3,1.1-0.8,1.7-1.1s1.4-0.9,1.8-1.2s1-0.7,1.4-0.8
			s0.9-0.4,1.1-0.6c0.2-0.2,1-0.6,1.7-0.9c0.8-0.3,2-0.9,2.8-1.4s1.8-1.1,2.2-1.3c1.5-0.9,3.3-2.4,3.7-3c0.2-0.4,0.5-0.7,0.7-0.7
			s0.8-0.5,1.4-1.1c0.5-0.6,1.1-1.1,1.2-1.1s0.7-0.4,1.2-0.8c0.6-0.5,1.4-1,1.9-1.2s1.2-0.6,1.7-1c0.5-0.3,1.5-0.9,2.4-1.3
			c0.8-0.3,1.5-0.7,1.5-0.9c0-0.1,0.3-0.3,0.8-0.4c0.4-0.1,1.7-0.6,2.9-1.2c1.2-0.5,3-1.3,4-1.6s2.1-0.7,2.4-0.9s1.1-0.5,1.7-0.7
			s1.5-0.6,2-0.9c0.5-0.3,1.6-0.9,2.5-1.4s1.7-1.1,1.8-1.3c0.1-0.2,0.3-0.4,0.6-0.4s1-0.5,1.6-1.1c0.7-0.6,1.3-1.1,1.4-1.1
			c0.2,0,5.3-4.2,5.6-4.6c0.1-0.2,0.5-0.2,0.9-0.2c1.4,0,4.1,0.8,5.4,1.8c1.1,0.8,4,3.6,4.5,4.4c0.4,0.6,1.6,1.1,2.3,1.1
			c0.3,0,0.5-0.1,0.6-0.2c0.2-0.1,0.4-0.2,0.7-0.2c0.7,0,1.6,0.3,2.1,0.9c0.3,0.4,0.8,0.7,1,0.7l0,0c0.2,0,1.2,0.5,2.3,1.1
			c1,0.6,1.9,1.1,2,1.1l0,0c0.1,0,1.2,0.5,2.5,1.1s2.5,1.1,2.7,1.1l0,0c0.1,0,0.8,0.3,1.6,0.7c1.5,0.8,7.2,2.9,8.9,3.2
			c1.2,0.3,3.3,0.9,4.3,1.4c0.3,0.1,1.5,0.5,2.7,0.8c2.1,0.5,5,1.5,6.7,2.2s3.2,1.2,4.1,1.5c0.5,0.2,2.3,0.6,3.8,1.1
			c3.4,1,5.3,1.4,6.6,1.4c0.7,0,1.3-0.1,1.9-0.4c0.9-0.4,3.2-2.2,3.2-2.6c0-0.3,3.9-5.6,5.2-6.9c0.6-0.6,1.1-1.3,1.1-1.5
			s0.4-0.8,0.8-1.3c0.9-1,3.2-4.5,3.2-4.9c0-0.1,0.3-0.5,0.6-0.8c0.3-0.3,0.9-1,1.2-1.7c0.3-0.6,0.9-1.6,1.4-2.3
			c0.5-0.6,0.8-1.3,0.8-1.4c0-0.2,0.2-0.6,0.5-0.9c0.3-0.3,1-1.4,1.5-2.5c0.5-1,1.2-2.3,1.4-2.7c0.3-0.5,0.6-1.3,0.9-1.9
			c0.3-0.5,0.8-1.6,1.2-2.3c0.4-0.7,0.7-1.5,0.7-1.8s0.5-1.5,1.1-2.8s1.1-2.5,1.1-2.8s0.3-1.2,0.7-2c0.4-0.8,0.7-1.6,0.7-1.9
			c0-0.5,0.8-2.9,1.2-3.8c0.4-0.7,0.7-1.8,1.9-6.3c0.4-1.3,0.8-2.5,0.9-2.7c0.1-0.1,0.3-0.6,0.3-1s0.5-1.5,1.1-2.4
			c1-1.6,2.3-3.7,3.1-5.1c0.2-0.3,0.6-0.8,1-1.1c0.8-0.7,3.1-3.9,3.1-4.4c0-0.2,0.5-1.4,1.1-2.5c0.6-1.2,1.1-2.5,1.1-2.8
			s0.3-1.4,0.7-2.3c0.8-1.7,1.4-5.5,1.1-6.5c-0.1-0.4,0.3-1.5,1-2.9c0.6-1.3,1.1-2.5,1.1-2.8s0.3-1.2,0.7-2c1.2-2.7,1.7-6.1,1-7.3
			c-0.2-0.5-1.1-0.8-2-0.8c-0.3,0-0.7,0-0.9,0.2c-0.8,0.3-1.4,1.5-2.1,4.4c-0.3,1.1-0.6,2.1-0.9,2.3c-0.2,0.2-0.4,0.5-0.4,0.6
			s-0.2,0.5-0.4,0.7c-0.2,0.3-0.4,0.7-0.4,1.1c0,0.3-0.2,0.9-0.4,1.3l-0.4,0.7l-0.4-0.7c-0.4-0.7-0.3-1.1,0.8-4.4
			c0.3-0.8,0.5-2.4,0.5-3.5s0.1-2.2,0.2-2.4c0.3-0.5,0.7-5.5,0.5-6.4s-1.4-1.6-2.5-1.6l0,0c0,0,0,0-0.1,0c-0.6,0-0.6-0.1-0.2-0.8
			c0.6-1.1,0.5-2-0.3-2.8c-0.5-0.5-1.3-0.7-2.1-0.7c-0.5,0-1,0.1-1.4,0.3c-0.7,0.4-2,3.1-2.4,5.4c-0.2,1-0.7,2.5-1.1,3.2
			c-0.4,0.8-0.7,1.7-0.7,2.1s0,0.6-0.1,0.6c0,0-0.1-0.2-0.1-0.5c-0.1-0.4,0.1-1.4,0.3-2.3c1.6-5.9,1.3-7.4-1.2-7.4l0,0
			c-2.3,0-2.8,0.6-3.7,4.6c-0.2,0.9-0.6,2.3-0.9,3.2c-0.3,0.9-0.5,2.5-0.5,3.6c0,1.2-0.2,2.4-0.6,3.4c-0.3,0.9-0.9,2.4-1.2,3.3
			c-0.4,1-1,2.2-1.5,2.7s-0.9,1.2-1.1,1.5c-0.1,0.2-0.2,0.3-0.4,0.3c-0.2,0-0.4-0.1-0.9-0.4c-1.3-0.7-3.1-2.3-3.1-2.8
			s-1.7-1.7-3.2-2.2c-0.9-0.3-2.3-0.4-4.2-0.4c-0.1,0-0.1,0-0.2,0c-3.4,0-3.9,0.3-3.8,2c0.1,1,0.2,1.1,1.5,1.5
			c1.7,0.5,2.7,1.2,4.8,3.3c2.5,2.5,2.9,3.1,3.5,4.8c0.3,0.9,0.8,2.1,1.2,2.6c0.3,0.5,0.7,1.3,0.7,1.6c0,1.2,1.1,4.8,1.8,5.7
			c0.5,0.7,0.6,1.2,0.6,2.8c0,1.1-0.2,2.1-0.3,2.3c-0.1,0.1-0.3,0.5-0.3,0.7s-0.2,0.8-0.4,1.3c-0.7,1.7-1.3,3.3-1.3,3.8
			c0,0.3-0.3,0.9-0.6,1.5c-0.4,0.6-0.8,1.4-0.9,1.9s-0.4,1.1-0.6,1.3c-0.4,0.5-2.1,3.5-3.3,6.1c-0.5,0.9-1.1,2.1-1.5,2.6
			c-0.3,0.5-0.8,1.3-1.1,1.9c-0.3,0.5-0.7,1.3-1.1,1.7c-0.3,0.4-0.8,1-0.9,1.4c-0.2,0.4-2.5,3.1-5.2,5.9c-2.7,2.9-4.8,5.3-4.8,5.4
			c0,0.1-0.5,0.7-1,1.3c-0.6,0.6-1.2,1.2-1.4,1.4c-1.7,1.9-3.4,2.9-5.2,2.9c0,0,0,0-0.1,0c-1.2,0-1.6-0.1-2.7-1
			c-0.7-0.5-1.8-1.2-2.4-1.5s-1.5-1-2.1-1.6c-1.4-1.5-3-2.7-4.8-3.7c-0.9-0.5-1.8-1-2.1-1.1c-1.9-1-4.7-2.3-5.5-2.5
			c-0.6-0.1-0.9-0.4-1-0.8c-0.1-0.3-0.3-0.7-0.5-0.8s-0.8-0.4-1.3-0.7s-1.1-0.4-1.4-0.4l0,0c-0.3,0-0.7-0.1-0.9-0.3
			c-0.6-0.4,0.6-2,1.6-2c1.6,0,3-0.7,3.4-1.6c0.3-0.5,0.7-0.9,0.9-0.9c0.3,0,0.7-0.2,0.9-0.4c0.2-0.2,0.6-0.5,0.9-0.6
			s0.8-0.8,1.1-1.6c0.5-1.1,0.6-1.4,1.1-1.4c0.1,0,0.3,0,0.4,0.1c1.3,0.2,2.3,0.4,3.1,0.4c1.6,0,2.1-0.5,2.3-1.8
			c0.1-0.6,0.5-2.5,0.9-4.2c0.4-1.9,0.7-4,0.7-5.4c0-2.6,0-2.6,2.3-3.3c1.2-0.4,1.6-1.1,1.6-2.7c0-0.5,0.2-1.2,0.4-1.6
			c0.2-0.4,0.4-1,0.4-1.4c0-0.3,0.1-0.6,0.3-0.6c0.2,0,0.3-0.2,0.3-0.4c0-0.7,0.5-2.3,0.7-2.3l0,0c0.1,0.2,1.5,0.3,3.1,0.4
			s3.1,0.3,3.3,0.4c0.2,0.2,0.6,0.3,1.1,0.3c1.3,0,3.1-0.5,3.1-1.1c0-0.3,0.1-0.5,0.3-0.5c0.2,0,0.3-0.3,0.3-0.6
			c0-0.3,0.2-0.9,0.5-1.1c0.6-0.6,0.9-3.8,0.4-4.3c-0.2-0.2-0.2-0.7-0.1-1.5c0.1-0.6,0.3-1.6,0.3-2.1c0-1-1.3-5.7-1.8-6.5
			c-0.1-0.2-0.5-0.9-0.7-1.4c-0.3-0.5-0.7-0.9-0.9-0.9l0,0c-0.2,0-0.6-0.5-0.9-1c-0.5-1-3.1-2.8-5.3-3.9c-0.5-0.3-0.9-0.7-1.1-1.5
			c-0.2-0.7-0.6-1.6-0.9-2c-0.3-0.5-0.7-1.1-0.8-1.4c-0.1-0.3-0.5-0.5-1.1-0.5l0,0l0,0c-1.4,0-2.6-0.5-3-1.2c-0.3-0.7-1.3-1-3.3-1
			c0,0,0,0-0.1,0l0,0c-0.8,0-1.3-0.2-1.7-0.5c-0.3-0.3-1-0.7-1.6-1c-0.7-0.3-1.1-0.7-1.1-1c0-0.9-1.2-1.8-4.4-3.1
			c-0.4-0.2-1.3-0.3-2-0.3l0,0l0,0c-0.7,0-2.6-0.2-4.1-0.4c-1.4-0.2-2.7-0.3-3.9-0.3c-0.5,0-1.1,0-1.6,0.1c-7.6,0.5-7.9,0.5-7.9,0.9
			c0,0.3-0.6,0.5-1.6,0.6c-0.9,0.1-2.1,0.4-2.6,0.6s-1.5,0.5-2.1,0.7c-1.8,0.5-3.5,1.5-4.6,2.5c-0.5,0.5-1.5,1.2-2.1,1.5
			s-1.3,0.9-1.5,1.4c-0.5,1-2,2.7-2.8,3.1c-0.3,0.1-0.8,0.6-1,1c-0.3,0.4-0.8,1.3-1.3,2c-0.7,1-0.8,1.6-0.9,3.3l-0.1,2.1l-1.2,0.6
			c-0.6,0.3-0.9,0.4-1.1,0.4s-0.2-0.1-0.3-0.2c-0.1-0.2-0.6-0.6-1.1-0.8c-0.5-0.3-1-0.9-1.3-1.4c-0.5-1.2-4-4.8-5.2-5.4
			c-0.5-0.3-0.9-0.6-0.9-0.7s-0.5-0.5-1.1-0.7c-0.6-0.3-1.1-0.6-1.2-0.7c-0.3-0.4-3.1-1.7-3.8-1.7l0,0c-0.4,0-1.2-0.3-1.8-0.8
			c-1.5-1-2.3-1.4-3.8-1.6c-0.8-0.1-1.5-0.4-2-0.8c-0.4-0.4-1-0.7-1.5-0.7l0,0l0,0c-0.5,0-0.9-0.2-1.1-0.6c-0.2-0.3-1-0.9-1.8-1.3
			s-1.9-1-2.3-1.4c-0.5-0.3-1.4-0.8-2.1-1s-1.9-0.8-2.7-1.3c-1.7-1.2-2.6-1.5-6.3-2.5c-1.6-0.4-3.1-0.9-3.3-1.1
			c-0.2-0.2-1.2-0.7-2.1-1.2c-0.9-0.4-1.9-0.9-2.1-1.1s-1-0.6-1.7-0.8c-0.7-0.3-1.6-0.7-2.1-1c-0.4-0.3-1-0.5-1.2-0.5l0,0
			c-0.4,0-3-1.2-4.8-2.1c-0.4-0.2-0.9-0.4-1.2-0.4l0,0c-0.2,0-1.3-0.5-2.4-1.1s-2.2-1.1-2.5-1.1l0,0c-0.3,0-0.6-0.2-0.7-0.4
			c-0.1-0.2-0.9-0.9-1.8-1.4c-0.9-0.6-1.9-1.3-2.3-1.5c-0.5-0.4-1.5-0.5-4.1-0.7c-1.9-0.1-4.4-0.3-5.6-0.5
			c-3.8-0.5-13.1-0.9-20.5-0.9c-4.3,0-8,0.1-9.4,0.4c-2.3,0.4-5.7,0.8-9,1.2c-1.6,0.1-3.2,0.4-3.7,0.6c-0.5,0.1-1.8,0.3-3,0.3
			s-2.8,0.2-3.6,0.3c-0.8,0.1-2.4,0.4-3.6,0.6c-1.2,0.1-2.9,0.4-3.8,0.6c-0.7,0.2-1.9,0.2-3,0.2c-0.3,0-0.7,0-1,0
			c-2.3-0.1-3.7-0.6-5-1.5c-1.1-0.8-5.3-2.2-8.4-2.8c-1.6-0.3-3.2-0.6-3.6-0.8c-1.1-0.4-4.9-1.3-5.5-1.3l0,0c-0.6,0-1.7-0.9-4-2.9
			c-0.8-0.8-2-1.8-2.6-2.3s-2.1-1.9-3.4-3.1c-1.5-1.4-2.6-2.2-3.1-2.4C199.1,54.1,198.7,54.1,198.3,54.1z"/>
	</g>
</g>
</svg>
