<?xml version="1.0" encoding="utf-8"?>
<!-- Generator: Adobe Illustrator 22.1.0, SVG Export Plug-In . SVG Version: 6.00 Build 0)  -->
<svg version="1.1" id="Layer_1" xmlns="http://www.w3.org/2000/svg" xmlns:xlink="http://www.w3.org/1999/xlink" x="0px" y="0px"
	 viewBox="0 0 612 792" style="enable-background:new 0 0 612 792;" xml:space="preserve">
<path style="fill:none;stroke:#000000;stroke-width:2;stroke-linecap:round;stroke-linejoin:round;stroke-miterlimit:10;" d="
	M270.2,317.9c-3.1,3-5.6,6.1-10.4,7.2c-4.9,1.1-9.5,4-14,6.3c-2,1-2.6,3-2.6,5.4c0.6,27,1,54,1.6,81c0.1,2.5,0.4,5.1,1,7.5
	c0.6,2.3,0.7,4.4-1.1,6c-1.5,1.4-1,3-0.9,4.5c0.2,6.3,1,12.7,0.9,19c-0.3,9.3-1,18.7-2,28c-0.8,7.2-2,14.4-3.5,21.5
	c-0.7,3.4,0.2,6,2.6,8c3.1,2.4,6.2,5.1,10.4,5.6c5,0.6,9.9,2.5,15,2.5c3.1,0,4.5,1.4,4.5,4.5c0,3.3,0,6.7,0,10c0,2.3-0.4,4.3-3,5.3
	c-1,0.4-1.7,1.4-2.5,2.2c-7.9,7.3-20.3,7.4-28,0c-3.6-3.5-2.8-7.7-1.6-12c0.8-2.8,2-4.8,5.1-4.9c0.8,0,1.7,0.6,2.5,0.9"/>
<path style="fill:none;stroke:#000000;stroke-width:2;stroke-linecap:round;stroke-linejoin:round;stroke-miterlimit:10;" d="
	M354.7,330.4c9.4,2.2,14.8,8,16.5,17.5c2,11,4.3,22,5.9,33c1.7,12.3,3,24.6,4.1,37c2.1,23.3,3.3,46.6,2.9,70c-0.2,11-0.9,22-2.3,33
	c-0.5,4-2.1,5-5.6,4c-4.1-1.1-8.6-1-12.5-3"/>
<path style="fill:none;stroke:#000000;stroke-width:2;stroke-linecap:round;stroke-linejoin:round;stroke-miterlimit:10;" d="
	M337.2,501.9c-5.6,1.2-8.5,5.8-10.8,10.1c-3.9,7-6,14.7-6.8,22.9c-1.1,11.7-1.9,23.3-3.1,35c-1.7,18-2.8,36.2-6.3,54
	c-2.2,11.6-3.8,23.3-7.6,34.5c6.5,5.4,6.7,5.5,3.9,13c-1.7,4.6-3.6,9.2-4.8,14c-0.3,1.4-0.4,3.2-2.7,3.6c-2.2,0.3-2.6-1.3-3.5-2.5
	c-6.1-7.9-14.2-13.1-23.5-16.5c-5.1-1.8-9.9,0.4-11.9,5.5c-0.8,2-2.1,3.2-3.6,4.5c-4.4,4-9.5,7.1-13.6,11.4c-2.5,2.6-6,4.3-5,9.1
	c1,5.3,4.9,7.2,9.1,8.4c6.5,1.9,13.1,3.8,20,3.5c2.7-0.1,4.3,1.8,6.3,2.7c1.9-1.7,3.6-2.9,6.2-3.2c12.8-1.5,12.8-2.7,15.5-14.9
	c0.6-2.6,1.6-5,2.5-7.5"/>
<path style="fill:none;stroke:#000000;stroke-width:2;stroke-linecap:round;stroke-linejoin:round;stroke-miterlimit:10;" d="
	M366.2,361.9c2.6,16.1,5.1,32.2,6.2,48.5c1.9,27.5,3.4,55,2.7,82.5c-0.2,6.9,1.1,14.2-3.4,20.5"/>
<path style="fill:none;stroke:#000000;stroke-width:2;stroke-linecap:round;stroke-linejoin:round;stroke-miterlimit:10;" d="
	M260.2,369.9c3.1,10.8,4.8,21.8,6.1,33c2.8,23.6,3.3,47.3,4.8,71c1,14.5-1.6,29-1,43.5c0,0.8-0.6,1.7-1,2.5"/>
<path style="fill:none;stroke:#000000;stroke-width:2;stroke-linecap:round;stroke-linejoin:round;stroke-miterlimit:10;" d="
	M301.7,687.4c9.6,0,17.7-4.1,25.5-9c2.9-1.8,5.7-3.6,9-4.5c4-1.2,7.8-0.5,10.4,2.6c8.5,10.1,20.3,14.2,32.1,18.4
	c2.3,0.8,4.9,1.3,6.9,2.6c1.9,1.2,4.2,2.8,2.6,5.9c-1.5,3-2,6.7-6.5,6.5c-12.8-0.5-25.7-1.1-38.5-1.5c-7.5-0.2-13.9-2.2-19.1-8
	c-1.1-1.2-3-1.8-4.9-1.6"/>
<path style="fill:none;stroke:#000000;stroke-width:2;stroke-linecap:round;stroke-linejoin:round;stroke-miterlimit:10;" d="
	M268.2,82.9c7.3-0.2,9.6,0.1,10.6,9.5c0.4,3.5,1.2,6.8,0.2,10.6c-1.2,4.5-4.1,5.7-7.7,6.4c-5.4,1.1-10.3-0.8-15.6-2.3
	c-13.8-3.9-26.8,1.7-34.5,12.8c-5.4,7.7-7.4,16.2-7,25.5c0.2,5.2-0.7,4.1-5.3,7.3c-5.8,3.9-11.8,8.5-13.7,16.2
	c-1.4,5.4,0.2,10.3,3.1,14.4c9.1,12.9,16.9,26.5,23.9,40.6"/>
<path style="fill:none;stroke:#000000;stroke-width:2;stroke-linecap:round;stroke-linejoin:round;stroke-miterlimit:10;" d="
	M309.2,224.9c0-3.2,1.1-5.8,2.9-8.6c1.6-2.6,3.4-5.1,5.3-7.5"/>
<path style="fill:none;stroke:#000000;stroke-width:2;stroke-linecap:round;stroke-linejoin:round;stroke-miterlimit:10;" d="
	M324.7,200.6c3.1-3.1,6.4-6,9.9-8.8c10.1-8.1,21.5-13.1,33.6-16.8c7.1-2.2,14.4,1.6,15.9,7.9c1.4,5.8,1.4,11.7,0,17.5
	c-4.4,17.7-13.9,30.9-31.4,38.1c-10.1,4.2-20,6.4-30.5,2.4"/>
<path style="fill:none;stroke:#000000;stroke-width:2;stroke-linecap:round;stroke-linejoin:round;stroke-miterlimit:10;" d="
	M271.7,539.9c2.6,2.5,1.6,5.7,1.4,8.5c-0.8,11.8-0.1,23.7-0.4,35.5c-0.3,10.5-0.5,21.1-1.7,31.5c-0.4,3.4-0.5,7.1-1.5,10.6
	c-0.9,3-1.4,7,1.7,10c2.2,2.1,1.9,4.8,1,7.5"/>
<path style="fill:none;stroke:#000000;stroke-width:2;stroke-linecap:round;stroke-linejoin:round;stroke-miterlimit:10;" d="
	M359.2,236.9c3.3,8.4,2.9,17.3,2.4,26c-0.8,13.5-3.8,26.6-10.8,38.5c-6.5,11.1-15.8,19.5-26.1,27c-0.2,0.2-0.7,0-1,0
	c-11.4-0.1-13.4,9.6-17.5,17c-1.2,2.1-2.5,4.1-4,6c-4.3,5.7-3.4,11.4,0.1,17c3.7,5.9,7.1,12,11,17.8c3.9,5.9,6.8,13,10,19.7
	c4,8.3,7,16.9,12.1,24.8c2.2,3.4,1.5,9.4,3.5,13.7c1.6,3.4,3.2,6.8,2.8,10.6c-0.6,6.2-2,12.4-2.7,18.5c-0.9,7.7-4.7,11.2-11.7,13.6
	c-12.9,4.5-23.9,12.6-35,20.4c-6.3,4.4-12.4,9.3-18.5,14"/>
<path style="fill:none;stroke:#000000;stroke-width:2;stroke-linecap:round;stroke-linejoin:round;stroke-miterlimit:10;" d="
	M364.7,513.9c-3.3,3.1-1.4,7.4-2.2,11.1c-1.8,7.8-2.5,15.9-2.7,23.9c-0.2,9.8-2.2,19.3-2.6,29c-0.4,9.5-1.2,19-2.5,28.5
	c-0.9,6-2.9,11.8-2.6,18c0.1,2-0.7,4.7-3.4,5.5c-4.9,1.4-7.1,5.3-9,9.5"/>
<path style="fill:none;stroke:#000000;stroke-width:2;stroke-linecap:round;stroke-linejoin:round;stroke-miterlimit:10;" d="
	M352.2,360.9c-0.7,3.1,2.1,4.5,3.6,5.9c6.4,6,6.7,13.4,5.3,21.1c-1.8,10-3.7,20.1-6,30c-2.5,11-6.4,21.5-13.4,30.5"/>
<path style="fill:none;stroke:#000000;stroke-width:2;stroke-linecap:round;stroke-linejoin:round;stroke-miterlimit:10;" d="
	M286.2,357.9c-5.7,3.5-7.3,10-10.9,15c-1,1.4-0.5,2.9,0.8,4.5c9.3,11.9,18.4,23.9,27.6,35.9c10.8,14.2,21.7,28.3,32.5,42.5
	c1,1.3,2.1,2.8,4,3"/>
<path style="fill:none;stroke:#000000;stroke-width:2;stroke-linecap:round;stroke-linejoin:round;stroke-miterlimit:10;" d="
	M339.2,344.4c2.9,1,4.2,2.8,4.6,6c1.4,11.6,3.9,23.3,1.8,35c-2.4,13.7-1.7,27.9-7.3,41.1c-0.4,1-1,1.7-1.6,2.5"/>
<path style="fill:none;stroke:#000000;stroke-width:2;stroke-linecap:round;stroke-linejoin:round;stroke-miterlimit:10;" d="
	M344.2,118.9c-1.5,5.2,0.8,10.9-2,16c-2.7,5.1-6.6,8.6-12.1,9.9c-5.7,1.3-11.6,1.3-17.3,3c-1.5,0.5-3.5-0.7-5.2-0.9
	c-8.3-0.9-16.7-1.1-25-1.8c-6.3-0.5-12.6-1.6-19-1.3c-9.5,0.4-18,2.7-24.5,10.1"/>
<path style="fill:none;stroke:#000000;stroke-width:2;stroke-linecap:round;stroke-linejoin:round;stroke-miterlimit:10;" d="
	M310.2,192.9c-2.5-9.7-13.2-14.1-19.5-8c-8.8,8.6-6.6,29.1,4.1,34.9c3.2,1.8,7.2,1.6,11,0.7c1.1-0.3,2.3-1.3,3.5-0.1"/>
<path style="fill:none;stroke:#000000;stroke-width:2;stroke-linecap:round;stroke-linejoin:round;stroke-miterlimit:10;" d="
	M223.2,237.9c7.2,1.5,11.3,6.6,14.5,12.5c9.8,18.4,19.7,36.6,28.6,55.5c1.9,4,1.4,9.6,6,11.9c4.1,2,8.6,3,12.9,4.6
	c7.8,2.9,15.8,5,24,6c1.9,0.2,3.4,1,4.5,2.5"/>
<path style="fill:none;stroke:#000000;stroke-width:2;stroke-linecap:round;stroke-linejoin:round;stroke-miterlimit:10;" d="
	M232.2,228.9c-6.4-6.7-11-6.2-17,1.5c-7.6,9.6-3.1,23.4,6,28.5c5.9,3.3,11.7,1.9,16-3.5c0.5-0.6,1-1.2,2-1"/>
<path style="fill:none;stroke:#000000;stroke-width:2;stroke-linecap:round;stroke-linejoin:round;stroke-miterlimit:10;" d="
	M263,325.4c-0.3,8.5-0.5,17-0.7,25.5c0,2.2,0.2,4.4,0.5,6.5c0.6,3.9,3.1,5.4,7,5.6c3.5,0.2,7.1-1.1,10.5,0.4"/>
<path style="fill:none;stroke:#000000;stroke-width:2;stroke-linecap:round;stroke-linejoin:round;stroke-miterlimit:10;" d="
	M284.2,651.9c-2.9-5.9-8.1-7.2-14-7.5c-5.9-0.2-10.8,1.5-12.9,7.5c-1.9,5.4-2.8,11.2-2.5,17c0.2,3.9,3.2,4,6,4.5"/>
<path style="fill:none;stroke:#000000;stroke-width:2;stroke-linecap:round;stroke-linejoin:round;stroke-miterlimit:10;" d="
	M286.7,257.9c-0.5,11,7.2,26.6,20,30c2.5,0.7,4.9,0.8,7.5,0.1c2.3-0.6,4.6-0.7,7-1.1"/>
<path style="fill:none;stroke:#000000;stroke-width:2;stroke-linecap:round;stroke-linejoin:round;stroke-miterlimit:10;" d="
	M230.2,160.9c9.2,5,15.7,13,19.6,22.2c2,4.7-0.6,10.9-2.1,16.3c-1.8,6.5-3.4,13-5,19.5c-0.5,1.9,0.7,3.4,1.5,5"/>
<path style="fill:none;stroke:#000000;stroke-width:2;stroke-linecap:round;stroke-linejoin:round;stroke-miterlimit:10;" d="
	M268.7,321.4c6.5,12.1,13.8,23.6,24,33c1.8,1.7,3.3,3.7,6,4"/>
<path style="fill:none;stroke:#000000;stroke-width:2;stroke-linecap:round;stroke-linejoin:round;stroke-miterlimit:10;" d="
	M313.2,148.9c4.7,7.2,11.2,13,15.5,20.5c3.5,6,7.6,11.6,10.5,18"/>
<path style="fill:none;stroke:#000000;stroke-width:2;stroke-linecap:round;stroke-linejoin:round;stroke-miterlimit:10;" d="
	M337.7,482.9c8.9,5.2,17.4,10.9,24,19c2.1,2.6,4.9,4.8,5,8.5c0,1.5,1.7,1.8,2,1.9c2.9,0.3,3.4,2.8,4.5,4.6"/>
<path style="fill:none;stroke:#000000;stroke-width:2;stroke-linecap:round;stroke-linejoin:round;stroke-miterlimit:10;" d="
	M378.7,525.9c0.4,7.9-2.5,15.1-4.6,22.5c-0.8,3-3,4.7-6.4,4.6c-2.2-0.1-4.3,0.3-6.5,0.4"/>
<path style="fill:none;stroke:#000000;stroke-width:2;stroke-linecap:round;stroke-linejoin:round;stroke-miterlimit:10;" d="
	M329.2,645.9c0.1-5.4,5.2-4.2,8-6c2.8-1.7,3.6,0.8,5,2.4c7.6,9.1,8.7,21.6,3.5,32.5"/>
<path style="fill:none;stroke:#000000;stroke-width:2;stroke-linecap:round;stroke-linejoin:round;stroke-miterlimit:10;" d="
	M325.2,101.2c-2.7-0.3-2.2-2.4-2.5-4.2c-2.4-12.9-6.2-16.5-17.5-19.9c-1.5-0.5-3.4-0.5-4.5,1.4"/>
<path style="fill:none;stroke:#000000;stroke-width:2;stroke-linecap:round;stroke-linejoin:round;stroke-miterlimit:10;" d="
	M326.2,100.4c2.5-2.2,1.4-5.4,2.8-8.9c5.7,3,8.1,8.1,9.7,13.5c1.3,4.4,1.5,8.9,0.7,13.5c-0.3,1.7-0.6,3.7,0.4,5.5"/>
<path style="fill:none;stroke:#000000;stroke-width:2;stroke-linecap:round;stroke-linejoin:round;stroke-miterlimit:10;" d="
	M307.2,347.4c0.7,1,1.3,2.1,2,3c6.1,7.5,8,8,22.1,6c4.3,4.6,4.5,10.9,6.5,16.5s1.8,11.8,5,17"/>
<path style="fill:none;stroke:#000000;stroke-width:2;stroke-linecap:round;stroke-linejoin:round;stroke-miterlimit:10;" d="
	M339.7,317.9c0.8,0.2,1.9,0.1,2.5,0.5c4.1,3.8,8,7.6,12,11.5c-1.3,8.2,5,14.6,5,22.5c0,5.4-3.9,8.4-10,7.5"/>
<path style="fill:none;stroke:#000000;stroke-width:2;stroke-linecap:round;stroke-linejoin:round;stroke-miterlimit:10;" d="
	M302.7,690.9c2,4.3,1.3,9,1.5,13.4c13.4,3.1,13.5,0,14.2-7.4"/>
<path style="fill:none;stroke:#000000;stroke-width:2;stroke-linecap:round;stroke-linejoin:round;stroke-miterlimit:10;" d="
	M339.7,243.9c0.4,6.3,3.3,12,5,18.1c-4.1,4.6-9.9,5.8-15.6,6.7c-2.8,0.4-5.6,1.2-8.5,1.2c-12.7-0.2-23.8-4.4-33.4-12.6
	c-2.1-1.8-2.6-4.8-3-7.4c-0.4-2.8-0.4-5.7-0.6-8.5"/>
<path style="fill:none;stroke:#000000;stroke-width:2;stroke-linecap:round;stroke-linejoin:round;stroke-miterlimit:10;" d="
	M317.7,358.4c-0.5,5.8-1.1,11.7-1.5,17.5c-0.2,2.7,0.1,5.6-1.5,8"/>
<path style="fill:none;stroke:#000000;stroke-width:2;stroke-linecap:round;stroke-linejoin:round;stroke-miterlimit:10;" d="
	M299.2,94.4c-3.7-3.5-5.5-9-10.5-10.9c-3.2-1.2-6.6-4.6-10.5-1.1"/>
<path style="fill:none;stroke:#000000;stroke-width:2;stroke-linecap:round;stroke-linejoin:round;stroke-miterlimit:10;" d="
	M347.2,325.4c-1.6,4-1,8.3-1.4,12.5c-0.4,3-0.6,5.9-3.1,8"/>
<path style="fill:none;stroke:#000000;stroke-width:2;stroke-linecap:round;stroke-linejoin:round;stroke-miterlimit:10;" d="
	M324.7,328.9c2.1,2.5,5.7,2.8,8,5c4.2,4.1,7.6,8.7,4.5,14.9c-1.4,2.8-1.4,6.5-4.9,8"/>
<path style="fill:none;stroke:#000000;stroke-width:2;stroke-linecap:round;stroke-linejoin:round;stroke-miterlimit:10;" d="
	M225.2,130.9c-1.2,3.5-2.6,6.9-3.4,10.5c-0.4,2-0.8,4.5,0.9,6.5"/>
<path style="fill:none;stroke:#000000;stroke-width:2;stroke-linecap:round;stroke-linejoin:round;stroke-miterlimit:10;" d="
	M307.2,185.4c5-5.2,10.5-5.3,16-0.5c2.6,2.3,4.4,5.3,6.5,8"/>
<path style="fill:none;stroke:#000000;stroke-width:2;stroke-linecap:round;stroke-linejoin:round;stroke-miterlimit:10;" d="
	M293.2,168.9c-6.2-1.1-10,1.3-14,9"/>
<path style="fill:none;stroke:#000000;stroke-width:2;stroke-linecap:round;stroke-linejoin:round;stroke-miterlimit:10;" d="
	M315.7,270.9c-1.3,5.3-1.3,10.7,0,16"/>
<path style="fill:none;stroke:#000000;stroke-width:2;stroke-linecap:round;stroke-linejoin:round;stroke-miterlimit:10;" d="
	M324.2,101.9c-1.5,5.1-2.2,10.6-7,14"/>
<path style="fill:none;stroke:#000000;stroke-width:2;stroke-linecap:round;stroke-linejoin:round;stroke-miterlimit:10;" d="
	M243.2,238.9c-0.1,1,0.8,1.7,1.1,2.4c2.4,5.3,5.5,5.9,9.9,2.1c1.6-1.4,1.3-3.1,0.4-4.5c-1.7-2.8-3.6-5.4-5.5-8"/>
<path style="fill:none;stroke:#000000;stroke-width:2;stroke-linecap:round;stroke-linejoin:round;stroke-miterlimit:10;" d="
	M225.2,144.9c-2.4,8.5-2,9,7,9"/>
<path style="fill:none;stroke:#000000;stroke-width:2;stroke-linecap:round;stroke-linejoin:round;stroke-miterlimit:10;" d="
	M297.2,77.9c5.4,3.1,7.3,9,3.9,13.9c-2.3,3.2-1.9,8-5.9,10.1"/>
<path style="fill:none;stroke:#000000;stroke-width:2;stroke-linecap:round;stroke-linejoin:round;stroke-miterlimit:10;" d="
	M288.2,239.9c-4.3,1-9.6-0.6-12,5"/>
<path style="fill:none;stroke:#000000;stroke-width:2;stroke-linecap:round;stroke-linejoin:round;stroke-miterlimit:10;" d="
	M246.7,517.9c-2.6,4.2-2,8.6-1,13"/>
<path style="fill:none;stroke:#000000;stroke-width:2;stroke-linecap:round;stroke-linejoin:round;stroke-miterlimit:10;" d="
	M318.2,169.9c-2.7-1.2-5.6-1.5-8.5-1.5"/>
<path style="fill:none;stroke:#000000;stroke-width:2;stroke-linecap:round;stroke-linejoin:round;stroke-miterlimit:10;" d="
	M327.7,357.4c0.2,4.5,0.3,9,0.5,13.5"/>
<path style="fill:none;stroke:#000000;stroke-width:2;stroke-linecap:round;stroke-linejoin:round;stroke-miterlimit:10;" d="
	M259.2,110.4c-1.8,1.3-3.7,2.4-6,2.5"/>
<path style="fill:none;stroke:#000000;stroke-width:2;stroke-linecap:round;stroke-linejoin:round;stroke-miterlimit:10;" d="
	M223.2,153.4c-1.3,1.8-3.2,1.5-5,1.5"/>
<ellipse transform="matrix(0.9851 -0.172 0.172 0.9851 -30.4584 55.4766)" style="fill:none;stroke:#000000;stroke-width:2;stroke-linecap:round;stroke-linejoin:round;stroke-miterlimit:10;" cx="304.9" cy="203.5" rx="7" ry="11.3"/>
<path style="fill:none;stroke:#000000;stroke-width:2;stroke-linecap:round;stroke-linejoin:round;stroke-miterlimit:10;" d="
	M324.7,200.6c-2.6,2.6-5.1,5.3-7.4,8.3c-2.3-1.2-4.3-4.3-4.9-8.2c-0.9-5.4,1-10.2,4.3-10.8s6.8,3.3,7.7,8.7
	C324.6,199.2,324.7,199.9,324.7,200.6z"/>
</svg>
