<?xml version="1.0" encoding="utf-8"?>
<!-- Generator: Adobe Illustrator 17.0.0, SVG Export Plug-In . SVG Version: 6.00 Build 0)  -->
<!DOCTYPE svg PUBLIC "-//W3C//DTD SVG 1.1//EN" "http://www.w3.org/Graphics/SVG/1.1/DTD/svg11.dtd" [
	<!ENTITY ns_flows "http://ns.adobe.com/Flows/1.0/">
	<!ENTITY ns_extend "http://ns.adobe.com/Extensibility/1.0/">
	<!ENTITY ns_ai "http://ns.adobe.com/AdobeIllustrator/10.0/">
	<!ENTITY ns_graphs "http://ns.adobe.com/Graphs/1.0/">
]>
<svg version="1.1" id="Layer_1" xmlns:x="&ns_extend;" xmlns:i="&ns_ai;" xmlns:graph="&ns_graphs;"
	 xmlns="http://www.w3.org/2000/svg" xmlns:xlink="http://www.w3.org/1999/xlink" xmlns:a="http://ns.adobe.com/AdobeSVGViewerExtensions/3.0/"
	 x="0px" y="0px" width="256px" height="256px" viewBox="0 0 256 256" style="enable-background:new 0 0 256 256;"
	 xml:space="preserve">
<g transform="translate(0.000000,960.000000) scale(0.100000,-0.100000)">
	<path style="fill:none;stroke:#000000;stroke-width:3;stroke-miterlimit:10;" d="M538.8,9026.2c-13-6-21.4-21.2-23.8-43.4
		c-1.8-16.2,2.8-35,14-56.2c6.4-12.2,9-19.4,9-25.2c0-10.6,5-18.8,17.2-28.6c28.6-23.4,32.6-33,25.4-62.2c-4.8-20.2-4.4-61,1-80.8
		c7-26,22-51.4,41.2-69.6c8.6-8.2,8.8-11.4,4.2-51.6c-3.6-29.4-4.6-33.6-18.8-75.6c-18.8-54.8-37.8-139.4-48.4-216
		c-4.8-35.6-6-79.4-2.2-92c1.4-4.6,1.6-8.6,0.6-9.6s-9-2.6-18-3.4c-23-2.4-53.4-14.8-97.2-40c-11-6.2-32.6-18.6-48-27.4
		c-45.6-26.2-37-23-130-46.4c-51.2-13-70.2-19.8-93.8-34.2c-23.2-14-26-17.2-26.8-33.8c-0.6-10.8,0-15.2,3.4-21.8
		c5.8-11.6,11.4-14.4,32.2-17.4c20.6-2.8,25.8-5.6,16.8-9.2c-9.4-3.6-32.8-1-46.8,5.4c-14.8,6.6-30.2,22.4-34.8,36
		c-4,12-4.2,37.6-0.2,54.8c1.8,7.2,9,27.4,16,45.2c16.8,41.4,19.8,55.2,18.2,83.8c-1.4,27.4-3.2,34-12.6,44.8
		c-13,15.2-30.2,18.8-40.6,8.4c-6.6-6.4-9-13.8-7.2-21.2c1.2-5,4-8.2,13.2-15.8c4.2-3.4,4.4-4.6,3.4-23
		c-1.2-21.8-3.6-29.8-20.4-66.2c-16.4-35.8-21.6-56.8-21.6-88c-0.2-22,0.4-26.8,5-39.4c25.8-72,110.6-96.2,192.4-55.2
		c7.6,3.8,29.2,15.4,47.6,25.8c18.6,10.2,35.4,19,37.2,19.2c2.8,0.6,3.6-2,4.8-14.6c1-9.6,5.6-27,12.4-47.4
		c5.8-17.8,10.2-32.8,9.6-33.4c-0.6-0.6-13.4-0.6-28.4,0.2c-28.4,1.4-40.2,0-63.4-7.4c-14.6-4.8-22.6-12.6-22.6-22.4
		c0-12.2,16.6-41.8,39.4-70.4c37.2-46.8,50-65,51.4-72.8c1.4-9.4,5.8-11.4,19.6-9.6c5.8,0.8,9.8,0.2,13.2-2.2c6-3.8,24.6-4.4,29-0.8
		c1.8,1.4,7.6,2.2,14.8,2c6.6-0.4,14.2,0.4,16.8,1.8s7.4,3.4,10.6,4.6c5.4,2,5.6,2.6,4.6,10.2c-1.4,10.8-6.4,15.6-23.8,22.8
		c-9,3.8-18.4,9.6-25.4,16c-6.2,5.6-18.2,15.8-26.6,22.8c-15.4,12.4-25.6,23.4-25.6,27.8c0,3.4,1.6,3,8.2-1.8
		c3.2-2.2,10.6-5.6,16.2-7.4c9.8-3.2,10.6-4,11.8-10.8c0.6-4.2,2.8-9.4,4.8-11.6c7.2-8,35.4-14,66-14c11.2,0,34.2-0.6,51-1.4
		c28-1.2,31-1.6,36-6c6.2-5.2,21.8-6.4,31-2.2c3.8,1.8,6.2,1.6,9.8-0.2c4.8-2.8,16.2-2.2,38.2,1.6c14.8,2.4,19.6,7.2,16.8,16.8
		c-2.4,8.8-9.8,14.8-23.4,18.6c-6.2,1.6-19.4,6.4-29.4,10.2c-18,7.2-18.2,7.2-59.8,8.8c-23.6,1-42.6,2.4-43.8,3.6
		c-2.6,2.6,3.8,10.2,8.4,10.2c7,0,28.2,12.2,41.4,23.6c22.6,19.6,37.8,34.8,43.2,43.6c4.6,7.2,6.6,8.4,16.8,10.6
		c22.4,4.8,39.8,10.6,61.8,20.8c20.4,9.2,23.2,10,38.2,10.2c13.2,0.2,17.2,1,20.8,4.2c3.8,3.4,4.8,3.6,8.6,1
		c16.6-10.6,31-13,42.4-6.8c3.4,1.8,9.2,5,13.2,7s10.2,7.4,13.8,11.8c5,6.2,7.6,8,12.6,8c10.8,0.2,20.6,6.2,41.2,25.6
		c11,10,21.2,18.4,22.6,18.4c1.6,0,4.2-3,6-6.6c7.8-16.2,20.2-24.8,49.6-34.4c6-2,12.6-4.8,14.4-6.4c5-4.4,8.2-19.6,7.8-37.2
		c-0.6-18.8,3.6-34,13.2-47.2c3.6-5,9.4-13,12.8-17.8c6-8.4,6-8.8,2.6-12.6c-2-2.2-9.8-8.6-17.4-14.2c-8.6-6.4-13.4-11.4-13-13.4
		c0.8-4.4,30.6-14.2,47.8-15.6c9.6-0.8,17.6,0,28,2.6c10.4,2.6,21.4,3.6,36.8,3.4c24-0.2,37.8-3.6,71.4-17.4
		c11.2-4.6,24.8-8.2,37.4-10.2c11.2-1.6,28.4-5.2,38.6-7.8c24.2-6.2,63.2-10,76.6-7.4c5.6,1,16.4,4.4,24,7.4c13.4,5.2,16.2,5.6,60,7
		c36,1,50.4,2.2,66,5.6c11,2.4,41,8,66.6,12.2c25.6,4.4,55,10.6,65.4,13.8c11.2,3.6,26.6,6.8,38.2,8c17,1.4,20.2,2.4,28.4,8.4
		c25,17.8,42.4,28.8,51.4,33c5.6,2.4,18.4,11,28.6,19c10.4,8.2,20.6,15.8,23,17.2c3.4,1.8,15.2,1.6,50.4-0.4
		c25.4-1.6,48.8-3.4,52.2-4c4.2-1,8.4-0.2,12.4,1.8c3.4,1.8,8.6,3.2,11.6,3.2c14,0,30,16.8,24.6,25.8c-1.6,2.4-1.4,5.6,0.8,12.2
		c2.8,8.2,2.8,9.4,0,12.6c-1.8,1.8-4.4,3.4-6,3.4c-1.4,0-2.6,0.6-2.8,1.6c-1.2,13.4-5.4,17-17,15.2c-5.2-0.8-8.8-0.4-9.6,1
		c-2,3.2-12.4,2.8-19.2-0.8c-8.8-4.6-23.8-9.4-25.8-8.2c-0.8,0.6-2.2,4.4-2.8,8.6c-0.6,4.2-1.6,9.2-2.4,11c-1.4,3.6-0.6,4.2,9.2,6.4
		c2.8,0.6,8.6,3.8,12.6,7.2c4.2,3.2,11,6.4,15,7.2c10,1.8,13.6,4,25.2,15c5.4,5.2,14.8,12.6,20.8,16.6c9.4,6.4,12,7.2,23.4,7.2
		c11.2,0,13.4,0.6,19.6,6.2c15.4,13.4,12.6,33.4-6.6,46.6c-6,4.2-8.4,7.8-11.2,16.2c-4.6,15-9.8,20.6-24,27.2
		c-6.6,3-14.4,7.6-17,10.4c-7.6,7.6-41.6,94.6-38.4,97.8c3.4,3.4,48.6-13.4,90-33.2c109.8-52.6,201.2-77.2,298.4-80.6
		c116.4-3.8,178.8,24,207.2,92.4c5.4,13,5.8,15.8,5.6,39c-0.2,28.6-5.2,48.8-18,74.4c-14.8,29.4-54.8,84-76.6,104.2
		c-8,7.4-11.4,9.4-16.8,9.4c-13.4,0-16.8-15-6-26.4c10.4-11.2,37.2-47.8,49.6-67.6c20.2-32.8,32.4-70,30.6-93.6
		c-2.6-33.6-36.6-66.2-78.6-75.4c-23-5.2-73.2-6-108-2.2c-87,10-168.4,36.8-257.6,84.8c-35.2,19-59.8,29.8-92.4,40.6
		c-14.2,4.6-27.2,9.4-28.4,10.4c-1.6,1.2-2.6,6.6-2.6,14.2c0,26.8-11.2,52.4-32.2,73.6c-26.6,26.6-73.4,57.8-99.4,66.4
		c-19.4,6.2-21.4,6.6-56.4,10.2c-16,1.6-36.6,4.4-46,6c-35.2,5.8-62.4,7.6-96.2,6.4l-33.4-1.4l-31.6,8.8
		c-33.4,9.2-46.2,14-91.8,33.6c-15.4,6.6-37.4,15.6-49,20c-54.6,20.4-161.8,46.2-218,52.6c-27.4,3-24.8,1.4-34.2,20.4
		c-4.8,9.6-13.6,24-19.6,32c-16.2,21.8-32.8,31.4-64.2,37.4c-12.6,2.4-13,2.6-12.8,8.4c0.2,3.2,1.8,13.4,3.8,22.8
		c4.2,20.4,3.4,48.2-2.2,74.2c-3,14.2-3.2,18.6-1.2,25c2.4,8.2,15.8,23.6,28.8,33.4c9.4,6.8,13.4,14.6,15,28
		c0.6,5.8,4.2,16.4,7.8,23.6c15.4,31.2,17,56.6,4.6,81.2c-5.6,11.4-8.4,14.4-15.8,18.2c-7.6,4-11.2,4.6-23,3.8
		c-20.2-1.2-33.2-7.2-68.4-30.6c-17-11.4-33-20.8-35.4-20.8c-2.2,0-11,1.8-19.2,4c-33.4,8.8-110.6,10.4-143,2.8
		c-7.6-1.8-19.2-3.6-25.6-4.2c-12.4-1.2-12.4-1.2-57.8,29.8C585.4,9027.6,556.8,9034.4,538.8,9026.2z M1264.4,8107.2
		c1-5,1-8.6-0.4-10c-3-3-23.6-9-35-10.2c-5.4-0.6-13.8-1.6-18.4-2.2c-7.8-1-8.6-0.6-11.6,5.2c-6.6,12.6,0.8,16.4,46,24
		C1261,8116.6,1262.6,8116,1264.4,8107.2z M1363.6,8099c18.2-11,40.2-17.4,77-22c7.6-1,9.6-2,9-4.6c-0.6-2.6-3.8-3.8-14.6-5
		c-7.8-0.8-18.8-2.8-24.6-4.6c-10.4-3.4-10.6-3.4-24,2.2c-29.4,12.2-38.4,20.2-38.4,33.2c0,4.4,1,7.8,2.2,7.8
		C1351.4,8106,1357.4,8102.8,1363.6,8099z M1792,8089.6c0-1.4-2.8-6.6-6-11.6c-7-10.4-13-25.4-14.8-37.2c-1.6-8.8,2-20.4,8.2-27.2
		c1.8-2,2.6-4.2,2-4.8c-2.2-2.4-51.4-1-80.4,2c-15.4,1.6-40.4,4.2-55.6,5.4l-27.6,2.6l-6.8,8.4c-3.8,4.6-7,9.2-7,10.2
		c0,0.8,2.4,4.2,5.2,7.4c5.4,6.2,15.8,9.6,40.6,13.4c8.4,1.2,22.8,4.8,32.2,7.8c17.8,6,96,24.6,107.6,25.8
		C1790.8,8091.8,1792,8090.8,1792,8089.6z M1149,8036c5-9.4,9.6-11,40-12c25-0.8,28-1.4,28-4.6c0-5.2-48.4-53-59.4-58.6
		c-12.6-6.4-14.4-6.2-18.2,2.8c-1.8,4-4.6,10.6-6.2,14.4c-1.8,3.8-5,9.2-7.2,12c-2.2,2.8-4.8,9.6-5.6,15c-2,11.4-5.4,18-11.2,20.6
		c-3.2,1.4-0.8,3,14,8.8c9.8,4,19,7.2,20.2,7.4C1144.8,8042,1147.2,8039.4,1149,8036z M1075.2,8020.2c-0.6-1-5.2-4.2-9.8-7
		c-7.6-4.4-10.2-4.8-20.6-3.8c-11.4,1.2-16.8,3.2-16.8,6.8c0,1,3.4,2,7.6,2c4,0.2,10.2,1,13.4,1.8
		C1057.6,8022.2,1076.4,8022.4,1075.2,8020.2z"/>
</g>
</svg>
