<?xml version="1.0" encoding="utf-8"?>
<!-- Generator: Adobe Illustrator 22.1.0, SVG Export Plug-In . SVG Version: 6.00 Build 0)  -->
<svg version="1.1" id="Layer_1" xmlns="http://www.w3.org/2000/svg" xmlns:xlink="http://www.w3.org/1999/xlink" x="0px" y="0px"
	 viewBox="0 0 512 512" style="enable-background:new 0 0 512 512;" xml:space="preserve">
<g transform="translate(0 -308.27)">
	<path style="fill:none;stroke:#000000;stroke-miterlimit:10;" d="M103.1,648c-1.7,0.4-3.4,0.9-5,1.6C86.7,639.8,80.5,628,77.5,615
		c-0.2-0.7-0.3-1.3-0.4-2c-0.1-0.5-0.2-1-0.3-1.4c-5.1-28.2,4.2-61.8,9.4-93.9c0.8-5,1.5-10,2-14.9c0-0.4,0.1-0.8,0.1-1.2
		c0.8-7.2,1.1-14.3,0.9-21.1c0.5,6.9,0.3,14-0.3,21.2c0,0.4-0.1,0.7-0.1,1.1c-0.6,6.6-1.5,13.3-2.6,20c-6.8,41.4-19.3,84.1,9,117.2
		c0.8,1,1.7,1.9,2.6,2.9C99.5,644.6,101.2,646.3,103.1,648z"/>
	<path style="fill:none;stroke:#000000;stroke-miterlimit:10;" d="M109.8,421.2c-7.2,0-15.2,9.3-18.5,22.3c-0.4,1.5-0.7,3-0.9,4.4
		c-0.2-0.8-0.3-1.7-0.5-2.5c-3.4-14.4-12.5-24.5-20.3-22.5s-11.4,15.4-8,29.9c0.2,0.8,0.4,1.7,0.7,2.5c-8.7-9-19.2-12.4-24.7-7.5
		c-6.2,5.5-3.8,19.1,5.3,30.5c1.4,1.7,2.8,3.3,4.3,4.7c-0.9,0.3-1.8,0.7-2.7,1c-13.1,5.5-21.3,16.4-18.3,24.3
		c2.9,7.7,15.4,9.7,28.2,4.7c-8,10.6-10.1,22.8-4.5,28.1c6,5.7,18.4,1.4,27.9-9.7c4.7-5.5,7.7-11.5,8.9-16.9l0,0
		c-0.8,5.2-0.4,11.5,1.5,17.9c4.1,14.2,13.7,23.8,21.4,21.3s10.6-16,6.5-30.3c-0.3-1.2-0.7-2.3-1.1-3.4c1,0.7,2.1,1.4,3.2,2
		c12.4,7,25.5,6.6,29.3-0.9c2.1-4.2,0.9-9.8-2.9-15.1c6.8-2.8,11.2-7.4,11.2-12.8c0-8.5-11.4-15.4-25.5-15.4c-0.8,0-1.6,0-2.4,0.1
		c1.3-0.6,2.6-1.3,3.9-2c12.3-7.2,19.1-19.1,15.2-26.6c-3.6-6.8-15-7.5-26.4-1.9c2.2-12.8-1.2-24-8.2-26
		C111.3,421.3,110.6,421.2,109.8,421.2L109.8,421.2z M90.6,462.6c0.1,0.3,0.1,0.6,0.2,0.8c-0.1,0-0.2,0-0.4,0
		C90.5,463.1,90.5,462.8,90.6,462.6L90.6,462.6z M114,481.3c0.1,0,0.1,0,0.2,0C114.1,481.3,114.1,481.4,114,481.3
		C114,481.4,114,481.3,114,481.3L114,481.3z"/>
	<path style="fill:none;stroke:#000000;stroke-miterlimit:10;" d="M10.2,523.6c12.9,32.1,22.1,79.2,60.4,89c2.6,2.1,5.7,3.1,9.7,2.1
		l-6.7-5.9C69.8,583.3,29.1,549.8,10.2,523.6L10.2,523.6z"/>
	<path style="fill:none;stroke:#000000;stroke-miterlimit:10;" d="M77.1,613c-16,1.6-68.5-88.9-65.5-89.8"/>
	<path style="fill:none;stroke:#000000;stroke-miterlimit:10;" d="M158.7,547.7c-25.3,22.4-65.1,45.5-62.8,87.1
		c-1.1,3.2-1.1,6.7,0.9,10.5l3.4-8.5C122.1,625.4,140.5,574.5,158.7,547.7L158.7,547.7z"/>
	<path style="fill:none;stroke:#000000;stroke-miterlimit:10;" d="M97.4,641.6c-6.2-15.6,60.3-95.3,62-92.5"/>
	<path style="fill:none;stroke:#000000;stroke-miterlimit:10;" d="M68.3,485.3c0,9.7,8.7,17.5,19.4,17.5s19.4-7.8,19.4-17.5l0,0
		c0-9.7-8.7-17.5-19.4-17.5S68.3,475.6,68.3,485.3L68.3,485.3z"/>
	<g transform="translate(-2.0203 -24.244)">
		<path style="fill:none;stroke:#000000;stroke-miterlimit:10;" d="M168.5,538.3c12.9,32.1,22.1,79.2,60.4,89
			c2.6,2.1,5.7,3.1,9.7,2.1l-6.7-5.9C228.1,598,187.4,564.5,168.5,538.3L168.5,538.3z"/>
		<path style="fill:none;stroke:#000000;stroke-miterlimit:10;" d="M235.4,627.7c-16,1.6-68.5-88.9-65.5-89.8"/>
		<path style="fill:none;stroke:#000000;stroke-miterlimit:10;" d="M252.2,655.1c-1.7,0.4-3.3,0.9-4.9,1.6c-6.3-8.2-10-17.3-11.9-27
			c-0.1-0.6-0.2-1.3-0.3-1.9c-0.1-0.6-0.2-1.2-0.3-1.8c-4.1-27.7,4.8-60.4,9.8-91.5c0.9-5.4,1.6-10.8,2.2-16
			c0.8-7.2,1.1-14.3,0.9-21.1c0.5,6.9,0.3,14-0.3,21.2c-0.6,6.9-1.6,14-2.7,21.1C238,580.3,225.7,622.2,252.2,655.1z"/>
		<path style="fill:none;stroke:#000000;stroke-miterlimit:10;" d="M256.1,659.6l-1,2.4c-1-1.8-1.5-3.6-1.6-5.2
			C254.4,657.8,255.2,658.7,256.1,659.6z"/>
		<path style="fill:none;stroke:#000000;stroke-miterlimit:10;" d="M268.2,438c-7.2,0-15.2,9.3-18.5,22.3c-0.4,1.5-0.7,3-0.9,4.4
			c-0.2-0.8-0.3-1.7-0.5-2.5c-3.4-14.4-12.5-24.5-20.3-22.5s-11.4,15.4-8,29.9c0.2,0.8,0.4,1.7,0.7,2.5c-8.7-9-19.2-12.4-24.7-7.5
			c-6.2,5.5-3.8,19.1,5.3,30.5c1.4,1.7,2.8,3.3,4.3,4.7c-0.9,0.3-1.8,0.7-2.7,1c-13.1,5.5-21.3,16.4-18.3,24.3
			c2.9,7.7,15.4,9.7,28.2,4.7c-8,10.6-10.1,22.8-4.5,28.1c6,5.7,18.4,1.4,27.9-9.7c4.7-5.5,7.7-11.5,8.9-16.9l0,0
			c-0.8,5.2-0.4,11.5,1.5,17.9c4.1,14.2,13.7,23.8,21.4,21.3c7.7-2.5,10.6-16,6.5-30.3c-0.3-1.2-0.7-2.3-1.1-3.4
			c1,0.7,2.1,1.4,3.2,2c12.4,7,25.5,6.6,29.3-0.9c2.1-4.2,0.9-9.8-2.9-15.1c6.8-2.8,11.2-7.4,11.2-12.8c0-8.5-11.4-15.4-25.5-15.4
			c-0.8,0-1.6,0-2.4,0.1c1.3-0.6,2.6-1.3,3.9-2c12.3-7.2,19.1-19.1,15.2-26.6c-3.6-6.8-15-7.5-26.4-1.9c2.2-12.8-1.2-24-8.2-26
			C269.7,438.1,268.9,438,268.2,438L268.2,438z M248.9,479.4c0.1,0.3,0.1,0.6,0.2,0.8c-0.1,0-0.2,0-0.4,0
			C248.8,479.9,248.9,479.6,248.9,479.4L248.9,479.4z M272.3,498.1c0.1,0,0.1,0,0.2,0C272.5,498.1,272.4,498.1,272.3,498.1
			L272.3,498.1z"/>
		<path style="fill:none;stroke:#000000;stroke-miterlimit:10;" d="M269.4,501.1c0,9.7-8.7,17.5-19.4,17.5
			c-10.7,0-19.4-7.9-19.4-17.5c0-9.7,8.7-17.5,19.4-17.5C260.7,483.6,269.4,491.4,269.4,501.1z"/>
		<path style="fill:none;stroke:#000000;stroke-miterlimit:10;" d="M317,564.5c-0.8,1.1-1.5,2.2-2.2,3.4
			c-17.5,27.5-35.3,74.8-56.3,85.7l-0.4,1l-2,5.1l-1,2.4c-1-1.8-1.5-3.6-1.6-5.2c-0.1-0.7-0.1-1.3,0-2c0.1-1.1,0.3-2.2,0.7-3.3
			C251.9,610,291.7,586.9,317,564.5z"/>
		<path style="fill:none;stroke:#000000;stroke-miterlimit:10;" d="M255.7,658.3c-6.2-15.6,60.3-95.3,62-92.5"/>
	</g>
	<g transform="matrix(.93064 -.36593 .36593 .93064 -224.19 237.47)">
		<path style="fill:none;stroke:#000000;stroke-miterlimit:10;" d="M398.1,459.5c25.3,22.4,65.1,45.5,62.8,87.1
			c1.1,3.2,1.1,6.7-0.9,10.5l-3.4-8.5C434.7,537.2,416.4,486.3,398.1,459.5L398.1,459.5z"/>
		<path style="fill:none;stroke:#000000;stroke-miterlimit:10;" d="M459.5,553.3c6.2-15.6-60.3-95.3-62-92.5"/>
	</g>
	<path style="fill:none;stroke:#000000;stroke-miterlimit:10;" d="M407.8,613.6c-0.1,0.5-0.2,1-0.3,1.4c-0.1,0.7-0.3,1.3-0.4,2
		c-1.6,7.2-4.3,14.1-8.3,20.4c-1.5-0.7-3.1-1.2-4.7-1.7c10.2-14.9,13.2-31.5,12.8-48.9c0-2.1-0.1-4.1-0.3-6.2
		c-1.1-18.2-5.3-37.2-8.4-55.9c-1.2-7.1-2.1-14.1-2.7-21.1c-0.6-7.2-0.8-14.3-0.3-21.2c-0.3,6.8,0.1,13.9,0.9,21.1
		c0.5,5.3,1.3,10.7,2.2,16.1C403.6,551.7,412.9,585.3,407.8,613.6z"/>
	<path style="fill:none;stroke:#000000;stroke-miterlimit:10;" d="M374.8,423.2c7.2,0,15.2,9.3,18.5,22.3c0.4,1.5,0.7,3,0.9,4.4
		c0.2-0.8,0.3-1.7,0.5-2.5c3.4-14.4,12.5-24.5,20.3-22.5s11.4,15.4,8,29.9c-0.2,0.8-0.4,1.7-0.7,2.5c8.7-9,19.2-12.4,24.7-7.5
		c6.2,5.5,3.8,19.1-5.3,30.5c-1.4,1.7-2.8,3.3-4.3,4.7c0.9,0.3,1.8,0.7,2.7,1c13.1,5.5,21.3,16.4,18.3,24.3
		c-2.9,7.7-15.4,9.7-28.2,4.7c8,10.6,10.1,22.8,4.5,28.1c-6,5.7-18.4,1.4-27.9-9.7c-4.7-5.5-7.7-11.5-8.9-16.9l0,0
		c0.8,5.2,0.4,11.5-1.5,17.9c-4.1,14.2-13.7,23.8-21.4,21.3c-7.7-2.5-10.6-16-6.5-30.3c0.3-1.2,0.7-2.3,1.1-3.4
		c-1,0.7-2.1,1.4-3.2,2c-12.4,7-25.5,6.6-29.3-0.9c-2.1-4.2-0.9-9.8,2.9-15.1c-6.8-2.8-11.2-7.4-11.2-12.8
		c0-8.5,11.4-15.4,25.5-15.4c0.8,0,1.6,0,2.4,0.1c-1.3-0.6-2.6-1.3-3.9-2c-12.3-7.2-19.1-19.1-15.2-26.6c3.6-6.8,15-7.5,26.4-1.9
		c-2.2-12.8,1.2-24,8.2-26C373.3,423.3,374.1,423.2,374.8,423.2L374.8,423.2z M394.1,464.6c-0.1,0.3-0.1,0.6-0.2,0.8
		c0.1,0,0.2,0,0.4,0C394.2,465.1,394.1,464.8,394.1,464.6L394.1,464.6z M370.7,483.3c-0.1,0-0.1,0-0.2,0
		C370.5,483.3,370.6,483.3,370.7,483.3L370.7,483.3z"/>
	<path style="fill:none;stroke:#000000;stroke-miterlimit:10;" d="M373.6,486.3c0,9.7,8.7,17.5,19.4,17.5c10.7,0,19.4-7.8,19.4-17.5
		l0,0c0-9.7-8.7-17.5-19.4-17.5C382.3,468.8,373.6,476.6,373.6,486.3L373.6,486.3z"/>
	<path style="fill:none;stroke:#000000;stroke-miterlimit:10;" d="M474.5,525.6c-12.9,32.1-22.1,79.2-60.4,89
		c-2.6,2.1-5.7,3.1-9.7,2.1l6.7-5.9C414.9,585.3,455.6,551.8,474.5,525.6L474.5,525.6z"/>
	<path style="fill:none;stroke:#000000;stroke-miterlimit:10;" d="M407.5,615c16,1.6,68.5-88.9,65.5-89.8"/>
	<path style="fill:none;stroke:#000000;stroke-miterlimit:10;" d="M505.8,706.8c3.6-1.6,5.7-3.6,5.7-5.8c0-2.7-3.3-5.2-8.7-6.9
		c0.2,1.4,0.3,2.9,0.3,4.3h-10.8c3.7-1,7-2.5,9.8-4.5c0.2-0.1,0.4-0.3,0.6-0.5c4.8-3.7,7.7-8.6,7.7-14.2c0-11.2-12.1-20.3-27.1-20.3
		h-0.2c-4.1-11.9-13.9-20.3-25.3-20.3c-11,0-20.5,7.8-24.9,19.1c-4.5-2.1-9.4-3.3-14.6-3.3c-0.4,0-0.8,0-1.2,0
		c-4.2-7.7-10.6-13.8-18.2-17.1c-1.5-0.7-3.1-1.2-4.7-1.7c-2.9-0.8-5.9-1.2-9.1-1.2c-8.4,0-16.1,3.1-22.3,8.2
		c-4.5-10.5-13.7-17.7-24.3-17.7l0,0c-12.8,0-23.6,10.6-26.5,24.8c-3.3-1-6.7-1.6-10.2-1.6c-7.4,0-14.3,2.4-20.2,6.6
		c-3-13.7-13.2-23.9-25.5-24.5l-2,5.1l-1,2.4c-1-1.8-1.5-3.6-1.6-5.2c-0.5-0.6-0.9-1.1-1.4-1.7c-1.7,0.4-3.3,0.9-4.9,1.6
		c-6.8,3.1-12.2,9.4-15.1,17.3c-4.7-2.3-9.9-3.7-15.3-3.7c-4,0-7.8,0.7-11.4,2c-4.9-5.8-11.7-9.3-19.1-9.3
		c-10.9,0-20.3,7.6-24.7,18.6c-0.2,0.5-0.4,1-0.6,1.5c-0.7,0.1-1.5,0.2-2.2,0.3c-5.5,0.8-10.7,3-15.2,6.2c-6.7-11-18-18.2-30.9-18.2
		c-2.6,0-5.2,0.3-7.7,0.9c-1.7,0.4-3.4,0.9-5,1.6c-5.6,2.2-10.5,5.9-14.5,10.6c-2.7,3.2-4.9,6.8-6.6,10.7c-2-0.8-4-1.2-6.1-1.5
		c0.1-0.7,0.1-1.5,0.1-2.2s0-1.5-0.1-2.2c-1.1-9.6-9.2-17.1-19.1-17.1c-10.1,0-18.3,7.7-19.2,17.6c-0.3,0.1-0.7,0.1-1,0.2
		c-1-0.1-2-0.1-3.1-0.1c-15,0-27.1,9.1-27.1,20.3c0,4.8,2.3,9.3,6,12.8c-3.1,1.5-5,3.4-5,5.4c0,0.9,0.4,1.9,1.1,2.7
		c2,2.3,6.4,4.2,12.2,5.4c4,0.4,8.7,0.6,13.8,0.6c2.2,0,4.4,0,6.5-0.1c0.4,0.1,0.9,0.3,1.4,0.4c4.4-0.5,8.4-1.3,11.5-2.4
		c4.8,1.5,11.2,2.4,18.2,2.4c6.8,0,13-0.9,17.8-2.3c3.3,1.8,8.3,3.3,14.3,4c5,0.1,10,0.2,15.3,0.2l0,0c4.5-0.4,8.6-1.2,11.9-2.2
		c4.7,1.3,10.6,2.1,17,2.1c10.5,0,19.6-2.1,24.1-5.1c4.7,2.8,13.4,4.7,23.4,4.7c10.5,0,19.5-2,24-5.1c3.2,0.5,6.6,0.7,10.2,0.7
		c1.8,0,3.6-0.1,5.3-0.2c4.9,2.5,13.1,4.1,22.4,4.1c4.7,0,9.1-0.4,13-1.2c4,0.2,8.1,0.5,12.3,0.7c1.9-0.3,3.5-0.6,4.9-0.9
		c1.7,0.1,3.5,0.1,5.3,0.1c3.6,0,7.1-0.1,10.2-0.4c4.5,1.5,13.6,2.5,24.1,2.5c10,0,18.7-0.9,23.4-2.3c4.5,1.5,13.6,2.5,24.1,2.5
		c6.4,0,12.3-0.4,17-1c2.1,0.3,4.5,0.6,7.1,0.8c10.8-0.2,21.1-0.6,30.8-1l0,0c1.4-0.3,2.6-0.5,3.7-0.8c1.2,0.2,2.4,0.3,3.7,0.5
		c2.2-0.1,4.3-0.2,6.4-0.3c1.7,0.4,3.5,0.7,5.4,1c0.7,0,1.5,0,2.3,0c7,0,13.4-0.5,18.2-1.2c1.1,0.2,2.3,0.4,3.5,0.5
		c4.5,0.6,10,0.9,16,0.9c15,0,27.1-2.1,27.1-4.7C511.4,708.6,509.3,707.6,505.8,706.8z M166.4,698.5c0.1-0.1,0.2-0.3,0.3-0.5
		c0.1,0.2,0.3,0.3,0.4,0.5H166.4z M125.2,698.5c-0.1,0-0.1,0-0.2-0.1h0.4C125.3,698.5,125.3,698.5,125.2,698.5z M228.2,698.5
		c0.5,0,1-0.1,1.5-0.2c0.1,0.1,0.1,0.1,0.2,0.2H228.2z"/>
	<path style="fill:none;stroke:#000000;stroke-miterlimit:10;" d="M166.7,698c0.1,0.2,0.3,0.3,0.4,0.5h-0.7
		C166.5,698.3,166.6,698.2,166.7,698z"/>
	<path style="fill:none;stroke:#000000;stroke-miterlimit:10;" d="M229.7,698.3c0.1,0.1,0.1,0.1,0.2,0.2h-1.7
		C228.7,698.4,229.2,698.4,229.7,698.3z"/>
	<path style="fill:none;stroke:#000000;stroke-miterlimit:10;" d="M255.1,630.3c0.3,0,0.7,0,1,0l-2,5.1l-1,2.4
		c-1-1.8-1.5-3.6-1.6-5.2c-0.5-0.6-0.9-1.1-1.4-1.7c0.5-0.1,0.9-0.2,1.4-0.3c0.6-0.1,1.2-0.2,1.8-0.2
		C254,630.3,254.5,630.3,255.1,630.3z"/>
	<path style="fill:none;stroke:#000000;stroke-miterlimit:10;" d="M503,698.5h-10.8c3.7-1,7-2.5,9.8-4.5c0.2-0.1,0.4-0.3,0.6-0.5
		c0,0.2,0.1,0.5,0.1,0.7C502.9,695.6,503,697,503,698.5z"/>
	<path style="fill:none;stroke:#000000;stroke-miterlimit:10;" d="M75,665.8c2.3-2.3,5.2-4.3,8.7-5.6c-2.7,3.2-4.9,6.8-6.6,10.7
		c-2-0.8-4-1.2-6.1-1.5c0.1-0.7,0.1-1.5,0.1-2.2s0-1.5-0.1-2.2C72.3,665.2,73.7,665.4,75,665.8z"/>
	<path style="fill:none;stroke:#000000;stroke-miterlimit:10;" d="M125,698.5h0.4c-0.1,0-0.1,0-0.2,0.1
		C125.1,698.5,125.1,698.5,125,698.5z"/>
	<path style="fill:none;stroke:#000000;stroke-miterlimit:10;" d="M159.6,657.4c-0.2,0.5-0.4,1-0.6,1.5c-0.7,0.1-1.5,0.2-2.2,0.3
		C157.7,658.5,158.6,657.9,159.6,657.4z"/>
	<path style="fill:none;stroke:#000000;stroke-miterlimit:10;" d="M36.2,712.7c0.4,0.1,0.9,0.3,1.4,0.4c-2.5,0.3-5.2,0.4-7.9,0.4
		c-5,0-9.7-0.5-13.8-1.3c4,0.4,8.7,0.6,13.8,0.6C31.9,712.9,34.1,712.8,36.2,712.7z"/>
	<path style="fill:none;stroke:#000000;stroke-miterlimit:10;" d="M99.4,714.8c5,0.1,10,0.2,15.3,0.2c-2.1,0.2-4.2,0.3-6.5,0.3
		C105.2,715.3,102.2,715.1,99.4,714.8z"/>
	<path style="fill:none;stroke:#000000;stroke-miterlimit:10;" d="M166.7,698c0.1,0.2,0.3,0.3,0.4,0.5h-0.7
		C166.5,698.3,166.6,698.2,166.7,698z"/>
	<path style="fill:none;stroke:#000000;stroke-miterlimit:10;" d="M229.7,698.3c0.1,0.1,0.1,0.1,0.2,0.2h-1.7
		C228.7,698.4,229.2,698.4,229.7,698.3z"/>
	<path style="fill:none;stroke:#000000;stroke-miterlimit:10;" d="M387.4,714c2.1,0.3,4.5,0.6,7.1,0.8c-12.4,0.3-25.4,0.4-38.8,0.4
		c-28.2,0-54.5-0.7-77.2-1.8c1.9-0.3,3.5-0.6,4.9-0.9c1.7,0.1,3.5,0.1,5.3,0.1c3.6,0,7.1-0.1,10.2-0.4c4.5,1.5,13.6,2.5,24.1,2.5
		c10,0,18.7-0.9,23.4-2.3c4.5,1.5,13.6,2.5,24.1,2.5C376.8,715,382.7,714.7,387.4,714z"/>
	<path style="fill:none;stroke:#000000;stroke-miterlimit:10;" d="M429,713c1.2,0.2,2.4,0.3,3.7,0.5c-2.4,0.1-4.9,0.2-7.4,0.3
		C426.7,713.6,427.9,713.3,429,713z"/>
	<path style="fill:none;stroke:#000000;stroke-miterlimit:10;" d="M464.9,713c1.1,0.2,2.3,0.4,3.5,0.5c-4.1,0.8-8.8,1.3-13.9,1.3
		c-3.5,0-6.9-0.2-10-0.7c0.7,0,1.5,0,2.3,0C453.7,714.2,460.1,713.7,464.9,713z"/>
	<path style="fill:none;stroke:#000000;stroke-miterlimit:10;" d="M503,698.5h-10.8c3.7-1,7-2.5,9.8-4.5c0.2,0.1,0.5,0.1,0.7,0.2
		C502.9,695.6,503,697,503,698.5z"/>
	<path style="fill:none;stroke:#000000;stroke-miterlimit:10;" d="M15.9,712.2c-8-0.8-13.3-2.3-13.3-4.1c0-0.5,0.4-0.9,1.1-1.3
		C5.7,709.1,10.1,711,15.9,712.2z"/>
	<path style="fill:none;stroke:#000000;stroke-miterlimit:10;" d="M85.1,710.8c3.3,1.8,8.3,3.3,14.3,4c-8.6-0.2-16.8-0.3-24.5-0.5
		c-4.4,0.5-9.7,0.8-15.4,0.8c-9,0-17-0.8-22-1.9c4.4-0.5,8.4-1.3,11.5-2.4c4.8,1.5,11.2,2.4,18.2,2.4
		C74.1,713.1,80.3,712.2,85.1,710.8z"/>
	<path style="fill:none;stroke:#000000;stroke-miterlimit:10;" d="M266.1,712.8c4,0.2,8.1,0.5,12.3,0.7c-4.7,0.7-10.8,1.1-17.5,1.1
		c-4.7,0-9.1-0.2-13-0.6c-25.2,0.8-56.1,1.2-89.5,1.2c-15.2,0-29.8-0.1-43.7-0.3c4.5-0.4,8.6-1.2,11.9-2.2c4.7,1.3,10.6,2.1,17,2.1
		c10.5,0,19.6-2.1,24.1-5.1c4.7,2.8,13.4,4.7,23.4,4.7c10.5,0,19.5-2,24-5.1c3.2,0.5,6.6,0.7,10.2,0.7c1.8,0,3.6-0.1,5.3-0.2
		c4.9,2.5,13.1,4.1,22.4,4.1C257.8,714,262.3,713.5,266.1,712.8z"/>
	<path style="fill:none;stroke:#000000;stroke-miterlimit:10;" d="M394.5,714.8c10.8-0.2,21.1-0.6,30.8-1
		c-4.9,0.9-11.8,1.4-19.5,1.4C401.8,715.3,397.9,715.1,394.5,714.8z"/>
	<path style="fill:none;stroke:#000000;stroke-miterlimit:10;" d="M444.5,714.2c-4.3-0.1-8.3-0.3-11.8-0.7c2.2-0.1,4.3-0.2,6.4-0.3
		C440.8,713.6,442.6,713.9,444.5,714.2z"/>
</g>
</svg>
