<?xml version="1.0" encoding="utf-8"?>
<!-- Generator: Adobe Illustrator 22.1.0, SVG Export Plug-In . SVG Version: 6.00 Build 0)  -->
<svg version="1.1" id="Layer_1" xmlns="http://www.w3.org/2000/svg" xmlns:xlink="http://www.w3.org/1999/xlink" x="0px" y="0px"
	 viewBox="0 0 512 512" style="enable-background:new 0 0 512 512;" xml:space="preserve">
<g>
	<path style="fill:none;stroke:#000000;stroke-miterlimit:10;" d="M107.2,74.5c8.7,9.5,27,40.2,31.8,59.1
		c4.7,18.9,4.1,36.1-3.3,54.5c-7.5,18.4-30,40-41.5,56s-21.7,36.3-27.6,40.2c-5.9,3.8-3.9-5.4-7.9-17.3c-4-11.8-13.1-31.5-16.1-53.8
		c-3-22.4-9.2-57.5-1.9-80.3s34.9-46.7,46-56.5C97.7,66.7,98.5,65,107.2,74.5L107.2,74.5z"/>
	<path style="fill:none;stroke:#000000;stroke-miterlimit:10;" d="M107.2,74.5c8.7,9.5,27,40.2,31.8,59.1
		c4.7,18.9,4.1,36.1-3.3,54.5c-7.5,18.4-30,40-41.5,56s-21.7,36.3-27.6,40.2c-5.9,3.8-3.9-5.4-7.9-17.3c-4-11.8-13.1-31.5-16.1-53.8
		c-3-22.4-9.2-57.5-1.9-80.3s34.9-46.7,46-56.5C97.7,66.7,98.5,65,107.2,74.5L107.2,74.5z"/>
	<path style="fill:none;stroke:#000000;stroke-miterlimit:10;" d="M112.3,17.8c-2.5,3.3-6.5,13.6-9.2,22.9
		c-2.6,9.3-4.2,21.9-6.7,32.7s-5.1,22-8.2,32.3c-3.1,10.2-6.6,16-10.3,29.2c-3.7,13.2-9.3,32.7-11.7,50.2c-2.4,17.5-2.6,41.2-2.7,55
		c-0.1,13.8,1.5,20.2,1.8,27.6c0.4,7.4,0,18,0.3,16.7s1.7-14.8,1.7-24.6c0-9.8-2.1-21.9-1.7-34.4s1.8-26.9,3.9-40.4
		s5.4-28.7,8.8-40.6c3.4-11.9,8.1-18.8,11.7-30.9s7.3-31.1,9.7-41.7c2.4-10.6,2.4-14.7,4.8-22.2c2.4-7.4,7.4-17.7,9.7-22.4
		c2.3-4.7,4.4-4.4,4.1-5.9C118,19.6,114.9,14.6,112.3,17.8L112.3,17.8z"/>
	<path style="fill:none;stroke:#000000;stroke-miterlimit:10;" d="M112.3,17.8c-2.5,3.3-6.5,13.6-9.2,22.9
		c-2.6,9.3-4.2,21.9-6.7,32.7s-5.1,22-8.2,32.3c-3.1,10.2-6.6,16-10.3,29.2c-3.7,13.2-9.3,32.7-11.7,50.2c-2.4,17.5-2.6,41.2-2.7,55
		c-0.1,13.8,1.5,20.2,1.8,27.6c0.4,7.4,0,18,0.3,16.7s1.7-14.8,1.7-24.6c0-9.8-2.1-21.9-1.7-34.4s1.8-26.9,3.9-40.4
		s5.4-28.7,8.8-40.6c3.4-11.9,8.1-18.8,11.7-30.9s7.3-31.1,9.7-41.7c2.4-10.6,2.4-14.7,4.8-22.2c2.4-7.4,7.4-17.7,9.7-22.4
		c2.3-4.7,4.4-4.4,4.1-5.9C118,19.6,114.9,14.6,112.3,17.8L112.3,17.8z"/>
	<path style="fill:none;stroke:#000000;stroke-miterlimit:10;" d="M96.6,82.3c1.7,2,6.1,5.6,10.4,11.8c4.2,6.2,9.9,15.9,14.9,25.4
		s12,23.9,15.3,31.6c3.3,7.8,3.7,12.4,4.4,14.9"/>
	<path style="fill:none;stroke:#000000;stroke-miterlimit:10;" d="M96.6,82.3c1.7,2,6.1,5.6,10.4,11.8c4.2,6.2,9.9,15.9,14.9,25.4
		s12,23.9,15.3,31.6c3.3,7.8,3.7,12.4,4.4,14.9"/>
	<path style="fill:none;stroke:#000000;stroke-miterlimit:10;" d="M94.3,94.7c2.5,3.5,10.7,12.7,15.2,21.2s7.9,18.8,12,29.7
		s10.2,28.4,12.5,35.7c2.3,7.2,0.9,6.5,1.1,7.8"/>
	<path style="fill:none;stroke:#000000;stroke-miterlimit:10;" d="M94.3,94.7c2.5,3.5,10.7,12.7,15.2,21.2s7.9,18.8,12,29.7
		s10.2,28.4,12.5,35.7c2.3,7.2,0.9,6.5,1.1,7.8"/>
	<path style="fill:none;stroke:#000000;stroke-miterlimit:10;" d="M73.7,158.9c1.8,5.8,7.5,23,10.7,34.7s6.6,27.5,8.7,35.3
		s3.3,9.7,3.9,11.6"/>
	<path style="fill:none;stroke:#000000;stroke-miterlimit:10;" d="M73.7,158.9c1.8,5.8,7.5,23,10.7,34.7s6.6,27.5,8.7,35.3
		s3.3,9.7,3.9,11.6"/>
	<path style="fill:none;stroke:#000000;stroke-miterlimit:10;" d="M71.5,173.4c1.2,5.7,3.8,22,7.4,34.2
		c3.5,12.3,11.5,32.8,13.9,39.4"/>
	<path style="fill:none;stroke:#000000;stroke-miterlimit:10;" d="M71.5,173.4c1.2,5.7,3.8,22,7.4,34.2
		c3.5,12.3,11.5,32.8,13.9,39.4"/>
	<path style="fill:none;stroke:#000000;stroke-miterlimit:10;" d="M66,220.6c1.9,5.5,8.8,25.9,11.4,32.9s3.6,7.4,4.4,8.9"/>
	<path style="fill:none;stroke:#000000;stroke-miterlimit:10;" d="M66,220.6c1.9,5.5,8.8,25.9,11.4,32.9s3.6,7.4,4.4,8.9"/>
	<path style="fill:none;stroke:#000000;stroke-miterlimit:10;" d="M67.1,257.9c1.1,3,5.5,15.2,6.6,18.2"/>
	<path style="fill:none;stroke:#000000;stroke-miterlimit:10;" d="M67.1,257.9c1.1,3,5.5,15.2,6.6,18.2"/>
	<path style="fill:none;stroke:#000000;stroke-miterlimit:10;" d="M92.7,87.5C91,88.4,86.4,90,82.3,93s-8.9,8.7-14.4,12.5
		s-15.5,8.5-18.6,10.2"/>
	<path style="fill:none;stroke:#000000;stroke-miterlimit:10;" d="M92.7,87.5C91,88.4,86.4,90,82.3,93s-8.9,8.7-14.4,12.5
		s-15.5,8.5-18.6,10.2"/>
	<path style="fill:none;stroke:#000000;stroke-miterlimit:10;" d="M90.1,98.8C87,101,79.3,107.5,71.7,112
		c-7.7,4.5-23.1,11.4-27.7,13.6"/>
	<path style="fill:none;stroke:#000000;stroke-miterlimit:10;" d="M90.1,98.8C87,101,79.3,107.5,71.7,112
		c-7.7,4.5-23.1,11.4-27.7,13.6"/>
	<path style="fill:none;stroke:#000000;stroke-miterlimit:10;" d="M37.6,146.3c4.6-1.9,19.8-7.7,27.4-11.3c7.6-3.5,15.1-8.4,18.1-10
		"/>
	<path style="fill:none;stroke:#000000;stroke-miterlimit:10;" d="M37.6,146.3c4.6-1.9,19.8-7.7,27.4-11.3c7.6-3.5,15.1-8.4,18.1-10
		"/>
	<path style="fill:none;stroke:#000000;stroke-miterlimit:10;" d="M74.5,151c-2.1,0.8-8.1,2.4-12.5,4.8c-4.4,2.4-9.8,6.5-13.7,9.5
		c-4,3.1-8.4,7.4-10.1,8.8"/>
	<path style="fill:none;stroke:#000000;stroke-miterlimit:10;" d="M74.5,151c-2.1,0.8-8.1,2.4-12.5,4.8c-4.4,2.4-9.8,6.5-13.7,9.5
		c-4,3.1-8.4,7.4-10.1,8.8"/>
	<path style="fill:none;stroke:#000000;stroke-miterlimit:10;" d="M72.3,155.6c-2,1-8.1,3.3-12.2,5.8s-8.7,6.3-12.3,9.5
		s-7.8,8.2-9.3,9.9"/>
	<path style="fill:none;stroke:#000000;stroke-miterlimit:10;" d="M72.3,155.6c-2,1-8.1,3.3-12.2,5.8s-8.7,6.3-12.3,9.5
		s-7.8,8.2-9.3,9.9"/>
	<path style="fill:none;stroke:#000000;stroke-miterlimit:10;" d="M40.1,197.9c1.8-2.2,7-9.3,10.8-13s9-6.9,12.1-9
		c3-2,5.2-2.7,6.2-3.3"/>
	<path style="fill:none;stroke:#000000;stroke-miterlimit:10;" d="M40.1,197.9c1.8-2.2,7-9.3,10.8-13s9-6.9,12.1-9
		c3-2,5.2-2.7,6.2-3.3"/>
	<path style="fill:none;stroke:#000000;stroke-miterlimit:10;" d="M41.8,206.1c1.5-2.1,6.3-8.8,9.2-12.7s5.3-8.1,8.3-10.6
		s8.2-3.4,9.8-4.1"/>
	<path style="fill:none;stroke:#000000;stroke-miterlimit:10;" d="M41.8,206.1c1.5-2.1,6.3-8.8,9.2-12.7s5.3-8.1,8.3-10.6
		s8.2-3.4,9.8-4.1"/>
	<path style="fill:none;stroke:#000000;stroke-miterlimit:10;" d="M45.2,226.9c1.3-3.1,4.3-13.6,7.7-18.7
		c3.4-5.1,10.5-9.9,12.6-11.8"/>
	<path style="fill:none;stroke:#000000;stroke-miterlimit:10;" d="M45.2,226.9c1.3-3.1,4.3-13.6,7.7-18.7
		c3.4-5.1,10.5-9.9,12.6-11.8"/>
	<path style="fill:none;stroke:#000000;stroke-miterlimit:10;" d="M51,245.9c1-2.9,3.5-11.9,5.8-17.5s6.7-13.4,8-16.1"/>
	<path style="fill:none;stroke:#000000;stroke-miterlimit:10;" d="M51,245.9c1-2.9,3.5-11.9,5.8-17.5s6.7-13.4,8-16.1"/>
	<path style="fill:none;stroke:#000000;stroke-miterlimit:10;" d="M64,220.2c-0.8,1.9-2.8,6.2-4.6,11.2S54,246.9,53,250"/>
	<path style="fill:none;stroke:#000000;stroke-miterlimit:10;" d="M64,220.2c-0.8,1.9-2.8,6.2-4.6,11.2S54,246.9,53,250"/>
	<path style="fill:none;stroke:#000000;stroke-miterlimit:10;" d="M58.7,266.9c0.2-2.4,0.3-10.2,1-14.3c0.7-4.1,2.9-8.7,3.5-10.4"/>
	<path style="fill:none;stroke:#000000;stroke-miterlimit:10;" d="M58.7,266.9c0.2-2.4,0.3-10.2,1-14.3c0.7-4.1,2.9-8.7,3.5-10.4"/>
	<path style="fill:none;stroke:#000000;stroke-miterlimit:10;" d="M87.4,118.5c1.6,2.4,5.8,6.2,9.5,14.2s8.7,22.8,12.7,33.8
		c3.9,11.1,8.4,25.9,10.9,32.6c2.5,6.7,3.2,6.4,3.8,7.6"/>
	<path style="fill:none;stroke:#000000;stroke-miterlimit:10;" d="M87.4,118.5c1.6,2.4,5.8,6.2,9.5,14.2s8.7,22.8,12.7,33.8
		c3.9,11.1,8.4,25.9,10.9,32.6c2.5,6.7,3.2,6.4,3.8,7.6"/>
	<path style="fill:none;stroke:#000000;stroke-miterlimit:10;" d="M327.5,123.9c5.2,7.1,14.8,29.9,15.1,43.5
		c0.4,13.6-7.7,25.6-13,38.1c-5.2,12.5-11.6,26.3-18.4,37s-17.9,24.8-22.5,27.3s-2.7-3.9-5.4-12.4c-2.6-8.5-8.8-22.5-10.3-38.3
		s-4.9-40.7,1.5-56.5s28.3-31.6,37.1-38.1C320.5,118.1,322.3,116.7,327.5,123.9L327.5,123.9z"/>
	<path style="fill:none;stroke:#000000;stroke-miterlimit:10;" d="M327.5,123.9c5.2,7.1,14.8,29.9,15.1,43.5
		c0.4,13.6-7.7,25.6-13,38.1c-5.2,12.5-11.6,26.3-18.4,37s-17.9,24.8-22.5,27.3s-2.7-3.9-5.4-12.4c-2.6-8.5-8.8-22.5-10.3-38.3
		s-4.9-40.7,1.5-56.5s28.3-31.6,37.1-38.1C320.5,118.1,322.3,116.7,327.5,123.9L327.5,123.9z"/>
	<path style="fill:none;stroke:#000000;stroke-miterlimit:10;" d="M329.2,81.5c-2.2,3.6-1.9,11.6-3.5,18.5s-4,15.2-6.3,22.7
		s-4.7,15.3-7.4,22.4c-2.7,7.1-5.6,11-8.9,20.2s-8.3,22.6-10.8,34.8s-3.5,28.9-4.1,38.5c-0.6,9.7,0.4,14.2,0.4,19.4
		s-0.7,12.7-0.4,11.7c0.3-0.9,1.9-10.3,2.2-17.2c0.4-6.9-0.8-15.5,0-24.2c0.7-8.7,2.4-18.8,4.5-28.2s5.2-20,8.2-28.2
		c3-8.3,6.9-12.9,10.1-21.3c3.2-8.4,6.7-21.6,8.9-29c2.2-7.4,2.8-10.3,4.5-15.4c1.6-5.1,3.3-10.8,5.4-15.4c2-4.7,7.2-10.9,6.8-12.5
		C338.1,76.8,331.3,77.9,329.2,81.5L329.2,81.5z"/>
	<path style="fill:none;stroke:#000000;stroke-miterlimit:10;" d="M329.2,81.5c-2.2,3.6-1.9,11.6-3.5,18.5s-4,15.2-6.3,22.7
		s-4.7,15.3-7.4,22.4c-2.7,7.1-5.6,11-8.9,20.2s-8.3,22.6-10.8,34.8s-3.5,28.9-4.1,38.5c-0.6,9.7,0.4,14.2,0.4,19.4
		s-0.7,12.7-0.4,11.7c0.3-0.9,1.9-10.3,2.2-17.2c0.4-6.9-0.8-15.5,0-24.2c0.7-8.7,2.4-18.8,4.5-28.2s5.2-20,8.2-28.2
		c3-8.3,6.9-12.9,10.1-21.3c3.2-8.4,6.7-21.6,8.9-29c2.2-7.4,2.8-10.3,4.5-15.4c1.6-5.1,3.3-10.8,5.4-15.4c2-4.7,7.2-10.9,6.8-12.5
		C338.1,76.8,331.3,77.9,329.2,81.5L329.2,81.5z"/>
	<path style="fill:none;stroke:#000000;stroke-miterlimit:10;" d="M316.9,137.6c1.8,2.6,7.7,9.3,10.8,15.4c3.1,6.1,6.4,16.8,8,21.3
		s1.1,3.6,1.7,5.5c0.6,1.8,1.4,4.6,1.7,5.5"/>
	<path style="fill:none;stroke:#000000;stroke-miterlimit:10;" d="M316.9,137.6c1.8,2.6,7.7,9.3,10.8,15.4c3.1,6.1,6.4,16.8,8,21.3
		s1.1,3.6,1.7,5.5c0.6,1.8,1.4,4.6,1.7,5.5"/>
	<path style="fill:none;stroke:#000000;stroke-miterlimit:10;" d="M307.2,162.9c0.7,2.2,2,4.8,4.5,13s8.4,28.8,10.4,36.1
		s1.5,6.6,1.8,8"/>
	<path style="fill:none;stroke:#000000;stroke-miterlimit:10;" d="M307.2,162.9c0.7,2.2,2,4.8,4.5,13s8.4,28.8,10.4,36.1
		s1.5,6.6,1.8,8"/>
	<path style="fill:none;stroke:#000000;stroke-miterlimit:10;" d="M298.8,182c1.1,4.1,4.8,16.4,6.9,24.7c2,8.3,4,19.5,5.3,25.1
		s2.1,6.9,2.6,8.3"/>
	<path style="fill:none;stroke:#000000;stroke-miterlimit:10;" d="M298.8,182c1.1,4.1,4.8,16.4,6.9,24.7c2,8.3,4,19.5,5.3,25.1
		s2.1,6.9,2.6,8.3"/>
	<path style="fill:none;stroke:#000000;stroke-miterlimit:10;" d="M296.6,192c0.7,4.1,2.1,15.6,4.3,24.3c2.2,8.7,7.6,23.4,9.1,28.1"
		/>
	<path style="fill:none;stroke:#000000;stroke-miterlimit:10;" d="M296.6,192c0.7,4.1,2.1,15.6,4.3,24.3c2.2,8.7,7.6,23.4,9.1,28.1"
		/>
	<path style="fill:none;stroke:#000000;stroke-miterlimit:10;" d="M290.6,225c1.2,3.9,5.7,18.5,7.5,23.5c1.7,5,2.5,5.3,3,6.4"/>
	<path style="fill:none;stroke:#000000;stroke-miterlimit:10;" d="M290.6,225c1.2,3.9,5.7,18.5,7.5,23.5c1.7,5,2.5,5.3,3,6.4"/>
	<path style="fill:none;stroke:#000000;stroke-miterlimit:10;" d="M290.1,251.3c0.7,2.2,3.6,10.8,4.4,13"/>
	<path style="fill:none;stroke:#000000;stroke-miterlimit:10;" d="M290.1,251.3c0.7,2.2,3.6,10.8,4.4,13"/>
	<path style="fill:none;stroke:#000000;stroke-miterlimit:10;" d="M315.9,132.4c-1.4,0.6-4.9,1.6-8.2,3.5c-3.3,2-7.1,5.8-11.4,8.3
		s-12.1,5.4-14.5,6.5"/>
	<path style="fill:none;stroke:#000000;stroke-miterlimit:10;" d="M315.9,132.4c-1.4,0.6-4.9,1.6-8.2,3.5c-3.3,2-7.1,5.8-11.4,8.3
		s-12.1,5.4-14.5,6.5"/>
	<path style="fill:none;stroke:#000000;stroke-miterlimit:10;" d="M313.5,140.3c-2.4,1.4-8.5,5.7-14.5,8.6c-6,2.9-18,7.2-21.6,8.6"
		/>
	<path style="fill:none;stroke:#000000;stroke-miterlimit:10;" d="M313.5,140.3c-2.4,1.4-8.5,5.7-14.5,8.6c-6,2.9-18,7.2-21.6,8.6"
		/>
	<path style="fill:none;stroke:#000000;stroke-miterlimit:10;" d="M271.8,171.9c3.5-1.2,15.3-4.7,21.2-7c5.9-2.2,11.8-5.3,14.2-6.4"
		/>
	<path style="fill:none;stroke:#000000;stroke-miterlimit:10;" d="M271.8,171.9c3.5-1.2,15.3-4.7,21.2-7c5.9-2.2,11.8-5.3,14.2-6.4"
		/>
	<path style="fill:none;stroke:#000000;stroke-miterlimit:10;" d="M271.2,184c1.9-1,6.1-4.1,11.2-6.2c5-2.2,15.8-5.7,19-6.8"/>
	<path style="fill:none;stroke:#000000;stroke-miterlimit:10;" d="M271.2,184c1.9-1,6.1-4.1,11.2-6.2c5-2.2,15.8-5.7,19-6.8"/>
	<path style="fill:none;stroke:#000000;stroke-miterlimit:10;" d="M299.7,176.5c-1.6,0.5-6.3,1.4-9.7,2.9c-3.4,1.5-7.7,4.2-10.8,6.2
		c-3.1,2-6.7,4.9-8,5.9"/>
	<path style="fill:none;stroke:#000000;stroke-miterlimit:10;" d="M299.7,176.5c-1.6,0.5-6.3,1.4-9.7,2.9c-3.4,1.5-7.7,4.2-10.8,6.2
		c-3.1,2-6.7,4.9-8,5.9"/>
	<path style="fill:none;stroke:#000000;stroke-miterlimit:10;" d="M271.8,208.2c1.5-1.5,5.7-6.3,8.7-8.7s7.1-4.6,9.5-5.9
		c2.4-1.3,4-1.7,4.9-2.1"/>
	<path style="fill:none;stroke:#000000;stroke-miterlimit:10;" d="M271.8,208.2c1.5-1.5,5.7-6.3,8.7-8.7s7.1-4.6,9.5-5.9
		c2.4-1.3,4-1.7,4.9-2.1"/>
	<path style="fill:none;stroke:#000000;stroke-miterlimit:10;" d="M274.6,228.7c1.1-2.1,3.8-9.4,6.5-12.8c2.8-3.5,8.4-6.6,10.1-7.9"
		/>
	<path style="fill:none;stroke:#000000;stroke-miterlimit:10;" d="M274.6,228.7c1.1-2.1,3.8-9.4,6.5-12.8c2.8-3.5,8.4-6.6,10.1-7.9"
		/>
	<path style="fill:none;stroke:#000000;stroke-miterlimit:10;" d="M278.3,242.3c0.8-2,3.1-8.2,5-12.1c2-3.9,5.6-9.2,6.7-11"/>
	<path style="fill:none;stroke:#000000;stroke-miterlimit:10;" d="M278.3,242.3c0.8-2,3.1-8.2,5-12.1c2-3.9,5.6-9.2,6.7-11"/>
	<path style="fill:none;stroke:#000000;stroke-miterlimit:10;" d="M289.1,224.7c-0.7,1.3-2.3,4.3-3.9,7.7s-4.7,10.7-5.6,12.8"/>
	<path style="fill:none;stroke:#000000;stroke-miterlimit:10;" d="M289.1,224.7c-0.7,1.3-2.3,4.3-3.9,7.7s-4.7,10.7-5.6,12.8"/>
	<path style="fill:none;stroke:#000000;stroke-miterlimit:10;" d="M283.4,257.3c0.2-1.7,0.6-7.2,1.3-10c0.7-2.9,2.5-6,3-7.2"/>
	<path style="fill:none;stroke:#000000;stroke-miterlimit:10;" d="M283.4,257.3c0.2-1.7,0.6-7.2,1.3-10c0.7-2.9,2.5-6,3-7.2"/>
	<path style="fill:none;stroke:#000000;stroke-miterlimit:10;" d="M310.7,154.1c1.1,1.7,4.2,4.5,6.7,10.3c2.5,5.7,6.5,18.9,8.4,24.2
		s2.1,4.7,2.8,7.5s1.1,7.7,1.3,9.2"/>
	<path style="fill:none;stroke:#000000;stroke-miterlimit:10;" d="M310.7,154.1c1.1,1.7,4.2,4.5,6.7,10.3c2.5,5.7,6.5,18.9,8.4,24.2
		s2.1,4.7,2.8,7.5s1.1,7.7,1.3,9.2"/>
	<path style="fill:none;stroke:#000000;stroke-miterlimit:10;" d="M222.1,214.6c8.2-9.7,25.3-40.6,29.6-59.5
		c4.3-19,3.6-36.1-3.7-54.4s-28.9-39.6-40-55.4c-11.1-15.9-21-36-26.7-39.8c-5.7-3.7-3.6,5.5-7.3,17.4s-12.2,31.6-14.8,54
		s-8.2,57.6-1,80.3s33.6,46.2,44.3,55.8C213.1,222.6,213.9,224.3,222.1,214.6L222.1,214.6z"/>
	<path style="fill:none;stroke:#000000;stroke-miterlimit:10;" d="M222.1,214.6c8.2-9.7,25.3-40.6,29.6-59.5
		c4.3-19,3.6-36.1-3.7-54.4s-28.9-39.6-40-55.4c-11.1-15.9-21-36-26.7-39.8c-5.7-3.7-3.6,5.5-7.3,17.4s-12.2,31.6-14.8,54
		s-8.2,57.6-1,80.3s33.6,46.2,44.3,55.8C213.1,222.6,213.9,224.3,222.1,214.6L222.1,214.6z"/>
	<path style="fill:none;stroke:#000000;stroke-miterlimit:10;" d="M227.5,271.3c-2.4-3.2-6.3-13.5-8.9-22.8
		c-2.6-9.2-4.2-21.8-6.7-32.6s-5.1-21.9-8.1-32.1c-3-10.2-6.5-15.9-10.1-29.1c-3.6-13.2-9.2-32.5-11.7-50s-2.8-41.2-3.1-54.9
		c-0.3-13.8,1.2-20.2,1.5-27.6s-0.2-18,0.1-16.7s1.8,14.8,1.9,24.6c0.1,9.8-1.7,21.9-1.3,34.4c0.5,12.5,2,26.9,4.1,40.3
		c2.1,13.5,5.4,28.6,8.8,40.5s7.9,18.6,11.4,30.7c3.5,12,7.2,31,9.6,41.6c2.4,10.6,2.4,14.7,4.8,22.1c2.4,7.4,7.2,17.6,9.4,22.3
		c2.2,4.7,4.3,4.3,4,5.9C232.9,269.4,229.9,274.5,227.5,271.3L227.5,271.3z"/>
	<path style="fill:none;stroke:#000000;stroke-miterlimit:10;" d="M227.5,271.3c-2.4-3.2-6.3-13.5-8.9-22.8
		c-2.6-9.2-4.2-21.8-6.7-32.6s-5.1-21.9-8.1-32.1c-3-10.2-6.5-15.9-10.1-29.1c-3.6-13.2-9.2-32.5-11.7-50s-2.8-41.2-3.1-54.9
		c-0.3-13.8,1.2-20.2,1.5-27.6s-0.2-18,0.1-16.7s1.8,14.8,1.9,24.6c0.1,9.8-1.7,21.9-1.3,34.4c0.5,12.5,2,26.9,4.1,40.3
		c2.1,13.5,5.4,28.6,8.8,40.5s7.9,18.6,11.4,30.7c3.5,12,7.2,31,9.6,41.6c2.4,10.6,2.4,14.7,4.8,22.1c2.4,7.4,7.2,17.6,9.4,22.3
		c2.2,4.7,4.3,4.3,4,5.9C232.9,269.4,229.9,274.5,227.5,271.3L227.5,271.3z"/>
	<path style="fill:none;stroke:#000000;stroke-miterlimit:10;" d="M211.9,207c1.6-2,5.8-5.7,9.7-11.9s9.3-16,14-25.6
		s11.1-24,14.2-31.8c3-7.8,3.4-12.5,4-15"/>
	<path style="fill:none;stroke:#000000;stroke-miterlimit:10;" d="M211.9,207c1.6-2,5.8-5.7,9.7-11.9s9.3-16,14-25.6
		s11.1-24,14.2-31.8c3-7.8,3.4-12.5,4-15"/>
	<path style="fill:none;stroke:#000000;stroke-miterlimit:10;" d="M209.6,194.7c2.4-3.6,10-12.9,14.3-21.4
		c4.2-8.5,7.3-18.9,11.1-29.9s9.5-28.6,11.5-35.8c2.1-7.3,0.8-6.5,1-7.8"/>
	<path style="fill:none;stroke:#000000;stroke-miterlimit:10;" d="M209.6,194.7c2.4-3.6,10-12.9,14.3-21.4
		c4.2-8.5,7.3-18.9,11.1-29.9s9.5-28.6,11.5-35.8c2.1-7.3,0.8-6.5,1-7.8"/>
	<path style="fill:none;stroke:#000000;stroke-miterlimit:10;" d="M189.4,130.8c1.6-5.8,6.9-23.1,9.8-34.8c3-11.7,6-27.6,7.9-35.4
		c1.9-7.9,3-9.7,3.6-11.7"/>
	<path style="fill:none;stroke:#000000;stroke-miterlimit:10;" d="M189.4,130.8c1.6-5.8,6.9-23.1,9.8-34.8c3-11.7,6-27.6,7.9-35.4
		c1.9-7.9,3-9.7,3.6-11.7"/>
	<path style="fill:none;stroke:#000000;stroke-miterlimit:10;" d="M187.1,116.3c1.1-5.7,3.4-22,6.7-34.3s10.6-33,12.8-39.6"/>
	<path style="fill:none;stroke:#000000;stroke-miterlimit:10;" d="M187.1,116.3c1.1-5.7,3.4-22,6.7-34.3s10.6-33,12.8-39.6"/>
	<path style="fill:none;stroke:#000000;stroke-miterlimit:10;" d="M181.4,69.2c1.8-5.5,8.1-26,10.5-33s3.4-7.5,4-9"/>
	<path style="fill:none;stroke:#000000;stroke-miterlimit:10;" d="M181.4,69.2c1.8-5.5,8.1-26,10.5-33s3.4-7.5,4-9"/>
	<path style="fill:none;stroke:#000000;stroke-miterlimit:10;" d="M182,31.9c1-3.1,5.1-15.3,6.1-18.3"/>
	<path style="fill:none;stroke:#000000;stroke-miterlimit:10;" d="M182,31.9c1-3.1,5.1-15.3,6.1-18.3"/>
	<path style="fill:none;stroke:#000000;stroke-miterlimit:10;" d="M208.2,201.9c-1.7-0.9-6-2.4-10-5.4c-4-2.9-8.6-8.6-13.8-12.3
		c-5.3-3.7-14.8-8.3-17.7-9.9"/>
	<path style="fill:none;stroke:#000000;stroke-miterlimit:10;" d="M208.2,201.9c-1.7-0.9-6-2.4-10-5.4c-4-2.9-8.6-8.6-13.8-12.3
		c-5.3-3.7-14.8-8.3-17.7-9.9"/>
	<path style="fill:none;stroke:#000000;stroke-miterlimit:10;" d="M205.6,190.6c-2.9-2.2-10.3-8.6-17.7-12.9
		c-7.4-4.4-22.1-11-26.5-13.2"/>
	<path style="fill:none;stroke:#000000;stroke-miterlimit:10;" d="M205.6,190.6c-2.9-2.2-10.3-8.6-17.7-12.9
		c-7.4-4.4-22.1-11-26.5-13.2"/>
	<path style="fill:none;stroke:#000000;stroke-miterlimit:10;" d="M155.2,143.9c4.4,1.8,18.9,7.4,26.1,10.9
		c7.2,3.4,14.4,8.1,17.3,9.8"/>
	<path style="fill:none;stroke:#000000;stroke-miterlimit:10;" d="M155.2,143.9c4.4,1.8,18.9,7.4,26.1,10.9
		c7.2,3.4,14.4,8.1,17.3,9.8"/>
	<path style="fill:none;stroke:#000000;stroke-miterlimit:10;" d="M190.2,138.6c-2-0.8-7.7-2.3-11.9-4.6s-9.3-6.3-13.1-9.4
		c-3.8-3-8.1-7.3-9.7-8.7"/>
	<path style="fill:none;stroke:#000000;stroke-miterlimit:10;" d="M190.2,138.6c-2-0.8-7.7-2.3-11.9-4.6s-9.3-6.3-13.1-9.4
		c-3.8-3-8.1-7.3-9.7-8.7"/>
	<path style="fill:none;stroke:#000000;stroke-miterlimit:10;" d="M188.1,134.1c-1.9-0.9-7.8-3.2-11.7-5.6
		c-3.9-2.5-8.3-6.1-11.8-9.3c-3.4-3.2-7.5-8.1-8.9-9.7"/>
	<path style="fill:none;stroke:#000000;stroke-miterlimit:10;" d="M188.1,134.1c-1.9-0.9-7.8-3.2-11.7-5.6
		c-3.9-2.5-8.3-6.1-11.8-9.3c-3.4-3.2-7.5-8.1-8.9-9.7"/>
	<path style="fill:none;stroke:#000000;stroke-miterlimit:10;" d="M157.1,92.3c1.7,2.1,6.8,9.2,10.4,12.8c3.7,3.6,8.6,6.8,11.6,8.8
		c2.9,2,4.9,2.7,5.9,3.2"/>
	<path style="fill:none;stroke:#000000;stroke-miterlimit:10;" d="M157.1,92.3c1.7,2.1,6.8,9.2,10.4,12.8c3.7,3.6,8.6,6.8,11.6,8.8
		c2.9,2,4.9,2.7,5.9,3.2"/>
	<path style="fill:none;stroke:#000000;stroke-miterlimit:10;" d="M158.5,84c1.5,2.1,6,8.7,8.8,12.6c2.8,3.8,5.1,8.1,8,10.5
		s7.8,3.3,9.4,4"/>
	<path style="fill:none;stroke:#000000;stroke-miterlimit:10;" d="M158.5,84c1.5,2.1,6,8.7,8.8,12.6c2.8,3.8,5.1,8.1,8,10.5
		s7.8,3.3,9.4,4"/>
	<path style="fill:none;stroke:#000000;stroke-miterlimit:10;" d="M161.6,63.2c1.2,3.1,4.2,13.5,7.5,18.5s10.1,9.7,12.1,11.7"/>
	<path style="fill:none;stroke:#000000;stroke-miterlimit:10;" d="M161.6,63.2c1.2,3.1,4.2,13.5,7.5,18.5s10.1,9.7,12.1,11.7"/>
	<path style="fill:none;stroke:#000000;stroke-miterlimit:10;" d="M166.9,44.1c0.9,2.9,3.4,11.8,5.6,17.4c2.2,5.6,6.5,13.3,7.8,16"
		/>
	<path style="fill:none;stroke:#000000;stroke-miterlimit:10;" d="M166.9,44.1c0.9,2.9,3.4,11.8,5.6,17.4c2.2,5.6,6.5,13.3,7.8,16"
		/>
	<path style="fill:none;stroke:#000000;stroke-miterlimit:10;" d="M179.5,69.6c-0.7-1.9-2.7-6.2-4.5-11.1s-5.3-15.4-6.3-18.5"/>
	<path style="fill:none;stroke:#000000;stroke-miterlimit:10;" d="M179.5,69.6c-0.7-1.9-2.7-6.2-4.5-11.1s-5.3-15.4-6.3-18.5"/>
	<path style="fill:none;stroke:#000000;stroke-miterlimit:10;" d="M174,23c0.2,2.4,0.4,10.2,1.1,14.3c0.8,4.1,2.8,8.6,3.4,10.4"/>
	<path style="fill:none;stroke:#000000;stroke-miterlimit:10;" d="M174,23c0.2,2.4,0.4,10.2,1.1,14.3c0.8,4.1,2.8,8.6,3.4,10.4"/>
	<path style="fill:none;stroke:#000000;stroke-miterlimit:10;" d="M202.8,170.9c1.5-2.4,5.5-6.2,8.9-14.3s8.1-22.9,11.7-34
		c3.6-11.1,7.8-26,10-32.8c2.3-6.7,2.9-6.4,3.5-7.7"/>
	<path style="fill:none;stroke:#000000;stroke-miterlimit:10;" d="M202.8,170.9c1.5-2.4,5.5-6.2,8.9-14.3s8.1-22.9,11.7-34
		c3.6-11.1,7.8-26,10-32.8c2.3-6.7,2.9-6.4,3.5-7.7"/>
	<path style="fill:none;stroke:#000000;stroke-miterlimit:10;" d="M395.4,275.6c-7.3-8-22.5-33.6-26.6-49.5
		c-4-15.9-3.6-30.3,2.4-45.8s24.4-33.7,33.8-47.3c9.4-13.5,17.6-30.6,22.5-33.9c4.8-3.2,3.2,4.5,6.6,14.5c3.4,9.9,11,26.4,13.7,45.1
		c2.6,18.8,8,48.3,2.1,67.5s-28.4,39.4-37.5,47.7C403.3,282.2,402.7,283.6,395.4,275.6L395.4,275.6z"/>
	<path style="fill:none;stroke:#000000;stroke-miterlimit:10;" d="M395.4,275.6c-7.3-8-22.5-33.6-26.6-49.5
		c-4-15.9-3.6-30.3,2.4-45.8s24.4-33.7,33.8-47.3c9.4-13.5,17.6-30.6,22.5-33.9c4.8-3.2,3.2,4.5,6.6,14.5c3.4,9.9,11,26.4,13.7,45.1
		c2.6,18.8,8,48.3,2.1,67.5s-28.4,39.4-37.5,47.7C403.3,282.2,402.7,283.6,395.4,275.6L395.4,275.6z"/>
	<path style="fill:none;stroke:#000000;stroke-miterlimit:10;" d="M391.6,323.3c2.1-2.7,5.3-11.5,7.4-19.3s3.3-18.4,5.3-27.5
		s4.1-18.5,6.5-27.1c2.5-8.6,5.4-13.5,8.3-24.6s7.5-27.5,9.3-42.2c1.9-14.7,1.8-34.6,1.8-46.2s-1.4-17-1.7-23.2
		c-0.3-6.2-0.1-15.1-0.4-14s-1.3,12.4-1.3,20.7c0.1,8.3,1.8,18.4,1.6,28.9c-0.2,10.5-1.3,22.6-2.9,34s-4.2,24.2-7,34.2
		c-2.7,10-6.6,15.8-9.4,26c-2.9,10.2-5.8,26.1-7.7,35.1c-1.9,9-1.9,12.4-3.8,18.6s-6,14.9-7.8,18.9c-1.9,4-3.6,3.7-3.3,5
		C386.9,321.8,389.5,326.1,391.6,323.3L391.6,323.3z"/>
	<path style="fill:none;stroke:#000000;stroke-miterlimit:10;" d="M391.6,323.3c2.1-2.7,5.3-11.5,7.4-19.3s3.3-18.4,5.3-27.5
		s4.1-18.5,6.5-27.1c2.5-8.6,5.4-13.5,8.3-24.6s7.5-27.5,9.3-42.2c1.9-14.7,1.8-34.6,1.8-46.2s-1.4-17-1.7-23.2
		c-0.3-6.2-0.1-15.1-0.4-14s-1.3,12.4-1.3,20.7c0.1,8.3,1.8,18.4,1.6,28.9c-0.2,10.5-1.3,22.6-2.9,34s-4.2,24.2-7,34.2
		c-2.7,10-6.6,15.8-9.4,26c-2.9,10.2-5.8,26.1-7.7,35.1c-1.9,9-1.9,12.4-3.8,18.6s-6,14.9-7.8,18.9c-1.9,4-3.6,3.7-3.3,5
		C386.9,321.8,389.5,326.1,391.6,323.3L391.6,323.3z"/>
	<path style="fill:none;stroke:#000000;stroke-miterlimit:10;" d="M404.1,269.1c-1.4-1.6-5.1-4.7-8.6-9.8
		c-3.5-5.2-8.3-13.3-12.5-21.2c-4.2-8-10-20-12.8-26.5s-3.1-10.4-3.7-12.5"/>
	<path style="fill:none;stroke:#000000;stroke-miterlimit:10;" d="M404.1,269.1c-1.4-1.6-5.1-4.7-8.6-9.8
		c-3.5-5.2-8.3-13.3-12.5-21.2c-4.2-8-10-20-12.8-26.5s-3.1-10.4-3.7-12.5"/>
	<path style="fill:none;stroke:#000000;stroke-miterlimit:10;" d="M405.9,258.6c-2.1-3-8.9-10.6-12.7-17.7
		c-3.8-7.1-6.6-15.8-10.1-24.9c-3.4-9.1-8.6-23.8-10.5-29.9c-1.9-6.1-0.8-5.4-1-6.5"/>
	<path style="fill:none;stroke:#000000;stroke-miterlimit:10;" d="M405.9,258.6c-2.1-3-8.9-10.6-12.7-17.7
		c-3.8-7.1-6.6-15.8-10.1-24.9c-3.4-9.1-8.6-23.8-10.5-29.9c-1.9-6.1-0.8-5.4-1-6.5"/>
	<path style="fill:none;stroke:#000000;stroke-miterlimit:10;" d="M412.1,235.7c-1.4-3.6-5.1-12.8-8.3-21.5
		c-3.2-8.7-7.9-21.1-10.8-30.8c-2.9-9.6-5.6-22.5-6.8-27.1"/>
	<path style="fill:none;stroke:#000000;stroke-miterlimit:10;" d="M412.1,235.7c-1.4-3.6-5.1-12.8-8.3-21.5
		c-3.2-8.7-7.9-21.1-10.8-30.8c-2.9-9.6-5.6-22.5-6.8-27.1"/>
	<path style="fill:none;stroke:#000000;stroke-miterlimit:10;" d="M414.7,227.9c-0.9-2.5-2.5-5.6-5.7-15.3
		c-3.2-9.6-10.8-32.1-13.7-42.5c-2.9-10.3-3.1-16.3-3.7-19.5"/>
	<path style="fill:none;stroke:#000000;stroke-miterlimit:10;" d="M414.7,227.9c-0.9-2.5-2.5-5.6-5.7-15.3
		c-3.2-9.6-10.8-32.1-13.7-42.5c-2.9-10.3-3.1-16.3-3.7-19.5"/>
	<path style="fill:none;stroke:#000000;stroke-miterlimit:10;" d="M422.4,204.6c-1.5-4.8-6.3-19.3-9.1-29.1
		c-2.7-9.8-5.6-23.1-7.4-29.6c-1.8-6.6-2.8-8.1-3.3-9.8"/>
	<path style="fill:none;stroke:#000000;stroke-miterlimit:10;" d="M422.4,204.6c-1.5-4.8-6.3-19.3-9.1-29.1
		c-2.7-9.8-5.6-23.1-7.4-29.6c-1.8-6.6-2.8-8.1-3.3-9.8"/>
	<path style="fill:none;stroke:#000000;stroke-miterlimit:10;" d="M424.2,192.4c-1.1-4.8-3.3-18.4-6.3-28.7s-9.7-27.5-11.7-33"/>
	<path style="fill:none;stroke:#000000;stroke-miterlimit:10;" d="M424.2,192.4c-1.1-4.8-3.3-18.4-6.3-28.7s-9.7-27.5-11.7-33"/>
	<path style="fill:none;stroke:#000000;stroke-miterlimit:10;" d="M428.4,152.7c-1.6-4.6-7.4-21.7-9.6-27.6c-2.2-5.8-3-6.2-3.6-7.5"
		/>
	<path style="fill:none;stroke:#000000;stroke-miterlimit:10;" d="M428.4,152.7c-1.6-4.6-7.4-21.7-9.6-27.6c-2.2-5.8-3-6.2-3.6-7.5"
		/>
	<path style="fill:none;stroke:#000000;stroke-miterlimit:10;" d="M427.2,121.4c-0.9-2.5-4.6-12.7-5.6-15.3"/>
	<path style="fill:none;stroke:#000000;stroke-miterlimit:10;" d="M427.2,121.4c-0.9-2.5-4.6-12.7-5.6-15.3"/>
	<path style="fill:none;stroke:#000000;stroke-miterlimit:10;" d="M407.3,264.7c1.4-0.8,5.2-2.2,8.6-4.7s7.3-7.4,11.8-10.6
		c4.5-3.2,12.7-7.2,15.2-8.7"/>
	<path style="fill:none;stroke:#000000;stroke-miterlimit:10;" d="M407.3,264.7c1.4-0.8,5.2-2.2,8.6-4.7s7.3-7.4,11.8-10.6
		c4.5-3.2,12.7-7.2,15.2-8.7"/>
	<path style="fill:none;stroke:#000000;stroke-miterlimit:10;" d="M409.3,255.2c2.5-1.9,8.8-7.4,15.1-11.2
		c6.3-3.8,18.9-9.7,22.7-11.6"/>
	<path style="fill:none;stroke:#000000;stroke-miterlimit:10;" d="M409.3,255.2c2.5-1.9,8.8-7.4,15.1-11.2
		c6.3-3.8,18.9-9.7,22.7-11.6"/>
	<path style="fill:none;stroke:#000000;stroke-miterlimit:10;" d="M452.3,215c-3.7,1.6-16.2,6.6-22.4,9.6c-6.2,3-12.4,7.1-14.8,8.5"
		/>
	<path style="fill:none;stroke:#000000;stroke-miterlimit:10;" d="M452.3,215c-3.7,1.6-16.2,6.6-22.4,9.6c-6.2,3-12.4,7.1-14.8,8.5"
		/>
	<path style="fill:none;stroke:#000000;stroke-miterlimit:10;" d="M452,200.5c-1.9,1.4-6.4,5.2-11.6,8.1c-5.3,2.9-16.7,7.7-20,9.2"
		/>
	<path style="fill:none;stroke:#000000;stroke-miterlimit:10;" d="M452,200.5c-1.9,1.4-6.4,5.2-11.6,8.1c-5.3,2.9-16.7,7.7-20,9.2"
		/>
	<path style="fill:none;stroke:#000000;stroke-miterlimit:10;" d="M421.8,211.2c1.7-0.7,6.7-2.1,10.3-4.1c3.6-2,8-5.5,11.2-8.1
		s6.9-6.2,8.3-7.5"/>
	<path style="fill:none;stroke:#000000;stroke-miterlimit:10;" d="M421.8,211.2c1.7-0.7,6.7-2.1,10.3-4.1c3.6-2,8-5.5,11.2-8.1
		s6.9-6.2,8.3-7.5"/>
	<path style="fill:none;stroke:#000000;stroke-miterlimit:10;" d="M423.6,207.4c1.7-0.8,6.7-2.8,10-4.9c3.3-2.2,7.1-5.3,10-8
		s6.3-6.9,7.6-8.3"/>
	<path style="fill:none;stroke:#000000;stroke-miterlimit:10;" d="M423.6,207.4c1.7-0.8,6.7-2.8,10-4.9c3.3-2.2,7.1-5.3,10-8
		s6.3-6.9,7.6-8.3"/>
	<path style="fill:none;stroke:#000000;stroke-miterlimit:10;" d="M449.8,171.7c-1.5,1.8-5.7,7.8-8.8,10.9c-3.1,3.1-7.4,5.9-9.9,7.6
		c-2.5,1.7-4.2,2.3-5.1,2.8"/>
	<path style="fill:none;stroke:#000000;stroke-miterlimit:10;" d="M449.8,171.7c-1.5,1.8-5.7,7.8-8.8,10.9c-3.1,3.1-7.4,5.9-9.9,7.6
		c-2.5,1.7-4.2,2.3-5.1,2.8"/>
	<path style="fill:none;stroke:#000000;stroke-miterlimit:10;" d="M448.4,164.8c-1.2,1.8-5.1,7.5-7.5,10.7c-2.4,3.3-4.3,6.9-6.8,8.9
		c-2.5,2.1-6.7,2.9-8.1,3.5"/>
	<path style="fill:none;stroke:#000000;stroke-miterlimit:10;" d="M448.4,164.8c-1.2,1.8-5.1,7.5-7.5,10.7c-2.4,3.3-4.3,6.9-6.8,8.9
		c-2.5,2.1-6.7,2.9-8.1,3.5"/>
	<path style="fill:none;stroke:#000000;stroke-miterlimit:10;" d="M445.4,147.4c-1,2.6-3.4,11.4-6.2,15.7c-2.8,4.3-8.6,8.3-10.3,10"
		/>
	<path style="fill:none;stroke:#000000;stroke-miterlimit:10;" d="M445.4,147.4c-1,2.6-3.4,11.4-6.2,15.7c-2.8,4.3-8.6,8.3-10.3,10"
		/>
	<path style="fill:none;stroke:#000000;stroke-miterlimit:10;" d="M440.5,131.4c-0.8,2.4-2.8,10-4.6,14.7
		c-1.9,4.7-5.4,11.3-6.5,13.6"/>
	<path style="fill:none;stroke:#000000;stroke-miterlimit:10;" d="M440.5,131.4c-0.8,2.4-2.8,10-4.6,14.7
		c-1.9,4.7-5.4,11.3-6.5,13.6"/>
	<path style="fill:none;stroke:#000000;stroke-miterlimit:10;" d="M430,153.1c0.6-1.6,2.2-5.2,3.7-9.4s4.3-13,5.2-15.7"/>
	<path style="fill:none;stroke:#000000;stroke-miterlimit:10;" d="M430,153.1c0.6-1.6,2.2-5.2,3.7-9.4s4.3-13,5.2-15.7"/>
	<path style="fill:none;stroke:#000000;stroke-miterlimit:10;" d="M434.1,113.8c-0.1,2-0.2,8.6-0.8,12.1c-0.6,3.5-2.3,7.3-2.8,8.8"
		/>
	<path style="fill:none;stroke:#000000;stroke-miterlimit:10;" d="M434.1,113.8c-0.1,2-0.2,8.6-0.8,12.1c-0.6,3.5-2.3,7.3-2.8,8.8"
		/>
	<path style="fill:none;stroke:#000000;stroke-miterlimit:10;" d="M411.4,238.6c-1.3-2-4.8-5.1-7.9-11.8s-7.4-19.1-10.7-28.4
		c-3.3-9.3-7.1-21.7-9.2-27.4c-2.1-5.6-2.7-5.3-3.2-6.4"/>
	<path style="fill:none;stroke:#000000;stroke-miterlimit:10;" d="M411.4,238.6c-1.3-2-4.8-5.1-7.9-11.8s-7.4-19.1-10.7-28.4
		c-3.3-9.3-7.1-21.7-9.2-27.4c-2.1-5.6-2.7-5.3-3.2-6.4"/>
	<path style="fill:none;stroke:#000000;stroke-miterlimit:10;" d="M330.7,309.4c7.1,8.8,22.4,37.4,26.7,55.1
		c4.3,17.7,4.3,33.8-1,51.2c-5.3,17.4-22.3,37.9-30.9,53.1s-16,34.4-20.5,38c-4.5,3.7-3.2-5-6.7-16.1s-11.2-29.4-14.3-50.3
		c-3-20.9-8.9-53.9-3.8-75.3s26-44.3,34.4-53.6C323,302.2,323.6,300.5,330.7,309.4L330.7,309.4z"/>
	<path style="fill:none;stroke:#000000;stroke-miterlimit:10;" d="M330.7,309.4c7.1,8.8,22.4,37.4,26.7,55.1
		c4.3,17.7,4.3,33.8-1,51.2c-5.3,17.4-22.3,37.9-30.9,53.1s-16,34.4-20.5,38c-4.5,3.7-3.2-5-6.7-16.1s-11.2-29.4-14.3-50.3
		c-3-20.9-8.9-53.9-3.8-75.3s26-44.3,34.4-53.6C323,302.2,323.6,300.5,330.7,309.4L330.7,309.4z"/>
	<path style="fill:none;stroke:#000000;stroke-miterlimit:10;" d="M333.1,256.1c-1.9,3.1-4.7,12.9-6.5,21.6s-2.7,20.6-4.3,30.8
		c-1.6,10.2-3.4,20.7-5.5,30.4c-2.1,9.7-4.7,15.1-7.2,27.6s-6.4,30.8-7.7,47.2c-1.4,16.5-0.8,38.7-0.5,51.6s1.8,18.9,2.3,25.9
		c0.5,6.9,0.5,16.9,0.7,15.7c0.2-1.2,0.9-13.9,0.6-23.1s-2.3-20.5-2.3-32.2c-0.1-11.7,0.6-25.3,1.9-38s3.4-27,5.7-38.2
		c2.3-11.2,5.8-17.7,8.3-29.1c2.4-11.4,4.8-29.3,6.4-39.3s1.4-13.9,3.1-20.9s5.3-16.7,6.9-21.1c1.7-4.5,3.4-4.2,3.1-5.6
		C337.6,257.7,335,253,333.1,256.1L333.1,256.1z"/>
	<path style="fill:none;stroke:#000000;stroke-miterlimit:10;" d="M333.1,256.1c-1.9,3.1-4.7,12.9-6.5,21.6s-2.7,20.6-4.3,30.8
		c-1.6,10.2-3.4,20.7-5.5,30.4c-2.1,9.7-4.7,15.1-7.2,27.6s-6.4,30.8-7.7,47.2c-1.4,16.5-0.8,38.7-0.5,51.6s1.8,18.9,2.3,25.9
		c0.5,6.9,0.5,16.9,0.7,15.7c0.2-1.2,0.9-13.9,0.6-23.1s-2.3-20.5-2.3-32.2c-0.1-11.7,0.6-25.3,1.9-38s3.4-27,5.7-38.2
		c2.3-11.2,5.8-17.7,8.3-29.1c2.4-11.4,4.8-29.3,6.4-39.3s1.4-13.9,3.1-20.9s5.3-16.7,6.9-21.1c1.7-4.5,3.4-4.2,3.1-5.6
		C337.6,257.7,335,253,333.1,256.1L333.1,256.1z"/>
	<path style="fill:none;stroke:#000000;stroke-miterlimit:10;" d="M322.7,316.8c1.4,1.8,5,5.2,8.5,10.9c3.5,5.8,8.3,14.8,12.5,23.6
		c4.2,8.9,10.1,22.2,12.9,29.5c2.8,7.2,3.2,11.6,3.9,14"/>
	<path style="fill:none;stroke:#000000;stroke-miterlimit:10;" d="M322.7,316.8c1.4,1.8,5,5.2,8.5,10.9c3.5,5.8,8.3,14.8,12.5,23.6
		c4.2,8.9,10.1,22.2,12.9,29.5c2.8,7.2,3.2,11.6,3.9,14"/>
	<path style="fill:none;stroke:#000000;stroke-miterlimit:10;" d="M321.2,328.5c2.1,3.3,8.8,11.8,12.6,19.7
		c3.8,7.9,6.8,17.5,10.3,27.7s8.9,26.6,10.9,33.3c2,6.8,0.9,6.1,1.1,7.3"/>
	<path style="fill:none;stroke:#000000;stroke-miterlimit:10;" d="M321.2,328.5c2.1,3.3,8.8,11.8,12.6,19.7
		c3.8,7.9,6.8,17.5,10.3,27.7s8.9,26.6,10.9,33.3c2,6.8,0.9,6.1,1.1,7.3"/>
	<path style="fill:none;stroke:#000000;stroke-miterlimit:10;" d="M306.9,389c1.6,5.4,6.6,21.5,9.4,32.4c2.9,10.9,6,25.7,7.9,33
		s2.9,9.1,3.4,10.9"/>
	<path style="fill:none;stroke:#000000;stroke-miterlimit:10;" d="M306.9,389c1.6,5.4,6.6,21.5,9.4,32.4c2.9,10.9,6,25.7,7.9,33
		s2.9,9.1,3.4,10.9"/>
	<path style="fill:none;stroke:#000000;stroke-miterlimit:10;" d="M305.6,402.6c1.1,5.3,3.7,20.6,6.8,32c3.1,11.5,10,30.7,12,36.8"
		/>
	<path style="fill:none;stroke:#000000;stroke-miterlimit:10;" d="M305.6,402.6c1.1,5.3,3.7,20.6,6.8,32c3.1,11.5,10,30.7,12,36.8"
		/>
	<path style="fill:none;stroke:#000000;stroke-miterlimit:10;" d="M302.7,447c1.7,5.1,7.7,24.2,9.9,30.7c2.3,6.5,3.1,6.9,3.7,8.3"/>
	<path style="fill:none;stroke:#000000;stroke-miterlimit:10;" d="M302.7,447c1.7,5.1,7.7,24.2,9.9,30.7c2.3,6.5,3.1,6.9,3.7,8.3"/>
	<path style="fill:none;stroke:#000000;stroke-miterlimit:10;" d="M304.6,482c1,2.8,4.8,14.2,5.7,17"/>
	<path style="fill:none;stroke:#000000;stroke-miterlimit:10;" d="M304.6,482c1,2.8,4.8,14.2,5.7,17"/>
	<path style="fill:none;stroke:#000000;stroke-miterlimit:10;" d="M319.8,321.7c-1.3,0.9-4.9,2.5-8,5.3c-3.2,2.9-6.7,8.3-10.9,11.9
		c-4.2,3.6-11.9,8.2-14.3,9.8"/>
	<path style="fill:none;stroke:#000000;stroke-miterlimit:10;" d="M319.8,321.7c-1.3,0.9-4.9,2.5-8,5.3c-3.2,2.9-6.7,8.3-10.9,11.9
		c-4.2,3.6-11.9,8.2-14.3,9.8"/>
	<path style="fill:none;stroke:#000000;stroke-miterlimit:10;" d="M318,332.4c-2.3,2.1-8.2,8.3-14.1,12.6
		c-5.9,4.3-17.8,10.9-21.4,13.1"/>
	<path style="fill:none;stroke:#000000;stroke-miterlimit:10;" d="M318,332.4c-2.3,2.1-8.2,8.3-14.1,12.6
		c-5.9,4.3-17.8,10.9-21.4,13.1"/>
	<path style="fill:none;stroke:#000000;stroke-miterlimit:10;" d="M278.2,377.6c3.5-1.8,15.3-7.5,21.1-10.9c5.8-3.4,11.6-8,13.9-9.6
		"/>
	<path style="fill:none;stroke:#000000;stroke-miterlimit:10;" d="M278.2,377.6c3.5-1.8,15.3-7.5,21.1-10.9c5.8-3.4,11.6-8,13.9-9.6
		"/>
	<path style="fill:none;stroke:#000000;stroke-miterlimit:10;" d="M307.4,381.6c-1.6,0.8-6.3,2.4-9.7,4.7c-3.4,2.3-7.5,6.2-10.5,9.1
		s-6.4,7-7.7,8.4"/>
	<path style="fill:none;stroke:#000000;stroke-miterlimit:10;" d="M307.4,381.6c-1.6,0.8-6.3,2.4-9.7,4.7c-3.4,2.3-7.5,6.2-10.5,9.1
		s-6.4,7-7.7,8.4"/>
	<path style="fill:none;stroke:#000000;stroke-miterlimit:10;" d="M305.7,385.8c-1.6,0.9-6.3,3.2-9.4,5.6s-6.6,6-9.3,9
		c-2.7,3.1-5.8,7.8-7,9.4"/>
	<path style="fill:none;stroke:#000000;stroke-miterlimit:10;" d="M305.7,385.8c-1.6,0.9-6.3,3.2-9.4,5.6s-6.6,6-9.3,9
		c-2.7,3.1-5.8,7.8-7,9.4"/>
	<path style="fill:none;stroke:#000000;stroke-miterlimit:10;" d="M281.7,426c1.4-2,5.2-8.8,8.1-12.3s6.9-6.6,9.2-8.6
		c2.3-2,4-2.6,4.8-3.2"/>
	<path style="fill:none;stroke:#000000;stroke-miterlimit:10;" d="M281.7,426c1.4-2,5.2-8.8,8.1-12.3s6.9-6.6,9.2-8.6
		c2.3-2,4-2.6,4.8-3.2"/>
	<path style="fill:none;stroke:#000000;stroke-miterlimit:10;" d="M283.2,433.7c1.1-2,4.7-8.4,6.8-12.1c2.2-3.7,3.9-7.7,6.2-10
		c2.3-2.3,6.3-3.3,7.6-4"/>
	<path style="fill:none;stroke:#000000;stroke-miterlimit:10;" d="M283.2,433.7c1.1-2,4.7-8.4,6.8-12.1c2.2-3.7,3.9-7.7,6.2-10
		c2.3-2.3,6.3-3.3,7.6-4"/>
	<path style="fill:none;stroke:#000000;stroke-miterlimit:10;" d="M286.6,453.1c0.9-2.9,3-12.8,5.5-17.6c2.5-4.8,8-9.4,9.6-11.3"/>
	<path style="fill:none;stroke:#000000;stroke-miterlimit:10;" d="M286.6,453.1c0.9-2.9,3-12.8,5.5-17.6c2.5-4.8,8-9.4,9.6-11.3"/>
	<path style="fill:none;stroke:#000000;stroke-miterlimit:10;" d="M291.7,470.9c0.7-2.7,2.4-11.2,4-16.5s4.9-12.7,5.8-15.2"/>
	<path style="fill:none;stroke:#000000;stroke-miterlimit:10;" d="M291.7,470.9c0.7-2.7,2.4-11.2,4-16.5s4.9-12.7,5.8-15.2"/>
	<path style="fill:none;stroke:#000000;stroke-miterlimit:10;" d="M301.1,446.6c-0.5,1.8-2,5.9-3.3,10.6s-3.8,14.6-4.5,17.5"/>
	<path style="fill:none;stroke:#000000;stroke-miterlimit:10;" d="M301.1,446.6c-0.5,1.8-2,5.9-3.3,10.6s-3.8,14.6-4.5,17.5"/>
	<path style="fill:none;stroke:#000000;stroke-miterlimit:10;" d="M298.3,490.5c0.1-2.2-0.1-9.6,0.4-13.5s2-8.2,2.4-9.8"/>
	<path style="fill:none;stroke:#000000;stroke-miterlimit:10;" d="M298.3,490.5c0.1-2.2-0.1-9.6,0.4-13.5s2-8.2,2.4-9.8"/>
	<path style="fill:none;stroke:#000000;stroke-miterlimit:10;" d="M316.5,350.9c1.3,2.2,4.7,5.7,7.9,13.2
		c3.1,7.5,7.5,21.3,10.9,31.6c3.4,10.3,7.4,24.2,9.5,30.5s2.7,5.9,3.2,7.1"/>
	<path style="fill:none;stroke:#000000;stroke-miterlimit:10;" d="M316.5,350.9c1.3,2.2,4.7,5.7,7.9,13.2
		c3.1,7.5,7.5,21.3,10.9,31.6c3.4,10.3,7.4,24.2,9.5,30.5s2.7,5.9,3.2,7.1"/>
	<path style="fill:none;stroke:#000000;stroke-miterlimit:10;" d="M240,447.6c5.1-7.1,14.5-29.9,14.9-43.5s-7.6-25.6-12.8-38.1
		c-5.1-12.5-11.4-26.3-18.1-37c-6.7-10.7-17.6-24.8-22.2-27.3c-4.6-2.5-2.7,3.9-5.3,12.4s-8.7,22.5-10.1,38.4
		c-1.4,15.8-4.8,40.7,1.5,56.5s27.8,31.6,36.5,38.1C233.2,453.4,234.9,454.7,240,447.6L240,447.6z"/>
	<path style="fill:none;stroke:#000000;stroke-miterlimit:10;" d="M240,447.6c5.1-7.1,14.5-29.9,14.9-43.5s-7.6-25.6-12.8-38.1
		c-5.1-12.5-11.4-26.3-18.1-37c-6.7-10.7-17.6-24.8-22.2-27.3c-4.6-2.5-2.7,3.9-5.3,12.4s-8.7,22.5-10.1,38.4
		c-1.4,15.8-4.8,40.7,1.5,56.5s27.8,31.6,36.5,38.1C233.2,453.4,234.9,454.7,240,447.6L240,447.6z"/>
	<path style="fill:none;stroke:#000000;stroke-miterlimit:10;" d="M241.7,490c-2.1-3.6-1.9-11.6-3.5-18.5s-4-15.2-6.2-22.7
		c-2.3-7.5-4.6-15.3-7.3-22.4s-5.6-11-8.8-20.2s-8.2-22.6-10.6-34.8c-2.4-12.2-3.4-28.9-4-38.5c-0.6-9.7,0.4-14.2,0.4-19.4
		c0-5.2-0.7-12.7-0.4-11.7c0.3,0.9,1.8,10.3,2.2,17.2c0.4,6.9-0.7,15.5,0,24.2s2.3,18.8,4.4,28.2c2.1,9.4,5.1,20,8.1,28.2
		c3,8.3,6.8,12.9,9.9,21.3c3.1,8.4,6.6,21.6,8.8,29s2.8,10.3,4.4,15.4c1.6,5.1,3.3,10.8,5.3,15.4s7.1,10.9,6.7,12.5
		C250.5,494.7,243.8,493.6,241.7,490L241.7,490z"/>
	<path style="fill:none;stroke:#000000;stroke-miterlimit:10;" d="M241.7,490c-2.1-3.6-1.9-11.6-3.5-18.5s-4-15.2-6.2-22.7
		c-2.3-7.5-4.6-15.3-7.3-22.4s-5.6-11-8.8-20.2s-8.2-22.6-10.6-34.8c-2.4-12.2-3.4-28.9-4-38.5c-0.6-9.7,0.4-14.2,0.4-19.4
		c0-5.2-0.7-12.7-0.4-11.7c0.3,0.9,1.8,10.3,2.2,17.2c0.4,6.9-0.7,15.5,0,24.2s2.3,18.8,4.4,28.2c2.1,9.4,5.1,20,8.1,28.2
		c3,8.3,6.8,12.9,9.9,21.3c3.1,8.4,6.6,21.6,8.8,29s2.8,10.3,4.4,15.4c1.6,5.1,3.3,10.8,5.3,15.4s7.1,10.9,6.7,12.5
		C250.5,494.7,243.8,493.6,241.7,490L241.7,490z"/>
	<path style="fill:none;stroke:#000000;stroke-miterlimit:10;" d="M229.6,433.8c1.8-2.6,7.5-9.3,10.6-15.4s6.3-16.8,7.9-21.3
		c1.6-4.5,1.1-3.6,1.6-5.5c0.5-1.8,1.4-4.6,1.6-5.5"/>
	<path style="fill:none;stroke:#000000;stroke-miterlimit:10;" d="M229.6,433.8c1.8-2.6,7.5-9.3,10.6-15.4s6.3-16.8,7.9-21.3
		c1.6-4.5,1.1-3.6,1.6-5.5c0.5-1.8,1.4-4.6,1.6-5.5"/>
	<path style="fill:none;stroke:#000000;stroke-miterlimit:10;" d="M220.1,408.5c0.7-2.2,2-4.8,4.4-13s8.3-28.8,10.3-36.1
		c2-7.3,1.5-6.6,1.8-8"/>
	<path style="fill:none;stroke:#000000;stroke-miterlimit:10;" d="M220.1,408.5c0.7-2.2,2-4.8,4.4-13s8.3-28.8,10.3-36.1
		c2-7.3,1.5-6.6,1.8-8"/>
	<path style="fill:none;stroke:#000000;stroke-miterlimit:10;" d="M211.8,389.5c1.1-4.1,4.8-16.4,6.8-24.7c2-8.3,3.9-19.5,5.2-25.1
		s2.1-6.9,2.5-8.3"/>
	<path style="fill:none;stroke:#000000;stroke-miterlimit:10;" d="M211.8,389.5c1.1-4.1,4.8-16.4,6.8-24.7c2-8.3,3.9-19.5,5.2-25.1
		s2.1-6.9,2.5-8.3"/>
	<path style="fill:none;stroke:#000000;stroke-miterlimit:10;" d="M209.6,379.4c0.7-4.1,2.1-15.6,4.3-24.3
		c2.2-8.7,7.4-23.5,8.9-28.1"/>
	<path style="fill:none;stroke:#000000;stroke-miterlimit:10;" d="M209.6,379.4c0.7-4.1,2.1-15.6,4.3-24.3
		c2.2-8.7,7.4-23.5,8.9-28.1"/>
	<path style="fill:none;stroke:#000000;stroke-miterlimit:10;" d="M203.8,346.4c1.2-3.9,5.6-18.5,7.3-23.5s2.4-5.3,2.9-6.4"/>
	<path style="fill:none;stroke:#000000;stroke-miterlimit:10;" d="M203.8,346.4c1.2-3.9,5.6-18.5,7.3-23.5s2.4-5.3,2.9-6.4"/>
	<path style="fill:none;stroke:#000000;stroke-miterlimit:10;" d="M203.3,320.1c0.7-2.2,3.6-10.9,4.3-13"/>
	<path style="fill:none;stroke:#000000;stroke-miterlimit:10;" d="M203.3,320.1c0.7-2.2,3.6-10.9,4.3-13"/>
	<path style="fill:none;stroke:#000000;stroke-miterlimit:10;" d="M228.7,439c-1.3-0.6-4.8-1.6-8-3.5c-3.2-2-7-5.8-11.2-8.3
		s-11.9-5.4-14.3-6.5"/>
	<path style="fill:none;stroke:#000000;stroke-miterlimit:10;" d="M228.7,439c-1.3-0.6-4.8-1.6-8-3.5c-3.2-2-7-5.8-11.2-8.3
		s-11.9-5.4-14.3-6.5"/>
	<path style="fill:none;stroke:#000000;stroke-miterlimit:10;" d="M226.3,431.1c-2.4-1.4-8.4-5.7-14.3-8.6
		c-5.9-2.9-17.7-7.2-21.2-8.6"/>
	<path style="fill:none;stroke:#000000;stroke-miterlimit:10;" d="M226.3,431.1c-2.4-1.4-8.4-5.7-14.3-8.6
		c-5.9-2.9-17.7-7.2-21.2-8.6"/>
	<path style="fill:none;stroke:#000000;stroke-miterlimit:10;" d="M185.3,399.5c3.5,1.2,15.1,4.7,20.9,7c5.8,2.2,11.6,5.3,13.9,6.4"
		/>
	<path style="fill:none;stroke:#000000;stroke-miterlimit:10;" d="M185.3,399.5c3.5,1.2,15.1,4.7,20.9,7c5.8,2.2,11.6,5.3,13.9,6.4"
		/>
	<path style="fill:none;stroke:#000000;stroke-miterlimit:10;" d="M184.7,387.4c1.8,1,6,4.1,11,6.2c4.9,2.2,15.6,5.7,18.7,6.8"/>
	<path style="fill:none;stroke:#000000;stroke-miterlimit:10;" d="M184.7,387.4c1.8,1,6,4.1,11,6.2c4.9,2.2,15.6,5.7,18.7,6.8"/>
	<path style="fill:none;stroke:#000000;stroke-miterlimit:10;" d="M212.8,395c-1.6-0.5-6.2-1.4-9.5-2.9c-3.4-1.5-7.5-4.2-10.6-6.2
		s-6.6-4.9-7.9-5.9"/>
	<path style="fill:none;stroke:#000000;stroke-miterlimit:10;" d="M212.8,395c-1.6-0.5-6.2-1.4-9.5-2.9c-3.4-1.5-7.5-4.2-10.6-6.2
		s-6.6-4.9-7.9-5.9"/>
	<path style="fill:none;stroke:#000000;stroke-miterlimit:10;" d="M185.3,363.2c1.4,1.5,5.6,6.3,8.6,8.7c3,2.4,7,4.6,9.4,5.9
		s4,1.7,4.8,2.1"/>
	<path style="fill:none;stroke:#000000;stroke-miterlimit:10;" d="M185.3,363.2c1.4,1.5,5.6,6.3,8.6,8.7c3,2.4,7,4.6,9.4,5.9
		s4,1.7,4.8,2.1"/>
	<path style="fill:none;stroke:#000000;stroke-miterlimit:10;" d="M188,342.7c1.1,2.1,3.7,9.4,6.4,12.8c2.7,3.5,8.2,6.6,9.9,7.9"/>
	<path style="fill:none;stroke:#000000;stroke-miterlimit:10;" d="M188,342.7c1.1,2.1,3.7,9.4,6.4,12.8c2.7,3.5,8.2,6.6,9.9,7.9"/>
	<path style="fill:none;stroke:#000000;stroke-miterlimit:10;" d="M191.7,329.1c0.8,2,3,8.2,4.9,12.1s5.5,9.2,6.6,11"/>
	<path style="fill:none;stroke:#000000;stroke-miterlimit:10;" d="M191.7,329.1c0.8,2,3,8.2,4.9,12.1s5.5,9.2,6.6,11"/>
	<path style="fill:none;stroke:#000000;stroke-miterlimit:10;" d="M202.3,346.7c-0.6-1.3-2.3-4.3-3.8-7.7
		c-1.6-3.4-4.6-10.7-5.5-12.8"/>
	<path style="fill:none;stroke:#000000;stroke-miterlimit:10;" d="M202.3,346.7c-0.6-1.3-2.3-4.3-3.8-7.7
		c-1.6-3.4-4.6-10.7-5.5-12.8"/>
	<path style="fill:none;stroke:#000000;stroke-miterlimit:10;" d="M196.7,314.1c0.2,1.7,0.6,7.2,1.3,10c0.7,2.9,2.5,6,3,7.2"/>
	<path style="fill:none;stroke:#000000;stroke-miterlimit:10;" d="M196.7,314.1c0.2,1.7,0.6,7.2,1.3,10c0.7,2.9,2.5,6,3,7.2"/>
	<path style="fill:none;stroke:#000000;stroke-miterlimit:10;" d="M223.6,417.3c1.1-1.7,4.1-4.5,6.6-10.3c2.5-5.7,6.4-18.9,8.2-24.2
		c1.8-5.3,2.1-4.7,2.8-7.5s1.1-7.7,1.3-9.2"/>
	<path style="fill:none;stroke:#000000;stroke-miterlimit:10;" d="M223.6,417.3c1.1-1.7,4.1-4.5,6.6-10.3c2.5-5.7,6.4-18.9,8.2-24.2
		c1.8-5.3,2.1-4.7,2.8-7.5s1.1-7.7,1.3-9.2"/>
	<path style="fill:none;stroke:#000000;stroke-miterlimit:10;" d="M417.2,478.2c-8-4-26.6-19.1-33.3-29.9c-6.6-10.8-9-21.6-6.5-34.7
		s15.6-31.5,21.5-44s10.1-27.4,13.8-31.1c3.8-3.7,3.8,2.5,8.7,9c4.9,6.5,14.9,16.7,20.8,30s16.3,33.8,14.6,49.6
		c-1.7,15.8-18.1,36.7-24.7,45.2C425.6,481,425.3,482.2,417.2,478.2L417.2,478.2z"/>
	<path style="fill:none;stroke:#000000;stroke-miterlimit:10;" d="M417.2,478.2c-8-4-26.6-19.1-33.3-29.9c-6.6-10.8-9-21.6-6.5-34.7
		s15.6-31.5,21.5-44s10.1-27.4,13.8-31.1c3.8-3.7,3.8,2.5,8.7,9c4.9,6.5,14.9,16.7,20.8,30s16.3,33.8,14.6,49.6
		c-1.7,15.8-18.1,36.7-24.7,45.2C425.6,481,425.3,482.2,417.2,478.2L417.2,478.2z"/>
	<path style="fill:none;stroke:#000000;stroke-miterlimit:10;" d="M423.8,471c-1.6-0.8-5.5-2.1-9.6-5.1c-4.1-2.9-10-7.7-15.3-12.5
		s-12.8-12.2-16.5-16.4c-3.7-4.1-4.8-6.9-5.7-8.3"/>
	<path style="fill:none;stroke:#000000;stroke-miterlimit:10;" d="M423.8,471c-1.6-0.8-5.5-2.1-9.6-5.1c-4.1-2.9-10-7.7-15.3-12.5
		s-12.8-12.2-16.5-16.4c-3.7-4.1-4.8-6.9-5.7-8.3"/>
	<path style="fill:none;stroke:#000000;stroke-miterlimit:10;" d="M423.5,462.8c-2.5-1.6-10-5.6-14.8-9.9s-8.9-10-13.8-15.9
		c-4.8-5.9-12.3-15.5-15.2-19.5c-2.9-4-1.8-3.8-2.1-4.6"/>
	<path style="fill:none;stroke:#000000;stroke-miterlimit:10;" d="M423.5,462.8c-2.5-1.6-10-5.6-14.8-9.9s-8.9-10-13.8-15.9
		c-4.8-5.9-12.3-15.5-15.2-19.5c-2.9-4-1.8-3.8-2.1-4.6"/>
	<path style="fill:none;stroke:#000000;stroke-miterlimit:10;" d="M424.7,444.1c-1.9-2.3-7-8.2-11.5-13.8
		c-4.5-5.6-11.1-13.7-15.5-20.1c-4.5-6.4-9.3-15.3-11.2-18.4"/>
	<path style="fill:none;stroke:#000000;stroke-miterlimit:10;" d="M424.7,444.1c-1.9-2.3-7-8.2-11.5-13.8
		c-4.5-5.6-11.1-13.7-15.5-20.1c-4.5-6.4-9.3-15.3-11.2-18.4"/>
	<path style="fill:none;stroke:#000000;stroke-miterlimit:10;" d="M425.5,437.6c-1.3-1.6-3.3-3.6-8-9.9s-15.8-21.1-20.3-28
		c-4.6-6.9-5.9-11.3-7-13.6"/>
	<path style="fill:none;stroke:#000000;stroke-miterlimit:10;" d="M425.5,437.6c-1.3-1.6-3.3-3.6-8-9.9s-15.8-21.1-20.3-28
		c-4.6-6.9-5.9-11.3-7-13.6"/>
	<path style="fill:none;stroke:#000000;stroke-miterlimit:10;" d="M428.1,418.3c-2.3-3.2-9.3-12.7-13.7-19.3
		c-4.3-6.6-9.4-15.7-12.3-20.1c-2.8-4.4-4-5.3-4.8-6.4"/>
	<path style="fill:none;stroke:#000000;stroke-miterlimit:10;" d="M428.1,418.3c-2.3-3.2-9.3-12.7-13.7-19.3
		c-4.3-6.6-9.4-15.7-12.3-20.1c-2.8-4.4-4-5.3-4.8-6.4"/>
	<path style="fill:none;stroke:#000000;stroke-miterlimit:10;" d="M427.4,408.8c-1.9-3.3-6.5-12.8-11.1-19.7
		c-4.6-6.9-14-17.9-16.8-21.5"/>
	<path style="fill:none;stroke:#000000;stroke-miterlimit:10;" d="M427.4,408.8c-1.9-3.3-6.5-12.8-11.1-19.7
		c-4.6-6.9-14-17.9-16.8-21.5"/>
	<path style="fill:none;stroke:#000000;stroke-miterlimit:10;" d="M423.7,378.1c-2.3-3-10.8-14.2-13.9-18s-3.9-3.8-4.7-4.6"/>
	<path style="fill:none;stroke:#000000;stroke-miterlimit:10;" d="M423.7,378.1c-2.3-3-10.8-14.2-13.9-18s-3.9-3.8-4.7-4.6"/>
	<path style="fill:none;stroke:#000000;stroke-miterlimit:10;" d="M416.7,355.2c-1.3-1.7-6.6-8.3-7.9-9.9"/>
	<path style="fill:none;stroke:#000000;stroke-miterlimit:10;" d="M416.7,355.2c-1.3-1.7-6.6-8.3-7.9-9.9"/>
	<path style="fill:none;stroke:#000000;stroke-miterlimit:10;" d="M425.8,467c1.1-1,4.3-3,6.8-5.7c2.6-2.8,5.2-7.4,8.6-10.9
		c3.4-3.6,10-8.7,12.1-10.4"/>
	<path style="fill:none;stroke:#000000;stroke-miterlimit:10;" d="M425.8,467c1.1-1,4.3-3,6.8-5.7c2.6-2.8,5.2-7.4,8.6-10.9
		c3.4-3.6,10-8.7,12.1-10.4"/>
	<path style="fill:none;stroke:#000000;stroke-miterlimit:10;" d="M425.9,459.3c1.9-2,6.5-7.8,11.5-12.2c5-4.5,15.2-12.1,18.3-14.6"
		/>
	<path style="fill:none;stroke:#000000;stroke-miterlimit:10;" d="M425.9,459.3c1.9-2,6.5-7.8,11.5-12.2c5-4.5,15.2-12.1,18.3-14.6"
		/>
	<path style="fill:none;stroke:#000000;stroke-miterlimit:10;" d="M456.9,418.2c-3.1,2.2-13.4,9.1-18.4,13s-9.8,8.5-11.7,10.2"/>
	<path style="fill:none;stroke:#000000;stroke-miterlimit:10;" d="M456.9,418.2c-3.1,2.2-13.4,9.1-18.4,13s-9.8,8.5-11.7,10.2"/>
	<path style="fill:none;stroke:#000000;stroke-miterlimit:10;" d="M454,407.5c-1.5,1.5-4.7,5.5-8.9,9.1
		c-4.2,3.5-13.6,10.1-16.3,12.1"/>
	<path style="fill:none;stroke:#000000;stroke-miterlimit:10;" d="M454,407.5c-1.5,1.5-4.7,5.5-8.9,9.1
		c-4.2,3.5-13.6,10.1-16.3,12.1"/>
	<path style="fill:none;stroke:#000000;stroke-miterlimit:10;" d="M428.8,423.4c1.4-1,5.6-3.3,8.5-5.7c2.8-2.4,6.2-6.2,8.6-9
		s5-6.4,6-7.7"/>
	<path style="fill:none;stroke:#000000;stroke-miterlimit:10;" d="M428.8,423.4c1.4-1,5.6-3.3,8.5-5.7c2.8-2.4,6.2-6.2,8.6-9
		s5-6.4,6-7.7"/>
	<path style="fill:none;stroke:#000000;stroke-miterlimit:10;" d="M429.7,420.1c1.3-1,5.5-3.8,8.1-6.3s5.4-5.8,7.5-8.6
		c2.1-2.8,4.4-6.8,5.3-8.2"/>
	<path style="fill:none;stroke:#000000;stroke-miterlimit:10;" d="M429.7,420.1c1.3-1,5.5-3.8,8.1-6.3s5.4-5.8,7.5-8.6
		c2.1-2.8,4.4-6.8,5.3-8.2"/>
	<path style="fill:none;stroke:#000000;stroke-miterlimit:10;" d="M446.5,386.7c-1,1.7-3.7,7.3-5.9,10.4c-2.2,3.1-5.5,6.3-7.4,8.2
		c-1.9,1.9-3.4,2.8-4.1,3.4"/>
	<path style="fill:none;stroke:#000000;stroke-miterlimit:10;" d="M446.5,386.7c-1,1.7-3.7,7.3-5.9,10.4c-2.2,3.1-5.5,6.3-7.4,8.2
		c-1.9,1.9-3.4,2.8-4.1,3.4"/>
	<path style="fill:none;stroke:#000000;stroke-miterlimit:10;" d="M444,381.9c-0.8,1.7-3.2,6.9-4.7,9.9c-1.5,3.1-2.6,6.2-4.4,8.4
		c-1.8,2.2-5.5,3.9-6.6,4.7"/>
	<path style="fill:none;stroke:#000000;stroke-miterlimit:10;" d="M444,381.9c-0.8,1.7-3.2,6.9-4.7,9.9c-1.5,3.1-2.6,6.2-4.4,8.4
		c-1.8,2.2-5.5,3.9-6.6,4.7"/>
	<path style="fill:none;stroke:#000000;stroke-miterlimit:10;" d="M438,369.7c-0.4,2.2-0.9,9.4-2.6,13.3s-6.2,8.5-7.4,10.1"/>
	<path style="fill:none;stroke:#000000;stroke-miterlimit:10;" d="M438,369.7c-0.4,2.2-0.9,9.4-2.6,13.3s-6.2,8.5-7.4,10.1"/>
	<path style="fill:none;stroke:#000000;stroke-miterlimit:10;" d="M430.5,359.1c-0.2,2-0.6,8.1-1.4,12.1s-2.7,9.8-3.3,11.8"/>
	<path style="fill:none;stroke:#000000;stroke-miterlimit:10;" d="M430.5,359.1c-0.2,2-0.6,8.1-1.4,12.1s-2.7,9.8-3.3,11.8"/>
	<path style="fill:none;stroke:#000000;stroke-miterlimit:10;" d="M425.2,378c0.3-1.3,1-4.5,1.6-8c0.5-3.5,1.4-10.8,1.7-13"/>
	<path style="fill:none;stroke:#000000;stroke-miterlimit:10;" d="M425.2,378c0.3-1.3,1-4.5,1.6-8c0.5-3.5,1.4-10.8,1.7-13"/>
	<path style="fill:none;stroke:#000000;stroke-miterlimit:10;" d="M421.4,347.7c0.3,1.5,1.5,6.4,1.6,9.2c0.1,2.7-0.7,6-0.8,7.2"/>
	<path style="fill:none;stroke:#000000;stroke-miterlimit:10;" d="M421.4,347.7c0.3,1.5,1.5,6.4,1.6,9.2c0.1,2.7-0.7,6-0.8,7.2"/>
	<path style="fill:none;stroke:#000000;stroke-miterlimit:10;" d="M424.7,446.4c-1.6-1.1-5.3-2.6-9.4-6.7
		c-4.1-4.2-10.2-12.3-15-18.3c-4.7-6-10.5-14.3-13.5-17.9c-2.9-3.6-3.4-3.3-4.1-3.9"/>
	<path style="fill:none;stroke:#000000;stroke-miterlimit:10;" d="M424.7,446.4c-1.6-1.1-5.3-2.6-9.4-6.7
		c-4.1-4.2-10.2-12.3-15-18.3c-4.7-6-10.5-14.3-13.5-17.9c-2.9-3.6-3.4-3.3-4.1-3.9"/>
	<path style="fill:none;stroke:#000000;stroke-miterlimit:10;" d="M130.1,460.6c-7.2-6.8-24-29.7-30.4-44.7c-6.3-15-9-29.2-7.7-45.2
		c1.4-16.1,11.5-36.6,15.9-51.2c4.3-14.6,7.1-32.6,10.1-36.4c3-3.9,3.4,4,8,13.2c4.6,9.3,13.8,24.3,19.7,42.3
		c5.9,18,16,46.2,15.5,65.8c-0.5,19.7-13.4,42.7-18.6,52.1C137.4,465.8,137.3,467.4,130.1,460.6L130.1,460.6z"/>
	<path style="fill:none;stroke:#000000;stroke-miterlimit:10;" d="M130.1,460.6c-7.2-6.8-24-29.7-30.4-44.7c-6.3-15-9-29.2-7.7-45.2
		c1.4-16.1,11.5-36.6,15.9-51.2c4.3-14.6,7.1-32.6,10.1-36.4c3-3.9,3.4,4,8,13.2c4.6,9.3,13.8,24.3,19.7,42.3
		c5.9,18,16,46.2,15.5,65.8c-0.5,19.7-13.4,42.7-18.6,52.1C137.4,465.8,137.3,467.4,130.1,460.6L130.1,460.6z"/>
	<path style="fill:none;stroke:#000000;stroke-miterlimit:10;" d="M137.1,507.9c1-3,1.6-12,1.6-20c0-7.9-1.3-18.5-1.7-27.7
		s-0.7-18.7-0.6-27.5c0.1-8.8,1.3-14,1.2-25.3s0-28-1.7-42.7c-1.6-14.7-5.8-34.2-8.1-45.5s-4.5-16.4-6.1-22.5
		c-1.5-6-3.2-14.8-3.2-13.7c0,1.1,1.6,12.4,3.3,20.5c1.8,8.1,5.2,17.8,7.2,28.1s3.7,22.3,4.8,33.7c1.1,11.4,1.8,24.3,1.8,34.5
		s-1.7,16.4-1.8,26.8s1,26.5,1.4,35.5c0.4,9.1,1.2,12.4,1,18.8s-1.4,15.4-2,19.6s-2,4.2-1.5,5.4
		C133.2,507.1,136.1,510.9,137.1,507.9L137.1,507.9z"/>
	<path style="fill:none;stroke:#000000;stroke-miterlimit:10;" d="M137.1,507.9c1-3,1.6-12,1.6-20c0-7.9-1.3-18.5-1.7-27.7
		s-0.7-18.7-0.6-27.5c0.1-8.8,1.3-14,1.2-25.3s0-28-1.7-42.7c-1.6-14.7-5.8-34.2-8.1-45.5s-4.5-16.4-6.1-22.5
		c-1.5-6-3.2-14.8-3.2-13.7c0,1.1,1.6,12.4,3.3,20.5c1.8,8.1,5.2,17.8,7.2,28.1s3.7,22.3,4.8,33.7c1.1,11.4,1.8,24.3,1.8,34.5
		s-1.7,16.4-1.8,26.8s1,26.5,1.4,35.5c0.4,9.1,1.2,12.4,1,18.8s-1.4,15.4-2,19.6s-2,4.2-1.5,5.4
		C133.2,507.1,136.1,510.9,137.1,507.9L137.1,507.9z"/>
	<path style="fill:none;stroke:#000000;stroke-miterlimit:10;" d="M135.3,452.9c-1.4-1.4-4.8-3.8-8.6-8.4c-3.7-4.6-9-11.8-13.9-19
		c-4.8-7.2-11.7-18.2-15.2-24.1c-3.4-6-4.5-9.8-5.4-11.7"/>
	<path style="fill:none;stroke:#000000;stroke-miterlimit:10;" d="M135.3,452.9c-1.4-1.4-4.8-3.8-8.6-8.4c-3.7-4.6-9-11.8-13.9-19
		c-4.8-7.2-11.7-18.2-15.2-24.1c-3.4-6-4.5-9.8-5.4-11.7"/>
	<path style="fill:none;stroke:#000000;stroke-miterlimit:10;" d="M134.6,442.4c-2.2-2.6-8.9-9.1-13.3-15.6
		c-4.3-6.4-8.3-14.5-12.8-23S97,381.7,94.3,376c-2.7-5.7-1.7-5.2-2.1-6.3"/>
	<path style="fill:none;stroke:#000000;stroke-miterlimit:10;" d="M134.6,442.4c-2.2-2.6-8.9-9.1-13.3-15.6
		c-4.3-6.4-8.3-14.5-12.8-23S97,381.7,94.3,376c-2.7-5.7-1.7-5.2-2.1-6.3"/>
	<path style="fill:none;stroke:#000000;stroke-miterlimit:10;" d="M135.9,387.1c-2.1-4.5-8.8-18-12.9-27.2s-9-21.8-11.7-28
		s-3.8-7.6-4.5-9.1"/>
	<path style="fill:none;stroke:#000000;stroke-miterlimit:10;" d="M135.9,387.1c-2.1-4.5-8.8-18-12.9-27.2s-9-21.8-11.7-28
		s-3.8-7.6-4.5-9.1"/>
	<path style="fill:none;stroke:#000000;stroke-miterlimit:10;" d="M134.7,374.9c-1.8-4.5-6.3-17.6-10.7-27.3
		c-4.4-9.7-13.1-25.6-15.7-30.7"/>
	<path style="fill:none;stroke:#000000;stroke-miterlimit:10;" d="M134.7,374.9c-1.8-4.5-6.3-17.6-10.7-27.3
		c-4.4-9.7-13.1-25.6-15.7-30.7"/>
	<path style="fill:none;stroke:#000000;stroke-miterlimit:10;" d="M129.7,335.4c-2.2-4.3-10.1-20.2-13-25.6s-3.6-5.7-4.3-6.8"/>
	<path style="fill:none;stroke:#000000;stroke-miterlimit:10;" d="M129.7,335.4c-2.2-4.3-10.1-20.2-13-25.6s-3.6-5.7-4.3-6.8"/>
	<path style="fill:none;stroke:#000000;stroke-miterlimit:10;" d="M122.4,304.8c-1.2-2.4-6.1-11.8-7.4-14.2"/>
	<path style="fill:none;stroke:#000000;stroke-miterlimit:10;" d="M122.4,304.8c-1.2-2.4-6.1-11.8-7.4-14.2"/>
	<path style="fill:none;stroke:#000000;stroke-miterlimit:10;" d="M136.8,448.2c0.9-1,3.5-2.9,5.5-5.8c2-3,4-8.3,6.7-12.1
		c2.8-3.8,8.1-8.9,9.8-10.7"/>
	<path style="fill:none;stroke:#000000;stroke-miterlimit:10;" d="M136.8,448.2c0.9-1,3.5-2.9,5.5-5.8c2-3,4-8.3,6.7-12.1
		c2.8-3.8,8.1-8.9,9.8-10.7"/>
	<path style="fill:none;stroke:#000000;stroke-miterlimit:10;" d="M136.4,438.5c1.5-2.2,5.1-8.5,9.2-13.1c4-4.6,12.4-12.2,14.9-14.6
		"/>
	<path style="fill:none;stroke:#000000;stroke-miterlimit:10;" d="M136.4,438.5c1.5-2.2,5.1-8.5,9.2-13.1c4-4.6,12.4-12.2,14.9-14.6
		"/>
	<path style="fill:none;stroke:#000000;stroke-miterlimit:10;" d="M160.7,393c-2.5,2.1-11,8.8-15.1,12.6c-4.1,3.8-7.9,8.7-9.5,10.5"
		/>
	<path style="fill:none;stroke:#000000;stroke-miterlimit:10;" d="M160.7,393c-2.5,2.1-11,8.8-15.1,12.6c-4.1,3.8-7.9,8.7-9.5,10.5"
		/>
	<path style="fill:none;stroke:#000000;stroke-miterlimit:10;" d="M136.8,393.7c1.2-0.9,4.6-3,6.9-5.5c2.3-2.5,4.9-6.5,6.9-9.5
		c1.9-3,3.9-7.1,4.7-8.5"/>
	<path style="fill:none;stroke:#000000;stroke-miterlimit:10;" d="M136.8,393.7c1.2-0.9,4.6-3,6.9-5.5c2.3-2.5,4.9-6.5,6.9-9.5
		c1.9-3,3.9-7.1,4.7-8.5"/>
	<path style="fill:none;stroke:#000000;stroke-miterlimit:10;" d="M137.4,389.7c1.1-1,4.5-3.7,6.6-6.3c2.1-2.6,4.3-6.2,6-9.3
		c1.7-3.1,3.4-7.7,4-9.2"/>
	<path style="fill:none;stroke:#000000;stroke-miterlimit:10;" d="M137.4,389.7c1.1-1,4.5-3.7,6.6-6.3c2.1-2.6,4.3-6.2,6-9.3
		c1.7-3.1,3.4-7.7,4-9.2"/>
	<path style="fill:none;stroke:#000000;stroke-miterlimit:10;" d="M149.9,350.9c-0.7,2-2.7,8.5-4.4,12s-4.4,6.8-5.9,8.9
		s-2.7,2.9-3.3,3.5"/>
	<path style="fill:none;stroke:#000000;stroke-miterlimit:10;" d="M149.9,350.9c-0.7,2-2.7,8.5-4.4,12s-4.4,6.8-5.9,8.9
		s-2.7,2.9-3.3,3.5"/>
	<path style="fill:none;stroke:#000000;stroke-miterlimit:10;" d="M147.4,344.3c-0.6,1.9-2.3,8-3.4,11.6c-1.1,3.6-1.8,7.3-3.3,9.7
		c-1.4,2.4-4.5,3.8-5.4,4.6"/>
	<path style="fill:none;stroke:#000000;stroke-miterlimit:10;" d="M147.4,344.3c-0.6,1.9-2.3,8-3.4,11.6c-1.1,3.6-1.8,7.3-3.3,9.7
		c-1.4,2.4-4.5,3.8-5.4,4.6"/>
	<path style="fill:none;stroke:#000000;stroke-miterlimit:10;" d="M141.6,327.7c-0.2,2.7-0.2,11.7-1.4,16.3
		c-1.2,4.6-4.8,9.4-5.8,11.3"/>
	<path style="fill:none;stroke:#000000;stroke-miterlimit:10;" d="M141.6,327.7c-0.2,2.7-0.2,11.7-1.4,16.3
		c-1.2,4.6-4.8,9.4-5.8,11.3"/>
	<path style="fill:none;stroke:#000000;stroke-miterlimit:10;" d="M134.5,312.7c-0.1,2.5,0,10.2-0.5,15.1
		c-0.4,4.9-1.8,11.9-2.1,14.2"/>
	<path style="fill:none;stroke:#000000;stroke-miterlimit:10;" d="M134.5,312.7c-0.1,2.5,0,10.2-0.5,15.1
		c-0.4,4.9-1.8,11.9-2.1,14.2"/>
	<path style="fill:none;stroke:#000000;stroke-miterlimit:10;" d="M131,335.5c0.1-1.6,0.6-5.5,0.9-9.8c0.3-4.3,0.6-13.4,0.7-16.1"/>
	<path style="fill:none;stroke:#000000;stroke-miterlimit:10;" d="M131,335.5c0.1-1.6,0.6-5.5,0.9-9.8c0.3-4.3,0.6-13.4,0.7-16.1"/>
	<path style="fill:none;stroke:#000000;stroke-miterlimit:10;" d="M126,296.4c0.3,2,1.6,8.4,1.9,11.9c0.3,3.5-0.2,7.5-0.3,9"/>
	<path style="fill:none;stroke:#000000;stroke-miterlimit:10;" d="M126,296.4c0.3,2,1.6,8.4,1.9,11.9c0.3,3.5-0.2,7.5-0.3,9"/>
	<path style="fill:none;stroke:#000000;stroke-miterlimit:10;" d="M134.6,422c-1.4-1.7-4.7-4.4-8.5-10.5c-3.7-6.1-9.5-17.7-14-26.3
		c-4.4-8.6-9.9-20.3-12.6-25.5s-3.1-4.9-3.7-5.8"/>
	<path style="fill:none;stroke:#000000;stroke-miterlimit:10;" d="M134.6,422c-1.4-1.7-4.7-4.4-8.5-10.5c-3.7-6.1-9.5-17.7-14-26.3
		c-4.4-8.6-9.9-20.3-12.6-25.5s-3.1-4.9-3.7-5.8"/>
</g>
</svg>
