<?xml version="1.0" encoding="utf-8"?>
<!-- Generator: Adobe Illustrator 22.1.0, SVG Export Plug-In . SVG Version: 6.00 Build 0)  -->
<svg version="1.1" id="Layer_1" xmlns="http://www.w3.org/2000/svg" xmlns:xlink="http://www.w3.org/1999/xlink" x="0px" y="0px"
	 viewBox="0 0 612 792" style="enable-background:new 0 0 612 792;" xml:space="preserve">
<g id="Layer_1_1_">
	<path style="fill:none;stroke:#000000;stroke-width:2;stroke-miterlimit:10;" d="M51,123c180.3,0,360.7,0,541,0
		c0,27.3,0.1,54.5,0.1,81.8c-16.1,0.1-32.1,0.2-48.2,0.3c-0.3-0.1-0.6-0.1-0.8,0.1c-9,5.8-18.3,8.2-27.9,1.7
		c-2.6-1.7-4.8-2.2-7.2-0.8c-4.6,2.7-8.9,2.2-13.5-0.1c-4.1-2.1-7.2-1.6-10.1,3.2c-6.5,10.8-20.2,14.3-31.9,8.7
		c-2.1-1-2.8-0.7-3.6,1.3c-1.9,4.1-4.7,7.6-8.3,10.4c-16.1,12.5-39,6.2-46.8-12.9c-0.5-1.2,0.3-3.8-3.1-3.3
		c-10.4,1.6-14.2-0.8-18.3-10.9c-2,1.2-4.1,2.3-6.5,1.6c-1.8-0.5-2.4,0.4-2.8,1.9c-1,3.1-3.3,4.9-6.2,6c-2.1,0.1-4.3,0.2-6-1.4
		c-2.1-2.1-3-0.6-3.8,1.3c-6.1,3.9-12.4,7.3-19.4,9.1c-2.5,0-5.1,0.1-7.6,0.1c-1.3-0.1-2.7-0.1-4-0.2c-0.7-0.2-1.4-0.4-2.1-0.6
		c-3.3-1.6-6.6-3.1-9.9-4.7c-2.9-2.6-11.9-2-15.9,1.1c-3.5,1.3-6.4-1.8-9.8-1.3c-2.6-0.9-5.2-1.7-7.8-2.6c-1.1-1.5-2.7-2.1-4.4-2.9
		c-2.1,6.8-5.6,12.1-10.7,16.5c-14.5,12.7-39.3,12.1-47.6-3.1c-1.3-2.4-2.9-1.3-4.6-0.4c-14.4,7.2-32,2.3-40-11.6
		c-2.7-4.7-5.8-4.9-9.8-3.6c-7.1,2.2-14.1,2.2-21.1,0c-1.8-0.6-3.1-0.2-4.6,0.8c-11.6,7.9-24,7.3-35.6-1.4c-1.5-1.5-3.4-1-5.2-1
		c-11.9,0-23.8,0-35.7,0c0-4.3-0.1-8.6-0.1-12.9C51,169.7,51,146.4,51,123z"/>
	<path style="fill:none;stroke:#000000;stroke-width:2;stroke-miterlimit:10;" d="M580,670c-172.7,0-345.3,0-518,0
		c0-18.1,0.1-36.3,0.1-54.4c0-9.5-0.2-19-0.3-28.4c53.6-0.7,107.3,0.7,160.9-1c6.2-0.2,11-1.8,14.3-7.1c7.1-3,14.4-4.4,22.1-4.2
		c6.4,0.2,12.8,0.4,19.2,1.2c4.5,0.6,6.4-1.3,6.7-5.6c0.2-0.5,0.3-1,0.5-1.5c2.6-1.3,4.4-0.6,5.4,2.1c1,2.8,2,5.6,3.1,8.3
		c0.6,1.6,0.7,4.3,3,3.8c1.8-0.4,0.8-2.8,1-4.4c0-1,0.1-2,0.1-3.1c0.3-0.3,0.6-0.6,0.8-1h-0.1c4.7-5.1,6.3-5.3,12.1-1.3
		c2.9,2,5.5,4.2,8.3,6.3c5.9,4.4,8.6,3.5,10.4-3.5c0.4-1.6-0.7-4.3,1.8-4.5c2-0.2,2.4,2.4,3.3,4c0.3,0.6,0.6,1.2,0.9,1.8
		c4.3,8.4,7.7,8.6,13.5,1.1c3.9-5.1,8.4-9.5,15.7-8.6c1.6,1.6,3.7,2.8,5,4.8c2.2,3.6,5,4.8,9.2,2.7c5.2-2.6,10-1.4,13.9,3
		c2.4,2.7,4.8,5.9,9.1,3.1c0.4-0.2,1.2,0.2,1.9,0.4c9.6,2.9,19.2,3.5,28.8-0.3c1.1-0.4,2-0.5,2.7,0.3c2,2.4,4.8,1.9,7.4,1.9
		c43.8,0,87.6,0,131.4,0.1c1.9,0,4-0.7,5.7,0.9c0.1,2,0.2,4,0.2,5.9C580.2,618.6,580.1,644.3,580,670z"/>
	<path style="fill:#93C0BC;" d="M-13,193c0.3-0.1,0.7,0,1,0.1c-0.5,6,1.2,12-1,17.9C-13,205-13,199-13,193z"/>
	<path style="fill:none;stroke:#000000;stroke-width:2;stroke-miterlimit:10;" d="M92,207c-12.3,0-24.6,0.1-36.9,0c-1.3,0-3,0.9-4-1
		c11.9,0,23.8,0,35.7,0C88.6,206,90.5,205.5,92,207z"/>
	<path style="fill:none;stroke:#000000;stroke-width:2;stroke-miterlimit:10;" d="M543.9,205.1c-0.2,0.4-0.4,0.5-0.8,0.1
		C543.4,205,543.6,205,543.9,205.1z"/>
	<path style="fill:none;stroke:#000000;stroke-width:2;stroke-miterlimit:10;" d="M580.2,576.9c6.8-7.1,13.2,1.3,19.8,0.6
		c1.9,7,7.1,1.3,9.7,2.6c4.9,2.5,11.2-0.5,15.1,4.4c0.2,0.2,0.3,0.5,0.6,0.9c-1.2,1.3-2.8,0.7-4.1,0.7c-11.8,0.1-23.6,0-35.4,0.1
		c-2,0-4-0.3-5.8,0.8c-1.7-1.6-3.8-0.9-5.7-0.9C530.6,586,486.8,586,443,586c-2.6,0-5.4,0.5-7.4-1.9c-0.7-0.8-1.6-0.8-2.7-0.3
		c-9.5,3.8-19.1,3.3-28.8,0.3c-0.6-0.2-1.5-0.7-1.9-0.4c-4.4,2.8-6.7-0.4-9.1-3.1c-3.9-4.4-8.7-5.6-13.9-3c-4.2,2.1-7,0.9-9.2-2.7
		c-1.3-2.1-3.3-3.2-5-4.8l0,0c5.8,0,10.4-3,15.1-5.9c0.3,0,0.6-0.1,0.9-0.2c0.4-0.3,0.7-0.6,1.1-0.9c1-0.1,2-0.1,3-0.2
		c-0.3,2.7,0.3,5.3,1.3,7.8c0.7,2,0.8,4.7,3.4,5.1c2.4,0.3,3.2-2.2,4-3.9c1.8-3.6,3.3-2.2,5.5-0.3c3.9,3.3,7.3,7.4,12.4,9.6
		c0.6-2.7-2.2-4.2-1.1-6.8c2.4,1.3,4.8,2.3,7,3.8c3.2,2.2,5,2.4,4.7-2.3c-0.2-2.4,0-4.8,0-8.1c4,3.6,6.4,7,10,9.2
		c1.6,1,2.7,3.7,4.8,2.9c2.5-1,0.8-3.8,1.4-5.8c0.1-0.3,0.4-0.4,0.8-0.8c1.1,0.5,2.2,1.4,3.4,1.6c5.2,0.8,7.6,8.9,14.4,5.3
		c0.2-0.1,0.8,0.2,0.8,0.4c1.5,4.8,3.9,1.1,5.6,0.4c2.2-0.9,3.7-3.1,6.3-3.4c0.7,5.5,0.7,5.5,5.8,3.4c1.3-0.5,2.7-2.2,3.3,0.7
		c-0.4,0.3-1.4,0.6-0.8,1.2c0.5,0.6,1-0.1,1.3-0.6c2.4-0.7,4.6-1.8,6.6-3.3c1.6-1.2,3-1.3,4.4,0.2c3.5,3.6,5,0.9,5.6-2.1
		c0.6-2.8,1.6-2.6,3.7-1.7c3.4,1.4,6.9,2.9,10.6,2.6c0.6-2.5-2.2-2.6-2.4-4.7c2.5,0.5,6.1,2.3,7.1,0.8c3.4-5,5.1-0.3,7,0.9
		c1.9,1.1,3.5,3.1,5,4.8c2,2.3,3.2,1.3,4.6-0.6c1.5-2.1,1.2-5.2,3.8-6.7c1.9,2.5,2.6,5.3,3.2,8.4c4.5-2,7.9-5,11.3-7.8
		c2.3-1.9,3.8-2,5.2,1.1c1.2,2.7,2.1,5.8,4.5,8.3c0.5-2.1,0.9-3.7,1.4-5.3c0.8-2.4,0.2-6.5,3.3-6.3c2.8,0.1,2.4,4.2,3.1,6.7
		c0.1,0.2,0.5,0.4,1.3,1c2.9-6,6.9-4.7,11-1.2C579.8,577.1,580,577,580.2,576.9z"/>
	<path style="fill:none;stroke:#000000;stroke-width:2;stroke-miterlimit:10;" d="M61.8,587.2c-11.3,0-22.6,0-34.8,0
		c3-3.1,5-5.9,9.2-4.1c0.6,0.3,1.7,0.5,1.9,0.3c3.6-4.9,7.6-1.7,11.4-0.5c0.7,0.2,1.6,0.3,1.8-0.4c1.1-6.5,7.8-3.4,10.9-6.4
		c3.2-0.8,6.5-4,9.2,1.3c1,1.9,3.3,0.2,4.3-0.8c3-3.2,5-1.8,7.2,0.7c0.6,0.7,1.2,1.7,2.7,1.3c0.3-1.3,0.4-2.8,1-4.1
		c0.5-1.3,0.7-3.3,2.6-3.1c1.6,0.1,1.7,1.8,2,3.1c0.8,2.8,1.6,5.5,2.6,9.2c1.7-3.3,3.1-5.7,4-8.3c1.4-3.9,3.2-3.2,5.8-1.2
		c3.5,2.7,6.6,5.9,11.2,7.4c0.2-3.3,0.9-6.1,3.3-8.6c1.2,2.3,2.4,4.3,3.3,6.4c1.4,3.2,2.9,3,5,0.6c1.9-2.1,4-4,6.1-5.9
		c1.1-1,3.4-2.4,3.8-1.5c1.8,4.8,5.3,1.4,8,1.9c-0.2,1.6-2.1,2.4-1.6,4.4c3.8,0.1,7.2-1.8,10.8-2.8c1.9-0.5,3.2-1.1,3.8,1.8
		c0.5,2.4,1.7,6.3,5.5,2c1.3-1.5,3-1,4.5,0c2,1.2,4,2.3,6.1,3.4c0.6,0.3,2.1,1.5,1.9-0.3c-0.2-2.4,0.8-1.8,1.9-1.2
		c3.7,2,6.8,2.8,6.3-3.8c3,1.8,5.5,3.4,8,4.9c0.9,0.5,2.6,1.8,3,0.4c1.3-4.8,4.2-1.8,5.9-1c2.8,1.3,4.6,1.2,6.4-1.3
		c2.5-3.5,5.4-5.3,9.6-2.2c2.3,1.7,3.7,0.3,4.3-2.2c0.8-3.4,2.9-4.2,6-2.6c3.4,1.7,6.8,3.4,10.3,5.1l0.1,0.1
		c-3.3,5.3-8.1,6.9-14.3,7.1C169.1,587.9,115.4,586.5,61.8,587.2z"/>
	<path style="fill:none;stroke:#000000;stroke-width:2;stroke-miterlimit:10;" d="M365,570c-7.3-0.9-11.8,3.5-15.7,8.6
		c-5.8,7.6-9.2,7.4-13.5-1.1c-0.3-0.6-0.6-1.2-0.9-1.8c-0.9-1.5-1.3-4.1-3.3-4c-2.5,0.2-1.4,2.9-1.8,4.5c-1.8,7-4.5,8-10.4,3.5
		c-2.8-2.1-5.5-4.3-8.3-6.3c-5.9-4-7.5-3.8-12.1,1.3c0.7-4.3,3.3-8.2,3.3-12.7l-0.1-0.2c1-0.3,0.9-1.2,1-2v0.1c0.8-0.5,1-1.2,1-2.1
		c0.6-1.1,1.1-2.3,2.7-1.9c0.4,0.4,0.8,0.9,1.2,1.3c0,0.2,0,0.4,0.1,0.6c0.3,0.4,0.6,0.8,0.9,1.2c2,2,3.9,3.9,5.9,5.9
		c3.3,3.8,6.7,7.5,11.3,11.3c-0.3-5.3,1.4-9.3,1.9-13.4c0.3-1,0.7-2,1-3c0-0.3,0.1-0.7,0.1-1c0.6-0.6,1.2-1.3,1.8-1.9
		c0.3,0.7,0.5,1.4,0.8,2.1c0.1,0.6,0.3,1.2,0.4,1.8c1.3,5.5,3.3,10.8,6,16.2c4-5.1,7.5-9.6,11-14.2c1-1.2,2-2.4,2.9-3.7
		c0.4-0.4,0.8-0.9,1.2-1.3c1.7,0.1,0.9-4.3,3.7-2.1c0.1,2.5,0.1,5,2,7c0.7-0.3,1.4-0.5,2-0.8c1.1-0.2,2.3,0,3-1.1l0,0
		c0.7,0,1.3-0.1,2-0.1c0.7-0.2,1.4-0.5,2.1-0.7c0.3-0.1,0.6-0.1,0.9-0.2H369C368.6,563.8,363.8,565.7,365,570L365,570z"/>
	<path style="fill:none;stroke:#000000;stroke-width:2;stroke-miterlimit:10;" d="M285,570.5c-0.2,4.3-2.2,6.1-6.7,5.6
		c-6.4-0.8-12.8-1-19.2-1.2c-7.8-0.2-15,1.2-22.1,4.2l-0.1-0.1c0.2-0.8,0.6-1.6,0.7-2.4c0.5-4.6,0.9-9.2,7.5-8.4
		c3.5-1.3,6.8-2.9,9.9-5c0.4-0.4,0.7-0.7,1.1-1.1c3.9-2.3,6.7-1.6,7.9,3c0.3,0.4,0.6,0.8,0.9,1.2c0.2,0.3,0.5,0.6,0.7,0.9
		c1.4,1.9,2.9,2.7,4.2-0.1c0.4-0.5,0.8-1.1,1.2-1.6c0.4-0.4,0.8-0.9,1.2-1.3c1.7-0.9,2.4-3.3,4.8-3.1c0.3,0.4,0.6,0.8,0.9,1.1
		c0.7,1,1.4,1.9,2.1,2.9c0.3,0.4,0.6,0.7,1,1.1c0.3,0.3,0.6,0.6,0.9,0.9C282.9,568.2,284,569.3,285,570.5z"/>
	<path style="fill:none;stroke:#000000;stroke-width:2;stroke-miterlimit:10;" d="M298,578.9c-0.2,1.5,0.8,4-1,4.4
		c-2.2,0.4-2.3-2.3-3-3.8c-1.1-2.7-2.1-5.6-3.1-8.3s-2.8-3.4-5.4-2.1c0.2-2,0.4-4,0.6-6c0-0.6,0-1.3,0-1.9c1.1-0.8,1.1-2,1.1-3.1
		c0.1-0.2,0.1-0.4,0-0.7c0.7-0.6,1-1.4,0.9-2.3c0.5-0.8,0.9-1.7,1.9-2c0.3,0.4,0.7,0.7,1,1.1c0.2,0.3,0.5,0.7,0.7,1
		c0.1,0.3,0.2,0.6,0.3,0.9c0.5,1.7,1.1,3.3,1.6,5c0.8,5.1,1.5,10.3,2.2,15.4C296.1,577.7,296,579.2,298,578.9z"/>
	<path style="fill:none;stroke:#000000;stroke-width:2;stroke-miterlimit:10;" d="M298,578.9c-2,0.2-1.9-1.2-2.1-2.5
		c-0.7-5.1-1.5-10.3-2.2-15.4c2.4,3.4,5.8,0.3,8.5,1.2c0,4.5-2.6,8.4-3.3,12.7h0.1c-0.3,0.3-0.6,0.6-0.8,1
		C298.1,576.9,298,577.9,298,578.9z"/>
	<path style="fill:none;stroke:#000000;stroke-width:2;stroke-miterlimit:10;" d="M286,563c-0.2,2-0.4,4-0.6,6
		c-0.2,0.5-0.3,1-0.5,1.5c-1-1.1-2.1-2.3-3.1-3.5C283.9,566.3,284.5,564.2,286,563z"/>
	<path style="fill:none;stroke:#000000;stroke-width:2;stroke-miterlimit:10;" d="M298.1,575.9c0.3-0.3,0.6-0.6,0.8-1
		C298.7,575.2,298.4,575.6,298.1,575.9z"/>
	<path style="fill:none;stroke:#000000;stroke-width:2;stroke-miterlimit:10;" d="M62.2,513c0-2,0-4,0-6c3.6-2.3,1.2-5.7,1.5-8.6
		l-0.2-0.2l0.1-0.3c3.2,0.9,6.5,1.1,9.9,1.1c46.8-0.6,93.5,0.7,140.3-0.9c41.6-1.4,83.2,0.3,124.8-0.9c44.7-1.3,89.5,0.3,134.3-1
		c30.3-0.9,60.6-0.1,90.9-0.2c5.2,0,10.3,0.2,15.2,2c0,9.3,0,18.7,0,28c-3.1-0.3-6.3-1-9.4-1c-51.6,0.6-103.2-0.8-154.9,0.8
		c-42.3,1.3-84.6,0.2-126.9,0.9c-72,1.1-144,0.3-216,0.3c-2.7,0-5.3-0.3-7.9-1c0-2.1,0.2-4.3-0.1-6.4
		C63.6,517.3,65.4,514.5,62.2,513z"/>
	<path style="fill:none;stroke:#000000;stroke-width:2;stroke-miterlimit:10;" d="M580.6,439c0.5,11.3,0.5,22.6,0,34
		c-13.6-3.8-27.4-1.9-41.1-1.9c-22.8,0-45.6,0.2-68.3,0.6c-69.2,1.1-138.5,0.1-207.7,1.1c-66.6,0.9-133,0.2-199.5,0.2
		c-0.1-1.2-0.3-2.4-0.4-3.6c0-7.1,0-14.3,0-21.4c5-0.4,9.9-1.1,14.9-1c25,0.1,49.9,0.2,74.9,0c26.9-0.2,53.8-0.6,80.8-1
		c5.8-0.1,8.3-2.8,8.9-9.1c0.6-6.4,1.8-12.8,4-18.9c10.7-0.2,21.2,2.7,32,2c0,0.7,0,1.3,0,2c-2,5.6-2.2,11.6-2.6,17.5
		c-0.3,4.7,2.3,6.8,7.5,6.7c14.1-0.4,28.2-0.9,42.3-0.9c80.4-0.4,160.8-0.2,241.2-0.2C572.7,445,578.6,446.3,580.6,439z"/>
	<path style="fill:none;stroke:#000000;stroke-width:2;stroke-miterlimit:10;" d="M64,473c66.5,0,132.9,0.7,199.4-0.2
		c69.3-0.9,138.5,0,207.7-1.1c22.8-0.4,45.6-0.6,68.3-0.6c13.7,0,27.6-1.9,41.1,1.9c0.5,3.3,0.4,6.7,0,10c-2.2,0.8-1.6,2.6-1.6,4.2
		c-0.1,3.6,0,7.2,0,10.8c-4.9-1.9-10-2.1-15.2-2c-30.3,0.1-60.7-0.7-90.9,0.2c-44.8,1.3-89.6-0.3-134.3,1
		c-41.6,1.3-83.2-0.4-124.8,0.9c-46.8,1.6-93.5,0.2-140.3,0.9c-3.3,0-6.6-0.1-9.9-1.1l0.1-0.4c-0.1-2.6,1.9-5.6-1.4-7.6
		c0-3.3,0-6.6,0-10C65.6,478.4,63.3,475.3,64,473z"/>
	<path style="fill:none;stroke:#000000;stroke-width:2;stroke-miterlimit:10;" d="M247,418c-2.2,6.1-3.3,12.5-4,18.9
		c-0.6,6.3-3.2,9-8.9,9.1c-26.9,0.4-53.8,0.8-80.8,1c-25,0.2-49.9,0.1-74.9,0c-5,0-9.9,0.6-14.9,1c-0.1-7.4-0.1-14.8-0.3-22.2
		c0-2.4-0.4-4.9-0.6-7.3c0.1-0.5,0.2-1,0.4-1.4c10.1-1.7,20.2-0.9,30.3-1c40.9-0.1,81.9-0.1,122.8,0c10.3,0,20.6-0.8,30.8,1
		C247,417.3,247,417.7,247,418z"/>
	<path style="fill:none;stroke:#000000;stroke-width:2;stroke-miterlimit:10;" d="M62.2,513c3.2,1.5,1.4,4.3,1.7,6.6
		c0.3,2.1,0.1,4.3,0.1,6.4c0,10.8,0,21.7,0,32.5c0,6.6,0,6.6,6.4,5.7c1.6-0.2,3.3-0.1,5-0.1c52.2,0,104.3,0,156.5-0.1
		c5,0,9.5,0.6,13.2,4.2c-6.6-0.8-6.9,3.9-7.5,8.4c-0.1,0.8-0.4,1.6-0.7,2.4c-3.4-1.7-6.9-3.4-10.3-5.1c-3.1-1.6-5.2-0.8-6,2.6
		c-0.6,2.5-2,3.9-4.3,2.2c-4.2-3-7.1-1.3-9.6,2.2c-1.8,2.6-3.6,2.6-6.4,1.3c-1.7-0.8-4.5-3.8-5.9,1c-0.4,1.4-2.1,0.1-3-0.4
		c-2.6-1.4-5-3-8-4.9c0.5,6.6-2.5,5.8-6.3,3.8c-1.1-0.6-2.1-1.2-1.9,1.2c0.2,1.8-1.3,0.7-1.9,0.3c-2.1-1.1-4.1-2.2-6.1-3.4
		c-1.6-0.9-3.2-1.5-4.5,0c-3.7,4.2-4.9,0.3-5.5-2c-0.6-2.9-2-2.3-3.8-1.8c-3.6,1-7,2.9-10.8,2.8c-0.5-1.9,1.4-2.7,1.6-4.4
		c-2.6-0.6-6.2,2.9-8-1.9c-0.3-0.8-2.7,0.5-3.8,1.5c-2.1,1.9-4.2,3.8-6.1,5.9c-2.1,2.3-3.6,2.6-5-0.6c-0.9-2.1-2.1-4-3.3-6.4
		c-2.5,2.5-3.1,5.3-3.3,8.6c-4.6-1.6-7.7-4.8-11.2-7.4c-2.6-2-4.4-2.7-5.8,1.2c-0.9,2.6-2.4,4.9-4,8.3c-1-3.7-1.8-6.4-2.6-9.2
		c-0.4-1.3-0.5-3-2-3.1c-1.9-0.2-2.1,1.9-2.6,3.1c-0.5,1.3-0.7,2.8-1,4.1c-1.5,0.4-2.1-0.6-2.7-1.3c-2.2-2.6-4.3-4-7.2-0.7
		c-0.9,1-3.3,2.7-4.3,0.8c-2.7-5.3-6-2.1-9.2-1.3C62.2,555.1,62.2,534,62.2,513z"/>
	<path style="fill:none;stroke:#000000;stroke-width:2;stroke-miterlimit:10;" d="M64,473c-0.7,2.3,1.6,5.4-1.8,7
		c0.3-3.6-1.8-7.4,1.3-10.6C63.7,470.6,63.9,471.8,64,473z"/>
	<path style="fill:none;stroke:#000000;stroke-width:2;stroke-miterlimit:10;" d="M63.7,498.4c-0.2,2.9,2.1,6.3-1.5,8.6
		C62.5,504.1,60.5,500.8,63.7,498.4z"/>
	<path style="fill:none;stroke:#000000;stroke-width:2;stroke-miterlimit:10;" d="M62.2,490c3.3,2,1.3,5,1.4,7.6
		C60.6,495.5,62.4,492.6,62.2,490z"/>
	<path style="fill:none;stroke:#000000;stroke-width:2;stroke-miterlimit:10;" d="M63.1,417c-0.1,0.5-0.2,1-0.4,1.4
		c-1.2-2.4-0.7-4.9-0.5-7.4C63.6,412.9,62.8,415,63.1,417z"/>
	<path style="fill:none;stroke:#000000;stroke-width:2;stroke-miterlimit:10;" d="M398,403c4,11.4,12.7,12.5,23.4,12.2
		c23.1-0.7,46.3,0.6,69.4-0.4c27.5-1.3,54.9-0.2,82.3-0.8c2.5-0.1,5-0.2,7.3,1.2c0.5,7.9,0.8,15.9,0.2,23.8c-2,7.3-7.9,6-13.1,6
		c-80.4,0-160.8-0.2-241.2,0.2c-14.1,0.1-28.2,0.5-42.3,0.9c-5.2,0.1-7.8-2-7.5-6.7c0.3-5.9,0.6-11.8,2.6-17.5
		c2.3-0.3,4.6-1,6.9-0.9c24.9,0.5,49.8-1.8,74.8-1.1c1,0,2-0.1,3,0c3.2,0.2,4.6-1.4,4.4-4.5c-0.1-1.5,0-3,0-4.5
		c1.9,0.3,3.7,0.7,5.8,0.4C382.4,410,389.9,405.6,398,403z"/>
	<path style="fill:none;stroke:#000000;stroke-width:2;stroke-miterlimit:10;" d="M579,498c0-3.6,0-7.2,0-10.8
		c0-1.5-0.6-3.4,1.6-4.2c0.1,11.4,0.2,22.9,0.3,34.3c0,17.8,0,35.5,0,53.3c0,2.1,0.2,4.3-0.7,6.4c-0.2,0-0.4,0.1-0.5,0
		c-4.1-3.5-8.1-4.9-11,1.2c-0.9-0.6-1.3-0.7-1.3-1c-0.6-2.5-0.3-6.5-3.1-6.7c-3.1-0.2-2.6,3.9-3.3,6.3c-0.5,1.6-0.8,3.2-1.4,5.3
		c-2.5-2.5-3.3-5.6-4.5-8.3c-1.4-3.1-2.9-3-5.2-1.1c-3.4,2.8-6.8,5.8-11.3,7.8c-0.5-3.1-1.3-5.9-3.2-8.4c-2.6,1.5-2.3,4.6-3.8,6.7
		c-1.4,1.9-2.7,2.9-4.6,0.6c-1.5-1.8-3.1-3.7-5-4.8c-2-1.2-3.6-5.9-7-0.9c-1.1,1.6-4.6-0.2-7.1-0.8c0.2,2.1,3,2.2,2.4,4.7
		c-3.7,0.3-7.2-1.1-10.6-2.6c-2.1-0.9-3.1-1-3.7,1.7c-0.6,3-2.2,5.7-5.6,2.1c-1.4-1.4-2.9-1.4-4.4-0.2c-2,1.5-4.2,2.6-6.6,3.3
		c-0.2-0.2-0.3-0.4-0.5-0.6c-0.5-2.8-2-1.2-3.3-0.7c-5.1,2.1-5.1,2.1-5.8-3.4c-2.6,0.3-4.1,2.5-6.3,3.4c-1.7,0.7-4.1,4.3-5.6-0.4
		c-0.1-0.2-0.7-0.5-0.8-0.4c-6.8,3.6-9.2-4.5-14.4-5.3c-1.2-0.2-2.3-1.1-3.4-1.6c-0.4,0.4-0.7,0.6-0.8,0.8c-0.7,1.9,1.1,4.8-1.4,5.8
		c-2.1,0.8-3.2-1.9-4.8-2.9c-3.6-2.2-6-5.6-10-9.2c0,3.3-0.1,5.7,0,8.1c0.3,4.7-1.4,4.6-4.7,2.3c-2.1-1.5-4.6-2.5-7-3.8
		c-1,2.6,1.7,4.1,1.1,6.8c-5-2.2-8.5-6.2-12.4-9.6c-2.2-1.9-3.7-3.3-5.5,0.3c-0.8,1.7-1.7,4.2-4,3.9c-2.5-0.3-2.6-3.1-3.4-5.1
		c-0.9-2.5-1.5-5.1-1.3-7.8c-0.1-3.6,2.6-2.7,4.6-2.8c34.2-0.6,68.5,0.6,102.7-0.8c25.7-1,51.6-0.2,77.4-0.2c1.8,0,3.7-0.3,5.4,0.6
		c3.2,1.8,4,0.5,3.9-2.7c-0.1-10.3,0-20.6,0-30.9C579,516.7,579,507.3,579,498z"/>
	<path style="fill:none;stroke:#000000;stroke-width:2;stroke-miterlimit:10;" d="M580.6,230.9c-0.2-0.3-0.4-0.7-0.7-1
		c0.3,0,0.7,0,1,0C580.9,230.3,580.7,230.6,580.6,230.9z"/>
	<path style="fill:none;stroke:#000000;stroke-width:2;stroke-miterlimit:10;" d="M592.9,205.1c-0.3,0.5-0.6,0.4-0.9,0
		C592.3,205,592.6,205,592.9,205.1z"/>
	<path style="fill:none;stroke:#000000;stroke-width:2;stroke-miterlimit:10;" d="M579,526c0,10.3-0.1,20.6,0,30.9
		c0,3.2-0.7,4.5-3.9,2.7c-1.7-0.9-3.6-0.6-5.4-0.6c-25.8,0-51.6-0.8-77.4,0.2c-34.2,1.4-68.5,0.2-102.7,0.8c-2,0-4.7-0.8-4.6,2.8
		c-1,0.1-2,0.1-3,0.2c-0.4,0.3-0.7,0.6-1.1,0.9c-0.3,0.1-0.6,0.1-0.9,0.2c-3-3.4-6.7-4.8-11.2-3.9h0.1c-0.5-0.8-0.7-0.5-0.9,0.2
		c-0.7,0.2-1.4,0.5-2.1,0.7c-0.7-1-1.4-1-2,0.1l0,0c-1.2-0.1-2.4-0.2-3,1.1c-0.7,0.3-1.4,0.5-2,0.8c-0.3-2.4,1-5.4-2-7
		c-2.8-2.2-2,2.2-3.7,2.1c-0.4,0.4-0.8,0.9-1.2,1.3c-1,1.2-2,2.4-2.9,3.7c-1.6,0.1-2.7-0.8-4-1.7c-2.5-1.8-6.2-2.4-7.8-0.2
		c-2.5,3.5-3.6,0.8-5.3-0.1c-0.1-0.6-0.3-1.2-0.4-1.8c1.8-1.5,0.7-1.9-0.8-2.1c-0.6,0.6-1.2,1.3-1.8,1.9c-0.6,0.3-0.8,0.6-0.1,1
		c-0.3,1-0.7,2-1,3c-1.9,1.3-2.7,0-4-1.3c-2.9-2.9-5.1-2.3-7.2,1.3c-0.5,0.8-1.3,1.4-2,2.1c-2-2-3.9-3.9-5.9-5.9
		c-0.3-0.4-0.6-0.8-0.9-1.2c-0.1-0.2-0.1-0.4-0.1-0.6c-0.4-0.4-0.8-0.9-1.2-1.3c-1.6-0.4-2.1,0.9-2.7,1.9c-0.8,0.5-1,1.2-1,2.1v-0.1
		c-0.8,0.4-1,1.2-1,2l0.1,0.2c-2.8-0.9-6.1,2.1-8.5-1.2c-0.5-1.7-1.1-3.3-1.6-5c0.7-0.6,0.3-0.8-0.3-0.9c-0.2-0.3-0.5-0.7-0.7-1
		c-0.3-0.4-0.7-0.7-1-1.1c-1.1,0.2-1.5,1.1-1.9,2c-0.9,0.5-1,1.4-0.9,2.3c0.1,0.2,0.1,0.4,0,0.7c-1.2,0.8-1.1,2-1.1,3.1
		c0,0.6,0,1.3,0,1.9c-1.5,1.2-2.1,3.3-4.1,4.1c-0.3-0.3-0.6-0.6-0.9-0.9c-0.3-0.4-0.6-0.7-1-1.1c-0.7-1-1.4-1.9-2.1-2.9
		c-0.3-0.4-0.6-0.8-0.9-1.1c-2.4-0.3-3.1,2.2-4.8,3.1c-0.4,0.4-0.8,0.9-1.2,1.3c-0.4,0.5-0.8,1.1-1.2,1.6c-1.4,0-2.8,0.1-4.2,0.1
		c-0.2-0.3-0.5-0.6-0.7-0.9c-0.3-0.4-0.6-0.8-0.9-1.2c-1.3-4.6-4.1-5.3-7.9-3c-0.4,0.4-0.7,0.7-1.1,1.1c-3.1,2.1-6.4,3.8-9.9,5
		c-3.7-3.6-8.2-4.2-13.2-4.2c-52.2,0.1-104.3,0.1-156.5,0.1c-1.7,0-3.4-0.1-5,0.1c-6.4,0.9-6.4,1-6.4-5.7c0-10.8,0-21.7,0-32.5
		c2.6,0.8,5.2,1,7.9,1c72,0,144,0.7,216-0.3c42.3-0.6,84.6,0.5,126.9-0.9c51.6-1.6,103.3-0.2,154.9-0.8
		C572.7,525,575.9,525.7,579,526z"/>
	<path style="fill:none;stroke:#000000;stroke-width:2;stroke-miterlimit:10;" d="M368.9,560.1c4.5-0.9,8.2,0.5,11.2,3.9
		c-4.7,2.9-9.3,5.9-15.1,5.9C363.8,565.7,368.6,563.8,368.9,560.1z"/>
	<path style="fill:none;stroke:#000000;stroke-width:2;stroke-miterlimit:10;" d="M479.1,582.1c-0.3,0.5-0.9,1.2-1.3,0.6
		c-0.5-0.6,0.4-0.9,0.8-1.2C478.8,581.7,478.9,581.9,479.1,582.1z"/>
	<path style="fill:none;stroke:#000000;stroke-width:2;stroke-miterlimit:10;" d="M381,563.9c0.4-0.3,0.7-0.6,1.1-0.9
		C381.8,563.3,381.4,563.6,381,563.9z"/>
	<path style="fill:none;stroke:#000000;stroke-width:2;stroke-miterlimit:10;" d="M332.2,561c1.7,0.9,2.8,3.7,5.3,0.1
		c1.6-2.3,5.3-1.7,7.8,0.2c1.2,0.9,2.3,1.9,4,1.7c-3.5,4.5-7,9-11,14.2C335.5,571.8,333.5,566.6,332.2,561z"/>
	<path style="fill:none;stroke:#000000;stroke-width:2;stroke-miterlimit:10;" d="M314.8,565.1c0.7-0.7,1.5-1.3,2-2.1
		c2.1-3.6,4.3-4.2,7.2-1.3c1.3,1.3,2.1,2.5,4,1.3c-0.5,4.1-2.2,8-1.9,13.4C321.5,572.6,318.1,568.9,314.8,565.1z"/>
	<path style="fill:none;stroke:#000000;stroke-width:2;stroke-miterlimit:10;" d="M357,556c3,1.7,1.7,4.6,2,7
		C357.1,561,357.1,558.5,357,556z"/>
	<path style="fill:none;stroke:#000000;stroke-width:2;stroke-miterlimit:10;" d="M330.9,557c1.5,0.2,2.6,0.6,0.8,2.1
		C331.4,558.5,331.2,557.7,330.9,557z"/>
	<path style="fill:none;stroke:#000000;stroke-width:2;stroke-miterlimit:10;" d="M361,562.2c0.6-1.4,1.9-1.2,3-1.1
		C363.4,562.3,362.1,562,361,562.2z"/>
	<path style="fill:none;stroke:#000000;stroke-width:2;stroke-miterlimit:10;" d="M303.1,560.1c0-0.9,0.2-1.6,1-2.1
		C304,558.8,303.9,559.6,303.1,560.1z"/>
	<path style="fill:none;stroke:#000000;stroke-width:2;stroke-miterlimit:10;" d="M364,561.1c0.6-1.1,1.3-1.1,2-0.1
		C365.4,561.1,364.7,561.1,364,561.1z"/>
	<path style="fill:none;stroke:#000000;stroke-width:2;stroke-miterlimit:10;" d="M302.1,562.1c0-0.9,0.2-1.6,1-2
		C303,560.8,303.1,561.7,302.1,562.1z"/>
	<path style="fill:none;stroke:#000000;stroke-width:2;stroke-miterlimit:10;" d="M368.1,560.3c0.2-0.7,0.4-1,0.9-0.2
		C368.7,560.2,368.4,560.2,368.1,560.3z"/>
	<path style="fill:none;stroke:#000000;stroke-width:2;stroke-miterlimit:10;" d="M306.7,556.1c0.4,0.4,0.8,0.9,1.2,1.3
		C307.5,556.9,307.1,556.5,306.7,556.1z"/>
	<path style="fill:none;stroke:#000000;stroke-width:2;stroke-miterlimit:10;" d="M352.1,559.4c0.4-0.4,0.8-0.9,1.2-1.3
		C352.9,558.5,352.5,558.9,352.1,559.4z"/>
	<path style="fill:none;stroke:#000000;stroke-width:2;stroke-miterlimit:10;" d="M329,560c-0.7-0.4-0.5-0.7,0.1-1
		C329.1,559.3,329.1,559.7,329,560z"/>
	<path style="fill:none;stroke:#000000;stroke-width:2;stroke-miterlimit:10;" d="M308,558c0.3,0.4,0.6,0.8,0.9,1.2
		C308.6,558.8,308.3,558.4,308,558z"/>
	<path style="fill:none;stroke:#000000;stroke-width:2;stroke-miterlimit:10;" d="M265.7,567.1c1.4,0,2.8-0.1,4.2-0.1
		C268.5,569.8,267.1,569,265.7,567.1z"/>
	<path style="fill:none;stroke:#000000;stroke-width:2;stroke-miterlimit:10;" d="M277.1,561c0.3,0.4,0.6,0.8,0.9,1.1
		C277.7,561.7,277.4,561.4,277.1,561z"/>
	<path style="fill:none;stroke:#000000;stroke-width:2;stroke-miterlimit:10;" d="M255,563.1c0.4-0.4,0.7-0.7,1.1-1.1
		C255.7,562.4,255.4,562.7,255,563.1z"/>
	<path style="fill:none;stroke:#000000;stroke-width:2;stroke-miterlimit:10;" d="M271.1,565.4c0.4-0.4,0.8-0.9,1.2-1.3
		C271.9,564.5,271.5,564.9,271.1,565.4z"/>
	<path style="fill:none;stroke:#000000;stroke-width:2;stroke-miterlimit:10;" d="M264.1,565c0.3,0.4,0.6,0.8,0.9,1.2
		C264.6,565.8,264.3,565.4,264.1,565z"/>
	<path style="fill:none;stroke:#000000;stroke-width:2;stroke-miterlimit:10;" d="M280,565c0.3,0.4,0.6,0.7,1,1.1
		C280.7,565.7,280.3,565.4,280,565z"/>
	<path style="fill:none;stroke:#000000;stroke-width:2;stroke-miterlimit:10;" d="M286,561.1c0-1.2-0.1-2.4,1.1-3.1
		C287.1,559.1,287.2,560.3,286,561.1z"/>
	<path style="fill:none;stroke:#000000;stroke-width:2;stroke-miterlimit:10;" d="M287.1,557.3c-0.1-0.9,0.1-1.8,0.9-2.3
		C288.1,555.9,287.8,556.7,287.1,557.3z"/>
	<path style="fill:none;stroke:#000000;stroke-width:2;stroke-miterlimit:10;" d="M291.7,555.1c0.6,0.1,1,0.4,0.3,0.9
		C291.9,555.7,291.8,555.4,291.7,555.1z"/>
	<path style="fill:none;stroke:#000000;stroke-width:2;stroke-miterlimit:10;" d="M289.9,553c0.3,0.4,0.7,0.7,1,1.1
		C290.6,553.7,290.3,553.4,289.9,553z"/>
</g>
<g id="Layer_2_1_">
	<g>
		<g>
			<line style="fill:none;stroke:#000000;stroke-width:2;stroke-miterlimit:10;" x1="457" y1="470" x2="444" y2="489"/>
		</g>
		<g>
			<line style="fill:none;stroke:#000000;stroke-width:2;stroke-miterlimit:10;" x1="423" y1="433" x2="410" y2="452"/>
		</g>
		<g>
			<line style="fill:none;stroke:#000000;stroke-width:2;stroke-miterlimit:10;" x1="389" y1="396" x2="376" y2="415"/>
		</g>
		<g>
			<line style="fill:none;stroke:#000000;stroke-width:2;stroke-miterlimit:10;" x1="355" y1="359" x2="342" y2="378"/>
		</g>
		<g>
			<line style="fill:none;stroke:#000000;stroke-width:2;stroke-miterlimit:10;" x1="321" y1="322" x2="308" y2="341"/>
		</g>
		<g>
			<line style="fill:none;stroke:#000000;stroke-width:2;stroke-miterlimit:10;" x1="287" y1="285" x2="274" y2="304"/>
		</g>
		<g>
			<line style="fill:none;stroke:#000000;stroke-width:2;stroke-miterlimit:10;" x1="253" y1="248" x2="240" y2="267"/>
		</g>
		<g>
			<line style="fill:none;stroke:#000000;stroke-width:2;stroke-miterlimit:10;" x1="219" y1="211" x2="206" y2="230"/>
		</g>
		<g>
			<line style="fill:none;stroke:#000000;stroke-width:2;stroke-miterlimit:10;" x1="185" y1="174" x2="172" y2="193"/>
		</g>
	</g>
	<g>
		<g>
			<line style="fill:none;stroke:#000000;stroke-width:2;stroke-miterlimit:10;" x1="450.5" y1="513.1" x2="437.5" y2="532.1"/>
		</g>
		<g>
			<line style="fill:none;stroke:#000000;stroke-width:2;stroke-miterlimit:10;" x1="416.5" y1="476.1" x2="403.5" y2="495.1"/>
		</g>
		<g>
			<line style="fill:none;stroke:#000000;stroke-width:2;stroke-miterlimit:10;" x1="382.5" y1="439.1" x2="369.5" y2="458.1"/>
		</g>
		<g>
			<line style="fill:none;stroke:#000000;stroke-width:2;stroke-miterlimit:10;" x1="348.5" y1="402.1" x2="335.5" y2="421.1"/>
		</g>
		<g>
			<line style="fill:none;stroke:#000000;stroke-width:2;stroke-miterlimit:10;" x1="314.5" y1="365.1" x2="301.5" y2="384.1"/>
		</g>
		<g>
			<line style="fill:none;stroke:#000000;stroke-width:2;stroke-miterlimit:10;" x1="280.5" y1="328.1" x2="267.5" y2="347.1"/>
		</g>
		<g>
			<line style="fill:none;stroke:#000000;stroke-width:2;stroke-miterlimit:10;" x1="246.5" y1="291.1" x2="233.5" y2="310.1"/>
		</g>
		<g>
			<line style="fill:none;stroke:#000000;stroke-width:2;stroke-miterlimit:10;" x1="212.5" y1="254.1" x2="199.5" y2="273.1"/>
		</g>
		<g>
			<line style="fill:none;stroke:#000000;stroke-width:2;stroke-miterlimit:10;" x1="178.5" y1="217.1" x2="165.5" y2="236.1"/>
		</g>
	</g>
	<g>
		<g>
			<line style="fill:none;stroke:#000000;stroke-width:2;stroke-miterlimit:10;" x1="387.2" y1="498" x2="374.2" y2="517"/>
		</g>
		<g>
			<line style="fill:none;stroke:#000000;stroke-width:2;stroke-miterlimit:10;" x1="353.2" y1="461" x2="340.2" y2="480"/>
		</g>
		<g>
			<line style="fill:none;stroke:#000000;stroke-width:2;stroke-miterlimit:10;" x1="319.2" y1="424" x2="306.2" y2="443"/>
		</g>
		<g>
			<line style="fill:none;stroke:#000000;stroke-width:2;stroke-miterlimit:10;" x1="285.2" y1="387" x2="272.2" y2="406"/>
		</g>
		<g>
			<line style="fill:none;stroke:#000000;stroke-width:2;stroke-miterlimit:10;" x1="251.2" y1="350" x2="238.2" y2="369"/>
		</g>
		<g>
			<line style="fill:none;stroke:#000000;stroke-width:2;stroke-miterlimit:10;" x1="217.2" y1="313" x2="204.2" y2="332"/>
		</g>
		<g>
			<line style="fill:none;stroke:#000000;stroke-width:2;stroke-miterlimit:10;" x1="183.2" y1="276" x2="170.2" y2="295"/>
		</g>
		<g>
			<line style="fill:none;stroke:#000000;stroke-width:2;stroke-miterlimit:10;" x1="149.2" y1="239" x2="136.2" y2="258"/>
		</g>
		<g>
			<line style="fill:none;stroke:#000000;stroke-width:2;stroke-miterlimit:10;" x1="115.2" y1="202" x2="102.2" y2="221"/>
		</g>
	</g>
	<g>
		<g>
			<line style="fill:none;stroke:#000000;stroke-width:2;stroke-miterlimit:10;" x1="564.4" y1="402" x2="551.4" y2="420.9"/>
		</g>
		<g>
			<line style="fill:none;stroke:#000000;stroke-width:2;stroke-miterlimit:10;" x1="530.4" y1="365" x2="517.4" y2="383.9"/>
		</g>
		<g>
			<line style="fill:none;stroke:#000000;stroke-width:2;stroke-miterlimit:10;" x1="496.4" y1="328" x2="483.4" y2="346.9"/>
		</g>
		<g>
			<line style="fill:none;stroke:#000000;stroke-width:2;stroke-miterlimit:10;" x1="462.4" y1="291" x2="449.4" y2="309.9"/>
		</g>
		<g>
			<line style="fill:none;stroke:#000000;stroke-width:2;stroke-miterlimit:10;" x1="428.4" y1="254" x2="415.4" y2="272.9"/>
		</g>
		<g>
			<line style="fill:none;stroke:#000000;stroke-width:2;stroke-miterlimit:10;" x1="394.4" y1="217" x2="381.4" y2="235.9"/>
		</g>
		<g>
			<line style="fill:none;stroke:#000000;stroke-width:2;stroke-miterlimit:10;" x1="360.4" y1="180" x2="347.4" y2="198.9"/>
		</g>
		<g>
			<line style="fill:none;stroke:#000000;stroke-width:2;stroke-miterlimit:10;" x1="326.4" y1="143" x2="313.4" y2="161.9"/>
		</g>
	</g>
	<g>
		<g>
			<line style="fill:none;stroke:#000000;stroke-width:2;stroke-miterlimit:10;" x1="609.3" y1="397.7" x2="596.3" y2="416.7"/>
		</g>
		<g>
			<line style="fill:none;stroke:#000000;stroke-width:2;stroke-miterlimit:10;" x1="575.3" y1="360.7" x2="562.3" y2="379.7"/>
		</g>
		<g>
			<line style="fill:none;stroke:#000000;stroke-width:2;stroke-miterlimit:10;" x1="541.3" y1="323.7" x2="528.3" y2="342.7"/>
		</g>
		<g>
			<line style="fill:none;stroke:#000000;stroke-width:2;stroke-miterlimit:10;" x1="507.3" y1="286.7" x2="494.3" y2="305.7"/>
		</g>
		<g>
			<line style="fill:none;stroke:#000000;stroke-width:2;stroke-miterlimit:10;" x1="473.3" y1="249.7" x2="460.3" y2="268.7"/>
		</g>
		<g>
			<line style="fill:none;stroke:#000000;stroke-width:2;stroke-miterlimit:10;" x1="439.3" y1="212.7" x2="426.3" y2="231.7"/>
		</g>
		<g>
			<line style="fill:none;stroke:#000000;stroke-width:2;stroke-miterlimit:10;" x1="405.3" y1="175.7" x2="392.3" y2="194.7"/>
		</g>
		<g>
			<line style="fill:none;stroke:#000000;stroke-width:2;stroke-miterlimit:10;" x1="371.3" y1="138.7" x2="358.3" y2="157.7"/>
		</g>
	</g>
	<g>
		<g>
			<line style="fill:none;stroke:#000000;stroke-width:2;stroke-miterlimit:10;" x1="593.6" y1="314.2" x2="580.6" y2="333.2"/>
		</g>
		<g>
			<line style="fill:none;stroke:#000000;stroke-width:2;stroke-miterlimit:10;" x1="559.6" y1="277.2" x2="546.6" y2="296.2"/>
		</g>
		<g>
			<line style="fill:none;stroke:#000000;stroke-width:2;stroke-miterlimit:10;" x1="525.6" y1="240.2" x2="512.6" y2="259.2"/>
		</g>
		<g>
			<line style="fill:none;stroke:#000000;stroke-width:2;stroke-miterlimit:10;" x1="491.6" y1="203.2" x2="478.6" y2="222.2"/>
		</g>
		<g>
			<line style="fill:none;stroke:#000000;stroke-width:2;stroke-miterlimit:10;" x1="457.6" y1="166.2" x2="444.6" y2="185.2"/>
		</g>
		<g>
			<line style="fill:none;stroke:#000000;stroke-width:2;stroke-miterlimit:10;" x1="423.6" y1="129.2" x2="410.6" y2="148.2"/>
		</g>
	</g>
	<g>
		<g>
			<line style="fill:none;stroke:#000000;stroke-width:2;stroke-miterlimit:10;" x1="679.1" y1="334.1" x2="666.1" y2="353"/>
		</g>
		<g>
			<line style="fill:none;stroke:#000000;stroke-width:2;stroke-miterlimit:10;" x1="645.1" y1="297.1" x2="632.1" y2="316"/>
		</g>
		<g>
			<line style="fill:none;stroke:#000000;stroke-width:2;stroke-miterlimit:10;" x1="611.1" y1="260.1" x2="598.1" y2="279"/>
		</g>
		<g>
			<line style="fill:none;stroke:#000000;stroke-width:2;stroke-miterlimit:10;" x1="577.1" y1="223.1" x2="564.1" y2="242"/>
		</g>
		<g>
			<line style="fill:none;stroke:#000000;stroke-width:2;stroke-miterlimit:10;" x1="543.1" y1="186.1" x2="530.1" y2="205"/>
		</g>
	</g>
	<g>
		<g>
			<line style="fill:none;stroke:#000000;stroke-width:2;stroke-miterlimit:10;" x1="330" y1="509" x2="317" y2="527.9"/>
		</g>
		<g>
			<line style="fill:none;stroke:#000000;stroke-width:2;stroke-miterlimit:10;" x1="296" y1="472" x2="283" y2="490.9"/>
		</g>
		<g>
			<line style="fill:none;stroke:#000000;stroke-width:2;stroke-miterlimit:10;" x1="262" y1="435" x2="249" y2="453.9"/>
		</g>
		<g>
			<line style="fill:none;stroke:#000000;stroke-width:2;stroke-miterlimit:10;" x1="228" y1="398" x2="215" y2="416.9"/>
		</g>
		<g>
			<line style="fill:none;stroke:#000000;stroke-width:2;stroke-miterlimit:10;" x1="194" y1="361" x2="181" y2="379.9"/>
		</g>
		<g>
			<line style="fill:none;stroke:#000000;stroke-width:2;stroke-miterlimit:10;" x1="160" y1="324" x2="147" y2="342.9"/>
		</g>
		<g>
			<line style="fill:none;stroke:#000000;stroke-width:2;stroke-miterlimit:10;" x1="126" y1="287" x2="113" y2="305.9"/>
		</g>
		<g>
			<line style="fill:none;stroke:#000000;stroke-width:2;stroke-miterlimit:10;" x1="92" y1="250" x2="79" y2="268.9"/>
		</g>
	</g>
	<g>
		<g>
			<line style="fill:none;stroke:#000000;stroke-width:2;stroke-miterlimit:10;" x1="299" y1="555.4" x2="286" y2="574.4"/>
		</g>
		<g>
			<line style="fill:none;stroke:#000000;stroke-width:2;stroke-miterlimit:10;" x1="265" y1="518.4" x2="252" y2="537.4"/>
		</g>
		<g>
			<line style="fill:none;stroke:#000000;stroke-width:2;stroke-miterlimit:10;" x1="231" y1="481.4" x2="218" y2="500.4"/>
		</g>
		<g>
			<line style="fill:none;stroke:#000000;stroke-width:2;stroke-miterlimit:10;" x1="197" y1="444.4" x2="184" y2="463.4"/>
		</g>
		<g>
			<line style="fill:none;stroke:#000000;stroke-width:2;stroke-miterlimit:10;" x1="163" y1="407.4" x2="150" y2="426.4"/>
		</g>
		<g>
			<line style="fill:none;stroke:#000000;stroke-width:2;stroke-miterlimit:10;" x1="129" y1="370.4" x2="116" y2="389.4"/>
		</g>
		<g>
			<line style="fill:none;stroke:#000000;stroke-width:2;stroke-miterlimit:10;" x1="95" y1="333.4" x2="82" y2="352.4"/>
		</g>
		<g>
			<line style="fill:none;stroke:#000000;stroke-width:2;stroke-miterlimit:10;" x1="61" y1="296.4" x2="48" y2="315.4"/>
		</g>
		<g>
			<line style="fill:none;stroke:#000000;stroke-width:2;stroke-miterlimit:10;" x1="27" y1="259.4" x2="14" y2="278.4"/>
		</g>
	</g>
	<g>
		<g>
			<line style="fill:none;stroke:#000000;stroke-width:2;stroke-miterlimit:10;" x1="210" y1="547.6" x2="197" y2="566.5"/>
		</g>
		<g>
			<line style="fill:none;stroke:#000000;stroke-width:2;stroke-miterlimit:10;" x1="176" y1="510.6" x2="163" y2="529.5"/>
		</g>
		<g>
			<line style="fill:none;stroke:#000000;stroke-width:2;stroke-miterlimit:10;" x1="142" y1="473.6" x2="129" y2="492.5"/>
		</g>
		<g>
			<line style="fill:none;stroke:#000000;stroke-width:2;stroke-miterlimit:10;" x1="108" y1="436.6" x2="95" y2="455.5"/>
		</g>
		<g>
			<line style="fill:none;stroke:#000000;stroke-width:2;stroke-miterlimit:10;" x1="74" y1="399.6" x2="61" y2="418.5"/>
		</g>
		<g>
			<line style="fill:none;stroke:#000000;stroke-width:2;stroke-miterlimit:10;" x1="40" y1="362.6" x2="27" y2="381.5"/>
		</g>
	</g>
	<g>
		<g>
			<line style="fill:none;stroke:#000000;stroke-width:2;stroke-miterlimit:10;" x1="157" y1="586.5" x2="144" y2="605.5"/>
		</g>
		<g>
			<line style="fill:none;stroke:#000000;stroke-width:2;stroke-miterlimit:10;" x1="123" y1="549.5" x2="110" y2="568.5"/>
		</g>
		<g>
			<line style="fill:none;stroke:#000000;stroke-width:2;stroke-miterlimit:10;" x1="89" y1="512.5" x2="76" y2="531.5"/>
		</g>
		<g>
			<line style="fill:none;stroke:#000000;stroke-width:2;stroke-miterlimit:10;" x1="55" y1="475.5" x2="42" y2="494.5"/>
		</g>
		<g>
			<line style="fill:none;stroke:#000000;stroke-width:2;stroke-miterlimit:10;" x1="21" y1="438.5" x2="8" y2="457.5"/>
		</g>
		<g>
			<line style="fill:none;stroke:#000000;stroke-width:2;stroke-miterlimit:10;" x1="-13" y1="401.5" x2="-26" y2="420.5"/>
		</g>
	</g>
	<g>
		<g>
			<line style="fill:none;stroke:#000000;stroke-width:2;stroke-miterlimit:10;" x1="591.9" y1="482.1" x2="578.9" y2="501"/>
		</g>
		<g>
			<line style="fill:none;stroke:#000000;stroke-width:2;stroke-miterlimit:10;" x1="557.9" y1="445.1" x2="544.9" y2="464"/>
		</g>
		<g>
			<line style="fill:none;stroke:#000000;stroke-width:2;stroke-miterlimit:10;" x1="523.9" y1="408.1" x2="510.9" y2="427"/>
		</g>
		<g>
			<line style="fill:none;stroke:#000000;stroke-width:2;stroke-miterlimit:10;" x1="489.9" y1="371.1" x2="476.9" y2="390"/>
		</g>
		<g>
			<line style="fill:none;stroke:#000000;stroke-width:2;stroke-miterlimit:10;" x1="455.9" y1="334.1" x2="442.9" y2="353"/>
		</g>
		<g>
			<line style="fill:none;stroke:#000000;stroke-width:2;stroke-miterlimit:10;" x1="421.9" y1="297.1" x2="408.9" y2="316"/>
		</g>
		<g>
			<line style="fill:none;stroke:#000000;stroke-width:2;stroke-miterlimit:10;" x1="387.9" y1="260.1" x2="374.9" y2="279"/>
		</g>
		<g>
			<line style="fill:none;stroke:#000000;stroke-width:2;stroke-miterlimit:10;" x1="353.9" y1="223.1" x2="340.9" y2="242"/>
		</g>
		<g>
			<line style="fill:none;stroke:#000000;stroke-width:2;stroke-miterlimit:10;" x1="319.9" y1="186.1" x2="306.9" y2="205"/>
		</g>
	</g>
	<g>
		<g>
			<line style="fill:none;stroke:#000000;stroke-width:2;stroke-miterlimit:10;" x1="528.6" y1="466.9" x2="515.6" y2="485.9"/>
		</g>
		<g>
			<line style="fill:none;stroke:#000000;stroke-width:2;stroke-miterlimit:10;" x1="494.6" y1="429.9" x2="481.6" y2="448.9"/>
		</g>
		<g>
			<line style="fill:none;stroke:#000000;stroke-width:2;stroke-miterlimit:10;" x1="460.6" y1="392.9" x2="447.6" y2="411.9"/>
		</g>
		<g>
			<line style="fill:none;stroke:#000000;stroke-width:2;stroke-miterlimit:10;" x1="426.6" y1="355.9" x2="413.6" y2="374.9"/>
		</g>
		<g>
			<line style="fill:none;stroke:#000000;stroke-width:2;stroke-miterlimit:10;" x1="392.6" y1="318.9" x2="379.6" y2="337.9"/>
		</g>
		<g>
			<line style="fill:none;stroke:#000000;stroke-width:2;stroke-miterlimit:10;" x1="358.6" y1="281.9" x2="345.6" y2="300.9"/>
		</g>
		<g>
			<line style="fill:none;stroke:#000000;stroke-width:2;stroke-miterlimit:10;" x1="324.6" y1="244.9" x2="311.6" y2="263.9"/>
		</g>
		<g>
			<line style="fill:none;stroke:#000000;stroke-width:2;stroke-miterlimit:10;" x1="290.6" y1="207.9" x2="277.6" y2="226.9"/>
		</g>
		<g>
			<line style="fill:none;stroke:#000000;stroke-width:2;stroke-miterlimit:10;" x1="256.6" y1="170.9" x2="243.6" y2="189.9"/>
		</g>
	</g>
</g>
</svg>
