<?xml version="1.0" encoding="utf-8"?>
<!-- Generator: Adobe Illustrator 22.1.0, SVG Export Plug-In . SVG Version: 6.00 Build 0)  -->
<svg version="1.1" id="Layer_1" xmlns="http://www.w3.org/2000/svg" xmlns:xlink="http://www.w3.org/1999/xlink" x="0px" y="0px"
	 viewBox="0 0 612 792" style="enable-background:new 0 0 612 792;" xml:space="preserve">
<path style="fill:none;stroke:#000000;stroke-width:2;stroke-miterlimit:10;" d="M-129.8,195.7c0.5,0,1.1,0.1,1.2-0.5
	c2.3-12.1,11.4-18.4,20.9-24.1c16.1-9.6,34-15,52-19.8c19.3-5.1,38.9-8.5,58.6-11.1c13.2-1.7,26.4-3.2,39.8-4.1
	c15.2-1,30.4-1.7,45.6-2.3c13.9-0.6,27.8-0.5,41.7-0.4c11.7,0.1,23.5,0.6,35.2,1.5c17.1,1.3,34.2,2.8,51.3,5
	c21.9,2.8,43.6,6.6,64.9,12.2c18.6,4.9,36.8,11,53.3,21.6c7.5,4.8,13.2,10.9,16.8,19c0,3,0,6,0,9c-2.6,2.9-3.2,7-6,9.8
	c-6,5.8-12.7,10.5-20.1,14.2c-19.7,10-40.8,15.7-62.2,20.3c-27.1,5.9-54.5,9.4-82.2,11.5c-17.1,1.3-34.1,2.3-51.2,2.7
	c-29.6,0.6-59.3-0.2-88.8-2.7c-11.3-1-22.6-2-33.9-3.4c-18.2-2.3-36.3-5.3-54.1-9.6c-21.8-5.2-43.4-11.2-62.7-23.1
	c-8.4-5.1-16.2-11.1-18.6-21.6c-0.2-0.8-0.6-1.4-1.5-1.2C-129.8,197.7-129.8,196.7-129.8,195.7z M111.1,235.5
	c17.5,0.1,32.8-0.4,48-1.4c11.5-0.7,22.9-1.7,34.3-3c18.1-2,36.1-4.9,53.6-10c9.6-2.8,19.2-5.9,26.5-13.3c4.9-5,4.6-11.6-0.8-16.1
	c-4.5-3.7-9.5-6.4-15-8.5c-14.8-5.6-30.2-8.5-45.7-11.1c-22.4-3.7-45-5.7-67.7-6.4c-21.9-0.6-43.8-0.8-65.7,0.4
	c-13.7,0.7-27.4,1.7-41,3.1c-17.9,1.9-35.6,4.7-53,9.2c-9.9,2.6-19.7,5.9-28.1,12c-7.1,5.2-7.7,11.9-1.6,18.1
	c5.5,5.5,12.5,8.2,19.6,10.6c13.8,4.7,28.2,7.3,42.6,9.7c18.6,3.1,37.4,4.6,56.1,5.7C86.6,235.3,100,236.2,111.1,235.5z"/>
<path style="fill:none;stroke:#000000;stroke-width:2;stroke-miterlimit:10;" d="M-129.8,198.7c1-0.2,1.3,0.4,1.5,1.2
	c2.4,10.4,10.2,16.4,18.6,21.6c19.3,11.9,40.9,17.9,62.7,23.1c17.8,4.2,35.9,7.3,54.1,9.6c11.3,1.4,22.6,2.4,33.9,3.4
	c29.6,2.5,59.2,3.3,88.8,2.7c17.1-0.3,34.2-1.4,51.2-2.7c27.6-2.1,55.1-5.7,82.2-11.5c21.4-4.6,42.5-10.3,62.2-20.3
	c7.4-3.8,14.1-8.5,20.1-14.2c-0.8,4.5-4.6,6.8-7.6,9.2c-8.8,7.1-19.2,11.5-29.6,15.9c-7.6,3.2-15.5,5.4-23.3,7.9
	c-5.1,1.7-10.6,3-16,4c-4,0.7-7.9,1.5-11.8,2.4c-1.1,0.3-2.6,0.4-2.7,2.1c-1.3-0.3-2.5,0-3.7,0.3c-22.7,4.7-45.9,6.6-68.8,9.8
	c-5.5,0.8-11.2,0.5-16.8,0.9c-8.7,0.7-17.4,0.7-26.1,0.8c-7.1,0.1-14.2,0.1-21.4,0.2c-4.8-1.4-9.6-1.4-14.4,0
	c-7.3,0.3-14.5,0.1-21.8-0.3c-0.3-0.4-0.5-1.1-0.8-1.1c-4.7-0.1-9.4-0.1-14.2,0c-0.3,0-0.5,0.7-0.8,1.1c-0.9-0.3-1.8-0.7-2.8-1
	c-3.6-2-7.2-1.5-10.8-0.3c-0.5-0.1-1-0.2-1.5-0.2c-1.3-2.3-2.9-1.5-4.5-0.5c-2-0.1-4-0.2-6-0.3c-0.8-2-1.9-1.5-3.1-0.4
	c-24.8-1.6-49.3-5.2-73.6-10.1c-2.2-2.7-5.5-2-8.3-2.7c-20.6-5-41.1-10.5-59.9-20.5c-7.9-4.2-15.7-8.8-20.6-16.8
	c-1.3-2-2.2-4.2-2.8-6.5c-0.5-2.1-1.1,0-1.6-0.1C-129.8,203.2-129.8,200.9-129.8,198.7z"/>
<path style="fill:none;stroke:#000000;stroke-width:2;stroke-miterlimit:10;" d="M63,263.7c0.9,0.3,1.8,0.7,2.8,1
	c5.3,0,10.5,0,15.8,0c7.3,0.3,14.5,0.6,21.8,0.3c4.8,0.5,9.6,0.5,14.4,0c7.1,0,14.2,0,21.4-0.2c8.7-0.2,17.4-0.1,26.1-0.8
	c5.6-0.5,11.3-0.1,16.8-0.9c22.9-3.2,46.1-5.1,68.8-9.8c1.2-0.3,2.4-0.6,3.7-0.3c-11.4,7.4-24.2,11.2-37.2,14.1
	c-24.4,5.5-49.2,7.2-74.1,8.2c-24,1-48.1,0.8-72.1-0.2c-25.5-1-51-2.7-75.9-8.8c-11.4-2.8-22.2-6.9-31.9-13.6c0-0.3,0-0.5,0-0.8
	l0.2-0.1c24.3,4.9,48.9,8.5,73.6,10c1,0.1,2,0.3,3.1,0.4c2,0.1,4,0.2,6,0.3c1.5,0.6,3,0.5,4.5,0.5c0.5,0.1,1,0.2,1.5,0.2
	C55.7,264.9,59.4,263.3,63,263.7z"/>
<path style="fill:none;stroke:#000000;stroke-width:2;stroke-miterlimit:10;" d="M-36.8,252c0,0.3,0,0.5,0,0.8
	c-0.1-0.2-0.2-0.3-0.3-0.5C-37,252.2-36.9,252.1-36.8,252z"/>
<path style="fill:none;stroke:#000000;stroke-width:2;stroke-miterlimit:10;" d="M111.1,235.5c-11.1,0.7-24.5-0.2-37.9-0.9
	c-18.8-1.1-37.5-2.6-56.1-5.7c-14.4-2.4-28.8-5-42.6-9.7c-7.1-2.4-14.1-5.1-19.6-10.6c-6.1-6.1-5.5-12.9,1.6-18.1
	c8.5-6.1,18.2-9.4,28.1-12c17.4-4.6,35.1-7.4,53-9.2c13.7-1.4,27.3-2.4,41-3.1c21.9-1.2,43.8-1,65.7-0.4c22.6,0.7,45.3,2.7,67.7,6.4
	c15.5,2.6,30.9,5.5,45.7,11.1c5.4,2.1,10.5,4.8,15,8.5c5.4,4.4,5.8,11.1,0.8,16.1c-7.3,7.4-16.9,10.5-26.5,13.3
	c-17.5,5.1-35.5,7.9-53.6,10c-11.4,1.3-22.8,2.3-34.3,3C143.9,235.1,128.6,235.6,111.1,235.5z M100.3,231c9,0,18,0,27.1,0
	c20.4,0.1,40.7-1.4,61-3.5c19.9-2.1,39.6-5.1,58.9-10.8c7.7-2.3,15.4-4.8,21.6-10.1c5.4-4.6,5.2-8.6-0.6-12.8
	c-9.4-6.9-20.5-9.7-31.5-12.4c-17.5-4.3-35.3-6.7-53.2-8.5c-15.7-1.5-31.4-2.8-47.1-2.8c-15-1-30.1-0.9-45.1,0
	c-0.8,0-1.5-0.1-2.3-0.1c-22.5,0.5-44.9,2.3-67.2,5.4c-15.7,2.2-31.3,5.1-46.4,10.3c-6.3,2.2-12.5,4.6-17.5,9.1
	c-3.8,3.4-3.8,6.8-0.4,10.4c3.5,3.6,7.8,5.8,12.4,7.6c12.9,5.3,26.5,8.2,40.2,10.5c15,2.6,30.2,4.4,45.4,5.5
	C70.3,230.1,85.3,231.2,100.3,231z"/>
<path style="fill:none;stroke:#000000;stroke-width:2;stroke-miterlimit:10;" d="M81.5,264.7c-5.3,0-10.5,0-15.8,0
	c0.3-0.4,0.5-1.1,0.8-1.1c4.7-0.1,9.4-0.1,14.2,0C80.9,263.6,81.2,264.3,81.5,264.7z"/>
<path style="fill:none;stroke:#000000;stroke-width:2;stroke-miterlimit:10;" d="M117.7,265c-4.8,0.5-9.6,0.5-14.4,0
	C108.1,263.6,112.9,263.6,117.7,265z"/>
<path style="fill:none;stroke:#000000;stroke-width:2;stroke-miterlimit:10;" d="M63,263.7c-3.6-0.5-7.3,1.2-10.8-0.3
	C55.8,262.2,59.4,261.8,63,263.7z"/>
<path style="fill:none;stroke:#000000;stroke-width:2;stroke-miterlimit:10;" d="M50.7,263.2c-1.5,0.1-3.1,0.2-4.5-0.5
	C47.8,261.7,49.4,260.9,50.7,263.2z"/>
<path style="fill:none;stroke:#000000;stroke-width:2;stroke-miterlimit:10;" d="M40.1,262.4c-1-0.1-2-0.3-3.1-0.4
	C38.2,260.8,39.3,260.4,40.1,262.4z"/>
<path style="fill:none;stroke:#000000;stroke-width:2;stroke-miterlimit:10;" d="M136.4,170.1c15.8,0,31.4,1.3,47.1,2.8
	c17.9,1.7,35.7,4.2,53.2,8.5c11.1,2.7,22.1,5.5,31.5,12.4c5.7,4.2,5.9,8.2,0.6,12.8c-6.2,5.3-13.9,7.8-21.6,10.1
	c-19.2,5.7-38.9,8.8-58.9,10.8c-20.3,2.1-40.6,3.6-61,3.5c-0.6-0.8-1.5-0.7-2.4-0.7c-7.4,0-14.9,0-22.3,0c-0.9,0-1.8-0.1-2.4,0.7
	c-15,0.2-30-0.9-45-2c-15.2-1.1-30.3-2.9-45.4-5.5c-13.7-2.4-27.3-5.2-40.2-10.5c-4.5-1.9-8.9-4-12.4-7.6c-3.4-3.5-3.4-7,0.4-10.4
	c5-4.5,11.3-6.9,17.5-9.1c15.1-5.3,30.7-8.1,46.4-10.3c22.3-3.1,44.7-5,67.2-5.4c0.7,0,1.5,0,2.3,0.1c0.9,1.1,2,0.7,3.1,0.7
	c13,0,25.9,0,38.9,0C134.4,170.8,135.6,171.2,136.4,170.1z"/>
<path style="fill:none;stroke:#000000;stroke-width:2;stroke-miterlimit:10;" d="M136.4,170.1c-0.9,1.1-2,0.7-3.1,0.7
	c-13,0-25.9,0-38.9,0c-1.1,0-2.3,0.3-3.1-0.7C106.3,169.2,121.4,169.1,136.4,170.1z"/>
<path style="fill:none;stroke:#000000;stroke-width:2;stroke-miterlimit:10;" d="M100.3,231c0.6-0.8,1.5-0.7,2.4-0.7
	c7.4,0,14.9,0,22.3,0c0.9,0,1.8-0.1,2.4,0.7C118.4,231,109.3,231,100.3,231z"/>
<path style="fill:none;stroke:#000000;stroke-width:2;stroke-miterlimit:10;" d="M277,352.7c0.4,0,0.9,0,1-0.4
	c1.7-9.3,8.7-14,16-18.4c12.3-7.4,25.9-11.4,39.7-15.1c14.7-3.9,29.7-6.5,44.8-8.5c10.1-1.3,20.2-2.4,30.3-3.1
	c11.6-0.8,23.2-1.3,34.8-1.8c10.6-0.5,21.2-0.4,31.8-0.3c9,0.1,17.9,0.4,26.9,1.1c13.1,1,26.1,2.1,39.2,3.8
	c16.7,2.1,33.3,5,49.5,9.3c14.2,3.8,28.1,8.4,40.6,16.5c5.7,3.7,10.1,8.3,12.8,14.5c0,2.3,0,4.6,0,6.9c-1.9,2.2-2.4,5.4-4.6,7.5
	c-4.6,4.4-9.7,8-15.3,10.9c-15,7.6-31.1,12-47.5,15.5c-20.7,4.5-41.6,7.2-62.7,8.8c-13,1-26.1,1.8-39.1,2
	c-22.6,0.5-45.2-0.1-67.8-2.1c-8.6-0.7-17.3-1.5-25.9-2.6c-13.9-1.7-27.7-4.1-41.3-7.3c-16.7-4-33.1-8.6-47.9-17.6
	c-6.4-3.9-12.3-8.5-14.2-16.4c-0.1-0.6-0.4-1.1-1.2-0.9C277,354.2,277,353.4,277,352.7z M460.9,383.1c13.4,0.1,25-0.3,36.6-1.1
	c8.7-0.5,17.4-1.3,26.1-2.3c13.8-1.5,27.5-3.7,40.9-7.6c7.3-2.1,14.7-4.5,20.2-10.1c3.8-3.8,3.5-8.9-0.6-12.3
	c-3.4-2.8-7.3-4.9-11.4-6.5c-11.3-4.3-23-6.5-34.9-8.5c-17.1-2.8-34.4-4.4-51.7-4.9c-16.7-0.5-33.4-0.6-50.2,0.3
	c-10.5,0.6-20.9,1.3-31.3,2.4c-13.6,1.4-27.2,3.6-40.4,7c-7.6,2-15,4.5-21.5,9.2c-5.4,3.9-5.9,9.1-1.2,13.8c4.2,4.2,9.6,6.2,15,8.1
	c10.6,3.6,21.5,5.6,32.5,7.4c14.2,2.3,28.5,3.5,42.8,4.3C442.1,382.9,452.4,383.6,460.9,383.1z"/>
<path style="fill:none;stroke:#000000;stroke-width:2;stroke-miterlimit:10;" d="M277,355c0.7-0.1,1,0.3,1.2,0.9
	c1.8,8,7.8,12.5,14.2,16.4c14.8,9.1,31.2,13.7,47.9,17.6c13.6,3.2,27.4,5.6,41.3,7.3c8.6,1.1,17.2,1.8,25.9,2.6
	c22.6,1.9,45.2,2.5,67.8,2.1c13-0.3,26.1-1,39.1-2c21.1-1.6,42-4.3,62.7-8.8c16.3-3.5,32.5-7.9,47.5-15.5
	c5.7-2.9,10.8-6.5,15.3-10.9c-0.6,3.5-3.5,5.2-5.8,7.1c-6.7,5.4-14.7,8.8-22.6,12.1c-5.8,2.4-11.8,4.2-17.8,6.1
	c-3.9,1.3-8.1,2.3-12.2,3c-3,0.5-6,1.1-9,1.8c-0.9,0.2-2,0.3-2.1,1.6c-1-0.2-1.9,0-2.8,0.2c-17.4,3.6-35,5-52.5,7.5
	c-4.2,0.6-8.5,0.3-12.8,0.7c-6.6,0.5-13.3,0.5-19.9,0.6c-5.4,0.1-10.9,0.1-16.3,0.1c-3.7-1.1-7.3-1.1-11,0c-5.5,0.2-11.1,0-16.6-0.2
	c-0.2-0.3-0.4-0.8-0.6-0.8c-3.6,0-7.2,0-10.8,0c-0.2,0-0.4,0.6-0.6,0.9c-0.7-0.3-1.4-0.5-2.1-0.8c-2.7-1.5-5.5-1.1-8.3-0.2
	c-0.4-0.1-0.8-0.1-1.1-0.2c-1-1.8-2.2-1.2-3.5-0.4c-1.5-0.1-3-0.2-4.6-0.2c-0.6-1.5-1.4-1.2-2.3-0.3c-18.9-1.2-37.6-4-56.2-7.7
	c-1.7-2.1-4.2-1.5-6.4-2.1c-15.7-3.8-31.3-8.1-45.7-15.7c-6-3.2-12-6.7-15.7-12.8c-1-1.6-1.7-3.2-2.1-4.9c-0.4-1.6-0.8,0-1.2-0.1
	C277,358.4,277,356.7,277,355z"/>
<path style="fill:none;stroke:#000000;stroke-width:2;stroke-miterlimit:10;" d="M424.1,404.6c0.7,0.3,1.4,0.5,2.1,0.8c4,0,8,0,12,0
	c5.5,0.3,11.1,0.4,16.6,0.2c3.7,0.4,7.3,0.4,11,0c5.4,0,10.9,0,16.3-0.1c6.6-0.1,13.3-0.1,19.9-0.6c4.3-0.3,8.6-0.1,12.8-0.7
	c17.5-2.5,35.2-3.9,52.5-7.5c0.9-0.2,1.9-0.5,2.8-0.2c-8.7,5.6-18.4,8.5-28.4,10.8c-18.6,4.2-37.5,5.5-56.5,6.3
	c-18.3,0.7-36.7,0.6-55-0.1c-19.5-0.8-38.9-2-57.9-6.7c-8.7-2.1-16.9-5.2-24.3-10.4c0-0.2,0-0.4,0-0.6h0.2
	c18.6,3.7,37.3,6.5,56.2,7.7c0.8,0.1,1.6,0.2,2.3,0.3c1.5,0.1,3,0.2,4.6,0.2c1.1,0.5,2.3,0.4,3.5,0.4c0.4,0.1,0.8,0.1,1.1,0.2
	C418.6,405.5,421.4,404.2,424.1,404.6z"/>
<path style="fill:none;stroke:#000000;stroke-width:2;stroke-miterlimit:10;" d="M348,395.7c0,0.2,0,0.4,0,0.6
	c-0.1-0.1-0.2-0.3-0.2-0.4C347.8,395.8,347.9,395.7,348,395.7z"/>
<path style="fill:none;stroke:#000000;stroke-width:2;stroke-miterlimit:10;" d="M460.9,383.1c-8.5,0.5-18.7-0.1-28.9-0.7
	c-14.3-0.8-28.6-2-42.8-4.3c-11-1.8-21.9-3.8-32.5-7.4c-5.4-1.8-10.8-3.9-15-8.1c-4.7-4.7-4.2-9.9,1.2-13.8
	c6.5-4.7,13.9-7.2,21.5-9.2c13.3-3.5,26.8-5.6,40.4-7c10.4-1.1,20.8-1.8,31.3-2.4c16.7-0.9,33.5-0.8,50.2-0.3
	c17.3,0.5,34.5,2,51.7,4.9c11.9,2,23.6,4.2,34.9,8.5c4.1,1.6,8,3.7,11.4,6.5c4.1,3.4,4.4,8.5,0.6,12.3c-5.6,5.7-12.9,8-20.2,10.1
	c-13.4,3.9-27.1,6.1-40.9,7.6c-8.7,1-17.4,1.7-26.1,2.3C485.9,382.7,474.2,383.2,460.9,383.1z M452.6,379.6c6.9,0,13.8,0,20.7,0
	c15.6,0.1,31.1-1.1,46.5-2.7c15.2-1.6,30.3-3.9,44.9-8.3c5.9-1.7,11.7-3.6,16.5-7.7c4.1-3.5,4-6.6-0.4-9.8
	c-7.2-5.3-15.6-7.4-24.1-9.5c-13.4-3.3-26.9-5.1-40.6-6.5c-12-1.1-23.9-2.1-36-2.1c-11.5-0.8-23-0.7-34.4,0c-0.6,0-1.1-0.1-1.7-0.1
	c-17.2,0.4-34.3,1.8-51.3,4.2c-12,1.7-23.9,3.9-35.4,7.9c-4.8,1.7-9.5,3.5-13.4,7c-2.9,2.6-2.9,5.2-0.3,7.9c2.6,2.8,6,4.4,9.4,5.8
	c9.9,4,20.2,6.2,30.7,8c11.5,2,23,3.3,34.6,4.2C429.7,378.9,441.1,379.8,452.6,379.6z"/>
<path style="fill:none;stroke:#000000;stroke-width:2;stroke-miterlimit:10;" d="M438.2,405.3c-4,0-8,0-12,0
	c0.2-0.3,0.4-0.9,0.6-0.9c3.6-0.1,7.2-0.1,10.8,0C437.8,404.5,438,405,438.2,405.3z"/>
<path style="fill:none;stroke:#000000;stroke-width:2;stroke-miterlimit:10;" d="M465.9,405.6c-3.7,0.4-7.3,0.4-11,0
	C458.5,404.5,462.2,404.5,465.9,405.6z"/>
<path style="fill:none;stroke:#000000;stroke-width:2;stroke-miterlimit:10;" d="M424.1,404.6c-2.7-0.4-5.5,0.9-8.3-0.2
	C418.6,403.5,421.4,403.1,424.1,404.6z"/>
<path style="fill:none;stroke:#000000;stroke-width:2;stroke-miterlimit:10;" d="M414.7,404.2c-1.2,0-2.3,0.1-3.5-0.4
	C412.5,403,413.7,402.4,414.7,404.2z"/>
<path style="fill:none;stroke:#000000;stroke-width:2;stroke-miterlimit:10;" d="M406.7,403.6c-0.8-0.1-1.6-0.2-2.3-0.3
	C405.2,402.4,406.1,402.1,406.7,403.6z"/>
<path style="fill:none;stroke:#000000;stroke-width:2;stroke-miterlimit:10;" d="M480.2,333.2c12,0,24,1,36,2.1
	c13.7,1.3,27.3,3.2,40.6,6.5c8.4,2.1,16.9,4.2,24.1,9.5c4.4,3.2,4.5,6.3,0.4,9.8c-4.8,4.1-10.6,6-16.5,7.7
	c-14.7,4.4-29.7,6.7-44.9,8.3c-15.5,1.6-31,2.8-46.5,2.7c-0.5-0.6-1.1-0.6-1.8-0.6c-5.7,0-11.4,0-17,0c-0.7,0-1.3-0.1-1.8,0.6
	c-11.5,0.2-22.9-0.7-34.3-1.5c-11.6-0.9-23.2-2.2-34.6-4.2c-10.4-1.8-20.8-4-30.7-8c-3.5-1.4-6.8-3.1-9.4-5.8
	c-2.6-2.7-2.6-5.3,0.3-7.9c3.9-3.4,8.6-5.3,13.4-7c11.5-4,23.4-6.2,35.4-7.9c17-2.4,34.1-3.8,51.3-4.2c0.6,0,1.1,0,1.7,0.1
	c0.6,0.8,1.6,0.6,2.4,0.6c9.9,0,19.8,0,29.7,0C478.6,333.7,479.5,334,480.2,333.2z"/>
<path style="fill:none;stroke:#000000;stroke-width:2;stroke-miterlimit:10;" d="M480.2,333.2c-0.6,0.8-1.6,0.6-2.4,0.6
	c-9.9,0-19.8,0-29.7,0c-0.8,0-1.7,0.2-2.4-0.6C457.2,332.4,468.7,332.4,480.2,333.2z"/>
<path style="fill:none;stroke:#000000;stroke-width:2;stroke-miterlimit:10;" d="M452.6,379.6c0.5-0.6,1.1-0.6,1.8-0.6
	c5.7,0,11.4,0,17,0c0.7,0,1.3-0.1,1.8,0.6C466.4,379.6,459.5,379.6,452.6,379.6z"/>
<path style="fill:none;stroke:#000000;stroke-miterlimit:10;" d="M2,479.1c0.3,0,0.6,0,0.6-0.3c1.2-6.3,5.9-9.5,10.9-12.5
	c8.4-5,17.6-7.8,27-10.2c10-2.6,20.2-4.4,30.4-5.8c6.8-0.9,13.7-1.6,20.6-2.1c7.9-0.5,15.8-0.9,23.7-1.2c7.2-0.3,14.4-0.3,21.6-0.2
	c6.1,0.1,12.2,0.3,18.2,0.8c8.9,0.7,17.8,1.5,26.6,2.6c11.4,1.4,22.6,3.4,33.7,6.3c9.7,2.6,19.1,5.7,27.6,11.2
	c3.9,2.5,6.9,5.6,8.7,9.8c0,1.6,0,3.1,0,4.7c-1.3,1.5-1.7,3.6-3.1,5.1c-3.1,3-6.6,5.4-10.4,7.4c-10.2,5.2-21.2,8.1-32.3,10.5
	c-14,3-28.3,4.9-42.6,6c-8.9,0.7-17.7,1.2-26.6,1.4c-15.4,0.3-30.7-0.1-46.1-1.4c-5.9-0.5-11.7-1-17.6-1.8c-9.4-1.2-18.8-2.8-28.1-5
	c-11.3-2.7-22.5-5.8-32.5-12c-4.3-2.7-8.4-5.8-9.6-11.2c-0.1-0.4-0.3-0.7-0.8-0.6C2,480.1,2,479.6,2,479.1z M127,499.7
	c9.1,0.1,17-0.2,24.9-0.7c5.9-0.4,11.9-0.9,17.8-1.5c9.4-1,18.7-2.5,27.8-5.2c5-1.4,10-3,13.8-6.9c2.6-2.6,2.4-6-0.4-8.3
	c-2.3-1.9-4.9-3.3-7.8-4.4c-7.7-2.9-15.7-4.4-23.7-5.8c-11.6-1.9-23.4-3-35.1-3.3c-11.3-0.3-22.7-0.4-34.1,0.2
	c-7.1,0.4-14.2,0.9-21.3,1.6c-9.3,1-18.5,2.4-27.5,4.8c-5.2,1.4-10.2,3-14.6,6.2c-3.7,2.7-4,6.2-0.8,9.4c2.8,2.9,6.5,4.2,10.2,5.5
	c7.2,2.4,14.6,3.8,22.1,5c9.6,1.6,19.4,2.4,29.1,2.9C114.3,499.6,121.2,500.1,127,499.7z"/>
<path style="fill:none;stroke:#000000;stroke-miterlimit:10;" d="M2,480.6c0.5-0.1,0.7,0.2,0.8,0.6c1.2,5.4,5.3,8.5,9.6,11.2
	c10,6.2,21.2,9.3,32.5,12c9.3,2.2,18.6,3.8,28.1,5c5.8,0.7,11.7,1.3,17.6,1.8c15.3,1.3,30.7,1.7,46.1,1.4c8.9-0.2,17.7-0.7,26.6-1.4
	c14.3-1.1,28.6-2.9,42.6-6c11.1-2.4,22.1-5.3,32.3-10.5c3.8-2,7.3-4.4,10.4-7.4c-0.4,2.3-2.4,3.5-4,4.8c-4.6,3.7-10,6-15.3,8.2
	c-3.9,1.7-8,2.8-12.1,4.1c-2.7,0.9-5.5,1.6-8.3,2.1c-2.1,0.4-4.1,0.8-6.1,1.2c-0.6,0.1-1.3,0.2-1.4,1.1c-0.7-0.2-1.3,0-1.9,0.1
	c-11.8,2.4-23.8,3.4-35.7,5.1c-2.8,0.4-5.8,0.2-8.7,0.5c-4.5,0.4-9,0.3-13.5,0.4c-3.7,0.1-7.4,0.1-11.1,0.1c-2.5-0.7-5-0.7-7.5,0
	c-3.8,0.1-7.5,0-11.3-0.2c-0.1-0.2-0.3-0.6-0.4-0.6c-2.4,0-4.9,0-7.3,0c-0.1,0-0.3,0.4-0.4,0.6c-0.5-0.2-1-0.3-1.4-0.5
	c-1.8-1-3.7-0.8-5.6-0.2c-0.3,0-0.5-0.1-0.8-0.1c-0.7-1.2-1.5-0.8-2.4-0.2c-1-0.1-2.1-0.1-3.1-0.2c-0.4-1-1-0.8-1.6-0.2
	c-12.9-0.8-25.6-2.7-38.2-5.2c-1.1-1.4-2.9-1-4.3-1.4c-10.7-2.6-21.3-5.5-31.1-10.6C11,494,7,491.6,4.4,487.5
	c-0.7-1.1-1.2-2.2-1.5-3.3c-0.3-1.1-0.5,0-0.8,0C2,483,2,481.8,2,480.6z"/>
<path style="fill:none;stroke:#000000;stroke-miterlimit:10;" d="M102,514.4c0.5,0.2,1,0.3,1.4,0.5c2.7,0,5.4,0,8.2,0
	c3.8,0.2,7.5,0.3,11.3,0.2c2.5,0.2,5,0.2,7.5,0c3.7,0,7.4,0,11.1-0.1c4.5-0.1,9-0.1,13.5-0.4c2.9-0.2,5.9-0.1,8.7-0.5
	c11.9-1.7,23.9-2.7,35.7-5.1c0.6-0.1,1.3-0.3,1.9-0.1c-5.9,3.8-12.5,5.8-19.3,7.3c-12.6,2.9-25.5,3.8-38.4,4.3
	c-12.5,0.5-24.9,0.4-37.4-0.1c-13.2-0.5-26.4-1.4-39.4-4.6c-5.9-1.5-11.5-3.6-16.5-7c0-0.1,0-0.3,0-0.4h0.1
	c12.6,2.5,25.3,4.4,38.2,5.2c0.5,0.1,1.1,0.1,1.6,0.2c1,0.1,2.1,0.1,3.1,0.2c0.8,0.3,1.6,0.3,2.4,0.2c0.3,0,0.5,0.1,0.8,0.1
	C98.2,515,100.1,514.1,102,514.4z"/>
<path style="fill:none;stroke:#000000;stroke-miterlimit:10;" d="M50.3,508.3c0,0.1,0,0.3,0,0.4c0-0.1-0.1-0.2-0.1-0.3
	C50.1,508.4,50.2,508.3,50.3,508.3z"/>
<path style="fill:none;stroke:#000000;stroke-miterlimit:10;" d="M127,499.7c-5.8,0.4-12.7-0.1-19.6-0.5c-9.7-0.5-19.5-1.4-29.1-2.9
	c-7.5-1.2-14.9-2.6-22.1-5c-3.7-1.3-7.3-2.6-10.2-5.5c-3.2-3.2-2.9-6.7,0.8-9.4c4.4-3.2,9.4-4.9,14.6-6.2c9-2.4,18.2-3.8,27.5-4.8
	c7.1-0.7,14.2-1.2,21.3-1.6c11.4-0.6,22.7-0.5,34.1-0.2c11.7,0.3,23.5,1.4,35.1,3.3c8.1,1.3,16,2.8,23.7,5.8
	c2.8,1.1,5.4,2.5,7.8,4.4c2.8,2.3,3,5.7,0.4,8.3c-3.8,3.8-8.8,5.4-13.8,6.9c-9.1,2.6-18.4,4.1-27.8,5.2c-5.9,0.7-11.8,1.2-17.8,1.5
	C144,499.5,136.1,499.8,127,499.7z M121.4,497.4c4.7,0,9.4,0,14,0c10.6,0.1,21.1-0.7,31.6-1.8c10.3-1.1,20.6-2.6,30.5-5.6
	c4-1.2,8-2.5,11.2-5.2c2.8-2.4,2.7-4.5-0.3-6.6c-4.9-3.6-10.6-5-16.3-6.5c-9.1-2.2-18.3-3.5-27.6-4.4c-8.1-0.8-16.3-1.4-24.4-1.5
	c-7.8-0.5-15.6-0.5-23.4,0c-0.4,0-0.8,0-1.2,0c-11.7,0.3-23.3,1.2-34.9,2.8c-8.2,1.1-16.3,2.6-24.1,5.4c-3.3,1.1-6.5,2.4-9.1,4.7
	c-2,1.8-2,3.5-0.2,5.4s4.1,3,6.4,4c6.7,2.7,13.7,4.2,20.8,5.5c7.8,1.4,15.6,2.3,23.5,2.9C105.8,496.9,113.6,497.5,121.4,497.4z"/>
<path style="fill:none;stroke:#000000;stroke-miterlimit:10;" d="M111.6,514.9c-2.7,0-5.4,0-8.2,0c0.1-0.2,0.3-0.6,0.4-0.6
	c2.4,0,4.9,0,7.3,0C111.3,514.3,111.5,514.7,111.6,514.9z"/>
<path style="fill:none;stroke:#000000;stroke-miterlimit:10;" d="M130.4,515c-2.5,0.2-5,0.2-7.5,0
	C125.4,514.3,127.9,514.3,130.4,515z"/>
<path style="fill:none;stroke:#000000;stroke-miterlimit:10;" d="M102,514.4c-1.9-0.2-3.8,0.6-5.6-0.2
	C98.3,513.6,100.2,513.3,102,514.4z"/>
<path style="fill:none;stroke:#000000;stroke-miterlimit:10;" d="M95.6,514.1c-0.8,0-1.6,0.1-2.4-0.2
	C94.1,513.3,94.9,512.9,95.6,514.1z"/>
<path style="fill:none;stroke:#000000;stroke-miterlimit:10;" d="M90.2,513.7c-0.5-0.1-1.1-0.1-1.6-0.2
	C89.2,512.9,89.7,512.7,90.2,513.7z"/>
<path style="fill:none;stroke:#000000;stroke-miterlimit:10;" d="M140.1,465.8c8.2,0,16.3,0.7,24.4,1.5c9.3,0.9,18.5,2.2,27.6,4.4
	c5.7,1.4,11.5,2.9,16.3,6.5c3,2.2,3.1,4.3,0.3,6.6c-3.2,2.8-7.2,4-11.2,5.2c-10,3-20.2,4.5-30.5,5.6c-10.5,1.1-21,1.9-31.6,1.8
	c-0.3-0.4-0.8-0.4-1.2-0.4c-3.9,0-7.7,0-11.6,0c-0.4,0-0.9,0-1.2,0.4c-7.8,0.1-15.6-0.5-23.3-1c-7.9-0.6-15.7-1.5-23.5-2.9
	c-7.1-1.2-14.1-2.7-20.8-5.5c-2.4-1-4.6-2.1-6.4-4c-1.8-1.8-1.7-3.6,0.2-5.4c2.6-2.3,5.8-3.6,9.1-4.7c7.8-2.7,15.9-4.2,24.1-5.4
	c11.6-1.6,23.2-2.6,34.9-2.8c0.4,0,0.8,0,1.2,0c0.4,0.5,1.1,0.4,1.6,0.4c6.7,0,13.4,0,20.2,0C139,466.2,139.6,466.4,140.1,465.8z"/>
<path style="fill:none;stroke:#000000;stroke-miterlimit:10;" d="M140.1,465.8c-0.4,0.5-1.1,0.4-1.6,0.4c-6.7,0-13.4,0-20.2,0
	c-0.6,0-1.2,0.2-1.6-0.4C124.5,465.3,132.3,465.3,140.1,465.8z"/>
<path style="fill:none;stroke:#000000;stroke-miterlimit:10;" d="M121.4,497.4c0.3-0.4,0.8-0.4,1.2-0.4c3.9,0,7.7,0,11.6,0
	c0.4,0,0.9,0,1.2,0.4C130.7,497.4,126,497.4,121.4,497.4z"/>
<path style="fill:none;stroke:#000000;stroke-width:0.75;stroke-miterlimit:10;" d="M277,596.9c0.2,0,0.5,0,0.6-0.3
	c1.1-5.7,5.4-8.7,9.9-11.3c7.6-4.5,16-7.1,24.5-9.3c9.1-2.4,18.4-4,27.7-5.2c6.2-0.8,12.5-1.5,18.8-1.9c7.2-0.5,14.3-0.8,21.5-1.1
	c6.6-0.3,13.1-0.2,19.6-0.2c5.5,0.1,11.1,0.3,16.6,0.7c8.1,0.6,16.2,1.3,24.2,2.4c10.3,1.3,20.6,3.1,30.6,5.8
	c8.8,2.3,17.4,5.2,25.1,10.2c3.5,2.3,6.2,5.1,7.9,9c0,1.4,0,2.8,0,4.3c-1.2,1.4-1.5,3.3-2.8,4.6c-2.8,2.7-6,4.9-9.5,6.7
	c-9.3,4.7-19.2,7.4-29.3,9.6c-12.8,2.8-25.7,4.4-38.8,5.4c-8,0.6-16.1,1.1-24.2,1.3c-14,0.3-27.9-0.1-41.9-1.3
	c-5.3-0.5-10.7-0.9-16-1.6c-8.6-1.1-17.1-2.5-25.5-4.5c-10.3-2.4-20.5-5.3-29.6-10.9c-3.9-2.4-7.6-5.2-8.8-10.2
	c-0.1-0.4-0.3-0.7-0.7-0.6C277,597.8,277,597.3,277,596.9z M390.6,615.7c8.3,0.1,15.5-0.2,22.6-0.7c5.4-0.3,10.8-0.8,16.2-1.4
	c8.5-1,17-2.3,25.3-4.7c4.5-1.3,9.1-2.8,12.5-6.3c2.3-2.4,2.2-5.5-0.4-7.6c-2.1-1.7-4.5-3-7.1-4c-7-2.6-14.2-4-21.6-5.2
	c-10.6-1.8-21.2-2.7-31.9-3c-10.3-0.3-20.7-0.4-31,0.2c-6.5,0.3-12.9,0.8-19.4,1.5c-8.4,0.9-16.8,2.2-25,4.4
	c-4.7,1.2-9.3,2.8-13.3,5.7c-3.3,2.4-3.6,5.6-0.7,8.5c2.6,2.6,5.9,3.9,9.3,5c6.5,2.2,13.3,3.5,20.1,4.6c8.8,1.4,17.6,2.2,26.5,2.7
	C379,615.6,385.4,616,390.6,615.7z"/>
<path style="fill:none;stroke:#000000;stroke-width:0.75;stroke-miterlimit:10;" d="M277,598.3c0.5-0.1,0.6,0.2,0.7,0.6
	c1.1,4.9,4.8,7.7,8.8,10.2c9.1,5.6,19.3,8.4,29.6,10.9c8.4,2,16.9,3.4,25.5,4.5c5.3,0.7,10.6,1.1,16,1.6c13.9,1.2,27.9,1.6,41.9,1.3
	c8.1-0.2,16.1-0.6,24.2-1.3c13-1,26-2.7,38.8-5.4c10.1-2.2,20.1-4.9,29.3-9.6c3.5-1.8,6.7-4,9.5-6.7c-0.4,2.1-2.2,3.2-3.6,4.4
	c-4.2,3.3-9.1,5.4-14,7.5c-3.6,1.5-7.3,2.6-11,3.7c-2.4,0.8-5,1.4-7.6,1.9c-1.9,0.3-3.7,0.7-5.6,1.1c-0.5,0.1-1.2,0.2-1.3,1
	c-0.6-0.2-1.2,0-1.7,0.1c-10.7,2.2-21.6,3.1-32.5,4.6c-2.6,0.4-5.3,0.2-7.9,0.4c-4.1,0.3-8.2,0.3-12.3,0.4
	c-3.4,0.1-6.7,0.1-10.1,0.1c-2.3-0.7-4.5-0.7-6.8,0c-3.4,0.1-6.8,0-10.3-0.1c-0.1-0.2-0.3-0.5-0.4-0.5c-2.2,0-4.5,0-6.7,0
	c-0.1,0-0.2,0.3-0.4,0.5c-0.4-0.2-0.9-0.3-1.3-0.5c-1.7-0.9-3.4-0.7-5.1-0.1c-0.2,0-0.5-0.1-0.7-0.1c-0.6-1.1-1.4-0.7-2.1-0.2
	c-0.9,0-1.9-0.1-2.8-0.1c-0.4-0.9-0.9-0.7-1.4-0.2c-11.7-0.7-23.3-2.5-34.7-4.7c-1-1.3-2.6-1-3.9-1.3c-9.7-2.4-19.4-5-28.3-9.7
	c-3.7-2-7.4-4.1-9.7-7.9c-0.6-1-1.1-2-1.3-3c-0.2-1-0.5,0-0.7,0C277,600.4,277,599.4,277,598.3z"/>
<path style="fill:none;stroke:#000000;stroke-width:0.75;stroke-miterlimit:10;" d="M367.9,629c0.4,0.2,0.9,0.3,1.3,0.5
	c2.5,0,5,0,7.4,0c3.4,0.2,6.8,0.3,10.3,0.1c2.3,0.2,4.5,0.2,6.8,0c3.4,0,6.7,0,10.1-0.1c4.1-0.1,8.2-0.1,12.3-0.4
	c2.6-0.2,5.3-0.1,7.9-0.4c10.8-1.5,21.7-2.4,32.5-4.6c0.6-0.1,1.1-0.3,1.7-0.1c-5.4,3.5-11.4,5.3-17.6,6.7
	c-11.5,2.6-23.2,3.4-34.9,3.9c-11.3,0.5-22.7,0.4-34-0.1c-12-0.5-24-1.3-35.8-4.2c-5.4-1.3-10.5-3.2-15-6.4c0-0.1,0-0.2,0-0.4h0.1
	c11.5,2.3,23,4,34.7,4.7c0.5,0.1,1,0.1,1.4,0.2c0.9,0,1.9,0.1,2.8,0.1c0.7,0.3,1.4,0.3,2.1,0.2c0.2,0,0.5,0.1,0.7,0.1
	C364.5,629.5,366.2,628.7,367.9,629z"/>
<path style="fill:none;stroke:#000000;stroke-width:0.75;stroke-miterlimit:10;" d="M320.8,623.4c0,0.1,0,0.2,0,0.4
	c0-0.1-0.1-0.2-0.1-0.3C320.7,623.5,320.8,623.5,320.8,623.4z"/>
<path style="fill:none;stroke:#000000;stroke-width:0.75;stroke-miterlimit:10;" d="M390.6,615.7c-5.2,0.3-11.6-0.1-17.9-0.4
	c-8.9-0.5-17.7-1.2-26.5-2.7c-6.8-1.1-13.6-2.4-20.1-4.6c-3.3-1.1-6.7-2.4-9.3-5c-2.9-2.9-2.6-6.1,0.7-8.5c4-2.9,8.6-4.4,13.3-5.7
	c8.2-2.2,16.5-3.5,25-4.4c6.4-0.7,12.9-1.1,19.4-1.5c10.3-0.6,20.7-0.5,31-0.2c10.7,0.3,21.3,1.3,31.9,3c7.3,1.2,14.6,2.6,21.6,5.2
	c2.6,1,4.9,2.3,7.1,4c2.6,2.1,2.7,5.2,0.4,7.6c-3.5,3.5-8,5-12.5,6.3c-8.3,2.4-16.7,3.7-25.3,4.7c-5.4,0.6-10.8,1.1-16.2,1.4
	C406.1,615.5,398.9,615.7,390.6,615.7z M385.5,613.5c4.3,0,8.5,0,12.8,0c9.6,0.1,19.2-0.7,28.8-1.7c9.4-1,18.7-2.4,27.8-5.1
	c3.6-1.1,7.2-2.2,10.2-4.8c2.5-2.2,2.4-4.1-0.3-6c-4.4-3.3-9.7-4.6-14.9-5.9c-8.3-2-16.6-3.2-25.1-4c-7.4-0.7-14.8-1.3-22.2-1.3
	c-7.1-0.5-14.2-0.4-21.3,0c-0.4,0-0.7,0-1.1,0c-10.6,0.2-21.2,1.1-31.7,2.6c-7.4,1-14.8,2.4-21.9,4.9c-3,1-5.9,2.2-8.3,4.3
	c-1.8,1.6-1.8,3.2-0.2,4.9c1.6,1.7,3.7,2.7,5.8,3.6c6.1,2.5,12.5,3.8,19,5c7.1,1.2,14.2,2.1,21.4,2.6
	C371.4,613.1,378.4,613.7,385.5,613.5z"/>
<path style="fill:none;stroke:#000000;stroke-width:0.75;stroke-miterlimit:10;" d="M376.6,629.4c-2.5,0-5,0-7.4,0
	c0.1-0.2,0.2-0.5,0.4-0.5c2.2,0,4.5,0,6.7,0C376.4,628.9,376.5,629.2,376.6,629.4z"/>
<path style="fill:none;stroke:#000000;stroke-width:0.75;stroke-miterlimit:10;" d="M393.7,629.6c-2.3,0.2-4.5,0.2-6.8,0
	C389.2,628.9,391.4,628.9,393.7,629.6z"/>
<path style="fill:none;stroke:#000000;stroke-width:0.75;stroke-miterlimit:10;" d="M367.9,629c-1.7-0.2-3.4,0.5-5.1-0.1
	C364.5,628.3,366.2,628,367.9,629z"/>
<path style="fill:none;stroke:#000000;stroke-width:0.75;stroke-miterlimit:10;" d="M362.1,628.7c-0.7,0-1.5,0.1-2.1-0.2
	C360.7,628,361.5,627.6,362.1,628.7z"/>
<path style="fill:none;stroke:#000000;stroke-width:0.75;stroke-miterlimit:10;" d="M357.1,628.3c-0.5-0.1-1-0.1-1.4-0.2
	C356.2,627.6,356.8,627.4,357.1,628.3z"/>
<path style="fill:none;stroke:#000000;stroke-width:0.75;stroke-miterlimit:10;" d="M402.5,584.8c7.4,0,14.8,0.6,22.2,1.3
	c8.5,0.8,16.8,2,25.1,4c5.2,1.3,10.4,2.6,14.9,5.9c2.7,2,2.8,3.9,0.3,6c-2.9,2.5-6.6,3.7-10.2,4.8c-9.1,2.7-18.4,4.1-27.8,5.1
	c-9.6,1-19.1,1.7-28.8,1.7c-0.3-0.4-0.7-0.4-1.1-0.4c-3.5,0-7,0-10.5,0c-0.4,0-0.8,0-1.1,0.4c-7.1,0.1-14.1-0.4-21.2-1
	c-7.2-0.5-14.3-1.4-21.4-2.6c-6.5-1.1-12.9-2.5-19-5c-2.1-0.9-4.2-1.9-5.8-3.6c-1.6-1.7-1.6-3.3,0.2-4.9c2.4-2.1,5.3-3.3,8.3-4.3
	c7.1-2.5,14.5-3.8,21.9-4.9c10.5-1.5,21.1-2.3,31.7-2.6c0.4,0,0.7,0,1.1,0c0.4,0.5,1,0.3,1.5,0.3c6.1,0,12.2,0,18.3,0
	C401.6,585.2,402.1,585.3,402.5,584.8z"/>
<path style="fill:none;stroke:#000000;stroke-width:0.75;stroke-miterlimit:10;" d="M402.5,584.8c-0.4,0.5-1,0.3-1.5,0.3
	c-6.1,0-12.2,0-18.3,0c-0.5,0-1.1,0.1-1.5-0.3C388.4,584.4,395.4,584.3,402.5,584.8z"/>
<path style="fill:none;stroke:#000000;stroke-width:0.75;stroke-miterlimit:10;" d="M385.5,613.5c0.3-0.4,0.7-0.4,1.1-0.4
	c3.5,0,7,0,10.5,0c0.4,0,0.8,0,1.1,0.4C394,613.5,389.8,613.5,385.5,613.5z"/>
</svg>
