<?xml version="1.0" encoding="utf-8"?>
<!-- Generator: Adobe Illustrator 22.1.0, SVG Export Plug-In . SVG Version: 6.00 Build 0)  -->
<svg version="1.1" id="Layer_1" xmlns="http://www.w3.org/2000/svg" xmlns:xlink="http://www.w3.org/1999/xlink" x="0px" y="0px"
	 viewBox="0 0 612 792" style="enable-background:new 0 0 612 792;" xml:space="preserve">
<path style="fill:none;stroke:#000000;stroke-width:3;stroke-miterlimit:10;" d="M531,515.1c11.4,0.5,22.7,1.7,34.1,2.8
	c11.8,1.1,23.7,1.8,35.2,4.3c9,1.9,18.9,1.7,26.7,7.8c0,0.7,0,1.3,0,2c-2.5,2-5.3,3.3-8.4,4.1c-5.4,1.5-11,2.3-16.5,3.4
	c-14.3,2.9-28.8,4.1-43.3,5.4c-10.2,0.9-20.5,1.7-30.7,2.4c-13.7,0.9-27.5,1.7-41.2,2.5c-5-1.1-10-2-14.9,0.5
	c-2.6,1.1-5.4,0.6-8.1,0.5c-6.7-1.8-13.4-0.8-20.1-0.5c-0.3,0-0.5,0.8-0.7,1.2c-2.1,0.1-4.1,0.1-6.2,0.2c-9-1.8-18-0.7-27.1-0.5
	c-0.3,0-0.5,0.8-0.7,1.2c-3.1,0.6-6.1,0.5-9.2,0.3c-0.7-0.3-1.5-0.8-2.2-0.8c-11.9,0-23.8,0-35.6,0c-1.2,0-2.3-0.1-3,1.2
	c-1.2,0.9-2.6,0.6-3.8,0.6c-32.1,0-64.2,0-96.4,0c-1.3,0-2.7,0.3-3.8-0.6c-1.3-2-3.3-1.2-5-1.2c-10.1-0.1-20.1-0.1-30.2,0
	c-1.9,0-4-0.7-5.7,0.8c-3.1,0.2-6.1,0.4-9.2-0.3c-0.2-0.4-0.5-1.2-0.7-1.2c-9-0.2-18.1-1.3-27.1,0.5c-2.1-0.1-4.1-0.1-6.2-0.2
	c-0.2-0.4-0.5-1.2-0.7-1.2c-6.7-0.3-13.5-1.3-20.1,0.5c-2.7,0-5.5,0.5-8.1-0.5c-4.9-2.5-9.9-1.6-14.9-0.5
	c-11.3-0.6-22.5-1.2-33.8-1.9c-10.6-0.6-21.2-1.1-31.8-2.2c-18.1-1.8-36.2-3.3-54.1-6.9c-7.1-1.4-14.5-2.1-20.4-6.9c0-0.7,0-1.3,0-2
	c3.8-3.9,9-3.7,13.7-5c5.5-1.5,11-3.5,16.6-3.4c6.6,0.1,12.8-1.7,19.3-2.2c6.4-0.4,13-1,19.4-2.5c-1.1,5.8,1.9,7.6,7.1,7.1
	c0.2,0,0.3,0,0.5,0c3.1,0,6.9,2.4,9,0.3c2.1-2.1-0.9-5.8-0.7-8.9c6,0,12,0.6,17.9-1.3c2.7-0.8,5.4,1.8,8.2,0.6
	c4.3-1.7,8.5-2.2,13-0.9c1.8,0.5,3.9,0.3,5.9-0.4c3.6-1.3,7.4-1.7,11.2-1.3c5,1.1,10,2,14.9-0.5c1.6-1,3.6-0.9,5.2-0.6
	c2.7,0.5,5.3,1.5,7.9,0c1.9,3.4,0.6,7.1,0.9,10.6c0.1,1.5,0,3,2.1,3.2c3,0.3,5.9,0.7,8.8,1.1c2.5,0.4,3.2-0.7,2.9-3.1
	c-0.4-4.3-0.7-8.6-1-12.8c3,0,6.1,0,9.1,0c8.3,1.8,16.7,0.7,25.1,0.5c0.3,0,0.5-0.8,0.8-1.2c4-0.7,8.1-0.5,12.2-0.3
	c5.5,1.8,11.2,0.4,16.9,0.9c0.1,2,0.1,4,0.2,5.9c0,8.4,0,8.3,8.3,7.4c3-0.3,3.9-1.2,3.7-4.2c-0.2-3.1,0-6.3,0.1-9.4
	c31.5-3.3,63.2-1.2,94.8-1.8c0,4.7-1.6,10.1,0.3,13.8c2.2,4.1,8.5,1.8,12.9,3.1c0.2,0,0.3,0,0.5,0c2.5,0.3,3.7,0,2.9-3.1
	c-1-3.8-1.4-7.8-2.1-11.8c12.1,0,24.2,0,36.3-0.1c1.8,0,3.7,0.6,5.2-0.8c4.1-0.2,8.1-0.4,12.2,0.3c0.3,0.4,0.5,1.2,0.8,1.2
	c8.4,0.2,16.7,1.3,25.1-0.5c2.3,0,4.6-0.1,6.9-0.1c0,2,0.1,4,0.1,5.9c0,9.4,0,9.3,9.7,10.1c3.4,0.3,4.4-0.5,3.6-4
	c-0.7-3.3-0.7-6.8-1.1-10.2c5.6-0.8,11.2-1.5,16.8-0.1c4.9,2.4,9.9,1.5,14.9,0.5c7.2,1,14.5,0.8,21.8,0.9c1.1,0,2.3-0.2,3.3,0.7
	c2.2,1.8,4.6,1.2,7,0.4c0.3,1.1,0.8,2.1,0.8,3.2c0.5,8.1,0.5,8,8.5,6c2.1-0.5,2.7-1.1,2.6-3.1C529.9,518.5,529.7,516.6,531,515.1z"
	/>
<path style="fill:none;stroke:#000000;stroke-width:3;stroke-miterlimit:10;" d="M100.8,350.1c-1,0.6-1.9,1.3-2.8,2
	c-0.3,0-0.6-0.1-0.9-0.1c-9.3,5-19.1,8.5-29.9,8.1c-0.8-25.7,5.2-50.6,10.7-76.9c-2.3,2.4-2.5,4.1-3,5.6c-3,9.8-6,19.7-9,29.5
	c-1.1,3.6-2.4,4.9-6.2,2.2c-5.5-3.9-11.5-7.2-17.3-10.9c-1.6-1-3.1-2.1-5.7-1.6c7.1,6.5,14,12.8,20.7,19.1c1.3,1.2,2.8,2.2,2.7,4.5
	c-0.3,7.5-0.3,15-0.5,22.5c-1.5,0.4-1.8,1.5-1.6,2.7c0.5,3.7-1.3,4.6-4.6,4.3c-20.6-2.2-38.5-9.4-51.5-26.5
	c-13.1-17.2-12.1-41.7,2.8-57.7c18-19.3,40.6-25,66.2-22c16.4,1.9,30.6,8.4,42.3,20c2.7,2.7,5,5.7,6.7,9.2c0.3,0,0.7,0.1,1,0.1
	c2.6,6.8,5.8,13.4,6,20.9C127.5,325.3,117.2,339.5,100.8,350.1z"/>
<path style="fill:none;stroke:#000000;stroke-width:3;stroke-miterlimit:10;" d="M412.2,329c-1.8,9.5-7,16.9-13.3,23.8
	c-13.9,11.3-29.8,16.5-47.7,16.2c-0.4-27.9,3.8-55.3,9.8-82.6c-1.3,1.4-1.8,2.9-2.2,4.4c-2.9,9.3-5.9,18.7-8.7,28.1
	c-0.9,3.1-2.1,3.9-5.2,1.9c-7.7-5-15.5-9.6-23.3-14.4c-0.5-0.3-1-0.7-1.5,0c-0.1,0.1,0.5,0.5,0.8,0.8c7,6.6,14,13.2,21,19.7
	c1.7,1.6,3.1,3.1,3,5.9c-0.5,11.8-0.7,23.6-1,35.3c-4.8-0.2-9.3-1.5-13.8-3.1v-0.1c-20.6-6-36.2-23.9-36.1-43.9
	c0-3.5,0.8-6.9,2-10.1c0-0.3-0.1-0.6-0.1-0.9c8.9-21.5,26.2-31.2,48.2-34.2c20.4-2.8,38.5,2.2,54.3,15.4c1.6,1.4,3.1,3,4.6,4.5
	c0.4,0.7,0.9,1.4,1.4,2.1C411.1,307.2,414.4,317.3,412.2,329z"/>
<path style="fill:none;stroke:#000000;stroke-width:3;stroke-miterlimit:10;" d="M613.3,375c-9.5,12.2-21.4,21.1-37.4,22.8
	c-6.3-1.3-12.5-1.3-18.8,0c-9.3-1-17.5-5-25.3-10c-1-4.5,1.1-7.1,4.9-9.5c12.6-7.9,24.9-16.2,37.3-24.3c0.2-0.2,0.4-0.5,0.6-0.7
	c-0.3,0.1-0.6,0.3-0.9,0.4c-14.1,5.7-28.1,11.4-42.7,17.4V343c23.6-3.7,41.3-20.2,45.9-43.1c0.3-1.6,0.9-2.7,2-3.8
	c22.6,5.3,37.6,18.4,42.4,41.5C624.1,351,621.8,364.1,613.3,375z"/>
<path style="fill:none;stroke:#000000;stroke-width:3;stroke-miterlimit:10;" d="M578.9,296.1c-1.1,1-1.7,2.1-2,3.8
	c-4.7,22.9-22.3,39.4-45.9,43.1c-0.1-6.1,0-12.3-0.4-18.4c-0.2-3.6,1.1-5.5,4.1-7c2.8-1.4,5.3-3.2,8.9-5.4c-3.7-0.2-6.1,0.8-8.4,1.8
	c-3.8,1.7-5.8,0.8-5.9-3.5c0-0.8-0.1-1.7-0.1-2.5c-1.2-8.5-2.4-17-3.6-25.6c-0.8,10.2-0.6,20.5-1.6,30.7c0,1.3-0.1,2.7,0.1,4
	c0.6,4.9-1.6,5.2-5.3,3.3c-0.8,0-1.5,0-2.3-0.1c0.2,0.5,0.4,1.1,0.6,1.6c5.5,2.5,7.7,6.7,6.7,12.7c-0.5,3.1-0.5,6.3-0.8,9.4
	c-3.3-0.2-7.1-1.6-9.7-0.4c-3.3,1.5-0.1,6.1-1.8,9c-0.1,0.1-0.2,0.2-0.4,0.3c-0.1-3.3-0.2-6.6-0.3-9.8c-2.7-0.8-5.3-1.7-8-2.5
	c0.4-4.1,1.2-8.2,1.1-12.3c-0.3-20.9-10.1-36.2-28.2-46.3c-3.3-1.8-7.2-2.9-6.6-7.9c5.2-13.6,14.7-23.5,28-28.8
	c8.9-3.5,18.3-6.3,28.3-5.4c22,2,44.8,14.2,51.1,41.8c1,4.3,1.5,8.8,0.6,13.3C577.7,295.4,578.3,295.8,578.9,296.1z"/>
<path style="fill:none;stroke:#000000;stroke-width:3;stroke-miterlimit:10;" d="M518.8,320.3L518.8,320.3c-0.8,0-1.5,0-2.3-0.1
	C517.3,320.3,518,320.3,518.8,320.3z"/>
<path style="fill:none;stroke:#000000;stroke-width:3;stroke-miterlimit:10;" d="M197.2,321.4c-14,4.7-28,9.4-42,14.2
	c-2.1,0.7-3,0.4-3.5-1.9c-0.8-3.6-1.8-7.1-2.9-10.6c-1.7-5-2.2-10.4-5.3-15c1.5,15.3,3,30.5,4.5,45.9c-4.7,0.3-8.3-2.9-13.1-1.9
	c2,1.3,3.5,2.7,5.3,3.4c7.2,3,9.8,8.6,9.7,16.1c-0.1,3.5,0.5,7,0.8,10.4c-2.6-0.4-5.3-0.6-7.8-1.1C124.2,377,108.4,368.7,98,352
	c0.9-0.7,1.9-1.3,2.8-2c16.4-10.6,26.7-24.8,26.2-45.1c-0.2-7.5-3.4-14.1-6-20.9c22.2-10.7,44.8-11.9,67.9-3.3v0.3
	c-1.5,1.8-2.5,4-2.8,6.3C184.4,300.4,186.5,312.3,197.2,321.4z"/>
<path style="fill:none;stroke:#000000;stroke-width:3;stroke-miterlimit:10;" d="M330.1,365L330.1,365c-0.3,1.7-0.5,3.3-0.9,4.9
	c-5.6,18.5-18.9,29.3-36.1,36.3c-14.9,6-30.3,5.8-45.9,3.9c-0.1-7,0.3-14-0.3-20.9c-0.5-5.5,1.5-8.6,6.2-11.4
	c12.2-7.3,24-15.3,35.9-23c-0.2-0.3-0.3-0.6-0.4-0.9c-11.5,4.7-23.1,9.4-34.6,14.1c-2.2-1.4-3.1-0.2-3.8,1.7c-0.3,0.1-0.6,0.2-1,0.3
	c-1-2.3-1.3-4.7-1.3-7.2c0.1-8.2,0-16.5,0-24.7c6.1-0.2,11.8-1.9,17.2-4.3c11.6-5.1,21-12.6,25.9-24.8c1.6,0.4,3.3,0.7,4.9,1.1
	c0,0.3,0.1,0.6,0.1,0.9c-1.3,3.2-2,6.6-2,10.1C293.9,341,309.5,358.9,330.1,365z"/>
<path style="fill:none;stroke:#000000;stroke-width:3;stroke-miterlimit:10;" d="M291.1,308c0,0.3,0,0.6,0,0.9
	c-4.9,12.1-14.3,19.7-25.9,24.8c-5.5,2.4-11.2,4.2-17.2,4.3c-0.6,0-1.1,0-1.7,0c-0.1-5.1,0-10.2-0.2-15.3c-0.1-2.2,1-3.2,2.6-4.2
	c3.1-1.9,6.5-3.4,9.9-6.8c-3.6,0.9-6.1,1.5-8.6,2.2c-1.6-0.8-4.3,4.1-5-0.9c-1.2-9-2.1-18.1-3.2-27.1c0.2-1.4,0.2-2.7-0.9-4.2
	c-1,1.8-1,3.1-0.4,4.5c0.5,10.8-2.5,21.5-1.2,32.4c0.3,2.7-1.2,3.1-3.4,2.2c-1.4-0.2-2.8-0.5-4.2-0.7c8.6,4.1,7.9,11.4,7,18.8
	c-4.7,0.1-9.2-1-13.7-2l-0.3,0.1c-4.8-0.8-9.2-2.6-13.4-4.9c-4.7-2.4-9.8-4.3-12-9.7h0.3c0.7,0.3,1,0,1.3-0.6c0.8,0,1.7,0,1.3-1.2
	c-0.2-0.5-0.8-1.2-1.2-1.2c-0.8-0.1-0.9,0.8-0.9,1.4c-0.9,0.2-1.9,0.3-2.8,0.5c-10.7-9.1-12.7-21-11-34.1c0.3-2.3,1.3-4.4,2.8-6.3
	v-0.3c5.9-14.4,17.6-22.4,31.8-26.3c21.1-5.8,41.1-3.1,58.7,10.9C290.7,274.2,298.8,293.2,291.1,308z"/>
<path style="fill:none;stroke:#000000;stroke-width:3;stroke-miterlimit:10;" d="M574.1,354.1c-12.4,8.1-24.8,16.4-37.3,24.3
	c-3.8,2.4-5.9,4.9-4.9,9.5c-0.3,14.6-0.6,29.2-0.7,43.8c-0.3,26.3-0.6,52.5-0.8,78.8c0,1.5-0.9,3.3,0.7,4.7c-1.3,1.5-1.1,3.4-1,5.1
	c0.2,2-0.5,2.6-2.6,3.1c-8.1,2-8,2.1-8.5-6c-0.1-1.1-0.5-2.2-0.8-3.2c1.4-0.7,0.9-2,0.9-3.1c-0.2-20.6,0.3-41.2,0.9-61.8
	c0.3-11,0.1-11-10.2-15.3c-0.2-0.1-0.2-0.5-0.3-0.8c3.6-1.1,6.8,1.1,10.7,1.4c0.5-18.9,2-37.7,1.7-56.7c0.7-11.3,1.3-22.6,1.1-33.9
	c0.2-3.1,0.2-6.3,0.8-9.4c1.1-6.1-1.2-10.2-6.7-12.7c-0.2-0.5-0.4-1.1-0.6-1.6c0.8,0,1.5,0.1,2.3,0.1c3.7,1.9,5.9,1.6,5.3-3.3
	c-0.2-1.3,0-2.7-0.1-4c1.1-10.2,0.9-20.4,1.6-30.7c1.2,8.5,2.4,17,3.6,25.6c0,0.8,0.1,1.7,0.1,2.5c0.1,4.3,2.1,5.2,5.9,3.5
	c2.3-1,4.7-2,8.4-1.8c-3.5,2.2-6.1,4-8.9,5.4c-3,1.5-4.4,3.5-4.1,7c0.4,6.1,0.3,12.3,0.4,18.4v28.1c14.6-5.9,28.7-11.6,42.7-17.4
	L574.1,354.1z"/>
<path style="fill:none;stroke:#000000;stroke-width:3;stroke-miterlimit:10;" d="M71.9,515.4c-0.2,3.1,2.8,6.8,0.7,8.9
	c-2.1,2.2-5.9-0.2-9-0.3c-0.2,0-0.3,0-0.5,0c-5.2,0.5-8.2-1.3-7.1-7.1c0.2-1.3,0.6-2.6,0.6-3.9c0.5-14.3,1-28.6,1.3-42.9
	c0.7-37.6,1.2-75.1,1.8-112.7c0-1.2-0.1-2.3-0.1-3.5c0.1-7.5,0.2-15,0.5-22.5c0.1-2.3-1.4-3.3-2.7-4.5c-6.8-6.3-13.6-12.5-20.7-19.1
	c2.6-0.5,4.1,0.6,5.7,1.6c5.8,3.6,11.8,6.9,17.3,10.9c3.7,2.6,5.1,1.3,6.2-2.2c3-9.8,6-19.7,9-29.5c0.5-1.5,0.7-3.2,3-5.6
	c-5.5,26.3-11.4,51.2-10.7,76.9c-2.1,15.7-1.2,31.5-1.5,47.3c-0.6,27.6,0,55.1,2.6,82.6C69,498.5,69.5,507.1,71.9,515.4z"/>
<path style="fill:none;stroke:#000000;stroke-width:3;stroke-miterlimit:10;" d="M248,338.1c-0.6,0-1.1,0-1.7,0l0,0
	C246.8,338,247.4,338,248,338.1z"/>
<path style="fill:none;stroke:#000000;stroke-width:3;stroke-miterlimit:10;" d="M557.1,397.8c6.3-1.3,12.5-1.3,18.8,0
	C569.6,398.9,563.4,398.9,557.1,397.8z"/>
<path style="fill:none;stroke:#000000;stroke-width:3;stroke-miterlimit:10;" d="M289,354.7c-12,7.7-23.8,15.7-35.9,23
	c-4.7,2.8-6.7,5.9-6.2,11.4c0.6,6.9,0.2,14,0.3,20.9c-0.6,33.3-1.7,66.5-1,99.8c0,3.1-0.3,6.3-0.1,9.4c0.2,3-0.7,3.9-3.7,4.2
	c-8.2,0.8-8.2,1-8.3-7.4c0-2-0.1-4-0.2-5.9c0-0.4,0-0.7,0-1.1c0.7-18.3,1.3-36.5,0.9-54.8c1.3-15.1,1.3-15.1-12-21.3
	c-0.1-0.1-0.2-0.3-0.3-0.5c2.3-1.1,4.4,0.3,6.5,0.8c6.6,1.7,6.6,1.8,6.7-5.2c0.2-7,0.5-14,0.7-21c0-0.1,0.1-0.2,0.1-0.3
	c0-0.2-0.1-0.4-0.2-0.6c0.1-1.3,0.2-2.7,0.3-4c0.7-21,1.5-42,2.2-63.1c0.9-7.4,1.6-14.8-7-18.8c1.4,0.2,2.8,0.5,4.2,0.7
	c2.2,0.8,3.7,0.5,3.4-2.2c-1.3-10.9,1.7-21.6,1.2-32.4l1.3-0.4c1,9,2,18.1,3.2,27.1c0.6,5,3.4,0.1,5,0.9c2.5-0.6,5-1.3,8.6-2.2
	c-3.4,3.4-6.8,4.9-9.9,6.8c-1.7,1-2.7,2-2.6,4.2c0.2,5.1,0.2,10.2,0.2,15.3l0,0c0,9.9-0.1,19.8-0.1,29.8c0,1.9-0.3,4.8,3,2.1
	c0.3-0.1,0.6-0.2,1-0.3c1.3-0.6,2.5-1.2,3.8-1.7c11.5-4.7,23.1-9.4,34.6-14.1C288.7,354.1,288.9,354.4,289,354.7z"/>
<path style="fill:none;stroke:#000000;stroke-width:3;stroke-miterlimit:10;" d="M200.8,321.9c-0.4,0.2-0.8,0.4-1.2,0.6h-0.3
	c-13.5,7-27.9,12.1-41.4,19.2c-2.4,1.3-3.3,2.7-3,5.4c1.2,11.7,2.2,23.4,3.3,35.1l0,0c0.7,9.3,1.3,18.5,2.2,27.8
	c1.1,12.4,2.5,24.8,3.6,37.2c1.6,17.4,3.2,34.7,4.8,52.1c0.3,3.6-0.4,7.3,1.2,10.8c0.3,4.3,0.5,8.6,1,12.8c0.2,2.4-0.4,3.4-2.9,3.1
	c-2.9-0.4-5.9-0.8-8.9-1.1c-2.1-0.2-2-1.6-2.1-3.2c-0.3-3.6,1-7.3-0.9-10.6c1.8-1.2,0.9-3,0.9-4.6c0.6-30-1.2-59.9-3.3-89.7
	c-0.8-11.6-2-23.2-3-34.7c-0.3-3.5-0.9-7-0.8-10.4c0.2-7.5-2.5-13.1-9.7-16.1c-1.7-0.7-3.2-2-5.3-3.4c4.8-1,8.4,2.1,13.1,1.9
	c-1.5-15.3-3-30.6-4.5-45.9c3,4.6,3.6,10,5.3,15c1.2,3.5,2.1,7,2.9,10.6c0.5,2.2,1.4,2.6,3.5,1.9c14-4.8,28-9.5,42-14.2
	c0.9-0.2,1.9-0.4,2.8-0.5C200.3,321.2,200.5,321.5,200.8,321.9z"/>
<path style="fill:none;stroke:#000000;stroke-width:3;stroke-miterlimit:10;" d="M357.5,521.8c0.8,3.1-0.4,3.5-2.9,3.1
	c-0.2,0-0.3,0-0.5,0c-4.3-1.3-10.7,1-12.9-3.1c-1.9-3.6-0.4-9.1-0.3-13.8c0.3-3.1,0.8-6.3,0.8-9.4c0.5-25.7,0.7-51.5,1.5-77.2
	c0.5-17.8,0.9-35.5,0.6-53.3c0.3-11.8,0.6-23.6,1-35.3c0.1-2.8-1.3-4.3-3-5.9c-7-6.6-14-13.2-21-19.7c0.2-0.3,0.4-0.5,0.7-0.8
	c7.8,4.8,15.7,9.4,23.3,14.4c3.1,2,4.2,1.2,5.2-1.9c2.9-9.4,5.8-18.7,8.7-28.1c0.5-1.5,1-3,2.2-4.4c-6,27.3-10.2,54.7-9.8,82.6
	c-1.3,14.4-1.3,28.8-1,43.2c0,11.2,0.1,22.5,0.2,33.7c0.6,21,1.5,42,5,62.8c0.1,0.4,0.1,0.9,0.2,1.3
	C356.1,514,356.5,518,357.5,521.8z"/>
<path style="fill:none;stroke:#000000;stroke-width:3;stroke-miterlimit:10;" d="M484.4,327.2c-0.5,0.6-1,1.2-1.4,1.8
	c-4.7,2-9.4,4-14.1,6c-8.8,3.9-17.8,7.3-26.2,11.9c-1.9,1.1-3.7,1.9-3.4,4.8c0.9,6.8,1.4,13.5,2.1,20.3c2.2,23.3,4.4,46.6,6.5,69.9
	c1.8,19.5,3.5,39,5.2,58.5c0.3,3.8,0.8,7.6,1.1,11.4c0.3,3.4,0.3,6.9,1.1,10.2c0.8,3.5-0.3,4.2-3.6,4c-9.7-0.8-9.7-0.6-9.7-10.1
	c0-2-0.1-4-0.1-5.9c0.5-18.6-0.6-37.2-1.7-55.7c-0.7-12.4-1.2-24.8-2.2-37.2c-1.1-14.4-1.9-28.8-4-43c0.9-5.6-1-9.6-6.3-12
	c-2.5-1.1-4.7-2.9-7.5-4.7c3.7-1.2,6.6,0.7,9.6,1.5c2.4,0.6,3.2,0.4,2.8-2.5c-1.6-13.2-2.9-26.4-4.3-39.6c0-0.2,0.4-0.5,0.7-0.9
	c2,0.4,1.5,2.3,1.8,3.5c1.9,6,3.6,12.1,5.2,18.2c0.8,3.3,1.8,4.3,5.6,3c12.8-4.5,25.8-8.5,38.7-12.6c0.8-0.3,1.5-0.6,2.3-0.8
	C483.1,327,483.7,327.2,484.4,327.2z"/>
<path style="fill:none;stroke:#000000;stroke-width:3;stroke-miterlimit:10;" d="M355.4,510c-0.1-0.4-0.1-0.9-0.2-1.3
	c13.9,0.1,27.8,0.3,41.7,0.4c-1.5,1.5-3.5,0.8-5.2,0.8C379.6,510,367.5,510,355.4,510z"/>
<path style="fill:none;stroke:#000000;stroke-width:3;stroke-miterlimit:10;" d="M399.9,552.8c-13.6,0.1-27.2,0.3-40.9,0.4
	c0.6-1.3,1.8-1.2,3-1.2c11.9,0,23.8,0,35.6,0C398.4,552.1,399.2,552.6,399.9,552.8z"/>
<path style="fill:none;stroke:#000000;stroke-width:3;stroke-miterlimit:10;" d="M255,553.2c-13.6-0.1-27.2-0.3-40.9-0.4
	c1.7-1.5,3.8-0.8,5.7-0.8c10.1-0.1,20.1-0.1,30.2,0C251.7,552.1,253.7,551.3,255,553.2z"/>
<path style="fill:none;stroke:#000000;stroke-width:3;stroke-miterlimit:10;" d="M204.9,552.6c-9.3-0.2-18.5-0.5-27.8-0.7
	c9-1.8,18-0.7,27.1-0.5C204.4,551.4,204.6,552.2,204.9,552.6z"/>
<path style="fill:none;stroke:#000000;stroke-width:3;stroke-miterlimit:10;" d="M436.9,551.9c-9.3,0.2-18.5,0.5-27.8,0.7
	c0.2-0.4,0.5-1.2,0.7-1.2C418.9,551.2,427.9,550.1,436.9,551.9z"/>
<path style="fill:none;stroke:#000000;stroke-width:3;stroke-miterlimit:10;" d="M179.1,510.1c8.6-0.2,17.2-0.5,25.8-0.7
	c-0.3,0.4-0.5,1.2-0.8,1.2C195.8,510.8,187.4,511.9,179.1,510.1z"/>
<path style="fill:none;stroke:#000000;stroke-width:3;stroke-miterlimit:10;" d="M409.1,509.5c8.6,0.2,17.2,0.5,25.8,0.7
	c-8.3,1.8-16.7,0.7-25.1,0.5C409.6,510.6,409.4,509.9,409.1,509.5z"/>
<path style="fill:none;stroke:#000000;stroke-width:3;stroke-miterlimit:10;" d="M170.9,551.6c-6.9-0.3-13.9-0.5-20.8-0.8
	c6.7-1.8,13.4-0.8,20.1-0.5C170.4,550.4,170.7,551.2,170.9,551.6z"/>
<path style="fill:none;stroke:#000000;stroke-width:3;stroke-miterlimit:10;" d="M463.9,550.9c-6.9,0.3-13.9,0.5-20.8,0.8
	c0.2-0.4,0.5-1.2,0.7-1.2C450.5,550.1,457.3,549.1,463.9,550.9z"/>
<path style="fill:none;stroke:#000000;stroke-width:3;stroke-miterlimit:10;" d="M233.9,508.9c0,0.4,0,0.7,0,1.1
	c-5.6-0.5-11.3,1-16.9-0.9C222.7,509.1,228.3,509,233.9,508.9z"/>
<path style="fill:none;stroke:#000000;stroke-width:3;stroke-miterlimit:10;" d="M142,550.3c-5-0.2-9.9-0.3-14.9-0.5
	C132.1,548.8,137.1,547.8,142,550.3z"/>
<path style="fill:none;stroke:#000000;stroke-width:3;stroke-miterlimit:10;" d="M128.1,512.1c5-0.2,9.9-0.3,14.9-0.5
	C138.1,514.1,133.1,513.2,128.1,512.1z"/>
<path style="fill:none;stroke:#000000;stroke-width:3;stroke-miterlimit:10;" d="M486.9,549.9c-5,0.2-9.9,0.3-14.9,0.5
	C476.9,547.8,481.9,548.8,486.9,549.9z"/>
<path style="fill:none;stroke:#000000;stroke-width:3;stroke-miterlimit:10;" d="M471,511.7c5,0.2,9.9,0.3,14.9,0.5
	C480.9,513.2,475.9,514.1,471,511.7z"/>
<path style="fill:none;stroke:#000000;stroke-width:3;stroke-miterlimit:10;" d="M321.5,306.4c-0.2,0.3-0.5,0.5-0.7,0.8
	c-0.3-0.3-0.9-0.7-0.8-0.8C320.5,305.7,321,306.1,321.5,306.4z"/>
<path style="fill:none;stroke:#000000;stroke-width:3;stroke-miterlimit:10;" d="M573.7,353.7c0.3-0.1,0.6-0.3,0.9-0.4
	c-0.2,0.2-0.4,0.5-0.6,0.7C574.1,354.1,573.7,353.7,573.7,353.7z"/>
<path style="fill:none;stroke:#000000;stroke-width:3;stroke-miterlimit:10;" d="M200.9,321.8C200.9,321.8,200.9,321.9,200.9,321.8
	l-0.1,0.1C200.8,321.9,200.9,321.8,200.9,321.8z"/>
<path style="fill:none;stroke:#000000;stroke-width:3;stroke-miterlimit:10;" d="M249.3,370c-3.4,2.7-3-0.3-3-2.1
	c0-9.9,0-19.8,0.1-29.8l0,0c0.6,0,1.1,0,1.7,0c0,8.2,0.1,16.5,0,24.7C247.9,365.3,248.2,367.7,249.3,370z"/>
<path style="fill:none;stroke:#000000;stroke-width:3;stroke-miterlimit:10;" d="M254,368c-1.3,0.6-2.5,1.2-3.8,1.7
	C250.9,367.8,251.8,366.6,254,368z"/>
<path style="fill:none;stroke:#000000;stroke-width:3;stroke-miterlimit:10;" d="M241.9,285.8l-1.3,0.4c-0.5-1.4-0.6-2.8,0.4-4.5
	C242,283.1,242.1,284.4,241.9,285.8z"/>
<path style="fill:none;stroke:#000000;stroke-width:3;stroke-miterlimit:10;" d="M521.9,377.9c-6.2-7.2-9.8-15.5-10.8-25
	c0.1-0.1,0.3-0.2,0.4-0.3c1.8-2.9-1.5-7.5,1.8-9c2.6-1.2,6.4,0.2,9.7,0.4C523.2,355.3,522.6,366.6,521.9,377.9z"/>
<path style="fill:none;stroke:#000000;stroke-width:3;stroke-miterlimit:10;" d="M503.9,328.3c0.1,4.1-0.7,8.2-1.1,12.3
	c-0.6-0.1-1.2-0.1-1.8-0.2c-1.9,11.1-8.5,19.1-16.9,26c-10.2,8.3-22,12-34.9,12.6c-3.8,0.2-7.3,0.3-6.4-5.2c0.2-0.9-0.7-1.5-1.5-1.7
	c-0.7-6.8-1.2-13.6-2.1-20.3c-0.4-2.9,1.4-3.7,3.4-4.8c8.4-4.6,17.5-8,26.2-11.9c4.7-2.1,9.4-4,14.1-6c0.5-0.6,1-1.2,1.4-1.8
	c-0.6-0.1-1.3-0.3-1.9-0.2c-0.8,0.1-1.5,0.5-2.3,0.8c-12.9,4.2-25.9,8.1-38.7,12.6c-3.8,1.4-4.8,0.3-5.6-3
	c-1.5-6.1-3.3-12.2-5.2-18.2c-0.4-1.1,0.1-3.1-1.8-3.5c-0.3,0.4-0.7,0.7-0.7,0.9c1.4,13.2,2.7,26.4,4.3,39.6
	c0.3,2.9-0.4,3.1-2.8,2.5c-3-0.8-5.8-2.7-9.6-1.5c2.8,1.8,5,3.5,7.5,4.7c5.3,2.4,7.2,6.4,6.3,12c-1,2.5-2.4,3.1-5.2,2.1
	c-12.6-4.4-22.3-12.4-29.8-23.3c6.3-6.9,11.5-14.3,13.3-23.8c2.2-11.7-1-21.8-7.8-31.2c-0.5-0.7-0.9-1.4-1.4-2.1
	c12.5-14.9,28.8-21.2,47.9-20.7c5.6,0.2,11.2,1.2,16.5,3.1c0.6-1.4,1.1-2.8,1.7-4.2c-0.6,5,3.3,6,6.6,7.9
	C493.8,292.1,503.6,307.4,503.9,328.3z"/>
<path style="fill:none;stroke:#000000;stroke-width:3;stroke-miterlimit:10;" d="M350.3,445.9c0-11.2-0.1-22.5-0.1-33.7
	c5.4-3.6,11.6-5.1,17.7-7c11.1-3.4,29.3,5,33.3,16c2.9,7.9,1,18.7-6.7,24.6c-11.1,8.6-28,9.6-40.3,2.2
	C352.9,447.3,351.5,446.6,350.3,445.9z"/>
<path style="fill:none;stroke:#000000;stroke-width:3;stroke-miterlimit:10;" d="M225.1,337c-3.7,15.4-13.2,26.5-26.1,35
	c-12.8,6.8-26.3,10.6-40.8,10.3c-1.1-11.7-2.1-23.4-3.3-35.1c-0.3-2.7,0.6-4.1,3-5.4c13.4-7.2,27.8-12.2,41.4-19.2
	c2.3,5.4,7.4,7.3,12,9.7c4.3,2.2,8.7,4.1,13.4,4.9L225.1,337z"/>
<path style="fill:none;stroke:#000000;stroke-width:3;stroke-miterlimit:10;" d="M238.8,339c-0.7,21-1.5,42-2.2,63.1
	c-1.9,3-3.7,3.6-7.4,1.8c-14.2-6.9-24.6-17.1-30.3-31.9c13-8.5,22.5-19.6,26.1-35C229.6,338,234.2,339.1,238.8,339z"/>
<path style="fill:none;stroke:#000000;stroke-width:3;stroke-miterlimit:10;" d="M235.8,428c-0.1,7-0.1,6.9-6.7,5.2
	c-2.1-0.6-4.2-1.9-6.5-0.8c0.1,0.2,0.1,0.4,0.3,0.5c13.3,6.2,13.3,6.2,12,21.3c-10.3,3.9-20.8,3.9-31.2,0.6c-3.9-1.2-7.3-3.2-10-6.3
	c-3.7-4.2-3.8-10.3-0.2-14.6c3.6-4.3,8.6-6.6,13.9-7.4C216.9,424.8,226.5,424.2,235.8,428z"/>
<path style="fill:none;stroke:#000000;stroke-width:3;stroke-miterlimit:10;" d="M236.4,406.1c0.1,0.2,0.2,0.4,0.2,0.6
	c0,0.1-0.1,0.2-0.1,0.3c-0.1-0.2-0.3-0.4-0.3-0.6C236.1,406.3,236.3,406.2,236.4,406.1z"/>
<path style="fill:none;stroke:#000000;stroke-width:3;stroke-miterlimit:10;" d="M200.9,321.9L200.9,321.9c-0.4-0.3-0.6-0.7-0.9-1
	c0.1-0.6,0.2-1.5,0.9-1.4c0.5,0,1.1,0.7,1.2,1.2C202.6,321.9,201.7,321.9,200.9,321.9z"/>
<path style="fill:none;stroke:#000000;stroke-width:3;stroke-miterlimit:10;" d="M200.9,321.8C200.9,321.8,200.9,321.9,200.9,321.8
	c-0.3,0.6-0.6,0.9-1.3,0.6c0.4-0.2,0.8-0.4,1.2-0.6C200.8,321.9,200.9,321.8,200.9,321.8z"/>
</svg>
