<?xml version="1.0" encoding="utf-8"?>
<!-- Generator: Adobe Illustrator 17.0.0, SVG Export Plug-In . SVG Version: 6.00 Build 0)  -->
<!DOCTYPE svg PUBLIC "-//W3C//DTD SVG 1.1//EN" "http://www.w3.org/Graphics/SVG/1.1/DTD/svg11.dtd" [
	<!ENTITY ns_flows "http://ns.adobe.com/Flows/1.0/">
	<!ENTITY ns_extend "http://ns.adobe.com/Extensibility/1.0/">
	<!ENTITY ns_ai "http://ns.adobe.com/AdobeIllustrator/10.0/">
	<!ENTITY ns_graphs "http://ns.adobe.com/Graphs/1.0/">
]>
<svg version="1.1" id="Layer_1" xmlns:x="&ns_extend;" xmlns:i="&ns_ai;" xmlns:graph="&ns_graphs;"
	 xmlns="http://www.w3.org/2000/svg" xmlns:xlink="http://www.w3.org/1999/xlink" xmlns:a="http://ns.adobe.com/AdobeSVGViewerExtensions/3.0/"
	 x="0px" y="0px" width="612px" height="792px" viewBox="0 0 612 792" style="enable-background:new 0 0 612 792;"
	 xml:space="preserve">
<g id="layer1">
	<g>
		<path style="fill:none;stroke:#000000;stroke-width:4;stroke-miterlimit:10;" d="M408.9,177.3c0.8,0,2.8,2.2,4.2,4.7
			c0.5,0.8,0.9,1.5,1.1,1.6c0.2,0.1,0.2,0.2,0.2,0.4s0.5,1.2,1,2.4c0.6,1.1,1,2.3,1,2.6s0.2,0.6,0.3,0.7c0.2,0.2,0.4,0.7,0.5,1.5
			c0.2,0.6,0.3,1.2,0.5,1.2l0,0l0,0c0.2,0,0.3,0.5,0.5,1.1c0.2,0.6,0.3,1.3,0.5,1.5c0.2,0.2,0.5,1.2,0.8,2.4s0.7,2.3,0.9,2.6
			c0.2,0.3,0.4,1.3,0.6,2.2c0.6,2.5,1.2,4.8,1.5,5c0.2,0.2,0.2,0.6,0.2,1c0,0.4,0.2,1,0.3,1.3c0.3,0.6,0.6,1.9,1.4,5.9
			c0.2,1.1,0.5,2.3,0.6,2.5c0.2,0.2,0.4,1.5,0.5,2.8c0.2,1.3,0.4,2.4,0.5,2.4l0,0l0,0c0.2,0,0.3,0.5,0.4,1.1s0.5,2.4,0.7,3.8
			c0.3,1.5,0.7,3.7,0.9,5c0.2,1.3,0.5,2.8,0.6,3.3c0.2,0.5,0.5,2.4,0.6,4.3c0.2,1.9,0.3,3.3,0.5,3.3l0,0l0,0c0.2,0,0.4,1.5,0.6,3.4
			c0.2,1.9,0.4,3.5,0.6,3.6c0.4,0.2,0.5,4.7,0.1,5.4c-0.2,0.2-0.3,1.5-0.4,2.6c-0.1,1.2-0.3,2.1-0.5,2.1s-0.2,0.2-0.2,0.6
			c0,0.2-0.8,1.9-1.8,3.6s-1.8,3.2-1.8,3.4c0,0.2-0.1,0.3-0.3,0.3c-0.2,0-0.3,0.2-0.3,0.4c0,0.3-1.7,3.3-2.1,3.7
			c-0.2,0.2-0.7,1.1-1.7,3.1c-0.5,0.9-1.1,1.9-1.4,2.3c-0.3,0.3-0.6,0.8-0.6,1s-0.2,0.5-0.3,0.7c-0.2,0.2-0.6,0.9-1,1.5
			c-1.1,2.3-1.5,3-1.9,3.4c-0.2,0.2-0.4,0.6-0.4,0.9c0,0.2-0.1,0.4-0.2,0.4s-0.3,0.2-0.5,0.6c-0.1,0.3-0.3,0.8-0.6,1.2
			c-1.2,1.9-1.9,3.2-2.5,4.3c-0.3,0.6-0.7,1.2-0.8,1.2c-0.2,0-0.2,0.2-0.2,0.4c0,0.2-0.6,1.4-1.4,2.7c-0.7,1.2-1.4,2.4-1.4,2.6
			c0,0.2-0.1,0.4-0.2,0.4c-0.2,0.1-0.7,1-1.2,2c-0.6,1.1-1.1,1.9-1.2,2c-0.2,0.2-0.9,1.3-1.2,2.1c-0.2,0.4-0.6,1.2-1.1,1.8
			c-0.4,0.6-0.7,1.2-0.7,1.4c0,0.2-0.1,0.4-0.3,0.4c-0.2,0-0.3,0.2-0.3,0.4s-0.2,0.6-0.4,0.9c-0.2,0.2-0.5,0.6-0.6,1
			c-0.2,0.6-3.6,6-3.9,6.2c-0.1,0.1-0.2,0.5-0.4,0.8c-0.1,0.4-0.3,0.7-0.5,0.7c-0.2,0-0.2,0.2-0.2,0.3c0,0.6-1.6,2.2-2.2,2.2l0,0
			c-0.4,0-0.6-0.2-0.6-1.1c0-0.6-0.2-1.4-0.6-1.7c-0.3-0.3-0.6-0.5-1.5-0.5c-0.5,0-1.3,0.1-2.4,0.2c-1.8,0.2-3.3,0.4-3.5,0.6
			c-0.6,0.5-3.7,0.7-6.6,0.7c-2.3,0-4.3-0.2-4.5-0.6c-0.1-0.2-0.4-0.3-0.7-0.3l0,0l0,0c-0.6,0-2-0.5-3.8-1.4
			c-0.5-0.2-1.1-0.4-1.4-0.4l0,0l0,0c-0.2,0-0.4-0.1-0.4-0.2s-0.5-0.3-1.1-0.5c-0.6-0.1-1.1-0.3-1.1-0.5c0-0.2-0.6-0.3-1.2-0.4
			s-1.3-0.3-1.5-0.5c-0.1-0.2-0.4-0.2-0.6-0.2l0,0l0,0c-0.5,0-2.8-0.9-4-1.5c-0.3-0.2-0.7-0.3-1.1-0.3l0,0l0,0
			c-0.2,0-0.5-0.1-0.5-0.3c0-0.2-0.5-0.3-1.1-0.5c-0.6-0.1-1.1-0.3-1.1-0.4c0-0.2-0.6-0.3-1.1-0.4c-0.6-0.1-1.3-0.3-1.5-0.4
			c-0.2-0.2-1.1-0.5-1.9-0.8c-0.9-0.3-1.7-0.6-1.7-0.8c0-0.2-0.4-0.3-1-0.4c-0.6-0.1-1.3-0.4-1.8-0.6c-0.5-0.2-1.1-0.4-1.4-0.4l0,0
			l0,0c-0.3,0-0.6-0.2-0.6-0.3s-0.2-0.3-0.5-0.3l0,0l0,0c-0.6,0-2.8-1-3.1-1.4c-0.2-0.2-1.1-0.2-2.4-0.2c-1.7,0-3.7,0.2-3.7,0.5
			c-0.1,0.2-0.4,0.4-0.6,0.4c-0.5,0-3.3,0.9-4.1,1.3c-0.2,0.2-1.3,0.4-2.3,0.5c-1,0.2-1.8,0.4-1.8,0.6c0,0.2-0.2,0.3-0.4,0.3
			s-0.6,0.2-0.8,0.5c-0.6,0.7,0.1,1.3,1.7,1.5c1.4,0.2,4.8,0.6,9.3,1.5c1.5,0.2,3.2,0.6,3.8,0.6c0.6,0.1,1.1,0.2,1.1,0.4
			c0,0.2,0.5,0.2,1.1,0.2h0.1l0,0c0.7,0,2.2,0.5,4.1,1.4c1.6,0.8,3.1,1.5,3.2,1.6c0.3,0.2,3,1.5,3.4,1.5l0,0l0,0
			c0.2,0,0.4,0.1,0.4,0.2c0.1,0.2,1.1,0.7,2.3,1.3c1.2,0.6,2.3,1.1,2.3,1.3c0.1,0.2,0.2,0.2,0.4,0.2l0,0l0,0c0.6,0,4.3,1.9,4.4,2.1
			c0,0.2,0.2,0.2,0.3,0.2l0,0l0,0c0.2,0,1.4,0.5,2.7,1.1c1.2,0.6,2.4,1.1,2.6,1.1l0,0l0,0c0.2,0,0.3,0.1,0.3,0.3
			c0,0.2,0.2,0.3,0.5,0.3l0,0l0,0c0.2,0,0.5,0.1,0.5,0.2s0.4,0.4,1,0.5c0.6,0.1,1,0.3,1,0.5c0,0.2,0.2,0.2,0.3,0.2l0,0l0,0
			c0.4,0,6.4,2.8,6.6,3c0.1,0.2,0.5,0.3,1,0.5c0.4,0.1,1,0.4,1.2,0.6c0.2,0.2,0.6,0.4,0.9,0.4l0,0l0,0c0.2,0,0.4,0.1,0.4,0.3
			c0,0.2,0.2,0.3,0.5,0.3l0,0l0,0c0.6,0,2.8,1,3.1,1.4c0.2,0.2,1.2,0.2,2.5,0.2c1.8,0,3.8-0.2,4-0.4c0.1-0.2,0.9-0.8,1.8-1.4
			c0.9-0.6,1.6-1.2,1.6-1.4c0.1-0.2,0.2-0.2,0.5-0.2c0.2,0,0.9-0.4,1.4-0.9c0.6-0.5,1.5-1.2,2.1-1.5c1.1-0.6,1.3-0.7,2.4-1.7
			c0.4-0.3,0.8-0.6,0.9-0.6s0.6-0.3,1.1-0.8c0.5-0.5,1.1-0.8,1.3-0.8s0.4-0.1,0.5-0.2c0.1-0.2,2-1.6,2.3-1.7c0.1,0,0.6-0.3,1.1-0.8
			c0.5-0.4,1-0.8,1.2-0.8c0.2,0,0.4-0.2,0.4-0.3s0.2-0.3,0.3-0.3c0.3,0,2.1-1.2,2.4-1.6c0.2-0.3,3-2.2,3.2-2.2
			c0.2,0,0.6-0.3,1.5-1.2c0.2-0.2,0.6-0.4,0.7-0.4c0.2,0,0.4-0.1,0.4-0.2c0.2-0.3,2-1.6,2.4-1.7c0.2,0,0.3-0.2,0.3-0.3
			s0.3-0.4,0.7-0.5c0.4-0.1,0.8-0.3,0.8-0.4c0-0.2,2.7-2.3,3.1-2.3c0.2,0,0.3-0.1,0.4-0.2c0.2-0.3,2-1.6,2.4-1.7
			c0.2,0,0.3-0.2,0.3-0.2c0-0.2,0.5-0.6,1.1-0.9s1.1-0.7,1.1-0.8c0-0.2,0.2-0.2,0.3-0.2c0.4,0,2.3-1.3,2.4-1.7
			c0.1-0.2,0.3-0.2,0.5-0.2c0.2,0,0.5-0.2,0.5-0.3c0.1-0.2,1.1-1,2.4-1.8c1.3-0.8,2.4-1.7,2.5-1.9c0.1-0.2,0.4-0.4,0.6-0.4
			c0.2,0,0.9-0.5,1.5-1c0.6-0.6,1.4-1,1.5-1s0.5-0.2,0.8-0.6c1.1-1.1,1.9-1.6,2.4-1.8c0.3-0.2,0.7-0.4,0.8-0.6s0.3-0.5,0.5-0.5
			c0.4,0,4.6-3.2,5.5-4.1c1.8-1.9,2.9-4,3.2-5.7c0.1-0.7,0.3-1.4,0.4-1.5c0.2-0.1,0.3-0.8,0.5-1.5c0.1-0.8,0.2-1.5,0.4-1.5
			c0.2-0.1,0.3-0.8,0.4-1.6c0.1-0.8,0.2-1.6,0.4-1.8c0.2-0.3,0.7-2.8,1.1-4.9c0.1-0.6,0.2-1.2,0.4-1.4c0.2-0.2,0.3-1.2,0.5-2.4
			c0.1-1.1,0.2-2.2,0.3-2.4c0.2-0.3,0.6-3,1.2-6.7c0.2-1.1,0.4-2.4,0.6-2.7c0.2-0.3,0.3-1.2,0.4-2s0.3-3,0.6-5
			c0.2-1.9,0.6-5.2,0.7-7.2c0.2-1.9,0.4-3.6,0.4-3.6c0.1,0,0.7-6.6,1-9.6c0.1-1.1,0.2-2.1,0.3-2.2c0.2-0.1,0.3-2.8,0.5-6.1
			c0.2-3.2,0.4-8.8,0.6-12.3c0.5-7.7,0.5-8.6-0.1-13c-0.2-1.9-0.2-3.6-0.2-3.7c0.2-0.2,0.3-0.2,0.6-0.2c0.5,0,1,0.4,1.2,1.1
			c0.2,0.6,0.4,1,0.5,1.1c0.3,0.3,1.3,2.5,1.3,3c0,0.3,0.2,0.7,0.3,0.9c0.2,0.2,0.4,1.5,0.6,2.8c0.1,1.4,0.4,2.7,0.6,2.9
			c0.5,0.6,0.7,19,0.2,19.5c-0.2,0.2-0.3,2.7-0.2,7.1c0.1,3.7,0,8.3-0.1,10.1s-0.3,5.2-0.4,7.4c-0.2,2.2-0.4,4.9-0.6,6
			s-0.2,2.8-0.2,3.7c0,0.8-0.1,1.6-0.2,1.7s-0.3,2-0.4,4.2c-0.1,2.2-0.2,4.1-0.3,4.1c-0.2,0-0.4,1.9-0.5,4.3
			c-0.4,6-1.2,12.7-1.7,13.4c-0.2,0.2-0.3,1.4-0.4,2.7c-0.1,1.3-0.3,2.4-0.4,2.7c-0.2,0.2-0.3,1-0.4,1.7s-0.3,1.5-0.4,1.7
			c-0.2,0.2-0.3,0.6-0.5,1.1c-0.3,1.2-3.8,5.4-4.5,5.4c-0.2,0-0.6,0.3-0.9,0.7c-0.3,0.4-1.2,1.2-2,1.9c-0.7,0.6-1.4,1.2-1.5,1.4
			c-0.1,0.2-0.2,0.2-0.5,0.2c-0.2,0-0.8,0.5-1.3,1c-0.5,0.6-1,1-1.1,1s-0.5,0.2-0.8,0.6c-0.7,0.7-1.6,1.5-3.4,3
			c-0.7,0.6-1.5,1.3-1.8,1.5c-0.2,0.2-0.5,0.4-0.6,0.4s-0.6,0.4-1.1,0.9c-1.2,1.3-2.9,2.7-3.2,2.7c-0.2,0-0.8,0.6-1.5,1.3
			c-0.6,0.7-1.4,1.3-1.5,1.3s-0.3,0.1-0.3,0.2c0,0.2-0.5,0.6-1.1,1.1s-1.5,1.1-1.8,1.5c-0.9,0.9-1.3,1.1-2.5,2.1
			c-0.6,0.5-1.3,1.1-1.7,1.4c-0.3,0.3-1.1,1.1-1.9,1.6c-0.6,0.6-1.4,1.1-1.5,1.1c-0.2,0-0.6,0.3-0.9,0.8c-0.3,0.4-0.7,0.8-1,0.8
			c-0.2,0-0.4,0.2-0.5,0.2c0,0.2-0.7,0.7-1.5,1.4c-0.7,0.6-1.5,1.2-1.5,1.3c-0.1,0.1-0.6,0.5-1.1,0.9s-1.3,1.1-1.9,1.5
			c-0.5,0.5-1.5,1.2-2.2,1.8c-0.6,0.6-1.6,1.3-2.2,1.8c-1.3,1.1-3.2,2.7-4.5,3.7c-0.6,0.5-1.5,1.2-2,1.6c-0.6,0.5-1.1,0.9-1.1,0.9
			s-0.6,0.5-1.3,1.1c-0.6,0.6-1.9,1.6-2.8,2.3c-0.9,0.6-1.7,1.3-1.7,1.5s-0.2,0.2-0.4,0.2c-0.2,0-0.7,0.3-1.1,0.6s-1.1,0.8-1.5,1.1
			c-0.5,0.2-0.9,0.5-0.9,0.6c0,0.1-0.4,0.3-0.9,0.4c-0.5,0.2-0.9,0.3-0.9,0.4c0,0.2-0.7,0.6-1.6,1c-0.9,0.4-1.9,0.9-2.4,1.1
			c-0.2,0.1-0.4,0.2-0.6,0.2c-0.6,0-1.1-0.6-0.9-1.5c0.1-0.6,0-1.1-0.4-1.3c-0.3-0.2-1.5-0.4-2.6-0.4c-1,0-2,0.1-2.5,0.3
			c-0.2,0.1-0.4,0.1-0.7,0.1c-1.9,0-5.8-1-5.8-1.5c0-0.2-0.2-0.2-0.4-0.2l0,0l0,0c-0.2,0-0.6-0.2-0.9-0.4c-0.2-0.2-1.2-0.7-2.1-1.2
			c-2.2-1.1-4.2-2.1-4.4-2.4c-0.1-0.2-0.5-0.2-0.8-0.4c-0.4-0.1-0.7-0.3-0.7-0.5c0-0.2-0.2-0.2-0.4-0.2l0,0l0,0
			c-0.4,0-0.8-0.2-3.8-1.8c-1.1-0.6-2.6-1.4-3.5-1.8c-0.8-0.4-1.6-0.8-1.7-1c-0.1-0.1-0.9-0.5-1.7-0.9c-0.8-0.4-1.6-0.8-1.7-0.9
			c-0.2-0.2-1.4-0.8-4.2-2.2c-1.1-0.5-1.9-1-2-1.1c-0.2-0.2-2.7-1.5-3.7-1.9c-0.4-0.2-0.7-0.4-0.7-0.6c0-0.1-0.4-0.2-1-0.4
			c-0.5-0.1-1-0.3-1-0.5c0-0.2-0.2-0.2-0.4-0.2l0,0l0,0c-0.4,0-4.4-1.8-4.6-2.1c-0.1-0.1-0.7-0.2-1.4-0.4c-0.6-0.1-1.4-0.3-1.6-0.5
			c-0.2-0.2-0.8-0.2-1.7-0.2c-3.2,0-10,0.6-10.5,1.2c-0.1,0.1,0.2,0.2,0.4,0.3c0.3,0.1,1.1,0.3,1.6,0.6c0.6,0.2,1.1,0.4,1.3,0.4l0,0
			l0,0c0.2,0,0.7,0.2,1.2,0.4c0.5,0.2,1.1,0.4,1.5,0.4l0,0l0,0c0.3,0,0.7,0.1,1.1,0.2c0.2,0.2,1.1,0.5,1.9,0.8
			c0.8,0.3,1.9,0.7,2.4,0.9c0.6,0.2,1.1,0.4,1.3,0.4l0,0l0,0c0.2,0,0.4,0.1,0.4,0.2c0.1,0.2,0.6,0.5,1.4,0.8
			c1.9,0.9,5.1,3.2,7.5,5.4c0.5,0.5,1,0.9,1.1,0.9l0,0l0,0c0.2,0,0.9,0.6,1.7,1.3c2.4,2,5.8,5,7,5.9c1.4,1.1,3.2,2.7,7.7,6.9
			c1.9,1.9,3.7,3.3,3.7,3.3l0,0l0,0c0.2,0,12.5,11.8,14.4,13.9c0.6,0.6,2.4,2.4,4,4.1c3.1,3.1,5.9,6.2,8.2,8.6
			c1.8,2,2.5,2.8,4.1,4.5c0.8,0.8,1.9,2,2.4,2.6c0.5,0.6,1.4,1.6,2,2.3c0.6,0.6,1.2,1.3,1.2,1.5c0,0.1,0.5,0.6,1.1,1.3
			c1.5,1.6,3.5,3.9,4.1,4.9c0.3,0.5,0.7,0.9,0.9,0.9l0,0l0,0c0.2,0,0.2,0.2,0.2,0.3c0,0.2,0.3,0.6,0.7,1.1c0.4,0.3,1,1.1,1.3,1.5
			c0.6,1,0.7,1.1,2.1,2.6c0.5,0.6,1,1.1,1,1.3c0,0.1,0.3,0.5,0.6,0.9s1,1.1,1.4,1.6c0.4,0.5,0.9,1.1,1.1,1.3
			c0.2,0.2,0.4,0.6,0.4,0.7s0.2,0.4,0.4,0.6c0.2,0.1,0.9,0.9,1.5,1.8c0.6,0.8,1.1,1.6,1.2,1.7c1.5,1.3,3.2,4.5,3.2,5.8
			c0,0.5,0.2,1,0.3,1.1c0.2,0.1,0.3,1.5,0.4,3.1c0,1.6-0.1,3-0.2,3.2c-0.2,0.2-0.2,7.5,0.1,20.9c0.4,23.2,0.6,51.9,0.2,59.4
			c-0.1,3.7-0.3,5.5-0.8,6.9c-0.3,1.1-0.6,2.1-0.6,2.4s-0.2,0.8-0.4,1.3s-0.5,1.3-0.6,1.9c-0.2,1.1-0.7,1.9-1.2,1.9
			c-0.1,0-0.1,0-0.2,0c-0.2-0.1-0.4-3.1-0.6-8.4c-0.2-4.6-0.4-8.4-0.6-8.4c-0.2-0.1-0.4-1.2-0.5-2.4c-0.1-1.2-0.5-4.3-0.8-6.8
			c-0.3-2.6-0.8-6.8-1-9.3c-0.2-2.6-0.6-4.9-0.7-5.3s-0.5-3.1-0.7-6.1c-0.5-5.8-1-10.1-1.3-11.8c-0.1-0.6-0.3-2.7-0.6-4.7
			c-0.2-1.9-0.6-5.7-1-8.3c-0.5-4.1-0.8-7.2-2-17.9c-0.6-4.9-1.1-8-1.5-8.9c-0.2-0.5-0.5-1.1-0.5-1.5c0-0.2-0.1-0.5-0.2-0.5l0,0l0,0
			c-0.2,0-0.7-0.8-1.4-1.9c-0.6-1.1-1.2-1.9-1.4-1.9l0,0l0,0c-0.2,0-0.3-0.2-0.4-0.6c-0.2-0.2-0.6-1-1.1-1.5c-0.6-0.6-1-1.1-1-1.3
			c0-0.2-0.2-0.5-0.6-0.8c-0.7-0.6-2.4-2.8-2.8-3.3c-0.2-0.2-0.6-0.8-1.1-1.3c-1.3-1.4-3.7-4.1-4-4.5c-0.2-0.2-0.9-1-1.6-1.8
			c-0.7-0.7-1.9-1.9-2.6-2.7c-3.9-4.3-10.8-11.4-17.5-17.9c-3.2-3.1-6.1-6-6.6-6.4c-0.5-0.5-1.3-1.2-1.8-1.7
			c-0.5-0.4-1.3-1.2-1.7-1.7c-0.5-0.5-1.5-1.5-2.2-2.2c-0.7-0.7-1.5-1.5-1.8-1.7c-0.2-0.2-2.4-2.3-4.9-4.5
			c-2.5-2.3-7.2-6.7-10.5-9.8c-3.2-3.1-6.5-6.1-7.1-6.6c-0.6-0.5-1.3-1.2-1.5-1.5c-0.6-0.7-3-2.4-4.3-2.8c-0.5-0.2-1.6-0.4-2.5-0.5
			c-0.8-0.1-1.7-0.2-1.9-0.4c-0.2-0.2-1.2-0.3-2.3-0.4s-2-0.3-2.1-0.5c-0.1-0.2-0.8-0.2-1.5-0.2c-1,0-2,0.2-2,0.3s0.2,0.3,0.3,0.3
			l0,0l0,0c0.3,0,3,1.6,3.7,2.4c0.2,0.2,0.6,0.4,0.9,0.4l0,0l0,0c0.2,0,0.4,0.1,0.4,0.2s0.8,0.7,1.7,1.3c1,0.6,1.7,1.1,1.7,1.3
			c0,0.2,0.2,0.2,0.5,0.2l0,0l0,0c0.2,0,0.6,0.2,1,0.6c0.3,0.3,1.1,1,1.8,1.5c1.6,1.1,5.6,4.7,5.6,5c0,0.2,0.4,0.6,0.9,1.1
			c1.5,1.5,2.6,2.9,2.6,3.4c0,0.2,0.2,0.4,0.3,0.4l0,0l0,0c0.2,0,0.4,0.4,0.5,0.8c0.1,0.5,0.3,0.9,0.5,1.1c0.3,0.2,3.2,5.8,3.2,6.3
			c0,0.2,0.2,0.5,0.2,0.5c0.2,0.1,1.3,2,2.5,4.4c1.3,2.4,2.8,5.2,3.3,6.2c0.6,1.1,1,2,1,2.2c0,0.2,0.1,0.4,0.2,0.4l0,0l0,0
			c0.2,0,0.5,0.6,0.8,1.5c0.3,0.8,0.7,1.6,0.9,1.8c0.6,0.6,3.2,5.8,3.2,6.1c0,0.2,0.2,0.5,0.2,0.5c0.3,0.1,2.7,4.5,2.7,5
			c0,0.2,0.1,0.5,0.2,0.5c0.2,0.1,3.3,5.8,3.3,6.3c0,0.2,0.1,0.4,0.2,0.5c0.4,0.2,1.4,2,1.4,2.7c0,0.4,0.2,0.6,0.3,0.6l0,0l0,0
			c0.2,0,0.4,0.5,0.5,1c0.2,0.6,0.4,1.1,0.5,1.3c0.2,0.2,0.3,0.8,0.5,1.4c0.2,0.6,0.4,1.4,0.6,1.7c0.8,1.9,1.4,7.8,2.4,25.9
			c0.2,4.9,0.6,9.3,0.7,9.5s0.4,3.4,0.7,7c0.3,3.6,0.7,8.4,1,10.8c0.7,7.1,0.8,24.2,0.2,25.2c-0.2,0.2-0.3,1.7-0.4,3.4
			c-0.1,1.7-0.2,3.3-0.4,3.6c-0.2,0.2-0.4,1.9-0.5,3.7c-0.2,1.7-0.5,4.4-0.7,5.9c-0.2,1.5-0.5,3.4-0.6,4.2s-0.2,1.5-0.4,1.7
			c-0.2,0.2-0.3,1.2-0.4,2.4c-0.1,1.1-0.3,2.2-0.4,2.4c-0.2,0.2-0.3,1.2-0.4,2.3c-0.1,1.1-0.3,2-0.5,2.1c-0.2,0.1-0.2,0.8-0.2,1.6
			c0,0.8-0.2,2-0.4,2.8c-0.2,0.7-0.4,1.6-0.4,2.1c0,0.5-0.1,0.9-0.2,1c-0.2,0.1-0.3,1-0.5,1.9c-0.1,1-0.2,1.8-0.4,1.9
			s-0.3,0.9-0.4,1.7c-0.1,0.9-0.2,1.5-0.4,1.5c-0.2,0-0.3,0.6-0.4,1.5s-0.2,1.7-0.4,1.9c-0.1,0.2-0.3,0.8-0.6,1.3
			c-0.2,0.4-1.1,2.6-2.2,4.8c-1.9,4-4,6.9-5,6.9l0,0c-0.8,0-1.2-1.9-0.5-2.6c0.2-0.2,0.2-0.6,0.2-1c0-0.4,0.1-0.8,0.2-0.9
			c0.2-0.1,0.3-1,0.5-1.9c0.1-1,0.2-1.9,0.4-2.1c0.1-0.2,0.3-1.4,0.4-2.7s0.2-2.5,0.4-2.7c0.1-0.2,0.3-1.3,0.4-2.5
			c0.3-3.8,0.7-7.5,1-8.1c0.1-0.3,0.3-2,0.4-3.7c0.1-1.7,0.2-3.2,0.4-3.4c0.1-0.2,0.3-1.7,0.5-3.4c0.2-1.7,0.5-4.8,0.7-6.7
			c0.2-1.9,0.5-4.8,0.6-6.2c0.1-1.5,0.2-2.8,0.3-3.2c0.2-0.6,0.7-8,1.1-15.7c0.2-4.4,0.1-6.9-0.2-10.1c-0.6-5.2-1.3-11-1.6-11.6
			c-0.1-0.2-0.2-1.4-0.4-2.5c-0.1-1.1-0.4-3.4-0.7-5.1c-1.4-7.5-1.7-9.3-2.1-12c-0.2-1.6-0.6-3.2-0.6-3.4c-0.2-0.6-1.4-8-1.4-9.3
			c0-0.6-0.2-1.1-0.3-1.1c-0.2-0.1-0.4-1.5-0.6-3.1c-0.2-1.6-0.4-3.1-0.6-3.3c-0.2-0.2-0.4-1.9-0.6-3.7c-0.5-4.5-1.6-9.7-2.1-9.7
			l0,0l0,0c-0.2,0-0.3-0.4-0.5-0.9c-0.2-0.5-0.3-0.9-0.5-0.9l0,0l0,0c-0.2,0-0.2-0.2-0.3-0.4c0-0.2-0.3-0.9-0.6-1.5
			s-0.6-1.4-0.6-1.6c0-0.2-0.2-0.5-0.2-0.5l0,0l0,0c-0.2,0-0.5-0.5-0.7-1.1s-1-2.1-1.6-3.3c-0.6-1.1-1.8-3.2-2.4-4.5
			c-0.6-1.3-1.3-2.4-1.5-2.4s-0.3-0.5-0.5-0.9c-0.2-0.4-0.3-0.8-0.5-0.9c-0.4-0.3-1.3-2.1-1.3-2.6c0-0.2-0.2-0.5-0.3-0.5l0,0l0,0
			c-0.2,0-0.4-0.4-0.5-0.9c-0.2-0.5-0.3-0.9-0.5-0.9l0,0l0,0c-0.2,0-0.4-0.4-0.6-0.9c-0.2-0.5-0.8-1.7-1.5-2.7
			c-0.6-1.1-1.1-2.1-1.1-2.4c0-0.2-0.2-0.5-0.3-0.5l0,0l0,0c-0.2,0-0.4-0.4-0.5-0.9c-0.2-0.5-0.3-0.9-0.5-0.9l0,0l0,0
			c-0.2,0-0.3-0.4-0.5-0.9c-0.2-0.5-0.3-0.9-0.5-0.9l0,0l0,0c-0.3,0-2.3-3.7-2.3-4.4c0-0.2-0.2-0.5-0.3-0.5l0,0l0,0
			c-0.2,0-0.4-0.3-0.5-0.7c-0.1-0.4-0.3-0.8-0.4-0.8l0,0l0,0c-0.2,0-0.5-0.6-0.8-1.4c-0.3-0.8-0.7-1.4-0.8-1.4l0,0l0,0
			c-0.2,0-0.3-0.3-0.4-0.8c-0.2-1-1.8-2.5-2.8-2.8c-0.8-0.2-1-0.3-4.1-1.6c-1.2-0.5-2.3-0.9-2.4-0.9l0,0l0,0c-0.2,0-0.2-0.1-0.2-0.2
			s-0.4-0.4-1-0.5c-0.5-0.1-1-0.3-1-0.5c0-0.2-0.2-0.2-0.6-0.2l0,0c-0.3,0-0.6,0.1-0.6,0.2c0,0.2,1.1,1.3,4,4.3
			c1.1,1.1,2.1,2.4,2.1,2.5c0,0.2,0.2,0.4,0.3,0.4l0,0l0,0c0.2,0,0.4,0.3,0.5,0.7s0.3,0.8,0.5,0.8l0,0l0,0c0.2,0,0.3,0.4,0.5,0.9
			c0.2,0.5,0.3,0.9,0.5,0.9l0,0l0,0c0.4,0,0.6,3.2,0.4,5.1c-0.2,1.1-0.4,3.7-0.5,5.8c-0.1,2.2-0.3,4.1-0.5,4.4
			c-0.2,0.2-0.3,1.7-0.4,3.2c-0.1,1.5-0.3,2.8-0.4,3c-0.2,0.2-0.3,1.3-0.3,2.4c-0.1,1.1-0.3,2.6-0.4,3.2c-0.4,1.6-1,4.1-1.1,5.1
			c-0.1,0.6-0.2,1.1-0.3,1.1c-0.2,0-0.3,0.6-0.4,1.5c-0.1,0.8-0.2,1.6-0.4,1.8c-0.2,0.2-0.3,0.9-0.4,1.5c-0.1,0.6-0.2,1.6-0.4,2
			c-0.1,0.4-0.5,1.6-0.7,2.7c-0.3,1.1-0.6,2-0.7,2.2c-0.2,0.2-0.3,0.8-0.4,1.5c-0.1,0.6-0.3,1.2-0.4,1.3c-0.2,0.1-0.3,0.7-0.4,1.4
			c-0.1,0.6-0.3,1.2-0.4,1.2c-0.2,0-0.3,0.5-0.4,1c-0.2,1.4-0.9,3.4-1.1,3.4c-0.1,0-0.2,0.6-0.4,1.2c-0.1,0.6-0.3,1.2-0.5,1.3
			c-0.2,0-0.2,0.2-0.2,0.6c0,0.3-0.2,1.1-0.6,1.8c-0.3,0.7-0.6,1.4-0.6,1.5c0,0.2-0.6,1.7-1.9,4.9c-0.2,0.6-0.4,1.1-0.4,1.3
			c0,0.2-0.1,0.3-0.2,0.3s-0.4,0.4-0.5,1c-0.1,0.5-0.3,1-0.5,1c-0.2,0-0.2,0.3-0.2,0.6c0,0.3-0.1,0.6-0.2,0.8
			c-0.2,0.1-0.3,0.6-0.5,1.1c-0.1,0.6-0.3,1-0.5,1c-0.2,0-0.3,0.4-0.5,1c-0.1,0.5-0.3,1-0.5,1c-0.2,0-0.2,0.2-0.2,0.6
			c0,0.3-0.2,0.7-0.4,1c-0.2,0.2-0.6,1-1,1.8c-0.3,0.8-0.6,1.4-0.8,1.4c-0.2,0-0.2,0.2-0.2,0.3c0,0.4-2.1,4.2-2.5,4.3
			c-0.2,0.1-0.2,0.3-0.2,0.6s-0.1,0.4-0.2,0.4c-0.2,0-0.4,0.3-0.5,0.7c-0.1,0.4-0.5,1.1-0.9,1.5c-0.4,0.4-0.7,0.8-0.7,1
			c0,0.2-0.6,0.9-1.4,1.6c-1.1,1.1-1.5,1.4-2.5,1.4c0,0,0,0-0.1,0c-1.1,0-2.3-0.6-2.3-1.3c0-0.2-0.5-0.7-1-1.2
			c-0.8-0.7-1.6-1.1-2.4-1.1c-1.3,0-2.7,0.9-3.8,2.6c-0.7,1.1-1,1.2-2.1,1.2c-0.1,0-0.1,0-0.1,0c-1,0-1.4-0.2-2.6-1.5
			c-0.9-0.8-1.9-1.9-2.4-2.5c-1.3-1.8-4.8-7.3-4.8-7.7c0-0.2-0.2-0.3-0.2-0.3l0,0l0,0c-0.2,0-0.4-0.4-0.5-0.8
			c-0.1-0.5-0.3-0.9-0.5-1.1c-0.2-0.1-0.7-1.1-1.3-2.4c-0.6-1.2-1.2-2.2-1.4-2.3c-0.2-0.1-0.2-0.2-0.2-0.4c0-0.2-0.4-1.2-1-2.4
			c-0.5-1.1-1-2.1-1-2.3c0-0.2-0.2-0.2-0.3-0.2l0,0l0,0c-0.2,0-0.3-0.2-0.3-0.5s-0.3-1-0.6-1.6c-0.3-0.6-0.6-1.5-0.6-1.7
			c0-0.3-0.2-0.6-0.3-0.6l0,0l0,0c-0.2,0-0.4-0.6-0.5-1.3c-0.2-0.7-0.4-1.4-0.5-1.5c-0.3-0.2-1.3-2.4-1.3-2.9c0-0.2-0.2-0.5-0.3-0.5
			l0,0l0,0c-0.2,0-0.4-0.6-0.5-1.2c-0.2-0.6-0.3-1.2-0.5-1.2l0,0l0,0c-0.2,0-0.3-0.6-0.5-1.2s-0.4-1.2-0.5-1.2l0,0l0,0
			c-0.2,0-0.3-0.4-0.3-0.9c0-0.6-0.2-1.1-0.3-1.1c-0.2-0.1-0.3-0.4-0.3-0.7c0-0.2-0.2-0.9-0.5-1.4c-0.2-0.5-0.6-1.3-0.7-1.9
			c-0.1-0.6-0.3-1.1-0.5-1.2c-0.2-0.1-0.3-0.8-0.5-1.5c-0.1-0.8-0.3-1.4-0.5-1.4l0,0l0,0c-0.2,0-0.3-0.3-0.3-0.7
			c0-0.8-1.1-4.5-1.4-5c-0.2-0.2-0.3-1-0.5-1.7c-0.2-0.7-0.3-1.5-0.5-1.7c-0.2-0.2-0.3-1.1-0.5-1.9c-0.2-0.9-0.4-1.7-0.5-1.8
			c-0.2-0.1-0.3-0.5-0.3-0.9s-0.2-1.5-0.5-2.5c-0.2-1-0.5-2.5-0.6-3.4c0-0.9-0.2-1.7-0.3-1.8c-0.2-0.2-0.4-1.5-0.6-3.2
			c-0.2-1.6-0.4-3.2-0.6-3.3c-0.2-0.2-0.4-2-0.6-4.1c-0.2-2.1-0.4-3.8-0.6-3.8l0,0l0,0c-0.4,0-0.4-3.3-0.1-3.6
			c0.2-0.1,0.3-0.7,0.5-1.4c0.1-0.6,0.3-1.2,0.4-1.4c0.1-0.1,0.6-0.7,1-1.5c0.5-0.7,1.3-1.8,1.9-2.4c1.9-2,4.1-4.8,4.3-5.3
			c0.2-0.3,0.1-0.4-0.3-0.4l0,0c-0.3,0-0.6,0.2-0.8,0.3c-0.1,0.2-0.6,0.4-1.1,0.5c-0.5,0.1-0.9,0.3-1.1,0.5
			c-0.2,0.3-6.2,3.2-6.7,3.2c-0.3,0-2.6,2.3-2.6,2.7c0,0.3-1.2,3.1-1.5,3.4c-0.1,0.1-0.4,0.7-0.7,1.5c-0.3,0.7-0.7,1.4-0.8,1.4
			c-0.2,0-0.2,0.2-0.2,0.4c0,0.5-2.2,5.1-2.4,5.2c-0.2,0.1-0.2,0.3-0.2,0.6c0,0.2-0.1,0.4-0.2,0.4s-0.4,0.4-0.5,1
			c-0.1,0.5-0.3,1-0.5,1c-0.2,0-0.3,0.4-0.5,1c-0.1,0.5-0.3,1-0.5,1c-0.2,0-0.2,0.2-0.2,0.6s-0.1,0.6-0.2,0.9
			c-0.3,0.3-2.8,5.4-6.2,12.6c-1.1,2.3-2,4.1-2.1,4.2s-0.4,0.6-0.7,1.3c-0.2,0.6-1.1,2.4-1.9,4.1c-0.7,1.7-1.4,3.2-1.4,3.4
			c0,0.2-0.1,0.3-0.3,0.3c-0.2,0-0.3,0.2-0.3,0.4c0,0.2-0.2,0.8-0.4,1.2c-0.2,0.4-0.5,1.5-0.6,2.4c-0.1,0.8-0.3,1.6-0.4,1.9
			c-0.2,0.2-0.3,1.3-0.4,2.5c-0.2,3.2-0.7,8.8-1,9.1c-0.2,0.2-0.3,1.5-0.4,2.8c-0.1,1.4-0.3,2.8-0.4,3c-0.1,0.2-0.4,2-0.5,4
			c-0.4,5.4-0.6,6.2-0.8,6.6c-0.2,0.2-0.3,1.7-0.4,3.3c-0.1,1.7-0.2,3.2-0.4,3.2c-0.2,0.1-0.3,1.5-0.4,3.2c-0.1,1.6-0.3,3-0.4,3
			c-0.2,0-0.3,1.4-0.4,3c-0.1,1.6-0.3,3.1-0.4,3.2c-0.2,0.1-0.2,1.1-0.2,2.3c0,1.1-0.2,3.2-0.4,4.6c-0.2,1.4-0.4,3.2-0.4,4
			c0,0.8-0.2,1.5-0.2,1.7c-0.6,0.6,0.4,18.2,1.1,21c0.2,0.4,0.4,2.7,0.6,4.9c0.6,6.6,1.2,11.5,1.5,11.5l0,0l0,0
			c0.2,0,0.4,1.5,0.6,3.4s0.4,3.5,0.6,3.6c0.2,0.1,0.4,1.6,0.6,3.3c0.2,1.8,0.4,3.3,0.6,3.5c0.2,0.3,0.3,0.7,1.1,6.8
			c0.2,1.9,0.6,3.7,0.7,3.9c0.2,0.2,0.4,1.6,0.6,3.1c0.2,1.4,0.4,2.6,0.5,2.7s0.3,1.1,0.5,2.4c0.2,1.2,0.4,2.3,0.6,2.4
			s0.3,0.5,0.3,0.9c0,0.4,0.2,1.1,0.5,1.6c0.6,1.2,0.6,2.9,0,3.2h-0.1c-0.7,0-3.7-2.9-4.1-4.1c-0.1-0.4-0.3-0.8-0.4-0.8l0,0l0,0
			c-0.2,0-0.5-0.6-0.8-1.4c-0.3-0.8-0.7-1.4-0.9-1.4l0,0l0,0c-0.2,0-0.3-0.5-0.5-1.1c-0.1-0.6-0.3-1.1-0.5-1.1l0,0l0,0
			c-0.2,0-0.3-0.5-0.5-1.1c-0.1-0.6-0.3-1.1-0.4-1.1l0,0l0,0c-0.2,0-0.5-1.1-0.9-2.4c-0.4-1.3-0.7-2.6-0.9-2.8s-0.3-1-0.5-1.7
			c-0.2-0.8-0.3-1.5-0.5-1.7c-0.2-0.2-0.3-1.1-0.5-1.9c-0.2-0.9-0.3-1.7-0.5-1.8c-0.2-0.1-0.4-1.1-0.5-2.4c-0.1-1.2-0.4-2.2-0.5-2.2
			l0,0l0,0c-0.2,0-0.3-0.6-0.3-1.5s-0.2-1.6-0.3-1.7s-0.4-1.1-0.6-2.4c-0.1-1.2-0.3-2.2-0.5-2.2l0,0l0,0c-0.2,0-0.3-1.1-0.5-2.5
			c-0.2-1.4-0.4-2.5-0.5-2.5l0,0l0,0c-0.2,0-0.4-1.2-0.5-2.8c-0.2-1.5-0.4-2.8-0.5-3c-0.2-0.2-0.3-0.9-0.4-1.7
			c-0.6-4.9-1.1-8.3-1.4-8.4c-0.7-0.5-2.2-28.2-1.5-29.1c0.2-0.2,0.3-3.2,0.4-6.6c0.1-3.4,0.2-6.4,0.3-6.7c0.2-0.2,0.3-4.4,0.5-9.3
			c0.2-4.8,0.3-10.6,0.4-12.8c0.1-2.3,0.2-6.8,0.4-10.2c0.1-3.4,0.3-6.4,0.5-6.6c0.2-0.2,0.4-1.1,0.5-1.9c0.1-0.9,0.2-1.7,0.4-1.9
			c0.1-0.2,0.3-0.8,0.4-1.4c0.1-0.6,0.3-1,0.5-1c0.2,0,0.2-0.3,0.2-0.8c0-0.4,0.2-0.8,0.3-0.8s0.3-0.2,0.3-0.4
			c0-0.2,0.5-1.4,1.1-2.6c0.6-1.1,1.1-2.4,1.1-2.5c0-0.2,0.2-0.4,0.3-0.4s0.3-0.2,0.3-0.3c0-0.3,2.7-6.3,3-6.6
			c0.1-0.1,0.6-1.1,1.1-2.4c2-4.5,3.3-7.1,3.7-7.4c0.2-0.1,0.2-0.5,0.4-1c0.2-0.8,1.1-2.9,1.4-3.2c0.1-0.1,0.4-0.7,0.7-1.5
			c0.3-0.7,0.7-1.4,0.8-1.4c0.1,0,0.2-0.4,0.4-1c0.1-0.6,0.3-1,0.5-1c0.2,0,0.2-0.2,0.2-0.5c0-0.5,1.8-4.3,2.2-4.5
			c0.1-0.1,0.3-0.6,0.4-1.1c0.1-0.5,0.3-0.8,0.5-0.9s0.2-0.2,0.2-0.4c0-0.5,2.7-6.3,3-6.6c0.2-0.1,0.3-0.6,0.4-1.1
			c0.1-0.5,0.3-0.8,0.5-0.9c0.2-0.1,0.2-0.2,0.2-0.4s0.2-0.6,0.4-0.9c0.2-0.2,0.5-0.6,0.6-0.8c0.6-1.7,8.7-9.9,9.7-10
			c0.2,0,0.4-0.2,0.5-0.5c0.1-0.2,0.3-0.5,0.5-0.5c0.2,0,2.2-1.4,2.8-1.9c0.5-0.5,2.2-1.6,2.4-1.6c0.2,0,0.3-0.2,0.3-0.3
			c0-0.2,0.3-0.4,0.7-0.6c0.4-0.2,0.7-0.3,0.8-0.5c0.1-0.1,0.7-0.6,1.4-1.1l1.2-0.9h-1.9c-1.1,0-2,0.2-2.1,0.3
			c-0.1,0.2-1.1,0.4-2.1,0.6c-1.1,0.2-2.1,0.4-2.3,0.5c-0.2,0.2-1.1,0.3-2,0.5c-1,0.2-1.9,0.4-2.2,0.5c-2,1-3.2,2-7.6,6.6
			c-2.8,2.8-5.8,5.8-6.6,6.6c-1.9,1.8-32.9,33.9-35.1,36.4c-0.9,1.1-2.4,2.8-3.5,4c-1.9,2-5.8,6.4-6,6.9c-0.1,0.2-3.7,4.5-4.9,5.7
			c-0.2,0.3-1,1.1-1.5,1.9c-0.6,0.8-1.4,1.8-1.7,2.2c-0.4,0.4-0.7,0.9-0.7,1c0,0.2-0.4,0.6-0.9,1.1c-0.5,0.6-0.9,1.1-0.9,1.2
			c0,0.2-0.4,0.7-0.9,1.4c-0.5,0.6-1.1,1.3-1.2,1.5c-0.2,0.2-0.3,0.5-0.3,0.6c0,0.2-0.4,0.7-0.9,1.4c-0.5,0.6-0.9,1.3-0.9,1.5
			c0,0.2-0.1,0.4-0.2,0.4c-0.3,0-1.5,3-1.5,3.7c0,0.2-0.1,0.5-0.2,0.6c-0.2,0.1-0.3,1.4-0.4,2.8c-0.1,1.5-0.2,3.8-0.4,5.4
			c-0.2,1.5-0.4,4.6-0.5,6.9c-0.2,2.2-0.4,5.3-0.5,6.7c-0.2,1.5-0.4,4.8-0.6,7.4c-0.2,2.6-0.4,4.7-0.4,4.7c-0.1,0-0.4,4.1-1.1,14.7
			c-0.2,3.1-0.5,7-0.6,8.6s-0.4,5-0.5,7.6s-0.3,4.9-0.4,5.2c-0.1,0.2-0.3,2.4-0.5,4.9s-0.5,6.8-0.6,9.8c-0.2,3-0.3,6.9-0.2,8.8
			c0.2,3.5,0.2,4.1-0.5,4.1l0,0c-0.6,0-1.3-1.3-1.5-2.8c-0.2-0.6-0.4-1.2-0.5-1.3c-0.2-0.1-0.3-0.8-0.5-1.6s-0.4-1.5-0.6-1.6
			c-0.9-0.6-1.3-7.5-3-60.6c-1-31.8-1.1-33.1-0.5-34.7c0.3-1,0.6-1.7,0.8-1.7s0.3-0.3,0.5-0.7c0.1-0.4,0.5-1,0.8-1.3
			c0.4-0.3,1-1.1,1.3-1.7c0.3-0.6,0.9-1.4,1.2-1.7c0.3-0.3,0.9-1.1,1.3-1.9c0.3-0.6,0.8-1.1,1-1.1s0.2-0.2,0.2-0.3
			c0-0.4,1.6-2.6,2.7-3.7c0.4-0.4,0.6-0.8,0.6-1c0-0.2,0.4-0.7,0.8-1.3c0.5-0.6,1.1-1.4,1.5-1.9c0.3-0.5,1-1.3,1.4-1.9
			c0.4-0.6,0.9-1.1,1-1.3c0.1-0.2,0.5-0.6,0.7-1c0.2-0.4,1.3-1.7,2.2-2.8c0.9-1.2,2.2-2.8,2.8-3.4c0.6-0.6,1.1-1.3,1.1-1.5
			c0-0.1,0.6-0.9,1.4-1.7c0.7-0.9,1.4-1.6,1.4-1.7s0.3-0.6,0.9-1.1c0.5-0.5,1.4-1.6,2-2.4c0.6-0.9,1.9-2.2,2.6-3
			c0.7-0.8,1.8-2,2.2-2.6c3.9-5,27.8-29.7,31.6-32.8c0.5-0.4,1.5-1.3,2.3-2.1c0.7-0.7,1.5-1.4,1.8-1.4c0.2,0,0.5-0.2,0.5-0.3
			c0-0.3,1.2-1.6,2.9-3.2c0.6-0.6,1.8-1.6,2.5-2.3c1.9-1.8,4.5-3.9,4.8-4.1c0.2-0.2,0.9-0.7,1.5-1.3c0.7-0.6,1.4-1.1,1.6-1.1
			c0.2,0,0.4-0.1,0.4-0.2c0.1-0.2,1.9-1.2,3-1.5c0.4-0.2,0.8-0.3,0.9-0.5c0.2-0.3,5.6-2.3,6.3-2.3c0.2,0,0.6-0.2,0.5-0.3
			c0-0.2,0.5-0.4,1.1-0.5c0.6-0.1,1.2-0.3,1.3-0.5c0.1-0.2,0.4-0.3,0.8-0.3c1.1,0,0.6-0.6-0.6-0.7c-0.6-0.1-1.6-0.2-2.2-0.4
			c-0.5-0.2-2-0.2-3.7-0.2c-2.4,0-4.9,0.2-5,0.3c-0.2,0.2-0.7,0.4-1.5,0.5c-0.6,0.2-1.3,0.4-1.5,0.5c-0.1,0.2-0.4,0.3-0.8,0.3
			c-0.3,0-0.6,0.2-0.6,0.3s-0.4,0.4-0.8,0.5c-0.5,0.1-0.9,0.3-1.1,0.4c-0.1,0.2-0.9,0.6-1.9,1.1c-0.9,0.5-2.7,1.5-3.9,2.2
			c-2.8,1.6-5.3,2.9-5.7,2.9c-0.2,0-0.3,0.2-0.3,0.3c0,0.2-0.2,0.3-0.5,0.3c-0.2,0-0.5,0.2-0.5,0.3c0,0.2-0.3,0.4-0.6,0.6
			c-0.4,0.2-0.8,0.3-0.9,0.4c-0.1,0.1-0.8,0.6-1.7,1c-0.8,0.5-1.6,0.9-1.7,1c-0.1,0.1-0.7,0.5-1.4,0.8s-1.3,0.7-1.4,0.8
			c-0.1,0.1-0.8,0.5-1.7,1c-0.8,0.5-1.6,0.9-1.7,1c-0.1,0.1-0.7,0.5-1.4,0.8c-0.6,0.3-1.3,0.7-1.4,0.8s-0.8,0.5-1.7,1
			c-0.8,0.4-1.6,0.8-1.7,1c-0.1,0.1-1,0.6-2,1.1c-1.1,0.6-2.5,1.5-3.4,1.9c-0.8,0.5-1.9,1.1-2.4,1.5c-0.7,0.4-1.7,0.6-5,0.6
			c0,0,0,0-0.1,0c-0.1,0-0.1,0-0.2,0c-3,0-4.1,0.1-4.8,0.5c-0.7,0.4-0.8,0.6-0.6,0.9c0.5,0.6,0.2,2-0.4,2l0,0
			c-0.2,0-0.7-0.1-1.1-0.3c-0.2-0.2-1.3-0.6-2.3-1.1c-2.4-1.1-5.1-2.5-5.5-3c-0.2-0.2-0.6-0.5-1.1-0.6c-0.4-0.1-0.7-0.3-0.7-0.5
			c0-0.2-0.2-0.2-0.3-0.2l0,0l0,0c-0.4,0-2.6-1.6-3.7-2.7c-0.4-0.4-0.8-0.6-1-0.6l0,0l0,0c-0.3,0-1.6-1-3.5-2.7
			c-0.6-0.5-1.3-1-1.5-1l0,0l0,0c-0.2,0-0.6-0.3-1.1-0.7c-0.4-0.4-0.9-0.7-1.1-0.7l0,0l0,0c-0.2,0-0.3-0.1-0.4-0.2
			c0-0.2-0.8-0.8-1.7-1.5c-0.9-0.6-1.6-1.2-1.7-1.4c-0.1-0.1-1-0.8-2-1.5s-2-1.5-2.2-1.7c-0.2-0.2-1.2-1-2.4-1.9
			c-1.1-0.8-2.1-1.6-2.2-1.7s-0.8-0.6-1.6-1.2c-0.8-0.6-1.5-1.1-1.5-1.3c-0.1-0.2-0.2-0.2-0.4-0.2l0,0l0,0c-0.2,0-0.8-0.5-1.5-1
			c-1.8-1.5-2.6-2.1-3.9-2.9c-0.6-0.4-1.3-1-1.4-1.3c-0.1-0.2-0.3-0.5-0.6-0.5l0,0l0,0c-0.2,0-0.7-0.2-1.1-0.6
			c-0.4-0.3-0.8-0.6-0.9-0.6l0,0l0,0c-0.1,0-0.8-0.6-1.6-1.2s-1.9-1.5-2.4-1.9c-0.5-0.4-1-0.7-1.1-0.7l0,0l0,0
			c-0.2,0-0.7-0.4-1.3-0.9c-0.6-0.5-1.1-0.9-1.4-0.9l0,0l0,0c-0.2,0-0.2-0.1-0.2-0.2s-0.8-0.7-1.7-1.5c-1-0.6-1.7-1.3-1.7-1.4
			c0-0.1-0.4-0.4-0.9-0.7c-0.9-0.5-1.5-1-3.7-2.8c-0.6-0.5-1.1-0.8-1.2-0.8l0,0l0,0c-0.1,0-0.6-0.3-1-0.7c-0.4-0.4-1.4-1.1-2-1.6
			c-0.6-0.5-1.6-1.2-2.2-1.7c-0.6-0.4-1.1-0.9-1.5-1.1c-0.5-0.3-2.2-2-2.8-2.8c-0.9-1-1.9-4-2.3-6.2c-0.2-0.9-0.3-1.7-0.5-1.9
			c-0.2-0.2-0.4-1.2-0.5-2.4c-0.2-1.1-0.4-2.2-0.6-2.4c-0.2-0.2-0.4-1.5-0.5-3c-0.2-1.5-0.4-2.9-0.6-3.2c-0.3-0.6-0.4-1.6-1.2-8.6
			c-0.2-2.3-0.6-4.4-0.6-4.5c-0.1-0.2-0.3-2-0.5-4.1s-0.3-4-0.5-4.2c-0.1-0.2-0.4-2.6-0.7-5.1c-0.2-2.6-0.6-6-0.8-7.6
			c-0.6-5.5-1.1-13.9-1.3-20.4c-0.1-3.9-0.2-6.5-0.5-6.7c-0.2-0.1-0.3-2.1-0.4-5s0-4.9,0.2-5c0.2-0.1,0.3-1.1,0.3-2.3
			c0-1.9,0.1-2.9,0.7-6.1c0.1-0.5,0.2-0.8,0.4-0.8c0.2,0,0.3-0.6,0.4-1.2s0.3-1.2,0.4-1.2c0.2,0,0.3-0.4,0.5-1c0.1-0.6,0.3-1,0.5-1
			c0.2,0,0.2-0.2,0.2-0.5c0-0.3,0.4-0.5,0.7-0.5c0.2,0,0.5,0.1,0.6,0.3c0.1,0.2,0,2.1-0.1,4.4c-0.2,5.6,1.1,20.5,3.2,35.7
			c0.3,2.2,0.7,5.7,1.1,7.6c0.2,1.9,0.6,3.8,0.6,4.1c0.2,0.2,0.3,1.2,0.4,2.2c0.6,4.5,2,13.1,2.4,13.6c0.2,0.2,0.3,1.2,0.5,2.4
			c0.2,1.1,0.4,2.1,0.5,2.3c0.2,0.1,0.3,1.1,0.5,2.4c0.2,1.2,0.4,2.3,0.6,2.4c0.2,0.1,0.3,0.5,0.3,0.8c0,0.9,1,4.9,1.4,5.5
			c0.2,0.2,0.4,1.2,0.5,2c0.2,0.8,0.4,1.6,0.5,1.9c0.2,0.2,0.3,0.8,0.5,1.4s0.4,1.4,0.6,1.7c0.2,0.3,0.6,1.5,0.9,2.5
			c0.3,1.1,0.7,1.9,0.8,1.9l0,0l0,0c0.2,0,0.2,0.2,0.2,0.5c0,0.6,4.7,5.2,5.6,5.4c0.3,0.1,0.9,0.4,1.3,0.7c0.6,0.5,3.6,2.5,4.9,3.2
			c0.2,0.2,0.6,0.3,0.6,0.5c0.1,0.1,0.7,0.5,1.5,0.9c0.7,0.4,1.3,0.8,1.5,0.9c0.4,0.5,2.5,1.8,2.8,1.8l0,0l0,0
			c0.2,0,0.4,0.2,0.5,0.5c0.2,0.2,0.3,0.5,0.6,0.5l0,0l0,0c0.4,0,1.4,0.6,2.5,1.7c0.4,0.3,1.4,1,2.2,1.4c0.8,0.4,1.9,1.1,2.3,1.4
			c0.4,0.4,0.9,0.7,1,0.7c0.8,0.3,6.9,4.4,7.1,4.7c0.2,0.2,0.5,0.4,0.6,0.4l0,0l0,0c0.2,0,0.5,0.1,0.5,0.3c0,0.2,0.3,0.4,0.8,0.5
			c0.4,0.1,0.8,0.2,0.8,0.4s0.5,0.5,1.1,0.8s1.1,0.7,1.4,0.9c1.1,0.9,1.3,1.1,1.9,1.2c0.4,0.1,0.7,0.3,0.7,0.5s0.2,0.2,0.4,0.2l0,0
			l0,0c0.2,0,0.6,0.2,1,0.6s1.5,1.1,2.7,1.8c1.1,0.6,2.5,1.5,3,1.9c0.5,0.4,1.1,0.8,1.3,0.8l0,0l0,0c0.2,0,0.4,0.1,0.5,0.2
			c0.2,0.4,2.1,1.6,2.4,1.6l0,0l0,0c0.2,0,0.3,0.1,0.3,0.2c0,0.2,0.5,0.5,1.1,0.9c0.6,0.3,1.1,0.6,1.1,0.8c0,0.2,0.2,0.2,0.3,0.2
			l0,0l0,0c0.4,0,2.3,1.2,2.4,1.5c0.1,0.2,0.2,0.2,0.4,0.2l0,0l0,0c0.2,0,3.6,2.2,4.6,3c0.2,0.2,0.5,0.3,0.6,0.3l0,0l0,0
			c0.2,0,0.6,0.3,1.1,0.8c0.8,0.7,1.2,0.8,3.2,0.9c0.3,0,0.6,0,0.9,0c1.3,0,1.9-0.2,3.2-0.8c3-1.5,4.6-2.3,4.8-2.5
			c0.1-0.1,0.6-0.3,1.1-0.4c0.5-0.2,0.8-0.3,0.8-0.5c0-0.2,0.2-0.2,0.3-0.3c0.4,0,4.5-2,4.6-2.3c0.1-0.1,0.5-0.3,0.9-0.5
			c0.4-0.2,0.8-0.3,0.9-0.5c0.2-0.3,4.1-2.3,4.5-2.3c0.2,0,0.4-0.1,0.5-0.2c0.1-0.2,0.8-0.6,1.6-1.1c0.9-0.5,1.6-0.9,1.7-1
			c0.2-0.3,4.2-2.3,4.5-2.3c0.2,0,0.4-0.2,0.4-0.3s0.4-0.4,0.9-0.5c0.6-0.2,0.9-0.3,0.9-0.5c0-0.1,0.6-0.5,1.4-0.8
			c0.8-0.3,1.4-0.7,1.4-0.9s0.2-0.2,0.4-0.2c0.2,0,0.9-0.3,1.6-0.6c0.6-0.3,1.5-0.6,1.6-0.6s0.4-0.1,0.4-0.2s0.3-0.4,0.7-0.6
			c0.4-0.2,1.6-0.9,2.8-1.5c1.4-0.7,2.6-1.1,3.3-1.2c0.6,0,1.2-0.2,1.2-0.3s0.5-0.3,1.2-0.5c0.6-0.1,2.4-0.5,3.8-0.7
			c1.5-0.3,3.8-0.7,5.3-1.1c1.5-0.2,3.2-0.6,4.1-0.8c0.8-0.2,1.5-0.3,1.6-0.4c0.2,0,0.2-0.2,0.2-0.6c-0.1-0.6-1.8-1.5-3.7-1.7
			c-0.6-0.1-1.5-0.2-1.9-0.4s-1.5-0.5-2.5-0.7c-1.1-0.3-2.1-0.6-2.4-0.9c-0.2-0.2-1.3-0.3-2.5-0.3c-1.5,0-3.3,0.2-3.4,0.4
			c-0.1,0.2-0.3,0.4-0.6,0.4c-0.2,0-1.1,0.4-2,0.8c-0.9,0.4-2,0.9-2.6,1.1c-0.6,0.1-1.1,0.3-1.1,0.5c0,0.2-0.5,0.3-1.1,0.5
			c-0.6,0.1-1.1,0.3-1.1,0.5c0,0.2-0.2,0.3-0.5,0.3c-0.2,0-0.7,0.2-1.1,0.3c-1.3,0.7-3.5,1.6-4.1,1.6c-0.4,0-0.6,0.2-0.6,0.3
			c0,0.2-0.6,0.4-1.2,0.5c-0.6,0.2-1.2,0.3-1.2,0.4c0,0.2-3.7,1.9-6.2,2.8c-0.9,0.3-2,0.8-2.5,1.1c-0.4,0.2-1.1,0.4-1.3,0.4
			c-0.3,0-0.6,0.1-0.6,0.2s-0.6,0.5-1.5,0.9c-0.8,0.3-1.9,0.8-2.4,1.1c-0.5,0.2-1.2,0.5-1.6,0.5c-0.3,0-0.6,0.2-0.7,0.3
			c-0.2,0.5-2.8,0.7-5.5,0.7c-0.7,0-1.5,0-2.2-0.1c-1.8-0.2-3.3-0.3-3.4-0.5c-0.1-0.2-1.5-0.2-3.2-0.4c-0.7,0-1.3-0.1-1.8-0.1
			c-2.1,0-2.4,0.4-2.5,1.9c-0.1,1.1-0.2,1.4-0.7,1.4c-0.1,0-0.1,0-0.2,0c-0.4,0-0.8-0.2-1.2-0.7c-0.3-0.5-0.8-1.1-1-1.2
			c-0.2-0.2-0.3-0.5-0.3-0.7c0-0.2-0.2-0.3-0.3-0.3l0,0l0,0c-0.2,0-0.4-0.2-0.6-0.6c-0.2-0.5-1.9-3-3.5-5.4
			c-0.9-1.2-2.1-3.3-2.8-4.5c-0.2-0.4-0.5-0.8-0.6-0.9c-0.4-0.4-2.3-3.3-2.3-3.7c0-0.2-0.2-0.4-0.3-0.4l0,0l0,0
			c-0.2,0-0.4-0.3-0.5-0.7s-0.3-0.8-0.5-0.8l0,0l0,0c-0.2,0-0.2-0.2-0.2-0.3c0-0.2-0.3-0.8-0.7-1.3c-0.9-1.1-1.8-2.6-2-3.4
			c-0.1-0.2-0.3-0.5-0.5-0.5l0,0l0,0c-0.2,0-0.2-0.2-0.2-0.3s-0.4-1-1-1.7c-0.5-0.7-1-1.4-1-1.5c0-0.1-0.6-1.1-1.3-2.2
			c-0.7-1.1-1.3-2.2-1.3-2.4s-0.2-0.3-0.3-0.3l0,0l0,0c-0.2,0-0.4-0.3-0.5-0.7s-0.3-0.8-0.5-0.8l0,0l0,0c-0.2,0-0.3-0.3-0.5-0.8
			c-0.2-0.4-0.3-0.7-0.5-0.7l0,0l0,0c-0.2,0-0.3-0.2-0.3-0.4c0-0.2-0.2-0.6-0.4-0.9c-0.2-0.2-0.6-1-1.1-1.6
			c-0.3-0.6-0.8-1.3-0.9-1.4c-0.2-0.1-0.6-0.7-0.9-1.4c-0.3-0.6-0.7-1.3-0.9-1.4c-0.1-0.1-0.5-0.7-0.8-1.5c-0.3-0.7-0.7-1.3-0.8-1.3
			l0,0l0,0c-0.1,0-0.6-0.6-1-1.5c-0.5-0.8-0.9-1.5-1-1.6c-0.2-0.2-0.9-1.4-1.2-2c-0.2-0.3-0.6-1.1-1.1-1.8c-0.5-0.6-0.8-1.3-0.8-1.5
			c0-0.2-0.3-0.6-0.6-1c-0.8-0.9-1.9-2.9-1.9-3.6c0-0.3-0.2-0.7-0.4-1c-0.6-0.5-0.8-12.8-0.3-13.5c0.2-0.2,0.4-1.9,0.5-3.8
			c0.1-1.9,0.2-3.7,0.4-4s0.3-1.1,0.2-1.9c0-0.7,0.2-2.2,0.4-3.2c0.2-1.1,0.4-2.4,0.4-2.9s0.1-1,0.2-1c0.2,0,0.3-1.1,0.5-2.3
			c0.1-1.2,0.2-2.4,0.4-2.6s0.3-1.1,0.4-2.2c0.1-1.1,0.2-2.5,0.4-3.3c0.2-0.8,0.5-2.5,0.7-3.9c0.2-1.4,0.6-2.8,0.7-3
			c0.1-0.2,0.3-1.3,0.4-2.3c0.1-1,0.3-1.8,0.4-1.8c0.2,0,0.3-0.8,0.4-1.7c0.1-1,0.3-1.7,0.5-1.7s0.2-0.4,0.2-1
			c0-0.9,0.6-3.4,1.1-5.1c0.5-1.4,1.5-5,1.5-5.4c0-0.2,0.1-0.4,0.2-0.4c0.2,0,0.3-0.6,0.5-1.3c0.1-0.6,0.3-1.3,0.5-1.5
			c0.2-0.1,0.2-0.5,0.2-1c0-0.4,0.1-0.7,0.2-0.7s0.3-0.6,0.5-1.3c0.1-0.6,0.3-1.2,0.5-1.3c0.2,0,0.2-0.2,0.2-0.5
			c0-0.6,1.8-4.4,2.8-5.9c1-1.4,2.6-2.9,3-2.9l0,0c0.2,0.1,0.4,0.3,0.6,0.6c0.2,0.3,0.1,1-0.5,2.2c-0.5,1-0.8,2-0.8,2.4
			c0,0.4-0.1,0.6-0.2,0.7c-0.2,0-0.4,1-0.6,2.1c-0.2,1.2-0.6,3.3-0.7,4.8c-0.2,1.5-0.5,3.2-0.6,4c-0.1,0.7-0.2,1.4-0.4,1.4
			s-0.3,1.1-0.4,2.5s-0.3,2.6-0.5,2.7c-0.2,0.1-0.3,1.2-0.4,2.4c-0.1,1.2-0.2,2.4-0.4,2.6c-0.2,0.4-0.9,5.1-1,7.7
			c-0.1,1.1-0.2,2.4-0.4,2.7s-0.4,2.2-0.6,4.1c-0.5,6.6-1,11.3-1.1,11.3c-0.2,0-0.8,9.7-1.3,20c-0.1,1.1,0,2.1,0.2,2.4
			c0.3,0.6,1.1,2.1,1.9,3.4c0.3,0.6,0.8,1.2,1,1.5c0.2,0.2,0.4,0.5,0.4,0.6s0.3,0.6,0.7,1c1.1,1.2,2.8,3.3,2.8,3.5s0.3,0.5,1.9,2.4
			c0.4,0.4,0.9,1.1,1.2,1.5c0.5,0.7,1.1,1.4,2.7,3.2c0.5,0.5,0.9,1.1,0.9,1.1c0,0.2,0.2,0.4,0.4,0.6c0.7,0.7,2.3,2.6,2.8,3.3
			c0.2,0.4,0.7,1.1,1.1,1.4c0.3,0.4,1,1.1,1.5,1.8c0.5,0.6,1.1,1.2,1.2,1.3c0.2,0.1,0.4,0.4,0.4,0.6c0,0.2,0.2,0.5,0.2,0.5
			c0.2,0,0.7,0.7,1.4,1.5c0.6,0.7,1.3,1.5,1.5,1.6c0.2,0.1,0.4,0.4,0.4,0.6c0,0.3,0.1,0.4,1.7,2.1c0.6,0.6,1.4,1.6,1.9,2.3
			c0.9,1.2,2.2,2.8,3.7,4.4c0.4,0.4,0.7,0.9,0.7,1.1c0,0.2,0.4,0.6,0.9,1.1c0.8,0.9,1.4,1.5,3,3.6c0.4,0.5,0.9,1.1,1.1,1.3
			c0.2,0.2,0.6,0.7,1.1,1.3c0.5,0.6,1,1.2,1.2,1.4c0.2,0.2,0.4,0.6,0.4,0.7c0,0.4,1.1,0.6,2.4,0.6c1.3,0,2.8-0.2,2.8-0.6
			c0.1-0.2,0.3-0.3,0.6-0.3c0.2,0,0.6-0.2,1-0.3c0.2-0.2,1.2-0.6,2.1-1c0.9-0.4,1.9-0.9,2.5-1.1c0.5-0.2,1.2-0.5,1.6-0.5
			c0.3,0,0.6-0.2,0.7-0.2c0.1-0.2,2.9-1.7,5-2.7c2.2-1,3.3-1.5,5.1-2.4c1.1-0.5,2.3-1.1,2.6-1.2c0.3-0.2,1.5-0.7,2.8-1.3
			c1.1-0.6,2.4-1,2.6-1.1c0.2-0.1,0.4-0.2,0.4-0.3c0-0.2,0.2-0.3,0.3-0.3s1.3-0.5,2.4-1c1.1-0.6,2.4-1.1,2.9-1.2
			c0.5-0.1,1-0.3,1.1-0.5c0.2-0.2,2.9-0.4,5.1-0.4c1.5,0,2.8,0.1,2.9,0.2c0.1,0.2,0.8,0.3,1.6,0.4c0.7,0.1,1.5,0.3,1.5,0.5
			s0.9,0.3,1.7,0.4c0.9,0.1,1.5,0.2,1.5,0.4c0,0.2,0.6,0.3,1.4,0.4c0.7,0.1,1.6,0.3,1.9,0.5c0.6,0.3,4.6,1.1,5.5,1.1l0,0l0,0
			c0.2,0,0.5,0.1,0.5,0.2c0,0.2,2,0.6,3.3,0.6c0.4,0,0.7,0,0.9-0.1c0.3-0.1,1.2-1.2,2.1-2.4c0.8-1.2,1.6-2.2,1.7-2.2
			s0.2-0.5,0.2-1.1c0-0.6-0.2-1.1-0.3-1.1l0,0l0,0c-0.2,0-0.4-0.6-0.5-1.2c-0.2-0.6-0.3-1.2-0.5-1.2l0,0l0,0c-0.2,0-0.3-0.6-0.5-1.2
			s-0.4-1.2-0.5-1.2l0,0l0,0c-0.2,0-0.3-0.3-0.3-0.7c0-0.4-0.2-0.8-0.3-1c-0.2-0.1-0.4-0.6-0.5-1.1c-0.2-0.5-0.3-0.9-0.5-0.9l0,0
			l0,0c-0.2,0-0.2-0.2-0.3-0.5c0-0.2-0.2-1.1-0.6-1.9c-0.3-1.1-0.4-1.6-0.2-2.1c0.2-0.4,0.4-1.1,0.5-1.5c0.2-0.9,1.1-2,4.5-5
			c2.8-2.6,5-4.6,6.6-6.2c2.5-2.5,4.2-4,4.6-4c0.2,0,0.4-0.2,0.4-0.2c0-0.5,1.9-1.3,2.7-1.3h0.1c0.7,0.1,0.8,0.2,0.8,2.3
			c0,1.5-0.1,2.2-0.3,2.4c-0.2,0.1-0.4,0.3-0.4,0.5c0,0.5-1.9,4.5-2.2,4.5c-0.2,0.1-0.2,0.3-0.2,0.6c0,0.2-0.2,0.6-0.3,0.8
			c-0.6,0.6-1.1,1.5-1.5,2.7c-0.2,0.6-0.6,1.1-1,1.2c-0.2,0.1-0.5,0.4-0.5,0.6c0,0.2-0.4,0.9-0.9,1.5c-0.9,1.1-1.2,2.8-0.6,2.8l0,0
			l0,0c0.2,0,0.3,0.2,0.3,0.4s0.2,0.6,0.5,0.8c0.2,0.2,0.6,0.8,0.7,1.4c0.1,0.6,0.4,1.1,0.6,1.4c0.2,0.2,0.9,0.4,1.5,0.4
			c0.5,0,0.9-0.1,0.9-0.3c0-0.2,0.8-0.4,1.8-0.6c1-0.1,1.9-0.4,2.2-0.6c0.4-0.3,9-0.6,14.7-0.6c2.8,0,4.9,0.1,5,0.2
			c0.2,0.2,1.1,0.4,2.1,0.5c1.1,0.1,1.9,0.3,1.9,0.5c0.1,0.2,0.6,0.3,1.2,0.3c0.6,0,1.4-0.2,1.4-0.4c0-0.6,1.5-3.7,1.8-3.9
			c0.7-0.5,0.2-1.6-1.6-4.1c-1.1-1.4-1.9-2.8-1.9-3s-0.2-0.4-0.3-0.4l0,0l0,0c-0.2,0-0.4-0.3-0.5-0.7s-0.3-0.8-0.5-0.8l0,0l0,0
			c-0.2,0-0.3-0.3-0.5-0.8c-0.2-0.4-0.3-0.8-0.5-0.8l0,0l0,0c-0.2,0-0.4-0.4-0.5-0.9c-0.2-0.5-0.3-0.9-0.4-0.9l0,0l0,0
			c-0.2,0-1.4-2.4-1.4-2.9c0-0.2-0.2-0.5-0.3-0.5l0,0l0,0c-0.5,0-0.8-2.4-0.4-3.1c0.2-0.4,0.6-0.6,1.1-0.6c0.4,0,1,0.2,1.7,0.5
			c1.4,0.6,1.3,0.6,3.2,2.2c0.8,0.6,1.5,1.2,1.7,1.2l0,0l0,0c0.2,0,0.2,0.2,0.2,0.5c0,0.2,0.2,0.5,0.4,0.5l0,0l0,0
			c0.2,0,1.7,1.2,3.2,2.7c1.6,1.5,3.7,3.3,4.8,4.2c2.5,2.1,3.5,3.1,4.1,4.2c0.6,1.2,0.6,3.7,0.1,4.8c-0.2,0.5-0.4,1.1-0.4,1.5
			c0,0.2-0.1,0.6-0.2,0.7c-0.2,0.1-0.3,0.6-0.5,1.1c-0.1,0.6-0.3,1-0.5,1c-0.2,0-0.2,0.3-0.2,0.6c0,0.4-0.2,1.1-0.4,1.7
			s-0.6,1.5-0.9,2.2c-0.7,1.7-0.4,4,0.7,4.8c0.4,0.3,0.8,0.7,0.8,0.9c0,0.2,0.5,0.7,1.1,1.4l1.1,1.1l1.9-0.2
			c1.1-0.2,2.1-0.4,2.3-0.5c0.2-0.2,1.5-0.5,2.8-0.8c1.4-0.3,2.7-0.7,3-0.9c0.2-0.2,1.1-0.4,1.7-0.6c0.6-0.1,1.4-0.3,1.5-0.5
			c0.2-0.2,0.9-0.3,1.7-0.5c0.8-0.2,1.5-0.4,1.7-0.5c0.2-0.2,0.9-0.3,1.6-0.5c0.7-0.2,1.4-0.4,1.5-0.6c0.2-0.2,2.9-0.4,5.1-0.4
			c1.5,0,2.8,0.1,2.9,0.2c0.1,0.2,0.7,0.3,1.5,0.4c0.6,0.1,1.2,0.3,1.2,0.4c0,0.2,0.4,0.4,1,0.5s1,0.3,1,0.5c0,0.2,0.5,0.3,1.1,0.4
			c0.6,0.1,1.1,0.3,1.1,0.5c0,0.2,0.3,0.3,0.7,0.4c1.4,0.3,3.1,1,3.1,1.1c0,0.1,0.4,0.2,1,0.4c0.6,0.1,1,0.3,1,0.5
			c0,0.2,0.5,0.3,1.1,0.4c0.6,0.1,1.1,0.3,1.1,0.5c0,0.2,0.2,0.3,0.3,0.3l0,0l0,0c0.2,0,0.8,0.2,1.5,0.5c0.6,0.2,1.5,0.6,1.8,0.7
			s1.3,0.6,2.1,0.9c0.8,0.3,1.6,0.6,1.8,0.6l0,0l0,0c0.2,0,0.3,0.1,0.3,0.3c0,0.2,0.2,0.3,0.5,0.3l0,0l0,0c0.6,0,2.8,1,2.9,1.2
			c0.1,0.2,0.3,0.2,0.6,0.2l0,0l0,0c0.2,0,1,0.2,1.6,0.5c3.2,1.4,4.1,1.7,4.5,1.9c0.3,0.2,0.7,0.2,1,0.2l0,0l0,0
			c0.2,0,0.5,0.2,0.6,0.3c0.1,0.2,1.1,0.4,2.3,0.5l2.2,0.1l0.9-1.2c0.5-0.6,1.3-1.6,1.7-2c0.4-0.4,1.1-1.4,1.5-2
			c0.4-0.6,0.8-1.1,1-1.1c0.2,0,0.2-0.2,0.2-0.3s0.2-0.5,0.4-0.7c1.1-1.2,2-2.4,2-2.7c0-0.2,0.2-0.4,0.4-0.6
			c0.2-0.2,0.7-0.7,1.1-1.4c0.5-0.6,1.1-1.5,1.4-1.8c0.3-0.4,0.9-1.1,1.2-1.5c0.6-0.8,1.1-1.5,2.7-3.5c0.6-0.7,2.6-3.3,2.9-3.8
			c0.1-0.2,0.4-0.6,0.7-1.1c0.2-0.4,0.9-1.2,1.4-1.8c0.5-0.6,1.1-1.1,1.2-1.5c0.2-0.2,1-1.3,1.9-2.4c0.9-1.1,1.6-2.1,1.7-2.2
			c0.1-0.1,0.9-1.1,1.7-2.2c0.8-1.1,1.8-2.4,2.2-2.8s0.7-0.9,0.7-1c0-0.2,0.4-0.7,0.9-1.3c0.5-0.6,0.9-1.1,0.9-1.3
			c0-0.2,0.1-0.3,0.2-0.3c0.2,0,0.6-0.6,1-1.2s0.8-1.2,0.9-1.3s0.7-1,1.5-2c0.7-1.1,1.5-2,1.7-2.2c0.2-0.2,0.6-0.9,0.9-1.5
			s0.7-1.1,0.8-1.1c0.2,0,0.3-0.4,0.4-1c0.1-0.6,0.3-1,0.5-1c0.6,0-0.7-20.4-1.4-21.6c-0.2-0.3-0.3-1.5-0.3-2.5
			c0-1.1-0.2-2.1-0.2-2.2c-0.2-0.2-0.4-1.8-0.7-3.7c-1-7.9-1.4-10.7-1.6-11c-0.2-0.2-0.3-1.8-0.5-3.7c-0.2-1.9-0.4-3.3-0.6-3.3l0,0
			l0,0c-0.2,0-0.3-0.6-0.4-1.3c-0.4-2.9-1-5.7-1.3-6.2c-0.2-0.2-0.4-1.5-0.5-2.5c-0.2-1.1-0.4-2.1-0.5-2.3c-0.2-0.1-0.4-1.2-0.5-2.6
			c-0.2-1.3-0.4-2.5-0.5-2.7c-0.2-0.2-0.3-0.9-0.4-1.7c-0.2-1.5-0.8-3.7-1.2-4.8c-0.2-0.3-0.4-1-0.5-1.4c-0.2-0.4-0.4-0.9-0.6-1.1
			c-0.4-0.4-0.6-1.9-0.3-1.9c0.1,0,0.3-0.1,0.6-0.2C408.8,177.3,408.9,177.3,408.9,177.3z"/>
	</g>
</g>
</svg>
