<?xml version="1.0" encoding="utf-8"?>
<!-- Generator: Adobe Illustrator 22.1.0, SVG Export Plug-In . SVG Version: 6.00 Build 0)  -->
<svg version="1.1" id="Layer_1" xmlns="http://www.w3.org/2000/svg" xmlns:xlink="http://www.w3.org/1999/xlink" x="0px" y="0px"
	 viewBox="0 0 357.5 173.8" style="enable-background:new 0 0 357.5 173.8;" xml:space="preserve">
<path style="fill:#231F20;" d="M262.3,53.6l0.1-0.9l0.4-0.6l0.5-0.5l0.6-0.2l0.5,0.2l0.5,0.5l0.4,0.6l0.2,0.9l-0.2,0.8l-0.4,0.7
	l-0.5,0.5l-0.5,0.2l-0.6-0.2l-0.5-0.5l-0.4-0.7L262.3,53.6"/>
<path style="fill:none;stroke:#231F20;stroke-width:0.8958;" d="M262.3,53.6c0-1.3,0.7-2.3,1.6-2.3c0.7,0,1.6,1,1.6,2.3
	c0,1.2-0.9,2.2-1.6,2.2C263,55.8,262.3,54.8,262.3,53.6z"/>
<path style="fill:#FFFFFF;" d="M263.7,52.9l0.1-0.5l0.2-0.5l0.3-0.3l0.3-0.2l0.3,0.2l0.3,0.3l0.2,0.5l0.1,0.5l-0.1,0.5l-0.2,0.4
	l-0.3,0.4l-0.3,0.2l-0.3-0.2l-0.3-0.4l-0.2-0.4L263.7,52.9"/>
<path style="fill:none;stroke:#231F20;stroke-width:0.8958;" d="M263.7,52.9c0-0.7,0.8-1.5,0.8-1.5s0.8,0.8,0.8,1.5
	s-0.8,1.5-0.8,1.5S263.7,53.6,263.7,52.9z"/>
<path style="fill:#231F20;" d="M262.1,56.2l0.4,0.3l0.5,0.2l0.6,0.2h0.7l0.8-0.2l0.8-0.5l0.9-0.9l-0.1,0.5l-0.4,1.1l-0.4,0.5
	l-0.4,0.4L265,58l-0.6-0.2l-1.1-0.5l-0.7-0.5L262.1,56.2"/>
<path style="fill:none;stroke:#231F20;stroke-width:0.8958;" d="M262.1,56.2c0,0,2.4,1.9,4.8-1c0,0-0.6,3.4-2.5,2.6
	C262.6,57.1,262.1,56.2,262.1,56.2L262.1,56.2z"/>
<path style="fill:#231F20;" d="M257.8,66.7l0.6-0.7l0.4-0.7l0.1-0.4v-0.4l0.1-0.3l0.2-0.1l0.6,0.2l0.6,0.5l0.2,0.4l0.1,0.3l-0.3,0.3
	L260,66l-0.9,0.5L257.8,66.7"/>
<path style="fill:none;stroke:#231F20;stroke-width:0.8958;" d="M257.8,66.7c0,0,1.3-1.3,1.1-2.2c-0.1-0.9,2,0.1,1.8,0.9
	C260.4,66.1,257.8,66.7,257.8,66.7z"/>
<path style="fill:none;stroke:#231F20;stroke-width:2.1;stroke-linejoin:round;" d="M261.6,51.3c0,0,2.9-3.1,4.9,0.4
	c0.8,1.3,0,3.9,0,3.9"/>
<path style="fill:none;stroke:#231F20;stroke-width:2.1;stroke-linejoin:round;" d="M257.8,45.9c0,0-0.6,2.8,2.9,1.9
	c1.2-0.3,9.2-3.6,8.1,8.7c-0.2,1.3-3.4,5-7.1,3.4c-0.5-0.3,3.1,5.8-0.3,5.2"/>
<path style="fill:none;stroke:#231F20;stroke-width:2;stroke-linejoin:round;" d="M267.4,63c0,0,5.5-1.8,5.7,4.1"/>
<path style="fill:#231F20;" d="M260.4,71.2l3.5-1.2l2.6-1l0.9-0.5l0.4-0.5l0.3-0.5l0.3-0.2h0.2l0.2,0.2L269,68v0.4l-0.2,0.2
	l-0.5,0.4l-1.1,0.4l-2.8,0.9L260.4,71.2"/>
<path style="fill:none;stroke:#231F20;stroke-width:2.9958;stroke-linejoin:round;" d="M260.4,71.2c0,0,7-1.9,7.5-3.2
	c0.6-1.4,1.5,0,0.9,0.5C268.1,69.1,260.4,71.2,260.4,71.2z"/>
<path style="fill:none;stroke:#231F20;stroke-width:3.8958;stroke-linejoin:round;" d="M257.6,67.7c0,0,0,2.9,2.5,3.4"/>
<path style="fill:none;stroke:#231F20;stroke-width:2;stroke-linejoin:round;" d="M259.2,32.5c0,0-1.1,2.2,0.4,7.4
	c0.5,1.8-1.4,5-2.2,6.6c-0.7,1.4-1.7,4.7,0.3,7.2c2,2.5-1.7,8.3-2.3,11c-0.4,2.2,2.3,2.5,2.3,2.5"/>
<path style="fill:none;stroke:#231F20;stroke-width:2;stroke-linejoin:round;" d="M272.7,21.7l-2-0.9l0.1,0.4
	c-0.2,0.6-0.5,1.3-1,1.8c-0.1-0.3-0.5-0.5-0.7-0.6c1,1-2.3,1.8-3.2,2.9c-0.7,0.7-1.4,1-2.9,1.7c-1.2,0.7-1.4,2.5-2.6,2.9l-0.3-0.5
	c-0.1,0.6-0.1,1-0.1,1.6c-0.2-0.1-0.8-0.2-0.8-0.2c0.3,0.4-0.4,1-0.4,1.4"/>
<path style="fill:none;stroke:#231F20;stroke-width:2.1;stroke-linejoin:round;" d="M278.7,47.1c0,0-1-0.5-1.3-2.5
	c-0.1-2.5,2.3-5.5,5.7-1.4c0.7,0.8,2.7,6.2,0.7,7.9c-1.9,2.1-3.5,1.1-3.5,1.1c-0.7-1.4,0.3-1.3,0.9-1.8s-0.3-3.3-1.9-3.2"/>
<path style="fill:none;stroke:#231F20;stroke-width:2;stroke-linejoin:round;" d="M300.9,25.9c-3.1-2.3-13.5-9.7-27.5-4.2"/>
<path style="fill:#231F20;" d="M290.6,65.7l-0.8,2.6l-0.5,1l-0.5,1l-0.7,0.9l-0.8,1l-2.4,2.3l-0.9,0.6l-0.9,0.5l-1,0.4l-1.1,0.3
	l-2.3,0.1l-2.4-0.1l-2.4-0.5l-2.6-0.4l-2.5-0.4l-2.5-0.4l4.8,0.6l2.3,0.3l2.2,0.2l2.1-0.1l2-0.4l1.8-0.7l0.8-0.5l0.9-0.6l1.4-1.2
	l1.3-0.9l2.3-1.4l0.9-0.7l0.7-0.9l0.6-1L290.6,65.7"/>
<path style="fill:none;stroke:#231F20;stroke-width:2.1;stroke-linejoin:round;" d="M290.6,65.7c-1.2,4.1-1.9,5.2-5.9,8.7
	c-4.4,3.7-12.1,0.7-18.6,0c6.6,0.7,12.3,2.5,16.7-1.3C286.8,69.6,289.4,69.7,290.6,65.7z"/>
<path style="fill:#231F20;" d="M303.8,77.6l-2.1-1.1l-2.3-1.3l-2.1-1.5l-2-1.7l-1.8-1.8l-1.4-2l-1.1-2l-0.4-1.1l-0.2-1l-0.3-2.3
	l-0.1-2.2l0.2-2.1l0.3-1.8l0.4-1.7l0.6-1.6l0.6-1.4l0.7-1.3l1.6-2.3l1.6-2l2.8-3.1l-2.5,3.1l-1.3,1.9l-1.3,2.3l-0.5,1.4l-0.4,1.3
	l-0.4,1.6l-0.3,1.6l-0.2,1.9v2l0.1,2.2l0.3,2.3l0.5,2.1l0.9,2.1l1.1,2.1l1.4,1.9l1.6,1.7l1.8,1.5l2,1.3L303.8,77.6"/>
<path style="fill:none;stroke:#231F20;stroke-width:2;stroke-linejoin:round;" d="M303.8,77.6c-5.5-2.5-12.5-8-13.2-13.5
	c-2-13,5.6-18.3,8.5-21.8c-2.9,3.5-8.5,8.5-6.5,21.5C293.3,69.5,298.4,75.1,303.8,77.6z"/>
<path style="fill:#231F20;" d="M375.4,52.4l-1.7-0.3l-1.4-0.1l-1.3-0.1l-1.2,0.2l-1.1,0.2l-1,0.3l-1.7,0.9l-1.6,1.2l-1.6,1.4
	l-1.9,1.5l-2.3,1.5l-3.9,2.8l-3.2,2.6L348,67l-2,1.2l-2.2,1.2l-1.6,0.7l-1.5,0.6l-1.5,0.4l-1.4,0.2h-1.4l-1.4-0.1l-1.3-0.2l-1.3-0.4
	l-2.3-0.8l-2.1-1.2l-1.8-1.3l-1.4-1.3l1.7,1.3L329,69l2.9,1.4l3.3,1.3l1.8,0.4l1.8,0.4l1.8,0.3l1.9,0.2l1.8-0.1l1.7-0.3l1.7-0.5
	l1.7-0.7l2.2-1.3l1.7-1.5l1.5-1.6l1.3-1.8l1.4-1.8l1.4-1.7l1.7-1.7l2-1.5l2.3-1.3l2.1-1.1l1.9-0.7l1.8-0.5l2.1-0.3l2.3-0.1h5.9
	l1.4-0.1l1.2-0.2l0.8-0.4l0.7-0.5l1.6-1.5l1.2-1.1l1.5-1.3l-0.1-0.1l-0.2,0.1l-0.5,0.5l-0.9,0.7l-1.4,0.9l-1.9,0.8l-1.1,0.3
	l-1.3,0.3l-1.4,0.1H379l-1.7-0.2L375.4,52.4"/>
<path style="fill:none;stroke:#231F20;stroke-width:2;stroke-linejoin:round;" d="M375.4,52.4c-9.5-1.9-10.2,2.5-16.8,6.8
	c-5.9,3.9-8.4,7.1-14.7,10.3c-8.6,4.5-15.7,0-19.1-3.2c3.4,3.2,16,9.7,24.6,5.2c6.3-3.1,7.4-9.1,13.2-13c6.7-4.2,8.7-4,18.3-4
	c4.6,0,3.7-1.3,8.5-5C389,48.7,386.1,54.6,375.4,52.4z"/>
<path style="fill:#231F20;" d="M312.1,148.9l0.2-0.8l0.5-0.7l1.3-1.6l3.5-3.4l1.7-1.8l0.6-1l0.5-0.9l0.4-1.1l0.1-1l-0.1-1.1
	l-0.5-1.2l1.1-0.6l0.7-0.8l0.5-0.9l0.4-1.1l0.2-1.2l0.1-1.3l0.1-3.1l-2.5-0.5l0.6-1.2l0.9-1.1l1.8-2.3l0.8-1.3l0.7-1.4l0.5-1.7
	l0.2-2l-2.5,0.4l0.6-1.4l0.3-1.4l0.1-1.3l-0.2-1.3l-0.5-1.3l-0.5-1.2l-0.7-1.2l-0.8-1.2l-2-2.1l-2.2-1.9l-4.1-3.2l-2.2-1.7l-1.8-1.7
	l-1.5-1.9l-1.3-2l-1.2-2.2l-1.1-2.3l-2.3-4.9l1.1,2.5l0.9,2.3l1.6,4.4l1,2l1.3,1.9l1.6,1.7l2.1,1.7l4.1,3.2l2.2,1.9l2,2.1l0.9,1.2
	l0.7,1.2l0.5,1.2l0.4,1.3l0.2,1.3v1.3l-0.4,1.4l-0.5,1.4l2.5-0.5l-0.2,2l-0.4,1.7l-0.7,1.4l-0.8,1.3l-1.8,2.3l-0.9,1.1l-0.6,1.2
	l2.4,0.4v3.1l-0.1,1.3l-0.2,1.2l-0.4,1.1l-0.5,0.9l-0.7,0.8l-1.1,0.6l0.4,1.2l0.2,1.1l-0.1,1l-0.2,1.1l-0.4,0.9l-0.5,1l-1.4,1.8
	l-2.9,3.4l-1.1,1.6l-0.4,0.7L312.1,148.9"/>
<path style="fill:none;stroke:#231F20;stroke-width:2;stroke-linejoin:round;" d="M312.1,148.9c0.5-4.1,11.3-8.6,8.2-14.6
	c3.2-1.6,3.1-4.6,3.1-9c-1-0.1-1.5-0.2-2.5-0.5c1.5-3.2,5.5-5.2,5.5-11c-1,0.1-1.6,0.4-2.5,0.4c3.9-7.8-5.2-13.9-10-17.5
	c-6.4-4.2-8-9.8-11.3-16.6c3.2,6.8,3.2,12.3,9.5,16.6c4.8,3.6,13.9,9.6,10,17.5c0.9-0.1,1.6-0.4,2.5-0.4c0,5.8-3.9,7.7-5.5,11
	c1,0.3,1.6,0.4,2.4,0.4c0,4.4,0.3,7.4-3,9C321.6,140.4,312.6,144.9,312.1,148.9z"/>
<path style="fill:none;stroke:#231F20;stroke-width:2;stroke-linejoin:round;" d="M331.6,72.2c1.3,1.6,3.1,2.5,4.1,4
	c3.9,6.1,3.3,10.9,5.8,18.3c1,3,3.5,5.8,4.2,9.7c0.6,5.5-3.6,7.7-1.7,12.8c2.1,6.1-4,14.8-4.5,16.5c-0.6,2.3-3.5,2.4-4.8,3.5
	c-2.5,2.3-6.5,6.8-5.5,11.8"/>
<path style="fill:#231F20;" d="M411.6,65.9l0.8,0.9l0.6,1l0.5,0.9l0.4,0.9l0.1,1l0.1,0.9l-0.3,1.9L413,75l-1,1.6l-1.2,1.4l-1.3,1.3
	l-3.3,2.6l-1.7,1.3l-1.9,1.2l-2.1,1.1l-2.2,1l-2.3,0.8l-2.5,0.6l-1-1.8l-1-1.7l-0.4,1.4l-0.5,1.3l-0.5,1.2l-0.7,1.1l-0.9,1l-0.9,0.9
	l-1,0.8l-1.1,0.7l-2.4,1.2l-2.7,0.9l-2.8,0.8l-3.1,0.6v-4l-1.4-0.4l-1.9-0.7l-1.9-0.6l-1.4-0.3l1.7,0.2l1.8,0.3v4.1l1.4-0.3l1.2-0.1
	h3.6l0.7-0.1l0.6-0.2l0.8-0.5l0.8-0.5l0.8-0.9l1.1-1.1l2.5-3.4l3.4-5l1,1.8l1,1.7l5.1-1.1l4.7-1.3l2.2-0.8l2-1l1.9-1l1.6-1.3
	l1.4-1.3l1.4-1.5l1.3-1.7l0.9-1.9l0.4-0.9l0.2-1l0.2-1l-0.1-1l-0.2-1l-0.4-0.9l-0.5-1L411.6,65.9"/>
<path style="fill:none;stroke:#231F20;stroke-width:2;stroke-linejoin:round;" d="M411.6,65.9c4.8,4.8,1.5,10.5-2,13.5
	c-4.2,3.5-9,7.1-16,8.6c-0.6-1.3-1.4-2.3-2-3.5c-1.6,8.1-8.8,10.4-17,12v-4c-1.3-0.2-5.2-2-6.5-2c1.3,0,2.3,0.4,3.5,0.4V95
	c8.1-1.6,6.5,4,17-12.1c0.6,1.3,1.3,2.3,2,3.5c7-1.3,13.2-3,17.5-6.5C411.6,76.9,416.3,70.6,411.6,65.9L411.6,65.9z"/>
<path style="fill:#231F20;" d="M276.8,41.6l0.5-1.2l0.6-0.7l0.7-0.5l0.8-0.3l0.6-0.1h1.2l0.6,0.1l0.6,0.2l0.8,0.5l0.9,0.6l0.8,0.9
	l0.7,1.3l0.6,1.8l0.2,1.9v1.7l-0.4,1.6l-0.4,1.4l-0.7,1.1l-0.8,0.7l-0.9,0.5l-1,0.1l1.1-0.1l1.1-0.5l1.1-0.7l1.1-1.1l0.8-1.3L288,48
	l0.2-0.9v-1.8l-0.2-1l-0.5-1.7l-0.8-1.2l-0.9-0.9l-0.9-0.5l-0.8-0.3l-0.7-0.1h-0.7l-0.7-0.2l-0.8-0.2h-1l-1,0.2l-1,0.4l-0.8,0.7
	l-0.3,0.5L276.8,41.6"/>
<path style="fill:none;stroke:#231F20;stroke-width:2.1;stroke-linejoin:round;" d="M276.8,41.6c1-3.5,4.4-2.8,4.4-2.8
	s3.9,0,5.1,5.3c1.1,5.2-1.5,9.2-4.1,9c2.5,0.2,7-3.5,5.8-8.8c-1.3-5.2-5.4-4.7-5.4-4.7S277.8,38.1,276.8,41.6z"/>
<path style="fill:none;stroke:#231F20;stroke-width:2;stroke-linejoin:round;" d="M260.5,72c0,0-0.3,2.2,2.9,3.2
	c3.2,1,5.9,5.5,10.5,5.2"/>
<path style="fill:#231F20;" d="M298.9,87.9l-0.5-1.7l-0.3-0.5l-0.3-0.4l-1-0.8l-1.5-1l-1,0.7l-0.6-0.5l-0.5-0.4l-0.6-0.1H292
	l-0.5,0.3l-0.5,0.4l-0.5,0.6l-0.4,0.8l-1.2-0.6l-1.5-0.6l-3.5-1.3l-0.1,0.4l-0.2,0.2l-0.5,0.3l1,1l0.2,0.1l0.5,0.2l-1.3-0.3
	l-1.1-0.4l-1.9-0.8l-1.7-0.8l-1-0.2l-1.1-0.1l-0.1,1.2l-0.2,1.1l-1.6-2.7l-1.1-1.3l-0.6-0.5l-0.6-0.3l1.1,0.4l0.9,0.7l0.6,0.8l0.6,1
	l0.1-1.2l0.2-1.1l1.1,0.1l1,0.3l1.8,0.7l1.8,0.9l1.1,0.3l1.3,0.3l-0.8-0.3l-0.5-0.5l-0.5-0.5l0.3-0.1l0.3-0.2l0.3-0.4l3.5,1.2
	l1.5,0.6l1.2,0.7l0.5-0.8l0.5-0.6l0.5-0.4l0.5-0.2l0.5-0.1l0.6,0.2l0.5,0.4l0.5,0.6l1-0.8l1,0.6l0.8,0.6l0.6,0.6l0.5,0.7L298,85
	l0.4,0.9L298.9,87.9"/>
<path style="fill:none;stroke:#231F20;stroke-width:2;stroke-linejoin:round;" d="M298.9,87.9c-0.5-2.9-0.9-2.9-3.5-4.5
	c-0.5,0.3-0.8,0.6-1,0.7c-1.5-1.9-3.4-1.3-4.3,1c-1.4-1-3.7-1.4-6.2-2.5l-0.7,0.8c0.2,0.3,0.7,0.7,1,1l0.7,0.3
	c-3.6-0.5-4.9-2.5-8-2.5c0,0.9-0.3,1.5-0.3,2.3c-0.8-1.3-2.3-4.2-4-4.8c1.7,0.5,2.3,1.5,3.2,3c0-0.8,0.3-1.4,0.3-2.3
	c3.2,0,4.3,2.1,8,2.5l-0.8-0.3c-0.2-0.4-0.6-0.7-1-1l0.8-0.7c2.6,1,4.9,1.4,6.2,2.5c1-2.4,2.9-2.9,4.2-1c0.3-0.3,0.8-0.6,1-0.8
	C297.4,83.1,298.4,85,298.9,87.9L298.9,87.9z"/>
<path style="fill:none;stroke:#231F20;stroke-width:2;stroke-linejoin:round;" d="M402.6,23.4c-7.7-1.7-12.5-2.6-15.9-5.8
	c-3.5-3.2-21.8-6.2-23.3-5.2"/>
<path style="fill:#231F20;" d="M415.4,41.6l0.3-0.3l0.3-0.4l0.7-1.4l0.6-1.3l0.4-0.5l0.3-0.3l-0.2-0.9l-0.3-0.7l-0.5-1.1l-0.3-0.5
	l-0.1-0.6l-0.1-0.7l0.2-1l-1-0.5l-0.6-0.7l-0.4-0.9l-0.2-1l-0.2-2.2l-0.2-1.1l-0.3-1.2l-0.4,1.3l-0.3,0.7l-0.1,1l-1.1-0.4l-0.6-0.6
	l-0.4-0.8l0.1-1.2l-1.3-0.1l-1.2-0.4l-0.9-0.5l-0.7-0.5l0.5-0.5l0.4-0.5l-2.3,0.2l-3.2,0.1h-5.5l2.1,0.2l2.6,0.4l2.6,0.3h1.1
	l0.9-0.1l-0.5,0.5l-0.5,0.5l0.7,0.6l0.9,0.4l1.2,0.4l1.2,0.1v1.2l0.4,0.9l0.6,0.5l1.1,0.4l0.3-1.7l0.5-1.3l0.3,1.2l0.2,1.1l0.2,2.3
	l0.2,0.9l0.4,0.9l0.6,0.7l0.9,0.5l-0.1,1l0.1,0.7l0.2,0.6l0.2,0.5l0.5,1.1l0.3,0.7l0.1,1l-0.2,0.1l-0.1,0.4l-0.1,1l-0.1,1l-0.1,0.4
	L415.4,41.6"/>
<path style="fill:none;stroke:#231F20;stroke-width:2.1;stroke-linejoin:round;" d="M415.4,41.6c0.6-0.3,1.9-3.9,2.5-4
	c-0.4-3-1.9-2.4-1.3-5.5c-3.1-1.1-1.8-4.5-2.8-7.5c-0.2,0.9-0.6,1.5-0.7,3c-1.7-0.4-2.3-1.1-2-3c-1.8,0-3.2-0.7-4.1-1.5
	c0.4-0.2,0.8-0.6,1-1c-2.1,0.4-8.8,0.3-11,0.3c2.2,0,7.3,1.1,9.3,0.7c-0.3,0.4-0.5,0.8-1,1c0.9,0.8,2.3,1.5,4,1.5
	c-0.2,1.9,0.5,2.5,2.1,3c0.1-1.4,0.4-2.1,0.7-3c1.1,3-0.3,6.4,2.7,7.5c-0.5,3.1,1.1,2.5,1.3,5.6C415.4,38.8,416,41.4,415.4,41.6z"/>
<path style="fill:none;stroke:#231F20;stroke-width:2;stroke-linejoin:round;" d="M300.6,25.4c0,0,1.1,2.1,3.8,1.8
	c1.1,2.1,2,2.7,1,5.2c0.3-0.1,0.7-0.7,0.7-0.7c1.3-1,2-2,2.8-3.2c3.2,1,4.9-2.7,5.9-5.8c2.8,2.6,8.4-8.3,13.1-8.3
	c-0.2,0.1-0.8,0.3-0.8,0.3c-3.2,3.2,3.5,4.2,5-0.3c3.1,3.9,6.2-0.3,9-1c2.8-0.5,2,1.1,3.5,1.3c5.2,0.9,12.2-2,17.5-2"/>
<path style="fill:none;stroke:#231F20;stroke-width:2;stroke-linejoin:round;" d="M342.1,131.4c3.4-1.7,7,0.5,9-3.5
	c4.1-8-2.1-15.8-4-19.4"/>
<path style="fill:#231F20;" d="M574.1,15.9l-0.4,1.4l-0.5,1.3l-0.5,1.1l-0.5,0.9l-1.4,1.5l-1.4,1.2l-3,2l-1.3,1.2l-0.6,0.6l-0.5,0.8
	l-0.8,1.1l-1.1,1.1l-1.3,1.2l-1.7,1.2l-3.8,2.3L551,37l-4.3,2l-3.9,1.7l-5.3,1.9l-2.3,0.7l-2.2,0.6l-4,0.8l-3.8,0.5l-3.7,0.3
	l-3.8,0.3l-4,0.5l-4.5,0.9l-5.1,1.4l-5.6,1.9l-4.2,1.7l-3.8,1.7l-4.4,2.2l-4,1.8l-4.4,1.8L473,61l-4.8,1.3l-2.3,0.5l-2.3,0.4
	l-2.3,0.3l-2.2,0.1H457l-2-0.2l-1.8-0.4l-1.6-0.6l1.6,0.6l1.9,0.5l2,0.4l2.2,0.3l4.6,0.2l4.9-0.2l5-0.6l4.9-1l4.5-1.3l2.1-0.8
	l1.9-0.9l4.4-2.2l3.8-1.7l4.2-1.7l5.6-1.9l5.1-1.4l4.5-0.9l4-0.5l3.8-0.3l3.7-0.3L530,48l4-0.8l4.5-1.3l5.3-2l4-1.6l4.2-2l4.3-2.2
	l3.8-2.3l1.7-1.2l1.4-1.2l1.2-1.1l0.7-1.1l1-1.6l1.3-1.5L570,25l1.3-1.9l1.2-2.1l1-2.4L574.1,15.9"/>
<path style="fill:none;stroke:#231F20;stroke-width:0.5;stroke-linejoin:round;" d="M574.1,15.9c-1.6,8.2-7.5,7.5-10,12
	c-3.1,5.7-22.9,13.4-26.5,14.5c-12.9,4.4-18.8,1.3-33.5,6c-8.8,2.9-11.3,4.2-18,7.5c-9.7,4.9-26.3,10-34.5,6.5
	c8.2,3.5,25.7,1.9,35.5-3c6.7-3.2,9.2-4.6,18-7.5c14.7-4.8,20.6-1.6,33.5-6c3.7-1.1,23.6-8.9,26.5-14.5
	C567.7,26.9,572.5,24.1,574.1,15.9L574.1,15.9z"/>
<path style="fill:none;stroke:#231F20;stroke-width:2;stroke-linejoin:round;" d="M411.6,63.9c5.4,2.8,10.8,6.3,19.5,4.5
	c6.2-1.3,12-4.5,19-4.5"/>
<path style="fill:none;stroke:#231F20;stroke-width:6.5958;stroke-linejoin:round;" d="M573.6,17.3c2.5-7.9,24.8-7.7,21.8,1.1
	c-0.5,1.4-2.5-0.3-6-0.3s-5.8,5.9-1.7,8"/>
<path style="fill:none;stroke:#231F20;stroke-width:2;stroke-linejoin:round;" d="M587.6,26.3c4,2.1,16.4,5,18-10
	c0.3-2.7-11.8-24.2-34.3-9.2c-22.5,14.9-23.2,20-29.7,21.2c-6.5,1.3-58.5,17.2-62.6,18c-4,0.7-31.3,12-46.7,6.9c-15.3-5-16-4-17-12"
	/>
<path style="fill:none;stroke:#231F20;stroke-width:2.9958;stroke-linejoin:round;" d="M313.1,145.6c0,0-2.8-1.7-2-3
	c0.7-1.3,3-2.5,3-2.5l2.8,0.5"/>
<path style="fill:none;stroke:#231F20;stroke-width:2.9958;stroke-linejoin:round;" d="M302.6,146.9c0,0,2.2,6,4.1,6.7"/>
<path style="fill:none;stroke:#231F20;stroke-width:2;stroke-linejoin:round;" d="M299.9,88.6c2,6.3,2.4,11.5,5.5,14.5
	c3,3.1,8.5,0,8.5,11c0,11.1,0.3,19.7-1.3,21.1c-1.4,1.3-6.8,3-8.7,6.2c-2,3.2-5.2,3.1-4.8,6.5c0.5,3.5,3.9,6.9,5.8,6.8
	c1.5-0.2,5-0.4,4-3s-3.7-7.4-1.5-5.5c2.3,1.7,4.8,4,4.8,4"/>
<path style="fill:none;stroke:#231F20;stroke-width:2.9958;stroke-linejoin:round;" d="M325.9,149.1c0,0-0.3,5.8-1.1,7.3
	c-0.5,1.4,5-0.7,4-7"/>
<path style="fill:none;stroke:#231F20;stroke-width:2;stroke-linejoin:round;" d="M321.6,149.1c0,0-0.5,6.3-1.3,8.3
	c-0.6,2,3.3,0.7,3.3-3c0-2.1,0.7-5.8,0.7-5.8l1.7,0.3"/>
<path style="fill:none;stroke:#231F20;stroke-width:2.9958;stroke-linejoin:round;" d="M339.8,142.6c0,0-4.2,3.2-3,6.8"/>
<path style="fill:none;stroke:#231F20;stroke-width:2.9958;stroke-linejoin:round;" d="M338.2,140.4c0,0-3.3,2-4.4,3.5
	c-1,1.5-1,5-1,5"/>
<path style="fill:none;stroke:#231F20;stroke-width:2;stroke-linejoin:round;" d="M320.9,149.9l-1,3.2c0,0-1.3,5.5-3,5.2
	c-1.6-0.3,0-5.5,0-5.5l0.7-5.2l-2.8,2.4c0,0,0.3,2.1-0.4,5c-0.6,3-2,0.3-2,0.3l-0.5-6.3"/>
<path style="fill:none;stroke:#231F20;stroke-width:2;stroke-linejoin:round;" d="M328.9,149.6c0-1.3,8.3,1.5,11.5-0.7
	c3.3-2.3,3.7-5.3,6.2-5.8s10-3.8,16.5-3.8"/>
<path style="fill:none;stroke:#231F20;stroke-width:2;stroke-linejoin:round;" d="M370.6,111.4c-1.5-10.5-2-7.5-6.8-13.8
	c-2.6-3.8,0.7-9.3,3.7-6.2"/>
<path style="fill:#231F20;" d="M362.1,139.4l4.1-1.4l2.7-0.8l1.2-0.3l1-0.1l-0.2-1.6l0.1-1.3l0.4-1.1l0.6-0.8l0.9-0.5l1.1-0.4h1.4
	l1.7,0.2l-1.4-3.1l-1.2-3.2l-1.2-3.2l-1.3-3.2l0.4-0.3l0.6-0.2l1.7-0.3l1.7-0.3l0.6-0.3l0.4-0.2l-8.5-5l5,5l-2.1,2l0.6,1.5l0.2,1.5
	l0.1,1.4l-0.1,1.4l-0.1,1.5v1.4l0.3,1.5l0.5,1.5l-1.7-0.2h-1.4l-1.1,0.4l-0.9,0.5l-0.6,0.8l-0.4,1.1l-0.1,1.3l0.2,1.6l-0.8,0.1
	l-0.8,0.3l-1.4,0.8l-1.3,0.9L362.1,139.4"/>
<path style="fill:#231F20;" d="M260.1,41.4l0.6-1.3l0.8-1.1l0.9-0.9l1.2-0.7l-0.4,0.9l-0.2,0.9v1.7l2.5-1.1l0.5,0.8l0.6,0.7l0.6,0.5
	l0.7,0.5l1.6,0.7l1.7,0.6l1.6,0.6l1.4,0.8l0.6,0.5l0.5,0.6l0.4,0.8l0.3,0.8l-1-2.7l-0.6-2.3l-0.1-1v-0.8l0.2-0.8l0.2-0.6l0.4-0.6
	l0.5-0.5l1.2-0.9l1.4-0.8l1.7-0.6l-2.9,1.1l-0.9,0.6l-0.3,0.4l-0.2,0.4l-0.2,0.5v0.6l0.4,1.5l0.8,2.1l1.2,2.8l-0.2-0.9l-0.5-0.7
	l-0.4-0.6l-0.6-0.5l-1.4-0.7l-1.6-0.6l-1.6-0.6l-1.6-0.7l-0.7-0.5l-0.7-0.6l-0.5-0.6l-0.5-0.8l-2.5,1v-1.7l0.2-0.8l0.4-1l-0.7,0.5
	l-0.7,0.6l-1.4,1.6l-1.3,1.8L260.1,41.4"/>
<path style="fill:none;stroke:#231F20;stroke-width:0.8958;" d="M260.1,41.4c0.9-1.7,1.7-3.2,3.5-4c-0.6,1.3-0.5,2.3-0.5,3.5
	c0.9-0.5,1.6-0.6,2.5-1.1c2.3,4.7,9.5,2.9,10.5,8c-4-8.5-1.2-10.3,3.5-12c-4.7,1.7-6,1.5-2.1,10c-1-5.1-8.2-3.3-10.4-8
	c-0.9,0.4-1.6,0.6-2.5,1c0-1.1-0.1-2.3,0.5-3.5C263.3,36.2,261,39.7,260.1,41.4L260.1,41.4z"/>
<path style="fill:#231F20;" d="M276.8,50.9l0.7,1.6l0.4,0.7l0.6,0.6H277l-1,0.2l-1.2,0.2l0.3,0.6l0.2,0.3v0.4l-1.3,0.8l-1,0.8
	l-1.4,1.7l-0.7,0.7l-0.7,0.7l-0.9,0.6l-1.2,0.5l1.3-0.4l1-0.6l1.7-1.3l1.8-1.4l1.1-0.8l1.4-0.7l-0.3-0.7l-0.3-0.6l2.3-0.2h1.5
	l-1.6-1.7l-0.7-1.1L276.8,50.9"/>
<path style="fill:none;stroke:#231F20;stroke-width:2;" d="M276.8,50.9c0.4,1.3,0.9,2.1,1.8,3h-1.5c-0.7,0-1.4,0.3-2.3,0.3
	c0.1,0.5,0.5,0.7,0.5,1.3c-4,2.1-3.6,4.7-7.2,5.9c3.6-1.3,4.2-3.2,8.3-5.2c0-0.5-0.5-0.9-0.5-1.3c0.9,0,1.5-0.2,2.3-0.2h1.5
	C278.7,53.6,277.2,52.2,276.8,50.9z"/>
<path style="fill:none;stroke:#231916;stroke-width:2;stroke-miterlimit:10;" d="M214.3,136.2c-0.8-1.1-1.6-2.2-2.3-3.4
	c0-0.8,0-1.7,0-2.5C212.7,132.3,213.5,134.3,214.3,136.2z"/>
<path style="fill:none;stroke:#231916;stroke-width:2;stroke-miterlimit:10;" d="M212,134.3c-0.7-1.4-2-2.5-3-3.7
	c-0.8-0.9-1.4-2.1-1.5-3.3c0.1-0.4,0.1-0.8,0.2-1.1l0.3-0.2c1.2,2.3,2.6,4.6,4,6.9C212,133.3,212,133.8,212,134.3z"/>
<path style="fill:none;stroke:#231916;stroke-width:2;stroke-miterlimit:10;" d="M209.6,175.2c-1.1,0.5-2.6,0.3-3.1-0.8
	s0.3-2.2,1-3.2c0.1-0.2,0.2-0.4,0.3-0.6c0.8-1.5,0.8-3.3,1.6-4.7c0.5-0.9,1.4-1.6,1.8-2.6c0.4-0.9,0.5-2.1,1.1-2.9
	c1.1-1.5,3.3-1.4,5.1-1.5c0.9-0.1,1.9-0.3,2.7-0.6c-0.4,4.2-1.6,8.3-3.2,12.2c-0.3,0.8-0.7,1.6-1,2.3c-1.1-0.2-2.3,0-3.3,0.5
	C211.5,173.9,210.7,174.8,209.6,175.2z"/>
<path style="fill:none;stroke:#231916;stroke-width:2;stroke-miterlimit:10;" d="M207.7,126.2c-0.1,0.4-0.1,0.8-0.2,1.1
	C207.5,126.9,207.6,126.5,207.7,126.2z"/>
<path style="fill:none;stroke:#231916;stroke-width:2;stroke-miterlimit:10;" d="M195,173.4c0.5,0.4,0.8,0.9,1.4,1.2
	c0.4,0.3,1,0.4,1.5,0.4c2.8,0.2,5.4-1.1,7.6-2.9l0,0c0.5-0.3,1-0.7,1.3-1.1l0.6,0.2c-0.7,1.1-1.5,2.2-1,3.2c0.5,1.1,2,1.2,3.1,0.8
	c1.1-0.5,2-1.3,3-1.9c1-0.5,2.2-0.7,3.3-0.5c-0.2,0.3-0.3,0.7-0.5,1c-0.5,0.8-1,1.6-1.6,2.4c-0.2,0.2-0.3,0.4-0.5,0.6
	c-0.6,0.3-1.2,0.5-1.8,0.8c-2.8,1.2-5.6,2.4-8.6,2.8c-3,0.3-6.2-0.3-8.4-2.4c-0.9-0.9-1.6-2-2.5-2.8l0,0c0-0.1-0.1-0.3-0.1-0.4
	c-0.1-0.7-0.2-1.4,0.1-2c0.1-0.2,0.2-0.4,0.4-0.6C193.3,172.4,194.2,172.7,195,173.4z"/>
<path style="fill:none;stroke:#231916;stroke-width:2;stroke-miterlimit:10;" d="M206.8,171c-0.4,0.4-0.9,0.8-1.3,1.1
	C205.9,171.7,206.4,171.4,206.8,171z"/>
<path style="fill:none;stroke:#231916;stroke-width:2;stroke-miterlimit:10;" d="M206.5,156.4c0.1,0,0.1-0.1,0.2-0.1
	C206.6,156.4,206.6,156.4,206.5,156.4z"/>
<path style="fill:none;stroke:#231916;stroke-width:2;stroke-miterlimit:10;" d="M206.2,156.6c-0.1,0.1-0.1,0.1-0.2,0.2
	c-0.1,0-0.2-0.1-0.3-0.1C205.9,156.7,206.1,156.6,206.2,156.6z"/>
<path style="fill:none;stroke:#231916;stroke-width:2;stroke-miterlimit:10;" d="M206.1,156.8C206.1,156.8,206,156.9,206.1,156.8
	C206,156.9,206,156.8,206.1,156.8L206.1,156.8z"/>
<path style="fill:none;stroke:#231916;stroke-width:2;stroke-miterlimit:10;" d="M206.2,156.6c0.1,0,0.2-0.1,0.3-0.1
	c-0.1,0.1-0.3,0.2-0.4,0.4l0,0C206.1,156.7,206.2,156.7,206.2,156.6z"/>
<path style="fill:none;stroke:#231916;stroke-width:2;stroke-miterlimit:10;" d="M205,157.7c0.3-0.3,0.7-0.6,1-0.8
	C205.7,157.2,205.4,157.5,205,157.7z"/>
<path style="fill:none;stroke:#231916;stroke-width:2;stroke-miterlimit:10;" d="M204.3,166.1c-0.4,0-0.8-0.2-1.1-0.4
	c0.7-0.3,1.3-0.8,1.8-1.4c-0.1,0.5-0.2,1-0.3,1.5v0.3C204.5,166.1,204.4,166.1,204.3,166.1z"/>
<path style="fill:none;stroke:#231916;stroke-width:2;stroke-miterlimit:10;" d="M203.6,155.3c0.1,0.1,0.3,0.2,0.4,0.4
	c0.1,0.2,0.2,0.3,0.4,0.5c0.4,0.4,0.9,0.6,1.4,0.6c0.1,0,0.2,0.1,0.3,0.1L206,157c-0.3,0.3-0.7,0.6-1,0.8c-0.6,0.4-1.3,0.7-2,1
	c-0.3-1.7-0.5-3.3-0.7-5C202.6,154.3,203.1,154.8,203.6,155.3z"/>
<path style="fill:none;stroke:#231916;stroke-width:2;stroke-miterlimit:10;" d="M204,155.6c0.5,0.4,1.1,0.8,1.8,1
	c-0.5,0-1-0.2-1.4-0.6C204.2,155.9,204.1,155.8,204,155.6z"/>
<path style="fill:none;stroke:#231916;stroke-width:2;stroke-miterlimit:10;" d="M203,159c0-0.1,0-0.2,0-0.3c0.7-0.3,1.4-0.6,2-1
	c-0.4,0.4-0.9,0.8-1.3,1.1c-0.1,0.1-0.2,0.1-0.2,0.2C203.3,159,203.2,159,203,159z"/>
<path style="fill:none;stroke:#231916;stroke-width:2;stroke-miterlimit:10;" d="M203,159c0.1,0,0.3,0,0.4,0
	c-0.1,0.1-0.2,0.2-0.3,0.3v-0.1C203,159.2,203,159.1,203,159z"/>
<path style="fill:none;stroke:#231916;stroke-width:2;stroke-miterlimit:10;" d="M203,159c0,0.1,0,0.1,0,0.2v0.1
	c-0.2,0.2-0.3,0.3-0.5,0.5c-0.3,0.5-0.5,1-0.6,1.5c-0.2,0.9-0.2,1.7-0.2,2.6c-0.6-1-0.9-2.2-1-3.3c0-0.4,0-0.9,0.3-1.2
	c0.2-0.2,0.5-0.4,0.9-0.5c0.1,0,0.1,0,0.2-0.1C202.5,159,202.8,159,203,159z"/>
<path style="fill:none;stroke:#231916;stroke-width:2;stroke-miterlimit:10;" d="M203,159c-0.3,0-0.5,0-0.8-0.1
	c0.2-0.1,0.5-0.2,0.7-0.3C203,158.8,203,158.9,203,159z"/>
<path style="fill:none;stroke:#231916;stroke-width:2;stroke-miterlimit:10;" d="M202.3,153.7c-0.2-1.6-0.3-3.3-0.2-4.9
	c0.4,1.6,0.8,3.3,1.2,4.9c0.2,0.7,0.3,1.3,0.7,1.9c-0.1-0.1-0.3-0.2-0.4-0.4C203.1,154.8,202.6,154.3,202.3,153.7z"/>
<path style="fill:none;stroke:#231916;stroke-width:2;stroke-miterlimit:10;" d="M220.2,158.1c0,0.1,0,0.2,0,0.2
	c-0.9,0.3-1.8,0.5-2.7,0.6c-1.8,0.2-4,0-5.1,1.5c-0.6,0.8-0.7,2-1.1,2.9c-0.4,1-1.3,1.7-1.8,2.6c-0.8,1.4-0.8,3.2-1.6,4.7
	c-0.1,0.2-0.2,0.4-0.3,0.6L207,171c-0.4,0.4-0.9,0.8-1.3,1.1l0,0c-1.9,1.2-4.4,1.4-6.6,0.9c-2.3-0.5-4.4-1.7-6.4-3.1
	c-0.1-0.2-0.2-0.3-0.2-0.5c0.1-0.6,0.1-1.3,0-2c-0.1-0.9-0.2-1.8,0-2.7c0.2-0.7,0.8-1.3,1.5-1.4c0.8,0.5,1.7,0.9,2.3,1.6
	c1,0.9,1.4,2.3,2.3,3.2c1.5,1.5,4.3,1.4,5.8-0.2c-1.2,1.2-3.3,1-4.7,0.1s-2.3-2.5-3.1-4c-0.5-1-1.1-2.1-1.7-3
	c0.3-0.3,0.6-0.5,0.9-0.6c0.3-0.2,0.6-0.3,1-0.4c0.2,0.2,0.3,0.5,0.4,0.7c0.2,0.7,0.3,1.5,0.5,2.2c0.5,1.5,1.9,2.8,3.4,3.1
	c0.8,0.1,1.7,0,2.5-0.3c0.3,0.2,0.7,0.4,1.1,0.4c0.1,0,0.3,0,0.4,0v-0.3c0.1-0.5,0.2-1,0.3-1.5c-0.5,0.6-1.1,1.1-1.8,1.4
	c-0.2-0.2-0.4-0.4-0.6-0.6c-0.3-0.3-0.5-0.6-0.7-1c-0.1-0.9,0-1.7,0.2-2.6c0.1-0.5,0.3-1.1,0.6-1.5c0.1-0.2,0.3-0.4,0.5-0.5
	c0.1-0.1,0.2-0.2,0.3-0.3s0.2-0.1,0.2-0.2c0.4-0.4,0.9-0.8,1.3-1.1c0.4-0.2,0.7-0.5,1-0.8l0.1-0.1c0.1-0.1,0.3-0.2,0.4-0.4
	c-0.1,0.1-0.2,0.1-0.3,0.1c-0.2,0.1-0.3,0.1-0.5,0.1c-0.6-0.3-1.2-0.6-1.8-1c-0.4-0.6-0.5-1.3-0.7-1.9c-0.4-1.6-0.8-3.3-1.2-4.9
	c0-0.2,0-0.3,0-0.5c0.1,0.4,0.2,0.8,0.3,1.2c0.9-0.9,1.7-1.9,2.6-2.8c0.7,0.8,1,1.9,0.8,2.9c2.2-1.4,4.4-2.8,6.6-4.3
	c0,0.7,0.1,1.4,0.1,2.1c0.6-0.4,1.1-0.7,1.7-1.1c0.1-0.1,0.3-0.2,0.4-0.1c0.2,0,0.3,0.3,0.3,0.5c0.4,1.7,0,3.6-1.1,4.9
	c1.5-0.8,2.9-1.8,4.1-2.9c0.1,1.9-0.1,3.9-0.7,5.7c1.1-0.3,2.1-0.9,3-1.6C220.3,154.5,220.3,156.3,220.2,158.1z"/>
<path style="fill:none;stroke:#231916;stroke-width:2;stroke-miterlimit:10;" d="M192,175.1c0.9,0.8,1.6,2,2.5,2.8
	c2.2,2.1,5.4,2.7,8.4,2.4s5.8-1.6,8.6-2.8c0.6-0.3,1.2-0.5,1.8-0.8c-0.9,1-1.9,1.8-2.9,2.7c-1.1,0.9-2.2,1.8-3.4,2.4
	c-2.2,1-4.7,0.9-7.1,0.3C196.3,181.3,193,178.7,192,175.1z"/>
<path style="fill:none;stroke:#231916;stroke-width:2;stroke-miterlimit:10;" d="M198.9,173c2.2,0.5,4.7,0.3,6.6-0.9
	c-2.2,1.8-4.9,3.1-7.6,2.9c-0.5,0-1-0.1-1.5-0.4c-0.5-0.3-0.9-0.8-1.4-1.2c-0.7-0.6-1.6-1-2.6-1.2c0.3-0.3,0.7-0.5,1.2-0.4
	c-0.4-0.6-0.8-1.2-1.1-1.8C194.5,171.3,196.5,172.5,198.9,173z"/>
<path style="fill:none;stroke:#231916;stroke-width:2;stroke-miterlimit:10;" d="M195.2,159.2c0.5,0.1,0.9,0.4,1.2,0.8
	c-0.3,0.1-0.7,0.3-1,0.4c-0.3,0.2-0.6,0.4-0.9,0.6c-0.2-0.3-0.5-0.7-0.8-1C194,159.5,194.6,159.1,195.2,159.2z"/>
<path style="fill:none;stroke:#231916;stroke-width:2;stroke-miterlimit:10;" d="M220.2,152.8c0-0.9-0.1-1.7-0.2-2.6
	c-0.3-2.6-0.8-5.1-1.5-7.6c0-0.1-0.1-0.1-0.1-0.2c-0.1-0.2,0-0.5-0.1-0.8c0-0.2-0.1-0.4-0.3-0.5c-0.1-0.2-0.3-0.3-0.4-0.4
	c-0.5-0.5-1-1-1.4-1.5c-0.1-0.1-0.2-0.3-0.2-0.4v-0.1c0.1-0.2,0.4-0.3,0.7-0.3c-0.5-0.6-1-1.3-1.3-1.9c0.4,0.1,0.7,0.2,1.1,0.3
	c0.2-1-0.6-1.8-1.4-2.4c0.6-0.3,1.1-0.7,1.6-1.1c-0.5,0-1,0-1.4-0.2c0.5-0.8,0.9-1.6,1.4-2.4c-0.9,0.8-1.8,1.7-2.7,2.7
	c-0.5-2.4-1.2-4.7-2.1-6.9c-0.6-1.3-1.5-2.4-2.2-3.6s-1.2-2.6-1.6-4c0.4,0.4,0.9,0.8,1.3,1.2c-1.2-2.3-2.6-4.5-4.3-6.5
	c0.4,0,0.8,0.2,1.1,0.4c-1.3-4.7-3.6-9.2-6.7-13c0.5,0.2,1.1,0.3,1.6,0.5c-1-1.5-2.2-2.8-3.5-4.1c-2.8-2.8-5.8-5.2-8.3-8.3
	c0.4,0,0.8,0.1,1.1,0.3c-1.9-2.4-3-5.5-2.9-8.7c0-0.6,0.1-1.2,0.1-1.9c0.1-0.7,0.2-1.4,0.3-2.1c0.4,0.5,0.7,1,1.1,1.5
	c0.3-4,0-8-0.8-11.9c0.2,0.1,0.5,0.3,0.7,0.4c-0.2-2.5-0.4-5-0.6-7.4c0-0.3,0-0.6-0.1-0.9c-0.1-1.2-0.2-2.4-0.6-3.5
	c0-0.1,0-0.1,0-0.2c-2.5,1.2-5.1,2-7.8,1.7c-2.2-0.2-4.3-1.2-6.2-2.4c-1.7-1.1-3.4-2.3-5-3.6c0.7,1.2,1.3,2.5,1.9,3.8
	c-0.7-0.7-1.5-1.3-2.2-2c1,2.2,1.8,4.5,2.4,6.9c-0.7-0.6-1.3-1.1-2-1.7c0.1,1,0.3,2,0.6,2.9c-0.2-0.2-0.4-0.4-0.6-0.6
	c0,0.8,0.1,1.6,0.1,2.4c0.2,2.4,0.6,4.8,1.2,7.2c0-0.4-0.1-0.7-0.1-1.1c0.7,0.8,1.4,1.6,2.1,2.4c0.2,0,0.3,0.1,0.2,0.3
	c-0.1-0.1-0.2-0.2-0.2-0.3c-0.1,0-0.1,0-0.2,0.1c-0.1,0.2,0,0.5,0.2,0.7c0.6,0.8,1.2,1.7,1.7,2.6c-1.7-0.9-3.5-1.5-5.3-2
	c0.1-3.3,0-6.5-0.3-9.8c-0.5-5-1.5-10-3-14.7c-0.1-0.1-0.2-0.1-0.2-0.2c-2.1-1.9-4.2-3.9-6.3-6c-0.6,1.6-1.2,3.3-1.9,4.9
	c0.2,1.6,0.4,3.1,0.5,4.7c0.1,0.8,0.2,1.5,0.3,2.3c0,0.2,0.1,0.4,0.3,0.5c0.1,0,0.1,0,0.2-0.1c0-0.1,0-0.2,0-0.2
	c0.1,0,0.1,0.1,0,0.2c0.3,2.2,0.5,4.4,0.6,6.6c0.3,0,0.7-0.2,0.7-0.6c0.2,1.5,0.5,2.9,0.7,4.4c0.2-0.3,0.3-0.6,0.5-0.8
	c-0.3,2.6-0.3,5.3-0.1,8c0.3-0.5,0.6-1.1,0.9-1.6c0.5,2.8,1,6,1.1,8.8c0.4,0.4,0.5,1.1,0.3,1.6c-0.4,0-0.7-0.1-1.1-0.2
	c0.5,0.3,0.9,0.7,1.2,1.2c-0.5-0.2-1.1-0.3-1.6-0.3c0.3,0.8,0.5,1.7,0.7,2.6c-0.4-0.2-0.8-0.3-1.1-0.5c0.4,0.8,1,1.4,1.8,1.9
	c-0.9-0.2-1.7-0.6-2.4-1.2c-1.3,6.7,0.2,13.8,3.1,20c2.9,6.2,7.2,11.7,11.8,16.8c3.9,4.4,8,8.7,12.6,12.4c3.4,2.6,7,5.3,10.1,8.3
	c1.3,1.2,2.5,2.5,3.5,3.9c0.4,0.2,0.9,0.3,1.3,0.5c-0.6,0.8-0.8,1.8-0.8,2.8l0,0c0.1,0.4,0.2,0.8,0.3,1.2c0.9-0.9,1.7-1.9,2.6-2.8
	c0.7,0.8,1,1.9,0.8,2.9c2.2-1.4,4.4-2.8,6.6-4.3c0,0.7,0.1,1.4,0.1,2.1c0.6-0.4,1.1-0.7,1.7-1.1c0.1-0.1,0.3-0.2,0.4-0.1
	c0.2,0,0.3,0.3,0.3,0.5c0.4,1.7,0,3.6-1.1,4.9c1.5-0.8,2.9-1.8,4.1-2.9c0.1,1.9-0.1,3.9-0.7,5.7C218.3,154,219.3,153.5,220.2,152.8z
	 M212,132.9c0,0.5,0,0.9,0,1.4c-0.7-1.4-2-2.5-3-3.7c-0.8-0.9-1.4-2.1-1.5-3.3c0-0.4,0-0.8,0.2-1.1l0.3-0.2
	C209.3,128.4,210.6,130.7,212,132.9c0-0.8,0-1.7,0-2.5c0.8,1.9,1.5,3.9,2.3,5.9C213.5,135.1,212.7,134,212,132.9z"/>
<path style="fill:none;stroke:#231916;stroke-width:2;stroke-miterlimit:10;" d="M194.3,163.3c-0.1-0.2-0.1-0.4-0.2-0.6
	c0.2,0.2,0.4,0.4,0.6,0.6c-0.2-0.3-0.4-0.5-0.6-0.8c0-0.3-0.1-0.5,0-0.8s0.2-0.5,0.4-0.7c0.7,0.9,1.2,2,1.7,3c0.8,1.5,1.7,3,3.1,4
	c1.4,0.9,3.5,1.1,4.7-0.1c-1.4,1.6-4.2,1.7-5.8,0.2c-0.9-0.9-1.3-2.3-2.3-3.2c-0.7-0.6-1.6-1-2.3-1.6
	C193.9,163.3,194.1,163.3,194.3,163.3z"/>
<path style="fill:none;stroke:#231916;stroke-width:2;stroke-miterlimit:10;" d="M193.9,162.4c-0.3-0.4-0.4-0.9-0.4-1.4
	c0-0.3,0.1-0.6,0.2-0.8c0.3,0.3,0.6,0.6,0.8,1c-0.2,0.2-0.3,0.4-0.4,0.7c-0.1,0.3-0.1,0.5,0,0.8C194,162.5,193.9,162.4,193.9,162.4z
	"/>
<path style="fill:none;stroke:#231916;stroke-width:2;stroke-miterlimit:10;" d="M193.7,163.3c-0.3-0.2-0.5-0.4-0.8-0.7
	s-0.5-0.6-0.7-0.9c0.5-0.1,1.1,0.2,1.6,0.7c0.1,0.1,0.2,0.2,0.2,0.4s0.1,0.4,0.2,0.6C194.1,163.3,193.9,163.3,193.7,163.3z"/>
<path style="fill:none;stroke:#231916;stroke-width:2;stroke-miterlimit:10;" d="M192.2,167.4c0.1,0.7,0.1,1.3,0,2
	c-0.8-1.8-1.2-3.8-1.1-5.8c0-0.7,0.2-1.4,0.7-1.8c0.1-0.1,0.2-0.1,0.4-0.2c0.2,0.3,0.4,0.6,0.7,0.9c0.2,0.3,0.5,0.5,0.8,0.7
	c-0.7,0.2-1.2,0.8-1.5,1.4C192,165.6,192.1,166.5,192.2,167.4z"/>
<path style="fill:none;stroke:#231916;stroke-width:2;stroke-miterlimit:10;" d="M189.9,19.8c-0.1,0-0.1-0.1-0.1-0.2
	c-0.1-0.4-0.2-0.8-0.1-1.2c0-0.2,0.1-0.4,0.3-0.5l0.1-0.1c0.3,0.6,0.5,1.3,0.6,1.9c-0.2,0.1-0.4,0.1-0.6,0.1
	C190.1,19.9,190,19.9,189.9,19.8z"/>
<path style="fill:none;stroke:#231916;stroke-width:2;stroke-miterlimit:10;" d="M189.1,45c-0.8-2.8-0.5-5.7,0-8.6
	c0.5-3,1.2-6.1,1.1-9.2c0.5,2,0.5,4,0.3,6.1c-0.2,1.8-0.7,3.6-0.8,5.5c-0.1,1.2-0.1,2.5,0.3,3.7c-0.3,0.6-0.6,1.3-0.7,2
	C189.2,44.6,189.2,44.8,189.1,45z"/>
<path style="fill:none;stroke:#231916;stroke-width:2;stroke-miterlimit:10;" d="M173.8,39c2.6,2.3,5.4,4.3,8.2,6.2
	c1.3,0.9,2.6,1.8,4.1,2.1c0.9,0.2,2,0.3,2.4,1.2c0,0.1,0.1,0.2,0.1,0.2c0,0.1-0.1,0.2-0.1,0.2c-0.4,0.8-1.2,1.3-2,1.4
	c-0.4-0.1-0.7-0.2-1-0.4c-0.1-0.1-0.3-0.1-0.4-0.2c-0.2-0.1-0.4-0.2-0.6-0.3c-1.9-1-3.6-2.3-5.2-3.7c-2.7-2.2-5.4-4.4-7.2-7.4
	c-0.1-0.2-0.2-0.4-0.3-0.6c-0.1-0.4-0.1-0.8,0.2-1c0.2-0.2,0.5-0.2,0.8-0.2c1.3,0.1,2.4,1.1,3.3,1.9c1.2,1,2.4,2,3.7,2.9
	c1.1,0.8,2.2,1.5,3.3,2.1c0.1,0.1,0.2,0.2,0.3,0.3c0.9,0.7,1.8,1.5,2.8,2c0.9,0.4,1.9,0.8,2.8,0.6c0,0.3,0,0.5-0.1,0.8
	c-1.3,0.2-2.8-0.2-4-0.9c-1.3-0.7-2.5-1.8-3.8-2.6c-1.6-1.1-3.5-1.8-4.9-3.2C175.6,40.1,174.9,39.1,173.8,39z"/>
<path style="fill:none;stroke:#231916;stroke-width:2;stroke-miterlimit:10;" d="M187.4,6.8c0.6-0.1,1.3,0.1,1.8,0.5
	c-0.1,0.3-0.3,0.5-0.5,0.8c-0.1-0.1-0.2-0.1-0.3-0.2c-0.3-0.1-0.6-0.1-1-0.1c-0.9,0.1-1.8,0.4-2.6,0.8c0-0.2,0.1-0.4,0.2-0.5
	C185.7,7.5,186.5,6.9,187.4,6.8z"/>
<path style="fill:none;stroke:#231916;stroke-width:2;stroke-miterlimit:10;" d="M186.8,8.9c0.4-0.1,0.7,0,1,0.2
	c-0.4,0.4-0.8,0.9-1,1.4c-0.1,0-0.1,0-0.2-0.1c-0.4-0.1-0.7-0.4-0.9-0.7V9.6c0,0,0,0,0-0.1c0.1-0.1,0.3-0.2,0.4-0.3
	C186.5,9.1,186.6,9,186.8,8.9z"/>
<path style="fill:none;stroke:#231916;stroke-width:2;stroke-miterlimit:10;" d="M186.2,20c0.3-0.2,0.7-0.1,1,0
	c0.3,0.2,0.7,0.4,1,0.6c0.3,0.3,0.6,0.6,1,0.8c0,0.1,0.1,0.3,0.2,0.4l0.1,0.1c0.1,0.1,0,0.3-0.1,0.4s-0.3,0.2-0.4,0.3
	c-0.1,0.1,0,0.4,0.1,0.4c-0.5,0.3-1.1,0.2-1.6,0.2c-0.2,0-0.4,0-0.6-0.1c-0.2-0.1-0.3-0.2-0.4-0.4c-0.4-0.5-0.7-1.3-0.6-1.9
	C185.9,20.5,185.9,20.2,186.2,20z"/>
<path style="fill:none;stroke:#231916;stroke-width:2;stroke-miterlimit:10;" d="M185.7,17.9c0.5-0.1,1.1,0,1.5,0.3
	c0.4,0.4,1,0.6,1.2,1.1c0,0.1,0,0.1,0,0.2c-0.1,0.1-0.2,0-0.3,0c-0.5-0.3-1-0.4-1.5-0.4c-0.3,0-0.7,0.1-1,0s-0.6-0.5-0.5-0.8
	C185.1,18,185.4,17.9,185.7,17.9z"/>
<path style="fill:none;stroke:#231916;stroke-width:2;stroke-miterlimit:10;" d="M186.9,23.2c0.2,0.1,0.4,0.1,0.6,0.1
	c0.6,0,1.1,0,1.6-0.2c-0.2,0-0.2-0.2-0.1-0.4c0.1-0.1,0.2-0.2,0.4-0.3c0.1-0.1,0.2-0.3,0.1-0.4c0-0.1-0.1-0.1-0.1-0.1
	c-0.1-0.1-0.2-0.2-0.2-0.4c-0.4-0.2-0.6-0.5-1-0.8c-0.3-0.3-0.6-0.5-1-0.6c-0.3-0.1-0.7-0.2-1,0s-0.4,0.5-0.4,0.8
	c0,0.7,0.2,1.4,0.6,1.9C186.6,23,186.7,23.1,186.9,23.2z M185,18.2c-0.2,0.3,0.1,0.7,0.5,0.8s0.7,0,1,0c0.5,0,1.1,0.1,1.5,0.4
	c0.1,0.1,0.2,0.1,0.3,0c0,0,0-0.1,0-0.2c-0.2-0.5-0.8-0.8-1.2-1.1c-0.5-0.2-1-0.3-1.5-0.3C185.4,17.9,185.1,18,185,18.2z
	 M183.7,17.7c0.6-0.6,1.6-0.9,2.5-0.8c1,0.2,1.9,0.8,2.6,1.7c-0.2-0.5-0.1-1.1,0.3-1.4c0.2-0.1,0.4-0.2,0.6-0.2
	c0.1,0.3,0.3,0.6,0.4,0.9c0,0-0.1,0-0.1,0.1c-0.2,0.1-0.2,0.3-0.3,0.5c-0.1,0.4-0.1,0.8,0.1,1.2c0,0.1,0.1,0.1,0.1,0.2s0.1,0,0.2,0
	c0.2,0,0.4-0.1,0.6-0.1c0.2,1,0.3,2,0.2,3c-0.1,0.6-0.3,1.3-0.2,1.9c0,0.1,0,0.2,0,0.2c-0.6,0.3-1.3,0.6-1.9,0.9
	c-0.1,0-0.2,0.1-0.2,0.1c-1.6-0.3-3.1-0.9-4.1-2.2c-0.1-0.1-0.1-0.2-0.2-0.3c-0.4-0.7-0.7-1.6-0.8-2.4c-0.1-0.7-0.3-1.5-0.2-2.2
	C183.4,18.3,183.5,18,183.7,17.7z"/>
<path style="fill:none;stroke:#231916;stroke-width:2;stroke-miterlimit:10;" d="M188.4,0.4C188.4,0.4,188.3,0.4,188.4,0.4
	c-0.7,0-1.3,0.3-1.8,0.5c-0.4,0.2-0.9,0.4-1.2,0.7C185.1,2,185,2.5,185,3c-0.1,0.9-0.1,1.9-0.1,2.8c-0.1-1.1-0.9-2.1-1.7-2.8
	c-0.4-0.3-0.8-0.6-1.2-0.8c0.5-0.5,1-0.9,1.3-1.5c0.3,0.1,0.5,0.2,0.8,0.3c0.3-0.8,0.9-1.4,1.6-1.7c0,0.1-0.1,0.2-0.1,0.4
	C186.5-0.7,187.6-0.3,188.4,0.4z"/>
<path style="fill:none;stroke:#231916;stroke-width:2;stroke-miterlimit:10;" d="M186.2,46c-1-0.5-1.9-1.2-2.8-2
	c-0.1-0.1-0.2-0.2-0.3-0.2c0.5,0.3,0.9,0.5,1.4,0.8c0.6,0.3,1.3,0.6,1.9,0.8c0.5,0.1,1,0.1,1.5,0.3c0.4,0.1,0.8,0.3,1.1,0.5
	c0,0.2,0,0.4,0,0.5C188.1,46.8,187.1,46.4,186.2,46z"/>
<path style="fill:none;stroke:#231916;stroke-width:2;stroke-miterlimit:10;" d="M184,24.3c0.1-0.3,0.2-0.7,0.4-1
	c0.1,0.1,0.1,0.2,0.2,0.3c0.9,1.3,2.5,2,4.1,2.2c-0.5,0.2-1,0.4-1.6,0.3c-0.8-0.1-1.6-0.6-2.2-1.1C184.5,24.8,184.2,24.6,184,24.3z"
	/>
<path style="fill:none;stroke:#231916;stroke-width:2;stroke-miterlimit:10;" d="M182.9,21.2c-0.1-1.1-0.1-2.4,0.6-3.3
	c0.1-0.1,0.2-0.2,0.2-0.3c-0.2,0.3-0.3,0.7-0.3,1.1c-0.1,0.7,0,1.5,0.2,2.2c0.2,0.8,0.4,1.7,0.8,2.4c-0.1,0.3-0.3,0.6-0.4,1
	c-0.2-0.3-0.4-0.5-0.6-0.9C183,22.7,182.9,22,182.9,21.2z"/>
<path style="fill:none;stroke:#231916;stroke-width:2;stroke-miterlimit:10;" d="M185.8,30.2c0.3,0.1,0.6,0.2,0.9,0.3
	C186.4,30.4,186.1,30.3,185.8,30.2z M180.8,30.1c1.6-0.8,3.4-0.4,5.1,0.2c-1.2-0.6-2-1.9-2.1-3.3c-0.1-0.9,0-1.8,0.3-2.7
	c0.3,0.3,0.6,0.5,0.8,0.8c0.6,0.5,1.4,1.1,2.2,1.1c0.5,0,1.1-0.1,1.6-0.3c0.1,0,0.2-0.1,0.2-0.1c0.6-0.3,1.3-0.6,1.9-0.9
	c0.1,0.4,0.2,0.9,0.4,1.3c1.8,4.8,1.5,10.3-0.6,15c-0.2,0.4-0.4,0.9-0.6,1.3c-0.3-1.2-0.4-2.5-0.3-3.7c0.2-1.8,0.6-3.6,0.8-5.5
	c0.2-2,0.1-4.1-0.3-6.1c0.1,3.1-0.6,6.1-1.1,9.2c-0.5,2.9-0.7,5.8,0,8.6c0,0.1,0,0.3,0,0.4c0,0.2,0,0.4,0,0.6
	c-0.3-0.2-0.7-0.4-1.1-0.5c-0.5-0.1-1-0.2-1.5-0.3c-0.7-0.2-1.3-0.5-1.9-0.8c-0.5-0.3-0.9-0.5-1.4-0.8c-1.2-1-2.4-2.1-3.6-3.1
	c-0.5-1.5-1-3.1-1.2-4.7C178,33.7,178.7,31.1,180.8,30.1z"/>
<path style="fill:none;stroke:#231916;stroke-width:2;stroke-miterlimit:10;" d="M176.5,6.2c1.1-0.6,2.4-0.8,3.6-0.6
	c0.9,0.7,1.7,1.7,2.1,2.9c0.3,0.8,0.4,1.6,0.4,2.4c0,0.2,0,0.4,0,0.6l0,0c0,0.1-0.1,0.1-0.1,0.2c-0.2,0.3-0.5,0.4-0.8,0.5
	c-1.5,0.5-3.1,0.5-4.6-0.1s-2.7-1.7-3.4-3.1c-0.1-0.2-0.3-0.4-0.5-0.4C174.3,7.8,175.2,6.8,176.5,6.2z M176.8,9
	c0.4,0.7,1,1.4,1.9,1.6c1,0.3,2.2-0.3,2.8-1.2c0-0.1,0.1-0.1,0.1-0.2c0-0.1,0-0.1-0.1-0.2c-0.2-0.3-0.5-0.6-0.8-0.9
	c-0.3-0.3-0.7-0.6-1.1-0.6c-0.2,0-0.4,0-0.5,0.1c-0.3,0-0.6,0.1-0.8,0.2c-0.6,0.2-1.1,0.4-1.6,0.7C176.7,8.7,176.7,8.9,176.8,9z"/>
<path style="fill:none;stroke:#231916;stroke-width:2;stroke-miterlimit:10;" d="M179.8,41.6c-0.1-0.3-0.2-0.7-0.3-1
	c1.2,1,2.4,2.1,3.6,3.1C182,43.1,180.9,42.4,179.8,41.6z"/>
<path style="fill:none;stroke:#231916;stroke-width:2;stroke-miterlimit:10;" d="M176.3,40.8c1.4,1.4,3.3,2.1,4.9,3.2
	c1.3,0.8,2.4,1.8,3.8,2.6c1.2,0.7,2.6,1.1,4,0.9c-0.1,0.5-0.1,1-0.3,1.4c0-0.1,0-0.2-0.1-0.2c-0.4-0.8-1.5-1-2.4-1.2
	c-1.5-0.4-2.8-1.2-4.1-2.1c-2.8-1.9-5.7-3.9-8.2-6.2C174.9,39.1,175.6,40.1,176.3,40.8z"/>
<path style="fill:none;stroke:#231916;stroke-width:2;stroke-miterlimit:10;" d="M183.3,0.8c-0.4,0.5-0.9,1-1.3,1.5
	c-1.7-0.9-3.7-1.1-5.6-1c-1.1,0.1-2.1,0.2-3.2,0.5c0.4-0.6,0.9-1.2,1.5-1.7C177.5-0.6,180.6-0.3,183.3,0.8z"/>
<path style="fill:none;stroke:#231916;stroke-width:2;stroke-miterlimit:10;" d="M172.5,71.1c-0.1-0.1-0.2-0.2-0.2-0.3
	C172.4,70.8,172.6,71,172.5,71.1z"/>
<path style="fill:none;stroke:#231916;stroke-width:2;stroke-miterlimit:10;" d="M187.5,13.2c0.8,1.2,1.6,2.4,2.2,3.7
	c-0.2,0-0.4,0.1-0.6,0.2c-0.4,0.3-0.5,0.9-0.3,1.4c-0.6-0.8-1.5-1.5-2.6-1.7c-0.9-0.1-1.9,0.1-2.5,0.8c-0.1,0.1-0.2,0.2-0.2,0.3
	c-0.7,0.9-0.7,2.2-0.6,3.3c0.1,0.8,0.2,1.5,0.5,2.2c0.2,0.3,0.4,0.6,0.6,0.9c-0.3,0.9-0.4,1.8-0.3,2.7c0.2,1.3,1,2.6,2.2,3.3
	c-1.7-0.6-3.5-0.9-5.1-0.2c-2,1-2.7,3.6-2.5,5.9c0.2,1.6,0.7,3.1,1.2,4.7c0.1,0.3,0.2,0.7,0.3,1c-1.3-0.9-2.5-1.9-3.7-2.9
	c-1-0.9-2-1.8-3.3-1.9c-0.3,0-0.6,0-0.8,0.2c-0.3,0.2-0.3,0.6-0.2,1c-0.5-0.3-0.9-0.7-1.1-1.2c-0.1-0.1-0.1-0.2-0.1-0.3
	c0.7-4.7,2.1-9.2,4.8-13c1.6-2.3,3.7-4.4,5.3-6.8c1-1.6,1.7-3.4,1.9-5.2l0,0c0.1-0.2,0.1-0.4,0-0.6c0-0.8-0.1-1.6-0.4-2.4
	c-0.4-1.1-1.1-2.1-2.1-2.9c-1.1-0.8-2.4-1.3-3.7-1.4c-0.8,0-1.6,0.1-2.3,0.1c-0.3,0-0.6,0-0.9,0c-0.2,0-0.4,0-0.5-0.2
	c-0.2-0.2-0.1-0.4-0.1-0.6c0.1-0.6,0.3-1.2,0.6-1.7c1-0.3,2.1-0.4,3.2-0.5c1.9-0.1,3.9,0.1,5.6,1c0.4,0.2,0.8,0.5,1.2,0.8
	c0.9,0.7,1.6,1.7,1.7,2.8c0,0.2,0,0.4,0,0.6c0-0.2,0-0.4,0-0.6c0-0.9,0-1.9,0.1-2.8c0-0.5,0.1-1,0.4-1.3c0.3-0.4,0.7-0.6,1.2-0.7
	c0.6-0.2,1.1-0.4,1.7-0.5h0.1c0.6,0.6,1.1,1.4,1.4,2.2c0.4,1.5,0.2,3.2-0.5,4.7c-0.5-0.4-1.2-0.6-1.8-0.5c-0.9,0.1-1.7,0.6-2.3,1.3
	c-0.1,0.1-0.2,0.3-0.2,0.5c0.8-0.4,1.7-0.7,2.6-0.8c0.3,0,0.7,0,1,0.1c0.1,0,0.2,0.1,0.3,0.2c-0.1,0.1-0.1,0.1-0.2,0.2
	c-0.2,0.3-0.5,0.5-0.7,0.8c-0.3-0.2-0.7-0.3-1-0.2c-0.2,0.1-0.4,0.2-0.6,0.3c-0.1,0.1-0.3,0.2-0.4,0.3c0,0,0,0,0,0.1V10
	c0.2,0.3,0.6,0.6,0.9,0.7c0.1,0,0.1,0,0.2,0.1c-0.1,0.3-0.2,0.5-0.1,0.8C186.8,12,187.2,12.6,187.5,13.2z"/>
<path style="fill:none;stroke:#231916;stroke-width:2;stroke-miterlimit:10;" d="M169.5,60.5c-0.2-0.2-0.4-0.4-0.6-0.6
	c0,0.8,0.1,1.6,0.1,2.4h-0.7c-0.5-5-1.5-10-3-14.7c1.1,1,2.2,2,3.4,2.9c0.7,1.2,1.3,2.5,1.9,3.8c-0.7-0.7-1.5-1.3-2.2-2
	c1,2.2,1.8,4.5,2.4,6.9c-0.7-0.6-1.3-1.1-2-1.7C168.9,58.6,169.1,59.6,169.5,60.5z"/>
<path style="fill:none;stroke:#231916;stroke-width:2;stroke-miterlimit:10;" d="M168.6,72.2c0.1-3.3,0-6.5-0.3-9.8h0.7
	c0.2,2.4,0.6,4.8,1.2,7.2c0-0.4-0.1-0.7-0.1-1.1c0.7,0.8,1.4,1.6,2.1,2.4c-0.1,0-0.1,0-0.2,0.1c-0.1,0.2,0,0.5,0.2,0.7
	c0.6,0.8,1.2,1.7,1.7,2.6C172.2,73.3,170.4,72.7,168.6,72.2z"/>
<path style="fill:none;stroke:#231916;stroke-width:2;stroke-miterlimit:10;" d="M161.2,195.7c-0.1,0.4-0.2,0.7-0.3,1.1
	c-0.7,2.2-2,4.3-4,5.5c-0.7,0.4-1.7,0.7-2.4,0.3c-0.2-0.1-0.3-0.3-0.4-0.4c0.1-0.2,0.3-0.4,0.4-0.6c0.4-0.8,0.6-1.7,0.8-2.6
	c0.9-4.7,1.7-9.5,2.2-14.2c-1.5,3.5-3,7.9-3.7,11.7c-0.3,1.4-0.5,2.8-0.8,4.2c-0.8,0.7-1.8,1.3-2.8,1.5c-0.9,0.1-1.9-0.2-2.5-0.8
	c2.5-6.2,4-12.8,4.2-19.5c-1.8,6.4-4.1,12.6-6.5,18.8c-0.7,0.5-1.4,0.8-2.3,0.8c-0.8,0-1.5-0.4-2-1c2.7-4.1,4-9.1,3.6-14.1
	c-0.1-1.5-0.3-3-1.1-4.2c0.1,4.5,0.2,9-1.3,13.2c-0.4,1-0.9,2.1-1.8,2.6c-1.3,0.8-3.1,0.3-4.2-0.8c-0.7-1.2-0.9-2.7-0.7-4
	c0-0.3,0.2-0.8,0.5-0.9c0.3-0.1,0.6,0.2,0.8,0.4c0.6,0.7,1.2,1.3,1.7,2c0.7-2,1-4.2,0.8-6.4c-0.3-3.4-1.7-6.7-2.2-10.1
	c-0.7-4.7,0.5-9.5,0.9-14.2h0.1c0,2.1,0,4.2,0,6.2c0.9-1,1.6-2.1,2-3.3c0.7,1.6,1.5,3.1,2.2,4.7c0-0.6,0.2-1.2,0.6-1.7
	c0.6,0.9,1.4,1.7,2.3,2.3c0.2-0.3,0.5-0.6,0.9-0.9c1.2,1.2,2.3,2.6,3.2,4c0.5-1.3,0.3-2.9-0.5-4.1c0.6,0.8,1.3,1.6,2.1,2.3
	c-0.1-1.1-0.1-2.2-0.2-3.3c0.9,0.6,1.8,1,2.8,1.4c-0.1-1.3,0.1-2.6,0.5-3.9c0.3,0.1,0.6,0.1,0.9,0.2c-0.3-1.2-0.4-2.4-0.3-3.6
	c0.4,0.4,1,0.3,1.4,0c-1,3-1,6.4,0.2,9.3c0.4,0.9,0.9,1.8,1.1,2.8c0.2,0.7,0.2,1.5,0.4,2.1c0.3,0.9,0.9,1.6,1.4,2.4
	C161.5,185.2,160.6,190.7,161.2,195.7z"/>
<path style="fill:none;stroke:#231916;stroke-width:2;stroke-miterlimit:10;" d="M155.7,164.2c0.1-0.1,0.2-0.1,0.3-0.2
	c0.5-0.5,0.7-1.1,1-1.7c0.1-0.1,0.1-0.2,0.2-0.3c0.5,2.1,1.1,4.2,1.7,6.3c1.9,7,2.9,14.3,2.8,21.6c0,1.9-0.1,3.9-0.5,5.8
	c-0.5-5,0.4-10.5-2.3-14.8c-0.5-0.8-1.1-1.5-1.4-2.4c-0.2-0.7-0.3-1.4-0.4-2.1c-0.2-1-0.7-1.9-1.1-2.8
	C154.8,170.6,154.7,167.2,155.7,164.2z"/>
<path style="fill:none;stroke:#231916;stroke-width:2;stroke-miterlimit:10;" d="M157.2,162c-0.1,0.1-0.1,0.2-0.2,0.3
	c-0.3,0.6-0.5,1.2-1,1.7c-0.1,0.1-0.2,0.2-0.3,0.2c0.3-1,0.8-1.9,1.3-2.8C157.1,161.6,157.2,161.8,157.2,162z"/>
<path style="fill:none;stroke:#231916;stroke-width:2;stroke-miterlimit:10;" d="M154.1,202.1c-0.4-0.7-0.2-1.9,0.1-2.8
	c-0.4,0.4-0.8,0.8-1.2,1.1c0.3-1.4,0.5-2.8,0.8-4.2c0.7-3.7,2.2-8.2,3.7-11.7c-0.6,4.8-1.3,9.5-2.2,14.2c-0.2,0.9-0.4,1.8-0.8,2.6
	C154.3,201.7,154.2,201.9,154.1,202.1z"/>
<path style="fill:none;stroke:#231916;stroke-width:2;stroke-miterlimit:10;" d="M151.8,181.8c-0.2,6.7-1.7,13.3-4.2,19.5
	c-0.5-0.5-0.9-1.1-0.8-1.9c-0.5,0.4-1,0.8-1.5,1.2C147.6,194.4,150,188.2,151.8,181.8z"/>
<path style="fill:none;stroke:#231916;stroke-width:2;stroke-miterlimit:10;" d="M187.8,54.8c-2.5,1.2-5.1,2-7.8,1.7
	c-2.2-0.2-4.3-1.2-6.2-2.4c-1.7-1.1-3.4-2.3-5-3.6c-1.2-0.9-2.3-1.9-3.4-2.9c-0.1-0.1-0.2-0.1-0.2-0.2c-2.1-1.9-4.2-3.9-6.3-6
	c-1.5-1.5-3-3.1-4.5-4.7c-1.2-1.3-2.3-2.6-3.1-4.2c-0.4-1-0.7-2.1-0.6-3.2c0.8,1.9,1.8,3.6,3.1,5.1c2.2,2.4,5.2,3.7,7.9,5.4
	c2.5,1.6,4.8,3.6,6.7,5.8c1.4,1.6,2.7,3.4,4.4,4.6c1.9,1.3,4.4,1.9,6.7,1.7c1.2-0.1,2.5-0.4,3.5-1.1c0.5-0.4,1-0.9,1.3-1.4
	c0.2,0.1,0.4,0.2,0.6,0.3c0.1,0.2,0.4,0.4,0.6,0.5C186.5,51.8,187.3,53.2,187.8,54.8z"/>
<path style="fill:none;stroke:#231916;stroke-width:2;stroke-miterlimit:10;" d="M148.6,171.2c-0.1-0.1-0.2-0.3-0.3-0.4
	C148.4,170.9,148.5,171.1,148.6,171.2z"/>
<path style="fill:none;stroke:#231916;stroke-width:2;stroke-miterlimit:10;" d="M150.3,3.3c-0.3,1.1-0.9,2.3-2,2.6
	c-0.1,0-0.2,0-0.3,0c-0.1-0.1-0.1-0.2-0.2-0.3c-1-2.3-1-4.9-0.3-7.3c0.2-0.7,0.5-1.4,1.1-1.7c0.4-0.2,1.1-0.1,1.4,0.2
	c-0.2,0.2-0.4,0.6-0.4,0.9c0,0.5,0.1,0.9,0.1,1.4c0.1,1-0.1,2-0.6,2.8c0.2,0,0.5,0,0.7,0c-0.4,0.6-0.8,1.1-1.2,1.7
	C149.2,3.5,149.8,3.4,150.3,3.3z"/>
<path style="fill:none;stroke:#231916;stroke-width:2;stroke-miterlimit:10;" d="M149.7-5.9c-0.9,0-1.6-0.6-2.3-1.1
	c-0.1-0.1-0.2-0.2-0.3-0.2c0.5-0.3,1.1-0.4,1.7-0.3c0.5-0.2,1.1-0.2,1.7-0.2c0.2,0,0.4,0,0.6,0.1C151.5-6.8,150.6-5.9,149.7-5.9z"/>
<path style="fill:none;stroke:#231916;stroke-width:2;stroke-miterlimit:10;" d="M147.1-7.3c-1.2,0.6-2.2,1.8-2.8,2.9
	c-0.5,0.8-0.8,1.7-1,2.7c-0.3,1.8,0.2,3.6,0.6,5.4c-0.4-1.1-0.9-2.2-1.6-3.2c-0.5-0.7-1.1-1.4-1.3-2.2c-0.4-1.3,0.1-2.7,0.8-3.9
	c0.7-1.4,1.9-2.9,3.5-2.7C145.9-8.2,146.6-7.7,147.1-7.3z"/>
<path style="fill:none;stroke:#231916;stroke-width:2;stroke-miterlimit:10;" d="M150.5-7.7c-0.6-0.1-1.1,0-1.7,0.2
	c-0.6-0.1-1.1,0-1.7,0.3c-0.6-0.5-1.2-0.9-1.9-1c-1.5-0.2-2.7,1.3-3.5,2.7c-0.6,1.2-1.2,2.6-0.8,3.9c0.3,0.8,0.9,1.5,1.3,2.2
	c0.7,1,1.1,2.1,1.6,3.2c0.2,0.9,0.3,1.7,0.2,2.6c-0.1,0-0.3,0.1-0.4,0.1c-0.8-1.4-1.5-2.7-2.3-4.1s-1.7-3-1.8-4.6s0.4-3.2,1-4.7
	c0.4-1.1,0.9-2.1,1.8-2.9c1.3-1.2,3.2-1.5,4.9-0.9C148.6-10.1,149.7-9,150.5-7.7z"/>
<path style="fill:none;stroke:#231916;stroke-width:2;stroke-miterlimit:10;" d="M151.8,12.1c-0.1,0.4-0.4,0.7-0.8,0.8
	c-1.2,0.5-2.6,0.1-3.6-0.7s-1.6-2-2.3-3.1c-0.5-0.9-1-1.7-1.5-2.6c0.1,0,0.3-0.1,0.4-0.1c0.1-0.9-0.1-1.7-0.2-2.6
	c0.3,0.9,0.6,1.7,1,2.6c0.9,1.9,2.4,3.8,4.5,4.2c0.5,0.1,1.1,0.1,1.6,0.3C151.5,11.1,151.9,11.6,151.8,12.1z"/>
<path style="fill:none;stroke:#231916;stroke-width:2;stroke-miterlimit:10;" d="M139.6,125.4c-0.6-1.2-1.2-2.4-1.7-3.6
	c0.2-0.4,0.4-0.8,0.7-1.2C139,122.2,139.3,123.8,139.6,125.4z"/>
<path style="fill:none;stroke:#231916;stroke-width:2;stroke-miterlimit:10;" d="M140.6,198.6c-1.4,0.8-3.2,0.2-4.2-1
	c-0.1-0.1-0.2-0.3-0.3-0.4c1.1,1.1,2.9,1.6,4.2,0.8c0.9-0.6,1.5-1.6,1.8-2.6c1.5-4.2,1.4-8.8,1.3-13.2c0.7,1.3,1,2.8,1.1,4.2
	c0.3,4.9-1,9.9-3.6,14.1C140.5,199.9,140.3,199.2,140.6,198.6z"/>
<path style="fill:none;stroke:#231916;stroke-width:2;stroke-miterlimit:10;" d="M134.5,106c-0.1,1.1-0.2,2.3-0.2,3.4
	c-0.1-0.8-0.3-1.6-0.4-2.4C134.1,106.6,134.3,106.3,134.5,106z"/>
<path style="fill:none;stroke:#231916;stroke-width:2;stroke-miterlimit:10;" d="M133.9,106.9c-0.3,0.5-0.7,1.1-1,1.6
	c-0.5-3-0.7-6.1-0.4-9.2C133.1,101.8,133.5,104.4,133.9,106.9z"/>
<path style="fill:none;stroke:#231916;stroke-width:2;stroke-miterlimit:10;" d="M128.3,188.9c1.7,1.9,3.1,3.9,4.3,6.1
	c-0.3-0.1-0.6-0.2-0.9-0.3c0.2,0.3,0.4,0.7,0.4,1.1c-1.1-1.2-1.8-2.7-2.8-4c-1.4-1.9-3.1-3.5-4.9-5.1
	C126,186.7,127.3,187.8,128.3,188.9z"/>
<path style="fill:none;stroke:#231916;stroke-width:2;stroke-miterlimit:10;" d="M130.7,16c-0.9-0.2-1.9-0.3-2.8-0.5h-0.4
	c0.1-5.1-0.6-10.2-2-15c1.3,1.4,2.4,3.1,3.1,4.9C130.1,8.7,130.6,12.4,130.7,16z"/>
<path style="fill:none;stroke:#231916;stroke-width:2;stroke-miterlimit:10;" d="M122.6,189.1c3.6,2.1,6.4,5.2,9.2,8.2
	c-0.1,0.1-0.2,0.2-0.3,0.4c-3-3-6.5-5.5-10.2-7.4c-0.3-0.2-0.7-0.4-0.8-0.7c-0.1-0.4,0.3-0.9,0.8-0.9
	C121.8,188.7,122.2,188.9,122.6,189.1z"/>
<path style="fill:none;stroke:#231916;stroke-width:2;stroke-miterlimit:10;" d="M121.7,128.1c0-0.1,0-0.1,0-0.2
	C121.7,128,121.7,128,121.7,128.1z"/>
<path style="fill:none;stroke:#231916;stroke-width:2;stroke-miterlimit:10;" d="M117.2,201.9c-0.6-1.2-1.6-2.6-1.9-4
	c0.4,0.3,0.6,0.8,0.9,1.3c0.8,1.2,1.5,2.4,2.3,3.6l-0.1-0.1c-0.1,0.3-0.3,0.5-0.4,0.7C117.7,202.9,117.5,202.4,117.2,201.9z"/>
<path style="fill:none;stroke:#231916;stroke-width:2;stroke-miterlimit:10;" d="M115.9,191.7c0.4-0.1,0.9,0,1.3,0.2
	c0.7,0.4,1.3,0.9,1.8,1.5c1.5,1.5,2.9,3.1,4.2,4.7c-0.3-0.3-0.6-0.5-0.8-0.8c0.1,0.7,0.6,1.3,1,1.9c-1.2-1.1-2.3-2.3-3.3-3.6
	c-0.9-1.2-2-2.6-3.5-2.7c-0.4,0-0.9,0-1.1-0.3C115.2,192.4,115.5,191.8,115.9,191.7z"/>
<path style="fill:none;stroke:#231916;stroke-width:2;stroke-miterlimit:10;" d="M115.8,117.1C115.8,117.1,115.7,117.1,115.8,117.1
	C115.7,117.1,115.7,117.1,115.8,117.1L115.8,117.1z"/>
<path style="fill:none;stroke:#231916;stroke-width:2;stroke-miterlimit:10;" d="M124.5,186.7c1.7,1.6,3.5,3.2,4.9,5.1
	c1,1.3,1.7,2.8,2.8,4c0.1,0.5,0,1.1-0.3,1.6c-2.8-3.1-5.6-6.2-9.2-8.2c-0.4-0.2-0.8-0.5-1.3-0.4c-0.5,0-0.9,0.5-0.8,0.9
	s0.4,0.6,0.8,0.7c3.8,1.9,7.3,4.4,10.2,7.4l-0.1,0.1c0.3,0.9,0.6,1.7,0.5,2.7c0,0.9-0.5,1.9-1.4,2.2c-1.1,0.4-2.2-0.3-3.2-1
	c-1.5-1.1-2.9-2.3-4.3-3.5c-1.3-1.6-2.7-3.2-4.2-4.7c-0.6-0.5-1.1-1.1-1.8-1.5c-0.4-0.2-0.9-0.4-1.3-0.2c-0.4,0.1-0.7,0.7-0.4,1.1
	c0.2,0.3,0.7,0.3,1.1,0.3c1.5,0.1,2.6,1.5,3.5,2.7c1,1.3,2.1,2.5,3.3,3.6c0.8,1,1.6,2,1.4,3.2c-0.2,1.3-1.6,2.1-3,2
	c-1.3-0.1-2.4-0.9-3.3-1.7c-0.8-1.2-1.5-2.4-2.3-3.6c-0.3-0.4-0.5-0.9-0.9-1.3c0.3,1.4,1.3,2.8,1.9,4c0.2,0.5,0.5,0.9,0.7,1.4
	c-1,1-2.8,1.1-4.1,0.6c-1.6-0.7-2.8-2-4.2-3.1c-3.6-2.7-8.2-3.3-12.6-3.3c-0.4,0-0.7,0-1.1,0c-1.4,0-2.8,0.1-4.1,0
	c-0.3-0.2-0.5-0.5-0.6-0.8c-0.3-0.7-0.1-1.4,0.3-2c0.6-1,1.5-1.8,2.4-2.5c1-0.8,1.9-1.6,2.9-2.4c-0.5-0.7-1.6-0.1-2.3,0.4
	c-0.1,0.1-0.2,0.1-0.3,0.2c0.2-0.3,0.3-0.6,0.5-0.9c0.1-0.2,0.2-0.3,0.3-0.4c0.2-0.1,0.6-0.1,0.7-0.4c0-0.1-0.1-0.3-0.1-0.4
	c0-0.2,0.3-0.2,0.5-0.2c0.7,0,1.3,0,2,0.1c-0.2-0.3-0.5-0.5-0.7-0.8c1,0.2,2,0.3,3,0.2c-0.1-0.4-0.2-0.8-0.4-1.2
	c0.4,0.1,0.8,0.2,1.1,0.3c0.4,1.7,0.8,3.5,1.5,5.1c0.5,1.1,1.4,2.2,2.6,2.4c1.8,0.3,3.4-1.5,5.3-1.5c0.5,0,1,0.2,1.6,0.2
	c0.5,0,1.1-0.1,1.4-0.5c0.2-0.3,0.3-0.6,0.4-0.9c0.6-1.3,2.2-1.8,3.6-2c0.5,0,1-0.1,1.4-0.3c0.8-0.6,0.8-1.9,1.6-2.5
	c0.6-0.4,1.4-0.4,2.1-0.4c0.7-0.1,1.6-0.4,1.7-1.1c0-0.3-0.1-0.6-0.2-0.9c0.3,0.1,0.7,0.2,1,0.2c1.7,0.4,3.4,0.8,4.7,1.8
	c2.6,2,3.1,5.7,3.3,9c-0.1,0-0.2-0.1-0.3-0.1c-1.2-2.2-2.7-4.3-4.3-6.1C127.3,187.8,126,186.7,124.5,186.7z"/>
<path style="fill:none;stroke:#231916;stroke-width:2;stroke-miterlimit:10;" d="M157,160.8c-0.5-2.9-0.7-5.9-1.6-8.7
	c-0.3-1-0.8-1.9-1.3-2.9c-1.3-2.4-3-4.7-3.7-7.4c-0.4-1.6-1.2-3-2.4-4.1c0.7,0.5,1.4,1.1,1.8,1.9c-0.1-4.5-2.1-9-5.3-12.1
	c-0.9-6-6.1-10.5-7.9-16.3c0.4,0.5,0.8,1,1.2,1.5c0-7.6-3.2-15.1-8.4-20.6c-2.3-2.4-4.9-4.4-7.8-5.9c1.7-4.6,3.1-9.4,3.5-14.3
	c0.4-0.1,0.9-0.3,1.3-0.4c0.4-4,0.3-8-0.1-12c0.3,0.2,0.7,0.3,1,0.5c0.2-0.6,0.4-1.2,0.5-1.8c0.3-1.3,0.3-2.6,0.2-3.9
	c1,0,2-0.1,3-0.1c0.4-3,0.1-6-0.9-8.9c0.7,0,1.4,0.2,1.9,0.7c0.6-4-0.1-8.1-1.8-11.7c0.6,0.2,1.2,0.5,1.8,0.7
	c1.2-6.7-0.3-13.8-4.1-19.4h-0.4c0.1-5.1-0.6-10.2-2-15c-0.8-0.9-1.7-1.6-2.7-2.2c-0.3-0.7-1-1.4-1.8-1.6c-1.2-0.4-2.4-0.2-3.7,0
	c-0.1,0-0.3,0.1-0.4,0.1c-2.2,0.4-4.5,0.9-6.7,1.4c-1.7,0.4-3.4,0.8-4.7,1.9c-6,5-7.2,13.7-6.8,21.5c0.4,7.8,1.7,15.9-1.1,23.2
	c0.7,0,1.3,0,2,0c-1.4,4.8-3.1,9.5-5.3,14c1.1-0.5,2.1-1.4,2.8-2.4c-0.2,6.2-2.4,12.4-6,17.4c0.7,0,1.4,0,2.1,0
	c-0.6,1.7-0.9,3.5-0.9,5.3c-0.1,2.1-1.3,4.2-3.1,5.4c2.6,1.2,4.9,3.2,6.4,5.6c-1,0.2-2.1,0.4-3.1,0.7c2.6,1.8,5,3.8,7.2,6.1
	c3.2,3.3,6,7,8.3,11.1c0.6,1.1,0.6,3-0.6,2.8c2.9,3.6,4.7,8,5.2,12.6c1.6,3.6,2.8,7.4,4.8,10.8c1.5,2.6,3.3,5,5.2,7.3
	c0.7,0.9,1.5,1.8,2.2,2.8c3,3.9,6.1,8.7,8.1,13.2c0.9,2,2.5,3.6,4.4,4.5c0.2,0.1,0.5,0.2,0.6,0.4s0.1,0.5,0.1,0.7
	c0,0.3,0,0.6-0.1,0.9h0.1c0,2.1,0,4.2,0,6.2c0.9-1,1.6-2.1,2-3.3c0.7,1.6,1.5,3.1,2.2,4.7c0-0.6,0.2-1.2,0.6-1.7
	c0.6,0.9,1.4,1.7,2.3,2.3c0.2-0.3,0.5-0.6,0.9-0.9c1.2,1.2,2.3,2.6,3.2,4c0.5-1.3,0.3-2.9-0.5-4.1c-0.1-0.1-0.2-0.3-0.3-0.4
	c0.1,0.1,0.2,0.3,0.3,0.4c0.6,0.8,1.3,1.6,2.1,2.3c-0.1-1.1-0.1-2.2-0.2-3.3c0.9,0.6,1.8,1,2.8,1.4c-0.1-1.3,0.1-2.6,0.5-3.9
	c0.3,0.1,0.6,0.1,0.9,0.2c-0.3-1.2-0.4-2.4-0.3-3.6c0.4,0.4,1,0.3,1.4,0c0.3-1,0.8-1.9,1.3-2.8l0,0C157,161.2,157,161,157,160.8z
	 M115.7,117.1L115.7,117.1C115.8,117.1,115.8,117.1,115.7,117.1C115.8,117.1,115.7,117.1,115.7,117.1z M121.7,128.1
	c0-0.1,0-0.1,0-0.2C121.7,128,121.7,128,121.7,128.1z M134.2,109.4c-0.1-0.8-0.3-1.6-0.4-2.4c-0.3,0.5-0.7,1.1-1,1.6
	c-0.5-3-0.7-6.1-0.4-9.2c0.7,2.5,1,5,1.4,7.5c0.2-0.3,0.4-0.6,0.6-0.9C134.3,107.1,134.3,108.2,134.2,109.4z M137.9,121.8
	c0.2-0.4,0.4-0.8,0.7-1.2c0.3,1.6,0.7,3.2,1,4.8C139,124.2,138.5,123,137.9,121.8z"/>
<path style="fill:none;stroke:#231916;stroke-width:2;stroke-miterlimit:10;" d="M124.1,185.1c-0.1,0.7-0.9,1.1-1.7,1.1
	c-0.7,0.1-1.5,0-2.1,0.4c-0.8,0.6-0.8,2-1.6,2.5c-0.4,0.3-0.9,0.3-1.4,0.3c-1.4,0.1-3,0.6-3.6,2c-0.1,0.3-0.2,0.7-0.4,0.9
	c-0.3,0.4-0.9,0.5-1.4,0.5s-1-0.2-1.6-0.2c-1.9,0-3.4,1.8-5.3,1.5c-1.2-0.2-2.1-1.3-2.6-2.4c-0.8-1.6-1.1-3.3-1.5-5.1
	c0.2,0,0.4,0.1,0.5,0.1c0.8-0.2,1.6-0.5,2.4-0.8c-0.5-0.2-0.8-0.6-0.9-1.1c0.7-0.1,1.4-0.2,2.1-0.1c-0.3-0.2-0.5-0.5-0.8-0.7
	c0.1-0.1,0.1-0.3,0.2-0.4c1.2,0,2.4,0,3.6,0.1c-0.3-0.4-0.6-0.9-1-1.2c1,0.2,2.1,0.3,3.1,0.5c0.4,0.1,1,0.1,1.1-0.3
	c-1-1.6-1.6-3.6-1.5-5.5h0.2c0.2,1.3,0.9,2.7,1.9,3.5c1.5,1.2,3.4,1.6,5.2,2c2.2,0.5,4.5,1,6.7,1.5
	C124.1,184.4,124.2,184.8,124.1,185.1z"/>
<path style="fill:none;stroke:#231916;stroke-width:2;stroke-miterlimit:10;" d="M96.7,189.8c-1,0.8-1.9,1.6-2.9,2.4l-0.4-0.4
	c0.3-0.5,0.5-0.9,0.8-1.4c0.1-0.1,0.2-0.1,0.3-0.2C95.1,189.6,96.2,189,96.7,189.8z"/>
<path style="fill:none;stroke:#231916;stroke-width:2;stroke-miterlimit:10;" d="M81.6,149c1,0,2,0,3.1,0c-1.8,2.2-3.1,4.8-3.9,7.5
	c-2.6,1.1-5.7,1.3-8.5,1.9c-1.4,0.3-2.7,0.7-4,1.4c-0.2,0.1-0.5,0.3-0.6,0.5c-0.2,0.4,0.1,0.9,0.4,1.3c0.2,0.3,0.5,0.6,0.7,0.9
	c-0.8,0.8-1.4,1.8-1.6,2.9c-0.3,1.7,0.2,3.6,1.4,4.8c0.6,0.7,1.5,1.2,1.6,2.1c-0.5,0.2-1.1,0.3-1.6,0.5c0.7,0.9,1.4,1.8,2.1,2.7
	c-0.5-0.1-1.1-0.1-1.6,0.1c0.8,1.4,1.5,2.8,2.3,4.2c0.1,0.2,0.3,0.5,0.5,0.6c0.2,0.2,0.4,0.2,0.7,0.3c0.5,0.2,0.8,0.6,1.1,1
	c-0.1,0.1-0.2,0.3-0.3,0.4c-0.2,0.2-0.3,0.5-0.6,0.6c-0.4,0.1-0.7,0-1.1-0.2c-1.1-0.6-2.3-1.1-3.4-1.7c-0.1,0.6-0.1,1.2,0,1.8
	c-1.8-0.7-3.5-1.5-5.1-2.6c0.1,0.4,0.1,0.8,0.2,1.2c-1.1-1.2-2.4-2.3-3.8-3.3c-0.5,0.6-1.2,1-1.9,1.4c-0.3-0.7-0.7-1.3-1.1-1.9
	c-0.2-0.3-0.3-0.5-0.5-0.8c-0.4,0.9-1,1.7-1.7,2.3c0-0.5,0-1.1,0-1.6c-0.7,0.9-1.5,1.8-2.5,2.3c-0.2,0.1-0.4,0.2-0.5,0.2
	c0.2-0.8,0.5-1.5,0.7-2.2c-1.4,0.2-2.3-1.3-2.6-2.7c-0.8-3.5-0.1-7.2-0.8-10.7c-0.3-1.5-0.8-2.9-1.2-4.4c-1.3-5.3-0.8-11.1,1.6-16
	c0.4-0.9,1-1.9,1.7-2.6c0.1-0.1,0.2-0.2,0.3-0.3c0.9-0.7,2.3-1.1,3.3-0.6c1.3-2.9,4.2-4.8,7.1-6.1c3.7-1.7,7.6-2.7,11.6-3.1
	c0.5-2.5,3.7-3.7,4.7-5.9c0.6,0.9,1.2,1.7,1.9,2.4c0.1,1.6,0.6,3.1,1.5,4.5c0.1,0.2,0.3,0.4,0.5,0.6c0.4,0.5,0.8,1.1,1.1,1.7
	c0.4,0.9,0.4,2-0.3,2.7c0.8-0.3,1.7-0.5,2.5-0.3C83.9,141,82.7,145,81.6,149z"/>
<path style="fill:none;stroke:#231916;stroke-width:2;stroke-miterlimit:10;" d="M80.2,195.1c-1.2-3.6-3.4-6.8-3.9-10.5
	c1.3,3.7,2.9,7.2,4.7,10.6c0,0.1,0.1,0.2,0.1,0.2C80.9,195.3,80.5,195.2,80.2,195.1z"/>
<path style="fill:none;stroke:#231916;stroke-width:2;stroke-miterlimit:10;" d="M76,195.2c-0.3-2.8-0.7-5.5-2.2-7.8
	c-0.4-0.7-1-1.4-1-2.2c2.1,2.6,3.5,5.8,3.9,9.2c0,0.2,0,0.4,0,0.6C76.6,195.1,76.3,195.2,76,195.2z"/>
<path style="fill:none;stroke:#231916;stroke-width:2;stroke-miterlimit:10;" d="M67.2,187.3c1.2,0.7,2.2,1.7,2.9,2.8
	c0.4,0.7,0.7,1.4,1,2c0.6,1,1.4,1.9,2.1,2.9c-0.8-0.3-1.6-0.8-2.3-1.4c-1.7-1.6-2.5-3.8-3.6-5.9C67.3,187.6,67.3,187.4,67.2,187.3z"
	/>
<path style="fill:none;stroke:#231916;stroke-width:2;stroke-miterlimit:10;" d="M81.4,195.4c-0.1,0-0.1,0-0.2,0
	c0-0.1-0.1-0.2-0.1-0.2c-1.9-3.4-3.5-7-4.7-10.6c0.5,3.7,2.7,7,3.9,10.5c-0.3-0.2-0.6-0.4-0.8-0.6c0.1,0.6,0.1,1.1,0.2,1.7
	c-0.9-0.1-1.8-0.6-2.3-1.4c-0.1,0.1-0.3,0.2-0.5,0.3c0-0.2,0-0.4,0-0.6c-0.4-3.4-1.8-6.6-3.9-9.2c0.1,0.8,0.6,1.5,1,2.2
	c1.4,2.3,1.9,5.1,2.2,7.8c-0.9,0.2-1.9,0.1-2.8-0.2c-0.7-1-1.5-1.9-2.1-2.9c-0.4-0.7-0.6-1.4-1-2c-0.7-1.2-1.7-2.2-2.9-2.8
	c-0.2-0.4-0.4-0.7-0.8-0.9c-1.4-1-3.8-0.2-4.7-1.6c0,0,0-0.1-0.1-0.1c0,0,0,0.1,0.1,0.1c0.1,0.3-0.5,0.6-0.9,0.6
	c-0.9,0.1-1.7,0.6-2.6,0.9c-0.9,0.3-2,0.3-2.6-0.4c0.2,1,0.6,1.9,0.8,2.9c0,0.3,0,0.5,0,0.8c-0.3,0.3-0.7,0.6-1,0.8
	c-0.2,0.2-0.4,0.3-0.6,0.3c-0.2,0-0.4-0.2-0.6-0.4c-1.8-2.2-3-4.7-3.7-7.5c0.1-1,0.4-1.9,0.7-2.9c0.2,0,0.4-0.1,0.5-0.2
	c1-0.5,1.8-1.4,2.5-2.3c0,0.5,0,1.1,0,1.6c0.7-0.6,1.3-1.4,1.7-2.3c0.2,0.2,0.4,0.5,0.5,0.8c0.4,0.6,0.8,1.3,1.1,1.9
	c0.7-0.4,1.3-0.8,1.9-1.4c1.4,0.9,2.7,2,3.8,3.3c-0.1-0.4-0.1-0.8-0.2-1.2c1.6,1.1,3.3,1.9,5.1,2.6c-0.1-0.6-0.1-1.2,0-1.8
	c1.1,0.6,2.3,1.1,3.4,1.7c0.3,0.2,0.7,0.3,1.1,0.2c0.3-0.1,0.4-0.3,0.6-0.6c0.1-0.1,0.2-0.3,0.3-0.4c0.2,0.3,0.4,0.6,0.6,1
	c1.1-0.3,2.2-0.8,3-1.5c1.2,2.2,2.3,4.4,3.2,6.7C81.2,190.3,82,192.9,81.4,195.4z"/>
<path style="fill:none;stroke:#231916;stroke-width:2;stroke-miterlimit:10;" d="M184.3-10.8c-1.9-3.1-4.9-5.5-8.1-7.3
	c-0.8-0.5-1.7-0.9-2.5-1.3c-4.8-2.3-10.1-3.6-15.4-3.5c-2.8,0-5.7,0.5-8.4,1.4c-3.1,1-6.1,2.5-8.7,4.6c-0.8,0.3-1.7,0.3-2.6,0
	c-1.2-0.4-2.2-1.3-3.2-2.1c0,0.4,0,0.8,0.1,1.2c-2.4-0.5-4.9-0.8-7.4-1.1c-3.1-0.3-6.2-0.3-9.4-0.2c0.5,0.3,0.9,0.9,1.1,1.5
	c-7.1,0.9-14.1,2.6-20.8,5.1c-0.2,0.3-0.4,0.6-0.7,0.8c0.1,0,0.2,0.1,0.3,0.1c-0.3,0.2-0.5,0.4-0.8,0.6C92.3-7.1,87-2.8,82,1.9
	c0.6,0.4,1.2,0.7,1.9,0.7C77.5,6.7,72,12.1,67.7,18.3c0.7-0.2,1.4-0.5,2.2-0.7C68,24.2,65,30.5,61,36.1c0.7-0.1,1.4-0.3,2.1-0.4
	c-2.2,5.8-5.9,11.1-10.6,15.2c0.7-0.2,1.4-0.6,1.9-1.2c-4.4,9-8,18.3-11,27.8c0.8-0.5,1.3-1.3,1.5-2.1c0.6,8.4,1.2,16.9,4.5,24.6
	c0.4-0.7,1-1.3,1.7-1.7c1.5,7.1,5.4,13.7,11,18.4c0.5,0.4,1.1,0.9,1.7,1c1.4,0.4,2.9-0.6,3.2-2c1.3,1.7,2.7,3.6,4.3,5.1
	c1.9,1.9,4.2,3.3,6.8,3.6c0,0.3-0.1,0.6-0.3,0.8c0.6,0.9,1.2,1.7,1.9,2.4c0.1,1.6,0.6,3.1,1.5,4.5c0.1,0.2,0.3,0.4,0.5,0.6
	c0.4,0.5,0.8,1.1,1.1,1.7c0.4,0.9,0.4,2-0.3,2.7c0.8-0.3,1.7-0.5,2.5-0.3c-1.2,4-2.3,8-3.5,12c1,0,2,0,3.1,0
	c-1.8,2.2-3.1,4.8-3.9,7.5c0.5-0.2,1-0.5,1.4-0.8c-0.7,2.2-0.9,4.5-0.8,6.8c0.9-0.3,1.7-1,2-1.8c-1.3,3.6-2.1,7.3-2.3,11.1
	c0.2-0.3,0.4-0.6,0.5-1c0,2.3,0.2,4.6,0.7,6.9c0.6-0.8,1.2-1.5,1.7-2.3c-0.6,2.3-0.8,4.7-0.6,7c0.4-0.1,0.8-0.2,1.2-0.3
	c-1.1,3.1-1.8,6.3-2,9.6c0.4-0.4,0.9-0.8,1.3-1.1c-0.5,2.8,1.9,5.4,4.5,6.4c1,0.4,2.1,0.6,3.2,0.7c-0.3-0.2-0.5-0.5-0.6-0.8
	c-0.3-0.7-0.1-1.4,0.3-2c0.6-1,1.5-1.8,2.4-2.5l-0.4-0.4c0.3-0.5,0.5-0.9,0.8-1.4c0.2-0.3,0.3-0.6,0.5-0.9c0.1-0.2,0.2-0.3,0.3-0.4
	c0.2-0.1,0.6-0.1,0.7-0.4c0-0.1-0.1-0.3-0.1-0.4c0-0.2,0.3-0.2,0.5-0.2c0.7,0,1.3,0,2,0.1c-0.2-0.3-0.5-0.5-0.7-0.8
	c1,0.2,2,0.3,3,0.2c-0.1-0.4-0.2-0.8-0.4-1.2c0.4,0.1,0.8,0.2,1.1,0.3c0.2,0,0.4,0.1,0.5,0.1c0.8-0.2,1.6-0.5,2.4-0.8
	c-0.5-0.2-0.8-0.6-0.9-1.1c0.7-0.1,1.4-0.2,2.1-0.1c-0.3-0.2-0.5-0.5-0.8-0.7c0.1-0.1,0.1-0.3,0.2-0.4c1.2,0,2.4,0,3.6,0.1
	c-0.3-0.4-0.6-0.9-1-1.2c1,0.2,2.1,0.3,3.1,0.5c0.4,0.1,1,0.1,1.1-0.3c-1-1.6-1.6-3.6-1.5-5.5h0.2c-0.1-0.7,0-1.3,0.2-1.9
	c-0.5-1.9-0.8-3.9-1-5.9c0.3,0.4,0.5,0.8,0.8,1.1c0.1-2.4,0.4-4.9,0.8-7.3c0.5-0.1,1.1,0.1,1.3,0.6c-0.3-1.7-0.6-3.3-0.9-5
	c0.3,0.4,0.7,0.8,1,1.2c0-2.2,0-4.5,0-6.7c0.1,0.3,0.2,0.6,0.3,0.9c0.3-1,0.5-1.9,0.7-2.9c0.7-5.1-0.9-10.5-4.4-14.3
	c-0.2-0.2-0.5-0.5-0.5-0.8c-0.1-0.3,0-0.7,0.1-1c1.6-4.8,3.8-9.9,2.5-14.8c0.6,1,1.1,2,1.5,3c-0.5-4.6-2.4-9-5.2-12.6
	c1.2,0.2,1.2-1.8,0.6-2.8c-2.2-4.1-5-7.8-8.3-11.1c-2.2-2.2-4.6-4.3-7.2-6.1c1-0.2,2.1-0.4,3.1-0.7c-1.5-2.4-3.8-4.4-6.4-5.6
	c1.8-1.2,3-3.2,3.1-5.4c0.1-1.8,0.4-3.6,0.9-5.3c-0.7,0-1.4,0-2.1,0c3.7-5,5.8-11.2,6-17.4c-0.7,1-1.7,1.8-2.8,2.4
	c2.2-4.5,3.9-9.2,5.3-14c-0.6,0-1.3,0-2,0c2.8-7.3,1.4-15.4,1.1-23.2c-0.4-7.8,0.8-16.6,6.8-21.5c1.3-1.1,3-1.5,4.7-1.9
	c2.2-0.5,4.4-1,6.7-1.4c0.1,0,0.3-0.1,0.4-0.1c1.2-0.2,2.5-0.4,3.7,0c0.8,0.3,1.5,0.9,1.8,1.6c1,0.6,1.9,1.4,2.7,2.2
	c1.3,1.4,2.4,3.1,3.1,4.9c1.4,3.3,1.9,7,2,10.6c-0.9-0.2-1.9-0.3-2.8-0.5c3.8,5.6,5.3,12.7,4.1,19.4c-0.6-0.2-1.2-0.5-1.8-0.7
	c1.8,3.6,2.4,7.7,1.8,11.7c-0.5-0.4-1.2-0.7-1.9-0.7c1,2.8,1.3,5.9,0.9,8.9c-1,0-2,0.1-3,0.1c0.2,1.3,0.1,2.6-0.2,3.9
	c-0.1,0.6-0.3,1.2-0.5,1.8c-0.3-0.1-0.7-0.3-1-0.5c0.4,4,0.5,8,0.1,12c0,0,0,0,0.1,0c0.1,0.6,0.5,1.1,1,1.5c0.4-0.8,0.7-1.7,0.9-2.6
	c0.1,0.8,0.4,1.5,0.9,2.1c1-1.3,1.7-2.8,2.1-4.3c0,0.4-0.1,0.8-0.1,1.2c0.7-0.8,1.5-1.5,2.4-2.1c-0.1,0.4-0.2,0.8-0.2,1.2
	c1.6-0.9,3-2.3,3.8-4c-0.3,0.9-0.5,1.8-0.6,2.7c2.1-1.6,4.1-3.5,5.8-5.5c-0.1,0.4-0.2,0.9-0.3,1.3c1.4-0.9,2.6-2.1,3.4-3.6
	c-0.2,0.4-0.1,0.9,0.2,1.2c1-1,1.7-2.4,1.9-3.8c0,0.5,0,0.9,0.1,1.4c1.5-1.2,2.5-3,2.8-4.8c0.1,1.4-0.2,2.9-0.7,4.2
	c3.3-3,4.3-7.9,4.6-12.4c0.8-0.5,1.5-1,2.3-1.5c0.1,0.9,0.2,1.8,0.3,2.7c0.7-1.6,1.3-3.2,1.9-4.9c-1.5-1.5-3-3.1-4.5-4.7
	c-1.2-1.3-2.3-2.6-3.1-4.2c-0.4-1-0.7-2.1-0.6-3.2c0.8,1.9,1.8,3.6,3.1,5.1c2.2,2.4,5.2,3.7,7.9,5.4c2.5,1.6,4.8,3.6,6.7,5.8
	c1.4,1.6,2.7,3.4,4.4,4.6c1.9,1.3,4.4,1.9,6.7,1.7c1.2-0.1,2.5-0.4,3.5-1.1c0.5-0.4,1-0.9,1.3-1.4c-1.9-1-3.6-2.3-5.2-3.7
	c-2.7-2.2-5.4-4.4-7.2-7.4c-0.1-0.2-0.2-0.4-0.3-0.6c-0.5-0.3-0.9-0.7-1.1-1.2c-0.1-0.1-0.1-0.2-0.1-0.3c-0.3-0.8-0.4-1.8-0.3-2.7
	c0-0.3,0-0.6-0.1-0.8s-0.5-0.4-0.7-0.2c-0.1-0.9-0.2-1.8-0.3-2.7c-0.2,0-0.5,0-0.7,0c-0.3-0.8-0.5-1.6-0.6-2.4
	c-0.2-0.1-0.5,0-0.6,0.2c-0.1-0.8-0.2-1.6-0.1-2.4c0-0.2,0-0.4,0-0.6c-0.1,0.2-0.4,0.1-0.6,0c-0.1-0.1-0.2-0.4-0.2-0.6
	c-0.5-2.8-0.8-5.6-0.7-8.5c0-0.5,0-0.9,0-1.4c-0.1-1-0.6-1.9-0.7-2.9c-0.1-1.3,0.4-2.6,1-3.8c0.6-1.3,1.3-2.7,2.3-3.8
	c1.4-1.6,3.3-2.7,5.3-3.3c0.4-0.1,0.8-0.2,1.2-0.3c2.9-0.6,5.9-0.4,8.6,0.7c0.3,0.1,0.5,0.2,0.8,0.3c0.3-0.8,0.9-1.4,1.6-1.7
	C186.8-3.9,186.1-7.8,184.3-10.8z M111.7,148.8L111.7,148.8c0,0.1,0.1,0.2,0.1,0.2C111.8,149.2,111.6,148.8,111.7,148.8z
	 M109.4,144.9c0.1,0.1,0.1,0.3,0.2,0.4c-0.3-0.2-0.5-0.5-0.5-0.9C109.1,144.6,109.3,144.7,109.4,144.9z M136.2,3.1
	c0-0.4,0.1-0.8,0.1-1.2C136.3,2.3,136.3,2.7,136.2,3.1z M151.8,12.1c-0.1,0.4-0.4,0.7-0.8,0.8c-1.2,0.5-2.6,0.1-3.6-0.7
	s-1.6-2-2.3-3.1c-0.5-0.9-1-1.7-1.5-2.6c-0.8-1.4-1.5-2.7-2.3-4.1s-1.7-3-1.8-4.6s0.4-3.2,1-4.7c0.4-1.1,0.9-2.1,1.8-2.9
	c1.3-1.2,3.2-1.5,4.9-0.9c1.4,0.5,2.6,1.6,3.3,2.9c0.2,0,0.4,0,0.6,0.1c0.4,0.8-0.5,1.7-1.3,1.7c-0.9,0-1.6-0.6-2.3-1.1
	c-0.1-0.1-0.2-0.2-0.3-0.2c-1.2,0.6-2.2,1.8-2.8,2.9c-0.5,0.8-0.8,1.7-1,2.7c-0.3,1.8,0.2,3.6,0.6,5.4c0.3,0.9,0.6,1.7,1,2.6
	c0.9,1.9,2.4,3.8,4.5,4.2c0.5,0.1,1.1,0.1,1.6,0.3C151.5,11.1,151.9,11.6,151.8,12.1z M149.6-0.9c0.1,1-0.1,2-0.6,2.8
	c0.2,0,0.5,0,0.7,0c-0.4,0.6-0.8,1.1-1.2,1.7c0.6-0.1,1.1-0.2,1.7-0.3c-0.3,1.1-0.9,2.3-2,2.6c-0.1,0-0.2,0-0.3,0
	c-0.1-0.1-0.1-0.2-0.2-0.3c-1-2.3-1-4.9-0.3-7.3c0.2-0.7,0.5-1.4,1.1-1.7c0.4-0.2,1.1-0.1,1.4,0.2c-0.2,0.2-0.4,0.6-0.4,0.9
	C149.5-1.8,149.6-1.4,149.6-0.9z"/>
<path style="fill:none;stroke:#231916;stroke-width:2;stroke-miterlimit:10;" d="M50.5,182.8c0.7,2.7,1.9,5.3,3.7,7.5
	c0.1,0.2,0.3,0.4,0.6,0.4c0.2,0,0.5-0.1,0.7-0.3c0.3-0.3,0.7-0.6,1-0.8c-0.1,0.8-0.3,1.5-1,1.9c-0.8,0.6-2.3,0.1-2.3-0.9
	c-1.9-1.4-2.8-3.8-2.8-6.1C50.4,183.9,50.5,183.4,50.5,182.8z"/>
</svg>
