<?xml version="1.0" encoding="utf-8"?>
<!-- Generator: Adobe Illustrator 22.1.0, SVG Export Plug-In . SVG Version: 6.00 Build 0)  -->
<svg version="1.1" id="Layer_1" xmlns="http://www.w3.org/2000/svg" xmlns:xlink="http://www.w3.org/1999/xlink" x="0px" y="0px"
	 viewBox="0 0 512 512" style="enable-background:new 0 0 512 512;" xml:space="preserve">
<path d="M274.7,30.1c3.9,32.6,1.5,68.9,20.4,96.9c10,7.7,35.4,32.3,32.6,29.6c-10.7-25.1-43.9-31.8-42.7-63.1
	C280.3,72.7,277.5,51.4,274.7,30.1L274.7,30.1z M421.6,227.2c-14.3,2.2-24.9,25.3-23.8,31.7C401.9,245.4,411.3,235.8,421.6,227.2
	L421.6,227.2z M64,361.5c1,11.8,31.8,32.1,14.8,10.8C73.1,369.8,66.8,367.9,64,361.5z M89.6,354.4c1.6-25.4-40.2-17.5-26.7,5.5
	c-2.3-16.3,17.4-24.6,22.5-7.2L89.6,354.4L89.6,354.4z M88,422.6c1.4,23.7-30.7,36-18.9,60.2c17.6,10.2,43.3,5.9,60.9-4.2
	c4.7-8.7-19.8-26.1-10-4.5c-7.8,13.5-45.6,21.7-49.6-1.6C72.9,454.5,94.3,442.2,88,422.6L88,422.6z M125.6,439.1
	c-5.8,8-10.8,14.7-4.1,1.6C123.2,437.6,123.1,434.4,125.6,439.1z M243.8,441.3c0.1,11.5,27.7,22.2,3.3,13.3
	C241.4,452.9,242.4,416.6,243.8,441.3z M198.7,442.4c9.9,27.1,41.7,29.3,65.2,25.8c12.3,0.2,18.8-1.5,3.4-5.4
	c-20.1-5.6-43.9,12.3-59.2-10.9C204.9,448.8,201.7,445.7,198.7,442.4L198.7,442.4z M138.7,430.3c29.6,8.2,61.7,15,91.3,2.7
	c10.5-4.9,49.4,3.8,20-3.8c-22.7-5.8-43.6,13.5-66.8,7.7C169.5,428.1,154.1,429.2,138.7,430.3L138.7,430.3z M90.1,417.1
	c9.2,21.5,37.7,26.6,51,6c16.5-20,14.4-48.8,14.4-73.7c-3.2,27.8-2.1,61.9-26.8,79.7C116.8,441.1,98.2,427.1,90.1,417.1L90.1,417.1z
	 M294,237.1c-15.2,22.2-43.7,8.2-65.4,11.4c-30.6-0.1-65,2.8-89,25.1c-22,23.6-45,50.3-47.3,85c-1.4,15.2-13.4,42.5-2.9,49.1
	c-2-36,8.1-74.1,34.5-98.6c12.7-15.2,17-38.8,38.8-43.8c26.1-15,57.3-14.5,85.3-6.2C263.9,256.7,287.2,255.4,294,237.1L294,237.1z
	 M275.2,342.8c-2.2,21.5-25.8,37.1-17.3,59.8c7.8,28.9,29,52,33.5,82.2c-0.2,26,37.8,20.6,44,23c-12.4-1.1-25.5,0.1-37.5-2.4
	c-18.7-14.1-8.9-43.7-27-60.4c-4-23-33.9-42.1-18.4-66.3C261.2,367.4,271,357.4,275.2,342.8L275.2,342.8z M344.2,410
	c-0.4,24.3-0.2,48,17,65.7c15,17.8-26.4,14.6-13.6,9.9c27.7,2.1-1-28.1-9.2-37C336,435.5,340.5,422.2,344.2,410L344.2,410z
	 M411.1,294.4c-5.4,20.5-19.7,37.3-21.4,58.9c-6.7,24.1-24.7,44.3-46.5,54c-14.6,13.7-28.6,37.1-17.3,57.8
	c7.1,10.7,29.6,33.2,14.1,42.9c8.3-19.6-18.5-38.3-20.9-58.9c-0.7-19,11-43.1,29.8-47.6c16.7-13.8,31.5-33.4,39.7-54.2
	C393.3,328.6,401.6,310.8,411.1,294.4L411.1,294.4z M309.4,263.4c25.3,2.4,34.7,33.6,60.8,32.6c10,4.6,37.5-3.4,39.1-6.8
	c-20.7,7.4-45,10.1-63.1-5.7C336.5,271.8,324,265.1,309.4,263.4L309.4,263.4z M310.1,194.9c-6.9,19.8-20.1,41.3-9.2,62.7
	C293.5,234.5,308.9,217.1,310.1,194.9L310.1,194.9z M461,233.8c6.4,20-2.1,53.4-27,49.4C456,282.4,465,257,461,233.8L461,233.8z
	 M446.9,259.5c-1.4,23.9-41.7,39.7-50.7,15c-2.1-10.6-1.3-19.5,1.9-3.7c5.4,24.7,41.1,13.1,46.4-6.6l1.3-2.4L446.9,259.5
	L446.9,259.5z M439.5,238.9c2.4,8.6,9.6,25.3,12.9,9c8-12.4-1.3-16.5-1.6-0.3C446.6,247.7,447,233.8,439.5,238.9L439.5,238.9z
	 M363,199.1c13.8-12.2,27.7,1,26.5,16.5c-0.2,5.3-32.3,4.3-26.3-14.7l-0.1-1.3L363,199.1L363,199.1z M403.3,153.2
	c24.6,8.1,48.3,27.4,46.5,57.3c2.2,8.8,17.8,29.4,3.1,11.3c-8.6-21-11.3-49.3-34.4-60.5C413.5,158.4,408.5,155.7,403.3,153.2
	L403.3,153.2z M265,23.6c-14.5,32.3-4.4,70.4,8.9,101.2c7.4,18.8,26,28.7,34,46.8c-7.8,11,10.4,25.5,6.5,8.8
	c-5-12.8-14.4-27.8-26.3-38.8C261.5,109.9,255.4,63.6,265,23.6L265,23.6z M414.8,37.6c-15.6,30.5-21.5,65.8-23.3,100
	c-1.8,11.1,15.4,19.4-0.7,9c-4.6-18.3,1.2-38.1,4.1-56.5C399.1,71.7,401.3,51.7,414.8,37.6L414.8,37.6z M354.9,105.7
	c2.2-24.9,15.3-46.6,34.6-60.9c10.2-6.7,31-39.2,38.5-22.3c1.8,13.9-19.3,17.9-6.3,3.6c12.8-19.6-17.3,4.3-19.9,12
	c-17.9,13-33.2,30.1-40.6,52.1C359,95.3,356.9,100.5,354.9,105.7L354.9,105.7z M364.1,149.3c-9.8-18.2-9-41.7-13.2-62.3
	c-0.3-7.8-13.9-30.9-5.1-10.8c7.6,23.8,5.8,51.5,15.7,73.5C361.6,150.1,369.7,151.5,364.1,149.3L364.1,149.3z M334.9,181.6
	c9.5-18.5,19.8-38.1,15-60.1c-3.3-24.3-5.8-49.5-14.7-72.4c-11.3-19.3-26.6-46.7-52.1-41.3c-10.4,1.6-24,23.2-5.9,9.5
	c21.1-12,43.4,8.9,52.5,28c16.6,29.5,13,64.7,10.4,97.3c1.1,14.9-29.4,44.4-9.1,49.9C335.5,190.4,335.9,186.2,334.9,181.6
	L334.9,181.6z"/>
</svg>
