<?xml version="1.0" encoding="utf-8"?>
<!-- Generator: Adobe Illustrator 22.1.0, SVG Export Plug-In . SVG Version: 6.00 Build 0)  -->
<svg version="1.1" id="Layer_1" xmlns="http://www.w3.org/2000/svg" xmlns:xlink="http://www.w3.org/1999/xlink" x="0px" y="0px"
	 viewBox="0 0 800 800" style="enable-background:new 0 0 800 800;" xml:space="preserve">
<g transform="translate(27.724 7.6479)">
	<path style="fill:none;stroke:#000000;stroke-width:5;stroke-miterlimit:10;" d="M347.4,205.9C347.4,307.4,275,380,189.1,380
		S36.4,307.4,36.4,205.9s85-234.1,152.7-234.1S347.4,104.3,347.4,205.9z"/>
	<path style="fill:none;stroke:#000000;stroke-width:5;stroke-miterlimit:10;" d="M347.4,205.9C347.4,307.4,275,380,189.1,380
		S36.4,307.4,36.4,205.9s85-234.1,152.7-234.1S347.4,104.3,347.4,205.9z"/>
	<path style="fill:none;stroke:#000000;stroke-width:5;stroke-miterlimit:10;" d="M347.4,205.9C347.4,307.4,275,380,189.1,380
		S36.4,307.4,36.4,205.9s85-234.1,152.7-234.1S347.4,104.3,347.4,205.9z"/>
</g>
<g transform="translate(27.724 7.6479)">
	<path style="fill:none;stroke:#000000;stroke-width:5;stroke-miterlimit:10;" d="M637.2,369.9c-22.2,74-90.8,111.1-153.4,92.4
		S388.3,376,410.5,302s113-152.1,162.4-137.3C622.3,179.5,659.3,295.9,637.2,369.9z"/>
	<path style="fill:none;stroke:#000000;stroke-width:5;stroke-miterlimit:10;" d="M637.2,369.9c-22.2,74-90.8,111.1-153.4,92.4
		S388.3,376,410.5,302s113-152.1,162.4-137.3C622.3,179.5,659.3,295.9,637.2,369.9z"/>
	<path style="fill:none;stroke:#000000;stroke-width:5;stroke-miterlimit:10;" d="M637.2,369.9c-22.2,74-90.8,111.1-153.4,92.4
		S388.3,376,410.5,302s113-152.1,162.4-137.3C622.3,179.5,659.3,295.9,637.2,369.9z"/>
</g>
<g transform="translate(27.724 7.6479)">
	<path style="fill:none;stroke:#000000;stroke-width:5;stroke-miterlimit:10;" d="M321.2,582.8c19.2,60.9-10.5,118-61.9,134.2
		c-51.5,16.2-105.2-14.6-124.4-75.5s6.7-156.4,47.2-169.2C222.6,459.6,302,521.9,321.2,582.8z"/>
	<path style="fill:none;stroke:#000000;stroke-width:5;stroke-miterlimit:10;" d="M321.2,582.8c19.2,60.9-10.5,118-61.9,134.2
		c-51.5,16.2-105.2-14.6-124.4-75.5s6.7-156.4,47.2-169.2C222.6,459.6,302,521.9,321.2,582.8z"/>
	<path style="fill:none;stroke:#000000;stroke-width:5;stroke-miterlimit:10;" d="M321.2,582.8c19.2,60.9-10.5,118-61.9,134.2
		c-51.5,16.2-105.2-14.6-124.4-75.5s6.7-156.4,47.2-169.2C222.6,459.6,302,521.9,321.2,582.8z"/>
</g>
<g transform="translate(27.724 7.6479)">
	<path style="fill:none;stroke:#000000;stroke-width:5;stroke-miterlimit:10;" d="M532.4,715.6c-29.7,40.8-80,48.7-114.5,23.5
		s-40.1-73.8-10.3-114.6c29.7-40.8,102.7-69.1,129.8-49.3S562.1,674.9,532.4,715.6z"/>
	<path style="fill:none;stroke:#000000;stroke-width:5;stroke-miterlimit:10;" d="M532.4,715.6c-29.7,40.8-80,48.7-114.5,23.5
		s-40.1-73.8-10.3-114.6c29.7-40.8,102.7-69.1,129.8-49.3S562.1,674.9,532.4,715.6z"/>
	<path style="fill:none;stroke:#000000;stroke-width:5;stroke-miterlimit:10;" d="M532.4,715.6c-29.7,40.8-80,48.7-114.5,23.5
		s-40.1-73.8-10.3-114.6c29.7-40.8,102.7-69.1,129.8-49.3S562.1,674.9,532.4,715.6z"/>
</g>
</svg>
