<?xml version="1.0" encoding="utf-8"?>
<!-- Generator: Adobe Illustrator 22.1.0, SVG Export Plug-In . SVG Version: 6.00 Build 0)  -->
<svg version="1.1" id="Layer_1" xmlns="http://www.w3.org/2000/svg" xmlns:xlink="http://www.w3.org/1999/xlink" x="0px" y="0px"
	 viewBox="0 0 512 512" style="enable-background:new 0 0 512 512;" xml:space="preserve">
<path style="fill:none;stroke:#000000;stroke-miterlimit:10;" d="M326.9,477.2l-0.5-2.2h0.9l0.9,2.2c0.6,1.8,1.1,2.6,1.4,2.6v0.9
	c-0.3,0.9-0.5,1.8-0.5,2.6v0.9h-0.9v-0.9l-0.5-1.8C327.5,480.1,327.2,478.6,326.9,477.2z"/>
<path style="fill:none;stroke:#000000;stroke-miterlimit:10;" d="M79.4,409.2h0.9v0.4c-0.3,0-0.5,7.2-0.5,21.6v21.2h-0.5L79,452
	l-0.9-0.4h-3.2v-14.1l-0.5-14.6V418l0.5-0.4v-0.4h1.4v-0.9h-0.5v-0.4h-0.5v-0.4h-0.5c0,0,0-0.9,0-2.6v-2.6h0.5v0.4l0.5-0.4l0.5-0.4
	v0.4h1.8c0,0,0-0.1,0-0.4C78.4,409.4,78.8,409.2,79.4,409.2z"/>
<path style="fill:none;stroke:#000000;stroke-miterlimit:10;" d="M335,497h0.9l0.5,0.4c0,0,0.3,0.1,0.9,0.4c0.6,0,1.2,0.7,1.8,2.2
	c0.6,1.2,1.2,1.9,1.8,2.2c0.9,0.3,1.4,0.4,1.4,0.4c-0.3,0-0.8,0.1-1.4,0.4l-1.4,0.4h0.5v0.4l0.5,0.4v0.4h-2.3
	c-0.3-0.3-0.6-0.4-0.9-0.4c0-0.3-0.6-1.5-1.8-3.5l-1.4-2.6v-0.9C334.1,497.2,334.4,497,335,497z"/>
<path style="fill:none;stroke:#000000;stroke-miterlimit:10;" d="M361.6,471.4l-1.4-0.4h108.4c0,0-0.2,0.1-0.5,0.4l-0.5,0.4h-0.9
	v12.3c0,0-3.6,0.1-10.8,0.4l-10.8,0.4h-60.5v-0.4h0.5v-0.4h1.4v-12.3h-12.2C366.4,471.9,362.2,471.7,361.6,471.4z"/>
<path style="fill:none;stroke:#000000;stroke-miterlimit:10;" d="M509.3,377.5v23.8c-0.3,0-0.5-0.4-0.5-1.3c-0.3-0.9-1.2-2.2-2.7-4
	c-1.8-1.8-2.7-3.5-2.7-5.3l-0.9-2.6v2.6H502v-5.3c-0.3-3.5-0.8-5.9-1.4-7.1c-0.6-1.5-1.7-2.9-3.2-4.4c-1.5-1.8-2.6-2.6-3.2-2.6h-0.5
	c-0.3,0-0.5-1.2-0.5-3.5c0-2.1-0.2-4.1-0.5-6.2l-0.5-3.1h-0.5v-0.4h-0.5v-0.9h-0.5v-0.4h-0.5v-0.4h-0.9l-0.5,0.4
	c-0.3,0.3-0.8,0.7-1.4,1.3s-1.5,1.2-2.7,1.8s-3.9,0.6-8.1,0s-9-0.9-14.4-0.9c-5.7,0.6-11,0.9-15.8,0.9s-8.1-0.6-9.9-1.8
	c-1.8-1.2-3.2-1.9-4.1-2.2c-1.2-0.3-2,0-2.3,0.9l-0.5,1.3c0,0-0.2,0.1-0.5,0.4v0.4h-0.9v-0.4l-0.5-0.4v-0.9h0.3l-0.5-0.4l-0.5-0.4
	h-0.5c-0.3,0-0.9,0.4-1.8,1.3c-0.6,0.9-1.5,1.6-2.7,2.2s-4.2,0.6-9,0c-4.5-0.6-9.3-0.9-14.4-0.9c-5.1,0.6-9.9,0.9-14.4,0.9
	c-4.2,0-7.7-0.6-10.4-1.8l-4.1-2.6h-2.3v0.4h-0.5v0.4l-0.5,0.9l-0.5,0.4v5.7c-0.6,3.8-0.9,5.9-0.9,6.2c0,0,0.2,0,0.5,0v0.4l-3.2,1.8
	c-1.8,0.9-3.2,2.1-4.1,3.5c-0.9,1.2-1.7,2.5-2.3,4c-0.6,1.2-0.9,3.5-0.9,7.1v5.3c0,0.3-0.9,1.3-2.7,3.1l-2.7,2.6l-0.5,0.4l-0.5,0.4
	v0.4h-0.9v1.3h-0.5l0.5-23.4c0-15.6,0.6-24.1,1.8-25.6c1.2-1.8,2.4-3.1,3.6-4c1.5-0.9,2.7-1.6,3.6-2.2c0.9,0,25,0,72.2,0
	c47,0,71.3,0.6,73.2,1.8c1.8,1.2,3.2,2.4,4.1,3.5c0.9,1.2,1.7,2.1,2.3,2.6C508.8,353.7,509,361.9,509.3,377.5z"/>
<path style="fill:none;stroke:#000000;stroke-miterlimit:10;" d="M315.1,453.3h0.9v2.2c0.3,1.5,0.5,2.2,0.5,2.2l14.9,0.4l14.9,0.4
	H316v6.2l0.5,6.2v0.9H307v0.9c-0.3,0.3-0.5,2.1-0.5,5.3v5.3H306v-11.5h-79v11h-0.5v-11h-75.4l14-0.4c9.3-0.3,14.3-0.4,14.9-0.4h0.5
	v-12.3H115l32.5-0.4l32.5-0.4c0.3,0,0.5-0.1,0.5-0.4l0.5-2.2c0-1.2,22.3-1.8,66.8-1.8S314.8,453.3,315.1,453.3z M246.9,458.6
	c0.6-0.6,1.5-0.7,2.7-0.4c1.2,0.3,2.1,0.7,2.7,1.3c0.6,0.9,0.9,1.9,0.9,3.1c-0.6,1.2-1.2,1.9-1.8,2.2c-0.6,0.6-1.5,0.7-2.7,0.4
	c-1.2-0.3-2.1-1-2.7-2.2c-0.6-1.2-0.8-2.2-0.5-3.1C246.2,459.1,246.6,458.6,246.9,458.6z"/>
<path style="fill:none;stroke:#000000;stroke-miterlimit:10;" d="M74.9,287.1v-0.4h5.4v0.4h0.5v0.9h0.5v0.4h0.5l0.5,1.8
	c0.3,1.2,0.2,2.4-0.5,3.5c-0.6,1.2-1.1,3.2-1.4,6.2v4h-0.5V296h-0.5l-0.5-0.4h-4.1v8.8h-0.5V300c0-3.2-0.3-5.1-0.9-5.7
	c0-0.6-0.3-1.3-0.9-2.2c0-0.9,0.2-1.8,0.5-2.6l0.5-0.9l0.5-0.4l0.5-0.4v-0.4h0.4V287.1z"/>
<path style="fill:none;stroke:#000000;stroke-miterlimit:10;" d="M111.9,460.4l-0.5-1.8h69.1V471H180c-0.6,0-5.6,0.1-14.9,0.4
	l-14,0.4h-0.9v-0.4h0.5V471h-1.4c-0.9,0-1.2,0.1-0.9,0.4l0.5,0.4h-1.4c-0.3,0-5.1-0.1-14.4-0.4c-9.6-0.3-14.6-1-14.9-2.2
	s-1.4-2.6-3.2-4.4S112.2,461.6,111.9,460.4z"/>
<path style="fill:none;stroke:#000000;stroke-miterlimit:10;" d="M44.6,370.9l0.5-0.4h2.3l0.5,0.4l0.5,0.4h0.9
	c0.3,0.3,0.6,1,0.9,2.2c0.3,1.5,0.5,2.2,0.5,2.2c0.3,0,0.5,0,0.5,0v0.9h0.5c0,0,0.2,0.1,0.5,0.4l0.5,0.4h0.5v0.4
	c0,0.3-0.5,0.1-1.4-0.4l-1.4-0.9v0.9l0.9,0.9c0.9,0.6,1.2,1,0.9,1.3h-0.5v-0.4c-0.3,0-0.5,0-0.5,0c0-0.3-0.2-0.4-0.5-0.4h-0.5
	c-0.3-0.3-0.6-0.4-0.9-0.4c-0.6-0.6-1.5-0.9-2.7-0.9s-2,0-2.3,0l-0.5-0.4h-0.5v-0.4h-0.5v-0.4l-0.5-0.4l-0.5-0.4v-2.2l0.5-0.4
	l0.5-0.4v-0.4h0.5v-0.4h0.9L44.6,370.9z"/>
<path style="fill:none;stroke:#000000;stroke-miterlimit:10;" d="M315.6,434.8h0.5v18.5h-0.9c-0.3,0-22.7,0-67.3,0
	s-66.8,0.6-66.8,1.8l-0.5,2.2v-21.2h0.5v-0.4h67.3C293.1,435.1,315.6,434.8,315.6,434.8z M246.5,445.8H246v-0.4l-0.5-0.4l-0.5-0.4
	v-2.2l1.4-1.3c0.9-1.2,2-1.6,3.2-1.3c1.2,0.3,2.1,0.7,2.7,1.3c0.6,0.6,0.9,1.5,0.9,2.6c-0.3,1.2-0.9,2.1-1.8,2.6
	c-0.9,0.6-2,0.6-3.2,0C247.1,446.3,246.5,446.1,246.5,445.8z"/>
<path style="fill:none;stroke:#000000;stroke-miterlimit:10;" d="M80.3,409.7l0.5,21.6c0,14.7,0.2,22.2,0.5,22.5s0.5,0.4,0.5,0.4
	h0.5l0.5,1.8c0,1.2,0.3,1.8,0.9,1.8h0.5v0.4h0.5v0.4l-1.8,0.4c-0.9,0.3-1.5,0.6-1.8,0.9c-0.6,0.6-0.9,0.9-0.9,0.9s-0.9,0.1-2.7,0.4
	h-2.3v4.4l-0.5,4.9v-4.9c0-3.5-0.2-5.3-0.5-5.3s-0.6-0.3-0.9-0.9s-0.8-0.9-1.4-0.9h-0.5v-0.4c0.3-0.3,0.5-1,0.5-2.2l0.5-1.8
	c0.3-0.3,0.6-0.6,0.9-0.9c0.6-0.6,1.1-5.7,1.4-15.4v-15l0.5,14.6v14.1h3.2L79,452l0.5,0.4H80v-21.2C79.9,416.9,80,409.7,80.3,409.7z
	"/>
<path style="fill:none;stroke:#000000;stroke-miterlimit:10;" d="M66.8,476.7v-4.9h5.9c4.2,0,10.7,0,19.4,0h54.6v11h0.5v1.3
	c0,0-3.6,0.1-10.8,0.4s-11,1-11.3,2.2v1.3v-1.3c0-1.2-13.1-1.8-39.3-1.8H46.4v-0.4H46v-0.4h20.3v-2.6L66.8,476.7z"/>
<path style="fill:none;stroke:#000000;stroke-miterlimit:10;" d="M49.2,280.4h4.5l0.5,0.4l0.5,0.4H55v0.4h0.5v0.9
	c0.6,0.6,0.8,1.5,0.5,2.6c-0.3,0.9-0.5,1.5-0.5,1.8c0,0-0.2,0.3-0.5,0.9v0.9h-0.5c0-0.3-0.6-0.3-1.8,0c-1.5,0.3-2.6,0.3-3.2,0
	l-0.9-0.4h-0.5c0,0-0.3-0.3-0.9-0.9s-0.9-1.5-0.9-2.6v-2.6h0.5v-0.4h0.5v-0.4h0.5V281h0.5v-0.4h0.9V280.4z"/>
<path style="fill:none;stroke:#000000;stroke-miterlimit:10;" d="M330,472.7v3.5c-0.3,2.4-0.5,3.5-0.5,3.5c-0.3,0-0.8-0.9-1.4-2.6
	l-0.9-2.2v-0.4c0-0.6-0.3-1.2-0.9-1.8v-0.4H326v-0.4h-0.5v-0.4H325V471h-1.8l-0.5,0.4l-0.5,0.4h-0.5v0.4l-0.9,0.9
	c0,0.6-0.2,1-0.5,1.3l-0.5,0.4v0.4l-0.5,2.6c-0.3,1.5-0.6,2.9-0.9,4.4v2.2h-0.9l-0.9,0.4h-5v-0.4h0.5V484h1.4c0.9,0,1.8-2.1,2.7-6.2
	c0.6-4.1,0.8-6.2,0.5-6.2h-0.5V471h1.8v-0.4l1.8-1.3c0.9-1.2,2.1-1.8,3.6-1.8s2.9,0.9,4.1,2.6C329.3,471.9,330,472.7,330,472.7z"/>
<path style="fill:none;stroke:#000000;stroke-miterlimit:10;" d="M333.2,485.1l-0.5-0.9h0.5l0.5,0.4c0,0.3,0.3,0.3,0.9,0
	c0.3-0.3,0.6-0.4,0.9-0.4h5.4c2.4,0,3.8,0.1,4.1,0.4h0.5l1.8,0.4c1.2,0,1.8,0,1.8,0h0.5l-0.5,5.7c-0.6,3.8-0.9,5.7-0.9,5.7
	s0,0.1,0,0.4h-0.9c-0.3,0.3-0.9,0.3-1.8,0H344c-0.3,0.3-1.7,0.3-4.1,0h-5c-0.6,0-0.9,0.1-0.9,0.4v0.9h-0.5v-0.9c0-0.6,0-2.6,0-6.2
	C333.6,487.4,333.5,485.4,333.2,485.1z"/>
<path style="fill:none;stroke:#000000;stroke-miterlimit:10;" d="M330.9,472.3v-0.4h1.8c1.5,0,2.3,0.1,2.3,0.4v0.4l-0.5,0.4v4.4
	c0,0.3,0,0.4,0,0.4h0.5l-0.9,2.6c-0.3,1.8-0.6,2.8-0.9,3.1v0.4h-1.8v-0.4c-0.3-0.3-0.5-0.4-0.5-0.4v0.4c0,0-0.3-0.7-0.9-2.2v-1.8
	h-0.5c0,0,0.2-1.2,0.5-3.5v-3.5h0.5C330.8,472.7,330.9,472.6,330.9,472.3z"/>
<path style="fill:none;stroke:#000000;stroke-miterlimit:10;" d="M-1,478v-6.2h67.3v12.3H-1V478z"/>
<path style="fill:none;stroke:#000000;stroke-miterlimit:10;" d="M82.6,459.1l1.8-0.4l4.5,0.4c3.3,0.3,6.3,1,9,2.2
	c3,1.2,5.4,2.4,7.2,3.5s2.9,1.8,3.2,1.8c0.3,0.3,0.5,0.4,0.5,0.4v0.4h0.5v0.4h0.5v0.9l0.5,0.4l0.5,0.4v1.3h-30
	c-0.3,0-0.6-1.8-0.9-5.3v-4.9c0,0,0.3-0.3,0.9-0.9C81.1,459.7,81.7,459.4,82.6,459.1z"/>
<path style="fill:none;stroke:#000000;stroke-miterlimit:10;" d="M367.5,355.9v-0.4h2.3l4.1,2.6c2.7,1.2,6.2,1.8,10.4,1.8
	c4.5,0,9.3-0.3,14.4-0.9c5.1,0,9.9,0.3,14.4,0.9c4.8,0.6,7.8,0.6,9,0s2.1-1.3,2.7-2.2c0.9-0.9,1.5-1.3,1.8-1.3h0.5l0.5,0.4l0.5,0.4
	h0.5v0.9l0.5,0.4l0.5,0.4v-0.4h0.5v-0.4h0.5v0.9c0,0.3-0.2,0.4-0.5,0.4s-0.3,2.8,0,8.4c0.3,5.3,0.5,8.2,0.5,8.8v1.3l-0.5,0.4
	c-0.3,0-0.8,1.8-1.4,5.3c-0.6,3.2-0.9,5.1-0.9,5.7v0.9c0,0.3-10.4,0.4-31.2,0.4h-31.2v-0.4h3.6v-0.4c0-0.6-0.2-1-0.5-1.3
	s-0.8-3.4-1.4-9.3l-1.4-9.3v-0.4c-0.3,0-0.5,0-0.5,0c0-0.3,0.3-2.4,0.9-6.2v-5.7l0.5-0.4l0.5-0.9v-0.4L367.5,355.9L367.5,355.9z"/>
<path style="fill:none;stroke:#000000;stroke-miterlimit:10;" d="M344.5,498.3V497h0.9c0.9,0.3,1.5,0.3,1.8,0h0.9v0.4
	c0,0.6,2.9,0.9,8.6,0.9s8.6,0.1,8.6,0.4h-9c-5.7,0.3-9,1.2-9.9,2.6c-1.2,1.5-2.4,2.5-3.6,3.1l-1.8,0.9h-1.8v-0.4h1.4v-0.4l-0.5-0.4
	v-0.4h-0.5l1.4-0.4c0.6-0.3,1.1-0.4,1.4-0.4h0.5c0,0,0.3-0.4,0.9-1.3C344.2,500.5,344.5,499.5,344.5,498.3z"/>
<path style="fill:none;stroke:#000000;stroke-miterlimit:10;" d="M49.6,291.9l-0.9-3.5l0.9,0.4c0.6,0.3,1.7,0.3,3.2,0
	c1.2-0.3,1.8-0.3,1.8,0H55l1.4,3.1c0.9,2.4,2.4,4.4,4.5,6.2c1.8,1.8,3.9,3.2,6.3,4.4c2.4,1.2,3.9,1.8,4.5,1.8h3.2l0.5,0.4
	c0.3,0.3,1.1,0.3,2.3,0s2-0.4,2.3-0.4s0.3-0.1,0-0.4h0.5v0.4h3.2l0.9-0.4c0.6-0.3,1.8-0.7,3.6-1.3c1.8-1.2,3.6-2.6,5.4-4.4
	s2.7-3.5,2.7-5.3l-0.9-2.6v-1.8l0.5,0.9l0.5,0.4v1.3l1.8,4c1.2,2.6,2.4,4.4,3.6,5.3s1.8,1.5,1.8,1.8h0.5v0.4h0.5v0.4h0.5v0.4h0.5
	v2.2v-0.9h-0.5v-0.4h-0.5v-0.9h-0.5V303h-0.5v-0.4h-0.5c-0.3,0-0.5-0.1-0.5-0.4c-0.3-0.3-0.9-0.4-1.8-0.4c-0.9-0.6-1.8-0.3-2.7,0.9
	c-1.2,0.9-3.2,2.1-5.9,3.5c-2.7,1.8-5.3,2.8-7.7,3.1c-2.7,0.6-4.1,1-4.1,1.3v0.4h-0.5c0-0.3-0.9-0.4-2.7-0.4h-2.3V349h-0.5v-19
	c0-12.9-0.6-19.6-1.8-19.8s-3.3-0.9-6.3-1.8c-2.7-0.9-5.1-2.2-7.2-4c-2.1-1.8-4.1-3.7-5.9-5.7C51.7,296.2,50.5,294,49.6,291.9z"/>
<path style="fill:none;stroke:#000000;stroke-miterlimit:10;" d="M102,351l1.8-0.9c0.3,0,0.5,0.4,0.5,1.3v1.3l0.5,0.9l0.5,0.4v0.9
	h0.5v0.4h0.5v1.8c0,0.9,0.3,1.9,0.9,3.1s0.9,1.8,0.9,1.8v1.3l-1.8,0.4c-1.5,0.3-2.6,0.9-3.2,1.8c-0.3,0.9-0.6,1.6-0.9,2.2
	c-0.3,0.9-2.4,2.8-6.3,5.7c-3.9,2.6-5.9,4.1-5.9,4.4h-0.5v0.4H89c0,0-0.2,0-0.5,0v0.4c-0.3,0-0.5,0.1-0.5,0.4
	c-0.3,0-0.6,0.1-0.9,0.4l-0.5,0.4l-1.4,0.9c-0.9,0.6-1.5,1-1.8,1.3l-0.5,0.4h-0.5l-0.5,0.4l-0.5,0.4h-0.5l-0.5,0.4h-0.5v-9.3
	c0-5.9,3.3-11.2,9.9-15.9C97.2,354.3,101.1,351.6,102,351z"/>
<path style="fill:none;stroke:#000000;stroke-miterlimit:10;" d="M51,397.8v-0.4l3.6,2.6c2.1,1.5,5.4,3.8,9.9,7.1
	c4.2,3.2,6.5,4.9,6.8,4.9h0.5v0.4h0.5v0.4h0.5v0.4h0.5v0.4h1.4v-12.8l0.5,4.9v7.1c0,1.8,0,2.6,0,2.6h0.5v0.4h0.5v0.4h0.5v0.9h-1.4
	v0.4l-0.5,0.4v-0.4H74v-0.4h-0.5v-0.4H73v-0.4h-0.5c-0.3,0-4.1-2.6-11.3-7.9l-10.8-7.9h-0.5V400h-0.5v-0.4c-0.3,0-0.5,0-0.5,0
	c0-0.3,0.3-0.6,0.9-0.9C50.7,398.4,51,398.1,51,397.8z"/>
<path style="fill:none;stroke:#000000;stroke-miterlimit:10;" d="M102.9,302.5h0.5v0.4h0.5v0.4h0.5v0.9h0.5v0.4h0.5v0.9l0.5,0.9
	c0.3,0.6,0.5,1,0.5,1.3v0.9l0.5,0.4v0.4h0.9v0.9c0.3,0.6,0.5,0.9,0.5,0.9v4.4c0,2.6-0.6,4.3-1.8,4.9c-0.9,0.3-1.5,0.6-1.8,0.9
	c0,0.3-0.2,1-0.5,2.2v1.3h-0.5v0.4h-0.9v0.4H102v0.4h-0.5l-9,6.6c-6,4.4-9,6.6-9,6.6H83l-0.5,0.4l-0.5,0.4h-0.5v0.4H81v0.4h-0.9V310
	c0-0.3,1.4-0.7,4.1-1.3c2.4-0.3,5-1.3,7.7-3.1c2.7-1.5,4.7-2.6,5.9-3.5c0.9-1.2,1.8-1.5,2.7-0.9c0.9,0,1.5,0.1,1.8,0.4
	C102.4,302.4,102.6,302.5,102.9,302.5z"/>
<path style="fill:none;stroke:#000000;stroke-miterlimit:10;" d="M139.9,498.8h77.7l0.5,0.4c0.6,0,0.9,1.9,0.9,5.7s0,5.7,0,5.7v0.4
	h-0.5v0.4h-79v-6.2C139.5,501,139.6,498.8,139.9,498.8z"/>
<path style="fill:none;stroke:#000000;stroke-miterlimit:10;" d="M83.9,384.1L88,381h0.9v0.4c-0.3,0.3-0.6,0.4-0.9,0.4
	c0,0,0,0.1,0,0.4h-0.5c0,0.3-0.2,0.4-0.5,0.4s-0.6,0.1-0.9,0.4s-0.5,0.4-0.5,0.4c-0.3,0-0.5,0-0.5,0v0.4h-0.5c0,0.3-0.2,0.4-0.5,0.4
	c0,0-0.2,0-0.5,0v0.4c-0.3,0-0.5,0.1-0.5,0.4l-1.4,0.9c-0.9,0.9-1.5,4.3-1.8,10.1v8.8h0.5l0.5-0.4h0.9V404h0.5v-0.4H83l0.5-0.4
	c0.3-0.3,1.8-1.2,4.5-2.6l3.6-2.6v0.9h-0.5v0.4h-0.5v1.3v-0.4l0.5,0.4v0.4l-5.4,4c-3.6,2.6-5.4,4-5.4,4h-0.9c-0.6,0-1.1,0.1-1.4,0.4
	c0,0.3,0,0.4,0,0.4h-1.8v-0.4l-0.5,0.4l-0.5,0.4v-0.4h-0.5v-4.4l-0.5-4.9V396c0,0,0.2,0,0.5,0s0.6-0.1,0.9-0.4s0.3-0.6,0-0.9
	s-0.6-2.2-0.9-5.7v-4.9h0.5v3.1h1.4v-0.4h0.5c0-0.3,0.3-0.4,0.9-0.4l0.5-0.4l-0.5,0.4c0,0.6-0.2,0.9-0.5,0.9s-0.5,0.1-0.5,0.4v0.4
	h1.4v-0.4H79v-0.4h0.5C79.7,387.2,81.2,386.2,83.9,384.1z"/>
<path style="fill:none;stroke:#000000;stroke-miterlimit:10;" d="M326.4,474.5v0.4l0.5,2.2c0.3,1.5,0.6,2.9,0.9,4.4l0.5,1.8v0.4
	c0,0.3,0.3-0.3,0.9-1.8l0.5-2.2h0.5v1.8c0.6,1.5,0.9,2.2,0.9,2.2v0.4c0,0-2.1,0.1-6.3,0.4h-5.9v-0.4h0.9v-0.4l0.5-0.4v-1.8
	c0-0.9,0.2-2.1,0.5-3.5l0.5-2.2l1.4-2.2c0.9-1.2,1.7-1.6,2.3-1.3c0.6,0.3,1.1,0.7,1.4,1.3C326.3,473.9,326.4,474.2,326.4,474.5z"/>
<path style="fill:none;stroke:#000000;stroke-miterlimit:10;" d="M53.2,498.3h79c5.1,0,7.7,0.1,7.7,0.4c-0.3,0-0.5,2.2-0.5,6.6v6.2
	h0.9v0.4H69.9l-70.4-0.4h59.2v-12.8h-5.4L53.2,498.3L53.2,498.3z"/>
<path style="fill:none;stroke:#000000;stroke-miterlimit:10;" d="M358.9,471h1.4l1.4,0.4c0.6,0.3,4.8,0.4,12.6,0.4h12.2v12.3h-37
	v-0.9c-0.3-0.9-0.8-2.9-1.4-6.2l-0.9-4.4v-0.9h5c3.3,0,5-0.1,5-0.4h0.5C357.9,471.1,358.3,471,358.9,471z"/>
<path style="fill:none;stroke:#000000;stroke-miterlimit:10;" d="M349.4,484.7v-0.4h35.7v0.4h-0.5v0.4h-18.5v13.2h11.7v0.4h-12.6
	c0-0.3-2.9-0.4-8.6-0.4s-8.6-0.3-8.6-0.9V497c0-0.3,0-0.4,0-0.4s0.3-1.9,0.9-5.7l0.5-5.7V484.7z"/>
<path style="fill:none;stroke:#000000;stroke-miterlimit:10;" d="M74.4,383.7v-8.4h0.5v8.8l0.5,4.9c0,2.9,0.3,4.7,0.9,5.3
	c0,0.6-0.2,1-0.5,1.3c-0.6,0.3-0.9,0.4-0.9,0.4c-0.3,0-0.5,0-0.5,0c-0.3,0-4.2-2.8-11.7-8.4l-10.8-7.9c0.3-0.3,0.3-0.3,0,0h-1.4
	v-0.9H50v-2.2h1v-0.4h0.9v0.9l0.5,0.4v0.4c0.3,0.3,0.5,0.3,0.5,0v-0.4l9,6.6c6.3,4.4,9.5,6.6,9.5,6.6h0.5l0.5,0.4l0.5,0.4h0.5v0.4
	h0.5v0.4h0.9v-8.6H74.4z"/>
<path style="fill:none;stroke:#000000;stroke-miterlimit:10;" d="M511.5,483.3v-0.9h0.5V500h-0.5v-0.9c0-0.3-8.7-0.4-26.2-0.4h-25.7
	c0-0.3-2.4-0.4-7.2-0.4h-7.2v-13.2l10.8-0.4c7.2-0.3,10.8-0.4,10.8-0.4H489C504,484.2,511.5,483.9,511.5,483.3z"/>
<path style="fill:none;stroke:#000000;stroke-miterlimit:10;" d="M334.5,478.9v-1.3l0.5,0.4c0.3,0,0.6,1,0.9,3.1v3.1h-0.5
	c-0.3,0-0.6,0.1-0.9,0.4c-0.6,0.3-0.9,0.3-0.9,0l-0.5-0.4v-0.4c0.3-0.3,0.5-0.9,0.5-1.8C334.2,481.1,334.5,480.1,334.5,478.9z"/>
<path style="fill:none;stroke:#000000;stroke-miterlimit:10;" d="M322.8,471.4l0.5-0.4h1.8v0.4h0.5v0.4h0.5v0.4h0.5v0.4
	c0.6,0.6,0.9,1.2,0.9,1.8v0.4h-0.9v-0.4c0-0.3-0.2-0.6-0.5-0.9c-0.3-0.6-0.8-1-1.4-1.3s-1.4,0.1-2.3,1.3l-1.4,2.2v-0.4h-0.9V475
	l0.5-0.4c0.3-0.3,0.5-0.7,0.5-1.3l0.9-0.9V472h0.5L322.8,471.4z"/>
<path style="fill:none;stroke:#000000;stroke-miterlimit:10;" d="M205.8,491.7v-6.6h79v13.2h-79L205.8,491.7L205.8,491.7z"/>
<path style="fill:none;stroke:#000000;stroke-miterlimit:10;" d="M282.2,329.8h-25.3h28c18.4,0,27.5,13.2,27.5,39.7l-0.5,40.1v0.4
	h-29.8c-19.6,0-29.4-0.1-29.4-0.4c-0.3-0.3-0.5-13.7-0.5-40.1v-39.3h27.1l27.5-0.4L282.2,329.8L282.2,329.8z M260.9,375.7
	c0-6.2,0.6-9.1,1.8-8.8c0.9,0,1.4,3.1,1.4,9.3s-0.6,9.3-1.8,9.3C261.4,385.4,260.9,382.2,260.9,375.7z"/>
<path style="fill:none;stroke:#000000;stroke-miterlimit:10;" d="M246.5,445.8H246v-0.4l-0.5-0.4l-0.5-0.4v-2.2l1.4-1.3
	c0.9-1.2,2-1.6,3.2-1.3c1.2,0.3,2.1,0.7,2.7,1.3c0.6,0.6,0.9,1.5,0.9,2.6c-0.3,1.2-0.9,2.1-1.8,2.6c-0.9,0.6-2,0.6-3.2,0
	C247.1,446.3,246.5,446.1,246.5,445.8z"/>
<path style="fill:none;stroke:#000000;stroke-miterlimit:10;" d="M336.3,497.4l-0.5-0.4h4.1c2.4,0.3,3.8,0.3,4.1,0h0.5v1.3
	c0,1.2-0.3,2.2-0.9,3.1s-0.9,1.3-0.9,1.3h-0.5c0,0-0.5-0.1-1.4-0.4c-0.6-0.3-1.2-1-1.8-2.2c-0.6-1.5-1.2-2.2-1.8-2.2
	C336.6,497.6,336.3,497.4,336.3,497.4z"/>
<path style="fill:none;stroke:#000000;stroke-miterlimit:10;" d="M330.9,497.4v0.4l-1.8,3.1c-1.2,2.4-1.8,3.5-1.8,3.5
	c-0.3,0-0.9,0.1-1.8,0.4h-1.8v-0.4h0.5c0,0,0-0.1,0-0.4c0.3,0,0.2-0.1-0.5-0.4l-0.5-0.4v-0.9h0.5l0.9-0.4c0,0,0.6-0.7,1.8-2.2
	l1.4-2.2h1.4C330,497.4,330.6,497.4,330.9,497.4z"/>
<path style="fill:none;stroke:#000000;stroke-miterlimit:10;" d="M70.8,454.2h1.4l-0.5,1.8c0,1.2-0.2,1.9-0.5,2.2v0.4l-5,0.9
	c-3.3,0.6-6.3,1.5-9,2.6c-3,1.2-5.3,2.2-6.8,3.1c-1.5,1.2-2.3,1.8-2.3,1.8v0.4h-0.5v0.4h-0.5v0.9l-0.5,0.4l-0.5,0.4v1.3h20.3v0.4
	h-0.5v0.4H25.7l2.3-0.4c1.5,0,2.3-0.7,2.3-2.2v-1.8h0.5v0.4l0.5,0.4v2.6h3.6c2.4,0,4.1-0.9,5-2.6c0.9-1.8,2.4-3.5,4.5-5.3l3.2-2.6
	h0.9l0.5-0.4l0.5-0.4h0.9v-0.4h0.5v-0.4H31.1v0.4h-0.5v-1.3l13.1-0.4c8.4-0.3,14.9-0.7,19.4-1.3C67.7,454.8,70.2,454.2,70.8,454.2z"
	/>
<path style="fill:none;stroke:#000000;stroke-miterlimit:10;" d="M181.5,326.8v-0.4l66.8,0.4c44.6,0.3,66.8,0.4,66.8,0.4
	c0.3,0,0.5,14.1,0.5,42.3v42.8c-0.3,0.3-0.5,0.4-0.5,0.4H181v-0.4h-0.5v-0.4h0.5v-85.1L181.5,326.8L181.5,326.8z M282.2,329.8h-25.3
	h28c18.4,0,27.5,13.2,27.5,39.7l-0.5,40.1v0.4h-29.8c-19.6,0-29.4-0.1-29.4-0.4c-0.3-0.3-0.5-13.7-0.5-40.1v-39.3h27.1l27.5-0.4
	L282.2,329.8L282.2,329.8z M185.5,369.5v-39.3h59.2v79.4h-27.5c-18.4,0.3-28.3,0.4-29.8,0.4h-1.8v-0.4
	C185.5,409.4,185.5,396,185.5,369.5z"/>
<path style="fill:none;stroke:#000000;stroke-miterlimit:10;" d="M246.9,421.6c0.3-0.6,1.2-0.7,2.7-0.4s2.6,0.7,3.2,1.3
	c0.3,0.6,0.5,1.5,0.5,2.6c-0.3,1.2-0.8,1.9-1.4,2.2s-1.7,0.4-3.2,0.4s-2.6-0.4-3.2-1.3c-0.3-0.9-0.3-1.9,0-3.1
	C245.9,422.2,246.3,421.6,246.9,421.6z"/>
<path style="fill:none;stroke:#000000;stroke-miterlimit:10;" d="M107.9,362.5V362h0.5c0.3,0,0.5,0.3,0.5,0.9s0.2,0.9,0.5,0.9l1.4,4
	c0.6,2.6,0.9,4.3,0.9,4.9c0,0.3,0,0.4,0,0.4s-0.2,0-0.5,0v-0.9c-0.3-0.6-0.5-1-0.5-1.3v-0.4h-3.2c-1.2,0.6-2.3,0.9-3.2,0.9
	c-1.2,0.3-3.6,1.8-7.2,4.4c-3.9,2.9-5.9,4.4-5.9,4.4h-0.5v0.4h-0.5v0.4h-0.9l-0.5,0.4V381h-1.4v-0.4H88v-0.4h0.5v-0.4H88v-0.4h0.5
	V379H89v-0.4h0.5v-0.4H90c0-0.3,2-1.8,5.9-4.4c3.9-2.9,6-4.9,6.3-5.7c0.3-0.6,0.6-1.3,0.9-2.2c0.6-0.9,1.7-1.5,3.2-1.8l1.8-0.4v-1.2
	H107.9z"/>
<path style="fill:none;stroke:#000000;stroke-miterlimit:10;" d="M319.6,478l0.5-2.6h0.9v0.4l-0.5,2.2c-0.3,1.5-0.5,2.6-0.5,3.5v1.8
	l-0.5,0.4v0.4h-0.9v-1.8C319,481,319.3,479.5,319.6,478z"/>
<path style="fill:none;stroke:#000000;stroke-miterlimit:10;" d="M493.9,371.3v-0.4l2.7,2.2c1.8,1.2,3.2,2.6,4.1,4.4
	c0.6,1.8,1.1,4.4,1.4,7.9v6.6h-0.5l-0.5-0.4h-0.5c-0.3,0-2-0.3-5-0.9l-4.5-0.9h-0.5v-0.4c0-0.3,0.6-3.4,1.8-9.3L493.9,371.3z"/>
<path style="fill:none;stroke:#000000;stroke-miterlimit:10;" d="M260.9,375.7c0-6.2,0.6-9.1,1.8-8.8c0.9,0,1.4,3.1,1.4,9.3
	s-0.6,9.3-1.8,9.3C261.4,385.4,260.9,382.2,260.9,375.7z"/>
<path style="fill:none;stroke:#000000;stroke-miterlimit:10;" d="M-1,464.8v-6.6h31.6v9.3h-0.5v1.8c0,1.5-0.8,2.2-2.3,2.2l-2.3,0.4
	H-1V464.8z"/>
<path style="fill:none;stroke:#000000;stroke-miterlimit:10;" d="M47.8,332.5l0.9-0.9l11.3,7.9c7.5,5.3,11.3,8.1,11.3,8.4h0.5v0.4
	h0.9v0.4h0.5v0.4h1.4v-0.4h0.5v0.4l-0.5,0.9v2.2h-0.9l-0.9-0.4h-0.5v-0.4h-0.5c0-0.3-3.8-3.1-11.3-8.4l-11.3-7.9h-0.5l-0.5-0.4
	l-0.5-0.4h-0.5c0,0,0-0.1,0-0.4h-0.5C46.9,333.5,47.2,333.1,47.8,332.5z"/>
<path style="fill:none;stroke:#000000;stroke-miterlimit:10;" d="M246.9,458.6c0.6-0.6,1.5-0.7,2.7-0.4c1.2,0.3,2.1,0.7,2.7,1.3
	c0.6,0.9,0.9,1.9,0.9,3.1c-0.6,1.2-1.2,1.9-1.8,2.2c-0.6,0.6-1.5,0.7-2.7,0.4c-1.2-0.3-2.1-1-2.7-2.2c-0.6-1.2-0.8-2.2-0.5-3.1
	C246.2,459.1,246.6,458.6,246.9,458.6z"/>
<path style="fill:none;stroke:#000000;stroke-miterlimit:10;" d="M377.9,498.3h74.5c4.8,0,7.2,0.1,7.2,0.4c-0.3,0-0.5,2.2-0.5,6.6
	v6.2h26.2c17.2,0,25.7,0.1,25.7,0.4H373.8v-0.4h5v-12.8h-0.9V498.3z"/>
<path style="fill:none;stroke:#000000;stroke-miterlimit:10;" d="M329.1,501l1.8-3.1v0.4c0,0.3,0.5,0.4,1.4,0.4
	c0.9-0.3,1.4-0.4,1.4-0.4h0.5l1.4,2.6c1.2,2.1,1.8,3.2,1.8,3.5c0.3,0,0.6,0.1,0.9,0.4h0.9v0.4h1.8l1.8-0.9c1.2-0.6,2.4-1.6,3.6-3.1
	c0.9-1.5,4.2-2.4,9.9-2.6h22.6v12.8H299v-12.8l9,0.4c6.3,0,9.8,0.7,10.4,2.2c0.9,1.5,1.5,2.2,1.8,2.2h0.5v0.4h0.5v0.4h0.9l0.9,0.4
	h2.7c0.9-0.3,1.5-0.4,1.8-0.4C327.3,504.5,327.9,503.3,329.1,501z"/>
<path style="fill:none;stroke:#000000;stroke-miterlimit:10;" d="M147.1,484.2h79v0.9h-20.3v13.2h11.7v0.4h-77.7
	c0-0.3-2.6-0.4-7.7-0.4h-7.7l0.5-0.4v-11c0.3-1.2,4.1-1.9,11.3-2.2C143.5,484.4,147.1,484.2,147.1,484.2z"/>
<path style="fill:none;stroke:#000000;stroke-miterlimit:10;" d="M217.6,498.3h68.2c0.6,0,3,0,7.2,0h5.9v13.2h75v0.4H140.4v-0.4
	h78.1v-0.4h0.5v-0.4c0,0,0-1.9,0-5.7s-0.3-5.7-0.9-5.7l-0.5-0.4V498.3z"/>
<path style="fill:none;stroke:#000000;stroke-miterlimit:10;" d="M340.4,471h0.9l-1.4,1.8c-1.2,1.5-1.8,2.6-1.8,3.5
	c-0.6,1.2-0.9,2.2-0.9,3.1v1.3l-0.5,1.8l-0.5,1.3v0.4h-0.5v-3.1c0-2.1-0.2-3.1-0.5-3.1H335c-0.3-0.3-0.5-0.4-0.5-0.4v-1.3h0.9v-0.4
	l0.5,0.4l0.5,0.9v-0.9l0.5-0.9c0.3-0.3,0.6-0.7,0.9-1.3l0.5-0.9c0,0,0.2-0.1,0.5-0.4c0.3,0,0.5,0,0.5,0v-0.4c0-0.3,0-0.4,0-0.4h0.5
	l0.5-0.4C340,471.4,340.1,471.3,340.4,471z"/>
<path style="fill:none;stroke:#000000;stroke-miterlimit:10;" d="M320.1,417.6H316v5.7h-0.5v-5.7h-33c-22-0.3-44.4-0.4-67.3-0.4H181
	v0.9c0,0.3-0.2,0.4-0.5,0.4v-0.4c0-0.3-1.1-0.4-3.2-0.4l-3.6-0.4h0.5v-0.4h0.5v-0.4h0.9l0.5-0.4l0.5-0.4l2.3-0.9
	c1.2-0.6,24.8-0.9,70.9-0.9c46.4,0,70.4,0.6,72.2,1.8S323.1,417.3,320.1,417.6z"/>
<path style="fill:none;stroke:#000000;stroke-miterlimit:10;" d="M502.5,389.4v-1.3l0.9,2.6c0,1.8,0.9,3.5,2.7,5.3
	c1.5,1.8,2.4,3.1,2.7,4c0,0.9,0.2,1.3,0.5,1.3v56c-0.3,0-0.6,0.9-0.9,2.6c-0.3,1.8-1.1,3.4-2.3,4.9c-0.6,1.2-2,2.4-4.1,3.5
	c-1.8,1.2-7.8,1.9-18.1,2.2l-15.4,0.4H358.9c-0.6,0-1.1,0.1-1.4,0.4h-5.4c0-0.3-0.2-0.4-0.5-0.4h-0.5v-2.2c0.3-1.5,0-2.9-0.9-4.4
	s-1.5-12.8-1.8-34l-0.5-31.3v-0.4h0.9v-0.4l0.5-0.4l0.5-0.4l2.7-2.6c1.8-1.8,2.7-2.8,2.7-3.1h1.4l1.8-0.9c1.2,0,2.6-0.1,4.1-0.4h2.7
	v0.4h31.2c20.8,0,31.2-0.1,31.2-0.4h1.4v0.4h2.3c1.8,0,12.2,0,31.2,0s28.4-0.1,28.4-0.4V390h0.5l4.5,0.9c3,0.6,4.7,0.9,5,0.9h0.5
	l0.5,0.4h0.5v-1.3h0.5v-1.5H502.5z"/>
<path style="fill:none;stroke:#000000;stroke-miterlimit:10;" d="M321,497.4h-0.5c-0.3,0-0.3,0.6,0,1.8c0.3,1.5,0.8,2.5,1.4,3.1
	c0.6,0.3,0.9,0.6,0.9,0.9h0.5l0.5,0.4c0.6,0.3,0.8,0.4,0.5,0.4c0,0.3,0,0.4,0,0.4h-0.5v0.4h-0.9l-0.9-0.4h-1V504h-0.5v-0.4H320
	c-0.3,0-0.9-0.7-1.8-2.2c-0.6-1.5-4.1-2.2-10.4-2.2l-9-0.4v-0.4h17.6V498l0.5-0.4V497h2.3C320.4,497.3,321,497.4,321,497.4z"/>
<path style="fill:none;stroke:#000000;stroke-miterlimit:10;" d="M147.6,471.9h79v11.5l-0.5,0.9h-79v-7.1
	C147.4,473.6,147.6,471.9,147.6,471.9z"/>
<path style="fill:none;stroke:#000000;stroke-miterlimit:10;" d="M79.9,326.3v-15.4h0.5l0.5,15c0,10.3,0,15.4,0,15.4h0.5v-0.4h0.5
	v-0.4h0.5l0.5-0.4l0.5-0.4h0.5c0,0,3-2.2,9-6.6l9-6.6h0.5v-0.4h0.5v-0.4h0.9V325h0.5v0.4h0.5v0.4l0.5,0.4v0.4h0.9v0.4h-0.9v0.4h-0.5
	v0.4h-0.5L93,336c-6.9,5-10.5,7.5-10.8,7.5v0.4h-0.9v0.4h-0.5v0.4h-0.5v0.4h-0.5v-0.4H79v-1.8h0.5l0.5-0.4h0.5v-0.4
	C80,341.9,79.9,336.6,79.9,326.3z"/>
<path style="fill:none;stroke:#000000;stroke-miterlimit:10;" d="M489.4,356.8l0.5-0.4h0.9v0.4h0.5v0.4h0.5v0.9h0.5v0.4h0.5l0.5,3.1
	c0.3,2.1,0.6,4.1,0.9,6.2v3.1h-0.5c0,0.3,0,0.4,0,0.4h0.5l-1.4,8.8c-1.2,5.9-1.8,9-1.8,9.3v0.9c0,0.3-9.5,0.4-28.4,0.4
	s-29.4,0-31.2,0h-2.3v-0.4h3.6v-0.4c-0.3-0.6-0.8-2.6-1.4-6.2l-0.9-5.7v-1.3c0-0.6-0.2-3.7-0.5-9.3V359c0.3,0,0.5-0.1,0.5-0.4v-0.4
	l0.5-1.3c0.3-0.9,1.1-1.2,2.3-0.9c0.9,0.3,2.3,1,4.1,2.2c1.8,1.2,5.1,1.8,9.9,1.8s10.1-0.3,15.8-0.9c5.4,0,10.2,0.3,14.4,0.9
	s6.9,0.6,8.1,0s2.1-1.2,2.7-1.8S489.1,357,489.4,356.8z"/>
<path style="fill:none;stroke:#000000;stroke-miterlimit:10;" d="M31.1,459.1v-0.4h19.4v0.4H50v0.4h-0.9l-0.5,0.4l-0.5,0.4h-0.9
	l-3.2,2.6c-2.1,1.8-3.6,3.5-4.5,5.3s-2.6,2.6-5,2.6h-3.6v-2.6l-0.5-0.4V459h0.7V459.1z"/>
<path style="fill:none;stroke:#000000;stroke-miterlimit:10;" d="M362.5,371.7l3.2-1.8l1.4,9.3c0.6,5.9,1.1,9,1.4,9.3
	s0.5,0.7,0.5,1.3v0.4h-6.3c-1.5,0.3-2.9,0.4-4.1,0.4l-1.8,0.9h-1.4v-5.3c0-3.5,0.3-5.9,0.9-7.1c0.6-1.5,1.4-2.8,2.3-4
	C359.4,373.8,360.7,372.6,362.5,371.7z"/>
<path style="fill:none;stroke:#000000;stroke-miterlimit:10;" d="M366.1,491.7v-6.6h79v13.2h-79V491.7z"/>
<path style="fill:none;stroke:#000000;stroke-miterlimit:10;" d="M348.1,399.5v-0.4l0.5,31.3c0.3,21.2,0.9,32.5,1.8,34
	s1.2,2.9,0.9,4.4v2.2h0.5c0.3,0,0.5,0.1,0.5,0.4h-0.5c-0.6-0.3-1.7-0.4-3.2-0.4s-2.6-0.6-3.2-1.8c-0.9-0.6-2.3-1-4.1-1.3
	c-1.8-0.3-3.3,0.4-4.5,2.2l-1.8,2.2c0-0.3-0.8-0.4-2.3-0.4h-1.8v0.4c0,0.3-0.2,0.4-0.5,0.4H330c0,0-0.8-0.9-2.3-2.6
	c-1.2-1.8-2.6-2.6-4.1-2.6s-2.7,0.6-3.6,1.8l-1.8,1.3v0.4h-1.8l-0.5-6.2v-6.2h30.3l-14.9-0.4l-14.9-0.4h31.2V400h0.5L348.1,399.5
	L348.1,399.5z"/>
<path style="fill:none;stroke:#000000;stroke-miterlimit:10;" d="M351.7,471.4h5.4c0,0.3-1.7,0.4-5,0.4h-5v0.9l0.9,4.4
	c0.6,3.2,1.1,5.3,1.4,6.2v1.8H349c0,0-0.6,0-1.8,0l-1.8-0.4v-0.4h0.5c0.3,0,0.3-0.9,0-2.6c-0.3-1.8-0.8-3.5-1.4-5.3l-0.9-3.1v-0.4
	h-0.5l-0.5-0.4v-0.4h-0.5v-0.4h-0.5V471H340v0.4l-0.5,0.4H339c0,0,0,0.1,0,0.4c-0.3,0.3-0.5,0.4-0.5,0.4H338c0,0,0,0.1,0,0.4
	l-0.5,0.9c-0.3,0.6-0.6,1-0.9,1.3l-0.5,0.9v0.9l-0.5-0.9l-0.5-0.4v0.4h-0.9V473l0.5-0.4v-0.4l1.8-2.2c1.2-1.8,2.7-2.5,4.5-2.2
	s3.2,0.7,4.1,1.3c0.6,1.2,1.7,1.8,3.2,1.8C350,471,351.1,471.1,351.7,471.4z"/>
<path style="fill:none;stroke:#000000;stroke-miterlimit:10;" d="M227.1,477.2v-5.3h79v11.9c0,0.3-3.3,0.4-9.9,0.4s-9.9,0.1-9.9,0.4
	s-0.2,0.4-0.5,0.4h-59.6v-0.9l0.5-0.9v-0.4h0.5v-5.6H227.1z"/>
<path style="fill:none;stroke:#000000;stroke-miterlimit:10;" d="M46,485.1h39.7c26.2,0,39.3,0.6,39.3,1.8v11l-0.5,0.4H46v-0.4h-0.5
	v-6.6C45.5,487.2,45.7,485.1,46,485.1z"/>
<path style="fill:none;stroke:#000000;stroke-miterlimit:10;" d="M82.6,456l-0.5-1.8l6.8,0.9c4.5,0.6,7.8,1.2,9.9,1.8
	c2.4,0.6,16.6,0.9,42.4,0.9H180l-32.5,0.4l-32.5,0.4h-3.6l0.5,1.8c0.3,1.2,1.4,2.6,3.2,4.4s2.9,3.2,3.2,4.4
	c0.3,1.2,5.3,1.8,14.9,1.8c9.3,0,14.6,0,15.8,0h1.8v0.4h-0.5v0.4h-2.7c0,0-0.2,1.8-0.5,5.3v5.7h-0.5v-11h-41.5c0,0-4.1-0.1-12.2-0.4
	L80.8,471h29.8v-1.3l-0.5-0.4l-0.5-0.4V468h-0.5v-0.4h-0.5V467c0,0-0.2-0.1-0.5-0.4c-0.3,0-1.4-0.6-3.2-1.8s-4.2-2.4-7.2-3.5
	c-2.7-1.2-5.7-1.9-9-2.2l-4.5-0.4v-0.4h-0.5v-0.4h-0.5C82.9,457.8,82.6,457.2,82.6,456z"/>
<path style="fill:none;stroke:#000000;stroke-miterlimit:10;" d="M340,471h0.5l0.5,0.4c0,0.3,0,0.3,0,0c0,0,0.2-0.1,0.5-0.4h0.5v0.4
	h0.5v0.4h0.5l0.5,0.4c0.3,0,0.5,0.1,0.5,0.4v0.4h-0.5c-0.3,0,0,1.9,0.9,5.7c0.9,3.5,1.4,5.3,1.4,5.3v0.4h-0.5
	c-0.3-0.3-1.7-0.4-4.1-0.4h-5h0.5v-0.4l0.5-1.3l0.5-1.8v-1.3c0-0.9,0.2-1.6,0.5-2.2c0.3-0.3,0.5-1,0.5-2.2v-2.2
	c0-0.3,0.2-0.4,0.5-0.4h0.5c0-0.3,0-0.4,0-0.4h0.5v-0.4C339.5,471.1,339.7,471,340,471z"/>
<path style="fill:none;stroke:#000000;stroke-miterlimit:10;" d="M429.8,378.4l0.5-0.4l0.9,5.7c0.6,3.5,1.1,5.6,1.4,6.2v0.4h-5v-0.9
	c0-0.6,0.3-2.5,0.9-5.7C429.1,380.1,429.5,378.4,429.8,378.4z"/>
<path style="fill:none;stroke:#000000;stroke-miterlimit:10;" d="M459.6,498.8h25.7c17.5,0,26.2,0.1,26.2,0.4V512H511
	c0-0.3-8.6-0.4-25.7-0.4h-26.2v-6.2C459.2,501,459.3,498.8,459.6,498.8z"/>
<path style="fill:none;stroke:#000000;stroke-miterlimit:10;" d="M109.2,343.1l-0.5-0.4l-0.5,3.1c-0.3,2.1-0.6,4.4-0.9,7.1v3.5h-0.9
	V356h-0.5v-0.4h-0.5V355h-0.5v-0.9l-0.5-0.4l-0.5-0.9v-1.3c0-0.9-0.2-1.3-0.5-1.3c0.3-0.3,0.5-1.5,0.5-3.5v-3.1h-0.5v-0.4
	c0.3-0.6,0.8-2.6,1.4-6.2l1.4-4.9h0.5v-0.4c0-0.3,0.3-1.2,0.9-2.6c0-1.2,0.2-3.7,0.5-7.5s0.3-6.3,0-7.5l-0.5-2.2v-0.4
	c0,0-0.2-0.3-0.5-0.9v-0.9l-0.5-1.3c0-0.9,0.2-1.3,0.5-1.3s1.1,1.5,2.3,4.4c1.2,3.2,1.8,8.4,1.8,15.4c-0.6,7.1-1.1,11.6-1.4,13.7
	C109.8,342.2,109.5,343.1,109.2,343.1z"/>
<path style="fill:none;stroke:#000000;stroke-miterlimit:10;" d="M320.5,497.4h0.5l0.9,2.2c0.6,1.5,0.9,2.2,0.9,2.2s0.2,0,0.5,0v1.3
	h-0.5c0-0.3-0.3-0.6-0.9-0.9c-0.6-0.6-1.1-1.6-1.4-3.1C320.2,498,320.2,497.4,320.5,497.4z"/>
<path style="fill:none;stroke:#000000;stroke-miterlimit:10;" d="M107.9,315.7v-4l0.5,2.2c0.3,1.2,0.3,3.7,0,7.5s-0.5,6.3-0.5,7.5
	c-0.6,1.5-0.9,2.4-0.9,2.6v0.4h-0.5v-1.3c0.3-0.6,0.5-1.3,0.5-2.2s-0.3-1.3-0.9-1.3l-0.5-0.4h-0.9v-0.4l-0.5-0.4v-0.4h-0.5v-1.8
	c0.3-1.2,0.5-1.9,0.5-2.2c0.3-0.3,0.9-0.6,1.8-0.9C107.3,320,107.9,318.4,107.9,315.7z"/>
<path style="fill:none;stroke:#000000;stroke-miterlimit:10;" d="M327.8,497.4l-1.4,2.2c-1.2,1.5-1.8,2.2-1.8,2.2l-0.9,0.4h-0.5
	v-0.4c-0.3,0-0.5,0-0.5,0s-0.3-0.7-0.9-2.2l-0.9-2.2h3.6C326.7,497.4,327.8,497.4,327.8,497.4z"/>
<path style="fill:none;stroke:#000000;stroke-miterlimit:10;" d="M74.9,329.8v-19.4h2.3c1.8,0,2.7,0.1,2.7,0.4v15.4
	c0,10,0.2,15,0.5,15v1.3h-0.5l-0.5,0.4H79v1.8h0.9v0.4h0.5v8.8l0.5,8.8v-0.4h0.5l0.5-0.4l0.5-0.4h0.5l0.5-0.4
	c0.3-0.3,3.8-2.8,10.4-7.5l9.5-7.1h0.5V344h0.5v-0.4h0.5v3.1c0,2.1-0.2,3.2-0.5,3.5L102,351c-0.9,0.6-4.8,3.2-11.7,7.9
	c-6.6,4.7-9.9,10-9.9,15.9v9.3h0.5l0.5-0.4h0.5l0.5-0.4l0.5-0.4H83l0.5-0.4c0.3-0.3,0.9-0.7,1.8-1.3l1.4-0.9l0.5-0.4h0.5v-0.4
	l0.5-0.4v-0.4h0.9v0.9h-0.5v0.4h0.5v0.9l-0.5,0.4l0.5,0.4v0.4h-0.5v0.4H88v0.4l-0.9,0.4c-0.6,0.3-1.1,0.6-1.4,0.9h-0.5v-0.4
	c0,0-0.2,0-0.5,0v0.4c0,0.3-0.2,0.4-0.5,0.4v0.4c0,0.3-0.2,0.4-0.5,0.4h-0.5L83,385c-0.3-0.3-0.9,0-1.8,0.9s-1.5,1.3-1.8,1.3H79v0.4
	h-0.5v0.4h-1.4v-1.3h-0.5v0.4h-1.4V384h-0.5v-9.3c0.3-0.6,0.5-1.2,0.5-1.8s0-0.9,0-0.9c-0.3,0-0.6-3.2-0.9-9.7v-12.8
	c0,0,0.2-0.1,0.5-0.4v-19.3H74.9z M86.2,382.3c0,0,0.2,0,0.5,0c0,0.3-0.2,0.4-0.5,0.4C86.2,382.8,86.2,382.6,86.2,382.3z
	 M78.1,385.9c0,0,0.2,0,0.5,0c0,0.3-0.2,0.4-0.5,0.4C78.1,386.3,78.1,386.2,78.1,385.9z"/>
<path style="fill:none;stroke:#000000;stroke-miterlimit:10;" d="M306.1,483.8v-0.4h0.5v0.9h5.9v0.4H312v0.4h3.6l0.5,5.7
	c0.3,3.8,0.5,5.7,0.5,5.7s0,0.1,0,0.4h0.5v0.4l-0.5,0.4v0.4H293c-4.2,0-6.6,0-7.2,0h-1.4h0.5v-13.2c0,0,0.2-0.1,0.5-0.4v-0.4h10.4
	C302.6,484.2,306.1,484.1,306.1,483.8z"/>
<path style="fill:none;stroke:#000000;stroke-miterlimit:10;" d="M185.5,369.5v-39.3h59.2v79.4h-27.5c-18.4,0.3-28.3,0.4-29.8,0.4
	h-1.8v-0.4C185.5,409.4,185.5,396,185.5,369.5z M236.1,375.7v9.3c0,0.3-0.6,0.4-1.8,0.4l-1.8-0.4l0.5-9.3c0-5.9,0.6-8.8,1.8-8.8
	C235.6,366.9,236.1,369.8,236.1,375.7z"/>
<path style="fill:none;stroke:#000000;stroke-miterlimit:10;" d="M181,418.1v-0.9h34.3c22.9,0,45.3,0.1,67.3,0.4h33v5.7h0.5v11.5
	h-0.5c0,0-22.4,0.3-67.3,0.9H181v0.4h-0.5v-17.6C180.9,418.5,181,418.4,181,418.1z M246.9,421.6c0.3-0.6,1.2-0.7,2.7-0.4
	s2.6,0.7,3.2,1.3c0.3,0.6,0.5,1.5,0.5,2.6c-0.3,1.2-0.8,1.9-1.4,2.2s-1.7,0.4-3.2,0.4s-2.6-0.4-3.2-1.3c-0.3-0.9-0.3-1.9,0-3.1
	C245.9,422.2,246.3,421.6,246.9,421.6z"/>
<path style="fill:none;stroke:#000000;stroke-miterlimit:10;" d="M128.6,400.9h-0.5v0.4h-1.8v0.4h-0.5v0.4H125v-0.9h0.5v-0.4H125
	V400l0.5-0.4c0.3-0.6,1.2-3.2,2.7-7.9s2.6-8.2,3.2-10.6v-4h-0.5v-0.4H130v-0.4h-0.5v0.4h-1.4v0.4h-0.5v0.4h-0.9l-1.8,3.1
	c-1.2,1.8-3.3,5.3-6.3,10.6c-2.7,5-4.2,7.6-4.5,7.9l-0.5,0.4h-0.5v0.9l-0.5,0.4l-0.5,0.4v0.4h-0.5v0.4H111v-2.6
	c-0.3-1.8-0.2-5.7,0.5-11.9c0.6-6.2,0.6-10.1,0-11.9L111,373c0.3,0,0.5,0,0.5,0s0-0.1,0-0.4c0-0.6-0.3-2.2-0.9-4.9l-1.4-4v-2.2
	c-0.3-1.5-0.5-3.2-0.5-5.3c0-1.8,0-4.4,0-7.9l0.5-5.3c0.3,0,0.6-0.9,0.9-2.6c0.3-2.1,0.8-6.6,1.4-13.7c0-7.1-0.5-11.9-1.4-14.6
	l-1.8-4.4h-0.5c-0.3,0-0.5,0.3-0.5,0.9v0.9h-0.9v-0.4l-0.5-0.4v-0.9c0-0.3-0.2-0.7-0.5-1.3l-0.5-0.9v-2.2h-0.5V303h-0.5v-0.4h-0.5
	v-0.4h-0.5c0-0.3-0.6-0.9-1.8-1.8c-1.2-0.9-2.4-2.6-3.6-5.3l-1.8-4v-1.3l-0.5-0.4l-0.5-0.9V285c0-2.1,0.8-3.7,2.3-4.9
	c1.5-0.9,2.9-1.6,4.1-2.2c1.5-0.6,3.6-0.7,6.3-0.4c2.4,0.3,5.1,1.3,8.1,3.1c2.7,1.8,5.3,4.1,7.7,7.1c2.7,2.9,5.3,6.8,7.7,11.5
	c2.4,4.7,4.2,9,5.4,12.8s1.8,7.5,1.8,11s-0.3,7.4-0.9,11.5c-1.2,4.4-1.7,8.4-1.4,11.9s1.2,7.2,2.7,11s3.2,7.6,5,11.5
	c1.8,3.5,2.7,6.8,2.7,9.7c0,3.2-0.9,5.9-2.7,7.9c-1.2,2.1-3.6,4.7-7.2,7.9c-3.6,2.9-5.9,4.7-6.8,5.3
	C129.1,400.1,128.6,400.6,128.6,400.9z"/>
<path style="fill:none;stroke:#000000;stroke-miterlimit:10;" d="M332.3,484.2h0.5l0.5,0.9c0.3,0.3,0.5,2.4,0.5,6.2
	c0,3.5,0,5.6,0,6.2v0.9c0,0-0.5,0.1-1.4,0.4c-0.9,0-1.4-0.1-1.4-0.4v-0.9l0.5-0.9c0.3-0.3,0.3-0.6,0-0.9c-0.3,0-0.3-1.8,0-5.3
	c0.3-3.2,0.3-5,0-5.3l-0.5-0.9v-0.4h0.5c0.3,0,0.5,0,0.5,0C331.8,484.1,332,484.2,332.3,484.2z"/>
<path style="fill:none;stroke:#000000;stroke-miterlimit:10;" d="M236.1,375.7v9.3c0,0.3-0.6,0.4-1.8,0.4l-1.8-0.4l0.5-9.3
	c0-5.9,0.6-8.8,1.8-8.8C235.6,366.9,236.1,369.8,236.1,375.7z"/>
<path style="fill:none;stroke:#000000;stroke-miterlimit:10;" d="M307,472.7v-0.9h9.9c0.3,0,0.2,2.1-0.5,6.2
	c-0.9,4.1-1.8,6.2-2.7,6.2h-7.2V478C306.5,474.8,306.7,473,307,472.7z"/>
<path style="fill:none;stroke:#000000;stroke-miterlimit:10;" d="M105.6,326.8l0.5,0.4c0.6,0,0.9,0.4,0.9,1.3s-0.2,1.6-0.5,2.2v1.3
	l-1.4,4.9c-0.6,3.5-1.1,5.6-1.4,6.2v0.9h-0.5v2.6h-0.5l-9.5,7.1c-6.6,4.7-10.1,7.2-10.4,7.5l-0.5,0.4h-0.5l-0.5,0.4l-0.5,0.4h-0.5
	v0.4l-0.5-8.8v-9.3h0.5v-0.4h0.5V344h0.9v-0.4c0.3,0,3.9-2.5,10.8-7.5l10.8-7.9h0.5v-0.4h0.5v-0.4h0.9v-0.6H105.6z"/>
<path style="fill:none;stroke:#000000;stroke-miterlimit:10;" d="M44.6,348.8l0.5-0.4H46l0.5,0.4l0.9,0.4l0.9,0.9
	c0.6,0.6,1.1,1.3,1.4,2.2v1.3h-0.5c0,0,0,0.1,0,0.4h0.5l0.5,0.4c0.3,0,0.6,0.1,0.9,0.4c0,0.3-0.3,0.3-0.9,0l-0.9-0.4l-0.5,0.4v0.4
	h-0.9v0.4h-2.3l-1.8-0.4h-0.9V355h-0.5v-0.4h-0.5v-4.4h0.5v-0.4h0.5v-0.4h0.9L44.6,348.8z"/>
<path style="fill:none;stroke:#000000;stroke-miterlimit:10;" d="M-1,491.3v-7.1h47v0.4h0.5v0.4H46c-0.3,0-0.5,2.1-0.5,6.2v6.6H46
	v0.4h7.2v0.4H-1V491.3z"/>
<path style="fill:none;stroke:#000000;stroke-miterlimit:10;" d="M45.1,392.9v-0.4h3.6v0.4h0.5l0.5,0.4c0.3,0,0.6,0.3,0.9,0.9
	c0.3,0.3,0.5,0.9,0.5,1.8v1.8c0,0.3-0.2,0.6-0.5,0.9c-0.3,0-0.6,0.3-0.9,0.9v0.4h-0.5c-0.3-0.3-0.9-0.4-1.8-0.4c-1.2,0-2.1,0-2.7,0
	l-0.5-0.9h-0.5v-0.4h-0.5v-0.4h-0.5v-3.1h0.5v-0.4h0.5v-0.9h0.9v-0.4h0.5V392.9z"/>
<path style="fill:none;stroke:#000000;stroke-miterlimit:10;" d="M108.3,345.7l0.5-3.1l0.5,0.4l-0.5,5.3c0,3.5,0,6.2,0,7.9
	c0,2.1,0.2,3.8,0.5,5.3v2.2c-0.3,0-0.5-0.3-0.5-0.9s-0.2-0.9-0.5-0.9h-0.5c0,0-0.3-0.6-0.9-1.8c-0.6-1.2-0.9-2.2-0.9-3.1v-1.3h0.5
	v0.4h0.9v-3.5C107.7,350.1,108,347.8,108.3,345.7z"/>
<path style="fill:none;stroke:#000000;stroke-miterlimit:10;" d="M42.8,327.2h3.6l0.9,0.4c0.6,0.6,1.1,1.3,1.4,2.2v1.8l-0.9,0.9
	c-0.6,0.6-0.9,1-0.9,1.3H46c-0.6,0.3-1.4,0.1-2.3-0.4h-1.8V333h-0.5v-0.4H41v-4l0.5-0.4v-0.4H42l0.5-0.4h0.3V327.2z"/>
<path style="fill:none;stroke:#000000;stroke-miterlimit:10;" d="M74.9,299.9v-4.4H79l0.5,0.4H80v7.9c0,0.3,0,0.6,0,0.9
	c0.3,0.3-0.3,0.4-1.8,0.4s-2.4-0.1-2.7-0.4l-0.5-0.4L74.9,299.9L74.9,299.9z"/>
<path style="fill:none;stroke:#000000;stroke-miterlimit:10;" d="M79.9,460.8v4.9c0.3,3.5,0.6,5.3,0.9,5.3l12.2,0.4
	c8.1,0.3,12.2,0.4,12.2,0.4H92.1c-8.7,0-15.2,0-19.4,0h-5.9v4.9l-0.5,4.9v-10.1h0.5V471h4.1c2.4,0,3.6-0.1,3.6-0.4l0.5-4.9v-4.4h2.3
	C79,461,79.9,460.8,79.9,460.8z"/>
<path style="fill:none;stroke:#000000;stroke-miterlimit:10;" d="M343.6,474.5l-0.5-1.8c0,0,0.2,0.1,0.5,0.4l0.9,3.1
	c0.6,1.8,1.1,3.5,1.4,5.3s0.3,2.6,0,2.6h-0.5c0,0-0.3-1.2-0.9-3.5C343.9,478,343.6,476,343.6,474.5z"/>
<path style="fill:none;stroke:#000000;stroke-miterlimit:10;" d="M-1,504.9v-6.2h59.6v12.8H-0.5C-0.5,511.3-0.7,509.1-1,504.9z"/>
<path style="fill:none;stroke:#000000;stroke-miterlimit:10;" d="M93.9,399.5h-0.5v0.4H93v0.4h-0.9v0.4h-0.5v0.4h-0.5v-0.4l-0.5-0.4
	v0.4v-1.3h0.5V399h0.5v-1.3h0.5l4.5-3.5c3.3-2.4,5.1-4.1,5.4-5.3c0.3-1.5,0.8-2.4,1.4-2.6c0.6-0.6,1.5-0.7,2.7-0.4
	c1.5,0.3,2.6,0.7,3.2,1.3c0.3,0.6,0.5,1.5,0.5,2.6c-0.3,1.2-0.8,1.9-1.4,2.2c-0.6,0.3-1.5,0.4-2.7,0.4s-3.5,1.2-6.8,3.5
	C95.5,398.4,93.9,399.5,93.9,399.5z"/>
<path style="fill:none;stroke:#000000;stroke-miterlimit:10;" d="M511.5,471.4v11.9c0,0.6-7.5,0.9-22.6,0.9h-22.1v-12.3h22.6
	C503.9,471.9,511.2,471.7,511.5,471.4z"/>
<path style="fill:none;stroke:#000000;stroke-miterlimit:10;" d="M66.3,459.5l5-0.9h0.5c0.6,0,1.1,0.3,1.4,0.9s0.6,0.9,0.9,0.9
	s0.5,1.8,0.5,5.3v4.9c0,0.3-1.2,0.4-3.6,0.4H46.4v-1.3l0.5-0.4l0.5-0.4V468h0.5v-0.4h0.5V467c0,0,0.8-0.6,2.3-1.8
	c1.5-0.9,3.8-1.9,6.8-3.1C60,461,63,460.1,66.3,459.5z"/>
<path style="fill:none;stroke:#000000;stroke-miterlimit:10;" d="M329.1,484.2h0.9c0.6,0,0.9,0,0.9,0h0.5v0.9c0,0.6-0.2,2.5-0.5,5.7
	c0,3.2,0.2,4.9,0.5,4.9c0.3,0.3,0.3,0.6,0,0.9l-0.5,0.9c-0.3,0-0.9,0-1.8,0h-1.4c0,0-1.1,0-3.2,0H321c0,0-0.6-0.1-1.8-0.4h-2.7
	c0-0.3,0-0.4,0-0.4s-0.2-1.9-0.5-5.7l-0.5-5.7h1.4l0.9-0.4h5.9C327.3,484.4,329.1,484.2,329.1,484.2z"/>
<path style="fill:none;stroke:#000000;stroke-miterlimit:10;" d="M74.4,361.6v-9.3v10.1c0.3,6.5,0.6,9.7,0.9,9.7c0,0,0,0.3,0,0.9
	s-0.2,1.2-0.5,1.8v0.4h-0.5v-0.4c0,0-4.2-2.9-12.6-8.8L50,357.2h-0.5l-0.5-0.4l-0.5-0.4H48V356h-0.5v-0.4h0.9V355l0.5-0.4v-0.9h0.5
	v0.4h0.5l0.5,0.4h0.9v0.4c0,0.3,3.2,2.6,9.5,7.1c6.6,4.4,10.1,6.8,10.4,7.1l0.5,0.4h0.5v0.4h0.5v0.4h0.9l0.5,0.4h0.5v-9.1H74.4z
	 M50.1,355c0,0,0.2,0,0.5,0c0,0.3-0.2,0.4-0.5,0.4C50.1,355.4,50.1,355.3,50.1,355z"/>
</svg>
