<?xml version="1.0" encoding="utf-8"?>
<!-- Generator: Adobe Illustrator 22.1.0, SVG Export Plug-In . SVG Version: 6.00 Build 0)  -->
<svg version="1.1" id="Layer_1" xmlns="http://www.w3.org/2000/svg" xmlns:xlink="http://www.w3.org/1999/xlink" x="0px" y="0px"
	 viewBox="0 0 612 792" style="enable-background:new 0 0 612 792;" xml:space="preserve">
<path style="fill:#070707;" d="M349,77c19.4,5,30.4,19.6,41.3,34.9c14.3,20.1,19.7,43,23.6,66.6c2.9,17.5,5.4,35,7.7,52.6
	c1.9,14.9-2.3,28.9-7.8,42.5c-2.6,6.4-5.8,12.6-8.8,18.9c-1.9,3.9-4.4,7.4-3.4,12.5c0.8,4.2-3.4,9.2-6.2,8.9
	c-4.4-0.4-8.7-6.1-8.1-11c0.5-4.6,2.1-9,4.1-13.2c2.3-4.8,4.6-9.5,7.4-14.1c6.7-11,9.6-23,10.2-35.8c0.9-20.3,3.1-40.5,1-60.8
	c-3.1-30-12.4-57.3-34.4-78.9c-7.9-7.8-17.3-13.3-28.8-14.3c-7.4-0.6-14.1,1-20.2,5c-2.4,1.5-4.8,2.9-7.3,4.3
	c-0.7,0.4-1.6,1.4-2.6,0.3c-0.9-1-0.1-2,0.4-2.7c4.3-7,9.8-12.6,18-14.6c0.7-0.2,1.7,0.2,1.9-1C341,77,345,77,349,77z"/>
<path style="fill:#080808;" d="M50,513c6.1-10.8,15.9-14.9,26.4-11c6.5,2.4,10.2,7.1,10.7,14.1c0.1,1.3,1.2,3.6-0.7,3.8
	c-1.6,0.2-4-0.2-4.7-2.7c-0.2-0.6-0.6-1.2-0.8-1.8c-2.3-5.3-6-9.1-11.9-9.2s-10.2,3.2-13.2,8.3c-2.1,3.5-2.6,7.4-3,11.4
	C51,524.6,52,522,50,521C50,518.3,50,515.7,50,513z"/>
<path style="fill:#141414;" d="M565,394c-2.5,6.5-3.4,13.6-6.9,19.8c-5.9,10.3-13.9,16.7-26.4,16c20.4-4.5,27.5-19.8,31.2-37.9
	c0.2-1.1-0.3-2.3,0.9-3.2c0.6-0.4,0.8,0,1.2,0.3C565,390.7,565,392.3,565,394z"/>
<path style="fill:#C2C2C2;" d="M384.8,715.1c3.4,0.6,7.4-2,10.2,1.9c-4,0-8,0-12,0c0.1-0.3,0.1-0.6,0-0.9
	C383.6,715.8,384.2,715.5,384.8,715.1z"/>
<path style="fill:#060606;" d="M345.4,377.3c-3.9,6-9.2,9.8-15.4,12.7c-10.7,4.9-22.3,5.9-33.6,8.1c-8.5,1.6-15.8-2.2-23.7-3.6
	c-31.2-5.7-61.3-4-89.8,11.2c-3.7,2-8.1,2.9-11.8,4.9c-9.5,5-15.5,13.3-21,22.2c-6.7,11-11.8,23.1-21,32.4
	c-6.6,6.6-12.5,13.8-17.5,21.7c-12.4,19.6-19.5,41.1-22.7,64c-1.7,12.2-2.1,24.5-1.8,37.3c-4.4-2.9-4.9-7.2-5.1-11.4
	c-0.3-10.2,2.4-20,5-29.8c3.3-12.2,3.9-24.8,6.5-37.1c5.2-24.6,18-45.4,33.7-64.5c9.6-11.7,18.9-23.7,30.9-33.2
	c16.6-13.1,36.1-19.6,56.7-23.2c15.8-2.7,31.8-2.3,47.7-3.5c18.4-1.5,36.5,2.5,54.8,1.7c9.5-0.4,18.3-2.7,25.6-9.2
	c0.4-0.3,0.8-0.6,1.2-0.8C344.3,377,344.6,377.2,345.4,377.3z"/>
<path style="fill:#090909;" d="M384.8,715.1c-0.6,0.3-1.2,0.6-1.8,1c-8.5-0.1-16.9-0.7-25.3-1.8c-3.9-0.5-6.4-2.5-8.6-5.1
	c-7.5-8.6-9.9-19.3-12-30c-2.1-10.2-2.7-21.2-8.5-29.8c-6.9-10.2-11-21.6-16.7-32.2c-4.8-8.9-10.6-17.2-15.4-26.1
	c-6.7-12.4-9.2-25.2-1-38.1c2-3.2,4.6-6.1,7-9.1c6.5-8.1,12.9-16.3,17.9-25.6c1.6,1.3,0.8,2.3,0.2,3.4c-3.1,5.9-5.6,12.1-9.3,17.5
	c-12.6,18.7-12.6,37.6-3.7,57.8c8,18.2,17.9,35.4,26.2,53.4c6.3,13.6,11,27.5,12.5,42.6c0.9,8.5,6.5,13.8,14,17.3
	C368,713.6,376.3,714.9,384.8,715.1z"/>
<path style="fill:#0B0B0B;" d="M387.3,658.8c-8.3-13.2-7.2-26-3.2-38.8c4.5-14.4,11.3-28.2,25.5-34.7c16.9-7.8,27.7-21.2,38.4-35.1
	c10.8-13.9,19.3-29.1,24.1-46.3c5.5-19.7,14.2-38.1,24.7-55.8c-0.9,5.6-3.3,10.6-5.5,15.7c-6.8,15.5-16,30.3-18.8,47.2
	c-2,12.2-6.1,23.3-12.3,33.7c-10.9,18.3-25.9,32.2-44.9,41.8c-8.2,4.1-13.1,11.6-18.1,18.9c-8.6,12.5-14.2,26.1-12.2,41.8
	C385.4,650.7,386.3,654.1,387.3,658.8z"/>
<path style="fill:#080808;" d="M85.9,611.3c2,6,0.7,11.8-1.3,17.4c-2.8,7.7-7.8,14.2-12.1,21.1c-2.6,4.1-5,8.2-6.8,12.7
	c-4.9,12-0.1,22.5,12.3,26.5c8.6,2.8,17.3,2,25.9-0.5c7.2-2.1,13.9-5.3,19.4-10.5c2.3-2.2,3.6-4.4,1.8-7.9c-1.4-2.7-3-7-0.5-8.8
	c3.3-2.3,6.4,1.2,8.9,3.5c1.1,1,2.1,2.1,3.1,3.3c5.3,6.9,4.5,10.8-3.3,14.4c-20.2,9.3-40.9,12.7-62.8,6.5
	c-11.8-3.4-13-10.2-12.1-21.4c0.5-6.9,4.2-12.8,8-18.4c3.1-4.5,6.3-9,9.4-13.5C80.9,628.3,85.2,620.6,85.9,611.3z"/>
<path style="fill:#030303;" d="M461.9,347.1c-6-0.3-10.9-1.1-15.4-3.2c-8.6-3.9-12.2-12.1-9.3-21c1-3,10.6-7,15.2-6.5
	c13.7,1.4,19.4,16.6,18.6,26.5c-0.1,1.8-1.4,2.7-2.8,3.1C465.8,346.6,463.4,347.4,461.9,347.1z"/>
<path style="fill:#0F0F0F;" d="M309.8,104.5c-1.4,10.8-2.9,21.4-3.2,32.2c-1.2,40.7,7.5,78.6,33.8,110.6
	c9.7,11.8,20.4,22.8,27.6,36.4c3,5.7,6.3,11.3,7.4,17.8c0.4,2.4,0.6,5-1.7,6.2c-2.3,1.2-4-1-5.4-2.6c-3.7-4.3-5.6-9.4-3.2-14.7
	c1.5-3.3,0.6-5.5-0.8-8.2c-4.7-8.3-10.7-15.7-17.5-22.3c-15.9-15.2-25.3-34.1-32.1-54.6c-7.3-22-12.5-44.3-11.7-67.7
	C303.4,126.2,305.5,115.1,309.8,104.5z"/>
<path style="fill:#0A0A0A;" d="M153.1,618.2c17.9-2,35.5-2.3,52.1,6.7c8.2,4.5,17.1,3,25.8,1.5c12.2-2.2,23.8-6.7,35.8-9.6
	c12.7-3.1,24.8-1.5,36.7,3.3c-7.4-0.3-14.8-0.7-22.1-1c-5.5-0.2-10.8,0.8-16,2.8c-21.2,8.1-43.1,9.3-65.6,6.4
	C183.9,626.3,168.5,622.4,153.1,618.2z"/>
<path style="fill:#0C0C0C;" d="M171.2,523.5c0.7,20.6,1.1,41.2-5.1,61.2c-3.5,11.3-9.5,21.3-17.4,29.8c-18.5,19.8-49.1,9.7-57.7-9.6
	c4.2,3.4,8,6.6,12.1,9.6c4.4,3.2,9.3,5.8,14.7,6.9c6.8,1.5,12.8,0.3,18.7-4.1c19.5-14.3,27.1-34.9,30.5-57.5
	C168.7,547.8,169.8,535.6,171.2,523.5z"/>
<path style="fill:#080808;" d="M229.3,635.9c3.5,3.5,7.6,6.6,10.4,10.6c9.6,13.8,23.1,15.9,38.3,14.1c11.7-1.4,23.3-4.3,35.1-1.5
	c4.5,1.1,9.2,1.7,13.4,5.1c-2.7,1.4-5,1.9-7.5,1.9c-8.2-0.2-16.2,1.5-24.3,1.7c-20.9,0.4-41.2-1.9-57.1-17.6
	C233.7,646.2,230.7,641.7,229.3,635.9z"/>
<path style="fill:#0E0E0E;" d="M514.4,91.1c-11,6.4-20.3,13.8-27,24c-1.3,2.1-3.2,3.3-5,4.7c-21.6,16.6-38.4,36.9-47.5,63
	c-1.8,5.1-4.1,10-6.3,15c-0.1,0.2-0.6,0.1-1.3,0.3c3-21.2,10.9-40.4,25.5-55.7c15.8-16.6,33-31.7,49.8-47.4
	C505.6,92.2,509.2,90,514.4,91.1z"/>
<path style="fill:#0D0D0D;" d="M327.2,132.5c3.1,17.7,6,35.5,9.6,53.1c1,5,0.5,10.2,1.8,15.3c2.7,11.1,9.6,19.5,17.5,27.2
	c8,7.7,16.9,14.6,24.4,22.9c3.6,4,7.4,7.9,9.3,14.7c-11-10-20.3-19.7-30.8-27.9c-12.1-9.5-17.6-22.4-22.1-36.2
	C329.6,179.2,328.4,155.8,327.2,132.5z"/>
<path style="fill:#0E0E0E;" d="M478.1,257.9c-3.3-0.7-5.6-2.1-6.2-6c-2.8-15.8-0.7-31.4,2.1-47c3.6-20.1,7-40.3,13-60
	c2.9-9.5,7.2-18.3,14.3-25.7c-3,7.3-6.3,14.6-9,22c-7.6,21.2-12.5,43-15.4,65.4c-1.6,12.5-2.4,25.1-3.6,37.6
	c-0.5,5.3,2.2,9.5,4.7,13.7L478.1,257.9z"/>
<path style="fill:#080808;" d="M421.9,659.1c-5-5.6-10.3-10.8-14.7-16.8c-3.9-5.3-2.4-11.9-1.8-17.9c0.9-10.2,3.9-20,7.3-29.7
	c0.1,21.8,0,43.6,10,63.8C422.4,658.7,422.1,658.9,421.9,659.1z"/>
<path style="fill:#0B0B0B;" d="M383.9,408.7c8.7,1.4,16,6.8,23.1,12.7c5.4,4.6,9.7,10.4,16,14.2c13.6,8.2,28.3,10.6,43.9,8.9
	c8.7-0.9,17.1-3.1,25.6-5.2c-5.1,3.4-11,4.7-16.9,6.1c-17.3,4.2-34.2,2.9-50.3-4.5c-8.8-4.1-15.5-11.3-22.6-17.8
	C396.7,417.4,390.1,412.7,383.9,408.7z"/>
<path style="fill:#111111;" d="M412.4,158.2c5,6.8,8.3,14.3,9.7,22.6c3.4,19.4,4.1,39.2,9.1,58.4c1.8,7.1,3.8,14.3,8.3,20.2
	c-3.9,0.5-3.9,0.5-5.5-3.5c-4.9-12.1-7.1-24.7-9-37.5c-2.5-17-4.1-34.2-9-50.8C415,164.4,413.6,161.4,412.4,158.2z"/>
<path style="fill:#0E0E0E;" d="M514.8,277.8c18.7,6.3,33,33.4,33.2,62.2C540.2,317,535.4,293.8,514.8,277.8z"/>
<path style="fill:#111111;" d="M542.9,403.1c0.7,4.9-1.3,7.9-3.2,10.6c-9.7,13.9-22.7,21.5-40.1,20.4c-10.1-0.6-17.9-7.2-20.1-17
	c-1-4.3-1.2-8.8-1.7-13.3c2.2-0.2,2.1,1.2,2.3,2.2c0.7,2.9,1.3,5.8,2,8.7c3.1,12.4,14.3,19.4,27,16.8
	C525.4,428.2,533.6,421.4,542.9,403.1z"/>
<path style="fill:#0C0C0C;" d="M368.8,320.5c-0.8,11.7-5.1,22.6-8.6,33.7c-3.6,11.2-6.1,22.5-5.1,34.5
	C349.8,372.5,352.9,357,368.8,320.5z"/>
<path style="fill:#080808;" d="M549.5,384.4c0.6-4.2,0.2-7.7,1.8-10.9c0.6-1.1,1.1-2.8,2.7-2.5c1.8,0.3,1.4,2.1,1.3,3.3
	c-0.8,6.3-4.3,11.7-6.7,17.4c-1.1,2.8-3.7,1.4-5.2-0.4c-4.1-4.9-5.9-11-8-16.8c-0.5-1.5,0.4-1.9,1.2-2.2c1.6-0.5,3.2-0.8,4.7,0.5
	c1.8,1.6,2.6,3.8,3.6,5.9C545.8,380.8,546.6,382.9,549.5,384.4z"/>
<path style="fill:#0D0D0D;" d="M394.2,668.8c7.6,9.2,15.2,18.4,19.1,29.9c1.7,5,1.8,10.1-1.5,14.7c-0.5,0.7-1.1,1.8-2.7,1.2
	c3.9-18.2-7.8-31.1-15.9-45.2C393.5,669.3,393.8,669.1,394.2,668.8z"/>
<path style="fill:#0B0B0B;" d="M429.4,670.3c3.7,2.9,5.8,5.6,7.7,8.5c3.8,6,2.2,10.4-4.4,12.8c-4.5,1.6-9.1,2-13.7,1.2
	c-1.5-0.2-4.3,0.1-4.1-2.4c0.2-1.8,2.5-1.7,4.2-1.8c1.8-0.1,3.6-0.2,5.4-0.5c7.5-1.2,9.6-4.7,7.3-11.9
	C431.2,674.6,430.5,673,429.4,670.3z"/>
<path style="fill:#0A0A0A;" d="M57.5,536c7.2,5,17.5,5.5,21.4,15.2c0.5,1.2,1.9,2.5,0.8,3.6c-1.2,1.2-2.7,0.1-4-0.6
	C68,549.8,62.1,543.6,57.5,536z"/>
<path style="fill:#080808;" d="M516.2,91.6c6.5,6.7,3.4,18.2-4.8,20.4c-1.4,0.4-3.2,1-4.1-0.4c-0.8-1.2-0.5-2.8,0.5-4.2
	c1.8-2.5,3.5-5.1,5.3-7.7C514.6,97.4,516.1,95.1,516.2,91.6z"/>
<path style="fill:#0E0E0E;" d="M511.2,358.9c-12.3,10.8-23.1,21.8-28.8,37.4C481.6,383.1,498.1,361.4,511.2,358.9z"/>
<path style="fill:#0D0D0D;" d="M285.2,635.8c3.4,7.2,10.1,11.2,15.7,16.4C287.9,649.8,284.9,648.6,285.2,635.8z"/>
<path style="fill:#111111;" d="M125.2,637.6c1.5-3.1,3.1-6.1,4.6-9.2c0.5-0.9,0.4-2.7,2.1-1.9c0.9,0.5,1.9,1.9,1.2,3
	C131,632.6,129.3,636.2,125.2,637.6z"/>
<path style="fill:#141414;" d="M555.9,354.6c-4.3-2-4.7-6.6-6.2-10.5C552.9,346.8,554.3,350.7,555.9,354.6z"/>
<path style="fill:#141414;" d="M500.5,268.3c4.2,2.2,8.6,4.1,12.2,7.4c-4.6-1.5-8.8-3.8-12.7-6.6
	C500.1,268.8,500.3,268.5,500.5,268.3z"/>
<path style="fill:#141414;" d="M499.9,269.1c-0.6-0.2-1.2-0.3-1.8-0.5c0.6-1.2,1.5-0.5,2.3-0.4C500.3,268.5,500.1,268.8,499.9,269.1
	z"/>
<path style="fill:#0D0D0D;" d="M393.2,669.5c-0.4-0.4-1.3-0.8-0.8-1.3c0.6-0.6,1.4-0.3,1.8,0.6C393.8,669.1,393.5,669.3,393.2,669.5
	z"/>
<path style="fill:#0E0E0E;" d="M478,258c0.2,0.2,0.5,0.5,0.7,0.7c-0.1,0-0.3,0.2-0.4,0.1c-0.5-0.2-0.5-0.6-0.1-0.9
	C478.1,257.9,478,258,478,258z"/>
<path style="fill:#080808;" d="M422.7,658.5c0,0.4,0.2,1.1,0.1,1.2c-0.5,0.4-0.7-0.1-0.8-0.6C422.1,658.9,422.4,658.7,422.7,658.5z"
	/>
</svg>
