<?xml version="1.0" encoding="utf-8"?>
<!-- Generator: Adobe Illustrator 22.1.0, SVG Export Plug-In . SVG Version: 6.00 Build 0)  -->
<svg version="1.1" id="Layer_1" xmlns="http://www.w3.org/2000/svg" xmlns:xlink="http://www.w3.org/1999/xlink" x="0px" y="0px"
	 viewBox="0 0 640 480" style="enable-background:new 0 0 640 480;" xml:space="preserve">
<polygon style="fill:none;stroke:#000000;stroke-miterlimit:10;" points="617,50 617,325 604.5,325 604.5,318 26.9,318 26.9,325 
	26.9,325 26.9,50 "/>
<path style="fill:none;stroke:#000000;stroke-miterlimit:10;" d="M95.8,327.8l-0.3,0.1l-5.1,1l-1.8,5.3l3.6,4.2l5.5-1l1.8-5.3
	L95.8,327.8z M95.8,327.8l-0.3,0.1l-5.1,1l-1.8,5.3l3.6,4.2l5.5-1l1.8-5.3L95.8,327.8z M95.8,327.8l-0.3,0.1l-5.1,1l-1.8,5.3
	l3.6,4.2l5.5-1l1.8-5.3L95.8,327.8z M95.8,327.8l-0.3,0.1l-5.1,1l-1.8,5.3l3.6,4.2l5.5-1l1.8-5.3L95.8,327.8z M95.8,327.8l-0.3,0.1
	l-5.1,1l-1.8,5.3l3.6,4.2l5.5-1l1.8-5.3L95.8,327.8z M95.8,327.8l-0.3,0.1l-5.1,1l-1.8,5.3l3.6,4.2l5.5-1l1.8-5.3L95.8,327.8z
	 M95.8,327.8l-0.3,0.1l-5.1,1l-1.8,5.3l3.6,4.2l5.5-1l1.8-5.3L95.8,327.8z M277.8,328.8l-5.5,1l-1.8,5.3l3.6,4.2l5.5-1l1.8-5.3
	L277.8,328.8z M277.8,328.8l-5.5,1l-1.8,5.3l3.6,4.2l5.5-1l1.8-5.3L277.8,328.8z M95.8,327.8l-0.3,0.1l-5.1,1l-1.8,5.3l3.6,4.2
	l5.5-1l1.8-5.3L95.8,327.8z M95.8,327.8l-0.3,0.1l-5.1,1l-1.8,5.3l3.6,4.2l5.5-1l1.8-5.3L95.8,327.8z M277.8,328.8l-5.5,1l-1.8,5.3
	l3.6,4.2l5.5-1l1.8-5.3L277.8,328.8z M277.8,328.8l-5.5,1l-1.8,5.3l3.6,4.2l5.5-1l1.8-5.3L277.8,328.8z M95.8,327.8l-0.3,0.1l-5.1,1
	l-1.8,5.3l3.6,4.2l5.5-1l1.8-5.3L95.8,327.8z M92.8,393.8l-5.5,1l-1.8,5.3l3.6,4.2l5.5-1l1.8-5.3L92.8,393.8z M95.8,327.8l-0.3,0.1
	l-5.1,1l-1.8,5.3l3.6,4.2l5.5-1l1.8-5.3L95.8,327.8z M274.6,325c0.4,0.2,0.8,0.3,1.2,0.3c0.4,0,0.8-0.1,1.2-0.3H274.6z M277.8,328.8
	l-5.5,1l-1.8,5.3l3.6,4.2l5.5-1l1.8-5.3L277.8,328.8z M92.8,393.8l-5.5,1l-1.8,5.3l3.6,4.2l5.5-1l1.8-5.3L92.8,393.8z M277.8,328.8
	l-5.5,1l-1.8,5.3l3.6,4.2l5.5-1l1.8-5.3L277.8,328.8z M274.6,325c0.4,0.2,0.8,0.3,1.2,0.3c0.4,0,0.8-0.1,1.2-0.3H274.6z M95.8,327.8
	l-0.3,0.1l-5.1,1l-1.8,5.3l3.6,4.2l5.5-1l1.8-5.3L95.8,327.8z M92.8,393.8l-5.5,1l-1.8,5.3l3.6,4.2l5.5-1l1.8-5.3L92.8,393.8z
	 M95.8,327.8l-0.3,0.1l-5.1,1l-1.8,5.3l3.6,4.2l5.5-1l1.8-5.3L95.8,327.8z M178.8,393.8l-5.5,1l-1.8,5.3l3.6,4.2l5.5-1l1.8-5.3
	L178.8,393.8z M274.6,325c0.4,0.2,0.8,0.3,1.2,0.3c0.4,0,0.8-0.1,1.2-0.3H274.6z M277.8,328.8l-5.5,1l-1.8,5.3l3.6,4.2l5.5-1
	l1.8-5.3L277.8,328.8z M197.5,348.3V381H357v-32.8L197.5,348.3L197.5,348.3z M178.8,393.8l-5.5,1l-1.8,5.3l3.6,4.2l5.5-1l1.8-5.3
	L178.8,393.8z M92.8,393.8l-5.5,1l-1.8,5.3l3.6,4.2l5.5-1l1.8-5.3L92.8,393.8z M277.8,328.8l-5.5,1l-1.8,5.3l3.6,4.2l5.5-1l1.8-5.3
	L277.8,328.8z M274.6,325c0.4,0.2,0.8,0.3,1.2,0.3c0.4,0,0.8-0.1,1.2-0.3H274.6z M95.8,327.8l-0.3,0.1l-5.1,1l-1.8,5.3l3.6,4.2
	l5.5-1l1.8-5.3L95.8,327.8z M92.8,393.8l-5.5,1l-1.8,5.3l3.6,4.2l5.5-1l1.8-5.3L92.8,393.8z M95.8,327.8l-0.3,0.1l-5.1,1l-1.8,5.3
	l3.6,4.2l5.5-1l1.8-5.3L95.8,327.8z M178.8,393.8l-5.5,1l-1.8,5.3l3.6,4.2l5.5-1l1.8-5.3L178.8,393.8z M274.6,325
	c0.4,0.2,0.8,0.3,1.2,0.3c0.4,0,0.8-0.1,1.2-0.3H274.6z M277.8,328.8l-5.5,1l-1.8,5.3l3.6,4.2l5.5-1l1.8-5.3L277.8,328.8z
	 M197.5,348.3V381H357v-32.8L197.5,348.3L197.5,348.3z M178.8,393.8l-5.5,1l-1.8,5.3l3.6,4.2l5.5-1l1.8-5.3L178.8,393.8z
	 M92.8,393.8l-5.5,1l-1.8,5.3l3.6,4.2l5.5-1l1.8-5.3L92.8,393.8z M277.8,328.8l-5.5,1l-1.8,5.3l3.6,4.2l5.5-1l1.8-5.3L277.8,328.8z
	 M274.6,325c0.4,0.2,0.8,0.3,1.2,0.3c0.4,0,0.8-0.1,1.2-0.3H274.6z M95.8,327.8l-0.3,0.1l-5.1,1l-1.8,5.3l3.6,4.2l5.5-1l1.8-5.3
	L95.8,327.8z M92.8,393.8l-5.5,1l-1.8,5.3l3.6,4.2l5.5-1l1.8-5.3L92.8,393.8z M95.8,327.8l-0.3,0.1l-5.1,1l-1.8,5.3l3.6,4.2l5.5-1
	l1.8-5.3L95.8,327.8z M178.8,393.8l-5.5,1l-1.8,5.3l3.6,4.2l5.5-1l1.8-5.3L178.8,393.8z M274.6,325c0.4,0.2,0.8,0.3,1.2,0.3
	c0.4,0,0.8-0.1,1.2-0.3H274.6z M277.8,328.8l-5.5,1l-1.8,5.3l3.6,4.2l5.5-1l1.8-5.3L277.8,328.8z M197.5,348.3V381H357v-32.8
	L197.5,348.3L197.5,348.3z M178.8,393.8l-5.5,1l-1.8,5.3l3.6,4.2l5.5-1l1.8-5.3L178.8,393.8z M92.8,393.8l-5.5,1l-1.8,5.3l3.6,4.2
	l5.5-1l1.8-5.3L92.8,393.8z M277.8,328.8l-5.5,1l-1.8,5.3l3.6,4.2l5.5-1l1.8-5.3L277.8,328.8z M274.6,325c0.4,0.2,0.8,0.3,1.2,0.3
	c0.4,0,0.8-0.1,1.2-0.3H274.6z M95.8,327.8l-0.3,0.1l-5.1,1l-1.8,5.3l3.6,4.2l5.5-1l1.8-5.3L95.8,327.8z M92.8,393.8l-5.5,1
	l-1.8,5.3l3.6,4.2l5.5-1l1.8-5.3L92.8,393.8z M95.8,327.8l-0.3,0.1l-5.1,1l-1.8,5.3l3.6,4.2l5.5-1l1.8-5.3L95.8,327.8z M178.8,393.8
	l-5.5,1l-1.8,5.3l3.6,4.2l5.5-1l1.8-5.3L178.8,393.8z M274.6,325c0.4,0.2,0.8,0.3,1.2,0.3c0.4,0,0.8-0.1,1.2-0.3H274.6z
	 M277.8,328.8l-5.5,1l-1.8,5.3l3.6,4.2l5.5-1l1.8-5.3L277.8,328.8z M380.8,394.8l-5.5,1l-1.8,5.3l3.6,4.2l5.5-1l1.8-5.3L380.8,394.8
	z M380.8,394.8l-5.5,1l-1.8,5.3l3.6,4.2l5.5-1l1.8-5.3L380.8,394.8z M197.5,348.3V381H357v-32.8L197.5,348.3L197.5,348.3z
	 M178.8,393.8l-5.5,1l-1.8,5.3l3.6,4.2l5.5-1l1.8-5.3L178.8,393.8z M92.8,393.8l-5.5,1l-1.8,5.3l3.6,4.2l5.5-1l1.8-5.3L92.8,393.8z
	 M277.8,328.8l-5.5,1l-1.8,5.3l3.6,4.2l5.5-1l1.8-5.3L277.8,328.8z M274.6,325c0.4,0.2,0.8,0.3,1.2,0.3c0.4,0,0.8-0.1,1.2-0.3H274.6
	z M95.8,327.8l-0.3,0.1l-5.1,1l-1.8,5.3l3.6,4.2l5.5-1l1.8-5.3L95.8,327.8z M92.8,393.8l-5.5,1l-1.8,5.3l3.6,4.2l5.5-1l1.8-5.3
	L92.8,393.8z M95.8,327.8l-0.3,0.1l-5.1,1l-1.8,5.3l3.6,4.2l5.5-1l1.8-5.3L95.8,327.8z M178.8,393.8l-5.5,1l-1.8,5.3l3.6,4.2l5.5-1
	l1.8-5.3L178.8,393.8z M274.6,325c0.4,0.2,0.8,0.3,1.2,0.3c0.4,0,0.8-0.1,1.2-0.3H274.6z M277.8,328.8l-5.5,1l-1.8,5.3l3.6,4.2
	l5.5-1l1.8-5.3L277.8,328.8z M380.8,394.8l-5.5,1l-1.8,5.3l3.6,4.2l5.5-1l1.8-5.3L380.8,394.8z M463.8,328.8l-5.5,1l-1.8,5.3
	l3.6,4.2l5.5-1l1.8-5.3L463.8,328.8z M380.8,394.8l-5.5,1l-1.8,5.3l3.6,4.2l5.5-1l1.8-5.3L380.8,394.8z M197.5,348.3V381H357v-32.8
	L197.5,348.3L197.5,348.3z M178.8,393.8l-5.5,1l-1.8,5.3l3.6,4.2l5.5-1l1.8-5.3L178.8,393.8z M92.8,393.8l-5.5,1l-1.8,5.3l3.6,4.2
	l5.5-1l1.8-5.3L92.8,393.8z M463.8,328.8l-5.5,1l-1.8,5.3l3.6,4.2l5.5-1l1.8-5.3L463.8,328.8z M277.8,328.8l-5.5,1l-1.8,5.3l3.6,4.2
	l5.5-1l1.8-5.3L277.8,328.8z M274.6,325c0.4,0.2,0.8,0.3,1.2,0.3c0.4,0,0.8-0.1,1.2-0.3H274.6z M95.8,327.8l-0.3,0.1l-5.1,1
	l-1.8,5.3l3.6,4.2l5.5-1l1.8-5.3L95.8,327.8z M92.8,393.8l-5.5,1l-1.8,5.3l3.6,4.2l5.5-1l1.8-5.3L92.8,393.8z M95.8,327.8l-0.3,0.1
	l-5.1,1l-1.8,5.3l3.6,4.2l5.5-1l1.8-5.3L95.8,327.8z M178.8,393.8l-5.5,1l-1.8,5.3l3.6,4.2l5.5-1l1.8-5.3L178.8,393.8z M274.6,325
	c0.4,0.2,0.8,0.3,1.2,0.3c0.4,0,0.8-0.1,1.2-0.3H274.6z M277.8,328.8l-5.5,1l-1.8,5.3l3.6,4.2l5.5-1l1.8-5.3L277.8,328.8z
	 M380.8,394.8l-5.5,1l-1.8,5.3l3.6,4.2l5.5-1l1.8-5.3L380.8,394.8z M463.8,328.8l-5.5,1l-1.8,5.3l3.6,4.2l5.5-1l1.8-5.3L463.8,328.8
	z M472.7,394l-2.8-3.3l-5.5,1l-1.8,5.3l3.6,4.2l5-0.9l0.5-0.1l1.8-5.3L472.7,394z M472.7,394l-2.8-3.3l-5.5,1l-1.8,5.3l3.6,4.2
	l5-0.9l0.5-0.1l1.8-5.3L472.7,394z M380.8,394.8l-5.5,1l-1.8,5.3l3.6,4.2l5.5-1l1.8-5.3L380.8,394.8z M197.5,348.3V381H357v-32.8
	L197.5,348.3L197.5,348.3z M178.8,393.8l-5.5,1l-1.8,5.3l3.6,4.2l5.5-1l1.8-5.3L178.8,393.8z M92.8,393.8l-5.5,1l-1.8,5.3l3.6,4.2
	l5.5-1l1.8-5.3L92.8,393.8z M463.8,328.8l-5.5,1l-1.8,5.3l3.6,4.2l5.5-1l1.8-5.3L463.8,328.8z M277.8,328.8l-5.5,1l-1.8,5.3l3.6,4.2
	l5.5-1l1.8-5.3L277.8,328.8z M274.6,325c0.4,0.2,0.8,0.3,1.2,0.3c0.4,0,0.8-0.1,1.2-0.3H274.6z M95.8,327.8l-0.3,0.1l-5.1,1
	l-1.8,5.3l3.6,4.2l5.5-1l1.8-5.3L95.8,327.8z M92.8,393.8l-5.5,1l-1.8,5.3l3.6,4.2l5.5-1l1.8-5.3L92.8,393.8z M95.8,327.8l-0.3,0.1
	l-5.1,1l-1.8,5.3l3.6,4.2l5.5-1l1.8-5.3L95.8,327.8z M178.8,393.8l-5.5,1l-1.8,5.3l3.6,4.2l5.5-1l1.8-5.3L178.8,393.8z M274.6,325
	c0.4,0.2,0.8,0.3,1.2,0.3c0.4,0,0.8-0.1,1.2-0.3H274.6z M277.8,328.8l-5.5,1l-1.8,5.3l3.6,4.2l5.5-1l1.8-5.3L277.8,328.8z
	 M380.8,394.8l-5.5,1l-1.8,5.3l3.6,4.2l5.5-1l1.8-5.3L380.8,394.8z M463.8,328.8l-5.5,1l-1.8,5.3l3.6,4.2l5.5-1l1.8-5.3L463.8,328.8
	z M472.7,394l-2.8-3.3l-5.5,1l-1.8,5.3l3.6,4.2l5-0.9l0.5-0.1l1.8-5.3L472.7,394z M571.8,328.8l-5.5,1l-1.8,5.3l3.6,4.2l5.5-1
	l1.8-5.3L571.8,328.8z M472.7,394l-2.8-3.3l-5.5,1l-1.8,5.3l3.6,4.2l5-0.9l0.5-0.1l1.8-5.3L472.7,394z M375.4,395.8l-1.8,5.3
	l3.6,4.2l5.5-1l1.8-5.3l-3.6-4.2L375.4,395.8z M173.4,394.8l-1.8,5.3l3.6,4.2l5.5-1l1.8-5.3l-3.6-4.2L173.4,394.8z M87.4,394.8
	l-1.8,5.3l3.6,4.2l5.5-1l1.8-5.3l-3.6-4.2L87.4,394.8z M571.8,328.8l-5.5,1l-1.8,5.3l3.6,4.2l5.5-1l1.8-5.3L571.8,328.8z
	 M458.4,329.8l-1.8,5.3l3.6,4.2l5.5-1l1.8-5.3l-3.6-4.2L458.4,329.8z M197.5,348.3V381H357v-32.8L197.5,348.3L197.5,348.3z
	 M279.6,338.2l1.8-5.3l-3.6-4.2l-5.5,1l-1.8,5.3l3.6,4.2L279.6,338.2z M277,325h-2.4c0.4,0.2,0.8,0.3,1.2,0.3
	C276.2,325.3,276.6,325.2,277,325z M95.5,327.8l-5.1,1l-1.8,5.3l3.6,4.2l5.5-1l1.8-5.3l-3.6-4.2H95.5z M617,199.6
	c-191.1,14.1-397.4-86.4-590.2,36.6l0,0V325v106.7l0,0l0,0h47.8h35.2h0.1h309.8H617l0,0l0,0v-9.3V269v-15.7v-53.9
	C616.5,199.5,617.6,199.6,617,199.6z M26.9,348.3V318h577.6v30.3H26.9z M26.9,411.4V381h578.3v30.3H26.9V411.4z M574.6,399.2
	l1.8-5.3l-3.6-4.2l-5.5,1l-1.8,5.3l3.6,4.2L574.6,399.2z M573.6,338.2l1.8-5.3l-3.6-4.2l-5.5,1l-1.8,5.3l3.6,4.2L573.6,338.2z
	 M471.2,400.3l0.5-0.1l1.8-5.3l-0.8-0.9l-2.8-3.3l-5.5,1l-1.8,5.3l3.6,4.2L471.2,400.3z M458.4,329.8l-1.8,5.3l3.6,4.2l5.5-1
	l1.8-5.3l-3.6-4.2L458.4,329.8z M375.4,395.8l-1.8,5.3l3.6,4.2l5.5-1l1.8-5.3l-3.6-4.2L375.4,395.8z M272.4,329.8l-1.8,5.3l3.6,4.2
	l5.5-1l1.8-5.3l-3.6-4.2L272.4,329.8z M277,325h-2.4c0.4,0.2,0.8,0.3,1.2,0.3C276.2,325.3,276.6,325.2,277,325z M173.4,394.8
	l-1.8,5.3l3.6,4.2l5.5-1l1.8-5.3l-3.6-4.2L173.4,394.8z M95.5,327.8l-5.1,1l-1.8,5.3l3.6,4.2l5.5-1l1.8-5.3l-3.6-4.2H95.5z
	 M87.4,394.8l-1.8,5.3l3.6,4.2l5.5-1l1.8-5.3l-3.6-4.2L87.4,394.8z M95.8,327.8l-0.3,0.1l-5.1,1l-1.8,5.3l3.6,4.2l5.5-1l1.8-5.3
	L95.8,327.8z M274.6,325c0.4,0.2,0.8,0.3,1.2,0.3c0.4,0,0.8-0.1,1.2-0.3H274.6z M277.8,328.8l-5.5,1l-1.8,5.3l3.6,4.2l5.5-1l1.8-5.3
	L277.8,328.8z M463.8,328.8l-5.5,1l-1.8,5.3l3.6,4.2l5.5-1l1.8-5.3L463.8,328.8z M92.8,393.8l-5.5,1l-1.8,5.3l3.6,4.2l5.5-1l1.8-5.3
	L92.8,393.8z M178.8,393.8l-5.5,1l-1.8,5.3l3.6,4.2l5.5-1l1.8-5.3L178.8,393.8z M197.5,348.3V381H357v-32.8L197.5,348.3L197.5,348.3
	z M380.8,394.8l-5.5,1l-1.8,5.3l3.6,4.2l5.5-1l1.8-5.3L380.8,394.8z M472.7,394l-2.8-3.3l-5.5,1l-1.8,5.3l3.6,4.2l5-0.9l0.5-0.1
	l1.8-5.3L472.7,394z M472.7,394l-2.8-3.3l-5.5,1l-1.8,5.3l3.6,4.2l5-0.9l0.5-0.1l1.8-5.3L472.7,394z M463.8,328.8l-5.5,1l-1.8,5.3
	l3.6,4.2l5.5-1l1.8-5.3L463.8,328.8z M380.8,394.8l-5.5,1l-1.8,5.3l3.6,4.2l5.5-1l1.8-5.3L380.8,394.8z M277.8,328.8l-5.5,1
	l-1.8,5.3l3.6,4.2l5.5-1l1.8-5.3L277.8,328.8z M274.6,325c0.4,0.2,0.8,0.3,1.2,0.3c0.4,0,0.8-0.1,1.2-0.3H274.6z M178.8,393.8
	l-5.5,1l-1.8,5.3l3.6,4.2l5.5-1l1.8-5.3L178.8,393.8z M95.8,327.8l-0.3,0.1l-5.1,1l-1.8,5.3l3.6,4.2l5.5-1l1.8-5.3L95.8,327.8z
	 M92.8,393.8l-5.5,1l-1.8,5.3l3.6,4.2l5.5-1l1.8-5.3L92.8,393.8z M95.8,327.8l-0.3,0.1l-5.1,1l-1.8,5.3l3.6,4.2l5.5-1l1.8-5.3
	L95.8,327.8z M274.6,325c0.4,0.2,0.8,0.3,1.2,0.3c0.4,0,0.8-0.1,1.2-0.3H274.6z M277.8,328.8l-5.5,1l-1.8,5.3l3.6,4.2l5.5-1l1.8-5.3
	L277.8,328.8z M463.8,328.8l-5.5,1l-1.8,5.3l3.6,4.2l5.5-1l1.8-5.3L463.8,328.8z M92.8,393.8l-5.5,1l-1.8,5.3l3.6,4.2l5.5-1l1.8-5.3
	L92.8,393.8z M178.8,393.8l-5.5,1l-1.8,5.3l3.6,4.2l5.5-1l1.8-5.3L178.8,393.8z M197.5,348.3V381H357v-32.8L197.5,348.3L197.5,348.3
	z M380.8,394.8l-5.5,1l-1.8,5.3l3.6,4.2l5.5-1l1.8-5.3L380.8,394.8z M472.7,394l-2.8-3.3l-5.5,1l-1.8,5.3l3.6,4.2l5-0.9l0.5-0.1
	l1.8-5.3L472.7,394z M472.7,394l-2.8-3.3l-5.5,1l-1.8,5.3l3.6,4.2l5-0.9l0.5-0.1l1.8-5.3L472.7,394z M463.8,328.8l-5.5,1l-1.8,5.3
	l3.6,4.2l5.5-1l1.8-5.3L463.8,328.8z M380.8,394.8l-5.5,1l-1.8,5.3l3.6,4.2l5.5-1l1.8-5.3L380.8,394.8z M277.8,328.8l-5.5,1
	l-1.8,5.3l3.6,4.2l5.5-1l1.8-5.3L277.8,328.8z M274.6,325c0.4,0.2,0.8,0.3,1.2,0.3c0.4,0,0.8-0.1,1.2-0.3H274.6z M178.8,393.8
	l-5.5,1l-1.8,5.3l3.6,4.2l5.5-1l1.8-5.3L178.8,393.8z M95.8,327.8l-0.3,0.1l-5.1,1l-1.8,5.3l3.6,4.2l5.5-1l1.8-5.3L95.8,327.8z
	 M92.8,393.8l-5.5,1l-1.8,5.3l3.6,4.2l5.5-1l1.8-5.3L92.8,393.8z M95.8,327.8l-0.3,0.1l-5.1,1l-1.8,5.3l3.6,4.2l5.5-1l1.8-5.3
	L95.8,327.8z M274.6,325c0.4,0.2,0.8,0.3,1.2,0.3c0.4,0,0.8-0.1,1.2-0.3H274.6z M277.8,328.8l-5.5,1l-1.8,5.3l3.6,4.2l5.5-1l1.8-5.3
	L277.8,328.8z M463.8,328.8l-5.5,1l-1.8,5.3l3.6,4.2l5.5-1l1.8-5.3L463.8,328.8z M92.8,393.8l-5.5,1l-1.8,5.3l3.6,4.2l5.5-1l1.8-5.3
	L92.8,393.8z M178.8,393.8l-5.5,1l-1.8,5.3l3.6,4.2l5.5-1l1.8-5.3L178.8,393.8z M197.5,348.3V381H357v-32.8L197.5,348.3L197.5,348.3
	z M380.8,394.8l-5.5,1l-1.8,5.3l3.6,4.2l5.5-1l1.8-5.3L380.8,394.8z M463.8,328.8l-5.5,1l-1.8,5.3l3.6,4.2l5.5-1l1.8-5.3
	L463.8,328.8z M380.8,394.8l-5.5,1l-1.8,5.3l3.6,4.2l5.5-1l1.8-5.3L380.8,394.8z M277.8,328.8l-5.5,1l-1.8,5.3l3.6,4.2l5.5-1
	l1.8-5.3L277.8,328.8z M274.6,325c0.4,0.2,0.8,0.3,1.2,0.3c0.4,0,0.8-0.1,1.2-0.3H274.6z M178.8,393.8l-5.5,1l-1.8,5.3l3.6,4.2
	l5.5-1l1.8-5.3L178.8,393.8z M95.8,327.8l-0.3,0.1l-5.1,1l-1.8,5.3l3.6,4.2l5.5-1l1.8-5.3L95.8,327.8z M92.8,393.8l-5.5,1l-1.8,5.3
	l3.6,4.2l5.5-1l1.8-5.3L92.8,393.8z M95.8,327.8l-0.3,0.1l-5.1,1l-1.8,5.3l3.6,4.2l5.5-1l1.8-5.3L95.8,327.8z M274.6,325
	c0.4,0.2,0.8,0.3,1.2,0.3c0.4,0,0.8-0.1,1.2-0.3H274.6z M277.8,328.8l-5.5,1l-1.8,5.3l3.6,4.2l5.5-1l1.8-5.3L277.8,328.8z
	 M92.8,393.8l-5.5,1l-1.8,5.3l3.6,4.2l5.5-1l1.8-5.3L92.8,393.8z M178.8,393.8l-5.5,1l-1.8,5.3l3.6,4.2l5.5-1l1.8-5.3L178.8,393.8z
	 M197.5,348.3V381H357v-32.8L197.5,348.3L197.5,348.3z M277.8,328.8l-5.5,1l-1.8,5.3l3.6,4.2l5.5-1l1.8-5.3L277.8,328.8z M274.6,325
	c0.4,0.2,0.8,0.3,1.2,0.3c0.4,0,0.8-0.1,1.2-0.3H274.6z M178.8,393.8l-5.5,1l-1.8,5.3l3.6,4.2l5.5-1l1.8-5.3L178.8,393.8z
	 M95.8,327.8l-0.3,0.1l-5.1,1l-1.8,5.3l3.6,4.2l5.5-1l1.8-5.3L95.8,327.8z M92.8,393.8l-5.5,1l-1.8,5.3l3.6,4.2l5.5-1l1.8-5.3
	L92.8,393.8z M95.8,327.8l-0.3,0.1l-5.1,1l-1.8,5.3l3.6,4.2l5.5-1l1.8-5.3L95.8,327.8z M274.6,325c0.4,0.2,0.8,0.3,1.2,0.3
	c0.4,0,0.8-0.1,1.2-0.3H274.6z M277.8,328.8l-5.5,1l-1.8,5.3l3.6,4.2l5.5-1l1.8-5.3L277.8,328.8z M92.8,393.8l-5.5,1l-1.8,5.3
	l3.6,4.2l5.5-1l1.8-5.3L92.8,393.8z M178.8,393.8l-5.5,1l-1.8,5.3l3.6,4.2l5.5-1l1.8-5.3L178.8,393.8z M197.5,348.3V381H357v-32.8
	L197.5,348.3L197.5,348.3z M277.8,328.8l-5.5,1l-1.8,5.3l3.6,4.2l5.5-1l1.8-5.3L277.8,328.8z M274.6,325c0.4,0.2,0.8,0.3,1.2,0.3
	c0.4,0,0.8-0.1,1.2-0.3H274.6z M178.8,393.8l-5.5,1l-1.8,5.3l3.6,4.2l5.5-1l1.8-5.3L178.8,393.8z M95.8,327.8l-0.3,0.1l-5.1,1
	l-1.8,5.3l3.6,4.2l5.5-1l1.8-5.3L95.8,327.8z M92.8,393.8l-5.5,1l-1.8,5.3l3.6,4.2l5.5-1l1.8-5.3L92.8,393.8z M95.8,327.8l-0.3,0.1
	l-5.1,1l-1.8,5.3l3.6,4.2l5.5-1l1.8-5.3L95.8,327.8z M274.6,325c0.4,0.2,0.8,0.3,1.2,0.3c0.4,0,0.8-0.1,1.2-0.3H274.6z M277.8,328.8
	l-5.5,1l-1.8,5.3l3.6,4.2l5.5-1l1.8-5.3L277.8,328.8z M92.8,393.8l-5.5,1l-1.8,5.3l3.6,4.2l5.5-1l1.8-5.3L92.8,393.8z M178.8,393.8
	l-5.5,1l-1.8,5.3l3.6,4.2l5.5-1l1.8-5.3L178.8,393.8z M197.5,348.3V381H357v-32.8L197.5,348.3L197.5,348.3z M277.8,328.8l-5.5,1
	l-1.8,5.3l3.6,4.2l5.5-1l1.8-5.3L277.8,328.8z M274.6,325c0.4,0.2,0.8,0.3,1.2,0.3c0.4,0,0.8-0.1,1.2-0.3H274.6z M178.8,393.8
	l-5.5,1l-1.8,5.3l3.6,4.2l5.5-1l1.8-5.3L178.8,393.8z M95.8,327.8l-0.3,0.1l-5.1,1l-1.8,5.3l3.6,4.2l5.5-1l1.8-5.3L95.8,327.8z
	 M92.8,393.8l-5.5,1l-1.8,5.3l3.6,4.2l5.5-1l1.8-5.3L92.8,393.8z M95.8,327.8l-0.3,0.1l-5.1,1l-1.8,5.3l3.6,4.2l5.5-1l1.8-5.3
	L95.8,327.8z M274.6,325c0.4,0.2,0.8,0.3,1.2,0.3c0.4,0,0.8-0.1,1.2-0.3H274.6z M277.8,328.8l-5.5,1l-1.8,5.3l3.6,4.2l5.5-1l1.8-5.3
	L277.8,328.8z M92.8,393.8l-5.5,1l-1.8,5.3l3.6,4.2l5.5-1l1.8-5.3L92.8,393.8z M178.8,393.8l-5.5,1l-1.8,5.3l3.6,4.2l5.5-1l1.8-5.3
	L178.8,393.8z M277.8,328.8l-5.5,1l-1.8,5.3l3.6,4.2l5.5-1l1.8-5.3L277.8,328.8z M274.6,325c0.4,0.2,0.8,0.3,1.2,0.3
	c0.4,0,0.8-0.1,1.2-0.3H274.6z M178.8,393.8l-5.5,1l-1.8,5.3l3.6,4.2l5.5-1l1.8-5.3L178.8,393.8z M95.8,327.8l-0.3,0.1l-5.1,1
	l-1.8,5.3l3.6,4.2l5.5-1l1.8-5.3L95.8,327.8z M92.8,393.8l-5.5,1l-1.8,5.3l3.6,4.2l5.5-1l1.8-5.3L92.8,393.8z M95.8,327.8l-0.3,0.1
	l-5.1,1l-1.8,5.3l3.6,4.2l5.5-1l1.8-5.3L95.8,327.8z M274.6,325c0.4,0.2,0.8,0.3,1.2,0.3c0.4,0,0.8-0.1,1.2-0.3H274.6z M277.8,328.8
	l-5.5,1l-1.8,5.3l3.6,4.2l5.5-1l1.8-5.3L277.8,328.8z M277.8,328.8l-5.5,1l-1.8,5.3l3.6,4.2l5.5-1l1.8-5.3L277.8,328.8z M274.6,325
	c0.4,0.2,0.8,0.3,1.2,0.3c0.4,0,0.8-0.1,1.2-0.3H274.6z M95.8,327.8l-0.3,0.1l-5.1,1l-1.8,5.3l3.6,4.2l5.5-1l1.8-5.3L95.8,327.8z
	 M95.8,327.8l-0.3,0.1l-5.1,1l-1.8,5.3l3.6,4.2l5.5-1l1.8-5.3L95.8,327.8z M277.8,328.8l-5.5,1l-1.8,5.3l3.6,4.2l5.5-1l1.8-5.3
	L277.8,328.8z M277.8,328.8l-5.5,1l-1.8,5.3l3.6,4.2l5.5-1l1.8-5.3L277.8,328.8z M95.8,327.8l-0.3,0.1l-5.1,1l-1.8,5.3l3.6,4.2
	l5.5-1l1.8-5.3L95.8,327.8z M95.8,327.8l-0.3,0.1l-5.1,1l-1.8,5.3l3.6,4.2l5.5-1l1.8-5.3L95.8,327.8z M95.8,327.8l-0.3,0.1l-5.1,1
	l-1.8,5.3l3.6,4.2l5.5-1l1.8-5.3L95.8,327.8z M95.8,327.8l-0.3,0.1l-5.1,1l-1.8,5.3l3.6,4.2l5.5-1l1.8-5.3L95.8,327.8z M95.8,327.8
	l-0.3,0.1l-5.1,1l-1.8,5.3l3.6,4.2l5.5-1l1.8-5.3L95.8,327.8z M95.8,327.8l-0.3,0.1l-5.1,1l-1.8,5.3l3.6,4.2l5.5-1l1.8-5.3
	L95.8,327.8z M95.8,327.8l-0.3,0.1l-5.1,1l-1.8,5.3l3.6,4.2l5.5-1l1.8-5.3L95.8,327.8z"/>
<path style="fill:none;stroke:#000000;stroke-miterlimit:10;" d="M95.8,327.8l-0.3,0.1l-5.1,1l-1.8,5.3l3.6,4.2l5.5-1l1.8-5.3
	L95.8,327.8z M95.8,327.8l-0.3,0.1l-5.1,1l-1.8,5.3l3.6,4.2l5.5-1l1.8-5.3L95.8,327.8z M95.8,327.8l-0.3,0.1l-5.1,1l-1.8,5.3
	l3.6,4.2l5.5-1l1.8-5.3L95.8,327.8z M95.8,327.8l-0.3,0.1l-5.1,1l-1.8,5.3l3.6,4.2l5.5-1l1.8-5.3L95.8,327.8z M95.8,327.8l-0.3,0.1
	l-5.1,1l-1.8,5.3l3.6,4.2l5.5-1l1.8-5.3L95.8,327.8z M95.8,327.8l-0.3,0.1l-5.1,1l-1.8,5.3l3.6,4.2l5.5-1l1.8-5.3L95.8,327.8z
	 M95.8,327.8l-0.3,0.1l-5.1,1l-1.8,5.3l3.6,4.2l5.5-1l1.8-5.3L95.8,327.8z M277.8,328.8l-5.5,1l-1.8,5.3l3.6,4.2l5.5-1l1.8-5.3
	L277.8,328.8z M277.8,328.8l-5.5,1l-1.8,5.3l3.6,4.2l5.5-1l1.8-5.3L277.8,328.8z M95.8,327.8l-0.3,0.1l-5.1,1l-1.8,5.3l3.6,4.2
	l5.5-1l1.8-5.3L95.8,327.8z M95.8,327.8l-0.3,0.1l-5.1,1l-1.8,5.3l3.6,4.2l5.5-1l1.8-5.3L95.8,327.8z M277.8,328.8l-5.5,1l-1.8,5.3
	l3.6,4.2l5.5-1l1.8-5.3L277.8,328.8z M277.8,328.8l-5.5,1l-1.8,5.3l3.6,4.2l5.5-1l1.8-5.3L277.8,328.8z M95.8,327.8l-0.3,0.1l-5.1,1
	l-1.8,5.3l3.6,4.2l5.5-1l1.8-5.3L95.8,327.8z M92.8,393.8l-5.5,1l-1.8,5.3l3.6,4.2l5.5-1l1.8-5.3L92.8,393.8z M95.8,327.8l-0.3,0.1
	l-5.1,1l-1.8,5.3l3.6,4.2l5.5-1l1.8-5.3L95.8,327.8z M274.6,325c0.4,0.2,0.8,0.3,1.2,0.3c0.4,0,0.8-0.1,1.2-0.3H274.6z M277.8,328.8
	l-5.5,1l-1.8,5.3l3.6,4.2l5.5-1l1.8-5.3L277.8,328.8z M277.8,328.8l-5.5,1l-1.8,5.3l3.6,4.2l5.5-1l1.8-5.3L277.8,328.8z M274.6,325
	c0.4,0.2,0.8,0.3,1.2,0.3c0.4,0,0.8-0.1,1.2-0.3H274.6z M95.8,327.8l-0.3,0.1l-5.1,1l-1.8,5.3l3.6,4.2l5.5-1l1.8-5.3L95.8,327.8z
	 M92.8,393.8l-5.5,1l-1.8,5.3l3.6,4.2l5.5-1l1.8-5.3L92.8,393.8z M95.8,327.8l-0.3,0.1l-5.1,1l-1.8,5.3l3.6,4.2l5.5-1l1.8-5.3
	L95.8,327.8z M178.8,393.8l-5.5,1l-1.8,5.3l3.6,4.2l5.5-1l1.8-5.3L178.8,393.8z M274.6,325c0.4,0.2,0.8,0.3,1.2,0.3
	c0.4,0,0.8-0.1,1.2-0.3H274.6z M277.8,328.8l-5.5,1l-1.8,5.3l3.6,4.2l5.5-1l1.8-5.3L277.8,328.8z M277.8,328.8l-5.5,1l-1.8,5.3
	l3.6,4.2l5.5-1l1.8-5.3L277.8,328.8z M274.6,325c0.4,0.2,0.8,0.3,1.2,0.3c0.4,0,0.8-0.1,1.2-0.3H274.6z M95.8,327.8l-0.3,0.1l-5.1,1
	l-1.8,5.3l3.6,4.2l5.5-1l1.8-5.3L95.8,327.8z M92.8,393.8l-5.5,1l-1.8,5.3l3.6,4.2l5.5-1l1.8-5.3L92.8,393.8z M95.8,327.8l-0.3,0.1
	l-5.1,1l-1.8,5.3l3.6,4.2l5.5-1l1.8-5.3L95.8,327.8z M178.8,393.8l-5.5,1l-1.8,5.3l3.6,4.2l5.5-1l1.8-5.3L178.8,393.8z M274.6,325
	c0.4,0.2,0.8,0.3,1.2,0.3c0.4,0,0.8-0.1,1.2-0.3H274.6z M277.8,328.8l-5.5,1l-1.8,5.3l3.6,4.2l5.5-1l1.8-5.3L277.8,328.8z
	 M277.8,328.8l-5.5,1l-1.8,5.3l3.6,4.2l5.5-1l1.8-5.3L277.8,328.8z M274.6,325c0.4,0.2,0.8,0.3,1.2,0.3c0.4,0,0.8-0.1,1.2-0.3H274.6
	z M95.8,327.8l-0.3,0.1l-5.1,1l-1.8,5.3l3.6,4.2l5.5-1l1.8-5.3L95.8,327.8z M92.8,393.8l-5.5,1l-1.8,5.3l3.6,4.2l5.5-1l1.8-5.3
	L92.8,393.8z M95.8,327.8l-0.3,0.1l-5.1,1l-1.8,5.3l3.6,4.2l5.5-1l1.8-5.3L95.8,327.8z M178.8,393.8l-5.5,1l-1.8,5.3l3.6,4.2l5.5-1
	l1.8-5.3L178.8,393.8z M274.6,325c0.4,0.2,0.8,0.3,1.2,0.3c0.4,0,0.8-0.1,1.2-0.3H274.6z M277.8,328.8l-5.5,1l-1.8,5.3l3.6,4.2
	l5.5-1l1.8-5.3L277.8,328.8z M277.8,328.8l-5.5,1l-1.8,5.3l3.6,4.2l5.5-1l1.8-5.3L277.8,328.8z M274.6,325c0.4,0.2,0.8,0.3,1.2,0.3
	c0.4,0,0.8-0.1,1.2-0.3H274.6z M95.8,327.8l-0.3,0.1l-5.1,1l-1.8,5.3l3.6,4.2l5.5-1l1.8-5.3L95.8,327.8z M92.8,393.8l-5.5,1
	l-1.8,5.3l3.6,4.2l5.5-1l1.8-5.3L92.8,393.8z M95.8,327.8l-0.3,0.1l-5.1,1l-1.8,5.3l3.6,4.2l5.5-1l1.8-5.3L95.8,327.8z M178.8,393.8
	l-5.5,1l-1.8,5.3l3.6,4.2l5.5-1l1.8-5.3L178.8,393.8z M274.6,325c0.4,0.2,0.8,0.3,1.2,0.3c0.4,0,0.8-0.1,1.2-0.3H274.6z
	 M277.8,328.8l-5.5,1l-1.8,5.3l3.6,4.2l5.5-1l1.8-5.3L277.8,328.8z M380.8,394.8l-5.5,1l-1.8,5.3l3.6,4.2l5.5-1l1.8-5.3L380.8,394.8
	z M277.8,328.8l-5.5,1l-1.8,5.3l3.6,4.2l5.5-1l1.8-5.3L277.8,328.8z M274.6,325c0.4,0.2,0.8,0.3,1.2,0.3c0.4,0,0.8-0.1,1.2-0.3
	H274.6z M95.8,327.8l-0.3,0.1l-5.1,1l-1.8,5.3l3.6,4.2l5.5-1l1.8-5.3L95.8,327.8z M92.8,393.8l-5.5,1l-1.8,5.3l3.6,4.2l5.5-1
	l1.8-5.3L92.8,393.8z M95.8,327.8l-0.3,0.1l-5.1,1l-1.8,5.3l3.6,4.2l5.5-1l1.8-5.3L95.8,327.8z M178.8,393.8l-5.5,1l-1.8,5.3
	l3.6,4.2l5.5-1l1.8-5.3L178.8,393.8z M274.6,325c0.4,0.2,0.8,0.3,1.2,0.3c0.4,0,0.8-0.1,1.2-0.3H274.6z M277.8,328.8l-5.5,1
	l-1.8,5.3l3.6,4.2l5.5-1l1.8-5.3L277.8,328.8z M380.8,394.8l-5.5,1l-1.8,5.3l3.6,4.2l5.5-1l1.8-5.3L380.8,394.8z M463.8,328.8
	l-5.5,1l-1.8,5.3l3.6,4.2l5.5-1l1.8-5.3L463.8,328.8z M463.8,328.8l-5.5,1l-1.8,5.3l3.6,4.2l5.5-1l1.8-5.3L463.8,328.8z
	 M277.8,328.8l-5.5,1l-1.8,5.3l3.6,4.2l5.5-1l1.8-5.3L277.8,328.8z M274.6,325c0.4,0.2,0.8,0.3,1.2,0.3c0.4,0,0.8-0.1,1.2-0.3H274.6
	z M95.8,327.8l-0.3,0.1l-5.1,1l-1.8,5.3l3.6,4.2l5.5-1l1.8-5.3L95.8,327.8z M92.8,393.8l-5.5,1l-1.8,5.3l3.6,4.2l5.5-1l1.8-5.3
	L92.8,393.8z M95.8,327.8l-0.3,0.1l-5.1,1l-1.8,5.3l3.6,4.2l5.5-1l1.8-5.3L95.8,327.8z M178.8,393.8l-5.5,1l-1.8,5.3l3.6,4.2l5.5-1
	l1.8-5.3L178.8,393.8z M274.6,325c0.4,0.2,0.8,0.3,1.2,0.3c0.4,0,0.8-0.1,1.2-0.3H274.6z M277.8,328.8l-5.5,1l-1.8,5.3l3.6,4.2
	l5.5-1l1.8-5.3L277.8,328.8z M380.8,394.8l-5.5,1l-1.8,5.3l3.6,4.2l5.5-1l1.8-5.3L380.8,394.8z M463.8,328.8l-5.5,1l-1.8,5.3
	l3.6,4.2l5.5-1l1.8-5.3L463.8,328.8z M472.7,394l-2.8-3.3l-5.5,1l-1.8,5.3l3.6,4.2l5-0.9l0.5-0.1l1.8-5.3L472.7,394z M463.8,328.8
	l-5.5,1l-1.8,5.3l3.6,4.2l5.5-1l1.8-5.3L463.8,328.8z M277.8,328.8l-5.5,1l-1.8,5.3l3.6,4.2l5.5-1l1.8-5.3L277.8,328.8z M274.6,325
	c0.4,0.2,0.8,0.3,1.2,0.3c0.4,0,0.8-0.1,1.2-0.3H274.6z M95.8,327.8l-0.3,0.1l-5.1,1l-1.8,5.3l3.6,4.2l5.5-1l1.8-5.3L95.8,327.8z
	 M92.8,393.8l-5.5,1l-1.8,5.3l3.6,4.2l5.5-1l1.8-5.3L92.8,393.8z M95.8,327.8l-0.3,0.1l-5.1,1l-1.8,5.3l3.6,4.2l5.5-1l1.8-5.3
	L95.8,327.8z M178.8,393.8l-5.5,1l-1.8,5.3l3.6,4.2l5.5-1l1.8-5.3L178.8,393.8z M274.6,325c0.4,0.2,0.8,0.3,1.2,0.3
	c0.4,0,0.8-0.1,1.2-0.3H274.6z M277.8,328.8l-5.5,1l-1.8,5.3l3.6,4.2l5.5-1l1.8-5.3L277.8,328.8z M380.8,394.8l-5.5,1l-1.8,5.3
	l3.6,4.2l5.5-1l1.8-5.3L380.8,394.8z M463.8,328.8l-5.5,1l-1.8,5.3l3.6,4.2l5.5-1l1.8-5.3L463.8,328.8z M472.7,394l-2.8-3.3l-5.5,1
	l-1.8,5.3l3.6,4.2l5-0.9l0.5-0.1l1.8-5.3L472.7,394z M571.8,328.8l-5.5,1l-1.8,5.3l3.6,4.2l5.5-1l1.8-5.3L571.8,328.8z M571.8,328.8
	l-5.5,1l-1.8,5.3l3.6,4.2l5.5-1l1.8-5.3L571.8,328.8z M458.4,329.8l-1.8,5.3l3.6,4.2l5.5-1l1.8-5.3l-3.6-4.2L458.4,329.8z
	 M197.5,348.3V381H357v-32.8L197.5,348.3L197.5,348.3z M279.6,338.2l1.8-5.3l-3.6-4.2l-5.5,1l-1.8,5.3l3.6,4.2L279.6,338.2z
	 M277,325h-2.4c0.4,0.2,0.8,0.3,1.2,0.3C276.2,325.3,276.6,325.2,277,325z M95.5,327.8l-5.1,1l-1.8,5.3l3.6,4.2l5.5-1l1.8-5.3
	l-3.6-4.2H95.5z M617,279.8V269v-15.7v-1.2c-0.4,0,0.4,0.1,0,0.1c-190.6,13-397.9-126.6-590.2-12.9v46.4V325v56h578.3v30.3H26.9
	v20.4l0,0h392.8h132H587h30l0,0V279.8z M604.5,348.3H26.9V318h577.6V348.3z M576.5,394l-3.6-4.2l-5.5,1l-1.8,5.3l3.6,4.2l5.5-1
	L576.5,394z M566.4,329.8l-1.8,5.3l3.6,4.2l5.5-1l1.8-5.3l-3.6-4.2L566.4,329.8z M471.6,400.2l1.8-5.3l-0.8-0.9l-2.8-3.3l-5.5,1
	l-1.8,5.3l3.6,4.2l5-0.9L471.6,400.2z M458.4,329.8l-1.8,5.3l3.6,4.2l5.5-1l1.8-5.3l-3.6-4.2L458.4,329.8z M384.5,399l-3.6-4.2
	l-5.5,1l-1.8,5.3l3.6,4.2l5.5-1L384.5,399z M272.4,329.8l-1.8,5.3l3.6,4.2l5.5-1l1.8-5.3l-3.6-4.2L272.4,329.8z M277,325h-2.4
	c0.4,0.2,0.8,0.3,1.2,0.3C276.2,325.3,276.6,325.2,277,325z M182.5,398l-3.6-4.2l-5.5,1l-1.8,5.3l3.6,4.2l5.5-1L182.5,398z
	 M95.5,327.8l-5.1,1l-1.8,5.3l3.6,4.2l5.5-1l1.8-5.3l-3.6-4.2H95.5z M96.5,398l-3.6-4.2l-5.5,1l-1.8,5.3l3.6,4.2l5.5-1L96.5,398z
	 M95.8,327.8l-0.3,0.1l-5.1,1l-1.8,5.3l3.6,4.2l5.5-1l1.8-5.3L95.8,327.8z M274.6,325c0.4,0.2,0.8,0.3,1.2,0.3
	c0.4,0,0.8-0.1,1.2-0.3H274.6z M277.8,328.8l-5.5,1l-1.8,5.3l3.6,4.2l5.5-1l1.8-5.3L277.8,328.8z M463.8,328.8l-5.5,1l-1.8,5.3
	l3.6,4.2l5.5-1l1.8-5.3L463.8,328.8z M472.7,394l-2.8-3.3l-5.5,1l-1.8,5.3l3.6,4.2l5-0.9l0.5-0.1l1.8-5.3L472.7,394z M463.8,328.8
	l-5.5,1l-1.8,5.3l3.6,4.2l5.5-1l1.8-5.3L463.8,328.8z M380.8,394.8l-5.5,1l-1.8,5.3l3.6,4.2l5.5-1l1.8-5.3L380.8,394.8z
	 M277.8,328.8l-5.5,1l-1.8,5.3l3.6,4.2l5.5-1l1.8-5.3L277.8,328.8z M274.6,325c0.4,0.2,0.8,0.3,1.2,0.3c0.4,0,0.8-0.1,1.2-0.3H274.6
	z M178.8,393.8l-5.5,1l-1.8,5.3l3.6,4.2l5.5-1l1.8-5.3L178.8,393.8z M95.8,327.8l-0.3,0.1l-5.1,1l-1.8,5.3l3.6,4.2l5.5-1l1.8-5.3
	L95.8,327.8z M92.8,393.8l-5.5,1l-1.8,5.3l3.6,4.2l5.5-1l1.8-5.3L92.8,393.8z M95.8,327.8l-0.3,0.1l-5.1,1l-1.8,5.3l3.6,4.2l5.5-1
	l1.8-5.3L95.8,327.8z M274.6,325c0.4,0.2,0.8,0.3,1.2,0.3c0.4,0,0.8-0.1,1.2-0.3H274.6z M277.8,328.8l-5.5,1l-1.8,5.3l3.6,4.2l5.5-1
	l1.8-5.3L277.8,328.8z M463.8,328.8l-5.5,1l-1.8,5.3l3.6,4.2l5.5-1l1.8-5.3L463.8,328.8z M472.7,394l-2.8-3.3l-5.5,1l-1.8,5.3
	l3.6,4.2l5-0.9l0.5-0.1l1.8-5.3L472.7,394z M463.8,328.8l-5.5,1l-1.8,5.3l3.6,4.2l5.5-1l1.8-5.3L463.8,328.8z M380.8,394.8l-5.5,1
	l-1.8,5.3l3.6,4.2l5.5-1l1.8-5.3L380.8,394.8z M277.8,328.8l-5.5,1l-1.8,5.3l3.6,4.2l5.5-1l1.8-5.3L277.8,328.8z M274.6,325
	c0.4,0.2,0.8,0.3,1.2,0.3c0.4,0,0.8-0.1,1.2-0.3H274.6z M178.8,393.8l-5.5,1l-1.8,5.3l3.6,4.2l5.5-1l1.8-5.3L178.8,393.8z
	 M95.8,327.8l-0.3,0.1l-5.1,1l-1.8,5.3l3.6,4.2l5.5-1l1.8-5.3L95.8,327.8z M92.8,393.8l-5.5,1l-1.8,5.3l3.6,4.2l5.5-1l1.8-5.3
	L92.8,393.8z M95.8,327.8l-0.3,0.1l-5.1,1l-1.8,5.3l3.6,4.2l5.5-1l1.8-5.3L95.8,327.8z M274.6,325c0.4,0.2,0.8,0.3,1.2,0.3
	c0.4,0,0.8-0.1,1.2-0.3H274.6z M277.8,328.8l-5.5,1l-1.8,5.3l3.6,4.2l5.5-1l1.8-5.3L277.8,328.8z M463.8,328.8l-5.5,1l-1.8,5.3
	l3.6,4.2l5.5-1l1.8-5.3L463.8,328.8z M463.8,328.8l-5.5,1l-1.8,5.3l3.6,4.2l5.5-1l1.8-5.3L463.8,328.8z M380.8,394.8l-5.5,1
	l-1.8,5.3l3.6,4.2l5.5-1l1.8-5.3L380.8,394.8z M277.8,328.8l-5.5,1l-1.8,5.3l3.6,4.2l5.5-1l1.8-5.3L277.8,328.8z M274.6,325
	c0.4,0.2,0.8,0.3,1.2,0.3c0.4,0,0.8-0.1,1.2-0.3H274.6z M178.8,393.8l-5.5,1l-1.8,5.3l3.6,4.2l5.5-1l1.8-5.3L178.8,393.8z
	 M95.8,327.8l-0.3,0.1l-5.1,1l-1.8,5.3l3.6,4.2l5.5-1l1.8-5.3L95.8,327.8z M92.8,393.8l-5.5,1l-1.8,5.3l3.6,4.2l5.5-1l1.8-5.3
	L92.8,393.8z M95.8,327.8l-0.3,0.1l-5.1,1l-1.8,5.3l3.6,4.2l5.5-1l1.8-5.3L95.8,327.8z M274.6,325c0.4,0.2,0.8,0.3,1.2,0.3
	c0.4,0,0.8-0.1,1.2-0.3H274.6z M277.8,328.8l-5.5,1l-1.8,5.3l3.6,4.2l5.5-1l1.8-5.3L277.8,328.8z M277.8,328.8l-5.5,1l-1.8,5.3
	l3.6,4.2l5.5-1l1.8-5.3L277.8,328.8z M274.6,325c0.4,0.2,0.8,0.3,1.2,0.3c0.4,0,0.8-0.1,1.2-0.3H274.6z M178.8,393.8l-5.5,1
	l-1.8,5.3l3.6,4.2l5.5-1l1.8-5.3L178.8,393.8z M95.8,327.8l-0.3,0.1l-5.1,1l-1.8,5.3l3.6,4.2l5.5-1l1.8-5.3L95.8,327.8z M92.8,393.8
	l-5.5,1l-1.8,5.3l3.6,4.2l5.5-1l1.8-5.3L92.8,393.8z M95.8,327.8l-0.3,0.1l-5.1,1l-1.8,5.3l3.6,4.2l5.5-1l1.8-5.3L95.8,327.8z
	 M274.6,325c0.4,0.2,0.8,0.3,1.2,0.3c0.4,0,0.8-0.1,1.2-0.3H274.6z M277.8,328.8l-5.5,1l-1.8,5.3l3.6,4.2l5.5-1l1.8-5.3L277.8,328.8
	z M277.8,328.8l-5.5,1l-1.8,5.3l3.6,4.2l5.5-1l1.8-5.3L277.8,328.8z M274.6,325c0.4,0.2,0.8,0.3,1.2,0.3c0.4,0,0.8-0.1,1.2-0.3
	H274.6z M178.8,393.8l-5.5,1l-1.8,5.3l3.6,4.2l5.5-1l1.8-5.3L178.8,393.8z M95.8,327.8l-0.3,0.1l-5.1,1l-1.8,5.3l3.6,4.2l5.5-1
	l1.8-5.3L95.8,327.8z M92.8,393.8l-5.5,1l-1.8,5.3l3.6,4.2l5.5-1l1.8-5.3L92.8,393.8z M95.8,327.8l-0.3,0.1l-5.1,1l-1.8,5.3l3.6,4.2
	l5.5-1l1.8-5.3L95.8,327.8z M274.6,325c0.4,0.2,0.8,0.3,1.2,0.3c0.4,0,0.8-0.1,1.2-0.3H274.6z M277.8,328.8l-5.5,1l-1.8,5.3l3.6,4.2
	l5.5-1l1.8-5.3L277.8,328.8z M277.8,328.8l-5.5,1l-1.8,5.3l3.6,4.2l5.5-1l1.8-5.3L277.8,328.8z M274.6,325c0.4,0.2,0.8,0.3,1.2,0.3
	c0.4,0,0.8-0.1,1.2-0.3H274.6z M178.8,393.8l-5.5,1l-1.8,5.3l3.6,4.2l5.5-1l1.8-5.3L178.8,393.8z M95.8,327.8l-0.3,0.1l-5.1,1
	l-1.8,5.3l3.6,4.2l5.5-1l1.8-5.3L95.8,327.8z M92.8,393.8l-5.5,1l-1.8,5.3l3.6,4.2l5.5-1l1.8-5.3L92.8,393.8z M95.8,327.8l-0.3,0.1
	l-5.1,1l-1.8,5.3l3.6,4.2l5.5-1l1.8-5.3L95.8,327.8z M274.6,325c0.4,0.2,0.8,0.3,1.2,0.3c0.4,0,0.8-0.1,1.2-0.3H274.6z M277.8,328.8
	l-5.5,1l-1.8,5.3l3.6,4.2l5.5-1l1.8-5.3L277.8,328.8z M277.8,328.8l-5.5,1l-1.8,5.3l3.6,4.2l5.5-1l1.8-5.3L277.8,328.8z M274.6,325
	c0.4,0.2,0.8,0.3,1.2,0.3c0.4,0,0.8-0.1,1.2-0.3H274.6z M178.8,393.8l-5.5,1l-1.8,5.3l3.6,4.2l5.5-1l1.8-5.3L178.8,393.8z
	 M95.8,327.8l-0.3,0.1l-5.1,1l-1.8,5.3l3.6,4.2l5.5-1l1.8-5.3L95.8,327.8z M92.8,393.8l-5.5,1l-1.8,5.3l3.6,4.2l5.5-1l1.8-5.3
	L92.8,393.8z M95.8,327.8l-0.3,0.1l-5.1,1l-1.8,5.3l3.6,4.2l5.5-1l1.8-5.3L95.8,327.8z M274.6,325c0.4,0.2,0.8,0.3,1.2,0.3
	c0.4,0,0.8-0.1,1.2-0.3H274.6z M277.8,328.8l-5.5,1l-1.8,5.3l3.6,4.2l5.5-1l1.8-5.3L277.8,328.8z M277.8,328.8l-5.5,1l-1.8,5.3
	l3.6,4.2l5.5-1l1.8-5.3L277.8,328.8z M274.6,325c0.4,0.2,0.8,0.3,1.2,0.3c0.4,0,0.8-0.1,1.2-0.3H274.6z M95.8,327.8l-0.3,0.1l-5.1,1
	l-1.8,5.3l3.6,4.2l5.5-1l1.8-5.3L95.8,327.8z M95.8,327.8l-0.3,0.1l-5.1,1l-1.8,5.3l3.6,4.2l5.5-1l1.8-5.3L95.8,327.8z M277.8,328.8
	l-5.5,1l-1.8,5.3l3.6,4.2l5.5-1l1.8-5.3L277.8,328.8z M277.8,328.8l-5.5,1l-1.8,5.3l3.6,4.2l5.5-1l1.8-5.3L277.8,328.8z M95.8,327.8
	l-0.3,0.1l-5.1,1l-1.8,5.3l3.6,4.2l5.5-1l1.8-5.3L95.8,327.8z M95.8,327.8l-0.3,0.1l-5.1,1l-1.8,5.3l3.6,4.2l5.5-1l1.8-5.3
	L95.8,327.8z M95.8,327.8l-0.3,0.1l-5.1,1l-1.8,5.3l3.6,4.2l5.5-1l1.8-5.3L95.8,327.8z M95.8,327.8l-0.3,0.1l-5.1,1l-1.8,5.3
	l3.6,4.2l5.5-1l1.8-5.3L95.8,327.8z M95.8,327.8l-0.3,0.1l-5.1,1l-1.8,5.3l3.6,4.2l5.5-1l1.8-5.3L95.8,327.8z M95.8,327.8l-0.3,0.1
	l-5.1,1l-1.8,5.3l3.6,4.2l5.5-1l1.8-5.3L95.8,327.8z M95.8,327.8l-0.3,0.1l-5.1,1l-1.8,5.3l3.6,4.2l5.5-1l1.8-5.3L95.8,327.8z"/>
<path style="fill:none;stroke:#000000;stroke-miterlimit:10;" d="M95.8,327.8l-0.3,0.1l-5.1,1l-1.8,5.3l3.6,4.2l5.5-1l1.8-5.3
	L95.8,327.8z M95.8,327.8l-0.3,0.1l-5.1,1l-1.8,5.3l3.6,4.2l5.5-1l1.8-5.3L95.8,327.8z M95.8,327.8l-0.3,0.1l-5.1,1l-1.8,5.3
	l3.6,4.2l5.5-1l1.8-5.3L95.8,327.8z M95.8,327.8l-0.3,0.1l-5.1,1l-1.8,5.3l3.6,4.2l5.5-1l1.8-5.3L95.8,327.8z M95.8,327.8l-0.3,0.1
	l-5.1,1l-1.8,5.3l3.6,4.2l5.5-1l1.8-5.3L95.8,327.8z M95.8,327.8l-0.3,0.1l-5.1,1l-1.8,5.3l3.6,4.2l5.5-1l1.8-5.3L95.8,327.8z
	 M95.8,327.8l-0.3,0.1l-5.1,1l-1.8,5.3l3.6,4.2l5.5-1l1.8-5.3L95.8,327.8z M277.8,328.8l-5.5,1l-1.8,5.3l3.6,4.2l5.5-1l1.8-5.3
	L277.8,328.8z M277.8,328.8l-5.5,1l-1.8,5.3l3.6,4.2l5.5-1l1.8-5.3L277.8,328.8z M95.8,327.8l-0.3,0.1l-5.1,1l-1.8,5.3l3.6,4.2
	l5.5-1l1.8-5.3L95.8,327.8z M95.8,327.8l-0.3,0.1l-5.1,1l-1.8,5.3l3.6,4.2l5.5-1l1.8-5.3L95.8,327.8z M277.8,328.8l-5.5,1l-1.8,5.3
	l3.6,4.2l5.5-1l1.8-5.3L277.8,328.8z M277.8,328.8l-5.5,1l-1.8,5.3l3.6,4.2l5.5-1l1.8-5.3L277.8,328.8z M95.8,327.8l-0.3,0.1l-5.1,1
	l-1.8,5.3l3.6,4.2l5.5-1l1.8-5.3L95.8,327.8z M92.8,393.8l-5.5,1l-1.8,5.3l3.6,4.2l5.5-1l1.8-5.3L92.8,393.8z M95.8,327.8l-0.3,0.1
	l-5.1,1l-1.8,5.3l3.6,4.2l5.5-1l1.8-5.3L95.8,327.8z M274.6,325c0.4,0.2,0.8,0.3,1.2,0.3c0.4,0,0.8-0.1,1.2-0.3H274.6z M277.8,328.8
	l-5.5,1l-1.8,5.3l3.6,4.2l5.5-1l1.8-5.3L277.8,328.8z M92.8,393.8l-5.5,1l-1.8,5.3l3.6,4.2l5.5-1l1.8-5.3L92.8,393.8z M277.8,328.8
	l-5.5,1l-1.8,5.3l3.6,4.2l5.5-1l1.8-5.3L277.8,328.8z M274.6,325c0.4,0.2,0.8,0.3,1.2,0.3c0.4,0,0.8-0.1,1.2-0.3H274.6z M95.8,327.8
	l-0.3,0.1l-5.1,1l-1.8,5.3l3.6,4.2l5.5-1l1.8-5.3L95.8,327.8z M92.8,393.8l-5.5,1l-1.8,5.3l3.6,4.2l5.5-1l1.8-5.3L92.8,393.8z
	 M95.8,327.8l-0.3,0.1l-5.1,1l-1.8,5.3l3.6,4.2l5.5-1l1.8-5.3L95.8,327.8z M178.8,393.8l-5.5,1l-1.8,5.3l3.6,4.2l5.5-1l1.8-5.3
	L178.8,393.8z M274.6,325c0.4,0.2,0.8,0.3,1.2,0.3c0.4,0,0.8-0.1,1.2-0.3H274.6z M277.8,328.8l-5.5,1l-1.8,5.3l3.6,4.2l5.5-1
	l1.8-5.3L277.8,328.8z M197.5,348.3V381H357v-32.8L197.5,348.3L197.5,348.3z M178.8,393.8l-5.5,1l-1.8,5.3l3.6,4.2l5.5-1l1.8-5.3
	L178.8,393.8z M92.8,393.8l-5.5,1l-1.8,5.3l3.6,4.2l5.5-1l1.8-5.3L92.8,393.8z M277.8,328.8l-5.5,1l-1.8,5.3l3.6,4.2l5.5-1l1.8-5.3
	L277.8,328.8z M274.6,325c0.4,0.2,0.8,0.3,1.2,0.3c0.4,0,0.8-0.1,1.2-0.3H274.6z M95.8,327.8l-0.3,0.1l-5.1,1l-1.8,5.3l3.6,4.2
	l5.5-1l1.8-5.3L95.8,327.8z M92.8,393.8l-5.5,1l-1.8,5.3l3.6,4.2l5.5-1l1.8-5.3L92.8,393.8z M95.8,327.8l-0.3,0.1l-5.1,1l-1.8,5.3
	l3.6,4.2l5.5-1l1.8-5.3L95.8,327.8z M178.8,393.8l-5.5,1l-1.8,5.3l3.6,4.2l5.5-1l1.8-5.3L178.8,393.8z M274.6,325
	c0.4,0.2,0.8,0.3,1.2,0.3c0.4,0,0.8-0.1,1.2-0.3H274.6z M277.8,328.8l-5.5,1l-1.8,5.3l3.6,4.2l5.5-1l1.8-5.3L277.8,328.8z
	 M197.5,348.3V381H357v-32.8L197.5,348.3L197.5,348.3z M178.8,393.8l-5.5,1l-1.8,5.3l3.6,4.2l5.5-1l1.8-5.3L178.8,393.8z
	 M92.8,393.8l-5.5,1l-1.8,5.3l3.6,4.2l5.5-1l1.8-5.3L92.8,393.8z M277.8,328.8l-5.5,1l-1.8,5.3l3.6,4.2l5.5-1l1.8-5.3L277.8,328.8z
	 M274.6,325c0.4,0.2,0.8,0.3,1.2,0.3c0.4,0,0.8-0.1,1.2-0.3H274.6z M95.8,327.8l-0.3,0.1l-5.1,1l-1.8,5.3l3.6,4.2l5.5-1l1.8-5.3
	L95.8,327.8z M92.8,393.8l-5.5,1l-1.8,5.3l3.6,4.2l5.5-1l1.8-5.3L92.8,393.8z M95.8,327.8l-0.3,0.1l-5.1,1l-1.8,5.3l3.6,4.2l5.5-1
	l1.8-5.3L95.8,327.8z M178.8,393.8l-5.5,1l-1.8,5.3l3.6,4.2l5.5-1l1.8-5.3L178.8,393.8z M274.6,325c0.4,0.2,0.8,0.3,1.2,0.3
	c0.4,0,0.8-0.1,1.2-0.3H274.6z M277.8,328.8l-5.5,1l-1.8,5.3l3.6,4.2l5.5-1l1.8-5.3L277.8,328.8z M197.5,348.3V381H357v-32.8
	L197.5,348.3L197.5,348.3z M178.8,393.8l-5.5,1l-1.8,5.3l3.6,4.2l5.5-1l1.8-5.3L178.8,393.8z M92.8,393.8l-5.5,1l-1.8,5.3l3.6,4.2
	l5.5-1l1.8-5.3L92.8,393.8z M277.8,328.8l-5.5,1l-1.8,5.3l3.6,4.2l5.5-1l1.8-5.3L277.8,328.8z M274.6,325c0.4,0.2,0.8,0.3,1.2,0.3
	c0.4,0,0.8-0.1,1.2-0.3H274.6z M95.8,327.8l-0.3,0.1l-5.1,1l-1.8,5.3l3.6,4.2l5.5-1l1.8-5.3L95.8,327.8z M92.8,393.8l-5.5,1
	l-1.8,5.3l3.6,4.2l5.5-1l1.8-5.3L92.8,393.8z M95.8,327.8l-0.3,0.1l-5.1,1l-1.8,5.3l3.6,4.2l5.5-1l1.8-5.3L95.8,327.8z M178.8,393.8
	l-5.5,1l-1.8,5.3l3.6,4.2l5.5-1l1.8-5.3L178.8,393.8z M274.6,325c0.4,0.2,0.8,0.3,1.2,0.3c0.4,0,0.8-0.1,1.2-0.3H274.6z
	 M277.8,328.8l-5.5,1l-1.8,5.3l3.6,4.2l5.5-1l1.8-5.3L277.8,328.8z M380.8,394.8l-5.5,1l-1.8,5.3l3.6,4.2l5.5-1l1.8-5.3L380.8,394.8
	z M380.8,394.8l-5.5,1l-1.8,5.3l3.6,4.2l5.5-1l1.8-5.3L380.8,394.8z M197.5,348.3V381H357v-32.8L197.5,348.3L197.5,348.3z
	 M178.8,393.8l-5.5,1l-1.8,5.3l3.6,4.2l5.5-1l1.8-5.3L178.8,393.8z M92.8,393.8l-5.5,1l-1.8,5.3l3.6,4.2l5.5-1l1.8-5.3L92.8,393.8z
	 M277.8,328.8l-5.5,1l-1.8,5.3l3.6,4.2l5.5-1l1.8-5.3L277.8,328.8z M274.6,325c0.4,0.2,0.8,0.3,1.2,0.3c0.4,0,0.8-0.1,1.2-0.3H274.6
	z M95.8,327.8l-0.3,0.1l-5.1,1l-1.8,5.3l3.6,4.2l5.5-1l1.8-5.3L95.8,327.8z M92.8,393.8l-5.5,1l-1.8,5.3l3.6,4.2l5.5-1l1.8-5.3
	L92.8,393.8z M95.8,327.8l-0.3,0.1l-5.1,1l-1.8,5.3l3.6,4.2l5.5-1l1.8-5.3L95.8,327.8z M178.8,393.8l-5.5,1l-1.8,5.3l3.6,4.2l5.5-1
	l1.8-5.3L178.8,393.8z M274.6,325c0.4,0.2,0.8,0.3,1.2,0.3c0.4,0,0.8-0.1,1.2-0.3H274.6z M277.8,328.8l-5.5,1l-1.8,5.3l3.6,4.2
	l5.5-1l1.8-5.3L277.8,328.8z M380.8,394.8l-5.5,1l-1.8,5.3l3.6,4.2l5.5-1l1.8-5.3L380.8,394.8z M463.8,328.8l-5.5,1l-1.8,5.3
	l3.6,4.2l5.5-1l1.8-5.3L463.8,328.8z M380.8,394.8l-5.5,1l-1.8,5.3l3.6,4.2l5.5-1l1.8-5.3L380.8,394.8z M197.5,348.3V381H357v-32.8
	L197.5,348.3L197.5,348.3z M178.8,393.8l-5.5,1l-1.8,5.3l3.6,4.2l5.5-1l1.8-5.3L178.8,393.8z M92.8,393.8l-5.5,1l-1.8,5.3l3.6,4.2
	l5.5-1l1.8-5.3L92.8,393.8z M463.8,328.8l-5.5,1l-1.8,5.3l3.6,4.2l5.5-1l1.8-5.3L463.8,328.8z M277.8,328.8l-5.5,1l-1.8,5.3l3.6,4.2
	l5.5-1l1.8-5.3L277.8,328.8z M274.6,325c0.4,0.2,0.8,0.3,1.2,0.3c0.4,0,0.8-0.1,1.2-0.3H274.6z M95.8,327.8l-0.3,0.1l-5.1,1
	l-1.8,5.3l3.6,4.2l5.5-1l1.8-5.3L95.8,327.8z M92.8,393.8l-5.5,1l-1.8,5.3l3.6,4.2l5.5-1l1.8-5.3L92.8,393.8z M95.8,327.8l-0.3,0.1
	l-5.1,1l-1.8,5.3l3.6,4.2l5.5-1l1.8-5.3L95.8,327.8z M178.8,393.8l-5.5,1l-1.8,5.3l3.6,4.2l5.5-1l1.8-5.3L178.8,393.8z M274.6,325
	c0.4,0.2,0.8,0.3,1.2,0.3c0.4,0,0.8-0.1,1.2-0.3H274.6z M277.8,328.8l-5.5,1l-1.8,5.3l3.6,4.2l5.5-1l1.8-5.3L277.8,328.8z
	 M380.8,394.8l-5.5,1l-1.8,5.3l3.6,4.2l5.5-1l1.8-5.3L380.8,394.8z M463.8,328.8l-5.5,1l-1.8,5.3l3.6,4.2l5.5-1l1.8-5.3L463.8,328.8
	z M472.7,394l-2.8-3.3l-5.5,1l-1.8,5.3l3.6,4.2l5-0.9l0.5-0.1l1.8-5.3L472.7,394z M472.7,394l-2.8-3.3l-5.5,1l-1.8,5.3l3.6,4.2
	l5-0.9l0.5-0.1l1.8-5.3L472.7,394z M380.8,394.8l-5.5,1l-1.8,5.3l3.6,4.2l5.5-1l1.8-5.3L380.8,394.8z M197.5,348.3V381H357v-32.8
	L197.5,348.3L197.5,348.3z M178.8,393.8l-5.5,1l-1.8,5.3l3.6,4.2l5.5-1l1.8-5.3L178.8,393.8z M92.8,393.8l-5.5,1l-1.8,5.3l3.6,4.2
	l5.5-1l1.8-5.3L92.8,393.8z M463.8,328.8l-5.5,1l-1.8,5.3l3.6,4.2l5.5-1l1.8-5.3L463.8,328.8z M277.8,328.8l-5.5,1l-1.8,5.3l3.6,4.2
	l5.5-1l1.8-5.3L277.8,328.8z M274.6,325c0.4,0.2,0.8,0.3,1.2,0.3c0.4,0,0.8-0.1,1.2-0.3H274.6z M95.8,327.8l-0.3,0.1l-5.1,1
	l-1.8,5.3l3.6,4.2l5.5-1l1.8-5.3L95.8,327.8z M92.8,393.8l-5.5,1l-1.8,5.3l3.6,4.2l5.5-1l1.8-5.3L92.8,393.8z M95.8,327.8l-0.3,0.1
	l-5.1,1l-1.8,5.3l3.6,4.2l5.5-1l1.8-5.3L95.8,327.8z M178.8,393.8l-5.5,1l-1.8,5.3l3.6,4.2l5.5-1l1.8-5.3L178.8,393.8z M274.6,325
	c0.4,0.2,0.8,0.3,1.2,0.3c0.4,0,0.8-0.1,1.2-0.3H274.6z M277.8,328.8l-5.5,1l-1.8,5.3l3.6,4.2l5.5-1l1.8-5.3L277.8,328.8z
	 M380.8,394.8l-5.5,1l-1.8,5.3l3.6,4.2l5.5-1l1.8-5.3L380.8,394.8z M463.8,328.8l-5.5,1l-1.8,5.3l3.6,4.2l5.5-1l1.8-5.3L463.8,328.8
	z M472.7,394l-2.8-3.3l-5.5,1l-1.8,5.3l3.6,4.2l5-0.9l0.5-0.1l1.8-5.3L472.7,394z M571.8,328.8l-5.5,1l-1.8,5.3l3.6,4.2l5.5-1
	l1.8-5.3L571.8,328.8z M472.7,394l-2.8-3.3l-5.5,1l-1.8,5.3l3.6,4.2l5-0.9l0.5-0.1l1.8-5.3L472.7,394z M375.4,395.8l-1.8,5.3
	l3.6,4.2l5.5-1l1.8-5.3l-3.6-4.2L375.4,395.8z M173.4,394.8l-1.8,5.3l3.6,4.2l5.5-1l1.8-5.3l-3.6-4.2L173.4,394.8z M87.4,394.8
	l-1.8,5.3l3.6,4.2l5.5-1l1.8-5.3l-3.6-4.2L87.4,394.8z M571.8,328.8l-5.5,1l-1.8,5.3l3.6,4.2l5.5-1l1.8-5.3L571.8,328.8z
	 M458.4,329.8l-1.8,5.3l3.6,4.2l5.5-1l1.8-5.3l-3.6-4.2L458.4,329.8z M197.5,348.3V381H357v-32.8L197.5,348.3L197.5,348.3z
	 M279.6,338.2l1.8-5.3l-3.6-4.2l-5.5,1l-1.8,5.3l3.6,4.2L279.6,338.2z M277,325h-2.4c0.4,0.2,0.8,0.3,1.2,0.3
	C276.2,325.3,276.6,325.2,277,325z M95.5,327.8l-5.1,1l-1.8,5.3l3.6,4.2l5.5-1l1.8-5.3l-3.6-4.2H95.5z M617,253.4
	C617,253.4,617.1,253.4,617,253.4C616.6,253.4,617.4,253.4,617,253.4C423.6,264,222.1,195.6,26.9,285.7c-0.6,0.3,0.6,0.6,0,0.9V325
	v56v30.3v20.4l0,0H617l0,0v-9.3V279.8V253.4C617,253.4,617.1,253.4,617,253.4z M26.9,318h577.6v30.3H26.9V318z M26.9,381h578.3v30.3
	H26.9V381z M574.6,399.2l1.8-5.3l-3.6-4.2l-5.5,1l-1.8,5.3l3.6,4.2L574.6,399.2z M573.6,338.2l1.8-5.3l-3.6-4.2l-5.5,1l-1.8,5.3
	l3.6,4.2L573.6,338.2z M471.2,400.3l0.5-0.1l1.8-5.3l-0.8-0.9l-2.8-3.3l-5.5,1l-1.8,5.3l3.6,4.2L471.2,400.3z M465.6,338.2l1.8-5.3
	l-3.6-4.2l-5.5,1l-1.8,5.3l3.6,4.2L465.6,338.2z M382.6,404.2l1.8-5.3l-3.6-4.2l-5.5,1l-1.8,5.3l3.6,4.2L382.6,404.2z M279.6,338.2
	l1.8-5.3l-3.6-4.2l-5.5,1l-1.8,5.3l3.6,4.2L279.6,338.2z M277,325h-2.4c0.4,0.2,0.8,0.3,1.2,0.3C276.2,325.3,276.6,325.2,277,325z
	 M180.6,403.2l1.8-5.3l-3.6-4.2l-5.5,1l-1.8,5.3l3.6,4.2L180.6,403.2z M97.6,337.2l1.8-5.3l-3.6-4.2l-0.3,0.1l-5.1,1l-1.8,5.3
	l3.6,4.2L97.6,337.2z M94.6,403.2l1.8-5.3l-3.6-4.2l-5.5,1l-1.8,5.3l3.6,4.2L94.6,403.2z M95.8,327.8l-0.3,0.1l-5.1,1l-1.8,5.3
	l3.6,4.2l5.5-1l1.8-5.3L95.8,327.8z M274.6,325c0.4,0.2,0.8,0.3,1.2,0.3c0.4,0,0.8-0.1,1.2-0.3H274.6z M277.8,328.8l-5.5,1l-1.8,5.3
	l3.6,4.2l5.5-1l1.8-5.3L277.8,328.8z M463.8,328.8l-5.5,1l-1.8,5.3l3.6,4.2l5.5-1l1.8-5.3L463.8,328.8z M92.8,393.8l-5.5,1l-1.8,5.3
	l3.6,4.2l5.5-1l1.8-5.3L92.8,393.8z M178.8,393.8l-5.5,1l-1.8,5.3l3.6,4.2l5.5-1l1.8-5.3L178.8,393.8z M197.5,348.3V381H357v-32.8
	L197.5,348.3L197.5,348.3z M380.8,394.8l-5.5,1l-1.8,5.3l3.6,4.2l5.5-1l1.8-5.3L380.8,394.8z M472.7,394l-2.8-3.3l-5.5,1l-1.8,5.3
	l3.6,4.2l5-0.9l0.5-0.1l1.8-5.3L472.7,394z M472.7,394l-2.8-3.3l-5.5,1l-1.8,5.3l3.6,4.2l5-0.9l0.5-0.1l1.8-5.3L472.7,394z
	 M463.8,328.8l-5.5,1l-1.8,5.3l3.6,4.2l5.5-1l1.8-5.3L463.8,328.8z M380.8,394.8l-5.5,1l-1.8,5.3l3.6,4.2l5.5-1l1.8-5.3L380.8,394.8
	z M277.8,328.8l-5.5,1l-1.8,5.3l3.6,4.2l5.5-1l1.8-5.3L277.8,328.8z M274.6,325c0.4,0.2,0.8,0.3,1.2,0.3c0.4,0,0.8-0.1,1.2-0.3
	H274.6z M178.8,393.8l-5.5,1l-1.8,5.3l3.6,4.2l5.5-1l1.8-5.3L178.8,393.8z M95.8,327.8l-0.3,0.1l-5.1,1l-1.8,5.3l3.6,4.2l5.5-1
	l1.8-5.3L95.8,327.8z M92.8,393.8l-5.5,1l-1.8,5.3l3.6,4.2l5.5-1l1.8-5.3L92.8,393.8z M95.8,327.8l-0.3,0.1l-5.1,1l-1.8,5.3l3.6,4.2
	l5.5-1l1.8-5.3L95.8,327.8z M274.6,325c0.4,0.2,0.8,0.3,1.2,0.3c0.4,0,0.8-0.1,1.2-0.3H274.6z M277.8,328.8l-5.5,1l-1.8,5.3l3.6,4.2
	l5.5-1l1.8-5.3L277.8,328.8z M463.8,328.8l-5.5,1l-1.8,5.3l3.6,4.2l5.5-1l1.8-5.3L463.8,328.8z M92.8,393.8l-5.5,1l-1.8,5.3l3.6,4.2
	l5.5-1l1.8-5.3L92.8,393.8z M178.8,393.8l-5.5,1l-1.8,5.3l3.6,4.2l5.5-1l1.8-5.3L178.8,393.8z M197.5,348.3V381H357v-32.8
	L197.5,348.3L197.5,348.3z M380.8,394.8l-5.5,1l-1.8,5.3l3.6,4.2l5.5-1l1.8-5.3L380.8,394.8z M472.7,394l-2.8-3.3l-5.5,1l-1.8,5.3
	l3.6,4.2l5-0.9l0.5-0.1l1.8-5.3L472.7,394z M472.7,394l-2.8-3.3l-5.5,1l-1.8,5.3l3.6,4.2l5-0.9l0.5-0.1l1.8-5.3L472.7,394z
	 M463.8,328.8l-5.5,1l-1.8,5.3l3.6,4.2l5.5-1l1.8-5.3L463.8,328.8z M380.8,394.8l-5.5,1l-1.8,5.3l3.6,4.2l5.5-1l1.8-5.3L380.8,394.8
	z M277.8,328.8l-5.5,1l-1.8,5.3l3.6,4.2l5.5-1l1.8-5.3L277.8,328.8z M274.6,325c0.4,0.2,0.8,0.3,1.2,0.3c0.4,0,0.8-0.1,1.2-0.3
	H274.6z M178.8,393.8l-5.5,1l-1.8,5.3l3.6,4.2l5.5-1l1.8-5.3L178.8,393.8z M95.8,327.8l-0.3,0.1l-5.1,1l-1.8,5.3l3.6,4.2l5.5-1
	l1.8-5.3L95.8,327.8z M92.8,393.8l-5.5,1l-1.8,5.3l3.6,4.2l5.5-1l1.8-5.3L92.8,393.8z M95.8,327.8l-0.3,0.1l-5.1,1l-1.8,5.3l3.6,4.2
	l5.5-1l1.8-5.3L95.8,327.8z M274.6,325c0.4,0.2,0.8,0.3,1.2,0.3c0.4,0,0.8-0.1,1.2-0.3H274.6z M277.8,328.8l-5.5,1l-1.8,5.3l3.6,4.2
	l5.5-1l1.8-5.3L277.8,328.8z M463.8,328.8l-5.5,1l-1.8,5.3l3.6,4.2l5.5-1l1.8-5.3L463.8,328.8z M92.8,393.8l-5.5,1l-1.8,5.3l3.6,4.2
	l5.5-1l1.8-5.3L92.8,393.8z M178.8,393.8l-5.5,1l-1.8,5.3l3.6,4.2l5.5-1l1.8-5.3L178.8,393.8z M197.5,348.3V381H357v-32.8
	L197.5,348.3L197.5,348.3z M380.8,394.8l-5.5,1l-1.8,5.3l3.6,4.2l5.5-1l1.8-5.3L380.8,394.8z M463.8,328.8l-5.5,1l-1.8,5.3l3.6,4.2
	l5.5-1l1.8-5.3L463.8,328.8z M380.8,394.8l-5.5,1l-1.8,5.3l3.6,4.2l5.5-1l1.8-5.3L380.8,394.8z M277.8,328.8l-5.5,1l-1.8,5.3
	l3.6,4.2l5.5-1l1.8-5.3L277.8,328.8z M274.6,325c0.4,0.2,0.8,0.3,1.2,0.3c0.4,0,0.8-0.1,1.2-0.3H274.6z M178.8,393.8l-5.5,1
	l-1.8,5.3l3.6,4.2l5.5-1l1.8-5.3L178.8,393.8z M95.8,327.8l-0.3,0.1l-5.1,1l-1.8,5.3l3.6,4.2l5.5-1l1.8-5.3L95.8,327.8z M92.8,393.8
	l-5.5,1l-1.8,5.3l3.6,4.2l5.5-1l1.8-5.3L92.8,393.8z M95.8,327.8l-0.3,0.1l-5.1,1l-1.8,5.3l3.6,4.2l5.5-1l1.8-5.3L95.8,327.8z
	 M274.6,325c0.4,0.2,0.8,0.3,1.2,0.3c0.4,0,0.8-0.1,1.2-0.3H274.6z M277.8,328.8l-5.5,1l-1.8,5.3l3.6,4.2l5.5-1l1.8-5.3L277.8,328.8
	z M92.8,393.8l-5.5,1l-1.8,5.3l3.6,4.2l5.5-1l1.8-5.3L92.8,393.8z M178.8,393.8l-5.5,1l-1.8,5.3l3.6,4.2l5.5-1l1.8-5.3L178.8,393.8z
	 M197.5,348.3V381H357v-32.8L197.5,348.3L197.5,348.3z M277.8,328.8l-5.5,1l-1.8,5.3l3.6,4.2l5.5-1l1.8-5.3L277.8,328.8z M274.6,325
	c0.4,0.2,0.8,0.3,1.2,0.3c0.4,0,0.8-0.1,1.2-0.3H274.6z M178.8,393.8l-5.5,1l-1.8,5.3l3.6,4.2l5.5-1l1.8-5.3L178.8,393.8z
	 M95.8,327.8l-0.3,0.1l-5.1,1l-1.8,5.3l3.6,4.2l5.5-1l1.8-5.3L95.8,327.8z M92.8,393.8l-5.5,1l-1.8,5.3l3.6,4.2l5.5-1l1.8-5.3
	L92.8,393.8z M95.8,327.8l-0.3,0.1l-5.1,1l-1.8,5.3l3.6,4.2l5.5-1l1.8-5.3L95.8,327.8z M274.6,325c0.4,0.2,0.8,0.3,1.2,0.3
	c0.4,0,0.8-0.1,1.2-0.3H274.6z M277.8,328.8l-5.5,1l-1.8,5.3l3.6,4.2l5.5-1l1.8-5.3L277.8,328.8z M92.8,393.8l-5.5,1l-1.8,5.3
	l3.6,4.2l5.5-1l1.8-5.3L92.8,393.8z M178.8,393.8l-5.5,1l-1.8,5.3l3.6,4.2l5.5-1l1.8-5.3L178.8,393.8z M197.5,348.3V381H357v-32.8
	L197.5,348.3L197.5,348.3z M277.8,328.8l-5.5,1l-1.8,5.3l3.6,4.2l5.5-1l1.8-5.3L277.8,328.8z M274.6,325c0.4,0.2,0.8,0.3,1.2,0.3
	c0.4,0,0.8-0.1,1.2-0.3H274.6z M178.8,393.8l-5.5,1l-1.8,5.3l3.6,4.2l5.5-1l1.8-5.3L178.8,393.8z M95.8,327.8l-0.3,0.1l-5.1,1
	l-1.8,5.3l3.6,4.2l5.5-1l1.8-5.3L95.8,327.8z M92.8,393.8l-5.5,1l-1.8,5.3l3.6,4.2l5.5-1l1.8-5.3L92.8,393.8z M95.8,327.8l-0.3,0.1
	l-5.1,1l-1.8,5.3l3.6,4.2l5.5-1l1.8-5.3L95.8,327.8z M274.6,325c0.4,0.2,0.8,0.3,1.2,0.3c0.4,0,0.8-0.1,1.2-0.3H274.6z M277.8,328.8
	l-5.5,1l-1.8,5.3l3.6,4.2l5.5-1l1.8-5.3L277.8,328.8z M92.8,393.8l-5.5,1l-1.8,5.3l3.6,4.2l5.5-1l1.8-5.3L92.8,393.8z M178.8,393.8
	l-5.5,1l-1.8,5.3l3.6,4.2l5.5-1l1.8-5.3L178.8,393.8z M197.5,348.3V381H357v-32.8L197.5,348.3L197.5,348.3z M277.8,328.8l-5.5,1
	l-1.8,5.3l3.6,4.2l5.5-1l1.8-5.3L277.8,328.8z M274.6,325c0.4,0.2,0.8,0.3,1.2,0.3c0.4,0,0.8-0.1,1.2-0.3H274.6z M178.8,393.8
	l-5.5,1l-1.8,5.3l3.6,4.2l5.5-1l1.8-5.3L178.8,393.8z M95.8,327.8l-0.3,0.1l-5.1,1l-1.8,5.3l3.6,4.2l5.5-1l1.8-5.3L95.8,327.8z
	 M92.8,393.8l-5.5,1l-1.8,5.3l3.6,4.2l5.5-1l1.8-5.3L92.8,393.8z M95.8,327.8l-0.3,0.1l-5.1,1l-1.8,5.3l3.6,4.2l5.5-1l1.8-5.3
	L95.8,327.8z M274.6,325c0.4,0.2,0.8,0.3,1.2,0.3c0.4,0,0.8-0.1,1.2-0.3H274.6z M277.8,328.8l-5.5,1l-1.8,5.3l3.6,4.2l5.5-1l1.8-5.3
	L277.8,328.8z M92.8,393.8l-5.5,1l-1.8,5.3l3.6,4.2l5.5-1l1.8-5.3L92.8,393.8z M178.8,393.8l-5.5,1l-1.8,5.3l3.6,4.2l5.5-1l1.8-5.3
	L178.8,393.8z M277.8,328.8l-5.5,1l-1.8,5.3l3.6,4.2l5.5-1l1.8-5.3L277.8,328.8z M274.6,325c0.4,0.2,0.8,0.3,1.2,0.3
	c0.4,0,0.8-0.1,1.2-0.3H274.6z M178.8,393.8l-5.5,1l-1.8,5.3l3.6,4.2l5.5-1l1.8-5.3L178.8,393.8z M95.8,327.8l-0.3,0.1l-5.1,1
	l-1.8,5.3l3.6,4.2l5.5-1l1.8-5.3L95.8,327.8z M92.8,393.8l-5.5,1l-1.8,5.3l3.6,4.2l5.5-1l1.8-5.3L92.8,393.8z M95.8,327.8l-0.3,0.1
	l-5.1,1l-1.8,5.3l3.6,4.2l5.5-1l1.8-5.3L95.8,327.8z M274.6,325c0.4,0.2,0.8,0.3,1.2,0.3c0.4,0,0.8-0.1,1.2-0.3H274.6z M277.8,328.8
	l-5.5,1l-1.8,5.3l3.6,4.2l5.5-1l1.8-5.3L277.8,328.8z M277.8,328.8l-5.5,1l-1.8,5.3l3.6,4.2l5.5-1l1.8-5.3L277.8,328.8z M274.6,325
	c0.4,0.2,0.8,0.3,1.2,0.3c0.4,0,0.8-0.1,1.2-0.3H274.6z M95.8,327.8l-0.3,0.1l-5.1,1l-1.8,5.3l3.6,4.2l5.5-1l1.8-5.3L95.8,327.8z
	 M95.8,327.8l-0.3,0.1l-5.1,1l-1.8,5.3l3.6,4.2l5.5-1l1.8-5.3L95.8,327.8z M277.8,328.8l-5.5,1l-1.8,5.3l3.6,4.2l5.5-1l1.8-5.3
	L277.8,328.8z M277.8,328.8l-5.5,1l-1.8,5.3l3.6,4.2l5.5-1l1.8-5.3L277.8,328.8z M95.8,327.8l-0.3,0.1l-5.1,1l-1.8,5.3l3.6,4.2
	l5.5-1l1.8-5.3L95.8,327.8z M95.8,327.8l-0.3,0.1l-5.1,1l-1.8,5.3l3.6,4.2l5.5-1l1.8-5.3L95.8,327.8z M95.8,327.8l-0.3,0.1l-5.1,1
	l-1.8,5.3l3.6,4.2l5.5-1l1.8-5.3L95.8,327.8z M95.8,327.8l-0.3,0.1l-5.1,1l-1.8,5.3l3.6,4.2l5.5-1l1.8-5.3L95.8,327.8z M95.8,327.8
	l-0.3,0.1l-5.1,1l-1.8,5.3l3.6,4.2l5.5-1l1.8-5.3L95.8,327.8z M95.8,327.8l-0.3,0.1l-5.1,1l-1.8,5.3l3.6,4.2l5.5-1l1.8-5.3
	L95.8,327.8z M95.8,327.8l-0.3,0.1l-5.1,1l-1.8,5.3l3.6,4.2l5.5-1l1.8-5.3L95.8,327.8z"/>
<rect x="551.6" y="269.7" style="fill:none;stroke:#000000;stroke-miterlimit:10;" width="35.3" height="48.3"/>
<polygon style="fill:none;stroke:#000000;stroke-miterlimit:10;" points="568.2,339.3 564.5,335 566.4,329.8 571.8,328.8 575.5,333 
	573.6,338.2 "/>
<polygon style="fill:none;stroke:#000000;stroke-miterlimit:10;" points="574.6,399.2 569.2,400.3 565.5,396 567.4,390.8 
	572.8,389.8 576.5,394 "/>
<rect x="551.6" y="348.3" style="fill:none;stroke:#000000;stroke-miterlimit:10;" width="35.3" height="32.8"/>
<rect x="551.6" y="411.4" style="fill:none;stroke:#000000;stroke-miterlimit:10;" width="35.3" height="20.4"/>
<rect x="162.2" y="411.4" style="fill:none;stroke:#000000;stroke-miterlimit:10;" width="35.3" height="20.4"/>
<polygon style="fill:none;stroke:#000000;stroke-miterlimit:10;" points="182.5,398 180.6,403.2 175.2,404.3 171.5,400 173.4,394.8 
	178.8,393.8 "/>
<rect x="162.2" y="348.3" style="fill:none;stroke:#000000;stroke-miterlimit:10;" width="35.3" height="32.8"/>
<rect x="162.2" y="267.6" style="fill:none;stroke:#000000;stroke-miterlimit:10;" width="35.3" height="50.3"/>
<path style="fill:none;stroke:#000000;stroke-miterlimit:10;" d="M197.5,267.6V318h-26.9c-2.1-16.3-5.1-33-8.4-50.3h35.3V267.6z"/>
<polygon style="fill:none;stroke:#000000;stroke-miterlimit:10;" points="182.5,398 180.6,403.2 175.2,404.3 171.5,400 173.4,394.8 
	178.8,393.8 "/>
<path style="fill:none;stroke:#000000;stroke-miterlimit:10;" d="M197.5,348.3V381h-24.6c0.9-10.9,1-21.8,0.5-32.8L197.5,348.3
	L197.5,348.3z"/>
<path style="fill:none;stroke:#000000;stroke-miterlimit:10;" d="M197.5,411.4v20.4h-35.3c2.3-6.4,4.2-14,5.7-20.4H197.5z"/>
<g transform="translate(-87.529 1.357)">
	<polygon style="fill:none;stroke:#000000;stroke-miterlimit:10;" points="187,330.6 185.2,335.9 179.7,336.9 176.1,332.7 
		177.9,327.4 183,326.5 183.4,326.4 	"/>
	<polygon style="fill:none;stroke:#000000;stroke-miterlimit:10;" points="184,396.6 182.2,401.9 176.7,402.9 173.1,398.7 
		174.9,393.4 180.4,392.4 	"/>
	<rect x="162.2" y="410" style="fill:none;stroke:#000000;stroke-miterlimit:10;" width="35.3" height="20.4"/>
	<rect x="162.2" y="346.9" style="fill:none;stroke:#000000;stroke-miterlimit:10;" width="35.3" height="32.8"/>
	<rect x="162.2" y="267.6" style="fill:none;stroke:#000000;stroke-miterlimit:10;" width="35.3" height="49"/>
	<path style="fill:none;stroke:#000000;stroke-miterlimit:10;" d="M197.4,267.6c0,16.7-1.4,32.8-3,49h-32.3v-49H197.4z"/>
	<polygon style="fill:none;stroke:#000000;stroke-miterlimit:10;" points="187,330.6 185.2,335.9 179.7,336.9 176.1,332.7 
		177.9,327.4 183,326.5 183.4,326.4 	"/>
	<polygon style="fill:none;stroke:#000000;stroke-miterlimit:10;" points="184,396.6 182.2,401.9 176.7,402.9 173.1,398.7 
		174.9,393.4 180.4,392.4 	"/>
	<path style="fill:none;stroke:#000000;stroke-miterlimit:10;" d="M190.7,379.7h-28.5v-32.8h29.6
		C190.9,357.7,190.5,368.6,190.7,379.7z"/>
	<path style="fill:none;stroke:#000000;stroke-miterlimit:10;" d="M197.4,430.4h-35.3V410h31.1C194.3,416.6,195.6,423.6,197.4,430.4
		C197.4,430.5,197.4,430.3,197.4,430.4z"/>
</g>
<g transform="translate(93.636 1.357)">
	<rect x="162.2" y="410" style="fill:none;stroke:#000000;stroke-miterlimit:10;" width="35.3" height="20.4"/>
	<rect x="162.2" y="346.9" style="fill:none;stroke:#000000;stroke-miterlimit:10;" width="35.3" height="32.8"/>
	<polygon style="fill:none;stroke:#000000;stroke-miterlimit:10;" points="187.8,331.6 186,336.9 180.5,337.9 176.9,333.7 
		178.7,328.4 184.2,327.4 	"/>
	<path style="fill:none;stroke:#000000;stroke-miterlimit:10;" d="M183.4,323.7c-0.4,0.2-0.8,0.3-1.2,0.3s-0.8-0.1-1.2-0.3H183.4z"
		/>
	<rect x="162.2" y="267.6" style="fill:none;stroke:#000000;stroke-miterlimit:10;" width="35.3" height="49"/>
	<polygon style="fill:none;stroke:#000000;stroke-miterlimit:10;" points="187.8,331.6 186,336.9 180.5,337.9 176.9,333.7 
		178.7,328.4 184.2,327.4 	"/>
	<path style="fill:none;stroke:#000000;stroke-miterlimit:10;" d="M183.4,323.7c-0.4,0.2-0.8,0.3-1.2,0.3s-0.8-0.1-1.2-0.3H183.4z"
		/>
	<path style="fill:none;stroke:#000000;stroke-miterlimit:10;" d="M197.5,267.6v49h-31c0.2-20.4-0.8-37.9-4.3-49H197.5z"/>
	<path style="fill:none;stroke:#000000;stroke-miterlimit:10;" d="M197.5,410v20.4h-35.3c0-6.5,0.2-13.3,0.4-20.4H197.5z"/>
	<path style="fill:none;stroke:#000000;stroke-miterlimit:10;" d="M197.5,346.9v32.8H164c0.5-11,1.1-22,1.6-32.8H197.5z"/>
</g>
<g transform="translate(194.74 .67852)">
	<polygon style="fill:none;stroke:#000000;stroke-miterlimit:10;" points="189.7,398.3 187.9,403.6 182.4,404.6 178.8,400.3 
		180.6,395.1 186.1,394.1 	"/>
	<rect x="162.2" y="410.7" style="fill:none;stroke:#000000;stroke-miterlimit:10;" width="35.3" height="20.4"/>
	<rect x="162.2" y="347.6" style="fill:none;stroke:#000000;stroke-miterlimit:10;" width="35.3" height="32.8"/>
	<rect x="162.2" y="267.6" style="fill:none;stroke:#000000;stroke-miterlimit:10;" width="35.3" height="49.7"/>
	<path style="fill:none;stroke:#000000;stroke-miterlimit:10;" d="M197.4,267.6c-2.1,17.3-3.9,34-5.3,49.7h-30v-49.7H197.4z"/>
	<polygon style="fill:none;stroke:#000000;stroke-miterlimit:10;" points="189.7,398.3 187.9,403.6 182.4,404.6 178.8,400.3 
		180.6,395.1 186.1,394.1 	"/>
	<path style="fill:none;stroke:#000000;stroke-miterlimit:10;" d="M189.4,380.4h-27.2v-32.8H190
		C189.4,359.3,189.2,370.3,189.4,380.4z"/>
	<path style="fill:none;stroke:#000000;stroke-miterlimit:10;" d="M197.4,431.1h-35.3v-20.4h29.7C193.2,418.5,195,425.7,197.4,431.1
		z"/>
</g>
<g transform="translate(284.98 .67852)">
	<rect x="162.2" y="410.7" style="fill:none;stroke:#000000;stroke-miterlimit:10;" width="35.3" height="20.4"/>
	<polygon style="fill:none;stroke:#000000;stroke-miterlimit:10;" points="188.5,394.3 186.6,399.6 186.2,399.6 181.2,400.6 
		177.6,396.3 179.4,391.1 184.9,390.1 187.7,393.3 	"/>
	<rect x="162.2" y="347.6" style="fill:none;stroke:#000000;stroke-miterlimit:10;" width="35.3" height="32.8"/>
	<polygon style="fill:none;stroke:#000000;stroke-miterlimit:10;" points="182.5,332.3 180.6,337.6 175.2,338.6 171.6,334.3 
		173.4,329.1 178.9,328.1 	"/>
	<rect x="162.2" y="267.6" style="fill:none;stroke:#000000;stroke-miterlimit:10;" width="35.3" height="49.7"/>
	<polygon style="fill:none;stroke:#000000;stroke-miterlimit:10;" points="182.5,332.3 180.6,337.6 175.2,338.6 171.6,334.3 
		173.4,329.1 178.9,328.1 	"/>
	<path style="fill:none;stroke:#000000;stroke-miterlimit:10;" d="M197.4,267.6v49.7h-25.9c-0.3-16.5-2.1-33.1-6.7-49.7H197.4z"/>
	<polygon style="fill:none;stroke:#000000;stroke-miterlimit:10;" points="188.5,394.3 186.6,399.6 186.2,399.6 181.2,400.6 
		177.6,396.3 179.4,391.1 184.9,390.1 187.7,393.3 	"/>
	<path style="fill:none;stroke:#000000;stroke-miterlimit:10;" d="M197.4,347.6v32.8h-30.2c1.3-10.9,2.5-21.8,3.3-32.8H197.4z"/>
	<path style="fill:none;stroke:#000000;stroke-miterlimit:10;" d="M197.4,410.7v20.4h-35.3c0.4-6.6,1-13.8,1.7-20.4H197.4z"/>
</g>
<path style="fill:none;stroke:#000000;stroke-miterlimit:10;" d="M90.4,329.6c1.8,0.2,3.6-0.5,5.1-1.8c0.9-0.7,1.8-1.7,2.5-2.8"/>
<path style="fill:none;stroke:#000000;stroke-miterlimit:10;" d="M85.8,318c-2-3.5-3-8.9-2.4-14.2c1-9.1,6.1-14.6,10.9-12.6
	c5.5,2.2,8.8,12.7,7.6,22.6c-0.2,1.5-0.5,2.9-0.8,4.2"/>
<path style="fill:none;stroke:#000000;stroke-miterlimit:10;" d="M91.7,308.2c-0.6-0.3-0.1-1.7,0.3-1.9c1-0.5,1.7,1.4,1.8,3
	c0,2.9-1.5,4.8-3,4.6c-2.1-0.3-3.5-4.2-3.2-7.9c0.3-4.9,3-8,5.6-7.3c3.2,0.9,5.2,7,4.7,12.8c-0.3,2.6-0.9,4.8-1.9,6.5"/>
<path style="fill:none;stroke:#000000;stroke-miterlimit:10;" d="M277,325c-0.4,0.2-0.8,0.3-1.2,0.3c-0.4,0-0.8-0.1-1.2-0.3H277z"/>
<path style="fill:none;stroke:#000000;stroke-miterlimit:10;" d="M282.3,307.6C282.3,307.7,282.3,307.7,282.3,307.6
	c0,3.9-0.5,7.4-1.2,10.3h-10.5c-0.8-2.9-1.2-6.4-1.2-10.3l0,0c0-9.7,2.9-17.6,6.4-17.6C279.4,290,282.3,297.9,282.3,307.6z"/>
<path style="fill:none;stroke:#000000;stroke-miterlimit:10;" d="M274.3,411.4c-0.9,5.9-2.1,9.6-3.6,9.6c-1.4,0-2.7-3.7-3.6-9.6
	H274.3z"/>
<path style="fill:none;stroke:#000000;stroke-miterlimit:10;" d="M275.1,381h-8.7c0.7-10,2.4-17.1,4.3-17.1S274.3,371,275.1,381z"/>
<path style="fill:none;stroke:#000000;stroke-miterlimit:10;" d="M377.9,318h-12.8c0.5-7.4,3.1-13,6.4-13
	C374.7,304.9,377.4,310.6,377.9,318z"/>
<path style="fill:none;stroke:#000000;stroke-miterlimit:10;" d="M472,381h-10.3c1.1-4.2,3-7,5.1-7C469,374,470.9,376.8,472,381z"/>
<path style="fill:none;stroke:#000000;stroke-miterlimit:10;" d="M472.7,394c-0.3,2.4-0.8,4.6-1.5,6.3l-5,0.9l-3.6-4.2l1.8-5.3
	l5.5-1L472.7,394z"/>
<polygon style="fill:none;stroke:#000000;stroke-miterlimit:10;" points="99.5,332 97.6,337.2 92.2,338.3 88.5,334 90.4,328.8 
	95.5,327.8 95.8,327.8 "/>
<polygon style="fill:none;stroke:#000000;stroke-miterlimit:10;" points="281.5,333 279.6,338.2 274.2,339.3 270.5,335 272.4,329.8 
	277.8,328.8 "/>
<path style="fill:none;stroke:#000000;stroke-miterlimit:10;" d="M277,325c-0.4,0.2-0.8,0.3-1.2,0.3c-0.4,0-0.8-0.1-1.2-0.3H277z"/>
<polygon style="fill:none;stroke:#000000;stroke-miterlimit:10;" points="467.5,333 465.6,338.2 460.2,339.3 456.5,335 458.4,329.8 
	463.8,328.8 "/>
<polygon style="fill:none;stroke:#000000;stroke-miterlimit:10;" points="575.5,333 573.6,338.2 568.2,339.3 564.5,335 566.4,329.8 
	571.8,328.8 "/>
<rect x="26.9" y="381" style="fill:none;stroke:#000000;stroke-miterlimit:10;" width="0" height="30.3"/>
<polygon style="fill:none;stroke:#000000;stroke-miterlimit:10;" points="96.5,398 94.6,403.2 89.2,404.3 85.5,400 87.4,394.8 
	92.8,393.8 "/>
<polygon style="fill:none;stroke:#000000;stroke-miterlimit:10;" points="182.5,398 180.6,403.2 175.2,404.3 171.5,400 173.4,394.8 
	178.8,393.8 "/>
<polygon style="fill:none;stroke:#000000;stroke-miterlimit:10;" points="384.5,399 382.6,404.2 377.2,405.3 373.5,401 375.4,395.8 
	380.8,394.8 "/>
<polygon style="fill:none;stroke:#000000;stroke-miterlimit:10;" points="473.5,395 471.6,400.2 471.2,400.3 466.2,401.3 462.5,397 
	464.4,391.8 469.8,390.8 472.7,394 "/>
<polygon style="fill:none;stroke:#000000;stroke-miterlimit:10;" points="576.5,394 574.6,399.2 569.2,400.3 565.5,396 567.4,390.8 
	572.8,389.8 "/>
<rect x="26.9" y="318" style="fill:none;stroke:#000000;stroke-miterlimit:10;" width="577.6" height="7.1"/>
<path style="fill:none;stroke:#000000;stroke-miterlimit:10;" d="M277,325c-0.4,0.2-0.8,0.3-1.2,0.3c-0.4,0-0.8-0.1-1.2-0.3H26.9
	v23.3h577.6V325H277z M97.6,337.2l-5.5,1l-3.6-4.2l1.8-5.3l5.1-1l0.3-0.1l3.6,4.2L97.6,337.2z M175.6,338.2l-2.9,0.5l-2.6,0.5
	l-3.6-4.2l1.8-5.3l3.5-0.7l2-0.4l3.6,4.2L175.6,338.2z M279.6,338.2l-5.5,1l-3.6-4.2l1.8-5.3l5.5-1l3.6,4.2L279.6,338.2z
	 M377.6,338.2l-5.5,1l-3.6-4.2l0.3-0.9l1.5-4.4l5.5-1l0.7,0.8l2.9,3.4L377.6,338.2z M465.6,338.2l-5.5,1l-3.6-4.2l1.8-5.3l5.5-1
	l3.6,4.2L465.6,338.2z M573.6,338.2l-5.5,1l-3.6-4.2l1.8-5.3l5.5-1l3.6,4.2L573.6,338.2z"/>
<polygon style="fill:none;stroke:#000000;stroke-miterlimit:10;" points="99.5,332 97.6,337.2 92.2,338.3 88.5,334 90.4,328.8 
	95.5,327.8 95.8,327.8 "/>
<polygon style="fill:none;stroke:#000000;stroke-miterlimit:10;" points="281.5,333 279.6,338.2 274.2,339.3 270.5,335 272.4,329.8 
	277.8,328.8 "/>
<path style="fill:none;stroke:#000000;stroke-miterlimit:10;" d="M277,325c-0.4,0.2-0.8,0.3-1.2,0.3c-0.4,0-0.8-0.1-1.2-0.3H277z"/>
<polygon style="fill:none;stroke:#000000;stroke-miterlimit:10;" points="467.5,333 465.6,338.2 460.2,339.3 456.5,335 458.4,329.8 
	463.8,328.8 "/>
<polygon style="fill:none;stroke:#000000;stroke-miterlimit:10;" points="575.5,333 573.6,338.2 568.2,339.3 564.5,335 566.4,329.8 
	571.8,328.8 "/>
<path style="fill:none;stroke:#000000;stroke-miterlimit:10;" d="M26.9,381v30.3h578.3V381H26.9z M94.6,403.2l-5.5,1l-3.6-4.2
	l1.8-5.3l5.5-1l3.6,4.2L94.6,403.2z M180.6,403.2l-5.5,1l-3.6-4.2l1.8-5.3l5.5-1l3.6,4.2L180.6,403.2z M276.6,403.2l-1.5,0.3l-4,0.7
	l-3.6-4.2l1.8-5.3l5.5-1l0.6,0.7l3,3.5L276.6,403.2z M382.6,404.2l-5.5,1l-3.6-4.2l1.8-5.3l5.5-1l3.6,4.2L382.6,404.2z M471.6,400.2
	l-0.5,0.1l-5,0.9l-3.6-4.2l1.8-5.3l5.5-1l2.8,3.3l0.8,0.9L471.6,400.2z M574.6,399.2l-5.5,1l-3.6-4.2l1.8-5.3l5.5-1l3.6,4.2
	L574.6,399.2z"/>
<rect x="26.9" y="381" style="fill:none;stroke:#000000;stroke-miterlimit:10;" width="0" height="30.3"/>
<polygon style="fill:none;stroke:#000000;stroke-miterlimit:10;" points="96.5,398 94.6,403.2 89.2,404.3 85.5,400 87.4,394.8 
	92.8,393.8 "/>
<polygon style="fill:none;stroke:#000000;stroke-miterlimit:10;" points="182.5,398 180.6,403.2 175.2,404.3 171.5,400 173.4,394.8 
	178.8,393.8 "/>
<polygon style="fill:none;stroke:#000000;stroke-miterlimit:10;" points="384.5,399 382.6,404.2 377.2,405.3 373.5,401 375.4,395.8 
	380.8,394.8 "/>
<polygon style="fill:none;stroke:#000000;stroke-miterlimit:10;" points="473.5,395 471.6,400.2 471.2,400.3 466.2,401.3 462.5,397 
	464.4,391.8 469.8,390.8 472.7,394 "/>
<polygon style="fill:none;stroke:#000000;stroke-miterlimit:10;" points="576.5,394 574.6,399.2 569.2,400.3 565.5,396 567.4,390.8 
	572.8,389.8 "/>
<polygon style="fill:none;stroke:#000000;stroke-miterlimit:10;" points="96.5,398 94.6,403.2 89.2,404.3 85.5,400 87.4,394.8 
	92.8,393.8 "/>
<polygon style="fill:none;stroke:#000000;stroke-miterlimit:10;" points="99.5,332 97.6,337.2 92.2,338.3 88.5,334 90.4,328.8 
	95.5,327.8 95.8,327.8 "/>
<polygon style="fill:none;stroke:#000000;stroke-miterlimit:10;" points="182.5,398 180.6,403.2 175.2,404.3 171.5,400 173.4,394.8 
	178.8,393.8 "/>
<polygon style="fill:none;stroke:#000000;stroke-miterlimit:10;" points="278.5,398 276.6,403.2 275.1,403.5 271.2,404.3 267.5,400 
	269.4,394.8 274.8,393.8 275.5,394.5 "/>
<polygon style="fill:none;stroke:#000000;stroke-miterlimit:10;" points="177.5,333 175.6,338.2 172.8,338.8 170.2,339.3 166.5,335 
	168.4,329.8 171.9,329.1 173.8,328.8 "/>
<polygon style="fill:none;stroke:#000000;stroke-miterlimit:10;" points="281.5,333 279.6,338.2 274.2,339.3 270.5,335 272.4,329.8 
	277.8,328.8 "/>
<polygon style="fill:none;stroke:#000000;stroke-miterlimit:10;" points="379.5,333 377.6,338.2 372.2,339.3 368.5,335 368.8,334.1 
	370.4,329.8 375.8,328.8 376.6,329.6 "/>
<polygon style="fill:none;stroke:#000000;stroke-miterlimit:10;" points="467.5,333 465.6,338.2 460.2,339.3 456.5,335 458.4,329.8 
	463.8,328.8 "/>
<polygon style="fill:none;stroke:#000000;stroke-miterlimit:10;" points="575.5,333 573.6,338.2 568.2,339.3 564.5,335 566.4,329.8 
	571.8,328.8 "/>
<polygon style="fill:none;stroke:#000000;stroke-miterlimit:10;" points="576.5,394 574.6,399.2 569.2,400.3 565.5,396 567.4,390.8 
	572.8,389.8 "/>
<polygon style="fill:none;stroke:#000000;stroke-miterlimit:10;" points="473.5,395 471.6,400.2 471.2,400.3 466.2,401.3 462.5,397 
	464.4,391.8 469.8,390.8 472.7,394 "/>
<polygon style="fill:none;stroke:#000000;stroke-miterlimit:10;" points="384.5,399 382.6,404.2 377.2,405.3 373.5,401 375.4,395.8 
	380.8,394.8 "/>
</svg>
