<?xml version="1.0" encoding="utf-8"?>
<!-- Generator: Adobe Illustrator 22.1.0, SVG Export Plug-In . SVG Version: 6.00 Build 0)  -->
<svg version="1.1" id="svg2742" xmlns:svg="http://www.w3.org/2000/svg"
	 xmlns="http://www.w3.org/2000/svg" xmlns:xlink="http://www.w3.org/1999/xlink" x="0px" y="0px" viewBox="0 0 591 597.5"
	 style="enable-background:new 0 0 591 597.5;" xml:space="preserve">
<g id="Ebene_2_1_" transform="matrix(0.9759274,0,0,0.9759274,5.9999917,8.383883)">
	<path id="path2747" style="fill:none;stroke:#000000;stroke-width:4;stroke-miterlimit:10;" d="M252.3,597.1
		c-2.5-1-5.2-3.7-6.1-6.2c-1.9-4.9,6.2-16.7,15.7-23c5.8-3.8,7.6-6.3,9.9-13.2c2.7-8.5,4.2-30.9,2.5-39c-0.8-3.8-1.4-12.6-1.4-21.5
		c0-18.4-2.9-52.5-5.6-66c-1.1-5.5-2.9-14.9-4-21c-2.1-11.3-5.1-21.1-7.7-25.5c-7.5-12.4-13.9-20.4-23.2-29.2
		c-10.3-9.7-14.2-12.4-16.2-11.1c-3.7,2.3-5,16.3-2.3,23.2c1.4,3.5,1.4,4.2,0,7.3c-0.9,1.9-2.3,4.5-3.3,6c-4.8,7.1-6,8.7-9.3,12.9
		c-3.3,4.1-11,16.4-11,17.6c0,0.9-10.1,17.6-12.6,20.9c-1.3,1.7-2.4,3.5-2.4,4s-0.8,1.8-1.8,2.9s-3.9,5.4-6.5,9.6s-6.5,10-8.7,13
		s-4.9,7.3-6.1,9.5c-1.1,2.2-3.8,6.1-6,8.7c-4.7,5.7-11.7,18.7-13.3,24.8c-0.6,2.5-0.9,5.8-0.5,7.5c1.2,5.8-1.9,10.5-6.9,10.5
		c-2.5,0-4.3,3.3-8.1,15.1c-1.8,5.6-4,10.2-5.9,12.4c-2.3,2.6-3.2,4.8-3.7,9.2c-0.4,3.2-1.1,6.8-1.6,8.1
		c-1.3,3.4-17.3,22.6-22.3,26.7c-6.1,5-11.3,5.1-18.4,0.6c-12.4-8-10.8-17.4,5.4-31.1c14.5-12.3,22.3-24.3,25.6-39.1
		c2-9.3,6.6-24.7,7.9-26.3c0.4-0.6,1.6-3.3,2.6-6c1-2.8,2.9-6.5,4.1-8.4c1.3-1.9,2.3-3.9,2.3-4.6c0-1.2,5.1-11.3,16-32
		c5.9-11.2,9.9-21,17.5-43c2.9-8.3,6.4-18.4,8-22.5c2.6-7.1,2.7-8.1,2.3-21.5c-0.4-13.9-0.5-14.2-5.1-26
		c-11.2-28.9-12.7-35.8-13.6-61.6l-0.6-17.6l-3.9-6.4c-2.2-3.5-5.9-8.9-8.3-11.8c-6.7-8.2-7.6-10.5-6.9-17c0.6-5.2,0.4-6-2.9-11.4
		c-1.9-3.2-3.5-6.2-3.5-6.7c0-2.4-13.1-10-19.8-11.5c-4.1-0.9-8.1,1.2-16.2,8.7c-3.6,3.3-9.7,8-13.7,10.4c-6.6,4.1-8.1,4.6-15.4,5.2
		c-9.8,0.8-12.3-0.1-12.7-4.8c-0.4-4.1,2.3-7.4,7.6-9c7.6-2.3,12.9-7.2,11.5-10.7c-0.3-0.7-4.4-1.1-11.6-1
		c-10.4,0-11.8-0.2-18.5-3.1C11.2,177.8-0.2,166.8,0,160.2c0-1.7,1.1-4.8,2.4-7c2.5-4.2,18.4-20.7,25.6-26.5c2.4-1.9,5-4.8,5.9-6.5
		c2.4-4.4,4.3-16.7,3.3-21.1c-1.5-6.6,3.7-13.9,17.8-24.7c19.5-15,31-20.4,46.2-21.8c23.7-2.1,27.5-1.2,42.6,10.7
		c6.7,5.3,9.8,6.4,17.7,6.4c23.6,0,42.5,16.1,35.3,30c-0.8,1.6-1.8,4.9-2.1,7.3c-0.6,4.2-0.4,4.5,6.7,12.8c4,4.6,7.7,8.7,8.4,9.1
		c1.8,1,22.6,2.1,41.1,2.3c9.3,0.1,21.8,0.8,27.7,1.6c13.2,1.8,17.6,1,36.3-6.1c7.2-2.7,15.3-5.4,18-5.9c2.8-0.5,9.7-2.5,15.5-4.4
		c28.5-9.3,70.8-15,106.2-14.4c11.9,0.2,27.7,3.6,30.8,4.8c3,1.2,8,3.3,11,4.7c5.5,2.5,8.6,3.5,17.2,5.5c4.1,1,5.4,0.8,10.9-1.3
		c13.2-5.2,19.3-16.5,24.6-24.6c13-19.9,0.1-49.5-14.7-58.6c-8.1-5-20.7-6.5-27.5-3.2c-6.2,3-9.5,5.7-9.5,8.1c0,2.8,3.4,7.1,7,8.9
		c3.3,1.7,10,14.8,10,19.4c0,4-3.5,8.1-6.9,8.1c-5.6,0-24.7-11.4-30.5-18.2c-4.1-4.8-6.6-11.8-6.6-15.4c0-1.3,0.8-6.2,3-11
		c8-17.3,23.9-27.9,43.7-29.1c10.9-0.7,26.3,4.9,33,9.1c13.7,8.5,25.3,21.9,30.6,35.1c10.8,27.3-1,57.3-6.1,65
		c-1.5,2.2-12.6,20.1-22.7,30.3c-4.5,4.5-8.5,9.1-8.8,10.2c-1,3,1.8,7.9,8.7,15.9c6.8,7.7,8.6,11.7,12.7,27.4
		c4.2,16,2.2,40.8-6.9,86.3c-1.1,5.5-2.5,14.5-3.1,20s-1.5,12.4-2,15.4c-1.7,10.2-0.4,23.5,3.7,37.9c0.8,2.9,2.2,7.7,2.9,10.6
		c3,11.7,15.6,33.4,25.2,43.5c6.8,7.2,8,10,6.3,15.8c-1.8,6.2-3.5,83.3-2,92c1.2,7.1,0.8,13.7-1,17.1c-0.5,0.9-1.5,3.9-2.1,6.6
		c-0.8,3.3-2.6,6.3-5.6,9.5c-2.4,2.5-4.3,5.1-4.3,5.7c0,0.6-1.3,2.4-3,3.9c-2.3,2.2-4,2.9-7.3,2.9c-6,0.1-7.7-1.5-7.7-7.4
		c0-2.6-0.7-6.5-1.6-8.5c-1.5-3.6-1.4-4.4,1.4-17.4c10.9-48.8,9.2-67.7-9.4-106.6c-6.2-13-8.3-16.3-15.6-24.1
		c-2.6-2.8-6.3-7.5-8.2-10.5c-6.5-10.2-11.7-14.2-11.7-9.1c0,0.9,1.4,5.3,3,9.7s4.4,11.8,6,16.5s5.4,13.3,8.5,19.2
		c5.8,11.2,6.5,14.9,4.5,21.8c-2.7,9.4-5.2,24.8-6,37c-0.6,10-1.5,15.5-3.3,21c-1.4,4.1-3,10.9-3.6,15s-1.7,9.3-2.5,11.5
		s-1.5,6.2-1.5,8.8c-0.1,6-3.1,12.2-7,14.2c-4,2.1-24,2.1-28,0.1c-4.4-2.3-4.7-4.4-1.6-14.8c1.9-6.5,1.9-6.5,9.4-9.3
		c5.1-1.9,5.7-2.5,8.8-8.5c3.3-6.4,3.4-6.6,3.9-23.5c0.6-17.6,0.5-18.9-4.6-47c-1.1-6.1-2-12.7-2-14.7c0-6.9-5.6-19.9-14.3-33.3
		c-8.5-13.1-16.7-31.5-20.2-45.1c-0.9-3.4-2.3-7.9-3.2-10c-0.9-2.1-4.1-10.9-7.1-19.4c-3-8.5-6.6-18.6-8-22.5
		c-3.6-9.9-4-19.5-1.4-26.5c1.2-3,2.1-6.4,2.1-7.6c0-3.2-3.4-5.8-6.5-5c-2.6,0.6-3.2,1.6-5.5,9.1c-1.8,5.8-5.6,10.5-8.5,10.5
		c-2.7,0-5.7-2.8-7.5-6.9c-1.7-4.1-7.7-8.1-11.9-8.1c-7,0-21.7,3.8-29.6,7.6c-8.2,3.9-13.4,8.5-20.8,18c-9.8,12.6-13.9,17.3-20.3,23
		c-7.2,6.5-25.8,20.3-27.2,20.3c-1.5,0-5.2,4.6-5.2,6.6c0,1.1,0.9,3.6,2,5.7c2.7,5,2.5,8.2-1,22.3l-3,12l1,40
		c1.4,53.2,2.6,71.3,6.1,86.3c2.5,10.8,2.5,11.6-1.1,18.9c-4.7,9.6-6.5,20-7.9,45.1c-1,17.2-1.8,19.4-7.8,21.3
		C285.5,597,254.7,598.1,252.3,597.1z M203.1,323.6c2.5-2.5,1.4-6.5-2.9-10c-2.3-1.8-7.2-6.1-11.1-9.6c-3.9-3.5-7.9-6.3-9.1-6.3
		c-5.5,0-7.8,8.2-3.6,12.7c1.2,1.3,2.6,2.3,3,2.3c0.9,0,3.4,1.7,12.2,8.2C196.9,324.8,200.9,325.7,203.1,323.6z"/>
</g>
</svg>
