<?xml version="1.0" encoding="utf-8"?>
<!-- Generator: Adobe Illustrator 22.1.0, SVG Export Plug-In . SVG Version: 6.00 Build 0)  -->
<svg version="1.1" id="Layer_1" xmlns="http://www.w3.org/2000/svg" xmlns:xlink="http://www.w3.org/1999/xlink" x="0px" y="0px"
	 viewBox="0 0 512 512" style="enable-background:new 0 0 512 512;" xml:space="preserve">
<g id="layer1" transform="translate(0,-552.36188)">
	<g id="g4830" transform="matrix(0.99685849,-0.07920318,0.07920318,0.99685849,-63.597063,33.324429)">
		
			<rect id="rect4135" x="128.5" y="599.6" transform="matrix(-1 5.355510e-06 -5.355510e-06 -1 525.4437 1585.2771)" style="fill:#FFFFFF;stroke:#000000;stroke-miterlimit:10;" width="268.5" height="386"/>
		<g id="g4752">
			<path id="path4137" style="fill:#FFFFFF;stroke:#000000;stroke-miterlimit:10;" d="M117.9,609.8H138"/>
			<path id="path4137-7" style="fill:#FFFFFF;stroke:#000000;stroke-miterlimit:10;" d="M117.9,631.1H138"/>
			<path id="path4137-7-7" style="fill:#FFFFFF;stroke:#000000;stroke-miterlimit:10;" d="M117.9,652.4H138"/>
			<path id="path4137-7-1" style="fill:#FFFFFF;stroke:#000000;stroke-miterlimit:10;" d="M117.9,673.7H138"/>
			<path id="path4137-7-9" style="fill:#FFFFFF;stroke:#000000;stroke-miterlimit:10;" d="M117.9,695H138"/>
			<path id="path4137-7-76" style="fill:#FFFFFF;stroke:#000000;stroke-miterlimit:10;" d="M117.9,716.3H138"/>
			<path id="path4137-7-6" style="fill:#FFFFFF;stroke:#000000;stroke-miterlimit:10;" d="M117.9,737.6H138"/>
			<path id="path4137-7-3" style="fill:#FFFFFF;stroke:#000000;stroke-miterlimit:10;" d="M117.9,758.9H138"/>
			<path id="path4137-7-4" style="fill:#FFFFFF;stroke:#000000;stroke-miterlimit:10;" d="M117.9,780.2H138"/>
			<path id="path4137-7-12" style="fill:#FFFFFF;stroke:#000000;stroke-miterlimit:10;" d="M117.9,801.4H138"/>
			<path id="path4137-7-90" style="fill:#FFFFFF;stroke:#000000;stroke-miterlimit:10;" d="M117.9,822.7H138"/>
			<path id="path4137-7-5" style="fill:#FFFFFF;stroke:#000000;stroke-miterlimit:10;" d="M117.9,844H138"/>
			<path id="path4137-7-96" style="fill:#FFFFFF;stroke:#000000;stroke-miterlimit:10;" d="M117.9,865.3H138"/>
			<path id="path4137-7-8" style="fill:#FFFFFF;stroke:#000000;stroke-miterlimit:10;" d="M117.9,886.6H138"/>
			<path id="path4137-7-15" style="fill:#FFFFFF;stroke:#000000;stroke-miterlimit:10;" d="M117.9,907.9H138"/>
			<path id="path4137-7-48" style="fill:#FFFFFF;stroke:#000000;stroke-miterlimit:10;" d="M117.9,929.2H138"/>
			<path id="path4137-7-30" style="fill:#FFFFFF;stroke:#000000;stroke-miterlimit:10;" d="M117.9,950.5H138"/>
			<path id="path4137-7-44" style="fill:#FFFFFF;stroke:#000000;stroke-miterlimit:10;" d="M117.9,971.8l20.1,0"/>
		</g>
		<g id="g4529">
			<path id="path4314-6" style="fill:#FFFFFF;stroke:#000000;stroke-miterlimit:10;" d="M155.7,630.8l214.1,0"/>
			<path id="path4314-1" style="fill:#FFFFFF;stroke:#000000;stroke-miterlimit:10;" d="M155.7,652.4l214.1,0"/>
			<path id="path4314-5" style="fill:#FFFFFF;stroke:#000000;stroke-miterlimit:10;" d="M155.7,674h214.1"/>
			<path id="path4314-62" style="fill:#FFFFFF;stroke:#000000;stroke-miterlimit:10;" d="M155.7,695.5h214.1"/>
			<path id="path4314-7" style="fill:#FFFFFF;stroke:#000000;stroke-miterlimit:10;" d="M155.7,717.1h214.1"/>
			<path id="path4314-57" style="fill:#FFFFFF;stroke:#000000;stroke-miterlimit:10;" d="M155.7,738.7l214.1,0"/>
			<path id="path4314-6-5" style="fill:#FFFFFF;stroke:#000000;stroke-miterlimit:10;" d="M155.7,760.3l214.1,0"/>
			<path id="path4314-1-7" style="fill:#FFFFFF;stroke:#000000;stroke-miterlimit:10;" d="M155.7,781.8l214.1,0"/>
			<path id="path4314-5-3" style="fill:#FFFFFF;stroke:#000000;stroke-miterlimit:10;" d="M155.7,803.4h214.1"/>
			<path id="path4314-62-8" style="fill:#FFFFFF;stroke:#000000;stroke-miterlimit:10;" d="M155.7,825h214.1"/>
			<path id="path4314-7-1" style="fill:#FFFFFF;stroke:#000000;stroke-miterlimit:10;" d="M155.7,846.6h214.1"/>
			<path id="path4314-57-9" style="fill:#FFFFFF;stroke:#000000;stroke-miterlimit:10;" d="M155.7,868.1l214.1,0"/>
			<path id="path4314-6-3" style="fill:#FFFFFF;stroke:#000000;stroke-miterlimit:10;" d="M155.7,889.7l214.1,0"/>
			<path id="path4314-1-8" style="fill:#FFFFFF;stroke:#000000;stroke-miterlimit:10;" d="M155.7,911.3l214.1,0"/>
			<path id="path4314-5-0" style="fill:#FFFFFF;stroke:#000000;stroke-miterlimit:10;" d="M155.7,932.9h214.1"/>
			<path id="path4314-62-88" style="fill:#FFFFFF;stroke:#000000;stroke-miterlimit:10;" d="M155.7,954.4h214.1"/>
		</g>
	</g>
</g>
</svg>
