<?xml version="1.0" encoding="utf-8"?>
<!-- Generator: Adobe Illustrator 22.1.0, SVG Export Plug-In . SVG Version: 6.00 Build 0)  -->
<svg version="1.1" id="Layer_1" xmlns="http://www.w3.org/2000/svg" xmlns:xlink="http://www.w3.org/1999/xlink" x="0px" y="0px"
	 viewBox="0 0 512 512" style="enable-background:new 0 0 512 512;" xml:space="preserve">
<path id="path3898-7-15" style="fill:none;stroke:#000000;stroke-miterlimit:10;" d="M223.5,232.5L212,266.7l6.5,54.5l4,12.6"/>
<path id="path3898-7-1" style="fill:none;stroke:#000000;stroke-miterlimit:10;" d="M211.5,235.5l-10.2,29.8l6.5,54.9l4,12.7"/>
<path id="path3898-7" style="fill:none;stroke:#000000;stroke-miterlimit:10;" d="M201.5,233.5l-18.9,30.2l10.6,51.1l6.5,11.9"/>
<path id="path3898-2" style="fill:none;stroke:#000000;stroke-miterlimit:10;" d="M269.8,239l25.9,38.5l-12.6,56.6l-7.8,13.1"/>
<path style="fill:none;stroke:#000000;stroke-miterlimit:10;" d="M250.9,228L250.9,228c-3.9,2-6.8,2.8-8.5,1.9
	c-0.1,0-0.2-0.1-0.3-0.2c-0.3-0.2-0.6-0.5-0.8-0.8C243.6,229.1,246.9,228.8,250.9,228z"/>
<path style="fill:none;stroke:#000000;stroke-miterlimit:10;" d="M191.8,209.6c0.2,0.4,0.4,0.7,0.7,1c-2.6,3.2-6.6,5.3-11.2,5.3
	c-3.3,0-6.4-1.1-8.8-3c-3.3-2.5-5.5-6.5-5.5-10.9l0,0c0-7.7,6.4-13.9,14.3-13.9c4.8,0,9.1,2.3,11.7,5.9c-1.8,2.2-3,5-3.1,8
	c-0.8-3.8-4.1-6.7-8-6.7c-4.5,0-8.2,3.8-8.2,8.5l0,0c0,3.5,2,6.5,4.9,7.8c1,0.5,2.1,0.7,3.3,0.7c2.1,0,4-0.8,5.5-2.2
	s2.4-3.3,2.6-5.4C190.3,206.5,190.9,208.1,191.8,209.6z"/>
<path style="fill:none;stroke:#000000;stroke-miterlimit:10;" d="M187.9,201.1c0,1.5-1.2,2.6-2.6,2.6s-2.6-1.2-2.6-2.6
	c0-1.4,1.2-2.6,2.6-2.6S187.9,199.6,187.9,201.1z"/>
<path style="fill:none;stroke:#000000;stroke-miterlimit:10;" d="M190.1,203.9L190.1,203.9c0,0.3,0,0.6,0,0.9
	c-0.1-0.7-0.2-1.4-0.2-2.1l0,0c0-0.2,0-0.4,0-0.6C190,202.6,190.1,203.3,190.1,203.9z"/>
<path style="fill:none;stroke:#000000;stroke-miterlimit:10;" d="M387.8,241c-27.1,1.9-61.1-3.1-91.2-0.1c-17.6-0.8-35.3-2-52.5-4.6
	c-5.6-0.9-11.3-1.9-16.6-3.4c5-0.9,9.9-1.8,14.9-2.9c-0.1,0-0.2-0.1-0.3-0.2c-0.3-0.2-0.6-0.5-0.8-0.8c0.8,0,1.7,0,2.8,0l0,0
	c1-0.1,2-0.2,3.1-0.3c1.2-0.2,2.4-0.4,3.8-0.6c0.1,0,0.2,0,0.3,0c12.6-2.4,32.3-8.8,54-17.5c5.6-0.2,11.2-0.3,16.8-0.3
	c2.1,0,4.2,0,6.3,0c19.8,0,39.5,0.7,59.1,2.4c12.9,1.2,25.9,2.6,38.2,5.6C544.3,272.9,464.4,257.5,387.8,241z"/>
<path style="fill:none;stroke:#000000;stroke-miterlimit:10;" d="M189.9,202.6L189.9,202.6c0-0.2,0-0.4,0-0.6
	c-0.8-3.8-4.1-6.7-8-6.7c-4.5,0-8.2,3.8-8.2,8.5l0,0c0,3.5,2,6.5,4.9,7.8c1,0.5,2.1,0.7,3.3,0.7c2.1,0,4-0.8,5.5-2.2
	s2.4-3.3,2.6-5.4l0,0C189.9,204.1,189.9,203.4,189.9,202.6z M185.3,203.7c-1.5,0-2.6-1.2-2.6-2.6c0-1.4,1.2-2.6,2.6-2.6
	s2.6,1.2,2.6,2.6C187.9,202.5,186.7,203.7,185.3,203.7z"/>
<path style="fill:none;stroke:#000000;stroke-miterlimit:10;" d="M187.9,201.1c0,1.5-1.2,2.6-2.6,2.6s-2.6-1.2-2.6-2.6
	c0-1.4,1.2-2.6,2.6-2.6S187.9,199.6,187.9,201.1z"/>
<path style="fill:none;stroke:#000000;stroke-miterlimit:10;" d="M190.1,203.9L190.1,203.9c0,0.3,0,0.6,0,0.9
	c-0.1-0.7-0.2-1.4-0.2-2.1l0,0c0-0.2,0-0.4,0-0.6C190,202.6,190.1,203.3,190.1,203.9z"/>
<path style="fill:none;stroke:#000000;stroke-miterlimit:10;" d="M42.2,268C25.9,275.8,28.7,274,42.2,268L42.2,268z"/>
<path style="fill:none;stroke:#000000;stroke-miterlimit:10;" d="M237.7,228c0.7,0.6,1.9,0.9,3.5,1c0.2,0.3,0.5,0.6,0.8,0.8
	c0.1,0.1,0.2,0.1,0.3,0.2c-5,1.1-9.9,2.1-14.9,2.9c-7.5,1.3-15.1,2.3-22.9,2.9c-30-22-129.2,17.8-162.3,32.3
	c14.9-7.1,45.7-22.1,99-49.4c8.5-0.9,19.1-3.4,31.2-5.7c2.4,1.9,5.5,3,8.8,3c4.5,0,8.6-2.1,11.2-5.3c2.6,3.6,6.9,5.9,11.7,5.9
	c1.4,0,2.8-0.2,4.1-0.6l0,0c2.6-0.8,5-2.3,6.7-4.3l0,0c1-1.2,1.9-2.6,2.5-4.1c5.3-0.1,10.7,0.1,16.1,0.7c4.3,0.6,8.6,1.2,12.8,1.9
	c2.9,0.5,5.8,1,8.6,1.7c-1.5,0.9-2.9,1.7-4.2,2.6c-3.8,2.4-7,4.6-9.3,6.6C237.7,224.3,236.2,226.7,237.7,228z"/>
<path style="fill:none;stroke:#000000;stroke-miterlimit:10;" d="M298.5,184c-3,3.6-6,7-9,10.3c-13.6,6.2-25.4,12.2-34.4,17.5
	c-2.9-0.7-5.7-1.2-8.6-1.7c6-11,16.1-25.5,28.9-40.6c24.8-29.3,50-49.7,56.4-45.7C338.2,127.8,323.3,154.8,298.5,184z"/>
<path style="fill:none;stroke:#000000;stroke-miterlimit:10;" d="M251.2,227.9c-0.1,0-0.2,0-0.3,0.1c-2.8,0.7-5.7,1.3-8.5,1.9
	c-0.1,0-0.2-0.1-0.3-0.2c-0.3-0.2-0.6-0.5-0.8-0.8c2.3,0.1,5.6-0.2,9.7-1C251,228,251.1,228,251.2,227.9z"/>
<path style="fill:none;stroke:#000000;stroke-miterlimit:10;" d="M218.4,202.6L218.4,202.6c0,1.8-0.3,3.4-0.9,5
	c-0.6,1.5-1.4,2.9-2.5,4.1c0.7-1.2,1-2.6,1.1-4.1v-0.2l0,0c0-4.7-3.7-8.5-8.2-8.5s-8.2,3.8-8.2,8.5l0,0c0,0.4,0,0.8,0.1,1.2
	c0.6,4.1,4,7.3,8.1,7.3c0.1,0,0.2,0,0.3,0c-1.3,0.4-2.7,0.6-4.1,0.6c-4.8,0-9.1-2.3-11.7-5.9c-0.2-0.3-0.5-0.7-0.7-1
	c-0.9-1.4-1.5-3.1-1.8-4.8l0,0c0-0.3,0-0.6,0-0.9l0,0c0-0.6-0.1-1.2-0.2-1.8c0.1-3,1.3-5.8,3.1-8c2.6-3.2,6.6-5.3,11.2-5.3
	C212,188.8,218.4,195,218.4,202.6z"/>
<path style="fill:none;stroke:#000000;stroke-miterlimit:10;" d="M190.1,203.9L190.1,203.9c0,0.3,0,0.6,0,0.9
	c-0.1-0.7-0.2-1.4-0.2-2.1l0,0c0-0.2,0-0.4,0-0.6C190,202.6,190.1,203.3,190.1,203.9z"/>
<path style="fill:none;stroke:#000000;stroke-miterlimit:10;" d="M212.8,203.4c0,1.5-1.2,2.6-2.6,2.6c-1.4,0-2.6-1.2-2.6-2.6
	c0-1.4,1.2-2.6,2.6-2.6C211.7,200.8,212.8,202,212.8,203.4z"/>
<path style="fill:none;stroke:#000000;stroke-miterlimit:10;" d="M207.9,198.8c-4.5,0-8.2,3.8-8.2,8.5l0,0c0,0.4,0,0.8,0.1,1.2
	c0.6,4.1,4,7.3,8.1,7.3c0.1,0,0.2,0,0.3,0l0,0c2.6-0.8,5-2.3,6.7-4.3l0,0c0.7-1.2,1-2.6,1.1-4.1v-0.2l0,0
	C216.1,202.6,212.4,198.8,207.9,198.8z M210.2,206c-1.4,0-2.6-1.2-2.6-2.6c0-1.4,1.2-2.6,2.6-2.6c1.5,0,2.6,1.2,2.6,2.6
	S211.7,206,210.2,206z"/>
<path style="fill:none;stroke:#000000;stroke-miterlimit:10;" d="M207.6,203.4c0-1.4,1.2-2.6,2.6-2.6c1.5,0,2.6,1.2,2.6,2.6
	c0,1.5-1.2,2.6-2.6,2.6S207.6,204.8,207.6,203.4z"/>
<path style="fill:none;stroke:#000000;stroke-miterlimit:10;" d="M215,211.6c-1.4,2.4-3.8,4.1-6.7,4.3
	C210.9,215.1,213.3,213.6,215,211.6z"/>
<path style="fill:none;stroke:#000000;stroke-miterlimit:10;" d="M187.9,201.1c0,1.5-1.2,2.6-2.6,2.6s-2.6-1.2-2.6-2.6
	c0-1.4,1.2-2.6,2.6-2.6S187.9,199.6,187.9,201.1z"/>
<path style="fill:none;stroke:#000000;stroke-miterlimit:10;" d="M212.8,203.4c0,1.5-1.2,2.6-2.6,2.6c-1.4,0-2.6-1.2-2.6-2.6
	c0-1.4,1.2-2.6,2.6-2.6C211.7,200.8,212.8,202,212.8,203.4z"/>
<path id="path3842" style="fill:none;stroke:#000000;stroke-miterlimit:10;" d="M193.2,226c4.1,6.1,11.7,9.3,19.3,7.4
	c3-0.8,5.6-2.3,7.7-4.2c-0.7,0.2-1.4,0.4-2.1,0.6C209.3,232,200.4,230.4,193.2,226z"/>
<path id="rect3847" style="fill:none;stroke:#000000;stroke-miterlimit:10;" d="M374.8,212.1c-1.2,0-2.3,0.1-3.4,0.4
	c-0.4,0.1-0.8-0.7-0.7-0.4c0,9.1,0.1,19.2,0.1,28.2c-0.6,1.1,1.4,0.5,2.1,0.7c1.2,0.1,2.4,0.2,3.6,0.1c1.2,0,2.4-0.1,3.5-0.5
	c1,0.3,0.4-0.8,0.4-1.2c0-8.9,0-17.7,0-26.6c-0.4-0.6-1.4-0.5-2.1-0.7C377.1,212.1,375.9,212.1,374.8,212.1L374.8,212.1z"/>
<path id="rect3847-0" style="fill:none;stroke:#000000;stroke-miterlimit:10;" d="M402,214.5c-1-0.2-2.3-0.5-3.1,0
	c-1.5,8.6-3,17.3-4.5,25.9c-0.5,1.8,1.7,1.3,2.9,1.4c1.2,0.4,2.4,0.6,3.7,0.6c0.5,0,0.6,0.7,1.1-0.6c1.5-8.5,3-16.9,4.4-25.4
	c0.8-1.9-1.3-0.9-2-1.2C403.6,214.9,402.8,214.7,402,214.5L402,214.5z"/>
<path id="rect3847-9" style="fill:none;stroke:#000000;stroke-miterlimit:10;" d="M428.8,220.9c-0.6-0.1-1.5-1.6-1.9,0.4
	c-3,8.2-5.9,16.4-8.9,24.6c-0.8,1.1,1,0.9,1.6,1.2c1.1,0.3,2.3,0.6,3.4,0.3c0.1,0.9,0.5-0.8,0.7-1.1c2.9-7.9,5.7-15.9,8.6-23.8
	c-0.2-0.7-1.2-0.9-1.9-1.2C429.9,221.1,429.4,220.9,428.8,220.9L428.8,220.9z"/>
<path id="path4193-7" style="fill:none;stroke:#000000;stroke-miterlimit:10;" d="M270.4,240.8c5.4-6.1,4.6-12.2,2.5-18.3
	c1.3,3.6,1.9,7,1.3,10.3C273.8,235.7,272.6,238.3,270.4,240.8z"/>
<path style="fill:none;stroke:#000000;stroke-miterlimit:10;" d="M316.2,205.8c-3.7,1.6-7.4,3.1-11,4.6c-21.7,8.8-41.4,15.1-54,17.5
	c-0.1,0-0.2,0-0.3,0c-1.4,0.3-2.6,0.5-3.8,0.6c-1.1,0.2-2.2,0.3-3.1,0.3l0,0c-1,0.1-2,0.1-2.8,0c-0.4,0-0.8,0-1.2-0.1
	c-0.2,0-0.4-0.1-0.6-0.1c-0.1,0-0.2,0-0.3-0.1c-0.1,0-0.3-0.1-0.4-0.1c-0.1,0-0.2,0-0.3-0.1c-0.1,0-0.2-0.1-0.2-0.1l0,0
	c-0.2-0.1-0.4-0.2-0.6-0.4c-0.7-0.6-0.8-1.5-0.2-2.6c0-0.1,0.1-0.2,0.1-0.3s0.1-0.2,0.1-0.3c0.1-0.1,0.1-0.2,0.2-0.3
	c0.2-0.3,0.4-0.6,0.7-0.9c0.1-0.1,0.2-0.2,0.3-0.3c0.2-0.2,0.4-0.4,0.6-0.7c0.1-0.1,0.2-0.2,0.3-0.3s0.2-0.2,0.4-0.3
	s0.3-0.3,0.5-0.4c0.2-0.2,0.3-0.3,0.5-0.5c0.6-0.5,1.2-1,1.8-1.5c0.2-0.2,0.4-0.3,0.6-0.5c1.6-1.2,3.4-2.5,5.5-3.8
	c0.5-0.3,1.1-0.7,1.6-1c0,0,0.1,0,0.1-0.1c1.3-0.8,2.7-1.7,4.1-2.5c8.9-5.3,20.8-11.4,34.4-17.5c2.8-1.3,5.7-2.6,8.7-3.8
	c38.4-16.5,73.5-26.5,78.5-22.2C381.6,172.5,354.5,189.3,316.2,205.8z"/>
<path style="fill:none;stroke:#000000;stroke-miterlimit:10;" d="M238.3,228.4c-0.2-0.1-0.4-0.2-0.6-0.4
	C237.9,228.2,238.1,228.3,238.3,228.4z"/>
<path style="fill:none;stroke:#000000;stroke-miterlimit:10;" d="M240.1,228.9c0.3,0,0.7,0.1,1.2,0.1
	C240.9,229,240.5,228.9,240.1,228.9z"/>
<path style="fill:none;stroke:#000000;stroke-miterlimit:10;" d="M244,228.9c-1,0.1-1.9,0.1-2.8,0C242.1,229,243,229,244,228.9z"/>
<path style="fill:none;stroke:#000000;stroke-miterlimit:10;" d="M247.2,228.6c-1.1,0.2-2.2,0.3-3.1,0.3
	C245,228.9,246,228.8,247.2,228.6z"/>
<path id="path3898" style="fill:none;stroke:#000000;stroke-miterlimit:10;" d="M241.4,235.9l24.9,52.7l-9.5,55.1l-5.9,13.7"/>
<path id="path3898-8" style="fill:none;stroke:#000000;stroke-miterlimit:10;" d="M253.6,236.9l33.1,43.8l-5.9,62.2l-5.9,15.1"/>
<path id="rect3847-9-4" style="fill:none;stroke:#000000;stroke-miterlimit:10;" d="M452.7,232.6c-0.7-0.1-1.9-1.5-2.3,0
	c-0.6,0.9-1,1.9-1.5,2.8c-2.6,5-5.2,10-7.7,15c-0.7,0.9,0.8,0.9,1.4,1.1c1,0.3,2.1,0.6,3.2,0.4c0.6-0.2,0.6-0.8,0.9-1.2
	c2.9-5.6,5.7-11.2,8.6-16.7c0.2-0.5-0.7-0.8-1.2-1.1C453.6,232.8,453.2,232.7,452.7,232.6L452.7,232.6z"/>
<path id="rect3847-9-4-5" style="fill:none;stroke:#000000;stroke-miterlimit:10;" d="M469.4,241c-0.7-0.1-1.4-1.7-2.2,0.4
	c-2.5,4-5.1,8-7.6,12c-0.7,0.8,0.5,0.8,1.1,1c0.9,0.3,2.2,0.5,3.1,0c0.7-0.9,1.2-1.9,1.8-2.8c2-3.1,4-6.2,5.9-9.4
	c0.2-0.6-0.7-0.9-1.3-1.1C470,241.1,469.7,241.1,469.4,241L469.4,241z"/>
<path id="path4119" style="fill:none;stroke:#000000;stroke-miterlimit:10;" d="M355.8,212.1l4.7-11.4"/>
<path id="path4121" style="fill:none;stroke:#000000;stroke-miterlimit:10;" d="M353.1,214.3l-2.2-11.8"/>
<path id="path4123" style="fill:none;stroke:#000000;stroke-miterlimit:10;" d="M360.3,213l4.9-12"/>
<path id="path4125" style="fill:none;stroke:#000000;stroke-miterlimit:10;" d="M386.5,216.1l-2.9-10.7"/>
<path id="path4127" style="fill:none;stroke:#000000;stroke-miterlimit:10;" d="M388.5,214.5l3.8-6.7"/>
<path id="path4129" style="fill:none;stroke:#000000;stroke-miterlimit:10;" d="M392.1,216.1l5.1-10"/>
<path id="path4131" style="fill:none;stroke:#000000;stroke-miterlimit:10;" d="M410.1,215.6v-9.8"/>
<path id="path4133" style="fill:none;stroke:#000000;stroke-miterlimit:10;" d="M413.5,216.5c0.1-0.4,0.3-0.7,0.4-1.1"/>
<path id="path4135" style="fill:none;stroke:#000000;stroke-miterlimit:10;" d="M419.9,207.9l-2.2,9.3"/>
<path id="path4137" style="fill:none;stroke:#000000;stroke-miterlimit:10;" d="M413.9,215.4l1.1-7.8"/>
<path id="path4139" style="fill:none;stroke:#000000;stroke-miterlimit:10;" d="M437.5,228.4v-13.2"/>
<path id="path4141" style="fill:none;stroke:#000000;stroke-miterlimit:10;" d="M441.1,225.7l3.5-4.9"/>
<path id="path4143" style="fill:none;stroke:#000000;stroke-miterlimit:10;" d="M442.6,225.2l7.3-4.5"/>
<path id="path4145" style="fill:none;stroke:#000000;stroke-miterlimit:10;" d="M458.6,237.5l-0.4-12.2"/>
<path id="path4147" style="fill:none;stroke:#000000;stroke-miterlimit:10;" d="M461.5,234.8c0.8-1,0.7-0.5,0.7-1.3"/>
<path id="path4149" style="fill:none;stroke:#000000;stroke-miterlimit:10;" d="M463.8,228.6l-1.1,10.2"/>
<path id="path4151" style="fill:none;stroke:#000000;stroke-miterlimit:10;" d="M473.1,246.4l4.5-7.8"/>
<path id="path4153" style="fill:none;stroke:#000000;stroke-miterlimit:10;" d="M475.8,247.9l6-3.1"/>
<path id="path4155" style="fill:none;stroke:#000000;stroke-miterlimit:10;" d="M477.3,249.7l7.6-2"/>
<path id="path4157" style="fill:none;stroke:#000000;stroke-miterlimit:10;" d="M479.8,255l1.3,6.7"/>
<path id="path4159" style="fill:none;stroke:#000000;stroke-miterlimit:10;" d="M475.8,254.2l-2.2,4.9"/>
<path id="path4161" style="fill:none;stroke:#000000;stroke-miterlimit:10;" d="M470.7,253.5l-2.9,5.1"/>
<path id="path4163" style="fill:none;stroke:#000000;stroke-miterlimit:10;" d="M454.2,252.4l1.8,6.2"/>
<path id="path4165" style="fill:none;stroke:#000000;stroke-miterlimit:10;" d="M452.6,251.5l-4.5,4.7"/>
<path id="path4167" style="fill:none;stroke:#000000;stroke-miterlimit:10;" d="M436.8,247.3l-0.7,9.6"/>
<path id="path4169" style="fill:none;stroke:#000000;stroke-miterlimit:10;" d="M431.3,247.5L427,253"/>
<path id="path4171" style="fill:none;stroke:#000000;stroke-miterlimit:10;" d="M433,247.9l-0.7,7.8"/>
<path id="path4173" style="fill:none;stroke:#000000;stroke-miterlimit:10;" d="M408.1,242.1l-3.6,5.8"/>
<path id="path4175" style="fill:none;stroke:#000000;stroke-miterlimit:10;" d="M410.1,242.8c0,1.4,0,2.8,0,4.2"/>
<path id="path4177" style="fill:none;stroke:#000000;stroke-miterlimit:10;" d="M410.1,250.6l4-8.2"/>
<path id="path4179" style="fill:none;stroke:#000000;stroke-miterlimit:10;" d="M390.3,236.8l-0.9,8.2"/>
<path id="path4181" style="fill:none;stroke:#000000;stroke-miterlimit:10;" d="M386.5,236.6"/>
<path id="path4183" style="fill:none;stroke:#000000;stroke-miterlimit:10;" d="M382.5,244.4l2.7-8.7"/>
<path id="path4185" style="fill:none;stroke:#000000;stroke-miterlimit:10;" d="M361.1,237l4.5,8.2"/>
<path id="path4187" style="fill:none;stroke:#000000;stroke-miterlimit:10;" d="M356.5,235.7l1.1,7.3"/>
<path id="path4189" style="fill:none;stroke:#000000;stroke-miterlimit:10;" d="M351.6,236.6l-2.7,7.3"/>
<path id="path4193-7-4" style="fill:none;stroke:#000000;stroke-miterlimit:10;" d="M287.2,240.6c5.4-6.1,4.6-12.2,2.5-18.3
	c1.3,3.6,1.9,7,1.3,10.3C290.6,235.4,289.3,238.1,287.2,240.6z"/>
<path id="path4193-7-2" style="fill:none;stroke:#000000;stroke-miterlimit:10;" d="M302.3,239.9c5.4-6.1,4.6-12.2,2.5-18.3
	c1.3,3.6,1.9,7,1.3,10.3C305.7,234.7,304.5,237.4,302.3,239.9z"/>
<path id="path4193-7-3" style="fill:none;stroke:#000000;stroke-miterlimit:10;" d="M317.5,239c5.4-6.1,4.6-12.2,2.5-18.3
	c1.3,3.6,1.9,7,1.3,10.3C320.8,233.8,319.6,236.5,317.5,239z"/>
<path id="path4193-7-22" style="fill:none;stroke:#000000;stroke-miterlimit:10;" d="M333.3,239.7c5.4-6.1,4.6-12.2,2.5-18.3
	c1.3,3.6,1.9,7,1.3,10.3C336.7,234.5,335.4,237.2,333.3,239.7z"/>
<path id="path4193-7-1" style="fill:none;stroke:#000000;stroke-miterlimit:10;" d="M347.7,240.6c5.4-6.1,4.6-12.2,2.5-18.3
	c1.3,3.6,1.9,7,1.3,10.3C351.1,235.4,349.9,238.1,347.7,240.6z"/>
<path id="path4193-7-6" style="fill:none;stroke:#000000;stroke-miterlimit:10;" d="M362.7,241.3c5.4-6.1,4.6-12.2,2.5-18.3
	c1.3,3.6,1.9,7,1.3,10.3C366.1,236.1,364.9,238.8,362.7,241.3z"/>
<path id="path4193-7-8" style="fill:none;stroke:#000000;stroke-miterlimit:10;" d="M383.8,240.8c4.6-4.8,3.8-9.5,2.1-14.3
	c1.1,2.8,1.6,5.5,1.1,8C386.6,236.7,385.6,238.8,383.8,240.8z"/>
<path id="path4193-7-7" style="fill:none;stroke:#000000;stroke-miterlimit:10;" d="M406.7,244.3c5.1-3.3,6.3-8.2,6.7-13.2
	c-0.2,3-0.8,5.7-2,8.1C410.3,241.2,408.8,242.9,406.7,244.3z"/>
<path id="path4193-7-61" style="fill:none;stroke:#000000;stroke-miterlimit:10;" d="M425.3,248.7c5.4-3.2,6.1-7.9,5.9-12.8
	c0.2,2.9-0.2,5.5-1.3,7.8C429,245.7,427.5,247.4,425.3,248.7L425.3,248.7z"/>
<path id="path4193-7-89" style="fill:none;stroke:#000000;stroke-miterlimit:10;" d="M438.3,251.2c5-3.6,5.2-8,4.4-12.4
	c0.5,2.7,0.5,5.1-0.4,7.3C441.6,248,440.3,249.7,438.3,251.2L438.3,251.2z"/>
<path id="path4193-7-27" style="fill:none;stroke:#000000;stroke-miterlimit:10;" d="M451.4,252.6c3.2-2.2,3.9-6,4.1-10
	c-0.1,2.4-0.5,4.6-1.2,6.3C453.6,250.4,452.7,251.7,451.4,252.6z"/>
<path id="path4193-7-9" style="fill:none;stroke:#000000;stroke-miterlimit:10;" d="M468.3,256.4c6.3-1.5,6.5-4.1,5.4-6.9
	c0.7,1.7,0.7,3.2-0.3,4.4C472.5,254.9,470.8,255.7,468.3,256.4z"/>
<path id="path4336" style="fill:none;stroke:#000000;stroke-miterlimit:10;" d="M210.4,232.9c0,0.6-1.2,1-2.7,1s-2.7-0.4-2.7-1
	s1.2-1,2.7-1S210.4,232.3,210.4,232.9z"/>
<path id="path4338" style="fill:none;stroke:#000000;stroke-miterlimit:10;" d="M154.7,222.4c0.2,1.3-3.1,2.6-7.3,3
	s-7.8-0.3-7.9-1.6c-0.2-1.3,3.1-2.6,7.3-3S154.5,221.2,154.7,222.4z"/>
</svg>
