<?xml version="1.0" encoding="utf-8"?>
<!-- Generator: Adobe Illustrator 22.1.0, SVG Export Plug-In . SVG Version: 6.00 Build 0)  -->
<svg version="1.1" id="Layer_1" xmlns="http://www.w3.org/2000/svg" xmlns:xlink="http://www.w3.org/1999/xlink" x="0px" y="0px"
	 viewBox="0 0 512 512" style="enable-background:new 0 0 512 512;" xml:space="preserve">
<path style="fill:none;stroke:#000000;stroke-width:2;stroke-miterlimit:10;" d="M462.4,337.9L462.4,337.9
	c-8.7,0.4-17.9,1.2-26.5,2.9c-7.7,1.5-14.5,5-20.7,9.7c-0.2,0-0.3,0.1-0.5,0.2c-0.5,0.4-1,0.8-1.4,1.2c-0.9,0.4-1.8,0.8-2.6,1.4
	c-0.2,0.1-0.3,0.2-0.5,0.4l0,0c-4.1,3.4-7.8,7.6-13.1,9.2c-1,0.3-1.6,1.5-2.3,1.6c-2.4,0.3-4.8,0.3-7.2,0.1
	c-6.6-0.5-11-6.2-14.6-11.1c-5.8-7.8-9-17.3-16.5-23.8c-6.7-5.8-15.8-7-24-4.3c-9.7,3.1-15.1,11.9-20.5,19.8c-3.5,5-6.5,9.8-12,12.8
	c-5.1,2.8-10.7,2.4-16,0.8c-10.4-3.2-16.9-11.8-22.3-21c0.2-0.8-0.4-1.7-1.2-2.1c-2.5-4.5-4.8-9-7.2-13.2
	c-4.2-7.3-8.8-13.2-16.9-16.2c-7.8-2.9-17.4-2-24.5,2.2c-7.4,4.4-12.1,12.1-15.9,19.6c-4,7.8-6.2,17.2-15.4,20.1
	c-1.4,0.4-2.8,0.7-4.2,0.8c-0.7-0.4-1.7-0.4-2.2,0.1c-6.9,0-13.9-2.9-19.6-6.2c-8.4-5-15.1-12.3-19.9-20.8c-2.2-3.9-3.9-8-5.2-12.2
	c0.5-0.9,0.3-2.1-0.7-2.5c-1.4-5.7-1.9-11.6-1.5-17.6c0.9-12.2,6.8-23.6,12.9-34c6.6-11.3,14.5-21.7,19.3-34
	c4.4-11.3,6.2-24.5,3.3-36.4c-4.3-17.7-17.4-32.5-34.1-39.1c-0.2-0.3-0.6-0.5-1.1-0.6c-5.1-0.8-8.9-5.7-11.9-9.5
	c-3.3-4.1-5.6-8.8-8.9-12.8c-6.7-8.1-21.1-6-25.7,3.3c-1.1,2.2-1.6,4.6-2.7,6.9c-1,2-2.7,0.1-3.8-0.7c-1.2-0.8-2.5-1.2-3.8-1.7
	c-4.7-1.8-11.2-1.4-15.5,1.3c-9.5,5.9-1.7,18.3-2.8,26.6c-5.5,5.9-10.8,13.2-11.8,21.4c-1.1,8.8,4,16.6,12.4,19.7
	c8.8,3.3,18.2,1.1,26.5-2.6c12,7.6,28.2,1.1,38-9.5c3.7,1,7.2,2.8,9.4,6.1c1.3,1.9,1.1,4.6,0.8,6.8c-0.2,1.8-1.2,1.6-1.9,2.8
	c-0.6,1.1-0.1,2.8-0.3,4c-0.8,4.7-5.5,9.4-8.2,13.1c-3.4,4.7-6.5,9.5-9.5,14.5C97,253.6,89.4,273.8,87.2,295
	c-2.1,20.8,2,42.3,12.9,60.2c11.2,18.3,29.9,28.6,50.9,31.2c11,1.3,22.4,0.5,32.8-3.4c4.6-1.7,8.4-4.4,12.6-6.9
	c1.8-1.1,3.7-1.8,5.3-3.1c1.9-1.5,3.2-3.7,4.9-5.3c3.2-3.1,5.2-7.3,7.3-11.1c2.5-4.5,6.9-13.9,13.2-10.7
	c9.4,4.7,11.2,19.4,14.8,28.1c3.8,9.2,10.5,14.5,19.5,18.2c9.8,4,20.1,7.2,30.8,7.1c9.3-0.1,19.1-3.1,24.6-10.9
	c5.2-7.3,5.3-17.9,12.8-23.5c3-2.2,6.8-3.3,10.5-2.8c4.3,0.6,6.7,4,9.1,7.3c4.4,6.1,8.6,12.3,14.3,17.3c10.1,8.9,27.7,11.3,38.9,3.3
	c11.7-3.8,21.9-11.4,31.9-18.5c6.6-4.7,13.7-8.6,20.6-12.8c5-3.1,13.1-7.3,15.2-13.4C471.8,339.4,467.1,337.7,462.4,337.9z
	 M331.2,331c-0.2-0.3-0.5-0.5-0.8-0.6l0,0C330.7,330.5,331,330.7,331.2,331z M417.9,353.5c0.3-0.2,0.5-0.4,0.8-0.6
	c0.2-0.1,0.5-0.3,0.8-0.3c0.7-0.2,1.2-0.7,1.3-1.2c2.5-1.7,5.1-3.2,7.9-4.4c4.4-1.8,9-2.7,13.7-3.3c-0.6,6.9-3.6,11.9-11.1,12.5l0,0
	c-4.8,0.4-9.7-0.6-14.6-1.6C417.3,354.1,417.6,353.8,417.9,353.5z M363.3,345c1.9,3.3,3.7,6.6,5.6,9.3c2.5,3.6,5.4,7.4,8.9,10.2
	c-3.3,2.8-10-0.7-12.6-3l0,0C360.7,357.7,361.2,350.3,363.3,345z M361,341c-0.1,0.1-0.2,0.2-0.2,0.4c-3.5,6.8-4.3,16.3,1.1,22.3
	c-5.4-5.9-4.6-15.5-1.1-22.3C360.8,341.3,360.9,341.1,361,341c-1.5-2.5-3.2-4.8-5.1-6.8C357.8,336.2,359.5,338.6,361,341z
	 M314.4,348.3c3.8-5.6,7.4-11.7,12.8-15.9c0.1-0.1,0.3-0.2,0.4-0.3l0,0l0,0c0,4.9-0.7,10-2.7,14.4c-2.5,5.6-6.7,5.5-11.1,2.7
	C314,348.9,314.2,348.6,314.4,348.3z M270.7,355.5c1,0.9,2.1,1.8,3.3,2.6l0,0c-4.2,4.2-10.5,2.8-14.8-1.1c-5.4-5-4.3-11.5-0.1-16.3
	C262.3,346,265.9,351.2,270.7,355.5z M244.8,316.4c4.9,6.4,8.4,13.7,12.3,20.7c-6.5,6.4-7.4,15.6-0.6,22.6l0,0
	c-6.8-7-5.9-16.1,0.6-22.6C253.2,330,249.7,322.8,244.8,316.4c-0.5-0.6-1-1.2-1.6-1.8C243.8,315.2,244.3,315.8,244.8,316.4z
	 M212.7,312.6c0,0,0-0.1,0.1-0.1c1.4-1,3-1.8,4.7-2.4c4.9-1.8,10.9-2.1,16.2-0.7c-0.8,7.5-1.8,16.1-10.2,18.5l0,0
	c-4,1.2-9.2,0.6-11.7-3.1C209.2,321.1,210.8,316.1,212.7,312.6z M210.3,328.6c-2.7-2.7-3.8-6.7-3.3-10.9l0,0
	C206.5,321.9,207.6,325.9,210.3,328.6z M163.3,351.1c3.1,1.1,6.3,1.7,9.6,1.8c-2.9,6.5-11.8,5.2-17.9,2.4l0,0
	c-7.2-3.4-13.9-10.2-13.9-18.3C147.3,343.1,154.9,348,163.3,351.1z M137.7,333.2c-1.3,6.9,1.2,13.2,5.7,18.1
	C139,346.4,136.4,340.1,137.7,333.2c-4.6-5.5-8.3-11.9-10.8-19c-0.4-1.2-0.8-2.5-1.2-3.7l0,0c0.4,1.2,0.7,2.5,1.2,3.7
	C129.4,321.3,133.1,327.7,137.7,333.2z M124.6,282.4L124.6,282.4c-1.8,7.9-1.7,15.9,0,23.7c-10.8-4.1-15.5-15.8-14.8-27.2
	c0.7-11.4,10.6-12.7,19.6-10.7C127.4,272.8,125.7,277.5,124.6,282.4z M138.3,251.4c-2.6,4.3-5.1,8.7-7.3,13.2
	c-5.2-1.3-10.8-2-15.9-0.1c-5.5,2.1-8.2,7.3-9,12.8c-1.3,9.2,1.5,19,7.5,25.7c-6-6.7-8.8-16.4-7.5-25.7c0.8-5.6,3.5-10.7,9-12.8
	c5.1-1.9,10.7-1.3,15.9,0.1C133.2,260.1,135.7,255.7,138.3,251.4c4.8-7.8,10.2-15.4,14.3-23.6l0,0
	C148.5,236.1,143.1,243.6,138.3,251.4z M147.2,224.6c-5-5.2-5.1-14.3-3.8-21.6c0.8-4.5,2.7-12.3,8.2-13.3c2.2-0.4,4.5-0.4,6.2,1.2
	c0.3,0.2,0.5,0.5,0.7,0.8c-0.2-0.3-0.5-0.5-0.7-0.8c-1.8-1.6-4-1.6-6.2-1.2c-5.5,1-7.3,8.9-8.2,13.3
	C142,210.3,142.1,219.4,147.2,224.6z M155.8,220.7L155.8,220.7c-0.4,1.2-1,2.5-1.5,3.7c-8.7-2.5-8.5-12.8-7.3-20.3
	c0.5-3.2,2.6-13,7.8-10.5c1.4,0.7,2.2,2.7,3.1,3.9c0.7,0.9,1.5,1.5,2.4,2C160.1,206.7,158.2,214,155.8,220.7z M159.1,186.3
	c0.7,2.6,1.1,5.2,1.2,7.9l0,0C160.2,191.5,159.8,188.9,159.1,186.3c-2.3-8.7-6.6-16.7-12.5-23.1
	C152.5,169.6,156.8,177.6,159.1,186.3z M120.3,147.3c-0.2-0.3-0.3-0.6-0.4-1l0,0C120,146.7,120.1,147,120.3,147.3z M108.5,132.6
	c2.1,3.3,4.8,7.4,8,10.7C113.3,140,110.6,135.9,108.5,132.6c-1.4-2.3-2.9-4.9-4.9-7C105.6,127.6,107.1,130.3,108.5,132.6z
	 M101.4,174.2L101.4,174.2L101.4,174.2L101.4,174.2z M101.5,174.2L101.5,174.2C101.5,174.2,101.6,174.2,101.5,174.2L101.5,174.2
	C101.6,174.3,101.5,174.3,101.5,174.2z M100.4,170.5c-1,0.1-1.6,1.5-1.3,2.4c0.1,0.3,0.2,0.5,0.3,0.7c-0.2-0.2-0.3-0.4-0.4-0.7
	C98.8,171.9,99.4,170.6,100.4,170.5c2-0.3,3.4,0.5,4.5,1.7C103.8,171,102.4,170.2,100.4,170.5z M98.8,152.7
	c-6.7,1.4-11.9-4.5-12.7-10.9c-0.8-6.2,3.6-13.8,10.8-12.4C105.8,131,109,152.5,98.8,152.7L98.8,152.7z M67,184.6
	c-0.7,0.8-2,0.7-2.7,0c-0.7-0.8-0.7-2,0-2.7c0,0,0.1-0.1,0.1-0.2l0.1-0.1c0,0,0-0.1,0.1-0.1c0-0.1,0-0.1,0.1-0.2
	c0.3-1,1.3-1.6,2.4-1.3c1,0.3,1.7,1.4,1.3,2.4l0,0C68,183.1,67.6,183.9,67,184.6z M46.8,184.3c0.6-0.9,1.7-1.2,2.6-0.7
	c0.9,0.5,1.7,1.1,2.5,1.7c0.8,0.6,1.3,1.6,0.7,2.6l0,0c-0.5,0.8-1.8,1.3-2.6,0.7s-1.6-1.2-2.5-1.7C46.5,186.5,46.3,185.2,46.8,184.3
	z M59.5,147.2c1.7-3.7,7.3-4.3,8.9-0.2c1.1,2.9,1,7.8-1.3,10.2l0,0c-0.3,0.3-0.5,0.7-0.5,1C61,160.2,57,152.7,59.5,147.2z
	 M56.9,144.1c-0.9,1.3-1.5,2.9-1.8,4.5l0,0C55.3,146.9,55.9,145.4,56.9,144.1c2.9-4.1,10.2-5.4,13.7-1.2
	C67.1,138.7,59.8,140,56.9,144.1z M56.3,157L56.3,157c0.4,0.8,0.9,1.5,1.4,2.1l0,0C57.2,158.5,56.7,157.8,56.3,157z M77.6,194.5
	c-6.3,2.7-13,4-19.4,3.1c-3.9-0.6-7.3-2.3-9.7-4.8c2.5,2.5,5.9,4.2,9.7,4.8C64.6,198.5,71.3,197.2,77.6,194.5
	c0.3-1.1,1.4-1.9,2.5-1.2c8.9-4.4,16.8-11.6,21.6-18.9l0,0c-4.8,7.4-12.7,14.5-21.6,18.9C79,192.6,77.9,193.4,77.6,194.5z
	 M115.9,183.9c-0.7,0.2-1.2,0.9-1.3,1.5c-7.9,8.7-20.6,14.3-30.7,9.9l0,0c10.2,4.4,22.8-1.3,30.7-9.9
	C114.7,184.7,115.2,184.1,115.9,183.9c2.8-3.4,4.8-7.2,5.7-11c0.4-1.8,2.6-1.7,3.5-0.5c-0.8-1.2-3-1.3-3.4,0.5
	C120.7,176.7,118.6,180.5,115.9,183.9z M120.1,184.7L120.1,184.7c3.3,1.1,6.6,2.9,8.8,5.5C126.7,187.6,123.4,185.8,120.1,184.7z
	 M222.3,341.2c-4.4,1.3-7.1,5.5-9.5,9.2c-2.5,4-4.5,8.2-7.1,12.2c-2.8,4.3-6.9,7.7-11.4,10c-4.9,2.6-8.9,5.6-14.2,7.4
	c-5.9,2-12.3,2.8-18.6,3c-11.2,0.3-23.4-2.1-33.5-7.1c-6.6-3.3-12.3-7.7-17-12.8c4.8,5.2,10.4,9.5,17,12.8c10,5,22.3,7.4,33.5,7.1
	c6.2-0.2,12.6-1,18.6-3c5.3-1.8,9.4-4.8,14.2-7.4c4.5-2.4,8.6-5.7,11.4-10c2.6-3.9,4.6-8.2,7.1-12.2
	C215.1,346.7,217.8,342.5,222.3,341.2c3.5-1,7.3,1.1,9.7,3.5c0.5,0.4,0.9,0.9,1.3,1.4c-0.4-0.5-0.8-0.9-1.3-1.3
	C229.6,342.3,225.7,340.2,222.3,341.2z M336.9,357.9c-6.9,0.3-13.6,5.3-16.3,11.6c-1.8,4.3-3.1,8.7-5.1,12.8
	c-2.7,5.7-6.5,8.9-12.5,11c-10.9,3.8-22.8,1.3-33.4-2.3c-5-1.7-10.3-3.5-14.7-6.4c-1.9-1.2-3.5-2.8-4.9-4.5c1.4,1.7,3,3.2,4.9,4.5
	c4.5,2.9,9.7,4.7,14.7,6.4c10.6,3.6,22.5,6.1,33.4,2.3c5.9-2.1,9.8-5.3,12.5-11c2-4.2,3.3-8.6,5.1-12.8
	C323.3,363.2,330,358.2,336.9,357.9c5.4-0.3,9,2,12.1,5.2C345.9,359.8,342.3,357.6,336.9,357.9z M466.5,343
	c-0.2,1.8-1.9,3.4-3.1,4.6c-4.6,4.6-10.9,7.8-16.5,11c-6.1,3.6-12,7.3-17.8,11.4c-7.7,5.4-15.5,11-24.1,14.5c-0.7-0.6-1.8-0.9-2.6,0
	c-0.6,0.6-1.3,1.1-1.9,1.7c-2.1,0.7-4.3,1.2-6.5,1.6c-1.2,0.2-1.5,1.2-1.3,2.1c-6.1,1.5-12.9,0.8-18.6-1.3
	c-4.3-1.6-7.9-4.4-11.1-7.8c3.2,3.4,6.8,6.2,11.1,7.8c5.7,2.1,12.5,2.8,18.6,1.3c-0.2-0.9,0.1-1.9,1.3-2.1c2.2-0.4,4.4-0.9,6.5-1.6
	c0.7-0.5,1.3-1,1.9-1.7c0.9-0.9,1.9-0.6,2.6,0c8.7-3.6,16.5-9.1,24.1-14.5c5.8-4.1,11.7-7.9,17.8-11.4c5.6-3.2,11.9-6.5,16.5-11
	C464.6,346.4,466.3,344.8,466.5,343c0-0.4,0-0.6-0.2-0.8C466.5,342.4,466.6,342.6,466.5,343z"/>
<path style="fill:none;stroke:#000000;stroke-width:2;stroke-miterlimit:10;" d="M442.5,343.6c-0.6,6.9-3.6,11.9-11.1,12.5
	c-4.9,0.4-9.8-0.6-14.6-1.6c0.4-0.3,0.7-0.6,1.1-1c0.3-0.2,0.5-0.4,0.8-0.6c0.2-0.1,0.5-0.3,0.8-0.3c0.7-0.2,1.2-0.7,1.3-1.2
	c2.5-1.7,5.1-3.2,7.9-4.4C433.2,345.1,437.8,344.2,442.5,343.6L442.5,343.6z"/>
<path style="fill:none;stroke:#000000;stroke-width:2;stroke-miterlimit:10;" d="M377.8,364.6c-3.3,2.8-10-0.7-12.6-3
	c-4.5-3.9-3.9-11.3-1.8-16.6c1.9,3.3,3.7,6.6,5.6,9.3C371.4,357.9,374.3,361.8,377.8,364.6L377.8,364.6z"/>
<path style="fill:none;stroke:#000000;stroke-width:2;stroke-miterlimit:10;" d="M327.7,332.1L327.7,332.1c0,4.9-0.7,10-2.7,14.5
	c-2.5,5.6-6.7,5.5-11.1,2.7c0.2-0.3,0.4-0.6,0.7-1c3.8-5.6,7.4-11.7,12.8-15.9C327.4,332.3,327.5,332.2,327.7,332.1L327.7,332.1z"/>
<path style="fill:none;stroke:#000000;stroke-width:2;stroke-miterlimit:10;" d="M270.7,355.5c1,0.9,2.1,1.8,3.3,2.6
	c-4.2,4.2-10.5,2.8-14.8-1.1c-5.4-5-4.3-11.5-0.1-16.3C262.3,346,265.9,351.2,270.7,355.5L270.7,355.5z"/>
<path style="fill:none;stroke:#000000;stroke-width:2;stroke-miterlimit:10;" d="M233.6,309.3c-0.8,7.5-1.8,16.1-10.2,18.5
	c-4,1.2-9.2,0.6-11.7-3.1s-0.9-8.7,1-12.2c0,0,0-0.1,0.1-0.1c1.4-1,3-1.8,4.7-2.4C222.3,308.2,228.3,307.9,233.6,309.3L233.6,309.3z
	"/>
<path style="fill:none;stroke:#000000;stroke-width:2;stroke-miterlimit:10;" d="M172.9,352.9c-2.9,6.5-11.8,5.2-17.9,2.4
	c-7.2-3.4-13.8-10.2-13.9-18.3c6.2,6.2,13.7,11,22.1,14.1C166.4,352.2,169.7,352.8,172.9,352.9L172.9,352.9z"/>
<path style="fill:none;stroke:#000000;stroke-width:2;stroke-miterlimit:10;" d="M160.4,199.4c-0.3,7.3-2.1,14.7-4.6,21.3
	c-0.5,1.2-1,2.5-1.5,3.7c-8.7-2.5-8.5-12.8-7.3-20.3c0.5-3.2,2.6-13,7.8-10.5c1.4,0.7,2.2,2.7,3.1,3.9
	C158.7,198.2,159.5,198.8,160.4,199.4L160.4,199.4z"/>
<path style="fill:none;stroke:#000000;stroke-width:2;stroke-miterlimit:10;" d="M129.4,268.3c-2,4.6-3.6,9.3-4.7,14.1
	c-1.8,7.9-1.7,15.9,0,23.7c-10.8-4.1-15.5-15.8-14.8-27.2C110.5,267.5,120.4,266.2,129.4,268.3L129.4,268.3z"/>
<path style="fill:none;stroke:#000000;stroke-width:2;stroke-miterlimit:10;" d="M96.8,133.2c4,1.1,6.3,13.6,2.7,15.4
	c-0.2,0-0.4,0-0.7,0.1c-0.2,0.1-0.4,0.1-0.7,0.2c-0.1,0-0.2,0.1-0.4,0.1C87.8,150.8,87.4,130.6,96.8,133.2L96.8,133.2z M98.7,142.1
	c0-0.8-0.3-1.5-0.8-2.1c-0.9-1-2.5-1.2-3.6-0.3c-0.6,0.2-1.1,0.7-1.3,1.3c-0.3,1.3,0.2,2.5,1.3,3.3c0.5,0.3,1,0.4,1.6,0.5
	c0.7,0,1.4-0.3,1.9-0.8C98.4,143.6,98.6,142.8,98.7,142.1L98.7,142.1z"/>
<path style="fill:none;stroke:#000000;stroke-width:2;stroke-miterlimit:10;" d="M96.9,129.3c8.9,1.7,12.2,23.2,1.9,23.4
	c-6.7,1.4-11.9-4.5-12.7-10.9C85.3,135.6,89.7,128,96.9,129.3L96.9,129.3z M99.5,148.6c3.6-1.8,1.3-14.3-2.7-15.4
	c-9.4-2.7-9,17.5,1,15.7c0.1,0,0.2-0.1,0.4-0.1c0.2,0,0.4-0.1,0.7-0.2C99,148.6,99.2,148.6,99.5,148.6L99.5,148.6z"/>
<path style="fill:none;stroke:#000000;stroke-width:2;stroke-miterlimit:10;" d="M97.8,140.1c0.5,0.6,0.9,1.3,0.8,2.1
	c0,0.7-0.2,1.5-0.8,2c-0.6,0.4-1.2,0.8-1.9,0.8c-0.5,0-1.1-0.1-1.6-0.5c-1.1-0.8-1.7-1.9-1.3-3.3c0.2-0.7,0.7-1.1,1.3-1.3
	C95.3,138.9,97,139,97.8,140.1L97.8,140.1z"/>
<path style="fill:none;stroke:#000000;stroke-width:2;stroke-miterlimit:10;" d="M68.4,146.9c1.1,2.9,1,7.8-1.3,10.2
	c-0.3,0.3-0.5,0.7-0.5,1c-5.6,2-9.6-5.5-7.1-11C61.2,143.5,66.8,142.9,68.4,146.9L68.4,146.9z M67,152.6c0.5-1.4-0.3-3.1-1.6-3.7
	c-0.7-0.3-1.5-0.5-2.3-0.2c-0.8,0.2-1.5,0.8-1.8,1.5c-0.4,0.9-0.3,2,0.7,2.6c0.2,0.5,0.6,0.9,1.1,1.2c0.6,0.4,1.4,0.5,2.1,0.4
	C66.1,154.1,66.7,153.4,67,152.6L67,152.6z"/>
<path style="fill:none;stroke:#000000;stroke-width:2;stroke-miterlimit:10;" d="M66.9,179.9c1,0.3,1.7,1.4,1.3,2.4
	c-0.3,0.9-0.7,1.6-1.3,2.3c-0.7,0.8-2,0.7-2.7,0c-0.7-0.8-0.7-2,0-2.7c0,0,0.1-0.1,0.1-0.2l0.1-0.1c0,0,0-0.1,0.1-0.1
	c0-0.1,0-0.1,0.1-0.2C64.9,180.2,65.9,179.6,66.9,179.9L66.9,179.9z"/>
<path style="fill:none;stroke:#000000;stroke-width:2;stroke-miterlimit:10;" d="M65.4,148.9c1.3,0.6,2.1,2.3,1.6,3.7
	c-0.3,0.8-0.9,1.6-1.8,1.8c-0.7,0.2-1.5,0-2.1-0.4c-0.4-0.3-0.8-0.7-1.1-1.2c-1-0.6-1.1-1.7-0.7-2.6c0.3-0.7,1.1-1.3,1.8-1.5
	C63.9,148.4,64.6,148.6,65.4,148.9L65.4,148.9z M65.4,151.9c0,0.1-0.1,0.2-0.1,0.2c-0.1,0.1-0.1,0.1-0.2,0.2
	c0.1-0.1,0.1-0.2,0.2-0.2C65.4,152.1,65.4,152,65.4,151.9L65.4,151.9z"/>
<path style="fill:none;stroke:#000000;stroke-width:2;stroke-miterlimit:10;" d="M51.9,185.3c0.8,0.6,1.3,1.6,0.7,2.6
	c-0.5,0.8-1.8,1.3-2.6,0.7s-1.6-1.2-2.5-1.7s-1.2-1.8-0.7-2.6c0.6-0.9,1.7-1.2,2.6-0.7S51.1,184.7,51.9,185.3L51.9,185.3z"/>
<path style="fill:none;stroke:#000000;stroke-width:2;stroke-miterlimit:10;" d="M52,199c1.7,12.4,5.9,19.7,14,23
	c-6.3-7.4-9.6-14.3-7.2-20.3"/>
<path style="fill:none;stroke:#000000;stroke-width:2;stroke-miterlimit:10;" d="M76,199c1.7,12.4,5.9,17.7,14,21
	c-6.3-7.4-9.6-14.3-7.2-20.3"/>
</svg>
