<?xml version="1.0" encoding="utf-8"?>
<!-- Generator: Adobe Illustrator 22.1.0, SVG Export Plug-In . SVG Version: 6.00 Build 0)  -->
<svg version="1.1" id="Layer_1" xmlns="http://www.w3.org/2000/svg" xmlns:xlink="http://www.w3.org/1999/xlink" x="0px" y="0px"
	 viewBox="0 0 612 792" style="enable-background:new 0 0 612 792;" xml:space="preserve">
<path style="fill:none;stroke:#020202;stroke-width:3;stroke-miterlimit:10;" d="M-12,395c10.4-1.8,20.8-3.7,31.3-5.4
	c5.2-0.8,10.5-1.2,15.8-1.7c0.9-0.1,2.1-0.6,2.7,0.5c0.6,1.2-0.6,1.8-1.2,2.5c-8.4,10.3-15.7,21.4-23.2,32.9
	c10.9-1.9,19.5-7,27.7-13.4s7.2-7.3,12,2.8c7.3,15.3,11.2,31.7,13.3,48.8c-2.7-0.1-4.2-1.9-5.9-2.9c-9.1-5.8-18.7-10.5-29.2-13
	c-4.4-1-5-0.4-3.6,4c8.1,25.6,25.5,40.2,52.1,44c14.3,2,28.5,2.4,42.2-3.1c13.5-5.4,23.3-14.4,27.3-28.8
	c3.7-13.6-5.3-25.7-19.3-26.1c-5.3-0.2-10.7-0.5-15.8,1.3c-14.6,4.9-17.7,16.3-15.9,30.3c0.1,1,0.5,1.9,0.7,3
	c-22.8-6.6-34.2-31.4-23-50.1c6.3-10.5,16.3-15.5,28.1-17.5c10.6-1.8,20.8-0.2,30.9,2.7c0.6,0.2,1.3,0.3,1.9,0.4
	c0.3,0,0.6-0.1,1.3-0.3c-2.9-9.5-5.5-18.9-5.8-28.9c-0.3-11.6,2.1-22.3,8.8-32c1.5-2.2,2.6-3.3,5.2-0.9c3.6,3.4,7.8,6.2,11.7,9.3
	c15.2,12.5,20.4,27.8,16.8,50.1c4.6-2.4,9-4.5,13.2-6.9c13.4-7.8,26.8-5.8,39.8,0.6c15.7,7.8,18.8,27.8,7,42.1
	c-2.9,3.5-6.2,6.4-9.8,9.2c-2.8,2.1-3.9,2.4-4.4-1.8c-1.3-9.6-5.5-17.2-15.9-19.1c-6.2-1.2-12.6-1.2-18.7,1
	c-12.9,4.8-16.9,21.8-7.7,32.7c8.3,9.8,19.5,14.9,31.7,17.4c23.2,4.8,45.2,1.3,64.8-12.8c10.4-7.5,17.5-17.5,19.6-30.6
	c0.7-4.5,0.3-5-4.2-3.6c-7.8,2.4-14.8,6.4-21.6,10.8c-3,1.9-6.1,3.2-10,3c0-17.5,0-35,0-52.4c0-2,1-1.9,2.5-2.1
	c3.1-0.3,5.5,1.1,7.8,2.7c4.7,3.4,9.2,7.1,13.8,10.7c2.6,2,5.4,3.8,9.5,4.6c-4.1-15.3-14.3-27.4-19.4-42.2c1.7,0,2.8,0,4,0
	c21.2,0,42.3,0,64.1,0c-5.1,14.7-15,26.7-19.3,41.9c4-0.2,6.7-2.2,9.4-4.2c4.5-3.4,8.9-7,13.4-10.3c1.6-1.2,3.3-2.3,5.1-2.9
	c4.3-1.3,5.5-0.3,5.5,4.2c0,15.3-0.2,30.7,0.1,46c0.1,4.2-1.3,4.6-4.7,3.8c-1.7-0.4-3-1.3-4.4-2.2c-7.2-4.4-14.4-8.8-22.5-11.3
	c-4.7-1.5-5.1-1.1-4.2,3.8c2.7,16,12.4,27,26.1,34.4c27.7,14.9,55.4,15.1,82.4-2c7.1-4.5,12.6-10.7,12.3-20.3
	c-0.4-10.9-5.3-18.1-16.2-20.1c-13.6-2.4-25-0.2-29.3,12.7c-0.6,1.9-1.5,3.8-1.5,5.7c0,5.8-2.4,4-5.2,1.8
	c-7.6-6-14.3-12.7-15.9-22.7c-2.4-15,6.1-26.6,21.4-31.2c12.1-3.7,23.4-2.8,34.3,3.7c3.5,2.1,7.2,3.8,11.1,5.8
	c-1.6-12.5-1.9-24.3,4.2-35.4c6.1-11,16.4-17.6,25.9-25.2c1.9-1.5,2.3,0.4,2.9,1.3c5.4,7.1,8.5,15.2,9.3,24.2
	c1.1,12.9-1.3,25.3-5.9,38.1c7.5-1.9,14.2-3.7,21.1-4.1c13-0.8,25.2,1.4,35.2,10.4c16.5,15,13.9,39-5.4,52.3
	c-3.3,2.3-6.8,4.4-11.2,5.7c1.5-5.5,1.8-10.9,0.8-16.1c-2-10.7-10.2-17.7-21.6-18.6c-4.9-0.4-9.9-0.7-14.9,0.7
	c-11.7,3.3-17.8,13.6-14.6,25.3c3.5,12.7,11.4,22,23.3,26.9c26.2,10.8,51.9,8.8,75.9-6.3c12.2-7.7,18.5-20.1,22.9-33.4
	c1.1-3.2,0-4.1-3.4-3.3c-10.6,2.5-20.2,7-29.3,12.9c-1.8,1.1-3.6,2.3-5.9,3.7c-0.4-7.2,1.5-13.5,3-19.8c2.5-10.8,5.4-21.5,10.7-31.3
	c4.1-7.7,3.1-7.3,9.9-2c7.2,5.5,14.3,10.8,23.1,13.1c1.7,0.5,3.4,0.9,5.9,1.5c-8.2-12.6-16.1-24.7-25.8-36.1
	c9-0.4,17.4,1.3,25.8,2.5c8.5,1.3,16.8,3.8,25.4,4.5c0.3,0.3,0.7,0.7,1,1c0,0.3,0,0.7,0,1c-4.4,9.5-6.6,19.9-11.9,29.1
	c-0.7,1.2,0,2.1,0.5,3.2c6.3,12.7,5.4,18.7-5.7,27c-6.2,4.6-9.9,10.4-12.9,17.2c-3.5,8-6.6,16.2-8.6,24.7c-2.8,12-4.9,23.9,1.8,35.7
	c3.5,6.3,1,14.3-5.1,17.9c-11.5,6.8-22.3,14.4-32.1,23.3c-2.3,2.1-4.8,2.4-7.8,1.1c-4.5-1.9-9.2-3.7-13.8-5.3
	c-36.3-12.3-74.1-17.1-112-20.9c-22.8-2.3-45.8-3.4-68.7-4.2c-63-2.2-125.8-0.2-188.3,8.1c-31.7,4.2-63.1,9.7-92.8,22.2
	c-3.3,1.4-6.1,1.2-8.7-1.2c-9.5-8.9-20.2-16.1-31.3-22.8c-7.1-4.3-9.1-12.7-4.9-19.9c2.8-4.8,3.7-9.8,3.7-15.2c0-7.2-1-14.3-3.3-21
	C20.3,481,17.1,465.3,3,455c-9.6-7-10.3-14.2-4.7-24.8c0.6-1.2,2-2.4,1-4C-6.4,417-8.6,406.5-13,397c0-0.3,0-0.7,0-1
	C-12.7,395.7-12.3,395.3-12,395z M442.7,534.8c8.9,0,18.2-2.2,24.1-5.6c11.9-6.8,12.8-17.4,2-25.8c-13.7-10.7-41.3-12.4-56.1-3.4
	c-11,6.7-11.6,16.9-1.5,25C420.7,532.5,431.9,534.1,442.7,534.8z M176.3,494c-10.4,0.6-20.8,2.3-29.8,8.5c-4.6,3.2-8.6,6.9-8.7,13.1
	c-0.1,8.5,5.9,12.3,12.4,15.1c10.5,4.5,21.5,5,32.6,2.8c7.4-1.4,14.3-3.9,20.2-8.7c9.7-7.9,9.1-18.2-1.7-24.7
	C193.8,495.6,185.3,494.4,176.3,494z M306.9,526c5.3-6.5,10.1-12.6,15.2-18.5c1.3-1.5,0.6-2.2-0.3-3.3c-4.4-5.4-8.9-10.7-13.2-16.2
	c-1.6-2.1-2.3-1.3-3.5,0.3c-4.1,5.2-8.2,10.4-12.6,15.4c-1.8,2-1.3,3.1,0.2,4.9C297.4,514.1,301.9,519.8,306.9,526z M53.4,553.2
	c1.6-5,3-9.7,4.5-14.4c0.6-1.8,0-3-1.7-4.1c-5-2.9-9.8-6.1-15.1-9.4c-1.7,5.3-3.3,10.3-4.9,15.3c-0.5,1.5,0.4,2,1.5,2.6
	C42.9,546.6,48,549.8,53.4,553.2z M560.6,553.2c2.2-1.4,4.1-2.4,5.8-3.6c3.8-2.6,9.8-3.9,10.9-7.8c1.1-3.8-2.1-8.7-3.4-13.1
	c0-0.2-0.1-0.3-0.1-0.5c-0.5-2.7-1.7-2.5-3.7-1.2c-4.6,3.2-11.3,5.1-13.6,9.4c-2.3,4.2,2.4,10.1,3.5,15.4
	C560.1,552.2,560.3,552.5,560.6,553.2z M102.4,550c4.3,0,8.2-2.9,8.4-6.2c0.1-3.1-3.9-6.5-8-6.7c-4.2-0.2-8.7,3.3-8.7,6.6
	C94.1,546.8,98.2,550,102.4,550z M511.6,550c4.2-0.1,8.3-3.2,8.3-6.4c0-3.3-4.6-6.7-8.7-6.6c-4.1,0.2-8.1,3.6-8,6.7
	C503.4,547.1,507.4,550.1,511.6,550z M96.6,512c-4.3,0-8.3,2.8-8.5,6c-0.2,3.3,4.2,6.8,8.5,6.7c4-0.1,8.3-3.4,8.2-6.5
	C104.8,515,100.9,512,96.6,512z M517.6,524.8c4,0,8.2-3.3,8.3-6.5c0.1-3.4-4.1-6.4-8.7-6.3c-4.3,0.1-8.2,3.2-8,6.5
	C509.3,521.6,513.6,524.8,517.6,524.8z M14.9,446.4c-0.7-3.7-1.7-7.5-4.6-10.5c-1.5-1.6-3.2-2.5-5.3-1.8c-2.3,0.7-2.6,3.1-2.6,4.9
	c0.1,4.2,1.6,8,4.7,11c1.5,1.4,3.1,2.7,5.3,1.6C14.4,450.7,14.6,448.6,14.9,446.4z M599.2,445.9c-0.1,4.8,2.6,7.2,5.9,5.5
	c4-2.1,7.4-9.6,6.2-14.1c-1-3.7-3.6-4.7-6.6-2.3C601.1,437.9,599.9,442,599.2,445.9z M239.8,505.5c4.5,0,8.2-2.8,8.2-6.2
	c0-3.5-3.5-6.2-8.1-6.3c-4.9,0-8,2.4-8.1,6.1C231.8,502.7,235.3,505.5,239.8,505.5z M382.2,499.4c0.1-3.7-2.8-6.2-7.3-6.4
	c-4.8-0.2-8.7,2.4-8.8,6c-0.1,3.5,3.3,6.4,7.9,6.5C378.4,505.6,382.1,502.9,382.2,499.4z M252.2,525.3c0-3.7-3.3-6.3-8-6.3
	c-4.4,0-8.2,2.9-8.2,6.2s3.9,6.5,8.1,6.5C248.3,531.8,252.2,528.7,252.2,525.3z M369.8,519c-4.7,0-8.1,2.5-8.1,6.2
	c0,3.4,3.8,6.5,8,6.5s8.2-3.1,8.2-6.5C378,522,374.2,519,369.8,519z M307.1,423.9c3.1-0.9,6.8-1.6,6.7-5.7c-0.1-3.7-3.1-5.1-6.6-5.2
	c-3.7-0.1-6.9,1.1-7.1,5.1C299.9,422.3,303.6,423.1,307.1,423.9z"/>
<path style="fill:none;stroke:#020202;stroke-width:3;stroke-miterlimit:10;" d="M256,612c-6-2-12.2-1.7-18.4-2
	c-24.1-1.2-48.1-3-72-5.8c-23-2.6-46-5.7-68.5-11.3c-5.6-1.4-11.2-2.9-16.4-5.5c-4.9-2.5-5-4.8-0.2-7.6c8.1-4.7,17.2-6.8,26.1-8.9
	c25.8-5.9,52.1-9.3,78.4-12.3c54.7-6.1,109.6-6.9,164.5-5.6c26.7,0.7,53.4,2.7,80,5.6c30,3.3,59.8,7.1,88.9,15.2
	c5.4,1.5,10.8,3.1,15.6,6.1c4.3,2.7,4.2,4.6-0.3,7c-9,4.8-19,6.7-28.8,8.6c-28.2,5.5-56.6,8.9-85.2,11.3
	c-20.6,1.7-41.1,2.8-61.7,3.9c-0.8,0-1.7-0.1-1.9,1c-8.3,0-16.7,0-25,0c-5.3-1.7-10.7-1.6-16,0c-5.3,0-10.7,0-16,0
	c-5.7-1.5-11.3-1.7-17,0C273.3,612,264.7,612,256,612z"/>
<path style="fill:none;stroke:#020202;stroke-width:3;stroke-miterlimit:10;" d="M329,181c-0.6,7.8-6.5,12.4-10.8,17.8
	c-3.9,4.9-6,9.7-4.4,16.5c6-3,12-6,18-8.9c1.6-0.8,3.2-1.9,4.9-2.4c3.3-1,5.6-0.9,5.3,3.8c-0.4,7.1-0.1,14.3-0.1,21.5
	c0,4.9-0.9,5.5-5.6,3.6c-7.5-3.1-14.8-6.5-23-10.1c0,5.4,0,10.4,0,15.5c0,2.4,2.1,2.3,3.6,2.6c5.8,1.2,10.9,3.8,15.5,7.4
	c10.7,8.6,11.7,23.4,2.3,33.4c-13.5,14.2-41.2,14.5-55.1,0.5c-10-10-9.2-25.3,1.9-34.1c4.4-3.5,9.4-6.4,15.1-7.1
	c4.6-0.6,6-2.6,5.4-7c-0.5-3.9-0.1-7.9-0.1-12.4c-7,3.1-13.5,5.9-19.9,8.8c-1.2,0.5-2.4,1.3-3.7,1.5c-3.1,0.6-5.7,0.9-5.4-4
	c0.4-7.6,0.1-15.3,0.1-23c0-4.4,1.5-5.5,5.8-3.7c3.7,1.5,7.1,3.5,10.7,5.3c3.8,1.9,7.7,3.8,12,5.9c0.7-4.2,0.8-7.5-2.2-10.8
	c-3.6-3.9-6.4-8.5-9.8-12.5c-2.1-2.5-3-5-2.6-8.2C301,181,315,181,329,181z M285.1,276.7c9,11.9,31.7,11.9,39.3,3.6
	C311.9,273.6,299,272.4,285.1,276.7z M315.7,262.2c4.6,0.1,15-3.5,14.3-4.8c-2.4-4.8-6.9-7.2-11.6-9.4c-4.1-1.9-5.6-0.8-5.1,3.7
	c0.3,2.8,0.1,5.6,0.1,8.4C313.3,261.7,313.8,262.7,315.7,262.2z M302,254.7c0-9.1-0.7-9.6-8.9-5.5c-3.2,1.6-7.9,3.6-7.7,6.8
	c0.1,2.8,5.3,3.4,8.4,4.5C302,263.3,302,263.2,302,254.7z"/>
<path style="fill:#1D1D1D;" d="M282,612c5.7-1.7,11.3-1.5,17,0C293.3,612,287.7,612,282,612z"/>
<path style="fill:#1D1D1D;" d="M315,612c5.3-1.6,10.7-1.7,16,0C325.7,612,320.3,612,315,612z"/>
<path style="fill:none;stroke:#020202;stroke-width:3;stroke-miterlimit:10;" d="M627,396c-0.3-0.3-0.7-0.7-1-1c0.3,0,0.7,0,1,0
	C627,395.3,627,395.7,627,396z"/>
<path style="fill:none;stroke:#020202;stroke-width:3;stroke-miterlimit:10;" d="M-12,395c-0.3,0.3-0.7,0.7-1,1c0-0.3,0-0.7,0-1
	C-12.7,395-12.3,395-12,395z"/>
<path style="fill:none;stroke:#020202;stroke-width:3;stroke-miterlimit:10;" d="M278.5,357.3c-5,1.6-6.6-1.4-7.9-6.6
	c-3.3-13-8.3-25.4-15.3-36.9c-1.3-2.2-2.3-3.4-5.3-2.9c-28.2,3.9-55.7,10.9-82.6,20.2c-35.1,12.1-68.8,27.1-99.8,47.7
	c-7.6,5-7.4,5-15.1-0.2c-2.9-1.9-3.2-2.8-0.2-5c11.7-8.5,24.1-15.7,36.9-22.4c42.6-22,87.3-38.1,134.2-47.8
	c11.8-2.4,23.8-4.3,35.8-5.5c2.5-0.2,3.6,0.2,5,2.5c9.7,16.3,16.6,33.7,21.8,51.9c1.3,4.8,0.1,5.8-4.3,5.2
	C281,357.2,280.2,357.3,278.5,357.3z"/>
<path style="fill:none;stroke:#020202;stroke-width:3;stroke-miterlimit:10;" d="M356.1,298c28.2,3.1,56.2,9.4,83.6,18.1
	c39.3,12.5,77,28.5,111.9,50.7c3.8,2.4,7.3,5.1,11,7.6c1.8,1.2,1.7,2.2-0.1,3.2c-0.1,0.1-0.3,0.2-0.4,0.3c-8,6.1-7.9,6-16.3,0.5
	c-35.6-23.3-74.4-39.9-114.9-52.4c-22-6.8-44.3-12.1-67.1-15.1c-2.6-0.3-3.8,0.2-5.1,2.4c-7.1,12-12.4,24.8-15.7,38.3
	c-1.1,4.4-2.6,6.1-7.5,5.8c-8.9-0.5-8.9-0.2-6.7-8.6c4.6-17.4,12-33.5,20.8-49.1C351.5,296.8,353.5,298,356.1,298z"/>
<path style="fill:none;stroke:#020202;stroke-width:3;stroke-miterlimit:10;" d="M371.8,295.4c-2-0.2-3.3-0.2-4.6-0.4
	c-5.8-1-10.6-5.7-11.1-10.6s3-9.5,9.1-11.6c4.3-1.5,8.8-1.5,13.1,0c6.1,2.2,9.2,6.3,8.8,11.6c-0.3,4.6-5,9.4-10.5,10.5
	C374.8,295.3,372.9,295.3,371.8,295.4z"/>
<path style="fill:none;stroke:#020202;stroke-width:3;stroke-miterlimit:10;" d="M243.4,271.8c0.5,0,1.8,0,3.1,0.2
	c6.5,1,11.7,6.4,11.5,11.8c-0.2,5.3-5.3,10.3-11.6,11.1c-6.7,0.9-12.9,0.2-17.5-5.6c-2.5-3.2-2.8-6.7-1-10.2
	C231,273.5,236.4,271.7,243.4,271.8z"/>
<path style="fill:none;stroke:#020202;stroke-width:3;stroke-miterlimit:10;" d="M200.6,302c-1.5-0.3-3.1-0.6-4.7-1
	c-5.3-1.4-8.9-5.4-9.1-9.8c-0.2-4.9,2.5-8.4,8.3-10.3c4.7-1.6,9.5-1.4,13.9,0.9c3.8,1.9,6.2,4.8,6.1,9.4c-0.1,4.4-2.8,6.9-6.3,8.8
	C206.3,301.3,203.5,301.7,200.6,302z"/>
<path style="fill:none;stroke:#020202;stroke-width:3;stroke-miterlimit:10;" d="M412.5,280c4.1-0.4,7,0.6,9.7,2.3
	c6.3,4,6.6,11.5,0.8,16.2c-4.9,3.9-13.2,4.4-18.7,1c-4-2.4-6.3-5.9-5.4-10.8c0.7-4,5.4-8,10.4-8.7C410.7,279.9,412,280,412.5,280z"
	/>
<path style="fill:none;stroke:#020202;stroke-width:3;stroke-miterlimit:10;" d="M305.5,318.1c-0.1,0-1.4,0.1-2.7-0.2
	c-5.6-1.2-9.5-6.2-8.8-10.9c0.8-5.1,7.5-9.4,13.9-8.8c1,0.1,1.9,0.4,2.9,0.7c6.4,1.7,9.9,5.6,9.2,10.5c-0.6,4.5-5.7,8.5-11.2,8.8
	C308.1,318.1,307.5,318.1,305.5,318.1z"/>
<path style="fill:none;stroke:#020202;stroke-width:3;stroke-miterlimit:10;" d="M163.2,313c-3,0.2-5.4-0.6-7.7-2
	c-6.6-4-6.4-11.8,0.4-15.6c4.2-2.3,8.7-2.3,13-0.9c3.9,1.3,7.1,4,7.2,8.5c0.1,4.8-3,7.3-7.1,9.1C166.9,312.9,165,313.1,163.2,313z"
	/>
<path style="fill:none;stroke:#020202;stroke-width:3;stroke-miterlimit:10;" d="M449.8,313c-0.5-0.1-1.8-0.1-3.1-0.4
	c-5.5-1.4-9-5.5-8.7-10c0.3-4.4,4.5-8,10-8.8c1-0.1,2-0.4,2.9-0.3c7.4,0.1,12.5,4.3,12.3,10.1C463,309,457.6,313.1,449.8,313z"/>
<path style="fill:none;stroke:#020202;stroke-width:3;stroke-miterlimit:10;" d="M130.4,324.4c-4.9-0.2-8.9-1.3-11.3-5.6
	c-1.7-3-1.2-5.9,1-8.3c3.2-3.6,7.5-4.8,12.2-4s8.8,2.9,9.6,8c0.6,4.3-2.2,6.9-6,8.8C133.9,324.2,131.9,323.7,130.4,324.4z"/>
<path style="fill:none;stroke:#020202;stroke-width:3;stroke-miterlimit:10;" d="M483.8,324.4c-7.1-0.2-12.4-4.6-11.8-9.7
	c0.6-5.2,7.6-9.4,13.9-8.3c5.6,1,9.7,4.3,9.8,8.4c0.1,4-2.2,6.7-5.9,8.4C487.8,324.2,485.7,324,483.8,324.4z"/>
<path style="fill:none;stroke:#020202;stroke-width:3;stroke-miterlimit:10;" d="M96.4,322.9c3.5-0.3,6.5,0.9,8.8,3.5
	c2.4,2.6,2.6,5.7,0.9,8.7c-3.8,6.5-16.1,6.5-20,0.1c-2.5-4-0.8-8.7,4-11.1C92.1,323,94.2,322.8,96.4,322.9z"/>
<path style="fill:none;stroke:#020202;stroke-width:3;stroke-miterlimit:10;" d="M517.4,322.9c8.6,0,13.7,5.8,10.7,11.6
	c-2.2,4.2-6.1,5.4-10.4,5.5c-4.2,0.1-7.9-1.4-10.1-5.1c-2.7-4.5,0.9-10.6,6.8-11.7C515.6,322.8,516.7,322.9,517.4,322.9z"/>
<path style="fill:none;stroke:#020202;stroke-width:3;stroke-miterlimit:10;" d="M307,341c-3.5,0.2-6.5-0.8-8.9-3.4
	c-3-3.2-2.8-7.5,0.4-10.6c4.6-4.3,13.3-4.1,17.6,0.4c3.1,3.2,2.9,7.4-0.4,10.5C313.2,340.3,310.3,341.3,307,341z"/>
<path style="fill:none;stroke:#020202;stroke-width:3;stroke-miterlimit:10;" d="M548.1,355.2c-5.8,0.1-10-2.9-10.1-7.3
	c-0.1-4.2,4.4-7.8,9.7-7.9c5.2-0.1,10.1,3.6,10.2,7.5C558.1,351.7,553.7,355.1,548.1,355.2z"/>
<path style="fill:none;stroke:#020202;stroke-width:3;stroke-miterlimit:10;" d="M65.9,355.2c-5.7,0-10.1-3.4-9.9-7.6
	c0.1-4,5-7.6,10.2-7.6c5.3,0.1,9.9,3.7,9.8,7.8C75.9,352.2,71.7,355.2,65.9,355.2z"/>
<path style="fill:none;stroke:#020202;stroke-width:3;stroke-miterlimit:10;" d="M41.5,370.9c-4.3,0-8-3.1-7.9-6.6
	c0.1-3.3,3.7-6.1,7.8-6.2c4.1,0,8.3,3.1,8.3,6.4C49.8,367.8,45.7,371,41.5,370.9z"/>
<path style="fill:none;stroke:#020202;stroke-width:3;stroke-miterlimit:10;" d="M572.5,370.9c-4.2,0.1-8.3-3-8.4-6.3
	c-0.1-3.2,4.1-6.4,8.2-6.4c4.1,0,7.7,2.8,7.9,6C580.5,367.9,577,370.9,572.5,370.9z"/>
<path style="fill:none;stroke:#020202;stroke-width:3;stroke-miterlimit:10;" d="M305.5,359.1c-2.6-0.1-6-1.2-6.5-5.8
	c-0.4-3.5,3.3-6.3,7.9-6.3c4.5,0,8.2,2.8,8.1,6.2C315,356.8,311.7,359.2,305.5,359.1z"/>
</svg>
