<?xml version="1.0" encoding="utf-8"?>
<!-- Generator: Adobe Illustrator 22.1.0, SVG Export Plug-In . SVG Version: 6.00 Build 0)  -->
<svg version="1.1" id="Layer_1" xmlns="http://www.w3.org/2000/svg" xmlns:xlink="http://www.w3.org/1999/xlink" x="0px" y="0px"
	 viewBox="0 0 612 792" style="enable-background:new 0 0 612 792;" xml:space="preserve">
<path style="fill:none;stroke:#000000;stroke-width:3;stroke-miterlimit:10;" d="M381.4,294.5c-2,2.4-1.3,4.4,2.2,4.5
	c5,0.1,10-0.1,15,0c13.8,0.5,27.3,3.5,39.6,9.5c11.5,5.6,23.1,11.9,31.6,22c6.2,7.4,13.3,7.9,21.8,6.3c16-3.1,30.3-9.9,42-21
	c14-13.3,24.4-29.2,27.6-48.9c0.5-3.2,2.3-6,1.3-9.6c-0.4-1.6,0.2-4.8,3.4-5.2c0-2.7,0-5.3,0-8c-1-0.1-2.4,0.1-2.5-1.1
	c-0.8-4.7-2.2-9.6-1.7-14.3c0.4-4.4,2.2-9,6.8-11.5c1-0.6,1.9-1.6,2.8,0c0.6-0.4,1.3-0.8,1.9-1.1c1.9-5.1,6.5-5,10.5-4.9
	c3.7,0.1,8.1,0.1,9.4,5.1c1,0.7,1.9,1.5,2.9,2.2c0.3-0.6,0.9-1.4,1.4-1c4.9,3.4,9.5,16.9,6.2,22.1c-0.2,0.3-0.9,0.4-1.3,0.5
	c0,1,0.1,2,0.1,3c4.9,3.2,4.9,8.8,0,12c-0.1,1.3-0.1,2.7-0.2,4c2.3,0.5,3,2.2,2.7,4.1c-2.3,11.5-4.8,22.9-9.1,33.9
	c-3.5,9.1-7.7,17.7-13.4,25.4c-9.8,13.2-21,25-35,34.2c-14.2,9.3-29.5,15.8-45.7,20.3c-3,0.8-3.9,2.2-3.4,4.9c0.9,5,0.6,10.2,1.2,15
	c0.7,5.3-2,10.6,0.5,15.7c1,2.2-0.3,4.6-0.8,6.8c-3.7,17.4-9.5,33.8-21.3,47.5c-1.2,1.4-1.9,3.8-4.5,3.3"/>
<path style="fill:none;stroke:#000000;stroke-width:3;stroke-miterlimit:10;" d="M548.2,583.2c1.5,3.1,2.1,6.3,2.6,9.5
	c1.1,6.4,6,3.9,9.4,4.2c3.7,0.3,4.8-2.2,4.7-5.5c-0.1-8.2-0.2-16.3,0.1-24.5c0.1-3.6,0.3-7.6,4-9.9c3.8-5.9,9.5-7.4,16-6.8
	c7.2,0.7,11.7,5.5,11.8,13c0.2,10.6,0,21.3,0.1,31.9c0,1.6-0.8,3.7,2.2,4.1"/>
<path style="fill:none;stroke:#000000;stroke-width:3;stroke-miterlimit:10;" d="M212,134c-0.3,3.7,1,8-3.7,10c0-2.9,0-5.7,0-9.7
	c-14.5,13.9-28.3,26.9-41.9,40.1c-1.4,1.4-2.7,2.2-4.4,2.8c-21.2,7-39.2,18.8-53.7,35.8c-2.1,2.4-3.4,2.5-5.9,0.8
	c-13.1-9-27.8-12.1-43.3-9.2c-32.3,6-53.2,35.9-47.8,67.6c5.5,32.1,35.2,53.2,68.3,48.1c2.7-0.4,3.8,0.2,4.5,2.9
	c3.6,13.1,9.5,25.2,17.4,36.3c1,1.4,1.9,2.7,1.3,4.5c-2.1,4.3-2.6,8.9-2.6,13.6c0,44.1-0.1,88.2,0,132.3
	c0.1,13.8,5.8,25.1,16.9,33.5c1.4,5.8,2,11-3.3,15.7c-6.1,5.4-9.2,12.7-10.8,20.8c-1.3,6.4-0.5,12.9-0.9,19.3
	c-5.7,0-11.3-0.2-17,0.1c-4.4,0.3-6-0.8-5.9-5.7c0.3-19,0.1-38,0.2-57c0-4-0.8-7.6-3-10.9c-4.8-7-14-10-22.7-7.3
	C46,520.8,41,527.5,41,536.2c-0.1,19.7-0.1,39.3,0.1,59c0,4.1-2.1,4.2-5,4c-2.6-0.2-5.8,1-5.6-3.8c0.3-8,0.2-16,0-24
	c-0.1-6.5-3.2-9.4-9.6-9.4c-6.1,0-9.5,3.3-9.6,9.6c-0.1,6-0.4,12,0.1,18c0.6,6.7-0.5,10.9-7.9,13.6"/>
<path style="fill:none;stroke:#000000;stroke-width:3;stroke-miterlimit:10;" d="M616.4,652.6c-4.3,3.7-9.5,5.1-14.4,7.4
	c-196.7,0-393.3,0-590,0c-4.7-2.2-9.8-3.6-14-7.1"/>
<path style="fill:none;stroke:#000000;stroke-width:3;stroke-miterlimit:10;" d="M624.5,660.1c-7.5-0.2-15-0.1-22.5-0.1
	c4.9-2.3,10.1-3.7,14.4-7.4"/>
<path style="fill:none;stroke:#000000;stroke-width:3;stroke-miterlimit:10;" d="M-2,652.9c4.2,3.5,9.3,4.9,14,7.1"/>
<path style="fill:none;stroke:#000000;stroke-width:3;stroke-miterlimit:10;" d="M208.3,134.3c0,4,0,6.8,0,9.7c0,1-0.1,2-0.1,3
	c-0.6,7.9-1.4,15.9-0.9,25.5c5-5.2,8.9-9.4,12.9-13.5c0.6-0.6,1.3-1.2,1.9-1.9c2.5-1.7,4.5-3.7,6.4-6c0.8-0.1,1.6-1.7,2.5-0.2
	c-0.9,3.6-0.9,7.3-0.7,11c0,0.7,0,1.3-0.1,2c0,0.7,0,1.3-0.1,2c0,1-0.1,2-0.1,3c-1.5,4.7-0.1,7.3,5.1,8.3c4,0.8,7.8,2.7,11.7,4.2
	c3.2,1.6,6.5,3.1,9.7,4.7c1.5,1.5,3.4,2.4,5.3,3.2c2,1.3,4,2.7,6,4c1.3,1,2.7,2,4,3c0.3,0.2,0.6,0.5,0.9,0.7
	c3.7,3.4,7.4,6.7,11.1,10.1c0.3,0.3,0.6,0.6,0.9,0.9c1.4,1.7,3,3.2,4.1,5c2.4,3.9,4.7,3.3,7.2,0.3c1.7-1,3.3-2,5-3
	c1.3-0.7,2.7-1.3,4-2c1.3-0.5,2.6-1,3.9-1.5c8.5-2.7,17.2-3.5,26-3.1c1,0.1,2,0.2,3,0.3c2.7,0.6,5.3,1.2,8,1.9
	c4.2,1.8,8.4,3.5,12.6,5.3c0.9,1,2,1.7,3.3,2.1c0.9,0.6,1.8,1.3,2.7,1.9c14.2,11.6,22.2,26.5,23.5,44.9c0,2.3-0.1,4.7-0.1,7
	c-1.7,12.6-5.9,24.2-14.5,33.9c-0.6,0.6-0.3,1.2-0.2,1.8c-1.7,0.3-2.9,1.4-4.2,2.6c-14.5,13.6-31.6,18.1-50.9,14.9
	c-2.7-0.4-4.5,0.1-5.2,3c-1.4,5.8-3.8,11.2-6,16.8c-5,10.5-11.2,20.3-18.9,29.1c-3.4,3.8-6.2,8.8-11.8,10.1
	c-0.6-14.9-4.8-28.8-12.9-41.4c30.4-11.7,45-31.4,43.4-58.3c-1.4-24.1-18.7-44.8-42.6-50.7c-13.7-3.4-26.8-1.6-39.3,4.8
	c-12.4,6.5-20.9,16.6-26.5,29.9c-0.9-1.9-1.5-3.2-2.2-4.6c-12.1-24.9-39.9-37.5-66.2-29.4c-22,6.8-34.8,22.3-39.5,44.7
	c-2.5,1.3-2,3.1-0.7,4.9c0,3,0,6,0.1,9c-1.4,1.6-1.7,3,0.6,3.9c5.1,23.5,19.3,38.5,42.6,45.5c-7,10.4-10.7,21.7-12.6,33.6
	c-2.8,1.7-1.8,3.8-0.6,5.9c0,0.7,0,1.3,0,2c-4.5-1.7-7-5.6-10-9c-2.1-2.4-3.7-5.4-7.3-6.1c0.5-1.8-0.3-3.1-1.3-4.5
	c-7.9-11.1-13.8-23.1-17.4-36.3c-0.7-2.7-1.8-3.3-4.5-2.9c-33.1,5.1-62.8-15.9-68.3-48.1c-5.4-31.7,15.5-61.6,47.8-67.6
	c15.5-2.9,30.2,0.2,43.3,9.2c2.6,1.8,3.9,1.7,5.9-0.8c14.5-17,32.5-28.9,53.7-35.8c1.7-0.6,3-1.4,4.4-2.8
	C180,161.2,193.7,148.2,208.3,134.3 M334.3,301.6c12.8-3.4,23-10.3,28.6-22.7c9.6-21.4-1.6-48.6-28.9-54.2c-1.3-2.7-3.1-2.1-5-0.7
	c-1,0-2,0-3,0c-2.2-1.2-4.4-2.3-6,0.8c-5.8,1.6-11.3,3.8-16.2,7.5c-2.4,1.8-2.9,3.2-1.5,6.1c8.3,16.9,12.4,34.8,11.5,53.6
	c-0.3,5.7,0.9,9.1,6.9,9.7c0.6,1,1.3,1.7,2.3,0.3c3,0,6,0,8.9,0C332.9,303.4,333.6,302.6,334.3,301.6z M73.3,301.6
	c5.5-0.8,7.1-3.6,6.7-9.4c-1.1-19,3.1-37,11.5-54c1.3-2.7,1-3.9-1.2-5.7c-12.6-10-31.1-10.9-44.9-2.1c-13.9,8.9-20.8,25.9-16.8,41.7
	c4.2,16.3,15.3,25.5,31.2,29.6c0.6,1,1.3,1.7,2.3,0.3c3,0,6,0,8.9,0C71.9,303.4,72.6,302.6,73.3,301.6z"/>
<path style="fill:none;stroke:#000000;stroke-width:3;stroke-miterlimit:10;" d="M548,599c-1.6,16.5-11.1,27.7-24.3,36.4
	c-2,1.3-4.1,2.9-6.8,2.6l0,0c18.4-19.1,6-44.5-15-47.2c-0.4-2.1-2.1-1.1-3.6-1.1h-1.6c-4.4,0-8.7,0-13.1,0c-15.6,0-31.2,0-46.7,0
	h-0.1c-0.5-0.1-0.9-0.1-1.3,0c0,0,0,0-0.1,0l0,0l0,0c-0.1,0-0.2,0-0.3,0.1c-0.1,0-0.1,0-0.2,0.1c-0.1,0-0.3,0.1-0.4,0.1
	c-0.5,0.1-0.9,0.2-1.3,0.1c-0.1,0-0.2,0-0.2-0.1c-0.1-0.1-0.3-0.2-0.4-0.3l0,0l0,0c-10.2-9.7-19.5-24-30.4-33
	c-7.4-6.1-11.9-14.1-13.4-23.7c-1.6-9.9-0.3-19.9-0.8-29.8c0-31.5,0-62.9,0.1-94.4c0-28.1,23.1-46.2,51.6-41.2
	c20.9,3.7,33.8,21.6,33.5,41.6c-0.4,19.5,0,38.9,0,58.4c0,0.8,0.1,1.7,0.1,2.5v33c-1,2.8,1.1,4.3,2.7,5.9
	c19.2,19.2,38.2,38.5,57.6,57.4C542.9,575.4,548.1,586,548,599z"/>
<path style="fill:none;stroke:#000000;stroke-width:3;stroke-miterlimit:10;" d="M517,637.9C517,638,517,638,517,637.9L517,637.9
	C516.9,638,517,638,517,637.9z"/>
<path style="fill:none;stroke:#000000;stroke-width:3;stroke-miterlimit:10;" d="M230.2,162c-0.2-3.7-0.2-7.4,0.7-11
	C235.2,153.2,234.8,159,230.2,162z"/>
<path style="fill:none;stroke:#000000;stroke-width:3;stroke-miterlimit:10;" d="M305.1,208.4c-1.3,0.7-2.7,1.3-4,2
	C301.5,207.6,302.6,206.5,305.1,208.4z"/>
<path style="fill:none;stroke:#000000;stroke-width:3;stroke-miterlimit:10;" d="M361.9,213.2c-1.3-0.4-2.4-1.1-3.3-2.1
	C360.2,211,361.9,210.8,361.9,213.2z"/>
<path style="fill:none;stroke:#000000;stroke-width:3;stroke-miterlimit:10;" d="M230.1,166c0-0.7,0-1.3,0.1-2
	c0.6,0.1,1.4,0.2,1.4,1C231.5,165.9,230.8,165.9,230.1,166z"/>
<path style="fill:none;stroke:#000000;stroke-width:3;stroke-miterlimit:10;" d="M182.9,644c-14.8,0-29.6,0.3-44.4,0
	c-16.5-0.3-32.3-15-35.5-32c-0.8-4.3-0.8-8.6-1-12.9c0.4-6.4-0.4-12.9,0.9-19.3c1.6-8,4.7-15.4,10.8-20.8c5.4-4.7,4.7-10,3.3-15.7
	c1.2-3.6,0.4-7.2,0.7-10.8c0.8-10.9,8.3-19.8,18.9-22.4c13.9-3.4,25.6,3.9,30.8,19.1c0.2,1,0.4,2,0.6,2.9c0,3,0.1,6,0.1,9
	c0,0.7,0,1.4,0,2.1c0,1.3-0.1,2.7-0.2,4c-0.4,5.1,0.3,9.5,4.5,13.3c4.1,3.8,6.5,9,8.2,14.5c2.5,8,1,16.1,1.5,24.2
	c0.1,2.6,0.1,5.1,0.2,7.7c-0.1,7.5-0.3,14.9-0.2,22.4C182.2,634.1,181.2,639.1,182.9,644z"/>
<path style="fill:none;stroke:#000000;stroke-width:3;stroke-miterlimit:10;" d="M167.4,529.1c-5.2-15.2-16.9-22.5-30.8-19.1
	c-10.6,2.6-18.1,11.6-18.9,22.4c-0.3,3.6,0.6,7.3-0.7,10.8c-11.1-8.4-16.8-19.7-16.9-33.5c-0.2-44.1-0.1-88.2,0-132.3
	c0-4.6,0.5-9.3,2.6-13.6c3.6,0.7,5.1,3.7,7.3,6.1c3,3.4,5.4,7.3,10,9c0.5,5.1,0.5,10.4,1.6,15.4c7.6,34.7,29.1,55.3,63.5,63
	c0,9.5-0.1,19-0.1,28.5c0,8.8,0.5,17.6,0,26.3c-0.7,12.3-5.8,22.6-15.8,30.2c-0.4-0.4-0.7-0.9-1.1-1.3c0-3-0.1-6-0.1-9
	C169.4,530.7,169.3,529.7,167.4,529.1z"/>
<path style="fill:none;stroke:#000000;stroke-width:3;stroke-miterlimit:10;" d="M356.1,642.3c-1,0.6-2.8,0.4-2.9,2.3
	c-8.4-1.2-16.8-0.3-25.2-0.6c-13.6,0-27.2,0.1-40.8,0c-21.1-0.1-38.9-17.8-39.2-39c0-2,0-4-0.1-6c0-3.5,0.1-6.9,0.1-10.4
	c-0.2-9.9,2.2-19.4,8.9-26.6c4.5-4.8,5.5-9.7,5.1-15.6c-0.1-1.8-0.1-3.6-0.1-5.5c0.3-5.6-0.3-11.3,2.2-16.7
	c4.5-9.6,12.2-15.1,22.7-15.2c11.7-0.1,19.7,6.1,24.2,16.8c1.7,6.3,1,12.7,1.1,19c-0.5,5.3-0.5,10.2,4.7,13.9
	c2.6,1.9,4.5,5.2,6.3,8.2c4.9,8.4,5.3,17.6,4.8,26.9c-0.2,3.6,1,5.2,4.5,5.2c-1.5,2.5-4.2,4.3-4.4,7.6c6.5,0,12.9,0,19.4,0.1
	c9.3,0.1,16.6,5.8,18.5,14.2C368,629.9,364.3,637.9,356.1,642.3z"/>
<path style="fill:none;stroke:#000000;stroke-width:3;stroke-miterlimit:10;" d="M432.6,589.6c-0.8,0-1.6,0-2.4,0H430
	c-2.3,0-4.7-0.1-7,0c-12.8,0.4-23.7,12.3-24.9,25.4c-1.3,13.1,7.3,25.2,20,28.2c-1.4,1.8-3.4,0.9-5.1,0.9c-17.9,0.1-35.9,0-53.8,0.1
	c-2,0-3.9,0.3-5.9,0.5c0.1-1.8,1.8-1.7,2.9-2.3c8.1-4.4,11.9-12.5,9.9-21.2c-1.9-8.4-9.3-14.1-18.5-14.2c-6.5-0.1-12.9-0.1-19.4-0.1
	c0.2-3.3,2.9-5,4.4-7.6c8.9-9.1,20.4-8.9,33.3-8.3c-12.4-11.4-22.1-23.3-34.2-32.8c-5.6-4.4-9.9-9.8-12.6-16.4
	c1.5-4.1,5.1-6.7,7.4-10.4c5.4-8.8,6.1-18.4,5.8-28.2c18.6,0,37.2-0.1,55.7-0.1c0.5,9.9-0.8,19.9,0.8,29.8c1.5,9.6,6,17.6,13.4,23.7
	C413,565.6,422.3,579.9,432.6,589.6L432.6,589.6z"/>
<path style="fill:none;stroke:#000000;stroke-width:3;stroke-miterlimit:10;" d="M435.4,589.6c-0.1,0-0.2,0-0.3,0.1
	c-0.1,0-0.1,0-0.2,0.1c-0.1,0-0.3,0.1-0.4,0.1c-0.5,0.1-0.9,0.2-1.3,0.1c-0.1,0-0.2,0-0.2-0.1c-0.1-0.1-0.3-0.2-0.4-0.3
	C433.5,589.6,434.5,589.6,435.4,589.6z"/>
<path style="fill:none;stroke:#000000;stroke-width:3;stroke-miterlimit:10;" d="M436.8,589.6L436.8,589.6h-0.1c-0.4,0-0.9,0-1.3,0
	l0,0c0,0,0,0,0.1,0l0,0C435.9,589.5,436.3,589.5,436.8,589.6z"/>
<path style="fill:none;stroke:#000000;stroke-width:3;stroke-miterlimit:10;" d="M436.9,589.6L436.9,589.6
	C436.9,589.7,436.8,589.8,436.9,589.6L436.9,589.6L436.9,589.6z"/>
<path style="fill:none;stroke:#000000;stroke-width:3;stroke-miterlimit:10;" d="M437,589.6L437,589.6
	C436.9,589.5,436.9,589.3,437,589.6z"/>
<path style="fill:none;stroke:#000000;stroke-width:3;stroke-miterlimit:10;" d="M257,562.1c-6.8,7.2-9.1,16.6-8.9,26.6
	c0.1,3.5,0,6.9-0.1,10.4c-21.9,0-43.9,0-65.8,0.1c-0.5-8,1-16.2-1.5-24.2c-1.7-5.5-4.1-10.8-8.2-14.5c-4.3-3.9-4.9-8.2-4.5-13.3
	c0.1-1.3,0.1-2.7,0.2-4c0.4-0.3,0.8-0.6,1.1-0.8c10-7.6,15.1-17.9,15.8-30.2c0.5-8.8,0-17.6,0-26.3c1.3-0.4,2.2,0.6,3.1,1.2
	c18,11.5,37.6,16.8,58.9,16.1c0.1,2.1,0.3,4.3,0.4,6.4c0.5,12.5,4.6,23.4,14.6,31.6c0,1.8,0,3.6,0.1,5.5
	C262.5,552.4,261.5,557.3,257,562.1z"/>
<path style="fill:none;stroke:#000000;stroke-width:3;stroke-miterlimit:10;" d="M517,637.9c-0.3,0.1-0.7,0.2-1,0.3
	c-5.4,4.4-11.5,6-18.4,6c-23.1-0.2-46.1-0.1-69.2-0.1c-3.5,0-6.9-0.2-10.3-0.9c-12.7-3-21.3-15.2-20-28.2
	c1.3-13.1,12.2-25,24.9-25.4c1.2,1.3,2.8,0,4.2,0h3c0.8,0,1.6,0,2.4,0l0,0c0.1,0.1,0.3,0.2,0.4,0.3s0.2,0.1,0.2,0.1
	c0.4,0.1,0.8,0,1.3-0.1c0.1,0,0.3-0.1,0.4-0.1s0.1,0,0.2-0.1c0.1,0,0.2-0.1,0.3-0.1l0,0c0.4,0,0.8,0,1.3,0h0.1c0,0.2,0,0.1,0.1,0
	c15.6,0,31.2,0,46.8,0c4.4,0,8.7,0,13.1,0l0,0c1.4,0,3,2.8,4.2,1.4c0.3-0.1,0.6-0.2,1-0.3C523,593.4,535.4,618.8,517,637.9z"/>
<path style="fill:none;stroke:#000000;stroke-width:3;stroke-miterlimit:10;" d="M435.5,589.6c0.4,0,0.8,0,1.2,0
	C436.3,589.6,435.8,589.6,435.5,589.6L435.5,589.6c-0.2,0-0.3,0-0.4,0.1c-0.1,0-0.1,0-0.2,0.1c-0.1,0-0.3,0.1-0.4,0.1
	c-0.5,0.1-0.9,0.2-1.3,0.1c-0.1,0-0.2,0-0.2-0.1c-0.1-0.1-0.3-0.2-0.4-0.3l0,0c-0.8,0-1.6,0-2.4,0h2.3
	C433.5,589.6,434.5,589.6,435.5,589.6L435.5,589.6z"/>
<path style="fill:none;stroke:#000000;stroke-width:3;stroke-miterlimit:10;" d="M436.8,589.6L436.8,589.6
	C436.9,589.7,436.8,589.8,436.8,589.6z"/>
<path style="fill:none;stroke:#000000;stroke-width:3;stroke-miterlimit:10;" d="M182.9,644c-1.6-4.9-0.7-9.9-0.8-14.8
	c-0.1-7.5,0.1-14.9,0.2-22.4c6.6,0.1,13.3,0.1,19.9,0.2c10.1,0.1,18.9,9,18.7,18.8s-8.7,18.2-18.6,18.3
	C195.8,644.1,189.3,644,182.9,644z"/>
<path style="fill:none;stroke:#000000;stroke-width:3;stroke-miterlimit:10;" d="M517,637.9C517,638,517,638,517,637.9
	c-0.1,1-0.5,0.9-1,0.3C516.3,638.1,516.7,638,517,637.9z"/>
<path style="fill:none;stroke:#000000;stroke-width:3;stroke-miterlimit:10;" d="M185.1,457.4c-34.4-7.7-56-28.3-63.5-63
	c-1.1-5-1.1-10.2-1.6-15.4c0-0.7,0-1.3,0-2c0.2-2,0.4-4,0.6-5.9c1.9-11.9,5.6-23.2,12.6-33.6c-23.2-7-37.5-22-42.6-45.5
	c-0.2-1.3-0.4-2.6-0.6-3.9c0-3,0-6-0.1-9c0.2-1.6,0.4-3.3,0.7-4.9c4.7-22.4,17.5-37.9,39.5-44.7c26.4-8.1,54.1,4.5,66.2,29.4
	c0.7,1.3,1.3,2.7,2.2,4.6c5.6-13.2,14.1-23.4,26.5-29.9s25.6-8.2,39.3-4.8c23.9,5.9,41.2,26.6,42.6,50.7
	c1.5,26.9-13.1,46.7-43.4,58.3c8.1,12.6,12.2,26.5,12.9,41.4c-0.3,25.3-10.1,46.1-29.4,62.4C228.5,455.3,208,460.9,185.1,457.4z
	 M199.6,432.1c22.2,0,41.7-13.3,49.6-33.9c0.5-1.2,1-2.5,1.2-3.8c0.3-2.2-0.6-3.9-2.8-4.7c-2.2-0.7-4,0-5.1,1.9
	c-0.7,1.3-1,2.8-1.7,4.2c-7.7,17-20.8,26.7-39.5,27.5c-17.6,0.7-31.1-7.2-40.2-22.2c-1.7-2.8-2.7-6.1-4.1-9.1
	c-1.1-2.3-3-3.1-5.4-2.3c-2.3,0.7-3.1,2.5-2.7,4.7c0.2,1.5,0.8,2.9,1.3,4.3C158.1,419,177.6,432.1,199.6,432.1z M238.8,282.4
	c0,7.8,6,14,13.8,14.1c7.8,0.1,14.4-6.5,14.3-14.3c-0.1-7.6-6.6-13.9-14.2-13.9C245,268.4,238.9,274.7,238.8,282.4z M161.3,282.3
	c0.1-7.8-6-14-13.7-14.2c-7.7-0.1-14.5,6.5-14.4,14.2c0.1,7.6,6.5,13.8,14.2,13.8C155.2,296.1,161.2,290.1,161.3,282.3z
	 M189.9,309.8c0.1-3.8-3-7.1-6.8-7.2c-3.9-0.1-7.1,2.9-7.2,6.8c-0.1,3.9,3,7.2,6.7,7.3C186.4,316.7,189.7,313.5,189.9,309.8z
	 M223.2,309.4c-0.1-3.9-3.2-6.9-7.1-6.9c-3.8,0.1-7,3.4-6.9,7.1s3.5,7,7.2,6.9C220.1,316.6,223.2,313.3,223.2,309.4z"/>
<path style="fill:none;stroke:#000000;stroke-width:3;stroke-miterlimit:10;" d="M326.4,531.4c-2.2,3.6-5.8,6.3-7.4,10.4
	c-0.7,0-1.4,0-2.1,0.1c-2.8-1-3.1-3.2-3-5.8c0.1-3.6,0.6-7.4-2.8-10.1c-4.6-10.7-12.5-16.9-24.2-16.8c-10.5,0.1-18.2,5.6-22.7,15.2
	c-2.5,5.3-1.9,11-2.2,16.7c-10-8.2-14.1-19.1-14.6-31.6c-0.1-2.1-0.3-4.3-0.4-6.4c0-20.5,0-41.1-0.1-61.6
	c19.4-16.3,29.2-37.1,29.4-62.4c5.7-1.3,8.5-6.2,11.9-10.1c7.7-8.7,13.9-18.5,18.9-29c9.7,2.3,15.3,9.4,20,17.4
	c3.3,5.7,5,11.8,5,18.5c-0.1,40.3,0,80.6,0,120.8c0,2.2,0.1,4.3,0.2,6.5C332.5,513,331.8,522.6,326.4,531.4z"/>
<path style="fill:none;stroke:#000000;stroke-width:3;stroke-miterlimit:10;" d="M59.8,301.7c-15.9-4.1-27-13.3-31.2-29.6
	c-4-15.7,2.9-32.7,16.8-41.7c13.7-8.8,32.3-7.9,44.9,2.1c2.2,1.8,2.5,3,1.2,5.7c-8.4,17-12.6,35.1-11.5,54c0.3,5.8-1.2,8.6-6.7,9.4
	c-0.8,0.1-1.6,0.2-2.3,0.3c-3,0-6,0-8.9,0C61.3,301.9,60.5,301.8,59.8,301.7z"/>
<path style="fill:none;stroke:#000000;stroke-width:3;stroke-miterlimit:10;" d="M326,224c1,0,2,0,3,0c1.7,0.2,3.3,0.5,5,0.7
	c27.3,5.6,38.5,32.9,28.9,54.2c-5.6,12.4-15.7,19.3-28.6,22.7c-0.8,0.1-1.5,0.2-2.3,0.3c-3,0-6,0-8.9,0c-0.8-0.1-1.5-0.2-2.3-0.3
	c-6-0.6-7.2-4-6.9-9.7c0.8-18.8-3.2-36.7-11.5-53.6c-1.4-2.9-0.9-4.3,1.5-6.1c4.9-3.6,10.4-5.8,16.2-7.5
	C322,224.5,324,224.3,326,224z"/>
<path style="fill:none;stroke:#000000;stroke-width:3;stroke-miterlimit:10;" d="M326,224c-2,0.3-4,0.5-6,0.8
	C321.6,221.7,323.8,222.8,326,224z"/>
<path style="fill:none;stroke:#000000;stroke-width:3;stroke-miterlimit:10;" d="M334,224.7c-1.7-0.2-3.3-0.5-5-0.7
	C330.9,222.6,332.6,221.9,334,224.7z"/>
<path style="fill:none;stroke:#000000;stroke-width:3;stroke-miterlimit:10;" d="M120.6,371.1c-0.2,2-0.4,4-0.6,5.9
	C118.8,374.9,117.8,372.7,120.6,371.1z"/>
<path style="fill:none;stroke:#000000;stroke-width:3;stroke-miterlimit:10;" d="M90.6,274c-0.2,1.6-0.4,3.3-0.7,4.9
	C88.6,277.1,88.1,275.4,90.6,274z"/>
<path style="fill:none;stroke:#000000;stroke-width:3;stroke-miterlimit:10;" d="M90,288c0.2,1.3,0.4,2.6,0.6,3.9
	C88.4,291,88.6,289.6,90,288z"/>
<path style="fill:none;stroke:#000000;stroke-width:3;stroke-miterlimit:10;" d="M59.8,301.7c0.8,0.1,1.5,0.2,2.3,0.3
	C61.1,303.3,60.4,302.7,59.8,301.7z"/>
<path style="fill:none;stroke:#000000;stroke-width:3;stroke-miterlimit:10;" d="M71,301.9c0.8-0.1,1.6-0.2,2.3-0.3
	C72.6,302.6,71.9,303.4,71,301.9z"/>
<path style="fill:none;stroke:#000000;stroke-width:3;stroke-miterlimit:10;" d="M332,301.9c0.8-0.1,1.5-0.2,2.3-0.3
	C333.6,302.6,332.9,303.4,332,301.9z"/>
<path style="fill:none;stroke:#000000;stroke-width:3;stroke-miterlimit:10;" d="M320.7,301.6c0.8,0.1,1.5,0.2,2.3,0.3
	C322.1,303.4,321.4,302.7,320.7,301.6z"/>
<path style="fill:none;stroke:#000000;stroke-width:3;stroke-miterlimit:10;" d="M167.4,529.1c1.9,0.6,2,1.6,0.6,2.9
	C167.8,531,167.6,530,167.4,529.1z"/>
<path style="fill:none;stroke:#000000;stroke-width:3;stroke-miterlimit:10;" d="M169.2,542.3c-0.4,0.3-0.8,0.6-1.1,0.8
	c0-0.7,0-1.4,0-2.1C168.4,541.5,168.8,541.9,169.2,542.3z"/>
<path style="fill:none;stroke:#000000;stroke-width:3;stroke-miterlimit:10;" d="M246.9,441.5c0,20.5,0,41.1,0.1,61.6
	c-21.3,0.8-41-4.6-58.9-16.1c-0.9-0.6-1.8-1.6-3.1-1.2c0-9.5,0.1-19,0.1-28.5C208,460.9,228.5,455.3,246.9,441.5z"/>
<path style="fill:none;stroke:#000000;stroke-width:3;stroke-miterlimit:10;" d="M365.8,591c-12.9-0.6-24.4-0.9-33.3,8.3
	c-3.6,0.1-4.7-1.5-4.5-5.2c0.5-9.3,0.2-18.5-4.8-26.9c-1.8-3-3.6-6.3-6.3-8.2c-5.2-3.7-5.3-8.6-4.7-13.9c2.1-0.2,3.5-1.6,4.8-3.2
	c0.7,0,1.4,0,2.1-0.1c2.7,6.6,7,12,12.6,16.4C343.7,567.7,353.4,579.6,365.8,591z"/>
<path style="fill:none;stroke:#000000;stroke-width:3;stroke-miterlimit:10;" d="M317,541.9c-1.3,1.6-2.6,2.9-4.8,3.2
	c-0.1-6.4,0.6-12.8-1.1-19c3.4,2.7,2.9,6.5,2.8,10.1C313.9,538.7,314.1,540.9,317,541.9z"/>
<path style="fill:none;stroke:#000000;stroke-width:3;stroke-miterlimit:10;" d="M199.6,432.1c-22,0-41.4-13.1-49.5-33.3
	c-0.5-1.4-1.1-2.8-1.3-4.3c-0.4-2.2,0.5-4,2.7-4.7c2.4-0.8,4.3,0,5.4,2.3c1.4,3,2.4,6.2,4.1,9.1c9.1,15.1,22.7,23,40.2,22.2
	c18.7-0.8,31.8-10.5,39.5-27.5c0.6-1.4,0.9-2.9,1.7-4.2c1.1-2,2.9-2.7,5.1-1.9c2.2,0.7,3.1,2.5,2.8,4.7c-0.2,1.3-0.7,2.6-1.2,3.8
	C241.2,418.8,221.8,432.1,199.6,432.1z"/>
<path style="fill:none;stroke:#000000;stroke-width:3;stroke-miterlimit:10;" d="M238.8,282.4c0-7.8,6.1-14,13.9-14
	c7.6-0.1,14,6.3,14.2,13.9c0.1,7.7-6.5,14.4-14.3,14.3C244.8,296.4,238.8,290.2,238.8,282.4z"/>
<path style="fill:none;stroke:#000000;stroke-width:3;stroke-miterlimit:10;" d="M161.3,282.3c-0.1,7.8-6.1,13.8-13.9,13.8
	c-7.7,0-14.1-6.2-14.2-13.8c-0.1-7.6,6.7-14.3,14.4-14.2C155.3,268.2,161.3,274.5,161.3,282.3z"/>
<path style="fill:none;stroke:#000000;stroke-width:3;stroke-miterlimit:10;" d="M189.9,309.8c-0.1,3.8-3.5,6.9-7.3,6.8
	s-6.8-3.4-6.7-7.3s3.2-6.9,7.2-6.8C186.9,302.7,190,306,189.9,309.8z"/>
<path style="fill:none;stroke:#000000;stroke-width:3;stroke-miterlimit:10;" d="M223.2,309.4c0.1,3.9-3.1,7.1-6.8,7.2
	c-3.7,0-7.1-3.2-7.2-6.9c-0.1-3.7,3.1-7.1,6.9-7.1C220,302.5,223.1,305.5,223.2,309.4z"/>
</svg>
