<?xml version="1.0" encoding="utf-8"?>
<!-- Generator: Adobe Illustrator 22.1.0, SVG Export Plug-In . SVG Version: 6.00 Build 0)  -->
<svg version="1.1" id="Layer_2" xmlns="http://www.w3.org/2000/svg" xmlns:xlink="http://www.w3.org/1999/xlink" x="0px" y="0px"
	 viewBox="0 0 612 792" style="enable-background:new 0 0 612 792;" xml:space="preserve">
<path style="fill:#050505;" d="M176,102c4,0,8,0,12,0c6.5,1.9,13.6,2.6,19.4,6.3c8.2,5.2,17.4,7.9,26.5,10.6
	c13.4,4,27.3,6.3,40.3,11.9c5.8,2.5,10.9,5.4,11.8,12.7c0.5,4.3,3.5,5.6,7.6,4.9c8-1.3,15.3-4.3,21.6-9.3c3.4-2.7,7.2-4.7,11.3-6.2
	c11.1-3.9,22.6-5.2,34.2-5.8c11.6-0.5,23.2,0,33.9,5.8c3.2,1.8,7,2.5,10.7,1.7c7.3-1.5,14.2,0.1,21.1,2
	c20.3,5.6,38.8,14.4,52.7,30.9c1.3,1.5,2.3,2.9,4.8,1.4c11-6.5,23.4-8.8,35.8-10.8c14-2.2,27.1-1.5,39,8.1
	c14.6,11.8,25.5,25.4,26.2,44.8c0.5,14.5,4.9,27.6,14.3,38.3c11.8,13.6,15.7,31.1,23.8,46.4c0.7,1.4,0.8,3.2,1.1,4.8
	c1,6.4,2,12.9,2.9,19.3c0,8.7,0,17.3,0,26c-3.7,13.9-13.4,24-22.1,34.7c-4.5,5.5-8.7,11.4-10.8,18.3c-1.7,5.8-4.2,11.1-7.6,16.1
	c-7.6,11.1-17.5,20-28.5,27.7c-3.2,2.3-4.9,4.4-3.3,8.7c2.3,6.2,4.3,12.5,5.7,18.9c1.3,6.3,2.4,13.2-1.5,18.9
	c-6.9,9.9-16.3,17.3-28.4,18.4c-10.9,1-17.7,6.4-22.4,15c-11.4,20.4-23.3,40.6-27.9,64.2c-2.4,12.3-11.1,20.5-21.9,26.2
	c-6.9,3.6-12.9,8.3-17.1,14.8c-4.7,7.3-10,14-15.5,20.7c-18.9,22.9-43.1,34.6-72.9,34.6c-5.2,0-10.3,0.2-15.5,0.4
	c-10.6,0.5-20.1,5.4-30.3,7.2c-2.6,0.5-5.6-0.7-8,1.3c-9.7,0-19.3,0-29,0c-0.6-1.5-2-0.9-3-1c-15.3-1.5-30.4-3.6-42.9-13.5
	c-14.5-11.4-30.9-18.2-48.5-22.7c-11.7-3-22.6-8.1-30-18.3c-11.3-15.8-20.6-32.7-26.7-51.3c-4.4-13.3-5.3-27.3-8.8-40.7
	c-3.1-11.8-6.4-13.8-16.9-7.8c-10.8,6.2-21.2,6.3-32,0.9c-1.8-0.9-3.6-1.7-5.5-2.3c-6.1-2.1-12.4-4.4-18.9-3.1
	c-7.9,1.7-14.8-0.1-21.1-4.7c-4.3-3.1-8.5-6.3-12.8-9.5c-8.2-6.2-14.4-13.7-14.7-24.7c0-1.8,0.8-4-1.1-5.5c0-11,0-22,0-33
	c1.7-2.7,1.1-6,1.9-8.9c2.5-9.5,5.9-18.5,14.7-23.8c3.3-2,4.9-4.5,5.2-7.8c2.5-21.6,2.7-43.3-2.7-64.4c-3.7-14.3-7.3-28.5-7.6-43.3
	c-0.3-14.1-1.1-28.3-1.2-42.4c0-4.9-0.1-10.2,2-14.7c5.9-12.8,12.4-25.2,20.5-36.8c4.5-6.4,11.3-7.8,18.6-6.8
	c10.4,1.4,10.4,1.4,10.6-9.3c0-2.8,0-5.7,0-8.5c0.4-13.2,4.1-25.4,11.6-36.3c7.8-11.4,19-18.9,30-26.7c11.6-8.3,24.4-12.3,38.7-11.6
	c5.6,0.3,11.3,0.3,17,0.1c6-0.2,12-0.7,17.1-4.2C167.4,106.7,171.7,104.3,176,102z M538.2,398.2c0.4-0.4,0.9-0.9,1.3-1.3
	c3.5-3.1,6.8-6.4,10.4-9.3c8.6-6.8,17.6-13.1,27.7-17.5c0.9-0.4,2.3-1.5,3.1-0.3c1,1.5-0.5,2.4-1.5,3.2c-4,2.7-7.8,5.7-12,8
	c-15.7,8.7-28.4,20.6-36.8,36.2c-8,14.9-17.9,28.2-28.9,40.9c-1.9,2.2-4.1,4.5-5.2,9.2c7.8-5,13.2-10.5,18.7-15.9
	c5.6-5.4,10.6-11.6,17.5-15.5c-5,9.2-34.3,39.5-42.9,44.9c-0.9,0.6-1.8,1.6-3.2,1c-2.6-1.1,0.7-3.3-0.9-4.7
	c-2.4,1.1-4.9,2.1-7.1,3.4c-3.7,2.2-5.7,2.3-4.2-3.1c-4,0.9-6.9,3.9-10.6,3.5c-4.6-0.5-8.4,1.3-12.3,3.2c-3.7,1.8-7.3,3.9-11.3,5.1
	c-1.6,0.4-3.5,1.2-4,3.4c1.7,0.8,3.2,0.4,4.7-0.1c16.3-5,32.8-7.9,49.9-7.6c3.3,0.1,6.6-0.7,9.8-1.4c13.6-3,23.9-11.1,32.6-21.5
	c10.3-12.3,21-24,33.6-34.1c9.6-7.7,16.8-17.9,20-29.7c2-7.4,5.9-13.1,10.5-18.7c2.7-3.2,5.5-6.3,8.2-9.4c6.1-7.1,11.9-14.5,13.5-24
	c2-11.9,1.3-23.9,0.8-35.9c-0.3-8.3-3-15.8-7.9-22.7c-2.6-3.7-4.8-7.6-6.1-11.9c-3-10.1-8.6-18.5-15.2-26.5
	c-7.4-9.2-11.5-19.8-11.4-31.6c0.2-23.4-15.7-45.2-39.9-54.1c-6.6-2.4-7-2.1-10.9,3.9c-2.2,3.3-4.9,6.3-7.3,9.4
	c-0.8,1-1.6,1.7-3,0.9c2.3-3,3.9-6.5,7.1-8.8c1.3-1,2.4-2.6,1.7-4.4c-0.7-1.6-2.5-1.4-4-1.4c-5.7,0.1-11.2,1.3-16.6,2.8
	c-5.6,1.5-11.2,3.1-15.6,7.1c-1.4,1.3-2.5,3-1.7,4.9c1,2.2,3.2,1.5,4.8,0.9c2.3-0.9,3.5-1,3,2c-0.2,1.6,0.4,3.1,2.2,3.3
	c2.4,0.3,1.8-1.9,2.3-3.1c0.9-2.3,0.8-5.3,4.3-5.8c1.1,3.4-1,6.3-0.8,9.5c0.3,3.3,0.4,6.8,4.1,7.7c3.3,0.8,3.8-2.8,5.2-4.8
	c0.1-0.1,0.3-0.1,0.6-0.2c0.4,2.9,0.8,5.9,1.1,8.8c0.2,1.7,0.5,3.7,2.2,4.2c2.1,0.6,3.1-1.6,3.8-3.1c1.3-2.5,2.1-5.2,3.4-7.7
	c2.1-4,3.7-8.4,9.1-11.4c-2.1,4.6-3.9,8.1-5.4,11.6c-1.9,4.2-3.8,8.4-4,13.2c-0.1,1.3-0.9,3.4,0.9,3.9c1.6,0.5,2.5-1.4,3.3-2.6
	c1.9-2.9,3.6-5.8,5.9-9.6c-0.4,8.3-3.4,15.1-4.2,23.5c8.4-6.9,9.4-17.7,17.2-24.5c-0.2,5.7-3.6,9.2-5.4,13.4
	c-1.8,4.2-4.5,8.3-3.1,14.1c6.6-4.8,10-12.4,17.9-15.6c-0.4,3.9-2.6,5.7-4.3,7.6c-4.4,5.2-8.7,10.4-11.4,16.8
	c-1.1,2.6-2.3,5.2-1.3,8.1c0.4,1.1,0.6,2.8,2.3,2.9c1.4,0.1,1.9-1.2,2.5-2.1c1.6-2.3,3.1-4.7,4.6-7c0.3,0.2,0.7,0.4,1,0.6
	c-2.1,6.6-3.7,13.4-4.7,20.3c-0.2,1.5-1,3.8,0.9,4.5c2.1,0.7,2.3-1.8,3.1-3.1c1.7-2.7,3.4-5.4,5.1-8.1c-0.8,8.5-4.5,15.9-7.2,24.7
	c6-4,8.9-9.8,14.1-13.3c-11.5,19.6-20,40.2-22.7,63.6c2.7-3,3.5-6.1,4.6-9.1c7-19,17.9-35.5,32.7-49.3c2.2-2,4.5-3.9,7.5-4.6
	c1.1-0.3,2.4-0.9,3.2,0.2c1,1.3-0.3,2.2-1.1,2.9c-2.5,2.4-5,4.8-7.7,7c-5,4.1-10.7,7.5-14.7,12.7c-1.7,2.2-5,5.1,0.4,7.2
	c1.3,0.5,0.6,1.8,0.3,2.5c-4.3,10.2-9.1,20.3-16.3,28.9c-2.9,3.4-4.3,6.8-5.1,10.8c-0.3,1.5-0.3,3.4,1.4,3.8c1.9,0.5,2.8-1,3.3-2.9
	c3.3-12.5,12.6-20.8,20.8-29.9c-4.3,9.4-11.3,17.3-15.2,27.1c15.7-4.9,26.5-16.9,39.2-26.1c-0.2,3.4-2.2,5.5-4.2,7.7
	c-2.1,2.2-4.5,4-5.7,6.9c-0.4,0.9-1.4,1.7-0.5,2.7c1,1.1,1.7-0.3,2.6-0.5c1.9-0.6,2.7-3.1,5-2.8l0.1,0.1c-1.7,5.9-7.1,8.5-11.2,12
	c-13.4,11.7-28.2,21.7-41.1,34c-1.9,1.8-4.2,3.5-4.3,7.3c7.7-7.1,15.8-12.4,25.7-15.8c-1.1,2.9-2.7,4.3-4.5,5.6
	c-1.8,1.2-3.5,2.5-4.7,4.4c-1.5,2.3-1.4,4.5,0.5,6.4c2,2,3.3-0.3,4.6-1.1c2-1.4,3.8-3.2,5.6-4.9c10-9.1,21.2-15.9,34.7-18.1
	c1.6-0.3,3.7-1.4,4.5,0.6c0.7,2-1.8,2.6-3.1,3.2c-7.3,3.4-14.8,6.4-21.6,10.9c-5.1,3.3-10.5,6.4-15.3,10.2c-5,4-12.5,1.6-16.8,7
	c-0.5,0.6-1.8,0.6-2.7-0.3c0.8-2.8,2.9-4.8,4.6-6.9c0.8-0.9,1.8-2.1,1-3c-0.9-1.1-2.4-0.5-3.6,0.2c-3.1,2-5.7,4.6-8.1,7.4
	c-11.1,12.9-19.5,27.5-27.5,42.4c-1.4,2.7-3.1,5.2-3.5,7.9c1.5,1.5,2.2-1.3,3.4,0.1c0.9,1-0.3,1.8-0.6,2.7c-0.5,1.2-1.3,2.3-2,3.4
	c-6,10.4-15.5,17.2-25.1,23.7c-5,3.4-5.3,3.7-6.8,7.1c10.9-4.9,20.5-10.7,27.3-20c14-19,27.6-38.2,41.4-57.3
	c2.5-3.4,4.7-7.2,9.9-9.7c-3.2,8.2-8.5,13.8-12,20.4c-0.5,0.5-1,1-1.5,1.6c-0.4,0.5-0.7,0.9-1.1,1.4
	C537.1,399.2,537.8,399.1,538.2,398.2z M198.2,501.7c-0.2-0.5-0.5-0.9-1-0.5c-0.2,0.2,0,0.8,0,1.2c5.6,8.8,11.9,17,19.5,24.1
	C211.4,517.7,205.4,509.3,198.2,501.7z M469.9,385.9c-5.5,5.9-11.9,11.3-12,20.3c0.4,0.2,0.8,0.5,1.2,0.7
	c3.9-6.8,7.7-13.6,11.6-20.5c0.3-0.5,0.5-1.1-0.2-1.4C470.5,385,470.2,385.6,469.9,385.9z M472.1,376.1c7.1-7.9,14.8-15.4,15.5-27
	c-6.7,8.1-11.1,17.5-16.3,26.5c-0.3,0.5-0.7,1,0.1,1.4C471.5,377,471.8,376.4,472.1,376.1z M479.1,551.9c-2.3,1-3.9-0.9-5.8-1.4
	c-5.3-1.6-10.2-4.7-16.5-4.5c2,2.8,4.7,3.7,7,5.1c3.4,2.1,6.9,4,9.8,6.7c1.1,1.1,2.2,3.4,0.5,3.5c-4.5,0.3-8.8,3.4-13.6,0.6
	c-3-1.7-6.4-2.6-9.7-3.5c-1.8-0.5-3.8-1.3-6.2-0.2c4.3,3.6,9.4,4.3,13.6,6.7c2.5,1.4,5,2.7,6.5,5.2c0.5,0.9,1.1,2.3,0.1,3.3
	c-0.9,0.9-1.8-0.2-2.7-0.4c-2.3-0.8-4.6-1.9-6.9-2.8c-3.2-1.2-3.3-1.2-4.5,1.9c-0.4,1.1-1.3,0.9-2,0.9c-1.7-0.1-3.3-0.1-4.9-0.4
	c-4.9-1.2-9.8-2.5-14.6-3.7c9,7.3,20.6,9.3,29.8,15.9c-4.6,0.8-8.7-0.3-12.9-1.3c-4.7-1.1-10.2-4.5-13.9-2.1
	c-5.9,3.9-9.7,0.5-14.3-1.2c-0.6-0.2-1.3-0.3-1.8,0.7c4.5,3.7,9.4,6.5,15.5,6.3c0.8,0,2.6-0.9,2.2,0.5c-1.7,5.7,2.7,3.2,4.5,3.4
	c4.9,0.4,9.9-0.8,15.1,1.3c-15.7,8.4-28.1-3.9-42-5.9c7.7,7.2,18,10.6,25.9,18.7c-7.5,0.1-11.7-6.4-19.4-7.1
	c6.7,6.8,14,10.9,20.7,15.6c1.2,0.8,1.9-0.2,2.7-0.6c5.6-2.8,11.2-5.7,16.7-8.7c7.3-4,12.4-10,14.8-18c1.7-5.7,2.4-11.8,4.6-17.2
	c7.6-18.8,16.5-37,28-54.4c-6.6,0.9-12.5,2.8-17.8,6.6c1.6,1.9,3.6,1.2,5.4,2.3c-3.6,1.1-6.9,1.6-9.8,3.3c-2,1.2-4.4,2.2-4.3,4.9
	c0.1,2.9,3.2,1.9,5.4,2.9c-3,2.4-6.9,1.7-9.5,4.4c1,0.3,1.6,0.6,2.3,0.7c1.8,0.4,4.1,1,3.6,3.2c-0.5,2.2-2.7,0.9-4.2,1.1
	c-2.1,0.2-3.9-1.9-6.4-0.7c2.8,3.2,6.8,5,8.8,8.6L479.1,551.9z M407.9,553.1c0.2,0.2,0.3,0.4,0.5,0.6c0-0.4,0.1-0.8,0.1-1.2
	c-1.5-4.7-2.3-9.4-0.1-14c0.6-1.3,0.8-3.2,2.6-3.4c1.9-0.2,2.1,1.8,2.8,3c1.2,2,1.9,4.2,3.3,6.1c1.2,1.8,2.5,5.1,5.1,3.6
	c2.5-1.5,0.3-4.1-0.8-6c-1.4-2.4-3.2-4.6-4.6-7c-0.8-1.4-2.3-2.8-1.1-5.2c5.2,3.1,8,8.1,12.9,13.1c-2.8-7.6-5.1-13.9-7.3-20.2
	c0.3-0.2,0.6-0.4,0.9-0.6c3.4,3.2,4.1,8.5,8.7,11.6c-0.1-5.5-2.3-9.8-3.6-14.4c-1.2-4.4-3.4-8.6-3.2-14.6
	c5.6,9.5,7.7,19.3,14.2,28.3c-1.1-10.3-6.8-18.1-6.8-28.6c5.6,6.1,4.7,16.1,14.8,17.4c-3.1-4.3-6.5-8.1-4.8-14.2
	c4.7,3.8,6.8,8.8,10,12.9c3.6,4.7,7.9,7.5,14,6.8c2.1-0.2,5,1,6-1c1.2-2.5-2.1-3.6-3.4-5.5c-0.6-0.8-1.4-1.4-1.9-2.3
	c-0.5-0.9-2-1.9-1-3c1-1.2,2.6-0.5,3.6,0.2c3,2.1,5.8,4.3,8.7,6.5c0.8-1.4,0.1-2.4-0.2-3.5c-0.8-2.6-1.4-4.9,3-3.6
	c2.5,0.7,5.2,0,6.9-2c3.2-3.5,7.3-4.2,11.5-5c15.4-3,30.5-7.2,44.9-13.6c9.8-4.3,14.7-12.1,13.1-20.1c-1-5-2.4-10-4.6-14.6
	c-1-2-1.5-5.2-4.4-4.4c-3,0.9-4.9,3.9-4.3,7.1c0.5,2.8-0.5,3.8-2,5.9c-1.8,2.7-3,5.1-6.2,6.3c-1,0.4-0.5,1.7-0.3,2.7
	c0.4,1.4,0.6,2.9,1.1,5c-2.9-2.1-5.1-3.7-7.3-5.3c-1.1,1.5,0.1,2.5,0.4,3.5c1.2,3.3,1.2,5.3-3.2,3.6c-0.5-0.2-1-0.3-1.5-0.3
	c-1.2-0.2-2.6,0-2.8,1.4c-0.2,1.4,0.8,2.6,2.2,2.8c1.1,0.1,2.3-0.3,3.4-0.6c8-2.3,15.2-6.2,21.9-11.1c1-0.8,2.2-2,3.4-0.8
	c1,0.9-0.1,2.1-0.5,3.2c-1.8,4.6-5.6,7.3-9.7,9.5c-8,4.3-16.5,7.7-25.3,9.8c-17.2,4.1-35,5.1-52.3,9.1c-3.6,0.8-7.7,0.7-11-1.8
	c-6.3-4.6-13.8-5.6-21.2-5.9c-9.3-0.4-12.7,1.9-15.8,10.5c-2.6,7.1-7.7,11.1-14.5,13.1c-8.7,2.6-17.7,2.8-26.7,1.8
	c-14.2-1.6-28.3-4.1-42.7-2.7c-4.9,0.5-9.4,1.8-13.5,4.4c-6.1,3.9-6.7,6.5-4.2,13.1c2,5.1,2.4,10.5-1.2,15.1
	c-3.5,4.5-8.4,2.8-12.9,1.8c-10.6-2.4-20.6-7.1-31.4-8.8c-8-1.2-16-3.2-24.2-1.6c-1.3,0.3-2.9,0.4-3.3,1.7c-0.5,1.9,1.4,2.6,2.5,3.3
	c3.9,2.3,8.2,3.5,12.4,4.8c8.9,2.8,19,0.6,27.3,6.2c0.5,0.3,1.4,0.2,2,0c3-1,5.1,0.5,7.2,2.1c5.9,4.5,5.9,4.5,11.2-0.6
	c0.7,3.4,2.5,5.8,5.5,7.3c1.6,0.8,3.3,2.9,4.8,1.8c1.4-1.1-0.4-3.2-0.7-4.8c0-0.2,0.2-0.5,0.6-1.2c4.9,3.4,9.8,6.8,14.6,10.1
	c0.4,0,0.8,0,1.2,0c-0.2-0.3-0.3-0.6-0.5-0.9c-0.6-2.4-3.2-3.8-3.5-6.5c-0.1-1.2-0.5-2.5,0.7-3.1c1.2-0.6,2.2,0.1,2.8,1.3
	c0.4,0.9,1,1.7,1.6,2.5c0.8,0.9,1.9,1.5,3.1,1c1.7-0.7,0.6-1.9,0.3-2.9c-1.1-2.9-2.3-5.8-3.4-8.7c-0.3-0.8-0.7-1.6,0.1-2.3
	c1.1-0.8,1.8,0.1,2.5,0.8c2.4,2.3,4.8,4.7,7.7,7.5c-2.4-8.4-6.8-15.6-6.8-24.1c6.6,8.9,8.2,21.4,20.2,28
	c-3-12.5-11.4-21.7-12.1-33.5c3.1,4,4.2,9.4,10.2,12.1c-1.8-6.1-5.9-11.2-4-18.3c1.6,3.3,2.2,6.4,4.1,8.2c3.7,3.5,3.2-3.3,6.3-2.9
	c-0.1,2.4,0.2,4.8,3.5,4.2c3.7-0.6,5.9,1.5,7.8,4.2c1.5,2.1,3,4.2,5.9,3.7c2.7-0.4,3.9,0.9,5,3.1c0.7,1.5,1.8,2.8,2.9,4
	c0.9,1.1,2.2,1.5,3.6,0.9c1.5-0.7,1.1-2.2,1.3-3.5c0.2-1.7-1.7-3.2-0.5-5.3c2.8,3.3,4.9,6.9,8.2,9.4c0.8,0.6,1.6,2.1,2.9,1.2
	c1-0.6,1.2-1.9,1.2-3.1c-0.1-2.4-1.5-4.7-0.7-7.7C403.5,548.4,405.1,551.3,407.9,553.1z M278.7,145.8c-0.6,3-1.2,6.1-1.9,9.1
	c-0.3,1.1-0.7,3-1.3,3c-7.2,1.1-1.5,5.1-1.6,7.6c-0.1,2,1.4,1.5,2.7,0.5c9-6.3,9.7-12.5,2.3-20.9c-0.6-1.7-2.1-2.5-3.4-3.5
	c-12-9.5-25.9-14.6-40.6-17.5c-11.3-2.2-22.4-4.2-32-11.1c-3.2-2.3-7.2-3.1-11.1-4.1c-8.8-2.1-16.7-1.3-23.9,5.4
	c-6.4,5.9-14.2,7.3-23.1,5c-11.3-2.9-22.6-2-33.7,2.4c-12.1,4.9-22.8,12.2-32.8,20.3c-12.2,9.8-13.1,8.1-7.6,24.9
	c7.3,22.3,11.7,45.1,14,68.4c1.8,18.7,2.8,37.5,4.2,56.2c0.4,4.6,1,9.2,1.5,13.9c0.4,0,0.9-0.1,1.3-0.1c0-9.5,0.1-19.1,0-28.6
	c-0.2-14.3-1.7-28.6-0.3-42.9c0.4-4.1,4.2-5.5,4.6-9.5c1.8-16.3,1.3-32.5-2.6-48.5c-2.2-8.8-5-17.5-3.6-26.9c2,1.3,1.6,3.9,3.8,4.8
	c1.2-5.2-1.8-10.1,0.1-15.1c6.9,25.2,5.5,51.6,10.5,78.3c5.2-7.8,9.2-15,11.7-22.9c4.4-13.6,3.7-27.9,4.9-41.9
	c0.6-6.8,0.9-13.6,3.9-20c2.4,12.9-2.6,25.8,0.4,39c14.2-9.5,14.6-26.7,23.4-38.9c-3.7,14-4.2,28.3-6.2,42.4c-1-4.3-2-8.7-3-13
	c-17.5,19.8-20,43.6-20.2,68c4.6-11.8,4.4-24.9,10.2-36.3c-0.1,18.2-5,35.7-7.2,53.6c8.7-15.1,7.9-33.1,15.4-48.6
	c0.3,4.9,0.7,9.8,1,14.8c2.8-7.3,3.5-14.9,8.3-22.5c0.9,10.8-3.7,19.9-2.3,30.4c2-2.8,2.6-5,3.2-7.2c2.5-9,3.8-18.2,3-27.5
	c-0.5-6.8,0.4-13.3,3.7-19.8c1.1,6.9,1.4,13.4,1.4,19.9c0,1.8,0.5,3.9,2.3,4.6c1.6,0.7,2-1.6,3.4-2.7c0,6.5,0,12.7,0,20.3
	c1.4-1.9,1.9-2.6,2.3-3.2c0.9-1.4,1.9-2.7,2.8-4.1c9.1-15.7,9.4-32.4,5.5-49.6c-1.8-8.1-0.6-15.5,5.6-23.2c0,3.4-0.1,5.5,0,7.5
	c0.2,7,0,14,2,20.8c1.2,4,3,4.4,6,1.6c1-0.9,1.7-2,2.5-3.1c4.5-5.8,8.4-12,13.9-17c7-6.4,15.1-10.1,24.8-9.3
	c1.4,0.1,2.9,0.4,3.3,1.7c0.4,1.3-0.8,2-2,2.5c-4.7,1.9-6.1,6.2-7.5,10.4c-1.2,3.6-1.3,7.6-3,10.2c-7.7-3.5-11.2,4.2-16.8,5.3
	c1-5.6,2-11.1,3-16.7c-5.2,6.1-9.8,12.4-15.2,18c-7.2,7.5-9.2,16.7-10.6,27.9c3.5-4.7,4.1-9.6,8.7-13.4c-1.9,12.2-3.6,23.3-5.3,34.3
	c0.4,0.1,0.8,0.2,1.2,0.2c4.9-11.5,6-24.4,11.7-36.9c1.4,11.5-4,21-3.5,31.3c7.1-11.7,8.4-25.7,15.5-38.8c0.6,7-1.3,12.4-1.6,18.1
	c2.2-0.8,2.2-2.7,3-4c2.8-5.3,5.4-10.6,8.3-15.8c0.4-0.7,0.8-2.9,2.6-1.1c3.6,3.7,6.7,2.3,9.3-1.2c2,1.7,1.9,4.5,4.3,6
	c0.5-1.9,1.1-4.6,3.2-4.3c3.1,0.4,0.2,3.8,2.4,5.8c9.7-10.2,22.1-16.2,34.9-21.7c0.2,0.8,0.7,2.4,1.2,4.3
	C275.9,149,277.3,147.4,278.7,145.8z M343.8,635.2c-6.3-6.7-9.2-15.6-14.8-23.5c0.7,18,7.5,34,9.5,51.1
	c-15-16.9-20.7-38.3-28.6-58.7c-0.6,1.5-0.7,2.9-0.5,4.3c1.3,14.1,2.6,28.1,0.7,42.3c-1.1,7.5-1.8,15.1-4.8,22.2
	c-0.6,1.3-1.1,3.3-2.8,2.9c-1.6-0.4-2.5-2.3-2.3-4.1c0.2-1.8,0.8-3.5,1.4-5.3c1-3.1,2.6-6.2,3.1-9.4c0.6-3.4,2.1-7.6-1.1-10.3
	c-2.1-1.8-2.9-3.8-3.5-6.2c-1.7-6.8-2.4-13.7-3.1-20.6c-0.9-9.5-0.8-19-1.6-28.6c-6.6,13.8-3.8,29.1-6.8,43.5
	c-3.2-8-3.1-16.5-5-24.8c-0.9,5.2-1.9,10.3-2.8,15.5c-0.9-4.7-0.4-9.3-1.5-14.5c-7.7,12.6-12.5,25.7-17.8,38.7
	c0.6-12.5,4.9-24.2,5.9-36.6c-8.1,13.8-12.4,29.2-18.3,43.9c0.7-14.8,4-29,9.7-42.6c0-0.4,0.2-1.1,0-1.2c-0.5-0.4-0.7,0.2-0.9,0.6
	c-7.5,11.4-13.6,23.5-17.7,36.6c3.5-19.8,11.1-38.2,19.7-56.3c-4.4,4.5-7.4,10-10.6,15.2c-6.5,10.5-11.6,21.9-18.9,31.9
	c-0.3-0.2-0.5-0.5-0.8-0.7c7.3-21,18.1-40.2,29.3-59.3c-16.2,15.1-25.8,35-38.5,52.5c0-3.7,1.7-6.7,3-9.9
	c4.9-11.8,12.1-22.4,17.9-33.7c0.9-0.4,1.1-1.2,0.5-1.8c-0.5-0.5-1,0.1-1.3,0.6c-10.7,11.9-19.6,25.4-29.9,37.7
	c-0.3-0.3-0.5-0.6-0.8-0.9c1-1.9,1.8-3.9,2.9-5.7c7.4-12.4,15.8-24.1,24.3-35.8c1.5-2.1,3.6-4.1,3.7-7.4c-5,2.7-9,5.8-11.6,10.5
	c-1.1,2-2.2,3.2-4.6,2.7c-2.9-0.6-4.5,0.8-5.3,4c1.4-0.5,2.5-0.9,3.5-1.3c0.3,0.2,0.5,0.5,0.8,0.7c-0.8,1.5-2.4,2.5-3.6,2.3
	c-6.9-1.5-9.7,3.6-13.2,7.6c-6.9,7.9-11.2,17.5-16.8,26.3c-0.6,0.9-0.9,2.4-2.3,2.4c-1.6,0,0.3-2.7-1.5-2.7
	c-1.5,0.6-1.6,3.1-3.9,2.6c0.6-2.2,1.2-4.2,1.7-6.2c0.2-0.8,0.2-1.9,1.3-1.6c4.7,1.2,5.5-2.6,6.9-5.4c4.5-9.3,10.7-17.4,17.6-25.1
	c2.8-3.2,6-6.2,8.1-11c-3.8,1.2-6.3,3-8.8,4.8c-13.3,9.3-20.8,24.6-34.4,33.6c-0.3-0.4-0.5-0.8-0.8-1.2c4.2-11,12.4-19.1,20.3-27.4
	c3.9-4.1,7.8-8.1,12.5-12.9c-12.5,4.8-20,15.1-31.1,22.6c2.1-7.3,8.7-9.7,10.1-15.6c-11.1,5.2-21,11.9-29.3,20.9
	c-1.1-3.5,0.5-6,2.3-8.4c7.4-9.9,15.3-19.2,26.3-25.4c1.1-0.6,2.8-1.3,1.9-2.9c-0.7-1.5-2.2-0.9-3.6-0.6c-3.6,0.8-6.7,2.6-9.9,4.4
	c-5.7,3.2-11.4,6.5-17.2,9.8c-0.3-0.2-0.6-0.5-0.9-0.7c5.5-6.8,13-11.8,17.4-19.7c-13.2,4.3-22.2,14.3-32.1,23.1
	c-0.2-0.3-0.5-0.7-0.7-1c0.6-1,1.1-2,1.8-2.9c6-8.6,13.3-16.2,20.5-23.9c0.5-0.1,1-0.3,0.6-0.8c-0.4-0.5-0.8,0-1,0.4
	c-9.9,4.7-18,12.4-27.1,18.5c5-10.4,14.5-16.5,21.8-24.7c-10.3,1-17.1,8.3-25,13.6c2.4-6.7,8.6-10.7,11.9-17.5
	c-5.9,1-9.6,5-14.8,5.9c3.2-3.6,6.4-7.2,10.6-11.9c-6,1.4-10,4.2-15.4,4.3c4.6-5.6,11.3-7.7,16.6-13.1c-8.1,1.3-14.9,3.2-21.5,5.8
	c0.1-3.6,4-5,4.8-8.6c-5.9,0.7-5.7,5-5.7,9.1c-1,1.3-0.6,2.9-0.5,4.3c0.6,10.4,2.4,20.7,5,30.8c2.5,9.7,8.5,18,10.6,27.7
	c1.6,7,5.2,12.3,9.5,17.6c5,6.2,10.5,12,16.2,17.6c6.6,6.5,14.9,9.6,23.7,11.7c4,0.9,7.2-1.1,9.4-4.3c1.7-2.4,2.9-5.2,4.2-7.8
	c2.5-4.8,4.2-10,7.7-15c0.1,1.2,0.3,1.8,0.2,2.3c-1.1,4.4-3.2,8.3-5.2,12.3c-3.8,7.7-3.1,11.6,3.9,16.6c6.2,4.5,12.8,8.1,19.6,11.6
	c4.4,2.3,5.2,1.8,5.5-3.4c0.3-4,1-7.7,4.4-11.9c-0.2,4.6,0,7.9-0.7,11.3c-2.3,11.5-0.9,14.1,10.3,17.4c18.9,5.6,38.3,5.8,57.8,4.5
	c8.8-0.6,17.1-3.1,25.4-5.9c9.3-3.2,19.4-1.8,29.2-1.9c8.9-0.1,18-0.1,26.5-3.4c25.7-9.8,42.3-29.5,56.3-51.9
	c1.7-2.8,0.6-4.6-1.8-6.2c-17.4-11.2-36-20-55.5-26.9c-1-0.3-2.5-1.3-4.5,0.2c4.2,2.1,7.8,4,11.4,5.9c7.7,3.9,15.6,7.2,22.8,12
	c1,0.7,2.7,1.6,2.4,2.9c-0.5,1.9-2.4,1.2-3.8,1.3c-4.2,0.1-8.5,0-13,0c0.7,2.7,3.5,4.1,3.9,7.4c-3.8-2.3-7.1-4.4-10.4-6.4
	c-0.5-0.3-1-0.8-1.4,0c-0.1,0.1,0.5,0.5,0.7,0.8c1.5,2.9,5.1,4.8,5.1,8.3c0,9.5,3.8,18,5.8,27c0.6,2.5,2.2,5.1,0.6,8.5
	c-5.1-5.9-8.1-12.6-10.1-19.5c-2.7-8.9-7.3-16.6-13.2-23.6c-4-4.7-8.5-8.9-15.6-11c2.6,5.9,5.5,10.5,9.5,14.3
	c9.8,9.5,12.7,22.1,15.7,34.7c-1.4-1.3-2.3-2.8-3-4.4c-2.8-6.3-5.9-12.5-8.3-19c-2.3-6.5-10.3-8.5-11.9-15.5
	c-0.1-0.5-0.6-1.6-1.9-0.8c2.1,12,8.2,23.1,9.4,35.5c-2.2-3.8-4.1-7.8-5.8-11.8c-4.2-9.7-8.2-19.6-15.5-27.5c-0.6-0.6-1.1-2-2.1-1
	c-0.6,0.6,0.6,1.3,1.3,1.8c3.9,11.4,9.2,22.3,11,34.5c-8.7-12.6-12.2-28.4-24.5-38.7c2.2,11,7.8,20.8,10.4,31.7
	C344.4,634.7,344.1,635,343.8,635.2z M129,459c4,3.8,5.9,9.5,10.8,13.3c0.7-4.9-1.6-8.8-1.5-13.5c3.8,4.8,6.3,9.9,11.1,14.1
	c-0.5-5.7-3.2-10-4.1-15.1c3.3,1.2,3.5,4.2,4.5,6.4c3.5,7.7,6.6,15.6,14.5,20.1c1.6,0.9,1.7,2.6,1.8,4.3c0.4,5.1,2.6,9.5,6.2,13.2
	c1.9,1.9,5,3.8,6.9,2.4c2.2-1.7-1-3.9-1.8-5.9c-0.3-0.7-1-1.3-1.4-2c-4.5-6.5-9.3-12.9-13.5-19.6c-3.7-5.9-6.8-12.1-6.7-19.4
	c0-1.2-0.4-3,1.2-3.4c1.5-0.4,2.2,1.1,3,2.2c0.8,1.2,1.7,2.5,2.4,3.8c3.5,6.1,6,12.8,10.2,18.6c1.5,2,2.8,4.1,5.3,5
	c0.9,0.4,1.8,1,2.7,0.1c0.7-0.7,0.2-1.5-0.1-2.3c-0.9-2.6-1.7-5.3-2.6-8c0.3-0.2,0.5-0.5,0.8-0.7c3,4.5,5.1,9.5,9.5,13.1
	c-2.7-12.7-10.9-23.7-11-38.3c0.9,2.4,1.4,3.7,2,5c4.9,11.8,9.3,23.7,16.7,34.2c2.1,3,4.2,6.4,8,7c3.3,0.5,6.2,1.7,9.7,3.1
	c-12.1-18.6-9.4-37.5-2.3-56.4c1.1,4.2,0.9,8.4,0.3,12.7c-1.7,13.8-0.5,26.9,9.2,37.9c5.6,6.4,7.1,6.3,11.1-0.6
	c1.2-2,2.3-4.1,3.6-5.9c5.1-7.3,8.4-15.2,10-24c1.9-10.6,2.3-21.3,4.1-32.6c2.4,10.1,3.6,19.8,6.6,29.1c0.7,2.2,0.9,5.1,3.1,5.9
	c3.4,1.2,3,3.7,2.7,6c-0.2,2.1-1.2,4-3.9,4.5c-3.6,0.7-5.1,2.6-4.3,6.8c2.1,10,5.8,19.3,10.6,28.2c0.6,1.1,1.6,2.2,2.5,3.1
	c0.8,0.7,1.7,1.9,2.9,1.3c1.2-0.6,0.8-1.9,0.5-3.1c-0.7-3.9-2.5-7.5-3.9-11.2c-2.2-6.3-4.6-12.6-3.3-20.4
	c5.1,13.3,11.3,25,17.8,36.6c-1.9-12.7-7.9-24.4-9.5-37.2c9,10.7,10.9,24.8,18.1,36.4c0.4-3.2,0.7-6.2,0-9.2
	c-3.8-16.1-7.5-32.2-11-48.3c-1.7-7.8-4-15.6-3-23.9c4.4,20.2,10.5,39.8,17,59.3c0.2-10.9-1.4-21.6-3.9-32.2
	c-2.6-11.1-7.3-21.6-10.1-32.6c-0.4-1.6-1.5-4,0.6-4.7c2.1-0.8,3.1,1.6,3.8,3.1c2.2,4.6,4.1,9.4,6.2,14c1.7,3.8,3,7.7,5.7,10.9
	c0.6,0.7,1.2,1.7,2.4,1.2c1-0.5,1.2-1.6,1-2.6c-0.3-1.1-0.9-2.1-1.3-3.2c-4.6-10.8-7.4-22-7.6-33.8c2.1,3.2,3,6.9,3.8,10.5
	c1.6,6.6,2.6,13.3,5.4,19.5c0.4,1,0.8,2.5,2.3,2.3c1.6-0.2,1.2-1.7,1.3-2.8c0.5-3.9,1-7.9,1.6-11.8c0.3-1.8,1.3-4.3,3.1-3.9
	c2.3,0.5,1.1,3,0.8,4.7c-1.3,6.8-1.4,13.7-0.2,20.4c3.6,20.3,6.8,40.6,6.6,61.3c0,0.9-0.3,2.2,1.6,1.9c1.3-8,1.3-16.1,1.1-24.2
	c-0.2-8.1-1.9-16.2,0.5-24.9c4,10,4.2,20.4,7.1,30.2c-0.4-16.4-0.7-32.6-0.1-48.9c4.2,21.2,2.9,42.8,5.8,64.1
	c6.7-20.6,2.1-41.7,3.2-62.6c2.7,10.4,2.9,21.5,8.2,32c2.2-6,1.2-11.4,1.4-16.7c0.3-9.7-0.6-19.1-5.8-27.8
	c-2.8-4.7-3.4-10.2-0.7-16.2c2.1,5.1,4.3,9.5,7.4,13.4c2.4,2.9,3.6,6.2,4.3,9.9c2.6,14.1,1.2,28.2,0.4,42.3
	c-0.4,6.9-1.8,13.8-1.2,20.9c2.1-5.4,2.9-11.1,3.7-16.8c1.4-11.4,2.9-22.7,4-34.1c1.1-11.2,9.7-18.9,12.9-29.1c0.6,1.3,1,2.6,1,3.8
	c0,8.3,2.4,16.4,2.3,24.8c0,2.4-0.2,5.9,3.4,6.3c3.7,0.4,6.4-1.3,7.5-5.1c0.4-1.5,0.9-3,1.4-4.5c1.1,8-0.2,16,0.8,23.3
	c13.1-14.3,10.8-33.8,16.7-50.7c1.4,8.3,0.5,16.4-0.6,24.6c-1.7,13.4-6.7,25.8-11.7,38.3c-1,2.5-2.5,4.9-1.6,7.9
	c0.6-0.1,1-0.1,1.2-0.3c0.9-1,1.8-2,2.6-3c9.1-11.2,12.7-24.5,14.9-38.4c0.9-5.6,1.9-11.3,5.6-16c-2.2,17.5-5.5,34.7-10.3,52.1
	c3.3-1.2,4.3-4,5.6-6.4c5.2-9.1,9-18.8,11.9-28.7c5.2-17.9,8.9-36.2,16-53.5c2.2-5.4,3.4-11.3,3.1-19c-3.1,3.5-5.1,6.2-7.5,8.3
	c-11.8,10-24.7,16.8-40.9,13.1c-7.6-1.7-15.1-3.8-22.6-5.4c-9.7-2.1-19.2-5.5-29.3-3.8c-20.2,3.3-40.6,4.7-61,6.3
	c-10.6,0.8-20.9,2.8-30.6,7.7c-11.2,5.7-22.1,12-34,16.1c-6.5,2.3-13.8,2-19.9,5.8c-6.7,4.2-14.2,6.1-21.9,7.4
	c-16.9,3-34,4.9-50.1,11.8c-8.9,3.8-18.4,3.7-27.4-1.3c-0.8-0.4-1.8-1.6-3.2-0.1c3.4,5.3,7.7,9.8,12.1,14.3c2.4,2.4,4.7,4,5.6-2.1
	c1.7,3.3,3.1,5.6,4.2,8c0.9,2,0.6,3.3-2.1,2.5c-0.7-0.2-1.5-1.8-2.5,0.1c2.7,5.2,9.7,1.5,12.6,6.3c-1.8-7-6.7-12.8-6.3-20.2
	c1.6,1.5,2.7,3.3,4,5c0.8,1,1.9,3.2,2.6,2.6c4-2.9,4.1,1.4,5.1,2.8c2.6,3.8,4.7,8,7,12c1.9,3.2,3.6,6.7,8,9.8
	c-3.2-10.5-9-18.7-11.2-28.1C128.8,459.2,128.9,459.1,129,459z M127.1,274.1c1,0,2.7-0.5,2.7,0.3c-0.1,2.8-2.8,3.8-4.6,5.4
	c-0.8,0.7-2.1,2.8-3.1,1.1c-1.2-2.1-1.7-0.4-2.3,0.1c-2.8,2.4-5.1,5.2-7,8.4c-1.7,2.8-2.3,5.9,0.3,8.2c7.7,6.7,16.3,11.7,27,9.8
	c9.9-1.8,19.6-4.6,29.5-6.8c3.6-0.8,7.3-1.1,10.9,1c-1.2,2.2-2.8,2.4-4.4,2.7c-4.2,0.8-8.4,1.7-12.6,2.5c-10,1.9-19.7,5.7-30.2,5.5
	c-4.9-0.1-5.6,1-3.9,5.7c3.2,8.8,6.4,17.7,12.4,25.2c0.6,0.7,1.7,1.5,1.1,2.5c-0.7,1.1-2,1.1-3.1,0.9c-2.4-0.5-4.2-1.8-5.7-3.8
	c-2.4-3.3-3.9-6.9-4.1-11c-0.2-4.8-1.7-9-4.3-13c-5.2-8.2-12.3-14.7-19-22.3c-3,8.3-6.2,15.9-6.8,24.4c1.5-2.3,2.9-4.5,4.7-7.3
	c1.3,4.9-1,8.8-0.6,12.9c0.3,2.7-1.5,6.6,1.1,7.9c2.8,1.3,4.2-2.8,6.2-4.5c0.4-0.3,0.8-0.5,2-1.3c-1.6,8.1-3.9,15.5-1.2,23.7
	c-6-2.7-5.6-7.9-6.7-13c-1.7,2.9-2.1,5.8-4.4,7.3c-0.9,0.6-1.8,1.7-3.1,0.9c-1-0.6-1-1.7-1-2.6c0-2.4,0-4.8,0-7.2
	c-3.5,7.9-6.1,16-6,24.7c0,1.4,0.9,3.3-0.6,4.2c-3.4,2.1-3,5.6-3.2,8.4c-0.4,7.5-0.1,15.1-0.1,23.9c3.1-7.8,4.1-15.2,8.5-21.1
	c-0.2,5.7-1.8,11.2-1.8,16.8c0,5.7,0.1,11.3,3.2,17.3c1.4-5.2,0.6-9.8,1.2-14.5c1.9,0.9,1.6,2.3,1.8,3.6c2.1,12.9,4.6,25.7,7.7,38.4
	c0.5,2.1,1.1,3.9,3.3,4.5c6.2,1.6,12.4-3.9,11.5-10.3c-0.1-0.6-0.7-1.2,0.6-1.7c1.7,1.2,1.7,4.1,3.9,5c3.2,1.4,6.7-1.1,7.9-5.5
	c2-7.8,1-15.9,1.8-23.8c0.4-3.9,4.6-6.6,2.5-10.8c4.9-1.1,3.6-4.9,3.5-8.2c0-0.9,0.7-1.3,1.6-1.6c1.6-0.6,2.3-2.1,2.4-3.5
	c0.3-4.3,2.7-7.6,5.5-10.3c6.5-6.4,10.1-15.2,17.7-20.6c1.1-0.8,2.1-2.3,2.4-3.7c1-4.5,4.1-7,7.4-9.6c1-0.8,2.7-1.6,2.9-2.6
	c0.9-5.3,5.4-7.7,8.5-11.2c3.1-3.4,6.5-6.4,8.4-11c1.3-3.1,4.2-6,7.9-6.1c2.2,0,2.5-0.5,2.5-2.3c0.1-5.2,7.5-4.6,7.7-9.6
	c0.6,0.1,1.3,0.2,1.9,0.3c1.3,0.2,2.5,0.4,4.4,0.7c-1.3-3.3-1.8-5.9,2.8-5.6c1.4,0.1,2.7-1,3.2-2.7c0.3-1.1,0.5-2.3,2.2-2
	c4.6,0.8,8.5-1.5,12.1-3.6c3.3-1.9,8.8,1.2,10.1-4.6c0-0.1,0.6,0,0.9-0.1c8.2-2.8,15.5-6.9,20.3-14.5c2.5-3.9,5-7.6,10.7-5.8
	c2.7,0.8,2.9-1.3,2.3-2.9c-1.4-4.2,0.2-4.1,3.4-2.9c1.3,0.5,4.2,1.9,3.6-1.7c-0.7-4.3,2-5.6,5-6.8c4.3-1.7,9.3-2.6,12.2-6.3
	c2.2-2.8,3.6-1.9,5.6-0.5c0.9,0.7,1.9,1.3,3,2.1c0.7-1.8-1.9-3.6,0-4.6c1.8-1,3.4,0.6,4.8,1.7c0.1,0.1,0.3,0.2,0.4,0.3
	c2.4,2.3,3.4,1,3.7-1.5c0.4-3.9,0.4-7.7-3.4-10.2c-4.6-3-9.2-2.8-13,0.5c-1.5,1.3-2.9,1.6-4.5,0.8c-1-0.5-2.4-1.1-2.3-2.4
	c0.1-1.8,1.7-2.6,3.2-3.5c3.1-1.9,6.7-1.7,10.2-2.1c-9.4-4.4-18.7-8.3-28-12.5c-4.6-2.1-9.4-3.2-14.4-3.2
	c-26.2,0.2-49.5,10.5-72.6,21.3c-1.3,0.6-3,1.6-2.8,3.2c0.3,3-1.3,2.6-3,2c-1.6-0.6-2.9-0.1-4.3,0.3c-6.6,1.7-12,5.4-17.2,9.6
	c-1.5,1.2-3.3,2.7-2.6,4.9c0.7,2,3,2.1,4.7,2.3c5.7,0.6,11.2-0.8,16.9-1.3c7.4-0.7,14.8-2.7,22.3-0.5c2.3,0.6,5.2,1.7,4.3,4.3
	c-0.8,2.2-3.8,0.7-5.8,0.4c-0.1,0-0.3-0.2-0.4-0.3c-5.8-3.2-11.6-2.6-17.7-0.7c-8.4,2.7-17,4.5-25.9,2.4c-7.1-1.7-14-1.9-20.7,2.1
	c-9.7,5.8-18.9,12.3-27,20.3c-0.1,0.4-0.3,1.1-0.2,1.2C126.7,275,127,274.6,127.1,274.1z M521.8,297.8c0.4,0.3,0.7,0.5,1.1,0.8
	c-3.8,6.2-9.6,10.5-14.5,15.7c-3.3,3.5-6.7,7-9.3,11.1c-0.4,0.6-0.8,1.8-0.5,2.2c0.7,0.9,1.8,0.6,2.7,0c1.2-0.9,2.3-1.9,3.5-2.8
	c2.6-1.7,4.6-4.4,8.5-5.3c-2.8,4.9-6.3,8.3-9.3,12c-2.9,3.4-5.6,7-7.8,10.9c-0.5,0.9-1.3,2.3-0.1,3.2c1.3,1.1,2.1-0.4,2.8-1.1
	c1.8-1.6,3.6-3.1,6.5-3.5c-1.3,3.7-3.6,6.2-5.8,8.6c-9.6,10.6-17.2,22.3-21.4,36c-0.3,0.9-0.6,2-1.2,2.7
	c-6.5,7.2-11.1,15.7-16.9,23.4c-4.5,6-9.6,11.4-14.3,17.2c18.9-15.2,33.2-34,43.2-56.2c0.7,2.9-2.7,4.3-1.6,6.6
	c0.8,1.6,2.9,0.2,5.3-0.1c-8.2,15.6-20.1,27.9-28.5,42.5c3.5-2.7,7-5.4,10.5-8.1c0.4,0.3,0.7,0.5,1.1,0.8c-0.5,0.8-1,1.7-1.6,2.5
	c-4.5,6.5-10.4,11.7-15.7,17.4c-5.1,5.6-3.6,15.5-12.6,18.4c-0.4,0.1-0.9,0.7-0.9,1.1c0,4.7-3.9,6.2-6.7,8.5
	c-1.5,1.3-4.3,2.4-4.4,3.8c-0.6,5.8-5.8,7.4-8.8,11c-0.9,1.1-2.6,1.6-2.9,3.5c3.8,0.1,6.6-2,9.3-4c15.8-11.7,28.7-26.2,40.7-41.6
	c16.3-21,30.5-43.3,39.3-68.6c2.9-8.2,3.5-16.8,4.8-25.3c1.7-10.6,6.6-20.4,11-30.1c6.5-14.3,12.1-29.1,11-44.9
	c-1.6-24-10.9-45.1-28.8-61.5c-13.3-12.1-26.8-24-39.4-36.8c-5.4-5.5-11.3-10.2-18.4-13.4c-12.4-5.6-25.5-8.9-38.5-12.6
	c-7.2-2-11.3,1-14.8,6.5c-1.4,2.2-2.7,4.6-4.2,6.8c-1.3,2-2.8,3.9-4.1,5.9c-0.3-5.4,2.9-9.1,5.4-13c2.3-3.6,1.6-6-2.1-8
	c-12.4-6.9-25.8-8.3-39.6-6.6c-19.9,2.5-37.6,11.1-54.3,21.7c-14.3,9.1-24.8,21.4-30.8,37.4c-0.5,1.4-1.5,2.8,0.1,4
	c1.2,0.9,2.5,0.4,3.7-0.3c5.9-3.7,11-7.9,12.8-15.1c0.7-2.9,1.8-5.7,3-8.4c0.9-2.1,1.9-5.5,4-5.2c2.6,0.4,3.3,3.8,3.7,6.5
	c0.1,0.6,0.3,1.3-0.8,1.8c-0.6-0.8-1.2-1.8-1.9-2.6c-0.8-1-1.8-2-2.5-0.2c-0.6,1.6-3.2,4.1-0.7,4.8c4.1,1.1,3.3,4.1,3.7,6.5
	c0.4,2.9,0.1,5.8,0.1,9.5c2.9-5.8,4.5-14.1,4-21.9c-0.3-4.5,0.7-8.5,3.2-12.2c1.1-1.7,2.4-3.4,4.8-2.9c2.1,0.5,2.5,2.4,3.1,4.2
	c1.7,5.1,0.5,10.2-0.5,15.2c-1.5,7-0.7,18.9,1.7,23.4c0.2-0.3,0.5-0.5,0.5-0.8c0.1-1.3,0.1-2.7,0.1-4c0.2-10.1,0.7-20.2,5.1-29.7
	c0.8-1.8,1.7-4.2,3.9-3.7c1.7,0.4,2,2.8,2.3,4.6c0.9,5.2,0.8,10.4,1,16c0.5-0.6,0.8-0.8,0.8-1c2-7.1,4-14.3,6.1-21.4
	c0.5-1.7,0.6-4.7,2.9-4.6c2,0.1,2,3.1,2.6,4.9c1,3.2,1.2,6.6,0.6,9.9c-0.5,2.6-0.8,6.2,1.5,6.6c2.9,0.6,2.9-3.3,3.5-5.4
	c1.9-7.2,3.6-14.6,5.4-21.9c0.2,0,0.5,0.1,0.7,0.1c0,10.4,0,20.7,0,31.1c3.9-11.2,6.9-22.7,13-33.1c-6.7,19.9-9.7,40.1-7.6,61
	c0.7-0.3,0.6-1,0.7-1.6c1.5-9.5,2.7-19,6.2-28c1.1-2.8,1.1-2.8,4-1.6c1.2,0.5,1.8-0.6,2.3-1.4c1.5-2.6,2.8-5.3,4.4-7.8
	c1.3-1.9,2.1-4.4,6.2-5.5c-9.6,19-13.6,38.3-15.4,59.7c5.2-8.4,4.2-16.9,6.2-24.6c2-7.7,4.1-15.5,8.7-22.2
	c-1.2,12.9-7.6,24.9-6.1,38.3c4.8-12,7.6-24.8,16-36.4c0.2,5.4,2.8,4.2,5.7,3.1c-1.2,9.4-6.6,17.5-6.6,26.9
	c6.5-6.9,7.9-16.6,14.2-23.6c-4.1,16.7-15.2,31.8-11.9,50.2c1-1.4,1.6-2.8,2-4.4c3.4-10.9,6.2-21.9,10.9-32.3c2.3-5,2.7-5.5,6.8-7.2
	c-5.7,13.6-10.7,26.8-10.9,41.1c3-6.8,5.3-13.7,8.2-20.4c4.8-11.3,7.7-15.4,12.8-18.4c-7.9,14-13.4,28-13.7,43.6
	c4.9-13.2,9.9-26.2,19.1-37.4c-8.6,15.9-12.7,32.7-12.1,50.7c3.8-11.5,5.1-23.9,12-34.4c-1.5,10.2-2.9,20.3-4.4,30.5
	c2.1-2.3,3.1-4.9,4.4-7.3c9.5-17.8,12.3-36.5,7.9-56.3c-0.9-4.2-2.1-8.6-0.1-13.1c8.5,13.6,3.8,29,5.2,43.9c1.7-1.6,2.9-2.8,4.3-4
	c1.4-1.2,2.6-2.9,4.9-3.3c-11.8,23.2-18.2,47.4-21.1,73.3c2.5-1,2.5-2.4,2.8-3.6c2.9-10.1,6.1-20.2,8.8-30.4
	c5.2-20.2,21.8-26.8,39-31.8c5-1.5,10.2-2.2,14.9-4.8c0.7-0.4,1.4-0.9,2.2,0.2c-5.2,5.2-10.9,9.7-16.7,14.2c-0.2-0.3-0.4-0.7-0.7-1
	c0.4-2.2,3.4-3.1,3-6.4c-8.4,2.9-15.8,6.6-22.9,11.2c-7.2,4.7-12.5,10.8-14.6,19.3c-1.8,6.9-3.8,13.7-5,20.7
	c-0.6,3.7-2.7,7.7,0,12.1c3.5-15,16.5-40.4,24-46.3c-10.5,21.5-19.5,43.5-23.3,67.5c2.3-0.2,2.2-1.5,2.4-2.3
	c2.9-8.1,5.8-16.1,8.6-24.2c3.1-8.7,6-17.5,10.7-25.5c0.7-1.1,1.2-3.5,3-2.4c1.3,0.8,0.4,2.8-0.3,4.1c-1.1,2.4-2.5,4.7-3.5,7.1
	c-7.8,21.1-13.9,42.7-18.8,64.6c-0.6,2.7-2.2,5.8-0.4,9.1c2.2-1.9,2.5-4.3,3.1-6.4c2.7-10.4,5.3-20.8,8-31.2
	c3.9-14.5,7.7-29.1,15.6-42.1c2.4-4,5.6-7.2,11-8.6c-2.3,5.5-4.4,10.6-5.2,15.9c-0.9,5.3-2.6,10.7-2.1,16.6c3.2-1.7,4.3-4.5,7-7.1
	c-0.7,5-3,8.4-3.2,12.8c5-3.6,7.3-9.1,11.9-12.3c0.7,2.5,0.2,5.1-0.9,7.1c-6.8,13.1-10.9,27.2-15.5,41.1
	c-4.4,13.3-9.2,26.5-11.4,40.4c-0.6,3.7-1.4,5.1-5.3,3.2c1.6,5.9-1.5,10.8-1.7,16c6.4-7.6,9.7-16.6,12.9-25.5
	c6.1-17.4,12-34.9,18.1-52.3c1-2.7,1.7-5.9,5.1-8.2c-2.5,14-7.7,26.5-9.2,40.1c3.1-5,6.2-10,9.3-14.9c0.4,0.2,0.7,0.3,1.1,0.5
	c-4.6,14.8-9.2,29.6-13.8,44.4c5.8-6.1,9-14.5,16.2-19.4c1.4,1.4-0.7,2.4,0.5,3.4c1.8-0.7,2.4-2.5,2.5-3.9c1.9-18,6.7-36,0.5-54.1
	c-0.1-0.4,0.4-1.1,0.7-1.6c4.6-8.2,3.7-17.1,3.7-26.9c-4.1,3.8-7.5,6.9-10.8,10c-1.7-1.8,0.4-2.6,1.2-3.5c2.6-3,5.4-5.9,8.2-8.8
	c4.5-4.5,8.7-9.5,14.3-13c1.1,2.4-0.5,3.8-1.6,5.1c-4.8,5.3-5.4,11.9-5.9,18.6c-0.1,2,0,4.9,1.8,5.3c3.7,0.9,1.8,2.4,1,3.8
	c-3.7,6.2-5.2,12.9-4.8,20c0.2,3.3,1.1,5.5,4.7,2.3c1.9-1.7,3.9-3.2,5.8-4.7c0.3,0.3,0.5,0.7,0.8,1c-3.6,5.3-8.2,10-10.6,16.1
	c-0.9,2.4-3,5.4-0.2,7.2c2,1.3,3.9-1.6,5.6-3.1C510.5,307.4,515.4,301.8,521.8,297.8z M376.5,339.3c6.7,4.2,13.4,8.4,20.9,13.2
	c-3.2-8.5-8.5-13.8-15.5-17.4c-8.3-4.3-17.3-6.4-26.4-8.1c-5.6-1-11.1-1.8-16.7-0.2c-10.9,3.1-19.1,9.7-25.1,19.2
	c-1.9,3-3.4,6.7-7.5,8.2c-0.6-2.8,1-4.4,2.1-6.2c1.7-2.5,3.5-4.8,5-7.4c6.9-12.5,25.6-21.5,39.7-19c7.9,1.4,15.9,2.4,24.4,3.6
	c-3.8-11-8.8-20.8-10.5-31.6c-1.5-8.8-5.8-16-10.8-23.1c-3.3-4.8-6.4-9.7-9.4-14.7c-1.2-2-2.6-4.1-2.3-7c3.8,1.1,4.9,4.2,6.4,6.9
	c1.4,2.5,2.6,5.2,5.4,6.2c6.5,2.2,13.2,0.8,19.9,0.5c-4.7-4.1-9.9-6.7-15.9-7.7c-2.4-0.4-5.4-0.4-3.8-4.8c1-2.6-1.7-4-3.9-4.9
	c-5.7-2.4-11.6-2.7-17.6-1.5c-14.3,3-26.9,9.8-39.2,17.3c-14,8.6-26.9,18.9-41.7,25.9c-8.8,4.2-17.9,7.6-25.5,14.1
	c-17.3,14.7-32.9,31.2-48,48c-2.3,2.6-5.1,5.1-6.5,9.1c4.6-1.1,5.9-6,10.5-7.4c-1.8,5.6-4.9,9.4-7.7,13.4
	c-5.3,7.4-11.6,14.2-15.4,22.6c-0.9,2.1-1.7,4.1-4,2.9c-2.4-1.1-1.4-3.4-0.4-5.2c1.9-3.3,3.9-6.7,5.8-10c-0.5-0.2-0.9-0.5-1.4-0.7
	c-6.4,8.9-12.9,17.7-14.2,29.3c0,0.2,0.3,0.4,0.4,0.6c1.5,0,1.3-2.4,3.5-2c0.1,7.4,0.4,14.8-0.1,22.4c2.4-7.7,2.9-15.9,7-23.4
	c1.6,1.8,1,3.3,1.1,4.7c0.6,7-1.2,13.9-0.1,20.9c0.2,1.5-0.4,4,2.1,3.6c1.9-0.3,1.3-2.6,1.1-4.2c-0.3-2.7,0.1-5.3,0.5-7.9
	c1.3-8.9,6.1-17.1,5.4-26.6c2.3,0.9,3,2.5,3.1,4.4c0.3,2.9-0.9,5.5-1.7,8.2c-1.8,6.6-3.3,13.2-1.1,20.2c2.6-8.7,5.2-17.4,7.8-26
	c0.9,3.9,1,7.7,0.4,11.5c-0.9,5.4-1,10.9-0.1,16.4c0.2,1.3,0.7,3.3,2.6,3.1c1.4-0.2,1.6-1.8,1.9-3.1c1.3-4.7,0.6-9.7,1.3-15.8
	c1.1,5.2,1.2,9.2,3.4,12.6c0.9,1.4,2.1,2.2,3.8,1.8c2-0.5,1.8-1.9,1.6-3.5c-1-8.1,1.7-15.4,5-22.5c0.8-1.7,1.6-3.5,4.7-4.4
	c-3.3,6.9-5.5,13.3-4.8,20.3c0.2,1.9,0.6,4.2,2.4,4.5c2.2,0.4,2.6-2.1,2.9-3.8c0.3-1.8,0.4-3.6,0.8-5.4c0.7-3.4,1.1-6.9,4.9-9.7
	c-0.7,4.8-1.2,8.7-0.9,12.7c0.1,1.6,0.9,3.1,2.3,3.6c1.7,0.6,2.7-0.9,3.5-2.1c1.8-2.5,2.3-5.4,3.1-8.3c0.9-3,1.4-6.4,4.7-8.5
	c0.2,3.5-0.9,6.2-1.5,9.1c-0.4,1.9-1.4,4.3,0.3,5.7c1.6,1.4,3.8,0.5,5.6-0.4c5.7-2.6,11.4-5.1,17.1-7.8c10.1-4.9,20.1-10.3,31-12.9
	c5.5-1.3,10.6-1.8,11.5-10.1c2.6,9.3,5.4,11.3,13.9,11.4c5,0.1,10-0.6,14.8-1.5c8.8-1.6,17.5-3.7,26.3-5.1c9.6-1.6,18.7,1,27.9,3.4
	c1.9,0.5,4.7,1.8,6.1,0.1c1.4-1.7-0.9-3.5-1.8-5.2c-0.8-1.4-1.6-2.9-2.4-4.3c0.2-0.4,0.4-0.8,0.6-1.1c3.6,3,6.8,6.1,8,11.1
	c0.7,2.8,3.3,4.8,6.2,3.3c3-1.5,0.3-3.7-0.4-5.4c-0.8-2-2.2-3.7-3.1-5.7c-1.5-3.3-4.1-6.2-4-10.8c6.9,6.5,9,16,17.3,22.6
	c-2-9.8-8-16.6-9.3-25.8c4,3.7,5.8,7.8,8,11.6c2.9,5.2,5.4,10.7,10.1,14.6c1.8,1.5,3.7,3,6.2,1.4c2.6-1.7,3.1-3.9,2.3-6.9
	c-1.7-5.9-4.4-11.4-6.8-17c-1.4-3.1-3.1-6.2-3.2-10.1c2.7,1.4,3.3,3.7,4.5,5.7c0.6,1.1,1.1,2.8,2.8,1.9c1.7-0.9,1.2-2.5,0.3-3.9
	c-5.4-8.5-25.3-13.8-32.2-3.6c-1.7,2.5-3.8,5-6.7,6.6c-0.8-2.2,0.7-3.6,1.7-5c2.1-3.2,4.5-6.2,6.8-9.2c4.5-5.6,4.5-6.7-0.3-11.7
	c-0.6-0.6-1-1.3-1.5-1.9C376.2,339.8,376.4,339.6,376.5,339.3z M62,456.8c0.2-7.7-3.2-13.3-5-19.3c-0.8-2.5-3.3-4.5-4.9-6.8
	c-9.7-14.1-15.5-30.4-25.1-44.5c-1.3-1.9-1.5-4.1-0.2-7.3c11.6,12.9,16.3,29,26.4,43.1c-0.8-7.5-6.4-12.5-6.2-20.1
	c7.6,8,9.4,19.1,19,26c-0.9-5.7-3.7-9-5.6-12.7c-2.3-4.4-5.3-8.8-5.1-13.8c0.2-5.7-0.7-11.2-2-16.6c-4.9-19.7-7.2-39.8-7.3-60.1
	c-0.1-19.8-3.1-39.3-6.4-58.8c-1.5-8.9-3.1-17.7-4.7-26.6c0.6-0.1,1.2-0.2,1.8-0.3c9,25.7,12.6,52.4,12.9,79.7
	c2.3-4.9,1.1-10.7,3.7-15.5c1.2,12.1-0.2,24.4,3,36.2c3.2-20.9,0.4-42.1,3.1-63.6c1.5,3.7,3.4,3.4,5,1.2c1.2-1.5,1.9-3.5,2.7-5.3
	c2.8-5.9,1.6-12.3,2.3-19.3c3.2,5.4,2.7,11.7,7.2,16.4c1.1-5.8-0.8-10.5-0.9-15.4c0-1.2-0.6-3.5,1.2-3.1c4,0.8,3.1-2.1,3.2-3.8
	c0.4-11.5,0-23.1-2.9-34.1c-3.2-12.1-6.5-24.2-8-36.7c-0.5-3.9-1.5-7.8-2.4-11.6c-0.3-1.4-1-3-2.9-3c-1.6,0-2.2,1.3-2.9,2.4
	c-1.6,2.6-2.3,5.5-3.1,8.4c-3.5,13.1-3.5,26.6-4.8,40c-0.3,2.7-0.8,3.7-3.7,3.4c-6.6-0.6-13.3-0.7-19.9-1.3c-3-0.3-4.6,0.6-5.6,3.4
	c-0.9,2.6-2.3,5.1-3.5,7.7c-2.3,4.8-3.9,10.5-8,13.5c-5.7,4.2-6.5,9.8-7.6,15.8c-3,17-2.4,34.2-1.7,51.3c0.5,11.5,1.2,23.4,6.2,34
	c4,8.5,5.5,17.3,5.5,26.5c-0.1,12.5-0.4,25-0.7,37.5c-0.1,2.4,0.3,4.5,2.1,6.4c7.9,8.6,15.5,17.4,23.5,25.9
	C46.5,442.9,53,450.3,62,456.8z M33,440.4c-1.4-1.4-3.5-2.6-3.4-3.4c0.9-5.7-4-7.7-6.8-11c-2.4-2.8-5.4-3-8.9-1.5
	c-12.7,5.3-18.5,15.2-20,28.4c-1.6,14.4-0.4,29-1.6,43.4c-0.2,2.5,0.5,4.4,2.5,6.1c6.4,5.5,12.7,11.3,19.1,16.9
	c5.6,4.8,11.8,7.3,19.3,5c1.1-0.3,2.3-0.1,3.5-0.2c9.1-0.7,17.2,3,25.2,6.4c11,4.7,21.4,4.6,31.3-2.9c4.5-3.4,9.8-5.4,15-7.4
	c7-2.7,13.8-2.4,20.7,0.5c17.2,7.3,33,16.9,47.1,29.2c8,7,16.7,10.8,27.6,10.4c14.5-0.5,28.9,0.7,43.1,3.8c1.3,0.3,2.6,0.7,3.9,0.8
	c1.3,0.1,2.6,0,4.9,0c-6.9-5.3-13.3-9.4-20.9-9.6c-14.1-0.5-27.7-3.4-41.1-7.2c-1.3-0.4-2.9-0.8-3.2-2.1c-0.8-2.9-3.2-3.2-5.4-3.5
	c-7.7-0.9-14-5.7-21.3-7.8c-2-0.6-2.1-1.9-0.2-3.1c0.8-0.5,1.8-0.9,2-2.3c-3.1-2.1-6.7-1-10-1.1c-3.7-0.2-5.9-0.6-2.6-4.6
	c2.4-2.8,1.1-4.2-2.1-4.4c-3.8-0.2-7.7-0.2-11.5,0c-2.6,0.1-3.8-0.6-3.2-3.3c0.5-2.6-0.9-3.6-3.3-3.8c-8.3-0.9-16.6-0.4-24.9,0.5
	c-7.3,0.8-14,3.9-21,5.5c-0.9,0.2-2.1,0.8-2.6-0.4c-0.5-1.2,0.6-1.9,1.3-2.4c3.3-2.2,7-3.8,10.7-5.2c8.9-3.5,18.4-4.2,27.5-6.7
	c-16.7-4.8-31.5,4.2-48.3,7c6.4-6.5,14.6-8,21.6-13.6c-19.6-1-33.4,7.1-44.2,21.7c0.3-5,2.1-9.1,4.6-12.9c1.9-2.9,4.1-5.6,6.2-8.4
	c0.6-0.8,1.1-1.8,0.5-2.7c-0.6-1-1.8-0.5-2.7-0.4c-3.5,0.6-6.4,2.5-9.6,4c-3.2,1.6-6,4.1-10.1,5.2c6.4-9,15-13.6,24.4-17.5
	c-10.5-0.6-20.4,2.8-31.5,3.4c4-3.4,7.6-5.4,10.7-9.2c-13,1.1-23.7,7.7-35.7,9.6c9.9-7.1,20.9-11.4,32.9-13.9
	c-1.4-2-3.2-2.7-5.2-3.1c-13.2-2.3-24.1,5.1-36,8.7c12.5-11,28.4-13.9,43.6-18.7c-8.6-0.3-17-0.4-25.5-0.3
	c-9,0.1-15.5,6.3-22.9,10.1c5.2-7,11.3-12.4,20.4-13.3c3.2-0.3,6.6-0.8,8.2-5.1c-8.8,0.4-16.4,4.5-25.2,5c1.6-3.4,3.8-5.5,6.7-7
	c2.7-1.5,5.7-2,9-2.1c-1.7-2.4-6.4-1.3-5.9-4.2c0.6-3.2,4.8-2.6,7.5-3.5c1.1-0.4,2.3-0.1,3.5-0.2C24.8,441.7,28.8,442.4,33,440.4z
	 M414,328c0.2-5.9-0.6-12.5-3-18.8c-0.7-2-1.3-4.5-4.1-4.2c-4.7,0.5-7.8-2.2-11.1-4.7c-5.7-4.3-11.3-8.7-18.4-10.6
	c-4.6-1.3-6.1,0-5,4.5c1.3,5.7,3.4,11,5.7,16.3c6.9,15.9,15.3,30.9,28.5,42.6c2.5,2.2,3.6,2.5,4.4-1.2
	C412.7,344.2,414.1,336.6,414,328z M62.8,460.5c12.3,7.2,24.3,12.1,36.3,17c1.6,0.7,3.9,1.8,5.1,0.3c1.2-1.6-0.6-3.5-1.6-4.8
	c-10.1-12.2-19.6-24.7-26.3-39.2c-1.2-2.6-4-6.3-6.5-4.5c-2.4,1.7,1.6,4.2,2.8,6.4c0.5,1,2.6,2.8,0.7,2.9c-4.8,0.3-2.1,3.6-2.5,5.8
	c-2.5-0.7-4.6-1.3-7.5-2.2c4.3,6.3,9.1,10.5,16,12.1c-1.5,1.5-3.8,2.3-3,4.5c1,2.8-0.4,2.5-2.3,2.4
	C70.6,461.1,67.6,459.2,62.8,460.5z M402.8,288.2c0.4-5.6-0.8-7.6-5.9-9.2c-6.4-2-12.2-4.9-17.7-8.7c-5.5-3.8-11.5-5.3-18.9-3.9
	c3.2,5.1,6,9.9,9.2,14.4c1.8,2.6,4.3,4.8,7.7,5.1c6.9,0.6,12.5,3.9,17.6,8.3c2.2,1.9,4.5,3.7,6.8,5.6c-2.4-6.7-7.3-10.8-12.7-14.5
	c-5.4-3.7-11.9-5.4-16.6-10.4C382.7,278.7,394.3,279.1,402.8,288.2z M260.4,512.5c-2.7-8.4-5.3-16.9-8.1-25.3
	c-3.4-10.1-4.4-10.3-11.8-2.4c-7.2,7.7-8.3,14.6-3.4,22.8c2.2-2.1,1.8-5.6,4.3-7.6c3.3,3.7,3.8,9.2,8.3,12.9
	c-0.4-8.2-4.1-15.1-4.7-24.1C251.3,497,254.4,505.6,260.4,512.5z M357.9,497.7c4.5-15.9,9.2-31,10.1-46.9c0.2-2.8,1.1-7.1-2.4-7.7
	c-4.3-0.8-5.1,3.8-6.3,7c-0.2,0.4-0.1,1-0.2,1.5c-2.4,12.5-2.3,25.1-2.8,37.7C356.1,491.8,355.7,494.5,357.9,497.7z M259.1,566.4
	c5.6,3.8,10.6,7.2,11.5,13.4c0.7,4.7,3.7,6,7.6,6.1c5.9,0.1,11.3-2.1,16.5-4.7c3-1.5,3-2.7,0-4.2c-8-4-16.2-7.3-24.7-10
	C266.9,566.1,263.7,565.4,259.1,566.4z M443.1,359.2c2.9-2.7,4.3-6.2,5.8-9.6c8.1-18.6,13.1-38.3,21.6-56.7c0.5-1,0.6-2.2,0.6-3.4
	c0-1.2,0.6-3-0.9-3.6c-1.7-0.7-2.2,1.2-2.8,2.2c-1.3,2.3-2.4,4.7-3.4,7.1c-9,20.4-12.4,42.6-21.5,63
	C442.4,358.4,442.8,358.7,443.1,359.2z M463.1,260.3c-5.2,7.4-19.6,59.7-18.4,65.7C451.1,317.8,464.9,269.5,463.1,260.3z
	 M306.6,505.9c1.9-18.1,2.5-36.2-2.1-55.4c-3.6,5-5.7,9.2-7.3,13.6c-0.3,0.8-0.6,2.6,0.4,2.6c4.9,0.1,3.8,4.2,4.4,6.7
	C304.5,484.1,304.9,495.1,306.6,505.9z M526.4,415c-16.1,18.7-29,40.1-49.4,54.8C490.7,466.2,524.1,428.9,526.4,415z M276.1,540.6
	c8.6,5.6,17.8,9.6,28.1,10.4c2.8,0.2,5.7,0,6.5-3.2c0.7-2.5,0.8-5.6-1.8-7.2c-2.8-1.7-5.5-0.6-7.6,1.6c-3.1,3.3-6.5,3.2-10.4,1.5
	C286.3,541.7,281.6,539.4,276.1,540.6z M430,347.8c4.2-10.8-0.6-17.7-7.6-23.7c-1.1-0.9-2.3-2.6-3.7-1.9c-1.7,0.9-0.7,2.9-0.6,4.5
	c0.1,0.9,0.5,2.1,1.2,2.7C424.6,334.1,427.1,340.6,430,347.8z M418.3,336.8c2.6,9.7,7.1,18.3,13.2,26.1c0.6,0.8,1.4,1.5,2.5,0.6
	c1.1-0.9,1.4-2.1,0.9-3.1C430.9,351.5,425.7,343.4,418.3,336.8z M563.5,332.7c-11.1,3.9-20.2,10.7-27.3,20.1
	C547,348.5,555.5,340.9,563.5,332.7z M203,521.7c-3.4-8.6-7.8-16.6-14.2-23.3c-1-1-2.3-2.8-4.1-1.2c-1.6,1.4-0.3,2.9,0.4,4
	C190,508.9,195.7,515.9,203,521.7z M372.8,252.5c0.5,0.8,0.7,1.4,1.2,1.8c4.7,3.6,9.2,7.3,11,13.4c0.5,1.7,2.3,3.1,3.7,4.5
	c1.3,1.3,2.9,3.2,5,1.6c2.3-1.7,0.5-3.6-0.6-5.1c-4.2-6.2-9.6-11.3-15.7-15.6C376.3,252.3,375,251.3,372.8,252.5z M247.2,171.1
	c-8.2,9.8-11.6,21.7-15,33.6C238.9,194.3,245.3,183.7,247.2,171.1z M477.6,494.2c-2.9-0.4-5.6-0.3-8.3,0.4c-2.1,0.6-5.5,1.2-6.2,0
	c-2.9-5.1-5.8-1.1-8.6-0.4c-1.1,0.3-2.5,1.4-2.2,2.9c0.2,1.4,1.4,2.2,2.6,2.7C459,501.4,474.4,497.7,477.6,494.2z M220,136.9
	c-0.1-1.1,0.4-2.4-0.9-3.2c-1.2-0.7-2.2,0.1-3.1,0.8c-3.9,2.5-6.6,5.9-8.3,10.2c-0.5,1.3-1,2.5,0.1,3.7c1.1,1.2,2.5,0.8,3.7,0.4
	C215.6,147.5,220,141.2,220,136.9z M375.5,485.8c-1.2,9.1-5,17-9.1,24.9c-0.6,1.1-0.8,2.3,0.6,3c1.6,0.8,2.4-0.5,3.1-1.7
	c3.1-5.5,4.9-11.5,5.9-17.7C376.4,491.6,378.1,488.7,375.5,485.8z M366,491.8c8.3-8.6,9.3-20.2,3.2-26.8
	C368.8,473.6,367.7,482.2,366,491.8z M102.1,435.8c0.1-6.8-0.1-12.7-3.2-18.1c-1-1.7-2.5-2-4.3-1.6c-1.2,0.2-2.2,0.9-2.5,2.1
	c-0.3,1.3,0.2,2.5,1.4,2.9c4,1.3,4.2,4.6,4.5,7.9C98.2,431.5,98.8,433.9,102.1,435.8z M327.8,220.6c6.4,3.1,8.7,7.8,8.9,13.8
	c0,0.5,0.2,1,0.4,1.4c0.4,0.5,1,1.1,1.4,1c1-0.1,1.2-1,0.9-1.9c-0.6-2.5-1.8-5.1,1.2-7c0.2-0.2,0.1-1.2-0.2-1.8
	C339.1,222.8,333.4,219.9,327.8,220.6z M459.9,369.8c-5.4,5.8-9.6,10.8-12.7,16.6c-0.3,0.6-0.5,1.8-0.1,2.3c0.5,0.8,1.4,0.3,2.1-0.3
	C454.3,383.7,458.8,378.7,459.9,369.8z M378.2,240.2c3.3-9.9,5-21.4,4.3-29.3C378.3,220.4,377.5,229.6,378.2,240.2z M255.7,527.6
	c-4.5-5.1-16-11-23.2-12.3C240.3,521.2,247,526.4,255.7,527.6z M454.5,393.1c-5.6,5-11.8,9.4-14.9,16.7
	C447.4,406.9,451.2,400.1,454.5,393.1z M300.6,608.1c0.7,8.7,0.5,17.6,2.8,27.5C305.8,625.2,305.2,616.4,300.6,608.1z M303.2,178.6
	c5.7-9.2,5.5-16-0.4-18.4c1,2.5,2.7,5.7,0.9,7.1C298.5,171.2,302.8,174.8,303.2,178.6z M214.8,177.5c-2.9,5.7-6,11.3-7.1,17.7
	c-0.2,1.3-1.3,2.9,0.3,3.5c1.8,0.6,2.4-1.4,3-2.6C213.5,190.2,214.4,183.9,214.8,177.5z M386.1,184.5c-4.6,4-8.6,14-8,19.9
	C382.5,198.3,385.4,192.2,386.1,184.5z M425.6,365.1c-1-6.9-5.4-14.6-9.6-17C416.3,353.8,421,362.2,425.6,365.1z M452.1,412.3
	c-5.1,0.7-12.1,5.8-15.5,11.4C441.9,423.2,449.2,417.8,452.1,412.3z M260,174.2c3.8-5.7,6.1-12,6.8-18.8
	C262.8,160.9,260.3,167.1,260,174.2z M337.6,499.6c2.8-5.5,3.7-10,4.1-14.7c0.1-1.1-0.3-2.6-1.6-2.8c-1.4-0.2-1.8,1.1-2.2,2.2
	C336.5,489,336.8,493.5,337.6,499.6z M251.7,456.2c-1.6,4.4-2.3,7.9-1.9,11.6c0.1,1.3,0.4,2.9,1.9,3c1.4,0.1,2.2-1.3,2.7-2.6
	C255.7,464.1,253.6,460.8,251.7,456.2z M427.9,322.7c-1.7-6-3.5-11.9-10-14.4C419.7,314.1,423.6,318.5,427.9,322.7z M302,504.4
	c-2.4,4.8-3.8,9.6-3.3,14.7c0.1,1.3,0.3,3,2.1,2.8c1.6-0.1,1.2-1.7,1.2-2.8C302,514.3,302,509.4,302,504.4z M420.2,368.7
	c0,6.4,2,12.2,5.5,17.6C426,379.7,424.1,373.9,420.2,368.7z M426.1,560.3c4.5,4,8.9,5.6,15.2,5.2
	C436.6,561.3,432.4,559.4,426.1,560.3z M165.7,213.3c-3.5,4.3-6.4,9-7,14.7C163.9,224.5,164.9,218.9,165.7,213.3z M378.1,518.6
	c2.3,1,4.6,1.6,7.1,0.8c0.9-0.3,2.2-0.4,2.6-1.1c0.6-1-0.6-1.7-1.3-2.4C383.4,512.7,381.2,513.4,378.1,518.6z M193.2,577.6
	c5.9-0.2,9.6-4.2,13.6-7.6C201.4,570.8,196.5,572.9,193.2,577.6z M57,427c3.1,4.8,5.4,10.3,11.8,11.5C65.6,434,61.7,430,57,427z
	 M64.3,325c0,6.7,0,13.5,0,20.2C66.4,338.5,66.4,331.8,64.3,325z M252.6,178.2c-3.8,4.1-6.6,8.8-7.1,14.5
	C249.2,188.6,252,184,252.6,178.2z M412,506.9c-0.1-2.1-1-3.2-3-3c-2.1,0.2-4,1-4.1,3.4c0,2.3,1.8,3.7,3.8,3.6
	C410.9,510.7,412,509,412,506.9z M461.8,365.4c4-4.8,6.8-12.4,6.5-17.6C464.9,353.3,462.7,358.8,461.8,365.4z M154.5,486.2
	c1.7,5,4.3,9.2,8.4,12.4C161.7,493.3,158.9,489.2,154.5,486.2z M340,192.5c-0.1-1.7-0.5-3.6-2.3-3.2c-2.1,0.5-3.7,2.4-3.7,4.8
	c0,1.7,1.3,3,2.9,2.7C339.3,196.5,339.9,194.5,340,192.5z M137.6,220.2c-3,4.6-4.9,8.4-4.5,14.1
	C136.6,229.9,138.4,226.1,137.6,220.2z M432,374.4c0.2-2.6-0.4-4.4-2.5-4.7c-1.7-0.2-2.6,1.2-2.4,3c0.2,2.2,0.9,4.7,3,5
	C431.6,377.9,431.8,375.4,432,374.4z M138.7,238.9c3.9-3,5.1-7,4.3-11.7C140.3,230.5,139.1,234.5,138.7,238.9z M468.8,558.1
	c-1-2.1-2.5-3.7-5-4c-1.2-0.2-2,0.6-1.7,1.7c0.6,2.5,2.4,3.8,4.8,4.2C468,560.1,468.6,559.2,468.8,558.1z M486.1,443.2
	c-0.2-1.2-1.1-1.4-2.2-1.3c-2.6,0.4-4.3,1.9-4.7,4.3c-0.2,0.9,1.3,1.4,2.3,1.1C483.7,446.8,485.5,445.7,486.1,443.2z M117,527.2
	c0-1.3-0.7-2.3-1.8-2.1c-2.3,0.5-4.3,1.6-5,4.1c-0.4,1.2,0.6,1.8,1.7,1.8C114.5,530.9,115.9,529.2,117,527.2z M200.2,216.6
	c2.9-3.1,5.6-6.1,5.9-11.3C202.3,208.8,200.4,212.3,200.2,216.6z M555.1,299.5c4.3-2,6.6-5.4,6.9-10.4c-0.9,0.4-1.3,0.4-1.4,0.6
	C558.7,293,556.9,296.3,555.1,299.5z M416.6,389.4c0.4-5.4-1.4-8.9-4.8-9.8C413,382.9,413.3,386.4,416.6,389.4z M400.5,510.9
	c-1.8,0.1-2.8,1.1-2.8,2.8c-0.1,1.8,1.1,2.9,2.7,3c1.5,0,2.8-1,2.7-2.9C403.1,512.1,402.3,511.1,400.5,510.9z M70.3,295.9
	c-1.3,4.1-1.6,7.4,0.2,11.2C71.5,303.2,72.1,299.9,70.3,295.9z M171.2,215.8c4.2-3,4.5-4,2.8-9.1
	C171.8,209.5,171.1,212.4,171.2,215.8z M383.3,583.1c-3.3-5.6-4-6.1-8.7-5.3C377.2,580,379.5,581.8,383.3,583.1z M368.1,559.5
	c-0.7-2.9-1-5.6-3.6-7.4c-0.1-0.1-1,0.4-1.1,0.8c-0.6,3,1.4,4.8,3.2,6.7C366.7,559.7,367,559.6,368.1,559.5z M433.9,487.4
	c0-0.8-0.4-1.5-1.1-1.3c-2.3,0.7-4.9,1.1-6.1,3.5c-0.2,0.5,0.8,1.3,1.7,1.3C431,490.9,432.6,489.3,433.9,487.4z M99.6,255.5
	c0.7-5,0.7-8.6-0.3-12.2C98,247,97.5,250.7,99.6,255.5z M382.8,599.6c-2.1-3.9-5.9-4.9-9.5-6.3C376.2,595.8,378.7,598.9,382.8,599.6
	z M447.5,525.7c-1.3,4.1,0.6,6.2,3.4,8.4C451.5,530.5,450.4,528,447.5,525.7z M416.8,297c-0.3-2.7-0.8-5.3-3.4-6.9
	c-0.1-0.1-1,0.5-1,0.8c-0.1,2.8,1.2,4.9,3.6,6.3C416.1,297.3,416.3,297.2,416.8,297z M458.4,553.4c-1.9-2.7-4.4-3.5-7-3.7
	c-0.5,0-0.8,1.1-0.4,1.6C452.8,553.6,454.9,554.8,458.4,553.4z M370.9,550.7c-0.8-2.7-0.7-5.5-3.6-7c-0.2-0.1-1.1,0.4-1.1,0.7
	c-0.3,2.9,1.4,4.8,3.4,6.5C369.7,551,369.9,550.9,370.9,550.7z M534.2,331.8c2.3-1.4,4.1-3.3,4.4-6.1c0.1-0.6-0.9-1.1-1.5-0.7
	C535,326.7,533.7,328.8,534.2,331.8z M579.3,321.3c-5,2.2-6.6,3.7-8.2,7.7C574.5,327.1,577.3,325,579.3,321.3z M518.8,491.2
	c-0.3-1.7-0.9-3.1-3-3.2c-1.1-0.1-2.1,0.2-1.9,1.6c0.3,2,1.6,3.4,3.3,3.9C518.2,493.7,518.5,492.2,518.8,491.2z M213.8,511.3
	c0.4,3.1,1,5.5,3.6,6.9c0.2,0.1,1.2-0.4,1.2-0.6c-0.2-2.6-1.8-4.4-3.8-6C214.7,511.5,214.6,511.5,213.8,511.3z M156.2,205.5
	c2.2-3.2,2.3-6.3,0-9.5C156.2,199.2,156.2,202.3,156.2,205.5z M337.8,211c2.1-5,2.1-5,0.1-7.7C336.6,205.5,336.9,207.7,337.8,211z
	 M52.8,348.3c-0.9,2.7-1.2,5.5,0.3,8.1C53.9,353.7,54.7,351,52.8,348.3z M306.3,521.4c0,3.1,0,6.3,0,9.4
	C308.5,527.7,308.5,524.6,306.3,521.4z M286.3,601.7c1.1-2.1,2.8-4.3,0.1-6.7C284.5,597.2,285,599.4,286.3,601.7z M332.5,167.2
	c1.1-2.6,2.7-4.8-0.2-7.4C331,162.4,330.8,164.6,332.5,167.2z M153.6,222.4c1.9-4.1,1.7-6.7,0.3-9.3
	C152.9,215.8,152.8,218.4,153.6,222.4z M115.8,243.2c-0.8,2.8-1.2,4.8,0.3,7.6C117.4,248.1,118.8,246.1,115.8,243.2z"/>
</svg>
