<?xml version="1.0" encoding="utf-8"?>
<!-- Generator: Adobe Illustrator 22.1.0, SVG Export Plug-In . SVG Version: 6.00 Build 0)  -->
<svg version="1.1" id="Layer_1" xmlns="http://www.w3.org/2000/svg" xmlns:xlink="http://www.w3.org/1999/xlink" x="0px" y="0px"
	 viewBox="0 0 512 512" style="enable-background:new 0 0 512 512;" xml:space="preserve">
<path style="fill:none;stroke:#000000;stroke-miterlimit:10;" d="M12.5,342.2v10.1H490v-10.1H12.5z"/>
<polygon style="fill:none;stroke:#000000;stroke-miterlimit:10;" points="480.2,101.4 480.2,329.1 470.1,329.1 470.1,315.2 
	371.7,315.2 371.7,329.1 26.6,329.1 26.6,101.4 "/>
<path style="fill:none;stroke:#000000;stroke-miterlimit:10;" d="M12.2,92.5v249.3h477.4V92.5H12.2z M470.1,332.9h-0.8v-0.7h-96v0.7
	h-1.6v-4.8H28.6v-222h444.6v222h-3.1V332.9z"/>
<path style="fill:none;stroke:#000000;stroke-miterlimit:10;" d="M12.2,92.5v1.6l16.4,13.7v-1.7h0.2L12.5,92.5H12.2L12.2,92.5z"/>
<path style="fill:none;stroke:#000000;stroke-miterlimit:10;" d="M12.4,92.5l16.2,13.6h2.3L14.7,92.5H12.4z"/>
<path style="fill:none;stroke:#000000;stroke-miterlimit:10;" d="M12.2,341.4v-1.6L28.6,326v1.7h0.2l-16.2,13.6L12.2,341.4
	L12.2,341.4z"/>
<path style="fill:none;stroke:#000000;stroke-miterlimit:10;" d="M12.4,341.6L28.6,328h2.3l-16.2,13.6H12.4z"/>
<path style="fill:none;stroke:#000000;stroke-miterlimit:10;" d="M489.9,92.5v1.6l-16.4,13.7v-1.7h-0.2l16.2-13.6H489.9L489.9,92.5
	L489.9,92.5z"/>
<path style="fill:none;stroke:#000000;stroke-miterlimit:10;" d="M489.7,92.5l-16.2,13.6h-2.3l16.2-13.6H489.7L489.7,92.5
	L489.7,92.5z"/>
<path style="fill:none;stroke:#000000;stroke-miterlimit:10;" d="M489.9,341.4v-1.6L473.5,326v1.7h-0.2l16.2,13.6L489.9,341.4
	L489.9,341.4L489.9,341.4z"/>
<path style="fill:none;stroke:#000000;stroke-miterlimit:10;" d="M489.7,341.6L473.5,328h-2.3l16.2,13.6H489.7L489.7,341.6
	L489.7,341.6z"/>
<path style="fill:none;stroke:#000000;stroke-miterlimit:10;" d="M26.8,104.3L28,329.7l6.6-1l1.2-213.5h438.1v-10.9L26.8,104.3
	L26.8,104.3z"/>
<rect x="29.7" y="328.1" style="fill:none;stroke:#000000;stroke-miterlimit:10;" width="342" height="1.5"/>
<polygon style="fill:none;stroke:#000000;stroke-miterlimit:10;" points="476.6,329.1 476.6,329.7 470.1,329.7 470.1,328.1 
	473.2,328.1 473.2,106.1 468.9,106.1 468.9,105.2 475.4,104.3 "/>
<path style="fill:none;stroke:#000000;stroke-miterlimit:10;" d="M65.7,321.9h-2.3h-4.7l0.3,5.3l0.1,4.1h-0.5v4.2h0.6v0.2l-5,0.1
	v5.4h5.1v0.6h6.5v-0.6h15.9V341h0.1l-0.1-1.9v-3.5l15,5.7l0.1-0.1h0.1l1.2-2.4l1.6-3l-6.8-2.3L86,331v-0.3h-0.7l-11-4l-2.4,4.3h-6.3
	v-9.3L65.7,321.9L65.7,321.9L65.7,321.9z M66,335.4h8.4l-8.4,0.1V335.4z"/>
<g>
	<path style="fill:none;stroke:#000000;stroke-miterlimit:10;" d="M53.6,331.6l20.2-0.2l7.3-0.2v4.6H53.6V331.6L53.6,331.6z"/>
	<path style="fill:none;stroke:#000000;stroke-miterlimit:10;" d="M58.9,332.6l2,0.2l0.3,3.2l-2.3-0.9V332.6z"/>
</g>
<path style="fill:none;stroke:#000000;stroke-miterlimit:10;" d="M54.4,342L54,327.5l-0.3-5.3h7.2V342H54.4L54.4,342z"/>
<path style="fill:none;stroke:#000000;stroke-miterlimit:10;" d="M49.3,336.1l20.2-0.3l7.3-0.3v6H49.3V336.1L49.3,336.1z"/>
<g>
	<polygon style="fill:none;stroke:#000000;stroke-miterlimit:10;" points="470.1,315.2 470.1,332.9 469.3,332.9 469.3,332.2 
		373.3,332.2 373.3,332.9 371.7,332.9 371.7,315.2 	"/>
	<rect x="373.3" y="332.2" style="fill:none;stroke:#000000;stroke-miterlimit:10;" width="96" height="0.7"/>
	<rect x="373.3" y="332.2" style="fill:none;stroke:#000000;stroke-miterlimit:10;" width="96" height="10.2"/>
	<polygon style="fill:none;stroke:#000000;stroke-miterlimit:10;" points="259.6,357.8 259.6,357.8 259.6,357.8 	"/>
</g>
</svg>
