<?xml version="1.0" encoding="utf-8"?>
<!-- Generator: Adobe Illustrator 22.1.0, SVG Export Plug-In . SVG Version: 6.00 Build 0)  -->
<svg version="1.1" id="Layer_1" xmlns="http://www.w3.org/2000/svg" xmlns:xlink="http://www.w3.org/1999/xlink" x="0px" y="0px"
	 viewBox="0 0 512 512" style="enable-background:new 0 0 512 512;" xml:space="preserve">
<g transform="translate(500.1 -59.851)">
	<g transform="matrix(2.6997 0 0 2.6997 -2291.6 59.853)">
		<path style="fill:none;" d="M668.4,86.1l0.1,1.2l0.8-1l1.5,0.6v0.9l0.6-0.9l1.6,0.3l0.1,0.9l0.5-0.9l1.7,0.1l0.1,1.5l0.4-1.3h1.5
			l0.4,1.1l0.1-1.1l2.3,0.2l0.3,1.3l0.5-1.2h1.6l0.2,1.2l0.5-0.8h1.2l0.1,1.3l0.5-1.3l1.2,0.3l0.2,1.2l0.6-1.2l1.3,0.3v1.3l0.6-1.3
			l1.9,0.9v1l0.6-1l1.3,0.2V91l0.6-1.3l1.4,0.5v0.9l0.6-1.1l1.5,0.3l-0.2,1.3l0.6-1.1l1.5,0.3l0.4,0.6l0.2-0.7l1.2,0.1v1l0.6-1h1.3
			v1l0.6-1l1.9,0.5V92l0.9-0.8c0,0-2-0.9-6.6-0.9c-1.6,0-4.3-0.5-5.4-0.8c-1.2-0.4-6.4-2.1-7.8-2.1C685,87.4,668.4,86.1,668.4,86.1
			L668.4,86.1z"/>
		<path style="fill:none;stroke:#000000;stroke-width:0.4453;stroke-miterlimit:10.433;" d="M668.4,86.1l0.1,1.2l0.8-1l1.5,0.6v0.9
			l0.6-0.9l1.6,0.3l0.1,0.9l0.5-0.9l1.7,0.1l0.1,1.5l0.4-1.3h1.5l0.4,1.1l0.1-1.1l2.3,0.2l0.3,1.3l0.5-1.2h1.6l0.2,1.2l0.5-0.8h1.2
			l0.1,1.3l0.5-1.3l1.2,0.3l0.2,1.2l0.6-1.2l1.3,0.3v1.3l0.6-1.3l1.9,0.9v1l0.6-1l1.3,0.2V91l0.6-1.3l1.4,0.5v0.9l0.6-1.1l1.5,0.3
			l-0.2,1.3l0.6-1.1l1.5,0.3l0.4,0.6l0.2-0.7l1.2,0.1v1l0.6-1h1.3v1l0.6-1l1.9,0.5V92l0.9-0.8c0,0-2-0.9-6.6-0.9
			c-1.6,0-4.3-0.5-5.4-0.8c-1.2-0.4-6.4-2.1-7.8-2.1C685,87.4,668.4,86.1,668.4,86.1L668.4,86.1z"/>
		<path style="fill:none;" d="M706,94.2l-1.1-1.1l0.3,1.3l-2.1,0.4l-0.7-1.1l0.3,1.1l-2,0.7l-0.8-1.1v1.1l-1.1,0.2l-0.8-1.2l0.2,1.2
			l-1.7,0.3l-0.4-1.3l-0.2,1.5h-1.5l-0.5-1.6l-0.1,1.5l-1.8,0.2l-0.5-1.6l-0.1,1.6l-2.5-0.5l-0.1-1.5l-0.5,1.3h-1.9l-0.4-1.5
			l-0.2,1.3l-1.8-0.2l-0.6-1.3l-0.4,1.2h-2l-0.3-1.5l-0.4,1.5l-2,0.3l-0.6-1.6v1.6l-1.7-0.2l-0.6-1.3l-0.5,1.3h-1.6l-0.5-1.1l-0.2,1
			l-1.5,0.3l-0.5-1.3l-0.4,1.3l-1.3,0.2l-0.5-1.1v0.9c0,0,15.9,1,18.6,1.1C689.7,96.6,701.4,97.5,706,94.2L706,94.2z"/>
		<path style="fill:none;stroke:#000000;stroke-width:0.4453;stroke-miterlimit:10.433;" d="M706,94.2l-1.1-1.1l0.3,1.3l-2.1,0.4
			l-0.7-1.1l0.3,1.1l-2,0.7l-0.8-1.1v1.1l-1.1,0.2l-0.8-1.2l0.2,1.2l-1.7,0.3l-0.4-1.3l-0.2,1.5h-1.5l-0.5-1.6l-0.1,1.5l-1.8,0.2
			l-0.5-1.6l-0.1,1.6l-2.5-0.5l-0.1-1.5l-0.5,1.3h-1.9l-0.4-1.5l-0.2,1.3l-1.8-0.2l-0.6-1.3l-0.4,1.2h-2l-0.3-1.5l-0.4,1.5l-2,0.3
			l-0.6-1.6v1.6l-1.7-0.2l-0.6-1.3l-0.5,1.3h-1.6l-0.5-1.1l-0.2,1l-1.5,0.3l-0.5-1.3l-0.4,1.3l-1.3,0.2l-0.5-1.1v0.9
			c0,0,15.9,1,18.6,1.1C689.7,96.6,701.4,97.5,706,94.2L706,94.2z"/>
		<path style="fill:none;" d="M667.2,86L667.2,86L667.2,86L667.2,86L667.2,86L667.2,86L667.2,86L667.2,86l0.2-0.2h0.1l0.1-0.1
			l0.1-0.1h0.1l0.1-0.1l0.1-0.1l0.1-0.1l0.1-0.1l0.1-0.1l0.1-0.1l0.1-0.1l0.1-0.1l0.1-0.1l0.1-0.1l0.1-0.1l0.1-0.1l0.1-0.1l0.2-0.1
			h0.2l0.2-0.1l0.2-0.1h0.2h0.2l0.2-0.1c1.9-0.3,1.3,0.6,2.2,1c1,0.3,13.6-1.3,15.6-1.9c1.8-0.6,3.5-1.3,3.5-1.3l2.8-0.6
			c0,0,0.9-1.6,4.5-1.6c0,0,2.4,0,5.2,2.8c0.9,1,4.6,0.3,4.6,0.3s4.9,0.2,6.4,0.4c2.2,0.3,2.2,1.5,2.2,1.5s3.2-0.6,3.8,1
			c0,0,7.3-0.6,8.5,0.3c0,0,3.2-0.9,4.5-0.3c0,0,4.7-1.6,6.3,0c0,0,5.4-2.3,6.7-1c0,0,1.9-1.3,5.7,0.7c0,0,2.2-1.9,6.3-0.7
			c0,0,3.5-1.3,7,1.9c0,0,5-1.6,7.5,1.3c0,0,4.5-0.9,6,0.6c0,0,3.8,1.3,5.4,3.5c0,0,4.7-0.5,7.4,0.9c0,0,2.7-0.6,4.6,1.2
			c0,0,2.6-0.5,4.5,0.7c0,0,2.8-1.7,6,0.2c0,0,4.7-0.3,6.3,1c0,0,2.8-1.3,5.1,0c0,0,3.5-0.8,5.6,0.1c0,0,3-2.5,5.2-1.9
			c0,0,2.3-2,5.3-1.7c0,0,0.9-2.6,3.1-2.6c0,0,1-3.5,2.3-3.2l0.6-3.8c-0.6-2.2-6-7.9-7.9-7.9c0,0,10.7-1.6,12.6,7.9
			c0.4,1.9-1.9,8.9-3.2,9.2c0,0-4.1,7.6-6,7.9c0,0-6,6.6-8.8,5.7c0,0-3.8,1.9-5.7,1.3c0,0-2.8,1-5.6,1c-1,0-3.8,0.9-6.4-0.4
			c0,0-3.5,1-6,0c0,0-3.7,1.3-8.2,0c0,0-4.5,1-5.6,0.4c0,0-3.8,1.3-5.1,1.5c-1.3,0.4-5.1,2.2-5.1,2.2s-1.8,3.9-4.1,5.1
			c-2.2,1.3-3.1,4.5-5,4.5c0,0-3.5,1.2-4.1,4.1l0.6-3.9c0,0-5.1,2.6-6.6,3.5c0,0,1.9-3.7,2.8-3.7c0,0-4.5,0.9-6.4,1.6
			c0,0,5.7-2.8,6.6-3.5c1-0.6,2.9-4.1,5.3-4.7c2.6-0.7-4.2-2.8-5.2-2.8c1.3,0,0.4,0.5-0.7-0.3c0,0,0.3,0.5,0.3,1.5s-1.6,5.4-4.1,6.6
			c-2.6,1.3-10.5,2.6-10.5,2.6l2.8-1.3c0,0-6.9,0.6-8.2,0.6c0,0,5.3-1.9,6.4-2.8c0.9-1,5-3.5,4.1-6.4c0,0-8.5,1.7-21.8-1.6
			c0,0,3.2,2.6,2.8,4.5c-0.3,1.8-1.8,6.6-7.6,5.7c0,0-4.5,3.5-10.7,3.8c0,0,1.3-1.9,2.6-2.3c0,0-3.5-0.6-5.1-0.6
			c0,0,5.7-0.5,7.7-1.2c1.8-0.6,4.1-4.7,6.3-5.1c2.2-0.3,0.9-0.7,0.9-0.7s-3.7-2.5-4.7-3.2c0,0-3,0.3-6.3-0.6
			c-4.1-1.1-10.2-6.4-12.5-7.9s-4.9-2.1-6.8-2.3c-3.6-0.3-9.5-2-11.4-2.2c-1.5-0.1-15.2-0.3-18.3-2.6c-3.2-2.2-1.9-1.6,0-1.6
			s12-0.3,13.6-0.3c1.5,0,5.7,0.6,9.5,1c3.8,0.3,11.1-1,13.3-1.6s3.5-2.5,0-2.5s-12.9-1-14.2-1.6c-1.3-0.6-5.4-1.6-7.6-1.6
			C681.1,88.2,671.7,88.2,667.2,86L667.2,86z"/>
		<path style="fill:none;stroke:#000000;stroke-width:1.039;stroke-miterlimit:10.433;" d="M667.2,86L667.2,86L667.2,86L667.2,86
			L667.2,86L667.2,86L667.2,86L667.2,86l0.2-0.2h0.1l0.1-0.1l0.1-0.1h0.1l0.1-0.1l0.1-0.1l0.1-0.1l0.1-0.1l0.1-0.1l0.1-0.1l0.1-0.1
			l0.1-0.1l0.1-0.1l0.1-0.1l0.1-0.1l0.1-0.1l0.1-0.1l0.2-0.1h0.2l0.2-0.1l0.2-0.1h0.2h0.2l0.2-0.1c1.9-0.3,1.3,0.6,2.2,1
			c1,0.3,13.6-1.3,15.6-1.9c1.8-0.6,3.5-1.3,3.5-1.3l2.8-0.6c0,0,0.9-1.6,4.5-1.6c0,0,2.4,0,5.2,2.8c0.9,1,4.6,0.3,4.6,0.3
			s4.9,0.2,6.4,0.4c2.2,0.3,2.2,1.5,2.2,1.5s3.2-0.6,3.8,1c0,0,7.3-0.6,8.5,0.3c0,0,3.2-0.9,4.5-0.3c0,0,4.7-1.6,6.3,0
			c0,0,5.4-2.3,6.7-1c0,0,1.9-1.3,5.7,0.7c0,0,2.2-1.9,6.3-0.7c0,0,3.5-1.3,7,1.9c0,0,5-1.6,7.5,1.3c0,0,4.5-0.9,6,0.6
			c0,0,3.8,1.3,5.4,3.5c0,0,4.7-0.5,7.4,0.9c0,0,2.7-0.6,4.6,1.2c0,0,2.6-0.5,4.5,0.7c0,0,2.8-1.7,6,0.2c0,0,4.7-0.3,6.3,1
			c0,0,2.8-1.3,5.1,0c0,0,3.5-0.8,5.6,0.1c0,0,3-2.5,5.2-1.9c0,0,2.3-2,5.3-1.7c0,0,0.9-2.6,3.1-2.6c0,0,1-3.5,2.3-3.2l0.6-3.8
			c-0.6-2.2-6-7.9-7.9-7.9c0,0,10.7-1.6,12.6,7.9c0.4,1.9-1.9,8.9-3.2,9.2c0,0-4.1,7.6-6,7.9c0,0-6,6.6-8.8,5.7c0,0-3.8,1.9-5.7,1.3
			c0,0-2.8,1-5.6,1c-1,0-3.8,0.9-6.4-0.4c0,0-3.5,1-6,0c0,0-3.7,1.3-8.2,0c0,0-4.5,1-5.6,0.4c0,0-3.8,1.3-5.1,1.5
			c-1.3,0.4-5.1,2.2-5.1,2.2s-1.8,3.9-4.1,5.1c-2.2,1.3-3.1,4.5-5,4.5c0,0-3.5,1.2-4.1,4.1l0.6-3.9c0,0-5.1,2.6-6.6,3.5
			c0,0,1.9-3.7,2.8-3.7c0,0-4.5,0.9-6.4,1.6c0,0,5.7-2.8,6.6-3.5c1-0.6,2.9-4.1,5.3-4.7c2.6-0.7-4.2-2.8-5.2-2.8
			c1.3,0,0.4,0.5-0.7-0.3c0,0,0.3,0.5,0.3,1.5s-1.6,5.4-4.1,6.6c-2.6,1.3-10.5,2.6-10.5,2.6l2.8-1.3c0,0-6.9,0.6-8.2,0.6
			c0,0,5.3-1.9,6.4-2.8c0.9-1,5-3.5,4.1-6.4c0,0-8.5,1.7-21.8-1.6c0,0,3.2,2.6,2.8,4.5c-0.3,1.8-1.8,6.6-7.6,5.7
			c0,0-4.5,3.5-10.7,3.8c0,0,1.3-1.9,2.6-2.3c0,0-3.5-0.6-5.1-0.6c0,0,5.7-0.5,7.7-1.2c1.8-0.6,4.1-4.7,6.3-5.1
			c2.2-0.3,0.9-0.7,0.9-0.7s-3.7-2.5-4.7-3.2c0,0-3,0.3-6.3-0.6c-4.1-1.1-10.2-6.4-12.5-7.9s-4.9-2.1-6.8-2.3
			c-3.6-0.3-9.5-2-11.4-2.2c-1.5-0.1-15.2-0.3-18.3-2.6c-3.2-2.2-1.9-1.6,0-1.6s12-0.3,13.6-0.3c1.5,0,5.7,0.6,9.5,1
			c3.8,0.3,11.1-1,13.3-1.6s3.5-2.5,0-2.5s-12.9-1-14.2-1.6c-1.3-0.6-5.4-1.6-7.6-1.6C681.1,88.2,671.7,88.2,667.2,86L667.2,86z"/>
		<path style="fill:none;" d="M717.8,111.3L717.8,111.3L717.8,111.3h0.2h0.1h0.1h0.1h0.1h0.1l0.2,0.1h0.2h0.2l0.2,0.1h0.2l0.2,0.1
			h0.2l0.2,0.1h0.3l0.3,0.1h0.3l0.5,0.1h0.3h0.3h0.3h1h0.2h0.2h0.2l0.2-0.1h0.1h0.1c0,0-0.3,3.6-2.2,4.5s-5.4,4.5-5.4,4.5l-7.9,0.3
			C708.6,121.1,716.5,115.1,717.8,111.3L717.8,111.3z"/>
		<path style="fill:none;stroke:#000000;stroke-width:1.039;stroke-miterlimit:10.433;" d="M717.8,111.3L717.8,111.3L717.8,111.3
			h0.2h0.1h0.1h0.1h0.1h0.1l0.2,0.1h0.2h0.2l0.2,0.1h0.2l0.2,0.1h0.2l0.2,0.1h0.3l0.3,0.1h0.3l0.5,0.1h0.3h0.3h0.3h1h0.2h0.2h0.2
			l0.2-0.1h0.1h0.1c0,0-0.3,3.6-2.2,4.5s-5.4,4.5-5.4,4.5l-5.3,0.8l2.4-1.4l-6,0.9C707.7,121.1,716.5,115.1,717.8,111.3L717.8,111.3
			z"/>
		<path style="fill:none;" d="M694.1,85.1h0.2h0.2h0.2h0.2h0.3h0.2h0.2h0.2h0.2h0.2l0.2,0.1l0.3,0.1l0.3,0.1l0.3,0.1l0.3,0.1h0.2
			l0.2,0.1h0.2h0.2h0.2h0.2h0.4h0.2h0.2h0.2l0.2-0.1c0.6-0.2,1.5,0.2,1.9-0.6c-0.3,0-0.5,0.1-0.8,0c-0.8-0.3-1.5-1-2.4-1.2
			C696.8,83.6,695.5,84.7,694.1,85.1L694.1,85.1z"/>
		<path style="fill:none;stroke:#000000;stroke-width:0.5937;stroke-miterlimit:10.433;" d="M694.1,85.1h0.2h0.2h0.2h0.2h0.3h0.2
			h0.2h0.2h0.2h0.2l0.2,0.1l0.3,0.1l0.3,0.1l0.3,0.1l0.3,0.1h0.2l0.2,0.1h0.2h0.2h0.2h0.2h0.4h0.2h0.2h0.2l0.2-0.1
			c0.6-0.2,1.5,0.2,1.9-0.6c-0.3,0-0.5,0.1-0.8,0c-0.8-0.3-1.5-1-2.4-1.2C696.8,83.6,695.5,84.7,694.1,85.1L694.1,85.1z"/>
		<path style="fill:none;" d="M697.6,83.8L697.6,83.8L697.6,83.8L697.6,83.8L697.6,83.8L697.6,83.8L697.6,83.8L697.6,83.8
			L697.6,83.8L697.6,83.8L697.6,83.8L697.6,83.8L697.6,83.8L697.6,83.8L697.6,83.8l-0.1,0.2l0,0v0.1v0.1l0,0v0.1v0.1l0,0v0.1v0.1
			v0.1l0,0v0.1v0.1V85l0,0v0.1v0.1l0,0v0.1v0.1l0,0v0.1l0,0c0.2,0.3,0.8,0.2,1.3,0.2c0-0.5,0.3-0.9,0.2-1.4c-0.2,0-0.3-0.1-0.4-0.2
			C698.1,83.8,698,83.8,697.6,83.8L697.6,83.8z"/>
		<path style="fill:none;stroke:#000000;stroke-width:0.4453;stroke-miterlimit:10.433;" d="M697.6,83.8L697.6,83.8L697.6,83.8
			L697.6,83.8L697.6,83.8L697.6,83.8L697.6,83.8L697.6,83.8L697.6,83.8L697.6,83.8L697.6,83.8L697.6,83.8L697.6,83.8L697.6,83.8
			L697.6,83.8l-0.1,0.2l0,0v0.1v0.1l0,0v0.1v0.1l0,0v0.1v0.1v0.1l0,0v0.1v0.1V85l0,0v0.1v0.1l0,0v0.1v0.1l0,0v0.1l0,0
			c0.2,0.3,0.8,0.2,1.3,0.2c0-0.5,0.3-0.9,0.2-1.4c-0.2,0-0.3-0.1-0.4-0.2C698.1,83.8,698,83.8,697.6,83.8L697.6,83.8z"/>
		<path style="fill:none;stroke:#000000;stroke-width:0.5937;stroke-miterlimit:10.433;" d="M706.1,83.6c0,1.2-0.4,1.7-0.6,2.3"/>
		<path style="fill:none;stroke:#000000;stroke-width:0.5937;stroke-miterlimit:10.433;" d="M717.3,85.1L717.3,85.1v0.2v0.2v0.2V86
			v0.2l-0.1,0.2l-0.1,0.2L717,87l-0.1,0.3l-0.1,0.3l-0.1,0.3v0.2v0.1v0.2v0.2v0.1v0.2v0.2v0.2v0.2v0.2c-0.2,1.3-0.5,1.6-1.5,2.3"/>
		<path style="fill:none;stroke:#000000;stroke-width:0.5937;stroke-miterlimit:10.433;" d="M711.3,83.1L711.3,83.1L711.3,83.1
			L711.3,83.1L711.3,83.1l0.1,0.2v0.1v0.1v0.1v0.1v0.1v0.1V84v0.1v0.1v0.1v0.2v0.2v0.1v0.1V85v0.1v0.1v0.1v0.1v0.4
			c-0.2,1.7-0.8,2.4-1.2,3.2"/>
		<path style="fill:none;stroke:#000000;stroke-width:0.5937;stroke-miterlimit:10.433;" d="M721,86c0,0,1.1,7.1-1,11.2"/>
		<path style="fill:none;stroke:#000000;stroke-width:0.5937;stroke-miterlimit:10.433;" d="M729,86.5c0,0,1.5,7.8-1.1,12.2"/>
		<path style="fill:none;stroke:#000000;stroke-width:0.5937;stroke-miterlimit:10.433;" d="M733.9,86c0,0,2.2,5.5,0.5,9"/>
		<path style="fill:none;stroke:#000000;stroke-width:0.5937;stroke-miterlimit:10.433;" d="M740.2,86c0,0,2.7,4.7,0.5,8.8"/>
		<path style="fill:none;stroke:#000000;stroke-width:0.5937;stroke-miterlimit:10.433;" d="M746.9,85c0,0,2.1,5.1,0.2,10.1"/>
		<path style="fill:none;stroke:#000000;stroke-width:0.5937;stroke-miterlimit:10.433;" d="M752.6,85.7c0,0,1.3,6-0.5,11.6"/>
		<path style="fill:none;stroke:#000000;stroke-width:0.5937;stroke-miterlimit:10.433;" d="M758.9,85c0,0,1.6,7-0.9,12.9"/>
		<path style="fill:none;stroke:#000000;stroke-width:0.5937;stroke-miterlimit:10.433;" d="M765.9,86.9c0,0,1.3,8.1-2.4,12.5"/>
		<path style="fill:none;stroke:#000000;stroke-width:0.5937;stroke-miterlimit:10.433;" d="M773.4,88.2c0,0,0.5,7.5-1.1,9.3"/>
		<path style="fill:none;stroke:#000000;stroke-width:0.5937;stroke-miterlimit:10.433;" d="M779.4,88.8c0,0-0.4,8.9-3.8,12.3"/>
		<path style="fill:none;stroke:#000000;stroke-width:0.5937;stroke-miterlimit:10.433;" d="M784.8,92.3c0,0,0.6,6.4-2.1,8.8"/>
		<path style="fill:none;stroke:#000000;stroke-width:0.5937;stroke-miterlimit:10.433;" d="M792.2,93.2L792.2,93.2L792.2,93.2
			L792.2,93.2l-0.1,0.2v0.1v0.1l-0.1,0.1v0.1l-0.1,0.1l-0.1,0.1l-0.1,0.1l-0.1,0.1l-0.1,0.1l-0.2,0.3l-0.2,0.3l-0.2,0.3l-0.2,0.4
			l-0.3,0.4l-0.2,0.4l-0.3,0.4l-0.3,0.4l-0.3,0.4l-0.5,0.9l-0.6,0.9l-0.3,0.4l-0.3,0.4l-0.3,0.4L787,101l-0.3,0.4l-0.3,0.4l-0.3,0.3
			l-0.3,0.3l-0.3,0.3l-0.1,0.1l-0.1,0.1l-0.1,0.1l-0.1,0.1l-0.1,0.1l-0.1,0.1c0,0-0.6,4.7-1.7,5.7"/>
		<path style="fill:none;stroke:#000000;stroke-width:0.5937;stroke-miterlimit:10.433;" d="M801.3,95.1c0,0-2.1,7-5.7,12.7"/>
		<path style="fill:none;stroke:#000000;stroke-width:0.5937;stroke-miterlimit:10.433;" d="M796.8,94.4c0,0-6.5,13.4-7.4,13.8"/>
		<path style="fill:none;stroke:#000000;stroke-width:0.5937;stroke-miterlimit:10.433;" d="M807.3,95.3c0,0-2.7,10.1-3.5,12.5"/>
		<path style="fill:none;stroke:#000000;stroke-width:0.5937;stroke-miterlimit:10.433;" d="M813.6,96.3c-0.3,0.5-2.4,9.9-3.8,11.5"
			/>
		<path style="fill:none;stroke:#000000;stroke-width:0.5937;stroke-miterlimit:10.433;" d="M818.9,96.8c0,0-2.4,9.7-3.5,11.4"/>
		<path style="fill:none;stroke:#000000;stroke-width:0.5937;stroke-miterlimit:10.433;" d="M824.3,96.4c0,0-1.5,10-2.5,10.8"/>
		<path style="fill:none;stroke:#000000;stroke-width:0.5937;stroke-miterlimit:10.433;" d="M829.5,94.5c0,0-0.7,10.3-2,11.4"/>
		<path style="fill:none;stroke:#000000;stroke-width:0.5937;stroke-miterlimit:10.433;" d="M834.8,92.8c0,0,2.8,4.7,0.1,8.9"/>
		<path style="fill:none;stroke:#000000;stroke-width:0.5937;stroke-miterlimit:10.433;" d="M837.9,90.1c0,0,3.4,1.9,3.4,4.1"/>
		<path style="fill:none;stroke:#000000;stroke-width:0.5937;stroke-miterlimit:10.433;" d="M840.2,86.9c0,0,4.1,1.6,3.7,3.4"/>
		<path style="fill:none;stroke:#000000;stroke-width:0.5937;stroke-miterlimit:10.433;" d="M840.8,83.1c0,0,4.4-1.6,4.7,0.6"/>
		<path style="fill:none;stroke:#000000;stroke-width:0.5937;stroke-miterlimit:10.433;" d="M838.2,79.2c0,0,1.3-1.3,4.9-0.8"/>
		<path style="fill:none;stroke:#000000;stroke-width:0.5937;stroke-miterlimit:10.433;" d="M835.3,76.5c0,0,0.4-0.6,3.6-0.4"/>
		<path style="fill:none;stroke:#000000;stroke-width:1.039;stroke-miterlimit:10.433;" d="M779.7,111.9v-0.2v-0.1l0,0v-0.1l0,0
			v-0.1v-0.1l0,0l0,0l0,0l0,0l0,0l0,0l0,0l0,0l0,0l0,0l0,0h-0.1l0,0h-0.1l0,0h-0.1h-0.1h-0.1h-0.1H779h-0.1h-0.1h-0.2h-0.1h-0.2
			h-0.1h-0.4c-1.7,0-2.6-1.1-2.8-2c-0.4-1-1.1-2.7,0.7-4.9"/>
		<path style="fill:none;stroke:#000000;stroke-width:1.039;stroke-miterlimit:10.433;" d="M768.3,99.6l-0.3,0.1l-0.3,0.1l-0.3,0.1
			l-0.3,0.1l-0.1,0l-0.3,0.1l-0.2,0.1l-0.3,0.1l-0.2,0.1l-0.2,0.1l-0.2,0.1l-0.2,0.1l-0.2,0.1l-0.2,0.1l-0.2,0.1l-0.2,0.1l-0.2,0.1
			l-0.2,0.1l-0.2,0.1l-0.2,0.2l-0.2,0.1l-0.2,0.2l-0.2,0.1l-0.2,0.2l-0.2,0.2l-0.1,0.2l-0.1,0.2l-0.1,0.2l-0.1,0.2l-0.1,0.2
			l-0.1,0.2l-0.1,0.2c-4,6.9,1.6,8.5,1.6,8.5"/>
		<path style="fill:none;stroke:#000000;stroke-width:1.039;stroke-miterlimit:10.433;" d="M732,111L732,111L732,111L732,111
			L732,111L732,111L732,111L732,111L732,111L732,111L732,111v-0.2l0,0v-0.1l0,0v-0.1v-0.1l0,0v-0.1v-0.1l0,0v-0.1v-0.1l0,0V110v-0.1
			l0,0h0.1l0.1-0.1h0.1h0.1l0.1-0.1c0.6-0.3,0.6-2,0-3.5s0.2-2.5,1.5-3.6c1.5-1.1,3.8-2.1,7-1.3"/>
		<path style="fill:none;stroke:#000000;stroke-width:1.039;stroke-miterlimit:10.433;" d="M724.1,111.9L724.1,111.9L724.1,111.9
			L724.1,111.9L724.1,111.9L724.1,111.9L724.1,111.9h-0.2h-0.1l-0.1-0.1l-0.1-0.1l-0.1-0.1l-0.2-0.1l-0.2-0.1l-0.2-0.1l-0.2-0.1
			l-0.2-0.1l-0.2-0.1l-0.2-0.1l-0.2-0.2l-0.2-0.2l-0.2-0.2l-0.2-0.2l-0.2-0.2l-0.2-0.2l-0.2-0.2l-0.2-0.2l-0.2-0.2l-0.1-0.2
			l-0.1-0.2l-0.1-0.2l-0.1-0.2l-0.1-0.2V108v-0.1v-0.1v-0.1c-0.4-3.2,0.6-6.8,0.6-6.8"/>
		<path style="fill:none;stroke:#000000;stroke-width:1.039;stroke-miterlimit:10.433;" d="M701.4,101.8c0,0,6.7,0.8,10.6,3"/>
		<path style="fill:none;" d="M707.6,84.9h0.2h0.4h0.2h0.2h0.2h0.2h0.2l0.2,0.1h0.2l0.2,0.1l0.2,0.1l0.2,0.1l0.2,0.1l0.2,0.1
			l0.2,0.1c-1.4,0.3-2.9-0.3-4-0.5c0.4-0.5,0.9-0.3,1.4-0.2L707.6,84.9L707.6,84.9z"/>
		<path style="fill:none;stroke:#000000;stroke-width:0.4453;stroke-miterlimit:10.433;" d="M707.6,84.9h0.2h0.4h0.2h0.2h0.2h0.2
			h0.2l0.2,0.1h0.2l0.2,0.1l0.2,0.1l0.2,0.1l0.2,0.1l0.2,0.1l0.2,0.1c-1.4,0.3-2.9-0.3-4-0.5c0.4-0.5,0.9-0.3,1.4-0.2"/>
		<path style="fill:none;" d="M712.6,86.2h0.3h0.2h0.2h0.2h0.2h0.2l0.2,0.1h0.2l0.2,0.1h0.2l0.2,0.1l0.2,0.1l0.2,0.1l0.2,0.1
			l0.2,0.1c0.2,0.1,0.6-0.1,0.8,0.1c0.2,0.1,0.4,0.1,0.6,0.3c0.1,0.1,0,0.2,0,0.3c-1.5-0.3-2.9-0.7-4.3-1.1
			C712.4,86.3,712.1,86.3,712.6,86.2L712.6,86.2z"/>
		<path style="fill:none;stroke:#000000;stroke-width:0.4453;stroke-miterlimit:10.433;" d="M712.6,86.2h0.3h0.2h0.2h0.2h0.2h0.2
			l0.2,0.1h0.2l0.2,0.1h0.2l0.2,0.1l0.2,0.1l0.2,0.1l0.2,0.1l0.2,0.1c0.2,0.1,0.6-0.1,0.8,0.1c0.2,0.1,0.4,0.1,0.6,0.3
			c0.1,0.1,0,0.2,0,0.3c-1.5-0.3-2.9-0.7-4.3-1.1C712.4,86.3,712.1,86.3,712.6,86.2L712.6,86.2z"/>
		<path style="fill:none;" d="M722,88.8L722,88.8L722,88.8L722,88.8L722,88.8L722,88.8L722,88.8L722,88.8L722,88.8L722,88.8
			L722,88.8l0.2,0.1l0,0h0.1l0,0h0.1l0,0l0,0c0.6,0.2,1.5-0.2,2.3,0.2c1.2,0.5,2.6-0.4,3.5,0.6C726.2,90.2,723.7,90,722,88.8
			L722,88.8z"/>
		<path style="fill:none;stroke:#000000;stroke-width:0.4453;stroke-miterlimit:10.433;" d="M722,88.8L722,88.8L722,88.8L722,88.8
			L722,88.8L722,88.8L722,88.8L722,88.8L722,88.8L722,88.8L722,88.8l0.2,0.1l0,0h0.1l0,0h0.1l0,0l0,0c0.6,0.2,1.5-0.2,2.3,0.2
			c1.2,0.5,2.6-0.4,3.5,0.6C726.2,90.2,723.7,90,722,88.8L722,88.8z"/>
		<path style="fill:none;" d="M731.2,90.2L731.2,90.2l0.2,0.1h0.7h0.1h0.1h0.1h0.2l0.2-0.1h0.2l0.2-0.1h0.2h0.1h0.1h0.1h0.1h0.5h0.1
			C733.7,90.7,732.1,90.9,731.2,90.2L731.2,90.2z"/>
		<path style="fill:none;stroke:#000000;stroke-width:0.4453;stroke-miterlimit:10.433;" d="M731.2,90.2L731.2,90.2l0.2,0.1h0.7h0.1
			h0.1h0.1h0.2l0.2-0.1h0.2l0.2-0.1h0.2h0.1h0.1h0.1h0.1h0.5h0.1C733.7,90.7,732.1,90.9,731.2,90.2L731.2,90.2z"/>
		<path style="fill:none;" d="M736.3,90.3h0.2h0.2h0.2l0.3-0.1h0.3h0.3h0.3h0.3h0.3h0.1h0.1h0.1h0.3h0.1h0.1h0.1h0.1h0.1l0.1,0.1
			h0.1l0.1,0.1l0.1,0.1c0.2,0.1,0.1,0.8-0.3,0.7c-1.5-0.2-2.8-0.3-4.1-0.5C736.1,90.5,736.2,90.3,736.3,90.3L736.3,90.3z"/>
		<path style="fill:none;stroke:#000000;stroke-width:0.4453;stroke-miterlimit:10.433;" d="M736.3,90.3h0.2h0.2h0.2l0.3-0.1h0.3
			h0.3h0.3h0.3h0.3h0.1h0.1h0.1h0.3h0.1h0.1h0.1h0.1h0.1l0.1,0.1h0.1l0.1,0.1l0.1,0.1c0.2,0.1,0.1,0.8-0.3,0.7
			c-1.5-0.2-2.8-0.3-4.1-0.5C736.1,90.5,736.2,90.3,736.3,90.3L736.3,90.3z"/>
		<path style="fill:none;" d="M742.6,90.9l0.3-0.1l0.3-0.1l0.3-0.1l0.3-0.1h0.3h0.3h0.3h0.8h0.2h0.1h0.2h0.1h0.2h0.1h0.2h0.1h0.2
			l0.2,0.1h0.2l0.1,0.1c-1.6,1.1-3.2-0.3-4.7,0C742.4,90.9,742.5,90.9,742.6,90.9L742.6,90.9z"/>
		<path style="fill:none;stroke:#000000;stroke-width:0.4453;stroke-miterlimit:10.433;" d="M742.6,90.9l0.3-0.1l0.3-0.1l0.3-0.1
			l0.3-0.1h0.3h0.3h0.3h0.8h0.2h0.1h0.2h0.1h0.2h0.1h0.2h0.1h0.2l0.2,0.1h0.2l0.1,0.1c-1.6,1.1-3.2-0.3-4.7,0
			C742.4,90.9,742.5,90.9,742.6,90.9L742.6,90.9z"/>
		<path style="fill:none;" d="M749.2,90.3h0.2h0.2h0.2h0.2h0.2h0.2h0.3h0.2h0.2h0.2h0.2h0.2h0.2h0.1h0.1h0.1h0.1
			c0.2,0,0,0.5-0.3,0.5c-0.8,0.1-1.7,0.2-2.5,0C749.1,90.8,749.1,90.3,749.2,90.3L749.2,90.3z"/>
		<path style="fill:none;stroke:#000000;stroke-width:0.4453;stroke-miterlimit:10.433;" d="M749.2,90.3h0.2h0.2h0.2h0.2h0.2h0.2
			h0.3h0.2h0.2h0.2h0.2h0.2h0.2h0.1h0.1h0.1h0.1c0.2,0,0,0.5-0.3,0.5c-0.8,0.1-1.7,0.2-2.5,0C749.1,90.8,749.1,90.3,749.2,90.3
			L749.2,90.3z"/>
		<path style="fill:none;" d="M754.6,89.2L754.6,89.2h0.2h0.1h0.1h0.8h0.3h0.3h0.3h0.4h0.2h0.3h0.1h0.2h0.1h0.2l0.1,0.1l0.1,0.1
			l0.1,0.1l0.1,0.1l0.1,0.1l0.1,0.1c-1.1,0.4-2.2,0-3.3,0.1c-0.6,0-1.2-0.2-1.6-0.4c0.1,0,0.9,0,1.2-0.2L754.6,89.2L754.6,89.2z"/>
		<path style="fill:none;stroke:#000000;stroke-width:0.4453;stroke-miterlimit:10.433;" d="M754.6,89.2L754.6,89.2h0.2h0.1h0.1h0.8
			h0.3h0.3h0.3h0.4h0.2h0.3h0.1h0.2h0.1h0.2l0.1,0.1l0.1,0.1l0.1,0.1l0.1,0.1l0.1,0.1l0.1,0.1c-1.1,0.4-2.2,0-3.3,0.1
			c-0.6,0-1.2-0.2-1.6-0.4c0.1,0,0.9,0,1.2-0.2"/>
		<path style="fill:none;" d="M760.6,89.6h0.3h0.3h0.3h0.3h0.3l0.3,0.1l0.3,0.1h0.3l0.3,0.1l0.3,0.1l0.3,0.1l0.3,0.1l0.3,0.1
			l0.3,0.1l0.3,0.1l0.3,0.1c-1.7,0.6-3.5-0.6-4.9-0.8C760.3,89.7,760.4,89.6,760.6,89.6L760.6,89.6z"/>
		<path style="fill:none;stroke:#000000;stroke-width:0.4453;stroke-miterlimit:10.433;" d="M760.6,89.6h0.3h0.3h0.3h0.3h0.3
			l0.3,0.1l0.3,0.1h0.3l0.3,0.1l0.3,0.1l0.3,0.1l0.3,0.1l0.3,0.1l0.3,0.1l0.3,0.1l0.3,0.1c-1.7,0.6-3.5-0.6-4.9-0.8
			C760.3,89.7,760.4,89.6,760.6,89.6L760.6,89.6z"/>
		<path style="fill:none;" d="M768.2,91.1L768.2,91.1h0.3h0.3h0.3h0.6h0.3h0.6h0.3h0.3h0.2h0.2h0.1h0.2h0.2h0.1l0.2,0.1h0.2l0.1,0.1
			l0.2,0.1l0.2,0.1l0.1,0.1c-0.3,0.3-0.7,0.3-1.1,0.1c-1.6-0.3-3.1-0.3-4.5-0.5C767.6,91.1,767.5,90.9,768.2,91.1L768.2,91.1z"/>
		<path style="fill:none;stroke:#000000;stroke-width:0.4453;stroke-miterlimit:10.433;" d="M768.2,91.1L768.2,91.1h0.3h0.3h0.3h0.6
			h0.3h0.6h0.3h0.3h0.2h0.2h0.1h0.2h0.2h0.1l0.2,0.1h0.2l0.1,0.1l0.2,0.1l0.2,0.1l0.1,0.1c-0.3,0.3-0.7,0.3-1.1,0.1
			c-1.6-0.3-3.1-0.3-4.5-0.5C767.6,91.1,767.5,90.9,768.2,91.1L768.2,91.1z"/>
		<path style="fill:none;" d="M774.4,91.9l0.3-0.1h0.1h0.1h0.1h0.1h0.1h0.1h0.4h0.1h0.1h0.1h0.1l0,0h0.1l0,0
			c0.7,0.2,1.7,0.1,2.3,0.7c-0.9,0.4-2.3-0.3-2.9-0.3C775.1,92.3,774.7,92.2,774.4,91.9L774.4,91.9z"/>
		<path style="fill:none;stroke:#000000;stroke-width:0.4453;stroke-miterlimit:10.433;" d="M774.4,91.9l0.3-0.1h0.1h0.1h0.1h0.1
			h0.1h0.1h0.4h0.1h0.1h0.1h0.1l0,0h0.1l0,0c0.7,0.2,1.7,0.1,2.3,0.7c-0.9,0.4-2.3-0.3-2.9-0.3C775.1,92.3,774.7,92.2,774.4,91.9
			L774.4,91.9z"/>
		<path style="fill:none;" d="M780,93.1h0.3h0.3h0.2h0.3h0.2h0.3l0.5,0.1l0.5,0.1l0.5,0.1l0.5,0.1l0.5,0.1c0.1,0,0,0.2,0,0.3
			c-1.6-0.1-2.9-0.4-4.2-0.7C779.8,93.1,779.9,93.1,780,93.1L780,93.1z"/>
		<path style="fill:none;stroke:#000000;stroke-width:0.4453;stroke-miterlimit:10.433;" d="M780,93.1h0.3h0.3h0.2h0.3h0.2h0.3
			l0.5,0.1l0.5,0.1l0.5,0.1l0.5,0.1l0.5,0.1c0.1,0,0,0.2,0,0.3c-1.6-0.1-2.9-0.4-4.2-0.7C779.8,93.1,779.9,93.1,780,93.1L780,93.1z"
			/>
		<path style="fill:none;" d="M785.7,94.5L785.7,94.5L785.7,94.5L785.7,94.5L785.7,94.5l0.1-0.2l0,0l0,0l0,0l0,0l0,0l0,0l0,0l0,0
			l0,0l0,0c1.4,0.2,2.8,0.6,4.3,1.1c-0.1,0.1-0.1,0.3-0.2,0.3c-1.7-0.2-3.2-0.4-4.4-1.4c0-0.1,0.1-0.1,0.1-0.2L785.7,94.5
			L785.7,94.5z"/>
		<path style="fill:none;stroke:#000000;stroke-width:0.4453;stroke-miterlimit:10.433;" d="M785.7,94.5L785.7,94.5L785.7,94.5
			L785.7,94.5L785.7,94.5l0.1-0.2l0,0l0,0l0,0l0,0l0,0l0,0l0,0l0,0l0,0l0,0c1.4,0.2,2.8,0.6,4.3,1.1c-0.1,0.1-0.1,0.3-0.2,0.3
			c-1.7-0.2-3.2-0.4-4.4-1.4c0-0.1,0.1-0.1,0.1-0.2"/>
		<path style="fill:none;" d="M791.7,95.9h0.2l0,0h0.3l0,0l0,0c0.8,0.6,2,0.8,2.3,1.9c-0.4,0-0.9-0.2-1.2-0.3
			C792.8,96.9,792,96.7,791.7,95.9L791.7,95.9z"/>
		<path style="fill:none;stroke:#000000;stroke-width:0.4453;stroke-miterlimit:10.433;" d="M791.7,95.9h0.2l0,0h0.3l0,0l0,0
			c0.8,0.6,2,0.8,2.3,1.9c-0.4,0-0.9-0.2-1.2-0.3C792.8,96.9,792,96.7,791.7,95.9L791.7,95.9z"/>
		<path style="fill:none;" d="M796.5,97.8L796.5,97.8h0.6h0.2h0.4h0.2h1h0.1h0.1h0.1h0.1h0.1h0.1h0.1h0.1h0.1v0.3
			c-1.5-0.2-2.7-0.1-4-0.3C796.1,97.7,796.3,97.8,796.5,97.8L796.5,97.8z"/>
		<path style="fill:none;stroke:#000000;stroke-width:0.4453;stroke-miterlimit:10.433;" d="M796.5,97.8L796.5,97.8h0.6h0.2h0.4h0.2
			h1h0.1h0.1h0.1h0.1h0.1h0.1h0.1h0.1h0.1v0.3c-1.5-0.2-2.7-0.1-4-0.3C796.1,97.7,796.3,97.8,796.5,97.8L796.5,97.8z"/>
		<path style="fill:none;" d="M801.8,98h0.2h0.2h0.2h0.2h0.2h1.1h0.3h0.7h0.2h0.3c0.1,0,0.2,0.3,0.3,0.4c-1.1,0.3-2.1-0.1-3-0.1
			C802.3,98.3,801.8,98.3,801.8,98c-0.3-0.5,0.3-0.1,0.6-0.2L801.8,98L801.8,98z"/>
		<path style="fill:none;stroke:#000000;stroke-width:0.4453;stroke-miterlimit:10.433;" d="M801.8,98h0.2h0.2h0.2h0.2h0.2h1.1h0.3
			h0.7h0.2h0.3c0.1,0,0.2,0.3,0.3,0.4c-1.1,0.3-2.1-0.1-3-0.1C802.3,98.3,801.8,98.3,801.8,98c-0.3-0.5,0.3-0.1,0.6-0.2"/>
		<path style="fill:none;" d="M807.8,98.9h1.6h0.3h0.3h0.3h0.3l0.3,0.1h0.3l0.1,0.1h0.1h0.1h0.1l0.1,0.1h0.1
			c-0.8,0.3-1.7,0.1-2.5-0.1c-0.6-0.2-1.2-0.2-1.6-0.2c0-0.1,0.1-0.2,0.2-0.4L807.8,98.9L807.8,98.9z"/>
		<path style="fill:none;stroke:#000000;stroke-width:0.4453;stroke-miterlimit:10.433;" d="M807.8,98.9h1.6h0.3h0.3h0.3h0.3
			l0.3,0.1h0.3l0.1,0.1h0.1h0.1h0.1l0.1,0.1h0.1c-0.8,0.3-1.7,0.1-2.5-0.1c-0.6-0.2-1.2-0.2-1.6-0.2c0-0.1,0.1-0.2,0.2-0.4
			L807.8,98.9L807.8,98.9z"/>
		<path style="fill:none;" d="M813.8,100.1h1.3h0.5h1.2h0.3h0.5c0.2,0,0.3,0.2,0.2,0.3c-0.2,0.2-0.3,0.3-0.4,0.3
			c-1.4,0.1-2.7,0.1-4-0.2C813.5,100.4,813.6,100.1,813.8,100.1L813.8,100.1z"/>
		<path style="fill:none;stroke:#000000;stroke-width:0.4453;stroke-miterlimit:10.433;" d="M813.8,100.1h1.3h0.5h1.2h0.3h0.5
			c0.2,0,0.3,0.2,0.2,0.3c-0.2,0.2-0.3,0.3-0.4,0.3c-1.4,0.1-2.7,0.1-4-0.2C813.5,100.4,813.6,100.1,813.8,100.1L813.8,100.1z"/>
		<path style="fill:none;" d="M819.4,100.3l0.3-0.1l0.2-0.1l0.2-0.1l0.2-0.1l0.2-0.1l0.2-0.1l0.2-0.1l0.2-0.1l0.2-0.1l0.2-0.1h0.2
			h0.1h0.1h0.1h0.1h0.1h0.1h0.1h0.3h0.1v0.4c-1.5-0.1-2.4,1.1-3.8,0.9C819.3,100.6,819.3,100.3,819.4,100.3L819.4,100.3z"/>
		<path style="fill:none;stroke:#000000;stroke-width:0.4453;stroke-miterlimit:10.433;" d="M819.4,100.3l0.3-0.1l0.2-0.1l0.2-0.1
			l0.2-0.1l0.2-0.1l0.2-0.1l0.2-0.1l0.2-0.1l0.2-0.1l0.2-0.1h0.2h0.1h0.1h0.1h0.1h0.1h0.1h0.1h0.3h0.1v0.4c-1.5-0.1-2.4,1.1-3.8,0.9
			C819.3,100.6,819.3,100.3,819.4,100.3L819.4,100.3z"/>
		<path style="fill:none;" d="M824.7,99.3L824.7,99.3L824.7,99.3L824.7,99.3L824.7,99.3h0.2l0,0l0,0l0,0l0,0l0,0v-0.1l0,0l0,0l0,0
			l0,0l0,0l0,0l0,0l0,0h0.1c0.6-0.1,1.8-0.3,2.6-0.8c0.2-0.1,0.4-0.1,0.6-0.1c0,0.6-0.6,0.8-1,0.8C826.6,99.1,825.5,99.5,824.7,99.3
			L824.7,99.3z"/>
		<path style="fill:none;stroke:#000000;stroke-width:0.4453;stroke-miterlimit:10.433;" d="M824.7,99.3L824.7,99.3L824.7,99.3
			L824.7,99.3L824.7,99.3h0.2l0,0l0,0l0,0l0,0l0,0v-0.1l0,0l0,0l0,0l0,0l0,0l0,0l0,0l0,0h0.1c0.6-0.1,1.8-0.3,2.6-0.8
			c0.2-0.1,0.4-0.1,0.6-0.1c0,0.6-0.6,0.8-1,0.8C826.6,99.1,825.5,99.5,824.7,99.3L824.7,99.3z"/>
		<path style="fill:none;" d="M830.7,97.3L830.7,97.3L830.7,97.3l0.1-0.2l0.1-0.1l0,0v-0.1l0,0v-0.1v-0.1l0,0v-0.1v-0.1l0,0v-0.1
			l0,0v-0.1l0,0l0,0l0,0l0,0l0,0l0,0l0,0h0.1l0,0h0.1l0,0h0.3c1-0.1,1.7-1.1,2.9-1.1C833.7,96.3,831.7,96,830.7,97.3L830.7,97.3z"/>
		<path style="fill:none;stroke:#000000;stroke-width:0.4453;stroke-miterlimit:10.433;" d="M830.7,97.3L830.7,97.3L830.7,97.3
			l0.1-0.2l0.1-0.1l0,0v-0.1l0,0v-0.1v-0.1l0,0v-0.1v-0.1l0,0v-0.1l0,0v-0.1l0,0l0,0l0,0l0,0l0,0l0,0l0,0h0.1l0,0h0.1l0,0h0.3
			c1-0.1,1.7-1.1,2.9-1.1C833.7,96.3,831.7,96,830.7,97.3L830.7,97.3z"/>
		<path style="fill:none;" d="M836.6,94L836.6,94l0.1-0.2v-0.1l0.1-0.1l0.1-0.2l0.1-0.2l0.1-0.2l0.1-0.2l0.2-0.1l0.1-0.2l0.1-0.2
			l0.2-0.1l0.2-0.1l0.2-0.1l0.2-0.2l0.2-0.1l0.2-0.1l0.2-0.1c0,0.5-0.7,0.5-1,0.9s-1,0.7-1.6,1.2c-0.1,0.1-0.2,0.3-0.2,0.4L836.6,94
			L836.6,94z"/>
		<path style="fill:none;stroke:#000000;stroke-width:0.4453;stroke-miterlimit:10.433;" d="M836.6,94L836.6,94l0.1-0.2v-0.1
			l0.1-0.1l0.1-0.2l0.1-0.2l0.1-0.2l0.1-0.2l0.2-0.1l0.1-0.2l0.1-0.2l0.2-0.1l0.2-0.1l0.2-0.1l0.2-0.2l0.2-0.1l0.2-0.1l0.2-0.1
			c0,0.5-0.7,0.5-1,0.9s-1,0.7-1.6,1.2c-0.1,0.1-0.2,0.3-0.2,0.4"/>
		<path style="fill:none;" d="M839.7,90.7L839.7,90.7l0.1-0.2v-0.1v-0.1v-0.1v-0.1l0.1-0.2l0.1-0.2l0.1-0.2l0.1-0.2l0.1-0.2l0.1-0.1
			l0.1-0.2l0.1-0.2l0.1-0.2l0.2-0.3l0.2-0.3c0.3,0.9-0.7,1.4-1,2.1c-0.1-0.1,0-0.1-0.1-0.2L839.7,90.7L839.7,90.7z"/>
		<path style="fill:none;stroke:#000000;stroke-width:0.4453;stroke-miterlimit:10.433;" d="M839.7,90.7L839.7,90.7l0.1-0.2v-0.1
			v-0.1v-0.1v-0.1l0.1-0.2l0.1-0.2l0.1-0.2l0.1-0.2l0.1-0.2l0.1-0.1l0.1-0.2l0.1-0.2l0.1-0.2l0.2-0.3l0.2-0.3c0.3,0.9-0.7,1.4-1,2.1
			c-0.1-0.1,0-0.1-0.1-0.2"/>
		<path style="fill:none;" d="M841.4,87l0.1-0.2v-0.2v-0.2v-0.2V86v-0.2l0.1-0.4v-0.2V85v-0.2v-0.2l0.1-0.2l0.1-0.2v-0.1V84v-0.1
			v-0.1c0.1,0.5-0.2,1-0.3,1.5c-0.1,0.6,0.4,1.3,0,1.9L841.4,87L841.4,87z"/>
		<path style="fill:none;stroke:#000000;stroke-width:0.4453;stroke-miterlimit:10.433;" d="M841.4,87l0.1-0.2v-0.2v-0.2v-0.2V86
			v-0.2l0.1-0.4v-0.2V85v-0.2v-0.2l0.1-0.2l0.1-0.2v-0.1V84v-0.1v-0.1c0.1,0.5-0.2,1-0.3,1.5c-0.1,0.6,0.4,1.3,0,1.9L841.4,87
			L841.4,87z"/>
		<path style="fill:none;" d="M841.3,81.9L841.3,81.9L841.3,81.9v-0.2l0,0l0,0l0,0v-0.1l0,0l0,0l0,0l0,0l0,0h-0.1l0,0l-0.1-0.1H841
			l0,0l0,0l0,0l0,0l0,0l0,0l0,0l0,0l0,0l0,0V81l0,0v-0.1l0,0c-0.1-0.6-0.5-1-0.7-1.6h0.7c0,0.7,0.5,1.4,0.9,1.9
			c0.1,0.3,0.4,0.5,0.2,0.9C841.4,82.1,841.3,82,841.3,81.9L841.3,81.9z"/>
		<path style="fill:none;stroke:#000000;stroke-width:0.4453;stroke-miterlimit:10.433;" d="M841.3,81.9L841.3,81.9L841.3,81.9v-0.2
			l0,0l0,0l0,0v-0.1l0,0l0,0l0,0l0,0l0,0h-0.1l0,0l-0.1-0.1H841l0,0l0,0l0,0l0,0l0,0l0,0l0,0l0,0l0,0l0,0V81l0,0v-0.1l0,0
			c-0.1-0.6-0.5-1-0.7-1.6h0.7c0,0.7,0.5,1.4,0.9,1.9c0.1,0.3,0.4,0.5,0.2,0.9C841.4,82.1,841.3,82,841.3,81.9L841.3,81.9z"/>
		<path style="fill:none;" d="M838,78.4L838,78.4L838,78.4h-0.2h-0.1h-0.1h-0.1h-0.1l-0.1-0.1h-0.1l-0.1-0.1H837l-0.1-0.1h-0.1
			l-0.1-0.1l-0.1-0.1l-0.1-0.1h-0.1l-0.1-0.1l-0.1-0.1l-0.1-0.1l0,0l-0.1-0.1v-0.1l0,0l0,0v-0.1l0,0V77l0,0l0,0l0,0
			c0.4-0.6,1.1,0.8,1.7,1.3c-0.1,0.1,0.2,0.3-0.2,0.4L838,78.4L838,78.4z"/>
		<path style="fill:none;stroke:#000000;stroke-width:0.4453;stroke-miterlimit:10.433;" d="M838,78.4L838,78.4L838,78.4h-0.2h-0.1
			h-0.1h-0.1h-0.1l-0.1-0.1h-0.1l-0.1-0.1H837l-0.1-0.1h-0.1l-0.1-0.1l-0.1-0.1l-0.1-0.1h-0.1l-0.1-0.1l-0.1-0.1l-0.1-0.1l0,0
			l-0.1-0.1v-0.1l0,0l0,0v-0.1l0,0V77l0,0l0,0l0,0c0.4-0.6,1.1,0.8,1.7,1.3c-0.1,0.1,0.2,0.3-0.2,0.4L838,78.4L838,78.4z"/>
		<path style="fill:none;" d="M835.3,76.1L835.3,76.1L835.3,76.1h-0.2l0,0H835l0,0l0,0h-0.1l0,0l0,0h-0.1l0,0l0,0h-0.1l-0.1-0.1
			l-0.1-0.1l-0.1-0.1l-0.1-0.1l-0.1-0.1l-0.1-0.1l-0.2-0.2c0.7-0.2,1.4,0.5,1.7,1H835C835.2,76.2,835.2,76.2,835.3,76.1L835.3,76.1z
			"/>
		<path style="fill:none;stroke:#000000;stroke-width:0.4453;stroke-miterlimit:10.433;" d="M835.3,76.1L835.3,76.1L835.3,76.1h-0.2
			l0,0H835l0,0l0,0h-0.1l0,0l0,0h-0.1l0,0l0,0h-0.1l-0.1-0.1l-0.1-0.1l-0.1-0.1l-0.1-0.1l-0.1-0.1l-0.1-0.1l-0.2-0.2
			c0.7-0.2,1.4,0.5,1.7,1H835C835.2,76.2,835.2,76.2,835.3,76.1L835.3,76.1z"/>
		<path style="fill:none;" d="M835.4,98.9L835.4,98.9l-0.2,0.2l-0.1,0.1l-0.1,0.1l-0.3,0.2l-0.3,0.2l-0.3,0.2l-0.3,0.2l-0.3,0.2
			l-0.3,0.1l-0.3,0.2l-0.3,0.2l-0.3,0.2l-0.3,0.2l-0.3,0.2l-0.1,0.1l-0.1,0.1l-0.1,0.1l-0.1,0.1l-0.1,0.1l-0.1,0.1
			c0.3,0,0.4,0.1,0.6,0c1.1-0.8,2.7-0.9,3.5-2.2C835.5,99.3,835.4,99.1,835.4,98.9L835.4,98.9z"/>
		<path style="fill:none;stroke:#000000;stroke-width:0.4453;stroke-miterlimit:10.433;" d="M835.4,98.9L835.4,98.9l-0.2,0.2
			l-0.1,0.1l-0.1,0.1l-0.3,0.2l-0.3,0.2l-0.3,0.2l-0.3,0.2l-0.3,0.2l-0.3,0.1l-0.3,0.2l-0.3,0.2l-0.3,0.2l-0.3,0.2l-0.3,0.2
			l-0.1,0.1l-0.1,0.1l-0.1,0.1l-0.1,0.1l-0.1,0.1l-0.1,0.1c0.3,0,0.4,0.1,0.6,0c1.1-0.8,2.7-0.9,3.5-2.2
			C835.5,99.3,835.4,99.1,835.4,98.9L835.4,98.9z"/>
		<path style="fill:none;" d="M821.7,104.3L821.7,104.3L821.7,104.3h-0.4h-0.1h-0.5h-0.1h-0.1h-0.1l0,0l0,0h-0.1l0,0l0,0
			c-0.8,0.4-1.6,0.4-2.5,0.8c-0.2,0,0.4-0.1,0.3,0.2c0.8-0.3,1.7-0.1,2.7-0.3c0.3-0.1,0.4-0.5,0.5-0.9L821.7,104.3L821.7,104.3z"/>
		<path style="fill:none;stroke:#000000;stroke-width:0.4453;stroke-miterlimit:10.433;" d="M821.7,104.3L821.7,104.3L821.7,104.3
			h-0.4h-0.1h-0.5h-0.1h-0.1h-0.1l0,0l0,0h-0.1l0,0l0,0c-0.8,0.4-1.6,0.4-2.5,0.8c-0.2,0,0.4-0.1,0.3,0.2c0.8-0.3,1.7-0.1,2.7-0.3
			c0.3-0.1,0.4-0.5,0.5-0.9"/>
		<path style="fill:none;" d="M816.2,105.1L816.2,105.1L816,105h-0.1l-0.1-0.1h-0.1h-0.1h-0.1h-0.1h-0.5h-0.1h-0.1h-0.1h-0.1h-0.1
			l-0.2,0.1l-0.2,0.1l-0.2,0.1l-0.2,0.1l-0.2,0.1h-0.1h-0.1h-0.1H813c-0.1,0.1,0.2,0.4,0.4,0.4C814.1,105.4,815.1,105.5,816.2,105.1
			v-0.2V105.1L816.2,105.1z"/>
		<path style="fill:none;stroke:#000000;stroke-width:0.4453;stroke-miterlimit:10.433;" d="M816.2,105.1L816.2,105.1L816,105h-0.1
			l-0.1-0.1h-0.1h-0.1h-0.1h-0.1h-0.5h-0.1h-0.1h-0.1h-0.1h-0.1l-0.2,0.1l-0.2,0.1l-0.2,0.1l-0.2,0.1l-0.2,0.1h-0.1h-0.1h-0.1H813
			c-0.1,0.1,0.2,0.4,0.4,0.4C814.1,105.4,815.1,105.5,816.2,105.1v-0.2V105.1L816.2,105.1z"/>
		<path style="fill:none;" d="M808.4,105.1h-0.9h-0.2h-0.4h-0.2h-0.8h-0.1h-0.1h-0.1h-0.1h-0.1h-0.1h-0.1h-0.1H805
			c-0.1,0,0,0.2,0,0.3c1.3-0.3,2.6,0.2,3.8-0.4L808.4,105.1L808.4,105.1z"/>
		<path style="fill:none;stroke:#000000;stroke-width:0.4453;stroke-miterlimit:10.433;" d="M808.4,105.1h-0.9h-0.2h-0.4h-0.2h-0.8
			h-0.1h-0.1h-0.1h-0.1h-0.1h-0.1h-0.1h-0.1H805c-0.1,0,0,0.2,0,0.3c1.3-0.3,2.6,0.2,3.8-0.4L808.4,105.1L808.4,105.1z"/>
		<path style="fill:none;" d="M803.7,105.2l-0.4-0.1l-0.4-0.1l-0.3-0.1l-0.3-0.1l-0.3-0.1h-0.3l-0.3-0.1h-0.3H800h-0.2h-0.2h-0.2
			h-0.2H799h-0.2h-0.2l-0.2,0.1l-0.2,0.1l-0.2,0.1l-0.2,0.1c-0.2,0.1,0.4,0,0.3,0.3C800.1,105.4,801.8,105.8,803.7,105.2
			c-0.6-0.3-1.5-0.2-2.1-0.2L803.7,105.2L803.7,105.2z"/>
		<path style="fill:none;stroke:#000000;stroke-width:0.4453;stroke-miterlimit:10.433;" d="M803.7,105.2l-0.4-0.1l-0.4-0.1
			l-0.3-0.1l-0.3-0.1l-0.3-0.1h-0.3l-0.3-0.1h-0.3H800h-0.2h-0.2h-0.2h-0.2H799h-0.2h-0.2l-0.2,0.1l-0.2,0.1l-0.2,0.1l-0.2,0.1
			c-0.2,0.1,0.4,0,0.3,0.3C800.1,105.4,801.8,105.8,803.7,105.2c-0.6-0.3-1.5-0.2-2.1-0.2"/>
		<path style="fill:none;" d="M805.3,100.1h-4.7c0,0.2,0,0.4-0.2,0.4c1.3,0.3,3.1,0.5,4.3-0.2c0.2,0,0-0.1-0.1-0.2
			c-0.1,0,0-0.1,0.2-0.1L805.3,100.1L805.3,100.1z"/>
		<path style="fill:none;stroke:#000000;stroke-width:0.4453;stroke-miterlimit:10.433;" d="M805.3,100.1h-4.7c0,0.2,0,0.4-0.2,0.4
			c1.3,0.3,3.1,0.5,4.3-0.2c0.2,0,0-0.1-0.1-0.2c-0.1,0,0-0.1,0.2-0.1"/>
		<path style="fill:none;" d="M807.2,100.5h1.9c-1,0.4-2,0-2.9,0.1c0-0.3,0.3,0,0.3-0.1H807.2z"/>
		<path style="fill:none;stroke:#000000;stroke-width:0.4453;stroke-miterlimit:10.433;" d="M807.2,100.5h1.9c-1,0.4-2,0-2.9,0.1
			c0-0.3,0.3,0,0.3-0.1"/>
		<path style="fill:none;" d="M793.4,99.5l-0.2-0.1l-0.2-0.1l-0.2-0.1l-0.2-0.1l-0.2-0.1l-0.2-0.1l-0.4-0.2l-0.2-0.1l-0.2-0.1
			l-0.2-0.1l-0.2-0.1l-0.2-0.1l-0.2-0.1l-0.2-0.1h-0.2c-0.3-0.1-0.1,0.3,0,0.3C791.2,99.2,792.2,99.5,793.4,99.5L793.4,99.5z"/>
		<path style="fill:none;stroke:#000000;stroke-width:0.4453;stroke-miterlimit:10.433;" d="M793.4,99.5l-0.2-0.1l-0.2-0.1l-0.2-0.1
			l-0.2-0.1l-0.2-0.1l-0.2-0.1l-0.4-0.2l-0.2-0.1l-0.2-0.1l-0.2-0.1l-0.2-0.1l-0.2-0.1l-0.2-0.1l-0.2-0.1h-0.2
			c-0.3-0.1-0.1,0.3,0,0.3C791.2,99.2,792.2,99.5,793.4,99.5L793.4,99.5z"/>
		<path style="fill:none;" d="M788.8,98.1L788.8,98.1v0.2l0,0l0,0h-0.2l0,0h-0.1c-0.9-0.4-1.5-0.9-2.2-0.7c-0.1,0,0,0.2,0,0.3
			c0.8,0,1.7,0.8,2.8,0.5C789.1,98.2,788.9,98.1,788.8,98.1L788.8,98.1z"/>
		<path style="fill:none;stroke:#000000;stroke-width:0.4453;stroke-miterlimit:10.433;" d="M788.8,98.1L788.8,98.1v0.2l0,0l0,0
			h-0.2l0,0h-0.1c-0.9-0.4-1.5-0.9-2.2-0.7c-0.1,0,0,0.2,0,0.3c0.8,0,1.7,0.8,2.8,0.5C789.1,98.2,788.9,98.1,788.8,98.1L788.8,98.1z
			"/>
		<path style="fill:none;" d="M783.4,96.6h-0.3h-0.3h-0.3h-0.3h-0.5h-0.5h-0.5h-0.2h-0.3H780h-0.3h-0.1h-0.1h-0.1h-0.1
			c0.1,0.2,0.2,0.3,0.3,0.3c1.1,0.1,3.2,0.9,4.3,0.1C783.9,96.7,783.6,96.6,783.4,96.6L783.4,96.6z"/>
		<path style="fill:none;stroke:#000000;stroke-width:0.4453;stroke-miterlimit:10.433;" d="M783.4,96.6h-0.3h-0.3h-0.3h-0.3h-0.5
			h-0.5h-0.5h-0.2h-0.3H780h-0.3h-0.1h-0.1h-0.1h-0.1c0.1,0.2,0.2,0.3,0.3,0.3c1.1,0.1,3.2,0.9,4.3,0.1
			C783.9,96.7,783.6,96.6,783.4,96.6L783.4,96.6z"/>
		<path style="fill:none;" d="M777.1,95.4h-0.3h-0.1h-0.1h-0.1h-0.2h-0.2l-0.2-0.1l-0.2-0.1h-0.2l-0.2-0.1h-0.1h-0.1h-0.2h-0.1h-0.3
			h-0.1h-0.1h-0.1h-0.1H774h-0.1c-0.4,0.1,0.4,0.4,0.7,0.5c1,0.2,2.1,0,3.4,0c-0.6,0-1.2,0-1.7-0.3L777.1,95.4L777.1,95.4z"/>
		<path style="fill:none;stroke:#000000;stroke-width:0.4453;stroke-miterlimit:10.433;" d="M777.1,95.4h-0.3h-0.1h-0.1h-0.1h-0.2
			h-0.2l-0.2-0.1l-0.2-0.1h-0.2l-0.2-0.1h-0.1h-0.1h-0.2h-0.1h-0.3h-0.1h-0.1h-0.1h-0.1H774h-0.1c-0.4,0.1,0.4,0.4,0.7,0.5
			c1,0.2,2.1,0,3.4,0c-0.6,0-1.2,0-1.7-0.3"/>
		<path style="fill:none;" d="M772.7,94.5l-0.3-0.1l-0.4-0.1l-0.8-0.2l-0.8-0.2l-0.4-0.1l-0.4-0.1l-0.3-0.1l-0.4-0.1l-0.4-0.1h-0.4
			h-0.4h-0.4h-0.4h-0.2h-0.2c0.1,0.2,0,0.3-0.1,0.4c1.9-0.3,3.7,0.1,5.7,0.7c0.2,0.1-0.3,0-0.5-0.1L772.7,94.5L772.7,94.5z"/>
		<path style="fill:none;stroke:#000000;stroke-width:0.4453;stroke-miterlimit:10.433;" d="M772.7,94.5l-0.3-0.1l-0.4-0.1l-0.8-0.2
			l-0.8-0.2l-0.4-0.1l-0.4-0.1l-0.3-0.1l-0.4-0.1l-0.4-0.1h-0.4h-0.4h-0.4h-0.4h-0.2h-0.2c0.1,0.2,0,0.3-0.1,0.4
			c1.9-0.3,3.7,0.1,5.7,0.7c0.2,0.1-0.3,0-0.5-0.1"/>
		<path style="fill:none;" d="M765.4,93.2h-0.2H765h-0.2h-1.4h-0.3h-0.3h-0.3h-0.3h-0.3h-0.3H761h-0.3h-0.1h-0.2
			c0.2,0.2-0.3,0.2-0.2,0.2c1.4,0.3,3.2,0.8,4.7,0.2c0.1,0,0-0.2-0.2-0.3L765.4,93.2L765.4,93.2z"/>
		<path style="fill:none;stroke:#000000;stroke-width:0.4453;stroke-miterlimit:10.433;" d="M765.4,93.2h-0.2H765h-0.2h-1.4h-0.3
			h-0.3h-0.3h-0.3h-0.3h-0.3H761h-0.3h-0.1h-0.2c0.2,0.2-0.3,0.2-0.2,0.2c1.4,0.3,3.2,0.8,4.7,0.2c0.1,0,0-0.2-0.2-0.3"/>
		<path style="fill:none;" d="M758.7,92.7H758h-0.6h-1.8h-0.3H755h-0.3h-0.3l-0.3,0.1l-0.3,0.1c-0.2,0,0.4,0.4,0.5,0.4
			c1.1,0,2.8,0.2,4.1-0.4c-0.2-0.3-0.4-0.1-0.6-0.2H758.7L758.7,92.7z"/>
		<path style="fill:none;stroke:#000000;stroke-width:0.4453;stroke-miterlimit:10.433;" d="M758.7,92.7H758h-0.6h-1.8h-0.3H755
			h-0.3h-0.3l-0.3,0.1l-0.3,0.1c-0.2,0,0.4,0.4,0.5,0.4c1.1,0,2.8,0.2,4.1-0.4c-0.2-0.3-0.4-0.1-0.6-0.2"/>
		<path style="fill:none;" d="M751.9,92.7h-1.8h-0.4h-0.4h-0.4h-0.4c0,0-0.1,0.2,0,0.3c0.2,0.2,0.4,0.3,0.7,0.3
			c1-0.2,2.2,0.3,3.1-0.6L751.9,92.7L751.9,92.7z"/>
		<path style="fill:none;stroke:#000000;stroke-width:0.4453;stroke-miterlimit:10.433;" d="M751.9,92.7h-1.8h-0.4h-0.4h-0.4h-0.4
			c0,0-0.1,0.2,0,0.3c0.2,0.2,0.4,0.3,0.7,0.3c1-0.2,2.2,0.3,3.1-0.6L751.9,92.7L751.9,92.7z"/>
		<path style="fill:none;" d="M746.2,94h-0.3h-0.3h-0.3H745h-0.3h-0.3H743h-0.5H742c1.3,0.7,2.8,0.1,4.5,0.3
			C746.4,94,746.3,94,746.2,94L746.2,94z"/>
		<path style="fill:none;stroke:#000000;stroke-width:0.4453;stroke-miterlimit:10.433;" d="M746.2,94h-0.3h-0.3h-0.3H745h-0.3h-0.3
			H743h-0.5H742c1.3,0.7,2.8,0.1,4.5,0.3C746.4,94,746.3,94,746.2,94L746.2,94z"/>
		<path style="fill:none;" d="M740.2,93.9l-0.3-0.1h-0.3h-0.3H739h-0.3h-0.3h-0.3h-0.3h-0.6h-0.3h-0.3h-0.3H736h-0.3h-0.3
			c1.3,1,2.9,0.3,4.5,0.8C740.2,94.1,740.2,94,740.2,93.9c-0.5-0.3-0.9-0.3-1.3-0.4L740.2,93.9L740.2,93.9z"/>
		<path style="fill:none;stroke:#000000;stroke-width:0.4453;stroke-miterlimit:10.433;" d="M740.2,93.9l-0.3-0.1h-0.3h-0.3H739
			h-0.3h-0.3h-0.3h-0.3h-0.6h-0.3h-0.3h-0.3H736h-0.3h-0.3c1.3,1,2.9,0.3,4.5,0.8C740.2,94.1,740.2,94,740.2,93.9
			c-0.5-0.3-0.9-0.3-1.3-0.4"/>
		<path style="fill:none;" d="M733.6,93.9L733.6,93.9h-0.2h-0.1h-0.1h-0.1H733h-1h-0.2h-0.2h-0.2h-0.2H731h-0.2h-0.2h-0.3h-0.1
			c1.3,0.6,2.8,0.4,4.5,0.3c0-0.1-0.1-0.3-0.2-0.3C733.8,93.8,733.7,93.8,733.6,93.9z"/>
		<path style="fill:none;stroke:#000000;stroke-width:0.4453;stroke-miterlimit:10.433;" d="M733.6,93.9L733.6,93.9h-0.2h-0.1h-0.1
			h-0.1H733h-1h-0.2h-0.2h-0.2h-0.2H731h-0.2h-0.2h-0.3h-0.1c1.3,0.6,2.8,0.4,4.5,0.3c0-0.1-0.1-0.3-0.2-0.3
			C733.8,93.8,733.7,93.8,733.6,93.9z"/>
		<path style="fill:none;" d="M727.4,92.6h-0.3h-1.6h-0.3h-0.3h-0.3h-0.3l-0.3-0.1h-0.3l-0.3-0.1l-0.3-0.1l-0.3-0.1l-0.3-0.1
			c1.5,1.1,3.5,1,5.6,1c0.2,0,0.3-0.4,0.2-0.4c-0.5-0.1-0.8-0.1-1.3-0.2L727.4,92.6L727.4,92.6z"/>
		<path style="fill:none;stroke:#000000;stroke-width:0.4453;stroke-miterlimit:10.433;" d="M727.4,92.6h-0.3h-1.6h-0.3h-0.3h-0.3
			h-0.3l-0.3-0.1h-0.3l-0.3-0.1l-0.3-0.1l-0.3-0.1l-0.3-0.1c1.5,1.1,3.5,1,5.6,1c0.2,0,0.3-0.4,0.2-0.4c-0.5-0.1-0.8-0.1-1.3-0.2"/>
		<path style="fill:none;" d="M720.7,91.5h-0.4h-0.1h-0.1H720h-0.1h-0.2l-0.2-0.1l-0.2-0.1h-0.2H719h-0.1h0.1h-0.1h-0.5h-0.1h-0.1
			h-0.1l-0.1,0.1l0,0l0,0l0,0l0,0l0,0l0,0c0.9,0.1,1.9,0.8,2.9,0.4h-0.3C720.6,91.7,720.7,91.6,720.7,91.5L720.7,91.5z"/>
		<path style="fill:none;stroke:#000000;stroke-width:0.4453;stroke-miterlimit:10.433;" d="M720.7,91.5h-0.4h-0.1h-0.1H720h-0.1
			h-0.2l-0.2-0.1l-0.2-0.1h-0.2H719h-0.1h0.1h-0.1h-0.5h-0.1h-0.1h-0.1l-0.1,0.1l0,0l0,0l0,0l0,0l0,0l0,0c0.9,0.1,1.9,0.8,2.9,0.4
			h-0.3C720.6,91.7,720.7,91.6,720.7,91.5L720.7,91.5z"/>
		<path style="fill:none;" d="M715.2,90L715.2,90H715h-0.1h-0.1h-0.1h-0.1h-0.1h-0.1h-0.1h-0.1h-0.1H714l-0.2-0.1l-0.2-0.1l-0.2-0.1
			l-0.2-0.1l-0.2-0.1l-0.2-0.1l-0.2-0.1l-0.2-0.1l-0.2-0.1L712,89c-0.5-0.3-0.8,0-1.2-0.1c1.5,0.4,2.7,1.3,4.5,1.4
			c-0.1-0.3-0.4-0.3-0.6-0.3L715.2,90L715.2,90z"/>
		<path style="fill:none;stroke:#000000;stroke-width:0.4453;stroke-miterlimit:10.433;" d="M715.2,90L715.2,90H715h-0.1h-0.1h-0.1
			h-0.1h-0.1h-0.1h-0.1h-0.1h-0.1H714l-0.2-0.1l-0.2-0.1l-0.2-0.1l-0.2-0.1l-0.2-0.1l-0.2-0.1l-0.2-0.1l-0.2-0.1l-0.2-0.1L712,89
			c-0.5-0.3-0.8,0-1.2-0.1c1.5,0.4,2.7,1.3,4.5,1.4c-0.1-0.3-0.4-0.3-0.6-0.3L715.2,90L715.2,90z"/>
		<path style="fill:none;" d="M709.8,88.3L709.8,88.3l-0.2-0.1h-0.1l-0.1-0.1l-0.1-0.1l-0.1-0.1l-0.2-0.1l-0.2-0.1l-0.2-0.1
			l-0.2-0.1l-0.2-0.1l-0.1-0.1H708l-0.1-0.1h-0.1l-0.1-0.1h-0.1h-0.1h-0.1H707h-0.1h-0.5h-0.1h-0.1c0.5-0.1,0.9,0,1.1,0.2
			c0.5,0.6,1.3,0.7,1.8,1c0.3,0.2,0.7,0.1,0.9,0.4C710.4,88.3,709.6,88.6,709.8,88.3L709.8,88.3z"/>
		<path style="fill:none;stroke:#000000;stroke-width:0.4453;stroke-miterlimit:10.433;" d="M709.8,88.3L709.8,88.3l-0.2-0.1h-0.1
			l-0.1-0.1l-0.1-0.1l-0.1-0.1l-0.2-0.1l-0.2-0.1l-0.2-0.1l-0.2-0.1l-0.2-0.1l-0.1-0.1H708l-0.1-0.1h-0.1l-0.1-0.1h-0.1h-0.1h-0.1
			H707h-0.1h-0.5h-0.1h-0.1c0.5-0.1,0.9,0,1.1,0.2c0.5,0.6,1.3,0.7,1.8,1c0.3,0.2,0.7,0.1,0.9,0.4C710.4,88.3,709.6,88.6,709.8,88.3
			L709.8,88.3z"/>
		<path style="fill:none;" d="M722.5,95.7l0.3,0.1l0.3,0.1l0.3,0.1l0.3,0.1l0.3,0.1l0.3,0.1l0.7,0.1l0.7,0.1l0.7,0.1l0.4,0.1
			l0.4,0.1l0.4,0.1L728,97c-1.8,0-3.4-0.3-4.9-0.7C723,96.1,722.4,96.2,722.5,95.7L722.5,95.7z"/>
		<path style="fill:none;stroke:#000000;stroke-width:0.4453;stroke-miterlimit:10.433;" d="M722.5,95.7l0.3,0.1l0.3,0.1l0.3,0.1
			l0.3,0.1l0.3,0.1l0.3,0.1l0.7,0.1l0.7,0.1l0.7,0.1l0.4,0.1l0.4,0.1l0.4,0.1L728,97c-1.8,0-3.4-0.3-4.9-0.7
			C723,96.1,722.4,96.2,722.5,95.7L722.5,95.7z"/>
		<path style="fill:none;" d="M730.3,97L730.3,97l0.2,0.1h0.1l0.1,0.1h0.1h0.1h0.1h0.1h0.1h0.1h0.1h0.1h0.1h1.9h0.1h0.1
			c0.2,0,0.3,0.2,0.4,0.3c-1.5,0.4-3.5,0.4-4.3-0.8C729.9,97.1,730,97,730.3,97L730.3,97z"/>
		<path style="fill:none;stroke:#000000;stroke-width:0.4453;stroke-miterlimit:10.433;" d="M730.3,97L730.3,97l0.2,0.1h0.1l0.1,0.1
			h0.1h0.1h0.1h0.1h0.1h0.1h0.1h0.1h0.1h1.9h0.1h0.1c0.2,0,0.3,0.2,0.4,0.3c-1.5,0.4-3.5,0.4-4.3-0.8C729.9,97.1,730,97,730.3,97
			L730.3,97z"/>
		<path style="fill:none;" d="M736.2,97.6h0.3h0.3h0.3h0.5h0.3h0.6h0.6h0.6h0.6h0.6C739.6,98.5,737.5,97.6,736.2,97.6L736.2,97.6
			L736.2,97.6z"/>
		<path style="fill:none;stroke:#000000;stroke-width:0.4453;stroke-miterlimit:10.433;" d="M736.2,97.6h0.3h0.3h0.3h0.5h0.3h0.6
			h0.6h0.6h0.6h0.6C739.6,98.5,737.5,97.6,736.2,97.6L736.2,97.6L736.2,97.6z"/>
		<path style="fill:none;" d="M741.8,97.8h0.3h0.5h0.3h0.5h0.3h1.1h0.3h0.1h0.2h0.1h0.2h0.1h0.1h0.2h0.1c0.1,0,0.1,0.4,0,0.4
			c-0.4,0.3-0.8-0.2-1.2-0.1c-1.4,0.1-2.4,0.5-3.5,0.2c-0.1-0.1-0.1-0.2,0-0.3c0.1-0.4,0.5-0.2,0.5-0.4L741.8,97.8L741.8,97.8z"/>
		<path style="fill:none;stroke:#000000;stroke-width:0.4453;stroke-miterlimit:10.433;" d="M741.8,97.8h0.3h0.5h0.3h0.5h0.3h1.1
			h0.3h0.1h0.2h0.1h0.2h0.1h0.1h0.2h0.1c0.1,0,0.1,0.4,0,0.4c-0.4,0.3-0.8-0.2-1.2-0.1c-1.4,0.1-2.4,0.5-3.5,0.2
			c-0.1-0.1-0.1-0.2,0-0.3c0.1-0.4,0.5-0.2,0.5-0.4L741.8,97.8L741.8,97.8z"/>
		<path style="fill:none;" d="M747.4,97.8h0.3h0.5h0.3h0.5h0.3h1h0.3h0.1h0.2h0.1h0.1h0.1h0.2h0.1h0.1
			C750.1,98.2,748.6,98.1,747.4,97.8L747.4,97.8z"/>
		<path style="fill:none;stroke:#000000;stroke-width:0.4453;stroke-miterlimit:10.433;" d="M747.4,97.8h0.3h0.5h0.3h0.5h0.3h1h0.3
			h0.1h0.2h0.1h0.1h0.1h0.2h0.1h0.1C750.1,98.2,748.6,98.1,747.4,97.8L747.4,97.8z"/>
		<path style="fill:none;" d="M753.3,98.1h0.2h0.2h2h0.3h1c0.1,0,0.2,0.2,0.1,0.2c-1.3,0.5-2.6-0.1-3.7,0.1L753.3,98.1L753.3,98.1z"
			/>
		<path style="fill:none;stroke:#000000;stroke-width:0.4453;stroke-miterlimit:10.433;" d="M753.3,98.1h0.2h0.2h2h0.3h1
			c0.1,0,0.2,0.2,0.1,0.2c-1.3,0.5-2.6-0.1-3.7,0.1L753.3,98.1L753.3,98.1z"/>
		<path style="fill:none;" d="M763,99.7L763,99.7h-0.2h-0.1h-0.1l-0.2-0.1h-0.2l-0.2-0.1l-0.2-0.1l-0.2-0.1l-0.2-0.1h-0.2l-0.2-0.1
			h-0.1h-0.1h-0.1h-0.1h-0.1H760h-0.1c0.6,0.2,1.6,0.1,2.3,0.3c0.3,0.2,0.6,0.5,1,0.5c0.3,0-0.1-0.2,0-0.3c-0.2,0.1-0.3-0.2-0.4-0.2
			C762.8,99.6,762.9,99.6,763,99.7L763,99.7z"/>
		<path style="fill:none;stroke:#000000;stroke-width:0.4453;stroke-miterlimit:10.433;" d="M763,99.7L763,99.7h-0.2h-0.1h-0.1
			l-0.2-0.1h-0.2l-0.2-0.1l-0.2-0.1l-0.2-0.1l-0.2-0.1h-0.2l-0.2-0.1h-0.1h-0.1h-0.1h-0.1h-0.1H760h-0.1c0.6,0.2,1.6,0.1,2.3,0.3
			c0.3,0.2,0.6,0.5,1,0.5c0.3,0-0.1-0.2,0-0.3c-0.2,0.1-0.3-0.2-0.4-0.2C762.8,99.6,762.9,99.6,763,99.7L763,99.7z"/>
		<path style="fill:none;" d="M785.8,104.4h0.2h0.2h0.2h0.2h0.2h0.2l0.3,0.1l0.4,0.1h0.2h0.2h0.2h0.2h0.2h0.2c0,0,0.1,0.2,0.1,0.3
			c-0.9-0.2-2-0.1-2.8-0.6h0.4L785.8,104.4L785.8,104.4z"/>
		<path style="fill:none;stroke:#000000;stroke-width:0.4453;stroke-miterlimit:10.433;" d="M785.8,104.4h0.2h0.2h0.2h0.2h0.2h0.2
			l0.3,0.1l0.4,0.1h0.2h0.2h0.2h0.2h0.2h0.2c0,0,0.1,0.2,0.1,0.3c-0.9-0.2-2-0.1-2.8-0.6h0.4"/>
		<path style="fill:none;" d="M782.2,103.8h-0.3h-0.3h-0.3H781h-0.3h-0.3l-0.3-0.1h-0.3l-0.3-0.1l-0.3-0.1l-0.3-0.1l-0.3-0.1
			l-0.3-0.1l-0.3-0.1l-0.3-0.1l-0.3-0.1c1.4,0.8,3.1,1.1,4.9,1c-0.2-0.3-0.5-0.3-0.8-0.3L782.2,103.8L782.2,103.8z"/>
		<path style="fill:none;stroke:#000000;stroke-width:0.4453;stroke-miterlimit:10.433;" d="M782.2,103.8h-0.3h-0.3h-0.3H781h-0.3
			h-0.3l-0.3-0.1h-0.3l-0.3-0.1l-0.3-0.1l-0.3-0.1l-0.3-0.1l-0.3-0.1l-0.3-0.1l-0.3-0.1l-0.3-0.1c1.4,0.8,3.1,1.1,4.9,1
			c-0.2-0.3-0.5-0.3-0.8-0.3"/>
		<path style="fill:none;" d="M793.3,104.9h2.5c-1.2,0.3-2.3,0.1-3.4,0.2C792.7,105,793,104.9,793.3,104.9L793.3,104.9z"/>
		<path style="fill:none;stroke:#000000;stroke-width:0.4453;stroke-miterlimit:10.433;" d="M793.3,104.9h2.5
			c-1.2,0.3-2.3,0.1-3.4,0.2C792.7,105,793,104.9,793.3,104.9L793.3,104.9z"/>
		<path style="fill:none;stroke:#000000;stroke-width:0.4453;stroke-miterlimit:10.433;" d="M722.9,111.7c-1.6-0.1-3.3-0.1-4.7-1"/>
		<path style="fill:none;stroke:#000000;stroke-width:0.4453;stroke-miterlimit:10.433;" d="M722,111.1c-1.6,0-3.4-0.7-4.5-1.7"/>
		<path style="fill:none;stroke:#000000;stroke-width:0.4453;stroke-miterlimit:10.433;" d="M721.2,110.3c-1.6-0.2-2.6-1.6-3.9-2.6"
			/>
		<path style="fill:none;stroke:#000000;stroke-width:0.4453;stroke-miterlimit:10.433;" d="M719.9,108.7c-1.1-0.7-2.2-1.4-3.1-2.4"
			/>
		<path style="fill:none;stroke:#000000;stroke-width:0.4453;stroke-miterlimit:10.433;" d="M719.5,107.3c-1.2-0.4-2.1-1.5-3-2.4"/>
		<path style="fill:none;stroke:#000000;stroke-width:0.4453;stroke-miterlimit:10.433;" d="M719.5,106.2c-1.2-0.7-2.3-1.6-3.2-2.6"
			/>
		<path style="fill:none;stroke:#000000;stroke-width:0.4453;stroke-miterlimit:10.433;" d="M719.5,104.9c-0.6-0.5-1.6-0.7-1.9-1.6"
			/>
		<path style="fill:none;stroke:#000000;stroke-width:0.4453;stroke-miterlimit:10.433;" d="M719.3,103.5c-0.6-0.3-1-1-1.7-1.2"/>
		<path style="fill:none;stroke:#000000;stroke-width:0.4453;stroke-miterlimit:10.433;" d="M719.5,102.5c-0.4-0.3-0.8-0.7-1.3-1.1"
			/>
		<path style="fill:none;stroke:#000000;stroke-width:0.4453;stroke-miterlimit:10.433;" d="M722.9,120.3h2.3"/>
		<path style="fill:none;stroke:#000000;stroke-width:0.4453;stroke-miterlimit:10.433;" d="M724,119.5c1.2-0.1,2.4-0.3,3.5-0.2"/>
		<path style="fill:none;stroke:#000000;stroke-width:0.4453;stroke-miterlimit:10.433;" d="M724.6,118.5h0.3h0.1h0.5l0,0h0.1
			c0.9-0.4,1.8-0.5,2.7-0.5"/>
		<path style="fill:none;stroke:#000000;stroke-width:0.4453;stroke-miterlimit:10.433;" d="M726.1,117.3h0.2h0.2h0.3h0.3h0.9h0.1
			h0.1h0.1h0.1h0.1h0.1h0.1c0.7-0.4,1.6-0.2,2.4-0.3"/>
		<path style="fill:none;stroke:#000000;stroke-width:0.4453;stroke-miterlimit:10.433;" d="M727.6,116.5c1.2,0.1,2.3-0.2,3.5-0.2"
			/>
		<path style="fill:none;stroke:#000000;stroke-width:0.4453;stroke-miterlimit:10.433;" d="M729.3,115.5c0.8,0,1.5-0.4,2.4-0.3"/>
		<path style="fill:none;stroke:#000000;stroke-width:0.4453;stroke-miterlimit:10.433;" d="M727.8,114.4c1.3,0.1,2.5,0.1,3.6-0.3"
			/>
		<path style="fill:none;stroke:#000000;stroke-width:0.4453;stroke-miterlimit:10.433;" d="M720.7,113c1.1-0.1,2.2,0.5,3.3,0"/>
		<path style="fill:none;stroke:#000000;stroke-width:0.4453;stroke-miterlimit:10.433;" d="M720.1,113.9c1.1,0.2,2.2,0.4,3.4,0.2"
			/>
		<path style="fill:none;stroke:#000000;stroke-width:0.4453;stroke-miterlimit:10.433;" d="M719.5,115.2c1.2,0,2.4,0.1,3.5-0.2"/>
		<path style="fill:none;stroke:#000000;stroke-width:0.4453;stroke-miterlimit:10.433;" d="M718.8,116.3c1,0.3,1.9,0.3,2.8,0"/>
		<path style="fill:none;stroke:#000000;stroke-width:0.4453;stroke-miterlimit:10.433;" d="M717.7,117.6c0.9,0.4,1.9,0.1,2.8-0.2"
			/>
		<path style="fill:none;stroke:#000000;stroke-width:0.4453;stroke-miterlimit:10.433;" d="M735.8,102.1c1.4-0.3,2.8-0.1,4.3,0.2"
			/>
		<path style="fill:none;stroke:#000000;stroke-width:0.4453;stroke-miterlimit:10.433;" d="M734,103.3c1.5-0.3,3.2-0.2,4.7,0"/>
		<path style="fill:none;stroke:#000000;stroke-width:0.4453;stroke-miterlimit:10.433;" d="M732.9,104.9c1.6-0.6,3.5-0.6,5.2-0.6"
			/>
		<path style="fill:none;stroke:#000000;stroke-width:0.4453;stroke-miterlimit:10.433;" d="M733,106.2c1-0.2,1.9-0.2,2.9-0.2"/>
		<path style="fill:none;stroke:#000000;stroke-width:0.4453;stroke-miterlimit:10.433;" d="M733.4,107.6c0.5,0.1,0.8-0.3,1.3-0.2"
			/>
		<path style="fill:none;stroke:#000000;stroke-width:0.4453;stroke-miterlimit:10.433;" d="M728.9,99.9c0.6,0.3,1.6,0.2,1.9,0.9"/>
		<path style="fill:none;stroke:#000000;stroke-width:0.4453;stroke-miterlimit:10.433;" d="M728.2,101.1c1,0.4,1.9,0.9,2.8,1.5"/>
		<path style="fill:none;stroke:#000000;stroke-width:0.4453;stroke-miterlimit:10.433;" d="M727.8,102.7c1.4,0.2,2.4,1,3.5,1.7"/>
		<path style="fill:none;stroke:#000000;stroke-width:0.4453;stroke-miterlimit:10.433;" d="M727.7,104.3c1.1,0.4,2.1,1.2,3.2,1.5"
			/>
		<path style="fill:none;stroke:#000000;stroke-width:0.4453;stroke-miterlimit:10.433;" d="M723.5,101c0.5,0.7,1.5,0.5,2.4,0.9"/>
		<path style="fill:none;stroke:#000000;stroke-width:0.4453;stroke-miterlimit:10.433;" d="M724.6,108.2c1.2,0,1,1.4,1.9,1.8"/>
		<path style="fill:none;stroke:#000000;stroke-width:0.4453;stroke-miterlimit:10.433;" d="M727,108.1c0.6,0.3,1.1,0.8,1.5,1.4"/>
		<path style="fill:none;stroke:#000000;stroke-width:0.4453;stroke-miterlimit:10.433;" d="M728.8,107.9c1.1,0,1.5,1.4,2.6,1.5"/>
		<path style="fill:none;stroke:#000000;stroke-width:0.4453;stroke-miterlimit:10.433;" d="M757.1,104c1.6,0.5,3.2,0.7,4.7,0.6"/>
		<path style="fill:none;stroke:#000000;stroke-width:0.4453;stroke-miterlimit:10.433;" d="M756.6,108.9L756.6,108.9h0.3l0,0h0.1
			l0,0h0.3l0,0h0.4h0.1h0.4h0.1h0.5c0.5,0,1.6-0.1,2.2-0.1"/>
		<path style="fill:none;stroke:#000000;stroke-width:0.4453;stroke-miterlimit:10.433;" d="M757.4,110.1h3.3"/>
		<path style="fill:none;stroke:#000000;stroke-width:0.4453;stroke-miterlimit:10.433;" d="M757,111.5h0.2h0.1h0.9h0.1h0.4h0.1h0.2
			h0.1h0.1h0.1h0.1h0.1h0.2h0.1h0.5h0.1h0.4c0.2,0,2.4,0.2,2,0.2"/>
		<path style="fill:none;stroke:#000000;stroke-width:0.4453;stroke-miterlimit:10.433;" d="M757.6,113h0.7h0.1h0.1h0.1h0.1h0.1h0.3
			h0.1h0.1h0.1h0.2c1.6-0.3,2.2-0.1,2.2-0.1c0.2,0,1.1,0.4,1.4,0.3"/>
		<path style="fill:none;stroke:#000000;stroke-width:0.4453;stroke-miterlimit:10.433;" d="M759.3,114.5c1.1-0.1,2.2,0.2,3.3,0.4"
			/>
		<path style="fill:none;stroke:#000000;stroke-width:0.4453;stroke-miterlimit:10.433;" d="M759.4,115.6h0.2h0.2h0.2h0.2h0.2h0.2
			h0.2h0.2l0.2,0.1h0.2h0.2l0.2,0.1l0.2,0.1l0.2,0.1h0.1h0.1h0.1l0.1,0.1h-0.4"/>
		<path style="fill:none;stroke:#000000;stroke-width:0.4453;stroke-miterlimit:10.433;" d="M759.4,116.7c0.8,0.2,1.2,0.5,1.7,0.8"
			/>
		<path style="fill:none;stroke:#000000;stroke-width:0.4453;stroke-miterlimit:10.433;" d="M759.8,117.8c0.4,0.1,0.9,0.3,1.3,0.6"
			/>
		<path style="fill:none;stroke:#000000;stroke-width:0.4453;stroke-miterlimit:10.433;" d="M743.5,102.5c1.1,0.1,2.1,0.5,3.2,0.4"
			/>
		<path style="fill:none;stroke:#000000;stroke-width:0.4453;stroke-miterlimit:10.433;" d="M744.6,103.6c0.8,0,1.5,0.4,2.2,0.4"/>
		<path style="fill:none;stroke:#000000;stroke-width:0.4453;stroke-miterlimit:10.433;" d="M748.6,103.2c1.1,0.6,2.3,0.5,3.5,0.5"
			/>
		<path style="fill:none;stroke:#000000;stroke-width:0.4453;stroke-miterlimit:10.433;" d="M754,103.3c0.7,0.1,1.6-0.3,2.4,0.2"/>
		<path style="fill:none;stroke:#000000;stroke-width:0.4453;stroke-miterlimit:10.433;" d="M754.2,104.1c0.5,0.1,1.1,0.1,1.6,0.4"
			/>
		<path style="fill:none;stroke:#000000;stroke-width:0.4453;stroke-miterlimit:10.433;" d="M753.4,105.3c1-0.1,1.8,0.5,2.7,0.4"/>
		<path style="fill:none;stroke:#000000;stroke-width:0.4453;stroke-miterlimit:10.433;" d="M742.2,105.7c0.4-0.3,0.6,0.3,1,0.2"/>
		<path style="fill:none;stroke:#000000;stroke-width:0.4453;stroke-miterlimit:10.433;" d="M748.7,108.1c1.2,0,2.2,0.7,3.4,0.6"/>
		<path style="fill:none;stroke:#000000;stroke-width:0.4453;stroke-miterlimit:10.433;" d="M749.3,109.4c1.1,0.2,2.2,0.5,3.4,0.4"
			/>
		<path style="fill:none;stroke:#000000;stroke-width:0.4453;stroke-miterlimit:10.433;" d="M772.7,113.1L772.7,113.1h-0.2l-0.2-0.1
			h-0.2h-0.2h-0.2h-0.2h-0.2h-0.2h-0.7h-0.2h-0.3h-0.2c-0.5,0-1.4,0.4-2.1,0.5"/>
		<path style="fill:none;stroke:#000000;stroke-width:0.4453;stroke-miterlimit:10.433;" d="M773.1,114.5l-0.4-0.1l-0.4-0.1
			l-0.4-0.1l-0.4-0.1l-0.4-0.1h-0.2l-0.2-0.1l-0.2-0.1l-0.2-0.1l-0.2-0.1l-0.2-0.1c-0.4-0.1-0.9,0.2-1.5,0.2"/>
		<path style="fill:none;stroke:#000000;stroke-width:0.4453;stroke-miterlimit:10.433;" d="M769.4,114.9c1.3,0,2.3,0.9,3.5,1.2"/>
		<path style="fill:none;stroke:#000000;stroke-width:0.4453;stroke-miterlimit:10.433;" d="M767.5,116.1c1.2,0.3,2.3,0.5,3.5,0.8"
			/>
		<path style="fill:none;stroke:#000000;stroke-width:0.4453;stroke-miterlimit:10.433;" d="M766,117.3c1.3-0.3,2.3,0.7,3.6,0.9"/>
		<path style="fill:none;stroke:#000000;stroke-width:0.4453;stroke-miterlimit:10.433;" d="M764.8,118.4L764.8,118.4L764.8,118.4
			L764.8,118.4L764.8,118.4L764.8,118.4h0.2l0,0l0,0l0,0h0.1l0,0l0,0l0,0h0.1l0,0h0.1c1.1-0.2,1.7,0.6,2.8,0.6"/>
		<path style="fill:none;stroke:#000000;stroke-width:0.4453;stroke-miterlimit:10.433;" d="M763.7,119.9c0.9-0.1,1.5,0.2,2.4,0.3"
			/>
		<path style="fill:none;stroke:#000000;stroke-width:0.4453;stroke-miterlimit:10.433;" d="M769.4,103c1.1,0.2,2.2,0,3.3,0.4"/>
		<path style="fill:none;stroke:#000000;stroke-width:0.4453;stroke-miterlimit:10.433;" d="M767.8,104.4c0.4,0,0.8-0.1,1.2,0.2"/>
		<path style="fill:none;stroke:#000000;stroke-width:0.4453;stroke-miterlimit:10.433;" d="M768.4,105.7c0.9,0.2,1.8,0.2,2.8,0.3"
			/>
		<path style="fill:none;stroke:#000000;stroke-width:0.4453;stroke-miterlimit:10.433;" d="M769.3,107.1c1,0,1.9,0.1,2.8,0.3"/>
		<path style="fill:none;stroke:#000000;stroke-width:0.4453;stroke-miterlimit:10.433;" d="M769.3,108.9c0.7,0.1,1.4-0.1,2.1,0"/>
		<path style="fill:none;stroke:#000000;stroke-width:0.4453;stroke-miterlimit:10.433;" d="M772.4,110.6l-0.4-0.1l-0.4-0.1
			l-0.3-0.1l-0.3-0.1l-0.4-0.1l-0.3-0.1l-0.4-0.1l-0.3-0.1c-0.3,0-1,0.3-1.6,0.3"/>
		<path style="fill:none;stroke:#000000;stroke-width:0.4453;stroke-miterlimit:10.433;" d="M773.7,112.4L773.7,112.4h-0.2h-0.1
			h-0.1h-0.1h-0.1H773l-0.2-0.1h-0.1l-0.2-0.1h-0.1l-0.1-0.1h-0.2H772h-0.1h-0.1h-0.2h-0.1h-0.1h-0.1h-0.2c-0.4,0-0.7-0.1-1.5-0.4
			c-0.3-0.2-0.9-0.1-1.4-0.1"/>
		<path style="fill:none;stroke:#000000;stroke-width:0.4453;stroke-miterlimit:10.433;" d="M774.8,108.1c1-0.1,2,0,3,0.2"/>
		<path style="fill:none;stroke:#000000;stroke-width:0.4453;stroke-miterlimit:10.433;" d="M775.1,109.4h4"/>
		<path style="fill:none;stroke:#000000;stroke-width:0.4453;stroke-miterlimit:10.433;" d="M776.5,110.4c1.4,0.2,2.7-0.2,4.1-0.2"
			/>
		<path style="fill:none;stroke:#000000;stroke-width:0.4453;stroke-miterlimit:10.433;" d="M779.2,111.3c0.8,0.1,1.6-0.2,2.4-0.2"
			/>
		<path style="fill:none;stroke:#000000;stroke-width:1.039;stroke-miterlimit:10.433;" d="M753.9,112.6c0,0,6,0,9.9-0.5"/>
		<path style="fill:none;stroke:#000000;stroke-width:0.4453;stroke-miterlimit:10.433;" d="M760.6,108.2c-1.5-0.1-2.8,0.1-4.2-0.3"
			/>
		<path style="fill:none;stroke:#000000;stroke-width:0.4453;stroke-miterlimit:10.433;" d="M760.9,107.3c-1.4-0.1-2.8,0.2-4.1-0.2"
			/>
		<path style="fill:none;stroke:#000000;stroke-width:0.4453;stroke-miterlimit:10.433;" d="M761.1,106.2c-1.2,0.3-2.4,0.3-3.5,0"/>
		<path style="fill:none;stroke:#000000;stroke-width:0.4453;stroke-miterlimit:10.433;" d="M761.5,105.2h-4.1"/>
	</g>
</g>
</svg>
