<?xml version="1.0" encoding="utf-8"?>
<!-- Generator: Adobe Illustrator 22.1.0, SVG Export Plug-In . SVG Version: 6.00 Build 0)  -->
<svg version="1.1" id="Layer_2_1_" xmlns="http://www.w3.org/2000/svg" xmlns:xlink="http://www.w3.org/1999/xlink" x="0px" y="0px"
	 viewBox="0 0 612 792" style="enable-background:new 0 0 612 792;" xml:space="preserve">
<g>
	<path d="M274.8,475c0-1.8,0.5-3.5,1.3-5.1c0.6,0,1.3,0,1.9,0c-2.2,4.1-0.2,7.1,2.3,10.4c4.2,5.4,8.9,10.4,13.6,15.4
		c4,4.2,8.5,7,14.7,5.8c0.7-0.1,1.5,0.1,2.2,0.1c1.5-0.1,2.9,0.3,4.3-0.3c1.4-0.3,2.7-0.3,4.1-0.1c1.3,0.6,2.5,0.3,3.9,0.3
		c0.3,0,0.5,0,0.8,0c0.9,0,2,0.4,2.8-0.4c7.4-0.4,14.9-0.9,22.3-1.4c1-0.1,2.2,0.4,1.9-1.7c-0.5-3.9,1.1-4.9,4.7-3.4
		c0.9,0.4,1.7,0.9,2.5,1.3c0.9,0.5,1.7,0.1,1.3-0.8c-1.1-2.5-0.5-6.1-4.2-7l0,0c-0.2-0.6-0.5-1.1-1.3-0.6l0,0
		c0.1-1.4-0.8-1.8-1.9-1.9l0,0c-0.2-1.1-1.2-1.2-1.9-1.6l0,0c-1.1-0.9-0.6-2.4-0.8-3.5c-0.6-3.2-3.7-4-5.4-6.2
		c2.7-2.4,5.7-4.5,7.8-7.2c3.6-4.6,6.6-9.7,9.8-14.6c0.4-0.6,0.7-1,0.5-1.7c-1.2-5.2-1.7-10.6-4.8-15.1c-0.1-0.4-0.2-0.8-0.3-1.1
		c9.1,0,18.2-0.1,27.3-0.1c9.7,1.2,19.2,3.5,28.8,4.8c13.5,1.8,26.9,1.6,40.4-0.7c5.9-1,11.6-3.2,17.5-4.6c0.8,1,2.4-0.1,3.2,1.1
		c-0.5,0.6-1,1.3-1.5,1.9c-0.8,0.2-1.3,0.5-0.4,1.3c5.9,3.3,8.5,9.1,11.3,14.7c3.8,7.8,6.2,16,7.6,24.5c0.1,2,0.4,4,0.1,5.9
		c-0.6,4,1.3,6,4.6,7.8c14.5,7.9,30.1,9.9,46.3,9.6c1.8-0.1,1.9-1.2,2.2-2.4c1-4.2,2.6-8.2,4.9-11.9c0.9-1.5,2.1-2.8,3.8-3
		c2.2-0.2,2.8-1.5,3.4-3.3c1.1-3.1,3.5-6.6,6.5-5.9c3.2,0.8,4.3-0.9,6.1-2.1c0.9-0.6,1.7-1.3,2.9-0.9c0.3,0.1,0.4,0.2,0.7,0.3
		c-0.1-0.3-0.1-0.5-0.1-0.8c-1.5-4.9-3.7-9.5-5.7-14.2c-3.3-7.5-7.7-14.5-11.7-21.6c0.9-1.5,3.3,0.2,4-1.8
		c6.9,10.1,11.7,21.1,15.6,32.6c1.3,4,3.1,7.3,6.3,10.1c5.1,4.2,6.2,10.2,6.8,16.4c0.2,1.8-0.8,3.1-2.5,3.5
		c-1.5,0.3-3.1,0.5-4.7,0.6c-1.6,0.1-2.7-0.2-3.6,2.2c-1,2.7-4.7,3.6-7.3,3.3c-4.6-0.6-8.2,1.6-12.2,2.8c-0.3,0.1-0.4,0.4-0.6,0.6
		c-1.9,0-3.8,0-5.7,0c-0.9-0.9-2.2-1.2-3.4-1c-4.5,0.6-9,0.4-13.5,0.4c-11.6,0-22.9-2.2-33.6-7c-3.7-1.6-6.8-2.8-11.1-1.3
		c-6.5,2.2-13.3,0.4-20.1,0.1c-7.7-0.3-15.1-2.3-22-5.6c-5.8-2.8-7-8.2-3-13c3.3-4,4.8-9.1,8.3-13c0.3-0.3,0.5-1,0.4-1.5
		c-0.3-0.8-1.1-0.4-1.6-0.4c-2.2,0.3-4.4,0.6-6.5,1c-2.7,0.5-5.7,1.4-8.2,0.4c-7.1-2.8-14.3-2.6-21.6-1.4c-2.1,0.3-3.5,1.6-3,4.1
		c0.4,1.6,0.9,3.3,0.9,4.9c0.2,5.4,0.5,10.8,3.1,15.7c0.4,0.9,0.6,2,0.8,3c0.2,1.5,0.1,2.2-2,1.9c-3.4-0.5-7-0.6-10.4,0.1
		c-10.5,2.3-21,2.4-31.6,0c-6.3-1.5-6.6-1.7-6.6-8.2c0-0.6,0.1-1.3,0-1.9c-0.5-6.6-2.3-12.7-6.5-18c-0.8-1.1-1.2-1.5-2.2-0.2
		c-2.4,3-4.8,6.1-7.5,9c-1.5,1.6-1.3,2.8-0.3,4.4c2.8,4.4,6.4,7.8,10.9,10.2c1.5,0.8,2,1.6,1.5,2.9c-0.4,1-0.1,1.8,0.1,2.7
		c1,4.4-1.1,7-5.6,7.2c-0.6,0-1.8-0.4-1.7,0.7c0.2,2.5-1.8,2.9-3.3,3.7c-3.6,0-7.1,0-10.8,0c-0.3-0.9-1-0.6-1.5-0.6
		c-9.1,0-18.2,0-27.3,0c-0.6,0-1.3-0.3-1.6,0.6c-3.2,0-6.3,0-9.5,0c-10.4-8.2-19.5-17.7-27.2-28.5c0-0.4,0-0.8,0-1.3
		C274.4,475.5,274.6,475.2,274.8,475z M373.5,490.1c4.4,0.8,8.9,1.3,13.4,1.4c7.8,0.2,15.5-1.1,23.1-2c2.3-0.3,3.8-1,1.8-3.5
		c-0.7-0.9-0.9-2.1-1.1-3.2c-0.9-5.4-0.5-10.9-0.5-16.4c0-2.1-0.3-3.1-2.7-3.5c-4.7-0.9-9.4-2.4-14-3.5c-5.6-1.3-10.9-3.9-16.6-4.7
		c-9-4.9-9.2-4.8-14.6,3.5c-0.3,0.4-0.5,0.9-0.8,1.3c-0.9,1.2-0.9,2,0.4,3.1c2.8,2.1,4.2,5.2,5.1,8.5c1.5,4.9,2.4,10.1,2.6,15.2
		C369.7,489.3,370.8,490.3,373.5,490.1z M448.6,476.3c-1.8,1.5-2.5,3.9-3.9,5.7c-0.5,0.7-0.4,1.4,0.1,2c2.5,3,5.4,5.9,9.2,6.8
		c10.9,2.5,21.9,3.4,33,1.4c1.6-0.3,2.4-0.6,1.4-2.3c-1.3-2.2-1.3-4.7-1-7.1c0.9-8.2-1.2-15.7-4.4-23.1c-0.3-0.8-0.6-1.8-1.7-1.5
		c-4,1.5-8.3,0.9-12.3,2.3c-3.4,0.5-6.8,0.9-10.2,1.5c-0.6,0.1-1.4,0.3-1.6,0.8C454.2,467.3,450.6,471.2,448.6,476.3z M380.2,438.9
		c-4.5,1.2-9,1.6-10.7,7.1c-0.6,1.9-0.8,2.6,1.4,3.2c9,2.6,17.9,5.4,26.9,8c8,2.3,16.2,3.6,24.5,2c5.1-0.9,10-0.6,14.7,1.6
		c0.9,0.4,1.8,0.1,2.8,0c5.4-0.6,10.8-1.2,16.2-1.8c7.6-0.9,15.1-2.4,22.6-4c2-0.4,1.6-1.3,0.9-2.7c-1.8-3.2-3.7-6.3-6-9.2
		c-1.9-2.4-3.4-3.7-7.5-2.4c-11.7,3.9-23.7,6.7-36.3,6.5c-6.6-0.1-13.3,0-19.8-1.1c-7.7-1.3-15.3-3.6-22.9-5.5
		C384.7,440.1,382.4,439.5,380.2,438.9z M579.8,493.3c3.8,0,4.2-0.6,3.8-3.7c-0.8-5.3-3.5-9.6-7.6-13c-1.8-1.5-3.9-1.7-5.5,0.4
		c-1.7,2.3-4,2.7-6.1,1.5c-2.5-1.5-3.4-0.1-4.3,1.7c-0.8,1.5-0.9,3-0.8,4.6c0.3,2.8-1.3,3.5-3.4,2.7c-2.1-0.8-3.2,0.1-4.2,1.6
		c-0.6,0.9-1.3,1.9-1.9,2.9c-4.2,7.2-3.4,8.7,4.9,8.5c5.8-0.2,11.4-2.7,17.3-2.5c1.2,0.1,2.3-0.5,2.2-2.1c-0.3-3.2,1.5-3.5,4-2.8
		C578.8,493.2,579.5,493.3,579.8,493.3z"/>
	<path d="M559,433.5c-0.7,2-3,0.4-4,1.8c-5.3-7.7-11.3-14.9-19-20.4c-0.8-0.6-1.9-1.5-2.7-1.5c-3.2,0.4-6.4,0.1-9.6-0.4
		c-2.9-0.4-5.9,0.4-8.7,1.3c-7.1,2-14.5,3.4-20.9,7.3c-1.1,0.4-2.2,0.8-3.2,1.3c-6.2,3.3-11.6,7.6-16.8,12.2
		c-0.8-1.3-2.3-0.2-3.2-1.1c1.6-0.7,2.8-1.8,3.9-3.2c3.5-4.4,7.9-7.8,12.4-11.1c9.6-7,20.4-11,31.9-13.6c3.7-0.8,7.3-0.9,10.4,1.7
		c1.4,1.2,2.2,0.3,3.2-0.7c5.6-5.7,10.4-12.1,15.3-18.5c0.9-1.3,0.4-1.5-0.8-1.9c-2.8-1-5.7-2.2-8.5-3.3c-1.1-0.4-1.9-0.5-2.9,0.3
		c-1.9,1.5-3.2,0.4-4-1.3c-0.8-1.9-1.5-3.9-2.2-5.9c-10.7,11.6-17.9,16.1-29.8,19.2c-7.6,2-14.3,1.8-19.3-5.2c-0.8-1-1.6-1.9-2.3-3
		c-2.8-4.2-5.6-8.5-6.6-13.6c4.4,6.7,9.9,12.2,16.5,16.7c2,1.4,4.1,2.1,6.5,2c13.5-0.1,23.5-7.3,31.7-17c3.9-4.6,3.4-9.4-0.6-14
		c-5.4-6.5-10.8-13-16.8-18.9c-5.2-5.2-9-11.6-15.3-15.7c0.5-0.3,0.9-0.4,1.5-0.7c2-0.3,3.5,0.8,4.7,2c9.8,9.9,19.2,20,27,31.6
		c1.8,2.6,2.7,5.6,4,8.4c1.9,4.2,3.5,8.9,8.5,11.1c4.1,1.8,8.2,3.5,12.7,4.5c0.8,0.2,1.8,0.4,2.3,0.9c2.2,2.8,4.4,1.5,5.9-0.2
		c7-7.2,12.5-15.2,15.4-25c1.8-6.1,4.7-12,8.5-17.3c4.1-5.6,10.3-8.4,16.8-10.2c8.5-2.4,17.3-4.1,26.1-5.2c0.9-0.1,1.8-0.3,2.7-0.4
		c0.2,1.1,1,1.1,1.9,1.1c6.3,0,12.7,0,19,0c0.9,0,1.7,0,1.9-1.1c7.1,0.8,13.7,3,20.2,5.8c3.9,1.7,5.6,4.3,5.8,8.3
		c0.1,0.7-0.5,1.7,0.6,2.2c0,1.7,0,3.4,0,5.1c-0.9,0.8-0.9,1.7,0,2.5c0,1.1,0,2.1,0,3.2c-1,2.3-1,4.6,0,7c0,1.5,0,3,0,4.4
		c-1.5,4.3-1.1,8.8-1.8,13.2c-0.9,4.9-1.5,9.9-3.2,14.7c-0.8,2.2-2.2,3.7-4.2,4.8c-8,4.5-16.6,6.8-25.7,7.2
		c-10.2,0.4-20.4,0.7-30.6,0.5c-6.2-0.1-12.4-0.6-18.1-3.2c-1.2-0.6-1.6-0.3-2.2,0.6c-7.9,13-19.6,21.6-33.1,28
		C558.8,431.5,557.6,432,559,433.5z M548.7,419.4c1.8,2.3,3.7,4.6,5.4,6.9c0.9,1.2,1.7,1.6,3.2,0.8c2.2-1.1,4.5-1.8,6.6-2.8
		c12-5.8,22.3-13.6,27.9-26.2c3.4-0.8,6.1,1.3,9.2,1.8c15.9,2.5,31.8,1.8,47.8,0.3c2.7-0.3,5.6-0.3,8-1.5c-0.1-0.8-0.6-0.8-1-0.8
		c-10.9,0.1-21.7-0.4-32.4-2.2c-0.4-0.1-0.9-0.1-1-0.5c-0.3-1.1,0.4-1.8,1-2.5c0.9-0.9,2.2-1.9,3.6-1.5c1.4,0.4,0.3,1.1,0.1,1.9
		c-0.3,1.1,0.8,0.9,1.5,1c2.9,0.3,5.8,0.4,8.8,0.7c5.7,0.4,11.3,0.4,17,0c3.5,0,6.9-0.7,10.3-0.9c4-0.3,5.9-2.5,7-6.1
		c1.2-4.2,1.6-8.4,2.1-12.7c1.3-11.7,1.5-23.5-0.1-35.2c-0.3-1.8-1-2.8-2.5-3.6c-7.5-4.2-15.9-4.9-24.3-5.9
		c-3.2-0.1-6.3-0.9-9.5-0.1c-0.6,0-1.3,0.1-1.9,0.1c-1.9,0-3.9-0.2-5.8,0.5c-0.4,0.1-0.8,0.1-1.2,0.1c-0.2-0.1-0.4-0.1-0.6,0.1
		c-10.8,1.5-21.3,3.9-31.6,7.6c-5.6,2-9.9,5.6-12.3,11.1c-2.7,6-5.9,11.8-8.2,18.1c-2.8,7.8-7,14.6-13.2,20.1c-1,0.9-1.3,1.8-1.3,3
		c0.1,3,0.2,6.1,0.6,9.1c0.1,0.9,0.8,2.5-0.6,2.7c-1.2,0.2-1.3-1.5-1.6-2.4c-0.6-1.5-0.9-3-1.3-4.5c-0.1-1.1-0.1-2.3-0.1-3.4
		c-0.1-0.6,0.2-1.5-0.8-1.3c-0.8,0.1-0.6,1-0.6,1.6c-1.1,1.6-0.6,4-2.4,5.7c-1.2-2-0.8-3.9-0.4-5.7c0.5-2.3-1.5-2.3-2.1-1.7
		c-2.2,2.2-5.3,4.6-5.7,7.3c-0.4,2.9-1.1,5.8-1.2,8.9C544.8,411.6,544,416.3,548.7,419.4z M541,412.2c-0.1-3.4,0.6-6.4,0.6-9.6
		c-1.8,2.3-3.6,4.6-5.4,7C537.8,410.5,539.3,411.3,541,412.2z"/>
	<path d="M495,326.4c-0.5,0.3-0.9,0.4-1.5,0.7c-3.9-1.5-7.4-0.4-10.7,1.8c-3.1,2.1-5.6,4.7-8.3,7.2c-4.6,4.4-8.1,9.4-9.5,15.6
		c-0.6,0.5-0.4,1.2-0.4,1.8c-0.1,2.6,0.7,5.1,1.3,7.6c0.1,0.2,0.3,0.4,0.4,0.5c0.1,0.4,0.2,0.8,0.3,1.3c0.1,0.2,0.3,0.4,0.4,0.6
		c0.2,0.8-0.1,1.6-0.9,1.7s-1-0.7-1.3-1.2c-1.5-3.4-2.4-7-2.5-10.6c0.6-0.8,0.6-1.6-0.1-2.4c0-0.4,0-0.9,0-1.4
		c0.1-0.2,0.3-0.4,0.4-0.6c0.9-2.1,1.5-4.3,2.8-6.3c4.4-6.7,9.7-12.4,16.6-16.6c1.3-0.8,1.6-1.2,0.5-2.5c-4.9-6-10.8-10.8-17.6-14.6
		c-1.6-0.9-2.3-0.7-3,0.9c-2.2,4.8-5.4,9-8.3,13.3c-2.5,3.5-5.9,5.5-9.9,6.8c-3.1,1-6.5,0.9-9.6,1.6c-6,1.3-12,3.2-18.1,4
		c-6.3,0-12.7,0-19,0c-2.4-0.4-4.8-0.6-7.1-1.3c-7.8-2.3-16.1-3.4-21.7-10.4c-0.9-1.2-1.5-0.5-2.3,0.1c-2.5,2.1-4.4,4.7-6.6,7.1
		c-3.4,3.9-6.1,8.3-8.8,12.7c-0.9,1.5-0.7,2.2,0.9,2.8c2.3,1,4.4,2.4,6.5,3.8c5.6,3.6,8.7,8.2,7.5,15.2c-0.4,2.2-0.2,4.4-0.2,6.6
		c-0.5,0.3-0.6,0.7-0.1,1.1c-0.2,1.3-0.3,2.6-0.5,3.9c-0.6,0.5-0.5,1.2-0.5,1.9c-0.8,7-3.8,13.4-6.1,19.9c-0.5,1.5-0.6,4.9-4.1,4
		c-0.3-0.5-0.8-0.5-1.4-0.5c-1-0.1-2-0.1-3-0.2c-0.4-0.1-0.9-0.3-1.3-0.4c-1.1-0.1-2.1-0.1-3.2-0.2c-0.5-0.6-1.2-0.4-1.8-0.4
		c-1.1-0.1-2.2-0.1-3.2-0.1c-0.4-0.4-0.8-0.5-1.4-0.4c-1-0.1-2-0.1-3-0.1c-0.4-0.6-0.8-0.6-1.2-0.1c-0.4,0-0.9,0-1.4,0
		c-1.6-1-3.4-0.3-5-0.5c-2.5,0-5.1-0.1-7.6-0.1c0.1-1.5,0.9-1.4,2.2-1.3c3.3,0.1,6.6,0.8,9.8-0.9c0.9,0.2,1.8,0.3,2.7,0.5
		c1.3,1.1,2.8,0.3,4.3,0.5c0.7,0.1,1.3,0.1,2,0.1c0.3,0.1,0.5,0.3,0.8,0.4c1.9-0.2,3.7,0.4,5.6,0.9c0.3,0.1,0.4,0.3,0.7,0.4
		c1,0.2,2.1,0.3,3,0.6c2.4,0.9,3.6,0.2,3.8-2.3c0.1-0.5,0.1-1.1,0.6-1.4c0.8-0.4,0.6-1.2,0.7-1.9l0,0c0.2-0.3,0.4-0.4,0.6-0.7
		c0.4-1.3,0.9-2.5,1.4-3.8c0.6-0.5,0.5-1.2,0.5-1.8l0,0c0.1-0.1,0.3-0.1,0.3-0.1c0-0.1-0.1-0.3-0.1-0.4c0.6-1.7,1.3-3.4,1.9-5.1
		c0.6-0.5,0.5-1.2,0.5-1.9c0.1-0.6,0.1-1.3,0.2-1.9c0.1-0.3,0.3-0.5,0.4-0.8c0.1-1,0.1-2,0.2-3c0.1-0.3,0.3-0.5,0.4-0.8
		c0.1-1.5,0.1-2.8,0.2-4.3c0.6-0.6,0.7-1.1,0.1-1.8c-0.1-1.4-0.3-2.7-0.2-4.1c0.3-5-1.8-8.8-5.9-11.4c-2.7-1.8-5.6-3.3-8.7-4.3
		c-0.2-0.3-0.4-0.3-0.6-0.1c-0.4,0-0.9-0.1-1.4-0.1c-0.6-0.5-1.1-0.5-1.7,0c-3,0.2-5.1,2-7.1,4c-5.8,5.9-10.4,12.7-14.7,19.5
		c-2.8,4.6-6.8,8.3-9.4,12.9c-1.5-0.4-1.6-0.4-0.8-1.8c2.5-4.4,4.9-8.7,7.7-13c5.2-8.3,11.6-15.7,18.1-23c1.2-1.3,2.7-2.2,4.4-2.3
		c2.5-0.1,3.5-1.6,4.6-3.5c4.8-8.8,10.2-17.1,17.8-23.8c0.6-0.5,0.8-0.9,0.6-1.8c-1.5-4.8,1.5-8,4.5-10.9c5.2-5.1,12-7,18.9-8.5
		c8.2-1.9,16.3-3.7,24.5-5.1c0.3-0.1,0.4-0.4,0.6-0.6c5.9,0,11.8,0,17.7,0c5.2,1.3,10.6,1.6,15.8,3.2c4.3,1.3,8.7,2.4,12.7,4.4
		c1.9,0.9,3.7,2,4,4.4c0.3,1.5,1.6,2,2.8,2.7c6.5,3.6,12.4,7.9,17.6,13.2c1.8,1.9,3.8,3.4,6.4,4.3
		C492.5,324.2,494.4,324.5,495,326.4z M430.4,296c-3.8-0.9-7.7-0.9-11.4-0.1c-0.4,0-0.8,0-1.2,0c-0.4-0.5-0.9-0.5-1.3,0.1
		c-14,0.6-27.1,4.2-39.4,10.9c-2.8,1.5-5.8,2.9-7.6,5.9c-1.3,2.3-1.5,4,0.7,6.1c8.3,8,18,12.5,29.7,12.5s23-1.8,34.3-4.2
		c6.1-1.3,12.7-1.5,16.8-7.7c3.1-4.6,6.6-8.9,7.8-14.5c0.4-1.8-0.3-2.5-1.8-3.1C448.4,298.9,439.7,296.5,430.4,296z"/>
	<path d="M313.2,392.2c1.1,1.9,0.7,4.7,3.3,5.7c0.7,0.9,2.7,0.7,2.5,2.5c-1.5-0.1-3.1,0.6-4.4-0.6c-0.2-0.2-0.4-0.4-0.6-0.6l0,0
		c-0.2-0.2-0.3-0.4-0.5-0.6c-0.9-0.9-1.1,0.4-1.6,0.6c-0.2,0.1-0.3,0.2-0.4,0.4c-2,2.7-4.3,5-7.7,5.9c-0.1,0.1-0.3,0.1-0.3,0.1
		c0,0.2,0.1,0.3,0.1,0.4c0.5,0.1,0.9,0.2,1.5,0.3c0.2,0.1,0.4,0.2,0.6,0.3c0.6,0.1,1.3,0.1,1.9,0.1c0.5,0.6,1.2,0.4,1.9,0.5
		c1.1,0.1,2.1,0.1,3.2,0.1c2.7,1.2,5.5,0.3,8.2,0.5c0.8,0.1,1.8-0.3,2.2,1.1c-0.8,0.1-1.5,0.1-2.1,0.1c-1.1,0.3-2.7-0.8-3.2,1.1
		c-4.9,0.5-9.8-0.5-14.6-1.3c-0.2-0.1-0.4-0.3-0.6-0.4c-0.4-0.1-0.8-0.1-1.3-0.2c-0.4-0.1-0.8-0.3-1.1-0.4c-0.6-0.1-1.3-0.1-2-0.1
		c-0.2-0.2-0.4-0.3-0.5-0.5l-0.1-0.1c-0.2-0.2-0.4-0.3-0.6-0.5c-1.8-0.8-3.7-1.5-5.8-1.6c-0.2-0.1-0.4-0.2-0.6-0.3
		c-2.1,0.2-4.3-0.4-6.3,0.6c-0.6,0.3-1,0.6-1.3,1.3c-0.3,0.6-0.5,1.3-0.8,2c-0.6,0.6-0.6,1.2,0,1.8c0.1,1.6,0.8,2.9,1.9,4.2
		c2.9,3.4,6.6,5.4,10.9,6.1c0.2,0.3,0.4,0.3,0.6,0.1c0.4,0.1,0.9,0.1,1.4,0.1c0.2,0.1,0.4,0.2,0.6,0.3c5.1,0.2,10.2,0,15.1-1.3
		c0.4-0.2,0.8-0.3,1.2-0.5c1.5-0.4,2.8-1,4.4-0.8c0.5,0.1,1,0,1.3-0.5c3.3-0.9,6.5-1.9,9.9-2.1c0.6,0.1,1.1,0.1,1.5-0.4
		c1.1,0,2.2,0,3.2,0c1.8,1.1,3.8,0.3,5.6,0.5c0.6,0.1,1.3,0.1,2,0.1c0.5,0.6,1.2,0.5,1.8,0.5c5.8,1,11.1,3.5,15.3,7.5
		c5.2,5,11.2,7.6,18.3,7.8c0.3,0.1,0.4,0.3,0.7,0.4c1,0.3,2,0.5,3,0.7c-0.9,0.9-2.2,0.6-3.3,0.6c-7.1,0.1-14.2,0-21.4,0.1
		c-4.3-5.2-9.4-9.5-15.7-12.1c-0.4-0.2-0.8-0.3-1.3-0.5c-0.4-0.1-0.8-0.1-1.2-0.3c-0.9-0.3-1.8-0.5-2.7-0.8
		c-0.3-0.1-0.5-0.2-0.8-0.3c-0.9,0-2,0-2.9,0c-0.4,0-0.8-0.1-1.3-0.1v-0.3c-0.6-0.6-1.4-0.4-2.2-0.3c-1.8,0.4-3.7-0.4-5.4,0.6
		c-0.3,0.1-0.4,0.1-0.7,0.1c-2.3,0.5-4.5,1-6.5,2.3c-0.2,0-0.4,0.1-0.6,0.1c-0.3,0.2-0.5,0.3-0.8,0.5c-0.2,0-0.3,0-0.5,0.1
		c-0.3,0.2-0.6,0.3-0.8,0.5c-0.2,0-0.3,0.1-0.4,0.2c-0.3,0.2-0.5,0.3-0.8,0.5c-0.2,0-0.4,0.1-0.6,0.3c-0.2,0.1-0.4,0.3-0.6,0.4l0,0
		c-0.3,0.2-0.4,0.4-0.7,0.6v-0.1c-0.4,0.3-0.8,0.4-1.2,0.7l0,0c-0.3,0.2-0.4,0.4-0.7,0.6l0,0c-0.3,0.2-0.6,0.4-0.9,0.6
		c-3,1.5-4.5,4.7-7.3,6.5c-1.1-0.2-2.4,0.4-3.2-0.8c2.1-1.9,2.2-3.2-0.5-4.9c-4-2.6-7.7-5.9-11.6-8.7c-3.4-2.4-5.1-5.7-5.4-9.7
		c0.6-0.1,1.2-0.3,1.1-1.1c-0.1-0.6-0.6-0.7-1.1-0.8c1.6-6,5.4-8.2,11.1-6.3c1.4,0.4,2.7,0.9,4.1,1.5c-0.1,0.9,0.1,1.6,1.2,1.6
		c1.1,0.1,1.8-0.2,1.8-1.4c5.4-1.5,9.4-5,12.8-9.3C312.3,394.9,311.4,391.5,313.2,392.2z M305.1,426c-2-1.5-3.6-0.8-5.4,0.2
		C301.7,429.2,303.3,427.4,305.1,426z M310.4,398.7c-0.4-0.1-0.6-0.2-0.9-0.2c-0.2,0-0.5,0.2-0.5,0.2c0.1,0.5,0.6,0.4,0.9,0.3
		C310,399.1,310.1,398.9,310.4,398.7z"/>
	<path d="M355.1,488.3c-0.7,1.2,1.8,2.4,0,3.5s-3-0.4-4.2-1.2c-1.6-1.1-3-2.2-4.1-4.2c-0.9,0.8-1.2,1.8-2.2,2.2
		c-2.4,0.9-2.9,2.5-1.1,4.6c0.7,0.8,0.9,1.6,0.8,2.6c-0.1,0.8-0.1,1.8-1.3,1.9c-0.8,0.1-1.3-0.4-1.7-1.1c-2.7-4.3-2.7-4.6-7.4-3.2
		c-4.6,1.3-8.5,3.8-10.8,8.2c-1.3,0-2.6,0.4-3.9-0.3c2,0.2,2.8-1,3-2.8c0.1-0.3,0.3-0.4,0.4-0.7c0.1-0.2,0.2-0.3,0.2-0.6
		c0.2-0.3,0.3-0.5,0.5-0.8c0.1-0.1,0.2-0.3,0.1-0.4c0.2-0.3,0.4-0.6,0.6-0.9l0,0c0.2-0.2,0.4-0.4,0.6-0.6l0.1-0.1
		c0.3-0.4,0.5-0.8,0.8-1.2c1-0.9,2-1.8,3-2.7c3-1,5.9-1.8,9-0.3c1.1,0.6,1.5-0.1,1.8-0.9l0,0c0.5-0.3,0.6-0.8,0.6-1.3
		c0.7-2.2,2.2-3.1,4.4-3c0.4,0,1.1,0.6,1.3-0.2c0.8-3.3,2.8-1.1,4.4-1l0,0c0.1,1.1,0.7,1.8,1.9,1.6l0,0c-0.1,1.3,0.8,1.8,1.9,1.9
		l0,0C354.1,488.4,354.3,489,355.1,488.3L355.1,488.3z"/>
	<path d="M416.3,356.9c0.1-0.1,0.1-0.3,0.1-0.3c7-0.3,13.9-2.1,20.8,0.4c2.8,1,4.4,3.1,5.8,5.6c8.1,14.4,13,29.8,13.3,46.5
		c0.2,9.2-1.7,12.1-10.4,15.3c-20.4,7.5-40.6,6.6-60.6-1.5c-5.3-2.2-9.9-5.5-14.4-9c-2.3-1.8-2-4-1.7-6.3c2-15.1,6.3-29.5,11.7-43.8
		c0.8-2.2,2.5-3.7,4.2-5.1c6.1-4.6,12.7-6.9,20.3-3.4c-3.6,0.7-7.3,1.3-10.8,2.2c-4.8,1.2-8,3.9-9.9,8.9c-3.5,9.2-6.6,18.4-9.6,27.7
		c-1.1,3.4-1.4,7-2.1,10.4c-0.8,4.1,1.2,6.7,4.3,9c8.7,6.3,18.6,9.2,29,10.7c13.5,2,26.6,0.4,39.4-4.2c0.5-0.2,1-0.3,1.5-0.6
		c5.9-2.5,6.2-3.5,5.7-9.9c-0.9-12.1-4.6-23.5-9-34.7c-1.8-4.4-4.4-8.4-6.5-12.7c-0.6-1.2-1.6-1.8-3-2c-5.1-0.7-10.2-1.6-15.2-2.4
		C418.1,357.9,417,358.1,416.3,356.9z"/>
	<path d="M620.1,356.2c-0.8-0.3-1.9-0.8-3-1.2c-2.5-1.1-5.1-1.3-7.6,0.1c-0.6,0.3-1.2,0.6-1.7,0s-0.2-1.1,0.2-1.7
		c2.6-3.6,12-5.4,15.7-3.1c1.1,0.6,1.6,1.3,1.2,2.5C624.3,355,622.6,355.9,620.1,356.2z"/>
	<path d="M663.2,337.3c1.8,0.4,3.7,1,3.7,3.4c0,0.8-0.3,1.7-1.3,1.1c-1.7-0.9-4.4-0.6-4.9-3.2C660.6,337.4,662.1,337.3,663.2,337.3z
		"/>
	<path d="M296.9,433.2c0.9,1.1,2.2,0.6,3.2,0.8c-5.2,6.1-10.4,12.4-14.4,19.5c-3,5.3-5.1,11-7.8,16.5c-0.6,0-1.3,0-1.9,0
		c2.6-10.9,7.9-20.5,14.5-29.4C292.6,438,294.3,435.3,296.9,433.2z"/>
	<path d="M505.7,400.1c-11.1,2.9-22.1,6-31.8,13.6C475.5,406.5,492.9,399.3,505.7,400.1z"/>
	<path d="M313.2,392.2c-1.8-0.7-0.9,2.7-2.8,1.9c-0.1-2-0.3-4.1,0.9-5.9c0.3,0.7,0.7,1.2,1.4,1.5
		C313.5,390.4,313.3,391.3,313.2,392.2z"/>
	<path d="M312.8,389.6c-0.7-0.3-1.1-0.8-1.4-1.5c0.4-0.9-0.3-2.7,1.8-2.2c-0.1,0.8-0.3,1.6-0.4,2.4
		C312.8,388.8,312.8,389.3,312.8,389.6z"/>
	<path d="M312.8,388.4c0.1-0.8,0.3-1.6,0.4-2.4h0.1C313.3,386.9,313.4,387.7,312.8,388.4z"/>
	<path d="M320.4,400.4c-0.4,0-0.8,0-1.3,0c0.1-1.8-1.8-1.6-2.5-2.5c5.2,0.2,10.5-0.4,15.7,0.3c-3.1,1.7-6.5,0.9-9.8,0.9
		C321.3,399,320.5,398.9,320.4,400.4z"/>
	<path d="M333,400.9c-1.6-0.1-3.4,0.5-5-0.5C329.6,400.6,331.3,399.9,333,400.9z"/>
	<path d="M334.9,398.6c1.5,0.1,3-0.4,4.3,0.5C337.8,398.9,336.3,399.6,334.9,398.6z"/>
	<path d="M335.5,401c-0.4,0-0.8-0.1-1.2-0.1C334.7,400.4,335.1,400.4,335.5,401z"/>
	<path d="M339.9,401.6c-0.4-0.1-0.9-0.3-1.4-0.4C339.1,401.1,339.6,401.1,339.9,401.6z"/>
	<path d="M341.3,399.3c0.3,0.1,0.5,0.3,0.8,0.4C341.8,399.6,341.5,399.4,341.3,399.3z"/>
	<path d="M310.4,398.7c-0.3,0.2-0.4,0.4-0.5,0.4c-0.3,0-0.8,0.2-0.9-0.3c0,0,0.3-0.2,0.5-0.2C309.8,398.6,310,398.7,310.4,398.7z"/>
	<path d="M307.7,406.9c0.7-0.1,1.3-0.1,1.9,0.5C308.9,407.4,308.2,407.5,307.7,406.9z"/>
	<path d="M305.3,406.5c0.2,0.1,0.4,0.2,0.6,0.3C305.7,406.7,305.5,406.5,305.3,406.5z"/>
	<path d="M303.9,405.5c-0.1,0.2-0.1,0.4-0.1,0.6c-0.1-0.1-0.1-0.3-0.1-0.4C303.6,405.6,303.8,405.5,303.9,405.5z"/>
	<path d="M312,399.2c-0.1,0.1-0.3,0.3-0.4,0.4C311.7,399.4,311.8,399.3,312,399.2z"/>
	<path d="M314.6,399.8c-0.2-0.2-0.4-0.4-0.6-0.6C314.3,399.4,314.4,399.6,314.6,399.8z"/>
	<path d="M314,399.1c-0.2-0.2-0.3-0.4-0.5-0.6C313.7,398.7,313.9,398.9,314,399.1z"/>
</g>
<g>
	<path style="fill:#070707;" d="M131.1,152.5c12.3,3.2,19.2,12.4,26.1,22.1c9,12.7,12.5,27.2,14.9,42.1c1.8,11.1,3.4,22.1,4.9,33.3
		c1.2,9.4-1.5,18.3-4.9,26.9c-1.6,4-3.7,8-5.6,12c-1.2,2.5-2.8,4.7-2.2,7.9c0.5,2.7-2.2,5.8-3.9,5.6c-2.8-0.3-5.5-3.9-5.1-7
		c0.3-2.9,1.3-5.7,2.6-8.3c1.5-3,2.9-6,4.7-8.9c4.2-7,6.1-14.5,6.5-22.6c0.6-12.8,2-25.6,0.6-38.5c-2-19-7.8-36.2-21.8-49.9
		c-5-4.9-10.9-8.4-18.2-9c-4.7-0.4-8.9,0.6-12.8,3.2c-1.5,0.9-3,1.8-4.6,2.7c-0.4,0.3-1,0.9-1.6,0.2c-0.6-0.6-0.1-1.3,0.3-1.7
		c2.7-4.4,6.2-8,11.4-9.2c0.4-0.1,1.1,0.1,1.2-0.6C126,152.5,128.6,152.5,131.1,152.5z"/>
	<path style="fill:#080808;" d="M-58,428.3c3.9-6.8,10.1-9.4,16.7-7c4.1,1.5,6.5,4.5,6.8,8.9c0.1,0.8,0.8,2.3-0.4,2.4
		c-1,0.1-2.5-0.1-3-1.7c-0.1-0.4-0.4-0.8-0.5-1.1c-1.5-3.4-3.8-5.8-7.5-5.8s-6.5,2-8.3,5.2c-1.3,2.2-1.6,4.7-1.9,7.2
		c-1.1-0.8-0.5-2.5-1.8-3.1C-58,431.6-58,430-58,428.3z"/>
	<path style="fill:#141414;" d="M267.7,353c-1.6,4.1-2.2,8.6-4.4,12.5c-3.7,6.5-8.8,10.6-16.7,10.1c12.9-2.8,17.4-12.5,19.7-24
		c0.1-0.7-0.2-1.5,0.6-2c0.4-0.3,0.5,0,0.8,0.2C267.7,350.9,267.7,351.9,267.7,353z"/>
	<path style="fill:#C2C2C2;" d="M153.7,556.1c2.2,0.4,4.7-1.3,6.5,1.2c-2.5,0-5.1,0-7.6,0c0.1-0.2,0.1-0.4,0-0.6
		C153,556.5,153.3,556.3,153.7,556.1z"/>
	<path style="fill:#060606;" d="M128.8,342.4c-2.5,3.8-5.8,6.2-9.7,8c-6.8,3.1-14.1,3.7-21.3,5.1c-5.4,1-10-1.4-15-2.3
		c-19.7-3.6-38.8-2.5-56.8,7.1c-2.3,1.3-5.1,1.8-7.5,3.1c-6,3.2-9.8,8.4-13.3,14C1,384.5-2.2,392.1-8,398
		c-4.2,4.2-7.9,8.7-11.1,13.7c-7.8,12.4-12.3,26-14.4,40.5c-1.1,7.7-1.3,15.5-1.1,23.6c-2.8-1.8-3.1-4.6-3.2-7.2
		c-0.2-6.5,1.5-12.7,3.2-18.8c2.1-7.7,2.5-15.7,4.1-23.5c3.3-15.6,11.4-28.7,21.3-40.8c6.1-7.4,12-15,19.5-21
		c10.5-8.3,22.8-12.4,35.9-14.7c10-1.7,20.1-1.5,30.2-2.2c11.6-0.9,23.1,1.6,34.7,1.1c6-0.3,11.6-1.7,16.2-5.8
		c0.3-0.2,0.5-0.4,0.8-0.5C128.1,342.2,128.3,342.4,128.8,342.4z"/>
	<path style="fill:#090909;" d="M153.7,556.1c-0.4,0.2-0.8,0.4-1.1,0.6c-5.4-0.1-10.7-0.4-16-1.1c-2.5-0.3-4-1.6-5.4-3.2
		c-4.7-5.4-6.3-12.2-7.6-19c-1.3-6.5-1.7-13.4-5.4-18.8c-4.4-6.5-7-13.7-10.6-20.4c-3-5.6-6.7-10.9-9.7-16.5
		c-4.2-7.8-5.8-15.9-0.6-24.1c1.3-2,2.9-3.9,4.4-5.8c4.1-5.1,8.2-10.3,11.3-16.2c1,0.8,0.5,1.5,0.1,2.2c-2,3.7-3.5,7.7-5.9,11.1
		c-8,11.8-8,23.8-2.3,36.6c5.1,11.5,11.3,22.4,16.6,33.8c4,8.6,7,17.4,7.9,26.9c0.6,5.4,4.1,8.7,8.9,10.9
		C143.1,555.1,148.3,556,153.7,556.1z"/>
	<path style="fill:#0B0B0B;" d="M155.3,520.5c-5.2-8.3-4.6-16.4-2-24.5c2.8-9.1,7.1-17.8,16.1-21.9c10.7-4.9,17.5-13.4,24.3-22.2
		c6.8-8.8,12.2-18.4,15.2-29.3c3.5-12.5,9-24.1,15.6-35.3c-0.6,3.5-2.1,6.7-3.5,9.9c-4.3,9.8-10.1,19.2-11.9,29.9
		c-1.3,7.7-3.9,14.7-7.8,21.3c-6.9,11.6-16.4,20.4-28.4,26.4c-5.2,2.6-8.3,7.3-11.4,12c-5.4,7.9-9,16.5-7.7,26.4
		C154.1,515.4,154.7,517.5,155.3,520.5z"/>
	<path style="fill:#080808;" d="M-35.3,490.4c1.3,3.8,0.4,7.5-0.8,11c-1.8,4.9-4.9,9-7.7,13.3c-1.6,2.6-3.2,5.2-4.3,8
		c-3.1,7.6-0.1,14.2,7.8,16.8c5.4,1.8,10.9,1.3,16.4-0.3c4.6-1.3,8.8-3.4,12.3-6.6c1.5-1.4,2.3-2.8,1.1-5c-0.9-1.7-1.9-4.4-0.3-5.6
		c2.1-1.5,4,0.8,5.6,2.2c0.7,0.6,1.3,1.3,2,2.1c3.4,4.4,2.8,6.8-2.1,9.1c-12.8,5.9-25.9,8-39.7,4.1c-7.5-2.2-8.2-6.5-7.7-13.5
		c0.3-4.4,2.7-8.1,5.1-11.6c2-2.8,4-5.7,5.9-8.5C-38.5,501.2-35.8,496.3-35.3,490.4z"/>
	<path style="fill:#030303;" d="M202.5,323.3c-3.8-0.2-6.9-0.7-9.7-2c-5.4-2.5-7.7-7.7-5.9-13.3c0.6-1.9,6.7-4.4,9.6-4.1
		c8.7,0.9,12.3,10.5,11.8,16.8c-0.1,1.1-0.9,1.7-1.8,2C205,323,203.4,323.5,202.5,323.3z"/>
	<path style="fill:#0F0F0F;" d="M106.3,169.9c-0.9,6.8-1.8,13.5-2,20.4c-0.8,25.7,4.7,49.7,21.4,70c6.1,7.5,12.9,14.4,17.5,23
		c1.9,3.6,4,7.1,4.7,11.3c0.3,1.5,0.4,3.2-1.1,3.9c-1.5,0.8-2.5-0.6-3.4-1.6c-2.3-2.7-3.5-5.9-2-9.3c0.9-2.1,0.4-3.5-0.5-5.2
		c-3-5.2-6.8-9.9-11.1-14.1c-10.1-9.6-16-21.6-20.3-34.5c-4.6-13.9-7.9-28-7.4-42.8C102.2,183.6,103.6,176.6,106.3,169.9z"/>
	<path style="fill:#0A0A0A;" d="M7.2,494.8c11.3-1.3,22.5-1.5,33,4.2c5.2,2.8,10.8,1.9,16.3,0.9c7.7-1.4,15.1-4.2,22.6-6.1
		c8-2,15.7-0.9,23.2,2.1c-4.7-0.2-9.4-0.4-14-0.6c-3.5-0.1-6.8,0.5-10.1,1.8c-13.4,5.1-27.3,5.9-41.5,4
		C26.7,499.9,16.9,497.5,7.2,494.8z"/>
	<path style="fill:#0C0C0C;" d="M18.6,434.9c0.4,13,0.7,26.1-3.2,38.7c-2.2,7.1-6,13.5-11,18.8c-11.7,12.5-31.1,6.1-36.5-6.1
		c2.7,2.2,5.1,4.2,7.7,6.1c2.8,2,5.9,3.7,9.3,4.4c4.3,0.9,8.1,0.2,11.8-2.6c12.3-9,17.1-22.1,19.3-36.4
		C17,450.3,17.7,442.6,18.6,434.9z"/>
	<path style="fill:#080808;" d="M55.4,506c2.2,2.2,4.8,4.2,6.6,6.7c6.1,8.7,14.6,10.1,24.2,8.9c7.4-0.9,14.7-2.7,22.2-0.9
		c2.8,0.7,5.8,1.1,8.5,3.2c-1.7,0.9-3.2,1.2-4.7,1.2c-5.2-0.1-10.2,0.9-15.4,1.1c-13.2,0.3-26.1-1.2-36.1-11.1
		C58.2,512.5,56.3,509.7,55.4,506z"/>
	<path style="fill:#0E0E0E;" d="M235.7,161.4c-7,4-12.8,8.7-17.1,15.2c-0.8,1.3-2,2.1-3.2,3c-13.7,10.5-24.3,23.3-30,39.8
		c-1.1,3.2-2.6,6.3-4,9.5c-0.1,0.1-0.4,0.1-0.8,0.2c1.9-13.4,6.9-25.6,16.1-35.2c10-10.5,20.9-20.1,31.5-30
		C230.1,162.1,232.4,160.7,235.7,161.4z"/>
	<path style="fill:#0D0D0D;" d="M117.3,187.6c2,11.2,3.8,22.5,6.1,33.6c0.6,3.2,0.3,6.5,1.1,9.7c1.7,7,6.1,12.3,11.1,17.2
		c5.1,4.9,10.7,9.2,15.4,14.5c2.3,2.5,4.7,5,5.9,9.3c-7-6.3-12.8-12.5-19.5-17.6c-7.7-6-11.1-14.2-14-22.9
		C118.8,217.1,118.1,202.3,117.3,187.6z"/>
	<path style="fill:#0E0E0E;" d="M212.7,266.9c-2.1-0.4-3.5-1.3-3.9-3.8c-1.8-10-0.4-19.9,1.3-29.7c2.3-12.7,4.4-25.5,8.2-38
		c1.8-6,4.6-11.6,9-16.3c-1.9,4.6-4,9.2-5.7,13.9c-4.8,13.4-7.9,27.2-9.7,41.4c-1,7.9-1.5,15.9-2.3,23.8
		C209.4,261.6,211.1,264.2,212.7,266.9L212.7,266.9z"/>
	<path style="fill:#080808;" d="M177.2,520.7c-3.2-3.5-6.5-6.8-9.3-10.6c-2.5-3.4-1.5-7.5-1.1-11.3c0.6-6.5,2.5-12.7,4.6-18.8
		c0.1,13.8,0,27.6,6.3,40.4C177.5,520.4,177.3,520.5,177.2,520.7z"/>
	<path style="fill:#0B0B0B;" d="M153.2,362.3c5.5,0.9,10.1,4.3,14.6,8c3.4,2.9,6.1,6.6,10.1,9c8.6,5.2,17.9,6.7,27.8,5.6
		c5.5-0.6,10.8-2,16.2-3.3c-3.2,2.2-7,3-10.7,3.9c-10.9,2.7-21.6,1.8-31.8-2.8c-5.6-2.6-9.8-7.1-14.3-11.3
		C161.3,367.8,157.1,364.8,153.2,362.3z"/>
	<path style="fill:#111111;" d="M171.2,203.8c3.2,4.3,5.2,9,6.1,14.3c2.2,12.3,2.6,24.8,5.8,36.9c1.1,4.5,2.4,9,5.2,12.8
		c-2.5,0.3-2.5,0.3-3.5-2.2c-3.1-7.7-4.5-15.6-5.7-23.7c-1.6-10.8-2.6-21.6-5.7-32.1C172.8,207.8,171.9,205.9,171.2,203.8z"/>
	<path style="fill:#0E0E0E;" d="M236,279.5c11.8,4,20.9,21.1,21,39.3C252,304.3,249,289.6,236,279.5z"/>
	<path style="fill:#111111;" d="M253.7,358.7c0.4,3.1-0.8,5-2,6.7c-6.1,8.8-14.4,13.6-25.4,12.9c-6.4-0.4-11.3-4.6-12.7-10.8
		c-0.6-2.7-0.8-5.6-1.1-8.4c1.4-0.1,1.3,0.8,1.5,1.4c0.4,1.8,0.8,3.7,1.3,5.5c2,7.8,9,12.3,17.1,10.6
		C242.7,374.6,247.8,370.3,253.7,358.7z"/>
	<path style="fill:#0C0C0C;" d="M143.6,306.5c-0.5,7.4-3.2,14.3-5.4,21.3c-2.3,7.1-3.9,14.2-3.2,21.8
		C131.6,339.4,133.5,329.6,143.6,306.5z"/>
	<path style="fill:#080808;" d="M257.9,346.9c0.4-2.7,0.1-4.9,1.1-6.9c0.4-0.7,0.7-1.8,1.7-1.6c1.1,0.2,0.9,1.3,0.8,2.1
		c-0.5,4-2.7,7.4-4.2,11c-0.7,1.8-2.3,0.9-3.3-0.3c-2.6-3.1-3.7-7-5.1-10.6c-0.3-0.9,0.3-1.2,0.8-1.4c1-0.3,2-0.5,3,0.3
		c1.1,1,1.6,2.4,2.3,3.7C255.6,344.6,256.1,346,257.9,346.9z"/>
	<path style="fill:#0D0D0D;" d="M159.7,526.8c4.8,5.8,9.6,11.6,12.1,18.9c1.1,3.2,1.1,6.4-0.9,9.3c-0.3,0.4-0.7,1.1-1.7,0.8
		c2.5-11.5-4.9-19.7-10.1-28.6C159.2,527.1,159.4,527,159.7,526.8z"/>
	<path style="fill:#0B0B0B;" d="M181.9,527.8c2.3,1.8,3.7,3.5,4.9,5.4c2.4,3.8,1.4,6.6-2.8,8.1c-2.8,1-5.8,1.3-8.7,0.8
		c-0.9-0.1-2.7,0.1-2.6-1.5c0.1-1.1,1.6-1.1,2.7-1.1c1.1-0.1,2.3-0.1,3.4-0.3c4.7-0.8,6.1-3,4.6-7.5
		C183.1,530.5,182.6,529.5,181.9,527.8z"/>
	<path style="fill:#0A0A0A;" d="M-53.3,442.8c4.6,3.2,11.1,3.5,13.5,9.6c0.3,0.8,1.2,1.6,0.5,2.3c-0.8,0.8-1.7,0.1-2.5-0.4
		C-46.7,451.5-50.4,447.6-53.3,442.8z"/>
	<path style="fill:#080808;" d="M236.8,161.7c4.1,4.2,2.2,11.5-3,12.9c-0.9,0.3-2,0.6-2.6-0.3c-0.5-0.8-0.3-1.8,0.3-2.7
		c1.1-1.6,2.2-3.2,3.4-4.9C235.8,165.4,236.8,163.9,236.8,161.7z"/>
	<path style="fill:#0E0E0E;" d="M233.7,330.8c-7.8,6.8-14.6,13.8-18.2,23.7C215,346.1,225.4,332.4,233.7,330.8z"/>
	<path style="fill:#0D0D0D;" d="M90.7,505.9c2.2,4.6,6.4,7.1,9.9,10.4C92.4,514.8,90.5,514,90.7,505.9z"/>
	<path style="fill:#111111;" d="M-10.5,507.1c0.9-2,2-3.9,2.9-5.8c0.3-0.6,0.3-1.7,1.3-1.2c0.6,0.3,1.2,1.2,0.8,1.9
		C-6.8,503.9-7.9,506.2-10.5,507.1z"/>
	<path style="fill:#141414;" d="M261.9,328.1c-2.7-1.3-3-4.2-3.9-6.6C260,323.1,260.9,325.6,261.9,328.1z"/>
	<path style="fill:#141414;" d="M226.9,273.5c2.7,1.4,5.4,2.6,7.7,4.7c-2.9-0.9-5.6-2.4-8-4.2C226.7,273.8,226.8,273.6,226.9,273.5z
		"/>
	<path style="fill:#141414;" d="M226.5,274c-0.4-0.1-0.8-0.2-1.1-0.3c0.4-0.8,0.9-0.3,1.5-0.3C226.8,273.6,226.7,273.8,226.5,274z"
		/>
	<path style="fill:#0D0D0D;" d="M159,527.2c-0.3-0.3-0.8-0.5-0.5-0.8c0.4-0.4,0.9-0.2,1.1,0.4C159.4,527,159.2,527.1,159,527.2z"/>
	<path style="fill:#0E0E0E;" d="M212.7,267c0.1,0.1,0.3,0.3,0.4,0.4c-0.1,0-0.2,0.1-0.3,0.1c-0.3-0.1-0.3-0.4-0.1-0.6
		C212.7,266.9,212.7,267,212.7,267z"/>
	<path style="fill:#080808;" d="M177.7,520.3c0,0.3,0.1,0.7,0.1,0.8c-0.3,0.3-0.4-0.1-0.5-0.4C177.3,520.5,177.5,520.4,177.7,520.3z
		"/>
</g>
</svg>
