<?xml version="1.0" encoding="utf-8"?>
<!-- Generator: Adobe Illustrator 22.1.0, SVG Export Plug-In . SVG Version: 6.00 Build 0)  -->
<svg version="1.1" id="Layer_1" xmlns="http://www.w3.org/2000/svg" xmlns:xlink="http://www.w3.org/1999/xlink" x="0px" y="0px"
	 viewBox="0 0 148.2 145" style="enable-background:new 0 0 148.2 145;" xml:space="preserve">
<g transform="translate(-258.82 -344.62)">
	<path style="fill:none;stroke:#000000;stroke-width:2;stroke-miterlimit:10;" d="M379.9,344.6c-1.4,1.2-4,0.8-4.3,3.2
		c-2.2,4.3-5.3,8.2-6.3,13c-1.2,1.7,0.2,4.1-0.8,5.9c-2.8,1.9-5.4,3.7-7.1,6.7c-2.1,3.2-5.1,6-6.7,9.3c-1.4,3.5-3.2,6.6-4.2,10.3
		c-1.2,3.2-2.2,6.5-5.1,8.6c-3.3,3.6-7.8,5.6-12.5,6.7c-6,0.3-12.2,0.1-18.3-0.3c-5.3-2.1-10.7-4-16.1-5.8c-3-0.5-6.8,0.4-9.5,0.7
		c-3.3,0.9-6.8,1.3-9.3,3.7c-4.2,2.2-6.4,6.5-9.6,10.1c-1.2,2.4-1.8,6.4-2.8,9.4c-0.2,2.7-1.9,4.5-4,6.1c-2.2,1.4-2.9,3.5-3.7,5.8
		c-0.2,4.3-1.1,8.9-0.5,13c0.7,2.6,1,5.7,2.7,7.8c1.6,0.4,2.3-2.1,3.7-2.6c3.3-3.1,5.4-7.5,7.2-11.6c0.9-2.8,1.8-5.9,1.5-8.6
		c-1-3-3.8-5.8-2.2-9c0.9-3,0.9-6.4,2.4-9.2c2.6-2.7,5.5-6.6,8.6-7.8c-1.4,2.3-3.2,5.1-4.3,7c1.6,2.5-0.7,5.8,0.9,8.1
		c2.6,5.1,3.9,10.5,6,15.7c0.1,3.5,0.9,6.9,1.3,10.3c-0.3,1.9-1.6,4.5-1.6,6c1.5,3.6,2.3,7.4,2.1,11.3c-0.1,5.4,1,10.8,1.8,16
		c3.2-0.1,0.6,6.1,4.2,5.3H308c1.3-1.3-1.9-3.3-2.2-4.9c-1-2.5-4.2-3.6-5.3-5.9c0.4-2.4-1.9-4.6-2.8-6.8c-1.6-2-2.9-4.1-2.5-6.8
		c-0.9-3.9,2.7-7.2,1.5-11c-1.2-3,2.5-3.8,4.1-5.5c1.5-0.9,3.2-2.7,4.3-4.1c1.5-1.4,2.1-6.6,4.5-4.5c2.4,1.5,4.2,2.8,6.5,4.3
		c-3.3-2.4-2.9-1.8-0.5,0.3c4.4,1,9.3,2.6,13.8,2.8c5.2-0.1,10.2-1,15.2-2.2c1.2,2.1,4,4.3,2.5,7c-0.2,2.6-2.1,5.2-0.6,7.5
		c2.3,5,1.4,10.9,1.2,16.1c0.8,3.1,1.5,6.6,2.2,9.5c2.2-0.8,1.7,2,1.9,3.2c1.5,1.6,4.4,0.3,6.5,0.7h8.4c1.7-1.1-0.9-3.4-0.9-5.1
		c-0.2-2.1-3-2.3-4.4-3.7c-0.6-1.1,0.2-2.9-1.1-4.3c-0.5-2.4-1.7-4-3.5-5.7c-1.6-1.8-0.8-4.8-1-7.1c0.8-2.9,2.4-5.4,1.6-8.5
		c-0.1-2.6-0.8-5.4,1.1-7.6c1.3-3.1,3.9-5.4,3.7-8.8c0.4-2.5,0.2-5.4,2-7.3c1-2.6,3.4-4.5,2.8-7.2c-0.6-7.5,1.7-14.8,2.7-22
		c-0.6-2.8,1.6-2,3.4-1.9c3.6,0.2,7.1-1.6,10.8-0.6c4.2,0.4,8.1,2.9,11.6,4.3c3.5-0.2,7-0.6,10.2-1.3c0.3-2.7-2.6-2.3-4.1-3.9
		c-1.6-1.3-3.7-2.2-5-3.5c3,1.1,5.9,3.2,8.3,4.7c3.2-0.2,1.2-3,1.2-5.1c-0.3-2.6-0.7-5.8-1.3-8.1c-2.1-1.7-3-4.5-5.8-4.9
		c-3.6-2.4-8.3,0.3-12-2.2c-1.7-1.8-1.2-4.4-3.5-5.8c-2.4-2.2-4.1-5.1-7.3-5.9c2-2.8,2.8-6.4,4.1-9.4c0.6-3.8,0.9-7.8,1.4-11.4
		C382.2,345.5,380.5,345.3,379.9,344.6L379.9,344.6z M386,377.4C386.3,378.1,386,377.7,386,377.4z M289.8,402.9
		c-1.7,1.2-5.3,3.6-1.4,1C288.8,403.6,289.3,403.2,289.8,402.9z"/>
</g>
</svg>
