<?xml version="1.0" encoding="utf-8"?>
<!-- Generator: Adobe Illustrator 22.1.0, SVG Export Plug-In . SVG Version: 6.00 Build 0)  -->
<svg version="1.1" id="Layer_1" xmlns="http://www.w3.org/2000/svg" xmlns:xlink="http://www.w3.org/1999/xlink" x="0px" y="0px"
	 viewBox="0 0 512 512" style="enable-background:new 0 0 512 512;" xml:space="preserve">
<path d="M276.1,250.9c0.5-0.5,1-0.2,1.5,0c3.7,0.9,7.4,1.9,11.1,3.2c6.4,2.3,12.9,4.5,19.3,6.9c4,1.5,7.8,3.4,11.6,5.4
	c0.6,0.3,1.2,0.7,1.8,1c0.9,0.4,1.3,0.3,1.5-0.7c0.5-2.8,1.3-5.5,2.3-8.1c0.2-0.5,0.3-1,0.4-1.5c0.2-1.1,0.1-1.4-0.9-1.7
	c-3.6-1.2-7.1-2.4-10.7-3.6c-0.9-0.3-1.8-0.5-2.7-0.9c-3.5-1.5-7.2-2.2-10.9-2.7c-6-0.9-12-1.7-18-2.7c-2.8-0.5-5.6-0.8-8.2-2
	c-0.7-0.3-1.2,0.2-1.7,0c-0.1,0-0.3-0.2-0.3-0.3c0-0.2,0.1-0.3,0.3-0.3c1.3,0.1,2.5,0.2,3.8,0.3c4.2,0.2,8.4,0.3,12.5,0.6
	c7.3,0.5,14.3,2,21.3,4.2c4.6,1.5,9.3,2.8,14,4.2c2.3,0.7,2.4,0.6,2.8-1.8c0.8-5,1.7-9.9,2.5-14.9c0.3-1.7,0.4-3.4,0.4-5.1
	c-0.2-4.2-0.1-8.4-0.6-12.5c-0.2-1.4-0.3-2.9,0.2-4.3c0.1-0.2,0.2-0.5,0.5-0.4c0.1,0,0.3,0.2,0.4,0.3c0.2,0.4,0.4,0.8,0.6,1.1
	c0.5,1.1,0.9,2.2,1.4,3.3c3.6,7.9,4.5,16.2,3.7,24.8c-0.1,1.2-0.2,2.4-0.3,3.6c-0.2,2.6-0.5,5.1-1.1,7.6c-0.4,1.9-0.2,2.4,1.4,3.4
	c6.3,3.8,12.4,7.8,18.4,12.1c2.9,2,5.6,4.2,8.2,6.5c1.3,1.1,2.5,2.4,3.7,3.6c0.3,0.3,0.5,0.7,0.7,1.1c0.1,0.2,0.1,0.5-0.1,0.7
	c-0.1,0.1-0.3,0-0.4-0.1c-1-1.5-2.6-2.2-3.9-3.3c-1.9-1.7-4.1-3.1-6.2-4.5c-4.5-3-9.1-6.1-13.7-8.9c-3.1-1.9-6.1-3.7-9.2-5.5
	c-0.4-0.2-0.9-0.1-1,0.3c-0.1,0.5-0.2,1-0.4,1.5c-0.7,3.3-1.6,6.6-2.8,9.8c-0.1,0.4-0.3,0.8-0.4,1.2c-0.4,1.5-0.3,1.9,1,2.8
	c0.9,0.6,1.8,1.2,2.8,1.8c4.7,3,9,6.5,13.1,10.2c4.2,3.9,8.1,8,11.9,12.4c1.6,1.9,2.8,4.1,4.2,6.1c0.3,0.4,0.5,0.9,0.6,1.4
	c0.1,0.2,0.1,0.5,0,0.7c-0.2,0.2-0.4,0-0.6-0.1c-0.7-0.5-1.3-1.1-1.8-1.8c-2-2.4-4.1-4.8-6.1-7.3c-2.7-3.2-5.7-6.1-8.9-8.8
	c-5.5-4.7-11.4-8.9-17.3-13.2c-0.2-0.1-0.4-0.2-0.7-0.4c-0.5,0.3-0.6,0.8-0.8,1.3c-2,4.9-4.7,9.3-7.5,13.7c-0.3,0.4-0.6,0.8-1,1.2
	c-1.6,1.8-3.2,3.5-4.7,5.4c-3.5,4.3-7.8,7.6-12.4,10.6c-3.1,2-6.2,3.9-9.6,5.4c-5.3,2.3-10.7,3.9-16.4,4.6c-2.8,0.3-5.6,0.5-8.4,0.4
	c-3.6-0.2-7.3-0.3-10.9-1.1c-0.5-0.1-1.2,0-1.6-0.6c0.5-0.5,1.1-0.3,1.7-0.3c5.8,0.1,11.6-0.7,17.3-1.8c4.2-0.8,8.2-2.2,12.1-4
	c4.2-1.9,8.2-4.1,12.1-6.7c4.3-2.9,8.1-6.5,11.3-10.7c1.8-2.4,3.4-4.9,5.4-7.1c0.8-0.8,1.3-2,1.9-3c1.8-3.2,3.5-6.5,5.2-9.7
	c0.6-1.2,0.5-1.6-0.7-2.3c-3-1.7-6-3.5-9.3-4.9c-6.4-2.7-12.7-5.4-19.1-8.1c-4.3-1.8-8.7-3.6-13-5.4
	C277.5,252.1,276.6,251.9,276.1,250.9L276.1,250.9z"/>
<path d="M58.4,415.3c-0.6,0.8-1.3,0.6-1.9,0.7c-6.6,0.5-13.1,0.4-19.6-0.7c-3.1-0.5-6.2-1-9.2-2.2c-4.2-1.6-8.1-3.7-11.4-6.7
	c-1.2-1.1-2.2-2.4-3-3.8c-1.4-2.3-2.7-4.5-3.7-7c-0.6-1.6-0.6-3.4-0.4-5c0.3-1.6,0.6-3.2,1-4.7c1.1-4,2.3-8,3.5-12
	c0.7-2.5,1.6-4.8,2.7-7.2c1.1-2.4,2.1-4.8,3.2-7.2c3.2-7.3,7.4-14,11.9-20.5c7.1-10.1,15-19.4,23.5-28.3c3.1-3.2,6.5-6.1,9.8-9
	c5.3-4.7,10.6-9.4,16.5-13.3c3.2-2.2,6.5-4.4,9.7-6.7c1-0.7,1.9-1.5,2.8-2.3c0.7-0.5,1.2-1.2,2.1-1.4c0.1,0,0.3,0.1,0.4,0.2
	c0.1,0,0.1,0.2,0.1,0.2c-0.1,0.2-0.1,0.5-0.2,0.7c-0.6,0.7-1.2,1.5-1.8,2.1c-1.9,1.7-3.7,3.5-5.5,5.4c-2.6,2.9-5.7,5.4-8.6,8.1
	c-3.2,3.1-6.4,6.1-9.5,9.3c-3.3,3.4-6.6,6.7-9.8,10.1c-2.9,3-5.6,6.2-8.2,9.4c-6.6,8-12.5,16.4-18.4,24.9c-0.7,1-1.3,2-1.8,3.1
	c-1.8,4.1-4,7.9-6.3,11.7c-1.7,2.7-2.8,5.7-3.9,8.6c-1.3,3.5-2.3,7.1-3.7,10.6c-1.3,3.3-2,6.7-1.9,10.2c0,1,0.3,2,0.6,3
	c0.1,0.2,0.2,0.5,0.3,0.7c3.7,6.8,3.6,6.7,10,11c3.3,2.2,6.9,3.6,10.8,4.5c4.8,1.1,9.7,1.7,14.5,2.9c0.7,0.2,1.5,0.1,2.3,0.2
	C56.3,414.7,57.4,414.7,58.4,415.3L58.4,415.3z"/>
<path d="M88.2,208.8c0-2.1,0-4.2,0.4-6.4c0.5-2.8,0.9-5.6,1.3-8.3c0.5-3.5,1.5-6.8,2.7-10.1c1.9-5.2,4.2-10.3,7.5-14.8
	c1.9-2.7,4.1-5.3,6.2-7.8c2.4-3,5-5.8,7.5-8.8c2.2-2.5,4.5-4.9,7.1-6.9c0.9-0.7,2-1.3,3-1.9c0.2-0.1,0.5-0.2,0.7,0.1
	c0.1,0.2,0.1,0.5,0,0.7c-0.5,0.6-0.9,1.2-1.5,1.8c-3.5,3.4-6.5,7.2-9,11.4c-3.2,5.4-6.5,10.8-9.5,16.4c-2.6,5-4.7,10.2-6.4,15.6
	c-2.3,7.4-2.7,14.9-1.2,22.5c2.4,11.6,7.4,22.1,14.3,31.7c3.6,5.1,8.1,9.4,12.8,13.6c2.2,2,4.4,4,6.8,5.8c2.5,1.9,5.2,3.6,8.2,4.8
	c3.8,1.5,7.5,3.4,11.4,4.7c0.1,0,0.2,0.1,0.2,0.1c0.1,0.1,0.2,0.3,0.2,0.4c0,0.2-0.1,0.3-0.3,0.3c-1,0-2.1,0.1-3.1-0.1
	c-7.1-0.8-13.5-3.4-19.6-6.9c-0.7-0.4-1.3-0.8-2-1.1c-2.5-1-4.7-2.5-6.8-4.1c-3.4-2.5-6.6-5.4-9.7-8.3c-1.8-1.7-3.5-3.5-4.9-5.5
	c-1.2-1.7-2.5-3.2-3.8-4.9c-0.3-0.4-0.6-0.8-0.9-1.2c-3.3-5.6-6.5-11.2-8.7-17.4C89.5,219.1,88.1,214.1,88.2,208.8L88.2,208.8z"/>
<path d="M424.6,315.6c4.8-0.3,9.3,0.8,13.9,1.9c7.9,2,15.4,5,22.8,8.2c4.8,2.1,9.7,4.3,14.5,6.4c5.1,2.2,10.3,4,15.6,5.6
	c3.5,1,7,1.5,10.6,1.4c0.8,0,1.7,0,2.5,0.1c0.1,0,0.3,0.2,0.3,0.3c0,0.1,0,0.4-0.1,0.4c-0.4,0.3-0.9,0.6-1.4,0.7
	c-1.2,0.3-2.5,0.6-3.8,0.5c-1.3,0-2.6-0.1-3.8-0.1c-6.1-0.2-12-1.3-17.9-2.8c-5.3-1.4-10.4-3.2-15.6-5c-6.5-2.3-12.8-5.1-19.6-6.8
	c-5.1-1.3-10.3-2.6-15.5-3.1c-5.1-0.5-10.2-0.3-15.2,0.9c-2.7,0.7-5.4,1.4-8,2.6c-0.9,0.4-1.8,1-2.6,1.6c-2.4,1.8-4.5,3.9-6.7,5.9
	c-1.2,1.2-2.3,2.5-3.2,4c-1.2,1.9-2.8,3.5-4.4,5c-2.7,2.6-6.2,3.4-9.8,3.9c-0.4,0.1-0.9,0-1.3,0.1c-2,0.6-3.3-0.4-4.4-1.8
	c-0.9-1.1-2.1-2-2.7-3.4c-0.2-0.6,0-1.1,0.5-1.2c1.3-0.2,2.5-0.4,3.8-0.6c4.7-0.7,8.8-2.5,12.2-5.9c0.4-0.4,0.7-0.8,1-1.1
	c1.6-1.8,3-3.7,4.7-5.4c3.9-4.2,8.6-7.3,13.8-9.4c2.1-0.9,4.4-1.2,6.7-1.6C416,316.1,420.3,315.8,424.6,315.6L424.6,315.6z"/>
<path d="M116.8,384c0.5-0.5,1.2-0.6,1.8-0.7c3.4-0.7,6.8-1.7,10.3-1.8c8.8-0.3,17.6-0.1,26,2.8c0.9,0.3,1.8,0.6,2.6,1.1
	c3.4,1.8,6.9,3.5,10,5.7c2.7,1.9,5.1,4.2,7.3,6.8c0.6,0.7,1.1,1.5,1.8,2.2c1.6,1.7,2.8,3.7,3.3,6c0.7,2.6,1.9,5.1,2.4,7.8
	c0.8,3.9,0.7,7.7-0.7,11.6c-1.1,3.2-2.6,6.1-4.3,9c-0.6,1-1.3,1.9-2.5,2.4c-0.9,0.4-1.7,1.1-2.5,1.8c-4.1,3.1-8.7,4.5-13.9,4.3
	c-2.6-0.1-5.1-0.2-7.5-1.4c-0.6-0.3-1.2-0.1-1.6,0.4c-0.7,0.9-1.4,1.7-2.3,2.4c-3.1,2.7-6.9,3.8-10.8,4.1c-2.1,0.2-4.3,0-6.4,0
	c-1,0-2.1-0.3-2.8-1c-1.3-1.2-2.5-1-3.9-0.2c-4.2,2.4-8.7,2.8-13.4,2c-1.7-0.3-3.1-1.2-4.5-2.3c-3.6-2.9-6-6.7-8-10.8
	c-0.5-1.1-0.9-2.2-0.8-3.4c0-0.2,0.1-0.5,0.4-0.5c0.2,0,0.4,0,0.5,0.1c0.6,0.7,1.3,1.4,1.8,2.2c1.9,3,4.6,5.2,7.4,7.3
	c0.3,0.2,0.6,0.4,0.9,0.6c3.6,2.6,7.5,3.1,11.6,1.6c0.4-0.1,0.8-0.3,1.2-0.4c0.8-0.3,0.9-0.6,0.5-1.3c-1.3-2.2-2.5-4.4-3.9-6.6
	c-0.6-1-0.8-2-0.8-3.2c0-0.4,0.6-0.7,0.9-0.5c1,0.7,1.8,1.6,2.5,2.5c1.5,1.9,3.2,3.8,5,5.5c2.1,2,4.6,3.3,7.3,4.2
	c2.9,1,5.9,0.5,8.7-0.6c2.2-0.9,4.2-2.2,6.2-3.5c0.8-0.5,0.9-0.8,0.3-1.7c-1.9-2.9-3.7-5.9-5.3-9.1c-0.4-0.8-0.8-1.7-1.2-2.6
	c-0.1-0.2-0.1-0.6,0.2-0.7c0.2-0.1,0.5-0.1,0.7,0c0.7,0.2,1.1,0.8,1.6,1.2c2.5,2.5,5.3,4.6,7.3,7.5c0.4,0.5,0.9,0.7,1.5,0.9
	c5,1.8,10,2.2,14.8-0.7c0.4-0.3,0.9-0.5,1.3-0.8c5-2.4,7.1-6.6,7.7-11.8c0.4-3.1-0.1-6.1-0.6-9.2c-0.2-1.3-0.5-2.5-0.8-3.7
	c-0.9-3.8-2.7-7.2-5.2-10.2c-0.9-1.1-1.9-2.2-2.8-3.3c-2.4-2.8-5.4-4.7-8.7-6.1c-3.7-1.6-7.4-3-11.4-3.9c-1-0.2-2-0.5-3-0.6
	c-3.2-0.3-6.4-0.7-9.7-0.8c-1.9,0-3.7-0.2-5.6-0.3c-2.2-0.1-4.4-0.2-6.6,0.1c-1.3,0.2-2.5,0.2-3.8,0.3
	C117.4,384.4,117,384.4,116.8,384L116.8,384z"/>
<path d="M265.9,264.9c0.4,0.3,0.3,0.8,0.2,1.1c-0.6,2-1.1,4.1-1.9,6.1c-1.1,2.7-3.1,4.7-5.8,5.7c-0.6,0.2-1.1,0.5-1.6,0.7
	c-1.8,0.7-3.5,1-5.5,0.8c-3.1-0.3-5.7-1.3-8.3-3c-4-2.6-7.6-5.7-10.9-9.3c-3.1-3.3-6-6.8-8.6-10.5c-1-1.4-2-2.7-3.3-3.9
	c-2-2-4.3-2.8-7.2-2.2c-3.8,0.9-7.7,1.6-11.5,2.4c-2.2,0.4-4.4,0.5-6.6,0.5c-1.4,0-2.7-0.2-4-0.6c-1.6-0.5-3.1-0.8-4.7-1.2
	c-0.5-0.1-1-0.2-1.5-0.5c-4.9-2.4-9.2-5.5-12.6-9.8c-0.9-1.1-1.1-2.5-1.2-3.9c-0.4-3.6-0.2-7.2,1.6-10.5c0.1-0.2,0.3-0.4,0.6-0.4
	s0.4,0.3,0.4,0.5c0.1,1.5,0.4,3.1,0.3,4.6c-0.1,2.8,1.1,4.9,3.1,6.7c3.3,3.1,7.1,5.6,11.2,7.6c6.1,3.1,12.5,3.7,19.1,1.1
	c2.1-0.8,4.3-1.6,6.5-2.2c2.4-0.6,4.7-0.7,7.1-0.3c1.3,0.2,1.4,0.1,2-1c0.8-1.8,1.4-3.7,1.8-5.6c0.3-1.3,0.1-2.4-1.1-3.1
	c-1.2-0.8-1.8-2.3-2.8-3.3c-0.5-0.6-0.6-1.4-0.7-2.2c-0.1-2.5-0.7-4.9-2.1-7c-0.7-1.1-0.9-2.4-1.2-3.6c-0.2-0.9,0.3-1.9,1.4-2
	c1.4,0,2.8-0.6,4.3-0.4c0.7,0.1,1.1,0.3,1.5,0.8c0.7,1.2,1.6,2.3,0.9,3.8c-0.3,3.3-0.2,6.4,1.7,9.3c1.9,3,4.5,4.2,8,3.6
	c2.8-0.5,5.2-2,7.5-3.7c0.6-0.5,0.6-1.2,0.8-1.8c0.2-0.5,0.5-0.8,1.1-0.9c0.8-0.1,1.5-0.1,2.2,0.4c0.3,0.3,0.7,0.4,1.1,0.7
	c1.8,1.2,1.9,1.6,1,3.6c-0.2,0.5-0.6,0.9-1.1,1c-0.7,0.2-1.5,0.5-2.2,0.5c-2-0.1-3.7,0.5-5.3,1.5c-2.1,1.3-4.4,2.1-6.9,2.3
	c-0.3,0-0.7,0.2-1,0.2c-1.3,0-2,0.7-2.3,1.9c-0.5,1.8-1.7,3.3-2.5,5c-0.3,0.6-0.7,1.2-1,1.8c-0.2,0.4-0.2,0.8,0.1,1.2
	c0.5,0.8,0.9,1.7,1.4,2.4c2,2.6,3.7,5.5,5.5,8.3c1.3,2.1,2.8,4.1,4.5,5.9c2.2,2.3,4.4,4.6,6.6,6.8c2.6,2.7,5.9,3.9,9.6,4.2
	c1.7,0.1,3.2-0.4,4.7-0.9c0.4-0.1,0.7-0.5,1-0.7c0.6-0.5,1.1-1.1,1.7-1.5c1.3-0.7,2-1.8,2.6-3.1c0.5-1.1,1-2.2,1.5-3.2
	C265.3,265.5,265.4,265.1,265.9,264.9L265.9,264.9z"/>
<path d="M265.4,429.1c-0.7,0.3-0.9,1-1.1,1.6c-1.8,3.7-4.1,7-7,10c-1.7,1.7-1.7,2.2,0.2,3.6c2.1,1.6,4.4,2.9,7,3.5
	c2.1,0.5,4.2,0.7,6.3,0.7c2.2,0,4.4-0.6,6.3-1.9c2.6-1.8,5.2-3.6,7.5-5.7c0.9-0.9,2-1.6,2.9-2.5c0.3-0.3,0.7-0.5,1.1-0.4h-0.1
	c0,0.1,0.1,0.2,0,0.3c-1.2,2.2-2,4.7-3.6,6.7c-0.6,0.7-1.2,1.4-1.5,2.3c-0.2,0.4,0,0.7,0.3,0.8c1.3,0.6,2.7,1.1,4,1.6
	c0.4,0.1,0.9,0.2,1.3,0.1c1.9-0.3,3.8-0.7,5.4-2.1c2.6-2.3,5.5-4.3,7.8-7c0.5-0.6,1.3-1.1,2.1-1.8c-0.1,1.2-0.4,1.9-0.9,2.6
	c-1.6,2.1-2.7,4.5-4.1,6.8c-1,1.6-3.8,3.5-5.6,4.2c-2,0.7-4,0.7-6,0.6c-0.7,0-1.3-0.2-1.9-0.6c-1-0.7-2.2-1.4-3.2-2.2
	c-0.8-0.6-1.7-0.8-2.6-0.5c-0.7,0.2-1.5,0.5-2.2,0.7c-3.9,1.4-8,1.8-12.1,1c-3.5-0.7-6.5-2.4-9.4-4.5c-1.1-0.8-2.2-1.6-3.3-2.4
	c-0.7-0.5-1.4-0.5-2.2-0.2c-1,0.5-2,0.9-3,1.4c-0.9,0.4-1.8,0.6-2.7,0.5c-3.5-0.5-6.9-1.1-10.1-2.7c-0.3-0.1-0.6-0.3-0.9-0.5
	c-3.2-2.3-6.2-4.8-8.4-8.2c-0.2-0.4-0.4-0.8-0.7-1.1c-1.4-1.3-1.8-3.1-2.3-4.8c-0.2-0.7-0.3-1.5-0.6-2.2c-0.4-0.9-0.2-1.9,0.1-2.8
	c0.3-1.2,0.3-2.3,0.3-3.5c0-2.3,0.7-4.6,1.7-6.6c2.6-5.1,5.5-10,10-13.8c2.9-2.5,5.9-4.6,9.1-6.6c0.2-0.1,0.4-0.3,0.7-0.4
	c2.7-0.7,5.1-1.9,7.5-3.2c0.4-0.2,1-0.3,1.5-0.4c1-0.3,2-0.4,3-0.8c3.1-1.5,6.5-1.9,9.9-2.6c6.6-1.4,13.2-1.2,19.9-0.7
	c1.9,0.1,3.7,0.5,5.6,0.7c0.6,0.1,1.1,0.3,1.7,0.5c0.1,0,0.2,0.2,0.3,0.4c0.1,0.3-0.1,0.5-0.3,0.6c-0.9,0.5-1.9,0.8-2.9,0.9
	c-2.7,0.2-5.4,0.4-8.2,0.6c-3.5,0.2-7,0.2-10.5,0.4c-4.9,0.3-9.7,0.9-14.4,2.1c-0.6,0.1-1.2,0.2-1.7,0.5c-3.5,1.8-7.1,3.2-10.4,5.5
	c-3.1,2.2-6,4.8-8.7,7.6c-2.2,2.2-3.8,4.8-5.1,7.6c-0.4,0.9-0.6,2-0.9,2.9c-1.5,5-0.9,9.8,0.9,14.5c0.8,2,2.2,3.7,3.6,5.2
	c1.5,1.6,3.4,2.9,5.2,4.1c0.7,0.4,1.4,0.7,2.1,0.8c1.5,0.4,3,0.4,4.6,0.5c1.1,0,2.2-0.2,3.1-0.9c0.4-0.4,1-0.7,1.5-1
	c4.2-2.2,7.9-5.1,11.2-8.4c0.5-0.5,1.1-1,1.7-1.5C264.5,429,264.9,429,265.4,429.1L265.4,429.1L265.4,429.1z"/>
<path d="M138.1,119.4c-0.2,3.3-0.4,6.6-0.6,10c-0.1,0.9-0.1,1.9-0.7,2.7c-0.2,0.2-0.7,0.2-0.9,0c-0.4-0.5-0.6-1.1-0.7-1.6
	c-0.4-2-0.9-4-1.2-6c-0.8-7.2-0.9-14.4-0.3-21.7c0.5-5.8,2.4-11.1,4.7-16.4c1-2.3,1.9-4.5,2.9-6.8c2.6-6.2,5.9-11.9,10.1-17.1
	c4.3-5.2,9-10,14-14.5c0.1-0.1,0.3-0.2,0.4-0.3c0.8-0.7,1.6-0.8,2.6-0.3c1.2,0.7,2.4,1.3,3.4,2.2c2.7,2.4,5.4,4.7,7.9,7.3
	c1.5,1.5,2.8,3.2,3.8,5.1c2.4,4.4,4.5,9,6.2,13.7c1.3,3.6,2.1,7.4,2.5,11.2c0.3,2.5,0.7,4.9,1.1,7.3c0.4,2.2,1.3,4.2,2.3,6.2
	c1.7,3.4,3.4,6.9,5.1,10.3c0.8,1.7,2.1,3.1,3.2,4.6c1,1.3,1.9,2.6,2.9,3.9c0.2,0.3,0.3,0.6,0.1,1s-0.7,0.5-1.1,0.4
	c-2.8-0.5-5.2-1.8-6.8-4.2c-2.3-3.3-4.6-6.6-6.1-10.3c-2.8-6.6-5.2-13.3-6.2-20.5c-0.9-6.9-3.4-13.2-6.6-19.3
	c-1.8-3.3-3.8-6.5-6.5-9.1c-1.1-1-2.3-2.1-3.4-3.1c-1.6-1.3-2.1-1.4-3.8-0.2c-1.2,0.9-2.4,1.9-3.5,3c-4.4,4.4-7.9,9.6-11.4,14.8
	c-1.7,2.5-3.1,5.1-4.7,7.6c-1.7,2.8-3.1,5.7-4.1,8.8c-2.1,6.8-4,13.6-4.5,20.7c-0.2,2.9-0.2,5.8-0.2,8.7
	C138.1,118.3,138.1,118.8,138.1,119.4L138.1,119.4L138.1,119.4z"/>
<path d="M330.8,329.6c0.5-0.5,0.9,0,1.4,0.1c3.1,1.5,6,3.3,8.8,5.2c5.4,3.6,10.8,7.1,16.3,10.5c3.5,2.2,6.8,4.5,10.1,6.9
	c5.1,3.8,10.2,7.5,15.2,11.3c3.1,2.4,6.2,4.8,8.9,7.6c4,4.2,6.9,9.1,8.9,14.5c0.3,0.7,0.4,1.5,0.6,2.2c0.7,2.4,0.2,4.6-1.1,6.8
	c-4.1,7.1-9.7,12.7-16.3,17.5c-4.8,3.5-10.2,6.2-16,7.9c-2.5,0.7-5.1,1.4-7.7,2.1c-2.5,0.6-5.1,0.6-7.6,0.8c-0.1,0-0.3-0.2-0.3-0.3
	c0-0.1,0-0.4,0.1-0.4c1.7-0.8,3.3-1.7,5.1-2.4c6.5-2.4,12.6-5.6,18.3-9.6c3.3-2.3,6.5-4.6,9.2-7.6c3.1-3.4,5.3-7.3,5.9-12
	c0.3-2.9-0.1-5.6-1.6-8.1c-2.1-3.6-4.4-7.2-7.1-10.3c-2.5-2.8-5-5.6-7.9-8c-3.1-2.5-6.1-5.2-9.2-7.8c-4-3.4-8.2-6.4-12.4-9.5
	c-1.8-1.3-3.5-2.7-5.3-4c-2.9-2.1-5.8-4.3-8.7-6.3c-2.8-2-5.3-4.3-7.7-6.7C330.9,329.9,330.9,329.7,330.8,329.6L330.8,329.6z"/>
<path d="M359.2,131.4c-6.1,0.3-12.1,0.4-18.1,1.5c-7.5,1.3-14.9,2.8-22.1,5.5c-3.3,1.3-6.3,3-9.4,4.6c-3,1.6-6,3.3-9,4.9
	c-0.7,0.4-1.4,0.7-2.1,1c-0.2,0.1-0.5,0-0.7-0.1c-0.3-0.2-0.3-0.6-0.2-0.9c0.2-0.7,0.7-1.2,1.2-1.7c1.2-1.1,2.4-2.2,3.6-3.2
	c6.1-4.5,12.6-8.5,19.6-11.4c4-1.6,8.2-2.5,12.4-3.2c3.7-0.7,7.4-1,11.2-1.3c4.6-0.4,9.2-0.6,13.8-0.5c4.2,0.1,8.4,0.2,12.5,0.9
	c1.3,0.2,2.5,0.7,3.6,1.2c2.1,0.9,2.9,2.8,2.6,5c-0.8,6.9-2.1,13.8-3.5,20.7c-1.3,6.3-3.4,12.3-6.7,17.9
	c-3.4,5.9-7.6,11.1-12.5,15.8c-4.3,4-9.1,7.5-14.3,10.3c-1.4,0.7-2.9,1-4.4,1.5c-0.9,0.3-1.7-0.2-2.5-0.5c-0.6-0.2-0.7-0.8-0.3-1.2
	c0.6-0.8,1.4-1.3,2.1-1.8c3-2,6-3.9,9-5.9c0.5-0.3,1-0.6,1.5-1c2.2-1.8,4.3-3.6,6.4-5.5c3.5-3.2,6.2-7,8.4-11.2
	c2.2-4.2,3.8-8.6,5.5-12.9c1.1-3,2-6,2.7-9.1c0.7-3.2,1.7-6.4,2.5-9.7c0.4-1.6,0.7-3.2,1-4.8c0.5-2.6-0.8-4.6-3.5-4.8
	c-2.8-0.2-5.6-0.1-8.4-0.2C360.5,131.4,359.8,131.4,359.2,131.4L359.2,131.4z"/>
<path d="M236,106.6c-0.2,4.5-0.3,9.2-1,13.8c0,0.3-0.1,0.7-0.1,1c0,0.4,0.2,0.6,0.6,0.7c0.2,0.1,0.5,0.1,0.8,0.1
	c5.4-0.2,10.7,0.7,15.9,2.2c5.8,1.6,11.4,3.5,16.6,6.5c2.8,1.6,5.5,3.5,7.9,5.6c2.2,1.9,2.2,1.5,3.2-0.5c2.5-5,5.5-9.7,8.8-14.1
	c2.5-3.4,5.2-6.6,7.9-9.7c0.3-0.3,0.6-0.6,1-0.8c0.1-0.1,0.4,0,0.5,0c0.1,0.1,0.2,0.3,0.2,0.4c0,0.8-0.5,1.4-0.9,2.1
	c-2.3,3.4-4.5,6.9-6.8,10.2c-1.1,1.6-2,3.1-2.9,4.8c-1.8,3.5-3.7,6.9-5.5,10.4c-0.1,0.2-0.2,0.5-0.3,0.7c-0.4,1-0.4,1.3,0.5,2
	c1.8,1.4,3,3.2,4.3,5c0.2,0.3,0.3,0.6,0.4,0.9c0.1,0.3,0,0.7-0.3,0.9c-0.2,0.1-0.5,0.2-0.7,0.1c-1-0.3-1.8-0.9-2.6-1.6
	c-0.9-0.9-2-1.6-3.3-1.9c-0.6-0.1-1,0-1.2,0.6c-0.8,2-1.7,4.1-2.5,6.2c-2.1,5.1-4.1,10.1-6.2,15.2c-0.2,0.5-0.5,1.1-0.8,1.6
	c-0.1,0.1-0.3,0.1-0.5,0.1c-0.1,0-0.3-0.2-0.3-0.3c0-0.4-0.1-0.9,0-1.3c0.2-1.9,0.4-3.9,1-5.8c1.6-5.6,3.4-11.1,5.9-16.3
	c1.2-2.5,1.8-2.4-1.3-4.8c-5-3.8-10.7-6.4-16.4-8.8c-3.9-1.7-8-3-12-4.4c-1.8-0.6-3.6-1-5.5-1.2c-1.6-0.1-3.2-0.4-4.8-0.6
	c-1-0.1-1.4,0.2-1.7,1.2c-0.3,1.2-0.6,2.5-0.8,3.7c-0.7,3.2-2.1,6.1-3.1,9.2c-1.3,3.7-2.9,7.3-4.9,10.7c-0.3,0.6-0.8,1.1-1.2,1.6
	c-0.1,0.1-0.3,0.1-0.5,0.1c-0.1-0.1-0.2-0.3-0.2-0.4c0-1.3,0.4-2.5,0.8-3.7c1.3-4.3,2.8-8.6,4.5-12.8c1.1-2.9,2-5.8,2.6-8.8
	c0.2-1,0-1.3-1-1.3c-1.5,0-3.1,0-4.6,0c-0.4,0-0.9,0-1.3,0c-0.3,0-0.7-0.2-0.8-0.5c-0.1-0.5,0.3-0.8,0.7-0.9c1.5-0.3,3-0.6,4.5-0.8
	c2.9-0.4,2.8-0.3,3.1-3c0.7-6.6,1.4-13.2,2.1-19.9c0.2-1.7,0.5-3.4,0.8-5.1c0.1-0.4,0.3-0.8,0.5-1.1c0.2-0.3,0.5-0.1,0.6,0.1
	c0.4,0.7,0.4,1.5,0.4,2.2c0,3.1-0.1,6.1-0.1,9.2C236,105.8,236,106.1,236,106.6L236,106.6z"/>
<path d="M202.5,156.9c3.5-0.2,6.8,0.5,9.8,2.3c1.6,0.9,3.2,1.9,4.8,2.9c2.4,1.5,3.5,3.9,4,6.6c0.4,1.8,0.2,3.6-0.2,5.3
	c-0.6,2.7-1.3,5.5-2,8.2c-0.4,1.8-1.1,3.4-2,5c-0.1,0.2-0.2,0.5-0.5,0.5s-0.4-0.3-0.5-0.5c-0.3-1.2-0.6-2.5-1-3.7
	c-0.3-1.1-0.7-1.3-1.7-0.8c-1.7,0.9-3.4,1.1-5.2,1c-2.3-0.1-4-1.2-5.2-3.2c-1.1-1.8-1.5-3.8-2-5.8c-0.3-1.2,0.1-2.4,0.8-3.4
	c0.4-0.6,0.8-1.1,1.3-1.5c0.4-0.4,1-0.7,1.4-1.1c2.6-1.8,5.4-3,8.6-2.1c0.2,0.1,0.5,0,0.7-0.1c0.1,0,0.2-0.3,0.2-0.4
	c0-0.4-0.3-0.8-0.6-1.1c-1.6-1.5-3.3-2.7-5.4-3.3c-1.8-0.5-3.6-1.1-5.5-1.3c-2.2-0.3-4.3-0.1-6.3,0.6c-3,1-5.9,2.3-8.2,4.6
	c-0.4,0.4-0.7,0.7-1.1,1.1c-0.5,0.6-0.6,1.3-0.1,2.1c2.5,4.1,5,8.3,7.5,12.5c0.4,0.7,0.9,1.3,0.9,2.1c0,0.4-0.5,0.8-0.9,0.6
	c-0.2-0.1-0.3-0.1-0.5-0.2c-4.5-2.9-8.1-6.6-9.8-11.7c-0.6-1.8-1.2-3.5-1.6-5.4c-0.3-1.4,0-2.4,1.4-3.2c2.7-1.4,5.3-3,8.1-4.4
	c2.1-1.1,4.5-1.6,6.9-1.9C200.1,157,201.3,156.9,202.5,156.9L202.5,156.9z"/>
<path d="M273.5,213.1c-1.3,0-2.6-0.3-3.7-0.9c-1.8-0.9-3.6-1.9-5.2-3.3c-0.6-0.6-1.2-1.2-1.6-2c-0.6-1-0.6-2-0.1-3.1
	c2-4.2,4.8-7.9,8.6-10.6c2.9-2.1,6.2-3.4,10-3.5c1,0,2.1-0.1,3.1,0.2c1.8,0.5,3.6,1,4.9,2.5c1,1.1,2.3,2,3.5,3c2.4,2.2,4,4.9,4.9,8
	c0.2,0.6,0.3,1.3,0.3,2c0,3.1-0.1,6.1-0.2,9.2c0,0.8,0.1,2-0.8,2.2c-1.1,0.3-1.5-0.9-1.9-1.7c-0.5-1.1-0.8-2.2-1.3-3.3
	c-0.2-0.6-0.6-0.8-1.2-0.4c-1.6,0.9-3.3,1.9-5.1,2.4c-2.5,0.6-4.9,0.7-7.2-0.6c-1.4-0.8-2.2-2-2.5-3.6c-0.6-3.3-0.1-6.2,2.1-8.9
	c1-1.3,1.8-2.7,3.2-3.6c1.1-0.8,2.3-1.5,3.7-1.7c0.4,0,0.9-0.2,1-0.7c0.2-0.6-0.4-0.9-0.7-1.2c-0.1-0.1-0.1-0.1-0.2-0.1
	c-2.8-1.3-5.5-2.2-8.6-1.2c-2.2,0.7-4.2,1.8-5.8,3.6c-2,2.3-3.6,5-5.5,7.4c-0.5,0.7-0.4,1.4,0.1,2.1c1.8,2.6,3.5,5.2,6,7.3
	C273.3,212.6,273.3,212.8,273.5,213.1L273.5,213.1z"/>
<path d="M203,404c0-0.2-0.1-0.6,0-0.7c0.6-0.4,1.2-0.7,1.8-1c3.5-1.8,7-3.5,10.5-5.3c2.5-1.3,5-2.5,7.6-3.8c1.4-0.7,2.9-1.5,4.3-2.3
	c3.3-1.9,6.6-3.8,10-5.8c3.7-2.1,7.2-4.6,10.6-7.2c2.9-2.2,5.8-4.5,8.7-6.7c3.4-2.6,6.4-5.7,9.4-8.6c5.3-5.1,8.7-11.4,11.5-18
	c0.5-1.1,0.9-2.2,1.3-3.3c1-2.4,1.8-4.8,2.2-7.3c0.1-0.9,0.4-1.8,0.7-2.7c0.1-0.2,0.3-0.5,0.4-0.5c0.3-0.1,0.4,0.2,0.5,0.5
	c0.5,6,0.2,11.9-2.4,17.5c-2.1,4.3-4.7,8.3-7.6,12.1c-3,4.1-6.5,7.6-10.2,11.1c-2.7,2.6-5.8,4.8-8.8,7c-5.3,3.8-10.9,7.3-16.7,10.4
	c-0.6,0.3-1.2,0.7-1.8,1c-6.8,4.5-14.3,7.5-22,10.1C209.5,401.7,206.1,402.5,203,404L203,404L203,404z"/>
<path d="M207.5,305.4c-3.9,0-7.8-0.6-11.7-1.2c-0.7-0.1-1.3-0.4-2-0.6c-1-0.3-2-0.7-3-0.8c-2-0.2-3.8-1-5.5-2
	c-2.8-1.7-5.5-3.4-8.2-5.2c-3-2-5.7-4.3-7.9-7.2c-1.4-1.9-2.2-4-2.2-6.4c0-0.2,0.1-0.4,0.1-0.5c0.2,0,0.5-0.1,0.7,0
	c1.2,1.1,2.4,2.1,3.5,3.3c1.3,1.4,2.8,2.5,4.5,3.3c4.3,2.1,8.5,4.3,12.8,6.5c0.5,0.2,0.9,0.5,1.4,0.7c5.1,1.7,10.3,3.2,15.7,3.3
	c4.3,0.1,8.5-0.2,12.8-0.5c2.7-0.2,5.5,0,8.1-0.8c0.3-0.1,0.7-0.1,1,0c0.2,0,0.5,0.3,0.5,0.5c0.1,0.2,0,0.5-0.2,0.7
	c-0.1,0.2-0.4,0.3-0.6,0.5c-2.9,1.5-5.6,3.2-8.8,4c-0.8,0.2-1.7,0.5-2.4,0.8C213.4,305.2,210.5,305.6,207.5,305.4L207.5,305.4z"/>
<path d="M328.4,425.9c0.1-2.1,0.1-4.3-0.1-6.4c-0.5-3.6-1.7-6.9-3.3-10.2c-0.5-0.9-1.3-1.8-0.6-3c1.1,0.2,1.7,1.1,2.3,1.9
	c2.4,3.1,4.6,6.4,6.2,10c1.1,2.3,2.3,4.6,2.9,7.1c0.8,3.3,1.3,6.7,0.4,10.1c-0.3,1-0.5,2-0.7,3c-0.3,1.9-1.2,3.5-2.3,5
	c-0.4,0.5-0.8,0.9-1.2,1.4c-4.6,6-6.3,6-14.2,8.1c-2.9,0-5.8,0.4-8.6-0.6c-1.3-0.5-2.6-0.8-3.9-1.1c-0.3-0.1-0.7-0.3-0.7-0.7
	c0-0.5,0.5-0.7,0.9-0.7c0.5,0,1,0.2,1.5,0.2c0.6,0.1,1.2,0.2,1.8,0.1c4.2-0.8,8.4-1.8,11.5-5.1c0.8-0.9,1.7-1.6,2.6-2.5
	c3.4-3.3,5.2-7.4,5.5-12C328.5,429,328.4,427.5,328.4,425.9L328.4,425.9z"/>
<path d="M93.8,445.4c-1.8,1.3-3.2,1.9-5,2c-2.2,0.1-4.4-0.2-6.5-0.9c-1.3-0.4-2.5-1.1-3.5-2c-2.1-1.8-3.9-3.8-5.5-6
	c-2-2.9-2.9-6.2-2.9-9.6c0-3.1,0-6.3,0.8-9.4c0.4-1.4,0.8-2.8,1.4-4.1c2.1-4.6,4.5-9,7.7-12.9c0.3-0.4,0.6-0.8,1-1.1
	c0.6,0.3,0.2,0.6,0.1,0.8c-1.1,2.3-2.3,4.6-3.4,6.9c-1.7,3.8-2.8,7.8-2.9,12.1c0,1.5,0.1,3.1,0.5,4.6c0.4,1.4,0.8,2.8,1,4.2
	c0.6,3.1,2.3,5.7,4.6,7.8c1.6,1.5,3.4,2.9,5.1,4.3s3.7,2.1,5.7,2.8C92.6,444.8,93.3,444.7,93.8,445.4L93.8,445.4z"/>
<path d="M195,212.1c-0.7,0.2-1.3-0.2-1.9-0.5c-2.3-1.3-4.6-2.5-6.9-3.8c-3.8-2.2-7.8-3.7-11.9-5.4c-10.4-4.3-21.2-7.5-32.1-10.2
	c-8.3-2.1-16.8-3-25.3-3.5c-1.2-0.1-2.5,0.4-3.5-0.8c0.9-0.9,2.2-0.8,3.4-1c5.6-0.7,11.2-0.5,16.8,0.3c4.6,0.6,9.3,1.4,13.9,2.1
	c3.1,0.5,5.9,1.5,8.8,2.5c6.5,2.2,12.8,4.7,19.1,7.4c3.6,1.5,6.9,3.8,10.1,6c2.4,1.7,4.6,3.5,7.1,4.9
	C193.5,210.7,194.3,211.3,195,212.1L195,212.1L195,212.1z"/>
<path d="M178.3,320.1c0.8,2.3,1.2,4.6,1.6,7c1,5.9,0.8,11.9-0.2,17.8c-0.6,4-1.7,7.8-3.5,11.4c-1.1,2.1-2.2,4.3-3.3,6.3
	c-1.5,2.6-3.5,4.8-5.7,6.9c-0.2,0.2-0.5,0.3-0.7,0.2c-0.3-0.2-0.3-0.6-0.2-0.9c0.4-1,0.7-2.1,1.1-3.1c1.9-4.7,3.7-9.3,5.1-14.2
	c1.6-5.5,2.6-11.1,3.5-16.8c0.7-4.3,1-8.6,1.4-13C177.5,321.2,177.3,320.5,178.3,320.1L178.3,320.1z"/>
<path d="M188.7,200.6c-0.1,0.1-0.3,0.3-0.4,0.3c-0.4-0.1-0.8-0.1-1.2-0.3c-4.5-2.4-9-4.8-13.3-7.6c-2.4-1.5-4.6-3.2-7-4.7
	c-4.3-2.8-8.2-6.1-11.9-9.7c-3.3-3.1-6.3-6.5-9.2-9.9c-1.5-1.8-2.8-3.9-4-5.9c-0.8-1.3-1-2.9-1.6-4.3c0-0.1,0.1-0.4,0.2-0.4
	c0.1-0.1,0.4,0,0.5,0.1c0.5,0.5,0.9,1,1.3,1.5c3.8,4.8,7.9,9.4,12.2,13.8c4.6,4.7,9.7,8.9,15,12.6c3.4,2.4,6.7,5,9.9,7.6
	c1.8,1.5,3.7,2.8,5.7,3.9c1.2,0.7,2.4,1.3,3.4,2.3C188.5,200.1,188.5,200.4,188.7,200.6L188.7,200.6z"/>
<path d="M190,216.8c-0.1,0.1-0.3,0.3-0.4,0.3c-0.7-0.1-1.3-0.2-2-0.4c-4-1.2-8-2.3-12.1-3.1c-1.5-0.3-3-0.5-4.6-0.5
	c-9.8-0.4-19.4,0.4-29.1,1.8c-5.7,0.8-11.4,2.1-16.9,3.9c-0.6,0.2-1.3,0.4-2,0.5c-0.1,0-0.2-0.2-0.3-0.3v-0.2c0.3-0.3,0.7-0.6,1-0.7
	c7.7-3.3,15.6-6,24-6.9c3.6-0.4,7.3-0.5,11-0.9c0.3,0,0.7,0,1,0c6.8,0.4,13.6,0.7,20.3,2.2c2.4,0.5,4.8,1.3,7,2.3
	c1,0.4,2,0.9,2.9,1.7C190.1,216.4,190.1,216.6,190,216.8L190,216.8z"/>
<path d="M187.1,118.3c-0.5,5-2.7,9.2-8.7,10.9c-0.9,0.3-1.8,0.4-2.8,0.5c-3.2,0.5-6.4,0.9-9.6,1.4c-3.2,0.5-6.3,1.3-9.3,2.6
	c-0.6,0.3-1.3,0.5-1.9,0.6c-0.2,0-0.6-0.1-0.6-0.3c-0.1-0.2,0.1-0.5,0.2-0.7c0.5-0.4,1.1-0.8,1.7-1.1c1.4-0.8,2.9-1.5,4.3-2.2
	c2.5-1.3,5.3-1.9,8.1-2c3.2-0.1,6.3-0.5,9.2-2c2.2-1.1,4-2.6,5.2-4.8c0.8-1.4,1.8-2.6,2.8-4c0.2-0.3,0.5-0.5,0.9-0.4
	C187,117.1,187.1,117.5,187.1,118.3L187.1,118.3z"/>
<path d="M270.6,256.4c0.2,0,0.5-0.1,0.7,0c3.7,1.4,7.3,2.9,10.6,5c3.6,2.3,6.3,5.5,8.2,9.3c1.4,2.7,2.5,5.4,3.4,8.3
	c0.7,2.3,1,4.7,0.9,7.1c0,0.1-0.2,0.3-0.3,0.4c-0.1,0-0.3-0.1-0.4-0.2c-0.8-1.9-1.6-3.8-2.2-5.7c-1.2-3.6-3-6.9-5.1-10
	c-2.5-3.8-5.9-6.9-9.6-9.4c-1.7-1.1-3.4-2.2-5.1-3.4C271.2,257.5,270.6,257.3,270.6,256.4L270.6,256.4z"/>
<path d="M294.2,235.7c-4.8,0.3-9.5-0.2-14.3-0.7c-0.5-0.1-1,0-1.5-0.2c-1.6-0.6-3.3-0.6-5-0.7c-0.3,0-0.7,0-1,0
	c-0.7-0.1-1.1-0.4-1-0.9c0-0.6,0.5-0.9,1-1c1-0.1,2-0.2,3.1-0.1c1.2,0,2.4,0.1,3.6,0.3c3.1,0.5,6.3,0.6,9.4,0.7c1.9,0,3.7,0,5.6,0.3
	c1.2,0.2,2.4,0.2,3.6,0.1c3.2-0.3,6.5-0.1,9.7-0.2c1.8,0,3.6-0.1,5.4-0.4c0.9-0.1,1.9-0.2,2.8-0.3c0.3,0,0.7,0,0.9,0.3
	c0.2,0.3-0.2,0.7-0.8,0.8c-3.4,0.8-6.8,1.4-10.4,1.5c-2.1,0.1-4.2,0.3-6.4,0.4C297.2,235.7,295.7,235.7,294.2,235.7L294.2,235.7z"/>
<path d="M257.5,226.8c0,1.4,0,2.7-0.6,4c-0.1,0.3-0.2,0.7-0.4,0.9c-0.5,0.6-1,1.4-1.8,1.1c-0.9-0.2-0.9-1.1-0.9-1.9
	c0.1-2-0.3-3.9-0.9-5.8c-0.3-0.9-0.8-1.7-1.5-2.3c-2.3-2-5-3.3-8-3.5c-1.9-0.2-3.6-0.8-5.4-1.3c-1.4-0.4-2-1.4-2.5-2.7
	c-0.1-0.3,0-0.7,0.4-0.9c0.2-0.1,0.5-0.1,0.7,0c0.4,0.2,0.7,0.4,1.1,0.7c1.9,1.4,4,2.2,6.3,2.6c2.2,0.4,4.3,0.9,6.5,1.3
	c1.4,0.3,2.7,0.9,4,1.5c2.1,1,3.2,2.7,3.2,5.1C257.5,226.1,257.5,226.4,257.5,226.8L257.5,226.8z"/>
<path d="M168.6,217.8c3.4,0.5,7.7,0.3,11.6,2.3c2.3,1.1,4.7,1.9,7.1,2.8c0.2,0.1,0.4,0.3,0.3,0.6c-0.1,0.2-0.4,0.4-0.6,0.3
	c-2.9-0.8-5.7-1.5-8.6-2.3c-0.4-0.1-0.8-0.2-1.2-0.4c-4.4-1.8-8.9-1.5-13.3-0.7c-2.4,0.4-4.7,1.6-6.9,2.6c-2.4,1.1-4.8,2.3-7.1,3.4
	c-0.4,0.2-0.8,0.3-1.2,0.4c-0.1,0-0.3-0.1-0.4-0.2v-0.2c0-0.1,0.1-0.2,0.1-0.2c2.9-2.6,5.9-5.1,9.7-6.5
	C161.2,218.7,164.4,217.8,168.6,217.8L168.6,217.8z"/>
<path d="M210.2,278.5c-3.5-0.3-7-0.5-10.3-1.6c-2.5-0.8-4.8-2.3-6.4-4.5c-1-1.3-1.9-2.6-2.9-3.9c-0.3-0.4-0.4-0.9-0.2-1.5
	c0.1-0.3,0.6-0.5,0.8-0.3s0.5,0.5,0.7,0.7c2.8,2.7,5.9,5.1,9.5,6.8c2.4,1.1,4.8,1.6,7.5,1.4c3.1-0.2,6.3-0.3,9.4-0.4
	c0.2,0,0.6-0.1,0.6,0.3c0,0.3-0.2,0.4-0.4,0.5C215.9,277.6,213.2,278.6,210.2,278.5L210.2,278.5z"/>
<path d="M305.6,162.8c-0.1,0.5-0.1,1.3-0.3,2c-1.2,5.2-0.2,10.1,2.4,14.8c1.3,2.3,2.6,4.6,3.7,7c0.3,0.6,1.1,1.4,0.3,2
	c-0.6,0.3-1.1-0.7-1.5-1.1c-2.4-2.9-4.7-5.8-6.3-9.3c-0.6-1.3-1.1-2.6-1.2-4.1c0-0.9-0.3-1.8-0.4-2.8c-0.4-3.4,0.1-6.6,2-9.5
	c0.1-0.2,0.3-0.4,0.5-0.6c0.1-0.1,0.3-0.1,0.5-0.1c0.1,0,0.2,0.2,0.3,0.3c0,0.1,0.1,0.2,0.1,0.2
	C305.7,161.8,305.6,162.2,305.6,162.8L305.6,162.8z"/>
<path d="M197.4,127.5c0.1-0.4,0.1-0.6,0.1-0.7c0.1-0.3,0.6-0.5,0.8-0.3c0.1,0.1,0.3,0.2,0.4,0.3c1.8,2.5,3.4,5.1,4.2,8.1
	c0.9,3.4,1.3,6.8,1.7,10.3c0,0.1,0,0.2,0,0.3c-0.1,0.1-0.2,0.3-0.3,0.4c-0.1,0-0.4,0-0.4-0.1c-0.6-0.6-1-1.4-1.3-2.2
	c-0.7-1.8-1.5-3.6-2.1-5.5c-0.9-2.7-1.8-5.5-2.6-8.3C197.5,129,197.5,128.1,197.4,127.5L197.4,127.5z"/>
<path d="M217.5,136.3c-0.2,3.2,0,6.5-0.6,9.8c-0.1,0.4-0.1,0.8-0.3,1.2c-0.1,0.2-0.4,0.4-0.6,0.1c-0.2-0.3-0.5-0.7-0.6-1.1
	c-0.5-1.5-0.7-3.2-0.8-4.8c-0.2-4.6,0.2-9.2,0.7-13.7c0.1-0.8,0.4-1.5,0.6-2.2c0-0.1,0.2-0.2,0.4-0.2c0.1,0,0.4,0.1,0.4,0.2
	c0.2,0.7,0.4,1.5,0.5,2.2C217.6,130.6,217.5,133.4,217.5,136.3L217.5,136.3z"/>
<path d="M224.6,211.1c-0.9-0.1-1.8-0.3-2.8-0.3c-3.6-0.3-7.1,2.4-7.8,5.9c-0.1,0.4-0.1,0.8-0.2,1.3c-0.1,0.3-0.1,0.7-0.6,0.7
	c-0.4,0-0.6-0.3-0.7-0.6c-0.7-2-1-4,0.5-5.8c0.5-0.6,0.8-1.3,1.3-1.9c1.4-1.7,3.2-2.4,5.4-2.1c0.5,0.1,1,0.1,1.5,0.3
	c1.9,0.4,3.8,0.9,5.7,1.4c0.2,0,0.3,0.2,0.2,0.4s-0.1,0.3-0.2,0.4C226.3,211,225.4,211,224.6,211.1L224.6,211.1z"/>
<path d="M281.4,172.9c-0.3-0.2-0.5-0.4-0.4-0.6c0.2-0.5,0.5-1.1,0.8-1.6c3.2-4.3,7.3-7.5,12.3-9.6c0.2-0.1,0.5-0.1,0.7,0
	c0.4,0.2,0.2,0.6,0,0.9c-0.4,0.6-0.9,1.3-1.4,1.8c-3.6,3.3-7.3,6.3-11.5,8.9C281.9,172.8,281.6,172.9,281.4,172.9L281.4,172.9z"/>
<path d="M284.4,153.1c0.3,0.3,0.1,0.6-0.1,0.9c-1.1,1.8-2.1,3.7-3.3,5.5c-2,3.2-3.9,6.4-5.4,9.8c-0.1,0.2-0.2,0.5-0.4,0.6
	c-0.1,0.1-0.3,0.1-0.5,0.1c-0.1,0-0.3-0.2-0.4-0.3c-0.3-0.8-0.2-1.7,0-2.5c1.5-5.9,4.7-10.7,9.8-14.2
	C284.2,153,284.3,153.1,284.4,153.1L284.4,153.1z"/>
<polygon points="220.3,275 220.4,274.9 220.5,274.9 "/>
<path d="M265.3,429.2c0.2-0.1,0.2-0.3,0-0.4c0,0-0.2,0-0.2,0.1C265.1,429,265.2,429.1,265.3,429.2
	C265.4,429.1,265.3,429.2,265.3,429.2z"/>
<path d="M202.9,404c-0.2-0.1-0.3-0.1-0.5-0.2C202.6,403.9,202.8,404,202.9,404C203,404,202.9,404,202.9,404z"/>
<path d="M194.9,212.1c0.1,0,0.1,0.1,0.2,0.1v0.1C195,212.3,195,212.2,194.9,212.1C195,212.1,194.9,212.1,194.9,212.1L194.9,212.1z"
	/>
<path d="M288.7,438.1L288.7,438.1C288.6,438,288.6,438,288.7,438.1C288.6,438,288.7,438.1,288.7,438.1z"/>
</svg>
