<?xml version="1.0" encoding="utf-8"?>
<!-- Generator: Adobe Illustrator 22.1.0, SVG Export Plug-In . SVG Version: 6.00 Build 0)  -->
<svg version="1.1" id="Layer_1" xmlns="http://www.w3.org/2000/svg" xmlns:xlink="http://www.w3.org/1999/xlink" x="0px" y="0px"
	 viewBox="0 0 612 792" style="enable-background:new 0 0 612 792;" xml:space="preserve">
<path style="fill:none;stroke:#000000;stroke-width:2;stroke-linecap:round;stroke-linejoin:round;stroke-miterlimit:10;" d="
	M141.9,455.9c-2,2-3.7,4-6.9,4.7s-6.2,2.6-9.2,4.2c-1.3,0.7-1.7,2-1.7,3.6c0.4,17.7,0.7,35.4,1,53.2c0,1.6,0.3,3.3,0.7,4.9
	c0.4,1.5,0.5,2.9-0.7,3.9c-1,0.9-0.6,2-0.6,3c0.1,4.2,0.7,8.3,0.6,12.5c-0.2,6.1-0.6,12.3-1.3,18.4c-0.5,4.7-1.3,9.4-2.3,14.1
	c-0.5,2.3,0.1,4,1.7,5.2c2,1.6,4,3.4,6.9,3.7c3.3,0.4,6.5,1.7,9.9,1.6c2,0,3,0.9,3,3c0,2.2,0,4.4,0,6.6c0,1.5-0.2,2.8-2,3.5
	c-0.6,0.2-1.1,0.9-1.7,1.4c-5.2,4.8-13.3,4.9-18.4,0c-2.4-2.3-1.8-5-1-7.9c0.5-1.8,1.3-3.1,3.3-3.2c0.5,0,1.1,0.4,1.6,0.6"/>
<path style="fill:none;stroke:#000000;stroke-width:2;stroke-linecap:round;stroke-linejoin:round;stroke-miterlimit:10;" d="
	M197.4,464.1c6.2,1.4,9.7,5.3,10.8,11.5c1.3,7.2,2.8,14.4,3.9,21.7c1.1,8.1,1.9,16.2,2.7,24.3c1.4,15.3,2.2,30.6,1.9,45.9
	c-0.1,7.2-0.6,14.5-1.5,21.7c-0.3,2.7-1.4,3.3-3.7,2.6c-2.7-0.7-5.6-0.7-8.2-2"/>
<path style="fill:none;stroke:#000000;stroke-width:2;stroke-linecap:round;stroke-linejoin:round;stroke-miterlimit:10;" d="
	M185.9,576.7c-3.7,0.8-5.6,3.8-7.1,6.6c-2.5,4.6-3.9,9.7-4.5,15c-0.7,7.7-1.3,15.3-2,23c-1.1,11.8-1.8,23.7-4.1,35.5
	c-1.5,7.6-2.5,15.3-5,22.6c4.3,3.5,4.4,3.6,2.6,8.5c-1.1,3-2.4,6-3.1,9.2c-0.2,0.9-0.3,2.1-1.8,2.3s-1.7-0.9-2.3-1.7
	c-4-5.2-9.3-8.6-15.4-10.8c-3.4-1.2-6.5,0.2-7.8,3.6c-0.5,1.3-1.4,2.1-2.3,3c-2.9,2.6-6.2,4.7-8.9,7.5c-1.7,1.7-3.9,2.8-3.3,6
	c0.7,3.5,3.2,4.7,6,5.5c4.3,1.2,8.6,2.5,13.1,2.3c1.8-0.1,2.8,1.2,4.2,1.8c1.2-1.1,2.4-1.9,4-2.1c8.4-1,8.4-1.8,10.2-9.8
	c0.4-1.7,1.1-3.3,1.6-4.9"/>
<path style="fill:none;stroke:#000000;stroke-width:2;stroke-linecap:round;stroke-linejoin:round;stroke-miterlimit:10;" d="
	M204.9,484.8c1.7,10.6,3.3,21.1,4,31.8c1.2,18,2.2,36.1,1.8,54.2c-0.1,4.5,0.7,9.3-2.2,13.5"/>
<path style="fill:none;stroke:#000000;stroke-width:2;stroke-linecap:round;stroke-linejoin:round;stroke-miterlimit:10;" d="
	M135.3,490.1c2,7.1,3.2,14.3,4,21.7c1.8,15.5,2.1,31.1,3.2,46.6c0.6,9.5-1.1,19-0.6,28.6c0,0.5-0.4,1.1-0.6,1.6"/>
<path style="fill:none;stroke:#000000;stroke-width:2;stroke-linecap:round;stroke-linejoin:round;stroke-miterlimit:10;" d="
	M162.6,698.5c6.3,0,11.6-2.7,16.7-5.9c1.9-1.2,3.7-2.3,5.9-3c2.6-0.8,5.2-0.3,6.8,1.7c5.6,6.6,13.3,9.3,21.1,12.1
	c1.5,0.6,3.2,0.9,4.5,1.7c1.2,0.8,2.7,1.8,1.7,3.9c-1,1.9-1.3,4.4-4.3,4.3c-8.4-0.3-16.8-0.7-25.3-1c-4.9-0.1-9.1-1.5-12.5-5.2
	c-0.7-0.8-2-1.2-3.2-1"/>
<path style="fill:none;stroke:#000000;stroke-width:2;stroke-linecap:round;stroke-linejoin:round;stroke-miterlimit:10;" d="
	M140.6,301.7c4.8-0.1,6.3,0.1,6.9,6.2c0.2,2.3,0.8,4.4,0.1,6.9c-0.8,3-2.7,3.7-5.1,4.2c-3.6,0.7-6.8-0.5-10.2-1.5
	c-9.1-2.6-17.6,1.1-22.6,8.4c-3.5,5.1-4.9,10.6-4.6,16.8c0.2,3.4-0.4,2.7-3.5,4.8c-3.8,2.6-7.7,5.6-9,10.7c-0.9,3.5,0.1,6.8,2.1,9.5
	c6,8.5,11.1,17.4,15.7,26.6"/>
<path style="fill:none;stroke:#000000;stroke-width:2;stroke-linecap:round;stroke-linejoin:round;stroke-miterlimit:10;" d="
	M167.5,394.9c0-2.1,0.7-3.8,1.9-5.6c1.1-1.7,2.2-3.4,3.5-4.9"/>
<path style="fill:none;stroke:#000000;stroke-width:2;stroke-linecap:round;stroke-linejoin:round;stroke-miterlimit:10;" d="
	M177.7,378.9c2-2,4.2-3.9,6.5-5.8c6.6-5.3,14.1-8.6,22.1-11c4.7-1.4,9.5,1,10.5,5.2c0.9,3.8,0.9,7.7,0,11.5
	c-2.9,11.6-9.2,20.3-20.6,25c-6.7,2.8-13.1,4.2-20.1,1.6"/>
<path style="fill:none;stroke:#000000;stroke-width:2;stroke-linecap:round;stroke-linejoin:round;stroke-miterlimit:10;" d="
	M142.9,601.7c1.7,1.6,1.1,3.7,0.9,5.6c-0.5,7.8,0,15.5-0.3,23.3c-0.2,6.9-0.3,13.8-1.1,20.7c-0.3,2.3-0.3,4.6-1,7
	c-0.6,2-0.9,4.6,1.1,6.5c1.4,1.4,1.2,3.2,0.7,4.9"/>
<path style="fill:none;stroke:#000000;stroke-width:2;stroke-linecap:round;stroke-linejoin:round;stroke-miterlimit:10;" d="
	M200.3,402.8c2.2,5.5,1.9,11.4,1.6,17.1c-0.6,8.9-2.5,17.5-7.1,25.3c-4.3,7.3-10.4,12.8-17.1,17.7c-0.1,0.1-0.4,0-0.6,0
	c-7.5-0.1-8.8,6.3-11.5,11.2c-0.8,1.4-1.7,2.7-2.6,3.9c-2.8,3.7-2.2,7.5,0,11.2c2.4,3.9,4.7,7.9,7.2,11.7c2.6,3.9,4.5,8.6,6.6,12.9
	c2.6,5.4,4.6,11.1,8,16.2c1.5,2.2,1,6.2,2.3,9c1.1,2.3,2.1,4.4,1.8,6.9c-0.4,4.1-1.3,8.1-1.8,12.2c-0.6,5-3.1,7.4-7.7,8.9
	c-8.5,2.9-15.7,8.3-23,13.4c-4.2,2.9-8.1,6.1-12.2,9.2"/>
<path style="fill:none;stroke:#000000;stroke-width:2;stroke-linecap:round;stroke-linejoin:round;stroke-miterlimit:10;" d="
	M203.9,584.6c-2.2,2-0.9,4.9-1.5,7.3c-1.2,5.1-1.6,10.5-1.7,15.7c-0.2,6.4-1.5,12.7-1.7,19c-0.3,6.3-0.8,12.5-1.7,18.7
	c-0.6,3.9-1.9,7.7-1.7,11.8c0.1,1.3-0.5,3.1-2.2,3.6c-3.2,0.9-4.6,3.5-5.9,6.3"/>
<path style="fill:none;stroke:#000000;stroke-width:2;stroke-linecap:round;stroke-linejoin:round;stroke-miterlimit:10;" d="
	M195.7,484.2c-0.4,2,1.4,2.9,2.4,3.9c4.2,4,4.4,8.8,3.5,13.9c-1.2,6.6-2.4,13.2-3.9,19.7c-1.7,7.2-4.2,14.1-8.8,20"/>
<path style="fill:none;stroke:#000000;stroke-width:2;stroke-linecap:round;stroke-linejoin:round;stroke-miterlimit:10;" d="
	M152.4,482.2c-3.8,2.3-4.8,6.6-7.2,9.9c-0.7,0.9-0.3,1.9,0.6,3c6.1,7.8,12.1,15.7,18.1,23.6c7.1,9.3,14.2,18.6,21.3,27.9
	c0.7,0.9,1.4,1.8,2.6,2"/>
<path style="fill:none;stroke:#000000;stroke-width:2;stroke-linecap:round;stroke-linejoin:round;stroke-miterlimit:10;" d="
	M187.2,473.3c1.9,0.6,2.8,1.8,3,3.9c0.9,7.6,2.5,15.3,1.2,23c-1.6,9-1.1,18.3-4.8,27c-0.3,0.7-0.7,1.1-1,1.6"/>
<path style="fill:none;stroke:#000000;stroke-width:2;stroke-linecap:round;stroke-linejoin:round;stroke-miterlimit:10;" d="
	M190.5,325.3c-1,3.4,0.5,7.1-1.3,10.5c-1.8,3.3-4.3,5.7-7.9,6.5c-3.7,0.8-7.6,0.8-11.3,2c-1,0.3-2.3-0.4-3.4-0.6
	c-5.5-0.6-10.9-0.8-16.4-1.2c-4.1-0.3-8.3-1-12.5-0.8c-6.2,0.3-11.8,1.7-16.1,6.6"/>
<path style="fill:none;stroke:#000000;stroke-width:2;stroke-linecap:round;stroke-linejoin:round;stroke-miterlimit:10;" d="
	M168.1,373.9c-1.6-6.4-8.7-9.3-12.8-5.3c-5.8,5.6-4.3,19.1,2.7,22.9c2.1,1.2,4.7,1,7.2,0.4c0.7-0.2,1.5-0.9,2.3,0"/>
<path style="fill:none;stroke:#000000;stroke-width:2;stroke-linecap:round;stroke-linejoin:round;stroke-miterlimit:10;" d="
	M111,403.4c4.7,1,7.4,4.3,9.5,8.2c6.4,12.1,13,24,18.7,36.4c1.2,2.7,0.9,6.3,4,7.8c2.7,1.3,5.7,2,8.5,3c5.1,1.9,10.3,3.3,15.8,3.9
	c1.3,0.1,2.2,0.7,3,1.7"/>
<path style="fill:none;stroke:#000000;stroke-width:2;stroke-linecap:round;stroke-linejoin:round;stroke-miterlimit:10;" d="
	M116.9,397.5c-4.2-4.4-7.2-4.1-11.2,1c-5,6.3-2,15.4,4,18.7c3.9,2.2,7.7,1.3,10.5-2.3c0.3-0.4,0.7-0.8,1.3-0.7"/>
<path style="fill:none;stroke:#000000;stroke-width:2;stroke-linecap:round;stroke-linejoin:round;stroke-miterlimit:10;" d="
	M137.1,460.9c-0.2,5.6-0.4,11.2-0.5,16.7c0,1.4,0.1,2.9,0.3,4.3c0.4,2.6,2,3.5,4.6,3.7c2.3,0.1,4.6-0.7,6.9,0.3"/>
<path style="fill:none;stroke:#000000;stroke-width:2;stroke-linecap:round;stroke-linejoin:round;stroke-miterlimit:10;" d="
	M151.1,675.2c-1.9-3.8-5.4-4.8-9.2-4.9c-3.9-0.2-7.1,1-8.5,4.9c-1.3,3.6-1.8,7.3-1.7,11.1c0.1,2.5,2.1,2.6,3.9,3"/>
<path style="fill:none;stroke:#000000;stroke-width:2;stroke-linecap:round;stroke-linejoin:round;stroke-miterlimit:10;" d="
	M152.7,416.5c-0.4,7.2,4.7,17.4,13.1,19.7c1.6,0.4,3.2,0.5,4.9,0.1c1.5-0.4,3.1-0.5,4.6-0.7"/>
<path style="fill:none;stroke:#000000;stroke-width:2;stroke-linecap:round;stroke-linejoin:round;stroke-miterlimit:10;" d="
	M115.6,352.9c6.1,3.3,10.3,8.5,12.9,14.5c1.3,3.1-0.4,7.2-1.4,10.7c-1.2,4.2-2.2,8.5-3.3,12.8c-0.3,1.2,0.5,2.2,1,3.3"/>
<path style="fill:none;stroke:#000000;stroke-width:2;stroke-linecap:round;stroke-linejoin:round;stroke-miterlimit:10;" d="
	M140.9,458.2c4.3,7.9,9.1,15.5,15.8,21.7c1.2,1.1,2.2,2.4,3.9,2.6"/>
<path style="fill:none;stroke:#000000;stroke-width:2;stroke-linecap:round;stroke-linejoin:round;stroke-miterlimit:10;" d="
	M170.1,345c3.1,4.7,7.4,8.5,10.2,13.4c2.3,3.9,5,7.6,6.9,11.8"/>
<path style="fill:none;stroke:#000000;stroke-width:2;stroke-linecap:round;stroke-linejoin:round;stroke-miterlimit:10;" d="
	M186.2,564.2c5.9,3.4,11.4,7.1,15.8,12.5c1.4,1.7,3.2,3.1,3.3,5.6c0,1,1.1,1.2,1.3,1.2c1.9,0.2,2.2,1.8,2.9,3"/>
<path style="fill:none;stroke:#000000;stroke-width:2;stroke-linecap:round;stroke-linejoin:round;stroke-miterlimit:10;" d="
	M213.1,592.5c0.3,5.2-1.7,9.9-3,14.8c-0.5,2-2,3.1-4.2,3c-1.4-0.1-2.8,0.2-4.3,0.3"/>
<path style="fill:none;stroke:#000000;stroke-width:2;stroke-linecap:round;stroke-linejoin:round;stroke-miterlimit:10;" d="
	M180.6,671.2c0.1-3.5,3.4-2.7,5.3-3.9c1.8-1.1,2.4,0.5,3.3,1.6c5,6,5.7,14.2,2.3,21.3"/>
<path style="fill:none;stroke:#000000;stroke-width:2;stroke-linecap:round;stroke-linejoin:round;stroke-miterlimit:10;" d="
	M178,313.6c-1.7-0.2-1.4-1.6-1.7-2.8c-1.6-8.5-4-10.8-11.5-13.1c-1-0.3-2.3-0.3-2.9,0.9"/>
<path style="fill:none;stroke:#000000;stroke-width:2;stroke-linecap:round;stroke-linejoin:round;stroke-miterlimit:10;" d="
	M178.7,313.1c1.6-1.4,0.9-3.6,1.8-5.9c3.7,2,5.3,5.3,6.3,8.8c0.8,2.9,1,5.8,0.4,8.9c-0.2,1.1-0.4,2.4,0.3,3.6"/>
<path style="fill:none;stroke:#000000;stroke-width:2;stroke-linecap:round;stroke-linejoin:round;stroke-miterlimit:10;" d="
	M166.2,475.3c0.4,0.7,0.8,1.4,1.3,2c4,4.9,5.3,5.3,14.5,3.9c2.8,3,2.9,7.2,4.2,10.8c1.3,3.7,1.2,7.7,3.3,11.2"/>
<path style="fill:none;stroke:#000000;stroke-width:2;stroke-linecap:round;stroke-linejoin:round;stroke-miterlimit:10;" d="
	M187.5,455.9c0.5,0.1,1.3,0,1.6,0.4c2.7,2.5,5.3,5,7.9,7.5c-0.8,5.4,3.3,9.6,3.3,14.8c0,3.5-2.6,5.5-6.6,4.9"/>
<path style="fill:none;stroke:#000000;stroke-width:2;stroke-linecap:round;stroke-linejoin:round;stroke-miterlimit:10;" d="
	M163.2,700.8c1.3,2.8,0.9,5.9,1,8.8c8.8,2,8.8,0,9.3-4.9"/>
<path style="fill:none;stroke:#000000;stroke-width:2;stroke-linecap:round;stroke-linejoin:round;stroke-miterlimit:10;" d="
	M187.5,407.3c0.3,4.2,2.1,7.9,3.3,11.9c-2.7,3-6.5,3.8-10.2,4.4c-1.8,0.3-3.7,0.8-5.6,0.8c-8.3-0.1-15.6-2.9-22-8.3
	c-1.4-1.2-1.7-3.1-2-4.9s-0.3-3.7-0.4-5.6"/>
<path style="fill:none;stroke:#000000;stroke-width:2;stroke-linecap:round;stroke-linejoin:round;stroke-miterlimit:10;" d="
	M173.1,482.5c-0.3,3.8-0.7,7.7-1,11.5c-0.1,1.8,0.1,3.6-1,5.3"/>
<path style="fill:none;stroke:#000000;stroke-width:2;stroke-linecap:round;stroke-linejoin:round;stroke-miterlimit:10;" d="
	M160.9,309.2c-2.4-2.3-3.6-5.9-6.9-7.1c-2.1-0.8-4.3-3-6.9-0.7"/>
<path style="fill:none;stroke:#000000;stroke-width:2;stroke-linecap:round;stroke-linejoin:round;stroke-miterlimit:10;" d="
	M192.4,460.9c-1.1,2.6-0.6,5.5-0.9,8.2c-0.2,2-0.4,3.9-2,5.2"/>
<path style="fill:none;stroke:#000000;stroke-width:2;stroke-linecap:round;stroke-linejoin:round;stroke-miterlimit:10;" d="
	M177.7,463.1c1.4,1.7,3.8,1.9,5.2,3.3c2.7,2.7,5,5.7,2.9,9.8c-0.9,1.8-0.9,4.3-3.2,5.3"/>
<path style="fill:none;stroke:#000000;stroke-width:2;stroke-linecap:round;stroke-linejoin:round;stroke-miterlimit:10;" d="
	M112.3,333.2c-0.8,2.3-1.7,4.6-2.2,6.9c-0.3,1.3-0.5,3,0.6,4.3"/>
<path style="fill:none;stroke:#000000;stroke-width:2;stroke-linecap:round;stroke-linejoin:round;stroke-miterlimit:10;" d="
	M166.2,368.9c3.3-3.4,6.9-3.5,10.5-0.3c1.7,1.5,2.9,3.5,4.3,5.3"/>
<path style="fill:none;stroke:#000000;stroke-width:2;stroke-linecap:round;stroke-linejoin:round;stroke-miterlimit:10;" d="
	M157,358.1c-4.1-0.7-6.5,0.9-9.2,5.9"/>
<path style="fill:none;stroke:#000000;stroke-width:2;stroke-linecap:round;stroke-linejoin:round;stroke-miterlimit:10;" d="
	M171.8,425.1c-0.9,3.5-0.9,7,0,10.5"/>
<path style="fill:none;stroke:#000000;stroke-width:2;stroke-linecap:round;stroke-linejoin:round;stroke-miterlimit:10;" d="
	M177.3,314.1c-1,3.4-1.4,7-4.6,9.2"/>
<path style="fill:none;stroke:#000000;stroke-width:2;stroke-linecap:round;stroke-linejoin:round;stroke-miterlimit:10;" d="
	M124.2,404.1c-0.1,0.7,0.5,1.1,0.7,1.6c1.6,3.5,3.6,3.8,6.5,1.4c1-0.9,0.9-2,0.3-2.9c-1.1-1.8-2.4-3.5-3.6-5.3"/>
<path style="fill:none;stroke:#000000;stroke-width:2;stroke-linecap:round;stroke-linejoin:round;stroke-miterlimit:10;" d="
	M112.3,342.4c-1.6,5.6-1.3,5.9,4.6,5.9"/>
<path style="fill:none;stroke:#000000;stroke-width:2;stroke-linecap:round;stroke-linejoin:round;stroke-miterlimit:10;" d="
	M159.6,298.4c3.5,2,4.8,5.9,2.5,9.1c-1.5,2.1-1.2,5.2-3.9,6.6"/>
<path style="fill:none;stroke:#000000;stroke-width:2;stroke-linecap:round;stroke-linejoin:round;stroke-miterlimit:10;" d="
	M153.7,404.7c-2.8,0.6-6.3-0.4-7.9,3.3"/>
<path style="fill:none;stroke:#000000;stroke-width:2;stroke-linecap:round;stroke-linejoin:round;stroke-miterlimit:10;" d="
	M126.5,587.2c-1.7,2.7-1.3,5.6-0.7,8.5"/>
<path style="fill:none;stroke:#000000;stroke-width:2;stroke-linecap:round;stroke-linejoin:round;stroke-miterlimit:10;" d="
	M173.4,358.8c-1.8-0.8-3.7-1-5.6-1"/>
<path style="fill:none;stroke:#000000;stroke-width:2;stroke-linecap:round;stroke-linejoin:round;stroke-miterlimit:10;" d="
	M179.6,481.9c0.1,3,0.2,5.9,0.3,8.9"/>
<path style="fill:none;stroke:#000000;stroke-width:2;stroke-linecap:round;stroke-linejoin:round;stroke-miterlimit:10;" d="
	M134.7,319.7c-1.2,0.9-2.4,1.6-3.9,1.6"/>
<path style="fill:none;stroke:#000000;stroke-width:2;stroke-linecap:round;stroke-linejoin:round;stroke-miterlimit:10;" d="
	M111,347.9c-0.8,1.2-2.1,1-3.3,1"/>
<ellipse transform="matrix(0.9851 -0.172 0.172 0.9851 -63.0438 34.002)" style="fill:none;stroke:#000000;stroke-width:2;stroke-linecap:round;stroke-linejoin:round;stroke-miterlimit:10;" cx="164.7" cy="380.8" rx="4.6" ry="7.4"/>
<path style="fill:none;stroke:#000000;stroke-width:2;stroke-linecap:round;stroke-linejoin:round;stroke-miterlimit:10;" d="
	M177.7,378.9c-1.7,1.7-3.3,3.5-4.8,5.4c-1.5-0.8-2.8-2.8-3.2-5.4c-0.6-3.5,0.7-6.7,2.8-7.1c2.2-0.4,4.5,2.2,5.1,5.7
	C177.6,378,177.6,378.5,177.7,378.9z"/>
<path style="fill:none;stroke:#000000;stroke-width:2;stroke-linecap:round;stroke-linejoin:round;stroke-miterlimit:10;" d="
	M418.6,318c-3.1,3-5.6,6.1-10.4,7.2c-4.9,1.1-9.5,4-14,6.3c-2,1-2.6,3-2.6,5.4c0.6,27,1,54,1.6,81c0.1,2.5,0.4,5.1,1,7.5
	c0.6,2.3,0.7,4.4-1.1,6c-1.5,1.4-1,3-0.9,4.5c0.2,6.3,1,12.7,0.9,19c-0.3,9.3-1,18.7-2,28c-0.8,7.2-2,14.4-3.5,21.5
	c-0.7,3.4,0.2,6,2.6,8c3.1,2.4,6.2,5.1,10.4,5.6c5,0.6,9.9,2.5,15,2.5c3.1,0,4.5,1.4,4.5,4.5c0,3.3,0,6.7,0,10c0,2.3-0.4,4.3-3,5.3
	c-1,0.4-1.7,1.4-2.5,2.2c-7.9,7.3-20.3,7.4-28,0c-3.6-3.5-2.8-7.7-1.6-12c0.8-2.8,2-4.8,5.1-4.9c0.8,0,1.7,0.6,2.5,0.9"/>
<path style="fill:none;stroke:#000000;stroke-width:2;stroke-linecap:round;stroke-linejoin:round;stroke-miterlimit:10;" d="
	M503.1,330.5c9.4,2.2,14.8,8,16.5,17.5c2,11,4.3,22,5.9,33c1.7,12.3,3,24.6,4.1,37c2.1,23.3,3.3,46.6,2.9,70c-0.2,11-0.9,22-2.3,33
	c-0.5,4-2.1,5-5.6,4c-4.1-1.1-8.6-1-12.5-3"/>
<path style="fill:none;stroke:#000000;stroke-width:2;stroke-linecap:round;stroke-linejoin:round;stroke-miterlimit:10;" d="
	M485.6,502c-5.6,1.2-8.5,5.8-10.8,10.1c-3.9,7-6,14.7-6.8,22.9c-1.1,11.7-1.9,23.3-3.1,35c-1.7,18-2.8,36.2-6.3,54
	c-2.2,11.6-3.8,23.3-7.6,34.5c6.5,5.4,6.7,5.5,3.9,13c-1.7,4.6-3.6,9.2-4.8,14c-0.3,1.4-0.4,3.2-2.7,3.6c-2.2,0.3-2.6-1.3-3.5-2.5
	c-6.1-7.9-14.2-13.1-23.5-16.5c-5.1-1.8-9.9,0.4-11.9,5.5c-0.8,2-2.1,3.2-3.6,4.5c-4.4,4-9.5,7.1-13.6,11.4c-2.5,2.6-6,4.3-5,9.1
	c1,5.3,4.9,7.2,9.1,8.4c6.5,1.9,13.1,3.8,20,3.5c2.7-0.1,4.3,1.8,6.3,2.7c1.9-1.7,3.6-2.9,6.2-3.2c12.8-1.5,12.8-2.7,15.5-14.9
	c0.6-2.6,1.6-5,2.5-7.5"/>
<path style="fill:none;stroke:#000000;stroke-width:2;stroke-linecap:round;stroke-linejoin:round;stroke-miterlimit:10;" d="
	M514.6,362c2.6,16.1,5.1,32.2,6.2,48.5c1.9,27.5,3.4,55,2.7,82.5c-0.2,6.9,1.1,14.2-3.4,20.5"/>
<path style="fill:none;stroke:#000000;stroke-width:2;stroke-linecap:round;stroke-linejoin:round;stroke-miterlimit:10;" d="
	M408.6,370c3.1,10.8,4.8,21.8,6.1,33c2.8,23.6,3.3,47.3,4.8,71c1,14.5-1.6,29-1,43.5c0,0.8-0.6,1.7-1,2.5"/>
<path style="fill:none;stroke:#000000;stroke-width:2;stroke-linecap:round;stroke-linejoin:round;stroke-miterlimit:10;" d="
	M450.1,687.5c9.6,0,17.7-4.1,25.5-9c2.9-1.8,5.7-3.6,9-4.5c4-1.2,7.8-0.5,10.4,2.6c8.5,10.1,20.3,14.2,32.1,18.4
	c2.3,0.8,4.9,1.3,6.9,2.6c1.9,1.2,4.2,2.8,2.6,5.9c-1.5,3-2,6.7-6.5,6.5c-12.8-0.5-25.7-1.1-38.5-1.5c-7.5-0.2-13.9-2.2-19.1-8
	c-1.1-1.2-3-1.8-4.9-1.6"/>
<path style="fill:none;stroke:#000000;stroke-width:2;stroke-linecap:round;stroke-linejoin:round;stroke-miterlimit:10;" d="
	M416.6,83c7.3-0.2,9.6,0.1,10.6,9.5c0.4,3.5,1.2,6.8,0.2,10.6c-1.2,4.5-4.1,5.7-7.7,6.4c-5.4,1.1-10.3-0.8-15.6-2.3
	c-13.8-3.9-26.8,1.7-34.5,12.8c-5.4,7.7-7.4,16.2-7,25.5c0.2,5.2-0.7,4.1-5.3,7.3c-5.8,3.9-11.8,8.5-13.7,16.2
	c-1.4,5.4,0.2,10.3,3.1,14.4c9.1,12.9,16.9,26.5,23.9,40.6"/>
<path style="fill:none;stroke:#000000;stroke-width:2;stroke-linecap:round;stroke-linejoin:round;stroke-miterlimit:10;" d="
	M457.6,225c0-3.2,1.1-5.8,2.9-8.6c1.6-2.6,3.4-5.1,5.3-7.5"/>
<path style="fill:none;stroke:#000000;stroke-width:2;stroke-linecap:round;stroke-linejoin:round;stroke-miterlimit:10;" d="
	M473.1,200.7c3.1-3.1,6.4-6,9.9-8.8c10.1-8.1,21.5-13.1,33.6-16.8c7.1-2.2,14.4,1.6,15.9,7.9c1.4,5.8,1.4,11.7,0,17.5
	c-4.4,17.7-13.9,30.9-31.4,38.1c-10.1,4.2-20,6.4-30.5,2.4"/>
<path style="fill:none;stroke:#000000;stroke-width:2;stroke-linecap:round;stroke-linejoin:round;stroke-miterlimit:10;" d="
	M420.1,540c2.6,2.5,1.6,5.7,1.4,8.5c-0.8,11.8-0.1,23.7-0.4,35.5c-0.3,10.5-0.5,21.1-1.7,31.5c-0.4,3.4-0.5,7.1-1.5,10.6
	c-0.9,3-1.4,7,1.7,10c2.2,2.1,1.9,4.8,1,7.5"/>
<path style="fill:none;stroke:#000000;stroke-width:2;stroke-linecap:round;stroke-linejoin:round;stroke-miterlimit:10;" d="
	M507.6,237c3.3,8.4,2.9,17.3,2.4,26c-0.8,13.5-3.8,26.6-10.8,38.5c-6.5,11.1-15.8,19.5-26.1,27c-0.2,0.2-0.7,0-1,0
	c-11.4-0.1-13.4,9.6-17.5,17c-1.2,2.1-2.5,4.1-4,6c-4.3,5.7-3.4,11.4,0.1,17c3.7,5.9,7.1,12,11,17.8c3.9,5.9,6.8,13,10,19.7
	c4,8.3,7,16.9,12.1,24.8c2.2,3.4,1.5,9.4,3.5,13.7c1.6,3.4,3.2,6.8,2.8,10.6c-0.6,6.2-2,12.4-2.7,18.5c-0.9,7.7-4.7,11.2-11.7,13.6
	c-12.9,4.5-23.9,12.6-35,20.4c-6.3,4.4-12.4,9.3-18.5,14"/>
<path style="fill:none;stroke:#000000;stroke-width:2;stroke-linecap:round;stroke-linejoin:round;stroke-miterlimit:10;" d="
	M513.1,514c-3.3,3.1-1.4,7.4-2.2,11.1c-1.8,7.8-2.5,15.9-2.7,23.9c-0.2,9.8-2.2,19.3-2.6,29c-0.4,9.5-1.2,19-2.5,28.5
	c-0.9,6-2.9,11.8-2.6,18c0.1,2-0.7,4.7-3.4,5.5c-4.9,1.4-7.1,5.3-9,9.5"/>
<path style="fill:none;stroke:#000000;stroke-width:2;stroke-linecap:round;stroke-linejoin:round;stroke-miterlimit:10;" d="
	M500.6,361c-0.7,3.1,2.1,4.5,3.6,5.9c6.4,6,6.7,13.4,5.3,21.1c-1.8,10-3.7,20.1-6,30c-2.5,11-6.4,21.5-13.4,30.5"/>
<path style="fill:none;stroke:#000000;stroke-width:2;stroke-linecap:round;stroke-linejoin:round;stroke-miterlimit:10;" d="
	M434.6,358c-5.7,3.5-7.3,10-10.9,15c-1,1.4-0.5,2.9,0.8,4.5c9.3,11.9,18.4,23.9,27.6,35.9c10.8,14.2,21.7,28.3,32.5,42.5
	c1,1.3,2.1,2.8,4,3"/>
<path style="fill:none;stroke:#000000;stroke-width:2;stroke-linecap:round;stroke-linejoin:round;stroke-miterlimit:10;" d="
	M487.6,344.5c2.9,1,4.2,2.8,4.6,6c1.4,11.6,3.9,23.3,1.8,35c-2.4,13.7-1.7,27.9-7.3,41.1c-0.4,1-1,1.7-1.6,2.5"/>
<path style="fill:none;stroke:#000000;stroke-width:2;stroke-linecap:round;stroke-linejoin:round;stroke-miterlimit:10;" d="
	M492.6,119c-1.5,5.2,0.8,10.9-2,16c-2.7,5.1-6.6,8.6-12.1,9.9c-5.7,1.3-11.6,1.3-17.3,3c-1.5,0.5-3.5-0.7-5.2-0.9
	c-8.3-0.9-16.7-1.1-25-1.8c-6.3-0.5-12.6-1.6-19-1.3c-9.5,0.4-18,2.7-24.5,10.1"/>
<path style="fill:none;stroke:#000000;stroke-width:2;stroke-linecap:round;stroke-linejoin:round;stroke-miterlimit:10;" d="
	M458.6,193c-2.5-9.7-13.2-14.1-19.5-8c-8.8,8.6-6.6,29.1,4.1,34.9c3.2,1.8,7.2,1.6,11,0.7c1.1-0.3,2.3-1.3,3.5-0.1"/>
<path style="fill:none;stroke:#000000;stroke-width:2;stroke-linecap:round;stroke-linejoin:round;stroke-miterlimit:10;" d="
	M371.6,238c7.2,1.5,11.3,6.6,14.5,12.5c9.8,18.4,19.7,36.6,28.6,55.5c1.9,4,1.4,9.6,6,11.9c4.1,2,8.6,3,12.9,4.6
	c7.8,2.9,15.8,5,24,6c1.9,0.2,3.4,1,4.5,2.5"/>
<path style="fill:none;stroke:#000000;stroke-width:2;stroke-linecap:round;stroke-linejoin:round;stroke-miterlimit:10;" d="
	M380.6,229c-6.4-6.7-11-6.2-17,1.5c-7.6,9.6-3.1,23.4,6,28.5c5.9,3.3,11.7,1.9,16-3.5c0.5-0.6,1-1.2,2-1"/>
<path style="fill:none;stroke:#000000;stroke-width:2;stroke-linecap:round;stroke-linejoin:round;stroke-miterlimit:10;" d="
	M411.4,325.5c-0.3,8.5-0.5,17-0.7,25.5c0,2.2,0.2,4.4,0.5,6.5c0.6,3.9,3.1,5.4,7,5.6c3.5,0.2,7.1-1.1,10.5,0.4"/>
<path style="fill:none;stroke:#000000;stroke-width:2;stroke-linecap:round;stroke-linejoin:round;stroke-miterlimit:10;" d="
	M432.6,652c-2.9-5.9-8.1-7.2-14-7.5c-5.9-0.2-10.8,1.5-12.9,7.5c-1.9,5.4-2.8,11.2-2.5,17c0.2,3.9,3.2,4,6,4.5"/>
<path style="fill:none;stroke:#000000;stroke-width:2;stroke-linecap:round;stroke-linejoin:round;stroke-miterlimit:10;" d="
	M435.1,258c-0.5,11,7.2,26.6,20,30c2.5,0.7,4.9,0.8,7.5,0.1c2.3-0.6,4.6-0.7,7-1.1"/>
<path style="fill:none;stroke:#000000;stroke-width:2;stroke-linecap:round;stroke-linejoin:round;stroke-miterlimit:10;" d="
	M378.6,161c9.2,5,15.7,13,19.6,22.2c2,4.7-0.6,10.9-2.1,16.3c-1.8,6.5-3.4,13-5,19.5c-0.5,1.9,0.7,3.4,1.5,5"/>
<path style="fill:none;stroke:#000000;stroke-width:2;stroke-linecap:round;stroke-linejoin:round;stroke-miterlimit:10;" d="
	M417.1,321.5c6.5,12.1,13.8,23.6,24,33c1.8,1.7,3.3,3.7,6,4"/>
<path style="fill:none;stroke:#000000;stroke-width:2;stroke-linecap:round;stroke-linejoin:round;stroke-miterlimit:10;" d="
	M461.6,149c4.7,7.2,11.2,13,15.5,20.5c3.5,6,7.6,11.6,10.5,18"/>
<path style="fill:none;stroke:#000000;stroke-width:2;stroke-linecap:round;stroke-linejoin:round;stroke-miterlimit:10;" d="
	M486.1,483c8.9,5.2,17.4,10.9,24,19c2.1,2.6,4.9,4.8,5,8.5c0,1.5,1.7,1.8,2,1.9c2.9,0.3,3.4,2.8,4.5,4.6"/>
<path style="fill:none;stroke:#000000;stroke-width:2;stroke-linecap:round;stroke-linejoin:round;stroke-miterlimit:10;" d="
	M527.1,526c0.4,7.9-2.5,15.1-4.6,22.5c-0.8,3-3,4.7-6.4,4.6c-2.2-0.1-4.3,0.3-6.5,0.4"/>
<path style="fill:none;stroke:#000000;stroke-width:2;stroke-linecap:round;stroke-linejoin:round;stroke-miterlimit:10;" d="
	M477.6,646c0.1-5.4,5.2-4.2,8-6c2.8-1.7,3.6,0.8,5,2.4c7.6,9.1,8.7,21.6,3.5,32.5"/>
<path style="fill:none;stroke:#000000;stroke-width:2;stroke-linecap:round;stroke-linejoin:round;stroke-miterlimit:10;" d="
	M473.6,101.3c-2.7-0.3-2.2-2.4-2.5-4.2c-2.4-12.9-6.2-16.5-17.5-19.9c-1.5-0.5-3.4-0.5-4.5,1.4"/>
<path style="fill:none;stroke:#000000;stroke-width:2;stroke-linecap:round;stroke-linejoin:round;stroke-miterlimit:10;" d="
	M474.6,100.5c2.5-2.2,1.4-5.4,2.8-8.9c5.7,3,8.1,8.1,9.7,13.5c1.3,4.4,1.5,8.9,0.7,13.5c-0.3,1.7-0.6,3.7,0.4,5.5"/>
<path style="fill:none;stroke:#000000;stroke-width:2;stroke-linecap:round;stroke-linejoin:round;stroke-miterlimit:10;" d="
	M455.6,347.5c0.7,1,1.3,2.1,2,3c6.1,7.5,8,8,22.1,6c4.3,4.6,4.5,10.9,6.5,16.5s1.8,11.8,5,17"/>
<path style="fill:none;stroke:#000000;stroke-width:2;stroke-linecap:round;stroke-linejoin:round;stroke-miterlimit:10;" d="
	M488.1,318c0.8,0.2,1.9,0.1,2.5,0.5c4.1,3.8,8,7.6,12,11.5c-1.3,8.2,5,14.6,5,22.5c0,5.4-3.9,8.4-10,7.5"/>
<path style="fill:none;stroke:#000000;stroke-width:2;stroke-linecap:round;stroke-linejoin:round;stroke-miterlimit:10;" d="
	M451.1,691c2,4.3,1.3,9,1.5,13.4c13.4,3.1,13.5,0,14.2-7.4"/>
<path style="fill:none;stroke:#000000;stroke-width:2;stroke-linecap:round;stroke-linejoin:round;stroke-miterlimit:10;" d="
	M488.1,244c0.4,6.3,3.3,12,5,18.1c-4.1,4.6-9.9,5.8-15.6,6.7c-2.8,0.4-5.6,1.2-8.5,1.2c-12.7-0.2-23.8-4.4-33.4-12.6
	c-2.1-1.8-2.6-4.8-3-7.4c-0.4-2.8-0.4-5.7-0.6-8.5"/>
<path style="fill:none;stroke:#000000;stroke-width:2;stroke-linecap:round;stroke-linejoin:round;stroke-miterlimit:10;" d="
	M466.1,358.5c-0.5,5.8-1.1,11.7-1.5,17.5c-0.2,2.7,0.1,5.6-1.5,8"/>
<path style="fill:none;stroke:#000000;stroke-width:2;stroke-linecap:round;stroke-linejoin:round;stroke-miterlimit:10;" d="
	M447.6,94.5c-3.7-3.5-5.5-9-10.5-10.9c-3.2-1.2-6.6-4.6-10.5-1.1"/>
<path style="fill:none;stroke:#000000;stroke-width:2;stroke-linecap:round;stroke-linejoin:round;stroke-miterlimit:10;" d="
	M495.6,325.5c-1.6,4-1,8.3-1.4,12.5c-0.4,3-0.6,5.9-3.1,8"/>
<path style="fill:none;stroke:#000000;stroke-width:2;stroke-linecap:round;stroke-linejoin:round;stroke-miterlimit:10;" d="
	M473.1,329c2.1,2.5,5.7,2.8,8,5c4.2,4.1,7.6,8.7,4.5,14.9c-1.4,2.8-1.4,6.5-4.9,8"/>
<path style="fill:none;stroke:#000000;stroke-width:2;stroke-linecap:round;stroke-linejoin:round;stroke-miterlimit:10;" d="
	M373.6,131c-1.2,3.5-2.6,6.9-3.4,10.5c-0.4,2-0.8,4.5,0.9,6.5"/>
<path style="fill:none;stroke:#000000;stroke-width:2;stroke-linecap:round;stroke-linejoin:round;stroke-miterlimit:10;" d="
	M455.6,185.5c5-5.2,10.5-5.3,16-0.5c2.6,2.3,4.4,5.3,6.5,8"/>
<path style="fill:none;stroke:#000000;stroke-width:2;stroke-linecap:round;stroke-linejoin:round;stroke-miterlimit:10;" d="
	M441.6,169c-6.2-1.1-10,1.3-14,9"/>
<path style="fill:none;stroke:#000000;stroke-width:2;stroke-linecap:round;stroke-linejoin:round;stroke-miterlimit:10;" d="
	M464.1,271c-1.3,5.3-1.3,10.7,0,16"/>
<path style="fill:none;stroke:#000000;stroke-width:2;stroke-linecap:round;stroke-linejoin:round;stroke-miterlimit:10;" d="
	M472.6,102c-1.5,5.1-2.2,10.6-7,14"/>
<path style="fill:none;stroke:#000000;stroke-width:2;stroke-linecap:round;stroke-linejoin:round;stroke-miterlimit:10;" d="
	M391.6,239c-0.1,1,0.8,1.7,1.1,2.4c2.4,5.3,5.5,5.9,9.9,2.1c1.6-1.4,1.3-3.1,0.4-4.5c-1.7-2.8-3.6-5.4-5.5-8"/>
<path style="fill:none;stroke:#000000;stroke-width:2;stroke-linecap:round;stroke-linejoin:round;stroke-miterlimit:10;" d="
	M373.6,145c-2.4,8.5-2,9,7,9"/>
<path style="fill:none;stroke:#000000;stroke-width:2;stroke-linecap:round;stroke-linejoin:round;stroke-miterlimit:10;" d="
	M445.6,78c5.4,3.1,7.3,9,3.9,13.9c-2.3,3.2-1.9,8-5.9,10.1"/>
<path style="fill:none;stroke:#000000;stroke-width:2;stroke-linecap:round;stroke-linejoin:round;stroke-miterlimit:10;" d="
	M436.6,240c-4.3,1-9.6-0.6-12,5"/>
<path style="fill:none;stroke:#000000;stroke-width:2;stroke-linecap:round;stroke-linejoin:round;stroke-miterlimit:10;" d="
	M395.1,518c-2.6,4.2-2,8.6-1,13"/>
<path style="fill:none;stroke:#000000;stroke-width:2;stroke-linecap:round;stroke-linejoin:round;stroke-miterlimit:10;" d="
	M466.6,170c-2.7-1.2-5.6-1.5-8.5-1.5"/>
<path style="fill:none;stroke:#000000;stroke-width:2;stroke-linecap:round;stroke-linejoin:round;stroke-miterlimit:10;" d="
	M476.1,357.5c0.2,4.5,0.3,9,0.5,13.5"/>
<path style="fill:none;stroke:#000000;stroke-width:2;stroke-linecap:round;stroke-linejoin:round;stroke-miterlimit:10;" d="
	M407.6,110.5c-1.8,1.3-3.7,2.4-6,2.5"/>
<path style="fill:none;stroke:#000000;stroke-width:2;stroke-linecap:round;stroke-linejoin:round;stroke-miterlimit:10;" d="
	M371.6,153.5c-1.3,1.8-3.2,1.5-5,1.5"/>
<ellipse transform="matrix(0.9851 -0.172 0.172 0.9851 -28.2514 80.9992)" style="fill:none;stroke:#000000;stroke-width:2;stroke-linecap:round;stroke-linejoin:round;stroke-miterlimit:10;" cx="453.3" cy="203.5" rx="7" ry="11.3"/>
<path style="fill:none;stroke:#000000;stroke-width:2;stroke-linecap:round;stroke-linejoin:round;stroke-miterlimit:10;" d="
	M473.1,200.7c-2.6,2.6-5.1,5.3-7.4,8.3c-2.3-1.2-4.3-4.3-4.9-8.2c-0.9-5.4,1-10.2,4.3-10.8s6.8,3.3,7.7,8.7
	C473,199.3,473.1,200,473.1,200.7z"/>
</svg>
