<?xml version="1.0" encoding="utf-8"?>
<!-- Generator: Adobe Illustrator 22.1.0, SVG Export Plug-In . SVG Version: 6.00 Build 0)  -->
<svg version="1.1" id="Layer_1" xmlns="http://www.w3.org/2000/svg" xmlns:xlink="http://www.w3.org/1999/xlink" x="0px" y="0px"
	 viewBox="0 0 1024 680" style="enable-background:new 0 0 1024 680;" xml:space="preserve">
<path style="fill:none;stroke:#000000;stroke-width:3;stroke-miterlimit:10;" d="M154.7,528.4c-1.7,1.3-5.7-0.8-11.9-5.5
	c-1.5,6.5-5.9,8.3-11.8,3.4c-2.3,7.7-5.5,8.7-8.6,1.8c-11.8,8.9-20.1,9.7-21.6,1.3c-10.5,8.2-16,8.1-15.9-0.4
	c-4.8,5.8-8.5,6.1-12.5,1c-0.9,3.5-1.7,1.6-1.5-3.2c-10.1,9-14.3,11.5-13.6,5.3c-8.2,9.6-10.4,10.8-9.8,3.6
	c-5.5,8.3-12.1,10-23.6,5.9c2.8,6.2,1.4,6.2-3.9,0.5c-6.1,7.3-11.9,8.2-19.2,3.5c0.5,4.2-2.4,4.2-7.5,0.2c0.2,1.9-1.8,0-3.9-4.2
	c-2.5,8-5.4,10.2-12.7,6.5c1.5,5.4,1.2,7.5-2.5,4.2c1.5,6.5,0,7.7-5.6,2.6c-1.7,6.1-6.8,7.4-18.6,4.4c1.5,6-2.7,7.6-15.6,4.6
	c5.6,5.3,2.1,4.1-8.6-2.3c2.6,4.2-1.7,3.2-10.9-1.4c4.6,5.9,4.7,8.2-2.2,5.5c5.5,7.7,2.6,10.3-8.5,7 M538.9,516.5
	c-10,4.7-16.3,3.6-16.7-3.8c-11.4,7-16.9,6.2-15.7-2.2c-5.5,5.2-9.2,5.1-12.6-0.4c-1.3,3.4-1.9,1.4-1.1-3.3
	c-11.1,7.8-15.5,9.8-14.1,3.7c-9.3,8.6-11.6,9.5-10.2,2.5c-6.4,7.6-13.2,8.6-24.1,3.2c2,6.4,0.7,6.3-3.9,0.1
	c-6.9,6.5-12.8,6.8-19.5,1.3c0,4.3-2.9,3.9-7.5-0.7c-0.1,1.9-1.8-0.2-3.4-4.6c-3.4,7.6-6.6,9.5-13.3,5c0.9,5.5,0.3,7.5-3,3.9
	c0.7,6.7-0.9,7.6-5.9,1.9c-2.4,5.9-7.6,6.6-19,2.2c0.8,6.2-3.6,7.2-16,2.8c4.9,5.9,1.6,4.3-8.3-3.3c2.1,4.5-2.1,3-10.7-2.7
	c3.9,6.4,3.7,8.7-2.8,5.3c4.6,8.3,3.5,10.8-7.2,6.2c4.4,5.4,1,6.4-10.9,4.1c0-0.2,0.1-0.3,0.1-0.5c-0.2,0.1-0.3,0.3-0.5,0.4
	c-1-0.2-2.2-0.4-3.3-0.7c0.7,0.7,1.3,1.3,1.8,1.9c-3.5,2.7-5.8,3.5-6.3,1c-3.8,3.5-5,2.3-4.6-2.4c-4.3,5.4-6.7,7.3-6.7,2.7
	c-4,6-5.5,5.4-5.1-1.3c-8.8,7.2-14.4,7-21.6-0.7c-4.3,5.8-8.9,4.3-14.6-4.9c-2.7,7.6-4.8,5.7-7.4-4c-2.9,6.1-5.5,4.6-8.5-2.6
	c-2.6,6.3-5,7-7.9,0.7c-3.8,8-7.4,9-11.8,1.2c-2.6,7.6-8.1,7.8-20.6,0.4c-0.7,6.3-2.2,7.9-4.5,5.2 M1401.5,596
	c-5.4,3.6-8.3,3.4-7.5-0.8c-7.7,4.1-13.4,2.8-18.9-4.9c-5.7,5.2-7,5.1-3.8-0.8c-11.8,3.3-18.2,1-23.1-7.7c0,7.2-2.1,5.9-9.5-4.3
	c0.3,6.2-3.7,3.5-13.1-6.3c-0.2,4.8-1.2,6.6-1.8,3.1c-4.4,4.8-8,4.2-12.4-1.9c-0.5,8.5-6,8.2-15.9-0.8c-2.2,8.3-10.4,6.9-21.5-2.9
	c-3.6,6.6-6.7,5.4-8.4-2.5c-6.2,4.4-10.5,2.3-11.5-4.3c-8.7,5.7-13.2,7.1-13,2c-9.9,6.8-14.2,7.4-12.6,0.8
	c-8.8,8.6-14.8,7.8-19.4-1.8c-5.4,9.6-8.1,10.4-8.5,1c-13,6.5-18.5,5.8-20.5-1.9c-5,7.5-8.4,6.1-11.6-2.1c-3.3,6-5.7,5.2-7.8-1.3
	c-3.5,7-6.2,8.3-8.7,2c-1.6,4.6-3,7.3-4.2,8.1c-0.5,0-0.9,0-1.3,0c-0.8-0.6-1.5-2.1-2.2-4.7c-0.6,0.8-1.2,1.6-1.8,2.3
	c0.2-0.8,0.9-1.8,2-3c-10.9,3.8-11.8,1.3-6.7-6.7c-6.7,3-6.7,0.7-2.4-5.4c-9,5-13.2,6.3-10.9,1.9c-10.3,6.9-13.8,8.3-8.5,2.7
	c-12.7,3.6-17,2.3-15.8-3.9c-11.6,3.5-16.8,2.5-18.8-3.5c-5.4,5.3-6.9,4.2-5.7-2.3c-3.5,3.4-3.9,1.4-2.7-4.1c-7,4-10.1,1.9-13-5.9
	c-2,4.3-3.8,6.3-3.7,4.4c-4.9,4.2-7.8,4.4-7.5,0.1c-7.1,5-12.9,4.4-19.4-2.6c-5,5.9-6.4,5.9-3.9-0.4c-11.3,4.7-17.9,3.2-23.8-4.8
	c0.9,7.1-1.3,6.1-10-3.2c1,6.1-3.3,3.9-13.8-4.7c0.4,4.8-0.3,6.7-1.4,3.3c-3.7,5.3-7.4,5.1-12.6-0.4c0.6,8.5-4.9,8.9-15.8,1.1
	c-1.2,8.5-9.4,8.1-21.7-0.3c-2.8,7-6,6.1-8.7-1.4c-5.7,5.2-10.2,3.6-12-2.9c-7.9,6.7-12.2,8.6-12.6,3.6c-9,7.9-13.2,9.1-12.4,2.3
	c-7.7,9.6-13.7,9.6-19.4,0.5c-4.2,10.2-6.7,11.3-8.3,2c-12.1,8-17.7,8-20.6,0.6c-4,8-7.6,7.1-11.8-0.7c-2.6,6.4-5,5.9-7.9-0.3
	c-2.6,7.4-5.1,9-8.3,3c-2.1,9.7-4.2,11.8-7.2,4.3c-5.2,9.5-9.7,11.2-14.3,5.6c-6.9,8-12.5,8.5-21.6,1.7c0.7,6.6-0.7,7.3-5,1.5
	c0.2,4.7-2.3,2.9-6.8-2.3c0.6,4.7-0.5,5.9-4.4,2.6c-0.5,3-3.6,1.4-8.5-2.2c1.8,5,1.7,7.8-2.4,6.1c0.1,0.8,0.1,1.6,0,2.2
	c-0.4-0.9-0.4-2.1-0.1-3.7c-4.2,1.4-4.1-1.3-2-6.2c-5.1,3.3-8.3,4.7-8.6,1.7c-4.1,3-5.2,1.7-4.2-2.9c-4.9,4.9-7.5,6.5-7,1.9
	c-4.7,5.5-6.1,4.7-4.9-1.8c-9.5,6.2-15.1,5.3-21.4-3.2c-5,5.3-9.4,3.2-13.9-6.6c-3.6,7.3-5.5,5.1-6.9-4.8c-3.6,5.7-6,4-8.1-3.6
	c-3.3,6-5.8,6.3-7.9-0.2c-4.7,7.5-8.4,8.1-11.8-0.1c-3.4,7.2-9,6.9-20.5-2c-2.2,9.2-4.7,7.9-8.1-2.6c-5.6,7.5-10.8,8.2-16.8,1.4
	 M312.3,540.5c0.6,1,0.6,1.9,0.2,2.5C312.1,542.4,312.1,541.6,312.3,540.5z"/>
<path style="fill:none;stroke:#000000;stroke-width:4;stroke-miterlimit:10;" d="M792.7,138.5c-9.8,5.6-9.8,11.2-11.2,16.8
	c-6.2,6.8-14.9,6.2-24.4,3.1c-13.7-11.1-22-7.8-29.3-1.4c-19.5-5-39-6.9-58.5-16.9l-18.1-4.2c-42.9-27.4-59.2-26.8-77.8-28.5
	c-28.3-4.3-67.9-5.1-113.8-4c-79.6,0.9-141.2-2.9-192.1-9.5c-44.6-4.6-47.8,2.9-55.3,9.1c-67.8,8.3-67.4,15.8-78.5,23.4
	c-12.8,15-19.8,32.2-23.8,50.6c-7.6,24.9-13,33.6-4.4,107.2l2,16.1l2.1-7.8l-0.1,13.2l3.3-2l-1.3,6.2l3.3-1.2l0.7,15.7l2.5-0.4
	l-3,13.6l-2.6,12.8l-3.4,19c-3.4,10.7-4.5,19.8-3.5,27.2c6.1,7.1,10.9,8.9,12.8-1.6c2.5,17.2,6.1,10.4,9.9,1.7
	c7.4,6.8,8-13.2,9.3-30.9c0.9-5.9-0.3-14.8-1.5-23.9c-1.7-13.7-1.9-27.4-2.6-41.7c-0.8-7.8-0.9-14.9-8.1-30.2
	c-3.6-3.5-6.5-12.1-8.9-24.4c0.1-18.3,1.1-34.7,4.4-45.3c17.9,39.6,32.7,80.3,36.3,125.2l2.3,22.7c-1.6,17.5-5.7,28.6-9.3,40.8
	c-8.7,12.3-15.2,6.7-1.5,44.5c7.1,32.2,5.9,64.4,5.6,96.6l-4.5,1.2l3.7,0.4l-7.8,2l7.4,1.3l-1.3,2.9l-5,1.6l6.2,1.7l4.5,2.1
	l-1.3,4.5l-4.2,4.5l4.5-0.4l0.4,2.1l-3.3,2.9h4.1l2.5,2.9v2.1l-0.8,2.5l5.4,1.3c-6.8,4.7-4,12.1,1.1,20.2c14.3,1.3,27.9,4,45.4-1
	c2.8-0.6,6,0.8,7.9-4.9c-7.1-8.4-8.9-8.7-11.9-10.8c4.3-5.1-4.5-14-11.8-22.3c-16-48.4-12.1-91.8-0.9-122.5
	c5.8-14.1,47.7-76.1,45.4-70.7l4.9,2.5c1.8,12.3,3.9,21.6,6.9,18.6c3.8,2.3,3.5-10.7,4.2-19.8h2.9c2.2,8.4,3.1,24.5,7.3,21.1
	c5.2,2.6,4.2-8.8,5.5-15.2l3.3-1.6l4.6-3.3l3.3-4.1l17.4-5.7l9.5,0.9c17.2,8.6,33.6,15.4,49.8,21.8l13.2,7.5l7.4,5l6.2-0.4l5.4-1.2
	l8.3-0.4l3.3-1.6l3.7-2.5l9.9-2l23.5-2.7l18.6-2.4l15.3-2.8l24.3-1.1l12.4,0.5l12.8,5v5.4l1.5,16.5c0.8,16.6,1.3,34.5,4.3,43.7
	c-2.3,13.7,2.3,24.6,7.6,35.1c3.6,29.3,1.7,50,1.2,71l0.4,7.4l3.3,1.7l0.4-0.4l2,2.5l2.9,0.4l-0.8-0.4l2.1,0.4l-4.6,7l1.6,5.8
	l2.4,5.8l10.7,3.8h4.1l1.6,4.5l7.4,0.9c2.7,2.2,8.9,3.9,19.4,5.1c11.1,2.4,18.4,0.9,26.4,0.2l1.3-3.3l0.8-3.3l-13.9-13.3
	c-0.7-5.6-6.5-11.3-12.7-17c-1.3-31-2.9-25.6-4.3-35.9l-1.9-32.6l8.8-25.1c3.5-28.3,6.9-43.9,10.2-53.6
	c37.8-7.7,35.2-17.6,52.1-26.5c48.8-24.9,43.8-35.4,51-49.2c35.9-32,45.5-31.5,60.5-37.6c23.1,0.4,30.1-2.2,42.1-3.9
	c-2.7,2.6,31.3,7.7,54,9c2.5,8.1,19.5,9.3,28,2.7v-3.3l4.5-1.2l3.7-2.5l2.1-4.5l0.4-1.2c5.5-4.1,5.7-6.4,6.7-9l-0.8-5.8l1.3-6.2
	c-0.1-1.9-3.6-5.4-5.7-8.3c-5.3-5-10.6-9.9-18-20.3L880,224c-2.2-2.1-4.8-4.6-6.6-6.2c-0.5-2.1-0.6-2-1.6-6.6l-1.6-9.1l-0.4-7.8
	l-2-4.6l-3.7-3.7l-5.7-6.2l-4.1-2.9l-5.7-7l-2.4-5l-4.1-7.9l-1.6-4.1c12.1-10.9,18.8-22.1,10.1-34.2c-2.9,8.4-3.4,16.8-14.6,25.1
	c-7.5-5.1-16.2-7.7-25.9-8.4c4.5-10.2,1-17.8-4.4-24.8C805.5,129.2,799.1,133.9,792.7,138.5L792.7,138.5z"/>
</svg>
