<?xml version="1.0" encoding="utf-8"?>
<!-- Generator: Adobe Illustrator 22.1.0, SVG Export Plug-In . SVG Version: 6.00 Build 0)  -->
<svg version="1.1" id="Layer_1" xmlns="http://www.w3.org/2000/svg" xmlns:xlink="http://www.w3.org/1999/xlink" x="0px" y="0px"
	 viewBox="0 0 307.3 317.9" style="enable-background:new 0 0 307.3 317.9;" xml:space="preserve">
<path d="M126.8,158.8c0,0-19.4-4.8-42.9-11s-51-13.8-67.1-19.4c-0.7-0.2-1.4-0.5-2.3-0.8c-1.7-0.9-3.7-2-6-3.2
	c-1.4-0.9-3-1.9-4.6-3.1c-0.6-0.5-1.3-1.1-1.9-1.8c-0.5-0.5-1-1.2-1.4-2.2c-0.2-0.6-0.3-1.1-0.3-1.5c-0.1-0.6-0.1-1.2-0.1-1.7
	c0-1.5,0-3,0.1-4.4c0.2-3.8,0.5-7.9,1-12c0.1-1.1,0.2-2.1,0.3-3.2c0.3-3,0.7-6.2,1.1-9.6c0.2-1.8,0.5-3.6,0.9-5.5
	c0.3-1.3,0.6-2.8,1-4.2c0.5-1.5,1.2-2.8,1.9-4.1c0.9-1.6,1.9-3.2,3-4.8c2.3-3.5,5-7,8-10.6c2.6-3.1,5.3-6.2,8.6-9.3
	c1.1-1.1,2.4-2.2,3.8-3.3c0.8-0.6,1.9-1.4,3.6-2c1-0.2,1.7-0.2,2-0.1c0.6,0.1,1.1,0.2,1.5,0.3c1.2,0.4,2.4,0.8,3.4,1.3
	c3.2,1.4,6.3,3.1,9.4,4.9c2.6,1.5,5.2,3,7.9,4.6c6.5,4,12.6,8,18.3,11.7c10.2,6.8,19.2,13.1,27.1,19c3.8,2.8,7.3,5.5,10.6,8.2
	c1.4,1.1,2.7,2.2,4,3.4c1,0.9,2,1.8,2.9,2.8c3.8,4.1,6.7,8.2,9.1,11.9c2.4,3.8,4.4,7.2,6,10.3c2.3,4.3,4,7.9,5.2,10.7
	c0.6,1.3,1,2.5,1.4,3.5s0.7,1.8,0.9,2.5c0.5,1.3,0.6,2,0.6,2s-0.2-0.7-0.8-2c-0.3-0.7-0.6-1.5-1.1-2.4s-1-2.1-1.7-3.3
	c-1.4-2.7-3.3-6.2-5.8-10.3c-1.8-2.9-3.9-6.2-6.5-9.8c-2.6-3.6-5.7-7.4-9.5-11.1c-0.9-0.9-1.8-1.7-2.8-2.5c-1.3-1-2.6-2.1-4-3.1
	c-3.3-2.5-6.9-5-10.8-7.6C92.6,80.6,83.4,74.7,73,68.4c-5.8-3.5-12-7.2-18.5-10.9c-2.7-1.5-5.3-3-7.8-4.4c-3.1-1.7-6-3.3-8.9-4.6
	c-0.9-0.4-1.8-0.8-2.6-1.1c-0.3-0.1-0.4-0.1-0.5-0.1s0.1,0,0.6-0.1c-0.3,0-0.8,0.4-1.6,0.9c-1.1,0.8-2.2,1.7-3.3,2.7
	c-3.1,2.7-6,5.6-8.6,8.4c-3.1,3.3-5.9,6.4-8.4,9.6c-1.1,1.4-2.2,2.8-3.1,4.3c-0.7,1.1-1.4,2.2-1.8,3.3c-0.5,1.2-0.8,2.4-1.2,3.7
	c-0.5,1.8-0.8,3.5-1.1,5.2c-0.6,3.3-1,6.5-1.3,9.6c-0.1,1-0.2,2-0.2,3c-0.2,4.1-0.3,8-0.1,11.7c0.1,1.4,0.2,2.8,0.4,4.1
	c0.1,0.5,0.1,0.9,0.2,1.3c0.1,0.3,0.1,0.4,0.2,0.4c0.1,0.1,0.3,0.3,0.6,0.6c0.4,0.3,0.9,0.7,1.4,1c1.3,0.8,2.7,1.4,4.1,2
	c2.2,0.8,4.1,1.5,5.7,2.2c0.9,0.2,1.7,0.4,2.4,0.6c8,2.2,18.7,5.6,30.3,9.4c11.6,3.9,24,8.2,35.4,12.3
	C107.8,151.7,126.8,158.8,126.8,158.8L126.8,158.8z"/>
<path d="M189.2,118.9L189.2,118.9L189.2,118.9L189.2,118.9L189.2,118.9c0-0.2,0-0.2,0-0.4c0-0.2,0-0.6,0.1-1
	c0.1-0.9,0.1-2.2,0.2-3.8c0.2-2.9,0.4-7,0.6-11.8c0.2-3.9,0.3-8.3,0.4-13c0-1.7,0-3.4-0.1-5.1c-0.1-1.2-0.1-2.2-0.4-3l0,0
	c-0.1-0.5-0.3-1.1-0.5-1.8c-0.3-1-0.7-2.1-1-3.2c-1-3.1-2.1-6.3-3.1-9.5c-3.1-9.1-6.1-18.2-8.7-26.1c-1.5-4.5-2.7-8.6-3.7-12.1
	c-0.8-2.9-2.2-7.7-4.1-13.4c-0.9-2.7-1.9-5.6-3.2-8.4c-0.4-0.8-0.8-1.6-1.2-2.3c-0.1-0.2-0.3-0.4-0.4-0.5c-0.1-0.1,0-0.1,0.2,0.1
	c0,0-0.2,0-0.5-0.1c-0.4,0-0.8,0-1.3,0.1c-0.9,0.1-1.8,0.3-2.7,0.6c-0.4,0.1-0.8,0.2-1.3,0.4c-3.4,1-6.9,2.5-10.6,4.3
	c-3.4,1.6-6.9,3.5-10.5,5.7c-1.3,0.8-2.6,1.6-3.9,2.5c-0.9,0.6-1.6,1.2-2.1,1.8c-0.2,0.3-0.5,0.6-0.8,1l0,0
	c-0.4,0.6-0.8,1.1-1.2,1.8c-1.1,1.6-2.2,3.4-3.2,5.2c-2.6,4.3-5.3,9-8.2,14c-1.9,3.3-3.9,6.8-5.9,10.4c-0.6,1.1-1.2,2.2-1.8,3.2
	c-0.9,1.6-1.7,3.2-2.4,4.8c-0.2,0.5-0.4,1-0.6,1.4c-0.1,0.4-0.1,0.4-0.1,0c-0.2-1-0.2-1.3-0.2-1.1c0,0,0.1,0.2,0.2,0.4
	c0.5,0.6,1.1,1.3,1.7,2c2.2,2.4,4.5,4.7,6.8,6.9c3.9,3.9,7.7,7.4,11.2,10.8c3.5,3.3,6.9,6.5,9.9,9.4c4.7,4.4,8.8,8.3,12.4,11.8
	s6.7,6.5,9.3,9.1c1.6,1.6,3.1,3.1,4.4,4.4c1.3,1.3,2.4,2.5,3.3,3.5c1,1.1,1.9,2.1,2.5,2.9c0.3,0.4,0.6,0.8,0.8,1.2
	c0.2,0.3,0.4,0.6,0.5,0.8c0.1,0.2,0.2,0.3,0.2,0.3s-0.1-0.1-0.2-0.3c-0.1-0.2-0.3-0.5-0.5-0.7c-0.2-0.3-0.6-0.7-0.9-1.1
	c-0.7-0.7-1.6-1.6-2.7-2.7c-1-0.9-2.2-2-3.5-3.2c-1.4-1.2-2.9-2.6-4.7-4.1c-2.8-2.4-6.1-5.2-9.9-8.4c-3.8-3.2-8.2-6.9-13.1-11
	c-3.3-2.7-6.8-5.6-10.5-8.8c-3.7-3.2-7.7-6.5-11.9-10.2c-2.4-2.1-4.9-4.3-7.4-6.8c-0.7-0.7-1.5-1.5-2.2-2.4c-0.2-0.3-0.5-0.6-0.7-1
	l0,0c-0.2-0.1-0.4-0.6-0.5-1.6c0-0.9,0.2-1.5,0.3-1.8c0.2-0.7,0.5-1.3,0.7-1.9c0.7-1.8,1.5-3.5,2.3-5.2c0.5-1.1,1.1-2.3,1.7-3.4
	c1.9-3.8,3.8-7.3,5.8-10.7c2.9-5,5.8-9.7,8.8-13.9c1.2-1.8,2.5-3.5,3.7-5.2c0.5-0.6,1-1.3,1.5-1.9l0,0c0.4-0.4,0.8-0.9,1.3-1.4
	c1.1-1,2.2-1.7,3.1-2.2c1.5-0.9,3-1.6,4.4-2.3c3.9-1.9,7.7-3.5,11.3-4.8c3.9-1.5,7.6-2.9,11.1-4c0.5-0.2,1-0.3,1.5-0.5
	c0.9-0.3,1.9-0.5,2.8-0.7c0.5-0.1,1.1-0.2,1.7-0.2c0.4,0,1,0,1.6,0.2s0.9,0.5,1.1,0.7c0.3,0.3,0.6,0.6,0.8,0.9
	c0.7,0.9,1.2,1.7,1.7,2.6c1.7,2.9,3.2,5.7,4.5,8.2c2.9,5.5,5.2,10,6.2,12.8c1.3,3.4,2.7,7.6,4.1,12.1c2.5,8,5.1,17.3,7.4,26.7
	c0.8,3.3,1.6,6.6,2.3,9.8c0.3,1.1,0.5,2.2,0.7,3.4c0.1,0.7,0.3,1.4,0.4,2.1l0,0c0.2,1.4,0.2,2.6,0.1,3.9c-0.1,1.8-0.3,3.6-0.4,5.4
	c-0.5,4.8-1.2,9.2-1.8,13.1c-0.8,4.8-1.5,8.8-2.1,11.7c-0.3,1.6-0.6,2.8-0.7,3.7c-0.1,0.4-0.2,0.8-0.2,1
	C189.3,118.7,189.3,118.8,189.2,118.9C189.3,118.9,189.3,118.9,189.2,118.9L189.2,118.9L189.2,118.9L189.2,118.9z"/>
<path d="M155.1,121L155.1,121c0.2-0.1,1.1-0.4,2.5-0.9c1.7-0.6,4.2-1.3,7.4-2.1c3.2-0.8,7.1-1.5,11.6-1.9s9.6-0.6,15-0.1
	c5.3,0.4,11,1.3,16.7,2.9s11.6,3.8,17.2,6.7c1.5,0.8,3,1.6,4.5,2.5c0.4,0.2,0.7,0.4,1.1,0.7c-2.3-0.1-5.2,0.1-8.7,0.9
	c-0.1,0-0.2-0.1-0.2-0.1c-0.1-0.1-0.3-0.2-0.4-0.2c-4.7-2.7-9.6-4.9-14.5-6.6c-5.4-1.9-10.8-3.1-15.9-3.9c-5.2-0.8-10.2-1-14.6-0.9
	c-4.4,0.1-8.4,0.5-11.6,1c-3.2,0.5-5.8,1.1-7.5,1.5C156.4,120.7,155.6,120.9,155.1,121L155.1,121C155.2,121,155.2,121,155.1,121z"/>
<path d="M264.1,186.7c-0.1,3.1-0.4,6-0.8,8.6c-0.6,3.7-1.7,9.3-4,15.7c-1.6,4.4-3.7,9.1-6.5,13.9c-2.8,4.8-6.2,9.6-10.3,14.1
	c-1.2,1.3-2.3,2.6-3.6,3.8c-2.9,2.9-6,5.7-9.6,8.4c-3.5,2.7-7.5,5.4-11.8,7.7s-9,4.4-14.1,6.1s-10.7,2.9-16.7,3.5
	c-4.7,0.5-9.6,0.3-14.6-0.5c-5.1-0.7-10.3-2-15.4-3.8c-8.3-2.9-16.7-7-24.8-12.5c-1.7-1.2-3.4-2.4-5-3.6c-4.7-3.6-9-7.5-12.7-11.6
	c-3.8-4.1-7-8.5-9.7-13c-2.8-4.7-4.8-9.5-6.1-14.5c-1.4-5.2-1.8-10.4-1.4-15.4c0.5-5.3,1.5-10.3,2.8-14.9c1.3-4.6,3-8.9,4.9-12.9
	c2.1-4.5,4.6-8.6,7.1-12.3c2.5-3.6,5.1-6.9,7.7-9.7c3.2-3.5,6.4-6.5,9.5-9.1c3-2.5,5.9-4.5,8.6-6.2c2.8-1.7,5.3-3.1,7.5-4.1
	s4.1-1.7,5.6-2.2s2.7-0.8,3.4-0.9c0.4-0.1,0.7-0.2,0.9-0.2l0,0l0,0c0,0,0,0-0.1,0c-0.2,0-0.5,0.1-0.9,0.3c-0.8,0.2-1.9,0.6-3.4,1.1
	c-1.5,0.6-3.3,1.3-5.5,2.5c-2.1,1.1-4.6,2.6-7.2,4.4c-2.6,1.8-5.3,3.9-8.2,6.5c-2.9,2.6-5.9,5.7-8.9,9.3c-2.4,2.9-4.8,6.2-7.1,9.8
	s-4.5,7.7-6.4,12.2c-1.7,3.9-3.1,8.1-4.2,12.5c-1.1,4.5-1.9,9.3-2.1,14.3c-0.3,4.5,0.3,9.2,1.7,13.9c1.3,4.5,3.4,8.8,6.1,13.1
	c2.6,4.1,5.8,8.1,9.4,11.8s7.8,7.3,12.3,10.5c1.6,1.1,3.2,2.2,4.8,3.3c7.8,5,15.7,8.8,23.4,11.6c4.8,1.7,9.6,3.1,14.3,3.9
	c4.5,0.8,8.9,1.2,13.1,1c5.5-0.3,10.8-1.1,15.8-2.4c4.9-1.3,9.5-3,13.7-5c4.3-2,8.3-4.4,11.8-7c3.5-2.5,6.7-5.3,9.4-8.1
	c1.1-1.2,2.2-2.4,3.2-3.6c3.8-4.5,6.8-9.4,9-14.1c2.3-4.7,3.8-9.4,4.9-13.5c0.8-3.1,1.3-5.9,1.6-8.4s0.5-4.6,0.7-6.3
	c0-0.3,0.1-0.5,0.1-0.8c0.9-0.7,1.8-1.4,2.6-2.2C260.9,190,262.6,188.3,264.1,186.7z"/>
<path style="stroke:#000000;" d="M225,128.6c0.5,0,0.7-0.1,0.7-0.1S225.5,128.6,225,128.6c-0.4,0.2-1.1,0.3-2,0.6s-1.9,0.7-3.2,1.3
	c-1.2,0.6-2.6,1.5-4,2.5c-1.5,1-3.1,2.3-4.9,3.8c-1.5,1.3-3,2.8-4.6,4.5c-0.3,0.3-0.5,0.6-0.8,0.9c-0.9,1-1.8,2.1-2.7,3.2
	c-0.5-0.4-1-0.8-1.6-1.1c-0.2-0.1-0.4-0.3-0.6-0.4c1.1-1.2,2.2-2.3,3.3-3.3c0.1-0.1,0.3-0.3,0.4-0.4c2-1.8,3.8-3.4,5.6-4.7
	c1.9-1.4,3.7-2.5,5.3-3.4c1.5-0.9,3-1.6,4.3-2.1s2.4-0.8,3.3-1C223.8,128.8,224.5,128.7,225,128.6z"/>
<path d="M274.2,167.8c-0.5,2.6-1.2,5-2.1,7c-0.3,0.8-0.8,1.7-1.3,2.7c-1.1,2-2.6,4.3-4.6,6.7c-0.6,0.8-1.3,1.6-2.1,2.4
	c-1.5,1.7-3.2,3.3-5,4.9c-0.8,0.7-1.7,1.5-2.6,2.2c-0.8,0.6-1.5,1.2-2.3,1.8c-3,2.2-6.3,4.4-10.2,6.4c-2.3,1.2-4.8,2.3-7.5,3.3
	c-2.8,1-5.8,1.7-9,2.2c-2.3,0.3-4.7,0.2-7.2-0.2s-4.9-1.1-7.3-2.1c-1.9-0.8-3.8-1.8-5.6-2.9c-0.9-0.5-1.7-1.1-2.5-1.8
	c1.2-0.9,2.3-1.9,3.2-2.9c0.5-0.6,1-1.2,1.5-1.8c0.9,0.6,1.8,1.2,2.6,1.7c1.1,0.7,2.3,1.3,3.4,1.8c3.9,1.8,7.8,2.7,11.5,2.6
	c2.9-0.1,5.6-0.4,8.2-1c2.6-0.6,5-1.3,7.3-2.2c3.9-1.5,7.2-3.4,10-5.6c1.6-1.2,3-2.6,4.3-4l0,0c2.3-2.5,4.1-5.2,5.4-7.7
	c0.7-1.3,1.3-2.6,1.7-3.8c0.4-1,0.7-1.9,1-2.7c0.3-0.9,0.5-1.7,0.7-2.3c0.5-1.7,1.1-3.6,1.4-5.7c0.4-2.1,0.5-4.4,0.4-6.8
	c-0.3-4.1-0.9-8.4-2.5-12.4c-1.4-3.6-3.7-6.9-6.7-9.5c-1.8-1.6-3.9-2.9-6-4s-4.4-1.9-6.5-2.6c-2.7-0.8-5.4-1.4-7.8-1.8
	c-2.4-0.4-4.5-0.6-6.3-0.8l0,0c-0.5-0.3-0.9-0.6-1.4-0.8c0.4,0,0.9-0.1,1.3-0.1c1.8-0.1,4-0.3,6.5-0.2c2.5,0,5.3,0.2,8.3,0.7
	c2.4,0.3,4.9,0.9,7.4,1.8c2.5,0.9,5.1,2.1,7.5,3.7c2,1.3,3.8,3,5.4,4.8s3,3.8,4.1,6c2.4,4.8,3.6,9.8,4.1,14.4
	C274.8,162.2,274.7,165.1,274.2,167.8z"/>
<path style="fill:none;stroke:#000000;stroke-width:5;stroke-linecap:round;stroke-linejoin:round;" d="M171.5,252.2
	c0,0-23.3,25.6-22.5,33.1c0.4,4.4,7.7,12,13.8,17.7c4.3,4.1-2.3,14.3-2.3,14.3"/>
<path style="fill:none;stroke:#000000;stroke-width:5;stroke-linecap:round;stroke-linejoin:round;" d="M142.9,236.4
	c0,0-19.5,5.3-22.5,14.3c-1.7,5,1.4,19.2-1,28.3c-1.9,7.2-9.5,10.1-9.5,10.1"/>
<path style="fill:none;stroke:#000000;stroke-width:5;stroke-linecap:round;stroke-linejoin:round;" d="M127.2,211.6
	c-9,2.3-25.6,3-30.1,11.3c-2.6,4.8-5.4,17.5-11.4,24.3c-4.4,5-12.7,5-12.7,5"/>
<path style="fill:none;stroke:#000000;stroke-width:5;stroke-linecap:round;stroke-linejoin:round;" d="M255.5,216.1
	c0,0,26.3,0.8,31.6,5.3c2.9,2.5,4.2,10.6,4.8,17.4c0.5,5.6,8.7,8,8.7,8"/>
<path style="fill:none;stroke:#000000;stroke-width:5;stroke-linecap:round;stroke-linejoin:round;" d="M262.3,192.8
	c0,0,15.8-0.8,21.8,3c3.9,2.4,9.4,12.2,12.8,18.7c1.8,3.5,10.4,3.4,10.4,3.4"/>
<path style="stroke:#000000;" d="M223.4,166c-0.3-2.6-0.9-5.3-2-7.9s-2.5-5.2-4.4-7.5c-1.8-2.3-3.9-4.3-6.1-6.2
	c-1.5-1.2-3-2.2-4.6-3.1c-0.7-0.4-1.3-0.8-2-1.1c-0.2-0.1-0.4-0.2-0.7-0.4c-2.9-1.5-5.9-2.5-8.8-3.3s-5.8-1.2-8.5-1.3
	c-2.8-0.2-5.4,0-7.6,0.2c-2.3,0.3-4.3,0.7-5.9,1.1c-1.6,0.4-2.9,0.8-3.7,1.1c-0.6,0.2-1,0.4-1.2,0.5l0,0c-0.1,0-0.3,0-0.5,0.1
	c-0.4,0.1-1,0.2-1.8,0.5c-0.8,0.2-1.8,0.6-2.9,1.1c-1.1,0.5-2.4,1.2-3.8,2c-1.3,0.8-2.8,1.8-4.4,3.1c-1.6,1.3-3.2,2.8-4.8,4.5
	c-2.5,2.7-5,6-7.1,10.2c-1.1,2.1-2,4.4-2.8,6.9s-1.4,5.2-1.6,8.1c-0.3,2.6,0,5.4,0.7,8.1c0.7,2.6,1.7,5.1,3.1,7.5
	c1.4,2.3,3,4.6,4.9,6.7c1.9,2.1,4.1,4.1,6.4,5.9c0.8,0.6,1.7,1.3,2.5,1.9c4.1,2.8,8.4,4.9,12.6,6.3c2.6,0.9,5.2,1.5,7.8,1.9
	c2.6,0.3,5.2,0.4,7.6,0.1c3-0.4,5.9-1.1,8.5-2s5-2.1,7.1-3.3s4.1-2.6,5.8-4c0.7-0.6,1.4-1.1,2.1-1.7c1-0.8,1.8-1.7,2.7-2.5
	c0.6-0.6,1.2-1.3,1.8-1.9c0.1-0.1,0.2-0.2,0.3-0.3c1.9-2.2,3.6-4.4,5-6.7c1.5-2.4,2.7-4.7,3.5-6.9c1.3-3.2,2-6,2.4-7.9
	C223.5,173,223.8,169.7,223.4,166z M216,175.1c-0.1,1.6-0.1,4-0.6,7c-0.3,2-0.9,4.3-1.9,6.6s-2.3,4.7-4,7c-0.5,0.6-1,1.2-1.5,1.8
	c-1,1-2,2-3.2,2.9c-2,1.6-4.3,3-7,4.1c-2.1,0.9-4.3,1.7-6.7,2.2s-5,0.9-7.6,0.9c-2,0.1-4-0.2-6.2-0.6c-2.1-0.5-4.4-1.1-6.6-1.9
	c-3.7-1.3-7.5-3.1-11.2-5.4c-0.8-0.5-1.6-1-2.4-1.5c-2.2-1.5-4.2-3.1-6-4.9c-1.8-1.7-3.4-3.6-4.7-5.5c-1.3-2-2.4-4-3.1-6.1
	c-0.7-2.2-1.1-4.4-1-6.6c0.1-2.6,0.4-5.1,1-7.5c0.5-2.3,1.3-4.5,2.1-6.6c1.7-4,3.8-7.4,6-10.2c2.9-3.7,5.8-6.3,8.2-8.1
	c1.3-1,2.5-1.8,3.6-2.4c1.1-0.6,2-1,2.8-1.4c0.8-0.3,1.3-0.5,1.7-0.6c0.2-0.1,0.3-0.1,0.4-0.1c0.2,0,0.6-0.1,1.3-0.3
	c0.9-0.2,2.2-0.4,3.8-0.5c1.6-0.2,3.6-0.3,5.8-0.2s4.7,0.3,7.2,0.9c2.5,0.5,5.1,1.3,7.7,2.3c2.4,1,4.7,2.1,6.9,3.6
	c0.2,0.1,0.4,0.3,0.6,0.4c0.5,0.4,1.1,0.7,1.6,1.1c1.5,1.1,3,2.3,4.3,3.6c1.8,1.8,3.3,3.6,4.6,5.6s2.3,4.1,3,6.2
	c0.7,2.1,1.1,4.1,1.3,6C216.3,170,216.2,172.7,216,175.1z"/>
<path d="M246.7,142.2c-5.4,0-7.9,6.6-7.9,12s2.1,10.3,7.5,10.3s10.5-5.5,10.5-10.9C256.8,148.3,252.1,142.2,246.7,142.2L246.7,142.2
	z"/>
<path d="M197.3,164.2c-5.4,0-11.3,5.9-11.3,11.3c0,5.4,3.6,10.9,9,10.9s10.5-5.5,10.5-10.9C205.6,170.1,202.7,164.2,197.3,164.2z"/>
<path d="M238.9,282.5c0,0-3.1-8.1-4.8-14.5c-0.5-1.8-1-3.4-1.2-4.8c-0.2-1.2-0.6-4-1.6-6.8c-0.1-0.4-0.3-0.7-0.5-1.1
	c-0.6-1.4-1.5-2.9-2.5-4.5c-1-1.7-2.2-3.5-3.6-5.5c-0.4-0.5-0.8-1.1-1.2-1.7c-3.6-5.5-6.3-9.6-8.3-12.5c-1.2-1.9-2.2-3.3-2.8-4.2
	c-0.3-0.5-0.6-0.9-0.7-1.1c-0.1-0.1-0.1-0.2-0.2-0.3v-0.1l0,0l0,0l0,0c0.6-0.5,0.9-0.7,0.9-0.7l0,0l0,0l0,0l0,0l0,0l0,0
	c0,0-0.3,0.3-0.9,0.7l0,0l0,0l0,0c0,0,0,0,0.1,0.1s0.1,0.1,0.3,0.2c0.2,0.2,0.5,0.5,1,1c0.8,0.8,1.9,2,3.5,3.7
	c2.4,2.6,5.7,6.3,9.9,11.4c0.5,0.5,0.9,1.1,1.3,1.6c0.8,1.1,1.4,2.2,1.9,3.2s0.9,2.1,1.2,3c0.7,1.9,1.1,3.6,1.6,5.1
	c0.1,0.4,0.3,0.8,0.5,1.2c0.6,1.4,1.4,2.7,2.1,3.7c0.7,1.1,1.3,1.9,1.5,2.5c0.5,1.3,0.9,3,1.3,4.9
	C238.5,273.6,238.9,282.5,238.9,282.5L238.9,282.5z"/>
<path d="M227.1,222c0,0,3.2,6,5.5,11.4c1,2.2,1.8,4.3,2.2,5.9c0.2,0.8,0.5,2.2,1.1,3.9l0,0c0.3,0.8,0.6,1.6,0.9,2.4
	c0.6,1.5,1.7,3,3,4.7c1.5,1.9,3.2,4.2,4.9,7.1c7.4,12.6,10.1,17.8,10.1,17.8l0,0c-0.6,0.4-1,0.6-1,0.6s0.3-0.2,1-0.6l0,0
	c0,0-4-4.4-12.8-16.1c-2.1-2.7-3.3-5.3-4.3-7.5c-1-2.1-1.5-3.9-2.2-5.3c-0.4-0.8-0.9-1.5-1.4-2.2l0,0c-1.1-1.5-2.2-2.6-2.5-3.4
	c-0.7-1.5-1.4-3.7-2-6C228.1,228.9,227.1,222,227.1,222L227.1,222z"/>
<path style="fill:none;stroke:#000000;stroke-width:3;" d="M138.7,218.8c-3.6,0-5.3,4.9-4.5,8.1c1,3.8,3,5.9,6.6,5.9
	s6.6-2.7,6.6-5.9C147.5,223.7,142.3,218.8,138.7,218.8L138.7,218.8z"/>
<path style="fill:none;stroke:#000000;stroke-width:3;" d="M157.7,223.7c-1.7,0-3.5,1.2-3.1,2.7c0.5,1.7,1.4,2.7,3.1,2.7
	c1.7,0,3.1-1.2,3.1-2.7S159.4,223.7,157.7,223.7z"/>
<path style="fill:none;stroke:#000000;stroke-width:3;" d="M152.3,232.8c-1.7,0-3.3,2.5-2.9,4c0.5,1.7,1.4,2.7,3.1,2.7
	c1.7,0,3.1-1.2,3.1-2.7S154,232.8,152.3,232.8L152.3,232.8z"/>
</svg>
