<?xml version="1.0" encoding="utf-8"?>
<!-- Generator: Adobe Illustrator 22.1.0, SVG Export Plug-In . SVG Version: 6.00 Build 0)  -->
<svg version="1.1" id="Layer_1" xmlns="http://www.w3.org/2000/svg" xmlns:xlink="http://www.w3.org/1999/xlink" x="0px" y="0px"
	 viewBox="0 0 512 512" style="enable-background:new 0 0 512 512;" xml:space="preserve">
<g>
	<path style="fill:none;stroke:#000000;stroke-miterlimit:10;" d="M322.3,344.4l0.4-39.4l0.4,4.8c0,3.2,0.1,5.2,0.4,6v1.2h52.7
		l53.1-0.4l0.4-5.6v-5.2c0.3,0,0.4,12.7,0.4,38.2v38.6l-0.4-32.2c-0.3-21.4-18-32.2-53.1-32.2l-53.1-0.4v31.8
		c-0.3,21.4-0.4,32.4-0.4,33v1.2h53.5c35.7-0.3,53.5-0.4,53.5-0.4h0.4c0.3,0.3,0.4,0.5,0.4,0.8v0.4c-0.3-0.3-9.7-0.4-28.1-0.4
		c-18.2,0-27.6,0.1-28.1,0.4l-0.4,0.4c0,0-8.7-0.1-26.1-0.4c-17.4,0-26.1,0.1-26.1,0.4c-0.3,0.3-0.7,0.5-1.2,0.8l-0.8,0.8v-0.4
		c0-0.3,0.3-0.7,0.8-1.2C321.3,384.2,321.8,370.6,322.3,344.4z"/>
	<path style="fill:none;stroke:#000000;stroke-miterlimit:10;" d="M455,298.9h0.4l10.5,0.4c7,0.3,11.3,0.7,12.9,1.2
		c1.6,1.1,2.8,2.1,3.6,3.2c0.5,1.3,0.9,14.5,1.2,39.4L484,381v0.4h-0.4v0.4c-0.3,0.3-0.5,0.8-0.8,1.6c-0.3,1.1-1.2,2.1-2.8,3.2
		c-1.3,1.1-7,1.7-16.9,2l-14.5,0.4H447c-0.8,0-1.2,0-1.2,0h-0.4c0,0-1.1,0-3.2,0c-2.4,0-4.4-0.3-6-0.8s-2.8-1.2-3.6-2l-1.6-1.6v-0.4
		c0-0.3-0.1-0.5-0.4-0.8V383c-0.3-0.3-0.4-0.4-0.4-0.4V344c0-25.5-0.1-38.2-0.4-38.2l1.2-2c0.5-1.1,1.5-2,2.8-2.8
		c1.1-0.8,4.8-1.2,11.3-1.2C451.4,299.2,454.8,298.9,455,298.9z"/>
	<path style="fill:none;stroke:#000000;stroke-miterlimit:10;" d="M284.6,299.3l8.8-0.4h0.8l11.7,0.8c7.8,0,12.3,0.5,13.7,1.6
		c1.3,0.8,2.1,1.6,2.4,2.4c0.3,0.5,0.5,0.8,0.8,0.8v0.4l-0.4,39.4c-0.5,26.3-0.8,39.5-0.8,39.8v0.8c0,0-0.1,0-0.4,0v0.4
		c-0.3,0-0.4,0.1-0.4,0.4c0,0-0.1,0-0.4,0v0.4c-0.3,0-0.4,0.1-0.4,0.4c0,0-0.4,0.3-1.2,0.8c-0.8,0.5-3.5,0.9-8,1.2l-6.8,0.4h-1
		c-0.3,0-4.8,0-13.7,0c-8.6,0-13.7-0.5-15.3-1.6c-1.9-0.8-2.9-1.3-3.2-1.6c0-0.5-0.3-1.3-0.8-2.4s-2.9-1.6-7.2-1.6l-6.8-0.4V381
		h12.9v-37c0.3-24.4,0.4-37,0.4-37.8s0.5-1.7,1.6-2.8c0.8-1.3,1.9-2.3,3.2-2.8S278.9,299.6,284.6,299.3z"/>
	<path style="fill:none;stroke:#000000;stroke-miterlimit:10;" d="M323.6,349.6v-31.8l53.1,0.4c35.1,0,52.8,10.7,53.1,32.2l0.4,32.2
		c0,0,0.1,0.1,0.4,0.4v0.4h-0.4c0,0-17.8,0.1-53.5,0.4h-53.5v-1.2C323.2,382,323.3,371,323.6,349.6z"/>
	<path style="fill:none;stroke:#000000;stroke-miterlimit:10;" d="M455.4,275.6v23.3H455c-0.3,0-3.6,0.3-10.1,0.8
		c-6.4,0-10.2,0.4-11.3,1.2c-1.3,0.8-2.3,1.7-2.8,2.8l-1.2,2v5.2l-0.4,5.6l-53.1,0.4h-52.7v-1.2c-0.3-0.8-0.4-2.8-0.4-6l-0.4-4.8
		v-0.4c-0.3,0-0.5-0.3-0.8-0.8c-0.3-0.8-1.1-1.6-2.4-2.4c-1.3-1.1-5.9-1.6-13.7-1.6l-11.7-0.8h-0.8h0.4v-0.4h0.4v-0.4l0.4-23.3
		c0.3-15.5,0.9-24.3,2-26.1c1.1-1.9,2.1-3.4,3.2-4.4c1.3-1.1,3.2-2.1,5.6-3.2c2.4-0.5,25.7-0.8,70-0.8c44.5,0,67.7,0.4,69.6,1.2
		s3.8,2,5.6,3.6c1.9,1.9,3.1,3.6,3.6,5.2C454.8,251.9,455.2,260.3,455.4,275.6z"/>
</g>
<polyline style="fill:none;stroke:#000000;stroke-miterlimit:10;" points="268.5,383.5 -0.5,388.5 -0.5,511.5 511.5,511.5 
	511.5,383.5 483.5,383.5 "/>
</svg>
