<?xml version="1.0" encoding="utf-8"?>
<!-- Generator: Adobe Illustrator 22.1.0, SVG Export Plug-In . SVG Version: 6.00 Build 0)  -->
<svg version="1.1" id="Layer_1" xmlns="http://www.w3.org/2000/svg" xmlns:xlink="http://www.w3.org/1999/xlink" x="0px" y="0px"
	 viewBox="0 0 512 512" style="enable-background:new 0 0 512 512;" xml:space="preserve">
<path style="fill:none;stroke:#000000;stroke-miterlimit:10;" d="M278.1,75.6c4.9,6.8,9.3,14,13.5,21.3c10.5,18.4,19,38,23.6,58.7
	c4.2,19.1,5.2,39.5-1.4,58.2c-2.6,7.3-6.5,14.3-11.7,20.2c-5.1,5.9-11.4,10.6-18.4,13.9c-9.5,4.5-20,6.4-30.4,6.7
	c1.1-10.3,4-20.3,7.6-30c4-10.7,9-21.1,13.1-31.8c3.4-8.8,6.3-18,7.2-27.5c0.8-8.3,0-16.9-2.6-24.9c0.7,6.6,1.1,13.2,0.4,19.7
	c-0.8,9.7-3.9,19-8,27.7c-4.5,9.4-10.2,18.3-15.1,27.5c-4.4,8.3-8.1,17.1-10.3,26.3c-0.9,3.3-1.2,6.7-2,10c-3.4-9.4-6.3-19-8.5-28.8
	c-2.9-12.7-4.3-25.9-2.8-38.9c1-7.9,3.2-15.7,6.8-22.9c8.6-17.9,24.6-31,32.8-49.1C277.3,100.7,278.9,88,278.1,75.6 M277.6,101.2
	c-2.1,10.3-6.4,20-11.6,29.1c-5.7,9.9-12.5,19.2-18,29.3c-6,10.9-10,23.1-10.9,35.6c-1,12.3,0.6,24.6,3.4,36.5
	c0.7,2.7,1.2,5.4,2.2,8c-1.5-8.5-2.2-17.3-1.4-25.9c1-14.3,5.2-28.2,10.4-41.5c6.5-16.7,15-32.6,21.4-49.3
	c3.7-9.8,6.8-20.3,6.1-30.9C278.5,95.1,278.4,98.2,277.6,101.2 M297.7,122.6c0.2,1.7,0.5,3.4,0.9,5.1c2.5,10,5.2,20,7.3,30.2
	c1.6,8.8,3,17.7,2.2,26.7c-0.7,8.5-3.2,16.8-7,24.4c-1.6,3.9-4,7.3-6,10.9c-3.8,6.1-8,11.9-12.6,17.4c-1.7,2.3-3.7,4.2-5.1,6.7
	c1.3-0.2,2.5-0.5,3.6-1.2c3.3-1.9,6.7-3.9,9.8-6.1c9.3-7,17.1-16.4,20.6-27.6c2.8-7.9,3.7-16.4,3.4-24.7
	c-0.6-18.6-6.6-36.4-13.4-53.5C300.3,128.1,299.4,125.2,297.7,122.6L297.7,122.6z"/>
<path style="fill:none;stroke:#000000;stroke-miterlimit:10;" d="M277.6,101.2c0.7-3,0.9-6.1,1.5-9.2c0.7,10.6-2.4,21.1-6.1,30.9
	c-6.4,16.7-14.9,32.6-21.4,49.3c-5.2,13.3-9.3,27.2-10.4,41.5c-0.8,8.7-0.1,17.4,1.4,25.9c-1-2.6-1.5-5.3-2.2-8
	c-2.8-11.9-4.4-24.2-3.4-36.5c0.9-12.5,4.9-24.6,10.9-35.6c5.5-10.1,12.2-19.4,18-29.3C271.3,121.3,275.5,111.5,277.6,101.2
	L277.6,101.2z"/>
<path style="fill:none;stroke:#000000;stroke-miterlimit:10;" d="M297.7,122.6c1.7,2.6,2.6,5.5,3.8,8.3
	c6.8,17.1,12.8,34.9,13.4,53.5c0.3,8.4-0.6,16.8-3.4,24.7c-3.5,11.2-11.3,20.6-20.6,27.6c-3.2,2.2-6.5,4.2-9.8,6.1
	c-1.1,0.7-2.4,0.9-3.6,1.2c1.4-2.5,3.5-4.4,5.1-6.7c4.5-5.6,8.8-11.3,12.6-17.4c2-3.6,4.4-7,6-10.9c3.8-7.6,6.2-15.9,7-24.4
	c0.9-8.9-0.5-17.9-2.2-26.7c-2.1-10.1-4.8-20.1-7.3-30.2C298.2,126,297.9,124.3,297.7,122.6L297.7,122.6z"/>
<path style="fill:none;stroke:#000000;stroke-miterlimit:10;" d="M119.4,167.9c18.2,3.7,36.2,9.4,52.5,18.2
	c12.7,6.9,24.6,16,32.7,28.1c6.3,9.3,9.8,20.7,8.7,32c-0.8,8.9-4,17.4-8.8,24.9c-5.7,8.9-13.2,16.4-21.5,22.8
	c-4.7-8.6-7.1-18.2-8.7-27.8c-2.3-12.9-2.9-26.3-7.8-38.6c-3.2-8.1-9-15.2-16.5-19.7c1.4,1.6,3,3,4.3,4.7c4.3,5,7.6,10.8,9.4,17.2
	c3.6,12.1,2.5,24.8,3,37.2c0.2,10.7,2.3,21.6,7.2,31.2c-8.4-4.5-16.6-9.6-24-15.7c-8.7-7.2-16.5-16.3-19.9-27.3
	c-3.5-11-2.2-22.9-0.5-34.1c1.6-10.9,3.4-22.2,0.6-33C128.6,180.3,124.4,173.6,119.4,167.9 M156.6,182.6c2.1,2.5,5,4.1,7.4,6.2
	c4.2,3.7,8.8,7.1,12.7,11.2c7,6.7,13.2,14.5,17.3,23.4c3.5,7.9,5,16.5,4.9,25.1c0.1,7.5-1.1,15-2.5,22.4c-0.8,3.8-2.1,7.6-2.5,11.5
	c2.6-3.3,4.5-7.1,6.4-10.9c4.7-9.6,7.6-20.3,7.3-31c-0.7-10.5-4.6-20.8-11.2-28.9c-2.6-3.6-5.7-6.7-9-9.7c-6-5.2-12.5-9.9-19.4-13.9
	C164.4,186,160.7,183.7,156.6,182.6 M134.3,189.9c0.4,3.3,1.3,6.6,1.4,9.9c0.8,9.3-0.8,18.5-2.4,27.6c-1.1,7-2.2,14.1-0.9,21.1
	c0.8,5.2,2.8,10.2,5.5,14.7c5.4,9.1,13.2,16.5,21.2,23.2c2.3,1.8,4.4,3.8,6.9,5.3c-8.1-8.1-15.3-17.3-19.9-27.9
	c-3.8-8.5-5.7-17.8-6.3-27c-0.7-8.9-0.1-17.9-0.8-26.8C138.5,203.2,137.3,196.2,134.3,189.9L134.3,189.9z"/>
<path style="fill:none;stroke:#000000;stroke-miterlimit:10;" d="M412.4,180.7c21.7-3.3,43.8-2.7,65.6-0.4
	c-5.3,2.5-10.5,5.2-15.2,8.7c-6.5,4.7-12.1,10.5-16.6,17.1c-10.3,15.2-14.5,33.7-25.4,48.5c-8.4,11.9-20.8,20.6-34.1,26.2
	c-15.3,6.6-31.8,10.2-48.2,12.5c5.4-4.1,10.7-8.5,15.3-13.6c10.7-11.5,17.8-25.6,26.8-38.3c5.7-8.2,12.6-15.6,20.8-21.3
	c6-4.2,12.7-7.3,19.4-10c-9,1.8-17.7,5.4-25.2,10.7c-12.3,8.6-21.6,20.7-30.9,32.3c-9.8,12.2-20.1,24.3-33.2,33.1
	c-5.4-10.6-8.7-22.4-8.4-34.4c0.2,0,0.7,0,1,0c0.9-1.2,1.9-2.4,3.1-3.5l0.3,1.2c-0.3,4.7-0.3,9.5,0.3,14.2
	c5.4-14.6,11.2-29.3,20.5-41.9c4.7-6.4,10.5-12.1,17.2-16.5c7-4.6,14.8-7.9,22.7-10.6c10.1-3.4,20.5-6.1,30.7-9
	c2.4-0.7,4.9-1.3,7.3-2.3c-6,0.6-12,1.7-18,2.5C409.3,184.1,410.7,182.3,412.4,180.7 M450.8,192.5c-10.7,10.1-19,22.4-27.5,34.3
	c-4.8,6.7-9.7,13.4-14.7,20c-4,5-8.2,9.8-12.6,14.6c-6.8,6.9-14.3,13.1-22.4,18.3c-4.4,2.9-9.3,4.9-13.8,7.7c4.1-0.5,8-2.1,11.9-3.6
	c8-3.2,15.9-6.7,23-11.7c12.9-8.4,22.6-20.8,29.9-34.3c4.7-8.4,8.6-17.3,13.7-25.6c2.3-4,5-7.7,7.7-11.5c4.3-5.5,9.4-10.2,14.5-15
	C456.9,187.4,453.8,190,450.8,192.5L450.8,192.5z"/>
<path style="fill:none;stroke:#000000;stroke-miterlimit:10;" d="M364.4,195.1c15-7.6,31.4-12.1,48-14.3c-1.7,1.5-3.1,3.4-4.3,5.3
	c-17.4,2.8-35,7-50.3,16c-7.8,4.6-14.8,10.5-20.1,17.9c-6.3,8.7-9.5,19.2-10.3,29.8c-0.1-0.3-0.2-0.9-0.3-1.2
	c-1.1,1-2.1,2.2-3.1,3.5c-0.2,0-0.7,0-1,0c0.3-10,3.3-19.9,8.6-28.3C339.4,211.1,351.4,201.7,364.4,195.1L364.4,195.1z"/>
<path style="fill:none;stroke:#000000;stroke-miterlimit:10;" d="M156.6,182.6c4.1,1.1,7.7,3.4,11.4,5.5c6.9,3.9,13.4,8.6,19.4,13.9
	c3.3,3,6.4,6.1,9,9.7c6.6,8.2,10.5,18.5,11.2,28.9c0.3,10.8-2.6,21.4-7.3,31c-1.9,3.7-3.8,7.5-6.4,10.9c0.5-3.9,1.7-7.6,2.5-11.5
	c1.4-7.4,2.6-14.9,2.5-22.4c0.1-8.6-1.5-17.2-4.9-25.1c-4-8.9-10.2-16.7-17.3-23.4c-3.9-4.1-8.4-7.5-12.7-11.2
	C161.6,186.6,158.8,185,156.6,182.6L156.6,182.6z"/>
<path style="fill:none;stroke:#000000;stroke-miterlimit:10;" d="M408.1,186c6-0.8,12-1.9,18-2.5c-2.4,1-4.9,1.5-7.3,2.3
	c-10.2,3-20.6,5.7-30.7,9c-7.9,2.7-15.7,5.9-22.7,10.6c-6.7,4.4-12.5,10.1-17.2,16.5c-9.3,12.6-15.1,27.3-20.5,41.9
	c-0.6-4.7-0.7-9.5-0.3-14.2c0.8-10.6,4.1-21.1,10.3-29.8c5.2-7.4,12.3-13.3,20.1-17.9C373.1,193,390.7,188.8,408.1,186L408.1,186z"
	/>
<path style="fill:none;stroke:#000000;stroke-miterlimit:10;" d="M450.8,192.5c3-2.6,6-5.2,9.7-6.7c-5,4.8-10.2,9.5-14.5,15
	c-2.7,3.7-5.5,7.4-7.7,11.5c-5.1,8.2-9,17.1-13.7,25.6c-7.2,13.4-16.9,25.9-29.9,34.3c-7.1,4.9-15,8.5-23,11.7
	c-3.9,1.4-7.7,3.1-11.9,3.6c4.5-2.8,9.4-4.9,13.8-7.7c8.2-5.2,15.6-11.4,22.4-18.3c4.3-4.7,8.6-9.5,12.6-14.6
	c5-6.6,9.9-13.2,14.7-20C431.8,214.9,440.1,202.6,450.8,192.5L450.8,192.5z"/>
<path style="fill:none;stroke:#000000;stroke-miterlimit:10;" d="M134.3,189.9c3.1,6.2,4.2,13.3,4.8,20.1c0.6,8.9,0.1,17.9,0.8,26.8
	c0.6,9.3,2.5,18.5,6.3,27c4.6,10.6,11.8,19.8,19.9,27.9c-2.5-1.5-4.7-3.5-6.9-5.3c-8.1-6.7-15.8-14.1-21.2-23.2
	c-2.7-4.5-4.6-9.5-5.5-14.7c-1.2-7-0.2-14.2,0.9-21.1c1.6-9.1,3.3-18.3,2.4-27.6C135.6,196.5,134.7,193.2,134.3,189.9L134.3,189.9z"
	/>
<path style="fill:none;stroke:#000000;stroke-miterlimit:10;" d="M246.2,306.5c-2.7-19.9-1.5-40.2,2-59.9
	c0.2,12.5-0.3,25.1,0.6,37.6c0.5,9.1,1.7,18.2,3.8,27.1c-0.2,0.1-0.6,0.2-0.8,0.3c-0.3-0.3-0.6-0.7-1-1c-0.4,0.3-0.8,0.6-1.1,0.9
	c-2.1-8.8-2.8-17.8-3.2-26.8c-0.2-5.7,0.1-11.3-0.1-17c-1.7,18.5-1.2,37.5,3.8,55.5c2.2,8.3,5.3,16.3,8.8,24.1c1.3,3,2.9,5.9,4.2,9
	c-7.5-2-14.7-4.8-21.7-7.9c-2.8-1.4-6-2.3-8.3-4.5c9.2,4.6,18.9,8.3,28.8,11.2c-2.9-5.8-5.7-11.7-7.9-17.8
	C250.2,327.3,247.6,317,246.2,306.5L246.2,306.5z"/>
<path style="fill:none;stroke:#000000;stroke-miterlimit:10;" d="M250.2,323.1c-5-18-5.5-37-3.8-55.5c0.3,5.7-0.1,11.3,0.1,17
	c0.4,9,1.1,18,3.2,26.8c1.9,8.8,4.7,17.3,8.4,25.5c3.1,6.8,6.7,13.3,10.6,19.6c1.2,2.3,4.1,2.4,6.3,3.1c9.3,2.6,18.7,4.7,28.1,6.5
	c9.6,1.8,19.4,2.2,29.1,3.2c29.4,3,58.5,7.9,87.5,13.7c-1.2,1.1-2.4,2.2-3.2,3.6c-0.9,1.5-0.9,3.4-1,5.1c-13.8-4.8-28-8.2-42.3-10.8
	c-21.7-4.1-43.7-6.4-65.5-10.4c-15.9-3-31.7-6.9-47-11.9c-15.8-5.3-31.2-12.1-44.9-21.6c-5.3-3.7-10.3-7.8-15-12.3
	c-4.3-4.4-8.6-8.8-12-13.9c2.3,2,4.2,4.4,6.3,6.6c8.9,9,19.1,16.6,30,22.9c1.6,1,3.3,2,5.2,2.2c0.9,0.5,1.8,0.9,2.7,1.4
	c2.3,2.2,5.5,3.1,8.3,4.5c7.1,3.1,14.3,5.9,21.7,7.9c-1.2-3.1-2.8-6-4.2-9C255.4,339.4,252.4,331.4,250.2,323.1L250.2,323.1z"/>
<path style="fill:none;stroke:#000000;stroke-miterlimit:10;" d="M322.3,301.9c4.3-4.4,8.8-8.6,13.7-12.3c-2.9,3.5-6,6.8-8.6,10.5
	c-0.5,0.2-1.1,0.4-1.6,0.6c-0.2,0-0.7-0.1-0.9-0.2C324.1,300.9,323.2,301.4,322.3,301.9L322.3,301.9z"/>
<path style="fill:none;stroke:#000000;stroke-miterlimit:10;" d="M175.5,291.1c5,7.5,10.3,14.8,16.4,21.5
	c10.9,12.1,24,22.2,38.4,29.8c-1.9-0.2-3.6-1.2-5.2-2.2c-10.9-6.4-21.1-13.9-30-22.9c-2.1-2.2-4-4.6-6.3-6.6
	c3.3,5.2,7.7,9.5,12,13.9c-0.2,0.5-0.4,1.1-0.6,1.6c-3.9-3.4-7-7.6-10.8-11.2c2.9,5.3,7,9.9,10.8,14.6c3.1,3.5,6.3,6.8,9.9,9.8
	c0.8,0.6,1.2,1.5,1.6,2.4C195.1,328.8,182.7,310.8,175.5,291.1L175.5,291.1z"/>
<path style="fill:none;stroke:#000000;stroke-miterlimit:10;" d="M325.9,300.6c0.5-0.2,1-0.4,1.6-0.6c-8.1,10.9-13.6,23.5-16.6,36.7
	c-2.2,9-3.1,18.2-3.7,27.5c-0.2,0.5-0.3,1-0.5,1.5c-1.3-0.6-2.7-1.1-3.7-2.2c-0.6-3.5,0-7,0.3-10.5
	C305.1,333.7,313.6,315.4,325.9,300.6L325.9,300.6z"/>
<path style="fill:none;stroke:#000000;stroke-miterlimit:10;" d="M324.9,300.4c0.2,0,0.7,0.1,0.9,0.2
	c-12.3,14.8-20.8,33.1-22.6,52.4c-0.3,3.5-0.9,7-0.3,10.5c1,1,2.4,1.5,3.7,2.2c0.2-0.5,0.3-1,0.5-1.5c23.8,3.1,47.7,4.7,71.5,7.9
	c15.8,2.2,31.5,5.2,46.6,10.1c1,0.4,2.2,0.9,2.5,2c0.5,1.9,0.1,3.8,0.1,5.8c-0.2,5.7,1.5,11.3,4.1,16.3c4,7.4,7.1,15.5,7.9,23.9
	c0.2,2.7,0.1,6.4-2.8,7.5h-0.8c-2.4-0.8-4.5-2.3-6.3-4c-1.1-4.6-4-8.6-6.1-12.8c-4.9-8.5-8.8-17.8-8.8-27.7c-8-3-16.3-5-24.6-6.7
	c-13.5-2.8-27.2-3.8-40.9-4.8c-19.2-1.2-38.4-3.5-56.8-9.3c-3.9-1-7.5-3.1-11.6-3.3c-8.6-0.4-17.3-0.2-25.9,0.4
	c-1.3,0-2.7-0.1-4,0.1c-6.6,0.8-13.2,1.6-19.7,2.8c0.8-1,1.7-1.9,2.6-2.7c7.2-1.5,14.5-2.6,21.8-3.3c-1.4-0.6-2.8-1.1-4.2-1.7
	c2.3-1.2,4.4,1.2,6.7,1.1c1-0.5,1.8-1.2,2.7-1.9c-3.6-1.7-7.3-3.1-10.9-4.7c-18.3-8.2-35.9-18.6-50.2-32.7c0.2-0.6,0.4-1.1,0.6-1.6
	c4.7,4.4,9.7,8.6,15,12.3c13.7,9.6,29.1,16.4,44.9,21.6c15.4,5.1,31.1,8.9,47,11.9c21.7,4,43.7,6.3,65.5,10.4
	c14.3,2.7,28.5,6.1,42.3,10.8c0.2-1.7,0.1-3.5,1-5.1c0.8-1.4,2.1-2.5,3.2-3.6c-28.9-5.8-58.1-10.6-87.5-13.7
	c-9.7-1-19.5-1.4-29.1-3.2c-9.5-1.8-18.9-3.9-28.1-6.5c0.2,0,0.7,0.1,1,0.1c-1-1.8-2-3.6-2.7-5.5c1.9,1.8,3.1,5,6,5.3
	c6,1.2,12,2.3,18,3.3c0.6-13.7,3-27.6,9.4-39.9c4-7.7,9.4-14.7,15.5-20.9C323.2,301.4,324.1,300.9,324.9,300.4 M419.2,396
	c-0.8,5.6,1.9,10.8,4,15.8c2.9,6.1,5.9,12.2,9.6,18c1.1,1.6,2.1,3.4,3.8,4.5c0.7-1.1,0.5-2.4,0.4-3.6c-0.5-5.2-3-9.8-5.3-14.4
	c-2.9-5.6-5.3-11.6-5.9-17.9c-0.3-2.8-0.3-5.6-0.5-8.5c0-1.1-0.8-2-1.4-2.9C420.7,388.8,419.8,392.7,419.2,396z"/>
<path style="fill:none;stroke:#000000;stroke-miterlimit:10;" d="M250.9,310.5c0.3,0.3,0.6,0.7,1,1c0.2-0.1,0.6-0.2,0.8-0.3
	c2,8.4,5,16.7,8.9,24.4c-0.5-0.3-1-0.6-1.5-0.8c-0.8,0.5-1.3,1.3-1.9,2.1c-3.7-8.2-6.4-16.8-8.4-25.5
	C250.1,311.1,250.5,310.8,250.9,310.5L250.9,310.5z"/>
<path style="fill:none;stroke:#000000;stroke-miterlimit:10;" d="M258.1,336.9c0.6-0.7,1.1-1.6,1.9-2.1c0.5,0.2,1,0.5,1.5,0.8
	c3.3,6.6,7.3,12.7,11.8,18.6c0.7,1.9,1.6,3.7,2.7,5.5c-0.2,0-0.7-0.1-1-0.1c-2.2-0.6-5.1-0.8-6.3-3.1
	C264.8,350.2,261.2,343.7,258.1,336.9L258.1,336.9z"/>
<path style="fill:none;stroke:#000000;stroke-miterlimit:10;" d="M120.1,362.8c10-3.8,20.8-5.3,31.4-4.9
	c16.8,0.5,33.1,4.9,48.9,10.4c0,0.3,0.1,0.8,0.1,1.1c-0.8-0.3-1.7-0.5-2.5-0.7c-0.2,0.2-0.5,0.6-0.7,0.8c-18.1-6-37.5-9.8-56.6-7.1
	c-10.8,1.4-21.2,5.1-31,9.7c-14.1,6.6-27.6,14.6-42.7,18.6c-3.3,0.9-6.6,1.7-9.9,2.1c-2.4-0.3-4.8-0.3-7.2,0c1-0.6,2.1-1.2,3.1-1.7
	c7.1-0.6,14.2-2.1,20.9-4.7C90.1,380.2,103.8,368.7,120.1,362.8z"/>
<path style="fill:none;stroke:#000000;stroke-miterlimit:10;" d="M140.7,362.3c19.1-2.7,38.5,1.1,56.6,7.1c0.2,0.1,0.5,0.2,0.7,0.3
	c-3.7-0.5-7.3-1.6-11.1-2c-19.2-2.5-38.6,0.6-57,5.8c-11.3,3.2-22.4,7.1-33.5,10.9c-10,3.4-20.2,6.7-30.6,8.7
	c-6.5,1.2-13.1,1.6-19.6,0.9c3.7-0.3,7.4-0.5,11-1.3c3.4-0.4,6.6-1.2,9.9-2.1c15.1-4,28.6-12,42.7-18.6
	C119.5,367.4,129.9,363.7,140.7,362.3L140.7,362.3z"/>
<path style="fill:none;stroke:#000000;stroke-miterlimit:10;" d="M129.9,373.5c18.4-5.3,37.9-8.3,57-5.8c3.7,0.4,7.4,1.4,11.1,2
	c-0.2-0.1-0.5-0.2-0.7-0.3c0.2-0.2,0.5-0.6,0.7-0.8c0.8,0.2,1.7,0.5,2.5,0.7c0-0.3-0.1-0.8-0.1-1.1c3.8,1.4,7.6,2.7,11.3,4.3
	c-9.3,0.6-18.5,2.1-27.4,4.8c-9.4,2.8-18.3,6.8-27.4,10.5c-10.1,4.2-20.7,7.8-31.7,8.9c-9.3,1-18.6,0.4-27.7-1.5
	c5.7,2.2,11.8,3.3,17.8,3.9c11.5,0.9,23-1,34.1-3.9c10.9-2.8,21.5-6.4,32.4-9.2c10.4-2.7,21.1-4.7,31.9-4.9c-1,8.4-3.4,16.7-7.7,24
	c-4.3,7.4-10.5,13.7-17.8,18.2c-7.7,4.8-16.4,7.8-25.4,9.2c-19.5,3.2-39.6,0.2-58.4-5.6c-20-6.2-38.9-15.6-56.6-26.7
	c-5-3.2-9.9-6.4-14.6-9.9c6.5,0.7,13.1,1.1,19.6,0.6c-1.1,0.5-2.1,1.1-3.1,1.7c2.4-0.3,4.8-0.3,7.2,0c-3.6,0.7-7.3,0.9-11,1.3
	c6.5,0.7,13.2,0.3,19.6-0.9c10.5-1.9,20.6-5.3,30.6-8.7C107.4,380.6,118.5,376.7,129.9,373.5 M206.6,389.8
	c-5.2,5.6-11,10.6-16.8,15.5c-7.1,5.7-14.8,10.7-23.3,14.2c-8,3.2-16.6,4.8-25.3,4.7c-12.9,0.3-25.7-2-38.4-3.7
	c-3.4-0.4-6.9-1.2-10.3-1c4.6,2,9.5,3,14.4,4.3c5.1,1.2,10.1,2.6,15.3,3.5c5.9,0.9,11.7,2.2,17.7,2.4c4,0.1,7.9,0.7,11.9,0.2
	c7.2-0.4,14.4-1.3,21.2-3.7c8.6-2.6,16.3-7.6,22.8-13.8c3.6-3.9,7-8.2,9.5-12.9c2.3-4.4,4.7-8.9,5.8-13.9
	C209.2,386.7,207.9,388.2,206.6,389.8L206.6,389.8z"/>
<path style="fill:none;stroke:#000000;stroke-miterlimit:10;" d="M255.3,369.4c8.6-0.6,17.2-0.9,25.9-0.4c4.1,0.2,7.7,2.3,11.6,3.3
	c18.4,5.9,37.6,8.1,56.8,9.3c13.7,1.1,27.4,2,40.9,4.8c8.3,1.7,16.7,3.7,24.6,6.7c0,9.9,3.9,19.3,8.8,27.7c2.1,4.2,5,8.1,6.1,12.8
	c-3.3-3.3-6.7-6.5-10.3-9.4c-1.9-2.7-4.7-4.4-7.2-6.4c-3.6-2.7-7.4-5.2-11.5-7.3c-14.2-7.9-29.6-13.5-45.2-18
	c-10.2-3.1-20.5-5.5-30.8-7.9c-3.5-0.5-6.8-2.2-10.4-1.6c-14.6-3.5-29.2-7.2-43.6-11.6c-0.9-0.5-1.9-1.2-3-1.2
	C263.9,370,259.5,370.8,255.3,369.4L255.3,369.4z"/>
<path style="fill:none;stroke:#000000;stroke-miterlimit:10;" d="M231.6,372.3c6.5-1.2,13.1-2,19.7-2.8c1.3-0.1,2.7-0.1,4-0.1
	c4.1,1.4,8.5,0.5,12.8,0.7c1.1,0,2,0.7,3,1.2c-16.7-1.1-33.3,1-49.7,3.9c-0.3-0.1-0.9-0.2-1.2-0.2
	C223.9,373.7,227.8,373.3,231.6,372.3z"/>
<path style="fill:none;stroke:#000000;stroke-miterlimit:10;" d="M204.9,378.1c9.6-3.6,19.4-6.4,29.4-8.6c-1,0.8-1.8,1.8-2.6,2.7
	c-3.8,1-7.7,1.4-11.4,2.7c0.3,0.1,0.9,0.2,1.2,0.2C215.9,376.2,210.4,377.2,204.9,378.1L204.9,378.1z"/>
<path style="fill:none;stroke:#000000;stroke-miterlimit:10;" d="M314.7,383c3.6-0.6,6.9,1.1,10.4,1.6c10.3,2.4,20.7,4.9,30.8,7.9
	c15.6,4.5,31,10.1,45.2,18c4,2.1,7.8,4.6,11.5,7.3c2.5,2,5.3,3.7,7.2,6.4c-15-11.9-32.6-20.1-50.6-26.3
	C351.3,391.9,332.9,387.6,314.7,383L314.7,383z"/>
<path style="fill:none;stroke:#000000;stroke-miterlimit:10;" d="M206.6,389.8c1.3-1.6,2.6-3.1,4.3-4.1c-1.1,4.9-3.4,9.4-5.8,13.9
	c-2.6,4.7-5.9,9-9.5,12.9c-6.4,6.2-14.2,11.2-22.8,13.8c-6.8,2.3-14,3.3-21.2,3.7c-4,0.4-7.9-0.1-11.9-0.2c-6-0.2-11.8-1.5-17.7-2.4
	c-5.2-0.9-10.2-2.3-15.3-3.5c-4.8-1.3-9.8-2.3-14.4-4.3c3.5-0.3,6.9,0.6,10.3,1c12.8,1.6,25.5,4,38.4,3.7c8.6,0.1,17.3-1.6,25.3-4.7
	c8.5-3.4,16.2-8.4,23.3-14.2C195.6,400.3,201.4,395.4,206.6,389.8L206.6,389.8z"/>
</svg>
