<?xml version="1.0" encoding="utf-8"?>
<!-- Generator: Adobe Illustrator 22.1.0, SVG Export Plug-In . SVG Version: 6.00 Build 0)  -->
<svg version="1.1" id="Layer_1" xmlns="http://www.w3.org/2000/svg" xmlns:xlink="http://www.w3.org/1999/xlink" x="0px" y="0px"
	 viewBox="0 0 512 512" style="enable-background:new 0 0 512 512;" xml:space="preserve">
<g>
	<path style="fill:none;stroke:#000000;stroke-miterlimit:10;" d="M314.5,275.9c-2.9-0.6-6.2-1.9-9.9-3.8c-0.3-0.1-0.6-0.3-0.9-0.5
		c-6.1-3.3-11.2-6-15.3-8.4c6.4-5.8,14.9-9.7,12-23.8c1.1,0.2,2.2,0.4,3.3,0.7c0.5,0.1,0.9,0.3,1.4,0.4c2.3,0.8,4.5,1.9,6.6,3.2
		c0.9,0.6,1.9,1.2,2.8,1.9c2.9,2.1,5.9,4.5,9.1,6.8c1.3,0.9,2.5,1.8,3.9,2.6C330.5,270.9,325.6,278.2,314.5,275.9z"/>
	<path style="fill:none;stroke:#000000;stroke-miterlimit:10;" d="M330,247.5c0,2.3-2.7,4.3-6.5,5.1c-3.2-2.3-6.2-4.7-9.1-6.8
		c-0.9-0.7-1.9-1.3-2.8-1.9c0.8-0.5,1.8-0.9,2.9-1.2c1.5-0.4,3.2-0.7,5-0.7C325.3,242,330,244.5,330,247.5z"/>
	<g>
		<g>
			<path style="fill:none;stroke:#000000;stroke-miterlimit:10;" d="M194.5,433.5c0,0.4,0,0.3-0.1-0.3
				C194.5,433.3,194.5,433.4,194.5,433.5z"/>
			<path style="fill:none;stroke:#000000;stroke-miterlimit:10;" d="M220,432.6c-0.3,0-1.3,0.2-2.7,0.4c-4.9-3.6-12.6-6-21.3-6
				c-0.6,0-1.1,0-1.7,0c-0.5-11.1-1.7-34-2.7-53c7.7,0.6,17-2.1,23.2-1.5C215.7,390.5,217.2,413.5,220,432.6z"/>
			<path style="fill:none;stroke:#000000;stroke-miterlimit:10;" d="M231.1,436.7c0,0.1,0.1,0.2,0.1,0.3
				C231.2,437.3,231.2,437.3,231.1,436.7z"/>
			<path style="fill:none;stroke:#000000;stroke-miterlimit:10;" d="M256.4,428c-0.1,0-0.3,0-0.4,0c-11,0-20.5,3.8-24.7,9.2
				c0-0.1-0.1-0.1-0.1-0.2c0.1-3-1.8-36.9-3.1-62.2c7.8-0.1,17.4-2.2,23.9-5.1C252.6,386,253.9,408.3,256.4,428z"/>
			<path style="fill:none;stroke:#000000;stroke-miterlimit:10;" d="M208.1,224.2c0,0.2,0,0.1-0.1-0.2
				C208,224.1,208,224.2,208.1,224.2z"/>
			<path style="fill:none;stroke:#000000;stroke-miterlimit:10;" d="M207,173.7l19.9-0.2c-1.9,1.5-5.3,2.9-11.8,3.5
				C210.2,177.2,208,175.5,207,173.7z"/>
			<path style="fill:none;stroke:#000000;stroke-miterlimit:10;" d="M236.7,201.4c-3,1.1-5.7,2.4-7.4,3.3c-5.9,3.2-3.7,2.8-12.3,2.9
				c-4.3-2.6-8.1-5.4-11.6-7.4l0,0c-0.4-3.6-0.9-7.3-1.3-10.6c3.9,2.8,8.3,4.4,12.9,4.4c6.7,0,12.9-3.3,17.7-8.8
				C235.1,189.8,235.8,195.5,236.7,201.4z"/>
			<path style="fill:none;stroke:#000000;stroke-miterlimit:10;" d="M163.7,313.7c2.2,8.4-2.1,12.6-5.9,12.6
				c-2.6,0-2.5-8.5-3.3-12.8c1.2,7.9-10.2,11.8-15.1,8.4c-8.8-5.9-1.9-13.8,2.8-24.3c1.8-4.1,3.8-7.4,5.9-9.8l16.5,10.9
				c-0.2,2.4-0.6,5-1.2,7.7c-0.1,0.5-0.3,1-0.5,1.5C163.3,309.7,163.1,311.7,163.7,313.7z"/>
		</g>
	</g>
</g>
<path style="fill:none;stroke:#000000;stroke-miterlimit:10;" d="M317.5,338.6c2.2,34,1.7,75.7,2.5,113.8l-12.2,1.2
	c-0.1-40.4,2.1-81.8-0.9-120.8c-1.8-20.9-2.3-41-2.2-60.7c3.7,2,7,3.2,9.9,3.8C314.9,295.8,315.9,316.7,317.5,338.6z"/>
<path style="fill:none;stroke:#000000;stroke-miterlimit:10;" d="M376.1,221.9l-9-8.9c3.5-9.6-1.2-44.7-9.3-54.8
	c-8.1-10.1-18.8-7.6-21.7-6.3c-9,4.2-17.5,29.3-17.1,39.5l-4,33.4c-0.3,5.9-0.5,11.8-0.6,17.9c0,1,0,2.1,0,3.1
	c-0.9-0.7-1.9-1.3-2.8-1.9c-2.1-1.3-4.3-2.5-6.6-3.2c0.2-9.6,0.5-19.1,0.8-28.6c1.7-13.6-1.9-55.9,25.9-71.3
	c42-4.4,41.9,37.8,43.8,45.5C375.4,190.3,381.9,222.7,376.1,221.9z"/>
<g>
	<g>
		<g>
			<path style="fill:none;stroke:#000000;stroke-miterlimit:10;" d="M300.4,239.5c0-0.1,0-0.2-0.1-0.3c-20.5-10.6-30.9-21-44.4-33.7
				c-0.2-1-0.5-2-0.8-3c-1.8-5.7-11.1-3.9-18.4-1.2c-3,1.1-5.7,2.4-7.4,3.3c-5.9,3.2-3.7,2.8-12.3,2.9c-4.3-2.6-8.1-5.4-11.6-7.4
				l0,0c-8.5-4.9-14.7-5.6-21.6,9.4c-15.3,17.3-27.7,44-38.2,76.8l2.3,1.5l16.5,10.9l4.7,3.1l14.5-42.3c0.6,7.8,0.8,15.4-0.2,21.7
				c0.2,2.3,0.2,4.7,0.1,7.2h71.2c-0.2-2.3-0.4-4.5-0.6-6.7c0.5-11.2,2.1-23.1,3.2-35.1c6.9,7.2,16.3,15.6,30.2,17.3
				c0.3-0.3,0.6-0.5,0.9-0.8l0,0C294.7,257.5,303.2,253.6,300.4,239.5z M207.9,224c0,0.1,0.1,0.1,0.1,0.2
				C208.1,224.4,208,224.3,207.9,224z"/>
			<path style="fill:none;stroke:#000000;stroke-miterlimit:10;" d="M208.1,224.2c0,0.2,0,0.1-0.1-0.2
				C208,224.1,208,224.2,208.1,224.2z"/>
			<path style="fill:none;stroke:#000000;stroke-miterlimit:10;" d="M258.1,365.8c-1.3,1.4-3.4,2.8-6.2,4c-6.5,2.9-16,5-23.9,5.1
				c-3.9,0.1-7.4-0.4-9.8-1.5c-1-0.4-2.1-0.7-3.4-0.8c-6.3-0.6-15.5,2.1-23.2,1.5c-5.2-0.4-9.8-2.4-12.3-7.9
				c-5.7-12.3,1.6-43.7,3.7-68.6h72.6C258.5,325.8,262.7,360.5,258.1,365.8z"/>
			<path style="fill:none;stroke:#000000;stroke-miterlimit:10;" d="M255.7,297.6H183c0.3-3.1,0.4-6.1,0.5-9h71.2
				C255,291.5,255.3,294.5,255.7,297.6z"/>
		</g>
		<rect x="181.8" y="288.6" style="fill:none;stroke:#000000;stroke-miterlimit:10;" width="77" height="9"/>
		<g>
			<path style="fill:none;stroke:#000000;stroke-miterlimit:10;" d="M217.3,433c-4.9-3.6-12.6-6-21.3-6c-0.6,0-1.1,0-1.7,0
				c-14.1,0.5-25.3,7.2-25.3,15.5c0,8.6,12.1,15.5,27,15.5s27-6.9,27-15.5C223,438.9,220.9,435.6,217.3,433z M194.4,433.2
				c0,0.1,0,0.2,0.1,0.3C194.5,433.8,194.5,433.8,194.4,433.2z"/>
			<path style="fill:none;stroke:#000000;stroke-miterlimit:10;" d="M194.5,433.5c0,0.4,0,0.3-0.1-0.3
				C194.5,433.3,194.5,433.4,194.5,433.5z"/>
			<path style="fill:none;stroke:#000000;stroke-miterlimit:10;" d="M283,443.5c0,8.6-12.1,15.5-27,15.5s-27-6.9-27-15.5
				c0-2.2,0.8-4.4,2.3-6.3c4.2-5.4,13.7-9.2,24.7-9.2c0.1,0,0.3,0,0.4,0C271.1,428.1,283,435,283,443.5z"/>
		</g>
		<path style="fill:none;stroke:#000000;stroke-miterlimit:10;" d="M241.4,163.1c-3.3,0.1-6.6-1.3-8.3-3.8c-0.8-1.3,0-2.8-0.1-4.1
			c-0.4-1.3-0.3-2.8,0.5-4c0.5-0.6,1.5-1.4,1.2-2.3c0.1-0.9-0.9-1.5-1.1-2.4c-0.9-1.3-1.2-3.1-0.3-4.5c0.5-0.5,0.8-1.1,1-1.7
			c-0.9-0.2-2.1-0.7-2.9-0.1c-1.1,1.7-3.7,2.6-6.1,2.2c-1.9-0.2-3-1.5-4.1-2.6c-0.3-0.6-1.5-0.5-1.9,0c-2.4,1-5.7,0.3-7.1-1.5
			c-0.3-0.5-0.9-1.1-1.7-0.9c-1.5,1-3.9,1.3-5.8,0.7c-0.8-0.2-1.4-1-2.3-0.8c-0.6,0.4-0.9,1-1.5,1.4c-0.5,0.5-1.4,0.6-2,1
			c-0.6,0.3-0.4,0.9,0,1.3c0.9,1.1,1.3,2.5,0.6,3.7c-0.6,0.8-0.6,1.8-1.1,2.7c-0.5,0.4-0.5,1,0,1.5c1.2,1.5,1.7,3.3,2,5.1
			c0.4,0.8,0,2-1.3,2.3c-0.8,0-0.6,1,0.1,1c0.1,0.6,0.3,1.1,0.6,1.7c1.4,2.1-0.4,5-3.4,5.6c-2,0.1-3.9,0.6-5.8,1.1
			c-0.1,0-0.3,0-0.4,0c2.1,10.4,7.3,19,14,23.9c3.9,2.8,8.3,4.4,12.9,4.4c6.7,0,12.9-3.3,17.7-8.8c4.9-5.6,8.5-13.5,9.8-22.6
			C243.5,163,242.4,163.1,241.4,163.1z M224,144.3c3.4,0,6.2,2.8,6.2,6.2s-2.8,6.2-6.2,6.2s-6.2-2.8-6.2-6.2S220.6,144.3,224,144.3z
			 M211,144.3c3.4,0,6.2,2.8,6.2,6.2s-2.8,6.2-6.2,6.2s-6.2-2.8-6.2-6.2S207.6,144.3,211,144.3z M215.1,177c-4.9,0.2-7-1.6-8.1-3.3
			l19.9-0.2C225,175,221.5,176.4,215.1,177z"/>
		<circle style="fill:none;stroke:#000000;stroke-miterlimit:10;" cx="211" cy="150.5" r="6.2"/>
		<path style="fill:none;stroke:#000000;stroke-miterlimit:10;" d="M207,173.7l19.9-0.2c-1.9,1.5-5.3,2.9-11.8,3.5
			C210.2,177.2,208,175.5,207,173.7z"/>
		<circle style="fill:none;stroke:#000000;stroke-miterlimit:10;" cx="224" cy="150.5" r="6.2"/>
	</g>
	<g>
		<circle style="fill:none;stroke:#000000;stroke-miterlimit:10;" cx="211" cy="150.5" r="6.2"/>
		<circle style="fill:none;stroke:#000000;stroke-miterlimit:10;" cx="224" cy="150.5" r="6.2"/>
	</g>
	<path style="fill:none;stroke:#000000;stroke-miterlimit:10;" d="M218.2,155.8c0.3,0,1.2,0.4,4.1,4.4c2.2,2.9,3.3,5.8,0,6.6
		c-0.3,0.1-3.8,1.2-4.1,1.2c-2.1,0.2-3.4,0.7-4.1,0.7l-0.3-0.2l-1-0.2l-0.3-0.2"/>
	<circle style="fill:none;stroke:#000000;stroke-miterlimit:10;" cx="212" cy="150" r="1.5"/>
	<circle style="fill:none;stroke:#000000;stroke-miterlimit:10;" cx="224" cy="150" r="1.5"/>
</g>
<path style="fill:none;stroke:#000000;stroke-miterlimit:10;" d="M226.8,173.5c2.9-2.3,2.1-4.7,3-4.5"/>
<path style="fill:none;stroke:#000000;stroke-miterlimit:10;" d="M204.9,170.7c0.9-0.7,0.8,1.1,2,3"/>
<g>
	<g>
		<path style="fill:none;stroke:#000000;stroke-miterlimit:10;" d="M166,53"/>
		<path style="fill:none;stroke:#000000;stroke-miterlimit:10;" d="M184,133.1l-1,3.8c-0.3-0.8-0.3-1.6,0.1-2.4
			C183.2,134,183.5,133.5,184,133.1z"/>
		<path style="fill:none;stroke:#000000;stroke-miterlimit:10;" d="M247.5,147.5c-0.6,0.6,0.1,1.4,0.6,1.8c0.1,0.8,0.3,1.6,0.9,2.3
			c0.9,1.3,0.2,2.9,0.2,4.3c0.5,1.3,0.3,2.8-0.5,4c-1,1.3-2.6,2.2-4.3,2.7c-1,0.3-2.1,0.4-3.1,0.4c-3.3,0.1-6.6-1.3-8.3-3.8
			c-0.8-1.3,0-2.8-0.1-4.1c-0.4-1.3-0.3-2.8,0.5-4c0.5-0.6,1.5-1.4,1.2-2.3c0.1-0.9-0.9-1.5-1.1-2.4c-0.9-1.3-1.2-3.1-0.3-4.5
			c0.5-0.5,0.8-1.1,1-1.7c-0.9-0.2-2.1-0.7-2.9-0.1c-1.1,1.7-3.7,2.6-6.1,2.2c-1.9-0.2-3-1.5-4.1-2.6c-0.3-0.6-1.5-0.5-1.9,0
			c-2.4,1-5.7,0.3-7.1-1.5c-0.3-0.5-0.9-1.1-1.7-0.9c-1.5,1-3.9,1.3-5.8,0.7c-0.8-0.2-1.4-1-2.3-0.8c-0.6,0.4-0.9,1-1.5,1.4
			c-0.5,0.5-1.4,0.6-2,1c-0.6,0.3-0.4,0.9,0,1.3c0.9,1.1,1.3,2.5,0.6,3.7c-0.6,0.8-0.6,1.8-1.1,2.7c-0.5,0.4-0.5,1,0,1.5
			c1.2,1.5,1.7,3.3,2,5.1c0.4,0.8,0,2-1.3,2.3c-0.8,0-0.6,1,0.1,1c0.1,0.6,0.3,1.1,0.6,1.7c1.4,2.1-0.4,5-3.4,5.6
			c-2,0.1-3.9,0.6-5.8,1.1c-0.1,0-0.3,0-0.4,0c-2.8,0.1-5.4-1.7-5.5-3.8c-0.2-1,0.9-2.1,0.2-3.1c-1.7-1.3-2.1-3.5-0.9-5
			c0.5-0.4,0.8-1.1,0.2-1.6c-1.8-0.8-2.7-2.6-2.3-4.1c0.1-1.2,1.8-2,1.6-3.2c-0.4-0.7-0.7-1.4-0.7-2.2c0-0.7,0.1-1.3,0.5-1.9
			c0.6-0.7,1.5-1.5,1-2.4c-0.5-0.5-0.9-1-1.1-1.6l1-3.8c0.3-0.3,0.7-0.5,1.1-0.7c0.6-0.4,1.5-0.9,1.3-1.6c-0.3-0.9-0.5-1.9-0.1-2.9
			c0.8-2,4-3.1,6.6-2.5c0.9,0.1,1.9,0.6,1.8,1.3c-0.1,0.8,0.7,0.2,1.5-1.1c0.8-1.4,1.5-3.5,3.4-4c1-0.4,2-0.2,3,0
			c0.5,0.1,1,0.1,1.5,0.1c0.3-0.7,0.8-1.5,1.5-2c2.1-1.8,6.4-1.5,8.1,0.5c0.1,0.6,1.4,0.5,1.4-0.1c1.9-1.6,5.5-1.7,7.6-0.3
			c0.3-0.9,1.2-1.7,2.2-2.3c0.6-0.3,1.3-0.5,2.1-0.6c0.3,0,0.6,0,0.9,0c1.8,0,3.5,0.8,4.5,1.9c0.3,0.3,0.5,0.6,0.6,0.9
			c0.4,0.5,1.3,0.2,1.8,0c2.4-0.5,5.1,0.5,6.3,2.2c1.9,0,3.8,0.2,5.5,0.9c2.2,0.8,3.9,2.9,3.7,5c0,1-0.7,1.8-1.4,2.5
			c-0.6,0.6-0.7,1.5,0.1,2c0.9,0.6,1.3,1.6,1.3,2.6c0,1.4-0.6,2.9-2,3.7c-1.2,0.4,0.4,1.2-0.4,1.8c0.1,0.8,1.3,1.2,1.4,2.1
			C250,144.3,249.4,146.6,247.5,147.5z"/>
	</g>
	<polyline style="fill:none;stroke:#000000;stroke-miterlimit:10;" points="182.6,142.8 181.1,143.6 183,136.9 	"/>
	<path style="fill:none;stroke:#000000;stroke-miterlimit:10;" d="M227.9,117c-0.3,0-0.6,0-0.9,0c-0.7,0.1-1.5,0.3-2.1,0.6
		c-1.1,0.5-1.9,1.3-2.2,2.3c-2.1-1.4-5.7-1.3-7.6,0.3c0,0.6-1.4,0.6-1.4,0.1c-1.7-2-6-2.3-8.1-0.5c-0.7,0.5-1.2,1.3-1.5,2
		c-0.5,0-1,0-1.5-0.1c-1-0.2-2-0.3-3,0c-2,0.5-2.6,2.6-3.4,4c-0.8,1.4-1.6,1.9-1.5,1.1s-1-1.2-1.8-1.3c-2.6-0.6-5.8,0.5-6.6,2.5
		c-0.4,0.9-0.2,1.9,0.1,2.9c0.1,0.7-0.7,1.2-1.3,1.6c-0.4,0.2-0.8,0.5-1.1,0.7l3.1-11.3c4.4-2.8,8.8-5.7,13.1-8.5l13.2-2.4l8.4,3.6
		L227.9,117z"/>
	<line style="fill:none;stroke:#000000;stroke-miterlimit:10;" x1="232" y1="118.6" x2="227.9" y2="116.9"/>
	<line style="fill:none;stroke:#000000;stroke-miterlimit:10;" x1="232.4" y1="118.8" x2="232.4" y2="118.8"/>
</g>
<g transform="translate(-210.37 -192.27)">
	<path style="fill:none;stroke:#000000;stroke-miterlimit:10;" d="M597.5,627.4c0,1.3,0.3,2.6,0.7,3.7
		c-5.5,15.1-10.7,25.7-12.6,25.1c-1.9-0.6,0-11.8,4.3-26.8c2.1-0.4,4-1.4,5.6-2.8C596.2,626.9,596.9,627.2,597.5,627.4z"/>
	<path style="fill:none;stroke:#000000;stroke-miterlimit:10;" d="M603.4,593.1c-0.3,0.2-0.6,0.4-0.9,0.5c0.2-0.4,0.3-0.8,0.5-1.1
		L603.4,593.1z"/>
	<path style="fill:none;stroke:#000000;stroke-miterlimit:10;" d="M601,635.4c1.8,1.9,4.3,3.1,7,3.5c-4.3,10.8-8.1,17.8-9.6,17.3
		C596.7,655.7,597.9,647.3,601,635.4z"/>
	<path style="fill:none;stroke:#000000;stroke-miterlimit:10;" d="M619,591.1c-0.5,1.1-1.1,2.1-1.8,3l0,0l0,0
		C617.9,593.2,618.4,592.2,619,591.1z"/>
	<path style="fill:none;stroke:#000000;stroke-miterlimit:10;" d="M654.4,656.3c-1.7,0.3-4.6-8.4-7.3-21.3c2.1,1.9,4.9,3,7.9,3
		c0.1,0,0.2,0,0.3,0C656.2,648.8,655.9,656,654.4,656.3z"/>
	<path style="fill:none;stroke:#000000;stroke-miterlimit:10;" d="M666.8,656.3c-1.6,0.3-4.3-7.5-6.9-19.3c3.5-1.5,6.1-4.7,6.9-8.5
		C668.6,644.3,668.7,656,666.8,656.3z"/>
	<path style="fill:none;stroke:#000000;stroke-miterlimit:10;" d="M691.9,593.3c0,5.7-4,10.5-9.3,11.7c1.8,2.1,3,4.9,3,7.9
		c0,6.6-5.4,12-12,12c-2.7,0-5.2-0.9-7.1-2.3c0.3,1.1,0.5,2.3,0.5,3.6c0,0.8-0.1,1.6-0.2,2.4c-0.8,3.8-3.4,7-6.9,8.5
		c-1.4,0.6-2.9,1-4.5,1c-0.1,0-0.2,0-0.3,0c-3,0-5.8-1.1-7.9-3c-1.5-1.3-2.6-2.9-3.3-4.8c-1,5.6-5.9,9.7-11.8,9.7
		c-5.4,0-9.9-3.5-11.4-8.4c-1.8,4.3-6.1,7.4-11.1,7.4c-0.5,0-1,0-1.6-0.1c-2.7-0.3-5.2-1.6-7-3.5c-1.2-1.2-2.1-2.7-2.7-4.3
		c-0.4-1.2-0.7-2.4-0.7-3.7c-0.7-0.3-1.3-0.5-2-0.8c-1.5,1.4-3.5,2.4-5.6,2.8c-0.8,0.2-1.6,0.3-2.4,0.3c-6.6,0-12-5.4-12-12
		c0-1.3,0.2-2.5,0.6-3.6c-2,1.5-4.5,2.4-7.2,2.4c-6.6,0-12-5.4-12-12c0-3,1.1-5.8,3-7.9c-3.3-0.7-6.1-2.9-7.8-5.7
		c0.1,0,0.3-0.1,0.4-0.1c6.9-1.6,7.1-9,8-17.7c0.2,0,0.4-0.1,0.7-0.1c-0.2-0.2-0.4-0.3-0.6-0.5c0.3-3.1,0.7-6.2,1.6-9.4
		c0.6-2.4,1.5-4.6,2.4-6.6c0.4,0.2,0.8,0.4,1.2,0.6c-0.9,4.8-1.5,9.7-1.5,14.4c0,22.7,11.9,33.1,27.1,34c0.1,0.1,0.2,0.2,0.3,0.3
		l0.3-0.3c0.5,0,1.1,0,1.6,0c1.4,0,2.7-0.1,4.1-0.2c3.3-0.4,6.5-1.2,9.3-2.6c2.1-1,4-2.2,5.7-3.7c1.6-1.4,3.1-3.1,4.4-5l0,0
		c0.6-0.9,1.2-1.9,1.8-3c1.4-2.7,2.4-5.8,3.1-9.3c0.6-3.1,0.9-6.5,0.9-10.3c0-4-0.4-8.1-1.1-12.2c0.7-0.6,1.3-1.3,1.9-2
		c0.6,1.6,1.1,3.4,1.5,5.3c2.7,12.4-1,25.4,8.3,28.1c2.9,0.8,5.4,0.7,7.4-0.3c2.2-1.1,3.8-3.1,4.6-5.8c1-3,1.1-6.9,0.1-11.4
		c-2.3-10.7-9.8-21.3-17.9-25.7c0-0.5,0.1-1.1,0.1-1.6c0-9.8-7.7-17.7-17.4-18.1c2.1-1.8,4.8-2.9,7.8-2.9c4,0,7.5,2,9.7,5
		c2.1-3.6,5.9-6,10.4-6c5.8,0,10.6,4.1,11.7,9.6c1.6-0.8,3.4-1.3,5.4-1.3c6.5,0,11.7,5.1,12,11.6c0.9-0.2,1.8-0.3,2.7-0.3
		c6.6,0,12,5.4,12,12c0,1.5-0.3,2.9-0.8,4.2c6.2,0.5,11,5.6,11,11.9c0,4.8-2.9,9-7,10.9C689.3,584.6,691.9,588.6,691.9,593.3z"/>
	<ellipse style="fill:none;stroke:#000000;stroke-miterlimit:10;" cx="580.5" cy="548.4" rx="4.1" ry="4.1"/>
	<path style="fill:none;stroke:#000000;stroke-miterlimit:10;" d="M591.3,596c-0.4,3.6-0.1,6.6,1.8,8.7l-1,0.9l-0.3,0.3
		c-0.1-0.1-0.2-0.2-0.3-0.3c-2.2-2.6-2.4-6.2-2-9.8c-3.8-0.6-7.3-2.4-10.3-5.3c0.3-0.4,0.7-0.8,1-1.2c3.5,3.6,7.9,5.2,12.7,5.2
		c3.5,0,6.8-0.9,9.7-2.7l0.4,0.7l0.4,0.6c-0.3,0.2-0.6,0.4-0.9,0.5c-2.9,1.7-6.2,2.5-9.6,2.5C592.4,596.1,591.8,596,591.3,596z"/>
	<path style="fill:none;stroke:#000000;stroke-miterlimit:10;" d="M619,591.1c-0.5,1.1-1.1,2.1-1.8,3l0,0l0,0
		C617.9,593.2,618.4,592.2,619,591.1z"/>
	<circle style="fill:none;stroke:#000000;stroke-miterlimit:10;" cx="601.1" cy="548" r="4.1"/>
	<g transform="translate(100.78 -96.462)">
		<path style="fill:none;stroke:#000000;stroke-miterlimit:10;" d="M544.9,681.1c-0.9,2.8-2.5,4.8-4.6,5.8c-2,1-4.5,1.1-7.4,0.3
			c-9.3-2.7-5.6-15.7-8.3-28.1c-0.4-1.9-0.9-3.7-1.5-5.3c2.2-2.7,3.7-6.1,4-9.8c8,4.4,15.6,15,17.9,25.7
			C545.9,674.2,545.8,678.1,544.9,681.1z"/>
		<path style="fill:none;stroke:#000000;stroke-miterlimit:10;" d="M463.8,653c-0.9,2-1.7,4.2-2.4,6.6c-0.8,3.1-1.3,6.3-1.6,9.4
			c0,0.2,0,0.4-0.1,0.6c-0.9,8.6-1.1,16.1-8,17.7c-0.1,0-0.3,0.1-0.4,0.1c-9.2,1.9-14-6.2-10.8-18.2c2.6-9.6,9.4-18.8,16.8-23.5
			c0.6,1.7,1.6,3.3,3,4.7C461.4,651.4,462.5,652.3,463.8,653z"/>
		<path style="fill:none;stroke:#000000;stroke-miterlimit:10;" d="M522.3,668c0,3.8-0.3,7.2-0.9,10.3c-0.7,3.5-1.8,6.6-3.1,9.3
			c-0.5,1-1.1,2-1.7,3l0,0c-1.3,1.9-2.8,3.6-4.4,5c-1.7,1.5-3.7,2.8-5.7,3.7c-2.9,1.4-6,2.2-9.3,2.6c-1.3,0.1-2.7,0.2-4.1,0.2
			c-0.6,0-1.1,0-1.6,0l1-0.9c-1.9-2.1-2.2-5.1-1.8-8.7c0.5,0,1.1,0.1,1.7,0.1c3.4,0,6.7-0.8,9.6-2.5c0.3-0.2,0.6-0.3,0.9-0.5
			l-0.4-0.6l-0.4-0.7c-2.9,1.9-6.2,2.7-9.7,2.7c-4.8,0-9.2-1.6-12.7-5.2c-0.3,0.4-0.7,0.8-1,1.2c2.9,2.9,6.5,4.7,10.3,5.3
			c-0.4,3.6-0.2,7.2,2,9.8c-15.2-0.9-27.1-11.3-27.1-34c0-4.7,0.5-9.6,1.5-14.4c2.5,1.2,5.4,1.9,8.6,1.9c9.3,0,16.9-6.2,16.9-13.9
			c0-4-2-7.6-5.3-10.2c-2.6-2-6-3.4-9.8-3.7c4.9-7.1,11-11.8,17.6-11.8c5.5,0,10.6,3.2,14.9,8.4c-1.7,0.1-3.3,0.5-4.9,1
			c-7,2.5-12,9.2-12,17.1c0,10,8.1,18.1,18.1,18.1c4.7,0,8.9-1.8,12.1-4.7C521.9,659.9,522.3,664.1,522.3,668z"/>
		
			<ellipse transform="matrix(0.1602 -0.9871 0.9871 0.1602 -233.6305 1014.9708)" style="fill:none;stroke:#000000;stroke-miterlimit:10;" cx="479.7" cy="644.8" rx="4.1" ry="4.1"/>
		<path style="fill:none;stroke:#000000;stroke-miterlimit:10;" d="M490.5,692.5c-0.4,3.6-0.1,6.6,1.8,8.7l-1,0.9
			c-0.2,0-0.4,0-0.6,0c-2.2-2.6-2.4-6.2-2-9.8c-3.8-0.6-7.3-2.4-10.3-5.3c0.3-0.4,0.7-0.8,1-1.2c3.5,3.6,7.9,5.2,12.7,5.2
			c3.5,0,6.8-0.9,9.7-2.7l0.4,0.7l0.4,0.6c-0.3,0.2-0.6,0.4-0.9,0.5c-2.9,1.7-6.2,2.5-9.6,2.5C491.6,692.5,491,692.5,490.5,692.5z"
			/>
		<circle style="fill:none;stroke:#000000;stroke-miterlimit:10;" cx="500.3" cy="644.4" r="4.1"/>
		<path style="fill:none;stroke:#000000;stroke-miterlimit:10;" d="M485.2,631.5c-2.6-2-6-3.4-9.8-3.7c-0.6,0-1.2-0.1-1.7-0.1
			c-9.3,0-16.9,6.2-16.9,13.9c0,1.4,0.2,2.7,0.7,4c0.6,1.7,1.6,3.3,3,4.7c1,1,2.1,1.9,3.4,2.7c0.4,0.2,0.8,0.4,1.2,0.6
			c2.5,1.2,5.4,1.9,8.6,1.9c9.3,0,16.9-6.2,16.9-13.9C490.5,637.7,488.4,634.1,485.2,631.5z M479.7,648.9c-2.2,0-4.1-1.8-4.1-4.1
			c0-2.2,1.8-4.1,4.1-4.1c2.2,0,4.1,1.8,4.1,4.1C483.7,647.1,481.9,648.9,479.7,648.9z"/>
		
			<ellipse transform="matrix(0.1602 -0.9871 0.9871 0.1602 -233.6305 1014.9708)" style="fill:none;stroke:#000000;stroke-miterlimit:10;" cx="479.7" cy="644.8" rx="4.1" ry="4.1"/>
		<path style="fill:none;stroke:#000000;stroke-miterlimit:10;" d="M509.8,624.3c-0.4,0.3-0.7,0.7-1.1,1c-0.3-0.3-0.5-0.7-0.8-1
			c-1.7,0.1-3.3,0.5-4.9,1c-7,2.5-12,9.2-12,17.1c0,10,8.1,18.1,18.1,18.1c4.7,0,8.9-1.8,12.1-4.7c0.7-0.6,1.3-1.3,1.9-2
			c2.2-2.7,3.7-6.1,4-9.8c0-0.5,0.1-1.1,0.1-1.6C527.2,632.7,519.4,624.7,509.8,624.3z M500.3,648.5c-2.2,0-4.1-1.8-4.1-4.1
			c0-2.2,1.8-4.1,4.1-4.1c2.2,0,4.1,1.8,4.1,4.1S502.6,648.5,500.3,648.5z"/>
		<circle style="fill:none;stroke:#000000;stroke-miterlimit:10;" cx="500.3" cy="644.4" r="4.1"/>
		<path style="fill:none;stroke:#000000;stroke-miterlimit:10;" d="M509.8,624.3c-0.4,0.3-0.7,0.7-1.1,1c-0.3-0.3-0.5-0.7-0.8-1
			c0.4,0,0.8,0,1.2,0C509.3,624.3,509.5,624.3,509.8,624.3z"/>
		<path style="fill:none;stroke:#000000;stroke-miterlimit:10;" d="M490.5,692.5c-0.4,3.6-0.1,6.6,1.8,8.7l-1,0.9l-0.3,0.3
			c-0.1-0.1-0.2-0.2-0.3-0.3c-2.2-2.6-2.4-6.2-2-9.8c-3.8-0.6-7.3-2.4-10.3-5.3c0.3-0.4,0.7-0.8,1-1.2c3.5,3.6,7.9,5.2,12.7,5.2
			c3.5,0,6.8-0.9,9.7-2.7l0.4,0.7l0.4,0.6c-0.3,0.2-0.6,0.4-0.9,0.5c-2.9,1.7-6.2,2.5-9.6,2.5C491.6,692.5,491,692.5,490.5,692.5z"
			/>
		
			<ellipse transform="matrix(0.1602 -0.9871 0.9871 0.1602 -233.6305 1014.9708)" style="fill:none;stroke:#000000;stroke-miterlimit:10;" cx="479.7" cy="644.8" rx="4.1" ry="4.1"/>
		<circle style="fill:none;stroke:#000000;stroke-miterlimit:10;" cx="500.3" cy="644.4" r="4.1"/>
	</g>
	<path style="fill:none;stroke:#000000;stroke-miterlimit:10;" d="M619,591.1c-0.5,1.1-1.1,2.1-1.8,3l0,0l0,0
		C617.9,593.2,618.4,592.2,619,591.1z"/>
</g>
<g transform="translate(-210.37 -192.27)">
	<path style="fill:none;stroke:#000000;stroke-miterlimit:10;" d="M279.5,621.4c0,1.3,0.3,2.6,0.7,3.7
		c-5.5,15.1-10.7,25.7-12.6,25.1c-1.9-0.6,0-11.8,4.3-26.8c2.1-0.4,4-1.4,5.6-2.8C278.2,620.9,278.9,621.2,279.5,621.4z"/>
	<path style="fill:none;stroke:#000000;stroke-miterlimit:10;" d="M285.4,587.1c-0.3,0.2-0.6,0.4-0.9,0.5c0.2-0.4,0.3-0.8,0.5-1.1
		L285.4,587.1z"/>
	<path style="fill:none;stroke:#000000;stroke-miterlimit:10;" d="M283,629.4c1.8,1.9,4.3,3.1,7,3.5c-4.3,10.8-8.1,17.8-9.6,17.3
		C278.7,649.7,279.9,641.3,283,629.4z"/>
	<path style="fill:none;stroke:#000000;stroke-miterlimit:10;" d="M301,585.1c-0.5,1.1-1.1,2.1-1.8,3l0,0l0,0
		C299.9,587.2,300.4,586.2,301,585.1z"/>
	<path style="fill:none;stroke:#000000;stroke-miterlimit:10;" d="M336.4,650.3c-1.7,0.3-4.6-8.4-7.3-21.3c2.1,1.9,4.9,3,7.9,3
		c0.1,0,0.2,0,0.3,0C338.2,642.8,337.9,650,336.4,650.3z"/>
	<path style="fill:none;stroke:#000000;stroke-miterlimit:10;" d="M348.8,650.3c-1.6,0.3-4.3-7.5-6.9-19.3c3.5-1.5,6.1-4.7,6.9-8.5
		C350.6,638.3,350.7,650,348.8,650.3z"/>
	<path style="fill:none;stroke:#000000;stroke-miterlimit:10;" d="M373.9,587.3c0,5.7-4,10.5-9.3,11.7c1.8,2.1,3,4.9,3,7.9
		c0,6.6-5.4,12-12,12c-2.7,0-5.2-0.9-7.1-2.3c0.3,1.1,0.5,2.3,0.5,3.6c0,0.8-0.1,1.6-0.2,2.4c-0.8,3.8-3.4,7-6.9,8.5
		c-1.4,0.6-2.9,1-4.5,1c-0.1,0-0.2,0-0.3,0c-3,0-5.8-1.1-7.9-3c-1.5-1.3-2.6-2.9-3.3-4.8c-1,5.6-5.9,9.7-11.8,9.7
		c-5.4,0-9.9-3.5-11.4-8.4c-1.8,4.3-6.1,7.4-11.1,7.4c-0.5,0-1,0-1.6-0.1c-2.7-0.3-5.2-1.6-7-3.5c-1.2-1.2-2.1-2.7-2.7-4.3
		c-0.4-1.2-0.7-2.4-0.7-3.7c-0.7-0.3-1.3-0.5-2-0.8c-1.5,1.4-3.5,2.4-5.6,2.8c-0.8,0.2-1.6,0.3-2.4,0.3c-6.6,0-12-5.4-12-12
		c0-1.3,0.2-2.5,0.6-3.6c-2,1.5-4.5,2.4-7.2,2.4c-6.6,0-12-5.4-12-12c0-3,1.1-5.8,3-7.9c-3.3-0.7-6.1-2.9-7.8-5.7
		c0.1,0,0.3-0.1,0.4-0.1c6.9-1.6,7.1-9,8-17.7c0.2,0,0.4-0.1,0.7-0.1c-0.2-0.2-0.4-0.3-0.6-0.5c0.3-3.1,0.7-6.2,1.6-9.4
		c0.6-2.4,1.5-4.6,2.4-6.6c0.4,0.2,0.8,0.4,1.2,0.6c-0.9,4.8-1.5,9.7-1.5,14.4c0,22.7,11.9,33.1,27.1,34c0.1,0.1,0.2,0.2,0.3,0.3
		l0.3-0.3c0.5,0,1.1,0,1.6,0c1.4,0,2.7-0.1,4.1-0.2c3.3-0.4,6.5-1.2,9.3-2.6c2.1-1,4-2.2,5.7-3.7c1.6-1.4,3.1-3.1,4.4-5l0,0
		c0.6-0.9,1.2-1.9,1.8-3c1.4-2.7,2.4-5.8,3.1-9.3c0.6-3.1,0.9-6.5,0.9-10.3c0-4-0.4-8.1-1.1-12.2c0.7-0.6,1.3-1.3,1.9-2
		c0.6,1.6,1.1,3.4,1.5,5.3c2.7,12.4-1,25.4,8.3,28.1c2.9,0.8,5.4,0.7,7.4-0.3c2.2-1.1,3.8-3.1,4.6-5.8c1-3,1.1-6.9,0.1-11.4
		c-2.3-10.7-9.8-21.3-17.9-25.7c0-0.5,0.1-1.1,0.1-1.6c0-9.8-7.7-17.7-17.4-18.1c2.1-1.8,4.8-2.9,7.8-2.9c4,0,7.5,2,9.7,5
		c2.1-3.6,5.9-6,10.4-6c5.8,0,10.6,4.1,11.7,9.6c1.6-0.8,3.4-1.3,5.4-1.3c6.5,0,11.7,5.1,12,11.6c0.9-0.2,1.8-0.3,2.7-0.3
		c6.6,0,12,5.4,12,12c0,1.5-0.3,2.9-0.8,4.2c6.2,0.5,11,5.6,11,11.9c0,4.8-2.9,9-7,10.9C371.3,578.6,373.9,582.6,373.9,587.3z"/>
	
		<ellipse transform="matrix(0.1602 -0.9871 0.9871 0.1602 -314.966 714.6265)" style="fill:none;stroke:#000000;stroke-miterlimit:10;" cx="262.5" cy="542.4" rx="4.1" ry="4.1"/>
	<path style="fill:none;stroke:#000000;stroke-miterlimit:10;" d="M273.3,590c-0.4,3.6-0.1,6.6,1.8,8.7l-1,0.9l-0.3,0.3
		c-0.1-0.1-0.2-0.2-0.3-0.3c-2.2-2.6-2.4-6.2-2-9.8c-3.8-0.6-7.3-2.4-10.3-5.3c0.3-0.4,0.7-0.8,1-1.2c3.5,3.6,7.9,5.2,12.7,5.2
		c3.5,0,6.8-0.9,9.7-2.7l0.4,0.7l0.4,0.6c-0.3,0.2-0.6,0.4-0.9,0.5c-2.9,1.7-6.2,2.5-9.6,2.5C274.4,590.1,273.8,590,273.3,590z"/>
	<path style="fill:none;stroke:#000000;stroke-miterlimit:10;" d="M301,585.1c-0.5,1.1-1.1,2.1-1.8,3l0,0l0,0
		C299.9,587.2,300.4,586.2,301,585.1z"/>
	<circle style="fill:none;stroke:#000000;stroke-miterlimit:10;" cx="283.1" cy="542" r="4.1"/>
	<g transform="translate(100.78 -96.462)">
		<path style="fill:none;stroke:#000000;stroke-miterlimit:10;" d="M226.9,675.1c-0.9,2.8-2.5,4.8-4.6,5.8c-2,1-4.5,1.1-7.4,0.3
			c-9.3-2.7-5.6-15.7-8.3-28.1c-0.4-1.9-0.9-3.7-1.5-5.3c2.2-2.7,3.7-6.1,4-9.8c8,4.4,15.6,15,17.9,25.7
			C227.9,668.2,227.8,672.1,226.9,675.1z"/>
		<path style="fill:none;stroke:#000000;stroke-miterlimit:10;" d="M145.8,647c-0.9,2-1.7,4.2-2.4,6.6c-0.8,3.1-1.3,6.3-1.6,9.4
			c0,0.2,0,0.4-0.1,0.6c-0.9,8.6-1.1,16.1-8,17.7c-0.1,0-0.3,0.1-0.4,0.1c-9.2,1.9-14-6.2-10.8-18.2c2.6-9.6,9.4-18.8,16.8-23.5
			c0.6,1.7,1.6,3.3,3,4.7C143.4,645.4,144.5,646.3,145.8,647z"/>
		<path style="fill:none;stroke:#000000;stroke-miterlimit:10;" d="M204.3,662c0,3.8-0.3,7.2-0.9,10.3c-0.7,3.5-1.8,6.6-3.1,9.3
			c-0.5,1-1.1,2-1.7,3l0,0c-1.3,1.9-2.8,3.6-4.4,5c-1.7,1.5-3.7,2.8-5.7,3.7c-2.9,1.4-6,2.2-9.3,2.6c-1.3,0.1-2.7,0.2-4.1,0.2
			c-0.6,0-1.1,0-1.6,0l1-0.9c-1.9-2.1-2.2-5.1-1.8-8.7c0.5,0,1.1,0.1,1.7,0.1c3.4,0,6.7-0.8,9.6-2.5c0.3-0.2,0.6-0.3,0.9-0.5
			l-0.4-0.6l-0.4-0.7c-2.9,1.9-6.2,2.7-9.7,2.7c-4.8,0-9.2-1.6-12.7-5.2c-0.3,0.4-0.7,0.8-1,1.2c2.9,2.9,6.5,4.7,10.3,5.3
			c-0.4,3.6-0.2,7.2,2,9.8c-15.2-0.9-27.1-11.3-27.1-34c0-4.7,0.5-9.6,1.5-14.4c2.5,1.2,5.4,1.9,8.6,1.9c9.3,0,16.9-6.2,16.9-13.9
			c0-4-2-7.6-5.3-10.2c-2.6-2-6-3.4-9.8-3.7c4.9-7.1,11-11.8,17.6-11.8c5.5,0,10.6,3.2,14.9,8.4c-1.7,0.1-3.3,0.5-4.9,1
			c-7,2.5-12,9.2-12,17.1c0,10,8.1,18.1,18.1,18.1c4.7,0,8.9-1.8,12.1-4.7C203.9,653.9,204.3,658.1,204.3,662z"/>
		
			<ellipse transform="matrix(0.1602 -0.9871 0.9871 0.1602 -494.7738 696.0364)" style="fill:none;stroke:#000000;stroke-miterlimit:10;" cx="161.7" cy="638.8" rx="4.1" ry="4.1"/>
		<path style="fill:none;stroke:#000000;stroke-miterlimit:10;" d="M172.5,686.5c-0.4,3.6-0.1,6.6,1.8,8.7l-1,0.9
			c-0.2,0-0.4,0-0.6,0c-2.2-2.6-2.4-6.2-2-9.8c-3.8-0.6-7.3-2.4-10.3-5.3c0.3-0.4,0.7-0.8,1-1.2c3.5,3.6,7.9,5.2,12.7,5.2
			c3.5,0,6.8-0.9,9.7-2.7l0.4,0.7l0.4,0.6c-0.3,0.2-0.6,0.4-0.9,0.5c-2.9,1.7-6.2,2.5-9.6,2.5C173.6,686.5,173,686.5,172.5,686.5z"
			/>
		<circle style="fill:none;stroke:#000000;stroke-miterlimit:10;" cx="182.3" cy="638.4" r="4.1"/>
		<path style="fill:none;stroke:#000000;stroke-miterlimit:10;" d="M167.2,625.5c-2.6-2-6-3.4-9.8-3.7c-0.6,0-1.2-0.1-1.7-0.1
			c-9.3,0-16.9,6.2-16.9,13.9c0,1.4,0.2,2.7,0.7,4c0.6,1.7,1.6,3.3,3,4.7c1,1,2.1,1.9,3.4,2.7c0.4,0.2,0.8,0.4,1.2,0.6
			c2.5,1.2,5.4,1.9,8.6,1.9c9.3,0,16.9-6.2,16.9-13.9C172.5,631.7,170.4,628.1,167.2,625.5z M161.7,642.9c-2.2,0-4.1-1.8-4.1-4.1
			c0-2.2,1.8-4.1,4.1-4.1c2.2,0,4.1,1.8,4.1,4.1C165.7,641.1,163.9,642.9,161.7,642.9z"/>
		
			<ellipse transform="matrix(0.1602 -0.9871 0.9871 0.1602 -494.7738 696.0364)" style="fill:none;stroke:#000000;stroke-miterlimit:10;" cx="161.7" cy="638.8" rx="4.1" ry="4.1"/>
		<path style="fill:none;stroke:#000000;stroke-miterlimit:10;" d="M191.8,618.3c-0.4,0.3-0.7,0.7-1.1,1c-0.3-0.3-0.5-0.7-0.8-1
			c-1.7,0.1-3.3,0.5-4.9,1c-7,2.5-12,9.2-12,17.1c0,10,8.1,18.1,18.1,18.1c4.7,0,8.9-1.8,12.1-4.7c0.7-0.6,1.3-1.3,1.9-2
			c2.2-2.7,3.7-6.1,4-9.8c0-0.5,0.1-1.1,0.1-1.6C209.2,626.7,201.4,618.7,191.8,618.3z M182.3,642.5c-2.2,0-4.1-1.8-4.1-4.1
			c0-2.2,1.8-4.1,4.1-4.1c2.2,0,4.1,1.8,4.1,4.1C186.4,640.7,184.6,642.5,182.3,642.5z"/>
		<circle style="fill:none;stroke:#000000;stroke-miterlimit:10;" cx="182.3" cy="638.4" r="4.1"/>
		<path style="fill:none;stroke:#000000;stroke-miterlimit:10;" d="M191.8,618.3c-0.4,0.3-0.7,0.7-1.1,1c-0.3-0.3-0.5-0.7-0.8-1
			c0.4,0,0.8,0,1.2,0C191.3,618.3,191.5,618.3,191.8,618.3z"/>
		<path style="fill:none;stroke:#000000;stroke-miterlimit:10;" d="M172.5,686.5c-0.4,3.6-0.1,6.6,1.8,8.7l-1,0.9l-0.3,0.3
			c-0.1-0.1-0.2-0.2-0.3-0.3c-2.2-2.6-2.4-6.2-2-9.8c-3.8-0.6-7.3-2.4-10.3-5.3c0.3-0.4,0.7-0.8,1-1.2c3.5,3.6,7.9,5.2,12.7,5.2
			c3.5,0,6.8-0.9,9.7-2.7l0.4,0.7l0.4,0.6c-0.3,0.2-0.6,0.4-0.9,0.5c-2.9,1.7-6.2,2.5-9.6,2.5C173.6,686.5,173,686.5,172.5,686.5z"
			/>
		
			<ellipse transform="matrix(0.1602 -0.9871 0.9871 0.1602 -494.7738 696.0364)" style="fill:none;stroke:#000000;stroke-miterlimit:10;" cx="161.7" cy="638.8" rx="4.1" ry="4.1"/>
		<circle style="fill:none;stroke:#000000;stroke-miterlimit:10;" cx="182.3" cy="638.4" r="4.1"/>
	</g>
	<path style="fill:none;stroke:#000000;stroke-miterlimit:10;" d="M301,585.1c-0.5,1.1-1.1,2.1-1.8,3l0,0l0,0
		C299.9,587.2,300.4,586.2,301,585.1z"/>
</g>
</svg>
