<?xml version="1.0" encoding="utf-8"?>
<!-- Generator: Adobe Illustrator 22.1.0, SVG Export Plug-In . SVG Version: 6.00 Build 0)  -->
<svg version="1.1" id="Layer_1" xmlns="http://www.w3.org/2000/svg" xmlns:xlink="http://www.w3.org/1999/xlink" x="0px" y="0px"
	 viewBox="0 0 512 512" style="enable-background:new 0 0 512 512;" xml:space="preserve">
<line style="fill:none;stroke:#000000;stroke-miterlimit:10;" x1="512" y1="393.4" x2="0" y2="393.4"/>
<path style="fill:none;stroke:#000000;stroke-miterlimit:10;" d="M43.1,184.4c-10.8-2.5-17.7-13.1-15.6-23.8
	c2.1-10.9,12.9-18.4,24-16.3c-0.6-7,4.1-13.4,11-14.9c6.8-1.4,13.6,2.5,15.9,9.1c-0.4-1.9-2.1-11.8,4.1-21.3
	c6.1-9.4,15.5-11.8,17.5-12.3c1.2-6.7,6.6-11.7,12.9-12.3c7.2-0.7,14.3,4.5,15.8,12.3c10.5-3.8,22.2-0.6,28.8,7.8
	c5.6,7.1,6.8,16.9,3.2,25.5c4.3-7.1,12.6-10.9,20.7-9.4c8.3,1.6,14.9,8.3,16.2,16.8c0.4-0.2,9.1-4.9,17.5,0
	c5.9,3.5,9.3,10.4,8.4,17.5c3.2-4.3,8.5-5.8,12.3-3.9c3.8,1.9,5.4,8,4.3,12.2c-4.7,16.3-54,18.2-54,18.2s-31.3,1.5-64,1.3
	c-30.9-0.2-46.4-1.8-53-2.6C58.2,187.1,49.3,185.6,43.1,184.4z"/>
<path style="fill:none;stroke:#000000;stroke-miterlimit:10;" d="M369.9,103.8c-7-1.2-11.5-6.6-10.2-11.9c1.4-5.5,8.4-9.2,15.7-8.1
	c-0.4-3.5,2.7-6.7,7.2-7.4c4.4-0.7,8.9,1.2,10.4,4.5c-0.3-1-1.4-5.9,2.7-10.7c3.9-4.7,10.1-5.9,11.4-6.1c0.8-3.4,4.3-5.8,8.4-6.1
	c4.7-0.3,9.3,2.3,10.3,6.1c6.9-1.9,14.5-0.3,18.8,3.9c3.7,3.6,4.5,8.5,2.1,12.7c2.8-3.6,8.2-5.4,13.5-4.7c5.4,0.8,9.7,4.1,10.5,8.4
	c0.3-0.1,5.9-2.5,11.4,0c3.9,1.7,6.1,5.2,5.5,8.7c2.1-2.2,5.6-2.9,8-1.9c2.5,1,3.6,3.9,2.8,6.1c-3,8.1-35.2,9.1-35.2,9.1
	s-20.4,0.8-41.8,0.6c-20.2-0.1-30.3-0.9-34.6-1.3C379.8,105.2,374,104.4,369.9,103.8L369.9,103.8z"/>
<path style="fill:none;stroke:#000000;stroke-miterlimit:10;" d="M304.8,101c4.8-1.1,7.9-5.7,7-10.3c-0.9-4.8-5.8-8-10.7-7
	c0.3-3-1.9-5.8-4.9-6.5c-3-0.6-6.1,1.1-7.1,3.9c0.2-0.8,1-5.1-1.8-9.2c-2.7-4.1-6.9-5.1-7.8-5.4c-0.5-2.9-3-5-5.8-5.4
	c-3.2-0.3-6.4,2-7,5.4c-4.7-1.7-9.9-0.3-12.9,3.4c-2.5,3.1-3,7.4-1.4,11.1c-1.9-3.1-5.6-4.7-9.2-4.1c-3.7,0.6-6.7,3.6-7.2,7.3
	c-0.2-0.1-4-2.1-7.8,0c-2.7,1.5-4.1,4.5-3.7,7.6c-1.4-1.9-3.8-2.5-5.5-1.7s-2.5,3.4-1.9,5.3c2.1,7,24.1,7.9,24.1,7.9
	s14,0.6,28.6,0.6c13.8-0.1,20.7-0.8,23.7-1.1C298,102.2,301.9,101.5,304.8,101z"/>
<path style="fill:none;stroke:#000000;stroke-miterlimit:10;" d="M118.6,284.2c-5-0.9-8.2-4.8-7.2-8.8s6-6.8,11.2-6
	c-0.3-2.6,1.9-5,5.1-5.5s6.3,0.9,7.4,3.4c-0.2-0.7-1-4.3,1.9-7.9c2.8-3.4,7.2-4.3,8.1-4.5c0.6-2.5,3-4.3,6-4.5
	c3.4-0.3,6.6,1.7,7.3,4.5c4.9-1.4,10.3-0.2,13.4,2.8c2.6,2.6,3.2,6.2,1.5,9.4c2-2.7,5.8-4,9.6-3.4c3.9,0.6,6.9,3,7.5,6.2
	c0.2-0.1,4.2-1.8,8.1,0c2.8,1.3,4.3,3.8,3.9,6.4c1.5-1.6,3.9-2.1,5.7-1.4c1.7,0.7,2.5,2.9,1.9,4.5c-2.1,6-25,6.7-25,6.7
	s-14.5,0.6-29.7,0.5c-14.4-0.1-21.5-0.6-24.6-1C125.7,285.2,121.5,284.6,118.6,284.2L118.6,284.2z"/>
<path style="fill:none;stroke:#000000;stroke-miterlimit:10;" d="M7.8,266.3c-5-0.9-8.2-4.8-7.2-8.8s6-6.8,11.2-6
	c-0.3-2.6,1.9-5,5.1-5.5s6.3,0.9,7.4,3.4c-0.2-0.7-1-4.3,1.9-7.9c2.8-3.4,7.2-4.3,8.1-4.5c0.6-2.5,3-4.3,6-4.5
	c3.4-0.3,6.6,1.7,7.3,4.5c4.9-1.4,10.3-0.2,13.4,2.8c2.6,2.6,3.2,6.2,1.5,9.4c2-2.7,5.8-4,9.6-3.4c3.9,0.6,6.9,3,7.5,6.2
	c0.2-0.1,4.2-1.8,8.1,0c2.8,1.3,4.3,3.8,3.9,6.4c1.5-1.6,3.9-2.1,5.7-1.4s2.5,2.9,1.9,4.5c-2.1,6-25,6.7-25,6.7s-14.5,0.6-29.7,0.5
	c-14.4-0.1-21.5-0.6-24.6-1C14.8,267.3,10.7,266.7,7.8,266.3L7.8,266.3z"/>
<path style="fill:none;stroke:#000000;stroke-miterlimit:10;" d="M455.7,259c-2.1,6-25,6.7-25,6.7s-1.9,0.1-5.1,0.2
	c0.1,0.7,0.1,1.5,0,2.3c2.2-2.2,5.9-2.9,8.4-1.9c2.7,1,3.7,3.9,2.9,6.1c-3.2,8.1-36.9,9.1-37,9.1c0,0-21.4,0.8-43.8,0.6
	c-21.1-0.1-31.7-0.9-36.3-1.3c-7.4-0.6-13.4-1.4-17.8-2c-7.4-1.2-12.1-6.6-10.7-11.9c1.4-5.5,8.9-9.2,16.5-8.1
	c-0.5-3.5,2.8-6.7,7.5-7.4s9.3,1.2,10.9,4.5c-0.3-1-1.4-5.9,2.8-10.7c4.1-4.7,10.6-5.9,12-6.1c0.8-3.4,4.5-5.8,8.9-6.1
	c5-0.3,9.8,2.3,10.8,6.1c7.2-1.9,15.2-0.3,19.7,3.9c0.1,0.1,0.2,0.2,0.4,0.4c0.2-1.3,0.8-2.7,2-4.2c2.8-3.4,7.2-4.3,8.1-4.5
	c0.6-2.5,3-4.3,6-4.5c3.4-0.3,6.6,1.7,7.3,4.5c4.9-1.4,10.3-0.2,13.4,2.8c2.6,2.6,3.2,6.2,1.5,9.4c2-2.7,5.8-4,9.6-3.4
	c3.9,0.6,6.9,3,7.5,6.2c0.2-0.1,4.2-1.8,8.1,0c2.8,1.3,4.3,3.8,3.9,6.4c1.5-1.6,3.9-2.1,5.7-1.4C455.6,255.3,456.3,257.5,455.7,259z
	"/>
</svg>
