<?xml version="1.0" encoding="utf-8"?>
<!-- Generator: Adobe Illustrator 22.1.0, SVG Export Plug-In . SVG Version: 6.00 Build 0)  -->
<svg version="1.1" id="Layer_1" xmlns="http://www.w3.org/2000/svg" xmlns:xlink="http://www.w3.org/1999/xlink" x="0px" y="0px"
	 viewBox="0 0 612 792" style="enable-background:new 0 0 612 792;" xml:space="preserve">
<path style="fill:none;stroke:#000000;stroke-width:3;stroke-miterlimit:10;" d="M742.9,247.7c0,4.8,0,9.5,0,14.3
	c-1,2.2-0.8,4.6-1.3,6.9c-3.4,15.1-10.1,28.2-22.2,38.2c-9.3,7.7-19.9,11.7-31.9,12.1c-7.3,0.3-14.4-1.2-21.1-4.2
	c-2.4-1.1-3.6-0.7-5,1.5c-1.8,2.8-4,5.4-6.3,7.7c-9,8.9-19.7,14.8-32.2,17.3c-0.8,0.2-1.8-0.2-1.9,1.2c-0.4,0-0.8,0-1.1,0
	c-0.8-0.8-1.5-0.8-2.3,0c-4.4,0-8.8,0-13.2,0c-0.8-0.8-1.5-0.9-2.3,0c-0.4,0-0.8,0-1.1,0c0-1.1-0.8-1-1.6-1.1
	c-3.1-0.4-6.1-1.4-9.1-2.4c-8.1-2.7-15-7.3-21.4-12.9c-1.2-1-1.9-1-3.2-0.2c-3,2-6.3,3.6-9.6,5c-11.8,5.3-24.4,7.3-37.2,7.4
	c-5.3,0-10.8-0.5-16.1-1.4c-14.8-2.6-28.3-7.9-39.7-18c-1.1-1-2-1.2-3.3-0.5c-10.1,4.8-20.8,5.9-31.7,4.1
	c-19.7-3.3-33.6-14.4-41.7-32.6c-2-4.6-3.5-9.4-3.3-14.6c4.6,7.6,10.3,14.2,17.9,18.9c16.7,10.4,34.2,11.8,52.4,4.4
	c1-0.4,2-1.6,3.3-0.3c10,9.1,21.9,14.3,34.8,17.6c0.1,0.3,0.2,0.8,0.7,0.2c0.9,0.2,1.9,0.4,2.8,0.6c0.4,0.8,1.1,0.6,1.8,0.6
	c0.5,0,1.1,0,1.6,0c0.4,0.6,0.9,0.6,1.5,0.5c2.2,0.1,4.3,0.2,6.5,0.3c0.1,0.6,0.5,1,1.2,1c3.8,0,7.6,0,11.4,0c0.7,0,1-0.3,1.2-1
	c0.8,0,1.5-0.1,2.3-0.1c0.4,0.6,0.8,0.5,1.2-0.1c0.4,0,0.7,0,1.1,0c0.7,0.9,1,0.4,1.2-0.4c0.4,0,0.8,0,1.2-0.1
	c0.2,0.4,0.4,0.3,0.6-0.1c0.3,0,0.7,0,1,0c0.2-0.2,0.4-0.3,0.7-0.5c0.9-0.1,1.9-0.1,2.8-0.2c0.8,1,1,0.4,1.2-0.4
	c0.4-0.1,0.7-0.1,1.1-0.2c0.7,1,1,0.5,1.2-0.4c0.4-0.1,0.7-0.1,1.1-0.2c1.2,1.1,1.7,0.1,2.4-0.7c7.5-2.5,14.9-5.2,21.5-9.6
	c1.1-0.7,1.6-0.2,2.4,0.5c9.9,9.2,21.7,14.5,35.1,16.3c1.2,1.5,2.5,1.2,3.9,0.4c1.7,0,3.4,0,5.2,0c1.6,0.7,3.2,1.3,4.5-0.4
	c2.1-0.4,4.3-0.7,6.4-1.2c16-3.6,28.7-12.3,38-25.7c1-1.4,1.7-1.8,3.3-1c4.6,2.3,9.6,3.5,14.7,4.3c0.9,1.6,2.1,1.1,3.4,0.4
	c1.9,0,3.8,0,5.7,0c1.2,0.7,2.4,1.2,3.4-0.4c10.1-1.5,19.2-5.4,27-12c10.3-8.6,16.8-19.5,20.6-32.3c0.9-0.2,1.3-0.5,0.3-1.2
	c0.1-0.6,0.2-1.1,0.2-1.7c0.1-0.2,0.3-0.5,0.4-0.7c0-0.3,0.1-0.7,0.1-1c1-0.2,1.3-0.6,0.3-1.2c0.1-0.5,0.2-1.1,0.3-1.6
	c1.4-0.4,1.3-1,0.3-1.8c0.1-0.7,0.2-1.5,0.3-2.2c1.9-1.5,1.1-3.4,0.5-5.1c0-2.1,0-4.2,0-6.3c0.4-0.4,0.8-0.8,1.2-1.3
	c1,2.1,1.6,4.4,2.2,6.7C741.7,240.5,741.6,244.2,742.9,247.7z"/>
<path style="fill:none;stroke:#000000;stroke-width:3;stroke-miterlimit:10;" d="M613.5,97.7c3.6,0.7,7.2,1.2,10.7,2.1
	c25.2,6.2,42.6,21.8,54,44.7c3.8,7.6,6.1,15.7,7.5,24c0.2,1.3,0.5,2.2,2.1,2.5c17.8,2.8,30.6,12.9,39.8,28c5.2,8.6,7.8,18.2,9.3,28
	c0.1,1.5,0.2,3.1,0.4,4.6c0,2.1,0,4.2,0,6.3c-0.2,1.7-0.9,3.4-0.5,5.1c-0.1,0.7-0.2,1.5-0.3,2.2c-0.6,0.5-0.3,1.2-0.3,1.8
	c-0.1,0.5-0.2,1.1-0.3,1.6c-0.5,0.3-0.3,0.8-0.3,1.2c0,0.3-0.1,0.7-0.1,1c-0.3,0.1-0.5,0.3-0.4,0.7c-0.1,0.6-0.2,1.1-0.2,1.7
	c-0.6,0.3-0.4,0.8-0.3,1.2c-3.8,12.7-10.4,23.7-20.6,32.3c-7.9,6.6-16.9,10.5-27,12c-1.1,0.1-2.2,0.3-3.4,0.4c-1.9,0-3.8,0-5.7,0
	c-1.1-0.1-2.2-0.3-3.4-0.4c-5.1-0.8-10.1-2-14.7-4.3c-1.6-0.8-2.3-0.5-3.3,1c-9.4,13.4-22,22.1-38,25.7c-2.1,0.5-4.3,0.8-6.4,1.2
	c-1.5,0.1-3,0.3-4.5,0.4c-1.7,0-3.4,0-5.2,0c-1.3-0.1-2.6-0.3-3.9-0.4c-13.4-1.8-25.2-7.1-35.1-16.3c-0.7-0.7-1.2-1.2-2.4-0.5
	c-6.6,4.4-14,7.1-21.5,9.6c-0.8,0.2-1.7,0.1-2.4,0.7c-0.4,0.1-0.7,0.1-1.1,0.2c-0.4,0.1-0.8,0.2-1.2,0.4c-0.4,0.1-0.7,0.1-1.1,0.2
	c-0.5,0-1-0.2-1.2,0.4c-0.9,0.1-1.9,0.1-2.8,0.2c-0.4-0.1-0.5,0.2-0.7,0.5c-0.3,0-0.7,0-1,0c-0.2,0-0.4,0-0.6,0.1
	c-0.4,0-0.8,0-1.2,0.1c-0.5-0.1-0.9-0.2-1.2,0.4c-0.4,0-0.7,0-1.1,0c-0.4,0-0.8,0.1-1.2,0.1c-0.8,0-1.5,0.1-2.3,0.1
	c-4.6,0-9.1,0-13.7,0c-2.2-0.1-4.3-0.2-6.5-0.3c-0.3-0.7-1-0.5-1.5-0.5s-1.1,0-1.6,0c-0.4-0.8-1.1-0.6-1.8-0.6
	c-0.9-0.2-1.9-0.4-2.8-0.6c-0.2-0.1-0.5-0.2-0.7-0.2c-12.9-3.3-24.8-8.5-34.8-17.6c-1.4-1.3-2.3-0.1-3.3,0.3
	c-18.2,7.4-35.7,6.1-52.4-4.4c-7.6-4.7-13.2-11.4-17.9-18.9c-0.9-2-1.6-4-2.6-5.9c-2.1-4.4-2.5-9.3-3.9-13.9c0-4.2,0-8.4,0-12.6
	c1.6-4.5,2-9.3,4-13.7c8.3-18.3,22.2-29.3,42.1-32.7c5.7-1,11.4-1,17,0c1.8,0.3,2.6-0.1,3.2-2c7.9-26.6,25.8-42.7,52.6-48.7
	c11.9-2.7,23.8-1.6,35.4,2.5c2.5,0.9,3.3,0.4,4.3-1.9c10.6-23.3,27.8-39.2,52.6-46.3c3.9-1.1,8-1.8,12-2.6
	C604.4,97.7,608.9,97.7,613.5,97.7z"/>
<path style="fill:none;stroke:#000000;stroke-width:3;stroke-miterlimit:10;" d="M602.1,342.7c0.8-0.9,1.5-0.8,2.3,0
	C603.6,342.7,602.8,342.7,602.1,342.7z"/>
<path style="fill:none;stroke:#000000;stroke-width:3;stroke-miterlimit:10;" d="M617.5,342.7c0.8-0.8,1.5-0.8,2.3,0
	C619.1,342.7,618.3,342.7,617.5,342.7z"/>
<path style="fill:none;stroke:#000000;stroke-width:3;stroke-miterlimit:10;" d="M506.5,318.2c4.6,0,9.1,0,13.7,0
	c-0.1,0.6-0.5,1-1.2,1c-3.8,0-7.6,0-11.4,0C507,319.2,506.6,318.9,506.5,318.2z"/>
<path style="fill:none;stroke:#000000;stroke-width:3;stroke-miterlimit:10;" d="M737.2,231.6c-0.1-1.5-0.2-3.1-0.4-4.6
	c1.5,0.6,1.4,2.1,1.6,3.4C738,230.8,737.6,231.2,737.2,231.6z"/>
<path style="fill:none;stroke:#000000;stroke-width:3;stroke-miterlimit:10;" d="M736.7,243.1c-0.4-1.8,0.3-3.4,0.5-5.1
	C737.8,239.7,738.6,241.5,736.7,243.1z"/>
<path style="fill:none;stroke:#000000;stroke-width:3;stroke-miterlimit:10;" d="M607.2,322.7c1.5-0.1,3-0.3,4.5-0.4
	C610.4,324,608.8,323.4,607.2,322.7z"/>
<path style="fill:none;stroke:#000000;stroke-width:3;stroke-miterlimit:10;" d="M598.1,322.3c1.3,0.1,2.6,0.3,3.9,0.4
	C600.7,323.5,599.3,323.8,598.1,322.3z"/>
<path style="fill:none;stroke:#000000;stroke-width:3;stroke-miterlimit:10;" d="M736.1,247.1c0-0.6-0.3-1.3,0.3-1.8
	C737.4,246,737.5,246.7,736.1,247.1z"/>
<path style="fill:none;stroke:#000000;stroke-width:3;stroke-miterlimit:10;" d="M674.3,298.8c1.1,0.1,2.2,0.3,3.4,0.4
	C676.4,299.9,675.2,300.4,674.3,298.8z"/>
<path style="fill:none;stroke:#000000;stroke-width:3;stroke-miterlimit:10;" d="M683.4,299.2c1.1-0.1,2.2-0.3,3.4-0.4
	C685.8,300.4,684.6,299.9,683.4,299.2z"/>
<path style="fill:none;stroke:#000000;stroke-width:3;stroke-miterlimit:10;" d="M536.8,315.7c0.7-0.6,1.6-0.5,2.4-0.7
	C538.5,315.8,537.9,316.8,536.8,315.7z"/>
<path style="fill:none;stroke:#000000;stroke-width:3;stroke-miterlimit:10;" d="M735.5,250c-0.1-0.5-0.2-0.9,0.3-1.2
	C736.8,249.4,736.5,249.7,735.5,250z"/>
<path style="fill:none;stroke:#000000;stroke-width:3;stroke-miterlimit:10;" d="M734.4,254.5c-0.1-0.5-0.2-0.9,0.3-1.2
	C735.7,254,735.3,254.4,734.4,254.5z"/>
<path style="fill:none;stroke:#000000;stroke-width:3;stroke-miterlimit:10;" d="M534.5,316.2c0.4-0.1,0.8-0.2,1.2-0.4
	C535.5,316.7,535.2,317.2,534.5,316.2z"/>
<path style="fill:none;stroke:#000000;stroke-width:3;stroke-miterlimit:10;" d="M532.2,316.8c0.2-0.6,0.7-0.5,1.2-0.4
	C533.2,317.3,533,317.8,532.2,316.8z"/>
<path style="fill:none;stroke:#000000;stroke-width:3;stroke-miterlimit:10;" d="M524.8,318c0.2-0.6,0.7-0.5,1.2-0.4
	C525.8,318.4,525.5,318.9,524.8,318z"/>
<path style="fill:none;stroke:#000000;stroke-width:3;stroke-miterlimit:10;" d="M495,316.9c0.7,0,1.4-0.2,1.8,0.6
	C496.1,317.5,495.4,317.6,495,316.9z"/>
<path style="fill:none;stroke:#000000;stroke-width:3;stroke-miterlimit:10;" d="M498.4,317.5c0.6,0,1.2-0.3,1.5,0.5
	C499.4,318.1,498.8,318.1,498.4,317.5z"/>
<path style="fill:none;stroke:#000000;stroke-width:3;stroke-miterlimit:10;" d="M522.5,318.1c0.4,0,0.8-0.1,1.2-0.1
	C523.3,318.6,522.9,318.7,522.5,318.1z"/>
<path style="fill:none;stroke:#000000;stroke-width:3;stroke-miterlimit:10;" d="M735,251.7c-0.1-0.4,0.1-0.6,0.4-0.7
	C735.2,251.2,735.1,251.4,735,251.7z"/>
<path style="fill:none;stroke:#000000;stroke-width:3;stroke-miterlimit:10;" d="M491.5,316c0.2,0.1,0.5,0.2,0.7,0.2
	C491.7,316.8,491.6,316.3,491.5,316z"/>
<path style="fill:none;stroke:#000000;stroke-width:3;stroke-miterlimit:10;" d="M528.7,317.5c0.1-0.3,0.3-0.6,0.7-0.5
	C529.1,317.2,528.9,317.3,528.7,317.5z"/>
<path style="fill:none;stroke:#000000;stroke-width:3;stroke-miterlimit:10;" d="M527.1,317.6c0.2,0,0.4,0,0.6-0.1
	C527.5,317.9,527.3,318,527.1,317.6z"/>
<path style="fill:none;stroke:#000000;stroke-width:3;stroke-miterlimit:10;" d="M211.9,429.7c0,4.8,0,9.5,0,14.3
	c-1,2.2-0.8,4.6-1.3,6.9c-3.4,15.1-10.1,28.2-22.2,38.2c-9.3,7.7-19.9,11.7-31.9,12.1c-7.3,0.3-14.4-1.2-21.1-4.2
	c-2.4-1.1-3.6-0.7-5,1.5c-1.8,2.8-4,5.4-6.3,7.7c-9,8.9-19.7,14.8-32.2,17.3c-0.8,0.2-1.8-0.2-1.9,1.2c-0.4,0-0.8,0-1.1,0
	c-0.8-0.8-1.5-0.8-2.3,0c-4.4,0-8.8,0-13.2,0c-0.8-0.8-1.5-0.9-2.3,0c-0.4,0-0.8,0-1.1,0c0-1.1-0.8-1-1.6-1.1
	c-3.1-0.4-6.1-1.4-9.1-2.4c-8.1-2.7-15-7.3-21.4-12.9c-1.2-1-1.9-1-3.2-0.2c-3,2-6.3,3.6-9.6,5c-11.8,5.3-24.4,7.3-37.2,7.4
	c-5.3,0-10.8-0.5-16.1-1.4c-14.8-2.6-28.3-7.9-39.7-18c-1.1-1-2-1.2-3.3-0.5c-10.1,4.8-20.8,5.9-31.7,4.1
	c-19.7-3.3-33.6-14.4-41.7-32.6c-2-4.6-3.5-9.4-3.3-14.6c4.6,7.6,10.3,14.2,17.9,18.9c16.7,10.4,34.2,11.8,52.4,4.4
	c1-0.4,2-1.6,3.3-0.3c10,9.1,21.9,14.3,34.8,17.6c0.1,0.3,0.2,0.8,0.7,0.2c0.9,0.2,1.9,0.4,2.8,0.6c0.4,0.8,1.1,0.6,1.8,0.6
	c0.5,0,1.1,0,1.6,0c0.4,0.6,0.9,0.6,1.5,0.5c2.2,0.1,4.3,0.2,6.5,0.3c0.1,0.6,0.5,1,1.2,1c3.8,0,7.6,0,11.4,0c0.7,0,1-0.3,1.2-1
	c0.8,0,1.5-0.1,2.3-0.1c0.4,0.6,0.8,0.5,1.2-0.1c0.4,0,0.7,0,1.1,0c0.7,0.9,1,0.4,1.2-0.4c0.4,0,0.8,0,1.2-0.1
	c0.2,0.4,0.4,0.3,0.6-0.1c0.3,0,0.7,0,1,0c0.2-0.2,0.4-0.3,0.7-0.5c0.9-0.1,1.9-0.1,2.8-0.2c0.8,1,1,0.4,1.2-0.4
	c0.4-0.1,0.7-0.1,1.1-0.2c0.7,1,1,0.5,1.2-0.4c0.4-0.1,0.7-0.1,1.1-0.2c1.2,1.1,1.7,0.1,2.4-0.7c7.5-2.5,14.9-5.2,21.5-9.6
	c1.1-0.7,1.6-0.2,2.4,0.5c9.9,9.2,21.7,14.5,35.1,16.3c1.2,1.5,2.5,1.2,3.9,0.4c1.7,0,3.4,0,5.2,0c1.6,0.7,3.2,1.3,4.5-0.4
	c2.1-0.4,4.3-0.7,6.4-1.2c16-3.6,28.7-12.3,38-25.7c1-1.4,1.7-1.8,3.3-1c4.6,2.3,9.6,3.5,14.7,4.3c0.9,1.6,2.1,1.1,3.4,0.4
	c1.9,0,3.8,0,5.7,0c1.2,0.7,2.4,1.2,3.4-0.4c10.1-1.5,19.2-5.4,27-12c10.3-8.6,16.8-19.5,20.6-32.3c0.9-0.2,1.3-0.5,0.3-1.2
	c0.1-0.6,0.2-1.1,0.2-1.7c0.1-0.2,0.3-0.5,0.4-0.7c0-0.3,0.1-0.7,0.1-1c1-0.2,1.3-0.6,0.3-1.2c0.1-0.5,0.2-1.1,0.3-1.6
	c1.4-0.4,1.3-1,0.3-1.8c0.1-0.7,0.2-1.5,0.3-2.2c1.9-1.5,1.1-3.4,0.5-5.1c0-2.1,0-4.2,0-6.3c0.4-0.4,0.8-0.8,1.2-1.3
	c1,2.1,1.6,4.4,2.2,6.7C210.7,422.5,210.6,426.2,211.9,429.7z"/>
<path style="fill:none;stroke:#000000;stroke-width:3;stroke-miterlimit:10;" d="M82.5,279.7c3.6,0.7,7.2,1.2,10.7,2.1
	c25.2,6.2,42.6,21.8,54,44.7c3.8,7.6,6.1,15.7,7.5,24c0.2,1.3,0.5,2.2,2.1,2.5c17.8,2.8,30.6,12.9,39.8,28c5.2,8.6,7.8,18.2,9.3,28
	c0.1,1.5,0.2,3.1,0.4,4.6c0,2.1,0,4.2,0,6.3c-0.2,1.7-0.9,3.4-0.5,5.1c-0.1,0.7-0.2,1.5-0.3,2.2c-0.6,0.5-0.3,1.2-0.3,1.8
	c-0.1,0.5-0.2,1.1-0.3,1.6c-0.5,0.3-0.3,0.8-0.3,1.2c0,0.3-0.1,0.7-0.1,1c-0.3,0.1-0.5,0.3-0.4,0.7c-0.1,0.6-0.2,1.1-0.2,1.7
	c-0.6,0.3-0.4,0.8-0.3,1.2c-3.8,12.7-10.4,23.7-20.6,32.3c-7.9,6.6-16.9,10.5-27,12c-1.1,0.1-2.2,0.3-3.4,0.4c-1.9,0-3.8,0-5.7,0
	c-1.1-0.1-2.2-0.3-3.4-0.4c-5.1-0.8-10.1-2-14.7-4.3c-1.6-0.8-2.3-0.5-3.3,1c-9.4,13.4-22,22.1-38,25.7c-2.1,0.5-4.3,0.8-6.4,1.2
	c-1.5,0.1-3,0.3-4.5,0.4c-1.7,0-3.4,0-5.2,0c-1.3-0.1-2.6-0.3-3.9-0.4C53.7,502.5,42,497.2,32,488c-0.7-0.7-1.2-1.2-2.4-0.5
	c-6.6,4.4-14,7.1-21.5,9.6c-0.8,0.2-1.7,0.1-2.4,0.7c-0.4,0.1-0.7,0.1-1.1,0.2s-0.8,0.2-1.2,0.4c-0.4,0.1-0.7,0.1-1.1,0.2
	c-0.5,0-1-0.2-1.2,0.4c-0.9,0.1-1.9,0.1-2.8,0.2c-0.4-0.1-0.5,0.2-0.7,0.5c-0.3,0-0.7,0-1,0c-0.2,0-0.4,0-0.6,0.1
	c-0.4,0-0.8,0-1.2,0.1c-0.5-0.1-0.9-0.2-1.2,0.4c-0.4,0-0.7,0-1.1,0s-0.8,0.1-1.2,0.1c-0.8,0-1.5,0.1-2.3,0.1c-4.6,0-9.1,0-13.7,0
	c-2.2-0.1-4.3-0.2-6.5-0.3c-0.3-0.7-1-0.5-1.5-0.5s-1.1,0-1.6,0c-0.4-0.8-1.1-0.6-1.8-0.6c-0.9-0.2-1.9-0.4-2.8-0.6
	c-0.2-0.1-0.5-0.2-0.7-0.2c-12.9-3.3-24.8-8.5-34.8-17.6c-1.4-1.3-2.3-0.1-3.3,0.3c-18.2,7.4-35.7,6.1-52.4-4.4
	c-7.6-4.7-13.2-11.4-17.9-18.9c-0.9-2-1.6-4-2.6-5.9c-2.1-4.4-2.5-9.3-3.9-13.9c0-4.2,0-8.4,0-12.6c1.6-4.5,2-9.3,4-13.7
	c8.3-18.3,22.2-29.3,42.1-32.7c5.7-1,11.4-1,17,0c1.8,0.3,2.6-0.1,3.2-2c7.9-26.6,25.8-42.7,52.6-48.7c11.9-2.7,23.8-1.6,35.4,2.5
	c2.5,0.9,3.3,0.4,4.3-1.9c10.6-23.3,27.8-39.2,52.6-46.3c3.9-1.1,8-1.8,12-2.6C73.4,279.7,77.9,279.7,82.5,279.7z"/>
<path style="fill:none;stroke:#000000;stroke-width:3;stroke-miterlimit:10;" d="M71.1,524.7c0.8-0.9,1.5-0.8,2.3,0
	C72.6,524.7,71.8,524.7,71.1,524.7z"/>
<path style="fill:none;stroke:#000000;stroke-width:3;stroke-miterlimit:10;" d="M86.5,524.7c0.8-0.8,1.5-0.8,2.3,0
	C88.1,524.7,87.3,524.7,86.5,524.7z"/>
<path style="fill:none;stroke:#000000;stroke-width:3;stroke-miterlimit:10;" d="M-24.5,500.2c4.6,0,9.1,0,13.7,0
	c-0.1,0.6-0.5,1-1.2,1c-3.8,0-7.6,0-11.4,0C-24,501.2-24.4,500.9-24.5,500.2z"/>
<path style="fill:none;stroke:#000000;stroke-width:3;stroke-miterlimit:10;" d="M206.2,413.6c-0.1-1.5-0.2-3.1-0.4-4.6
	c1.5,0.6,1.4,2.1,1.6,3.4C207,412.8,206.6,413.2,206.2,413.6z"/>
<path style="fill:none;stroke:#000000;stroke-width:3;stroke-miterlimit:10;" d="M205.7,425.1c-0.4-1.8,0.3-3.4,0.5-5.1
	C206.8,421.7,207.6,423.5,205.7,425.1z"/>
<path style="fill:none;stroke:#000000;stroke-width:3;stroke-miterlimit:10;" d="M76.2,504.7c1.5-0.1,3-0.3,4.5-0.4
	C79.4,506,77.8,505.4,76.2,504.7z"/>
<path style="fill:none;stroke:#000000;stroke-width:3;stroke-miterlimit:10;" d="M67.1,504.3c1.3,0.1,2.6,0.3,3.9,0.4
	C69.7,505.5,68.3,505.8,67.1,504.3z"/>
<path style="fill:none;stroke:#000000;stroke-width:3;stroke-miterlimit:10;" d="M205.1,429.1c0-0.6-0.3-1.3,0.3-1.8
	C206.4,428,206.5,428.7,205.1,429.1z"/>
<path style="fill:none;stroke:#000000;stroke-width:3;stroke-miterlimit:10;" d="M143.3,480.8c1.1,0.1,2.2,0.3,3.4,0.4
	C145.4,481.9,144.2,482.4,143.3,480.8z"/>
<path style="fill:none;stroke:#000000;stroke-width:3;stroke-miterlimit:10;" d="M152.4,481.2c1.1-0.1,2.2-0.3,3.4-0.4
	C154.8,482.4,153.6,481.9,152.4,481.2z"/>
<path style="fill:none;stroke:#000000;stroke-width:3;stroke-miterlimit:10;" d="M5.8,497.7c0.7-0.6,1.6-0.5,2.4-0.7
	C7.5,497.8,6.9,498.8,5.8,497.7z"/>
<path style="fill:none;stroke:#000000;stroke-width:3;stroke-miterlimit:10;" d="M204.5,432c-0.1-0.5-0.2-0.9,0.3-1.2
	C205.8,431.4,205.5,431.7,204.5,432z"/>
<path style="fill:none;stroke:#000000;stroke-width:3;stroke-miterlimit:10;" d="M203.4,436.5c-0.1-0.5-0.2-0.9,0.3-1.2
	C204.7,436,204.3,436.4,203.4,436.5z"/>
<path style="fill:none;stroke:#000000;stroke-width:3;stroke-miterlimit:10;" d="M3.5,498.2c0.4-0.1,0.8-0.2,1.2-0.4
	C4.5,498.7,4.2,499.2,3.5,498.2z"/>
<path style="fill:none;stroke:#000000;stroke-width:3;stroke-miterlimit:10;" d="M1.2,498.8c0.2-0.6,0.7-0.5,1.2-0.4
	C2.2,499.3,2,499.8,1.2,498.8z"/>
<path style="fill:none;stroke:#000000;stroke-width:3;stroke-miterlimit:10;" d="M-6.2,500c0.2-0.6,0.7-0.5,1.2-0.4
	C-5.2,500.4-5.5,500.9-6.2,500z"/>
<path style="fill:none;stroke:#000000;stroke-width:3;stroke-miterlimit:10;" d="M-36,498.9c0.7,0,1.4-0.2,1.8,0.6
	C-34.9,499.5-35.6,499.6-36,498.9z"/>
<path style="fill:none;stroke:#000000;stroke-width:3;stroke-miterlimit:10;" d="M-32.6,499.5c0.6,0,1.2-0.3,1.5,0.5
	C-31.6,500.1-32.2,500.1-32.6,499.5z"/>
<path style="fill:none;stroke:#000000;stroke-width:3;stroke-miterlimit:10;" d="M-8.5,500.1c0.4,0,0.8-0.1,1.2-0.1
	C-7.7,500.6-8.1,500.7-8.5,500.1z"/>
<path style="fill:none;stroke:#000000;stroke-width:3;stroke-miterlimit:10;" d="M204,433.7c-0.1-0.4,0.1-0.6,0.4-0.7
	C204.2,433.2,204.1,433.4,204,433.7z"/>
<path style="fill:none;stroke:#000000;stroke-width:3;stroke-miterlimit:10;" d="M-39.5,498c0.2,0.1,0.5,0.2,0.7,0.2
	C-39.3,498.8-39.4,498.3-39.5,498z"/>
<path style="fill:none;stroke:#000000;stroke-width:3;stroke-miterlimit:10;" d="M-2.3,499.5c0.1-0.3,0.3-0.6,0.7-0.5
	C-1.9,499.2-2.1,499.3-2.3,499.5z"/>
<path style="fill:none;stroke:#000000;stroke-width:3;stroke-miterlimit:10;" d="M-3.9,499.6c0.2,0,0.4,0,0.6-0.1
	C-3.5,499.9-3.7,500-3.9,499.6z"/>
<path style="fill:none;stroke:#000000;stroke-width:3;stroke-miterlimit:10;" d="M687.8,584.9c0,3.7,0,7.4,0,11.1
	c-0.8,1.7-0.6,3.6-1,5.3c-2.6,11.7-7.8,21.9-17.3,29.6c-7.2,5.9-15.5,9.1-24.8,9.4c-5.7,0.2-11.2-1-16.3-3.3
	c-1.9-0.8-2.8-0.5-3.9,1.2c-1.4,2.2-3.1,4.2-4.9,6c-7,6.9-15.3,11.5-25,13.4c-0.6,0.1-1.4-0.1-1.5,0.9c-0.3,0-0.6,0-0.9,0
	c-0.6-0.7-1.2-0.6-1.8,0c-3.4,0-6.8,0-10.2,0c-0.6-0.6-1.2-0.7-1.8,0c-0.3,0-0.6,0-0.9,0c0-0.9-0.6-0.8-1.2-0.9
	c-2.4-0.3-4.7-1.1-7-1.9c-6.3-2.1-11.7-5.7-16.6-10c-0.9-0.8-1.5-0.8-2.5-0.1c-2.4,1.5-4.9,2.8-7.4,3.9c-9.2,4.1-18.9,5.7-28.8,5.8
	c-4.1,0-8.4-0.4-12.5-1.1c-11.5-2-22-6.2-30.8-13.9c-0.8-0.7-1.5-0.9-2.6-0.4c-7.9,3.7-16.2,4.6-24.6,3.2
	c-15.3-2.6-26.1-11.2-32.3-25.3c-1.6-3.6-2.8-7.3-2.6-11.3c3.6,5.9,8,11,13.9,14.7c13,8.1,26.5,9.2,40.7,3.4
	c0.8-0.3,1.5-1.2,2.6-0.3c7.7,7,17,11.1,27,13.6c0.1,0.3,0.2,0.7,0.5,0.2c0.7,0.2,1.5,0.3,2.2,0.5c0.3,0.6,0.9,0.5,1.4,0.5
	c0.4,0,0.8,0,1.3,0c0.3,0.5,0.7,0.5,1.2,0.4c1.7,0.1,3.4,0.2,5.1,0.2c0.1,0.5,0.4,0.8,0.9,0.8c2.9,0,5.9,0,8.8,0
	c0.5,0,0.8-0.3,0.9-0.8c0.6,0,1.2-0.1,1.8-0.1c0.3,0.5,0.6,0.4,0.9-0.1c0.3,0,0.6,0,0.8,0c0.6,0.7,0.8,0.3,0.9-0.3
	c0.3,0,0.6,0,0.9,0c0.2,0.3,0.3,0.2,0.4,0c0.3,0,0.5,0,0.8,0c0.2-0.1,0.3-0.2,0.5-0.4c0.7,0,1.5-0.1,2.2-0.1
	c0.6,0.7,0.8,0.3,0.9-0.3c0.3,0,0.6-0.1,0.9-0.1c0.6,0.8,0.8,0.4,0.9-0.3c0.3,0,0.6-0.1,0.9-0.1c0.9,0.9,1.3,0,1.8-0.5
	c5.8-1.9,11.5-4,16.7-7.4c0.9-0.6,1.3-0.1,1.8,0.4c7.7,7.1,16.8,11.2,27.2,12.6c0.9,1.2,2,0.9,3.1,0.3c1.3,0,2.7,0,4,0
	c1.2,0.5,2.4,1,3.5-0.3c1.7-0.3,3.3-0.5,5-0.9c12.4-2.8,22.2-9.5,29.5-19.9c0.8-1.1,1.3-1.4,2.6-0.7c3.6,1.8,7.5,2.7,11.4,3.4
	c0.7,1.3,1.7,0.9,2.6,0.3c1.5,0,3,0,4.4,0c0.9,0.5,1.9,0.9,2.6-0.3c7.9-1.2,14.9-4.2,21-9.3c8-6.7,13.1-15.2,16-25
	c0.7-0.1,1-0.4,0.3-0.9c0.1-0.4,0.1-0.9,0.2-1.3c0.1-0.2,0.2-0.4,0.3-0.6c0-0.3,0.1-0.5,0.1-0.8c0.8-0.2,1-0.5,0.2-1
	c0.1-0.4,0.2-0.8,0.2-1.3c1.1-0.3,1-0.8,0.2-1.4c0.1-0.6,0.2-1.1,0.2-1.7c1.5-1.2,0.9-2.6,0.4-4c0-1.6,0-3.3,0-4.9
	c0.3-0.3,0.6-0.7,1-1c0.8,1.7,1.2,3.4,1.7,5.2C686.9,579.4,686.8,582.2,687.8,584.9z"/>
<path style="fill:none;stroke:#000000;stroke-width:3;stroke-miterlimit:10;" d="M587.4,468.5c2.8,0.5,5.5,1,8.3,1.6
	c19.5,4.8,33.1,17,41.9,34.7c2.9,5.9,4.7,12.1,5.8,18.6c0.2,1,0.4,1.7,1.6,1.9c13.8,2.2,23.7,10,30.9,21.7c4.1,6.7,6,14.1,7.2,21.8
	c0.1,1.2,0.2,2.4,0.3,3.6c0,1.6,0,3.3,0,4.9c-0.1,1.3-0.7,2.6-0.4,4c-0.1,0.6-0.2,1.1-0.2,1.7c-0.5,0.4-0.2,0.9-0.2,1.4
	c-0.1,0.4-0.2,0.8-0.2,1.3c-0.4,0.3-0.3,0.6-0.2,1c0,0.3-0.1,0.5-0.1,0.8c-0.2,0.1-0.4,0.3-0.3,0.6c-0.1,0.4-0.1,0.9-0.2,1.3
	c-0.4,0.2-0.3,0.6-0.3,0.9c-2.9,9.9-8,18.4-16,25c-6.1,5.1-13.1,8.2-21,9.3c-0.9,0.1-1.7,0.2-2.6,0.3c-1.5,0-3,0-4.4,0
	c-0.9-0.1-1.7-0.2-2.6-0.3c-3.9-0.7-7.8-1.6-11.4-3.4c-1.3-0.6-1.8-0.4-2.6,0.7c-7.3,10.4-17.1,17.1-29.5,19.9
	c-1.6,0.4-3.3,0.6-5,0.9c-1.2,0.1-2.3,0.2-3.5,0.3c-1.3,0-2.7,0-4,0c-1-0.1-2-0.2-3.1-0.3c-10.4-1.4-19.5-5.5-27.2-12.6
	c-0.6-0.5-1-1-1.8-0.4c-5.1,3.4-10.9,5.5-16.7,7.4c-0.6,0.1-1.3,0.1-1.8,0.5c-0.3,0-0.6,0.1-0.9,0.1c-0.3,0.1-0.6,0.2-0.9,0.3
	c-0.3,0-0.6,0.1-0.9,0.1c-0.4,0-0.7-0.1-0.9,0.3c-0.7,0-1.5,0.1-2.2,0.1c-0.3-0.1-0.4,0.1-0.5,0.4c-0.3,0-0.5,0-0.8,0
	c-0.1,0-0.3,0-0.4,0c-0.3,0-0.6,0-0.9,0c-0.4-0.1-0.7-0.2-0.9,0.3c-0.3,0-0.6,0-0.8,0c-0.3,0-0.6,0-0.9,0.1c-0.6,0-1.2,0.1-1.8,0.1
	c-3.5,0-7.1,0-10.6,0c-1.7-0.1-3.4-0.2-5.1-0.2c-0.3-0.6-0.8-0.4-1.2-0.4c-0.4,0-0.8,0-1.3,0c-0.3-0.6-0.9-0.5-1.4-0.5
	c-0.7-0.2-1.5-0.3-2.2-0.5c-0.2-0.1-0.4-0.1-0.5-0.2c-10-2.6-19.3-6.6-27-13.6c-1.1-1-1.8-0.1-2.6,0.3c-14.1,5.8-27.7,4.7-40.7-3.4
	c-5.9-3.7-10.3-8.8-13.9-14.7c-0.7-1.5-1.3-3.1-2-4.6c-1.6-3.4-1.9-7.2-3.1-10.8c0-3.3,0-6.5,0-9.8c1.2-3.5,1.6-7.2,3.1-10.6
	c6.4-14.2,17.2-22.8,32.6-25.4c4.4-0.8,8.8-0.8,13.2,0c1.4,0.2,2-0.1,2.4-1.5c6.2-20.6,20-33.1,40.8-37.8c9.2-2.1,18.5-1.2,27.4,1.9
	c1.9,0.7,2.6,0.3,3.4-1.4c8.2-18.1,21.5-30.4,40.8-35.9c3.1-0.9,6.2-1.4,9.3-2C580.3,468.5,583.9,468.5,587.4,468.5z"/>
<path style="fill:none;stroke:#000000;stroke-width:3;stroke-miterlimit:10;" d="M629.1,658.6c0.8-0.9,1.5-0.8,2.3,0
	C630.6,658.6,629.8,658.6,629.1,658.6z"/>
<path style="fill:none;stroke:#000000;stroke-width:3;stroke-miterlimit:10;" d="M644.5,658.6c0.8-0.8,1.5-0.8,2.3,0
	C646.1,658.6,645.3,658.6,644.5,658.6z"/>
<path style="fill:none;stroke:#000000;stroke-width:3;stroke-miterlimit:10;" d="M504.4,639.6c3.5,0,7.1,0,10.6,0
	c-0.1,0.5-0.4,0.8-0.9,0.8c-2.9,0-5.9,0-8.8,0C504.8,640.4,504.5,640.1,504.4,639.6z"/>
<path style="fill:none;stroke:#000000;stroke-width:3;stroke-miterlimit:10;" d="M683.4,572.5c-0.1-1.2-0.2-2.4-0.3-3.6
	c1.2,0.5,1.1,1.6,1.2,2.6C684,571.8,683.7,572.1,683.4,572.5z"/>
<path style="fill:none;stroke:#000000;stroke-width:3;stroke-miterlimit:10;" d="M683,581.4c-0.3-1.4,0.2-2.7,0.4-4
	C683.8,578.7,684.5,580.2,683,581.4z"/>
<path style="fill:none;stroke:#000000;stroke-width:3;stroke-miterlimit:10;" d="M582.5,643.1c1.2-0.1,2.3-0.2,3.5-0.3
	C585,644.1,583.8,643.6,582.5,643.1z"/>
<path style="fill:none;stroke:#000000;stroke-width:3;stroke-miterlimit:10;" d="M575.5,642.8c1,0.1,2,0.2,3.1,0.3
	C577.4,643.7,576.4,644,575.5,642.8z"/>
<path style="fill:none;stroke:#000000;stroke-width:3;stroke-miterlimit:10;" d="M682.5,584.5c0-0.5-0.3-1,0.2-1.4
	C683.6,583.6,683.6,584.1,682.5,584.5z"/>
<path style="fill:none;stroke:#000000;stroke-width:3;stroke-miterlimit:10;" d="M634.5,624.6c0.9,0.1,1.7,0.2,2.6,0.3
	C636.2,625.4,635.3,625.8,634.5,624.6z"/>
<path style="fill:none;stroke:#000000;stroke-width:3;stroke-miterlimit:10;" d="M641.6,624.9c0.9-0.1,1.7-0.2,2.6-0.3
	C643.5,625.8,642.6,625.4,641.6,624.9z"/>
<path style="fill:none;stroke:#000000;stroke-width:3;stroke-miterlimit:10;" d="M527.9,637.7c0.5-0.4,1.2-0.4,1.8-0.5
	C529.2,637.7,528.8,638.6,527.9,637.7z"/>
<path style="fill:none;stroke:#000000;stroke-width:3;stroke-miterlimit:10;" d="M682.1,586.7c-0.1-0.3-0.2-0.7,0.2-1
	C683.1,586.2,682.9,586.5,682.1,586.7z"/>
<path style="fill:none;stroke:#000000;stroke-width:3;stroke-miterlimit:10;" d="M681.2,590.2c-0.1-0.4-0.2-0.7,0.3-0.9
	C682.2,589.9,681.9,590.1,681.2,590.2z"/>
<path style="fill:none;stroke:#000000;stroke-width:3;stroke-miterlimit:10;" d="M526.1,638.1c0.3-0.1,0.6-0.2,0.9-0.3
	C526.9,638.5,526.6,638.9,526.1,638.1z"/>
<path style="fill:none;stroke:#000000;stroke-width:3;stroke-miterlimit:10;" d="M524.3,638.6c0.2-0.5,0.6-0.4,0.9-0.3
	C525.1,638.9,524.9,639.3,524.3,638.6z"/>
<path style="fill:none;stroke:#000000;stroke-width:3;stroke-miterlimit:10;" d="M518.5,639.5c0.2-0.5,0.5-0.4,0.9-0.3
	C519.3,639.8,519.1,640.2,518.5,639.5z"/>
<path style="fill:none;stroke:#000000;stroke-width:3;stroke-miterlimit:10;" d="M495.5,638.6c0.5,0,1.1-0.2,1.4,0.5
	C496.3,639.1,495.8,639.2,495.5,638.6z"/>
<path style="fill:none;stroke:#000000;stroke-width:3;stroke-miterlimit:10;" d="M498.1,639.1c0.4,0,0.9-0.2,1.2,0.4
	C498.9,639.5,498.4,639.5,498.1,639.1z"/>
<path style="fill:none;stroke:#000000;stroke-width:3;stroke-miterlimit:10;" d="M516.8,639.6c0.3,0,0.6,0,0.9-0.1
	C517.4,640,517.1,640,516.8,639.6z"/>
<path style="fill:none;stroke:#000000;stroke-width:3;stroke-miterlimit:10;" d="M681.6,588c-0.1-0.3,0.1-0.5,0.3-0.6
	C681.9,587.6,681.8,587.8,681.6,588z"/>
<path style="fill:none;stroke:#000000;stroke-width:3;stroke-miterlimit:10;" d="M492.7,637.9c0.2,0.1,0.4,0.1,0.5,0.2
	C492.9,638.6,492.8,638.2,492.7,637.9z"/>
<path style="fill:none;stroke:#000000;stroke-width:3;stroke-miterlimit:10;" d="M521.6,639.1c0.1-0.2,0.2-0.4,0.5-0.4
	C521.9,638.8,521.8,639,521.6,639.1z"/>
<path style="fill:none;stroke:#000000;stroke-width:3;stroke-miterlimit:10;" d="M520.4,639.1c0.1,0,0.3,0,0.4,0
	C520.7,639.4,520.5,639.5,520.4,639.1z"/>
</svg>
