<?xml version="1.0" encoding="utf-8"?>
<!-- Generator: Adobe Illustrator 22.1.0, SVG Export Plug-In . SVG Version: 6.00 Build 0)  -->
<svg version="1.1" id="Layer_1" xmlns="http://www.w3.org/2000/svg" xmlns:xlink="http://www.w3.org/1999/xlink" x="0px" y="0px"
	 viewBox="0 0 89 90.5" style="enable-background:new 0 0 89 90.5;" xml:space="preserve">
<path shape-rendering="auto" image-rendering="auto" color-rendering="auto" d="M71.3,32.4c0.2,0.8,0.3,1.9-0.8,2.2
	c0,0.8,0.2,1.8-0.2,2.2c-0.3,0.3-1.2,0.3-1.7,0.4c-0.2,0.6-0.1,1.2-0.2,1.9c-0.1,0.5-0.9,0.5-1.4,0.4c-0.3,0.7-0.5,1.6-0.9,1.8
	c-0.5,0.2-1.5,0.1-2,0.3c0,0.5-0.1,1.3-0.7,1.4c-0.7,0.2-1.4,0-2.1,0.3c1.8,0.7,2.2,0.6,3,0.3c0.5-0.2,0.4-0.9,0.6-1.2
	c0.8-0.1,1.6-0.2,2.1-0.8c0.4-0.4,0.3-0.8,0.5-1.2c0.4,0,1.2-0.2,1.4-0.4c0.2-0.3,0.6-1.2,0.1-2.2c1.5,0.2,1.9,0.2,2.2-1
	c0.1-0.5-0.1-1-0.4-1.7c0.5-0.2,1-0.8,1-1C71.9,33.4,71.7,33,71.3,32.4L71.3,32.4z"/>
<g transform="matrix(1.0886 0 0 1.0886 -3.5562 -86.592)" shape-rendering="auto">
	<path image-rendering="auto" color-rendering="auto" d="M47.5,120.8c1,1,2.5,2.1,2.6,3.7c0,0.7-0.7,1.3-1.2,1.8
		c-0.1,0.7-0.2,1.7-0.6,2.3c-0.6,0.9-1.5,1.3-1.7,1.5c0.1,0.9,0.4,1.4,0.2,2.2s-0.8,1.9-0.9,2.5c-0.2,1.2-1.2,2.7-2.3,2.6
		c0,0.8-0.4,1.4-0.7,2c-0.5,0.9-1.2,1.5-1.9,1.9c1.5-0.2,2.7-1.6,3.1-3.4c0.7,0.3,1.3-0.5,1.7-1.2c0.4-0.6,0.7-1.5,0.9-2.2
		c0.4-1.3,1.1-2.8,0.6-4.2c0.6-0.2,1.4-0.6,1.8-1.4c0.4-0.7,0.4-1.8,0.5-2.5c0.7-0.4,1.2-0.9,1.3-1.6
		C51,123.6,49.7,121.9,47.5,120.8L47.5,120.8z"/>
	<path image-rendering="auto" color-rendering="auto" d="M39.5,122c-0.8,0.4-1.6,0.7-2.5,0.6c-0.3,0-0.7-0.1-1-0.2
		c0.8,0.8,2.4,1,3.1,0.7c0.3-0.1,0.6-0.3,1.3-0.5c1.4-0.3,2.8,0.2,3.5-0.6c-0.6-0.1-1.2,0-1.9-0.1C41.2,121.9,40.3,121.6,39.5,122
		L39.5,122z"/>
</g>
<path shape-rendering="auto" image-rendering="auto" color-rendering="auto" d="M39.9,41.8c-0.6,0-1.2,0.3-1.7,0.6
	c-0.7,0.4-1.3,0.9-1.8,1.5c-1,1.1-1.5,1-2.3,1.8c0.9-0.2,2-0.6,2.8-1.1c0.5,0.7,1.3,1.1,2.1,1.1c1.4-0.1,2.7-1.1,3.4-1.5
	c0.7-0.3,1.4-0.4,1.6-0.3c0.9,0.5,1.4,1.3,2.5,1.1c-0.9-0.6-1.4-1-2.3-1.8c-0.2-0.2-0.8-0.1-1.1,0s-0.6-0.1-0.7-0.2
	C41.9,42.2,40.9,41.9,39.9,41.8L39.9,41.8z M39.7,42.5c0.8-0.1,2,0.5,2.6,1c-0.8,0.4-2.1,1.2-3.1,1.4c-0.6,0.1-1.2-0.5-1.6-1
	C38.3,43.4,38.9,42.7,39.7,42.5L39.7,42.5z"/>
<path shape-rendering="auto" image-rendering="auto" color-rendering="auto" d="M11.8,44.6c-0.7,0.5-0.3,0.5-0.8,1.2
	c-0.2,0.4-0.6,0.5-0.6,1c0,0.6,0.4,0.9,0.8,1.1c-0.3-0.5,0.6-2.4,1.1-2.6c0.2-0.2,0.1-0.8,0.4-1.1c0.3-0.3,1-0.3,1.3-0.5
	C12.9,43,12.6,43.1,11.8,44.6L11.8,44.6z"/>
<g transform="matrix(1.0886 0 0 1.0886 -3.5562 -86.592)" shape-rendering="auto">
	<path image-rendering="auto" color-rendering="auto" d="M34.5,130.4c-1.2,0.2-2,1.1-2.7,2c-0.9,1.3-1.9,2.6-3.3,3.5
		c-0.5,0.3-1,0.6-1.5,0.8c1.1,0.5,3-0.9,3.7-1.6c0.8-0.8,1.3-1.7,2-2.6c0.5-0.7,0.9-1.1,1.8-1.4c1-0.3,1.5-0.4,2.3-0.5
		C36,130.6,35.3,130.3,34.5,130.4z"/>
	<path image-rendering="auto" color-rendering="auto" d="M34.1,133.4c-0.6,0.4-1,1.1-1.5,1.6c-0.5,0.6-1.5,1.6-1.7,2.4
		c0.8-1,1.3-1.3,2.2-2.1c0.4-0.3,0.9-1.2,1.3-1.5c0.6-0.3,1.2-0.3,1.8-0.4C35.2,133.3,34.7,132.9,34.1,133.4L34.1,133.4z"/>
</g>
<g transform="matrix(1.0886 0 0 1.0886 -3.5562 -86.592)" shape-rendering="auto">
	<path image-rendering="auto" color-rendering="auto" d="M36.1,118.4c-0.4,0.4-1.2-0.1-1.7,0.2c-1.2,0.6-3,1-3.1,1.3
		c0,0.2,0.8,0.3,1.1,0.3c1,0,1.5-1,2.5-1c0.4,0,1.2,0.5,1.4,0.2c0.7-0.8,1.4-1.9,2.4-2.2c1-0.3,1.9,0.4,2.9,0.7
		c0.4,0.1,0.8,0.7,1.2,0.5c0.8-0.3,1.8-0.5,2.6-0.1c0.8,0.3,1.5,0.8,2.3,1.1c0.7,0.3,1.4,0.4,2.1,0.6c-1.2-0.8-2.3-1.5-3.2-2.1
		c-0.5-0.3-1-0.4-1.5-0.6c-0.8-0.2-1.6-0.1-2.4,0.2c-1.1-0.6-2.3-1.2-3.6-1.3c-0.2,0-0.5,0-1.1,0.2
		C37.6,116.7,36.9,117.6,36.1,118.4L36.1,118.4z"/>
	<path image-rendering="auto" color-rendering="auto" d="M57.3,86.9c-0.8-0.2-1.4,0.2-1.4,0.8c0.5-0.3,0.9-0.4,1.2-0.3
		s0.6,0.8,0.6,1.2c0.4-0.2,1.1-0.2,1.6,0c0.4,0.1,0.9,0.2,0.5,0.9c0.9,0.5,1.1,0.3,1.9,1.1c-0.1,0.3-0.2,0.8-0.1,0.9
		c0.2,0.3,0.5,0.1,0.9,0.3c0.2,0.4-0.2,0.9-0.5,1c0.2,0.2,0.9,0.9,0.8,1c-0.1,0.2-0.7,0.3-0.7,0.8c0,0.4,0.5,1.2,0.4,1.4
		c-0.2,0.6-1.2,0.5-1.8,1c-0.6,0.4-0.3,1.5-0.6,1.8c-0.1,0.1-0.9,0-1.2,0.1c-1,0.4-0.9,0.7-1.3,1.3c-0.2,0.1-1.4,0.4-1.6,0.5
		c-0.4,0.3-0.4,0.7-0.7,1.4c-0.4,0.1-1.3,0.2-1.6,0.4c-0.7,0.5-0.7,1.2-0.7,1.7c-0.5,0.1-1.5,0.5-1.8,0.7c-0.5,0.5-0.6,1.3-0.8,1.9
		c-0.5,0.2-1.6,0.4-2,0.9c-0.3,0.4-0.3,1.3-0.2,1.9c-0.6,0.5-1,0.7-1.4,1.6c-0.2,0.5,0,1.7,0.5,2.5c0-1.2-0.4-1.7,0.2-2.4
		c0.4-0.5,1-1,1.5-1.3c-0.2-0.6-0.4-1.5,0-1.8s1.6-0.6,2-0.7c0.3-0.8,0.2-1.1,0.6-1.9c0.4-0.7,1.2-0.6,1.8-0.7
		c0.1-0.6,0.1-1.4,0.5-1.8c0.3-0.3,1.4-0.4,1.8-0.4c0.1-0.6,0.2-1.1,0.6-1.4c0.2-0.1,1.3-0.5,1.6-0.4c0.6-0.5,0.1-0.8,0.9-1.2
		c0.6-0.3,1.8,0.2,2.1-0.1c-0.1-0.6-0.2-1.5,0.3-1.9c0.5-0.5,1-0.7,1.8-1.1c0.2-0.4-0.5-1.1-0.4-1.6c0.1-0.2,0.7-0.7,0.8-1
		c0.1-0.2-0.4-0.8-0.9-0.9c0.3-0.4,0.6-1,0.5-1.3c-0.1-0.4-0.7-0.4-1-0.6c0.1-0.5,0-1-0.3-1.3c-0.5-0.3-1.3-0.2-1.3-0.6
		c0.1-0.4-0.1-0.8-0.5-1c-0.6-0.3-1.5-0.5-2.2-0.2C58.1,87.3,57.7,86.9,57.3,86.9L57.3,86.9z"/>
	<path image-rendering="auto" color-rendering="auto" d="M65.4,91.4c0.3,0.4,0,1.4,0.2,1.7c0.2,0.2,0.5,0.6,0.5,0.8
		c0.1,0.5-0.3,0.8-0.9,1.1c0.5,0.6,1.1,0.9,1.1,1.9c-0.1,1.4-1.7,1.5-2.2,2.2c-0.7,0.9-0.1,1.4,0.2,2.1c-0.6-0.1-1.4-0.3-1.8,0.4
		c-0.3,0.6-0.3,1.3,0.1,1.9c-0.7,0.1-1.1-0.5-1.7,0.4c-0.5,0.7-0.2,1.2,0,1.7c-0.7,0-1.1-0.8-2,0.2c-0.7,0.8-0.1,1.6,0.1,2.1
		c-0.5-0.2-1-0.8-1.9,0.1c-0.6,0.6-0.3,1-0.1,1.6c-0.6-0.2-1.1-0.4-2,0.5c-0.8,0.8-0.7,1.7-0.4,2.4c-0.4-0.1-1.7-0.6-2.3-0.2
		c-0.7,0.5-0.9,1.7-0.5,2.4c0.3-0.9,0.5-1.2,0.9-1.7c0.5-0.6,1.7,0,2.4,0.1c0.1-0.9-0.2-2.3,0.9-2.4c0.7-0.2,0.9-0.5,1.5-0.6
		c0.1-0.4-0.2-1.1,0-1.5c0.3-0.4,1.2-0.4,1.7-0.3c0.5,0,0.1-1.3,0.3-1.7c0.5-0.7,0.9-0.3,1.9-0.8c0.1-0.4-0.1-1,0.1-1.4
		c0.2-0.3,1.2-0.5,1.7-0.5c-0.4-0.5-0.3-1.6-0.1-1.9c0.3-0.4,1.3-0.3,1.8-0.5c-0.4-0.8-0.5-1.2-0.1-1.8c0.3-0.5,0.9-0.4,1.4-0.9
		c0.5-0.6,1-0.8,0.9-1.7c-0.1-1.2-0.4-1.8-0.9-2c0.3-0.3,0.9-0.9,0.9-1.5c0-0.3-0.2-0.7-0.7-1c-1-3.5-2.4-2.5-2.8-2.4
		C64.6,90.4,65,90.7,65.4,91.4L65.4,91.4z"/>
	<path image-rendering="auto" color-rendering="auto" d="M43.3,105.5c-0.5,0.5-0.4,1.3-0.4,2c-0.6,0.2-1.4,0.3-1.7,1
		c-0.2,0.3,0,1.2,0.2,1.9c-0.6,0.2-1.6,0.1-1.8,0.9c-0.2,0.7,0.2,1.5,0.7,2.5c-0.2-1-0.4-1.7-0.2-2.3c0.2-0.8,1.2-0.7,1.7-0.9
		c-0.1-0.6-0.2-1.5,0.2-2c0.3-0.5,0.9-0.6,1.4-0.8c-0.1-0.7,0.1-1.3,0.5-1.8c0.4-0.4,1.2-0.5,1.6-0.6c0.1-0.7,0.3-1.4,0.9-1.8
		c0.4-0.2,0.9-0.3,1.1-0.1c-0.7-0.6-1.3-0.3-1.7-0.1c-0.6,0.3-0.7,1.1-0.6,1.6C44.5,105,43.8,105,43.3,105.5L43.3,105.5z"/>
	<path image-rendering="auto" color-rendering="auto" d="M49.2,114.3c-0.4,0-0.7,0.4-1.1,0.4c-0.6,0-1.2-0.4-1.8-0.2
		c-0.4,0.1-0.7,0.6-1.1,0.7c-0.6,0.1-1.3-0.2-1.8,0.1c-0.4,0.2-0.7,0.6-1,1c0.9-0.5,1.4-0.7,1.9-0.6c0.4,0.1,0.8,0.6,1.2,0.4
		c0.5-0.3,0.6-1.1,1.2-1c0.4,0,1.1,0.6,1.5,0.6c0.3,0,0.7-0.6,0.9-0.7c1.1-0.4,0.9-0.3,1.8-0.2C50.4,114.4,49.8,114.3,49.2,114.3
		L49.2,114.3z"/>
	<path image-rendering="auto" color-rendering="auto" d="M71.4,112.4c-1.2,1.6-0.1,3.1-0.8,4.6c-0.6,1.5-1.9,2.4-2.5,2.8l-1.8,1.3
		c2.2-0.5,3.7-1.6,4.6-3.1c0.5-0.9,0.1-2.6,0.3-4.2L71.4,112.4z"/>
</g>
<path shape-rendering="auto" image-rendering="auto" color-rendering="auto" d="M15.9,42.1c-0.2,0.7,0.4,0.9,0.9,1.4
	c0.7,0.8,1.1,0.9,2.3,1.1c0.8,0.1,0.8-0.4,0.9-1.1c0.1-0.8-0.3-1.4-0.9-1.8c-0.8-0.6-1.5-0.4-2.4-0.2C16.3,41.5,16,41.7,15.9,42.1
	L15.9,42.1z M17,42.3c0.1-0.4,0.6-0.1,1-0.1c0.6,0,0.9,0.3,1.2,0.9c0.1,0.3,0,0.4-0.3,0.6c-0.6,0.3-0.8-0.1-1.3-0.5
	C17.1,42.9,16.8,42.7,17,42.3L17,42.3z"/>
<path d="M40.8,43.7c0,0.5-0.4,1-0.9,1.1s-1-0.2-1.2-0.7s0-1.1,0.4-1.4c0.4-0.3,1-0.3,1.4,0.1c-0.9,0.3-0.9,0.6-1,0.9
	C40,43.6,40.4,43.4,40.8,43.7L40.8,43.7z"/>
<g>
	<path shape-rendering="auto" image-rendering="auto" color-rendering="auto" d="M112.7,60.7c-0.4,0-0.8,0.2-1.2,0.4
		c-0.5,0.3-0.9,0.6-1.2,1c-0.7,0.8-1,0.7-1.6,1.2c0.6-0.1,1.4-0.4,1.9-0.8c0.3,0.5,0.9,0.8,1.4,0.8c1-0.1,1.9-0.8,2.3-1
		c0.5-0.2,1-0.3,1.1-0.2c0.6,0.3,1,0.9,1.7,0.8c-0.6-0.4-1-0.7-1.6-1.2c-0.1-0.1-0.6-0.1-0.8,0c-0.2,0.1-0.4-0.1-0.5-0.1
		C114,60.9,113.3,60.7,112.7,60.7L112.7,60.7z M112.5,61.2c0.6-0.1,1.4,0.3,1.8,0.7c-0.6,0.3-1.4,0.8-2.1,1
		c-0.4,0.1-0.8-0.3-1.1-0.7C111.5,61.8,112,61.3,112.5,61.2L112.5,61.2z"/>
	<path d="M113.3,62c0,0.3-0.3,0.7-0.6,0.8c-0.3,0.1-0.7-0.1-0.8-0.5c-0.1-0.3,0-0.8,0.3-1s0.7-0.2,1,0.1c-0.6,0.2-0.6,0.4-0.7,0.6
		C112.7,61.9,113,61.8,113.3,62L113.3,62z"/>
</g>
<g>
	<path shape-rendering="auto" image-rendering="auto" color-rendering="auto" d="M-19.8,55.5c-0.4,0-0.8,0.2-1.2,0.4
		c-0.5,0.3-0.9,0.6-1.2,1c-0.7,0.8-1,0.7-1.6,1.2c0.6-0.1,1.4-0.4,1.9-0.8c0.3,0.5,0.9,0.8,1.4,0.8c1-0.1,1.9-0.8,2.3-1
		c0.5-0.2,1-0.3,1.1-0.2c0.6,0.3,1,0.9,1.7,0.8c-0.6-0.4-1-0.7-1.6-1.2c-0.1-0.1-0.6-0.1-0.8,0s-0.4-0.1-0.5-0.1
		C-18.5,55.7-19.2,55.5-19.8,55.5L-19.8,55.5z M-20,55.9c0.6-0.1,1.4,0.3,1.8,0.7c-0.6,0.3-1.4,0.8-2.1,1c-0.4,0.1-0.8-0.3-1.1-0.7
		C-21,56.6-20.5,56.1-20,55.9L-20,55.9z"/>
	<path d="M-19.2,56.8c0,0.3-0.3,0.7-0.6,0.8c-0.3,0.1-0.7-0.1-0.8-0.5c-0.1-0.3,0-0.8,0.3-1s0.7-0.2,1,0.1c-0.6,0.2-0.6,0.4-0.7,0.6
		C-19.8,56.7-19.5,56.6-19.2,56.8L-19.2,56.8z"/>
</g>
<path shape-rendering="auto" image-rendering="auto" color-rendering="auto" d="M47.3,2.8c-0.2,1.2,0.2,3-0.3,3.4
	c-0.7-0.5-1.8-2.8-3.6-2.6c-0.2,1.3,0.1,2.4-0.2,3.2C42,5.3,39.9,3.7,39.6,4c0.5,0.9,0.1,2.6,0.2,3.3c-1-0.7-3.8-2.3-4.4-2
	c0.6,1,0.5,2.6,0.8,3.5c-0.8-1.3-4.5-2.2-5.2-1.4c0.3,0.7,2.2,2.5,2.2,3.4c-1.3-2.3-5.2-2.5-6-1.7c0.6,0.8,0.8,1.4,1.8,2.7
	c-0.4-0.9-4.6-1.8-5.6-1.2c0.3,1,2,1.9,2.1,2.6c-1.3-0.3-4.8-2-5.6-1c0.9,1.1,1.6,1.8,2,2.7C21,15.1,18,13.2,16,13.8
	c0.3,0.4,1.9,3.1,1.9,3.2c-1.3-0.3-3.9-2.6-4.8-2c0.7,0.7,0.9,2,1.1,2.8c-0.6-0.7-2.9-1.7-4.1-1.5c0.1,0.8-0.5,0.6-0.8,1.9
	c-0.5-0.1-2.2-1.7-3.7-1.7c0,0.4-0.5,2.3-0.7,2.3c-0.8,0.3-1-0.2-2.3-0.4c-0.3,2.7,1.5,4.9,2.6,5.4c2.1,1,5.4,0.9,7.8,2
	c3.8,2,8.5,0.9,12.7,0.3S32,20,36.6,19.9c4.2-0.1,7.6-2.5,11.8-1.8c2.1-0.6,6.6,0.1,6.8,1.2c0.1,0.5-0.9,1.4-2.6,2
	c-1.6-1-3.9-1.3-5.5-0.7c-2.1,0.8-3.3,3-3.9,4.7c-2.7,1.2-4.6,3.4-6.1,5.8c-1.1,1.8-1.7,2.8-2.4,4.8c-0.1,0.4-0.6,1.7-0.8,1.9
	c-0.6,0.3-1.8,0-2.9,0.2c-0.7,0.1-1.5,0.4-1.9,1.3c-1.5,2.8-6.7,3.3-8.6,0.6c-0.2-0.3-2.4-1.4-4.5-1.3c-1.5,0.1-2.9,0.9-3.5,2
	c-2.8,1-2.9,2-3.7,3.2c-2.4,1.6-1,3.5,0.1,4.2c1.2,0.7,3.1,1.2,3.9,1.8c1.7,1.7,4.9,0.3,7.6,0.9c1.1,0.3,2.7-1,3.7-1.4
	c0.8-0.3,1.5-0.1,1.5,0.2c-0.5,0.6-0.6,1.2-1,1.6c-0.7-0.1-1.3-0.5-1.9,0c-0.1,0.2-0.5,0.3-0.6,0.3c-0.6,0-1.5-0.2-2.1-0.1
	c-1,0.3-2.1,0.6-2.7,1.7c0.3,0.1,1.6,0,1.9,0.1c-1.2,0.3-3.3,0.9-3.9,2.3c1.2-0.1,3.4-0.2,3.6-0.2c-0.5,0.4-1.8,1.8-1.6,2.5
	c0.9-0.2,2.4-0.4,3.7-0.6c-2,1.3-3.1,3.1-4.9,4.7c-2.5,2.1-6.6,3.9-5.8,7.8c0.6,1.2,1.4,2.5,2.4,3.3c1.7,1.3,3.9,1.7,6.1,1.6
	c3.6-0.2,6.7-2.5,10.4-1.7c3.6,0.9,7-0.6,10.4-1.2c2.9-2.3,5.1-2.2,8.9-1.9c4.3,0.4,6.9-4,10-6.1c1.6,0.8,5.1-2.2,5.4-2.1
	c2,0.2-0.8,1.6-1.5,2.6c-0.9,2.1-0.4,4.5-1,6.3c-0.3,0.9-1.2,1.5-2.1,2.1c-2.1,1.6-5.2,6.2-3.1,8.4c0.9-1.3,2.5-1.5,3.9-1.9
	c1-0.3,2-1,2.7-1.2c-0.4,2-0.3,2.3-0.5,4.3c0.2,2.3,1.1,3.9,1.4,5.5c0.6-0.8,2.4-2.5,3.4-4.1s1.2-3.6,1.5-4.4
	c1.6,0.9,2.1,0.9,3.1,2.3c0.9,0.8,3,3.1,3.9,4c1.3-2.1,0.5-4.9,0.5-5.6c1.7,0.1,2.1,1.1,3.7,1.5c0.1-2-1.3-4.7-2.6-5.6
	c0.4-0.2,0.6-0.3,1.2-0.2c0.7,0.1,2.1,0.9,2.5,0.9c-0.3-2.6-2.8-4.9-5.2-5.3c-2.9-1.4-0.4-2.8,0.7-4.5c2.4-3.3,3.2-7.7,2-11.6
	c0.3-3.4-2.9-5.5-4.7-6.8c2.6-1.3,3.7-4.2,3.7-7c0.5,0.8,1.3,1.6,1.6,1.5c0.2-0.8,0.2-1,0.5-2.8c0.6,0.9,2.3,1.7,2.7,1.5
	c0.6-0.3,0.2-2.9-0.3-4.1c1.6,0.1,2.8,0.7,4,1c0.1-1.1-1-2.8-1.5-3.3c-0.8-1-3.3-1.7-4.7-1.7c0.2-0.9,0.6-2.4,0.5-3.5
	c-0.3-3.2-3-4.3-5.6-5.1c0.5-1.9-0.1-3.8-0.6-5.8c-0.5-2.3-0.8-6-2.5-7.8c-0.4-0.4-1.2-0.2-1.9-0.4c0.3-1.8-0.1-2.3-0.8-2.9
	c-0.6-0.5-1.2-0.4-2.2,0.4C67.2,7,66.2,6,65.3,5.7c-0.5-0.2-1.7,0.1-2.1,1.3c-0.1-1-1-2-1.9-2.2s-1.9,0.6-2.1,1.6
	C59,5,57.6,3.9,56.6,4c-0.9,0.1-0.8,1.3-1.1,2.1c-0.5-1.1-2.1-2-2.8-2c-0.9,0.1-0.9,1.3-1.2,1.9C50.8,5.1,48.9,2.7,47.3,2.8
	L47.3,2.8z M48.4,4.5C49.7,5,51,6.8,51.7,7.6c0.7-0.7,0.6-1.7,1.2-1.8c1.3,0,2.1,1.3,3,1.3c0.5-0.5,0.6-1.7,1.3-1.8
	c0.9-0.1,1.5,2,2,2c0.7-0.5,1.2-1.6,1.8-1.5c0.4,0,1.1,1.4,1.2,2.4C63.4,8.9,64.4,6.8,65,7c1.1,0.4,1.5,0.8,1.6,2.4
	c0.5-0.3,1.3-1.2,1.8-0.8c0.5,0.3,0.6,1.9,0.3,3.3c1.1-0.4,1.8-0.3,2.3,0.2c0.6,0.6,0.8,1.7,0.5,3.1c-0.4,0.7-0.5,1.8-0.2,2.6
	c0.4,1.1-0.1,2.5-1.1,3.2c-1.2,0.8-0.1,2.5-1.2,3.5c-0.6,0.6-0.3,1.6-0.6,2.7c-0.2,0.6-0.7,0.8-0.9,1.4c-0.2,0.4-0.3,1.2-0.4,1.8
	c-0.6,0-1.6,0.4-1.8,0.9c-0.2,0.5-0.2,1.1,0.1,1.6c-0.6,0-1.4,0.1-1.7,0.4c-0.4,0.6-0.3,1.5-0.3,2c-0.7-0.1-1.5,0.2-1.9,0.6
	c-0.6,0.6-0.7,1.4-0.9,2c-0.5-0.2-1.3-0.3-1.7,0c-0.5,0.4-0.7,1.2-0.9,1.7c-0.8-0.4-0.8-0.7-1.7-0.7c-0.7,0-1,0.4-1.6,1.2
	c-0.7-0.2-1.5-0.8-2.4-0.6s-1.9,1.3-2.2,2.1c0.9-0.7,1.5-1.2,2.5-1.4c0.9-0.1,1.4,0.4,2.4,1c0.4-0.8,0.8-1.2,1.5-1.5
	s1.1,0.4,1.7,0.9c0.3-0.5,0.7-1.7,1.2-2.1c0.5-0.4,1.1,0,1.8,0.4c0-0.8,0.7-1.7,1.1-2.4c0.6-0.4,1.6-0.6,2.3-0.4
	c-0.4-0.9-0.2-1.9-0.1-2.2c0.3-0.6,0.7-0.7,1.8-0.4c-0.4-0.9-0.6-1.1-0.3-1.8c0.4-0.9,1.5-0.5,2.2-0.5c-0.3-0.6-0.6-1.1,0-1.8
	c0.4-0.4,0.3-1,0.6-1.5c0.6-0.9,0.1-1.7,0.4-2.7c0.2-0.7,1.4-1.1,1.3-1.8c-0.1-1,0-1.9,0.9-2.5c1-0.7,1.1-2.4,0.8-3.6
	c-0.1-0.4,0-1.7,0.3-2.2c1.1,1.9,0.1,5,1.1,6.8c0.5,1,0,1.5-0.3,2.2c-1-0.1-2.2,0.6-2.9,1.2c-1,0.9-0.3,2.3-0.2,3.5
	c0.6-0.9,0.1-1.6,0.5-2.2c0.2-0.3,0.4-0.8,0.7-0.9c0.7-0.2,0.7-0.3,1.4-0.2c0.2,0,0.8-0.2,1.2-0.3c1.4,2.1,4.5,0.4,4.7,3.4
	c1.8,1.5-0.3,5.1,0,5.6c1.2-0.4,2.5-0.3,3.5,0.1c-0.1,0.1-0.3,0.3-0.4,0.5c-0.1,0.4-0.3,0.7-0.3,1.1c-0.5-0.3-2-0.8-2-0.6
	c0.2,0.4,0.6,0.5,0.9,0.6c0.3,0.2,0.5,0.4,0.6,0.5c-0.7,0-1.4,0.6-1.5,1.3c0,0-0.8-0.5-0.9-0.8c-0.3-0.1-0.4-0.1-0.4,0.1
	c0.1,0.3,0.9,1.1,0.8,1.3c-0.2-0.2-0.3-0.3-0.6-0.3c-0.6-0.1-1.1,0.3-1.5,0.9c0-0.1,0-0.3,0-0.4c0.2-1.1-0.4-2.8-1.4-3.9
	c0.6,0.6,1.8,0.3,2-0.1h-1c-0.5,0-1.2-0.6-1.5-0.9c-0.4-0.6-0.5-1-1.1-1.5c-0.4-0.3-1.5-0.9-2.5-1.5c1,1.1,2.4,2.5,3.2,3.7
	c0.6,0.9,0.8,1.9,1.1,2.9c0.2,0.5,0.5,1.1,0.4,1.6c0,0.5-0.4,1.3-0.3,2c0.4,3.4-2.6,4-3.8,6.6c-2.2-0.6-3.8-1-6.1-0.9
	c-0.9,0-2.5,0.3-3.4,0.7c-0.8-0.4-1.5-0.6-2.3-0.7c-0.8-1.1-1.6-2.2-2.6-3.1c-0.6-0.5-1.3-0.9-2-1.1c-1.2-0.2-2-0.5-3.9,0.6
	c1.4-0.2,2.8-0.2,4,0.4c0.7,0.4,1.4,0.8,1.9,1.4c0.6,0.6,1.1,1.3,1.6,2c-0.2,0.1-0.3,0.2-0.5,0.4c-0.6,0.6-0.4,1-0.1,2.3
	c0.2-1.2,0.8-1.8,1.3-2c1,0,2.2,0.3,2.7,1c1.5-0.7,3.2-1,4.8-0.7c1.6,0.4,3.3,0.7,4.8,1.3c0.9,0.4,2.3,0.9,2.9,1.8
	c2.1,2.8,2.9,6.9,2.1,10.4c-0.7,3-2.6,5.6-5,7.5c-1.3-0.3-2.7-1.3-4-1.1c-1.4,0.2-2.3-0.1-4,1.9c1.3-0.8,2.7-1.3,4.1-1.1
	c1.2,0.1,2.5,0.7,3.6,1.1c1.7,0.6,2.3,2.2,4.1,2.6c-0.2,0.4-0.4,2,0.3,2.7c-0.4-0.2-2.1-0.4-2.4-0.6c0-1.5-1-2.1-2-1.6
	c0.2,0.2,0.8,0.4,1,0.5c0.3,0.2,0.4,1.1,0.5,1.4c0.8,0.4,2,0.4,2.6,0.9c0.2,0.3,0.6,1,0.8,1.4c-0.6,0.1-0.9,0.2-1.1,0.8
	c-0.1,0.5-0.4,1.1-0.5,1.3c-0.3-0.2-0.6-1-0.9-1.1c-0.4-0.7-1-1.4-1.7-1.8c-0.2-0.1-0.5,0-0.7-0.2c-0.7-0.5-0.9-1.3-1.8-2.1
	c0.4,0.7,0.6,1.6,1.1,2.2c0.1,0.2,0.3,0.4,0.5,0.6c0.4,0.3,0.7,0.3,1.1,0.8c0.3,0.3,1,0.8,1.2,1.1c-0.8,0.3-1.7,1-1.7,1.9
	c-1.6-1.1-3.1-2.8-4.6-1.7c0,0.8-0.3,1.6-0.7,2.3c-0.3-0.7-0.7-1.3-1.5-1.5c-0.6-0.1-1.5,0.1-2,0.4c-0.4-0.5-0.1-2.4,0.3-3.3
	c-1.2,0.1-1.9,0.8-3.5,1.4c0-0.7-1-2.3-1.4-2.7c0.4-0.3,1.1-0.9,1-1.3c2.8-0.5,1.6-3,3.2-4.6c-1.4-2.9,1.2-5.3,2-6.8
	c0.8-1.5,1.9-2.4,3.1-3.4c0.4-0.3,2.1-0.9,2.5-1.1c-1.7-0.8-3.7,1.1-4.3,1.7c-0.4,0.5-0.8,1-1.1,1.5c-0.6-0.5-1.1-0.6-1.7-0.4
	c-0.2-1.1-0.3-2.1-0.4-3.2c-0.1-0.7-1.1-1.3-0.8-2c0.1-0.3,0.4-1.8,0.2-1.9c-0.1-0.1-0.6,1.1-0.7,1.2c-0.7,0.8,0.3,1.9,0.6,2.8
	c0.2,0.5-0.1,0.9,0,1.4c0,0.3,0.2,1.2,0,1.2c-0.8-0.3-1.2-0.4-1.5-1.1c-0.3-0.6-0.2-2-0.5-3.1c0,0.7-0.5,2.4-0.3,3.2
	c0.5,1,1.3,1.5,2.1,2.1c-1.1,0.7-2.2,1.5-3.6,1.2c0.2-0.8,0.3-1.6,0-2.4c-0.2-0.6,0.2-1,0.5-1.4c0.5-0.8,0.4-1.7,0.6-2.6
	c0.1-0.6,0.8-1.1,0.8-1.8c0-1.5-0.6-1.7-1.5-2.9c0,1,0.9,1.9,0.6,2.9c-0.1,0.5-0.6,0.9-0.8,1.4c-0.2,0.7,0.2,1.6-0.3,2.3
	c-0.3,0.4-0.7,0.7-0.9,1.2c-0.3,0.8,0.4,1.2,0.3,2c0,0.4-0.9,1.3-0.8,2.2c-2.5,1.5-4,4-7.2,4.8c-3.1,0.7-6.6-1.7-9.2,1.1
	c-3.3,1.7-7.3,2.7-11,2.3c-0.7-0.3-1.4-0.4-2.2-0.3c0.3-0.4,0.6-0.7,0.9-1c0.4-0.3,1.4-0.1,1.9-0.6c0.5-0.6,1.2-1.1,2-1.3
	c0.9-0.3,2-0.1,2.8-0.3c0.9-0.3,2.7-0.9,3.8-1.7c1.4-1.1,1.7-2.6,1.7-2.6s1.3,0,1.8-0.6c0.7-1.2,1.7-3,1.1-3.9
	c-0.1,0.9-0.7,2.4-1.4,3.2c-0.6,0.7-1.3,0.7-2,1c-0.3,0.6-0.4,1.3-0.8,1.6c-1.3,1.2-2.6,1.8-4.3,2.3c-1.3,0.4-3,0.3-4.2,1
	c-0.8,0.4-1.4,1.2-2.3,1.4c-1.1,0.2-1.4,1.7-2.6,1.9c-1.3,0.3-2.7,0.6-4.2,0.1c-2.5,2.6-6,1.6-8.5,0.2c-1.4-0.8-2.1-3.2-1.3-4.4
	c0.2,0.6,0.7,1.4,1.1,1.7c0.5,0.9,1.1-0.3,1.8,0.2c1.2,0.3,2.4,0.9,3.5,1.5c0.2-1,1.4-1.2,2.2-0.6c0.7-1,0.7-1.5,1.4-2.6
	c0.9-0.7,2.8,0.7,3.6-0.6c0.8-0.1,1.9,0.2,2.3-0.8c0.9-1.3,2.2-0.2,3.3-0.7c1.3-0.2,2.4-1,3.2-1.9c1.1-1.3,2.1-3,4-3.2
	c0.9-1.3,1.3-2.9,2.8-3.7c0.8-0.2,1.1-1.9,1.1-2.7c0.6-1,1.2-0.7,2.1-1.1c0.5-0.5,2.1-0.7,2.8-0.7c-0.8-0.5-2.2-0.4-3.5-0.2
	c-0.3,0.2-0.9,0.2-1.3,0.5c0.1-0.4,0-0.6-0.2-1c0.5-0.1,1-0.5,1.3-0.8c0.8-0.6,1.2-1.5,1.9-1.8c0.4-0.1,0.8,0.1,1.4,0.4
	c0.5,0.2,0.8,0.6,2,1.5c-0.1-0.9-0.7-1.6-1.1-1.9c-0.5-0.4-1.3-0.8-2.3-0.9c-1-0.1-1.3,1-1.9,1.6C43,50.1,42,50.2,41.2,50
	c-1.8,0.4-1.8,0-3.1,0.1c-1,0-2.2-0.6-3-1c-0.7,0.4-1.5,1-2.2,1.4c-0.8,0.3-1.2,0.7-2,0.1c-0.2-0.2-1.3-1.1-1.9-1.3
	c-0.4-0.1-1.5-0.1-2-0.2c-1.6-1.1-4.7-1.4-6,0.6c-3-0.4-5.4,0.4-7.6-1.4c-1.7,0.1-4.3-1-4.5-2.1c-0.1-0.4,1.1-0.9,1.7-1.5
	c0.6-2.1,3.2-2.9,4.7-4.1c2.2,0,5.5-0.1,6.1,2.7c1.6,0.6,4.2,0.1,5.8-0.7c2.4,0.7,3.1-2.4,4.6-3.1c0.6-0.3,1.3-0.2,2.3,0.6
	c0.7-0.5,1.4-0.7,2.2-0.8s1.8,0.1,2.3,0.5c0.4-0.6,0.9-1.1,1.7-1.2c0.9-0.2,2,0.4,2.5,0.5c0-0.5,0.1-1.1,0.4-1.4
	c0.3-0.2,1.1-0.3,1.4-0.3c-0.1-0.7-0.4-2.3,0-3.2c0.2-0.6,1.2-0.9,1.4-1.4c0-0.6-0.3-1.3,0-1.9c0.3-0.5,1.1-0.5,1.4-0.9
	c0-0.7-0.1-1.4,0.3-2c0.4-0.5,1.2-0.7,1.6-1.1c0.2-0.7,0.3-1.6,1-2c0.6-0.3,1.2-0.3,1.9-0.4c-0.1-0.5,0-1.4,0.8-1.7
	c0.6-0.7,1.7-1.3,3-2.1c1.2-0.8,2.3-1.9,2.9-3.3c-0.2-0.7,0.2-1.2,0.4-1.8c0.2-0.5,0.3-0.7,0.4-1.2c0.3-1.4-0.5-2.7-1.1-4
	c-0.3,0.4-0.5,0.8-0.8,1.2c-0.3-1-1-2.2-2.3-2.2c-0.4,0-0.8,0-0.6,0.5c0.3,1.1-0.7-0.4-1.1-0.6c-0.6-0.5-1.4-1.3-2.2-0.9
	C51,8.7,51.8,10.3,51,9.6C50.1,9,49.2,8.3,48.1,8c-0.5-0.1-1.5,0.1-1.3,0.7c0.1,0.5,0,0.8,0,1.1c-1.1-0.7-1.7-1.1-3-1.3
	c-0.4-0.1-2,0.2-1.5,0.5c0.4,0.3,1.2,1.6,0.3,1c-1.3-0.6-2.4-1-3.8-0.9c-0.1,0.9-0.5,1.9-0.6,2.1c-0.4-0.1-0.9-1-1.2-1.3
	c0.6-0.6,0.4-2,0-3c1-0.1,2,0.7,2.8,1.5c1.3-0.3,1.2-2.3,1-2.9c0.9,0.3,1.6,1.9,2.4,2.7c1.1-0.3,0.7-2.9,1.1-3.1
	c0.7,0,1.4,1.5,3.3,2.4C48.4,6.7,48.5,5.8,48.4,4.5L48.4,4.5z M32.6,7.9c1.5,0.5,2.7,1.2,3.6,2.2c0.7,0.8,1.5,1.8,2.6,2
	c0.4-0.8,0.8-1.7,0.7-2.3c0.8,0.1,3.3,0.9,4.1,1.2c-0.7,0.4-1.4,0.5-1.9,1.2c-0.2,0.3,0,1.6-0.1,2c0,1-0.9,1.8-0.5,2.7
	c0.1,0.3,0.3,0.6,0.4,0.9c-1.8,0.6-3.8,0.8-5.8,1c0.3-1.2,0.5-2.5,0.2-3.8c-0.1-0.4-0.1-0.9-0.4-1.2c-0.6-0.7-1.3-1.5-1.1-2.4
	C34.4,10.6,34,9,32.6,7.9L32.6,7.9z M48,8.6c0.3,0,0.7,0.3,0.9,0.4c1,0.4,1.3,1.2,2.2,1.7c0,1-0.5,2-1.1,2.8
	c-0.2,0.3-0.4,0.5-0.6,0.8c-0.4,0.6-0.5,1.5-0.2,2.1c0,0.1,0.1,0.2,0.2,0.3c-1.8,0.1-3.6,0.4-5.5,0c-0.5,0.3-1.1,0.6-1.7,0.8
	c-0.1-0.5-0.5-1-0.6-1.5c-0.1-0.7,0.6-1.2,0.5-1.9c-0.1-0.8-0.3-1.4-0.1-1.6c0.1-0.2,2-1.1,2.2-1.5c-0.1-0.6-0.2-0.6-0.6-1
	c-0.2-0.2-0.6-0.4-0.7-0.8c1.5-0.4,3.6,1.3,4.4,1.7c0.2-0.4,0.1-0.4,0.2-1.1c-0.1-0.4-0.4-1,0-1.2C47.8,8.6,47.9,8.6,48,8.6L48,8.6z
	 M52.5,9.3c0.9,0.5,1.5,1.5,2.3,2.1c0.6,0.5,1.3-0.2,1.1-0.9c0.9,0.3,0.8,1.5,1.4,2c0.6,0.6,1.1-0.9,1.3,0.2
	c0.4,0.7,0.2,1.5-0.1,2.2c-0.2,0.6-0.2,0.7-0.5,1.2c-0.1,0.9-0.2,1.7-0.8,2.4c-0.2,0.3-0.4,0.5-0.6,0.7c0-0.6-0.5-1.3-1.8-1.7
	c-1.4-0.7-2.9-0.8-4.3-0.7c-0.2-0.3-0.4-0.6-0.5-0.9c-0.1-0.5,0.2-1,0.5-1.4c-0.1,0.1,0.2-0.2,0.3-0.3c0.7-0.9,1.3-2.1,1.3-3.3
	C52.5,10.5,52.3,9.4,52.5,9.3L52.5,9.3z M30.1,9.8c0.2,0,0.5,0,0.9,0.2c0.8,0.4,1.3,0.8,2,1.7c0.5,0.8,1,2,1.4,2.4
	c0.3,0.4,0.5,1.2,0.6,1.2c0.4,1.5,0.1,2.6-0.3,3.8c-1.9,0.5-3.4,1.8-5,3c-0.1-0.2-0.2-0.4-0.3-0.5c-0.2-0.4-0.4-0.9-0.5-1.4
	c-0.2-1,0.3-1.9,0.2-2.9c0-1-0.8-1.9-1.5-2.5s-1.4-2.2-1.9-3c0.9-0.2,4,1,4.8,1.8c0.5-1.1-0.9-2.5-1.4-3.7
	C29.6,9.9,29.9,9.8,30.1,9.8L30.1,9.8z M22.6,13.3c0.5,0,2.6,0.6,3.3,0.9c0.7,0.3,1.3,1.4,1.6,1.8c0.4,0.4,0.7,0.8,0.7,1.4
	c0,1-0.5,2.1-0.1,3.1c0.2,0.7,0.4,1.5,0.9,2.2c-0.9,0.7-1.6,1.7-2.7,1.9c-2.4,0.6-5.2,0.8-7.6,0.6c0.3-0.6,0.8-1.9,0.7-2.6
	c0-0.7-0.3-1.3-0.6-1.9c-0.4-0.9,0-1.7,0.3-2.6c0.3-0.7-0.3-1.6-0.9-3.1c1.4,0.1,3.8,1.3,5.7,1.5C23.8,15.8,23.2,14.2,22.6,13.3
	L22.6,13.3z M15.4,16.5c0.6,0.8,2.2,1.4,2.9,1.5c-0.2,0.7-0.4,1.4-0.4,2.1c0,0.4,0.2,0.9,0.4,1.2c0.5,0.8,0.3,1.8,0.1,2.5
	c-0.2,0.7-0.9,0.9-1.4,1.2c-1.7,0.1-3.1-0.4-4.4-0.9c-1.8-0.7-3.6-1-6-1.5c-1-0.2-2.8-1.2-2.3-2.4c0.2-0.4,2.3,0.3,2.3,0.1
	c0.1-0.8,0.1-1.8,0.6-1.9c0.8-0.1,2.4,1.6,3.1,1.5c0.9-0.2,0.8-1.2,1.1-2.5c1.3,0.7,2.6,1.3,4.2,2.1C15.5,18.8,15.6,17.6,15.4,16.5
	L15.4,16.5z M49.3,21.5c1.1,0,2.2,0.4,3.1,0.6c-0.4,0.6-0.6,0.8-0.8,1.8c-0.5,0.1-2,0.2-2.2,0.6c-1.5-0.2-3.4-0.1-4.5,0.5
	c0.2-0.6,0.8-1.4,1.2-1.8C46.7,22.4,48.3,21.6,49.3,21.5L49.3,21.5z M48.1,25.4c0.3,0,0.6,0,0.8,0.1c-0.1,0.3-0.2,0.6-0.2,0.8
	c-0.6,0.3-1.3,0.7-1.6,1.3c-0.2,0.3-0.3,1.2-0.2,1.8c-0.5,0.2-1,0.6-1.4,1.2c-0.3,0.5-0.1,1.3-0.1,1.9c-0.8,0.5-1.1,1.1-1.2,1.3
	c-0.4,0.9-0.3,1.9-0.2,2.9c-0.4,0-0.7,0.1-0.9,0.3c-0.3,0.2-0.6,0.6-0.7,1c-0.6-0.3-1.2-0.5-1.8-0.4c-0.9,0.1-0.8,0.4-1.8,1.4
	c-0.5-0.8-1.7-1.3-2.9-0.8c1-1.8,1.3-4.1,2.8-5.7c0.7-3.2,3.4-5,5.2-6C44.8,25.7,47.1,25.4,48.1,25.4L48.1,25.4z M83,35
	C83.1,35,83.1,35,83,35c0.4,0.2,0.6,0.3,0.9,0.5c0.3,0.3,1,1.2,0.9,1.6c-0.3-0.2-1.6-0.7-2.6-0.9c0-0.3,0.2-0.6,0.3-0.9
	C82.5,35,82.8,35,83,35L83,35z M80.9,37.3c0.2-0.1,0.6,0.2,0.7,0.6c0.3,0.5,0.4,1.3,0.3,2.4c-0.4,0.3-1.5-0.5-2-1.4
	c-0.1-0.4,0.1-1.1,0.5-1.3C80.5,37.5,80.6,37.4,80.9,37.3L80.9,37.3z M78.8,39.4c-0.1,0.7-0.1,1.5-0.3,2c-0.3-0.1-0.9-0.9-1.2-1.5
	c0.1-0.4,0-0.9,0.6-1C78.4,38.8,78.5,39.2,78.8,39.4L78.8,39.4z M28.1,50.4c0.7,0.1,1.4,0.6,1.9,1.1c1,0.8,2.4,0.6,3.5,0.2
	c0.6-0.2,1.1-0.6,1.7-1c0.5-0.4,1,0.4,1.5,0.4c0.8,0.3,1.8,0.2,2.6,0.2c0.5-0.3,1.1,0.1,1.8,0.1c0,0.3,0.3,0.3,0.4,0.7
	c0.1,0.6,0,0.1-0.4,0.8c-0.2,0.4-0.3,0.8-0.3,1.2c-0.1,0.9-0.5,1.7-1.1,1.9c-1,0.8-1.4,2.1-2.1,3.1c-1.8,0.4-3.1,1.9-4.2,3.3
	c-0.5,0.4-1.6,1.7-2.7,1.8c-1.3-0.3-2.9,0.1-4.1,1.4c-1.3-0.4-2.2,0.9-3.4,0.3c-0.2-0.1-0.8,0.3-1.5,0.3s-1.3,1.6-1.4,2.2
	c-0.9-0.7-1.8,0.4-2.4,0.4c-0.4-0.2-0.8-0.5-1.2-0.7c0.4-1.2,1.5-2,2.4-2.9c1.1-1.1,2.5-2.3,3.7-3.2c2.1-1.5,3.6-2.9,6-4.1
	c1.1-0.5,2.2-1.4,1.6-3.5c-0.2,0.3-0.3,1.7-0.9,2c-0.7,0.3-1.5,0.8-2.1,1.1c-2.1,1.1-3.8,2.8-5.7,4.1c-2.1,1.4-4.2,3-5.5,5.2
	c-0.1,0.2-0.3,0.5-0.4,0.7c-0.1,0-0.2-0.1-0.3-0.1c-0.5-0.1-1.1,0.2-1.6,0.3c-0.7-0.3-0.7-1-0.9-1.4c0.2-0.1,0.9-0.6,1.5-1.3
	c1.5-1.7,3.2-2.5,4.6-4.2c0.8-1,4.6-3.8,5-4.6C26.5,55.2,28.3,52.8,28.1,50.4L28.1,50.4z M26.8,50.9c0.7,1.7-2.1,4.1-3.8,5.5
	c-1,0.1-2.8,0.1-3.8,0.3c0.8-0.8,1.9-1.5,2.8-2.1c-1.1,0.1-3.2-0.1-4.4,0.4c0.8-1.1,4.5-1.5,5-1.6c-0.9,0-2.6-0.2-3.4-0.5
	c1-0.6,2.2-0.7,3.5-0.4c0.7-0.4,1.4-0.5,2.2,0C25.4,51.9,26.3,51,26.8,50.9L26.8,50.9z M76.8,72.5c1.1,0.2,2.8,1.3,3.1,2.9
	c-1.2-0.6-2.4-0.6-2.9-0.5C76.5,74.5,76.5,73.1,76.8,72.5L76.8,72.5z M58.4,75.8c0.5,0.4,1.4,1.8,1.3,2.4c-0.6,0.2-2.1,0.4-2.7,1.4
	C55.9,78.9,57.3,76.5,58.4,75.8z M77.3,77.3c0.9,0.5,1.4,1.4,1.5,2.7c-1.1-1.1-2.2-0.4-2.7-0.7C75.9,78.8,76.4,77.4,77.3,77.3
	L77.3,77.3z M74.5,79c0.7,0.7,1.8,3.8,0.9,5.1c-0.2-0.2-1.8-1.5-2.7-3.1C72.4,79.9,73.9,79,74.5,79z M64.8,80.1c0.1,0,0.3,0,0.4,0
	c0.2,0,0.3,0.1,0.5,0.1c0.5,0.2,0.9,0.8,1,1.3c-0.3,1-1.8,3.3-2.5,3.9c-0.3-1.1-1.1-3.6-0.7-4.9C63.9,80.3,64.3,80.1,64.8,80.1
	L64.8,80.1z"/>
<path shape-rendering="auto" image-rendering="auto" color-rendering="auto" d="M116.3,34.2c-0.1,0.8,0.1,2.1-0.2,2.3
	c-0.5-0.3-1.2-1.9-2.5-1.8c-0.1,0.9,0.1,1.7-0.1,2.2c-0.8-1-2.3-2.1-2.5-1.9c0.3,0.6,0.1,1.8,0.1,2.3c-0.7-0.5-2.6-1.6-3-1.4
	c0.4,0.7,0.3,1.8,0.6,2.4c-0.6-0.9-3.1-1.5-3.6-1c0.2,0.5,1.5,1.7,1.5,2.3c-0.9-1.6-3.6-1.7-4.1-1.2c0.4,0.6,0.6,1,1.2,1.9
	c-0.3-0.6-3.2-1.2-3.9-0.8c0.2,0.7,1.4,1.3,1.4,1.8c-0.9-0.2-3.3-1.4-3.9-0.7c0.6,0.8,1.1,1.2,1.4,1.9c-0.6,0.1-2.7-1.2-4.1-0.8
	c0.2,0.3,1.3,2.1,1.3,2.2c-0.9-0.2-2.7-1.8-3.3-1.4c0.5,0.5,0.6,1.4,0.8,1.9c-0.4-0.5-2-1.2-2.8-1c0.1,0.6-0.3,0.4-0.6,1.3
	c-0.3-0.1-1.5-1.2-2.6-1.2c0,0.3-0.3,1.6-0.5,1.6c-0.6,0.2-0.7-0.1-1.6-0.3c-0.2,1.9,1,3.4,1.8,3.7c1.4,0.7,3.7,0.6,5.4,1.4
	c2.6,1.4,5.9,0.6,8.8,0.2c2.9-0.4,4.3-4.2,7.5-4.3c2.9-0.1,5.2-1.7,8.1-1.2c1.4-0.4,4.6,0.1,4.7,0.8c0.1,0.3-0.6,1-1.8,1.4
	c-1.1-0.7-2.7-0.9-3.8-0.5c-1.4,0.6-2.3,2.1-2.7,3.2c-1.9,0.8-3.2,2.3-4.2,4c-0.8,1.2-1.2,1.9-1.7,3.3c-0.1,0.3-0.4,1.2-0.6,1.3
	c-0.4,0.2-1.2,0-2,0.1c-0.5,0.1-1,0.3-1.3,0.9c-1,1.9-4.6,2.3-5.9,0.4c-0.1-0.2-1.7-1-3.1-0.9c-1,0.1-2,0.6-2.4,1.4
	c-1.9,0.7-2,1.4-2.6,2.2c-1.7,1.1-0.7,2.4,0.1,2.9c0.8,0.5,2.1,0.8,2.7,1.2c1.2,1.2,3.4,0.2,5.2,0.6c0.8,0.2,1.9-0.7,2.6-1
	c0.6-0.2,1-0.1,1,0.1c-0.3,0.4-0.4,0.8-0.7,1.1c-0.5-0.1-0.9-0.3-1.3,0c-0.1,0.1-0.3,0.2-0.4,0.2c-0.4,0-1-0.1-1.4-0.1
	c-0.7,0.2-1.4,0.4-1.9,1.2c0.2,0.1,1.1,0,1.3,0.1c-0.8,0.2-2.3,0.6-2.7,1.6c0.8-0.1,2.3-0.1,2.5-0.1c-0.3,0.3-1.2,1.2-1.1,1.7
	c0.6-0.1,1.7-0.3,2.6-0.4c-1.4,0.9-2.1,2.1-3.4,3.2c-1.7,1.4-4.6,2.7-4,5.4c0.4,0.8,1,1.7,1.7,2.3c1.2,0.9,2.7,1.2,4.2,1.1
	c2.5-0.1,4.6-1.7,7.2-1.2c2.5,0.6,4.8-0.4,7.2-0.8c2-1.6,3.5-1.5,6.1-1.3c3,0.3,4.8-2.8,6.9-4.2c1.1,0.6,3.5-1.5,3.7-1.4
	c1.4,0.1-0.6,1.1-1,1.8c-0.6,1.4-0.3,3.1-0.7,4.3c-0.2,0.6-0.8,1-1.4,1.4c-1.4,1.1-3.6,4.3-2.1,5.8c0.6-0.9,1.7-1,2.7-1.3
	c0.7-0.2,1.4-0.7,1.9-0.8c-0.3,1.4-0.2,1.6-0.3,3c0.1,1.6,0.8,2.7,1,3.8c0.4-0.6,1.7-1.7,2.3-2.8c0.7-1.1,0.8-2.5,1-3
	c1.1,0.6,1.4,0.6,2.1,1.6c0.6,0.6,2.1,2.1,2.7,2.8c0.9-1.4,0.3-3.4,0.3-3.9c1.2,0.1,1.4,0.8,2.6,1c0.1-1.4-0.9-3.2-1.8-3.9
	c0.3-0.1,0.4-0.2,0.8-0.1c0.5,0.1,1.4,0.6,1.7,0.6c-0.2-1.8-1.9-3.4-3.6-3.7c-2-1-0.3-1.9,0.5-3.1c1.7-2.3,2.2-5.3,1.4-8
	c0.2-2.3-2-3.8-3.2-4.7c1.8-0.9,2.6-2.9,2.6-4.8c0.3,0.6,0.9,1.1,1.1,1c0.1-0.6,0.1-0.7,0.3-1.9c0.4,0.6,1.6,1.2,1.9,1
	c0.4-0.2,0.1-2-0.2-2.8c1.1,0.1,1.9,0.5,2.8,0.7c0.1-0.8-0.7-1.9-1-2.3c-0.6-0.7-2.3-1.2-3.2-1.2c0.1-0.6,0.4-1.7,0.3-2.4
	c-0.2-2.2-2.1-3-3.9-3.5c0.3-1.3-0.1-2.6-0.4-4c-0.3-1.6-0.6-4.1-1.7-5.4c-0.3-0.3-0.8-0.1-1.3-0.3c0.2-1.2-0.1-1.6-0.6-2
	c-0.4-0.3-0.8-0.3-1.5,0.3c0.4-0.8-0.3-1.5-0.9-1.7c-0.3-0.1-1.2,0.1-1.4,0.9c-0.1-0.7-0.7-1.4-1.3-1.5c-0.6-0.1-1.3,0.4-1.4,1.1
	c-0.1-1-1.1-1.7-1.8-1.7c-0.6,0.1-0.6,0.9-0.8,1.4c-0.3-0.8-1.4-1.4-1.9-1.4c-0.6,0.1-0.6,0.9-0.8,1.3
	C118.8,35.8,117.4,34.1,116.3,34.2L116.3,34.2z M117.1,35.3c0.9,0.3,1.8,1.6,2.3,2.1c0.5-0.5,0.4-1.2,0.8-1.2c0.9,0,1.4,0.9,2.1,0.9
	c0.3-0.3,0.4-1.2,0.9-1.2c0.6-0.1,1,1.4,1.4,1.4c0.5-0.3,0.8-1.1,1.2-1c0.3,0,0.8,1,0.8,1.7c0.8,0.5,1.5-1,1.9-0.8
	c0.8,0.3,1,0.6,1.1,1.7c0.3-0.2,0.9-0.8,1.2-0.6s0.4,1.3,0.2,2.3c0.8-0.3,1.2-0.2,1.6,0.1c0.4,0.4,0.6,1.2,0.3,2.1
	c-0.3,0.5-0.3,1.2-0.1,1.8c0.3,0.8-0.1,1.7-0.8,2.2c-0.8,0.6-0.1,1.7-0.8,2.4c-0.4,0.4-0.2,1.1-0.4,1.9c-0.1,0.4-0.5,0.6-0.6,1
	c-0.1,0.3-0.2,0.8-0.3,1.2c-0.4,0-1.1,0.3-1.2,0.6c-0.1,0.3-0.1,0.8,0.1,1.1c-0.4,0-1,0.1-1.2,0.3c-0.3,0.4-0.2,1-0.2,1.4
	c-0.5-0.1-1,0.1-1.3,0.4c-0.4,0.4-0.5,1-0.6,1.4c-0.3-0.1-0.9-0.2-1.2,0c-0.3,0.3-0.5,0.8-0.6,1.2c-0.6-0.3-0.6-0.5-1.2-0.5
	c-0.5,0-0.7,0.3-1.1,0.8c-0.5-0.1-1-0.6-1.7-0.4s-1.3,0.9-1.5,1.4c0.6-0.5,1-0.8,1.7-1c0.6-0.1,1,0.3,1.7,0.7c0.3-0.6,0.6-0.8,1-1
	c0.5-0.2,0.8,0.3,1.2,0.6c0.2-0.3,0.5-1.2,0.8-1.4c0.3-0.3,0.8,0,1.2,0.3c0-0.6,0.5-1.2,0.8-1.7c0.4-0.3,1.1-0.4,1.6-0.3
	c-0.3-0.6-0.1-1.3-0.1-1.5c0.2-0.4,0.5-0.5,1.2-0.3c-0.3-0.6-0.4-0.8-0.2-1.2c0.3-0.6,1-0.3,1.5-0.3c-0.2-0.4-0.4-0.8,0-1.2
	c0.3-0.3,0.2-0.7,0.4-1c0.4-0.6,0.1-1.2,0.3-1.9c0.1-0.5,1-0.8,0.9-1.2c-0.1-0.7,0-1.3,0.6-1.7c0.7-0.5,0.8-1.7,0.6-2.5
	c-0.1-0.3,0-1.2,0.2-1.5c0.8,1.3,0.1,3.4,0.8,4.7c0.3,0.7,0,1-0.2,1.5c-0.7-0.1-1.5,0.4-2,0.8c-0.7,0.6-0.2,1.6-0.1,2.4
	c0.4-0.6,0.1-1.1,0.3-1.5c0.1-0.2,0.3-0.6,0.5-0.6c0.5-0.1,0.5-0.2,1-0.1c0.1,0,0.6-0.1,0.8-0.2c1,1.4,3.1,0.3,3.2,2.3
	c1.2,1-0.2,3.5,0,3.9c0.8-0.3,1.7-0.2,2.4,0.1c-0.1,0.1-0.2,0.2-0.3,0.3c-0.1,0.3-0.2,0.5-0.2,0.8c-0.3-0.2-1.4-0.6-1.4-0.4
	c0.1,0.3,0.4,0.3,0.6,0.4c0.2,0.1,0.3,0.3,0.4,0.3c-0.5,0-1,0.4-1,0.9c0,0-0.6-0.3-0.6-0.6c-0.2-0.1-0.3-0.1-0.3,0.1
	c0.1,0.2,0.6,0.8,0.6,0.9c-0.1-0.1-0.2-0.2-0.4-0.2c-0.4-0.1-0.8,0.2-1,0.6c0-0.1,0-0.2,0-0.3c0.1-0.8-0.3-1.9-1-2.7
	c0.4,0.4,1.2,0.2,1.4-0.1h-0.7c-0.3,0-0.8-0.4-1-0.6c-0.3-0.4-0.3-0.7-0.8-1c-0.3-0.2-1-0.6-1.7-1c0.7,0.8,1.7,1.7,2.2,2.6
	c0.4,0.6,0.6,1.3,0.8,2c0.1,0.3,0.3,0.8,0.3,1.1s-0.3,0.9-0.2,1.4c0.3,2.3-1.8,2.8-2.6,4.6c-1.5-0.4-2.6-0.7-4.2-0.6
	c-0.6,0-1.7,0.2-2.3,0.5c-0.6-0.3-1-0.4-1.6-0.5c-0.6-0.8-1.1-1.5-1.8-2.1c-0.4-0.3-0.9-0.6-1.4-0.8c-0.8-0.1-1.4-0.3-2.7,0.4
	c1-0.1,1.9-0.1,2.8,0.3c0.5,0.3,1,0.6,1.3,1c0.4,0.4,0.8,0.9,1.1,1.4c-0.1,0.1-0.2,0.1-0.3,0.3c-0.4,0.4-0.3,0.7-0.1,1.6
	c0.1-0.8,0.6-1.2,0.9-1.4c0.7,0,1.5,0.2,1.9,0.7c1-0.5,2.2-0.7,3.3-0.5c1.1,0.3,2.3,0.5,3.3,0.9c0.6,0.3,1.6,0.6,2,1.2
	c1.4,1.9,2,4.8,1.4,7.2c-0.5,2.1-1.8,3.9-3.4,5.2c-0.9-0.2-1.9-0.9-2.8-0.8c-1,0.1-1.6-0.1-2.8,1.3c0.9-0.6,1.9-0.9,2.8-0.8
	c0.8,0.1,1.7,0.5,2.5,0.8c1.2,0.4,1.6,1.5,2.8,1.8c-0.1,0.3-0.3,1.4,0.2,1.9c-0.3-0.1-1.4-0.3-1.7-0.4c0-1-0.7-1.4-1.4-1.1
	c0.1,0.1,0.6,0.3,0.7,0.3c0.2,0.1,0.3,0.8,0.3,1c0.6,0.3,1.4,0.3,1.8,0.6c0.1,0.2,0.4,0.7,0.6,1c-0.4,0.1-0.6,0.1-0.8,0.6
	c-0.1,0.3-0.3,0.8-0.3,0.9c-0.2-0.1-0.4-0.7-0.6-0.8c-0.3-0.5-0.7-1-1.2-1.2c-0.1-0.1-0.3,0-0.5-0.1c-0.5-0.3-0.6-0.9-1.2-1.4
	c0.3,0.5,0.4,1.1,0.8,1.5c0.1,0.1,0.2,0.3,0.3,0.4c0.3,0.2,0.5,0.2,0.8,0.6c0.2,0.2,0.7,0.6,0.8,0.8c-0.6,0.2-1.2,0.7-1.2,1.3
	c-1.1-0.8-2.1-1.9-3.2-1.2c0,0.6-0.2,1.1-0.5,1.6c-0.2-0.5-0.5-0.9-1-1c-0.4-0.1-1,0.1-1.4,0.3c-0.3-0.3-0.1-1.7,0.2-2.3
	c-0.8,0.1-1.3,0.6-2.4,1c0-0.5-0.7-1.6-1-1.9c0.3-0.2,0.8-0.6,0.7-0.9c1.9-0.3,1.1-2.1,2.2-3.2c-1-2,0.8-3.7,1.4-4.7
	c0.6-1,1.3-1.7,2.1-2.3c0.3-0.2,1.4-0.6,1.7-0.8c-1.2-0.6-2.6,0.8-3,1.2c-0.3,0.3-0.6,0.7-0.8,1c-0.4-0.3-0.8-0.4-1.2-0.3
	c-0.1-0.8-0.2-1.4-0.3-2.2c-0.1-0.5-0.8-0.9-0.6-1.4c0.1-0.2,0.3-1.2,0.1-1.3c-0.1-0.1-0.4,0.8-0.5,0.8c-0.5,0.6,0.2,1.3,0.4,1.9
	c0.1,0.3-0.1,0.6,0,1c0,0.2,0.1,0.8,0,0.8c-0.6-0.2-0.8-0.3-1-0.8c-0.2-0.4-0.1-1.4-0.3-2.1c0,0.5-0.3,1.7-0.2,2.2
	c0.3,0.7,0.9,1,1.4,1.4c-0.8,0.5-1.5,1-2.5,0.8c0.1-0.6,0.2-1.1,0-1.7c-0.1-0.4,0.1-0.7,0.3-1c0.3-0.6,0.3-1.2,0.4-1.8
	c0.1-0.4,0.6-0.8,0.6-1.2c0-1-0.4-1.2-1-2c0,0.7,0.6,1.3,0.4,2c-0.1,0.3-0.4,0.6-0.6,1c-0.1,0.5,0.1,1.1-0.2,1.6
	c-0.2,0.3-0.5,0.5-0.6,0.8c-0.2,0.6,0.3,0.8,0.2,1.4c0,0.3-0.6,0.9-0.6,1.5c-1.7,1-2.8,2.8-5,3.3c-2.1,0.5-4.6-1.2-6.3,0.8
	c-2.3,1.2-5,1.9-7.6,1.6c-0.5-0.2-1-0.3-1.5-0.2c0.2-0.3,0.4-0.5,0.6-0.7c0.3-0.2,1-0.1,1.3-0.4c0.3-0.4,0.8-0.8,1.4-0.9
	c0.6-0.2,1.4-0.1,1.9-0.2c0.6-0.2,1.9-0.6,2.6-1.2c1-0.8,1.2-1.8,1.2-1.8s0.9,0,1.2-0.4c0.5-0.8,1.2-2.1,0.8-2.7
	c-0.1,0.6-0.5,1.7-1,2.2c-0.4,0.5-0.9,0.5-1.4,0.7c-0.2,0.4-0.3,0.9-0.6,1.1c-0.9,0.8-1.8,1.2-3,1.6c-0.9,0.3-2.1,0.2-2.9,0.7
	c-0.6,0.3-1,0.8-1.6,1c-0.8,0.1-1,1.2-1.8,1.3c-0.9,0.2-1.9,0.4-2.9,0.1c-1.7,1.8-4.1,1.1-5.9,0.1c-1-0.6-1.4-2.2-0.9-3
	c0.1,0.4,0.5,1,0.8,1.2c0.3,0.6,0.8-0.2,1.2,0.1c0.8,0.2,1.7,0.6,2.4,1c0.1-0.7,1-0.8,1.5-0.4c0.5-0.7,0.5-1,1-1.8
	c0.6-0.5,1.9,0.5,2.5-0.4c0.6-0.1,1.3,0.1,1.6-0.6c0.6-0.9,1.5-0.1,2.3-0.5c0.9-0.1,1.7-0.7,2.2-1.3c0.8-0.9,1.4-2.1,2.8-2.2
	c0.6-0.9,0.9-2,1.9-2.6c0.6-0.1,0.8-1.3,0.8-1.9c0.4-0.7,0.8-0.5,1.4-0.8c0.3-0.3,1.4-0.5,1.9-0.5c-0.6-0.3-1.5-0.3-2.4-0.1
	c-0.2,0.1-0.6,0.1-0.9,0.3c0.1-0.3,0-0.4-0.1-0.7c0.3-0.1,0.7-0.3,0.9-0.6c0.6-0.4,0.8-1,1.3-1.2c0.3-0.1,0.6,0.1,1,0.3
	c0.3,0.1,0.6,0.4,1.4,1c-0.1-0.6-0.5-1.1-0.8-1.3c-0.3-0.3-0.9-0.6-1.6-0.6c-0.7-0.1-0.9,0.7-1.3,1.1c-0.3,0.1-1,0.2-1.6,0.1
	c-1.2,0.3-1.2,0-2.1,0.1c-0.7,0-1.5-0.4-2.1-0.7c-0.5,0.3-1,0.7-1.5,1c-0.6,0.2-0.8,0.5-1.4,0.1c-0.1-0.1-0.9-0.8-1.3-0.9
	c-0.3-0.1-1-0.1-1.4-0.1c-1.1-0.8-3.2-1-4.1,0.4c-2.1-0.3-3.7,0.3-5.2-1c-1.2,0.1-3-0.7-3.1-1.4c-0.1-0.3,0.8-0.6,1.2-1
	c0.4-1.4,2.2-2,3.2-2.8c1.5,0,3.8-0.1,4.2,1.9c1.1,0.4,2.9,0.1,4-0.5c1.7,0.5,2.1-1.7,3.2-2.1c0.4-0.2,0.9-0.1,1.6,0.4
	c0.5-0.3,1-0.5,1.5-0.6s1.2,0.1,1.6,0.3c0.3-0.4,0.6-0.8,1.2-0.8c0.6-0.1,1.4,0.3,1.7,0.3c0-0.3,0.1-0.8,0.3-1
	c0.2-0.1,0.8-0.2,1-0.2c-0.1-0.5-0.3-1.6,0-2.2c0.1-0.4,0.8-0.6,1-1c0-0.4-0.2-0.9,0-1.3c0.2-0.3,0.8-0.3,1-0.6c0-0.5-0.1-1,0.2-1.4
	c0.3-0.3,0.8-0.5,1.1-0.8c0.1-0.5,0.2-1.1,0.7-1.4c0.4-0.2,0.8-0.2,1.3-0.3c-0.1-0.3,0-1,0.6-1.2c0.4-0.5,1.2-0.9,2.1-1.4
	c0.8-0.6,1.6-1.3,2-2.3c-0.1-0.5,0.1-0.8,0.3-1.2c0.1-0.3,0.2-0.5,0.3-0.8c0.2-1-0.3-1.9-0.8-2.8c-0.2,0.3-0.3,0.6-0.6,0.8
	c-0.2-0.7-0.7-1.5-1.6-1.5c-0.3,0-0.6,0-0.4,0.3c0.2,0.8-0.5-0.3-0.8-0.4c-0.4-0.3-1-0.9-1.5-0.6c-0.4,0.2,0.1,1.3-0.4,0.8
	c-0.6-0.4-1.2-0.9-2-1.1c-0.3-0.1-1,0.1-0.9,0.5c0.1,0.3,0,0.6,0,0.8c-0.8-0.5-1.2-0.8-2.1-0.9c-0.3-0.1-1.4,0.1-1,0.3
	c0.3,0.2,0.8,1.1,0.2,0.7c-0.9-0.4-1.7-0.7-2.6-0.6c-0.1,0.6-0.3,1.3-0.4,1.4c-0.3-0.1-0.6-0.7-0.8-0.9c0.4-0.4,0.3-1.4,0-2.1
	c0.7-0.1,1.4,0.5,1.9,1c0.9-0.2,0.8-1.6,0.7-2c0.6,0.2,1.1,1.3,1.7,1.9c0.8-0.2,0.5-2,0.8-2.1c0.5,0,1,1,2.3,1.7
	C117.1,36.9,117.2,36.2,117.1,35.3L117.1,35.3z M106.2,37.7c1,0.3,1.9,0.8,2.5,1.5c0.5,0.6,1,1.2,1.8,1.4c0.3-0.6,0.6-1.2,0.5-1.6
	c0.6,0.1,2.3,0.6,2.8,0.8c-0.5,0.3-1,0.3-1.3,0.8c-0.1,0.2,0,1.1-0.1,1.4c0,0.7-0.6,1.2-0.3,1.9c0.1,0.2,0.2,0.4,0.3,0.6
	c-1.2,0.4-2.6,0.6-4,0.7c0.2-0.8,0.3-1.7,0.1-2.6c-0.1-0.3-0.1-0.6-0.3-0.8c-0.4-0.5-0.9-1-0.8-1.7
	C107.4,39.6,107.2,38.4,106.2,37.7L106.2,37.7z M116.8,38.2c0.2,0,0.5,0.2,0.6,0.3c0.7,0.3,0.9,0.8,1.5,1.2c0,0.7-0.3,1.4-0.8,1.9
	c-0.1,0.2-0.3,0.3-0.4,0.6c-0.3,0.4-0.3,1-0.1,1.4c0,0.1,0.1,0.1,0.1,0.2c-1.2,0.1-2.5,0.3-3.8,0c-0.3,0.2-0.8,0.4-1.2,0.6
	c-0.1-0.3-0.3-0.7-0.4-1c-0.1-0.5,0.4-0.8,0.3-1.3c-0.1-0.6-0.2-1-0.1-1.1s1.4-0.8,1.5-1c-0.1-0.4-0.1-0.4-0.4-0.7
	c-0.1-0.1-0.4-0.3-0.5-0.6c1-0.3,2.5,0.9,3,1.2c0.1-0.3,0.1-0.3,0.1-0.8c-0.1-0.3-0.3-0.7,0-0.8C116.7,38.2,116.8,38.2,116.8,38.2
	L116.8,38.2z M119.9,38.7c0.6,0.3,1,1,1.6,1.4c0.4,0.3,0.9-0.1,0.8-0.6c0.6,0.2,0.6,1,1,1.4s0.8-0.6,0.9,0.1c0.3,0.5,0.1,1-0.1,1.5
	c-0.1,0.4-0.1,0.5-0.3,0.8c-0.1,0.6-0.1,1.2-0.6,1.7c-0.1,0.2-0.3,0.3-0.4,0.5c0-0.4-0.3-0.9-1.2-1.2c-1-0.5-2-0.6-3-0.5
	c-0.1-0.2-0.3-0.4-0.3-0.6c-0.1-0.3,0.1-0.7,0.3-1c-0.1,0.1,0.1-0.1,0.2-0.2c0.5-0.6,0.9-1.4,0.9-2.3
	C119.9,39.5,119.8,38.7,119.9,38.7L119.9,38.7z M104.5,39c0.1,0,0.3,0,0.6,0.1c0.6,0.3,0.9,0.6,1.4,1.2c0.3,0.6,0.7,1.4,1,1.7
	c0.2,0.3,0.3,0.8,0.4,0.8c0.3,1,0.1,1.8-0.2,2.6c-1.3,0.3-2.3,1.2-3.4,2.1c-0.1-0.1-0.1-0.3-0.2-0.3c-0.1-0.3-0.3-0.6-0.3-1
	c-0.1-0.7,0.2-1.3,0.1-2c0-0.7-0.6-1.3-1-1.7c-0.5-0.4-1-1.5-1.3-2.1c0.6-0.1,2.8,0.7,3.3,1.2c0.3-0.8-0.6-1.7-1-2.6
	C104.1,39.1,104.3,39,104.5,39L104.5,39z M99.3,41.4c0.3,0,1.8,0.4,2.3,0.6s0.9,1,1.1,1.2c0.3,0.3,0.5,0.6,0.5,1
	c0,0.7-0.3,1.4-0.1,2.1c0.1,0.5,0.3,1,0.6,1.5c-0.6,0.5-1.1,1.2-1.9,1.3c-1.7,0.4-3.6,0.6-5.2,0.4c0.2-0.4,0.6-1.3,0.5-1.8
	c0-0.5-0.2-0.9-0.4-1.3c-0.3-0.6,0-1.2,0.2-1.8c0.2-0.5-0.2-1.1-0.6-2.1c1,0.1,2.6,0.9,3.9,1C100.1,43.1,99.7,42,99.3,41.4
	L99.3,41.4z M94.3,43.6c0.4,0.6,1.5,1,2,1c-0.1,0.5-0.3,1-0.3,1.4c0,0.3,0.1,0.6,0.3,0.8c0.3,0.6,0.2,1.2,0.1,1.7s-0.6,0.6-1,0.8
	c-1.2,0.1-2.1-0.3-3-0.6c-1.2-0.5-2.5-0.7-4.1-1c-0.7-0.1-1.9-0.8-1.6-1.7c0.1-0.3,1.6,0.2,1.6,0.1c0.1-0.6,0.1-1.2,0.4-1.3
	c0.6-0.1,1.7,1.1,2.1,1c0.6-0.1,0.6-0.8,0.8-1.7c0.9,0.5,1.8,0.9,2.9,1.4C94.4,45.2,94.5,44.4,94.3,43.6L94.3,43.6z M117.7,47.1
	c0.8,0,1.5,0.3,2.1,0.4c-0.3,0.4-0.4,0.6-0.6,1.2c-0.3,0.1-1.4,0.1-1.5,0.4c-1-0.1-2.3-0.1-3.1,0.3c0.1-0.4,0.6-1,0.8-1.2
	C115.9,47.7,117,47.1,117.7,47.1L117.7,47.1z M116.9,49.8c0.2,0,0.4,0,0.6,0.1c-0.1,0.2-0.1,0.4-0.1,0.6c-0.4,0.2-0.9,0.5-1.1,0.9
	c-0.1,0.2-0.2,0.8-0.1,1.2c-0.3,0.1-0.7,0.4-1,0.8c-0.2,0.3-0.1,0.9-0.1,1.3c-0.6,0.3-0.8,0.8-0.8,0.9c-0.3,0.6-0.2,1.3-0.1,2
	c-0.3,0-0.5,0.1-0.6,0.2c-0.2,0.1-0.4,0.4-0.5,0.7c-0.4-0.2-0.8-0.3-1.2-0.3c-0.6,0.1-0.6,0.3-1.2,1c-0.3-0.6-1.2-0.9-2-0.6
	c0.7-1.2,0.9-2.8,1.9-3.9c0.5-2.2,2.3-3.4,3.6-4.1C114.6,50,116.2,49.8,116.9,49.8L116.9,49.8z M141,56.4L141,56.4
	c0.3,0.1,0.4,0.2,0.6,0.3c0.2,0.2,0.7,0.8,0.6,1.1c-0.2-0.1-1.1-0.5-1.8-0.6c0-0.2,0.1-0.4,0.2-0.6C140.6,56.4,140.8,56.4,141,56.4
	L141,56.4z M139.5,58c0.1-0.1,0.4,0.1,0.5,0.4c0.2,0.3,0.3,0.9,0.2,1.7c-0.3,0.2-1-0.3-1.4-1c-0.1-0.3,0.1-0.8,0.3-0.9
	C139.2,58.1,139.3,58,139.5,58L139.5,58z M138.1,59.4c-0.1,0.5-0.1,1-0.2,1.4c-0.2-0.1-0.6-0.6-0.8-1c0.1-0.3,0-0.6,0.4-0.7
	C137.8,59,137.9,59.3,138.1,59.4L138.1,59.4z M103.1,67c0.5,0.1,1,0.4,1.3,0.8c0.7,0.6,1.7,0.4,2.4,0.1c0.4-0.1,0.8-0.4,1.2-0.7
	c0.3-0.3,0.7,0.3,1,0.3c0.6,0.2,1.2,0.1,1.8,0.1c0.3-0.2,0.8,0.1,1.2,0.1c0,0.2,0.2,0.2,0.3,0.5c0.1,0.4,0,0.1-0.3,0.6
	c-0.1,0.3-0.2,0.6-0.2,0.8c-0.1,0.6-0.3,1.2-0.8,1.3c-0.7,0.6-1,1.4-1.4,2.1c-1.2,0.3-2.1,1.3-2.9,2.3c-0.3,0.3-1.1,1.2-1.9,1.2
	c-0.9-0.2-2,0.1-2.8,1c-0.9-0.3-1.5,0.6-2.3,0.2c-0.1-0.1-0.6,0.2-1,0.2s-0.9,1.1-1,1.5c-0.6-0.5-1.2,0.3-1.7,0.3
	c-0.3-0.1-0.6-0.3-0.8-0.5c0.3-0.8,1-1.4,1.7-2c0.8-0.8,1.7-1.6,2.6-2.2c1.4-1,2.5-2,4.1-2.8c0.8-0.3,1.5-1,1.1-2.4
	c-0.1,0.2-0.2,1.2-0.6,1.4c-0.5,0.2-1,0.6-1.4,0.8c-1.4,0.8-2.6,1.9-3.9,2.8c-1.4,1-2.9,2.1-3.8,3.6c-0.1,0.1-0.2,0.3-0.3,0.5
	c-0.1,0-0.1-0.1-0.2-0.1c-0.3-0.1-0.8,0.1-1.1,0.2c-0.5-0.2-0.5-0.7-0.6-1c0.1-0.1,0.6-0.4,1-0.9c1-1.2,2.2-1.7,3.2-2.9
	c0.6-0.7,3.2-2.6,3.4-3.2C102,70.3,103.2,68.7,103.1,67L103.1,67z M102.2,67.4c0.5,1.2-1.4,2.8-2.6,3.8c-0.7,0.1-1.9,0.1-2.6,0.2
	c0.6-0.6,1.3-1,1.9-1.4c-0.8,0.1-2.2-0.1-3,0.3c0.6-0.8,3.1-1,3.4-1.1c-0.6,0-1.8-0.1-2.3-0.3c0.7-0.4,1.5-0.5,2.4-0.3
	c0.5-0.3,1-0.3,1.5,0C101.2,68,101.9,67.4,102.2,67.4L102.2,67.4z M136.7,82.3c0.8,0.1,1.9,0.9,2.1,2c-0.8-0.4-1.7-0.4-2-0.3
	C136.5,83.6,136.5,82.7,136.7,82.3L136.7,82.3z M124,84.5c0.3,0.3,1,1.2,0.9,1.7c-0.4,0.1-1.4,0.3-1.9,1
	C122.3,86.7,123.2,85,124,84.5z M137,85.6c0.6,0.3,1,1,1,1.9c-0.8-0.8-1.5-0.3-1.9-0.5C136.1,86.6,136.4,85.6,137,85.6L137,85.6z
	 M135.1,86.7c0.5,0.5,1.2,2.6,0.6,3.5c-0.1-0.1-1.2-1-1.9-2.1C133.7,87.4,134.7,86.7,135.1,86.7z M128.4,87.5c0.1,0,0.2,0,0.3,0
	s0.2,0.1,0.3,0.1c0.3,0.1,0.6,0.6,0.7,0.9c-0.2,0.7-1.2,2.3-1.7,2.7c-0.2-0.8-0.8-2.5-0.5-3.4C127.8,87.6,128.1,87.5,128.4,87.5
	L128.4,87.5z"/>
<path shape-rendering="auto" image-rendering="auto" color-rendering="auto" d="M-17.5,28.7c-0.1,0.8,0.1,2.1-0.2,2.3
	c-0.5-0.3-1.2-1.9-2.5-1.8c-0.1,0.9,0.1,1.7-0.1,2.2c-0.8-1-2.3-2.1-2.5-1.9c0.3,0.6,0.1,1.8,0.1,2.3c-0.7-0.5-2.6-1.6-3-1.4
	c0.4,0.7,0.3,1.8,0.6,2.4c-0.6-0.9-3.1-1.5-3.6-1c0.2,0.5,1.5,1.7,1.5,2.3c-0.9-1.6-3.6-1.7-4.1-1.2c0.4,0.6,0.6,1,1.2,1.9
	c-0.3-0.6-3.2-1.2-3.9-0.8c0.2,0.7,1.4,1.3,1.4,1.8c-0.9-0.2-3.3-1.4-3.9-0.7c0.6,0.8,1.1,1.2,1.4,1.9c-0.6,0.1-2.7-1.2-4.1-0.8
	c0.2,0.3,1.3,2.1,1.3,2.2c-0.9-0.2-2.7-1.8-3.3-1.4c0.5,0.5,0.6,1.4,0.8,1.9c-0.4-0.5-2-1.2-2.8-1c0.1,0.6-0.3,0.4-0.6,1.3
	c-0.3-0.1-1.5-1.2-2.6-1.2c0,0.3-0.3,1.6-0.5,1.6c-0.6,0.2-0.7-0.1-1.6-0.3c-0.2,1.9,1,3.4,1.8,3.7c1.4,0.7,3.7,0.6,5.4,1.4
	c2.6,1.4,5.9,0.6,8.8,0.2c2.9-0.4,4.3-4.2,7.5-4.3c2.9-0.1,5.2-1.7,8.1-1.2c1.4-0.4,4.6,0.1,4.7,0.8c0.1,0.3-0.6,1-1.8,1.4
	c-1.1-0.7-2.7-0.9-3.8-0.5c-1.4,0.6-2.3,2.1-2.7,3.2c-1.9,0.8-3.2,2.3-4.2,4c-0.8,1.2-1.2,1.9-1.7,3.3c-0.1,0.3-0.4,1.2-0.6,1.3
	c-0.4,0.2-1.2,0-2,0.1c-0.5,0.1-1,0.3-1.3,0.9c-1,1.9-4.6,2.3-5.9,0.4c-0.1-0.2-1.7-1-3.1-0.9c-1,0.1-2,0.6-2.4,1.4
	c-1.9,0.7-2,1.4-2.6,2.2c-1.7,1.1-0.7,2.4,0.1,2.9s2.1,0.8,2.7,1.2c1.2,1.2,3.4,0.2,5.2,0.6c0.8,0.2,1.9-0.7,2.6-1
	c0.6-0.2,1-0.1,1,0.1c-0.3,0.4-0.4,0.8-0.7,1.1c-0.5-0.1-0.9-0.3-1.3,0c-0.1,0.1-0.3,0.2-0.4,0.2c-0.4,0-1-0.1-1.4-0.1
	c-0.7,0.2-1.4,0.4-1.9,1.2c0.2,0.1,1.1,0,1.3,0.1c-0.8,0.2-2.3,0.6-2.7,1.6c0.8-0.1,2.3-0.1,2.5-0.1c-0.3,0.3-1.2,1.2-1.1,1.7
	c0.6-0.1,1.7-0.3,2.6-0.4c-1.4,0.9-2.1,2.1-3.4,3.2c-1.7,1.4-4.6,2.7-4,5.4c0.4,0.8,1,1.7,1.7,2.3c1.2,0.9,2.7,1.2,4.2,1.1
	c2.5-0.1,4.6-1.7,7.2-1.2c2.5,0.6,4.8-0.4,7.2-0.8c2-1.6,3.5-1.5,6.1-1.3c3,0.3,4.8-2.8,6.9-4.2c1.1,0.6,3.5-1.5,3.7-1.4
	c1.4,0.1-0.6,1.1-1,1.8c-0.6,1.4-0.3,3.1-0.7,4.3c-0.2,0.6-0.8,1-1.4,1.4c-1.4,1.1-3.6,4.3-2.1,5.8c0.6-0.9,1.7-1,2.7-1.3
	c0.7-0.2,1.4-0.7,1.9-0.8C-7,81.8-7,82-7.1,83.4c0.1,1.6,0.8,2.7,1,3.8c0.4-0.6,1.7-1.7,2.3-2.8s0.8-2.5,1-3C-1.7,82-1.4,82-0.7,83
	c0.6,0.6,2.1,2.1,2.7,2.8c0.9-1.4,0.3-3.4,0.3-3.9c1.2,0.1,1.4,0.8,2.6,1C5,81.5,4.1,79.6,3.2,79c0.3-0.1,0.4-0.2,0.8-0.1
	c0.5,0.1,1.4,0.6,1.7,0.6c-0.2-1.8-1.9-3.4-3.6-3.7c-2-1-0.3-1.9,0.5-3.1c1.7-2.3,2.2-5.3,1.4-8c0.2-2.3-2-3.8-3.2-4.7
	c1.8-0.9,2.6-2.9,2.6-4.8c0.3,0.6,0.9,1.1,1.1,1c0.1-0.6,0.1-0.7,0.3-1.9c0.4,0.6,1.6,1.2,1.9,1c0.4-0.2,0.1-2-0.2-2.8
	c1.1,0.1,1.9,0.5,2.8,0.7c0.1-0.8-0.7-1.9-1-2.3c-0.6-0.7-2.3-1.2-3.2-1.2c0.1-0.6,0.4-1.7,0.3-2.4c-0.2-2.2-2.1-3-3.9-3.5
	c0.3-1.3-0.1-2.6-0.4-4c-0.3-1.6-0.6-4.1-1.7-5.4c-0.3-0.3-0.8-0.1-1.3-0.3c0.2-1.2-0.1-1.6-0.6-2c-0.4-0.3-0.8-0.3-1.5,0.3
	c0.4-0.8-0.3-1.5-0.9-1.7c-0.3-0.1-1.2,0.1-1.4,0.9c-0.1-0.7-0.7-1.4-1.3-1.5s-1.3,0.4-1.4,1.1c-0.1-1-1.1-1.7-1.8-1.7
	c-0.6,0.1-0.6,0.9-0.8,1.4c-0.3-0.8-1.4-1.4-1.9-1.4c-0.6,0.1-0.6,0.9-0.8,1.3C-15,30.3-16.4,28.6-17.5,28.7L-17.5,28.7z
	 M-16.7,29.9c0.9,0.3,1.8,1.6,2.3,2.1c0.5-0.5,0.4-1.2,0.8-1.2c0.9,0,1.4,0.9,2.1,0.9c0.3-0.3,0.4-1.2,0.9-1.2
	c0.6-0.1,1,1.4,1.4,1.4c0.5-0.3,0.8-1.1,1.2-1c0.3,0,0.8,1,0.8,1.7c0.8,0.5,1.5-1,1.9-0.8c0.8,0.3,1,0.6,1.1,1.7
	c0.3-0.2,0.9-0.8,1.2-0.6s0.4,1.3,0.2,2.3c0.8-0.3,1.2-0.2,1.6,0.1c0.4,0.4,0.6,1.2,0.3,2.1c-0.3,0.5-0.3,1.2-0.1,1.8
	c0.3,0.8-0.1,1.7-0.8,2.2c-0.8,0.6-0.1,1.7-0.8,2.4C-3,44.2-2.8,44.9-3,45.7c-0.1,0.4-0.5,0.6-0.6,1c-0.1,0.3-0.2,0.8-0.3,1.2
	c-0.4,0-1.1,0.3-1.2,0.6s-0.1,0.8,0.1,1.1c-0.4,0-1,0.1-1.2,0.3c-0.3,0.4-0.2,1-0.2,1.4c-0.5-0.1-1,0.1-1.3,0.4
	c-0.4,0.4-0.5,1-0.6,1.4c-0.3-0.1-0.9-0.2-1.2,0c-0.3,0.3-0.5,0.8-0.6,1.2c-0.6-0.3-0.6-0.5-1.2-0.5c-0.5,0-0.7,0.3-1.1,0.8
	c-0.5-0.1-1-0.6-1.7-0.4c-0.6,0.1-1.3,0.9-1.5,1.4c0.6-0.5,1-0.8,1.7-1c0.6-0.1,1,0.3,1.7,0.7c0.3-0.6,0.6-0.8,1-1
	c0.5-0.2,0.8,0.3,1.2,0.6c0.2-0.3,0.5-1.2,0.8-1.4c0.3-0.3,0.8,0,1.2,0.3c0-0.6,0.5-1.2,0.8-1.7c0.4-0.3,1.1-0.4,1.6-0.3
	c-0.3-0.6-0.1-1.3-0.1-1.5c0.2-0.4,0.5-0.5,1.2-0.3c-0.3-0.6-0.4-0.8-0.2-1.2c0.3-0.6,1-0.3,1.5-0.3c-0.2-0.4-0.4-0.8,0-1.2
	c0.3-0.3,0.2-0.7,0.4-1c0.4-0.6,0.1-1.2,0.3-1.9c0.1-0.5,1-0.8,0.9-1.2c-0.1-0.7,0-1.3,0.6-1.7c0.7-0.5,0.8-1.7,0.6-2.5
	c-0.1-0.3,0-1.2,0.2-1.5c0.8,1.3,0.1,3.4,0.8,4.7c0.3,0.7,0,1-0.2,1.5c-0.7-0.1-1.5,0.4-2,0.8c-0.7,0.6-0.2,1.6-0.1,2.4
	c0.4-0.6,0.1-1.1,0.3-1.5c0.1-0.2,0.3-0.6,0.5-0.6c0.5-0.1,0.5-0.2,1-0.1c0.1,0,0.6-0.1,0.8-0.2c1,1.4,3.1,0.3,3.2,2.3
	c1.2,1-0.2,3.5,0,3.9c0.8-0.3,1.7-0.2,2.4,0.1c-0.1,0.1-0.2,0.2-0.3,0.3C6.1,51.4,6,51.6,6,51.9c-0.3-0.2-1.4-0.6-1.4-0.4
	c0.1,0.3,0.4,0.3,0.6,0.4c0.2,0.1,0.3,0.3,0.4,0.3c-0.5,0-1,0.4-1,0.9c0,0-0.6-0.3-0.6-0.6c-0.2-0.1-0.3-0.1-0.3,0.1
	c0.1,0.2,0.6,0.8,0.6,0.9C4.3,53.1,4.2,53,4,53c-0.4-0.1-0.8,0.2-1,0.6c0-0.1,0-0.2,0-0.3c0.1-0.8-0.3-1.9-1-2.7
	c0.4,0.4,1.2,0.2,1.4-0.1H2.7c-0.3,0-0.8-0.4-1-0.6c-0.3-0.4-0.3-0.7-0.8-1c-0.3-0.2-1-0.6-1.7-1c0.7,0.8,1.7,1.7,2.2,2.6
	c0.4,0.6,0.6,1.3,0.8,2c0.1,0.3,0.3,0.8,0.3,1.1S2.2,54.5,2.3,55c0.3,2.3-1.8,2.8-2.6,4.6c-1.5-0.4-2.6-0.7-4.2-0.6
	c-0.6,0-1.7,0.2-2.3,0.5c-0.6-0.3-1-0.4-1.6-0.5c-0.6-0.8-1.1-1.5-1.8-2.1c-0.4-0.3-0.9-0.6-1.4-0.8c-0.8-0.1-1.4-0.3-2.7,0.4
	c1-0.1,1.9-0.1,2.8,0.3c0.5,0.3,1,0.6,1.3,1c0.4,0.4,0.8,0.9,1.1,1.4c-0.1,0.1-0.2,0.1-0.3,0.3c-0.4,0.4-0.3,0.7-0.1,1.6
	c0.1-0.8,0.6-1.2,0.9-1.4c0.7,0,1.5,0.2,1.9,0.7c1-0.5,2.2-0.7,3.3-0.5c1.1,0.3,2.3,0.5,3.3,0.9c0.6,0.3,1.6,0.6,2,1.2
	c1.4,1.9,2,4.8,1.4,7.2c-0.5,2.1-1.8,3.9-3.4,5.2c-1.1-0.4-2-1.1-2.9-1c-1,0.1-1.6-0.1-2.8,1.3c0.9-0.6,1.9-0.9,2.8-0.8
	c0.8,0.1,1.7,0.5,2.5,0.8c1.2,0.4,1.6,1.5,2.8,1.8c-0.1,0.3-0.3,1.4,0.2,1.9c-0.3-0.1-1.4-0.3-1.7-0.4c0-1-0.7-1.4-1.4-1.1
	c0.1,0.1,0.6,0.3,0.7,0.3c0.2,0.1,0.3,0.8,0.3,1c0.6,0.3,1.4,0.3,1.8,0.6c0.1,0.2,0.4,0.7,0.6,1c-0.4,0.1-0.6,0.1-0.8,0.6
	c-0.1,0.3-0.3,0.8-0.3,0.9c-0.2-0.1-0.4-0.7-0.6-0.8c-0.3-0.5-0.7-1-1.2-1.2c-0.1-0.1-0.3,0-0.5-0.1c-0.5-0.3-0.6-0.9-1.2-1.4
	c0.3,0.5,0.4,1.1,0.8,1.5c0.1,0.1,0.2,0.3,0.3,0.4c0.3,0.2,0.5,0.2,0.8,0.6c0.2,0.2,0.7,0.6,0.8,0.8c-0.6,0.2-1.2,0.7-1.2,1.3
	c-1.1-0.8-2.1-1.9-3.2-1.2c0,0.6-0.2,1.1-0.5,1.6c-0.2-0.5-0.5-0.9-1-1c-0.4-0.1-1,0.1-1.4,0.3c-0.3-0.3-0.1-1.7,0.2-2.3
	c-0.8,0.1-1.3,0.6-2.4,1c0-0.5-0.7-1.6-1-1.9c0.3-0.2,0.8-0.6,0.7-0.9c1.9-0.3,1.1-2.1,2.2-3.2c-1-2,0.8-3.7,1.4-4.7
	s1.3-1.7,2.1-2.3c0.3-0.2,1.4-0.6,1.7-0.8c-1.2-0.6-2.6,0.8-3,1.2c-0.3,0.3-0.6,0.7-0.8,1c-0.4-0.3-0.8-0.4-1.2-0.3
	c-0.1-0.8-0.2-1.4-0.3-2.2c0.2-0.7-0.5-1.1-0.2-1.6c0.1-0.2,0.3-1.2,0.1-1.3c-0.1-0.1-0.4,0.8-0.5,0.8c-0.5,0.6,0.2,1.4,0.4,2
	c0.1,0.3-0.1,0.6,0,1c0,0.2,0.1,0.8,0,0.8c-0.6-0.2-0.8-0.3-1-0.8c-0.2-0.4-0.1-1.4-0.3-2.1c0,0.5-0.3,1.7-0.2,2.2
	c0.3,0.7,0.9,1,1.4,1.4c-0.8,0.5-1.5,1-2.5,0.8c0.1-0.6,0.2-1.1,0-1.7c-0.1-0.4,0.1-0.7,0.3-1C-9,66.6-9,66-8.9,65.4
	c0.1-0.4,0.6-0.8,0.6-1.2c0-1-0.4-1.2-1-2c0,0.7,0.6,1.3,0.4,2c-0.1,0.3-0.4,0.6-0.6,1c-0.1,0.5,0.1,1.1-0.2,1.6
	c-0.2,0.3-0.5,0.5-0.6,0.8c-0.2,0.6,0.3,0.8,0.2,1.4c0,0.3-0.6,0.9-0.6,1.5c-1.7,1-2.8,2.8-5,3.3c-2.1,0.5-4.6-1.2-6.3,0.8
	c-2.3,1.2-5,1.9-7.6,1.6C-30,76-30.5,76-31,76c0.2-0.3,0.4-0.5,0.6-0.7c0.3-0.2,1-0.1,1.3-0.4c0.3-0.4,0.8-0.8,1.4-0.9
	c0.6-0.2,1.4-0.1,1.9-0.2c0.6-0.2,1.9-0.6,2.6-1.2c1-0.8,1.2-1.8,1.2-1.8s0.9,0,1.2-0.4c0.5-0.8,1.2-2.1,0.8-2.7
	c-0.1,0.6-0.5,1.7-1,2.2c-0.4,0.5-0.9,0.5-1.4,0.7c-0.2,0.4-0.3,0.9-0.6,1.1c-0.9,0.8-1.8,1.2-3,1.6c-0.9,0.3-2.1,0.2-2.9,0.7
	c-0.6,0.3-1,0.8-1.6,1c-0.8,0.1-1,1.2-1.8,1.3c-0.9,0.2-1.9,0.4-2.9,0.1c-1.7,1.8-4.1,1.1-5.9,0.1c-1-0.6-1.4-2.2-0.9-3
	c0.1,0.4,0.5,1,0.8,1.2c0.3,0.6,0.8-0.2,1.2,0.1c0.8,0.2,1.7,0.6,2.4,1c0.1-0.7,1-0.8,1.5-0.4c0.5-0.7,0.5-1,1-1.8
	c0.6-0.5,1.9,0.5,2.5-0.4c0.6-0.1,1.3,0.1,1.6-0.6c0.6-0.9,1.5-0.1,2.3-0.5c0.9-0.1,1.7-0.7,2.2-1.3c0.8-0.9,1.4-2.1,2.8-2.2
	c0.6-0.9,0.9-2,1.9-2.6c0.6-0.1,0.8-1.3,0.8-1.9c0.4-0.7,0.8-0.5,1.4-0.8c0.3-0.3,1.4-0.5,1.9-0.5c-0.6-0.3-1.5-0.3-2.4-0.1
	c-0.2,0.1-0.6,0.1-0.9,0.3c0.1-0.3,0-0.4-0.1-0.7c0.3-0.1,0.7-0.3,0.9-0.6c0.6-0.4,0.8-1,1.3-1.2c0.3-0.1,0.6,0.1,1,0.3
	c0.3,0.1,0.6,0.4,1.4,1c-0.1-0.6-0.5-1.1-0.8-1.3c-0.3-0.3-0.9-0.6-1.6-0.6c-0.7-0.1-0.9,0.7-1.3,1.1c-0.3,0.1-1,0.2-1.6,0.1
	c-1.2,0.3-1.2,0-2.1,0.1c-0.7,0-1.5-0.4-2.1-0.7c-0.5,0.3-1,0.7-1.5,1c-0.6,0.2-0.8,0.5-1.4,0.1c-0.1-0.1-0.9-0.8-1.3-0.9
	c-0.3-0.1-1-0.1-1.4-0.1c-1.1-0.8-3.2-1-4.1,0.4c-2.1-0.3-3.7,0.3-5.2-1c-1.2,0.1-3-0.7-3.1-1.4c-0.1-0.3,0.8-0.6,1.2-1
	c0.4-1.4,2.2-2,3.2-2.8c1.5,0,3.8-0.1,4.2,1.9c1.1,0.4,2.9,0.1,4-0.5c1.7,0.5,2.1-1.7,3.2-2.1c0.4-0.2,0.9-0.1,1.6,0.4
	c0.5-0.3,1-0.5,1.5-0.6c0.6-0.1,1.2,0.1,1.6,0.3c0.3-0.4,0.6-0.8,1.2-0.8c0.6-0.1,1.4,0.3,1.7,0.3c0-0.3,0.1-0.8,0.3-1
	c0.2-0.1,0.8-0.2,1-0.2c-0.1-0.5-0.3-1.6,0-2.2c0.1-0.4,0.8-0.6,1-1c0-0.4-0.2-0.9,0-1.3c0.2-0.3,0.8-0.3,1-0.6c0-0.5-0.1-1,0.2-1.4
	c0.3-0.3,0.8-0.5,1.1-0.8c0.1-0.5,0.2-1.1,0.7-1.4c0.4-0.2,0.8-0.2,1.3-0.3c-0.1-0.3,0-1,0.6-1.2c0.4-0.5,1.2-0.9,2.1-1.4
	c0.8-0.6,1.6-1.3,2-2.3c-0.1-0.5,0.1-0.8,0.3-1.2c0.1-0.3,0.2-0.5,0.3-0.8c0.2-1-0.3-1.9-0.8-2.8c-0.2,0.3-0.3,0.6-0.6,0.8
	c-0.2-0.7-0.7-1.5-1.6-1.5c-0.3,0-0.6,0-0.4,0.3c0.2,0.8-0.5-0.3-0.8-0.4c-0.4-0.3-1-0.9-1.5-0.6c-0.4,0.2,0.1,1.3-0.4,0.8
	c-0.6-0.4-1.2-0.9-2-1.1c-0.3-0.1-1,0.1-0.9,0.5c0.1,0.3,0,0.6,0,0.8c-0.8-0.5-1.2-0.8-2.1-0.9c-0.3-0.1-1.4,0.1-1,0.3
	c0.3,0.2,0.8,1.1,0.2,0.7c-0.9-0.4-1.7-0.7-2.6-0.6c-0.1,0.6-0.3,1.3-0.4,1.4c-0.3-0.1-0.6-0.7-0.8-0.9c0.4-0.4,0.3-1.4,0-2.1
	c0.7-0.1,1.4,0.5,1.9,1c0.9-0.2,0.8-1.6,0.7-2c0.6,0.2,1.1,1.3,1.7,1.9c0.8-0.2,0.5-2,0.8-2.1c0.5,0,1,1,2.3,1.7
	C-16.7,31.4-16.6,30.8-16.7,29.9L-16.7,29.9z M-27.6,32.2c1,0.3,1.9,0.8,2.5,1.5c0.5,0.6,1,1.2,1.8,1.4c0.3-0.6,0.6-1.2,0.5-1.6
	c0.6,0.1,2.3,0.6,2.8,0.8c-0.5,0.3-1,0.3-1.3,0.8c-0.1,0.2,0,1.1-0.1,1.4c0,0.7-0.6,1.2-0.3,1.9c0.1,0.2,0.2,0.4,0.3,0.6
	c-1.2,0.4-2.6,0.6-4,0.7c0.2-0.8,0.3-1.7,0.1-2.6c-0.1-0.3-0.1-0.6-0.3-0.8c-0.4-0.5-0.9-1-0.8-1.7C-26.4,34.1-26.6,33-27.6,32.2
	L-27.6,32.2z M-17,32.7c0.2,0,0.5,0.2,0.6,0.3c0.7,0.3,0.9,0.8,1.5,1.2c0,0.7-0.3,1.4-0.8,1.9c-0.1,0.2-0.3,0.3-0.4,0.6
	c-0.3,0.4-0.3,1-0.1,1.4c0,0.1,0.1,0.1,0.1,0.2c-1.2,0.1-2.5,0.3-3.8,0c-0.3,0.2-0.8,0.4-1.2,0.6c-0.1-0.3-0.3-0.7-0.4-1
	c-0.1-0.5,0.4-0.8,0.3-1.3c-0.1-0.6-0.2-1-0.1-1.1s1.4-0.8,1.5-1c-0.1-0.4-0.1-0.4-0.4-0.7c-0.1-0.1-0.4-0.3-0.5-0.6
	c1-0.3,2.5,0.9,3,1.2c0.1-0.3,0.1-0.3,0.1-0.8c-0.1-0.3-0.3-0.7,0-0.8C-17.1,32.7-17,32.7-17,32.7L-17,32.7z M-13.9,33.2
	c0.6,0.3,1,1,1.6,1.4c0.4,0.3,0.9-0.1,0.8-0.6c0.6,0.2,0.6,1,1,1.4s0.8-0.6,0.9,0.1c0.3,0.5,0.1,1-0.1,1.5c-0.1,0.4-0.1,0.5-0.3,0.8
	c-0.1,0.6-0.1,1.2-0.6,1.7c-0.1,0.2-0.3,0.3-0.4,0.5c0-0.4-0.3-0.9-1.2-1.2c-1-0.5-2-0.6-3-0.5c-0.1-0.2-0.3-0.4-0.3-0.6
	c-0.1-0.3,0.1-0.7,0.3-1c-0.1,0.1,0.1-0.1,0.2-0.2c0.5-0.6,0.9-1.4,0.9-2.3C-13.9,34-14,33.3-13.9,33.2L-13.9,33.2z M-29.3,33.5
	c0.1,0,0.3,0,0.6,0.1c0.6,0.3,0.9,0.6,1.4,1.2c0.3,0.6,0.7,1.4,1,1.7c0.2,0.3,0.3,0.8,0.4,0.8c0.3,1,0.1,1.8-0.2,2.6
	c-1.3,0.3-2.3,1.2-3.4,2.1c-0.1-0.1-0.1-0.3-0.2-0.3c-0.1-0.3-0.3-0.6-0.3-1c-0.1-0.7,0.2-1.3,0.1-2c0-0.7-0.6-1.3-1-1.7
	c-0.5-0.4-1-1.5-1.3-2.1c0.6-0.1,2.8,0.7,3.3,1.2c0.3-0.8-0.6-1.7-1-2.6C-29.7,33.6-29.5,33.5-29.3,33.5L-29.3,33.5z M-34.5,36
	c0.3,0,1.8,0.4,2.3,0.6c0.5,0.2,0.9,1,1.1,1.2c0.3,0.3,0.5,0.6,0.5,1c0,0.7-0.3,1.4-0.1,2.1c0.1,0.5,0.3,1,0.6,1.5
	c-0.6,0.5-1.1,1.2-1.9,1.3c-1.7,0.4-3.6,0.6-5.2,0.4c0.2-0.4,0.6-1.3,0.5-1.8c0-0.5-0.2-0.9-0.4-1.3c-0.3-0.6,0-1.2,0.2-1.8
	c0.2-0.5-0.2-1.1-0.6-2.1c1,0.1,2.6,0.9,3.9,1C-33.7,37.7-34.1,36.6-34.5,36L-34.5,36z M-39.5,38.2c0.4,0.6,1.5,1,2,1
	c-0.1,0.5-0.3,1-0.3,1.4c0,0.3,0.1,0.6,0.3,0.8c0.3,0.6,0.2,1.2,0.1,1.7c-0.1,0.5-0.6,0.6-1,0.8c-1.2,0.1-2.1-0.3-3-0.6
	c-1.2-0.5-2.5-0.7-4.1-1c-0.7-0.1-1.9-0.8-1.6-1.7c0.1-0.3,1.6,0.2,1.6,0.1c0.1-0.6,0.1-1.2,0.4-1.3c0.6-0.1,1.7,1.1,2.1,1
	c0.6-0.1,0.6-0.8,0.8-1.7c0.9,0.5,1.8,0.9,2.9,1.4C-39.4,39.7-39.3,38.9-39.5,38.2L-39.5,38.2z M-16.1,41.6c0.8,0,1.5,0.3,2.1,0.4
	c-0.3,0.4-0.4,0.6-0.6,1.2c-0.3,0.1-1.4,0.1-1.5,0.4c-1-0.1-2.3-0.1-3.1,0.3c0.1-0.4,0.6-1,0.8-1.2C-17.9,42.2-16.8,41.7-16.1,41.6
	L-16.1,41.6z M-16.9,44.3c0.2,0,0.4,0,0.6,0.1c-0.1,0.2-0.1,0.4-0.1,0.6c-0.4,0.2-0.9,0.5-1.1,0.9c-0.1,0.2-0.2,0.8-0.1,1.2
	c-0.3,0.1-0.7,0.4-1,0.8c-0.2,0.3-0.1,0.9-0.1,1.3c-0.6,0.3-0.8,0.8-0.8,0.9c-0.3,0.6-0.2,1.3-0.1,2c-0.3,0-0.5,0.1-0.6,0.2
	c-0.2,0.1-0.4,0.4-0.5,0.7c-0.4-0.2-0.8-0.3-1.2-0.3c-0.6,0.1-0.6,0.3-1.2,1c-0.3-0.6-1.2-0.9-2-0.6c0.7-1.2,0.9-2.8,1.9-3.9
	c0.5-2.2,2.3-3.4,3.6-4.1C-19.2,44.5-17.6,44.3-16.9,44.3L-16.9,44.3z M7.2,50.9L7.2,50.9c0.3,0.1,0.4,0.2,0.6,0.3
	C8,51.4,8.5,52,8.4,52.3c-0.2-0.1-1.1-0.5-1.8-0.6c0-0.2,0.1-0.4,0.2-0.6C6.8,50.9,7,50.9,7.2,50.9L7.2,50.9z M5.7,52.5
	c0.1-0.1,0.4,0.1,0.5,0.4c0.2,0.3,0.3,0.9,0.2,1.7c-0.3,0.2-1-0.3-1.4-1c-0.1-0.3,0.1-0.8,0.3-0.9C5.4,52.6,5.5,52.6,5.7,52.5
	L5.7,52.5z M4.3,54c-0.1,0.5-0.1,1-0.2,1.4c-0.2-0.1-0.6-0.6-0.8-1c0.1-0.3,0-0.6,0.4-0.7C4,53.5,4.1,53.8,4.3,54L4.3,54z
	 M-30.7,61.5c0.5,0.1,1,0.4,1.3,0.8c0.7,0.6,1.7,0.4,2.4,0.1c0.4-0.1,0.8-0.4,1.2-0.7c0.3-0.3,0.7,0.3,1,0.3
	c0.6,0.2,1.2,0.1,1.8,0.1c0.3-0.2,0.8,0.1,1.2,0.1c0,0.2,0.2,0.2,0.3,0.5c0.1,0.4,0,0.1-0.3,0.6c-0.1,0.3-0.2,0.6-0.2,0.8
	c-0.1,0.6-0.3,1.2-0.8,1.3c-0.7,0.6-1,1.4-1.4,2.1c-1.2,0.3-2.1,1.3-2.9,2.3c-0.3,0.3-1.1,1.2-1.9,1.2c-0.9-0.2-2,0.1-2.8,1
	c-0.9-0.3-1.5,0.6-2.3,0.2c-0.1-0.1-0.6,0.2-1,0.2s-0.9,1.1-1,1.5c-0.6-0.5-1.2,0.3-1.7,0.3c-0.3-0.1-0.6-0.3-0.8-0.5
	c0.3-0.8,1-1.4,1.7-2c0.8-0.8,1.7-1.6,2.6-2.2c1.4-1,2.5-2,4.1-2.8c0.8-0.3,1.5-1,1.1-2.4c-0.1,0.2-0.2,1.2-0.6,1.4
	c-0.5,0.2-1,0.6-1.4,0.8c-1.4,0.8-2.6,1.9-3.9,2.8c-1.4,1-2.9,2.1-3.8,3.6c-0.1,0.1-0.2,0.3-0.3,0.5c-0.1,0-0.1-0.1-0.2-0.1
	c-0.3-0.1-0.8,0.1-1.1,0.2c-0.5-0.2-0.5-0.7-0.6-1c0.1-0.1,0.6-0.4,1-0.9c1-1.2,2.2-1.7,3.2-2.9c0.6-0.7,3.2-2.6,3.4-3.2
	C-31.8,64.9-30.6,63.2-30.7,61.5L-30.7,61.5z M-31.6,61.9c0.5,1.2-1.4,2.8-2.6,3.8c-0.7,0.1-1.9,0.1-2.6,0.2c0.6-0.6,1.3-1,1.9-1.4
	c-0.8,0.1-2.2-0.1-3,0.3c0.6-0.8,3.1-1,3.4-1.1c-0.6,0-1.8-0.1-2.3-0.3c0.7-0.4,1.5-0.5,2.4-0.3c0.5-0.3,1-0.3,1.5,0
	C-32.6,62.6-31.9,62-31.6,61.9L-31.6,61.9z M2.9,76.8c0.8,0.1,1.9,0.9,2.1,2c-0.8-0.4-1.7-0.4-2-0.3C2.7,78.2,2.7,77.2,2.9,76.8
	L2.9,76.8z M-9.8,79.1c0.3,0.3,1,1.2,0.9,1.7c-0.4,0.1-1.4,0.3-1.9,1C-11.5,81.2-10.6,79.5-9.8,79.1z M3.2,80.1c0.6,0.3,1,1,1,1.9
	c-0.8-0.8-1.5-0.3-1.9-0.5C2.3,81.1,2.6,80.2,3.2,80.1L3.2,80.1z M1.3,81.3c0.5,0.5,1.2,2.6,0.6,3.5c-0.1-0.1-1.2-1-1.9-2.1
	C-0.1,81.9,0.9,81.3,1.3,81.3z M-5.4,82c0.1,0,0.2,0,0.3,0c0.1,0,0.2,0.1,0.3,0.1c0.3,0.1,0.6,0.6,0.7,0.9c-0.2,0.7-1.2,2.3-1.7,2.7
	c-0.2-0.8-0.8-2.5-0.5-3.4C-6,82.2-5.7,82-5.4,82L-5.4,82z"/>
<g transform="matrix(1.0886 0 0 1.0886 -3.5562 -86.592)">
	<path style="fill:#FFFFFF;stroke:#000000;" d="M13.5,141c-0.1-1.2,0.4-1.6,0.9-1.9c0.3,0.9,1,2.4,0.5,3C14,142.2,13.9,142,13.5,141
		L13.5,141z"/>
	<path style="fill:#FFFFFF;stroke:#000000;" d="M16.2,139.7c-0.8-0.1-0.9-0.7-1-1.8c0-0.7-0.9-2.3,0.1-3c0.8,0,0.9,1.5,1.3,2.1
		c0.5,0.6,1.1,1.4,1.1,1.4C17.7,139.3,17.2,139.7,16.2,139.7L16.2,139.7z"/>
	<path style="fill:#FFFFFF;stroke:#000000;" d="M32.1,126.7c-0.1,0.7-0.1,1.7,0.8,2.3c0.6-0.9,1.1-1.9,1-2.5L32.1,126.7z"/>
	<path style="fill:#FFFFFF;stroke:#000000;" d="M28.7,125.3c-0.1,1.2,0.1,2.2,0.9,2.7c0.5-0.6,0.5-1.5,0.5-2.3L28.7,125.3z"/>
	<path style="fill:#FFFFFF;stroke:#000000;" d="M13.6,124.3c0,1.3,0.2,1.7,0.8,2.6c0.7-0.6,1.6-1.1,0.9-2.4
		C14.5,124.3,13.6,124.3,13.6,124.3L13.6,124.3z"/>
	<path style="fill:#FFFFFF;stroke:#000000;" d="M16.6,125.5c0,0.8,0.5,1.7,1.1,2.4c0.3-0.7,0.9-0.9,0.9-2.2
		C18,125,17.3,125.4,16.6,125.5L16.6,125.5z"/>
	<path style="fill:#FFFFFF;stroke:#000000;" d="M23.8,125.3c-0.3,1.5,0.1,3.4,0.7,3.6c0.6,0,1.1-2,1.9-4.5
		C25.6,124,23.7,125,23.8,125.3L23.8,125.3z"/>
	<path style="fill:#FFFFFF;stroke:#000000;" d="M11.4,123c-0.9,1.1-1.3,3.4,0.1,4.3c0.4,0.2,0.8-2.7,1.3-3.6L11.4,123z"/>
	<path style="fill:#FFFFFF;stroke:#000000;" d="M15.4,143c0-0.7-0.1-1.3,1-2c0.8,1.1,1,2,0.8,2.8C16.7,143.8,15.8,144.3,15.4,143z"
		/>
	<path style="fill:#FFFFFF;stroke:#000000;" d="M18.2,143.9c-0.2-0.6,0.1-1.5,0.8-2.5c1.2,0.9,1.4,1.6,1.1,2.8
		C19.5,144.5,18.7,144.6,18.2,143.9z"/>
	<path style="fill:#FFFFFF;stroke:#000000;" d="M21.4,143.8c-0.4-0.7-0.1-1.5,0.2-2.4c0.8,0.4,1.4,1,1.6,1.8
		C22.9,143.6,22.6,144.2,21.4,143.8L21.4,143.8z"/>
	<path style="fill:#FFFFFF;stroke:#000000;" d="M35.3,125.7c0.2,1,0.3,1.7,1,2.6c0.8-0.8,0.9-1.4,0.6-2.5L35.3,125.7z"/>
	<path style="fill:#FFFFFF;stroke:#000000;" d="M38.4,126c-0.3,1.1,0.4,2,0.6,2.3c1.2-0.7,1-1.3,1.1-2.3H38.4z"/>
	<path style="fill:#FFFFFF;stroke:#000000;" d="M29.4,141.1c-0.3-0.3-0.7-0.7,0.1-1.9c1.2,0.1,1.4,0.8,1.5,1.6
		C30.4,141.1,29.9,141.3,29.4,141.1L29.4,141.1z"/>
	<path style="fill:#FFFFFF;stroke:#000000;" d="M23.4,141.2c-0.4-0.6-1-2.8,0.1-3.7c0.9,0.3,1.1,1.9,1.7,2.5c0.4,0.4,1.1,1.1,1,1.4
		c-0.2,0.4,0,0.7-1.1,1C24.3,142.7,23.9,142.2,23.4,141.2L23.4,141.2z"/>
	<path style="fill:#FFFFFF;stroke:#000000;" d="M19.8,125.9c0,0.8,0.2,1.3,0.8,2.3c1-0.6,1.2-0.8,1.2-2.1
		C21.2,125.3,20.5,125.8,19.8,125.9L19.8,125.9z"/>
	<path style="fill:#FFFFFF;stroke:#000000;" d="M33.7,139.7c-0.4-0.3-1.5-1.8-1.1-3.2c1.2-0.2,2.3,1.8,2.5,2.5
		C34.8,139.5,34.3,139.8,33.7,139.7L33.7,139.7z"/>
	<path style="fill:#FFFFFF;stroke:#000000;" d="M37.1,137.8c-0.4-0.2-0.8-0.5-0.4-1.9c1.2-0.2,1.6,0.4,1.8,1.1
		C38.2,137.5,37.7,137.8,37.1,137.8L37.1,137.8z"/>
	<path style="fill:#FFFFFF;stroke:#000000;" d="M39.9,135.6c-0.5-0.2-0.9-0.4-0.7-1.8c1.1-0.4,1.6,0.1,2,0.8
		C40.8,135.2,40.4,135.6,39.9,135.6L39.9,135.6z"/>
	<path style="fill:#FFFFFF;stroke:#000000;" d="M42,132.4c-0.5-0.1-0.9-0.3-0.8-1.7c1.1-0.5,1.6,0,2,0.7C43,132,42.6,132.4,42,132.4
		L42,132.4z"/>
	<path style="fill:#FFFFFF;stroke:#000000;" d="M19.2,137.3c-0.4-0.2-0.8-0.5-0.4-1.9c1.2-0.2,1.6,0.4,1.8,1.2
		C20.2,137.1,19.7,137.4,19.2,137.3L19.2,137.3z"/>
	<path style="fill:#FFFFFF;stroke:#000000;" d="M22,134.9c-0.4-0.2-1.4-1.5-1-2.9c1.2-0.2,2.2,1.4,2.5,2.1
		C23,134.7,22.6,135,22,134.9z"/>
	<path style="fill:#FFFFFF;stroke:#000000;" d="M24.8,132.7c-0.4-0.2-0.8-0.5-0.4-1.9c1.2-0.2,1.6,0.4,1.8,1.1
		C25.8,132.4,25.3,132.7,24.8,132.7L24.8,132.7z"/>
	<path style="fill:#FFFFFF;stroke:#000000;" d="M27.5,130.2c-0.4-0.2-0.8-0.5-0.4-1.9c1.2-0.2,1.6,0.4,1.8,1.1
		C28.5,129.9,28,130.2,27.5,130.2z"/>
</g>
</svg>
