<?xml version="1.0" encoding="utf-8"?>
<!-- Generator: Adobe Illustrator 17.0.0, SVG Export Plug-In . SVG Version: 6.00 Build 0)  -->
<!DOCTYPE svg PUBLIC "-//W3C//DTD SVG 1.1//EN" "http://www.w3.org/Graphics/SVG/1.1/DTD/svg11.dtd" [
	<!ENTITY ns_flows "http://ns.adobe.com/Flows/1.0/">
	<!ENTITY ns_extend "http://ns.adobe.com/Extensibility/1.0/">
	<!ENTITY ns_ai "http://ns.adobe.com/AdobeIllustrator/10.0/">
	<!ENTITY ns_graphs "http://ns.adobe.com/Graphs/1.0/">
]>
<svg version="1.1" id="Layer_2" xmlns:x="&ns_extend;" xmlns:i="&ns_ai;" xmlns:graph="&ns_graphs;"
	 xmlns="http://www.w3.org/2000/svg" xmlns:xlink="http://www.w3.org/1999/xlink" xmlns:a="http://ns.adobe.com/AdobeSVGViewerExtensions/3.0/"
	 x="0px" y="0px" width="612px" height="792px" viewBox="0 0 612 792" style="enable-background:new 0 0 612 792;"
	 xml:space="preserve">
<path style="fill:#0B0B0B;" d="M160,717c-4.5-2.7-6-6.9-5.9-11.8c0-3.2,0.3-6.3,0.6-9.5c0.4-4.6,1.2-9.3-0.8-13.8
	c-0.8-1.8-0.4-3.7,0.2-5.3c2.2-5.5,2.5-11.3,2.8-17.1c1-22.1,3.6-44.1,6.6-66c1-7.1,1.8-14.1,0.1-21.3c-1.4-6.1,1.9-11.7,2.7-17.6
	c2.7-22.3,5.9-44.5,6.7-67c0.3-8.5,0.5-16.9,2.5-25.3c1.1-4.7,1.6-9.6,1.3-14.4c-1-18.6,3.1-36.7,4.9-55.1c0.4-3.8,0.9-7.6-0.3-11.4
	c-0.5-1.5-0.4-2.9,0-4.4c3.8-14.1,4.7-28.5,5.4-43c0.4-7.6,3.3-14.5,4.3-22c1.9-15.6,1.2-31.3,2.8-46.9c0.4-4,0.5-8.1,1.5-11.9
	c1-4,0-6.6-2.9-9.1c-3.3-2.8-6.8-5.3-10.6-7.3c-6.1-3.3-11.5-7.3-14.5-13.9c-0.8-1.6-1.9-3.3-3.2-4.4c-6-4.8-5-10.9-3.4-17.1
	c1-4.1,2.5-8,4.8-11.4c4.7-7,8.8-14.4,13.3-21.7c5.7-9.4,15.4-12.6,25.6-13c7.9-0.3,12.2-2.7,15.9-10.3
	c9.3-19.2,21.9-36.2,39.2-49.1c12.5-9.3,27.2-13.6,42.2-17.1c1.8-0.4,4,0.1,5.3-1.8c10,0,20,0,30,0c8.9,2.2,17.9,4.4,26.7,6.8
	c13,3.5,24.6,9.9,35,18.5c5.5,4.6,11,9.2,16.4,13.8c3.4,2.8,5.6,6.7,7.5,10.4c12.8,24.5,21.7,50.1,18.3,78.4
	c-0.5,4.1-1.3,8.2-2,12.3c-1.3,6.9-1.3,7,5.5,7.7c7.6,0.8,17.5,11,15.9,18c-1.8,7.9-2.8,16-6,23.6c-7.7,18.3-21.1,29.2-41.1,31.1
	c-3.7,0.4-5.6,2-7.1,5.1c-3.3,7.1-6.4,14.3-10.2,21.1c-3,5.4-6.8,10.2-10.2,15.3c-3.4,5.1-6.2,10.6-7.9,16.6
	c-0.5,1.9-1.4,3.8-2.6,5.3c-16.3,21.8-29.5,45.4-42.7,69.1c-0.6,1.1-1.3,2.4-1.4,3.7c-0.5,9.4-5.7,16.5-11.5,23.2
	c-3.8,4.5-7.5,8.9-8.4,15c-0.4,2.6-2.2,4.4-3.8,6.3c-6.6,8-12.7,16.6-15.5,26.5c-2.2,8-6.6,13.9-11.9,19.7c-4.2,4.6-7.9,9.7-9,16.3
	c-0.6,3.9-3.5,6.8-6.1,9.6c-6.6,7-9.1,16.1-13.2,24.3c-1,1.9-1.8,3.9-2.9,5.7c-6.3,9.7-12.8,19.4-15.1,31.1
	c-0.1,0.6-0.3,1.4-0.8,1.8c-6.7,6-8.7,15-13.9,21.9c-4.5,5.9-5.4,13.6-10,19.4c-8.6,10.7-11.3,25.1-22.1,34.4
	c-3.4,2.9-3,7.7-5.2,11.4c-4,6.5-8.7,11.9-14.6,16.5C164.7,717,162.3,717,160,717z M166.3,707.3c0.8-0.2,1.7-0.1,2.4-0.6
	c1.8-1.2,4.2-2.4,4.3-4.5c0.1-2.4-2.7-0.6-3.9-1.7c-1.3-1.1-2.1-2.5-3-3.8c-1.2-1.8-1.5-4.3-3.6-6c-0.9,3.4,1,5.7,1.8,8.3
	c0.8,2.4,2.8,4.6,1.1,7.4c-0.6,0.8-2.7,1-1.6,2.3C164.6,709.7,165.5,708,166.3,707.3z M390,283.9c-1.8-1.3-3.3-1.3-4.3,1
	c-0.8-1.9-2.3-3.8-0.8-5.9c2.2-3,0.3-3.4-2.1-4.2c-4.9-1.8-10.4-1.7-14.9-3.5c-8.1-3.4-16.3-3.9-24.7-4.1c-4-0.1-5.9,1.7-5.1,5.8
	c-0.3,0.4-0.5,0.7-0.8,1.1c-5.7-9.1-6.5-9.5-15.2-6.7c-1.9,0.6-3.8,1.4-5.5,2.2c-5.6,2.8-11.9,4.1-17.3,7.5
	c-1.1,0.7-2.7,0.9-3.7-0.3c-0.5-0.5-0.6-1.6-0.4-2.3c0.4-1.9,1.9-0.5,2.9-0.7c8-2.1,15.8-4.8,23.7-9.6c-5.9-3.7-11.4-7.2-16.1-11.6
	c-1.8-1.7-3.8-3.5-6-4.4c-3.9-1.7-9.1-4.5-12-2.2s0.3,7.3,1.4,11.1c0.9,2.9,2.8,5.5,2.4,8.8c-3.8-5.2-5.3-11.4-7.2-17.3
	c-1.5-4.8,4.1-5.8,5.8-9.1c0.9-1.8,3.3,0.3,4.8,1c5.9,2.8,10.8,7,15.6,11.5c6.2,5.8,13.1,10.3,21.8,11c7.6,0.6,15.3,0.9,23,1.2
	c2.7,0.1,5.6,0.9,7.9-1.8c0.9-1,2.2-0.4,3.1,0.5c3.2,3.5,7.6,4.7,11.8,6.1c8.3,2.7,15.1,7.2,19.6,15.1c3.5,6.2,10.9,8.5,18,7.8
	c8.5-0.8,14.2-5.7,20.9-10.2c8.4-5.7,11.5-13.2,13.6-22.1c0.9-3.9,1.6-7.8,2.4-11.7c1.7-9.3-2.3-15.9-11.7-16.4
	c-9.6-0.5-10.4-5.5-9.1-12.6c3.6-20.2,3.2-39.8-3.1-60c-9.4-29.8-27.6-50.8-55.3-64.5c-35.8-17.8-70.5-15.5-104.3,4.9
	c-20,12-33,30.2-42.8,50.8c-3.7,7.7-8.9,12.1-17.4,12.7c-1.2,0.1-2.3,0.2-3.5,0.4c-6.9,1.3-13.9,2.2-18.1,9
	c-5.6,8.8-11.6,17.4-16.9,26.4c-3.1,5.2-3.7,10.9,0.8,16.2c1.7,2,2.8,4.5,4,6.9c1.6,3.3,3.9,5.7,7.5,6.9c6,1.9,11.1,5.2,15.4,9.7
	c3.6,3.8,8.1,5,13.1,4.6c3.6-0.3,7.3-0.7,10.9-1.4c14-2.9,27.5-7.4,41.6-10c8.7-1.6,14.9,2.9,22.2,5.1c2,0.6,1.8,2,0.2,3.2
	c-2.7,2.1-4.1,0-5.8-1.6c-1.2-1.1-2.4-2.7-4.3-1.9c-1.5,0.7-0.7,2.4-0.7,3.6c0.1,2.5-1.2,3.7-3.3,4.4c-8.7,2.7-16.9,6.8-25.3,10.4
	c-2.8,1.2-4.7,0.8-5.6-2.4c-0.8-2.9-1.9-5.7-3.1-8.4c-0.5-1.1-0.9-3.1-2.5-2.5c-1.8,0.6-1.1,2.4-0.8,3.9c0.6,3.8,3,7.3,2.2,11.8
	c-3.1-2.8-3.7-6.3-4.4-9.6c-0.6-2.4-1.5-2.8-3.7-2.5c-5.1,0.8-10.2,1.4-15.3,2c-9.7,1.1-12.1,4.9-9.6,14.5c0.9,3.5,2.6,6.8,2.3,10.6
	l0.1-0.1c-2.9,0.6-2.8-3.1-4.9-3.8c0,5.6-0.6,11,0.2,16.2c0.7,5.2,2.7,10.2,4.1,15.3c1.4,4.9,2.7,9.9,4.5,14.7
	c1.8,4.9-0.2,7.5-4.5,9.3c-3.1,1.3-6.1,2.6-8.6,4.9c-1.1,1-2.5,2.1-1.1,3.7c1.3,1.6,2.3,0,3.3-0.7c3.3-2.2,7-3.7,10.7-5.3
	c2.1-0.9,3.5-0.4,4.3,1.8c3.1,8.8,6.9,17.2,10.5,25.7c1.6,3.7,0.9,7.1-3.5,8.9c-4.6,1.9-9,4.2-13.6,6.1c-5.8,2.5-5.8,2.3-8.7-3.6
	c-1.7-3.4-1.7-7.6-5.1-11.2c-1.3,6.4,0.4,11.5,3.1,16.3c1.7,3.1,1.8,4.9-2.1,5.5c-0.8,0.1-1.6,0.6-2.2,1.1c-1.3,0.9-3.4,1.6-2.3,3.7
	c0.9,1.8,2.6,0.9,3.9,0.3c1.1-0.4,2.2-0.8,3.2-1.3c1.2-0.5,2.3-0.5,2.6,1.1c1.9,9.7,7.3,18.1,10.2,27.4c1.8,5.7,0.8,7.7-4.9,9.7
	c-6.1,2.2-12,4.7-18.1,6.9c-2.3,0.8-2.9,2-2.8,4.4c0.3,6.5,1.3,12.8,4.1,18.8c1.8,3.9,3.2,8,5,11.9c1.2,2.8,0.6,4.4-2.4,5.1
	c-0.2-5.8-3.1-10.4-6.1-15.1c-1,3.7-1.2,7.3-2,10.8c-0.8,3.8,0.2,6.2,4.1,7.1c-1.8,1.2-3.7,2.2-5.4,3.5c-0.6,0.4-1.3,1.2-1,2.1
	c0.6,1.4,1.7,0.7,2.5,0.4c3.6-1.3,7.2-2.5,10.7-4.1c3.2-1.5,5.2-0.7,6.8,2.4c3.4,6.4,6.8,12.9,10.7,19c6.6,10.4,6.4,11.6-5.2,15.6
	c-12.9,4.5-12.8,4.5-19.4-7.8c-1.8-3.4-3-7.4-6.3-10.3c-0.8,1.8,0,3.1,0.5,4.2c2.3,5.5,4.8,10.9,7.2,16.4c1.1,2.6,1.2,4.3-2.4,4.8
	c-2.6,0.4-5,1.8-7.5,2.6c-2.2,0.7-2.9,2.4-2.2,4.3c0.7,2,2.6,1,3.9,0.6c2.3-0.8,4.6-1.8,6.9-2.9c3.3-1.5,5.5-0.6,7.4,2.5
	c4.6,7.5,9.6,14.8,14.5,22.1c2.5,3.7,1.3,5.8-2.6,7.1c-4.4,1.4-8.9,2.8-13.3,4.2c-3.9,1.3-6.8,0.2-8.8-3.4c-1.9-3.5-3.8-7-5.8-10.4
	c-0.5-1-1-2.5-2.5-1.8c-1.3,0.6-0.6,2.1-0.2,3.1c1.6,3.8,3,7.7,4.8,11.4c1.6,3.2,1.3,5.2-2.4,6.3c-1.7,0.5-3.4,1.4-5,2.2
	c-1.2,0.6-2.6,1.4-1.8,3c0.7,1.4,2,0.6,3.1,0.2c2.1-0.9,4.3-1.7,6.4-2.7c1.7-0.8,3-0.5,3.9,1c5,8.2,11.1,15.7,15.5,24.3
	c1.2,2.3,0.3,3.2-1.6,4.2c-4.5,2.5-9.4,4-14.3,5.8c-5.1,1.9-9,1.6-11.1-4.2c-0.4-1.1-0.8-2.6-2.7-2.5c-1.6,4.4,1.6,9.4-2.2,13.7
	c-1.4,1.6,1.2,1.9,2.7,2c1.9,0.1,3.9-0.7,5.2,1.8c6.8,13.8,17.2,25.2,26,37.6c0.6,0.8,0.9,2.1,2.1,1.8c1.5-0.4,0.9-1.9,0.8-2.9
	c0-0.6-0.3-1.3-0.6-1.9c-2.7-4.6-0.4-6.7,3.7-8.5c2.9-1.3,6.4-2.3,8.3-7.1c-5.1,2.2-9.1,4-13.1,5.7c-2.3,1-4.5,1.4-6.3-1
	c-6-8.2-11.6-16.6-16.9-25.2c-1.5-2.4-0.4-3.4,1.8-4.3c4-1.5,7.9-3.5,12-4.8c3.4-1.1,6.4-5,9.5-4c3.4,1.2,4.7,5.7,6.8,8.9
	c3.1,4.6,6.5,8.8,11,12.1c1,0.7,2.2,1.5,3.2,0.6c1.3-1.1,0.5-2.4-0.3-3.5s-1.6-2.1-2.4-3.2c-3.6-4.6-7.1-9.2-10.7-13.8
	c-1.5-2-1.7-3.8,1.3-4.1c5-0.6,9-3.3,13.1-5.7c2.8-1.6,5.6-2.7,8.9-2.6c5.2,0.2,9.1-2.8,10.7-7.6c0.7-2.1-0.2-2.7-1.8-2.1
	c-4.4,1.7-5.9-1.3-7.5-4.3c2.4-0.2,5.6,4.4,7.3-1.1c0-0.1,0.7-0.1,0.9,0c3.8,2.5,4.8-0.5,6-3.1c2-4.4,4-8.7,5.8-13.1
	c0.5-1.2,1.9-3.1,0.1-4c-2-1.1-2,1.5-2.8,2.4c-0.6,0.7-0.7,1.9-2.5,1.6c2.5-6.2-3.1-8.3-6.6-9.6c-3.1-1.2-7.5,0.9-9.2,4.9
	c-0.9,2.1-1.8,0.3-2.7,0.3c-2.5,0.1-5.2,0.6-6.7,2.6c-1.8,2.3,0.9,3.9,1.9,5.5c2.3,3.6,5.1,7,7.6,10.5c0.6,0.9,2.4,1.6,1,3.1
	c-6-4.9-10-11.3-14.4-17.5c-1.7-2.5,0.2-3.8,2.1-4.4c7.6-2.5,14.7-6.1,21.9-9.3c2.1-0.9,3.2-0.8,4.7,0.9c1.9,2.3,4,4.4,6.3,6.4
	c1.2,1.1,2.7,3,4.6,1c1.6-1.6,0.3-3.1-0.6-4.4c-1.2-1.8-2.5-3.5-3.9-5.2c-1.3-1.6-0.9-2.6,0.7-3.5c1-0.6,2.1-1.3,3.3-0.8
	c2.2,1,0.7,2.9,0.8,4.4c0.2,1.7-0.6,4.2,2,4.3c2.7,0.1,2.5-2.4,2.2-4.1c-0.7-4.3,1.3-7.2,4.1-10.1c2.2-2.2,4.9-4.1,6.3-7.9
	c-7.5,1.3-12.6,7.3-19.9,7.2c0.1-0.5,0.1-0.6,0.1-0.7c2.6-2.4,5.1-4.7,9.1-4.2c1.1,0.2,2.2-0.7,2-2.2c-0.1-0.8-0.4-1.9,0.9-1.6
	c1.6,0.4,3.4,1.6,4.3-0.5c0.9-2-2-1.8-2.6-3c-0.3-0.7-0.4-1.6-0.6-2.5c-0.9,0.8-1.5,1.3-2.1,1.8c-0.6,0.6-1.3,1.1-2.2,0.5
	c0.8-7.3-0.8-10.8-6.1-13.4c-0.3-0.2-0.6-0.5-0.9-0.7c0.4-2.8-2.7-5.5-5.6-4.1c-6,2.9-12.8,4.1-18.4,8c-2.2,1.5-2.2,2.6-0.6,4.6
	c2.9,3.6,5.6,7.3,8.4,11c-0.4,0.3-0.7,0.7-1.1,1c-4.2-3.8-7.5-8.4-10.9-12.9c-2.1-2.7-1.4-4.4,1.5-5.7c7.4-3.3,14.9-6.6,22.3-9.9
	c2.4-1.1,4-0.6,5.5,1.6c5.2,7.6,11.5,14.2,17.5,21.2c0.8,0.9,1.4,2.9,2.9,2.2s2.1-2.7,1.8-4.3c-0.3-1.5-1.2-3.1-2.2-4.3
	c-3.6-4.6-7.4-9-11.1-13.5c-6.1-7.2-5.5-9,3.2-12.6c5.5-2.2,11-4.7,16.2-7.5c4.1-2.3,7.7-5.1,11,0.9c0.6,1.1,2,1.6,3,0.8
	c1.1-0.8,0.7-2.1,0.2-3.2c-0.4-0.9-0.9-1.8-1.6-2.5c-2.7-3.2-2.1-5.4,1.7-7.2c3.9-1.9,7.9-3.9,10-8.3c-4.5,1.9-8.8,4.1-13.1,6.4
	c-3.9,2.1-7.2,1.7-10.2-1.8c-4.6-5.5-9-11.2-12.7-17.3c-3-4.9-2.7-6,2.5-8.9c7.1-4,14.2-7.9,21.3-11.9c5.7-3.3,6.2-3.2,9.5,2.6
	c3.1,5.5,6,11.1,10.2,15.9c0.7,0.8,1.7,1.9,3,1.3c1.2-0.6,0.8-2,0.9-3.1c0.1-1.5-0.9-2.4-1.8-3.4c-3.8-4.5-6.4-9.7-9.1-14.8
	c-1.5-2.9-1.1-4.8,1.9-6.4c7.5-4,14.8-8.2,22.2-12.3c4.8-2.7,9.3-6.1,12.3-10.8c5.7-9.1,10.3-18.7,14.4-28.6
	c1.2-2.9,1.2-5.8,0.9-8.8c-0.2-2.3-2-3-3.8-3.3c-1.6-0.3-3.5-0.6-4.8,0.6c-1.8,1.6,2.2,1.6,0.9,3.7c-6.9-2.2-11.7,3-17.5,5.4
	c-2.6,1-3.5,3-2.1,5.6c1.7,3.2,9.4,2.8,11.5-0.5c0.3-0.4,0.6-0.7,1-1.1c3.6-0.5,2.6-3.4,2.9-5.6c0.2-1.6,0.9-2.6,2.6-2.1
	c1.8,0.5,1,1.8,0.6,2.8c-1.1,2.6-2,5.2-3.4,7.7c-1.7,3.1-3.1,6.8-8.1,4.1c-1.6-0.9-4.2-0.8-4.4,1.5c-0.3,2.3,2.4,1.9,3.8,2.1
	c3.8,0.4,4.7,1.8,3.2,5.5c-1.2,3-2.6,6.3,0.4,9.2c-1.3,1-2,0.2-2.4-0.4c-5.4-7.8-9-16.5-12.1-25.4c-0.6-1.8,0.4-2.7,1.8-3.6
	c8.4-5,17-9.6,25.9-13.6c3.2-1.4,4.5-0.2,4.8,3.1c0.1,1.8,0.7,3.6,1.3,5.3c0.4,1.1,0.6,3,2.3,2.5c1.3-0.3,1-1.9,1-3
	c0-2.4-0.3-4.8-0.4-7.2c3.7,4.2,4.5,0.1,5.5-2.1c0.6-1.3,2.9-3.4,0.5-4.5c-2.2-1-4.6,0.7-5.7,2.9c-0.5,1.1-0.2,2.6-0.2,3.9
	c-4.1-4.9-3.9-5.7,1.1-8.1c4.1-1.9,7.9-4.3,11.4-7.2c2.1-1.7,4.1-3.6,4.8-6.7c-3.1,0.3-5,2.1-7.1,3.3c-4.1,2.2-8.1,4.5-12.2,6.7
	c-0.8,0.4-2.6,1.2-2.5,0.6c0.3-4.2-4.5-3.8-5.6-7.1c-2.9-8.1-6.5-15.9-9.8-23.8c-1.1-2.5-0.6-4.3,2.1-5.5c5.4-2.5,10.7-5.3,16.1-7.8
	c12.5-5.7,12.5-5.7,17.4,7.1c2.1,5.5,3.6,11.2,6.9,16.5c4.2-4.3,0.9-8.8,1.2-13c2.3,0.1,1.1,3.1,3.3,3.7c3.3-3.6,4.3-7.9,2.9-12.5
	C397.8,287.7,395.1,284.3,390,283.9z M287.2,480.9c-0.5,0.1-0.9,0.1-1.4,0.2c-4.5-2.8-4.5-2.8-8.6,6.8c-1.8-1.1,1.9-4.7-2.1-4.8
	c-3.4-0.1-3,2.7-3.3,4.8c-1.7,0.1-3-1.6-4.5-0.6c-0.6,0.4-0.4,1.5,0.1,1.7c4.5,1.9,6.6,5.6,8,9.9c0.1,0.4,1.1,0.9,1.7,0.9
	c2.5-0.1,2.8,1.6,3.2,3.5c0.4,1.7,1,3.5,2.9,4.8c4.2-7.4,8.4-14.7,11.3-22.5c0.9-2.5,6-8.4-3.1-7.2c-0.1,0-0.3-0.2-0.4-0.3
	C286.8,475.2,286.5,477.5,287.2,480.9z M379,302.9L379,302.9c-0.7-1.9-3-4.3,1.4-4.9c0.9-0.1,1.6-0.5,1.6-1.6c0-2-5.4-5.8-7.5-5.2
	c-1.6,0.5-3.1,1.2-4.7,1.4c-5.9,0.6-10.1,4.8-15.3,6.9c-1.6,0.7-1.8,2.4-1.6,3.9c1.2,8.4,4,16.3,8.8,23.4c1.5,2.2,4.7,4.4,6.7,3.6
	c5.4-2.1,10.2-5.8,15.5-8.2c6-2.8,4.2-7.4,3.4-11.9C386.5,305.8,384.9,301.9,379,302.9z M300,455.9c-1-5.8,2-8.7,7.1-10.1
	c-1.8-2.3-4.1-3.9-4-7.1c3.1,0.4,3.7,4.7,7.1,3.4c-0.9,4.7-4.8,7.8-5.1,12.7c4.8-1.7,8.3-4.5,11.8-7.3c1.2-0.9,3.2-1.7,2.2-3.9
	c-1-2.1-2-4.3-4.7-4.6c-1-0.1-2,0.1-3,0.1c-4.5,0-5.4-1.6-3.3-6.1c1.3,0.3,0.8,1.6,1.3,2.4c0.3,0.5,0.6,1.4,1.5,0.8
	c0.7-0.5,1.5-1.3,0.7-2c-2.2-1.9-2-4.8-3.3-7.1c-1.8-3.1-4.7-4.6-8-3c-7.1,3.6-14,7.6-21,11.2c-2.4,1.2-2.5,2.6-1.2,4.7
	c3.3,5.4,6.8,10.6,10.9,15.4c1.4,1.7,2.6,5,5,4.1c2.8-1,1.4-4.3,1.2-6.7c0-0.2,0.2-0.4,0.3-0.6C297,453.5,297.2,455.7,300,455.9z
	 M208.4,331.2c-4,1.7-8.2,3.2-12.1,5.3c-2,1.1-2.4,3.5-2,5.8c1.6,8.2,4.7,15.8,7.9,23.5c0.8,1.8,1.7,2.5,3.8,1.4
	c4.5-2.5,9.1-4.7,13.7-7c2.2-1.1,2.8-2.5,1.8-4.8c-3-7-5.9-14-8.9-21C211.8,332.7,210.7,331.2,208.4,331.2z M181.9,481.8
	c0,0.3,0,0.8,0.1,1.3c3.4,7.9,7.3,15.5,11.9,22.8c0.9,1.4,2.1,1.5,3.5,1.1c4.6-1.3,9.1-2.9,13.3-5.3c2.1-1.2,2.8-2.6,1-4.7
	c-4.5-5.3-7.4-11.8-11.2-17.5c-3.7-5.5-13-6-17.5-1C182.3,479.3,181.9,480.3,181.9,481.8z M175.9,528.9c0.1,2.4,0.9,4.2,1.9,5.9
	c2.2,4.1,4.4,8.1,6.8,12.1c4,6.7,4,6.7,11.2,4.1c2.2-0.8,4.4-1.6,6.6-2c3.8-0.8,4-2.6,2.2-5.6c-3.4-6-7.5-11.6-10.8-17.8
	c-2.5-4.6-15.2-3.5-17.6,1.2C175.9,527.5,176,528.4,175.9,528.9z M212.5,612.3c-1.5-0.5-2-2.3-2.8-4.1c-2.4-5.7-8.7-9.4-13.5-7.9
	c-3.6,1.1-7.1,2.7-10.6,4.2c-1.3,0.6-2.8,1.1-1.7,3.2c4.1,8.2,10.2,14.9,15.7,22.1c1.1,1.5,2.9,1.4,4.5,0.3c1.4-0.9,1.7-1.9,0.3-3.1
	c-1-0.9-0.2-1.2,0.5-1.7c3.4-2.1,3.3-2.1,3.1-5.3c0-0.5,0.7-1,1-1.5c0.3-0.6,2.2-0.3,1.1-1.4C206.1,612.4,212.2,614.9,212.5,612.3z
	 M179,567.1c-3.6-0.1-7.7,3.2-7.9,6.5c-0.3,6.2,0.4,12.1,3.5,17.8c2.6,4.8,5.6,6.3,10.6,3.8c2.8-1.4,5.9-2.2,8.9-3.1
	c3.1-0.9,3.3-2.6,1.9-5.2c-3.3-6-7.1-11.5-11.1-17C183.2,567.6,180.9,567.6,179,567.1z M186.6,418.7c-0.4,2.3-0.4,4.2,2.3,3
	c5.6-2.4,11.2-5,16.7-7.6c1.3-0.6,2.6-1.4,1.9-3.4c-2.5-7.7-4.9-15.5-9.8-22.1c-1-1.4-2.4-3-4.6-2.4c-1.9,0.6-2.1,2.3-2.4,4
	C188.6,399.7,187.4,409.4,186.6,418.7z M168.9,645c-1.7,0.6-2.7-2-4.2-0.5c-1.1,1.1-0.5,2.5-0.2,3.8c0.5,2.2,2.2,1.6,3.6,1.5
	c2.2-0.3,3.5,0.8,4.4,2.5c2.4,4.7,4.9,9.4,7.1,14.2c1.4,3,0.3,5-2.9,6.1c-4.1,1.3-8.1,3-12.2,4.2c-2.1,0.6-4.5,0.8-3.4,3.5
	c1.1,2.8,2.9,0.3,4.5,0c7.3-1.4,13.9-7.7,22.2-3c0.2-2.8-0.5-5.8,3.3-7c-3.7-0.6-5.4-2.7-6.8-5.3c-1.4-2.8-3-5.6-4.4-8.4
	c-4.6-9.3-4.6-9.2,5-12.9c2.5-1,5.8-1.1,7-4.9c-1.9,0.2-3.6-0.1-4.8,0.5c-3.6,1.9-7.7,2.1-11.3,3.7c-2.6,1.1-4.1,1.3-4.8-2.1
	c-0.5-2.6-1.7-5.2-4.9-6.2C165.3,638.7,168.6,641.3,168.9,645z M166.9,622.9c0,1-0.1,2,0,3c1.1,10.2,8,15.4,16,12
	c4.6-1.9,5.5-3.8,3-8.3c-3-5.5-6.4-10.8-9.9-15.9c-2.2-3.3-5.6-3-7.4,0.6C167.3,617,166.9,619.9,166.9,622.9z M271.9,239.4
	c-0.6-1.6-1.3-3.1-3.3-3.9c-6.6-2.5-21.8,1.9-26.1,7.5c-2.2,2.9,0,4.9,1.1,7.1c1.1,2.1,2.6,1.9,4.6,1.1c7.1-3.1,14.3-6,21.5-8.9
	C271,241.8,272.2,241.3,271.9,239.4z M164,674.1c3.5-1.1,7-2,10.3-3.2c2.4-0.9,3.1-2.6,1.8-5.1c-1.6-3-3-6.2-4.3-9.4
	c-1.4-3.4-3.1-2.7-5.1-0.7c-1.2,1.1-2.4,2.3-2.7,4.1c-0.7,4.1-1.3,8.1-2.1,12.2C161.6,673.7,162.3,674.3,164,674.1z M338.2,404.9
	c0.1-0.8,0-1.7-0.7-1.7s-1.6,0.4-2.2,0.8c-4.2,3.2-7,7.3-9.3,12c-3.1,6.2-3.2,6.2-7,0.8c-0.8-1.1-1.3-2.6-2.8-0.9
	c-1,1.1-1.6,2.5,0,3.3c4,2.1,5.3,5.4,4.9,9.7c-0.1,1.2,0.5,2.4,1.6,2.8c1.3,0.5,1.6-0.9,2-1.7c4.4-8,8.7-15.9,13-23.9
	C337.9,405.7,338,405.2,338.2,404.9z M201.2,297.4c-3,9-2.7,17.9-4.6,26.4c-0.3,1.2,0.5,1.4,1.4,1.3c3.2-0.1,9.9-6.4,9.1-9.3
	C205.5,309.8,205,303.5,201.2,297.4z M186.9,658.7c2-1.1,6.7,1.8,4.1-3.6c-0.1-0.3,0.2-1.1,0.4-1.1c5.6,0,1.2-3.8,1.1-4.4
	c-1-3.4-5.1-4.5-8.7-3c-4,1.7-3.2,4.4-1.7,7.3c1.6,2.9,3.2,5.8,4.8,8.7c0.4,0.8,0.8,2.1,1.9,1.8c0.7-0.2,1.3-1,1.7-1.7
	c1.1-1.9-1-1.5-1.7-2.2C188.4,659.9,187.8,659.4,186.9,658.7z M168.8,694.4c0.7-0.5,1.7-0.8,1.7-1.2c0.4-3.9,3.4-6.7,4.6-10.2
	c0.2-0.7,0-2.2-0.7-1.7c-2.2,1.5-5.1-0.2-7,1.9c-1.3,1.4-3.7,2.6-2.9,4.7C165.3,690.2,167.3,692.2,168.8,694.4z M226.1,609.2
	c3.4-6.6,6.6-12.5,9.6-18.4c0.4-0.8,0.7-2-0.3-2.7c-0.8-0.4-1.5,0.3-2.1,0.9c-3.2,2.7-1.7,9.4-8,9.4
	C228.8,601.5,223.1,604.9,226.1,609.2z M218.8,594.7c-1.7-0.2-2.6-3.7-4.4-1.6c-1.6,1.9,0.7,3.1,2.3,4c1.6,1,1.1,3.1,2.2,4.3
	c0.6,0.7,1,1.9,2.2,1.6c1.3-0.3,1.1-1.6,0.8-2.5c-0.8-2.3-0.4-4.3,1.2-5.9c1.4-1.4,0.8-2.2-0.6-3.1
	C217.9,588.5,219.7,593.3,218.8,594.7z M178.1,509.5c0.2,1.6-0.1,3.8,2.1,3.2c2-0.5,5.5-0.5,5.1-3.5c-0.3-2.8-2-7.1-4.5-7
	C177.3,502.6,179.5,507.3,178.1,509.5z M215.2,626c2.4-1.2,4.2-3.2,4.8-6.1c0.2-1,0-2.4-1.3-1.9c-2.8,1-4,3.7-5,6.3
	C213.4,625.1,213.9,625.8,215.2,626z M173,556.1c0.3,1.1-0.7,2.9,1.1,2.9c2.1,0,3.8-1,4-3.4c0.1-1.8-0.7-3.8-2.3-3.8
	C173.2,551.7,173.9,554.6,173,556.1z M194.3,663.2c4.5-5.1,6-8,5.6-12.4C198.1,655.3,194.8,658,194.3,663.2z"/>
<path style="fill:#0F0F0F;" d="M283,376.5c0.3,2.2-1,3.5-2.7,4.4c-9.6,4.9-19.3,9.6-28.9,14.4c-2.9,1.5-4.8,0.5-6-2.2
	c-4.3-9.3-8.5-18.6-12.9-27.9c-1-2.1-0.5-3.5,1.2-4.7c10.2-6.9,21.4-11.9,32.2-17.7c2-1.1,3.4,0,4,1.6c3.4,10.6,8.9,20.3,12.9,30.6
	C283,375.5,283,376,283,376.5z M262.8,349.3c0.3-0.1-0.8-0.1-1.6,0.3c-8,4-15.9,8.1-23.8,12.1c-1.8,0.9-1.3,2.4-0.8,3.9
	c2.7,8.5,6.5,16.6,10.9,24.4c1.7,2.9,3.7,3.3,6.5,1.6c7.5-4.6,15.3-8.5,23.3-12.2c2.4-1.1,3.2-2.3,1.9-5c-3.6-7.4-6.9-15-10.3-22.5
	C268,349.9,266.4,348.9,262.8,349.3z"/>
<path style="fill:#101010;" d="M305,323.2c1.5-0.1,1.8,0.8,2.3,1.7c4.6,9.9,9.1,19.8,13.8,29.7c1.5,3.1,0.2,4.5-2.3,5.7
	c-8.9,4.5-17.7,9-26.5,13.7c-3.1,1.7-4.8,0.7-6.4-2.1c-5-9-9.1-18.3-12.4-28.1c-0.6-1.7-1-3,1.1-4.1c9.6-5.2,19.1-10.6,28.7-15.8
	C303.9,323.6,304.6,323.4,305,323.2z M317.1,355.1c0.3-1.3-0.4-2.6-1.1-4c-2.7-5.7-5.5-11.3-8.3-17c-2.2-4.5-5.6-5.3-9.9-3.1
	c-6,3.2-11.9,6.6-17.9,9.7c-2.7,1.4-2.8,3.2-2.1,5.8c2.2,8.2,6.3,15.6,10.4,23c1.4,2.6,3.5,2,5.5,0.9c6.8-3.5,13.5-7.1,20.3-10.6
	C315.7,359,317.4,357.9,317.1,355.1z"/>
<path style="fill:#121212;" d="M302.6,411.9c-0.3,2.2-1.6,3.8-3.3,4.8c-8.8,5.2-18.1,9.7-27.4,14c-2.1,0.9-3.5-0.1-4.7-1.6
	c-6.6-7.8-10.4-17.2-15.5-25.9c-0.9-1.6-0.4-2.5,1-3.2c10.6-5.4,21.2-10.8,31.8-16.2c1.6-0.8,2.8-0.7,3.6,1.2
	c3.7,8.9,8,17.4,13.7,25.2C302.2,410.6,302.4,411.3,302.6,411.9z M297.9,411.6c-0.2-0.5-0.3-1-0.5-1.4c-2.9-7.1-6.9-13.6-11.6-19.6
	c-1.1-1.4-2.3-1.4-4-0.8c-8.1,3-15.8,6.9-23.3,11.2c-2.6,1.5-3.3,3.6-1.6,6.3c3.4,5.7,6.8,11.4,10.2,17.1c1.6,2.7,3.8,3.1,6.8,2
	c6.9-2.5,13.1-6.5,19.6-9.7C295.4,415.7,297.1,413.9,297.9,411.6z"/>
<path style="fill:#0F0F0F;" d="M248.4,301.3c-6.8,4.6-14.4,7.9-21.8,11.5c-0.7,0.4-1.6,0.5-2.3,0.9c-7.7,3.6-7.6,3.6-10.2-4.2
	c-2.3-6.9-4.7-13.8-7.2-20.6c-2.5-6.8-1.9-8.6,4.3-11.9c6.9-3.7,13.6-7.5,20.5-11.2c6.1-3.2,7.6-2.5,9.7,3.9
	c2.5,8.1,5.1,16.1,7.7,24.1c0.5,1.7,1.5,3.3,0.3,5.4c-2.6-1.9-3.2-5-4.2-7.6c-2-5.4-3.5-11-5.4-16.5c-2-5.7-4.7-6.7-10.2-4.3
	c-5.6,2.5-11,5.5-16.2,8.8c-3.8,2.4-4.9,5.3-3.1,9.6c2.7,6.4,5,12.9,7.3,19.5c1.1,3.1,2.5,3.8,5.5,2.3c6.1-3,12.2-5.9,18.4-8.7
	c2-0.9,4.2-1.6,6.3-2.4C248.1,300.4,248.2,300.9,248.4,301.3z"/>
<path style="fill:#131313;" d="M250.9,305.9c2.3-0.6,2.6,1.1,3,2.2c3.5,8.9,6.8,17.9,10.3,26.8c1.2,2.9,0.4,4.7-2.3,6.1
	c-9.1,4.7-18.2,9.5-27.2,14.4c-3,1.6-3.9,1.2-5.1-2.2c-3.3-9-7.3-17.7-10.3-26.8c-1.1-3.3-0.7-5.3,2.7-7c8.8-4.3,17.5-8.7,26.5-12.5
	C249.4,306.5,250.3,306.1,250.9,305.9z M247.7,311.9c-2.3-0.3-4.5,0.6-6.6,1.6c-4.6,2-8.9,4.5-13.6,6c-5,1.6-5.3,4.3-4,8.7
	c2.1,7.2,5.5,13.8,7.9,20.9c1,3,3,3,5.5,1.7c7.2-3.9,14.3-7.8,21.5-11.4c3.1-1.6,3.5-3.5,2.2-6.4c-2.5-5.8-4.8-11.6-7.1-17.5
	C252.5,312.9,250.8,311.4,247.7,311.9z"/>
<path style="fill:#131313;" d="M341.1,303c2.3,0.6,3.3,2.6,4.2,4.5c3,6.8,5.8,13.7,8.7,20.5c0.7,1.7,1,3.7,2.2,5
	c4.1,4.5,1.9,6.7-2.5,8.9c-7.4,3.7-14.7,7.7-21.9,11.7c-2.5,1.4-4.2,1-5.6-1.5c-5.4-9.5-9.5-19.6-13.6-29.8c-0.6-1.6-0.3-2.6,1-3.3
	c8.7-5.1,17.4-10.2,26.2-15.3C340.1,303.5,340.6,303.3,341.1,303z M351,340c0.4-3.5,2.4-6.6,1.2-9.8c-2.1-5.6-4.3-11-6.6-16.5
	c-1.1-2.7-2.1-6.3-5.9-5.6c-4.1,0.8-9.2,1.6-10.7,6c-0.9,2.6-1.5,2.7-3.7,2.8c-8.4,0.1-10.6,3.5-7.4,11.2c0.3,0.8,0.8,1.5,1,2.3
	c1.3,6.2,6.9,10.7,7.4,17.4c0.1,1.4,1.9,3.9,3.9,3c4.8-2.3,9.8-4.1,14.3-7.3c2.5-1.8,4.2-3.2,2.5-7.7C349.1,337.9,350,338.9,351,340
	z"/>
<path style="fill:#101010;" d="M339.6,392.3c-0.1,1.3-1.2,1.9-2.1,2.5c-8.1,5.5-16.5,10.4-25.4,14.6c-2.6,1.2-4.5,0.7-6.2-1.3
	c-6.4-7.6-10.2-16.6-13.9-25.6c-0.7-1.6,0-2.8,1.5-3.7c9.1-5.7,18.9-10.3,28.8-14.5c1.7-0.7,3.1-0.7,4.1,1.3
	c4.2,8.4,8.5,16.8,12.7,25.2C339.3,391.3,339.4,391.8,339.6,392.3z M333.1,391.6c-0.4-1-0.7-1.6-0.8-2.2c-0.9-4.7,0.8-10.5-5.7-12.8
	c-0.2-0.1-0.3-0.8-0.3-1.3c-0.1-6-3.5-8.2-8.9-5.8c-6.2,2.8-12,6.6-18.2,9.1c-4.4,1.8-4.1,3.7-3.1,7c0.9,3,4.3,4.6,4.8,7.2
	c0.7,4.3,3.3,7.5,4.9,11.3c1.9,4.5,4.2,3.9,7.3,1.4c1.5-1.2,2.7-2.9,5-3c4.4-0.2,6.7-4.6,10.8-5.3c0.6-0.1,1.2-1,0.6-1.6
	C325.4,390.6,330.6,392.3,333.1,391.6z"/>
<path style="fill:#131313;" d="M288.6,277.7c-2.9-2-3.5-4.8-4.6-7.3c-2.4-5.3-4.6-10.6-6.8-16c-1.6-3.8-4.1-5-7.9-3.3
	c-6.8,3-13.6,6-20.4,9c-1.7,0.7-2.1,1.8-1.4,3.6c3.3,9,6.6,18,9.8,27.1c0.9,2.5,2.3,2.2,4.2,1.3c7.6-3.6,15.5-6.8,22.8-11
	c0.9-0.5,2-2,3-0.7s-0.3,2.5-1.5,3.1c-8.7,4.4-17.5,8.7-26.2,13.1c-2.3,1.2-3.6-0.3-4.2-2.1c-3.9-10.2-8-20.3-10.6-30.9
	c-0.6-2.5,0.4-3.5,2-4.4c8.4-5,17-9.6,26.3-12.9c3.2-1.1,5.7-0.7,6.6,3.4c1.6,7.6,5.1,14.7,8.2,21.8
	C288.4,273.2,289.8,275,288.6,277.7z"/>
<path style="fill:#101010;" d="M303.3,316c0.3,3.7-2.3,5.2-4.7,6.5c-8.2,4.2-16.6,8.2-24.9,12.4c-2.4,1.2-3.7,0.9-5-1.7
	c-4.5-8.7-7.4-18-10.7-27.2c-0.7-1.9-0.1-3,1.7-4c9.1-4.7,18.1-9.6,27.8-13.2c1.9-0.7,3.7-1.3,4.9,0.7
	C297.2,297.9,300.5,306.9,303.3,316z M286.7,292.9c-1.3,0.1-2,0-2.6,0.2c-7,3.3-14,6.6-20.9,10.2c-1.7,0.9-2.3,2.7-1.7,4.8
	c2,6.8,4.3,13.6,7.3,20c1.4,2.9,3.6,3.6,6.6,2.4c8.1-3.4,15.9-7.5,23.5-11.9c1.9-1.1,2.6-2.4,1.6-4.5c-3.1-6-6.1-12.1-9.2-18.1
	C290.2,294,288.6,292.6,286.7,292.9z"/>
<path style="fill:#121212;" d="M202.9,380.7c-0.2-2.5,1.5-4,3.1-5.3c5.7-4.7,12.4-7.5,19-10.6c2.6-1.2,3.4,0.6,4,2.2
	c3.4,9.9,8.5,19,12.3,28.6c1.3,3.4,0.2,5.3-2.5,7.1c-6,3.9-12.7,6.3-19.3,9c-1.4,0.6-2.1,0.2-2.8-1c-5.8-8.9-10-18.6-13.7-28.5
	C202.9,381.7,202.9,381.2,202.9,380.7z M220.5,371c-4.7,2-10,3.9-14.7,7c-1.4,1-0.8,2.3-0.3,3.6c3.6,8.4,7.6,16.5,12.1,24.4
	c1.2,2.2,2.6,2.7,4.8,1.6c4.4-2.2,8.9-4.3,13.4-6.5c2.9-1.4,3.7-3.3,2.2-6.4c-3-6.1-6-12.2-8.7-18.4
	C227.8,372.5,224.6,371.7,220.5,371z"/>
<path style="fill:#0F0F0F;" d="M229.1,447.5c-0.1,1.8-1.5,2.7-2.6,3.5c-7.2,4.9-15.4,7.5-23.4,10.9c-2,0.8-3.1-0.8-3.9-2.2
	c-4.9-8.5-9.1-17.3-12.7-26.3c-0.9-2.3-0.1-3.5,1.9-4.3c7.8-3.2,15.6-6.4,23.4-9.6c1.9-0.8,3.1-0.4,4.1,1.4
	c4.2,8.4,8.5,16.9,12.7,25.3C228.8,446.6,229,447.1,229.1,447.5z M225.8,448.7c-0.1-0.3-0.3-0.6-0.4-0.9
	c-3.5-7.3-6.8-14.7-11.6-21.2c-1.3-1.8-3.2-3.3-5.5-2.3c-5.3,2.4-11,3.5-16.1,6.4c-1.7,1-2.5,1.9-1.6,3.9c3.1,7.1,6.2,14.2,10,21
	c1.2,2.2,2.8,3.1,5.3,2.1c6.1-2.5,12.2-5,18.3-7.5C224.8,449.9,225.8,449.9,225.8,448.7z"/>
<path style="fill:#131313;" d="M244.5,404.5c1.7,0.1,2.8,1,3.5,2.4c4,8.6,8.7,16.7,13.7,24.7c1.7,2.6,1.2,4.3-1.7,5.8
	c-6.8,3.5-13.6,6.8-20.6,9.7c-2,0.8-3.5,0.7-4.8-1c-6.6-8.8-11.3-18.7-16.2-28.4c-0.6-1.3-0.3-2.2,1-2.8c7.7-3.3,15.5-6.7,23.2-10.1
	C243.1,404.7,243.8,404.6,244.5,404.5z M241.9,409.7c-6.2,1.6-12.7,4.5-19,7.7c-1.4,0.7-0.9,1.8-0.3,3c3.9,7.3,7.8,14.6,12.4,21.5
	c1.3,2,2.9,2.6,5.1,1.8c5.7-2.2,11.4-4.4,16.6-7.7c2.1-1.3,2.6-2.6,1.3-4.8c-3.7-6.3-7.3-12.6-10.9-18.9
	C246.1,410.4,244.8,409.5,241.9,409.7z"/>
<path style="fill:#131313;" d="M224,496.4c-2.4-0.3-3.3-2-4.5-3.3c-5.8-6.7-10.7-14-14.5-22c-1.5-3.1-1.3-5.1,2.2-6.7
	c7.1-3.3,14.2-6.3,21.6-8.9c3.1-1.1,5-0.5,6.8,2.7c4.8,8.2,9.9,16.1,15.2,24c2.3,3.4,1.5,5.2-1.9,6.8c-7.3,3.4-14.5,7-22.7,10.9
	c1.2-4.1,3.7-4.8,5.8-5.8c4.8-2.2,9.7-4.3,14.6-6.4c2.6-1.1,3.1-2.7,1.3-5c-4.4-5.8-8.3-12-12.1-18.2c-3.1-5-6.4-6-11.9-4.1
	c-4.4,1.5-8.6,3.5-12.9,5.1c-3.4,1.3-3.6,3.1-2,6.1c3.8,6.8,8,13.4,12.7,19.6C222.7,492.6,224.2,493.8,224,496.4z"/>
<path style="fill:#101010;" d="M210.8,552.1c3.5-0.4,4.8,0.9,5.9,2.4c4.8,6.6,9.8,13,15,19.3c3,3.5,2.4,5.2-2,6.9
	c-6,2.3-12.2,4.3-18.2,6.7c-3.3,1.3-5.4,0.9-7.4-2.3c-4.4-7-9.3-13.8-13.9-20.7c-1.9-2.9-2.3-4.7,2.3-5.7c5-1.1,9.6-3.6,14.4-5.4
	C208.6,552.7,210.4,552.2,210.8,552.1z M227.1,578.2c0.1-2.8,2.9-6.7-3.2-5.3c-1.2,0.3-2.2-0.2-1.8-1.5c1.8-6.2-3.6-9-6.3-13
	c-1.9-2.8-5.1-3.2-8.1-2.2c-4.1,1.3-8.1,2.9-12.1,4.4c-1.7,0.7-2.9,1.5-1.6,3.7c3.9,6.7,8.1,13.3,13.2,19.3c2.1,2.4,5.8,1.9,6.1-0.4
	c0.5-3.5,2.1-2.1,3.7-2c2.3,0.1,5.4,0.4,5.8-2.4C223.4,573.6,225.2,577.3,227.1,578.2z"/>
<path style="fill:#121212;" d="M261.4,480.8c2.4-3.1,6.1-4.3,9.4-6.3c2.2-1.3,5.1-1.9,6.1-4.7c0.7-1.9,1.8-0.8,2.7-0.7
	c1.9,0.2,4,0.1,4.6-2c0.7-2.4-1.4-3.5-3.2-4.4c-1.9-0.9-2.9-1.4-3.4-4.2c-1.7-9.5-11.3-14.6-20.3-11.4c-4.2,1.5-8.2,3.6-12.4,5.2
	c-2.7,1.1-2.8,2.4-1.4,4.9c3.8,6.6,8.1,12.9,12.8,19c1.2,1.5,2.8,2.9,2.5,5.2c-1.2,0.7-1.8-0.4-2.4-1c-6.6-7.3-12-15.5-16.7-24.1
	c-1.5-2.8-0.7-4.3,1.9-5.5c7.7-3.4,15.5-6.8,23.1-10.4c2.7-1.3,3.7,0.3,4.9,1.8c5.8,7.5,11.5,15.1,17.4,22.5c1.5,1.9,1,3-0.7,4
	C278.6,473.7,270.3,477.7,261.4,480.8z"/>
<path style="fill:#131313;" d="M334.9,288.1c-2.4-2.2-3.3-5.2-4.9-7.9c-3-4.9-5.9-6-11.2-4.1c-5.3,1.9-10.5,4.1-15.8,6
	c-2.5,0.9-3.3,2.1-2.2,4.8c2.6,6.4,4.9,13,7.3,19.5c0.9,2.5,2.8,3.2,5.2,2.6c9.6-2.6,17.2-8.6,25.1-13.8c0.7,2.9,0.8,3.3-1.8,4.7
	c-7.7,4.3-15.2,8.7-23.2,12.4c-3.5,1.6-5.6,0.9-7-2.6c-3-7.5-6.1-15-9.3-22.4c-1.2-2.9-0.2-4.8,2.5-6c9-4.1,18.1-8.2,27.1-12.3
	c1.6-0.7,3-1.1,3.2,1.2c0.4,6.3,3.7,11.6,5.6,17.4C335.3,287.7,335.1,287.9,334.9,288.1z"/>
<path style="fill:#131313;" d="M238.1,535.6c-6.3,3.7-12.6,7-19.8,8.3c-2.3,0.4-3.8-1-5.1-2.6c-5.7-7.3-11.2-14.8-16-22.8
	c-1.6-2.7-1.1-4.1,1.9-5c6.8-2.1,13.6-4.3,20-7.3c1.7-0.8,3.1-0.4,4.3,1.1c5.6,7.4,11.4,14.7,17,22.1c1.1,1.5,2.5,3.2,1,5.4
	c-5.5-8.5-12.3-15.8-19.1-23.1c-1-1.1-1.8-2-3.7-1.2c-4.6,1.9-9.3,3.4-14,5c-3.2,1.1-3.6,3-2,5.8c3.6,6.6,8.4,12.4,13.2,18.1
	c1.8,2.2,4,1.6,6.4,1C227.5,539,232.3,535.7,238.1,535.6z"/>
</svg>
