<?xml version="1.0" encoding="utf-8"?>
<!-- Generator: Adobe Illustrator 22.1.0, SVG Export Plug-In . SVG Version: 6.00 Build 0)  -->
<svg version="1.1" id="Layer_1" xmlns="http://www.w3.org/2000/svg" xmlns:xlink="http://www.w3.org/1999/xlink" x="0px" y="0px"
	 viewBox="0 0 1517.3 1173.4" style="enable-background:new 0 0 1517.3 1173.4;" xml:space="preserve">
<g>
	<path style="fill:none;stroke:#000000;stroke-width:8;stroke-miterlimit:10;" d="M882.3,38.6c8.2-1.2,16.4-2.8,24.7-3.4
		c34.6,75.8,68.8,151.9,103.3,227.8c-0.3,0.2-0.8,0.6-1.1,0.8C768.4,305.5,527.6,347.1,286.9,389c-0.2-0.2-0.7-0.5-0.9-0.7
		c-0.3-1.8-0.7-3.7-1.3-5.4c-21.8-62.6-43.6-125.2-65.4-187.8c-6.3-18.3-13-36.4-18.9-54.8c47.9-7.5,96-14.3,143.9-21.6
		C523.6,92,702.9,65.2,882.3,38.6L882.3,38.6z"/>
	<path style="fill:none;stroke:#000000;stroke-width:8;stroke-miterlimit:10;" d="M1201.5,35c58.7,49.2,117.2,98.7,175.8,148
		c31.3,26.3,62.6,52.7,93.8,79.1c2.5,1.5-0.6,3.7-1.5,5.2c-64.3,77.7-128.5,155.4-192.8,233c-0.9-0.6-1.9-1.3-2.8-1.9
		c-1.6,1.1-3.4,2-4.7,3.6c-1.7,2.7-2.2,6.1-4.7,8.3c-1.8,1.6-2.8,3.6-3.4,5.9c-74.2-74.8-148.4-149.7-222.8-224.3
		c-5.9-6.2-12-12.1-17.9-18.3c-3.5-3.3-6.5-7-10.3-9.8l-1-0.1c0.3-0.2,0.8-0.6,1.1-0.8c4.5-4.2,7.9-9.4,12.1-13.9
		c50.8-60.9,101.7-121.7,152.5-182.5C1183.8,56.1,1192.4,45.4,1201.5,35L1201.5,35z"/>
	<path style="fill:none;stroke:#000000;stroke-width:8;stroke-miterlimit:10;" d="M45.3,256.8c13.5,6.6,26.4,14.2,39.7,21.3
		c64.9,35.5,129.8,71,194.7,106.5c2.1,1.1,4.3,2.3,6.3,3.7c0.2,0.2,0.7,0.5,0.9,0.7c0.3,0.2,0.8,0.6,1.1,0.8
		c35,60.4,70.5,120.5,105.6,180.9c13.5,23.7,27.6,47.1,41.2,70.8c7.2,11.9,13.9,24.1,21.2,35.9c-4.5-0.2-7.8-3.5-11.6-5.5
		c-51.9-29.6-104.1-59-155.9-88.8c-0.2,1.9-0.4,3.9-0.5,5.9c-0.2-1.7-0.4-3.5-0.5-5.2c-27.6-16.4-55.6-32.4-83.3-48.8
		c-4.8-6.5-8-14-12.2-20.8c-38.9-68-77.8-136.1-116.6-204.2C65.4,292.2,55,274.7,45.3,256.8L45.3,256.8z"/>
	<path style="fill:none;stroke:#000000;stroke-width:8;stroke-miterlimit:10;" d="M286.9,389c240.8-41.9,481.6-83.5,722.4-125.3
		l1,0.1c-3.1,102.1-7.3,204.3-10.4,306.4c-178.8,36-357.7,71.9-536.5,108c-1.8,0.3-3.6,0.6-5.3,0.9c-0.3-0.1-0.9-0.2-1.2-0.3
		c-0.3-0.5-0.6-0.9-0.8-1.4c-7.3-11.8-14-24-21.2-35.9c-13.7-23.7-27.7-47.1-41.2-70.8c0.7-1.9,0.5-3.9-0.7-5.5
		c-5.8-8.9-10.7-18.5-16.2-27.6c-5.1-10.1-11.4-19.4-16.8-29.3c-6.8-11.3-12.6-23.3-19.5-34.5c-7.9-12.7-15.1-25.8-22.3-38.8
		c-8.2-13.8-16-27.9-24.1-41.8c-1.1-2.3-3.9-2.5-6-3.4C287.7,389.6,287.1,389.2,286.9,389L286.9,389z"/>
	<path style="fill:none;stroke:#000000;stroke-width:8;stroke-miterlimit:10;" d="M1261.2,516.3c-0.1,0.4-0.3,1.2-0.3,1.6
		c-77.2,15.3-154.2,31-231.3,46.4l0,0c-9.9,2-19.8,4-29.7,6c3.1-102.2,7.3-204.3,10.4-306.4c3.8,2.8,6.9,6.6,10.3,9.8
		c5.9,6.2,12,12.1,17.9,18.3l0,0C1112.9,366.6,1187,441.5,1261.2,516.3z"/>
	<path style="fill:none;stroke:#000000;stroke-width:8;stroke-miterlimit:10;" d="M287.9,389.9c2.1,0.8,4.9,1,6,3.4
		c8.1,13.9,15.9,27.9,24.1,41.8c7.2,13.1,14.4,26.2,22.3,38.8c6.9,11.3,12.7,23.2,19.5,34.5c5.4,9.9,11.7,19.2,16.8,29.3
		c5.5,9.1,10.4,18.7,16.2,27.6c1.3,1.6,1.4,3.6,0.7,5.5C358.4,510.4,322.9,450.3,287.9,389.9L287.9,389.9z"/>
	<path style="fill:none;stroke:#000000;stroke-width:8;stroke-miterlimit:10;" d="M1269.4,502.1c1.2-1.6,3-2.5,4.7-3.6
		c0.9,0.6,1.8,1.2,2.8,1.9c-4.3,5.9-9.7,10.9-13.6,17.1c49.1,5.7,98.1,11.3,147.2,17c0.8,0,1.4,0.3,1.9,0.8
		c-44.9,9.4-89.8,18.8-134.8,28.2c-5.7,1.3-11.4,2.3-17,3.8c-18.9,3.3-37.6,7.8-56.4,11.5c-203.3,42.5-406.6,85-609.9,127.4
		c-8.9,1.6-17.7,4.2-26.7,5.3c-30.8-8.5-61.4-17.8-92.2-26.6c-5.7-2.1-11.9-2.8-17.3-5.6c1.8-0.3,3.6-0.6,5.3-0.9
		c178.8-36,357.7-72,536.5-107.9c9.9-2,19.8-4,29.7-6c77.1-15.4,154.2-31.2,231.4-46.4c0.1-0.4,0.3-1.2,0.3-1.6
		c0.6-2.2,1.7-4.3,3.4-5.9C1267.2,508.2,1267.6,504.8,1269.4,502.1L1269.4,502.1z"/>
	<path style="fill:none;stroke:#000000;stroke-width:8;stroke-miterlimit:10;" d="M1204.2,578.7c18.8-3.7,37.5-8.2,56.4-11.5
		c-5.3,128.9-10.6,257.8-15.9,386.7c-0.1,3.2-0.1,6.4-0.6,9.6c-253.4,58.2-506.8,116.6-760.1,174.9c-9-152.1-17.8-304.3-26.7-456.4
		c-0.1-0.8-0.4-2.3-0.5-3.1c0.3,0.1,0.9,0.2,1.2,0.3c5.4,2.9,11.6,3.6,17.3,5.6c30.7,8.8,61.4,18.1,92.2,26.6
		c9-1.1,17.8-3.6,26.7-5.3C797.6,663.7,1000.9,621.2,1204.2,578.7L1204.2,578.7z"/>
	<path style="fill:none;stroke:#000000;stroke-width:8;stroke-miterlimit:10;" d="M288.4,583.2c51.8,29.8,103.9,59.2,155.9,88.8
		c3.8,2,7.2,5.3,11.6,5.5c0.3,0.4,0.5,0.9,0.8,1.4c0.1,0.8,0.4,2.3,0.5,3.1c8.9,152.1,17.7,304.3,26.7,456.4
		C422.9,1033.1,362,927.6,301,822.2c-1.2-1.9-1.1-4.2-1.2-6.3c-3.9-75.6-8.1-151.3-11.9-226.9C288.1,587.1,288.2,585.2,288.4,583.2z
		"/>
</g>
<g>
	<path style="fill:none;stroke:#000000;stroke-width:8;stroke-miterlimit:10;" d="M2133.3,321.9c5.6-0.8,11.1-1.9,16.8-2.3
		c23.5,51.4,46.7,103,70.1,154.5c-0.2,0.1-0.6,0.4-0.7,0.5c-163.3,28.3-326.7,56.6-490,85c-0.2-0.1-0.5-0.4-0.6-0.5
		c-0.2-1.3-0.5-2.5-0.9-3.7c-14.8-42.5-29.6-84.9-44.4-127.4c-4.3-12.4-8.8-24.7-12.8-37.2c32.5-5.1,65.1-9.7,97.7-14.7
		C1890,358.1,2011.6,339.9,2133.3,321.9L2133.3,321.9z"/>
	<path style="fill:none;stroke:#000000;stroke-width:8;stroke-miterlimit:10;" d="M2349.8,319.4c39.8,33.4,79.5,66.9,119.3,100.4
		c21.3,17.8,42.5,35.7,63.7,53.6c1.7,1-0.4,2.5-1,3.5c-43.6,52.7-87.2,105.4-130.8,158.1c-0.6-0.4-1.3-0.9-1.9-1.3
		c-1.1,0.8-2.3,1.4-3.2,2.4c-1.2,1.8-1.5,4.2-3.2,5.6c-1.2,1.1-1.9,2.5-2.3,4c-50.4-50.7-100.6-101.6-151.1-152.2
		c-4-4.2-8.2-8.2-12.2-12.4c-2.3-2.2-4.4-4.8-7-6.7l-0.7-0.1c0.2-0.1,0.6-0.4,0.7-0.5c3-2.8,5.4-6.4,8.2-9.4
		c34.5-41.3,69-82.5,103.4-123.8C2337.8,333.7,2343.7,326.4,2349.8,319.4L2349.8,319.4z"/>
	<path style="fill:none;stroke:#000000;stroke-width:8;stroke-miterlimit:10;" d="M1565.5,469.9c9.1,4.5,17.9,9.7,26.9,14.5
		c44,24.1,88,48.2,132.1,72.2c1.5,0.8,2.9,1.5,4.3,2.5c0.2,0.1,0.5,0.4,0.6,0.5c0.2,0.1,0.5,0.4,0.7,0.6
		c23.7,41,47.8,81.8,71.6,122.7c9.2,16.1,18.7,32,28,48c4.9,8.1,9.4,16.3,14.4,24.4c-3-0.1-5.3-2.4-7.9-3.7
		c-35.2-20.1-70.6-40-105.7-60.2c-0.1,1.3-0.3,2.6-0.3,4c-0.1-1.2-0.3-2.4-0.4-3.5c-18.8-11.1-37.7-22-56.5-33.1
		c-3.2-4.4-5.4-9.5-8.3-14.1c-26.4-46.2-52.7-92.4-79.1-138.6C1579.1,493.9,1572,482,1565.5,469.9L1565.5,469.9z"/>
	<path style="fill:none;stroke:#000000;stroke-width:8;stroke-miterlimit:10;" d="M1729.4,559.6c163.3-28.4,326.7-56.6,490-85
		l0.7,0.1c-2.1,69.3-4.9,138.6-7,207.9c-121.3,24.4-242.7,48.8-364,73.2c-1.2,0.2-2.4,0.4-3.6,0.6c-0.2,0-0.6-0.1-0.8-0.2
		c-0.2-0.3-0.4-0.6-0.6-0.9c-4.9-8-9.5-16.3-14.4-24.4c-9.3-16-18.8-31.9-28-48c0.5-1.3,0.4-2.6-0.5-3.7c-4-6.1-7.3-12.5-11-18.7
		c-3.4-6.8-7.7-13.2-11.4-19.9c-4.6-7.7-8.5-15.8-13.2-23.4c-5.3-8.6-10.2-17.5-15.1-26.3c-5.5-9.4-10.8-18.9-16.3-28.3
		c-0.8-1.6-2.6-1.7-4.1-2.3C1729.9,560,1729.6,559.7,1729.4,559.6L1729.4,559.6z"/>
	<path style="fill:none;stroke:#000000;stroke-width:8;stroke-miterlimit:10;" d="M2390.4,645.9c-0.1,0.3-0.2,0.8-0.2,1.1
		c-52.3,10.3-104.6,21-156.9,31.5l0,0c-6.7,1.3-13.4,2.7-20.1,4.1c2.1-69.3,4.9-138.6,7-207.9c2.6,1.9,4.7,4.5,7,6.7
		c4,4.2,8.2,8.2,12.2,12.4l0,0C2289.7,544.4,2340,595.2,2390.4,645.9z"/>
	<path style="fill:none;stroke:#000000;stroke-width:8;stroke-miterlimit:10;" d="M1730.1,560.2c1.4,0.6,3.3,0.7,4.1,2.3
		c5.5,9.4,10.8,19,16.3,28.3c4.9,8.9,9.8,17.7,15.1,26.3c4.7,7.6,8.6,15.7,13.2,23.4c3.7,6.7,7.9,13.1,11.4,19.9
		c3.7,6.2,7,12.7,11,18.7c0.8,1.1,0.9,2.5,0.5,3.7C1777.9,641.9,1753.8,601.1,1730.1,560.2L1730.1,560.2z"/>
	<path style="fill:none;stroke:#000000;stroke-width:8;stroke-miterlimit:10;" d="M2395.9,636.3c0.8-1.1,2.1-1.7,3.2-2.4
		c0.6,0.4,1.2,0.8,1.9,1.3c-2.9,4-6.6,7.4-9.2,11.6c33.3,3.9,66.6,7.7,99.8,11.5c0.5,0,1,0.2,1.3,0.6c-30.5,6.4-60.9,12.7-91.4,19.1
		c-3.8,0.9-7.7,1.6-11.5,2.6c-12.8,2.3-25.5,5.3-38.2,7.8c-137.9,28.8-275.8,57.7-413.8,86.4c-6.1,1.1-12,2.8-18.1,3.6
		c-20.9-5.8-41.7-12.1-62.5-18.1c-3.9-1.4-8.1-1.9-11.8-3.8c1.2-0.2,2.4-0.4,3.6-0.6c121.3-24.4,242.7-48.8,364-73.2
		c6.7-1.3,13.4-2.7,20.1-4.1c52.3-10.5,104.6-21.2,157-31.5c0.1-0.3,0.2-0.8,0.2-1.1c0.4-1.5,1.1-2.9,2.3-4
		C2394.4,640.5,2394.7,638.1,2395.9,636.3L2395.9,636.3z"/>
	<path style="fill:none;stroke:#000000;stroke-width:8;stroke-miterlimit:10;" d="M2351.7,688.3c12.8-2.5,25.4-5.6,38.2-7.8
		c-3.6,87.5-7.2,174.9-10.8,262.4c-0.1,2.2-0.1,4.3-0.4,6.5c-171.9,39.5-343.8,79.1-515.7,118.6c-6.1-103.2-12.1-206.4-18.1-309.6
		c-0.1-0.5-0.3-1.6-0.3-2.1c0.2,0,0.6,0.1,0.8,0.2c3.7,1.9,7.9,2.4,11.8,3.8c20.9,6,41.6,12.3,62.5,18.1c6.1-0.8,12.1-2.5,18.1-3.6
		C2075.8,745.9,2213.7,717.1,2351.7,688.3L2351.7,688.3z"/>
	<path style="fill:none;stroke:#000000;stroke-width:8;stroke-miterlimit:10;" d="M1730.4,691.3c35.1,20.2,70.5,40.1,105.7,60.2
		c2.5,1.3,4.9,3.6,7.9,3.7c0.2,0.3,0.4,0.6,0.6,0.9c0.1,0.5,0.3,1.6,0.3,2.1c6,103.2,12,206.4,18.1,309.6
		c-41.4-71.4-82.7-143-124.1-214.4c-0.8-1.3-0.8-2.8-0.8-4.3c-2.6-51.3-5.5-102.6-8-153.9C1730.2,694,1730.3,692.7,1730.4,691.3z"/>
</g>
<g>
	<path style="fill:none;stroke:#000000;stroke-width:8;stroke-miterlimit:10;" d="M-290.2,613.5c87.1,12.9,174.1,26,261.2,38.9
		c23.3,3.6,46.6,6.9,69.9,10.5c-2.9,8.9-6.1,17.7-9.2,26.6C21.2,719.9,10.6,750.3,0,780.7c-0.3,0.8-0.5,1.7-0.7,2.6
		c-0.1,0.1-0.3,0.3-0.5,0.3c-116.9-20.3-233.8-40.5-350.7-60.8c-0.1-0.1-0.4-0.3-0.5-0.4c16.7-36.9,33.4-73.8,50.2-110.6
		C-298.1,612.2-294.1,612.9-290.2,613.5L-290.2,613.5z"/>
	<path style="fill:none;stroke:#000000;stroke-width:8;stroke-miterlimit:10;" d="M-445.1,611.8c4.4,5,8.6,10.2,12.9,15.3
		c24.7,29.5,49.4,59.1,74,88.6c2,2.2,3.7,4.7,5.9,6.8c0.1,0.1,0.4,0.3,0.5,0.4l-0.5,0.1c-1.9,1.4-3.3,3.2-5,4.8
		c-2.9,3-5.8,5.9-8.7,8.9c-36.1,36.2-72.1,72.6-108.2,108.9c-0.3-1.1-0.8-2.1-1.7-2.9c-1.2-1.1-1.4-2.7-2.3-4
		c-0.6-0.8-1.5-1.2-2.3-1.8c-0.4,0.3-0.9,0.6-1.3,0.9c-31.2-37.7-62.4-75.4-93.6-113.1c-0.5-0.7-1.9-1.8-0.7-2.5
		c15.2-12.8,30.3-25.6,45.6-38.4C-502,659.7-473.6,635.7-445.1,611.8L-445.1,611.8z"/>
	<path style="fill:none;stroke:#000000;stroke-width:8;stroke-miterlimit:10;" d="M116.2,719.5c-4.7,8.7-9.7,17.2-14.6,25.8
		c-18.9,33.1-37.7,66.1-56.6,99.2c-2.1,3.3-3.6,7-5.9,10.1c-13.4,8-27,15.7-40.4,23.7c-0.1,0.8-0.2,1.7-0.3,2.5
		c-0.1-1-0.1-1.9-0.2-2.8c-25.2,14.5-50.5,28.7-75.7,43.1c-1.8,1-3.5,2.6-5.6,2.7c3.5-5.7,6.8-11.7,10.3-17.4
		c6.6-11.5,13.5-22.9,20-34.4c17-29.3,34.3-58.5,51.3-87.8c0.1-0.1,0.4-0.3,0.5-0.4c0.1-0.1,0.3-0.3,0.5-0.3c1-0.7,2-1.2,3.1-1.8
		c31.5-17.2,63-34.5,94.5-51.7C103.4,726.4,109.6,722.7,116.2,719.5L116.2,719.5z"/>
	<path style="fill:none;stroke:#000000;stroke-width:8;stroke-miterlimit:10;" d="M-1.1,783.7c-0.1,0.1-0.4,0.3-0.5,0.4
		c-1,0.4-2.4,0.5-2.9,1.6c-4,6.7-7.7,13.6-11.7,20.3c-3.5,6.3-7,12.7-10.8,18.9c-3.4,5.5-6.2,11.3-9.5,16.8
		c-2.6,4.8-5.7,9.3-8.1,14.2c-2.7,4.4-5,9.1-7.9,13.4c-0.6,0.8-0.7,1.8-0.3,2.7c-6.6,11.5-13.4,22.9-20,34.4
		c-3.5,5.8-6.7,11.7-10.3,17.4c-0.1,0.2-0.3,0.4-0.4,0.7c-0.1,0-0.4,0.1-0.6,0.1c-0.9-0.1-1.7-0.3-2.6-0.4
		c-86.8-17.5-173.7-34.9-260.5-52.4c-1.5-49.6-3.5-99.2-5-148.8l0.5-0.1C-234.9,743.1-118,763.3-1.1,783.7L-1.1,783.7z"/>
	<path style="fill:none;stroke:#000000;stroke-width:8;stroke-miterlimit:10;" d="M-474.1,845.4c0,0.2,0.1,0.6,0.2,0.8
		c37.5,7.4,74.9,15.1,112.3,22.5l0,0c4.8,1,9.6,1.9,14.4,2.9c-1.5-49.6-3.5-99.2-5-148.8c-1.9,1.4-3.3,3.2-5,4.8
		c-2.9,3-5.8,5.9-8.7,8.9l0,0C-402.1,772.8-438.1,809.2-474.1,845.4z"/>
	<path style="fill:none;stroke:#000000;stroke-width:8;stroke-miterlimit:10;" d="M-1.6,784.1c-17,29.3-34.2,58.5-51.3,87.8
		c-0.3-0.9-0.3-1.9,0.3-2.7c2.8-4.3,5.2-9,7.9-13.4c2.5-4.9,5.5-9.4,8.1-14.2c3.3-5.5,6.1-11.3,9.5-16.8c3.8-6.2,7.3-12.5,10.8-18.9
		c4-6.7,7.7-13.6,11.7-20.3C-4,784.6-2.6,784.5-1.6,784.1L-1.6,784.1z"/>
	<path style="fill:none;stroke:#000000;stroke-width:8;stroke-miterlimit:10;" d="M-478.1,838.6c0.8,1.3,1.1,3,2.3,4
		c0.8,0.8,1.4,1.8,1.7,2.9c0,0.2,0.1,0.6,0.2,0.8c37.5,7.4,74.9,15.1,112.3,22.5c4.8,1,9.6,1.9,14.4,2.9
		c86.8,17.5,173.7,34.9,260.5,52.4c0.9,0.2,1.7,0.3,2.6,0.4c-2.6,1.4-5.6,1.7-8.4,2.7c-14.9,4.3-29.8,8.8-44.8,12.9
		c-4.4-0.5-8.6-1.8-13-2.6c-98.7-20.6-197.4-41.2-296.1-61.9c-9.1-1.8-18.2-4-27.4-5.6c-2.7-0.7-5.5-1.2-8.2-1.8
		c-21.8-4.6-43.6-9.1-65.4-13.7c0.3-0.3,0.6-0.4,0.9-0.4c23.8-2.8,47.6-5.5,71.4-8.2c-1.9-3-4.5-5.4-6.6-8.3
		c0.5-0.3,0.9-0.6,1.3-0.9C-479.6,837.4-478.7,837.8-478.1,838.6L-478.1,838.6z"/>
	<path style="fill:none;stroke:#000000;stroke-width:8;stroke-miterlimit:10;" d="M-446.4,875.8c98.7,20.6,197.4,41.3,296.1,61.9
		c4.3,0.8,8.6,2,13,2.6c15-4.1,29.8-8.6,44.8-12.9c2.8-1,5.8-1.3,8.4-2.7c0.2,0,0.4-0.1,0.6-0.1c-0.1,0.4-0.2,1.1-0.2,1.5
		c-4.3,73.9-8.6,147.7-13,221.6c-123-28.3-246-56.6-369.1-84.9c-0.2-1.5-0.2-3.1-0.3-4.6c-2.6-62.6-5.1-125.2-7.7-187.8
		C-464.6,871.8-455.6,874-446.4,875.8L-446.4,875.8z"/>
	<path style="fill:none;stroke:#000000;stroke-width:8;stroke-miterlimit:10;" d="M-1.6,880.8c-1.8,36.7-3.9,73.4-5.8,110.2
		c-0.1,1,0,2.1-0.6,3c-29.6,51.1-59.2,102.3-88.8,153.5c4.4-73.9,8.6-147.7,13-221.6c0.1-0.4,0.2-1.1,0.2-1.5
		c0.1-0.2,0.3-0.5,0.4-0.7c2.2-0.1,3.8-1.7,5.6-2.7c25.3-14.3,50.6-28.6,75.7-43C-1.8,878.9-1.7,879.8-1.6,880.8z"/>
</g>
</svg>
