<?xml version="1.0" encoding="utf-8"?>
<!-- Generator: Adobe Illustrator 22.1.0, SVG Export Plug-In . SVG Version: 6.00 Build 0)  -->
<svg version="1.1" id="Layer_1" xmlns="http://www.w3.org/2000/svg" xmlns:xlink="http://www.w3.org/1999/xlink" x="0px" y="0px"
	 viewBox="0 0 512 512" style="enable-background:new 0 0 512 512;" xml:space="preserve">
<g transform="translate(-250.36 -73.585)">
	<path style="fill:none;stroke:#000000;stroke-miterlimit:10;" d="M605.4,206.1c-3.2,8.2-6.4,16.4-9.8,24.5
		c-3.8,9.2-7.7,18.4-11.7,27.6c-2.8,6.6-5.7,13.3-8.5,19.9c-3.2,7.6-6.4,15.2-9.6,22.8c-4.3,10.5-8.5,21-12.5,31.6
		c-4.5,12-8.7,24-12.4,36.2c-3.2,10.4-6,20.8-8.5,31.4l0,0c-1.4,5.9-2.6,11.8-3.6,17.8c-2,11.4-3.5,22.9-4.3,34.6
		c-2.2,30.7,0.3,62.6,9.4,96.2c0.7,2.5,1.4,5,2.1,7.5c-1.6,2.5-3.4,4.6-5.4,6.3c-5.4,4.7-12,6.6-19.3,7c-4.6,0.3-9.4-0.1-14.4-0.7
		c-0.2,0-0.4,0-0.7-0.1c-2.2-0.3-4.4-0.6-6.6-0.9c-5.9-0.9-11.9-2-17.7-2.8c-1.8-0.2-3.7-0.5-5.5-0.6c-1-0.1-1.9-0.2-2.8-0.2
		c-0.5,0-1,0-1.4-0.1c0-0.5-0.1-0.9-0.1-1.4c-2.7-50.3,5.1-98.9,19.7-146.6c2.6-8.4,5.4-16.8,8.4-25.2c3.5-9.7,7.2-19.4,11.2-29
		c2.7-6.7,5.6-13.3,8.6-20c4.4-9.9,9-19.8,13.9-29.6c3.7-7.5,7.5-15,11.4-22.4c3.6-6.8,7.2-13.7,10.9-20.5c3.9-7.2,7.9-14.4,12-21.6
		c8.6-15.2,17.5-30.3,26.5-45.4c5.4-2.5,11.1-4.5,17.1-6L605.4,206.1z"/>
	<path style="fill:none;stroke:#000000;stroke-miterlimit:10;" d="M462.3,524.5l11.3-7.9l3.4,5.1l11.3-4.5l4,1.1l21.6-5.1l1.1,4
		l11.8-1.8"/>
	<path style="fill:none;stroke:#000000;stroke-miterlimit:10;" d="M466.5,487.3l5.4-3.6l6.2,6.2l15.9-7.4l2.3,6.2l14.2-6.2l1.7,4.5
		l7.4-2.3l4.5,1"/>
	<path style="fill:none;stroke:#000000;stroke-miterlimit:10;" d="M473.3,448.5l12.7-2.8l4,7.4l4.5-9.6l6.2,9.6l11.3-6.2l5.7,6.8
		l7.4-1.1"/>
	<path style="fill:none;stroke:#000000;stroke-miterlimit:10;" d="M481.9,416.3l7.6-1.2l3.4,4.5l6.2-4c0,0,7.9,14.2,10.2,12.5
		c2.3-1.7,8.5-11.9,8.5-11.9l6.8,8.5l4.1-6.7"/>
	<path style="fill:none;stroke:#000000;stroke-miterlimit:10;" d="M490.3,391.1l11.7,0.1l6.2,4l8.5-6.2l8.5,7.9l6.8-5.1l0.4,8.4"/>
	<path style="fill:none;stroke:#000000;stroke-miterlimit:10;" d="M605.4,206.1c-3.2,8.2-6.4,16.4-9.8,24.5
		c-3.8,9.2-7.7,18.4-11.7,27.6c-2.8,6.6-5.7,13.3-8.5,19.9c-3.2,7.6-6.4,15.2-9.6,22.8c-4.3,10.5-8.5,21-12.5,31.6
		c-4.5,12-8.7,24-12.4,36.2c-3.2,10.4-6,20.8-8.5,31.4l0,0c-1.4,5.9-2.6,11.8-3.6,17.8c-2,11.4-3.5,22.9-4.3,34.6
		c-2.2,30.7,0.3,62.6,9.4,96.2c0.7,2.5,1.4,5,2.1,7.5c-1.6,2.5-3.4,4.6-5.4,6.3c-5.4,4.7-12,6.6-19.3,7c-4.6,0.3-9.4-0.1-14.4-0.7
		c-0.2,0-0.4,0-0.7-0.1c-2.2-0.3-4.4-0.6-6.6-0.9c-5.9-0.9-11.9-2-17.7-2.8c-1.8-0.2-3.7-0.5-5.5-0.6c-1-0.1-1.9-0.2-2.8-0.2
		c-0.5,0-1,0-1.4-0.1c0-0.5-0.1-0.9-0.1-1.4c-2.7-50.3,5.1-98.9,19.7-146.6c2.6-8.4,5.4-16.8,8.4-25.2c3.5-9.7,7.2-19.4,11.2-29
		c2.7-6.7,5.6-13.3,8.6-20c4.4-9.9,9-19.8,13.9-29.6c3.7-7.5,7.5-15,11.4-22.4c3.6-6.8,7.2-13.7,10.9-20.5c3.9-7.2,7.9-14.4,12-21.6
		c8.6-15.2,17.5-30.3,26.5-45.4c5.4-2.5,11.1-4.5,17.1-6L605.4,206.1z"/>
	<g>
		<path style="fill:none;stroke:#000000;stroke-miterlimit:10;" d="M501.5,362l9.5,5.3l6.8-4l5.1,9.1l7.9-5.7l2.8,7.4l7.2-5.4"/>
		<path style="fill:none;stroke:#000000;stroke-miterlimit:10;" d="M510.1,342.1l7.2-0.8c0,0-2.3,4.5,0,4.5s11.9-7.4,11.9-7.4
			l-2.3,7.9l10.2-1.7l7.9,6.8h0.6"/>
		<path style="fill:none;stroke:#000000;stroke-miterlimit:10;" d="M524,312.5l6.9,1c0,0,0,7.4,4,6.8s6.2-1.1,6.2-1.1l7.9,5.1h4.5
			l-0.3,8.3"/>
		<path style="fill:none;stroke:#000000;stroke-miterlimit:10;" d="M535.4,290.1l11.4,0.1c0,0-4,6.2,0,5.7c4-0.6,10.8-2.3,10.8-2.3
			l0.6,6.2l6.2-2.3l1.7,4"/>
		<path style="fill:none;stroke:#000000;stroke-miterlimit:10;" d="M546.3,269.6l7.9-1.5l1.7,5.7l9.6-3.4l1.7,5.1l4.5-2.3l0.6,4.5
			l4,0.6"/>
		<path style="fill:none;stroke:#000000;stroke-miterlimit:10;" d="M558.3,248l8.4-1c0,0,2.3,8.5,4.5,7.4c2.3-1.1,9.1-2.8,9.1-2.8
			l1.7,6.2l2.8,0.6"/>
		<path style="fill:none;stroke:#000000;stroke-miterlimit:10;" d="M570.6,226.6h5.1l7.9,6.2l4-1.7l7.9-0.6"/>
		<path style="fill:none;stroke:#000000;stroke-miterlimit:10;" d="M738,340.7l-17-34.1l5.7-46.5l-10.2,34l-10.2-21.6l-4.5-36.3
			l-3.4,22.7l-18.2-14.8l-5.7-28.4l-3.4,19.3l-37.5-34c50.8,70.2,62.4,97.1,12.5,162.3l-4.5-53.3c10.6-13.1,16.5-23.7,12.5-39.7
			l-20.4,26.1l-4.5-31.8c3.8-8.7,10.8-14.2,9.1-28.4l-18.2,9.1L605.5,206l-3.5-9.5c-6,1.5-11.7,3.6-17.1,6
			c-20.9,9.4-38,24.5-56.7,37.1V201c-7.1,15.4-17.2,28.9-15.9,49.9L477,293l-5.7-42c-19.3,25-10.4,49.9-13.6,74.9
			c-5.3,6.8-10.6,3.5-15.9,23.8c-51.9-113.4,21.2-141.3,126-171.3l-15.9-3.4l17-11.4l-31.8,4.5l-28.4,4.5l14.7-15.9L500.7,176
			l-34,5.7l6.8-28.4l-20.4,27.2l-40.9,25c1.2-111.2,142.6-61.2,183.8-35.2l-12.5-14.8l14.8-6.8l-26.1,1.1l-18.2-5.7l10.2-9.1
			l-25,6.8l-14.8-10.2l13.6-10.2l-29.5,3.4c41.8-36.7,90.4-7.5,102.1,42l-1.1-22.7c10.5,6.1,25.6,10.8,15.9,22.7
			c62.5-10.1,80.4-10,87.4,46.5l-18.2-12.5l-7.9-20.4v17l-11.3-3.4l-12.5-20.4v14.8l-31.8-5.7C767,229.1,738,242.4,738,340.7z"/>
	</g>
	<path style="fill:none;stroke:#000000;stroke-miterlimit:10;" d="M457.2,572.2c-9.9-4.3-8.1-16.7-11.2-25.7
		c3.9,6.8,5.8,17.5,12.4,18.9c-2.6-4.6-1.2-8.6,0.7-12.4c-0.5,5.4,1.8,9.7,6.5,12.8c1.6-2.3,2.9-4.7,0.8-9.2c2.2-0.3,9,5.9,5.2,8.8
		c-1.9,1.5-8.3,6.7-8.3,6.7C456.1,571.8,466.5,571.6,457.2,572.2L457.2,572.2z"/>
	<path style="fill:none;stroke:#000000;stroke-miterlimit:10;" d="M533.6,564.3c-9.9-4.3-8.1-16.7-11.2-25.7
		c3.9,6.8,5.8,17.5,12.4,18.9c-2.6-4.6-1.2-8.6,0.7-12.4c-0.5,5.4,1.8,9.7,6.5,12.8c1.6-2.3,2.9-4.7,0.8-9.2c2.2-0.3,9,5.9,5.2,8.8
		c-1.9,1.5-8.3,6.7-8.3,6.7C532.4,563.8,542.8,563.6,533.6,564.3L533.6,564.3z"/>
	<path style="fill:none;stroke:#000000;stroke-miterlimit:10;" d="M505,575.6c9.9-4.3,8.1-16.7,11.2-25.7
		c-3.9,6.8-5.8,17.5-12.4,18.9c2.6-4.6,1.2-8.6-0.7-12.4c0.5,5.4-1.8,9.7-6.5,12.8c-1.6-2.3-2.9-4.7-0.8-9.2c-2.2-0.3-9,5.9-5.2,8.8
		c1.9,1.5,8.3,6.7,8.3,6.7C506.1,575.2,495.7,575,505,575.6L505,575.6z"/>
</g>
</svg>
