<?xml version="1.0" encoding="utf-8"?>
<!-- Generator: Adobe Illustrator 22.1.0, SVG Export Plug-In . SVG Version: 6.00 Build 0)  -->
<svg version="1.1" id="Layer_1" xmlns="http://www.w3.org/2000/svg" xmlns:xlink="http://www.w3.org/1999/xlink" x="0px" y="0px"
	 viewBox="0 0 612 792" style="enable-background:new 0 0 612 792;" xml:space="preserve">
<path style="fill:none;stroke:#000000;stroke-width:2;stroke-miterlimit:10;" d="M95.2,531.8c3.6,2.7,6.9,5.9,10.3,8.9
	c2.2,1.9,3,2,3.9-1.3c7.2-28.2,30.5-46.3,59.4-45.1c22.2,1,39.1,11.8,50.1,31.3c1.2,2.1,1.5,4.7,4.2,6.3c2.9-12,6.7-23.4,13.3-33.8
	c3.2-5.1,6.6-9.9,11.2-13.8c1.6-1.3,3.2-2.7,3.4-5c1.1-0.5,2.4-0.8,3.2-1.6c21.4-18.5,45.9-26.6,74.3-23.4c20.9,2.4,38.8,10.7,54,25
	c3.8,4.3,7.9,8.3,11.4,12.9c10.7,14.3,16.7,30.1,18.8,47.1c0.7,5.4,0.9,10.8,0.9,16.4c0,0.6,0,1.2,0,1.8l0,0
	c16.8-16.2,36.1-27.8,58.7-33.8c16.2-4.2,32.4-5.3,48.8-1.3c18.9,4.6,34.6,15,48.9,27.7"/>
<path style="fill:none;stroke:#000000;stroke-width:2;stroke-miterlimit:10;" d="M531.5,121.6c-14.9,8.6-29.8,17.3-44.7,25.9
	c-1.6,0.4-3,1-3.8,2.7c-6.2,3.3-12.5,6.7-18.7,10c-10.9,6.4-21.8,12.9-32.7,19.4c-2.8,1.7-5.5,3.5-8.2,5.3c-3.8,0.7-6.5,3.8-10,5.1
	c-13.6,7.9-27.1,15.8-40.7,23.7c-0.3-0.3-0.6-0.6-0.9-0.9c9.7-11.7,19.4-23.4,29.2-35.2c0.8-0.4,1.6-0.8,2.4-1.2
	c2.3-5.4,6.5-9.4,10.2-13.6c9.6-10.6,17.6-22.5,28.1-32.4l0,0c2.6-3.7,5.3-7.4,7.9-11.2c2.5-2.5,4.9-5,7.4-7.4
	c10.6-13.7,21.8-27,33.4-39.8c1.9-2.4,3.7-4.9,5.7-7.3"/>
<path style="fill:none;stroke:#000000;stroke-width:2;stroke-miterlimit:10;" d="M551.3,209.9c-6.5,1.9-13.1,3.3-19.8,3.7
	c-0.8,0.4-1.7,0.8-2.5,1.3c-12,2-23.9,4-35.9,6c-13.7,2.5-27.3,5-41,7.6l-26.1,3.8c-12.9,3.8-26.4,4.1-39.5,7.2
	c10-6.9,20.1-13,30.8-18.4c7.5-4.6,15-9.1,22.5-13.7c1-0.6,1.9-1.5,2.9-2.3c8.7-2.7,15.7-8.8,23.8-12.6c4.2-2,7.6-5.8,12.5-6.3
	c0.1,0,0.2,0,0.2,0c-0.1,0-0.1,0-0.2,0c0.4-0.4,0.9-0.8,1.4-1.2l0,0c0.5-0.4,1-0.8,1.5-1.1c0.3-0.2,0.7-0.5,1-0.7c1-0.7,2-1.4,3.1-2
	c0.4-0.2,0.7-0.4,1.1-0.6c1-0.6,1.9-1.1,2.9-1.6c3.8-2.2,7.7-4.3,11-7.3c4.6-0.2,7.4-4.6,11.9-5.1c6.1-3.6,10.8-9.6,18.5-10.2
	c0.5-1.8,2.1-2.4,3.6-3.2"/>
<path style="fill:none;stroke:#000000;stroke-width:2;stroke-miterlimit:10;" d="M578.4,317.5c-0.4,0.5-0.7,1.1-1.1,1.7
	c-2.1,3.4-3.7,7.2-5.9,11.5c-3.2-4.8-5.6-10-9.3-13.9c-1.2-1.3-2.7-2.5-4.3-3.4l0,0c-1.8-1.4-3.5-2.8-5.2-4.2
	c-1.1-0.4-2.3-0.9-3.4-1.3c-14-4.7-27.1-3.9-38.7,6.2c-0.8,0-1.6-0.1-2.4-0.2c-0.1-2.9,0.6-5.9-1.2-8.6c-0.7-6.6-4.3-11.9-7.3-17.5
	c-0.4-1.4-1-2.4-2.6-2.6c-4.7-6.9-11.7-10.9-18.7-14.7c-11.9-4.2-23.9-4.9-36-1.3c-4.1,2.1-8.3,4.2-12.4,6.4
	c-12.4-2.3-24.9-4.7-37.3-7c16.1-3.7,32-7.9,48.3-9.3c6.7-1.6,13.4-3.1,20.2-4.6c5.3-0.5,10.6-1,15.9-1.5c16.3-4.2,32.9-7,49.7-8.7
	c3.4-2.5,7.9-1.4,11.4-3.5l0,0c4.9-0.5,9.8-0.9,14.7-1.4"/>
<path style="fill:none;stroke:#000000;stroke-width:2;stroke-miterlimit:10;" d="M38.2,301.5c3.6-2.8,7.1-5.5,10.7-8.3
	c14.1-6.7,28.3-7.3,42.8-1.4c3.5,2.3,7,4.6,10.6,6.9c0.5-1.7,1-3.2,1.5-4.6c0.2-1.6,0.3-3.2,0.5-4.7c2.2-4.1,3.4-8.8,6.9-12.2
	c7-10,17.3-14,28.9-15.3h2.5c2.3-1.7,4.4-2.2,6.1,0.8c8.8,2.6,16.7,6.7,22.4,14.2c16.9-1.5,33.2-5.9,49.8-8.9
	c-10.3-2.4-20.6-4.2-30.8-6.1c-15.1-2.8-30.1-5.7-45.2-8.5c-2.9,0-5.8,0-8.6,0c-15.3-5.2-31.3-6.4-47-9c-5.1-1.2-10.1-2.3-15.2-3.5
	l0,0c-1,0.1-2.1,0.1-3.1,0c-0.5,0-1-0.1-1.5-0.1c-0.4,0-0.8-0.1-1.2-0.1c-1.2-0.1-2.3-0.3-3.5-0.6c-0.3,0-0.6-0.1-0.8-0.2
	c-0.6-0.1-1.1-0.2-1.7-0.4c-0.7-0.1-1.3-0.3-2-0.5c-1.2-0.3-2.4-0.6-3.6-0.8c-0.4-0.1-0.7-0.2-1.1-0.2c-1.2-0.3-2.5-0.5-3.7-0.7
	c-0.5-0.1-1-0.1-1.5-0.2h-0.1c-0.4,0-0.8-0.1-1.1-0.1h-0.1c-0.2,0-0.4,0-0.6,0c-0.9,0-1.8,0-2.7,0 M77.6,119.1
	c1.4,0.8,2.9,1.6,4.3,2.4c14,8.1,27.5,17.1,42.2,23.8c3.3,4,9,4.6,12.5,8.5c10.8,5.8,21.5,11.7,32.2,17.5c11.6,7,23.2,14,34.8,21
	c2.5,1.3,5,2.5,7.5,3.8c4.9,2.9,9.6,6,14.4,8.9c4.9,2.9,9.9,5.5,15.4,7.3c-6.5-8.7-13-17.4-21.1-24.8c-0.4-0.4-0.8-0.9-1.2-1.3l0,0
	h0.1c-0.1-2.8-2.9-3.9-3.9-6.2c-9.5-11.2-19.1-22.3-28.6-33.4c-7.4-9.1-14.9-18.3-22.3-27.4c-3.4-3.2-5.8-7.3-9.7-9.9
	c-9.1-12.7-19.3-24.5-29.8-36 M64.5,210.8c6.8,0.3,13.2,2.9,19.9,3.9c4.2,0.4,8.3,0.9,12.5,1.4c12.3,2.8,24.6,5.6,37.2,6.3
	c8.7,1.9,17.3,3.9,26,5.8c11.2,1.7,22.4,3.3,33.6,5c5.3,1.1,10.7,2.3,16,3.3c5.4,1,10.8,1.7,16.3,1.8c-8.5-5.8-17.3-11.2-26.9-15
	c-3.8-4.6-9.8-6-14.2-9.8c-1.2-0.2-2.7-0.1-3.5-0.8c-7.5-6.3-16.6-9.9-24.7-15.2c-3.8-2.4-7.6-5.1-12.3-5.5
	c-0.5-2.6-2.9-3.3-4.8-4.4c-6.8-4.2-14.3-7.3-20.5-12.5c-2.4-0.5-4.7-1.1-7.1-1.6c0-0.2,0-0.3-0.1-0.5c-0.3-1.1-0.9-2-1.9-2.5
	c-9.3-5.2-18.7-10.3-28-15.5 M93.2,290.7L93.2,290.7c-0.6-0.1-1.1-0.2-1.6-0.4C92.1,290.4,92.7,290.6,93.2,290.7z M91,290
	c-0.4-0.2-0.8-0.4-1.1-0.6C90.3,289.6,90.6,289.8,91,290z"/>
<path style="fill:none;stroke:#000000;stroke-width:2;stroke-miterlimit:10;" d="M208.4,39.6c2.8,7.4,6.2,14.6,7.7,22.4
	c4.3,7.4,5.3,16.2,9.7,23.5c1.3,4.6,2.6,9.2,3.9,13.8c7.5,17.2,12.8,35.2,19.7,52.6c0.9,2.3,1.8,4.6,2.6,6.9
	c0.4,1.2,0.7,2.5,1.1,3.7c3.8,10.3,7.6,20.7,11.4,31c-7.8-7.8-15.6-15.3-21.3-24.5c-1.6-1.1-3.2-2.2-4.8-3.4
	c-4.9-9.2-13-15.9-19.2-24.1c-6.7-8.9-14.9-16.5-20.8-25.9l0,0c-3.7-3.5-7.3-7.1-11-10.7c-3.3-7-9.7-11.7-13.7-18.2
	c-5.1-6-11.2-11.3-15-18.4c-2.9-2.3-5.2-5.2-7.6-8"/>
<path style="fill:none;stroke:#000000;stroke-width:2;stroke-miterlimit:10;" d="M489.5,28.1c-10.4,12.2-20.1,25-31.2,36.5
	c-4.1,6.6-9.2,12.3-14.9,17.5c-3.8,7.3-10.3,12.4-15.1,19c-0.9,1.3-2.4,2.3-2.4,4.1c-3.1,1.9-4.6,5.8-8.4,6.8
	c-5.3,10.9-14.8,18.6-21.9,28.1c-5,6.7-11.5,12.3-15.6,19.7c-1.2,0.7-2.4,1.3-3.6,2c-7.6,11.2-15.9,21.7-26.2,30.6h-0.1
	c3.7-12.7,7.8-25.2,13.5-37.1c0-0.4,0-0.8,0-1.3c7.1-19.5,14.2-39,21.3-58.4c0.8-2.9,1.7-5.8,2.5-8.7c4.1-10.3,8.2-20.7,12.3-31
	c1.4-7.5,4.8-14.1,7.6-21.1"/>
<path style="fill:none;stroke:#000000;stroke-width:2;stroke-miterlimit:10;" d="M370.1,50.9c-1.6,9.9-7.8,18.3-8.9,28.3
	c-1.6,3-3.1,6-4.7,9c-5.2,18-12.3,35.3-18.6,52.9c-0.6,1.7-1.6,3.3-1.4,5.3c-0.8,1.3-1.6,2.6-2.4,3.9c-2.7,11.2-7.7,21.4-12.1,33.8
	c-1.1-9.2,0.5-16.8-1.6-24.1c-0.3-4.6,0.2-9.1,1.2-13.5c-1.1-21.9-2-43.9-0.1-65.8c-0.1-6.2-0.2-12.4-0.2-18.5
	c0.1-7.5,0.2-15,0.3-22.5"/>
<path style="fill:none;stroke:#000000;stroke-width:2;stroke-miterlimit:10;" d="M292,38.5c0.4,7,0.7,14,1.1,21
	c0,5.8-0.1,11.5-0.2,17.3c0,21.8,0,43.7,0,65.5c0,1.8-0.7,3.6-1.1,5.4c0.6,4.1,1.6,8.1,1.2,12.3v24.7c-5.8-10.3-8.5-21.7-13.6-32.2
	c0-0.4,0.1-0.9,0.1-1.3c-7.5-20.3-15-40.5-22.4-60.8c-0.7-1.9-1.1-4-1.6-5.9c0.2-0.2,0.5-0.4,0.7-0.6c-0.2,0.2-0.5,0.4-0.7,0.6
	c-1.1-1.8-2.3-3.5-3.4-5.3c-1.2-8.6-5.1-16.4-8-24.5c-0.9-2.5-1.4-5.1-2.1-7.7"/>
<path style="fill:none;stroke:#000000;stroke-width:2;stroke-miterlimit:10;" d="M63.1,398.2c16,1.9,29.7,7.7,41.1,19
	c1.7,0.8,2.9,2.1,3.8,3.8c0.4,0.8,0.8,1.6,1.3,2.3c3.2,4.4,6.5,8.8,10,13.6c3.2-6.5,6-12.5,10.5-17.7c15.5-17.7,39-19.1,53.9-12.1
	c3.7,1.7,7.6,3.3,10.6,6.2c0.9,0.8,1.7,2.2,3,1.8c1.8-0.6,0.9-2.5,1.2-3.8c0.4-2.2,0.8-4.4,1.3-6.6c2.3-15.8,11.7-27.3,23.5-37.2
	c1.8-1.5,3.8-2.5,4.3-5c2.7,0.2,5.2-0.5,7.7-1.7c19.3-8.6,38.1-7.3,56.5,2.6c10.2,6.2,18.8,14.2,24.1,25c2.5,4.9,4.3,3.6,6.8,0.2
	c12.5-16.9,44-17.6,56.4-0.4c4,5.5,8.2,10.7,9.4,17.6c0.4,3,1.2,6.1,1.1,9.2c-0.1,4.8,1.6,4.7,5,2.7c8.4-4.8,17.3-7.8,27-8.1
	c16.7-0.5,31.2,5,43.4,16.3c2.5,2.3,3.7,3,4.4-1.4c1-6.1,2.3-12.2,5.9-17.4c9.1-21.3,25.2-34.3,47.5-39.1"/>
<path style="fill:none;stroke:#000000;stroke-width:2;stroke-miterlimit:10;" d="M575.5,552c-1.8-1-3.4-2.2-5.6-2
	c-14.3-12.7-30-23.1-48.9-27.7c-16.4-4-32.6-2.9-48.8,1.3c-22.6,6-42,17.6-58.7,33.8c0-0.6,0-1.2,0-1.8c0.1-5.6-0.2-11-0.9-16.4
	c-2.1-17-8.1-32.8-18.8-47.1c-3.4-4.6-7.6-8.6-11.4-12.9c-15.3-14.3-33.2-22.6-54-25c-28.3-3.3-52.9,4.9-74.3,23.4
	c-0.9,0.8-2.1,1.1-3.2,1.6c-0.2,2.3-1.8,3.7-3.4,5c-4.6,3.9-8,8.8-11.2,13.8c-6.6,10.4-10.4,21.8-13.3,33.8c-2.7-1.6-3-4.2-4.2-6.3
	c-11-19.6-27.9-30.4-50.1-31.3c-28.9-1.3-52.2,16.8-59.4,45.1c-0.8,3.3-1.7,3.2-3.9,1.3c-3.4-3-6.6-6.2-10.3-8.9"/>
<path style="fill:none;stroke:#000000;stroke-width:2;stroke-miterlimit:10;" d="M562.1,316.8c-1.3-1.3-2.7-2.5-4.3-3.4l0,0
	C559.4,314.4,560.8,315.5,562.1,316.8z"/>
<path style="fill:none;stroke:#000000;stroke-width:2;stroke-miterlimit:10;" d="M557.8,313.4c1.7,1,3.1,2.1,4.3,3.4
	C560.8,315.5,559.4,314.4,557.8,313.4L557.8,313.4z"/>
<path style="fill:none;stroke:#000000;stroke-width:2;stroke-miterlimit:10;" d="M74.3,241L74.3,241c-1,0.1-2.1,0.1-3.1,0
	C72.2,241.1,73.2,241.1,74.3,241z"/>
<path style="fill:none;stroke:#000000;stroke-width:2;stroke-miterlimit:10;" d="M74.3,241L74.3,241c-1,0.1-2.1,0.1-3.1,0
	C72.2,241.1,73.2,241.1,74.3,241z"/>
<path style="fill:none;stroke:#000000;stroke-width:2;stroke-miterlimit:10;" d="M321.2,62.2c0.1,6.2,0.2,12.4,0.2,18.5
	C321.4,74.5,321.3,68.3,321.2,62.2c0.1-7.5,0.2-15,0.3-22.5C321.4,47.2,321.3,54.7,321.2,62.2z"/>
<path style="fill:none;stroke:#000000;stroke-width:2;stroke-miterlimit:10;" d="M321.5,39.7c-0.1,7.5-0.2,15-0.3,22.5l0,0
	C321.3,54.7,321.4,47.2,321.5,39.7z"/>
<path style="fill:none;stroke:#000000;stroke-width:2;stroke-miterlimit:10;" d="M255.6,84.5L255.6,84.5L255.6,84.5
	c-1.1-1.8-2.3-3.5-3.4-5.3C253.3,81,254.4,82.8,255.6,84.5z"/>
<path style="fill:none;stroke:#000000;stroke-width:2;stroke-miterlimit:10;" d="M413.5,555.7c0,0.6,0,1.2,0,1.8l0,0
	C413.5,556.9,413.5,556.3,413.5,555.7z"/>
<path style="fill:none;stroke:#000000;stroke-width:2;stroke-miterlimit:10;" d="M413.5,555.7c0,0.6,0,1.2,0,1.8l0,0
	C413.5,556.9,413.5,556.3,413.5,555.7z"/>
<path style="fill:none;stroke:#000000;stroke-width:2;stroke-miterlimit:10;" d="M569.9,550.1c2.2-0.3,3.8,0.9,5.6,2"/>
<path style="fill:none;stroke:#000000;stroke-width:2;stroke-miterlimit:10;" d="M355.9,307.9c0,1.7-0.1,3.3-0.1,4.9l0,0
	c-0.1,1.6-0.1,3.2-0.3,5.8c-3-1.8-5.4-3.2-7.9-4.6C351.5,313.4,353.8,310.7,355.9,307.9z"/>
<path style="fill:none;stroke:#000000;stroke-width:2;stroke-miterlimit:10;" d="M38.2,301.5c3.6-2.8,7.1-5.5,10.7-8.3
	c14.1-6.7,28.3-7.3,42.8-1.4c3.5,2.3,7,4.6,10.6,6.9c0.5-1.7,1-3.2,1.5-4.6c0.2-1.6,0.3-3.2,0.5-4.7c2.2-4.1,3.4-8.8,6.9-12.2
	c7-10,17.3-14,28.9-15.3h2.5c2,0.3,4.1,0.5,6.1,0.8c8.8,2.6,16.7,6.7,22.4,14.2c0.4,0.8,0.8,1.6,1.3,2.4c3.5,3.9,4.7,8.8,6,13.7l0,0
	c0,1,0.1,2,0.2,3.1c0,1,0.1,2,0.1,3.1c0.2,5.3,4.3,7.7,9,5.3c1.1-0.5,2.1-1.1,3.2-1.6c5.1-11.9,14.9-18.6,26.3-23.3
	c7.1-2.9,14.5-4.4,22.2-3.9c19.4,1.7,35,10,45.1,27.1c3.8,5.7,6.2,12,6.9,18.8c0.9,1.1-0.2,5.4,3.3,2.1
	c15.5-14.5,33.3-16.7,52.7-9.6c2.5,1.5,4.9,2.9,7.9,4.6c0.1-2.6,0.2-4.2,0.3-5.8c0.2,0.1,0.4,0.3,0.5,0.4c-0.2-0.1-0.4-0.3-0.5-0.4
	c0-1.6,0.1-3.3,0.1-4.9c0.8-2.1,1.6-4.2,2.3-6.3c2.2-8,8.8-12,15-16.4c15.5-5.5,28.5-1.5,39.1,11.4c2.2-4.3,4.3-8,7.3-11.1
	c2.6-4,6.4-6.8,9.9-9.9c4.1-2.1,8.3-4.2,12.4-6.4c12.2-3.6,24.2-2.9,36,1.3c7.1,3.9,14,7.9,18.7,14.7c1.6,0.1,2.2,1.2,2.6,2.6
	c3,5.6,6.7,10.9,7.3,17.5c1.8,2.7,1.1,5.7,1.2,8.6c0.8,0,1.6,0.1,2.4,0.2c11.6-10.1,24.8-10.9,38.7-6.2c1.2,0.4,2.3,0.9,3.4,1.3
	c1.7,1.4,3.5,2.8,5.2,4.2c1.7,1,3.1,2.1,4.3,3.4c3.8,3.9,6.1,9.1,9.3,13.9c2.2-4.3,3.8-8.1,5.9-11.5c0.3-0.6,0.7-1.1,1.1-1.7"/>
<path style="fill:none;stroke:#000000;stroke-width:2;stroke-miterlimit:10;" d="M523,368.2c-22.3,4.8-38.5,17.8-47.5,39.1
	c-3.6,5.3-4.9,11.4-5.9,17.4c-0.7,4.4-1.9,3.7-4.4,1.4c-12.2-11.4-26.8-16.8-43.4-16.3c-9.7,0.3-18.6,3.3-27,8.1c-3.4,2-5.1,2-5-2.7
	c0.1-3-0.7-6.1-1.1-9.2c-1.2-6.9-5.5-12.1-9.4-17.6c-12.4-17.1-43.9-16.5-56.4,0.4c-2.5,3.4-4.4,4.7-6.8-0.2
	c-5.4-10.8-13.9-18.8-24.1-25c-18.4-9.9-37.3-11.2-56.5-2.6c-2.5,1.1-5,1.9-7.7,1.7c-0.5,2.4-2.5,3.5-4.3,5
	c-11.7,9.9-21.1,21.3-23.5,37.2c-0.4,2.2-0.8,4.4-1.3,6.6c-0.3,1.3,0.7,3.2-1.2,3.8c-1.3,0.5-2.2-0.9-3-1.8
	c-3.1-2.9-6.9-4.5-10.6-6.2c-15-6.9-38.5-5.6-53.9,12.1c-4.5,5.2-7.3,11.2-10.5,17.7c-3.6-4.8-6.8-9.2-10-13.6c0-1-0.3-1.8-1.3-2.3
	c-0.8-1.7-2.1-3-3.8-3.8c-11.4-11.4-25.2-17.1-41.1-19"/>
<path style="fill:none;stroke:#000000;stroke-width:2;stroke-miterlimit:10;" d="M449.6,119.1c-2.6,3.7-5.3,7.4-7.9,11.2l0,0
	C444.3,126.5,447,122.8,449.6,119.1z"/>
<path style="fill:none;stroke:#000000;stroke-width:2;stroke-miterlimit:10;" d="M449.6,119.1c-2.6,3.7-5.3,7.4-7.9,11.2l0,0
	C444.3,126.5,447,122.8,449.6,119.1z"/>
<path style="fill:none;stroke:#000000;stroke-width:2;stroke-miterlimit:10;" d="M480.2,184.8c-0.5,0.4-0.9,0.8-1.4,1.2l0,0
	C479.3,185.6,479.8,185.2,480.2,184.8z"/>
<path style="fill:none;stroke:#000000;stroke-width:2;stroke-miterlimit:10;" d="M485.8,180.9c-1.1,0.6-2.1,1.3-3.1,2
	C483.7,182.2,484.8,181.6,485.8,180.9z"/>
<path style="fill:none;stroke:#000000;stroke-width:2;stroke-miterlimit:10;" d="M480.2,184.8c-0.5,0.4-0.9,0.8-1.4,1.2l0,0
	C479.3,185.6,479.8,185.2,480.2,184.8z"/>
<path style="fill:none;stroke:#000000;stroke-width:2;stroke-miterlimit:10;" d="M485.8,180.9c-1.1,0.6-2.1,1.3-3.1,2
	C483.7,182.2,484.8,181.6,485.8,180.9z"/>
<path style="fill:none;stroke:#000000;stroke-width:2;stroke-miterlimit:10;" d="M109.2,423.4c-0.4-0.8-0.9-1.6-1.3-2.3
	C108.9,421.6,109.2,422.4,109.2,423.4z"/>
<path style="fill:none;stroke:#000000;stroke-width:2;stroke-miterlimit:10;" d="M534.8,152.9c-1.4,0.8-3.1,1.4-3.6,3.2
	c-7.7,0.5-12.4,6.6-18.5,10.2c-4.5,0.5-7.3,4.9-11.9,5.1c-3.3,3-7.2,5.1-11,7.3c-1,0.5-1.9,1.1-2.9,1.6c-0.4,0.2-0.7,0.4-1.1,0.6
	c-1.1,0.6-2.1,1.3-3.1,2c-0.3,0.2-0.7,0.5-1,0.7c-0.5,0.4-1,0.7-1.5,1.1l0,0c-0.5,0.4-0.9,0.8-1.4,1.2l0,0l0,0
	c-5,0.5-8.3,4.3-12.5,6.3c-8.1,3.8-15.1,9.9-23.8,12.6c-1,0.8-1.8,1.7-2.9,2.3c-7.5,4.6-15,9.2-22.5,13.7
	c-10.6,5.4-20.8,11.5-30.8,18.4c13.1-3,26.6-3.3,39.5-7.2l26.1-3.8c13.7-2.5,27.4-5,41-7.6c12-2,24-4,35.9-6
	c0.8-0.4,1.7-0.8,2.5-1.3c6.8-0.3,13.4-1.8,19.8-3.7"/>
<path style="fill:none;stroke:#000000;stroke-width:2;stroke-miterlimit:10;" d="M496,64.5c-1.9,2.4-3.8,4.9-5.7,7.3
	C478.8,84.7,467.6,98,457,111.7c-2.4,2.5-4.9,5-7.4,7.4c-2.6,3.7-5.3,7.4-7.9,11.2c-10.4,9.9-18.5,21.8-28.1,32.4
	c-3.8,4.2-7.9,8.3-10.2,13.6c-0.8,0.4-1.6,0.8-2.4,1.2c-9.7,11.7-19.4,23.5-29.2,35.2c0.3,0.3,0.6,0.6,0.9,0.9
	c13.6-7.9,27.1-15.8,40.7-23.7c3.5-1.3,6.2-4.4,10-5.1c2.7-1.8,5.4-3.6,8.2-5.3c10.9-6.5,21.8-12.9,32.7-19.4
	c6.2-3.3,12.5-6.7,18.7-10c0.7-1.7,2.1-2.3,3.8-2.7c14.9-8.6,29.8-17.3,44.7-25.9"/>
<path style="fill:none;stroke:#000000;stroke-width:2;stroke-miterlimit:10;" d="M407.3,34.7c-2.7,7-6.2,13.7-7.6,21.1
	c-4.1,10.3-8.2,20.7-12.3,31c-0.8,2.9-1.7,5.8-2.5,8.7c-7.1,19.5-14.2,39-21.3,58.4c0,0.4,0,0.8,0,1.3c-5.7,12-9.8,24.5-13.5,37.1
	c-0.3,0.4-0.6,0.9-0.8,1.3c0,0,0.3,0.2,0.4,0.3c0.2-0.5,0.3-1,0.5-1.6c10.2-8.9,18.6-19.4,26.2-30.6c1.2-0.7,2.4-1.3,3.6-2
	c4.1-7.4,10.6-13,15.6-19.7c7.1-9.6,16.6-17.2,21.9-28.1c3.8-1,5.3-4.9,8.4-6.8c0.1-1.8,1.5-2.8,2.4-4.1c4.7-6.5,11.3-11.7,15.1-19
	c5.7-5.2,10.8-11,14.9-17.5C469.5,53,479.2,40.2,489.5,28"/>
<path style="fill:none;stroke:#000000;stroke-width:2;stroke-miterlimit:10;" d="M321.5,39.7c-0.1,7.5-0.2,15-0.3,22.5
	c0.1,6.2,0.2,12.4,0.3,18.5c-1.9,21.9-0.9,43.9,0.1,65.8c-0.9,4.5-1.5,9-1.2,13.5c2.1,7.3,0.4,14.9,1.6,24.1
	c4.4-12.4,9.4-22.7,12.1-33.8c0.8-1.3,1.6-2.6,2.4-3.9c-0.3-2,0.7-3.6,1.4-5.3c6.3-17.6,13.4-34.9,18.6-52.9c1.6-3,3.2-6,4.7-9
	c1.1-10,7.4-18.4,8.9-28.3"/>
<path style="fill:none;stroke:#000000;stroke-width:2;stroke-miterlimit:10;" d="M242,47.1c0.7,2.6,1.2,5.2,2.1,7.7
	c2.9,8.1,6.8,15.8,8,24.5c1.1,1.8,2.3,3.5,3.4,5.3l0,0c0.5,2,0.9,4,1.6,5.9c7.4,20.3,14.9,40.5,22.4,60.8c0,0.4-0.1,0.9-0.1,1.3
	c5.1,10.4,7.8,21.8,13.6,32.2v-24.7c0.4-4.2-0.6-8.2-1.2-12.3c0.4-1.8,1.1-3.6,1.1-5.4c0.1-21.8,0-43.7,0-65.5
	c0-5.8,0.1-11.5,0.2-17.3c-0.4-7-0.7-14-1.1-21"/>
<path style="fill:none;stroke:#000000;stroke-width:2;stroke-miterlimit:10;" d="M151.2,60.4c2.4,2.8,4.7,5.7,7.6,8
	c3.8,7.1,9.8,12.4,15,18.4c4,6.5,10.4,11.2,13.7,18.2c3.7,3.6,7.3,7.1,11,10.7c5.9,9.5,14.1,17.1,20.8,25.9
	c6.2,8.2,14.2,14.9,19.2,24.1c1.6,1.1,3.2,2.2,4.8,3.4c5.7,9.2,13.5,16.7,21.3,24.5c-3.8-10.3-7.6-20.7-11.4-31
	c-0.4-1.2-0.7-2.5-1.1-3.7c-0.9-2.3-1.7-4.6-2.6-6.9c-6.8-17.4-12.1-35.5-19.7-52.6c-1.3-4.6-2.6-9.2-3.9-13.8
	c-4.4-7.4-5.4-16.1-9.7-23.5c-1.5-7.8-4.9-15-7.7-22.4"/>
<path style="fill:none;stroke:#000000;stroke-width:2;stroke-miterlimit:10;" d="M77.6,119.1c1.4,0.8,2.9,1.6,4.3,2.4
	c14,8.1,27.5,17.1,42.2,23.8c3.3,4,9,4.6,12.5,8.5c10.8,5.8,21.5,11.7,32.2,17.5c11.6,7,23.2,14,34.8,21c2.5,1.3,5,2.5,7.5,3.8
	c4.9,2.9,9.6,6,14.4,8.9c4.9,2.9,9.9,5.5,15.4,7.3c-6.5-8.7-13-17.4-21.1-24.8c-0.4-0.4-0.8-0.9-1.2-1.3c0,0,0,0,0.1,0
	c-0.1-2.8-2.9-3.9-3.9-6.2c-9.5-11.2-19.1-22.3-28.6-33.4c-7.4-9.1-14.9-18.3-22.3-27.4c-3.4-3.2-5.8-7.3-9.7-9.9
	c-9.1-12.7-19.3-24.5-29.8-36"/>
<path style="fill:none;stroke:#000000;stroke-width:2;stroke-miterlimit:10;" d="M64.5,210.8c6.8,0.3,13.2,2.9,19.9,3.9
	c4.2,0.4,8.3,0.9,12.5,1.4c12.3,2.8,24.6,5.6,37.2,6.3c8.7,1.9,17.3,3.9,26,5.8c11.2,1.7,22.4,3.3,33.6,5c5.3,1.1,10.7,2.3,16,3.3
	c5.4,1,10.8,1.7,16.3,1.8c0.6,0.5,1.1,1.1,1.7,1.6c0.1-0.2,0.3-0.4,0.3-0.5c-0.3-1-1.2-1-2-1.1c-8.5-5.8-17.3-11.2-26.9-15
	c-3.8-4.6-9.8-6-14.2-9.8c-1.2-0.2-2.7-0.1-3.5-0.8c-7.5-6.3-16.6-9.9-24.7-15.2c-3.8-2.4-7.6-5.1-12.3-5.5
	c-0.5-2.6-2.9-3.3-4.8-4.4c-6.8-4.2-14.3-7.3-20.5-12.5c-2.4-0.5-4.7-1.1-7.1-1.6c0-0.2,0-0.3-0.1-0.5c-0.3-1.1-0.9-2-1.9-2.5
	c-9.3-5.2-18.7-10.3-28-15.5"/>
<path style="fill:none;stroke:#000000;stroke-width:2;stroke-miterlimit:10;" d="M552.6,239.6c-4.9,0.5-9.8,0.9-14.7,1.4l0,0
	c-3.5,2-8,1-11.4,3.5c-16.8,1.7-33.3,4.5-49.7,8.7c-5.3,0.5-10.6,1-15.9,1.5c-6.7,1.6-13.4,3.1-20.2,4.6l0,0
	c-16.4,1.4-32.2,5.7-48.3,9.3c12.4,2.3,24.9,4.7,37.3,7c-3.5,3.1-7.4,5.9-9.9,9.9c-2.9,3.1-5.1,6.8-7.3,11.1
	c-10.7-13-23.6-16.9-39.1-11.4c0.8-9.5,2.2-19-0.6-28.4c-0.2-1.4-0.3-2.9-0.7-4.3c-9.7-35.1-47.4-56.9-82.5-47
	c-27.8,7.8-44.3,27.2-48.7,52.6c-1.9,5.7-1.2,11.6-1.1,17.4c-7.7-0.4-15.2,1-22.2,3.9c-11.4,4.7-21.2,11.4-26.3,23.3
	c-1.1,0.5-2.1,1.1-3.2,1.6c-4.8,2.4-8.8,0.1-9-5.3c0-1-0.1-2-0.1-3.1c0-1-0.1-2-0.1-3.1c-1.3-4.9-2.5-9.8-6-13.7
	c-0.4-0.8-0.8-1.6-1.3-2.4c16.9-1.5,33.2-5.9,49.8-8.9c-10.3-2.4-20.6-4.2-30.8-6.1c-15.1-2.8-30.1-5.7-45.2-8.5c-2.9,0-5.8,0-8.6,0
	c-15.3-5.2-31.3-6.4-47-9c-5.1-1.2-10.1-2.3-15.2-3.5c-1,0.1-2.1,0.1-3.1,0c-0.5,0-1-0.1-1.5-0.1c-0.4,0-0.8-0.1-1.2-0.1
	c-1.2-0.1-2.3-0.3-3.5-0.6c-0.3,0-0.6-0.1-0.8-0.2c-0.6-0.1-1.1-0.2-1.7-0.4c-0.7-0.1-1.3-0.3-2-0.5c-1.2-0.3-2.4-0.6-3.6-0.8
	c-0.4-0.1-0.7-0.2-1.1-0.2c-1.2-0.3-2.5-0.5-3.7-0.7c-0.5-0.1-1-0.1-1.5-0.2h-0.1c-0.4,0-0.8-0.1-1.1-0.1h-0.1c-0.2,0-0.4,0-0.6,0
	c-0.9,0-1.8,0-2.7,0"/>
<path style="fill:none;stroke:#000000;stroke-width:2;stroke-miterlimit:10;" d="M218.6,186.1L218.6,186.1
	C218.5,186.1,218.5,186.1,218.6,186.1L218.6,186.1z"/>
<path style="fill:none;stroke:#000000;stroke-width:2;stroke-miterlimit:10;" d="M460.8,254.6c-6.7,1.6-13.4,3.1-20.2,4.6l0,0
	C447.4,257.7,454.1,256.2,460.8,254.6z"/>
<path style="fill:none;stroke:#000000;stroke-width:2;stroke-miterlimit:10;" d="M198.5,115.8L198.5,115.8c-3.7-3.5-7.3-7.1-11-10.7
	C191.2,108.7,194.8,112.2,198.5,115.8z"/>
<path style="fill:none;stroke:#000000;stroke-width:2;stroke-miterlimit:10;" d="M198.5,115.8L198.5,115.8c-3.7-3.5-7.3-7.1-11-10.7
	C191.2,108.7,194.8,112.2,198.5,115.8z"/>
<path style="fill:none;stroke:#000000;stroke-width:2;stroke-miterlimit:10;" d="M255.6,84.5L255.6,84.5L255.6,84.5
	c-1.1-1.8-2.3-3.5-3.4-5.3C253.3,81,254.4,82.8,255.6,84.5z"/>
<path style="fill:none;stroke:#000000;stroke-width:2;stroke-miterlimit:10;" d="M321.5,80.7c-0.1-6.2-0.2-12.4-0.3-18.5l0,0
	C321.3,68.3,321.4,74.5,321.5,80.7z"/>
<path style="fill:none;stroke:#000000;stroke-width:2;stroke-miterlimit:10;" d="M413.5,557.5c-0.1,0.2-0.2,0.3-0.3,0.5
	C413.3,557.8,413.4,557.7,413.5,557.5L413.5,557.5z"/>
<path style="fill:none;stroke:#000000;stroke-width:2;stroke-miterlimit:10;" d="M373.3,285.2c-6.2,4.4-12.8,8.4-15,16.4
	c-0.8,2.1-1.6,4.2-2.3,6.3c-2.2,2.8-4.5,5.5-8.2,6.1c-19.4-7-37.2-4.9-52.7,9.6c-3.5,3.3-2.4-1-3.3-2.1c-0.7-6.9-3.1-13.1-6.9-18.8
	c-10.1-17.2-25.7-25.4-45.1-27.1c-0.1-5.8-0.8-11.7,1.1-17.4c4.4-25.4,20.9-44.9,48.7-52.6c35.1-9.8,72.8,11.9,82.5,47
	c0.4,1.4,0.4,2.8,0.7,4.3C375.5,266.3,374.1,275.8,373.3,285.2z"/>
<path style="fill:none;stroke:#000000;stroke-width:2;stroke-miterlimit:10;" d="M460.8,254.6c-6.7,1.6-13.4,3.1-20.2,4.6l0,0
	C447.4,257.7,454.1,256.2,460.8,254.6z"/>
<path style="fill:none;stroke:#000000;stroke-width:2;stroke-miterlimit:10;" d="M218.6,186.1L218.6,186.1
	C218.5,186.1,218.5,186.1,218.6,186.1L218.6,186.1z"/>
<path style="fill:none;stroke:#000000;stroke-width:2;stroke-miterlimit:10;" d="M218.6,186.1L218.6,186.1
	C218.5,186.1,218.5,186.1,218.6,186.1L218.6,186.1z"/>
<path style="fill:none;stroke:#000000;stroke-width:2;stroke-miterlimit:10;" d="M227.9,239.4c0,0.1-0.2,0.3-0.3,0.5
	c-0.6-0.5-1.1-1.1-1.7-1.6C226.7,238.5,227.6,238.4,227.9,239.4z"/>
<path style="fill:none;stroke:#000000;stroke-width:2;stroke-miterlimit:10;" d="M350.2,192.4c-0.2,0.5-0.3,1-0.5,1.6
	c-0.1-0.1-0.4-0.3-0.4-0.3C349.5,193.2,349.8,192.8,350.2,192.4L350.2,192.4z"/>
<path style="fill:none;stroke:#000000;stroke-width:2;stroke-miterlimit:10;" d="M240.9,212.3c0.2,0.1,0.3,0.2,0.5,0.3
	C241.2,212.5,241,212.4,240.9,212.3L240.9,212.3z"/>
<path style="fill:none;stroke:#000000;stroke-width:2;stroke-miterlimit:10;" d="M148.9,262.7c-2-0.2-4.1-0.5-6.1-0.8
	C145.1,260.2,147.2,259.7,148.9,262.7z"/>
</svg>
