<?xml version="1.0" encoding="utf-8"?>
<!-- Generator: Adobe Illustrator 22.1.0, SVG Export Plug-In . SVG Version: 6.00 Build 0)  -->
<svg version="1.1" id="Layer_1" xmlns="http://www.w3.org/2000/svg" xmlns:xlink="http://www.w3.org/1999/xlink" x="0px" y="0px"
	 viewBox="0 0 2602.7 1545.4" style="enable-background:new 0 0 2602.7 1545.4;" xml:space="preserve">
<path style="fill:none;stroke:#000000;stroke-width:6;stroke-miterlimit:10;" d="M2118.8,521.7c189.4,34.2,347.8,89.1,462.5,173.1
	h-52.8c-119.1-58.3-263.5-96.1-427-118.3c-6.5-0.9-13.2,0.5-19,3.6c-43.7,23.9-89.9,31.4-139.8,33.7c-38.3,1.8-82.8,38.7-83.9,49.3
	c-25.9,232.9-90.7,347-248.8,404.4c-122,32.8-236.1,81.9-344.5,142.6c1.7,102.4-3.9,169.3-13.7,215.4c-0.6,2.9-4.6,3.1-5.6,0.3
	c-14.8-43-15-104.5-7.7-175.3c-8.8,97.6-20.9,179.4-37,242.3c-0.7,2.8-4.4,3.4-5.9,0.9c-18.9-30.6-12.7-108.5,16-228.6
	c-20.6,56.7-38.6,110.1-46.4,158.5c-8.1,50.7-15.5,92.4-28.9,106.7c-2.9,3.1-7.9,3-10.7-0.2c-13.1-15.1-15.6-48.9-3.3-96.5
	c14.1-54.9,37.7-110.7,60.5-169.6c-28.4,60.3-55,113.3-78.5,154.2c-1.1,1.9-3.8,1.7-4.7-0.3c-5.1-11.4-7.7-25.6-1.9-41.3
	c13.1-35.1,40.7-82.6,59.3-112.7c-19.1,21.7-37.2,43.2-54.2,64.5c-1.2,1.5-3.6,0.6-3.6-1.3c0.4-31.5,40.2-71.3,68.4-119
	c26.9-45.5,30.1-102.4,30.5-160.2c2.2-77.1,22.3-144.3,60.5-201.9c-15.6,17.8-31.3,29.4-47.3,33.3c-4,1-7.9-2.4-7.2-6.5
	c6.1-40.3,54.5-88.4,103.2-136.6c-61.1,61.2-122.4,111.1-184.1,146.9c-2.6,1.5-5.5-1.2-4.2-3.9c26.2-56.1,90-105.3,155.4-154.2
	c-31.7,28.8-68.3,50.1-104.7,74.6c-40.6,27.3-68.7,62-120.2,69.9c-3.4,0.5-5.8-3.3-3.8-6.2c30.3-54.9,113.4-107.4,192.9-151.8
	c-102.8,55.8-208.1,117.3-261.7,132c-4.3,1.2-8.5-2.7-7.4-7c8.9-34.9,102.6-82.7,213.9-133.1c-99.3,41.4-211.5,89.5-250,99.2
	c-15.8,4.8-28.8,5.4-40.4,4c-5.1-0.6-7.6-6.8-4.1-10.7c33.7-37.6,172.6-76.8,276.3-115.4c-106.8,30.7-208.8,62.6-274.4,79.6
	c-15.4,2.6-36,3.5-55.2,0.3c-4.7-0.8-6.3-6.8-2.7-9.9c39.2-33.9,164.6-63.3,300.5-92.3C970,690.3,813.1,721.6,716.6,748
	c-3.5,0.9-7,1.7-10.5,2.1c-26.2,3.2-56,3.6-87.4,2.8c-5-0.1-6.8-6.8-2.5-9.3c14.8-8.8,41.3-22.1,76.5-29.3
	c153.2-31.7,374.7-83.7,376.2-86.3c2.1-3.5-438.7,78-540.3,101.1c-18.5,4.2-37.4,6.5-56.4,6.8c-21,0.3-40.1-0.2-54.2-2.7
	c-5.3-1-6.1-8.3-1.1-10.4C516.9,681.2,792,637.4,1032,594c-243.7,27.9-473.5,64.2-676.1,116.8c-37.2,6.2-70.4,5.6-98.6-3.5
	c-4.8-1.6-5.4-8.2-0.9-10.6C346.3,647.9,699,605.4,972,561c-263.2,22.6-125.8-14-739.5,113.8c-29.5,6.5-63.9,6.2-100.3,3.2
	c-7.6-0.6-9.7-10.7-3.1-14.4c105.4-58.2,503-95.6,800-140.2c-87.3-23.1-486.4,59.4-822.3,119.7c-29.7,5.3-57.1,1.7-80.9-5.4
	c-5.9-1.7-6.3-10-0.6-12.3c194.4-80.8,489.1-117.5,802.9-139.6c-10-9.1-15.4-18.5,1.2-29.3c50.7-9.1,131.6-12.1,217.7-14.1
	c-119.4-1.3-228.3-8.5-312.1-29.6c-5.7-1.4-6-9.5-0.4-11.4c50.2-17.3,151.5-22.4,286.1-19.5c-164.4-6.4-303.1-19.3-373.8-49.2
	c-5.9-2.5-5.1-11.2,1.2-12.5c89.9-18.7,199.6-14.6,318-0.5c-153.8-17.2-288.2-40.4-381.7-76.1c-6.5-2.5-5.4-12,1.5-12.9
	c85.8-11.9,192-2.2,309.2,19.2c-149.8-21.8-276.9-59.1-370.2-119.2c-4-2.6-2.1-8.7,2.6-8.6c87.9,2.1,207.7,28.2,348.8,70.3
	C694.9,130.9,568,75.9,504.8,28.5c-6.6-5-3.3-15.6,5-15.8c138.1-3.4,396.6,132,643,237.2c118.7,50.7,220,108.2,299.3,180.2
	c34.9,31.7,41.2,90.6,71,112.1c17,12.3,52.5,11.4,59.3,1.8c90-129.1,157.1-215.4,268.2-216.6C1945.8,326.4,2035,384,2118.8,521.7
	L2118.8,521.7z"/>
</svg>
