<?xml version="1.0" encoding="utf-8"?>
<!-- Generator: Adobe Illustrator 22.1.0, SVG Export Plug-In . SVG Version: 6.00 Build 0)  -->
<svg version="1.1" id="Layer_1" xmlns="http://www.w3.org/2000/svg" xmlns:xlink="http://www.w3.org/1999/xlink" x="0px" y="0px"
	 viewBox="0 0 612 792" style="enable-background:new 0 0 612 792;" xml:space="preserve">
<path style="fill:none;stroke:#000000;stroke-width:2;stroke-miterlimit:10;" d="M475.1,397.6c-2-0.5-4-1.1-6.1-0.7
	c-1.4-1.8-3.5-1.5-5.3-1.8c-7.3-1.3-14.7-1-22.1-0.7c-0.3-0.7-0.7-1.3-1.1-2c0,0,0,0,0-0.1c-0.3-0.6-0.7-1.2-1-1.9
	c-0.4-0.7-0.8-1.4-1.2-2.1c-0.7-1.2-1.4-2.4-2.1-3.6s-1.5-2.3-2.2-3.5c-0.7-1.1-1.4-2.1-2.1-3.1c-0.1-0.2-0.3-0.4-0.4-0.6
	c-0.6-0.9-1.2-1.7-1.8-2.6c-0.2-0.2-0.3-0.5-0.5-0.7c0,0,0-0.1-0.1-0.1c0-0.1-0.1-0.1-0.1-0.2c-0.1-0.1-0.1-0.2-0.2-0.3
	c-0.5-0.6-0.9-1.3-1.4-1.9c-0.1-0.1-0.2-0.2-0.2-0.3c0,0,0,0-0.1-0.1c-0.2-0.2-0.3-0.4-0.5-0.7c-0.6-0.8-1.3-1.7-1.9-2.5
	c-0.2-0.2-0.3-0.4-0.5-0.6c-0.7-0.9-1.5-1.8-2.2-2.7c-0.1-0.1-0.2-0.3-0.3-0.4c0,0,0-0.1-0.1-0.1l-0.1-0.1c-0.8-0.9-1.5-1.8-2.3-2.7
	l0,0c-0.7-0.8-1.5-1.7-2.3-2.5c-0.1-0.1-0.1-0.1-0.2-0.2l0,0c-0.2-0.3-0.5-0.5-0.7-0.8c-0.7-0.7-1.4-1.4-2.1-2.1l-0.1-0.1
	c-0.6-0.6-1.1-1.2-1.7-1.7c-0.3-0.3-0.6-0.6-0.9-0.8l-0.1-0.1c-0.4-0.4-0.8-0.8-1.2-1.2c-0.4-0.4-0.9-0.8-1.3-1.2
	c-0.4-0.4-0.9-0.8-1.3-1.2c0,0-0.1,0-0.1-0.1c-0.8-0.7-1.5-1.4-2.3-2c-0.1-0.1-0.1-0.1-0.2-0.2s-0.2-0.2-0.2-0.2
	c-0.1-0.1-0.3-0.3-0.4-0.4c-0.9-0.8-1.7-1.5-2.6-2.3s-1.9-1.6-2.9-2.4c-0.3-0.3-0.6-0.5-0.9-0.7l-0.1-0.1c-0.9-0.7-1.7-1.4-2.6-2
	c-34.7-26.5-74-38.5-117.2-31.8c-65.8,10.3-108.3,50.2-133.5,110.3c-0.7,0.3-1.4,0.6-2.1,0.9c-0.6,0.2-1.3,0.3-1.9,0.5
	c-0.7,0.3-1.3,0.5-2,0.8c-1.1-0.1-2.1,0.3-3,1.1c-1.5,0.1-2.7,0.8-3.8,1.7c-5.5,2.1-9.6,5.9-13.3,10.3c-2.3-0.1-4.5-0.1-6.8-0.2
	c16-71.9,59.4-119.2,128.5-143.4c7.2-2.5,15-3.5,22.4-5.1c16.7-3.6,33.3-4.7,50.2-3.4c51.1,3.9,94.1,24.7,128.8,62.5
	C455.7,359.3,467.3,377.3,475.1,397.6z"/>
<path style="fill:none;stroke:#000000;stroke-width:2;stroke-miterlimit:10;" d="M395.2,428.1l-0.2,0.5c-2.7-0.5-5.4-0.5-8.1,0.3
	c-1.6,0.1-3.3,0.2-4.9,0.3c-1.2,0.1-2.5,0.2-3.7,0.3c-19-16.1-40.8-26.4-65.5-29.2c-40.3-4.5-74.4,9.3-103.1,37.3
	c-1.8,1.7-3.5,3.5-5.3,5.2c-0.6-4.5-3.2-8-5.5-11.6c4.3-4.6,8.4-9.5,12.9-13.8C267.8,363.7,347.9,371.6,395.2,428.1z"/>
<path style="fill:none;stroke:#000000;stroke-width:2;stroke-miterlimit:10;" d="M160.1,416L160.1,416L160.1,416L160.1,416z"/>
<path style="fill:none;stroke:#000000;stroke-width:2;stroke-miterlimit:10;" d="M611.3,454.6c-0.1,6.2-4.8,9.1-9.4,11.8
	c-1.8,1.1-3.9,1.7-5.9,2.5c-4.7,2.7-10.3,2.7-15,5c-2.6,0-5.3,0-7.9,0c-0.7,0.3-1.3,0.7-2,1c-3.6,0-7.2,0-10.8,0
	c-6.4,0-12.8-0.1-19.2-1v-1c3-0.6,4-2.6,4-5.4c0-3.7,0.4-7.4-0.1-11c-0.6-5.5,1.5-9.8,5.3-13.3c2.9-2.7,4.9-5.7,5.8-9.5
	c8.1,0,16.1-0.2,24,2c7.7,1.1,15.2,2.9,21.9,6.9C606.7,445.4,611.3,448.4,611.3,454.6z"/>
<path style="fill:none;stroke:#000000;stroke-width:2;stroke-miterlimit:10;" d="M495.8,446.7c-2.3,2.1-4.1,4.2-3.8,7.7
	c0.2,2.6-1.4,4.7-3.3,6.5c-3.3,3.2-5,7-4.7,11.6c0.2,2.8-0.7,5.2-2,7.6c-6.1-0.3-11.7-2.5-17-5.2c-2.7-1.3-5.2-2-8-1.8
	c0-0.7,0-1.3,0-2c-4.3,0.4-8.6,1.4-13,1c3.1-7.8,2.5-15.5-1-23c-1.5-0.8-2.3-2.3-3.4-3.5c-4-4-8.3-7.5-14.7-5.5
	c-5.2-1.4-9.5-5.1-15-6c-1.3-1.1-3.3-1.7-3-4c-2.7-2.2-6.3,0.2-9-2c-0.4-4.7,1.7-8.8,3.7-12.8c3.2-4.5,7.3-8,11.6-11.3
	c4.3-2,8.6-4.1,12.9-6.1c5.1-1.2,10.2-2.3,15.4-3.5l0,0c7.4-0.3,14.8-0.6,22.1,0.7c1.8,0.3,4,0,5.3,1.8c2.1-0.4,4.1,0.2,6.1,0.7
	c9.2,3.3,17.7,7.7,23.9,15.7c0.3,1,0.9,1.6,2,1.8c1.1,3.9,3,7.5,3.2,11.9C504.4,435,501.7,441.4,495.8,446.7z"/>
<path style="fill:none;stroke:#000000;stroke-width:2;stroke-miterlimit:10;" d="M556.1,433.8c-0.9,3.8-2.9,6.9-5.8,9.5
	c-3.8,3.5-5.9,7.8-5.3,13.3c0.4,3.6,0.1,7.3,0.1,11c0,2.8-1,4.8-4,5.4v1c-5.6-1.1-10.6,0.3-15,4c-4.1,0.3-7.8,2.4-12,2
	c-7.3,5.7-15.8,3.6-24,4c-3.1-0.4-5-3.4-8-4c1.3-2.3,2.2-4.8,2-7.6c-0.4-4.6,1.3-8.4,4.7-11.6c1.9-1.8,3.4-3.8,3.3-6.5
	c-0.2-3.4,1.5-5.6,3.8-7.7c5.9-5.3,8.7-11.7,8.4-19.8c-0.1-4.4-2.1-7.9-3.2-11.9c2.1-0.3,4.4,0.4,6.5-0.3c0.3-0.1,0.7-0.3,1-0.5
	c0.2-0.2,0.5-0.3,0.7-0.6l0,0c2.9,0.2,5.9,0.4,8.8,0.6c0.3,0.9,0.7,1.9,1,2.8c2,0.3,4,0.7,6,1c1,0.3,2,0.7,3,1c0.7,0,1.3,0,2,0
	c1.4-1.8,3.6,0.5,5-1.1C544.1,420.5,552.8,423.5,556.1,433.8z"/>
<path style="fill:none;stroke:#000000;stroke-width:2;stroke-miterlimit:10;" d="M444,472c-2,2.7-4,5.3-6,8c-2.3,1-4.5,2.2-6.8,2.8
	c-1.9,0.5-4,0.2-5.2-1.8c-5.6,2.4-10.4,7-17,7c-0.9,1.7-2.9,2.8-3,5c-2.1,1.2-4.5,1-6.7,1.2c-1.1-0.1-2.2-0.1-3.3-0.2
	c-2-1.5-4-1.5-6,0c-1.7-0.1-3.3-0.1-5-0.2c-1.3-2.7-3.1-2.1-5.1-0.7c-0.6-0.1-1.3-0.2-1.9-0.2c-11-1.5-20.9-5.6-29.2-13
	c-12.2-10.8-12.2-26-0.1-37c8.4-7.7,18.8-11.1,29.6-13.5c1.2-0.1,2.5-0.2,3.7-0.3c1.7-0.1,3.3-0.2,4.9-0.3c2.8,1.5,5.5,2,8.1-0.3
	l0.2-0.5c0.9,0.3,1.9,0.4,2.8-0.1c2.7,2.2,6.3-0.1,9,2c-0.3,2.3,1.7,2.9,3,4c5.4,0.9,9.7,4.6,15,6c6.3-2,10.7,1.5,14.7,5.5
	c1.1,1.1,1.9,2.7,3.4,3.5C446.5,456.5,447.1,464.2,444,472z"/>
<path style="fill:none;stroke:#000000;stroke-miterlimit:10;" d="M32.9,481.1L32.9,481.1L32.9,481.1L32.9,481.1z"/>
<path style="fill:none;stroke:#000000;stroke-width:2;stroke-miterlimit:10;" d="M580.9,474c0.1,6.4-3,11.5-7.1,16
	c-6.2,6.8-13.9,11-22.8,13.2c-1.2-1.2-1.7-0.5-2.1,0.7c-0.6,0.1-1.2,0.3-1.9,0.4c-3.6,1.3-7.3,2-11.1,1.8c-5.4-1.8-10.7-1.8-16.1,0
	c-1-0.1-2-0.2-2.9-0.2c-0.7-2.7-5.3-1.3-5-4.9c-5.3-2.4-10.7-4.5-15.2-8.2c-3-2.4-6-4.7-6.8-8.8c8.2-0.4,16.7,1.8,24-4
	c4.2,0.3,7.9-1.7,12-2c0.7,0.7,1.3,1.3,2,2c4.5,0.1,8.2-2.2,12-4c0.3-0.7,0.7-1.3,1-2c6.4,0.9,12.8,1,19.2,1c3.6,0,7.2-0.1,10.8,0
	c0.7-0.3,1.3-0.7,2-1C575.7,474,578.3,474,580.9,474z"/>
<path style="fill:none;stroke:#000000;stroke-width:2;stroke-miterlimit:10;" d="M245.3,492.9c-8.2,6.8-17.8,10.1-28.3,10.9
	c-4.5,0.7-8.9,1-13.4,0.3c-3.2-0.4-6.4-0.8-9.6-1.2c-1.2-1.1-1.8-2.4-2-4c-4.1-2.7-8.8-4.5-12.6-7.9c-11.9-10.6-8.8-26.6,3.1-34.4
	c0.8-0.5,1.6-1.1,2.5-1.7c3.5-1.7,6.9-3.8,11-4v-3c2.6-1.7,5.3-0.9,8-0.5c3.7,0.6,7.4,1.3,11-0.5c1,0.1,2,0.1,3,0.2
	c10.2,1,19.4,4.3,27.3,10.8C257.6,468.2,257.7,482.7,245.3,492.9z"/>
<path style="fill:none;stroke:#000000;stroke-width:2;stroke-miterlimit:10;" d="M517,505.9c-7.2-0.5-13.9-2.7-20.5-5.6
	c-1.5-0.6-2.8-1.9-4.6-1.6c-6.6,6.7-14.7,10.6-23.8,12.6c-1.1-1.2-1.7-0.8-2.2,0.6c-0.6,0.1-1.3,0.2-1.9,0.3
	c-6.9,2.1-14,2.1-21.1,1.6c-2-3-4.5-2-7-0.8c-0.7-0.1-1.3-0.1-2-0.2c-13.7-2.2-26-7.2-34.7-18.6c2.3-0.3,4.6-0.1,6.7-1.2
	c0.1-2.2,2.1-3.3,3-5c6.6,0,11.3-4.7,17-7c1.2,2.1,3.3,2.4,5.2,1.8c2.3-0.7,4.5-1.9,6.8-2.8c2-2.7,4-5.3,6-8c4.4,0.4,8.7-0.6,13-1
	c0,0.7,0,1.3,0,2c2.9-0.2,5.4,0.5,8,1.8c5.3,2.7,10.9,4.9,17,5.2c3,0.6,4.8,3.6,8,4c0.7,4.1,3.8,6.5,6.8,8.8
	c4.6,3.7,10,5.8,15.2,8.2C511.7,504.7,516.3,503.2,517,505.9z"/>
<path style="fill:none;stroke:#000000;stroke-width:2;stroke-miterlimit:10;" d="M107,513.9c-0.7,0.1-1.3,0.1-2,0.2
	c-1.6-1.3-3.1-1.5-4,0.8c-8.1,0.8-16.2,1-24.1-1.7c-0.7-0.1-1.3-0.2-2-0.3c-0.3-1.2-0.8-1.9-2-0.8c-14.1-3.5-24.3-13.9-25.3-25.9
	c2.4,0.3,4.9,0.6,7.3,0.9c0.3,0,0.7,0,1,0c5.7,0.4,11.3,2.4,17,0c3.4,0.3,7.1-0.9,10,2c3.8,1.2,7.5,2.6,11.3,3.6
	c4.9,1.4,7.2,4.1,6.9,9.6c-0.3,6.8,2.1,8.3,8.8,6.7C110.5,511.5,107.5,511.9,107,513.9z"/>
<path style="fill:none;stroke:#000000;stroke-width:2;stroke-miterlimit:10;" d="M155,484c0,0.7,0,1.3,0,2c-4.9-1.1-8.7,2.2-13,3.5
	c-3,0.9-5.8,2.4-9,2.5c-1.2,3.6-4.2,3-7,3c-3.3,0.5-6.6,1.3-10,1c-3.4-2.1-8.2-0.3-11-4c1.3-1.8,2.2-3.6,2-5.9
	c-0.2-2.5,0.3-4.9,1.5-7.1c1.3-2.6,4.7-5.1,3.5-7.7s-5.5-0.8-8-2.3c0-0.7,0-1.3,0-2c-5.9-0.8-11.7-2.2-17-5c-0.7,2.2-2.3,1.8-4,1.5
	c-4.2-0.7-7.7-2.8-11-5.5c-1.8-2-1.9-4.6-3-6.9c3.3-9.7,11.8-12.2,20.3-14.7c0.3,0.2,0.7,0.3,1,0.5c0.6,0.5,1.2,1.1,2.3,0.6
	c-0.9-0.3-1.6-0.5-2.3-0.7c2.7-2.3,6.2-1.7,9.3-2.4c3.8-0.5,7.7-0.9,11.5-1.4c2.3,0.1,4.5,0.2,6.8,0.2c3.7-4.4,7.8-8.2,13.3-10.3
	c1.6,0.2,3.1,0.2,3.8-1.7c0.8-0.8,1.8-1.2,3-1.1c1.2,1.1,1.7,0.4,2-0.8c0.6-0.2,1.3-0.3,1.9-0.5c0,0.4,0.1,0.9,0.1,1.3
	c-0.3,1.7-1.7,2.4-3,3c-4.3,2-7.7,5.1-11,8.5c-8.1,8.4-8,20.6,0,29.1c2.4,2.6,5.1,4.7,8,6.6c0.6,0.4,1.3,0.8,2,1.2
	c0.3,0.2,0.7,0.4,1,0.6c0.7,0.4,1.4,0.7,2,1.1c0.7,0.4,1.4,0.7,2.1,1c0,1,0,2,0,3c2.6,1.6,5.6,1.7,8.5,2.1
	C156.4,476.7,157.6,479.7,155,484z"/>
<path style="fill:none;stroke:#000000;stroke-width:2;stroke-miterlimit:10;" d="M126,495c-2.3,6.3-7.1,9.7-13,12c-1,0.7-2,1.3-3,2
	c-6.7,1.6-9.2,0.1-8.8-6.7c0.3-5.5-2-8.2-6.9-9.6c-3.8-1.1-7.5-2.4-11.3-3.6c-2.9-2.9-6.6-1.7-10-2c-5.7,2.4-11.3,0.4-17,0
	c-0.3,0-0.7,0-1,0c-2.4-0.3-4.8-0.6-7.3-0.9c-4.3-1.3-8.8-1.8-12.7-4.1c-0.7-0.3-1.4-0.6-2.1-0.9l0,0l0,0c-2.1-0.2-3.6-1.5-5.2-2.6
	c-8-5.6-8-12.7,0.2-18.3c5.1-3.5,10.8-5.7,17-6.5c1.1,1.2,1.7,0.8,2.1-0.6c1-0.1,1.9-0.3,2.9-0.4c6.3-1.5,12.7-1.8,19.2-1.6
	c1,2.3,1.2,4.9,3,6.9c3.2,2.7,6.7,4.8,11,5.5c1.7,0.3,3.3,0.7,4-1.5c5.4,2.8,11.1,4.1,17,5c0,0.7,0,1.3,0,2c2.6,1.4,6.9-0.4,8,2.3
	c1.2,2.6-2.2,5.1-3.5,7.7c-1.2,2.3-1.7,4.6-1.5,7.1c0.2,2.3-0.7,4.2-2,5.9c2.8,3.7,7.6,1.9,11,4C119.4,496.3,122.7,495.5,126,495z"
	/>
<path style="fill:none;stroke:#000000;stroke-width:2;stroke-miterlimit:10;" d="M32.9,481.1L32.9,481.1L32.9,481.1L32.9,481.1z"/>
<path style="fill:none;stroke:#000000;stroke-miterlimit:10;" d="M32.9,481.1L32.9,481.1L32.9,481.1L32.9,481.1z"/>
<path style="fill:none;stroke:#000000;stroke-width:2;stroke-miterlimit:10;" d="M535,417.9c-1.4,1.6-3.7-0.7-5,1.1
	c-0.7,0-1.3,0-2,0c-0.5-1.8-1.5-2.2-3-1c-2-0.3-4-0.7-6-1c-0.3-0.9-0.7-1.9-1-2.8C523.8,415,529.6,415.6,535,417.9z"/>
<path style="fill:none;stroke:#000000;stroke-width:2;stroke-miterlimit:10;" d="M536,506.1c-5.4,1.2-10.7,1.2-16.1,0
	C525.3,504.3,530.7,504.3,536,506.1z"/>
<path style="fill:none;stroke:#000000;stroke-width:2;stroke-miterlimit:10;" d="M509.2,413.6c-0.2,0.2-0.5,0.4-0.7,0.6
	c-0.3,0.2-0.7,0.4-1,0.5c-2,0.8-4.4,0-6.5,0.3c-1-0.2-1.7-0.7-2-1.8C502.4,413.4,505.8,413.5,509.2,413.6z"/>
<path style="fill:none;stroke:#000000;stroke-width:2;stroke-miterlimit:10;" d="M443,513.8c-2.4,0.2-4.8,0.2-7-0.8
	C438.5,511.8,441,510.8,443,513.8z"/>
<path style="fill:none;stroke:#000000;stroke-width:2;stroke-miterlimit:10;" d="M396,494c-2,0.5-4,0.5-6,0
	C392,492.6,394,492.6,396,494z"/>
<path style="fill:none;stroke:#000000;stroke-width:2;stroke-miterlimit:10;" d="M385,493.9c-1.8,0.2-3.5,0.3-5.1-0.7
	C381.9,491.7,383.7,491.2,385,493.9z"/>
<path style="fill:none;stroke:#000000;stroke-width:2;stroke-miterlimit:10;" d="M105,514.1c-1.2,0.8-2.6,1-4,0.8
	C102,512.5,103.4,512.8,105,514.1z"/>
<path style="fill:none;stroke:#000000;stroke-width:2;stroke-miterlimit:10;" d="M151,520.8c-1.1,0.1-2.2,0-3-0.7
	c0.3-0.4,0.7-0.8,1-1.1C150,519.2,150.8,519.7,151,520.8z"/>
<path style="fill:none;stroke:#000000;stroke-width:2;stroke-miterlimit:10;" d="M551.1,503.2c-0.7,0.3-1.4,0.5-2.1,0.7
	C549.3,502.7,549.9,502,551.1,503.2z"/>
<path style="fill:none;stroke:#000000;stroke-width:2;stroke-miterlimit:10;" d="M47,453.2c-0.4,1.4-1.1,1.8-2.1,0.6
	C45.6,453.5,46.3,453.3,47,453.2z"/>
<path style="fill:none;stroke:#000000;stroke-width:2;stroke-miterlimit:10;" d="M468.2,511.3c-0.7,0.2-1.4,0.4-2.2,0.6
	C466.4,510.5,467,510.1,468.2,511.3z"/>
<path style="fill:none;stroke:#000000;stroke-width:2;stroke-miterlimit:10;" d="M75,512.8c-0.7-0.3-1.3-0.5-2-0.8
	C74.2,511,74.7,511.7,75,512.8z"/>
<path style="fill:none;stroke:#000000;stroke-width:2;stroke-miterlimit:10;" d="M92.7,437.5c-1.1,0.5-1.7-0.1-2.3-0.6v-0.2
	C91.1,437,91.8,437.2,92.7,437.5z"/>
<path style="fill:none;stroke:#000000;stroke-width:2;stroke-miterlimit:10;" d="M35,482c-0.8,0-1.6-0.2-2.1-0.9l0,0l0,0
	C33.6,481.4,34.3,481.7,35,482z"/>
<path style="fill:none;stroke:#000000;stroke-width:2;stroke-miterlimit:10;" d="M441.6,394.3c-5.1,1.2-10.2,2.3-15.4,3.5
	c-10.3-16.4-23.4-30.3-38.9-41.8c-33.2-24.8-70.5-35.2-111.5-28.3c-34.4,5.8-62.1,20.9-84,43.5c-1.1,1.1-2.1,2.2-3.2,3.4
	c-1,1.1-2.1,2.3-3.1,3.5c-0.5,0.6-1,1.2-1.5,1.8c-1,1.2-2,2.4-3,3.6c-0.5,0.6-1,1.2-1.5,1.8c-1.4,1.9-2.9,3.8-4.3,5.7
	c-1.4,1.9-2.8,3.9-4.1,5.9c-0.9,1.3-1.8,2.7-2.6,4.1c-3,4.8-5.9,9.8-8.6,15v0.1l-0.1,0.3c-2.4-0.1-4.8-0.4-7.1,0.5
	c-2.4,0.1-5-0.5-7,1.4l0,0c-0.6-0.1-1.2-0.3-1.8-0.4c25.3-60.1,67.8-100,133.5-110.3c43.2-6.8,82.5,5.3,117.2,31.8
	c0.9,0.7,1.8,1.4,2.6,2c0,0,0.1,0,0.1,0.1c0.3,0.2,0.6,0.5,0.9,0.7c1,0.8,1.9,1.6,2.9,2.4c0.9,0.7,1.8,1.5,2.6,2.3
	c0.1,0.1,0.3,0.3,0.4,0.4s0.2,0.1,0.2,0.2c0.1,0.1,0.1,0.1,0.2,0.2c0.8,0.7,1.5,1.4,2.3,2c0,0,0,0,0.1,0.1c0.4,0.4,0.9,0.8,1.3,1.2
	c0.4,0.4,0.9,0.8,1.3,1.2c0.4,0.4,0.8,0.8,1.2,1.2l0.1,0.1c0.3,0.3,0.6,0.5,0.9,0.8c0.6,0.5,1.1,1.1,1.7,1.7l0.1,0.1
	c0.7,0.7,1.4,1.4,2.1,2.1c0.2,0.3,0.5,0.5,0.7,0.8l0,0c0.1,0.1,0.1,0.1,0.2,0.2c0.8,0.8,1.5,1.7,2.3,2.5l0,0
	c0.8,0.9,1.6,1.8,2.3,2.7l0.1,0.1c0,0,0,0.1,0.1,0.1c0.1,0.1,0.2,0.3,0.3,0.4c0.8,0.9,1.5,1.8,2.2,2.7c0.1,0.2,0.3,0.4,0.5,0.6
	c0.7,0.8,1.3,1.7,1.9,2.5c0.2,0.2,0.3,0.4,0.5,0.7c0,0,0,0,0.1,0.1s0.1,0.2,0.2,0.3c0.5,0.6,1,1.3,1.4,1.9c0.1,0.1,0.1,0.2,0.2,0.3
	c0,0.1,0.1,0.1,0.1,0.2c0,0,0,0,0.1,0.1c0.2,0.2,0.3,0.5,0.5,0.7c0.6,0.9,1.2,1.7,1.8,2.6c0.1,0.2,0.3,0.4,0.4,0.6
	c0.7,1,1.4,2.1,2.1,3.1c0.8,1.2,1.5,2.3,2.2,3.5s1.4,2.4,2.1,3.6c0.4,0.7,0.8,1.4,1.2,2.1c0.4,0.6,0.7,1.2,1,1.9v0.1
	C440.9,393,441.3,393.7,441.6,394.3z"/>
<path style="fill:none;stroke:#000000;stroke-width:2;stroke-miterlimit:10;" d="M143,471L143,471c-0.7-0.3-1.4-0.7-2.1-1
	C141.6,470.3,142.3,470.7,143,471z"/>
<path style="fill:none;stroke:#000000;stroke-width:2;stroke-miterlimit:10;" d="M135,421c-0.6,1.9-2.2,1.9-3.8,1.7
	C132.3,421.8,133.5,421.2,135,421z"/>
<path style="fill:none;stroke:#000000;stroke-width:2;stroke-miterlimit:10;" d="M145.8,418.2c-1,1.1-2.3,1.8-3.8,1.8
	c0-0.4-0.1-0.9-0.1-1.3c0.7-0.3,1.4-0.6,2.1-0.9C144.6,417.9,145.2,418.1,145.8,418.2z"/>
<path style="fill:none;stroke:#000000;stroke-width:2;stroke-miterlimit:10;" d="M140,419.2c-0.3,1.2-0.8,1.9-2,0.8
	C138.7,419.7,139.3,419.4,140,419.2z"/>
<path style="fill:none;stroke:#000000;stroke-width:2;stroke-miterlimit:10;" d="M398,428c-0.9,0.5-1.8,0.4-2.8,0.1
	c-47.3-56.5-127.4-64.4-183.4-10.7c-4.6,4.4-8.6,9.2-12.9,13.8c-3-2.4-6-4.9-9-7.3c7.5-12.3,17.2-22.7,28-32.3
	c40.4-36,100.3-40.8,146-11.5c14.8,9.5,27,21.5,37.9,35.1C399.7,419.2,397.6,423.2,398,428z"/>
<path style="fill:none;stroke:#000000;stroke-width:2;stroke-miterlimit:10;" d="M395,428.6c-2.6,2.3-5.4,1.8-8.1,0.3
	C389.6,428.1,392.3,428.1,395,428.6z"/>
<path style="fill:none;stroke:#000000;stroke-width:2;stroke-miterlimit:10;" d="M426.3,397.8c-4.3,2-8.6,4.1-12.9,6.1
	c-0.3-0.4-0.5-0.9-0.8-1.3c-33.2-39.5-74.8-60.5-127.1-55.6c-48.9,4.5-85.3,30.2-111.8,70.7c-0.3,0.1-0.5,0.1-0.7,0.3
	c-4.2-1.6-8.6-1.3-12.9-2l0,0c2.7-5.2,5.6-10.2,8.6-15c0.9-1.4,1.7-2.7,2.6-4.1c1.3-2,2.7-4,4.1-5.9c1.4-1.9,2.8-3.8,4.3-5.7
	c0.5-0.6,1-1.2,1.5-1.8c1-1.2,2-2.4,3-3.6c0.5-0.6,1-1.2,1.5-1.8c1-1.2,2-2.3,3.1-3.5c1-1.1,2.1-2.3,3.2-3.4
	c22-22.6,49.6-37.7,84-43.5c41-6.9,78.3,3.5,111.5,28.3C402.9,367.5,415.9,381.4,426.3,397.8z"/>
<path style="fill:none;stroke:#000000;stroke-width:2;stroke-miterlimit:10;" d="M215,447c-3.6,1.8-7.3,1.1-11,0.5
	c-2.7-0.4-5.4-1.2-8,0.5h-1c-4.1,1.2-9,1.3-10,7c-0.8,0.6-1.7,1.1-2.5,1.7c-11.9,7.9-15,23.9-3.1,34.4c3.8,3.4,8.5,5.2,12.6,7.9
	c0.2,1.6,0.8,2.9,2,4c3.2,0.4,6.4,0.8,9.6,1.2c-9.6,12.8-23.4,16.5-38.3,17.7c-4.1,0.3-8.3,0.4-12.3-0.9c-0.7,0-1.3-0.1-2-0.2
	c-0.3-1.1-1-1.7-2-1.8c-0.3,0.4-0.7,0.8-1,1.1c-9.2-1.5-17.4-5.1-24-12c-5.6,2.1-10.9,5.2-17,5.8c0.5-2,3.5-2.3,3-4.9
	c1-0.7,2-1.3,3-2c5.9-2.3,10.8-5.8,13-12c2.8,0,5.8,0.6,7-3c3.2-0.2,6-1.6,9-2.5c4.3-1.3,8.1-4.6,13-3.5c0-0.7,0-1.3,0-2
	c2.6-4.3,1.4-7.3-3.5-7.9c-3-0.4-5.9-0.5-8.5-2.1c0-1,0-2,0-3l0,0c-0.7-0.3-1.4-0.7-2.1-1c-0.7-0.3-1.4-0.7-2-1.1
	c-0.3-0.2-0.7-0.4-1-0.6c-0.7-0.4-1.3-0.8-2-1.2c-2.9-1.8-5.6-4-8-6.6c-8-8.5-8.1-20.7,0-29.1c3.3-3.4,6.7-6.5,11-8.5
	c1.3-0.6,2.7-1.3,3-3c1.6,0,2.8-0.7,3.8-1.8l0,0c2.1-1.9,4.6-1.2,7-1.4c2.5,1.4,4.9,2.2,7.1-0.5l0.1-0.3v-0.1
	c4.3,0.8,8.8,0.4,12.9,2c0.2-0.1,0.4-0.2,0.7-0.3c5.6,1.4,10.9,3.5,16.1,6.2c3,2.5,6,4.9,9,7.3c2.3,3.6,4.9,7.1,5.5,11.6
	c-0.7,2.2-0.6,3.8,2.5,3.6C209.6,446.2,212.3,446.1,215,447z"/>
<path style="fill:none;stroke:#000000;stroke-width:2;stroke-miterlimit:10;" d="M143,471L143,471c-0.7-0.3-1.4-0.7-2.1-1
	C141.6,470.3,142.3,470.7,143,471z"/>
<path style="fill:none;stroke:#000000;stroke-width:2;stroke-miterlimit:10;" d="M160,416.3c-2.2,2.7-4.6,1.9-7.1,0.5
	C155.2,415.9,157.6,416.2,160,416.3z"/>
<path style="fill:none;stroke:#000000;stroke-width:2;stroke-miterlimit:10;" d="M196,448v3c-4.1,0.2-7.5,2.3-11,4
	c1-5.7,5.9-5.8,10-7H196z"/>
<path style="fill:none;stroke:#000000;stroke-width:2;stroke-miterlimit:10;" d="M541,474c-0.3,0.7-0.7,1.3-1,2
	c-3.8,1.8-7.5,4.1-12,4c-0.7-0.7-1.3-1.3-2-2C530.4,474.3,535.4,472.9,541,474z"/>
<path style="fill:none;stroke:#000000;stroke-width:2;stroke-miterlimit:10;" d="M413.4,403.9c-4.4,3.3-8.4,6.8-11.6,11.3
	c-10.9-13.6-23.2-25.6-37.9-35.1c-45.8-29.3-105.6-24.6-146,11.5c-10.8,9.6-20.4,20-28,32.3c-5.1-2.6-10.5-4.8-16.1-6.2
	c26.5-40.6,62.9-66.2,111.8-70.7c52.2-4.8,93.9,16.1,127.1,55.6C412.9,403,413.1,403.5,413.4,403.9z"/>
<path style="fill:none;stroke:#000000;stroke-width:2;stroke-miterlimit:10;" d="M528,419c-1-0.3-2-0.7-3-1
	C526.5,416.7,527.5,417.2,528,419z"/>
</svg>
