<?xml version="1.0" encoding="utf-8"?>
<!-- Generator: Adobe Illustrator 22.1.0, SVG Export Plug-In . SVG Version: 6.00 Build 0)  -->
<svg version="1.1" id="Layer_1" xmlns="http://www.w3.org/2000/svg" xmlns:xlink="http://www.w3.org/1999/xlink" x="0px" y="0px"
	 viewBox="0 0 612 792" style="enable-background:new 0 0 612 792;" xml:space="preserve">
<g>
	<path style="fill:none;stroke:#000000;stroke-width:2;stroke-miterlimit:10;" d="M625.1,616.9c-52,0-103.1,0-155.1,0
		c-4.4-3.6-9.1-6.3-15.1-5.8c-3.5,0.2-6.9,0.3-9.8-2.2c-3.4-6.6-8.8-9-16.2-10c-6.4-0.9-13.8-1.8-18.7-7.3c-3.2-3.6-6.2-5-10.8-3.2
		c-3.7,1.5-7,0.7-7.4-4.3c-0.1-1.4-0.5-2.9-1.9-3.3c-7.5-1.7-13.7-6.8-21.3-8.1c-1.5-0.2-16.1-10.1-16.7-11.4
		c-0.5-1.1-0.9-2.7-2-2.7c-5.7-0.3-8.1-4.7-11.6-8.2c-7.7-7.5-16.8-12.8-27-16.5c-9.9-3.6-20.7-5.6-28.8-13.1
		c-0.7-0.7-1.7-1-2.6-1.4c-11.7-4.8-20.6-13.4-29-22.4c-3.3-3.6-6-8.2-4.7-13.7c0.8-3.8,0.7-7.6,0.8-11.4c1-3,2.2-5.9,2.8-9
		c2.5-12.2,8.7-21.2,20.5-26.2c18.1-7.7,36.7-13.7,55.5-19.2c-0.8,3.5-4.7,3.8-6.5,6.4c-1.1,1.5-2.7,2.7-2.1,4.8
		c0.7,2.3,2.7,2.8,4.7,3.1c4.4,0.6,8.9,1,13.4,1.6c8.8,1.1,17.2,3.6,25.2,7.6c14.3,7.1,29.7,11.6,43.4,20c2.9,1.2,5.9,1.6,9,2
		c1.1,0.4,2.1,0.9,3.3,1.1c13.1,2.3,24.4,8.4,35.6,15.1c23,13.8,47.7,22.5,74.4,25.9c5.8,0.7,12,0.8,16.4,5.2
		c9.3,9.3,20.8,13.4,33.3,15.7c5.9,1.1,11.8,2.6,16.9,5.9c10.1,6.5,20.6,7.9,32.3,7.8c0.1,0.1-0.1,0.3,0,0.4
		C625,565.8,625.1,591.3,625.1,616.9z"/>
	<path style="fill:none;stroke:#000000;stroke-width:2;stroke-miterlimit:10;" d="M270,616.9c-93.7,0-187.4,0-281.1,0
		c0-26.3,0-52.6,0-78.9c2,0,4.1,0,6.1-0.1c4.7,5.5,11.4,7.2,18,9c2.7,1.6,6,1.3,6.9-1.2c1.7-4.5,6.2-6.3,8.3-10.1
		c1.4-2.6,3-2.2,4.5-0.2c1.5,2.1,2.9,4.4,4.3,6.6c0.4,2.2,2,2.9,4,3c0.8,1.7,1.7,3.4,3.7,3.8c8.1,1.6,16.2,2.6,24-0.7
		c7.4-3.2,14-7.6,19.9-13.1c8.6-7.8,18.8-10.8,30-7.9c7.5,1.9,13.2,0.3,18.4-5.4c4.3-4.8,6.5-10.3,7-16.6c0.3-1,0.7-2,1-3
		c2-3.8,4.3-7.5,6.1-11.4c1.4-2.9,1.5-5.9-2-7.7l0,0c-0.4-1.2-1.2-2-2.3-2.5c-3.3-1.5-3-2.8,0-4.4c2.3-1.3,4.4-3,6.4-4.7
		c3.2-2.7,3.4-5.1-0.7-7.2c-4.4-2.2-5-5.3-2.3-9.3c2.3-3.4,4.5-6.9,7.4-10c3.2-3.3,2.5-5.5-2.1-6.4c-4.5-0.8-9-1.6-13.8-0.9
		c-3.5,0.5-7.1,2.1-10.7,0.4c4.3-6.6,4-7.2-3.9-8.1c1-3.7,3.5-1.9,5.6-1.5c1.7,0.3,3.7,2.2,5,0.7c1.6-1.7-1.6-2.8-1.6-4.6
		c0-0.3,0.2-0.6,0.4-1.1c1.4,0.2,2.8,0.4,4.2,0.7c2.1,1.4,4.5,4.1,6.7,1.3c1.9-2.4,4-2.4,6.5-2.5c4.5,0.9,9.5,4.3,12.7-2.3
		c0.1-0.2,0.6-0.4,0.9-0.4c5-0.3,9.1-2.6,13.1-5.4c1.5-1.1,3.5-1,5.3-0.5c5.3,1.4,10.1,0.4,14.9-1.9c2.5-1.2,5.2-2.3,8-2.4
		c4.7-0.7,9.4-1.4,14.1-2c4.5-1.3,9.9,0.1,13-4.9c6.1,0,12.3,0,18.4,0c6.5,1.4,13.1,1.8,19.7,1.7c9.3,0.8,18.5,1.2,27.7,2.5
		c6.6,0.9,13.3-0.3,19.8,1.4c-6,0.5-11.9,0.9-17.9,1.4c-11.3,0.9-22.7,1.2-33.8,3c-12.1,2-24,5.3-36,8.2
		c-17.5,4.4-33.2,11.3-41.2,29.2c-0.6,1.4-2.1,2.6-3.2,3.8c-7.7,8.3-14.4,17-12.3,29.4c0.2,5.3-1.6,10.8,0.7,16
		c1.8,4.1,2.4,8.1,1.3,12.4c-1.1-0.6-1.1-2.5-2.8-2.4c-0.6,1.2,0,2.3,0.1,3.5c1.6,10.9,10.5,18.3,13.7,28.4c0.3,1,1.5,2,2.5,2.4
		c9.2,3.3,11.6,14,19.8,18.4c0.6,0.3,1.1,1.4,1.2,2.1c0.5,3.9,3.1,6.2,6,8.2c2.4,1.7,4.3,3.7,5.4,6.4c4,9.2,13.8,13.1,19,21.2
		c0.3,0.5,1.1,0.9,1.7,1c7.5,1.1,11.7,8.5,19.1,10C267.4,611.8,269.4,614.1,270,616.9z"/>
	<path style="fill:none;stroke:#000000;stroke-width:2;stroke-miterlimit:10;" d="M179.2,512.1c1.2-4.3,0.6-8.3-1.3-12.4
		c-2.3-5.2-0.5-10.6-0.7-16c7.4-1.4,14.9-0.9,22.3-0.6c3.2,0.1,4.5-0.9,5.3-3.7c1-3.5,2.2-7,4.8-9.8c0.2,0.2,0.5,0.4,0.7,0.6
		c-0.4,2.6-0.8,5.2-1.1,7.9c-0.4,3.7,0.7,5.7,5,5c2.6-0.4,5.3-0.2,8,0.2c2.8,0.3,3.8-0.6,3.1-3.3c-0.9-3.5-0.3-7,0.8-10.3
		c2-6.6,6.2-11.5,12.4-14.7c-2.3,4.3-4.2,8.7-5.6,13.3c-0.9,2.9-0.5,4.4,3.1,4s7.3-0.2,11-0.2c0,3.8,0.1,7.6-0.8,11.4
		c-1.2,5.5,1.4,10.1,4.7,13.7c8.4,9,17.2,17.6,29,22.4c0.9,0.4,1.9,0.7,2.6,1.4c8.2,7.5,18.9,9.6,28.8,13.1c10.3,3.7,19.4,9,27,16.5
		c3.5,3.4,6,7.8,11.6,8.2c1.1,0.1,1.5,1.6,2,2.7c0.6,1.3,15.3,11.2,16.7,11.4c7.6,1.3,13.8,6.4,21.3,8.1c1.4,0.3,1.8,1.9,1.9,3.3
		c0.4,5,3.7,5.7,7.4,4.3c4.7-1.8,7.7-0.4,10.8,3.2c4.8,5.5,12.2,6.4,18.7,7.3c7.4,1,12.8,3.4,16.2,10c-1.6,2.5-1.9,5.2-2.1,8
		c-53.7,0-107.3,0-161,0c-1.5-6.2-4.7-10.1-11.5-11.1c-9.2-1.4-17-6.7-22.6-13.3c-3.5-4.2-6.8-8.3-11.4-11.3c-1.9-1.3-4-2.4-4.8-4.8
		c-5.2-15.5-19-23.5-29.9-33.9c-3.2-3.1-5.9-5.3-6.1-9.9c-0.1-2.7-1.2-4.9-3.9-5.9C185,524.1,182,518.2,179.2,512.1z"/>
	<path style="fill:none;stroke:#000000;stroke-width:2;stroke-miterlimit:10;" d="M-11.1,538c0,26.3,0,52.6,0,78.9
		c-0.6-0.4-0.1,2,0,0c0.1-1.2,0-3.3,0-4.4c0-143.9,0.1-290.4,0-434.3c0-4.2-3.9,0,0,0c210.2,0.1,425.9,0.1,636.1,0c3.9,0,0-3.7,0,0
		c-0.2,37.8,0,78,0,115.8c-0.3-0.1,0.3-0.1,0,0v-0.1c-0.1-2.2,0-4.3,0-6.5c-0.1-13.5,0-26.9,0-40.4c0-3,0-6.1,0-9.1
		c0.1-6.8-0.1-13.5,0-20.3c0-1.5,0-3,0-4.4c0-11.9,0-23.2,0-35.1l0,0c-2-0.1,2,0,0,0c-105,0-215.6,0-320.7,0c-1.8,0-3.7,0-5.5,0
		c-2.2-0.1-4.3,0-6.5,0c-42,0-84,0-126,0c-23.2,0-46.3-0.1-69.5,0c-35,0-73,0.1-108,0c-3.1,0-0.2-2.9,0,0c0.2,4-0.1,10.9,0,14.9
		c0,14.3,0,28.7,0,43c0,20.8,0,41.6,0,62.5c0,2.3-3.1,4.3,0,2.4c2.1-1.2,7-1.1,9.3-1.1c8.7,0,17.1,2.3,25.7,3.7
		c24,4,47.9,8.1,72.2,9.4c14.5,0.8,28.9-1,43.4-2.1c3.2-0.2,4-2,4.8-4.6c3-10,8.7-18.1,18.1-22.8c19.5-9.9,37.3-6.9,53.4,7.8
		c4.4,6.3,8.1,13,9.2,20.8c0.4,3,2.8,2.8,5,2.9c8.1,0.2,16.3,0.3,24.4,0.8c26.7,1.4,53.5,2.2,80.3,3.3c5.6,0.2,11.2,1,16.8,1.5
		c-19.1,3-38.1,4.8-57.1,6.6c-16.6,1.5-33.1,3-49.7,4.6c-19,1.8-38.1,3.5-57.1,5.5c-11.6,1.2-23.2,1.3-34.7,3.8
		c-4.9-1.5-9.9-2.8-14.7-4.5c-30.9-10.7-62.3-18.9-94.9-22.6c-18.3-2.1-34.7,2-49.2,13.4c-1.8-2.6-2.9-5.1-5.3-8.6
		c0,5.6,0,10.1,0,14.5c0,9.6-1,19.2,0,28.8c0,7.5,0,14.9,0,22.4c0.1,15.6-0.1,31.1,0,46.7c-0.6,7.7-0.4,15.3,0,23
		c-0.6,1.7-0.6,3.3,0,5c-0.5,10-0.4,20,0,30c-0.6,1.7-0.7,3.3,0,5c0,6.3,0,12.7,0,19c-0.5,2.7-0.6,5.3,0,7.9
		C-11.6,526.7-11.4,532.3-11.1,538z"/>
	<path style="fill:none;stroke:#000000;stroke-width:2;stroke-miterlimit:10;" d="M179.2,512.1c2.8,6.1,5.8,12,12.6,14.6
		c2.7,1,3.8,3.2,3.9,5.9c0.2,4.5,2.9,6.8,6.1,9.9c10.9,10.4,24.7,18.5,29.9,33.9c0.8,2.5,2.8,3.6,4.8,4.8c4.6,3,7.8,7.1,11.4,11.3
		c5.6,6.6,13.4,11.9,22.6,13.3c6.8,1,10,5,11.5,11.1c-4,0-8,0-12,0c-0.6-2.9-2.6-5.2-5.1-5.7c-7.4-1.5-11.6-8.9-19.1-10
		c-0.6-0.1-1.4-0.5-1.7-1c-5.2-8.1-15-12-19-21.2c-1.2-2.7-3-4.7-5.4-6.4c-2.9-2-5.5-4.4-6-8.2c-0.1-0.8-0.6-1.8-1.2-2.1
		c-8.2-4.4-10.6-15.1-19.8-18.4c-1-0.4-2.1-1.4-2.5-2.4c-3.3-10.1-12.1-17.5-13.7-28.4c-0.2-1.1-0.8-2.2-0.1-3.5
		C178.1,509.6,178.1,511.5,179.2,512.1z"/>
	<path style="fill:none;stroke:#000000;stroke-width:2;stroke-miterlimit:10;" d="M625.1,294C625.4,293.9,624.8,293.9,625.1,294
		c0,82,0,164,0,246c-0.2,0.2,0.3,0.2,0,0.2c-0.1-0.1,0.1-0.3,0-0.4c0-21,0-42,0-62.9c0-19.3,0-38.6,0-57.8c0.4-13.4,0.5-26.7,0-40.1
		c0-15,0-29.9,0-44.9C625.2,320.7,625,307.4,625.1,294z"/>
	<path style="fill:none;stroke:#000000;stroke-width:2;stroke-miterlimit:10;" d="M443,616.9c0.2-2.8,0.5-5.6,2.1-8
		c2.9,2.5,6.3,2.4,9.8,2.2c6-0.4,10.7,2.2,15.1,5.8c-0.7,0-1.3,0-2,0c-2.3-1.1-4.7-1.2-7,0C455,616.9,449,616.9,443,616.9z"/>
	<path style="fill:none;stroke:#000000;stroke-width:2;stroke-miterlimit:10;" d="M625.1,540.2c0.3,0.1-0.2,0,0-0.2
		c0,24.3,0.1,48.7,0,73c0,1.3,2.1,3,0,3.9C625.1,591.3,625,565.8,625.1,540.2z"/>
	<path style="fill:none;stroke:#000000;stroke-width:2;stroke-miterlimit:10;" d="M461,616.9c2.3-1.2,4.7-1.1,7,0
		C465.7,616.9,463.3,616.9,461,616.9z"/>
	<path style="fill:none;stroke:#000000;stroke-width:2;stroke-miterlimit:10;" d="M625.1,476.9c0,21,0,42,0,62.9
		c-11.6,0.1-22.2-1.3-32.3-7.8c-5.1-3.3-11-4.8-16.9-5.9c-12.5-2.3-24-6.4-33.3-15.7c-4.4-4.4-10.6-4.5-16.4-5.2
		c-26.6-3.4-51.4-12.1-74.4-25.9c-11.2-6.7-22.6-12.8-35.6-15.1c-1.1-0.2-2.2-0.8-3.3-1.1c0.9-3.5,3.6-3.9,6.6-4
		c2.6-0.1,5.9-0.2,6.9-3.1c1.3-4,4.1-6.6,7.8-9c-3.4-2.2-6.2-2.3-8.9,0.3c-3.4,3.3-8,4.8-12.1,6.4c-4.2,1.6-6.9,4.1-9.2,7.5
		c-13.7-8.3-29.2-12.8-43.4-20c-8-4-16.3-6.5-25.2-7.6c-4.4-0.6-8.9-1-13.4-1.6c-2-0.3-4-0.8-4.7-3.1c-0.6-2.1,1-3.3,2.1-4.8
		c1.8-2.5,5.7-2.9,6.5-6.4c6.1-1.5,10.8-5.5,16.5-9.4c-2-0.2-3.1-0.4-4.2-0.5c4.2-1.3,8.5-1.6,12.9-1.8c-0.8,1.1-3.5,2.1,0,3.3
		c0.9,0.3,1.6,1.1,2.2,1.8c4,4.9,10.9,6.1,14.7,11.5c0.2,0.3,0.9,0.3,1.4,0.4c7.1,1.4,11.8,6.5,17,11c0.9,0.8,1.2,3,2.8,1.8
		c1.3-1,0.2-2.6-0.7-3.5c-3.3-3.2-6.5-6.8-9.9-9.7c-4.4-3.7-9.5-6.5-14.3-9.8c-2.3-1.6-5.5-1.9-7.2-4.7c-0.9-1.5-2.7-1.8-4.4-2
		c13.9-4.9,26.4-4.8,37.3,7.3c7,7.7,16.9,11,27,13c1.9,1.1,4,1.4,6.1,1.9c5.9,1.4,12.2,0,17.9,2.9c4.7,2,9.3,4,14,6
		c8.9,6.3,18.2,11.7,29.4,12.8c11.4,1.2,22.8,3,34.2,4.1c10.8,1.1,21,5.1,31.6,7c13,2.4,24.2,8.2,35.4,14.4
		c3.4,1.9,6.9,3.3,10.7,3.9C606.3,480.9,615.3,479.3,625.1,476.9z M532.6,493.8c4.5,1.7,8.1,5.5,13.3,5.4c1.8,0,2.8,1.5,3.7,3
		c3.8,6.4,11.3,6.3,16.8,9.8c0.1,0.1,0.3,0,0.5,0c1.1-0.1,2.5,0.2,3-1.2c0.4-1.1-0.6-1.8-1.2-2.5c-1.4-1.6-3.2-3.1-4.2-4.9
		c-3.6-6.8-9.4-9.9-16.7-11.5C542.4,490.6,537.8,493.5,532.6,493.8z M507.1,461.3c6.5,0.6,11.2,3.6,14.8,6.5
		c3.3,2.7,6.5,4.7,10.4,5.9c1,0.3,2.3,1.4,3-0.3c0.4-1.1-0.5-1.8-1.4-2.3c-5.1-2.8-8.9-7.3-13.7-10.7
		C515.6,457.1,512.2,458.4,507.1,461.3z"/>
	<path style="fill:none;stroke:#000000;stroke-width:2;stroke-miterlimit:10;" d="M338.2,407.8c1.1,0.1,2.3,0.3,4.2,0.5
		c-5.7,3.9-10.4,7.9-16.5,9.4c-18.8,5.4-37.5,11.5-55.5,19.2c-11.8,5-18,14-20.5,26.2c-0.6,3.1-1.9,6-2.8,9c-3.7,0-7.4-0.2-11,0.2
		c-3.6,0.4-4-1.1-3.1-4c1.3-4.6,3.2-9,5.6-13.3c-6.3,3.2-10.4,8.1-12.4,14.7c-1,3.3-1.7,6.8-0.8,10.3c0.7,2.7-0.4,3.6-3.1,3.3
		c-2.6-0.3-5.4-0.6-8-0.2c-4.4,0.7-5.4-1.3-5-5c0.3-2.6,0.7-5.3,1.1-7.9c0.2-0.4,0.6-0.8,0-1.1c-0.1-0.1-0.5,0.4-0.7,0.6
		c-2.5,2.8-3.8,6.3-4.8,9.8c-0.8,2.8-2.1,3.8-5.3,3.7c-7.4-0.3-14.9-0.9-22.3,0.6c-2.1-12.4,4.6-21.1,12.3-29.4
		c1.1-1.2,2.5-2.3,3.2-3.8c8-17.9,23.8-24.8,41.2-29.2c11.9-3,23.9-6.3,36-8.2c11.1-1.8,22.5-2,33.8-3c6-0.5,11.9-0.9,17.9-1.4
		C327.1,407.6,332.7,408.2,338.2,407.8z"/>
	<path style="fill:none;stroke:#000000;stroke-width:2;stroke-miterlimit:10;" d="M404,461c2.4-3.4,5-5.8,9.2-7.5
		c4.1-1.6,8.7-3.1,12.1-6.4c2.7-2.6,5.5-2.4,8.9-0.3c-3.7,2.4-6.5,5-7.8,9c-1,2.9-4.2,2.9-6.9,3.1c-3,0.2-5.7,0.5-6.6,4
		C409.9,462.6,406.9,462.1,404,461z"/>
	<path style="fill:none;stroke:#000000;stroke-width:2;stroke-miterlimit:10;" d="M338.2,407.8c-5.5,0.4-11.1-0.2-16.5,1
		c-6.5-1.7-13.2-0.5-19.8-1.4c-9.2-1.2-18.5-1.7-27.7-2.5c0.9-1.1,3.1-0.2,3.6-2.3c-1.4-1.6-3.4-2-5.3-2.3
		c-8.6-1.5-17.1-3.3-25.3-6.3c-1.1-0.4-2.1-0.4-2.8,0.4c-2.6,3.4-7,3.6-10.4,5.6c-4,1-7.8,1.4-11.4-1.3c-1.5-1.1-3.7-1.1-5.3-0.1
		c-6,3.7-11.8,2.4-17.6-0.3c-1.2-0.6-2.6-1.2-3.5,0.4c-1.9,3.2-4.1,1.8-6.4,0.6c-2-1.1-4.6-2.2-5.9,0c-3.6,6-7.2,3.4-11.1,0.7
		c-2.7-1.8-4-1.3-3.6,2.2c0.1,0.8,0.5,1.7-0.9,2.3c-1.5-0.8-3.3-1.8-5-2.7c-5.5-2.8-10.1-7-16.2-8.7l-0.3-0.1l0.1,0.3
		c2.6,8.9,10.2,12.5,18.9,16c-3.6,1.6-6.1,2-8.7,1.6c-5-0.6-9.9-1.5-14.6-3.3c-3.4-1.3-7.1-2.6-10.7-1.7c-9.8,2.3-19.2,1-28.4-2.7
		c-1.3-0.5-3-1.6-4.2-0.2c-1.2,1.5,0.6,2.7,1.2,3.9c0.9,1.7,3.1,3.3,1.7,5.3c-1.4,1.9-3.7,0.8-5.6,0.4c-0.7-0.1-1.3-0.3-1.9-0.4
		c-2.1-0.4-4.2-1.5-6.3-0.1c-2.3,1.5,0.7,3.7-0.8,5.6c-6.8-1.6-13.7-2.8-20.7-2.4c-3.1,0.2-5.6,1.1-4.3,4.8c1.3,3.5-0.5,4-3.2,4.2
		c-6,0.4-11.6-0.9-17.1-3.1c-4.5-1.7-9-2.3-13.7-1.7c-3.4,0.4-5.3,2.1-3.2,5.8c0.6,1.1,1.9,2.3,1.1,3.6c-1.1,1.6-2.8,0.6-4.1,0.2
		c-5-1.4-9.9-3-14.9-4.3c-2.6-0.7-6-1.1-6.1,2.8c-0.2,5.6-3.2,5.7-7.4,4.7c-1.6-0.4-3.3-0.6-5-0.9c-0.1-15.6,0.1-31.1,0-46.7
		c0-7.5,0-14.9,0-22.4l0,0V362c1.4-9.6,1.1-19.3,0-28.9V333c1.8-1.9,3.5-3.8,5.3-5.7c14.5-11.4,31-15.5,49.2-13.4
		c32.6,3.7,64,11.9,94.9,22.6c4.8,1.7,9.8,3,14.7,4.5c7.3,2.3,14.7,4.6,22.3,4.7c12.4,0.2,23.8,3.7,35.2,8c6,2.3,11.8,5.3,18.2,6.6
		c5.5,3,11.5,4.4,17.6,5.4c6.7,1.2,12.3,3.7,16.8,8.8c3.3,3.7,7.6,5.9,12.6,6.3c8.3,1.6,16.2,0.7,23.8-3c3.2-1.6,6.4-1.1,9.3,1.5
		c8.3,7.3,18.3,10.7,29,10.3c6.7-0.3,12.4,1,17,5.3c3.9,3.5,5.7,2.3,7.9-1.5c4.4-7.7,10.8-12.9,19.6-15.1c4-1,8.1-2,11.6-4.4
		c7.5-2.2,15-4.5,22.5-6.4c2.9-0.7,5.4-1.6,7.3-3.9c2.9-3.6,6.6-4.6,10.6-2.3c6.6,3.8,12.6,2.5,18.7-1.3c4.1-2.5,7.7-5.5,10.3-9.3
		c4.3-6.2,10.1-9.1,17.2-10.8c6.8-1.6,13.5-3.7,18.4-9.2c4.4-3,8-7,11.8-10.7c3.8-3.9,8.4-5.6,13.9-5c1.4,0.2,2.9-0.5,4.3-1.1
		c13.8-6.2,27.8-11.6,43.4-11.3c3.5,0.1,7.2-0.8,10.6-2.3c2.3-0.4,4.5-1,6.8-1.3c12.1-1.4,23.5-0.7,35.1-5.1v0.1
		c-0.1,13.3,0.1,26.7,0,40c-1.9,0.5,1.9,0.8,0,1.4c-11,3.4-27,3.5-37.8-1.2c-4.3-1.8-8.6-3.5-13-5.2c-8.6-3.3-12.7-2.1-17.7,5.6
		c-3,4.6-5.3,9.6-8.1,14.3c-4.7,7.8-9.7,9.3-18.1,5.6c-3.8-1.7-7.5-3.8-11.4-5c-5.4-1.7-8.2-0.3-10.3,4.9c-1.5,3.7-2.7,7.5-4.2,11.2
		c-3.3,8.2-8.5,11.2-17.3,9.8c-3.8-0.6-7.4,0.1-10.7,1.5c-3.9,1.6-4.3,5.1-1,7.8c1.3,1,2.8,1.7,4.4,2.3c8,3.3,16,2.2,23-2.2
		c11.3-7.1,22.5-6.6,34.2-1.4c7.9,3.5,16.2,5.9,24.6,8.2c7.6,2.1,14.1,0.4,20.1-4.3c2.2-1.7,4.5-3.5,6.6-5.3
		c3.5-2.9,7.3-4.2,11.9-4.3c8.5-0.2,16.2,1.7,24.7,1.1c0.5,13.4,0.4,26.7,0,40.1c-3.3-0.7,2.4-3.3,0-5.4c-6.2-5.5-15-5.6-21.7-0.9
		c-2.5,1.7-4.5,3.9-6.4,6.2c-6.1,7.5-14.3,10.2-23.6,8.4c-4.6-0.9-8.7-1.1-13.2,0c-5.7,1.4-11.2,2.4-16.5-2
		c-6.9-5.7-9.9-5.9-16.7-0.1c-7,6-14.3,7-22.1,3.1c-8.5-4.2-16.7-3.3-25.1-0.4c-3,1.1-5.8,0.9-8.8-0.2c-10.6-3.9-11.3-3.6-15,6.9
		c-0.3,0.8-0.6,1.5-0.9,2.3c-4.7-2-9.3-4-14-6c1.1-3.5,0-6.5-3.1-8.1c-4.4-2.3-6.1-5.8-6-10.5c0-1.5-0.2-3.1-1.9-3.7
		c-1.7-0.6-2.8,0.6-3.8,1.7c-1.6,1.7-3,3.3-5.8,3.2c-5.1-0.3-6.1,0.9-5.2,5.9c0.4,2.3,1.2,4.5,1.8,6.7c-10.1-2-20-5.3-27-13
		c-11-12.1-23.5-12.1-37.3-7.3c-0.6,0-1.1,0-1.7,0C346.7,406.2,342.4,406.5,338.2,407.8z M60,360c8.7,3.7,15.6,8.9,20.9,16.3
		c2.5,3.4,6,6.3,10.2,6.7c6.9,0.6,10.9,4.5,13.8,10c4.1,7.7,22.7,11,30.1,7.5c-4.4-2.4-9-3.1-13.5-4.1c-3.5-0.8-6.6-2.6-7.5-5.9
		c-2-7.2-7.5-10-13.8-11.5c-7.7-1.8-11.4-6.1-11.3-14c0-3.2-1.9-5-5-5C75.9,360,68,360,60,360z M62.7,407.8
		c-1.9-4.4-4.8-5.3-7.5-6.5s-5.3-2.8-6-5.6c-1.6-6.4-6.6-8.3-12.1-9.6c-8.3-1.9-9.6-4.4-6.2-12.1c2.1-4.7,1.3-6.7-3.7-8.7
		c-2.6-1.1-5-2.7-5.3-5.5c-0.5-6.2-3.5-9.3-9.8-9.2c-0.7,0-1.5-0.7-2.2-1c-1.6-0.7-3.6-2.4-4.9-0.4c-1.3,1.9,1,3.2,2.2,4.4
		c1.2,1.2,2.6,2.1,4,3c1.5,0.9,2.8,2,2.8,3.9c-0.1,5,3,7.5,7.2,9c3,1.1,4.1,2.9,3.8,6.1c-1.1,10,1.2,14,10.7,16.9
		c4.8,1.5,8.6,4,12.1,7.6C51.5,404,56.4,406.1,62.7,407.8z M126.2,371c-2-2.5-4.6-3-6.7-4.2c-2.2-1.2-4.4-2.5-5.3-5
		c-2-5.6-6.3-8.4-11.6-10.1c-2.1-0.7-4.6-1.3-5.1-3.6c-1.6-7.2-8.4-7.3-13.1-10.1c-1-0.6-2.7-1.3-3.6,0.3c-0.8,1.5,0.6,2.4,1.4,3.4
		c2.7,3,5.8,5.5,9.6,7c2.6,1,4.1,2.7,4.2,5.6c0,3.4,1.8,4.8,5.1,4.7c5.3-0.2,9.2,1.7,11.5,6.9C114.5,370.2,120.5,372.2,126.2,371z
		 M189.3,360.9c1.1,1.6,2.4,2,3.7,2.3c5.8,1.4,10.2,4.5,12.7,10.1c0.9,2.1,2.5,4.3,4.7,5c4.4,1.4,7,4.8,10.2,7.8
		c1.4,1.4,2.9,2.7,4.5,3.9c1.2,0.8,3.1,1.7,4,0.1c1.2-2.1-0.9-3-2.4-3.5c-4.4-1.3-6.9-4.3-8.9-8.1c-2.1-3.9-5.3-6.8-8.9-9.2
		c-2.2-1.5-4.4-3-6-5.2C198.3,358.1,197.2,357.8,189.3,360.9z"/>
	<path style="fill:none;stroke:#000000;stroke-width:2;stroke-miterlimit:10;" d="M-11.1,489c-0.4-10-0.5-20,0-30
		c3.9-0.3,7.7,0.1,11.1,2c3.8,2,7.3,3.6,11.5,0.6c1.5-1.1,3.6-0.2,5.3,0.4c5.2,2.1,10.4,1.5,15.6,0.1c1.9-0.5,3.9-1,5.9-0.5
		c3,0.8,5.6-0.2,7.7-2.3c3.4-3.4,7.7-4.4,12.3-4.4c8.1,0,8.1,0,10.7-8l0,0c1.1-0.6,1.8-1.6,2.2-2.8c3.3-1.8,6.7-2.4,10.6-1.5
		c3.5,0.9,6.9,0,10.1-1.7c5.9-3.2,12.2-3.7,18.8-3.4c6.7,0.3,13.5,3,20.2,0.3c3.6,1.7,7.2,0.1,10.7-0.4c4.8-0.7,9.3,0.1,13.8,0.9
		c4.6,0.8,5.2,3.1,2.1,6.4c-2.9,3-5.1,6.5-7.4,10c-2.7,4-2.1,7.2,2.3,9.3c4.2,2,3.9,4.5,0.7,7.2c-2,1.7-4.1,3.4-6.4,4.7
		c-3,1.7-3.3,2.9,0,4.4c1.1,0.5,1.9,1.4,2.3,2.5c-3.1,0.7-6.3,3.5-9.4,0.8c-3.9-3.3-5-1.5-5.6,2.3c-0.3,1.6-0.1,3.9-2.2,4
		c-2.3,0.1-3.4-2.1-3.6-4.1c-0.3-3.6-2.4-4.7-5.6-5c-2.9-0.3-5.5-1.2-6.6-4.4c-1.3-3.6,1.5-4.7,3.5-6.3c2.3-2,1.9-2.9-0.8-4
		c-4.3-1.7-7.1,0.4-10.2,2.9c-1.9,1.5-4.6,2.1-4.2,5.4c0.4,3.1,3,3.7,5.4,4.5c1.6,0.5,3.9,1.1,3.7,2.8c-0.7,5.8,2.9,7.7,7.3,9.7
		c2.2,1,3.3,3.6,1.8,6s-3.5,1-5.2,0c-4.7-2.9-9-3.2-12.7,1.8c-2.6,3.4-5,2.6-7.1-0.5c-1.9-2.8-4.2-4.4-7.8-4.6
		c-8-0.3-10-2.4-11.1-10.6c-0.3-2.1-0.3-4.7-3.2-5c-2.8-0.2-4.7,1.2-5.2,4.2c-0.6,4-3.2,3.7-6,2.8c-1.4-0.5-2.5-1.6-3.8-2.3
		c-5.1-2.8-9.7-1-10.2,3.9l-0.1,0.1c-8.2-0.8-16.1-0.7-23.4,4c-1.4,0.9-2.8,0.1-4.3-0.1c-5.4-0.9-10.8-1.5-16.2-2.3
		C0.3,487.7-5.3,490.4-11.1,489z"/>
	<path style="fill:none;stroke:#000000;stroke-width:2;stroke-miterlimit:10;" d="M-11.1,431c1.6,0.3,3.4,0.5,5,0.9
		c4.1,1,7.1,0.9,7.4-4.7c0.1-3.9,3.5-3.4,6.1-2.8c5,1.3,9.9,3,14.9,4.3c1.3,0.4,3,1.4,4.1-0.2c0.9-1.3-0.4-2.5-1.1-3.6
		c-2.1-3.7-0.2-5.4,3.2-5.8c4.7-0.6,9.3,0,13.7,1.7c5.5,2.1,11.1,3.5,17.1,3.1c2.8-0.2,4.5-0.7,3.2-4.2c-1.3-3.7,1.2-4.6,4.3-4.8
		c7-0.4,13.9,0.7,20.7,2.4c1.4-1.8-1.5-4.1,0.8-5.6c2.1-1.4,4.2-0.3,6.3,0.1c0.7,0.1,1.3,0.3,1.9,0.4c1.9,0.4,4.2,1.5,5.6-0.4
		c1.4-2-0.8-3.6-1.7-5.3c-0.6-1.3-2.4-2.4-1.2-3.9c1.1-1.4,2.8-0.3,4.2,0.2c9.2,3.7,18.5,5,28.4,2.7c3.6-0.9,7.3,0.4,10.7,1.7
		c4.7,1.8,9.6,2.7,14.6,3.3c2.7,0.3,5.2,0,8.7-1.6c-8.7-3.5-16.3-7.1-18.9-16l0.2-0.2c6,1.7,10.7,5.9,16.2,8.7
		c1.8,0.9,3.5,1.9,5,2.7c1.4-0.6,1-1.5,0.9-2.3c-0.4-3.4,0.9-4,3.6-2.2c3.9,2.7,7.5,5.3,11.1-0.7c1.3-2.1,3.9-1.1,5.9,0
		c2.3,1.2,4.5,2.6,6.4-0.6c0.9-1.6,2.3-0.9,3.5-0.4c5.8,2.7,11.6,4,17.6,0.3c1.6-1,3.8-1,5.3,0.1c3.6,2.7,7.4,2.3,11.4,1.3
		c0.6,0.7,1.2,1.4,1.8,2.1c0.1,0.3,0.1,0.7,0.2,1c-3.1,5-8.5,3.6-13,4.9c-10-3.8-10.4-3.7-14.1,2c-2.9,0.2-5.5,1.2-8,2.4
		c-4.8,2.2-9.7,3.3-14.9,1.9c-1.8-0.5-3.8-0.5-5.3,0.5c-4,2.8-8.1,5.1-13.1,5.4c-0.3,0-0.8,0.2-0.9,0.4c-3.2,6.6-8.2,3.2-12.7,2.3
		c-5.7-5.4-8.6-5.3-12.5,0.5c-0.2,0.3-0.5,0.4-0.7,0.6c-1.4-0.2-2.9-0.5-4.2-0.7c-0.2,0.5-0.4,0.8-0.4,1.1c0,1.8,3.2,2.9,1.6,4.6
		c-1.3,1.4-3.3-0.4-5-0.7c-2.1-0.4-4.5-2.2-5.6,1.5c-4.2-1.2-8.3-1.3-11.7,1.9c-4.3,4-9.7,4.5-14.4,2.4c-11-4.8-19.4,0.5-28,5.8
		c-3.3-1.4-4.5-4.7-6.2-7.7c-3,5.2,0.6,8.8,2.1,12.7c0,0.7,0,1.3,0.1,2l0,0c-2.8-0.2-5.5-0.9-8-2.5c-4.2-2.6-5.8-1.9-7,2.7
		c-0.3,1.1-0.3,2.5-1.4,3c-5.8,2.6-11,8-18.4,4.6c-2.4-1.1-5.1-1.6-7.5,0.5c-0.8,0.7-1.7,0.7-2.8,0.6c-11.6-1.2-23.2-2.5-34.9-2.1
		C-11.5,446.3-11.7,438.7-11.1,431z"/>
	<path style="fill:none;stroke:#000000;stroke-width:2;stroke-miterlimit:10;" d="M-11.1,513c0-6.3,0-12.7,0-19
		c5.7,2.8,11.7,0.9,17.5,1c6.4,0.1,12.6-0.8,18.5,2.9c4.5,2.9,9.5,0.4,10.5-4.6c0.3-1.4,1-2.3,2.2-2.2c6.2,0.8,12.8,0.8,18.4,3.2
		c5.6,2.4,11.2,3.6,16.9,4.6l0,0c-0.5,1.3-0.8,2.9,0.7,3.6c5.9,2.7,4.7,7.2,3.4,11.8c-1,3.4,1,5,3.6,6.1c1.7,0.7,3.5,1,5.3,1.5
		c1,0.3,2.3,1.3,3.1-0.2c0.6-1.1-0.6-1.8-1.3-2.4c-1.8-1.3-3.1-3-2.2-5.1c1.4-3.1,1.3-6.1,0.1-9.2c-0.5-1.2-0.1-1.9,1.2-2.2
		c3.1-0.7,6.2-1.8,8.9,1c3.7,3.8,7.2,3.5,10.5-0.6c0.7-0.9,1.6-1.7,2.6-2.4c2.5-1.7,4.5-0.2,6.2,1.4c1.6,1.4,3.5,2.8,1.7,5.4
		c-0.6,0.8,2.2,11.5,3,12.1c1.2,0.8,2.5,1,3.8,0.9c5.1-0.3,9.3-2.6,12.5-6.5c1-1.3,2.5-2.8-0.9-3.2c-2.7-0.3-0.9-2.3-0.8-3.5
		c0.1-1,0.5-3,1.9-2c3.1,2.2,5.3,0,7.9-0.7c-0.5,6.3-2.7,11.8-7,16.6c-5.1,5.7-10.8,7.3-18.4,5.4c-11.2-2.8-21.4,0.1-30,7.9
		c-6,5.4-12.6,9.9-19.9,13.1c-7.8,3.4-16,2.3-24,0.7c-2-0.4-2.9-2.1-3.7-3.8c1.6-1.6,3.4-1.5,5.5-1.4c6.6,0,13.6,1.1,18.4-5.7
		c-1.7,0-3.4,0.1-5,0c-1.5-0.2-2.9-1.5-1.8-2.7c4.6-5.1-0.4-8-2.5-11.4s-11-2.9-11.7,0.7c-0.7,3.6-3.2,6.8-2.6,10.8
		c0.5,3.4-1,5.7-4.3,6.9c-1.4-2.2-2.7-4.5-4.3-6.6c-1.5-2-3.1-2.4-4.5,0.2c-2.1,3.9-6.6,5.6-8.3,10.1c-0.9,2.5-4.2,2.8-6.9,1.2
		c-2.2-4.9-8.9-5.9-10.4-11.5c-0.3-1.1-2.4-1.8-1.4-3.3c0.8-1.3,2.4-0.8,3.7-0.7c3.2,0.3,2.3-1.3,1.3-3s-2.7-2.4-4.6-2.5
		c-2.2-0.1-3.1-1-3.1-3.5C-1.5,516.3-4.8,513.4-11.1,513z"/>
	<path style="fill:none;stroke:#000000;stroke-width:2;stroke-miterlimit:10;" d="M144,505c-2.6,0.7-4.9,3-7.9,0.7
		c-1.4-1.1-1.8,1-1.9,2c-0.1,1.2-1.9,3.2,0.8,3.5c3.4,0.4,1.9,1.9,0.9,3.2c-3.2,3.9-7.3,6.2-12.5,6.5c-1.3,0.1-2.7-0.1-3.8-0.9
		c-0.8-0.5-3.5-11.3-3-12.1c1.8-2.6-0.1-4-1.7-5.4c-1.8-1.6-3.7-3.1-6.2-1.4c-1,0.6-1.8,1.5-2.6,2.4c-3.3,4.1-6.8,4.4-10.5,0.6
		c-2.7-2.8-5.8-1.7-8.9-1c-1.2,0.3-1.7,1-1.2,2.2c1.2,3.1,1.3,6-0.1,9.2c-0.9,2.1,0.5,3.8,2.2,5.1c0.8,0.6,1.9,1.3,1.3,2.4
		c-0.8,1.5-2,0.4-3.1,0.2c-1.8-0.5-3.6-0.8-5.3-1.5c-2.6-1.1-4.6-2.7-3.6-6.1c1.3-4.6,2.5-9.2-3.4-11.8c-1.5-0.7-1.2-2.2-0.7-3.6
		l0,0c-5.8-1-11.4-2.3-16.9-4.6c-5.6-2.4-12.2-2.3-18.4-3.2c-1.2-0.2-1.9,0.8-2.2,2.2c-1,5-6.1,7.5-10.5,4.6
		c-5.9-3.8-12.1-2.8-18.5-2.9c-5.8-0.1-11.9,1.8-17.5-1c-0.7-1.7-0.6-3.3,0-5c5.7,1.4,11.4-1.3,17.1-0.4c5.4,0.8,10.8,1.4,16.2,2.3
		c1.5,0.3,2.9,1,4.3,0.1c7.2-4.7,15.2-4.7,23.4-4c0.3,0.3,0.7,0.6,1,0.9l0,0c-0.3-0.4-0.6-0.7-0.9-1.1c0.5-4.9,5.1-6.7,10.2-3.9
		c1.3,0.7,2.5,1.8,3.8,2.3c2.7,1,5.4,1.2,6-2.8c0.4-3,2.3-4.5,5.2-4.2c2.9,0.3,2.9,2.9,3.2,5c1.1,8.2,3.1,10.3,11.1,10.6
		c3.6,0.1,5.9,1.8,7.8,4.6c2.1,3.1,4.6,3.9,7.1,0.5c3.7-4.9,7.9-4.7,12.7-1.8c1.7,1,3.7,2.5,5.2,0c1.5-2.4,0.4-5-1.8-6
		c-4.3-2-8-3.8-7.3-9.7c0.2-1.7-2.1-2.3-3.7-2.8c-2.3-0.8-5-1.3-5.4-4.5s2.3-3.8,4.2-5.4c3.1-2.5,5.9-4.6,10.2-2.9
		c2.8,1.1,3.2,2.1,0.8,4c-1.9,1.6-4.7,2.8-3.5,6.3c1.2,3.2,3.8,4.1,6.6,4.4c3.2,0.3,5.3,1.4,5.6,5c0.2,2,1.3,4.2,3.6,4.1
		c2.1-0.1,2-2.4,2.2-4c0.6-3.8,1.7-5.7,5.6-2.3c3.1,2.7,6.3-0.1,9.4-0.8l0,0c-2.3,4.5-0.6,10.4-5.4,14.3c-1.4,1.1,0,3.4,1.3,4.8
		C144.7,503,144.4,504,144,505z M81.9,502.1l0.2,0.1L82,502l-0.3-0.1C81.8,501.8,81.9,502.1,81.9,502.1z"/>
	<path style="fill:none;stroke:#000000;stroke-width:2;stroke-miterlimit:10;" d="M73,440c8.6-5.3,17-10.6,28-5.8
		c4.7,2,10.1,1.6,14.4-2.4c3.4-3.2,7.5-3.1,11.7-1.9c7.9,0.9,8.2,1.6,3.9,8.1c-6.8,2.7-13.5,0-20.2-0.3s-12.9,0.2-18.8,3.4
		c-3.2,1.7-6.6,2.6-10.1,1.7c-3.8-1-7.2-0.3-10.6,1.5L71,444C71.6,442.6,72.3,441.3,73,440z"/>
	<path style="fill:none;stroke:#000000;stroke-width:2;stroke-miterlimit:10;" d="M37,542c3.3-1.1,4.8-3.5,4.3-6.9
		c-0.6-4,1.8-7.2,2.6-10.8c0.7-3.6,9.6-4,11.7-0.7c2.1,3.4,7.1,6.3,2.5,11.4c-1.1,1.2,0.3,2.5,1.8,2.7c1.6,0.2,3.2,0,5,0
		c-4.7,6.8-11.8,5.8-18.4,5.7c-2.1,0-4-0.1-5.5,1.4C39,544.9,37.4,544.2,37,542z"/>
	<path style="fill:none;stroke:#000000;stroke-width:2;stroke-miterlimit:10;" d="M-11.1,513c6.3,0.4,9.5,3.3,9.6,9.5
		c0,2.4,0.9,3.3,3.1,3.5c1.9,0.1,3.6,0.7,4.6,2.5c1,1.6,1.9,3.2-1.3,3c-1.3-0.1-2.8-0.6-3.7,0.7c-1,1.6,1.1,2.2,1.4,3.3
		c1.5,5.7,8.2,6.6,10.4,11.5c-6.6-1.8-13.2-3.5-18-9c0.5-6.5-0.3-12.7-6.1-17C-11.6,518.3-11.5,515.7-11.1,513z"/>
	<path style="fill:none;stroke:#000000;stroke-width:2;stroke-miterlimit:10;" d="M235.8,402.1c-0.6-0.7-1.2-1.4-1.8-2.1
		c3.4-2,7.7-2.2,10.4-5.6c0.6-0.8,1.7-0.8,2.8-0.4c8.2,2.9,16.7,4.8,25.3,6.3c2,0.3,3.9,0.8,5.3,2.3c-0.5,2.1-2.6,1.2-3.6,2.3
		c-6.6,0-13.2-0.3-19.7-1.7C248.5,398.2,242.1,400.6,235.8,402.1z"/>
	<path style="fill:none;stroke:#000000;stroke-width:2;stroke-miterlimit:10;" d="M-11.1,521c5.8,4.3,6.6,10.5,6.1,17
		c-2,0-4.1,0-6.1,0.1C-11.4,532.3-11.6,526.7-11.1,521z"/>
	<path style="fill:none;stroke:#000000;stroke-width:2;stroke-miterlimit:10;" d="M145,502c-1.3-1.4-2.6-3.7-1.3-4.8
		c4.8-3.8,3.1-9.7,5.4-14.3c3.5,1.8,3.4,4.8,2,7.7C149.3,494.5,147.1,498.2,145,502z"/>
	<path style="fill:none;stroke:#000000;stroke-width:2;stroke-miterlimit:10;" d="M140.8,424.1c0.2-0.2,0.6-0.4,0.7-0.6
		c3.9-5.8,6.8-5.9,12.5-0.5c-2.4,0.1-4.5,0.1-6.5,2.5C145.3,428.2,142.9,425.6,140.8,424.1z"/>
	<path style="fill:none;stroke:#000000;stroke-width:2;stroke-miterlimit:10;" d="M235.8,402.1c6.3-1.5,12.6-3.9,18.6,1
		c-6.1,0-12.3,0-18.4,0C235.9,402.8,235.9,402.4,235.8,402.1z"/>
	<path style="fill:none;stroke:#000000;stroke-width:2;stroke-miterlimit:10;" d="M208.9,410c3.7-5.7,4-5.8,14.1-2
		C218.3,408.7,213.6,409.4,208.9,410z"/>
	<path style="fill:none;stroke:#000000;stroke-width:2;stroke-miterlimit:10;" d="M583.2,300.3c-3.4,1.5-7.1,2.4-10.6,2.3
		c-15.6-0.3-29.6,5.1-43.4,11.3c-1.3,0.6-2.9,1.2-4.3,1.1c-5.5-0.7-10.1,1.1-13.9,5c-9.6-0.7-19.1-1.3-28.7-0.8
		c-2.3-1.3-4.6-2.6-7-3.9c-18.3-9.6-37.2-11.3-56.7-4.3c-13.9-1.7-27.9-1-41.9-0.8c-3.7,0-6.8-0.6-9.8-2.8
		c-8-5.8-17.1-9.6-26.8-11.8c-15.6-3.6-31.3-6.1-47.1-8.4c-5.3-0.8-10.8-2.5-16.2-0.2c-3.4-0.9-6.7-2-10.1-2.6
		c-81-14.3-162-28.6-243.1-42.8c-11.8-2.1-22.6-5.2-34.7-5.4c0-14.3,0-28.7,0-43c0.7,0-0.7,0,0,0.1c48,8.5,97.3,16.9,145.4,25.4
		c55.3,9.8,110.5,19.6,165.8,29.3c60.8,10.7,121.7,21.4,182.5,32.1c31.3,5.5,62.6,11.1,94,16.6C579.2,297.1,582,297.2,583.2,300.3z"
		/>
	<path style="fill:none;stroke:#000000;stroke-width:2;stroke-miterlimit:10;" d="M583.2,300.3c-1.1-3.1-4-3.2-6.6-3.7
		c-31.3-5.6-62.6-11.1-94-16.6c-60.8-10.7-121.7-21.4-182.5-32.1c-55.3-9.7-110.5-19.5-165.8-29.3c-48-8.5-97.3-17-145.4-25.4
		c-0.7-0.1,0.7-0.1,0-0.1c-0.1-4,0.2-10.9,0-14.9c-0.2-2.9-3.1,0,0,0c35,0.1,73,0,108,0c1.4,4.3,5.3-0.6,8.6,0
		c40.8,7.3,81.6,18.3,122.4,25.5c47.5,8.4,95.1,16.8,142.6,25.2c56.4,9.9,112.8,19.8,169.2,29.7c26.1,4.6,52.1,9.1,78.2,13.9
		c4.4,0.8,7.3-0.5,7.2-5c-0.2-5-0.1-10,0-15c0-1.9-2.1-4.1,0-5.5c0,13.5-0.1,26.9,0,40.4c0,2.2-0.1,4.3,0,6.5
		c-11.6,4.4-23.1,3.7-35.1,5.1C587.7,299.3,585.4,299.9,583.2,300.3z"/>
	<path style="fill:none;stroke:#000000;stroke-width:2;stroke-miterlimit:10;" d="M625.1,247.1c-2.1,1.4,0,3.5,0,5.5
		c-0.1,5-0.2,10,0,15c0.2,4.5-2.8,5.8-7.2,5c-26-4.7-52.1-9.3-78.2-13.9c-56.4-9.9-112.8-19.8-169.2-29.7
		c-47.5-8.4-95.1-16.8-142.6-25.2c-40.8-7.2-81.6-18.2-122.4-25.5c-3.3-0.6-7.2,4.3-8.6,0c23.2-0.1,46.3,0,69.5,0c42,0,84,0,126,0
		c2.2,0,4.3-0.1,6.5,0c-1.2,5.9,3.8-0.5,6.7,0c33.9,6.2,67.8,16.7,101.8,22.7c57.7,10.2,115.4,20.4,173.1,30.4
		c14.9,2.6,29.3,6.7,44.5,6.7C625.1,241,625,244.1,625.1,247.1z"/>
	<path style="fill:none;stroke:#000000;stroke-width:2;stroke-miterlimit:10;" d="M625.1,238c-15.3,0-29.7-4.1-44.5-6.7
		c-57.7-9.9-115.4-20.2-173.1-30.4c-33.9-6-67.9-16.5-101.8-22.7c-2.9-0.5-7.9,5.9-6.7,0c1.8,0,3.7,0,5.5,0c105,0,215.6,0,320.7,0
		c2,0-2-0.1,0,0l0,0c0,11.9,0,23.2,0,35.1c-2.2,1.5-2.2,3,0,4.5C625,224.5,625.1,231.2,625.1,238z"/>
	<path style="fill:none;stroke:#000000;stroke-width:2;stroke-miterlimit:10;" d="M-11.1,236.1c12.1,0.2,22.9,3.4,34.7,5.4
		c81,14.2,162.1,28.5,243.1,42.8c3.4,0.6,6.8,1.8,10.1,2.6c0.6,4.8,5.1,6.2,8.1,9c1.8,1.7,4.7,2.4,5.3,5.3c-2.1,0.8-3.5-0.4-5-1
		c-8.3-3.5-16.5-7.1-25.2-9.3c-14.7-3.6-29.5-4.7-44.2,0.3c-16-14.7-33.9-17.7-53.4-7.8c-9.3,4.8-15.1,12.8-18.1,22.8
		c-0.8,2.6-1.6,4.4-4.8,4.6c-14.4,1-28.8,2.9-43.4,2.1c-24.3-1.4-48.3-5.4-72.2-9.4c-8.5-1.4-16.9-3.8-25.7-3.7
		c-2.3,0-7.2-0.1-9.3,1.1c-3.1,1.8,0-0.1,0-2.4C-11.1,277.7-11,256.9-11.1,236.1z"/>
	<path style="fill:none;stroke:#000000;stroke-width:2;stroke-miterlimit:10;" d="M215.8,291.3c14.7-5.1,29.4-3.9,44.2-0.3
		c8.8,2.1,17,5.7,25.2,9.3c1.5,0.6,2.8,1.8,5,1c-0.6-3-3.5-3.7-5.3-5.3c-3-2.8-7.4-4.1-8.1-9c5.4-2.3,10.9-0.5,16.2,0.2
		c15.8,2.3,31.5,4.8,47.1,8.4c9.7,2.2,18.7,5.9,26.8,11.8c3,2.2,6.1,2.9,9.8,2.8c14-0.2,27.9-0.9,41.8,0.8c-2.2,1.7-4.2,3.8-6.7,5.2
		c-10.7,6.1-21.4,12.1-32.3,17.8c-19.8,10.3-40.4,14.1-62.2,7.2c-3.3-1-6.6-0.3-9.7,1.3c-3.1,1.6-6.2,3.2-9.2,5.1
		c-5.5,3.5-10.9,3.3-16.5,0.2c-4.1-2.2-8.3-4.3-12.5-6.2c-4.1-1.9-7.8-1.3-10.8,2.2c-3.5,4.1-8.1,6.9-13,9c-5.6,2.5-11.3,5-16.9,7.4
		c-6.4-1.3-12.2-4.3-18.2-6.6c-11.4-4.3-22.9-7.8-35.2-8c-7.6-0.1-15.1-2.4-22.3-4.7c11.4-2.5,23.1-2.6,34.7-3.8
		c19-2,38.1-3.7,57.1-5.5c16.6-1.6,33.1-3,49.7-4.6c19-1.8,38-3.6,57.1-6.6c-5.6-0.5-11.2-1.2-16.8-1.5c-26.8-1.1-53.5-1.9-80.3-3.3
		c-8.2-0.4-16.3-0.5-24.4-0.8c-2.2-0.1-4.6,0.1-5-2.9C224,304.2,220.2,297.6,215.8,291.3z"/>
	<path style="fill:none;stroke:#000000;stroke-width:2;stroke-miterlimit:10;" d="M-11.1,454c11.7-0.4,23.3,0.9,34.9,2.1
		c1.1,0.1,2,0.1,2.8-0.6c2.4-2.1,5.1-1.6,7.5-0.5c7.4,3.4,12.6-2,18.4-4.6c1.1-0.5,1.1-1.9,1.4-3c1.2-4.6,2.9-5.3,7-2.7
		c2.5,1.5,5.1,2.3,8,2.5c-2.6,8-2.6,8-10.7,8c-4.6,0-8.9,1-12.3,4.4c-2.2,2.1-4.7,3.1-7.7,2.3c-2-0.5-4,0-5.9,0.5
		c-5.2,1.3-10.4,2-15.6-0.1c-1.7-0.7-3.8-1.5-5.3-0.4c-4.1,3-7.6,1.4-11.5-0.6c-3.4-1.8-7.3-2.2-11.1-2
		C-11.6,457.3-11.7,455.7-11.1,454z"/>
	<path style="fill:none;stroke:#000000;stroke-width:2;stroke-miterlimit:10;" d="M-5.8,327.2c-1.8,1.9-3.5,3.8-5.3,5.7
		c-0.2,0.1,0.2,0.1,0,0.2c0-4.4,0-8.9,0-14.5C-8.6,322.1-7.6,324.7-5.8,327.2z"/>
	<path style="fill:none;stroke:#000000;stroke-width:2;stroke-miterlimit:10;" d="M-11.1,333.2c0.2-0.1-0.2-0.1,0-0.2v0.1
		c-0.6,9.6-0.2,19.3,0,28.9v0.1l0,0C-12,352.4-11,342.8-11.1,333.2z"/>
	<path style="fill:none;stroke:#000000;stroke-width:2;stroke-miterlimit:10;" d="M625.1,217.7c-2.2-1.5-2.2-3,0-4.5
		C625.1,214.8,625.1,216.2,625.1,217.7z"/>
	<path style="fill:none;stroke:#000000;stroke-width:2;stroke-miterlimit:10;" d="M625.1,178.2L625.1,178.2L625.1,178.2z"/>
	<path style="fill:none;stroke:#000000;stroke-width:2;stroke-miterlimit:10;" d="M455,437c0.3-0.8,0.6-1.5,0.9-2.3
		c3.8-10.5,4.4-10.8,15-6.9c2.9,1.1,5.8,1.2,8.8,0.2c8.4-3,16.7-3.8,25.1,0.4c7.9,3.9,15.1,2.9,22.1-3.1c6.8-5.8,9.9-5.6,16.7,0.1
		c5.3,4.4,10.8,3.4,16.5,2c4.5-1.1,8.6-0.9,13.2,0c9.2,1.8,17.4-0.8,23.6-8.4c1.9-2.3,3.9-4.5,6.4-6.2c6.7-4.7,15.5-4.6,21.7,0.9
		c2.4,2.1-3.3,4.6,0,5.4c0,19.3,0,38.6,0,57.8c-9.7,2.5-18.8,4-28.9,2.5c-3.8-0.6-7.3-2-10.7-3.9c-11.2-6.2-22.4-12-35.4-14.4
		c-10.6-2-20.8-5.9-31.6-7c-11.4-1.2-22.8-3-34.2-4.1C473.1,448.7,463.9,443.3,455,437z"/>
	<path style="fill:none;stroke:#000000;stroke-width:2;stroke-miterlimit:10;" d="M625.1,378.9c-8.5,0.7-16.2-1.3-24.7-1.1
		c-4.6,0.1-8.4,1.4-11.9,4.3c-2.2,1.8-4.4,3.5-6.6,5.3c-6,4.7-12.5,6.4-20.1,4.3c-8.4-2.3-16.7-4.7-24.6-8.2
		c-11.8-5.2-22.9-5.7-34.2,1.4c-7,4.4-15,5.4-23,2.2c-1.5-0.6-3.1-1.3-4.4-2.3c-3.3-2.7-2.9-6.2,1-7.8c3.4-1.4,6.9-2.1,10.7-1.5
		c8.8,1.4,14-1.5,17.3-9.8c1.5-3.7,2.6-7.5,4.2-11.2c2.1-5.1,4.9-6.6,10.3-4.9c3.9,1.3,7.6,3.3,11.4,5c8.3,3.8,13.4,2.2,18.1-5.6
		c2.8-4.7,5.2-9.7,8.1-14.3c5-7.8,9.1-9,17.7-5.6c4.3,1.7,8.7,3.3,13,5.2c10.8,4.6,26.8,4.6,37.8,1.2c1.9-0.6-1.9-1,0-1.4
		C625.1,349,625.1,364,625.1,378.9z"/>
	<path style="fill:none;stroke:#000000;stroke-width:2;stroke-miterlimit:10;" d="M417.1,426.2c-0.6-2.2-1.4-4.4-1.8-6.7
		c-0.9-5,0.1-6.2,5.2-5.9c2.8,0.1,4.2-1.5,5.8-3.2c1-1.1,2.1-2.3,3.8-1.7c1.7,0.6,1.9,2.2,1.9,3.7c-0.1,4.7,1.7,8.1,6,10.5
		c3,1.6,4.2,4.6,3.1,8.1c-5.6-2.9-12-1.5-17.9-2.9C421.1,427.6,419,427.3,417.1,426.2z"/>
	<path style="fill:none;stroke:#000000;stroke-width:2;stroke-miterlimit:10;" d="M532.6,493.8c5.2-0.3,9.8-3.2,15.2-2
		c7.3,1.6,13.1,4.6,16.7,11.5c1,1.9,2.7,3.3,4.2,4.9c0.6,0.7,1.6,1.5,1.2,2.5c-0.5,1.4-1.9,1.1-3,1.2c-0.2,0-0.4,0.1-0.5,0
		c-5.5-3.4-13.1-3.4-16.8-9.8c-0.9-1.5-1.9-3-3.7-3C540.7,499.3,537.1,495.5,532.6,493.8z"/>
	<path style="fill:none;stroke:#000000;stroke-width:2;stroke-miterlimit:10;" d="M351.1,406c0.6,0,1.1,0,1.7,0
		c1.7,0.2,3.4,0.5,4.4,2c1.7,2.8,4.9,3.1,7.2,4.7c4.7,3.4,9.9,6.2,14.3,9.8c3.5,2.9,6.6,6.5,9.9,9.7c0.9,0.9,2,2.5,0.7,3.5
		c-1.6,1.3-1.9-1-2.8-1.8c-5.2-4.4-9.9-9.6-17-11c-0.5-0.1-1.2-0.1-1.4-0.4c-3.7-5.3-10.7-6.5-14.7-11.5c-0.6-0.7-1.4-1.6-2.2-1.8
		C347.6,408.1,350.2,407,351.1,406z"/>
	<path style="fill:none;stroke:#000000;stroke-width:2;stroke-miterlimit:10;" d="M507.1,461.3c5.1-2.9,8.5-4.3,13.1-1
		c4.7,3.4,8.6,7.8,13.7,10.7c0.9,0.5,1.9,1.3,1.4,2.3c-0.7,1.7-2,0.6-3,0.3c-3.9-1.2-7.1-3.2-10.4-5.9
		C518.3,464.9,513.6,461.9,507.1,461.3z"/>
	<path style="fill:none;stroke:#000000;stroke-width:2;stroke-miterlimit:10;" d="M209.6,469.7c0.2-0.2,0.6-0.6,0.7-0.6
		c0.6,0.3,0.2,0.8,0,1.1C210.1,470,209.8,469.8,209.6,469.7z"/>
	<path style="fill:none;stroke:#000000;stroke-width:2;stroke-miterlimit:10;" d="M228.9,360.3c5.6-2.5,11.3-5,16.9-7.4
		c4.9-2.2,9.5-4.9,13-9c3-3.6,6.7-4.1,10.8-2.2c4.2,1.9,8.4,4,12.5,6.2c5.6,3.1,11,3.3,16.5-0.2c2.9-1.9,6.1-3.5,9.2-5.1
		c3-1.6,6.4-2.3,9.7-1.3c21.8,6.9,42.4,3.1,62.2-7.2c10.9-5.7,21.6-11.7,32.3-17.8c2.4-1.4,4.5-3.4,6.7-5.2
		c19.6-7,38.4-5.2,56.7,4.3c2.4,1.2,4.7,2.6,7,3.9c5.6,3.8,11.3,7.7,16.9,11.5c-4.9,5.5-11.7,7.7-18.4,9.2
		c-7.2,1.6-12.9,4.6-17.2,10.8c-2.6,3.8-6.2,6.8-10.3,9.3c-6.1,3.8-12.1,5.1-18.7,1.3c-4-2.3-7.7-1.3-10.6,2.3
		c-1.9,2.3-4.4,3.2-7.3,3.9c-7.6,1.9-15,4.2-22.5,6.4c-9.8-1.6-19.2-4.7-27.6-9.8c-8-4.9-15.5-4.1-23,0.3c-5.2,3-9.7,3-15,0
		c-6.3-3.6-12.8-3.5-18.4,2c-2,2-4.5,2.7-7.3,2.7c-4.5-0.1-9,0.3-13.4-0.7c-3.4-0.8-5.9,0.1-7.3,3.5c-1.5,3.4-3.7,6.3-6.2,9
		c-5-0.5-9.4-2.6-12.6-6.3c-4.5-5.2-10.1-7.7-16.8-8.8C240.4,364.6,234.3,363.3,228.9,360.3z"/>
	<path style="fill:none;stroke:#000000;stroke-width:2;stroke-miterlimit:10;" d="M275.9,380.9c2.5-2.7,4.7-5.6,6.2-9
		c1.5-3.3,4-4.3,7.3-3.5c4.4,1,9,0.7,13.4,0.7c2.8,0,5.3-0.8,7.3-2.7c5.6-5.5,12-5.6,18.4-2c5.2,3,9.8,3,15,0c7.5-4.3,15-5.1,23-0.3
		c8.4,5.1,17.8,8.2,27.6,9.8c-3.5,2.3-7.6,3.4-11.6,4.4c-8.8,2.2-15.2,7.4-19.6,15.1c-2.2,3.8-4,5-7.9,1.5c-4.7-4.2-10.4-5.5-17-5.3
		c-10.7,0.4-20.7-3-29-10.3c-2.9-2.5-6.1-3-9.3-1.5C292,381.6,284.1,382.5,275.9,380.9z"/>
	<path style="fill:none;stroke:#000000;stroke-width:2;stroke-miterlimit:10;" d="M60,360c8,0,15.9-0.1,23.9,0c3.2,0,5.1,1.8,5,5
		c-0.1,7.9,3.7,12.2,11.3,14c6.3,1.5,11.8,4.3,13.8,11.5c0.9,3.3,4,5,7.5,5.9c4.5,1.1,9.1,1.8,13.5,4.1c-7.4,3.6-26,0.3-30.1-7.5
		c-2.9-5.5-7-9.4-13.8-10c-4.2-0.4-7.7-3.3-10.2-6.7C75.6,368.9,68.8,363.7,60,360z"/>
	<path style="fill:none;stroke:#000000;stroke-width:2;stroke-miterlimit:10;" d="M62.7,407.8c-6.3-1.6-11.3-3.7-15.2-7.7
		c-3.4-3.5-7.2-6.1-12.1-7.6c-9.5-3-11.8-7-10.7-16.9c0.3-3.2-0.8-5-3.8-6.1c-4.2-1.5-7.3-4-7.2-9c0-1.8-1.3-2.9-2.8-3.9
		c-1.4-0.9-2.8-1.8-4-3s-3.5-2.5-2.2-4.4s3.3-0.3,4.9,0.4c0.8,0.3,1.5,1,2.2,1c6.3-0.1,9.3,2.9,9.8,9.2c0.2,2.8,2.6,4.4,5.3,5.5
		c5,2.1,5.8,4,3.7,8.7c-3.4,7.7-2.1,10.3,6.2,12.1c5.5,1.3,10.5,3.1,12.1,9.6c0.7,2.8,3.3,4.4,6,5.6C58,402.4,60.9,403.4,62.7,407.8
		z"/>
	<path style="fill:none;stroke:#000000;stroke-width:2;stroke-miterlimit:10;" d="M126.2,371c-5.8,1.2-11.7-0.8-13.7-5.1
		c-2.4-5.2-6.2-7-11.5-6.9c-3.2,0.1-5-1.3-5.1-4.7c0-2.9-1.6-4.5-4.2-5.6c-3.8-1.5-6.9-4-9.6-7c-0.9-1-2.2-1.9-1.4-3.4
		c0.9-1.6,2.5-0.9,3.6-0.3c4.8,2.8,11.6,2.9,13.1,10.1c0.5,2.3,3,2.9,5.1,3.6c5.3,1.7,9.6,4.5,11.6,10.1c0.9,2.5,3.1,3.8,5.3,5
		C121.7,368,124.2,368.5,126.2,371z"/>
	<path style="fill:none;stroke:#000000;stroke-width:2;stroke-miterlimit:10;" d="M189.3,360.9c7.9-3,9.1-2.7,13.5,3.2
		c1.6,2.2,3.8,3.7,6,5.2c3.6,2.4,6.8,5.3,8.9,9.2c2,3.8,4.6,6.9,8.9,8.1c1.5,0.4,3.6,1.4,2.4,3.5c-0.9,1.6-2.8,0.7-4-0.1
		c-1.6-1.1-3.1-2.5-4.5-3.9c-3.1-2.9-5.7-6.4-10.2-7.8c-2.2-0.7-3.8-2.8-4.7-5c-2.5-5.6-6.9-8.7-12.7-10.1
		C191.7,362.8,190.3,362.5,189.3,360.9z"/>
	<path style="fill:none;stroke:#000000;stroke-width:2;stroke-miterlimit:10;" d="M499.2,330.7c-5.6-3.8-11.3-7.7-16.9-11.5
		c9.6-0.4,19.1,0.1,28.7,0.8C507.2,323.7,503.6,327.7,499.2,330.7z"/>
	<path style="fill:none;stroke:#000000;stroke-width:2;stroke-miterlimit:10;" d="M-11.1,362c-0.2-9.6-0.6-19.3,0-28.9
		C-9.9,342.7-9.6,352.3-11.1,362z"/>
	<polygon style="fill:none;stroke:#000000;stroke-width:2;stroke-miterlimit:10;" points="146.9,393.1 146.8,392.8 147.1,392.9 	"/>
	<path style="fill:none;stroke:#000000;stroke-width:2;stroke-miterlimit:10;" d="M69,447c0-0.7,0-1.3-0.1-2
		c0.6-0.4,1.3-0.7,1.9-1.1l0.3,0.3C70.8,445.4,70.1,446.4,69,447z"/>
	<path style="fill:none;stroke:#000000;stroke-width:2;stroke-miterlimit:10;" d="M70.9,443.9c-0.6,0.4-1.3,0.7-1.9,1.1
		c-1.5-4-5.1-7.5-2.1-12.7c1.7,3.1,2.8,6.4,6.2,7.7C72.3,441.3,71.6,442.6,70.9,443.9z"/>
	<path style="fill:none;stroke:#000000;stroke-width:2;stroke-miterlimit:10;" d="M73,499L73,499L73,499z"/>
	<polygon style="fill:none;stroke:#000000;stroke-width:2;stroke-miterlimit:10;" points="81.9,502.1 81.8,501.8 82.1,501.9 	"/>
	<polygon style="fill:none;stroke:#000000;stroke-width:2;stroke-miterlimit:10;" points="82.1,501.9 82.2,502.2 81.9,502.1 	"/>
	<path style="fill:none;stroke:#000000;stroke-width:2;stroke-miterlimit:10;" d="M50.1,486.9c0.3,0.4,0.6,0.7,0.9,1.1l0,0
		c-0.3-0.3-0.7-0.6-1-0.9C49.9,487.1,50.1,486.9,50.1,486.9z"/>
	<path style="fill:none;stroke:#000000;stroke-width:2;stroke-miterlimit:10;" d="M51,488L51,488L51,488z"/>
</g>
</svg>
