<?xml version="1.0" encoding="utf-8"?>
<!-- Generator: Adobe Illustrator 22.1.0, SVG Export Plug-In . SVG Version: 6.00 Build 0)  -->
<svg version="1.1" id="Layer_1" xmlns="http://www.w3.org/2000/svg" xmlns:xlink="http://www.w3.org/1999/xlink" x="0px" y="0px"
	 viewBox="0 0 548.3 507.1" style="enable-background:new 0 0 548.3 507.1;" xml:space="preserve">
<path d="M459.2,505.6c-1.6-0.8-5.8-2.5-9.4-3.7c-6.3-2.1-14.1-8.6-14.1-11.7c0-0.8-0.4-1.6-0.9-1.8c-0.5-0.2-2.1-2.7-3.5-5.5
	c-2.2-4.2-2.6-6.9-2.6-16.1c0-6.5,0.5-11,1.2-11c0.6,0,1.2-1.1,1.2-2.4c0-2.1,2-6.6,3.5-8.2c0.3-0.3,1.9-3.2,3.5-6.4
	c1.6-3.2,3.3-6,3.8-6.2s0.9-1.4,0.9-2.6s0.5-2.2,1.2-2.2c0.6,0,1.2-0.8,1.2-1.8s0.5-2.7,1-3.8c0.6-1.1,1.6-3.3,2.2-4.9
	s2.3-5.2,3.7-8c1.4-2.8,2.5-6.3,2.5-7.8s0.5-3.1,1.2-3.5s1.2-2,1.2-3.5s0.5-3.1,1.2-3.5s1.2-2,1.2-3.5s0.5-3.1,1.2-3.5
	c0.6-0.4,1.2-1.7,1.2-2.9c0-2.4,4.6-11.8,6.4-13.1c1.3-0.9-4.9-3.6-6.4-2.7c-2.8,1.7-25.7-8.1-31.8-13.6c-4.4-4-8.2-9.7-8.2-12.4
	c0-1.3-0.5-2.7-1.2-3.1c-0.6-0.4-1.2-2.3-1.2-4.2c0-1.9,0.5-3.4,1.2-3.4c0.6,0,1.2-1.7,1.2-3.8c0-5.4,6.9-14.3,13.5-17.5
	c4.8-2.3,5.2-2.9,5.2-6.9c0-2.4-0.5-4.7-1.2-5.1c-0.6-0.4-1.2-2.5-1.2-4.7s-0.5-4-1.2-4c-0.6,0-1.2-0.7-1.2-1.6
	c0-1.5-4.3-6.4-8.5-9.7c-6.9-5.4-21.6-10-28.3-9c-5.9,0.9-13.7,4.6-15.7,7.6c-0.8,1.2-2.3,2.2-3.3,2.2s-3.4,1.9-5.5,4.2
	c-2.1,2.3-4.5,4.8-5.3,5.5s-3.8,3.5-6.6,6.2c-4.6,4.4-13.5,9.7-16.3,9.7c-0.6,0-2,0.9-3,2.1c-3.5,3.8-14.1,7.7-26.2,9.6
	c-12.7,2-46,1.7-56.6-0.5c-13-2.7-31.8-12.1-38.7-19.5l-5.2-5.5l-6.8,1c-6.6,1-46.7,2.9-53.7,2.6c-13.3-0.6-27.9-0.1-32.8,1.2
	c-4.9,1.3-5.9,2-6.2,4.4c-0.2,1.6-1.4,5.1-2.6,7.9c-1.3,2.7-2.3,5.7-2.3,6.7s-0.5,1.8-1.2,1.8s-1.2,0.8-1.2,1.8s-0.4,1.8-0.9,1.8
	s-1.6,1.4-2.4,3.2c-2.7,5.9-14.5,13.2-24.6,15.3c-12.3,2.6-17.7,1.6-35.1-6.5c-3.4-1.6-6.5-3.4-6.8-4c-0.4-0.6-2.7-2.4-5.2-4
	c-4.4-2.7-8.1-6.2-11.7-10.7c-1.7-2.1-8.8-16.1-10.5-20.9c-0.5-1.3-1.4-3.6-2.1-5.3c-0.7-1.6-1.6-4.5-2-6.4s-1-4.8-1.3-6.4
	s-1.1-4-1.6-5.3c-1.1-2.7-1.8-5.7-4.1-18.7c-2.4-13.7-1.2-44.9,1.9-46.8c0.6-0.4,1-1.9,1-3.5s0.5-3.9,1.2-5.2
	c0.6-1.3,1.7-3.4,2.3-4.6s1.2-3.1,1.2-4.1s0.5-1.8,1.2-1.8c0.6,0,1.2-1.3,1.2-2.9c0-1.6,0.5-2.9,1.2-2.9c0.6,0,1.2-0.7,1.2-1.6
	c0-1.9,5.9-13.4,9.4-18.2c1.3-1.8,2.4-4.1,2.4-5.2s0.5-1.9,1.2-1.9c0.6,0,1.2-0.8,1.2-1.8s0.4-1.8,1-1.8c0.5,0,1.7-1.4,2.6-3.2
	c3.1-5.9,15.9-17.8,19.1-17.8c1.6,0,3.3-0.5,3.7-1.2s2.3-1.2,4.3-1.2s4.5-0.5,5.8-1.2c4.2-2.3,25.8,2,32.2,6.3
	c4.5,3.1,11.1,9.6,11.1,11c0,0.6,0.8,1.7,1.7,2.5c2.2,1.8,5.3,7.9,5.3,10.4c0,1,0.5,2.6,1.1,3.6c1.3,2,0.4,1.9,62.7,2.4l42.1,0.3
	l3.7-4c2-2.2,4.2-4.8,4.8-5.7s4.5-4.6,8.7-8.1s7.8-6.8,8-7.3s1.1-0.9,2-0.9s3.5-1.1,5.8-2.3c2.3-1.3,5.2-2.3,6.3-2.3
	c2.8,0,4.8-2.5,4.2-5.3c-0.3-1.3-0.8-3.7-1.1-5.5c-0.4-2.1-1.4-3.2-2.8-3.2c-3.2,0-7.2-5.3-7.2-9.5c0-5.5,4.9-12.9,10.6-15.9
	c2.7-1.4,5.7-2.6,6.6-2.6s1.6-0.5,1.6-1.1s1.2-1.3,2.6-1.5c1.6-0.2,2.6-1.1,2.5-2.4c-0.1-1.1-0.2-6.2-0.3-11.4c-0.2-9-0.3-9.3-3-9.3
	c-1.8,0-5.1-2.1-9-5.8l-6.2-5.8h-8.3c-4.6,0-8.8-0.5-9.5-1c-0.6-0.6-6.9-1.3-14-1.7s-16.9-1-21.7-1.4c-8.1-0.7-9-0.5-11.7,2
	c-2.4,2.2-4.1,2.7-9.6,2.6c-6-0.1-7.1-0.5-10.8-4.1c-6.6-6.5-9-11.8-9-19.6c0-3.8,0.4-7,0.9-7.3c0.5-0.2,2.4-2.4,4.2-4.8
	s4-4.4,5-4.4c0.9,0,1.7-0.5,1.7-1.2c0-1.6,12.5-1.5,15.5,0.1c1.4,0.7,3.7,2.5,5.2,4c2.7,2.7,4.8,3.2,20,4.6
	c9.9,0.9,34.9,0.9,44.7-0.1c7.2-0.7,8.1-1.1,9.4-4c1-2.2,4-4.5,9.3-7.1c7.3-3.7,8.6-3.9,18.5-3.8c8.8,0.1,11.4,0.6,15.2,2.9
	c4.9,2.9,10.8,8.4,12.9,12.1c2.5,4.3,10.2,6.4,24,6.5c6.1,0,13.4,0.5,16.3,1.1c4.9,1,5.5,0.8,8.2-2.2c2.9-3.3,11.9-8.3,14.9-8.3
	c2.7,0,10.9,2.9,10.9,3.8c0,0.5,1,0.9,2.2,0.9c1.4,0,2.9,1.4,3.8,3.5c0.9,1.9,2,3.5,2.4,3.5c0.5,0,0.9,1.1,0.9,2.3
	c0,1.3,0.5,2.3,1.2,2.3s1.2,3.3,1.2,7.6c0,7.5-0.1,7.8-5,12.6c-7.2,7-9.1,7.8-19.3,7.8c-8.5,0-9.4-0.2-12.8-3.5l-3.7-3.5L350.7,49
	c-20.6-0.3-21-0.3-25,2.6c-2.3,1.6-4.3,3.3-4.5,3.8s-1.1,0.9-1.9,0.9c-3.1,0-5.3,5.6-5.3,13.4c0,6.9,0.2,7.6,2.3,7.6
	c1.3,0,2.3,0.5,2.3,1.2s1.1,1.2,2.4,1.2c3,0,10.7,4.8,15.2,9.5c3.1,3.2,3.5,4.5,3.5,10.3c0,6.9-2.5,13.7-5.4,14.8
	c-0.9,0.3-1.6,1.8-1.6,3.2c0,1.4-0.5,3.1-1.1,3.7c-2,2,4.5,7.5,8.7,7.5c1,0,1.8,0.5,1.8,1.2s0.6,1.2,1.3,1.2
	c2,0,24.5,19.8,24.5,21.6c0,1.3,5.2,5.2,7.1,5.2c1,0,2.3,0.5,2.9,1.2c1.7,1.7,16,4.4,31,5.8c7.4,0.7,19.3,2,26.4,2.9
	s18.4,2.3,25.2,3c17.9,2,27.6,5.2,37.1,12.4c2,1.5,4,2.8,4.4,2.8c2,0,16,13.1,16,15c0,0.7,0.5,1.3,1.2,1.3s1.2,0.6,1.2,1.2
	c0,0.7,1.6,3.5,3.5,6.3s3.5,5.7,3.5,6.3c0,0.7,0.5,1.2,1.2,1.2c0.6,0,1.2,1.3,1.2,2.9c0,1.6,0.5,3.2,1.2,3.6
	c0.6,0.4,1.2,2.2,1.2,3.9s0.5,3.7,1.1,4.3c2.3,2.4,4.6,36.3,2.5,38.3c-0.8,0.8-1.3,7.5-1.3,17.3v16l4.6,4.5
	c6.7,6.5,9.5,12.3,9.5,19.1c0,3.2-0.5,6.9-1.2,8.1c-0.6,1.3-1.7,3.4-2.3,4.6c-0.6,1.3-1.2,3.1-1.2,4.1s-0.5,1.8-1.2,1.8
	c-0.6,0-1.2,0.7-1.2,1.6s-1.6,2.9-3.6,4.4s-4.3,3.4-5.1,4.1c-1.5,1.4-20,7.6-21.5,7.2c-0.5-0.1-2.4,0.1-4.4,0.5
	c-1.9,0.4-10.4,1.1-18.8,1.5s-15.7,1.2-16.3,1.7c-1.5,1.5,1,19.4,2.9,20.6c0.6,0.4,1,1.7,1,2.9c0,1.2,0.5,2.3,1.2,2.3
	c0.6,0,1.2,0.7,1.2,1.5s1.1,2.7,2.3,4c1.3,1.4,2.3,3.1,2.3,3.7s0.4,1.2,0.9,1.2s1.5,1.4,2.3,3.2c0.8,1.8,3,4.9,5,6.9
	c1.9,2.1,3.5,4.3,3.5,5s0.5,1.2,1.2,1.2s1.2,0.7,1.2,1.7c0,0.9,0.4,1.8,0.9,2c1.4,0.6,8.4,11.1,8.4,12.6c0,0.7,0.4,1.2,0.9,1.2
	c0.8,0,1.8,1.9,4.9,9.9c0.5,1.3,1.5,3.8,2.2,5.6c2.9,7.2,1,31.1-2.5,31.2c-0.5,0-0.9,0.8-0.9,1.7c0,2.7-11.1,13.3-14.8,14.2
	c-1.8,0.4-5.2,1.7-7.5,2.8c-2.3,1.1-8.5,2.6-14,3.3C462.6,507.5,462.8,507.5,459.2,505.6L459.2,505.6z M492.4,495.9
	c7.9-3.9,11.3-6.4,11.3-8c0-0.4,1.1-1.8,2.3-3.2c1.3-1.4,2.3-3.2,2.3-4s0.5-1.5,1.2-1.5c1.5,0,1.6-20.2,0.1-23.1
	c-0.6-1.1-1.7-3.6-2.5-5.5s-2-4.6-2.7-5.8c-0.7-1.3-2.3-4.4-3.7-7c-1.3-2.6-3.7-6-5.1-7.6c-1.5-1.6-3.6-4.4-4.7-6.1
	c-1.1-1.8-2.4-3.2-2.9-3.2s-0.9-0.6-0.9-1.3c0-0.7-0.7-1.9-1.5-2.8c-3.3-3.5-5.6-6.6-5.6-7.7c0-0.6-0.5-1.2-1.2-1.2
	c-0.6,0-1.2-0.8-1.2-1.8s-0.5-1.8-1.2-1.8c-0.6,0-1.2-0.8-1.2-1.8s-0.4-1.8-0.9-1.8c-1.2,0-3.8-5.8-3.8-8.4c0-1.2-0.5-2.1-1.2-2.1
	c-0.6,0-1.2-2.4-1.2-5.3s-0.5-5.3-1.2-5.3c-0.6,0-1.2,1.5-1.2,3.4s-0.5,3.8-1.2,4.2c-0.6,0.4-1.2,2-1.2,3.6s-0.5,2.9-1.2,2.9
	s-1.2,1.3-1.2,2.9s-0.5,3.2-1.2,3.6s-1.2,2.2-1.2,4.1s-0.5,3.7-1.2,4.1s-1.2,1.7-1.2,3c0,1.2-0.5,2.3-1.2,2.3
	c-0.6,0-1.2,1.3-1.2,2.9s-0.5,3.2-1.2,3.6c-0.6,0.4-1.2,1.7-1.2,3c0,1.2-0.4,2.3-0.9,2.3s-2.2,2.9-3.8,6.4c-1.6,3.5-3.3,6.4-3.8,6.4
	s-0.9,0.7-0.9,1.6s-1.5,4.7-3.4,8.5c-5.8,11.8-7.9,22.5-4.9,24.4c0.6,0.4,1.2,1.7,1.2,3c0,1.2,0.5,2.3,1.2,2.3
	c0.6,0,1.2,1.3,1.2,2.9s0.5,2.9,1.2,2.9c0.6,0,1.2,0.6,1.2,1.4c0,2,9.5,10.3,12.7,11.1c1.5,0.4,4.7,1.7,7,2.9
	c3.6,1.9,5.9,2.1,14.1,1.5C482.5,500.2,485.6,499.3,492.4,495.9L492.4,495.9z M482.7,475.1c0-2.2,0.5-4.1,1-4.1c1,0,2-3.7,3.3-12
	c0.7-4.8,1.1-5,7.6-3c4.1,1.2,4.5,1.7,4.5,5.2c0,2.1-0.5,4.2-1.2,4.6c-0.6,0.4-1.2,2-1.2,3.6s-0.5,2.9-1.2,2.9
	c-0.6,0-1.2,1.3-1.2,2.8c0,3.2-1.9,4.2-7.7,4.2C482.9,479.2,482.7,479,482.7,475.1L482.7,475.1z M492,471c0-1.2,0.5-2.5,1.2-2.9
	s1.2-2.3,1.2-4.2c0-2.7-0.5-3.4-2.3-3.4c-1.7,0-2.3,0.8-2.3,2.9c0,1.6-0.5,3.2-1.2,3.6c-1.3,0.8-1.6,5.6-0.5,6.7
	C489.3,475,492,473.1,492,471L492,471z M500.8,360c19.5-2.5,27.1-5.2,33.8-12c5.7-5.7,6.9-9.1,7-19.1c0.1-8.5-0.1-9.5-2.9-12.3
	c-4.1-4.1-11.9-7.9-16.1-7.9c-4.2,0-9.5-1.9-9.5-3.3c0-1.6,3.4-2.8,10-3.6l5.9-0.7l0.3-15.2c0.2-8.3,0.9-16.3,1.6-17.7
	c0.8-1.5,0.9-4.1,0.4-6.4c-0.5-2.1-1.1-7.8-1.4-12.6c-0.3-4.8-1-9.3-1.6-9.9c-0.6-0.6-1.1-2.9-1.1-5s-0.5-4.9-1.2-6.2
	s-1.7-3.4-2.3-4.6s-1.2-2.9-1.2-3.6c0-0.7-1.1-2.4-2.3-3.7c-1.3-1.4-2.3-3.2-2.3-4s-0.5-1.5-1.2-1.5s-1.2-1.1-1.2-2.3
	c0-1.3-0.5-2.3-1.2-2.3s-1.2-0.7-1.2-1.5s-1.7-2.8-3.7-4.4s-4.8-4-6.1-5.3c-3.3-3.2-12.8-8.7-20.6-12c-8.6-3.6-19.3-6-32.8-7.3
	c-6.1-0.6-15.9-1.7-21.7-2.3c-5.8-0.7-16.4-1.7-23.5-2.3s-15-1.7-17.6-2.4s-6-1.6-7.6-2s-5.4-2.2-8.6-4c-3.1-1.8-5.9-3.3-6.3-3.3
	c-1,0-4-3.2-4-4.3c0-0.5-1.1-1.8-2.3-2.7c-1.3-0.9-2.3-2.1-2.3-2.6c0-1.5-5.6-6.7-7.1-6.7c-0.8,0-2.2-0.9-3.3-2.1
	c-2.9-3.3-9.1-7.2-11.2-7.2c-1,0-1.9-0.5-1.9-1.2c0-0.6-1-1.2-2.3-1.2s-2.6-0.5-3-1.2c-0.4-0.6-2.7-1.2-5.1-1.2s-5-0.6-5.7-1.3
	c-1.5-1.5-25.9-0.7-38.5,1.2c-4.5,0.7-10.5,1.6-13.2,1.9c-2.7,0.4-5,1.1-5,1.7c0,0.6-1.1,1.1-2.3,1.1s-2.3,0.5-2.3,1.2
	s-0.8,1.2-1.7,1.2c-1,0-2.7,0.8-3.8,1.7c-9.6,7.8-15.1,12.7-16.6,15.1c-1,1.5-3.6,4.6-5.7,6.7l-3.9,3.9l-29.5-0.6
	c-41.9-0.8-75.4-0.7-82.8,0.3c-7,0.9-10.6,3.6-16.4,11.9c-12.8,18.4-21.4,41.2-19.6,52.1c2.9,17.3,7.7,31.9,12.9,39.5
	c2,2.9,6.6,8.2,10.3,11.8l6.6,6.5l49.3-0.2c32.4-0.2,51.6-0.7,56-1.6l6.7-1.4l5.8,4.9c10.7,9,23.3,15.5,38.6,20.1
	c3.7,1.1,12.9,1.5,31.7,1.5c25.5,0,26.7-0.2,36.3-3.2c5.5-1.8,11.8-4.4,14.1-5.8c2.3-1.4,5.7-3.4,7.6-4.4s8.4-6.6,14.5-12.6
	c11.1-11,21.2-18.9,24-18.9c0.8,0,2.2-0.6,2.9-1.4c0.8-0.8,6.6-1.6,13.6-1.9c12.3-0.5,12.3-0.5,20.6,3.7c4.6,2.3,9,4.9,9.8,5.7
	c2.7,2.8,9.1,14.9,7.9,14.9c-1.5,0-1.7,3.1-0.2,3.7c0.6,0.2,1.3,3.5,1.7,7.4c0.4,3.9,0.7,7.1,0.7,7.3c0,0.2,1.2,0.3,2.7,0.3
	c5.7,0,5.8,1.9,0.1,4.1c-3.1,1.2-7.7,3.6-10.2,5.4s-5.2,3.3-6,3.3c-3.1,0-4.3,3.6-4.3,12.6c0,5.7,0.6,10.3,1.6,12
	c3.5,6.1,15.5,15.1,20.2,15.1c1,0,2.6,0.8,3.6,1.9c1.4,1.4,5.4,2.1,15.6,2.7C490.8,361.2,490.9,361.2,500.8,360L500.8,360z
	 M483,352.2c-3-0.6-3.6-3.8-0.8-3.8c2.8,0,6.5,2.3,5.7,3.6c-0.4,0.6-1.1,1-1.5,1C486,352.8,484.4,352.5,483,352.2L483,352.2z
	 M495.7,352.1c-2.3-1.5-0.4-2.2,6.3-2.6c4.5-0.3,5.9,0,5.9,1.4C507.9,352.8,498.4,353.8,495.7,352.1L495.7,352.1z M452.8,349.3
	c-3.8-2.2-5.3-4.1-5.3-6.7c0-1.3-0.5-2.4-1.1-2.4s-0.5-1.4,0.2-3.3c1.4-3.7,6.3-7.2,13.2-9.6c8.9-3.1,44.6-0.9,55.7,3.4
	c3.7,1.4,9.4,7,9.4,9.2c0,3.2-4.3,6.5-7.2,5.6l-2.7-0.9l2.6-1.1c2.2-1,2.4-1.5,1.2-3.6c-0.8-1.4-2.1-3.1-3.1-3.8
	c-2.7-2.1-14.5-3.3-34.1-3.3c-15.5,0-18.8,0.3-22.7,2.2c-3.9,1.9-4.4,2.6-3.8,5.2C457.6,351.2,457.4,352,452.8,349.3L452.8,349.3z
	 M463,349.7c-1.2-0.8-1.2-1.2,0.2-2.3c1.2-1,2.5-1.1,5-0.1c2.7,1,3,1.5,1.6,2.3C467.6,351,465,351,463,349.7L463,349.7z
	 M460.7,305.6c-2.5-1,1.5-3.9,5.4-3.9c4,0,6,2.1,3.5,3.6C467.9,306.4,463.1,306.6,460.7,305.6z M485.3,305.4
	c-9.6-0.3-12.1-1.6-7-3.4c4.7-1.6,26.9-0.7,28.8,1.3c1.5,1.5,1.4,1.8-1.1,2.4c-1.6,0.4-4.7,0.5-6.9,0.4S490.6,305.6,485.3,305.4
	L485.3,305.4z M135.2,205.5c-2.2-4.9-2.8-13.6-0.9-13.6c0.6,0,1.2-0.8,1.2-1.8c0-2.6,6-11.2,7.2-10.4c0.6,0.4,0.9,1,0.6,1.4
	c-3.9,7.6-5,11.4-5.5,19.5l-0.6,9.3L135.2,205.5L135.2,205.5z M419.4,201c0-6.5,1.7-11.4,3.9-11.4c1.2,0,0.9,5.6-0.4,6.4
	c-0.6,0.4-1.2,2.2-1.2,4.1c0,1.9,0.5,3.7,1.2,4.1c2.1,1.3,1.3,4.1-1.2,4.1C419.6,208.3,419.3,207.5,419.4,201L419.4,201z
	 M148.8,196.7c-0.7-2-0.9-4-0.3-5c0.6-0.9,1-2.9,1.1-4.5c0.1-3.8,2.6-7,5.4-7c1.3,0,1.7,0.4,0.9,0.9c-1.5,1-2.8,5.8-3.6,13.4
	C151.6,200.9,150.7,201.5,148.8,196.7L148.8,196.7z M412.4,195.7c0.1-5.5,3.4-11.3,6.7-11.8c3.2-0.5,3.3,1.1,0.2,3
	c-1.7,1-2.3,2.7-2.3,5.9c0,4.1-1.6,7.2-3.8,7.2C412.7,200.1,412.3,198.1,412.4,195.7L412.4,195.7z M163.7,191.6
	c0-3.7,1.7-6.7,3.8-6.7c1.4,0,1.1,4.1-0.4,7.5C165.1,196.5,163.7,196.2,163.7,191.6L163.7,191.6z M82.8,329.3
	c4.2-0.8,9.2-2.4,11.1-3.7c4.5-3,8.8-7.2,8.8-8.6c0-0.6,0.4-1.3,0.9-1.5c2.9-1.2,5.9-7.9,6.1-13.8c0.4-8.9,0.4-9-3.3-9.7
	c-1.8-0.4-4.9-2.1-6.9-3.9s-4.8-4.4-6.4-5.7c-1.5-1.3-4.1-4.2-5.7-6.3c-1.6-2.1-3.5-4.5-4.1-5.2c-1.2-1.3-2.9-4.8-5.4-10.9
	c-0.7-1.8-1.8-4.1-2.3-5.2c-0.6-1.1-1-3.3-1-4.9s-0.5-3.2-1-3.5c-2.5-1.5-4.8-30.4-2.6-32.6c0.7-0.7,1.3-2.2,1.3-3.4
	c0-3.1,2.8-11.4,3.8-11.4c0.5,0,0.9-1,0.9-2.3s0.5-2.6,1.2-3s1.2-1.7,1.2-3s0.5-2.3,1.2-2.3s1.2-1,1.2-2.3s0.5-2.6,1.2-3
	s1.2-1.7,1.2-3c0-1.2,0.5-2.3,1.2-2.3s1.2-0.5,1.2-1.1c0-1.2,2.9-4.7,11.3-13.6c3.7-4,5.7-5.1,8.5-5.1c3.4,0,3.7-0.3,3.7-4.1
	c0-2.2-0.5-4.1-1.2-4.1s-1.2-0.8-1.2-1.7s-3.9-5.7-8.7-10.5c-6.3-6.3-9.6-8.8-11.7-8.8c-3,0-7.7,3.1-7.7,5.1c0,1.9-5.1,5.5-6.2,4.4
	c-1.2-1.2,0.9-5.5,4.3-8.6c1.2-1.1,1.9-2.4,1.5-2.8s-5.4-0.7-11.2-0.8c-12.7-0.1-17,1.7-23.3,9.3c-5.1,6.2-9.2,10.5-10.5,11.1
	s-12,20.9-17.4,33.1c-2,4.4-2.5,6.1-5.4,17.5c-3.6,14-5,47.3-2.5,56.6c0.8,2.9,1.7,6.8,2.1,8.8c0.9,4.3,2.8,11.7,4.4,16.3
	c3.3,10,15.6,31.4,19.3,33.6c0.9,0.5,3.9,3,6.9,5.5c5.6,4.8,13,8.6,21.7,11.1C69.4,331,73.1,331.1,82.8,329.3L82.8,329.3z
	 M78.5,323.6c-1.9-1.4-3.8-3.2-4.3-4s-1.6-2.1-2.4-3c-1.4-1.5-5.8-10.1-8.2-16.1c-0.6-1.6-1.6-3.8-2.2-4.9c-0.6-1.1-1-3.1-1-4.4
	s-0.5-2.4-1-2.4c-2,0-5.3-22.1-3.6-23.9c1.7-1.7,3.1,1,4.1,8.1c0.8,5.9,2.3,9.7,9,24c5.2,11,9.7,17.2,15.1,20.7
	c4.3,2.9,4.5,3.2,2.3,4c-1.3,0.5-2.5,1.7-2.5,2.7C83.9,326.9,82.5,326.7,78.5,323.6L78.5,323.6z M54.1,258.6
	c-0.5-0.8-0.6-1.8-0.2-2.2c1-1,2.2,0.5,1.6,2.2C55.2,259.8,54.9,259.8,54.1,258.6L54.1,258.6z M51.1,228c0-19.3,1.2-30.4,4.6-42
	c1.2-4.2,2.9-10,3.6-12.8c0.8-2.9,1.9-6.2,2.4-7.3c0.6-1.1,1.1-2.8,1.1-3.8s0.5-1.8,1.2-1.8c1.5,0,1.6,9,0.1,9.9
	c-0.6,0.4-1.3,2.6-1.6,5s-1.2,6.5-1.9,9.1c-3.1,10.6-4.7,23-4.7,35.9c0,13.9-1.7,25.5-3.6,25.5C51.6,245.6,51.1,237.9,51.1,228
	L51.1,228z M69.2,145.7c0.4-1,0.7-2.1,0.7-2.3c0-0.3,0.8-0.5,1.9-0.5c1.2,0,1.6,0.6,1.2,1.8c-0.4,1-0.7,2.1-0.7,2.3
	c0,0.3-0.8,0.5-1.9,0.5C69.1,147.5,68.7,146.9,69.2,145.7z M328.1,113.7c0.2-4.2,0.2-8.2,0-8.9c-0.6-2.1-5.8-4-10.8-4
	c-2.5,0-4.9-0.5-5.3-1.2c-0.4-0.6-2.8-1.2-5.3-1.2s-4.6-0.5-4.6-1c0-1.8,6.9-3.9,10.3-3.1c1.8,0.4,5.3,1.2,7.9,1.7
	c7.8,1.6,12.3,4.1,12.3,6.9c0,0.7,0.5,1.5,1.2,1.9s1.2-0.9,1.2-3.2c0-2.8-1.1-5.1-3.8-8c-5.3-5.6-12.2-8.7-22-9.9
	c-10.6-1.2-22.8-0.3-24.1,1.9c-0.3,0.6-2.4,1-4.6,1s-4.3,0.5-4.7,1.2c-0.4,0.6-2,1.2-3.6,1.2s-2.9,0.5-2.9,1.2s-0.9,1.2-1.9,1.2
	s-3.7,1.3-5.9,3c-4.5,3.4-5.1,7.3-1.6,10.5c1.5,1.3,2.3,1.6,2.3,0.7c0-3.8,10.9-9.4,18-9.4c3,0,5.4,0.4,5.4,0.9
	c0,2.2-3.1,3.7-7.6,3.7c-3.2,0-5.8,0.9-8,2.6c-3.2,2.6-3.2,2.6-1.8,10.3l1.4,7.7l29-0.1l29-0.1L328.1,113.7L328.1,113.7z M288,97.3
	c0-0.6,1.1-1.2,2.3-1.2s2.3,0.5,2.3,1.2c0,0.6-1.1,1.2-2.3,1.2S288,98,288,97.3z M289.8,78.6c0.4-0.6,4.9-1.2,9.9-1.2h9.2l0.7-4.4
	c1.2-7.3,0.3-14.9-2.1-17.2c-3.4-3.1-19.5-5.8-19.5-3.2c0,0.5-1.7,1.6-3.7,2.5l-3.7,1.6l0.7,10.3c0.4,5.7,1,10.9,1.4,11.5
	C283.7,80.1,288.8,80.2,289.8,78.6L289.8,78.6z M278.6,54.1c0-0.7,0.9-1.6,2.1-2c1.1-0.4,3.1-1.7,4.3-2.9c1.7-1.6,4.2-2.1,10.2-2.1
	c4.4,0,8.2,0.5,8.6,1.2c0.4,0.6,1.7,1.2,2.8,1.2s3.6,1.2,5.4,2.6c2.2,1.8,3.5,2.1,3.8,1.2c0.3-0.8,1.5-1.4,2.7-1.4s2.2-0.5,2.2-1.2
	c0-0.6,0.6-1.2,1.3-1.2s2.9-1.2,5-2.6c3.5-2.5,4.8-2.6,22.5-2.5c18.7,0.1,18.8,0.1,26.1,3.8c6,3,8.7,3.7,15,3.7
	c4.2,0,7.7-0.4,7.7-0.9s1.6-1.9,3.5-3.2s3.5-3,3.5-3.8s0.5-1.5,1.2-1.5c2.1,0,1.3-9.8-1.2-12.8c-1.3-1.6-2.3-3.4-2.3-3.9
	c-0.1-2.1-6.9-6.6-10-6.6c-1,0-1.8-0.5-1.8-1.2c0-2.5-6.1-0.6-10.2,3.1c-0.8,0.8-1.5,2.8-1.5,4.5v3.1L362.8,28
	c-17.2-0.7-27.7-1.6-32.2-2.5c-1.4-0.3-6.5-4.5-11.4-9.3s-9.6-8.7-10.5-8.7s-1.9-0.5-2.1-1.2c-0.6-1.9-17.5-1.8-21.8,0.1
	c-2.1,0.9-3.8,2.1-3.8,2.5s-0.9,0.9-2.1,0.9c-1.1,0-3.9,2.1-6.1,4.7c-2.9,3.3-5,4.6-7.3,4.6c-1.8,0-3.6,0.5-4,1.2
	s-10.3,1.2-25.8,1.2S210.5,21,210,20.2c-0.4-0.6-3.3-1.2-6.5-1.2c-5.2,0-6.3-0.5-10.6-4.7c-3.3-3.2-5.9-4.7-8.1-4.7
	c-4.3,0-11.1,2.9-14,6.1c-3.2,3.4-3.2,11-0.1,15c1.3,1.6,2.3,3.5,2.3,4.3c0.1,2.7,7.7,7.4,12.2,7.4c2.4,0,4.3-0.5,4.3-1
	c0-0.6,1.5-1.7,3.4-2.4c3.4-1.4,27.4-1.1,38.2,0.4c2.6,0.4,10.5,1.3,17.6,2c8.9,0.9,13.4,1.9,14.7,3.2c2.6,2.8,13.1,10.6,14.3,10.6
	C278.2,55.3,278.6,54.7,278.6,54.1L278.6,54.1z M336.9,36.9c-0.7-3.9-0.2-5,2.6-5c2.5,0,3.9,2.9,2.9,6
	C341.4,41.3,337.6,40.6,336.9,36.9L336.9,36.9z M379.5,37.8c0-2.7,0.7-2.9,3-0.7c1.7,1.7,1.1,3.1-1.4,3.1
	C380.2,40.1,379.5,39.1,379.5,37.8L379.5,37.8z M346.6,35.4c0-1.3,0.5-2.3,1.2-2.3c0.6,0,1.2,1.1,1.2,2.3s-0.5,2.3-1.2,2.3
	C347.2,37.8,346.6,36.7,346.6,35.4z M183.9,31.3c-1.7-2-2-7.6-0.3-7.6c0.6,0,1.2-1.1,1.2-2.3c0-1.3,0.5-2.3,1.2-2.3
	c1.5,0,1.5,3,0,5.8c-0.8,1.5-0.8,2.4,0,2.9c1.4,0.8,1.6,5.3,0.3,5.2C185.8,33,184.7,32.3,183.9,31.3L183.9,31.3z M189.5,29
	c0-1.6,0.5-2.9,1.2-2.9s1.2,1.3,1.2,2.9s-0.5,2.9-1.2,2.9S189.5,30.6,189.5,29z"/>
</svg>
