<?xml version="1.0" encoding="utf-8"?>
<!-- Generator: Adobe Illustrator 22.1.0, SVG Export Plug-In . SVG Version: 6.00 Build 0)  -->
<svg version="1.1" id="Layer_1" xmlns="http://www.w3.org/2000/svg" xmlns:xlink="http://www.w3.org/1999/xlink" x="0px" y="0px"
	 viewBox="0 0 512 512" style="enable-background:new 0 0 512 512;" xml:space="preserve">
<g transform="translate(-300.07 -111.06)">
	<path style="fill:none;stroke:#000000;stroke-miterlimit:10;" d="M571.6,263.6v85.1h-23.2v-84.4c4.2,1.1,8.5,1.5,12.3,1.4
		C561.1,265.6,566.4,264.7,571.6,263.6z"/>
	<path style="fill:#FFFFFF;stroke:#000000;stroke-miterlimit:10;" d="M578.6,261.7c-1.9,0.7-4.4,1.3-7,1.9c-5.2,1.2-10.5,2-10.8,2
		c-3.8,0.1-8.1-0.3-12.3-1.4c-2.4-0.6-4.8-1.5-7-2.5c8.4-17.4,12.3-48.4,17.8-73.9h2c0,0,0-0.3,0-0.8
		C566.4,212.3,569.9,241,578.6,261.7z"/>
	<path style="fill:none;stroke:#000000;stroke-miterlimit:10;" d="M561.3,187c0,0.5,0,0.8,0,0.8h-2c0.4-1.7,0.8-3.4,1.2-5.1
		C560.7,184.1,561,185.6,561.3,187z"/>
	<path style="fill:none;stroke:#000000;stroke-miterlimit:10;" d="M626.5,351.9v73.8c0,1.6-1.5,3-3.9,4.1l0,0
		c-2.3,1-5.3,1.5-8.6,1.5c-3.5,0-6.6-0.6-8.8-1.6c-0.1-0.1-0.3-0.1-0.4-0.2l0,0c-1.2-0.6-2.2-1.3-2.7-2.1c-0.3-0.5-0.5-1.1-0.5-1.6
		V352c0-0.6,0.2-1.1,0.5-1.7c4.8,1,10.2,1.7,14.1,1.2c1.6-0.2,5.5-0.9,9.5-1.7C626.2,350.5,626.5,351.2,626.5,351.9z"/>
	<path style="fill:#FFFFFF;stroke:#000000;stroke-miterlimit:10;" d="M635.9,347.6c-1.6,0.5-6,1.4-10.3,2.2c-4,0.8-7.9,1.5-9.5,1.7
		c-3.9,0.4-9.3-0.3-14.1-1.2c-4.6-0.9-8.5-2.1-9.9-2.7c8.5-14.4,14-37.3,20.4-56.8h1.8c0,0,0-1.8,0-4.7
		C619.1,307.6,626.3,329.9,635.9,347.6z"/>
	<path style="fill:none;stroke:#000000;stroke-miterlimit:10;" d="M614.4,286.1c0,2.9,0,4.7,0,4.7h-1.8c0.6-1.7,1.1-3.4,1.7-5
		C614.3,285.9,614.3,286,614.4,286.1z"/>
	<path style="fill:none;stroke:#000000;stroke-miterlimit:10;" d="M626,428.8c-5.9,9.4-14.7,17.5-23.8,23.2l-0.1-23.3
		c0.9,0.3,1.8,0.6,2.7,0.8l0,0c5.8,1.5,11.8,1.8,17.8,0.3l0,0C623.7,429.5,624.8,429.2,626,428.8z"/>
	<g transform="matrix(.67364 0 0 .87639 -138.76 16.289)">
		<path style="fill:none;stroke:#000000;stroke-miterlimit:10;" d="M1125.3,394c0.2,0,9.3,2.8,10.4,6.1l-0.2,13.5l-4.4-0.3h-8.5
			l-6.6-0.7l0.2-12.3v-0.1C1116.8,396.6,1125.1,394,1125.3,394L1125.3,394z"/>
		<path style="fill:none;stroke:#000000;stroke-miterlimit:10;" d="M1125.3,397.8c0.3,0,5.8,1.9,5.8,2.5l1.4,12.7l-13-0.3l-0.1-12.2
			C1119.5,400.3,1125.1,397.9,1125.3,397.8L1125.3,397.8z"/>
		<path style="fill:none;stroke:#000000;stroke-miterlimit:10;" d="M1113.4,412.7l24.1,1v4.8l-23.7,0.3L1113.4,412.7L1113.4,412.7z"
			/>
	</g>
	<g transform="matrix(.67364 0 0 .87639 -138.76 16.289)">
		<path style="fill:none;stroke:#000000;stroke-miterlimit:10;" d="M939.7,392.8c0.2,0,9.3,2.8,10.4,6.1l-0.2,13.5l-4.4-0.3H937
			l-6.6-0.7l0.2-12.3V399C931.2,395.5,939.5,392.9,939.7,392.8L939.7,392.8z"/>
		<path style="fill:none;stroke:#000000;stroke-miterlimit:10;" d="M939.8,396.7c0.3,0,5.8,1.9,5.8,2.5l1.4,12.7l-13-0.3l-0.1-12.2
			C933.9,399.1,939.5,396.7,939.8,396.7L939.8,396.7z"/>
		<path style="fill:none;stroke:#000000;stroke-miterlimit:10;" d="M927.9,411.5l24.1,1v4.8l-23.7,0.3L927.9,411.5L927.9,411.5z"/>
	</g>
	<path style="fill:none;stroke:#000000;stroke-miterlimit:10;" d="M510.5,354.9v38.5c-5.1-1-9.1-2.5-12.9-4
		c-3.2-1.3-6.3-2.7-9.9-3.8l-2.2,0.1v-30.8c0-0.7,0.3-1.4,0.9-2.1c4,0.8,7.9,1.5,9.5,1.7c3.9,0.4,9.3-0.3,14.1-1.2
		C510.3,353.8,510.5,354.3,510.5,354.9z"/>
	<path style="fill:none;stroke:#000000;stroke-miterlimit:10;" d="M510.5,398.1v30.6c0,0.3,0,0.6-0.1,0.8c-0.4,1.1-1.5,2.1-3.1,2.9
		l0,0c-0.1,0.1-0.3,0.1-0.4,0.2c-2.3,1-5.4,1.6-8.8,1.6c-3.3,0-6.3-0.6-8.6-1.5l0,0c-2.4-1-3.9-2.5-3.9-4.1v-32.9
		C490.8,396.7,501.3,398.3,510.5,398.1z"/>
	<path style="fill:#FFFFFF;stroke:#000000;stroke-miterlimit:10;" d="M519.9,350.6c-1.4,0.6-5.3,1.7-9.9,2.7
		c-4.8,1-10.2,1.7-14.1,1.2c-1.6-0.2-5.5-0.9-9.5-1.7c-4.3-0.8-8.6-1.7-10.3-2.2c9.2-17,16.1-38.1,20.9-58.8h1.7
		C505.4,311.7,511.1,335.7,519.9,350.6z"/>
	<path style="fill:none;stroke:#000000;stroke-miterlimit:10;" d="M498.8,291.8H497c0.2-1,0.5-2,0.7-3
		C498.1,289.8,498.4,290.8,498.8,291.8z"/>
	<path style="fill:none;stroke:#000000;stroke-miterlimit:10;" d="M511.2,455.9c-0.4-0.2-0.8-0.5-1.2-0.7
		c-9.2-5.8-18.1-13.9-24-23.3c1.1,0.4,2.2,0.7,3.3,1l0,0c6.1,1.5,12,1.2,17.8-0.3l0,0c1-0.3,2.1-0.6,3.1-0.9
		c0.2-0.1,0.5-0.1,0.7-0.2L511.2,455.9z"/>
	<path style="fill:#FFFFFF;stroke:#000000;stroke-miterlimit:10;" d="M602.2,452l-0.1-23.3v-1.3c-0.3-0.5-0.5-1.1-0.5-1.6v-51.3
		l-90.4-0.1l-0.3,19.1c2.1,0.4,4.4,0.7,7,0.8V394c0.7-3.9,10.9-6.8,11.2-6.8c0.2,0,11.5,3,12.8,6.6l-0.2,14.8l2.5,0.1v5.2l-29.2,0.3
		l-0.4-6.6l6.3,0.2l-3.1-0.3l0.2-10c-2.2,0.4-4.5,0.6-7,0.6l-0.3,20.7v9.8c0,0.3,0,0.6-0.1,0.8v2c0.2-0.1,0.5-0.1,0.7-0.2l0.2,24.5
		c-0.4-0.2-0.8-0.5-1.2-0.7l-0.3,24h92.6L602.2,452z M538.2,447.9l-5.7-0.1l0.3,4.9l-11.4,0.2l0.3-4.8l-6.3,0.3l0.3-5.3l9.7-0.1
		l-3.8-0.1v-5.2l10.8,0.3l0.1,5.1L527,443l-0.3,4.9h-0.4l4.4-0.1h-3.8l0.2-4.6h11.3L538.2,447.9z M538.3,442.7l-5.7,0.3l0.2-4.8
		l5.7-0.2L538.3,442.7z M569.8,467.5l-29.2,0.3l-0.4-6.6l6.4,0.2l-3.1-0.3l0.2-13.4v-0.1c0.7-3.9,10.9-6.8,11.2-6.8
		c0.2,0,11.5,3,12.8,6.6l-0.2,14.8l2.5,0.1L569.8,467.5z M596.8,413.5l-29.2,0.3l-0.4-6.6l6.4,0.2l-3.1-0.3l0.2-13.4v-0.1
		c0.7-3.9,10.9-6.8,11.2-6.8c0.2,0,11.5,3,12.8,6.6l-0.2,14.8l2.5,0.1L596.8,413.5z"/>
	<path style="fill:none;stroke:#000000;stroke-miterlimit:10;" d="M510.5,428.7c0,0.3,0,0.6-0.1,0.8l0.1-10.7V428.7z"/>
	<path style="fill:none;stroke:#000000;stroke-miterlimit:10;" d="M511.2,455.9c-0.4-0.2-0.8-0.5-1.2-0.7l0.3-23.6
		c0.2-0.1,0.5-0.1,0.7-0.2L511.2,455.9z"/>
	<polygon style="fill:none;stroke:#000000;stroke-miterlimit:10;" points="538.2,447.9 532.5,447.9 532.8,452.7 521.5,452.9 
		521.7,448.1 515.5,448.4 515.7,443.1 525.4,443 521.6,442.9 521.6,437.7 532.4,438 532.5,443.1 527,443 526.7,447.9 526.3,447.9 
		530.7,447.8 526.9,447.8 527.1,443.2 538.4,443.2 	"/>
	<polygon style="fill:none;stroke:#000000;stroke-miterlimit:10;" points="538.5,438 538.3,442.7 532.6,443 532.8,438.3 	"/>
	<path style="fill:none;stroke:#000000;stroke-miterlimit:10;" d="M517.8,397.5c-2.2,0.4-4.5,0.6-7,0.6l0.1-4.7
		c2.1,0.4,4.4,0.7,7,0.8V394c0.7-3.9,10.9-6.8,11.2-6.8c0.2,0,11.5,3,12.8,6.6l-0.2,14.8l2.5,0.1v5.2l-29.2,0.3l-0.4-6.6l6.3,0.2
		l-3.1-0.3V397.5z"/>
	<path style="fill:none;stroke:#000000;stroke-miterlimit:10;" d="M540.2,461.2l6.4,0.2l-3.1-0.3l0.2-13.4v-0.1
		c0.7-3.9,10.9-6.8,11.2-6.8c0.2,0,11.5,3,12.8,6.6l-0.2,14.8l2.5,0.1v5.2l-29.2,0.3L540.2,461.2z"/>
	<path style="fill:none;stroke:#000000;stroke-miterlimit:10;" d="M596.8,413.5l-29.2,0.3l-0.4-6.6l6.4,0.2l-3.1-0.3l0.2-13.4v-0.1
		c0.7-3.9,10.9-6.8,11.2-6.8c0.2,0,11.5,3,12.8,6.6l-0.2,14.8l2.5,0.1L596.8,413.5z"/>
	<path style="fill:none;stroke:#000000;stroke-miterlimit:10;" d="M601.5,374.4l-90.4-0.1l0.1-4.5l90.4-0.6h0.8v5.2l-0.3,50.3v2.6
		c-0.3-0.5-0.5-1.1-0.5-1.6v-51.3H601.5z"/>
	<rect x="509.7" y="479.1" style="fill:none;stroke:#000000;stroke-miterlimit:10;" width="92.6" height="0.2"/>
	<polygon style="fill:none;stroke:#000000;stroke-miterlimit:10;" points="611.8,374.4 602.3,374.4 601.5,374.4 511.1,374.3 
		510.5,374.3 502.8,374.3 510.5,367.3 532.8,347 548.5,347.3 571.6,347.7 584.5,347.9 601.5,364.5 	"/>
	<path style="fill:none;stroke:#000000;stroke-miterlimit:10;" d="M561.3,152.8c0,0,0,1.4,0,3.8V187c0,0.5,0,0.8,0,0.8h-3
		c0,0,0-6.2,0-13.8v-16.8c0-2.7,0-4.4,0-4.4H561.3z"/>
	<g transform="translate(0,124)">
		<path style="fill:none;stroke:#000000;stroke-miterlimit:10;" d="M557,33.5c0,0,16.3-3.6,18-1.2s-3.1,4.2-3.1,4.2s3.8,8.1,1,11.1
			c0.3-5.9-13.5-2.4-15.3-1.4C555.9,47.2,556.3,33.8,557,33.5L557,33.5z"/>
		<path style="fill:none;stroke:#000000;stroke-miterlimit:10;" d="M615.6,47.5c-22,0.6-27.3-6.5-40.9-9.7c-2.9-0.7-2.4-1.7-2.4-1.7
			c-4.2,3.4-3.5,8.1,0,12.1C572.2,48.2,607.2,55.5,615.6,47.5L615.6,47.5z"/>
	</g>
	<path style="fill:none;stroke:#000000;stroke-miterlimit:10;" d="M470.4,474.4L470.4,474.4c9.7,0,17.5,3.1,17.5,7v92
		c0,3.9-7.8,7-17.5,7l0,0c-9.7,0-17.5-3.1-17.5-7v-92C452.9,477.5,460.7,474.4,470.4,474.4z"/>
	<g transform="matrix(.50181 0 0 .50181 34.356 263.64)">
		<path style="fill:none;stroke:#000000;stroke-miterlimit:10;" d="M1011.4,259.5l-0.5,29.4l0,0l-1.6-0.1l-9.3-0.5h-20.7l-10-1
			l-6.2-0.6l0.3-19.9l0.1-6.5v-0.5c1.4-7.8,21.7-13.5,22.2-13.6C986.3,246.3,1008.7,252.3,1011.4,259.5z"/>
		<path style="fill:none;stroke:#000000;stroke-miterlimit:10;" d="M986,254.6c0.6,0.1,14.3,4.1,14.3,5.4l3.5,27.7l-32-0.6
			l-0.2-26.5C971.7,259.9,985.3,254.7,986,254.6L986,254.6z"/>
		<polygon style="fill:none;stroke:#000000;stroke-miterlimit:10;" points="1015.8,289.1 1015.8,299.4 957.6,300 956.7,286.9 
			969.3,287.3 996.5,288.3 1009.4,288.8 1010.9,288.9 		"/>
	</g>
	<g transform="matrix(.50181 0 0 .50181 87.078 263.27)">
		<path style="fill:none;stroke:#000000;stroke-miterlimit:10;" d="M1011.4,259.5l-0.5,29.4l0,0l-1.6-0.1l-9.3-0.5h-20.7l-10-1
			l-6.3-0.6l0.5-26.7v-0.2c1.4-7.8,21.7-13.5,22.2-13.6C986.3,246.3,1008.7,252.3,1011.4,259.5z"/>
		<path style="fill:none;stroke:#000000;stroke-miterlimit:10;" d="M986,254.6c0.6,0.1,14.3,4.1,14.3,5.4l3.5,27.7l-32-0.6
			l-0.2-26.5C971.7,259.9,985.3,254.7,986,254.6L986,254.6z"/>
		<polygon style="fill:none;stroke:#000000;stroke-miterlimit:10;" points="1015.8,289.1 1015.8,299.4 957.6,300 956.7,286.9 
			969.4,287.3 996.5,288.3 1009.4,288.8 1010.9,288.9 		"/>
	</g>
	<g transform="matrix(.50181 0 0 .50181 60.078 317.27)">
		<path style="fill:none;stroke:#000000;stroke-miterlimit:10;" d="M1011.4,259.5l-0.5,29.4l0,0l-1.6-0.1l-9.3-0.5h-20.7l-10-1
			l-6.3-0.6l0.5-26.7v-0.2c1.4-7.8,21.7-13.5,22.2-13.6C986.3,246.3,1008.7,252.3,1011.4,259.5z"/>
		<path style="fill:none;stroke:#000000;stroke-miterlimit:10;" d="M986,254.6c0.6,0.1,14.3,4.1,14.3,5.4l3.5,27.7l-32-0.6
			l-0.2-26.5C971.7,259.9,985.3,254.7,986,254.6L986,254.6z"/>
		<polygon style="fill:none;stroke:#000000;stroke-miterlimit:10;" points="1015.8,289.1 1015.8,299.4 957.6,300 956.7,286.9 
			969.4,287.3 996.5,288.3 1009.4,288.8 1010.9,288.9 		"/>
	</g>
	<path style="fill:none;stroke:#000000;stroke-miterlimit:10;" d="M646.5,474.5L646.5,474.5c9.7,0,17.5,3.1,17.5,7v92
		c0,3.9-7.8,7-17.5,7l0,0c-9.7,0-17.5-3.1-17.5-7v-92C629,477.6,636.8,474.5,646.5,474.5z"/>
	<path style="fill:none;stroke:#000000;stroke-miterlimit:10;" d="M647.4,406.2c8.3,24,13.4,50.6,25.5,73c-4,2.2-19.1,5.8-42.8,2
		c-3-0.5-6.4-1.3-9.4-2.1C632.4,457,638.7,430.1,647.4,406.2L647.4,406.2z"/>
	<path style="fill:none;stroke:#000000;stroke-miterlimit:10;" d="M469.2,406.1c8.3,24,13.4,50.6,25.5,73c-4,2.2-19.1,5.8-42.8,2
		c-3-0.5-6.4-1.3-9.4-2.1C454.2,456.9,460.6,430,469.2,406.1L469.2,406.1z"/>
	<polygon style="fill:none;stroke:#000000;stroke-miterlimit:10;" points="636.1,496.8 629,496.9 487.9,497.4 475.9,497.5 
		487.9,489.2 502.4,479.1 608.9,479.1 629,492.2 	"/>
	<g transform="translate(-90.133 222.9)">
		<path style="fill:none;stroke:#000000;stroke-miterlimit:10;" d="M558.3,152.8h3c0,0,0,6.2,0,13.8v7.3c0,7.6,0,13.8,0,13.8h-3
			c0,0,0-6.2,0-13.8v-7.3C558.3,159,558.3,152.8,558.3,152.8z"/>
		<g transform="translate(0,124)">
			<path style="fill:none;stroke:#000000;stroke-miterlimit:10;" d="M572.2,36.3c0-0.1,0-0.2,0-0.2c-2.9,2.3-3.4,5.3-2.3,8.3
				c-2.5-0.5-5.9,0-8.5,0.6c-1.2,0.3-2.3,0.6-3,0.9c-0.3,0.1-0.5,0.2-0.7,0.3c-1.7,1-1.4-12.3-0.7-12.7c0,0,0.5-0.1,1.4-0.3
				c0.8-0.2,1.8-0.4,3-0.6c5-0.9,12.5-1.9,13.7-0.3C576.5,34.3,573.3,35.9,572.2,36.3z"/>
			<path style="fill:none;stroke:#000000;stroke-miterlimit:10;" d="M600.6,46.5v4.8c-9.2,0.2-19.7-1.4-25-2.4
				c-2.1-0.4-3.4-0.6-3.4-0.6c-1-1.2-1.9-2.5-2.3-3.8l0,0c-1.1-3-0.6-6,2.3-8.3c0,0,0,0.1,0,0.2c0,0.3,0.4,1,2.5,1.5
				c0,0,0.1,0,0.2,0c0.3,0.1,0.6,0.1,0.8,0.2c0.3,0.1,0.6,0.2,0.9,0.2c0.1,0,0.1,0,0.2,0c0.3,0.1,0.7,0.2,1,0.3h0.1
				c3.7,1.1,6.8,2.4,9.9,3.8C591.6,44,595.5,45.5,600.6,46.5z"/>
			<path style="fill:none;stroke:#000000;stroke-miterlimit:10;" d="M615.6,47.5c-0.9,0.8-2.1,1.5-3.5,2c-1.2,0.5-2.6,0.8-4.1,1.1
				c-2.2,0.4-4.5,0.6-7,0.6h-0.3v-4.8c0.1,0,0.2,0.1,0.3,0.1c2.1,0.4,4.4,0.7,7,0.8c1.3,0.1,2.6,0.1,4.1,0.2
				C613.2,47.6,614.4,47.6,615.6,47.5z"/>
		</g>
	</g>
	<path style="fill:none;stroke:#000000;stroke-miterlimit:10;" d="M629.7,497.3l-0.4,39.8l0.4,39.2h-144l2.2-78.6L629.7,497.3
		L629.7,497.3z"/>
	<path style="fill:none;stroke:#000000;stroke-miterlimit:10;" d="M554.9,508.5c-11,4.4-24.1,9.7-28.4,21.8
		c-1,15.2-0.7,30.6-1.2,45.8c19.8,0.1,39.8-0.1,59.4,0c-0.3-15.5,0.4-31-0.5-46.4C579.7,517.9,565.9,512.3,554.9,508.5L554.9,508.5z
		"/>
	<g transform="translate(-380,34)">
		<path style="fill:none;stroke:#000000;stroke-miterlimit:10;" d="M926,466.4l-9.6,4.5l7,10.5c3.1-1.6,5.7-2.8,7.8-3.6L926,466.4z"
			/>
		<path style="fill:none;stroke:#000000;stroke-miterlimit:10;" d="M943.8,466.7l-4.7,10.5l7.7,4.1l6.5-10.1L943.8,466.7z"/>
		<path style="fill:none;stroke:#000000;stroke-miterlimit:10;" d="M929.1,471.3l2.9,6.1c1.3-0.5,3.1-1.1,3.1-1.1l2.5,0.9l3.4-5.8
			L929.1,471.3z"/>
		<path style="fill:none;stroke:#000000;stroke-miterlimit:10;" d="M919,475.3l-8.1,5.8l5.4,4.5l0,0c1.4-1,2.9-2,4.3-2.9
			c0.6-0.4,1.2-0.6,1.8-1L919,475.3L919,475.3z"/>
		<path style="fill:none;stroke:#000000;stroke-miterlimit:10;" d="M950.4,475.5l-3.2,6.1c1,0.5,1.5,0.6,2.6,1.2
			c1.8,1,3.5,2.1,5.2,3.3l4.5-4.8L950.4,475.5L950.4,475.5z"/>
		<path style="fill:none;stroke:#000000;stroke-miterlimit:10;" d="M964.2,477.2l-9.3,9.2c1.5,1.1,5.2,4.3,5.3,4.4l11-4.5
			L964.2,477.2L964.2,477.2z"/>
		<path style="fill:none;stroke:#000000;stroke-miterlimit:10;" d="M905.7,477l-6.6,9.7l11,4.6c0.2-0.3,3.7-3.9,5.5-5.2L905.7,477
			L905.7,477z"/>
		<path style="fill:none;stroke:#000000;stroke-miterlimit:10;" d="M967.2,488.3l-7,2.9c1.9,2.3,3.8,5.2,4.1,8l5.3,0.1L967.2,488.3z
			"/>
		<path style="fill:none;stroke:#000000;stroke-miterlimit:10;" d="M903.2,488.8l-1.7,11h4.7c0.3-2.8,1.5-5.4,3.3-7.7L903.2,488.8
			L903.2,488.8z"/>
		<path style="fill:none;stroke:#000000;stroke-miterlimit:10;" d="M975.3,499.9l-11.5-0.3c0,0.1,0.7,26.5,0.7,26.5h10.4l0.5-9
			l-10.8,0.2v-0.1h4.9l0.3-8.6l-5.8,0.2l0.6-0.6h10.3L975.3,499.9L975.3,499.9z"/>
		<path style="fill:none;stroke:#000000;stroke-miterlimit:10;" d="M895,500l0.4,8.8l10.4-0.5l0.4-8L895,500z"/>
		<path style="fill:none;stroke:#000000;stroke-miterlimit:10;" d="M906.2,509h-5.7l0.6,8.7l4.6,0.1L906.2,509z"/>
		<path style="fill:none;stroke:#000000;stroke-miterlimit:10;" d="M894.9,518.2l0.6,8.5h10.1l0.6-8.5H894.9z"/>
		<path style="fill:none;stroke:#000000;stroke-miterlimit:10;" d="M964.2,526.7l0.4,16.4l11.3,0.1l-0.3-7.7l-11.4-0.1l0.3-0.2h4.9
			l0.5-8.6L964.2,526.7L964.2,526.7z"/>
		<path style="fill:none;stroke:#000000;stroke-miterlimit:10;" d="M900.7,527.2l0.2,8.5h4.5l0.6-8.5H900.7z"/>
		<path style="fill:none;stroke:#000000;stroke-miterlimit:10;" d="M895,536.1l-0.8,7.1h11l0.4-7.2L895,536.1L895,536.1z"/>
	</g>
	<path style="fill:none;stroke:#000000;stroke-miterlimit:10;" d="M556,511.3v67"/>
	<path style="fill:none;stroke:#000000;stroke-miterlimit:10;" d="M600,575.7l-0.2,7.9l-93.1-0.4l-0.1-7L600,575.7L600,575.7z"/>
	<g transform="translate(88.018 223)">
		<path style="fill:none;stroke:#000000;stroke-miterlimit:10;" d="M558.3,152.8h3c0,0,0,6.2,0,13.8v7.3c0,7.6,0,13.8,0,13.8h-3
			c0,0,0-6.2,0-13.8v-7.3C558.3,159,558.3,152.8,558.3,152.8z"/>
		<g transform="translate(0,124)">
			<path style="fill:none;stroke:#000000;stroke-miterlimit:10;" d="M572.2,36.3c0-0.1,0-0.2,0-0.2c-2.9,2.3-3.4,5.3-2.3,8.3
				c-2.5-0.5-5.9,0-8.5,0.6c-1.2,0.3-2.3,0.6-3,0.9c-0.3,0.1-0.5,0.2-0.7,0.3c-1.7,1-1.4-12.3-0.7-12.7c0,0,0.5-0.1,1.4-0.3
				c0.8-0.2,1.8-0.4,3-0.6c5-0.9,12.5-1.9,13.7-0.3C576.5,34.3,573.2,35.9,572.2,36.3z"/>
			<path style="fill:#FFFFFF;stroke:#000000;stroke-miterlimit:10;" d="M615.6,47.5c-8.3,8-43.4,0.7-43.4,0.7
				c-1-1.2-1.8-2.5-2.3-3.8c-1.1-3-0.6-6,2.3-8.3c0,0,0,0.1,0,0.2l0,0c0,0.3,0.4,1,2.5,1.5C588.3,41,593.6,48.1,615.6,47.5z"/>
		</g>
	</g>
	<g transform="translate(53.018 103)">
		<path style="fill:none;stroke:#000000;stroke-miterlimit:10;" d="M561.3,152.8c0,0,0,1.4,0,3.8v26.5c0,2.9,0,4.7,0,4.7h-3
			c0,0,0-6.2,0-13.8v-16.8c0-2.7,0-4.4,0-4.4H561.3z"/>
		<g transform="translate(0,124)">
			<path style="fill:none;stroke:#000000;stroke-miterlimit:10;" d="M557,33.5c0,0,16.3-3.6,18-1.2s-3.1,4.2-3.1,4.2s3.8,8.1,1,11.1
				c0.3-5.9-13.5-2.4-15.3-1.4C555.9,47.2,556.3,33.8,557,33.5L557,33.5z"/>
			<path style="fill:none;stroke:#000000;stroke-miterlimit:10;" d="M615.6,47.5c-22,0.6-27.3-6.5-40.9-9.7
				c-2.9-0.7-2.4-1.7-2.4-1.7c-4.2,3.4-3.5,8.1,0,12.1C572.2,48.2,607.2,55.5,615.6,47.5L615.6,47.5z"/>
		</g>
	</g>
	<g transform="translate(-61.982 104)">
		<path style="fill:none;stroke:#000000;stroke-miterlimit:10;" d="M561.3,152.8c0,0,0,1.4,0,3.8V174c0,7.6,0,13.8,0,13.8h-3
			c0,0,0-6.2,0-13.8v-16.8c0-2.7,0-4.4,0-4.4H561.3z"/>
		<g transform="translate(0,124)">
			<path style="fill:none;stroke:#000000;stroke-miterlimit:10;" d="M557,33.5c0,0,16.3-3.6,18-1.2s-3.1,4.2-3.1,4.2s3.8,8.1,1,11.1
				c0.3-5.9-13.5-2.4-15.3-1.4C555.9,47.2,556.3,33.8,557,33.5L557,33.5z"/>
			<path style="fill:none;stroke:#000000;stroke-miterlimit:10;" d="M615.6,47.5c-22,0.6-27.3-6.5-40.9-9.7
				c-2.9-0.7-2.4-1.7-2.4-1.7c-4.2,3.4-3.5,8.1,0,12.1C572.2,48.2,607.2,55.5,615.6,47.5L615.6,47.5z"/>
		</g>
	</g>
	<g transform="matrix(.87639 0 0 .87639 -398.55 -50.8)">
		<path style="fill:none;stroke:#000000;stroke-miterlimit:10;" d="M1092.4,398.6c0.2,0,9.3,2.8,10.4,6.1l-0.2,13.5l-4.4-0.3h-8.5
			l-6.6-0.7l0.2-12.3v-0.1C1083.9,401.2,1092.2,398.6,1092.4,398.6L1092.4,398.6z"/>
		<path style="fill:none;stroke:#000000;stroke-miterlimit:10;" d="M1092.5,402.4c0.3,0,5.8,1.9,5.8,2.5l1.4,12.7l-13-0.3l-0.1-12.2
			C1086.6,404.8,1092.2,402.4,1092.5,402.4L1092.5,402.4z"/>
		<path style="fill:none;stroke:#000000;stroke-miterlimit:10;" d="M1080.6,417.2l24.1,1v4.8l-23.7,0.3L1080.6,417.2L1080.6,417.2z"
			/>
	</g>
	<g transform="matrix(.41859 0 0 .50181 223.03 382.27)">
		<path style="fill:none;stroke:#000000;stroke-miterlimit:10;" d="M1025.4,246.3c0.5,0.1,22.9,6,25.6,13.2l-0.5,29.4l-10.8-0.6
			H1019l-16.3-1.6l0.5-26.7v-0.2C1004.6,252,1024.9,246.4,1025.4,246.3L1025.4,246.3z"/>
		<path style="fill:none;stroke:#000000;stroke-miterlimit:10;" d="M1025.6,254.6c0.6,0.1,14.3,4.1,14.3,5.4l3.5,27.7l-32-0.6
			l-0.2-26.5C1011.3,259.9,1024.9,254.7,1025.6,254.6L1025.6,254.6z"/>
		<path style="fill:none;stroke:#000000;stroke-miterlimit:10;" d="M996.3,286.9l59.1,2.2v10.3l-58.2,0.6L996.3,286.9L996.3,286.9z"
			/>
	</g>
	<g transform="matrix(.41859 0 0 .50181 33.571 386.27)">
		<path style="fill:none;stroke:#000000;stroke-miterlimit:10;" d="M1025.4,246.3c0.5,0.1,22.9,6,25.6,13.2l-0.5,29.4l-10.8-0.6
			H1019l-16.3-1.6l0.5-26.7v-0.2C1004.6,252,1024.9,246.4,1025.4,246.3L1025.4,246.3z"/>
		<path style="fill:none;stroke:#000000;stroke-miterlimit:10;" d="M1025.6,254.6c0.6,0.1,14.3,4.1,14.3,5.4l3.5,27.7l-32-0.6
			l-0.2-26.5C1011.3,259.9,1024.9,254.7,1025.6,254.6L1025.6,254.6z"/>
		<path style="fill:none;stroke:#000000;stroke-miterlimit:10;" d="M996.3,286.9l59.1,2.2v10.3l-58.2,0.6L996.3,286.9L996.3,286.9z"
			/>
	</g>
	<path style="fill:none;stroke:#000000;stroke-miterlimit:10;" d="M603.6,549.7v5.2l10.9,0.2l-0.1-5.1L603.6,549.7L603.6,549.7z
		 M614.8,550.3l-0.2,4.8l5.7-0.3l0.3-4.7L614.8,550.3L614.8,550.3z M597.7,555.1l-0.3,5.3l11.3-0.5l0.3-4.9L597.7,555.1z
		 M609.1,555.2l-0.2,4.6l11.3,0.1l0.2-4.7L609.1,555.2L609.1,555.2z M603.7,560l-0.3,4.9l11.4-0.2l-0.3-4.9L603.7,560L603.7,560z"/>
	<path style="fill:none;stroke:#000000;stroke-miterlimit:10;" d="M532.5,447.9L532.5,447.9h-1.8l-4.4,0.1l-4.5,0.1v0.1l-0.3,4.8
		l11.4-0.2L532.5,447.9z M527.1,443.2l-0.2,4.6h3.8h1.8l5.7,0.1l0.2-4.7H527.1z M525.4,443l-9.7,0.1l-0.3,5.3l6.3-0.3l4.6-0.2h0.4
		l0.3-4.9l0,0H525.4z M532.8,438.3l-0.2,4.8l5.7-0.3l0.3-4.7L532.8,438.3z M532.4,438l-10.8-0.3v5.2l3.8,0.1h1.7l5.4,0.1L532.4,438z
		"/>
	<line style="fill:none;stroke:#000000;stroke-miterlimit:10;" x1="300.6" y1="562.6" x2="450.6" y2="552.6"/>
	<line style="fill:none;stroke:#000000;stroke-miterlimit:10;" x1="663" y1="544.8" x2="812.6" y2="561.6"/>
</g>
</svg>
