<?xml version="1.0" encoding="utf-8"?>
<!-- Generator: Adobe Illustrator 22.1.0, SVG Export Plug-In . SVG Version: 6.00 Build 0)  -->
<svg version="1.1" id="Layer_1" xmlns="http://www.w3.org/2000/svg" xmlns:xlink="http://www.w3.org/1999/xlink" x="0px" y="0px"
	 viewBox="0 0 184.1 190.6" style="enable-background:new 0 0 184.1 190.6;" xml:space="preserve">
<g>
	<path d="M166.5,22.6c1.3-0.1,2.1,0.2,1.9,1.4C167.1,24.1,166.3,23.8,166.5,22.6z"/>
	<path d="M136.7,23c1.1,0.5-0.4,2.4-1.4,2.4C135.6,24.4,136.3,23.9,136.7,23L136.7,23z"/>
	<path d="M152.6,24.5c1-0.2,1.5,0.1,1.4,1C153,25.6,152.5,25.3,152.6,24.5z"/>
	<path d="M128.1,27.8c1.5-0.4,0.1,3.3-1,3.4C126.8,29.5,127.7,28.9,128.1,27.8z"/>
	<path d="M131,39.8c-0.3,1.5,0.1,3.7-1.4,3.8C129.6,42,129.3,40,131,39.8z"/>
	<path d="M29.7,44.6C28.5,46.2,27.7,43,29.7,44.6z"/>
	<path d="M33,47c-1.4,0.4-1.2-0.7-2.4-0.5c-0.1-0.6,2-1.4,0.5-1.9c0.5-1.3,1.9,0.6,2.4,1l-0.7,0.6C32.8,46.2,33,47,33,47z"/>
	<path d="M34.2,46.5L34,45.6c0.5,0,0.4-0.6,0.5-1c1.4-0.1,1.5,1.1,2.9,1c0,1.4-2.6,2.8-3.8,1.4C33.5,47,34.2,46.5,34.2,46.5z"/>
	<path d="M78.2,50.4C77,51.9,76.2,48.7,78.2,50.4z"/>
	<path d="M130,50.4c0.7-1.7,0.9,0.9,0.5,1C130.2,51.4,129.9,50.7,130,50.4L130,50.4z"/>
	<path d="M80.6,52.8c0.1-1.1,2-0.2,2.9-0.5C83.4,53.4,81.4,52.5,80.6,52.8z"/>
	<path d="M116.1,56.6C114.4,55.4,118.5,55.5,116.1,56.6z"/>
	<path d="M116.1,57.1h1c0.2,1-0.7,0.9-1.4,1C115.7,57.7,116.1,57.6,116.1,57.1z"/>
	<path d="M106,58.6c-0.1,1-1.2,1-2.4,1C104,58.8,105.1,58.8,106,58.6z"/>
	<path d="M164.6,61.4c2.2,0.3,0.4,3.6-0.5,3.8c-1.9-0.5-0.1-1.7-0.5-3.4C164.2,62.5,164.6,62.3,164.6,61.4L164.6,61.4z"/>
	<path d="M101.7,63.4c-0.2,0.6-0.6,1-1.4,1C100.4,63.7,100.9,63.3,101.7,63.4z"/>
	<path d="M99.8,64.8c-0.3,0.6-1,0.9-1.9,1C98,64.9,98.7,64.7,99.8,64.8z"/>
	<path d="M167,67.2c1.5-0.7,1.5,3.1,0,2.4V67.2z"/>
	<path d="M164.1,78.2c0.8-0.1,1,3.1-0.5,2.4C163.4,79.5,164.5,79.6,164.1,78.2z"/>
	<path d="M150.6,78.7c1.9-0.3,0,1.7,0,2.4C149.2,80.7,151.3,79.9,150.6,78.7z"/>
	<path d="M162.2,83.5c1.4,0.5-0.1,2,0,2.9C160.7,85.8,162.7,84.7,162.2,83.5z"/>
	<path d="M57.5,86.9C59.2,88.1,55,88,57.5,86.9z"/>
	<path d="M151.1,88.8c1.2,0.1,0.1,1.6,0,1.9C149.7,90.4,151.6,89.7,151.1,88.8z"/>
	<path d="M89.2,97.9h2.4c-0.5,1.1-0.8,2.4-2.9,1.9v-1.4l0.7,0.2C89.4,98.6,89.2,97.9,89.2,97.9z"/>
	<path d="M113.2,97.9c-0.4,0.8-1.5,1.1-2.9,1C110.9,98.2,112,98,113.2,97.9z"/>
	<path d="M144.9,98.4c1.5,0.8-1,1.5-1,2.4C142.4,100,144.9,99.3,144.9,98.4L144.9,98.4z"/>
	<path d="M80.1,108c1.3,0.4-0.4,2.1-1,1C79.2,108.4,80.1,108.6,80.1,108z"/>
	<path d="M129.5,108c-0.2,0.6-0.6,1-1.4,1C128.3,108.4,128.7,108,129.5,108L129.5,108z"/>
	<path d="M77.7,116.6c1.3-0.3,2.4-0.8,3.4-1.4c1.3-0.2-0.4,2.7,1.4,1.9c-0.8,1.3-4.2,2.3-5.3,0.5l0.7-0.2
		C77.9,117.4,77.7,116.6,77.7,116.6z"/>
	<path d="M126.6,112.3c-0.4,0.7-1.2,1-2.4,1C124.6,112.6,125.4,112.3,126.6,112.3L126.6,112.3z"/>
	<path d="M62.3,115.2h1v1h-1V115.2z"/>
	<path d="M89.2,123.8c1.3,0.2,0.6,1,1.4,2.4c-0.4-0.3-0.8-0.5-1.4-0.5V123.8z"/>
	<path d="M112.2,124.3c-0.1,0.8-0.8,1.1-1.9,1C110.6,124.6,111.3,124.4,112.2,124.3z"/>
	<path d="M93.5,127.2c0.1-0.7,1.2-0.4,1.9-0.5C95.3,127.8,94.2,127.8,93.5,127.2z"/>
	<path d="M88.7,131.5c1,0.1,0.9,1.3,1.9,1.4C90.1,134.2,88.1,133,88.7,131.5z"/>
	<path d="M101.7,132c-0.3,0.6-1,0.9-1.9,1C99.9,132.1,100.6,131.9,101.7,132z"/>
	<path d="M70,132.5c1.2,0.2,0,1.9-1,1.4C69.2,133.3,69.9,133.2,70,132.5z"/>
	<path d="M69.5,161.8c0.8-0.2,0.9,0.4,1,1c-0.4-0.1-0.5,0.2-0.5,0.5C69.4,163.1,69.6,162.3,69.5,161.8L69.5,161.8z"/>
	<path d="M71,164.6c1.3,0.4-0.5,1.7-0.5,2.4C69.2,166.6,71,165.4,71,164.6z"/>
	<path d="M181.8,179.5C184.2,178.3,185.5,181.1,181.8,179.5z"/>
	<path d="M134.8,182.9c0.9,0.7,2.4,0.8,1.9,2.9C135.1,185.7,134.9,184.4,134.8,182.9z"/>
	<path d="M120.4,186.7c-1.5,0.2-1.5-1-1.4-2.4C119.9,184.7,120.2,185.6,120.4,186.7L120.4,186.7z"/>
	<path d="M115.6,186.2c0.8-0.1,1,3.1-0.5,2.4C114.7,187.3,115.8,187.4,115.6,186.2L115.6,186.2z"/>
	<path d="M159.8,74.4c0,1.5-0.2,2.7-1,3.4l-0.8-0.4l-0.2,0.9h-0.5l0.2-0.7l-0.7,0.2c0.3-1.7,0.3-2.2,1-4.3c0.4,0.1,0.5,0.5,1,0.5
		l0.2,0.7L159.8,74.4L159.8,74.4z"/>
	<path d="M156.9,78.2h0.5c-0.2,0.6-0.8,0.8-1,1.4c-0.8,0.2,0-1.8,0.5-1.9V78.2L156.9,78.2z"/>
	<path d="M160.7,2.9c0.8-1.7,2.9-3.2,5.3-1.9c0.4,3.2-2,3.5-2.4,5.8c0.6,0.9,2.1-1.4,1.9-2.9c2.5-0.6,3.6,1.8,2.4,3.4
		c1,1.1,1.6-0.4,2.4,0.5c-0.6,2.9,0.9,3.6,1.4,5.3c-3,1.6-2.7,6-0.5,8.2l-0.9-0.2l-0.6,0.7c-2.4,0.4-4.9-4.3-5.8-1
		c-1.3-1.9-0.8-3.5-1.4-5.3l0.2-0.5l-0.2-0.5c1-0.3,0-2.5-1.4-1.9l-0.5-0.2l-0.5,0.2V12c-0.5-2.4-3-0.3-3.8-1.9
		c-1,0.1-1,1.3-1.4,1.9c-0.9-0.9-3.2-0.4-4.8-0.5l0.2-0.9l-0.7-0.6V9l0.9,0.2l0.6-0.7c1.5-0.4,0.9,1.3,2.4,1
		c0.1-1.3,1.4-1.5,2.4-1.9l0.5,0.2l0.5-0.2c1.8,2.8,1.4-2.6-0.5-1h-0.5v0.5c-1,0-0.6-1.3-1.9-1l0.2-0.7l-0.7-0.2
		c0.3-0.4,0.5-0.8,0.5-1.4c-1.5-0.2-1.3,1.3-2.4,1.4l-0.3-0.8l-0.6-0.6c-1.7-2.6,3.2-4.7,4.3-1.9c1.2,0,0.7-1.9,1.9-1.9
		c2,0.3,2.5,2,2.4,4.3h1l0.5,0.2l0.5-0.2c0.1,0.6,1.4,0.6,1.4,0c-0.8,0.1-0.8-0.5-1.4-0.5l0.2-0.7L160.7,2.9L160.7,2.9z"/>
	<path d="M174.2,29l0.9-0.2c0.1,1.2,0.1,2.3-0.5,2.9c-1.7-0.9-3.1-2-5.8-1.9c-0.8,1.6-1.2,3.6-1.9,5.3c-1.8-0.2-2.7,0.5-3.8,1v1
		l-0.9-0.2l-0.6,0.7c-0.4,0.1-0.5-0.2-0.5-0.5c-1,1.4-1.6,3.2-3.4,3.8c-2.7-1.9-6.3-3-7.2-6.7l-0.2-0.5l-0.2-0.5
		c0.5,0,0.4-0.6,0.5-1h-1c-0.1,0.4-0.5,0.5-0.5,1l-0.7-0.2l-0.2,0.7c-2.8-1.4-4.4-9.4-1.9-11.5c2.3-0.2,2.2,2,4.8,1.4l0.5,0.2
		l0.5-0.2c-0.3,1.1-0.7,2.2-0.5,3.8l-0.9-0.2l-0.6,0.7c-0.8,0-1.2,0.4-1.4,1c1.1-0.7,1.8,1.2,1.9,0l0.7,0.2l0.7-0.2
		c5.5-0.2,8.4-1.5,14.4-1.4v-1l0.7,0.2l0.2-0.7c3.1-0.2,3.1,2.7,6.2,2.4L174.2,29L174.2,29z M164.1,31.2c0.1-0.6,0.9-1.1,0-1.4
		C164,30.3,163.2,30.8,164.1,31.2z M157.8,36c1.3,0.1,1.2-1,1.4-1.9c-0.5-0.4-0.1-1.8-1.4-1.4C158.5,34.2,157.9,34.2,157.8,36z
		 M161.2,34.1c1,0.4,2.2-1.2,1-1.4C162,33.3,161.4,33.4,161.2,34.1z"/>
	<path d="M168.8,53l0.6-0.7c1.1,1.6,1.9,3.6,1.9,6.2l-0.9-0.2l-0.6,0.7c-1.5-1-2.9-4.3-1.9-6.2C167.9,52.8,168.8,53,168.8,53z"/>
	<path d="M170.7,59.3l0.6-0.7c0.5,1.8,1.4,5.1,0.5,6.7l-0.9-0.2l-0.6,0.7c-1.8-0.5-1.5-3-1.9-4.8c1.6,0.5,1.6-0.7,1.4-1.9
		L170.7,59.3L170.7,59.3z"/>
	<path d="M168,80.3l0.9-0.2c-1.9,4.7-4.1,9.2-5.3,13.9c-1.1,4.4-1,7-2.9,9.6c-0.8,1.2-2.5,1.5-3.8,2.9c-2.7,2.8-5.1,6.5-8.2,9.6
		c-4.5,1.4-8.3,5.6-13.4,7.2c-4.7,1.5-10.1,1.1-13,5.3l-0.3-0.8l-0.6-0.6c1.7-3.1,4.3-5.3,9.1-5.3v-1l0.7,0.2l-0.2-0.7h2.4
		c-0.3-1.2-1.8-1.1-2.9-1.4l0.2-0.7l-0.7-0.2c-0.1-1.9,2.4-1.1,3.4-1.9v-1l0.7-0.2l-0.2-0.7h1.9v-1.4l0.7,0.2l0.2-0.7h1l-0.2,1.2
		l1.2-0.2c0.1,0.4,0.5,0.5,0.5,1l-0.7,0.6l0.2,0.9c-0.9,2.3-0.7,1.4,0.5,1.4c-0.5-1.4,0.2-2,0.2-2l-0.2-0.9c1.8,0,3.3-0.2,3.4-1.9
		c-1.2-0.1-1.5-0.9-2.4,0l-0.2-0.7l-0.7-0.2c-0.4,0.1-0.5-0.2-0.5-0.5l0.7-0.2l-0.2-0.7c2.2-0.2,4-1.1,4.8,1
		c0.8,0.1,0.8-0.5,1.4-0.5c0.5-1.8-1.2-1.4-1-2.9h0.5l0.5,0.2l0.5-0.2c0.1,0.4,0.5,0.5,0.5,1c0.8,0.1,0.8-0.5,1.4-0.5l0.6,0.7
		l0.9-0.2c0,0.7-0.1,1.4,0.5,1.4c-0.1-0.4,0.2-0.5,0.5-0.5c-1-1-0.7-1.8-0.7-1.8l-0.7-0.6c0.2-0.9,1-1.2,1-2.4l0.5,0.2l0.5-0.2
		c2-0.2,2.5-2,2.9-3.8c0.7,0.1,0.4,1.2,0.5,1.9c1.5-1.3,1.8-3.6,3.4-4.8v-0.5h-0.5c1.3-2.3,3.2-3.9,3.8-6.7v-0.8l0.5-0.6
		c2.6-2,3.3-6,4.3-9.6h1.9L168,80.3L168,80.3z"/>
	<path d="M111.5,144.9l0.7,0.6c-1.2,2.7-5.1,2.5-8.2,3.4c1.3,6.7,3.8,12.2,6.2,17.8l-0.7,0.6l0.2,0.9c-2.7,0.8-0.8,2.2,0.5,2.9
		c-0.6-1.5,0.8-1.2,1-1.9l0.2-0.7l0.2-0.7c0.7,0.6,2,0.6,2.4,1.4l-0.7,0.2l0.2,0.7c-0.8-0.2-1.6,1.8-0.5,1.9l-0.2,0.5l0.2,0.5
		c0.1,0.5,1,0.3,1,1l-0.2,0.7l0.7-0.2c-0.1,0.6,0.1,0.9,0.5,1c0.6-1.5,1.7,0.5,2.9,0v-1l0.9,0.2l0.6-0.7h2.4l0.5,0.2l0.5-0.2
		c0.5,1.5,1.3-0.6,1.9-0.5l0.7-0.2l0.7,0.2c-0.3,1.7,1.4,1.5,2.9,1.4l0.7,0.2l0.2-0.7c0.4,0.3,0.8,0.5,1.4,0.5l0.5,1.2l0.5-1.2h1.4
		v-1h1.9c0.4,3,2.1-0.1,3.4,1v-0.5l0.9,0.2l0.6-0.7c2.4-0.2,3.3,1.2,3.8,2.9c-6.6,0.1-11,1.5-18.7,0l-0.7,0.2l0.2,0.7h-1.4l-0.2-0.7
		l-0.7,0.2c-0.1-0.7-1.2-0.4-1.9-0.5v1.4l-0.7,0.6l0.2,0.9c-6-2.1-15.2-7.4-21.6-1.9c-0.9,0.1-1-0.6-1.9-0.5c-1.5,0.1-2.1,1.1-3.8,1
		c0.8-2.7,3.6-3.5,4.8-5.8c-5.9-3.6-12.2,1.7-17.8,1l0.2-0.9l-0.7-0.6c1.9-3.2,8.2-2,9.6-5.8c-1-6-3.5-10.6-4.8-16.3
		c-5.2-2-8.7-5.7-15.4-6.2c-1.5-1.7-3.4-3-6.7-2.9c-2.9-2.6-5.3-5.6-9.1-7.2V132c-4.6-1.2-4.6-7.6-7.7-12.5
		c-2.4-3.7-4.8-3.7-3.4-8.2c0.6-0.4,1.3-0.6,2.4-0.5c-1.3-0.9-3.2-1.3-4.3-2.4c-0.3-1.9,0.9-2.3,0.5-4.3h2.4c-1-2-2.5-0.2-3.8-0.5
		c-5.6-1.1-9.4-5.5-10.6-11.5c-3.8-1.2-9.4-3.1-8.2-7.7c-0.8-1.7-3-2.1-3.8-3.8c3.7-8.9-6.5-9.5-9.1-14.9c0.6-1.5,1.7-2.5,2.4-3.8
		l0.6,0.7l0.9-0.2c1.4,6.1,10.7,7,16.8,9.1c2.2,0.8,4.5,2.2,7.7,2.9l-0.7,0.2l0.2,0.7c-1.7,0.7-5.2,0.9-5.8-1
		c-1.1-0.1-0.5,1.4-1.4,1.4c1.4,1.9,3.4,3.3,7.2,2.9c-1.9,1.6,0.5,4.5-1.4,5.8c0.6,0.9,2.5,0.4,3.4,1l-0.2,0.9l0.7,0.6
		c0.1,0.4-0.2,0.5-0.5,0.5c0.4,1.4,1.2-0.6,2.4,0c0.2,1.5-1.3,1.3-1.4,2.4c2.2,0.4,2.3-1.2,4.3-1c-0.3,0.4-0.5,0.8-0.5,1.4
		c1.2,0.3,3.1-2.4,3.4,0L45.3,91l0.2,0.7c-1.2-0.2-1,0.9-2.4,0.5c-0.1,0.4,0.2,0.5,0.5,0.5l-0.2,0.5l0.2,0.5v1l-0.7,0.2l0.7,0.2
		c-0.1,0.5-1,0.3-1,1c1.6,1.6,3.5-0.7,5.3-0.5c-1.5,1.1-0.6,2.8,1.4,2.9l-0.2,0.9l0.7,0.6v0.5l-0.7,0.2l0.2,0.7
		c-0.9,0.1-2.4-0.5-1.9,1l0.2,0.2l0.2,0.2c-0.4-0.1-0.5,0.2-0.5,0.5c-0.1,0.4,0.2,0.5,0.5,0.5l-0.2,0.7l0.7-0.2v1l-0.7,0.2l0.7,0.2
		c-0.7,0.7-1.9,0.9-1.4,2.9c2.1,0.3,2.1-1.4,3.8-1.4c1,1-0.1,1.9-0.5,2.9h1l-0.2,0.7l0.7,0.2c-0.1,1.1-1.7,0.9-1.4,2.4l-0.2,0.7
		l0.7-0.2c0.1,0.8-0.5,0.8-0.5,1.4h1l0.6,0.6l0.8,0.3c-1.1,1,0.4,1.6-0.5,2.4c0.9,0.9,2-2.1,3.4-2.4l0.2,0.7l0.7,0.2
		c-0.3,1.1,0.6,3.5-0.5,3.8c1.1,0.7,2.1,1.4,3.8,1.4l-0.2,0.5l0.2,0.5c0,1-1.3,0.6-1,1.9h1l-0.2,0.7l0.7-0.2
		c-1.3,2.2,1.3,2.5-0.5,3.8c0.1,1.1,1.3-0.5,1.4-1c0.9,0.4,0.1,0.9,0,1.4c1.8-0.5,3.8-0.1,5.3-3.4c1.1,0.2-0.3,2.8,1.9,1.9l-0.2,0.7
		l0.7-0.2c3.2,0-0.8,2.3-1.9,2.4c0.2,1.5-0.7,1.9-1,2.9c1.9-0.6,1.3-0.1,1,1.4c1.4-0.4,1.2,0.7,2.4,0.5c1.3-2.4,3.8-3.5,3.8-7.2
		c-0.3-1-2.9,0.3-2.4-1.4h1v-1c1.4-0.4,1.2,0.7,2.4,0.5l-0.2,0.7l0.7-0.2h1l-0.2,0.9l0.7,0.6c0.1,0.8-1.5,2.6,0.5,2.4
		c-1.3,2.1-2.8,3.9-2.9,7.2c0.4-0.2,0.9-0.4,1-1l0.5,0.2l0.5-0.2h0.5l0.5,0.2l0.5-0.2c-0.1,1.7-1.4,2.1-1.4,3.8
		c1.9,0.3,1.2-2,2.4-2.4l0.2,0.7l0.7-0.2c1.7-1.5,2.5-3.9,3.4-6.2c0.9,0.7,0.8,2.4,2.4,2.4c-0.5,1.8-1.7,2.8-1.4,5.3
		c1,1.6,4.2,3,5.3,0.5l0.7,0.2l0.7,0.2c2.9,0.9,2.3-1.8,3.8-2.4l0.6,0.7l0.9-0.2c0,2.7-0.5,3.6,0,5.3c1-1.3,0.9-1.4,2.9-1
		c-0.1,1.2-0.9,1.5,0,2.4c0.7-1.6,0.9-1.4,2.9-1v-1.4l0.7,0.2l0.2-0.7c0.4,0.4,0.7,0.9,1,1.4c0.4,0.1,0.5-0.2,0.5-0.5l0.5,0.2
		l0.5-0.2h0.5l-0.2,0.7l0.7-0.2c1.4,1.3,3.9-0.3,4.8-1l0.7,0.2l-0.2-0.7h1L111.5,144.9L111.5,144.9z M32.1,86.4
		C29.8,85.1,30.9,88,32.1,86.4z M95.9,150.2c-1.7,0-2.6-2.4-3.8-1.4c1.4,9,2,18.8,11,20.2C102.1,161.3,98.2,156.6,95.9,150.2
		L95.9,150.2z M101.2,172.8c0.9-0.1,2.4,0.5,1.9-1C102,171.7,101.3,172,101.2,172.8z"/>
	<path d="M116.3,169.7l-0.2-0.7c3.2-0.5,6.9-1.1,7.2,2.4l-0.7,0.2l-0.7,0.2c-1.4,0.4-1.2-0.7-2.4-0.5l-0.5-0.2l-0.5,0.2
		c-0.1-0.6-0.9-0.4-1.4-0.5l-0.4-0.9h-1C115.6,169.9,116.3,169.7,116.3,169.7z"/>
	<path d="M136.7,172.3l-0.9-0.4c1.3-0.8,1.4-2.7,2.9-3.4l0.5,0.2l0.5-0.2c0,1,1.3,0.6,1,1.9c-0.6,0.5-1.4,0.8-1.9,1.4l-1.2,0.2
		l0.2,1.2h-1L136.7,172.3L136.7,172.3z"/>
	<path d="M13.1,61l-0.7-0.6V59l0.2-0.7l-0.2-0.7c3.8,1.7,7.3,3.6,11.5,4.8L23.2,63l0.2,0.9c-1.7,0.8-2.6-0.5-3.8,1
		c-2.5-0.7-4.2-2.2-6.7-2.9C12.9,61.9,13.1,61,13.1,61z"/>
	<path d="M10.1,57l-0.6,0.6c-2.8-0.7-4.8-2.3-4.8-5.8L5.6,52l0.6-0.7c1.4,2,3.4,3.3,4.8,5.3L10.1,57z"/>
	<path d="M24.6,63.3l-0.2-0.9c0.7,0.3,2.5-0.6,2.4,0.5L26,63.4l0.8,0.5c-0.1,0.8,0.5,0.8,0.5,1.4l-0.7,0.6l0.2,0.9
		c-1.7-0.1-1.7-1.8-3.8-1.4c-0.3-1.1,0.9-0.7,1-1.4C23.9,63.8,24.6,63.3,24.6,63.3z"/>
	<path d="M29,64.2l-0.2-0.9c3,0.5,5.5,1.6,6.2,4.3c-0.8-0.7-1.1-0.4-1,1c-2,0.2-3.1-0.4-4.3-1l0.2-0.9l-0.7-0.6
		c-0.2-0.6-0.8-0.8-1-1.4C28.2,64.8,29,64.2,29,64.2z"/>
	<path d="M44.3,75.8l-0.2-0.9c0.4-0.1,0.5-0.5,1-0.5l1,0.6l0.4-1.1h1.4l-0.2,0.7l0.7,0.2c-0.7,1-4.3,3.4-4.8,1.4
		C43.6,76.3,44.3,75.8,44.3,75.8z"/>
	<path d="M44.6,72.2L44.1,73c-0.7-0.4-1.5-0.7-1.4-1.9l1.2-0.2l-0.2-1.2h1l-0.2,0.7l0.7,0.2c0.6,0.6,1.4,0.9,0.5,1.9
		C45.5,72.5,44.6,72.2,44.6,72.2z"/>
	<path d="M43,67l-0.9,0.2c-0.2-1,0.3-1.3,0.5-1.9c-0.4-1.7-3.5-0.7-3.8-2.4l0.2-0.5l-0.2-0.5c3.3,1,7.6,0.3,10.1-1v-1l0.9,0.2
		l0.6-0.7c1.4,0.5,2,0.5,3.4,0l-0.2,0.7l0.7-0.2v0.5L53.4,61l0.2,0.9c-1,1.2-3.8,0.7-4.3,2.4l-0.7-0.2l0.2,0.7c0,1,1.3,0.6,1,1.9
		c-3,0.4-3.7,0.1-6.2,1L43,67z"/>
	<path d="M53.8,99l-0.7-0.6c0-0.5,0.6-0.4,1-0.5L54,98.8l0.7,0.6c0,0.5-0.6,0.4-1,0.5C53.7,99.8,53.8,99,53.8,99z"/>
	<path d="M55.3,98.5l-0.7-0.6c0.7-0.9,2.1-1.1,2.9-1.9l0.7,0.2l0.2-0.7c1.2,1.1,2.6,1.8,4.8,1.9L63,98.2l0.2,0.7v1.4L63,101l0.7-0.2
		v1l-0.7,0.6l0.2,0.9c-0.4,0.4-1.3,0.3-1.4,1c-0.4-1.8-3.1-3-2.4-4.3l0.2-0.7L59,99.4v-0.5c-0.6-1.1-2.6,0.6-3.8,0.5
		C55.1,99.4,55.3,98.5,55.3,98.5z"/>
	<path d="M58.2,93.4l-0.7,0.2c-1.4-2.2-5.7-3.7-5.3-6.2l0.7-0.2l0.7,0.2c1.2,0.2,1.7,1.2,2.4,1.9l0.2,0.7l0.7-0.2
		c0,0.5,0.6,0.4,1,0.5l0.5,0.2l0.5-0.2c-0.4,2.5,2.3-1.1,1.9,1.4l-0.2,0.7l0.2,0.7c-1.5-0.4-1.5,0.8-2.4,1
		C58.5,94.1,58.2,93.4,58.2,93.4z"/>
	<path d="M71.7,102.8l-0.7-0.6c1.2,0,2.1-1.4,3.4-1.4c0.7,0,1.4,1,1.4,1c1.5-0.2,0.4-2.1,2.4-0.5v0.5h0.5c-0.1,0.4-0.5,0.5-0.5,1
		l-1.1-0.2l0.2,1.1h-5.8L71.7,102.8z"/>
	<path d="M96.6,104.6l-0.2-0.9c1.5-1.3,5-0.8,6.7-1.9l-0.2,0.7l0.7,0.2c0.1,0.7,1.2,0.4,1.9,0.5l-0.2,0.9l0.7,0.6
		c-3.6,1.9-6.4,1.5-10.1,0.5L96.6,104.6L96.6,104.6z"/>
	<path d="M49.8,105.1h-0.5c1.2-1.4,2.8,0.2,0.5,0.5V105.1L49.8,105.1z"/>
	<path d="M76.5,128.2l-0.7-0.6c0.7-2.7,2.8-2.4,4.3-3.4l0.2,0.7l0.2-0.7c2,0.7-0.9,2.7,0,5.3l-0.7-0.2l-0.2,0.7
		c-0.8-0.6-1.6-1.3-3.4-1L76.5,128.2L76.5,128.2z"/>
	<path d="M89.4,140.9l-0.7,0.2c0-1.2-1.9-0.7-1.9-1.9l0.7-0.2l-0.2-0.7c0.7-3,2.4-2,5.3-2.4c0.1,2.7-0.8,4.3-2.4,5.3L89.4,140.9z"/>
	<path d="M159.8,86.6l-0.5-0.2h-0.5l0.2-1.3l-1.2-0.6c0.1-0.6-0.1-0.9-0.5-1V83h-0.5c0.6-0.7,0.6-2,1.4-2.4l0.5,0.2l0.5-0.2v0.5
		c0.1,0.6,1,0.5,1,0c0.2,1.3,0.7,4,0,5.8L159.8,86.6L159.8,86.6z"/>
	<path d="M151.6,19.4l-0.5,0.7c-1.3,0.1-2.1-0.2-1.9-1.4c2.1,0.8,6.7-3.6,9.1-1l-0.2,0.7l0.2,0.7c-0.5,0-0.4,0.6-0.5,1l-0.7,0.6
		l0.2,0.9c-3.1,1.1-3.1-0.7-5.3-1.4L151.6,19.4L151.6,19.4z"/>
	<path d="M121.3,34.2l1-0.1c-0.4,2.2-2.6,2.6-1.9,5.8c-1.7,1.8-4.8,3.8-4.3,6.2c-2.7-0.1-3.8,3.7-6.2,2.4l0.2-0.9l-0.7-0.6
		c5.2-2.9,7.5-8.8,11-13.4L121.3,34.2L121.3,34.2z"/>
	<path d="M66.4,45.8l0.2,0.7c-0.1,1-2.1,0.1-2.4,1L64,46.8l-0.2,0.7c-0.4,0.1-0.5-0.2-0.5-0.5c-1.9-0.1-3.5,0-4.8,0.5l0.2-0.7
		L58,46.6c-0.1-0.4,0.2-0.5,0.5-0.5c-2.2-0.4-4.9-0.2-8.2-0.5c0.2-2.7,1.4-2.7-0.5-4.3l0.8-0.3l0.6-0.6C56.3,42,61,44,66.6,45.1
		L66.4,45.8z"/>
	<path d="M53.4,53.5l-0.2-0.7c0-0.5,0.6-0.4,1-0.5l-0.1,1l1-0.1c0.3-0.4,2.9-1.3,2.4,0.5c-1.3,0-3-0.4-2.4,1.4
		c-0.7-0.7-2.7-0.1-2.4-1.9C52.7,53.3,53.4,53.5,53.4,53.5z"/>
	<path d="M49.5,40.2l-0.6,0.6c-1.2-0.2-1,0.9-2.4,0.5c0.3-1.9,0.3-1.4,0-3.4l0.5,0.2l0.5-0.2c0.9,0.7,2.5,0.7,2.9,1.9
		C50.3,39.8,49.5,40.2,49.5,40.2z"/>
	<path d="M149.8,7.9l-0.6,0.7c-0.6-0.2-0.8-0.8-1.4-1c0.6-1,0.8-2.4,2.4-2.4l0.6,0.7l0.4,0.8c-0.3,0.4-0.5,0.8-0.5,1.4L149.8,7.9z"
		/>
	<path d="M18.2,20.6c-1.7-0.5-1.6-2.9-3.8-2.9l0.2-0.9l-0.7-0.6c0.7-2.6,2.2-4.5,5.3-4.8L18.9,12l0.2,0.5c-2.7,0.6-2.3,5.9-0.5,7.2
		l-0.4,0.4V20.6z"/>
	<path d="M5,27.8l0.7,0.6c-1,1.8,0.1,2.7,1,3.8L6,32.4l0.2,0.7c-2.3-0.6-5-0.8-5.8-2.9c-0.5-1.6,1.5-0.7,2.4-1
		c-0.1-0.4-0.5-0.5-0.5-1L3,27.8l-0.2-0.9h2.4L5,27.8z"/>
	<path d="M9.8,41.2l-0.2-0.9c0.8,0.1,0.8-0.5,1.4-0.5v0.5h0.5v0.5c0.7,0.7,1.9,1,3.4,1c1.2-0.9,1.5-2.7,3.4-2.9c0.1,0.5,1,0.3,1,1
		h-0.5v0.5h-1c-0.3,1.1,0.9,0.7,1,1.4h-0.5v0.5h-1c0.9,0.7,2.1,1.1,3.4,1.4c-1.2,0.9-0.5,0.6-0.5,2.4c1-0.2,0.9-1.8,2.9-0.5
		l-0.2,0.7L23,47c-1.7,1.8-0.2,3,0.5,4.8l-0.9-0.2L22,52.3c-2.9,0.7-1.8-2.7-3.8-2.9c-1.4,0.4-0.5,0.7-0.5,1.9
		c-4.8-1.3-8.5-3.7-13-5.3c0.1-2.8,3.3-2.5,6.2-2.4c-0.2-1.1-1.5-1.1-1.9-1.9C9,41.8,9.8,41.2,9.8,41.2z"/>
	<path d="M23.9,54.2l0.5-1c2.2,1.3,4,3.1,5.8,4.8l-0.7,0.2L29.2,59c-2.2-0.1-3.3-1.2-5.3-1.4c2.3-1.2-1-1.5-2.4-1.9
		c1.6-1,0.3-1,0-2.4c0.4,0.1,0.5,0.5,1,0.5H23C23,53.8,23.9,54.2,23.9,54.2z"/>
	<path d="M7.4,39.8l-0.2,1c-0.6,0.1-0.9-0.1-1-0.5L7,39.8l0.1-1h0.5C7.6,38.9,7.4,39.8,7.4,39.8z"/>
	<path d="M5,39l0.2,0.9c-2.5-0.2-2.8-2.7-4.3-3.8c1.3-0.8,2.4,0.2,3.8-1l-0.2,0.7L5.2,36c-0.1,0.4,0.2,0.5,0.5,0.5l-0.2,0.7l0.7,0.2
		c-0.1,0.4-0.5,0.5-0.5,1L5,39z"/>
	<path d="M27.3,25.9c0.6,0.7,1.4,1.2,1.4,2.4C27.8,28,27.4,27,27.3,25.9z"/>
	<path d="M131.9,26.4C133.4,23.2,130.7,30.2,131.9,26.4z"/>
	<path d="M141,70.1c1.6,0.5-0.5,0.9-0.5,1.4C139.2,71.3,141.3,70.8,141,70.1z"/>
	<path d="M139.6,72c-0.6,1-1.6,1.6-2.9,1.9C137.4,73,138.3,72.3,139.6,72z"/>
	<path d="M155,81.1c1.1,0.4-0.8,1.7-1,2.4C152.5,82.7,155,82,155,81.1z"/>
	<path d="M120.4,84c2.1,1.3-2,0.5-1.9,1.4C116.8,84.5,120.3,84.8,120.4,84z"/>
	<path d="M94.5,98.9c0.7-1.4,0.4,1.1-1,0.5C92.6,99,93.8,98.8,94.5,98.9z"/>
	<path d="M71,100.8c-0.1,0.7-1.4,0.2-1.4,1C68.3,101.6,70,100.4,71,100.8z"/>
	<path d="M119.9,105.1c0.7,0.2,0,0.8-0.5,1c-0.1,0.6,0.1,0.9,0.5,1c-0.2,1.2-1.9,0-1.4-1C118.9,105.7,119.8,105.8,119.9,105.1z"/>
	<path d="M74.8,110.9c0.3-0.4,0.6-0.9,0-1c0.6-1.5,2.4-1.6,3.8-1c-0.2,1-3.5,1.2-2.4,1.9C76,111.6,75.6,110.7,74.8,110.9z"/>
	<path d="M70,130.6C71.8,131.2,67.4,134.5,70,130.6z"/>
	<path d="M54.6,177.1c1.8,2.2,3.7,2.9,3.4,6.2c-2.5,2.2-6.6,0.7-8.6,0.5c1.1-3.3-3.6-3.4-4.8-5.8l0.7-0.2l-0.2-0.7
		c0.8-2.7,3,1.5,3.8,0l0.7-0.2l0.2-0.7c1.2,0.9,2.8,1.4,3.8,2.4v-1l0.7,0.2L54.6,177.1L54.6,177.1z"/>
	<path d="M37.1,175.9l-0.2,0.7c-2.1-0.6-5.2-2.3-4.3-4.3c2.8-0.3,2.5,2.6,4.8,2.9C37.4,175.2,37.1,175.9,37.1,175.9z"/>
	<path d="M131,183.8v-1c1.5,0.3,0.9,0.3,2.4,0c0.2,2.5,2.7,4.8,1,7.7c-1.6,0.2-2.7-0.2-3.8-0.5v-1.9c1.7-0.3,0.3-1.5,1-3.4l0.2-0.7
		L131,183.8L131,183.8z"/>
	<path d="M65.7,174.2v0.5c0.2,0.7,0.8,0,1-0.5c1-0.1,0.2,1.7,0.5,2.4c1-0.5,1.9-1,2.9-1.4l0.2,0.7l0.2-0.7c0.8,0.1,0.8-0.5,1.4-0.5
		v0.5h0.5c0.7,0,1.4-0.1,1.4,0.5l-0.2,0.7l0.2,0.7c-1.9,1.9,1.4,2.7,2.4,3.4c-0.8,0-1.2,0.4-1.4,1l-0.9-0.2l-0.6,0.7
		c-0.4-0.2-0.9-0.4-1-1c-1.3,0.6-3,0.9-3.4,2.4c-2.4-1.4-2.2,0.1-5.3,0l0.2-0.9l-0.7-0.6c-0.1-0.4,0.2-0.5,0.5-0.5
		c-1.4-1.8-0.1-6.3-2.9-6.7c-0.7,0.2,0.2,0.6,0,1.4c-1.4-0.2-2.2-1-2.4-2.4l0.7-0.2l-0.2-0.7c1,0.2,0.9-0.7,1-1.4l0.7-0.2l-0.2-0.7
		h1l0.5,1l0.5-1c0.4,0.3,0.8,0.5,1.4,0.5l-0.2,0.9l0.7,0.6v1.4h1l-0.2,0.7L65.7,174.2L65.7,174.2z"/>
	<path d="M74.6,176.6l-0.2-0.9c2.4,0,4,0.8,5.3,1.9c1.2-1.4,6.3-2.6,6.7,0.5c0.4,0.1,0.5-0.2,0.5-0.5l0.7,0.2l0.2-0.7
		c0.9,0.2,0.4,1.9,1.9,1.4l0.7,0.2l0.7,0.2c-0.4,0.4-0.3,1.3-1,1.4c0.1,1.5,2.5,0.7,2.9,1.9l-0.7,0.2l0.2,0.7
		c-1.8-0.2-2.2,1-2.9,1.9l-0.7,0.2l0.2,0.7c-3.1-1-4.3-0.9-7.7-1.4c0.3-2.1-1.6-1.9-3.4-1.9l0.2-0.9l-0.7-0.6v-1
		c-1.2-1.2-2.9-1.9-3.8-3.4L74.6,176.6L74.6,176.6z"/>
	<path d="M154.5,165.6c-1.3-1.3,0.6-1.8,1-2.9c1.5-0.7,1.2,2.9,0.5,2.9l-0.7-0.2L154.5,165.6z"/>
	<path d="M154.5,169.7l0.5,0.2c1.3,1.1-0.2,3.6-0.5,4.8h1l0.5,0.2l0.5-0.2c0,1.1-0.8,1.4-0.5,2.9l-0.7,0.2l0.2,0.7
		c-0.5,0.9-2.2,0.7-2.9,1.4l-0.5-0.2l-0.5,0.2c0.1-1.4-0.1-2.4-1-2.9l0.2-0.9l-0.7-0.6v-5.3c0.6,0.2,0.8,0.8,1.4,1v-1l0.9,0.2
		l0.6-0.7c0.6,0.1,0.9-0.1,1-0.5L154.5,169.7L154.5,169.7z"/>
	<path d="M164,167.8l-0.9,0.2c0.6-2,1.4-3.7,3.8-3.8c0,0.5,0.6,0.4,1,0.5c0.6,3-2.5,2.3-3.4,3.8L164,167.8L164,167.8z"/>
	<path d="M159.5,182.3l-0.2-0.9c1,0.2,1.5-0.1,1.4-1l0.9,0.2l0.6-0.7c1.7,1.3,3.9,0.9,6.2,0.5l-0.2,0.7l0.7,0.2v2.9l0.2,0.5l0.2,0.5
		h-0.5c-0.1,0.9,0.6,1,0.5,1.9c-2.1-0.8-3.6-0.9-5.8-1c-0.5,0-1.6-0.9-1.4-1c-1.6,0.4-1.1,2.8-3.4,2.4l-0.6-0.6l-0.8-0.3
		c0.6-1.2,2.7-2.3,1.4-3.8L159.5,182.3L159.5,182.3z"/>
	<path d="M175.4,175.4l-0.7-0.2v-1.4c2,1.2,3-0.2,4.3-1c-0.1,1.8,2.2,2.8,1,4.3l-0.5-0.2l-0.5,0.2c-0.4,0.1-0.5,0.5-1,0.5l-0.6-0.7
		l-0.9,0.2c-0.2-0.6-0.6-1-1.4-1L175.4,175.4L175.4,175.4z"/>
	<path d="M180.6,179.3l-0.2-0.7c1.5,0.6,1.3,2.9,1.9,4.3h-1.9c1,1.5-0.1,3.3-2.9,3.4l0.2-0.7l-0.7-0.2c-0.9-2.2,3.5-2.8,2.9-6.2
		L180.6,179.3z"/>
	<path d="M175.4,183.1l-1.2,0.2L175.4,183.1l-0.2-1.2h0.5L175.4,183.1L175.4,183.1z"/>
	<path d="M173.9,182.2l0.2,1.2c-0.8,0.5-2.7,2.4-3.4,1.4l0.2-0.7l-0.7-0.2c0.3-1.3,1.4-1.8,1.9-2.9l0.7-0.2l-0.2-0.7
		c0.4-0.3,0.8-0.5,1.4-0.5l0.6,0.7l0.9-0.2c0.1,0.9-0.6,1-0.5,1.9L173.9,182.2L173.9,182.2z"/>
	<path d="M156.2,182.3l0.7,0.6c0.1,1.1-1.4,0.5-1.4,1.4v0.5l-0.7,0.2l0.7,0.2c-2,1-4.2,6.6-6.7,3.8l0.7-0.2l-0.2-0.7
		c0.8,0.1,1.7-1.9,0-1.4v0.5l-0.7,0.2l0.2,0.7c-1,0.3-1.4,1.2-2.9,1c0.3-0.4,0.5-0.8,0.5-1.4c-0.4-1.1-1.2,1.3-2.9,0.5
		c-0.1-0.9,0.6-1,0.5-1.9h-0.5l0.2-0.7l-0.7-0.2c0.1-1.2,0.3-2.3,1-2.9l0.6,0.7l0.9-0.2c0.2,1.1,2.5,0.4,2.9,0
		c-0.4-1.4-0.7-0.5-1.9-0.5c0.4-0.8,1.2-1.4,1.4-2.4c1.5,0.1,2.1,1.1,3.8,1l0.2,0.7l0.2-0.7c0.8,0.8,2.8,0.4,4.3,0.5L156.2,182.3
		L156.2,182.3z"/>
	<path d="M104.6,178.1c2.1-0.5,2.4,0.8,3.8,1c0.4,1.4-0.7,1.2-0.5,2.4c0.8,1.5,1.8-1.7,2.9,0c-0.2,1.8-1.6,2.6-1.9,4.3
		C101.9,189.3,105.8,180.5,104.6,178.1L104.6,178.1z"/>
	<g>
		<path style="fill:none;stroke:#000000;stroke-width:0.6788;stroke-linecap:round;" d="M139.1,18.2c0.1-0.3,0.4-0.6,0.7-0.7"/>
		<path style="fill:none;stroke:#000000;stroke-width:0.6997;stroke-linecap:round;" d="M129,38.9c0.2-1.7,0.8-3.5,1.7-5"/>
		<path style="fill:none;stroke:#000000;stroke-width:0.8946;stroke-linecap:round;" d="M124.7,48.7c0.6-1.2,0.3-2.7,1.2-3.8"/>
		<path style="fill:none;stroke:#000000;stroke-width:1.4924;stroke-linecap:round;" d="M32.8,46.2c0.5,0.1,1,0.2,1.4,0.3"/>
		<path style="fill:none;stroke:#000000;stroke-width:1.0733;stroke-linecap:round;" d="M160.7,51.6c0.4-0.9-0.1-1.9-0.2-2.9"/>
		<path style="fill:none;stroke:#000000;stroke-width:0.5879;stroke-linecap:round;" d="M131.7,51.6v-1"/>
		<path style="fill:none;stroke:#000000;stroke-width:0.6017;stroke-linecap:round;" d="M73.1,51.6h1.4"/>
		<path style="fill:none;stroke:#000000;stroke-width:0.6409;stroke-linecap:round;" d="M150.9,57.8c1-1.1,2.6-1.6,3.4-2.9"/>
		<path style="fill:none;stroke:#000000;stroke-width:0.712;stroke-linecap:round;" d="M161.4,58.3c0.1-0.4,0.3-0.7,0.5-1"/>
		<path style="fill:none;stroke:#000000;stroke-width:0.9529;stroke-linecap:round;" d="M72.6,58.8c1.2-1,2.6-1.5,3.8-2.4"/>
		<path style="fill:none;stroke:#000000;stroke-width:0.5944;stroke-linecap:round;" d="M84.6,58.3c1-0.1,1.8-0.7,2.9-0.5"/>
		<path style="fill:none;stroke:#000000;stroke-width:0.6368;stroke-linecap:round;" d="M136.5,62.2c0.3-1.7,1.9-2.8,2.4-4.3"/>
		<path style="fill:none;stroke:#000000;stroke-width:0.9267;stroke-linecap:round;" d="M158.1,61.7c0.6-0.8,0.5-1.9,1.2-2.6"/>
		<path style="fill:none;stroke:#000000;stroke-width:0.8851;stroke-linecap:round;" d="M148.5,61c0.3-0.2,0.7-0.5,1-0.7"/>
		<path style="fill:none;stroke:#000000;stroke-width:0.774;stroke-linecap:round;" d="M160,64.1c0.3-0.3,0.5-0.4,0.7-0.6
			c1.1,1.6,0.7,4.1-0.7,5.4"/>
		<path style="fill:none;stroke:#000000;stroke-width:0.96;stroke-linecap:round;" d="M57.3,73.2c0.6-0.2,1.1,0,1.9,0"/>
		<path style="fill:none;stroke:#000000;stroke-width:0.9844;stroke-linecap:round;" d="M57.3,73.2l-0.2,0.5
			c0.2,2.9,3.1,4.8,5.9,4.3"/>
		<path style="fill:none;stroke:#000000;stroke-width:0.7772;stroke-linecap:round;" d="M57.3,73.2c-3.2-1.4-6.5-5.2-3.6-8.4"/>
		<path style="fill:none;stroke:#000000;stroke-width:1.3637;stroke-linecap:round;" d="M68.3,71.3c1.4-0.4,2.4-1.2,3.4-2.4"/>
		<path style="fill:none;stroke:#000000;stroke-width:0.9161;stroke-linecap:round;" d="M164.8,73.2c0.1-1.1,0.3-2.2,0.2-3.4"/>
		<path style="fill:none;stroke:#000000;stroke-width:0.6017;stroke-linecap:round;" d="M135.5,72.7c0.5,0,0.7-0.2,1-0.5"/>
		<path style="fill:none;stroke:#000000;stroke-width:0.7807;stroke-linecap:round;" d="M103.8,84.7c-1.2-2.3-1.2-5-0.2-7.4"/>
		<path style="fill:none;stroke:#000000;stroke-width:0.9759;stroke-linecap:round;" d="M98.1,91c0.2-1.3,0.5-2.6,0.7-3.8"/>
		<path style="fill:none;stroke:#000000;stroke-width:0.9191;stroke-linecap:round;" d="M98.1,91c0.4,0.9,0.6,1.9,1.3,2.6"/>
		<path style="fill:none;stroke:#000000;stroke-width:1.0288;stroke-linecap:round;" d="M98.1,91c-0.8-0.5-1.6-0.4-2.3-0.5
			c-1.3-1.3-1.5-3-1.7-4.7c0.4-0.7,0.7-1.4,1.2-2"/>
		<path style="fill:none;stroke:#000000;stroke-width:0.6128;stroke-linecap:round;" d="M121.6,96.7c1.1-1,2.6-2,3.8-2.9"/>
		<path style="fill:none;stroke:#000000;stroke-width:0.5936;stroke-linecap:round;" d="M142.2,96.7c0.8-0.4,1.6-1.1,1.9-1.9"/>
		<path style="fill:none;stroke:#000000;stroke-width:0.6472;stroke-linecap:round;" d="M88.5,95.3c-0.3,1.2,0.2,2.4,1,3.4"/>
		<path style="fill:none;stroke:#000000;stroke-width:0.6072;stroke-linecap:round;" d="M115.4,97.2c0.3-0.1,0.4-0.3,0.5-0.5"/>
		<path style="fill:none;stroke:#000000;stroke-width:0.898;stroke-linecap:round;" d="M60.2,108.2c0.3-0.1,1-0.5,1.4-0.7"/>
		<path style="fill:none;stroke:#000000;stroke-width:1.0285;stroke-linecap:round;" d="M77.9,117.4c-0.5-0.2-0.8-0.2-1.1-0.3
			c-0.6-0.9-0.6-2-0.7-3.1c-1.8-0.9-4.3-0.8-5.2-3c0.1-0.6,0.3-1.3,0.7-1.7"/>
		<path style="fill:none;stroke:#000000;stroke-width:0.6788;stroke-linecap:round;" d="M71.7,117.4c-0.3,1.3,0.6,2.3,1.7,2.6"/>
		<path style="fill:none;stroke:#000000;stroke-width:0.6391;stroke-linecap:round;" d="M92.8,119.3l0.1-0.3
			c1.3-0.4,2.3-1.2,3.5-1.8"/>
		<path style="fill:none;stroke:#000000;stroke-width:0.6788;stroke-linecap:round;" d="M103.6,123.4c0.2,0.6,0.6,1,0.7,1.7"/>
		<path style="fill:none;stroke:#000000;stroke-width:1.1281;stroke-linecap:round;" d="M111.8,127.2c-3.2,0.9-7.5,7.6-3.1,9.6"/>
		<path style="fill:none;stroke:#000000;stroke-width:0.998;stroke-linecap:round;" d="M100.5,135.1c-1.6-2.2-4.4-1.2-6.3-3.2
			c-0.1-0.3-0.1-0.6-0.1-0.9"/>
		<path style="fill:none;stroke:#000000;stroke-width:0.7494;stroke-linecap:round;" d="M111.5,136.1c0.4,0.1,0.7,0.2,1,0.2
			c1-0.4,1.2-1.5,1.9-2.1"/>
		<path style="fill:none;stroke:#000000;stroke-width:0.6229;stroke-linecap:round;" d="M67.8,172.1c0-1.3,1.2-2.1,1.4-3.4"/>
		<path style="fill:none;stroke:#000000;stroke-width:1.105;stroke-linecap:round;" d="M55.8,175c0.7,0.9,2.2,1.2,2.4,2.4"/>
		<path style="fill:none;stroke:#000000;stroke-width:0.8878;stroke-linecap:round;" d="M137.4,181.7c0.8,1.3,0.6,2.9,1.2,4.3"/>
		<path style="fill:none;stroke:#000000;stroke-width:0.6989;stroke-linecap:round;" d="M110.6,187c0.8-1.6,1.2-3.6,2.4-4.8"/>
		<path style="fill:none;stroke:#000000;stroke-width:0.6788;stroke-linecap:round;" d="M154.2,84.7c1.5-2.2,3.9-4.7,3.8-7.3"/>
		<path style="fill:none;stroke:#000000;stroke-width:0.6788;stroke-linecap:round;" d="M157.6,77.5l-0.7,0.7"/>
		<path style="fill:none;stroke:#000000;stroke-width:1.0998;stroke-linecap:round;" d="M159,74.6c0.6-1.1,1.8-2,2.9-2.8"/>
		<path style="fill:none;stroke:#000000;stroke-width:0.96;stroke-linecap:round;" d="M161.9,71.9c0.2-0.9,0.2-1.9,0.7-2.8"/>
		<path style="fill:none;stroke:#000000;stroke-width:1.6278;stroke-linecap:round;" d="M161.9,71.9c0.8,0.3,0.8,1,0.7,1.8"/>
		<path style="fill:none;stroke:#000000;stroke-width:1.5179;stroke-linecap:round;" d="M170.4,58.3l0.3,1"/>
		<path style="fill:none;stroke:#000000;stroke-width:1.6348;stroke-linecap:round;" d="M168.4,78.6c-0.1,0.3-0.2,1-0.4,1.7"/>
		<path style="fill:none;stroke:#000000;stroke-width:1.0245;stroke-linecap:round;" d="M113.4,169.2c0.9,0.5,2,0,2.9,0.5"/>
		<path style="fill:none;stroke:#000000;stroke-width:0.9379;stroke-linecap:round;" d="M122.6,171.6c1,0.5,2.1,0.6,2.9,1.4"/>
		<path style="fill:none;stroke:#000000;stroke-width:1.0253;stroke-linecap:round;" d="M125.4,173c1.3-0.3,2.9-0.5,4.1,0"/>
		<path style="fill:none;stroke:#000000;stroke-width:0.72;stroke-linecap:round;" d="M129.5,173c0.8-0.1,1.6,0,2.4,0.4"/>
		<path style="fill:none;stroke:#000000;stroke-width:1.0625;stroke-linecap:round;" d="M131.9,173.4c0.9-0.2,2.1-0.3,2.9,0.4"/>
		<path style="fill:none;stroke:#000000;stroke-width:1.4239;stroke-linecap:round;" d="M134.8,173.8c0.7-0.4,1.2-1,1.9-1.5"/>
		<path style="fill:none;stroke:#000000;stroke-width:0.774;stroke-linecap:round;" d="M139.6,167.5c-0.2,0.5-0.4,0.9-0.5,1.2"/>
		<path style="fill:none;stroke:#000000;stroke-width:1.0946;stroke-linecap:round;" d="M137.4,172.1c0.8,0.9,2.1,1.2,2.6,2.4"/>
		<path style="fill:none;stroke:#000000;stroke-width:1.5367;stroke-linecap:round;" d="M125.9,180c0.2,0.1,0.6,0.4,1,0.7"/>
		<path style="fill:none;stroke:#000000;stroke-width:1.3576;stroke-linecap:round;" d="M79.4,172.8c0.3-0.2,0.6-0.3,1-0.4"/>
		<path style="fill:none;stroke:#000000;stroke-width:1.4795;stroke-linecap:round;" d="M5.6,52.1c-0.5-1-0.6-1.6-0.9-2.4"/>
		<path style="fill:none;stroke:#000000;stroke-width:1.4924;stroke-linecap:round;" d="M10.1,57c0.9,0.4,1.6,1.1,2.5,1.3"/>
		<path style="fill:none;stroke:#000000;stroke-width:1.4924;stroke-linecap:round;" d="M23.2,63c0.5,0.1,1,0.2,1.4,0.3"/>
		<path style="fill:none;stroke:#000000;stroke-width:1.217;stroke-linecap:round;" d="M26,63.4c1.1-0.2,2.1,0.3,3,0.9"/>
		<path style="fill:none;stroke:#000000;stroke-width:1.4627;stroke-linecap:round;" d="M13.1,61c-0.9,0.4-2,0.7-2.6,1.6"/>
		<path style="fill:none;stroke:#000000;stroke-width:0.8158;stroke-linecap:round;" d="M35.2,74.6c0.8,0.2,1.6,0.5,2.4,0.5"/>
		<path style="fill:none;stroke:#000000;stroke-width:2.4569;stroke-linecap:round;" d="M42.1,83.6c-0.2-0.5-0.2-1.1-0.2-1.5"/>
		<path style="fill:none;stroke:#000000;stroke-width:2.1466;stroke-linecap:round;" d="M41.9,82.1l-0.2-0.4"/>
		<path style="fill:none;stroke:#000000;stroke-width:1.4053;stroke-linecap:round;" d="M41.7,81.7c-1-0.3-1.4-1.6-0.9-2.5"/>
		<path style="fill:none;stroke:#000000;stroke-width:1.0835;stroke-linecap:round;" d="M40.8,79.2V79c0.2-0.9,0.8-1.6,1-2.5
			c0.7-0.5,1.6-0.9,2.5-0.7"/>
		<path style="fill:none;stroke:#000000;stroke-width:1.3994;stroke-linecap:round;" d="M46.1,75c-0.3-1-1-1.9-1.4-2.8"/>
		<path style="fill:none;stroke:#000000;stroke-width:1.5052;stroke-linecap:round;" d="M43.8,70.8c-1.3-0.8-1-2.6-0.8-3.8"/>
		<path style="fill:none;stroke:#000000;stroke-width:0.9863;stroke-linecap:round;" d="M34.2,54c0.9,0.2,1.1,1.1,1.9,1.4"/>
		<path style="fill:none;stroke:#000000;stroke-width:0.68;stroke-linecap:round;" d="M36.2,55.4c2.2-1,4.2-2.9,6.7-2.9"/>
		<path style="fill:none;stroke:#000000;stroke-width:0.7332;stroke-linecap:round;" d="M36.2,55.4c-0.1,2.5-0.1,6.1,2.9,7"/>
		<path style="fill:none;stroke:#000000;stroke-width:1.6857;stroke-linecap:round;" d="M49.8,60.2c-0.1-2-1.5-3.8-0.4-5.8"/>
		<path style="fill:none;stroke:#000000;stroke-width:0.6072;stroke-linecap:round;" d="M54.9,59.8c-0.5,0-1,0.2-1.4,0.5"/>
		<path style="fill:none;stroke:#000000;stroke-width:1.4076;stroke-linecap:round;" d="M54.9,61c-0.5,0.2-1,0.1-1.4,0.1"/>
		<path style="fill:none;stroke:#000000;stroke-width:0.6197;stroke-linecap:round;" d="M49.6,64.6c-0.3-0.1-0.6-0.3-1-0.5"/>
		<path style="fill:none;stroke:#000000;stroke-width:1.133;stroke-linecap:round;" d="M44.3,70.3c0.9-0.4,1.8-0.7,2.7-0.9
			c0.1-0.1,0.1-0.3,0.1-0.6c0-0.1,0-0.3,0-0.4"/>
		<path style="fill:none;stroke:#000000;stroke-width:1.0182;stroke-linecap:round;" d="M47.2,68.4c-0.7-0.2-1.2-0.2-1.7-0.2"/>
		<path style="fill:none;stroke:#000000;stroke-width:0.96;stroke-linecap:round;" d="M47.2,68.4c0.3-0.3,0.6-0.4,1-0.5"/>
		<path style="fill:none;stroke:#000000;stroke-width:0.8653;stroke-linecap:round;" d="M47.7,74.6l1-1"/>
		<path style="fill:none;stroke:#000000;stroke-width:1.7307;stroke-linecap:round;" d="M44,79.1c0.6-0.2,0.8-0.3,1.2-0.4"/>
		<path style="fill:none;stroke:#000000;stroke-width:0.9191;stroke-linecap:round;" d="M45.2,78.7c0.2-0.6,0.4-0.8,0.6-1.2"/>
		<path style="fill:none;stroke:#000000;stroke-width:0.9992;stroke-linecap:round;" d="M45.2,78.7h1.3"/>
		<path style="fill:none;stroke:#000000;stroke-width:0.6414;stroke-linecap:round;" d="M41.9,82.1c0.9-1,2.4-0.4,3.4-1.2"/>
		<path style="fill:none;stroke:#000000;stroke-width:2.4569;stroke-linecap:round;" d="M42.1,83.6c0.3,0.1,0.8,0.2,1.2,0.2"/>
		<path style="fill:none;stroke:#000000;stroke-width:0.9233;stroke-linecap:round;" d="M43.4,83.8c0.6-1,1.9-0.9,2.6-1.7"/>
		<path style="fill:none;stroke:#000000;stroke-width:1.2394;stroke-linecap:round;" d="M43.4,83.8c1,0.6,2.3,1,3.4,0.2"/>
		<path style="fill:none;stroke:#000000;stroke-width:1.229;stroke-linecap:round;" d="M42.1,83.6c-1.7,0.9-3,2.4-5,2.8"/>
		<path style="fill:none;stroke:#000000;stroke-width:1.1758;stroke-linecap:round;" d="M45.3,91c1.1-0.2,2-0.7,3.1-0.7"/>
		<path style="fill:none;stroke:#000000;stroke-width:1.0182;stroke-linecap:round;" d="M43.4,93.1h1"/>
		<path style="fill:none;stroke:#000000;stroke-width:0.6573;stroke-linecap:round;" d="M42.9,94.8c0.8,0,1.8,0.2,2.4-0.5"/>
		<path style="fill:none;stroke:#000000;stroke-width:1.592;stroke-linecap:round;" d="M52.5,99.6c0.3-0.2,0.8-0.4,1.4-0.6"/>
		<path style="fill:none;stroke:#000000;stroke-width:1.0245;stroke-linecap:round;" d="M58.2,96.2c-0.3-0.9-0.4-2,0-2.9"/>
		<path style="fill:none;stroke:#000000;stroke-width:0.8314;stroke-linecap:round;" d="M52.2,80.6c-0.3,0.8-0.7,1.8-0.2,2.6"/>
		<path style="fill:none;stroke:#000000;stroke-width:0.7065;stroke-linecap:round;" d="M52,83.3c0.5-0.3,1-0.4,1.4-0.5"/>
		<path style="fill:none;stroke:#000000;stroke-width:1.4872;stroke-linecap:round;" d="M52,83.3c0,0.5,0,0.9,0.1,1.2"/>
		<path style="fill:none;stroke:#000000;stroke-width:0.8314;stroke-linecap:round;" d="M52.1,84.5c0.8,0,1.7-0.1,2.3-0.7"/>
		<path style="fill:none;stroke:#000000;stroke-width:1.2119;stroke-linecap:round;" d="M52.1,84.5c0.1,0.9,0.1,2,0.9,2.6"/>
		<path style="fill:none;stroke:#000000;stroke-width:0.7065;stroke-linecap:round;" d="M53,87.1c0.5-0.3,1-0.4,1.4-0.5"/>
		<path style="fill:none;stroke:#000000;stroke-width:0.8851;stroke-linecap:round;" d="M56.3,90c0.4-0.7,0.8-0.8,1.4-1"/>
		<path style="fill:none;stroke:#000000;stroke-width:0.72;stroke-linecap:round;" d="M59.2,90c-0.4,0.1-0.6,0.3-0.7,0.5"/>
		<path style="fill:none;stroke:#000000;stroke-width:1.2305;stroke-linecap:round;" d="M60.6,92.4c1.2,0,2.5,0,3.4-1"/>
		<path style="fill:none;stroke:#000000;stroke-width:1.2346;stroke-linecap:round;" d="M63,98.2c5.9-0.4,9.1-6.6,14.9-7.2"/>
		<path style="fill:none;stroke:#000000;stroke-width:0.5879;stroke-linecap:round;" d="M63,101c0.5-0.3,1-0.4,1.4-0.5"/>
		<path style="fill:none;stroke:#000000;stroke-width:0.6182;stroke-linecap:round;" d="M78.2,101.8c1.3-0.6,2.6-1.3,4.1-1.2"/>
		<path style="fill:none;stroke:#000000;stroke-width:1.4356;stroke-linecap:round;" d="M77,102.6c6.1,2.8,13.5-1.8,19.6,2"/>
		<path style="fill:none;stroke:#000000;stroke-width:0.7589;stroke-linecap:round;" d="M102.9,102.5c0.3-0.3,0.6-0.4,1-0.5"/>
		<path style="fill:none;stroke:#000000;stroke-width:1.6843;stroke-linecap:round;" d="M105.3,104.1c2-0.9,4.5-0.5,6-2.4"/>
		<path style="fill:none;stroke:#000000;stroke-width:1.6278;stroke-linecap:round;" d="M111.3,101.7c-0.1-0.2-0.2-0.4-0.3-0.7"/>
		<path style="fill:none;stroke:#000000;stroke-width:0.7065;stroke-linecap:round;" d="M111,101c-0.5-0.3-1-0.4-1.4-0.5"/>
		<path style="fill:none;stroke:#000000;stroke-width:0.9191;stroke-linecap:round;" d="M111,101c0.2-0.4,0.3-0.7,0.5-1"/>
		<path style="fill:none;stroke:#000000;stroke-width:1.2542;stroke-linecap:round;" d="M111.3,101.7c2.7-0.2,4.5-2.2,6.9-3.1"/>
		<path style="fill:none;stroke:#000000;stroke-width:1.5643;stroke-linecap:round;" d="M71.7,102.8c-3,1.3-5.7,0-8.6-0.5"/>
		<path style="fill:none;stroke:#000000;stroke-width:0.6197;stroke-linecap:round;" d="M59.7,99.1c-1.6,0.5-3.1,1.1-4.8,1.4"/>
		<path style="fill:none;stroke:#000000;stroke-width:1.4924;stroke-linecap:round;" d="M55.3,98.5c-0.4,0.1-0.9,0.2-1.3,0.3"/>
		<path style="fill:none;stroke:#000000;stroke-width:0.5879;stroke-linecap:round;" d="M47.7,104.4c0.5-0.3,1-0.4,1.4-0.5"/>
		<path style="fill:none;stroke:#000000;stroke-width:0.5879;stroke-linecap:round;" d="M47.7,105.4c0.6,0,1.6,0,2.2-0.2"/>
		<path style="fill:none;stroke:#000000;stroke-width:0.9062;stroke-linecap:round;" d="M59.7,105.8c-3.4,0.4-6.5,2.3-8.6,4.8"/>
		<path style="fill:none;stroke:#000000;stroke-width:0.72;stroke-linecap:round;" d="M50.1,114c0.5-0.3,0.9-0.5,1.2-0.7"/>
		<path style="fill:none;stroke:#000000;stroke-width:1.7307;stroke-linecap:round;" d="M51.9,115.8c0.2-0.3,0.5-0.5,0.7-0.8"/>
		<path style="fill:none;stroke:#000000;stroke-width:1.2316;stroke-linecap:round;" d="M55.8,116.9c0.8-1.1,1.7-2.1,2.8-3"/>
		<path style="fill:none;stroke:#000000;stroke-width:1.2998;stroke-linecap:round;" d="M58.6,113.9c1-0.9,1.6-2.4,2.8-3"/>
		<path style="fill:none;stroke:#000000;stroke-width:0.8542;stroke-linecap:round;" d="M58.6,113.9c0.6,0.5,1.3,0.9,2,1.3
			c0.2,0,0.6-0.2,1-0.2"/>
		<path style="fill:none;stroke:#000000;stroke-width:0.8764;stroke-linecap:round;" d="M59.7,122.9c0.9-0.1,1.1-1.3,2.2-1.2"/>
		<path style="fill:none;stroke:#000000;stroke-width:1.0527;stroke-linecap:round;" d="M61.8,121.7c1.2-1.3,1-3.9,3.3-4.2"/>
		<path style="fill:none;stroke:#000000;stroke-width:0.7777;stroke-linecap:round;" d="M65.1,117.5c0.3-0.7,0.4-1.5,0.6-2.2"/>
		<path style="fill:none;stroke:#000000;stroke-width:0.6586;stroke-linecap:round;" d="M65.1,117.5c0.2,0.8,0.7,1.5,1.4,2.1
			c0.7,0,1.4,0.3,2.1,0.3"/>
		<path style="fill:none;stroke:#000000;stroke-width:0.6712;stroke-linecap:round;" d="M61.8,121.7c0.3,1.8-1,3.1-2.2,4.3"/>
		<path style="fill:none;stroke:#000000;stroke-width:0.6414;stroke-linecap:round;" d="M68.3,129.4c0.6-1,1.5-1.8,2.4-2.4"/>
		<path style="fill:none;stroke:#000000;stroke-width:1.0295;stroke-linecap:round;" d="M70.7,127c-0.2-0.5-0.2-1-0.2-1.4"/>
		<path style="fill:none;stroke:#000000;stroke-width:1.4599;stroke-linecap:round;" d="M70.7,127c0.5,0.2,0.8,0.5,1.2,0.7"/>
		<path style="fill:none;stroke:#000000;stroke-width:0.5728;stroke-linecap:round;" d="M74.1,127.9c1.6-1.2,2.3-3.3,3.8-4.3"/>
		<path style="fill:none;stroke:#000000;stroke-width:0.6956;stroke-linecap:round;" d="M80.3,125c0-1.5,1.3-2.2,1.9-3.4"/>
		<path style="fill:none;stroke:#000000;stroke-width:0.7803;stroke-linecap:round;" d="M82.2,121.7c-0.3-0.8-0.2-1.2-0.2-1.7
			c0.4-0.3,0.9-0.6,1.1-1.2"/>
		<path style="fill:none;stroke:#000000;stroke-width:0.9798;stroke-linecap:round;" d="M82.2,121.7c0.9,0.4,1.9,0.2,2.9,0"/>
		<path style="fill:none;stroke:#000000;stroke-width:1.0069;stroke-linecap:round;" d="M79.8,129.4c0.2,0.5,0.2,0.8,0.3,1.1
			c0.9,0.3,1.8,0.9,2.8,1.1"/>
		<path style="fill:none;stroke:#000000;stroke-width:1.5179;stroke-linecap:round;" d="M76.5,128.2l-1,0.3"/>
		<path style="fill:none;stroke:#000000;stroke-width:0.8439;stroke-linecap:round;" d="M75.3,138c0-1,0.6-1.9,0.7-2.9"/>
		<path style="fill:none;stroke:#000000;stroke-width:0.72;stroke-linecap:round;" d="M76.7,138c0.1-0.7,0.7-1.2,0.7-1.9"/>
		<path style="fill:none;stroke:#000000;stroke-width:0.8032;stroke-linecap:round;" d="M78.4,139.9c0.2-0.5,0.4-0.9,0.5-1.4"/>
		<path style="fill:none;stroke:#000000;stroke-width:1.4795;stroke-linecap:round;" d="M89.4,141.8v-1"/>
		<path style="fill:none;stroke:#000000;stroke-width:1.0182;stroke-linecap:round;" d="M86.3,138.7c0.3,0,0.8,0.1,1.2,0.2"/>
		<path style="fill:none;stroke:#000000;stroke-width:1.288;stroke-linecap:round;" d="M94.6,140.4c0.1-0.7,0.3-1.2,0.4-1.7"/>
		<path style="fill:none;stroke:#000000;stroke-width:0.9968;stroke-linecap:round;" d="M97.8,142.1c0.8,1.7,3.4,0.7,4.1,2.6"/>
		<path style="fill:none;stroke:#000000;stroke-width:0.8011;stroke-linecap:round;" d="M104.1,145.2c0.1-1.2,0.5-2.2,0.7-3.4"/>
		<path style="fill:none;stroke:#000000;stroke-width:0.7838;stroke-linecap:round;" d="M104.8,145.7l1-1"/>
		<path style="fill:none;stroke:#000000;stroke-width:0.6788;stroke-linecap:round;" d="M105.8,144.7c0-0.7,0.2-1.1,0.5-1.4"/>
		<path style="fill:none;stroke:#000000;stroke-width:0.7513;stroke-linecap:round;" d="M105.8,144.7c1.8,0.3,2.3-1.8,3.8-1.9"/>
		<path style="fill:none;stroke:#000000;stroke-width:0.5967;stroke-linecap:round;" d="M111,144.7c-1-0.8,0.1-1.5,0-2.4"/>
		<path style="fill:none;stroke:#000000;stroke-width:1.4795;stroke-linecap:round;" d="M111.5,144.9c5.1-4.4,5.8-12.3,10.5-17.1"/>
		<path style="fill:none;stroke:#000000;stroke-width:0.5879;stroke-linecap:round;" d="M130.2,120.7c0.3,0.1,0.6,0.3,1,0.5"/>
		<path style="fill:none;stroke:#000000;stroke-width:0.8497;stroke-linecap:round;" d="M127.4,119.3l0.1-0.3c1-0.5,2.2-0.2,3.2-0.6
			"/>
		<path style="fill:none;stroke:#000000;stroke-width:1.0369;stroke-linecap:round;" d="M134.1,115c-0.5-0.3-0.6-0.5-0.7-0.7"/>
		<path style="fill:none;stroke:#000000;stroke-width:1.0295;stroke-linecap:round;" d="M136,108.7c0.2-0.5,0.2-1,0.2-1.4"/>
		<path style="fill:none;stroke:#000000;stroke-width:1.0343;stroke-linecap:round;" d="M136,108.7c0.6,0.2,1.3,0.1,1.8,0.2
			c0.5,0.6,0.5,1.6,1.5,1.7"/>
		<path style="fill:none;stroke:#000000;stroke-width:0.7565;stroke-linecap:round;" d="M146.4,105.6c-0.7-1.7,1.4-2.8,2.5-3.6"/>
		<path style="fill:none;stroke:#000000;stroke-width:0.7763;stroke-linecap:round;" d="M146.4,105.6c1.5-0.1,2.1-1.9,3.6-1.9"/>
		<path style="fill:none;stroke:#000000;stroke-width:0.8946;stroke-linecap:round;" d="M150,103.7c0.8-1.6,2-2.9,2.8-4.6"/>
		<path style="fill:none;stroke:#000000;stroke-width:1.0182;stroke-linecap:round;" d="M150,103.7c0.1,0.3,0.1,0.8,0.1,1.2"/>
		<path style="fill:none;stroke:#000000;stroke-width:0.6788;stroke-linecap:round;" d="M155.7,98.2c0.6-0.2,1.2-0.4,1.7-0.7"/>
		<path style="fill:none;stroke:#000000;stroke-width:0.808;stroke-linecap:round;" d="M160.7,89.9c-1.7,0.9-2.7,2.8-3.6,4.4"/>
		<path style="fill:none;stroke:#000000;stroke-width:1.0226;stroke-linecap:round;" d="M160.7,89.9c0-0.6,0-1.6-0.1-1.9
			c-0.5,0-0.8-0.6-0.8-1.3"/>
		<path style="fill:none;stroke:#000000;stroke-width:1.6857;stroke-linecap:round;" d="M157.1,87.1c0.5-0.7,1-1.4,1.9-2"/>
		<path style="fill:none;stroke:#000000;stroke-width:0.5733;stroke-linecap:round;" d="M155.2,85.7c0.7-0.9,1.6-1.7,2.2-2.6"/>
		<path style="fill:none;stroke:#000000;stroke-width:0.7412;stroke-linecap:round;" d="M159.8,78.2c-0.1,1-1.1,1.6-1,2.6"/>
		<path style="fill:none;stroke:#000000;stroke-width:0.8412;stroke-linecap:round;" d="M168.4,78.6c-0.9-0.3-1.2-0.4-1.4-0.6
			c0.3-0.8,0.1-1.6,0.4-2.4"/>
		<path style="fill:none;stroke:#000000;stroke-width:1.8018;stroke-linecap:round;" d="M168.4,78.6c1.7-4.3,2.6-9,2.5-13.6"/>
		<path style="fill:none;stroke:#000000;stroke-width:1.7862;stroke-linecap:round;" d="M168.8,53c-1.5-5.7-6.8-10.1-6.6-16.3"/>
		<path style="fill:none;stroke:#000000;stroke-width:0.9895;stroke-linecap:round;" d="M150.4,33.6c-0.8,0.1-1.4-0.3-1.9-0.7"/>
		<path style="fill:none;stroke:#000000;stroke-width:0.6788;stroke-linecap:round;" d="M151.6,23.8c0.1-0.4,0.3-0.8,0.6-1.1
			c0.5-1.2-0.7-2.1-0.6-3.3"/>
		<path style="fill:none;stroke:#000000;stroke-width:1.1758;stroke-linecap:round;" d="M159.6,20.3c0.6,0.2,1,0.4,1.3,0.6"/>
		<path style="fill:none;stroke:#000000;stroke-width:0.901;stroke-linecap:round;" d="M161.9,25.7c1.8-0.2,4.1-0.5,5.3,1"/>
		<path style="fill:none;stroke:#000000;stroke-width:1.288;stroke-linecap:round;" d="M174.2,29c0.6-3.2-2.2-5.6-3.8-8.1"/>
		<path style="fill:none;stroke:#000000;stroke-width:0.752;stroke-linecap:round;" d="M74.2,47.6c-0.3,0.9-1.2,0.9-1.6,1.6"/>
		<path style="fill:none;stroke:#000000;stroke-width:0.5543;stroke-linecap:round;" d="M64,48.2v-1.4"/>
		<path style="fill:none;stroke:#000000;stroke-width:1.0369;stroke-linecap:round;" d="M55.8,48.7c0.3,0.1,0.6,0.2,1,0.2"/>
		<path style="fill:none;stroke:#000000;stroke-width:0.7332;stroke-linecap:round;" d="M53.2,50.8c1.4,0,3,0,4.3-0.4"/>
		<path style="fill:none;stroke:#000000;stroke-width:1.1257;stroke-linecap:round;" d="M55.1,52.3c-0.3,0-0.6,0.6-1,1"/>
		<path style="fill:none;stroke:#000000;stroke-width:0.7065;stroke-linecap:round;" d="M53.4,53.5c-0.6-0.4-0.9-0.8-1.3-1.1
			c-0.1-0.3,0-0.5,0-0.8c0.4-0.5,0.8-0.7,1.1-0.9"/>
		<path style="fill:none;stroke:#000000;stroke-width:1.1257;stroke-linecap:round;" d="M53.2,50.8c-0.2-1.4,1.5-2,2.6-2"/>
		<path style="fill:none;stroke:#000000;stroke-width:0.9379;stroke-linecap:round;" d="M55.8,48.7c0.4-1.2,1.9-1.4,2.9-1.9"/>
		<path style="fill:none;stroke:#000000;stroke-width:1.6628;stroke-linecap:round;" d="M50.7,40.9c-0.4-0.3-0.8-0.5-1.2-0.8"/>
		<path style="fill:none;stroke:#000000;stroke-width:0.8167;stroke-linecap:round;" d="M42.9,34.3c1.2,1.4,3,2.3,4.1,3.8"/>
		<path style="fill:none;stroke:#000000;stroke-width:1.3954;stroke-linecap:round;" d="M66.4,45.8c2.5,0.6,5.7,0,7.8,1.8"/>
		<path style="fill:none;stroke:#000000;stroke-width:1.472;stroke-linecap:round;" d="M74.2,47.6c11.8,0.7,24.5,4.5,35.9,0"/>
		<path style="fill:none;stroke:#000000;stroke-width:1.3679;stroke-linecap:round;" d="M121.3,34.2c6.7-10.8,15.9-21.3,29.1-23.5"
			/>
		<path style="fill:none;stroke:#000000;stroke-width:1.4664;stroke-linecap:round;" d="M150.6,9.4c-0.3-0.5-0.6-1-0.8-1.4"/>
		<path style="fill:none;stroke:#000000;stroke-width:1.5554;stroke-linecap:round;" d="M150.7,5.9c0.1-0.6,0.3-1.1,0.5-1.5"/>
		<path style="fill:none;stroke:#000000;stroke-width:1.0295;stroke-linecap:round;" d="M161.4,3.1L161,3.4
			c-0.2,0.3-0.2,0.8-0.2,1.2"/>
		<path style="fill:none;stroke:#000000;stroke-width:0.72;stroke-linecap:round;" d="M156.4,7.9c-0.1-0.3-0.3-0.8-0.5-1.2"/>
		<path style="fill:none;stroke:#000000;stroke-width:0.8851;stroke-linecap:round;" d="M154.2,5.5c-1.1,0.3-2.3,0.6-3.5,0.4"/>
		<path style="fill:none;stroke:#000000;stroke-width:0.752;stroke-linecap:round;" d="M160.7,12.2c-0.1,0.3-0.1,0.6,0,1
			c0.7,0.6,1.2,1.5,2.2,1.7"/>
		<path style="fill:none;stroke:#000000;stroke-width:1.4199;stroke-linecap:round;" d="M157.1,20.7c0.7,0.3,1.9-0.1,2.5-0.4"/>
		<path style="fill:none;stroke:#000000;stroke-width:1.2924;stroke-linecap:round;" d="M159.6,20.3c-0.1-0.6-0.7-1.5-1.6-1.8"/>
		<path style="fill:none;stroke:#000000;stroke-width:1.4559;stroke-linecap:round;" d="M151.4,29c0-0.6-0.4-1.3-0.6-1.9"/>
		<path style="fill:none;stroke:#000000;stroke-width:1.156;stroke-linecap:round;" d="M26.6,65.9c1.1,0.3,2.1,1.2,3.3,0.9"/>
		<path style="fill:none;stroke:#000000;stroke-width:0.9466;stroke-linecap:round;" d="M41.7,81.7c0.2-1.3,1.8-1.4,2.2-2.6"/>
		<path style="fill:none;stroke:#000000;stroke-width:0.7436;stroke-linecap:round;" d="M44,79.1c-1-0.2-2.1-0.2-3.1,0.1"/>
		<path style="fill:none;stroke:#000000;stroke-width:1.3363;stroke-linecap:round;" d="M51,101c0.3,0,0.6-0.1,0.9-0.1
			c0.2-0.4,0.4-0.8,0.6-1.3"/>
		<path style="fill:none;stroke:#000000;stroke-width:1.2109;stroke-linecap:round;" d="M52.5,99.6c-1.1-0.2-2.3-0.5-3.4-0.3"/>
		<path style="fill:none;stroke:#000000;stroke-width:0.7155;stroke-linecap:round;" d="M47.7,102.5c0.9-0.2,1.8-0.6,2.8-0.5
			c0.2-0.2,0.4-0.5,0.6-0.9"/>
		<path style="fill:none;stroke:#000000;stroke-width:0.712;stroke-linecap:round;" d="M51,101c-0.7-0.4-1.4-0.4-1.9-0.5"/>
		<path style="fill:none;stroke:#000000;stroke-width:1.4664;stroke-linecap:round;" d="M148.3,108.7c0.3-0.5,0.7-0.8,1.1-1.1"/>
		<path style="fill:none;stroke:#000000;stroke-width:0.7436;stroke-linecap:round;" d="M146.4,105.6c-0.2,0.9-0.5,1.5-1.1,2.2"/>
		<path style="fill:none;stroke:#000000;stroke-width:0.8764;stroke-linecap:round;" d="M136,108.7c-1,0.6-1.1,1.7-0.9,2.8
			c0.5,0.6,1,1.1,1.4,1.5"/>
		<path style="fill:none;stroke:#000000;stroke-width:1.1384;stroke-linecap:round;" d="M139.8,111.6c-0.5,0.9-1.8,1-2.4,1.9"/>
		<path style="fill:none;stroke:#000000;stroke-width:1.5179;stroke-linecap:round;" d="M138.4,114.8l1,0.3"/>
		<path style="fill:none;stroke:#000000;stroke-width:1.3083;stroke-linecap:round;" d="M111.5,168.2c-0.6-0.5-1.3-0.8-1.9-1.1"/>
		<path style="fill:none;stroke:#000000;stroke-width:0.8158;stroke-linecap:round;" d="M113,172.3c0.8,0.1,1.8,0.1,2.4,0.7"/>
		<path style="fill:none;stroke:#000000;stroke-width:1.6488;stroke-linecap:round;" d="M115.4,173c0.7-0.1,1-0.2,1.2-0.3"/>
		<path style="fill:none;stroke:#000000;stroke-width:1.1593;stroke-linecap:round;" d="M116.6,172.7c0-0.9,0-1.9,0-2.8"/>
		<path style="fill:none;stroke:#000000;stroke-width:1.9888;stroke-linecap:round;" d="M116.6,172.7c0.6,0,1.4,0.1,1.8,0.2"/>
		<path style="fill:none;stroke:#000000;stroke-width:1.0946;stroke-linecap:round;" d="M118.3,173c0.5-0.6,0.6-1.2,0.6-1.8"/>
		<path style="fill:none;stroke:#000000;stroke-width:0.8314;stroke-linecap:round;" d="M122.3,174c0-0.8,0.3-1.6,0.2-2.4"/>
		<path style="fill:none;stroke:#000000;stroke-width:1.859;stroke-linecap:round;" d="M118.3,173c0.1,0.2,0.4,1,0.6,1.5"/>
		<path style="fill:none;stroke:#000000;stroke-width:0.8032;stroke-linecap:round;" d="M115.4,173c-0.1,0.7-0.7,0.8-1.4,1.4"/>
		<path style="fill:none;stroke:#000000;stroke-width:1.0182;stroke-linecap:round;" d="M129.5,173c0,0.6,0,1.3,0.2,1.9"/>
		<path style="fill:none;stroke:#000000;stroke-width:1.0069;stroke-linecap:round;" d="M131.9,173.4v2.5"/>
		<path style="fill:none;stroke:#000000;stroke-width:1.8487;stroke-linecap:round;" d="M120.2,178.6c0.7,0.3,1.4,0.4,2.1,0.4"/>
		<path style="fill:none;stroke:#000000;stroke-width:1.0369;stroke-linecap:round;" d="M122.3,179.1c0.5-0.7,0.9-1.4,1.2-2.2"/>
		<path style="fill:none;stroke:#000000;stroke-width:1.1578;stroke-linecap:round;" d="M122.3,179.1c0.6,1.5,2.4,0.7,3.6,0.9"/>
		<path style="fill:none;stroke:#000000;stroke-width:1.146;stroke-linecap:round;" d="M125.9,180c0.1-1.1-0.3-2.3-1-3.1"/>
		<path style="fill:none;stroke:#000000;stroke-width:0.9235;stroke-linecap:round;" d="M9.5,27.4c6.6,3,11.9,8,18,11.8"/>
		<path style="fill:none;stroke:#000000;stroke-width:0.8952;stroke-linecap:round;" d="M6.9,32.6c1.9,0.4,4.1,0.1,5.8,1.2"/>
		<path style="fill:none;stroke:#000000;stroke-width:0.764;stroke-linecap:round;" d="M12.6,33.8c0.3,0,0.6-0.1,0.9-0.2
			c0.4,0.1,0.9,0.1,1.5,0.3c0.2,0.4,0,0.8-0.1,1.1c-2.4,1.6-5.2,2.6-7.4,4.8"/>
		<path style="fill:none;stroke:#000000;stroke-width:1.5179;stroke-linecap:round;" d="M7.5,39.9c0.6,0.7,1.4,1.1,2.2,1.3"/>
		<path style="fill:none;stroke:#000000;stroke-width:0.6573;stroke-linecap:round;" d="M17.4,37.9c-2.4,0.3-4.3,1.5-6.5,2.4"/>
		<path style="fill:none;stroke:#000000;stroke-width:0.5615;stroke-linecap:round;" d="M23.2,41.5l-0.1-0.3
			c-1.6-0.2-2.9-0.8-4.4-1.3"/>
		<path style="fill:none;stroke:#000000;stroke-width:0.6072;stroke-linecap:round;" d="M23.2,43c-1.7-0.1-3.5-0.4-5-1.2"/>
		<path style="fill:none;stroke:#000000;stroke-width:1.7055;stroke-linecap:round;" d="M22.7,46.3c0.8-0.1,1.6-0.6,2.4,0"/>
		<path style="fill:none;stroke:#000000;stroke-width:1.2143;stroke-linecap:round;" d="M31.6,60.4c1,0.2,1.9,0.6,2.6,1.2"/>
		<path style="fill:none;stroke:#000000;stroke-width:0.8851;stroke-linecap:round;" d="M29.9,60.7c0.7,0,1.2-0.1,1.7-0.3"/>
		<path style="fill:none;stroke:#000000;stroke-width:1.4106;stroke-linecap:round;" d="M31.6,60.4c-0.2-1.3-1.4-1.4-2.2-2.1"/>
		<path style="fill:none;stroke:#000000;stroke-width:1.4533;stroke-linecap:round;" d="M23.9,54.2c-0.2-1.1-1-1.8-1.3-2.6"/>
		<path style="fill:none;stroke:#000000;stroke-width:1.9791;stroke-linecap:round;" d="M7.5,39.9H7.3"/>
		<path style="fill:none;stroke:#000000;stroke-width:0.7176;stroke-linecap:round;" d="M4.5,35.8c1-0.8,2.5-1.6,2.4-3.1"/>
		<path style="fill:none;stroke:#000000;stroke-width:1.0182;stroke-linecap:round;" d="M6.9,32.6c-0.3,0-0.6-0.1-1-0.2"/>
		<path style="fill:none;stroke:#000000;stroke-width:1.27;stroke-linecap:round;" d="M0.6,27.4c0.8,0,1.6,0.3,2.4,0.4"/>
		<path style="fill:none;stroke:#000000;stroke-width:1.0111;stroke-linecap:round;" d="M5,27.8c1.5-1.1,3.2,0.8,4.6-0.4"/>
		<path style="fill:none;stroke:#000000;stroke-width:1.3887;stroke-linecap:round;" d="M9.5,27.4c-4.4-4.3-1.6-11.4,5-10.5"/>
		<path style="fill:none;stroke:#000000;stroke-width:0.7252;stroke-linecap:round;" d="M18.9,12c9.9,1.2,14.9,11.4,20.6,18.5"/>
		<path style="fill:none;stroke:#000000;stroke-width:0.725;stroke-linecap:round;" d="M22.7,27.1c-1.7-2.3-1.6-5.8-4.5-7"/>
		<path style="fill:none;stroke:#000000;stroke-width:1.5179;stroke-linecap:round;" d="M5,39c0.8,0.5,1.6,0.7,2,0.9"/>
		<path style="fill:none;stroke:#000000;stroke-width:0.9133;stroke-linecap:round;" d="M12.6,33.8c-2.3,1.5-5,1.6-7.2,3.4"/>
		<path style="fill:none;stroke:#000000;stroke-width:0.6103;stroke-linecap:round;" d="M28.5,25.2c0.9-0.9,0.1-2.1-0.5-2.9"/>
		<path style="fill:none;stroke:#000000;stroke-width:0.9494;stroke-linecap:round;" d="M28.5,25.2v0.5c0.6,0.9,1.6,1.7,2.8,1.7
			c2.2,1.6,0.1,4.5,2,6"/>
		<path style="fill:none;stroke:#000000;stroke-width:1.28;stroke-linecap:round;" d="M28.5,25.2c-1.2-0.3-1.4-1.8-2.4-2.4"/>
		<path style="fill:none;stroke:#000000;stroke-width:0.7851;stroke-linecap:round;" d="M34.7,41.5c2.2,0.9,3.7,3,6.1,3.5"/>
		<path style="fill:none;stroke:#000000;stroke-width:1.4599;stroke-linecap:round;" d="M40.8,45c0.4-0.6,0.5-1.1,0.8-1.6"/>
		<path style="fill:none;stroke:#000000;stroke-width:1.3218;stroke-linecap:round;" d="M40.8,45c0.3,1.4,1.3,3.2,3,3"/>
		<path style="fill:none;stroke:#000000;stroke-width:0.6072;stroke-linecap:round;" d="M119.7,51.6c0.3-0.1,0.4-0.3,0.5-0.5"/>
		<path style="fill:none;stroke:#000000;stroke-width:0.712;stroke-linecap:round;" d="M127.4,54c0.3-0.2,0.4-0.6,0.5-1"/>
		<path style="fill:none;stroke:#000000;stroke-width:0.6072;stroke-linecap:round;" d="M79.8,54h1"/>
		<path style="fill:none;stroke:#000000;stroke-width:0.7244;stroke-linecap:round;" d="M68.8,58.8c2.4-1.3,4.6-3.7,7.7-3.8"/>
		<path style="fill:none;stroke:#000000;stroke-width:0.7151;stroke-linecap:round;" d="M87,66c7-4.6,15-8.5,23.5-10.6"/>
		<path style="fill:none;stroke:#000000;stroke-width:0.6648;stroke-linecap:round;" d="M133.6,60.7c-0.1,0.3-0.1,0.5,0,0.8
			c0.2,0.2,0.4,0.3,0.5,0.4c1.1-0.4,1.4-1.7,1.9-2.6"/>
		<path style="fill:none;stroke:#000000;stroke-width:0.532;stroke-linecap:round;" d="M36.2,64.6c0.9,0.9,1.7,2,1.9,3.4"/>
		<path style="fill:none;stroke:#000000;stroke-width:0.5857;stroke-linecap:round;" d="M136.5,68.4c1.2-1,2.5-2.1,3.4-3.4"/>
		<path style="fill:none;stroke:#000000;stroke-width:0.7294;stroke-linecap:round;" d="M152.8,73.2l0.3-0.1
			c0.7-2.4,2.3-4.5,2.3-7.1"/>
		<path style="fill:none;stroke:#000000;stroke-width:0.7248;stroke-linecap:round;" d="M142.2,82.3c0.7-0.9,1.4-1.8,1.9-2.9"/>
		<path style="fill:none;stroke:#000000;stroke-width:0.6072;stroke-linecap:round;" d="M152.3,80.4c0.3-0.1,0.4-0.3,0.5-0.5"/>
		<path style="fill:none;stroke:#000000;stroke-width:0.6072;stroke-linecap:round;" d="M145.6,80.9c0.3-0.1,0.4-0.3,0.5-0.5"/>
		<path style="fill:none;stroke:#000000;stroke-width:1.4559;stroke-linecap:round;" d="M71.7,86.2c0.3,0.3,0.6,0.4,1,0.5"/>
		<path style="fill:none;stroke:#000000;stroke-width:1.1426;stroke-linecap:round;" d="M71.7,86.2c-0.9,0-1.6-0.7-2.5-0.8
			c-0.6-1.3-1-2.9-0.1-4.2"/>
		<path style="fill:none;stroke:#000000;stroke-width:0.728;stroke-linecap:round;" d="M71.7,86.2l1-1"/>
		<path style="fill:none;stroke:#000000;stroke-width:0.6217;stroke-linecap:round;" d="M110.1,81.8l-0.3,0.2
			c-0.1,0.4-0.3,0.6-0.5,0.9c-0.3,1.8-0.1,4.1,1.3,5.2"/>
		<path style="fill:none;stroke:#000000;stroke-width:0.5775;stroke-linecap:round;" d="M134.1,85.2c1.5-0.2,2.2-1.8,3.4-2.4"/>
		<path style="fill:none;stroke:#000000;stroke-width:0.5987;stroke-linecap:round;" d="M140.8,87.6c0.2-0.4,0.5-0.8,1-1"/>
		<path style="fill:none;stroke:#000000;stroke-width:0.709;stroke-linecap:round;" d="M132.2,93.4c1.6-0.3,3.3-1.2,4.3-2.4"/>
		<path style="fill:none;stroke:#000000;stroke-width:0.6017;stroke-linecap:round;" d="M152.6,93.6c-0.2,0.4-0.6,0.7-0.7,1.2"/>
		<path style="fill:none;stroke:#000000;stroke-width:0.5944;stroke-linecap:round;" d="M141.3,94.8c-0.9,0.3-1,1.2-1.4,1.9"/>
		<path style="fill:none;stroke:#000000;stroke-width:0.7311;stroke-linecap:round;" d="M144.6,102.2c1.1,0.3,1.6-0.7,2.4-1.2"/>
		<path style="fill:none;stroke:#000000;stroke-width:1.4838;stroke-linecap:round;" d="M142.7,104.4c0.4-0.9,1.3-1.4,1.9-2.2"/>
		<path style="fill:none;stroke:#000000;stroke-width:0.7945;stroke-linecap:round;" d="M144.6,102.2c0.1-1,0.9-1.9,1.9-2.2"/>
		<path style="fill:none;stroke:#000000;stroke-width:0.5879;stroke-linecap:round;" d="M54.9,102c0.3,0,0.6,0.1,0.8,0.2
			c0.1,0.4-0.1,0.6-0.3,0.8"/>
		<path style="fill:none;stroke:#000000;stroke-width:0.5794;stroke-linecap:round;" d="M74.1,107.3c0.5-0.2,1-0.4,1.4-0.5"/>
		<path style="fill:none;stroke:#000000;stroke-width:0.6808;stroke-linecap:round;" d="M115.8,110.2c-1.1-0.3-3.2,0.6-2.4,1.9"/>
		<path style="fill:none;stroke:#000000;stroke-width:0.6549;stroke-linecap:round;" d="M104.8,117.4c0.3,1.1,0.8,2.3,1.9,2.9"/>
		<path style="fill:none;stroke:#000000;stroke-width:0.5706;stroke-linecap:round;" d="M100.5,119.8c-0.8,1.1-0.6,2.6,0.2,3.6"/>
		<path style="fill:none;stroke:#000000;stroke-width:0.6232;stroke-linecap:round;" d="M113.7,129.6l0.4,0.3c1.6,0,2.8-1.7,3.7-2.9
			"/>
		<path style="fill:none;stroke:#000000;stroke-width:0.9618;stroke-linecap:round;" d="M134.4,160.9c-0.9,2.8-2.6,5.4-3.7,8.1
			c4.3-0.3,6-7.4,8.7-10.8"/>
		<path style="fill:none;stroke:#000000;stroke-width:0.8497;stroke-linecap:round;" d="M67.6,161.8c-0.6,1.7-0.5,3.8-1.9,5
			c-0.9-0.9-0.5-2.6-0.2-3.8"/>
		<path style="fill:none;stroke:#000000;stroke-width:0.8774;stroke-linecap:round;" d="M37.1,175.9c1.7,1,3.6,2.7,5.4,2.9
			c0.1-0.7-0.7-1.7-0.1-2.2c0.4,0,0.8,0.2,1.2,0.4c0.4,0.4,0.9,0.5,1.6,0.8"/>
		<path style="fill:none;stroke:#000000;stroke-width:1.1035;stroke-linecap:round;" d="M47.7,175.7c0.5,0.3,1.2,0.6,1.9,1.2"/>
		<path style="fill:none;stroke:#000000;stroke-width:0.6997;stroke-linecap:round;" d="M46.6,170.4c-1.8,0-3-1.5-4.2-2.6"/>
		<path style="fill:none;stroke:#000000;stroke-width:1.1384;stroke-linecap:round;" d="M46.6,170.4c0.3-1.6-0.8-2.8-1.2-4.2"/>
		<path style="fill:none;stroke:#000000;stroke-width:1.2427;stroke-linecap:round;" d="M46.6,170.4c1.2,4.5,7.1,2.5,7.8,7.4"/>
		<path style="fill:none;stroke:#000000;stroke-width:1.2077;stroke-linecap:round;" d="M119.4,183c3.5,1.9,7.1,7.4,11.1,6.2"/>
		<path style="fill:none;stroke:#000000;stroke-width:0.916;stroke-linecap:round;" d="M130.5,189.1c-1-1.7-0.6-4.1,1.2-5"/>
		<path style="fill:none;stroke:#000000;stroke-width:0.8314;stroke-linecap:round;" d="M65.7,110.3c0.6-0.7,1.5-0.4,2.2-0.8"/>
		<path style="fill:none;stroke:#000000;stroke-width:1.5263;stroke-linecap:round;" d="M66.4,112.3c-0.4-0.2-0.8-0.8-1-1.2
			c0.1-0.4,0.3-0.7,0.3-0.8"/>
		<path style="fill:none;stroke:#000000;stroke-width:0.6482;stroke-linecap:round;" d="M65.7,110.3c0-1.5,1.3-2.7,2.6-3"/>
		<path style="fill:none;stroke:#000000;stroke-width:0.728;stroke-linecap:round;" d="M70.2,175.9c-0.2-0.9,0.5-1.6,0.7-2.4
			c0.3-0.3,0.6-0.3,1-0.2c0.2,0.4,0.2,1,0.2,1.5l-0.2,0.3"/>
		<path style="fill:none;stroke:#000000;stroke-width:1.4795;stroke-linecap:round;" d="M73.6,176.4c0.3,0,0.6,0.1,1,0.2"/>
		<path style="fill:none;stroke:#000000;stroke-width:0.8314;stroke-linecap:round;" d="M87.5,177.8c-0.2-0.5-0.4-0.9-0.5-1.4"/>
		<path style="fill:none;stroke:#000000;stroke-width:1.192;stroke-linecap:round;" d="M90.9,177.8c-0.6-0.8-0.8-1.6-1.2-2.4"/>
		<path style="fill:none;stroke:#000000;stroke-width:2.0121;stroke-linecap:round;" d="M90.9,177.8c0.3,0,0.4,0,0.4,0
			c0.3-0.2,0.4-0.9,0.3-1.4"/>
		<path style="fill:none;stroke:#000000;stroke-width:1.7745;stroke-linecap:round;" d="M90.9,177.8c-0.2,0.3-0.3,0.6-0.5,1"/>
		<path style="fill:none;stroke:#000000;stroke-width:1.0615;stroke-linecap:round;" d="M92.3,182.6c3.1,1.3,5.5,4.4,8.9,4.1
			c0.7-1.6-0.2-3.2,0-4.8"/>
		<path style="fill:none;stroke:#000000;stroke-width:1.0733;stroke-linecap:round;" d="M89,185.5c0.5,0.3,0.7,0.5,1,0.7"/>
		<path style="fill:none;stroke:#000000;stroke-width:1.44;stroke-linecap:round;" d="M78.4,182c-1,0.5-2.2,1.3-3.4,1
			c-0.7-0.5-0.9-1.1-1.1-1.8"/>
		<path style="fill:none;stroke:#000000;stroke-width:1.27;stroke-linecap:round;" d="M60.6,183.4c1.2,0.2,2.3-0.3,3.4-0.9"/>
		<path style="fill:none;stroke:#000000;stroke-width:1.0961;stroke-linecap:round;" d="M59.2,173.5c-1.1-1-1.6-2.6-2.4-3.8"/>
		<path style="fill:none;stroke:#000000;stroke-width:1.0422;stroke-linecap:round;" d="M60.6,171.1c-0.7-0.3-0.9-1.1-1.2-1.7"/>
		<path style="fill:none;stroke:#000000;stroke-width:0.842;stroke-linecap:round;" d="M60.9,167.5c0.2,1.3,1.1,2.4,1,3.8"/>
		<path style="fill:none;stroke:#000000;stroke-width:1.3291;stroke-linecap:round;" d="M63.5,171.8c0.5-0.4,0.7-0.8,1-1.1"/>
		<path style="fill:none;stroke:#000000;stroke-width:0.6499;stroke-linecap:round;" d="M65,174.5c1.1-2.5,2.3-4.9,2.9-7.7"/>
		<path style="fill:none;stroke:#000000;stroke-width:0.8127;stroke-linecap:round;" d="M155.9,175c0.5-1.4,1.9-2.3,2.2-3.8"/>
		<path style="fill:none;stroke:#000000;stroke-width:1.4508;stroke-linecap:round;" d="M157.6,177.8c2.1-3.4,3.6-7.1,6.4-10"/>
		<path style="fill:none;stroke:#000000;stroke-width:1.27;stroke-linecap:round;" d="M157.6,177.8c-0.4,1.6,1,2.7,1,4.2"/>
		<path style="fill:none;stroke:#000000;stroke-width:1.5179;stroke-linecap:round;" d="M158.6,182l1,0.3"/>
		<path style="fill:none;stroke:#000000;stroke-width:1.3188;stroke-linecap:round;" d="M161.6,180.7c-1.1-1.7-0.8-6.1,2-5.1
			c0.2,0.5,0.2,1.1,0.2,1.7"/>
		<path style="fill:none;stroke:#000000;stroke-width:1.1538;stroke-linecap:round;" d="M169,179.5c-0.9-0.7-1.1-1.8-1.8-2.6"/>
		<path style="fill:none;stroke:#000000;stroke-width:1.0335;stroke-linecap:round;" d="M169,179.5c1.1-0.2,2,1,3,0.2"/>
		<path style="fill:none;stroke:#000000;stroke-width:1.067;stroke-linecap:round;" d="M172,179.8c0.5-1.7,1.9-3.2,3.4-4.3"/>
		<path style="fill:none;stroke:#000000;stroke-width:0.72;stroke-linecap:round;" d="M179.4,176.9c0.3,0.9,0.7,1.7,1.2,2.4"/>
		<path style="fill:none;stroke:#000000;stroke-width:1.6278;stroke-linecap:round;" d="M157.2,187.6c0.5-0.2,0.7-0.4,1-0.5"/>
		<path style="fill:none;stroke:#000000;stroke-width:1.5179;stroke-linecap:round;" d="M158.6,182c-0.8,0.3-1.6,0-2.4,0.3"/>
		<path style="fill:none;stroke:#000000;stroke-width:0.5879;stroke-linecap:round;" d="M155.7,185h-1"/>
		<path style="fill:none;stroke:#000000;stroke-width:0.8314;stroke-linecap:round;" d="M149.4,188.9c-0.3-0.5-0.6-1-1-1.4"/>
		<path style="fill:none;stroke:#000000;stroke-width:1.4022;stroke-linecap:round;" d="M143.7,185.5c-0.8,0.2-1.6,1.3-2.5,0.6
			c-0.7-1.7,0-3.7-0.6-5.4"/>
		<path style="fill:none;stroke:#000000;stroke-width:1.2924;stroke-linecap:round;" d="M144.5,183.1c0.3-1.1,0.3-2.3,0.6-3.4"/>
		<path style="fill:none;stroke:#000000;stroke-width:0.6788;stroke-linecap:round;" d="M151.8,181.7c-0.1-0.7,0.1-1.5,0.2-1.9"/>
		<path style="fill:none;stroke:#000000;stroke-width:1.3339;stroke-linecap:round;" d="M150.9,176.2c-0.7,0.1-1.2,0.3-1.6,0.4
			c-0.9-1.2-1.5-3-1.6-4.5"/>
		<path style="fill:none;stroke:#000000;stroke-width:1.4704;stroke-linecap:round;" d="M152.5,170.6c-0.5-1.2,0.3-2.8-0.6-3.8"/>
		<path style="fill:none;stroke:#000000;stroke-width:1.2496;stroke-linecap:round;" d="M154.5,169.7c0-1.5,1.1-2.7,0.7-4.3"/>
		<path style="fill:none;stroke:#000000;stroke-width:1.1452;stroke-linecap:round;" d="M174.7,180.2c1-1,2-2,2.7-3.3"/>
		<path style="fill:none;stroke:#000000;stroke-width:0.96;stroke-linecap:round;" d="M172,179.8l1,1"/>
		<path style="fill:none;stroke:#000000;stroke-width:1.7307;stroke-linecap:round;" d="M173.9,182.2l1.4,1"/>
		<path style="fill:none;stroke:#000000;stroke-width:0.9992;stroke-linecap:round;" d="M175.4,183.1c0.7-1,1.5-1.7,2.2-2.6"/>
		<path style="fill:none;stroke:#000000;stroke-width:1.4102;stroke-linecap:round;" d="M175.4,183.1c-0.2,0.9-0.8,1.9-0.3,2.8
			c0.9,0.7,1.9-0.1,2.7-0.4"/>
		<path style="fill:none;stroke:#000000;stroke-width:1.1085;stroke-linecap:round;" d="M157.6,177.8c-0.8,0.2-1.6,0.3-2.4,0"/>
		<path style="fill:none;stroke:#000000;stroke-width:0.8701;stroke-linecap:round;" d="M169.1,184.8c0.7-0.2,1.3-0.4,1.9-0.7"/>
		<path style="fill:none;stroke:#000000;stroke-width:0.8542;stroke-linecap:round;" d="M169,179.5c-0.1,0.3-0.3,0.9-0.8,1.7"/>
	</g>
</g>
</svg>
