<?xml version="1.0" encoding="utf-8"?>
<!-- Generator: Adobe Illustrator 22.1.0, SVG Export Plug-In . SVG Version: 6.00 Build 0)  -->
<svg version="1.1" id="Layer_1" xmlns="http://www.w3.org/2000/svg" xmlns:xlink="http://www.w3.org/1999/xlink" x="0px" y="0px"
	 viewBox="0 0 612 792" style="enable-background:new 0 0 612 792;" xml:space="preserve">
<path d="M-13,367c2.8-2.6,2-6.4,3-9.6c4.1-12.7,11-22.6,24.8-25.8c0.8-0.2,1.6-0.5,2.4-0.6s1.6,0,2.7,0c-2.2,2.8-4.4,5.2-6.3,7.9
	c-8.1,11.9-4.5,24.8,8.9,29.9c10.5,4,21.5,4.5,32.7,1.7c25.8-6.6,50.6-15.9,76-23.8c25.2-7.9,50.6-15.2,76.7-19.3
	c19.8-3.2,39.7-3.7,59.5-0.2c8.1,1.4,14,6.5,20.1,11.3c4.3,3.4,8.7,6.7,12.7,10.5c2.4,2.3,4,1.9,6.1-0.1c6-5.8,11.3-12.2,17.6-17.7
	c12.7-10.9,26.9-16.1,43.9-14.6c15.4,1.4,30.9,1.4,46.3,2.6c22.4,1.7,44,6.9,65.3,14c10.8,3.6,21.6,7.1,32.9,9
	c1.4,0.2,2.8,1.1,4,1.9c17,10.7,35.8,12.4,55.1,10.5c9.5-0.9,19-3,28.4-4.6c1.1-0.2,2.2-0.6,3.3-0.9c5-1.7,5.8-3.6,2.6-7.9
	c-3.7-4.9-7.9-9.4-11.6-14.3c-4.2-5.4-7-11.5-7.7-18.6c16.3,16.6,33.2,32.6,40.5,55.8c0,5,0,10,0,15c-2.8,6.6-3.8,13.8-7,20.3
	c-1.9,3.8-3.7,7.6-6,12.4c-1.6-7.4-1.3-13.9-0.6-20.3c0.6-5.3,1-10.6,0.6-15.9c-0.6-8.7-6.1-13.8-15-14.5c-7.3-0.6-14.2,1-21,3.2
	c-11.6,3.9-22.6,9.4-35.1,10.1c-1.7,0.1-2.9,1.4-4.3,2.4c-31.1,22.1-61.6,45.1-94.1,65.2c-26.2,16.3-53.2,30.7-83.3,38.5
	c-20.6,5.4-41.6,6.8-62.7,6.1c-61.4-2-117.5-22.1-171.4-50c-25.3-13.1-49.8-27.6-72.9-44.5c-9.7-7.1-20.4-12.1-32.2-15
	c-11.8-2.8-15.3-1.5-21.1,9.5c-4.1,7.7-6.6,16.1-9.7,24.9c-2.5-6.2-2-12.7-4.4-18.4C-13,384.3-13,375.7-13,367z M377,334.1
	c-2.7-0.1-5.4-0.2-8,0.8c-1,0.1-2,0.2-3,0.3c-1.4-0.2-2.8,0-4,0.8c-0.7,0.1-1.3,0.1-2,0.2c-1.1-0.1-2.1,0.1-3,0.8
	c-11.8,2.3-22.2,7.3-30.7,16c-6.6,6.8-13,13.8-19.3,20.9c-2.3,2.6-3.8,2.5-6.4,0.3c-8.8-7.4-17.5-14.8-26.7-21.7
	c-11.9-8.8-25-13.6-40.2-10.4c-36.2,7.7-72.4,15.4-108.6,23.1c-1,0.2-2,0.5-3,0.7c-0.7,0.1-1.3,0.1-2,0.2c-1.4-0.2-2.8,0.1-4,0.8
	c-0.7,0.1-1.3,0.1-2,0.2c-1.7-0.2-3.4,0.1-5,0.8c-0.7,0.1-1.3,0.1-2,0.2c-2.1-0.2-4.1,0-6,0.8c-1,0.1-2,0.1-3,0.2
	c-1.4-0.1-2.9-0.5-4.1,0.7c-0.7,0.3-1.3,0.7-2,1c-3.4,1.3-6.9,2.6-10.3,6.1c4.8-0.4,8.6-0.6,12.3-0.9c0.7,0,1.3,0,2,0
	c10,1.9,20,3.8,30,5.7c17.3,3.4,34.7,6,52.3,8c18.2,2,36.4,4.3,54.7,4.3c3.2,1.4,6.6,1,10,0.8c5,0.1,10,0.1,15,0.2c14,0.9,28,1,42,0
	c5-0.1,10-0.1,15-0.2c3.7,0.6,7.4-0.2,11-0.8c3-0.1,6-0.1,9-0.2c2.1,0.5,4.1-0.1,6-0.7c21.8-0.7,43.4-3.6,65-6.7
	c24.2-3.4,48.3-7.8,72-13.7c5,0,10,0,14.9,0.1c6.1,0.3,12.3,1.2,18.3-0.8c1.8-0.6,3.4-1.8,3.6-3.7c0.3-2-1.7-2.3-2.9-2.9
	C485.4,352,457,343.8,428,338c-1.2-0.7-2.6-1-4-0.8c-0.7-0.1-1.3-0.2-2-0.2c-2.9-1.1-5.9-1.6-9-1.8c-0.7-0.1-1.3-0.1-2-0.2
	c-1.6-0.8-3.3-1-5-0.8c-1-0.1-2-0.1-3-0.2c-7-1-14-0.9-21,0C380.3,334,378.7,334.1,377,334.1z M267,466.1c1.2,0.8,2.6,0.9,4,0.8
	c1,0.1,2,0.2,3,0.2c1.6,0.8,3.3,0.9,5,0.8c1,0.1,2,0.1,3,0.2c2.3,0.8,4.6,1,7,0.8c1.7,0.1,3.3,0.1,5,0.2c11.7,1.4,23.3,1.4,35,0
	c1.3-0.1,2.7-0.1,4-0.2c2.4,0.1,4.8,0.3,7-0.8c1-0.1,2-0.1,3-0.2c1.7,0.1,3.4,0.1,5-0.8c5.5-0.2,10.9-1.5,16.2-2.7
	c49.8-10.8,91-36.4,125.8-73c0.9-1,2.5-1.6,2.4-3.6c-1.6,0.3-3,0.5-4.5,0.9c-25.7,5.5-51.5,10.3-77.6,13.5
	c-15.3,1.9-30.7,3.6-46,5.4c-1.8-0.4-3.6,0-5.3,0.4c-2.3,0.1-4.7,0.2-7,0.3c-0.4,0.3-0.7,0.5-1.1,0.8c-1.9,0-3.9-0.1-5.8-0.1
	c-0.4,0-0.7,0-1.1,0.1c-3,0.1-6,0.2-9,0.2c-0.4,0.3-0.7,0.5-1.1,0.8c-3.3,0-6.5-0.1-9.8-0.1c-0.7,0-1.4,0.1-2.1,0.1
	c-9.3,0.1-18.7,0.2-28,0.3c-4.3,0-8.6,0-13,0c-7.7-0.1-15.3-0.2-23-0.3c-0.7,0-1.4,0-2.1-0.1c-7,1-13.9-1.7-20.9-0.9
	c-0.7,0-1.4-0.1-2.1-0.1c-4.7,0.9-9.2-1.7-13.9-0.9c-2.4-0.4-4.9-0.9-7.4-0.4c-4.1-0.5-8.2-1.1-12.3-1.5c-27.1-2.1-54-5.3-80.9-8.6
	c-9.2-1.1-18.3-2.4-27.5-3.5c7.6,5,15.5,9.2,23.3,13.5c31,16.9,61.8,34,95.6,45C228.5,458.6,247.4,463.7,267,466.1z"/>
</svg>
