<?xml version="1.0" encoding="utf-8"?>
<!-- Generator: Adobe Illustrator 22.1.0, SVG Export Plug-In . SVG Version: 6.00 Build 0)  -->
<svg version="1.1" id="Layer_2_1_" xmlns="http://www.w3.org/2000/svg" xmlns:xlink="http://www.w3.org/1999/xlink" x="0px" y="0px"
	 viewBox="0 0 612 792" style="enable-background:new 0 0 612 792;" xml:space="preserve">
<path d="M593,222.3c-6.9-4.7-14.2-8.6-21.9-11.6c-12.5-4.8-25.2-7-38.5-4.1c-19.5,4.3-33.1,16.5-42.7,33.2
	c-4.5,7.8-11,9.7-18.9,10.1c-0.7,1.4-1.3,2.9-2,4.3c3.7,0,7.3-0.5,10.8-1.6c5.6-1.9,10-4.5,13.2-10.3c8.7-15.6,21.2-27.3,39.3-31.6
	c16.7-4,31.9,0.5,46.7,7.9c1.9,1,3.7,2.1,5.5,3.2c7.7,4.4,14.9,9.9,24,11.5c3.7,0.7,7.4,1.3,11.7,2.1c-8.9,10.4-18.7,19.3-29.7,26.8
	c-6,4.5-11.9,9-19.3,10.9c-16.8,9-34,10.2-51.6,2.4c-9.6-4.3-17.3-11.1-24-19c-6-7-3.4-6.2-12.1-2.9c-4.2,1.6-8.3,3.3-12.5,5
	c-1.1,0.4-2.4,1.6-3.3-0.4c-2.4,1.7-1.9,4.5-2.5,6.8c7.1-2.8,14.1-5.6,21.2-8.3c1.4-0.6,2.8-1.8,4.4,0.1
	c5.8,7.2,12.5,13.6,20.2,19.1c-8.7-1.8-17.2-3.6-25.9-3.3c-7.3,0.3-14.6,0.2-21.8-1.5c-1.4,1-1,2.4-1,3.8
	c10.3,2.9,20.9,0.6,31.3,2.1c18.7,2.7,35.4,9.9,50.6,21.4c15.5,11.7,27.3,26,34.7,43.9c1,2.4,1.8,5,2.6,7.5
	c5.1,13.3,7.4,27.2,7.7,41.4c0.5,6.3,0.6,12.6,0,19c-0.2,8.7-0.1,17.5-3.4,25.7c-0.6,1.6,1.6,3.2-0.6,4.4
	c-0.1,9.6-3.2,18.6-5.8,27.7c-3.2,11.2-6.8,22.2-12.1,32.7c-20.4,45.2-52.2,76.8-102.9,85.7c-32.2,5.7-63.6,1-94.7-7.5
	c-19.6-5.4-38.7-12.3-56.8-21.6c-1.5-0.7-2.9-1.5-4.7-2.5c9.7-6.5,18.4-13.7,26.3-21.8c0.7-0.7,1.3-1.3,2-2c0.2-0.2,0.5-0.5,0.7-0.7
	c0.8-0.8,1.5-1.7,2.3-2.5c0.1-0.1,0.2-0.2,0.3-0.4c0.7-0.8,1.3-1.5,2-2.3c0.1-0.1,0.1-0.1,0.2-0.2c0.7-0.8,1.4-1.7,2.1-2.5
	c0.7-0.9,1.4-1.8,2.1-2.6c0,0,0-0.1,0.1-0.1c0.5-0.6,0.9-1.1,1.3-1.7c0.1-0.1,0.2-0.3,0.3-0.5c0.5-0.6,0.9-1.2,1.4-1.9
	c0.4-0.6,0.9-1.2,1.3-1.8c0.3-0.4,0.6-0.8,0.9-1.3c0.2-0.3,0.5-0.7,0.7-1c0.5-0.7,0.9-1.4,1.4-2.1c1.8-2.6,3.5-5.3,5.1-8
	c0.4-0.6,0.8-1.3,1.1-1.9c1-1.7,2-3.4,3-5.1c0.5-0.9,1-1.7,1.5-2.6s1-1.7,1.4-2.6c0.2-0.4,0.4-0.8,0.6-1.2c0.2-0.4,0.4-0.8,0.6-1.2
	c0.4-0.8,0.8-1.6,1.2-2.4c0.8-1.6,1.5-3.3,2.3-4.9c0.5-1,1-2.1,1.4-3.2c0.4-1,0.9-2,1.3-3c0.6-1.4,1.2-2.8,1.8-4.2
	c0.4-1,0.8-2,1.2-3c0.4-0.8,0.7-1.7,1-2.5c0.5-1.3,1-2.6,1.5-3.8c0.6-1.7,1.3-3.3,1.9-5v-0.1c0.6-1.7,1.2-3.3,1.8-5
	c3-12.9,6.5-25.8,7.5-39.1c0.2-2.6,0.6-5.2,1-7.9c-0.1-5.1-0.2-10.2-0.3-15.3c0-0.7,0-1.4-0.1-2c0-1-0.1-2-0.1-3
	c-0.2-1.3-0.3-2.5-0.5-3.8c-1.8-18.8-6.6-36.7-14.4-53.9c-4.2-9.2-9.2-18-14.9-26.4c-1-1.5-2.5-2.8-2.4-4.8
	c-4.9-5.5-9.8-11.1-14.8-16.5c-6.7-7.3-14.3-13.7-22.5-20.3c14.4-7.8,29.3-11.9,45.1-12.8c27.5-0.7,53.7,2.9,75.8,21.3
	c3.6,3,7.6,5.4,11.9,7.2c0.8-1.3,1.5-2.5,1.5-4.1c-5.5-1.4-9.6-5.1-13.9-8.4c-6.5-5-13.2-9.7-21-12.2
	c-34.1-11.3-67.7-11.8-100.5,4.9c-1.3,0.7-2.6,1.8-4.1,0.7c-11-7.8-22.9-13.7-36-18.1c19-19.7,30.5-43,38.9-68.1
	c1-3.1,2.6-6.1,1.6-9.6h-3c-10.4,6.2-21.7,8-33.5,6.4c-8.1-1.1-16.1-2.5-24.3-2.7c-15.7-0.3-30.9,1.9-44.6,10
	c-21,12.3-30.7,31.8-34.8,54.9c-0.7,3.9,0.4,8.3-2,11.5c-3.5,4.6-7.7,8.7-13.2,11c-1,1.6-0.5,3.4-0.5,5.2c7-2.9,12.3-7.9,17.1-13.5
	c1.4-1.6,1.7-3.4,1.9-5.5c0.9-12.1,3.6-23.7,9.4-34.4c12.4-23.1,32.6-33.7,58.1-34.9c6.5-0.3,13-0.7,19.4,0.8c8,0.5,15.9,2.8,24,2.2
	c1.3-0.1,2.7-0.2,4-0.2c1-0.2,1.9-0.4,2.9-0.6c4.3-1.2,8.7-2.3,13-3.5c0.2-0.1,0.4-0.3,0.6-0.5c0,0.3,0,0.7,0,1l0,0
	c-0.2,0.6-0.3,1.2-0.5,1.7c-0.2,0.7-0.4,1.4-0.7,2.1c-0.2,0.7-0.4,1.4-0.7,2.1c-0.2,0.5-0.3,1-0.5,1.5s-0.4,1.1-0.6,1.6
	c-0.3,0.8-0.6,1.5-0.9,2.3c-0.2,0.6-0.4,1.2-0.7,1.7c-0.3,0.7-0.6,1.5-0.9,2.2c-0.2,0.5-0.4,1-0.6,1.5c-0.5,1.2-1.1,2.5-1.6,3.7
	c-0.4,1-0.9,1.9-1.3,2.8c-0.5,1.1-1,2.1-1.6,3.2c-3.8,8.5-8.2,16.6-13.9,24c-3.6,6-8.3,11.2-13.2,16.2c-1.2,1.2-2.4,2.3-4.3,1.8
	c-23-5.9-42.8,2.8-61.9,14c-2.9,1.7-5.3,2.2-8.2,0.8c-4-1.9-8.4-3.3-12.2-5.6s-6.1-1.5-8.8,1.6c-4.5,5.1-9.5,9.8-14.3,14.6
	c-0.7,0.6-1.2,2.4-2.6,0.7c-0.2,2.4-1.3,4.8,0.6,7c6.2-6.2,12.5-12.3,18.7-18.7c1.7-1.8,3-2.4,5.4-1.1c4.1,2.2,8.4,3.9,13.2,6.1
	c-6.5,5-10.9,12.3-20.6,12c-5.5-0.1-11.1,1.8-16.7,2.7c0,1,0.1,2.1,0.1,3.1c7-1.2,14-2.4,22.6-3.9c-8.8,9.6-13.5,19.9-18.7,29.9
	c-0.3,1.3-0.5,2.6-0.9,3.8c-1.9,6-1.9,6-7.1,1.9c-6.7-5-14.5-8.4-21.6-12.9c-6.5-1.1-12.2-4.7-18.8-5.9c11.3-4.4,22.7-7.7,34.4-10.5
	c0-1,0.2-2.1-0.9-2.8c-12.5,2.8-24.6,6.6-36.7,10.7c-2,0.7-4,1.6-6.3,1.2c-11.6-1.9-23.2-1.5-34.8,0.1c-17.9,2.5-33.8,9-46.5,22.5
	c-20.6,22-32.3,48.1-39,76.9c-1.6,6.9-1.7,14-4,20.8v33c2.6,7,2.7,14.4,4.5,21.6c9.9,39.4,32.7,69.9,64.9,93.9
	c1.5,1.1,2.8,2.3,4.2,3.4c1.1,0.7,2.3,1.3,3.4,2c37.2,26.1,78.5,37.7,123.8,35.1c18.7-1.1,36.5-5,52.2-16c4.7-2.7,10-0.7,15-1.7
	c16.3-2,31.8-6.8,46.2-15c2-1.2,3.5-1.1,5.4-0.1c37,18.9,76,30.6,117.5,34c7.6,0,15.3,0,22.9,0c17.3-1.3,34.1-4.8,50.1-11.8
	c17.8-7.8,32.7-19.5,45.9-33.6c4-5.3,8.3-10.4,11.9-16c26.2-40.6,38.4-85.3,38.3-133.5c0-21-3.8-41.3-12.5-60.5
	c-10.7-23.6-28.2-40.7-50.8-52.8c-0.8-0.2-1.7-0.3-2.8-0.5c1.3-1.1,2.3-0.7,3.4-0.4c1.8,0.3,3.6,0.6,5.4,0.8
	c18.9,1.9,35.5-4.6,51.1-14.5c15.3-9.6,28-22.2,40-35.6v-3C614.7,231.7,603.2,229.3,593,222.3z M299.5,554c-0.7,0.5-1.4,1-2.1,1.4
	c-0.7,0.3-1.3,0.7-2,1c-0.7,0.5-1.4,1.1-2.3,0.6c-0.3,1.2-1.1,1.2-2,1c-0.3,1.1-1.3,1.1-2.1,1.4c-0.8,0.2-1.6,0.4-2.4,0.6l0,0l0,0
	l-0.1,0.1c0,0.1-0.1,0.2-0.2,0.2c-0.1,0.2-0.3,0.4-0.5,0.5c0,0-0.1,0-0.1,0.1c-0.1,0.1-0.2,0.1-0.3,0.1h-0.1
	c-0.4,0.1-0.8,0.1-1.2-0.1c-0.1,0.2-0.3,0.4-0.4,0.5c0,0.1-0.1,0.1-0.2,0.2c0,0-0.1,0.1-0.2,0.1c-0.1,0.1-0.2,0.1-0.3,0.1
	c-0.1,0.1-0.2,0.1-0.3,0.1c-0.1,0-0.2,0-0.3,0.1h-0.1c-0.1,0-0.1,0-0.2,0c-0.2,0-0.3,0-0.5,0l0,0c-0.2,0-0.4-0.1-0.5-0.1
	c-0.5,1.2-1.5,1.1-2.5,1c-0.3,0.4-0.7,0.7-1.1,0.9c-0.1,0.1-0.3,0.1-0.4,0.2c-0.2,0.1-0.3,0.1-0.5,0.1c-0.1,0-0.1,0-0.2,0
	c-0.3,0-0.5,0-0.8,0c-0.2,0-0.4-0.1-0.6-0.1c-0.7,1.3-1.9,1.1-3,0.9c-0.1,0.1-0.2,0.2-0.3,0.3c-0.2,0.2-0.3,0.3-0.5,0.4
	c-0.1,0-0.1,0.1-0.2,0.1c-0.1,0.1-0.3,0.2-0.4,0.2s-0.2,0-0.2,0.1c-0.3,0.1-0.6,0.1-0.9,0.1c-0.5,0-1-0.1-1.5-0.2
	c-1.2,1.5-3.1,0.9-4.7,1.4l0,0c-0.7,0.2-1.4,0.3-2.1,0.5c-0.7,0.1-1.4,0.3-2.1,0.4c-1,0.2-2.1,0.3-3.2,0.4c-0.7,0.1-1.4,0.1-2.1,0.2
	c-4.9,0.4-9.9,0.3-14.9,0.1c-0.1,1.6-1.5,1.9-2.6,2.7c-0.3,0.3-0.6,0.5-0.9,0.8c-1.7,1-3.4,2.1-5.1,3.1c-2,1-4,2-6,3
	c-0.7,0.3-1.4,0.6-2,0.9c-1,0.4-2,0.7-3,1.1c-1,0.3-2,0.7-3,1s-2,0.6-3,1c-1.3,0.3-2.7,0.7-4,1c-1.7,0.3-3.3,0.7-5,1
	c-32.8,5.2-64.8,2-96-9.5c-1.9-0.7-4.2-1.1-5.4-3.1l0,0c-6.6-1.8-12.6-4.8-18-9l0,0c-1,0.2-1.7,0-2-1c-2.1-0.2-3.9-1.1-5-3l0,0
	c-0.7,0.1-1.2,0-1.1-0.9c-1.9,0.4-3-0.6-3.9-2.1c-0.7,0.1-1.2-0.1-1.1-0.9c-1,0.3-1.7,0-1.9-1.1c-0.7,0.1-1.2-0.1-1.1-0.9
	c-1,0.3-1.7,0-1.9-1.1c-0.7,0.1-1.1-0.1-1.1-0.9c-1,0.3-1.7-0.1-1.9-1.1c-0.7,0.1-1.1-0.1-1.1-0.9c-1,0.3-1.6-0.1-1.9-1.1
	c-0.8,0-1.2-0.3-1.1-1.2c-4.2-3.2-8.4-6.5-12.6-9.7c-3.6-2.5-7.1-5.2-9.4-9.1l0,0c-0.7,0.1-1.1-0.3-1-1l0,0c-0.7,0.1-1.1-0.3-1-1
	l0,0c-0.7,0.1-1-0.3-1-1l0,0c-0.7,0.1-1-0.3-1-1l0,0c-0.7,0.1-1-0.3-1-1l0,0c-0.7,0-1-0.3-1-1l0,0c-0.7,0-1-0.3-1-1l0,0
	c-0.3-0.2-0.7-0.5-1-0.7c-0.9-0.9-1.7-1.8-2.5-2.8c-0.3-0.4-0.6-0.7-0.9-1.1c-0.2-0.5-0.4-0.9-0.6-1.4c-0.7,0-1-0.4-1-1.1
	c-0.9-0.1-1.2-0.9-1.6-1.5c-0.3-0.4-0.6-0.7-0.8-1.1c-0.7-1-1.4-1.9-2.2-2.9c-0.3-0.4-0.5-0.8-0.8-1.2c-0.7-1-1.4-2-2.1-2.9
	c-0.7-1-1.3-2-2-3c-1-1.6-2-3.3-3.1-4.9l0,0c-1.3-2.4-2.6-4.7-3.9-7.1c-0.3-0.7-0.7-1.3-1-2c-0.6-0.7-1-1.4-0.7-2.3l0,0
	c-3.4-3.8-4.7-8.7-6.3-13.3c-13.7-38.3-12.2-76.3,1.9-114.2c0.4-1,0.8-1.9,1.2-2.8c0.3-0.7,0.6-1.4,0.9-2.1c0.4-1,0.8-1.9,1.2-2.8
	c0.6-1.4,1.2-2.8,1.8-4.1c0.3-0.7,0.7-1.4,1-2c0.3-0.7,0.6-1.4,0.9-2c0.3-0.7,0.7-1.3,1-2l0,0c0.3-0.6,0.7-1.3,1.1-1.9
	c0.7-1.3,1.4-2.6,2.2-3.9c0.4-0.6,0.7-1.3,1.1-1.9c0.3-0.4,0.5-0.8,0.7-1.3c0.4-0.6,0.8-1.2,1.2-1.8c0.2-0.4,0.5-0.8,0.7-1.2
	c0.4-0.6,0.8-1.2,1.2-1.8c0.7-1,1.4-2,2.1-3c0.3-0.4,0.5-0.8,0.8-1.2l1.3-1.7c0.3-0.4,0.5-0.8,0.8-1.2c0.3-0.4,0.5-0.8,0.8-1.2
	c0.5-0.5,1-1.1,1.4-1.6c0.3-0.4,0.6-0.7,0.9-1.1s0.6-0.7,0.9-1.1s0.6-0.8,0.9-1.1c0.3-0.4,0.6-0.7,0.9-1.1c1.5-1.5,3-3.1,4.5-4.6
	l1-1c0.3-0.3,0.7-0.7,1-1c0.5-0.5,1.1-1,1.6-1.5c0.3-0.3,0.6-0.6,1-0.9c0.8-0.6,1.5-1.2,2.3-1.8c0.4-0.3,0.7-0.6,1.1-0.9
	c0.7-1,1.7-1.8,2.9-2.1c0.8-1,1.8-1.7,3-2c8.9-6.2,19.3-8.1,29.6-9.6c32.7-4.8,62.1,3.1,87.5,24.6c3.7,3.1,4.4,1.3,5.4-2.2
	c9.9-35.9,33.3-58.6,68.4-69.7c10.2-4.3,20.6-4.5,31.2-2.1c12.2,2.8,23.8,6.8,34,14.3c0.7-0.1,1.2,0.1,1.1,0.9c1-0.3,1.7,0,1.9,1.1
	c2.2,0.1,3.8,1.3,5,3c1.2,0.1,2.2,0.4,2.1,1.9c1-0.3,1.7,0,1.9,1.1c0.7-0.1,1.1,0.1,1.1,0.9c1-0.3,1.6,0.2,1.9,1.1c0.6,0,1,0.3,1,1
	c1.2,0.1,2.2,0.4,2.1,1.9c1-0.3,1.6,0.2,1.9,1.1h0.1h0.1c0.1,0,0.1,0,0.2,0c0.4,0.1,0.6,0.4,0.6,0.9c1.5,0.2,1.3,1.4,1.2,2.4v0.4
	c6.9,4.2,12.5,9.7,17.4,16c0.9-0.2,1.3,0.3,1.4,1.1c0.7,0,1,0.3,1,1c0.7,0,1,0.4,1,1c0.9,0.3,1.4,0.9,1.1,1.9c0.8-0.1,1,0.3,0.9,1
	c0.8,0,1,0.4,0.9,1.1c0.7,0,1,0.4,1,1c1,0.3,1.4,0.9,1.1,1.9c0.8-0.1,1,0.4,0.9,1c0.7,0,0.9,0.4,0.9,1l0,0c1.3,0.6,2,1.6,2,3
	c1,0.3,1.3,0.9,1.1,1.9c0.8,0,0.9,0.4,0.9,1.1c1.5,0.9,2.5,2,2.1,3.9c0.8-0.1,1,0.4,0.9,1.1c1.1,0.3,1.4,1,1.1,2
	c0.8-0.1,0.9,0.4,0.9,1.1c1,0.3,1.2,1,1,2l0,0c5.8,7.2,8.8,15.9,11.9,24.3c15.8,43.2,12.4,85.8-4.5,128c-3.9,9.7-8.6,19.1-13.7,28.2
	c-0.7,1.2-1,2.9-2.6,3.4c-0.2,2.1-1.1,3.9-3,5c0.1,1.5-0.5,2.6-2,3c0.3,1,0,1.7-1.1,2c0,1.4-0.6,2.5-2,3c0,0.7-0.2,1.1-1,1
	c0.1,1.5-0.7,2.5-2,3c-0.2,1.9-1.4,3.1-3,4c0,0.7-0.2,1.1-1,1c0.1,0.7-0.2,1.1-0.9,1.1c0,1.3-0.5,2.2-2,2c0.3,1.1-0.2,1.6-1.2,1.9
	c0,0.6-0.3,1-1,1c-0.1,1.3-1.1,1.9-2,2.5C323,537.8,312.1,547,299.5,554z"/>
<path d="M491.8,216.1c-8,10.6-14.8,21.9-20.8,33.8c-0.7,1.4-1.3,2.9-2,4.3c-0.5,1.3-1,2.5-1.6,3.8c-2.4,1.7-1.9,4.5-2.5,6.8
	c-1.1,1.9-2,3.8-2,6.1c-1.4,1-1,2.4-1,3.8c-2.6,4.8-3.3,10-3.9,15.3c-0.4,3.3-0.6,6.6-1.2,9.9c-0.6,3,0.9,4.2,3.3,5
	c-1.1,0.3-2.4-0.1-3.2,1.1H451c-0.3-0.5-0.6-0.6-0.9-0.1c-11.1-4.2-18.4-12.4-23.3-23c2.2-0.3,2.5,1.8,3.4,2.9
	c4.3,5.1,9.4,9.3,15.1,12.9c2.6,1.7,3.3,0.9,3.6-1.9c0.4-3.6,1.2-7.2,1.8-10.8c0.9-4.7,1.8-9.4,2.7-14.1c0.8-1.3,1.5-2.5,1.5-4.1
	c4.5-19.8,10.3-39,21.7-56.1c1.3-2,2.2-5.3,5.6-4.8c4.2,0.6,7.8,2.8,10.7,5.9C494.3,214.3,492.5,215.2,491.8,216.1z"/>
<path d="M589,244c-3-0.4-5.9-0.8-8.9-1.2c-1-0.2-2.1-0.4-3.1-0.6c-1-0.1-2-0.2-3-0.3c-12.1-2-24.2-1.5-36.3-0.4
	c-14,1.3-27.9,3.8-41.5,7.4c-1.5,0.4-3.5,1.5-4.1-0.9c-0.5-2,1.5-2.4,2.8-2.7c26.4-6.7,53.1-10.8,80.4-7.5c3.3,0.4,6.5,1,9.8,1.5
	C586.7,240.7,591.6,239.2,589,244z"/>
<path d="M580.1,242.8c-1.4,1.7-2.5,1.6-3.1-0.6C578,242.4,579.1,242.6,580.1,242.8z"/>
<path d="M164.6,248.3c-1,1.6-0.5,3.4-0.5,5.2c0.1,1.9,0.2,3.7,0.3,5.6c-0.2,2.4-1.3,4.8,0.6,7c0,0.4,0,0.8,0,1.2
	c0,1,0.1,2.1,0.1,3.1c0.2,8.8,2,17.4,3.9,26c-0.3,1.3-0.5,2.6-0.9,3.8c-1.9,6-1.9,6-7.1,1.9c-0.8-6.5-2.5-12.7-4.1-19
	c-0.3-3.5-0.8-6.9-2-10.2c0-1,0.2-2.1-0.9-2.8c0.2-8.6-2.2-17-2.6-25.6c-0.7-13.5-1.5-26.9,1.4-40.2c1.6-7,2-7.4,9.3-7.1
	c1.5,0.1,2.9,0.5,4.4,0.6c4,0.4,5,2,4,6.2C166.9,218.4,164.9,233.2,164.6,248.3z"/>
<path d="M258,411.5c-0.1-0.7-0.1-1.4-0.1-2.2l0,0c0-0.1,0-0.1,0.1-0.2c0,0.1,0,0.1-0.1,0.2C257.8,410,257.9,410.7,258,411.5z"/>
<path d="M257.9,409.1c0,0.1,0,0.1-0.1,0.2l0,0l0,0C257.9,409.2,257.9,409.2,257.9,409.1z"/>
<path d="M191.9,416.4c-1.2-4.2-2.4-8.3-3.7-12.4l0,0C189.5,408.1,190.7,412.2,191.9,416.4z"/>
<path d="M202.2,476.3c-10.1-18.6-13.3-39.4-19-59.4c-2.4-11.6-4.8-23.3-7.1-35c-0.9-4.8-1.8-9.6-2.6-14.4c4.4,8,7.8,16.3,10.8,24.8
	c1.4,3.8,2.7,7.7,3.9,11.6c1.3,4.1,2.5,8.3,3.7,12.4c2,6.9,3.7,13.9,5.2,20.9c0.1,0.6,0.5,1.2,0.8,1.8c1.5,10,3,20,4.7,29.9
	C202.9,471.4,203,473.8,202.2,476.3z"/>
<path d="M254.2,440.6c0.3-8.8-0.4-17.3-3.3-25.7c-3-10.4-7.8-19.8-14.9-28c-1.8-3-4.2-5.5-6.5-8.1c-3.2-3.6-7.3-6.3-9.8-10.5
	c0.1-0.2,0.3-0.3,0.4-0.5c1.6,0.8,3.2,1.6,4.8,2.4c7.7,6.2,15,12.8,21.7,20c3.3,3.6,5,8.4,7.4,12.7c1.2,2.1,1.8,4.7,3.8,6.3l0,0l0,0
	c0,0.7,0,1.5,0.1,2.2c0,0.2,0,0.4,0.1,0.6c0.1,0.6,0.2,1.2,0.3,1.8c0.1,0.3,0.1,0.6,0.2,0.9c0.2,1,0.4,1.9,0.7,2.9
	c0.1,0.5,0.2,0.9,0.3,1.4l0,0c0.1,0.6,0.3,1.2,0.4,1.7c0.2,0.9,0.3,1.8,0.4,2.6c1.7,13.5-2.2,25.4-9.3,36.6c0.3-3.3,1.1-6.4,1.8-9.6
	C253.5,447.2,254.1,444,254.2,440.6z"/>
<path d="M159,484L159,484c-6.1-1.4-10.1-5.8-14.4-9.7c-1.6-1.4-3.1-2.9-4.6-4.4c-8.3-9.8-11.2-21.6-12.9-33.9c0.2-2,0.4-4,0.6-6
	c0-0.7,0.1-1.4,0.1-2.1c1.2-14.7,5.7-28.3,13.2-41l0.1,0.1c-1.5,8.4-4.8,16.4-5.6,25c-0.1,1.3-0.3,2.6-0.4,3.9
	c-0.8,10.7-1.1,21.3,1.6,31.9c3,11.9,9.5,21.6,17.4,30.7C155.6,480.4,157.3,482.2,159,484L159,484z"/>
<path d="M220,407.7c-1.9-2-4.1-3.5-7.1-2.7s-4.2,3.2-4.7,5.9c-1.5,7.4,0.1,14.1,4.5,20.2c7.2,6.1,10.6,5.1,13.5-4
	C226.4,419.9,225.1,413.1,220,407.7z M214.9,423.2c-3.6-2.2-4.1-4.6-1.4-10.2C214.4,416.8,215.7,419.8,214.9,423.2z"/>
<path d="M170.8,421c-5.8-6.7-8.3-6.8-13.3-0.6h-0.1c0.1,0.3,0,0.5-0.3,0.6c-0.2,0.4-0.4,0.7-0.5,1.1c-0.1,0.6-0.3,1.3-0.5,1.9
	c-0.1,5.8-0.5,11.7,2.6,17c1.8,3.1,3.9,6.2,8,5.6c3.8-0.6,5.1-3.9,6.1-7.2C174.7,433,173.1,427,170.8,421z M161.1,433.7
	c-1,0.2-1.5-0.5-2-1.2c-1.8-2.7-1.1-5.3,0.9-9c0.8,3.5,1.4,5.8,1.9,8.2C162.1,432.4,162.2,433.4,161.1,433.7z"/>
<path d="M156.6,422.1c-0.1,0.6-0.3,1.3-0.5,1.9C154.8,423.1,155.1,422.5,156.6,422.1z"/>
<path d="M157.2,421c-0.2-0.2-0.3-0.4-0.5-0.6c0.3,0,0.5,0,0.8,0C157.5,420.7,157.5,420.9,157.2,421z"/>
<path d="M251,460c-0.2,0.1-0.3,0.3-0.4,0.4c0-0.1,0-0.2,0.1-0.3C250.7,460.1,250.9,460,251,460z"/>
<path d="M188.2,404L188.2,404c-1.3-3.9-2.6-7.7-3.9-11.6C185.6,396.2,186.9,400.1,188.2,404z"/>
<path d="M283.9,188.4c-23.8,3.9-44.7,14.5-65,26.8c-9.8,6-19.1,12.7-28.1,19.8c-1.4,1.1-3.1,3.6-5,1.3c-1.8-2.3,1-3.4,2.4-4.5
	c26.8-20.9,55.4-38.3,88.8-46.8c1.8-0.3,3.6-0.5,5.3-0.8c1.4-0.2,2.8-0.2,3.4,1.3C286.4,187,285,187.7,283.9,188.4z"/>
<path d="M141.8,386.1c-0.3,0.3-0.5,0.6-0.7,1L141,387c0.1-0.4,0.2-0.8,0.3-1.2C141.5,385.8,141.6,386,141.8,386.1z"/>
<path d="M127.7,430.1c-0.2,2-0.4,4-0.6,6C125.8,433.9,124.7,431.8,127.7,430.1z"/>
<path d="M213.5,413c0.8,3.8,2.2,6.9,1.4,10.2C211.2,421,210.8,418.6,213.5,413z"/>
<path d="M160.1,423.5c0.8,3.5,1.4,5.8,1.9,8.2c0.1,0.7,0.3,1.8-0.8,2c-1,0.2-1.5-0.5-1.9-1.2C157.4,429.8,158,427.2,160.1,423.5z"/>
</svg>
