<?xml version="1.0" encoding="utf-8"?>
<!-- Generator: Adobe Illustrator 22.1.0, SVG Export Plug-In . SVG Version: 6.00 Build 0)  -->
<svg version="1.1" id="Layer_1" xmlns="http://www.w3.org/2000/svg" xmlns:xlink="http://www.w3.org/1999/xlink" x="0px" y="0px"
	 viewBox="0 0 512 512" style="enable-background:new 0 0 512 512;" xml:space="preserve">
<path d="M278,496.7c-3.2-1.2-2.9-4.7,0.9-9.7c2.7-3.7,3-4.7,2.4-7.9c-0.4-2-0.9-9.8-1-17.2c-0.4-16.5-1.8-22.4-5.7-22.8
	c-3.7-0.4-5.4,3.3-6.1,13.3c-0.6,7.4-0.9,28-0.5,31.5c0.6,5.5-0.2,7.9-3.6,9.9c-3.6,2.2-8.5,2.9-12.3,1.6c-3-0.9-3-5.6-0.1-10.3
	c2.1-3.4,2.1-3.8,0.9-17.6c-0.7-7.8-1.6-16-2-18.2l-0.7-4l-0.8,5c-0.4,2.8-1.8,7.2-3.2,9.8s-2.4,6.5-2.4,8.5s-0.8,5.2-1.8,7.1
	c-1.5,2.9-2.6,3.6-7.2,4.8c-3.2,0.7-8.1,1.1-11.5,0.8c-3.3-0.3-7.6,0-9.5,0.6c-4.8,1.5-20.6,3.9-25.5,3.9c-9.2,0-15.1-4.1-12.6-8.9
	c1.3-2.5,7.3-6.9,11.8-8.7c2.1-0.8,5.3-2.2,7.2-3.1c4.2-1.9,17-14.1,17-16.3c0-0.9,0.6-2.4,1.4-3.5c2.9-4.1,4-13.8,4-37
	c0-12.6-0.3-26.8-0.7-31.4c-0.5-5.2-0.3-12.4,0.4-18.6c1.2-10.7,1.1-11.9-2.9-30.9c-1.5-7.1-2-15-2.5-37.3
	c-0.3-15.6-0.8-28.7-1.1-29.2c-1-1.7-2.6-26-3.1-47c-0.2-11.8-0.8-22.9-1.3-24.5l-0.8-3l-2.8,5.5c-4.2,8.2-7.6,12.3-20.8,25.3
	c-8.1,7.9-12.8,11.8-14.3,11.8s-4.8,2.7-10.2,8.5c-8.2,8.8-11.2,10.4-11.2,6.1c0-4-1.8-3.9-3,0.2c-1.6,5.6-3.1,7.9-7.3,10.7
	c-5.9,4-7,3.6-6.2-2.7c1.8-14,9-26.9,19.1-33.8c2.4-1.7,5.6-5.2,7.1-7.8s5.2-7.2,8.3-10.2s6.7-7.8,8.2-10.5s4.3-8,6.3-11.6
	c2.7-4.8,4.9-11.6,8.2-24.5c2.5-9.8,7.5-26.6,11.2-37.3c4.5-13.1,6.3-19.6,5.5-19.8c-2.4-0.8-1-3.1,5.1-8.3c3.4-3,7-6.3,8-7.4
	c2.2-2.6,2.3-12.2,0.2-21.6c-1.3-5.6-1.4-7.9-0.5-11.4c0.6-2.4,1.1-6.7,1.1-9.5c0-6.7,1.9-10.1,8.3-14.9c8.6-6.3,12.9-8.2,19.5-8.2
	c4.9,0,6.8,0.6,11.8,3.6c6.4,3.8,12.4,9.1,12.4,10.9c0,0.6,1.4,3,3.1,5.3c4.1,5.6,4.8,10.8,2,16.4c-1.2,2.4-2.1,5-2.1,5.8
	c0,2.2-3.8,7.9-7,10.6c-2.7,2.2-2.8,2.7-1.5,4.6c0.8,1.2,2.1,4.9,3.1,8.2c1.6,5.9,1.8,6.1,7.3,8.7c8.7,4.1,16.4,8.6,19,11
	c2.8,2.6,6.4,9.4,8.5,16.2c3,9.7,16.7,48.8,18.6,53c4.2,9.3,4.5,14,1.5,25c-0.8,2.8-2.5,12.4-3.9,21.5s-3.5,19.2-4.6,22.5
	c-2.2,6.5-4.9,11.5-6.1,11.5c-0.4,0-0.8,2.7-0.8,6c0,3.6-0.8,8.1-2,11.3c-1.1,2.9-2,6.7-2,8.5v3.3l3-2.2c2.5-1.9,3.3-2,4.8-1
	c0.9,0.7,2.7,1.7,4,2.2s2.3,1.3,2.3,1.7c0.5,5.4,0.9,7.4,1.8,10.8c0.6,2.2,0.8,5.6,0.5,7.5c-1,6.6-5.1,16.9-9.2,23
	c-3.2,4.8-4.4,7.9-5.6,14.5c-2.1,11.3-5.9,22.7-10.1,30.3s-4.3,9.7-0.7,11.6c4.7,2.4,9.5,2.8,17.8,1.5c4.4-0.7,15.3-1.5,24.4-1.8
	l16.5-0.6l2.8-4.5c4-6.5,6.3-16,6.3-26.5c0-8.1-0.3-9.8-3.4-16.8c-2.9-6.7-3.2-8-2-9.2c3.3-3.2,9.4,3.4,14.1,15.4
	c1.8,4.5,2.2,7.7,2.2,16.5c0,9.8-0.3,12-3.2,20.1c-1.8,5-3.2,10.2-3.2,11.5s1.1,5.6,2.4,9.5s3.4,13.4,4.6,21
	c3.6,23.4,3.9,24.6,7.2,31.3c2.7,5.2,3.2,7.4,2.9,11.5c-0.2,2.8,0.2,7.3,0.8,10.1c1.3,5.9-0.4,16.1-3,17.5
	c-1.8,0.9-9.7,0.7-12.2-0.4c-0.9-0.4-1.9-1.4-2.2-2.2c-0.6-1.6,2.9-6.9,5.1-7.8c2-0.8,1.7-3.9-1.3-12.3c-2.4-6.6-3.3-7.9-7.8-11.3
	c-5.2-3.9-9.1-8.7-12.2-15.3c-3.6-7.7-4.8,0.6-1.3,9.4c2,5,2,5.5,0.5,12.2c-0.9,3.8-1.6,9.2-1.6,11.9c0,8.8-6.1,16-12.8,15.1
	c-6.9-0.9-8.1-1.4-8.7-3.2c-1-3,0.5-5.2,4.6-6.8c3.2-1.3,4-2.2,4.5-5.1c0.8-4.4-1.7-13.8-5.7-21.3c-3.7-6.9-11.5-16-13.7-15.9
	c-0.9,0-4.8,1.7-8.6,3.7c-8.3,4.4-8.1,3.8-9.5,25.9c-0.7,10.7-1.6,17-3.1,21.5c-1.3,3.9-1.9,7.6-1.6,9.6c0.4,2.8,0.2,3.4-1.7,4.1
	C286.7,497.1,280.3,497.6,278,496.7L278,496.7z M281.7,491.8c0.5,0,0.7,0.7,0.3,1.5c-0.4,1,0.1,1.5,1.5,1.5c1.2,0,2.1-0.6,2.1-1.5
	c0-1.8,1.6-2,2.7-0.3c0.5,0.8,1.1-0.7,1.4-3.8c0.3-2.8,1.4-7,2.3-9.3c1-2.7,2-10,2.6-19.1c0.5-8.1,1.2-15.4,1.4-16.2s0.7-3.4,1-5.9
	s0.7-5.4,1-6.5s0.5-3.4,0.5-5c0.1-2.3,0.3-2.7,1.1-1.5c0.5,0.8,0.7,2.7,0.4,4.2s-0.3,3.2,0.1,3.7c0.6,0.9,21.3-9.2,25.5-12.4
	c2.7-2.1,7-3.5,10.5-3.5c5.1,0,8.9,3.9,13.6,13.8c4,8.6,11.5,17.2,16,18.7c1.9,0.6,8,15.6,8,19.7c0,1.2-1.1,3.3-2.4,4.7
	c-3.4,3.5-3.7,6.5-0.8,6.9c1.7,0.2,2.3-0.2,2.3-1.7c0-1.1,0.5-2.3,1-2.6c0.6-0.4,1,0.5,1,2c0,2.1,0.4,2.6,2.1,2.3
	c3.5-0.5,5.2-7.7,3.8-16c-0.7-3.7-0.9-8.4-0.6-10.5c0.5-3,0.1-4.7-1.9-8.1c-3.9-6.7-5.3-11.5-6.4-22.6c-1.4-13.8-5.4-31-8.8-37.7
	c-3.7-7.4-3.8-7.7-2-6.2c1.4,1.2,1.9,0.2,4.7-8.5c4.4-13.7,5-24.6,2-33.9c-2.4-7.4-7.2-15.9-9.6-16.8c-2-0.8-1.8,0.7,0.9,6.2
	c3.6,7.1,4.6,15.9,2.9,25.6c-2,11.7-4.9,19.6-8.4,23.1l-3.1,3l-11.7-0.3c-7.7-0.2-15.3,0.3-22.2,1.4c-11.6,1.9-20.7,1.5-24.5-0.9
	c-3.5-2.3-4.6-2-10.6,2.1c-7.1,4.9-18,9.4-24.9,10.2l-5.5,0.6l-0.2,5.5c-0.1,3-0.7,10-1.3,15.5c-1,8.4-0.9,10.7,0.4,14.5
	c1.8,5.5,2.4,9.6,3.2,22.5c0.3,5.5,1,10.7,1.4,11.5s0.6,2.8,0.3,4.3s0,5.5,0.7,8.8c1.1,5.8,1.1,6.2-1.4,9.9
	c-2.7,4.1-3.7,8.4-1.4,6.1c1.8-1.8,3-1.4,2.3,0.8c-0.8,2.4,2.2,2.9,3.1,0.5c0.5-1.2,0.9-1.3,2-0.4s1.8,0.8,3.4-0.6
	c1.7-1.5,2-3,1.8-9.4c-0.1-4.2,0.2-14.3,0.5-22.6c0.8-17.1,2.5-23.5,6.3-23.5c1.6,0,2.3-0.6,2.3-1.9c0-1.1,0.5-2.2,1-2.6
	s1,0.2,1,1.1s1.2,4.6,2.6,8.2c2.3,5.6,2.6,8.1,2.9,20.6c0.2,7.8,0.6,15.4,1,16.9c1,3.7,0,7-3.1,10.7c-1.7,2-2.4,3.7-1.9,4.8
	c0.6,1.6,0.7,1.6,1.7,0C280.4,492.6,281.2,491.8,281.7,491.8L281.7,491.8z M365.9,445.6c-1.4-1.4-1.5-2.8-0.3-2.8
	c0.9,0,2.4,3,1.8,3.6C367.2,446.6,366.5,446.2,365.9,445.6L365.9,445.6z M261,431.5c-1.3-1.7-2.4-4.8-1.7-4.8c0.7,0,4.3,4.3,4.3,5.3
	C263.7,433.2,262,432.9,261,431.5L261,431.5z M282.7,430.8c0-1.9,0.3-2.1,1.2-1.2s0.9,1.5,0,2.4S282.7,432.7,282.7,430.8
	L282.7,430.8z M286,429.3c0-2.2,0.2-3.2,0.4-2.3s0.3,2.8,0,4S286,431.5,286,429.3z M256.8,423.9c-1.3-2.4-1.4-6.2-0.2-6.2
	c0.8,0,2.2,7,1.5,7.8C258,425.8,257.4,425.1,256.8,423.9L256.8,423.9z M272.8,424.4c0-1.1,0.2-1.6,0.5-1.3s0.4,1.2,0.1,1.9
	C273.1,425.8,272.8,425.5,272.8,424.4L272.8,424.4z M304.5,425.3c-0.8-0.8,0.3-6.5,1.2-6c0.5,0.3,0.6,1.7,0.3,3.2
	C305.5,425.6,305.3,426,304.5,425.3L304.5,425.3z M271.7,416c0-4.4,1.1-7.3,2.7-7.3c1.1,0,1.2,0.3,0.4,1.3c-0.6,0.7-1.2,3-1.3,5
	C273.3,419.4,271.7,420.2,271.7,416L271.7,416z M325.7,412.8c0-1.1,0.5-2.2,1-2.6c0.6-0.4,1,0.5,1,1.9s-0.5,2.6-1,2.6
	S325.7,413.9,325.7,412.8z M329.8,410.8c-0.1-3.1,0.2-4.1,1-3.4c0.7,0.7,0.8,2.1,0.1,4.5l-1,3.4L329.8,410.8z M345.9,407.5
	c-0.1-1.8,0.5-4.2,1.4-5.3c1.5-1.9,1.6-1.9,1,0.5c-0.3,1.4-0.6,3.7-0.6,5.3C347.7,411.9,346.2,411.5,345.9,407.5z M342.4,405.6
	c-0.3-1.2-0.3-2.4-0.1-2.7c0.6-0.6,2.4,2,2.4,3.7C344.7,408.6,343,407.9,342.4,405.6L342.4,405.6z M331,397.5
	c-0.6-2.3-1-4.4-0.8-4.6c0.5-0.5,2.1,2.9,2.9,6.1C334.2,403.5,332.2,402.2,331,397.5L331,397.5z M209.8,480.4
	c3.1-0.8,6.5-1.9,7.7-2.5s3.7-1.1,5.6-1.1c5,0,13.7-1.9,16.4-3.7c1.8-1.1,2.2-2.2,2-4.6c-0.3-3.1-0.4-3.2-5.3-3.1
	c-14.9,0.3-20.2,1.1-30,4.8c-11.4,4.3-19.5,6.4-24.3,6.5c-4,0-5.4,2.6-2.6,4.8c1.5,1.2,4.2,1.3,13.4,0.9
	C199,482.1,206.7,481.2,209.8,480.4L209.8,480.4z M338.7,479.8c3.4-1.8,6-7.4,6-12.8c0-2.8,0.7-7.7,1.5-11c1.5-5.7,1.4-6.3-0.5-11.3
	c-2.3-6-2.6-11.5-0.9-15.3c1-2.2,0.9-2.9-0.9-4.7c-1.8-1.8-2.5-1.9-5.5-0.9c-1.9,0.6-4.5,2.3-5.8,3.6c-3,3.2-8.5,3.5-7.7,0.5
	c0.6-2.4-0.4-2.5-4.5-0.4l-3.1,1.6l3.5,3.7c7.8,8.3,15.6,24.4,15.9,33c0.2,5-1.5,7.9-5.7,9.6c-4,1.7-4.7,4.5-1.1,4.5
	c1.6,0,2.6-0.7,2.9-2.1c0.7-2.7,3.2-1.9,3.1,1C336,481.1,336.2,481.1,338.7,479.8L338.7,479.8z M340.4,448c-0.3-1.5-0.3-3-0.1-3.2
	c0.7-0.7,2.3,2.2,2.3,4.2C342.7,451.8,341,451.1,340.4,448L340.4,448z M239.2,476.9c0.3-0.5-0.3-0.7-1.4-0.4
	c-2.3,0.6-2.6,1.3-0.6,1.3C237.9,477.8,238.8,477.4,239.2,476.9L239.2,476.9z M203.5,469.2c11.4-4.1,11.6-4.2,10.1-6
	c-1.9-2.3-8.5-1.7-12.7,1c-2.1,1.3-5.8,3.2-8.2,4.2c-5.7,2.2-6.9,3.2-5,4.4C189.5,473.9,191.6,473.4,203.5,469.2L203.5,469.2z
	 M229.1,463c0.8-0.5-6.9-5.1-8.7-5.2c-1.1-0.1,0.4,5.3,1.7,6.2C223.1,464.7,227.2,464.1,229.1,463L229.1,463z M217.4,460.1
	c-1.9-1.9-10.7-3-10.7-1.4c0,0.6,1.2,1.1,2.8,1.2s3.9,0.7,5.2,1.4C217.7,462.9,219.5,462.1,217.4,460.1L217.4,460.1z M244.3,458.6
	c0.7-0.7,2.3-6.1,3.5-11.8c2.1-10.2,2.1-10.6,0.4-17.3c-1.6-6-1.6-7.8-0.5-15.9c0.7-5,1.3-14.3,1.3-20.7c0.1-17.2-1.1-18.8-13.8-19
	c-5.5-0.1-11.2-1.5-14.3-3.4c-2.4-1.6-3.3,0.3-2.5,5.6c0.4,2.9,0.7,17.3,0.7,32.1c-0.1,18.5,0.2,26.2,0.9,24.5
	c0.8-1.9,1.1-2.1,1.4-0.7c0.4,1.8-2.2,7.5-6.2,13.4c-3.6,5.3-3.3,6.9,1.9,8.8c2.4,0.9,6.6,2.8,9.3,4.1c4,2,5.9,2.4,10.7,2
	C240.3,460.1,243.6,459.3,244.3,458.6L244.3,458.6z M332.4,424.8c1.9-1.6,4.1-3,4.9-3s1.5-0.5,1.5-1c0-1.4-3.5-1.2-7.5,0.4
	c-2.7,1.1-3.5,2-3.5,4C327.7,428.5,328.2,428.4,332.4,424.8z M253.9,389.1c-0.7-0.3-1.6-0.3-1.9,0.1s0.3,0.6,1.3,0.5
	C254.5,389.7,254.7,389.4,253.9,389.1L253.9,389.1z M265.8,387.3c5.5-1.9,14.9-6.6,14.9-7.4c0-0.3-3.5,1-7.8,3s-8.9,4.1-10.3,4.7
	C259,389.2,260.8,389,265.8,387.3L265.8,387.3z M269.1,382.3c4.8-2.1,10.4-5.3,12.3-7.1c3.4-3.2,3.4-3.3,1.9-6.3
	c-0.9-1.7-2-3.3-2.6-3.7c-1.5-0.9-4.5,2-8.8,8.5c-4.1,6.2-7.2,7.4-11.2,4.1c-3.9-3.1-3.4-10.6,1.3-20.5c2.1-4.3,3.8-8.1,3.8-8.3
	s-1.2-1.6-2.7-2.9c-3.1-2.9-2.7-4,1-2.4c4.2,1.9,4.2,5.2,0,14.2c-4.4,9.4-5.1,15.9-1.8,18.3c2.8,2.1,4.6,1.4,7.2-2.6
	c1.2-1.9,3.6-5.3,5.2-7.5c6.4-8.7,6.5-11.6,0.3-18c-9-9.3-13.1-11.5-21.2-11.5c-5.5,0-16.1,3.8-19.4,7c-2,1.9-1.5,4,0.9,4
	c0.8,0,1.4,0.5,1.4,1s-0.4,1-1,1s-2.7,1.5-4.8,3.3s-5.1,4.1-6.7,5.2c-2.1,1.3-2.5,2-1.5,2.3c4.3,1.2,4.3,1.2,2.5,3.2
	c-4,4.4,1.3,7.5,14.2,8.3c7.3,0.5,9.5,0.3,10.7-0.9c1.6-1.6,4.6-1.9,4.6-0.4c0,0.5-0.3,1-0.8,1s-1.7,0.9-2.9,1.9
	c-2.1,1.7-2.1,2-0.8,6.5c0.8,2.6,1.7,5.2,2.1,5.8C253.4,387.7,259.6,386.3,269.1,382.3L269.1,382.3z M229.9,357.1
	c0.3-1.8,6.4-4.7,7.2-3.5c0.3,0.4-1.3,1.7-3.5,2.9C230.2,358.4,229.6,358.4,229.9,357.1L229.9,357.1z M246.6,352.3
	c-1-2.2-1-2.9,0.2-3.6c1.8-1.2,2.9-1.2,2.9,0c0,0.5,1.4,1.4,3.2,2c3.7,1.3,2.9,2.7-1.9,3.7C248.2,354.9,247.6,354.7,246.6,352.3
	L246.6,352.3z M240.7,349.3c-1.6-1.9-0.6-3.3,2.4-3.3c2.1,0,2.3,0.3,1.5,1.8C243.2,350.5,242.1,351,240.7,349.3z M287.1,374.3
	c0.8-2.1,0.4-1.9-2.4,1.1c-2.2,2.4-2.3,2.5-0.3,1.5C285.5,376.3,286.7,375.2,287.1,374.3L287.1,374.3z M292.2,363.8
	c4.9-9.7,11.3-33,9.1-33c-0.4,0-2,0.7-3.7,1.5c-2.7,1.4-3.3,1.4-6.3-0.1c-2.8-1.3-3.6-2.5-5-7.4c-0.9-3.2-1.6-7.2-1.6-8.9
	c0-5.6,2.9-17.1,5.9-23.3l2.9-6.1l-4.4-2c-2.4-1.1-5-1.8-5.6-1.6s-2.1,5.1-3.3,10.8s-4,17.6-6.3,26.4s-4.1,16.9-4.1,18
	c0,1.2,2.4,4.6,5.5,7.7c5.9,6.1,7.2,9.1,5.8,13.4c-0.8,2.4-0.4,3.2,2.6,6.4c1.9,2,4.1,3.5,4.9,3.2S290.9,366.4,292.2,363.8
	L292.2,363.8z M230.1,348c0.7-4.6,3.3-7.1,11.1-10.6c7.6-3.5,18.6-4,22.9-1.2c1.5,1,3,1.6,3.2,1.3s1.4-4.5,2.5-9.3
	s3.6-14.9,5.6-22.4c3.7-14,5.5-25.6,4.6-30.1c-0.3-1.4,0.4-5.9,1.5-10c3.4-12.4,2.4-43.4-1.3-43.4c-0.5,0-1.2,1.6-1.5,3.5
	c-0.8,5.7-1.9,1-1.3-5.4l0.6-5.6l-3.5,1.5c-2.6,1.1-4.4,1.2-6.9,0.5c-4.8-1.4-11.7-0.2-12.4,2.1c-1.6,4.9,7.2,13.7,14,14.1
	c1.7,0.1,3.5,0.3,4,0.4s1.8,0.3,2.8,0.3c1.4,0.1,1.8,1,1.8,4.1c0,2.2-0.5,4-1,4s-1-1.3-1-2.9c0-2.7-0.3-2.9-5.4-3.6
	c-9-1.1-16.4-7.3-16.5-13.7c0-1.5-0.4-2.9-0.9-3.2s-6.5-0.8-13.4-1.2c-12.5-0.7-12.5-0.6-13.8,1.7c-1.7,3.1-1.4,12.6,0.7,22.5
	c0.9,4.3,2,11.3,2.4,15.5s1.1,8.1,1.4,8.7c0.4,0.6,2.1-0.6,4.1-2.8c4.7-5.3,17.1-9.2,19-6c0.4,0.6,0.2,1.6-0.5,2.2
	c-0.9,0.9-1.3,0.9-1.9-0.1c-1.4-2.3-11.1,1-14.8,5c-4.2,4.6-5.7,10.3-8.9,34.2c-2.7,20.7-3.4,24.8-6,40c-0.8,5-1.5,11.6-1.6,14.7
	v5.7l4.9-3.5C228.5,352.4,229.6,351.1,230.1,348L230.1,348z M221.6,323.5c3.5-21.3,4-24.7,5.1-35.3c0.6-5.5,1.5-11.4,1.9-13.2
	c0.7-2.8,0.3-3.9-3.6-9.5c-2.4-3.5-5.8-7.5-7.6-9.1c-2.7-2.3-2.9-2.8-1.3-2.8c1.1,0,3.9,1.9,6.2,4.2l4.3,4.2v-4.1
	c0-2.3-0.9-8.1-2.1-12.9c-1.2-5-2.2-12.7-2.3-17.9c-0.2-8.7-0.3-9.2-2.6-10.3c-5.1-2.4-6.7-1.6-8.1,4.1c-2.7,10.8-1.4,35.1,2.4,45.3
	c0.8,2.2,1.5,5.1,1.5,6.5c0,2.4,0,2.4-1.3-0.5c-1.1-2.6-1.3,0.5-1.1,21.5c0.1,13.5,0.7,25.6,1.2,27s1.6,5.5,2.3,9.3s1.6,6.8,2,6.8
	S220.4,330.8,221.6,323.5L221.6,323.5z M300.1,327.5c2.9-2.8,3.5-4,3.8-8.9l0.4-5.7l-2.7,0.5c-2.2,0.4-3.1,0-4.5-2.2
	c-2.3-3.5-2.3-13.3-0.1-19.4c2.8-7.6,0-6.4-4.6,2c-5.1,9.2-7.2,25.5-4.1,31.8C291.3,331.6,295.2,332.3,300.1,327.5L300.1,327.5z
	 M311.1,313c5.4-10.8,6.3-17.7,3.4-25.4c-1.6-4.3-2.5-3.3-3.1,3.6c-0.3,3.5-1.5,9-2.5,12.3c-2.3,7.1-3.7,17.8-2.2,16.9
	C307.3,319.9,309.3,316.6,311.1,313L311.1,313z M303.2,309.6c2.2-3.1,2.3-21.8,0.1-21.8c-2.7,0-5,5.3-6.2,14c-0.4,2.6,2.4,10,3.7,10
	C301.2,311.8,302.3,310.8,303.2,309.6L303.2,309.6z M309.6,288.5c0.1-1.5-0.3-2.8-0.9-2.8s-0.9,2.5-0.9,5.8c0.1,4.7,0.3,5.2,0.9,2.8
	C309.1,292.6,309.5,290.1,309.6,288.5z M303.7,284.2c0-0.3-1.1-1.5-2.5-2.6s-2.5-3-2.5-4.2s1.1-5.6,2.5-9.6c2.8-8.1,3.4-19,1.3-20.8
	c-1.1-0.9-8.2-2.6-11.2-2.7c-0.5,0-1.5,2.2-2.1,5s-2.6,8.9-4.3,13.7c-4.6,13-4.2,16,2.5,18.5C294.3,284.1,303.7,285.7,303.7,284.2
	L303.7,284.2z M311.7,281.8c1.3-0.8,1.3-1-0.2-1c-0.9,0-2,0.4-2.3,1C308.4,283.1,309.8,283.1,311.7,281.8L311.7,281.8z M307.3,279.7
	c1.1-1.7-0.1-2.1-1.5-0.5c-0.8,1-0.9,1.5-0.2,1.5C306.1,280.8,306.9,280.3,307.3,279.7L307.3,279.7z M134.6,249
	c0.5-2,1.2-4.9,1.5-6.3c0.3-1.5,2.5-3.9,5.2-5.9c2.5-1.8,5.8-4.4,7.3-5.8c3.3-3.1,4-1.6,1.3,2.8c-2,3.2-2.9,9.4-1.3,8.7
	c1.8-0.8,16.1-16.9,16.8-19c0.6-1.8,0-2.9-2.9-5.5c-4-3.7-5.1-3.6-12.5,1.1c-4.6,2.9-12.2,11.4-12.2,13.7c0,0.9-1.1,3.7-2.5,6.2
	c-2.7,5-4.7,15.5-2.7,14.3C133.2,253,134.1,251,134.6,249L134.6,249z M287.3,245.3c0.2-3.7,0.8-7.5,1.4-8.5s1-3.6,1-5.8
	s0.9-8.4,1.9-13.8c3.5-17.9,3.6-20.9,0.6-29.8c-1.5-4.4-3.5-9.6-4.5-11.5l-1.8-3.5l-0.7,4c-0.4,2.2-1.6,7.1-2.8,11
	c-3,9.8-2.8,27.7,0.5,34.5c1.8,3.8,2.3,6.8,2.6,17.8C286,253.8,286.7,256,287.3,245.3L287.3,245.3z M139.6,247.6
	c0.6-1.7,1.1-3.9,1.1-4.7c0-2.7-2.7,0.9-3.3,4.6C136.6,251.7,138.2,251.8,139.6,247.6L139.6,247.6z M308.6,244
	c0.8-1.5,0.2-2.2-3.7-4.4c-2.6-1.4-6.6-2.9-8.9-3.3c-3.9-0.6-4.3-0.5-5.4,1.9c-0.6,1.4-1,2.8-0.8,3c0.3,0.3,14.5,4,17.1,4.5
	C307.3,245.7,308.1,245,308.6,244L308.6,244z M311.6,235.5c1.3-4.1,2.6-11.4,4.6-25.3c0.9-6,2.2-13.3,3-16c3.2-11.9,2.8-15.2-3.7-31
	c-1.4-3.3-6-16.3-10.2-29c-8.3-24.8-9.1-26.7-13.1-31.4c-3.2-3.8-6.6-4-9.3-0.5c-1.1,1.4-2.6,2.4-3.2,2.2c-0.7-0.2,0-1.7,1.7-3.7
	c2.7-3.3,2.8-3.4,0.9-4.8c-2.1-1.6-13.9-7.3-15.2-7.3c-1,0-6.3,9.4-6.3,11.2c0,0.9,3.4,2.8,8.6,4.9c6.3,2.5,8.4,3.8,8.1,4.9
	c-4.1,12.9-6.6,18-6.6,13.5c0-1.6,2.5-8.8,4.1-11.8c1-1.8-0.8-2.9-10.8-6.3c-4.9-1.7-6.3-1.3-6.3,1.5c0,3.6-1.7,2.9-5.1-2.3
	c-1.9-2.9-4.2-5.3-5-5.5s-4.3,1-7.8,2.5c-5.6,2.5-6.5,3.3-8.6,7.9c-1.3,2.8-2.9,7.1-3.5,9.5s-1.6,6.2-2.2,8.4s-1.7,6-2.4,8.5
	c-1.6,5.2-1.8,12.2-0.7,19.5c0.7,4.2,0.8,13.3,0.3,34.5l-0.1,3.5l-1.6-2.8c-1.3-2.4-1.4-3.6-0.4-7.8c0.9-3.8,0.9-9.1-0.1-23.7
	l-1.2-18.7l2.7-8.9c3-9.8,3-12-0.6-21.6c-2.4-6.4-2.5-6.5-6.3-6.8c-2.2-0.2-5.4-0.1-7.1,0.3c-3.1,0.6-3.3,0.8-5.3,9.6
	c-3.2,13.8-2.5,32.7,1.8,54.9c2.2,11.2,4.1,25.1,4.1,30.3c0,5.4,4.3,7.2,10.3,4.5c2.1-1,2.7-2,2.7-4.4c0-1.8,0.4-3.4,0.9-3.7
	s0.9,1,0.9,2.9c0,4.2,0.8,5.6,3.1,5.6c1,0,2.2,0.5,2.9,1.1c1.6,1.6,14.8,2.4,15.7,1s7.2-1.5,8.1-0.1c0.9,1.5,7.5,1.2,13.1-0.5
	c2.7-0.8,6.4-1.5,8.2-1.5s3.3-0.5,3.3-1.1s-1.3-4.1-3-7.8c-5.6-12.7-5.7-27.4-0.2-21.9c1.4,1.4,1.6,4.8,0.3,4.8
	c-0.5,0-1.2-0.8-1.5-1.8s-0.4,0.9-0.3,4.3c0.2,5.6,3.3,15.5,4.8,15.5c1.1,0,3.8-10.3,4.9-19l1.1-8.1l-3.6-7.6c-2-4.2-3.6-8.2-3.6-9
	c0-2.6-3.1-7.8-6.3-10.7c-2.1-1.8-2.7-3-1.9-3.3c1.5-0.6,1.7-4.3,0.3-4.3c-0.5,0-1-0.4-1-1s0.7-1,1.5-1c0.9,0,1.5-0.9,1.5-2.5
	c0-1.4,0.5-2.5,1.1-2.5s1,1.4,0.8,3.3c-0.2,1.8,0,3.8,0.4,4.4s0,1.4-0.8,1.7c-2.2,0.9-1.8,2.5,1.5,6.2c1.6,1.9,3.6,5.6,4.4,8.3
	s4.4,11.2,8,18.9s6.8,15.2,7.2,16.6c0.8,3.3,2,4.2,6.2,4.5c1,0.1,2.7,0.8,3.8,1.7c1.8,1.4,1.6,1.5-2.3,0.9l-4.3-0.6v4.6
	c0,2.5-1.1,10.3-2.5,17.2S292,227.8,292,230c0,3.6,0.2,3.9,2.8,3.9c1.5,0,5,1.1,7.8,2.4C309,239.5,310.4,239.4,311.6,235.5
	L311.6,235.5z M225.7,195.8c0-0.5,0.4-1,1-1s1,0.5,1,1s-0.4,1-1,1S225.7,196.3,225.7,195.8z M224.7,180.8c0-0.5,0.4-1,1-1s1,0.5,1,1
	s-0.4,1-1,1S224.7,181.3,224.7,180.8z M242.7,165.2c-2.4-1.4-4.7-3-5.1-3.6c-0.7-1.1-0.1-22.3,0.7-24.6c0.3-1,1.3-1.1,3.2-0.6
	c1.5,0.4,7.2,1,12.6,1.4l9.8,0.6l0.5,9.4c0.7,13.7-0.4,15.4-11.6,17.6c-1.9,0.4-4,1.1-4.5,1.5C247.6,167.3,245.3,166.6,242.7,165.2
	L242.7,165.2z M255,162.4c2.6-0.4,5.4-1.4,6.3-2.2c1.6-1.6,2-7.8,0.9-15.6l-0.6-4.5l-9.1-0.4c-5-0.2-9.8-0.6-10.6-0.8
	c-1.2-0.3-1.6,0.8-1.8,5.8c-0.3,5.4,0,6.4,1.8,7.5c2.6,1.6,2.7,3.1,0.2,2.3c-1.8-0.6-3.1,1.5-3.1,5.2c0,1.9,7.1,5.2,9.5,4.3
	C249.3,163.4,252.3,162.8,255,162.4L255,162.4z M225.4,162.2c-0.4-0.4-0.4-1-0.1-1.5c0.6-1,2.4-0.1,2.4,1.2
	C227.7,162.9,226.4,163.1,225.4,162.2L225.4,162.2z M225.2,141.7c-1-1.5,0.4-2.5,1.6-1.2c0.7,0.7,0.7,1.3,0.1,1.7
	C226.3,142.5,225.6,142.3,225.2,141.7L225.2,141.7z M228.3,123.9c-0.3-0.5-0.2-1.2,0.4-1.5s1.2-0.2,1.5,0.4s0.2,1.2-0.4,1.5
	S228.6,124.4,228.3,123.9z M190.2,205.6c5.8-6.6,13.1-19.7,14-24.9c0.4-2.1-0.1-6.2-1-9.7c-2.3-9-3.6-19.8-4.4-36.2l-0.7-14.5
	l-3.3,10.3c-1.8,5.7-5,16.9-7.1,25s-4.9,17.2-6.4,20.2c-4.8,9.9-11.8,21.4-14.7,24.4l-2.9,2.9l4.4,3.4c4.1,3.1,5.6,5.3,3.6,5.3
	c-0.5,0-2.3-1.4-4.2-3c-4.1-3.6-5.4-3.7-8.5-0.5c-3,3-3.1,4.5-0.4,4.5c1.1,0,4.4,2.4,7.3,5.3l5.2,5.3l7-6
	C182.1,214,187.5,208.7,190.2,205.6L190.2,205.6z M195.5,176.2c-4.5-2.3-6.5-4.1-5.6-5c0.6-0.6,9.5,4.4,10.3,5.7
	C201.4,178.8,200.2,178.6,195.5,176.2L195.5,176.2z M210.3,215.1c-0.3-0.3-0.6,0.3-0.5,1.3c0,1.2,0.3,1.4,0.6,0.6
	C210.7,216.3,210.7,215.4,210.3,215.1L210.3,215.1z M251.9,209.3c-0.5-4.2-2.7-4.3-2.6-0.2c0.3,7,0.4,7.3,1.7,5.5
	C251.8,213.7,252.1,211.4,251.9,209.3L251.9,209.3z M221.4,211.9c-0.3-1.6-0.1-3.3,0.5-3.9c1.1-1.1,0.3-3.2-1.2-3.2
	c-1,0-1.3,5.9-0.3,8.4C221.3,215.8,222,215,221.4,211.9L221.4,211.9z M246.7,211.4V208l-10.8-0.3c-10.3-0.3-14.5,0.4-10.9,1.8
	c2.1,0.8,2.2,2.4,0.2,2.4c-2.1,0-1.9,1.8,0.3,2.3c1,0.3,6.1,0.5,11.5,0.6l9.8,0.1L246.7,211.4L246.7,211.4z M268.5,213.2
	c0.8-0.3,1.2-1.6,1-3.2c-0.3-2.8-0.3-2.8-7.3-2.4c-3.9,0.2-7.3,0.6-7.8,0.8c-0.8,0.5-1,4.7-0.3,5.5
	C254.7,214.5,266.5,213.9,268.5,213.2L268.5,213.2z M273.7,210.3c0-1.9-0.5-3.7-1-4.1c-0.6-0.4-1,1-1,3.4c0,2.2,0.5,4.1,1,4.1
	S273.7,212.2,273.7,210.3z M217.7,209.8c0-3.4-0.4-3.7-5-4.2c-3.4-0.3-3.5-0.2-3.2,2.6c0.4,3.5,1.6,4.5,5.4,4.5
	C217.3,212.8,217.7,212.4,217.7,209.8L217.7,209.8z M278.5,208.2c-0.5-4.2-2.8-4.4-2.8-0.2c0,1.9,0.3,3.7,0.7,4.1
	C277.6,213.4,278.9,211.1,278.5,208.2L278.5,208.2z M228.2,112c1.8-7.3,8.7-15.6,21.2-25.5c5.8-4.6,6.1-5,5.1-7.4
	c-0.6-1.4-1.4-2.3-1.7-2.2l-10,5.1c-8.3,4.3-10,4.8-13.7,4.3c-4.1-0.6-4.4-0.4-6.8,3.1c-1.5,2.1-2.5,5.1-2.5,7
	c0,3.5,5.6,18.2,7,18.2C227.1,114.8,227.8,113.6,228.2,112L228.2,112z M259.9,96.5c2-4,3.9-8.7,4.3-10.4c1.4-6.2-3.7-17.4-6.5-14.6
	c-1,1-0.8,1.7,1,3.6l2.2,2.4l-2.7,3.2c-1.5,1.8-5.8,5.7-9.5,8.7c-7.1,5.6-10.6,9.9-7.1,8.7c1-0.3,2.3-1.1,3-1.6
	c1.5-1.1,7.2,2.1,9,5.2c0.7,1.1,1.6,2.1,2,2.1S257.9,100.5,259.9,96.5L259.9,96.5z M215.7,99.8c1.2-0.8,1.2-1.2-0.4-3
	c-2.5-2.8-3.8-2.6-6.4,0.9l-2.2,3h3.8C212.5,100.8,214.9,100.3,215.7,99.8L215.7,99.8z M221.9,85.6c0.4-1-0.1-2.3-1.1-3.2
	c-1.6-1.4-2.3-1-8.2,4.4c-6,5.5-6.3,5.9-3.5,5.5c1.7-0.3,4.1,0.1,5.5,0.9c2.4,1.3,2.6,1.2,4.5-2.3C220.4,88.9,221.6,86.5,221.9,85.6
	L221.9,85.6z M241.8,80.2c9.4-4.7,10-5.4,13.3-14.9c0.6-1.8,0.7-1.8,2.2,0.3c2.1,3,3.2,2.8,7.6-1.5c4.7-4.6,5-6.4,0.4-2.9
	c-4.1,3.1-6.1,3.3-7.6,0.6c-1.5-2.7-0.2-4.6,1.5-2.3c1.2,1.6,1.6,1.6,3.9,0.4c1.4-0.8,2.6-2.3,2.6-3.3c0-2-0.9-2-5.3-0.2
	c-2.2,0.9-2.4-1.7-0.3-3.5c1.7-1.4,1.9-6.9,0.5-12.1c-1-3.6-1.1-3.6-7.7-4.3c-3.7-0.4-7.8-1.3-9.2-2s-4.1-2-5.9-3
	c-4.1-2.1-7.4-2.1-11.1-0.2c-3.7,1.9-4.3,3.4-5.2,13c-0.4,4.4-1.1,11-1.4,14.8c-0.8,7.9,0.2,18.9,1.9,21.2c1,1.4,7.6,4.4,9.9,4.5
	C232.4,84.8,236.8,82.7,241.8,80.2L241.8,80.2z M226.4,74.8c-6-2.5-4.4-5,3.2-5c4,0,11,3.6,9.6,5C237.5,76.3,230.1,76.3,226.4,74.8
	L226.4,74.8z M228.8,64.9c-2.1-1.6-2.2-2.1-1.1-4.2c0.7-1.3,2.1-3.2,3.1-4.2s1.9-2.7,1.9-3.8s0.4-2,1-2c1.9,0,1,4.5-1.5,7.4
	c-2.9,3.4-3,3.9-1,5.6c1.6,1.3,2,3,0.8,3C231.6,66.8,230.1,65.9,228.8,64.9L228.8,64.9z M235,66.1c-2.3-0.9-1.3-2.6,1.3-2.1
	c2.1,0.4,2.5,0.1,2.3-1.5c-0.2-1.1,0.3-2.2,1-2.5c1.9-0.7,1.6,5.4-0.3,6.1C237.4,66.9,236.8,66.9,235,66.1L235,66.1z M243.3,59.1
	c-0.8-2.2,0.3-3.2,1.5-1.3s1.2,3,0.1,3C244.3,60.8,243.6,60.1,243.3,59.1L243.3,59.1z M246.5,56.6c-2.8-1-3.7-2.8-1.5-2.9
	c0.7,0,0.5-0.6-0.6-1.4c-2.9-2.2-1.1-3.6,3.7-2.9c5.1,0.8,7.9,2.1,7.2,3.4c-0.4,0.6-1.3,0.6-2.5-0.1c-1-0.6-2.9-1-4.2-1
	c-2,0-1.8,0.2,1.1,1.8c1.9,1,3.6,2.4,3.8,3C254,58,250.3,58,246.5,56.6L246.5,56.6z M237.7,55c0-2.2,1.3-4.2,2.6-4.2
	c2,0,1.7,1.4-0.6,3.5C238.6,55.3,237.7,55.6,237.7,55L237.7,55z M225.5,51.7c-2.6-1.5-2.2-3.9,0.6-3.9c2.1,0,5.7,2.7,5.7,4.3
	C231.7,53.1,227.4,52.9,225.5,51.7L225.5,51.7z M231.7,46.8c-0.8-0.5-3.2-0.9-5.2-1c-4,0-5-1.5-1.8-2.5c2.4-0.8,8.8,0.4,9.7,1.7
	C235.3,46.5,233.4,47.8,231.7,46.8L231.7,46.8z M273.7,43.3c0-2-1-4.3-2.9-6.5c-1.6-1.9-3-4-3-4.7c-0.1-2.2-6.1-8.2-11.4-11.2
	c-4.2-2.4-6.5-3-11.8-3.2c-3.6-0.1-7.2,0.2-7.9,0.6c-14.1,8.1-18,12.7-17.8,20.7l0.1,4.3l1-4.7c0.7-3.4,1.9-5.6,4.4-7.7
	c4.9-4.3,7.9-4.8,13.1-2c2.4,1.3,4.6,2,5,1.7s1.4,0,2.2,0.7c2.1,1.8,17.4,4.1,17.9,2.7c0.4-1.1,3.2-1.4,3.2-0.4
	c0,0.4-0.7,1.5-1.6,2.4c-1.4,1.5-1.4,2.5-0.4,7.4c0.6,3.1,0.9,6.3,0.6,7.1c-0.4,0.9,0.3,1.8,1.9,2.4c1.4,0.5,2.5,1.7,2.5,2.7
	C268.8,58.5,273.6,46.5,273.7,43.3L273.7,43.3z M250.7,26.4c0-1,0.6-1.3,1.8-0.9c1.5,0.6,1.6,0.4,0.4-1c-1.2-1.5-1.1-1.7,0.3-1.7
	c0.9,0,1.9,0.7,2.2,1.5c0.7,1.8,0.6,2-2.4,2.9C251.3,27.7,250.7,27.5,250.7,26.4L250.7,26.4z M219.6,48.5c0-1-0.4-1.5-0.9-1.2
	s-1,2.1-0.9,3.8c0.1,2.7,0.2,2.9,0.9,1.2C219.2,51.2,219.6,49.5,219.6,48.5z"/>
</svg>
