<?xml version="1.0" encoding="utf-8"?>
<!-- Generator: Adobe Illustrator 22.1.0, SVG Export Plug-In . SVG Version: 6.00 Build 0)  -->
<svg version="1.1" id="Layer_1" xmlns="http://www.w3.org/2000/svg" xmlns:xlink="http://www.w3.org/1999/xlink" x="0px" y="0px"
	 viewBox="0 0 512 512" style="enable-background:new 0 0 512 512;" xml:space="preserve">
<path style="fill:none;stroke:#000000;stroke-width:3;stroke-miterlimit:10;" d="M365.5,309L365.5,309c-3.1-1.8-6-3.5-8.8-5.1
	c-27.1-14.8-44-13.2-52.6-13c-2.8,0.1-6.5,0.7-10.9,1.9c-14.9,3.8-37.6,12.9-56.9,20.9c-25.1,10.4-44,12.7-44,12.7s1.5-7.3,2.3-15.8
	l0,0c25.2,7.1,121-38,150.6-22l0.4-0.3C350.7,295.3,357.3,302.4,365.5,309z"/>
<path style="fill:none;stroke:#000000;stroke-width:3;stroke-miterlimit:10;" d="M95,134.2c-13.2,2.9-24.7,8.5-27.4,9.3
	c-3.3,1-11.6,0.3-11.6,0.3c-3.8-0.8-8.4,0.6-12.6,2.1l-0.2-0.5c-15.5,2.2-18.9-7.1-18.9-7.1c0.9-0.5,2.6-3.4,1.8-6.3
	c-0.2-0.7-0.5-1.3-0.9-1.9c0,0,10.1-13.5,26.6-15c16.4-1.5,12.8,9.3,24.2,10.4c18.3,1.9,29.1-17.2,37.3-9.3
	c13,12.4-19.4,22.9-17.6,41.1c-6.4-8.2-13.8-10.8-21.1-10.2c-0.7,0.1-1.4,0.1-2.1,0.1v-0.4c1.2,0,13.1-9.9,22.8-12.4L95,134.2z"/>
<path style="fill:none;stroke:#000000;stroke-width:3;stroke-miterlimit:10;" d="M80.3,90.6c2.2,0.1,3,2.6,1.9,3.4
	c-1.7-0.8-4.5-0.4-4.5-0.4C77.2,92.2,78.3,90.4,80.3,90.6z"/>
<path style="fill:none;stroke:#000000;stroke-width:3;stroke-miterlimit:10;" d="M79.7,100.9c0.5,0,0.9,0.5,0.9,1s-0.5,0.9-1,0.9
	s-0.9-0.5-0.9-1S79.1,100.9,79.7,100.9z"/>
<path style="fill:none;stroke:#000000;stroke-width:3;stroke-miterlimit:10;" d="M68,90.2c2.1,0,3,1.8,2.4,3.2c0,0-2.8-0.6-4.5,0.1
	C64.8,92.6,65.8,90.2,68,90.2z"/>
<path style="fill:none;stroke:#000000;stroke-width:3;stroke-miterlimit:10;" d="M68.1,100.5c0.5,0,0.9,0.5,0.9,1s-0.5,0.9-1,0.9
	s-0.9-0.5-0.9-1S67.6,100.5,68.1,100.5z"/>
<path style="fill:none;stroke:#000000;stroke-width:3;stroke-miterlimit:10;" d="M43.2,145.5l0.2,0.5c-4,1.5-7.7,3.1-10.2,3.2
	c-4.7,0.2-7.8-4.3-13.3-5.8L20,143c1.1-1.8-0.6-4.8-0.4-6.3c0.5-0.2,1-0.4,1.5-0.7c0.8,0.8,0.5,3.7,3.1,2.3
	C24.2,138.4,27.6,147.7,43.2,145.5z"/>
<path style="fill:none;stroke:#000000;stroke-width:3;stroke-miterlimit:10;" d="M26,132.1c0.8,2.9-0.9,5.8-1.8,6.3
	c-2.6,1.4-2.3-1.5-3.1-2.3C22.8,135.2,24.4,134,26,132.1z"/>
<path style="fill:none;stroke:#000000;stroke-width:3;stroke-miterlimit:10;" d="M20.3,136c0.4-0.2,0.7-0.1,0.9,0.1
	c-0.5,0.3-1,0.5-1.5,0.7C19.7,136.4,19.9,136.1,20.3,136z"/>
<path style="fill:none;stroke:#000000;stroke-width:3;stroke-miterlimit:10;" d="M19.7,136.7c-0.3,1.5,1.4,4.5,0.4,6.3l-0.1,0.3
	c-0.5-0.1-0.9-0.2-1.4-0.3c-3.2-0.5-5.7-3.4-7.3-6.1l0,0C11.2,136.9,15.1,138.4,19.7,136.7z"/>
<path style="fill:none;stroke:#000000;stroke-width:3;stroke-miterlimit:10;" d="M76.9,78c-2.2,0.7-4.4,1.6-6.5,2.7
	c-4.5,2.2-8.7,5.1-11.9,9.1c-0.6,0.8-1,1.7-1.1,2.7c-0.1,1.7-0.1,4.6,0.9,7.4c0.2,0.6,0.4,1.1,0.7,1.7c0,0-0.8,0.3-2.2,0.9
	c-1.3,0.5-3.3,1.3-5.6,2.3c-11.2,4.8-31.6,14.4-40.5,24.9c-0.4,0.4-0.7,0.8-1,1.3c-0.5,0.7-0.6,1.6-0.3,2.3c0.4,0.9,1,2.3,1.9,3.8
	c1.6,2.7,4.1,5.6,7.3,6.1c0.5,0.1,1,0.2,1.4,0.3c5.4,1.5,8.6,6,13.3,5.8c2.5-0.1,6.2-1.7,10.2-3.2c4.3-1.6,8.8-2.9,12.6-2.1
	c0,0,4.3,4.1,16.4,3.5c0.7,0,1.4-0.1,2.1-0.1c7.3-0.6,14.7,2,21.1,10.2c5.6,7.1,10.5,18.4,14.1,35.5c4.1,19.5,2,35.5,1.5,50.8
	c-0.3,9.9,0.1,19.6,3.2,29.9c1.9,6.2,3.7,11.8,5.4,17.3c5.5,17.9,10,33.6,11.7,56.7c0.5,7.2,0.9,17.1,1.2,28.1
	c0.8,35.5,0.1,83-1.2,90.4c0,0-13.3-1.4-15,11.2c-0.3,1.9,0.2,3.6,2,4.5c2.6,1.4,8.7,2.5,13.4,2c6.2-0.7,10.2-2.9,14.5-7.3
	c0.9-3.4,0.3-28.5,3.8-37.9c0,0,1.3-40.7,3.9-73.7c1.4-17.4,3.1-32.7,5.2-38.7c0,0,0.7,0.9,1.6,2.7c1.6,3.1,3.8,8.7,3.9,16.5
	c1.4,17.5,2,46.6,2.1,72.6c0.2,29.7-0.1,55.5-0.1,55.5s-10.7,1.3-12.2,11.8c-0.3,1.7,0.7,3.4,2.3,4.2c3.3,1.6,9,3.8,16.5,2
	c2.8-0.7,9-5,9.4-9.4c0-2-0.9-19.7,1.6-35.6c0.3-20.5,1-47.3,2.3-70.9c1.1-20.4,2.7-38.3,4.9-47.2c0.2-0.8,0.4-1.6,0.6-2.2
	c0,0,19-2.3,44-12.7c19.3-8,42-17.1,56.9-20.9c4.4-1.1,8.2-1.8,10.9-1.9c8.6-0.2,25.5-1.7,52.6,13c2.8,1.5,5.7,3.3,8.8,5.2
	c8.5,5.4,17.9,12.3,28.3,21.2c0.8,0.7,1.7,1.4,2.5,2.2c50.9,44.8,70.4,74.2,73.9,83.5c3.5,9.4,11.6,27.8,10.6,40
	c0,0-8.6,3.7-10.2,10.7c-0.3,1.4-0.4,3,0,4.8c0.4,1.9,13.2,5.5,19.3,4.3c6.1-1.3,9.1-5.1,9.1-5.1s1-11,4.6-16.8
	c0.6-1,0.6-2.1,0.1-3.1c-3.9-7.3-19.6-37.5-27.5-68.7c0,0-32.6-35.4-50.3-67.2c-1.2-2.2-2.4-4.4-3.5-6.6"/>
<path style="fill:none;stroke:#000000;stroke-width:3;stroke-miterlimit:10;" d="M422.4,308.2c-0.9-1.7-1.7-3.5-2.4-5.1
	c-14.9-34.2-25.8-73.2-42.5-92.7c0,0,9.6-6.1,9.6-10.1c0-1.5-0.6-2.8-1.5-3.7c-1.5-1.5-3.9-1.7-6.1,0.7c-3.5,3.8-9.6,7.6-13.7,8.1
	c-4,0.5-74.2-14.9-121-34.9c-36.9-15.7-45.3-20.8-59.2-27.9c-4.6-2.3-9.4-5.1-14-8.1c-7.7-4.9-15.1-10.5-21.4-15.7
	c-7.2-6-22-22-23.8-26.8c-0.8-2.2-2.8-11.6-4.6-23.3c-2.1-13.9-3.7-31.2-2.5-44c0.1-0.5,0-1,0-1.5c-0.1-1.1-0.6-1.8-1.3-2.1
	c-1.2-0.5-3.1,0.8-5.2,5.4C106.6,40,101,59.9,99.5,74.3c0,0-5.7-0.1-13.1,1.3c-2.9,0.6-6.2,1.3-9.4,2.4"/>
<path style="fill:none;stroke:#000000;stroke-width:3;stroke-miterlimit:10;" d="M69.1,32.4c1.6,5.1,3.2,14.9,7.1,25.7
	c4.7,13,10.1,17.3,10.1,17.3"/>
<path style="fill:none;stroke:#000000;stroke-width:3;stroke-miterlimit:10;" d="M70,80c0,0,0.2-12.3-0.6-22.5
	c-0.1-1.2-0.2-2.4-0.3-3.6c-0.1-0.8-0.2-1.7-0.4-2.7c-1.4-9.4-4.9-22.2-2.2-22.6c1-0.2,1.8,1.2,2.5,3.7"/>
<path style="fill:none;stroke:#000000;stroke-width:3;stroke-miterlimit:10;" d="M121.7,68.5C121.7,68.5,121.7,68.6,121.7,68.5
	c0.2,3,0.1,5.5-0.1,7.6c-1.8,14-12.7,7.2-12.5-5.3c0.1-4.6,1.3-18.6,4.1-31c1.5-6.6,3.5-12.7,6.1-16.7l0,0"/>
<path style="fill:none;stroke:#000000;stroke-width:3;stroke-miterlimit:10;" d="M10.6,129.6C10.7,129.6,10.7,129.5,10.6,129.6
	c1.1-0.6,2.9-0.5,5.1,0c0.9,0.2,1.8,0.2,2.6,0c2.8-0.7,5.8-0.7,6.7,0.6c0.5,0.6,0.8,1.3,0.9,1.9c0.8,2.9-0.9,5.8-1.8,6.3
	c-2.6,1.4-2.3-1.5-3.1-2.3c-0.2-0.2-0.5-0.3-0.9-0.1c-0.4,0.1-0.5,0.4-0.6,0.8c-0.3,1.5,1.4,4.5,0.4,6.3"/>
<path style="fill:none;stroke:#000000;stroke-width:3;stroke-miterlimit:10;" d="M72.1,101.3c-0.1,2.5-2.2,4.4-4.6,4.3
	c-2.5-0.1-4.4-2.2-4.3-4.6c0.1-2.5,2.2-4.4,4.6-4.3C70.2,96.8,72.1,98.8,72.1,101.3z"/>
<path style="fill:none;stroke:#000000;stroke-width:3;stroke-miterlimit:10;" d="M85,101.8c-0.1,2.9-2.5,5.1-5.4,5s-5.1-2.5-5-5.4
	s2.5-5.1,5.4-5C82.8,96.5,85.1,98.9,85,101.8z"/>
<path style="fill:none;stroke:#000000;stroke-width:3;stroke-miterlimit:10;" d="M69,101.5c0,0.5-0.5,0.9-1,0.9s-0.9-0.5-0.9-1
	s0.5-0.9,1-0.9S69,100.9,69,101.5z"/>
<path style="fill:none;stroke:#000000;stroke-width:3;stroke-miterlimit:10;" d="M80.6,101.9c0,0.5-0.5,0.9-1,0.9s-0.9-0.5-0.9-1
	s0.5-0.9,1-0.9S80.6,101.4,80.6,101.9z"/>
<path style="fill:none;stroke:#000000;stroke-width:3;stroke-miterlimit:10;" d="M120.8,228.1c0,0,0.3,8.2,1.5,19
	c1.8,16,5.5,37.8,12.9,47.8c1,1.3,2,2.6,2.9,3.8c10.6,13.7,19.1,22.1,22.8,30.3c0.2,0.4,0.4,0.8,0.5,1.2"/>
<path style="fill:none;stroke:#000000;stroke-width:3;stroke-miterlimit:10;" d="M192.1,326.3c0,0,1.5-7.3,2.3-15.8
	c0.2-2.4,0.4-4.8,0.4-7.2"/>
<path style="fill:none;stroke:#000000;stroke-width:3;stroke-miterlimit:10;" d="M325.8,245.9c0,0,3.7,20.7,19.7,42.3
	c5.2,7.1,11.8,14.2,20,20.8"/>
<path style="fill:none;stroke:#000000;stroke-width:3;stroke-miterlimit:10;" d="M293.2,293c0,0,8,12.4,15.1,29.9
	c1.4,3.4,2.7,7,3.9,10.7c7.2,21.9,48.6,55.8,48.6,55.8s-0.2,40.8-5.3,52.4c0,0-12.4,1.5-14.8,10.9c-0.6,2.4,0.4,5,2.5,6.4
	c2.6,1.7,6.4,3.8,10,3.5c5.1-0.3,8.8-2.2,12.7-4.5c2.4-1.3,3.7-2.4,3.8-4c0.9-12.3,4.9-62.1,15-75.8c0,0-34.1-32.7-28.1-74.4"/>
</svg>
