<?xml version="1.0" encoding="utf-8"?>
<!-- Generator: Adobe Illustrator 17.0.0, SVG Export Plug-In . SVG Version: 6.00 Build 0)  -->
<!DOCTYPE svg PUBLIC "-//W3C//DTD SVG 1.1//EN" "http://www.w3.org/Graphics/SVG/1.1/DTD/svg11.dtd" [
	<!ENTITY ns_flows "http://ns.adobe.com/Flows/1.0/">
	<!ENTITY ns_extend "http://ns.adobe.com/Extensibility/1.0/">
	<!ENTITY ns_ai "http://ns.adobe.com/AdobeIllustrator/10.0/">
	<!ENTITY ns_graphs "http://ns.adobe.com/Graphs/1.0/">
]>
<svg version="1.1" id="Layer_1" xmlns:x="&ns_extend;" xmlns:i="&ns_ai;" xmlns:graph="&ns_graphs;"
	 xmlns="http://www.w3.org/2000/svg" xmlns:xlink="http://www.w3.org/1999/xlink" xmlns:a="http://ns.adobe.com/AdobeSVGViewerExtensions/3.0/"
	 x="0px" y="0px" width="612px" height="792px" viewBox="0 0 612 792" style="enable-background:new 0 0 612 792;"
	 xml:space="preserve">
<path style="fill:none;stroke:#000000;stroke-width:8;stroke-miterlimit:10;" d="M318.7,294.8c0.6,1.6,0.9,2.9,1.1,4
	c-0.7-0.8-1.3-1.8-1.7-2.9c-0.1-0.2-0.2-0.5-0.3-0.8L318.7,294.8z"/>
<path style="fill:none;stroke:#000000;stroke-width:8;stroke-miterlimit:10;" d="M338.6,347.8v0.1c0,17.2-4.3,30.2-8.1,41
	c-3.9,10.9-7.1,19.4-7.1,29.5v0.1c0,2.3,0.2,4.7,0.5,7.3c0.2,1,0.3,2,0.5,3c0.8,3.8,1.9,7.9,3.7,12.5l0,0l-15.9,6.2
	c-2.8-7.1-4.5-13.7-5.3-19.9c-0.4-3.2-0.6-6.2-0.6-9.1c0-13.9,4.4-24.9,8.1-35.3c1.9-5.3,3.7-10.5,5-16.2c1.3-5.7,2.2-11.9,2.2-19.2
	c0-6.3-0.7-13.5-2.3-21.7c-1.2-5.9-2.9-12.3-5.2-19.5c2.6-0.5,6.1-3.3,5.8-6.5c0-0.4,0-0.9-0.1-1.4c2.8,3.3,7.6,4.5,9.1,2.9
	c0.4-0.4,0.7-0.9,1.1-1.3C336.2,319.3,338.6,334.7,338.6,347.8z"/>
<path style="fill:none;stroke:#000000;stroke-width:8;stroke-miterlimit:10;" d="M388.9,508.8c0,31-13.8,58-34.3,72.3
	c0-0.9,0-1.8,0-2.8c0-0.3,0-0.6,0-1c0-0.6,0-1.3,0-2c0-0.3,0-0.5,0-0.8c0-0.7-0.1-1.5-0.1-2.2c0-0.4,0-0.7-0.1-1c0-0.4,0-0.7-0.1-1
	c0-0.4-0.1-0.7-0.1-1c0-0.3,0-0.5-0.1-0.7c-0.1-0.6-0.1-1.2-0.2-1.9c-0.1-0.5-0.1-1-0.2-1.5c-0.1-0.4-0.1-0.8-0.2-1.2
	c-0.1-0.7-0.2-1.4-0.3-2.2c0,0,0-0.1,0-0.1c-0.1-0.3-0.1-0.7-0.2-1c-0.1-0.4-0.1-0.7-0.2-1.1c-0.3-1.5-0.5-3-0.9-4.5
	c-0.1-0.4-0.2-0.7-0.3-1.1c-0.1-0.4-0.2-0.8-0.3-1.3c-0.1-0.4-0.2-0.7-0.3-1.1c-0.1-0.4-0.2-0.8-0.3-1.1c0,0,0,0,0-0.1
	c-0.4-1.5-0.8-3-1.2-4.5c-0.2-0.5-0.3-1-0.4-1.5c-0.1-0.3-0.2-0.7-0.3-1v0c-0.2-0.7-0.4-1.4-0.6-2l0,0c-2-6.2-4.5-12.6-7.6-19.3
	c-1.8,24.2-9.4,44.8-13.8,57.7c1.3,2.9,1.9,6.9,1.9,11.4c0.2,0,0.4,0,0.5-0.1c-0.2,0-0.4,0.1-0.5,0.1c-0.1,0-0.1,0-0.2,0
	c-0.2,0-0.4,0.1-0.6,0.1c0,0,0,0-0.1,0c-0.2,0-0.4,0.1-0.7,0.1c-0.1,0-0.2,0-0.3,0c-0.2,0-0.4,0-0.6,0.1c-0.6,0.1-1.2,0.1-1.8,0.1
	c-0.3,0-0.6,0-0.9,0.1c-0.9,0-1.7,0.1-2.6,0.1c-37.4,0-67.7-37.2-67.7-83c0-39.8,22.8-73.1,53.3-81.2c4.6-1.2,9.4-1.9,14.4-1.9
	c0.9,0,1.8,0,2.6,0.1C360.1,427.6,388.9,464.1,388.9,508.8z"/>
<path style="fill:none;stroke:#000000;stroke-width:8;stroke-miterlimit:10;" d="M323.9,591.8L323.9,591.8c0-2.3,1.3-6.4,3.2-11.9"
	/>
<path style="fill:none;stroke:#000000;stroke-width:8;stroke-miterlimit:10;" d="M340.9,522.2c0.4-5.5,0.5-11.1,0.2-16.8
	c0,0,0,0,0-0.1c-0.7-13.6-3.7-28-10.2-42.3c12.2,20.6,18.2,50.7,17.7,78.1c0,0.1,0,0.3,0,0.4"/>
<path style="fill:none;stroke:#000000;stroke-width:8;stroke-miterlimit:10;" d="M327.1,579.9c1.3,2.9,1.9,6.9,1.9,11.4
	c-0.1,0-0.1,0-0.2,0c-0.2,0-0.4,0.1-0.6,0.1c0,0,0,0-0.1,0c-0.2,0-0.4,0.1-0.7,0.1c-0.1,0-0.2,0-0.3,0c-0.2,0-0.4,0-0.6,0.1
	c-0.6,0.1-1.2,0.1-1.8,0.1c-0.3,0-0.6,0-0.9,0.1l0,0C323.9,589.5,325.2,585.4,327.1,579.9z"/>
<path style="fill:none;stroke:#000000;stroke-width:8;stroke-miterlimit:10;" d="M348.5,541.1c0,0.1,0,0.3,0,0.4
	c-2-6.2-4.5-12.6-7.6-19.3c0.4-5.5,0.5-11.1,0.2-16.8c0,0,0,0,0-0.1c-0.7-13.6-3.7-28-10.2-42.3C343.1,483.6,349,513.7,348.5,541.1z
	"/>
<path style="fill:none;stroke:#000000;stroke-width:8;stroke-miterlimit:10;" d="M329,591.3c0.2,0,0.4,0,0.5-0.1
	C329.4,591.3,329.2,591.3,329,591.3L329,591.3z"/>
<path style="fill:none;stroke:#000000;stroke-width:8;stroke-miterlimit:10;" d="M340.8,522.1C340.8,522.2,340.8,522.2,340.8,522.1
	c-1.7,24.3-9.3,44.9-13.7,57.8c0,0,0,0,0-0.1C331.5,566.9,339.1,546.3,340.8,522.1z"/>
<path style="fill:none;stroke:#000000;stroke-width:8;stroke-miterlimit:10;" d="M349.9,546.1c0.4,1.5,0.8,3,1.2,4.5
	C350.7,549.1,350.3,547.6,349.9,546.1z"/>
<path style="fill:none;stroke:#000000;stroke-width:8;stroke-miterlimit:10;" d="M470.4,216.5c-1.8,42.9-113.2,52.8-140.5,83.8
	c-0.4,0.4-0.8,0.9-1.1,1.3c-1.4,1.6-6.2,0.4-9.1-2.9c-0.2-1.1-0.5-2.4-1.1-4c-0.5-1.6-1.3-3.3-2.2-5.3
	c-4.9-32.1,4.8-151.8,81.9-154.4C434.4,135.6,474,183,470.4,216.5z"/>
<path style="fill:none;stroke:#000000;stroke-width:8;stroke-miterlimit:10;" d="M319.8,298.7c-0.7-0.8-1.3-1.8-1.7-2.9
	c-0.1-0.2-0.2-0.5-0.3-0.8c-0.5-1.3-1-3.3-1.3-5.6c0.9,2,1.7,3.7,2.2,5.3C319.3,296.3,319.6,297.7,319.8,298.7z"/>
<path style="fill:none;stroke:#000000;stroke-width:8;stroke-miterlimit:10;" d="M319.8,300.2c0.3,3.2-3.2,5.9-5.8,6.5
	c-0.7,0.2-1.4,0.1-1.9-0.1c-35.4-15.7-144.8,4.8-163-24.3c-16.1-21.8,2.5-63.3,35.5-72.1c66.8-15.2,118.4,51.2,131.8,79.3
	c0.4,2.4,0.8,4.3,1.3,5.6c0.1,0.3,0.2,0.5,0.3,0.8c0.4,1.1,1,2,1.7,2.9C319.9,299.3,319.9,299.8,319.8,300.2z"/>
<path style="fill:none;stroke:#000000;stroke-width:8;stroke-miterlimit:10;" d="M319.8,298.7c-0.7-0.8-1.3-1.8-1.7-2.9
	c-0.1-0.2-0.2-0.5-0.3-0.8c-0.5-1.3-1-3.3-1.3-5.6c0.9,2,1.7,3.7,2.2,5.3C319.3,296.3,319.6,297.7,319.8,298.7z"/>
<path style="fill:none;stroke:#000000;stroke-width:8;stroke-miterlimit:10;" d="M354.7,577.3c0-0.6,0-1.3,0-2c0-0.3,0-0.5,0-0.8
	c0-0.7-0.1-1.5-0.1-2.2c0-0.4,0-0.7-0.1-1c0-0.4,0-0.7-0.1-1c0-0.4-0.1-0.7-0.1-1c0-0.3,0-0.5-0.1-0.7c-0.1-0.6-0.1-1.2-0.2-1.9
	c-0.1-0.5-0.1-1-0.2-1.5c-0.1-0.4-0.1-0.8-0.2-1.2c-0.1-0.7-0.2-1.4-0.3-2.2c0,0,0-0.1,0-0.1c-0.1-0.3-0.1-0.7-0.2-1
	c-0.1-0.4-0.1-0.7-0.2-1.1c-0.3-1.5-0.5-3-0.9-4.5c-0.1-0.4-0.2-0.7-0.3-1.1c-0.1-0.4-0.2-0.8-0.3-1.3c-0.1-0.4-0.2-0.7-0.3-1.1
	c-0.1-0.4-0.2-0.8-0.3-1.1c0,0,0,0,0-0.1c-0.4-1.5-0.8-3-1.2-4.5c-0.2-0.5-0.3-1-0.4-1.5c-0.1-0.3-0.2-0.7-0.3-1v0
	c-0.2-0.7-0.4-1.4-0.6-2l0,0c-2-6.2-4.5-12.6-7.6-19.3c-1.8,24.2-9.4,44.8-13.8,57.7c1.3,2.9,1.9,6.9,1.9,11.4c0.2,0,0.4,0,0.5-0.1
	c-0.2,0-0.4,0.1-0.5,0.1c0.2,20.1-10.6,52.4-23.4,61.5c-3,2.3-1.4,4.9,1.8,2.8c0,0,45.6-21.2,47.2-74.6c0-0.9,0-1.8,0-2.8
	C354.7,578,354.7,577.7,354.7,577.3z"/>
<path style="fill:none;stroke:#000000;stroke-width:8;stroke-miterlimit:10;" d="M329,591.3c0.2,0,0.4,0,0.5-0.1
	C329.4,591.3,329.2,591.3,329,591.3L329,591.3z"/>
<path style="fill:none;stroke:#000000;stroke-width:8;stroke-miterlimit:10;" d="M348.5,541.5L348.5,541.5c-2-6.2-4.5-12.6-7.6-19.3
	c-1.8,24.2-9.4,44.8-13.8,57.7c0,0,0,0,0-0.1c4.4-12.9,12-33.6,13.8-57.7l0.2-17.6c0,0.3,0,0.5,0.1,0.9c0,0,0,0,0,0.1
	c0.6,6.9,5,26.4,7.4,35.7c0.2,0.9,0.4,1.7,0.6,2.4C348.9,542.9,348.7,542.2,348.5,541.5z"/>
</svg>
