<?xml version="1.0" encoding="utf-8"?>
<!-- Generator: Adobe Illustrator 22.1.0, SVG Export Plug-In . SVG Version: 6.00 Build 0)  -->
<svg version="1.1" id="Layer_1" xmlns="http://www.w3.org/2000/svg" xmlns:xlink="http://www.w3.org/1999/xlink" x="0px" y="0px"
	 viewBox="0 0 85 85" style="enable-background:new 0 0 85 85;" xml:space="preserve">
<path d="M40,74.9c0.3-0.1,7.5-2.8,11.2-4.4c3.3-1.4,10.2-3.8,10.1-4s-7,2.2-10.3,3.7c-3.5,1.6-10.2,4.1-11,4.3"/>
<path d="M68.5,62.3c-0.5,0.2-1.8,0.6-2.4,0.9c-3.2,1.2-9.7,3.7-9.6,3.8c0.1,0.2,6.4-2.5,9.7-3.5c0.8-0.3,2.1-0.7,2.5-0.8"/>
<path shape-rendering="auto" image-rendering="auto" color-rendering="auto" d="M12,52c-2.2-1.3-3.8-2.1-4.1-2
	c-0.3,0.1,2.3,1.8,5.7,3.9l0,0c1.2,0.7,2.4,1.5,3.7,2.2L15.6,54C14.3,53.3,13,52.6,12,52z M12,52c-2.2-1.3-3.8-2.1-4.1-2
	c-0.3,0.1,2.3,1.8,5.7,3.9l0,0c1.2,0.7,2.4,1.5,3.7,2.2L15.6,54C14.3,53.3,13,52.6,12,52z M15.6,54.1C14.3,53.3,13,52.6,12,52
	c-2.2-1.3-3.8-2.1-4.1-2c-0.3,0.1,2.3,1.8,5.7,3.9l0,0c1.2,0.7,2.4,1.5,3.7,2.2L15.6,54.1z M16.3,43.7l-1,0.3c0.5,0.5,1,1,1.4,1.4
	l0.9-0.3C17.2,44.6,16.7,44.2,16.3,43.7z M64.8,55.5l5.3,2.6l-1.7,0.6l0,0l-13.1,5l0,0l0,0l-13.7,5.2c0,0-0.4,0.6-0.7,0.8
	c-0.3,0.1-0.8-0.3-1.1-0.4c-0.4-0.1-1.1,0.1-1.4,0.6c-0.7,1.1-1.1,2.4-1.3,3.7c-0.3,1.5-0.1,3,0.4,4.3l-32-21.8
	c-0.7-0.5-1.4-2-1.4-3.5c0.1-1.6,0.5-3.2,1.5-3.7c0,0,1.2,0.4,1.5,0.3c0.4-0.1,0.9-1,0.9-1L8.6,48l1.5-0.5L8.8,46l-1.5,0.5L7,46.6
	c0,0-0.3,0.9-0.7,1c-0.6,0.3-1.8-0.3-1.8-0.3c-1.1,0.5-1.9,2.8-2.1,4.8c-0.1,2.1,0.3,4.1,1,4.9l35.4,24.7c0.5,0.3,0.8,0.2,1.1,0.1
	l33.2-13.7c0.7-0.3,0.7-1,0.1-1.8L69.9,64c0.3,1.2,0.5,2.3,0.3,3c-6.5,2.6-21.5,8.7-30.1,12.4c-0.7-0.9-0.8-2.4-0.9-3.6
	c-0.1-1.4,0-3.3,0.5-4.1c0.5-0.8,1.2,0,1.7-0.2c0.3-0.2,0.9-0.5,1.2-1c6.7-2.2,21.4-8.2,30.3-11.7c0.6-0.7,0.3-1.1-0.1-1.5l-7.6-3.7
	l0,0 M13.6,53.9C13,53.3,12.5,52.6,12,52c-2.2-1.3-3.8-2.1-4.1-2C7.6,50.2,10.2,51.9,13.6,53.9z M12,52c-2.2-1.3-3.8-2.1-4.1-2
	c-0.3,0.1,2.3,1.8,5.7,3.9l0,0c1.2,0.7,2.4,1.5,3.7,2.2L15.6,54C14.3,53.3,13,52.6,12,52z"/>
<path d="M28.4,65.2c0.6-0.1,6.2-1.2,9.1-1.7c3.4-0.5,10.2-2,10.1-2.2s-6.5,1.4-10.1,1.8c-3.1,0.3-8.8,1.5-9.3,1.6"/>
<path d="M60.1,56.9c-0.6-0.1-8.8,1.4-13.1,2.1c-5.8,0.9-17.6,2.5-17.4,2.8c0.1,0.3,11.8-1.5,17.7-2.5C51.8,58.6,60.7,57,60.1,56.9
	L60.1,56.9z"/>
<path shape-rendering="auto" image-rendering="auto" color-rendering="auto" d="M22.7,50.3L22.7,50.3c-1-1.1-2-2.1-2.8-3l0,0
	c-0.4-0.4-0.7-0.7-1-1.1c-0.3-0.4-0.8-0.8-1.2-1.2c-0.4-0.5-0.9-0.9-1.4-1.4c-0.4-0.4-0.9-0.9-1.3-1.3l0,0l0,0l0,0l-5-3.8
	c1.3,1.4,3.3,3.4,5.1,5.2c0.1,0.1,0.2,0.2,0.3,0.3c0.5,0.5,1,1,1.4,1.4c0.5,0.5,1,1,1.4,1.5c0.1,0.1,0.1,0.1,0.2,0.2l0,0
	c3.5,3.7,9.8,10.9,10.3,10.5C29,57.3,25.8,53.7,22.7,50.3z M33.8,56.9l-1.2,0.2l0,0l-0.8,0.1l-1.5,0.2c-0.4,0.2-0.5,0.6-0.7,0.7
	c-0.2,0.1-0.7-0.1-1.2-0.1c-0.7,0.2-1.6,1.3-2.2,2.3c0.4,0.2,0.8,0.4,1.1,0.7c0-0.1,0.1-0.1,0.1-0.2c0-0.1,0.1-0.1,0.1-0.2
	c0.1-0.1,0.1-0.2,0.2-0.3c0-0.1,0.1-0.2,0.2-0.2l0,0c0.1-0.1,0.2-0.2,0.3-0.3l0,0c0.1-0.1,0.3-0.2,0.4-0.3c0.4,0,1.1,0.2,1.5,0.1
	c0.2-0.1,0.4-0.2,0.5-0.3c0.1,0,0.1-0.1,0.2-0.1s0.1-0.1,0.1-0.1l0,0L31,59l2.4-0.4l0.8-0.1 M22.7,50.3L22.7,50.3
	c-1-1.1-2-2.1-2.8-3l0,0c-0.4-0.4-0.7-0.7-1-1.1c-0.3-0.4-0.8-0.8-1.2-1.2c-0.4-0.5-0.9-0.9-1.4-1.4c-0.4-0.4-0.9-0.9-1.3-1.3l0,0
	l0,0l0,0l-5-3.8c1.3,1.4,3.3,3.4,5.1,5.2c0.1,0.1,0.2,0.2,0.3,0.3c0.5,0.5,1,1,1.4,1.4c0.5,0.5,1,1,1.4,1.5c0.1,0.1,0.1,0.1,0.2,0.2
	l0,0c3.5,3.7,9.8,10.9,10.3,10.5C29,57.3,25.8,53.7,22.7,50.3z M22.7,50.3L22.7,50.3c-1-1.1-2-2.1-2.8-3l0,0c-0.4-0.4-0.7-0.7-1-1.1
	c-0.3-0.4-0.8-0.8-1.2-1.2c-0.4-0.5-0.9-0.9-1.4-1.4c-0.4-0.4-0.9-0.9-1.3-1.3l0,0l0,0l0,0l-5-3.8c1.3,1.4,3.3,3.4,5.1,5.2
	c0.1,0.1,0.2,0.2,0.3,0.3c0.5,0.5,1,1,1.4,1.4c0.5,0.5,1,1,1.4,1.5c0.1,0.1,0.1,0.1,0.2,0.2l0,0c3.5,3.7,9.8,10.9,10.3,10.5
	C29,57.3,25.8,53.7,22.7,50.3z M33.8,56.9l-1.2,0.2l0,0l-0.8,0.1l-1.5,0.2c-0.4,0.2-0.5,0.6-0.7,0.7c-0.2,0.1-0.7-0.1-1.2-0.1
	c-0.7,0.2-1.6,1.3-2.2,2.3c0.4,0.2,0.8,0.4,1.1,0.7c0-0.1,0.1-0.1,0.1-0.2c0-0.1,0.1-0.1,0.1-0.2c0.1-0.1,0.1-0.2,0.2-0.3
	c0-0.1,0.1-0.2,0.2-0.2l0,0c0.1-0.1,0.2-0.2,0.3-0.3l0,0c0.1-0.1,0.3-0.2,0.4-0.3c0.4,0,1.1,0.2,1.5,0.1c0.2-0.1,0.4-0.2,0.5-0.3
	c0.1,0,0.1-0.1,0.2-0.1s0.1-0.1,0.1-0.1l0,0L31,59l2.4-0.4l0.8-0.1 M22.7,50.3L22.7,50.3c-1-1.1-2-2.1-2.8-3l0,0
	c-0.4-0.4-0.7-0.7-1-1.1c-0.3-0.4-0.8-0.8-1.2-1.2c-0.4-0.5-0.9-0.9-1.4-1.4c-0.4-0.4-0.9-0.9-1.3-1.3l0,0l0,0l0,0l-5-3.8
	c1.3,1.4,3.3,3.4,5.1,5.2c0.1,0.1,0.2,0.2,0.3,0.3c0.5,0.5,1,1,1.4,1.4c0.5,0.5,1,1,1.4,1.5c0.1,0.1,0.1,0.1,0.2,0.2l0,0
	c3.5,3.7,9.8,10.9,10.3,10.5C29,57.3,25.8,53.7,22.7,50.3z M22.7,50.3L22.7,50.3c-1-1.1-2-2.1-2.8-3l0,0c-0.4-0.4-0.7-0.7-1-1.1
	c-0.3-0.4-0.8-0.8-1.2-1.2c-0.4-0.5-0.9-0.9-1.4-1.4c-0.4-0.4-0.9-0.9-1.3-1.3l0,0l0,0l0,0l-5-3.8c1.3,1.4,3.3,3.4,5.1,5.2
	c0.1,0.1,0.2,0.2,0.3,0.3c0.5,0.5,1,1,1.4,1.4c0.5,0.5,1,1,1.4,1.5c0.1,0.1,0.1,0.1,0.2,0.2l0,0c3.5,3.7,9.8,10.9,10.3,10.5
	C29,57.3,25.8,53.7,22.7,50.3z M33.8,56.9l-1.2,0.2l0,0l-0.8,0.1l-1.5,0.2c-0.4,0.2-0.5,0.6-0.7,0.7c-0.2,0.1-0.7-0.1-1.2-0.1
	c-0.7,0.2-1.6,1.3-2.2,2.3c-0.2,0.3-0.3,0.6-0.3,0.8v0.1c-0.7,2.9-0.2,4.3,1.1,6.4l-9.6-11.5l0,0L15.7,54l-5.5-6.6L8.8,46l-3-3.6
	c-0.5-0.8-0.8-2.1-0.5-4.2c0-0.3,0.1-0.6,0.2-0.9c0.1-0.3,0.1-0.5,0.2-0.7c0.1-0.3,0.3-0.7,0.4-1l-0.3-0.2c-0.2-0.1-0.3-0.4-0.5-0.6
	C5.2,34.6,5.1,34.3,5,34c-0.3,0.3-0.6,0.8-0.7,1.2c-0.1,0.2-0.2,0.4-0.2,0.6c-0.1,0.5-0.2,1-0.3,1.4c-0.5,2-0.1,5,0.5,5.9
	c0.2,0.2,1.3,1.5,2.8,3.3c0.4,0.5,0.8,1,1.3,1.6c1,1.2,2.2,2.6,3.4,4c0.5,0.6,1.1,1.3,1.6,1.9l0,0c5.9,7,12.6,14.8,13,15.3
	c0.9,0.9,1.7,1,3.3,0.6c1.8-0.5,4.5-1.1,7.8-1.9c0.3-0.1,0.6-0.1,0.9-0.2c4.9-1.1,10.8-2.5,16.6-3.9l0,0l0,0
	c4.8-1.2,9.4-2.3,13.3-3.4c0.7-0.4,0.4-1-0.1-1.5L68,58.8l0,0l-2.8-1.7l0,0c0,0.2,0,0.3,0,0.5v0.1c0,0.2,0,0.4,0.1,0.6
	c0,0.2,0.1,0.4,0.1,0.5l0,0l0,0c0,0.2,0.1,0.4,0.1,0.6c-0.1,0-0.1,0-0.2,0C56.5,61.6,45.9,64,36,66.2l0,0c-0.4,0.1-0.8,0.2-1.2,0.3
	c-2,0.4-3.9,0.9-5.7,1.3l0,0c-1-0.4-2-2-2.2-2.8c-0.2-1.4-0.1-2.3,0.1-3c0.1-0.4,0.2-0.6,0.4-0.8c0-0.1,0.1-0.1,0.1-0.2
	c0-0.1,0.1-0.1,0.1-0.2c0.1-0.1,0.1-0.2,0.2-0.3c0-0.1,0.1-0.2,0.2-0.2l0,0c0.1-0.1,0.2-0.2,0.3-0.3l0,0c0.1-0.1,0.3-0.2,0.4-0.3
	c0.4,0,1.1,0.2,1.5,0.1c0.2-0.1,0.4-0.2,0.5-0.3c0.1,0,0.1-0.1,0.2-0.1s0.1-0.1,0.1-0.1l0,0l0.1-0.1l2.4-0.4l0.8-0.1 M22.7,50.3
	L22.7,50.3c-1-1.1-2-2.1-2.8-3l0,0c-0.4-0.4-0.7-0.7-1-1.1c-0.3-0.4-0.8-0.8-1.2-1.2c-0.4-0.5-0.9-0.9-1.4-1.4
	c-0.4-0.4-0.9-0.9-1.3-1.3l0,0l0,0l0,0l-5-3.8c1.3,1.4,3.3,3.4,5.1,5.2c0.1,0.1,0.2,0.2,0.3,0.3c0.5,0.5,1,1,1.4,1.4
	c0.5,0.5,1,1,1.4,1.5c0.1,0.1,0.1,0.1,0.2,0.2l0,0c3.5,3.7,9.8,10.9,10.3,10.5C29,57.3,25.8,53.7,22.7,50.3z M22.7,50.3L22.7,50.3
	c-1-1.1-2-2.1-2.8-3l0,0c-0.4-0.4-0.7-0.7-1-1.1c-0.3-0.4-0.8-0.8-1.2-1.2c-0.4-0.5-0.9-0.9-1.4-1.4c-0.4-0.4-0.9-0.9-1.3-1.3l0,0
	l0,0l0,0l-5-3.8c1.3,1.4,3.3,3.4,5.1,5.2c0.1,0.1,0.2,0.2,0.3,0.3c0.5,0.5,1,1,1.4,1.4c0.5,0.5,1,1,1.4,1.5c0.1,0.1,0.1,0.1,0.2,0.2
	l0,0c3.5,3.7,9.8,10.9,10.3,10.5C29,57.3,25.8,53.7,22.7,50.3z M22.7,50.3L22.7,50.3c-1-1.1-2-2.1-2.8-3l0,0c-0.4-0.4-0.7-0.7-1-1.1
	c-0.3-0.4-0.8-0.8-1.2-1.2c-0.4-0.5-0.9-0.9-1.4-1.4c-0.4-0.4-0.9-0.9-1.3-1.3l0,0l0,0l0,0l-5-3.8c1.3,1.4,3.3,3.4,5.1,5.2
	c0.1,0.1,0.2,0.2,0.3,0.3c0.5,0.5,1,1,1.4,1.4c0.5,0.5,1,1,1.4,1.5c0.1,0.1,0.1,0.1,0.2,0.2l0,0c3.5,3.7,9.8,10.9,10.3,10.5
	C29,57.3,25.8,53.7,22.7,50.3z M33.8,56.9l-1.2,0.2l0,0l-0.8,0.1l-1.5,0.2c-0.4,0.2-0.5,0.6-0.7,0.7c-0.2,0.1-0.7-0.1-1.2-0.1
	c-0.7,0.2-1.6,1.3-2.2,2.3c0.4,0.2,0.8,0.4,1.1,0.7c0-0.1,0.1-0.1,0.1-0.2c0-0.1,0.1-0.1,0.1-0.2c0.1-0.1,0.1-0.2,0.2-0.3
	c0-0.1,0.1-0.2,0.2-0.2l0,0c0.1-0.1,0.2-0.2,0.3-0.3l0,0c0.1-0.1,0.3-0.2,0.4-0.3c0.4,0,1.1,0.2,1.5,0.1c0.2-0.1,0.4-0.2,0.5-0.3
	c0.1,0,0.1-0.1,0.2-0.1s0.1-0.1,0.1-0.1l0,0L31,59l2.4-0.4l0.8-0.1 M22.7,50.3L22.7,50.3c-1-1.1-2-2.1-2.8-3l0,0
	c-0.4-0.4-0.7-0.7-1-1.1c-0.3-0.4-0.8-0.8-1.2-1.2c-0.4-0.5-0.9-0.9-1.4-1.4c-0.4-0.4-0.9-0.9-1.3-1.3l0,0l0,0l0,0l-5-3.8
	c1.3,1.4,3.3,3.4,5.1,5.2c0.1,0.1,0.2,0.2,0.3,0.3c0.5,0.5,1,1,1.4,1.4c0.5,0.5,1,1,1.4,1.5c0.1,0.1,0.1,0.1,0.2,0.2l0,0
	c3.5,3.7,9.8,10.9,10.3,10.5C29,57.3,25.8,53.7,22.7,50.3z M22.7,50.3L22.7,50.3c-1-1.1-2-2.1-2.8-3l0,0c-0.4-0.4-0.7-0.7-1-1.1
	c-0.3-0.4-0.8-0.8-1.2-1.2c-0.4-0.5-0.9-0.9-1.4-1.4c-0.4-0.4-0.9-0.9-1.3-1.3l0,0l0,0l0,0l-5-3.8c1.3,1.4,3.3,3.4,5.1,5.2
	c0.1,0.1,0.2,0.2,0.3,0.3c0.5,0.5,1,1,1.4,1.4c0.5,0.5,1,1,1.4,1.5c0.1,0.1,0.1,0.1,0.2,0.2l0,0c3.5,3.7,9.8,10.9,10.3,10.5
	C29,57.3,25.8,53.7,22.7,50.3z M33.8,56.9l-1.2,0.2l0,0l-0.8,0.1l-1.5,0.2c-0.4,0.2-0.5,0.6-0.7,0.7c-0.2,0.1-0.7-0.1-1.2-0.1
	c-0.7,0.2-1.6,1.3-2.2,2.3c0.4,0.2,0.8,0.4,1.1,0.7c0-0.1,0.1-0.1,0.1-0.2c0-0.1,0.1-0.1,0.1-0.2c0.1-0.1,0.1-0.2,0.2-0.3
	c0-0.1,0.1-0.2,0.2-0.2l0,0c0.1-0.1,0.2-0.2,0.3-0.3l0,0c0.1-0.1,0.3-0.2,0.4-0.3c0.4,0,1.1,0.2,1.5,0.1c0.2-0.1,0.4-0.2,0.5-0.3
	c0.1,0,0.1-0.1,0.2-0.1s0.1-0.1,0.1-0.1l0,0L31,59l2.4-0.4l0.8-0.1 M22.7,50.3L22.7,50.3c-1-1.1-2-2.1-2.8-3l0,0
	c-0.4-0.4-0.7-0.7-1-1.1c-0.3-0.4-0.8-0.8-1.2-1.2c-0.4-0.5-0.9-0.9-1.4-1.4c-0.4-0.4-0.9-0.9-1.3-1.3l0,0l0,0l0,0l-5-3.8
	c1.3,1.4,3.3,3.4,5.1,5.2c0.1,0.1,0.2,0.2,0.3,0.3c0.5,0.5,1,1,1.4,1.4c0.5,0.5,1,1,1.4,1.5c0.1,0.1,0.1,0.1,0.2,0.2l0,0
	c3.5,3.7,9.8,10.9,10.3,10.5C29,57.3,25.8,53.7,22.7,50.3z"/>
<path d="M68.9,47.3c-3.7,0.9-7.7,1.9-11.4,2.8c-4.7,1.2-11.7,2.7-11.6,3.1c0.1,0.4,7.1-1.5,11.7-2.7c3.6-0.9,7.6-1.7,11.2-2.7"/>
<path d="M69.1,45.6c-0.4,0-1,0-1.4,0c-2.1,0.4-6.2,1.6-6,1.8c0.1,0.2,3.8-1.1,6.2-1.3c0.3,0,0.8,0,1.1,0"/>
<path d="M52.3,49.2c-5.1,1.3-14.5,3.7-14.4,4s9.4-2.3,14.5-3.7c2.7-0.7,8.2-2.1,7.7-2.2C59.5,47.2,54.8,48.6,52.3,49.2L52.3,49.2z"
	/>
<path shape-rendering="auto" image-rendering="auto" color-rendering="auto" d="M42.5,46.7l-7.1,1.6c-1.3,1.5-1.6,3.2-1.5,4.9
	c0,0.1,0,0.2,0,0.2c0,1,0.3,2.4,0.6,3.4l0.5-0.1c0,0.2,0.1,0.4,0.1,0.5s0.1,0.4,0.2,0.5c0,0.1,0.1,0.2,0.1,0.3
	c0.4-0.1,0.9-0.1,1.3-0.2c-0.2-0.4-0.4-0.9-0.5-1.4c-0.2-0.6-0.3-1.3-0.3-1.9c-0.1-2.3,0.3-3.8,1.2-4.7l0.3-0.1l8.1-1.8 M16.5,43.6
	l-1.6-1.2c0.5,0.5,0.9,0.9,1.3,1.3c0.5,0.5,1,1,1.4,1.4l0.6-0.2L16.5,43.6z M42.5,46.7l-7.1,1.6c-1.3,1.5-1.6,3.2-1.5,4.9
	c0,0.1,0,0.2,0,0.2c0,1,0.3,2.4,0.6,3.4l0.5-0.1c0,0.2,0.1,0.4,0.1,0.5s0.1,0.4,0.2,0.5c0,0.1,0.1,0.2,0.1,0.3
	c0.4-0.1,0.9-0.1,1.3-0.2c-0.2-0.4-0.4-0.9-0.5-1.4c-0.2-0.6-0.3-1.3-0.3-1.9c-0.1-2.3,0.3-3.8,1.2-4.7l0.3-0.1l8.1-1.8 M16.5,43.6
	l-1.6-1.2c0.5,0.5,0.9,0.9,1.3,1.3c0.5,0.5,1,1,1.4,1.4l0.6-0.2L16.5,43.6z M42.5,46.7l-7.1,1.6c-1.3,1.5-1.6,3.2-1.5,4.9
	c0,0.1,0,0.2,0,0.2c0,1,0.3,2.4,0.6,3.4c0.1,0.4,0.3,0.7,0.4,1l-1.1-0.9l-15.6-12l-1.7-1.3l-1.6-1.2l0,0l0,0l0,0l-5-3.8l0,0l0,0l0,0
	l-3.7-2.8l-0.3-0.2c-0.2-0.1-0.3-0.4-0.5-0.6c-0.1-0.2-0.2-0.5-0.3-0.8c-0.3-0.8-0.5-1.7-0.5-2.2c0-0.1,0-0.3,0-0.4
	c0.1-1.3,0.5-2.6,1.3-4.2l0.5-0.1l1-0.3l0.5-0.1c-0.1-0.4-0.1-0.9,0-1.4v-0.1v-0.1H7.6l0,0H7.4l-1,0.1l-1,0.1
	C3.9,25.9,3,29.3,3,31.4c0,1.2,0.6,2.9,1.2,4.2c0.1,0.2,0.2,0.4,0.4,0.6c0.1,0.2,0.2,0.3,0.4,0.5l0.6,0.5l9,6.9l1.7,1.3l2,1.5l0,0
	l4.3,3.3l0,0l9.1,6.9l1.7,1.3l0.1,0.1l0.6,0.5l0,0l0.6,0.5l1.4,1l0,0l0.5,0.4l0.4,0.3l2.3-0.7l0,0l0,0l0,0l0,0l3.1-0.9l0,0l0,0
	l10-2.9l4.3-1.3l4.1-1.2l0,0l0,0l0.4-0.1l0,0l0,0l0.3-0.1l2.6-0.8l2.9-0.8l1-0.3l6-1.7c0.5-0.6,0.2-0.9,0.1-1.3L70.6,47l0,0
	c0,0,0.1,1.5,0,2.5c-1.4,0.4-2.9,0.8-4.6,1.2l0,0c-0.3,0.1-0.7,0.2-1,0.3c-0.4,0.1-0.8,0.2-1.1,0.3c-0.8,0.2-1.6,0.4-2.4,0.7l0,0
	c-0.9,0.2-1.7,0.5-2.6,0.7l0,0c-0.9,0.2-1.8,0.5-2.7,0.7l0,0c-4.1,1.1-8.3,2.3-12,3.3l0,0l0,0l0,0c-0.4,0.1-0.8,0.2-1.2,0.3l0,0l0,0
	c-1.7,0.5-3.3,0.9-4.7,1.3l0,0l0,0l0,0l-0.8,0.2c-0.1,0-0.2,0.1-0.3,0.1l-0.1-0.1c-0.1-0.1-0.2-0.3-0.3-0.5c0,0,0-0.1-0.1-0.1
	c-0.2-0.4-0.4-0.9-0.5-1.4c-0.2-0.6-0.3-1.3-0.3-1.9c-0.1-2.3,0.3-3.8,1.2-4.7l0.3-0.1l8.1-1.8 M16.5,43.6l-1.6-1.2
	c0.5,0.5,0.9,0.9,1.3,1.3c0.5,0.5,1,1,1.4,1.4l0.6-0.2L16.5,43.6z M42.5,46.7l-7.1,1.6c-1.3,1.5-1.6,3.2-1.5,4.9c0,0.1,0,0.2,0,0.2
	c0,1,0.3,2.4,0.6,3.4l0.5-0.1c0,0.2,0.1,0.4,0.1,0.5s0.1,0.4,0.2,0.5c0,0.1,0.1,0.2,0.1,0.3c0.4-0.1,0.9-0.1,1.3-0.2
	c-0.2-0.4-0.4-0.9-0.5-1.4c-0.2-0.6-0.3-1.3-0.3-1.9c-0.1-2.3,0.3-3.8,1.2-4.7l0.3-0.1l8.1-1.8 M16.5,43.6l-1.6-1.2
	c0.5,0.5,0.9,0.9,1.3,1.3c0.5,0.5,1,1,1.4,1.4l0.6-0.2L16.5,43.6z M42.5,46.7l-7.1,1.6c-1.3,1.5-1.6,3.2-1.5,4.9c0,0.1,0,0.2,0,0.2
	c0,1,0.3,2.4,0.6,3.4l0.5-0.1c0,0.2,0.1,0.4,0.1,0.5s0.1,0.4,0.2,0.5c0,0.1,0.1,0.2,0.1,0.3c0.4-0.1,0.9-0.1,1.3-0.2
	c-0.2-0.4-0.4-0.9-0.5-1.4c-0.2-0.6-0.3-1.3-0.3-1.9c-0.1-2.3,0.3-3.8,1.2-4.7l0.3-0.1l8.1-1.8 M16.5,43.6l-1.6-1.2
	c0.5,0.5,0.9,0.9,1.3,1.3c0.5,0.5,1,1,1.4,1.4l0.6-0.2L16.5,43.6z M42.5,46.7l-7.1,1.6c-1.3,1.5-1.6,3.2-1.5,4.9c0,0.1,0,0.2,0,0.2
	c0,1,0.3,2.4,0.6,3.4l0.5-0.1c0,0.2,0.1,0.4,0.1,0.5s0.1,0.4,0.2,0.5c0,0.1,0.1,0.2,0.1,0.3c0.4-0.1,0.9-0.1,1.3-0.2
	c-0.2-0.4-0.4-0.9-0.5-1.4c-0.2-0.6-0.3-1.3-0.3-1.9c-0.1-2.3,0.3-3.8,1.2-4.7l0.3-0.1l8.1-1.8"/>
<path shape-rendering="auto" image-rendering="auto" color-rendering="auto" d="M24.6,29.4c-1.6-0.8-3.2-1.6-4.8-2.3l0,0
	c-1-0.5-1.9-0.9-2.8-1.3c0,0-0.1,0-0.1-0.1c-0.8-0.4-1.6-0.8-2.3-1.1c-1.6-0.8-2.9-1.3-3.3-1.4c-0.1,0-0.2,0-0.2,0
	c-0.1,0.1,0.8,0.7,2.3,1.5c0.7,0.4,1.4,0.7,2.3,1.2c1.7,0.9,3.8,1.9,5.8,2.9c1,0.5,2.1,1,3.1,1.5c1.4,0.7,2.8,1.3,3.9,1.9
	c0.4,0.2,0.8,0.4,1.2,0.6L24.6,29.4z M24.6,29.4c-1.6-0.8-3.2-1.6-4.8-2.3l0,0c-1-0.5-1.9-0.9-2.8-1.3c0,0-0.1,0-0.1-0.1
	c-0.8-0.4-1.6-0.8-2.3-1.1c-1.6-0.8-2.9-1.3-3.3-1.4c-0.1,0-0.2,0-0.2,0c-0.1,0.1,0.8,0.7,2.3,1.5c0.7,0.4,1.4,0.7,2.3,1.2
	c1.7,0.9,3.8,1.9,5.8,2.9c1,0.5,2.1,1,3.1,1.5c1.4,0.7,2.8,1.3,3.9,1.9c0.4,0.2,0.8,0.4,1.2,0.6L24.6,29.4z M24.6,29.4
	c-1.6-0.8-3.2-1.6-4.8-2.3l0,0c-1-0.5-1.9-0.9-2.8-1.3c0,0-0.1,0-0.1-0.1c-0.8-0.4-1.6-0.8-2.3-1.1c-1.6-0.8-2.9-1.3-3.3-1.4
	c-0.1,0-0.2,0-0.2,0c-0.1,0.1,0.8,0.7,2.3,1.5c0.7,0.4,1.4,0.7,2.3,1.2c1.7,0.9,3.8,1.9,5.8,2.9c1,0.5,2.1,1,3.1,1.5
	c1.4,0.7,2.8,1.3,3.9,1.9c0.4,0.2,0.8,0.4,1.2,0.6L24.6,29.4z M22,17.7c-0.4,0.1-0.7,0.2-1.1,0.3c0.6,0.3,1.2,0.7,1.7,1l1.1-0.3
	C23.2,18.4,22.6,18.1,22,17.7z M19.8,27L19.8,27c-1-0.5-2-0.9-2.9-1.4c0,0-0.1,0-0.1-0.1c-0.8-0.4-1.6-0.8-2.3-1.1
	c-1.6-0.8-2.9-1.3-3.3-1.4c-0.1,0-0.2,0-0.2,0c-0.1,0.1,0.8,0.7,2.3,1.5c0.7,0.4,1.4,0.7,2.3,1.2c1.7,0.9,3.8,1.9,5.8,2.9
	c1,0.5,2.1,1,3.1,1.5L19.8,27z M24.6,29.4c-1.6-0.8-3.2-1.6-4.8-2.3l0,0c-1-0.5-1.9-0.9-2.8-1.3c0,0-0.1,0-0.1-0.1
	c-0.8-0.4-1.6-0.8-2.3-1.1c-1.6-0.8-2.9-1.3-3.3-1.4c-0.1,0-0.2,0-0.2,0c-0.1,0.1,0.8,0.7,2.3,1.5c0.7,0.4,1.4,0.7,2.3,1.2
	c1.7,0.9,3.8,1.9,5.8,2.9c1,0.5,2.1,1,3.1,1.5c1.4,0.7,2.8,1.3,3.9,1.9c0.4,0.2,0.8,0.4,1.2,0.6L24.6,29.4z M77.5,30.3l1.9,0.8
	l-12.9,4.4l-1,0.3l-2.2,0.8l-12.9,4.5l0,0l-0.3,0.1c-0.2,0.1-0.3,0.2-0.5,0.3c-0.3,0.2-0.5,0.4-0.6,0.6c-0.1,0.1-0.2,0.3-0.3,0.4
	c-0.3,0.5-0.5,1.1-0.7,1.8l0,0c0,0.3-0.1,0.6,0,0.9v0.1l0,0c0,0.8,0.2,1.4,0.4,1.9l0,0l0,0l0,0c0.1,0.2,0.2,0.3,0.3,0.5L48,47.6
	l-0.1-0.1l-2.8-1.4l-12.1-6l-2-1l0,0l-9.5-4.7l-1.7-0.8h-0.1l-1.3-0.7l-10-5c-0.2-0.3-0.4-0.6-0.4-1c-0.1-0.4-0.1-0.9,0-1.4v-0.1
	v-0.1c0.1-0.7,0.3-1.3,0.7-1.8c0-0.1,0.6-0.5,1.2-0.2c0.3,0.1,0.5,0.1,0.9-0.2c0.5-0.4,0.3-0.7,0.7-1l0.3-0.1l0.6-0.2l0.9-0.2
	l-1.8-1.2c-0.3,0.1-0.6,0.1-0.8,0.2c-0.1,0-0.2,0-0.3,0.1c-0.1,0-0.1,0.1-0.2,0.2c-0.1,0.2-0.2,0.5-0.5,0.7
	c-0.2,0.2-0.9-0.2-1.1-0.2c-0.4,0.1-0.8,0.4-1.2,0.7c-0.4,0.4-0.6,0.8-0.8,1.3c-0.2,0.5-0.2,1.1-0.2,1.8c0,0.1,0,0.2,0,0.2
	c0,0.5,0,1,0.1,1.6c0.1,0.8,0.3,1.5,0.6,1.9l2.6,1.3c1.7,0.9,3.5,1.7,5.2,2.6l0,0c0.4,0.2,0.8,0.4,1.2,0.6c0,0,0.1,0,0.2,0.1
	c0.6,0.3,1.1,0.6,1.7,0.8l0,0c3.6,1.8,7.2,3.6,10.7,5.4c0.7,0.3,1.4,0.7,2,1c4,2,7.9,4,11.7,5.8c0.9,0.5,1.9,0.9,2.8,1.4
	c0,0,0.1,0,0.1,0.1c0.3,0.2,0.7,0.3,1,0.5s0.7,0.3,1,0.5c0.6,0.3,1.1,0.5,1.7,0.8c0,0,0,0,0.1,0c0.2,0.2,0.6,0.2,1,0.2l0,0
	c0.1,0,0.1,0,0.2,0c0.2,0,0.4-0.1,0.5-0.2c0.1-0.1,0.2-0.1,0.2-0.2c0-0.1,0.1-0.2,0.2-0.3l0,0c0.1-0.1,0.2-0.2,0.3-0.3
	s0.3,0,0.5,0.1c0.1,0,0.1,0.1,0.2,0.1l0,0c0.1,0,0.2,0,0.3,0l1.8-0.7h0.1l0,0l0,0l0.2-0.1l3-1.2l1-0.4l0.9-0.3l3-1.1l0,0l0,0
	l3.6-1.4l0,0l0,0l0,0l0,0l0,0l4.3-1.7h0.1l0,0l4.1-1.6l6.8-2.6c0.3-0.1,0.5-0.6,0-1l-1.5-1l-0.3-0.2l-0.9,1.4
	c-1.9,0.6-3.8,1.3-5.7,2c-0.8,0.3-1.5,0.5-2.3,0.8c-0.4,0.1-0.8,0.3-1.2,0.4c-4.1,1.5-8.3,3-12.4,4.5c-0.3,0.1-0.6,0.2-0.9,0.3
	c-0.3,0.1-0.5,0.2-0.8,0.3l0,0l0,0l0,0l0,0c-0.1,0-0.1,0-0.2,0.1l0,0c-0.1,0-0.2,0.1-0.3,0.1c-1.1,0.4-2.1,0.8-3.1,1.2
	c-0.1,0-0.2,0.1-0.4,0.1c0,0,0,0-0.1,0c-0.2,0-0.4-0.2-0.6-0.4c0,0,0,0-0.1-0.1s-0.2-0.2-0.3-0.4l0,0c-0.3-0.5-0.5-1-0.6-1.4v-0.1
	c0-0.4,0.1-0.9,0.2-1.3l0,0c0.1-0.2,0.2-0.4,0.3-0.6v-0.1c0,0,0,0,0-0.1l0,0l0,0c0.3-0.1,0.7-0.2,1-0.4c0.3-0.1,0.6-0.2,0.9-0.3
	c0.6-0.2,1.3-0.5,1.9-0.7c0.1,0,0.1-0.1,0.2-0.1c0.5-0.2,1.1-0.4,1.7-0.6c1.2-0.4,2.4-0.9,3.7-1.3c1.8-0.6,3.6-1.3,5.5-1.9
	c0.7-0.3,1.5-0.5,2.2-0.8c4.4-1.5,8.8-3.1,13.3-4.7c0.1,0,0.2-0.1,0.3-0.1c0.5-0.2,0.9-0.3,1.4-0.5c0.5-0.3,0.4-0.8-0.1-1.3l-6-2.4
	 M19.8,27L19.8,27c-1-0.5-2-0.9-2.9-1.4c0,0-0.1,0-0.1-0.1c-0.8-0.4-1.6-0.8-2.3-1.1c-1.6-0.8-2.9-1.3-3.3-1.4c-0.1,0-0.2,0-0.2,0
	c-0.1,0.1,0.8,0.7,2.3,1.5c0.7,0.4,1.4,0.7,2.3,1.2c1.7,0.9,3.8,1.9,5.8,2.9c1,0.5,2.1,1,3.1,1.5L19.8,27z"/>
<path shape-rendering="auto" image-rendering="auto" color-rendering="auto" d="M66.4,38.6c-4.6,1.7-13.8,4.7-13.7,5.2
	s9.3-3.1,14-4.8c4.4-1.6,12.7-4.6,12.5-4.8C78.9,33.9,70.5,37.1,66.4,38.6L66.4,38.6z M78.3,35.9c-0.1-0.1-3.4,1-5.1,1.7
	c-1.5,0.6-21.5,7.7-21.4,8c0.1,0.2,20.1-7,21.7-7.6C75.1,37.3,78.4,36,78.3,35.9L78.3,35.9z"/>
<path d="M42.8,37.3c0.7,0,2.8-0.4,4-0.7c1.5-0.4,6.4-1.8,6.4-2s-5.1,1.1-6.6,1.5c-1.1,0.3-3.2,0.7-3.8,0.9"/>
<path d="M75.6,26c-2.4,0.3-9.9,2-14,2.9c-4.8,1.1-14.2,3.4-14.2,3.7c0.1,0.2,9.6-2,14.4-3.1c4.1-0.9,11.4-2.6,13.8-3.3"/>
<path d="M56.7,32.1C52.6,33,44.3,34.7,44.3,35c0,0.4,8.4-1.4,12.5-2.3c4.6-1,13.8-3.2,13.2-3.3C69.4,29.3,61,31.2,56.7,32.1
	L56.7,32.1z"/>
<path shape-rendering="auto" image-rendering="auto" color-rendering="auto" d="M31.8,23.5c-0.6-0.4-1.2-0.7-1.8-1.1
	c-1.5-0.9-2.8-1.7-4-2.3c-0.7-0.4-1.5-0.9-2.3-1.4c-0.6-0.3-1.1-0.7-1.7-1c-5.2-3.1-11.6-6.8-11.7-6.5c-0.1,0.3,5.6,3.8,10.6,6.8
	c0.6,0.3,1.2,0.7,1.7,1c1,0.6,2,1.2,2.8,1.7c0.9,0.6,2,1.2,3.2,1.9c0.6,0.3,1.2,0.7,1.8,1.1c5.2,3.2,11.1,6.6,11.5,6.3
	C42.3,29.8,36.9,26.5,31.8,23.5z M31.8,23.5c-0.6-0.4-1.2-0.7-1.8-1.1c-1.5-0.9-2.8-1.7-4-2.3c-0.7-0.4-1.5-0.9-2.3-1.4
	c-0.6-0.3-1.1-0.7-1.7-1c-5.2-3.1-11.6-6.8-11.7-6.5c-0.1,0.3,5.6,3.8,10.6,6.8c0.6,0.3,1.2,0.7,1.7,1c1,0.6,2,1.2,2.8,1.7
	c0.9,0.6,2,1.2,3.2,1.9c0.6,0.3,1.2,0.7,1.8,1.1c5.2,3.2,11.1,6.6,11.5,6.3C42.3,29.8,36.9,26.5,31.8,23.5z M31.8,23.5
	c-0.6-0.4-1.2-0.7-1.8-1.1c-1.5-0.9-2.8-1.7-4-2.3c-0.7-0.4-1.5-0.9-2.3-1.4c-0.6-0.3-1.1-0.7-1.7-1c-5.2-3.1-11.6-6.8-11.7-6.5
	c-0.1,0.3,5.6,3.8,10.6,6.8c0.6,0.3,1.2,0.7,1.7,1c1,0.6,2,1.2,2.8,1.7c0.9,0.6,2,1.2,3.2,1.9c0.6,0.3,1.2,0.7,1.8,1.1
	c5.2,3.2,11.1,6.6,11.5,6.3C42.3,29.8,36.9,26.5,31.8,23.5z M31.8,23.5c-0.6-0.4-1.2-0.7-1.8-1.1c-1.5-0.9-2.8-1.7-4-2.3
	c-0.7-0.4-1.5-0.9-2.3-1.4c-0.6-0.3-1.1-0.7-1.7-1c-5.2-3.1-11.6-6.8-11.7-6.5c-0.1,0.3,5.6,3.8,10.6,6.8c0.6,0.3,1.2,0.7,1.7,1
	c1,0.6,2,1.2,2.8,1.7c0.9,0.6,2,1.2,3.2,1.9c0.6,0.3,1.2,0.7,1.8,1.1c5.2,3.2,11.1,6.6,11.5,6.3C42.3,29.8,36.9,26.5,31.8,23.5z
	 M31.8,23.5c-0.6-0.4-1.2-0.7-1.8-1.1c-1.5-0.9-2.8-1.7-4-2.3c-0.7-0.4-1.5-0.9-2.3-1.4c-0.6-0.3-1.1-0.7-1.7-1
	c-5.2-3.1-11.6-6.8-11.7-6.5c-0.1,0.3,5.6,3.8,10.6,6.8c0.6,0.3,1.2,0.7,1.7,1c1,0.6,2,1.2,2.8,1.7c0.9,0.6,2,1.2,3.2,1.9
	c0.6,0.3,1.2,0.7,1.8,1.1c5.2,3.2,11.1,6.6,11.5,6.3C42.3,29.8,36.9,26.5,31.8,23.5z M31.8,23.5c-0.6-0.4-1.2-0.7-1.8-1.1
	c-1.5-0.9-2.8-1.7-4-2.3c-0.7-0.4-1.5-0.9-2.3-1.4c-0.6-0.3-1.1-0.7-1.7-1c-5.2-3.1-11.6-6.8-11.7-6.5c-0.1,0.3,5.6,3.8,10.6,6.8
	c0.6,0.3,1.2,0.7,1.7,1c1,0.6,2,1.2,2.8,1.7c0.9,0.6,2,1.2,3.2,1.9c0.6,0.3,1.2,0.7,1.8,1.1c5.2,3.2,11.1,6.6,11.5,6.3
	C42.3,29.8,36.9,26.5,31.8,23.5z M24.6,29.4l-5.9-4l-1.1,0.1l2.1,1.4l0,0l4.7,3.2c1.4,0.7,2.8,1.3,3.9,1.9c0.4,0.2,0.8,0.4,1.2,0.6
	L24.6,29.4z M31.8,23.5c-0.6-0.4-1.2-0.7-1.8-1.1c-1.5-0.9-2.8-1.7-4-2.3c-0.7-0.4-1.5-0.9-2.3-1.4c-0.6-0.3-1.1-0.7-1.7-1
	c-5.2-3.1-11.6-6.8-11.7-6.5c-0.1,0.3,5.6,3.8,10.6,6.8c0.6,0.3,1.2,0.7,1.7,1c1,0.6,2,1.2,2.8,1.7c0.9,0.6,2,1.2,3.2,1.9
	c0.6,0.3,1.2,0.7,1.8,1.1c5.2,3.2,11.1,6.6,11.5,6.3C42.3,29.8,36.9,26.5,31.8,23.5z M31.8,23.5c-0.6-0.4-1.2-0.7-1.8-1.1
	c-1.5-0.9-2.8-1.7-4-2.3c-0.7-0.4-1.5-0.9-2.3-1.4c-0.6-0.3-1.1-0.7-1.7-1c-5.2-3.1-11.6-6.8-11.7-6.5c-0.1,0.3,5.6,3.8,10.6,6.8
	c0.6,0.3,1.2,0.7,1.7,1c1,0.6,2,1.2,2.8,1.7c0.9,0.6,2,1.2,3.2,1.9c0.6,0.3,1.2,0.7,1.8,1.1c5.2,3.2,11.1,6.6,11.5,6.3
	C42.3,29.8,36.9,26.5,31.8,23.5z M31.8,23.5c-0.6-0.4-1.2-0.7-1.8-1.1c-1.5-0.9-2.8-1.7-4-2.3c-0.7-0.4-1.5-0.9-2.3-1.4
	c-0.6-0.3-1.1-0.7-1.7-1c-5.2-3.1-11.6-6.8-11.7-6.5c-0.1,0.3,5.6,3.8,10.6,6.8c0.6,0.3,1.2,0.7,1.7,1c1,0.6,2,1.2,2.8,1.7
	c0.9,0.6,2,1.2,3.2,1.9c0.6,0.3,1.2,0.7,1.8,1.1c5.2,3.2,11.1,6.6,11.5,6.3C42.3,29.8,36.9,26.5,31.8,23.5z M31.8,23.5
	c-0.6-0.4-1.2-0.7-1.8-1.1c-1.5-0.9-2.8-1.7-4-2.3c-0.7-0.4-1.5-0.9-2.3-1.4c-0.6-0.3-1.1-0.7-1.7-1c-5.2-3.1-11.6-6.8-11.7-6.5
	c-0.1,0.3,5.6,3.8,10.6,6.8c0.6,0.3,1.2,0.7,1.7,1c1,0.6,2,1.2,2.8,1.7c0.9,0.6,2,1.2,3.2,1.9c0.6,0.3,1.2,0.7,1.8,1.1
	c5.2,3.2,11.1,6.6,11.5,6.3C42.3,29.8,36.9,26.5,31.8,23.5z M80.4,30.7l-3-1.3l0,0l0.2,1l0.1,0.4c-4.8,1.3-9.8,2.6-14.8,3.9
	c-0.8,0.2-1.6,0.4-2.4,0.6c-4.6,1.2-9.3,2.4-13.8,3.5c-0.3,0.1-0.7,0.2-1,0.3s-0.6,0.1-0.9,0.2c-0.1,0-0.2,0-0.3,0.1
	c-0.2,0-0.4,0.1-0.7,0.2c-0.5,0.1-0.9,0.2-1.4,0.3h-0.1c-0.1-0.3-0.2-0.7-0.3-1.3c-0.1-0.3-0.2-0.6-0.2-0.9v-0.1
	c-0.1-0.4-0.2-0.8-0.2-1v-0.1c0-0.3,0-0.6,0-0.9c0.2-2.1,1.5-3.9,1.7-4.2l0.3-0.1l6.2-1.5l2.2-0.5l15.3-3.6l2.8-0.7l9.8-2.3l0.5-0.1
	c0.4-0.5,0.3-1.3-0.1-1.7L42.8,3.1L9,9.7c0,0-2.2,2.5-2.2,5.1c0,2.5,0.3,4,1,4.7c0.2,0.1,1,0.7,2.2,1.5c0.5,0.3,1,0.7,1.6,1.1
	c1,0.7,2.1,1.5,3.4,2.3c0.6,0.4,1.1,0.8,1.7,1.2c0,0,0,0,0.1,0.1c1.4,1,3,2,4.5,3c2,1.3,4,2.7,6,4.1c0.4,0.2,0.7,0.5,1.1,0.7
	c0.4,0.3,0.8,0.6,1.3,0.9l0,0c3.6,2.5,6.9,4.7,9,6.1l0,0l0,0c0.7,0.5,1.2,0.8,1.7,1.1l0,0c0.6,0.4,0.9,0.6,0.9,0.6l0.2-0.1l0.7-0.2
	l4.5-1.2l0,0l0.5-0.1l0.7-0.2l1-0.3L63,36.4l2.4-0.6l1.1-0.3l14-3.7C81,31.5,80.7,31.1,80.4,30.7z M32.1,34.4L32.1,34.4l-1.3-0.9
	l-1.1-0.7l-0.1-0.1l0,0l-5-3.3l-5.9-4l-1.8-1.2l-3.7-2.5l-1.8-1.2l-2.1-1.4c-0.5-0.5-0.7-1.4-0.8-2.8l0,0c0-0.5-0.1-1-0.1-1.6
	c0-1.5,1.2-3.6,1.4-3.7l33-6.7L78,21.4L67.5,24l-2.6,0.7L50,28.4L47.7,29l-5.3,1.3c0,0-1.7,1.7-2.2,4.2c0,0.1-0.1,0.2-0.1,0.3
	C40,35.1,40,35.3,40,35.6s0,0.6,0,0.9l0,0c0,0.1,0,0.2,0,0.3c0,0.3,0.1,0.6,0.2,0.9c0.2,1,0.6,2.1,0.7,2.4L32.1,34.4z M42,30
	c0.3-0.3-5-3.5-10.2-6.5c-0.6-0.4-1.2-0.7-1.8-1.1c-1.5-0.9-2.8-1.7-4-2.3c-0.7-0.4-1.5-0.9-2.3-1.4c-0.6-0.3-1.1-0.7-1.7-1
	c-5.2-3.1-11.6-6.8-11.7-6.5c-0.1,0.3,5.6,3.8,10.6,6.8c0.6,0.3,1.2,0.7,1.7,1c1,0.6,2,1.2,2.8,1.7c0.9,0.6,2,1.2,3.2,1.9
	c0.6,0.3,1.2,0.7,1.8,1.1C35.7,26.9,41.6,30.3,42,30z M31.8,23.5c-0.6-0.4-1.2-0.7-1.8-1.1c-1.5-0.9-2.8-1.7-4-2.3
	c-0.7-0.4-1.5-0.9-2.3-1.4c-0.6-0.3-1.1-0.7-1.7-1c-5.2-3.1-11.6-6.8-11.7-6.5c-0.1,0.3,5.6,3.8,10.6,6.8c0.6,0.3,1.2,0.7,1.7,1
	c1,0.6,2,1.2,2.8,1.7c0.9,0.6,2,1.2,3.2,1.9c0.6,0.3,1.2,0.7,1.8,1.1c5.2,3.2,11.1,6.6,11.5,6.3C42.3,29.8,36.9,26.5,31.8,23.5z
	 M31.8,23.5c-0.6-0.4-1.2-0.7-1.8-1.1c-1.5-0.9-2.8-1.7-4-2.3c-0.7-0.4-1.5-0.9-2.3-1.4c-0.6-0.3-1.1-0.7-1.7-1
	c-5.2-3.1-11.6-6.8-11.7-6.5c-0.1,0.3,5.6,3.8,10.6,6.8c0.6,0.3,1.2,0.7,1.7,1c1,0.6,2,1.2,2.8,1.7c0.9,0.6,2,1.2,3.2,1.9
	c0.6,0.3,1.2,0.7,1.8,1.1c5.2,3.2,11.1,6.6,11.5,6.3C42.3,29.8,36.9,26.5,31.8,23.5z M24.6,29.4l-5.9-4l-1.1,0.1l2.1,1.4l0,0
	l4.7,3.2c1.4,0.7,2.8,1.3,3.9,1.9c0.4,0.2,0.8,0.4,1.2,0.6L24.6,29.4z M31.8,23.5c-0.6-0.4-1.2-0.7-1.8-1.1c-1.5-0.9-2.8-1.7-4-2.3
	c-0.7-0.4-1.5-0.9-2.3-1.4c-0.6-0.3-1.1-0.7-1.7-1c-5.2-3.1-11.6-6.8-11.7-6.5c-0.1,0.3,5.6,3.8,10.6,6.8c0.6,0.3,1.2,0.7,1.7,1
	c1,0.6,2,1.2,2.8,1.7c0.9,0.6,2,1.2,3.2,1.9c0.6,0.3,1.2,0.7,1.8,1.1c5.2,3.2,11.1,6.6,11.5,6.3C42.3,29.8,36.9,26.5,31.8,23.5z
	 M31.8,23.5c-0.6-0.4-1.2-0.7-1.8-1.1c-1.5-0.9-2.8-1.7-4-2.3c-0.7-0.4-1.5-0.9-2.3-1.4c-0.6-0.3-1.1-0.7-1.7-1
	c-5.2-3.1-11.6-6.8-11.7-6.5c-0.1,0.3,5.6,3.8,10.6,6.8c0.6,0.3,1.2,0.7,1.7,1c1,0.6,2,1.2,2.8,1.7c0.9,0.6,2,1.2,3.2,1.9
	c0.6,0.3,1.2,0.7,1.8,1.1c5.2,3.2,11.1,6.6,11.5,6.3C42.3,29.8,36.9,26.5,31.8,23.5z M31.8,23.5c-0.6-0.4-1.2-0.7-1.8-1.1
	c-1.5-0.9-2.8-1.7-4-2.3c-0.7-0.4-1.5-0.9-2.3-1.4c-0.6-0.3-1.1-0.7-1.7-1c-5.2-3.1-11.6-6.8-11.7-6.5c-0.1,0.3,5.6,3.8,10.6,6.8
	c0.6,0.3,1.2,0.7,1.7,1c1,0.6,2,1.2,2.8,1.7c0.9,0.6,2,1.2,3.2,1.9c0.6,0.3,1.2,0.7,1.8,1.1c5.2,3.2,11.1,6.6,11.5,6.3
	C42.3,29.8,36.9,26.5,31.8,23.5z M31.8,23.5c-0.6-0.4-1.2-0.7-1.8-1.1c-1.5-0.9-2.8-1.7-4-2.3c-0.7-0.4-1.5-0.9-2.3-1.4
	c-0.6-0.3-1.1-0.7-1.7-1c-5.2-3.1-11.6-6.8-11.7-6.5c-0.1,0.3,5.6,3.8,10.6,6.8c0.6,0.3,1.2,0.7,1.7,1c1,0.6,2,1.2,2.8,1.7
	c0.9,0.6,2,1.2,3.2,1.9c0.6,0.3,1.2,0.7,1.8,1.1c5.2,3.2,11.1,6.6,11.5,6.3C42.3,29.8,36.9,26.5,31.8,23.5z M31.8,23.5
	c-0.6-0.4-1.2-0.7-1.8-1.1c-1.5-0.9-2.8-1.7-4-2.3c-0.7-0.4-1.5-0.9-2.3-1.4c-0.6-0.3-1.1-0.7-1.7-1c-5.2-3.1-11.6-6.8-11.7-6.5
	c-0.1,0.3,5.6,3.8,10.6,6.8c0.6,0.3,1.2,0.7,1.7,1c1,0.6,2,1.2,2.8,1.7c0.9,0.6,2,1.2,3.2,1.9c0.6,0.3,1.2,0.7,1.8,1.1
	c5.2,3.2,11.1,6.6,11.5,6.3C42.3,29.8,36.9,26.5,31.8,23.5z M31.8,23.5c-0.6-0.4-1.2-0.7-1.8-1.1c-1.5-0.9-2.8-1.7-4-2.3
	c-0.7-0.4-1.5-0.9-2.3-1.4c-0.6-0.3-1.1-0.7-1.7-1c-5.2-3.1-11.6-6.8-11.7-6.5c-0.1,0.3,5.6,3.8,10.6,6.8c0.6,0.3,1.2,0.7,1.7,1
	c1,0.6,2,1.2,2.8,1.7c0.9,0.6,2,1.2,3.2,1.9c0.6,0.3,1.2,0.7,1.8,1.1c5.2,3.2,11.1,6.6,11.5,6.3C42.3,29.8,36.9,26.5,31.8,23.5z
	 M31.8,23.5c-0.6-0.4-1.2-0.7-1.8-1.1c-1.5-0.9-2.8-1.7-4-2.3c-0.7-0.4-1.5-0.9-2.3-1.4c-0.6-0.3-1.1-0.7-1.7-1
	c-5.2-3.1-11.6-6.8-11.7-6.5c-0.1,0.3,5.6,3.8,10.6,6.8c0.6,0.3,1.2,0.7,1.7,1c1,0.6,2,1.2,2.8,1.7c0.9,0.6,2,1.2,3.2,1.9
	c0.6,0.3,1.2,0.7,1.8,1.1c5.2,3.2,11.1,6.6,11.5,6.3C42.3,29.8,36.9,26.5,31.8,23.5z M31.8,23.5c-0.6-0.4-1.2-0.7-1.8-1.1
	c-1.5-0.9-2.8-1.7-4-2.3c-0.7-0.4-1.5-0.9-2.3-1.4c-0.6-0.3-1.1-0.7-1.7-1c-5.2-3.1-11.6-6.8-11.7-6.5c-0.1,0.3,5.6,3.8,10.6,6.8
	c0.6,0.3,1.2,0.7,1.7,1c1,0.6,2,1.2,2.8,1.7c0.9,0.6,2,1.2,3.2,1.9c0.6,0.3,1.2,0.7,1.8,1.1c5.2,3.2,11.1,6.6,11.5,6.3
	C42.3,29.8,36.9,26.5,31.8,23.5z"/>
</svg>
