<?xml version="1.0" encoding="utf-8"?>
<!-- Generator: Adobe Illustrator 22.1.0, SVG Export Plug-In . SVG Version: 6.00 Build 0)  -->
<svg version="1.1" id="Layer_1" xmlns="http://www.w3.org/2000/svg" xmlns:xlink="http://www.w3.org/1999/xlink" x="0px" y="0px"
	 viewBox="0 0 512 512" style="enable-background:new 0 0 512 512;" xml:space="preserve">
<g transform="translate(22.995 .056012)">
	<path style="fill:none;stroke:#000000;stroke-miterlimit:10;" d="M258.7,44.4c7.9,21.1,9,38.4,6.2,53.3c-1,5.2-2.4,10.1-4.3,14.9
		c-6.6-5.5-12.2-11.5-16.3-18.3c-4.8-7.8-7.8-16.8-8.4-27.3c-0.6,10.5,1.4,20,5.5,28.9c3.8,8.3,9.5,15.8,16.7,22.9
		c-3,6.5-6.7,12.7-10.7,18.8c-0.1,0.1-0.2,0.2-0.2,0.3c-7.6-1.9-14.1-5-19.6-9.1c-5.9-4.4-10.8-10-14.8-16.6
		c-8-13.2-12-29.6-14-46.3c0.2,16.6,2.5,34,9.3,48.8c1.9,4.1,4.1,8,6.8,11.7c-10,0.7-18.5-1.9-26.4-6.7
		c-9.5-5.6-17.9-13.9-26.8-22.3c8.3,8.8,16.4,17.8,25.6,24.2c8.6,5.9,18.4,9.6,30.6,8.7c1.4,1.6,2.9,3.2,4.5,4.7
		c5.1,4.8,11.3,8.8,18.6,11.9c-6.7,9.4-12.4,16.5-20.8,29c-5.4,8-10.5,16.7-14.9,26.3c-8.4-4.4-16-9.7-22.6-15.9
		c3.8-7,4.7-14.3,4.3-21.2c-0.5-8-2.9-16.1-5.3-23.7c1,8.1,1.8,16.1,0.9,23.6c-0.7,5.8-2.4,10.9-5.6,15.4c-2.1-2.4-4.1-4.8-5.9-7.4
		c-10.2-14.2-16.5-31.8-18-51.7c-1.4,19.9,2,39,10.5,56.2c7.8,15.6,19.7,29.5,35.8,40.4c-0.6,1.9-1.2,3.9-1.7,5.8
		c-3.3,13.4-3.6,27.1-2,40.5c-9.5-3.5-18.4-8.5-26.7-14.8c-6.7-5.1-13-11.1-18.7-17.8c2.2-2.5,3.9-5.1,5-7.9
		c1.6-3.8,2.3-7.7,2.5-11.5c0.4-7.8-1.1-16-2.3-23.3c-0.2,7.6-0.1,15.5-1.9,22.6c-0.9,3.4-2.1,6.5-3.9,9.2c-1.2,1.8-2.6,3.4-4.4,4.8
		c-2.9-3.8-5.7-7.7-8.3-11.8c-7.5-11.6-13.7-24.4-18.5-37.6c7.4-6.5,13.7-14.7,18.1-23.2c4.5-8.8,7-17.9,6.4-26.2
		c-0.6,8.2-4.1,16.7-9.4,24.5c-4.7,6.9-10.8,13.3-17.5,18.3c-5.7-17.3-9.2-35.2-10.2-52.1c-1.7,26.1,2.3,55.9,12.4,83.6
		c-4.1,0.2-7.6-0.2-10.7-1c-4.3-1.1-8-3-11.3-5.7c-6.8-5.5-11.8-13.9-17.6-23.3c4.5,9.8,8.5,19.3,14.8,26.2
		c3.2,3.5,7.2,6.5,12.2,8.5c4.4,1.8,9.5,2.8,15.5,2.9c1.6,3.8,3.2,7.6,5.1,11.3c5.8,11.8,12.9,23.1,21.4,33.3
		c-6.7,3.3-13.2,5.3-19.6,6.2c-7.7,1.1-15.2,0.8-22.8-0.7c-15.4-2.9-30.4-10.1-46.6-17.3c15.2,8.5,30,17.2,45.5,21.7
		c7.8,2.3,16,3.5,24.6,3c8-0.4,16.3-2.3,25-6.1c1,1.1,2.1,2.2,3.2,3.2c12.1,11.8,26.6,21.4,43.7,27.5c0.4,1.6,0.8,3.2,1.3,4.8
		c5.9,21.6,15.9,47.8,21.8,67.3c3.2,10.6,5.6,20.6,6.9,30.1c1.3,9.5,1.3,18,0,25.8c-1.1,6.3-3,12.1-6,17.7c-2.7,5-29.7,34.2-40,44.8
		h71.7c4.9-8.3,6.5-17.3,10.1-25.9c4.4-10.8,6.7-21.6,7.4-32.3c0.8-13-0.8-25.7-3.6-37.7c-2.8-12-6.9-23.7-11.4-34.9
		c-5.4-13.4-10.6-24.8-15.6-36c14.3-3.4,27.9-9.1,40.3-16.6c11.2-6.7,21.6-14.9,30.7-24.2c16.1,7.3,32.7,8.6,48.5,6.1
		c16.8-2.7,32.9-9.6,47.1-18.4c-15,7.6-31.3,13.1-47.6,14.3c-14.5,1.1-28.9-1.2-42.3-8c2.7-3,5.3-6.1,7.8-9.3
		c8.1-10.4,14.9-21.8,20-33.6c8.8-2.2,16.1-8,21.8-14.2c6.3-6.8,11.3-14.7,14.6-20.4c-4.3,5.2-9.9,12.3-16.8,18.2
		c-5.2,4.5-10.9,8-16.8,9.7c1.4-3.6,2.6-7.3,3.6-11c5.2-18.3,6.4-37.1,2.9-55.2c1.3,18.4-2.2,36.4-9.2,53
		c-5.1,12-11.9,23.3-20.2,33.5c-3.1-5.6-5.3-11.4-6.8-17.6c-1.9-7.9-2.5-16.2-2.2-25.2c-1.7,8.8-2.6,17.3-2.1,25.8
		c0.5,7.8,2.1,15.7,5.4,23.6c-1.4,1.6-2.9,3.1-4.4,4.6c-12.7,12.9-27.7,23.4-43.6,30.5c-0.2,0.1-0.4,0.2-0.6,0.3
		c-1.6-5-2.4-11-1.8-16.7c0.7-7.1,3.4-13.8,9-17.8c-6.4,3-10.6,9.5-12.7,17.1c-1.7,6.3-2,13.5-0.9,19.9c-11.2,4.2-22.7,6.8-34.2,7.4
		c-0.5-1.4-1.1-2.8-1.6-4.2c-5.7-15.4-9.6-30-10.1-43.9c10.8,1.2,20.7,0.4,29.7-1.9c11-2.8,20.6-7.8,28.9-14
		c16.5-12.2,28.2-29.3,35.4-44c-9.1,13.8-22.1,29-38.8,38.9c-5.4,3.2-11.1,5.8-17.2,7.7c-1.2-6.5-1-11.9,0.5-16.7
		c1.7-5.5,5-10.5,9.9-15.8c-5.7,4.3-10.3,8.7-13.4,14.3c-3,5.4-4.5,11.8-4.2,20c-1,0.2-2,0.4-3,0.5c-8.5,1.3-17.6,1.2-27.4-0.9
		c0.1-0.5,0.1-1.1,0.2-1.6c2-15.4,7.4-29.3,14.2-43.2c0.2-0.4,0.4-0.8,0.6-1.2c17.3-3.4,32.6-8.8,45.8-16.2
		c10.3,4.4,20.4,4.8,29.6,2.4c9.7-2.6,18.3-8.3,25.1-16c-7.7,6.9-16.7,11.1-25.8,12.3c-7.2,0.9-14.5-0.1-21.6-3.2
		c7.5-5,14.3-10.7,20.2-17.2c17.8-19.7,27.5-45.9,28.5-78.5c-3.3,32.7-15.1,57-33.3,73.9c-0.4,0.4-0.8,0.7-1.2,1.1
		c-4.3-8.8-7.1-19-7.7-28.8c-0.7-11,1.1-21.6,6.2-29.4c-5.8,7.4-8.6,18-8.7,29.5c-0.1,10.7,2.1,22,6.4,32.1
		c-14.9,12-33.7,19.8-55.9,23.7c4.8-8.9,9.9-18.2,13.6-25.9c6.8-14.2,12-28.9,12.9-45.3c0.2-3.6,0.2-7.3-0.1-11.1
		c9.7-3.4,15.5-9.5,19.6-16.5c4.2-7.2,6.7-15.8,9.8-24.1c-4,8.1-7.2,16.1-12,22.6c-4.4,6-9.8,10.4-17.9,12.7
		C269,70.4,265.3,58,258.7,44.4L258.7,44.4z"/>
	<path style="fill:none;stroke:#000000;stroke-miterlimit:10;" d="M334,280.3c-5.3,4.5-7.9,11.4-6.9,18.3s5.4,12.8,11.7,15.7
		c5.3-4.5,7.9-11.4,6.9-18.3S340.3,283.2,334,280.3L334,280.3z"/>
	<path style="fill:none;stroke:#000000;stroke-miterlimit:10;" d="M354,281.2c-4,5.3-4.9,12.3-2.6,18.6c2.3,6.2,7.7,10.9,14.2,12.3
		c4-5.3,4.9-12.3,2.6-18.6C365.8,287.3,360.5,282.6,354,281.2L354,281.2z"/>
	<path style="fill:none;stroke:#000000;stroke-miterlimit:10;" d="M371.9,278.4c-2.8,5-2.9,11.1-0.2,16.1c2.7,5.1,7.7,8.5,13.4,9
		c2.8-5,2.9-11.1,0.2-16.1C382.7,282.3,377.6,279,371.9,278.4L371.9,278.4z"/>
	<path style="fill:none;stroke:#000000;stroke-miterlimit:10;" d="M386.6,274.1c-1.7,4.9-0.8,10.3,2.3,14.4
		c3.2,4.1,8.2,6.3,13.3,5.9c1.7-4.9,0.8-10.3-2.3-14.4C396.8,275.8,391.8,273.6,386.6,274.1L386.6,274.1z"/>
	<path style="fill:none;stroke:#000000;stroke-miterlimit:10;" d="M429,245.8c-4.5-1.6-9.4-0.7-13.1,2.2s-5.7,7.5-5.3,12.2
		c4.5,1.6,9.4,0.7,13.1-2.2C427.4,255.1,429.4,250.5,429,245.8L429,245.8z"/>
	<path style="fill:none;stroke:#000000;stroke-miterlimit:10;" d="M335.8,272c-3.6-6.4-3.7-14.3-0.3-20.9c3.4-6.6,10-10.9,17.3-11.6
		c3.6,6.4,3.7,14.3,0.3,20.9C349.7,267,343.2,271.3,335.8,272L335.8,272z"/>
	<path style="fill:none;stroke:#000000;stroke-miterlimit:10;" d="M357.4,274.2c-3.3-5.8-3.4-12.9-0.3-18.8c3.1-5.9,9-9.8,15.6-10.4
		c3.3,5.8,3.4,12.9,0.3,18.8C369.9,269.6,364.1,273.6,357.4,274.2L357.4,274.2z"/>
	<path style="fill:none;stroke:#000000;stroke-miterlimit:10;" d="M379.5,271c-2.8-5-2.9-11.1-0.2-16.1c2.7-5.1,7.7-8.5,13.4-9
		c2.8,5,2.9,11.1,0.2,16.1C390.3,267.1,385.2,270.4,379.5,271L379.5,271z"/>
	<path style="fill:none;stroke:#000000;stroke-miterlimit:10;" d="M385.2,189.8c-1.5-2.7-1.6-6-0.1-8.8s4.2-4.6,7.3-4.9
		c1.5,2.7,1.6,6,0.1,8.8C391,187.6,388.3,189.5,385.2,189.8L385.2,189.8z"/>
	<path style="fill:none;stroke:#000000;stroke-miterlimit:10;" d="M363.6,216.8c0.1,4.5,2.4,8.7,6.3,11c3.8,2.4,8.6,2.7,12.7,0.8
		c-0.1-4.5-2.4-8.7-6.3-11C372.5,215.1,367.7,214.9,363.6,216.8L363.6,216.8z"/>
	<path style="fill:none;stroke:#000000;stroke-miterlimit:10;" d="M372.3,209.1c1.1,3.4,3.9,5.9,7.3,6.8c3.4,0.9,7.1,0,9.7-2.4
		c-1.1-3.4-3.9-5.9-7.3-6.8C378.5,205.8,374.9,206.7,372.3,209.1L372.3,209.1z"/>
	<path style="fill:none;stroke:#000000;stroke-miterlimit:10;" d="M380.8,198.4c0.9,2.8,3.2,5,6.1,5.7s5.9,0,8.1-2
		c-0.9-2.8-3.2-5-6.1-5.7C386,195.6,383,196.4,380.8,198.4L380.8,198.4z"/>
	<path style="fill:none;stroke:#000000;stroke-miterlimit:10;" d="M363.7,208.5c-3.5-2.9-5.3-7.3-4.8-11.8s3.2-8.4,7.3-10.4
		c3.5,2.9,5.3,7.3,4.8,11.8C370.4,202.6,367.7,206.5,363.7,208.5L363.7,208.5z"/>
	<path style="fill:none;stroke:#000000;stroke-miterlimit:10;" d="M375.9,196.1c-3-1.9-4.8-5.2-4.8-8.8s1.8-6.9,4.7-8.8
		c3,1.9,4.8,5.2,4.8,8.8C380.6,190.8,378.8,194.1,375.9,196.1L375.9,196.1z"/>
	<path style="fill:none;stroke:#000000;stroke-miterlimit:10;" d="M356.9,150.8c-2.8-0.9-5-3.1-5.8-6s-0.1-5.9,1.9-8.1
		c2.8,0.9,5,3.1,5.8,6C359.5,145.5,358.8,148.6,356.9,150.8z"/>
	<path style="fill:none;stroke:#000000;stroke-miterlimit:10;" d="M346.1,206.1c-4.9,0-9.4-2.4-12.1-6.5s-3.1-9.2-1.1-13.7
		c4.9,0,9.4,2.4,12.1,6.5C347.7,196.5,348.1,201.7,346.1,206.1L346.1,206.1z"/>
	<path style="fill:none;stroke:#000000;stroke-miterlimit:10;" d="M351.2,189.7c-3.8,0-7.3-1.9-9.4-5.1c-2.1-3.2-2.4-7.2-0.9-10.7
		c3.8,0,7.3,1.9,9.4,5.1C352.5,182.2,352.8,186.2,351.2,189.7L351.2,189.7z"/>
	<path style="fill:none;stroke:#000000;stroke-miterlimit:10;" d="M354.6,174.9c-3.1,0-6-1.6-7.7-4.2c-1.7-2.6-2-5.9-0.7-8.7
		c3.1,0,6,1.6,7.7,4.2C355.6,168.7,355.8,172,354.6,174.9L354.6,174.9z"/>
	<path style="fill:none;stroke:#000000;stroke-miterlimit:10;" d="M355.4,161.8c-3.1,0-6-1.6-7.7-4.2c-1.7-2.6-2-5.9-0.7-8.7
		c3.1,0,6,1.6,7.7,4.2C356.4,155.6,356.7,158.9,355.4,161.8L355.4,161.8z"/>
	<path style="fill:none;stroke:#000000;stroke-miterlimit:10;" d="M359.8,181.8c3.7,0.9,7.6-0.2,10.3-2.9c2.7-2.6,3.9-6.5,3.2-10.2
		c-3.7-0.9-7.6,0.2-10.3,2.9C360.3,174.2,359.1,178.1,359.8,181.8L359.8,181.8z"/>
	<path style="fill:none;stroke:#000000;stroke-miterlimit:10;" d="M360.4,168.8c2.9,0.7,6-0.2,8.2-2.3s3.1-5.1,2.5-8.1
		c-2.9-0.7-6,0.2-8.2,2.3C360.8,162.8,359.8,165.8,360.4,168.8L360.4,168.8z"/>
	<path style="fill:none;stroke:#000000;stroke-miterlimit:10;" d="M359.2,158.2c2.8,0.6,5.7-0.2,7.7-2.1c2-2,3-4.9,2.4-7.7
		c-2.8-0.6-5.7,0.2-7.7,2.1C359.6,152.6,358.7,155.4,359.2,158.2L359.2,158.2z"/>
	<path style="fill:none;stroke:#000000;stroke-miterlimit:10;" d="M133.2,266.4c3.8,6.3,4.2,14.2,1,20.8c-3.2,6.7-9.6,11.2-17,12.1
		c-3.8-6.3-4.2-14.2-1-20.8C119.5,271.9,125.9,267.3,133.2,266.4L133.2,266.4z"/>
	<path style="fill:none;stroke:#000000;stroke-miterlimit:10;" d="M110.8,265.5c2.3,6.2,1.3,13.2-2.6,18.6c-4,5.3-10.4,8.3-17,7.9
		c-2.3-6.2-1.3-13.2,2.6-18.6C97.8,268.1,104.2,265.1,110.8,265.5L110.8,265.5z"/>
	<path style="fill:none;stroke:#000000;stroke-miterlimit:10;" d="M90.2,259.3c2,5.4,1.2,11.4-2.3,16c-3.4,4.6-8.9,7.2-14.6,6.8
		c-2-5.4-1.2-11.4,2.3-16C79,261.5,84.5,259,90.2,259.3L90.2,259.3z"/>
	<path style="fill:none;stroke:#000000;stroke-miterlimit:10;" d="M73.8,251.9c0.4,5.2-1.8,10.2-5.9,13.3c-4.1,3.1-9.5,4-14.4,2.2
		c-0.4-5.2,1.8-10.2,5.9-13.3S68.9,250.2,73.8,251.9L73.8,251.9z"/>
	<path style="fill:none;stroke:#000000;stroke-miterlimit:10;" d="M36.2,229.4c4.1-2.3,9.1-2.4,13.3-0.2s7,6.4,7.4,11.1
		c-4.1,2.3-9.1,2.4-13.3,0.2S36.7,234.1,36.2,229.4L36.2,229.4z"/>
	<path style="fill:none;stroke:#000000;stroke-miterlimit:10;" d="M128.4,258.5c4.1-5.2,5.3-12.2,3.2-18.5s-7.3-11.1-13.8-12.7
		c-4.1,5.2-5.3,12.2-3.2,18.5C116.8,252.1,122,256.9,128.4,258.5L128.4,258.5z"/>
	<path style="fill:none;stroke:#000000;stroke-miterlimit:10;" d="M106.3,257.6c3.5-4.5,4.6-10.5,2.7-15.9c-1.8-5.4-6.3-9.5-11.9-11
		c-3.5,4.5-4.6,10.5-2.7,15.9C96.3,252.1,100.7,256.2,106.3,257.6L106.3,257.6z"/>
	<path style="fill:none;stroke:#000000;stroke-miterlimit:10;" d="M86.2,251.3c3-3.8,3.9-8.8,2.3-13.4c-1.6-4.6-5.3-8.1-10-9.2
		c-3,3.8-3.9,8.8-2.3,13.4C77.8,246.6,81.5,250.1,86.2,251.3L86.2,251.3z"/>
	<path style="fill:none;stroke:#000000;stroke-miterlimit:10;" d="M68.9,243.7c2.6-3.4,3.4-7.8,2-11.9c-1.4-4-4.7-7.1-8.8-8.2
		c-2.6,3.4-3.4,7.8-2,11.9C61.5,239.6,64.8,242.7,68.9,243.7L68.9,243.7z"/>
	<path style="fill:none;stroke:#000000;stroke-miterlimit:10;" d="M60.5,246.2c-0.5,4.2-3.1,7.8-6.8,9.7c-3.8,1.9-8.2,1.7-11.9-0.5
		c0.5-4.2,3.1-7.8,6.8-9.7C52.4,243.9,56.9,244.1,60.5,246.2L60.5,246.2z"/>
	<path style="fill:none;stroke:#000000;stroke-miterlimit:10;" d="M107,207.2c0.7,5-1.1,10.1-4.9,13.5s-9.1,4.6-14,3.2
		c-0.7-5,1.1-10.1,4.9-13.5S102.1,205.8,107,207.2L107,207.2z"/>
	<path style="fill:none;stroke:#000000;stroke-miterlimit:10;" d="M95.9,201c-1.1,4.4-4.3,8.1-8.6,9.6c-4.3,1.5-9.1,0.8-12.7-2
		c1.1-4.4,4.3-8.1,8.6-9.6C87.5,197.4,92.3,198.2,95.9,201L95.9,201z"/>
	<path style="fill:none;stroke:#000000;stroke-miterlimit:10;" d="M86.3,188.7c-0.9,3.8-3.7,6.9-7.4,8.2c-3.7,1.3-7.8,0.7-11-1.8
		c0.9-3.8,3.7-6.9,7.4-8.2C79.1,185.6,83.2,186.3,86.3,188.7L86.3,188.7z"/>
	<path style="fill:none;stroke:#000000;stroke-miterlimit:10;" d="M81.8,179c-1.8,3.1-4.9,5.1-8.5,5.3c-3.5,0.2-7-1.4-9.1-4.3
		c1.8-3.1,4.9-5.1,8.5-5.3C76.2,174.5,79.7,176.1,81.8,179L81.8,179z"/>
	<path style="fill:none;stroke:#000000;stroke-miterlimit:10;" d="M70.1,154.9c3.2,0.3,6.1,2.1,7.7,5c1.5,2.9,1.5,6.3,0,9.2
		c-3.2-0.3-6.1-2.1-7.7-5C68.6,161.2,68.6,157.7,70.1,154.9L70.1,154.9z"/>
	<path style="fill:none;stroke:#000000;stroke-miterlimit:10;" d="M94.3,190.6c3.5-1.1,6.2-4,7.2-7.5c1-3.6,0.1-7.4-2.4-10.1
		c-3.5,1.1-6.2,4-7.2,7.5C91,184.1,91.9,187.9,94.3,190.6L94.3,190.6z"/>
	<path style="fill:none;stroke:#000000;stroke-miterlimit:10;" d="M86.4,180.4c3.2-1,5.6-3.6,6.5-6.8s0.1-6.6-2.2-9.1
		c-3.2,1-5.6,3.6-6.5,6.8C83.4,174.5,84.2,177.9,86.4,180.4L86.4,180.4z"/>
	<path style="fill:none;stroke:#000000;stroke-miterlimit:10;" d="M328.6,121.9c0.5-4.5,3.3-8.4,7.3-10.4s8.8-1.8,12.7,0.5
		c-0.5,4.5-3.3,8.4-7.3,10.4C337.3,124.4,332.5,124.2,328.6,121.9L328.6,121.9z"/>
	<path style="fill:none;stroke:#000000;stroke-miterlimit:10;" d="M339,66.8c-2.6-1.4-4.4-4-4.7-6.9c-0.3-3,1-5.8,3.3-7.7
		c2.6,1.4,4.4,4,4.7,6.9C342.6,62.1,341.4,65,339,66.8L339,66.8z"/>
	<path style="fill:none;stroke:#000000;stroke-miterlimit:10;" d="M321.2,120.2c-4.9-0.1-9.3-2.6-11.9-6.8
		c-2.6-4.1-2.9-9.3-0.8-13.7c4.9,0.1,9.3,2.6,11.9,6.8C323,110.6,323.3,115.8,321.2,120.2L321.2,120.2z"/>
	<path style="fill:none;stroke:#000000;stroke-miterlimit:10;" d="M328.3,106c-3.8,0.3-7.5-1.4-9.7-4.4c-2.3-3-2.9-7-1.6-10.6
		c3.8-0.3,7.5,1.4,9.7,4.4C329,98.5,329.6,102.5,328.3,106L328.3,106z"/>
	<path style="fill:none;stroke:#000000;stroke-miterlimit:10;" d="M333.1,92c-3.1,0.4-6.2-0.8-8.2-3.2c-2-2.4-2.7-5.6-1.8-8.6
		c3.1-0.4,6.2,0.8,8.2,3.2C333.3,85.8,334,89,333.1,92L333.1,92z"/>
	<path style="fill:none;stroke:#000000;stroke-miterlimit:10;" d="M334.3,80.2c-3.1-0.5-5.6-2.6-6.9-5.5c-1.2-2.9-0.9-6.2,0.9-8.7
		c3.1,0.5,5.6,2.6,6.9,5.5C336.3,74.3,336,77.6,334.3,80.2L334.3,80.2z"/>
	<path style="fill:none;stroke:#000000;stroke-miterlimit:10;" d="M333.8,106c3.2,2,7.3,2.2,10.7,0.6c3.4-1.6,5.8-4.9,6.3-8.7
		c-3.2-2-7.3-2.2-10.7-0.6C336.7,99,334.3,102.3,333.8,106L333.8,106z"/>
	<path style="fill:none;stroke:#000000;stroke-miterlimit:10;" d="M338.1,91.5c2.5,1.7,5.7,2,8.4,0.9c2.8-1.2,4.8-3.6,5.3-6.6
		c-2.5-1.7-5.7-2-8.4-0.9C340.6,86.1,338.6,88.5,338.1,91.5L338.1,91.5z"/>
	<path style="fill:none;stroke:#000000;stroke-miterlimit:10;" d="M339.5,79.9c2.6,1.1,5.6,0.8,8-0.7c2.4-1.6,3.8-4.3,3.7-7.1
		c-2.6-1.1-5.6-0.8-8,0.7C340.9,74.4,339.5,77.1,339.5,79.9L339.5,79.9z"/>
	<path style="fill:none;stroke:#000000;stroke-miterlimit:10;" d="M336.9,153.8c-0.3-2.4,0.7-4.7,2.5-6.2s4.3-2,6.6-1.3
		c0.3,2.4-0.7,4.7-2.5,6.2S339.2,154.5,336.9,153.8L336.9,153.8z"/>
	<path style="fill:none;stroke:#000000;stroke-miterlimit:10;" d="M293.9,121.8c-0.6-3.8-3.1-7.1-6.7-8.7s-7.7-1.2-10.9,0.9
		c0.6,3.8,3.1,7.1,6.7,8.7C286.5,124.3,290.6,124,293.9,121.8L293.9,121.8z"/>
	<path style="fill:none;stroke:#000000;stroke-miterlimit:10;" d="M302.8,84.1c2.6-0.1,4.9-1.4,6.2-3.6c1.3-2.2,1.5-4.9,0.4-7.2
		c-2.6,0.1-4.9,1.4-6.2,3.6C301.9,79.1,301.7,81.8,302.8,84.1L302.8,84.1z"/>
	<path style="fill:none;stroke:#000000;stroke-miterlimit:10;" d="M322.8,131c2.5,3.9,6.8,6.4,11.4,6.4c4.6,0.1,9-2.2,11.6-6.1
		c-2.5-3.9-6.8-6.4-11.4-6.4C329.8,124.8,325.4,127.1,322.8,131L322.8,131z"/>
	<path style="fill:none;stroke:#000000;stroke-miterlimit:10;" d="M300.1,131.8c3.6,1.4,7.6,0.8,10.7-1.5s4.8-6,4.6-9.8
		c-3.6-1.4-7.6-0.8-10.7,1.5C301.7,124.3,299.9,128,300.1,131.8L300.1,131.8z"/>
	<path style="fill:none;stroke:#000000;stroke-miterlimit:10;" d="M297.7,101c2.2,1.5,5.1,1.7,7.5,0.6c2.5-1.1,4.2-3.3,4.6-6
		c-2.2-1.5-5.1-1.7-7.5-0.6C299.8,96.1,298.1,98.3,297.7,101L297.7,101z"/>
	<path style="fill:none;stroke:#000000;stroke-miterlimit:10;" d="M300.9,93.1c2.6,0.7,5.4,0.1,7.4-1.6c2-1.8,3-4.4,2.6-7.1
		c-2.6-0.7-5.4-0.1-7.4,1.6C301.5,87.8,300.5,90.5,300.9,93.1L300.9,93.1z"/>
	<path style="fill:none;stroke:#000000;stroke-miterlimit:10;" d="M293,110.4c-3,1.2-6.5,0.9-9.2-1s-4.3-5-4.1-8.2
		c3-1.2,6.5-0.9,9.2,1C291.5,104.1,293.1,107.2,293,110.4L293,110.4z"/>
	<path style="fill:none;stroke:#000000;stroke-miterlimit:10;" d="M293.7,100.4c-2.6,0.4-5.1-0.6-6.9-2.5c-1.7-1.9-2.3-4.6-1.6-7.1
		c2.6-0.4,5.1,0.6,6.9,2.5C293.8,95.2,294.4,97.9,293.7,100.4L293.7,100.4z"/>
	<path style="fill:none;stroke:#000000;stroke-miterlimit:10;" d="M296.9,90.9c-2.4-0.1-4.7-1.5-5.9-3.6c-1.2-2.1-1.3-4.7-0.2-6.9
		c2.4,0.1,4.7,1.5,5.9,3.6C298,86.2,298.1,88.8,296.9,90.9L296.9,90.9z"/>
	<path style="fill:none;stroke:#000000;stroke-miterlimit:10;" d="M296.1,137.7c-0.8-4.8-3.9-8.9-8.4-10.9c-4.5-2-9.6-1.6-13.7,1.1
		c0.8,4.8,3.9,8.9,8.4,10.9C286.9,140.7,292,140.3,296.1,137.7L296.1,137.7z"/>
	<path style="fill:none;stroke:#000000;stroke-miterlimit:10;" d="M310.4,166.2c-2-2.7-2.5-6.2-1.4-9.3s3.8-5.5,7-6.2
		c2,2.7,2.5,6.2,1.4,9.3S313.6,165.5,310.4,166.2L310.4,166.2z"/>
	<path style="fill:none;stroke:#000000;stroke-miterlimit:10;" d="M321.1,163.3c-1.6-2.2-2.1-5-1.1-7.6c0.9-2.6,3.1-4.5,5.8-5.1
		c1.6,2.2,2.1,5,1.1,7.6S323.7,162.7,321.1,163.3L321.1,163.3z"/>
	<path style="fill:none;stroke:#000000;stroke-miterlimit:10;" d="M330.1,157.3c-1.6-2.2-2.1-5-1.1-7.6c0.9-2.6,3.1-4.5,5.8-5.1
		c1.6,2.2,2.1,5,1.1,7.6C335,154.8,332.8,156.7,330.1,157.3L330.1,157.3z"/>
	<path style="fill:none;stroke:#000000;stroke-miterlimit:10;" d="M321.8,167c0.4,2.7,2.2,5,4.7,6.1s5.4,0.9,7.7-0.6
		c-0.4-2.7-2.2-5-4.7-6.1C326.9,165.3,324.1,165.6,321.8,167L321.8,167z"/>
	<path style="fill:none;stroke:#000000;stroke-miterlimit:10;" d="M331.3,161.6c0.4,2.7,2.2,5,4.7,6.1s5.4,0.9,7.7-0.6
		c-0.4-2.7-2.2-5-4.7-6.1C336.4,159.9,333.5,160.1,331.3,161.6L331.3,161.6z"/>
	<path style="fill:none;stroke:#000000;stroke-miterlimit:10;" d="M315.3,181.1c-0.3-2.4,0.7-4.7,2.5-6.2s4.3-2,6.6-1.3
		c0.3,2.4-0.7,4.7-2.5,6.2S317.6,181.8,315.3,181.1L315.3,181.1z"/>
	<path style="fill:none;stroke:#000000;stroke-miterlimit:10;" d="M281.4,216.5c-3.5-2.1-5.7-5.9-5.8-9.9c-0.1-4.1,1.8-8,5.2-10.3
		c3.5,2.1,5.7,5.9,5.8,9.9C286.7,210.3,284.8,214.2,281.4,216.5L281.4,216.5z"/>
	<path style="fill:none;stroke:#000000;stroke-miterlimit:10;" d="M292.5,208c-3-1.1-5.3-3.7-6-6.8c-0.7-3.2,0.2-6.5,2.5-8.8
		c3,1.1,5.3,3.7,6,6.8C295.7,202.4,294.7,205.7,292.5,208L292.5,208z"/>
	<path style="fill:none;stroke:#000000;stroke-miterlimit:10;" d="M301,199.7c-2.8-1-5-3.4-5.7-6.4c-0.7-2.9,0.2-6,2.2-8.2
		c2.8,1,5,3.4,5.7,6.4C303.9,194.4,303.1,197.5,301,199.7L301,199.7z"/>
	<path style="fill:none;stroke:#000000;stroke-miterlimit:10;" d="M307.2,190.8c-2.3-1.2-3.8-3.5-4-6.1s0.9-5.1,3-6.7
		c2.3,1.2,3.8,3.5,4,6.1C310.4,186.7,309.2,189.2,307.2,190.8z"/>
	<path style="fill:none;stroke:#000000;stroke-miterlimit:10;" d="M280.3,226.6c1,4.2,4.1,7.5,8.2,9c4.1,1.4,8.6,0.6,12-2
		c-1-4.2-4.1-7.5-8.2-9C288.2,223.2,283.7,224,280.3,226.6L280.3,226.6z"/>
	<path style="fill:none;stroke:#000000;stroke-miterlimit:10;" d="M290.8,217.6c0.6,3.2,2.8,5.8,5.8,7.1c3,1.2,6.4,0.9,9.1-1
		c-0.6-3.2-2.8-5.8-5.8-7.1C296.9,215.4,293.5,215.8,290.8,217.6L290.8,217.6z"/>
	<path style="fill:none;stroke:#000000;stroke-miterlimit:10;" d="M298.5,209.8c0.5,3,2.5,5.5,5.3,6.6c2.8,1.2,6,0.8,8.5-0.9
		c-0.5-3-2.5-5.5-5.3-6.6C304.2,207.7,301,208,298.5,209.8L298.5,209.8z"/>
	<path style="fill:none;stroke:#000000;stroke-miterlimit:10;" d="M281.3,245.5c2.2,1.4,4.9,1.6,7.3,0.6c2.4-1.1,4-3.3,4.4-5.8
		c-2.2-1.4-4.9-1.6-7.3-0.6C283.4,240.7,281.7,242.9,281.3,245.5L281.3,245.5z"/>
	<path style="fill:none;stroke:#000000;stroke-miterlimit:10;" d="M320,196.1c-1.7-1.6-2.5-4-2.1-6.4c0.4-2.3,2-4.3,4.2-5.2
		c1.7,1.6,2.5,4,2.1,6.4C323.7,193.2,322.2,195.2,320,196.1z"/>
	<path style="fill:none;stroke:#000000;stroke-miterlimit:10;" d="M269.7,195.4c2.4,0.9,5.2,0.6,7.3-0.9c2.1-1.5,3.3-4,3.2-6.6
		c-2.4-0.9-5.2-0.6-7.3,0.9C270.8,190.3,269.6,192.8,269.7,195.4L269.7,195.4z"/>
	<path style="fill:none;stroke:#000000;stroke-miterlimit:10;" d="M263.3,199.9c2.2-2.1,3.2-5.2,2.6-8.2s-2.7-5.5-5.5-6.7
		c-2.2,2.1-3.2,5.2-2.6,8.2S260.4,198.7,263.3,199.9z"/>
	<path style="fill:none;stroke:#000000;stroke-miterlimit:10;" d="M257.5,207.2c1.6-2.9,1.6-6.4,0-9.2c-1.6-2.9-4.5-4.8-7.8-5
		c-1.6,2.9-1.6,6.4,0,9.2C251.3,205.1,254.2,207,257.5,207.2L257.5,207.2z"/>
	<path style="fill:none;stroke:#000000;stroke-miterlimit:10;" d="M253.5,215.8c0.7-3.6-0.4-7.3-3.1-9.8c-2.6-2.5-6.3-3.6-9.9-2.8
		c-0.7,3.6,0.4,7.3,3.1,9.8C246.2,215.6,250,216.6,253.5,215.8L253.5,215.8z"/>
	<path style="fill:none;stroke:#000000;stroke-miterlimit:10;" d="M259.8,217.6c2.5,2.1,5.8,2.8,8.9,1.8c3.1-0.9,5.5-3.4,6.4-6.5
		c-2.5-2.1-5.8-2.8-8.9-1.8C263.1,212,260.7,214.5,259.8,217.6L259.8,217.6z"/>
	<path style="fill:none;stroke:#000000;stroke-miterlimit:10;" d="M262.7,208.9c2.3,1.2,5.1,1.2,7.3,0c2.3-1.3,3.8-3.6,4-6.2
		c-2.3-1.2-5.1-1.2-7.3,0C264.4,204,262.9,206.3,262.7,208.9L262.7,208.9z"/>
	<path style="fill:none;stroke:#000000;stroke-miterlimit:10;" d="M397.7,268.7c0,4.3,2.2,8.4,5.8,10.8c3.6,2.4,8.2,2.7,12.2,1
		c0-4.3-2.2-8.4-5.8-10.8C406.2,267.3,401.6,266.9,397.7,268.7L397.7,268.7z"/>
	<path style="fill:none;stroke:#000000;stroke-miterlimit:10;" d="M185.2,186.1c0.9-4.4,4-8.1,8.2-9.7c4.2-1.6,8.9-1,12.6,1.6
		c-0.9,4.4-4,8.1-8.2,9.7C193.6,189.4,188.8,188.7,185.2,186.1L185.2,186.1z"/>
	<path style="fill:none;stroke:#000000;stroke-miterlimit:10;" d="M258.5,43.7c-3-0.2-5.6-1.9-7-4.5s-1.4-5.7,0-8.4
		c3,0.2,5.6,1.9,7,4.5C259.9,37.9,259.9,41.1,258.5,43.7L258.5,43.7z"/>
	<path style="fill:none;stroke:#000000;stroke-miterlimit:10;" d="M199.6,65.9c-3.1-1.9-5-5.2-5.1-8.8s1.7-7,4.6-9
		c3.1,1.9,5,5.2,5.1,8.8C204.3,60.5,202.6,63.9,199.6,65.9L199.6,65.9z"/>
	<path style="fill:none;stroke:#000000;stroke-miterlimit:10;" d="M265.4,75.9c-3.4,1.8-7.4,1.7-10.7-0.2c-3.3-1.9-5.4-5.3-5.7-9.1
		c3.4-1.8,7.4-1.7,10.7,0.2C263.1,68.7,265.2,72.2,265.4,75.9L265.4,75.9z"/>
	<path style="fill:none;stroke:#000000;stroke-miterlimit:10;" d="M263,60.6c-2.5,2.8-6.2,4.2-9.9,3.6c-3.7-0.5-6.9-2.9-8.4-6.3
		c2.5-2.8,6.2-4.2,9.9-3.6C258.3,54.8,261.5,57.2,263,60.6L263,60.6z"/>
	<path style="fill:none;stroke:#000000;stroke-miterlimit:10;" d="M259.4,49.9c-2.3,2.1-5.5,2.9-8.5,2.2c-3-0.8-5.5-3-6.5-5.9
		c2.3-2.1,5.5-2.9,8.5-2.2S258.4,46.9,259.4,49.9L259.4,49.9z"/>
	<path style="fill:none;stroke:#000000;stroke-miterlimit:10;" d="M265,57.3c3.8,0.5,7.5-0.9,10-3.7c2.5-2.9,3.4-6.8,2.3-10.5
		c-3.8-0.5-7.5,0.9-10,3.7C264.9,49.7,264,53.6,265,57.3L265,57.3z"/>
	<path style="fill:none;stroke:#000000;stroke-miterlimit:10;" d="M300.5,46.2c3,0.6,6-0.4,8.1-2.5c2.1-2.2,2.9-5.2,2.3-8.2
		c-3-0.6-6,0.4-8.1,2.5C300.6,40.2,299.8,43.3,300.5,46.2L300.5,46.2z"/>
	<path style="fill:none;stroke:#000000;stroke-miterlimit:10;" d="M261.3,46.7c2.8,0,5.5-1.5,7-3.9s1.8-5.4,0.6-8
		c-2.8,0-5.5,1.5-7,3.9C260.4,41.1,260.1,44.1,261.3,46.7L261.3,46.7z"/>
	<path style="fill:none;stroke:#000000;stroke-miterlimit:10;" d="M234.4,132.1c3.8-1.6,6.6-5.1,7.4-9.2c0.7-4.1-0.7-8.3-3.7-11.2
		c-3.9,1.6-6.6,5.1-7.4,9.2C230,125.1,231.4,129.3,234.4,132.1L234.4,132.1z"/>
	<path style="fill:none;stroke:#000000;stroke-miterlimit:10;" d="M296.6,60.7c1.6,2.4,4.3,3.9,7.2,3.9c2.9,0,5.6-1.5,7.1-3.9
		c-1.6-2.4-4.3-3.9-7.2-3.9C300.8,56.8,298.1,58.2,296.6,60.7L296.6,60.7z"/>
	<path style="fill:none;stroke:#000000;stroke-miterlimit:10;" d="M298.7,54.2c2.1,1.7,4.9,2.3,7.4,1.5c2.6-0.8,4.5-2.8,5.3-5.4
		c-2.1-1.7-4.9-2.3-7.4-1.5C301.4,49.5,299.4,51.6,298.7,54.2L298.7,54.2z"/>
	<path style="fill:none;stroke:#000000;stroke-miterlimit:10;" d="M292,69.5c1.7,2.6,4.6,4.2,7.7,4.1c3.1,0,6-1.6,7.7-4.2
		c-1.7-2.6-4.6-4.2-7.7-4.1C296.6,65.3,293.7,66.9,292,69.5L292,69.5z"/>
	<path style="fill:none;stroke:#000000;stroke-miterlimit:10;" d="M294.5,56.2c-2.6,0.7-5.4,0-7.3-1.8c-2-1.8-2.9-4.5-2.5-7.1
		c2.6-0.7,5.4,0,7.3,1.8C294,50.9,294.9,53.6,294.5,56.2L294.5,56.2z"/>
	<path style="fill:none;stroke:#000000;stroke-miterlimit:10;" d="M297.8,48.9c-2.7-0.1-5.1-1.6-6.5-3.9c-1.4-2.3-1.5-5.1-0.3-7.6
		c2.7,0.1,5.1,1.6,6.5,3.9C298.8,43.6,298.9,46.5,297.8,48.9L297.8,48.9z"/>
	<path style="fill:none;stroke:#000000;stroke-miterlimit:10;" d="M290.4,65.2c-3,0.8-6.3,0-8.6-2.1c-2.3-2.1-3.4-5.2-2.9-8.3
		c3-0.8,6.3,0,8.6,2.1C289.8,59,290.9,62.1,290.4,65.2L290.4,65.2z"/>
	<path style="fill:none;stroke:#000000;stroke-miterlimit:10;" d="M270.2,75.5c2.9,1,6.2,0.4,8.7-1.5c2.4-1.9,3.8-5,3.5-8.1
		c-2.9-1-6.2-0.4-8.7,1.5S269.9,72.4,270.2,75.5L270.2,75.5z"/>
	<path style="fill:none;stroke:#000000;stroke-miterlimit:10;" d="M223.8,124.4c3.5-1.5,6-4.6,6.7-8.4c0.7-3.7-0.6-7.6-3.4-10.2
		c-3.5,1.5-6,4.6-6.7,8.4C219.7,117.9,221,121.8,223.8,124.4L223.8,124.4z"/>
	<path style="fill:none;stroke:#000000;stroke-miterlimit:10;" d="M213.8,111.3c3.2-0.2,6.1-2.1,7.7-5c1.6-2.9,1.7-6.4,0.2-9.3
		c-3.2,0.2-6.1,2.1-7.7,5C212.4,104.9,212.4,108.4,213.8,111.3L213.8,111.3z"/>
	<path style="fill:none;stroke:#000000;stroke-miterlimit:10;" d="M206.8,98.1c3.2,0.4,6.4-0.9,8.5-3.4s2.9-5.9,2-9.1
		c-3.2-0.4-6.4,0.9-8.5,3.4C206.7,91.6,205.9,95,206.8,98.1L206.8,98.1z"/>
	<path style="fill:none;stroke:#000000;stroke-miterlimit:10;" d="M203.2,84.3c3.1,0.6,6.4-0.4,8.8-2.7c2.3-2.3,3.4-5.7,2.8-8.9
		c-3.1-0.6-6.4,0.4-8.8,2.7C203.6,77.8,202.6,81.2,203.2,84.3L203.2,84.3z"/>
	<path style="fill:none;stroke:#000000;stroke-miterlimit:10;" d="M236.3,65.8c-2.3-1.4-3.8-4-3.9-6.7c-0.1-2.8,1.3-5.4,3.5-6.9
		c2.3,1.4,3.8,4,3.9,6.7C239.9,61.7,238.5,64.3,236.3,65.8z"/>
	<path style="fill:none;stroke:#000000;stroke-miterlimit:10;" d="M250.8,101.8c3.5,0.9,7.2-0.1,9.8-2.6s3.8-6.1,3.2-9.6
		c-3.5-0.9-7.2,0.1-9.8,2.6C251.4,94.7,250.2,98.3,250.8,101.8L250.8,101.8z"/>
	<path style="fill:none;stroke:#000000;stroke-miterlimit:10;" d="M245.1,93.9c3.3,0.8,6.9-0.1,9.4-2.5s3.7-5.8,3.1-9.2
		c-3.3-0.8-6.9,0.1-9.4,2.5C245.7,87,244.5,90.5,245.1,93.9L245.1,93.9z"/>
	<path style="fill:none;stroke:#000000;stroke-miterlimit:10;" d="M240.5,84.9c2.6,0.6,5.4-0.1,7.3-1.9c2-1.8,2.8-4.5,2.4-7.2
		c-2.6-0.6-5.4,0.1-7.3,1.9C241,79.6,240.1,82.3,240.5,84.9L240.5,84.9z"/>
	<path style="fill:none;stroke:#000000;stroke-miterlimit:10;" d="M237.7,76.7c2.6,0.6,5.4-0.1,7.3-1.9c2-1.8,2.8-4.5,2.4-7.2
		c-2.6-0.6-5.4,0.1-7.3,1.9C238.1,71.3,237.2,74,237.7,76.7L237.7,76.7z"/>
	<path style="fill:none;stroke:#000000;stroke-miterlimit:10;" d="M246.3,106.4c-2.2,2.5-5.4,3.7-8.6,3.2c-3.2-0.5-6-2.6-7.4-5.5
		c2.2-2.5,5.4-3.7,8.6-3.2C242.1,101.4,244.9,103.5,246.3,106.4z"/>
	<path style="fill:none;stroke:#000000;stroke-miterlimit:10;" d="M236.6,84.2c-2,2.3-5,3.4-8,3s-5.6-2.4-6.9-5.2c2-2.3,5-3.4,8-3
		C232.7,79.4,235.3,81.4,236.6,84.2L236.6,84.2z"/>
	<path style="fill:none;stroke:#000000;stroke-miterlimit:10;" d="M240.3,95.9c-2.1,2.5-5.2,3.7-8.3,3.2s-5.8-2.6-7.1-5.5
		c2.1-2.5,5.2-3.7,8.3-3.2S239,92.9,240.3,95.9z"/>
	<path style="fill:none;stroke:#000000;stroke-miterlimit:10;" d="M234.6,75.8c-2.7,1.5-5.9,1.5-8.6,0.1c-2.7-1.4-4.4-4.1-4.7-7.2
		c2.7-1.5,5.9-1.5,8.6-0.1C232.6,70.1,234.4,72.8,234.6,75.8L234.6,75.8z"/>
	<path style="fill:none;stroke:#000000;stroke-miterlimit:10;" d="M323.6,228.6c3.4,0.8,6.9-0.2,9.4-2.7c2.5-2.4,3.6-5.9,2.9-9.3
		c-3.4-0.8-6.9,0.2-9.4,2.7C324,221.6,322.9,225.2,323.6,228.6L323.6,228.6z"/>
	<path style="fill:none;stroke:#000000;stroke-miterlimit:10;" d="M319.4,206.9c2.6,0.5,5.3-0.4,7.2-2.4c1.8-2,2.5-4.7,1.9-7.3
		c-2.6-0.5-5.3,0.4-7.2,2.4C319.4,201.5,318.7,204.3,319.4,206.9L319.4,206.9z"/>
	<path style="fill:none;stroke:#000000;stroke-miterlimit:10;" d="M320.8,216.9c2.8,0.7,5.7-0.2,7.7-2.3s2.9-5.1,2.3-8.1
		c-2.8-0.7-5.7,0.2-7.7,2.3C321.1,211,320.2,214,320.8,216.9L320.8,216.9z"/>
	<path style="fill:none;stroke:#000000;stroke-miterlimit:10;" d="M276.3,172.1c0.1,4.5,2.4,8.7,6.3,11c3.8,2.4,8.6,2.7,12.7,0.8
		c-0.1-4.5-2.4-8.7-6.3-11C285.1,170.5,280.3,170.2,276.3,172.1L276.3,172.1z"/>
	<path style="fill:none;stroke:#000000;stroke-miterlimit:10;" d="M315.3,207.2c-2.6,0.5-5.3-0.4-7.2-2.4c-1.8-2-2.5-4.7-1.9-7.3
		c2.6-0.5,5.3,0.4,7.2,2.4C315.3,201.8,316,204.6,315.3,207.2L315.3,207.2z"/>
	<path style="fill:none;stroke:#000000;stroke-miterlimit:10;" d="M318.2,235.4c-2.5,2.4-6.1,3.3-9.4,2.5c-3.4-0.8-6.1-3.3-7.2-6.6
		c2.5-2.4,6.1-3.3,9.4-2.5C314.3,229.7,317,232.1,318.2,235.4L318.2,235.4z"/>
	<path style="fill:none;stroke:#000000;stroke-miterlimit:10;" d="M316.7,223c-1.7,1.5-4.2,2.1-6.5,1.6s-4.2-2.1-5-4.2
		c1.7-1.5,4.2-2.1,6.5-1.6C314.1,219.3,315.9,220.9,316.7,223L316.7,223z"/>
	<path style="fill:none;stroke:#000000;stroke-miterlimit:10;" d="M272.6,261.6c2,1.8,4.7,2.5,7.3,1.8c2.6-0.7,4.7-2.6,5.5-5.1
		c-2-1.8-4.7-2.5-7.3-1.8C275.5,257.2,273.5,259.1,272.6,261.6L272.6,261.6z"/>
	<path style="fill:none;stroke:#000000;stroke-miterlimit:10;" d="M272.3,274.9c2.7,1,5.6,0.5,7.9-1.3s3.6-4.7,3.4-7.7
		c-2.7-1-5.6-0.5-7.9,1.3C273.4,269,272.1,271.9,272.3,274.9L272.3,274.9z"/>
	<path style="fill:none;stroke:#000000;stroke-miterlimit:10;" d="M276.6,253.1c2,1.8,4.7,2.5,7.3,1.8c2.6-0.7,4.7-2.6,5.5-5.1
		c-2-1.8-4.7-2.5-7.3-1.8C279.5,248.6,277.4,250.6,276.6,253.1L276.6,253.1z"/>
	<path style="fill:none;stroke:#000000;stroke-miterlimit:10;" d="M355,222.6c-1.5,4.7-0.6,9.8,2.4,13.7c2.9,3.8,7.5,5.9,12.2,5.3
		c1.5-4.7,0.6-9.8-2.4-13.7C364.3,224.1,359.7,222.1,355,222.6L355,222.6z"/>
	<path style="fill:none;stroke:#000000;stroke-miterlimit:10;" d="M188.7,118.9c-2.4-1.9-3.7-5-3.4-8.1s2.2-5.8,4.9-7.3
		c2.4,1.9,3.7,5,3.4,8.1C193.3,114.8,191.4,117.5,188.7,118.9z"/>
	<path style="fill:none;stroke:#000000;stroke-miterlimit:10;" d="M186.8,93.3c3.3-1.4,7.1-1.1,10.1,0.9s4.8,5.4,4.7,9
		c-3.3,1.4-7.1,1.1-10.1-0.9C188.6,100.3,186.8,96.9,186.8,93.3L186.8,93.3z"/>
	<path style="fill:none;stroke:#000000;stroke-miterlimit:10;" d="M185.8,81.1c3-1.2,6.4-0.9,9.1,1c2.7,1.8,4.4,4.9,4.4,8.1
		c-3,1.2-6.4,0.9-9.1-1C187.5,87.4,185.9,84.4,185.8,81.1L185.8,81.1z"/>
	<path style="fill:none;stroke:#000000;stroke-miterlimit:10;" d="M183.6,70c2.7-1.6,6.2-1.8,9.2-0.4s5.1,4.2,5.6,7.4
		c-2.7,1.6-6.2,1.8-9.2,0.4C186.2,76,184.1,73.2,183.6,70L183.6,70z"/>
	<path style="fill:none;stroke:#000000;stroke-miterlimit:10;" d="M149.1,87.3c3.1-0.8,6.4,0,8.9,2.2s3.7,5.5,3.3,8.7
		c-3.1,0.8-6.4,0-8.9-2.2C150,93.8,148.7,90.5,149.1,87.3L149.1,87.3z"/>
	<path style="fill:none;stroke:#000000;stroke-miterlimit:10;" d="M105.6,102.1c2.3,1.5,3.8,4.1,3.9,7s-1.3,5.6-3.6,7.2
		c-2.3-1.5-3.8-4.1-3.9-7C101.9,106.5,103.3,103.8,105.6,102.1L105.6,102.1z"/>
	<path style="fill:none;stroke:#000000;stroke-miterlimit:10;" d="M143.4,109.9c2.7,1.7,4.4,4.7,4.5,8s-1.5,6.4-4.1,8.3
		c-2.7-1.7-4.4-4.7-4.5-8C139.2,114.9,140.8,111.8,143.4,109.9L143.4,109.9z"/>
	<path style="fill:none;stroke:#000000;stroke-miterlimit:10;" d="M155.3,171.9c2.7,1.7,4.4,4.7,4.5,8s-1.5,6.4-4.1,8.3
		c-2.7-1.7-4.4-4.7-4.5-8C151.2,176.9,152.7,173.8,155.3,171.9L155.3,171.9z"/>
	<path style="fill:none;stroke:#000000;stroke-miterlimit:10;" d="M178.4,124.6c3,1.2,5.1,3.9,5.8,7.1c0.6,3.2-0.3,6.6-2.6,8.9
		c-3-1.2-5.1-3.9-5.8-7.1C175.1,130.2,176.1,126.9,178.4,124.6L178.4,124.6z"/>
	<path style="fill:none;stroke:#000000;stroke-miterlimit:10;" d="M152.3,232c3,3.1,7.3,4.4,11.5,3.6c4.2-0.8,7.7-3.8,9.3-7.7
		c-3-3.1-7.3-4.4-11.5-3.6C157.4,225.1,153.9,228,152.3,232L152.3,232z"/>
	<path style="fill:none;stroke:#000000;stroke-miterlimit:10;" d="M158.9,207.4c2,1.8,4.7,2.6,7.3,1.9c2.6-0.6,4.7-2.6,5.6-5.1
		c-2-1.8-4.7-2.6-7.3-1.9S159.8,204.9,158.9,207.4L158.9,207.4z"/>
	<path style="fill:none;stroke:#000000;stroke-miterlimit:10;" d="M157.6,219.4c2.2,2.4,5.5,3.3,8.8,2.6c3.2-0.7,6-3.1,7.3-6.2
		c-2.2-2.4-5.5-3.3-8.8-2.6S158.9,216.2,157.6,219.4L157.6,219.4z"/>
	<path style="fill:none;stroke:#000000;stroke-miterlimit:10;" d="M158.9,199.3c2.4,1.2,5.3,1,7.5-0.4c2.3-1.4,3.7-3.9,3.8-6.5
		c-2.4-1.2-5.3-1-7.5,0.4C160.4,194.2,158.9,196.6,158.9,199.3L158.9,199.3z"/>
	<path style="fill:none;stroke:#000000;stroke-miterlimit:10;" d="M268.4,258.1c-2.5,1-5.3,0.8-7.5-0.7s-3.5-4-3.5-6.7
		c2.5-1,5.3-0.8,7.5,0.7S268.4,255.4,268.4,258.1L268.4,258.1z"/>
	<path style="fill:none;stroke:#000000;stroke-miterlimit:10;" d="M265,269.1c-3,1.2-6.5,0.8-9.1-1.3c-2.7-2-4.2-5.3-4.1-8.7
		c3-1.2,6.5-0.8,9.1,1.3C263.6,262.3,265.2,265.6,265,269.1L265,269.1z"/>
	<path style="fill:none;stroke:#000000;stroke-miterlimit:10;" d="M271.2,252.2c-2.7-0.2-5.1-1.7-6.4-4s-1.4-5.2-0.1-7.6
		c2.7,0.2,5.1,1.7,6.4,4C272.4,247,272.5,249.9,271.2,252.2L271.2,252.2z"/>
	<path style="fill:none;stroke:#000000;stroke-miterlimit:10;" d="M266.4,279.6c-3.1,2.5-7.3,3.1-11.1,1.6c-3.8-1.5-6.7-4.8-7.7-8.8
		c3.1-2.5,7.3-3.1,11.1-1.6C262.5,272.3,265.4,275.6,266.4,279.6L266.4,279.6z"/>
	<path style="fill:none;stroke:#000000;stroke-miterlimit:10;" d="M274.8,246.5c-2-1.7-3.1-4.4-2.7-7c0.3-2.7,2-5,4.4-6.1
		c2,1.7,3.1,4.4,2.7,7C278.9,243,277.2,245.3,274.8,246.5z"/>
	<path style="fill:none;stroke:#000000;stroke-miterlimit:10;" d="M251.8,225.8c-0.6-3.8-3.2-7-6.7-8.6c-3.5-1.5-7.6-1.2-10.8,1
		c0.6,3.8,3.2,7,6.7,8.6C244.5,228.3,248.6,228,251.8,225.8L251.8,225.8z"/>
	<path style="fill:none;stroke:#000000;stroke-miterlimit:10;" d="M320.1,243.4c-1.9,3.8-5.5,6.5-9.8,7c-4.2,0.5-8.5-1.1-11.2-4.4
		c1.9-3.8,5.5-6.5,9.8-7C313.1,238.5,317.3,240.2,320.1,243.4L320.1,243.4z"/>
	<path style="fill:none;stroke:#000000;stroke-miterlimit:10;" d="M112.6,156.3c3.6,1.9,8,1.9,11.6-0.1s6-5.7,6.3-9.8
		c-3.6-1.9-8-1.9-11.6,0.1C115.2,148.5,112.9,152.2,112.6,156.3L112.6,156.3z"/>
	<path style="fill:none;stroke:#000000;stroke-miterlimit:10;" d="M110.1,144c3,1.6,6.7,1.6,9.7-0.1c3-1.7,5-4.8,5.2-8.2
		c-3-1.6-6.7-1.6-9.7,0.1C112.4,137.5,110.4,140.6,110.1,144L110.1,144z"/>
	<path style="fill:none;stroke:#000000;stroke-miterlimit:10;" d="M108.2,133.7c2.8,1.5,6.2,1.5,9-0.1s4.6-4.4,4.9-7.6
		c-2.8-1.5-6.2-1.5-9,0.1C110.3,127.6,108.4,130.5,108.2,133.7L108.2,133.7z"/>
	<path style="fill:none;stroke:#000000;stroke-miterlimit:10;" d="M107.8,124.3c2.4,1.3,5.2,1.2,7.6,0c2.3-1.3,3.9-3.7,4.1-6.4
		c-2.4-1.3-5.2-1.2-7.6,0C109.5,119.3,107.9,121.7,107.8,124.3L107.8,124.3z"/>
	<path style="fill:none;stroke:#000000;stroke-miterlimit:10;" d="M140.8,133.9c-2.6,0.7-5.4,0-7.3-1.8c-2-1.8-2.9-4.5-2.5-7.1
		c2.6-0.7,5.4,0,7.3,1.8C140.3,128.6,141.2,131.3,140.8,133.9L140.8,133.9z"/>
	<path style="fill:none;stroke:#000000;stroke-miterlimit:10;" d="M153.4,121.4c-1.9-1.8-2.8-4.5-2.4-7.2c0.5-2.6,2.3-4.8,4.7-5.9
		c1.9,1.8,2.8,4.5,2.4,7.2C157.7,118.2,155.9,120.4,153.4,121.4L153.4,121.4z"/>
	<path style="fill:none;stroke:#000000;stroke-miterlimit:10;" d="M137.6,143.8c-3,0.8-6.3,0-8.6-2.1s-3.4-5.2-2.9-8.3
		c3-0.8,6.3,0,8.6,2.1C137,137.5,138.1,140.7,137.6,143.8L137.6,143.8z"/>
	<path style="fill:none;stroke:#000000;stroke-miterlimit:10;" d="M164.4,160.4c3.4,1.1,7.2,0.3,10-1.9c2.8-2.3,4.2-5.8,3.8-9.4
		c-3.4-1.1-7.2-0.3-10,1.9C165.4,153.3,164,156.9,164.4,160.4L164.4,160.4z"/>
	<path style="fill:none;stroke:#000000;stroke-miterlimit:10;" d="M160.1,151c3.3,1,6.9,0.3,9.5-1.9c2.7-2.2,4-5.6,3.6-9
		c-3.3-1-6.9-0.3-9.5,1.9C161,144.2,159.7,147.6,160.1,151L160.1,151z"/>
	<path style="fill:none;stroke:#000000;stroke-miterlimit:10;" d="M156.8,140.6c3,1,6.3,0.3,8.8-1.7c2.4-2,3.7-5.2,3.3-8.3
		c-3-1-6.3-0.3-8.8,1.7C157.7,134.3,156.4,137.4,156.8,140.6L156.8,140.6z"/>
	<path style="fill:none;stroke:#000000;stroke-miterlimit:10;" d="M154.8,130.2c2.6,0.8,5.3,0.3,7.4-1.5c2.1-1.7,3.1-4.4,2.8-7
		c-2.6-0.8-5.3-0.3-7.4,1.5C155.6,124.9,154.5,127.6,154.8,130.2L154.8,130.2z"/>
	<path style="fill:none;stroke:#000000;stroke-miterlimit:10;" d="M188.1,172.2c2.9,1.9,6.6,2.1,9.7,0.7c3.2-1.4,5.4-4.4,5.9-7.8
		c-2.9-1.9-6.6-2.1-9.7-0.7C190.9,165.9,188.6,168.8,188.1,172.2L188.1,172.2z"/>
	<path style="fill:none;stroke:#000000;stroke-miterlimit:10;" d="M185.8,152.8c2.3,1.3,5.2,1.4,7.5,0.2c2.4-1.2,4-3.6,4.3-6.2
		c-2.3-1.3-5.2-1.4-7.5-0.2C187.7,147.8,186.1,150.1,185.8,152.8L185.8,152.8z"/>
	<path style="fill:none;stroke:#000000;stroke-miterlimit:10;" d="M187.4,161.9c2.4,1.6,5.4,1.8,8,0.5s4.5-3.8,5-6.8
		c-2.4-1.6-5.4-1.8-8-0.5C189.7,156.4,187.8,158.9,187.4,161.9L187.4,161.9z"/>
	<path style="fill:none;stroke:#000000;stroke-miterlimit:10;" d="M184.2,145.5c2.6,0.6,5.3-0.2,7.3-2.1c1.9-1.9,2.7-4.6,2.2-7.2
		c-2.6-0.6-5.3,0.2-7.3,2.1C184.5,140.1,183.7,142.8,184.2,145.5L184.2,145.5z"/>
	<path style="fill:none;stroke:#000000;stroke-miterlimit:10;" d="M106.9,160.4c-3,2.9-7.2,4-11.2,3.1c-4-1-7.3-3.9-8.7-7.8
		c3-2.9,7.2-4,11.2-3.1C102.2,153.6,105.5,156.5,106.9,160.4L106.9,160.4z"/>
	<path style="fill:none;stroke:#000000;stroke-miterlimit:10;" d="M105.1,147.1c-2.5,2.4-6,3.3-9.4,2.6c-3.4-0.8-6.1-3.2-7.2-6.5
		c2.5-2.4,6-3.3,9.4-2.6C101.2,141.4,103.9,143.8,105.1,147.1L105.1,147.1z"/>
	<path style="fill:none;stroke:#000000;stroke-miterlimit:10;" d="M104.7,133.7c-2.3,2.2-5.6,3.1-8.7,2.4c-3.1-0.7-5.7-3-6.7-6
		c2.3-2.2,5.6-3.1,8.7-2.4C101.1,128.4,103.6,130.7,104.7,133.7L104.7,133.7z"/>
	<path style="fill:none;stroke:#000000;stroke-miterlimit:10;" d="M105.2,123.8c-1.9,1.9-4.7,2.6-7.3,2c-2.6-0.6-4.7-2.5-5.6-5
		c1.9-1.9,4.7-2.6,7.3-2C102.2,119.3,104.3,121.2,105.2,123.8L105.2,123.8z"/>
	<path style="fill:none;stroke:#000000;stroke-miterlimit:10;" d="M108.5,199.2c3.2-2.3,5-6,4.9-10c-0.2-3.9-2.3-7.5-5.7-9.5
		c-3.2,2.3-5,6-4.9,10C103,193.6,105.1,197.2,108.5,199.2L108.5,199.2z"/>
	<path style="fill:none;stroke:#000000;stroke-miterlimit:10;" d="M152.7,261.7c5.9,5.4,8.7,13.4,7.3,21.3
		c-1.3,7.9-6.6,14.5-14,17.7c-5.9-5.4-8.7-13.4-7.3-21.3C140.1,271.5,145.4,264.8,152.7,261.7z"/>
	<path style="fill:none;stroke:#000000;stroke-miterlimit:10;" d="M151.5,215.1c-3,1.8-6.6,1.9-9.7,0.3c-3.1-1.6-5.2-4.6-5.6-8
		c3-1.8,6.6-1.9,9.7-0.3C149,208.6,151.1,211.6,151.5,215.1L151.5,215.1z"/>
	<path style="fill:none;stroke:#000000;stroke-miterlimit:10;" d="M155.2,204.4c-2.7,1.4-6,1.4-8.7-0.1s-4.4-4.3-4.6-7.3
		c2.7-1.4,6-1.4,8.7,0.1C153.2,198.6,155,201.3,155.2,204.4L155.2,204.4z"/>
	<path style="fill:none;stroke:#000000;stroke-miterlimit:10;" d="M212.1,63.1c0.5,2.8-0.5,5.6-2.7,7.6c-2.2,1.9-5.3,2.6-8.2,1.9
		c-0.5-2.8,0.5-5.6,2.7-7.6C206.1,63.1,209.2,62.4,212.1,63.1L212.1,63.1z"/>
	<path style="fill:none;stroke:#000000;stroke-miterlimit:10;" d="M154.3,195.9c-2.6,0.5-5.3-0.4-7.2-2.4c-1.8-2-2.6-4.7-1.9-7.3
		c2.6-0.5,5.3,0.4,7.2,2.4C154.2,190.5,154.9,193.3,154.3,195.9L154.3,195.9z"/>
	<path style="fill:none;stroke:#000000;stroke-miterlimit:10;" d="M138,165.3c2.6-3.3,6.7-5,10.9-4.6s7.8,2.9,9.7,6.6
		c-2.6,3.3-6.7,5-10.9,4.6C143.5,171.5,139.9,169,138,165.3L138,165.3z"/>
	<path style="fill:none;stroke:#000000;stroke-miterlimit:10;" d="M138.8,151c3-1.9,6.8-2.2,10.1-0.8c3.3,1.5,5.6,4.5,6.1,8.1
		c-3,1.9-6.8,2.2-10.1,0.8C141.7,157.6,139.4,154.5,138.8,151L138.8,151z"/>
	<path style="fill:none;stroke:#000000;stroke-miterlimit:10;" d="M142.7,137.6c2.7-0.4,5.4,0.6,7.3,2.7c1.9,2.1,2.6,5,1.9,7.6
		c-2.7,0.4-5.4-0.6-7.3-2.7C142.8,143.2,142.1,140.3,142.7,137.6L142.7,137.6z"/>
	<path style="fill:none;stroke:#000000;stroke-miterlimit:10;" d="M143.2,135.8c2.1,0.7,4.5,0.2,6.2-1.2s2.6-3.6,2.3-5.9
		c-2.1-0.7-4.5-0.2-6.2,1.2C143.8,131.4,142.9,133.6,143.2,135.8L143.2,135.8z"/>
	<path style="fill:none;stroke:#000000;stroke-miterlimit:10;" d="M136.6,184c-3.6,1.2-6.3,4.2-7.2,7.9s0.1,7.6,2.7,10.4
		c3.6-1.2,6.3-4.2,7.2-7.9S139.2,186.8,136.6,184L136.6,184z"/>
	<path style="fill:none;stroke:#000000;stroke-miterlimit:10;" d="M127,169.3c1.7,1.5,4.1,2,6.3,1.4s3.9-2.3,4.6-4.5
		c-1.7-1.5-4.1-2-6.3-1.4C129.4,165.4,127.7,167.1,127,169.3L127,169.3z"/>
	<path style="fill:none;stroke:#000000;stroke-miterlimit:10;" d="M119.8,176.5c1.9,3.2,5.2,5.2,8.9,5.4s7.2-1.5,9.4-4.5
		c-1.9-3.2-5.2-5.2-8.9-5.4S122,173.5,119.8,176.5L119.8,176.5z"/>
	<path style="fill:none;stroke:#000000;stroke-miterlimit:10;" d="M116.7,208.3c3,4.1,3.8,9.4,2,14.2s-5.8,8.3-10.8,9.4
		c-3-4.1-3.8-9.4-2-14.2C107.6,212.9,111.7,209.4,116.7,208.3L116.7,208.3z"/>
	<path style="fill:none;stroke:#000000;stroke-miterlimit:10;" d="M177.5,177.2c-3.4-1.2-6-4.1-6.8-7.6s0.2-7.3,2.7-9.9
		c3.4,1.2,6,4.1,6.8,7.6C181.1,170.9,180,174.6,177.5,177.2L177.5,177.2z"/>
	<path style="fill:none;stroke:#000000;stroke-miterlimit:10;" d="M315.9,274.5c-6.5,3.6-10.7,10.2-11.2,17.6s2.8,14.5,8.7,19
		c6.5-3.6,10.7-10.2,11.2-17.6S321.8,279,315.9,274.5L315.9,274.5z"/>
	<path style="fill:none;stroke:#000000;stroke-miterlimit:10;" d="M402.3,263.5c-3-1.9-4.8-5.2-4.8-8.8c0-3.6,1.8-6.9,4.7-8.8
		c3,1.9,4.8,5.2,4.8,8.8C407,258.3,405.2,261.6,402.3,263.5L402.3,263.5z"/>
	<path style="fill:none;stroke:#000000;stroke-miterlimit:10;" d="M216.9,131.4c2.8,3.2,3.5,7.4,1.7,11.1c-1.8,3.7-5.7,6.4-10.5,7.2
		c-2.8-3.2-3.5-7.4-1.7-11.1C208.2,134.9,212.1,132.2,216.9,131.4L216.9,131.4z"/>
	<path style="fill:none;stroke:#000000;stroke-miterlimit:10;" d="M206.5,130.5c0.7,3-0.1,6.2-2.2,8.4c-2.1,2.3-5.2,3.3-8.3,2.7
		c-0.7-3,0.1-6.2,2.2-8.4C200.3,131,203.4,130,206.5,130.5L206.5,130.5z"/>
	<path style="fill:none;stroke:#000000;stroke-miterlimit:10;" d="M179.3,116.1c0.6,2.6-0.1,5.3-1.9,7.3c-1.8,1.9-4.5,2.8-7.1,2.3
		c-0.6-2.6,0.1-5.3,1.9-7.3C173.9,116.5,176.6,115.6,179.3,116.1L179.3,116.1z"/>
	<path style="fill:none;stroke:#000000;stroke-miterlimit:10;" d="M172.3,110.3c-0.1,2.7-1.6,5.2-4,6.7c-2.4,1.4-5.3,1.5-7.7,0.3
		c0.1-2.7,1.6-5.2,4-6.7C167,109.2,169.9,109.1,172.3,110.3L172.3,110.3z"/>
	<path style="fill:none;stroke:#000000;stroke-miterlimit:10;" d="M166.4,104.6c-1.4,2-3.6,3.1-6,3.1c-2.4-0.1-4.6-1.3-5.9-3.4
		c1.4-2,3.6-3.1,6-3.1C163,101.3,165.2,102.6,166.4,104.6L166.4,104.6z"/>
	<path style="fill:none;stroke:#000000;stroke-miterlimit:10;" d="M177.8,111.6c3.4-0.3,6.5-2.3,8.2-5.3c1.6-3,1.6-6.7,0-9.7
		c-3.4,0.3-6.5,2.3-8.2,5.3S176.2,108.6,177.8,111.6L177.8,111.6z"/>
	<path style="fill:none;stroke:#000000;stroke-miterlimit:10;" d="M170.6,105.1c2.7-0.2,5.1-1.8,6.3-4.1c1.3-2.4,1.3-5.2,0-7.6
		c-2.7,0.2-5.1,1.8-6.3,4.1C169.3,99.9,169.3,102.8,170.6,105.1L170.6,105.1z"/>
	<path style="fill:none;stroke:#000000;stroke-miterlimit:10;" d="M164.4,98.8c2.7-0.2,5.1-1.8,6.3-4.1c1.3-2.4,1.3-5.2,0-7.6
		c-2.7,0.2-5.1,1.8-6.3,4.1C163.1,93.6,163.2,96.4,164.4,98.8L164.4,98.8z"/>
	<path style="fill:none;stroke:#000000;stroke-miterlimit:10;" d="M271.9,88.4c0.4,2.7,2.2,5,4.7,6.1s5.4,0.9,7.7-0.6
		c-0.4-2.7-2.2-5-4.7-6.1C277.1,86.7,274.2,86.9,271.9,88.4L271.9,88.4z"/>
	<path style="fill:none;stroke:#000000;stroke-miterlimit:10;" d="M299.8,121.8c3-0.6,5.5-2.6,6.6-5.4c1.1-2.7,0.7-5.8-1.1-8.2
		c-3,0.6-5.5,2.6-6.6,5.4C297.6,116.3,298,119.4,299.8,121.8L299.8,121.8z"/>
	<path style="fill:none;stroke:#000000;stroke-miterlimit:10;" d="M267.6,64.5c2.2,0.9,4.7,0.7,6.7-0.6c2-1.3,3.2-3.6,3.1-6
		c-2.2-0.9-4.7-0.7-6.7,0.6C268.8,59.9,267.6,62.1,267.6,64.5L267.6,64.5z"/>
	<path style="fill:none;stroke:#000000;stroke-miterlimit:10;" d="M197.8,129.6c-1.4,2-3.6,3.1-6,3.1c-2.4-0.1-4.6-1.3-5.9-3.4
		c1.4-2,3.6-3.1,6-3.1C194.4,126.2,196.6,127.5,197.8,129.6L197.8,129.6z"/>
	<path style="fill:none;stroke:#000000;stroke-miterlimit:10;" d="M95.7,166.3c0.5,3,2.5,5.5,5.3,6.6c2.8,1.2,6,0.8,8.5-0.9
		c-0.5-3-2.5-5.5-5.3-6.6C101.4,164.3,98.2,164.6,95.7,166.3L95.7,166.3z"/>
	<path style="fill:none;stroke:#000000;stroke-miterlimit:10;" d="M193.1,115.4c0.7,3.8,3.2,6.9,6.7,8.4s7.6,1.1,10.7-1.1
		c-0.7-3.8-3.2-6.9-6.7-8.4S196.3,113.2,193.1,115.4L193.1,115.4z"/>
</g>
<g>
	<path id="XMLID_8_" style="fill:none;stroke:#000000;stroke-miterlimit:10;" d="M149.7,347.5c2.9,3.1,6.4,5,10.8,3.9
		c2.7-1.2,3.9-2.4,4-7.1c0-1.6,0.2-3.1,0.4-4.6c0.3-1.7,0.7-3.7,0.9-5.8c0.1-0.9,0.2-1.7,0.2-2.6c0.1-2.2-0.1-4.5-0.8-6.3
		c-0.7-1.9-1.8-4.5-3.3-6.7c-2.9-4.5-7.5-7.8-13.7-3.1c0,0-2.6,0.8-4.6,3.2c-1.5,1.8-2.8,4.4-2.7,8.2c0,0.2,0,0.5,0.1,0.8
		C141.5,331.2,144.4,341.6,149.7,347.5z"/>
	<polygon id="XMLID_2_" style="fill:none;stroke:#000000;stroke-miterlimit:10;" points="148.2,316.8 149.1,316.3 148.4,312 
		146.7,312.8 	"/>
</g>
<g>
	<path id="XMLID_3_" style="fill:none;stroke:#000000;stroke-miterlimit:10;" d="M115,348.1c0.4,4.2,2.1,7.9,6.3,9.6
		c2.9,0.6,4.5,0.5,7.4-3.3c0.9-1.2,2-2.4,3.1-3.4c1.3-1.2,2.8-2.6,4.2-4.1c0.6-0.6,1.2-1.3,1.7-1.9c1.4-1.7,2.6-3.6,3.2-5.5
		c0.6-2,1.3-4.6,1.4-7.3c0.4-5.3-1.2-10.8-9.1-10.8c0,0-2.5-0.9-5.6-0.2c-2.3,0.5-4.9,1.8-7.1,4.9c-0.1,0.2-0.3,0.4-0.4,0.7
		C118.3,330.1,114.3,340.1,115,348.1z"/>
	<polygon id="XMLID_1_" style="fill:none;stroke:#000000;stroke-miterlimit:10;" points="132.3,322.7 133.3,322.8 135.4,319 
		133.5,318.6 	"/>
</g>
<path style="fill:none;stroke:#000000;stroke-miterlimit:10;" d="M148.5,311.5c-2,1-24.5-16.9-8.3-45.9"/>
<path style="fill:none;stroke:#000000;stroke-miterlimit:10;" d="M133.5,318.5c0,0,6.7-4.2,3.8-19.1"/>
<g>
	<path id="XMLID_7_" style="fill:none;stroke:#000000;stroke-miterlimit:10;" d="M389.7,404.5c2.9,3.1,6.4,5,10.8,3.9
		c2.7-1.2,3.9-2.4,4-7.1c0-1.6,0.2-3.1,0.4-4.6c0.3-1.7,0.7-3.7,0.9-5.8c0.1-0.9,0.2-1.7,0.2-2.6c0.1-2.2-0.1-4.5-0.8-6.3
		c-0.7-1.9-1.8-4.5-3.3-6.7c-2.9-4.5-7.5-7.8-13.7-3.1c0,0-2.6,0.8-4.6,3.2c-1.5,1.8-2.8,4.4-2.7,8.2c0,0.2,0,0.5,0.1,0.8
		C381.5,388.2,384.4,398.6,389.7,404.5z"/>
	<polygon id="XMLID_6_" style="fill:none;stroke:#000000;stroke-miterlimit:10;" points="388.2,373.8 389.1,373.3 388.4,369 
		386.7,369.8 	"/>
</g>
<g>
	<path id="XMLID_5_" style="fill:none;stroke:#000000;stroke-miterlimit:10;" d="M355,405.1c0.4,4.2,2.1,7.9,6.3,9.6
		c2.9,0.6,4.5,0.5,7.4-3.3c0.9-1.2,2-2.4,3.1-3.4c1.3-1.2,2.8-2.6,4.2-4.1c0.6-0.6,1.2-1.3,1.7-1.9c1.4-1.7,2.6-3.6,3.2-5.5
		c0.6-2,1.3-4.6,1.4-7.3c0.4-5.3-1.2-10.8-9.1-10.8c0,0-2.5-0.9-5.6-0.2c-2.3,0.5-4.9,1.8-7.1,4.9c-0.1,0.2-0.3,0.4-0.4,0.7
		C358.3,387.1,354.3,397.1,355,405.1z"/>
	<polygon id="XMLID_4_" style="fill:none;stroke:#000000;stroke-miterlimit:10;" points="372.3,379.7 373.3,379.8 375.4,376 
		373.5,375.6 	"/>
</g>
<path style="fill:none;stroke:#000000;stroke-miterlimit:10;" d="M388.5,368.5c-2,1-19-14-16-50"/>
<path style="fill:none;stroke:#000000;stroke-miterlimit:10;" d="M373.5,375.5c0,0,6.7-4.2,3.8-19.1"/>
<g>
	<path id="XMLID_12_" style="fill:none;stroke:#000000;stroke-miterlimit:10;" d="M383.7,363.5c2.9,3.1,6.4,5,10.8,3.9
		c2.7-1.2,3.9-2.4,4-7.1c0-1.6,0.2-3.1,0.4-4.6c0.3-1.7,0.7-3.7,0.9-5.8c0.1-0.9,0.2-1.7,0.2-2.6c0.1-2.2-0.1-4.5-0.8-6.3
		c-0.7-1.9-1.8-4.5-3.3-6.7c-2.9-4.5-7.5-7.8-13.7-3.1c0,0-2.6,0.8-4.6,3.2c-1.5,1.8-2.8,4.4-2.7,8.2c0,0.2,0,0.5,0.1,0.8
		C375.5,347.2,378.4,357.6,383.7,363.5z"/>
	<polygon id="XMLID_11_" style="fill:none;stroke:#000000;stroke-miterlimit:10;" points="382.2,332.8 383.1,332.3 382.4,328 
		380.7,328.8 	"/>
</g>
<g>
	<path id="XMLID_10_" style="fill:none;stroke:#000000;stroke-miterlimit:10;" d="M349,364.1c0.4,4.2,2.1,7.9,6.3,9.6
		c2.9,0.6,4.5,0.5,7.4-3.3c0.9-1.2,2-2.4,3.1-3.4c1.3-1.2,2.8-2.6,4.2-4.1c0.6-0.6,1.2-1.3,1.7-1.9c1.4-1.7,2.6-3.6,3.2-5.5
		c0.6-2,1.3-4.6,1.4-7.3c0.4-5.3-1.2-10.8-9.1-10.8c0,0-2.5-0.9-5.6-0.2c-2.3,0.5-4.9,1.8-7.1,4.9c-0.1,0.2-0.3,0.4-0.4,0.7
		C352.3,346.1,348.3,356.1,349,364.1z"/>
	<polygon id="XMLID_9_" style="fill:none;stroke:#000000;stroke-miterlimit:10;" points="366.3,338.7 367.3,338.8 369.4,335 
		367.5,334.6 	"/>
</g>
<path style="fill:none;stroke:#000000;stroke-miterlimit:10;" d="M382.5,327.5c-2,1-24.5-16.9-8.3-45.9"/>
<path style="fill:none;stroke:#000000;stroke-miterlimit:10;" d="M367.5,334.5c0,0,6.7-4.2,3.8-19.1"/>
<g>
	<path id="XMLID_16_" style="fill:none;stroke:#000000;stroke-miterlimit:10;" d="M92.7,324.5c2.9,3.1,6.4,5,10.8,3.9
		c2.7-1.2,3.9-2.4,4-7.1c0-1.6,0.2-3.1,0.4-4.6c0.3-1.7,0.7-3.7,0.9-5.8c0.1-0.9,0.2-1.7,0.2-2.6c0.1-2.2-0.1-4.5-0.8-6.3
		c-0.7-1.9-1.8-4.5-3.3-6.7c-2.9-4.5-7.5-7.8-13.7-3.1c0,0-2.6,0.8-4.6,3.2c-1.5,1.8-2.8,4.4-2.7,8.2c0,0.2,0,0.5,0.1,0.8
		C84.5,308.2,87.4,318.6,92.7,324.5z"/>
	<polygon id="XMLID_15_" style="fill:none;stroke:#000000;stroke-miterlimit:10;" points="91.2,293.8 92.1,293.3 91.4,289 
		89.7,289.8 	"/>
</g>
<g>
	<path id="XMLID_14_" style="fill:none;stroke:#000000;stroke-miterlimit:10;" d="M58,325.1c0.4,4.2,2.1,7.9,6.3,9.6
		c2.9,0.6,4.5,0.5,7.4-3.3c0.9-1.2,2-2.4,3.1-3.4c1.3-1.2,2.8-2.6,4.2-4.1c0.6-0.6,1.2-1.3,1.7-1.9c1.4-1.7,2.6-3.6,3.2-5.5
		c0.6-2,1.3-4.6,1.4-7.3c0.4-5.3-1.2-10.8-9.1-10.8c0,0-2.5-0.9-5.6-0.2c-2.3,0.5-4.9,1.8-7.1,4.9c-0.1,0.2-0.3,0.4-0.4,0.7
		C61.3,307.1,57.3,317.1,58,325.1z"/>
	<polygon id="XMLID_13_" style="fill:none;stroke:#000000;stroke-miterlimit:10;" points="75.3,299.7 76.3,299.8 78.4,296 
		76.5,295.6 	"/>
</g>
<path style="fill:none;stroke:#000000;stroke-miterlimit:10;" d="M91.5,288.5c-2,1-24.5-16.9-8.3-45.9"/>
<path style="fill:none;stroke:#000000;stroke-miterlimit:10;" d="M76.5,295.5c0,0,6.7-4.2,3.8-19.1"/>
<g>
	<path id="XMLID_20_" style="fill:none;stroke:#000000;stroke-miterlimit:10;" d="M438.7,344.5c2.9,3.1,6.4,5,10.8,3.9
		c2.7-1.2,3.9-2.4,4-7.1c0-1.6,0.2-3.1,0.4-4.6c0.3-1.7,0.7-3.7,0.9-5.8c0.1-0.9,0.2-1.7,0.2-2.6c0.1-2.2-0.1-4.5-0.8-6.3
		c-0.7-1.9-1.8-4.5-3.3-6.7c-2.9-4.5-7.5-7.8-13.7-3.1c0,0-2.6,0.8-4.6,3.2c-1.5,1.8-2.8,4.4-2.7,8.2c0,0.2,0,0.5,0.1,0.8
		C430.5,328.2,433.4,338.6,438.7,344.5z"/>
	<polygon id="XMLID_19_" style="fill:none;stroke:#000000;stroke-miterlimit:10;" points="437.2,313.8 438.1,313.3 437.4,309 
		435.7,309.8 	"/>
</g>
<g>
	<path id="XMLID_18_" style="fill:none;stroke:#000000;stroke-miterlimit:10;" d="M404,345.1c0.4,4.2,2.1,7.9,6.3,9.6
		c2.9,0.6,4.5,0.5,7.4-3.3c0.9-1.2,2-2.4,3.1-3.4c1.3-1.2,2.8-2.6,4.2-4.1c0.6-0.6,1.2-1.3,1.7-1.9c1.4-1.7,2.6-3.6,3.2-5.5
		c0.6-2,1.3-4.6,1.4-7.3c0.4-5.3-1.2-10.8-9.1-10.8c0,0-2.5-0.9-5.6-0.2c-2.3,0.5-4.9,1.8-7.1,4.9c-0.1,0.2-0.3,0.4-0.4,0.7
		C407.3,327.1,403.3,337.1,404,345.1z"/>
	<polygon id="XMLID_17_" style="fill:none;stroke:#000000;stroke-miterlimit:10;" points="421.3,319.7 422.3,319.8 424.4,316 
		422.5,315.6 	"/>
</g>
<path style="fill:none;stroke:#000000;stroke-miterlimit:10;" d="M437.5,308.5c-2,1-24.5-16.9-8.3-45.9"/>
<path style="fill:none;stroke:#000000;stroke-miterlimit:10;" d="M422.5,315.5c0,0,6.7-4.2,3.8-19.1"/>
</svg>
