<?xml version="1.0" encoding="utf-8"?>
<!-- Generator: Adobe Illustrator 22.1.0, SVG Export Plug-In . SVG Version: 6.00 Build 0)  -->
<svg version="1.1" id="Layer_1" xmlns="http://www.w3.org/2000/svg" xmlns:xlink="http://www.w3.org/1999/xlink" x="0px" y="0px"
	 viewBox="0 0 512 512" style="enable-background:new 0 0 512 512;" xml:space="preserve">
<g transform="matrix(1.0001 0 0 1 39.249 -71.25)">
	<path style="fill:none;stroke:#000000;stroke-miterlimit:10;" d="M153.9,368.4L153.9,368.4c0,0-0.1,0-0.1-0.1c-1-1.3-2-2.6-3-3.9
		c0.1-0.1,0.2-0.2,0.3-0.3c1,1.3,1.7,2.8,2.7,4.1C153.8,368.3,153.8,368.4,153.9,368.4z"/>
	<path style="fill:none;stroke:#000000;stroke-miterlimit:10;" d="M169.1,329.3l-1.7,2.4c-4-2.8-11.4-1.8-12.2-6.6
		c-0.8-4.9,5-15.5,8.9-21.9l2.5,1.5c-3.7,6-7.8,16.7-7.1,20.7C160.1,329.3,165.6,326.8,169.1,329.3z"/>
	<path style="fill:none;stroke:#000000;stroke-miterlimit:10;" d="M143.2,352.3l-0.1,0.1c-0.1-0.2-0.2-0.4-0.3-0.6l0,0
		c-8.7-16.3-13.8-35.7-13.8-56.6c0-15.2,2.7-29.7,7.5-42.7c0.1,0,0.2,0,0.2,0c-4.8,13-7.7,27.4-7.7,42.6c0,20.9,5.1,40.4,13.8,56.6
		C143,351.9,143.1,352.1,143.2,352.3z"/>
	<path style="fill:none;stroke:#000000;stroke-miterlimit:10;" d="M214.6,362.3c-22.2,1.7-44.2,0.7-58.8,0
		C174.9,351,191.3,353.6,214.6,362.3z"/>
	<ellipse style="fill:none;stroke:#000000;stroke-miterlimit:10;" cx="195.8" cy="296.1" rx="15.3" ry="10.6"/>
	<path style="fill:none;stroke:#000000;stroke-miterlimit:10;" d="M220.3,360.1c0,0-28.8-14.4-38.1-11.2c-0.1-2.6-1.7-4.8-2-9.5
		c0,0,37.2,0.6,41.1,6C225.1,350.8,220.3,360.1,220.3,360.1z"/>
	<path style="fill:none;stroke:#000000;stroke-miterlimit:10;" d="M296.2,318.5c-2.1,11.1-5.6,21.4-10.3,30.8c0,0.1-0.1,0.2-0.2,0.3
		c0-0.3,0.1-0.5,0.1-0.8c0-0.1,0.1-0.2,0.2-0.3c4.5-9.2,8-19.2,10-30C296.1,318.6,296.2,318.5,296.2,318.5z"/>
	<polygon style="fill:none;stroke:#000000;stroke-miterlimit:10;" points="120.8,419 128.4,424.5 120.7,419.1 154.7,391.4 
		154.7,391.4 	"/>
	<path style="fill:none;stroke:#000000;stroke-miterlimit:10;" d="M159.8,399.1c-0.1,0-0.2,0.1-0.4,0.1c-0.1,0-0.3,0.1-0.4,0.1
		c0.1-0.1,0.2-0.1,0.4-0.1c0.1-0.1,0.2-0.1,0.3-0.2C159.8,399.1,159.8,399.1,159.8,399.1z"/>
	<polygon style="fill:none;stroke:#000000;stroke-miterlimit:10;" points="262,438.1 234.9,458.7 224.6,449.6 211.8,474.6 
		198.1,448.7 191.3,457.1 174.7,438.1 	"/>
	<path style="fill:none;stroke:#000000;stroke-miterlimit:10;" d="M275.4,396.5c-0.1,0-0.1,0.1-0.2,0.2c-4.5-1.1-9.2-1.9-14-2
		c-0.2,0-0.5,0-0.7,0c0,0,0,0,0.1-0.1c0.2,0,0.5,0,0.7,0C266.1,394.7,270.9,395.3,275.4,396.5z"/>
	<path style="fill:none;stroke:#000000;stroke-miterlimit:10;" d="M321.7,443.4c-0.8-3.5-2-6.9-3.4-10.1l0,0
		C319.7,436.5,320.8,439.9,321.7,443.4z"/>
	<path style="fill:none;stroke:#000000;stroke-miterlimit:10;" d="M323.4,533.2L323.4,533.2c-55.6,24.6-156.7,23.3-203.7,0v-74.9
		c0-12.3,3.4-23.7,9.4-33.4l0,0l0.3,0.2l0.2,0.1l0.5,0.4c-5.9,9.7-10.3,20.5-10.3,32.8v74.8c30.2,15,82.1,19.7,130.4,15.5v0.2
		l17.2-1.3v-0.2C288.1,544.5,307.7,540.1,323.4,533.2z"/>
	<path style="fill:none;stroke:#000000;stroke-miterlimit:10;" d="M319.4,309c0,0.1,0,0.1,0,0.1c-12.8,4.2-17,8.5-23.4,9.8
		c-5.7,1.2-13.3-0.1-30.5-6c4-28.6-2.5-49.5-19.7-64.3c-17,8.9-74.9,8.4-109.1,4c-9-1.2-16.4-2.6-21-4.2l0,0c0,0,1.6-14,11.6-29.6
		l0,0c0,0.1,0,0.1,0.1,0.1l0,0c0.1,0,0.1,0,0.2,0c50.5,11.9,113.4,12.4,166.1,0l0.1-0.4v-0.3c21.5,32.7,25,74.5,25.6,87.1v0.1
		c0,0.2,0,0.4,0,0.7C319.4,308,319.4,309,319.4,309z"/>
	<ellipse style="fill:none;stroke:#000000;stroke-miterlimit:10;" cx="195.8" cy="296.1" rx="15.3" ry="10.6"/>
	<path style="fill:none;stroke:#000000;stroke-miterlimit:10;" d="M197.9,296.4c0,4.9-3.9,8.8-8.7,8.8s-8.7-4-8.7-8.8
		c0-4.9,3.9-8.8,8.7-8.8S197.9,291.5,197.9,296.4z"/>
	<path style="fill:none;stroke:#000000;stroke-miterlimit:10;" d="M191.4,297.1c0,3.9-2.4,7.1-5.4,7.1s-5.4-3.2-5.4-7.1
		s2.4-7.1,5.4-7.1S191.4,293.2,191.4,297.1z"/>
	<path style="fill:none;stroke:#000000;stroke-miterlimit:10;" d="M160.4,294.4c0,5.8-6.8,10.6-15.3,10.6s-15.3-4.7-15.3-10.6
		s6.8-10.6,15.3-10.6S160.4,288.6,160.4,294.4z"/>
	<path style="fill:none;stroke:#000000;stroke-miterlimit:10;" d="M147.3,294.7c0,4.9-3.9,8.8-8.7,8.8s-8.7-4-8.7-8.8
		c0-4.9,3.9-8.8,8.7-8.8C143.4,285.8,147.3,289.8,147.3,294.7z"/>
	<path style="fill:none;stroke:#000000;stroke-miterlimit:10;" d="M140.8,295.4c0,3.9-2.4,7.1-5.4,7.1s-5.4-3.2-5.4-7.1
		s2.4-7.1,5.4-7.1S140.8,291.5,140.8,295.4z"/>
	<path style="fill:none;stroke:#000000;stroke-miterlimit:10;" d="M214.6,362.3c-22.2,1.7-44.2,0.7-58.8,0
		C174.9,351,191.3,353.6,214.6,362.3z"/>
	<path style="fill:none;stroke:#000000;stroke-miterlimit:10;" d="M254.2,474.2l6.3,0.6l6.9,72.8l-17.4,1.3L254.2,474.2L254.2,474.2
		z"/>
	<path style="fill:none;stroke:#000000;stroke-miterlimit:10;" d="M169.1,329.3l-1.7,2.4c-4-2.8-11.4-1.8-12.2-6.6
		c-0.8-4.9,5-15.5,8.9-21.9l2.5,1.5c-3.7,6-7.8,16.7-7.1,20.7C160.1,329.3,165.6,326.8,169.1,329.3z"/>
	<path style="fill:none;stroke:#000000;stroke-miterlimit:10;" d="M159.8,399.1c-0.1,0-0.2,0.1-0.4,0.1c0,0,0,0,0-0.1
		c-3.3-7.6-5.7-17.7-5.7-30.8v-0.1c0,0.1,0.1,0.1,0.1,0.2v0.1C153.8,381.7,156.4,391.4,159.8,399.1
		C159.8,399.1,159.8,399.1,159.8,399.1z"/>
	<path style="fill:none;stroke:#000000;stroke-miterlimit:10;" d="M286,348.5c0,0.3-0.1,0.5-0.1,0.8c-1.9,16.5-12.7,32.7-24.7,45.2
		l-0.1,0.1c-0.2,0-0.5,0-0.7,0c0,0,0,0,0.1-0.1c12-12.5,23.2-28.3,25.2-44.9c0-0.3,0.1-0.5,0.1-0.8C285.9,348.7,286,348.6,286,348.5
		z"/>
	<path style="fill:none;stroke:#000000;stroke-miterlimit:10;" d="M143.2,352.3l-0.1,0.1c-1.1,0.8-2.7,1.5-3.2,2.2
		c0.4-0.9,1.4-1.8,2.9-2.8l0,0c0,0,0.1,0,0.1-0.1C143,351.9,143.1,352.1,143.2,352.3z"/>
	<path style="fill:none;stroke:#000000;stroke-miterlimit:10;" d="M220.3,360.1c0,0-28.8-14.4-38.1-11.2c-0.1-2.6-1.7-4.8-2-9.5
		c0,0,37.2,0.6,41.1,6C225.1,350.8,220.3,360.1,220.3,360.1z"/>
	<path style="fill:none;stroke:#000000;stroke-miterlimit:10;" d="M110.6,138c0.6,3.3,11.7,60,15.5,76.5c-4-17-15.6-76.7-15.6-76.7
		L110.6,138z"/>
	<polygon style="fill:none;stroke:#000000;stroke-miterlimit:10;" points="156.6,133 156.7,133 150.4,146.6 150.4,146.6 	"/>
	<polygon style="fill:none;stroke:#000000;stroke-miterlimit:10;" points="162.1,141.5 167.5,150 167.5,150.1 	"/>
	<polygon style="fill:none;stroke:#000000;stroke-miterlimit:10;" points="197.4,127.2 197.4,127.2 196.6,129.4 	"/>
	<path style="fill:none;stroke:#000000;stroke-miterlimit:10;" d="M202.6,138.4l4.9,10.6c0,0,0,0,0,0.1L202.6,138.4z"/>
	<polygon style="fill:none;stroke:#000000;stroke-miterlimit:10;" points="232.4,126.3 242.8,150.1 242.7,150.2 232.4,126.4 	"/>
	<polygon style="fill:none;stroke:#000000;stroke-miterlimit:10;" points="268.4,131.6 273.5,145.3 268.3,131.8 	"/>
	<polygon style="fill:none;stroke:#000000;stroke-miterlimit:10;" points="305.6,136.1 305.6,136.1 292.4,154.9 292.4,154.8 	"/>
	<path style="fill:none;stroke:#000000;stroke-miterlimit:10;" d="M280.3,392.4c-3.4,2.6-14.6,12-14.6,12l47.1,34.5l12.5-12.5
		L280.3,392.4z"/>
	<polygon style="fill:none;stroke:#000000;stroke-miterlimit:10;" points="262,438.1 234.9,458.7 224.6,449.6 211.8,474.6 
		198.1,448.7 191.3,457.1 174.7,438.1 	"/>
	<path style="fill:none;stroke:#000000;stroke-miterlimit:10;" d="M286,348.5c-0.1,0.1-0.1,0.2-0.2,0.3c0,0.3-0.1,0.5-0.1,0.8
		c-2,16.6-13.2,32.4-25.2,44.9c0,0,0,0.1-0.1,0.1c0.2,0,0.5,0,0.7,0c-8.4,8.8-17.3,15.8-24,19.8c-21.4,12.9-61.3,7.3-68,0
		c-3.1-3.4-6.7-8.3-9.7-15.2c0.1,0,0.3,0,0.4-0.1c0,0,0-0.1-0.1-0.1c-3.3-7.6-5.9-17.3-5.9-30.5v-0.1c0,0-0.1-0.1-0.1-0.2
		c0-0.8,0-1.5,0-2.3c2,4.8,8.6,11.6,11.7,14c4-1.9,12.8-2,7.3-13.7c2.7,0,10.3,0.9,12.8,0.1c-4.6,10.5,1,14.5,11.1,14.2
		c5.2-7.7,19.3-9.8,38.9-18.3c19.6-8.6,30.3-31.7,29.7-39.6c4.3,0.8,10.4,1.3,13.8-1C285,330.3,286.9,339.4,286,348.5z"/>
	<path style="fill:none;stroke:#000000;stroke-miterlimit:10;" d="M319.3,306.1c0-0.2,0-0.4,0-0.7v-0.1c-0.6-12.3-4.1-54-25.6-86.8
		l-0.1,0.4c-52.7,12.4-115.6,12-166.1,0c-9.8,15.5-11.8,29.5-11.8,29.5c4.3,1.5,12.4,2.8,20.7,3.9c0.1,0,0.2,0,0.2,0
		c0,0.1-0.1,0.2-0.1,0.3c-4.8,13-7.6,27.2-7.6,42.4c0,20.9,5.1,40.4,13.8,56.6c9.1-5.8,34.5-12.4,34.5-12.4c1,4.6,0,7.7,0.7,10.2
		c-6.8-0.3-20.1,9-27.6,14.7c0.1,0.1,0.1,0.2,0.2,0.2c0.1-0.1,0.2-0.2,0.3-0.3c1,1.3,1.7,2.8,2.7,4.1c0-0.8,0-1.5,0-2.3
		c2,4.8,8.6,11.6,11.7,14c4-1.9,12.8-2,7.3-13.7c2.7,0,10.3,0.9,12.8,0.1c-4.6,10.5,1,14.5,11.1,14.2c5.2-7.7,19.3-9.8,38.9-18.3
		c19.6-8.6,30.3-31.7,29.7-39.6c4.3,0.8,10.4,1.3,13.8-1c5.9,8.7,7.8,17.9,6.9,27c4.5-9.1,7.9-19,10-29.6c0-0.1,0-0.2,0.1-0.3
		c0.1,0,0.1,0,0.2-0.1c6.2-1.4,10.6-5.4,23.2-9.5C319.4,309,319.4,308,319.3,306.1z M211,296.1c0,5.8-6.8,10.6-15.3,10.6
		c-8.4,0-15.3-4.7-15.3-10.6c0-5.8,6.8-10.6,15.3-10.6C204.2,285.6,211,290.3,211,296.1z M167.4,331.7c-4-2.8-11.4-1.8-12.2-6.6
		c-0.8-4.9,5-15.5,8.9-21.9l2.5,1.5c-3.7,6-7.8,16.7-7.1,20.7s6.1,1.6,9.6,4L167.4,331.7z M155.8,362.3c19.1-11.3,35.5-8.6,58.8,0
		C192.4,363.9,170.4,363,155.8,362.3z M220.3,360.1c0,0-28.8-14.4-38.1-11.2c-0.1-2.6-1.7-4.8-2-9.5c0,0,37.2,0.6,41.1,6
		C225.1,350.8,220.3,360.1,220.3,360.1z M292.4,154.8l-4.7-23.3l-11.9,19.6l-2.3-5.9l9,23.6L292.4,154.8z M268.3,131.8L268.3,131.8
		l-8,16.3l-6.6-21.8l-10.9,23.8l7.8,17.9L268.3,131.8z M232.4,126.4L232.4,126.4l-6.4,16.1c-3.8-10.3-7.7-19.9-7.7-21.5
		c0-2.3-6.2,15.1-10.8,28l8.5,18.5L232.4,126.4z M197.5,127.2L197.5,127.2l5.1,11.3L197.5,127.2z M196.6,129.4l-4.6,12.2L180.2,119
		l-12.7,31l13.5,21.1L196.6,129.4z M156.7,133L156.7,133l5.4,8.5L156.7,133z M150.4,146.6L136.8,128l-11.1,28.5l-15-18.7
		c0,0,0,0.1,0,0.2l27.8,34.4L150.4,146.6z M127.4,219c0,0,0-0.1-0.1-0.1c0,0,0-0.1-0.1-0.1v0.1C127.3,219,127.4,219,127.4,219h0.2
		C127.5,219,127.4,219,127.4,219L127.4,219z"/>
	<path style="fill:none;stroke:#000000;stroke-miterlimit:10;" d="M305.6,136.1l-11.9,82.2l0,0v0.3l-0.1,0.4
		c-52.7,12.4-115.6,12-166.1,0c-0.1,0-0.1,0-0.2,0l0,0c0,0,0-0.1-0.1-0.1c0,0,0-0.1-0.1-0.1c-0.1-0.3-0.3-1-0.5-1.8
		c-0.2-0.7-0.3-1.4-0.6-2.3l0,0c-3.8-16.6-14.9-73.2-15.5-76.5l27.8,34.4l11.9-25.9l0,0l6.2-13.6l5.4,8.4l5.4,8.6l0,0l13.5,21.1
		l15.6-41.7l0.8-2.1l5.2,11.2l4.9,10.7c0,0,0,0,0-0.1l8.5,18.5l16.4-41.2l10.3,23.8l0.1-0.1l7.8,17.9l17.7-36.3l5.2,13.5l9,23.6
		l9.9-14.1v0.1L305.6,136.1z"/>
	<path style="fill:none;stroke:#000000;stroke-miterlimit:10;" d="M169.1,329.3l-1.7,2.4c-4-2.8-11.4-1.8-12.2-6.6
		c-0.8-4.9,5-15.5,8.9-21.9l2.5,1.5c-3.7,6-7.8,16.7-7.1,20.7C160.1,329.3,165.6,326.8,169.1,329.3z"/>
	<path style="fill:none;stroke:#000000;stroke-miterlimit:10;" d="M178.1,349.5c-6.8-0.3-20.1,9-27.6,14.7c-3.3,2.5-5.5,4.3-5.5,4.3
		l0,0l0,0c0,0,0,0-0.1-0.1l-0.1-0.1c-0.1-0.1-0.2-0.2-0.2-0.3c-0.2-0.2-0.4-0.4-0.6-0.7c-0.1-0.2-0.3-0.3-0.4-0.5
		c-0.1-0.1-0.2-0.2-0.3-0.3c-0.1-0.2-0.2-0.3-0.4-0.5c-0.1-0.2-0.2-0.4-0.4-0.5l0,0c-0.1-0.2-0.3-0.4-0.4-0.6
		c-0.1-0.2-0.3-0.4-0.4-0.6c-0.1-0.2-0.2-0.3-0.3-0.4c-0.2-0.3-0.3-0.6-0.5-0.9c-0.2-0.4-0.4-0.8-0.6-1.3c-0.1-0.2-0.2-0.4-0.2-0.7
		l0,0c-0.1-0.2-0.1-0.4-0.2-0.6c-0.1-0.3-0.2-0.6-0.2-0.9l0,0c-0.1-0.3-0.1-0.7-0.2-1c-0.1-1.2-0.1-2.3,0.3-3.5
		c0-0.1,0.1-0.2,0.1-0.3c0.5-0.7,2.1-1.4,3.2-2.2l0.1-0.1c-0.1-0.2-0.2-0.4-0.3-0.6c9.1-5.8,34.5-12.4,34.5-12.4
		C178.5,343.9,177.4,347.1,178.1,349.5z"/>
	<path style="fill:none;stroke:#000000;stroke-miterlimit:10;" d="M139.8,354.8c0-0.1,0.1-0.1,0.1-0.2
		C139.8,354.6,139.8,354.7,139.8,354.8c-0.4,1.2-0.4,2.4-0.3,3.5C139.3,357.1,139.4,355.9,139.8,354.8z"/>
	<path style="fill:none;stroke:#000000;stroke-miterlimit:10;" d="M150.7,364.4c-2.1,1.6-5.6,4.1-5.6,4.1l0,0c0,0,2.2-1.8,5.5-4.3
		C150.6,364.3,150.7,364.4,150.7,364.4z"/>
	<path style="fill:none;stroke:#000000;stroke-miterlimit:10;" d="M214.6,362.3c-22.2,1.7-44.2,0.7-58.8,0
		C174.9,351,191.3,353.6,214.6,362.3z"/>
	<ellipse style="fill:none;stroke:#000000;stroke-miterlimit:10;" cx="195.8" cy="296.1" rx="15.3" ry="10.6"/>
	<path style="fill:none;stroke:#000000;stroke-miterlimit:10;" d="M220.3,360.1c0,0-28.8-14.4-38.1-11.2c-0.1-2.6-1.7-4.8-2-9.5
		c0,0,37.2,0.6,41.1,6C225.1,350.8,220.3,360.1,220.3,360.1z"/>
	<path style="fill:none;stroke:#000000;stroke-miterlimit:10;" d="M321.7,443.4c-0.8-3.5-2-6.9-3.4-10.1l0,0l7-7l-45-33.9
		c-1.1,0.9-2.8,2.3-5,4.1c-0.1,0-0.1,0.1-0.2,0.2c-4.5-1.1-9.2-1.9-14-2c-8.4,8.8-17.3,15.8-24,19.8c-21.4,12.9-61.3,7.3-68,0
		c-3.1-3.4-6.7-8.3-9.7-15.2c-0.1,0-0.3,0.1-0.4,0.1c-0.2,0.1-0.3,0.1-0.5,0.2l3.7,7.9c0,0-29.7,20.2-31.3,18.8l-1.5-1l0.5,0.4
		c-5.9,9.7-10.3,20.5-10.3,32.8v74.8c30.2,15,82.1,19.7,130.4,15.5v0.2l17.2-1.3v-0.2c20.7-2.9,40.3-7.3,56.1-14.2v-74.9
		c0-5-0.6-9.8-1.6-14.4C321.7,443.7,321.7,443.6,321.7,443.4z M234.9,458.7l5.3,4.7l-23.7,16.1l25.1,12.5l-15.3,16.5l-15-24.2
		L196.8,509l-14.3-14.2l21.5-15.4l-19.8-13.8l7-8.6l-16.6-19H262L234.9,458.7z"/>
	<path style="fill:none;stroke:#000000;stroke-miterlimit:10;" d="M162.3,407.5c0,0-29.7,20.2-31.3,18.8l-1.5-1l-0.2-0.1L129,425
		l0,0l-0.4-0.3l-0.2-0.2l-7.6-5.4l33.9-27.7l3.8,8.1L162.3,407.5z"/>
	<path style="fill:none;stroke:#000000;stroke-miterlimit:10;" d="M159,399.3c-0.2,0.1-0.3,0.1-0.5,0.2l-3.8-8.1l0.1-0.1l3.8,8.1
		C158.7,399.4,158.9,399.4,159,399.3z"/>
	<polygon style="fill:none;stroke:#000000;stroke-miterlimit:10;" points="241.7,492.1 226.4,508.6 211.4,484.4 196.9,509.1 
		182.6,494.9 204.1,479.5 184.3,465.7 191.3,457.1 198.1,448.7 211.8,474.6 224.6,449.6 234.9,458.7 240.3,463.4 216.6,479.5 	"/>
	<polygon style="fill:none;stroke:#000000;stroke-miterlimit:10;" points="262,438.1 234.9,458.7 224.6,449.6 211.8,474.6 
		198.1,448.7 191.3,457.1 174.7,438.1 	"/>
	<path style="fill:none;stroke:#000000;stroke-miterlimit:10;" d="M323.5,458.4v74.8c0,0,0,0-0.1,0L323.5,458.4
		c-0.1-5-0.6-9.9-1.7-14.5C322.9,448.5,323.5,453.4,323.5,458.4z"/>
</g>
</svg>
