<?xml version="1.0" encoding="utf-8"?>
<!-- Generator: Adobe Illustrator 22.1.0, SVG Export Plug-In . SVG Version: 6.00 Build 0)  -->
<svg version="1.1" id="Layer_1" xmlns="http://www.w3.org/2000/svg" xmlns:xlink="http://www.w3.org/1999/xlink" x="0px" y="0px"
	 viewBox="0 0 612 792" style="enable-background:new 0 0 612 792;" xml:space="preserve">
<path style="fill:#040404;" d="M357,714c-9.3,0-18.7,0-28,0c-5.7-1.6-11.3-1.6-17,0c-12.7,0-25.3,0-38,0c-0.9-1.9-2.6-0.9-4-1
	c-17.8-0.8-35.6-1.1-53.4-2.3c-26.9-1.7-53.7-3.5-80.5-6.7c-18.6-2.2-37.1-4.8-55.3-9.2c-6.4-1.6-12.9-3.3-18.2-7.4
	c-3.7-2.9-3.7-5.5,0.1-8.4c2.5-1.9,5.4-3.1,8.4-4.2c17.3-6,35.3-8.6,53.4-10.8c15.8-2,31.7-3.4,47.5-5c1.9-0.2,2.5-1,2.8-2.7
	c3.4-24.4,9.4-48.3,16.1-72c1.4-4.9,0.2-5.5-4.4-5.5c-23.4,0.2-44.4-16.2-50.8-38.7c-2-7-1.7-14-1.9-20.9c-1.5-0.7-2.2,0.3-3.1,0.6
	c-12.3,5-24.8,5.6-37.4,1.5c-32.6-10.7-46.8-48-29.4-77.6c2-3.4,1.4-4.3-1.9-5.7c-8-3.2-14.9-8.3-20-15.2c-2.4-3.3-4.8-4.1-8.7-3.8
	c-19.4,1.8-34.5-7.7-41.9-25.8c-2.1-5-2.2-10.5-4.5-15.4c0-7.3,0-14.7,0-22c2.4-6.1,2.5-12.8,4.4-19c11.8-39.5,33.6-72.1,67-96.6
	c1.8-1.3,2.4-2.2,1.8-4.7c-2.1-9.2-1.9-18.5,1.4-27.4c9.9-26.7,30.7-39.4,57.5-44.4c6.1-1.1,13.2,1,18.2-1.5c5.1-2.5,8.4-9,12.2-14
	c1.6-2,5.4-4.3,4.3-5.9c-1.6-2.5-5.5-3.5-8.9-3.6c-1,0-2-0.1-3,0c-16.6,0.6-31.6,6.5-45.8,14.6c-6.1,3.5-5.9,3.4-9.2-2.6
	c-1.2-2.3-1.1-3.5,0.9-4.9c3.2-2.4,6.1-5.1,9.3-7.5c22.2-16.6,46.1-23.8,72.9-11.8c2.5,1.1,4.1-0.1,5.9-1.2
	c17-10.4,34.9-14.6,54.6-9c17.1,4.9,30.6,15.4,42.7,28c5.6,5.8,5.8,5.8,12.4,1.4c21-14.1,48.6-11.8,66.7,5.9
	c2.6,2.5,3.7,2.2,5.9-0.3c28.3-31.2,75.6-22.4,90.8,16.9c1.1,2.9,2.4,2.3,4.3,1.6c9.3-3.2,18.8-3.8,28.4-1.3
	c22.1,5.8,35.8,19.7,40.5,42.2c0.5,2.4,1.3,3.6,4.2,3.3c4.3-0.5,8.6-0.1,12.9,0.6c29.8,4.7,49.7,32.9,43.9,62.6
	c-0.7,3.5,0,4.8,3.5,5.6c12.5,2.8,22.3,9.8,30,19.9c5.5,7.2,7.8,15.7,10.4,24.1c0,5.3,0,10.7,0,16c-3,8.4-5.4,17.1-11.2,24.3
	c-3.9,4.8-8.7,8.8-13.7,12.6c35,26,28.8,78.4-12.9,94.7c15,23.9,9.9,49-2.7,64.3c-12.8,15.5-36,26.6-65.4,14.5
	c0,6.2-1.1,12.4-0.5,18.3c2.8,26.9,5.6,53.9,5.6,81c0,7.4,0.1,7.4,7.7,8c23.3,1.9,46.5,4.9,69.2,10.2c8.6,2,17.6,3.6,23.9,10.8
	c0,1,0,2,0,3c-3.5,3.4-7.6,5.6-12.2,7.1c-7.5,2.6-15.2,4.4-23,5.8c-20.5,3.9-41.2,6.2-62,8.3c-21.2,2.1-42.4,3.5-63.6,4.7
	c-18.1,1-36.2,1.4-54.3,2.1c-0.8,0-1.7-0.1-2,1c-11.7,0-23.3,0-35,0C369,712.3,363,712.4,357,714z M46.8,417.1
	c6.4,8.3,14.3,13.6,23.8,16.5c6.7,2.1,7.2,3.6,2.9,9.3c-13.6,18.1-12.5,42.7,2.7,59c15.6,16.7,39.8,19.7,59.1,7.3
	c2-1.3,4-3.5,6.7-1.4c2.5,2,1.2,4.5,0.6,6.9c-4.7,19.1,3.2,38.8,19.7,49.5c16.4,10.6,37.8,9.9,53.1-2.3c3.5-2.8,6.2-2.9,10.3-1.6
	c5.8,1.9,6.9,5.4,7.7,11c2.7,19.9,18.7,35.5,38.5,38.6c19.7,3.1,38.9-7.1,48.2-25.4c1.1-2.1,1.7-4.9,5.1-4.6c3,0.3,3.2,2.9,4.1,5
	c11.4,28.8,46.7,38.7,71.2,19.8c8.7-6.7,14.3-15.6,16.7-26.4c0.4-2,1.2-3.9,3.6-4.2s3.6,1.3,4.4,3.3c0.4,0.9,0.8,1.8,1.2,2.7
	c10.1,21.1,34.9,31.4,56.8,23.6c22.3-8,35.1-31.4,29.5-54.3c-0.6-2.4-1.8-5,0.8-6.8s4.6,0.2,6.7,1.6c19,12,43.6,8.8,58.7-7.5
	c15.2-16.4,16.3-41,2.9-59.1c-4.3-5.8-3.8-7.2,3.3-9.4c24.4-7.5,38.1-33.6,30.3-57.9c-3.7-11.4-10.8-20-21.1-26.1
	c-4.7-2.8-4.7-5.6,0-8.3c0.4-0.2,0.9-0.5,1.3-0.7c17.6-9.8,27-29.5,23.3-48.9c-3.7-19.6-19.7-34.4-39.9-37.1c-5-0.6-5.8-2.2-4.2-7.6
	c4.4-14.8,2.3-28.7-6.9-41.1c-11.4-15.3-27.1-20.8-45.7-18c-4,0.6-6.1-0.3-6.3-4.6c-0.1-1.3-0.4-2.6-0.6-3.9
	c-4.3-29.4-35.4-47.1-62.8-35.6c-6.9,2.9-7.3,2.7-9.4-4.8c-6.2-22.2-29-36.5-51.6-32.6c-13.4,2.3-23.7,9.1-31.2,20.3
	c-3.3,4.8-5,4.9-8.7,0.6c-1.7-2-3.5-4-5.5-5.8c-14.1-12.8-37.2-15.6-51.2-6.3c0.3,0.1,0.5,0.3,0.8,0.3c34.7,8,57,31.8,63,67
	c0.8,4.9-1.3,10.7,1.6,14.5c2.8,3.8,8.1,5.6,12,8.7c31.2,25.4,51.2,58.1,60.9,96.9c4.4,17.5,5.6,35.1,0.1,52.7
	c-6.1,19.5-20.5,30.5-39.5,30.4c-22.2,0-36.5-10.3-42.8-30.9c-3.2-10.6-4-21.5-4.7-32.5c-1.2-20.3-1.4-40.6-6.1-60.5
	c-1-4.3-1.5-8.8-4-12.9c-1.7,1.6-0.9,3.2-0.8,4.6c0.6,6,1.5,11.9,2.2,17.8c3,28,2.1,55.9-5.3,83.2c-9.6,35.4-29.2,63.2-63.3,78.7
	c-25.6,11.7-52.5,13.8-80,9.2c-40.5-6.8-69.7-28.8-86.6-66.3c-12.5-27.8-15.3-57.2-14.3-87.2c0.4-10.8,1.6-21.4,2.1-32.3
	c-1.8,4.4-3.5,8.9-4.2,13.5c-1.9,11.6-6.6,22.9-3.7,35.1c0.2,0.8-0.4,2.1-1,2.6c-1.6,1.4-1.6,3.2-1.7,5c-0.8,10.6-2,21.2-4.1,31.6
	C71.5,395.8,65.1,410.6,46.8,417.1z M200.8,471.2c-6.3-11.1-6.3-22.2-5.7-33.4c0.2-2.7-0.5-3.5-3.2-4.1c-13.7-3-25.9-9.2-36.3-18.7
	c-1.9-1.7-3-2.8-0.7-5.4c2.5-2.9,3.5-0.8,5,0.6c23.6,21.2,59.1,25.1,86.8,9.4c2-1.1,3.3-2.3,5,0.7c1.6,2.8,0.5,3.5-1.6,4.7
	c-13.5,7.7-28,11-43.5,10.5c-1.4,0-3.4-1.4-3.8,1.5c-1.3,10.8-0.9,21.2,4.9,30.9c1.7,2.8,3.7,4.3,7.3,3.9c6.4-0.7,12.9-0.8,19.4-1.7
	c26.1-4,48.4-14.9,65.8-35c3.7-4.2,7.4-8.4,8.8-14.2c4.3-17.2-0.8-32.1-10.7-45.9c-3.9-5.4-8.2-10.4-13.1-16.6
	c15.3,5,31.3,5.1,42,18.8c5.5-29.2,4.9-57.7,0.7-86.6c-48.3,34.3-112.9,8.8-125.3-46c-2.8,6.2-6.2,11.6-10.5,16.4
	c-20.3,22.8-56.3,31.2-87.6,20.1c-4.1-1.5-4.9-0.4-5.5,3.3c-4.2,27.1-5.9,54.3-2,81.6c3.6,25,11.5,48.4,28.1,68.1
	C144.6,457.3,170.3,468.1,200.8,471.2z M208.8,227.5c0,39.5,31.8,71.4,71.1,71.5c39.4,0.1,71.8-32.2,71.8-71.6S319.5,156,279.9,156
	C240.6,156,208.8,187.9,208.8,227.5z M132.7,278.5c14.7,0.1,29.5-4.1,41.5-11.9c30.6-19.7,33.4-56.6,6.1-80
	c-25.8-22.1-70.2-21.9-95.8,0.5c-24.8,21.7-24.1,55.3,1.8,75.8C99.9,273.7,115.6,278.3,132.7,278.5z M358.1,241
	c-2.5,12.3-6.9,23.2-14,32.7c-1,1.3-0.5,2.4-0.1,3.7c7.3,21.8,9.3,44.4,10.3,67.2c0.5,12.8,1.2,25.6,3.8,38.2
	c3.5,16.7,13.4,26.5,29.1,28.2c17.4,1.9,29.2-4.2,35.6-19c5.8-13.4,5.9-27.5,3.8-41.6c-3.4-21.9-11.5-42.1-23.1-60.9
	C391.7,270.4,377.3,253.9,358.1,241z M29.7,410.9c18.8,0,30.3-8.9,35.2-27.5c3.6-13.7,4.7-27.8,6-41.9c2.2-22.5,5.7-44.8,14.7-65.7
	c1.1-2.5,0.6-3.7-1.6-5.2c-7.4-5.3-13.6-11.8-17.9-19.8c-1.7-3.2-2.7-3.3-5.6-1.1C35,269.3,16.8,294.4,5,324.2
	c-7.2,18.1-11.2,36.8-8,56.5C0,399.2,12.6,410.9,29.7,410.9z M421.8,588.7c-9.3,20.2-25.1,32-47.3,32.9c-22.2,1-38.9-9.6-50.2-29.1
	c-11.7,17.2-27.6,25.5-47.9,25.2c-1.1,0-1.8,0.2-2.3,1.3c-4.9,11.6-9.9,23.2-14.9,35.2c62.2-1.8,124-1.8,185.9,0.7
	c-3.7-14.5-7.8-28.2-10.6-42.3C432.5,603.1,429.1,595.1,421.8,588.7z M202.3,145.7c-2.7,2.1-5.1,4.1-7.7,5.9
	c-5.7,3.9-11.8,5.9-18.8,3.6c-4.5-1.4-8.3-4.1-12.2-6.6c-1.1-0.7-2-2.5-3.7-0.6c-4.5,5-9.1,9.8-12.9,15.6
	c25.8,5.3,45.8,17.6,56.7,42.8c10.4-31.4,31.3-50.3,63-57.1c-24.6-28.5-58.4-36.4-85.9-17.9C188.3,135.9,195.7,140.1,202.3,145.7z
	 M180.9,681.5c3.5-3.3,5.5-6.5,7.4-9.7c14.6-24.7,24.6-51.5,35.2-78.1c2.9-7.4,4.9-14.4,2.4-22.3c-1.3-4.2-3.2-5.3-6.9-2.8
	c-4.4,3.1-8.9,6-14,7.3c-3.9,0.9-5.1,3.3-6,6.7c-5.5,20.3-10.7,40.7-14.6,61.3C182.1,656,179.8,668.1,180.9,681.5z M514.8,585.9
	c-5.5,8.9-11.5,15.5-19.4,19.9c-2.6,1.4-3,2.9-2.4,5.5c4,16.6,8,33.2,13.5,49.3c2.4,7,4.8,14,9.9,21.4
	C521.9,649.6,516.9,618.6,514.8,585.9z M233.7,681.4c1-1.1,1.7-1.8,2.3-2.6c13.4-18.6,21.4-39.8,30.3-60.6c0.7-1.6,0.2-1.9-1.2-2.3
	c-7.2-1.7-13.5-5.3-19.5-9.5C241,620.4,230.4,670.8,233.7,681.4z M440.4,606.4c6.4,25.9,11.3,51.3,23.9,75.8
	c1.7-5.8,2.5-10.3,2.6-14.8c0.7-16.8,0.1-33.6-1-50.4c-0.1-2.1-0.5-3.4-2.9-3.5C455.3,612.9,448.2,610.4,440.4,606.4z M205,656.9
	c6.9-1.2,13.2-0.8,19.5-1.1c2.3-0.1,3.2-1,3.5-3.2c1.9-14.1,4.9-28,8.6-41.7c2-7.2,2.4-13.3-3.4-18.6c-0.2-0.2-0.5-0.4-0.9-0.7
	C223.9,613.5,215.3,635.2,205,656.9z M497.5,658c-3.5-13.2-6.8-25.8-10-38.4c-0.7-2.7-0.4-6.4-2.1-7.9c-2.2-1.9-5.5,1.2-8.3,1.1
	c-4-0.2-4.1,1.7-3.9,4.9c0.8,11.8,1.3,23.6,1.7,35.4c0.1,2.4,0.8,3.1,3,3.4C484.3,657.3,490.8,656.5,497.5,658z M305.9,372.6
	c6.4,9.7,10.8,19.9,12.2,31.9C325.6,385.4,321.5,374.8,305.9,372.6z"/>
<path style="fill:#030303;" d="M285,79c5.3,1.9,11.1,2.1,16.3,4.4c15.7,6.8,26.7,18.8,35.9,32.7c1.6,2.5,3,5.1,4.7,7.6
	c1.9,2.8,1.7,4.4-0.9,7.2c-3.9,4.2-5.7,2.3-8.3-0.9c-8.8-10.8-19.3-19.5-31.4-26.5c-8.5-4.9-16.9-5.8-26.2-2.9
	c-5.3,1.6-10.7,3.2-16.4,3.5c-8.7,0.5-14.4-3.8-19.1-10.4c-1.6-2.3-3.1-4.7-4.9-7.4c9-3.3,18.3-5.1,27.7-6.4c0.9-0.1,2.1,0.3,2.5-1
	C271.7,79,278.3,79,285,79z"/>
<path style="fill:#FBFBFB;" d="M410,714c0.3-1.1,1.2-0.9,2-1c18.1-0.7,36.2-1.1,54.3-2.1c21.2-1.2,42.4-2.6,63.6-4.7
	c20.8-2,41.5-4.3,62-8.3c7.8-1.5,15.5-3.2,23-5.8c4.6-1.6,8.7-3.8,12.2-7.1c0,8.5-0.2,17,0.1,25.5c0.1,3-0.6,3.6-3.6,3.6
	C552.3,714,481.2,714,410,714z"/>
<path style="fill:#0A0A0A;" d="M357,714c6-1.6,12-1.7,18,0C369,714,363,714,357,714z"/>
<path style="fill:#0A0A0A;" d="M312,714c5.7-1.6,11.3-1.6,17,0C323.3,714,317.7,714,312,714z"/>
<path style="fill:#0A0A0A;" d="M275.7,381.7c-9.5-10.1-11.5-22.1-6-29.4c5.2-6.8,15.8-8,26.2-2.3c-8.7-0.7-15.1,2-18.9,9.1
	C273.4,365.9,273.2,373.1,275.7,381.7z"/>
<path style="fill:#030303;" d="M243.9,256.3c-11.3,0-20.7-9.2-20.8-20.4c-0.1-11.1,9.5-20.7,20.6-20.8s20.5,9.3,20.6,20.6
	C264.3,247.2,255.3,256.3,243.9,256.3z"/>
<path style="fill:#030303;" d="M158.1,216.9c11.3,0.1,20.6,9.4,20.5,20.6c-0.1,11.2-9.6,20.6-20.8,20.5s-20.7-9.7-20.5-20.8
	C137.4,226,146.8,216.8,158.1,216.9z"/>
</svg>
