<?xml version="1.0" encoding="utf-8"?>
<!-- Generator: Adobe Illustrator 22.1.0, SVG Export Plug-In . SVG Version: 6.00 Build 0)  -->
<svg version="1.1" id="Layer_1" xmlns="http://www.w3.org/2000/svg" xmlns:xlink="http://www.w3.org/1999/xlink" x="0px" y="0px"
	 viewBox="0 0 512 512" style="enable-background:new 0 0 512 512;" xml:space="preserve">
<path style="fill:none;stroke:#000000;stroke-width:3;stroke-miterlimit:10;" d="M1.5,452.1c0-6.1,0-12.1,0-18.2
	c1.3-0.6,1.1-2,1.4-3.1c2.1-9.6,6.5-18.1,13-25.4c8.3-9.4,18.8-15.1,30.9-18.2c4.3-0.1,8.7-0.2,13-0.2c114.1,0,228.1,0,342.2,0
	c4.3,0,8.7,0.1,13,0.2c1,0.3,2,0.6,3,0.9c25.7,7,42.9,29.8,42.3,56.2c-0.6,26.2-18.9,48.3-45,54.1c-1.2,0.3-2.7-0.1-3.6,1.3
	c-120.6,0-241.3,0-361.9,0c-0.8-1.3-2.3-1.1-3.5-1.4c-22.9-6-37.4-20.3-43.4-43.2C2.7,454,2.9,452.6,1.5,452.1z M82.3,438.5
	c-10.1,0-20.3,0-30.4,0c-3.2,0-5.8,0.8-5.7,4.4c0.1,3.5,2.7,4.3,5.9,4.3c20,0,40.1,0,60.1,0c3.1,0,5.8-0.8,5.7-4.4
	c0-3.6-2.8-4.3-5.9-4.2C102.1,438.6,92.2,438.5,82.3,438.5z M223.2,438.5c-10,0-20,0-30,0c-3.1,0-5.8,0.6-5.9,4.2
	c-0.1,3.5,2.5,4.5,5.7,4.5c20.1,0,40.3,0,60.4,0c3,0,5.4-0.9,5.5-4.2c0.1-3.7-2.5-4.4-5.7-4.4C243.2,438.6,233.2,438.5,223.2,438.5z
	 M364.2,438.5c-10.1,0-20.3,0-30.4,0c-3.1,0-5.8,0.7-5.8,4.3c0,3.5,2.7,4.4,5.8,4.4c20,0,40.1,0,60.1,0c3.1,0,5.8-0.8,5.8-4.3
	c0-3.6-2.7-4.3-5.8-4.3C384,438.6,374.1,438.5,364.2,438.5z"/>
<path style="fill:none;stroke:#000000;stroke-width:3;stroke-miterlimit:10;" d="M508.4,199.4c-1.4,0.7-1.2,2.2-1.6,3.4
	c-4.7,15.7-18.8,26.5-35.2,26.9c-7.1,0.2-14.2,0.1-21.3,0c-2.7,0-5.2,0.2-7.6,1.6c-0.8-2.2-2.7-1.7-4.4-1.7c-8.8,0-17.7,0-26.5,0
	c-17.9,0-33.8-14.6-35.8-32.3c-1.3-10.9-0.4-21.9-0.7-32.8c-0.1-4,0.6-7.9,1.4-11.7c1.7-8.7,7-15.2,12.9-21.4c3-1.6,5.9-3.4,9.1-4.7
	c5.8-2.4,11.9-3.2,18.1-3.2c20.8,0.2,41.6-0.8,62.3,0.7c1.3,0.5,2.6,1.1,4,1.6c12.2,4.6,20.2,13.1,24,25.7c0.4,1.5,0.1,3.2,1.3,4.4
	C508.4,170.4,508.4,184.9,508.4,199.4z"/>
<path style="fill:none;stroke:#000000;stroke-width:3;stroke-miterlimit:10;" d="M479.1,124.2c-20.8-1.5-41.5-0.6-62.3-0.7
	c-6.2-0.1-12.4,0.8-18.1,3.2c-3.1,1.3-6.1,3.1-9.1,4.7c-2.6,0-5.3,0-7.9,0c-12.6-0.2-23.9,3.2-33.4,11.9c0.1-4.9-0.5-9.8,0.5-14.6
	c3.2-15.4,12.3-25.5,27.4-30c1-0.3,2.5,0,3.1-1.3c23.5,0,47,0,70.5,0c0.9,1.4,2.6,1.1,3.8,1.5C466.4,102.9,475.2,111,479.1,124.2z"
	/>
<path style="fill:none;stroke:#000000;stroke-width:3;stroke-miterlimit:10;" d="M1.5,452.1c1.4,0.6,1.1,2,1.4,3
	c5.9,22.9,20.4,37.2,43.4,43.1c1.2,0.3,2.7,0,3.5,1.4c-15.2,0-30.5-0.1-45.7,0.1c-2.2,0-2.6-0.4-2.6-2.6C1.6,482,1.5,467,1.5,452.1z
	"/>
<path style="fill:none;stroke:#000000;stroke-width:3;stroke-miterlimit:10;" d="M420.4,370.4c1.6,3,3.9,5.6,2.9,9.7
	c-1.2,4.6-3.9,6.6-8.3,7c-4.3-0.1-8.7-0.2-13-0.2c-114.1,0-228.1,0-342.2,0c-4.3,0-8.7,0.2-13,0.2c-3.9-1.6-8-0.4-12-0.7
	c-3-0.3-6.5,1-8.2-2.9c-1.8-4-1.7-7.9,1.2-11.5c0.4-0.5,0.8-1,1.2-1.6C159.3,370.4,289.8,370.4,420.4,370.4z"/>
<path style="fill:none;stroke:#000000;stroke-width:3;stroke-miterlimit:10;" d="M82.3,438.5c9.9,0,19.8,0,29.6,0
	c3.1,0,5.8,0.6,5.9,4.2c0,3.6-2.6,4.4-5.7,4.4c-20,0-40.1,0-60.1,0c-3.1,0-5.8-0.8-5.9-4.3c-0.1-3.5,2.6-4.4,5.7-4.4
	C62,438.6,72.2,438.5,82.3,438.5z"/>
<path style="fill:none;stroke:#000000;stroke-width:3;stroke-miterlimit:10;" d="M223.2,438.5c10,0,20,0,30,0c3.1,0,5.7,0.7,5.7,4.4
	c-0.1,3.4-2.5,4.2-5.5,4.2c-20.2,0-40.3,0-60.4,0c-3.2,0-5.8-1-5.7-4.5c0.1-3.6,2.8-4.2,5.9-4.2
	C203.2,438.6,213.2,438.5,223.2,438.5z"/>
<path style="fill:none;stroke:#000000;stroke-width:3;stroke-miterlimit:10;" d="M364.2,438.5c9.9,0,19.8,0,29.6,0
	c3.1,0,5.8,0.8,5.8,4.3s-2.7,4.3-5.8,4.3c-20,0-40.1,0-60.1,0c-3.1,0-5.8-0.8-5.8-4.4s2.7-4.3,5.8-4.3
	C344,438.6,354.1,438.5,364.2,438.5z"/>
<path style="fill:none;stroke:#000000;stroke-width:3;stroke-miterlimit:10;" d="M420.4,370.4c-130.5,0-261,0-391.5,0
	c-4.8-1.3-9.6-2.8-13.1-6.7c-5.4-6.1-6.7-13-3.9-20.5c2.8-7.4,8.5-11.4,16.3-12.4c1.2-0.1,2.4,0,3.4-0.7c0.3-0.1,0.6-0.1,0.8-0.2
	c2.2,0.1,4.5,0.3,6.7,0.3c118.1,0,236.2,0,354.3,0c8.4,0,16.9,0,25.3,0.1c0,4.2,0,8.4,0.1,12.6c0.1,4.4,2.8,7.4,6.6,7.4
	c3.7,0,6.1-2.8,6.2-7.2c0.1-4.2,0-8.4,0-12.6c3.6-0.1,7.3-0.2,10.9-0.2c3.6,1.3,7.2,2.2,10.3,4.7c6.4,5.3,9,13.8,6.3,21.7
	c-2.7,7.8-9.6,12.8-18,13.1C434.3,370,427.3,369.1,420.4,370.4z"/>
<path style="fill:none;stroke:#000000;stroke-width:3;stroke-miterlimit:10;" d="M32.5,330c-0.3,0.1-0.6,0.1-0.8,0.2
	c-9.6-5.2-10.8-12.3-3.5-20.4c3-1.6,6.2-1.9,9.5-1.9c23.7,0,47.3-0.1,71-0.1c15.8,0,31.5,0,47.3,0c1.1,0,2.3,0,3.4,0h0.3l0.3-0.1
	c30.9,0,61.7,0,92.6,0.1c1.1,0,2.2,0,3.2,0c16,0,32.1,0,48.1,0c22,0,44.1,0.1,66.1,0.1c15.3,0,30.6-0.1,45.9-0.1c1,0,2,0.1,3,0.1
	c0,7.1,0,14.3,0,21.4c-126.9,0-253.7,0-380.6,0C36.4,329.3,34.3,328.9,32.5,330z"/>
<path style="fill:none;stroke:#000000;stroke-width:3;stroke-miterlimit:10;" d="M90.4,288.9c0-39.6-0.1-79.2,0-118.8
	c0-8.7,5.3-13.6,14.4-13.6c67.2,0,134.4,0,201.5,0c2.1,0,4.2-0.1,6.3-0.1c8.4,0.1,16.7,0.2,25.1,0.2c-1.9,4.2-3.6,8.4-4.1,13
	c-0.5,5.2-0.6,10.4-0.8,15.6c-4.7,0-9.5-0.1-14.2,0c-6.7,0.1-9.8,3.3-9.8,10.1c0,20.3,0,40.6,0,60.9c0,7.5,3,10.5,10.6,10.5
	c14.6,0,29.3,0,43.9,0c2.9,0,5.5-0.5,8-1.9c-3.5,4.2-4.5,9-4.1,14.3c0.2,3.3,0,6.6,0,9.8c-21,0-42,0-63.1,0c0-23.9,0-47.8,0-71.7
	c0-2.1,0.2-4.2-0.9-6.2c0.9-2.2,1.8-4.3,1.7-6.8c-0.3-10.9-0.5-21.8-0.9-32.7c-0.1-2.2-0.5-4.5-3.5-4.8c-5.6-1.7-11.3-0.6-17-0.6
	c-0.2,0-0.5-0.1-0.7-0.1c-7.1,0-14.2-0.5-21.3,0.3c-7.4-0.8-14.9-0.4-22.3-0.3c-7.1,0-14.3,0-21.4,0c-7.4,0-14.8,0-22.3,0
	c-7.1,0-14.3,0-21.4,0c-0.3,0-0.5,0-0.8,0.1c-7.2,0-14.4,0-21.5-0.1c-7.1,0-14.2,0-21.3,0c-0.2,0-0.5,0-0.7,0c-4.7,0-9.5,0-14.2,0
	c-3.6,0-4.7,2.2-4.9,5.3c-0.4,6.8-1.2,13.6-1.3,20.4c-0.1,5.9-1.9,11.7-0.2,17.6c-1,2-0.8,4.1-0.8,6.2c0,24.4,0,48.8,0,73.2
	C102.4,289,96.4,289,90.4,288.9z"/>
<path style="fill:none;stroke:#000000;stroke-width:3;stroke-miterlimit:10;" d="M332.9,185.2c0.3-5.2,0.3-10.4,0.8-15.6
	c0.5-4.6,2.2-8.8,4.1-13c0.7-1.2,1.3-2.5,2-3.7c2.7-3.4,5.1-7,8.5-9.7c9.5-8.6,20.8-12,33.4-11.9c2.6,0,5.3,0,7.9,0
	c-5.8,6.2-11.2,12.7-12.9,21.4c-0.8,3.9-1.5,7.8-1.4,11.7c0.3,10.9-0.6,21.9,0.7,32.8c2,17.7,17.9,32.3,35.8,32.3
	c8.8,0,17.7,0,26.5,0c1.6,0,3.6-0.5,4.4,1.7c-3.3,2.6-7.5,3.3-11.2,5.1c-4.2,0.4-8.4,0.8-12.6,1.2c-11.7,0-23.4,0-35.1,0
	c-3.2,0-6.3-0.1-9.5-0.1c-9.7-1.3-18.3-5-25.8-11.2c-8.7-8.2-14-18.1-15.3-30.1C333,192.6,332.9,188.9,332.9,185.2z"/>
<path style="fill:none;stroke:#000000;stroke-width:3;stroke-miterlimit:10;" d="M90.4,288.9c6,0,12,0.1,18,0.1
	c0.1,6.3,0.2,12.5,0.3,18.8c-23.7,0-47.3,0.1-71,0.1c-3.4,0-6.5,0.3-9.5,1.9c-1.8-9.1,4.8-18.3,14.1-20.1c3.4-0.6,6.8-0.6,10.2-0.6
	C65.1,289.1,77.8,289,90.4,288.9z"/>
<path style="fill:none;stroke:#000000;stroke-width:3;stroke-miterlimit:10;" d="M339.7,152.9c-0.7,1.2-1.3,2.5-2,3.7
	c-8.4-0.1-16.7-0.2-25.1-0.2c1.2-4.5,4.2-6.8,8.8-7c3.4-0.1,6.8,0,10.2-0.1C335,149.3,337.5,150.8,339.7,152.9z"/>
<path style="fill:none;stroke:#000000;stroke-width:3;stroke-miterlimit:10;" d="M418.9,237.6c4.2-0.4,8.4-0.8,12.6-1.2
	c0.1,13.9,0.2,27.9,0.2,41.8c0,9.9,0,19.7,0.1,29.6c0,7.6,0,15.1,0,22.7c0,4.2,0.1,8.4,0,12.6c-0.1,4.4-2.5,7.2-6.2,7.2
	c-3.8,0.1-6.5-2.9-6.6-7.4c-0.1-4.2-0.1-8.4-0.1-12.6c0-0.3,0-0.7,0-1c0-7.1,0-14.3,0-21.4C418.8,284.5,418.8,261,418.9,237.6z"/>
<path style="fill:none;stroke:#000000;stroke-width:3;stroke-miterlimit:10;" d="M431.7,330.5c0-7.6,0-15.1,0-22.7
	c2.1,0,4.2,0.1,6.3,0.1c7.2,0.1,11.8,3.2,13,9c1.3,5.7-1.7,10.4-8.5,13.3C439,330.3,435.4,330.4,431.7,330.5z"/>
<path style="fill:none;stroke:#000000;stroke-width:3;stroke-miterlimit:10;" d="M418.9,329.3c0,0.3,0,0.7,0,1
	c-8.4,0-16.9-0.1-25.3-0.1c-118.1,0-236.2,0-354.3,0c-2.2,0-4.5-0.2-6.7-0.3c1.8-1.1,3.9-0.6,5.8-0.6
	C165.2,329.3,292,329.3,418.9,329.3z"/>
<path style="fill:none;stroke:#000000;stroke-width:3;stroke-miterlimit:10;" d="M303.2,211.1c1,2,0.9,4.1,0.9,6.2
	c0,23.9,0,47.8,0,71.7c-0.1,6.3-0.2,12.5-0.2,18.8c-16,0-32.1,0-48.1,0c0-3.3,0-6.6,0-9.9c0-28-0.1-55.9-0.1-83.9
	c3.5-1.8,5.1-4.9,5.7-8.6c2.2,7.3,5.5,9.9,11.9,9.4c6-0.4,8.8-3.3,9.9-10.1c0.1,0.1,0.3,0.2,0.4,0.2c0.8,6,3.1,8.7,8.1,9.7
	C296.1,215.5,300,214.4,303.2,211.1z M262.4,249.3c0,5.8,0.1,11.6,0,17.4c0,2.2,0.6,3,2.9,3c9.2-0.1,18.5-0.1,27.7,0
	c2.1,0,3.1-0.5,3.1-2.8c-0.1-11.9-0.1-23.7,0-35.6c0-2.1-0.7-2.8-2.7-2.8c-9.4,0.1-18.7,0.1-28.1,0c-2.2,0-3,0.8-2.9,3
	C262.4,237.4,262.4,243.4,262.4,249.3z"/>
<path style="fill:none;stroke:#000000;stroke-width:3;stroke-miterlimit:10;" d="M108.7,307.8c-0.1-6.3-0.2-12.5-0.3-18.8
	c0-24.4,0-48.8,0-73.2c0-2.1-0.2-4.2,0.8-6.2c3.7,4.8,8.3,6.4,13.7,4.8c4.6-1.4,6.6-4.8,6.8-9.4c0.2-0.1,0.3-0.2,0.5-0.3
	c0.9,7.5,5.3,11,12.4,10.1c5.3-0.6,7.9-3.9,9.2-8.7c1,3.5,2.6,6.4,6,8.1c-2.5,1.4-2,3.8-2,6c0,29.2,0,58.4,0,87.6
	C140.2,307.8,124.4,307.8,108.7,307.8z M114.2,249c0,5.8,0.1,11.6,0,17.4c0,2.2,0.4,3.4,3,3.4c9.3-0.1,18.7-0.1,28,0
	c2.1,0,2.7-0.8,2.7-2.8c-0.1-11.8-0.1-23.7,0-35.5c0-2.1-0.8-2.8-2.8-2.8c-9.3,0.1-18.7,0.1-28,0c-2.3,0-3,0.8-2.9,3
	C114.3,237.4,114.2,243.2,114.2,249z"/>
<path style="fill:none;stroke:#000000;stroke-width:3;stroke-miterlimit:10;" d="M303.8,307.8c0.1-6.3,0.2-12.5,0.2-18.8
	c21,0,42,0,63.1,0c2.2,7.7,6.7,11.5,13.9,11.7c11.7,0.3,16.1-2.2,19.1-11.1c9.5,1.8,14.7,7.8,15.7,18.2c-15.3,0.1-30.6,0.1-45.9,0.1
	C347.9,307.9,325.9,307.8,303.8,307.8z"/>
<path style="fill:none;stroke:#000000;stroke-width:3;stroke-miterlimit:10;" d="M415.8,307.8c-1-10.4-6.2-16.4-15.7-18.2
	c0-5.1,0.2-10.2-0.1-15.3c-0.3-6.8-5.3-11.7-12-12.4c-1.4-0.2-2.9-0.3-4.3-0.4c0-7.9,0-15.8,0-23.7c11.7,0,23.4,0,35.1,0
	c0,23.4,0,46.8,0,70.3C417.8,307.8,416.8,307.8,415.8,307.8z"/>
<path style="fill:none;stroke:#000000;stroke-width:3;stroke-miterlimit:10;" d="M371.2,264.9c0.5-0.5,0.9-1,1.4-1.4
	c3.6-1.3,7.3-1.9,11.1-2.1c1.4,0.1,2.9,0.2,4.3,0.4c6.7,0.7,11.7,5.7,12,12.4c0.3,5.1,0.1,10.2,0.1,15.3c-3,9-7.3,11.5-19.1,11.1
	c-7.2-0.2-11.7-4-13.9-11.7c0-3.3,0.2-6.6,0-9.8C366.8,273.9,367.7,269.1,371.2,264.9z"/>
<path style="fill:none;stroke:#000000;stroke-width:3;stroke-miterlimit:10;" d="M255.6,214.1c-3.9,0.9-7.8,1-11.6-0.6
	c-3-2.2-3.9-5.6-4.7-9c0-12.7-0.1-25.5-0.1-38.2c7.5-0.1,14.9-0.6,22.3,0.3c-0.1,13-0.1,26-0.2,38.9
	C260.7,209.1,259.1,212.2,255.6,214.1z"/>
<path style="fill:none;stroke:#000000;stroke-width:3;stroke-miterlimit:10;" d="M212.9,213.6c-4.2,1.5-8.4,1.5-12.6,0
	c-2.9-2.2-4-5.3-4.7-8.7c0-12.9-0.1-25.8-0.1-38.7c7.4,0,14.8,0,22.3,0c0,12.9-0.1,25.9-0.1,38.8C217,208.3,215.8,211.4,212.9,213.6
	z"/>
<path style="fill:none;stroke:#000000;stroke-width:3;stroke-miterlimit:10;" d="M152,206.1c-1.3,4.8-3.9,8.1-9.2,8.7
	c-7.1,0.8-11.5-2.6-12.4-10.1c0-0.4,0-0.9,0-1.3c0-12.1,0-24.3,0-36.4c0.1-0.3,0.2-0.5,0.3-0.8c7.1,0,14.2,0,21.3,0
	c0.1,12.7,0.1,25.3,0.2,38C152,204.8,152,205.4,152,206.1z"/>
<path style="fill:none;stroke:#000000;stroke-width:3;stroke-miterlimit:10;" d="M217.7,204.9c0-12.9,0.1-25.9,0.1-38.8
	c7.1,0,14.3,0,21.4,0c0,12.7,0.1,25.5,0.1,38.2c-0.1,4.6-2.1,7.9-6.1,10c-3,0.6-6,0.7-9,0C220.1,212.5,218.1,209.3,217.7,204.9z"/>
<path style="fill:none;stroke:#000000;stroke-width:3;stroke-miterlimit:10;" d="M195.5,166.1c0,12.9,0.1,25.8,0.1,38.7
	c-0.4,4.4-2.4,7.7-6.5,9.6c-2.9,0.6-5.8,0.5-8.7,0c-4.2-1.9-6.2-5.2-6.5-9.7c0.1-0.2,0-0.5,0-0.7c0-12.1,0-24.2,0-36.3
	c0.1-0.5,0.1-1,0.2-1.6C181.3,166.2,188.4,166.2,195.5,166.1z"/>
<path style="fill:none;stroke:#000000;stroke-width:3;stroke-miterlimit:10;" d="M261.3,205.4c0.1-13,0.1-26,0.2-38.9
	c7.1-0.8,14.2-0.3,21.3-0.3c0.1,0.3,0.2,0.5,0.3,0.8c0,12.4,0,24.8,0,37.2c-0.2,0.2-0.2,0.4-0.1,0.6c-1.2,6.9-3.9,9.7-9.9,10.1
	C266.9,215.3,263.6,212.7,261.3,205.4z"/>
<path style="fill:none;stroke:#000000;stroke-width:3;stroke-miterlimit:10;" d="M303.2,211.1c-3.2,3.3-7.1,4.3-11.6,3.5
	c-5-1-7.3-3.7-8.1-9.7c0-0.3,0.1-0.5,0.1-0.8c0.8-1.3,0.6-2.8,0.6-4.2c0-9.6,0.1-19.2,0-28.8c0-3,0.9-4.3,4.1-4.2
	c4.1,0.2,8.2,0,12.2,0c3,0.2,3.4,2.6,3.5,4.8c0.4,10.9,0.6,21.8,0.9,32.7C305,206.8,304.1,209,303.2,211.1z"/>
<path style="fill:none;stroke:#000000;stroke-width:3;stroke-miterlimit:10;" d="M300.5,166.9c-4.1,0-8.2,0.2-12.2,0
	c-3.1-0.1-4.1,1.2-4.1,4.2c0.1,9.6,0.1,19.2,0,28.8c0,1.4,0.2,2.9-0.6,4.2c-0.1-0.1-0.3-0.1-0.4,0c0-12.4,0-24.8,0-37.2
	c0.1-0.2,0.2-0.5,0.3-0.7C289.2,166.3,294.9,165.2,300.5,166.9z"/>
<path style="fill:none;stroke:#000000;stroke-width:3;stroke-miterlimit:10;" d="M174,167.7c-0.2-0.5-0.4-1-0.6-1.5
	c0.2-0.1,0.5-0.1,0.8-0.1C174.1,166.7,174,167.2,174,167.7z"/>
<path style="fill:none;stroke:#000000;stroke-width:3;stroke-miterlimit:10;" d="M283.5,166.3c-0.1,0.2-0.2,0.5-0.3,0.7
	c-0.1-0.3-0.2-0.5-0.3-0.8C283,166.2,283.3,166.2,283.5,166.3z"/>
<path style="fill:none;stroke:#000000;stroke-width:3;stroke-miterlimit:10;" d="M130.3,167c-0.2-0.3-0.3-0.5-0.5-0.8
	c0.2-0.1,0.5-0.1,0.7,0C130.4,166.5,130.4,166.7,130.3,167z"/>
<path style="fill:none;stroke:#000000;stroke-width:3;stroke-miterlimit:10;" d="M383.7,261.4c-3.8,0.2-7.5,0.8-11.1,2.1
	c1.7-2.8,1.7-5.9,1.7-9.1c-0.1-5.6,0-11.2,0-16.8c3.2,0,6.3,0.1,9.5,0.1C383.7,245.6,383.7,253.5,383.7,261.4z"/>
<path style="fill:none;stroke:#000000;stroke-width:3;stroke-miterlimit:10;" d="M208.3,217.8c0,27.8,0,55.7,0,83.5
	c-0.1,1.7-0.2,3.3-0.4,5c-0.4,0-0.9,0-1.3,0c0-29.5,0-59,0-88.5C207.2,217.8,207.7,217.8,208.3,217.8z"/>
<path style="fill:none;stroke:#000000;stroke-width:3;stroke-miterlimit:10;" d="M283.2,204.1c0.2-0.1,0.3-0.1,0.4,0
	c0,0.3-0.1,0.5-0.1,0.8c-0.1,0-0.3-0.1-0.4-0.2C283,204.5,283,204.3,283.2,204.1z"/>
<path style="fill:none;stroke:#000000;stroke-width:3;stroke-miterlimit:10;" d="M152,204.2c1-1.4,0.7-3,0.7-4.6
	c0-9.5,0.1-19,0-28.5c0-3.1,1-4.3,4.1-4.2c3.9,0.2,7.9,0.2,11.9,0c2.9-0.1,3.9,1.1,3.9,4c-0.1,9.5,0,19,0,28.5
	c0,1.7-0.3,3.5,1.3,4.7c0.1,0.2,0.1,0.4,0,0.7c-0.2,0.3-0.4,0.7-0.7,1c-0.1,0.1-0.2,0.2-0.2,0.2c0,0.2,0.1,0.3,0.1,0.5
	c0,3.1-2,5-4,7c-3.7,1.6-7.5,1.4-11.3,0.7c-3.4-1.7-5-4.7-6-8.1C152,205.4,152,204.8,152,204.2z"/>
<path style="fill:none;stroke:#000000;stroke-width:3;stroke-miterlimit:10;" d="M114.2,249c0-5.8,0.1-11.6,0-17.4
	c0-2.2,0.7-3,2.9-3c9.3,0.1,18.7,0.1,28,0c2,0,2.8,0.7,2.8,2.8c-0.1,11.8-0.1,23.7,0,35.5c0,2-0.6,2.8-2.7,2.8
	c-9.3-0.1-18.7-0.1-28,0c-2.6,0-3-1.1-3-3.4C114.3,260.6,114.2,254.8,114.2,249z"/>
<path style="fill:none;stroke:#000000;stroke-width:3;stroke-miterlimit:10;" d="M129.7,203.4c0.2-0.1,0.4-0.1,0.6,0
	c0,0.4,0,0.9,0,1.3c-0.2,0.1-0.3,0.2-0.5,0.3C129.8,204.4,129.7,203.9,129.7,203.4z"/>
<path style="fill:none;stroke:#000000;stroke-width:3;stroke-miterlimit:10;" d="M217.7,204.9c0.4,4.3,2.4,7.6,6.5,9.5
	c-3.7-0.3-7.6,1-11.2-0.8C215.8,211.4,217,208.3,217.7,204.9z"/>
<path style="fill:none;stroke:#000000;stroke-width:3;stroke-miterlimit:10;" d="M169.3,213.5c2-1.9,3.9-3.9,4-7
	c0.1-0.2,0.1-0.5,0-0.7c0.2-0.3,0.4-0.7,0.7-1c0.3,4.5,2.3,7.8,6.5,9.7C176.8,214.2,172.9,215.3,169.3,213.5z"/>
<path style="fill:none;stroke:#000000;stroke-width:3;stroke-miterlimit:10;" d="M189.1,214.4c4.1-1.9,6.1-5.2,6.5-9.6
	c0.7,3.4,1.8,6.5,4.7,8.7C196.7,215.4,192.9,214.1,189.1,214.4z"/>
<path style="fill:none;stroke:#000000;stroke-width:3;stroke-miterlimit:10;" d="M233.2,214.4c4.1-2.1,6.1-5.4,6.1-10
	c0.8,3.4,1.6,6.8,4.7,9C240.5,215.5,236.8,214.1,233.2,214.4z"/>
<path style="fill:none;stroke:#000000;stroke-width:3;stroke-miterlimit:10;" d="M173.3,205.8c0.1,0.3,0.1,0.5,0,0.7
	c0-0.2-0.1-0.3-0.1-0.5C173.2,205.9,173.3,205.9,173.3,205.8z"/>
</svg>
