<?xml version="1.0" encoding="utf-8"?>
<!-- Generator: Adobe Illustrator 17.0.0, SVG Export Plug-In . SVG Version: 6.00 Build 0)  -->
<!DOCTYPE svg PUBLIC "-//W3C//DTD SVG 1.1//EN" "http://www.w3.org/Graphics/SVG/1.1/DTD/svg11.dtd" [
	<!ENTITY ns_flows "http://ns.adobe.com/Flows/1.0/">
	<!ENTITY ns_extend "http://ns.adobe.com/Extensibility/1.0/">
	<!ENTITY ns_ai "http://ns.adobe.com/AdobeIllustrator/10.0/">
	<!ENTITY ns_graphs "http://ns.adobe.com/Graphs/1.0/">
]>
<svg version="1.1" id="Layer_1" xmlns:x="&ns_extend;" xmlns:i="&ns_ai;" xmlns:graph="&ns_graphs;"
	 xmlns="http://www.w3.org/2000/svg" xmlns:xlink="http://www.w3.org/1999/xlink" xmlns:a="http://ns.adobe.com/AdobeSVGViewerExtensions/3.0/"
	 x="0px" y="0px" width="612px" height="792px" viewBox="0 0 612 792" style="enable-background:new 0 0 612 792;"
	 xml:space="preserve">
<g transform="translate(249.33 654.37)">
	<g transform="translate(937.5 -14.764)">
		<path style="fill:none;stroke:#000000;stroke-miterlimit:10;" d="M-901-528.4c-6,0-10.5,6.6-8.8,12.2c0.1,2.3,0.7,5.1-1.3,6.8
			c-1,1.3-1.9,2.6-2.5,4.1c-3.9,0.2-6.8,4.3-6.3,8.1c-0.1,1.7,0.6,3.3,1.1,4.8c-2.2,5.7-0.7,11.8-1.1,17.8
			c0.1,10.5-0.4,20.9,0.4,31.4c1.6,7.2,9.1,12.2,16.3,11.1c5.6,0,12,0.8,16.6-3.1c4.4-3.5,6.1-9.4,5.4-14.8
			c-0.1-13.4,0.4-26.8-0.4-40c-0.4-1.2-1.3-2.5-0.2-3.7c1.6-4.1,0.2-9.9-4.4-11.1c-1,0-1.6-0.5-1.8-1.4c-1.4-2.4-4.2-4.4-3.5-7.5
			c0.4-3.6,1-7.8-1.7-10.8C-895.3-527-898.1-528.6-901-528.4L-901-528.4z"/>
		<g transform="matrix(.25976 0 0 .25976 -248.74 -522.93)">
			<path style="fill:none;stroke:#000000;stroke-miterlimit:10;" d="M-2528.8,94.4h37.3c24.5,0,44.3,19.8,44.3,44.3v155.2
				c0,24.5-19.8,44.3-44.3,44.3h-37.3c-24.5,0-44.3-19.8-44.3-44.3V138.7C-2573.3,114.2-2553.3,94.4-2528.8,94.4z"/>
			<path style="fill:none;stroke:#000000;stroke-miterlimit:10;" d="M-2510.2-9.7c-13.7,0-24.9,11.8-24.9,26.3
				c0,2.9,0.5,5.6,1.3,8.4v23.3l-15.5,22h-0.1V79h78.4v-8.7h-0.1l-15.5-22V24.9c0.8-2.7,1.3-5.5,1.3-8.4
				C-2485.3,2.1-2496.4-9.7-2510.2-9.7L-2510.2-9.7z"/>
			<path style="fill:none;stroke:#000000;stroke-miterlimit:10;" d="M-2531,164.2h41.5c1.6,0,2.7,1.2,2.7,2.7l0,0
				c0,1.6-1.2,2.7-2.7,2.7h-41.5c-1.6,0-2.7-1.2-2.7-2.7l0,0C-2533.7,165.4-2532.4,164.2-2531,164.2z"/>
			<path style="fill:none;stroke:#000000;stroke-miterlimit:10;" d="M-2531,180.1h41.5c1.6,0,2.7,1.2,2.7,2.7l0,0
				c0,1.6-1.2,2.7-2.7,2.7h-41.5c-1.6,0-2.7-1.2-2.7-2.7l0,0C-2533.7,181.3-2532.4,180.1-2531,180.1z"/>
			<path style="fill:none;stroke:#000000;stroke-miterlimit:10;" d="M-2531,196h41.5c1.6,0,2.7,1.2,2.7,2.7l0,0
				c0,1.6-1.2,2.7-2.7,2.7h-41.5c-1.6,0-2.7-1.2-2.7-2.7l0,0C-2533.7,197.2-2532.4,196-2531,196z"/>
			<path style="fill:none;stroke:#000000;stroke-miterlimit:10;" d="M-2531,211.8h41.5c1.6,0,2.7,1.2,2.7,2.7l0,0
				c0,1.6-1.2,2.7-2.7,2.7h-41.5c-1.6,0-2.7-1.2-2.7-2.7l0,0C-2533.7,213.1-2532.4,211.8-2531,211.8z"/>
			<path style="fill:none;stroke:#000000;stroke-miterlimit:10;" d="M-2531,227.7h41.5c1.6,0,2.7,1.2,2.7,2.7l0,0
				c0,1.6-1.2,2.7-2.7,2.7h-41.5c-1.6,0-2.7-1.2-2.7-2.7l0,0C-2533.7,228.8-2532.4,227.7-2531,227.7z"/>
			<path style="fill:none;stroke:#000000;stroke-miterlimit:10;" d="M-2531,243h41.5c1.6,0,2.7,1.2,2.7,2.7l0,0
				c0,1.6-1.2,2.7-2.7,2.7h-41.5c-1.6,0-2.7-1.2-2.7-2.7l0,0C-2533.7,244.1-2532.4,243-2531,243z"/>
			<path style="fill:none;stroke:#000000;stroke-miterlimit:10;" d="M-2531,258.7h41.5c1.6,0,2.7,1.2,2.7,2.7l0,0
				c0,1.6-1.2,2.7-2.7,2.7h-41.5c-1.6,0-2.7-1.2-2.7-2.7l0,0C-2533.7,260-2532.4,258.7-2531,258.7z"/>
			<path style="fill:none;stroke:#000000;stroke-miterlimit:10;" d="M-2531,274.6h41.5c1.6,0,2.7,1.2,2.7,2.7l0,0
				c0,1.6-1.2,2.7-2.7,2.7h-41.5c-1.6,0-2.7-1.2-2.7-2.7l0,0C-2533.7,275.8-2532.4,274.6-2531,274.6z"/>
			<path style="fill:none;stroke:#000000;stroke-miterlimit:10;" d="M-2516.6,94.4c24.6,0,44.3,19.7,44.3,44.3v155
				c0,24.6-19.8,44.3-44.3,44.3h24.5c24.6,0,44.3-19.7,44.3-44.3v-155c0-24.6-19.8-44.3-44.3-44.3
				C-2492.2,94.4-2516.6,94.4-2516.6,94.4z"/>
			<path style="fill:none;stroke:#000000;stroke-miterlimit:10;" d="M-2557.7,79.2h95c8.2,0,15.1,6.7,15.1,15.1v8.4
				c0,8.2-6.7,15.1-15.1,15.1h-95c-8.2,0-15.1-6.7-15.1-15.1v-8.4C-2572.8,86-2566,79.2-2557.7,79.2z"/>
			<path style="fill:none;stroke:#000000;stroke-miterlimit:10;" d="M-2484.1,79.2c8.4,0,15.1,6.6,15.1,14.8v8.2
				c0,8.2-6.7,14.8-15.1,14.8h20.8c8.4,0,15.1-6.6,15.1-14.8V94c0-8.2-6.7-14.8-15.1-14.8H-2484.1z"/>
			<path style="fill:none;stroke:#000000;stroke-miterlimit:10;" d="M-2510.9-9.7c-1.1,0-2.2,0.1-3.2,0.2
				c10.5,1.7,18.4,12.8,18.4,25.9c0,2.9-0.4,5.6-1.1,8.4V48l13.3,21.9h0.1v8.6h11.8v-8.6h-0.1l-15.5-21.9V24.8
				c0.8-2.6,1.3-5.5,1.3-8.4C-2486,2-2497.1-9.7-2510.9-9.7L-2510.9-9.7z"/>
			
				<ellipse transform="matrix(-0.9255 -0.3787 0.3787 -0.9255 -4865.0962 -940.2007)" style="fill:none;stroke:#000000;stroke-miterlimit:10;" cx="-2525" cy="8.3" rx="7.3" ry="11.4"/>
		</g>
	</g>
	<g transform="translate(1074.1 1581.6)">
		<path style="fill:none;stroke:#000000;stroke-miterlimit:10;" d="M-887.3-1600.5c-4.7-0.1-8.6,4.7-7.8,9.2c-0.4,1.3-1.3,3-2.5,3.5
			c-3.1-1.3-6.8-4.2-10.3-2.2c-3.2,2-3.6,7.4-0.1,9.3c1,0.7,2.5,1,3.2,1.6c-6.3,0.2-12.3,6.3-11.2,12.9c1.1,8.4,9.3,14.2,17.5,14.8
			c6,0.6,12.8-2.7,14.3-9c1.1-3.6-0.4-7.7-2-10.4c2.4,1.6,5.7,2.6,8.2,0.6c3-2.3,2.6-7.4-0.7-9.2c-1.9-0.8-3.8-1.6-5.7-2.6
			c-0.1-2,0.7-4.2,2.6-5.1c3.9-3.6,2.9-10.9-2.2-12.9C-885.1-1600.3-886.3-1600.6-887.3-1600.5L-887.3-1600.5z M-902.6-1570.9
			c2,2.7,5.5,4.2,8.8,4.2c2,2.3,1.3,6.6-1.9,7.2c-5,1.6-11.4-2-11.7-7.4C-907.4-1569.4-904.9-1570.9-902.6-1570.9L-902.6-1570.9z"/>
		<g transform="matrix(.62865 0 0 .62865 -128.06 -742.33)">
			<path style="fill:none;stroke:#000000;stroke-miterlimit:10;" d="M-1220.9-1324.3c-11.1-5.1-23.3-2.4-27.3,6.1l0,0
				c-3.9,8.5,1.8,19.6,12.9,24.7l0,0c11.1,5.1,23.3,2.4,27.3-6.1l0,0C-1204-1308-1209.8-1319.1-1220.9-1324.3L-1220.9-1324.3
				L-1220.9-1324.3z M-1222.7-1320.5c8.4,3.8,12.8,12.2,9.8,18.6l0,0c-3,6.5-12.2,8.5-20.6,4.7s-12.8-12.2-9.8-18.6
				C-1240.3-1322.3-1231.1-1324.3-1222.7-1320.5L-1222.7-1320.5z"/>
			<path style="fill:none;stroke:#000000;stroke-miterlimit:10;" d="M-1204.3-1360.1c-4.2-1.9-9.1-0.1-11.1,4.1
				c-0.8,1.9-1,4.1-0.4,6c-1.8,4.4-3.9,8.2-8.2,10.3c-1.8,0.8,2.9,4.5,5,5.5l4.8,2.3c2.2,1,7.7,1.9,7.1,0.1
				c-1.3-4.5,0.1-8.7,2.3-12.8c2-0.8,3.6-2.3,4.5-4.3C-1198.3-1353.2-1200.1-1358.1-1204.3-1360.1L-1204.3-1360.1z"/>
			<path style="fill:none;stroke:#000000;stroke-miterlimit:10;" d="M-1230-1333.7c-3,6.5-0.4,13.9,5.6,16.7
				c6.1,2.9,13.4-0.1,16.4-6.5L-1230-1333.7z"/>
			<path style="fill:none;stroke:#000000;stroke-miterlimit:10;" d="M-1204.3-1360.1c-0.2-0.1-0.6-0.2-0.8-0.4
				c3,1.9,3.9,6.2,2.2,10.2c-1,1.9-2.4,3.6-4.2,4.4c-2.2,4.1-3.7,8.2-2.7,12.6c0.4,1.8-4.3,1.2-6.1,0.4l1.9,0.8
				c2.2,1,7.7,1.9,7.1,0.1c-1.3-4.5,0.1-8.7,2.3-12.8c2-0.8,3.6-2.3,4.5-4.3C-1198.3-1353.2-1200.1-1358.1-1204.3-1360.1
				L-1204.3-1360.1z"/>
			
				<ellipse transform="matrix(-0.6353 -0.7723 0.7723 -0.6353 -932.0018 -3155.8313)" style="fill:none;stroke:#000000;stroke-miterlimit:10;" cx="-1211.2" cy="-1357.8" rx="1.6" ry="2.7"/>
			<path style="fill:none;stroke:#000000;stroke-miterlimit:10;" d="M-1213.1-1325.2c-2.6,5.5-7.9,8.7-12.4,7.5
				c0.5,0.2,1,0.6,1.4,0.7c6.1,2.9,13.3,0.2,16.1-5.9L-1213.1-1325.2L-1213.1-1325.2z"/>
			<path style="fill:none;stroke:#000000;stroke-miterlimit:10;" d="M-1234.2-1344.8l37.7,17.5c2.2,1,3.1,3.5,2,5.6l-0.2,0.5
				c-1,2.2-3.5,3.1-5.6,2l-37.7-17.5c-2.2-1-3.1-3.5-2-5.6l0.2-0.5C-1238.8-1345-1236.3-1345.9-1234.2-1344.8z"/>
			<path style="fill:none;stroke:#000000;stroke-miterlimit:10;" d="M-1210.4-1333.9c2,1,2.9,3.3,1.8,5.5l-0.2,0.5
				c-1,2.2-3.3,3.1-5.4,2.2l14.1,6.6c2,1,4.4,0,5.4-2.2l0.2-0.5c1-2.2,0.1-4.7-1.8-5.5L-1210.4-1333.9z"/>
		</g>
	</g>
	<g transform="translate(204.53 -133.99)">
		<path style="fill:none;stroke:#000000;stroke-miterlimit:10;" d="M-170.3,9.9c-9.1,0-17.5,7.9-17.8,17.1
			c-0.6,8.1,4.9,16.1,12.7,18.4c1.9,0.1,0.5,2.7,1,4.1c0,12.7,0.1,25.5-0.1,38c-5,2.7-6.3,10.4-2.2,14.3c3.5,3.8,10,3.9,13.4,0.1
			c3.9-3.7,3.2-10.6-1.1-13.7c-1.9-0.7-0.7-3-1.1-4.5c0-12.7,0-25.3,0-38c8.7-2.2,15.1-11.5,13.4-20.4c-1.2-8-8.2-14.7-16.3-15.3
			C-168.8,9.9-169.5,9.9-170.3,9.9L-170.3,9.9z M-169.8,95.1c1,0.1,0.2,1.7-0.5,0.8C-170.5,95.7-170.1,95.1-169.8,95.1z"/>
		<g transform="matrix(.2424 0 0 .2424 29.507 911.19)">
			<circle style="fill:none;stroke:#000000;stroke-miterlimit:10;" cx="-822.3" cy="-3642.9" r="66.2"/>
			<path style="fill:none;stroke:#000000;stroke-miterlimit:10;" d="M-822.9-3612.4c-5.1,0-9.2,4.1-9.2,9.2v211.2
				c-11.7,4.2-19.5,15.2-19.5,27.5c0,16.1,13.1,29.3,29.3,29.3s29.3-13.1,29.3-29.3l0,0c0-12.4-7.8-23.4-19.5-27.5v-211.2
				c0-5.1-4.1-9.2-9.2-9.2H-822.9L-822.9-3612.4z M-822.3-3375.7c6.1,0,11.1,5,11.1,11.1l0,0c0,6.1-5,11.1-11.1,11.1
				s-11.1-5-11.1-11.1C-833.6-3370.6-828.6-3375.7-822.3-3375.7L-822.3-3375.7z"/>
			<path style="fill:none;stroke:#000000;stroke-miterlimit:10;" d="M-812.7-3577.5c-2.5,0.4-5.1,0.6-7.7,0.7v183.1
				c2.6,0.2,5.3,0.7,7.7,1.7V-3577.5L-812.7-3577.5z M-820.3-3393.1v0.1c0.4,0,0.8,0.1,1.2,0.1
				C-819.6-3393-819.9-3393.1-820.3-3393.1z"/>
			<path style="fill:none;stroke:#000000;stroke-miterlimit:10;" d="M-882.1-3671.3c-4.3,8.8-6.5,18.5-6.5,28.4
				c0,9.8,2.3,19.5,6.5,28.4h119.4c4.3-8.8,6.5-18.5,6.5-28.4c0-9.8-2.3-19.5-6.5-28.4H-882.1L-882.1-3671.3z"/>
			<path style="fill:none;stroke:#000000;stroke-miterlimit:10;" d="M-884.5-3665.5c-2.6,7.3-4.1,14.9-4.1,22.7s1.4,15.4,4.1,22.7
				h124.2c2.6-7.3,4.1-14.9,4.1-22.7s-1.4-15.4-4.1-22.7H-884.5L-884.5-3665.5z"/>
			<g transform="matrix(.65158 0 0 .65158 726.52 13.008)">
				<path style="fill:none;stroke:#000000;stroke-miterlimit:10;" d="M-2444.7-5643.1l-2.6,4.5l-2.6,4.5h10.5l-2.6-4.5
					L-2444.7-5643.1z M-2460.4-5638.9v10.5l4.5-2.6l4.5-2.6l-4.5-2.6L-2460.4-5638.9z M-2428.9-5638.9l-4.5,2.6l-4.5,2.6l4.5,2.6
					l4.5,2.6V-5638.9z M-2471.8-5627.4l2.6,4.5l2.6,4.5l2.6-4.5l2.6-4.5H-2471.8z M-2428-5627.4l2.6,4.5l2.6,4.5l2.6-4.5l2.6-4.5
					H-2428z M-2466.9-5616.9l-4.5,2.6l-4.5,2.6l4.5,2.6l4.5,2.6V-5616.9z M-2422.4-5616.9v10.5l4.5-2.6l4.5-2.6l-4.5-2.6
					L-2422.4-5616.9z M-2466.6-5605.1l-2.6,4.5l-2.6,4.5h10.5l-2.6-4.5L-2466.6-5605.1z M-2422.7-5605.1l-2.6,4.5l-2.6,4.5h10.5
					l-2.6-4.5L-2422.7-5605.1z M-2460.4-5595v10.5l4.5-2.6l4.5-2.6l-4.5-2.6L-2460.4-5595z M-2428.9-5595l-4.5,2.6l-4.5,2.6l4.5,2.6
					l4.5,2.6C-2428.9-5584.4-2428.9-5595-2428.9-5595z M-2450-5589.4l2.6,4.5l2.6,4.5l2.6-4.5l2.6-4.5H-2450z"/>
				<circle style="fill:none;stroke:#000000;stroke-miterlimit:10;" cx="-2444.7" cy="-5611.6" r="19.7"/>
			</g>
			<g transform="matrix(.65158 0 0 .65158 867.9 13.008)">
				<path style="fill:none;stroke:#000000;stroke-miterlimit:10;" d="M-2592.7-5643.1l-2.6,4.5l-2.6,4.5h10.5l-2.6-4.5
					L-2592.7-5643.1z M-2608.5-5638.9v10.5l4.5-2.6l4.5-2.6l-4.5-2.6L-2608.5-5638.9z M-2577.1-5638.9l-4.5,2.6l-4.5,2.6l4.5,2.6
					l4.5,2.6V-5638.9z M-2620-5627.4l2.6,4.5l2.6,4.5l2.6-4.5l2.6-4.5H-2620z M-2576.1-5627.4l2.6,4.5l2.6,4.5l2.6-4.5l2.6-4.5
					H-2576.1z M-2615.1-5616.9l-4.5,2.6l-4.5,2.6l4.5,2.6l4.5,2.6V-5616.9z M-2570.5-5616.9v10.5l4.5-2.6l4.5-2.6l-4.5-2.6
					L-2570.5-5616.9z M-2614.7-5605.1l-2.6,4.5l-2.6,4.5h10.5l-2.6-4.5L-2614.7-5605.1z M-2570.9-5605.1l-2.6,4.5l-2.6,4.5h10.5
					l-2.6-4.5C-2568.2-5600.5-2570.9-5605.1-2570.9-5605.1z M-2608.5-5595v10.5l4.5-2.6l4.5-2.6l-4.5-2.6L-2608.5-5595z
					 M-2577.1-5595l-4.5,2.6l-4.5,2.6l4.5,2.6l4.5,2.6C-2577.1-5584.4-2577.1-5595-2577.1-5595z M-2598.1-5589.4l2.6,4.5l2.6,4.5
					l2.6-4.5l2.6-4.5H-2598.1z"/>
				<circle style="fill:none;stroke:#000000;stroke-miterlimit:10;" cx="-2592.9" cy="-5611.6" r="19.7"/>
			</g>
			<g transform="matrix(.65158 0 0 .65158 1005.2 13.008)">
				<path style="fill:none;stroke:#000000;stroke-miterlimit:10;" d="M-2736.6-5643.1l-2.6,4.5l-2.6,4.5h10.5l-2.6-4.5
					L-2736.6-5643.1z M-2752.4-5638.9v10.5l4.5-2.6l4.5-2.6l-4.5-2.6L-2752.4-5638.9z M-2721-5638.9l-4.5,2.6l-4.5,2.6l4.5,2.6
					l4.5,2.6V-5638.9z M-2763.9-5627.4l2.6,4.5l2.6,4.5l2.6-4.5l2.6-4.5H-2763.9z M-2720-5627.4l2.6,4.5l2.6,4.5l2.6-4.5l2.6-4.5
					H-2720z M-2758.9-5616.9l-4.5,2.6l-4.5,2.6l4.5,2.6l4.5,2.6V-5616.9z M-2714.4-5616.9v10.5l4.5-2.6l4.5-2.6l-4.5-2.6
					L-2714.4-5616.9z M-2758.6-5605.1l-2.6,4.5l-2.6,4.5h10.5l-2.6-4.5L-2758.6-5605.1z M-2714.7-5605.1l-2.6,4.5l-2.6,4.5h10.5
					l-2.6-4.5C-2712-5600.5-2714.7-5605.1-2714.7-5605.1z M-2752.4-5595v10.5l4.5-2.6l4.5-2.6l-4.5-2.6L-2752.4-5595z M-2721-5595
					l-4.5,2.6l-4.5,2.6l4.5,2.6l4.5,2.6C-2721-5584.4-2721-5595-2721-5595z M-2741.9-5589.4l2.6,4.5l2.6,4.5l2.6-4.5l2.6-4.5
					H-2741.9z"/>
				<circle style="fill:none;stroke:#000000;stroke-miterlimit:10;" cx="-2736.6" cy="-5611.6" r="19.7"/>
			</g>
			<path style="fill:none;stroke:#000000;stroke-miterlimit:10;" d="M-822.3-3709c-1.9,0-3.9,0.1-5.9,0.4
				c28.4,3.1,50.2,31.7,50.2,65.9c0,34.3-21.9,62.9-50.4,65.9c2,0.2,4.1,0.2,6.1,0.4c36.6,0,66.2-29.6,66.2-66.2
				S-785.9-3709-822.3-3709L-822.3-3709z"/>
			<path style="fill:none;stroke:#000000;stroke-miterlimit:10;" d="M-822.3-3393.7c-0.5,0-1,0-1.3,0.1c13.7,1,24.4,13.7,24.4,29.2
				c0,15.7-11,28.4-25,29.2c0.6,0,1.3,0.1,1.9,0.1c16.1,0,29.3-13.1,29.3-29.3l0,0C-793.2-3380.7-806.2-3393.7-822.3-3393.7
				L-822.3-3393.7L-822.3-3393.7z M-825.4-3375.7c-5.5,0-9.9,5-9.9,11.1l0,0c0,6.1,4.4,11.1,9.9,11.1c0.5,0,1,0,1.4-0.1
				c-5.5-0.8-9.6-5.5-9.6-11c0-5.5,4.1-10.2,9.4-11C-824.5-3375.7-825-3375.7-825.4-3375.7L-825.4-3375.7z"/>
			
				<ellipse transform="matrix(-0.6731 -0.7396 0.7396 -0.6731 1278.1548 -6794.5952)" style="fill:none;stroke:#000000;stroke-miterlimit:10;" cx="-862.7" cy="-3679.8" rx="9.6" ry="15.7"/>
		</g>
	</g>
	<g transform="matrix(.86338 -.50455 .50455 .86338 415.44 1963.4)">
		<path style="fill:none;stroke:#000000;stroke-miterlimit:10;" d="M869-1947c-6.1,0.5-12.3,0-18.4,0.6c-3.2,1.1-4.9,4.3-7.5,6.2
			c-9.1,8.5-17.9,17.3-27.3,25.7c-2.6,1.2-4.1,3.9-6.3,5.6c-2,2-1.8,5.7,0.7,7.4c9.4,9.3,18.5,19,28.3,28c3,1.4,5.7-1.3,7.5-3.5
			c1.4-1.9,1.8-1.1,1.6,1.1c-0.1,22,0.2,44.1-0.1,66.1c-0.4,6.1,2.4,11.8,4.7,17.5c5.9,12.6,14.7,23.7,25,33c2,1.9,4.9,2.9,7.7,2.3
			c11.2-0.2,22.4,0.2,33.6-0.2c3.8-1.7,6.3-5.4,9.3-8c10.4-10.9,19.4-23.8,23.4-38.4c1.3-6.7,0.1-13.4,0.5-20.2
			c0-18.2,0-36.3,0-54.5c2.2,1.9,4.2,5.5,7.5,5c3.5-0.7,5-4.3,7.7-6.3c7.9-8,16-15.7,23.5-23.9c1.4-2.9-1-5.6-3.1-7.3
			c-2.4-2.9-5.9-4.3-8.2-7.2c-9.8-9.3-19.4-19-29.5-28.1c-4.2-1.6-8.7-0.2-12.9-0.7c-3.2,0-6.7-0.8-9.7,0.6
			c-2.6,1.8-4.3,4.7-7.1,6.5c-6.9,5.5-16.4,8.1-25.1,5.6c-8.7-2-16-7.5-23.3-12.6C870.6-1947,869.8-1947,869-1947L869-1947z
			 M899.4-1918.7c0.7,1.1,1.4,2.2,1.4,3.3c-1-0.1-2.4,0.2-3.1-0.4c0.1-1.2,0.8-2.3,1.6-3.2L899.4-1918.7L899.4-1918.7z"/>
		<path style="fill:none;stroke:#000000;stroke-miterlimit:10;" d="M853.3-1806.1c0.4,0.1,0.8,0.2,1.2,0.4c1,0.4,1.9,0.8,2.9,1.2
			c1,0.5,1.9,1,2.9,1.6c1,0.6,1.9,1.2,2.7,1.8c1,0.6,1.8,1.3,2.6,2c0.8,0.7,1.7,1.4,2.5,2.3c0.8,0.8,1.7,1.7,2.4,2.5
			c0.7,0.8,1.6,1.8,2.3,2.6c0.7,1,1.4,1.8,2,2.7c0.6,1,1.2,1.9,1.8,2.9c0.5,0.7,0.8,1.6,1.2,2.3c0.5,1,1,2,1.3,3.1s0.7,2,1.1,3.1
			c0.4,1.1,0.6,2,0.8,3.1c0.2,1.1,0.4,2,0.5,3.1c0.1,1.1,0.2,2,0.2,3.1c0,1,0,2,0,3c-0.1,1-0.2,1.9-0.4,2.9c0,0.2-0.1,0.4-0.1,0.6
			l0.4,0.5l35.1,0l0.2-0.4c-0.1-0.8-0.4-1.7-0.4-2.5c-0.1-1-0.1-1.9-0.1-2.9c0-1,0-2,0.1-3c0.1-1.1,0.2-2,0.4-3.1
			c0.2-1.1,0.4-2,0.7-3.1c0.2-1.1,0.6-2,1-3.1s0.8-2,1.2-3.1c0.2-0.4,0.4-0.8,0.6-1.2c0.5-1,1.1-2,1.7-3s1.2-1.9,1.8-2.9
			c0.6-1,1.3-1.9,2-2.7c0.7-1,1.4-1.8,2.3-2.6c0.8-0.8,1.6-1.7,2.4-2.4s1.7-1.6,2.6-2.3c0.8-0.7,1.8-1.3,2.7-2
			c1-0.6,1.9-1.2,2.9-1.8c1-0.5,1.9-1.1,2.9-1.4s1.9-0.8,2.9-1.2c0.1,0,0.2-0.1,0.4-0.1L853.3-1806.1L853.3-1806.1z"/>
		<path style="fill:none;stroke:#000000;stroke-miterlimit:10;" d="M869.8-1942.5c0,0.2,0,0.6,0,0.8c0,0.8,0,1.7,0.1,2.5
			c0.1,1.2,0.2,2.3,0.4,3.5s0.4,2.3,0.6,3.3c0.2,1.1,0.6,2.3,1,3.3c0.4,1.1,0.7,2.2,1.2,3.2c0.5,1.1,1,2,1.4,3
			c0.5,1,1.1,1.9,1.7,2.9c0.6,1,1.3,1.8,1.9,2.6c0.7,0.8,1.4,1.7,2.2,2.4s1.6,1.4,2.4,2.2c0.8,0.6,1.7,1.3,2.5,1.8
			c0.8,0.6,1.8,1.1,2.6,1.6c1,0.5,1.8,0.8,2.7,1.2s1.9,0.6,2.9,0.8s1.9,0.4,3,0.5c1,0.1,2,0.1,3,0.1c0.7,0,1.4,0,2.2-0.1
			c1-0.1,1.9-0.2,3-0.4c1-0.2,1.9-0.5,2.9-0.7c1-0.4,1.9-0.7,2.9-1.1c1-0.5,1.8-0.8,2.7-1.4c0.8-0.5,1.8-1.1,2.6-1.7s1.7-1.3,2.4-2
			c0.7-0.7,1.6-1.4,2.3-2.3c0.7-0.8,1.4-1.7,2-2.5c0.6-0.8,1.2-1.8,1.8-2.7s1.1-1.9,1.6-3s1-2,1.3-3.1c0.4-1.1,0.7-2.2,1.1-3.2
			c0.2-1.1,0.5-2.3,0.7-3.3c0.2-1.1,0.4-2.3,0.5-3.5s0.1-2.3,0.1-3.5c0-0.2,0-0.5,0-0.7c-5.4,10.3-16.9,16.7-29.5,16.7
			c-12.7,0-24.1-6.6-29.5-16.9L869.8-1942.5L869.8-1942.5z M899.3-1925.5c0,0,6.2,6.5,5.7,10.8c-0.4,3.2-3.1,6.6-5.7,6.6
			s-5.5-3.3-5.7-6.6C893.1-1919.1,899.3-1925.5,899.3-1925.5z"/>
		<path style="fill:none;stroke:#000000;stroke-miterlimit:10;" d="M899.6-1929.1v4.4c10.8,1,21.4-2.7,28.7-13.4
			c0.4-2.2-0.4-0.1,0.7-4.7C919.6-1932.7,909.8-1928.4,899.6-1929.1L899.6-1929.1z"/>
		<path style="fill:none;stroke:#000000;stroke-miterlimit:10;" d="M869.9-1942.8c0,0-0.2,1.1,0,4.4c8,7.4,20.1,13.3,30.8,13.9
			c0.1-1.4,0-3-0.1-4.4C891.2-1929.3,880.1-1934.7,869.9-1942.8L869.9-1942.8z"/>
		<path style="fill:none;stroke:#000000;stroke-miterlimit:10;" d="M947.3-1942.7l-18.2,0.1c0,0.4,0,0.6,0,1
			c0,19.1-13.3,34.7-29.6,34.7s-29.6-15.5-29.6-34.7c0-0.4,0-0.6,0-1h-18.2l-34.8,33l26.9,27.9l7.8-7.5v82.6
			c10.8,3,20.9,11.8,26.4,22.9c3.7,7.7,4.9,15.7,3.3,22.5h35.6c-1.6-6.8-0.4-14.8,3.3-22.5c5.5-11.4,15.9-20.2,26.8-23.1v-82.2
			l7.7,7.4l26.9-27.9L947.3-1942.7z"/>
		<path style="fill:none;stroke:#000000;stroke-miterlimit:10;" d="M945.2-1806.1l1.7-0.6c-6.8,19.2-17.6,32.6-29.9,45.4
			c0,0.7-0.5-3.5-0.5-3.9c-0.1-1-0.1-1.9,0-3c0-1,0.1-2,0.2-3.1c0.1-1.1,0.4-2,0.5-3.1c0.2-1.1,0.5-2,0.8-3.1c0.4-1.1,0.7-2,1.1-3.1
			c0.4-1.1,0.8-2,1.3-3.1c0.4-0.7,0.7-1.6,1.2-2.3c0.6-1,1.2-1.9,1.8-2.9c0.6-1,1.3-1.9,2-2.7c0.7-1,1.4-1.8,2.3-2.6
			c0.7-0.8,1.6-1.7,2.4-2.5c0.8-0.8,1.7-1.6,2.5-2.3c0.8-0.7,1.8-1.4,2.6-2s1.8-1.2,2.7-1.8s1.9-1.1,2.9-1.6c1-0.5,1.9-0.8,2.9-1.2
			C944.4-1805.9,944.9-1806,945.2-1806.1L945.2-1806.1z"/>
		<path style="fill:none;stroke:#000000;stroke-miterlimit:10;" d="M853.3-1806.1l-1.7-0.6c6.8,19.2,17.6,32.6,29.9,45.4
			c0,0.7,0.5-3.5,0.5-3.9c0.1-1,0.1-1.9,0-3c0-1-0.1-2-0.2-3.1c-0.1-1.1-0.4-2-0.5-3.1s-0.5-2-0.8-3.1c-0.4-1.1-0.7-2-1.1-3.1
			c-0.4-1.1-0.8-2-1.3-3.1c-0.4-0.7-0.7-1.6-1.2-2.3c-0.6-1-1.2-1.9-1.8-2.9c-0.6-1-1.3-1.9-2-2.7c-0.7-0.8-1.4-1.8-2.3-2.6
			c-0.7-0.8-1.6-1.7-2.4-2.5c-0.8-0.8-1.7-1.6-2.5-2.3c-0.8-0.7-1.8-1.4-2.6-2c-1-0.6-1.8-1.2-2.7-1.8s-1.9-1.1-2.9-1.6
			c-1-0.5-1.9-0.8-2.9-1.2C854.1-1805.9,853.8-1806,853.3-1806.1L853.3-1806.1z"/>
		<path style="fill:none;stroke:#000000;stroke-miterlimit:10;" d="M851.6-1942.5L851.6-1942.5L851.6-1942.5L851.6-1942.5z"/>
		<path style="fill:none;stroke:#000000;stroke-miterlimit:10;" d="M944.1-1807.3c-6.9,20.9-10.9,27.5-27.5,41.6
			c0,0-0.5,0.5,0.5,4.4c9.8-7.8,26.8-28,29.8-44.1C947.4-1808.1,946.4-1805,944.1-1807.3L944.1-1807.3z"/>
		<path style="fill:none;stroke:#000000;stroke-miterlimit:10;" d="M854.6-1807.2c6.9,20.9,10.9,27.5,27.5,41.6c0,0,0,0.5-0.8,4.4
			c-9.8-7.8-26.3-28-29.4-44.1C851.4-1808,852.3-1804.9,854.6-1807.2L854.6-1807.2z"/>
		<path style="fill:none;stroke:#000000;stroke-miterlimit:10;" d="M912-1767.8l4.5-1.4c0.5,2.2,0.6,5,0.6,8h-4.5
			C912.8-1763.3,912.6-1765.5,912-1767.8L912-1767.8z"/>
		<path style="fill:none;stroke:#000000;stroke-miterlimit:10;" d="M886.3-1767.8l-4.5-1.4c-0.5,2.2-0.6,5-0.6,8h4.5
			C885.6-1763.3,885.7-1765.5,886.3-1767.8L886.3-1767.8z"/>
		<path style="fill:none;stroke:#000000;stroke-miterlimit:10;" d="M851.4-1810.3c-0.2,4.4,1,7.1,1,7.1
			c10.5,10.8,28.8,22.2,29.3,34.5c12.1,3.3,23.8,3.2,35-0.1c0-0.1,0-0.1,0-0.2c7.5-17.6,17-25,29.4-34.2c0,0,1.7-2.9,1.1-7.1
			c-9.9,7.5-28.1,18.2-31.7,34.1c-12.3,3.6-20.1,3.3-31.4-0.6C878-1793.1,861.4-1802.7,851.4-1810.3L851.4-1810.3z"/>
		
			<rect x="949.8" y="-1897.8" transform="matrix(-0.7071 0.7071 -0.7071 -0.7071 316.2014 -3919.1179)" style="fill:none;stroke:#000000;stroke-miterlimit:10;" width="39.9" height="7.4"/>
		
			<rect x="825.1" y="-1913.9" transform="matrix(-0.7071 0.7071 -0.7071 -0.7071 75.5737 -3819.2568)" style="fill:none;stroke:#000000;stroke-miterlimit:10;" width="7.4" height="39.9"/>
		<path style="fill:none;stroke:#000000;stroke-miterlimit:10;" d="M870-1942.8c14.2,43.4,47.6,41.4,58.9,0h5
			c-12.3,45.1-53.1,51.4-69.3,0H870z"/>
		<g transform="matrix(.45446 0 0 .45446 842.38 -616.37)">
			<circle style="fill:none;stroke:#000000;stroke-miterlimit:10;" cx="103.9" cy="-2539.7" r="4.7"/>
			<circle style="fill:none;stroke:#000000;stroke-miterlimit:10;" cx="125.1" cy="-2538.4" r="4.7"/>
			<circle style="fill:none;stroke:#000000;stroke-miterlimit:10;" cx="146.3" cy="-2539.7" r="4.7"/>
		</g>
		<circle style="fill:none;stroke:#000000;stroke-miterlimit:10;" cx="899.2" cy="-1927.1" r="1.1"/>
		<g transform="matrix(.45446 0 0 .45446 857.08 -603.51)">
			<path style="fill:none;stroke:#000000;stroke-miterlimit:10;" d="M41.3-2782c-1.3-3.2,5.7-2.5,8.8-3.6c4.8-11.4,28.3-16.3,55.9-3
				c5.5-3.3,10-1.3,14.2,1.2c-2.2,1.1-4.9,1.8-5,6.1c15.4,21.3,14.6,44.1,12.4,59.4c5.5,4.9,12.8,9.9,13.4,17.7
				c-4.8-6-12.3-3.8-16-9.7c-3.1,1.2-9.4-2.4-12,1.2c-0.1-2.3-2.2-7.2,8.7-10.3c-3.8-4.1-5.4-21-11.6-27.3c-7.9-8-12.9-13.7-28.3-20
				c-3.3,4.2-4.1,8.7-3.8,13.3c-6.2-2.7-6.1-9.6-6.5-16.3c-9.1-3.3-12.4-3.9-17.2-5.1C49.1-2779.1,40.2-2779,41.3-2782L41.3-2782z"
				/>
			
				<ellipse transform="matrix(-0.8634 -0.5045 0.5045 -0.8634 1530.5537 -5158.5859)" style="fill:none;stroke:#000000;stroke-miterlimit:10;" cx="66.9" cy="-2786.5" rx="1.2" ry="1.1"/>
			<path style="fill:none;stroke:#000000;stroke-miterlimit:10;" d="M41.6-2781.9c4.3,2,20.3-0.1,30,2.6
				c11.8,3.3,23.9,9.1,32.8,16.7c19.7,16,13.3,33.7,20,40.8c-7.2-4.4-5.5-19.8-14.3-29.3c-15.1-18.3-36.8-23.4-56.8-27.6
				C48-2779.7,41.2-2779.3,41.6-2781.9L41.6-2781.9z"/>
			<path style="fill:none;stroke:#000000;stroke-miterlimit:10;" d="M87.2-2774c3.1,6.1,8.6,10,17.2,15.9c-7.9-11-7.4-12.1-8.8-16.5
				C93.8-2773.6,91-2774,87.2-2774L87.2-2774z"/>
			<path style="fill:none;stroke:#000000;stroke-miterlimit:10;" d="M113.4-2713.6c0,0,1-1.6,1.8-1.9c3.2-1.4,7.2,0.5,10.5,0
				c4.7,5.7,10.9,4.1,14.5,8.4c0.4,0.5,0.6,1.7,0.6,1.7c-2.5-4.1-12.4-3.7-15.4-9C123.8-2713,116.9-2716.5,113.4-2713.6
				L113.4-2713.6z"/>
			<path style="fill:none;stroke:#000000;stroke-miterlimit:10;" d="M115-2781.5c0.1-2.7,1.3-4.1,2.9-4.8c1-0.5,2.2-1.1,2.2-1.1
				c-1.4-0.8-5.9-3.1-8.4,2.4C112-2784.9,114.2-2783.1,115-2781.5L115-2781.5z"/>
			
				<ellipse transform="matrix(-0.8634 -0.5045 0.5045 -0.8634 1530.6165 -5158.501)" style="fill:none;stroke:#000000;stroke-miterlimit:10;" cx="66.9" cy="-2786.5" rx="1" ry="0.8"/>
			
				<ellipse transform="matrix(-0.8634 -0.5045 0.5045 -0.8634 1531.428 -5158.978)" style="fill:none;stroke:#000000;stroke-miterlimit:10;" cx="67.3" cy="-2786.8" rx="0.5" ry="0.4"/>
		</g>
	</g>
	<g transform="translate(686.52 -1557.6)">
		<path style="fill:none;stroke:#000000;stroke-miterlimit:10;" d="M-486.6,995.6c-6.6,0-11.6,6.1-12.6,12.2
			c-6.3-2.7-15.3-0.2-17.6,6.7c-2.2,5.5,0.8,11.7,4.9,15.3c-5.3,4.1-7.7,12.4-3.3,18c3.6,4.9,10.6,6,16.1,3.9c1,6.7,7.1,13,14.1,12
			c6-0.7,10.4-6.3,11.2-12c6.2,2.5,14.7,0.5,17.5-6.1c2.5-5.6-0.2-12.2-4.8-15.9c5.3-4.1,7.8-12.4,3.5-18c-3.6-4.9-10.6-6-16.1-3.8
			C-474.6,1001.4-479.9,995.5-486.6,995.6L-486.6,995.6z"/>
		<g transform="matrix(.23345 0 0 .23345 -434.7 1270.8)">
			<path style="fill:none;stroke:#000000;stroke-miterlimit:10;" d="M-221.5-1167c-24,0-43.5,23.5-43.5,52.6c0,2.4,0.1,4.7,0.5,6.9
				c-1.9-1.4-3.8-2.6-5.9-3.8c-25.1-14.6-55.3-9.4-67.3,11.4l0,0c-12.1,20.8-1.3,49.5,23.8,63.9c2,1.2,4.1,2.2,6.2,3.1
				c-2.2,1-4.2,1.9-6.2,3.1c-25.1,14.6-35.9,43.2-23.8,63.9l0,0c12.1,20.8,42.2,25.9,67.3,11.4l0,0c2-1.2,3.9-2.5,5.9-3.8
				c-0.2,2.3-0.4,4.7-0.5,6.9c0,29,19.5,52.6,43.5,52.6s43.5-23.5,43.5-52.6c0-2.4-0.1-4.7-0.5-6.9c1.9,1.4,3.8,2.6,5.9,3.8
				c25.1,14.6,55.3,9.4,67.3-11.4l0,0c12.1-20.8,1.3-49.5-23.8-63.9l0,0c-2-1.2-4.1-2.2-6.2-3.1c2.2-1,4.2-1.9,6.2-3.1
				c25.1-14.6,35.9-43.2,23.8-63.9s-42.2-25.9-67.3-11.4l0,0c-2,1.2-3.9,2.5-5.9,3.8c0.2-2.3,0.4-4.7,0.5-6.9
				C-178-1143.4-197.5-1167-221.5-1167L-221.5-1167z M-241.7-1067.8c6.2,3.9,13.1,6.1,20.3,6.1c7.1,0,14-2.2,20.3-6.1
				c-0.4,7.4,1.3,14.5,4.9,20.6s8.8,11.1,15.4,14.5c-6.6,3.5-11.8,8.4-15.4,14.5c-3.5,6.1-5.1,13.1-4.9,20.6
				c-6.2-3.9-13.1-6.1-20.3-6.1c-7.1,0-14,2.2-20.3,6.1c0.4-7.4-1.3-14.5-4.9-20.6c-3.6-6.1-8.8-11.1-15.4-14.5
				c6.6-3.5,11.8-8.4,15.4-14.5C-243.2-1053.3-241.5-1060.5-241.7-1067.8L-241.7-1067.8z"/>
			<circle style="fill:none;stroke:#000000;stroke-miterlimit:10;" cx="-221.5" cy="-1033.6" r="49.8"/>
		</g>
	</g>
	<g transform="translate(383.86 -33.218)">
		<path style="fill:none;stroke:#000000;stroke-miterlimit:10;" d="M-533.4-454.1c-5.5,0.4-9.3,4.9-13.9,7.4
			c-5.9,3.9-12.1,7.4-17.3,12.1c-3.1,4.1-2.4,10,1,13.7c1.8,2.6,4.7,4.9,7.9,5c2.4,3.7,5.7,7.9,4.4,12.7c-2,5.9-8.2,8.5-12.8,12.2
			c-4.7,3.3-8.8,8.7-8,14.8c0.7,7.5,5.6,14.9,13,17.2c7.3,2.3,15.5,1.1,21.9-2.9c4.7-3,7.1-8.2,11-12.1c2.6-2.7,5.5-5.5,8.2-7.8
			c-1.8,6.3,0.8,13.1,4.9,17.9c6,6.3,15.8,7.2,23.7,4.5c5.1-1.6,9.6-4.9,12.3-9.4c6.3-8.4,14.8-14.7,22.6-21.6
			c6.9-7.9,7.5-20.8,0.5-28.8c-4.8-6.7-9.3-13.5-13.9-20.3c1-5.5-2.7-11.1-7.4-13.7c-4.3-2-9.3-0.2-12.7,2.6
			c-7.7,5.3-15.8,9.8-23,15.8c-1.8,2.3-2.5,5.4-1.9,8.2c-2.9-4.3-6.1-8.6-8.6-13c0.7-5.4-2.7-10.8-7.3-13.4
			C-530.2-453.9-531.8-454.2-533.4-454.1L-533.4-454.1z M-505.9-417.1c1.2,0.7,2.5,1.1,3.8,1.2c2.4,3.6,5.6,7.8,4.4,12.4
			c-1.1,3.7-4.3,6.2-7.3,8.4C-501.5-401.9-501.7-410.6-505.9-417.1L-505.9-417.1z"/>
		<g transform="matrix(.31059 0 0 .31059 -501.44 -3.9972)">
			<path style="fill:none;stroke:#000000;stroke-miterlimit:10;" d="M-190.3-1361.7c0,0,39,41,41.5,67.2
				c-0.5,55.3-98.5,51.2-59.4,120.8c20.2,35.9,79.8,26.2,97.8,3.7c24.6-33.5,49.1-54.1,73.6-73.3c29.2-22.7,27.5-66.9,11.2-83.2
				l-65.6-96.3L-190.3-1361.7z"/>
			<path style="fill:none;stroke:#000000;stroke-miterlimit:10;" d="M-189.3-1385.5l75.2-49.6c10.4-6.8,24.3-3.9,31.1,6.3l5.3,8
				c6.8,10.4,3.9,24.3-6.3,31.1l-75.2,49.6c-10.4,6.8-24.3,3.9-31.1-6.3l-5.3-8C-202.6-1364.8-199.7-1378.7-189.3-1385.5z"/>
			<path style="fill:none;stroke:#000000;stroke-miterlimit:10;" d="M-26.6-1328c-25.8,15.9-34.3,49.1-18.9,74.1l0,0
				c2.4,3.9,5.4,7.5,8.7,10.6c29.2-22.7,27.4-66.9,11.2-83.2L-26.6-1328L-26.6-1328L-26.6-1328z"/>
			<path style="fill:none;stroke:#000000;stroke-miterlimit:10;" d="M-205.5-1229.3c-12.4,12.6-17.9,28.6-2.7,55.6
				c11.6,20.8,36.5,26.3,58.9,22.8c5.1-16.4,2.7-34.5-6.6-49.6C-166.9-1218-185.6-1228.9-205.5-1229.3L-205.5-1229.3z"/>
			<path style="fill:none;stroke:#000000;stroke-miterlimit:10;" d="M-17.4-1361.7c0,0,39,41,41.5,67.2
				c-0.5,55.3-98.5,51.2-59.4,120.8c20.2,35.9,79.8,26.2,97.8,3.7c24.6-33.5,49.1-54.1,73.6-73.3c29.2-22.7,27.5-66.9,11.2-83.2
				l-65.6-96.3L-17.4-1361.7z"/>
			<path style="fill:none;stroke:#000000;stroke-miterlimit:10;" d="M-16.6-1385.5l75.2-49.6c10.4-6.8,24.3-3.9,31.1,6.3l5.3,8
				c6.8,10.4,3.9,24.3-6.3,31.1l-75.2,49.6c-10.4,6.8-24.3,3.9-31.1-6.3l-5.3-8C-29.7-1364.8-26.9-1378.7-16.6-1385.5z"/>
			<path style="fill:none;stroke:#000000;stroke-miterlimit:10;" d="M146.1-1328c-25.8,15.9-34.3,49.1-18.9,74.1l0,0
				c2.4,3.9,5.4,7.5,8.7,10.6c29.2-22.7,27.4-66.9,11.2-83.2L146.1-1328C146.2-1328,146.1-1328,146.1-1328L146.1-1328z"/>
			<path style="fill:none;stroke:#000000;stroke-miterlimit:10;" d="M-32.7-1229.3c-12.4,12.6-17.9,28.6-2.7,55.6
				c11.6,20.8,36.5,26.3,58.9,22.8c5.1-16.4,2.7-34.5-6.6-49.6C6-1218-12.8-1228.9-32.7-1229.3L-32.7-1229.3z"/>
		</g>
	</g>
	<g transform="matrix(.26524 0 0 .26524 23.297 1054.1)">
		<path style="fill:none;stroke:#000000;stroke-miterlimit:10;" d="M-410.1-4063.5c-13.7,0.1-26.4,7.3-36.6,16.1
			c-12.3,9.3-20.7,24.1-20.4,39.8c-0.1,13.7,6,27,15.3,36.8c8.7,10.9,16.1,23.3,27.4,32c3,2,6.3,3.7,9.8,4.7
			c18.8,23.3,36.6,47.5,55.9,70.4c16.4,15.2,44.1,16.3,61.3,1.8c16.6-13,23-38.1,13.1-57.1c-5.7-11.7-15.2-21-22.5-31.7
			c-11-14.5-22.1-28.9-33.2-43.3c-0.7-12.1-7.9-22.5-15.4-31.4c-8.7-11-16.1-23.9-28.6-31.4
			C-391.6-4061.4-400.8-4063.8-410.1-4063.5L-410.1-4063.5z M-349-3965.5c5.1,6.6,10.3,13.1,15.2,19.7
			c-15.9,2.4-30.4,13.4-36.7,28.3c-5.7-7.5-11.7-15.1-17.3-22.6c6.5-4.1,12-11,11.6-19c-0.1-1.8-0.4-3.5-0.8-5.1
			c5.6,3.7,13.1,3.8,19.1,0.7c2.5-1.2,4.9-2.9,6.8-4.9C-350.5-3967.4-349.8-3966.5-349-3965.5L-349-3965.5z M-326.5-3922.1
			c13.6-0.1,25.5,14,22.5,27.4c-2,11.5-13.6,20.8-25.5,19c-10.8-1.2-20.4-10.5-20.7-21.6c-0.7-9.8,5.6-20.2,15.3-23.3
			C-332.1-3921.6-329.2-3922.1-326.5-3922.1L-326.5-3922.1z"/>
		<path style="fill:none;stroke:#000000;stroke-miterlimit:10;" d="M-432.2-4035.4c-17.7,13.6-20,40-5.1,59.2
			c24.4,32.9,57.7,73.6,78.9,101.6c13.4,17.3,38.4,20.6,55.7,7.2s20.6-38.4,7.2-55.7c-25.7-34.8-53-69.4-78.2-102.2
			C-388.4-4044.4-414.5-4048.9-432.2-4035.4L-432.2-4035.4z M-425-4026.1c13.5-10.4,35-5,48.3,12.2l58.9,76.4
			c-11.6-2.7-23.9-0.1-33.3,7.2s-15.1,18.4-15.4,30.4l-58.9-76.4C-438.7-3993.5-438.5-4015.7-425-4026.1L-425-4026.1z
			 M-345.7-3923.2c13.5-10.4,32.9-7.9,43.3,5.6c10.4,13.5,7.9,32.9-5.6,43.3c-13.5,10.4-32.9,7.9-43.3-5.6
			C-361.6-3893.5-359.1-3912.8-345.7-3923.2L-345.7-3923.2z"/>
		<path style="fill:none;stroke:#000000;stroke-miterlimit:10;" d="M-443-4040.3c-18.3,14.1-21.6,40.2-7.5,58.5l18.5,24
			c7.9,10.2,20.3,26.7,42.4,9.6c23.8-18.3-33.9-44-18.4-55.9c15.5-12,26.2,50,49.5,32c22-17,6.2-37.1,1.6-43.5l-18.5-24
			c-14.1-18.3-40.2-21.6-58.5-7.5L-443-4040.3z"/>
		<path style="fill:none;stroke:#000000;stroke-miterlimit:10;" d="M-408.3-4055.9c-9-0.1-18.2,2.7-25.8,8.7l-9,6.9
			c-11.5,8.8-17.1,22.4-16.1,35.7c0.7-10.6,5.9-20.8,14.9-27.9l8.2-6.3c16.9-13,40.9-9.9,53.8,6.9l17,22.1c4.3,6,18.9,24.4-1.4,40
			c-0.4,0.2-0.7,0.5-1.1,0.7c2.7,0.2,5.9-0.7,9.1-3.2c22-17,6.2-37.1,1.6-43.5l-18.5-24C-383.8-4050.2-395.9-4055.7-408.3-4055.9
			L-408.3-4055.9z M-410.8-4000c-0.5,0.2-1,0.5-1.4,0.8c-14.3,11,38.8,34.7,17,51.5c-5.5,4.2-10.4,6.2-14.6,6.7
			c5.6,0.6,12.3-1.2,20.2-7.3C-368.3-3964.7-412.6-3987-410.8-4000L-410.8-4000z"/>
		
			<ellipse transform="matrix(-0.1643 -0.9864 0.9864 -0.1643 3433.6152 -5103.9893)" style="fill:none;stroke:#000000;stroke-miterlimit:10;" cx="-445.3" cy="-4006.5" rx="11.8" ry="6.9"/>
	</g>
	<path style="fill:none;stroke:#000000;stroke-miterlimit:10;" d="M209.9-284.3c-31.9,0-63.8,0-95.6,0c-0.4,3.6,0.5,7.3-0.4,10.9
		c-1.8,3.5-1,7.4-1,11.1c0.4,2,1.8,3.8,1.3,6.1c0.1,8.8-0.4,17.8,0.2,26.7c1.4,10.5,8.5,19,14.8,27c5.1,6.1,11.2,12.3,19.4,14
		c6.3,1.1,12.7,0.1,19,0.5c7.8-0.1,15.5,0.4,23.3-0.5c9.1-2.2,15.5-9.6,21.2-16.6c5.5-7.3,11.7-14.9,12.9-24.3
		c0.7-6.9,0.1-13.9,0.2-20.9c0.1-3.1-0.2-6.5,0.5-9.6c1.4-3.5,0.7-7.3,0.7-11c-0.5-1.8-1.4-3.6-1.1-5.6c-0.2-2.4,0.7-5.1-0.6-7.3
		c-1.7-1.1-3.9-0.1-5.9-0.5C215.8-284.5,212.8-284.3,209.9-284.3L209.9-284.3z"/>
	<path style="fill:none;stroke:#000000;stroke-miterlimit:10;" d="M117.9-232.9c22,4.4,34.7,20.6,34.7,40.9v0.2
		c-8.1,0-15.4-6.2-23.2-16.5C122.6-217,117.9-224.5,117.9-232.9L117.9-232.9z"/>
	<path style="fill:none;stroke:#000000;stroke-miterlimit:10;" d="M221.7-232.9c-22,4.4-35,20.6-35,40.9v0.2
		c8.1,0,15.4-6.2,23.2-16.5C216.5-217,221.7-224.5,221.7-232.9L221.7-232.9z"/>
	<g transform="matrix(.35826 0 0 .35826 957.11 92.936)">
		<path style="fill:none;stroke:#000000;stroke-miterlimit:10;" d="M-2342.9-1043.3v134.1c56.8,16.6,94.9,62.2,95,113.6
			c0,0.4,0,0.6,0,1h98.1c0-0.4,0-0.6,0-1c0.1-52,39.2-98,97.1-114v-133.5h-290.2V-1043.3z"/>
		<path style="fill:none;stroke:#000000;stroke-miterlimit:10;" d="M-2104.3-1023.9h43.2c6.5,0,11.7,5.3,11.7,11.7v17
			c0,6.5-5.3,11.7-11.7,11.7h-43.2c-6.5,0-11.7-5.3-11.7-11.7v-17C-2116-1018.6-2110.7-1023.9-2104.3-1023.9z"/>
		<g transform="matrix(.46189 0 0 .46189 412.49 71.573)">
			<path style="fill:none;stroke:#000000;stroke-miterlimit:10;" d="M-5737.4-2320.4c-56.3,51.8,1,90.8,21.9,97.8
				c-20.8,6.9-78.2,46-21.9,97.8c47.6-45.7-0.5-72.7,22-97.7h0.1c0,0,0-0.1-0.1-0.1c0,0,0-0.1,0.1-0.1h-0.1
				C-5737.8-2247.7-5689.8-2274.7-5737.4-2320.4L-5737.4-2320.4z"/>
			<path style="fill:none;stroke:#000000;stroke-miterlimit:10;" d="M-5715.7-2222.6c17.5,14.7,36.5,27.6,56.7,38.5
				c20.4,11,43,20,66.1,17.6c11.5-1.2,22.8-5.4,31.8-12.7c9-7.4,15.3-18,16.4-29.6c1.1-10.4-2.3-21.2-8.4-29.6
				c-6.2-8.5-15.2-14.7-25.1-18.2c-18.2-6.3-38.4-3.1-56.5,3.2c-18.2,6.5-35,15.9-53.1,22.7
				C-5697.1-2227.4-5706.3-2224.7-5715.7-2222.6L-5715.7-2222.6z"/>
			<path style="fill:none;stroke:#000000;stroke-miterlimit:10;" d="M-5607.8-2197.2c-15.2,11.6-57,77.9-31.2,61.3
				c19.8-12.8,4.4,17.5,22,1.2c17.5-8.8,6.1,21.2,22.6,4.7c14.1-15.9,3.5-54.6-1.9-68.7"/>
			<ellipse style="fill:none;stroke:#000000;stroke-miterlimit:10;" cx="-5567.6" cy="-2219.4" rx="10" ry="12"/>
			<path style="fill:none;stroke:#000000;stroke-miterlimit:10;" d="M-5588.1-2295.4c-0.2,0-0.5,0-0.8,0c-7.9,0.7-8,15.3-8,17.9
				s-8-9.9-14.7-8.6c-6.6,1.3-3,15.5-9.3,17.9c-4.1,1.6-7.9-5.9-12-4.7c-5.7,1.7-4.9,12.7-10.6,14.7c-5,1.7-10.8-7.4-15.3-4.7
				c-5.4,3.2-5.3,15.5-4.9,21.4c9.4-4.4,19-8.7,28.8-12.2c18.2-6.5,38.4-9.6,56.5-3.2c5.4,1.9,10.5,4.5,15.2,8
				c9-4.1,20.3-33.6,6.9-41.2c-7.8-4.5-10.4,14.6-19.4,13.3C-5584.4-2278-5580.1-2295.1-5588.1-2295.4L-5588.1-2295.4z"/>
			<path style="fill:none;stroke:#000000;stroke-miterlimit:10;" d="M-5558.3-2201.7l12.4,5.3c1,0.4,1.4,1.6,1.1,2.5l0,0
				c-0.4,1-1.6,1.4-2.5,1.1l-12.4-5.3c-1-0.4-1.4-1.6-1.1-2.5l0,0C-5560.3-2201.7-5559.3-2202.2-5558.3-2201.7z"/>
			<path style="fill:none;stroke:#000000;stroke-miterlimit:10;" d="M-5559.6-2198.4l12.4,5.3c1,0.4,1.4,1.6,1.1,2.5l0,0
				c-0.4,1-1.6,1.4-2.5,1.1l-12.4-5.3c-1-0.4-1.4-1.6-1.1-2.5l0,0C-5561.8-2198.4-5560.6-2198.8-5559.6-2198.4z"/>
			<ellipse style="fill:none;stroke:#000000;stroke-miterlimit:10;" cx="-5567.5" cy="-2219.4" rx="7.9" ry="9.4"/>
			<circle style="fill:none;stroke:#000000;stroke-miterlimit:10;" cx="-5570.4" cy="-2223.7" r="2.9"/>
		</g>
		<path style="fill:none;stroke:#000000;stroke-miterlimit:10;" d="M-2334.9-1023.9h43.2c6.5,0,11.7,5.3,11.7,11.7v17
			c0,6.5-5.3,11.7-11.7,11.7h-43.2c-6.5,0-11.7-5.3-11.7-11.7v-17C-2346.7-1018.6-2341.4-1023.9-2334.9-1023.9z"/>
	</g>
	<g transform="matrix(.8 0 0 .8 822.4 -580.88)">
		
			<path shape-rendering="auto" color-rendering="auto" image-rendering="auto" style="fill:none;stroke:#000000;stroke-miterlimit:10;" d="
			M-760.9,40.1c-3.8,0.1-6.2,4.4-5.5,7.9c-0.1,26.1,0,52.1-0.1,78.3c-1.9,1.3-3.3,3.2-4.2,5.4h-113.4c-5.4-9.1-5.4-20.4-11.8-29
			c-3.2-4.4-8.7-7.4-14.2-6.3c-5.1,0.8-9.8,5-10.3,10.4c-0.8,6.1,3.3,12.7,9.6,13.6c2,0.5,4.2,0.4,6.2-0.2
			c2.3,7.2,4.1,14.6,8.4,20.9c1,18.9,9.7,36.9,22.6,50.7c16.3,17.6,38.1,29.2,60.8,36c2.7,0.8,5.5,1.6,8.2,2.3
			c-3.3,8.5-6.5,17.1-9.8,25.5c-16-2.2-32.8,9.3-36.1,25.2c-3.5,14.2,3.6,30.5,16.9,37.1c12.3,6.6,29,4.3,38.7-5.9
			c4.2-4.2,7.3-9.6,8.7-15.3c20.7,0,41.5-0.1,62.2,0.1c3.7,15.5,20.2,27,36.1,24.7c14.7-1.7,27.6-14.3,28.9-29.2
			c1.7-13.6-6.2-28.1-18.9-33.6c-6-2.7-12.8-3.8-19.2-2.7c-4.2-9.4-8.5-18.8-12.7-28.1c23.8-7.2,46.5-19.6,62.9-38.6
			c12.9-14.9,21-34.4,20.1-54.3c-1-20.9-11.2-40.6-26.3-54.9c-18.2-17.7-41.8-28.8-66.3-34.5C-733,41.7-747,40.2-760.9,40.1
			L-760.9,40.1z M-725.2,231.2c4.5,10.2,9.1,20.2,13.6,30.4c-6.2,4.7-10.8,11.5-12.6,19c-20.7-0.1-41.4,0.1-62-0.1
			c-1.9-7.9-6.8-15.1-13.5-19.6c3.6-9.3,7.2-18.6,10.8-28C-767.8,235.9-746.1,235.3-725.2,231.2L-725.2,231.2z"/>
		
			<path shape-rendering="auto" color-rendering="auto" image-rendering="auto" style="fill:none;stroke:#000000;stroke-miterlimit:10;" d="
			M-908.6,101.6c-4.3,0.1-7.4,5-5.7,9c1.3,3.9,6.9,5.6,10.2,2.9c1-0.7,1.7-1.7,2.2-2.7c4.3,9,5.1,19.5,11,27.7
			c2.4,3.1,6.5,5.3,10.4,4.4c0.8-0.5,0-1.6,0.2-2.4c0.1-0.8-0.7-1.9-1.7-1.4c-3.7,0.2-6.3-3.2-7.8-6.3c-4.3-8.5-5.1-18.4-10.2-26.5
			C-902,103.3-905.1,101.5-908.6,101.6L-908.6,101.6z"/>
		<path style="fill:none;stroke:#000000;stroke-miterlimit:10;" d="M-959.4,137.5v0.1h0.1L-959.4,137.5z"/>
		
			<path shape-rendering="auto" color-rendering="auto" image-rendering="auto" style="fill:none;stroke:#000000;stroke-miterlimit:10;" d="
			M-759.7,133c-1,0-1.8,0.5-2.2,1.4l-58.8,153.2c-0.5,1.1,0.1,2.4,1.3,2.9c0.2,0.1,0.5,0.1,0.8,0.1h127.8c1.2,0,2.2-1,2.2-2.2
			c0-0.4-0.1-0.6-0.2-0.8l-69-153.4C-758.2,133.4-758.9,133-759.7,133L-759.7,133z M-759.7,140.7l65.4,145.3h-121.2L-759.7,140.7z"
			/>
		
			<path shape-rendering="auto" color-rendering="auto" image-rendering="auto" style="fill:none;stroke:#000000;stroke-miterlimit:10;" d="
			M-908.3,101.6c-0.1,0-0.1,0-0.2,0c2.9,0.1,5.5,1.9,7.1,4.7c4.7,8.1,5.4,18,9.2,26.5c1.3,3.1,3.7,6.5,7.1,6.3
			c0.8-0.5,1.6,0.5,1.4,1.4c-0.2,0.7,0.6,1.8-0.1,2.4c-0.1,0-0.2,0-0.2,0.1c1.1,0.2,2.3,0.2,3.3-0.1c0.8-0.5,0-1.6,0.2-2.4
			c0.1-0.8-0.7-1.9-1.7-1.4c-3.7,0.2-6.3-3.2-7.8-6.3c-4.3-8.5-5.1-18.4-10.2-26.5C-902,103.4-905,101.6-908.3,101.6L-908.3,101.6z
			 M-903.3,110.7c-0.5,1.1-1.1,2-1.9,2.7c-1,0.8-2,1.2-3.2,1.3c1.4,0.1,3-0.4,4.2-1.3c0.6-0.5,1.1-1,1.4-1.6
			C-902.9,111.4-903.1,111.1-903.3,110.7L-903.3,110.7z"/>
		<path style="fill:none;stroke:#000000;stroke-miterlimit:10;" d="M-761.5,137.1L-761.5,137.1h-129.3c0,4.2,0.5,8.2,1.3,12.4
			c0.2,1.6,0.6,3,1,4.5c0.5,1.6,0.8,3,1.4,4.4l0,0c0.5,1.4,1,3,1.6,4.4s1.3,2.9,2,4.3c0.7,1.4,1.4,2.9,2.3,4.3l0,0
			c0.8,1.4,1.7,2.9,2.6,4.2l0,0c0.8,1.4,1.8,2.7,2.9,4.2c1.1,1.3,2.2,2.6,3.2,3.9c1.1,1.3,2.2,2.6,3.3,3.9c1.2,1.3,2.5,2.5,3.7,3.7
			c1.3,1.2,2.5,2.5,3.9,3.7s2.7,2.3,4.3,3.5l0,0c1.4,1.2,2.9,2.3,4.4,3.3c1.6,1.1,3.1,2.2,4.8,3.1c1.6,1.1,3.2,2,4.9,3l0,0
			c1.7,1,3.3,1.9,5.1,2.7l0,0c1.7,1,3.5,1.8,5.3,2.6s3.7,1.7,5.5,2.4c1.8,0.8,3.7,1.6,5.6,2.3c2.7,1,5.5,1.9,8.2,2.9
			c0.7,0.2,1.3,0.5,2,0.7c2,0.6,4.1,1.1,6.1,1.6c2,0.6,4.1,1.1,6.1,1.6c2,0.4,4.2,0.8,6.2,1.2s4.2,0.7,6.2,1.1
			c2.2,0.2,4.3,0.5,6.5,0.7l0,0c2.2,0.2,4.2,0.5,6.3,0.6c2.2,0.1,4.3,0.2,6.5,0.2c2.2,0.1,4.3,0.1,6.6,0.2l0,0c0.6,0,1.2,0,1.8,0
			l0,0c3.1,0,6.1-0.1,9.2-0.4l0,0c2.2-0.1,4.3-0.4,6.5-0.6c2.2-0.2,4.3-0.5,6.3-0.7c2.2-0.2,4.2-0.6,6.3-1l0,0
			c2.2-0.4,4.2-0.7,6.2-1.2c2-0.5,4.1-1,6.1-1.4l0,0c2-0.5,4.1-1.1,6.1-1.6c14.6-4.2,27.9-10.3,39.3-17.9c0.8-0.5,1.6-1,2.3-1.6
			c1.6-1.1,3-2.3,4.5-3.5c1.4-1.1,2.9-2.3,4.3-3.3c1.3-1.2,2.6-2.4,3.9-3.7l0,0c1.3-1.2,2.6-2.4,3.8-3.7c1.2-1.3,2.3-2.6,3.3-3.9
			c1.2-1.3,2.3-2.6,3.3-3.9c1-1.3,1.9-2.7,2.9-4.2l0,0c1-1.3,1.9-2.7,2.7-4.2c0.8-1.4,1.6-2.9,2.3-4.3l0,0c0.7-1.4,1.4-2.9,2.2-4.3
			c0.6-1.4,1.1-3,1.6-4.4c0.6-1.4,1.1-3,1.6-4.4c0.4-1.6,0.7-3,1-4.5c0.4-1.6,0.6-3,0.8-4.5c0.1-1.6,0.2-3.1,0.4-4.5l0,0
			c0.1-1.3,0.1-2.6,0.2-3.9H-761.5L-761.5,137.1z"/>
		<path style="fill:none;stroke:#000000;stroke-miterlimit:10;" d="M-759.6,136.8h127.3c-0.2-10.2-2.6-20.3-7.2-29.4
			c-2.2-4.8-5.1-9.1-8.1-13.3c-3.6-4.5-7.4-8.8-11.7-12.7c-1-1.2-1.9-2-3.2-0.7C-694.8,99.4-727.2,118-759.6,136.8L-759.6,136.8z"/>
		<path style="fill:none;stroke:#000000;stroke-miterlimit:10;" d="M-759.5,135.7c32.6-18.9,65.3-37.7,97.9-56.5
			c-4.8-4.1-9.9-7.8-15.3-11.1c-4.5-2.9-9.3-5.3-14.1-7.5c-6.5-3-13-5.4-19.8-7.5c-1.4-0.7-1.6,1.8-2.4,2.6
			C-728.8,82.3-744.2,109-759.5,135.7L-759.5,135.7z"/>
		<path style="fill:none;stroke:#000000;stroke-miterlimit:10;" d="M-760.7,135.9c16-27.9,32.2-55.6,48.2-83.4
			c-7.2-1.9-14.3-3.6-21.8-4.7c-5.9-1-11.8-1.4-17.8-1.8c-2.9-0.1-5.7-0.2-8.6-0.4L-760.7,135.9L-760.7,135.9z"/>
		<circle style="fill:none;stroke:#000000;stroke-miterlimit:10;" cx="-760" cy="135.6" r="5.7"/>
		<path style="fill:none;stroke:#000000;stroke-miterlimit:10;" d="M-818.3,260.6c-15.2,0-27.4,12.3-27.4,27.4
			c0,15.2,12.3,27.4,27.4,27.4l0,0c15.2,0,27.4-12.3,27.4-27.4l0,0C-790.8,272.9-803.1,260.6-818.3,260.6z M-819.4,267.2v18.3
			l-12.9-12.9C-828.7,269.3-824.2,267.4-819.4,267.2L-819.4,267.2z M-817.2,267.2c4.8,0.2,9.3,2.2,12.9,5.4l-12.9,12.9V267.2
			L-817.2,267.2z M-833.9,274l12.9,12.9h-18.3C-838.9,282.1-837.1,277.6-833.9,274z M-802.8,274c3.2,3.6,5.1,8.1,5.4,12.9h-18.3
			L-802.8,274z M-839.2,289.2h18.3l-12.9,12.9C-837.1,298.5-838.9,294-839.2,289.2z M-815.7,289.2h18.3c-0.2,4.8-2.2,9.3-5.4,12.9
			L-815.7,289.2L-815.7,289.2z M-819.4,290.7V309c-4.8-0.2-9.3-2.2-12.9-5.4L-819.4,290.7L-819.4,290.7z M-817.2,290.7l12.9,12.9
			c-3.6,3.2-8.1,5.1-12.9,5.4V290.7L-817.2,290.7z"/>
		<path style="fill:none;stroke:#000000;stroke-miterlimit:10;" d="M-692,260.6c-15.2,0-27.4,12.3-27.4,27.4
			c0,15.2,12.3,27.4,27.4,27.4l0,0c15.2,0,27.4-12.3,27.4-27.4C-664.5,272.9-676.8,260.6-692,260.6z M-693,267.2v18.3l-12.9-12.9
			C-702.4,269.3-697.8,267.4-693,267.2L-693,267.2z M-690.8,267.2c4.8,0.2,9.3,2.2,12.9,5.4l-12.9,12.9V267.2L-690.8,267.2z
			 M-707.5,274l12.9,12.9h-18.3C-712.5,282.1-710.6,277.6-707.5,274z M-676.3,274c3.2,3.6,5.1,8.1,5.4,12.9h-18.3L-676.3,274z
			 M-712.8,289.2h18.3l-12.9,12.9C-710.6,298.5-712.5,294-712.8,289.2z M-689.2,289.2h18.3c-0.2,4.8-2.2,9.3-5.4,12.9L-689.2,289.2z
			 M-693,290.7V309c-4.8-0.2-9.3-2.2-12.9-5.4L-693,290.7L-693,290.7z M-690.8,290.7l12.9,12.9c-3.6,3.2-8.1,5.1-12.9,5.4V290.7z"/>
		<path style="fill:none;stroke:#000000;stroke-miterlimit:10;" d="M-760.2,46.1c-0.4,0-0.6,0-0.8,0.2c13.5,0.6,26.8,2.9,39.8,6.7
			c-0.1,0.2-0.2,0.5-0.4,0.6c0.2-0.2,0.5-0.4,0.7-0.4c0.8,0.1,1.6,0.5,2.4,0.7c1.6,0.5,3.1,1.1,4.7,1.7c0.1-0.2,0.2-0.4,0.4-0.6
			c-0.1,0.2-0.1,0.4-0.2,0.6c14.7,5.5,28.7,13.5,40.5,24.3c-0.2,0.1-0.4,0.2-0.6,0.4c0.1,0,0.1,0,0.2,0c0.4,0,0.7,0.1,1.1,0.4
			c5.1,5,9.9,10.4,13.9,16.5c8,11.7,12.6,26.1,12.8,40.5h-0.5c0,1.3-0.1,2.6-0.2,3.9l0,0c0,1.6-0.1,3.1-0.4,4.5
			c-0.2,1.6-0.5,3-0.8,4.5c-0.2,1.6-0.6,3-1,4.5c-0.5,1.4-1,3-1.4,4.4c-0.5,1.4-1,3-1.6,4.4s-1.3,2.9-2,4.3l0,0
			c-0.6,1.4-1.3,2.9-2.2,4.3s-1.7,2.7-2.5,4.2l0,0c-0.8,1.4-1.7,2.7-2.6,4.2c-1,1.3-2,2.6-3.1,3.9c-1,1.3-2,2.6-3.2,3.9
			c-1.2,1.2-2.4,2.5-3.6,3.7l0,0c-1.2,1.2-2.4,2.4-3.7,3.6s-2.6,2.3-4.1,3.3c-1.4,1.2-2.7,2.3-4.3,3.5c-0.7,0.5-1.4,1-2.2,1.6
			c-10.8,7.6-23.3,13.6-37.1,17.9c-1.9,0.6-3.8,1.1-5.7,1.6l0,0c-1.9,0.5-3.8,1-5.7,1.4s-3.9,0.8-5.9,1.2l0,0c-1.9,0.4-3.9,0.7-6,1
			c-2,0.2-4.1,0.5-6,0.7c-2,0.2-4.1,0.4-6.1,0.6l0,0c-2.4,0.1-4.8,0.2-7.2,0.4c1.2,0,2.3,0.1,3.5,0.1l0,0c0.6,0,1.2,0,1.7,0l0,0
			c3,0,6.1-0.1,9.1-0.4l0,0c2.2-0.1,4.3-0.4,6.3-0.6c2.2-0.2,4.2-0.5,6.3-0.7s4.2-0.6,6.2-1l0,0c2-0.4,4.2-0.7,6.2-1.2
			c2-0.5,4.1-1,6.1-1.4l0,0c2-0.5,4.1-1.1,6-1.6c14.5-4.2,27.6-10.3,39.1-17.9c0.7-0.5,1.6-1,2.3-1.6c1.6-1.1,3-2.3,4.4-3.5
			c1.4-1.1,2.9-2.3,4.3-3.3c1.3-1.2,2.6-2.4,3.8-3.6l0,0c1.3-1.2,2.6-2.4,3.8-3.7c1.2-1.3,2.3-2.6,3.3-3.9c1.2-1.3,2.3-2.6,3.2-3.9
			c1-1.3,1.9-2.7,2.7-4.2l0,0c1-1.3,1.8-2.7,2.7-4.2c0.8-1.4,1.6-2.9,2.2-4.3l0,0c0.7-1.4,1.4-2.9,2.2-4.3c0.6-1.4,1.1-3,1.6-4.4
			c0.6-1.4,1.1-3,1.6-4.4c0.4-1.6,0.7-3,1-4.5c0.4-1.6,0.6-3,0.8-4.5c0.1-1.6,0.2-3,0.4-4.5l0,0c0.1-1.3,0.1-2.6,0.2-3.9h0.5
			c-0.2-14.5-5-28.8-13.4-40.5c-4.2-6.1-9.2-11.5-14.6-16.5c-0.4-0.2-0.7-0.4-1.2-0.4c-0.1,0-0.1,0-0.2,0c0.2-0.1,0.4-0.2,0.6-0.4
			c-13.9-12-30.4-20.4-47.7-25.9c-0.8-0.2-1.7-0.6-2.5-0.7c-0.4,0-0.6,0.2-0.8,0.4c0.1-0.2,0.2-0.5,0.4-0.6
			c-14.8-4.2-30.1-6.6-45.5-6.8C-758.4,46.3-759.5,46.1-760.2,46.1L-760.2,46.1z M-722.3,55c-0.2,0.5-0.5,0.8-0.7,1.3
			C-722.8,56-722.6,55.5-722.3,55z M-675.5,81.2c-0.4,0.2-0.8,0.5-1.2,0.7C-676.3,81.8-675.8,81.6-675.5,81.2z M-664.1,81.2
			c-0.4,0.4-0.8,0.6-1.3,0.7C-665,81.8-664.5,81.4-664.1,81.2z"/>
		<path style="fill:none;stroke:#000000;stroke-miterlimit:10;" d="M-760,129.8c-0.2,0-0.4,0-0.6,0c2.4,0.4,4.1,2.7,4.1,5.7
			s-1.8,5.4-4.2,5.7c0.2,0,0.4,0,0.6,0c3.1,0,5.7-2.5,5.7-5.7l0,0C-754.2,132.5-756.8,129.8-760,129.8L-760,129.8L-760,129.8z"/>
		<path style="fill:none;stroke:#000000;stroke-miterlimit:10;" d="M-692,260.6c-0.1,0-0.2,0-0.5,0c14.3,0.4,25.8,12.6,25.8,27.4
			c0,14.9-11.6,27.1-25.9,27.4c0.2,0,0.4,0,0.6,0c15.2,0,27.4-12.3,27.4-27.4C-664.5,272.9-676.8,260.6-692,260.6L-692,260.6z
			 M-694,267.2c-4.7,0.2-9,2.2-12.4,5.4l12.4,12.9v-1l-12-12C-702.6,269.6-698.4,267.7-694,267.2L-694,267.2L-694,267.2z
			 M-691.8,267.2v18.3l1.1-1.1v-17.1C-691.1,267.2-691.5,267.2-691.8,267.2L-691.8,267.2z M-707.9,274c-3.1,3.6-4.9,8.1-5.1,12.9
			h0.2c0.2-4.7,2-9.1,5.1-12.7L-707.9,274L-707.9,274z M-678,274l-12.4,12.9h1.1l12.1-12.1C-677.5,274.6-677.7,274.4-678,274
			L-678,274z M-713,289.2c0.2,4.8,2,9.3,5.1,12.9l0.2-0.2c-3.1-3.5-4.9-8-5.1-12.7H-713L-713,289.2z M-690.4,289.2l12.4,12.9
			c0.2-0.2,0.5-0.6,0.7-0.8l-12.1-12.1H-690.4L-690.4,289.2z M-694,290.7l-12.4,12.9c3.5,3.2,7.8,5.1,12.4,5.4v-0.1
			c-4.4-0.5-8.6-2.3-12-5.3l12-12V290.7L-694,290.7z M-691.8,290.7V309c0.4,0,0.7,0,1.1-0.1v-17.1L-691.8,290.7L-691.8,290.7z"/>
		<path style="fill:none;stroke:#000000;stroke-miterlimit:10;" d="M-818.3,260.6c-0.1,0-0.1,0-0.2,0c14.7,0.2,26.4,12.4,26.4,27.4
			c0,15.1-11.8,27.3-26.5,27.4c0.1,0,0.2,0,0.4,0c15.2,0,27.4-12.3,27.4-27.4C-790.8,272.9-803.1,260.6-818.3,260.6L-818.3,260.6z
			 M-820,267.2c-4.7,0.2-9.1,2.2-12.6,5.4l12.6,12.9v-0.6l-12.3-12.3C-828.8,269.5-824.5,267.5-820,267.2L-820,267.2L-820,267.2z
			 M-817.8,267.2v18.3l0.6-0.7v-17.5C-817.4,267.2-817.6,267.2-817.8,267.2L-817.8,267.2z M-834.1,274c-3.1,3.6-5,8.1-5.3,12.9h0.1
			c0.2-4.7,2-9.2,5.3-12.8L-834.1,274L-834.1,274z M-803.7,274l-12.6,12.9h0.7l12.3-12.3C-803.4,274.4-803.6,274.2-803.7,274
			L-803.7,274z M-839.3,289.2c0.2,4.8,2.2,9.3,5.3,12.9l0.1-0.1c-3.1-3.6-5-8-5.3-12.8H-839.3L-839.3,289.2z M-816.3,289.2
			l12.6,12.9c0.1-0.2,0.2-0.4,0.5-0.6l-12.3-12.3H-816.3L-816.3,289.2z M-820,290.7l-12.6,12.9c3.5,3.2,7.9,5.1,12.6,5.4v-0.1
			c-4.5-0.4-8.8-2.3-12.3-5.3l12.3-12.3V290.7L-820,290.7z M-817.8,290.7V309c0.2,0,0.5,0,0.6-0.1v-17.6L-817.8,290.7L-817.8,290.7z
			"/>
	</g>
	<g transform="matrix(.52331 0 0 .51905 -273.36 774.01)">
		<path style="fill:none;stroke:#000000;stroke-miterlimit:10;" d="M268.1-2062c-7.6,0.4-13.1,8.6-11.8,15.9c-0.1,5.6,0,11.1,0,16.7
			c-55.9,55.9-111.9,111.9-167.8,167.8c-4.9-5.5-12.7-9.3-20-7.3c-6.3,2.4-9.4,9.9-8.4,16.4c-0.2,30.7,0.1,61.4-0.1,92.2
			c-4.1,1.2-5.7,5.5-8.2,8.5c-2,3-2.3,7.1-0.6,10.3c14.9,42.8,45.5,80.3,85.7,102c15.8,8.1,33.9,13.3,51.6,10
			c12-2.4,22.8-9.7,29.6-19.8c3.1-3.3,4.7-8.6,2.4-12.8c-1.4-4.3-2.9-9.1-6.6-11.8c0.2-2.9-1.3-6.5,1.4-8.4
			c47-46.9,93.8-93.8,140.8-140.7c14.9,3.9,32,3,45.2-5.6c6.7-4.8,12.3-11.1,16.1-18.4c1.1-5.3-1.8-10.2-3.7-14.8
			c-1-1.8-2.3-3.3-3.9-4.5c-0.1-35.9,0.6-71.7-0.4-107.6c-1.7-9.9-10.9-17.8-20.7-18.9c-2.6-0.1-5.4,0.5-7.6,2
			c-16.7-15.9-33.8-32.6-55.2-42.2c-11.4-5-23.5-7.8-35.7-9.8C288.2-2053.3,278.6-2061.7,268.1-2062L268.1-2062z M131.6-1703.1
			c6.9,3.9,14.2,8.1,20.9,12.1c-8.5-2-16-6.9-22.7-12.4c-0.5-0.5-3.5-2.9-1.6-1.7C129.3-1704.4,130.4-1703.7,131.6-1703.1
			L131.6-1703.1z"/>
		<g transform="translate(2233 -129)">
			<g transform="matrix(1 .57735 0 1 -678.82 -313.57)">
				<path style="fill:none;stroke:#000000;stroke-miterlimit:10;" d="M-1162.6-868.5h2.3c3.6,0,6.5,2.9,6.5,6.5v108.8
					c0,3.6-2.9,6.5-6.5,6.5h-2.3c-3.6,0-6.5-2.9-6.5-6.5V-862C-1169.2-865.6-1166.2-868.5-1162.6-868.5z"/>
				<path style="fill:none;stroke:#000000;stroke-miterlimit:10;" d="M-1281.8-868.6h2c3.6,0,6.5,2.9,6.5,6.5v108.8
					c0,3.6-2.9,6.5-6.5,6.5h-2c-3.6,0-6.5-2.9-6.5-6.5v-108.8C-1288.4-865.6-1285.4-868.6-1281.8-868.6z"/>
				<g transform="translate(4)">
					<path style="fill:none;stroke:#000000;stroke-miterlimit:10;" d="M-1269.7-819.2h0.5c1.1,0,2,1,2,2v38.5c0,1.1-1,2-2,2h-0.5
						c-1.1,0-2-1-2-2v-38.5C-1271.7-818.4-1270.9-819.2-1269.7-819.2z"/>
					<path style="fill:none;stroke:#000000;stroke-miterlimit:10;" d="M-1248.1-823.3L-1248.1-823.3c1.3,0,2.3,1,2.3,2.3v42.2
						c0,1.2-1,2.3-2.3,2.3l0,0c-1.2,0-2.3-1-2.3-2.3V-821C-1250.4-822.4-1249.3-823.3-1248.1-823.3z"/>
					<path style="fill:none;stroke:#000000;stroke-miterlimit:10;" d="M-1201-823.3L-1201-823.3c1.3,0,2.3,1,2.3,2.3v42.2
						c0,1.2-1,2.3-2.3,2.3l0,0c-1.2,0-2.3-1-2.3-2.3V-821C-1203.2-822.4-1202.2-823.3-1201-823.3z"/>
					<path style="fill:none;stroke:#000000;stroke-miterlimit:10;" d="M-1181.2-819.7h0.4c1.2,0,2,1,2,2v39c0,1.2-1,2-2,2h-0.4
						c-1.2,0-2-1-2-2v-39C-1183.2-818.8-1182.4-819.7-1181.2-819.7z"/>
					<path style="fill:none;stroke:#000000;stroke-miterlimit:10;" d="M-1224.1-824.7L-1224.1-824.7c1.2,0,2.3,1.1,2.3,2.3v43.4
						c0,1.3-1,2.3-2.3,2.3l0,0c-1.2,0-2.3-1.1-2.3-2.3v-43.4C-1226.4-823.7-1225.3-824.7-1224.1-824.7z"/>
				</g>
				<path style="fill:none;stroke:#000000;stroke-miterlimit:10;" d="M-1295.5-752.3c-1,2-1.9,4.2-2.7,6.2c11,0.4,22.1-0.1,33.1,0.2
					h0.1c1.6-2.3,3.3-4.4,5.4-6.5H-1295.5L-1295.5-752.3z M-1184.9-752.3c1.7,2.2,3.5,4.2,5,6.3h33.5c-0.8-2.2-1.8-4.3-2.7-6.3
					H-1184.9z"/>
				<path style="fill:none;stroke:#000000;stroke-miterlimit:10;" d="M-1265.1-746.3c-11,0.4-22.1-0.1-33.1,0.2
					c9.3,24.7,31.9,43.4,57.6,49c25.7,5.9,54.1-1.2,73.8-19.1c9.1-8.2,16.3-18.5,20.6-29.9h-33.5c-11.8,17.9-35.9,26.4-56.4,20.3
					c-11.6-3.2-21.9-10.6-28.7-20.4C-1264.9-746.3-1265.1-746.3-1265.1-746.3L-1265.1-746.3z"/>
				<path style="fill:none;stroke:#000000;stroke-miterlimit:10;" d="M-1259.7-752.3c20.1,30.7,60.5,24,74.8,0l5,6.1
					c-16,26.9-62,32.9-85.1-0.1L-1259.7-752.3z"/>
				<polygon style="fill:none;stroke:#000000;stroke-miterlimit:10;" points="-1279.4,-780.4 -1168.7,-780.4 -1168.7,-759.6 
					-1279.4,-759.6 				"/>
				<path style="fill:none;stroke:#000000;stroke-miterlimit:10;" d="M-1222.5-871.4c-24,0.1-54.1,16.4-54.1,16.4v34.4
					c42.2-12.1,78.1-9.7,110.7,0V-855c0,0-36.5-16-55.3-16.4C-1221.8-871.4-1222.1-871.4-1222.5-871.4L-1222.5-871.4z M-1228-860.6
					c3.1,0,6.2,2,6.6,7.2c1-10.8,13.6-7.7,13.6-1.3c0,12.1-13.6,16.9-13.6,16.9s-13.5-4.8-13.5-16.9
					C-1234.9-858.2-1231.5-860.7-1228-860.6z"/>
				<path style="fill:none;stroke:#000000;stroke-miterlimit:10;" d="M-1282.2-865.5L-1282.2-865.5c3.5,0,6.3,2.9,6.3,6.3V-753
					c0,3.5-2.9,6.3-6.3,6.3l0,0c-3.5,0-6.3-2.9-6.3-6.3v-106.1C-1288.5-862.6-1285.6-865.5-1282.2-865.5z"/>
				<path style="fill:none;stroke:#000000;stroke-miterlimit:10;" d="M-1162.4-865.5L-1162.4-865.5c3.5,0,6.3,2.9,6.3,6.3V-753
					c0,3.5-2.9,6.3-6.3,6.3l0,0c-3.5,0-6.3-2.9-6.3-6.3v-106.1C-1168.7-862.6-1166-865.5-1162.4-865.5z"/>
				<polygon style="fill:none;stroke:#000000;stroke-miterlimit:10;" points="-1279.4,-776.7 -1168.7,-776.7 -1168.7,-755.8 
					-1279.4,-755.8 				"/>
				<path style="fill:none;stroke:#000000;stroke-miterlimit:10;" d="M-1222.5-867.3c-24,0.1-54.1,16.4-54.1,16.4v34.4
					c42.2-12.1,78.1-9.7,110.7,0v-34.4c0,0-36.5-16-55.3-16.4C-1221.8-867.3-1222.1-867.3-1222.5-867.3L-1222.5-867.3z M-1228-856.7
					c3.1,0,6.2,2,6.6,7.2c1-10.8,13.6-7.7,13.6-1.3c0,12.1-13.6,16.9-13.6,16.9s-13.5-4.8-13.5-16.9
					C-1234.9-854.3-1231.5-856.7-1228-856.7z"/>
				<g>
					<path style="fill:none;stroke:#000000;stroke-miterlimit:10;" d="M-1267-819.2h0.5c1.1,0,2,1,2,2v38.5c0,1.1-1,2-2,2h-0.5
						c-1.1,0-2-1-2-2v-38.5C-1269-818.4-1268-819.2-1267-819.2z"/>
					<path style="fill:none;stroke:#000000;stroke-miterlimit:10;" d="M-1245.5-823.3L-1245.5-823.3c1.3,0,2.3,1,2.3,2.3v42.2
						c0,1.2-1,2.3-2.3,2.3l0,0c-1.2,0-2.3-1-2.3-2.3V-821C-1247.7-822.4-1246.7-823.3-1245.5-823.3z"/>
					<path style="fill:none;stroke:#000000;stroke-miterlimit:10;" d="M-1198.2-823.3L-1198.2-823.3c1.3,0,2.3,1,2.3,2.3v42.2
						c0,1.2-1,2.3-2.3,2.3l0,0c-1.2,0-2.3-1-2.3-2.3V-821C-1200.5-822.4-1199.6-823.3-1198.2-823.3z"/>
					<path style="fill:none;stroke:#000000;stroke-miterlimit:10;" d="M-1178.5-819.7h0.4c1.2,0,2,1,2,2v39c0,1.2-1,2-2,2h-0.4
						c-1.2,0-2-1-2-2v-39C-1180.6-818.8-1179.6-819.7-1178.5-819.7z"/>
					<path style="fill:none;stroke:#000000;stroke-miterlimit:10;" d="M-1221.3-824.7L-1221.3-824.7c1.2,0,2.3,1.1,2.3,2.3v43.4
						c0,1.3-1,2.3-2.3,2.3l0,0c-1.2,0-2.3-1.1-2.3-2.3v-43.4C-1223.6-823.7-1222.6-824.7-1221.3-824.7z"/>
				</g>
			</g>
			<g transform="matrix(1 -1 0 1 -1838.5 -392.86)">
				<polygon style="fill:none;stroke:#000000;stroke-miterlimit:10;" points="-315.4,-1560 -125.9,-1560 -125.9,-1539.1 
					-315.4,-1539.1 				"/>
				<polygon style="fill:none;stroke:#000000;stroke-miterlimit:10;" points="-315.5,-1565.6 -125.9,-1565.6 -125.9,-1558.8 
					-315.5,-1558.8 				"/>
				<g transform="translate(6)">
					<path style="fill:none;stroke:#000000;stroke-miterlimit:10;" d="M-309.8-1605.7h0.1c1.2,0,2.2,1,2.2,2.2v41.5
						c0,1.2-1,2.2-2.2,2.2h-0.1c-1.2,0-2.2-1-2.2-2.2v-41.5C-311.9-1604.7-311-1605.7-309.8-1605.7z"/>
					<path style="fill:none;stroke:#000000;stroke-miterlimit:10;" d="M-287.3-1605.7h0.1c1.2,0,2.2,1,2.2,2.2v41.5
						c0,1.2-1,2.2-2.2,2.2h-0.1c-1.2,0-2.2-1-2.2-2.2v-41.5C-289.5-1604.7-288.5-1605.7-287.3-1605.7z"/>
					<path style="fill:none;stroke:#000000;stroke-miterlimit:10;" d="M-265.4-1605.7h0.1c1.2,0,2.2,1,2.2,2.2v41.5
						c0,1.2-1,2.2-2.2,2.2h-0.1c-1.2,0-2.2-1-2.2-2.2v-41.5C-267.7-1604.7-266.7-1605.7-265.4-1605.7z"/>
					<path style="fill:none;stroke:#000000;stroke-miterlimit:10;" d="M-243.1-1605.7h0.1c1.2,0,2.2,1,2.2,2.2v41.5
						c0,1.2-1,2.2-2.2,2.2h-0.1c-1.2,0-2.2-1-2.2-2.2v-41.5C-245.2-1604.7-244.3-1605.7-243.1-1605.7z"/>
					<path style="fill:none;stroke:#000000;stroke-miterlimit:10;" d="M-220.6-1605.7h0.1c1.2,0,2.2,1,2.2,2.2v41.5
						c0,1.2-1,2.2-2.2,2.2h-0.1c-1.2,0-2.2-1-2.2-2.2v-41.5C-222.8-1604.7-221.8-1605.7-220.6-1605.7z"/>
					<path style="fill:none;stroke:#000000;stroke-miterlimit:10;" d="M-198.1-1605.7h0.1c1.2,0,2.2,1,2.2,2.2v41.5
						c0,1.2-1,2.2-2.2,2.2h-0.1c-1.2,0-2.2-1-2.2-2.2v-41.5C-200.4-1604.7-199.3-1605.7-198.1-1605.7z"/>
					<path style="fill:none;stroke:#000000;stroke-miterlimit:10;" d="M-175.7-1605.7h0.1c1.2,0,2.2,1,2.2,2.2v41.5
						c0,1.2-1,2.2-2.2,2.2h-0.1c-1.2,0-2.2-1-2.2-2.2v-41.5C-177.9-1604.7-176.9-1605.7-175.7-1605.7z"/>
					<path style="fill:none;stroke:#000000;stroke-miterlimit:10;" d="M-155.2-1605.7h0.1c1.2,0,2.2,1,2.2,2.2v41.5
						c0,1.2-1,2.2-2.2,2.2h-0.1c-1.2,0-2.2-1-2.2-2.2v-41.5C-157.4-1604.7-156.4-1605.7-155.2-1605.7z"/>
					<path style="fill:none;stroke:#000000;stroke-miterlimit:10;" d="M-136-1605.7h0.1c1.2,0,2.2,1,2.2,2.2v41.5
						c0,1.2-1,2.2-2.2,2.2h-0.1c-1.2,0-2.2-1-2.2-2.2v-41.5C-138.1-1604.7-137.2-1605.7-136-1605.7z"/>
				</g>
				<g>
					<path style="fill:none;stroke:#000000;stroke-miterlimit:10;" d="M-305.6-1605.7h0.1c1.2,0,2.2,1,2.2,2.2v41.5
						c0,1.2-1,2.2-2.2,2.2h-0.1c-1.2,0-2.2-1-2.2-2.2v-41.5C-307.8-1604.7-306.9-1605.7-305.6-1605.7z"/>
					<path style="fill:none;stroke:#000000;stroke-miterlimit:10;" d="M-283.2-1605.7h0.1c1.2,0,2.2,1,2.2,2.2v41.5
						c0,1.2-1,2.2-2.2,2.2h-0.1c-1.2,0-2.2-1-2.2-2.2v-41.5C-285.4-1604.7-284.4-1605.7-283.2-1605.7z"/>
					<path style="fill:none;stroke:#000000;stroke-miterlimit:10;" d="M-261.3-1605.7h0.1c1.2,0,2.2,1,2.2,2.2v41.5
						c0,1.2-1,2.2-2.2,2.2h-0.1c-1.2,0-2.2-1-2.2-2.2v-41.5C-263.6-1604.7-262.5-1605.7-261.3-1605.7z"/>
					<path style="fill:none;stroke:#000000;stroke-miterlimit:10;" d="M-239-1605.7h0.1c1.2,0,2.2,1,2.2,2.2v41.5
						c0,1.2-1,2.2-2.2,2.2h-0.1c-1.2,0-2.2-1-2.2-2.2v-41.5C-241.1-1604.7-240.2-1605.7-239-1605.7z"/>
					<path style="fill:none;stroke:#000000;stroke-miterlimit:10;" d="M-216.5-1605.7h0.1c1.2,0,2.2,1,2.2,2.2v41.5
						c0,1.2-1,2.2-2.2,2.2h-0.1c-1.2,0-2.2-1-2.2-2.2v-41.5C-218.7-1604.7-217.7-1605.7-216.5-1605.7z"/>
					<path style="fill:none;stroke:#000000;stroke-miterlimit:10;" d="M-194-1605.7h0.1c1.2,0,2.2,1,2.2,2.2v41.5
						c0,1.2-1,2.2-2.2,2.2h-0.1c-1.2,0-2.2-1-2.2-2.2v-41.5C-196.2-1604.7-195.2-1605.7-194-1605.7z"/>
					<path style="fill:none;stroke:#000000;stroke-miterlimit:10;" d="M-171.6-1605.7h0.1c1.2,0,2.2,1,2.2,2.2v41.5
						c0,1.2-1,2.2-2.2,2.2h-0.1c-1.2,0-2.2-1-2.2-2.2v-41.5C-173.8-1604.7-172.8-1605.7-171.6-1605.7z"/>
					<path style="fill:none;stroke:#000000;stroke-miterlimit:10;" d="M-151.1-1605.7h0.1c1.2,0,2.2,1,2.2,2.2v41.5
						c0,1.2-1,2.2-2.2,2.2h-0.1c-1.2,0-2.2-1-2.2-2.2v-41.5C-153.3-1604.7-152.3-1605.7-151.1-1605.7z"/>
					<path style="fill:none;stroke:#000000;stroke-miterlimit:10;" d="M-131.9-1605.7h0.1c1.2,0,2.2,1,2.2,2.2v41.5
						c0,1.2-1,2.2-2.2,2.2h-0.1c-1.2,0-2.2-1-2.2-2.2v-41.5C-134-1604.7-133.1-1605.7-131.9-1605.7z"/>
				</g>
				<polygon style="fill:none;stroke:#000000;stroke-miterlimit:10;" points="-314.5,-1632.3 -125,-1632.3 -125,-1625.5 
					-314.5,-1625.5 				"/>
				<g>
					<path style="fill:none;stroke:#000000;stroke-miterlimit:10;" d="M-305.6-1605.7h0.1c1.2,0,2.2,1,2.2,2.2v41.5
						c0,1.2-1,2.2-2.2,2.2h-0.1c-1.2,0-2.2-1-2.2-2.2v-41.5C-307.8-1604.7-306.9-1605.7-305.6-1605.7z"/>
					<path style="fill:none;stroke:#000000;stroke-miterlimit:10;" d="M-283.2-1605.7h0.1c1.2,0,2.2,1,2.2,2.2v41.5
						c0,1.2-1,2.2-2.2,2.2h-0.1c-1.2,0-2.2-1-2.2-2.2v-41.5C-285.4-1604.7-284.4-1605.7-283.2-1605.7z"/>
					<path style="fill:none;stroke:#000000;stroke-miterlimit:10;" d="M-261.3-1605.7h0.1c1.2,0,2.2,1,2.2,2.2v41.5
						c0,1.2-1,2.2-2.2,2.2h-0.1c-1.2,0-2.2-1-2.2-2.2v-41.5C-263.6-1604.7-262.5-1605.7-261.3-1605.7z"/>
					<path style="fill:none;stroke:#000000;stroke-miterlimit:10;" d="M-239-1605.7h0.1c1.2,0,2.2,1,2.2,2.2v41.5
						c0,1.2-1,2.2-2.2,2.2h-0.1c-1.2,0-2.2-1-2.2-2.2v-41.5C-241.1-1604.7-240.2-1605.7-239-1605.7z"/>
					<path style="fill:none;stroke:#000000;stroke-miterlimit:10;" d="M-216.5-1605.7h0.1c1.2,0,2.2,1,2.2,2.2v41.5
						c0,1.2-1,2.2-2.2,2.2h-0.1c-1.2,0-2.2-1-2.2-2.2v-41.5C-218.7-1604.7-217.7-1605.7-216.5-1605.7z"/>
					<path style="fill:none;stroke:#000000;stroke-miterlimit:10;" d="M-194-1605.7h0.1c1.2,0,2.2,1,2.2,2.2v41.5
						c0,1.2-1,2.2-2.2,2.2h-0.1c-1.2,0-2.2-1-2.2-2.2v-41.5C-196.2-1604.7-195.2-1605.7-194-1605.7z"/>
					<path style="fill:none;stroke:#000000;stroke-miterlimit:10;" d="M-171.6-1605.7h0.1c1.2,0,2.2,1,2.2,2.2v41.5
						c0,1.2-1,2.2-2.2,2.2h-0.1c-1.2,0-2.2-1-2.2-2.2v-41.5C-173.8-1604.7-172.8-1605.7-171.6-1605.7z"/>
					<path style="fill:none;stroke:#000000;stroke-miterlimit:10;" d="M-151.1-1605.7h0.1c1.2,0,2.2,1,2.2,2.2v41.5
						c0,1.2-1,2.2-2.2,2.2h-0.1c-1.2,0-2.2-1-2.2-2.2v-41.5C-153.3-1604.7-152.3-1605.7-151.1-1605.7z"/>
					<path style="fill:none;stroke:#000000;stroke-miterlimit:10;" d="M-131.9-1605.7h0.1c1.2,0,2.2,1,2.2,2.2v41.5
						c0,1.2-1,2.2-2.2,2.2h-0.1c-1.2,0-2.2-1-2.2-2.2v-41.5C-134-1604.7-133.1-1605.7-131.9-1605.7z"/>
				</g>
				<polygon style="fill:none;stroke:#000000;stroke-miterlimit:10;" points="-314.5,-1626.2 -125,-1626.2 -125,-1605.3 
					-314.5,-1605.3 				"/>
			</g>
			<path style="fill:none;stroke:#000000;stroke-miterlimit:10;" d="M-1958.4-1820.1l109.8,63.5l-188.3,188.3l-113-65.3l188.5-188.5
				L-1958.4-1820.1z"/>
			<g transform="matrix(1 .57735 0 1 -1297 292.52)">
				<path style="fill:none;stroke:#000000;stroke-miterlimit:10;" d="M-740.7-1525.9h2.3c3.6,0,6.5,2.9,6.5,6.5v108.8
					c0,3.6-2.9,6.5-6.5,6.5h-2.3c-3.6,0-6.5-2.9-6.5-6.5v-108.8C-747.1-1523-744.3-1525.9-740.7-1525.9z"/>
				<path style="fill:none;stroke:#000000;stroke-miterlimit:10;" d="M-859.9-1525.9h2c3.6,0,6.5,2.9,6.5,6.5v108.8
					c0,3.6-2.9,6.5-6.5,6.5h-2c-3.6,0-6.5-2.9-6.5-6.5v-108.8C-866.4-1523-863.4-1525.9-859.9-1525.9z"/>
				<g transform="translate(4)">
					<path style="fill:none;stroke:#000000;stroke-miterlimit:10;" d="M-847.7-1476.6h0.5c1.1,0,2,1,2,2v38.5c0,1.1-1,2-2,2h-0.5
						c-1.1,0-2-1-2-2v-38.5C-849.8-1475.6-848.8-1476.6-847.7-1476.6z"/>
					<path style="fill:none;stroke:#000000;stroke-miterlimit:10;" d="M-826.2-1480.7L-826.2-1480.7c1.3,0,2.3,1,2.3,2.3v42.2
						c0,1.2-1,2.3-2.3,2.3l0,0c-1.2,0-2.3-1-2.3-2.3v-42.2C-828.5-1479.7-827.4-1480.7-826.2-1480.7z"/>
					<path style="fill:none;stroke:#000000;stroke-miterlimit:10;" d="M-779-1480.7L-779-1480.7c1.3,0,2.3,1,2.3,2.3v42.2
						c0,1.2-1,2.3-2.3,2.3l0,0c-1.2,0-2.3-1-2.3-2.3v-42.2C-781.3-1479.7-780.3-1480.7-779-1480.7z"/>
					<path style="fill:none;stroke:#000000;stroke-miterlimit:10;" d="M-759.3-1477.1h0.4c1.2,0,2,1,2,2v39c0,1.2-1,2-2,2h-0.4
						c-1.2,0-2-1-2-2v-39C-761.3-1476.1-760.3-1477.1-759.3-1477.1z"/>
					<path style="fill:none;stroke:#000000;stroke-miterlimit:10;" d="M-802.2-1482.1L-802.2-1482.1c1.2,0,2.3,1.1,2.3,2.3v43.4
						c0,1.3-1,2.3-2.3,2.3l0,0c-1.2,0-2.3-1.1-2.3-2.3v-43.4C-804.5-1481-803.4-1482.1-802.2-1482.1z"/>
				</g>
				<path style="fill:none;stroke:#000000;stroke-miterlimit:10;" d="M-873.6-1409.7c-1,2-1.9,4.2-2.7,6.2c11,0.4,22.1-0.1,33.1,0.2
					h0.1c1.6-2.3,3.3-4.4,5.4-6.5L-873.6-1409.7L-873.6-1409.7z M-762.9-1409.7c1.7,2.2,3.5,4.2,5,6.3h33.5
					c-0.8-2.2-1.8-4.3-2.7-6.3H-762.9z"/>
				<path style="fill:none;stroke:#000000;stroke-miterlimit:10;" d="M-843.1-1403.7c-11,0.4-22.1-0.1-33.1,0.2
					c9.3,24.7,31.9,43.4,57.6,49c25.7,5.9,54.1-1.2,73.8-19.1c9.1-8.2,16.3-18.5,20.6-29.9h-33.5c-11.8,17.9-35.9,26.4-56.4,20.3
					c-11.6-3.2-21.9-10.6-28.7-20.4C-843-1403.7-843.1-1403.7-843.1-1403.7L-843.1-1403.7z"/>
				<path style="fill:none;stroke:#000000;stroke-miterlimit:10;" d="M-837.7-1409.7c20.1,30.7,60.5,24,74.8,0l5,6.1
					c-16,26.9-62,32.9-85.1-0.1L-837.7-1409.7z"/>
				<polygon style="fill:none;stroke:#000000;stroke-miterlimit:10;" points="-857.5,-1437.8 -746.8,-1437.8 -746.8,-1417 
					-857.5,-1417 				"/>
				<path style="fill:none;stroke:#000000;stroke-miterlimit:10;" d="M-800.6-1528.7c-24,0.1-54.1,16.4-54.1,16.4v34.4
					c42.2-12.1,78.1-9.7,110.7,0v-34.4c0,0-36.5-16-55.3-16.4C-799.7-1528.7-800.2-1528.7-800.6-1528.7L-800.6-1528.7z M-806.1-1518
					c3.1,0,6.2,2,6.6,7.2c1-10.8,13.6-7.7,13.6-1.3c0,12.1-13.6,16.9-13.6,16.9s-13.5-4.8-13.5-16.9
					C-813-1515.6-809.5-1518-806.1-1518z"/>
				<path style="fill:none;stroke:#000000;stroke-miterlimit:10;" d="M-860.2-1522.9L-860.2-1522.9c3.5,0,6.3,2.9,6.3,6.3v106.1
					c0,3.5-2.9,6.3-6.3,6.3l0,0c-3.5,0-6.3-2.9-6.3-6.3v-106.1C-866.6-1520-863.7-1522.9-860.2-1522.9z"/>
				<path style="fill:none;stroke:#000000;stroke-miterlimit:10;" d="M-740.5-1522.9L-740.5-1522.9c3.5,0,6.3,2.9,6.3,6.3v106.1
					c0,3.5-2.9,6.3-6.3,6.3l0,0c-3.5,0-6.3-2.9-6.3-6.3v-106.1C-746.8-1520-743.9-1522.9-740.5-1522.9z"/>
				<polygon style="fill:none;stroke:#000000;stroke-miterlimit:10;" points="-857.5,-1433.9 -746.8,-1433.9 -746.8,-1413.1 
					-857.5,-1413.1 				"/>
				<path style="fill:none;stroke:#000000;stroke-miterlimit:10;" d="M-800.6-1524.7c-24,0.1-54.1,16.4-54.1,16.4v34.4
					c42.2-12.1,78.1-9.7,110.7,0v-34.4c0,0-36.5-16-55.3-16.4C-799.7-1524.7-800.2-1524.7-800.6-1524.7L-800.6-1524.7z M-806.1-1514
					c3.1,0,6.2,2,6.6,7.2c1-10.8,13.6-7.7,13.6-1.3c0,12.1-13.6,16.9-13.6,16.9s-13.5-4.8-13.5-16.9
					C-813-1511.6-809.5-1514-806.1-1514z"/>
				<g>
					<path style="fill:none;stroke:#000000;stroke-miterlimit:10;" d="M-844.9-1476.6h0.5c1.1,0,2,1,2,2v38.5c0,1.1-1,2-2,2h-0.5
						c-1.1,0-2-1-2-2v-38.5C-847-1475.6-846.1-1476.6-844.9-1476.6z"/>
					<path style="fill:none;stroke:#000000;stroke-miterlimit:10;" d="M-823.4-1480.7L-823.4-1480.7c1.3,0,2.3,1,2.3,2.3v42.2
						c0,1.2-1,2.3-2.3,2.3l0,0c-1.2,0-2.3-1-2.3-2.3v-42.2C-825.7-1479.7-824.7-1480.7-823.4-1480.7z"/>
					<path style="fill:none;stroke:#000000;stroke-miterlimit:10;" d="M-776.3-1480.7L-776.3-1480.7c1.3,0,2.3,1,2.3,2.3v42.2
						c0,1.2-1,2.3-2.3,2.3l0,0c-1.2,0-2.3-1-2.3-2.3v-42.2C-778.6-1479.7-777.5-1480.7-776.3-1480.7z"/>
					<path style="fill:none;stroke:#000000;stroke-miterlimit:10;" d="M-756.5-1477.1h0.4c1.2,0,2,1,2,2v39c0,1.2-1,2-2,2h-0.4
						c-1.2,0-2-1-2-2v-39C-758.6-1476.1-757.7-1477.1-756.5-1477.1z"/>
					<path style="fill:none;stroke:#000000;stroke-miterlimit:10;" d="M-799.4-1482.1L-799.4-1482.1c1.2,0,2.3,1.1,2.3,2.3v43.4
						c0,1.3-1,2.3-2.3,2.3l0,0c-1.2,0-2.3-1.1-2.3-2.3v-43.4C-801.7-1481-800.7-1482.1-799.4-1482.1z"/>
				</g>
			</g>
			<g transform="matrix(1 -1 0 1 -1447 -198.57)">
				<polygon style="fill:none;stroke:#000000;stroke-miterlimit:10;" points="-582.7,-1959.8 -393.1,-1959.8 -393.1,-1939 
					-582.7,-1939 				"/>
				<polygon style="fill:none;stroke:#000000;stroke-miterlimit:10;" points="-582.7,-1965.5 -393.2,-1965.5 -393.2,-1958.7 
					-582.7,-1958.7 				"/>
				<g transform="translate(6)">
					<path style="fill:none;stroke:#000000;stroke-miterlimit:10;" d="M-577-2005.6h0.1c1.2,0,2.2,1,2.2,2.2v41.5
						c0,1.2-1,2.2-2.2,2.2h-0.1c-1.2,0-2.2-1-2.2-2.2v-41.5C-579.1-2004.6-578.2-2005.6-577-2005.6z"/>
					<path style="fill:none;stroke:#000000;stroke-miterlimit:10;" d="M-554.5-2005.6h0.1c1.2,0,2.2,1,2.2,2.2v41.5
						c0,1.2-1,2.2-2.2,2.2h-0.1c-1.2,0-2.2-1-2.2-2.2v-41.5C-556.8-2004.6-555.7-2005.6-554.5-2005.6z"/>
					<path style="fill:none;stroke:#000000;stroke-miterlimit:10;" d="M-532.7-2005.6h0.1c1.2,0,2.2,1,2.2,2.2v41.5
						c0,1.2-1,2.2-2.2,2.2h-0.1c-1.2,0-2.2-1-2.2-2.2v-41.5C-534.9-2004.6-533.9-2005.6-532.7-2005.6z"/>
					<path style="fill:none;stroke:#000000;stroke-miterlimit:10;" d="M-510.3-2005.6h0.1c1.2,0,2.2,1,2.2,2.2v41.5
						c0,1.2-1,2.2-2.2,2.2h-0.1c-1.2,0-2.2-1-2.2-2.2v-41.5C-512.4-2004.6-511.5-2005.6-510.3-2005.6z"/>
					<path style="fill:none;stroke:#000000;stroke-miterlimit:10;" d="M-487.8-2005.6h0.1c1.2,0,2.2,1,2.2,2.2v41.5
						c0,1.2-1,2.2-2.2,2.2h-0.1c-1.2,0-2.2-1-2.2-2.2v-41.5C-490.1-2004.6-489-2005.6-487.8-2005.6z"/>
					<path style="fill:none;stroke:#000000;stroke-miterlimit:10;" d="M-465.4-2005.6h0.1c1.2,0,2.2,1,2.2,2.2v41.5
						c0,1.2-1,2.2-2.2,2.2h-0.1c-1.2,0-2.2-1-2.2-2.2v-41.5C-467.6-2004.6-466.6-2005.6-465.4-2005.6z"/>
					<path style="fill:none;stroke:#000000;stroke-miterlimit:10;" d="M-443-2005.6h0.1c1.2,0,2.2,1,2.2,2.2v41.5
						c0,1.2-1,2.2-2.2,2.2h-0.1c-1.2,0-2.2-1-2.2-2.2v-41.5C-445.1-2004.6-444.2-2005.6-443-2005.6z"/>
					<path style="fill:none;stroke:#000000;stroke-miterlimit:10;" d="M-422.4-2005.6h0.1c1.2,0,2.2,1,2.2,2.2v41.5
						c0,1.2-1,2.2-2.2,2.2h-0.1c-1.2,0-2.2-1-2.2-2.2v-41.5C-424.7-2004.6-423.6-2005.6-422.4-2005.6z"/>
					<path style="fill:none;stroke:#000000;stroke-miterlimit:10;" d="M-403.2-2005.6h0.1c1.2,0,2.2,1,2.2,2.2v41.5
						c0,1.2-1,2.2-2.2,2.2h-0.1c-1.2,0-2.2-1-2.2-2.2v-41.5C-405.4-2004.6-404.4-2005.6-403.2-2005.6z"/>
				</g>
				<g>
					<path style="fill:none;stroke:#000000;stroke-miterlimit:10;" d="M-572.9-2005.6h0.1c1.2,0,2.2,1,2.2,2.2v41.5
						c0,1.2-1,2.2-2.2,2.2h-0.1c-1.2,0-2.2-1-2.2-2.2v-41.5C-575-2004.6-574.1-2005.6-572.9-2005.6z"/>
					<path style="fill:none;stroke:#000000;stroke-miterlimit:10;" d="M-550.4-2005.6h0.1c1.2,0,2.2,1,2.2,2.2v41.5
						c0,1.2-1,2.2-2.2,2.2h-0.1c-1.2,0-2.2-1-2.2-2.2v-41.5C-552.7-2004.6-551.6-2005.6-550.4-2005.6z"/>
					<path style="fill:none;stroke:#000000;stroke-miterlimit:10;" d="M-528.7-2005.6h0.1c1.2,0,2.2,1,2.2,2.2v41.5
						c0,1.2-1,2.2-2.2,2.2h-0.1c-1.2,0-2.2-1-2.2-2.2v-41.5C-530.8-2004.6-529.8-2005.6-528.7-2005.6z"/>
					<path style="fill:none;stroke:#000000;stroke-miterlimit:10;" d="M-506.2-2005.6h0.1c1.2,0,2.2,1,2.2,2.2v41.5
						c0,1.2-1,2.2-2.2,2.2h-0.1c-1.2,0-2.2-1-2.2-2.2v-41.5C-508.3-2004.6-507.4-2005.6-506.2-2005.6z"/>
					<path style="fill:none;stroke:#000000;stroke-miterlimit:10;" d="M-483.7-2005.6h0.1c1.2,0,2.2,1,2.2,2.2v41.5
						c0,1.2-1,2.2-2.2,2.2h-0.1c-1.2,0-2.2-1-2.2-2.2v-41.5C-486-2004.6-484.9-2005.6-483.7-2005.6z"/>
					<path style="fill:none;stroke:#000000;stroke-miterlimit:10;" d="M-461.2-2005.6h0.1c1.2,0,2.2,1,2.2,2.2v41.5
						c0,1.2-1,2.2-2.2,2.2h-0.1c-1.2,0-2.2-1-2.2-2.2v-41.5C-463.5-2004.6-462.6-2005.6-461.2-2005.6z"/>
					<path style="fill:none;stroke:#000000;stroke-miterlimit:10;" d="M-438.9-2005.6h0.1c1.2,0,2.2,1,2.2,2.2v41.5
						c0,1.2-1,2.2-2.2,2.2h-0.1c-1.2,0-2.2-1-2.2-2.2v-41.5C-441-2004.6-440.1-2005.6-438.9-2005.6z"/>
					<path style="fill:none;stroke:#000000;stroke-miterlimit:10;" d="M-418.3-2005.6h0.1c1.2,0,2.2,1,2.2,2.2v41.5
						c0,1.2-1,2.2-2.2,2.2h-0.1c-1.2,0-2.2-1-2.2-2.2v-41.5C-420.5-2004.6-419.5-2005.6-418.3-2005.6z"/>
					<path style="fill:none;stroke:#000000;stroke-miterlimit:10;" d="M-399.1-2005.6h0.1c1.2,0,2.2,1,2.2,2.2v41.5
						c0,1.2-1,2.2-2.2,2.2h-0.1c-1.2,0-2.2-1-2.2-2.2v-41.5C-401.2-2004.6-400.3-2005.6-399.1-2005.6z"/>
				</g>
				<polygon style="fill:none;stroke:#000000;stroke-miterlimit:10;" points="-581.7,-2032.2 -392.3,-2032.2 -392.3,-2025.4 
					-581.7,-2025.4 				"/>
				<g>
					<path style="fill:none;stroke:#000000;stroke-miterlimit:10;" d="M-572.9-2005.6h0.1c1.2,0,2.2,1,2.2,2.2v41.5
						c0,1.2-1,2.2-2.2,2.2h-0.1c-1.2,0-2.2-1-2.2-2.2v-41.5C-575-2004.6-574.1-2005.6-572.9-2005.6z"/>
					<path style="fill:none;stroke:#000000;stroke-miterlimit:10;" d="M-550.4-2005.6h0.1c1.2,0,2.2,1,2.2,2.2v41.5
						c0,1.2-1,2.2-2.2,2.2h-0.1c-1.2,0-2.2-1-2.2-2.2v-41.5C-552.7-2004.6-551.6-2005.6-550.4-2005.6z"/>
					<path style="fill:none;stroke:#000000;stroke-miterlimit:10;" d="M-528.7-2005.6h0.1c1.2,0,2.2,1,2.2,2.2v41.5
						c0,1.2-1,2.2-2.2,2.2h-0.1c-1.2,0-2.2-1-2.2-2.2v-41.5C-530.8-2004.6-529.8-2005.6-528.7-2005.6z"/>
					<path style="fill:none;stroke:#000000;stroke-miterlimit:10;" d="M-506.2-2005.6h0.1c1.2,0,2.2,1,2.2,2.2v41.5
						c0,1.2-1,2.2-2.2,2.2h-0.1c-1.2,0-2.2-1-2.2-2.2v-41.5C-508.3-2004.6-507.4-2005.6-506.2-2005.6z"/>
					<path style="fill:none;stroke:#000000;stroke-miterlimit:10;" d="M-483.7-2005.6h0.1c1.2,0,2.2,1,2.2,2.2v41.5
						c0,1.2-1,2.2-2.2,2.2h-0.1c-1.2,0-2.2-1-2.2-2.2v-41.5C-486-2004.6-484.9-2005.6-483.7-2005.6z"/>
					<path style="fill:none;stroke:#000000;stroke-miterlimit:10;" d="M-461.2-2005.6h0.1c1.2,0,2.2,1,2.2,2.2v41.5
						c0,1.2-1,2.2-2.2,2.2h-0.1c-1.2,0-2.2-1-2.2-2.2v-41.5C-463.5-2004.6-462.6-2005.6-461.2-2005.6z"/>
					<path style="fill:none;stroke:#000000;stroke-miterlimit:10;" d="M-438.9-2005.6h0.1c1.2,0,2.2,1,2.2,2.2v41.5
						c0,1.2-1,2.2-2.2,2.2h-0.1c-1.2,0-2.2-1-2.2-2.2v-41.5C-441-2004.6-440.1-2005.6-438.9-2005.6z"/>
					<path style="fill:none;stroke:#000000;stroke-miterlimit:10;" d="M-418.3-2005.6h0.1c1.2,0,2.2,1,2.2,2.2v41.5
						c0,1.2-1,2.2-2.2,2.2h-0.1c-1.2,0-2.2-1-2.2-2.2v-41.5C-420.5-2004.6-419.5-2005.6-418.3-2005.6z"/>
					<path style="fill:none;stroke:#000000;stroke-miterlimit:10;" d="M-399.1-2005.6h0.1c1.2,0,2.2,1,2.2,2.2v41.5
						c0,1.2-1,2.2-2.2,2.2h-0.1c-1.2,0-2.2-1-2.2-2.2v-41.5C-401.2-2004.6-400.3-2005.6-399.1-2005.6z"/>
				</g>
				<polygon style="fill:none;stroke:#000000;stroke-miterlimit:10;" points="-581.7,-2026 -392.3,-2026 -392.3,-2005.2 
					-581.7,-2005.2 				"/>
			</g>
		</g>
	</g>
</g>
</svg>
