<?xml version="1.0" encoding="utf-8"?>
<!-- Generator: Adobe Illustrator 17.0.0, SVG Export Plug-In . SVG Version: 6.00 Build 0)  -->
<!DOCTYPE svg PUBLIC "-//W3C//DTD SVG 1.1//EN" "http://www.w3.org/Graphics/SVG/1.1/DTD/svg11.dtd" [
	<!ENTITY ns_flows "http://ns.adobe.com/Flows/1.0/">
	<!ENTITY ns_extend "http://ns.adobe.com/Extensibility/1.0/">
	<!ENTITY ns_ai "http://ns.adobe.com/AdobeIllustrator/10.0/">
	<!ENTITY ns_graphs "http://ns.adobe.com/Graphs/1.0/">
]>
<svg version="1.1" id="Layer_1" xmlns:x="&ns_extend;" xmlns:i="&ns_ai;" xmlns:graph="&ns_graphs;"
	 xmlns="http://www.w3.org/2000/svg" xmlns:xlink="http://www.w3.org/1999/xlink" xmlns:a="http://ns.adobe.com/AdobeSVGViewerExtensions/3.0/"
	 x="0px" y="0px" width="612px" height="792px" viewBox="0 0 612 792" style="enable-background:new 0 0 612 792;"
	 xml:space="preserve">
<path style="fill:none;stroke:#000000;stroke-width:3;stroke-miterlimit:10;" d="M22.8,392.9L22.8,392.9l0.1-0.1L22.8,392.9z
	 M24.7,389.8L24.7,389.8C24.7,389.8,24.8,389.7,24.7,389.8L24.7,389.8z M196.7,317.3L196.7,317.3
	C196.6,317.3,196.7,317.3,196.7,317.3L196.7,317.3z"/>
<path style="fill:none;stroke:#000000;stroke-width:3;stroke-miterlimit:10;" d="M22.9,392.8L22.9,392.8c0,0.1,0,0.1-0.1,0.1l0,0
	L22.9,392.8z"/>
<path style="fill:none;stroke:#000000;stroke-width:3;stroke-miterlimit:10;" d="M24.8,389.8C24.8,389.8,24.7,389.8,24.8,389.8
	C24.7,389.8,24.7,389.8,24.8,389.8L24.8,389.8L24.8,389.8z"/>
<path style="fill:none;stroke:#000000;stroke-width:3;stroke-miterlimit:10;" d="M196.7,317.3L196.7,317.3L196.7,317.3
	C196.7,317.3,196.6,317.3,196.7,317.3L196.7,317.3z"/>
<path style="fill:none;stroke:#000000;stroke-width:3;stroke-miterlimit:10;" d="M603.3,401.8L603.3,401.8
	C603.2,401.8,603.2,401.7,603.3,401.8C603.3,401.7,603.3,401.8,603.3,401.8z"/>
<path style="fill:none;stroke:#000000;stroke-width:3;stroke-miterlimit:10;" d="M610.1,412c-6.2,2.1-10,7-13.9,11.7
	c-3.4,4.1-6.8,8.2-10.8,11.8c-15.3,13.8-33.3,22.7-52.8,28.4c-46,13.6-92.5,24.8-140.7,27.3c-1.7,0.1-3.4,0.1-5,0.2
	c-0.6,0-1.2,0.1-1.8,0.1c-14.4,0.2-28.7,0.4-43.1,0.5c-3.7,0-7.4,0.1-11.1,0.1c-3,0.1-6,0.1-9.1,0.2c-0.9,0.1-1.8,0.1-2.7,0.2
	c-6,0.2-12.1,0.3-18.1,0.5c-5.4-0.1-10.7-0.1-16.1-0.2c-3.6-1.5-7.3-1.5-11,0c-6.7,0.1-13.4,0.1-20.1,0.2c-4.7-0.2-9.3-0.4-14-0.7
	c-0.3-0.2-0.6-0.2-0.9-0.1c-0.7,0-1.3-0.1-2-0.1c-11.1-0.9-22.2-1.7-33.3-2.8c-23.2-2.4-46.3-4.9-69.5-7.6
	c-19.5-2.2-39.1-3.8-58-9.8c-23.5-7.4-45.4-17.4-61.5-37c-3.2-3.9-7.3-6.8-11.7-9.2c0.6-9.6,6.4-16.5,12.2-23.3
	c2.1-2.5,4.2-5.1,6.3-7.6c1.2-0.2,1.5-1,1.4-2.1c0.6-0.2,0.9-0.6,0.6-1.3l0,0c1.5,0.2,1.5-0.7,1.3-1.7c2.5,0.5,3.6-1.5,4.8-2.9
	c9.4-11,19.9-21,31.1-30c18-14.4,36.7-27.2,60.5-30.2c13.8-1.7,25.9,1.7,36.8,9.9c9.1,6.7,15.1,16.1,21.8,25
	c4.8,6.5,8.8,13.8,16.5,17.6c7,3.5,10.4,1.7,11.7-6.2c0.3-17.3-4.4-33.6-9.3-49.9c-0.5-1.7-1.1-3.4-1.7-5.1c0.1-0.2,0.2-0.4,0.3-0.6
	c-0.2,0-0.5,0-0.7,0c0.2-1,0.2-1.9-1.2-2h0.1c-0.6-9.1,4.9-13.5,12.5-16.4c17.5-6.8,35.3-12,54.3-9.9c9.1,1,17.9,3.1,26,7.7
	c16.1,9.2,25.2,24,32.8,40.1c4.3,9,8.4,18,12.9,26.9c2.7,5.3,5.3,6.1,11,4.3c2.4-0.4,1.9-2.5,2-4c1.4-21.7-2.9-42.1-14-60.9
	c-0.6-1-1.3-2-1-3.2c-2.2-7.3-1.2-10.7,4.6-13.2c2.9-1.3,6-1.9,9.2-1.9c19.9,0.4,39.2,3.7,57.6,11.7c15.4,6.8,29.3,15.3,38.3,30.4
	c9.1,15.2,16.2,31.2,23.4,47.3c3,6.8,5.5,13.9,9.7,20.2c3.5,5,6.7,5.1,10-0.2c2.3-3.6,3.2-7.6,3.3-11.8c0.4-13.9-3.5-27.2-4.7-40.9
	c-0.8-8.5,2.5-14.9,12.5-12.2c22.7,6.2,43,17.3,61.7,31.5c15.1,11.4,27.9,25.1,41.3,38.3c1.2,1.2,2.2,3,4.5,2.5
	c-0.1,1-0.2,1.9,1.3,1.6c0,0,0,0.1,0.1,0.2l0,0c-0.4,0.7-0.1,1.1,0.5,1.5C607.5,406.8,608.8,409.4,610.1,412z"/>
<path style="fill:none;stroke:#000000;stroke-width:3;stroke-miterlimit:10;" d="M603.3,401.8L603.3,401.8
	C603.2,401.8,603.2,401.7,603.3,401.8C603.3,401.7,603.3,401.8,603.3,401.8z"/>
<path style="fill:none;stroke:#000000;stroke-width:3;stroke-miterlimit:10;" d="M608.5,392.5c-28.7-36-62.6-65.8-104.8-85
	c-15.4-7-31.3-12.6-48.7-12.8c-6.1-0.1-12.2,4.5-17.7,1.4c-5.3-2.9-9.5-7.8-14.6-11.2c-29.2-19.2-61.5-25.9-96-23.4
	c-15.2,1.1-30.6,2-44.6,9.2c-0.9,0.5-2.3,0.1-3.4-0.1c-22.9-5.4-46-7.4-69.3-3.6c-12.3,2-24.5,4.7-36.1,9.3
	c-8.1,3.2-14.5,8.3-15.3,17.8c-0.3,3-2.2,1.9-3.6,1.7c-21.3-3.4-41.3,0.9-60.5,9.9c-28.8,13.4-52.1,33.7-72.4,57.8
	c-12.1,14.4-23,29.7-30.3,47.2c-1.6,3.8-1.6,8.1-4.2,11.4v17c5.2,9.2,9,19,12,29.1c4,13.1,10.8,24.2,22.9,31.4
	c7.9,4.6,16.1,8.5,24.7,11.6c25,8.9,51.1,11.7,77.3,13.8c33.9,2.6,67.7,5.8,101.7,6.6c51.5,1.1,102.9,2.6,154.3-1.1
	c43.8-3.1,87-9.8,129-21.7C556.4,495,600.4,474.5,627,429v-9C622.5,409.7,615.4,401.2,608.5,392.5z M596.2,423.8
	c-3.4,4.1-6.8,8.2-10.8,11.8c-15.3,13.8-33.3,22.7-52.8,28.4c-46,13.6-92.5,24.8-140.7,27.3c-0.3,1.8-1.7,1.7-3.1,1.7
	c-14.9,0-29.8,0-44.6,0c-0.7,0-1.5-0.5-2.2-0.8c-3.7,0-7.4,0.1-11.1,0.1c-0.3,1.5-1.3,1.7-2.5,1.7c-8.5,0-17.1,0-25.7-0.1
	c-0.6,0-1.2-0.5-1.7-0.8c-5.4-0.1-10.7-0.1-16.1-0.2h-11c-6.7,0.1-13.4,0.1-20.1,0.2c-5.7,1-11.4,2.4-16.9-0.8
	c-11.1-0.9-22.2-1.7-33.3-2.8c-23.2-2.4-46.3-4.9-69.5-7.6c-19.5-2.2-39.1-3.8-58-9.8c-23.5-7.4-45.4-17.4-61.5-37
	c-3.2-3.9-7.3-6.8-11.7-9.2c0.6-9.6,6.4-16.5,12.2-23.3c2.1-2.5,4.2-5.1,6.3-7.6c0.5-0.7,0.9-1.4,1.4-2l0,0c0.2-0.4,0.4-0.9,0.7-1.3
	l0,0c0.4-0.6,0.9-1.2,1.3-1.8l0,0l0,0c0,0,0,0,0,0.1c2.5,0.5,3.6-1.5,4.8-2.9c9.4-11,19.9-21,31.1-30c18-14.4,36.7-27.2,60.5-30.2
	c13.8-1.7,25.9,1.7,36.8,9.9c9.1,6.7,15.1,16.1,21.8,25c4.8,6.5,8.8,13.8,16.5,17.6c7,3.5,10.4,1.7,11.7-6.2
	c0.3-17.3-4.4-33.6-9.3-49.9c-0.5-1.7-1.1-3.4-1.7-5.1c-0.3-0.1-0.4-0.4-0.4-0.7h0.1c-0.4-0.7-0.8-1.3-1.2-2h0.1
	c-0.6-9.1,4.9-13.5,12.5-16.4c17.5-6.8,35.3-12,54.3-9.9c9.1,1,17.9,3.1,26,7.7c16.1,9.2,25.2,24,32.8,40.1c4.3,9,8.4,18,12.9,26.9
	c2.7,5.3,5.3,6.1,11,4.3c2.4-0.4,1.9-2.5,2-4c1.4-21.7-2.9-42.1-14-60.9c-0.6-1-1.3-2-1-3.2c-2.2-7.3-1.2-10.7,4.6-13.2
	c2.9-1.3,6-1.9,9.2-1.9c19.9,0.4,39.2,3.7,57.6,11.7c15.4,6.8,29.3,15.3,38.3,30.4c9.1,15.2,16.2,31.2,23.4,47.3
	c3,6.8,5.5,13.9,9.7,20.2c3.5,5,6.7,5.1,10-0.2c2.3-3.6,3.2-7.6,3.3-11.8c0.4-13.9-3.5-27.2-4.7-40.9c-0.8-8.5,2.5-14.9,12.5-12.2
	c22.7,6.2,43,17.3,61.7,31.5c15.1,11.4,27.9,25.1,41.3,38.3c1.2,1.2,2.2,3,4.5,2.5c0,0,0,0,0-0.1c0,0,0,0,0,0.1
	c0.4,0.5,0.8,1.1,1.3,1.6c0,0,0,0.1,0.1,0.2l0,0c0.1,0.5,0.3,1,0.5,1.5c2.4,1.8,3.7,4.4,5,7C603.9,414.1,600.1,419,596.2,423.8z"/>
<path style="fill:none;stroke:#000000;stroke-width:3;stroke-miterlimit:10;" d="M24.8,389.8C24.8,389.8,24.7,389.8,24.8,389.8
	C24.7,389.8,24.7,389.8,24.8,389.8L24.8,389.8L24.8,389.8z"/>
<path style="fill:none;stroke:#000000;stroke-width:3;stroke-miterlimit:10;" d="M196.7,317.3L196.7,317.3L196.7,317.3L196.7,317.3
	c-0.4-0.7-0.8-1.3-1.2-2C196.9,315.4,196.9,316.3,196.7,317.3z"/>
<path style="fill:none;stroke:#000000;stroke-width:3;stroke-miterlimit:10;" d="M23.4,391.5c0.4-0.6,0.9-1.2,1.3-1.8l0,0
	c0,0,0,0,0,0.1C24.9,390.8,24.9,391.7,23.4,391.5z"/>
<path style="fill:none;stroke:#000000;stroke-width:3;stroke-miterlimit:10;" d="M21.4,394.9c0.5-0.7,0.9-1.4,1.4-2l0.1-0.1v0.1
	C23,393.9,22.6,394.7,21.4,394.9z"/>
<path style="fill:none;stroke:#000000;stroke-width:3;stroke-miterlimit:10;" d="M604.6,403.4c-1.5,0.3-1.5-0.6-1.3-1.6
	c0,0,0,0,0-0.1c0,0,0,0,0,0.1C603.7,402.3,604.1,402.9,604.6,403.4z"/>
<path style="fill:none;stroke:#000000;stroke-width:3;stroke-miterlimit:10;" d="M197.4,317.4c-0.1,0.2-0.2,0.4-0.3,0.6
	c-0.3-0.1-0.4-0.4-0.4-0.7h0.1C196.9,317.3,197.1,317.3,197.4,317.4z"/>
<path style="fill:none;stroke:#000000;stroke-width:3;stroke-miterlimit:10;" d="M22.9,392.9C22.8,392.9,22.8,392.9,22.9,392.9
	C22.8,392.9,22.8,392.9,22.9,392.9c0.1-0.4,0.4-0.8,0.6-1.3C23.7,392.2,23.5,392.7,22.9,392.9z"/>
<path style="fill:none;stroke:#000000;stroke-width:3;stroke-miterlimit:10;" d="M605.1,405.1c-0.6-0.3-0.8-0.8-0.5-1.5
	C604.8,404.1,604.9,404.6,605.1,405.1z"/>
<path style="fill:none;stroke:#000000;stroke-width:3;stroke-miterlimit:10;" d="M392,491.3c-0.3,1.8-1.7,1.7-3.1,1.7
	c-14.9,0-29.8,0-44.6,0c-0.7,0-1.5-0.5-2.2-0.8c14.4-0.2,28.7-0.4,43.1-0.5c0.6,0.5,1.2,0.5,1.8-0.1
	C388.6,491.4,390.3,491.3,392,491.3z"/>
<path style="fill:none;stroke:#000000;stroke-width:3;stroke-miterlimit:10;" d="M331,492.3c-0.3,1.5-1.3,1.7-2.5,1.7
	c-8.5,0-17.1,0-25.7-0.1c-0.6,0-1.2-0.5-1.7-0.8c6-0.2,12.1-0.3,18.1-0.5c0.9,0.5,1.9,0.6,2.7-0.2C324.9,492.4,328,492.3,331,492.3z
	"/>
<path style="fill:none;stroke:#000000;stroke-width:3;stroke-miterlimit:10;" d="M254,493.1c-5.7,1-11.4,2.4-16.9-0.8
	c0.7,0,1.3,0.1,2,0.1c0.3,0,0.6,0,0.9,0.1C244.6,492.7,249.3,492.9,254,493.1z"/>
<path style="fill:none;stroke:#000000;stroke-width:3;stroke-miterlimit:10;" d="M285,492.9h-11C277.7,491.4,281.3,491.4,285,492.9z
	"/>
<path style="fill:none;stroke:#000000;stroke-width:3;stroke-miterlimit:10;" d="M321.9,492.5c-0.9,0.7-1.8,0.7-2.7,0.2
	C320.1,492.6,321,492.5,321.9,492.5z"/>
<path style="fill:none;stroke:#000000;stroke-width:3;stroke-miterlimit:10;" d="M386.9,491.5c-0.6,0.6-1.2,0.6-1.8,0.1
	C385.7,491.5,386.3,491.5,386.9,491.5z"/>
<path style="fill:none;stroke:#000000;stroke-width:3;stroke-miterlimit:10;" d="M239.9,492.5c-0.3,0-0.6,0-0.9-0.1
	C239.4,492.2,239.7,492.3,239.9,492.5z"/>
</svg>
