<?xml version="1.0" encoding="utf-8"?>
<!-- Generator: Adobe Illustrator 17.0.0, SVG Export Plug-In . SVG Version: 6.00 Build 0)  -->
<!DOCTYPE svg PUBLIC "-//W3C//DTD SVG 1.1//EN" "http://www.w3.org/Graphics/SVG/1.1/DTD/svg11.dtd" [
	<!ENTITY ns_flows "http://ns.adobe.com/Flows/1.0/">
	<!ENTITY ns_extend "http://ns.adobe.com/Extensibility/1.0/">
	<!ENTITY ns_ai "http://ns.adobe.com/AdobeIllustrator/10.0/">
	<!ENTITY ns_graphs "http://ns.adobe.com/Graphs/1.0/">
]>
<svg version="1.1" id="Layer_1" xmlns:x="&ns_extend;" xmlns:i="&ns_ai;" xmlns:graph="&ns_graphs;"
	 xmlns="http://www.w3.org/2000/svg" xmlns:xlink="http://www.w3.org/1999/xlink" xmlns:a="http://ns.adobe.com/AdobeSVGViewerExtensions/3.0/"
	 x="0px" y="0px" width="256px" height="256px" viewBox="0 0 256 256" style="enable-background:new 0 0 256 256;"
	 xml:space="preserve">
<g transform="translate(0.000000,1280.000000) scale(0.100000,-0.100000)">
	<path d="M1812,12798.2c-76.4-8.4-161-39.2-241.8-88.6l-14.8-9.2l-29.2,9.8c-114.8,38.6-163,49-218.2,47.2
		c-35.4-1-58.4-5.4-115.6-21.6c-77.8-22.2-106-27-147.8-25.2c-28.2,1.2-41,3.4-103.6,18.4c-47.4,11.2-74.4,14-107,11.2
		c-75-6.6-150.2-26.2-205.8-54l-15.4-7.6l-25.8,15.8c-149.4,90.8-308.4,122.4-430,85.4c-75.8-23.2-118.2-67.4-130.2-136.2
		c-5.6-32-1.2-75.8,11.2-109c9.4-25.4,25.4-53.2,68.4-118.6c42-64,65.6-107.4,83.2-152c8.8-22.8,8.8-23,5.4-29
		c-19.6-33.4-39.4-76.8-52.8-115.6c-22.6-65.4-27.8-98.4-34.2-212c-3.6-64.4-6.2-96.4-9-114.4c-0.6-3.2-6.4-35.6-12.8-72
		c-20-111-24.2-145.4-24.2-200c0-114,30.2-216,86.8-292.6c21.8-29.4,65-72.6,77.6-77.4c7.8-2.8,10.2-3,12.6-1
		c8.2,6.8,0.8,23.6-20.8,47.2c-46.4,50.6-79.8,107.8-102,174.2c-22,65.8-24.6,99.8-15.2,202.6c7,76.4,18.2,151.6,34.8,235
		c10,49.8,11.4,61.4,15.2,136c4.8,91,8.6,114.6,26.2,158.8c27.8,69.8,73.8,148.8,134,229.8c188,252.2,270,317.6,455.8,363.6
		c61.4,15.4,82.2,14.6,164.2-5.2c65.4-16,84-18.6,121.8-17.4c38.2,1,50.4,3.8,113.2,26.6c79.6,28.8,103,33.8,149.8,32.2
		c44-1.6,71.2-8,161-37.8c26.4-8.8,48.2-16.2,48.4-16.4c0.2-0.2-3.2-5.8-7.4-12.2c-4.4-6.6-8-14.4-8-17.4c0-10.2,14-17.8,25-13.6
		c2.8,1,15.6,12.6,28.6,25.6c46.6,47,99.4,73,166.8,82.2c13.2,1.8,16.6,1.6,26.4-1.8c18.6-6.4,45-19.4,62.2-31
		c17.8-11.8,39-33,39-39c0-2.2-5.4-7.8-13-13.8c-7.2-5.6-13-11-13-12c0-0.8,1.8-3.2,4-5.2c3.2-2.8,9-3.8,29.4-4.8
		c26.6-1.4,30.6-2.6,38.2-10.8l4.6-4.8l-22.6-7.8c-45.6-15.6-89.6-40.6-122-69.2c-22.4-19.8-48.2-53.2-61.4-79l-4.2-8.4l13.4-9.4
		c41-29.2,72.2-70.6,89.4-118.4c12.6-35,17.8-86.4,13.4-131l-2.2-23.4l9.2-16.6c27-47.8,34.8-52,39.4-20.8c2,13.6,1.6,16.4-3.2,34.8
		c-6.2,22.8-6.8,33-2.2,41.6c1.6,3.2,18.8,21.2,38.2,40c75,72.4,117.4,127,150.4,193.2c44.6,89.4,50,174.2,16,245
		c-14.6,30.6-33.8,52.6-61.6,70.4c-23.4,15-56.8,27.4-89.4,33.4C1888.2,12798.8,1833.8,12800.4,1812,12798.2z M380,12741.8
		c56-11,123.6-35.4,190-68.8l18.4-9.2l-28-19c-37-25.2-75.2-56-105.4-85c-13.4-13.2-25.2-23.8-25.8-23.8c-0.8,0-3.8,3-6.8,6.4
		c-43,51.8-93,87.8-148.6,106.6c-30.4,10.4-45,29.2-33.8,43.4c4.4,5.8,27.2,18,51.4,27.4c21.6,8.6,34.4,17,37.2,24.2
		c2,5.4,2.6,5.6,12.2,4.6C346.4,12748,364,12745,380,12741.8z M198,12639c49.2-7.6,94.4-27.6,141-62.6c18.2-13.4,62.2-54.8,69.4-65
		l4.2-5.8l-15-15.2c-48.6-49.8-102.4-118.6-152.8-195.2c-11.4-17.4-16-23-17.2-21c-1,1.6-8.6,15.4-17,30.8c-8.2,15.4-31,55-50.6,88
		c-19.4,33-43,74-52.6,91.2c-30.8,55.6-49.4,103.4-49.4,126.8c0,12.2-0.8,11.6,29,20C124.8,12641.6,163.2,12644.4,198,12639z
		 M2043,12580c-0.2-32.8-3.2-51-14.2-84c-18-54-56.2-112.8-111.2-171.4c-23.4-25-71.2-70.6-73.8-70.6c-1,0-1.8,9-1.8,19.8
		c0,67.4-27.8,135.2-77.2,187.8c-17,18.2-17.2,18.8-14.6,24c1.6,3,14.6,17.2,28.8,31.6c34.8,35,62.8,53.6,105,69.8
		c38.6,14.8,85.8,22.8,132,22.4l27-0.4V12580z"/>
	<path d="M1210.8,12659c-51.8-7.6-116.8-30.4-145.6-51c-8.8-6.4-9.2-6.4-27.6-5.6c-13,0.6-26.4,3.2-44.6,8.2
		c-37.6,10.4-48.4,11.6-104,11.6c-112.8,0-189.2-19.4-261.6-66.8c-33-21.6-64.4-50-63-57c1.4-6.4,12.6-3.4,34,9.6
		c46.2,27.6,104.2,54.4,148.6,68.6c49.6,16,81.4,19.6,163,18.6c66.4-0.6,66-0.6,81.8-13c3.6-2.8,16.8-12.4,29-21.2
		c23.2-16.8,31.2-25.8,31.2-35.2c0-12.8-18.6-15.4-46.4-6.6c-46.8,14.8-104.4,14.6-181.6-1c-16-3.2-34.8-6.4-42-7.2
		c-17.4-1.8-32-6-47.8-13.8c-7.2-3.8-25.8-11.4-41.2-17.2c-42.8-16-55.6-22.6-68-34.2c-17-16-18.4-28.2-4.4-38.6
		c4.8-3.6,8.4-4.2,21.6-4c8.6,0.2,15.8-0.4,15.8-1.4c0-0.8-3.4-4.2-7.4-7.2c-20.8-15.4-39.4-38.6-34.8-43.2c3.8-3.8,23.6,4,34,13.2
		c5,4.6,11.2,10,13.6,12c2.4,2.2,10.8,5,18.6,6.6c16.2,3,29,9.6,37,19c2.8,3.6,9.6,15,15,25.6c14.2,28.4,22,34.4,51.4,38.4
		c15.4,2.2,29.8,6.8,63.4,20.8c25,10.4,51,15.6,79.2,15.6c24,0,34.2-1.8,53-8.8c22.4-8.4,31-20.8,31-45.8c0-27.4-5.6-31.6-45.6-34.2
		c-41.8-2.6-70.2-8.2-114.2-22.8c-21.6-7-46.8-14.2-56.2-15.8c-9.4-1.6-20.8-4.2-25.6-6c-12.4-4.4-34-19-52.8-35.8
		c-9.2-8-24-20.6-32.8-28c-17.8-14.6-24.4-24.6-20.8-31.4c4-7.2,17.4-4.2,34,7.8c9.4,6.8,14.2,7.8,17.8,3.4c2-2.2,0.6-6.6-6.6-20.8
		c-15-29.8-16.4-44.4-4.2-44.4c15.4,0,26.8,11.2,36.2,35.6c13.2,34.6,18.2,39.6,37,36.4c13-2,37.4,0.8,48.8,5.8
		c4.4,2,15.6,9.6,25,17c21.6,17.2,30.6,21.8,57.4,29c11.8,3.2,28.4,8.6,37,12c8.4,3.4,19,6.2,23.4,6.2c7,0,8.6-0.8,10.2-5.2
		c1.4-3.6,1.4-7.8-0.2-13.4c-5-19.2-18.4-34.4-43.2-49.2c-11.6-6.8-16.6-8.6-29.4-10c-15.8-1.8-17-2.4-31.2-15.6
		c-4-3.6-12.6-8.8-19.4-11.4c-32-12.4-89.2-67.8-105.8-102.4c-7.4-15.6-8.4-21-3.8-24.8c4.4-3.6,20.4,2.8,27.8,11.2
		c3.6,4.2,10.8,8.6,19.4,11.8c11,4.2,16.6,8.2,29.8,21c9,8.6,20.2,17.8,25.2,20.2c8.6,4,9.2,4.2,12.8,0.8c2.2-2,4-5.6,4-7.8
		c0.2-6.2,10.4-19.8,16.6-22c7-2.6,13.6,3.4,21.8,19.8c9.2,18.4,17,27,29.2,32.6c9.8,4.4,12.8,4.8,28,3.8l17.2-1l14,12.2
		c24,21,25.4,24.6,15.2,34.4c-8.2,7.8-11,17-8,26c1.2,3.8,4,8,6,9c10.6,5.6,29.2-0.6,46-15.6c10.6-9.2,20.2-14.4,42.6-22.6
		c18.6-6.8,30.6-13.4,43-23.2c9.8-8,13-13.6,16.2-28.4c1.6-7.4,5.2-14.6,11.2-22.6c9-11.8,9-12.2,9-28.2c0.2-9.4,1.2-18.4,2.6-21
		c3-5.4,20.2-16,34.4-21.6c13.4-5,34-5.2,41.6,0c12,8.2,8.8,20.8-10.8,42.4c-11,12-13.8,16.6-13.4,20.6c1,8.2,8.6,10.6,25,8
		c10.6-1.6,17.4-1.6,30.6,0.6l17,2.8l11.4-5.8c14.6-7.2,23.4-6.8,27.2,1.2c2.2,4.6,2.2,6.8,0.4,11.6c-7.4,17.8-47.8,38.4-81.8,41.6
		c-16.8,1.6-17.6,2-37.2,14.6c-24.6,16.2-38.8,23.4-62,31.6c-9.8,3.4-21.8,8.8-26.6,12c-5.2,3.4-15.6,7.4-26.6,9.8
		c-20.8,4.8-29.8,9-48,22.4c-7.4,5.4-14.2,9.8-15.2,9.8c-3.4,0-8.6,7-8.6,11.6c0,2.2,2.4,6.8,5.2,10.2c4.4,5.2,6.6,6.2,14.4,6.2
		c5.2,0,18.8-1.8,30.4-4c19.4-3.8,23.2-4,47.4-1.8c24,2.2,27.8,2,40-1.2c22.4-6,38.6-14.4,51-26.2c10.2-9.8,28.6-20.8,35.2-20.8
		c5,0,2.2,7-6.2,14.8c-10.2,9.4-13.4,14.8-13.4,22c0,6.6,6.4,10,17.2,8.6c14-1.4,25.2-9.6,38.8-28c12.6-16.8,59.4-69.4,62-69.4
		c2.6,0,6,10.2,6,18.8c0,36-44,88.4-97.6,115.8c-40.8,21-98,34.8-166.8,40.4c-19.2,1.6-24.6,5.2-24.6,16.4
		c0,10.2,8.4,24.4,18.8,31.4c17.8,12.4,67.6,24.8,106.2,26.6c31.6,1.4,55.6-3.6,83-17.2c36.8-18.2,61.8-42.4,106.4-101.8
		c14.2-18.8,25-31.4,28.2-32.6c17.2-6.6,35.6,13.4,30.2,32.8c-8.4,30.4-77.8,98.6-128.8,126.4c-38.6,21.2-72.6,29.8-117,29.6
		c-34.2,0-56.2-3.6-90-14.6c-21-6.8-30.2-7.4-39.8-2.4c-10.2,5-15.2,13-15,23.4c0.2,10.2,4.8,18.4,12.4,21.4
		c3,1.2,10.8,4.6,17.4,7.8c6.8,3.2,25,8.2,42,11.8c30,6.2,37,8.8,71.6,27.2c24,12.8,43.8,12.8,108.6-0.2c19.4-3.8,48.4-8.4,64.6-10
		c33.2-3.4,46-5.6,67.6-11.2c18.4-4.6,36.6-5.2,36.6-1c0,9.8-7,14.2-41,25.2c-14.2,4.6-35,12.6-46,17.4
		c-29.8,13.6-49.6,16.6-111,16.4C1248.6,12661.6,1221.8,12660.6,1210.8,12659z"/>
	<path d="M1448,12545.4c-9.2-4.6-7.6-11,8.6-34.6c26.2-38.4,46.4-75.6,67.2-124.2c30-70.2,41.8-126,53.2-249.2
		c7.6-83.8,6.6-105.2-6.4-127.4c-7-12-23.4-29-33-34.4c-4.2-2.4-7.6-5.4-7.6-6.8c0-1.4,4-7.4,9-13.4c5-6.2,9-13.2,9-15.6
		c0-13.8-55.2-66.2-81.4-77.2c-15.4-6.4-68-20.8-80.6-22c-16.6-1.6-23-7.2-21.2-18.2c1.8-12,20.4-48.2,25.6-50.2
		c7-2.6,11.4-0.4,17.2,8.6c7.6,12.2,12.6,17.2,16.8,17.2c2,0,10.2,4.4,18.2,9.8c7.8,5.4,20.8,13.4,28.4,17.8
		c14.2,8.2,16.8,10.2,28.8,23.2c8,8.8,19.4,14.8,42.2,22.2c9.4,3,24,8.6,32.4,12.2c14.4,6.6,15.8,6.8,22,4.2
		c3.6-1.6,9.6-6.4,13.2-10.6c13.6-16,14.6-16.8,21.6-16.8c11,0,13.6,9.8,7.6,30c-2.6,9-2.8,12.4-0.6,23.2c2.2,11.4,2,14.8-2,33.8
		c-4,18.6-4.4,24.4-3.2,47.6c1.2,20.2,0.6,30.6-1.8,45c-6.2,35.8-3.2,48.2,11.4,48.4c7,0,15.4-8,15.4-14.6c0-6.2,7.2-15.4,12-15.4
		c8.4,0,9.6,9.4,4.8,39.4c-11.4,71.6-25,108.8-85.8,231.6c-44.4,89.8-67.4,129.8-109.6,190.4c-13.6,19.6-21.6,28.6-25.4,28.6
		C1453.4,12548,1450.8,12546.8,1448,12545.4z"/>
	<path d="M552.8,12387.2c-1.8-3-5.4-16-8-29c-2.6-13-7-30.8-9.6-39.4c-2.8-8.8-9.6-31.8-15.2-51.4c-5.6-19.6-15.2-49-21.2-65
		c-17.2-45.4-18.8-52.8-20.8-104.4c-1-26-3.2-52.6-5-63c-5.6-29.4-1-59.8,14-95c7.8-18,8-21.6,4.6-41.8c-2-11.2-1.8-15.4,0.4-22.2
		c3.4-10,7.8-13.2,21-15c14.2-2.2,16.2-3.6,26.4-19.6c16-25,23.6-32.8,35.2-36.6c12.6-4,16.4-7.4,31.4-26.8c15-19.6,20-24,28.6-25.4
		c8.4-1.2,11.8,2.6,15.6,18.4c1.2,5.6,3.6,12,5.2,14.6c4.6,7.4,5.8,30.4,2,37.6c-4.6,9-7.4,10.6-23.4,14
		c-18.4,3.8-51.8,21.6-68.2,36.4c-6.6,6-18.8,19-27.2,29c-8.4,10.2-18.2,21.4-22,25.2c-7.4,7.6-8.8,16.4-3.6,26.2
		c4.4,8.6,10.6,12,22.2,12c9.2,0,11.6-1,23.6-10.2c7.6-5.6,16.4-14.4,19.8-19.4c12.4-18,25.6-30.2,40.2-37.4
		c14.6-7.2,35-11.6,50-10.8c10.6,0.6,17.8-4,24.8-16c6-10,5.6-3.8,4-78.2l-0.6-25l-8.6-15.4l-8.4-15.4l5.4-3.6
		c16.2-10.6,43.6,5.8,57.8,34.4c12.8,26.6,9.2,78.2-10.4,146.8c-3.8,13.8-9.4,29-12.4,34c-9.4,16.2-30.4,35-49.8,44.6l-17.4,8.6h-36
		c-45,0-47.2,0.8-70,26.4c-19.8,22.4-32.2,42.4-39.6,64c-5.6,16-6,18.8-5.2,38.4c1.2,24,3.8,34,25.8,96.8
		c24.2,69,33.8,109.6,33.8,142.6c0,11.8-0.8,17-2.8,18.6C556.8,12391.8,555.6,12391.2,552.8,12387.2z M629.2,11985.6
		c-6.2-20-1.2-36,14-44.8c7.6-4.6,10.8-5.2,20.8-4.4c8.2,0.6,14,2.2,18,5.2c3.2,2.4,6.4,4.4,7,4.4c2.8,0,9.2-18.4,10.2-29.6
		l1.4-11.8l-7.8-1.2c-4.4-0.8-15-1.4-23.8-1.4c-46.6,0-76.2,23.6-81.8,65l-1.4,10.2l7.8,4.4c8.8,4.8,19.8,7.8,30.2,8.2
		C629.8,11990,630.4,11989.6,629.2,11985.6z"/>
	<path d="M458.6,12359c-16-13.6-59-71-78.4-104.4c-11.8-20.6-10.4-33.6,3-26.6c4.4,2.4,61.6,85,79.2,114.6
		C476,12365.4,474.4,12372.4,458.6,12359z"/>
	<path d="M1685,12273.2c-7.6-5.6-4.8-17,18-72.2c23.8-57.6,37.6-93.8,49.4-131c4.4-13.8,11.8-32.2,16.6-41
		c9.8-18.2,16.2-39.2,25-80.6c18.6-88.2,18.8-154.8,0.8-273.4c-16.4-109.2-31.2-169.4-49.8-204c-5.8-10.8-10.8-24.2-15-41
		c-9.8-37.6-13.4-44-50-87.2c-17.4-20.6-20.6-23.6-43.8-39.4c-9.4-6.6-21.2-15.6-26.2-20.2c-5-4.8-11.6-10.2-15-12.2
		c-18.2-11-69.8-65.2-79.4-83.2c-6.2-11.4-7.2-25.4-3-37.8c6.2-18.2,21-4,45.6,44c8.4,16.6,14,24.2,25.8,36.2
		c18.2,18.6,32.2,25.6,64.4,33c71.6,16.4,78.8,21.6,89.4,63c5.4,21.6,7,25,23.8,51c81.2,126.4,110.4,214.8,110.4,334.8
		c0.2,45.2-3,63.6-27.2,163c-31.8,131.4-42,168.6-62.6,229.4c-20.8,61.2-55.6,142.6-67.2,157
		C1704.8,12274.2,1692.8,12279,1685,12273.2z"/>
	<path d="M1030.8,12255c-5.6-8.6-2.6-19.2,9.8-35.6c18.2-24.2,35-41,55.4-55.6c18.2-12.8,32-26,37.2-34.8c3.4-6,9.6,16.6,8.2,30
		c-1.4,14.6-7.4,25-26.8,47.4c-16.4,18.8-26.8,27.6-33,27.6c-1.6,0-8.2,4.6-14.8,10.2C1048.4,12260.4,1036.6,12264,1030.8,12255z"/>
	<path d="M346,12200.6c-8.4-8.4-10.2-12-14.8-27.6c-8.8-29.2-10.4-32.8-27.4-59c-21.2-32.6-27.2-45.6-31-66.6
		c-1.6-9.6-8-33.4-14-52.8c-14.4-46-18.6-65.8-20.8-96.4c-2.2-31,0-66.8,7.4-117.2c4.2-29.8,5.4-44.2,5-66.2
		c-0.4-27.2-0.2-28.8,5-40l5.6-11.8v-69c0.2-66.2,0.4-70.2,5.6-98c3-16,6.2-42.4,7.4-59c5-73.8,8.6-95.6,20.6-129.4
		c8.8-24.4,18.2-41.4,33.8-60.8c20-25,55-53.4,83.2-67.6c8-4,36-11.2,44-11.2c0.4,0,5.6-5,11.4-11c8.8-9.2,11.6-11,17.4-11
		c7.8,0,15.6,6.6,15.6,13.4c0,2.2-2.2,9-4.8,15c-3.6,8.2-4.8,14.4-4.8,24c0.4,21-3.4,26.4-28.8,39.6c-38.4,20-96.6,72.4-110.2,99
		c-3.8,7.8-10.2,19.2-14,25.6c-7.6,12.4-10,23-13.4,57.4c-1.2,11.6-5.2,35.4-9,53c-14.6,69.2-16.8,99.2-19.2,284
		c-1,77-2.4,160-3,184.4c-2.4,82.2,2.8,105.4,37,163c25.2,42.6,37.2,74.4,35.8,95c-0.6,8.2-1.2,9.6-5.2,10.2
		C357,12210.2,353,12207.6,346,12200.6z"/>
	<path d="M993.8,12193.4c-4.8-2.6-14.2-8-20.6-12c-6.6-4-13-7.4-14-7.4c-10,0-19-5.6-37-22.8c-18.8-18-19.6-18.6-30.6-19.8
		c-22.8-2.2-50.6-21.8-55.8-39c-2.8-10-1.2-12.8,15.4-25.6c13.8-10.8,16.6-15,16.8-25.8c0.2-16.4,5.6-27,14-27
		c1.4,0,8.8,6.6,16.8,14.6c7.8,7.8,20.8,20.2,28.8,27.2c12.4,10.8,15.8,15.2,23.4,30.8c8.8,17.8,8.8,18.2,5.4,23
		c-10.4,14.8-10.6,15-7,18.8c1.8,2,11.8,6.4,22.4,9.6c11.8,3.8,23.8,9.2,31,14c12.4,8.6,19,9.8,24,4.8c4.6-4.4,4-20.4-1-31.8
		l-4.2-9.4l4.2-4.2c4.2-4.2,6.8-4.6,29.6-3.2c5.4,0.4,8.4-1.4,17.4-9.8c6-5.8,12-10.4,13-10.4c1.2,0,6.6-9,12.2-20
		c5.4-10.8,11.8-20.8,13.8-22c5.2-2.8,10.6,4.2,16.2,21c2.4,7.2,5.2,13.4,6,14c2.2,1.4,11.8-3.4,22.2-11c11.6-8.4,19.2-11,22.8-8
		c4,3.4,7.2,15.8,5.2,19.8c-1,1.8-9.4,7.6-18.6,13.2c-9,5.4-20,13.4-24.2,17.6c-5.8,6-8.6,7.6-12,6.6c-13-3.8-15-3.6-18.8,0.8
		c-9,11.2-10.4,12-21,12H1079l-30,30.6c-16.4,17-32,31.8-34.4,33.2C1008.2,12199,1003.8,12198.6,993.8,12193.4z"/>
	<path d="M634.6,12113c-5.8-1.6-17.6-6.6-26.4-11c-10.2-5-18.8-8-23.6-8c-13,0-22.4-3.6-25.6-10c-3-5.6-2.8-5.8,7.4-14.8
		c5.8-5,16.8-12.6,24.6-16.6c12.2-6.6,15.8-7.6,28-7.6c11.6,0,17.2,1.2,33,7.8c15.4,6.2,20.8,7.4,28.6,6.6
		c13.2-1.2,27.4-11.4,49.8-35.8c10-10.8,19.4-19.6,20.8-19.6c3.4,0,5.6,8.4,4.2,16c-1.4,6.4-15.6,32.4-31.6,57.6
		c-12.8,20.2-21.4,27.8-33.6,29.6c-5,0.8-12.4,2.6-16.4,4C661.6,12115.4,645.8,12116.2,634.6,12113z"/>
	<path d="M1361.8,12088.6c-26-27-40.6-46.4-56-73.6l-6.6-11.8l12.6,10.4c17.6,14.8,30.4,20.8,46.2,22c17.4,1.2,50.8-4.4,64.8-10.8
		c14.8-6.8,21.2-5.6,36.4,6.8c6.6,5.2,20,13,30.4,17.4c23,9.8,32.4,17,32.4,25c0,9.8-5.8,12-31,12c-12.2,0-28.2,1.4-36,3.2
		c-26,5.6-60,12.4-69,13.6l-9.2,1.4L1361.8,12088.6z"/>
	<path d="M1855.4,12078.6c-3.6-3.4,0.6-9,24.2-32.4c66.8-65.8,93.4-115,105.6-195.2c1.8-13.2,26.6-33.8,36-30.2
		c3,1.2,3.2,3.8,2.2,19.8c-2.6,44.2-21,91.4-53,136.2c-16.6,23.2-51.8,58.8-81.2,82.4C1865.2,12078.4,1858.8,12082.2,1855.4,12078.6
		z"/>
	<path d="M382.6,12056c-9.4-5.6-12.8-12.4-18.2-34.8c-4.2-18.2-4.8-26.2-5.8-78.8c-1.6-84.6,3.6-164.4,13.4-208.8
		c8.2-36.6,19.8-64.8,40.2-98c23.2-37.8,29.4-56.6,26.8-82.2c-1.8-19.8-6.4-32.6-14.2-41.4c-10.4-11.4-21-14.8-42.4-13.4
		c-20.8,1.2-29.6-1.4-31.6-9.8c-0.8-3-0.6-6.8,0.6-8.4c1-1.6,9.8-6.4,19.8-10.4c9.8-4,47.6-21,84-37.6
		c36.4-16.8,67.6-30.4,69.2-30.4s5.4,1.8,8.4,4.2c7.2,5.6,7.2,19.8,0.2,33.8c-9.2,18-19,68-19,96.2c0,14.4,5,41.2,10,52.6
		c4.8,11.6,15.2,22.8,34.4,37.6c20.8,16.2,41.6,39.8,41.6,47.6c0,10.6-10.4,16.2-22.6,12.2c-3.6-1.2-11.2-6.2-16.8-10.8
		c-25-21.4-42.8-31.6-61.8-35.6c-54-11-88.8,59.4-99,201.2c-2.2,31.4-1.2,170.6,1.4,198.4c1,10.6,0.6,12.8-3,16.4
		C393,12061,390.8,12061,382.6,12056z"/>
	<path d="M1223.4,12051.8c-4.4-2.6-9.4-12.2-9.4-18.4c0-2.6-3.6-10.4-8-17.6c-18.6-29.6-20.8-35.6-20.8-51.8
		c0-17.4,4.8-29.6,17-42.4c5.8-6.2,8.6-7.8,13.2-7.2l5.6,0.6l-0.8,15.8c-1,23.8,1.2,35.8,7.8,44.2c3.4,4.4,6.6,11.8,8,18.6
		c1.4,6.2,5.2,16.6,8.4,22.8l6,11.4l-3.4,10C1242.4,12052,1233.2,12057.4,1223.4,12051.8z"/>
	<path d="M798.2,12037.8c-4.4-7.8-4.6-9.4-3.2-31.4c0.8-13,3.2-28.8,5.2-35.4c4.4-14,26-51.6,32.4-56c8.2-5.8,16.4-2.6,20.2,8
		c1.8,5-2.2,42.8-5.8,56c-2.2,7.6-6,13.2-15.8,23.2c-10,10.4-13.6,15.8-16,24c-3.4,11-8.2,19.8-10.8,19.8
		C803.4,12046,800.6,12042.4,798.2,12037.8z"/>
	<path d="M1708.6,12012.6c-4.2-3.2-15.6-13.8-25.2-23.8c-16.6-17.4-17.4-18.6-17.4-27.2c0-5.4,2-13.6,5-20
		c10.4-22.8,13.4-39.8,14.4-81c1.6-59.2-2.6-87-22.2-148.6c-6.2-19.2-12.6-42.6-14.4-52c-10-55-23.8-79.4-49-86.8
		c-29.8-9-58.4,2.4-80.8,32.2c-1.4,1.8-2-1.8-2-11.8c-0.2-26.2-11.4-51-32.8-72.6c-18.4-18.6-32-21-51-9l-9.4,6l1.4-7.4
		c3.2-18.4,18.4-36.6,30.6-36.6c2.8,0,10.6,3.6,17.2,8.2c21.6,14.4,26.6,16.4,38.8,15.2c22.2-2.4,51.6-22.4,62.6-42.8
		c10.2-18.8,11.4-44.2,3.2-70.6c-8-26-22.4-47.4-61-90.8c-12.4-14-22.6-27-22.6-29.2s1.8-4.8,4-6c6.8-3.6,18.8,1.2,34.8,14
		c33.6,27.2,59.2,61.6,75,100.6c4,10.2,11.4,25.2,16.4,33.4c13.8,22.8,16.8,32.2,16.6,52c0,9.4-1.2,25.2-2.6,35
		c-5,38-5.4,33.8,3.8,43.8c6.8,7.4,8.6,11,11,23.4c1.6,8.2,6.4,23,10.8,33c10.8,25,16,42.6,17.4,59.6c1.8,20.2,3.6,27,16.8,56.2
		c12.6,28.6,17.8,43.6,24,69c7,28.2,14.8,192.6,10.8,222.6c-1.4,10-6.8,17.4-12.6,17.4C1718.2,12018,1713,12015.6,1708.6,12012.6z"
		/>
	<path d="M1369,11994.2c-29.4-8.4-49.4-23-71.2-52c-29-38.6-44.4-75.4-44.4-106.6c-0.2-14.2,0.6-16.8,8.2-32.2
		c8.8-18,26.6-37.4,34.2-37.4c8.4,0,11.6,6.2,13,25.2c1.8,21,8.2,64.6,11.2,75.2c2.4,8.2,10.2,18.4,16.6,22
		c2.4,1.2,12.8,2.4,23.4,2.8c31.2,0.8,60.2,9.2,86.8,25.4c13.4,8,39.6,28.2,47.6,36.8l5.6,5.8l-10.6,7.8
		c-15,11.4-41.6,24.2-57.4,27.8C1413.8,11999,1384.4,11998.6,1369,11994.2z M1440.8,11977.2c5.6-2.6,13.8-7.8,18.2-11.6l7.8-7
		l-3.6-5.4c-12.6-19.4-33.2-34.4-58-42.4c-22.8-7.4-55.4-7.6-77.2-0.4l-15,4.8l0.6,7c1,14.6,6.8,26.2,18.2,38.2
		c12,12.2,16.2,14.2,16.2,7.6c0-11.2,11.6-23.6,25.2-27c24.2-6,44.8,8.8,44.8,32.6v11l6.4-1.4
		C1427.8,11982.6,1435.4,11979.8,1440.8,11977.2z"/>
	<path d="M444.8,11829.2c-2.8-11.2,6.2-25.8,18.2-29.8c7-2.2,8.8-4.2,14.2-15.2c5.4-11.2,7.6-13.6,21.2-22.2
		c8.4-5.4,17.4-12.6,19.8-15.8c5-7,18.4-14.2,26-14.2c7.8,0,13.8,5.4,13.8,12.2c0,14.4-15,29.2-34.6,34.6c-6.8,1.8-18.8,6.8-26.4,11
		c-13.4,7-14.4,8.2-21.2,22.2c-8.4,17-13.6,22-23,22C447.4,11834,445.8,11833,444.8,11829.2z"/>
	<path d="M2065.4,11832.6c-5-1.2-7.8-9.4-5.4-15.6c1-2.8,5.2-7.2,9.4-10s17.2-11.4,29.2-19.2c98.6-65.2,169.4-173.6,189.2-289.8
		c15.6-90.6,0-178.6-51.4-292l-11.4-25l-0.6-28c-1-43,4.4-53,20.6-38.8c8.6,7.6,19.6,23.6,43.4,62.8c9.4,15.4,24,38.8,32.4,52
		c38,58.8,49.8,94.2,49.8,150c0.2,15.4-1,35.2-2.4,44c-2.6,16.2-10.8,53.2-13.2,59.6c-2.4,5.6,1.8,4,20.4-8.4
		c18.6-12.4,60.2-53.2,71.8-70.2c8.6-12.4,15.8-31.6,20.2-53c2.8-14.4,3.6-27.6,3.6-67c0-42.6-0.6-52.2-4.6-73
		c-15.6-82.2-43.6-157.6-98.2-264.2c-19-37-27.2-50.8-41.4-69c-42-54.4-53-65.4-123.4-122.8c-93.2-75.8-111.6-87.6-251.4-158
		c-89.6-45.2-112.4-57.6-160-87.6c-99.2-62.4-130.8-87.4-168.8-133.4c-27.6-33.2-37.2-43.6-51.4-55c-18.8-15.6-28.4-32.2-23.6-41.2
		c4-7.4,12.2-4.6,39.2,13.6c15.8,10.6,39.4,24,61.6,34.6c53.6,25.8,71.8,42,110.6,98.4c24.4,35.6,37.8,51.4,54,63.4
		c18.8,14.2,66.4,42.2,113.4,66.8c22,11.4,59.8,31.2,84,43.8c70,36.6,107.6,59.6,141,86c26,20.6,103.8,92,133,121.8
		c30.6,31.4,45.2,49.6,55.8,69.8l7,13.2l12.8-1.2c10.8-0.8,14-2,20.4-7.8c7-6,8.4-6.6,16.8-5.4c19.6,2.6,38.4,21,55,53.2
		c31.4,61,58.6,144.4,71.2,217c2.2,13.2,6,29.2,8.4,35.6c4.6,12.8,4.2,20.2-2.6,48.2c-4.6,19.4-4.8,30.2-0.8,54.2
		c4.4,26.6,3.8,34.4-3.8,55.8c-11.2,31.2-28.2,58.2-58,91.2c-22.8,25.6-69.4,67.8-88.2,80.2c-9.8,6.6-24.2,16.6-31.8,22.4
		c-12.6,9.6-14.6,12.2-24.6,32.2c-40.8,81.2-108,157.4-209.6,238C2079.2,11831.4,2073.8,11834.6,2065.4,11832.6z"/>
	<path d="M1618.6,11810c-8.8-5.2-12-10.8-15-26.2c-2.2-10.4-6.4-18.8-20.6-42c-23.2-37.4-33.2-51.6-46.8-66.2l-11-12l5.8-5
		c7.4-6.4,15.4-5.6,36.6,4.2c8.4,3.8,19,8,23.6,9.2c4.4,1,10.2,4.2,12.6,6.8c2.6,2.8,9,16.4,14.2,30.6c5.2,14,13.4,35.6,18,47.6
		c10.4,26.6,12,37,7.2,46c-3.4,6.2-10.4,11-15.8,11C1626,11814,1622.2,11812.2,1618.6,11810z"/>
	<path d="M1997.4,11762.4c-3.2-1.4-3-2.2,1.8-9.2c22.8-33.6,33.8-87.2,29-143c-5.6-68.2-20-119-51.4-182
		c-26-52.2-57.8-100.8-105-159.4c-31.8-39.8-33.8-44.8-28.8-73c5.6-32.2,3.4-81-5.8-120.8c-14.2-62.2-54-138.8-107-206.8
		c-8.8-11.6-16.2-22.8-16.2-25.2c0-7.8,5.6-23.4,10.2-28.2c3.2-3.4,6.8-4.8,11.6-4.8c6.6,0,9,2,28.2,22c11.6,12.2,25,24.8,29.8,28
		c8.6,5.6,9.6,5.8,25.4,4.6c21.4-1.6,31.4,2,42.8,14.8c6.2,7,9.4,13.4,13.2,26.4c2.8,9.4,8.6,26.6,13,38.2
		c19.4,52.2,27.8,96.4,27.8,146.8c0,24.6-3.6,62.8-6.4,68c-1.2,2-2,8.8-2.2,15.2c0,12.6,5.2,24.2,16.8,37.8
		c11.2,12.8,55.6,88,72.8,123.2c27.6,56,45.4,106.6,59.8,169c24.4,106.8,22.8,149-8.8,215.6c-12,25-19.4,34.8-30.6,40.2
		C2008.4,11764.2,2003.6,11764.8,1997.4,11762.4z"/>
	<path d="M689,11650c-7.6-3-12.6-11-25-39c-40.4-91.4-78.6-201.2-119.8-343c-13.8-47.8-20.2-85.6-20.2-119.4
		c0-84,29.4-160.6,85.8-222.6c13.4-14.8,16.4-17,36.8-26.8c12.4-6,24.2-12.8,26.4-15.2c5.8-6.4,5-24.6-2.2-46c-5-14.8-5.8-20-5.6-40
		c0-26,3-39.2,14-60c14.2-27.2,37-49,71.8-69c40.2-22.8,78-25.4,170-11c55,8.6,70,9.2,122,4.4c67.8-6.4,77-6.8,99.4-4.4
		c39.2,4,60.6,12.8,81.6,34c21.4,21.4,32,46.4,36,84.8c1.8,15.6,1.8,26.4,0,42.6c-5.8,54.2-6.4,52,16.4,54.6
		c17.4,2,31.4,5.4,56.4,13.8c68.4,23.4,121.4,87,138.4,166.6c6.6,31.8,6.6,96.2-0.2,133c-7.8,42.2-17.4,73.6-51,167.6
		c-23.8,66.6-27.6,79.2-47.8,154.2c-23.2,86.4-30.4,104.8-40.6,104.8c-5.2,0-10.2-8.8-9-16.4c1.8-13.6,74.2-261.6,85.2-292.6
		c25.6-71.8,42-146,42.2-189c0-36-11.4-80-29.6-114.6c-11.2-21.2-43.2-64.6-54.2-73.2c-22-17.4-56.2-28-104.6-32.2
		c-43.4-3.6-72.2,2.8-139,31.8c-38.2,16.4-46.4,20.6-60.6,30.2c-25.4,17.4-35,33-42,68c-2.2,11.6-6.4,29.4-9,39.6
		c-10,37.4-5.4,51.2,24.6,73.8c8,6,16.8,13.4,19.6,16.2c5,5.2,20.8,35,20.8,39.2c0,1.4,7.6,2.2,20.6,2.4c17.8,0.2,23,1.2,42.2,7.6
		c28,9.4,63,27.6,76,39.4c5.6,5.2,15,11.4,20.8,13.8c11.4,4.8,12.8,8,6,12.8c-6.2,4.4-10,4-32.8-2.8c-25.8-7.8-35-7.8-44.6-0.2
		c-14.8,11.8-62.2,32.4-80.6,35.2c-12.6,2-27-1.2-58.8-13c-48.6-18.2-57.4-18-105.2,1.4c-27.8,11.2-29.2,11.6-47.6,11.6
		c-17.6,0-20.6-0.6-39-8c-19-7.6-20.2-8.4-24.6-17c-2.4-5-6-10.2-7.8-11.4c-5.2-3.8-18.4-3.2-25.6,1.4c-10.4,6.4-12,13-12,49
		c0.2,41,3.2,57.4,20.8,111.6c10.2,31.6,15.2,50.4,19,73.4c2.8,17,4.8,31,4.4,31.4c-1.4,1.6-14-27-22-50.6
		c-4.8-14.2-14.2-37.6-20.8-51.8c-13.6-30-21.2-52.2-24.6-71.8c-4.6-27,2.6-71.2,13-79.4c11.4-9,4.2-23.8-11.8-23.8
		c-7.8,0-10.4,1.2-17.8,8c-20.2,18.6-42.8,17.2-34.6-2.4c4.6-10.8,13.8-17.8,32.8-24.8c9.6-3.4,26.8-10.6,38-15.8
		c28-12.8,37.6-13.6,56.4-5c13.2,6.2,15.2,6.4,28.6,5.4c22.2-1.8,29.8-10,33.2-34.8c1.4-10,3.2-14.2,9.4-21.8
		c9-10.8,30-25,47.6-32.2c31-12.4,32.4-15.6,32.4-71.6v-40l-6.6-13.4c-7-14.4-17.6-25-32.4-32.6c-20.6-10.4-148-65.6-164.8-71.2
		c-16.4-5.6-39.6-5.4-58.2,0.4c-30,9.2-61.8,29.6-78.2,50c-49.4,61.8-74.8,123.4-74.8,180.4c0,63.4,21.4,143.2,88.4,329.4
		c59.6,165.4,63.8,179,57.2,185.6C694.8,11652.4,694.4,11652.4,689,11650z M1124.8,11279.4c6.6-3.6,13.6-8.8,15.8-11.8
		c3.8-5.2,3.8-5.6,0.6-10.6c-4-6-17.6-12.6-39.4-19.2c-19.2-5.6-31.4-17.4-43.6-42.2c-6.8-14.2-11.2-20-23.4-31.4
		c-9-8.4-20.4-16.8-28.4-20.6c-11.4-5.6-15.4-6.6-28.4-6.6c-20.8,0-34,6.6-54.2,27c-12.6,12.6-16.2,17.8-20,28.2
		c-4,11-7.4,15.6-23.8,32c-20.4,20.4-18.4,19.4-50.4,27.8c-17.2,4.6-22.4,16.2-11,24.8c5.2,3.8,8.2,4.2,35,4
		c32.8-0.2,46.2-2.2,72.4-11c32-10.4,46.2-10,99,3.4c35.8,9.2,54.2,12.4,73,12.6C1111.2,11285.8,1114.4,11285.2,1124.8,11279.4z
		 M898,10892.4c5-2.2,12.8-3,26.8-2.8c20.8,0.4,78.8-6.8,110.2-13.6c23.8-5.2,42.8-5,73,1c30,6,51,6.2,80.2,1.2
		c24.2-4.2,29.2-6.8,37.8-20c9.6-15.2,12.8-28.2,12.8-53.2c-0.4-61.2-29.2-100.8-84.6-115.4c-22-5.8-61.6-6.8-98.2-2.8
		c-42.6,4.8-83.8,6.2-105,3.4c-9.8-1.4-34.2-5.6-54-9.6c-46.6-9.2-77.6-10.2-101-2.8c-50,15.6-87.2,51.6-99.2,96.2
		c-4.8,18-4.8,55.4,0.2,77.6c4.4,19.8,2.6,18.6,44.6,29.2C803,10896.2,876.8,10901.6,898,10892.4z"/>
	<path d="M1151,11522c-0.8-1.2,2.4-12.2,7-24.2c19.4-52.2,27-97,33.2-198.4c1.4-23.8,5.6-30.4,14-22c3,3,3.2,6.4,2,29.6
		c-2.8,55.4-12.4,116.8-24.8,157c-8.2,26-18.2,52.2-22,56.6C1157,11524.4,1152.8,11525,1151,11522z"/>
	<path d="M627.8,11222.2c-3.2-3.2-5.8-7.2-5.8-8.8c0-1.6,7.4-10.6,16.6-19.8c14-14.4,19.6-18.4,38.4-28c22-11.2,39.6-16.6,71-21.8
		c8.2-1.4,20.4-5,27-8.2c34-15.8,66,6.6,38.6,27c-4.2,3.2-10.2,4.4-26,5.6c-12,0.8-30.6,4-44.4,7.6c-13,3.4-28,6.2-33.6,6.2
		c-11,0-18.2,3.2-25.6,11c-2.8,3-10.4,9-17,13.6c-6.6,4.4-15.4,11-19.6,14.8C638.2,11229.6,635.4,11229.6,627.8,11222.2z"/>
	<path d="M1312.4,11180.8c-31.2-10.4-41.8-11.2-69.8-5c-11.4,2.6-25.6,4.2-36.6,4.2c-16.6,0-18.6-0.4-23-5c-6.2-6-6.2-9.8-0.2-16
		c5.4-5.4,8.8-6,54.2-8.8c33.8-2.2,43.6-1.6,77.8,5.6c10.8,2.4,24.6,4.2,30.4,4.2c17.4,0,27,5.4,29.8,16.4c1,3.8,0.2,6.4-2.8,9.4
		c-3.4,3.4-6.6,4.2-18.6,4.2S1334.2,11188.2,1312.4,11180.8z"/>
	<path d="M594,11166c-5.4-5.4-5.4-12,0.2-12c10.6,0,16,9.6,7.8,14C599,11169.6,597.2,11169.2,594,11166z"/>
	<path d="M642.8,11125c-10.2-10.2-0.2-22.2,13.6-16.4c12.8,5.4,14.8,14.4,4.4,19C653.2,11131.2,648.4,11130.4,642.8,11125z"/>
	<path d="M1157.6,11126c-4.2-2.6-4.8-10-1.2-13.6c3.2-3.2,20-3,24.6,0.4c7,5,0,11.8-15,14.4
		C1163.2,11127.6,1159.4,11127,1157.6,11126z"/>
	<path d="M1396,11111.6c-6.6-11-4.4-21.6,4.6-21.6c6.8,0,12.4,20.2,7,25.6C1403.6,11119.6,1400.2,11118.4,1396,11111.6z"/>
	<path d="M1242,11112c-7.4-7.4-3.8-20,5.6-20c3.2,0,6.6,1,8,2.4c3.6,3.6,2.8,14.6-1.2,18.2C1249.6,11117,1246.8,11116.8,1242,11112z
		"/>
	<path d="M1309.6,11112c-4.4-3.6-4.4-4-1.6-9.4c3.8-6.8,10.6-8,20.8-3.8c4.8,2,7.2,4.2,7.2,7
		C1336,11113.8,1317,11118.2,1309.6,11112z"/>
	<path d="M730.4,11102c-9-3.8-7.2-13.4,3.6-19c7.2-3.8,9-3.8,12.8,0.2c4.4,4.2,4,12-0.8,16.8
		C741.6,11104.4,737.6,11104.8,730.4,11102z"/>
	<path d="M279,11088c-1.6-5.2,2-11.6,19-34c43.6-57.2,85-97,164.6-159c53.6-41.6,62.2-46,113-57.8c28-6.6,31.4-5.6,30,8.8
		c-1.4,13.6-11.8,35-19.6,39.8c-3.6,2-17.4,7.6-30.6,12.4c-50.2,17.6-113.2,53.6-161.4,92.4c-28.4,22.8-69.4,60.8-89.8,83
		C287.4,11092,281.4,11095.4,279,11088z"/>
	<path d="M617.2,11083.6c-8.2-11.6,0.8-24,12.4-17.4c3,1.6,6.2,5.4,7.4,8.6c1.6,4.8,1.2,6.2-2.8,9.4
		C628,11089.2,621,11089,617.2,11083.6z"/>
	<path d="M1116.8,11081.8c-4.2-4.6-2.8-8.2,5.4-14.2c7.2-5.4,11.8-3,11.8,6.2c0,4-1,8.4-2.4,9.8
		C1128,11087.2,1121,11086.4,1116.8,11081.8z"/>
	<path d="M832.6,11081.8c-4.8-4.8,3.2-15.8,11.4-15.8c6.4,0,10,3.4,10,9.4C854,11082.6,838,11087.2,832.6,11081.8z"/>
	<path d="M1230,11062c-2.2-2.2-4-4.8-4-6c0-3.2,9.6-8.4,14.4-7.6c6.6,0.8,7.4,10.2,1.2,14.4
		C1235.8,11066.8,1234.8,11066.8,1230,11062z"/>
	<path d="M222,11062.2c0-5.6,6.4-44.4,9.2-55.2c7.2-28.4,19-59.8,43.8-116c14.6-33,29.8-69.4,34-81c4-11.6,8.8-22.8,10.8-25
		c6.8-7.4,8.2-12.6,8.2-30.4c0-37,13.4-97.6,29.6-134.8c4-9.2,11.6-22,41.2-69.6c16.4-26.6,47.6-61.8,61-69.2
		c9.8-5.4,48-5.6,70.8-0.4c23.6,5.6,23.6,5.8-26.2,55.2c-22.8,22.6-46.2,47.6-52,55.2c-5.8,7.8-18.4,29.8-28.2,49.2
		c-24.4,48.4-34,78.8-37.2,116.8c-0.6,8.8-2.6,20.6-4.2,26.4c-3.8,13.6-20.4,38.2-52.8,77.6c-31.6,38.6-47.6,61.6-50,72.2
		c-1,4.2-2,14-2,21.4c0,14.8-2.8,23.6-11.2,34.4c-4.2,5.6-5.6,10.6-7.6,26.8c-2.6,21.2-8.6,34.8-19.2,42.4
		C233.8,11062.8,222,11065.4,222,11062.2z"/>
	<path d="M1175.2,11060.6c-0.6-0.6-1.2-4.6-1.2-8.6c0-12.6,11.4-18.4,19-10c3.6,4,3.6,4.2-0.6,8.6
		C1187,11056.4,1177,11062.2,1175.2,11060.6z"/>
	<path d="M1335,11054c-1.8-2-3-5.2-2.2-7c1.4-4,11-7.6,16.8-6c6.2,1.6,7.6,6,3.6,12C1349.2,11059.2,1340.2,11059.6,1335,11054z"/>
	<path d="M694.6,11049.6c-2.2-2.6-6-7.8-8.6-11.6c-2.6-3.8-8.6-11.2-13.4-16.2c-9.2-9.6-9.8-14.4-2.2-17c5.8-1.8,11.4,0.2,25,9
		c17.8,11.4,24,26.8,14.6,36.2C704.8,11055.2,699.6,11055,694.6,11049.6z"/>
	<path d="M906.6,11040.2c-8.6-5.4-10.2-11.2-4.4-17.4c5.8-6,16.6-6.6,19.8-1c2.8,5.6,2.4,12.6-1.2,17.8
		C917,11045,914.8,11045,906.6,11040.2z"/>
	<path d="M1068.2,11038.8c-7-5.8-7.8-10.8-2.6-15.2c4.2-4,11.8-6.2,13-4.2c0.4,0.8,1.6,6.8,2.2,13.2c1.4,10.6,1.2,11.4-2.6,11.4
		C1076.2,11044,1071.6,11041.6,1068.2,11038.8z"/>
	<path d="M814.4,11037.8c-3.6-1.4-4.6-3-4-7.2c1.4-11.8,25.6-17.2,25.6-6C836,11033.6,823.2,11041.4,814.4,11037.8z"/>
	<path d="M1703.6,11020c-13.8-4.2-46.6-30.6-59.8-48c-14.2-18.8-23.8-39.6-40-87c-21-61.6-35-86.8-59.2-106
		c-22.6-17.8-40.6-26.2-99.8-46c-53.4-18-88.6-36.8-139.4-74.8c-25.4-19-65.2-54-83.2-73.4c-22.6-24.2-22.8-25-24.2-81.8
		c-1.2-45.2-1.6-49-6.6-63.6c-6.8-19.8-7-28-0.4-34.6c4.6-4.6,5.2-4.8,10.6-2c9.8,5,23.4,25.4,56.4,84c10.2,18,31.8,42.8,69.8,79.8
		c57.8,56.2,68.8,64.4,137.2,103.6c60.6,34.6,81.8,49.2,108.6,74.6c21.2,20.2,33.4,36.4,36.2,48.2c4.4,18.4,14.6,47.8,25.2,73
		c25,58.6,39.2,85.4,59.8,112.4c6.6,9,14.6,19.4,17.6,23.4c6.2,8,7.2,17.2,2.4,19C1711.2,11022.2,1710.8,11022.2,1703.6,11020z"/>
	<path d="M1132,11014.4c0-9.8,17-26.2,50.6-48.8c20-13.4,29.8-18.2,34.2-16.4c8.4,3.2,0.4,12-35,39.2c-13.4,10.2-27.8,21-32.4,24.2
		C1139.8,11019,1132,11019.8,1132,11014.4z"/>
	<path d="M1250.8,11001.4c-7-6-5.4-11.4,3.2-11.4c4.4,0,6,1,6,3.6c0,1.8,0.6,5.4,1.2,8C1262.8,11007.6,1258,11007.4,1250.8,11001.4z
		"/>
	<path d="M734,10997.4c-6.6-3.2-7.2-7.4-2-14c5.2-6.6,10.8-7,14.8-1c4.8,6.8,4,13.4-2,15.6C738.8,11000.4,740,11000.4,734,10997.4z"
		/>
	<path d="M1343.4,10993.8c-1.8-1-4.8-4.6-6.4-7.6c-2.6-5.2-2.6-6,0.8-9c3.6-3.2,13.2-4.2,19-2c4.4,1.8,4,9.2-1,15.6
		C1351.4,10996.4,1349,10997,1343.4,10993.8z"/>
	<path d="M2055.4,10980.4c-6-10.4-14-20.4-24.2-29.8c-13.4-12.6-17.4-15-31.6-19.8c-18-6-15.4-4-65.6-50.8
		c-52-48.6-102-91.2-126-107.4c-5-3.4-23.6-13.4-41.2-22.4c-17.8-8.8-41.2-22.6-52-30.6c-11-7.8-33.8-23.4-50.8-34.8
		c-17-11.2-41.8-29.8-55-41.2c-61.2-52.8-158.8-159.6-175-191.6c-5-9.8-14.6-23-27.8-38c-24-27.2-40.8-57.4-44.6-80.2
		c-5.8-34.2,11.8-57.2,32.6-43.2c6.6,4.4,11.2,10.2,36.8,45.4c7.4,10.2,20,23.8,32.6,34.8c21.2,18.6,35.4,34.8,84.6,96.2
		c70.4,88.2,109,125.6,217.6,211c136.6,107.6,173.6,139.2,236.4,201.8c43.8,43.8,57.6,60.8,67,81c7.8,17.2,6.8,35.2-2.2,35.2
		C2065.6,10996,2060.4,10989,2055.4,10980.4z"/>
	<path d="M846.6,10986c-5-2-6-7.8-2.2-11.6c3.8-3.8,11.2-2.8,14.6,2.2c3,4.2,2.8,4.6-1.2,8C853,10988.4,852.8,10988.4,846.6,10986z"
		/>
	<path d="M1274,10952.4c0-6,5.2-12.4,10.2-12.4c4,0,11.8,7.4,11.8,11s-1.2,4.2-12.4,5.8C1274,10958.2,1274,10958.2,1274,10952.4z"/>
	<path d="M522,10735.8c-0.2-50.4,23.4-106.6,68-162.8c7-8.8,48-51.6,91-95c43.2-43.4,85.4-87.8,94-98.8c18-22.6,27.2-28.6,41.8-26.4
		c18.4,2.8,30.2,16,38.4,43c28.4,93.4,100.4,146.4,214.8,157.8l14.8,1.4l-11.8,9.6c-16.2,13-44.6,26.8-63,30.6
		c-18.2,3.8-50.6,2.8-70-2.2c-19.8-5.2-47.2-19.4-64-33.6c-30.2-25.4-52.8-57.2-83.4-117c-0.4-1.2-23.6,14.8-45.4,31.4
		c-90.2,67.8-160.4,149.8-208.4,242.8L522,10749V10735.8z"/>
	<path d="M978,10439.4c-8.8-3-10.4-9.6-3.6-16.8c6.6-7,16.4-11.6,33.4-15.4c36-8,86.4-43.8,124.2-88c20.4-24,41.2-42.2,60.2-52.4
		c10.4-5.6,25.4-14,33.4-18.8c12.4-7.4,15.4-8.4,20-6.8c7,2.4,9.2,11,7.4,27.6c-1.6,15-4.6,20.2-26.6,46
		c-22.6,26.2-62.6,59-88.4,72.2c-5,2.4-21.2,8.8-36,14c-14.8,5-37.6,14.2-50.4,20.4c-20.6,9.6-54.8,20.6-63.6,20.4
		C986.4,10441.8,981.8,10440.8,978,10439.4z"/>
</g>
</svg>
