<?xml version="1.0" encoding="utf-8"?>
<!-- Generator: Adobe Illustrator 17.0.0, SVG Export Plug-In . SVG Version: 6.00 Build 0)  -->
<!DOCTYPE svg PUBLIC "-//W3C//DTD SVG 1.1//EN" "http://www.w3.org/Graphics/SVG/1.1/DTD/svg11.dtd" [
	<!ENTITY ns_flows "http://ns.adobe.com/Flows/1.0/">
	<!ENTITY ns_extend "http://ns.adobe.com/Extensibility/1.0/">
	<!ENTITY ns_ai "http://ns.adobe.com/AdobeIllustrator/10.0/">
	<!ENTITY ns_graphs "http://ns.adobe.com/Graphs/1.0/">
]>
<svg version="1.1" id="Layer_1" xmlns:x="&ns_extend;" xmlns:i="&ns_ai;" xmlns:graph="&ns_graphs;"
	 xmlns="http://www.w3.org/2000/svg" xmlns:xlink="http://www.w3.org/1999/xlink" xmlns:a="http://ns.adobe.com/AdobeSVGViewerExtensions/3.0/"
	 x="0px" y="0px" width="612px" height="792px" viewBox="0 0 612 792" style="enable-background:new 0 0 612 792;"
	 xml:space="preserve">
<g>
	<g>
		<path style="fill:none;stroke:#000000;stroke-miterlimit:10;" d="M437.2,598.4c0,0-1.1-0.7-1.7-0.5c-0.8,0.2-1.3,1.1-1.1,1.9
			l5.4,19.8l-116.7,31.6l-5.4-19.8c-0.2-0.8-1-1.3-1.8-1.1c-0.5,0.1-0.7,0.5-1,0.8l0,0c-1.2,1.7-3.3,23.1-9.6,24.7
			c-6.2,1.7-107.2,28.9-107.2,28.9c-4.2,1.2-6.3,3.2-5.6,5.6c0.8,3.1,5,2.2,10.4,1.2s100-20.4,124.6-25.5
			c25.5-4.5,116.5-31.4,116.5-31.4c4.2-1.2,6.7-5.5,5.6-9.7C449.7,624.3,440.8,600.6,437.2,598.4z"/>
	</g>
	<g>
		<g>
			<path style="fill:none;stroke:#000000;stroke-miterlimit:10;" d="M319.6,629.6c-0.1-0.2-0.4-0.4-0.6-0.4
				c-0.2,0.1-0.4,0.4-0.4,0.6l6,24.7c0.1,0.2,1,0.1,1.2,0.1c0.2-0.1,1.1-0.6,1-0.8L319.6,629.6z"/>
		</g>
		<g>
			<path style="fill:none;stroke:#000000;stroke-miterlimit:10;" d="M321.8,629c-0.1-0.2-0.4-0.4-0.6-0.4c-0.2,0.1-0.4,0.4-0.4,0.6
				l6,24.7c0.1,0.2,1,0.1,1.2,0.1c0.2-0.1,1.1-0.6,1-0.8L321.8,629z"/>
		</g>
		<g>
			<path style="fill:none;stroke:#000000;stroke-miterlimit:10;" d="M324,628.4c-0.1-0.2-0.4-0.4-0.6-0.4c-0.2,0.1-0.4,0.4-0.4,0.6
				l6,24.7c0.1,0.2,1,0.1,1.2,0.1c0.2-0.1,1.1-0.6,1-0.8L324,628.4z"/>
		</g>
		<g>
			<path style="fill:none;stroke:#000000;stroke-miterlimit:10;" d="M326.2,627.8c-0.1-0.2-0.4-0.4-0.6-0.4
				c-0.2,0.1-0.4,0.4-0.4,0.6l6,24.7c0.1,0.2,1,0.1,1.2,0.1c0.2-0.1,1.1-0.6,1-0.8L326.2,627.8z"/>
		</g>
		<g>
			<path style="fill:none;stroke:#000000;stroke-miterlimit:10;" d="M328.4,627.3c-0.1-0.2-0.4-0.4-0.6-0.4
				c-0.2,0.1-0.4,0.4-0.4,0.6l6,24.7c0.1,0.2,1,0.1,1.2,0.1c0.2-0.1,1.1-0.6,1-0.8L328.4,627.3z"/>
		</g>
		<g>
			<path style="fill:none;stroke:#000000;stroke-miterlimit:10;" d="M330.5,626.7c-0.1-0.2-0.4-0.4-0.6-0.4
				c-0.2,0.1-0.4,0.4-0.4,0.6l6,24.7c0.1,0.2,1,0.1,1.2,0.1c0.2-0.1,1.1-0.6,1-0.8L330.5,626.7z"/>
		</g>
		<g>
			<path style="fill:none;stroke:#000000;stroke-miterlimit:10;" d="M332.8,626.1c-0.1-0.2-0.4-0.4-0.6-0.4
				c-0.2,0.1-0.4,0.4-0.4,0.6l6,24.7c0.1,0.2,1,0.1,1.2,0.1c0.2-0.1,1.1-0.6,1-0.8L332.8,626.1z"/>
		</g>
		<g>
			<path style="fill:none;stroke:#000000;stroke-miterlimit:10;" d="M334.9,625.5c-0.1-0.2-0.4-0.4-0.6-0.4
				c-0.2,0.1-0.4,0.4-0.4,0.6l6,24.7c0.1,0.2,1,0.1,1.2,0.1c0.2-0.1,1.1-0.6,1-0.8L334.9,625.5z"/>
		</g>
		<g>
			<path style="fill:none;stroke:#000000;stroke-miterlimit:10;" d="M337.1,624.9c-0.1-0.2-0.4-0.4-0.6-0.4
				c-0.2,0.1-0.4,0.4-0.4,0.6l6,24.7c0.1,0.2,1,0.1,1.2,0.1c0.2-0.1,1.1-0.6,1-0.8L337.1,624.9z"/>
		</g>
		<g>
			<path style="fill:none;stroke:#000000;stroke-miterlimit:10;" d="M339.3,624.3c-0.1-0.2-0.4-0.4-0.6-0.4
				c-0.2,0.1-0.4,0.4-0.4,0.6l6,24.7c0.1,0.2,1,0.1,1.2,0.1c0.2-0.1,1.1-0.6,1-0.8L339.3,624.3z"/>
		</g>
		<g>
			<path style="fill:none;stroke:#000000;stroke-miterlimit:10;" d="M341.5,623.7c-0.1-0.2-0.4-0.4-0.6-0.4
				c-0.2,0.1-0.4,0.4-0.4,0.6l6,24.7c0.1,0.2,1,0.1,1.2,0.1c0.2-0.1,1.1-0.6,1-0.8L341.5,623.7z"/>
		</g>
		<g>
			<path style="fill:none;stroke:#000000;stroke-miterlimit:10;" d="M343.7,623.1c-0.1-0.2-0.4-0.4-0.6-0.4
				c-0.2,0.1-0.4,0.4-0.4,0.6l6,24.7c0.1,0.2,1,0.1,1.2,0.1c0.2-0.1,1.1-0.6,1-0.8L343.7,623.1z"/>
		</g>
		<g>
			<path style="fill:none;stroke:#000000;stroke-miterlimit:10;" d="M345.8,622.5c-0.1-0.2-0.4-0.4-0.6-0.4
				c-0.2,0.1-0.4,0.4-0.4,0.6l6,24.7c0.1,0.2,1,0.1,1.2,0.1c0.2-0.1,1.1-0.6,1-0.8L345.8,622.5z"/>
		</g>
		<g>
			<path style="fill:none;stroke:#000000;stroke-miterlimit:10;" d="M348.1,621.9c-0.1-0.2-0.4-0.4-0.6-0.4
				c-0.2,0.1-0.4,0.4-0.4,0.6l6,24.7c0.1,0.2,1,0.1,1.2,0.1c0.2-0.1,1.1-0.6,1-0.8L348.1,621.9z"/>
		</g>
		<g>
			<path style="fill:none;stroke:#000000;stroke-miterlimit:10;" d="M350.2,621.3c-0.1-0.2-0.4-0.4-0.6-0.4
				c-0.2,0.1-0.4,0.4-0.4,0.6l6,24.7c0.1,0.2,1,0.1,1.2,0.1c0.2-0.1,1.1-0.6,1-0.8L350.2,621.3z"/>
		</g>
		<g>
			<path style="fill:none;stroke:#000000;stroke-miterlimit:10;" d="M352.4,620.7c-0.1-0.2-0.4-0.4-0.6-0.4
				c-0.2,0.1-0.4,0.4-0.4,0.6l6,24.7c0.1,0.2,1,0.1,1.2,0.1c0.2-0.1,1.1-0.6,1-0.8L352.4,620.7z"/>
		</g>
		<g>
			<path style="fill:none;stroke:#000000;stroke-miterlimit:10;" d="M354.6,620.1c-0.1-0.2-0.4-0.4-0.6-0.4
				c-0.2,0.1-0.4,0.4-0.4,0.6l6,24.7c0.1,0.2,1,0.1,1.2,0.1c0.2-0.1,1.1-0.6,1-0.8L354.6,620.1z"/>
		</g>
		<g>
			<path style="fill:none;stroke:#000000;stroke-miterlimit:10;" d="M356.8,619.5c-0.1-0.2-0.4-0.4-0.6-0.4
				c-0.2,0.1-0.4,0.4-0.4,0.6l6,24.7c0.1,0.2,1,0.1,1.2,0.1c0.2-0.1,1.1-0.6,1-0.8L356.8,619.5z"/>
		</g>
		<g>
			<path style="fill:none;stroke:#000000;stroke-miterlimit:10;" d="M359,618.9c-0.1-0.2-0.4-0.4-0.6-0.4c-0.2,0.1-0.4,0.4-0.4,0.6
				l6,24.7c0.1,0.2,1,0.1,1.2,0.1c0.2-0.1,1.1-0.6,1-0.8L359,618.9z"/>
		</g>
		<g>
			<path style="fill:none;stroke:#000000;stroke-miterlimit:10;" d="M361.1,618.3c-0.1-0.2-0.4-0.4-0.6-0.4
				c-0.2,0.1-0.4,0.4-0.4,0.6l6,24.7c0.1,0.2,1,0.1,1.2,0.1c0.2-0.1,1.1-0.6,1-0.8L361.1,618.3z"/>
		</g>
		<g>
			<path style="fill:none;stroke:#000000;stroke-miterlimit:10;" d="M363.4,617.9c-0.1-0.2-0.4-0.4-0.6-0.4
				c-0.2,0.1-0.4,0.4-0.4,0.6l6,24.7c0.1,0.2,1,0.1,1.2,0.1c0.2-0.1,1.1-0.6,1-0.8L363.4,617.9z"/>
		</g>
		<g>
			<path style="fill:none;stroke:#000000;stroke-miterlimit:10;" d="M365.5,617.3c-0.1-0.2-0.4-0.4-0.6-0.4
				c-0.2,0.1-0.4,0.4-0.4,0.6l6,24.7c0.1,0.2,1,0.1,1.2,0.1c0.2-0.1,1.1-0.6,1-0.8L365.5,617.3z"/>
		</g>
		<g>
			<path style="fill:none;stroke:#000000;stroke-miterlimit:10;" d="M367.7,616.7c-0.1-0.2-0.4-0.4-0.6-0.4
				c-0.2,0.1-0.4,0.4-0.4,0.6l6,24.7c0.1,0.2,1,0.1,1.2,0.1c0.2-0.1,1.1-0.6,1-0.8L367.7,616.7z"/>
		</g>
		<g>
			<path style="fill:none;stroke:#000000;stroke-miterlimit:10;" d="M369.9,616.1c-0.1-0.2-0.4-0.4-0.6-0.4
				c-0.2,0.1-0.4,0.4-0.4,0.6l6,24.7c0.1,0.2,1,0.1,1.2,0.1c0.2-0.1,1.1-0.6,1-0.8L369.9,616.1z"/>
		</g>
		<g>
			<path style="fill:none;stroke:#000000;stroke-miterlimit:10;" d="M372.1,615.5c-0.1-0.2-0.4-0.4-0.6-0.4
				c-0.2,0.1-0.4,0.4-0.4,0.6l6,24.7c0.1,0.2,1,0.1,1.2,0.1c0.2-0.1,1.1-0.6,1-0.8L372.1,615.5z"/>
		</g>
		<g>
			<path style="fill:none;stroke:#000000;stroke-miterlimit:10;" d="M374.3,614.9c-0.1-0.2-0.4-0.4-0.6-0.4
				c-0.2,0.1-0.4,0.4-0.4,0.6l6,24.7c0.1,0.2,1,0.1,1.2,0.1c0.2-0.1,1.1-0.6,1-0.8L374.3,614.9z"/>
		</g>
		<g>
			<path style="fill:none;stroke:#000000;stroke-miterlimit:10;" d="M376.4,614.3c-0.1-0.2-0.4-0.4-0.6-0.4
				c-0.2,0.1-0.4,0.4-0.4,0.6l6,24.7c0.1,0.2,1,0.1,1.2,0.1c0.2-0.1,1.1-0.6,1-0.8L376.4,614.3z"/>
		</g>
		<g>
			<path style="fill:none;stroke:#000000;stroke-miterlimit:10;" d="M378.7,613.7c-0.1-0.2-0.4-0.4-0.6-0.4
				c-0.2,0.1-0.4,0.4-0.4,0.6l6,24.7c0.1,0.2,1,0.1,1.2,0.1c0.2-0.1,1.1-0.6,1-0.8L378.7,613.7z"/>
		</g>
		<g>
			<path style="fill:none;stroke:#000000;stroke-miterlimit:10;" d="M380.8,613.1c-0.1-0.2-0.4-0.4-0.6-0.4
				c-0.2,0.1-0.4,0.4-0.4,0.6l6,24.7c0.1,0.2,1,0.1,1.2,0.1c0.2-0.1,1.1-0.6,1-0.8L380.8,613.1z"/>
		</g>
		<g>
			<path style="fill:none;stroke:#000000;stroke-miterlimit:10;" d="M383,612.5c-0.1-0.2-0.4-0.4-0.6-0.4c-0.2,0.1-0.4,0.4-0.4,0.6
				l6,24.7c0.1,0.2,1,0.1,1.2,0.1c0.2-0.1,1.1-0.6,1-0.8L383,612.5z"/>
		</g>
		<g>
			<path style="fill:none;stroke:#000000;stroke-miterlimit:10;" d="M385.2,611.9c-0.1-0.2-0.4-0.4-0.6-0.4
				c-0.2,0.1-0.4,0.4-0.4,0.6l6,24.7c0.1,0.2,1,0.1,1.2,0.1c0.2-0.1,1.1-0.6,1-0.8L385.2,611.9z"/>
		</g>
		<g>
			<path style="fill:none;stroke:#000000;stroke-miterlimit:10;" d="M387.4,611.3c-0.1-0.2-0.4-0.4-0.6-0.4
				c-0.2,0.1-0.4,0.4-0.4,0.6l6,24.7c0.1,0.2,1,0.1,1.2,0.1c0.2-0.1,1.1-0.6,1-0.8L387.4,611.3z"/>
		</g>
		<g>
			<path style="fill:none;stroke:#000000;stroke-miterlimit:10;" d="M389.6,610.7c-0.1-0.2-0.4-0.4-0.6-0.4
				c-0.2,0.1-0.4,0.4-0.4,0.6l6,24.7c0.1,0.2,1,0.1,1.2,0.1c0.2-0.1,1.1-0.6,1-0.8L389.6,610.7z"/>
		</g>
		<g>
			<path style="fill:none;stroke:#000000;stroke-miterlimit:10;" d="M391.7,610.1c-0.1-0.2-0.4-0.4-0.6-0.4
				c-0.2,0.1-0.4,0.4-0.4,0.6l6,24.7c0.1,0.2,1,0.1,1.2,0.1c0.2-0.1,1.1-0.6,1-0.8L391.7,610.1z"/>
		</g>
		<g>
			<path style="fill:none;stroke:#000000;stroke-miterlimit:10;" d="M394,609.5c-0.1-0.2-0.4-0.4-0.6-0.4c-0.2,0.1-0.4,0.4-0.4,0.6
				l6,24.7c0.1,0.2,1,0.1,1.2,0.1c0.2-0.1,1.1-0.6,1-0.8L394,609.5z"/>
		</g>
		<g>
			<path style="fill:none;stroke:#000000;stroke-miterlimit:10;" d="M396.1,608.9c-0.1-0.2-0.4-0.4-0.6-0.4
				c-0.2,0.1-0.4,0.4-0.4,0.6l6,24.7c0.1,0.2,1,0.1,1.2,0.1c0.2-0.1,1.1-0.6,1-0.8L396.1,608.9z"/>
		</g>
		<g>
			<path style="fill:none;stroke:#000000;stroke-miterlimit:10;" d="M398.3,608.4c-0.1-0.2-0.4-0.4-0.6-0.4
				c-0.2,0.1-0.4,0.4-0.4,0.6l6,24.7c0.1,0.2,1,0.1,1.2,0.1c0.2-0.1,1.1-0.6,1-0.8L398.3,608.4z"/>
		</g>
		<g>
			<path style="fill:none;stroke:#000000;stroke-miterlimit:10;" d="M400.5,607.8c-0.1-0.2-0.4-0.4-0.6-0.4
				c-0.2,0.1-0.4,0.4-0.4,0.6l6,24.7c0.1,0.2,1,0.1,1.2,0.1c0.2-0.1,1.1-0.6,1-0.8L400.5,607.8z"/>
		</g>
		<g>
			<path style="fill:none;stroke:#000000;stroke-miterlimit:10;" d="M402.7,607.2c-0.1-0.2-0.4-0.4-0.6-0.4
				c-0.2,0.1-0.4,0.4-0.4,0.6l6,24.7c0.1,0.2,1,0.1,1.2,0.1c0.2-0.1,1.1-0.6,1-0.8L402.7,607.2z"/>
		</g>
		<g>
			<path style="fill:none;stroke:#000000;stroke-miterlimit:10;" d="M404.9,606.6c-0.1-0.2-0.4-0.4-0.6-0.4
				c-0.2,0.1-0.4,0.4-0.4,0.6l6,24.7c0.1,0.2,1,0.1,1.2,0.1c0.2-0.1,1.1-0.6,1-0.8L404.9,606.6z"/>
		</g>
		<g>
			<path style="fill:none;stroke:#000000;stroke-miterlimit:10;" d="M407,606c-0.1-0.2-0.4-0.4-0.6-0.4c-0.2,0.1-0.4,0.4-0.4,0.6
				l6,24.7c0.1,0.2,1,0.1,1.2,0.1c0.2-0.1,1.1-0.6,1-0.8L407,606z"/>
		</g>
		<g>
			<path style="fill:none;stroke:#000000;stroke-miterlimit:10;" d="M409.3,605.4c-0.1-0.2-0.4-0.4-0.6-0.4
				c-0.2,0.1-0.4,0.4-0.4,0.6l6,24.7c0.1,0.2,1,0.1,1.2,0.1c0.2-0.1,1.1-0.6,1-0.8L409.3,605.4z"/>
		</g>
		<g>
			<path style="fill:none;stroke:#000000;stroke-miterlimit:10;" d="M411.4,604.8c-0.1-0.2-0.4-0.4-0.6-0.4
				c-0.2,0.1-0.4,0.4-0.4,0.6l6,24.7c0.1,0.2,1,0.1,1.2,0.1c0.2-0.1,1.1-0.6,1-0.8L411.4,604.8z"/>
		</g>
		<g>
			<path style="fill:none;stroke:#000000;stroke-miterlimit:10;" d="M413.6,604.2c-0.1-0.2-0.4-0.4-0.6-0.4
				c-0.2,0.1-0.4,0.4-0.4,0.6l6,24.7c0.1,0.2,1,0.1,1.2,0.1c0.2-0.1,1.1-0.6,1-0.8L413.6,604.2z"/>
		</g>
		<g>
			<path style="fill:none;stroke:#000000;stroke-miterlimit:10;" d="M415.8,603.6c-0.1-0.2-0.4-0.4-0.6-0.4
				c-0.2,0.1-0.4,0.4-0.4,0.6l6,24.7c0.1,0.2,1,0.1,1.2,0.1c0.2-0.1,1.1-0.6,1-0.8L415.8,603.6z"/>
		</g>
		<g>
			<path style="fill:none;stroke:#000000;stroke-miterlimit:10;" d="M418,603c-0.1-0.2-0.4-0.4-0.6-0.4c-0.2,0.1-0.4,0.4-0.4,0.6
				l6,24.7c0.1,0.2,1,0.1,1.2,0.1c0.2-0.1,1.1-0.6,1-0.8L418,603z"/>
		</g>
		<g>
			<path style="fill:none;stroke:#000000;stroke-miterlimit:10;" d="M420.2,602.4c-0.1-0.2-0.4-0.4-0.6-0.4
				c-0.2,0.1-0.4,0.4-0.4,0.6l6,24.7c0.1,0.2,1,0.1,1.2,0.1c0.2-0.1,1.1-0.6,1-0.8L420.2,602.4z"/>
		</g>
		<g>
			<path style="fill:none;stroke:#000000;stroke-miterlimit:10;" d="M422.3,601.8c-0.1-0.2-0.4-0.4-0.6-0.4
				c-0.2,0.1-0.4,0.4-0.4,0.6l6,24.7c0.1,0.2,1,0.1,1.2,0.1c0.2-0.1,1.1-0.6,1-0.8L422.3,601.8z"/>
		</g>
		<g>
			<path style="fill:none;stroke:#000000;stroke-miterlimit:10;" d="M424.6,601.2c-0.1-0.2-0.4-0.4-0.6-0.4
				c-0.2,0.1-0.4,0.4-0.4,0.6l6,24.7c0.1,0.2,1,0.1,1.2,0.1c0.2-0.1,1.1-0.6,1-0.8L424.6,601.2z"/>
		</g>
		<g>
			<path style="fill:none;stroke:#000000;stroke-miterlimit:10;" d="M426.7,600.6c-0.1-0.2-0.4-0.4-0.6-0.4
				c-0.2,0.1-0.4,0.4-0.4,0.6l6,24.7c0.1,0.2,1,0.1,1.2,0.1c0.2-0.1,1.1-0.6,1-0.8L426.7,600.6z"/>
		</g>
		<g>
			<path style="fill:none;stroke:#000000;stroke-miterlimit:10;" d="M428.9,600c-0.1-0.2-0.4-0.4-0.6-0.4c-0.2,0.1-0.4,0.4-0.4,0.6
				l6,24.7c0.1,0.2,1,0.1,1.2,0.1c0.2-0.1,1.1-0.6,1-0.8L428.9,600z"/>
		</g>
		<g>
			<path style="fill:none;stroke:#000000;stroke-miterlimit:10;" d="M431,599.4c-0.1-0.2-0.4-0.4-0.6-0.4c-0.2,0.1-0.4,0.4-0.4,0.6
				l6,24.7c0.1,0.2,1,0.1,1.2,0.1c0.2-0.1,1.1-0.6,1-0.8L431,599.4z"/>
		</g>
		<g>
			<path style="fill:none;stroke:#000000;stroke-miterlimit:10;" d="M433.3,598.8c-0.1-0.2-0.4-0.4-0.6-0.4
				c-0.2,0.1-0.4,0.4-0.4,0.6l6,24.7c0.1,0.2,1,0.1,1.2,0.1c0.2-0.1,1.1-0.6,1-0.8L433.3,598.8z"/>
		</g>
	</g>
	<g>
		<path style="fill:none;stroke:#000000;stroke-miterlimit:10;" d="M333.5,654.5c0,0-76.3,21.8-75.9,23.1s77.2-18.3,77.2-18.3
			c1.6-0.4,2.4-1.8,2-3.1C336.5,654.8,334.9,654.1,333.5,654.5z"/>
	</g>
	<g>
		<path style="fill:none;stroke:#000000;stroke-miterlimit:10;" d="M395.8,638.5c0,0-25.5,7.7-25.2,8.4c0.2,0.8,26.1-5.4,26.1-5.4
			c0.5-0.1,0.7-1,0.5-1.8C396.8,639,396.4,638.4,395.8,638.5z"/>
	</g>
	<g>
		<path style="fill:none;stroke:#000000;stroke-miterlimit:10;" d="M441.1,626.9c0,0-12.7,3.9-12.6,4.4s13-2.5,13-2.5
			c0.2-0.1,0.4-0.6,0.2-1.1C441.7,627.2,441.4,626.8,441.1,626.9z"/>
	</g>
</g>
<g>
	<g>
		<g>
			<path style="fill:none;stroke:#000000;stroke-miterlimit:10;" d="M252,150.4c-12.3-4.4-40.2-4.4-52.5,0c-3.7,1.3-6.2,1.6-7.8,0.8
				l-0.7,13.7c10.3-4.8,26.3-5.5,34.8-5.4c8.4,0,24.5,0.6,34.8,5.4l-0.7-13.9C258.3,151.9,255.7,151.8,252,150.4z"/>
		</g>
		<g>
			<path style="fill:none;stroke:#000000;stroke-miterlimit:10;" d="M259.6,151c-1.4,0.7-4.1,0.5-7.5-0.8
				c-5.9-2.2-15.7-3.3-26.3-3.3s-20.6,1.2-26.3,3.3c-3.5,1.3-6.1,1.6-7.5,0.8l-0.4-0.2l-0.8,14.7l0.5-0.2c9.9-4.7,25.6-5.4,33.9-5.4
				h0.7h0.7c8.4,0,24,0.7,33.9,5.4l0.5,0.2l-0.7-14.8L259.6,151z M226.4,159.3h-0.7H225c-8.4,0-23.7,0.7-33.7,5.3l0.7-12.9
				c1.7,0.6,4.2,0.2,7.5-1c5.7-2,15.5-3.3,26.1-3.3c10.6,0,20.3,1.2,26.2,3.3c3.5,1.2,6,1.6,7.6,1l0.7,12.9
				C250.2,160,234.8,159.3,226.4,159.3z"/>
		</g>
	</g>
	<g>
		<g>
			<path style="fill:none;stroke:#000000;stroke-miterlimit:10;" d="M251.7,125.3c-12.3-4.4-40-4.4-52.5,0
				c-6.3,2.3-9.7,7.2-9.7,10.8v12.3c0,3.6,3.2,4.5,9.6,2.3c12.3-4.4,40.3-4.4,52.6,0c6.3,2.3,9.2,1.3,9.2-2.3V136
				C261.1,132.3,258.1,127.4,251.7,125.3z"/>
		</g>
		<g>
			<path style="fill:none;stroke:#000000;stroke-miterlimit:10;" d="M251.9,125c-5.9-2-15.7-3.3-26.3-3.3s-20.4,1.2-26.3,3.3
				c-6.3,2.3-9.7,7.2-9.7,10.9v12.3c0,1.2,0.4,2.2,1,2.7c0.7,0.6,1.7,1,3,1c1.6,0,3.5-0.5,5.7-1.2c5.7-2,15.5-3.3,26.2-3.3
				s20.4,1.2,26.3,3.3c2.3,0.8,4.2,1.2,5.7,1.2c2.5,0,3.8-1.2,3.8-3.7V136C261.4,132.2,258.1,127.3,251.9,125z M261.1,148.2
				c0,2.3-1.2,3.3-3.6,3.3c-1.4,0-3.3-0.4-5.6-1.2c-5.9-2-15.7-3.3-26.4-3.3c-10.6,0-20.6,1.2-26.3,3.3c-4.2,1.4-7.1,1.7-8.4,0.4
				c-0.6-0.6-1-1.4-1-2.5V136c0-3.6,3.2-8.4,9.4-10.6c5.7-2,15.5-3.2,26.2-3.2s20.4,1.2,26.2,3.2c6.1,2.2,9.3,6.9,9.3,10.6v12.2
				H261.1z"/>
		</g>
	</g>
	<g>
		<g>
			<path style="fill:none;stroke:#000000;stroke-miterlimit:10;" d="M260.9,165.4c-10.2-5-26.7-5.6-35.3-5.6c-8.5,0-25,0.6-35.3,5.6
				c-1.7,1.1,4.7,65.5,4.5,67.7c0,2.2-0.1,55.2,0,57.3s1.8,5.4,5.9,7.2c2.6,1.2,15.3,3.7,24.7,3.5c9.4,0.2,22.1-2.4,24.7-3.5
				c3.6-1.4,5.7-5.3,5.9-7.2c0.1-2,0-55,0-57.3C256.4,230.8,262.7,166.5,260.9,165.4z"/>
		</g>
	</g>
	<g>
		<g>
			<defs>
				<path id="SVGID_2_" d="M260.9,165.4c-10.2-5-26.7-5.6-35.3-5.6c-8.5,0-25,0.6-35.3,5.6c-1.7,1.1,4.7,65.5,4.5,67.7
					c0,2.2-0.1,55.2,0,57.3s1.8,5.4,5.9,7.2c2.6,1.2,15.3,3.7,24.7,3.5c9.4,0.2,22.1-2.4,24.7-3.5c3.6-1.4,5.7-5.3,5.9-7.2
					c0.1-2,0-55,0-57.3C256.4,230.8,262.7,166.5,260.9,165.4z"/>
			</defs>
			<clipPath id="SVGID_4_">
				<use xlink:href="#SVGID_2_"  style="overflow:visible;"/>
			</clipPath>
			<g style="clip-path:url(#SVGID_4_);">
				<g>
					<rect x="189" y="180.5" style="fill:none;stroke:#000000;stroke-miterlimit:10;" width="73.3" height="67.5"/>
				</g>
			</g>
		</g>
		<g>
			<path id="SVGID_1_" style="fill:none;stroke:#000000;stroke-miterlimit:10;" d="M260.9,165.4c-10.2-5-26.7-5.6-35.3-5.6
				c-8.5,0-25,0.6-35.3,5.6c-1.7,1.1,4.7,65.5,4.5,67.7c0,2.2-0.1,55.2,0,57.3s1.8,5.4,5.9,7.2c2.6,1.2,15.3,3.7,24.7,3.5
				c9.4,0.2,22.1-2.4,24.7-3.5c3.6-1.4,5.7-5.3,5.9-7.2c0.1-2,0-55,0-57.3C256.4,230.8,262.7,166.5,260.9,165.4z"/>
		</g>
	</g>
	<defs>
		<filter id="Adobe_OpacityMaskFilter" filterUnits="userSpaceOnUse" x="247.4" y="126.9" width="12.4" height="22.3">
			<feColorMatrix  type="matrix" values="1 0 0 0 0  0 1 0 0 0  0 0 1 0 0  0 0 0 1 0"/>
		</filter>
	</defs>
	<mask maskUnits="userSpaceOnUse" x="247.4" y="126.9" width="12.4" height="22.3" id="SVGID_3_">
		<g style="filter:url(#Adobe_OpacityMaskFilter);">
			
				<linearGradient id="SVGID_6_" gradientUnits="userSpaceOnUse" x1="208.6866" y1="752.6683" x2="216.3152" y2="752.6683" gradientTransform="matrix(1.1953 0 0 -1.1953 -9.765625e-002 1037.7852)">
				<stop  offset="0" style="stop-color:#000000"/>
				<stop  offset="1" style="stop-color:#FFFFFF"/>
				<a:midPointStop  offset="0" style="stop-color:#000000"/>
				<a:midPointStop  offset="0.5" style="stop-color:#000000"/>
				<a:midPointStop  offset="1" style="stop-color:#FFFFFF"/>
			</linearGradient>
			<path style="fill:url(#SVGID_6_);" d="M248.7,127.8c0,0,8.8,2.3,10,5.4c1.2,3.1,0,15.3,0,15.3s-4.7-2.5-8.2-2.4
				C250.4,142.8,249.8,129,248.7,127.8z"/>
		</g>
	</mask>
	<g style="mask:url(#SVGID_3_);">
		<g>
			<path style="fill:none;stroke:#000000;stroke-miterlimit:10;" d="M248.7,127.8c1,1.2,1.6,15.1,1.8,18.3c3.6-0.1,8.2,2.4,8.2,2.4
				s1.2-12.2,0-15.3C257.6,130,248.7,127.8,248.7,127.8z"/>
		</g>
	</g>
	<defs>
		<filter id="Adobe_OpacityMaskFilter_1_" filterUnits="userSpaceOnUse" x="192.1" y="125.5" width="8.9" height="25.3">
			<feColorMatrix  type="matrix" values="1 0 0 0 0  0 1 0 0 0  0 0 1 0 0  0 0 0 1 0"/>
		</filter>
	</defs>
	<mask maskUnits="userSpaceOnUse" x="192.1" y="125.5" width="8.9" height="25.3" id="SVGID_5_">
		<g style="filter:url(#Adobe_OpacityMaskFilter_1_);">
			
				<linearGradient id="SVGID_8_" gradientUnits="userSpaceOnUse" x1="-372.6355" y1="752.7183" x2="-366.8478" y2="752.7183" gradientTransform="matrix(-1.1953 0 0 -1.1953 -245.2791 1037.7852)">
				<stop  offset="0" style="stop-color:#000000"/>
				<stop  offset="1" style="stop-color:#FFFFFF"/>
				<a:midPointStop  offset="0" style="stop-color:#000000"/>
				<a:midPointStop  offset="0.5" style="stop-color:#000000"/>
				<a:midPointStop  offset="1" style="stop-color:#FFFFFF"/>
			</linearGradient>
			<path style="fill:url(#SVGID_8_);" d="M200.5,125.9c0,0-6.6,2.6-7.5,6.3c-0.8,3.6,0,18,0,18s5.5,0,6.2-2.7
				C199.3,143.6,201.1,128,200.5,125.9z"/>
		</g>
	</mask>
	<g style="mask:url(#SVGID_5_);">
		<g>
			<path style="fill:none;stroke:#000000;stroke-miterlimit:10;" d="M192.9,132.2c-0.8,3.6,0,18,0,18s5.4,0,6.2-2.7
				c0.1-3.8,1.3-18.9,1.3-21.5C200.5,125.9,193.8,128.5,192.9,132.2z"/>
		</g>
	</g>
	<defs>
		<filter id="Adobe_OpacityMaskFilter_2_" filterUnits="userSpaceOnUse" x="192" y="171.9" width="7.7" height="87.4">
			<feColorMatrix  type="matrix" values="1 0 0 0 0  0 1 0 0 0  0 0 1 0 0  0 0 0 1 0"/>
		</filter>
	</defs>
	<mask maskUnits="userSpaceOnUse" x="192" y="171.9" width="7.7" height="87.4" id="SVGID_7_">
		<g style="filter:url(#Adobe_OpacityMaskFilter_2_);">
			
				<linearGradient id="SVGID_10_" gradientUnits="userSpaceOnUse" x1="163.5445" y1="727.7239" x2="164.22" y2="646.8918" gradientTransform="matrix(1.1953 0 0 -1.1953 -9.765625e-002 1037.7852)">
				<stop  offset="0" style="stop-color:#000000"/>
				<stop  offset="0.3739" style="stop-color:#FFFFFF"/>
				<stop  offset="0.6884" style="stop-color:#FFFFFF"/>
				<stop  offset="0.9999" style="stop-color:#000000"/>
				<a:midPointStop  offset="0" style="stop-color:#000000"/>
				<a:midPointStop  offset="0.5" style="stop-color:#000000"/>
				<a:midPointStop  offset="0.3739" style="stop-color:#FFFFFF"/>
				<a:midPointStop  offset="0.5" style="stop-color:#FFFFFF"/>
				<a:midPointStop  offset="0.6884" style="stop-color:#FFFFFF"/>
				<a:midPointStop  offset="0.5" style="stop-color:#FFFFFF"/>
				<a:midPointStop  offset="0.9999" style="stop-color:#000000"/>
			</linearGradient>
			<path style="fill:url(#SVGID_10_);" d="M194.4,172.8c0,0-1.7,23.1,1.8,35.6c3.5,12.4,3.3,47.1,2.5,50.2
				c-0.7,3.1-1.3-41.5-3.3-48.4s-3.8-36.5-2.5-37.4C194.2,172,194.4,172.8,194.4,172.8z"/>
		</g>
	</mask>
	<g style="opacity:0.84;mask:url(#SVGID_7_);">
		<g>
			<path style="fill:none;stroke:#000000;stroke-miterlimit:10;" d="M194.4,172.8c0,0-0.2-1-1.4,0c-1.3,1,0.6,30.5,2.5,37.4
				c2,6.9,2.5,51.5,3.3,48.4c0.7-3.1,1-37.8-2.5-50.2S194.4,172.8,194.4,172.8z"/>
		</g>
	</g>
	<defs>
		<filter id="Adobe_OpacityMaskFilter_3_" filterUnits="userSpaceOnUse" x="241.9" y="167.6" width="12.6" height="121.1">
			<feColorMatrix  type="matrix" values="1 0 0 0 0  0 1 0 0 0  0 0 1 0 0  0 0 0 1 0"/>
		</filter>
	</defs>
	<mask maskUnits="userSpaceOnUse" x="241.9" y="167.6" width="12.6" height="121.1" id="SVGID_9_">
		<g style="filter:url(#Adobe_OpacityMaskFilter_3_);">
			
				<linearGradient id="SVGID_12_" gradientUnits="userSpaceOnUse" x1="208.5055" y1="728.6456" x2="206.7703" y2="620.2254" gradientTransform="matrix(1.1953 0 0 -1.1953 -9.765625e-002 1037.7852)">
				<stop  offset="0" style="stop-color:#000000"/>
				<stop  offset="0.3739" style="stop-color:#FFFFFF"/>
				<stop  offset="0.6884" style="stop-color:#FFFFFF"/>
				<stop  offset="0.9999" style="stop-color:#000000"/>
				<a:midPointStop  offset="0" style="stop-color:#000000"/>
				<a:midPointStop  offset="0.5" style="stop-color:#000000"/>
				<a:midPointStop  offset="0.3739" style="stop-color:#FFFFFF"/>
				<a:midPointStop  offset="0.5" style="stop-color:#FFFFFF"/>
				<a:midPointStop  offset="0.6884" style="stop-color:#FFFFFF"/>
				<a:midPointStop  offset="0.5" style="stop-color:#FFFFFF"/>
				<a:midPointStop  offset="0.9999" style="stop-color:#000000"/>
			</linearGradient>
			<path style="fill:url(#SVGID_12_);" d="M248.1,171.5c-0.2-1.2,4.4-1.8,5.6-3c1.2,17.5-2.4,48.9-3.9,59.8
				c-1.4,10.9-1,52.8-0.5,58.2c-3-0.1-4.1,0.6-5.9,1.6c-2.6,1.4,0-48.4,1.1-60.5C246.4,207.3,247.4,192.6,248.1,171.5z"/>
		</g>
	</mask>
	<g style="opacity:0.68;mask:url(#SVGID_9_);">
		<g>
			<path style="fill:none;stroke:#000000;stroke-miterlimit:10;" d="M248.1,171.5c-0.6,21-1.8,35.7-3.6,56.2
				c-1.1,12.1-3.7,61.9-1.1,60.5c1.8-1,2.9-1.8,5.9-1.6c-0.6-5.4-1-47.3,0.5-58.2c1.4-10.9,5.1-42.3,3.9-59.8
				C252.6,169.7,247.8,170.3,248.1,171.5z"/>
		</g>
	</g>
	<g>
		<g>
			<path style="fill:none;stroke:#000000;stroke-miterlimit:10;" d="M261.2,164.9c-10-4.9-26.1-5.7-34.8-5.7h-0.6h-0.7
				c-8.7,0-24.7,0.7-34.8,5.7c-0.4,0.2-1.1,0.6,0.5,20.7c0.8,11.1,2,24.5,2.9,34.3c0.6,6.9,1.1,12.4,1.1,13
				c-0.1,3.2-0.1,55.6,0,57.3c0.1,2.4,2.2,5.7,6.1,7.6c2.7,1.2,14.6,3.6,23.8,3.6c0.4,0,0.7,0.1,1.1,0.1c0.4,0,0.7,0.1,1.1,0.1l0,0
				c9.4,0,21.2-2.5,23.8-3.7c3.8-1.6,6.1-5.6,6.1-7.6c0.1-1.7,0.1-54,0-57.3c0-0.6,0.5-6.1,1.1-13c0.8-9.8,2-23.2,2.9-34.3
				C262.3,165.7,261.7,165.3,261.2,164.9z M257.1,219.9c-0.7,7.5-1.1,12.6-1.1,13.1c0.1,3.2,0.1,55.6,0,57.1
				c-0.1,1.9-2.3,5.5-5.6,6.8c-2.5,1.1-14.3,3.5-23.5,3.5c-0.4,0-0.7,0-1.1,0c-0.4,0-0.7,0-1.1,0c-9.6,0-21.2-2.5-23.4-3.5
				c-4.3-1.9-5.5-5.4-5.6-6.8c-0.1-1.7-0.1-54,0-57.1c0-0.6-0.5-5.6-1.1-13.1c-1.4-16.9-4.5-51.8-3.6-54.3
				c9.9-4.8,25.7-5.5,34.3-5.5h0.7h0.6c8.6,0,24.4,0.7,34.3,5.5C261.7,168.1,258.5,203.1,257.1,219.9z"/>
		</g>
	</g>
</g>
<g>
	<g>
		<path style="fill:none;stroke:#000000;stroke-miterlimit:10;" d="M565.5,225.7l-20.7-7.2c0,0-2.7-0.8-3.6,1.8
			c-2.7,8.5-8.7,26.8-8.8,28.1c-0.1,1.7,2.7,6.3,10,9.1c7.2,2.6,12.4,1,13.5-0.4c0.8-1,8.6-19.6,11.8-27.6
			C568.6,227.7,565.5,225.7,565.5,225.7z"/>
		<path style="fill:none;stroke:#000000;stroke-miterlimit:10;" d="M565.6,225.5L565.6,225.5l-20.7-7.2c0,0-0.5-0.1-1-0.1
			c-0.8,0-2.3,0.2-2.9,2c-3.2,9.9-8.7,26.8-8.8,28.1c-0.1,1.8,2.9,6.6,10.2,9.2c2.5,1,5,1.3,7.4,1.3l0,0c3.2,0,5.6-0.8,6.3-1.8
			c0.8-1.1,9.1-20.9,11.8-27.6C568.8,227.6,565.7,225.5,565.6,225.5z M567.7,229.4c-3.7,9.1-11.1,26.7-11.8,27.5
			c-0.5,0.6-2.6,1.7-6,1.7l0,0c-2.3,0-4.8-0.5-7.3-1.4c-7.2-2.6-9.9-7.3-9.8-8.8c0-0.8,3.2-11.1,8.7-28c0.5-1.4,1.6-1.8,2.5-1.8
			c0.5,0,0.8,0.1,0.8,0.1l20.6,7.2C565.7,226,568.3,227.8,567.7,229.4z"/>
	</g>
	<g>
		<path style="fill:none;stroke:#000000;stroke-miterlimit:10;" d="M565.7,226c-6.8-0.8-14.6-3.7-20.3-7.5c-1.9,0-3.1,0.5-3.5,1.4
			c-0.8,2.2,4.3,6.1,11.4,8.7c7.1,2.6,13.5,3,14.2,0.8C567.8,228.4,567.2,227.2,565.7,226z"/>
		<path style="fill:none;stroke:#000000;stroke-miterlimit:10;" d="M565.9,225.8L565.9,225.8L565.9,225.8c-6.9-1-14.7-3.8-20.3-7.5
			l0,0h-0.1c-2,0.1-3.3,0.6-3.7,1.6c-0.5,1.2,0.6,2.7,2.7,4.4c2.2,1.7,5.3,3.2,8.7,4.5c3.8,1.4,7.7,2.2,10.5,2.2l0,0
			c2.3,0,3.7-0.5,4.1-1.6C568,228.4,567.4,227.2,565.9,225.8z M567.3,229.3c-0.4,0.8-1.6,1.3-3.7,1.3l0,0c-2.7,0-6.6-0.8-10.3-2.3
			c-3.3-1.3-6.5-2.9-8.6-4.4c-2-1.6-3-3-2.6-3.9c0.2-0.7,1.4-1.2,3.2-1.3c5.7,3.7,13.5,6.6,20.3,7.5
			C566.9,227.5,567.5,228.5,567.3,229.3z"/>
	</g>
	<g>
		<g>
			<path style="fill:none;stroke:#000000;stroke-miterlimit:10;" d="M544.6,221.4c-1.6,4.2,18.2,11.5,19.7,7.3c0.4-1,0.7-1.8,1-2.6
				c-6.9-1.7-13.1-3.9-19.7-7.3C545.3,219.6,544.9,220.5,544.6,221.4z"/>
		</g>
		<g>
			<path style="fill:none;stroke:#000000;stroke-miterlimit:10;" d="M545.7,218.5l-0.4-0.1l-1.1,3c-0.8,2.4,3.8,5.4,8.8,7.2
				c5,1.9,10.5,2.7,11.5,0.4l1.1-3l-0.4-0.1C558.5,224.1,552.4,221.8,545.7,218.5z M563.9,228.5c-0.6,1.7-5.1,1.3-10.6-0.7
				c-5.5-2-9.1-4.8-8.5-6.3l0.8-2.3c6.5,3.2,12.4,5.5,19.1,7.1L563.9,228.5z"/>
		</g>
	</g>
	<g>
		<g>
			<g>
				<path style="fill:none;stroke:#000000;stroke-miterlimit:10;" d="M565,226.1c-6.9-0.4-14-3-19.5-7.2c-0.1-0.1-0.2-0.1-0.4,0
					c-0.1,0.1-0.1,0.2,0,0.4c2.7,2.2,6,3.8,9.3,5.1c3.3,1.2,6.9,2,10.4,2.3c0.1,0,0.2-0.1,0.2-0.2
					C565.3,226.3,565.1,226.1,565,226.1z"/>
			</g>
		</g>
		<g>
			<g>
				<path style="fill:none;stroke:#000000;stroke-miterlimit:10;" d="M564.8,227c-6.8-0.4-13.9-3-19.2-7.2c-0.1-0.1-0.2-0.1-0.4,0
					c-0.1,0.1-0.1,0.2,0,0.4c2.7,2,5.9,3.8,9.2,5c3.3,1.2,6.8,2,10.3,2.2c0.1,0,0.2-0.1,0.2-0.2C565,227.1,564.9,227,564.8,227z"/>
			</g>
		</g>
		<g>
			<g>
				<path style="fill:none;stroke:#000000;stroke-miterlimit:10;" d="M564.4,227.7c-6.7-0.4-14-3.1-19.4-7.2c-0.1-0.1-0.2-0.1-0.4,0
					c-0.1,0.1-0.1,0.2,0,0.4c2.7,2,6.1,3.8,9.4,5.1c3.3,1.2,6.8,2,10.2,2.2c0.1,0,0.2-0.1,0.2-0.2
					C564.7,227.8,564.5,227.7,564.4,227.7z"/>
			</g>
		</g>
		<g>
			<g>
				<path style="fill:none;stroke:#000000;stroke-miterlimit:10;" d="M564.1,228.5c-6.7-0.4-13.6-3-19-7.1c-0.1-0.1-0.2-0.1-0.4,0
					s-0.1,0.2,0,0.4c2.6,2,5.9,3.7,9.1,5c3.3,1.2,6.8,2,10.2,2.2c0.1,0,0.2-0.1,0.2-0.2C564.3,228.7,564.2,228.5,564.1,228.5z"/>
			</g>
		</g>
		<g>
			<g>
				<path style="fill:none;stroke:#000000;stroke-miterlimit:10;" d="M563.5,229.3c-6.6-0.4-13.3-2.9-18.5-6.8
					c-0.1-0.1-0.2-0.1-0.4,0c-0.1,0.1-0.1,0.2,0,0.4c2.6,2,6,3.7,9.1,4.9c3.1,1.2,6.3,1.8,9.8,2c0.1,0,0.2-0.1,0.2-0.2
					C563.7,229.4,563.6,229.3,563.5,229.3z"/>
			</g>
		</g>
	</g>
	<g>
		<g>
			<polyline style="fill:none;stroke:#000000;stroke-miterlimit:10;" points="573.4,90 612,90 612,148 			"/>
			<path style="fill:none;stroke:#000000;stroke-miterlimit:10;" d="M580,222.2c0.2-0.5,15.7-36,32-74.1V90h-38.7
				c-15.8,50.3-36.3,116.1-36.3,116.5C534.8,220.1,573.9,233.8,580,222.2z"/>
		</g>
		<g>
			<g>
				<path style="fill:none;stroke:#000000;stroke-miterlimit:10;" d="M563.8,229.4"/>
			</g>
		</g>
	</g>
	<defs>
		<filter id="Adobe_OpacityMaskFilter_4_" filterUnits="userSpaceOnUse" x="566.5" y="126.1" width="46" height="100.5">
			<feColorMatrix  type="matrix" values="1 0 0 0 0  0 1 0 0 0  0 0 1 0 0  0 0 0 1 0"/>
		</filter>
	</defs>
	<mask maskUnits="userSpaceOnUse" x="566.5" y="126.1" width="46" height="100.5" id="SVGID_11_">
		<g style="filter:url(#Adobe_OpacityMaskFilter_4_);">
			
				<linearGradient id="SVGID_14_" gradientUnits="userSpaceOnUse" x1="734.3209" y1="578.001" x2="740.2283" y2="577.5823" gradientTransform="matrix(1.1207 0.4156 0.4156 -1.1207 -456.597 483.7064)">
				<stop  offset="0" style="stop-color:#231F20"/>
				<stop  offset="1" style="stop-color:#FFFFFF"/>
				<a:midPointStop  offset="0" style="stop-color:#231F20"/>
				<a:midPointStop  offset="0.5" style="stop-color:#231F20"/>
				<a:midPointStop  offset="1" style="stop-color:#FFFFFF"/>
			</linearGradient>
			<path style="fill:url(#SVGID_14_);" d="M567.3,226l71-154.9l10.2-13.7l-70.6,166.9C577.8,224.2,574.8,226.6,567.3,226z"/>
		</g>
	</mask>
	<g style="opacity:0.5;mask:url(#SVGID_11_);">
		<line style="fill:none;stroke:#000000;stroke-miterlimit:10;" x1="612" y1="128.6" x2="612" y2="143.6"/>
		<path style="fill:none;stroke:#000000;stroke-miterlimit:10;" d="M577.8,224.2l34.2-80.8v-15.1L567.3,226
			C574.8,226.6,577.8,224.2,577.8,224.2z"/>
	</g>
	<g style="opacity:0.5;">
		<path style="fill:none;stroke:#000000;stroke-miterlimit:10;" d="M577.8,224.2"/>
	</g>
	<defs>
		<filter id="Adobe_OpacityMaskFilter_5_" filterUnits="userSpaceOnUse" x="556.7" y="91.3" width="46.9" height="102">
			<feColorMatrix  type="matrix" values="1 0 0 0 0  0 1 0 0 0  0 0 1 0 0  0 0 0 1 0"/>
		</filter>
	</defs>
	<mask maskUnits="userSpaceOnUse" x="556.7" y="91.3" width="46.9" height="102" id="SVGID_13_">
		<g style="filter:url(#Adobe_OpacityMaskFilter_5_);">
			
				<linearGradient id="SVGID_16_" gradientUnits="userSpaceOnUse" x1="710.8195" y1="615.0117" x2="708.6995" y2="521.1224" gradientTransform="matrix(1.1207 0.4156 0.4156 -1.1207 -456.597 483.7064)">
				<stop  offset="0" style="stop-color:#231F20"/>
				<stop  offset="0.273" style="stop-color:#FFFFFF"/>
				<stop  offset="0.7329" style="stop-color:#FFFFFF"/>
				<stop  offset="0.9881" style="stop-color:#000000"/>
				<a:midPointStop  offset="0" style="stop-color:#231F20"/>
				<a:midPointStop  offset="0.5" style="stop-color:#231F20"/>
				<a:midPointStop  offset="0.273" style="stop-color:#FFFFFF"/>
				<a:midPointStop  offset="0.5" style="stop-color:#FFFFFF"/>
				<a:midPointStop  offset="0.7329" style="stop-color:#FFFFFF"/>
				<a:midPointStop  offset="0.5" style="stop-color:#FFFFFF"/>
				<a:midPointStop  offset="0.9881" style="stop-color:#000000"/>
			</linearGradient>
			<polygon style="fill:url(#SVGID_16_);" points="580.6,108.2 602.3,92.7 557.1,193 			"/>
		</g>
	</mask>
	<g style="mask:url(#SVGID_13_);">
		<polygon style="fill:none;stroke:#000000;stroke-miterlimit:10;" points="557.1,193 602.3,92.7 580.6,108.2 		"/>
	</g>
	<g>
		<g>
			<path style="fill:none;stroke:#000000;stroke-miterlimit:10;" d="M565.5,230.4c-0.8,0.1-1.8,0.2-3,0.1c-0.8,0-1.8-0.1-2.7-0.4
				c-0.8-0.1-1.8-0.4-2.6-0.6c-0.8-0.2-1.7-0.5-2.6-0.8c-0.8-0.2-1.7-0.6-2.5-1s-1.7-0.7-2.5-1.1s-1.7-0.8-2.4-1.3
				c-0.8-0.5-1.7-1-2.3-1.6c-1-0.7-1.7-1.3-2.2-2c-0.5-0.6-0.8-1.3-0.6-2l0,0l0,0l-0.4-0.1c0,0.1,0,0.2-0.1,0.2l-0.5,0.1
				c-3.2,9.9-8.7,26.9-8.8,28.1c0,0.5,0.2,1.2,0.6,1.9l0,0v0.1l0.2,0.5l0,0c0.4,0.6,1,1.3,1.6,1.9l0,0l0.1,0.1l0.2,0.2l0,0
				c0.5,0.5,1.1,1,1.7,1.4l0,0l0.1,0.1l0.2,0.1l0,0c0.6,0.4,1.2,0.8,1.8,1.2l0,0l0.1,0.1l0.2,0.1l0,0c0.6,0.4,1.2,0.6,1.9,1l0,0
				l0.2,0.1l0.2,0.1l0,0c0.4,0.1,0.6,0.2,1,0.4s0.7,0.2,1,0.4l0,0l0.2,0.1l0,0l0.2,0.1l0,0c0.7,0.2,1.3,0.4,2,0.5l0,0h0.2h0.1l0,0
				c0.7,0.1,1.4,0.2,2.2,0.2l0,0h0.2h0.1l0,0c0.7,0,1.6,0,2.3,0l0,0h0.4h0.1l0,0c0.8-0.1,1.7-0.2,2.4-0.5l0,0l0.5-0.2h0.1l0,0
				c0.7-0.4,1.3-0.7,1.6-1.1c0.8-1,7.8-17.7,11.8-27.6l-0.7-0.2C567.1,230.1,566.2,230.3,565.5,230.4z M533.1,249.8
				c-0.2-0.5-0.4-1-0.4-1.3c0-0.8,3.2-11.1,8.7-28c0-0.1,0-0.1,0.1-0.2c0,0.6,0.2,1.2,0.7,1.9L533.1,249.8z M534.8,252.4
				c-0.6-0.7-1.1-1.3-1.6-2l9.3-27.7c0.5,0.6,1.1,1.1,1.8,1.7l-3.8,11.1L534.8,252.4z M536.8,254.2c-0.6-0.5-1.2-1-1.7-1.4l9.7-28.1
				c0.6,0.5,1.2,0.8,1.9,1.3L536.8,254.2z M539,255.7c-0.6-0.4-1.2-0.7-1.8-1.2l9.9-28.4c0.6,0.4,1.3,0.7,2,1.1L539,255.7z
				 M541.2,256.7c-0.6-0.2-1.3-0.6-1.9-1l0.6-1.7l9.7-26.9c0.7,0.4,1.3,0.6,2,1L541.2,256.7z M543.5,257.7c-0.6-0.2-1.3-0.5-1.9-0.7
				l10.4-28.4c0.7,0.2,1.4,0.6,2.2,0.8l-3,8.1L543.5,257.7z M546,258.3c-0.7-0.1-1.3-0.4-2-0.5l10.6-28.4c0.7,0.2,1.4,0.5,2.2,0.7
				l-4.3,11.1L546,258.3z M548.5,258.7c-0.7,0-1.4-0.1-2.2-0.2l10.9-28.2c0.7,0.2,1.6,0.4,2.3,0.5L548.5,258.7z M551.2,258.7
				c-0.7,0.1-1.4,0.1-2.3,0l2-5.1l9-22.8c0.8,0.1,1.6,0.2,2.4,0.4L551.2,258.7z M554.1,258.1c-0.7,0.2-1.6,0.5-2.5,0.6l11-27.5
				c1,0,1.8,0,2.5-0.1L554.1,258.1z M567.4,230c-6.7,16.3-11.1,26.4-11.6,27.1c-0.2,0.2-0.6,0.5-1.1,0.7l7.1-17.3l3.9-9.6
				C566.5,230.7,567.1,230.4,567.4,230z"/>
		</g>
	</g>
	<defs>
		<filter id="Adobe_OpacityMaskFilter_6_" filterUnits="userSpaceOnUse" x="550.4" y="229.5" width="16.5" height="27.8">
			<feColorMatrix  type="matrix" values="1 0 0 0 0  0 1 0 0 0  0 0 1 0 0  0 0 0 1 0"/>
		</filter>
	</defs>
	<mask maskUnits="userSpaceOnUse" x="550.4" y="229.5" width="16.5" height="27.8" id="SVGID_15_">
		<g style="filter:url(#Adobe_OpacityMaskFilter_6_);">
			
				<linearGradient id="SVGID_18_" gradientUnits="userSpaceOnUse" x1="726.4976" y1="471.0807" x2="726.4976" y2="495.7036" gradientTransform="matrix(1.1207 0.4156 0.4156 -1.1207 -456.597 483.7064)">
				<stop  offset="0" style="stop-color:#000000"/>
				<stop  offset="0.2671" style="stop-color:#FFFFFF"/>
				<stop  offset="0.6973" style="stop-color:#FFFFFF"/>
				<stop  offset="1" style="stop-color:#000000"/>
				<a:midPointStop  offset="0" style="stop-color:#000000"/>
				<a:midPointStop  offset="0.5" style="stop-color:#000000"/>
				<a:midPointStop  offset="0.2671" style="stop-color:#FFFFFF"/>
				<a:midPointStop  offset="0.5" style="stop-color:#FFFFFF"/>
				<a:midPointStop  offset="0.6973" style="stop-color:#FFFFFF"/>
				<a:midPointStop  offset="0.5" style="stop-color:#FFFFFF"/>
				<a:midPointStop  offset="1" style="stop-color:#000000"/>
			</linearGradient>
			<path style="opacity:0.92;fill:url(#SVGID_18_);enable-background:new    ;" d="M565.9,230.9c0,0-8.4,21.4-9.6,24.4
				c-1.2,1.2-3.1,1.6-5.1,1.6c1.9-4.7,8.1-20.6,9.6-25.1C562.5,232.7,564.5,231.9,565.9,230.9z"/>
		</g>
	</mask>
	<g style="opacity:0.92;mask:url(#SVGID_15_);">
		<path style="fill:none;stroke:#000000;stroke-miterlimit:10;" d="M560.7,231.8c-1.6,4.5-7.8,20.4-9.6,25.1c2,0,4.1-0.4,5.1-1.6
			c1.2-2.9,9.6-24.4,9.6-24.4C564.5,231.9,562.5,232.7,560.7,231.8z"/>
	</g>
	<defs>
		<filter id="Adobe_OpacityMaskFilter_7_" filterUnits="userSpaceOnUse" x="535.2" y="225.1" width="11.1" height="26.9">
			<feColorMatrix  type="matrix" values="1 0 0 0 0  0 1 0 0 0  0 0 1 0 0  0 0 0 1 0"/>
		</filter>
	</defs>
	<mask maskUnits="userSpaceOnUse" x="535.2" y="225.1" width="11.1" height="26.9" id="SVGID_17_">
		<g style="filter:url(#Adobe_OpacityMaskFilter_7_);">
			
				<linearGradient id="SVGID_20_" gradientUnits="userSpaceOnUse" x1="711.1072" y1="471.5321" x2="711.1072" y2="492.9319" gradientTransform="matrix(1.1207 0.4156 0.4156 -1.1207 -456.597 483.7064)">
				<stop  offset="0" style="stop-color:#000000"/>
				<stop  offset="0.2671" style="stop-color:#FFFFFF"/>
				<stop  offset="0.6973" style="stop-color:#FFFFFF"/>
				<stop  offset="1" style="stop-color:#000000"/>
				<a:midPointStop  offset="0" style="stop-color:#000000"/>
				<a:midPointStop  offset="0.5" style="stop-color:#000000"/>
				<a:midPointStop  offset="0.2671" style="stop-color:#FFFFFF"/>
				<a:midPointStop  offset="0.5" style="stop-color:#FFFFFF"/>
				<a:midPointStop  offset="0.6973" style="stop-color:#FFFFFF"/>
				<a:midPointStop  offset="0.5" style="stop-color:#FFFFFF"/>
				<a:midPointStop  offset="1" style="stop-color:#000000"/>
			</linearGradient>
			<path style="fill:url(#SVGID_20_);" d="M543.7,226.3c0,0,1.1,1.7,2,2.4c-1,3.9-6.9,20.2-8.1,22.6c-1.7-0.6-1.9-1.3-1.9-1.3
				L543.7,226.3z"/>
		</g>
	</mask>
	<g style="mask:url(#SVGID_17_);">
		<path style="fill:none;stroke:#000000;stroke-miterlimit:10;" d="M543.7,226.3l-8,23.8c0,0,0.2,0.6,1.9,1.3
			c1.2-2.4,7.2-18.8,8.1-22.6C544.8,227.9,543.7,226.3,543.7,226.3z"/>
	</g>
</g>
<g>
	<g>
		<g>
			<polyline style="fill:none;stroke:#000000;stroke-miterlimit:10;" points="612,652.9 612,702 573.4,702 			"/>
			<path style="fill:none;stroke:#000000;stroke-miterlimit:10;" d="M612,653l-20.9-7.8c0,0-8,25.3-17.8,56.7H612V653z"/>
		</g>
	</g>
	<g>
		<line style="fill:none;stroke:#000000;stroke-miterlimit:10;" x1="612" y1="642.1" x2="612" y2="652.6"/>
		<polygon style="fill:none;stroke:#000000;stroke-miterlimit:10;" points="591.6,634.6 591.2,645 612,652.8 612,642.1 		"/>
	</g>
	<g style="opacity:0.69;">
		<line style="fill:none;stroke:#000000;stroke-miterlimit:10;" x1="612" y1="652.6" x2="612" y2="653.6"/>
		<polygon style="fill:none;stroke:#000000;stroke-miterlimit:10;" points="591.2,645 591,645.8 612,653.6 612,652.8 		"/>
	</g>
</g>
<g>
	<g>
		<g>
			<polyline style="fill:none;stroke:#000000;stroke-miterlimit:10;" points="25.2,702 0,702 0,652.9 			"/>
			<path style="fill:none;stroke:#000000;stroke-miterlimit:10;" d="M0,653v49h25c8.6-20.1,14.7-34.2,14.7-34.2L0,653z"/>
		</g>
	</g>
	<g>
		<line style="fill:none;stroke:#000000;stroke-miterlimit:10;" x1="0" y1="652.6" x2="0" y2="642.1"/>
		<polygon style="fill:none;stroke:#000000;stroke-miterlimit:10;" points="46.1,659.2 0,642.1 0,652.8 39.9,667.5 		"/>
	</g>
	<defs>
		<filter id="Adobe_OpacityMaskFilter_8_" filterUnits="userSpaceOnUse" x="16.8" y="665.9" width="21.7" height="36.6">
			<feColorMatrix  type="matrix" values="1 0 0 0 0  0 1 0 0 0  0 0 1 0 0  0 0 0 1 0"/>
		</filter>
	</defs>
	<mask maskUnits="userSpaceOnUse" x="16.8" y="665.9" width="21.7" height="36.6" id="SVGID_19_">
		<g style="filter:url(#Adobe_OpacityMaskFilter_8_);">
			
				<linearGradient id="SVGID_22_" gradientUnits="userSpaceOnUse" x1="432.2888" y1="-80.0798" x2="438.1962" y2="-80.4985" gradientTransform="matrix(1.1207 0.4156 0.4156 -1.1207 -456.597 483.7064)">
				<stop  offset="0" style="stop-color:#231F20"/>
				<stop  offset="1" style="stop-color:#FFFFFF"/>
				<a:midPointStop  offset="0" style="stop-color:#231F20"/>
				<a:midPointStop  offset="0.5" style="stop-color:#231F20"/>
				<a:midPointStop  offset="1" style="stop-color:#FFFFFF"/>
			</linearGradient>
			<path style="fill:url(#SVGID_22_);" d="M-44.7,838l71-154.9l10.2-13.7l-70.6,166.9C-34.2,836.2-37.2,838.6-44.7,838z"/>
		</g>
	</mask>
	<g style="opacity:0.5;mask:url(#SVGID_19_);">
		<line style="fill:none;stroke:#000000;stroke-miterlimit:10;" x1="22.6" y1="702" x2="17.6" y2="702"/>
		<polygon style="fill:none;stroke:#000000;stroke-miterlimit:10;" points="26.2,683.1 17.6,702 22.6,702 36.5,669.5 		"/>
	</g>
	<g style="opacity:0.5;">
		<path style="fill:none;stroke:#000000;stroke-miterlimit:10;" d="M36.5,669.5"/>
	</g>
	<g style="opacity:0.69;">
		<line style="fill:none;stroke:#000000;stroke-miterlimit:10;" x1="0" y1="653.6" x2="0" y2="652.6"/>
		<polygon style="fill:none;stroke:#000000;stroke-miterlimit:10;" points="39.9,667.5 0,652.8 0,653.6 39.6,668.3 		"/>
	</g>
</g>
<g>
	<g>
		<g>
			<line style="fill:none;stroke:#000000;stroke-miterlimit:10;" x1="0" y1="473.8" x2="0" y2="404.6"/>
			<polygon style="fill:none;stroke:#000000;stroke-miterlimit:10;" points="98.3,516.2 23.1,389.5 0,404.5 0,473.7 52,546.4 			"/>
		</g>
		<g>
			<line style="fill:none;stroke:#000000;stroke-miterlimit:10;" x1="0" y1="474.1" x2="0" y2="473.1"/>
			<line style="fill:none;stroke:#000000;stroke-miterlimit:10;" x1="0" y1="405" x2="0" y2="404.2"/>
			<polygon style="fill:none;stroke:#000000;stroke-miterlimit:10;" points="51.9,546.8 98.6,516.4 23.4,389.3 23.2,389.1 0,404.1 
				0,405 23.1,389.9 97.8,516.2 52.1,546 0,473.1 0,474.2 51.8,546.6 			"/>
		</g>
	</g>
	<g>
		<g>
			<polygon style="fill:none;stroke:#000000;stroke-miterlimit:10;" points="52,546.4 53.4,547.6 98.6,517.8 98.5,516.1 			"/>
		</g>
	</g>
	<g>
		<g>
			<path style="fill:none;stroke:#000000;stroke-miterlimit:10;" d="M98.1,515.7l-20.3,13.3l-6.1,3.9l-20.3,13.3
				c0,0,17.5,25.3,23.7,33.3c2.9,3.7,8.4,2,11.1,1.4c3.6-0.8,27.3-16.3,29.5-19.2c1.7-2.3,5.4-6.8,3.2-10.8
				C114.2,541.8,98.1,515.7,98.1,515.7z"/>
		</g>
		<g>
			<path style="fill:none;stroke:#000000;stroke-miterlimit:10;" d="M98.4,515.4l-0.1-0.2L51,546l0.2,0.2
				c0.1,0.2,17.6,25.5,23.7,33.3c1.3,1.7,3.2,2.5,5.7,2.5l0,0c1.9,0,3.8-0.5,5.1-0.8c0.2,0,0.5-0.2,0.6-0.2
				c3.8-0.8,27.4-16.3,29.6-19.4l0.2-0.4c1.8-2.4,5.1-6.8,3-10.8C114.5,541.8,98.6,515.7,98.4,515.4z M115.8,561l-0.2,0.4
				c-2.2,3-25.7,18.3-29.3,19.1c-0.2,0-0.4,0.1-0.6,0.1c-1.3,0.4-3.2,0.7-5,0.7l0,0c-2.4,0-4.1-0.7-5.3-2.2
				c-5.9-7.4-21.6-30.2-23.5-33L98,516c1.8,2.9,16.3,26.5,20.7,34.9C120.7,554.5,117.5,558.7,115.8,561z"/>
		</g>
	</g>
	<defs>
		<filter id="Adobe_OpacityMaskFilter_9_" filterUnits="userSpaceOnUse" x="92.4" y="514.9" width="27.8" height="49.9">
			<feColorMatrix  type="matrix" values="1 0 0 0 0  0 1 0 0 0  0 0 1 0 0  0 0 0 1 0"/>
		</filter>
	</defs>
	<mask maskUnits="userSpaceOnUse" x="92.4" y="514.9" width="27.8" height="49.9" id="SVGID_21_">
		<g style="filter:url(#Adobe_OpacityMaskFilter_9_);">
			
				<linearGradient id="SVGID_24_" gradientUnits="userSpaceOnUse" x1="107.5659" y1="81.1674" x2="112.5975" y2="80.5128" gradientTransform="matrix(1.0017 -0.6523 -0.6523 -1.0017 50.5239 691.2037)">
				<stop  offset="0" style="stop-color:#000000"/>
				<stop  offset="1" style="stop-color:#FFFFFF"/>
				<a:midPointStop  offset="0" style="stop-color:#000000"/>
				<a:midPointStop  offset="0.5" style="stop-color:#000000"/>
				<a:midPointStop  offset="1" style="stop-color:#FFFFFF"/>
			</linearGradient>
			<path style="fill:url(#SVGID_24_);" d="M93.1,518.9c3.2,5.3,17.2,28.3,21.9,36.8c1.3,2.4,0.6,4.9-0.5,7.2c0.7-0.6,1.1-1,1.3-1.3
				c1.7-2.3,5.4-6.8,3.2-10.8c-4.8-8.8-20.9-35.1-20.9-35.1L93.1,518.9z"/>
		</g>
	</mask>
	<g style="mask:url(#SVGID_21_);">
		<g>
			<path style="fill:none;stroke:#000000;stroke-miterlimit:10;" d="M98.1,515.7l-5,3.3c3.1,5.1,17.2,28.3,21.9,36.8
				c1.3,2.4,0.6,4.9-0.5,7.2c0.7-0.6,1.1-1,1.3-1.3c1.7-2.3,5.4-6.8,3.2-10.8C114.2,541.8,98.1,515.7,98.1,515.7z"/>
		</g>
	</g>
	<defs>
		<filter id="Adobe_OpacityMaskFilter_10_" filterUnits="userSpaceOnUse" x="80.9" y="523" width="28.1" height="42.2">
			<feColorMatrix  type="matrix" values="1 0 0 0 0  0 1 0 0 0  0 0 1 0 0  0 0 0 1 0"/>
		</filter>
	</defs>
	<mask maskUnits="userSpaceOnUse" x="80.9" y="523" width="28.1" height="42.2" id="SVGID_23_">
		<g style="filter:url(#Adobe_OpacityMaskFilter_10_);">
			
				<linearGradient id="SVGID_26_" gradientUnits="userSpaceOnUse" x1="96.9521" y1="64.1838" x2="99.558" y2="100.0607" gradientTransform="matrix(1.0017 -0.6523 -0.6523 -1.0017 50.5239 691.2037)">
				<stop  offset="0" style="stop-color:#000000"/>
				<stop  offset="0.2671" style="stop-color:#FFFFFF"/>
				<stop  offset="0.6973" style="stop-color:#FFFFFF"/>
				<stop  offset="1" style="stop-color:#000000"/>
				<a:midPointStop  offset="0" style="stop-color:#000000"/>
				<a:midPointStop  offset="0.5" style="stop-color:#000000"/>
				<a:midPointStop  offset="0.2671" style="stop-color:#FFFFFF"/>
				<a:midPointStop  offset="0.5" style="stop-color:#FFFFFF"/>
				<a:midPointStop  offset="0.6973" style="stop-color:#FFFFFF"/>
				<a:midPointStop  offset="0.5" style="stop-color:#FFFFFF"/>
				<a:midPointStop  offset="1" style="stop-color:#000000"/>
			</linearGradient>
			<path style="fill:url(#SVGID_26_);" d="M81.5,529.4c0,0,17.8,31.7,19.5,34.1c2,3.1,8.1-0.2,7.4-2.7c-0.7-2.5-19.4-36.9-19.4-36.9
				L81.5,529.4z"/>
		</g>
	</mask>
	<g style="mask:url(#SVGID_23_);">
		<g>
			<path style="fill:none;stroke:#000000;stroke-miterlimit:10;" d="M89.1,523.8l-7.5,5.6c0,0,17.8,31.7,19.5,34.1
				c2,3.1,8.1-0.2,7.4-2.7C107.7,558.3,89.1,523.8,89.1,523.8z"/>
		</g>
	</g>
	<g>
		<g>
			<line style="fill:none;stroke:#000000;stroke-miterlimit:10;" x1="0" y1="465.8" x2="0" y2="462.6"/>
			<polygon style="fill:none;stroke:#000000;stroke-miterlimit:10;" points="64.2,536.6 0,462.7 0,465.9 58.3,539.7 			"/>
		</g>
	</g>
	<g>
		<g>
			<polygon style="fill:none;stroke:#000000;stroke-miterlimit:10;" points="24.5,402.6 77.2,528.2 90.1,519.4 26.4,396.8 			"/>
		</g>
	</g>
	<g>
		<g>
			<line style="fill:none;stroke:#000000;stroke-miterlimit:10;" x1="0" y1="404.6" x2="0" y2="397"/>
			<path style="fill:none;stroke:#000000;stroke-miterlimit:10;" d="M19.4,383.3c0,0-6.9,3.3-13,9c-1.6,1.4-3.8,3.1-6.3,4.8v7.4
				l23.3-15.2L19.4,383.3z"/>
		</g>
		<g>
			<line style="fill:none;stroke:#000000;stroke-miterlimit:10;" x1="0" y1="405" x2="0" y2="404.2"/>
			<line style="fill:none;stroke:#000000;stroke-miterlimit:10;" x1="0" y1="397.6" x2="0" y2="396.6"/>
			<path style="fill:none;stroke:#000000;stroke-miterlimit:10;" d="M19.5,383l-0.2,0.1c-0.1,0-7.1,3.5-13.1,9
				c-1.4,1.3-3.7,3-6.1,4.7v0.7c2.6-1.8,5-3.6,6.6-4.9c5.4-4.8,11.4-8.1,12.7-8.7l3.6,5.5L0,404.1v0.7l23.7-15.4L19.5,383z"/>
		</g>
	</g>
	<g>
		<g>
			<g>
				<g>
					<path style="fill:none;stroke:#000000;stroke-miterlimit:10;" d="M6,392.3c-0.5,0.4-1.1,1-1.7,1.4l-0.2,0.1l3.8,6l2.4-1.6
						l-4.1-6.2L6,392.3z M8.1,398.9l-3.2-5c0.5-0.4,0.7-0.6,1.2-1.1l3.3,5.1L8.1,398.9z"/>
				</g>
			</g>
		</g>
		<g>
			<g>
				<g>
					<path style="fill:none;stroke:#000000;stroke-miterlimit:10;" d="M14.6,385.8c-0.6,0.4-1.2,0.7-1.8,1.2l-0.1,0.1l4.4,6.7l2-1.4
						l-4.4-6.7L14.6,385.8z M17,393.1l-3.8-5.7c0.5-0.4,0.8-0.5,1.3-0.8l3.8,5.7L17,393.1z"/>
				</g>
			</g>
		</g>
		<g>
			<g>
				<g>
					<path style="fill:none;stroke:#000000;stroke-miterlimit:10;" d="M7.5,390.9c-0.5,0.5-1,0.8-1.4,1.3c0,0,0,0-0.1,0.1l-0.1,0.1
						l3.9,6.1l2.2-1.4l-4.2-6.5L7.5,390.9z M11.4,396.7l-1.3,0.8l-3.5-5.1c0.2-0.2,0.7-0.7,1.2-1.1L11.4,396.7z"/>
				</g>
			</g>
		</g>
		<g>
			<g>
				<g>
					<path style="fill:none;stroke:#000000;stroke-miterlimit:10;" d="M9.3,389.4c-0.6,0.5-1.1,0.8-1.7,1.3l-0.1,0.1l4.2,6.3
						l2.2-1.4l-4.3-6.5L9.3,389.4z M11.6,396.6L8,391.1c0.5-0.4,1-0.8,1.2-1l3.7,5.6L11.6,396.6z"/>
				</g>
			</g>
		</g>
		<g>
			<g>
				<g>
					<path style="fill:none;stroke:#000000;stroke-miterlimit:10;" d="M10.9,388.4c-0.6,0.4-1.1,0.8-1.7,1.2L9,389.7l4.3,6.6
						l2.2-1.4l-4.4-6.7L10.9,388.4z M14.8,394.4l-1.3,0.8l-3.7-5.6c0.5-0.4,0.7-0.6,1.3-1L14.8,394.4z"/>
				</g>
			</g>
		</g>
		<g>
			<g>
				<g>
					<path style="fill:none;stroke:#000000;stroke-miterlimit:10;" d="M19.1,383.2c0,0-0.4,0.1-1.1,0.5l-0.2,0.1l4.3,6.6l1.3-0.8
						l-4.2-6.5L19.1,383.2z M22.4,389.7l-3.6-5.6c0.2-0.1,0.6-0.4,0.6-0.2l3.6,5.5L22.4,389.7z"/>
				</g>
			</g>
		</g>
		<g>
			<g>
				<g>
					<path style="fill:none;stroke:#000000;stroke-miterlimit:10;" d="M18.2,383.7c-0.6,0.4-1.2,0.7-1.9,1.1l-0.1,0.1l4.4,6.7
						l2.2-1.4l-4.3-6.6L18.2,383.7z M20.4,390.9l-3.7-5.7c0.6-0.4,1.1-0.6,1.4-0.8l3.7,5.6L20.4,390.9z"/>
				</g>
			</g>
		</g>
		<g>
			<g>
				<g>
					<path style="fill:none;stroke:#000000;stroke-miterlimit:10;" d="M16.3,384.9c-0.6,0.4-1.2,0.7-1.8,1.1l-0.2,0.1l4.4,6.7
						l2.2-1.4l-4.3-6.7L16.3,384.9z M18.9,391.9l-3.7-5.7c0.2-0.1,0.8-0.5,1.3-0.8l3.7,5.7L18.9,391.9z"/>
				</g>
			</g>
		</g>
		<g>
			<g>
				<g>
					<path style="fill:none;stroke:#000000;stroke-miterlimit:10;" d="M12.7,387c-0.6,0.4-1.2,0.8-1.8,1.2l-0.1,0.1l4.3,6.7l2.2-1.4
						l-4.4-6.7L12.7,387z M16.7,393.3l-1.6,1.1l-3.7-5.7c0.5-0.4,1.1-0.7,1.6-1.1L16.7,393.3z"/>
				</g>
			</g>
		</g>
		<g>
			<g>
				<g>
					<line style="fill:none;stroke:#000000;stroke-miterlimit:10;" x1="0" y1="405" x2="0" y2="404.2"/>
					<line style="fill:none;stroke:#000000;stroke-miterlimit:10;" x1="0" y1="402.7" x2="0" y2="402.1"/>
					<polygon style="fill:none;stroke:#000000;stroke-miterlimit:10;" points="0,402.1 0,402.7 0.7,403.8 0,404.1 0,405 1.3,404.1 
											"/>
				</g>
			</g>
		</g>
		<g>
			<g>
				<g>
					<path style="fill:none;stroke:#000000;stroke-miterlimit:10;" d="M4.4,393.6c-0.5,0.4-1.1,0.8-1.7,1.3L2.6,395l3.8,5.9l2.2-1.4
						l-3.9-6L4.4,393.6z M6.3,400.1l-3.2-4.9c0.5-0.4,1.1-0.7,1.3-1l3.2,5L6.3,400.1z"/>
				</g>
			</g>
		</g>
		<g>
			<g>
				<g>
					<path style="fill:none;stroke:#000000;stroke-miterlimit:10;" d="M2.6,394.9c-0.5,0.4-1.1,0.7-1.7,1.2l-0.2,0.1l3.7,5.7
						l2.2-1.4l-3.7-5.7L2.6,394.9z M6,400.3l-1.3,0.8l-3.1-4.8c0.5-0.4,0.8-0.6,1.3-1L6,400.3z"/>
				</g>
			</g>
		</g>
		<g>
			<g>
				<g>
					<line style="fill:none;stroke:#000000;stroke-miterlimit:10;" x1="0" y1="402.7" x2="0" y2="402.1"/>
					<line style="fill:none;stroke:#000000;stroke-miterlimit:10;" x1="0" y1="398.5" x2="0" y2="397.9"/>
					<polygon style="fill:none;stroke:#000000;stroke-miterlimit:10;" points="3.1,402.8 0,398 0,398.6 2.5,402.5 1,403.5 0,402.1 
						0,402.7 1.1,404.2 					"/>
				</g>
			</g>
		</g>
		<g>
			<g>
				<g>
					<line style="fill:none;stroke:#000000;stroke-miterlimit:10;" x1="0" y1="398.5" x2="0" y2="397.9"/>
					<line style="fill:none;stroke:#000000;stroke-miterlimit:10;" x1="0" y1="397.3" x2="0" y2="397"/>
					<path style="fill:none;stroke:#000000;stroke-miterlimit:10;" d="M5,401.6l-3.7-5.7L1.1,396c-0.4,0.2-0.7,0.5-1.1,0.7v0.6
						c0.5-0.2,0.8-0.6,1.1-0.7l3.1,4.8l-1.3,0.8L0,398v0.6l2.9,4.4L5,401.6z"/>
				</g>
			</g>
		</g>
	</g>
	<defs>
		<filter id="Adobe_OpacityMaskFilter_11_" filterUnits="userSpaceOnUse" x="74.4" y="547.6" width="45.9" height="34.4">
			<feColorMatrix  type="matrix" values="1 0 0 0 0  0 1 0 0 0  0 0 1 0 0  0 0 0 1 0"/>
		</filter>
	</defs>
	<mask maskUnits="userSpaceOnUse" x="74.4" y="547.6" width="45.9" height="34.4" id="SVGID_25_">
		<g style="filter:url(#Adobe_OpacityMaskFilter_11_);">
			
				<linearGradient id="SVGID_27_" gradientUnits="userSpaceOnUse" x1="70.1226" y1="70.7328" x2="106.4056" y2="60.9853" gradientTransform="matrix(1.0017 -0.6523 -0.6523 -1.0017 50.5239 691.2037)">
				<stop  offset="0" style="stop-color:#000000"/>
				<stop  offset="1" style="stop-color:#FFFFFF"/>
				<a:midPointStop  offset="0" style="stop-color:#000000"/>
				<a:midPointStop  offset="0.5" style="stop-color:#000000"/>
				<a:midPointStop  offset="1" style="stop-color:#FFFFFF"/>
			</linearGradient>
			<path style="fill:url(#SVGID_27_);" d="M75.4,579.2c3.1,3.7,8.8,1.9,11.4,1.3c3.6-0.8,26.9-15.7,29.2-18.6
				c1.7-2.2,5.7-8.1,2.9-11.6C121.2,556.5,85.1,578,75.4,579.2z"/>
		</g>
	</mask>
	<g style="mask:url(#SVGID_25_);">
		<g>
			<path style="fill:none;stroke:#000000;stroke-miterlimit:10;" d="M75.4,579.2c3.1,3.7,8.8,1.9,11.4,1.3
				c3.6-0.8,26.9-15.7,29.2-18.6c1.7-2.2,5.7-8.1,2.9-11.6C121.2,556.5,85.1,578,75.4,579.2z"/>
		</g>
	</g>
	<g>
		<g>
			<polygon style="fill:none;stroke:#000000;stroke-miterlimit:10;" points="63.2,547.1 81.6,573.5 65.5,542.7 			"/>
		</g>
	</g>
	<g>
		<g>
			<path style="fill:none;stroke:#000000;stroke-miterlimit:10;" d="M89.1,523.8l-7.5,5.6c0,0,17.8,31.7,19.5,34.1
				c2,3.1,8.1-0.2,7.4-2.7C107.7,558.3,89.1,523.8,89.1,523.8z"/>
		</g>
	</g>
</g>
<g>
	<g>
		<g>
			<line style="fill:none;stroke:#000000;stroke-miterlimit:10;" x1="612" y1="404.6" x2="612" y2="473.8"/>
			<polygon style="fill:none;stroke:#000000;stroke-miterlimit:10;" points="578.3,426.5 612,473.7 612,404.5 			"/>
		</g>
		<g>
			<line style="fill:none;stroke:#000000;stroke-miterlimit:10;" x1="612" y1="473.1" x2="612" y2="474.1"/>
			<line style="fill:none;stroke:#000000;stroke-miterlimit:10;" x1="612" y1="404.2" x2="612" y2="405"/>
			<polygon style="fill:none;stroke:#000000;stroke-miterlimit:10;" points="578.8,426.6 612,405 612,404.1 578.2,426.2 
				577.8,426.4 612,474.2 612,473.1 			"/>
		</g>
	</g>
	<g>
		<g>
			<line style="fill:none;stroke:#000000;stroke-miterlimit:10;" x1="612" y1="462.6" x2="612" y2="465.8"/>
			<polygon style="fill:none;stroke:#000000;stroke-miterlimit:10;" points="583,429.3 612,465.9 612,462.7 			"/>
		</g>
	</g>
	<g>
		<g>
			<line style="fill:none;stroke:#000000;stroke-miterlimit:10;" x1="612" y1="397" x2="612" y2="404.6"/>
			<path style="fill:none;stroke:#000000;stroke-miterlimit:10;" d="M574.3,420.5c0.6,1,3.9,6,3.9,6l33.7-22v-7.4
				c-6.9,4.7-15.9,9.8-18.6,11C585.7,411.4,573.9,419.5,574.3,420.5z"/>
		</g>
		<g>
			<line style="fill:none;stroke:#000000;stroke-miterlimit:10;" x1="612" y1="396.6" x2="612" y2="397.6"/>
			<line style="fill:none;stroke:#000000;stroke-miterlimit:10;" x1="612" y1="404.2" x2="612" y2="405"/>
			<path style="fill:none;stroke:#000000;stroke-miterlimit:10;" d="M574.1,420.3c-0.1,0.2,0,0.4,0,0.5c0.6,1,3.8,5.9,3.9,6.1
				l0.1,0.2l33.8-22v-0.7l-33.6,21.9c-0.7-1.1-3.1-4.8-3.7-5.7c0.5-1.3,11.4-8.7,18.8-12c2.9-1.2,11.7-6.3,18.5-11v-0.7
				c-6.8,4.7-15.9,9.9-18.8,11.1C586.2,410.8,574.6,418.6,574.1,420.3z"/>
		</g>
	</g>
	<g>
		<g>
			<g>
				<g>
					<path style="fill:none;stroke:#000000;stroke-miterlimit:10;" d="M593.1,408c-0.6,0.2-1.2,0.6-1.9,0.8l-0.2,0.1l4.4,6.8
						l2.2-1.4l-4.2-6.5L593.1,408z M595.6,414.9l-3.7-5.7c0.4-0.1,0.8-0.4,1.2-0.5l3.6,5.6L595.6,414.9z"/>
				</g>
			</g>
		</g>
		<g>
			<g>
				<g>
					<path style="fill:none;stroke:#000000;stroke-miterlimit:10;" d="M589.3,409.9c-0.6,0.4-1.2,0.6-1.8,1l-0.2,0.1l4.7,7.1
						l2.2-1.4l-4.5-6.9L589.3,409.9z M591.8,417.3l-3.9-6.1c0.6-0.4,1.1-0.6,1.4-0.7l3.9,6L591.8,417.3z"/>
				</g>
			</g>
		</g>
		<g>
			<g>
				<g>
					<path style="fill:none;stroke:#000000;stroke-miterlimit:10;" d="M595,407c-0.7,0.4-1.4,0.7-1.9,1l-0.5,0.2l4.3,6.6l2.4-1.6
						l-4.1-6.2H595z M597.2,413.8l-3.6-5.5c0.4-0.1,0.8-0.4,1.4-0.7l3.5,5.4L597.2,413.8z"/>
				</g>
			</g>
		</g>
		<g>
			<g>
				<g>
					<path style="fill:none;stroke:#000000;stroke-miterlimit:10;" d="M591.3,408.8c-0.6,0.4-1.3,0.7-2,1.1L589,410l4.5,6.9l2.4-1.6
						l-4.4-6.7L591.3,408.8z M593.7,416.1l-3.8-6c0.6-0.4,0.8-0.5,1.4-0.7l3.8,5.9L593.7,416.1z"/>
				</g>
			</g>
		</g>
		<g>
			<g>
				<g>
					<path style="fill:none;stroke:#000000;stroke-miterlimit:10;" d="M600.6,403.9c-0.6,0.4-1.3,0.8-1.9,1.1l-0.2,0.1l3.9,6
						l2.4-1.6l-3.8-5.9L600.6,403.9z M602.6,410.3l-3.2-5c0.2-0.1,0.8-0.5,1.4-0.8l3.2,4.9L602.6,410.3z"/>
				</g>
			</g>
		</g>
		<g>
			<g>
				<g>
					<path style="fill:none;stroke:#000000;stroke-miterlimit:10;" d="M596.8,406c-0.7,0.4-1.3,0.7-1.8,1l-0.2,0.1l4.1,6.3l2.2-1.4
						l-3.9-6.1L596.8,406z M599.1,412.6l-3.5-5.3c0.2-0.1,0.8-0.5,1.4-0.7l3.3,5.1L599.1,412.6z"/>
				</g>
			</g>
		</g>
		<g>
			<g>
				<g>
					<path style="fill:none;stroke:#000000;stroke-miterlimit:10;" d="M598.7,405c-0.6,0.4-1.2,0.7-1.8,1l-0.2,0.1l3.9,6.1l2.2-1.4
						l-3.9-6L598.7,405z M600.6,411.5l-3.3-5.1c0.6-0.4,1.1-0.6,1.4-0.8l3.2,5L600.6,411.5z"/>
				</g>
			</g>
		</g>
		<g>
			<g>
				<g>
					<path style="fill:none;stroke:#000000;stroke-miterlimit:10;" d="M582,414.2c-0.6,0.4-1.2,0.7-1.8,1.2l-0.2,0.1l4.8,7.3
						l2.2-1.4l-4.8-7.3L582,414.2z M586.2,421l-1.3,0.8l-4.1-6.3c0.2-0.1,0.8-0.5,1.3-0.8L586.2,421z"/>
				</g>
			</g>
		</g>
		<g>
			<g>
				<g>
					<path style="fill:none;stroke:#000000;stroke-miterlimit:10;" d="M576.9,417.6c-0.7,0.5-1.3,1.1-1.8,1.4l-0.2,0.1l4.5,6.9
						l2.4-1.6l-4.7-7.2L576.9,417.6z M579.6,425.3l-3.9-6c0.5-0.4,0.7-0.6,1.2-1.1l3.9,6.1L579.6,425.3z"/>
				</g>
			</g>
		</g>
		<g>
			<g>
				<g>
					<path style="fill:none;stroke:#000000;stroke-miterlimit:10;" d="M578.4,416.6c-0.6,0.5-1.2,0.8-1.7,1.2l-0.2,0.1l4.7,7.1
						l2.2-1.4l-4.7-7.2L578.4,416.6z M581.4,424.1l-4.1-6.2c0.2-0.2,0.7-0.6,1.1-0.7l4.1,6.2L581.4,424.1z"/>
				</g>
			</g>
		</g>
		<g>
			<g>
				<g>
					<path style="fill:none;stroke:#000000;stroke-miterlimit:10;" d="M580.2,415.2c-0.6,0.4-1.3,0.8-1.8,1.3l-0.2,0.2l4.7,7.2
						l2.4-1.6l-4.8-7.3L580.2,415.2z M583.1,423l-4.1-6.2c0.5-0.4,1.1-0.7,1.3-1l4.1,6.3L583.1,423z"/>
				</g>
			</g>
		</g>
		<g>
			<g>
				<g>
					<path style="fill:none;stroke:#000000;stroke-miterlimit:10;" d="M575.2,419.1c-0.8,0.8-1.2,1.2-1,1.6c0.6,1,3.8,5.9,3.9,6.1
						l0.1,0.2l1.7-1.1l-4.5-6.9L575.2,419.1z M578.3,426.1c-0.5-0.8-3.2-4.8-3.8-5.7c0-0.1,0.1-0.2,0.6-0.6l3.8,5.9L578.3,426.1z"/>
				</g>
			</g>
		</g>
		<g>
			<g>
				<g>
					<path style="fill:none;stroke:#000000;stroke-miterlimit:10;" d="M587.4,410.8c-0.6,0.4-1.2,0.7-1.8,1.1l-0.2,0.1l4.7,7.2
						l2.2-1.4l-4.5-7.1L587.4,410.8z M590.2,418.4l-4.1-6.2c0.2-0.1,0.8-0.5,1.4-0.8l3.9,6.1L590.2,418.4z"/>
				</g>
			</g>
		</g>
		<g>
			<g>
				<g>
					<path style="fill:none;stroke:#000000;stroke-miterlimit:10;" d="M602.4,402.9c-0.6,0.4-1.2,0.7-1.8,1.1l-0.2,0.1l3.8,5.9
						l2.2-1.4l-3.8-5.9L602.4,402.9z M604.4,409.1l-3.2-4.9c0.2-0.1,0.8-0.5,1.4-0.8l3.1,4.9L604.4,409.1z"/>
				</g>
			</g>
		</g>
		<g>
			<g>
				<g>
					<path style="fill:none;stroke:#000000;stroke-miterlimit:10;" d="M585.6,411.9c-0.6,0.4-1.3,0.8-1.9,1.2l-0.2,0.1l4.7,7.3
						l2.4-1.6l-4.7-7.2L585.6,411.9z M588.3,419.5l-4.1-6.2c0.6-0.4,0.8-0.5,1.3-0.8l4.1,6.2L588.3,419.5z"/>
				</g>
			</g>
		</g>
		<g>
			<g>
				<g>
					<path style="fill:none;stroke:#000000;stroke-miterlimit:10;" d="M583.8,413c-0.6,0.4-1.2,0.7-1.8,1.1l-0.2,0.1l4.8,7.3
						l2.2-1.4l-4.7-7.2L583.8,413z M586.5,420.7l-4.1-6.3c0.5-0.4,1.1-0.7,1.3-0.8l4.1,6.3L586.5,420.7z"/>
				</g>
			</g>
		</g>
		<g>
			<g>
				<g>
					<path style="fill:none;stroke:#000000;stroke-miterlimit:10;" d="M604.2,401.7c-0.6,0.4-1.2,0.7-1.8,1.1l-0.1,0.1l3.8,5.9
						l2.2-1.4l-3.7-5.7L604.2,401.7z M606,408.1l-3.1-4.8c0.6-0.4,0.8-0.5,1.3-0.8l3.1,4.8L606,408.1z"/>
				</g>
			</g>
		</g>
		<g>
			<g>
				<g>
					<line style="fill:none;stroke:#000000;stroke-miterlimit:10;" x1="612" y1="402.1" x2="612" y2="402.7"/>
					<line style="fill:none;stroke:#000000;stroke-miterlimit:10;" x1="612" y1="404.2" x2="612" y2="405"/>
					<path style="fill:none;stroke:#000000;stroke-miterlimit:10;" d="M609.4,398.5c-0.6,0.4-1.1,0.7-1.7,1.1l-0.2,0.1l3.7,5.7
						l0.8-0.6v-0.7l-0.7,0.5l-3.1-4.7c0.5-0.4,0.8-0.5,1.3-0.8l2.4,3.7v-0.6l-2.4-3.7L609.4,398.5z"/>
				</g>
			</g>
		</g>
		<g>
			<g>
				<g>
					<path style="fill:none;stroke:#000000;stroke-miterlimit:10;" d="M607.8,399.6c-0.6,0.4-1.2,0.7-1.8,1.1l-0.2,0.1l3.7,5.7
						l2.2-1.4l-3.7-5.6L607.8,399.6z M609.5,405.8l-3.1-4.8c0.6-0.4,1.1-0.7,1.3-0.8l3.1,4.7L609.5,405.8z"/>
				</g>
			</g>
		</g>
		<g>
			<g>
				<g>
					<path style="fill:none;stroke:#000000;stroke-miterlimit:10;" d="M605.9,400.8c-0.6,0.4-1.2,0.7-1.8,1.1l-0.2,0.1l3.7,5.7
						l2.2-1.4l-3.7-5.7L605.9,400.8z M609.3,406l-1.3,0.8l-3.1-4.8c0.2-0.1,0.8-0.5,1.3-0.8L609.3,406z"/>
				</g>
			</g>
		</g>
		<g>
			<g>
				<g>
					<line style="fill:none;stroke:#000000;stroke-miterlimit:10;" x1="612" y1="402.1" x2="612" y2="402.7"/>
					<line style="fill:none;stroke:#000000;stroke-miterlimit:10;" x1="612" y1="397.9" x2="612" y2="398.5"/>
					<path style="fill:none;stroke:#000000;stroke-miterlimit:10;" d="M609.8,398.9c0.5-0.4,1.1-0.7,1.6-1.1l0.5,0.8V398l-0.6-0.8
						l-0.2,0.1c-0.6,0.4-1.2,0.7-1.8,1.2l-0.2,0.1l2.6,4.1v-0.6L609.8,398.9z"/>
				</g>
			</g>
		</g>
		<g>
			<g>
				<g>
					<line style="fill:none;stroke:#000000;stroke-miterlimit:10;" x1="612" y1="397.9" x2="612" y2="398.5"/>
					<line style="fill:none;stroke:#000000;stroke-miterlimit:10;" x1="612" y1="397" x2="612" y2="397.3"/>
					<path style="fill:none;stroke:#000000;stroke-miterlimit:10;" d="M611.8,397.6c0.1-0.1,0.2-0.1,0.2-0.2v-0.6
						c-0.2,0.1-0.5,0.4-0.7,0.5l-0.1,0.1l0.8,1.2v-0.6L611.8,397.6z"/>
				</g>
			</g>
		</g>
	</g>
</g>
</svg>
