<?xml version="1.0" encoding="utf-8"?>
<!-- Generator: Adobe Illustrator 22.1.0, SVG Export Plug-In . SVG Version: 6.00 Build 0)  -->
<svg version="1.1" id="Layer_1" xmlns="http://www.w3.org/2000/svg" xmlns:xlink="http://www.w3.org/1999/xlink" x="0px" y="0px"
	 viewBox="0 0 512 512" style="enable-background:new 0 0 512 512;" xml:space="preserve">
<path style="fill:none;stroke:#000000;stroke-miterlimit:10;" d="M211.9,287.9c0,6.5-9.1,11.8-20.3,11.8s-20.3-5.3-20.3-11.8
	s9.1-11.8,20.3-11.8C202.8,276.1,211.9,281.4,211.9,287.9z"/>
<path style="fill:none;stroke:#000000;stroke-miterlimit:10;" d="M325.4,279.2c0,9.7-9.8,17.5-22,17.5s-22-7.8-22-17.5
	s9.8-17.5,22-17.5S325.4,269.5,325.4,279.2z"/>
<path style="fill:none;stroke:#000000;stroke-miterlimit:10;" d="M398.5,205.2c0,3.4-0.5,6.6-1.4,9.8c-4.6,16.2-20.5,28.1-39.3,28.1
	c-1.4,0-2.8-0.1-4.3-0.2c-1.1-11.7-1.9-20.7-1.9-21.3c0-1,6-4,17.4-8.7c7.3-3.1,10.9-4.7,14-6.3c0.5-0.3,1-0.5,1.5-0.8
	c1.7-0.9,3-1.7,3-1.8s-2.3,0.6-4.9,1.4c-0.2,0.1-0.4,0.1-0.6,0.2l0,0c-2.9,0.9-8.5,2.7-13,4.1c-7.2,2.2-16.1,5.3-18.4,6.2
	c-0.4,0.2-1.6-3.5-6.2-20.5c-0.5-2-1-3.7-1.1-3.7c0,0,0.7,7.4,1.6,16.3c0.9,8.9,1.8,17.3,1.9,18.5l0.2,2.4l-1-0.3
	c-0.5-0.1-3.1-0.9-5.8-1.7c-2.7-0.8-4.9-1.4-4.9-1.3c0,0.1,2.7,1.8,6,3.9c3.3,2.1,6.1,3.8,6.1,3.9c0.1,0.1,0.5,3.6,0.9,8.7
	c-11.1-2.5-20.5-9.2-26-18.3c6.4-6,10.3-13.7,10.3-22.1c0-7-2.7-13.6-7.3-19c7.4-9.2,19.2-15.1,32.5-15.1c5.1,0,9.9,0.9,14.4,2.4
	C387.6,175.2,398.5,189,398.5,205.2z"/>
<path style="fill:none;stroke:#000000;stroke-miterlimit:10;" d="M387.5,203.9c0,0.1-1.3,0.9-3,1.8c-0.5,0.3-1,0.6-1.5,0.8
	c-3,1.6-6.6,3.2-14,6.3c-11.3,4.7-17.4,7.7-17.4,8.7c0,0.6,0.8,9.6,1.9,21.3c-1.8-0.2-3.5-0.5-5.3-0.8c-0.5-5.1-0.8-8.6-0.9-8.7
	c0,0-2.8-1.8-6.1-3.9c-3.3-2.1-6-3.8-6-3.9c0.1,0,2.3,0.5,4.9,1.3c2.7,0.8,5.3,1.5,5.8,1.7l1,0.3l-0.2-2.4c-0.1-1.3-1-9.6-1.9-18.5
	s-1.7-16.2-1.6-16.3c0.1,0,0.6,1.6,1.1,3.7c4.6,17,5.8,20.7,6.2,20.5c2.3-1,11.2-4,18.4-6.2c4.5-1.4,10.1-3.1,13-4.1l0,0
	c0.2-0.1,0.4-0.1,0.6-0.2C385.2,204.5,387.4,203.8,387.5,203.9z"/>
<path style="fill:none;stroke:#000000;stroke-miterlimit:10;" d="M387.5,203.9c0,0.1-1.3,0.9-3,1.8c-0.5,0.3-1,0.6-1.5,0.8
	c-0.4-0.3-0.7-0.7-1.1-1c0.2-0.1,0.4-0.1,0.6-0.2C385.2,204.5,387.4,203.8,387.5,203.9z"/>
<path style="fill:none;stroke:#000000;stroke-miterlimit:10;" d="M452.2,179.6c0,0.9,0,1.8-0.1,2.8c-2.6-0.5-5.3-0.7-8-0.7
	c-10.4,0-20,3.7-27.2,9.7l0,0c-1.2,1-2.4,2.1-3.5,3.3c-0.1,4-0.3,6.8-0.3,6.8c-0.1,0.1-1.5-0.3-3.2-0.7c-0.3-0.1-0.7-0.2-1-0.3
	c-0.2,0.3-0.4,0.6-0.6,1c-2.7,4.6-4.4,9.8-4.8,15.3c-2.2-0.4-4.3-1-6.4-1.7c0.9-3.1,1.4-6.4,1.4-9.8c0-16.2-10.9-30-26.3-35.4
	c4.6-16.2,20.5-28.1,39.3-28.1C434,141.7,452.2,158.7,452.2,179.6z"/>
<path style="fill:none;stroke:#000000;stroke-miterlimit:10;" d="M332.6,201.5c0,8.5-3.9,16.2-10.3,22.1c-7.9,7.4-19.7,12-32.8,12
	c-0.6,0-1.3,0-1.9,0c0.5-13.3,1.3-26.2,1.7-29.2c0.9-6.2,1.8-11,4.1-21.3c1.5-7,2.8-13.9,2.6-14.1c-0.1-0.1-0.5,0.9-1,2.1
	c-0.8,2.1-1.6,4.7-5.3,17.4c-1.9,6.7-3.8,11.5-4.3,11.3c-0.2-0.1-5.3-3.2-11.3-6.9s-11.1-6.9-11.3-7c-1.1-0.6,3.9,4.2,10.7,10.2
	c4.1,3.6,7.9,7.2,8.5,7.8l1.1,1.2l-0.2,9.7c-0.1,3.6-0.2,10.7-0.3,18.3c-3.5-0.4-6.8-1.2-9.9-2.3c0.3-1.8,0.5-3.6,0.5-5.5
	c0-14.8-10.3-27.7-25.6-34.4c4.7-14.8,21.6-25.9,41.8-25.9c14.9,0,28.1,6,35.8,15.1C329.9,187.9,332.6,194.5,332.6,201.5z"/>
<path style="fill:none;stroke:#000000;stroke-miterlimit:10;" d="M293.4,185.2c-2.3,10.3-3.2,15.1-4.1,21.3
	c-0.4,3-1.2,15.9-1.7,29.2c-1.7-0.1-3.3-0.2-5-0.4c0.1-7.6,0.2-14.7,0.3-18.3l0.2-9.7L282,206c-0.6-0.7-4.4-4.2-8.5-7.8
	c-6.8-6.1-11.7-10.8-10.7-10.2c0.2,0.1,5.3,3.3,11.3,7c6,3.8,11.1,6.9,11.3,6.9c0.5,0.2,2.4-4.6,4.3-11.3
	c3.7-12.7,4.4-15.2,5.3-17.4c0.5-1.3,0.9-2.2,1-2.1C296.3,171.3,295,178.2,293.4,185.2z"/>
<path style="fill:none;stroke:#000000;stroke-miterlimit:10;" d="M484.7,219.4c0,20.9-18.2,37.8-40.7,37.8c-9.6,0-18.4-3.1-25.3-8.2
	v-4.1l4.5-2.9c5.3-3.4,5.5-3.5,18.9-12.2c5.6-3.6,10.2-6.6,10.4-6.7c0.2-0.1-0.2,0-0.8,0.2c-0.6,0.3-3.1,1.3-5.4,2.3
	s-9.5,4-15.8,6.6c-6.3,2.7-11.7,4.9-11.9,5c-0.3,0.1-0.4-3.6-0.5-18.4V217l-0.1-16.7l5.6-3.4c3-1.8,5.5-3.4,5.5-3.5
	c-0.1-0.1-2.5,0.7-5.5,1.6c-3,1-5.5,1.7-5.7,1.7s-0.4-0.8-0.5-1.8c-0.1-0.5-0.2-1.9-0.4-3.6l0,0c7.2-6,16.7-9.7,27.2-9.7
	c2.8,0,5.4,0.3,8,0.7C470.7,185.8,484.7,201.1,484.7,219.4z"/>
<path style="fill:none;stroke:#000000;stroke-miterlimit:10;" d="M413,205.1l-0.1,4c0,1.1-0.1,4.2-0.3,8.3
	c-0.1,4.3-0.3,9.8-0.5,15.3c-0.1,3-0.2,6.4-0.3,9.8c-5.3-6.4-8.5-14.4-8.5-23.1c0-0.9,0-1.8,0.1-2.8c0.4-5.5,2.1-10.7,4.8-15.3
	c0.4,0.4,1,0.8,1.5,1.2L413,205.1z"/>
<path style="fill:none;stroke:#000000;stroke-miterlimit:10;" d="M413.5,194.5c-0.1,4-0.3,6.8-0.3,6.8c-0.1,0.1-1.5-0.3-3.2-0.7
	c-0.3-0.1-0.7-0.2-1-0.3C410.2,198.3,411.8,196.3,413.5,194.5z"/>
<path style="fill:none;stroke:#000000;stroke-miterlimit:10;" d="M273.2,227.6c0,1.8-0.2,3.7-0.5,5.5c-3.3,19-23.7,33.6-48.3,33.6
	c-4.2,0-8.3-0.4-12.3-1.2c0-1.7,0-3.2,0-4.5v-16l17.1-11c15.1-9.7,18.8-12.2,16.1-10.7c-0.5,0.2-5.1,2.2-10.4,4.4
	c-5.3,2.2-12.5,5.2-16.1,6.8c-3.6,1.5-6.7,2.8-6.9,2.9c-0.3,0.1-0.4-3.7-0.4-18.5v-18.7l2.5-1.5c1.4-0.8,3.9-2.4,5.7-3.5
	s3.2-2,3.2-2c-0.1,0-2.6,0.8-5.6,1.7c-3.1,1-5.8,1.8-6,1.8s-0.4-0.2-0.4-0.3s-0.3-2.7-0.8-6.1c4.5-1.1,9.2-1.7,14.2-1.7
	c7.1,0,13.9,1.2,20,3.4c1.1,0.4,2.2,0.8,3.3,1.3C262.9,199.8,273.2,212.7,273.2,227.6z"/>
<path style="fill:none;stroke:#000000;stroke-miterlimit:10;" d="M203.4,202.6l3.2,2.6l-0.1,2.8c0,1-0.1,3-0.2,5.8
	c-0.4,10.5-1.1,31.3-1.6,45.2c0,1.6-0.1,3-0.2,4.4c-13.4-4.8-23.6-14.2-27.4-25.6c9.9-6,16.9-14.9,18.9-25.1c0.4-2,0.6-4,0.6-6.1
	c0-3.5-0.6-6.9-1.6-10.1c3.6-2.2,7.6-4,11.9-5.3c-0.2,5.7-0.3,10.3-0.4,10.3c-0.1,0-1.5-0.3-3.2-0.8s-3.1-0.8-3.2-0.8
	C200.3,200,201.7,201.2,203.4,202.6z"/>
<path style="fill:none;stroke:#000000;stroke-miterlimit:10;" d="M229.2,234l-17.1,11v16c0,1.3,0,2.8,0,4.5
	c-2.6-0.5-5.1-1.3-7.5-2.1c0.1-1.4,0.1-2.8,0.2-4.4c0.5-13.8,1.2-34.7,1.6-45.2c0.1-2.8,0.2-4.8,0.2-5.8l0.1-2.8l-3.2-2.6
	c-1.8-1.4-3.1-2.6-3.1-2.7c0-0.1,1.5,0.3,3.2,0.8s3.1,0.8,3.2,0.8c0-0.1,0.2-4.7,0.4-10.3c1.1-0.3,2.1-0.6,3.2-0.9
	c0.4,3.5,0.8,6,0.8,6.1c0,0.2,0.2,0.3,0.4,0.3s2.9-0.8,6-1.8c3-1,5.5-1.7,5.6-1.7c0,0-1.4,1-3.2,2s-4.3,2.6-5.7,3.5l-2.5,1.5v18.7
	c0,14.8,0.1,18.6,0.4,18.5c0.2-0.1,3.3-1.4,6.9-2.9c3.6-1.5,10.8-4.6,16.1-6.8s9.9-4.2,10.4-4.4C248.1,221.8,244.4,224.3,229.2,234z
	"/>
<path style="fill:none;stroke:#000000;stroke-miterlimit:10;" d="M180.5,199.9c0.1,0.1-1.7,1.2-3.9,2.4c-0.3-0.3-0.6-0.6-0.9-0.9
	c0.5-0.2,1-0.3,1.4-0.4C178.9,200.3,180.4,199.9,180.5,199.9z"/>
<path style="fill:none;stroke:#000000;stroke-miterlimit:10;" d="M246.4,182c0,3.5-0.7,6.8-2,9.9c-6.1-2.2-12.9-3.4-20-3.4
	c-4.9,0-9.7,0.6-14.2,1.7c0.4,3.5,0.8,6,0.8,6.1c0,0.2,0.2,0.3,0.4,0.3s2.9-0.8,6-1.8c3-1,5.5-1.7,5.6-1.7c0,0-1.4,1-3.2,2
	s-4.3,2.6-5.7,3.5l-2.5,1.5v13.4c-1.5,0.1-3.1,0.2-4.7,0.2c-0.2,0-0.4,0-0.6,0c0.1-2.8,0.2-4.8,0.2-5.8l0.1-2.8l-3.2-2.6
	c-1.8-1.4-3.1-2.6-3.1-2.7c0-0.1,1.5,0.3,3.2,0.8s3.1,0.8,3.2,0.8c0-0.1,0.2-4.7,0.4-10.3c-4.3,1.3-8.3,3.1-11.9,5.3
	c-3.6-10.9-13-19.9-25.4-24.9c5.4-12.3,20-21.2,37.2-21.2C228.7,150.3,246.4,164.5,246.4,182z"/>
<path style="fill:none;stroke:#000000;stroke-miterlimit:10;" d="M196.7,206.4c0,2.1-0.2,4.1-0.6,6.1c-2,10.2-9,19.1-18.9,25.1
	c-8.2,4.9-18.3,7.8-29.3,7.8h-0.4c-1.5-16.2-2.3-25.9-2.3-27.2v-1.1l2.9-1.6c3.5-2,6.5-3.4,15-7c3.7-1.6,8.2-3.6,10.1-4.6
	c1.1-0.6,2.3-1.2,3.3-1.7c2.3-1.2,4-2.3,3.9-2.4c0,0-1.6,0.4-3.5,1c-0.4,0.1-0.9,0.3-1.4,0.4c-1.8,0.6-4.2,1.3-5.9,1.9
	c-5.6,1.7-21.1,6.9-23.7,8c-1.2,0.5-2.3,0.8-2.4,0.8c-0.2-0.2-1.2-3.9-4.2-15.1c-1.3-5-2.5-9.2-2.6-9.4c-0.2-0.4-0.1,0.5,1.9,19.8
	c0.9,9.3,1.7,17.2,1.7,17.5c0,0.6,0,0.6-6.8-1.4c-2.9-0.8-5.1-1.4-5-1.3c0.1,0.1,2.8,1.9,6,3.9c3.1,2,5.8,3.8,6,4
	c0.3,0.3,1,6.5,1.8,15.4c-17-1.6-31.4-10.1-38.5-22c12.9-7,21.3-18.9,21.3-32.3c0-6-1.7-11.7-4.7-16.8c7.8-4.3,17.3-6.8,27.5-6.8
	c7.8,0,15.2,1.5,21.8,4.1c12.4,5,21.8,14,25.4,24.9C196.2,199.5,196.7,202.9,196.7,206.4z"/>
<path style="fill:none;stroke:#000000;stroke-miterlimit:10;" d="M125.1,191c0,13.4-8.4,25.2-21.3,32.3c-3-5.1-4.7-10.8-4.7-16.8
	c0-13.4,8.4-25.2,21.3-32.3C123.4,179.2,125.1,184.9,125.1,191z"/>
<path style="fill:none;stroke:#000000;stroke-miterlimit:10;" d="M180.5,199.9c0.1,0.1-1.7,1.2-3.9,2.4c-1,0.6-2.2,1.2-3.3,1.7
	c-1.9,1-6.4,3-10.1,4.6c-8.5,3.6-11.5,5-15,7l-2.9,1.6v1.1c0,1.2,0.8,11,2.3,27.2c-1.8,0-3.5-0.1-5.2-0.3
	c-0.8-8.9-1.5-15.2-1.8-15.4c-0.2-0.2-2.9-2-6-4s-5.8-3.7-6-3.9c-0.1-0.1,2.1,0.5,5,1.3c6.8,2,6.8,2,6.8,1.4c0-0.3-0.8-8.1-1.7-17.5
	c-2-19.4-2-20.2-1.9-19.8c0.1,0.2,1.2,4.4,2.6,9.4c3,11.3,4.1,15,4.2,15.1c0.1,0.1,1.1-0.3,2.4-0.8c2.6-1,18.1-6.2,23.7-8
	c1.7-0.5,4.1-1.3,5.9-1.9c0.5-0.2,1-0.3,1.4-0.4C178.9,200.3,180.4,199.9,180.5,199.9z"/>
<path style="fill:none;stroke:#000000;stroke-miterlimit:10;" d="M125.1,191c0,13.4-8.4,25.2-21.3,32.3c-6.5,3.6-14.2,5.9-22.5,6.6
	c-1.6,0.1-3.3,0.2-5,0.2h-0.2c-26.9-0.1-48.7-17.5-48.7-39c0-21.6,21.9-39.1,48.8-39.1c19.4,0,36.2,9.1,44.1,22.3
	C123.4,179.2,125.1,184.9,125.1,191z"/>
<path style="fill:none;stroke:#000000;stroke-miterlimit:10;" d="M411.8,242.5c-0.3,8.7-0.6,17.8-0.8,22.9
	c-0.5,14.8-0.6,17.8-0.8,17.9c-0.1,0.1-3-0.7-6.5-1.7s-6.4-1.8-6.5-1.7c0,0.1,2.9,1.5,6.5,3.2l6.6,3.1l-0.2,5.3
	c-0.4,11-0.7,32.5-0.7,44.3v12.3l2.2-0.1c1.2-0.1,3.1-0.2,4.2-0.3l2-0.2v-18.4c0-10.1,0.2-25.2,0.4-33.5c0.2-8.3,0.4-23.1,0.4-32.9
	V249C416.2,247.1,413.8,244.9,411.8,242.5z M416.9,191.3L416.9,191.3c-0.8-6.3-2.3-17.9-2.6-19.2c-0.2-1.3-0.3-1.2-0.3,1.3
	c-0.1,5.6-0.4,14.9-0.6,21.2C414.5,193.4,415.7,192.3,416.9,191.3z M408.3,201.3c0.2-0.3,0.4-0.6,0.6-1c-1.2-0.3-2.1-0.5-2.2-0.5
	C406.8,199.9,407.4,200.5,408.3,201.3z M245.3,223.2c-0.5,0.2-5.1,2.2-10.4,4.4c-5.3,2.2-12.5,5.2-16.1,6.8
	c-3.6,1.5-6.7,2.8-6.9,2.9c-0.3,0.1-0.4-3.7-0.4-18.5v-18.7l2.5-1.5c1.4-0.8,3.9-2.4,5.7-3.5s3.2-2,3.2-2c-0.1,0-2.6,0.8-5.6,1.7
	c-3.1,1-5.8,1.8-6,1.8s-0.4-0.2-0.4-0.3s-0.3-2.7-0.8-6.1c-0.9-6.7-2.2-16.6-2.4-18.6c-0.1-1-0.4,6.1-0.8,18.9c0,0.2,0,0.4,0,0.6
	c-0.2,5.7-0.3,10.3-0.4,10.3c-0.1,0-1.5-0.3-3.2-0.8s-3.1-0.8-3.2-0.8c0,0.1,1.4,1.3,3.1,2.7l3.2,2.6l-0.1,2.8c0,1-0.1,3-0.2,5.8
	c-0.4,10.5-1.1,31.3-1.6,45.2c0,1.6-0.1,3-0.2,4.4c2.4,0.9,4.9,1.6,7.5,2.1c0-1.7,0-3.2,0-4.5v-16l17.1-11
	C244.4,224.3,248.1,221.8,245.3,223.2z M287.6,235.7c0.5-13.3,1.3-26.2,1.7-29.2c0.9-6.2,1.8-11,4.1-21.3c1.5-7,2.8-13.9,2.6-14.1
	c-0.1-0.1-0.5,0.9-1,2.1c-0.8,2.1-1.6,4.7-5.3,17.4c-1.9,6.7-3.8,11.5-4.3,11.3c-0.2-0.1-5.3-3.2-11.3-6.9s-11.1-6.9-11.3-7
	c-1.1-0.6,3.9,4.2,10.7,10.2c4.1,3.6,7.9,7.2,8.5,7.8l1.1,1.2l-0.2,9.7c-0.1,3.6-0.2,10.7-0.3,18.3c-0.1,3.8-0.1,7.7-0.2,11.4
	c-0.7,51.9-1.5,87.4-2.3,97.4c-0.1,1.9-0.2,3.5-0.1,3.5c0,0.1,1.3,0.2,2.7,0.4c1.5,0.2,3.7,0.4,5.1,0.7c3.2,0.5,4.8,0.5,4.8,0.1
	c0-0.2-0.4-2.2-0.8-4.5c-2.3-11.4-3.8-25.8-4.6-46.4c-0.4-10-0.4-42.4,0-54.2C287.4,240.9,287.5,238.3,287.6,235.7z M81.3,229.8
	c0.9-21.3,1.7-26.8,4.8-41.1c2.2-10.1,2.6-12.4,3.4-17.2c0.1-0.7,0-0.5-0.5,0.6c-1,2.1-2.2,5.8-4.6,14.4c-2.2,7.8-3.8,12.7-4.8,14.6
	c-0.5,0.9-0.6,1-1.1,0.8c-0.3-0.2-5.3-3.3-11.2-6.9c-5.9-3.7-10.9-6.8-11.1-6.9c-1.2-0.7,5.3,5.7,10.3,9.9c2.1,1.8,5.2,4.7,6.9,6.3
	l3,3l-0.1,5.9c0,2.3-0.1,9-0.3,16.9c0,3.4-0.1,7.1-0.1,10.6c-0.7,51.2-1.6,92.4-2.3,102.6c-0.2,2.2-0.2,4.2-0.1,4.3
	c0.1,0.1,1.3,0.3,2.6,0.4c1.4,0.1,3.7,0.4,5.2,0.6c3.3,0.5,4.8,0.5,4.8,0.2c0-0.2-0.2-1.1-0.4-2.1c-2.5-10.6-4.1-25.5-5-46.9
	c-0.5-9.8-0.5-46.3,0-58.2C81,237.1,81.2,233.3,81.3,229.8z M382.6,205.3c-0.2,0.1-0.4,0.1-0.6,0.2l0,0c-2.9,0.9-8.5,2.7-13,4.1
	c-7.2,2.2-16.1,5.3-18.4,6.2c-0.4,0.2-1.6-3.5-6.2-20.5c-0.5-2-1-3.7-1.1-3.7c0,0,0.7,7.4,1.6,16.3c0.9,8.9,1.8,17.3,1.9,18.5
	l0.2,2.4l-1-0.3c-0.5-0.1-3.1-0.9-5.8-1.7c-2.7-0.8-4.9-1.4-4.9-1.3c0,0.1,2.7,1.8,6,3.9c3.3,2.1,6.1,3.8,6.1,3.9
	c0.1,0.1,0.5,3.6,0.9,8.7c0.8,8.1,1.8,20.3,2.5,29.2c1.9,24,3,50.5,2.8,68.5c-0.1,8.7,0,9,0.5,9.1c0.3,0.1,2.2,0.3,4.3,0.6
	c4.3,0.6,5.3,0.7,5.3,0.4c0-0.8-4.4-48.1-5.3-56.2c-0.9-9-3.2-32.9-4.8-50.7c-1.1-11.7-1.9-20.7-1.9-21.3c0-1,6-4,17.4-8.7
	c7.3-3.1,10.9-4.7,14-6.3c0.5-0.3,1-0.5,1.5-0.8c1.7-0.9,3-1.7,3-1.8C387.4,203.8,385.2,204.5,382.6,205.3z M177,200.9
	c-0.4,0.1-0.9,0.3-1.4,0.4c-1.8,0.6-4.2,1.3-5.9,1.9c-5.6,1.7-21.1,6.9-23.7,8c-1.2,0.5-2.3,0.8-2.4,0.8c-0.2-0.2-1.2-3.9-4.2-15.1
	c-1.3-5-2.5-9.2-2.6-9.4c-0.2-0.4-0.1,0.5,1.9,19.8c0.9,9.3,1.7,17.2,1.7,17.5c0,0.6,0,0.6-6.8-1.4c-2.9-0.8-5.1-1.4-5-1.3
	c0.1,0.1,2.8,1.9,6,3.9c3.1,2,5.8,3.8,6,4c0.3,0.3,1,6.5,1.8,15.4c1,10.7,2.1,25.2,2.9,37.4c1.3,20.7,1.7,33.7,1.7,51.7v14.3
	l4.3,0.6c6.2,0.8,5.9,0.9,5.7-0.4c-0.1-0.6-0.4-4.1-0.7-7.8c-0.5-5.9-3.2-35.6-4.4-48.3c-1.8-18.9-3.3-35-4.4-47.3
	c-1.5-16.2-2.3-25.9-2.3-27.2v-1.1l2.9-1.6c3.5-2,6.5-3.4,15-7c3.7-1.6,8.2-3.6,10.1-4.6c1.1-0.6,2.3-1.2,3.3-1.7
	c2.3-1.2,4-2.3,3.9-2.4C180.4,199.9,178.9,200.3,177,200.9z"/>
<path style="fill:none;stroke:#000000;stroke-miterlimit:10;" d="M452.6,223.1c-0.2,0.1-4.8,3.2-10.4,6.7
	c-13.4,8.6-13.7,8.8-18.9,12.2l-4.5,2.9v4.1c-2.6-1.9-4.9-4.1-6.9-6.5c0.1-3.4,0.2-6.8,0.3-9.8c0.2-5.5,0.4-11,0.5-15.3
	c0.1-4.2,0.2-7.2,0.3-8.3l0.1-4l-3.2-2.6c-0.5-0.4-1.1-0.8-1.5-1.2c0.2-0.3,0.4-0.6,0.6-1c0.3,0.1,0.7,0.2,1,0.3
	c1.7,0.5,3.1,0.8,3.2,0.7c0,0,0.2-2.9,0.3-6.8c1.1-1.2,2.2-2.2,3.5-3.3c0.2,1.7,0.4,3.1,0.4,3.6c0.1,1,0.3,1.8,0.5,1.8
	s2.7-0.8,5.7-1.7c3-1,5.4-1.7,5.5-1.6c0,0.1-2.4,1.6-5.5,3.5l-5.6,3.4l0.1,16.7v1.8c0.1,14.8,0.2,18.5,0.5,18.4
	c0.2-0.1,5.6-2.3,11.9-5c6.4-2.7,13.5-5.7,15.8-6.6c2.4-1,4.8-2,5.4-2.3C452.4,223,452.8,222.9,452.6,223.1z"/>
<path style="fill:none;stroke:#000000;stroke-miterlimit:10;" d="M211.7,300.5c-0.3,13-0.4,28.9-0.4,35.4l0.1,11.7l-2,0.2
	c-5.4,0.4-6.4,0.4-6.6,0.2c-0.3-0.5,0.5-51.4,0.9-58.6l0.2-2.9l-5.6-2.7c-3.1-1.5-6.1-2.9-6.7-3.2c-2.4-1-0.5-0.6,5.2,1
	c3.3,1,6.3,1.8,6.5,1.9c0.5,0.2,0.5,0.5,1.2-20.1c2.4,0.9,4.9,1.6,7.5,2.1C212.1,274.9,211.9,289.4,211.7,300.5z"/>
<polyline style="fill:none;stroke:#000000;stroke-miterlimit:10;" points="-0.5,348.5 72.5,348.5 154.5,348.5 218.5,348.5 
	289.5,348.5 411.5,348.5 511.5,348.5 "/>
</svg>
