<?xml version="1.0" encoding="utf-8"?>
<!-- Generator: Adobe Illustrator 22.1.0, SVG Export Plug-In . SVG Version: 6.00 Build 0)  -->
<svg version="1.1" id="Layer_1" xmlns="http://www.w3.org/2000/svg" xmlns:xlink="http://www.w3.org/1999/xlink" x="0px" y="0px"
	 viewBox="0 0 512 512" style="enable-background:new 0 0 512 512;" xml:space="preserve">
<g transform="translate(462.97 -189.76)">
	<path style="fill:none;stroke:#000000;stroke-miterlimit:10;" d="M23,594.9c0-1-6.4-0.4-6.4-1.2c0-0.5,5.4-0.1,5.5-1
		c0.1-0.8-15.8,0.2-14.6-0.6c0.6-0.4,7.6-0.4,7.6-0.8c4.5-1.9-56.3-2.5-57.8-0.2c-0.4,0.6,3.7,0.4,3.8,1c0.1,0.8-10.3,0.3-10.4,1.1
		c0,0.7,8.8,0.3,7.9,0.9c-0.6,0.4-5.8-0.2-5.8,0.9C-48.1,598,23,598.1,23,594.9L23,594.9z"/>
	<path style="fill:none;stroke:#000000;stroke-miterlimit:10;" d="M-25.3,591.6c0.1-8.3-8.4-13.1-12.4-18
		c5.2,3.2,10.4,4.4,15.7,14.8c0.1-7.6-2.3-10.7-3.8-15.3c3,3.1,5.6,7.3,8.5,13.9c1.1-6.2,4.8-11.3,7.5-11.5c0,0-5.3,6.8-2.5,12
		c1.9-5.7,5.7-10.2,11.8-13c-3.7,3.8-8.1,7.2-6.7,14.4c2-7.3,7.6-10.6,13.5-13.6c-5.6,4.3-10.9,8.8-9.8,16.3
		C-10.4,592.8-17.7,592.5-25.3,591.6L-25.3,591.6z"/>
</g>
<g transform="translate(265.59 -196.66)">
	<path style="fill:none;stroke:#000000;stroke-miterlimit:10;" d="M80.1,648.6c0-1-6.4-0.4-6.4-1.2c0-0.5,5.4-0.1,5.5-1
		c0.1-0.8-15.8,0.2-14.6-0.6c0.6-0.4,7.6-0.4,7.6-0.8c4.5-1.9-56.3-2.5-57.8-0.2c-0.4,0.6,3.7,0.4,3.8,1c0.1,0.8-10.3,0.3-10.4,1.1
		c0,0.7,8.8,0.3,7.9,0.9c-0.6,0.4-5.8-0.2-5.8,0.9C9,651.7,80.1,651.8,80.1,648.6L80.1,648.6z"/>
	<path style="fill:none;stroke:#000000;stroke-miterlimit:10;" d="M31.8,645.4c0.1-8.3-8.4-13.1-12.4-18c5.2,3.2,10.4,4.4,15.7,14.8
		c0.1-7.6-2.3-10.7-3.8-15.3c3,3.1,5.6,7.3,8.5,13.9c1.1-6.2,4.8-11.3,7.5-11.5c0,0-5.3,6.8-2.5,12c1.9-5.7,5.7-10.2,11.8-13
		c-3.7,3.8-8.1,7.2-6.7,14.4c2-7.3,7.6-10.6,13.5-13.6c-5.6,4.3-10.9,8.8-9.8,16.3C46.7,646.5,39.3,646.2,31.8,645.4L31.8,645.4z"/>
</g>
<g>
	<path style="fill:none;stroke:#000000;stroke-miterlimit:10;" d="M477,227.4c0-0.1,0-0.1,0-0.2c-18.2-1.2-36.4-2.3-54.7-3.1V224
		c0.3-1.7,0.5-3.4,0.7-4.9c0.1-0.7,0.1-1.4,0.2-2.1c0.6-4.7,1.3-9.4,2.1-14.1c11.1,0.3,22.2,0.7,33.3,1c5.3-6.4,5.6-9.7,6.5-16.1
		c0.3-4.3-1.4-8.3-3.4-8.7c0-0.1,0-0.1,0-0.2c-10.6-0.7-21.3-1.4-32-1.9c1.1-5.7,2.2-11.5,3.4-17.2H433c-0.4-1.2-3.9-2.6-9.6-3.6
		l-1.7-0.3c-8.6-1.3-17.9-1.2-21.1,0.3c-0.8,0.4-1.1,0.8-1,1.2h-0.1c-0.2,6.1-0.5,12.2-0.7,18.2c-21.9-0.9-43.8-1.5-65.9-1.8
		c1.2-6.4,2.4-12.7,3.7-19.1h-0.1c-0.4-1.2-3.9-2.6-9.6-3.6l-1.7-0.3c-8.6-1.3-17.9-1.2-21.1,0.3c-0.8,0.4-1.1,0.8-1,1.2H303
		c-0.3,7.1-0.5,14.2-0.8,21.1c-24.9-0.2-49.9,0-75,0.3c-0.3-9.2-0.7-18.7-1-28.2h-0.1c0.1-0.4-0.2-0.9-1-1.2
		c-3.2-1.5-12.5-1.6-21.1-0.3l-1.7,0.3c-5.7,1-9.2,2.4-9.6,3.6h-0.1c1.8,8.8,3.5,17.5,5,26.2c-28.4,0.5-57,1.3-85.5,2.1
		c-0.2-6.6-0.5-13.3-0.8-20h-0.1c0.1-0.4-0.2-0.9-1-1.2c-3.2-1.5-12.5-1.6-21.1-0.3l-1.7,0.3c-5.7,1-9.2,2.4-9.6,3.6h-0.1
		c1.3,6.2,2.5,12.4,3.6,18.6c-16,0.5-32.1,1.1-48.1,1.6l0,0c0,0-0.1,0-0.1,0.1H33l0,0c-5.9,2.8-3,10.3,7.7,11.6l13.6,0.4
		c-8,1.5-4.2,11.3,16.8,11.4c4.8-0.2,9.6-0.4,14.4-0.6c0.7,4.7,1.4,9.4,2.1,14.2c0.1,0.7,0.1,1.4,0.2,2.1c0.2,1.5,0.4,3.2,0.7,4.9
		c0.1,0.9,0.2,1.9,0.4,2.8c-13.4,0.4-26.9,0.9-40.3,1.4l0,0c0,0-0.1,0-0.1,0.1h-0.1l0,0c-5.9,2.8-3,10.3,7.7,11.6l13.6,0.4
		c-8,1.5-4.2,11.3,16.8,11.4c1.7-0.1,3.4-0.2,5.1-0.2c0.8,8.4,1.4,16.7,1.9,25.1l21.7-1.8c-0.2-7.7-0.4-15.8-0.6-24.2
		c30.6-1.1,61.6-1.7,92.7-2c0.5,5.7,0.9,11.5,1.2,17.2l21.7-1.8c-0.1-5-0.3-10.2-0.4-15.5c23.4,0,46.9,0.2,70.6,0.5
		c-0.2,7.5-0.4,14.8-0.6,21.7l21.7,1.8c0.4-7.7,1-15.5,1.7-23.2c24.6,0.4,49.2,1,73.9,1.7c-0.2,8.7-0.5,17-0.7,24.8l21.7,1.8
		c0.5-8.7,1.2-17.3,2-26c18.2,0.5,36.3,1.1,54.5,1.7c5.3-6.4,5.6-9.7,6.5-16.1C480.7,231.7,479.1,227.7,477,227.4z M112.6,200.7
		c29.3-0.9,58.9-1.4,88.7-1.5c0.3,2,0.6,4,0.8,6c0.1,0.7,0.1,1.4,0.2,2.1c0.2,1.5,0.4,3.2,0.7,4.9c0.4,3.5,0.9,6.9,1.3,10.4
		c-30.3,0.6-60.6,1.4-91,2.4C113.1,217,112.9,208.9,112.6,200.7z M227.9,199.1c24.3,0.1,48.8,0.3,73.3,0.7
		c-0.2,7.4-0.5,14.6-0.7,21.7c-23.9,0-47.9,0.2-72,0.5C228.3,214.6,228.1,206.9,227.9,199.1z M325.8,218.9c0.3-1.7,0.5-3.4,0.7-4.9
		c0.1-0.7,0.1-1.4,0.2-2.1c0.5-3.8,1.1-7.7,1.7-11.5c23.1,0.5,46.3,1.1,69.5,1.7c-0.2,7.1-0.4,14.2-0.6,21
		c-23.8-0.8-47.8-1.3-71.8-1.5C325.5,220.7,325.7,219.8,325.8,218.9z"/>
	<path style="fill:none;stroke:#000000;stroke-miterlimit:10;" d="M123.6,290.3l-0.4,0.1l-0.3-0.1c-0.3,0.1-0.5,0.1-0.4,0.2
		s0.3,0.1,0.7,0.1c0.3,0,0.6-0.1,0.8-0.1C124,290.4,123.9,290.4,123.6,290.3z"/>
	<path style="fill:none;stroke:#000000;stroke-miterlimit:10;" d="M77.3,158.7L77.3,158.7L77.3,158.7z"/>
	<path style="fill:none;stroke:#000000;stroke-miterlimit:10;" d="M387.3,291.7l-0.4-0.1c-0.3,0-0.4,0.1-0.3,0.1s0.4,0.1,0.8,0.1
		c0.3,0,0.6,0,0.7-0.1s-0.1-0.1-0.4-0.2L387.3,291.7z"/>
	<path style="fill:none;stroke:#000000;stroke-miterlimit:10;" d="M433.1,159.8L433.1,159.8L433.1,159.8z"/>
	<path style="fill:none;stroke:#000000;stroke-miterlimit:10;" d="M238.6,279.6l-0.4,0.1l-0.3-0.1c-0.3,0.1-0.5,0.1-0.4,0.2
		s0.3,0.1,0.7,0.1c0.3,0,0.6-0.1,0.8-0.1C238.9,279.7,238.8,279.6,238.6,279.6z"/>
	<path style="fill:none;stroke:#000000;stroke-miterlimit:10;" d="M192.3,147.9L192.3,147.9L192.3,147.9z"/>
	<path style="fill:none;stroke:#000000;stroke-miterlimit:10;" d="M290.7,286.5l-0.4-0.1c-0.3,0-0.4,0.1-0.3,0.1
		c0.1,0.1,0.4,0.1,0.8,0.1c0.3,0,0.6,0,0.7-0.1s-0.1-0.1-0.4-0.2L290.7,286.5z"/>
	<path style="fill:none;stroke:#000000;stroke-miterlimit:10;" d="M336.6,154.7L336.6,154.7L336.6,154.7z"/>
</g>
<g transform="matrix(.7928 .036792 -.036792 .7928 322.16 97.329)">
	<path style="fill:none;stroke:#000000;stroke-miterlimit:10;" d="M-247.7,236.8c0-13.5,7.4-17.6,13.5-25.5c-8,5-10.2,3.6-18.5,20.2
		c-2.6-7-0.9-12.8,2.6-22.2c-4.6,4.9-8.4,9.8-9.7,19.8c-1.5-10-2.8-18.4-6.9-18.9c0,0,3.8,11.1-0.6,19.5c-2.8-9.3-2-14.4-11.2-19.2
		c5.5,6.3,5.7,9.7,3.4,21.3c-2.9-11.8-11.3-17.4-20.2-22.4c8.4,7.2,16.3,14.6,14.5,26.7C-270.3,238.2-259.2,237.9-247.7,236.8
		L-247.7,236.8z"/>
	<path style="fill:none;stroke:#000000;stroke-miterlimit:10;" d="M-279.7,240.7c-0.4-13.5-14.6-20.5-21.4-28.2
		c8.7,4.8,17.2,6.4,26.5,22.7c-0.4-12.3-4.5-17.1-7.3-24.4c5.1,4.8,9.7,11.4,14.7,21.8c1.3-10,6.9-18.6,11.2-19.2
		c0,0-8.1,11.3-3.2,19.6c2.7-9.4,8.4-16.9,18.1-21.9c-5.7,6.5-12.5,12.3-9.7,23.8c2.7-11.9,11.5-17.7,20.8-23
		c-8.7,7.4-16.9,15.1-14.6,27.1C-255.6,241.4-267.4,241.5-279.7,240.7L-279.7,240.7z"/>
</g>
<g transform="matrix(.7928 .036792 -.036792 .7928 551.34 89.792)">
	<path style="fill:none;stroke:#000000;stroke-miterlimit:10;" d="M-392.1,232.6c0.1-10.2,7.5-13.4,13.8-19.5
		c-8.1,3.9-10.2,2.8-18.7,15.5c-2.5-5.3-0.7-9.7,2.9-16.8c-4.7,3.8-8.5,7.6-9.9,15.1c-1.4-7.5-2.6-13.9-6.7-14.2
		c0,0,3.6,8.4-0.8,14.8c-2.7-7-1.8-10.9-11-14.4c5.4,4.7,5.5,7.3,3.2,16.1c-2.8-8.9-11.1-13.1-20-16.8c8.3,5.4,16.1,10.9,14.2,20.1
		C-414.7,234-403.6,233.7-392.1,232.6L-392.1,232.6z"/>
	<path style="fill:none;stroke:#000000;stroke-miterlimit:10;" d="M-424.2,236c-0.2-10.2-14.4-15.4-21.1-21.1
		c8.6,3.5,17.1,4.6,26.3,16.9c-0.3-9.4-4.3-12.9-7-18.4c5,3.6,9.5,8.6,14.5,16.4c1.4-7.6,7.1-14.2,11.4-14.7c0,0-8.2,8.7-3.4,14.9
		c2.8-7.2,8.6-12.9,18.4-16.8c-5.8,5-12.6,9.4-10,18.2c2.8-9.1,11.7-13.6,21.1-17.7c-8.8,5.7-17,11.6-14.9,20.7
		C-400.1,236.3-411.9,236.5-424.2,236L-424.2,236z"/>
</g>
<g transform="matrix(.7928 .036792 -.036792 .7928 770.24 88.432)">
	<path style="fill:none;stroke:#000000;stroke-miterlimit:10;" d="M-553.4,257c0-13.5,7.4-17.6,13.5-25.5c-8,5-10.2,3.6-18.5,20.2
		c-2.6-7-0.9-12.8,2.6-22.2c-4.6,4.9-8.4,9.8-9.7,19.8c-1.5-10-2.8-18.4-6.9-18.9c0,0,3.8,11.1-0.6,19.5c-2.8-9.3-2-14.4-11.2-19.2
		c5.5,6.3,5.7,9.7,3.4,21.3c-2.9-11.8-11.3-17.4-20.2-22.4c8.4,7.2,16.3,14.6,14.5,26.7C-576,258.4-564.9,258.2-553.4,257
		L-553.4,257z"/>
	<path style="fill:none;stroke:#000000;stroke-miterlimit:10;" d="M-585.4,260.9c-0.4-13.5-14.6-20.5-21.4-28.2
		c8.7,4.8,17.2,6.4,26.5,22.7c-0.4-12.3-4.5-17.1-7.3-24.4c5.1,4.8,9.7,11.4,14.7,21.8c1.3-10,6.9-18.6,11.2-19.2
		c0,0-8.1,11.3-3.2,19.6c2.7-9.4,8.4-16.9,18.1-21.9c-5.7,6.5-12.5,12.3-9.7,23.8c2.7-11.9,11.5-17.7,20.8-23
		c-8.7,7.4-16.9,15.1-14.6,27.1C-561.3,261.7-573.1,261.8-585.4,260.9L-585.4,260.9z"/>
</g>
<g transform="matrix(.7928 .036792 -.036792 .7928 981.6 93.19)">
	<path style="fill:none;stroke:#000000;stroke-miterlimit:10;" d="M-697.9,260.5c0-13.5,7.4-17.6,13.5-25.5c-8,5-10.2,3.6-18.5,20.2
		c-2.6-7-0.9-12.8,2.6-22.2c-4.6,4.9-8.4,9.8-9.7,19.8c-1.5-10-2.8-18.4-6.9-18.9c0,0,3.8,11.1-0.6,19.5c-2.8-9.3-2-14.4-11.2-19.2
		c5.5,6.3,5.7,9.7,3.4,21.3c-2.9-11.8-11.3-17.4-20.2-22.4c8.4,7.2,16.3,14.6,14.5,26.7C-720.5,261.9-709.4,261.7-697.9,260.5
		L-697.9,260.5z"/>
	<path style="fill:none;stroke:#000000;stroke-miterlimit:10;" d="M-729.9,264.4c-0.4-13.5-14.6-20.5-21.4-28.2
		c8.7,4.8,17.2,6.4,26.5,22.7c-0.4-12.3-4.5-17.1-7.3-24.4c5.1,4.8,9.7,11.4,14.7,21.8c1.3-10,6.9-18.6,11.2-19.2
		c0,0-8.1,11.3-3.2,19.6c2.7-9.4,8.4-16.9,18.1-21.9c-5.7,6.5-12.5,12.3-9.7,23.8c2.7-11.9,11.5-17.7,20.8-23
		c-8.7,7.4-16.9,15.1-14.6,27.1C-705.8,265.1-717.6,265.2-729.9,264.4L-729.9,264.4z"/>
</g>
<g transform="translate(-66.256 -6.9017)">
	<path style="fill:none;stroke:#000000;stroke-miterlimit:10;" d="M267.2,416.7c0-1-6.4-0.4-6.4-1.2c0-0.5,5.4-0.1,5.5-1
		c0.1-0.8-15.8,0.2-14.6-0.6c0.6-0.4,7.6-0.4,7.6-0.8c4.5-1.9-56.3-2.5-57.8-0.2c-0.4,0.6,3.7,0.4,3.8,1c0.1,0.8-10.3,0.3-10.4,1.1
		c0,0.7,8.8,0.3,7.9,0.9c-0.6,0.4-5.8-0.2-5.8,0.9C196,419.8,267.2,419.9,267.2,416.7L267.2,416.7z"/>
	<path style="fill:none;stroke:#000000;stroke-miterlimit:10;" d="M218.8,413.4c0.1-8.3-8.4-13.1-12.4-18
		c5.2,3.2,10.4,4.4,15.7,14.8c0.1-7.6-2.3-10.7-3.8-15.3c3,3.1,5.6,7.3,8.5,13.9c1.1-6.2,4.8-11.3,7.5-11.5c0,0-5.3,6.8-2.5,12
		c1.9-5.7,5.7-10.2,11.8-13c-3.7,3.8-8.1,7.2-6.7,14.4c2-7.3,7.6-10.6,13.5-13.6c-5.6,4.3-10.9,8.8-9.8,16.3
		C233.7,414.6,226.4,414.3,218.8,413.4L218.8,413.4z"/>
</g>
<g transform="translate(377.39 -60.006)">
	<path style="fill:none;stroke:#000000;stroke-miterlimit:10;" d="M69.5,395.5c0-1-6.4-0.4-6.4-1.2c0-0.5,5.4-0.1,5.5-1
		c0.1-0.8-15.8,0.2-14.6-0.6c0.6-0.4,7.6-0.4,7.6-0.8c4.5-1.9-56.3-2.5-57.8-0.2c-0.4,0.6,3.7,0.4,3.8,1c0.1,0.8-10.3,0.3-10.4,1.1
		c0,0.7,8.8,0.3,7.9,0.9c-0.6,0.4-5.8-0.2-5.8,0.9C-1.7,398.6,69.5,398.7,69.5,395.5L69.5,395.5z"/>
	<path style="fill:none;stroke:#000000;stroke-miterlimit:10;" d="M21.1,392.2c0.1-8.3-8.4-13.1-12.4-18c5.2,3.2,10.4,4.4,15.7,14.8
		c0.1-7.6-2.3-10.7-3.8-15.3c3,3.1,5.6,7.3,8.5,13.9c1.1-6.2,4.8-11.3,7.5-11.5c0,0-5.3,6.8-2.5,12c1.9-5.7,5.7-10.2,11.8-13
		c-3.7,3.8-8.1,7.2-6.7,14.4c2-7.3,7.6-10.6,13.5-13.6c-5.6,4.3-10.9,8.8-9.8,16.3C36,393.4,28.7,393.1,21.1,392.2L21.1,392.2z"/>
</g>
<g transform="translate(-343.14 -43.442)">
	<path style="fill:none;stroke:#000000;stroke-miterlimit:10;" d="M424.4,422.5c0-1-6.4-0.4-6.4-1.2c0-0.5,5.4-0.1,5.5-1
		c0.1-0.8-15.8,0.2-14.6-0.6c0.6-0.4,7.6-0.4,7.6-0.8c4.5-1.9-56.3-2.5-57.8-0.2c-0.4,0.6,3.7,0.4,3.8,1c0.1,0.8-10.3,0.3-10.4,1.1
		c0,0.7,8.8,0.3,7.9,0.9c-0.6,0.4-5.8-0.2-5.8,0.9C353.2,425.6,424.4,425.7,424.4,422.5L424.4,422.5z"/>
	<path style="fill:none;stroke:#000000;stroke-miterlimit:10;" d="M376,419.2c0.1-8.3-8.4-13.1-12.4-18c5.2,3.2,10.4,4.4,15.7,14.8
		c0.1-7.6-2.3-10.7-3.8-15.3c3,3.1,5.6,7.3,8.5,13.9c1.1-6.2,4.8-11.3,7.5-11.5c0,0-5.3,6.8-2.5,12c1.9-5.7,5.7-10.2,11.8-13
		c-3.7,3.8-8.1,7.2-6.7,14.4c2-7.3,7.6-10.6,13.5-13.6c-5.6,4.3-10.9,8.8-9.8,16.3C390.9,420.4,383.6,420.1,376,419.2L376,419.2z"/>
</g>
<g transform="matrix(.73797 0 0 .73797 -110.56 77.251)">
	<path style="fill:none;stroke:#000000;stroke-miterlimit:10;" d="M458.1,385.7c0-1-6.4-0.4-6.4-1.2c0-0.5,5.4-0.1,5.5-1
		c0.1-0.8-15.8,0.2-14.6-0.6c0.6-0.4,7.6-0.4,7.6-0.8c4.5-1.9-56.3-2.5-57.8-0.2c-0.4,0.6,3.7,0.4,3.8,1c0.1,0.8-10.3,0.3-10.4,1.1
		c0,0.7,8.8,0.3,7.9,0.9c-0.6,0.4-5.8-0.2-5.8,0.9C387,388.8,458.1,388.9,458.1,385.7L458.1,385.7z"/>
	<path style="fill:none;stroke:#000000;stroke-miterlimit:10;" d="M409.8,382.4c0.1-8.3-8.4-13.1-12.4-18
		c5.2,3.2,10.4,4.4,15.7,14.8c0.1-7.6-2.3-10.7-3.8-15.3c3,3.1,5.6,7.3,8.5,13.9c1.1-6.2,4.8-11.3,7.5-11.5c0,0-5.3,6.8-2.5,12
		c1.9-5.7,5.7-10.2,11.8-13c-3.7,3.8-8.1,7.2-6.7,14.4c2-7.3,7.6-10.6,13.5-13.6c-5.6,4.3-10.9,8.8-9.8,16.3
		C424.7,383.6,417.3,383.3,409.8,382.4L409.8,382.4z"/>
</g>
<g transform="matrix(.73797 0 0 .73797 531.3 46.884)">
	<path style="fill:none;stroke:#000000;stroke-miterlimit:10;" d="M-112.7,345.7c0-1-6.4-0.4-6.4-1.2c0-0.5,5.4-0.1,5.5-1
		c0.1-0.8-15.8,0.2-14.6-0.6c0.6-0.4,7.6-0.4,7.6-0.8c4.5-1.9-56.3-2.5-57.8-0.2c-0.4,0.6,3.7,0.4,3.8,1c0.1,0.8-10.3,0.3-10.4,1.1
		c0,0.7,8.8,0.3,7.9,0.9c-0.6,0.4-5.8-0.2-5.8,0.9C-183.8,348.8-112.7,348.9-112.7,345.7L-112.7,345.7z"/>
	<path style="fill:none;stroke:#000000;stroke-miterlimit:10;" d="M-161,342.4c0.1-8.3-8.4-13.1-12.4-18c5.2,3.2,10.4,4.4,15.7,14.8
		c0.1-7.6-2.3-10.7-3.8-15.3c3,3.1,5.6,7.3,8.5,13.9c1.1-6.2,4.8-11.3,7.5-11.5c0,0-5.3,6.8-2.5,12c1.9-5.7,5.7-10.2,11.8-13
		c-3.7,3.8-8.1,7.2-6.7,14.4c2-7.3,7.6-10.6,13.5-13.6c-5.6,4.3-10.9,8.8-9.8,16.3C-146.1,343.6-153.5,343.3-161,342.4L-161,342.4z"
		/>
</g>
<g transform="matrix(.76418 0 0 .76418 165.58 -30.613)">
	<path style="fill:none;stroke:#000000;stroke-miterlimit:10;" d="M132.4,440.2c0-1-6.4-0.4-6.4-1.2c0-0.5,5.4-0.1,5.5-1
		c0.1-0.8-15.8,0.2-14.6-0.6c0.6-0.4,7.6-0.4,7.6-0.8c4.5-1.9-56.3-2.5-57.8-0.2c-0.4,0.6,3.7,0.4,3.8,1c0.1,0.8-10.3,0.3-10.4,1.1
		c0,0.7,8.8,0.3,7.9,0.9c-0.6,0.4-5.8-0.2-5.8,0.9C61.2,443.3,132.4,443.4,132.4,440.2L132.4,440.2z"/>
	<path style="fill:none;stroke:#000000;stroke-miterlimit:10;" d="M84,436.9c0.1-8.3-8.4-13.1-12.4-18c5.2,3.2,10.4,4.4,15.7,14.8
		c0.1-7.6-2.3-10.7-3.8-15.3c3,3.1,5.6,7.3,8.5,13.9c1.1-6.2,4.8-11.3,7.5-11.5c0,0-5.3,6.8-2.5,12c1.9-5.7,5.7-10.2,11.8-13
		c-3.7,3.8-8.1,7.2-6.7,14.4c2-7.3,7.6-10.6,13.5-13.6c-5.6,4.3-10.9,8.8-9.8,16.3C98.9,438.1,91.6,437.8,84,436.9L84,436.9z"/>
</g>
<g transform="matrix(.68557 0 0 .68557 340.67 94.212)">
	<path style="fill:none;stroke:#000000;stroke-miterlimit:10;" d="M9.4,310.6c0-1-6.4-0.4-6.4-1.2c0-0.5,5.4-0.1,5.5-1
		c0.1-0.8-15.8,0.2-14.6-0.6c0.6-0.4,7.6-0.4,7.6-0.8c4.5-1.9-56.3-2.5-57.8-0.2c-0.4,0.6,3.7,0.4,3.8,1c0.1,0.8-10.3,0.3-10.4,1.1
		c0,0.7,8.8,0.3,7.9,0.9c-0.6,0.4-5.8-0.2-5.8,0.9C-61.8,313.7,9.4,313.8,9.4,310.6L9.4,310.6z"/>
	<path style="fill:none;stroke:#000000;stroke-miterlimit:10;" d="M-39,307.4c0.1-8.3-8.4-13.1-12.4-18c5.2,3.2,10.4,4.4,15.7,14.8
		c0.1-7.6-2.3-10.7-3.8-15.3c3,3.1,5.6,7.3,8.5,13.9c1.1-6.2,4.8-11.3,7.5-11.5c0,0-5.3,6.8-2.5,12c1.9-5.7,5.7-10.2,11.8-13
		c-3.7,3.8-8.1,7.2-6.7,14.4c2-7.3,7.6-10.6,13.5-13.6c-5.6,4.3-10.9,8.8-9.8,16.3C-24.1,308.5-31.4,308.2-39,307.4L-39,307.4z"/>
</g>
<g transform="matrix(.73797 0 0 .73797 -223.76 37.222)">
	<path style="fill:none;stroke:#000000;stroke-miterlimit:10;" d="M442.4,352.8c0-1-6.4-0.4-6.4-1.2c0-0.5,5.4-0.1,5.5-1
		c0.1-0.8-15.8,0.2-14.6-0.6c0.6-0.4,7.6-0.4,7.6-0.8c4.5-1.9-56.3-2.5-57.8-0.2c-0.4,0.6,3.7,0.4,3.8,1c0.1,0.8-10.3,0.3-10.4,1.1
		c0,0.7,8.8,0.3,7.9,0.9c-0.6,0.4-5.8-0.2-5.8,0.9C371.3,355.9,442.4,356,442.4,352.8L442.4,352.8z"/>
	<path style="fill:none;stroke:#000000;stroke-miterlimit:10;" d="M394.1,349.5c0.1-8.3-8.4-13.1-12.4-18
		c5.2,3.2,10.4,4.4,15.7,14.8c0.1-7.6-2.3-10.7-3.8-15.3c3,3.1,5.6,7.3,8.5,13.9c1.1-6.2,4.8-11.3,7.5-11.5c0,0-5.3,6.8-2.5,12
		c1.9-5.7,5.7-10.2,11.8-13c-3.7,3.8-8.1,7.2-6.7,14.4c2-7.3,7.6-10.6,13.5-13.6c-5.6,4.3-10.9,8.8-9.8,16.3
		C409,350.7,401.6,350.4,394.1,349.5L394.1,349.5z"/>
</g>
<g transform="translate(265.59 9.0106)">
	<path style="fill:none;stroke:#000000;stroke-miterlimit:10;" d="M130.1,358.1c0-1-6.4-0.4-6.4-1.2c0-0.5,5.4-0.1,5.5-1
		c0.1-0.8-15.8,0.2-14.6-0.6c0.6-0.4,7.6-0.4,7.6-0.8c4.5-1.9-56.3-2.5-57.8-0.2c-0.4,0.6,3.7,0.4,3.8,1c0.1,0.8-10.3,0.3-10.4,1.1
		c0,0.7,8.8,0.3,7.9,0.9c-0.6,0.4-5.8-0.2-5.8,0.9C59,361.1,130.1,361.2,130.1,358.1L130.1,358.1z"/>
	<path style="fill:none;stroke:#000000;stroke-miterlimit:10;" d="M81.8,354.8c0.1-8.3-8.4-13.1-12.4-18c5.2,3.2,10.4,4.4,15.7,14.8
		c0.1-7.6-2.3-10.7-3.8-15.3c3,3.1,5.6,7.3,8.5,13.9c1.1-6.2,4.8-11.3,7.5-11.5c0,0-5.3,6.8-2.5,12c1.9-5.7,5.7-10.2,11.8-13
		c-3.7,3.8-8.1,7.2-6.7,14.4c2-7.3,7.6-10.6,13.5-13.6c-5.6,4.3-10.9,8.8-9.8,16.3C96.7,355.9,89.3,355.7,81.8,354.8L81.8,354.8z"/>
</g>
</svg>
