<?xml version="1.0" encoding="utf-8"?>
<!-- Generator: Adobe Illustrator 22.1.0, SVG Export Plug-In . SVG Version: 6.00 Build 0)  -->
<svg version="1.1" id="Layer_1" xmlns="http://www.w3.org/2000/svg" xmlns:xlink="http://www.w3.org/1999/xlink" x="0px" y="0px"
	 viewBox="0 0 512 512" style="enable-background:new 0 0 512 512;" xml:space="preserve">
<g transform="translate(-790.3 -1529.3)">
	<path style="fill:none;stroke:#000000;stroke-miterlimit:10;" d="M961.1,1544.3c-0.1,0-0.3,0.1-0.4,0.2l-0.1,0.2l-0.1,0.2
		c-6.6,11.5-11.8,22.4-15.8,32.6c-0.1,0-0.2,0-0.2,0.1l-0.2,0.2c-15.1,19.8-24.3,38.2-28.9,55.2l-0.2,0.2
		c-10.4,19.2-16.2,37-18.5,53.4c-0.2,0.1-0.3,0.2-0.4,0.4c0,0-0.1,0-0.1,0.1c-12.5,33.4-18,61.7-11.7,84.2c-0.3,0.1-0.5,0.4-0.5,0.8
		c-0.3,24.6,6.8,41.4,19.2,52.2c0,0.2-0.1,0.3,0,0.4c4,11.4,13.1,22.8,25.3,30.7c0,0.1,0,0.3,0,0.4c0,0,0,0,0,0.1
		c3.8,10.3,10.1,16.8,17.4,20.7l0.7,0.3c-0.1,0.2-0.1,0.4,0,0.5c3.3,8.2,12.7,15.8,24.1,20c0,0,0,0,0.1,0.1
		c7.7,6.4,15.3,10.2,22.7,12.1c-8.2,11.9-19.9,18.6-33.6,21.4c-14,2.9-30,1.8-46.2-1.8c-32.5-7.1-65.7-24.2-85.2-38.8
		c-0.1,0-0.1,0-0.2-0.1l-0.3-0.1c-0.2,0-0.4,0.2-0.5,0.4c-0.1,0.2-0.2,0.4-0.1,0.6c5,15.5,9.3,27.1,14.4,35.6
		c3.3,5.6,7,9.9,11.3,13.2c0,0.1,0,0.3,0,0.4c2.1,13.9,7.2,22.2,14.2,26.6c0.6,0.4,1.1,0.7,1.7,1c4.6,10.9,8.4,17.4,12.8,20.7
		c2.2,1.6,4.6,2.5,7.2,2.5c5.5,6.1,9.8,10.9,13,14.2c3.4,3.5,5.8,5.7,7.8,6.7c1,0.5,1.9,0.8,2.7,0.7c0.9-0.1,1.6-0.6,2.3-1.2
		c1.3-1.3,2.2-3.3,3.5-6c2.5-5.4,6.3-13.4,14.8-22.1s21.8-18.1,43.4-26.3h0.1c50.3,6.7,85.4-1.6,109.7-19.6
		c24.4-18.1,37.9-45.7,45.2-77.2c1.4-5.9,3.7-12.2,6.6-17.5c2.7-5,6-9.2,9.1-11.4c0.3,0.2,0.8,0.1,1-0.2l0.1-0.2l5.9-13.9
		c0.1-0.2,0.1-0.4,0-0.6l-0.2-0.2c-6.8-7.5-14.3-13.8-23.7-13.8c-4.3,0-7.9,1.8-11.3,4.6c-1.2,1-2.4,2.2-3.6,3.5
		c0-0.1,0-0.2-0.1-0.3c-10.8-31.6-21.6-65.8-21.2-102.6c0.5-36.8,12.2-76.2,46.7-118c0.1-0.2,0.2-0.5,0.2-0.7
		c-0.1-0.2-0.2-0.4-0.5-0.4c-0.1-0.1-0.3-0.1-0.5-0.1l-0.3,0.2c-30.8,25.2-60.9,51-80.8,82.3c-19.5,30.6-29.2,66.4-19.9,111.4
		c-10.6-11.6-21.9-23.3-32.7-36.3c-34.1-41-62.8-95.1-44.6-200.8c0-0.1,0.1-0.2,0.1-0.3l0.1-0.2c0-0.2-0.1-0.3-0.2-0.4
		S961.4,1544.3,961.1,1544.3L961.1,1544.3L961.1,1544.3z"/>
	<path style="fill:none;stroke:#000000;stroke-miterlimit:10;" d="M1082.6,1867.8c-6.2-105.4-158.2-111.2-121.4-323.3
		c-53.9,93.2-14.3,142.7,13.9,186"/>
	<path style="fill:none;stroke:#000000;stroke-miterlimit:10;" d="M944.9,1578.6c-69,90.4-13.6,152.1,34.3,182"/>
	<path style="fill:none;stroke:#000000;stroke-miterlimit:10;" d="M916,1633.1c-55,101.9,17.5,165.1,73.7,172.4"/>
	<path style="fill:none;stroke:#000000;stroke-miterlimit:10;" d="M897.1,1687.6c-29.6,78.8-20,129,91.9,138.8"/>
	<path style="fill:none;stroke:#000000;stroke-miterlimit:10;" d="M885,1771.4c-0.7,62,45,73.2,105.8,66.3"/>
	<path style="fill:none;stroke:#000000;stroke-miterlimit:10;" d="M904,1824.5c9.3,26.1,45.8,53.1,84.6,33.7"/>
	<path style="fill:none;stroke:#000000;stroke-miterlimit:10;" d="M971,1849.6c15,13.6,36.5,9.2,48.2,0.7"/>
	<path style="fill:none;stroke:#000000;stroke-miterlimit:10;" d="M991.4,1862.2c7.2,9.5,30.4,12.1,44.1-2.1"/>
	<path style="fill:none;stroke:#000000;stroke-miterlimit:10;" d="M1006.6,1870.6c-10.4,6.5-62.2,26.1-77.4-14.6"/>
	<path style="fill:none;stroke:#000000;stroke-miterlimit:10;" d="M947.4,1877.5c7.7,19.1,51.8,36.2,71.5,8.7"/>
	<path style="fill:none;stroke:#000000;stroke-miterlimit:10;" d="M1004.3,1878.9c7.8,7.4,26.7,12.2,40.9-7.6"/>
	<path style="fill:none;stroke:#000000;stroke-miterlimit:10;" d="M971.3,1897.1c33.5,28,66,6.6,72.5-14.6"/>
	<path style="fill:none;stroke:#000000;stroke-miterlimit:10;" d="M994.6,1909.7c-33.2,49.9-127.3,10.9-166.5-18.4
		c19.9,62.1,29.7,59.9,112.1,53.8"/>
	<path style="fill:none;stroke:#000000;stroke-miterlimit:10;" d="M853.7,1940.4c8.3,54.9,63.6,20.5,93,9.4"/>
	<path style="fill:none;stroke:#000000;stroke-miterlimit:10;" d="M869.6,1966.9c18.2,43.7,24.9,15.8,88.5-11.4"/>
	<path style="fill:none;stroke:#000000;stroke-miterlimit:10;" d="M888.7,1989.3c47.1,52.6,0.4-0.5,87.4-33.3
		c100.8,13.6,139.9-33.5,154.6-96.3c2.8-12,9.6-25.2,16.5-29.6"/>
	<path style="fill:none;stroke:#000000;stroke-miterlimit:10;" d="M1008.1,1948.2c0,0,13-3.4,16.7-2.8c2.6,0.4,2.3,7.1-0.3,10.1
		c-2.7,2.9-9.1,2.8-10.4,1.7s6.5-4.4,5.2-5.9s-10.4,0-10.4,0L1008.1,1948.2L1008.1,1948.2z"/>
	<path style="fill:none;stroke:#000000;stroke-miterlimit:10;" d="M1038.3,1954.1c0,0,10.3-2.6,14.2-0.9c2,0.9,1.9,6.6,1.6,8.2
		c-0.9,3.9-8,7.5-9.2,6.6s5.8-7.7,4.3-10.1s-10.1,0.5-10.1,0.5L1038.3,1954.1L1038.3,1954.1z"/>
	<path style="fill:none;stroke:#000000;stroke-miterlimit:10;" d="M1040.3,1800.7c21.8,25.9,44,51.8,24.3,77.7"/>
	<path style="fill:none;stroke:#000000;stroke-miterlimit:10;" d="M1040.3,1785.4c-20.4-92.2,38.3-145.4,99.9-195.7
		c-69.3,83.9-47.3,158.2-25.7,221.3"/>
	<path style="fill:none;stroke:#000000;stroke-miterlimit:10;" d="M1078.1,1845.4c30.3-14.8,35.6-41.6,52-41.6
		c9.1,0,16.5,6.1,23.2,13.5l-5.9,13.9"/>
	<path style="fill:none;stroke:#000000;stroke-miterlimit:10;" d="M1139.1,1817.8c0,1.5-1.2,2.7-2.7,2.7s-2.7-1.2-2.7-2.7
		s1.2-2.7,2.7-2.7S1139.1,1816.3,1139.1,1817.8z"/>
	<path style="fill:none;stroke:#000000;stroke-miterlimit:10;" d="M1155.5,1820c6.8,3.1,13.4,7.6,12.5,10.6
		c-6-2.4-15.2-2.6-20.3,0.2c2.3-4.7,3.6-10.2,4-16.3C1153.9,1814.2,1156.3,1816.7,1155.5,1820L1155.5,1820z"/>
</g>
</svg>
