<?xml version="1.0" encoding="utf-8"?>
<!-- Generator: Adobe Illustrator 17.0.0, SVG Export Plug-In . SVG Version: 6.00 Build 0)  -->
<!DOCTYPE svg PUBLIC "-//W3C//DTD SVG 1.1//EN" "http://www.w3.org/Graphics/SVG/1.1/DTD/svg11.dtd" [
	<!ENTITY ns_flows "http://ns.adobe.com/Flows/1.0/">
	<!ENTITY ns_extend "http://ns.adobe.com/Extensibility/1.0/">
	<!ENTITY ns_ai "http://ns.adobe.com/AdobeIllustrator/10.0/">
	<!ENTITY ns_graphs "http://ns.adobe.com/Graphs/1.0/">
]>
<svg version="1.1" id="Layer_1" xmlns:x="&ns_extend;" xmlns:i="&ns_ai;" xmlns:graph="&ns_graphs;"
	 xmlns="http://www.w3.org/2000/svg" xmlns:xlink="http://www.w3.org/1999/xlink" xmlns:a="http://ns.adobe.com/AdobeSVGViewerExtensions/3.0/"
	 x="0px" y="0px" width="256px" height="256px" viewBox="0 0 256 256" style="enable-background:new 0 0 256 256;"
	 xml:space="preserve">
<g transform="translate(0.000000,1280.000000) scale(0.100000,-0.100000)">
	<path style="fill:none;stroke:#000000;stroke-width:2;stroke-miterlimit:10;" d="M661,12798.6c-38.4-6.4-86.4-40.4-103.2-73
		c-8.4-16.2-5.6-26.6,12.2-45.6c3.6-3.8,9.2-10.8,12.6-15.4l6-8.6l3.4,5.6c8.6,13.2,26.4,33,39,43.4c41.8,34.2,85.8,45.2,121.8,30.4
		c7-3,13.2-5.2,13.4-4.8c1.4,1.2-4.8,20.8-9,29c-9.6,18.8-31.2,34-54,38.4C692.6,12800,671,12800.2,661,12798.6z"/>
	<path style="fill:none;stroke:#000000;stroke-width:2;stroke-miterlimit:10;" d="M740,12654c-39.8-4.2-43.2-5.8-70.4-33.2
		c-11.2-11.2-24.6-23.4-29.8-26.8c-13.6-9.4-17-20-20.8-63c-1-12.2-3.2-26.4-4.8-31.6l-2.8-9.4l5.2,4c17.4,13.6,22.8,17,34.8,23.2
		c26.2,13.2,54.2,23.4,91.2,33c19.6,5,60,7.2,72.2,3.8c10.6-2.8,21.8-13.2,23.4-21.8c0.8-3.4,2.6-6.2,4-6.2c3.4,0,3.6,17.8,0.8,46
		c-6.2,58.6-22.2,80-63,84.6C775.6,12657,757.6,12655.8,740,12654z"/>
	<path style="fill:none;stroke:#000000;stroke-width:2;stroke-miterlimit:10;" d="M1657.8,12654.2c-12.4-5.6-21.6-15-27.8-28
		l-5.6-11.6l-8.8,6.6c-22.2,16.8-66.6,28-120.6,30c-39.6,1.6-59.4-2.4-90.6-18.4c-12.4-6.2-28.2-15.4-35.4-20.4
		c-19.6-14-46.2-40.4-69-69c-17.8-22.2-23.6-31.4-40.6-65c-22.6-44.2-31-66.6-35.6-93.2c-1.8-10-3.6-18.8-4.2-19.6
		c-0.4-1-0.4-1.6,0.2-1.6s4,5.6,7.4,12.6c28,55.8,93.2,123.6,150.8,156.8c39.8,23,50.6,26.8,87,30.6c11.6,1,28.4,3.8,37.6,6
		c9.2,2.2,22.6,4,30,4c17.2,0,62.4-8.8,73.8-14.2c12.6-6,30.8-28.4,35.4-43.4c1.4-4.4,1.4-4.4-6.2,0.8c-14.6,10-37.8,19-69.6,27
		c-20.8,5.4-73.2,7.4-93.8,3.8c-20.2-3.6-47-12.6-65-22c-44-23-77.2-58-129.6-137c-49-74-72.4-130.6-72.6-176.4c0-11.2,5.2-12,7.2-1
		c3.2,17.4,13,33.6,35.6,59.2c26.4,29.4,39.2,45.4,43.6,53.8c2.4,5,22.4,26.6,49.4,53.4c53.2,53,59.2,57.2,88.6,60.2
		c10.2,1,28.4,4.2,40.6,7c58.8,13.6,76.6,13.8,104,1.8c7.2-3.2,19.2-6,35.2-8c28.4-3.4,37.6-7,56.2-22.2
		c16.6-13.8,33.6-33.6,33.6-39.6c0-0.6-6.6,2.4-14.4,6.8c-29.2,15.6-63.6,22.6-108.6,22.6c-52.8,0-91.2-9.8-123-31.2
		c-25-17-47.6-41.4-63-68.6c-10.2-17.8-13.4-27.8-17.8-55.8c-6.6-40.2-11.8-54.4-23.4-63.6c-10.6-8.4-5.4-9.6,13.6-3
		c27,9.2,40.2,16.2,57.8,31c19,16,24.2,22,38.6,44.2c5.8,9,11.2,16.4,12,16.4c0.6,0,5.6,3.6,10.8,7.8c5.2,4.4,17.2,12,26.8,17.2
		c9.8,5.2,20,11.6,23,14c15.6,13,87,10.6,117-4c5.6-2.8,18-12.4,27.4-21c15.8-14.6,16.8-16,11.6-16c-3-0.2-21.2,0-40.4,0
		c-36.2,0.2-65.2-3-83.6-9.4c-13.8-4.6-55.4-25.8-70.4-35.6c-7.2-4.8-18.6-14.4-25.4-21.4c-16.2-17-17.8-24.2-15.4-69.2
		c1.6-30.6,1.2-37.8-2.4-32.2c-2.4,4-27.4,19-38.8,23.4c-78.4,29.8-95.4,35-123,37.6c-7.6,0.6-23.4,3-35,5.2
		c-11.8,2.2-34.2,4.4-51,5l-30.2,1.2l-17.2-7.6c-16.6-7-17.4-7.6-21.6-17.4c-6.8-16-6-33.6,3-61.4c13.2-40.4,35.6-90,47.4-105.6
		c14-18.2,37.6-40.4,48.6-46c10.4-5.4,18.8-12,39.8-30.8c8.4-7.6,19.4-14.6,33.4-21.2c11.4-5.6,23.6-12.4,27-15.2l6.2-5.4l12.2,14.8
		c6.6,8,12.6,16.4,13.2,18.8c1.6,5-2.4,13.4-9.2,19.8c-6.4,6-27.8,15.6-48,21.4c-19.8,5.6-26.4,9.2-51.6,28
		c-48.2,36-69.8,64.6-83,110.4c-3.6,12.6-5,22-5,34.8c0,24.8,0,25,31.8,23.2c39.8-2,67.6-9.2,104-26.4c36.2-17,64.2-39.2,74-58.4
		c4.2-8.4,5.8-27.2,2.6-29.2c-1-0.6-5,3-9,7.8c-16,19-58.6,46-90.4,57.2c-7,2.4-19.2,4.6-29,5.2c-14.6,0.8-17.8,0.4-23.4-3.2
		c-10.2-6.4-13.2-14.4-12.2-32.2c1-17.6,7-30.4,17.6-38c8.4-6,51.2-22,58.8-22c3.2,0,15.8,1,27.6,2.4c25.4,2.8,25.4,2.8,28.8-14
		c1.4-6.2,7.2-21,12.8-32.8c12.2-25,8-26.4,34,11.4c29.2,42.2,35.8,50.6,48.6,59.8c6.8,4.8,16,12.6,20.4,17.2
		c9.8,10.2,22.6,19.4,29.6,21.2c7.4,1.8,6.6,5-2.2,10.2c-4.4,2.4-14.2,9.6-22.2,15.8l-14.4,11.4l15.2,14.6
		c19,17.8,29.2,23.4,71,37.8c36.6,12.6,65.6,19.8,93.6,23.2c22.8,2.8,35,0.2,64.4-13.6c16.4-7.6,21.6-11.4,38-27.4
		c20.4-20,31.8-27.2,42.8-27.2c7.4,0,9,1.6,17,16c1.8,3.2,8.6,13.8,15.2,23.8c6.6,10,17,26.8,23,37.4c17.8,31.2,37.8,45.8,77.6,56.2
		c23.8,6.2,65.4,8.4,87.4,4.6c18.4-3.2,40.4-11.8,59-22.8c8.2-5,15.2-8.8,15.4-8.6c0.2,0.4-0.8,6.8-2.4,14.4
		c-5.8,27-21.8,54.2-44.6,75.4c-23.6,21.8-45,27.8-99.4,28.4c-22.2,0-38.2-0.8-46-2.4c-17.8-4-39.2-15-47.8-24.4s-8.8-8.2-4,15.6
		c4.4,22.4,16.4,45.8,30.6,60.4c20.2,20.6,44.6,28.4,74.6,24c30.8-4.4,59.4-17.8,85.2-39.4c6.8-6,12.4-10.4,12.4-9.8
		c0,0.4-2.4,6-5.4,12.4c-25,55.4-75.8,90.8-134.6,94c-16.6,1-21.2,0.4-37-4.2c-47-13.8-85.4-40.2-98-67.2l-4.6-10.2l-1.2,7.8
		c-1.4,8.8,2.6,26.4,9,39.2c23.4,46,39,60.8,75.4,71.4c30.2,8.6,58.2,12.8,74.2,11.2c7.2-0.8,14.6-1.4,16.2-1.4
		c14.4-0.6,28-10.8,28-21c0-3.2,1.2-4.8,3.2-4.8c2.8,0,3.2,1.6,2.2,10.8c-1.8,17-8.4,29.8-22.2,42.8c-18.2,16.8-37.8,25.6-70.4,31.2
		c-68.4,12-141.4-12.2-161-53.4l-5.4-11.6l-1.4,13.4c-1.8,16.4-0.2,39,3.2,45.2c1.4,2.6,3.2,8.6,3.8,13.6c1,8,2,9.4,12.8,17l12,8
		l27-0.2c27.4-0.4,35.4-1.6,86.6-12.4c15-3.4,27.8-5.4,28.4-4.8c2.8,2.6,0.6,4.2-9.2,7.6c-5.8,1.8-22.8,9.2-37.6,16.4
		c-80.2,38.2-110.6,48.4-143.6,48.4C1670.8,12658,1663.8,12656.8,1657.8,12654.2z M1245,12432c-7.4-15.6-10.4-18-3.8-2.8
		c2.2,5.4,5,12,6,14.6c1,2.6,2.4,4.2,3,3.6C1251,12446.8,1248.4,12439.8,1245,12432z"/>
	<path style="fill:none;stroke:#000000;stroke-width:2;stroke-miterlimit:10;" d="M585,12419.2c-25.8-5.8-46.6-22.6-83-67.2
		c-11.2-13.8-21.8-26.2-23.8-27.8c-1.8-1.6-5.2-5.2-7.2-8.2l-4-5.6l14.6,5.6c39.4,15.4,100.4,10.6,143.4-11
		c17-8.6,32.6-20.4,42.2-32c6.8-8.2,7.8-10.8,7.8-19.2c0-5.4,0.8-9.8,1.6-9.8c1,0,17.6,16,36.6,35.6c27.6,28,36.4,38.2,41.4,48.2
		c9.6,19.2,9.2,20.4-12.2,41.4c-27.8,27.6-50.8,41-82.4,48C641.2,12421.4,599.2,12422.6,585,12419.2z"/>
	<path style="fill:none;stroke:#000000;stroke-width:2;stroke-miterlimit:10;" d="M1160,12349.6c-12.4-6.4-38.4-34.2-55-58.6
		c-8-12-18-26.2-22-31.2c-23.2-29.6-57.4-106.8-67.6-152.8c-8.6-38.6-9.4-44.6-9.4-75c0-36.6,2.8-49.6,25-117
		c7.6-23,15.6-49.2,18-58c5.2-19,8.6-26,16-34c6.6-7,11-17.6,13.8-33.4c1.2-6.4,3.4-13.6,5-16c3.4-5.2,14-44.4,17.2-63.8
		c2.2-12.6,2.2-13.4-2.8-20.8c-18.2-26.8-28-104.6-20.4-162c5.2-39.2,13.4-67.4,30-102.2c35.6-74.2,94.4-128.2,164-150.6
		c7.4-2.4,14-4,14.4-3.8c1.8,2-36.6,55.4-52.8,73.6c-25.4,28.6-34.8,43.4-61.2,97c-28.4,57.2-31.8,65.4-39.6,94.6
		c-5.8,21.4-6.4,26-6.4,54.4c0,35.4,0.8,39.2,18.8,97c15.2,48.8,18.8,66.8,17.6,88.6c-0.8,16.6-1.2,17.6-18.2,51.2
		c-11.6,23.2-17.6,37.4-18.4,44.2c-2,14.8-9.4,35.6-24.2,67.2c-16.8,36.2-19.2,48.2-19.6,98.8c-0.2,47.8,1.6,57.8,23.8,124
		c9.2,27.6,20,63,24,78.8s9.4,34.2,12.2,40.6c2.8,6.6,8.6,21.8,12.8,34c4.4,12.2,10.2,25.2,13,29c3,3.6,4.6,7.6,4,8.6
		C1170.4,12354.6,1169.2,12354.4,1160,12349.6z M1120.6,11874c0-1.8-0.6-1.4-1.6,1c-1,2.2-1.6,5.8-1.6,8c0,3.2,0.4,3,1.6-1
		C1119.8,11879.2,1120.6,11875.6,1120.6,11874z"/>
	<path style="fill:none;stroke:#000000;stroke-width:2;stroke-miterlimit:10;" d="M2289,12294.6c-17.4-2-52.2-8.8-64-12.6
		c-7.2-2.4-17.4-7.2-23-10.8c-31-20.2-60.4-35.2-69.4-35.2c-3,0-41.8-23.4-59.6-35.8c-22-15.2-56-43.8-56-46.8c0-0.6,9.4-6,21-12.2
		c25.2-13.2,65.2-38.2,82-50.8c34.4-26.2,77-75.6,77-89.6c0.2-9.2,3-9.6,15.2-1.8c43.6,27.4,93.4,101.2,110.8,164
		c2.8,10.6,8,69.4,7.8,92c0,10-1.2,23-2.6,29l-2.4,11l-15,0.2C2302.6,12295.4,2292.8,12295,2289,12294.6z M2271,12238.6
		c12.4-8.4,17.8-21,18-40.8c0-12.8-1.2-18-8-35.6c-17.8-45.6-44.8-85-61.4-89.2c-11.4-2.8-21.4,12-21.6,32c0,23,8,31.4,37.8,39
		c19,4.8,27.8,10,34.8,20.4c10,15.4,5.6,39.2-9.4,49c-14,9.4-36.4,3.6-54.6-14c-4.6-4.6-18.8-19.4-31-32.8
		c-23.2-25-36.2-34.2-44.6-31.6c-4.6,1.4-7,8.8-5.2,15.8c3.2,13.2,31,46.6,51.8,62.6C2205,12234.6,2256.6,12248.4,2271,12238.6z
		 M2292.2,12224.8c1.6-3.6,2.8-9.6,2.6-13.2c-0.2-6-0.4-5.8-2,2.2c-1,4.8-3,10.8-4.8,13.4c-3.6,5.4-3.8,7.6-0.8,5.6
		C2288.4,12232.2,2290.6,12228.6,2292.2,12224.8z"/>
	<path style="fill:none;stroke:#000000;stroke-width:2;stroke-miterlimit:10;" d="M405.6,12231c-13.8-4.4-21.6-11-62.4-53.4
		c-28.2-29.4-41-44.2-45.6-53c-3.6-6.6-6.6-12.8-6.6-13.6c0-2,10,0.2,21.8,4.8c18,7.2,37.8,10.6,64.2,11c42,0.4,58.8-5,92-29.8
		c37.4-28,43.2-29.8,58.4-18c5,3.8,16.2,15.6,24.8,26.4c8.4,10.8,19.4,24.4,24.2,30.4c4.8,5.8,8.6,11.2,8.6,12s-2.8,4-6.2,7.4
		c-3.4,3.2-12,13.6-19,23c-16.4,22.2-25,29.8-45,39.8c-24.6,12.6-41.2,16-73.6,15.8C424.8,12233.6,410.6,12232.6,405.6,12231z"/>
	<path style="fill:none;stroke:#000000;stroke-width:2;stroke-miterlimit:10;" d="M1912,12155c-45.4-3.6-51.6-5.8-78.8-28.4
		c-9.2-7.4-23.2-26.6-31.2-42.6c-7.8-15.6-19.6-51.6-23.2-71l-2.6-14l-3.4,18c-2,10-7.4,33.8-12.2,53l-8.4,35.2l-11.4,5.4
		c-58.2,28-121.8,29.2-148.4,2.6c-3.4-3.6-8.8-10.2-11.8-14.8c-6.2-9.4-12.4-13-46.6-26.6c-25.4-10.2-23.4-8.8-47.6-36.6
		c-5.4-6-20.2-19-33-28.6c-12.8-9.6-30.2-24.2-38.4-32.2c-16-15.6-15.8-15.8,3-4.2c6.6,4,22.8,11.2,36,15.8
		c13,4.6,31.6,12.4,41.4,17.2c18,9.2,32,14.8,37,14.8c1.6,0-3-7-10.2-16c-7.2-8.8-14.6-18.8-16.4-22.4c-4.8-9.4-10.8-32.4-10.8-42
		c0-10.6,7.4-26.6,15.8-34.6c6-5.6,7.6-6,23.4-6.4c9.4-0.2,16.8,0.4,16.4,1c-11.2,21-15,38.8-11.6,54c2.8,12.4,11.2,23.2,20.6,26
		c6.8,2.2,25.4,4.8,25.4,3.6c0-0.4-4.4-9-9.8-19.4c-20.6-38.8-25-76.6-12.2-102c9-17.4,30.8-30.2,52.2-30.6
		c11.2-0.2,14.4,0.6,21.4,5.4c4.6,3,9.6,5.4,11.4,5.4c1.6,0,13.8-10.2,26.8-22.8c13-12.6,25.6-23.8,27.8-25c3.8-2,3.8-2.6,1-11.6
		c-2-6.8-3.4-25-4.6-61c-0.8-28.2-2.2-52.2-2.8-53.4c-2.2-3.4,0.2-2.6,8.4,2.6c20.4,12.8,42.4,16,103,14.8c26-0.6,47.4-0.6,47.4-0.4
		c0,0.4-2.2,5.8-5,12c-11.2,25.2-16.2,50.2-18,89.8c-1.2,26-1.2,26,4.8,38c3.4,6.6,8.6,15,11.6,18.8l5.8,6.6l9.4-4.2
		c10.6-4.8,12.4-4.4,26.4,6.8c4.4,3.4,13.8,9.8,20.8,14c36.2,21.6,58.8,53.8,55.4,78.6c-2.8,21-18.2,42.8-37.4,53.2
		c-8.8,5-11.8,5.6-23,4.8c-7-0.4-12.8-0.2-12.8,0.6c0,4.6,11.4,14,20.2,16.6c8.6,2.6,11,2.6,20.4-0.2c25.4-7.4,69-35.8,73.6-48
		c3-8.2,2-24.2-2-32.2c-6-11.8-19.4-25.6-32.2-33.4c-6.6-4-12-7.6-12-8s12-0.8,26.6-0.8c54.6-0.6,76.6,6.2,105.4,32.6
		c5,4.6,11.8,9.6,15.4,11c5.8,2.4,7.2,2.2,13-1.2c4-2.2,8.6-7.6,11.6-13.6c4.6-9.4,5-11.8,4.8-40c-0.2-43-9.8-87.8-21.4-100.8
		c-6.8-7.2-12.2-8.6-43.4-10.2c-70-4-117-16.4-137.4-36.4c-4.8-4.6-9.6-11.4-10.8-15.2c-2.2-6.6-2.2-6.6-5.2-2.6
		c-1.4,2.4-11.8,10.6-22.8,18.4s-23.2,18.2-27.2,23c-4,5-7.6,8.6-8,8.2c-0.4-0.4,8-21.8,18.4-47.4c18.6-45.2,29-76.8,29-89
		c0.2-17.6,6.8-20.6,8.6-3.8c2.2,21.2,15.8,40.8,38.8,56.2c17.8,12,28.6,14,124.6,22.8c44.6,4,71.6,12.6,86.8,27.2
		c9.4,9.2,13.2,16.2,17,32l3.2,12.4l4.8-7c3.2-4.6,5.2-10.8,5.8-17.8c2.2-27-27.6-62-69.8-81.8c-29.4-14-52.6-17.6-111.8-18
		c-40.2-0.2-46-0.6-54.4-4.2c-5.4-2.2-9.6-4.4-9.6-5s3.8-2.6,8.6-4.4c4.6-2,15.6-8.6,24.4-15c33.6-23.6,53.8-27.6,114-22.4
		c44.6,3.8,72.8,14.4,100.4,37.6c62.2,52.2,73.8,134.6,34.8,248.2l-5.8,17l-4-9.4c-5.4-12.2-11.4-33-14.4-50l-2.4-13.6l-9.6,16
		c-5.2,8.6-12.4,19.4-16,24l-6.4,8.2l4.2,13c7.2,22.2,4.6,52.6-7.4,83.6c-10.8,27.4-19.8,40-51.8,71.2
		c-34.8,34.2-49.6,46.8-72.4,61.6c-9.2,5.8-23.2,16-31.4,22.4c-20.4,16.2-31.6,20-66.2,22.8
		C1946.2,12157.2,1928.4,12156.4,1912,12155z M1885.4,11920.8c1-1.6-4.8-4.6-17.6-9c-32.4-11.2-32.8-11.4-57-56
		c-11.8-21.4-23.4-44.4-26-51.2l-4.6-12.4l-5.4,14.6c-9.4,26-26,48.4-49.8,67.6c-21.6,17.6-35.4,23.6-53.4,23.6H1657v8
		c0,9-6,26.6-11.2,32.2c-3.2,3.6-3.2,3.8,2.4,3.8c10.2,0,35.2-7.8,53.8-17c45.4-22.2,73-48.8,73-70.4c0-13.4,3.2-13.8,5.8-0.8
		c4,20.6,16.4,42,35.8,62.4c19.4,20.6,22,22,47.2,29.6l18.2,5.2l1-14C1883.6,11929.4,1884.6,11922,1885.4,11920.8z"/>
	<path style="fill:none;stroke:#000000;stroke-width:2;stroke-miterlimit:10;" d="M291.6,12047c-61.4-8.2-88.2-24-118.4-68.8
		c-20-30.2-39.8-74.6-43.4-98.2l-1.4-9l10.2,9.4c17.4,16.2,45.6,32.2,75.4,42.8c14.4,5.2,18.6,5.8,41,5.8c28-0.2,42.8-3.2,63.2-13.2
		c15.2-7.6,34-24,42.8-37.8c3.6-5.4,7.2-10,8-10c0.8,0,2.6,2.8,3.8,6c1,3.4,11.6,20.4,23,37.8c30.6,45.8,36,60,30,80
		c-2.2,7.4-6.2,13.8-15.2,23.2C384.6,12042.8,343.4,12054,291.6,12047z"/>
	<path style="fill:none;stroke:#000000;stroke-width:2;stroke-miterlimit:10;" d="M2247.4,11984c-8.4-5.2-15.4-19.8-13.6-28.8
		c2.4-11.2,10.8-21,28-32c27-17.6,54.2-46.8,72.2-78c3.2-5.6,4.6-9.2,3-8.2c-1.6,1-6.6,4-11,6.8c-13.6,9-23.4,12.6-36.4,13.8
		c-7,0.4-12.6,0.6-12.6,0c0-0.6,5.4-4.4,11.8-8.4c26.2-16.2,47.8-50.2,69.2-109.4l4.8-13.4l-17.4,10.8
		c-19.8,12.6-39.6,19.4-53.2,18.4l-9.4-0.6l12.8-8.4c15.6-10.2,30.4-26,38.2-40.8c3.2-6,7.8-13,10.4-15.8
		c8.4-9.2,15.4-27.6,16.4-43.4c0.6-8,0.2-14.6-0.8-14.6s-7,8-13.2,17.6c-14.2,21.4-29,38.4-41.2,46.8c-9.6,6.6-9.4,5.4,0.8-7.4
		c15-19,23.4-45.8,23.4-76c0-11-0.6-22.2-1.4-24.8c-1.6-4.4-1.8-4.4-5.2,3c-2,4.4-6.8,11-10.8,14.6l-7.2,7v-18.4
		c0-48-9.8-93-24.2-110.4l-4.2-5l1.4,6c3.4,14.6,4.8,34.2,4.8,63l0.2,31l-7-13c-8.8-16-24.2-32-49-50.6c-10.4-7.8-24.8-18.8-32-24.4
		c-7.2-5.8-14.6-11-16.6-11.6c-1.8-0.8-3.2-2.2-3-3.2c0.4-1.2-6.2-7-14.4-13c-14.6-10.8-15-11-15.6-6.2c-0.6,5-0.8,5-23.2,5
		c-20,0-40.8,2.2-72.2,7.8c-67.6,11.8-116.4,18-121,15.2c-1.8-1.2-78.6-11-84-10.8c-1.6,0-0.2,1.2,3,2.6c3.4,1.6,15,3.2,26,4
		c11.2,0.6,24.8,2.6,30.4,4.2c13.8,4.2,34.2,18,41.4,28.4c8.6,12.4,7.8,19.8-5.2,47.8c-6.4,13.8-12.2,29.8-13.8,37.8l-2.8,14l-1.4-8
		c-0.8-4.4-1.4-12.6-1.4-18.2c-0.2-13.4-7-26.2-16.6-31.2c-12.6-6.6-24-6.6-54.2,0.2c-15.2,3.4-32.6,6.2-38.6,6.2
		c-13.6,0-44-9.6-86.2-27.2c-34.4-14.4-46.2-16.2-62.4-8.8c-4.8,2.2-9.4,4-10.2,4c-2.8,0-10-19.6-10-27c0-14.2,15-22.8,45.2-26.2
		c7.6-0.8,13-1.6,11.8-2c-1-0.2-14.6-3.4-30-6.8c-15.4-3.6-45.4-10.8-66.6-16.2c-21.4-5.4-47.8-11.6-59-14
		c-11.2-2.2-20.6-4.4-21-4.8c-0.4-0.2,0-3.8,0.6-7.8c1.4-7,1.6-7,9.8-6c27.8,3.8,79.2,9.8,79.2,9.6c0-1-59.6-42.8-61-42.8
		c-2.8,0-21,16.6-25.8,23.8c-5.8,8.2-7,21.8-2.6,29.6c4.6,8.2,16,19,34.4,32.8c24.6,18,46.4,40.2,66.2,66.8
		c15,19.8,16.4,22.8,20.6,39.6c2.6,10.2,6,22.8,7.6,28c4.6,14.6,0.8,15.6-8.4,2c-4.2-6.4-39-42.6-77.2-80.6
		c-65.6-65.4-69.6-69.8-77-84.6c-6.4-13.4-7.6-18-8.2-32c-0.6-10.2,0.2-20.4,2-26.8c3.2-12.2,3.8-12-15-7.6
		c-48.2,11.2-101.2,36.4-147,70.2c-2.4,1.8-5.4,2.6-6.4,1.8c-3.6-2.2,35.4-46.6,45.6-51.8c10.4-5.4,35.6-30.6,45.6-45.8
		c8.4-12.8,19.2-35.4,17.6-37c-1.6-1.8-49.6,30.2-74,49.4c-40.8,32.2-95.6,85.4-136.8,132.8c-10.2,11.8-19,21.4-19.2,21.4
		c-1.2,0,1.6-17.6,5.2-33.6c11.4-49.8,47.4-96,133.8-171.8c38.4-33.6,51-43.4,86-66.6c17-11.2,35-23.2,40-26.6
		c5-3.4,17.6-12.2,28-19.4c22.6-15.4,44.4-32.2,43.2-33.4c-0.4-0.6-5,0.6-10.2,2.2c-20.8,7.2-58.4,13.8-158,28.2
		c-59.6,8.6-93,17.2-109.2,28c-8.8,5.8-14.2,5-8.4-1.4c6.2-6.8,27-17.2,59.8-29.8c17.4-6.6,35.8-14.6,40.8-17.8s18-9,29-13
		s29.4-11.4,41-16.4c74.2-32.6,111.6-46,137-49.6c30.8-4.2,54.4-16.2,62.2-31.4c1.8-3.2,8-22.8,13.8-43.2c9.6-33,15.6-51.8,20-62.6
		c3.2-8.4-26.6,1.4-133,43.6c-45.8,18.2-57.2,24.4-78.8,42.6c-16.4,13.8-37,28-40.4,28c-0.8,0,1.6-3.2,5-7
		c8.8-10,11.4-16.2,13.8-31.4c3.2-20,13.8-41.2,25.8-51.2c7-6,10.8-11.2,13.4-18.4c2.4-6.6,6.2-12.2,10.6-15.6
		c3.8-3,13.8-11.2,22.2-18c30.4-25.2,37.2-28.4,80.8-37.6c13.6-2.8,31-7.8,38.6-11c7.8-3,19-7,25-8.6c20-5.2,25.4-8.6,28.8-18.2
		c0.8-2.2,2.4-19.2,3.4-38c1-18.6,2.6-45.4,3.6-59.4c1.2-15.4,1.2-31,0-40c-4.2-32.8-5.6-59.4-4.2-72.6l1.4-14l3.6,13.8
		c4.4,16.6,11.8,31.6,29.2,59.2c18.8,29.4,23,37.2,28.4,52c4.6,13,9.2,21.8,22.2,42c18.4,28.8,38.6,74.6,43.6,99.2
		c4.4,22.6,14.2,42.4,30.2,61.4c11.2,13.2,27.8,37.4,64.4,94.2c19.8,30.8,34.4,48.2,71.4,85.4c47.6,47.8,71.6,64.8,123.4,87.8
		c5.8,2.6,20.6,12.6,33,22.4c36.4,28.6,64.6,49.8,94.6,70.6c31,21.8,64.2,47.4,93,72c10.4,8.8,25,20.8,32.2,26.4
		c18.2,14.4,27.2,24.6,39.8,45.6c17.4,29,28.6,55,46.2,106.6c17.2,50.6,15.6,89.6-7,186c-11,46.4-18.2,68.6-31,95.6
		c-16,33.6-28.8,50.4-82.8,109.6C2276,11987.2,2262.2,11993,2247.4,11984z M2414.6,11723c0-3.2-0.4-3-1.6,1c-0.8,2.8-1.6,7.2-1.6,10
		c0,4.4,0.2,4.4,1.6-1C2413.8,11729.8,2414.6,11725.2,2414.6,11723z M1739,11467.6l11-5l-7-1.2c-6.8-1.2-30.2-4.2-55-6.6l-12-1.4
		l14,10.4c13.8,10.4,14.2,10.4,26,9.6C1722.6,11472.8,1733,11470.2,1739,11467.6z M1996.8,11463c9.4-1.6,17.4-3.4,17.8-4
		c0.6-0.6-10.6-1-25-1c-49.8,0-140.4-2.6-139.6-4c0.6-0.8,5.2-2.2,10.4-2.8c5.4-0.8,13.6-2.2,18.6-3.2s19.4-3.6,32-6
		c40.2-7.4,103.6-23.2,101.4-25.2c-0.4-0.4-6,0.2-12.6,1.2c-42.2,7-101.6,15.8-102.2,15.2c-0.4-0.4-1.2-3.8-1.8-7.4
		c-1.2-6.8-1-6.8,12-12.6c16-6.8,19.8-11,4.8-5c-5.8,2.4-21.8,8.6-35.6,13.8c-13.8,5.2-31.8,12.2-40,15.4c-8.2,3.4-16.8,6.6-19,7.4
		c-3.4,1.2-2.8,2,4.2,6.2c6.8,4,15.8,5.8,54,10.8C1927.4,11468.6,1965,11469,1996.8,11463z M1783,11447.2l9-2.6l0.6-35.6l0.4-35.6
		l-6.4,5c-34.8,26-59.6,39.6-72,39.6c-10.8,0-26-4-40.6-10.8l-11.2-5l4,5.4c2.2,3,9.4,11.2,15.8,18.4l11.8,13l39.8,5.2
		c22,3,39.8,5.4,39.8,5.6C1774,11449.8,1778,11448.8,1783,11447.2z M2125.4,11436.4c-5.2-5.4-12-12.6-15.4-16.4
		c-3.2-3.6-10-9-14.8-12.2l-8.6-5.6l-9.4,4.6c-21,10.6-69.8,29.6-87.2,33.8c-2.2,0.4,0,1.2,5,1.4c17.4,1,89.4,3.2,114.4,3.6
		l25.6,0.4L2125.4,11436.4z M1864,11409.8c80.2-31,114-44.2,119-46.8c4.8-2.6,4.8-2.6-4-5c-15-4.2-38.4-7.8-49.2-8
		c-7.6,0-15.4,2.2-29.6,8c-16.8,7-21.2,8-34.8,8c-8.6,0-20.6-0.8-26.6-1.8s-15-2.2-20.2-2.8l-9.6-1v35.8v35.8l6.6-3
		C1819,11427.4,1841,11418.8,1864,11409.8z M1655.8,11419.6c-2.2-2.6-13.8-15.8-25.8-29.6s-23.6-27.2-26.2-29.8l-4.4-4.8l-12.8,7.6
		c-22.4,13.6-22,11.2-3.2,23.6c21.2,13.8,48.2,28.4,62,33.4C1659.2,11425,1660.6,11425,1655.8,11419.6z M1981.4,11405
		c33-5.2,64.8-10.2,77.6-12.2l7-1.2l-7.6-4c-7.2-3.6-51.2-21.6-53-21.6c-0.4,0-0.4,1.2,0.2,2.8c0.8,1.8-2.4,4-10.2,7
		c-13,5-54.8,34-49,34.2C1947.6,11410,1963.4,11407.8,1981.4,11405z M1721.2,11399.8c3.8-1.4,19.4-10.6,34.6-20.6l28-18.2l-8-1.4
		c-4.2-0.8-13.8-1.4-21-1.4c-18-0.2-42-4.6-70.8-13.2c-26.8-7.8-43.8-9-57-3.8c-4.4,1.8-8,3.8-8,4.6c0.2,1.8,28.4,23.8,43.6,34.2
		c11,7.4,43.2,21.6,49.6,22C1713.4,11402,1717.4,11401,1721.2,11399.8z M1855.6,11313.6c13.8,0,17.4-0.6,17.4-2.8
		c0-1.6,4.4-14.4,9.8-28.4s10.4-28.8,11.2-32.8c1.8-9.8,4.2-8.2,6,3.8c0.8,5.4,4,16.6,7.2,25c3.4,8.4,6.6,18.6,7.2,22.6
		c0.6,3.8,1.6,7,2.4,7c1.4-0.2,11.6-13.8,17.2-23.2l4-6.8l-4.8-9c-6.2-11.8-29.2-35.4-38-39c-13.4-5.4-17.8,4.4-18,39.8
		c-0.2,12.6-0.8,22.2-1.4,21.6c-0.8-0.6-3-11-4.8-22.8c-6-35.4-10.2-47.4-20.6-58.2c-9.4-9.6-21-12.2-57.8-12.8
		c-29.2-0.6-31.8-0.4-35.4,3.4c-5,5.2-18.8,36.8-25.8,58.4l-5.4,17.4l-1-35.4l-1-35.4l-17,11.4c-21.8,14.4-38.8,31.4-45,45
		c-2.8,5.8-5,11.8-5,13.2c0,3.4,16,26.4,18.2,26.4c1,0,4-4.2,6.6-9.4c6.6-13,16.2-26,28.8-39.4c5.8-6.2,11-11.2,11.4-11.2
		c0.4,0-1.4,6-4,13.4c-7,20-8.2,36.2-3.8,48.6l3.6,10.2l10.2-1.2c17.8-2.4,39.4-2.2,55,0.4c8.8,1.4,23.2,1.8,35,1.2
		C1829,11314,1845.8,11313.6,1855.6,11313.6z M1813,11138c28-1.2,51.8-2.4,52.6-2.6c1-0.4-13.8-15.4-33-33.4
		c-19-18-41.2-40.2-49.4-49c-14.2-15.4-34-43-34.4-47.8c-0.4-6-3.6,7-3.6,15.2c-0.2,14.8-9.4,64.2-17.2,92.4c-3.8,14-7,26.6-7,27.6
		c0,1.4,6.8,1.8,20.6,1C1752.8,11140.6,1785,11139.2,1813,11138z M1541.2,11105l8.8-2.8l-8,1.2c-4.4,0.6-11.6,2.4-16,3.8l-8,2.8
		l7.2-1C1529,11108.4,1536.2,11106.6,1541.2,11105z M1866.8,11035.6c-4.4-8.4-42-63.4-44.2-64.8c-2.6-1.6-2.6-1.8,10,18.2
		c10.4,16.4,34.6,51,35.8,51C1868.8,11040,1868,11038,1866.8,11035.6z M1763.8,10841.2c-6.2-12.8-11.8-23-12.4-22.4
		c-0.4,0.6,4.2,11.4,10.6,24.2c6.4,12.8,11.8,22.8,12.4,22.4C1774.8,10865,1770,10854,1763.8,10841.2z"/>
	<path style="fill:none;stroke:#000000;stroke-width:2;stroke-miterlimit:10;" d="M1428.8,11942.6c-8-7.4-17.8-23.6-17.8-29.8
		c0-2.2-1-2.8-3.4-1.8c-8.6,3.2-15.2,3.2-23.6,0c-5-1.8-9-4.2-9-5c0-1-3.4-5.8-7.8-10.8c-10.2-11.8-20.8-29.4-26.6-44.2
		c-3.8-9.8-4.6-15.8-4.6-32c0-22.2,1.4-25.8,21.6-60.2c8.6-14.4,10-18.8,14.2-42c5-27.4,15.2-56,26.4-73.8
		c14-22.8,41.4-39.4,66.4-40.8c13.4-0.6,15.8,0,27.4,5.8c7,3.6,21,13.8,31,22.8c10.2,8.8,24,20.4,30.6,25.6
		c23.2,17.8,45.4,18,68.4,0.6c6.8-5.4,6.8-5.6,7.4-22.6l0.6-17.4l3.6,10.4c2,5.8,8.6,17.2,14.6,25.4c16.8,23,19.4,30.4,20.4,56.2
		c1.4,34.8-5.8,88.2-14.2,105c-3.4,7-5.4,9-9.4,9s-6.2-2-10.2-9.6c-4.4-8.2-5.6-9.2-7.6-6.6c-4.2,5-23.2,13.6-36.8,16.4
		c-18.4,4-44.2,3.4-62.4-1.2c-18.2-4.6-25.6-4.8-34-1l-6,2.6l9,0.2c5,0.2,18.2,2.4,29.6,5.2c11.4,2.8,25.6,5,31.6,5
		s10.8,0.8,10.8,1.8s-4.2,5.4-9.2,9.8c-10,9-21.2,12.4-40.8,12.4c-6.4,0-13.2,0.6-15,1.2c-4.6,1.8-10.2,13.8-13,27.8
		c-6,30.4-10.2,41.4-19.8,51.6c-7.4,8.2-14.6,11.4-25,11.4C1438.4,11950,1435.8,11948.8,1428.8,11942.6z M1425,11855.6
		c11.4-4.8,19.2-12.4,22-20.8c2.6-7.8,1.6-10.4-5.4-13c-7.8-3-17.4,1.2-26.6,11.6c-4.4,5-8,9.8-8,10.6s-1.4,4.8-3.2,9l-3,7.4
		l-8-11.4c-15.4-22-19.4-36.4-13.6-47.6c4.2-7.6,39.6-49,46.4-54c9.6-7.4,20.2-12.4,18.8-9.2c-3.6,8-15.2,37.4-16.4,41.4
		c-1.2,4.2-0.8,4.4,11.8,4.4h12.8l2.6-7.4c7-21.6,25.2-39.8,53-52.8c32.2-15.2,65-18,86.8-7.4c12.8,6,24.6,9.6,32.8,9.6h5.8
		l-1.2-25.4c-0.8-14.2-2-29-2.6-33.2l-1.4-7.6l-4.4,11.2c-5.6,13.8-7.4,16-18.8,22.6c-8.8,5.2-10.2,5.4-39.2,5.4
		c-28.6,0-30.6-0.2-42-5.6c-6.6-3-14.6-8.2-18-11.2c-15.2-14.2-41.2-13.4-57.4,1.8c-5.2,5-11.8,16.2-21.4,36.2
		c-11,23-15.8,31-24.6,39.8c-13.4,13.6-19.8,22.2-26.2,35c-5,9.8-5,10.2-2.6,30.4c2.6,22.8,4.8,26.6,18.2,32.8
		C1401.2,11862.6,1410.8,11861.8,1425,11855.6z M1524,11772.8c22.4-18,32.4-19.2,56.2-6.8c15.2,7.8,24.8,9,24.8,3
		c0-3.8-20.8-23.2-31.6-29.4c-5.4-3.2-12.4-5.6-16.4-5.6c-8.6,0-24.4,8.8-34.4,19.4c-7.6,8-17.6,25-17.6,30.2
		C1505,11787,1510.2,11784,1524,11772.8z M1543,11692.6c-1.6-0.6-8.8-3.4-16-6c-7.2-2.6-12-3.8-10.6-2.4c2.6,2.6,22.2,9.8,26.6,9.6
		C1545.6,11693.6,1545.6,11693.6,1543,11692.6z"/>
	<path style="fill:none;stroke:#000000;stroke-width:2;stroke-miterlimit:10;" d="M932,11899.6l-5.2-4.6l9.4-11
		c29.6-34.4,52.4-82.4,63.2-132.8c3.4-16.4,4.4-27,4.4-57.2c0-34.4-0.4-38.6-5.6-58c-3-11.6-6-22.8-6.6-25.2
		c-0.8-3.2,0.4-4.4,6.4-6.2c5.4-1.8,7.4-1.8,8,0c11.4,34.8,15.8,66,14.4,100.4c-3,70.4-29.2,139-72.2,189.4
		c-4.6,5.4-8.8,9.6-9.6,9.6S934.8,11902,932,11899.6z"/>
	<path style="fill:none;stroke:#000000;stroke-width:2;stroke-miterlimit:10;" d="M1190.4,11896.2c-15.8-14-16.8-32.8-4-72.8
		c8.2-25.8,10.2-46.8,6.8-70.8c-1.2-8.6-2.6-22.8-3.4-31.6l-1.4-16l7.4,9.4c4.6,6,15.4,14.6,29.6,24.2c12.4,8,26,18.6,30.2,23.2
		l7.4,8.2l-0.2,18c-0.2,21.2,2,26,17.6,37.8c10.6,8,23.8,13.8,43.6,19.4l11.8,3.4l-13.8,5.4c-7.8,3-27.4,12.8-44,21.8
		c-37.8,20.4-48.6,24.6-66.2,25.8C1198.2,11902.4,1197.4,11902.2,1190.4,11896.2z M1248,11857c12.2-4.8,21.6-8.8,21-9
		c-1.2,0-37.6-12.8-42.4-15c-3.2-1.2-3.6,0.2-3.6,15.8c0,9.4,0.8,17.2,1.6,17.2C1225.4,11866,1236,11862,1248,11857z"/>
	<path style="fill:none;stroke:#000000;stroke-width:2;stroke-miterlimit:10;" d="M2084.2,11884.2l-13.8-7.2h-53.2
		c-59.6,0-56.8,0.6-83.6-16.2c-17-10.6-29.6-24-37.2-39.4c-5.8-11.8-16-47.2-13.8-47.6c0.8,0,6,0,11.4,0.2c5.6,0,23.6-1.6,40-4
		c45-6,59.2-5,81,6c18,9,27.6,21.4,45.2,57.2c13.2,27.2,17.4,33.8,28.4,45.4c7.2,7.4,12.2,13.4,11.2,13.2
		S2091.8,11888.2,2084.2,11884.2z M2018.6,11850.8c10.2-7.2,1-33.4-18.8-53c-9.2-9-12.2-10.8-22.8-13c-20.6-4.2-46.2,1.2-57,12
		c-5.4,5.4-6.6,14.4-3,21.4c2,3.4,3,2.8,13.6-8c15.4-15.6,25.8-21,39.8-19.8c13,1.2,23.2,8.4,30,21.8c3.8,7.2,4.6,11.6,4.4,23.8
		c-0.2,8.2-0.2,15.6,0,16.6C2005.2,11855.2,2014,11854.2,2018.6,11850.8z"/>
	<path style="fill:none;stroke:#000000;stroke-width:2;stroke-miterlimit:10;" d="M843.8,11816.4c-55.4-33-78.2-51.8-87.4-72
		c-3.6-7.8-4.4-13.2-4.4-31.4c0-26,4-41.6,18.4-70c25.2-49.8,60.4-90.2,92.2-105.4c11.2-5.4,14.2-6,24.6-5
		c15.2,1.4,27.8,8.4,58.4,32.6c13,10.4,27.6,21,32.4,24l9,5.2l-6.6,7.4c-3.4,4.2-16.2,18.2-28,31.2c-28.8,31.2-39,46.2-56.8,82.4
		c-13.4,27.4-15.4,32.4-18.8,53c-5,29.6-4.8,48,0.2,59.4c2.2,4.8,3.8,9.2,3.4,9.4C880,11837.6,863.6,11828.4,843.8,11816.4z"/>
	<path style="fill:none;stroke:#000000;stroke-width:2;stroke-miterlimit:10;" d="M241.8,11815.2c-23-3.8-42.2-14.6-64.4-36
		c-32.6-31.4-45.4-53.6-44-76.2c0.6-10.4,3.8-18.2,22.2-56.8c21.4-44.8,32.6-64.8,48.6-86.6l8.2-11.4l1.2,39.4
		c0.8,33.8,1.6,41.6,5.6,54.4c4.4,14.2,5.8,16.2,24.8,35.4c16,16.2,23,21.8,34,27c13,6,15.4,6.6,33,6.4c15.8,0,22-1.2,37-6.2
		c10-3.4,18.4-5.8,18.8-5.4c0.4,0.4-0.8,3.8-2.6,7.4c-1.6,3.8-6.8,20.6-11.4,37.6c-16.6,62.8-28,74-74.6,73.6
		C266,11817.6,249.6,11816.6,241.8,11815.2z"/>
	<path style="fill:none;stroke:#000000;stroke-width:2;stroke-miterlimit:10;" d="M1285,11773c0-125.2,28.2-193.6,93-225.6
		c32.2-16,58-21.2,106-21.6l33.4-0.2l14.2,7c25.2,12.6,62,48,77.6,75c3,4.8,8.4,10.8,12,13.2l6.8,4.2l-6.8,0.6
		c-5.2,0.6-7.8-0.4-10-3.4c-8.2-10.6-85.4-40-116.4-44.2c-44.8-6.2-80,6-111,38.6c-28.8,30.2-40.2,50-51.8,89.6
		c-7.4,25.2-13.2,37.4-27.8,58.8c-4.4,6.6-10.6,16.6-13.6,22l-5.6,10V11773z"/>
	<path style="fill:none;stroke:#000000;stroke-width:2;stroke-miterlimit:10;" d="M1247,11727.2c-11.2-3.2-25.6-10.4-31.8-16
		c-8.6-7.8-44.8-66.8-48-78.2c-3-11-2.6-35.4,0.8-51.4c5-23.8,4.8-23.8,22.6,12.6c24.6,50.6,47,82,68.2,95.6c7,4.6,10.8,8.8,13,14.4
		c5.2,13,4.2,19.2-4.2,23.6C1262.4,11730.4,1258.6,11730.4,1247,11727.2z"/>
	<path style="fill:none;stroke:#000000;stroke-width:2;stroke-miterlimit:10;" d="M683,11701.2c-61.2-21.2-109-60.8-126.8-105.2
		c-5.6-14-6.4-40.4-1.6-54c2.2-6,9.4-26.6,15.8-45.6c12.4-35.8,17.8-45.2,30.6-53.8c9.2-6.4,17-5.8,39.6,3.4c11,4.4,35,11.6,53.6,16
		c35.2,8.6,66.8,17.4,66.8,19c0,0.6-6.6,7.4-14.6,15.4c-16.8,16.8-30.4,36.8-42.6,62.6c-11.4,24-16,42.2-19.6,77
		c-4.2,40.4-1.8,51,14.6,65.4c4,3.6,6.4,6.4,5.2,6.4C703,11707.8,693.4,11705,683,11701.2z"/>
	<path style="fill:none;stroke:#000000;stroke-width:2;stroke-miterlimit:10;" d="M2260.4,11684.6c-0.8-0.6-1.4-3.6-1.4-6.6
		c0-10.6-9.8-25.6-27.4-41.6c-9.2-8.4-21.2-21.2-26.4-28.4c-11.2-15.2-25-24.2-44.2-29.2c-11-2.8-19.6-3.2-56-2.2
		c-76.6,2.2-117.8,13.4-160.4,44c-8.6,6.2-15.6,10.8-15.6,10.4c0-1.8,13.4-25.2,21.8-37.8c12.8-19.2,38-45.4,54-56.2
		c34.2-22.6,77.2-35,122-35c37.4,0,62.6,9.8,86.2,33.8c8.8,9,18.4,21.4,23.4,30.2c15.8,28,28.6,75.8,28.6,106.6
		C2265,11685,2263.8,11688.2,2260.4,11684.6z"/>
	<path style="fill:none;stroke:#000000;stroke-width:2;stroke-miterlimit:10;" d="M371,11663.6c-10-3.4-27.8-22.4-35.4-37.6
		c-11.2-22.8-27-60.6-29.8-71c-3.8-13.8-3.6-47.6,0.4-60.8c1.6-5.8,6-13.8,9.8-17.8c12.4-13.8,61.6-35.4,99-43.4
		c20-4.2,61-6.4,62.8-3.2c1,1.4-3.2,7.4-10.6,15.2c-20.6,22.2-32.2,53.8-32.2,88.2c0,15.6,1,21.4,6.2,36.2
		c13.6,39,24.6,55.4,46.2,69.8c7.4,5,13.6,9.2,13.6,9.4c0,0.2-12.4,0.4-27.4,0.4c-26.8,0-28.2,0.2-49.6,7.8
		C400.2,11665.2,382.6,11667.4,371,11663.6z"/>
	<path style="fill:none;stroke:#000000;stroke-width:2;stroke-miterlimit:10;" d="M1258.4,11648.8c-21.8-11.4-34.8-31.8-36.8-57.4
		c-1.8-24.4,3.8-49.4,22-96.2c12.2-32,13.6-30.8,15.6,13.8c0.6,17.6,2,33.8,2.8,36c1,2.2,6.4,11.6,12.2,21
		c10.2,16.2,16.8,34.4,16.8,46c0,13.8-13.8,42.2-20.6,42C1269.2,11653.8,1263.6,11651.6,1258.4,11648.8z"/>
	<path style="fill:none;stroke:#000000;stroke-width:2;stroke-miterlimit:10;" d="M1292.2,11534.4c-6.2-18.6-7-38-1.6-48.4
		c9-18,29.4-25.2,80.4-28c65.8-3.8,77.6-7.2,82-24.4c1.4-4.6,3-7.4,4-6.4c4,4.2,11.6,22.4,12.8,30.8c1,7.6,0.4,10.6-4.6,19
		c-11.4,20-30,27.4-75.2,30.8c-40,3-56,5.8-67.4,11.4c-9.8,5-18.2,15.2-20.6,25.4c-0.8,3-2.2,5.4-3,5.4
		C1298,11550,1295,11543,1292.2,11534.4z"/>
	<path style="fill:none;stroke:#000000;stroke-width:2;stroke-miterlimit:10;" d="M2400.4,11410.6c-2-45.6-9.4-75.6-23-92.2
		c-4.4-5.2-10-13.2-12.6-18c-4.6-8.4-17-18.2-32-25.4c-4-2-8.8-6.4-10.8-10.2c-4.6-8.6-9.8-11.8-42.2-26.4
		c-14.2-6.4-29.2-14-33.4-16.8c-21.8-15-58-24.8-127.4-34.4c-39.8-5.4-61-12.2-79-25.6c-4.4-3.2-16.2-11-26.2-17.6
		c-34.6-22.4-67.2-57.8-89.6-97c-10-17.6-9.6-24,0.8-12.2c14,15.8,44.6,28,119.4,47.2c21.2,5.6,58,13.6,82,18
		c55,10.2,76.4,15.4,116.2,29c17.6,5.8,44.8,14,60.6,18.2c15.8,4,32.6,9,37.4,11c24.8,10.6,33.6,25.2,42.4,70.2
		c4.6,23.8,9.4,35,20,47c23.4,26.6,27,62.8,12.4,121.6c-3.4,13.2-6.6,27.8-7.4,32.6c-0.8,4.8-2.4,8.4-3.8,8.4
		C2402.2,11438,2401.2,11430.8,2400.4,11410.6z"/>
	<path style="fill:none;stroke:#000000;stroke-width:2;stroke-miterlimit:10;" d="M2406.8,11191.8c-9.2-9-15.6-18.4-37.8-55
		c-15.4-25.4-44.6-56.4-68-72.2c-20.2-13.8-48.6-28.6-74-38.8c-19.4-7.8-88.2-26-124-33c-16.8-3.2-92.4-13.6-123-16.8
		c-32.4-3.4-48.2-7.6-82-21.6c-31.4-13.2-32-13.6-47-28.8c-8.4-8.6-16.4-15.6-17.6-15.6c-1.4,0-5.4-4.8-9.2-10.4
		c-10-16.2-38-71.6-36.4-73c0.6-0.6,6.4,3.6,12.6,9.6c21,20,44.4,33.2,80,45c40.4,13.6,62.4,16.8,136.6,20
		c83.8,3.6,99.6,6,127.2,20.4l14.4,7.8l-4.6-12.8c-2.4-7-9.4-20-15.2-28.8c-6-9-15.2-24.8-20.8-35.4c-15.4-29.2-7.6-27-94.4-26.8
		c-76,0.2-86.6-0.6-101.6-8.2c-12.2-6-53.8-34.2-74-50.2c-9.8-7.8-22-17-27-20.2c-11.8-7.8-47.8-42.6-60-58.2
		c-5.4-6.6-14-19.2-19.2-28l-9.4-15.8l16.4,15.6c34,32.4,75.8,53.6,137,69.4c24.4,6.2,84.2,18.6,106.2,21.8c32.2,4.8,73,7.8,73,5.4
		c0-3.6-28.4-47.6-38.2-59.4c-6.8-8.2-20-26.4-29.4-40.8c-9.4-14.2-23.2-33-30.8-41.6c-7.6-8.6-23.4-30.2-35.4-48
		c-12-17.8-29.2-41-38.2-51.4c-15.4-17.6-28-35-28-38.2c0-0.6,13.8-1.8,30.6-2.4c33-1,42.6-3.2,51.6-11.6l5.8-5.4l7.2,8.2
		c3.8,4.6,15,21,24.8,36.4c9.8,15.4,23.4,34.4,30.4,42c23.8,26.6,74.6,92.2,117.6,152c10.2,14.4,36.8,50.4,59,80
		c35.6,47.6,74,103.4,114.6,166.6c6.8,10.6,20.6,28.4,30.4,39.4c33.2,36.6,54.2,72.6,61,104c2,8.8,5.6,22.4,8.2,30
		c8,24.8,14.6,70,11.2,79l-1.8,4.8L2406.8,11191.8z M2060.6,10818.6c-3.2-0.4-8-0.4-11,0c-3.2,0.4-0.6,0.8,5.4,0.8
		S2063.6,10819,2060.6,10818.6z"/>
	<path style="fill:none;stroke:#000000;stroke-width:2;stroke-miterlimit:10;" d="M1321,10975c-40.2-8-80.8-29.4-113-59.6l-16-15
		l6-1.2c7-1.4,24.4-5.8,50-12.4c22-5.8,37.4-6,61.6-0.8c33.2,7,56,10,84.4,11.2c15.4,0.6,30,1.4,32.6,2c6.2,1.2,5.6,7.6-1.6,15.4
		c-3.4,3.6-9,10.4-12.6,15.4c-3.6,5.2-13,13.2-21.6,19c-8.4,5.6-18.2,12.6-22,15.8C1355.8,10976,1341.2,10979,1321,10975z"/>
	<path style="fill:none;stroke:#000000;stroke-width:2;stroke-miterlimit:10;" d="M1441,10685.4c-27.2-9.8-55.4-27.6-60.6-38.4
		c-2.8-5.8-4.4-7-9.4-7c-7.4,0-23.4-7.8-32.4-15.8c-3.6-3.2-13.8-9.4-22.6-13.8c-23-11.4-31-21.6-31-38.6c0-5.2,0.2-5.4,16.6-6.4
		c9-0.4,32-2.6,51-4.6c37.2-3.8,58.8-2.6,75.2,4.2c11,4.6,22.8,16.4,29.4,29.4s9.6,15.2,23.2,16.8c19.2,2.4,23,8.6,27.2,44l2.8,23.4
		l-11.2,5.2C1483.2,10691.2,1459.2,10691.8,1441,10685.4z"/>
	<path style="fill:none;stroke:#000000;stroke-width:2;stroke-miterlimit:10;" d="M1558,10627.8c-16.6-3.8-26.6-9.2-49.8-26.4
		c-13-9.8-35.6-24.2-50-32.2c-14.6-8-31.4-17.8-37.6-21.8c-14.6-9.8-28.8-25.2-34-36.8c-4.2-9.4-7.4-34.6-4.6-34.6
		c0.8,0,4.4,1.8,7.8,3.8c17.2,10.6,57.6,21.8,85.2,23.4c16,1,22.4,0.4,41.6-4c39.4-9,60-8.8,64.4,0.8c1.6,3.4,2.2,4.6,26.2,48
		c20,35.8,27,46.8,37.4,58.4c4.4,4.8,6.4,9,6,12c-0.6,4.2-2.4,4.8-23.6,8C1601.8,10630,1570.6,10630.6,1558,10627.8z"/>
	<path style="fill:none;stroke:#000000;stroke-width:2;stroke-miterlimit:10;" d="M1850.2,10449.2c-13-6.4-14-7.8-12.4-16
		c2-10.2,5.8-13.2,17.2-13.2c5.4,0,12.2-1,15-2c3-1.2,16.8-3.8,30.8-6c41.8-6.8,55.8-16.8,60.4-43.8c2-10.4,1.8-16.8-1-35
		c-1.8-12.2-3.8-23.8-4.2-26c-1.2-5.4,7.2-12.6,19.2-16.2c6-1.6,23-5.8,37.8-9.2c56.2-12.4,77.4-20.2,86.8-32.2
		c2.8-3.6,5.2-5.8,5.2-4.8c0,4.6-17.8,51-28.4,73.2c-25.2,53.6-63.2,99.8-93.8,114.4c-19,9.2-40.6,15-69.8,18.6
		C1878.8,10455.4,1862,10454.8,1850.2,10449.2z M1851,10426c2.6-1.6,2.6-2-0.4-2c-1.8,0-4,1-4.6,2
		C1844.4,10428.6,1847,10428.6,1851,10426z M2018.4,10286.8c-0.6-0.6-2.4-0.8-3.8-0.2c-1.6,0.6-1,1.2,1.2,1.2
		C2018,10288,2019.2,10287.4,2018.4,10286.8z M2033,10284c4-1.2,4.2-1.6,1-1.6c-2.2,0-6.2,0.8-9,1.6c-4,1.2-4.2,1.6-1,1.6
		C2026.2,10285.6,2030.2,10284.8,2033,10284z M2044.4,10280.8c-0.6-0.6-2.4-0.8-3.8-0.2c-1.6,0.6-1,1.2,1.2,1.2
		C2044,10282,2045.2,10281.4,2044.4,10280.8z"/>
	<path style="fill:none;stroke:#000000;stroke-width:2;stroke-miterlimit:10;" d="M1736.2,10430.6c-2.2-2.2-1.2-12.6,1.8-18.6
		s7.8-9.4,30-21c17.2-9,22.2-13.6,25.2-22.6c5.6-17.2,0.2-35.6-22-73.4c-4.6-7.6-8.2-14.4-8.2-15s12-1.2,26.6-1.4
		c56.4-1,106.6-13.6,127.8-32.2c3.8-3.6,7.6-6.4,8.4-6.4c2.4,0,1.2,25-2,37.8c-6.8,27.2-28.4,65-55.6,96.8
		c-21.6,25-41,38.2-69.4,47.2C1779,10428,1739.2,10433.6,1736.2,10430.6z"/>
</g>
</svg>
