<?xml version="1.0" encoding="utf-8"?>
<!-- Generator: Adobe Illustrator 17.0.0, SVG Export Plug-In . SVG Version: 6.00 Build 0)  -->
<!DOCTYPE svg PUBLIC "-//W3C//DTD SVG 1.1//EN" "http://www.w3.org/Graphics/SVG/1.1/DTD/svg11.dtd" [
	<!ENTITY ns_flows "http://ns.adobe.com/Flows/1.0/">
	<!ENTITY ns_extend "http://ns.adobe.com/Extensibility/1.0/">
	<!ENTITY ns_ai "http://ns.adobe.com/AdobeIllustrator/10.0/">
	<!ENTITY ns_graphs "http://ns.adobe.com/Graphs/1.0/">
]>
<svg version="1.1" id="Layer_1" xmlns:x="&ns_extend;" xmlns:i="&ns_ai;" xmlns:graph="&ns_graphs;"
	 xmlns="http://www.w3.org/2000/svg" xmlns:xlink="http://www.w3.org/1999/xlink" xmlns:a="http://ns.adobe.com/AdobeSVGViewerExtensions/3.0/"
	 x="0px" y="0px" width="612px" height="792px" viewBox="0 0 612 792" style="enable-background:new 0 0 612 792;"
	 xml:space="preserve">
<path style="fill:none;stroke:#000000;stroke-width:6;stroke-miterlimit:10;" d="M127.5,398c-6.9-34.6-20.7-80.8-3.5-112.7
	c14-25.9,41.4-13.2,54.5,20.4c10,25.6,10.1,53.4,17.5,79.5c26.9,94.7,42.8,101.5,82.1,148.8c46.6,56-12.6,101.8-6.8,162.3
	c4.1,43.1,7.8,46.6-5.7,55.9c-29.5,20.2-61.4,23.9-95,15c-101.4-26.7-12.8-62.6-63.3-188.8C83,517.6,19.1,465,48,360.1
	c9.1-32.9,15.4-66.5,23.8-99.6C79.2,231.5,169.1,58,202.9,26c18-17.1,43.2,5.8,26.4,48.7c-39.9,101.9-41.8,71.6-81.8,168.5
	c-8.9,21.5-65.3,18.9-32.8,123.5C117.9,377.6,119,389.4,127.5,398L127.5,398z"/>
<path style="fill:none;stroke:#000000;stroke-width:6;stroke-miterlimit:10;" d="M478.3,412.7c18.1-16.9,55.8-129,6.6-155.6
	c-10.9-5.9-16.9-14.7-20.5-25.1c-21-60.4-53.6-91.7-77.8-170.6c-9-29.5,14.3-54.5,33.4-33.3c5.7,6.4,9.7,13.9,14.5,21
	c29.7,44.3,53,92.1,78.3,138.8c37.8,69.7,58.3,189.5,58.6,212.9c1.1,89.4-59,125.8-80.2,203.3c-19.6,71.7,12.6,119.4-11.9,138.1
	C440,772,400.3,782.3,354.6,759c-21-10.7-22.7-13.7-19.6-36.8c3-21.9,5.1-43.8-0.7-65.6c-9.5-35.4-37.4-79.5,1.7-124.9
	c18.6-21.5,38.3-42.1,52.1-67.6c38.6-71.4,32.8-117.7,48.1-155c31.7-77.1,88-33.8,47.8,82C481.6,398.1,480.2,405.5,478.3,412.7
	L478.3,412.7z"/>
<path style="fill:none;stroke:#000000;stroke-width:6;stroke-miterlimit:10;" d="M170.9,249.7c-3.5,4.2-7.9,8.2-13.4,4.3
	c-5.1-3.6-3-8.9-0.7-13.3c62-120.4,79.9-178.4,99.9-126.1C268.8,146.5,240.3,165.4,170.9,249.7L170.9,249.7z"/>
<path style="fill:none;stroke:#000000;stroke-width:6;stroke-miterlimit:10;" d="M458.2,253.4c-4.6,1.4-8.5-0.2-11.5-3.8
	c0,0-75.1-90.7-75.2-90.9c-29.7-39.6,3.9-86.6,22-51.2c19.5,38.2,38.8,76.4,56.6,115.5C451.4,225.3,468.3,250.3,458.2,253.4
	L458.2,253.4z"/>
<path style="fill:none;stroke:#000000;stroke-width:6;stroke-miterlimit:10;" d="M367.5,171.8c24.6,25.7,47.3,53.2,69.5,81.1
	c4.7,6,7.1,12.3,4.6,20.1c-3.2,10-7.8,11.3-16.4,5.2c-16.2-11.5-62.6-59-71.1-68.5C332.3,185.3,344.9,148.3,367.5,171.8L367.5,171.8
	z"/>
<path style="fill:none;stroke:#000000;stroke-width:6;stroke-miterlimit:10;" d="M266.6,206.2c-22.9,24.8-47.8,47.5-73.5,69.4
	c-3.8,3.2-8.1,10.4-14,5.2c-16.4-14.7,3.3-31.7,66.2-104C273.6,144.4,284.7,186.6,266.6,206.2L266.6,206.2z"/>
<path style="fill:none;stroke:#000000;stroke-width:6;stroke-miterlimit:10;" d="M187.1,308c-2-12,2.9-19.5,9-26
	c90.3-95.1,84.1-34.6,75.2-24.6c-18.5,20.7-66.5,53-71.6,55.6C189,318.5,187.9,318.4,187.1,308L187.1,308z"/>
<path style="fill:none;stroke:#000000;stroke-width:6;stroke-miterlimit:10;" d="M374,241.6c80,58.8,50.6,75.1,45.6,71
	c-24.2-19.6-84.1-49.1-77.5-75.7C347.1,217.4,369.2,238.1,374,241.6L374,241.6z"/>
</svg>
