<?xml version="1.0" encoding="utf-8"?>
<!-- Generator: Adobe Illustrator 17.0.0, SVG Export Plug-In . SVG Version: 6.00 Build 0)  -->
<!DOCTYPE svg PUBLIC "-//W3C//DTD SVG 1.1//EN" "http://www.w3.org/Graphics/SVG/1.1/DTD/svg11.dtd" [
	<!ENTITY ns_flows "http://ns.adobe.com/Flows/1.0/">
	<!ENTITY ns_extend "http://ns.adobe.com/Extensibility/1.0/">
	<!ENTITY ns_ai "http://ns.adobe.com/AdobeIllustrator/10.0/">
	<!ENTITY ns_graphs "http://ns.adobe.com/Graphs/1.0/">
]>
<svg version="1.1" id="Layer_2" xmlns:x="&ns_extend;" xmlns:i="&ns_ai;" xmlns:graph="&ns_graphs;"
	 xmlns="http://www.w3.org/2000/svg" xmlns:xlink="http://www.w3.org/1999/xlink" xmlns:a="http://ns.adobe.com/AdobeSVGViewerExtensions/3.0/"
	 x="0px" y="0px" width="612px" height="792px" viewBox="0 0 612 792" style="enable-background:new 0 0 612 792;"
	 xml:space="preserve">
<path style="fill:#050505;" d="M617.1,436.1c-7.9,4.4-15.7,9-23.6,13.5c-0.8,0.3-1.6,0.9-2.3-0.2c0.5-0.3,1-0.5,1.5-0.8
	c1.1-1.3,2.2-2.4,3.3-3.8c12-15.2,18.8-31.5,10.5-50.8c-0.6-1.4-0.6-3.2-2.5-3.4c-2.1-0.2-1.9,1.9-2.4,3.2c-2.6,6.3-5,12.7-7.6,19
	c-0.7,1.5-0.9,3.9-3.8,4.1c8.5-24.4,3.7-47.6-5.1-70.5c-1,5.5-1.4,11.1-2,16.7c-0.8,6.8-1.6,13.6-5,19.8c-0.2-0.4-0.5-0.8-0.5-1.2
	c0.5-17.8-5.7-33.9-12.4-49.9c-0.3,0.7-0.6,1.4-0.9,2.1c4.9,16.2,9.2,32.6,8.4,49.8c-0.3,6.4-1.1,12.8-1.7,19.2
	c-0.1,1-0.1,2-0.2,3.1c0.8,2,1.5,0.2,2.2,0l0,0c0.3-0.3,0.6-0.7,0.9-1l0,0c0.4-0.4,0.7-0.7,1.1-1.1l-0.1,0.1c0.3-0.3,0.7-0.7,1-1
	l0,0l-0.1,0.1c0.2-1.3,1.1-2.2,2.1-3c0.3-0.4,0.7-0.8,1-1.2c0.2-0.3,0.4-0.6,0.7-0.9c0.8-1,1.5-2,2.3-3l0,0
	c2.3-6.4,4.1-12.9,5.5-19.5c0.2-0.8-0.1-2.5,1.6-2.4c1.1,5.7,2.4,11.4-0.7,16.9c-1.1,4.4-0.3,9-2.3,13.2c0,0.3-0.1,0.6-0.2,0.9
	c0.2,1.5,0.8,3-0.8,4.1c0,0.3,0,0.6-0.1,0.9c0.6,3-1,5.4-1.9,8c0,1-0.1,2-0.1,3c1,6-1.8,11.3-2.9,17c0.6-0.1,1.1-0.3,1.5-0.6
	c0.3-0.2,0.6-0.4,0.9-0.6c0.3-0.2,0.6-0.4,0.8-0.6c0.4-0.3,0.8-0.7,1.2-1.1c0.5-0.5,1.1-1,1.6-1.4c0.2-0.1,0.3-0.2,0.4-0.3
	c0.2-0.1,0.3-0.2,0.5-0.3c0.9-0.8,1.8-1.6,2.6-2.5c8.2-8.2,13-18.4,15.5-29.9c3.1,25.4-10.3,42.8-31.2,60.9c-1.3,0.7-1.3,2-1.8,3.2
	c9.8,0.1,17.7-5.3,25.8-9.8c6.8-3.7,13.3-8.1,21-12.8c-7.7,23.3-24.2,38.7-39.9,54.7l0,0c0,0.4-0.1,0.8-0.1,1.1
	c5.2-0.1,9.9-2.8,15-3.3c1.3-1.4,3.2-1.7,5-2.2c0.6-0.3,1.2-0.5,1.8-0.8c0.7-0.3,1.5-0.7,2.2-1c0.1-0.2,0.3-0.4,0.4-0.5
	c0.4-0.4,1-0.5,1.6-0.5l0,0c0.3-0.3,0.7-0.6,1-1l0,0c0.7-0.3,1.3-0.7,2-1l0,0l0,0c1.7-1.9,3.4-3.8,5.2-5.7c0,3.5-0.4,6.6-3,8.8
	c0.1,1.2,0,2.2-1,3c0,0.8-0.2,1.6-1,2c0,0.8-0.2,1.6-1,2c0,0.8-0.2,1.6-1,2c0,0.8-0.3,1.6-1,2c-0.3,0.6-0.7,1.3-1,1.9l0,0l0,0
	c-0.3,0.3-0.6,0.7-0.9,1c0.1,0.9-0.3,1.7-1,2.3c-0.1,1.2-0.8,2-1.6,2.8c-0.5,0.7-0.9,1.3-1.4,2v-0.1l0,0c-0.3,0.5-0.6,0.9-1,1.4
	c-0.3,0.5-0.6,1-0.9,1.6c-0.4,0.5-0.7,0.9-1.1,1.4c-7.7,12-18,21.6-28.9,30.5c-10.2,8.4-21.3,15.5-32.7,22.3
	c13.6-2.2,26.5-6.1,38.2-13.6c0.4-0.3,0.8-0.5,1.2-0.8l0,0c0.2-0.2,0.4-0.3,0.5-0.4c-0.1,0.2-0.3,0.4-0.4,0.6
	c-0.3,0.4-0.5,0.8-0.8,1.2c-7,14.8-18.9,24.6-33,32.1c-5.3,2.8-10.9,5-16.2,7.7c-1.4,0.7-4.5,0.4-3.6,3.1c0.8,2.3,2.7,4.4,5.7,3.9
	c4.1-0.7,8.2-1.5,12.2-2.5c3-0.7,6-1.6,9.3-2.5c-12,16.2-44.3,28.4-92.7,34.6c14.6-18.2,23.5-38,28.4-59.7c1.2-7,2.5-14,3.7-21
	c0-0.7,0.1-1.3,0.1-2c0.3-4.6,0.6-9.3,1-13.9c0-1.4,0-2.7,0-4.1c0-1.6,0-3.3,0-5c0-1,0-2,0-3.1c-0.6-14.1-2.3-28-4.5-41.9
	c-6-29.3-16.6-56.7-32.5-82c-0.4-0.7-0.9-1.4-1.3-2c-0.9-0.7-1.6-1.5-1.7-2.7c-0.3-0.4-0.6-0.9-1-1.3c-0.8-0.5-1.1-1.2-1-2l0,0
	c-0.4-0.3-0.8-0.7-1.2-1c-0.2,0-0.5,0-0.7-0.1c-0.9,0.7-1.9,1.3-2.8,2c2.9,4.7,5.8,9.4,8.7,14.1c0.2,0.3,0.3,0.5,0.3,0.9h-0.2
	c0.3,0.3,0.6,0.7,1,1.1l0,0l0,0c0.4,0.7,0.8,1.3,1.1,2c1,1,1.7,2.2,1.9,3.7c0.3,0.8,0.7,1.5,1,2.3c0.8,0.4,1,1.2,1,2
	c0.8,0.5,0.9,1.2,1,2c0.8,0.5,0.9,1.2,1,2l-0.1-0.1l0,0c0.3,0.7,0.7,1.3,1,2l0,0c1.2,1.5,1.8,3.1,2.1,5c0.8,0.5,0.9,1.2,0.8,2
	c0.1,0.2,0.2,0.5,0.1,0.8c1.1,0.8,1.2,2,1.1,3.2c4.2,6.6,5.4,14.4,7.4,21.8c2.5,9.2,4.1,18.6,4.3,28.2c0.1,0.3,0.2,0.7,0.3,1
	c1.1,1.2,0.7,2.7,0.7,4.1c0,4.3,0,8.5,0,12.8c0.8,1.3,1.4,2.6,1,4.2c-0.2,6.3,1.3,12.7-0.8,19c0,1.7-0.1,3.4-0.2,5
	c0.8,6.8-0.4,13.4-1.8,20c0,0.6,0,1.3,0,1.9c-0.2,7.9-0.9,15.7-4,23.1c-0.1,0.3-0.1,0.7-0.2,1c0.1,1.4,0.7,2.9-0.8,4
	c0,0.3-0.1,0.6-0.1,1c0.2,1.4,0.5,2.9-0.8,4c-0.1,1.4,0.4,3-1,4c0,1.4,0.4,2.9-1,4c0,1.4,0.4,2.9-1,4c0,1.2,0.2,2.4-1.1,3.1
	c0,0.3,0,0.6-0.1,0.9c0.2,1.2,0.3,2.3-0.9,3.1c0,0.3-0.1,0.6-0.1,0.9c0.1,1,0,1.9-0.8,2.5c0.6,4.1-1.9,6.8-4,9.8
	c-3.8,5.4-7.6,10.8-11.1,16.4c-6.9,10.8-5.4,20.9,0.7,31.2c0.4,0.7,0.8,1.5,1.1,2.2c0.1,0.6,0.2,1.3,0.3,1.9l0,0
	c2.5,6.8,0.7,9.8-7,11c-0.3,0-0.6,0.1-0.9,0.1c-6.2,3-13.1,3-19.7,4.3c-20.2,4.1-40.1,8.9-60.5,12.2c-2.6,0.4-5.3,0.7-7.9,0.4
	c-1.8,0-3.7,0.4-5.4-0.6c-6.2,0-12.5-0.8-18.6,0.8l0,0l0,0c-0.7,0.3-1.3,0.7-2,1l0,0l0,0l0,0c-0.3,0.3-0.7,0.6-1,0.9l0,0
	c-0.7,0.4-1.3,0.7-2,1.1l-1,0.9c-0.4,0.3-0.7,0.6-1.1,1l0,0l-1,1c-0.3,0.3-0.6,0.7-0.9,1s-0.7,0.7-1,1l0,0l0,0
	c-1.4,2.5-2.8,3.5-4.1,0l0,0l0,0c-0.3-0.3-0.7-0.7-1-1l0,0c-0.4-0.3-0.7-0.7-1.1-1c-0.3-0.2-0.6-0.3-0.9-0.4c-0.4,0-0.7-0.1-1.1-0.1
	c-0.7,1-1.3,1.9-1.9,2.9c-2,3-3.8,3.8-5.5-0.2c-0.8-1.9-2-3.8-4.1-4c-2.5-0.2-2,2.6-2.9,4c-0.7,1.1-1.4,2.4-2.4,3.1
	c-1.8,1.3-3.3,3.9-6,2.4c-2.7-1.6-3.1-4.5-1.8-7.1c1.7-3.6-0.9-5.1-2.9-6.4c-2.5-1.5-3.1,1.6-4.2,2.9c-1.6,1.8-2.9,4.1-4.6,5.8
	c-1.6,1.6-3.2,1.2-3.3-1.3c-0.6-12.6-0.2-17.7,14.6-19.7c7.6-1,15.2-1.1,22.8-1.1c5.9,0,11.7-1,16.7-4.1c3.5-2.1,6.4-2.2,9.6,0.1
	c0.1-0.3,0.2-0.6,0.3-0.9c-0.1-0.3-0.2-0.5-0.2-0.8c-0.3-0.4-0.7-0.7-1-1.1c-1.9-0.3-2.9-1.6-3.9-3.1l0,0l0,0
	c-0.3-0.3-0.7-0.6-1-0.9l0,0c-0.3-0.3-0.7-0.6-1-0.9l0,0c-0.3-0.3-0.7-0.7-1-1s-0.7-0.7-1-1s-0.7-0.7-1-1c-0.4-0.3-0.8-0.7-1.1-1
	c-0.3-0.3-0.6-0.6-0.8-0.9c-0.3-0.4-0.6-0.8-1-1.1l0,0c-0.3-0.3-0.6-0.6-0.8-0.9c-0.7-1-1.4-2-2.2-3.1c-0.3-0.6-0.7-1.3-1.1-1.9
	c-1.2-0.7-1.8-1.7-2-3.1l0,0l0,0c-0.3-0.7-0.7-1.3-1-2l0,0l0,0c-0.3-0.7-0.7-1.3-1-2l0,0l0,0c-1.6-2.1-2.8-4.3-3-7
	c-0.8-0.4-1-1.2-1-2c-0.8-0.4-0.9-1.2-1-2c-0.8-0.5-0.9-1.2-1-2l0,0l0,0c-0.3-0.7-0.7-1.3-1-2l0,0l0,0c-0.3-0.3-0.5-0.6-0.8-1
	c-0.4-1-0.8-2-1.2-3c-2-3.2-3.8-6.5-5-10.1c-0.7-0.4-0.9-1.2-1-2c-0.8-0.5-1-1.2-1-2c-0.3-0.3-0.5-0.7-0.8-1
	c-0.4-0.9-0.8-1.8-1.2-2.7c-0.3-0.7-0.7-1.5-1-2.2c-0.8-0.4-1-1.2-1-2c-0.8-0.5-0.9-1.2-1-2c-1.5-1.7-2.3-3.8-2.9-6
	c-0.1-0.2-0.2-0.5-0.1-0.7c-9.6-21.8-10.5-44-2-66.4c0.2-1.5,0.8-2.8,1.7-4c0.4-0.7,0.8-1.3,1.3-2c0.4-0.7,0.7-1.4,1-2.1
	c0.2-0.3,0.4-0.6,0.6-0.9c0.5-0.7,0.9-1.4,1.4-2.1c0.2-0.3,0.5-0.6,0.7-0.9c0.4-0.3,0.8-0.7,1.3-1l0,0c0-0.9,0.4-1.5,1.1-1.9
	c0.7-0.7,1.3-1.4,2-2c0.4-0.7,1-1.2,1.9-1.1c0-0.6,0.4-0.9,1-1l0,0c0.3-0.3,0.7-0.7,1-1s0.7-0.6,1-1l0,0c0-0.6,0-1.3,0-1.9
	c-0.3-0.3-0.6-0.6-0.9-0.9c-0.3-0.3-0.7-0.7-1-1.1l0,0v0.1c-1.4-0.2-2.7-0.4-4.3-0.6c1-2.1,2.4-3.5,4.2-4.6v0.1
	c0.3-0.4,0.7-0.8,1-1.3c1.6-1.6,3.3-3.1,4.9-4.7c0.4-0.3,0.8-0.7,1.1-1c0.4-0.3,0.8-0.6,1.1-1c0.6-0.5,1.2-0.9,1.8-1.4
	c0.7-0.5,1.4-1.1,2-1.7c0.5-0.7,1.1-1.1,2-1.1c0.3-0.3,0.7-0.7,1-1s0.7-0.6,1-0.9l0,0c0.7-0.4,1.3-0.9,2-1.3
	c3.9-7.9,11.3-10.5,19.1-12.1c1.6-0.3,3.3-0.4,4.9-0.6l0,0c0.3-0.1,0.5-0.1,0.8-0.1c0.4-0.2,0.8-0.4,1.2-0.6
	c4.5-1.9,10-0.9,14.1-4.2c-0.2-0.3-0.3-0.6-0.5-0.9s-0.5-0.6-0.7-1c-1.5-1.5-3.4-2.3-5.3-3.2c-1.7-0.8,0-0.8,0.4-1.1
	c2.8-0.9,5.6-2.4,7.9,0.9c0.7,0.2,1.3,0.3,1.9,0.5c0.7-1.9,3.8-0.4,4.1-2.8c-9.3-3.2-18.8-4-28.5-3.2c-1.5,0.1-3.9-0.1-4,1.9
	c0,1.8,1.8,3.2,3.6,3.7c2.7,0.8,5.4,1.3,8.2,2.7c-5,1.2-9.9,2.4-14.9,3.5c-4.5,1.1-9,2.6-13,5c-2.6,1.6-7,2.1-6.2,7.1
	c0.1,0.6-1.6,1.5-2.5,2.2c-5.1,3.7-10.6,7.1-14.5,12.1c-2.9,3.7-6.9,7.3-2.2,12.5c1.5,1.7-1.1,2.3-1.8,3.3
	c-8.8,9.5-12.4,21.4-15,33.6c-0.5,2.4,0,5-0.1,7.5c-0.9,18,2.5,35.1,10.3,51.5c6.2,13,12.5,26,19.2,38.9c0.9,1.7,2.3,3.3,2.4,5.4
	c0,0,0,0-0.1,0c0,0,0,0,0.1,0l0,0c1.1,0.3,0.5,0.7-0.1,1.1c-0.4,0.8-0.8,1.5-1.1,2.3c5.3,1.6,7.3,6.4,10.5,11.4
	c-7.8-0.3-14.6,3-21.8,3.1c-14,0.2-27.7,3.3-41.6,4.7c-4.3,0.4-8.6,1.1-12.9,1.2c-8.1,0.1-15.3,2.4-22.1,6.8
	c-2.1,1.4-4.1,2.6-5.7-1.3c-1.2-2.8-3.7-4.5-6.1-0.3c-0.9,1.6-2.8,2.2-4.6,2.7c-1-1.4,0.1-2.4,0.6-3.3c1.1-2.4-0.7-3.3-2-4.5
	c-1.5-1.4-2.7-0.4-3.9,0.5c-2.9,2.3-5.8,4.5-9.2,5.9c-0.9,0.4-1.8,1.2-2.7,0.3c-0.8-0.8-0.5-1.9,0-2.8c0.9-2.1,2.3-3.9-0.2-6.2
	c-2.4-2.1-3.9-0.2-5.8,0.3c-1.2,0.4-2.5,1.4-3.7,0.1c-1.1-1.2-0.3-2.5,0.2-3.7c2.5-5.8,6.9-8.8,13.1-9.2c4.2-0.3,8.3,0.2,12.4,0.9
	c12.8,2.3,25.5,1.3,38.1-1.8c1.8-0.5,3.7-1.6,6,0.2c-0.4-2.8-2.2-3.9-3.6-5.1c-14.4-11.8-26.7-25.5-36.6-41.3
	c-0.3-0.5-0.6-1.1-0.9-1.6c-0.2-0.4-0.4-0.7-0.5-1.1s-0.4-0.7-0.5-1.1c-0.1-0.2-0.2-0.4-0.3-0.5c-0.3-0.5-0.6-0.9-1-1.4l0,0l0,0
	c-0.3-0.7-0.7-1.3-1-2c-0.8-0.5-1-1.2-1-2c-0.2-0.1-0.4-0.2-0.5-0.4c-0.4-0.4-0.5-1-0.5-1.6c-0.8-0.4-1-1.2-1-2c-0.9-0.4-1-1.2-1-2
	c-0.9-0.4-1-1.2-1-2c-0.8-0.4-1-1.2-1-2l0,0c-1.4-1.4-1.9-3.1-2-5l0,0l0,0c-3.7-7.3-4.5-15-3.9-23c0.9-8,6.2-13.3,13.7-13.8
	c4.1-0.3,5.4,2.8,3.6,8c-0.6,4.3,0.3,8.4,0.8,12.7c0.9,0.5,0.9,1.3,1,2.2c0.5,0.3,1.1,0.7,1.6,1c-0.6-6.4-1.3-12.9,0.2-19.3
	c0.5-2.1,1-3.7,3.4-4.3c1.4-0.4,3-0.9,4.1-1.8c7.2-6.2,16.1-8.8,24.4-12.8c15.6-7.5,27.2-19.4,35.8-34.4c0.7-1.3,1.5-2.5,2.3-3.8
	c3.3-7.7,6.3-15.4,7.6-23.7c0.1-0.8,0.5-1.7,0.4-2.4c-0.1-0.7-0.6-1.8-1.2-2c-1.5-0.5-1.3,0.9-1.6,1.8c-5,15-12.5,28.6-22.9,40.6
	c-8.2,9.5-17.3,17.9-28.5,24.1c-0.8-2.4,1-3.6,1.5-5.2c0.5-1.6,1.4-3.2-0.5-4.5c-1.8-1.2-3.3-0.1-4.5,1c-2.5,2.5-4.8,5.1-7.2,7.6
	c-1.6,1.7-3.3,3.3-4.9,5c-1.6,1.7-2.8,1.8-4.1-0.5c-1.6-2.7-3.7-2.5-6.2-0.7c-3.4,2.4-7,4.5-10.6,6.6c-1.4,0.8-2.4,1.8-3.5-1
	c-1.1-3-4-4.2-7.5-3.3c-1.8,0.5-3.6,0.8-5.4,1c-4.4,0.5-8.5,2-13.3,0c-4.1-1.7-9.1,0.6-13.7,1.4c-3.8,0.7-7.5,1.3-10.2-2.7
	c-1.2-1.8-3.2-2.2-5.4-1.9c-2.1,0.3-4.3,0.5-6.4,0.9c-12.5,2.4-22.3-4-32.4-9.8c-12.1-7-23.3-15.4-36-21.4
	c-5.2-2.4-10.3-1.7-15.5-0.7c-0.5-1.9,2.7-2.6,1.1-4.6c-1.5-1.9-3.6-1.7-5.5-1.2c-6.4,1.5-12.1,4.5-18.1,7.1
	c-3.7,1.6-7.5,3.7-12.6,1c6.9-5.7,15.3-6.4,22.5-9.6c0.4-0.3,0.8-0.5,1.3-0.8c2.2-1.3,5.7-2.1,5.1-5.2c-0.7-3.3-4.2-1.2-6.4-1.8
	c-0.7,0.3-1.5,0.7-2.2,1s-1.3,0.7-2,1c-1.4,1.3-3.1,1.8-5,2V502l0,0l0,0c-4.4,2.5-9.1,4.3-14.1,5.3c-1,0.8-1.9,0.5-2.5-0.4
	s0.7-1.3,0.8-2.1c2.2-2.1,5-2.9,7.7-4c1.7-1.4,3.6-2.4,5.7-3c0.8-0.3,1.5-0.7,2.3-1.1c0.7-0.5,1.3-1,2-1.4c0.3-0.2,0.6-0.3,0.8-0.5
	c0.7-0.4,1.4-0.7,2.2-1.1l-0.1,0.1l0,0c0.4-0.3,0.7-0.6,1.1-0.9c0-0.6-0.1-1.3-0.1-1.9c-8.9,1-16.8,5.2-26.5,8.5
	c2.5-2.9,3.1-5.4,5.5-6.7H12c-0.1-0.3,0-0.6,0.3-0.8c2.7-4,6-7.3,10-10c0.6-0.4,1.3-0.8,1.9-1.2v0.1c0.3-0.3,0.7-0.7,1-1l0,0
	c0.7-0.4,1.3-0.7,2-1.1v0.1l0,0c0.4-0.3,0.7-0.6,1-1l0,0c0.6-0.4,1.3-0.7,1.9-1l0,0c0.5-0.8,1.2-1,2-1.1c0.4-0.8,1.2-1,2-1
	c0.4-0.8,1.2-0.9,2-1c0.5-0.8,1.2-0.9,2-1c0.8-0.9,1.8-1.2,2.9-1c0.3-1,1.2-1,2-1v0.1c2.9-2.6,6.6-2.6,10.1-3.6c3-0.6,6-1.2,9-1.8
	c-0.2-0.5-1.3-1.2-0.8-1.3c3.9-0.2,7.9-0.1,11.8,0c0,0,0,0.8,0,1.3c4.8,1,9.6,2,14.5,3.1c2.9,0.6,6.1,0.4,8.7,2.4
	c0.3,0,0.6,0,0.9,0.1c2.6-0.7,5.2-1.5,7.9-1c0.7,0,1.4,0.1,2.1,0.1c6.8,0.3,13.1,3.7,20,2.9c5.8-2.9,9.5-7.4,12.2-13.6
	c1.8-4.3,5.4-7.5,1.3-12.2c-3.1-3.5-6-7.1-10.5-8.8c-1.6-0.8-3.7,0.2-5-1.4c-8.4-0.3-16.8,0.4-25.2,1.1c-5.2,1.8-10.5,0.7-15.7,0.5
	c-11.6-0.3-23.1-1-34.7-1.8c-6.2-0.4-12.5-0.9-18.4-2.9c-6.5-0.1-12.3-2.6-18-5.3c-3.2-1.5-6.1-2.7-9.7-2.1
	c-2.7,0.5-5.3-0.1-4.3-3.9c3.2-11.9,3-24.3,6-36.2c1.8-7.2,3.6-14.5,5.4-21.7c0.4-1,0-2.4,1.4-3l0,0l0,0c-0.5-3.6,0.9-6.7,2.2-9.9
	c0.2-0.7,0.4-1.4,0.6-2.1c0.3-1,0.1-2.3,1.2-3c0,0,0,0-0.1,0c0-1.1-0.1-2.3,1.1-3c0,0,0,0-0.1,0c0-1.1-0.1-2.3,1-3l0,0h-0.1
	c0-0.8-0.1-1.7,1-2c-0.2-1.5,0-2.9,0.9-4.1c7.5-19.9,17.1-38.2,37.5-47.7c6.8-3.2,12.2-7.2,15.6-13.8c0.2-1.2,0.1-2.5,1.2-3.4h-0.1
	l0,0l0,0l0,0c0.7-2.2,1.4-4.3,2.1-6.5s1.4-4.3,2.1-6.5c0.2-0.7,0.4-1.4,0.7-2.1c0.5-1.8,1-3.5,2.3-4.9l0,0l0,0
	c0.3-0.4,0.6-0.7,0.9-1l0,0l-0.1,0.1c0-0.9,0.4-1.6,1.1-2.1c0.2-0.3,0.4-0.6,0.6-0.9c0.5-0.3,0.9-0.7,1.4-1h-0.1
	c0-0.7,0.3-1.1,1-1.1c0-0.7,0.3-1,1-1c0-0.7,0.3-1,1-1c0-0.7,0.4-1,1-1v0.1l0,0c0.3-0.4,0.7-0.9,1-1.3c0.3-0.2,0.7-0.5,1-0.7
	c0.7-0.4,1.3-0.7,2-1.1c6.6-4.9,12.3-5.2,18.1-1l0,0c0.3,0.3,0.6,0.6,1,1c0.6,0.1,1,0.4,1.1,1.1c0.3,0.3,0.7,0.7,1,1H114
	c0.4,0.3,0.8,0.7,1.2,1c0.3,0.3,0.5,0.7,0.8,1c0.4,0.6,0.7,1.3,1.1,1.9c0.8,0.5,1,1.2,1.1,2c0.8,0.4,1,1.2,1,2c0.8,0.4,0.9,1.2,1,2
	l-0.1-0.1l0,0c2.3,3,2.7,6.7,4,10H124l0,0c2.9,4.4-0.1,12-5.1,12c-6.1,0-12.1,0.3-18,2.1l0,0c0,0.3,0,0.7,0,1l0,0l1.1,0.9
	c0.3,0,0.6,0.1,0.9,0.2c4.7-0.6,9.5-1.2,14.2-1.8c3.2-0.5,5.9-0.7,3.9,4c-0.7,1.6-0.9,3.5-1.3,5.3c-0.2,1.1-0.9,2.5,0.4,3.1
	c1.4,0.6,1.5-1.4,2.6-1.8c0-0.3,0.1-0.6,0.2-0.8c0.2-0.5,0.4-0.9,0.9-1.2c0.3-0.7,0.7-1.3,1-2l0,0h-0.1c0.3-0.7,0.6-1.3,1-2
	c0.6-1.3,1.2-2.7,1.8-4c0.6-1.7,0.9-3.6,2.3-5l-0.1,0.1c1.1-4,2.2-7.9,3.3-11.9c0.6-4.5,2-8.7,3.6-12.9c2.5-6.6,7-8.1,12.9-4.1
	c3.6,2.4,6.8,5.3,9.5,8.8c0.4,0.4,0.7,0.8,1.1,1.2c0.6,0.7,1.2,1.4,1.8,2.2c0.4,0.6,0.8,1.2,1.2,1.8l-0.1-0.1l0,0
	c0.3,0.3,0.6,0.7,1,1l0,0c0.5,0.7,1,1.3,1.5,2c0.2,0.3,0.3,0.6,0.5,0.9c0.4,0.7,0.7,1.4,1,2.1c0.2,0.1,0.4,0.2,0.5,0.4
	c0.4,0.4,0.5,1,0.5,1.6c0.9,0.4,0.8,1.3,0.9,2c0.8,0.4,1,1.2,1.2,2c0.2,0.7,0.5,1.4,0.7,2c2.5,5.5,2.4,11.2,2,17c0,0.7,0,1.3-0.1,2
	c-0.4,8.6-0.8,17.3-1.2,26c1.9,3,3.6,3.2,5-0.4c0.7-1.9,1.6-3.7,2.2-5.5c2.9-8.7,3.7-9.3,13.6-8.8c-0.1,2.4-4.5,2.2-3.3,4.8
	c1.3,2.8,4.1,4.2,7.2,4.7c2.8,0.5,5.3-0.3,7,4.4c1.8,5,8.6,6.4,13.7,8.8c0.1,0.1,0.3,0.3,0.3,0.3c-0.1,0.3-0.2,0.5-0.3,0.8
	c0.1,1.1,0.2,2.3-1,3c-1.7,3.9-1.4,7.9-1,11.9c0.7,0.5,1,1.1,1,2h-0.1c0.5,0.3,0.9,0.7,1.3,1c7.4-8.3,16.8-9.2,26.8-7
	c5.5,1.2,8.5,6.7,13.8,8.6c1.6,0.6,2.5,1.1,4.3,0.5c8.5-3.1,16.9-7,26.1-7.5c3.9-0.2,7.8,0.1,11.6-0.7c3.2-2.2,7,0,10.3-1.8
	c-1.3-0.6-3,0.4-4.5-1.1H337c8.7,1.3,17.4,2.6,26,4c0.4-0.4,0.8-0.8,1.3-1.2c-8.7-3.5-17.8-4.8-27-6c-2.6-0.3-4.8-1-6.6-2.8
	c-0.3,0-0.5,0-0.7-0.2c-0.3-0.3-0.7-0.6-1-0.8c-0.8,0-1.6-0.2-2-1c-0.8,0-1.6-0.1-2-1c-0.8,0-1.6-0.1-2-1c-2.7-0.2-5-1.3-7-3l0,0
	l0,0l0,0c-16.3-6-33.1-11.1-44.3-25.8c-0.3-0.4-0.6-0.8-0.9-1.1c-0.2-0.2-0.5-0.5-0.5-0.6c0.4-0.5,0.7-0.2,1,0.1
	c0.4,0.3,0.7,0.6,1.1,0.9l0,0c1.7,0.8,3.4,1.7,5,2.7c0.3,0.2,0.6,0.4,1,0.6c1.9,1.2,3.7,2.5,5.5,3.8c1.2,0.9,2.4,1.8,3.6,2.6
	c8.5,6.2,18.1,9.8,28,12.5c2.3,0.6,4.9,0.2,7.4,0.3c0-0.6,0-1.3,0-1.9c-0.3-0.3-0.7-0.7-1-1l0,0c-0.3-0.3-0.6-0.6-1-0.9
	c-1.3,0-2.6-0.1-4-0.1c-1.2,0.1-2.4,0.2-3.1-1.1c-8.6-2.2-16.5-5.9-24-10.6c-7.6-4.8-15-10-22.4-15c-1.2-0.8-2.5-2.5-3.9-1.2
	s0.2,2.8,0.9,4c7,13.3,18.5,21.7,31.9,27.6c9,4,18.1,7.5,27.2,11.3c1.1,0.4,2.6,0.3,2.9,2.1c-22.3-1.2-44,1.6-65.2,8.4
	c-3,1-5.9,0.8-8.5-1.3c-5.5-4.5-11.9-5.7-18.8-5.2c-2.7,0.2-5.4,0.3-8.7,0.5c0.8-1.3,1-2.1,1.6-2.6c3.8-3.1,2-5.4-1-7.8
	c-3.2-2.6-6.9-3.9-10.8-5.1c-1-0.3-3.2-0.2-2-2.2c2.5-4.2-1.2-5.2-3.4-6.7c-2.5-1.7-5.8-1.9-8.9-2.6c3.5-3.8,2.9-6-1.6-7.6
	c-2.6-0.9-5.2-1.1-7.9-0.8c-3.2,0.3-6.4,0.8-9.7,1.2c-0.1-3.3,0-6.6-0.5-9.9c-3.1-23.4-17.2-39.4-35.5-52.5
	c-0.9-0.7-2.1-1.1-3.2-1.4c-6.7-2.3-10.1-0.5-12,6.3c-0.9,3.4-1.5,6.8-2.5,11.7c-3.6-8.9-8.7-14.7-15.5-18.8
	c-11.6-7-23.4-5.2-32.3,4.9c-4.1,4.7-7.1,10-8.6,16.2c-1.2,4.8-2.1,9.8-3.6,14.5c-2.4,7.5-6.7,15.5-13.7,17.4
	c-17.4,4.6-28.8,15.3-37.3,30.1C0.9,342.4-6.6,372.3-5.1,404.5C-4.8,410.9-6.9,417-9,423v5c5.5,5.6,11.9,7.7,19.5,4.8
	c2-0.8,3.1,0.7,4.5,1.5c8.8,5.6,18.5,9,28.8,10.9c16.6,3,33.2,1.5,49.8-0.2c3.9-0.4,6.9,0.2,8.8,4c2.8,5.7-0.2,10.9-2.4,15.7
	c-1.2,2.6-4.6-0.2-7-0.6c-2.9-0.5-5.8-1.4-8.7-2.1c-16.1-4.1-32.7-3.7-49.1-4.5c-8.3-0.4-16.6,1.2-24.2,5
	C1.4,467-2.3,474.6,0.4,484.7c0.9,3.3,0.5,6-0.6,9c-1.8,4.8-3.2,9.2,1.6,14.1c2.6,2.6,5.6,4.7,8.1,7.3c3.3,3.6,7.4,5.6,11.9,5.4
	c9.2-0.3,18.4,0.9,27.6-1.7c10.3-2.9,20.3-1.1,28.9,5.5c6.8,5.3,14,9.6,21.6,13.7c2,1.1,4,2.3,5.2,4.5c2.1,4,5.8,5.5,10,6.6
	c10.3,2.8,21.2,1.2,31.4,5.7c4.9,2.1,11.1,1.1,16.7,0c6.7-1.3,13.5-2,20.8-2.3c-2.8,3.9,0,5.5,2.5,7.1c1,0.6,2.6,0.4,1.4,2.5
	c-3.6,7-2.6,14.3-0.8,21.5c7.6,31.1,25.5,55.2,50.8,74.3c1.2,0.1,2.5,0.6,2.3,1.9c-0.2,0.9-1.6,0.5-2.5,0.1
	c-15.6-0.5-31.3,0.3-46.9-2c-5.6-0.8-10.9,1.2-15.1,5.2c-4.8,4.5-5.5,12.6-1.3,16.1c3,2.4,7.4,3.2,8.3,7.9c0.1,0.6,1.9,1.1,3,1.4
	c3,0.7,5.9,0.7,8.9-0.1c1.6-0.4,2.9-0.9,4.5,0.8c3.2,3.5,7.2,2.7,11,1.2c1.1-0.5,2-1.8,3.4-0.3c3.3,3.3,7,2.4,10.6,0.6
	c7.5-3.7,15.4-6.3,23.8-7c7.6-0.7,15.3-0.9,22.8-2.5c3.4-1.3,6.8-2.4,10.5-2.2c14.3-3,28.7-4.8,43.3-4.5c-6.9,4-14.3,5.3-21.9,5.4
	c-7,0.2-14,0.2-21,0.3c-3.6,1-7.3,1.9-10.9,2.9c-4.5,2.8-5.6,7-5.4,12s2.1,9.7,3.3,14.5c0.8,3.1,3.9,5.8,6.8,4.3
	c5.8-3,9.2,1,13.3,3.3h8c1.2-1.7,2.7-3.7,5-2.5c5.2,2.7,11-2.8,16.1,1.4c0.6,0.5,2.8-0.7,4.1-1.4c2.3-1.1,4.1-3,5.5-5
	c4.9-6.6,11.5-7.8,19.1-7c10,1,19.9,1,29.8-1.3c5.8-1.4,11.8-2.3,17.7-3.2c18.7-2.5,37-6.3,55-12c7-2.2,8.7-5.6,6.6-12.5
	c-0.9-2.9-2.1-5.7-3.5-8.3c-4.7-8.5-4-16.9-0.4-25.5c1.3-2.9,3-4.2,6.3-4.4c14.6-0.8,29.2-2,43.7-4.5c17.5-3,33.9-8.4,47.8-19.9
	c6.8-5.6,12-12.4,15.7-20.4c0.7-1.4,1.2-2.7-0.2-4s-2.3,0-3.5,0.2c-2.2,0.3-4.3,2-7.2,1.1c6.3-4.9,12.3-9.5,17.2-15.4
	c6.5-7.7,11.3-16.4,11.3-26.5c0-4.5,1.7-6.8,4.3-9.5c14.6-14.6,26.2-31,30-51.9c0.8-4.3,1.4-8.6-0.1-13.1
	c-15.9,14-18.4,15.6-23.5,15c15.1-10.5,25-24.1,27.5-42.5c0.2-1.3-0.2-3.1,1.6-3.9v-6C620,434,618.6,435.3,617.1,436.1z
	 M577.8,384.2c-0.2-0.2-0.5-0.3-0.5-0.5c0-0.4,0-1,0.6-0.7C577.9,383.4,577.8,383.8,577.8,384.2z M102.3,444.6
	c0.7-1.3,1.7-1.5,2.6-1.5c8.4,0.1,16.9-0.9,25.3,0.9c4.5,1,7,6.2,5,10.3c-4.7,9.4-17.9,15.4-29.1,12.9
	C111.3,458.5,108.8,451.1,102.3,444.6z M609.1,493.1C609.1,493.1,609.1,493,609.1,493.1C609.1,493,609.1,493,609.1,493.1
	L609.1,493.1z M608.1,495.1L608.1,495.1C608.1,495,608.1,495,608.1,495.1L608.1,495.1z M607.1,497.1L607.1,497.1
	C607.1,497,607.1,497,607.1,497.1L607.1,497.1z M606.1,499.1L606.1,499.1C606.1,499,606.1,499,606.1,499.1L606.1,499.1z
	 M468.1,586.1L468.1,586.1C468.1,586,468.1,586,468.1,586.1L468.1,586.1z M467.1,590.1L467.1,590.1L467.1,590.1L467.1,590.1z
	 M466.1,594.1L466.1,594.1C466.1,594,466.1,594,466.1,594.1L466.1,594.1z M463.2,435L463.2,435C463.1,434.9,463.1,434.9,463.2,435
	L463.2,435z M461.2,429L461.2,429C461.1,428.9,461.1,428.9,461.2,429L461.2,429z M457.1,420L457.1,420
	C457.1,419.9,457.1,419.9,457.1,420L457.1,420z M456.2,418L456.2,418C456.1,417.9,456.1,417.9,456.2,418L456.2,418z M455.1,416
	C455.1,416,455.1,415.9,455.1,416C455.1,415.9,455.1,415.9,455.1,416L455.1,416z M327.1,699L327.1,699L327.1,699L327.1,699z
	 M326.9,324.1L326.9,324.1C327,324.1,327,324.1,326.9,324.1L326.9,324.1z M324.9,323.1L324.9,323.1L324.9,323.1L324.9,323.1z
	 M323,314.9L323,314.9L323,314.9L323,314.9z M309.9,645L309.9,645C309.9,645.1,309.9,645.1,309.9,645L309.9,645z M308.9,643
	L308.9,643C308.9,643.1,308.9,643.1,308.9,643L308.9,643z M301,519.9L301,519.9L301,519.9L301,519.9z M298.9,623L298.9,623
	C298.9,623.1,298.9,623.1,298.9,623L298.9,623z M293.9,613L293.9,613C293.9,613.1,293.9,613.1,293.9,613L293.9,613z M290.9,531.9
	L290.9,531.9L290.9,531.9C290.9,532,290.9,531.9,290.9,531.9z M216,326.1L216,326.1C216.1,326.1,216.1,326.1,216,326.1
	C216.1,326,216.1,326,216,326.1L216,326.1z M215.1,337.9L215.1,337.9L215.1,337.9L215.1,337.9L215.1,337.9z M208.1,575.9
	C208.1,576,208.1,576,208.1,575.9L208.1,575.9L208.1,575.9L208.1,575.9z M200.9,607.1L200.9,607.1C200.9,607,200.9,607,200.9,607.1
	C200.9,607,200.9,607,200.9,607.1L200.9,607.1L200.9,607.1L200.9,607.1z M199.9,605L199.9,605C199.9,605.1,199.9,605.1,199.9,605
	L199.9,605z M198.9,603L198.9,603C198.9,603.1,198.9,603.1,198.9,603L198.9,603z M197.9,601L197.9,601
	C197.9,601.1,197.9,601.1,197.9,601L197.9,601z M196.9,599L196.9,599C196.9,599.1,196.9,599.1,196.9,599L196.9,599z M169.1,265
	L169.1,265C169.1,264.9,169.1,264.9,169.1,265L169.1,265z M168.2,262.9L168.2,262.9C168.2,262.9,168.1,262.9,168.2,262.9
	L168.2,262.9z M167.1,260.9L167.1,260.9L167.1,260.9L167.1,260.9z M167.1,260.9L167.1,260.9L167.1,260.9L167.1,260.9z M122.9,284.9
	L122.9,284.9L122.9,284.9L122.9,284.9L122.9,284.9C122.8,284.9,122.8,284.9,122.9,284.9L122.9,284.9z M119.2,248L119.2,248
	C119.1,247.9,119.1,247.9,119.2,248L119.2,248z M118.2,246L118.2,246C118.1,245.9,118.1,245.9,118.2,246L118.2,246z M87.9,241.9
	L87.9,241.9L87.9,241.9L87.9,241.9z M86.9,242.9L86.9,242.9L86.9,242.9L86.9,242.9z M85.9,243.9L85.9,243.9L85.9,243.9L85.9,243.9z
	 M40.9,471.8L40.9,471.8C40.9,471.8,40.9,471.9,40.9,471.8L40.9,471.8z M36,473.8L36,473.8C35.9,473.9,35.9,473.9,36,473.8L36,473.8
	z M34,474.8L34,474.8C33.9,474.9,33.9,474.9,34,474.8L34,474.8z M32.9,491L32.9,491C32.9,491.1,33,491.1,32.9,491L32.9,491z
	 M32,475.9L32,475.9C31.9,475.9,31.9,475.9,32,475.9L32,475.9z M18.8,338.9L18.8,338.9L18.8,338.9L18.8,338.9z"/>
<path style="fill:#050505;" d="M433,77c-2.1,2.8-5.4,4.1-8.1,6.2c-9.3,7.2-17.8,15.3-24.6,25c-1,1.4-2.7,2.6-2.1,4.8
	c-0.4,1-0.8,2-1.2,3.1c-0.3,0.2-0.6,0.5-1,0.7c-0.3,0.4-0.7,0.8-1,1.2v-0.1c-2.4,1.8-2.6,4.7-3.7,7.2l-0.1,0.1c-0.4,0-0.7,0-1.1,0
	c-0.4-0.7-0.8-1.5-1.2-2.2c0.4-5.6,2.8-10.6,4.4-15.9h-0.1c0.3-0.4,0.6-0.7,0.9-1.1l0,0c0.4-0.7,0.7-1.3,1.1-2v0.1
	c0.4-0.7,0.7-1.4,1.1-2l-0.1,0.1c0.4-0.4,0.7-0.7,1.1-1.1c0.3-0.4,0.6-0.8,0.9-1.2c0.5-0.6,0.9-1.2,1.4-1.8c0.6-0.7,1.1-1.3,1.7-2
	c3.8-3.5,7.6-7,11.4-10.5c0.3-0.4,1.5-0.4,1-1.2c-0.4-0.5-1.2-0.2-1.6,0.5c-4.9,2.2-9.6,4.9-13.9,8.1l0,0c-0.4,0.3-0.7,0.7-1.1,1
	v-0.1c-0.7,0.4-1.3,0.7-2,1.1l0,0c-0.4,0.3-0.7,0.7-1.1,1v-0.1c-1.3,0.2-2.3,0.9-3,2.1v-0.1c-1.2,0.4-2.2,1.1-2.9,2.1l0,0
	c-0.4,0.3-0.7,0.7-1.1,1l0.1-0.1c-0.4,0.4-0.7,0.7-1.1,1.1v-0.1c-1.1,0.3-2,0.8-2.1,2.1l0.1-0.1c-0.9-0.1-1.5,0.4-1.9,1.1l0,0
	c-0.4,0.3-0.7,0.7-1.1,1l0,0c-0.4,0.3-0.8,0.7-1.1,1c-0.3,0.3-0.6,0.6-0.9,0.9c-0.4,0.4-0.7,0.8-1.1,1.1l0.1-0.1
	c-0.4,0.4-0.7,0.7-1.1,1.1l0.1-0.1c-0.4,0.4-0.7,0.7-1.1,1.1l0.1-0.1c-0.4,0.4-0.7,0.7-1.1,1.1l0.1-0.1c-0.3,0.4-0.7,0.7-1,1.1l0,0
	c-0.3,0.3-0.7,0.7-1,1c-1.9,2-3.9,3.9-5.1,6.5c-0.3,0.5-0.7,1-1,1.5v-0.1c-1.1,0.7-1.8,1.8-2.1,3.1l0.1-0.1
	c-2.5,1.7-2.6,4.6-3.3,7.1c-2.5,0.9-2,2.3-0.8,3.9c-0.1,0.7-0.2,1.4-0.3,2.1c-3-4-1.3-8.5-1.2-12.8c0.2-4.4,2.7-8.6,1.4-13.2
	c0.3-0.7,0.5-1.4,0.8-2c1.5-0.9,2.8-1.9,1.5-3.9c0.6-1.5,1.1-2.9,2.1-5.7c-3.7,3.9-6.6,6.8-8.5,10.5h0.1c-0.3,0.4-0.7,0.7-1,1.1l0,0
	c-0.4,0.7-0.7,1.3-1.1,2l0.1-0.1c-0.3,0.4-0.7,0.7-1,1.1v-0.1c-0.7,0.5-1.1,1.2-1.1,2v-0.1c-1.2,0.7-1.7,1.8-2,3.1l0.1-0.1
	c-0.4,0.7-0.7,1.4-1.1,2.1l0.1-0.1c-0.8,0.4-1,1.2-1.1,2.1l0.1-0.1c-0.8,0.4-1,1.3-1,2.1l0.1-0.1c-3,3.9-2.8,8.9-4.9,13.1
	c-2-3-0.4,2.5-1.7,1c-1.6-6.4-1.7-12.5-0.4-18.7c0.4-1.7,0.9-4-1.1-5.5c0-4.1,1.1-8,2.1-11.9c0.6-2.6-0.8-1.2-1.7-0.6
	c-0.1-0.5-0.2-1-0.2-1.5c1.8-2.6,3.6-5.3,5.5-7.9c-1.1,12.1-1.9,23.8-2.4,36c4.9-17.9,16.7-29.8,32.7-39.1
	c-3.5,7.9-6.9,15.2-9.3,23.2c2.3,0.2,2.8-1.5,3.6-2.5c13.6-16.7,29.7-29.4,51.5-33.5c0.7-0.1,1.3-0.4,1.4-1.1
	C426.3,77,429.7,77,433,77z M367.1,115.3c-0.4-0.3-0.6-0.6-0.8-0.6c-0.4,0.2-0.7,0.5-1,0.7c0.2,0.2,0.5,0.5,0.7,0.5
	C366.4,115.8,366.7,115.5,367.1,115.3z"/>
<path style="fill:#050505;" d="M273.9,187.3c-0.3-1.4-1.5-1.3-2.6-1.3c-0.3-2-0.6-4-0.9-6c0.5,0,1,0,1.5,0
	c7.2,9.3,12.7,19.9,20.5,28.8c0.6,0.6,0.4,2.3,1.5,1.7c0.9-0.5,0.4-2-0.3-3c-9.3-17.3-10.1-35.9-8.3-56.1c1.8,6.7,4.3,11.9,6.8,17.1
	c2.6,5.4,6.3,10.1,9.8,15c0.7,1,0.8,3.5,3.2,2.6H305c-1.7,1.1,0.1,1.7,0.4,2.5c0.8,0.6,0.1,2.2,1.5,2.4c0.3,0.5,0.4,1.4,0.8,1.6
	c0.8,0.3,1.1-0.5,1-1.1c-0.2-1.3-0.7-2.5-1.8-3.3c-0.2-0.1-0.4-0.3-0.7-0.3c-0.1-0.6-0.2-1.2-0.4-1.9c-0.1-1,0.1-2.2-1.1-2.8
	c-0.7-0.5-0.9-1.2-0.8-2.1c0.8-0.4,1.5-0.7,2.3-1.1c1.1,2.7,2.2,5.4,3.3,8.1c0.1,0.3,0.2,0.6,0.4,0.9c0.2,2.5,2.8,4.3,1.9,7.1
	c-0.9,0.6-0.9,1.3-0.3,2c0.6,0.6,1.1,0.5,1.5-0.3c0.9,0.8,1.8,1.6,2.7,2.4v-0.1c0,0.9,0.3,1.6,1.1,2.2c0,0.3,0,0.5,0.2,0.8
	c0,1.4,0.8,2.3,1.8,3.1h-0.1c0.1,0.6,0.1,1.3,0.2,1.9c-2.7-0.4-3.8-3-5.6-4.6c-3.9-3.7-6.8-8.4-11.4-11.5l-0.1,0.1
	c0.4-1-0.2-1.6-1-2v0.1c-0.3-0.4-0.7-0.8-1-1.2c-3.4-4.8-6.8-9.6-10.2-14.5c1,8.7,1.3,17.2,5.2,25.1c5.2,10.5,9.6,21.5,14.3,32.2
	c-0.2,0.2-0.4,0.4-0.5,0.5c-1.7-1.3-3.4-2.6-5-4c-8.8-8.2-16.5-17.4-23.4-27.3c-2.1-3.7-4.3-7.3-6.4-11v0.1
	C274,189.1,273.9,188.2,273.9,187.3z"/>
<path style="fill:#050505;" d="M510.9,240.1c-2-3.4-3.9-6.9-5.9-10.3c-0.5-0.8-0.8-2.1-2.1-1.7c-1.8,0.5,1,2-0.6,2.8
	c-3.2-2.7-6.5-5.4-9.7-8.2c-3.3-2.9-7.2-4.8-11.4-5.9c-6.6-1.7-9.2-0.4-11.2,6.1c-0.6,2-1.3,2.4-3.1,1.9c-1.2-0.3-2.5-0.8-4,0.2
	c0.7,1.3,1.4,2.6,2.1,3.9c2.3,4.1,5.2,8.2-1.6,11c-1.9,0.8-0.8,1.8,0.1,2.6c2.2,1.7,4.5,3.5,6.8,5.1c2.9,1.9,3.4,3.9,0.5,6.2
	c-1,0.8-1.8,1.9-2.8,2.9c-1.6,1.5-2.3,2.9,0.5,3.8c0.8,0.3,1.5,0.7,2.2,1.2c3,2.2,5.4,4.3,1,7.6c-1,0.7-2.9,2.1-1.6,3.5
	c1.2,1.3,2.3,3.2,4.8,2.9c9.3-1.1,12.3,0.9,15.3,9.8c0.3,0.9,0.6,1.8,1.2,3.2c1.9-2,3.4-3.8,5.1-5.4c0.9-0.8,1.4-2.7,3.1-1.8
	c1.3,0.7,2.4,2,2.4,3.6c0.1,2.2,0,4.3,0,6.6c2.3-0.9,1.2-4.5,3.3-4.6c2.5-0.1,4.4,2.1,6.3,3.7c1.6,1.4,3.1,3,4.4,4.8
	c1.3,1.7,2.3,3.6,3.6,5.9c2.9-5.8,4-12,7.9-17.5c5.4,13.8,9.6,27.4,10.6,42c2.2-10.7,3.8-21.5,6.5-32.9c4.5,14.7,8.8,28.6,13.1,42.4
	c1.8-6.6,0.3-13,0.4-20.6c3.1,5.8,5.1,10.9,6.9,16.1c-1.5,0.2-3.8-0.5-3.7,2c0.2,5.3-1.1,10.8,0.8,16c0.6,3.3-1.6,5.9-2.1,9l0.1-0.1
	c-0.9,0.4-1,1.2-1.1,2.1l0.1-0.1c-0.5,0.7-0.9,1.4-1.4,2c-0.5,0.4-1,0.7-1.5,1.1c0-1.8-0.1-3.6-0.1-5.4c-0.2-7-0.2-14-2.9-20.6
	c0-0.3,0-0.6-0.1-0.9c0.3-1.2,0.4-2.4-0.9-3.1c0-0.3,0-0.6-0.1-0.9c0.3-1.2,0.4-2.3-0.9-3.1c0-0.3-0.1-0.6-0.1-0.9
	c0.3-1.2,0.4-2.3-0.9-3c0-0.3-0.1-0.6-0.1-1c0.2-1.1,0.4-2.3-0.8-3.1l0.1,0.1c-0.2-4.3-1.4-8.3-3-12.2c-0.2-0.7,0-2.1-1.3-0.7
	c-1.4,5.3-1.3,10.6-0.1,15.8c0.6,4.2-1.3,8-2,12.1h0.1c-1.7,2.1-2.2,4.6-2.8,7.1c-0.4,0.7-0.7,1.3-1.1,2c-0.3,0.3-0.7,0.7-1,1l0,0
	c-3.4,2.2-2.6-1.2-2.8-2.4c-1.2-5.9-1.3-12-3.1-17.9c-0.2-3.8,0.4-7.6-0.7-11.3c-0.1-4.5-0.6-9-1.5-13.4c-1.4-2.2-2.5-2.2-3.8,0.4
	c-1.4,2.8-2.5,5.8-4.1,8.5c-0.8,1.4-0.9,4.3-3.3,3.6c-2.1-0.7-3.7-2.6-3.6-5.4c0.1-2.5,0.4-5-1.2-7.2c0.3-1.2,0.3-2.3-0.8-3.1
	l0.1,0.1c-0.1-0.8-0.2-1.6-1.1-2.1l0.1,0.1c-0.4-0.7-0.7-1.4-1.1-2l0,0c-1-1.5-2.1-3.3-3.3-0.1l0.1,0.1c-0.9,0.4-1,1.3-1.2,2
	c-0.3,0.7-0.6,1.3-0.8,2c-1.1,1.5-1.9,3.1-2,5h0.1c-0.9,0.4-1,1.2-1,2.1l0.1-0.1c-0.2,0.3-0.5,0.7-0.7,1c-1.8,1.7-2.5-0.5-3.7-1
	c-0.1-4.2-0.2-8.5-0.3-12.7c0-0.6,0.4-1.8-0.9-1.6c-0.5,0.1-0.9,0.9-1.3,1.4c-2.4,1.7-4.3,3.8-6,6.1c-1.1,0.4-2,0.1-2.9-0.5
	c-0.2-0.2-0.5-0.4-0.7-0.7c-1.2-1.9-0.2-3.7,0.1-5.7c0.5-3.1,1.8-6.3-0.4-9.3h0.1c-0.1-1.3-0.7-2-2.1-2.1l0,0c-1-2-2.9-1.8-4.7-1.9
	c-2.8-0.1-5.6-0.1-8.3-0.1l0,0c-0.3-1.1-1.2-1-2.1-1l0.1,0.1c-0.7-1.1-2-0.9-3-1.4c-6.4-3.8-6.7-4.6-1.9-9.5c2.8-2.8,1-3.4-1.3-4.6
	c-5.6-2.9-5.7-3.8-1.6-8.4c5-5.7,5-5.7-0.9-10.3c-0.8-0.6-1.6-1.2-2.4-1.8c-2.8-2-3.8-3.6,0.5-5.1c4.1-1.4,4.8-4.1,2.6-7.8
	c-1.4-2.4-2.6-4.9-3.9-7.5c3.2-1.6,9.1,2.1,8.9-4.9c0.3-0.5,0.7-1,1-1.5l-0.1,0.1c0.3-0.4,0.7-0.7,1-1.1l-0.1,0.1
	c0.4-0.3,0.7-0.7,1.1-1l-0.1,0.1c0.7-0.3,1.4-0.7,2.1-1l-0.1,0.1c2,0.2,4,0.3,5.9,0.5c6.8,2.6,13,6.2,18.7,10.7
	c0.4,0.2,0.7,0.3,1.1,0.5c-0.1-0.4-0.1-0.8-0.2-1.2c0-1.8-1.5-3.5-0.9-6c4.2,2.8,7.1,6.2,9.6,9.9c2.8,4.1,5.3,8.3,7.9,12.5
	C511.7,238,511,238.8,510.9,240.1z"/>
<path style="fill:#050505;" d="M501.6,98.2c0.4-0.3,0.9-0.7,1.3-1c5.6,1.2,10.2,4.4,15,7.5c-8.7,0-17.3-1.2-25.9-0.6
	c-4.6,0.7-9,0.8-13.2-1.7c0.7-0.4,1.4-0.8,2.1-1.3l-0.1,0.1c1-0.1,1.9-0.2,2.9-0.3c0.4-0.1,0.8-0.3,1.1-0.4
	C490.6,99.7,496.1,98.9,501.6,98.2z"/>
<path style="fill:#050505;" d="M109.7,348.2v0.1c-1.1-0.4-1.6-1.3-2.1-2.2l-0.7-0.7c-0.7-0.7-1.5-1.4-2.2-2.2l0,0
	c-0.9,0-1.5-0.5-2-1.2c-0.3,0-0.5,0-0.7-0.3c-0.3-0.3-0.7-0.5-1-0.7l0,0l0.1,0.1c-0.7-0.3-1.4-0.7-2.1-1l0.1,0.1
	c-6.3-1.7-12.5-1.8-18.8,0c-0.4,0.8-1.3,0.9-2.1,1c-1,0.7-1.9,1.3-2.9,2v-0.1l0,0c-0.3,0.3-0.7,0.7-1,1l0,0h0.1c-0.7,1-1.4,2-2.1,3
	l0,0l0,0l0.1-0.1c-0.8,3-1.5,5.9-2.3,8.9c0,4-0.1,8,0.1,11.9c0.2,4.5,5.1,8.1,8.7,6.6c6.8-1.4,13.8-1.5,20.3-4.4l0.2-0.2h0.3
	c1-0.9,1.7-2.2,3.4-2.1v0.1l0,0c0.4-0.3,0.7-0.7,1.1-1c0.6-0.6,1.3-1.3,1.9-1.9c0.4-0.4,0.7-0.7,1.1-1.1l-0.1,0.1
	c0.4-0.4,0.7-0.8,1-1.1l-0.1,0.1c0.1-0.6,0.3-1.1,0.9-1.2C110.9,357.4,110.2,352.8,109.7,348.2z M94.5,356.1
	c-3.5,0.2-5.3-2.2-4.7-4.9c1-4.3,5.5-3,8.6-3.9c1.6-0.5,2.8,0.3,2.9,2.3C101.3,352.8,97.8,356.2,94.5,356.1z M108.7,361.8
	L108.7,361.8L108.7,361.8C108.8,361.7,108.8,361.7,108.7,361.8L108.7,361.8z M80.2,340.2L80.2,340.2
	C80.1,340.2,80.1,340.2,80.2,340.2C80.1,340.2,80.2,340.2,80.2,340.2L80.2,340.2z"/>
<path style="fill:#050505;" d="M317,311c-1.2,0.1-2.4,0.1-3.1-1.1c0.3-2.6-2.1-2.8-3.5-3.6c-8.7-4.9-17.4-9.9-25-16.4
	c-11.2-9.6-18.7-21.4-20.4-36.9c10.7,11.5,21.6,22.5,37.9,25.7c-13.3-14-27.3-27.5-31.1-47.6c-0.9-4.7-2.3-9.5-1.4-14.7
	c6.6,21.8,22.7,34.3,42.2,43.6c-20.4-21.1-36.4-44.5-41.3-74.1c1.1,0,2.2-0.1,2.6,1.3c-1.2,1-1.1,1.9,0.2,2.7v-0.1
	c0.2,4.4,1.5,8.4,3.9,12.1l0,0c0,2,0.6,3.7,2,5l0,0c0,0.8,0.2,1.6,1,2l0,0c0,0.8,0.2,1.6,1,2l0,0c0,0.8,0.2,1.6,1,2l0,0
	c0.3,0.7,0.7,1.4,1,2l0,0c0.3,0.4,0.7,0.7,1,1.1l0,0c0,0.9,0.3,1.6,1,2l0,0c0.2,1.4,1,2.3,2,3.1c10.6,17.5,25.5,31.5,39.5,47.4
	c-8.3-1.5-14.9-4-21-7.8c-11.4-7.1-23.6-13.2-31.2-25.2c7.5,22.9,25.2,37.6,41.9,53.3c-15.9-4.3-30.8-10.5-43-22
	c-0.2-0.2-0.6-0.6-0.7-0.5c-0.6,0.4-0.2,0.7,0.1,1.1c2.3,7.9,7.1,14.2,13.1,19.5c8.7,7.7,18.4,14.1,28.3,20.1
	c0.4,0.9,0.3,2.2,1.9,2.1l0,0C317,309.7,317,310.3,317,311z M313.7,260.6c-0.1-0.2-0.2-0.4-0.3-0.6c-0.1,0.1-0.3,0.2-0.3,0.3
	c0,0.2,0.2,0.4,0.3,0.6C313.5,260.8,313.6,260.7,313.7,260.6z"/>
<path style="fill:#050505;" d="M306.4,179.9c-0.8,0.4-1.5,0.7-2.3,1.1c-7.9-19.6-9.2-38.9,1.8-57.9c1.3,13.7,2.3,27.3,6.9,40.4
	c0,0.5,0,1.1,0,1.6c-1-0.3-1.9-0.7-2.9-1c-1.8-4.2-3.6-8.4-4.2-13.1c-0.6-4.9-1.7-9.7-2.6-14.6c-0.3-0.1-0.5-0.3-0.8-0.4
	c-0.1,0-0.3,0.1-0.3,0.2c-1.7,8.6-1.9,17.2-0.2,25.8c0.1,0.6,0.1,1.2,0.2,1.8c0.3,1.8-1.1,4.1,1.6,5.2
	C304.5,172.6,305.5,176.2,306.4,179.9z"/>
<path style="fill:#050505;" d="M314.2,158.2c-1.8-23.5,2.7-45,19.5-62.8c0.5-0.5,0.9-1.1,1.4-1.4c1.5-1,2.5-4.1,4.6-2.6
	c1.6,1.2-0.4,3.3-1.2,4.8c-1,1.7-1.1,4.5-4.2,4c-2.1,0.3-2.7,1.9-3.5,3.5c-8.6,12.7-13,26.9-14.7,42.1
	C315.5,149.9,316.3,154.3,314.2,158.2z"/>
<path style="fill:#050505;" d="M403.2,109.4c17.4-12.8,35.5-24.2,57.6-26.8c10.2-1.2,19.7,1.2,28.1,7.6c-1.4,1.4-2.7,0.9-4,0.8
	c-0.3-0.5-0.6-1-1-1.5c-1.4-2.8-4.3-2.9-6.7-3.4c-13.2-2.9-25.5,0.8-37.6,5.8c-0.3,0-0.6,0-0.8,0.2c-0.3,0.3-0.7,0.5-1,0.8l0.1-0.1
	c-0.8,0.1-1.6,0.2-2.1,1l0.1-0.1c-0.8,0-1.7,0.1-2.1,1l0.1-0.1c-0.9,0-1.7,0.1-2.1,1v-0.1c-2.7,0.4-5,1.6-7.2,3.1
	c-0.3,0-0.6,0.1-0.9,0.3c-0.3,0.3-0.7,0.5-1,0.8l0.1-0.1c-0.7,0.4-1.4,0.7-2.1,1.1h0.1c-0.7,0.4-1.4,0.7-2,1.1h0.1
	c-1.2,0.3-2.4,0.7-3.1,2h0.1c-0.9,0-1.6,0.3-2.1,1.1h0.1c-0.6,0.1-1.1,0.3-1,1.1v-0.1c-1.1-0.3-1.8,0.3-2.5,1
	c-0.2-0.1-0.4,0-0.5,0.1c-0.4,0.3-0.7,0.6-1.1,0.9l0.1-0.1c-0.7,0.4-1.3,0.7-2,1.1l0,0c-0.4,0.3-0.7,0.7-1.1,1l0.1-0.1
	c-0.6,0.1-1.1,0.3-1.7,0.4C403.9,110,403.6,109.7,403.2,109.4z"/>
<path style="fill:#050505;" d="M484,89.5c0.3,0.5,0.6,1,1,1.5c-4.4,0.4-8.9,0.8-13.3,1.2c10.6,0.5,21.2,1.1,31.3,4.9
	c-0.4,0.3-0.9,0.7-1.3,1C486.4,95,471,93.8,455.5,97c-6.3,1.3-12.8,1.7-18.6,4.9l0.1-0.1c-2.1,0.3-1.8-0.6-0.9-1.8l-0.1,0.1
	c0.7-0.4,1.4-0.7,2-1.1l0,0c0.4-0.3,0.7-0.7,1.1-1v0.1c0.9,0,1.6-0.2,2-1.1l-0.1,0.1c0.7-0.4,1.5-0.7,2.2-1.1c0.3,0,0.5-0.1,0.8-0.3
	c1-0.6,2-1.2,3.1-1.7l-0.1,0.1c1.8-0.3,3.6-0.7,5-2.1v0.1c6.5-0.8,12.9-2.9,19.6-2.3c0.4-0.1,0.8-0.2,1.2-0.3
	C476.6,88.9,480.3,89,484,89.5z"/>
<path style="fill:#050505;" d="M495.8,105.6c26.1,2.7,47.1,14.6,59.8,37.5c4.8,8.7,12.7,15.4,15.6,25.2c0.5,1.7,1.9,3.1,1.8,5.6
	c-3.4-2.5-6-5.8-9.8-7.1c-0.6-0.7-1.3-1.8-2.2-0.8c-0.6,0.6,0.6,1.2,1.2,1.6c5.4,5.7,10,12,13.5,19.1c2.5,5.1,3.1,10.4,2.3,17
	c-1.7-2.6-3-4.5-4.2-6.3c0.1-0.5,0.1-0.9,0.2-1.4c1.5-4.4-1.2-7.6-2.9-11.1l0.1,0.1c-0.1-0.8-0.3-1.6-1.1-2.1l0.1,0.1
	c-0.4-0.7-0.7-1.4-1.1-2.1l0.1,0.1c-0.4-0.7-0.7-1.4-1.1-2c-0.2-0.3-0.4-0.7-0.6-1c-0.5-0.6-0.9-1.3-1.4-1.9l0,0
	c-0.3-0.4-0.7-0.7-1-1.1l0.1,0.1c-0.4-0.4-0.7-0.7-1.1-1.1l0.1,0.1c-0.4-0.4-0.7-0.7-1.1-1.1l0.1,0.1c-0.4-0.4-0.7-0.7-1.1-1.1
	l0.1,0.1c-0.4-0.4-0.7-0.7-1.1-1.1l0.1,0.1c-0.4-0.4-0.7-0.7-1.1-1.1l0.1,0.1c-0.4-0.4-0.7-0.7-1.1-1.1l0.1,0.1
	c-0.4-0.4-0.7-0.7-1.1-1.1l0.1,0.1c-0.4-0.4-0.7-0.7-1.1-1.1l0.1,0.1c-0.4-0.3-0.7-0.7-1.1-1l0.1,0.1c-0.4-0.3-0.7-0.6-1.1-1l0,0
	c-0.6-0.5-1.3-1-1.9-1.5c-4-5.1-10.5-5.2-15.6-8.3c-1.7-1-4.4-1.1-4.4-4c3.7-0.7,7.3,0.6,10.9,0.9l-0.1-0.1c2.7,1.3,5.4,2.7,8.1,4
	H552c0.7,0.4,1.4,0.7,2,1.1l-0.1-0.1c0.4,0.3,0.7,0.6,1.1,0.9l0.2,0.2l0.3-0.1c0.5,0.3,1,0.7,1.5,1l-0.1-0.1c0.3,0.3,0.7,0.5,1,0.8
	c0.2,0.2,0.4,0.3,0.6,0.3c3,2.2,6,4.4,9,6.6c-1.4-3.5-2.6-6.7-5.4-8.8v0.1c-0.1-0.6-0.3-1.1-1.1-1.1l0.1,0.1c0.1-1-0.4-1.6-1.1-2.1
	c-0.3-0.3-0.5-0.6-0.8-0.9c-0.4-0.3-0.8-0.7-1.2-1l0.1,0.1c-0.3-0.5-0.7-1-1-1.5c-1-2-2.7-3.3-4.4-4.6c-10.6-8.7-23.4-11-36.5-11.9
	c-2.1-0.1-4.8,1.1-6.1-1.8c5.2-2,10.5-2.4,16.1-1.5c8.5,1.4,16.2,4.6,23.7,8.5c0.4,0.3,0.8,0.6,1.2,0.8c0.1,0,0.2,0.1,0.3,0.1
	c-0.1,0-0.2,0-0.4,0c0.4-0.6,0-1.1-0.4-1.5c-1.6-2.4-3.3-4.7-5.5-6.7c-1.4-2-3-3.6-5-4.9c-0.5-0.7-1-1.2-2-1.1l0.1,0.1
	c0-0.7-0.4-1-1.1-1.1v0.1c-0.4-0.4-0.7-0.8-1.1-1.2c-0.3-0.3-0.7-0.5-1-0.8c-0.7-0.4-1.3-0.7-2-1.1l0.1,0.1c-0.4-0.3-0.7-0.7-1.1-1
	h0.1c-0.7-0.4-1.4-0.7-2-1.1h0.1c-0.7-1.2-1.8-1.7-3.1-2l0.1,0.1c-0.5-0.8-1.2-1-2.1-1.1h0.1c-0.4-0.9-1.2-1-2.1-1.1h0.1
	c-0.4-0.9-1.2-1-2.1-1.1l0.1,0.1c-0.4-0.3-0.7-0.6-1.1-0.9c-0.2-0.2-0.4-0.2-0.6-0.2c-1.6-1.1-3.3-2.1-5.4-2.1v0.1
	c-1.3-1.5-3.2-1.8-5-2.1v0.1c-2.1-1.4-4.5-2.1-7-2.1v0.1c-2.7-2-6.3-1.2-9.2-2.7l0.2-0.3C494,105.8,494.9,105.7,495.8,105.6z"/>
<path style="fill:#050505;" d="M546.4,226.7c-0.6-0.4-1-1.6-1.9-1.3c-1.8,0.6-0.7,1.9-0.5,2.9c1.8,7.1,3.2,14.3,3.4,21.6
	c0.2,5.8-0.2,11.6-1.7,18.5c-3.2-10.6-5.7-20.3-10.7-30.1c-1.1,5.9-2.1,10.9-3.2,16.8c-4.1-8.3-7-16.4-12.1-24.4
	c-1,7.2-1.9,13.5-3,21.1c-1.9-3.9-3.3-6.8-4.7-9.8c3.4,0.5,4-1.2,4.2-4.3c0.2-5.8-1.2-11.8,0.9-17.5c4.1,7.3,8.3,14.7,13,23
	c0-6,0-10.6,0-15.3c0.3-0.1,0.7-0.1,1-0.2c0.3,0.2,0.6,0.3,0.9,0.3c0.4,0.3,0.8,0.6,1.1,0.9h0.1c0.6,0.5,1.3,1,1.9,1.6
	c-0.1,0.2-0.1,0.4,0.1,0.5c0.3,0.4,0.6,0.7,0.9,1.1L536,232c0.1,0.6,0.3,1.1,1.1,1.1H537c0.6,3.7,2.9,6.4,5,10.9
	c0.3-5.5-0.9-9.2-2.1-12.9c0-2,0-4.1,0-6.1c0.7-2.2-1.3-4.9,1.1-6.9V218c0.3,0.4,0.7,0.7,1,1.1l-0.1-0.1c0.4,0.4,0.7,0.7,1.1,1.1
	l-0.1-0.1c0.4,0.4,0.7,0.7,1.1,1.1l-0.1-0.1c0.4,0.4,0.7,0.7,1.1,1.1l-0.1-0.1c0.4,0.4,0.7,0.7,1.1,1.1h-0.1c0.1,0.6,0.4,1,1.1,1.1
	h-0.1c0.2,0.5,0.4,1,0.6,1.6C547.1,226,546.7,226.3,546.4,226.7z M543.6,224.2c-0.2,0.1-0.4,0.2-0.6,0.3c0.1,0.1,0.2,0.3,0.3,0.3
	c0.2,0,0.4-0.2,0.6-0.3C543.9,224.5,543.8,224.4,543.6,224.2z"/>
<path style="fill:#050505;" d="M307.8,658.4c-18.1-7.8-37.1-13.7-52.3-27.1c-2.5-2.2-5.1-4.5-6.8-7.2c-5.3-8.7-13.4-15.1-18.8-23.6
	c-0.7-1.2-1.3-3.6-3.4-0.8c-1.5,2.1-2.6-0.1-3.5-0.9c-3.6-3.5-5.6-8.2-8.1-12.5c-0.5-0.8,0.2-5.8-3.5-2.2c-0.1-1-0.2-1.9-0.3-2.9
	c1.6-2.9,3.4-2,4.6,0.1c1.7,2.9,2.9,6,4.4,8.9c0.5,1,0.9,3,1.9,2.6c6.6-2.3,7.2,4,10.1,6.9c1.5,1.5,2.6,3.5,4.1,5
	c0.7,0.7,2.3,2.8,2.9-0.5c0.3-1.8,1.4-0.6,2.1-0.2c1.5,1.1,2.5,2.4,3,4.4c3.6,14.4,13.4,24,26.1,30.4c12,6.1,24.5,10.9,36.9,16.3
	c0.5,0.2,1.2,0,1.8,0h-0.1c-0.1,0.1-0.2,0.3-0.2,0.4c0,0.2,0.1,0.5,0.2,0.7C308.6,656.8,308.2,657.6,307.8,658.4z"/>
<path style="fill:#050505;" d="M444,390c-0.9,0.7-1.9,1.3-2.8,2c-3.4-3.9-6.1-8.5-10.1-12c-0.4-0.4-0.7-0.8-1.1-1.2
	c-0.2-0.3-0.5-0.6-0.7-0.8c-0.4-0.3-0.9-0.7-1.3-1l0.1,0.1L427,376c-0.3-0.3-0.6-0.6-0.9-0.9L426,375c-0.3-0.3-0.7-0.7-1-1
	s-0.7-0.7-1-1v0.1c-0.3-0.4-0.7-0.9-1-1.3c-1-0.9-2-1.8-2.9-2.7c-0.4-0.3-0.8-0.7-1.2-1c-10.9-10-23.3-17.4-37-22.8
	c-2.8-1.5-5.8-2.7-8.9-3.4c-0.7-0.2-1.4-0.5-2.1-0.7c-0.3-0.2-0.6-0.2-0.9-0.2v0.1c-1.1-1.3-2.6-1.1-4-1.1c-0.8-1.2-1.9-0.7-3-0.7
	c-0.3-0.1-0.6-0.2-0.9-0.2c-0.7-1.3-2-0.9-3.1-0.8c-0.3-0.1-0.6-0.2-0.9-0.2c-1.1-1.6-2.7-0.8-4.1-0.8c-0.3-0.1-0.6-0.2-0.9-0.2
	c-3.9-1.7-7.9-2.3-12.1-1.8c-0.3-0.1-0.6-0.2-1-0.2c-0.7-1.4-2.1-0.8-3.1-1.2V332c8.7,1.3,17.4,2.6,26,4c0.5,0.7,1.1,1.1,1.9,0.8
	c0.1,0,0.2-0.3,0.3-0.4c-0.7-0.1-1.4-0.3-2.2-0.4c0.4-0.4,0.8-0.8,1.3-1.2c3.7,0.2,6.9,2.6,10.7,2.2c0.8,1.8,2.4,1.8,4,2
	c1.4,1.3,3.2,1.8,5,2.2c1.2,1,2.5,1.6,4,1.8c2.1,1.4,4.3,2.9,7,3v-0.1c0.4,0.3,0.7,0.7,1,1l0,0l0,0c0.7,0.4,1.3,0.7,2,1
	c0.7,0.4,1.3,0.8,2,1.3c1.7,1.7,3.8,2.6,5.9,3.7c0.7,0.5,1.4,0.9,2.1,1.4s1.4,1,2.1,1.6c0.6,0.4,1.3,0.9,1.9,1.3c2,1.6,4,3.1,6,4.7
	c0.5,0.7,1.1,1.1,2,1.1c0.3,0.3,0.6,0.6,1,0.9l0,0c0.3,0.4,0.7,0.8,1,1.2c0.3,0.3,0.6,0.5,0.9,0.8c0.4,0.4,0.8,0.7,1.1,1.1
	c1,1,2,1.9,3,2.9c0.4,0.7,1,1.2,1.9,1.1c0,0.6,0.4,1,1,1c-0.1,0.9,0.4,1.5,1.1,1.9c1.3,1.4,2.6,2.7,3.9,4.1c0.4,0.4,0.7,0.8,1.1,1.2
	c0.3,0.3,0.5,0.6,0.8,0.9c0.4,0.3,0.8,0.7,1.2,1l0,0c0.3,0.3,0.6,0.6,0.9,1c0,0.9,0.4,1.5,1.1,2c0.6,0.7,1.1,1.3,1.7,2l0,0l1.3,1.9
	C443.3,388.6,443.7,389.3,444,390z"/>
<path style="fill:#050505;" d="M324,145c0-1-0.1-2-0.1-3c0-2,0-4,0-6c0-0.7,0-1.4,0.1-2c1.2-10.2,3.1-20.2,7.8-29.4
	c0.8-0.9,1.5-1.8,2.2-2.6c0,0.7,0,1.3-0.1,2c-4.5,8.8-7.1,18.2-7.8,28c-0.4,5.9,0,11.9,0.1,17.9c0,0.1,0.2,0.2,0.4,0.2
	c0.2,0,0.3-0.1,0.5-0.2h0.4h0.4c0.3,0.8,0.1,1.7,1.1,2.1c0.6,4.7,1.2,9.4,2,15.4c-3.8-4.9-3.9-10.2-6-14.5
	C325.3,150.2,324.3,147.7,324,145z"/>
<path style="fill:#050505;" d="M328.4,134c0,3.3,0,6.6,0,10c-0.4,1.5-0.6,2.9,0.6,4.2c0,0.2,0,0.5-0.1,0.7c-0.3,0.4-0.7,0.7-1,1.1
	h-0.4h-0.4c0.4-6.9-0.9-13.8,0.9-20.6c0.4-1.6,0.7-3.2,2.1-4.3c-0.4,2.6-0.8,5.1-1.3,7.7C328.6,133.1,328.5,133.6,328.4,134z"/>
<path style="fill:#050505;" d="M510,133.1c1-3.4,4-2.9,6.5-3.1c9-0.8,17.4,1.3,25.6,4.6c2.2,0.9,3.1,0.7,2.9-1.8
	c2.2,1.9,3.9,4.2,5.5,6.7c-0.2,0.2-0.5,0.4-0.7,0.6c-7.5-4-15.3-7.2-23.7-8.5C520.6,130.7,515.3,131.1,510,133.1z"/>
<path style="fill:#050505;" d="M543.9,152.1c3.5-0.3,6.3,0.7,8.1,4C549.3,154.7,546.6,153.4,543.9,152.1z"/>
<path style="fill:#050505;" d="M160.9,318.7c-0.3,0.1-0.6,0.1-0.9,0.1l0.1,0.1c-0.3-0.3-0.7-0.7-1-1c0,0,0,0-0.1-0.1
	c-0.3-0.3-0.6-0.6-1-1l0,0l0.1,0.1c-0.3-1.6-0.7-3.2-0.9-4.8c-0.4-4.5-2.2-3.4-4.3-1.3l0,0c-0.5,0.1-1,0.3-1.1,0.9
	c-1.6,0.5-3.2,1-4.8,1.4c-0.7-0.4-1.3-0.8-2-1.2c-0.3-0.3-0.7-0.7-1-1l0,0c-0.3-0.3-0.6-0.7-0.9-1c-1.1-2.9,3-6.5-1.1-9
	c-0.3-0.4-0.7-0.8-1-1.2c-0.4-0.6-0.7-1.1-1.1-1.7c-0.7-2.3-1.5-4.6-2.2-6.9c-0.3-3.7-0.7-7.4-1.1-11.1c0-0.7,0-1.4-0.1-2v-9.8
	c0-0.7,0.1-1.4,0.1-2.1c0.6-5.6,1.5-11.2,3.7-16.4c0.4-1,0.4-3,2.5-1.5c0,0.7,0.1,1.3,0.1,2c-0.7,2.3-1.2,4.5-1,6.9
	c0,0.7-0.1,1.4-0.1,2c0,5.7,0,11.3,0,17c0,0.7,0,1.4,0,2c-0.5,4.7,0.6,9.3,1,13.9c0.3,1.8,0.5,3.5,0.8,5.4c2.3-0.2,1.7-4.6,4.8-2.9
	c3.8,2,3.4,5.1,1.6,8.9c2.9,0,4.2-3.4,6.7-1.7c2,1.4,2.9,3.4,3.7,5.6C161,311,161.9,314.9,160.9,318.7z"/>
<path style="fill:#050505;" d="M30.4,427.1c-0.6,2.1-2.9,0.5-3.8,1c-6.3-0.2-11.3-1.8-14.6-6.9c-0.5-0.8-1.3-1.8-0.5-2.7
	c0.4-0.5,1.5-0.5,2.3-0.4c5.3,0.4,10,2.4,14.1,5.8C28.9,424.8,30.9,425.6,30.4,427.1z"/>
<path style="fill:#050505;" d="M439.7,661.6c-4.3,0.2-7.1-2.2-9.3-5.3c-3.8-5.4-4.2-11.4-2-17.6c0.3-0.9,0.4-2.7,2.1-2.1
	c1.2,0.4,1.7,1.6,1.4,2.9c-0.3,1.6-0.8,3.2-0.9,4.9c-0.5,5.8,0.6,10.9,6.4,13.9C438.5,658.9,439.8,659.6,439.7,661.6z"/>
<path style="fill:#050505;" d="M352.1,674.5c-0.3-3,1.5-2,2.6-1.1c6,4.4,13.1,6.6,19.4,10.4c0.3,0.4,0.7,0.7,1,1.1l0.1-0.1
	c-0.5,2.3-1.8,2.2-3.6,1.5c-1.8-0.7-3.7-1-5.6-1.4c-0.6-1.3-1.5-1.9-2.8-0.9c-3.1-2.4-6.1-4.7-9.2-7.1l0,0c-0.3-0.4-0.7-0.7-1-1.1
	l0.1,0.1C352.7,675.5,352.4,675,352.1,674.5z"/>
<path style="fill:#050505;" d="M371.8,674.3c3,2.2,6,4.3,9.5,5.6c0.8,0.3,1.9,1.1,1.3,2.3c-0.6,1-1.8,0.9-2.7,0.5
	C376.1,681.1,373,678.6,371.8,674.3z"/>
<path style="fill:#050505;" d="M365.9,685.1c0.7,0.6,1.4,1.2,2.1,1.8c-1.4,0-2.8,0-4.1,0C364.1,685.8,364.4,684.8,365.9,685.1z"/>
<path style="fill:#050505;" d="M553.6,244.1c-1.1-3.4-2.2-6.8-3.3-10.2c0.3-0.7,0.5-1.4,0.8-2.1c0.3,0.1,0.6,0.2,0.9,0.3h-0.1
	c1.7,4.9,3.4,9.8,5.1,14.6c1.9-8,4.4-15.8,1.1-23.8c0-0.3-0.1-0.6-0.1-1c0.2-1.2,0.3-2.4-0.8-3.2c0-0.3,0-0.5-0.1-0.8
	c0.1-0.9-0.1-1.6-0.9-2.1l0.1,0.1c-0.1-0.8-0.3-1.6-1.1-2.1v0.1c-0.1-0.6-0.4-1.1-1.1-1.1h0.1c0.1-0.9-0.4-1.5-1.1-2l0,0
	c-0.3-0.3-0.7-0.7-1-1l0,0c-0.7-1.1-1.7-1.8-3-2.1l0,0c-0.7-0.6-1.4-1.3-2.1-1.9h-0.1c0.2-1.4,1.3-0.9,2.1-0.9l-0.1-0.1
	c1.7,0.9,3.4,1.8,5.1,2.7c0.2,0.2,0.5,0.3,0.8,0.3c0.6,0.7,1.3,1.2,2.2,1h-0.1c0,0.7,0.4,1,1,1.1v-0.1c0.4,0.4,0.7,0.7,1.1,1.1
	l-0.1-0.1c0.4,0.3,0.7,0.7,1.1,1h-0.1c0.4,0.3,0.7,0.7,1.1,1l0,0c0.3,0.3,0.7,0.6,1,1l0,0c0.3,0.3,0.6,0.7,1,1l0,0
	c0.3,0.3,0.6,0.7,1,1l0,0c0.3,0.4,0.7,0.7,1,1.1l0,0c0.3,0.4,0.7,0.7,1,1.1l-0.1-0.1c0.4,0.4,0.7,0.7,1.1,1.1l-0.1-0.1
	c0.3,0.4,0.7,0.7,1,1.1h-0.1c1.2,1.5,2.3,3,4.4,5.7c-1.2-9-2.1-16.5-4.5-23.7c-1.9-10.6-7.9-18-17.6-22.6c-2.3-1.1-5.2-1.5-6.3-4.5
	c3.1-0.6,6,0.7,9,1.2l0,0c0.7,1.2,1.8,1.7,3.1,2h-0.1c0.8,1.1,1.8,1.8,3.1,2.1l-0.1-0.1c0.4,0.3,0.7,0.7,1.1,1l0,0
	c0.8,1,1.7,1.9,3,2.1v-0.1c0.4,0.4,0.7,0.7,1.1,1.1l-0.1-0.1c0.4,0.4,0.7,0.7,1.1,1.1l-0.1-0.1c0.4,0.3,0.7,0.7,1.1,1l0,0
	c0.3,0.3,0.7,0.7,1,1l0,0c0.3,0.3,0.7,0.7,1,1l0,0c0.3,0.3,0.7,0.7,1,1l0,0c1.1,1.6,2.2,3.1,3.4,4.7c-0.3,0.3-0.6,0.6-1,1
	c-0.7-0.4-1.4-1.2-2-1.1c-1.1,0.2-0.6,1.3-0.4,2c0.9,2.3,1.8,4.7,2.7,7c4.3,10.2,5.7,20.7,3.5,32.5c-4.1-7-8-13.3-14.3-18.1
	c2.7,10.6,1.4,20.9-1.2,31.2c-1.8,0-3.6,0-5.4,0c0-0.3-0.1-0.7-0.1-1C555.3,245.8,555.4,244.8,553.6,244.1z M568.6,192.9
	c0.1-0.1,0.2-0.2,0.4-0.4c-0.2-0.1-0.4-0.3-0.7-0.3c-0.1,0-0.2,0.2-0.3,0.3C568.2,192.6,568.4,192.7,568.6,192.9z"/>
</svg>
