<?xml version="1.0" encoding="utf-8"?>
<!-- Generator: Adobe Illustrator 22.1.0, SVG Export Plug-In . SVG Version: 6.00 Build 0)  -->
<svg version="1.1" id="Layer_1" xmlns="http://www.w3.org/2000/svg" xmlns:xlink="http://www.w3.org/1999/xlink" x="0px" y="0px"
	 viewBox="0 0 512 512" style="enable-background:new 0 0 512 512;" xml:space="preserve">
<rect id="Rectangle-2" x="190.5" y="92.3" style="fill:none;stroke:#000000;stroke-miterlimit:10;" width="27.8" height="20.2"/>
<rect id="Rectangle-2_1_" x="190.5" y="74.6" style="fill:none;stroke:#000000;stroke-miterlimit:10;" width="27.8" height="22.7"/>
<polygon id="Shape" style="fill:none;stroke:#000000;stroke-miterlimit:10;" points="208.2,82.2 218.2,82.2 218.2,83.5 208.2,83.5 
	"/>
<polygon id="Shape_1_" style="fill:none;stroke:#000000;stroke-miterlimit:10;" points="213.2,89.8 218.2,89.8 218.2,91 213.2,91 
	"/>
<polygon id="Shape_2_" style="fill:none;stroke:#000000;stroke-miterlimit:10;" points="208.2,97.3 218.2,97.3 218.2,98.6 
	208.2,98.6 "/>
<polygon id="Shape_3_" style="fill:none;stroke:#000000;stroke-miterlimit:10;" points="213.2,102.4 218.2,102.4 218.2,103.6 
	213.2,103.6 "/>
<rect x="379.8" y="274" style="fill:none;stroke:#000000;stroke-miterlimit:10;" width="10.1" height="212"/>
<path id="Shape_8_" style="fill:none;stroke:#000000;stroke-miterlimit:10;" d="M209.1,74.6c0.5,0,1.1,0,1.6,0v-2.5h-12.6v2.5
	c0.5,0,1,0,1.6,0H209.1z"/>
<path id="Shape_9_" style="fill:none;stroke:#000000;stroke-miterlimit:10;" d="M169.5,70.5c-0.9,0-1.7-0.8-1.7-1.7
	c0-0.9,0.8-1.7,1.7-1.7s1.7,0.8,1.7,1.7 M166.1,283.8V74.7c-1-0.6-1.9-1.5-2.5-2.5c-1.8-3.3-0.7-7.4,2.5-9.3
	c3.2-1.9,7.3-0.7,9.2,2.5h44.6c1.9,0,3.4,1.5,3.4,3.4s-1.5,3.4-3.4,3.4 M172.8,283.8V74.7c1-0.6,1.9-1.4,2.5-2.5"/>
<rect x="166.1" y="283.8" style="fill:none;stroke:#000000;stroke-miterlimit:10;" width="6.7" height="201.6"/>
<path id="Shape_10_" style="fill:none;stroke:#000000;stroke-miterlimit:10;" d="M199.2,112.5c-0.4,0-0.8,0-1.1,0
	c0.7,1.8,3.5,2.9,6.3,2.4c1.9-0.3,3.3-1.2,3.8-2.4c-0.4,0-0.8,0-1.1,0H199.2z"/>
<path id="Shape_11_" style="fill:none;stroke:#000000;stroke-miterlimit:10;" d="M170.3,68.3c0,0.7-0.6,1.3-1.3,1.3
	s-1.3-0.6-1.3-1.3c0-0.7,0.6-1.3,1.3-1.3S170.3,67.6,170.3,68.3z"/>
<path id="Shape_12_" style="fill:none;stroke:#000000;stroke-miterlimit:10;" d="M169,72.1c-2.1,0-3.8-1.7-3.8-3.8
	c0-2.1,1.7-3.8,3.8-3.8s3.8,1.7,3.8,3.8S171.1,72.1,169,72.1z"/>
<g id="Group" transform="translate(12.000000, 69.000000)">
	<path id="XMLID_1110_" style="fill:none;stroke:#000000;stroke-miterlimit:10;" d="M53.6,416.8c-7.7,0-13.9-6.2-13.9-13.9
		S45.9,389,53.6,389s13.9,6.2,13.9,13.9S61.2,416.8,53.6,416.8z"/>
	<path id="XMLID_1_" style="fill:none;stroke:#000000;stroke-miterlimit:10;" d="M53.6,412.8c-5.5,0-9.9-4.5-9.9-9.9
		c0-5.5,4.4-9.9,9.9-9.9s9.9,4.5,9.9,9.9C63.5,408.4,59,412.8,53.6,412.8z"/>
</g>
<g id="Group_1_" transform="translate(150.000000, 69.000000)">
	<path id="XMLID_2_" style="fill:none;stroke:#000000;stroke-miterlimit:10;" d="M263.8,416.8c-7.7,0-13.9-6.2-13.9-13.9
		s6.2-13.9,13.9-13.9s13.9,6.2,13.9,13.9S271.5,416.8,263.8,416.8z"/>
	<path id="XMLID_3_" style="fill:none;stroke:#000000;stroke-miterlimit:10;" d="M263.8,412.8c-5.5,0-9.9-4.5-9.9-9.9
		c0-5.5,4.4-9.9,9.9-9.9s9.9,4.5,9.9,9.9C273.8,408.4,269.3,412.8,263.8,412.8z"/>
</g>
<rect id="Rectangle" x="22.4" y="441.2" style="fill:none;stroke:#000000;stroke-miterlimit:10;" width="429.6" height="12.6"/>
<path style="fill:none;stroke:#000000;stroke-miterlimit:10;" d="M166.1,322.5v17.7H34.8c-6.8,0-12.4-5.5-12.4-12.4v-5.3
	L166.1,322.5L166.1,322.5z"/>
<path style="fill:none;stroke:#000000;stroke-miterlimit:10;" d="M379.8,322.5v17.7h-207v-17.7h23.4l0.3,1.1c0,0.1,0,0.2,0.1,0.2
	c0.7,2.2,2.7,3.6,4.8,3.6c0.4,0,0.8,0,1.2-0.1c1.8-0.4,3.1-1.8,3.6-3.4c0.1-0.4,0.2-0.9,0.2-1.3h80.4c0,0.5,0.1,0.9,0.2,1.3
	c0.6,2.1,2.5,3.6,4.8,3.6s4.2-1.5,4.8-3.6c0.1-0.4,0.2-0.9,0.2-1.3h83V322.5z"/>
<path style="fill:none;stroke:#000000;stroke-miterlimit:10;" d="M451.5,322.5v5.3c0,6.8-5.5,12.4-12.4,12.4h-49.2v-17.7
	L451.5,322.5L451.5,322.5z"/>
<path style="fill:none;stroke:#000000;stroke-miterlimit:10;" d="M166.1,283.8v37.5H25.6v-11.9c0-14.1,5.1-25.6,11.3-25.6H166.1z"/>
<rect x="25.6" y="321.3" style="fill:none;stroke:#000000;stroke-miterlimit:10;" width="140.5" height="1.2"/>
<polygon style="fill:none;stroke:#000000;stroke-miterlimit:10;" points="196.2,322.5 172.8,322.5 172.8,283.8 186.6,283.8 
	195.9,321.3 "/>
<path style="fill:none;stroke:#000000;stroke-miterlimit:10;" d="M286.8,322.5h-80.4c0-0.4,0-0.8-0.1-1.2c0,0,0-0.1,0-0.2l-9.3-37.3
	h86.3c2.3,7.1,3.5,14.5,3.5,22v16.5C286.8,322.4,286.8,322.4,286.8,322.5z"/>
<path style="fill:none;stroke:#000000;stroke-miterlimit:10;" d="M379.8,283.8v38.7h-82.9v-0.1v-16.5c0-7.5-1-14.9-3-22h85.9V283.8z
	"/>
<path style="fill:none;stroke:#000000;stroke-miterlimit:10;" d="M451.5,309.4v13h-61.6v-38.7h50.3
	C446.4,283.8,451.5,295.3,451.5,309.4z"/>
<path style="fill:none;stroke:#000000;stroke-miterlimit:10;" d="M36.9,283.8c-6.3,0-11.3,11.5-11.3,25.6v13h-3.2v-22
	c0-14.2,2.4-16.7,5.3-16.7h9.2V283.8z"/>
<rect x="22.4" y="321.3" style="fill:none;stroke:#000000;stroke-miterlimit:10;" width="143.7" height="2.5"/>
<path style="fill:none;stroke:#000000;stroke-miterlimit:10;" d="M196.5,323.8h-23.7v-2.5h23.1l0.3,1.2l0.3,1.1
	C196.5,323.6,196.5,323.7,196.5,323.8z"/>
<path style="fill:none;stroke:#000000;stroke-miterlimit:10;" d="M206.2,323.8c0.1-0.4,0.2-0.9,0.2-1.3s0-0.8-0.1-1.2h80.5v1.1v0.1
	c0,0.5,0.1,0.9,0.2,1.3H206.2z"/>
<path style="fill:none;stroke:#000000;stroke-miterlimit:10;" d="M379.8,321.3v2.5h-83.1c0.1-0.4,0.2-0.9,0.2-1.3v-0.1v-1.1H379.8z"
	/>
<rect x="389.9" y="321.3" style="fill:none;stroke:#000000;stroke-miterlimit:10;" width="61.6" height="2.5"/>
<path id="Rectangle_5_" style="fill:none;stroke:#000000;stroke-miterlimit:10;" d="M22.4,453.6H452l0,0c0,2.8-2.3,5-5,5H27.4
	C24.7,458.6,22.4,456.4,22.4,453.6z"/>
<rect id="Rectangle_6_" x="326.8" y="340.3" style="fill:none;stroke:#000000;stroke-miterlimit:10;" width="12.6" height="101.4"/>
<rect id="Rectangle_7_" x="334.3" y="340.3" style="fill:none;stroke:#000000;stroke-miterlimit:10;" width="5" height="101.4"/>
<rect id="Rectangle_8_" x="124.9" y="340.3" style="fill:none;stroke:#000000;stroke-miterlimit:10;" width="12.6" height="101.4"/>
<rect id="Rectangle_9_" x="132.4" y="340.3" style="fill:none;stroke:#000000;stroke-miterlimit:10;" width="5" height="101.4"/>
<path style="fill:none;stroke:#000000;stroke-miterlimit:10;" d="M155.3,283.8H41.1c0-6.8,1.1-12.3,13-12.3h87.5
	C153.3,271.5,155.3,277,155.3,283.8z"/>
<path style="fill:none;stroke:#000000;stroke-miterlimit:10;" d="M207.4,253.8c-0.4,8.3-0.9,17.5-1.7,27.8"/>
<path style="fill:none;stroke:#000000;stroke-miterlimit:10;" d="M203.1,115c0.2,21.4,1.1,41.6,2.7,60.6c1.7,20.8,3,39,2.1,68.1"/>
<path style="fill:none;stroke:#000000;stroke-miterlimit:10;" d="M195.7,258.6c-2.4,3-3.2,6.9-2.3,10.6l3.6,14.7l9.3,37.3
	c0,0,0,0.1,0,0.2c0.1,0.4,0.1,0.8,0.1,1.2c0,0.5-0.1,0.9-0.2,1.3c-0.5,1.6-1.8,3-3.6,3.4c-0.4,0.1-0.8,0.1-1.2,0.1
	c-2.2,0-4.2-1.4-4.8-3.6c0-0.1,0-0.2-0.1-0.2l-0.3-1.1l-0.3-1.2l-9.3-37.5l-3-12.3c-1.7-6.8-0.2-13.8,4.1-19.2
	c4.3-5.5,10.7-8.6,17.7-8.6h2.5c-0.1,3.2-0.2,6.6-0.4,10.1h-2.1C201.5,253.8,198,255.5,195.7,258.6z"/>
<path style="fill:none;stroke:#000000;stroke-miterlimit:10;" d="M296.9,305.8v16.5v0.1c0,0.5-0.1,0.9-0.2,1.3
	c-0.6,2.1-2.6,3.6-4.8,3.6c-2.3,0-4.2-1.5-4.8-3.6c-0.1-0.4-0.2-0.9-0.2-1.3v-0.1v-16.5c0-7.5-1.2-14.9-3.5-22
	c-0.8-2.3-1.6-4.5-2.6-6.8l-7.1-15.9c-2-4.5-6.4-7.3-11.3-7.3h-54.9c0.2-3.5,0.3-6.9,0.4-10.1h54.5c8.8,0,16.9,5.2,20.5,13.3
	l7.1,15.9c1.6,3.6,2.9,7.2,4,10.9C295.9,291,296.9,298.3,296.9,305.8z"/>
</svg>
