<?xml version="1.0" encoding="utf-8"?>
<!-- Generator: Adobe Illustrator 22.1.0, SVG Export Plug-In . SVG Version: 6.00 Build 0)  -->
<svg version="1.1" id="Layer_1" xmlns="http://www.w3.org/2000/svg" xmlns:xlink="http://www.w3.org/1999/xlink" x="0px" y="0px"
	 viewBox="0 0 512 512" style="enable-background:new 0 0 512 512;" xml:space="preserve">
<path style="fill:none;stroke:#000000;stroke-miterlimit:10;" d="M226.5,185.6c-1.9-0.3-4-0.8-6.3-1.5
	c-12.3-4.5-19.8-11.7-26.2-20.2c8.8,3.8,17,9.2,24.7,15.2C221.4,181.2,224,183.4,226.5,185.6z"/>
<path style="fill:none;stroke:#000000;stroke-miterlimit:10;" d="M402.7,93c-2.3,2.6-4.7,5.2-7.1,7.8c-2.6-4.1-7.4-9.5-7.7-9.8
	c0.2,0.4,3.6,7.2,5.4,12.3c-0.5,0.5-1,1-1.5,1.6c-2.7-3.7-6.2-7.7-6.5-8c0.1,0.3,2.7,5.4,4.5,10c-5.5,5.8-11,11.6-16.4,17.6
	c-0.2-0.5-0.4-1.1-0.7-1.5c-3-6.1-11.8-16.2-11.8-16.2s6.4,13.3,8.2,20.5c0.1,0.5,0.2,1.1,0.4,1.7c-3.2,3.7-6.3,7.4-9.2,11.3
	c-2,2.7-4.3,5.9-6.6,9.3c-0.1-0.2-0.2-0.4-0.2-0.6c-2.1-4.4-8.3-11.8-8.3-11.8s4.5,9.6,5.7,14.8c0.1,0.4,0.2,0.9,0.3,1.4
	c-0.8,1.2-1.6,2.4-2.4,3.6c-3.4,5.1-6.8,10.5-10,15.6c-8.8,14-16,26.3-16,26.3l-21.8-10l-0.2-0.1l-3.3-1.5l-0.2-0.1l-1.3-0.6
	l-5.8-2.7l-1-0.4c0,0-2.5,3.7-5.3,8.3c-2.3,3.9-4.8,8.5-5.9,11.8c-3.4,10.3-4.2,32.5-4.2,32.5l-2.1-1.4c0.7-9.6,1.7-19.2,2.6-28.7
	c0.3-2.8,0.5-5.7,0.8-8.5c0.3-0.6,0.5-1.2,0.8-1.8c2-5.3,2.2-17,2.2-17l-1.4,0.2l-16.2,2.2c0,0,9.3-13.6,13.4-20.8
	c2-3.6,3.6-7.4,5.4-11.1c0.5-1.1,1.1-2.2,1.6-3.2c2.2-3.9,4.3-7.9,6.4-11.9c1.8-0.9,3.6-1.7,5.1-2.2c4.8-1.5,14.8-2.2,14.8-2.2
	s-5.1-1.1-9.6-1.6c-1.5-0.2-2.9-0.2-4.1-0.2c-0.9,0-2,0.2-3.1,0.4c4.4-7.7,9-15.2,14.7-21.8c1-1.2,2.1-2.3,3.1-3.5
	c4.9-0.8,10.7-1.3,10.7-1.3s-4.2-0.9-8.4-1.4c13-14.4,27.5-27.9,44.5-35.7c9.3-4.2,20.2-8.5,30-7.3l0,0c2.3,0.3,4.5,0.9,6.6,1.8
	c9.3,4.1,15.7,16.6,18.1,25.8C410.9,88.5,405.1,90.3,402.7,93z"/>
<path style="fill:none;stroke:#000000;stroke-miterlimit:10;" d="M89.4,64.7c0,0.3,0,0.6,0,1c0,0.5,0,1,0.1,1.4
	c0,0.6,0.1,1.1,0.1,1.6c0.1,0.6,0.2,1.2,0.3,1.8c0,0.1,0.1,0.3,0.1,0.4c0.1,0.6,0.3,1.2,0.4,1.8c0.1,0.4,0.2,0.8,0.4,1.2
	c0.2,0.4,0.3,0.7,0.5,1.1c0.4,0.7,0.8,1.4,1.3,2.1c0.1,0.2,0.2,0.3,0.4,0.5c0.1,0.2,0.2,0.3,0.4,0.5c0.1,0.2,0.3,0.3,0.4,0.4
	c0.7,0.8,1.4,1.5,2.1,2.2c1.2,1.2,2.5,2.3,3.8,3.4c0.1-0.1,0.2-0.2,0.3-0.3c0.1-0.1,0.2-0.2,0.3-0.3c0.7-0.6,1.3-1.3,2-1.8
	c-0.3-0.3-0.7-0.5-1-0.8c2.5-3.9,5.2-7.6,5.2-7.6s-3.8,3-7.1,6.2c-1.3-1.1-2.6-2.2-3.8-3.4c-2.3-2.2-4.5-4.8-5.4-8
	C89.8,67,89.6,65.9,89.4,64.7L89.4,64.7z M122,69.8c0,0-7.5,6-10.5,9.8c-0.7,1-1.5,2.3-2.3,3.6l-2,2c-1.3-0.8-2.5-1.7-3.8-2.6l0,0
	c-0.4,0.6-0.9,1.3-1.3,2c-0.2,0.3-0.4,0.6-0.6,0.9c2.2,1.7,4.4,3.3,6.7,4.7c0.4-0.7,0.8-1.5,1.2-2.2c0.8-1.5,1.7-2.9,2.5-3.9
	c0.3-0.4,0.7-0.9,1.2-1.4c0.4-0.5,0.9-0.9,1.3-1.4C117,76.6,122,69.8,122,69.8z M123.1,86.8l-2.3,5.9c-0.8-0.3-1.7-0.7-2.5-1
	c-0.9-0.5-1.7-0.9-2.6-1.4l0.5-3.3l-1.4,2.8c-0.5-0.3-1-0.6-1.5-0.8c-0.1,0.2-0.2,0.5-0.2,0.7c-0.3,0.9-0.7,2-1,3
	c0.4,0.2,0.8,0.5,1.3,0.7l0,0c5.5,3.1,11.3,5.9,17,8.9c0.3,0.1,0.5,0.3,0.8,0.4c1,0.5,2,1.1,3,1.6c0.6,0.3,1.2,0.7,1.9,1
	c1.4,0.7,2.7,1.5,4.1,2.3l0,0c1.3,0.7,2.5,1.5,3.8,2.3l0,0c2,1.3,3.9,2.6,5.9,4c0.7-0.8,1.5-1.6,2.4-2.4l0,0
	c-0.1-0.1-0.1-0.1-0.2-0.2c2.8-4.8,7.2-10.7,7.2-10.7s-5.3,4.2-8.8,7.9l0.7-2.1l-2,2.7c-2.2-1.6-4.4-3.1-6.7-4.5l2.4-3.3l-3.7,2.5
	c-0.3-0.2-0.7-0.4-1-0.6c1.5-5.5,4.2-12.5,4.2-12.5s-1.8,2.4-3.6,5.3c-0.1,0.3-0.3,0.7-0.4,1.1l-3.3,4c-0.4-0.3-0.8-0.7-1.2-1
	c-0.5-0.4-1.1-0.8-1.7-1.2l2.3-5.8l-4,4.8c-0.9-0.5-1.8-1-2.8-1.5l1.7-4.2l-3,3.6c-1.8-0.8-3.6-1.6-5.5-2.3L123.1,86.8L123.1,86.8z
	 M157.8,107.4l-3.5,5.8c-0.1-0.1-0.2-0.2-0.3-0.3c-0.2,0.4-0.4,0.7-0.7,1.1l0,0c-0.4,0.6-0.8,1.2-1.1,1.8c1.7,1.3,3.3,2.7,5,4.2
	c3.9,2.9,7.4,5.8,10.4,8.8l0,0l0,0c4.1,4,7.6,8.2,10.7,12.3c0.5,0.7,1,1.3,1.5,2s1,1.4,1.5,2.2c0.5,0.7,1,1.4,1.4,2
	c0.3,0.5,0.7,1,1,1.5c1.3,2,2.7,3.9,3.9,5.8c0.7-0.2,1.6-0.4,2.4-0.6l0,0c-0.3-0.5-0.7-0.9-1-1.4c4.5-2.4,10-4.8,10-4.8
	s-7,0.8-11.7,2.2c-1.3-2-2.7-4-4-6c1,0.3,2,0.5,3.1,0.6c-0.4-0.2-0.7-0.4-1-0.7c-1.3-0.9-2.8-2-4.3-3.2c-0.7-0.9-1.3-1.9-2-2.8
	c3.4-4.1,11.5-10.5,11.5-10.5s-8.9,3.6-12.7,6.5l-0.1,0.1c-1.7-1.4-3.6-2.9-5.4-4.4c-0.8-0.9-1.7-1.9-2.6-2.8l4.5-7.4L168,125
	c-0.7-0.7-1.5-1.5-2.3-2.2l4.1-6.7l-6,5c-0.7-0.6-1.3-1.2-2-1.8l3.1-5.1l-4.6,3.9c-1.1-0.9-2.2-1.7-3.4-2.6
	c-0.3-0.3-0.5-0.5-0.8-0.7L157.8,107.4L157.8,107.4z M193.3,155.9c-0.6,0.5-0.9,0.8-1.2,1c-0.2-0.2-0.4-0.5-0.5-0.7
	c-0.7,0.4-1.4,0.7-2.1,1.1c0.8,1.2,1.7,2.4,2.5,3.6c0.6,0.8,1.1,1.6,1.7,2.3c0.7,0.9,1.4,1.9,2.2,2.8c0,0.1,0.1,0.1,0.1,0.2
	c0.7,0.9,1.4,1.7,2.2,2.6c0,0,0,0,0.1,0.1c2.9,3.2,6,6.2,9.7,8.8l0,0c0.8,0.6,1.7,1.1,2.6,1.7c0.2,0.1,0.5,0.3,0.7,0.4
	c0.6,0.4,1.3,0.7,2,1.1c0.3,0.2,0.7,0.4,1,0.5c0.6,0.3,1.3,0.6,2,0.9c0.4,0.2,0.8,0.4,1.2,0.6c0.1,0.1,0.3,0.1,0.4,0.2
	c0.8,0.4,1.7,0.7,2.6,1c0.9,0.3,1.7,0.5,2.5,0.7c0.2,0.1,0.5,0.1,0.7,0.2c0.8,0.2,1.6,0.3,2.3,0.5c0.1,0,0.1,0,0.2,0
	c0.7,0.1,1.4,0.2,2,0.3c0.1,0,0.2,0,0.3,0c0.7,0.1,1.3,0.1,2,0.1c0.1,0,0.1,0,0.2,0c1.9,0,3.4-0.1,4.8-0.4c0.2,0,0.3-0.1,0.5-0.1
	c0.4-0.1,0.8-0.2,1.1-0.3l0,0l-0.2-4.6c-3.3,1.1-8.5,1.6-16.7-0.9c-3.8-1.4-7.2-3.1-10.2-5c0.7-1.1,1.4-2.1,2-2.9
	c1.2-3.5,2.3-6.3,2.3-6.3s-3.1,4.3-5.6,8.4c-0.9-0.6-1.7-1.2-2.6-1.9l1-7.6l-2.9,6.1c-1.3-1.1-2.4-2.2-3.6-3.3
	c-1-1.2-1.9-2.4-2.8-3.6l5.2-3.9l-6.5,2C195.2,159.6,194.1,157.6,193.3,155.9L193.3,155.9z"/>
<path style="fill:none;stroke:#000000;stroke-miterlimit:10;" d="M226.5,185.6c-1.9-0.3-4-0.8-6.3-1.5
	c-12.3-4.5-19.8-11.7-26.2-20.2c8.8,3.8,17,9.2,24.7,15.2C221.4,181.2,224,183.4,226.5,185.6z"/>
<path style="fill:none;stroke:#000000;stroke-miterlimit:10;" d="M255.2,255.2c-0.2-0.5-0.5-1.1-0.7-1.7c-2.7-6.6-7.8-18.8-11.4-26
	c0-0.1-0.1-0.2-0.2-0.3c2.9,1.7,5.8,3.5,8.6,5.5c0,0.1,0,0.1,0,0.2c1.2,7.6,2.3,14.5,3.2,19.5C254.9,253.5,255.1,254.4,255.2,255.2z
	"/>
<path style="fill:none;stroke:#000000;stroke-miterlimit:10;" d="M383.8,57.3c-9.4-0.5-19.5,3.5-28.2,7.5
	c-17,7.7-31.5,21.3-44.4,35.7c4.1,0.5,8.4,1.4,8.4,1.4s-5.8,0.4-10.7,1.3c-1,1.2-2.1,2.3-3.1,3.5c-5.7,6.6-10.4,14.1-14.7,21.8
	c1.1-0.2,2.2-0.4,3.1-0.4c1.2-0.1,2.6,0,4.1,0.2c4.5,0.5,9.6,1.6,9.6,1.6s-10,0.7-14.8,2.2c-1.5,0.5-3.3,1.3-5.1,2.2
	c-2.2,4-4.3,7.9-6.5,11.9c-2.6,4.6-4.4,9.7-7,14.3c-4,7.1-13.2,20.5-13.3,20.7l2.3-0.2l15.3-2.1c0,0,0,0.4,0,0.6l6.6-0.7
	c0,0,28.3-50.2,47.4-71.5C349.3,89,387.9,61.4,391.2,59c-1.7-0.7-3.5-1.1-5.4-1.3C385.1,57.3,384.4,57.3,383.8,57.3L383.8,57.3z"/>
<path style="fill:none;stroke:#000000;stroke-miterlimit:10;" d="M294.4,203.7c-0.4-1.1-0.8-2.3-1-3.5c-0.7-4.5,2.1-8.9,3.9-13.1
	l-1.3-0.6l-5.8-2.7c-2.2,2.6-4.2,5.2-6.2,7.9c-2.3,3.9-4.8,8.5-5.9,11.8c-3.4,10.3-4.2,32.5-4.2,32.5l-2.1-1.4
	c0.7-9.6,1.7-19.2,2.6-28.7c0.3-2.8,0.5-5.7,0.8-8.5c0.1-1.4,0.2-2.8,0.3-4.2c0.4-4.8,0.8-9.6,1.2-14.5l-16.2,2.2
	c0,0,9.3-13.6,13.4-20.8c2-3.6,3.6-7.4,5.4-11.1c1.5-18,2.6-35.9,2.4-53.9c-0.1-12.1,1.1-24.9-3.1-36.1c-1.2-3.2-3-6.9-6-8.1
	c-13.4-2.5-24.7,9.6-28,23.4c-0.9,15.1,6.7,17.8,10,55.2c2.2,25.2,3.7,50.5,4.2,75.8c-0.4-1.2-0.7-2.3-1.1-3.4
	c-2.2-6.8-5.2-13.2-7.3-20c-5.1-15.9-6.6-33.2-13.4-48.3c-8.9-19.9-20.2-39.2-35.1-54.3c-14.8-15-32.6-28.4-52.3-34.1
	c-7.8-2.3-16.4-4.4-24.9-5.2c-11-1-21.8,0.1-30.8,6c-1.7,1.1-2.3,3.6-2.9,5.7c-1.8,6.8-2.7,14.3-0.8,21c0.9,3.2,3.1,5.8,5.4,8
	c1.2,1.2,2.5,2.3,3.8,3.4c3.2-3,6.8-6,7-6.1c-0.2,0.2-2.8,3.8-5.2,7.6c2.2,1.7,4.4,3.3,6.7,4.7c1.2-2.3,2.5-4.5,3.7-6.1
	c2.9-3.7,10-9.5,10.5-9.8c-0.4,0.5-6.3,8.6-8.5,13.3c-0.6,1.4-1.2,3.1-1.8,4.9c12.1,7,25.4,12.1,37.8,21.3c3.3-3.8,9.6-8.8,9.6-8.8
	s-4.4,6-7.1,10.7c1.7,1.3,3.3,2.7,5,4.2c15.1,11,23,23.4,30.5,34.7c4.7-1.4,11.7-2.2,11.7-2.2s-5.5,2.3-10,4.8
	c1.6,2.3,3.1,4.5,4.7,6.6c-1.6-0.7-3.3-1.3-4.9-1.9c-22-7.6-45.7-12.2-68.6-10.4c-1.5,0.1-3.1,0.3-4.6,0.4
	c-20.9,2.4-41.8,10.1-59.3,22.5c-15.1,10.7-30.9,24.4-36.6,42.9c-0.9,2.9-0.6,6.6,0.8,9.3c3.3,6.7,9.5,12.7,16.4,14.3
	c8.7,2,17-4.8,25.4-7.6c3.2-1.1,6.4-2.3,9.5-3.6c-0.3-0.5-0.6-1-0.8-1.5c-2-4.3-3.8-13.7-4-14.3c0.3,0.6,4.7,9.8,7.7,13.8
	c0.1,0.2,0.3,0.4,0.5,0.5c13.3-5.6,26.4-12.1,40.3-15.4c-1-2.4-1.8-4.8-2.3-6.7c-1.7-6.7-2-20.6-2-20.6s4,14.5,7.3,21.1
	c0.8,1.6,1.9,3.3,3.1,5.1c14.4-2.2,25,0.4,45.9-1.2c0.4,0,0.8,0,1.2,0c-0.4-5.1,0.7-14.3,0.7-14.3s1.2,8.8,2.6,14.2
	c7.5-0.1,15.4,0.6,22-2.8c8.6-4.5,19.9-22,19.9-22s8.4,7.1,11.8,11.5c6.9,9,11.8,19.6,17,29.9c0,0,0,0,0,0.1
	c2.9,1.7,5.8,3.5,8.6,5.5c0,0.1,0,0.1,0,0.2c1.2,7.6,2.3,14.5,3.2,19.5c0.2,1,0.3,1.9,0.5,2.8c-0.2-0.5-0.5-1.1-0.7-1.7
	c-2.7-6.6-7.8-18.8-11.4-26c-8.9-5.1-18.5-8.8-28.3-11.4l2.6,10.7c0.1,0,0.1,0,0.2,0c7.5-1,11.8,10.7,15.6,17.8
	c1.9,3.5,3.7,7.9,5.3,12.8c0.2,0.7,0.5,1.4,0.7,2.1c0,0,0,0,0,0.1c0.3,0.9,0.6,1.7,0.8,2.6c0.1,0.4,0.3,0.9,0.4,1.3
	c0.1,0.3,0.2,0.6,0.3,1c0.1,0.5,0.3,0.9,0.4,1.4c1.1,3.9,2.1,7.9,3,11.7c0.1,0.5,0.2,0.9,0.3,1.4c0.1,0.3,0.2,0.6,0.2,0.9
	c0.3,1.2,0.5,2.4,0.8,3.5c0.2,0.9,0.4,1.7,0.6,2.5c0.1,0.4,0.2,0.8,0.3,1.2c0.4,2,0.8,3.9,1.2,5.6c0.2,1.1,0.4,2,0.6,2.9
	c0,0,0,0,0,0.1c-0.2-0.9-0.4-1.9-0.6-3c-6.2,48.9-3.3,97.8-4.7,151.7l45.4-3.8l0,0c7.4-76.2-12.3-156.8-1.3-213.5
	C288.2,220.3,291,212.1,294.4,203.7z M226.5,185.6c-1.9-0.3-4-0.8-6.3-1.5c-12.3-4.5-19.8-11.7-26.2-20.2c8.8,3.8,17,9.2,24.7,15.2
	C221.4,181.2,224,183.4,226.5,185.6c14.6,2.2,16-6.7,16.6-3.2c0.9,4.8,2.5,14.1,4.2,24.7C240.8,199.6,233.9,192.2,226.5,185.6z"/>
<path style="fill:none;stroke:#000000;stroke-miterlimit:10;" d="M279.3,149.1c-0.8,9.9-1.7,19.7-2.6,29.6l-16.2,2.2
	c0,0,9.3-13.6,13.4-20.8C275.9,156.6,277.5,152.8,279.3,149.1z"/>
<path style="fill:none;stroke:#000000;stroke-miterlimit:10;" d="M247.9,295.6L247.9,295.6c-0.2-0.9-0.4-1.8-0.6-2.9
	c-0.3-1.7-0.7-3.6-1.1-5.6c0.4,2,0.8,3.9,1.2,5.6C247.6,293.7,247.8,294.7,247.9,295.6z"/>
<path style="fill:none;stroke:#000000;stroke-miterlimit:10;" d="M255.2,255.2c-0.2-0.5-0.5-1.1-0.7-1.7c-2.7-6.6-7.8-18.8-11.4-26
	c-8.9-5.1-18.5-8.8-28.3-11.4l2.6,10.7c-5.4,1-3.5,12.5-8.2,15.9c-5.9,4.2-14.9-1.1-21,2.7c-8.9,5.5-9.1,22.1-18.6,26.5
	c-2.2,1-4.7,2.1-7.4,3.2c-0.1-0.3-0.2-0.6-0.2-0.9c-1.2-5.2-1.6-16-1.6-16s-2.1,9.8-2,14.7c0,1,0.1,2.3,0.3,3.6
	c-13.2,5.3-30.8,11.5-46.4,17.7c-3.1-4.2-6.7-10.2-6.9-10.5c0.1,0.4,2,7.1,4.1,11.7c-2.1,0.9-4.3,1.7-6.3,2.6
	c-9.4,3.9-19.9,16.2-31.3,22.5c-2.8-4-5.5-8.5-5.7-8.9c0.1,0.3,1.6,5.7,3.4,10.1c-0.1,0.1-0.2,0.1-0.4,0.2
	c-11.8,5.3-24.8,2.3-24.8,2.3s-1.1-17.3-6.1-23.3c-4.2-5-17.6-7.3-17.6-7.3s39.5-55.8,95.3-74.3c12.8-4.1,31.7-7.8,52.4-8.3
	c24.6-0.6,51.9,3.3,74.7,16.3c2.9,1.7,5.8,3.5,8.6,5.5c0,0.1,0,0.1,0,0.2c1.2,7.6,2.3,14.5,3.2,19.5
	C254.9,253.5,255.1,254.4,255.2,255.2z"/>
<path style="fill:none;stroke:#000000;stroke-miterlimit:10;" d="M173.9,210.9c-1.9,0-3.8,0-5.7,0.1c-20.7,0.5-39.6,4.2-52.4,8.3
	c-55.7,18.5-95.3,74.3-95.3,74.3s12.6,2.2,17.2,6.9c16.5-13.1,56.4-43.8,82.1-55.5c27.6-12.6,88.2-23,88.2-23l7.6-5.7
	C201.9,212.5,187.6,211,173.9,210.9L173.9,210.9z"/>
<path style="fill:none;stroke:#000000;stroke-miterlimit:10;" d="M164.1,254.7c0,0,0.4,11,1.7,16.2c0.1,0.3,0.2,0.6,0.3,0.9
	c2.9-1.1,5.6-2.2,7.9-3.3c0.4-0.2,0.7-0.4,1.1-0.6c-1.3,1.8-2.9,3.2-4.8,4.1c-2.2,1-4.7,2.1-7.4,3.2c-0.1-0.3-0.2-0.6-0.2-0.9
	c-0.1-0.5-0.2-1.1-0.3-1.6c-0.1-1.2-0.3-2.3-0.3-3.2C161.8,264.7,164.1,254.7,164.1,254.7L164.1,254.7z M144.9,269.8l3.4,8.6
	c3.7-1.3,7.3-2.7,10.7-3.9c0.1,0.7,0.1,1.5,0.2,2.3c-3.1,1.2-6.5,2.6-10,3.9h-0.1c-0.4,0.1-0.8,0.3-1.2,0.4h-0.1
	c-1.3,0.5-2.7,1-4,1.5c-0.6,0.2-1.2,0.4-1.7,0.7c-1,0.4-2,0.8-3,1.1c-0.7,0.3-1.4,0.5-2.1,0.8c-0.3,0.1-0.5,0.2-0.8,0.3
	c-0.8,0.3-1.7,0.6-2.6,1c-1.1,0.4-2.2,0.8-3.4,1.3c-1.5,0.5-2.9,1.1-4.4,1.6c-0.1,0-0.2,0.1-0.2,0.1c-0.7,0.3-1.3,0.5-2,0.8
	c-2.5,1-5,1.9-7.4,2.9c-0.8,0.3-1.5,0.6-2.3,0.9c-0.3,0.1-0.7,0.3-1,0.4c-2-2.6-3.8-5.5-5.2-7.7c-1.2-3.3-2.1-6.2-2.1-6.2
	s3.9,6.3,7.3,10.7c0.3-0.1,0.7-0.3,1-0.4l0.1-4.9l1.3,4.4c2.5-0.9,4.9-1.8,7.4-2.7l-1.3-4.4l2.7,3.8c1.7-0.6,3.3-1.2,5-1.8l-3-7.5
	l5.5,6.6c1.4-0.5,2.8-1,4.2-1.5l-0.5-7.6l2.7,6.8c0.7-0.3,1.4-0.5,2.1-0.8l-0.6-9.4l3.3,8.4c0.9-0.3,1.7-0.6,2.6-0.9L144.9,269.8
	L144.9,269.8z M103,287.5l3.7,6.2c0.7-0.3,1.4-0.6,2.1-0.8c0.4,1,0.7,1.9,1.1,2.8c-0.6,0.2-1.1,0.5-1.7,0.7c-1,0.4-2,0.8-3,1.2
	c-0.6,0.2-1.1,0.5-1.7,0.7c-0.2,0.1-0.5,0.2-0.7,0.3c-0.8,0.4-1.7,0.8-2.5,1.3h-0.1c-0.6,0.4-1.2,0.8-1.9,1.2
	c-0.7,0.4-1.3,0.9-2,1.4l0,0c-1.1,0.8-2.1,1.6-3.2,2.5c-0.8,0.6-1.6,1.3-2.4,1.9l0,0c-1.2,1-2.5,2.1-3.8,3.1c-0.6,0.5-1.2,1-1.7,1.4
	c-2.1,1.7-4.3,3.5-6.5,5l0,0c-0.7,0.5-1.5,1.1-2.3,1.6c-1.4,0.9-2.8,1.8-4.2,2.5c-0.7-1-1.4-2-2-3c1.9-1,3.8-2.2,5.6-3.5l-0.7-4.9
	l1.9,4.1c2.2-1.5,4.4-3.2,6.5-4.9l-1.6-3.3l2.5,2.5c1.5-1.2,3-2.3,4.4-3.5l-3.2-5.3l4.9,4c1.7-1.3,3.3-2.5,4.9-3.6l-1.1-4.7l2.3,3.9
	c0.9-0.6,1.8-1.2,2.7-1.7l-1.4-6.2l3.2,5.3c0.6-0.3,1.2-0.6,1.9-0.8c0.5-0.2,1-0.4,1.4-0.6L103,287.5L103,287.5z M63.8,308.8
	c0,0,1.6,2.6,3.6,5.5c0.6,2,1.5,4.7,2.6,7.5c-0.1,0.1-0.2,0.1-0.4,0.2c-0.8,0.4-1.6,0.7-2.4,1c-0.6,0.2-1.1,0.4-1.7,0.6
	s-1.1,0.3-1.7,0.5c-3.8,0.9-7.5,1.2-10.6,1.2c-1,0-2-0.1-2.9-0.1h-0.1c-3.2-0.2-5.3-0.7-5.3-0.7s-0.1-1.1-0.2-2.1
	c1.7,0.2,3.9,0.3,6.3,0.3l2.1-6.9l0.1,6.8c2.8-0.2,5.9-0.6,9.1-1.4l-3.3-6.3l5.7,5.5c0.8-0.3,1.5-0.6,2.3-0.9
	c0.1-0.1,0.3-0.1,0.4-0.2C65.5,314.5,63.8,308.8,63.8,308.8L63.8,308.8z"/>
<path style="fill:none;stroke:#000000;stroke-miterlimit:10;" d="M238.4,257.3c-1.6-4.8-3.4-9.1-5.2-12.5c-3.8-7-8.1-18.7-15.6-17.8
	c-0.1,0-0.1,0-0.2,0l-0.1-0.2c0.1,0,0.1,0,0.2,0c7.5-1,11.8,10.7,15.6,17.8C235,248,236.8,252.5,238.4,257.3z"/>
<path style="fill:none;stroke:#000000;stroke-miterlimit:10;" d="M255.2,255.2c-0.2-0.5-0.5-1.1-0.7-1.7c-2.7-6.6-7.8-18.8-11.4-26
	c1.7,1,3.3,2,4.9,3c0.8,0.6,1.7,1.1,2.5,1.7c0.3,0.2,0.7,0.5,1,0.7c1.2,7.6,2.3,14.5,3.2,19.5C254.9,253.5,255.1,254.4,255.2,255.2z
	"/>
<path style="fill:none;stroke:#000000;stroke-miterlimit:10;" d="M124.6,40.1c-0.4,0-0.8-0.1-1.3-0.1c-0.1,2-0.2,4.1-0.4,6.1
	C123,46.1,123.8,43.3,124.6,40.1z M126.5,40.3c-0.1,1.1-0.2,2.2-0.3,3.3c0.3-1.1,0.7-2.2,1-3.3C127,40.3,126.8,40.3,126.5,40.3z
	 M121,39.8c-0.5,0-1.1,0-1.6-0.1c-0.4,2.6-0.7,5.2-1.1,7.7C119.2,44.9,120.1,42.4,121,39.8L121,39.8z M128.8,40.6
	c-0.2,1.4-0.4,2.7-0.5,3.8c-0.4,4.1-0.5,11.8-0.5,11.8c0.6-6.3,1.5-11,2.5-15.3C129.8,40.7,129.3,40.6,128.8,40.6L128.8,40.6z
	 M117.9,39.7c-1.1,0-2.1,0-3.2,0.1c-0.7,5.1-1.5,11.5-1.3,15.1C113.9,52.2,116.1,45.4,117.9,39.7L117.9,39.7z M132.2,41.1
	c0,0.3,0,0.6-0.1,0.9c0.1-0.3,0.2-0.6,0.3-0.8C132.4,41.1,132.3,41.1,132.2,41.1L132.2,41.1z M134.3,41.5c-0.3,1.6-0.6,3.2-0.8,4.9
	c0.6-1.5,1.3-3.1,1.9-4.6C135,41.6,134.7,41.5,134.3,41.5L134.3,41.5z M113.1,39.9c-0.5,0-1.1,0.1-1.6,0.2c-0.3,2.2-0.6,4.5-0.9,6.7
	C111.4,44.5,112.3,42.2,113.1,39.9z M136.8,42c-0.5,2.8-0.9,5.5-1.4,8.3c0.9-2.7,1.9-5.3,2.8-7.9C137.8,42.2,137.3,42.1,136.8,42z
	 M139.3,42.6c-0.6,3.4-1.2,6.9-1.9,10.3c1.3-3.3,2.7-6.5,4-9.8C140.8,42.9,140.1,42.7,139.3,42.6z M108.9,40.4
	c-0.3,0.1-0.6,0.1-1,0.2c-0.2,1.4-0.3,2.8-0.5,4.2C108,43.3,108.4,41.9,108.9,40.4L108.9,40.4z M142.8,43.4
	c-0.8,3.9-1.6,7.8-2.4,11.7c1.6-3.7,3.3-7.4,4.9-11C144.5,43.9,143.7,43.6,142.8,43.4z M145.9,44.3c-1.1,4.9-3.2,14.4-3.3,19.2
	c0.8-3.2,4.7-12.6,7-18.1C148.4,44.9,147.2,44.6,145.9,44.3L145.9,44.3z M105.6,41.1c-0.1,0-0.1,0-0.2,0.1c0,0.4-0.1,0.8-0.1,1.1
	C105.4,41.9,105.5,41.5,105.6,41.1L105.6,41.1z M150.4,45.5c-0.8,3.6-1.6,7.3-2.4,10.9c1.5-3.4,3-6.8,4.5-10.2
	C151.8,46,151.1,45.7,150.4,45.5L150.4,45.5z M154,46.7c-0.4,2.9-0.8,5.8-1.2,8.8c0,0,1.5-4,2.9-8.1C155.1,47.1,154.5,46.9,154,46.7
	L154,46.7z M157.1,47.9c-0.3,1.8-0.6,3.6-0.9,5.4c0.7-1.7,1.4-3.3,2.1-4.9C157.8,48.2,157.5,48,157.1,47.9L157.1,47.9z M159.4,48.8
	c-0.5,2-0.9,3.9-1.2,5.4c-0.7,4-1.6,11.7-1.6,11.7c1.3-7,2.8-11.8,4.4-16.4C160.5,49.3,159.9,49.1,159.4,48.8z M98.3,43.7
	c-0.1,0.1-0.3,0.1-0.4,0.2c0.1,2.7,0.2,4.9,0.2,4.9C98.1,46.9,98.2,45.2,98.3,43.7z M162.5,50.2c-0.1,0.7-0.2,1.4-0.3,2
	c0.3-0.6,0.6-1.2,0.9-1.7C162.9,50.4,162.7,50.3,162.5,50.2z M164.6,51.2c-0.5,1.8-1,3.7-1.5,5.5c0.9-1.6,1.8-3.3,2.7-4.9
	C165.4,51.6,165,51.4,164.6,51.2L164.6,51.2z M167,52.4c-0.6,2.1-1.1,4.2-1.7,6.2c-0.2,0.7-0.4,1.5-0.6,2.2c1.2-2.6,2.4-5.1,3.7-7.7
	C167.9,52.9,167.4,52.7,167,52.4L167,52.4z M169.3,53.8c-1,3.3-2,6.7-3,10c1.6-3,3.2-5.9,4.9-8.9C170.6,54.5,170,54.1,169.3,53.8z
	 M172.5,55.6c-1.2,3.6-2.3,7.2-3.5,10.7c1.9-3.2,3.7-6.3,5.7-9.4C174,56.5,173.3,56.1,172.5,55.6z M175.4,57.4
	c-1.8,4.9-4.7,13.1-5.4,17.4c0.9-2.2,3.7-7.4,6.4-12.1c0.7-1.3,1.3-2.2,2-3.3C177.4,58.7,176.4,58.1,175.4,57.4z M179.4,60.1
	c-1.1,2.9-2.2,5.7-3.3,8.6c1.6-2.5,3.2-5,4.8-7.5C180.4,60.8,179.9,60.5,179.4,60.1L179.4,60.1z M182.8,62.6c-0.6,2-1.2,4-1.9,6
	c0,0,1.4-2.4,3-5.2C183.5,63.1,183.1,62.8,182.8,62.6L182.8,62.6z M185.5,64.7c-0.3,0.8-0.6,1.6-0.9,2.5c0.5-0.7,0.9-1.4,1.4-2.1
	C185.8,64.9,185.6,64.8,185.5,64.7z M187.4,66.2c-0.4,0.8-0.8,1.7-1,2.3c-1.6,3.7-4.2,10.9-4.2,10.9c2.7-5.7,4.6-9.2,6.4-12.2
	C188.2,66.8,187.8,66.5,187.4,66.2L187.4,66.2z M191.8,69.9c-0.5,0.8-0.9,1.6-1.4,2.4c0.6-0.6,1.3-1.3,1.9-1.9
	C192.1,70.2,192,70,191.8,69.9z M193.9,71.7c-1,1.7-2.1,3.3-3.1,5c1.3-1.4,2.6-2.8,3.9-4.2C194.4,72.2,194.1,72,193.9,71.7z
	 M195.9,73.5c-1.5,2.1-3,4.2-4.5,6.3c1.9-1.7,3.8-3.5,5.7-5.1C196.7,74.3,196.3,73.9,195.9,73.5z M198.5,76.1
	c-1.9,2.4-3.8,4.8-5.7,7.1c2.4-1.9,4.8-3.8,7.2-5.6C199.6,77.1,199.1,76.6,198.5,76.1z M200.9,78.4c-3.4,3.9-8.2,9.5-10.3,12.9
	c1.7-1.7,6-5.2,10.2-8.5c1-0.7,1.7-1.2,2.5-1.9c-0.5-0.5-0.9-1-1.4-1.5C201.6,79.1,201.2,78.7,200.9,78.4L200.9,78.4z M204.3,81.8
	c-2,2.1-3.9,4.2-5.9,6.3c2.4-1.7,4.8-3.3,7.2-4.9C205.1,82.8,204.7,82.3,204.3,81.8L204.3,81.8z M207,84.9c-1.4,1.7-2.8,3.4-4.3,5.1
	c0,0,2.5-1.9,5.3-4C207.7,85.6,207.4,85.3,207,84.9L207,84.9z M209.2,87.5c-0.9,0.9-1.7,1.9-2.6,2.8c1.1-0.7,2.1-1.4,3.2-2.1
	C209.6,87.9,209.4,87.7,209.2,87.5L209.2,87.5z M210.8,89.4c-1.1,1.1-2.2,2.1-2.9,2.9c-2.7,2.9-7.5,8.7-7.5,8.7
	c4.6-4.7,8.1-7.7,11.5-10.3C211.5,90.3,211.2,89.8,210.8,89.4L210.8,89.4z M213,92.2c-0.3,0.3-0.6,0.7-0.9,1
	c0.4-0.2,0.8-0.4,1.2-0.6C213.2,92.5,213.1,92.3,213,92.2z M214.4,94c-1.3,1.1-2.6,2.3-3.9,3.4c1.6-0.8,3.1-1.6,4.7-2.4
	C214.9,94.7,214.7,94.4,214.4,94z M216,96.2c-2.1,1.9-4.3,3.8-6.4,5.6c2.5-1.4,4.9-2.9,7.4-4.3C216.6,97.1,216.3,96.7,216,96.2z
	 M217.6,98.5c-2.7,2.3-5.4,4.5-8.2,6.8c3.2-1.6,6.4-3.2,9.5-4.7C218.5,99.8,218,99.1,217.6,98.5L217.6,98.5z M219.7,101.6
	c-3.2,2.5-6.3,5-9.5,7.5c3.7-1.7,7.4-3.4,11.1-5C220.8,103.2,220.2,102.4,219.7,101.6z M221.5,104.5c-3.7,2.7-11.8,8.7-14.9,12.3
	c2.7-1.9,12.1-6.5,17.1-8.9C223,106.8,222.3,105.6,221.5,104.5z M224,108.6c-3.1,2.3-6.1,4.6-9.2,6.9c3.5-1.6,7-3.2,10.5-4.7
	C224.9,110,224.5,109.3,224,108.6z M226,111.9c-2.3,2.1-4.7,4.2-7,6.3c0,0,4.2-2.2,8-4.5C226.7,113.1,226.3,112.5,226,111.9z
	 M227.7,115c-1.6,1.4-3.2,2.7-4.9,4.1c1.9-0.9,3.8-1.8,5.6-2.7C228.2,115.9,228,115.4,227.7,115L227.7,115z M229,117.3
	c-1.9,1.4-3.9,2.8-5.2,3.9c-3,2.5-8.4,7.7-8.4,7.7c5.7-4.7,10.1-7.4,14.5-9.9C229.6,118.4,229.3,117.9,229,117.3L229,117.3z
	 M230.6,120.3c-0.9,0.8-1.8,1.6-2.7,2.3c1.1-0.4,2.2-0.8,3.3-1.2C231,121.1,230.8,120.7,230.6,120.3z M231.7,122.6
	c-2,1.4-4,2.7-6,4.1c2.2-0.8,4.5-1.7,6.7-2.5C232.3,123.7,232,123.1,231.7,122.6z M232.9,125c-2.8,2-5.7,4-8.5,5.9
	c3.1-1.4,6.3-2.8,9.4-4.1C233.5,126.2,233.2,125.6,232.9,125L232.9,125z M234.1,127.5c-3.4,2.3-6.8,4.5-10.2,6.8
	c3.8-1.4,7.6-2.8,11.4-4.2C235,129.2,234.6,128.4,234.1,127.5L234.1,127.5z M235.8,131c-3.8,2.4-7.6,4.8-11.4,7.2l0,0
	c4.2-1.4,8.5-2.9,12.7-4.3c0-0.1-0.1-0.2-0.1-0.3C236.6,132.8,236.2,131.9,235.8,131L235.8,131z M237.2,134.2
	c-2.3,1.3-13,7.6-17,11.5c3.1-1.7,13.8-5.8,18.6-7.6C238.3,136.8,237.8,135.5,237.2,134.2L237.2,134.2z M239,138.6
	c-3.5,2.2-6.9,4.4-10.4,6.5c3.8-1.3,7.6-2.7,11.3-4C239.6,140.3,239.3,139.5,239,138.6z M240.3,142.3c-2.6,2-5.2,4-7.8,6
	c0,0,4.5-1.9,8.5-3.9C240.7,143.7,240.5,143,240.3,142.3z"/>
<path style="fill:none;stroke:#000000;stroke-miterlimit:10;" d="M247.9,295.6L247.9,295.6c-0.2-0.9-0.4-1.8-0.6-2.9l0,0
	C247.6,293.7,247.8,294.7,247.9,295.6z"/>
<path style="fill:none;stroke:#000000;stroke-miterlimit:10;" d="M255.2,255.2c-0.2-0.5-0.5-1.1-0.7-1.7c0.1-0.3,0.2-0.7,0.3-1.1
	C254.9,253.5,255.1,254.4,255.2,255.2z"/>
<path style="fill:none;stroke:#000000;stroke-miterlimit:10;" d="M284,191.7c-2.3,3.9-4.8,8.5-5.9,11.8c-3.4,10.3-4.2,32.5-4.2,32.5
	l-2.1-1.4c0.7-9.6,1.7-19.2,2.6-28.7C277.4,201.1,280.6,196.3,284,191.7z"/>
<path style="fill:none;stroke:#000000;stroke-miterlimit:10;" d="M314.6,160.4c0,0,0,0.1-0.1,0.2c-0.3,0.5-1.2,2.2-2.4,4.7
	c-2.6,5.1-6.9,13.7-11.3,23.4c-1.7,3.8-3.4,7.6-5,11.6l0,0c-0.4,1-0.8,2-1.2,3l0,0c0,0.1,0,0.1-0.1,0.2c0,0.1-0.1,0.2-0.1,0.3
	c-0.4-1.1-0.8-2.3-1-3.5c-0.7-4.5,2.1-8.9,3.9-13.1l-1.3-0.6l-5.8-2.7c4.3-5.1,8.9-10,13.8-14.6c0.2-0.2,0.3-0.3,0.5-0.4l0,0
	c1.6-1.4,3.1-2.8,4.8-4.2C311,163.2,312.8,161.8,314.6,160.4z"/>
<path style="fill:none;stroke:#000000;stroke-miterlimit:10;" d="M314.8,160.4c0,0-1,1.8-2.6,5c-2.6,5.1-6.9,13.8-11.3,23.4
	c-1.7,3.8-3.4,7.7-5,11.7c-0.4,1-0.8,2-1.3,3.1c0,0.1-0.1,0.1-0.1,0.2c0,0.1-0.1,0.2-0.1,0.3c-3.3,8.3-6.1,16.4-7.5,23.1
	c-11.1,56.6,8.7,137.3,1.2,213.5h-0.2c7.4-76.2-12.3-156.8-1.3-213.5c1.4-6.7,4.3-15,7.6-23.4c-0.4-1.1-0.8-2.3-1-3.5
	c-0.7-4.5,2.1-8.9,3.9-13.1l-1.3-0.6c2-4.4,4-8.6,5.8-12.2c0.5-1,1-1.9,1.4-2.8c0,0,0-0.1,0.1-0.1c0.4-0.8,0.8-1.5,1.1-2.2
	c1.6-1.5,3.3-3,5-4.4s3.4-2.8,5.1-4.1C314.6,160.5,314.7,160.5,314.8,160.4L314.8,160.4z"/>
<path style="fill:none;stroke:#000000;stroke-miterlimit:10;" d="M269.7,54c-1.8-0.2-3.9,0.2-5.6,0.8c-4.3,1.3-8.6,4.1-11.1,8.1
	c-3.2,4.9-8.5,14-4,17.6c4.5,3.5,9-5.8,14.1-9.5c3-0.9,6.2-1,7.5,0.6c-0.9,0.9-3.7,0.8-4.6,1.8c1,0.2,3.8,1.4,4.8,1.5
	c-1.2,0.7-2.3,1.4-3.5,2.1c0.9,0.1,1.8,0.2,2.7,0.4c0.3,0,0.6,0.1,1,0.1c-1.3,0.9-2.7,1.7-4,2.5c1.6-0.1,3.2-0.1,4.9-0.2
	c-1.6,1-3.3,1.9-4.9,2.8c1.9,0.2,3.8,0.5,5.6,0.7c-1.8,0.9-3.6,1.8-5.4,2.7c1.3,0.2,2.6,0.5,3.8,0.8c0.3,0.1,0.7,0.1,1,0.2
	c0,0-4.7,1.7-6.3,3.7c1.4-0.4,7.4,0.4,7.4,0.4c-1.5,0.7-3,1.4-4.5,2.1c1.7,0.3,3.3,0.6,5,1.1c-1.5,0.1-3.4,0.6-3.4,0.6
	c0.4,0.2,0.9,0.4,1.3,0.6c0.2,0.1,0.3,0.1,0.5,0.2c-0.7,0.5-1.5,1.1-2.2,1.6c0,0,3.2,0.2,3.2,0.3c0,0.1-1.6,0.9-3.3,1.5
	c1.6,0.3,3.2,0.7,4.8,1.1c0,0-5.7,2.2-7.2,2.1c1.9,1.7,6.8,2.2,6.8,2.2c-1.5,0.7-3,1.4-4.6,2.1c0.9,0.2,1.9,0.4,2.8,0.6
	c-0.3,0.2-0.7,0.3-1,0.5c1,0.2,2,0.4,3,0.6c-1.5,0.6-2.9,1.1-4.4,1.7c0.3,0.1,0.5,0.2,0.8,0.2c-1.2,0.8-2.9,2.1-2.9,2.1
	c2.1-1.2,3.8-1.4,5.3-1.4c0.5,0.2,1.1,0.3,1.6,0.5c-0.2,0.1-0.4,0.3-0.7,0.4c-1.2,0.3-2.4,0.5-3.6,0.8c1.3,0.4,2.5,0.8,3.8,1.3
	c0.2,0.1,0.3,0.2,0.5,0.2c-0.3,0.1-0.6,0.3-0.9,0.4c-0.9,0.3-1.9,0.5-2.8,0.7c0.2,0.1,0.3,0.1,0.5,0.2l-0.1,0.1
	c0.3,0.1,0.6,0.2,0.8,0.2c0.1,0,0.2,0.1,0.2,0.1c0.7,0.3,1.4,0.6,2.1,0.9c-1.5,0.5-3,0.9-4.4,1.4c1.5,0.4,3.1,0.7,4.6,1.1l0.1,0.1
	c-0.7,0.2-1.3,0.4-2,0.5c-1.4-0.1-2.9-0.4-4.7-1.5c0,0,1.5,1.2,2.7,2c-0.4,0.1-0.8,0.2-1.3,0.3c1.5,0.6,3,1.2,4.6,1.9
	c-0.9,0.2-1.7,0.3-2.6,0.5c0.3,0.1,0.5,0.3,0.8,0.4c-1.1,0.2-2.2,0.5-3.2,0.7c1.5,0.7,3,1.5,4.5,2.2c0,0-4.9,0.5-6.9,2.2
	c1.4-0.1,7.2,2.1,7.2,2.1c-1.6,0.4-3.2,0.8-4.8,1.1c1.6,0.6,3.2,1.3,4.8,1.9c-1.5-0.2-3.5,0-3.5,0c0.5,0.4,1.1,0.7,1.6,1.1
	c-0.8,0.4-1.6,0.8-2.4,1.2c0,0,3.2,0.6,4.6,0.2c0.1,0.1,0.2,0.1,0.3,0.2c-1.7,0.5-3.4,1-5.1,1.5c0.6,0.2,1.2,0.4,1.7,0.6
	c1,0.3,1.9,0.7,2.9,1c0,0-5.9,1.6-7.3,1.3c1.8,1.9,6.6,2.9,6.6,2.9c-1.6,0.6-3.1,1.2-4.7,1.7c1.9,0.6,3.8,1.2,5.6,1.8
	c-1.8,0.6-3.7,1.1-5.5,1.7c1.7,0.6,3.5,1.3,5.2,1.9c-1.6,0.2-3.2,0.5-4.8,0.7c1.4,0.6,2.9,1.2,4.3,1.8c-1.2,0.4-2.4,0.8-3.6,1.2
	c1.3,0.5,2.5,0.9,3.8,1.4c-0.9,0.3-1.8,0.7-2.7,1h-0.1c1,0.8,2.1,1.5,3.1,2.3c-2.4-0.3-4.5,0-7.6-2.1c0,0,2.1,2,3.3,2.7
	c1.3,0.8,4.1,1.7,4.1,1.7c-1.4,0.2-2.9,0.3-4.3,0.5c0.2,0.1,0.4,0.2,0.5,0.3c1,0.6,1.9,1.2,2.9,1.8c0.2,0.2,0.5,0.3,0.7,0.5
	c-1-0.1-2.1-0.1-3.3-0.2c0.8,0.1,2,0.1,3.5,0.2c0-0.1,0-0.2,0-0.4c0-0.4,0.1-0.9,0.1-1.5c0.1-1.4,0.3-3.3,0.6-7.6
	c0.3-4.3,0.8-11.2,0.9-16.5c0.1-3.2-0.4-7.7,0.2-11.5c0,0,0.5-6,0.6-11.3c0.1-4.3,0.1-8.6-0.1-12.8c-0.4-10.5,1.7-23.5-1.4-34.5
	c1.8,0,3.2,0,3.2,0s-1.6-10.7-5.3-13.4C271.9,54.5,270.8,54.1,269.7,54L269.7,54z M275.8,122.3L275.8,122.3L275.8,122.3z"/>
<path style="fill:none;stroke:#000000;stroke-miterlimit:10;" d="M120.4,151.6c0.2,0,0.3,0,0.5,0c-0.5,2.4-1.1,4.8-1.5,7.1
	c-0.4-2.3-0.9-4.6-1.3-6.9C118.8,151.8,119.6,151.7,120.4,151.6L120.4,151.6z M121.1,151.6c0.9-0.1,1.8-0.1,2.8-0.2
	c0.1,2.6-0.3,6.1-0.3,6.1c-0.4-1.3-0.9-2.6-1.3-3.9c-0.4,0.9-0.7,1.9-1,2.8C121.2,156.4,121,153.9,121.1,151.6L121.1,151.6z
	 M117.7,151.9c-0.2,0.9-0.4,2.3-0.6,4.2c-0.4,2.8-0.6,5.7-0.5,6.9c-1.6-2.8-2.8-9.4-3-10.6c0.8-0.1,1.5-0.2,2.3-0.3
	C116.4,152,117,152,117.7,151.9L117.7,151.9z M124.3,151.4c0.9,0,1.8-0.1,2.6-0.1c-0.5,2.2-1,4.4-1.5,6.6
	C125.1,155.7,124.7,153.6,124.3,151.4L124.3,151.4z M113.3,152.4c-0.5,2.4-0.9,4.9-1.2,7.3c-0.6-2.3-1.3-4.6-1.9-6.9
	C111.2,152.7,112.3,152.5,113.3,152.4z M127.3,151.3c3.8-0.1,7.5,0,11.3,0.2c-0.2,0.8-0.5,1.5-0.7,2.3c-0.3,2.6-0.3,5.2,0.4,8.9
	c0,0-1-3-1.5-5.1c-0.1,0.4-0.3,0.9-0.4,1.3c-0.3-2.5-0.6-5-1-7.5c-0.4,1.6-0.7,3.2-1.1,4.9c-0.1-0.6-0.2-1.1-0.4-1.7
	c-0.4,1.5-0.7,3-1.1,4.5c-0.5-2.6-0.9-5.2-1.5-7.8c0,0-1.3,8-3.2,11c0.2-1.2-0.1-4.4-0.5-7.2C127.7,153.5,127.5,152.2,127.3,151.3
	L127.3,151.3z M109.2,153c-0.2,2.2-0.4,4.4-0.4,6.6c-0.7-2-1.5-4.1-2.3-6.1C107.4,153.3,108.3,153.2,109.2,153L109.2,153z
	 M105.7,153.6c0.1,1.8,0.3,3.7,0.5,5.5c-0.8-1.7-1.6-3.4-2.4-5.1C104.4,153.9,105.1,153.8,105.7,153.6z M103,154.2
	c0,1.4,0,2.8,0.1,4.3c-0.2-0.5-0.5-1-0.7-1.4c-0.4-0.8-0.8-1.6-1.3-2.4C101.8,154.5,102.4,154.3,103,154.2L103,154.2z M138.9,151.5
	c0.9,0.1,1.7,0.1,2.6,0.2c-0.1,0.2-0.2,0.4-0.3,0.6c-0.7,2-1.4,4-2,6c0-2-0.1-4-0.1-6C139,152,138.9,151.8,138.9,151.5L138.9,151.5z
	 M100.2,154.8c0,0.9,0.1,1.7,0.1,2.6c-0.6-0.7-1.2-1.4-1.8-2.2C99.1,155.1,99.6,155,100.2,154.8L100.2,154.8z M141.6,151.7
	c15.3,1.2,30.6,4.7,45.2,9.6c-1,1.3-1.9,2.6-2.9,3.9c0-1.6-0.1-3.1-0.1-4.7c-0.9,1.9-1.8,3.9-2.7,5.8V165c0-1.5,0-3.1,0-4.6
	c-1.1,2.2-2.2,4.4-3.2,6.6c0.3-2.6,0.6-5.3,0.9-8c-1.2,2.7-2.4,5.4-3.6,8.1c0-3.1,0.1-6.1,0.1-9.2c-1.2,2.9-2.4,5.9-3.6,8.8
	c-0.1-2.7-0.2-5.3-0.3-8c0,0-2.5,7.7-4.9,10.2c0.7-2.3,0.8-12.1,0.8-12.1c-1,2.4-2,4.8-3,7.3c0-2.8,0-5.7-0.1-8.5
	c-0.1,0.1-0.2,0.3-0.3,0.4c0,2.3-1.5,7.4-1.5,7.4c-0.2-1.4-0.4-2.7-0.6-4.1c-0.5,0.8-1,1.7-1.5,2.5c0,0,0.4-3.2,1-5.6
	c-1.1,2.5-2.2,5-3.3,7.5c0-2.7,0.1-5.3,0.1-8c0,0-0.4,0.9-0.9,2.2c-1.1,2.8-2.9,7.5-3,9.1c-1.2-3.4-0.4-11.5-0.4-11.5
	c-1.1,2.3-2.2,4.7-3.3,7.1c0-1.8,0.1-3.6,0.1-5.4c-0.2,0.4-0.4,0.8-0.6,1.2c0.1-1.4,0.1-2.9,0.1-4.3c-1,2.4-2,4.8-3,7.2
	c0-0.7,0-1.4,0-2.1c-1.1,1.8-2.6,4.1-2.6,4.1c1.5-2.9,2.1-5.2,2.5-7.5c0-1.1-0.1-2.3-0.1-3.4l-0.1,0.1c-0.7,2.4-1.4,4.9-2.1,7.4
	c-0.1-2.5-0.3-5-0.4-7.5c-0.5,1.2-1,2.4-1.5,3.6c-0.1,0.4-0.3,0.9-0.4,1.3c0-0.1,0-0.2,0-0.2c-0.1,0.2-0.2,0.5-0.3,0.7
	c-0.1-1.6-0.1-3.1-0.2-4.7C141.7,152.6,141.7,152.2,141.6,151.7L141.6,151.7z M97.5,155.5c0.9,2.8,1.9,5.6,4.5,9.1
	c0,0-2.9-2.9-4.1-4.6c-0.8-1-1.7-2.6-2.4-4C96.2,155.9,96.8,155.7,97.5,155.5z M94.9,156.3c0.3,1.5,0.6,3.1,1,4.6
	c-1-1.3-2-2.6-3.1-4C93.5,156.7,94.2,156.5,94.9,156.3z M90.7,157.5c0.1,1.2,0.1,2.4,0.2,3.6c-0.6-1-1.1-2.1-1.7-3.1
	C89.7,157.9,90.2,157.7,90.7,157.5z M88.3,158.3c0.3,1.3,0.5,2.8,0.6,3.8c0.2,2.1-0.1,6.3-0.1,6.3c-0.3-4.2-1.2-6.9-2.2-9.5
	C87.1,158.8,87.7,158.5,88.3,158.3L88.3,158.3z M85.4,159.4c0,0.8,0,1.7,0,2.5c-0.5-0.6-1-1.3-1.6-1.9
	C84.4,159.8,84.9,159.6,85.4,159.4L85.4,159.4z M83,160.3c0.3,1.5,0.7,2.9,1,4.4c-0.9-1.2-1.9-2.4-2.8-3.6
	C81.7,160.8,82.4,160.5,83,160.3z M80.6,161.2c0.4,2.1,0.9,4.1,1.3,6.2c-1.1-1.8-2.2-3.5-3.3-5.3C79.3,161.8,80,161.5,80.6,161.2z
	 M78.2,162.3c0.6,2.4,1.2,4.8,1.8,7.2c-1.5-2-3.1-3.9-4.6-5.9C76.3,163.2,77.2,162.7,78.2,162.3z M74.8,163.8
	c0.7,2.6,1.5,5.2,2.3,7.9c-1.7-2-3.4-3.9-5.1-5.8c0,0,2.9,7.6,2.7,11.2c-0.9-2.2-6.5-9.3-6.8-9.7C70.1,166.2,72.5,165,74.8,163.8
	L74.8,163.8z M67.8,167.4c0.7,2.5,1.5,5,2.2,7.5c-1.6-2-3.3-4-4.9-5.9C66,168.5,66.9,168,67.8,167.4z M64.9,169.1
	c1.5,1.8,3.4,6.6,3.4,6.6c-1-0.9-2-1.8-3-2.7c0.1,1,0.3,2,0.4,3c0,0-1.7-2.7-2.8-4.9c0.7,2.7,1.5,5.3,2.2,8c-1.6-2-3.2-4.1-4.9-6.1
	c0,0,2.9,9.4,4.2,11.4c-0.8-0.5-1.7-1.3-2.6-2.2c-2.5-2.6-4.9-6.1-4.9-6.1c0.6,2.6,1.3,5.1,2,7.7c-1.1-1.4-2.2-2.7-3.3-4.1
	c0.1,0.4,0.2,0.9,0.3,1.3c-0.9-1.1-1.7-2.2-2.6-3.3c0.8,2.5,1.5,5,2.3,7.5c-0.5-0.5-0.9-1-1.4-1.6c0.4,2.2,0.6,4.9,0.6,4.9
	c-0.7-3.2-1.7-5.4-2.8-7.4c-0.6-0.7-1.2-1.3-1.8-2c2-1.6,4.1-3.1,6.1-4.5C59.2,172.6,62,170.8,64.9,169.1L64.9,169.1z M187.1,161.4
	c0.6,0.2,1.3,0.4,1.9,0.6c0.1,0,0.2,0.1,0.3,0.1c-0.4,1-1.8,3.9-2.8,5.6c-1.1,1.7-3.9,4.7-3.9,4.7
	C185.6,168.1,186.1,164.9,187.1,161.4z M189.5,162.2c0.9,0.3,1.7,0.6,2.6,1c-0.2,0.2-0.3,0.5-0.5,0.7c-1,1.5-2,3-3,4.5
	c0.2-1.2,0.3-2.3,0.5-3.5C189.3,164,189.4,163.1,189.5,162.2L189.5,162.2z M50.2,179.2c0.9,2.2,1.9,4.4,2.8,6.6
	c-1.6-1.7-3.2-3.4-4.8-5.1C48.8,180.2,49.5,179.7,50.2,179.2z M48.1,180.8c0.3,1.2,0.7,2.3,1.1,3.5c0.2,0.4,0.3,0.9,0.5,1.3
	c-0.1-0.1-0.1-0.1-0.2-0.2c0.1,0.3,0.2,0.5,0.2,0.8c-1-1.1-2-2.2-3.1-3.4c-0.2-0.2-0.3-0.3-0.5-0.4
	C46.8,181.9,47.4,181.4,48.1,180.8L48.1,180.8z M45.8,182.7c0.7,2,1.5,4,2.2,6c-1.3-1.5-2.6-3-3.8-4.5l-0.1-0.1
	C44.7,183.7,45.2,183.2,45.8,182.7L45.8,182.7z M43.7,184.5c0.2,0.5,0.4,1.1,0.7,1.6c1.4,2.1,3,4.2,5.8,6.4c0,0-2.6-1.5-4.3-2.7
	c0.2,0.4,0.4,0.8,0.5,1.3c-1.6-1.5-3.3-3.1-4.9-4.6C42.2,185.8,42.9,185.1,43.7,184.5L43.7,184.5z M41.3,186.6
	c0.6,1.3,1.3,2.6,1.9,3.9c-0.4-0.3-0.9-0.7-1.3-1c0.6,1.4,1.3,2.8,1.9,4.2c-1.8-1.5-3.5-3-5.3-4.5C39.4,188.3,40.4,187.4,41.3,186.6
	L41.3,186.6z M38.3,189.4c0.8,1.5,3.6,6.9,3.9,10c-0.8-1.4-4.6-5.1-6.7-7.1C36.4,191.3,37.4,190.3,38.3,189.4z M34.9,192.8
	c0.8,1.7,1.6,3.4,2.4,5.1c-1.3-1.2-2.6-2.3-3.9-3.4C33.9,193.9,34.4,193.4,34.9,192.8L34.9,192.8z M33,195c1.4,1.8,2.7,4,2.7,4
	c-1.1-0.7-2.2-1.5-3.3-2.2c0.3,1,0.5,1.9,0.8,2.9c0,0-1-1.1-2-2.5C31.8,196.4,32.4,195.7,33,195z M30.8,197.6
	c0.7,1.7,1.5,3.4,2.3,5.1c-1.2-1.1-2.4-2.2-3.6-3.3C29.9,198.8,30.3,198.2,30.8,197.6L30.8,197.6z M28.7,200.3
	C30,203,32,206.9,33,208c-1.9-0.7-4.5-3-6.3-4.8C27.4,202.2,28,201.2,28.7,200.3L28.7,200.3z M25.9,204.5c0.5,1.2,0.9,2.3,1.4,3.5
	l0.1,0.3c-0.8-0.7-1.6-1.5-2.4-2.2C25.3,205.5,25.6,205,25.9,204.5L25.9,204.5z M23.6,208.5c0.3,0.6,0.5,1.2,0.8,1.7
	c-0.4-0.3-0.8-0.7-1.2-1C23.4,208.9,23.5,208.7,23.6,208.5L23.6,208.5z M19.6,218.3c0.1,0.1,0.2,0.2,0.4,0.2
	C20,218.5,19.7,218.4,19.6,218.3C19.6,218.4,19.6,218.3,19.6,218.3L19.6,218.3z"/>
<path style="fill:none;stroke:#000000;stroke-miterlimit:10;" d="M111.9,183.3c0,0,4.9,14.9,8.2,21.6c0.2,1.1,1.1,2.9,1.9,4.4
	c1-0.1,2.1-0.2,3.1-0.2c0.1-1,0.2-1.9,0.3-2.9c0.6,0.9,1.2,1.8,1.8,2.8c1,0,2.1-0.1,3.1-0.1c0.4-2.5,1.1-5.6,2.6-7.4
	c0,1.3,1.2,4.6,2.4,7.3c0.9,0,1.8,0,2.8,0c0.3-1.2,0.5-2.5,0.8-3.7c0.6,1.3,1.2,2.5,1.8,3.8c0.6,0,1.1,0,1.7,0c0-1,0-1.7,0-1.7
	c0.4,0.6,0.8,1.1,1.2,1.7c0.4,0,0.8,0,1.2,0c0.5-1,1.1-2.1,1.6-3.1c0,0,0.3,1.4,0.5,3.1c0.6,0,1.1,0,1.7,0c0.3-1.2,0.7-2.4,1.1-3.5
	c0.4,1.2,0.9,2.3,1.3,3.5c0.9,0,1.7,0,2.7,0c0.8-3,1.6-6.6,1.3-8c2,1.8,3.3,5.3,4,7.8c0.7,0,1.4,0,2.2-0.1c0.6-1.5,1.2-3,1.9-4.4
	c0.4,1.4,0.9,2.8,1.3,4.3c1.2-0.1,2.3-0.1,3.5-0.2c0.1-0.2,0.1-0.4,0.2-0.6c0.4-1,0.7-2,1.1-3c0.2,0.6,0.4,1.1,0.6,1.7
	c0,0.6,0,1.3,0,1.9c0,0.8,0,1.5,0.1,2.2c-0.4,0-0.8,0-1.2,0.1c-0.5,0-1,0.1-1.6,0.1c-0.7,0-1.4,0.1-2,0.1l0,0
	c-1.6,0.1-3.2,0.1-4.7,0.2l0,0c-0.2,0-0.4,0-0.7,0l0,0c-2.2,0.1-4.4,0.1-6.4,0.1l0,0c-0.5,0-0.9,0-1.3,0h-0.4c-1.1,0-2.2,0-3.2,0
	h-0.1c-0.3,0-0.6,0-1,0c-1.6,0-3.2-0.1-4.7-0.1c-0.3,0-0.5,0-0.8,0c-1.3,0-2.6-0.1-3.8-0.1l0,0c-0.5,0-1,0-1.6,0c-2,0-4,0-6,0.1
	c-0.5,0-1.1,0.1-1.6,0.1c-1.2,0.1-2.4,0.2-3.7,0.4c-0.1,0-0.2,0-0.2,0c-0.2,0-0.5,0.1-0.7,0.1c-0.5,0.1-0.9,0.1-1.4,0.2
	c-1.2-1.8-2.3-3.5-3.1-5.1c-3.3-6.6-7.3-21.1-7.3-21.1s0.3,14,2,20.6c0.5,1.9,1.3,4.3,2.3,6.7h-0.1c-0.6,0.1-1.1,0.3-1.7,0.4
	c-1.1,0.3-2.2,0.6-3.3,0.9c-0.2,0.1-0.5,0.1-0.7,0.2c-1.2,0.4-2.3,0.7-3.5,1.1c-0.5,0.2-0.9,0.3-1.4,0.5l0,0
	c-0.7,0.2-1.4,0.5-2.1,0.8c-1,0.4-2,0.7-3,1.1c-0.7,0.3-1.4,0.5-2.1,0.8c-0.4,0.1-0.7,0.3-1.1,0.4h-0.1c-1,0.4-2,0.8-3.1,1.3
	c0,0,0,0-0.1,0c-0.6,0.3-1.2,0.5-1.8,0.8c0,0-0.1,0-0.1,0.1c-1.7,0.7-3.4,1.5-5.1,2.2c-0.6,0.3-1.3,0.6-1.9,0.8
	c-0.9,0.4-1.9,0.8-2.9,1.2c-0.4,0.2-0.8,0.3-1.1,0.5c-1.4,0.6-2.9,1.3-4.3,1.9c-0.2,0.1-0.5,0.2-0.7,0.3c-0.1,0-0.1,0.1-0.2,0.1
	c-0.1-0.2-0.3-0.4-0.5-0.6c-3.1-4.2-7.7-13.7-7.7-13.8c0-1.5,0-2.6,0-2.6s4.6,10.2,7.8,14.4c0.1,0.1,0.2,0.2,0.3,0.3
	c0.2-0.1,0.3-0.1,0.5-0.2c-0.2-0.8-0.4-1.4-0.4-1.4c0.4,0.3,0.9,0.7,1.3,1c0.5-0.2,1.1-0.5,1.6-0.7c0.2-1,0.4-1.9,0.6-2.9
	c0,0,0.5,0.9,1,2.2c0.7-0.3,1.3-0.6,2-0.8c0-0.9,0-1.8,0-2.7c0.5,0.7,1,1.4,1.5,2.1c1.1-0.4,2.1-0.9,3.2-1.3
	c-0.1-2.7-0.3-5.6-0.8-6.7c1.9,0.9,3.7,2.9,5,4.9c1.1-0.4,2.1-0.9,3.2-1.3c0.1-1,0.2-2,0.4-2.9c0.5,0.7,1,1.5,1.4,2.2
	c1.5-0.6,2.9-1.1,4.4-1.7c0.1-0.7,0.1-1.3,0.2-2c0.3,0.4,0.5,0.8,0.8,1.2c0.7-2.4,2.2-5.8,2.2-5.8c-0.6,2.3-0.7,4.1-0.6,5.7
	c0.8-0.3,1.5-0.5,2.3-0.8c0-0.3,0-0.6,0-0.8c0.2,0.2,0.3,0.5,0.5,0.7c3-1,5.9-1.8,8.7-2.5c0-0.1,0-0.1,0-0.2c-1-2.4-1.8-4.7-2.3-6.6
	C110.9,198.2,111.9,183.3,111.9,183.3L111.9,183.3z M170.7,193.9c0,0,1.1,8.1,2.7,13.5c0.1-0.6,0.2-1.2,0.4-1.8
	c0.3,0.8,0.6,1.6,0.9,2.4c0.3,0,0.6,0,1,0c0,0.8-0.1,1.6,0,2.3c0,0,0,0-0.1,0c-0.8,0-1.6,0-2.4,0c-0.1-0.2-0.1-0.5-0.2-0.7
	c-1.4-5.4-2.5-13.5-2.5-13.5s-0.5,4.4-0.7,8.7C169.8,200,170.7,193.9,170.7,193.9L170.7,193.9z M183.8,201.8c0,0,2.7,3.1,4,5.2
	c0.1,0.2,0.2,0.4,0.3,0.6c0.3,0.6,0.6,1.3,0.9,2.1c-0.9,0.2-1.8,0.3-2.7,0.4C186.3,207.7,185.8,205.1,183.8,201.8L183.8,201.8z
	 M68,214.1c0.1,0.3,1.9,9.8,3.9,14.2c0.2,0.4,0.5,0.9,0.7,1.4c0,0,0,0.1,0.1,0.1c0,0,0,0-0.1,0c-0.4,0.1-0.7,0.3-1.1,0.4
	c-2,0.8-4.1,1.6-6.1,2.3c-0.3,0.1-0.5,0.2-0.8,0.3c-0.5,0.2-1,0.4-1.5,0.5c-0.5,0.2-0.9,0.3-1.4,0.5l0,0c-0.5,0.2-0.9,0.4-1.4,0.6
	c-0.7,0.3-1.4,0.6-2.1,1c-1.2,0.5-2.3,1.1-3.5,1.6c-0.6,0.3-1.1,0.5-1.7,0.8c-0.8,0.4-1.6,0.8-2.4,1.1c-0.7,0.3-1.4,0.6-2.1,0.8
	c-0.7,0.2-1.3,0.5-2,0.7l0,0c-1.1,0.3-2.1,0.6-3.2,0.7c-0.1,0-0.1,0-0.2,0c-1.2,0.2-2.3,0.2-3.5,0.1c-0.3,0-0.6-0.1-0.9-0.1
	c-0.3,0-0.6-0.1-0.9-0.2c0,0,0,0-0.1,0s-0.1,0-0.2,0c-1.5-0.3-3-0.9-4.5-1.7c-0.1,0-0.1-0.1-0.2-0.1c0.6,0.2,1.3,0.4,2,0.6
	c1,0.2,2.1,0.3,3.1,0.3c0.5-2.4,1.5-5.5,1.5-5.5c-0.3,2.1-0.3,3.9-0.1,5.4c2.3-0.2,4.6-0.8,6.8-1.6c0-0.3,0-0.5-0.1-0.8
	c0.2,0.2,0.4,0.4,0.6,0.6c1.2-0.5,2.4-1,3.6-1.6c0-0.9-0.1-1.7-0.1-2.6c0.5,0.7,0.9,1.3,1.4,2c0.9-0.4,1.8-0.9,2.8-1.3
	c-0.1-1.1-0.2-2.3-0.3-3.4c0.8,0.8,1.6,1.7,2.4,2.5c1.2-0.5,2.3-1,3.5-1.4c-0.2-1.4-0.3-2.8-0.5-4.2c1.1,1,2.2,2.1,3.3,3.1
	c0.7-0.2,1.4-0.5,2.1-0.7c-0.3-2.7-0.5-6.4,0.6-8.9c0.3,1.4,2.6,4.5,4.5,6.9c0.1,0,0.2-0.1,0.3-0.1c-0.3-0.5-0.6-1-0.8-1.5
	C68.3,223.9,68.1,217.7,68,214.1L68,214.1z M178.8,207.3c0.3,1.1,0.7,2.1,1,3.2c-0.8,0-1.6,0-2.3,0
	C177.9,209.4,178.3,208.3,178.8,207.3L178.8,207.3z M192,207.7c0.2,0.4,0.4,0.7,0.6,1.1c-0.3,0.1-0.6,0.2-0.9,0.3
	C191.8,208.6,191.9,208.1,192,207.7z M182.9,209.2c0.3,0.4,0.5,0.8,0.8,1.2c-0.5,0-0.9,0-1.4,0.1C182.5,210,182.7,209.6,182.9,209.2
	L182.9,209.2z"/>
<path style="fill:none;stroke:#000000;stroke-miterlimit:10;" d="M286.6,178c-0.1,0.1,0.1-0.2,0.2-0.3c-3.6,5.8,5.3-8.7,4.2-7
	c2.7-4.4,7.2-11.6,12.5-19.8c5.9-9.1,12.2-18.3,18-26.2c5.8-8,10-13,12.9-16.2c2-2.2,5-5.3,9.9-9.8s10.5-9.2,16.1-13.9
	c5.4-4.5,10.4-8.4,13-10.5c2.7-2.1,3.8-3,3.6-2.8l0.1-0.6l-0.6-0.1c-0.4,0.3-0.4,0.2-3.7,2.7c-2.8,2.1-7.7,5.6-13.3,10.1
	c-5.8,4.5-11.5,9.2-16.5,13.6s-8.2,7.6-10.3,9.8c-3,3.3-7.2,8.3-13.2,16.3c-6,7.9-12.3,17-18.4,26c-5.4,8-10.1,15.3-12.9,19.6
	s-4.2,6.6-4.4,6.9c-0.1,0.1-0.1,0.2-0.2,0.3c-0.5,0.9-0.3,2.1,0.5,2.6C285,179.1,286.1,178.8,286.6,178L286.6,178z"/>
<path style="fill:none;stroke:#000000;stroke-miterlimit:10;" d="M130.3,220.4L130.3,220.4L130.3,220.4L130.3,220.4L130.3,220.4z
	 M199,224.3c-0.9,4.4-2.5,10.1-2.5,10.1c0.6-3.6,0.8-6.8,0.9-9.8C197.9,224.5,198.6,224.3,199,224.3z M185.5,226.8
	c0,0.2,0,0.4,0,0.6c0-0.2-0.1-0.4-0.1-0.5S185.4,226.8,185.5,226.8L185.5,226.8L185.5,226.8z M185.3,226.8c0,0.1-0.1,0.2-0.1,0.3
	c-0.5,1.8-0.9,3.6-1.3,5.4c-0.2-1.1-0.5-2.3-0.7-3.4c-0.1-0.6-0.2-1.2-0.4-1.8C183.7,227.1,184.5,227,185.3,226.8L185.3,226.8z
	 M182.4,227.4c-0.1,1.4-0.3,3.8-0.7,5.4c-0.5,2.1-2,6-2,6c1.1-4.7,0.8-7.7,0.6-10.9C181,227.7,181.7,227.5,182.4,227.4L182.4,227.4z
	 M179.5,228c-0.3,1.2-0.7,2.3-1,3.5c-0.4-1-0.8-2-1.2-3C178.1,228.3,178.8,228.1,179.5,228z M176.7,228.5c-0.1,1.7-0.3,3.4-0.4,5
	c-0.2-0.4-0.3-0.8-0.5-1.2c-0.2-0.5-0.4-1-0.6-1.5v1.2c-0.4-1-0.7-2-1.1-3c0.5-0.1,0.9-0.2,1.4-0.3
	C176,228.7,176.3,228.6,176.7,228.5L176.7,228.5z M174.2,229.1c-0.2,2.1-0.4,4.3-0.7,6.4c-0.5-2-1-4-1.5-6
	C172.8,229.4,173.5,229.2,174.2,229.1z M171.5,229.6c-0.2,2.4-0.3,4.7-0.5,7.1c-0.4-1.2-0.9-2.4-1.3-3.6c-0.3,4.1-1.1,9.2-1.7,11.3
	c-0.1-1-0.2-3.8-0.5-6.8c-0.9-2.2-1.7-4.3-2.6-6.5c1-0.2,2-0.5,3-0.7l0,0c0.3-0.1,0.6-0.1,0.8-0.2l0,0
	C169.6,230,170.6,229.8,171.5,229.6L171.5,229.6z M164.6,231.2c0,1.5,0.1,7.9-1.1,10.9c-0.1-1.8-1.9-7.2-2.8-10
	C162,231.7,163.3,231.4,164.6,231.2L164.6,231.2z M160.1,232.2c-0.1,2.1-0.2,4.1-0.2,6.2c-0.5-1.4-1.1-2.9-1.6-4.3
	c-0.3,0.2-0.5,0.1-0.8-0.2c0.3,2.2,0.5,4.6,0.5,4.6c-0.6-1.2-1.3-2.4-1.9-3.6c-0.2,1-0.4,2-0.6,2.9c0,0-0.5-2.1-0.8-4.2
	C156.5,233.1,158.3,232.6,160.1,232.2L160.1,232.2z M154.4,233.6c-0.1,2.3-0.3,4.5-0.4,6.8c-0.6-1.8-1.2-3.6-1.9-5.4
	c0,0.8,0,1.6,0,2.3c-0.3-0.8-0.5-1.6-0.8-2.3c0,0.2,0,0.2,0,0.4c-0.1,3.1-0.1,8.1,0.3,9.7c-1.9-2.2-3.5-7.8-4.1-9.7
	c1.3-0.3,2.5-0.7,3.8-1c0.2,0,0.3-0.1,0.5-0.1C152.7,234,153.6,233.8,154.4,233.6L154.4,233.6z M147.3,235.5
	c0.3,4.9,1.2,13.2,1.8,15.3c-1.7-2.4-4-10.1-5.6-14.2c0.1,0,0.3-0.1,0.4-0.1c0.3-0.1,0.5-0.1,0.8-0.2c0.8-0.2,1.7-0.5,2.5-0.7
	C147.2,235.5,147.3,235.5,147.3,235.5L147.3,235.5z M143.3,236.6c-0.1,2-0.2,4-0.2,6c-0.3-0.7-0.5-1.3-0.8-2
	c-0.4,2.2-1.1,4.9-1.1,4.9c0.4-3.3,0.2-5.7-0.2-8c0-0.1,0-0.1-0.1-0.2C141.7,237.1,142.5,236.9,143.3,236.6L143.3,236.6z M140,237.6
	c0.1,1.5,0.2,3.1,0.3,4.6c-0.1-0.3-0.3-0.7-0.4-1c0,0.1,0,0.3,0,0.4c-0.5-1.2-0.9-2.4-1.4-3.6C138.9,237.9,139.5,237.8,140,237.6
	L140,237.6z M137.2,238.5c0,0.3,0,0.6,0,0.9c0,0.5,0,0.9,0.1,1.4c0-0.1-0.1-0.1-0.1-0.2c0,0.3,0,0.5,0,0.8c-0.3-0.8-0.7-1.7-1-2.5
	C136.4,238.7,136.8,238.6,137.2,238.5L137.2,238.5z M134.6,239.3c0,1.3,0.1,2.5,0.1,3.8c-0.3-0.7-0.6-1.5-0.9-2.2
	c0.1,0.4,0.1,0.9,0.2,1.3c-0.4-0.8-0.7-1.5-1.1-2.3c0.1-0.1,0.3-0.1,0.5-0.2C133.8,239.6,134.2,239.4,134.6,239.3L134.6,239.3z
	 M132.3,240.1c0.6,2.2,1.4,4.5,3.2,7.3c0,0-1.9-2.4-3.2-4.1c0,0.5,0.1,0.9,0.1,1.4c-0.1-0.2-0.2-0.4-0.3-0.5c0,0.2,0,1.2,0,0
	c0,0,0,0,0-0.1v4.2c-0.1-0.6-0.1-1.1-0.2-1.6c-0.2-1.4-0.3-2.7-0.5-3.9c-0.3-0.6-0.7-1.3-1-1.9C131,240.6,131.6,240.4,132.3,240.1
	L132.3,240.1z M129.4,241.2c0.1,0.6,0.2,1.3,0.2,1.9c-0.3-0.5-0.6-1-0.9-1.4c0.2,1.5,0.3,3.1,0.5,4.6c-0.8-1.4-1.6-2.7-2.4-4.1
	C127.6,241.9,128.4,241.5,129.4,241.2z M125.7,242.7c0.4,2.6,0.7,6.3,0.3,8.5c-0.3-1.2-1.6-4.1-2.9-6.5c-0.1-0.3-0.2-0.4-0.3-0.6
	c0.7-0.3,1.5-0.7,2.2-1h0.1C125.2,242.8,125.5,242.7,125.7,242.7L125.7,242.7z M121.4,244.6c0.2,1.2,0.3,2.4,0.5,3.6
	c-0.6-1-1.2-2-1.8-3C120.5,245,121,244.8,121.4,244.6z M119.1,245.6c0.5,1.6,0.8,3,0.8,3c1.1,1.5,2.3,3.1,3.7,4.9
	c0,0-3.4-3.3-6.2-6.3v1.3c0,0-0.3-0.7-0.7-1.7c0.2-0.1,0.5-0.2,0.7-0.4c0.2-0.1,0.4-0.2,0.6-0.3C118.4,246,118.8,245.8,119.1,245.6
	L119.1,245.6z M116.5,246.9c0.2,0.6,0.4,1.2,0.6,1.9c-0.4-0.5-0.8-1-1.2-1.5c0.1,0,0.1-0.1,0.2-0.1
	C116.3,247.1,116.4,247,116.5,246.9L116.5,246.9z M115.9,247.3c0.2,1.4,0.4,2.8,0.6,4.2c-0.7-1.1-1.4-2.3-2.1-3.4
	C114.9,247.8,115.4,247.5,115.9,247.3L115.9,247.3z M113.2,248.7c0.1,0.4,0.1,0.7,0.2,1.2c0.6,2.7,1.3,5.6,1.9,6.7
	c-1.3-1.1-2.9-3.2-4.2-5.1c-0.3-0.4-0.6-0.7-0.9-1.1c0.1,0,0.1-0.1,0.2-0.1C111.3,249.7,112.3,249.2,113.2,248.7L113.2,248.7z
	 M109.2,250.9c0.3,1.5,0.5,2.9,0.9,4.4c-0.8-1.2-1.7-2.3-2.5-3.5C108.2,251.5,108.7,251.2,109.2,250.9z M106.5,252.4
	c0.5,1.4,0.9,2.8,1.3,4.2c0.8,2.7,1.3,5.2,1.4,7.1c-0.8-1.8-3.3-5.3-5.9-8.9c0.4,0.8,0.7,1.6,1.1,2.4c-0.7-0.7-1.5-1.5-2.3-2.2
	c0.3-0.2,0.7-0.4,1-0.6c0.4-0.3,0.9-0.5,1.3-0.8c0.4-0.2,0.8-0.5,1.2-0.7c0.1,0,0.1-0.1,0.2-0.1
	C106.1,252.6,106.3,252.5,106.5,252.4L106.5,252.4z M100.6,255.9c0.2,0.6,0.5,1.2,0.7,1.8c-0.4-0.3-0.8-0.7-1.1-1
	c-0.1-0.1-0.2-0.2-0.4-0.3C100.1,256.2,100.3,256,100.6,255.9z M99.6,256.5c0.3,0.8,0.6,1.6,0.9,2.4c-0.5-0.7-1.1-1.3-1.7-2l0,0
	c0.1-0.1,0.2-0.1,0.4-0.2C99.3,256.6,99.4,256.6,99.6,256.5L99.6,256.5z M98.2,257.3c0.1,0.2,0.1,0.4,0.2,0.5
	c-0.2-0.1-0.4-0.2-0.6-0.3C97.9,257.5,98.1,257.4,98.2,257.3z M96.5,258.4c0.3,0.6,0.4,0.7,0.5,1.1c1.3,1.5,2.9,3,5.4,4.5
	c0,0-3.6-1.6-5.3-2.6c-0.7-0.4-1.6-1.1-2.4-1.8c0.5-0.3,1-0.6,1.5-1C96.3,258.5,96.4,258.4,96.5,258.4L96.5,258.4z M93.7,260.2
	c0.6,0.9,1.1,1.8,1.7,2.7c-1-0.6-2.1-1.2-3.1-1.8C92.8,260.7,93.2,260.4,93.7,260.2z M90.8,262c0.6,1.6,1.2,3.3,1.8,4.9
	c-0.6-0.8-1.3-1.6-2-2.4c0.1,0.2,0.2,0.5,0.3,0.7c-0.7-0.6-1.5-1.2-2.2-1.9c0.4-0.2,0.7-0.5,1.1-0.7C90.2,262.4,90.5,262.2,90.8,262
	z M87.8,263.9c0.6,1,1.2,2.1,1.6,2.9c0.9,1.9,2,6,2,6c-1.4-3.2-2.8-5.2-4.3-6.9c2,4.8,4.2,9.6,5.4,11.5c-2.1-1.3-4.6-3.9-7-6.6
	c0.1,0.1,0.2,0.3,0.3,0.4c-1.3-0.8-2.6-1.5-3.9-2.2c0.4-0.4,0.7-0.7,1.1-1.1c-0.1-0.2-0.3-0.3-0.4-0.5l0,0c1.2-0.8,2.4-1.6,3.6-2.4
	C86.7,264.6,87.2,264.3,87.8,263.9L87.8,263.9z M79.9,269.1c0.7,2.2,1.5,4.3,2.2,6.5c-1.4-1.7-2.8-3.4-4.2-5.2
	C78.6,270,79.3,269.5,79.9,269.1L79.9,269.1z M74.4,272.8c0.7,1.8,1.3,3.5,2,5.3c-1.2-1.4-2.4-2.8-3.6-4.2
	C73.4,273.6,73.9,273.2,74.4,272.8z M70,275.8c0.5,1.1,1.1,2.2,1.6,3.3c-0.8-0.9-1.6-1.8-2.5-2.7c0.1-0.1,0.3-0.2,0.4-0.3
	C69.7,276.1,69.9,276,70,275.8L70,275.8z M65.5,279c0.1,0.2,0.1,0.3,0.2,0.5c-0.1-0.1-0.2-0.3-0.3-0.4C65.4,279.1,65.4,279,65.5,279
	L65.5,279z M59.2,283.4c0.4,0.5,0.8,1,1.2,1.5c2,2.3,4.3,4.7,7.2,7.2c0,0-2.1-1.4-4.5-3.1c-1.9-1.4-4.1-3-5.5-4.2
	c-0.1-0.1-0.1-0.1-0.2-0.2C58,284.3,58.7,283.8,59.2,283.4L59.2,283.4z M54.4,286.9c0,0.1,0.1,0.2,0.1,0.3
	C54.4,287.1,54.4,287,54.4,286.9L54.4,286.9C54.3,286.9,54.3,286.9,54.4,286.9L54.4,286.9z"/>
<path style="fill:none;stroke:#000000;stroke-miterlimit:10;" d="M207.7,222.9c0.4-0.1-1.7,0.3-6.8,1.2c-5,0.9-14.3,2.6-24.6,4.7
	c-10.8,2.2-21.4,4.7-30.9,7.4s-15.6,5-19.7,6.7h-0.1c-4.2,1.8-10.3,4.7-19.2,9.9c-9,5.2-18.6,11.4-28.2,17.9
	c-8.8,6-16.8,11.6-21.1,14.7c-4.4,3.2-6.4,4.6-6.4,4.6s-0.1,0,0,0c-0.2,0.1-0.4,0.1-0.6-0.1c-0.1-0.2-0.1-0.5,0.1-0.6c0,0,0.1,0,0,0
	c0.6-0.5,1.2-1.1,6.1-5c4.4-3.5,11.7-9.2,20.6-15.8c9.3-6.9,19-13.5,27.8-19.1c8.8-5.5,15.1-8.8,19.5-10.6h0.1
	c4.2-1.8,10.6-4,20.3-6.5c9.6-2.5,20.5-4.7,31.3-6.7c10.6-1.9,19.5-3.2,24.8-3.9c7-0.9,5.2-0.6,6.8-0.8L207.7,222.9L207.7,222.9z"/>
<path style="fill:none;stroke:#000000;stroke-miterlimit:10;" d="M253.6,86.6l2.7,14.1l1.9,19.4l1.4-43.4L253.6,86.6z"/>
<path style="fill:none;stroke:#000000;stroke-miterlimit:10;" d="M489.3,305.4c-1.7,2.6-5.5,4.1-8.4,3.3
	c-8.2-2.9-13.8-25.9-25.7-29.9h-0.1c-3.7,0.6-7.4,16.3-13.5,26.2l0,0c-1.3,2.1-2.6,3.9-4.1,5.3c-2.7,2.5-6,5.2-9.5,6.4
	c-0.2,0.1-0.5,0.2-0.7,0.2c-1.2,0.3-2.4,0.5-3.6,0.4h-0.1c-0.3,0-0.5-0.1-0.8-0.1c-15.1-2.8-22.5-22.5-34-33.7
	c0.1-3.6,0.3-7.4,0.8-10.1c1.2-6.3,5.5-17.5,6.6-20.4l0,0c0-0.1,0-0.1,0.1-0.2c0.1-0.3,0.2-0.4,0.2-0.5c-0.5,0.7-8.2,11-10.7,17
	c-1.2,3-2.4,7.3-3.3,11.5v0.1l0,0c-2.1-0.2-4.3-0.5-5.7-2.1c-3.6-3.9-7.7-9.8-12.2-13.2c0-3.5,0-8.3,0.6-11.5
	c0.8-4.4,3.8-12.1,4.6-14.4l0,0c0.1-0.4,0.2-0.6,0.2-0.6c-0.3,0.4-5.8,7.9-7.7,12.2c-1.2,3-2.3,7.8-3.1,11.6v0.1l0,0
	c-0.6-0.1-1.2-0.2-1.8-0.3c-0.3,0-0.6,0-0.9-0.1c-0.3,0-0.7,0-1,0s-0.7,0-1,0l0,0c-1.2-0.1-2.4-0.2-3.6-0.8
	c-12.2-6.5-19.7-20-29.6-30.2c0.1-1.6,0.2-3.1,0.5-4.3c0.8-4.4,3.7-12,4.6-14.4l0,0l0,0l0,0c0.1-0.4,0.2-0.6,0.3-0.6
	c-0.3,0.4-5.8,7.9-7.7,12.2c-0.4,1-0.8,2.2-1.2,3.5c0,0.1,0,0.1,0,0.2v0.1c-3.1-2.7-6.8-4.7-9.7-7.7c-4.8-5.1-11-10.1-13.7-16.7
	c0-0.1-0.1-0.2-0.1-0.3c-0.4-1.1-0.8-2.3-1-3.5c-0.7-4.5,2.1-8.9,3.9-13.1c0.1-0.3,0.3-0.6,0.4-0.9c1.5-3.8,2.6-8,4.1-11.9
	c0.6-1.7,1.4-3.4,2.2-5c1.3-2.4,2.8-4.5,4.8-6.2c5.4-4.5,13.2-4.5,20-5.2c1.4-0.2,2.8-0.3,4.2-0.4c5.2-0.5,10.4-0.7,15.6-0.5
	c4.8,0.2,9.5,0.8,14.1,2.1c23.1,6.8,51.5,34,72.4,50.7c20.3,21.4,43.5,46.5,53.9,71.3C492.2,288.5,493.6,298.8,489.3,305.4z"/>
<path style="fill:none;stroke:#000000;stroke-miterlimit:10;" d="M307.7,164.3c-5.3,5.5-6.9,14.5-9.8,21.9c-1.8,4.5-5.1,9.1-4.3,14
	c1.4,8.5,9,14.4,14.7,20.4c2.9,3,6.6,5,9.7,7.7c0.4-1.4,0.8-2.7,1.2-3.8c1.9-4.5,7.7-12.2,7.7-12.2s-3.9,9.9-4.9,15.1
	c-0.2,1.2-0.4,2.8-0.5,4.3c9.9,10.2,17.4,23.7,29.6,30.2c2.6,1.4,4.9,0.5,8.2,1.3c0.8-3.8,1.9-8.7,3.1-11.8
	c1.9-4.5,7.7-12.2,7.7-12.2s-3.9,9.9-4.9,15.1c-0.6,3.2-0.6,8-0.6,11.5c4.5,3.4,8.6,9.3,12.2,13.2c1.5,1.6,3.6,1.8,5.7,2.1
	c0.9-4.2,2.1-8.6,3.4-11.6c2.6-6.3,10.7-17.1,10.7-17.1s-5.5,13.7-6.8,21c-0.5,2.8-0.7,6.5-0.8,10.1c11.5,11.2,18.9,30.9,34,33.7
	c5.3,1,10.7-3.1,14.7-6.9c8.5-8.1,13-30.8,17.5-31.5c0.6,0.2,1.1,0.4,1.7,0.7c-1.9-4.1-4.1-8.5-5.9-11.5
	c-6.7-11.1-14.7-21.4-23.1-31.2c-14.7-17.1-28.7-35.9-47.8-47.8C359.4,176.2,312.9,165.5,307.7,164.3L307.7,164.3z"/>
<path style="fill:none;stroke:#000000;stroke-miterlimit:10;" d="M317.6,165.7c2.5,0.7-1.1-0.4,6.5,1.8c4,1.2,10.5,3.4,17.9,6
	l0.2-0.3l15.5-2.8l-12.4,4.3c0.1,0,0.2,0.1,0.3,0.1l4.6-0.4l0.1,2.1c0.1,0,0.1,0.1,0.2,0.1l14.3-3.8l-11.7,4.7l6.1-0.7l-1.5,2.4
	l11.6-3l-8.4,4.1l0.9,0.4c3.5,1.4,7,2.7,10.2,4.2l10.7-2l-8.6,3c0.7,0.3,1.5,0.7,2.2,1c2.5,1.2,4.7,2.3,6.7,3.4l12.5-1.3l-10.3,2.5
	c3.9,2.2,6.9,4.2,9.1,5.9c4.1,3.1,9.8,8.3,17.3,16.9c7.5,8.5,15.4,18.7,22.9,29.2c7.3,10.1,13.2,19.1,16.5,24.3
	c1.6,2.4,6.2,9.9,4.3,6.9c0.3,0.5-0.3,0.9-0.6,0.4c0.3,0.4-1.2-1.8-4.6-6.7c-3.4-4.9-9.7-13.9-17.1-23.7c-4-5.3-8-10.5-12.1-15.4
	l-7.1,3.6l5.8-5.1c-1.3-1.6-2.6-3.1-3.9-4.6l-6.1,3.1l5-4.4c-1.3-1.5-2.6-3-3.9-4.4l-6.5,3.3l5.3-4.7c-0.6-0.7-1.3-1.4-1.9-2
	l-12.9,6.5l10.3-9.2c-5.9-1.4-7.7-4.9-9.1-8.5l-5.8,7.9l3.2-10c-0.2-0.2-2.7,1.1-2.9,0.9c-1.3-1-0.8-3.7-2.7-4.9l-11.8,12.5
	l8.9-14.3c0,0-0.1,0-0.1-0.1l-4.3,3.2l1.9-4.7l0,0l-6.3,6.3l3.7-7.8c-0.1-0.1-0.2-0.1-0.3-0.2l-6.6,7.1l4.5-8.2
	c-0.6-0.3-2.6,1.2-3.3,0.9c-0.7-0.4-0.1-2.7-0.8-3l-6.2,8.4l3.2-9.9c-0.9-0.4-2.9,2-2.7-1.3c-0.6,0.5-3.9,3.1-5.5,5.1
	c-4,5.2-9.4,17.4-9.4,17.4s2.9-12.8,6.2-18.2c1.4-2.3,5.4-5.7,5.4-5.7c-0.7-0.3-2.8,0.7-3.5,0.4s0-1.9-0.7-2.2l-2.9,2.5l-3.7,6.4
	l2-8.2l1.4-2.1c-0.8-0.3-2.6,0.2-3.4-0.2c-1-0.4-1.1-1.7-2.2-2.2c-1,0.8-3.2,2.3-4.4,3.6c-2,2.1-6.3,9.1-6.3,9.1s3.5-7.9,5.1-10.7
	c0.7-1.1,0.7-2.8,1.2-3.5c-1.3,0.3-2.9,0.4-4.5,0.4c-0.7,4.5-10,12.7-12.9,15.9l9.2-16.3c-1.1-0.2-2.1-0.5-2.9-0.9
	c-4.5-2.1-7-6.1-11.7-7.7c-4.7-1.6-6.8-2.3-6.4-2.2C317.5,165.9,317.5,165.7,317.6,165.7L317.6,165.7z"/>
<path style="fill:none;stroke:#000000;stroke-miterlimit:10;" d="M454.3,274.8c0.3,0.4-1.2-1.8-4.6-6.7c-3.4-4.9-9.7-13.9-17.1-23.7
	c-7.7-10.2-15.7-20.1-23.3-28.4c-7.6-8.3-13.2-13.2-17.1-16.2c-3.5-2.6-8.7-6.2-17.3-10.6c-8.5-4.4-18.4-8.7-28.4-12.7
	c-9.6-3.8-18.3-6.8-23-8.5c-4.7-1.6-6.8-2.3-6.4-2.2l-0.1-0.1l0.1-0.1c2.5,0.7-1.1-0.4,6.5,1.8c4.9,1.4,13.4,4,23.3,7.5
	c10.1,3.6,20.2,7.6,28.9,11.8c8.7,4.2,14.3,7.7,17.9,10.5c4.1,3.1,9.8,8.3,17.3,16.9c7.5,8.5,15.4,18.7,22.9,29.2
	c7.3,10.1,13.2,19.1,16.5,24.3c1.6,2.4,6.2,9.9,4.3,6.9c0.1,0.2,0.1,0.4-0.1,0.6C454.6,275,454.4,274.9,454.3,274.8L454.3,274.8z"/>
<path style="fill:none;stroke:#000000;stroke-miterlimit:10;" d="M293.7,197.3c1.9,3,4.4,5.8,6.9,8.4l9.3-9.1l-6.2,12.2
	c0.3,0.3,0.6,0.7,1,1l2.5-2.3l-1.7,3.2c0.1,0.1,0.3,0.3,0.4,0.4c0.2,0.2,0.5,0.5,0.7,0.7l3.8-3.5l-2.5,4.7c0.2,0.1,0.3,0.3,0.5,0.4
	l10.4-6.6l-7.3,8.9c0.2,0.2,0.5,0.3,0.7,0.5l2.8-2.5l-1.8,3.3c0.1,0.1,0.3,0.2,0.4,0.3l3.7-3.4l-2.4,4.4c0.4,0.4,0.9,0.7,1.3,1.1
	l2.6-3.5l-1.5,4.6c0.1,0.1,0.2,0.2,0.3,0.3l2.4-3.2l-1.2,3.6c0.9-1.4,1.7-2.6,2.5-3.6c3.2-4.2,10.4-11.7,10.4-11.7
	s-4.6,9.4-6.2,14.4c-0.6,1.9-1.2,4.5-1.8,7.1c0.6,0.6,1.1,1,1.6,1.5l2.3-3.1l-1.3,4.1c0.2,0.3,0.4,0.5,0.7,0.8l4.3-5.2l-1.7,9.1
	c0.1,0.2,0.3,0.4,0.4,0.6l2.9-3.9l-1.8,5.4c0.3,0.3,0.5,0.6,0.8,0.9l2-2.7l-1.2,3.7c0.4,0.4,0.7,0.9,1.1,1.3l3.1-4.2l-1.9,5.8
	c0.1,0.2,0.3,0.3,0.4,0.5l5.3-9l-3,11.6c0.2,0.2,0.4,0.5,0.6,0.7l4.5-6l-2.6,8c0.1,0.1,0.2,0.2,0.4,0.4c0,0,3-8.1,4.9-11.9
	c3-5.8,10.6-16.5,10.6-16.5s-5.6,11-8,16.7c-1.9,4.6-4.9,14.1-4.9,14.1c0.4,0.4,0.8,0.7,1.3,1.1l3.8-5.1l-2.1,6.4
	c0.3,0.2,0.5,0.4,0.8,0.5l3.7-4.9c1.7-3.7,6.7-9.8,6.7-9.8c-1.6,3.6-3.2,6.6-4.2,10.1c-0.7,2.4-1.1,7.5-1.1,7.5
	c0.7,0.2,1.5,0.2,2.3,0.3l4.1-7.1l-1.5,7.3c0.5,0,1.1,0.1,1.6,0.2c1.3-3.4,2.8-7.3,4.3-9.8c2.8-4.7,10.5-12.2,10.5-12.2
	s-4,10.2-4.9,15.6c-0.6,3.3-0.7,8.4-0.7,12.3c0.3,0.3,0.5,0.5,0.8,0.8l3-8.7l-0.5,11.4c0.5,0.6,1.1,1.3,1.6,1.9l4.5-5.8l-2.6,8.2
	c0.9,1.1,1.8,2.2,2.6,3.1c0.2,0.2,0.5,0.5,0.7,0.6l6.1-8.3l-3,9.6c0.4,0.1,0.7,0.1,1.1,0.2c1.5-4.2,3.5-9.6,5.5-12.8
	c3-5,11.3-13.1,11.3-13.1s-4.3,10.9-5.3,16.7c-0.7,4.2-0.8,11.1-0.8,15.3c0,0.1,0.1,0.1,0.1,0.2l2.1-8.7l-0.9,10.2
	c1.7,2.1,3.3,4.3,4.9,6.5l0.7-6.4l0.4,8c1.1,1.5,2.1,3,3.2,4.5l4.3-5.2l-2.6,7.5c0.4,0.5,0.7,1,1.1,1.4l4.9-5.7l-2.9,8.2l0.1,0.1
	l4.8-4.7l-3.3,6.5c0.4,0.5,0.8,0.9,1.3,1.4l4.4-4.3l-2.9,5.9c0.4,0.4,0.8,0.8,1.3,1.2l5.8-5.6l-3.7,7.3c0.7,0.5,1.4,1,2.2,1.5
	l6.4-6.3l-3.8,7.6c1.5,0.7,3,1.2,4.7,1.5c5.5,1.1,11.1-3.3,15.3-7.3c0.6-0.6,1.3-1.4,1.9-2.1c-1.4,2.4-2.9,4.5-4.5,6
	c-4,3.8-9.4,7.9-14.7,6.9c-1.5-0.3-3-0.8-4.4-1.4c-1.3-0.6-2.5-1.3-3.7-2.1c-0.9-0.6-1.7-1.2-2.5-1.9l-0.1-0.1
	c-0.6-0.5-1.2-1-1.7-1.6l-0.1-0.1c-0.4-0.4-0.8-0.8-1.2-1.3c-0.3-0.4-0.7-0.7-1-1.1c-0.1-0.1-0.2-0.3-0.3-0.4
	c-0.7-0.8-1.5-1.7-2.2-2.6l0,0l0,0c-0.7-0.9-1.4-1.8-2.1-2.8c-0.1-0.1-0.2-0.2-0.2-0.3c-1.7-2.3-3.4-4.7-5.1-7
	c-0.5-0.7-1.1-1.5-1.6-2.2c-1.4-1.8-2.8-3.6-4.2-5.3l0,0c-0.7-0.9-1.5-1.7-2.2-2.5l0,0c-0.3-0.3-0.5-0.6-0.8-0.9
	c0.1-3.6,0.3-7.4,0.8-10.1c1.4-7.3,6.8-21,6.8-21s-8.1,10.8-10.7,17.1c-0.7,1.7-1.3,3.8-2,6l0,0c-0.5,1.8-1,3.7-1.4,5.6
	c-1.5-0.2-3-0.3-4.2-1c-0.3-0.1-0.5-0.3-0.8-0.5l0,0l0,0c-0.2-0.2-0.5-0.4-0.7-0.6c-0.7-0.7-1.3-1.5-2-2.3c-0.8-0.9-1.5-1.8-2.3-2.8
	c-0.9-1.1-1.9-2.3-2.9-3.4l0,0c-0.2-0.3-0.5-0.5-0.7-0.8l0,0c-0.6-0.6-1.2-1.2-1.8-1.8l0,0c-0.6-0.6-1.2-1.1-1.9-1.6l0,0
	c-0.2-0.1-0.3-0.3-0.5-0.4c0-3.5,0-8.3,0.6-11.5c1-5.2,4.9-15.1,4.9-15.1s-5.8,7.7-7.7,12.2c-0.6,1.5-1.2,3.5-1.7,5.5
	c-0.3,1.1-0.5,2.2-0.8,3.2s-0.4,2.1-0.6,3c-0.4-0.1-0.7-0.1-1-0.2c-0.2,0-0.3,0-0.5-0.1c-0.1,0-0.2,0-0.3,0c-0.5,0-0.9-0.1-1.4-0.1
	c-1.8-0.1-3.4,0-5-0.9c-0.6-0.3-1.2-0.7-1.8-1.1l0,0c-0.7-0.4-1.4-0.9-2-1.3l-0.1-0.1c-0.7-0.5-1.3-1-2-1.5l0,0
	c-0.2-0.2-0.4-0.3-0.6-0.5l0,0l-0.6-0.5c-1-0.9-2-1.7-2.9-2.7c-0.6-0.6-1.1-1.1-1.7-1.7c-0.1-0.1-0.1-0.1-0.2-0.2l0,0
	c-0.5-0.5-1-1.1-1.5-1.6c-0.1-0.1-0.2-0.2-0.3-0.3c-0.6-0.7-1.2-1.4-1.8-2.1c-0.7-0.9-1.5-1.8-2.2-2.6c-0.1-0.1-0.2-0.3-0.3-0.4
	c-0.2-0.3-0.4-0.5-0.6-0.8c-1.4-1.7-2.7-3.4-4.1-5c-0.3-0.4-0.6-0.8-1-1.2l0,0c-0.3-0.4-0.6-0.8-1-1.1c-0.5-0.5-0.9-1.1-1.4-1.6l0,0
	c-0.7-0.8-1.4-1.6-2.1-2.3c-0.2-0.2-0.4-0.5-0.6-0.7c-0.3-0.3-0.5-0.6-0.8-0.9c0-0.8,0.1-1.6,0.2-2.3s0.2-1.4,0.3-2
	c0.1-0.4,0.2-0.9,0.3-1.4c1.3-5.4,4.6-13.7,4.6-13.7s-4.8,6.4-7.1,10.9c-0.2,0.5-0.5,0.9-0.6,1.3c-0.2,0.5-0.4,1.1-0.6,1.7
	c-0.2,0.6-0.4,1.3-0.6,2c-0.4-0.4-0.8-0.7-1.2-1l0,0l0,0c-0.6-0.5-1.2-0.9-1.9-1.4c-0.6-0.5-1.3-0.9-1.9-1.4
	c-0.1-0.1-0.2-0.2-0.4-0.3c-0.8-0.6-1.6-1.2-2.4-1.8c-0.7-0.5-1.3-1.1-1.9-1.7c-1-1.1-2.1-2.1-3.2-3.2c-5-5-10.4-10.2-11.5-17.2
	C293.6,199.1,293.6,198.2,293.7,197.3L293.7,197.3z"/>
</svg>
