<?xml version="1.0" encoding="utf-8"?>
<!-- Generator: Adobe Illustrator 17.0.0, SVG Export Plug-In . SVG Version: 6.00 Build 0)  -->
<!DOCTYPE svg PUBLIC "-//W3C//DTD SVG 1.1//EN" "http://www.w3.org/Graphics/SVG/1.1/DTD/svg11.dtd" [
	<!ENTITY ns_flows "http://ns.adobe.com/Flows/1.0/">
	<!ENTITY ns_extend "http://ns.adobe.com/Extensibility/1.0/">
	<!ENTITY ns_ai "http://ns.adobe.com/AdobeIllustrator/10.0/">
	<!ENTITY ns_graphs "http://ns.adobe.com/Graphs/1.0/">
]>
<svg version="1.1" id="Layer_1" xmlns:x="&ns_extend;" xmlns:i="&ns_ai;" xmlns:graph="&ns_graphs;"
	 xmlns="http://www.w3.org/2000/svg" xmlns:xlink="http://www.w3.org/1999/xlink" xmlns:a="http://ns.adobe.com/AdobeSVGViewerExtensions/3.0/"
	 x="0px" y="0px" width="612px" height="792px" viewBox="0 0 612 792" style="enable-background:new 0 0 612 792;"
	 xml:space="preserve">
<path d="M266.7,231.2c0.8,0.2,1.4,0.4,2,0.4c1.6,0,3.2-0.2,4.8-0.8c-1.1,0.2-2.2,0.4-3.2,0.4L266.7,231.2L266.7,231.2z M276.2,227.6
	c-0.2,0-0.4,0.1-0.4,0.4h1.6c0.5-0.2,1-0.7,1.2-1.2h-4.8c-1.3,0.2-3.5,0.4-6.3,0.4H266c2.7,0.4,6.1,0.2,9.9-0.4L276.2,227.6
	L276.2,227.6z M263.9,230c-0.2-0.2-0.4-0.5-0.4-0.8c-1-0.2-1.9-0.6-2.7-1c0.5,0.2,0.8,0.5,1.2,0.6
	C262.7,229.4,263.3,229.7,263.9,230z M258.7,226.9v0.4c0.6,0.4,1.2,0.6,1.8,0.8C259.7,227.7,259.1,227.3,258.7,226.9z M252.7,217.3
	c-0.2-0.2-0.4-0.5-0.4-0.8c-1.6-2.9-2.9-5.3-3.9-7.2c-1.6-2.9-4.5-6-8.7-9.2c-0.2,0-0.8-0.1-1.6-0.4c-5.9-1.9-10-3.1-12.8-3.6h-2.4
	c-6.1,1.1-12,2.3-17.6,3.6H205c-1.6,0.5-2.9,1-3.9,1.2c-0.5,0.2-1.1,0.4-1.6,0.4c-5,2.2-11.6,3.5-19.5,3.9
	c-2.2,0.2-6.2,0.4-12.3,0.4H165c-5.9-0.2-11.2-0.5-16.4-0.8c-1.3-0.2-2.5-0.4-3.6-0.4h-0.4c-8.2-2.6-14.9-5.7-20.3-9.2
	c-6.3-3.9-10.6-10.9-12.8-20.7c-0.2,1.6-0.7,3.8-1.2,6.8h0.4c0.2,2.4,0.4,5,0.4,8c0,0.5-0.1,1.3-0.4,2.4c-0.2,1.3-0.4,2.4-0.4,3.2
	H110v-2.7c-0.2-1.3-0.4-2.2-0.4-2.4v-3.6c-0.5,2.2-1,3.9-1.2,5.6c0.2-0.2,0.5-0.5,0.8-0.8c0.2,0,0.4,0.2,0.4,0.8c0,0.5-0.7,2-2,4.4
	c0,1.1-0.2,2.5-0.8,4.4c-0.8,3.7-1.4,6-2,6.8h-0.4v-2.4c-0.2,1.1-0.4,2-0.4,2.7c-0.2,1.1-0.4,2.3-0.4,3.6v6.8h-0.4
	c-0.2-1.1-0.4-2.6-0.4-4.8c-0.2,2.6-0.4,4.8-0.4,6.3h-0.4v1.6h-0.4c0-0.2-0.1-1-0.4-2c-0.2-0.5-0.4-1.2-0.4-2
	c-0.2,1.9-0.5,3.6-0.8,5.1c0.8,1.3,1.2,2.2,1.2,2.4c0,0.8-0.2,1-0.8,0.4v1.6l-0.8,0.8c-0.8-2.4-1.4-4.3-2-5.6
	c-0.2-0.2-0.5-0.8-0.8-1.6c-0.5-2.4-1-3.7-1.2-3.9v-0.4h-0.4c0.2,1.3,0.8,3.1,1.6,5.1v0.4c0.5,1.9,1.1,3.8,1.6,6
	c1.1,5,2.2,10.6,3.2,16.7c1.1,6.9,2.7,13.3,5.1,19.1c2.9,6.9,6.2,11.6,9.9,14c0.5,0.2,1.1,0.5,1.6,0.8h0.8c-0.2-0.2-0.5-0.4-0.8-0.4
	c-4.5-4.5-6.8-7.1-6.8-7.5c0-0.2,0.1-0.7,0.4-1.2c-0.5-0.8-0.8-1.6-0.8-2.4v-0.8h0.8c0.5,2.4,3.1,5.6,7.5,9.6c1.6,1.3,3.6,3.1,6,5.1
	h1.2c-2.9-1.9-5.7-4.1-8.4-6.8c-2.2-2.4-4.7-6-7.5-10.8v-0.4l0.4-0.4c0.5,0.5,3.2,3.8,8,9.9v-0.4l0.4-0.4c0.8,0.5,1.6,1.2,2.4,2
	c0.2,0.2,0.7,0.5,1.2,0.8c-1.3-2.2-2.5-3.9-3.6-5.6c-0.2,0-0.4-0.1-0.4-0.4c-1.9-2.6-3.3-4.7-4.4-6c0.2,0.2,0.7,0.5,1.2,0.8
	c-1.3-2.6-2.4-4.9-3.2-6.8l0.4-0.4c0.2,0.5,1.6,2.7,3.9,6.8v-0.4c0.2-0.2,0.7-0.4,1.2-0.4c1.3,2.2,2.9,4.9,4.8,8.4
	c0.2,0,0.4,0.1,0.4,0.4h0.8l-1.2-2c2.4,1.3,3.6,2.2,3.6,2.4c0.8,0.8,2.5,3.2,5.1,7.2c1.3,1.9,2.7,3.6,4.4,5.1
	c1.9,1.9,3.7,3.6,5.6,5.1v0.4c2.4,1.6,3.9,5.7,4.8,12.3c0.5,4.8,1.1,8.8,1.6,12.3v4.4c-0.5,3.2-0.8,6-0.8,8.4v1.6l1.2,1.6
	c0,0.2,0.1,0.5,0.4,0.8h0.4c0.2,1.3,1,7.6,2,19.1v0.4l-0.4,0.4v0.4c-0.8,1.6-2.3,4.7-4.4,9.2v0.4c-1.6,3.5-2.7,5.7-3.6,6.8
	c0.8,0.5,1.4,1,2,1.2l2-3.6c-0.2,2.9,0.7,4.4,2.7,4.4c0.5-0.2,1.2-0.4,2-0.4v-0.4c-0.2,0-0.4-0.2-0.4-0.8c0-1.1,0.7-1.7,2-2
	c0-0.8,0.1-1.4,0.4-2c0.2-0.8,0.5-1.4,0.8-2c-0.2-0.2-0.5-0.4-0.8-0.4c-0.5-0.2-1.1-0.4-1.8-0.4h-1v-0.6h-0.4v-1.2
	c0-0.5,1.1-1.1,3.2-1.6c0.8-0.2,1.4-0.4,2-0.4v-0.5c-0.2-0.8-0.4-1.7-0.4-2.7c-0.2-0.5-0.5-1.3-0.8-2.4c0-0.8-0.1-1.4-0.4-2v-1.2
	c-0.2-0.8-0.5-2-0.8-3.6c-0.5-2.9-0.8-4.8-0.8-5.6c0-1.6,0.1-3.3,0.4-5.1v-6.3c0.2-1.1,0.7-1.7,1.2-2c0,0.8,0.1,1.6,0.4,2.4l0.4-0.4
	c0.5-0.2,1-0.5,1.2-0.8c0.2-0.8,0.5-1.6,0.8-2.4c-0.2-0.5-0.4-1.2-0.4-2c-0.2-1.3-0.4-2.5-0.4-3.6c-0.5-2.2-0.8-3.5-0.8-3.9v-1.2
	c0-1.6,0.1-3.2,0.4-4.8v-2.4c0.2-0.5,0.5-1.6,0.8-3.2c0.2-0.5,0.4-1.1,0.4-1.6c0.2-0.8,0.5-2,0.8-3.6c0-0.2-0.1-0.5-0.4-0.8
	c-1.6,2.6-2.4,5.1-2.4,7.5h-0.4c-0.5-0.8-0.8-1.7-0.8-2.7s0.7-2.7,2-5.1c0.2-0.2,0.5-0.5,0.8-0.8l-0.4-0.4c0-0.5,0.1-1,0.4-1.2
	c0.8-2.6,1.6-4.5,2.4-5.6c0.8-2.6,1.6-4.7,2.4-6l0.4-0.4v3.9c0.8-2.6,1.3-4.8,1.6-6.3c-0.2-0.5-0.4-1.2-0.4-2
	c-0.5-1.9-0.8-3.1-0.8-3.6l0.4-12h0.4c0.2,1.9,0.5,4.9,0.8,9.2c0,3.5,0.4,6.2,1.2,8.4c0-0.5,0.1-1.1,0.4-1.6c0-0.2,0.1-0.7,0.4-1.2
	c-0.5-0.8-1-2.5-1.2-5.1c-0.2-3.2-0.4-4.9-0.4-5.1v-0.4c0.2-1.6,0.4-2.5,0.4-2.7v-4.8c1.1,3.5,1.4,6.1,1.2,8c0.5-1.9,1.2-2.9,2-3.2
	l0.8,0.4l0.4,0.4c0.2-0.5,0.5-1.1,0.8-1.6h0.8c0,0,0.4,0.2,0.4,0.8c0,0.5-0.7,2.3-2,5.1c-1.1,2.9-1.9,4.9-2.4,6
	c0,0.2,0.1,0.5,0.4,0.8v-0.4c0-0.2,0.1-0.7,0.4-1.2c0-0.5,0.1-1.1,0.4-1.6c0.5-0.8,1.1-1.7,1.6-2.7c1.1-1.9,1.9-2.9,2.4-3.2h0.8
	c0,0,0.4,0.2,0.4,0.8l-1.6,3.2h0.4c0.2,0,0.4,0.2,0.4,0.8c1.3-2.4,2.4-3.9,3.2-4.8h0.8c0.2,0,0.4,0.2,0.4,0.8c0,0.2-0.1,0.7-0.4,1.2
	c0.2-0.2,0.5-0.5,0.8-0.8c0.2,0.2,0.5,0.4,0.8,0.4l0.4,0.4c0.5-0.2,1.1-0.5,1.6-0.8h0.4c0.2,0,0.4,0.2,0.4,0.8
	c0,0.5-1.3,2.3-3.9,5.1c0,0.2-0.1,0.5-0.4,0.8h0.4c0.2-0.5,0.7-1.2,1.2-2c2.9-3.2,4.8-4.9,5.6-5.1l0.4-0.4v2c1.1-1.3,1.7-2,2-2
	c-1.1,2.2-2.4,4.7-3.9,7.5c1.1-0.5,1.7-0.8,2-0.8v0.8c0.2,0,0.5-0.1,0.8-0.4c0.2-0.5,0.5-1.1,0.8-1.6c2.2-3.5,3.5-5.5,3.9-6h0.4
	c0.2,0,0.4,0.2,0.4,0.8c0,0.5-0.7,2.2-2.2,5l0.2,0.2c1.3-2.6,2.4-4.3,3.2-4.8h0.4v0.4c0,0.5-0.4,1.7-1.2,3.6h0.4
	c1.1-1.1,2.2-1.9,3.2-2.4v0.4c0.2,0,0.4,0.2,0.4,0.8v0.4c0,0.5-0.2,1.2-0.8,2c1.9-2.4,3.5-4.3,4.8-5.6h0.4v2
	c0.5-0.2,0.8-0.5,0.8-0.8l0.4,1.2c-0.8,1.6-1.9,3.2-3.2,4.8c-1.6,1.9-3.1,3.5-4.4,4.8c-1.6,1.9-2.7,2.9-3.6,3.2
	c-0.2,0-0.4-0.1-0.4-0.4c-0.2,0-0.4-0.2-0.4-0.8c0-0.2,0.7-1.3,2-3.2c-1.9,2.2-3.2,3.3-3.9,3.6h-1.2v-1.6c-0.5,0.2-1,0.7-1.2,1.2
	c-0.5,0-0.8-0.1-0.8-0.4c-0.2,0-0.4-0.2-0.4-0.8l0.4-0.8c-0.2,0.2-0.5,0.5-0.8,0.8c-0.8,0.5-1.4,1-2,1.2c1.1,0.2,2.2,0.7,3.2,1.2
	c4.3,1.1,8.2,1.6,12,1.6h2.7c2.9-0.2,5.9-0.8,8.7-1.6c2.4-1.1,6-3.1,10.8-6c0-2.4,0.2-4.9,0.8-7.5c-0.2,0.8-0.7,1.6-1.2,2.4
	c-0.5,0.8-1,1.6-1.2,2.4c-0.8,1.9-1.4,3.1-2,3.6h-0.4c0.2-0.2,0.5-0.7,0.8-1.2h-0.4c-0.8,1.9-1.3,2.9-1.6,3.2l-0.4,0.4
	c-0.2,0-0.4-0.2-0.4-0.8c0-1.1,0.4-2.9,1.2-5.6c-0.8,1.3-1.7,2.2-2.7,2.4c0.5-1.1,1.2-2.5,2-4.4c-2.2,3.9-3.6,6.2-4.4,6.8v-0.8
	c-0.8,1.3-1.7,2.2-2.7,2.4c0.5-1.1,1.2-2.6,2-4.8c-1.6,2.4-3.2,3.8-4.8,4.4c0.5-0.5,1.1-1.2,1.6-2c-1.1,0.8-2.2,1.3-3.2,1.6
	c1.6-1.3,3.1-3.6,4.4-6.8c-0.2,0.5-0.5,1.1-0.8,1.6c-1.9,2.9-3.3,4.5-4.4,4.8c1.3-2.6,2.4-4.7,3.2-6c0.2-0.5,0.5-1.2,0.8-2
	c-0.5,1.3-1.2,2.5-2,3.6c-2.2,3.2-5,5.7-8.7,7.5c-0.2,0.2-0.4,0-0.4-0.8c0-0.5,1.4-2.5,4.4-6c1.6-1.6,4.1-4.3,7.5-8v-0.8h1.2
	c0.2,0.5,0.4,1.4,0.4,2.7c0.8-1.6,1.4-2.6,2-3.2h0.4v1.2c1.1-1.9,2-3.2,2.7-3.9c0.2,0,0.4,0.2,0.4,0.8c0,0.8-0.2,1.9-0.8,3.2
	c1.3-2.6,2.2-4.4,2.4-5.1l0.4,0.4v2c0.5-1.1,1.1-2.4,1.6-3.9c0.5,0.2,0.8,0.5,0.8,0.8l0.4,0.4c0-0.2,0.1-0.4,0.4-0.4
	c1.1-3.5,2.2-5.9,3.2-7.2h0.8v1.6c0.5-0.5,1-1.1,1.2-1.6h0.8c1.9-5,3.5-9.3,4.8-12.8c-0.5,4.3-2,9.7-4.4,16.4
	c-2.4,7.6-3.6,14.2-3.6,19.5v0.8c0,0.8,0.4,2.5,1.2,5.1c0.2,1.6,0.7,3.5,1.2,5.6h0.4l2,3.6c2.6,4.5,4.7,8.1,6,10.8h0.4v7.2
	c0,6.3-0.1,11.8-0.4,16.4c0,1.9-0.1,3.6-0.4,5.1c-0.5,3.7-1.3,8-2.4,12.8v0.4H227c-0.8,1.1-2,3.5-3.6,7.2c-1.1,2.4-2.2,4.5-3.2,6.3
	h0.4c0.5,0.2,1.6-1.1,3.2-3.9c-0.5,2.9-0.5,4.4,0,4.4c0.8,0.2,1.7,0.4,2.7,0.4h0.8c0.5-0.2,1.3-0.5,2.4-0.8c1.1-0.2,2-0.5,2.7-0.8
	c0-0.8,0.2-1.9,0.8-3.2c0-1.6-1-2.5-2.7-2.7l-0.8-0.4h-0.4c-0.8,0.8-1.4,1.2-2,1.2c-0.2,0.5-0.4,0.4-0.4-0.4v-1.2
	c0-0.5,0.5-1.2,1.6-2c0.2-0.2,0.5-0.4,0.8-0.4v-0.4c0.2-2.4,1.6-7.6,3.9-15.9c1.3-7.2,2.5-11.6,3.6-13.1c1.3-4.3,2.5-7.3,3.6-9.2
	c-0.2-0.5-0.4-1.1-0.4-1.6v-7.2c-0.2-1.6-0.4-3.7-0.4-6.3c-0.2-0.2-0.4-0.7-0.4-1.2c-0.2-0.5-0.4-1.4-0.4-2.7
	c-0.2,0-0.5-0.1-0.8-0.4c0,2.9-0.4,5.3-1.2,7.2h-0.4c0-1.6-0.1-3.6-0.4-6c-0.2-1.9-0.4-3.2-0.4-3.9c0-2.2,0.8-6.3,2.4-12.8
	c-0.5,0.8-1.1,1.6-1.6,2.4h-0.4l3.2-6.3c0.2-0.5,0.4-1.1,0.4-1.6c-1.9,3.7-3.3,6.1-4.4,7.2v-0.4c1.3-2.4,3.2-6.2,5.6-11.6
	c-2.6,4.8-5.6,8.8-8.7,12.3c0.5-1.1,3.3-6.9,8.4-17.6c3.5-7.2,5.9-10.9,7.2-11.1c-1.4,3.7-2.6,6.7-3.6,9c3-6.6,4.7-10,5.1-10.5v-0.4
	c0.2,0,0.4,0.2,0.4,0.8c0,1.2-1.1,4.1-3.2,8.7c2.2-4.5,3.8-8,4.8-10.4c-0.5,2.6-1.1,5-1.6,7.2c1.9-5.9,3.1-9.3,3.6-10.4
	c-0.7,3.1-1.4,7.4-2.4,12.8c0.2-0.5,0.5-1,0.8-1.2c0.8-2.2,1.4-3.9,2-5.6c0.8-3.5,1.3-6.8,1.6-9.9h0.4c0.2,0.5,0.4,1.4,0.4,2.7
	c0,2.9-0.8,7.3-2.4,13.1c-0.2,0.8-0.4,1.6-0.4,2.4c2.2-6.1,3.7-9.3,4.8-9.6c-0.8,2.2-1.4,3.9-2,5.6c0.5-0.8,1-1.4,1.2-2
	c-1.1,2.4-2.3,6-3.6,10.8c0.5-1.1,1.1-2.2,1.6-3.2h0.4c2.4-5.3,3.6-11.4,3.6-18.3c0-4.3-0.1-7.2-0.4-8.7c-0.2-0.2-0.4-0.5-0.4-0.8
	c-0.2-0.5-0.5-1.1-0.8-1.6l-0.4-0.4c-0.2-0.8-0.4-1.7-0.4-2.7C255.1,222.3,253.8,219.7,252.7,217.3L252.7,217.3z M259.1,222.4
	c0-1.1,0.4-1.7,1.2-2c2.2,3.5,4.9,5.3,8.4,5.6c1.9,0.2,3.8,0,6-0.8c0.5-0.8,1.6-1.7,3.2-2.7h-2l-2.4-0.8l2-2h-4.8
	c2.2-1.9,3.5-3.5,3.9-4.8c-1.3,1.1-2.5,1.9-3.6,2.4c-2.2,0.8-5,1.2-8.7,1.2c-0.5,0-2-0.1-4.4-0.4c-1.6-0.2-2.6-0.4-3.2-0.4
	c0.8,1.6,1.6,3.3,2.4,5.1c0.2,0.2,0.5,0.5,0.8,0.8c1.1,0.8,2.2,1.4,3.2,2c0.2,0.1,0.5,0.2,0.8,0.4c-0.6-0.4-1.2-0.7-1.6-1.2
	C259.5,224,259.1,223.3,259.1,222.4L259.1,222.4z M258.3,216.5c2.2,0.2,3.5,0.4,3.9,0.4c3.5,0,6.1-0.4,8-1.2
	c1.3-0.5,2.6-1.4,3.9-2.7l2.7-2.4c-0.2,2.2-0.5,3.6-0.8,4.4c-0.2,1.1-0.7,2-1.2,2.7c2.2-0.8,3.3-1.4,3.6-2l3.2-2l-1.2,2.7l-2.7,2.7
	c-0.5,0.5-1.1,1.1-1.6,1.6h3.6l3.6,0.4l-2.7,1.2c-1.6,1.1-2.7,2-3.6,2.7c1.3,0,2.5,0.1,3.6,0.4l1.2,0.4l-0.8,0.8
	c-2.2,2.4-3.6,3.8-4.4,4.4c-2.2,1.3-4.8,2-8,2c-1.3,0-3.8-1-7.5-2.7c-0.2-0.2-0.7-0.4-1.2-0.4l0.4,0.4c0.2,1.9,0.4,4.9,0.4,9.2
	c0,7.2-1.3,13.5-3.9,19.1c-2.2,3.9-4.3,7.8-6.3,11.6c-0.5,0.8-1.1,1.7-1.6,2.7c-1.1,2.2-2,3.9-2.7,5.6c-0.5,3.2-0.8,6.9-0.8,11.1
	c0,3.7,0.2,7.2,0.8,10.4c0.2,1.9,0.7,3.9,1.2,6.3v0.8c0.5,1.9,1,3.3,1.2,4.4v0.4l-0.4,0.4v0.4c0,0.8-0.1,1.3-0.4,1.6
	c0,0.2-0.2,0.4-0.8,0.4v-0.4c-0.8,1.3-1.7,2.9-2.7,4.8c-0.5,1.3-1.2,2.7-2,4.4c-0.2,0-0.4,0.1-0.4,0.4c-0.2,0.8-0.5,1.7-0.8,2.7
	v-0.4c-0.8,2.4-1.6,5-2.4,8c-1.1,3.9-1.6,6.3-1.6,7.2c0.2,0.5,0.5,1.4,0.8,2.7h0.4v0.4c0,3.2-0.8,5-2.4,5.6h-0.4
	c0,1.1-0.1,2.5-0.4,4.4c-0.5,1.6-0.8,2.7-0.8,3.6v0.4h-0.8c-0.8,0.5-1.7,1-2.7,1.2h-0.4c-1.1,0.2-1.9,0.5-2.4,0.8h-3.9
	c-1.3-0.2-2.5-0.5-3.6-0.8c-0.5-0.2-1-0.4-1.2-0.4l-1.2-0.4l0.4-0.8c1.1-1.9,2.3-4.3,3.6-7.2c1.6-3.7,2.9-6.1,3.9-7.2
	c1.1-4.8,1.9-8.8,2.4-12.3c0-1.6,0.1-3.3,0.4-5.1c0.2-4.5,0.4-9.9,0.4-16.4l-0.4-6.8c-1.3-2.4-3.2-5.9-5.6-10.4l-1.2-1.6
	c-0.2,0.2-0.4,0.7-0.4,1.2v6c0,2.9,0.5,6.2,1.6,9.9c1.1,3.2,1.7,5.4,2,6.8v0.4h-0.4c-0.5,0.8-2.5,3.2-6,7.2l-6,15.5
	c0,1.9,0.2,3.6,0.8,5.1v0.4l-0.4,0.4h-0.4c-0.8,0.2-1.6,0.5-2.4,0.8v0.4l-0.4,0.4l-2.7,7.2c-0.2,0.2-0.5,0.5-0.8,0.8
	c-0.2,0.8-1,1.2-2,1.2c-0.2,0-0.5-0.1-0.8-0.4H192v-3.6l0.8-0.4c0.8-0.5,2.5-2.3,5.1-5.1c2.2-2.4,3.6-3.9,4.4-4.8
	c0.5-1.9,1.2-4.3,2-7.2s1.4-5.5,2-7.5c0.5-3.5,1-5.7,1.2-6.8v-0.4c0.2-3.2-1.3-9.3-4.8-18.3c-2.9-8-4.8-12.8-5.6-14.3h-2
	c-3.9,0-8.1-0.7-12.3-2c-4.3-1.3-6.9-2-8-2c-2.4,0-4.5,0.1-6.3,0.4c-1.1,0.2-2.2,0.7-3.2,1.2c-0.8,2.4-1.6,5.6-2.4,9.6
	c-1.1,7.2-1.4,13.4-1.2,18.8v1.2c-0.2,2.4-0.7,6.5-1.2,12.3v1.6c-0.2,0.8-0.5,2.4-0.8,4.8c-0.2,3.2-0.4,6.1-0.4,8.7
	c0,4.3,0.1,8.2,0.4,12c0.2,1.9,0.5,3.3,0.8,4.4c0.2,1.1,0.4,1.9,0.4,2.4v0.4h-0.4v0.4c-0.5,0.2-1,0.7-1.2,1.2v0.4
	c0,2.4-0.1,4.5-0.4,6.3v0.8h-0.8c-0.5,0-1.2,0.1-2,0.4h-1.6c-2.2,1.1-3.6,1.6-4.4,1.6h-0.4c-2.4,0-4.3-0.4-5.6-1.2
	c-0.5-0.2-1.4-1-2.7-2L141,367l0.4-0.8c0.5-0.5,1.7-2.9,3.6-7.2c2.2-4.8,3.6-8,4.4-9.6v0c-0.8-10.9-1.3-17-1.6-18.3
	c-0.2-0.2-0.5-0.5-0.8-0.8c-1.1-1.3-1.4-2.2-1.2-2.4v-1.6c0-3.2,0.4-6.5,1.2-9.9c-0.5-3.9-1.2-9-2-15.2c-0.8-5-1.9-8.5-3.2-10.4
	c-0.5,2.4-1.2,5.9-2,10.4c-1.1,8.2-1.7,13.7-2,16.7h0.4v0.4c0,0.2,0.1,0.5,0.4,0.8c0.5,1.9,0.8,2.9,0.8,3.2c0,0.5-0.1,1.9-0.4,3.9
	c-0.2,1.1-0.5,2.4-0.8,3.9c0.8,7.2,1.2,13,1.2,17.5c0,0.2-0.1,0.4-0.4,0.4c0,0.5-0.1,1.1-0.4,1.6c-0.2,0.2-0.4,0.5-0.4,0.8
	c-0.2,0.2-0.4,0.5-0.4,0.8h-0.4c-0.5,0.5-1.1,1.6-1.6,3.2c-0.2,1.1-0.5,1.9-0.8,2.4c-0.2,0.5-0.5,0.7-0.8,0.4
	c-1.3,1.1-3.2,1.6-5.6,1.6c-1.6,0-3.1-0.2-4.4-0.8c-0.5,0-1.7-0.5-3.6-1.6l-1.2-0.4l0.8-0.8c1.6-1.6,3.2-3.6,4.8-6
	c0.8-1.1,1.9-2.3,3.2-3.6v-0.4c0.2-0.8,0.5-1.3,0.8-1.6c0.2-0.8,0.4-2.4,0.4-4.8c0-2.2-0.2-5.1-0.8-9.2v0.4
	c-0.2-0.2-0.4-0.5-0.4-0.8c0-0.8-0.1-1.7-0.4-2.7v-0.4c-0.2-0.5-0.4-1.1-0.4-1.6c-0.2-0.5-0.5-1-0.8-1.2c-1.1-2.6-1.7-4.3-2-4.8
	h-0.4v-7.5h0.4v-2.4c0-4.3-0.2-8.6-0.8-13.1c-0.2-2.6-1.1-5.6-2.4-8.7c-1.6-2.9-3.5-5.6-5.6-8c0-0.2-0.1-0.4-0.4-0.4
	c-3.7-2.4-7.2-7.3-10.4-14.7c-2.4-5.9-4.1-12.3-5.1-19.5c-1.1-5.9-2.2-11.2-3.2-16.4c-0.5-2.2-1.1-4.1-1.6-6c-1.3-4.5-2.2-7.2-2.4-8
	c0-0.5-0.5-1.7-1.6-3.6c-0.2-0.2-0.4-0.5-0.4-0.8c-1.6,0-2.7-0.4-3.6-1.2c-1.3-0.8-2.4-2.7-3.2-6V202h-0.4c-1.1-1.9-2.3-4.4-3.6-7.5
	c-0.8-1.9-1.4-3.5-2-4.8c-0.2-0.8-0.4-1.4-0.4-2h-0.4c-1.1-2.2-2-4.5-2.7-7.2c-0.2-1.6-0.5-2.7-0.8-3.6v-0.4l-0.4-2.7
	c0-0.2-0.1-0.5-0.4-0.8v-2.4c-1.1,0.5-1.9,1-2.4,1.2c-1.3,0.8-2.2,1.6-2.4,2.4l-0.4,0.4v0.4c-0.2,1.6-1.2,3.2-2.7,4.8
	c-2.4,2.4-5,3.6-8,3.6c-0.2,0-1-0.1-2-0.4c-0.2-0.2-0.5-0.4-0.8-0.4h-0.5l-0.4-0.4v-0.4c-0.6-0.5-0.8-1-0.8-1.6c0-0.5,0.7-1.6,2-3.2
	c1.6-1.9,2.7-3.6,3.6-5.1c3.2-5.3,5.9-9.3,8-12c0.2,0,0.4-0.1,0.4-0.4c1.9-2.2,3.6-3.2,5.1-3.2c0.5,0,1.4,0.4,2.7,1.2
	c0.2-0.5,0.5-1,0.8-1.2c1.1-2.6,1.3-4.8,0.8-6.3c-0.8-1.6-0.7-3.2,0.4-4.8c1.1-1.3,2.4-1.1,3.9,0.8c1.6,1.9,2.7,2.9,3.6,3.2h6
	c0.2,0,2.3-0.1,6-0.4h2.4c0-0.2,0.1-0.4,0.4-0.4c0.2,0,0.5-0.1,0.8-0.4h0.8c0.2-0.2,0.8-0.7,1.6-1.2c1.6-1.1,2.6-1.9,3.2-2.4
	l0.4-0.4c2.6-1.3,3.7,0.2,3.2,4.8c-0.2,0.8-0.5,1.9-0.8,3.2c-0.2,1.1-0.5,1.9-0.8,2.4c0.5,0.5,1.1,1.2,1.6,2
	c0.2,0.2,0.5,0.5,0.8,0.8c0.8,0,1.3-0.1,1.6-0.4c0.8-0.5,1.7-0.8,2.7-0.8c2.4,0,6.3,2.4,12,7.2c9.3,8.5,14.7,13.4,16.4,14.7l0.8,0.4
	l-0.4,0.8c-0.2,0.5-0.8,1.1-1.6,1.6c-1.3,0.8-3.2,1.2-5.6,1.2c-5.9,0-10.6-2.2-14.3-6.3c-1.3-2.2-2.3-3.6-2.7-4.4
	c-0.8-1.1-1.4-1.6-2-1.6h-0.8v0.4l-2,2c-0.2,0.5-0.5,1-0.8,1.2c1.9,10,6,17,12.3,20.7c5.3,3.5,12.1,6.5,20.3,9.2h3.2
	c5,0.5,10.5,1,16.4,1.2h2.7c6.1,0,10.2-0.1,12.3-0.4c7.6-0.5,14-1.7,18.6-3.6v-0.4c0.8,0,1.6-0.1,2.4-0.4c1.1-0.2,2.4-0.7,3.9-1.2
	c5.6-1.6,11.4-2.9,17.5-3.9h3.2c2.4,0.5,6.6,1.9,12.8,3.9c2.4,0.8,4.5,1.6,6.3,2.4h0.4c1.3,1.9,2.9,4.5,4.8,8
	c1.1,1.9,2.3,4.3,3.6,7.2c0.2,0,0.4,0.1,0.4,0.4C254.5,216.1,255.9,216.2,258.3,216.5L258.3,216.5z M223.3,211c4.5,1.3,6.9,2,7.2,2
	c-0.5,0.2-1.2,0.4-2,0.4c-5.3-1.1-8.7-2.3-10.4-3.6C218.6,209.8,220.4,210.1,223.3,211L223.3,211z M215.8,214.1
	c1.3,1.3,4.3,2.7,8.7,4.4c4.3,1.9,6.7,3.1,7.2,3.6c-0.2,0-1,0.1-2,0.4h-2.4c-3.2,0-6.1-1.3-8.7-3.9c-1.6-1.3-2.7-2.7-3.6-4.4H215.8
	L215.8,214.1z M211.7,216.1c1.6,0.2,3.7,1.4,6.3,3.6c3.7,2.9,6.5,4.9,8.4,6c-0.2,0.2-0.7,0.4-1.2,0.4c-3.5-0.5-6.3-2-8.7-4.4
	c-2.4-2.6-3.9-4.4-4.8-5.1V216.1L211.7,216.1z M214.6,212.2c1.6-0.2,3.3,0,5.1,0.8c-1.1-1.1-1.6-1.7-1.6-2c0.8,0,2.4,0.5,4.8,1.6
	c2.6,1.1,5.1,2.4,7.5,3.9c0,0.2-0.2,0.4-0.8,0.4c-0.2,0.2-0.5,0.4-0.8,0.4c0.8,0.2,1.7,0.7,2.7,1.2c-0.2,0.2-1,0.4-2,0.4
	c-3.2,0-6.1-0.8-8.7-2.4c-2.6-1.9-4.8-3.2-6.3-3.9L214.6,212.2L214.6,212.2z M244,260.7c-0.1,0.2-0.2,0.5-0.4,0.8
	c-0.1,0.2-0.1,0.5-0.2,0.6C243.6,261.6,243.8,261.2,244,260.7z M244.9,265l-0.2-0.8c0,0.2-0.1,0.4-0.4,0.4l0.4,0.8
	C244.9,265.4,244.9,265.2,244.9,265z M243.1,268.2c0.5-1.1,1.1-2,1.6-2.7c-0.5,0.5-1.1,1.2-1.6,2V268.2L243.1,268.2z M228.1,274.2
	c1.6-2.2,4.1-6,7.5-11.6c2.9-4.5,5.3-7.7,7.2-9.6c-3.5,6.7-5.3,10-5.6,10.4C234.9,267.7,231.8,271.3,228.1,274.2z M103.5,172.7
	c0.5-0.8,1-1.3,1.2-1.6c0.5-0.8,1.3-1.2,2.4-1.2s1.7,0.1,2,0.4c0.2,0.2,0.5,0.5,0.8,0.8l0.4,0.4l-0.8-0.4c0.2,1.1,0.2,2,0,2.7h-0.4
	c-0.5,1.1-1.3,1.6-2.4,1.6c-0.8,0-1.4-0.2-2-0.8c-0.2,0-0.4-0.1-0.4-0.4c-0.2,0.2-0.8,0.5-1.6,0.8
	C102.9,173.8,103.3,173,103.5,172.7z M76.9,173.1c-0.5,0-0.8,0.2-0.8,0.8l0.8,0.8C77.6,174.2,77.6,173.7,76.9,173.1z M71.6,158
	c-1.1,0.2-2.4,1.2-3.9,2.7l-0.4,0.4c-2.2,2.4-4.7,6.2-7.5,11.6c-1.1,1.6-2.4,3.5-3.9,5.6c-0.8,1.1-1.3,1.7-1.6,2
	c0,0.2,0.1,0.5,0.4,0.8c0.2,0,0.5,0.1,0.8,0.4H57c2.4,0,4.5-0.8,6.3-2.4c0-0.2,0.1-0.4,0.4-0.4c1.3-1.3,2.2-2.6,2.4-3.9
	c0-0.2,0.1-0.5,0.4-0.8c0.5-1.3,1.6-2.5,3.2-3.6c0.8-0.5,2-1.1,3.6-1.6l0.4-0.4v-4.4c0.2-2.2,0.4-3.7,0.4-4.8
	C73,158.4,72.2,158,71.6,158L71.6,158z M139.7,179.4c0.5-0.2,0.8-0.5,0.8-0.8c-2.2-1.9-7.4-6.6-15.9-14.3c-5-4.5-8.6-6.8-10.8-6.8
	c-0.8,0-1.3,0.1-1.6,0.4c-0.8,0.5-1.9,0.8-3.2,0.8h-0.4c-0.5-0.2-1-0.8-1.2-1.6c-0.5-0.8-1.1-1.3-1.6-1.6h-0.4v-0.4h-0.4
	c-0.5-1.3-1.1-2.4-1.6-3.2c-0.8-1.3-1.9-2.2-3.2-2.4c-0.2,0.2-0.5,0.4-0.8,0.4l-0.4,0.4h-3.2c-3.7,0.5-5.7,0.8-6,0.8h-0.4
	c-1.6-0.2-3.1-0.2-4.4,0h-1.2c-0.8-0.5-1.3-0.8-1.6-0.8c-1.3,0-2.6,1.2-3.9,3.6c-0.8,1.1-1.3,2-1.6,2.7c-0.2,0-0.4,0.1-0.4,0.4
	c-0.2,0.5-0.4,1.1-0.4,1.6v0.4c-0.2,0.8-0.4,2.5-0.4,5.1c-0.2,0.2-0.2,0.5,0,0.8c-0.2,1.1,0.1,1.1,1.2,0c-1.3,2.9-2,4.5-2,4.8v0.4
	c-0.2,0.2-0.4,0.5-0.4,0.8c0.2-0.2,0.7-0.4,1.2-0.4s1.4,0.7,2.7,2c0.2,0.2,0.5,0.5,0.8,0.8c0.5,0.5,0.8,1.1,0.8,1.6
	c0.2,0.5,0.8,2.3,1.6,5.1c1.1,3.5,1.6,5.7,1.6,6.8c0,0.8-0.1,1.7-0.4,2.7h-0.4c-0.2-1.9-0.7-4.3-1.2-7.2l-1.2-6.3
	c-0.2,0-0.7-0.4-1.2-1.2l-0.8,0.8c-0.5,0.5-1.3,0.8-2.4,0.8h-0.4c0.2,0.8,0.5,2,0.8,3.6c0.8,2.4,1.7,4.5,2.7,6.3
	c0,0.2,0.1,0.5,0.4,0.8c0,0.5,0.1,1.1,0.4,1.6v0.4c0.5,1.1,1.2,2.6,2,4.8c1.3,2.9,2.5,5.3,3.6,7.2c0.2,0,0.4,0.1,0.4,0.4l0.8,0.8
	v0.4h0.4c0.2,0,0.5,0.1,0.8,0.4c0.5,0.2,1.2,0.4,2,0.4c0-0.8,0.2-2.3,0.8-4.4c0,2.2,0.2,3.5,0.8,3.9c2.4,0.2,4.4-0.8,6-3.2
	c0.8-0.8,2.2-1.9,3.9-3.2c-0.8,1.9-1.7,3.3-2.7,4.4c-0.8,1.1-1.7,1.9-2.7,2.4c-0.8,1.1-1.4,1.7-2,2c-0.5,0.5-1.3,0.8-2.4,0.8
	s-1.9-0.1-2.4-0.4h-0.4v-0.4c-0.5-0.2-1.1-0.5-1.6-0.8c0-0.2-0.1-0.4-0.4-0.4c0.5,1.3,1.2,2.3,2,2.7c0.5,0.5,1.4,0.8,2.7,0.8H93
	c0.5-0.2,1.2-0.5,2-0.8c0.8-0.5,1.3-0.8,1.6-0.8c0.2-0.5,1-1.6,2-3.2c0-0.2,0.2-0.7,0.8-1.2c0.5-0.8,1.3-1.9,2.4-3.2
	c0.2-0.2,0.5-0.5,0.8-0.8v-0.4c0.2-1.1,1-2.5,2-4.4c1.3-1.6,2.2-2.4,2.4-2.4s0.4,0.1,0.4,0.4c0.2-1.1,0.5-2.3,0.8-3.6
	c-1.1,1.6-2.6,3.7-4.8,6.3c-0.5,0-1-0.1-1.2-0.4c1.9-2.9,3.1-4.5,3.6-4.8c0.8-1.3,1.7-2.4,2.7-3.2c0.2-0.8,0.4-1.4,0.4-2v-0.8
	c-0.2,0.5-0.8,1.2-1.6,2c-1.9,2.4-3.3,3.8-4.4,4.4c0.8-0.8,1.9-2.4,3.2-4.8c1.1-2.2,2.2-3.5,3.2-3.9c0.5-4.3,1-6.8,1.2-7.5v-0.8h0.8
	c0.2,0,0.5-0.1,0.8-0.4c0.2-0.2,0.5-0.5,0.8-0.8c0.5-0.5,1.1-1.2,1.6-2c0.2-0.5,0.7-1,1.2-1.2V167h1.2c0.8,0,1.9,0.8,3.2,2.4
	c0.5,0.8,1.6,2.3,3.2,4.4c3.2,3.9,7.4,6,12.8,6C137.2,180.2,138.7,180,139.7,179.4L139.7,179.4z M96,184.2c0-2.6,0.2-5,0.8-7.2
	c0.8-2.2,1.9-4.4,3.2-6.8c-0.8,6.6-2,11.7-3.6,15.2c0-0.2-0.1-0.4-0.4-0.4L96,184.2L96,184.2z M98.7,181.4h-0.4
	c0.5-2.9,1.3-5.4,2.4-7.5c1.3-2.9,2.9-5,4.8-6.3c-0.8,1.9-2,4.3-3.6,7.2C100.3,177.6,99.2,179.9,98.7,181.4z M107.1,172.7
	c0,0.5,0.2,0.7,0.8,0.4c0.5,0,0.7-0.2,0.4-0.8C107.7,171.8,107.3,171.9,107.1,172.7z M108.7,178.7c0,0.8-0.5,1.9-1.6,3.2
	c-0.8,1.3-1.7,2.2-2.7,2.4c0.5-0.8,1.2-1.7,2-2.7C107.3,179.9,108.2,178.9,108.7,178.7z M97.9,187.4c0.2,0.5,0.4,1.3,0.4,2.4
	c0,0.8-0.1,2.3-0.4,4.4h-0.4c-0.2-1.1-0.4-2.5-0.4-4.4v-2.4H97.9L97.9,187.4z M94.3,209.3l-1.6,0.8c0.5,0.8,1,1.4,1.2,2v-0.8
	C94,210.7,94.1,210.1,94.3,209.3z M92.8,195.4c1.1-1.1,1.4-1.2,1.2-0.4c-1.3,3.5-2.2,5.1-2.4,5.1L92.8,195.4L92.8,195.4z
	 M86.4,195.8c-0.2-0.8,0-1,0.8-0.4l2,3.6C88.3,198.4,87.5,197.3,86.4,195.8L86.4,195.8z M85.6,191.8c2.9-0.5,5.9-0.5,8.7,0
	c2.4,0.5,3.3,1.3,2.7,2.4c-0.5,2.2-1.4,3.7-2.7,4.8h-0.8c2.2-2.9,2.7-4.7,2-5.1c-3.7-1.6-7.2-1.7-10.4-0.4c-0.8,0.8,0.1,2.9,2.7,6.3
	c-2.2-1.9-3.6-3.3-4.4-4.4C83.1,193.5,83.7,192.3,85.6,191.8L85.6,191.8z M99.6,203.8v0.4c-0.5,0.8-1.1,1.6-1.6,2.4
	c0,0.2,0.1,0.7,0.4,1.2c0.2-1.9,0.7-2.7,1.2-2.7c0.2-0.2,0.4-0.8,0.4-1.6C99.9,203.6,99.8,203.8,99.6,203.8z M122.6,283.8
	c-0.5-0.2-1.1-0.2-1.6,0c0.2,0,1,0.8,2,2.4c1.6,3.5,2.5,6.7,2.7,9.6c0.2,4.3,0.4,8.6,0.4,13.1v9.6c0.2,0.5,1,2,2,4.4
	c0.2,0.5,0.4,1,0.4,1.2h0.4c0,0.8,0.1,1.4,0.4,2v0.4c0.2,1.1,0.5,2.2,0.8,3.2v0.4c0.5,3.9,0.8,7.1,0.8,9.2c0,2.6-0.1,4.4-0.4,5.1
	c-0.2,0.5-0.5,1.2-0.8,2h-0.4v0.4c-1.1,1.6-2.2,2.9-3.2,3.9c-1.3,2.2-2.6,3.8-3.9,5.1c1.3,0.5,2.9-0.2,4.8-2.4l-2,3.2
	c0.8,0.5,2,0.8,3.6,0.8c2.2,0,3.7-0.5,4.8-1.6l0.4-0.4c0.2-0.2,0.4-0.7,0.4-1.2c0.8-2.2-1.1-3.1-5.6-2.7c5.3-1.3,8.1-2.3,8.4-2.7
	c0.2-0.2,0.4-0.5,0.4-0.8c-0.2,0.5-0.7,1-1.2,1.2c-0.5,0-1-0.1-1.2-0.4v-4.3c-0.2-1.6-0.5-3.3-0.8-5.1v-8.4c0-0.8,0.1-1.4,0.4-2
	c0-1.1-0.1-1.9-0.4-2.4c0-0.5-0.1-1.1-0.4-1.6c-1.6-4.8-2.4-7.6-2.4-8.7V316h0.8l1.6,3.6v-1.6c-1.3-3.2-2-5-2-5.6v-1.6h0.8
	c0.4,1.1,0.7,2.2,1.2,3.3V314c-0.8-2.6-1.2-6-1.2-9.9v-2c0-0.5,0.2-1,0.8-1.2v-1.6c0-0.8,0.1-1.6,0.4-2.4c-0.5-1.9-1.2-3.8-2-6
	c-0.2-0.2-0.4-0.7-0.4-1.2c-0.8-1.3-1.6-2.5-2.4-3.6l-0.4-0.4c0.5,1.1,1.3,2.6,2.4,4.8l-0.4,0.4c-0.5-0.5-1.4-1.7-2.7-3.6
	c0.2,1.1,0.7,2.2,1.2,3.2v0.4c-2.2-1.6-3.9-3.6-5.6-6C123.1,284.4,122.9,284,122.6,283.8L122.6,283.8z M125.1,271.8l0.2,0.2v-0.2
	H125.1z M96,210.5c-0.2-0.5-0.4-1.2-0.4-2l-0.4,0.4c0.2,0.8,0.5,1.6,0.8,2.4C96,211.1,96,210.7,96,210.5z M186.7,208.9
	c-2.4-0.2-3.7-0.4-3.9-0.4c4.3-0.2,9.2-1,14.7-2c1.3-0.2,2.5-0.5,3.6-0.8c1.3-0.2,2.5-0.5,3.6-0.8c-0.5,0.5-1.7,1.1-3.6,1.6
	c-0.5,0.2-1,0.5-1.2,0.8c-3.5,1.1-6.2,1.6-8.4,1.6h-4.8V208.9z M200.6,211c-0.8,0.2-2,0.7-3.6,1.2c-1.3,0.5-3.7,0.8-7.2,0.8
	c-5.3,0-8.4-0.4-9.2-1.2c-0.2-0.5-0.5-0.8-0.8-0.8h-3.2c2.4-0.5,6-0.7,10.8-0.4c5.6,0.5,9.6,0.7,12,0.4H200.6z M163.6,281.4v2
	c0-0.6,0.1-1.1,0.4-1.6L163.6,281.4z M166.7,280.2c0-0.2,0.1-0.5,0.4-0.8V279C166.9,279.2,166.7,279.6,166.7,280.2z M177.1,276.9
	h0.4v-0.4C177.5,276.8,177.4,276.9,177.1,276.9z M158,312.8c0.2-1,0.4-2,0.4-3.3c-0.1,0.8-0.2,1.7-0.4,2.6V312.8L158,312.8z
	 M152.9,332.3h-0.4c-0.2,0-0.4-0.1-0.4-0.4C152.3,332.2,152.5,332.3,152.9,332.3L152.9,332.3z M159.2,325.5l-0.4,0.4
	c0,1-0.2,2.5-0.8,4.4c0.1-0.1,0.2-0.2,0.4-0.4c0.5-1.1,0.8-2.4,0.8-3.9V325.5L159.2,325.5z M157.2,367.3V367
	c-0.2,0.2-0.7,0.4-1.2,0.4v0.4C156.6,367.4,156.9,367.3,157.2,367.3z M157.7,348.1v1.8c0,0.2,0.1,0.5,0.4,0.8
	C157.8,349.9,157.7,349,157.7,348.1z M203.8,341.9c-0.8,0.5-2.4,2.2-4.8,4.8c-2.4,2.9-4.1,4.7-5.1,5.1v0.8c1.3,0.2,4.5,0.4,9.6,0.4
	h1.6c0-0.2,0.1-0.5,0.4-0.8l1.2-4.8l-3.9-0.8l5.6-2l0.4-0.4c0.2,0,0.5-0.1,0.8-0.4c-0.2-0.2-0.5-0.4-0.8-0.4v-0.8
	c0-0.5,0.1-1.2,0.4-2c-0.2-0.8-0.4-1.7-0.4-2.7c0-3.7,0.4-6.5,1.2-8.4c0.2-1.6,0.8-3.6,1.6-6c0.2-1.1,0.4-2.2,0.4-3.2
	c0.8-3.7,1.4-6.8,2-9.2c-0.2-0.8-0.5-2.5-0.8-5.1c-0.2,0-0.4-0.1-0.4-0.4v0.4c-0.5-1.3-0.8-2.9-0.8-4.8c-0.2-1.3-0.4-2.4-0.4-3.2
	c-0.2,1.9-0.8,4.1-1.6,6.8h-0.4c0-0.5-0.1-1.1-0.4-1.6c0,0.8-0.1,1.4-0.4,2c0.2,1.3,0.4,2.4,0.4,3.2v0.4c0,0.2-0.1,0.5-0.4,0.8
	c-0.5-0.5-1.1-1.4-1.6-2.7c0-0.2-0.1-0.5-0.4-0.8c1.9,6.1,2.6,10.5,2.4,13.1v0.4c0,1.1-0.4,3.3-1.2,6.8c-0.5,2.2-1.2,4.7-2,7.5
	c-0.8,2.6-1.4,5-2,7.2L203.8,341.9L203.8,341.9z M244,298.1c-0.2-0.7-0.4-1.4-0.4-2.2v1.4C243.6,297.5,243.7,297.7,244,298.1z
	 M209.8,343.9c0.5-0.5,1.2-1,2-1.2c-0.2-0.8-0.5-1.6-0.8-2.4C210.4,341.9,210,343,209.8,343.9L209.8,343.9z"/>
<path d="M96,203c3.2,0.2,8.2,1.3,15.2,3.2l-3.2,0.4c-6.1-1.9-10.5-2.9-13.1-3.2C95.3,203.1,95.6,203,96,203L96,203z M85.6,205v-0.4
	l-1.6,0.8h-0.4c-0.5,0.2-1.2,0.8-2,1.6c-0.8,0.5-2,1.4-3.6,2.7l-0.8-0.8c1.6-1.1,2.9-2,3.9-2.7c0.2-0.2,0.5-0.5,0.8-0.8
	c-0.5,0-1.2-0.2-2-0.8c-0.8-0.2-2-0.8-3.6-1.6l0.4-1.2c1.6,1.1,2.7,1.7,3.6,2c1.1,0.5,2.2,0.8,3.2,0.8c0.2-0.2,1.2-0.5,2.7-0.8
	l1.6,0.4c-0.8,0.2-1.4,0.8-2,1.6c-0.8,1.1-1.3,2-1.6,2.7v3.6l-0.4-0.4c-0.2-1.9-0.4-2.9-0.4-3.2C83.6,207.5,84.3,206.3,85.6,205
	L85.6,205z"/>
<g>
	<path d="M84,209.3v3.2c0,2.2-0.5,4.7-1.6,7.5c1.9-4.3,2.6-7.6,2.4-10.4c0.5,0.2,1.2,0.7,2,1.2c1.1,1.1,1.7,2.6,2,4.8
		c-0.2-0.2-0.5-0.5-0.8-0.8v2c-0.2-0.2-0.5-0.5-0.8-0.8c0.2,1.3-0.1,2.4-1.2,3.2V218c-0.2,0.8-1,1.4-2,2c-1.3,0.8-2.2,1.4-2.4,2
		c0-0.5-0.1-1.1-0.4-1.6v-2.4h-0.8l0.4-1.2c0-0.5,0.1-1,0.4-1.2l-0.8,0.4c-0.2-0.2-0.1-0.8,0.4-1.6c0-0.8,0.1-1.3,0.4-1.6
		c-0.2,0-0.5,0.1-0.8,0.4c-0.2-0.5-0.1-1.2,0.4-2C81,210.7,82.1,210.1,84,209.3L84,209.3z M78.8,203c-0.8-0.5-1.9-1.1-3.2-1.6
		c-2.2-0.8-4.4-1-6.8-0.4c1.9-0.2,4.3,0.2,7.2,1.6c1.1,0.5,1.9,1,2.4,1.2c-1.1,1.1-2,1.6-2.7,1.6c-1.1,0.2-1.7,0.2-2,0
		c0.5-0.2,0.8-0.5,0.8-0.8h-3.6l0.8-0.8h-0.8l-1.6-0.4c0.2,0,0.4-0.2,0.4-0.8c-0.5,0-1.3-0.2-2.4-0.8c-0.5-0.2-1-0.5-1.2-0.8
		c0.5-0.2,1.3-0.8,2.4-1.6c1.3-0.8,2.3-1.2,2.7-1.2c-0.2,0-0.7-0.1-1.2-0.4c1.1-0.5,2.3-0.4,3.6,0.4c-0.2-0.5-0.5-1-0.8-1.2H73
		c0.8,0.5,1.3,0.8,1.6,0.8c0-0.5-0.1-1-0.4-1.2c2.2,1.1,3.3,2.3,3.6,3.6C78.3,201.2,78.5,202.1,78.8,203L78.8,203z M79.6,207.4
		c-3.7,1.3-6.8,4.3-9.2,8.7c3.2-4.5,6.3-7.3,9.6-8.4c0.5,2.4,0.5,4.1,0,5.1c-0.8,1.1-1.3,1.6-1.6,1.6c0-0.5-0.1-1-0.4-1.2
		c-0.2,0.5-0.7,1.2-1.2,2c-1.1,0.8-1.7,1.3-2,1.6l0.4-1.2c-0.5,0.2-1,0.5-1.2,0.8c-0.8,0.8-1.3,1.3-1.6,1.6v-1.2
		c-0.5,0.5-1.4,1.1-2.7,1.6c-0.8,0.5-1.4,1-2,1.2v-4.4c0-1.6,0.2-2.7,0.8-3.3c-0.2,0.2-0.5,0.5-0.8,0.6c0.2-1.6,1.2-2.7,2.7-3.6
		h-1.6c1.1-0.8,1.7-1.2,2-1.2c-0.2-0.5-0.7-0.8-1.2-0.8c2.6-1.3,4.8-1.6,6.3-0.8C77.6,206.4,78.8,206.8,79.6,207.4L79.6,207.4z"/>
	<path d="M84.7,209.8c0.2,2.6-0.5,6.1-2.4,10.4c1.1-2.9,1.6-5.5,1.6-7.5v-3.2C84.3,209.3,84.5,209.4,84.7,209.8z M80,207.7
		c-3.2,1.1-6.3,3.8-9.6,8.4c2.4-4.5,5.4-7.4,9.2-8.7C79.8,207.4,80,207.5,80,207.7L80,207.7z M78.8,203v0.4c0,0.2-0.1,0.4-0.4,0.4
		c-0.5-0.2-1.3-0.7-2.4-1.2c-2.9-1.3-5.3-1.9-7.2-1.6c2.4-0.5,4.7-0.4,6.8,0.4C77,201.9,78.1,202.5,78.8,203z"/>
</g>
<path style="fill:none;stroke:#000000;stroke-miterlimit:10;" d="M220.5,436.3c1.8-7.3,5.9-14.5,12.2-18.6c1.3-0.4,2,1.3,3,1.9
	c0,6.6,0,13.1,0,19.7c0.2,0,0.8,0,1.1-0.1c3.3-3.3,6.7-6.6,10.2-9.8c0.4,0.4,0.6,0.7,1,1.1c-2.2,4.7-4.5,9.4-5.1,14.7
	c2.7,2.9,5.4,5.9,7.5,9.1c1.2,1.9,2.4,3.9,2.6,6.2c-0.1,1.6-0.7,3-1,4.4c3.7,3.7,7.5,7.3,11.2,11c1.9,1.7,3.5,3.7,4.9,5.9
	c0,0.2,0,0.7,0,1c-2.4,3.2-5.3,6.2-8.6,8.5c-2,1.3-4.3,2.5-6.8,2.3c-3.6-0.8-7.2-1.8-10.8-2.7c-2-0.5-4.2-1.3-6.3-1.1
	c-1.9,8.7-4.1,17.5-6,26.2c0.2,4.5,1.4,9.1,1.9,13.6c0,8.1-2.6,16.3-6.8,23.2c-0.6,1-1.4,1.9-1.3,3.2c0.1,3.2-0.6,6.7,1.2,9.7
	c3.3,6,8,11.2,12.6,16.4c5.3,5.3,10.8,10.4,14.8,16.6c1.4,2.2,2.5,5,1.3,7.5c-2.4,4.9-6.2,8.7-9.7,12.9c-1.8,3.6-3.6,7.2-5.5,10.6
	c-1.3,2.2-2.5,4.4-4.5,6.1c-2.4-1.3-4.7-3.1-6-5.6c-0.8-1.7-1.1-3.5-1.2-5.3c0.4-0.4,0.7-0.6,1.1-1c-0.7-0.7-1.4-1.3-2-2.2
	c0.2-2.5,2-4.5,3.6-6.3c1.7-2,3.7-3.6,5.5-5.5c1.4-2.2,2.6-4.5,4.1-6.8c-7.3-5.3-14.5-10.5-21.5-16c-2-1.6-3.9-3.2-6.1-4.8l0.2,0.1
	c-4.3-3.5-8.4-6.9-12.2-10.9c-0.7,0-1.3,0-2,0c-1.4,5-1.9,10.3-2.4,15.4c-1,11.5-1.3,23-1.7,34.4c-0.2,7.2,1.1,14.6,4.5,21
	c3,5.6,7.5,10.3,12.8,13.9c0.2,1.4-0.8,2.6-2,3.1c-4.1,1.7-8.6,2.2-13,2.7c-1.7-2.3-4.8-2.3-7.3-3c-1.7-6.9-3.2-14-4.9-20.9
	c-0.1-0.8-0.7-1.3-1.3-1.8c-1.3-1.3-2.6-2.5-3.9-3.8c0.6-2.4,1.2-4.7,1.8-7.1c0.4-1.2,0-2.5-0.1-3.7c-1.6-14.6-3.3-29.3-7.3-43.4
	c-0.5-2.3-1.8-4.4-1.6-6.9c-10.6-0.6-21.3-1.3-32-1.9c-2.4,0.2-4.7,1-6.9,1.6c-3.8,1.1-7.8,2.3-11,4.7c-1.4,1.1-2.6,2.6-2.9,4.4
	c-2.4,0.7-3.3,3.1-4.2,5.1c-1,2.2-1.2,4.5-2,6.8c-6.1,4.9-12.3,9.6-18.4,14.3c-2.3,1.6-3.9,3.8-5.6,6c-2.3,3.1-4.3,6.7-5,10.5
	c-1,6.8,1,14.1,5.5,19.2c1.6,1.9,3.5,3.5,5.4,5c0,1.2,0.1,2.7-1.1,3.5c-2,1.3-4.7,1.3-7.1,1.4c-3.2-0.1-6.7,0.5-9.6-1.4
	c-2.7-1.9-3.6-5.5-3.7-8.7c0-6.5,0-13,0-19.5c-0.2-3.9-0.7-7.8-1-11.7c-5,4.1-9.8,8.7-12.6,14.7c-1.2,2.5-1.8,5.3-1.7,8.1
	c0.1,3.5-0.4,6.9,0.7,10.3c1.6,5,4.9,9.3,8.4,13.3c0,0.8,0.1,1.7-0.1,2.5c-0.6,1-1.8,1.4-2.7,1.8c-3.3,1.1-6.8,1.3-10.3,1.6
	c-2.5-2.2-5.6-4.3-6.1-7.9c0.2-7.7,0.5-15.3,0.7-23c0-3.3,0.6-6.8-0.1-10.2c-0.6-3.5-1.1-6.9-1.7-10.3c3-3.5,6.1-6.9,9.1-10.4
	c1-1.1,2-2,2.6-3.3c3.2-6.7,4.7-14.1,5.6-21.5c0.7-5.9,1-11.8,1-17.8c0-0.7,0.1-1.4,0.5-2.2c1.9-3.6,3.7-7.2,5.6-10.9
	c-6.8,0-13.7-2-19-6.3c-6.3-5.1-10.3-12.7-12.8-20.3c-0.8-2.3-1.1-4.7-1.6-7.1c-0.4-2.3-0.8-4.5-1.1-6.9c-0.1-6.2,0.8-12.8,4.5-18
	c3-4.3,7.8-6.9,12.8-7.9c2.3-0.6,4.7-0.4,6.9-0.4c0.8,1,2.3,1.6,2,3c0,1.3,0.1,2.6-0.4,3.8c-2,5-3.9,10-5,15.3
	c-0.7,3.3-0.7,6.8-0.6,10.2c0.1,4.2,2.4,8,5.5,10.8c4.3,3.8,9.7,6.1,15.1,7.9c0.8,0.4,1.7,0.1,2.5,0c10.4-1.2,20.9-2.9,31-6
	c5-1.6,9.8-3.7,14.1-6.7c14.2-5.6,28.4-12.1,40.4-21.8c1.2-1.2,3-1.6,4.5-2.4c4.5-2.3,8.7-5.6,11.1-10.2c1.1-1.6,1.2-3.7,2.5-5
	c8.7-8.8,15.9-19.1,22-29.9c0.2-0.6,0.7-1,1.2-1.3C211,443.1,215.8,439.6,220.5,436.3L220.5,436.3z"/>
<path style="fill:none;stroke:#000000;stroke-miterlimit:10;" d="M599,477.6c2.4,7.3,1.9,15.5-1.6,22.2c-0.1-2.4-0.2-4.8-0.4-7.2
	c0-1.1-0.1-2.2-0.5-3.1c-0.7-1.9-2.6-3.2-4.3-4.4c-17.3-12.7-20-35.5-19.4-55.5c0.5-12.8-1.3-25.3-6.1-37.4
	c-0.4-0.8-0.8-1.7-1.6-2.9c-0.5,1-0.8,1.3-1,1.8c-3,11.2-5.3,22.7-5.9,34.4c-0.5,8.2-0.1,16.5-0.1,24.7c0,7.3,2.2,14.1,6,20.2
	c1.4,2.4,1.6,4.7,0.8,7.2c-0.7,2.2-1.2,4.4-1.3,6.6c-0.2,3.6-0.2,7.1-0.2,10.6c0,7.8-0.2,15.5,0,23.3c0.1,4.8,1.2,9.4,3.9,13.6
	c1.2,1.8,0.4,2.9-1.8,2.4c-1.7-0.5-2.4,0.2-2.4,1.8c0,1.3,0,2.7,0.5,4.1c1.6,4.2,0.2,7.3-4.2,7.8c-4.2,0.5-8.4,0.1-12.6-0.2
	c-2-0.1-2.4-1.6-1.6-3.3c0.6-1.2,1.4-2.2,2-3.3c1.6-3.5,3.6-6.9,4.5-10.6c2.5-9.9,2-20.1,1.8-30.2c0-1.2-0.7-2.4-1.2-3.7
	c-1.2-2.9-3-5.5-3.6-8.5c-1-4.8-2.4-9.4-4.4-13.9c-0.8-1.8-1.2-3.7-1.9-5.5c-0.5-1.2-1.1-2.3-1.7-3.5c-2.9,1.7-2.2,3.9-1.8,6
	c0.2,1.4,1,2.9,0.8,4.2c-0.5,7.1-1.3,14-1.6,21c-0.2,7.5-0.1,15.1,0,22.6c0,1.4,0.5,2.9,1.1,4.2c1.1,2.4-0.2,4.4-2.6,4.5
	c-0.7,0-1.7,0.5-1.9,1c-0.5,1.3-1,2.9-1,4.2c0,3.6-1.3,6.1-4.7,6.6c-4.1,0.5-8.1,0.1-12.3-0.1c-1.7-0.1-2.3-1.3-1-2.7
	c1-1.1,2-2.2,3-3.1c3.8-3.8,7.3-7.8,7.4-13.6c0-0.5,0.2-1,0.2-1.4c0.7-6,1.7-12.1,1.1-18c-0.5-5.1-2.2-8.7-1.6-14
	c0.4-3.7,0.6-7.3,0.8-11c0.1-1.6,0.5-3,0.6-4.5c0-1-0.8-4.4-0.5-5c-0.5,1-1.1,1.8-1.6,2.7c-1.6,2.6-3.2,5.5-5.7,7.3
	c-1.1,0.8-2.4,1.4-2.9,2.9c-0.2,0.7-0.1,1.6-0.1,2.4c0,2.6-0.5,5.4-1.6,7.8c-0.6,0.4-1.6,0-1.9-0.6c-0.4-0.6-0.4-1.4-0.4-2.2
	c0-2.4,0.1-4.8,0.1-7.3c-1.1,0.2-1.7,1.3-1.8,2.4c-0.1,1.1,0,2.2,0.1,3.1c0.1,1.6,0.1,3.1-0.1,4.7c-1.3,0.1-3,0-3.5-1.2
	c-0.2-0.4-0.2-0.8-0.2-1.3v-4.4c0-1,0-2-0.6-2.9c-0.5-0.8-1.8-1.2-2.5-0.5c-0.4,0.5-0.5,1.1-0.5,1.7c0,2.3,0,4.5,0,6.8
	c-1.1,0.2-2.6,0.4-3-0.7c-0.1-0.2-0.1-0.6-0.1-1v-7.2c-0.5-0.1-1,0-1.4,0.2c0,2.4-0.1,4.7-0.1,7.1c-0.7,0.8-2.3,0.2-2.6-0.8
	c-0.5-1.1-0.2-2.2-0.1-3.3c0-5.9-6.6-6.5-9.4-10.8c-1.6-2.4-2.4-4.4-6-2.9c-13.7,6.6-29.3,2.2-43.4-0.1c-6-1-12-1.7-17.2-5.4
	c-3.7-2.6-8.7-0.4-10,3.9c-2.3,7.3-4.3,14.6-6.5,21.9c-1.7,5.5-3.5,11.1-5.1,16.6c-0.8,2.9-2.2,5.7-2.4,8.6
	c-0.5,4.4-0.8,9.1-0.5,13.6c0.5,4.9,0,10,2.9,14.6c1.1,1.8,0.2,3.5-1.4,4.5c-0.6,0.4-1.6,0.2-2.3,0c-0.4-0.2-0.4-1.2-0.4-1.9
	c0-0.6,0.2-1.2,0.2-1.8c-1,0.2-1.6,0.8-1.9,1.3c-1.6,2.4-0.2,4.4,0.7,6.5c1.9,4.2-0.7,9.9-5.4,10.4c-5.3,0.5-10.5,0.2-15.7,0
	c-2-0.1-2.6-1.3-1.6-3.2c0.8-1.6,1.8-2.9,3.1-4.9c-2,0-3.7,0-5.3,0c-1.7,0-3.5,0-5-0.5c-2.3-0.5-2.7-1.9-1.3-3.7
	c1.1-1.4,2.4-2.6,3.7-3.8c2.3-2,5-3.5,6-6.6c0.7-2.3,1.6-4.5,2-6.8c1.2-5.3,2.4-10.4,3.3-15.7c0.7-4.2,0.6-8.1-1.2-12.3
	c-1.3-3.1-1.7-6.8-2-10.4c-0.5-5.3-0.4-10.5-0.6-15.8c0-0.8-0.8-2-1.6-2.3c-3.2-1.3-6-3.3-7.6-6.5c-2-3.8-3.9-7.9-5.7-11.7
	c-3.3-6.8-4.4-11.8-12.8-12.9c-1.3-0.1-2.5-0.2-3.7-0.6c-2.6-0.8-4.2-3.3-5.4-5.7c-2.7-5.9-3.7-12.3-4.5-18.6
	c-0.5-3.8-0.2-9.3-1.8-12.9c-1.7-3.7-5.5-6.7-7.4-10.4c-0.4-0.6-1.7-1.3-2.4-1.2c-4.5,1-9.1,0.2-13.5-0.2c-4.5-0.5-9-1.2-13-3.7
	c-0.8-0.5-2.4-0.7-3.2-0.2c-3.9,1.8-7.9,1.6-11.7,0c-1.6-0.7-3.1-1.3-4.8-1.7c-3.6-0.8-4.7-2.4-4.2-6c0.2-1.6,0.2-3.2-0.1-4.8
	c-0.5-2.6-0.1-3.9,2.2-5.3c1.1-0.6,2.4-1.2,3.3-1.9c5.7-4.3,9.4-10.4,13.9-15.8c0.6-0.8,1.1-2,1.1-3.1c0.1-2.2-0.1-4.4-0.1-6.6
	c0-2.7,0.8-5.3,3.1-6.8c5.7-3.8,5.5-3.9,5.9-11c0-0.8,0.1-1.7,0.5-2.3c0.7-1.1,2.2-1.3,3.5-1.3c5.5,0,9.2,5.1,12.3-0.8
	c0.7-1.3,3.5-2.4,5.1-2.3c4.5,0.5,8.1,2.7,10.4,6.9c0.6,1.2,1.8,2.3,3,3.1c1.7,1.2,3.7,2.2,5.5,3.1c1.7,1,3.2,1.1,5,0
	c2.9-1.9,5.7-3.9,8.8-5.5c4.2-2.3,8.6-3.1,13.3-1.1c2,0.8,2.6,2.5,2.2,4.5c-1.1,5-3.7,9.3-7.2,13c-2,2.2-4.5,3.3-7.6,2.9
	c-1-0.1-1.9-0.2-2.9-0.5c-1-0.1-1.8-0.4-2.7-0.5c8.4,6,17.2,5.1,25.8,1.9c3.8-1.4,7.6-2,11.4-1.7c9.1,0.8,18,2.3,27.1,3.5
	c6.7,0.8,13.5,1.8,20.2,2.6c7.1,1,14.1,2.3,21.2,2.7c7.1,0.5,13.9,0.5,20.7,1.9c4.2,0.8,7.9,0.5,12.1,0.4c4.3-0.1,8.8,1.1,13,1.9
	c8.6,1.8,17.5,4.1,26.4,2.9c5.6-0.7,12.2-3.6,17.7-1.1c4.9,2.2,10.3,4.9,14.9,7.6c3.1,1.9,5.7,4.4,6.3,8.4c0.4,2.4,1.3,4.7,2.2,6.9
	c1.3,3.5,3.1,6.8,4.3,10.3c3.3,9.8,3.8,20,3.9,30.2c0,4.1-0.2,8.1,0.1,12.1c0.7,10.6,2.5,16.9,10.2,24.1c3,2.7,6,5.5,8.5,8.7
	C596.8,472.4,598.1,474.9,599,477.6L599,477.6z"/>
</svg>
