<?xml version="1.0" encoding="utf-8"?>
<!-- Generator: Adobe Illustrator 17.0.0, SVG Export Plug-In . SVG Version: 6.00 Build 0)  -->
<!DOCTYPE svg PUBLIC "-//W3C//DTD SVG 1.1//EN" "http://www.w3.org/Graphics/SVG/1.1/DTD/svg11.dtd" [
	<!ENTITY ns_flows "http://ns.adobe.com/Flows/1.0/">
	<!ENTITY ns_extend "http://ns.adobe.com/Extensibility/1.0/">
	<!ENTITY ns_ai "http://ns.adobe.com/AdobeIllustrator/10.0/">
	<!ENTITY ns_graphs "http://ns.adobe.com/Graphs/1.0/">
]>
<svg version="1.1" id="Layer_1" xmlns:x="&ns_extend;" xmlns:i="&ns_ai;" xmlns:graph="&ns_graphs;"
	 xmlns="http://www.w3.org/2000/svg" xmlns:xlink="http://www.w3.org/1999/xlink" xmlns:a="http://ns.adobe.com/AdobeSVGViewerExtensions/3.0/"
	 x="0px" y="0px" width="612px" height="792px" viewBox="0 0 612 792" style="enable-background:new 0 0 612 792;"
	 xml:space="preserve">
<g id="layer1">
	<g>
		<path style="fill:none;stroke:#000000;stroke-miterlimit:10;" d="M186.6,645.9l4.3,7.1c1.2,2.7,1.6,4.4,1,4.9
			c-3.2,1.1-5.6,2.5-6.9,4.2l-0.4-6l1.7-9.2 M37.8,328.8c-1.7-0.2-3.2,0.1-4.5,1.2c-1.8,2-3.2,5.6-4.3,10.8c-4.2,0-6.6,0.4-7.1,1.2
			l-2.2,5.6l1.8,3l4.7,0.5c-3.3,1.1-3.3,3.2-0.1,6.3l14.2-1.3l10.6,1.7c4.8,3.2,7.5,7.8,8.2,13.6l0.6,12.2l-2.3,19l-4.9,21.5
			L50.7,435L46.4,461c-0.6,4.4-1.1,10.9-1.3,19.1l0.5,13l3.5,22.4l6.1,20.7l3.5,7.5l11.6,19.1l1.8,8.2l-1.4,8.1l-0.2,25.1L65,625.3
			l-6.7,16.3l-1.8,9.7l-2.7,6.6l-4.9,1.3c-2.9,2.5-4.3,4.8-4.3,6.9l5.4,1.4l17.9-0.8c0.8,0,1.4-0.2,1.8-0.7l3.7,0.7l2.3-0.8l0.5-9.4
			l2.6-10.5l10.5-31.4l4.4-6.8l5.6-14.5c0.1-0.7,0.7-1,1.9-0.6c2.9,1,4.1,1.7,3.6,2.3l3.6,11.2l-0.1,9.7l-1.8,14.3l-4.9,28.2
			c-0.6,0.2-0.8,1-1,2.2c-3.7,1-6.6,2.7-8.8,5.5l-1.4,3.3c-0.4,0.6,0.5,1.3,2.6,1.9l5.7,1.1l18-0.4c3.2-0.1,4.9-1,5-2.3l2.7-24.7
			l5.7-21.4c1.1-7.7,1.2-11.2,0.4-10.9l2-11.4l13.9,3.2l16.7,0.1l3.3-0.8l0.6,0.6l2,11.6l-1.3,21.8l-2.3,11.4c0.6,1.3,0.7,3,0.6,4.8
			l-3,6.5l-6.5,3.1c-2.2,1.8-3.3,3.3-3.3,4.7c0.4,1.1,0.8,1.7,1.6,2c4.1,0,6.7,0.2,8,0.8l19.2-1.1c1.3-0.5,2.2-2.2,2.6-4.9
			c1.9,1.6,4.2,2,6.7,1.7l19.1-1.1l1.9-1.1c0.6-1.7,0.5-3.3-0.5-4.8l-4.2-8.4l-1.8-8.4l-2.6-5l-1.8-11.8l-6.9-10.8l2.9-4.4l6.3-6.5
			l10.9-1.9l6.2-2.5l8.7-0.8l34.5,6l36.9,2.7l21,3.1l10.6-0.1c1.6-1.3,2.2-2.4,1.8-3c-1-1.3-2.3-2.3-3.8-3l-13.1-5.1l-38.1-10.5
			l-23.5-8.8c-17.2-11.1-31.1-21.6-41.6-31.4l-34.7-18.8l-23.5-9.8l-17.8-8.7l-28.8-5.7l-14.5,0.6l-8.2-0.8l-4.9-3
			c-2.3-2.4-4.5-6.6-6.7-12.4l-2.7-18.8l7.4-81.5c0.6-14.3,0-24.4-1.8-30c-2.5-9-7.1-15.7-13.7-20.1c-4.5-2.9-8-5.4-10.3-7.5
			l-2.6-0.6c-2,0-4.8-0.7-8.2-2.2c-1.3-0.7-2.9-1.1-4.7-1L37.8,328.8L37.8,328.8L37.8,328.8L37.8,328.8z"/>
	</g>
</g>
<path style="fill:none;stroke:#000000;stroke-miterlimit:10;" d="M216.1,319c0,0,1.6,8,1.8,12.1c0.5,7.3-2,16.7-0.6,21.8
	c1.4,5,2.7,9.3,2.7,9.3c0.4,1.1,1,0,2.4,2.2c1.4,2.2,2.5,7.6,3.9,11.5c0,0,0.5,3,1.6,3.9c1.8,1.7,7.3,2.2,7.3,2.2l4.8,2.2l16.3,1.2
	c1.4,0.1,2.5,1.4,3.9,1.8c2.3,0.6,6.9,0.4,6.9,0.4c1.3,0,2.2,2.4,3.3,1.8c1.3-0.6-0.5-3.3,0.6-4.2c3.5-3,10,3.1,13.6,0.4
	c0.7-0.5,0.8-1.6,0.6-2.4c0,0-2.3-3.6-1.2-4.8c2.3-2.9,11.4,3.9,10.9,0.4c0,0-0.1-3.2-0.6-4.8c-0.6-1.9-3.8-3.8-2.7-5.4
	c1-1.4,4.2,2,5.1,0.6c1.4-2-3.3-6.7-3.3-6.7l-2.4-3.6l15.4,1.2c0.7,0,0.8-1.3,1-2.2c0.1-0.6-0.4-1.8-0.4-1.8
	c-0.5-2.6,6.1,3.2,7.9,2.2c1.7-1.2,0.8-2.9,0.6-4.2c-0.1-0.8-1.7-1.4-1.2-2.2c1.2-1.9,5.3,2.3,6.9,0.6l1.2-1.2l-3-5.4l1.8-0.4
	l-1.2-1.8c0,0-13.6-7.3-17.5-13.6c-0.7-1.2-1-4.2-1-4.2c-0.7-3.2-1.6-6.5-1.6-9.7c0.1-3.3,2.2-9.7,2.2-9.7s9.6-1.4,14.2-3
	c3-1,8.5-3.9,8.5-3.9s-1.8,8.1-2.2,9.9s0,8.7,1,13c0.8,3.8,2.3,7.6,3.9,11.1c1.4,3.1,5.4,8.7,5.4,8.7l4.2,14.5
	c1.1,3.7,3.7,6.7,5.1,10.3c1.3,3.1,3,9.7,3,9.7c0.8,2.6-0.2,5.6,1,8.1c0.6,1.3,3,3.3,3,3.3c1.7,1.8,4.7,1.9,6.9,2.7
	c2.2,0.7,4.2,1.7,6.3,2.2c2.7,0.6,8.5,1,8.5,1c2,0.2,3.7,1.6,5.7,1.8c1.8,0.2,5.4,0,5.4,0c0.7,0,1.6-0.5,1.8-1.2
	c0.6-1.6-2.5-3.5-1.6-4.8c0.6-0.8,4.9,0.4,7.3,1.2c1.6,0.6,2.6,2.6,4.2,2.4c1.4-0.1,4.2-1.8,3.3-3c0,0-1.1-0.7-1-1.2
	c0.1-0.7,3.2,1.2,4.8,1.2c1.1,0,2.5,0.2,3-0.6c0.7-1.2-2.6-3.7-1.2-4.2c0,0,3.7-0.5,4.8-1.8c0.6-0.7,1-1.8,0.6-2.7
	c0,0-0.8-2.2-1.2-3.3c-0.2-1,0.1-2.3-0.6-3l-3-3.3c-2.6-3-7.1-3.9-9.9-6.7c-0.8-0.8-1.4-1.8-2.2-2.7c-1.3-1.9-3.3-6.1-3.3-6.1
	c-1.2-2.2-0.4-4.9-1.2-7.3c-1-2.7-4.2-7.5-4.2-7.5c-2.2-3.7-5-7.1-6.3-11.1c-1.6-4.7-1.8-14.8-1.8-14.8c0.2-2.5,6.1-7.9,10.5-9.1
	c3.5-1,10.5,2.2,10.5,2.2c3.2,0.6,6.8-1.6,9.9-0.6c2.6,0.7,6.7,4.8,6.7,4.8c1.6,1.1,3.6,1.9,5.4,1.8c3.3-0.2,6.8-5,9.1-4.2
	c1.3,0.5,0.1,6,1,8.7c1,3.3,4.8,9.3,4.8,9.3l3.9,4.5c1.2,1.4,0.4,3.7,1,5.4c0.7,2.2,3,6.1,3,6.1c1.1,2.3,2.7,4.2,3.3,6.7
	c1.6,6.1,0.6,18.8,0.6,18.8c0,1.2-0.5,2.5,0,3.6c1.1,2.3,6.1,4.8,6.1,4.8c3.5,2.7,8.4,2.5,12.7,3.3c4.7,0.8,14.2,1.6,14.2,1.6
	s3.6,0.7,5.4,1c0.7,0,2.2,0,2.2,0c1,0,0-1.8,0-2.7v-2.2c0-1.9,3.6,1.7,5.4,1.8c1.7,0.1,5.1-0.6,5.1-0.6c1-0.1,0.1-2.2,1-2.7
	c1.4-1,5.1,0.4,5.1,0.4s3,0.8,3.9,0c0.6-0.6-0.5-2.3,0.4-2.4l4.8-0.6c1.3-0.1-0.6-2.4-1.8-3.6s-5.6-5-8.5-7.5
	c-2.7-2.4-5.6-2.5-8.1-6.9c-2.5-4.4-2-13.4-3.6-20c-1.7-6.7-4.5-13-6.3-19.6c-1-3.5-2.4-10.5-2.4-10.5c-1-4.2,2.7-8.2,3.9-12.4
	c1.1-3.6,1.4-7.4,2.7-10.9l3-8.1c0.8-2.3,4.4-2.2,6.7-3c3-1.1,6.3-1.1,9.1-2.7c2.9-1.7,4.2-5.5,7.3-6.9c2.6-1.2,5.9-0.2,8.7-1
	c3.3-0.8,9.7-3.6,9.7-3.6c4.8-1.8,8.8-5,13.6-6.9c3.3-1.4,10.3-3.3,10.3-3.3c4.8-1.6,10-1.7,14.8-3.3c3.3-1.2,9.7-4.8,9.7-4.8
	c3.8-1.9,7.4-4.7,10.3-7.9c2.4-2.2,2.5-7.2,5.1-7.9c1-0.2,0.4,3,0.4,3s2.7-1.3,3.9-2.4c2.7-2.6,6.7-9.3,6.7-9.3
	c1.8-2.5,2.7-7.5,2.4-8.7s0.7-7.6-1.2-10.5l-4.5-6.9c-2.3-3.5-5.9-6.2-9.3-8.5c-2.2-1.4-7.3-3-7.3-3c-3.1-1.3-3.1-6-5.4-8.5
	c-3.2-3.5-11.1-8.5-11.1-8.5s-2.4,6.1-4.5,8.5c-2.4,2.7-9.1,6.3-9.1,6.3l-4.8-1.2l-8.7-3l9.1-7.9c0,0,8.8-5.7,13.3-8.7
	c3.9-2.6,7.9-5.4,11.7-8.1c0,0,7.3-4.9,10.9-7.5c1.8-1.3,3.9-2.5,5.4-4.2l5.4-6.1l2.2-2.6l1.6-2.7l-1-1.8h-3.6c0,0-6.5,4.5-9.9,6.3
	c-3.7,1.9-7.5,3.3-11.5,4.5c-3.2,1.1-8.5,2.4-9.9,2.4c-1.6,0-20.2,6.9-20.2,6.9l-10.3,6.1l11.5-10.9l13.9-9.7l9.3-7.5l7.9-9.3
	l6.9-8.5l1-3.3l-1.6-1.2l-2.7,2.2c0,0-9,6.3-13.9,8.7c-4.2,2.2-13.3,5.1-13.3,5.1c-6,2.3-11.5,5.6-17.2,8.5
	c-5.5,2.7-11.4,4.8-16.3,8.5c0,0-8.6,6.1-12.7,9.3c-3.3,2.6-7.4,4.8-9.7,8.5l-3.6,5.7h-10.3l-11.7-6.9l-14.5-9.9c0,0-6-6.9-9.9-8.7
	c-7.2-2.6-12.7,0.6-18.8,4.2c-3.1,1.7-8.7,6.1-8.7,6.1c-2.6,1.8-5.1,3.7-6.9,6.3c-1.2,1.7-2.2,5.7-2.2,5.7s-15.7-7.1-23.5-10.5
	c-13.9-6.2-28.2-10.8-42.6-15.4c-28-9-59.8-7.2-85.1,7.9c-21.2,12.6-45.4,31.9-55,45.3c-8.2,11.6-15.3,24.4-21.2,37.4
	c-3.5,7.6-6.5,15.7-8.1,23.9c0,0-3.3,17.3-5.4,25.9c-1.4,6.2-3.2,12.3-4.8,18.4c0,0-2.7,11.7-4.5,17.5c-1.4,4.7-2.6,9.7-5.1,13.9
	c-1.9,3.2-4.7,6-7.5,8.5c-2.6,2.3-5.5,4.5-8.7,5.7c0,0-5.1,2.2-7.9,2.7c-2.4,0.5-4.8,0.5-7.3,0.4c0,0-3.5,0-5.1-0.4
	c-9.4-1.8-15.7-15.4-22.9-14.5c-2.7,0.4-0.6,9.8,1.8,12.7l13,16c2.3,2.7,5.7,4.4,8.7,6.3c3.6,2.2,7.2,4.5,11.1,5.7
	c0,0,8.4,3,12.7,3.6c3.2,0.5,6.7,0.6,9.9,0.4c3.8-0.2,7.8-1,11.5-2.2c4.3-1.3,8.5-3,12.4-5.1c0,0,8.1-3.8,11.7-6.3
	c4.3-2.9,8.5-6.2,12.1-9.9c3-3.2,5.5-7.4,7.9-10.5S216.1,319,216.1,319L216.1,319z"/>
</svg>
