<?xml version="1.0" encoding="utf-8"?>
<!-- Generator: Adobe Illustrator 17.0.0, SVG Export Plug-In . SVG Version: 6.00 Build 0)  -->
<!DOCTYPE svg PUBLIC "-//W3C//DTD SVG 1.1//EN" "http://www.w3.org/Graphics/SVG/1.1/DTD/svg11.dtd" [
	<!ENTITY ns_flows "http://ns.adobe.com/Flows/1.0/">
	<!ENTITY ns_extend "http://ns.adobe.com/Extensibility/1.0/">
	<!ENTITY ns_ai "http://ns.adobe.com/AdobeIllustrator/10.0/">
	<!ENTITY ns_graphs "http://ns.adobe.com/Graphs/1.0/">
]>
<svg version="1.1" id="Layer_1" xmlns:x="&ns_extend;" xmlns:i="&ns_ai;" xmlns:graph="&ns_graphs;"
	 xmlns="http://www.w3.org/2000/svg" xmlns:xlink="http://www.w3.org/1999/xlink" xmlns:a="http://ns.adobe.com/AdobeSVGViewerExtensions/3.0/"
	 x="0px" y="0px" width="612px" height="792px" viewBox="0 0 612 792" style="enable-background:new 0 0 612 792;"
	 xml:space="preserve">
<path style="fill:none;stroke:#000000;stroke-miterlimit:10;" d="M55.5,327.7c0,0-6-8.6,5-9c10.9-0.4,27.5,0.4,30.5-2
	c3-2.3,16.3-15.2,29.8-17.6c13.6-2.3,32.2-1,38.7-2.3c5.9-1.2,28.6-11.2,42.3-11.4c1.6,0,2.2,2,1,2.9c-6.7,4.4-20,14-20.4,19.7
	c0,0,29.8-13.3,34.1-9l-24.9,25.2c0,0,9.6,6.5,24.5,8c0,0,18.4-1.7,26.1,1c7.7,2.6,46.4,15.5,60,15.2c13.6-0.4,14.1,0.7,39.4-6.3
	c0,0,18.5-4.7,31.8,1.3s36.5,18.2,69.6,0.7c33.1-17.5,56.7-26.2,106.3-95.6c0,0,10.3,43.4-11.6,65.5c0,0,5,3.3,16.5-9.6
	c0,0-12.6,36.1-27.9,43.4c0,0,11.6,3,23.2-6c0,0-20.6,25.5-46.4,30.8c0,0,13.3,4.7,23.8-2c0,0-20.9,21.9-55.6,18.2
	c0,0,5.3,7.3,13.6,8.2c0,0-24.1,8.1-68.3-13.9c0,0-24.9,1-16.3,31.1c7.2,25.2,17.1,44.9,33.3,57.9c5.7,4.5,7.9,12.3,5.1,19.1
	c-6.1,15.2-14.6,40-9.7,47.9l-34.1,3.6c0,0-6,0.7-7.6-4.7c-1.7-5.3,1.7-19.2,18.2-17.6c0,0,10.6-25.8,8.6-29.2c-2-3.3-13.3-6-13.3-6
	s3.6,3.3,3.3,5.3c-0.4,2,1.3,3-0.7,5.3s-34.4,30.1-39.7,44.7l-35.4,2c0,0-2.3-7.3-1-11.6c1.3-4.3,6.3-12,20.9-10.9
	c14.6,1,18.2-25.2,18.5-30.5s-8.6-34.4-14.6-38.1c-6-3.6-56.7-51.3-119.9-8.2c0,0,10.4,23.5,21.2,33.1c0,0,2.3,0.7,3.3,7.9
	c1,7.3,3,17.6,6,21.5s-15.5,22.5-15.5,22.5l-24.5,2c0,0-10.6-16.3,10.6-16.3c0,0,10.3-3.3,6.9-13.6S211,463.5,211,463.5
	s-47.6,24.1-55.3,52.4c0,0-3.3,4.3-9.3,6.9s-6,7.6-6,7.6l-36.1-1c0,0-9.6-18.2,20.2-18.2c0,0,48.6-52.6,50.3-57.3s8.6-21.9,5.3-26.2
	s-12.9-14.9-17.9-33.5s-68.8-39.1-68.8-39.1s-21.5-2.6-20.9-11.2C72.7,344.4,54.1,341.7,55.5,327.7L55.5,327.7z"/>
<path style="fill:none;stroke:#000000;stroke-miterlimit:10;" d="M68.4,318.8l-11.5,0.8l-3,2.6l0.4,3.2l1.2,2.3l1.4,0.5
	c0,0,8.4,1.3,11.5-7.3L68.4,318.8"/>
<path style="fill:none;stroke:#000000;stroke-miterlimit:10;" d="M401.1,485.8c0,0-24.9-33.1-1.7-60.2c0,0,4.7-1.3,1-10.9"/>
<path style="fill:none;stroke:#000000;stroke-miterlimit:10;" d="M211.1,463.9c-6-3-30.8-35.7-30.8-35.7"/>
<path style="fill:none;stroke:#000000;stroke-miterlimit:10;" d="M221.4,381.1c0,0,9,12.3,5.6,30.1c-3.3,17.9,5.6,32.4,5.6,32.4"/>
<path style="fill:none;stroke:#000000;stroke-miterlimit:10;" d="M182.9,308.3c0,0-12.9,27.7-32.8,22.2"/>
<path style="fill:none;stroke:#000000;stroke-miterlimit:10;" d="M108.1,314.7c-2.5,1.4-4.1,3.9-3.7,6.9s2.3,4.4,3.1,4.8
	c7.4,3,15.8-3.1,17.1-4.1C119.5,316,110.8,313.2,108.1,314.7L108.1,314.7z"/>
<path style="fill:none;stroke:#000000;stroke-miterlimit:10;" d="M93.6,355.8c53.9,16.3,67.4,35.7,67.4,35.7s11,30.7,20,38
	c1.8,1.4,1.9-48.3,1.9-48.3c-2.5-26.8-26.5-31.6-39.8-32.6c-9-0.7-27.5-5.3-33.9-4.1c-9.3,1.7-16.5,1.9-16.5,1.9l-19.8-1.9
	C72.8,344.6,71.7,353.2,93.6,355.8"/>
<path style="fill:none;stroke:#000000;stroke-miterlimit:10;" d="M109.1,344.4c-12,4.3-36.5,0-36.5,0"/>
<path style="fill:none;stroke:#000000;stroke-miterlimit:10;" d="M327.4,396.8c0,0,2.3,22.2,25,55.1"/>
<path style="fill:none;stroke:#000000;stroke-miterlimit:10;" d="M107.1,317.7c0,0-0.2-1.7,1.4-2c0,0,0.5-0.1,0.5,0.4
	s-0.8,0.6-1,1.1C107.9,317.7,107.7,318.2,107.1,317.7L107.1,317.7z"/>
</svg>
