<?xml version="1.0" encoding="utf-8"?>
<!-- Generator: Adobe Illustrator 17.0.0, SVG Export Plug-In . SVG Version: 6.00 Build 0)  -->
<!DOCTYPE svg PUBLIC "-//W3C//DTD SVG 1.1//EN" "http://www.w3.org/Graphics/SVG/1.1/DTD/svg11.dtd" [
	<!ENTITY ns_flows "http://ns.adobe.com/Flows/1.0/">
	<!ENTITY ns_extend "http://ns.adobe.com/Extensibility/1.0/">
	<!ENTITY ns_ai "http://ns.adobe.com/AdobeIllustrator/10.0/">
	<!ENTITY ns_graphs "http://ns.adobe.com/Graphs/1.0/">
]>
<svg version="1.1" id="Layer_1" xmlns:x="&ns_extend;" xmlns:i="&ns_ai;" xmlns:graph="&ns_graphs;"
	 xmlns="http://www.w3.org/2000/svg" xmlns:xlink="http://www.w3.org/1999/xlink" xmlns:a="http://ns.adobe.com/AdobeSVGViewerExtensions/3.0/"
	 x="0px" y="0px" width="612px" height="792px" viewBox="0 0 612 792" style="enable-background:new 0 0 612 792;"
	 xml:space="preserve">
<path style="fill:none;stroke:#000000;stroke-width:2;stroke-miterlimit:10;" d="M609.9,333c8.5,5.1,13.8,12.8,17.1,22
	c0,3.3,0,6.7,0,10c-5.1,15.3-18.1,22.1-31.1,29c-10,5.3-19.9,10.6-29.8,15.9c-12.8-4.9-23.4-12.5-30.1-24.8c1.7-1,2.8-2.7,4.1-4.2
	c8.3-9.3,15.9-19.2,24.9-27.9c0.3,0,0.7,0,1-0.1c6,2.9,12.1,3.7,18.8,1.7c-8.9-6.3-9.2-6.7-10.3-11.2c1.2,0.5,2.4,1,3.6,1.5
	c0.2,0.2,0.5,0.4,0.9,0.3l-0.1-0.1c0.7,0.4,1.4,0.7,2.1,1.1l-0.1-0.1c4.2,1.6,8.3,3.8,12.7,4.6c5.5,1.1,13.3-4.8,16.2-11.1
	c-3.2-2.2-8.2-0.1-10.8-4.8C602.9,334.2,606.4,333.6,609.9,333z"/>
<path style="fill:none;stroke:#000000;stroke-width:2;stroke-miterlimit:10;" d="M66,170.9c-1.8-2.6-4.2-0.7-6.3-0.7
	c-1.7,0-3.3,1.3-5.7,0.6c8.7-5.5,16.4-11.7,25.5-15.8c12.7-5.7,25.5-4.7,38.4-0.9c6.2,1.9,7,1.1,6-5.3c-0.6-3.9-1.2-7.9-1.8-11.8
	c0.7,0,1.3,0,2,0c6,3.1,11.9,6.3,16.9,10.9c6.5,5.9,6.7,6,13.6,0.8c6.3-4.8,13.8-7.7,20.5-11.8c2.3,0,4.7,0,7,0
	c0.8,2.7-1.8,3.4-2.9,5c-2.4,3.4-4.8,6.8-5.8,10.9c-0.8,3.3,0.3,4.5,3.6,3.2c6.1-2.3,12.2-4.4,18.6-5.7c11.6-2.3,23.1-2.5,34.4,1.6
	c-1.3,0.8-2.7,1.1-4.3,0.7c-11.7-2.9-23.2-2.1-34.8,1c-7.6,2-14.9,6.4-23.3,3.3c-0.8-0.3-2,0.1-2.9,0.3"/>
<path style="fill:none;stroke:#000000;stroke-width:2;stroke-miterlimit:10;" d="M-13,351c2.7-4.9,3.8-10.6,7.6-15
	c6.9-8.2,15.6-12.1,26.4-11c4.1,3.5,7.9,7.4,13.4,8.7c1.4,0.3,2.9,0.7,3.6,2.2c0.2,3-0.9,5.4-3,7.6c-11.5,11.3-21.7,24-34,34.5
	c-7.8-2.6-10.8-9.4-14-16C-13,358.3-13,354.7-13,351z"/>
<path style="fill:none;stroke:#000000;stroke-width:2;stroke-miterlimit:10;" d="M193,657c-1.9-2.3-5-2.2-7.4-3.5
	c-8.5-4.7-10.7-11.6-6.3-20.5c2.5-0.7,5.9,1.8,7.7-1.8c1,0,2-0.1,3-0.1c4.7,1,9.5,2.7,14-0.9c0.7,0,1.4-0.1,2-0.1
	c4.7,1,9.5,2.7,14-0.9c0.7,0,1.4-0.1,2-0.1c0.9,1.5,2.4,0.8,3.6,0.9c3.9,11.7-0.4,20.7-11.9,25c-1.6,0.6-3.7,0.3-4.8,2
	C203.7,657,198.3,657,193,657z"/>
<path style="fill:none;stroke:#000000;stroke-width:2;stroke-miterlimit:10;" d="M175,137c-6.7,4.1-14.2,6.9-20.5,11.8
	c-6.8,5.2-7,5.1-13.6-0.8c-5.1-4.6-10.9-7.9-16.9-10.9C141,137,158,137,175,137z"/>
<path style="fill:none;stroke:#000000;stroke-width:2;stroke-miterlimit:10;" d="M537,424.9c-4.9,1.9-9.8,4.1-15,5.3
	c-4.2,1-5.7,3-4.4,7.9c4.3,15.4,8,31,11.9,46.6c0.7,2.6,0.5,5.3-0.1,7.9c-2.3-1.1-4.3,0.4-6.5,0.8c-2-0.7-3.1,3.2-5.5,1.1
	c-3.5,0.6-7,1.1-10.6,1.7c-1,0.1-2,0.2-3,0.2c-5.4,0.1-10.8,0.4-16.1,1.6c-2,0.5-4.2-0.5-6,1c-5.4-0.1-10.9-0.2-16.3-0.2
	c-5.2-0.1-10.4,1.1-15.5-0.5c-1.4,0-2.7-0.1-4.1-0.1c-3.6-0.4-7.3-0.7-10.9-1.1c-0.7,0-1.4,0-2.1,0c-4.3-0.6-8.6-1.1-13-1.7
	c-0.7-0.1-1.4-0.2-2.1-0.2c-4-0.6-7.9-1.2-11.9-1.7c-1-0.1-2-0.2-3-0.4c-3-0.5-5.9-1.1-8.9-1.6c-1-0.1-2-0.3-3.1-0.4
	c-3.3-0.6-6.6-1.2-9.8-1.8c-7.8-6-8.5-7.1-5.3-17.1c3.3-10.5,3.8-21.4,5.1-32.2c0.5-3.9,0.2-7.6-4-9.6c-0.6-15.4-1.3-30.9-1.9-46.3
	c0.3,0,0.7,0.1,1,0.1c9.1,7.9,19.8,12.9,31,16.9c18.9,7,38.4,7.8,58.1,4.4c12.8-2.2,24.9-6.3,35.9-13.4c5.3-3.3,10.7-6.7,16-10
	c4.8,0,9.6-0.1,14.4-0.1c2.2,3.7,4.5,7.4,6.7,11.1c-1.7,1.4-1,3.3-1.1,5.1C536.9,407,539.2,415.9,537,424.9z M452.3,471.1
	c-0.9,3.8,0.1,7.2,0.5,10.7c0.4,3.7,4,4.7,7.3,3.1c4.5-2.2,1.9-5.5,1.8-8.2c-0.7-13.6-1.9-27.1-2.7-40.7c-0.2-3.4-1.8-4.4-4.8-4
	c-3.1,0.4-3.4,2.7-3.4,5.1C451.1,448.6,450.4,460,452.3,471.1z M486.1,452c0.5,5.5,2.7,11.4,6.8,16.4c2.7,3.3,6.4,4,9.7,1.2
	c6.6-5.7,11.2-12.7,11.4-21.8c0.1-5.2-2.6-7.6-7.8-7.4c-3,0.1-6,0.5-9,0.3C489.4,440,486,443.1,486.1,452z"/>
<path style="fill:none;stroke:#000000;stroke-width:2;stroke-miterlimit:10;" d="M88.9,571.3c-3.7-1.5-5-4.5-5.1-8.3
	c-0.1-4.4,0.7-8.6,1.8-12.8c3.2-12,6.6-24,8.5-36.3c5.6,1.7,11.3,3.5,16.9,5.2c1.6,0.5,3.3,1.8,5,0c10.7,2.2,21.3,4.9,32.2,6.1
	c2.6,3.3,5.8,1.9,8.8,0.9c0.7,0,1.4,0.1,2.2,0.1c0.2,1.9,1.6,1.8,3,1.8c9,0,17.9,0,26.9,0c1.4,0,2.7,0,3-1.8c0.7,0,1.4,0,2.2,0
	c3.7,2.2,12.1,1.1,14.8-2c0.7-0.4,1.4-0.9,2.1-1.3c5.3,0.1,10.6,0.2,15.9,0.3c2.8,4.2,2.6,9.2,3.2,13.9c1.2,8.5,3.2,16.8,5.1,25.2
	c2.3,9.9,1.7,10.7-8.3,13.4c-6.4,0.5-12.8,1.1-19.1,1.5c-10.2,0.7-20.5,1.3-30.7,1.9c-5.8,0.1-9.2-2.1-10.4-8.2
	c-0.9-4.8-3.3-9.3-4.6-14.1c-0.9-3.6-2.3-3.3-4.2-1.1c-4.4,5-8.6,10.1-12.8,15.3c-2.1,2.6-4.2,5.3-7.9,5.4
	c-6.4-0.4-12.9-0.7-19.3-1.4C108.1,573.9,98.2,575.1,88.9,571.3z"/>
<path style="fill:none;stroke:#000000;stroke-width:2;stroke-miterlimit:10;" d="M523.1,493.2c2.1-0.4,4.1-1.9,6.5-0.8
	c1.4,11.4,2.9,22.7,4.1,34.1c1.4,12.6,3.6,25.1,5.9,37.6c0.9,4.8-1.2,7.2-6.5,7.6c-2.3,0.1-4.6,0-7,0.1c0.2-0.2,0.2-0.4,0.1-0.6
	c0-0.2-0.1-0.4-0.2-0.6c-8.6-1.5-17.3-0.3-25.9-0.6c-2.5-0.1-5.1-0.3-7,1.9c-0.7,0-1.4,0-2.1,0.1c-4.9-1.7-10-0.9-15-0.9
	c-1.8-0.3-3.7-0.4-5.3-1.1c-10.5-4-20.5-0.6-30.5,2c-5.7-0.5-11.6,0.8-17.1-1.4c-0.2-2.1-2.2-1.9-3.4-2.3
	c-9.3-2.7-18.7-0.9-28.1-0.3c-1,0.1-1.2,1-1.4,1.8c-3,0-6,0.3-9-0.1c-7.7-0.9-10.8-4.3-10.1-12c0.7-8.6,2.1-17.2,3.1-25.8
	c1.8-14.4,3.2-28.8,7.1-42.8c3.3,0.6,6.6,1.2,9.8,1.8c-2.3,1.1-3,2.8-3.1,5.4c-0.2,5.4-0.8,10.8-1.7,16.2c-1.2,7.5-0.8,8.2,6.8,8.4
	c0,6.3,0,12.7,0,19c0,2.3,1.1,3.6,3.2,3.7c2.4,0.1,1.9-2,1.8-3.3c-0.5-3.9,1.4-7.5,1.1-11.4c2.7,0,5.3-1.6,8.1-0.9
	c0.3,1.9,1.1,3.9,0.8,5.8c-0.8,5.9,1.4,8,7.1,6.1c-0.9,5.1,2.2,5.3,5.9,5c4.3-0.1,7.8-1.1,7.5-6.6c-0.1-0.8,0.4-1.6,0.6-2.4
	c1.7,0,3.3,0,5,0c0,0.8,0.2,1.7,0,2.5c-0.9,4.3,2.5,6,5.2,6.1c3.2,0,1.2-3.6,1.8-5.6c2.8-1.6,5.8-2,8.9-1c0.7,1.8-1.4,5.3,1.5,5.3
	c2.6,0,6.7-0.4,5.7-5.8c-0.8-4.3-0.2-8.9-0.2-13.4c2,0,4,0,6-0.1c-0.5,3.1,0.9,3.6,3.7,3.5c4-0.1,1.5-3,2.3-4.5c2.7,0,5.2-1.6,8-0.9
	c0.6,5.5,1.2,11,2,16.5c0.2,1.3-0.7,4.3,1.4,3.4c1.8-0.7,6.7,1.2,5.6-4c3.3-1.6,6.6-0.6,9.9,0c0,1.8,0,3.6,0.1,5.4
	c0.3,5,5.5,0,6.7,3.2c2-0.8,1.4-2.6,1.1-3.8c-1.5-5.5-0.5-11.1-0.9-16.7c1.1-4,3.2-4.9,6.6-2.4c0.4,0.3,1,0.2,1.4,0.3
	c1.3,7.4,0.2,15.1,2.2,22.4c2.2,0.2,2.5-2.9,4.1-2c5.3,3.1,3.4-1.4,3.7-3.4c0.2-1.3,0-2.7,0-4c2.4-0.9,4.9-1.2,7.6-0.4
	c-0.6-5.9-0.9-11.3-1.7-16.6C525.7,511.1,525.4,502,523.1,493.2z"/>
<path style="fill:none;stroke:#000000;stroke-width:2;stroke-miterlimit:10;" d="M226.9,523.1c-5.3-0.1-10.6-0.2-15.9-0.3
	c0.3-1.6,1-3.2,1-4.8c-0.5-22.6,1.7-45.2,1.2-67.8c-0.1-2.9-3-4.8-2-7.4c3.5-9.7,2.8-19.8,2.8-29.8c0.1-8,0-16,0-24
	c4.7-3.8,9.8-7,15-10.1c1.9,0.4,5.5-3,5.1,2.4c3.1,8.2,8.1,15.3,14.3,21.1c4.9,4.6,11.4,7.6,17.7,10.6c-5.8,2.8-11.7,5.4-18,7.1
	c-1.1,0-2.3-0.3-3,1l0,0c-2-0.2-3.7,0.3-5,2c-0.8,1-1.9,0.9-3,1c-0.4,0.3-0.7,0.5-1.1,0.8c-0.3,0.1-0.7,0.1-1,0.1
	c-1.2-1-0.8,0.3-1.1,0.8c-0.6,0.1-1.3,0.2-1.9,0.2c-0.4-0.6-0.7-0.6-0.9,0.1l0,0c-1.7-0.2-3.2,0.1-4,1.9c0.2,7.9,3,15.2,4.4,22.9
	c0.8,4.1,1.7,8.1,2.6,12.2c-1.4,3.2-0.3,5.7,1.9,8c0,0.3,0,0.7,0.1,1c-1.5,1.6-1.1,2.5,0.9,3c2.6,11.6,5.1,23.3,7.7,34.9
	c1.3,6,0.7,6.5-5.1,8.2C235.2,519.5,230,518.6,226.9,523.1z"/>
<path style="fill:none;stroke:#000000;stroke-width:2;stroke-miterlimit:10;" d="M423,570.7c5.6,2.2,11.4,0.9,17.1,1.4
	c1,1.6,0.9,3.5,0.9,5.3c-0.1,13.1,0,26.1-0.2,39.2c-0.1,5.3-0.7,10.5-1,15.8c-4.6-0.1-9.1-1.1-13.7-0.2c-0.7-0.1-1.3-0.1-2-0.2
	c-0.2-0.5-0.4-0.9-1-0.8c-8-0.8-15.9-1.8-24-1.2c-0.4-0.3-0.7-0.5-1.1-0.8c-0.7,0-1.4-0.1-2.1-0.1c-1.7-0.2-3.3-0.8-5,0
	c-1.3,0-2.6,0-3.9,0c-0.3-0.3-0.7-0.5-1-0.8c-0.7-0.2-1.5-0.3-2.2-0.5c0.9-14,2.8-27.8,4.9-41.6c0.8-5,1-10.2,1.4-15.2
	c2.9-1,5.7-2.2,8.9-1.7c3,1.3,6,1.3,8.9,0c1,0,2,0,3,0c1.3,1.2,2.7,1.2,4,0C417.7,569.6,420.3,570.2,423,570.7z"/>
<path style="fill:none;stroke:#000000;stroke-width:2;stroke-miterlimit:10;" d="M491,572c0.7,0,1.4,0,2.1-0.1
	c2.3-0.1,4.7-0.1,7-0.2c8.2-0.2,16.5-0.3,24.7-0.5c0.4,0,0.9,0,1.3,0.1c0.2,0.2,0.1,0.4-0.1,0.6c3,18.3,6,36.6,9,55
	c-5.3,0.4-10.7,0.8-16,1.2c-1,0-2,0.1-3,0.1c-4.4-0.5-8.6,0.7-13,0.9c-0.7,0-1.4,0.1-2,0.1c-4.3,0.3-8.6,0.6-13,0.9
	c-0.7,0-1.4,0.1-2,0.1c-2.6,0-5.1,0.1-7.7,0.1c-0.4-19.4-0.8-38.8-1.2-58.3C481.7,572.9,486.4,572.4,491,572z"/>
<path style="fill:none;stroke:#000000;stroke-width:2;stroke-miterlimit:10;" d="M177.1,579c10.2-0.6,20.5-1.3,30.7-1.9
	c6.4-0.4,12.8-1,19.1-1.5c-0.7,1-0.9,2-0.9,3.3c0.1,16.7,0.1,33.3-1,50c-1,0.1-2,0.2-3,0.3c-0.7,0-1.4,0.1-2,0.1
	c-4.7,0.3-9.3,0.6-14,0.9c-0.7,0-1.4,0.1-2,0.1c-4.7,0.3-9.3,0.6-14,0.9c-1,0-2,0.1-3,0.1c-2.3,0.1-4.5,0.1-6.8,0.2
	C179.1,613.9,178.1,596.4,177.1,579z"/>
<path style="fill:none;stroke:#000000;stroke-width:2;stroke-miterlimit:10;" d="M335,409c-12.3-6.3-23.5-14.7-36.9-18.8
	c-1.1-2.5-3.6-3.3-5.7-4.5c-4.8-2.7-9.9-5.1-13.9-9c3.3,1.3,6.7,1.9,10.2,1.7c6.5-0.4,12.2-3.1,17.9-5.8c0.2,0.2,0.3,0.3,0.5,0.5
	c-1.2,5.5-6.5,6.8-10,9.9c2.8,3.1,14,2.9,17.8-0.2l-0.1,0.1c1.1,0,2.7,0.8,2.7-1.3l0.2-0.1c1,0.4,1.9,0.7,1.7-0.9l0.2-0.1
	c0.7,0.3,1.1-0.1,1.3-0.7c6.7-5.6,11-12.6,11.4-21.5c0.2-3.4-0.1-6.9-0.1-10.3c1.6,0.3,2.6,1.4,3.6,2.5
	c9.4,10.9,18.8,21.8,28.3,32.7C356.5,394.1,346.9,402.8,335,409z"/>
<path style="fill:none;stroke:#000000;stroke-width:2;stroke-miterlimit:10;" d="M501,629.1c0.7,0,1.4-0.1,2-0.1
	c4.4,1.1,8.9,2.6,13-0.9c1,0,2-0.1,3-0.1c5.5,2.4,11.1,0.4,16.6-0.1c2.5,10-0.3,17.6-9.1,22.3c-13.4,7.2-27.4,7.5-41.2,1.4
	c-9.3-4.1-11.7-11.5-7.3-19.7c2.6-0.8,6.1,1.9,8-1.9c0.7,0,1.4-0.1,2-0.1C492.4,631.1,496.9,632.6,501,629.1z"/>
<path style="fill:none;stroke:#000000;stroke-width:2;stroke-miterlimit:10;" d="M383.8,627.7c0.7,0.2,1.5,0.3,2.2,0.5
	c0.3,0.3,0.7,0.5,1,0.8c1.3,0,2.6,0,3.9,0c1.6,1.5,3.3,1.5,5,0c0.7,0,1.4,0.1,2.1,0.1c0.4,0.3,0.7,0.5,1.1,0.8c8-0.6,16,0.4,24,1.2
	c0.3,0.3,0.7,0.5,1,0.8c0.7,0.1,1.3,0.1,2,0.2c4.5,1.1,9.1,1.8,13.8,1.8c-0.3,6.6-4,11.3-9.4,14.4c-13.1,7.5-26.9,8.4-40.7,2.4
	c-9.6-4.2-12-12.7-6.9-21.8c0.4-0.3,0.8-0.6,1.1-0.9L383.8,627.7z"/>
<path style="fill:none;stroke:#000000;stroke-width:2;stroke-miterlimit:10;" d="M375,384c0.6,15.4,1.3,30.9,1.9,46.3
	c-0.3-0.1-0.6-0.1-0.9-0.2c-1-1.6-2.6-1-4-1.1c-11.2-3.4-22.6-6.4-32.8-12.4c-2-1.2-3.9-2.5-5.2-4.5c7.2-3.2,13.4-8,19.2-13.2
	c6.2-5.5,10.9-12.2,16.6-18.2C371.8,381.3,373.8,381.9,375,384z"/>
<path style="fill:none;stroke:#000000;stroke-width:2;stroke-miterlimit:10;" d="M283,399.9c-0.6,0.4-1.3,0.7-1.9,1.1
	c-0.3,0.3-0.7,0.5-1,0.8c-4.4,2.8-8.8,5.6-13.2,8.4c-13.4-4.6-22.5-13.9-28.9-26.2c3.6-4.4,6.6-9.3,10.9-13.1c0.9-0.3,1.2-1,1.2-1.8
	c0.3-0.4,0.6-0.7,1-1.1c1.7,0.8,3.2,1.7,4.5,3c8.8,8.8,17.7,17.5,26.6,26.2C283,398,282.9,398.9,283,399.9z"/>
<path style="fill:none;stroke:#000000;stroke-width:2;stroke-miterlimit:10;" d="M283,399.9c0-1,0-1.9-0.8-2.7
	c-8.9-8.7-17.8-17.4-26.6-26.2c-1.3-1.3-2.9-2.2-4.5-3c3.2-5.1,7.2-9.4,11-13.9c2.3,3.3,5.1,6,9,7.3c0.2,2.5,3.6,1.2,4.1,3.5
	c-5.2,2.2-5.2,2.2-3.7,5.1c1.9,2,3.7,3.9,5.6,5.9c0.5,0.3,1,0.6,1.5,0.9h0.1c4,3.9,9.1,6.3,13.9,9c2.1,1.2,4.6,2,5.7,4.5
	C293.8,394.6,288.3,397.1,283,399.9z"/>
<path style="fill:none;stroke:#000000;stroke-width:2;stroke-miterlimit:10;" d="M537,424.9c2.2-8.9-0.1-17.9,0-26.8
	c0-1.7-0.6-3.7,1.1-5.1c5.9,9,15.2,13.5,24.4,18c1.5,0.7,3.2,2.2,4.8,0.1c1.2,1.2,3.2,0.4,4.6,2.4c-10,1.4-18.3,6.9-27.8,8.6
	c-0.4,0.3-0.7,0.5-1.1,0.8c-0.6,0.1-1.3,0.1-1.9,0.2c-1.4-0.1-2.8-0.2-3.1,1.7l-0.4,0.1L537,424.9z"/>
<path style="fill:none;stroke:#000000;stroke-width:2;stroke-miterlimit:10;" d="M369.8,380.8c-5.7,5.9-10.4,12.7-16.6,18.2
	c-5.9,5.2-12,10-19.2,13.2c-2.6-0.2-2.4-1-0.4-2.1c0.5-0.3,1-0.7,1.5-1.1c11.9-6.1,21.5-14.9,29-25.9c1.7-0.9,1.7-4.5,4.9-3.1
	C369.2,380.3,369.5,380.5,369.8,380.8z"/>
<path style="fill:none;stroke:#000000;stroke-width:2;stroke-miterlimit:10;" d="M567.3,411.1c-1.6,2.2-3.3,0.6-4.8-0.1
	c-9.3-4.5-18.5-9-24.4-18c-2.2-3.7-4.5-7.4-6.7-11.1c0.8-1.5,1.7-1.4,2.5-0.1c0.7,1.1,1.4,2.2,2.1,3.3c6.7,12.3,17.3,19.8,30.1,24.8
	C566.5,410.3,566.9,410.7,567.3,411.1z"/>
<path style="fill:none;stroke:#000000;stroke-width:2;stroke-miterlimit:10;" d="M237.9,384c6.4,12.3,15.5,21.6,28.9,26.2
	c0.7,0.9,1.3,1.8,2,2.7c-0.9,0-1.8,0.1-2.8,0.1c-6.3-2.9-12.8-5.9-17.7-10.6c-6.2-5.8-11.2-13-14.3-21.1
	C235.8,381.6,236.9,382.7,237.9,384z"/>
<path style="fill:none;stroke:#000000;stroke-width:2;stroke-miterlimit:10;" d="M423,570.7c-2.7-0.5-5.3-1-8-1.6
	c-1.3-0.6-2.7-0.4-4,0c-1,0-2,0-3,0c-3,0-6,0-8.9,0c-3.2-0.5-6,0.7-8.9,1.7c-0.1-0.3-0.1-0.6-0.1-0.9c0.2-0.8,0.5-1.7,1.4-1.8
	c9.4-0.6,18.8-2.5,28.1,0.3C420.8,568.8,422.7,568.6,423,570.7z"/>
<path style="fill:none;stroke:#000000;stroke-width:2;stroke-miterlimit:10;" d="M535.6,628c-5.5,0.4-11.1,2.4-16.6,0.1
	c5.3-0.4,10.7-0.8,16-1.2C535.2,627.2,535.4,627.6,535.6,628z"/>
<path style="fill:none;stroke:#000000;stroke-width:2;stroke-miterlimit:10;" d="M491,572c-4.6,0.4-9.2,1-13.9,0.1
	c-0.4-0.3-0.8-0.6-1.1-0.9C481,571,486.1,570.2,491,572z"/>
<path style="fill:none;stroke:#000000;stroke-width:2;stroke-miterlimit:10;" d="M439.9,634c-4.7,0-9.3-0.7-13.8-1.8
	c4.6-0.9,9.2,0.1,13.7,0.2C439.8,632.9,439.8,633.4,439.9,634z"/>
<path style="fill:none;stroke:#000000;stroke-width:2;stroke-miterlimit:10;" d="M486,630.1c-2,3.7-5.4,1.1-8,1.9
	c0.1-0.6,0.2-1.1,0.3-1.7C480.9,630.2,483.4,630.2,486,630.1z"/>
<path style="fill:none;stroke:#000000;stroke-width:2;stroke-miterlimit:10;" d="M235.9,471c-2.3-2.3-3.3-4.8-1.9-8
	C235.1,465.5,235.7,468.2,235.9,471z"/>
<path style="fill:none;stroke:#000000;stroke-width:2;stroke-miterlimit:10;" d="M240.1,423.1c1.2-1.7,3-2.2,5-2
	C243.7,422.6,242,423,240.1,423.1z"/>
<path style="fill:none;stroke:#000000;stroke-width:2;stroke-miterlimit:10;" d="M236.9,475c-2-0.5-2.5-1.5-0.9-3
	C236.3,473,236.6,474,236.9,475z"/>
<path style="fill:none;stroke:#000000;stroke-width:2;stroke-miterlimit:10;" d="M227,428c0.8-1.8,2.3-2.1,4-1.9
	C230,427.3,228.5,427.8,227,428z"/>
<path style="fill:none;stroke:#000000;stroke-width:2;stroke-miterlimit:10;" d="M222,629c1-0.1,2-0.2,3-0.3
	c0.2,0.4,0.4,0.8,0.6,1.2C224.4,629.8,222.9,630.5,222,629z"/>
<path style="fill:none;stroke:#000000;stroke-width:2;stroke-miterlimit:10;" d="M372,429c1.4,0.1,3-0.6,4,1.1
	C374.6,429.9,373,430.4,372,429z"/>
<path style="fill:none;stroke:#000000;stroke-width:2;stroke-miterlimit:10;" d="M537.9,424.8c0.3-1.9,1.7-1.8,3.1-1.7
	C540.3,424.1,539.1,424.5,537.9,424.8z"/>
<path style="fill:none;stroke:#000000;stroke-width:2;stroke-miterlimit:10;" d="M245.1,421.1c0.7-1.3,1.9-1,3-1
	C247.3,421.2,246.2,421.1,245.1,421.1z"/>
<path style="fill:none;stroke:#000000;stroke-width:2;stroke-miterlimit:10;" d="M233.9,425.7c0.2-0.4-0.2-1.7,1.1-0.8
	C234.6,425.2,234.3,425.5,233.9,425.7z"/>
<path style="fill:none;stroke:#000000;stroke-width:2;stroke-miterlimit:10;" d="M280,401.8c0.3-0.3,0.7-0.5,1-0.8
	C280.7,401.3,280.4,401.6,280,401.8z"/>
<path style="fill:none;stroke:#000000;stroke-width:2;stroke-miterlimit:10;" d="M543,422.9c0.4-0.3,0.7-0.5,1.1-0.8
	C543.7,422.3,543.4,422.6,543,422.9z"/>
<path style="fill:none;stroke:#000000;stroke-width:2;stroke-miterlimit:10;" d="M236,424.9c0.4-0.3,0.7-0.5,1.1-0.8
	C236.7,424.3,236.4,424.6,236,424.9z"/>
<path style="fill:none;stroke:#000000;stroke-width:2;stroke-miterlimit:10;" d="M231.1,426.1c0.3-0.6,0.6-0.6,0.9-0.1l-0.5,0.1
	H231.1z"/>
<path style="fill:none;stroke:#000000;stroke-width:2;stroke-miterlimit:10;" d="M384,628c-0.4,0.3-0.8,0.6-1.1,0.9
	C382.9,628.3,383.2,627.9,384,628z"/>
<path style="fill:none;stroke:#000000;stroke-width:2;stroke-miterlimit:10;" d="M94.1,512.1c-5.6-2.5-11.3-4.8-16.8-7.5
	c-8.1-4-9.9-8.6-7.1-17c5.3-15.7,12-30.9,16.1-47c3.2-12.6,3.3-12.6-8.8-17.4c-9.1-3.6-18.6-6.2-26.8-11.9c-1.3-0.9-2.5-2.1-3.8-3.2
	c14-6.3,25.8-15.4,34.3-28.4c1.2,0,2.4,0,3.5,0c7.6,4.1,13.9,10.3,22.2,13.2c0,0.3,0,0.6,0,1c-0.1,7.6-0.8,15.3-0.8,22.9
	c0.1,29-1.1,57.9-1.2,86.9c0,4.4-0.5,8.9,3,12.4C103.3,514.8,98.7,513.5,94.1,512.1z"/>
<path style="fill:none;stroke:#000000;stroke-width:2;stroke-miterlimit:10;" d="M88.9,571.3c9.3,3.8,19.2,2.6,28.8,3.6
	c6.4,0.7,12.9,0.9,19.3,1.4c-2.4,18.6-5,37.1-6.3,55.8c-4,0.6-7.8-1.2-11.8-1.1c-3.3-0.5-6.6-1.5-10-0.9c-0.7,0-1.4-0.1-2-0.1
	c-2.3-0.6-4.6-0.3-6.9,0.1c-0.7-0.1-1.3-0.1-2-0.2c-0.4-0.3-0.7-0.5-1.1-0.8c-0.7,0-1.4-0.1-2.1-0.1c-3.3-0.3-6.6-0.6-10-0.9
	c-0.7,0-1.4,0-2.1,0c-0.3-0.1-0.6-0.2-0.9-0.2c1-9,1.9-17.9,2.9-26.9C86.3,591.1,86.9,581.1,88.9,571.3z"/>
<path style="fill:none;stroke:#000000;stroke-width:2;stroke-miterlimit:10;" d="M48.1,404.1c-9.3-4.5-18.2-9.8-27.2-15.1
	c0.1-0.5,0.2-1.1,0.5-1.4c10.8-11.8,22.7-22.8,32.4-35.6c3.3,2.5,5.4,6.2,8.2,9.1c5.7,5.9,10.2,12.9,16.7,18
	C71.1,390.5,61.4,399.5,48.1,404.1z"/>
<path style="fill:none;stroke:#000000;stroke-width:2;stroke-miterlimit:10;" d="M53.9,352c-9.8,12.8-21.6,23.8-32.4,35.6
	c-0.3,0.3-0.3,0.9-0.5,1.4c-7-3.2-13.7-6.7-20-11c12.4-10.5,22.5-23.2,34-34.5c2.1-2.1,3.2-4.5,3-7.6c0.3,0,0.6,0,0.9,0
	c0.6,0.4,1.3,0.7,1.9,1.1C45.2,342,49.5,347,53.9,352z"/>
<path style="fill:none;stroke:#000000;stroke-width:2;stroke-miterlimit:10;" d="M98.1,630c0.7,0.1,1.3,0.1,2,0.2
	c2.3,1.3,4.6,1.5,6.9-0.1c0.7,0,1.4,0.1,2,0.1c3,3.5,6.5,2,10,0.9c4-0.1,7.8,1.7,11.8,1.1c0.6,9.5-2.6,15.2-11.2,19
	c-10.4,4.5-21,4.7-31.4,0.2c-10.1-4.4-12.3-12.8-6.3-22.3c0.4-0.3,0.8-0.6,1.1-0.8c0.7,0,1.4,0,2.1,0c3,3.5,6.5,2,10,0.9
	c0.7,0,1.4,0.1,2.1,0.1C97.4,629.4,97.8,629.7,98.1,630z"/>
<path style="fill:none;stroke:#000000;stroke-width:2;stroke-miterlimit:10;" d="M48.1,404.1c13.2-4.6,22.9-13.6,30.7-24.9
	c1.1-0.8,2-0.9,2.4,0.6c-8.5,13-20.3,22-34.3,28.4c-0.8-0.4-3,0-1-1.8C46.8,405.7,48.3,405.7,48.1,404.1z"/>
<path style="fill:none;stroke:#000000;stroke-width:2;stroke-miterlimit:10;" d="M94.1,512.1c4.6,1.3,9.2,2.7,13.9,4
	c2.3,2.1,5.4,1.7,8,3c-1.7,1.8-3.3,0.5-5,0c-5.6-1.7-11.3-3.4-16.9-5.2C94.1,513.3,94.1,512.7,94.1,512.1z"/>
<path style="fill:none;stroke:#000000;stroke-width:2;stroke-miterlimit:10;" d="M180.2,631.3c2.3-0.1,4.5-0.1,6.8-0.2
	c-1.9,3.6-5.2,1.1-7.7,1.8C179.6,632.4,179.9,631.9,180.2,631.3z"/>
<path style="fill:none;stroke:#000000;stroke-width:2;stroke-miterlimit:10;" d="M83,628.1c-0.4,0.3-0.8,0.6-1.1,0.8
	c0.1-0.3,0.2-0.7,0.3-1C82.4,628,82.7,628,83,628.1z"/>
<path style="fill:none;stroke:#000000;stroke-width:2;stroke-miterlimit:10;" d="M259,188c4.3,2.9,8.5,5.7,12.8,8.7
	c7.8,5.4,12.8,12.9,15.5,22c0.4,1.3,1.7,3,0,4c-1.3,0.8-2.5-0.6-3.5-1.3c-4.6-3.3-9.1-6.7-13.7-10c-0.9-0.6-2.1-2.2-3.4-0.6
	c-0.9,1.2,0.5,2.1,1,3c0.7,1.3,1.3,2.8,2.3,3.8c12.7,11.8,13.7,26.6,11.3,42.4c-0.3,2-0.6,3.9-0.9,5.9c-0.8,3.6-2.7,3.9-5.8,2.4
	c-8.8-4.2-17.7-8.1-26.6-12.2c-0.1-0.3-0.3-0.4-0.6-0.4l-0.3,0.1h0.3c-0.4-0.3-0.9-0.6-1.3-0.8l0.1,0.1c-0.6-0.5-1.2-0.9-1.7-1.4
	l-0.2,0.2l0.2-0.1c-0.4-0.3-0.8-0.6-1.2-0.9l0.1,0.1c-0.4-0.3-0.8-0.7-1.2-1l0.1,0.1c-0.4-0.4-0.8-0.8-1.2-1.1
	c-1-0.9-1.9-1.9-2.9-2.8c-1-1-2.1-2.1-3.1-3.1c-0.3-0.3-0.6-0.6-0.8-0.9c-2.2-2.8-4.7-5-8.9-7.3c2.3,4.3,3.9,7.3,6.4,9.7
	c1,2,2.4,3.6,4.1,5l-0.1-0.1c0.3,0.4,0.7,0.8,1,1.2l-0.1-0.1c0.3,0.4,0.6,0.8,0.9,1.2l0,0c0.5,0.6,1,1.1,1.5,1.7
	c0.2,0.3,0.5,0.6,0.7,0.9c0.3,0.4,0.7,0.9,1,1.3l-0.1-0.1c0.2,0.4,0.5,0.8,0.7,1.2l0.1,0.2c0.4,0.5,0.9,1.1,1.3,1.6l-0.1-0.1
	c0.2,0.4,0.5,0.8,0.7,1.3v0.1c0.4,0.6,0.8,1.2,1.1,1.8l0.1-0.4l-0.2,0.3c0.2,0.9,0.4,1.8,0.6,2.7c-5,0.1-10,0.1-15.1,0.2
	c-2.7-0.4-5.3-0.8-8-1.1c-3.3-1-6.7-2-10-3c-1.2-0.5-2.4-1-3.5-1.6l-0.1,0.3l0.1-0.3c-0.7-0.3-1.3-0.6-2-0.9l-0.4,0.2l0.4-0.2
	c-0.6-0.3-1.3-0.7-1.9-1l-0.2,0.3l0.2-0.3c-0.6-0.3-1.2-0.7-1.8-1l-0.1-0.1c-0.4-0.2-0.8-0.4-1.3-0.6l0.1,0.1
	c-0.6-0.4-1.3-0.8-1.9-1.2l0.1,0.1c-0.6-0.4-1.1-0.8-1.7-1.2l-0.3-0.2c-0.4-0.2-0.7-0.4-1.1-0.6l0.1,0.1c-0.4-0.3-0.8-0.6-1.2-0.9
	l0.1,0.1c-0.6-0.5-1.1-0.9-1.7-1.4c-0.2,0.4-0.3,0.4,0,0c-0.4-0.3-0.8-0.5-1.2-0.8l0.1,0.1c-0.4-0.3-0.8-0.6-1.2-1l0.1,0.1
	c-0.5-0.5-1-0.9-1.5-1.4l-0.3-0.3c-0.3-0.2-0.5-0.5-0.8-0.7l-0.2-0.2c-1.1-1.2-2.2-2.4-4.3-3.1c1.5,5,3.5,9.4,6,13.7
	c1.2,4.3,4,8.2,4,13.2c-16.1-3.6-29.5-10.6-38.7-24.3c-0.6-1.2-1.2-2.3-2.1-4.3c0,5.5,0,9.9,0,14.4c1.1,10.2,2.2,20.4,3.3,31
	c-7.6-4-12.9-9.7-16.9-16.8c-3.9-6.9-5.8-14.5-8.8-23c-3.3,12.4-4.9,23.9-7.3,35.5c-4.4-2.5-7.2-5.9-9.6-9.6c-1.7-3.7-3.3-7.4-5-11
	c0.6-8.6-0.8-17.2,1.6-25.7c-0.4,0-0.8-0.1-1.2-0.1c-0.9,1.3-1.8,2.7-2.7,4c-0.2,0.1-0.4,0.2-0.4,0.5c-0.2,0.3-0.4,0.7-0.6,1
	l0.2,0.2l-0.2-0.2c-0.3,0.4-0.6,0.8-0.9,1.3l0.1-0.1c-0.5,0.6-0.9,1.2-1.4,1.7l0.4,0.2l-0.4-0.2c-0.3,0.4-0.5,0.9-0.8,1.3l0.1-0.1
	c-0.4,0.6-0.9,1.1-1.3,1.7l-0.1,0.1c-0.2,0.4-0.5,0.8-0.7,1.2l0.1-0.1c-0.4,0.6-0.9,1.1-1.3,1.7l-0.1,0.1c-0.2,0.4-0.5,0.8-0.7,1.2
	l0.1-0.1c-0.4,0.6-0.9,1.2-1.3,1.7v0.1c-0.2,0.4-0.5,0.8-0.7,1.3l0.1-0.1c-0.4,0.6-0.9,1.2-1.3,1.7v0.1c-0.2,0.4-0.4,0.8-0.7,1.3
	l0.1-0.1c-0.4,0.6-0.9,1.2-1.3,1.8l0.4,0.2l-0.4-0.1c-0.2,0.4-0.5,0.9-0.7,1.3l0.1-0.1c-0.4,0.6-0.9,1.2-1.3,1.8l0.1,0.4l-0.1-0.4
	c-0.3,0.4-0.5,0.9-0.8,1.3c-2.4,3.3-4.7,6.6-7.1,9.8c-1.1,1.5-1.9,3.6-4.5,2.9c-0.6-0.6-1.3-1.2-1.9-1.7c-0.2-0.8,0-1.8-1-2.2
	l0.1,0.1c-0.2-1.1,0.2-2.4-1.2-3v0.1c-0.1-0.3-0.1-0.6-0.2-0.9c0-9.4,2.3-18.5,3.8-27.9c-2.9,3.1-5.4,6.3-7.7,9.6
	c-6.3,9.4-11.8,19.3-19.5,27.6c-9.7,10.4-6.6,10.7-18.1,1.5c-13.1-16.6-9.8-34.1-2.7-51.8c1-2.6,2.8-5,2.5-8"/>
<path style="fill:none;stroke:#000000;stroke-width:2;stroke-miterlimit:10;" d="M523.4,237c-0.2,7,3.5,14.1-0.4,21.1
	c-0.1,0.1-0.3,0.2-0.4,0.2c0.1,0.2,0.3,0.5,0.4,0.7c0,0.4,0,0.8,0.1,1.2c0,0.3,0,0.6-0.2,0.8c-3.5,1.2-1.2,4.1-1.8,6.1
	c0,0.3,0,0.6-0.1,0.9c-1.4,1.3-1.3,2.6-0.1,4c-0.3,0.7-0.6,1.4-0.9,2c-1.2,1-1.2,1.9-0.1,3c-0.2,0.4-0.3,0.8-0.5,1.2
	c-1.3,0.4-1.5,1-0.4,1.9c-0.7,3.3-2,6.2-4,8.8c-1.3,1.7-2.5,4.3-4.6,4c-1.7-0.3-2.1-3-2.6-5c-3-9.9-6.9-19.3-12.7-27.9
	c-1.9-2.8-3.8-5.5-6.5-7.4c-2.5-1.8-4.2-1.4-4.9,1.9c-0.6,2.7,0.2,5.2,0.8,7.8c0.8,2.8,1.5,5.6,3.1,8.1v0.3c0.6,2,0.9,4.1,2.3,5.7
	l-0.1-0.1c0.3,1,0.7,2.1,1.1,3.1h-0.1c0.4,2.8,0.2,5.9,2.3,8.3c-0.7,1.7,0.8,3.6-0.3,5.3c-1.5-0.4-2.9-0.9-4.3-1.3
	c-10.4-4.5-19.8-10.2-24.2-21.5c1.1-4.3-1.3-8.4-1.2-12.6c0-1.5-1.2-2.2-2.7-2.3c-0.3-2.9-1-5.9-0.8-8.8c0.5-5.4-1.8-5.3-5.4-3.2
	c-0.2-0.1-0.4-0.2-0.7-0.3c0.1,0.3,0.1,0.5,0.2,0.8h-0.1c-0.7-0.1-1.1,0.2-1.1,0.9c-0.7,0-1,0.4-0.9,1c-1.2,0-1.3,0.9-1.3,1.8
	c-0.2,0.3-0.5,0.7-0.7,1c-0.7,0.2-1,0.6-0.9,1.3l0,0h0.1c-1.4-0.1-1.4,0.8-1.2,1.7l-0.1-0.1l0.1,0.2c-3.5,1.1-3.4,3.9-3.2,6.8
	c-1,0.3-1.1,1.1-1,2c-1.7,0.8-1.8,2.5-2.2,4c-2.4,8.3-3.4,16.7-2.9,25.4c0.1,2.5,0.1,4.8-3.4,4.6c-5.2-4-7.2-9.8-8.6-15.8
	c-1.6-6.6-2.8-13.3-4.3-20.6c-2.7,5-3,9.4-2.2,14.2c1,6.4,4.3,12.2,4.9,18.7c0.1,1.2,1.5,2.3,0.3,3.5c-1.3,1.3-2.8,0.3-4.2-0.3
	c-8.6-3.9-14.6-10.2-17.9-19c-0.5-2.6-1.7-5-1.5-7.8c3.6-3.9,1.8-8.6,1.4-12.8c-0.1-1.7-1.9-0.1-2.6,0.9c-2.7,1.6-1.5,4.6-2.5,6.8
	c-0.1,0.7-0.2,1.5-0.3,2.2c-0.3,1.9-0.5,3.9-0.8,5.8c0,0.7-0.1,1.5-0.2,2.2c-0.2,1-0.3,2-0.5,3c-3,1-1.5,3.6-1.7,5.5
	c-0.3,2.9,0.2,6-3.1,7.5c-2.7-2.5-4.4-5.7-5.9-9h0.5h0.5c-0.2-1.5-0.6-2.7-2.4-2.7c0.1-4.2-3.4-7.1-4.1-11c-0.2-0.9-0.6-2.1-2-1.8
	c-1.1,0.2-1.4,1.3-1.9,2.2c-0.8,1.4-0.3,2.2,1.3,2.4c0.6,1.6-0.7,3-0.3,4.8c2.6,9.9,4.6,20,7.6,29.7c1.2,3.7,0,4.3-2.7,5l-0.2-0.1
	c0.7-3.6-2-2.1-3.6-2.4c-0.4-0.2-0.8-0.5-1.1-0.7c-0.1-1.2-0.9-1.3-1.9-1.2c-0.7-2.3-2.4-3.3-4.8-3.2c-0.2-0.4-0.3-0.7-0.5-1.1
	c-0.1-0.2-0.3-0.5-0.4-0.7s-0.3-0.4-0.4-0.6c-0.1-0.1-0.1-0.2-0.2-0.3c-0.1-0.1-0.2-0.2-0.3-0.3c-0.6-0.6-1.5-1-2.6-0.9
	c-0.3,0-0.6,0.1-0.9,0.2c0-0.2,0-0.3-0.1-0.4c0-0.1-0.1-0.1-0.1-0.2c0,0,0,0,0-0.1l-0.1-0.1c-0.1-0.1-0.2-0.1-0.3-0.1
	c-0.1,0-0.3,0-0.5,0h-0.1c0.5-4.3-2.8-5.1-5.8-6.2c-0.3-0.4-0.6-0.8-0.8-1.1l0,0c-0.8-1.2-1.6-2.4-2.4-3.6
	c-15.3,14.2-18.9,20.4-19.5,33.6c-1.8-0.3-1.6-1.9-1.9-3.1c-3.1-17.8-5-35.7-4.3-53.8c0.1-0.2,0.3-0.4,0.5-0.6s0.4-0.3,0.6-0.5
	s0.4-0.3,0.7-0.5c0.5-0.3,0.9-0.6,1.3-1c0.6-0.5,1-1.2,1.2-2.2c3.2-5.3,1.3-11.7,4-17.2c2.8-5.8,2-11.3-2.2-16.2
	c3.2-9,9.1-16.1,16.1-22.4c8.5-8.6,18.3-15.4,29-20.8c35.1-19.6,71.3-23.1,108.8-7.4c13.9,5.8,26.4,13.9,37.4,24.3
	c-5.4,3.6-7.1,8.5-5,14.6c1.4,4,1.1,8.2,1.1,12.3c-0.5,2.1,0.1,3.8,1.7,5.2c0.3,0.4,0.7,0.7,1,1.1c0,0.3,0,0.6,0.1,0.9
	C522.3,232.5,523.5,234.7,523.4,237z"/>
<path style="fill:none;stroke:#000000;stroke-width:2;stroke-miterlimit:10;" d="M443.2,260.2c0,0,0.1,0,0.1-0.1L443.2,260.2
	L443.2,260.2z"/>
<path style="fill:none;stroke:#000000;stroke-width:2;stroke-miterlimit:10;" d="M444.2,258.1L444.2,258.1L444.2,258.1L444.2,258.1
	L444.2,258.1z"/>
<path style="fill:none;stroke:#000000;stroke-width:2;stroke-miterlimit:10;" d="M447.4,251.3L447.4,251.3L447.4,251.3L447.4,251.3
	l-0.1-0.2L447.4,251.3L447.4,251.3z"/>
<path style="fill:none;stroke:#000000;stroke-width:2;stroke-miterlimit:10;" d="M451.4,245.3C451.5,245.3,451.5,245.3,451.4,245.3
	L451.4,245.3C451.4,245.4,451.4,245.4,451.4,245.3L451.4,245.3z"/>
<path style="fill:none;stroke:#000000;stroke-width:2;stroke-miterlimit:10;" d="M452.4,244.3L452.4,244.3
	C452.3,244.4,452.3,244.4,452.4,244.3C452.3,244.4,452.3,244.3,452.4,244.3L452.4,244.3z"/>
<path style="fill:none;stroke:#000000;stroke-width:2;stroke-miterlimit:10;" d="M276.9,375.7c-1.9-2-3.7-3.9-5.6-5.9
	c-1.3-2.8,1-2.5,2.4-2.8c2.5-0.6,4.5-1.7,4.9-4.6c-2.8-0.4-5.2-0.8-7.7-1.2c-3.9-1.3-6.7-3.9-9-7.3c-2.1-5.5-2.1-11.2-2.1-16.9
	c0.1-2.2,0.2-4.4,0.3-6.6c0.3-2.2,0.6-4.4,1-7c0.8,1.2,1.3,2,1.8,2.7c2.2,5.2,4.7,10.2,9.2,13.9c1.2,1.5,2.9,1.9,4.8,2
	c9.2,0.3,14.1-3.5,18-14c3.6-7.1,0.4-14.2-0.3-21.2c-1.4-10.6-1.7-21.2-0.8-31.8c1.2-7.5,2.3-15.1,6.1-21.9c3-5.3,6.4-10,13-11.3
	c0,4.3-2.3,8.7,0.2,13c1.7,3.9,5.1,5.4,8.9,6.2c-1.2,1.8-1.9,3.8-2.3,6c-1.8,10-1.4,20,0.8,29.8c3.8,17,9.7,33.6,11.6,51
	c0,3.4,0.3,6.9,0.1,10.3c-0.4,8.9-4.7,15.9-11.4,21.5c-0.4,0.2-0.8,0.5-1.3,0.7l-0.2,0.1c-0.6,0.3-1.1,0.6-1.7,0.9l-0.2,0.1
	c-0.9,0.4-1.8,0.9-2.7,1.3l0.1-0.1c-5.9,1.4-11.8,2-17.8,0.2c3.5-3.1,8.8-4.4,10-9.9c0.1-0.2,0.2-0.4,0.4-0.6
	c-0.3,0.1-0.6,0.1-0.9,0.2c-5.7,2.6-11.4,5.4-17.9,5.8c-3.6,0.2-6.9-0.4-10.2-1.7h-0.1C277.9,376.4,277.4,376.1,276.9,375.7z"/>
<path style="fill:none;stroke:#000000;stroke-width:2;stroke-miterlimit:10;" d="M28.8,209.9c2.1-6.2,6.1-11.1,10.3-15.9
	c0.3-0.3,0.6-0.7,0.9-1l0,0c0.3-0.4,0.6-0.7,0.9-1.1l0,0c0.3-0.4,0.7-0.7,1-1.1l-0.1,0.1c0.3-0.4,0.7-0.7,1-1.1l-0.1,0.1
	c0.4-0.4,0.7-0.8,1.1-1.1c0.6-0.6,1.2-1.2,1.8-1.8c0.4-0.4,0.8-0.7,1.2-1.1l-0.1,0.1c0.4-0.3,0.7-0.7,1.1-1l-0.1,0.1"/>
<path style="fill:none;stroke:#000000;stroke-width:2;stroke-miterlimit:10;" d="M236.2,268.9c-2.4,0.3-5.2,0.5-6.2-2.7
	c5-0.1,10-0.1,15.1-0.2c0.6-0.1,1.4-0.2,1.2-1c-0.1-0.9-0.6-1.8-1.8-1.7l0.2-0.3l-0.1,0.4c0.3-1,0.4-2-1.1-1.8v-0.1
	c0.3-0.7,0-1.1-0.7-1.3l0.1,0.1c0.1-1,0.2-1.9-1.3-1.6l-0.1-0.2c0.3-0.8,0-1.1-0.7-1.2l0.1,0.1c0-0.7-0.4-1.1-1-1.3
	c-0.2-0.3-0.5-0.6-0.7-0.9c-0.1-1-0.1-1.9-1.5-1.7l0,0c0.2-0.8-0.1-1.1-0.9-1.2l0.1,0.1c0-0.7-0.3-1.1-1-1.2l0.1,0.1
	c0.3-1.5,0.2-3.2,2.4-3.3c1,0.9,1.9,1.9,2.9,2.8c0.4,0.4,0.8,0.8,1.2,1.1l-0.1-0.1c0.1,0.7,0.5,1,1.2,1l-0.1-0.1
	c0.1,0.7,0.5,1.1,1.2,0.9l-0.2,0.1l0.2-0.2c-0.1,1.3,0.8,1.4,1.7,1.4l-0.1-0.1c0.2,0.6,0.7,0.9,1.3,0.8h-0.3l0.3-0.1
	c0,0.3,0,0.5,0,0.8c0.2-0.1,0.4-0.2,0.6-0.4c8.9,4,17.8,8,26.6,12.2c3.1,1.5,5,1.2,5.8-2.4c5.9,1.1,9.3,5.7,13.5,9.2
	c-0.9,10.6-0.5,21.2,0.8,31.8c-1.6,0.4-2.1,2-3.1,3.1c-5.4,5.5-11.7,9.4-19.6,9.1c-4.5-0.2-7.3,0.8-7.9,5.6c-0.1,0.6-0.7,1.1-1,1.7
	c-0.5-0.8-1-1.5-1.8-2.7c-0.4,2.6-0.7,4.8-1,7c-0.2-2.1-0.4-4.2-0.6-6.3c-0.2,0-0.4,0-0.7,0.1c0,4.2,0,8.5,0,12.7
	c-3.1,8.1-7,15.6-13,22c-0.8,0.4-1,1.1-1.1,1.9c-0.3,0.4-0.7,0.7-1,1.1"/>
<path style="fill:none;stroke:#000000;stroke-width:2;stroke-miterlimit:10;" d="M357.7,289.2C357.7,289.3,357.8,289.3,357.7,289.2
	L357.7,289.2L357.7,289.2z"/>
<path style="fill:none;stroke:#000000;stroke-width:2;stroke-miterlimit:10;" d="M364.1,295.4c-0.1,0-0.3,0-0.5,0h-0.1h0.1
	C363.8,295.4,363.9,295.4,364.1,295.4z"/>
<path style="fill:none;stroke:#000000;stroke-width:2;stroke-miterlimit:10;" d="M364.7,296.3C364.8,296.3,364.8,296.3,364.7,296.3
	C364.7,296.4,364.7,296.3,364.7,296.3L364.7,296.3L364.7,296.3L364.7,296.3L364.7,296.3z"/>
<path style="fill:none;stroke:#000000;stroke-width:2;stroke-miterlimit:10;" d="M364.7,296.3c0.3-0.1,0.6-0.1,0.9-0.2
	C365.4,296.2,365.1,296.2,364.7,296.3z"/>
<path style="fill:none;stroke:#000000;stroke-width:2;stroke-miterlimit:10;" d="M374.9,303.2L374.9,303.2L374.9,303.2
	C374.8,303.2,374.8,303.2,374.9,303.2L374.9,303.2z"/>
<path style="fill:none;stroke:#000000;stroke-width:2;stroke-miterlimit:10;" d="M376.7,304.4L376.7,304.4L376.7,304.4
	C376.7,304.3,376.7,304.3,376.7,304.4z"/>
<path style="fill:none;stroke:#000000;stroke-width:2;stroke-miterlimit:10;" d="M383.7,276.3L383.7,276.3L383.7,276.3
	C383.6,276.3,383.6,276.3,383.7,276.3L383.7,276.3z"/>
<path style="fill:none;stroke:#000000;stroke-width:2;stroke-miterlimit:10;" d="M578.8,345.2C578.9,345.2,578.9,345.2,578.8,345.2
	L578.8,345.2L578.8,345.2z"/>
<path style="fill:none;stroke:#000000;stroke-width:2;stroke-miterlimit:10;" d="M580.9,346.3L580.9,346.3L580.9,346.3
	C580.9,346.2,580.9,346.2,580.9,346.3C580.9,346.2,580.9,346.2,580.9,346.3z"/>
<path style="fill:none;stroke:#000000;stroke-width:2;stroke-miterlimit:10;" d="M33.2,221c-3.2-3.1-4.4,0.6-6.2,1.9
	c-1.1,0.8-1.9,3-3.5,1.8c-1.5-1,0.4-2.3,0.7-3.4c1.2-3.9,2.2-7.9,4.6-11.4"/>
<path style="fill:none;stroke:#000000;stroke-width:2;stroke-miterlimit:10;" d="M164.5,157.3c1-0.2,2.1-0.6,2.9-0.3
	c8.4,3.1,15.7-1.2,23.3-3.3c11.6-3.1,23.1-4,34.8-1c1.6,0.4,2.9,0,4.3-0.7c6.9,1.8,13.1,5.1,18.6,9.8c-0.7,0,13.9,4.8,10.6,26.2"/>
<path style="fill:none;stroke:#000000;stroke-width:2;stroke-miterlimit:10;" d="M47.9,184.9c5.3-5.6,11.3-10.3,18.1-14"/>
<path style="fill:none;stroke:#000000;stroke-width:2;stroke-miterlimit:10;" d="M580.9,346.2L580.9,346.2
	C580.8,346.2,580.8,346.2,580.9,346.2L580.9,346.2z"/>
<path style="fill:none;stroke:#000000;stroke-width:2;stroke-miterlimit:10;" d="M524.9,230.1c-0.3-0.4-0.7-0.7-1-1.1
	c-0.3-1.8,0.8-4.1-1.7-5.2c0-4.1,0.3-8.3-1.1-12.3c-2.1-6.1-0.4-11,5-14.6c1.6-0.3,3.2-0.8,4.8-1c8.6-1,12.5,2.7,14.6,13.4
	c-0.9,2.9,0.1,5.6,1.1,8.3c1.2,3.2,1.6,6.4,0.9,9.8c-0.5,0.6-1,1.2-1.4,1.8c-0.3-1.6,0.5-4.6-2.3-3.9
	C537.5,226.9,530.6,226.1,524.9,230.1z"/>
<path style="fill:none;stroke:#000000;stroke-width:2;stroke-miterlimit:10;" d="M313,241.9L313,241.9
	C313,241.9,312.9,242,313,241.9L313,241.9z"/>
<path style="fill:none;stroke:#000000;stroke-width:2;stroke-miterlimit:10;" d="M337,239.3c-2.7,5.5-0.8,11.9-4,17.2
	c0.5-5.2-4-3.7-6.2-3.9c-4.6-0.3-10-3.3-13.7,2.2c-2.4-4.3-0.1-8.6-0.1-12.9c0.3-0.2,0.7-0.5,1-0.7c1.4-2,1.7-4.2,1.9-6.5
	c0.8-12.9,7.2-16.8,19-11.5C339,228.1,339.8,233.6,337,239.3z"/>
<path style="fill:none;stroke:#000000;stroke-width:2;stroke-miterlimit:10;" d="M548,227.2c-0.2,0-0.3,0.1-0.5,0.2l0,0
	C547.7,227.3,547.8,227.3,548,227.2z"/>
<path style="fill:none;stroke:#000000;stroke-width:2;stroke-miterlimit:10;" d="M271.3,187.8c0.9,0.5,1,1.1,0.5,1.9
	c-0.5-0.3-0.9-0.6-1.4-0.9C270.7,188.4,271,188.1,271.3,187.8z"/>
<path style="fill:none;stroke:#000000;stroke-width:2;stroke-miterlimit:10;" d="M314,241.2c-0.3,0.2-0.7,0.5-1,0.7
	C312.9,241.3,313.4,241.2,314,241.2z"/>
<path style="fill:none;stroke:#000000;stroke-width:2;stroke-miterlimit:10;" d="M87.2,381.3c0,1.7-5.6-8.6-7.4-7.2
	c-8.5-7.4-15.9-15.7-21-25.8c-0.3-0.4-0.6-0.8-0.9-1.3c-2.4-3-3.8-6.6-5.3-10.1c-0.6-1.3-1.1-3.3-2.9-2.8c-3.3,0.9-6.9,0.1-10.1,1.8
	c-0.3,0-0.5,0-0.8,0s-0.6,0-0.9,0c-0.7-1.6-2.2-1.9-3.6-2.2c-5.5-1.3-9.3-5.3-13.4-8.7c-6.4-10.2-8.3-20.7-2.1-31.8
	c3.3-5.9,8.9-9.1,14.5-12.4c11.6,9.3,8.4,8.9,18.1-1.5c7.7-8.3,13.3-18.2,19.5-27.6c2.3-3.4,4.8-6.6,7.7-9.6
	c-1.5,9.4-3.8,18.5-3.8,27.9c-0.1,0.1-0.3,0.3-0.3,0.3c0.2,0.2,0.3,0.4,0.5,0.6c0,0,0-0.1,0,0c0,1.2-0.3,2.5,1.2,3l-0.1-0.1
	c-0.1,0.9,0,1.8,1,2.2c0.6,0.6,1.3,1.2,1.9,1.7"/>
<path style="fill:none;stroke:#000000;stroke-width:2;stroke-miterlimit:10;" d="M46.9,185.8c-0.4,0.4-0.8,0.7-1.2,1.1
	C46.1,186.5,46.5,186.2,46.9,185.8z"/>
<path style="fill:none;stroke:#000000;stroke-width:2;stroke-miterlimit:10;" d="M43.9,188.7c-0.4,0.4-0.7,0.8-1.1,1.1
	C43.2,189.5,43.5,189.1,43.9,188.7z"/>
<path style="fill:none;stroke:#000000;stroke-width:2;stroke-miterlimit:10;" d="M42.9,189.8c-0.3,0.4-0.7,0.7-1,1.1
	C42.2,190.5,42.5,190.2,42.9,189.8z"/>
<path style="fill:none;stroke:#000000;stroke-width:2;stroke-miterlimit:10;" d="M41.9,190.8c-0.3,0.4-0.7,0.7-1,1.1
	C41.2,191.6,41.6,191.2,41.9,190.8z"/>
<path style="fill:none;stroke:#000000;stroke-width:2;stroke-miterlimit:10;" d="M40.9,191.9c-0.3,0.4-0.6,0.7-0.9,1.1
	C40.3,192.6,40.6,192.3,40.9,191.9z"/>
<path style="fill:none;stroke:#000000;stroke-width:2;stroke-miterlimit:10;" d="M40,193c-0.3,0.3-0.6,0.7-0.9,1
	C39.4,193.7,39.7,193.3,40,193z"/>
<path style="fill:none;stroke:#000000;stroke-width:2;stroke-miterlimit:10;" d="M47.9,184.8c-0.4,0.3-0.7,0.7-1.1,1
	C47.2,185.5,47.5,185.2,47.9,184.8z"/>
<path style="fill:none;stroke:#000000;stroke-width:2;stroke-miterlimit:10;" d="M578.8,345.2c0.9-0.1,1.8,0,2.1,1.1
	C580.2,345.9,579.5,345.5,578.8,345.2z"/>
<path style="fill:none;stroke:#000000;stroke-width:2;stroke-miterlimit:10;" d="M565,353c-0.2-0.3-0.3-0.6-0.4-0.9
	c1.1-0.8,1.2,0.1,1.4,0.8C565.7,353,565.3,353,565,353z"/>
<path style="fill:none;stroke:#000000;stroke-width:2;stroke-miterlimit:10;" d="M578,344.9c0.6-0.7,0.8-0.3,0.9,0.3
	C578.5,345.2,578.2,345.1,578,344.9z"/>
<path style="fill:none;stroke:#000000;stroke-width:2;stroke-miterlimit:10;" d="M190,631c4.7-0.3,9.3-0.6,14-0.9
	C199.5,633.8,194.8,632.1,190,631z"/>
<path style="fill:none;stroke:#000000;stroke-width:2;stroke-miterlimit:10;" d="M206,630c4.7-0.3,9.3-0.6,14-0.9
	C215.5,632.8,210.8,631.1,206,630z"/>
<path style="fill:none;stroke:#000000;stroke-width:2;stroke-miterlimit:10;" d="M372.5,302.2h-0.2l0,0c-0.1,0.1-0.2,0.1-0.3,0.2
	c-0.5,0.2-0.7-0.1-0.7-0.7l0,0v-0.1c0,0,0,0,0,0.1l0,0l0,0c-0.2,0-0.3,0-0.4,0c-0.4-0.1-0.7-0.3-0.8-0.8c0,0,0,0,0-0.1l0.1,0.1
	c0,0,0,0-0.1,0c-0.9,0.1-1.7,0-1.8-1.2c0,0,0,0,0-0.1s0,0,0,0l0.1,0.1h-0.1c-0.6,0.1-1-0.2-1.2-0.8l0,0l0,0c0,0,0.1,0,0.1,0.1
	c0,0,0,0-0.1,0l0,0c-0.5-0.1-1.8,0.9-1.1-0.8c-0.5-0.5-0.9-1.1-1.4-1.6l0,0"/>
<path style="fill:none;stroke:#000000;stroke-width:2;stroke-miterlimit:10;" d="M364.7,296.3L364.7,296.3L364.7,296.3L364.7,296.3
	L364.7,296.3"/>
<path style="fill:none;stroke:#000000;stroke-width:2;stroke-miterlimit:10;" d="M364.7,296.3C364.8,296.3,364.8,296.4,364.7,296.3
	C364.7,296.4,364.7,296.4,364.7,296.3L364.7,296.3L364.7,296.3L364.7,296.3L364.7,296.3c-0.4-0.3-0.8-0.6-1.1-0.9l0,0"/>
<path style="fill:none;stroke:#000000;stroke-width:2;stroke-miterlimit:10;" d="M363.5,295.4c-2.3-1.7-4.5-3.6-5.8-6.2l0.1,0.1
	c0,0,0-0.1-0.1-0.1"/>
<line style="fill:none;stroke:#000000;stroke-width:2;stroke-miterlimit:10;" x1="356.9" y1="288.1" x2="356.9" y2="288.1"/>
<path style="fill:none;stroke:#000000;stroke-width:2;stroke-miterlimit:10;" d="M334.9,318.1c-1.5,5.4,1.4,10,3.1,14.7
	c6,16.4,15.3,30.7,27.9,42.9c1.3,1.2,3.1,2.1,3,4.3c0.3,0.3,0.5,0.6,0.8,0.9c2.1,0.5,4.1,1.1,5.2,3.1c0.3,0,0.7,0.1,1,0.1"/>
<path style="fill:none;stroke:#000000;stroke-width:2;stroke-miterlimit:10;" d="M469,523c-0.8,1.5,1.7,4.4-2.3,4.5
	c-2.8,0.1-4.3-0.4-3.7-3.5c0.2-6.6-1.6-13.2-1-19.9c0.2-1.9,0.4-4.1-2.7-4.2c-3.4-0.1-3.3,2-3.2,4.2c0.3,6.6,0.6,13.2,0.9,19.9
	c0,4.5-0.6,9.1,0.2,13.4c1,5.4-3.1,5.8-5.7,5.8c-2.8,0-0.8-3.5-1.5-5.3c0-13.3,0.1-26.5,0.1-39.8c5.1,1.6,10.4,0.5,15.5,0.5
	c5.4,0.1,10.9,0.2,16.3,0.2c1,0.6,1,1.6,1.1,2.6c1,12.2,2,24.3,3,36.5c1.2,5.2-3.7,3.3-5.6,4c-2.2,0.9-1.2-2.1-1.4-3.4
	c-0.7-5.5-1.3-11-2-16.5c0-6.3,0-12.6-0.1-18.9c-0.1-5.3-4.2-2.7-6.6-3.2c-3-0.7-2.3,1.3-2.4,3.2C467.6,509.9,468.9,516.4,469,523z"
	/>
<path style="fill:none;stroke:#000000;stroke-width:2;stroke-miterlimit:10;" d="M452.3,471.1c-1.9-11.1-1.2-22.5-1.2-34
	c0-2.5,0.3-4.7,3.4-5.1c3-0.4,4.6,0.6,4.8,4c0.8,13.6,1.9,27.1,2.7,40.7c0.1,2.7,2.7,6-1.8,8.2c-3.3,1.6-6.9,0.6-7.3-3.1
	C452.4,478.4,451.3,475,452.3,471.1z"/>
<path style="fill:none;stroke:#000000;stroke-width:2;stroke-miterlimit:10;" d="M521,537c0,1.3,0.2,2.7,0,4c-0.3,2,1.6,6.5-3.7,3.4
	c-1.5-0.9-1.9,2.1-4.1,2c-2-7.3-0.9-15-2.2-22.4c-0.3-7.3-1.3-14.5-1.1-21.9c0.1-2.3-0.7-4.6-2.8-6c3.5-0.6,7-1.1,10.6-1.7
	c-0.2,1-0.7,1.9-0.6,2.9c0.8,10.2,1.4,20.5,2.6,30.6C520,530.9,518.8,534.3,521,537z"/>
<path style="fill:none;stroke:#000000;stroke-width:2;stroke-miterlimit:10;" d="M503,526.1c0.3,5.6-0.7,11.2,0.9,16.7
	c0.3,1.2,0.9,3-1.1,3.8c-1.2-3.2-6.4,1.8-6.7-3.2c-0.1-1.8-0.1-3.6-0.1-5.4c-1.4-9.2-1.2-18.5-2.1-27.7c-0.4-4.6,1.4-10.8-5.9-12.4
	c5.3-1.1,10.7-1.5,16.1-1.6c-2.5,1.9-3.4,4.2-3.1,7.5c0.7,6.7,1.5,13.4,1.2,20.1C502,524.6,502.6,525.4,503,526.1z"/>
<path style="fill:none;stroke:#000000;stroke-width:2;stroke-miterlimit:10;" d="M488,497.9c7.3,1.5,5.5,7.7,5.9,12.4
	c0.9,9.2,0.7,18.5,2.1,27.7c-3.3-0.5-6.6-1.5-9.9,0c-1-12.2-2-24.3-3-36.5c-0.1-1-0.1-2-1.1-2.6C483.7,497.4,486,498.4,488,497.9z"
	/>
<path style="fill:none;stroke:#000000;stroke-width:2;stroke-miterlimit:10;" d="M429,536c-0.2,0.8-0.7,1.6-0.6,2.4
	c0.4,5.5-3.1,6.5-7.5,6.6c0.5-12.1-0.5-24.2,0.9-36.3c0.5-4.3,1.8-9.3-1.8-13.3c4.3,0.6,8.6,1.1,13,1.7c-3.3,0.9-4.2,2.9-4.1,6.3
	C429.1,514.3,429,525.1,429,536z"/>
<path style="fill:none;stroke:#000000;stroke-width:2;stroke-miterlimit:10;" d="M450,498.2c0,13.3-0.1,26.5-0.1,39.8
	c-3.1-0.9-6.1-0.6-8.9,1c0-11.1,0.2-22.3-0.1-33.4c-0.1-4.1,0.3-7,5-7.5C447.3,498.1,448.7,498.2,450,498.2z"/>
<path style="fill:none;stroke:#000000;stroke-width:2;stroke-miterlimit:10;" d="M415,540c-5.7,1.9-7.9-0.2-7.1-6.1
	c0.2-1.9-0.5-3.8-0.8-5.8c0-9.5,1.4-18.9,1.1-28.4c-0.1-2.4-0.6-4.5-2.1-6.3c4,0.6,7.9,1.2,11.9,1.7c-2.7,0.9-2.9,3-2.9,5.5
	C415.1,513.8,415,526.9,415,540z"/>
<path style="fill:none;stroke:#000000;stroke-width:2;stroke-miterlimit:10;" d="M521,537c-2.1-2.8-1-6.1-1.3-9.2
	c-1.3-10.2-1.9-20.4-2.6-30.6c-0.1-0.9,0.4-1.9,0.6-2.9c2.3,2.1,3.4-1.8,5.5-1.1c2.3,8.8,2.6,17.8,3.9,26.8
	c0.7,5.3,1.1,10.7,1.7,16.6C525.9,535.9,523.4,536.1,521,537z"/>
<path style="fill:none;stroke:#000000;stroke-width:2;stroke-miterlimit:10;" d="M445.9,498.1c-4.7,0.5-5.1,3.4-5,7.5
	c0.3,11.1,0.1,22.3,0.1,33.4c-0.6,1.9,1.3,5.6-1.8,5.6c-2.7,0-6.1-1.8-5.2-6.1c0.2-0.8,0-1.6,0-2.5c0-13-0.1-26,1-38.9
	C438.7,497.4,442.3,497.8,445.9,498.1z"/>
<path style="fill:none;stroke:#000000;stroke-width:2;stroke-miterlimit:10;" d="M415,540c0-13.1,0.1-26.2,0-39.3
	c0-2.5,0.2-4.5,2.9-5.5c0.7,0.1,1.4,0.2,2.1,0.2c3.5,4,2.3,9,1.8,13.3c-1.4,12.1-0.4,24.2-0.9,36.3C417.2,545.3,414.1,545.1,415,540
	z"/>
<path style="fill:none;stroke:#000000;stroke-width:2;stroke-miterlimit:10;" d="M399,529c0.3,3.8-1.5,7.5-1.1,11.4
	c0.2,1.3,0.6,3.4-1.8,3.3c-2.1-0.1-3.2-1.4-3.2-3.7c0.1-6.3,0-12.7,0-19c1.6-9.8,0.8-19.7,1-29.6c3,0.5,5.9,1.1,8.9,1.6
	c-1.7,1-3,1.8-3.1,4.3C399.4,508,398.7,518.5,399,529z"/>
<path style="fill:none;stroke:#000000;stroke-width:2;stroke-miterlimit:10;" d="M399,529c-0.3-10.5,0.5-21.1,0.9-31.6
	c0.1-2.5,1.4-3.4,3.1-4.3c1,0.1,2,0.2,3,0.4c1.5,1.8,2,3.8,2.1,6.3c0.4,9.5-1,18.9-1.1,28.4C404.2,527.4,401.7,529,399,529z"/>
<path style="fill:none;stroke:#000000;stroke-width:2;stroke-miterlimit:10;" d="M503,526.1c-0.3-0.7-0.9-1.5-0.9-2.2
	c0.3-6.7-0.5-13.4-1.2-20.1c-0.3-3.2,0.6-5.6,3.1-7.5c1-0.1,2-0.2,3-0.2c2.1,1.4,2.9,3.7,2.8,6c-0.2,7.3,0.8,14.6,1.1,21.9
	c-0.5-0.1-1.1,0-1.4-0.3C506.1,521.2,504,522.2,503,526.1z"/>
<path style="fill:none;stroke:#000000;stroke-width:2;stroke-miterlimit:10;" d="M486.1,452c-0.1-9,3.3-12,11.1-11.3
	c2.9,0.3,6-0.2,9-0.3c5.2-0.2,7.9,2.2,7.8,7.4c-0.2,9.1-4.8,16.1-11.4,21.8c-3.3,2.8-7,2.1-9.7-1.2
	C488.8,463.4,486.6,457.6,486.1,452z M512.1,449.6c0.1-5.9-1.7-7.6-6.8-7.1c-3.1,0.3-6.3,0.8-9.4,0c-4.9-1.3-6.9,1.5-7.6,5.5
	c-1.2,7.6,1.8,14,6.5,19.7c1.9,2.2,4.5,2.3,6.7,0.4C507.7,463,511.3,456.5,512.1,449.6z"/>
<path style="fill:none;stroke:#000000;stroke-width:2;stroke-miterlimit:10;" d="M394,491.5c-0.2,9.9,0.5,19.8-1,29.6
	c-7.6-0.1-8-0.8-6.8-8.4c0.9-5.4,1.5-10.8,1.7-16.2c0.1-2.6,0.8-4.3,3.1-5.4C392,491.2,393,491.3,394,491.5z"/>
<path style="fill:none;stroke:#000000;stroke-width:2;stroke-miterlimit:10;" d="M435,497.1c-1.1,13-1,25.9-1,38.9c-1.7,0-3.3,0-5,0
	c0-10.9,0.1-21.7-0.1-32.6c-0.1-3.4,0.8-5.5,4.1-6.3C433.6,497.1,434.3,497.1,435,497.1z"/>
<path style="fill:none;stroke:#000000;stroke-width:2;stroke-miterlimit:10;" d="M115.9,519.1c-2.6-1.3-5.7-0.9-8-3
	c-3.5-3.6-3-8-3-12.4c0.2-29,1.3-57.9,1.2-86.9c0-7.6,0.7-15.2,0.8-22.9c3.4-0.2,5.9,2,8.8,3.2c15.6,6.2,31.8,7.6,48.3,6.8
	c17.5-0.9,33.8-6,48.8-15c0.3,0,0.7,0,1,0c0,8,0,16,0,24c-0.1,10,0.7,20.1-2.8,29.8c-1,2.6,1.9,4.5,2,7.4
	c0.5,22.6-1.6,45.2-1.2,67.8c0,1.6-0.6,3.2-1,4.8c-0.7,0.4-1.4,0.9-2.1,1.3c-5.1-0.4-9.8,2-14.8,2c-0.7,0-1.4,0-2.2,0
	c-0.4-0.1-0.8-0.2-1.1-0.3c-5.3-1.7-10.7-0.6-16-0.6c-4.8,0-9.8-1-14.5,0.7c-0.4,0.1-0.7,0.2-1.1,0.3c-0.7,0-1.4-0.1-2.2-0.1
	c-3,0.2-5.8-1.9-8.8-0.9C137.2,524.1,126.6,521.3,115.9,519.1z M181.1,447.1c0.3,5,2.5,10.7,6.2,15.7c3,3.9,7,4.7,10.8,1.5
	c6.6-5.6,10.6-12.7,10.8-21.5c0.1-5.1-2.7-7.4-8-7.2c-3,0.1-6,0.5-8.9,0.3C184.4,435,181.2,437.9,181.1,447.1z"/>
<path style="fill:none;stroke:#000000;stroke-width:2;stroke-miterlimit:10;" d="M190.8,525.8c0.4,0.1,0.8,0.2,1.1,0.3
	c-0.2,1.9-1.6,1.8-3,1.8c-9,0-17.9,0-26.9,0c-1.4,0-2.8,0.1-3-1.8c0.4-0.1,0.7-0.2,1.1-0.3C170.4,526.6,180.6,526.6,190.8,525.8z"/>
<path style="fill:none;stroke:#000000;stroke-width:2;stroke-miterlimit:10;" d="M194.1,526.1c5,0,9.7-2.4,14.8-2
	C206.2,527.2,197.8,528.4,194.1,526.1z"/>
<path style="fill:none;stroke:#000000;stroke-width:2;stroke-miterlimit:10;" d="M148.1,525.2c3.1-1,5.8,1.1,8.8,0.9
	C153.8,527.1,150.7,528.5,148.1,525.2z"/>
<path style="fill:none;stroke:#000000;stroke-width:2;stroke-miterlimit:10;" d="M469,523c-0.1-6.6-1.4-13.1-1.1-19.8
	c0.1-1.9-0.6-3.9,2.4-3.2c2.4,0.5,6.6-2.1,6.6,3.2c0.1,6.3,0.1,12.6,0.1,18.9C474.3,521.4,471.7,523,469,523z"/>
<path style="fill:none;stroke:#000000;stroke-width:2;stroke-miterlimit:10;" d="M457,524c-0.3-6.6-0.6-13.2-0.9-19.9
	c-0.1-2.3-0.2-4.4,3.2-4.2c3.2,0.1,2.9,2.2,2.7,4.2c-0.5,6.7,1.2,13.2,1,19.9C461,524,459,524,457,524z"/>
<path style="fill:none;stroke:#000000;stroke-width:2;stroke-miterlimit:10;" d="M524.7,571.2c-8.2,0.2-16.5,0.3-24.7,0.5
	c0-0.5,0-1.1,0-1.6c8.6,0.3,17.3-0.8,25.9,0.6C525.5,570.9,525.1,571,524.7,571.2z"/>
<path style="fill:none;stroke:#000000;stroke-width:2;stroke-miterlimit:10;" d="M500,570.1c0,0.5,0,1.1,0,1.6
	c-2.3,0.1-4.7,0.1-7,0.2C495,569.7,497.5,570,500,570.1z"/>
<path style="fill:none;stroke:#000000;stroke-width:2;stroke-miterlimit:10;" d="M524.7,571.2c0.4-0.2,0.8-0.3,1.2-0.5
	c0.1,0.2,0.1,0.4,0.2,0.6C525.6,571.2,525.2,571.2,524.7,571.2z"/>
<path style="fill:none;stroke:#000000;stroke-width:2;stroke-miterlimit:10;" d="M244,362c-3.5,5.1-7.5,9.7-12.5,13.4
	c-1.2,0.9-2.4,1.8-2.4,3.5c-5.2,3-10.3,6.3-15,10.1c-0.3,0-0.7,0-1,0"/>
<path style="fill:none;stroke:#000000;stroke-width:2;stroke-miterlimit:10;" d="M212.9,268.8c0.1-3.7,0.6-5.4,4.6-3.6
	c1.5,0.7,3.1,1.4,4.5-0.2c2.7,0.4,5.3,0.8,8,1.1c1,3.2,3.8,3,6.2,2.7"/>
<path style="fill:none;stroke:#000000;stroke-width:2;stroke-miterlimit:10;" d="M399,569.1c3,0,6,0,8.9,0
	C405,570.4,402,570.5,399,569.1z"/>
<path style="fill:none;stroke:#000000;stroke-width:2;stroke-miterlimit:10;" d="M396,629c-1.7,1.4-3.3,1.4-5,0
	C392.7,628.3,394.3,628.9,396,629z"/>
<path style="fill:none;stroke:#000000;stroke-width:2;stroke-miterlimit:10;" d="M411,569.2c1.3-0.5,2.6-0.6,4,0
	C413.7,570.4,412.4,570.3,411,569.2z"/>
<path style="fill:none;stroke:#000000;stroke-width:2;stroke-miterlimit:10;" d="M387.1,629c-0.3-0.3-0.7-0.5-1-0.8
	C386.4,628.4,386.7,628.7,387.1,629z"/>
<path style="fill:none;stroke:#000000;stroke-width:2;stroke-miterlimit:10;" d="M399.1,630c-0.4-0.3-0.7-0.5-1.1-0.8
	C398.4,629.4,398.7,629.7,399.1,630z"/>
<path style="fill:none;stroke:#000000;stroke-width:2;stroke-miterlimit:10;" d="M424.1,632c-0.3-0.3-0.7-0.5-1-0.8
	C423.7,631,423.9,631.5,424.1,632z"/>
<path style="fill:none;stroke:#000000;stroke-width:2;stroke-miterlimit:10;" d="M501,629.1c-4.1,3.5-8.5,2-13,0.9
	C492.3,629.7,496.7,629.4,501,629.1z"/>
<path style="fill:none;stroke:#000000;stroke-width:2;stroke-miterlimit:10;" d="M516,628.1c-4.1,3.5-8.5,2-13,0.9
	C507.4,628.9,511.6,627.6,516,628.1z"/>
<path style="fill:none;stroke:#000000;stroke-width:2;stroke-miterlimit:10;" d="M297.1,382.9c6,1.8,11.9,1.2,17.8-0.2
	C311,385.9,299.8,386,297.1,382.9z"/>
<path style="fill:none;stroke:#000000;stroke-width:2;stroke-miterlimit:10;" d="M314.8,382.8c0.9-0.4,1.8-0.9,2.7-1.3
	C317.4,383.6,315.9,382.8,314.8,382.8z"/>
<path style="fill:none;stroke:#000000;stroke-width:2;stroke-miterlimit:10;" d="M317.7,381.4c0.6-0.3,1.1-0.6,1.7-0.9
	C319.5,382.1,318.6,381.8,317.7,381.4z"/>
<path style="fill:none;stroke:#000000;stroke-width:2;stroke-miterlimit:10;" d="M319.6,380.3c0.4-0.2,0.8-0.5,1.3-0.7
	C320.7,380.3,320.3,380.6,319.6,380.3z"/>
<path style="fill:none;stroke:#000000;stroke-width:2;stroke-miterlimit:10;" d="M248.8,370.9c0.2-0.8,0.4-1.5,1.2-1.8
	C250,369.9,249.8,370.7,248.8,370.9z"/>
<path style="fill:none;stroke:#000000;stroke-width:2;stroke-miterlimit:10;" d="M271,361.3c2.4,0.4,4.9,0.8,7.7,1.2
	c-0.4,2.9-2.4,3.9-4.9,4.6c-1.4,0.4-3.8,0-2.4,2.8c-1.4-2.9-1.4-2.9,3.7-5.1C274.6,362.5,271.2,363.8,271,361.3z"/>
<path style="fill:none;stroke:#000000;stroke-width:2;stroke-miterlimit:10;" d="M276.9,375.7c0.5,0.3,1,0.6,1.5,0.9
	C277.9,376.4,277.4,376.1,276.9,375.7z"/>
<path style="fill:none;stroke:#000000;stroke-width:2;stroke-miterlimit:10;" d="M164.9,357.9c7.4,0,12.9-1.6,17.6-5.4
	c2.9-2.4,4.9-5.4,5.3-9.3c0.1-1.1,0.3-2.7-1.3-2.8c-1.1-0.1-1.3,1.2-1.5,2.3c-0.8,5.8-4.8,8.9-9.7,11c-8.8,3.7-18.4,1.7-25.2-5.2
	c-0.8-0.8-1.4-2.3-2.7-1.3s-0.1,2.1,0.6,3C152.9,355.7,159.2,357.7,164.9,357.9z"/>
<path style="fill:none;stroke:#000000;stroke-width:2;stroke-miterlimit:10;" d="M95,629c-3.4,1.1-6.9,2.6-10-0.9
	C88.3,628.5,91.7,628.8,95,629z"/>
<path style="fill:none;stroke:#000000;stroke-width:2;stroke-miterlimit:10;" d="M119,631c-3.4,1.1-6.9,2.6-10-0.9
	C112.4,629.5,115.7,630.5,119,631z"/>
<path style="fill:none;stroke:#000000;stroke-width:2;stroke-miterlimit:10;" d="M107,630c-2.3,1.6-4.6,1.4-6.9,0.1
	C102.4,629.7,104.7,629.4,107,630z"/>
<path style="fill:none;stroke:#000000;stroke-width:2;stroke-miterlimit:10;" d="M98.1,630c-0.4-0.3-0.7-0.5-1.1-0.8
	C97.4,629.4,97.8,629.7,98.1,630z"/>
<path style="fill:none;stroke:#000000;stroke-width:2;stroke-miterlimit:10;" d="M39.7,336c0.4,0.3,0.7,0.7,1.1,1
	c-0.6-0.4-1.3-0.7-1.9-1.1C39.2,336,39.5,336,39.7,336z"/>
<path style="fill:none;stroke:#000000;stroke-width:2;stroke-miterlimit:10;" d="M108.9,263c-1.2-5.2-2.8-10.3-1.1-15.8
	c0.6-2,0.6-4.3-1.1-6c0.9-1.3,1.8-2.7,2.7-4c0.4,0,0.8,0.1,1.2,0.1C108,245.8,109.5,254.4,108.9,263z"/>
<path style="fill:none;stroke:#000000;stroke-width:2;stroke-miterlimit:10;" d="M188.4,247.4c-2,1.6-0.3,3.1,0.1,4.7
	c0.5,2,3.2,3.4,1.6,5.9c-2.4-4.3-4.5-8.7-6-13.7C186.2,244.9,187.2,246.2,188.4,247.4z"/>
<path style="fill:none;stroke:#000000;stroke-width:2;stroke-miterlimit:10;" d="M231.7,246.3c-2.5-2.4-4.1-5.5-6.4-9.7
	c4.2,2.4,6.8,4.6,8.9,7.3c-1.3,0.1-2.2,0.6-2.2,2L231.7,246.3z"/>
<path style="fill:none;stroke:#000000;stroke-width:2;stroke-miterlimit:10;" d="M238.2,247.9c-2.2,0.1-2.2,1.8-2.4,3.3
	c-1.6-1.4-3.1-3-4.1-5l0.3-0.3c1.2,0,2.4,0.1,3-1.2C236.1,245.9,237.1,246.9,238.2,247.9z"/>
<path style="fill:none;stroke:#000000;stroke-width:2;stroke-miterlimit:10;" d="M155.3,246.9c-3,2.9,0.3,7.1-2.1,10.1
	c0-4.4,0-8.9,0-14.4C154.1,244.5,154.7,245.7,155.3,246.9z"/>
<path style="fill:none;stroke:#000000;stroke-width:2;stroke-miterlimit:10;" d="M235.1,244.8c-0.7,1.3-1.9,1.2-3,1.2
	c0-1.4,0.9-1.9,2.2-2C234.5,244.2,234.8,244.5,235.1,244.8z"/>
<path style="fill:none;stroke:#000000;stroke-width:2;stroke-miterlimit:10;" d="M212,262.1c-2,1.3-3,0.3-3.5-1.6
	C209.6,261,210.8,261.5,212,262.1z"/>
<path style="fill:none;stroke:#000000;stroke-width:2;stroke-miterlimit:10;" d="M244.5,263.4c1.2-0.1,1.7,0.8,1.8,1.7
	c0.1,0.8-0.7,0.8-1.2,1C244.9,265.1,244.7,264.2,244.5,263.4z"/>
<path style="fill:none;stroke:#000000;stroke-width:2;stroke-miterlimit:10;" d="M76.3,273.9c-1.6-0.5-1.2-1.8-1.2-3
	C76.5,271.5,76.1,272.8,76.3,273.9z"/>
<path style="fill:none;stroke:#000000;stroke-width:2;stroke-miterlimit:10;" d="M92.8,261.8c0.1,1,0,1.9-1.3,1.8
	C91.9,263,92.4,262.4,92.8,261.8z"/>
<path style="fill:none;stroke:#000000;stroke-width:2;stroke-miterlimit:10;" d="M243.4,261.6c1.6-0.2,1.4,0.8,1.1,1.8
	C244.2,262.8,243.8,262.2,243.4,261.6z"/>
<path style="fill:none;stroke:#000000;stroke-width:2;stroke-miterlimit:10;" d="M208.4,260.5c-1,0.4-1.9,0.5-2-0.9
	C207,259.8,207.7,260.2,208.4,260.5z"/>
<path style="fill:none;stroke:#000000;stroke-width:2;stroke-miterlimit:10;" d="M206.4,259.5c-1,0.3-1.9,0.4-1.9-1
	C205.1,258.9,205.7,259.2,206.4,259.5z"/>
<path style="fill:none;stroke:#000000;stroke-width:2;stroke-miterlimit:10;" d="M94.8,258.8c0.1,1,0,1.9-1.3,1.8
	C93.9,259.9,94.4,259.4,94.8,258.8z"/>
<path style="fill:none;stroke:#000000;stroke-width:2;stroke-miterlimit:10;" d="M241.4,258.6c1.5-0.3,1.4,0.7,1.3,1.6
	C242.3,259.7,241.9,259.2,241.4,258.6z"/>
<path style="fill:none;stroke:#000000;stroke-width:2;stroke-miterlimit:10;" d="M204.4,258.5c-1,0.3-1.9,0.5-1.8-1
	C203.1,257.8,203.7,258.1,204.4,258.5z"/>
<path style="fill:none;stroke:#000000;stroke-width:2;stroke-miterlimit:10;" d="M201.2,256.8c-1,0.1-1.8,0-1.9-1.2
	C199.9,256,200.6,256.4,201.2,256.8z"/>
<path style="fill:none;stroke:#000000;stroke-width:2;stroke-miterlimit:10;" d="M104.9,243.8c0,1,0,1.8-1.4,1.7
	C103.9,245,104.4,244.4,104.9,243.8z"/>
<path style="fill:none;stroke:#000000;stroke-width:2;stroke-miterlimit:10;" d="M96.8,255.8c0.1,1,0.1,1.9-1.3,1.7
	C95.9,256.9,96.3,256.3,96.8,255.8z"/>
<path style="fill:none;stroke:#000000;stroke-width:2;stroke-miterlimit:10;" d="M199.3,255.6c-0.9,0.2-1.9,0.3-1.7-1.2
	C198.2,254.9,198.8,255.2,199.3,255.6z"/>
<path style="fill:none;stroke:#000000;stroke-width:2;stroke-miterlimit:10;" d="M246.2,254.9c-1,0-1.9-0.1-1.7-1.4
	C245,253.9,245.6,254.4,246.2,254.9z"/>
<path style="fill:none;stroke:#000000;stroke-width:2;stroke-miterlimit:10;" d="M237.5,253.5c1.4-0.2,1.4,0.7,1.5,1.7
	C238.5,254.6,238,254.1,237.5,253.5z"/>
<path style="fill:none;stroke:#000000;stroke-width:2;stroke-miterlimit:10;" d="M98.8,252.8c0.1,1,0.1,1.9-1.3,1.7
	C97.9,253.9,98.3,253.3,98.8,252.8z"/>
<path style="fill:none;stroke:#000000;stroke-width:2;stroke-miterlimit:10;" d="M195.2,252.9c-1,0-1.8-0.1-1.7-1.4
	C194,252,194.6,252.4,195.2,252.9z"/>
<path style="fill:none;stroke:#000000;stroke-width:2;stroke-miterlimit:10;" d="M100.8,249.8c0.1,1,0.1,1.9-1.3,1.7
	C99.9,250.9,100.3,250.3,100.8,249.8z"/>
<path style="fill:none;stroke:#000000;stroke-width:2;stroke-miterlimit:10;" d="M191.2,249.9c-0.9,0-1.9,0-1.5-1.4
	C190.2,249,190.7,249.4,191.2,249.9z"/>
<path style="fill:none;stroke:#000000;stroke-width:2;stroke-miterlimit:10;" d="M102.8,246.8c0.1,1,0.1,1.9-1.3,1.7
	C101.9,247.9,102.4,247.3,102.8,246.8z"/>
<path style="fill:none;stroke:#000000;stroke-width:2;stroke-miterlimit:10;" d="M77.2,275.9c-1.1-0.4-1.1-1.2-1-2.2
	C77.2,274.2,76.9,275.2,77.2,275.9z"/>
<path style="fill:none;stroke:#000000;stroke-width:2;stroke-miterlimit:10;" d="M106.2,241.7c0.4,0.7,0.1,1-0.6,1
	C105.8,242.3,106,242,106.2,241.7z"/>
<path style="fill:none;stroke:#000000;stroke-width:2;stroke-miterlimit:10;" d="M105.7,242.6c0.1,0.7-0.2,1.1-0.9,1.3
	C105.1,243.5,105.4,243.1,105.7,242.6z"/>
<path style="fill:none;stroke:#000000;stroke-width:2;stroke-miterlimit:10;" d="M93.5,260.6c0.2,0.7,0,1.1-0.7,1.3
	C93,261.4,93.2,261,93.5,260.6z"/>
<path style="fill:none;stroke:#000000;stroke-width:2;stroke-miterlimit:10;" d="M242.7,260.2c0.7,0.2,1,0.5,0.7,1.3
	C243.2,261,242.9,260.6,242.7,260.2z"/>
<path style="fill:none;stroke:#000000;stroke-width:2;stroke-miterlimit:10;" d="M95.4,257.6c0.2,0.7,0,1.1-0.7,1.3
	C95,258.4,95.2,258,95.4,257.6z"/>
<path style="fill:none;stroke:#000000;stroke-width:2;stroke-miterlimit:10;" d="M240.6,257.3c0.7,0.1,1.1,0.4,0.7,1.2
	C241.1,258.1,240.9,257.7,240.6,257.3z"/>
<path style="fill:none;stroke:#000000;stroke-width:2;stroke-miterlimit:10;" d="M248,256c-0.2,0.1-0.4,0.2-0.6,0.4
	c0-0.3,0-0.5,0-0.8C247.7,255.6,247.9,255.7,248,256z"/>
<path style="fill:none;stroke:#000000;stroke-width:2;stroke-miterlimit:10;" d="M239.7,256.1c0.7,0.2,1,0.6,1,1.3
	C240.4,257,240,256.5,239.7,256.1z"/>
<path style="fill:none;stroke:#000000;stroke-width:2;stroke-miterlimit:10;" d="M247.4,255.7c-0.7,0.1-1.1-0.2-1.3-0.8
	C246.5,255.1,247,255.4,247.4,255.7z"/>
<path style="fill:none;stroke:#000000;stroke-width:2;stroke-miterlimit:10;" d="M97.4,254.6c0.2,0.7,0,1.1-0.7,1.3
	C97,255.4,97.2,255,97.4,254.6z"/>
<path style="fill:none;stroke:#000000;stroke-width:2;stroke-miterlimit:10;" d="M197.4,254.3c-0.7,0.3-1,0-1.1-0.6
	C196.6,253.8,197,254.1,197.4,254.3z"/>
<path style="fill:none;stroke:#000000;stroke-width:2;stroke-miterlimit:10;" d="M244.5,253.5c-0.7,0.1-1.1-0.2-1.2-0.9
	C243.6,252.9,244,253.2,244.5,253.5z"/>
<path style="fill:none;stroke:#000000;stroke-width:2;stroke-miterlimit:10;" d="M196.3,253.7c-0.4-0.3-0.8-0.6-1.2-0.9
	C195.5,253.1,195.9,253.4,196.3,253.7z"/>
<path style="fill:none;stroke:#000000;stroke-width:2;stroke-miterlimit:10;" d="M243.4,252.7c-0.7,0-1.1-0.4-1.2-1
	C242.5,252.1,243,252.4,243.4,252.7z"/>
<path style="fill:none;stroke:#000000;stroke-width:2;stroke-miterlimit:10;" d="M236.6,252.3c0.8,0,1.1,0.4,0.9,1.2
	C237.2,253.1,236.9,252.7,236.6,252.3z"/>
<path style="fill:none;stroke:#000000;stroke-width:2;stroke-miterlimit:10;" d="M99.4,251.6c0.3,0.7,0,1.1-0.7,1.2
	C98.9,252.4,99.2,252,99.4,251.6z"/>
<path style="fill:none;stroke:#000000;stroke-width:2;stroke-miterlimit:10;" d="M202.4,257.4c-0.6,0.3-1,0-1.3-0.6
	C201.5,257,202,257.2,202.4,257.4z"/>
<path style="fill:none;stroke:#000000;stroke-width:2;stroke-miterlimit:10;" d="M235.7,251.2c0.7,0.1,1,0.5,1,1.2
	C236.4,252,236,251.6,235.7,251.2z"/>
<path style="fill:none;stroke:#000000;stroke-width:2;stroke-miterlimit:10;" d="M193.4,251.5c-0.7,0.2-1.1-0.1-1.2-0.8
	C192.6,250.9,193,251.2,193.4,251.5z"/>
<path style="fill:none;stroke:#000000;stroke-width:2;stroke-miterlimit:10;" d="M192.3,250.8c-0.4-0.3-0.8-0.6-1.2-1
	C191.5,250.1,191.9,250.4,192.3,250.8z"/>
<path style="fill:none;stroke:#000000;stroke-width:2;stroke-miterlimit:10;" d="M75.1,270.9c-0.2-0.2-0.4-0.4-0.5-0.6
	c0,0,0.2-0.2,0.3-0.3C75,270.3,75,270.6,75.1,270.9z"/>
<path style="fill:none;stroke:#000000;stroke-width:2;stroke-miterlimit:10;" d="M101.4,248.6c0.2,0.7,0,1.1-0.7,1.2
	C100.9,249.4,101.2,249,101.4,248.6z"/>
<path style="fill:none;stroke:#000000;stroke-width:2;stroke-miterlimit:10;" d="M189.4,248.2c-0.7,0.3-0.9,0-0.8-0.7
	C188.8,247.8,189.1,248,189.4,248.2z"/>
<path style="fill:none;stroke:#000000;stroke-width:2;stroke-miterlimit:10;" d="M103.5,245.6c0.2,0.7-0.1,1.1-0.8,1.3
	C103,246.4,103.2,246,103.5,245.6z"/>
<path style="fill:none;stroke:#000000;stroke-width:2;stroke-miterlimit:10;" d="M91.5,263.6c0.1,0.7-0.2,1.1-0.8,1.3
	C91,264.5,91.3,264,91.5,263.6z"/>
<path style="fill:none;stroke:#000000;stroke-width:2;stroke-miterlimit:10;" d="M242.3,251.9c-0.4-0.4-0.8-0.8-1.2-1.1
	C241.5,251.1,241.9,251.5,242.3,251.9z"/>
<path style="fill:none;stroke:#000000;stroke-width:2;stroke-miterlimit:10;" d="M618.5,295.7c-2.9,5.3-5.2,10-8.1,14.3
	c-3.8,5.7-9.6,7-15.7,4c-2.3-1.1-4.5-2.7-6.7-4.1c-7.8-9.1-8.3-19.5-5.7-30.5c3.8-16,5-31.8-2.1-47.5c-4.9-10.8-12.4-17.9-24.3-19.9
	c-3.5-0.9-7-1.8-10.4-2.7c-0.9,2.9,0.1,5.6,1.1,8.3c1.2,3.2,1.6,6.4,0.9,9.8c0.2-0.1,0.3-0.1,0.5-0.1c-0.2,0-0.3,0.1-0.5,0.2
	c-0.5,0.6-1,1.2-1.4,1.8c-0.9,2.8-4,3-5.8,4.7c-5.3,0.4-10.4-0.6-15.2-2.8c-2.7,1.5-1.6,3.8-1.6,6c-0.2,7,3.5,14.1-0.4,21.1
	c0,0.3,0,0.6,0,0.9c0.3,0,0.6,0,0.9,0c3.5-0.5,4,2.6,4.9,4.7c6.2,12.9,10.6,26.4,16,39.7c0.9,2.3,2,4.5,3,6.8c1.1,0.4,1.1,1.2,1,2.1
	c0.6,0,1.1,0.2,0.2,0.8c0,0.7,0,1.4,0,2l0,0c1.1,3.4,2.6,6.9-0.9,9.9c0,1.7,0,3.4,0,5.1c2.6,0.8,2.2,2.3,1,3.9
	c0.2,1,0.5,1.9,0.7,2.9c3.2,6.2,7.3,11.6,13.8,14.7c0.4,0.2,0.7,0.4,1.1,0.5c1.1-0.8,1.2,0.1,1.4,0.8c6,2.9,12.1,3.7,18.8,1.7
	c-8.9-6.3-9.2-6.7-10.3-11.2c1.2,0.5,2.4,1,3.6,1.5c0.6-0.7,0.8-0.4,0.8,0.3c0.9-0.1,1.7,0,2,1l0,0c4.2,1.6,8.3,3.7,12.6,4.6
	c5.5,1.1,13.3-4.8,16.2-11.1c-3.2-2.2-8.2-0.1-10.8-4.8c3.9-0.7,7.4-1.3,11-1.9c7.5-3.5,10.6-9.6,10.8-17.5
	C620.9,309,619.8,302.7,618.5,295.7z M591.2,347.7c0-0.2-0.1-0.3-0.1-0.5h6.6c0,0.2,0,0.3,0,0.5H591.2z"/>
<path style="fill:none;stroke:#000000;stroke-width:2;stroke-miterlimit:10;" d="M548.8,312.2L548.8,312.2L548.8,312.2
	C548.7,312.2,548.7,312.2,548.8,312.2L548.8,312.2z"/>
<path style="fill:none;stroke:#000000;stroke-width:2;stroke-miterlimit:10;" d="M530.1,367.2L530.1,367.2c0.3-0.4,0.7-0.8,1-1.1
	c1.8-1.3,3-3.1,4.3-4.8c5.8-7.6,9.8-16.2,14.4-24.4"/>
<path style="fill:none;stroke:#000000;stroke-width:2;stroke-miterlimit:10;" d="M548.2,330c-0.5,1.5,0.6,2.6,1,3.9"/>
<path style="fill:none;stroke:#000000;stroke-width:2;stroke-miterlimit:10;" d="M548.2,325c-0.7-3.4,0.4-6.6,0.9-10"/>
<path style="fill:none;stroke:#000000;stroke-width:2;stroke-miterlimit:10;" d="M549,313c-0.2-0.2-0.3-0.5-0.3-0.8h0.1l0,0
	c-0.3-0.7-0.7-1.4-1-2.1"/>
<path style="fill:none;stroke:#000000;stroke-width:2;stroke-miterlimit:10;" d="M523.9,259c0.1,0.7-0.3,1-0.9,1.2
	c0,0.3,0,0.6-0.2,0.8c0.5,1.5-0.2,2.7-0.7,4c1.1,1.1,0.9,2.5,0.8,3.8"/>
<path style="fill:none;stroke:#000000;stroke-width:2;stroke-miterlimit:10;" d="M387.6,306.8c-2.5-10-5-19.9-7.5-29.9
	c0.8-0.7,1.5-1.4,2.3-2.1c0.4,0.5,0.8,1,1.2,1.4c0,0,0,0,0,0.1l-0.1-0.1c0.5,0.9,1,1.8,1.4,2.7c1.5,3.3,3.2,6.5,5.9,9
	c1.6,2.3,3,1.7,3.6-0.6c0.5-1.7,0.4-3.5,0.5-5.3c0.1-1,0.2-2,0.4-3l0,0c0.1-1.4,0.2-2.7,0.3-4.1c0.2-1,0.3-2,0.5-3
	c2-0.6,2-1.3,0.2-2.2c0.3-1.9,0.5-3.9,0.8-5.8c1.9-0.5,2.2-1.2,0.3-2.2c1-2.2-0.2-5.2,2.5-6.8c0.4,4,0.8,8,1.1,12
	c-0.2,2.7,1,5.2,1.5,7.8c-3.2,0-4.9,1.4-4.6,4.9c0.5,5.1,0.6,10.2,1.2,15.2"/>
<path style="fill:none;stroke:#000000;stroke-width:2;stroke-miterlimit:10;" d="M540.3,233.8c-5.3,0.4-10.4-0.6-15.2-2.8
	c-0.1-0.3-0.1-0.6-0.1-0.9c5.6-4,12.6-3.2,18.9-4.9c2.7-0.7,1.9,2.3,2.3,3.9C545.2,232,542.1,232.2,540.3,233.8z"/>
<path style="fill:none;stroke:#000000;stroke-width:2;stroke-miterlimit:10;" d="M443.3,260.2c-2,9-4.4,17.9-4.1,27.2
	c0.1,3.4,0.5,6.8,0.8,10.4c-2.3-0.8-3.9-2-5.3-3.7c3.5,0.2,3.5-2.1,3.4-4.6c-0.4-8.6,0.5-17.1,2.9-25.4
	C441.4,262.6,441.5,261,443.3,260.2C443.2,260.1,443.2,260.1,443.3,260.2C443.3,260.1,443.3,260.2,443.3,260.2z"/>
<path style="fill:none;stroke:#000000;stroke-width:2;stroke-miterlimit:10;" d="M401.1,267c-0.4-4-0.8-8-1.1-12
	c0.7-1,2.4-2.6,2.6-0.9C402.9,258.4,404.7,263.1,401.1,267z"/>
<path style="fill:none;stroke:#000000;stroke-width:2;stroke-miterlimit:10;" d="M464.1,270c-3.3-4.5-3.3-9.8-3.9-15
	c1.5,0.1,2.7,0.9,2.7,2.3C462.8,261.6,465.2,265.6,464.1,270z"/>
<path style="fill:none;stroke:#000000;stroke-width:2;stroke-miterlimit:10;" d="M395.8,275c-0.1,1.4-0.2,2.7-0.3,4.1l0,0
	c-0.7,0.9-0.5,2-0.4,3c-0.2,1.8,0,3.7-0.5,5.3c-0.7,2.3-2,2.9-3.6,0.6c3.4-1.5,2.8-4.6,3.1-7.5C394.3,278.7,392.7,276.1,395.8,275z"
	/>
<path style="fill:none;stroke:#000000;stroke-width:2;stroke-miterlimit:10;" d="M490.6,279.2c3.6,2,2.2,5.4,2.3,8.3
	C490.8,285.1,491,282.1,490.6,279.2z"/>
<path style="fill:none;stroke:#000000;stroke-width:2;stroke-miterlimit:10;" d="M484.4,262.2c2.3,2.2,4,4.6,3.1,8.1
	C485.9,267.7,485.1,265,484.4,262.2z"/>
<path style="fill:none;stroke:#000000;stroke-width:2;stroke-miterlimit:10;" d="M447.4,251.3c-1.1,2.3-2.2,4.6-3.2,6.8
	c0,0,0,0,0,0.1v-0.1C444,255.3,443.9,252.4,447.4,251.3L447.4,251.3L447.4,251.3z"/>
<path style="fill:none;stroke:#000000;stroke-width:2;stroke-miterlimit:10;" d="M522.9,261c0.5,1.5-0.2,2.7-0.7,4
	c-0.3,0.8-0.1,1.8-1.1,2.1C521.6,265.1,519.4,262.2,522.9,261z"/>
<path style="fill:none;stroke:#000000;stroke-width:2;stroke-miterlimit:10;" d="M487.4,270.5c3.1,1,2.6,3.4,2.3,5.7
	C488.3,274.6,488,272.5,487.4,270.5z"/>
<path style="fill:none;stroke:#000000;stroke-width:2;stroke-miterlimit:10;" d="M522.2,223.8c2.5,1.1,1.4,3.4,1.7,5.2
	C522.4,227.6,521.8,225.9,522.2,223.8z"/>
<path style="fill:none;stroke:#000000;stroke-width:2;stroke-miterlimit:10;" d="M386,279h-0.5H385c-0.5-0.9-1-1.8-1.4-2.7l0,0l0,0
	C385.4,276.3,385.9,277.5,386,279z"/>
<path style="fill:none;stroke:#000000;stroke-width:2;stroke-miterlimit:10;" d="M397.2,264c0.1-0.7,0.2-1.5,0.3-2.2
	C399.4,262.8,399.1,263.5,397.2,264z"/>
<path style="fill:none;stroke:#000000;stroke-width:2;stroke-miterlimit:10;" d="M521,268c0.7,1.3,0.2,2.6-0.1,4
	C519.6,270.6,519.6,269.3,521,268z"/>
<path style="fill:none;stroke:#000000;stroke-width:2;stroke-miterlimit:10;" d="M396.2,272c0.1-0.7,0.1-1.5,0.2-2.2
	C398.2,270.7,398.3,271.4,396.2,272z"/>
<path style="fill:none;stroke:#000000;stroke-width:2;stroke-miterlimit:10;" d="M519.9,274c0.5,1,0.2,2-0.1,2.9
	C518.7,276,518.7,275,519.9,274z"/>
<path style="fill:none;stroke:#000000;stroke-width:2;stroke-miterlimit:10;" d="M489.6,276.2c1.7,0.5,1.3,1.8,1.1,3.1
	C490.4,278.2,490,277.2,489.6,276.2z"/>
<path style="fill:none;stroke:#000000;stroke-width:2;stroke-miterlimit:10;" d="M444.2,258.1c-0.1,0.8-0.1,1.6-1,2.1c0,0,0,0-0.1,0
	c0,0,0,0,0-0.1C443.1,259.3,443.2,258.5,444.2,258.1L444.2,258.1L444.2,258.1z"/>
<path style="fill:none;stroke:#000000;stroke-width:2;stroke-miterlimit:10;" d="M448.5,249.5c-0.4,0.6-0.8,1.2-1.1,1.8l0,0l0,0
	v-0.1C447.1,250.2,447.1,249.4,448.5,249.5z"/>
<path style="fill:none;stroke:#000000;stroke-width:2;stroke-miterlimit:10;" d="M451.5,245.3c-0.5,0.6-1,1.2-1.4,1.8
	C450.1,246.2,450.2,245.3,451.5,245.3L451.5,245.3L451.5,245.3z"/>
<path style="fill:none;stroke:#000000;stroke-width:2;stroke-miterlimit:10;" d="M519.4,278.1c-0.1,0.6-0.3,1.2-0.4,1.9
	C517.8,279.1,518.1,278.5,519.4,278.1z"/>
<path style="fill:none;stroke:#000000;stroke-width:2;stroke-miterlimit:10;" d="M454,243c-0.1,0.2-0.2,0.4-0.5,0.4
	c-0.1-0.3-0.1-0.5-0.2-0.8C453.6,242.8,453.8,242.9,454,243z"/>
<path style="fill:none;stroke:#000000;stroke-width:2;stroke-miterlimit:10;" d="M453.4,243.4c-0.4,0.3-0.7,0.6-1.1,1l0,0v-0.1
	C452.3,243.6,452.7,243.3,453.4,243.4z"/>
<path style="fill:none;stroke:#000000;stroke-width:2;stroke-miterlimit:10;" d="M452.4,244.3L452.4,244.3
	C452.3,244.4,452.3,244.4,452.4,244.3c-0.4,0.4-0.7,0.7-1,1c0,0,0,0.1-0.1,0.1c0,0,0,0,0-0.1C451.3,244.7,451.7,244.3,452.4,244.3
	L452.4,244.3z"/>
<path style="fill:none;stroke:#000000;stroke-width:2;stroke-miterlimit:10;" d="M523.9,259c0.1,0.7-0.3,1-0.9,1.2
	c0-0.4,0-0.8-0.1-1.2C523.3,259,523.6,259,523.9,259z"/>
<path style="fill:none;stroke:#000000;stroke-width:2;stroke-miterlimit:10;" d="M523,258.1c0,0.3,0,0.6,0,0.9
	c-0.1-0.2-0.3-0.4-0.4-0.7C522.7,258.3,522.8,258.2,523,258.1z"/>
<path style="fill:none;stroke:#000000;stroke-width:2;stroke-miterlimit:10;" d="M449.3,248.1c-0.3,0.4-0.6,0.9-0.9,1.3
	C448.3,248.7,448.7,248.3,449.3,248.1z"/>
<path style="fill:none;stroke:#000000;stroke-width:2;stroke-miterlimit:10;" d="M272.2,340.1c4.6-3.7,7.9-9,14.1-10.7
	c2.9-0.8,5.7-1.6,8.8-1.2c-3.9,10.5-8.9,14.3-18,14C275.1,342,273.5,341.6,272.2,340.1z"/>
<path style="fill:none;stroke:#000000;stroke-width:2;stroke-miterlimit:10;" d="M333,256.5c-0.1,1-0.6,1.6-1.2,2.2
	c-0.4,0.3-0.8,0.7-1.3,1c-0.2,0.1-0.5,0.3-0.7,0.5s-0.4,0.3-0.6,0.5s-0.4,0.4-0.5,0.6c-2.2-0.8-4.5-0.1-6.8-0.2
	c-3.8-0.8-7.2-2.3-8.9-6.2c3.7-5.5,9.1-2.6,13.7-2.2C329,252.8,333.5,251.3,333,256.5z"/>
<path style="fill:none;stroke:#000000;stroke-width:2;stroke-miterlimit:10;" d="M259.9,337.1c-0.3,0-0.6,0-0.9-0.1
	c0-4.2,0-8.5,0-12.7c0.2,0,0.4,0,0.7-0.1c0.2,2.1,0.4,4.2,0.6,6.3C260.1,332.7,260,334.9,259.9,337.1z"/>
<path style="fill:none;stroke:#000000;stroke-width:2;stroke-miterlimit:10;" d="M306.6,372.6c0.3-0.1,0.6-0.1,0.9-0.2
	c-0.1,0.2-0.2,0.4-0.4,0.6C306.9,372.9,306.8,372.8,306.6,372.6z"/>
<path style="fill:none;stroke:#000000;stroke-width:2;stroke-miterlimit:10;" d="M246,359c0,0.8-0.2,1.6-1.1,1.9
	C245,360.1,245.2,359.4,246,359z"/>
<path style="fill:none;stroke:#000000;stroke-width:2;stroke-miterlimit:10;" d="M383.7,276.3L383.7,276.3
	C383.7,276.3,383.6,276.3,383.7,276.3c-0.5-0.5-0.9-1-1.3-1.4c-1.1-2.2-2.1-4.4-3.1-6.6c-0.6-1.3-1.2-2-2.2-0.3H377
	c-1.5-0.2-2-1-1.3-2.4c0.5-0.9,0.8-2,1.9-2.2c1.3-0.3,1.8,0.9,2,1.8C380.3,269.2,383.8,272.1,383.7,276.3z"/>
<path style="fill:none;stroke:#000000;stroke-width:2;stroke-miterlimit:10;" d="M363.5,295.4c-2.3-1.7-4.5-3.6-5.8-6.2
	c0,0,0,0,0.1,0C360.7,290.3,363.9,291.2,363.5,295.4z"/>
<path style="fill:none;stroke:#000000;stroke-width:2;stroke-miterlimit:10;" d="M369.9,300.1c-0.5-0.2-1.1-0.4-1.6-0.5l0.1,0.1
	c0,0-0.1,0-0.1-0.1c-0.4-0.3-0.7-0.5-1.1-0.8l-0.1-0.1c-0.3-0.3-0.7-0.5-1-0.8c-0.5-0.5-0.9-1.1-1.4-1.6l0,0l0,0l0,0l0,0
	c0.3-0.1,0.6-0.1,0.9-0.2c1.1-0.1,1.9,0.3,2.6,0.9c0.1,0.1,0.2,0.2,0.3,0.3c0.1,0.1,0.2,0.2,0.2,0.3c0.2,0.2,0.3,0.4,0.4,0.6
	s0.3,0.4,0.4,0.7c0.2,0.3,0.3,0.7,0.5,1.1L369.9,300.1z"/>
<path style="fill:none;stroke:#000000;stroke-width:2;stroke-miterlimit:10;" d="M374.9,303.2c-0.8-0.3-1.6-0.7-2.4-1h-0.2l0,0
	c-0.3-0.2-0.7-0.4-1-0.6c0,0,0,0,0,0.1l0,0l0,0l0,0c-0.4-0.3-0.8-0.5-1.2-0.8l-0.1-0.1c0,0,0.1,0,0.1,0.1c-0.1-0.3-0.2-0.5-0.3-0.8
	l0.1-0.1C372.4,299.9,374.1,300.8,374.9,303.2L374.9,303.2L374.9,303.2z"/>
<path style="fill:none;stroke:#000000;stroke-width:2;stroke-miterlimit:10;" d="M381.5,307.5c-1.2-0.8-2.3-1.6-3.5-2.3
	c0,0,0,0-0.1,0C379.4,305.4,382.1,303.9,381.5,307.5z"/>
<path style="fill:none;stroke:#000000;stroke-width:2;stroke-miterlimit:10;" d="M376.7,304.4c-0.6-0.4-1.2-0.8-1.9-1.2
	c0,0-0.1,0-0.1-0.1h0.1C375.8,303.1,376.6,303.2,376.7,304.4L376.7,304.4z"/>
<path style="fill:none;stroke:#000000;stroke-width:2;stroke-miterlimit:10;" d="M364.8,296.4C364.7,296.4,364.7,296.3,364.8,296.4
	C364.7,296.3,364.7,296.3,364.8,296.4L364.8,296.4L364.8,296.4L364.8,296.4c-0.4-0.3-0.8-0.6-1.2-0.9l0,0c0.2,0,0.4,0,0.5,0
	s0.2,0.1,0.3,0.1l0.1,0.1c0,0,0,0,0,0.1c0.1,0.1,0.1,0.1,0.1,0.2C364.7,296,364.7,296.2,364.8,296.4
	C364.7,296.3,364.7,296.3,364.8,296.4C364.8,296.3,364.8,296.3,364.8,296.4z"/>
<path style="fill:none;stroke:#000000;stroke-width:2;stroke-miterlimit:10;" d="M548,227.2c-0.2,0-0.3,0.1-0.5,0.2l0,0
	C547.7,227.3,547.8,227.3,548,227.2z"/>
<path style="fill:none;stroke:#000000;stroke-width:2;stroke-miterlimit:10;" d="M591.2,347.2c2.2,0,4.4,0,6.6,0c0,0.2,0,0.3,0,0.5
	c-2.2,0-4.4,0-6.6,0C591.2,347.5,591.2,347.3,591.2,347.2z"/>
<path style="fill:none;stroke:#000000;stroke-width:2;stroke-miterlimit:10;" d="M58.9,348.3c-0.3-0.4-0.6-0.8-0.9-1.3
	C58.3,347.4,58.6,347.8,58.9,348.3z"/>
<path style="fill:none;stroke:#000000;stroke-width:2;stroke-miterlimit:10;" d="M530.1,367.1c0.4-0.3,0.7-0.7,1.1-1
	C530.8,366.4,530.4,366.7,530.1,367.1z"/>
<path style="fill:none;stroke:#000000;stroke-width:2;stroke-miterlimit:10;" d="M449.6,370.1c-7.6,0-13.7-2-18.5-7.3
	c-0.8-0.8-2.6-1.9-1.2-3.2c1.5-1.5,2.2,0.5,3,1.3c6.8,6.9,17.4,8.8,26.1,4.6c4.6-2.2,7.9-5.4,8.8-10.6c0.2-1,0.3-2.3,1.6-2.1
	c1.5,0.2,1.3,1.6,1.2,2.8c-0.7,6.7-8.1,13-16.7,14.2C452.2,370,450.6,370,449.6,370.1z"/>
<path style="fill:none;stroke:#000000;stroke-width:2;stroke-miterlimit:10;" d="M369.9,300.1c0.1,0.3,0.2,0.5,0.3,0.8
	c-1,0.1-1.9,0-1.9-1.3C368.8,299.7,369.4,299.9,369.9,300.1z"/>
<path style="fill:none;stroke:#000000;stroke-width:2;stroke-miterlimit:10;" d="M366.1,298c0.4,0.3,0.8,0.6,1.1,0.9
	C366.8,298.6,365.3,299.8,366.1,298z"/>
<path style="fill:none;stroke:#000000;stroke-width:2;stroke-miterlimit:10;" d="M371.4,301.6c0.3,0.2,0.7,0.4,1,0.6
	C371.6,302.7,371.4,302.3,371.4,301.6z"/>
<path style="fill:none;stroke:#000000;stroke-width:2;stroke-miterlimit:10;" d="M367.1,298.8c0.4,0.3,0.8,0.6,1.3,0.9
	C367.7,299.7,367.3,299.4,367.1,298.8z"/>
<path style="fill:none;stroke:#000000;stroke-width:2;stroke-miterlimit:10;" d="M370.1,300.8c0.4,0.3,0.9,0.6,1.3,0.8
	C370.7,301.7,370.3,301.4,370.1,300.8z"/>
<path style="fill:none;stroke:#000000;stroke-width:2;stroke-miterlimit:10;" d="M512.1,449.6c-0.8,6.9-4.5,13.4-10.6,18.5
	c-2.2,1.8-4.8,1.8-6.7-0.4c-4.7-5.7-7.7-12.1-6.5-19.7c0.6-4,2.6-6.8,7.6-5.5c3.1,0.8,6.3,0.3,9.4,0
	C510.4,442,512.2,443.7,512.1,449.6z M499.9,444.1c-1,2.9-1.6,5.4-4.3,7.3c-2,1.4-2,4.4-0.4,6.3c2,2.2,4.1,4.2,5,7.3
	c0.6-2.6,0.7-4.9,3.1-6.7c1.9-1.5,2.4-4.7,0.5-6.3C501.2,449.9,500.8,447.2,499.9,444.1z"/>
<path style="fill:none;stroke:#000000;stroke-width:2;stroke-miterlimit:10;" d="M181.1,447.1c0.1-9.2,3.3-12.1,11-11.3
	c2.9,0.3,6-0.1,8.9-0.3c5.2-0.2,8.1,2.1,8,7.2c-0.2,8.8-4.3,16-10.8,21.5c-3.8,3.2-7.8,2.5-10.8-1.5
	C183.6,457.8,181.4,452.1,181.1,447.1z M183,447.1c0.4,5,2.5,10.3,6.2,15c2.1,2.6,4.8,3.3,7.4,1c6.1-5.3,10.2-11.8,10.5-20.1
	c0.1-3.9-1.9-5.8-5.9-5.6c-3,0.2-6,0.5-8.9,0.3C185.4,437.1,183,439.2,183,447.1z"/>
<path style="fill:none;stroke:#000000;stroke-width:2;stroke-miterlimit:10;" d="M190.8,525.8c-10.2,0.7-20.4,0.8-30.6,0
	c4.8-1.7,9.7-0.7,14.5-0.7C180.1,525.2,185.5,524.1,190.8,525.8z"/>
<path style="fill:none;stroke:#000000;stroke-width:2;stroke-miterlimit:10;" d="M164.9,357.9c-5.7-0.2-12.1-2.2-16.8-7.8
	c-0.7-0.8-1.9-1.9-0.6-3c1.3-1.1,1.9,0.5,2.7,1.3c6.8,6.9,16.4,8.9,25.2,5.2c5-2.1,8.9-5.2,9.7-11c0.1-1.1,0.3-2.3,1.5-2.3
	c1.6,0.1,1.4,1.6,1.3,2.8c-0.4,3.8-2.4,6.9-5.3,9.3C177.8,356.3,172.3,357.9,164.9,357.9z"/>
<path style="fill:none;stroke:#000000;stroke-width:2;stroke-miterlimit:10;" d="M548.2,325c-0.7-3.4,0.4-6.6,0.9-9.9
	C550.1,318.5,551.7,321.9,548.2,325z"/>
<path style="fill:none;stroke:#000000;stroke-width:2;stroke-miterlimit:10;" d="M549.1,334c-0.3-1.3-1.5-2.4-1-3.9
	C550.8,330.8,550.3,332.3,549.1,334z"/>
<path style="fill:none;stroke:#000000;stroke-width:2;stroke-miterlimit:10;" d="M548.8,312.2L548.8,312.2L548.8,312.2
	c-0.3-0.7-0.7-1.4-1-2.1C548.9,310.4,548.9,311.3,548.8,312.2z"/>
<path style="fill:none;stroke:#000000;stroke-width:2;stroke-miterlimit:10;" d="M549,313c-0.2-0.2-0.3-0.5-0.3-0.8h0.1l0,0
	C549.4,312.3,549.8,312.4,549,313z"/>
<path style="fill:none;stroke:#000000;stroke-width:2;stroke-miterlimit:10;" d="M377.1,267.9c1-1.7,1.6-0.9,2.2,0.3
	c1,2.2,2.1,4.4,3.1,6.6c-0.8,0.7-1.5,1.4-2.3,2.1C378.7,274.1,379.2,270.6,377.1,267.9z"/>
<path style="fill:none;stroke:#000000;stroke-width:2;stroke-miterlimit:10;" d="M395.1,282.1c-0.1-1-0.3-2.1,0.4-3
	C395.3,280.1,395.2,281.1,395.1,282.1z"/>
<path style="fill:none;stroke:#000000;stroke-width:2;stroke-miterlimit:10;" d="M499.9,444.1c0.9,3.1,1.3,5.8,3.9,8
	c1.9,1.6,1.4,4.7-0.5,6.3c-2.3,1.8-2.5,4-3.1,6.7c-0.9-3-3.1-5-5-7.3c-1.7-1.9-1.6-4.9,0.4-6.3C498.3,449.5,498.9,447,499.9,444.1z
	 M499.6,458c2,0.2,3-1.4,3.2-3.3c0.2-2.1-1.3-3.5-3.2-3.6c-2.2-0.1-3,1.9-3.2,3.7C496.2,456.6,497.3,458,499.6,458z"/>
<path style="fill:none;stroke:#000000;stroke-width:2;stroke-miterlimit:10;" d="M183,447.1c0-7.9,2.3-9.9,9.2-9.4
	c3,0.2,6-0.1,8.9-0.3c4-0.2,6,1.7,5.9,5.6c-0.3,8.3-4.4,14.8-10.5,20.1c-2.6,2.2-5.3,1.6-7.4-1C185.5,457.4,183.4,452,183,447.1z
	 M194.8,440.7c-0.2,4-6.1,5-5.5,9.8c0.6,4.1,5.6,5.3,5.6,8.6C200.4,453.5,200.8,447.1,194.8,440.7z"/>
<path style="fill:none;stroke:#000000;stroke-width:2;stroke-miterlimit:10;" d="M499.6,458c-2.4-0.1-3.4-1.4-3.2-3.2
	c0.1-1.8,1-3.8,3.2-3.7c2,0.1,3.4,1.5,3.2,3.6C502.6,456.7,501.6,458.2,499.6,458z"/>
<path style="fill:none;stroke:#000000;stroke-width:2;stroke-miterlimit:10;" d="M194.8,440.7c6,6.3,5.6,12.8,0.1,18.3
	c0-3.2-5-4.5-5.6-8.6C188.7,445.7,194.6,444.7,194.8,440.7z M197.8,449.8c-0.7-1.7-1.1-3.8-3.5-3.6c-2.2,0.2-3,2.1-2.9,4
	c0.1,1.8,1.3,2.9,3.3,2.8C196.8,452.9,197.4,451.5,197.8,449.8z"/>
<path style="fill:none;stroke:#000000;stroke-width:2;stroke-miterlimit:10;" d="M197.8,449.8c-0.3,1.7-0.9,3.1-3,3.2
	s-3.3-1-3.3-2.8c-0.1-1.8,0.7-3.8,2.9-4C196.7,446,197.1,448.1,197.8,449.8z"/>
<circle style="fill:none;stroke:#000000;stroke-width:2;stroke-miterlimit:10;" cx="115.1" cy="311.8" r="18.8"/>
<circle style="fill:none;stroke:#000000;stroke-width:2;stroke-miterlimit:10;" cx="205.2" cy="303.1" r="18.8"/>
<circle style="fill:none;stroke:#000000;stroke-width:2;stroke-miterlimit:10;" cx="400" cy="328" r="18.8"/>
<circle style="fill:none;stroke:#000000;stroke-width:2;stroke-miterlimit:10;" cx="491.8" cy="321.9" r="18.8"/>
</svg>
