<?xml version="1.0" encoding="utf-8"?>
<!-- Generator: Adobe Illustrator 17.0.0, SVG Export Plug-In . SVG Version: 6.00 Build 0)  -->
<!DOCTYPE svg PUBLIC "-//W3C//DTD SVG 1.1//EN" "http://www.w3.org/Graphics/SVG/1.1/DTD/svg11.dtd" [
	<!ENTITY ns_flows "http://ns.adobe.com/Flows/1.0/">
	<!ENTITY ns_extend "http://ns.adobe.com/Extensibility/1.0/">
	<!ENTITY ns_ai "http://ns.adobe.com/AdobeIllustrator/10.0/">
	<!ENTITY ns_graphs "http://ns.adobe.com/Graphs/1.0/">
]>
<svg version="1.1" id="Layer_1" xmlns:x="&ns_extend;" xmlns:i="&ns_ai;" xmlns:graph="&ns_graphs;"
	 xmlns="http://www.w3.org/2000/svg" xmlns:xlink="http://www.w3.org/1999/xlink" xmlns:a="http://ns.adobe.com/AdobeSVGViewerExtensions/3.0/"
	 x="0px" y="0px" width="612px" height="792px" viewBox="0 0 612 792" style="enable-background:new 0 0 612 792;"
	 xml:space="preserve">
<g>
	<path style="fill:none;stroke:#000000;stroke-miterlimit:10;" d="M494.6,342.4c-0.6-1.7-1.5-3.5-2.4-5.2
		c-5.8-11.9-13.4-22.7-22.7-31.9c-9.3-9.3-20.1-16.8-31.9-22.7c-1.7-0.9-3.5-1.5-5.2-2.4c-6-2.6-12.5-4.7-19-6.3
		c-8.4-1.9-17.3-3-26.3-3H224.7c-16.2,0-31.5,3.2-45.3,9.3c-1.7,0.6-3.5,1.5-5.2,2.4c-11.9,5.6-22.7,13.4-31.9,22.7
		c-9.3,9.3-16.8,20.1-22.7,31.9c-0.9,1.7-1.5,3.5-2.4,5.2c-5.8,14-9.3,29.4-9.3,45.3v16.4c0,64.5,52.2,116.6,116.6,116.6h162.3
		c64.3,0,116.6-52.2,116.6-116.6v-16.4C503.8,371.7,500.6,356.4,494.6,342.4z M460.5,401.3c0,0.6,0,1.5,0,2.2
		c-0.9,46.4-38.6,83.8-85.3,83.8H236.8c-46.6,0-84.4-37.3-85.3-83.8c0-0.6,0-1.5,0-2.2v-12.1c0-0.4,0-1.1,0-1.5
		c0.4-23.1,9.9-43.8,25-58.9c15.5-15.5,36.7-25,60.4-25h138.4c23.5,0,44.9,9.5,60.4,25c15.1,15.1,24.6,35.8,25,58.9
		c0,0.4,0,1.1,0,1.5v12.1H460.5z"/>
	<path style="fill:none;stroke:#000000;stroke-miterlimit:10;" d="M460.5,387.7c0,0.4,0,1.1,0,1.5v12.1c0,0.6,0,1.5,0,2.2
		c-0.9,46.4-38.6,83.8-85.3,83.8H236.8c-46.6,0-84.4-37.3-85.3-83.8c0-0.6,0-1.5,0-2.2v-12.1c0-0.4,0-1.1,0-1.5
		c0.4-23.1,9.9-43.8,25-58.9c15.5-15.5,36.7-25,60.4-25h138.4c23.5,0,44.9,9.5,60.4,25C450.7,344.1,460,364.8,460.5,387.7z"/>
	<path style="fill:none;stroke:#000000;stroke-miterlimit:10;" d="M460.5,389.2v12.1c0,0.6,0,1.5,0,2.2
		c-0.9,46.4-38.6,83.8-85.3,83.8H236.8c-46.6,0-84.4-37.3-85.3-83.8c0-0.6,0-1.5,0-2.2v-12.1c0-0.4,0-1.1,0-1.5
		c1.1-46.2,38.9-83.1,85.3-83.1h138.4c46.4,0,84.2,37.1,85.3,83.1C460.5,388.3,460.5,388.8,460.5,389.2z"/>
	<path style="fill:none;stroke:#000000;stroke-miterlimit:10;" d="M460.5,389.2v12.1c0,0.6,0,1.5,0,2.2
		c-0.9,46.4-38.6,83.8-85.3,83.8H236.8c-46.6,0-84.4-37.3-85.3-83.8c0-0.6,0-1.5,0-2.2v-12.1c0-0.4,0-1.1,0-1.5
		c1.1-46.2,38.9-83.1,85.3-83.1h138.4c46.4,0,84.2,37.1,85.3,83.1C460.5,388.3,460.5,388.8,460.5,389.2z"/>
	<path style="fill:none;stroke:#000000;stroke-miterlimit:10;" d="M151.3,403.7c0.6,22.7,9.9,43.2,25,58.1
		c15.5,15.3,36.7,25,60.4,25h61.1h77.3c23.5,0,44.9-9.5,60.4-25c14.9-14.9,24.4-35.4,25-58.1"/>
</g>
<path style="fill:none;stroke:#000000;stroke-miterlimit:10;" d="M414.3,267.9c0,2.2-0.2,4.3-0.9,6.3c-8.4-1.9-17.3-3-26.3-3h-24.4
	c-0.2-1.1-0.2-2.2-0.2-3.2c0-14.2,11.7-25.9,25.9-25.9S414.3,253.4,414.3,267.9z"/>
<circle style="fill:none;stroke:#000000;stroke-miterlimit:10;" cx="451" cy="259.2" r="17.3"/>
<circle style="fill:none;stroke:#000000;stroke-miterlimit:10;" cx="425.3" cy="200.1" r="11"/>
</svg>
