<?xml version="1.0" encoding="utf-8"?>
<!-- Generator: Adobe Illustrator 17.0.0, SVG Export Plug-In . SVG Version: 6.00 Build 0)  -->
<!DOCTYPE svg PUBLIC "-//W3C//DTD SVG 1.1//EN" "http://www.w3.org/Graphics/SVG/1.1/DTD/svg11.dtd" [
	<!ENTITY ns_flows "http://ns.adobe.com/Flows/1.0/">
	<!ENTITY ns_extend "http://ns.adobe.com/Extensibility/1.0/">
	<!ENTITY ns_ai "http://ns.adobe.com/AdobeIllustrator/10.0/">
	<!ENTITY ns_graphs "http://ns.adobe.com/Graphs/1.0/">
]>
<svg version="1.1" id="Layer_1" xmlns:x="&ns_extend;" xmlns:i="&ns_ai;" xmlns:graph="&ns_graphs;"
	 xmlns="http://www.w3.org/2000/svg" xmlns:xlink="http://www.w3.org/1999/xlink" xmlns:a="http://ns.adobe.com/AdobeSVGViewerExtensions/3.0/"
	 x="0px" y="0px" width="612px" height="792px" viewBox="0 0 612 792" style="enable-background:new 0 0 612 792;"
	 xml:space="preserve">
<path style="fill:#FFFFFF;stroke:#000000;stroke-width:2;stroke-miterlimit:10;" d="M132.2,417.9c0,0-3.5-2-7.4-1.6
	c0,0-2.4-1.2-5.7-1s-8.2,2.2-11.2,11.1c0,0-9,4.2-13,6.9c-4.2,2.9-12.6,4.2-21.2,11.8s-21.4,12.2-20.4,16.4c1,4.2,15.5-4.8,27.6-8.1
	s13-0.5,13-0.5s-0.2,2.5,1.3,4.3c1.6,1.8,5.6,3.3,7.3,4.9c1.7,1.6,4.5,1.6,4.5,1.6s-6.8-4.5-8.2-6.6c-1.4-2,1-4.5,1-4.5
	s14.5-1.3,18.6-8s5.5-13.3,4.4-19.2C121.4,419.5,132.2,417.9,132.2,417.9z"/>
<path style="fill:#FFFFFF;stroke:#000000;stroke-width:2;stroke-miterlimit:10;" d="M305.3,532c0,0,3.2-1.9,7.1-1.6
	c0,0,2.3-1.2,5.4-1s7.8,2,10.6,10.4c0,0,8.5,3.9,12.3,6.6c3.9,2.6,11.8,3.9,20,11.2c8.1,7.2,20.2,11.5,19.2,15.5
	c-1,3.9-14.6-4.5-26.1-7.7c-11.4-3.1-12.2-0.5-12.2-0.5s0.2,2.4-1.2,4.1c-1.4,1.7-5.3,3.1-6.9,4.7c-1.6,1.6-4.3,1.6-4.3,1.6
	s6.5-4.3,7.8-6.2c1.3-1.9-0.8-4.3-0.8-4.3s-13.6-1.2-17.6-7.7c-3.9-6.3-5.3-12.6-4.2-18.2C315.4,533.6,305.3,532,305.3,532z"/>
<g>
	<g>
		<path style="fill:#FFFFFF;stroke:#000000;stroke-width:2;stroke-miterlimit:10;" d="M376.2,684.8c3.8,1.6,8.8,1.8,14.5,1.6
			c-2.4-3.3-1.3-10.2-4.2-13c-18.4-1.4-31.1-8.6-53.4-6.2c-2.3-3.5-3.9-7.7-8.6-8.7c-0.6,0-1.1,0-1.7,0c-1.4,2.9-3.1,5.6-5,8.1
			c-0.5,1.8,4.1,2.2,6.2,1.3c0.4-0.5,0.7-1,1.1-1.3c0.1,0.6-0.2,1.1-1.1,1.3c-7.5,9.7-23.1,21-29.8,35.5h23.5
			c0.7-3.3,0.8-6.9,0-10.9c6.2,1.1,4.3,5.9,2.6,10.9h80.1c-3.6-4.8-7.4-9.6-11.4-14C383.7,688.9,376.2,690.5,376.2,684.8z"/>
		<path style="fill:#FFFFFF;stroke:#000000;stroke-width:2;stroke-miterlimit:10;" d="M277.9,695.4c-1.4-15.3-16.5-25.7-21-38.1
			l-9.4,4.1l-6.7-5l-16.5,4.2l-9.8,2.4c1.2,1.2,2.5,2.3,3.7,3.5c-22.6,2.5-36.1,14-44.8,30.4c12.7,1.2,17.5,1.3,26.1,1.4
			c3.7-1.1,5-4.7,4.3-10.2c5.3,1.8,3.1,5.5,10.2,2.9c3.1-1.2,2.3-6.3,4.3-8.7c6,12.3-13.9,11.2-15.9,20.2c0.1,0.2,0.1,0.5,0.2,0.7
			h86.2C286.6,699,281.4,698.1,277.9,695.4z"/>
		<path style="fill:#FFFFFF;stroke:#000000;stroke-width:2;stroke-miterlimit:10;" d="M25.9,541.5c-3.6,2.5-6.9,4.9-8.6,6.3
			c-6.5,5.5-4.1,8.5-16.9,15.5l-0.1-0.1v4.4C7.7,558.7,19.4,551.2,25.9,541.5z"/>
		<path style="fill:#FFFFFF;stroke:#000000;stroke-width:2;stroke-miterlimit:10;" d="M37.7,533.5c3.5-0.5,5.3-2.4,10-1.4
			c2.5-1.3,2.6-5,4.3-7.2l0,0c-4.8,2.5-9,4.9-10,5.7C41.2,531,39.7,532,37.7,533.5z"/>
		<path style="fill:#FFFFFF;stroke:#000000;stroke-width:2;stroke-miterlimit:10;" d="M52,530.6c4.5,0.2,4.8-3.8,10.2-2.9
			c-1.2,7.8-5.5,15.8,1.4,20.2c4.9-10.9,1.6-19.4-3.3-27.5c-2.3,1.2-4.8,2.5-7.2,3.8C52.8,526.2,52.2,529.2,52,530.6z"/>
		<path style="fill:#FFFFFF;stroke:#000000;stroke-width:2;stroke-miterlimit:10;" d="M62.4,519.4c2.3,3.7,4.4,7.5,5.5,11.2
			c5.5-1.4,4.1-9.7,4.3-16.4c-1.3,1.1-2.5,1.8-3.1,1.9C68.1,516.5,65.6,517.7,62.4,519.4z"/>
		<path style="fill:#FFFFFF;stroke:#000000;stroke-width:2;stroke-miterlimit:10;" d="M13.9,545.3c3.2-5.9,10.5-10.9,16.6-14.1
			c0.6-2.9,0.6-5.9-0.1-9.2c3.1-0.2,0.6,5.1,1.4,7.2c5.4-0.4,3.9-7.6,10.2-7.2c-0.6,2.2-1.8,3.7-3.1,5.1c0.7-0.2,1.1-0.5,1.1-0.5
			l18.3-9.4c-3.2-4.9-6.6-9.7-8.7-14.9c-5,2.3-10.3,3.8-10.3,3.8s-11.8-2.3-18.8-3.2c-2.9,4.3-6.9,11.1-6.5,14.3
			c0.7,4.8-4.2,15.4-4.2,15.4s-3.1,2.7-4.7,5.4c-0.7,1.3-3,3.6-4.8,6.1v10.2C4.8,553.7,10.5,551.4,13.9,545.3z"/>
		<path style="fill:#FFFFFF;stroke:#000000;stroke-width:2;stroke-miterlimit:10;" d="M263.6,575.2c2.9-2.6,5.4-5.6,7.6-8.8
			l-32.2-3.2l-23.2,3.3l-17.7,5.1l-15.3-9.7l-9.2,0.5c-2.4,2-7.6,1.1-11.8,1.3c-8.5,9.3-16,19.6-23.1,30.4c8,2.7,18.9-4.2,26.1-7.2
			c-1.6,3.8-5.7,4.9-7.2,8.7c-27.1-1.6-33.5,17.6-40.4,36.1c19.7-4.8,60.5-1.2,57.7-33.2c7.5,4.1,6.3-11.6,10.2-15.9
			c2.4,4.3-7.2,15.4-1.4,23.1c7.3-3.7,4.8-17.3,14.5-18.8c-6.1,8.4-7.6,21.2-20.2,23.1c-0.8,8,4.8,9.7,5.7,15.9
			c8.8-6.6,13.6-17.2,26.1-20.2c4.4-13.4,23.2-12.4,28.9-24.5c4.9,0.6,0.8,6.8,0,10.2c-10,1.1-19.6,2.5-21.6,11.6
			c15.9-8.8,33.8-15.5,46.7-27.4h-0.1L263.6,575.2z"/>
		<path style="fill:#FFFFFF;stroke:#000000;stroke-width:2;stroke-miterlimit:10;" d="M154.6,555.1c2.5-13.6-9.3-25.1-11.6-36.1
			c-14-1.9-24.6-7.2-27.5-20.2c-15.3,9.1-24.1,21.6-27.5,40.4c-0.6,3.7,2,8,1.4,11.6c-1.7,9.9-15.4,12.3-15.9,23.1
			c4.7,10.3,8.5,21.4,11.6,33.2c4.4-9.1,9.1-17.9,21.6-18.8c8.1-14.5-16-31.8,0-40.4c-8.1,10.6,4.3,19,2.9,31.8
			c6.3-1.4,3.2-12.2,10.2-13c1.7,3.8-4.4,6.2,1.4,5.7c12-1.3-0.7-16.5,4.3-23.1c2.3,4.5,2.3,11.2,2.9,17.3c5.4,4.3,5.3-6.6,10.2-7.2
			c-0.5,13-12.8,14.1-23.1,17.3c-1.9,11.5-11.2,15.8-21.6,18.8c-3.9,10.4-11.5,18.5-8.7,31.8c14.8,9.7,21.4-7.1,27.5-15.9
			C123.4,595.7,151.6,571.6,154.6,555.1z"/>
		<path style="fill:#FFFFFF;stroke:#000000;stroke-width:2;stroke-miterlimit:10;" d="M91,521.9c-20.2,1.9-31.2,31.7-17.3,46.3
			C87.3,557.4,84.5,539,91,521.9z"/>
		<path style="fill:#FFFFFF;stroke:#000000;stroke-width:2;stroke-miterlimit:10;" d="M57.7,532c-8.4-0.7-10.8,4.7-13,10.2
			c2.7,1.4,4.8-4.3,5.7,0c-17.2,1.6-21.6,15.9-33.2,23.1C38.6,567.6,59.3,557.1,57.7,532z"/>
		<path style="fill:#FFFFFF;stroke:#000000;stroke-width:2;stroke-miterlimit:10;" d="M42,534.9c-5.5,2.2-16.9,6.1-11.6,14.5
			C31.8,543,44.8,540.8,42,534.9z"/>
		<path style="fill:#FFFFFF;stroke:#000000;stroke-width:2;stroke-miterlimit:10;" d="M26.1,546.5c-11.6,6.5-17,19.1-25.7,28.4v0.1
			C9.7,566.2,24.6,563.1,26.1,546.5z"/>
		<path style="fill:#FFFFFF;stroke:#000000;stroke-width:2;stroke-miterlimit:10;" d="M47.7,563.8c2.6,0.2,0.8,4.9,2.9,5.7
			c10.4-1.7,18.3-16.1,7.2-23.1C57.6,555.3,49.8,556.8,47.7,563.8z"/>
		<path style="fill:#FFFFFF;stroke:#000000;stroke-width:2;stroke-miterlimit:10;" d="M59.3,611.4c7.3-2.7,6.6-13.6,14.5-15.9
			c-1.1,10-10,12.1-11.6,21.6c6.6,7.2,13.7-2.6,20.2-4.3c-3.2-19.4-8-37.3-17.3-50.6C59,573.3,55.7,600.3,59.3,611.4z"/>
		<path style="fill:#FFFFFF;stroke:#000000;stroke-width:2;stroke-miterlimit:10;" d="M46.3,563.8c-5.1,0.1-9.9,0.7-11.6,4.3
			c3.7,3.5,6.1,8.4,10.2,11.6C47.9,576.3,48.6,568.7,46.3,563.8z"/>
		<path style="fill:#FFFFFF;stroke:#000000;stroke-width:2;stroke-miterlimit:10;" d="M33.2,568.1c-14,1-23.7-1.8-27.5,10.2
			c5.6,2.2,6.6,8.8,13,10.2c3.7-5.3-3.1-10.9,2.9-13c-0.1,16,12.4,29.3,21.6,40.4C44.2,603,42.2,579.2,33.2,568.1z"/>
		<path style="fill:#FFFFFF;stroke:#000000;stroke-width:2;stroke-miterlimit:10;" d="M54.9,571c-9.3,5.1-14.7,21.3-8.7,33.2
			C55,599.9,52.7,577,54.9,571z"/>
		<path style="fill:#FFFFFF;stroke:#000000;stroke-width:2;stroke-miterlimit:10;" d="M0.4,653.4v12.8c1.1-1.6,2-3.5,2.5-5.6
			C2.7,658.5,1.4,655.9,0.4,653.4z"/>
		<path style="fill:#FFFFFF;stroke:#000000;stroke-width:2;stroke-miterlimit:10;" d="M8.7,651.9c-1.9,2.9-2.7,6.9-4.3,10.2
			c9.9-3.9,27.9-6.2,24.5-18.8c11.6-0.5,9.8-14.2,13-23.1c-6.9-9-12.7-19.1-18.8-28.9C11,593.3,12,582.2,3,581.2
			c-1,1.2-1.8,2.5-2.5,3.8v62C3.1,653.4,3.1,651.1,8.7,651.9z"/>
		<path style="fill:#FFFFFF;stroke:#000000;stroke-width:2;stroke-miterlimit:10;" d="M56.3,627.3c0.6-4.7,2.7-7.8,2.9-13
			c-2.7-0.6-2.6-4.2-7.2-2.9c-0.4,5.9-4.4,8.1-4.3,14.5C52.1,624.9,51.9,628.4,56.3,627.3z"/>
		<path style="fill:#FFFFFF;stroke:#000000;stroke-width:2;stroke-miterlimit:10;" d="M173.3,612.9c-3.6,12.8-20,12.8-20.2,28.9
			c11.2-2.7,15.9-12,26.1-15.9C177.4,621.3,176.5,616.1,173.3,612.9z"/>
		<path style="fill:#FFFFFF;stroke:#000000;stroke-width:2;stroke-miterlimit:10;" d="M79.5,617.3c-3.8,3.7-13.7,9-18.8,2.9
			c0.6,3.5-2.6,3.1-1.4,7.2C64.5,623.7,87.7,625,79.5,617.3z"/>
		<path style="fill:#FFFFFF;stroke:#000000;stroke-width:2;stroke-miterlimit:10;" d="M75.2,627.3c-5.1,0.1-11.6-1.1-11.6,4.3
			c0.1,2.7,4.8,1,4.3,4.3C72.1,634.8,76.1,633.6,75.2,627.3z"/>
		<path style="fill:#FFFFFF;stroke:#000000;stroke-width:2;stroke-miterlimit:10;" d="M153.1,628.7c-14.7-3.2-24.7,8.2-40.4,8.7
			c-2.9,3-4.8,14.5-1.4,18.8C114.4,635.5,158.9,660.5,153.1,628.7z"/>
		<path style="fill:#FFFFFF;stroke:#000000;stroke-width:2;stroke-miterlimit:10;" d="M46.3,628.7c-1.1,4.7-2,9.6-4.3,13
			c9.2,0.6,12.1-5.3,14.5-11.6C51.8,630.9,51.3,627.7,46.3,628.7z"/>
		<path style="fill:#FFFFFF;stroke:#000000;stroke-width:2;stroke-miterlimit:10;" d="M79.5,628.7c-2.3,6.9-13.9,11.2-2.9,15.9
			C78.2,640.9,83.9,633.7,79.5,628.7z"/>
		<path style="fill:#FFFFFF;stroke:#000000;stroke-width:2;stroke-miterlimit:10;" d="M59.3,633.1c-1.4,3.9-5.1,5.4-7.2,8.7
			c6.6-0.7,8.1,2.5,13,0C65.6,636.4,61.9,635.2,59.3,633.1z"/>
		<path style="fill:#FFFFFF;stroke:#000000;stroke-width:2;stroke-miterlimit:10;" d="M163.3,670.7c3.3-11.8,17.1-26.2,13-36.1
			c-6.9-0.7-15.7,9.3-24.5,11.6c-1.7,22.6-10.9,42-20.1,57.1h11C147,689.9,149.8,674.9,163.3,670.7z"/>
		<path style="fill:#FFFFFF;stroke:#000000;stroke-width:2;stroke-miterlimit:10;" d="M83.8,637.5c-0.2,4.1-2.6,6-2.9,10.2
			c4.9,5.1,8.8,11.4,18.8,11.6C100.6,645.6,94.5,639.2,83.8,637.5z"/>
		<path style="fill:#FFFFFF;stroke:#000000;stroke-width:2;stroke-miterlimit:10;" d="M53.4,675c3.9,1.9,6.6,5,11.6,5.7
			c1.8-7.9,3.2-21.5-5.7-27.5c3.7,0.6,4.3,4.3,8.7,4.3c1.1-4.2,6.8-3.7,5.7-10.2c-5-7.2-23-1.7-31.8-2.9c-7.4,10.4-8.7,26.9-14.5,39
			c9.8,0.2,9.6-9.7,18.8-10.2c-4.5,6.6-11.1,11.1-20.2,13c-0.5,6.2-3.2,11.6-6.2,16.6h10.4C41.2,694.1,52.4,685.3,53.4,675z"/>
		<path style="fill:#FFFFFF;stroke:#000000;stroke-width:2;stroke-miterlimit:10;" d="M137.2,650.5c-8.4,4.2-4.7,22.8,4.3,30.4
			C144,670.4,154,642,137.2,650.5z"/>
		<path style="fill:#FFFFFF;stroke:#000000;stroke-width:2;stroke-miterlimit:10;" d="M121.3,650.5c-0.7,7.2,10.6,7.4,11.6,1.4
			C130.8,649.6,125.5,650.6,121.3,650.5z"/>
		<path style="fill:#FFFFFF;stroke:#000000;stroke-width:2;stroke-miterlimit:10;" d="M117,651.9c-9.7,12.4-8,36.3-0.8,51.3h13
			c3.5-6.7,4.8-15.5,9.4-20.9C130.9,672.6,129.3,656.9,117,651.9z"/>
		<path style="fill:#FFFFFF;stroke:#000000;stroke-width:2;stroke-miterlimit:10;" d="M13,702.5c4.3-16.5,15.3-33.8,15.9-49.1
			c-8.8,6.2-19,11.1-28.6,16.6v33.2h7.8c-0.2-2.9-0.7-5.9-0.8-8C10.4,696.4,9.1,702,13,702.5z"/>
		<path style="fill:#FFFFFF;stroke:#000000;stroke-width:2;stroke-miterlimit:10;" d="M76.6,669.2c1.7-4.7,9.3-3.2,13-5.7
			c-3.1-3.7-6-7.5-11.6-8.7C78.2,659.3,72.7,665.7,76.6,669.2z"/>
		<path style="fill:#FFFFFF;stroke:#000000;stroke-width:2;stroke-miterlimit:10;" d="M73.6,686.6c12.3-0.2,17.5-7.7,21.6-15.9
			C86.4,664.1,72.7,673.8,73.6,686.6z"/>
		<path style="fill:#FFFFFF;stroke:#000000;stroke-width:2;stroke-miterlimit:10;" d="M91,686.6c1.3,8.2-1,12.8-4.1,16.6h8.4
			c2.6-2,4.9-4.3,8.7-5C105.4,683.6,99.3,677.1,91,686.6z"/>
		<path style="fill:#FFFFFF;stroke:#000000;stroke-width:2;stroke-miterlimit:10;" d="M42,698.2c9-3.6,21.8-3.2,23.1-14.5
			C53.5,679.8,45.2,689.3,42,698.2z"/>
		<path style="fill:#FFFFFF;stroke:#000000;stroke-width:2;stroke-miterlimit:10;" d="M37.4,703.2H51c1.9-1.9,3.7-4.1,5.3-6.6
			C49.6,698.4,43.3,700.6,37.4,703.2z"/>
		<path style="fill:#FFFFFF;stroke:#000000;stroke-width:2;stroke-miterlimit:10;" d="M145.1,703.2h53.5c-0.5-1-0.7-2.2-0.7-3.6
			C185.2,703.8,156.6,693,145.1,703.2z"/>
		<path style="fill:#FFFFFF;stroke:#000000;stroke-width:2;stroke-miterlimit:10;" d="M100.5,703.2h3.9
			C103.3,702.5,101.8,702.6,100.5,703.2z"/>
		<path style="fill:#FFFFFF;stroke:#000000;stroke-width:2;stroke-miterlimit:10;" d="M325,666.4c-0.4,0.5-0.7,1-1.1,1.3
			C324.8,667.5,325.2,667,325,666.4z"/>
		<path style="fill:#FFFFFF;stroke:#000000;stroke-width:2;stroke-miterlimit:10;" d="M58.2,517.2l2.2-1.1c-0.8-1.4-1.8-2.9-2.5-4.3
			c-1.9-3.5-3.5-7.8-5.4-11c-1,0.5-1.9,1-3,1.4C51.6,507.5,55,512.3,58.2,517.2z"/>
		<path style="fill:#FFFFFF;stroke:#000000;stroke-width:2;stroke-miterlimit:10;" d="M31.8,529.2c-0.8-2.2,1.7-7.4-1.4-7.2
			c0.6,3.3,0.6,6.3,0.1,9.2c3.6-2,6.8-3.3,8.4-4.1c1.3-1.4,2.5-3.1,3.1-5.1C35.7,521.5,37.2,528.7,31.8,529.2z"/>
		<path style="fill:#FFFFFF;stroke:#000000;stroke-width:2;stroke-miterlimit:10;" d="M294.6,519c3.8,13-6.6,18.9-13,26.1
			c-0.7-2.7,4.4-6.2-1.4-5.7c-0.7,10.6-3.7,19.1-8.2,25.9l2.2,0.5C279.6,548.3,301.1,537.3,294.6,519z"/>
		<path style="fill:#FFFFFF;stroke:#000000;stroke-width:2;stroke-miterlimit:10;" d="M205.1,621.6c-0.5,0.7-1.4,1.6-2.5,2.3
			c1.7-0.6,3.7-1.2,5.7-1.9C207.4,621.8,206.3,621.7,205.1,621.6z"/>
		<path style="fill:#FFFFFF;stroke:#000000;stroke-width:2;stroke-miterlimit:10;" d="M235.5,617.3c8.5-1.2,21.5,4.4,23.1-4.3
			c-5,2.9-11.5,1-17.6,0.2l-9.7,4.9C232.7,617.7,234,617.4,235.5,617.3z"/>
		<path style="fill:#FFFFFF;stroke:#000000;stroke-width:2;stroke-miterlimit:10;" d="M231.5,613.3c3-6.1,13.3-5,16.9-10.5
			c-11.2,0.2-15.9,7.2-22,12.7c0.4-0.1,0.6-0.2,0.8-0.2C228.1,614.9,229.6,614.3,231.5,613.3z"/>
		<path style="fill:#FFFFFF;stroke:#000000;stroke-width:2;stroke-miterlimit:10;" d="M218.1,682.3c-2,2.3-1.2,7.4-4.3,8.7
			c-7.1,2.5-4.9-1.2-10.2-2.9c0.7,5.5-0.6,9-4.3,10.2c-8.5-0.1-13.4-0.2-26.1-1.4c8.7-16.3,22.2-27.9,44.8-30.4
			c-1.1-1.2-2.5-2.3-3.7-3.5l-4.2,1.1l3-2.5c-1.3-2-1.8-4.4,0.5-8.1c-7.5,0.7-3.5,12.9-10.2,14.5c-8.6-1.8-13,8.1-17.3,5.7
			c1.8-4.5,2.9-9.7,4.3-14.5c-8.5,10.8-9.4,29.2-21.6,36.1c-6.7,0.1-14.1-0.6-18.8,1.4c-2.9-12.6,7.8-11.5,7.2-21.6
			c3.3,0.5,5.5-0.2,7.2-1.4c7.4-17.2,15.2-34.1,29.6-44.2c-9.7,1.2-14.8,10.3-14.8,10.3l-3.6-10c9.2-4.4,12.6-3.9,16.5-3.9
			c-0.6-0.2-1.2-0.7-1.8-1.2c14.3-18.9,44.3-22,60.7-39c9.2,1,14-2.4,23.1-1.4c0.7-7.1-13.4,0-13-2.9c0.5-3,2-4.7,4.2-6l-2.3,0.2
			c-12.8,11.8-30.8,18.5-46.7,27.4c2-9.1,11.6-10.5,21.6-11.6c0.8-3.2,4.9-9.6,0-10.2c-5.7,12.1-24.4,11.2-28.9,24.5
			c-12.4,3-17.1,13.6-26.1,20.2c-1.1-6.2-6.6-7.9-5.7-15.9c12.6-1.9,14.1-14.8,20.2-23.1c-9.7,1.4-7.2,15.1-14.5,18.8
			c-5.7-7.6,3.8-18.9,1.4-23.1c-3.7,4.3-2.5,20-10.2,15.9c2.6,32-38,28.4-57.7,33.2c7.1-18.5,13.3-37.8,40.4-36.1
			c1.6-3.8,5.7-4.9,7.2-8.7c-7.1,3-17.9,9.9-26.1,7.2c7.1-10.8,14.7-20.9,23.1-30.4c4.2-0.2,9.4,0.7,11.8-1.3l-20.1,1.2l5.4-4.1
			l2.3-0.1c1.4-3.6,1-9.1,3.6-11.6c18.4-1.3,31.2-8.4,53.4-5.7c2.4-3.5,3.9-7.5,8.7-8.7c31.1,0.4,39.2-22.5,65-27.5
			c-0.2-4.5,3.8-4.8,2.9-10.2c-5.4,9-19.2,17.3-30.4,15.9c1.7-4.1,7.8-14.3,1.4-17.3c-0.8,11.2-3.3,20.7-8.7,27.5
			c-7.1-1.7-9.1-8.2-14.5-11.6c0.7,8,7.9,9.4,11.6,14.5c-21.5,3-33.5,15.7-59.2,14.5c1.4-4.3,5.9-5.7,7.2-10.2
			c-9.2,6.7-20.8,18.6-36.1,14.5c0.2-17.2,17.9-16.5,27.5-17.3c-2.4-1.9-9.2,0.5-8.7-4.3l11.6-13c1.8-1.7,1.2-6-2.9-5.7
			c1.7,12.8-13,16.7-18.8,17.3c3.7-12.7,16.6-16.1,23.1-26.1c-4.8-3.2-6.6,8.7-15.9,5.7c-5.3,13-11.2,25.3-20.2,34.7l-4.3-5.7
			c-4.2-12.8-17.9-21.8-14.5-37.5c-2.5,0.1-4.5-0.4-5.7-1.4c-3.8,7.5,7.5,19.1,4.3,26.1c-13.5-1.9-23.2-7.6-21.6-24.5
			c-11.2,8-20.4,18-31.8,26.1c-3.7-0.1-2-5.6-5.7-5.7c4.7,8.5-5.3,16.1-8.7,15.9c3.3-15.4,16.4-21.2,20.2-36.1
			c-6.1,6.9-11.4,14.7-17.3,21.6c0.1-1.1,0.1-1.9,0-2.7c-1.6,1.4-3.1,2.7-4.4,3.7c-0.1,6.7,1.2,14.9-4.3,16.4
			c-1.1-3.7-3.2-7.4-5.5-11.2c-0.7,0.4-1.4,0.7-2.2,1.1c4.9,8.1,8.2,16.5,3.3,27.5c-6.9-4.4-2.6-12.4-1.4-20.2
			c-5.3-1-5.5,3.1-10.2,2.9c0.2-1.3,0.7-4.4,1-6.3c-0.4,0.1-0.7,0.4-1,0.5l0,0c-1.7,2.2-1.8,5.9-4.3,7.2c-4.8-1-6.7,1.1-10,1.4
			c-3.2,2.3-7.8,5.3-11.7,8c-6.6,9.7-18.3,17.2-25.6,26.2v7.3c8.6-9.4,14.1-22,25.7-28.4c-1.3,16.7-16.4,19.7-25.7,28.6v9.9
			c0.8-1.3,1.6-2.6,2.5-3.8c9.1,1.1,8.1,12.2,20.2,10.2c6.1,9.8,11.8,20,18.8,28.9c-3.2,8.8-1.4,22.7-13,23.1
			C32.3,655.9,14.3,658,4.3,662c1.6-3.2,2.4-7.3,4.3-10.2c-5.6-0.8-5.5,1.6-8.4-4.9v6.5c1.1,2.5,2.4,5,2.5,7.2
			c-0.5,2.2-1.4,4.1-2.5,5.6v3.7c9.4-5.5,19.7-10.4,28.6-16.6c-0.6,15.3-11.6,32.6-15.9,49.1c-3.9-0.5-2.6-6.1-5.7-7.2
			c0.1,2.2,0.6,5,0.8,8h11.7c2.9-5,5.7-10.5,6.2-16.6c9.2-1.9,15.7-6.5,20.2-13c-9.2,0.5-9,10.3-18.8,10.2
			c5.7-12.1,7.1-28.7,14.5-39c8.8,1.2,26.7-4.2,31.8,2.9c1.1,6.3-4.7,5.9-5.7,10.2c-4.3,0-4.9-3.7-8.7-4.3c9,6,7.5,19.6,5.7,27.5
			c-5-0.7-7.6-3.9-11.6-5.7c-1.1,10.2-12.2,19.1-23.2,28.2h7.2c5.9-2.6,12.2-4.8,18.9-6.6c-1.6,2.4-3.3,4.5-5.3,6.6h14.8
			c5.5-4.4,14.1-8.5,20.8-10.9c0.1,5.3-1.8,8.6-4.8,10.9h5c3.1-3.8,5.4-8.4,4.1-16.6c8.4-9.3,14.5-3,13,11.6c-3.8,0.8-6.1,3.1-8.7,5
			h5.1c1.3-0.6,2.9-0.7,3.9,0h11.8c-7.2-14.9-8.8-38.8,0.8-51.3c12.3,5,13.9,20.8,21.6,30.4c-4.7,5.5-6,14.2-9.4,20.9h2.4
			c9.2-15.2,18.4-34.5,20.1-57.1c8.8-2.3,17.6-12.2,24.5-11.6c4.2,9.9-9.7,24.3-13,36.1c-13.5,4.3-16.3,19.2-20.7,32.5h2.5
			c11.5-10.2,40,0.6,52.8-3.6c0,1.4,0.4,2.6,0.7,3.6h3.8c-0.1-0.2-0.1-0.5-0.2-0.7C204.3,693.4,224.1,694.6,218.1,682.3z M42,698.2
			c3.3-8.8,11.7-18.3,23.1-14.5C63.7,694.8,50.8,694.6,42,698.2z M91,521.9c-6.5,17.1-3.7,35.5-17.3,46.3
			C59.9,553.7,70.9,523.8,91,521.9z M65,562.4c9.3,13.3,14.1,31.2,17.3,50.6c-6.5,1.7-13.6,11.5-20.2,4.3
			c1.4-9.6,10.5-11.6,11.6-21.6c-7.9,2.3-7.1,13.1-14.5,15.9C55.7,600.3,59,573.3,65,562.4z M54.9,571c-2.3,6,0,28.9-8.7,33.2
			C40.3,592.3,45.7,576.1,54.9,571z M34.7,568.1c1.7-3.7,6.5-4.2,11.6-4.3c2.4,4.9,1.7,12.4-1.4,15.9
			C40.8,576.5,38.4,571.6,34.7,568.1z M52,611.4c4.7-1.2,4.4,2.3,7.2,2.9c-0.1,5.1-2.3,8.4-2.9,13c-4.4,1.1-4.3-2.5-8.7-1.4
			C47.6,619.5,51.6,617.4,52,611.4z M60.7,620.1c5,6.1,14.9,0.8,18.8-2.9c8.2,7.8-14.9,6.6-20.2,10.2
			C58.1,623.2,61.3,623.6,60.7,620.1z M50.6,569.6c-2-0.8-0.2-5.6-2.9-5.7c2.2-6.9,9.9-8.4,10.2-17.3
			C68.8,553.4,61,567.9,50.6,569.6z M42,534.9c3,5.9-10.2,8.1-11.6,14.5C25,541,36.3,537,42,534.9z M50.6,542.1
			c-1-4.3-3.1,1.4-5.7,0c2.3-5.4,4.5-10.8,13-10.2c1.4,25.1-19.2,35.6-40.4,33.2C28.9,558.1,33.3,543.6,50.6,542.1z M21.6,575.3
			c-6,2.2,0.8,7.8-2.9,13c-6.3-1.3-7.4-8-13-10.2c3.8-12,13.4-9.2,27.5-10.2c9,11.2,10.9,34.9,10.2,47.7
			C34.1,604.7,21.6,591.3,21.6,575.3z M42,641.8c2.4-3.5,3.2-8.4,4.3-13c5-1.2,5.5,2.2,10.2,1.4C54,636.6,51.2,642.4,42,641.8z
			 M65,641.8c-4.8,2.5-6.5-0.7-13,0c2-3.2,5.9-4.8,7.2-8.7C61.9,635.2,65.6,636.4,65,641.8z M63.6,631.7c-0.1-5.4,6.5-4.2,11.6-4.3
			c1.1,6.3-3.1,7.5-7.2,8.7C68.4,632.7,63.7,634.3,63.6,631.7z M79.5,628.7c4.4,5-1.3,12.1-2.9,15.9
			C65.6,640.1,77.2,635.7,79.5,628.7z M78.1,654.8c5.6,1.2,8.5,5,11.6,8.7c-3.7,2.5-11.4,1.2-13,5.7
			C72.7,665.7,78.2,659.3,78.1,654.8z M73.6,686.6c-1.1-12.7,12.7-22.4,21.6-15.9C91.1,678.9,86.1,686.3,73.6,686.6z M99.7,659.1
			c-9.9-0.2-13.9-6.3-18.8-11.6c0.2-4.1,2.6-6,2.9-10.2C94.5,639.2,100.6,645.6,99.7,659.1z M85.2,627.3C82.4,614,90,605.9,94,595.5
			c10.5-3,19.7-7.3,21.6-18.8c10.3-3.2,22.6-4.3,23.1-17.3c-4.9,0.7-4.8,11.5-10.2,7.2c-0.6-6.1-0.7-12.8-2.9-17.3
			c-5,6.6,7.7,21.8-4.3,23.1c-5.9,0.5,0.2-2-1.4-5.7c-6.9,0.8-3.8,11.6-10.2,13c1.4-12.8-11-21.2-2.9-31.8c-16,8.6,8.1,26.1,0,40.4
			c-12.6,0.8-17.2,9.7-21.6,18.8c-3.1-11.8-6.8-23-11.6-33.2c0.5-10.8,14.2-13.3,15.9-23.1c0.6-3.6-2-7.9-1.4-11.6
			c3.3-18.9,12.1-31.3,27.5-40.4c2.7,13.1,13.5,18.3,27.5,20.2c2.3,11,14.1,22.5,11.6,36.1c-3,16.5-31.2,40.6-41.8,56.3
			C106.7,620.2,100,637,85.2,627.3z M121.3,650.5c4.2,0.1,9.4-0.8,11.6,1.4C132.1,657.9,120.7,657.7,121.3,650.5z M141.5,680.8
			c-9-7.4-12.7-26.2-4.3-30.4C154,642,144,670.4,141.5,680.8z M111.3,656.2c-3.3-4.3-1.4-15.8,1.4-18.8c15.7-0.4,25.7-11.8,40.4-8.7
			C158.9,660.5,114.4,635.5,111.3,656.2z M153.1,641.8c0.2-16.1,16.7-16,20.2-28.9c3.1,3.1,4.1,8.5,5.7,13
			C169,629.8,164.4,639,153.1,641.8z"/>
		<path style="fill:#FFFFFF;stroke:#000000;stroke-width:2;stroke-miterlimit:10;" d="M263.6,575.2l9.8-6.2c0.1-0.8,0.4-1.6,0.6-2.4
			l-2.6-0.2C268.9,569.7,266.4,572.5,263.6,575.2z"/>
		<path style="fill:#FFFFFF;stroke:#000000;stroke-width:2;stroke-miterlimit:10;" d="M47.7,495.9c0.2,1.3,0.5,2.6,1,3.9
			c0.8-0.4,1.7-0.8,2.4-1.2C50.1,497.2,48.9,496.3,47.7,495.9z"/>
		<path style="fill:#FFFFFF;stroke:#000000;stroke-width:2;stroke-miterlimit:10;" d="M324,667.7c-2.2,0.8-6.7,0.4-6.2-1.3
			c1.9-2.5,3.5-5.3,5-8.1c-1.3,0-2.6-0.1-3.9-0.2c-8.6,12.4-13.9,28.1-24.1,38.7c-2.7-0.1-1-4.8-4.3-4.3c0,3.3,0,6.7,0,10
			c0.4,0.2,0.6,0.6,1,0.8h2.9C301,688.7,316.5,677.4,324,667.7z"/>
		<path style="fill:#FFFFFF;stroke:#000000;stroke-width:2;stroke-miterlimit:10;" d="M73.6,507.4c-0.4,0.6-0.7,1.3-1,2.2
			c0.6-0.4,1.4-1,2.4-1.7C74.7,507.6,74.2,507.5,73.6,507.4z"/>
		<path style="fill:#FFFFFF;stroke:#000000;stroke-width:2;stroke-miterlimit:10;" d="M317.8,692.3c0.8,3.9,0.7,7.5,0,10.9h2.7
			C322.1,698.2,324,693.5,317.8,692.3z"/>
		<path style="fill:#FFFFFF;stroke:#000000;stroke-width:2;stroke-miterlimit:10;" d="M326.4,649c-2.4,2.3-4.5,4.7-6.5,7.4
			c1,0.4,2,0.8,3,1.2C324.4,654.9,325.5,652,326.4,649z"/>
		<path style="fill:#FFFFFF;stroke:#000000;stroke-width:2;stroke-miterlimit:10;" d="M86.7,692.3c-6.7,2.4-15.3,6.5-20.8,10.9h16
			C84.9,700.9,86.8,697.7,86.7,692.3z"/>
		<path style="fill:#FFFFFF;stroke:#000000;stroke-width:2;stroke-miterlimit:10;" d="M17.5,497l-1.3,3.1c2.5-3.2,4.9-7.4,6.5-10.8
			C18.3,495.6,17.5,497,17.5,497z"/>
		<path style="fill:#FFFFFF;stroke:#000000;stroke-width:2;stroke-miterlimit:10;" d="M21.2,500.2l1,0.2c0.6-0.8,0.8-1.2,0.8-1.2
			l10.3-17.3c32.5-50.3,28.6-57,28.6-57s8-7.1,11.4-13.3c3.3-6.1,14.6-11.5,14.6-11.5s-7.7,2.2-17.8,13
			c-16.5,17.6-10,17.7-12.3,22.5c-2.6,5.9-16.9,27.7-27.3,42.4l-1.8,7.9C28.8,486,25.2,492.6,21.2,500.2z"/>
		<path style="fill:#FFFFFF;stroke:#000000;stroke-width:2;stroke-miterlimit:10;" d="M9.8,532.7c0,0,4.9-10.6,4.2-15.4
			c-0.5-3.2,3.6-10,6.5-14.3c-0.2,0-0.5-0.1-0.7-0.1c-2.2,3.9-4.2,8-6,11.6c-4.1,8.4-3.8,17.2-3.8,17.2l-6.9,2
			c0.5-1.9,0.8-3.9,1.1-5.9c-1.2,2.2-2.4,3.8-3.3,4.4c-0.1,0.1-0.4,0.2-0.5,0.2v11.7c1.8-2.4,4.1-4.7,4.8-6.1
			C6.6,535.4,9.8,532.7,9.8,532.7z"/>
		<path style="fill:#FFFFFF;stroke:#000000;stroke-width:2;stroke-miterlimit:10;" d="M17.3,547.9c1.7-1.4,4.9-3.8,8.6-6.3
			c3.9-2.7,8.5-5.9,11.7-8c2-1.4,3.7-2.5,4.4-3c1.1-0.8,5.3-3.1,10-5.7c0.4-0.1,0.7-0.4,1-0.5c2.4-1.3,4.9-2.6,7.2-3.8
			c0.7-0.4,1.4-0.7,2.2-1.1c3.2-1.7,5.9-2.9,6.7-3.2c0.6-0.2,1.8-1,3.1-1.9c1.3-1,2.7-2.3,4.4-3.7c4.8-4.3,10.2-9.8,11.5-12.2
			c2.3-4.1,8.6-11.2,8.6-11.2l11.6-10.5l7.4-8.5l-0.1,0.1l-0.7-0.2c-6.5,4.4-24.6,17.2-28.9,26.4c-3.2,6.7-7.8,11.1-10.9,13.5
			c-1,0.7-1.7,1.2-2.4,1.7c-0.8,0.5-1.3,0.8-1.3,0.8l-11.1,5.7l-2.2,1.1l-18.3,9.4c0,0-0.4,0.1-1.1,0.5c-1.6,0.7-4.8,2-8.4,4.1
			c-6.1,3.3-13.4,8.2-16.6,14.1c-3.3,6.1-9.1,8.4-13.5,9.1v8.8l0.1,0.1C13.3,556.4,10.9,553.4,17.3,547.9z"/>
		<polygon style="fill:#FFFFFF;stroke:#000000;stroke-width:2;stroke-miterlimit:10;" points="0.4,524.9 0.4,525.3 0.5,525 		"/>
		<path style="fill:#FFFFFF;stroke:#000000;stroke-width:2;stroke-miterlimit:10;" d="M19.7,502.9c0.2,0,0.5,0.1,0.7,0.1
			c6.8,1,18.8,3.2,18.8,3.2s5.3-1.7,10.3-3.8c1.1-0.5,2-1,3-1.4c2.3-1.2,4.3-2.5,5-3.8c2.7-4.4,20.8-14,20.8-14s-17.1,7.8-21,11.6
			c-1.2,1.2-3.6,2.7-6.3,4.2c-0.8,0.5-1.6,0.8-2.4,1.2c-4.7,2.4-9.3,4.3-9.3,4.3l-17.1-3.6l-1-0.2C20.7,501.1,20.2,501.9,19.7,502.9
			z"/>
		<path style="fill:#FFFFFF;stroke:#000000;stroke-width:2;stroke-miterlimit:10;" d="M9.9,531.5c0,0-0.2-8.8,3.8-17.2
			c1.7-3.5,3.8-7.5,6-11.6c0.5-0.8,1-1.8,1.4-2.6c4.1-7.6,7.6-14.2,7.6-14.2l1.8-7.9l6.1-26.9c0,0,2.2-10.2,11.7-18.2
			s19.2-37.4,19.2-37.4L60,406.8l-7.2,13.9c0,0-5.3,8-8.6,11.2c-3.3,3.2-12.3,19.7-12.6,23s-5.9,26.8-7.1,30c-0.4,0.8-1.1,2.5-2,4.4
			c-1.6,3.3-3.9,7.5-6.5,10.8c-1.8,2.3-3.7,4.1-5.5,4.5c-5,1.3-4.8,12-6.5,23.1c-0.2,1.9-0.6,3.9-1.1,5.9L9.9,531.5z"/>
		<path style="fill:#FFFFFF;stroke:#000000;stroke-width:2;stroke-miterlimit:10;" d="M175.9,629.6l3.6,10c0,0,5.1-9.1,14.8-10.3
			c1.3-0.1,2.9-0.2,4.4,0c12.4,1.6,30.6-10.3,30.6-10.3l2.2-1.1l9.7-4.9l20.1-10.2c0,0,9.2-4.8,21.6-2.5c12.4,2.3,41.4-9,41.4-9
			l-13.6,1.3l-15.4,3.3c0,0-9.6,1.1-14.2,0.5s-23.3,3.1-25.8,5c-2,1.6-15.9,8.4-23.4,11.8c-2,1-3.6,1.6-4.3,1.8
			c-0.2,0.1-0.5,0.1-0.8,0.2c-3.1,1.1-11.2,4.1-18.2,6.5c-2,0.7-4.1,1.4-5.7,1.9c-1.7,0.5-3,1-4.1,1.2c-2.5,0.6-4.4,0.7-6.1,0.7
			C188.5,625.6,185.2,625.1,175.9,629.6z"/>
		<path style="fill:#FFFFFF;stroke:#000000;stroke-width:2;stroke-miterlimit:10;" d="M262.1,654.8c0,0,2.6-0.1,5.5,2.6
			c2.9,2.7,18.5-4.8,18.5-4.8s-12.9,3.3-15.1,3c-2-0.4-9.3-1.2-14.1-1c0.2,0.7,0.6,1.3,1,1.9L262.1,654.8z"/>
		<path style="fill:#FFFFFF;stroke:#000000;stroke-width:2;stroke-miterlimit:10;" d="M214.4,662.9l9.8-2.4l16.5-4.2l6.7,5l9.4-4.2
			c-0.2-0.8-0.5-1.6-0.7-2.4c-1.9,0.5-7.3,3.9-7.3,3.9s-6.7-5-11.4-4.2s-14.5,3.9-14.5,3.9l-6.8,0.5l-3,2.4l-3,2.5L214.4,662.9z"/>
		<path style="fill:#FFFFFF;stroke:#000000;stroke-width:2;stroke-miterlimit:10;" d="M74.8,468c0,0,0.1,0,0.2,0
			C74.8,468,74.7,468,74.8,468z"/>
		<path style="fill:#FFFFFF;stroke:#000000;stroke-width:2;stroke-miterlimit:10;" d="M115.7,468.1l6.8-3.6l-7.4,1.7l-21.3-6.1
			c0,0-3.9-0.7-11.1,3.7c0,0-6.3,3.8-7.7,4.2c1.1,0.1,4.9,0.7,4.9,0.7l5.7-5.9l6.9-1.4l22.2,6.7l0.7,0.2L115.7,468.1z"/>
		<path style="fill:#FFFFFF;stroke:#000000;stroke-width:2;stroke-miterlimit:10;" d="M263.3,575.4L263.3,575.4l2.4-0.2l20.3-2.4
			l26.8-3.2l9.6,9.2l24.5-7.3c0,0,4.2,0.2,8.1,5.3c3.9,5,30.1-3.8,30.1-3.8s-21,2.7-24.3,1.8c-3.2-1-15.7-4.1-23.1-4.5
			c-2.5-0.1-12.8,4.8-12.8,4.8s-9.6-9.2-17.1-9c-7.5,0.4-23.5,3.3-23.5,3.3l-10.8-0.6l-0.2,0.1l-9.8,6.2L263.3,575.4z"/>
		<polygon style="fill:#FFFFFF;stroke:#000000;stroke-width:2;stroke-miterlimit:10;" points="153.5,563.6 173.6,562.5 182.9,561.9 
			198.2,571.6 215.9,566.5 239.1,563.1 271.2,566.3 273.8,566.7 282.1,567.5 274.1,565.7 272.1,565.3 258.8,562.3 238.2,559.2 
			215.6,563.9 198.7,568.7 184.2,558.8 161.1,559.4 159,559.5 		"/>
		<path style="fill:#FFFFFF;stroke:#000000;stroke-width:2;stroke-miterlimit:10;" d="M3.1,313.8c-0.8,0.2-1.8,0.4-2.7,0.5v17.2
			c3.5-0.1,6.9-1,10.4-2.6C10,322.2,2.7,321.4,3.1,313.8z"/>
		<path style="fill:#FFFFFF;stroke:#000000;stroke-width:2;stroke-miterlimit:10;" d="M33.7,331.8c6,3.8,10.4-0.8,14.7-3.3
			C42.1,326,36.5,326.6,33.7,331.8z"/>
		<path style="fill:#FFFFFF;stroke:#000000;stroke-width:2;stroke-miterlimit:10;" d="M41,372.8c-2.4-4.3-13-6.9-9.3-12.2
			c4.3,4.4,8.2,9.1,15.2,11.1c8.7-13.4,38.1-2.9,40.6-23.3c-20.9,5.6-23.9-16.3-44.2-10.3c8.5,6.8,0.7,18.5-1.7,24.5
			c-5.9-8.8,9-17.7-2.6-24.7c-3.2,3.6-2.7,11.4-8.1,12.4c0.4-6.3,4.5-8.2,5.3-14.1c-11.5-6.6-25.6-6.3-36-0.1v63.6
			C11.7,388.2,32.9,388,41,372.8z"/>
		<path style="fill:#FFFFFF;stroke:#000000;stroke-width:2;stroke-miterlimit:10;" d="M132.2,289.3c-0.4,0.5-0.7,0.8-1.1,1.3
			C131.8,290.3,132.3,290,132.2,289.3z"/>
		<path style="fill:#FFFFFF;stroke:#000000;stroke-width:2;stroke-miterlimit:10;" d="M22.1,268.8c-7.5,0.2-4.3,12.7-11.1,13.7
			c-4.3-1.2-7.8,0.7-10.6,2.5v3.3c7.1-3.7,15.3-6,25.1-6.3C22.5,278.5,17.2,275.4,22.1,268.8z"/>
		<path style="fill:#FFFFFF;stroke:#000000;stroke-width:2;stroke-miterlimit:10;" d="M46.1,234.3c8.5-0.7,21.2,5.9,23.3-2.7
			c-8.2,3.9-18.8-4.2-27.5-0.5c2.9-7.2,13.9-4.8,18-10.4c-20.2-0.8-20.6,21-44.5,15.8c-2.3,2.6-10.5,6.5-14.6,1.9
			c15.5-17.9,45.8-19,63.2-34.8c9.1,1.7,14.1-1.4,23.2,0.1c1.2-6.9-13.4-1-12.8-3.8c1.3-6.2,7.9-6.6,12.2-9.3
			c3.5-20.4,30.8-29.9,25.1-50.4c2.9,13.3-7.9,18.4-14.7,25.1c-0.5-2.7,4.9-5.9-1.1-5.9c-5.5,39.4-39.6,45.9-67.7,59.2
			c2.6-8.8,12.3-9.7,22.4-10c1.1-3.2,5.5-9.2,0.7-10C45.1,210.1,26.4,208,21,221c-9.3,1.6-14.7,7.7-20.7,13.1v12.1
			c1.4-1.1,3-2.2,4.7-3.1C17.7,242.5,31.9,235.3,46.1,234.3z"/>
		<path style="fill:#FFFFFF;stroke:#000000;stroke-width:2;stroke-miterlimit:10;" d="M0.4,213.2v3.8c3.9-4.7,6.5-11,10.4-15.7
			C4.3,201.9,2.9,208.1,0.4,213.2z"/>
		<path style="fill:#FFFFFF;stroke:#000000;stroke-width:2;stroke-miterlimit:10;" d="M17.1,109.1c-4.5-3.6-7.2,8.2-16.3,4.7
			c-0.1,0.2-0.2,0.6-0.5,0.8v8C6,118.2,12.7,115,17.1,109.1z"/>
		<path style="fill:#FFFFFF;stroke:#000000;stroke-width:2;stroke-miterlimit:10;" d="M10.5,140.6c-2.3-2-9.2-0.1-8.4-4.9
			c14.2-5.5,25.5-16.4,44-8.6c-0.5-6-10.2-3.8-12.4-8.1c1.4-5.6,14.5-4.4,10.9-10.9c-12.1,2.7-19.5,10.9-30,15.4
			c1.9-1.6,1.6-5.9-2.5-6c0.5,8.5-5.7,12.7-11.7,14.6v8.7C4.1,140.4,7.7,140.6,10.5,140.6z"/>
		<path style="fill:#FFFFFF;stroke:#000000;stroke-width:2;stroke-miterlimit:10;" d="M33.9,158.1c2.5-3.2,4.4-7.3,9.2-8
			c31.1,2.4,40.6-19.7,66.7-23c0.1-4.5,4.2-4.5,3.6-9.9c-6,8.6-20.3,16-31.3,13.7c1.9-3.9,8.7-13.9,2.6-17.2
			c-1.6,11.1-4.8,20.4-10.5,26.8c-6.9-2.2-8.5-8.8-13.6-12.6c0.1,8,7.2,10,10.5,15.2c-21.6,1.6-34.4,13.3-60.1,10.4
			c1.7-4.3,6.2-5.3,7.9-9.6c-5.4,3.3-11.6,8.4-18.6,11.1v3.2C10.4,156.9,20.6,155.6,33.9,158.1z"/>
		<path style="fill:#FFFFFF;stroke:#000000;stroke-width:2;stroke-miterlimit:10;" d="M10.4,398.3c13-8.1,30.6-10.3,42.1-21.8
			c7.7,5,12.6,12.6,17.5,20c1.6-6.8-4.7-6.7-3.5-13.3c4.9-3.6,9.4,1.8,15.9,1.1c-2.6-7.3-14.3-4.4-20.1-2.9c-2.5-3.7-7.8-4.9-8-10.6
			c7.8-6.1,21.6-5.3,31.1-9.4c2.4-3.9,3.1-9.8,8-11c6,2,15.7-0.5,21.4,4.3c1.2-6.5-9.8-2.3-8-9.2c7.9-9.1,27-5.3,31.7-18.2
			c-6.9-0.1-6.1,8.6-14.9,6.2c-1-7.1,9.3-16.5-0.1-18.9c2.4,18-12.9,28.4-25.5,34.4c-7.7-3.6-15.9-6.8-24.4-3.1
			c-3.6-9.6-19.8-8-28.1-13.5c22.6,3.7,42-1.2,60.8-0.2c1-5.4-7.4-2.6-8.2-6.3c7.2-15.1,24.6-25.9,33.2-35.5
			c-2.2,0.7-6.7-0.1-6.1-1.8c4.1-4.7,7.3-10.3,9.8-16.7c-14.6,11.7-20.9,32.9-34.9,45.4c-2.7-0.4-0.7-4.8-4.1-4.7
			c-0.2,3.3-0.5,6.7-0.7,10c-13.1,15.1-36.5,4.7-56.5,0.5c-4.4,3.8-16,10.3-21.9,2.9c-0.7-4.5,4.2-2.5,3.3-7.1
			c-5.4,3-11.1,6.6-13-1.9c2.6-8.8,22.4-6.5,17.2-19.1c-2.2,2.2-1.7,7.3-4.9,8.4c-7.2,2-4.8-1.4-9.9-3.6c0.4,5.5-1.2,9-5,9.8
			c-1.6-0.1-2.9-0.2-4.3-0.4v2.2c1-0.1,1.9-0.2,2.7-0.5c-0.4,7.5,6.9,8.4,7.7,15.1c-3.5,1.7-6.9,2.4-10.4,2.6v4.8
			c10.3-6.2,24.5-6.3,36,0.1c-0.7,5.9-4.9,7.8-5.3,14.1c5.4-1.1,4.9-8.8,8.1-12.4c11.6,7.1-3.2,15.9,2.6,24.7
			c2.4-6,10.2-17.7,1.7-24.5c20.3-6,23.3,15.9,44.2,10.3c-2.5,20.4-32,9.9-40.6,23.3c-6.8-2.2-10.9-6.8-15.2-11.1
			c-3.7,5.3,6.8,8,9.3,12.2c-8.1,15.2-29.3,15.4-40.6,26.9v9.9c0.2-0.1,0.4-0.2,0.6-0.4C4.8,406.2,6,401,10.4,398.3z M33.7,331.8
			c2.7-5.3,8.4-5.9,14.7-3.3C44.1,331,39.7,335.6,33.7,331.8z"/>
		<path style="fill:#FFFFFF;stroke:#000000;stroke-width:2;stroke-miterlimit:10;" d="M412.4,685"/>
		<path style="fill:#FFFFFF;stroke:#000000;stroke-width:2;stroke-miterlimit:10;" d="M408.3,644.6c-2.4,11-14.2,22.4-11.8,36
			c1.2,6.6,6.3,14.5,12.8,22.6"/>
		<path style="fill:#FFFFFF;stroke:#000000;stroke-width:2;stroke-miterlimit:10;" d="M412.4,685"/>
		<path style="fill:#FFFFFF;stroke:#000000;stroke-width:2;stroke-miterlimit:10;" d="M409.9,641.8c-3.1-6.9,8.2-18.4,4.5-25.9
			c-1.3,1.1-3.2,1.6-5.7,1.4c3.3,15.9-10.4,24.7-14.8,37.4c-0.7-8.4-5.5-27.6,1.7-30.4c-2.6-3.7-10.2,1.4-12.9-7.3
			c-5.5,5.5,16.6,15.7,2.7,20.2c6.2,5.5,5.3,13,4.1,23.2c-8.8-9.4-14.8-21.8-20-34.9c-9.3,2.9-11-9.1-15.8-6
			c6.5,9.9,19.2,13.5,22.8,26.2c-5.7-0.6-20.4-4.8-18.6-17.5c-4.1-0.2-4.8,4.1-3,5.7c-10.2-5.3-16.9-14-28.7-17.6
			c-4.1,6.1,9,5.9,10,11.6c-2.6,4.1-12.2,1.2-13,7.1c19.1-6.3,29.5,5.4,43.3,12c0.5,4.9-6.3,2.4-8.7,4.3c9.6,1,27.1,0.4,27.3,17.6
			c-15.4,4.1-26.8-8-36-14.8c1.3,4.4,5.7,5.9,7.2,10.2c-13.9,0.5-23.7-3-33.1-6.7c-1-0.4-2-0.8-3-1.2c-7.1-2.9-14.2-5.7-23-7.1
			c3.7-4.9,10.9-6.3,11.7-14.3c-5.4,3.2-7.5,9.8-14.6,11.5c-5.3-6.8-7.6-16.3-8.4-27.5c-6.3,2.9-0.4,13.3,1.3,17.3
			c-11.1,1.4-24.9-7.1-30.2-16.1c-1,5.3,3.1,5.6,2.7,10.2c24.1,4.9,32.5,25.3,59.2,27.7c1.3,0.1,2.6,0.2,3.9,0.2c0.6,0,1.1,0,1.7,0
			c4.7,1.1,6.3,5.3,8.6,8.7c22.4-2.4,34.9,4.8,53.4,6.2c3,2.9,1.8,9.7,4.2,13c-5.6,0.2-10.6,0-14.5-1.6c-0.1,5.9,7.5,4.1,12.9,4.4
			c3.9,4.5,7.8,9.2,11.4,14h8.7c-6.5-8.1-11.7-16-12.8-22.6c-2.4-13.7,9.6-25,11.8-36"/>
		<path style="fill:#FFFFFF;stroke:#000000;stroke-width:2;stroke-miterlimit:10;" d="M271,663.5c-5.9-0.5-0.8,3-1.6,5.7
			c-3.6-4.1-8.6-7.8-11.4-12.7c-0.4-0.6-0.7-1.3-1-1.9c-1.3-3.2-1.8-6.9-0.4-11.5c-1.6,4.2-1.6,8-0.6,11.6c0.2,0.8,0.5,1.6,0.7,2.4
			c4.7,12.6,19.6,22.8,21,38.1c3.6,2.6,8.7,3.6,10.8,7.8h2.7c-0.4-0.2-0.6-0.5-1-0.8C279.8,693.5,272.1,681.8,271,663.5z"/>
	</g>
</g>
</svg>
