<?xml version="1.0" encoding="utf-8"?>
<!-- Generator: Adobe Illustrator 17.0.0, SVG Export Plug-In . SVG Version: 6.00 Build 0)  -->
<!DOCTYPE svg PUBLIC "-//W3C//DTD SVG 1.1//EN" "http://www.w3.org/Graphics/SVG/1.1/DTD/svg11.dtd" [
	<!ENTITY ns_flows "http://ns.adobe.com/Flows/1.0/">
	<!ENTITY ns_extend "http://ns.adobe.com/Extensibility/1.0/">
	<!ENTITY ns_ai "http://ns.adobe.com/AdobeIllustrator/10.0/">
	<!ENTITY ns_graphs "http://ns.adobe.com/Graphs/1.0/">
]>
<svg version="1.1" id="Layer_1" xmlns:x="&ns_extend;" xmlns:i="&ns_ai;" xmlns:graph="&ns_graphs;"
	 xmlns="http://www.w3.org/2000/svg" xmlns:xlink="http://www.w3.org/1999/xlink" xmlns:a="http://ns.adobe.com/AdobeSVGViewerExtensions/3.0/"
	 x="0px" y="0px" width="256px" height="256px" viewBox="0 0 256 256" style="enable-background:new 0 0 256 256;"
	 xml:space="preserve">
<pattern  x="0.5" y="256.5" width="254.6" height="256" patternUnits="userSpaceOnUse" id="SVGID_1_" viewBox="0 -256 254.6 256" style="overflow:visible;">
	<g>
		<polygon style="fill:none;" points="0,0 254.6,0 254.6,-256 0,-256 		"/>
		<g>
			<polygon style="fill:none;" points="0,0 254.6,0 254.6,-256 0,-256 			"/>
		</g>
	</g>
</pattern>
<pattern  x="0.5" y="256.5" width="254.6" height="256" patternUnits="userSpaceOnUse" id="SVGID_2_" viewBox="0 -256 254.6 256" style="overflow:visible;">
	<g>
		<polygon style="fill:none;" points="0,0 254.6,0 254.6,-256 0,-256 		"/>
		<g>
			<polygon style="fill:none;" points="0,0 254.6,0 254.6,-256 0,-256 			"/>
		</g>
	</g>
</pattern>
<pattern  x="0.5" y="256.5" width="254.6" height="256" patternUnits="userSpaceOnUse" id="SVGID_3_" viewBox="0 -256 254.6 256" style="overflow:visible;">
	<g>
		<polygon style="fill:none;" points="0,0 254.6,0 254.6,-256 0,-256 		"/>
		<g>
			<polygon style="fill:none;" points="0,0 254.6,0 254.6,-256 0,-256 			"/>
		</g>
	</g>
</pattern>
<pattern  x="0.5" y="256.5" width="254.6" height="256" patternUnits="userSpaceOnUse" id="SVGID_4_" viewBox="0 -256 254.6 256" style="overflow:visible;">
	<g>
		<polygon style="fill:none;" points="0,0 254.6,0 254.6,-256 0,-256 		"/>
		<g>
			<polygon style="fill:none;" points="0,0 254.6,0 254.6,-256 0,-256 			"/>
		</g>
	</g>
</pattern>
<g transform="translate(3.7367 -942.76)">
	<pattern  id="SVGID_5_" xlink:href="#SVGID_1_" patternTransform="matrix(1.9172 0 0 2.2555 119.686 54307.5195)">
	</pattern>
	<path style="fill:url(#SVGID_5_);stroke:#FF0000;stroke-width:0.3543;" d="M50.4,1083.8l-4.8,9.6c-7-4.8-10.1-11.8-13.8-18.6
		l-1.7,11.8c-7.3-11-7.3-22.3-8.7-32.1c-3.9,4.8-4.8,9-5.1,13.3c-3.4-9-3.7-20-1.7-31.3l-7,3.9c3.1-11,6.2-22,14.9-31.9l-12.1,5.6
		c3.9-8.2,7.9-16.4,19.7-22.3c-1.7-2.3-3.7-3.4-6.5-3.4l-8.7,2.3c5.4-8.5,15.2-11.6,26.8-13.3l-0.3-8.7c-0.6-2.5-3.1-3.1-5.1-4.2
		c2-0.8,2.5-2.3,7-1.7l12.7,2.8l12.4-5.1c5.4-0.8,11.3,0,18,2.8l-0.8-5.1l-5.6-2h-9.3c3.4-1.4,2.3-3.7,13.5-4.5
		c10.1,1.1,14.9,7.6,21.4,12.4c5.4-4.8,11-8.2,17.8-9.3c7.3,0,13.5,1.1,18,3.7c-6.5,0.3-11.3,1.1-14.7,2.5c-4.2,1.4-6.8,2.8-8.7,4.2
		c7-0.6,13.8,0.6,20.3,1.7c5.9,2.3,10.7,5.1,13,9c-3.7,1.4-8.5,1.7-13.8,0.6c9,4.5,15.5,10.4,20.6,17.2c-4.5-2-9.3-3.7-13.3-3.1
		c6.5,7.9,12.4,15.8,12.4,24l-7-5.4l-5.1,1.1c3.9,4.5,5.1,8.7,6.8,13.3c2.3,6.8,3.7,13.5,2.8,19.5l-7.3-12.1
		c-0.3,5.1-0.8,10.1-3.4,13.3l3.9,7c4.2,5.6,3.1,11,2,14.7l-5.1,10.4l-4.8-11c-3.9,12.1-10.7,24.5-16.1,31c0-3.9,0-8.5-1.4-10.1
		c-4.2,11.3-9.6,15.2-14.7,22l-0.8-6.2c-2.3-2.3-3.7-1.4-4.8-0.6c-2.8,2.3-6.2,5.4-7.9,5.6c-5.9-0.6-10.4-2.8-14.7-5.1
		c-3.9-2.3-6.2-5.9-8.7-9.3c0.6,4.8,0,8.5,1.7,14.9c-9.6-5.4-13.3-9.6-15.8-13.8L50.4,1083.8z"/>
	<path shape-rendering="auto" image-rendering="auto" color-rendering="auto" d="M122,1001.5c-0.8,0.6-2,2.5-1.7,5.1
		c0.6,2.5,3.1,2.8,3.7,3.7c1.7-0.8,2.3-0.8,3.7-2.5c0.6-0.8,2-5.1,2-6.2c-0.6-0.6-1.1-1.1-2-1.4c-0.8-0.3-1.7-0.6-3.4-0.3
		C122.8,1000.1,122.5,1001,122,1001.5L122,1001.5z M127.3,1005.7c-0.3,0.6-1.4,2-2.5,2.5c-0.6,0.3-2.8,1.4-3.1-1.1
		c-0.6-3.7,0-5.1,2.8-5.6c0.6,0,3.7,0.3,3.9,0.8C127.6,1004.1,127.6,1005.2,127.3,1005.7L127.3,1005.7z"/>
	<path shape-rendering="auto" image-rendering="auto" color-rendering="auto" d="M96.3,1006.9c2,1.7,4.8,3.4,10.4,1.4
		c3.4-1.1,1.1-2.8,1.1-4.8c-1.7-2-3.9-4.2-5.6-4.2s-3.7,0.3-5.4,1.1c-1.1,0.6-2.8,2-4.8,1.1C92.4,1003.5,94.1,1005.2,96.3,1006.9
		L96.3,1006.9z M107.3,1004.9c0.3,1.4-2.5,3.4-5.6,2.8c-3.1-0.6-4.8-2.5-6.2-4.2c2.8-1.4,3.4-2.5,6.5-2.5
		C103.6,1001,107,1003.5,107.3,1004.9L107.3,1004.9z"/>
	<g>
		<pattern  id="SVGID_6_" xlink:href="#SVGID_2_" patternTransform="matrix(0.7187 1.1709 3.021 -1.854 -18407.4434 -14986.5039)">
		</pattern>
		<path style="fill:url(#SVGID_6_);" d="M133.2,1101.9c0,0,13-5.6,19.5-4.5c6.8,1.1,17.8,10.7,17.8,10.7c-1.1-4.8-2.5-9.3-6.2-17.2
			c0,0-5.4-5.4-8.7-5.6c-6.8-0.6-18.9,6.5-18.9,6.5L133.2,1101.9z"/>
		<pattern  id="SVGID_7_" xlink:href="#SVGID_3_" patternTransform="matrix(0.7187 1.1709 3.021 -1.854 -18407.4434 -14986.5039)">
		</pattern>
		<path style="fill:url(#SVGID_7_);" d="M61.9,1108.4c4.8,8.2,16.9,11,22.6,9c6.2-2.3,10.1-3.9,10.1-3.9l-1.1-6.8
			c-8.5-1.7-16.9-2.5-24-14.9l1.7,15.2c-6.5-2.8-10.4-7.6-14.9-11.6L61.9,1108.4z"/>
	</g>
	<path shape-rendering="auto" image-rendering="auto" color-rendering="auto" d="M82.5,950.8c-6.8,0.3-11,3.1-15.2,6.5
		c4.5,0,12.1-1.1,15.8,1.7c0.8,0.6,1.4,1.7,0,2.5c-4.2-2-9.3-2.8-15.5-2c-2.5,0.3-11.3,4.8-14.1,4.8c-3.4,0-8.2-2-12.1-2.3
		c-3.1,0-6.2,1.4-7.9,3.1c1.1,0.8,3.7,1.1,4.8,1.7c1.1,0.6,1.4,2.3,1.4,3.1c0,2-1.4,5.6-0.8,6.5c-3.7,0.3-3.7,0.6-5.9,0.8
		c-5.9,0.8-11.3,4.2-15.5,8.5c-2,2-6.5,6.2-7.6,8.7c4.5-1.7,7-3.4,8.7-3.7c4.5-1.1,7.6,0,8.5,1.1c-0.6,0.3-4.8,3.1-5.4,3.7
		c-3.1,2.3-5.6,5.1-7.9,8.2c-2.8,3.9-4.8,8.7-6.2,13.5c3.4-1.7,6.5-4.5,9.9-5.1c-5.1,6.5-8.7,14.4-10.7,22.3
		c-0.6,2.8-1.4,7.9-1.7,10.7c3.4-4.2,5.1-5.4,7.9-6.8c-0.6,2-2,7.9-2.3,9.6c-0.6,9,2.5,17.8,6.2,25.9c1.1-4.5,0.3-10.4,3.1-14.4
		c-0.6,5.1,0.6,10.7,2.8,16.4c2,5.4,5.1,10.7,8.2,14.4c0.8-2.3,1.4-7.3,1.7-10.7c1.7,2.5,2.5,5.4,5.4,9.6c2.3,3.4,5.4,5.9,9.6,7.6
		c0-2,0.6-5.4,2.5-9.6c4.2,9,13.3,18.3,22.6,22c-1.4-4.5-1.4-8.2-1.7-13.5c2,3.9,6.8,7.6,11.6,9.6c4.5,2,9.3,3.1,13,3.1
		c2-2.8,5.6-6.5,7.9-6.5c1.4,0,2.3,0.8,2.3,4.8c0,2.3-0.3,3.7-1.1,5.9c1.4-1.7,4.5-5.1,5.6-6.5c4.2-5.6,8.7-10.1,11.3-16.6
		c1.4,4.2-0.6,7.6-0.8,11.8c7.9-9,14.9-21.1,18.6-32.7c-0.3,4.2,3.9,7,4.5,11c0.6-0.8,3.7-7,4.2-7.9c2.8-5.1,3.9-11,2.3-16.9
		c-0.8-3.7-3.4-7.3-5.4-10.1c1.1-2,2.5-4.2,3.1-8.5c2.3,3.1,4.2,7,6.8,11.8c2.3-10.7-2.3-26.8-8.5-35.5c1.4-0.6,3.7-0.6,5.1,0.3
		c2.8,1.7,5.1,5.4,6.5,5.6c0.6-5.1-0.3-9.3-2.3-13.3c-1.7-3.1-6.2-10.1-8.7-12.7c4.2,0.8,9.6,2,13,4.8c0.3-2.3-3.7-8.2-6.2-10.1
		c-3.1-2.3-7.3-5.9-11.3-7.9c3.7,0.3,9.6,0,11.8-0.8c-4.5-5.6-9.6-9.6-16.4-12.1c-2.3-0.8-10.7-2-17.2-0.8c2.8-0.6,7.6-3.7,12.7-4.2
		c5.6-0.6,10.1-0.3,14.1,0.6c-3.9-2.3-8.2-4.5-12.7-5.9c-5.1-1.4-10.7-1.7-15.8-0.3c-5.1,1.4-11.3,6.5-13,6.5
		c-1.7,0.3-6.8-4.2-10.1-6.5C91.5,952.7,86.4,950.5,82.5,950.8L82.5,950.8z M80.5,953.6c2.3,0,4.2,0,4.8,0.3
		c4.5,0.6,8.2,2.8,11.6,5.6c2.8,2.3,5.4,4.8,7.9,7.3c3.1-2.8,10.4-7.6,14.4-9.3c5.1-2,10.7-0.8,16.1,0.8c-3.9,0.3-11,2-14.4,3.7
		c-2.8,1.4-5.6,3.4-8.5,5.4c5.6-1.1,7.9-0.8,9.3-0.8c3.1,0,5.4,0.3,10.4,1.7c6.2,1.7,12.1,4.5,16.1,7.6c-5.1,0.8-14.1,0-18-1.7
		c6.8,4.8,9,6.5,13.8,9.9c2.5,2,7.3,4.8,9.3,7.3c-5.9-2-9.3-2.3-11.8-1.4c1.1,2.3,4.2,7,6.8,10.4c2.5,3.7,5.4,7.3,5.6,10.7
		c-6.5-6.2-7.3-2.3-8.5-2.8c-2.5-0.8-3.9-1.4-7.6-3.1c2,2.5,3.7,3.7,6.2,6.8c2.3,3.1,3.9,6.5,5.4,9.9c2,4.8,3.9,11.8,4.2,17.2
		c-2.3-3.4-4.8-8.2-6.8-10.7c-2.3-3.1-4.8-5.4-8.5-6.2c1.1,1.7,3.4,2.8,4.8,5.1c1.1,2,1.7,4.5,1.7,7.3c0,3.1-0.8,5.1-2,6.8
		c-1.1-0.6-2.5-0.8-3.4-2c-0.6-0.6-2.5-2.8-3.7-3.9c-0.6,1.1,1.4,4.2,2.5,5.6s2.5,1.7,2.5,3.4c0,0.8-1.1,2.5-1.7,3.1
		c-1.7,2.3-2.8,3.9-3.9,4.8c-0.6-2.3,0.3-7-0.6-8.7c-0.6-1.4-0.6-1.7-3.4-4.5c0.8,2.5,1.7,5.1,2,6.5c0.6,3.9-0.8,10.1,0.3,10.1
		c1.1,0.3,3.7-2.5,5.4-4.5c1.7-2,3.7-3.7,4.2-3.9c3.1,4.5,6.5,8.7,5.6,14.1c-0.3,2.5-3.1,10.4-4.8,12.7c-0.3-3.4-2.3-7-3.1-9
		c-1.7-4.5-2.3-5.9-3.4-7c0,2.3,0.8,3.4,0.3,5.6c-0.8,3.4-2.8,7-3.9,9.9c-1.7,3.7-3.4,8.2-5.1,11.6c-0.6,1.4-2.8,6.5-4.8,8.5
		c0-2.3-1.4-8.2-1.7-9.6c-0.8-3.9,1.4-8.2,0.8-12.4c-0.3-2.3-2.5-3.4-3.9-6.2c-2.3-3.7-1.7-5.1-1.7-7.9c-1.7,3.7-1.4,4.5-0.6,7
		c0.8,2.8,2,3.1,3.1,5.9c1.1,2.5,1.7,5.1,0.8,7.9c-2.3,3.1-1.7,2.5-1.1,7c-0.6,0.6-0.8,3.7-2.3,6.5c-1.4,2.8-4.5,5.6-5.1,6.5
		c-1.1,1.7-2.8,4.2-4.5,6.2c-0.6-2.8-0.3-3.9-2.5-5.1c0.6-2.3,3.1-6.5,4.5-9.3c2-3.9,3.7-8.5,0.6-12.4c-2.8-3.7-4.8-8.2-5.6-12.7
		c-0.3-2.8,0.3-5.9,0-7.9c-1.4,2.5-2.3,4.5-2,7.9c0.6,4.2,2.5,8.7,4.2,11.3c4.2,6.2-0.3,16.6-4.2,20.9c-2.5,2.5-4.8,7.6-7.9,7.6
		c-1.1,0-2-2.8-3.4-5.1c-1.4-2-4.5-4.5-5.6-6.5c-1.1-2.3-1.4-4.5-1.4-6.8c0.3-3.1,0.3-5.1,1.4-8.2c1.7-4.8,4.5-6.2,3.4-10.4
		c-0.3,3.7-3.4,6.5-4.8,10.1c-1.1,3.4-2,5.6-2.5,8.2c-0.3,2,0.6,4.5,1.7,7c1.1,2.8,3.4,5.4,5.9,7.6c0.8,1.1,2.5,3.9,2.3,4.5
		c-0.8-0.6-8.2-2.3-9.3-2.8c-4.2-2-9-6.8-10.4-10.7c-0.6-1.7,0.3-3.1,0.8-5.4c0.8-3.1,2.5-8.2,3.1-10.7c-1.4,2-4.2,6.8-5.4,8.7
		c-1.1,2.5-2.5,5.6-2.5,8.2c0,2.8,1.1,9,1.7,11.8c-3.4-0.3-8.5-5.1-12.4-10.7c-2.3-3.4-3.7-7-4.8-9.6c-2.3-5.6-2.8-10.7-2.3-16.6
		c0.6-4.8,2.3-11.3,2.3-14.9c-2.3,3.4-3.9,8.5-4.8,13.8c-1.1,5.6-0.6,13.5,0.6,17.8c-1.1,2-2.3,2.5-4.5,6.8
		c-6.5-5.6-9.9-15.8-11-22.6c-0.8-4.8-1.1-10.4,0.6-15.2c0.8-3.1,2.8-5.6,5.1-7.9c3.9-3.7,7.3-10.7,7-16.6
		c-2.3,5.1-5.1,12.4-10.4,16.9c-2.3,2-3.4,4.5-4.2,6.8c-1.7,4.8-2,10.1-2,15.2c0,2,1.1,12.1,0.6,14.4c-1.4-1.1-3.7-7.3-4.2-10.7
		c-1.1-5.4-2-18.9-1.4-22.3c0.8-4.2,0.8-9,3.1-13c1.4-2.5,3.4-4.8,4.8-7.3c-3.4,2.5-5.9,4.8-7.3,8.2c-1.7,3.7-3.1,7.9-3.4,11
		c-0.6,3.7-0.6,5.6-2,7.6c-1.1,1.7-1.7,2.3-3.1,4.2c-1.7-7.3-0.8-18,0.6-26.2c-2.8,2.3-3.7,3.7-6.2,3.9c0.3-0.8,2.3-7.3,2.8-8.2
		c1.7-4.5,4.2-9.3,7-13.5c2.5-3.7,5.1-7,7.9-9.9c-2.8-0.3-13,4.5-15.8,6.5c2.8-3.7,3.9-5.9,5.9-8.5c4.2-5.1,7.9-8.7,13.3-11.6
		c2-1.1,5.1-2.8,7.3-2.5c0-1.1,1.7-3.1,3.1-3.9c3.4-2.5,7.9-3.7,12.4-5.1c3.9-1.1,8.2-1.7,11.6-2c-2.8-0.6-8.5-0.3-13.3,0.6
		c-7.3,1.4-12.1,3.7-15.8,7.9c-2.5,0.3-4.5,1.1-6.5,2.8c-2.8-3.1-5.9-3.1-11.6-1.7c5.6-5.9,24-9.6,24-9.6s-1.1-3.4-0.6-6.2
		c0.3-2.3-1.1-6.2-3.7-7.6c0.6,0,4.2-0.8,6.5-0.3c3.7,1.1,5.9,2.3,8.5,2.8c2.3,0.6,4.8,0.8,6.8,1.1c3.7,0.6,7,1.4,9.6,1.7
		c2.3,0.3,4.2,1.4,5.9,2.5c-2.8-0.3-5.9-0.3-8.7,0.6c-0.8,0.3-3.9,1.1-5.1,2.8c5.4-1.4,10.4-1.4,14.1-1.1c1.7,0,7,1.7,9.9,3.1
		c0.8,0.3,3.4,1.4,5.4,2.3c-2.8-2.8-8.2-6.2-10.7-6.8c-2.8-2-5.1-3.7-8.2-5.1c-3.7-1.4-7.9-2.3-11.8-2.5c0.6-0.6,5.4-2.8,6.2-3.1
		c8.7-2.5,11.8,0,20,3.1c2,0.8,10.7,5.6,13,3.9c-2.8-0.6-7-3.4-9-4.5c-2-1.1-3.4-2.3-3.7-5.6c-0.6-2-4.2-3.7-7.6-4.2
		c-1.7-0.3-4.5,0.6-6.5,0.3C74,954.4,78.3,953.9,80.5,953.6L80.5,953.6z M120.8,969.1c-4.2,0.3-5.9,0.3-9.9,2.3
		c-3.7,1.7-3.4,3.9-3.1,5.1c1.1-3.1,5.9-4.5,8.2-5.4c3.7-1.1,5.4-0.6,9-0.8c6.5-0.8,9.9,2.8,15.2,2.5c-3.9-1.4-6.8-2.8-11-3.7
		C127.3,968.2,125.1,968.8,120.8,969.1L120.8,969.1z M60.2,985.2c-2.5,0-4.8,0-7,0.6c-3.9,0.8-7.6,2.5-11.3,5.4
		c-3.1,2.3-7.6,2.8-10.1,5.6c-1.1,1.4-3.1,3.4-6.8,6.8c5.4-2.8,5.6-3.9,9.3-6.5c3.1-2.3,6.8-3.1,9.6-4.5c3.9-2.3,6.5-4.2,9.6-4.8
		c2.8-0.3,6.8-0.8,9.6-2.3C61.9,985.2,61.1,985.2,60.2,985.2L60.2,985.2z M52.6,995.9c-2.3,0.8-8.5,5.6-10.1,7.3
		c-2.5,2.3-5.1,4.8-7.6,7c-2.3,1.7-4.8,3.1-7.6,3.7c-3.1,0.6-5.1,3.1-7,5.4c-2.5,3.1-3.1,7.9-3.4,11.3c2-4.2,3.7-7.3,5.9-10.4
		c2-2.3,3.9-3.4,5.4-3.9c5.4-1.4,9.6-4.8,13.3-8.5C44.2,1004.6,49.2,999.5,52.6,995.9z M63.3,996.2c-3.4,0.8-5.1,2.8-6.5,5.1
		c-2,3.4-2.8,7.3-7,9.9c-2.8,1.7-6.5,3.1-9,5.4c-2.8,2.5-4.5,5.9-7.3,8.7c6.5-1.7,7.9-7,10.1-7.9c3.1-1.1,7.9-3.9,9.9-5.9
		c2.8-3.4,2.3-4.5,4.5-8.5C59.7,1000.4,61.6,998.4,63.3,996.2L63.3,996.2z M67.6,1002.9c-3.7,3.4-7,6.2-9.6,9.6
		c-2,2.5-3.9,5.4-4.2,9.3c-0.6,5.4,3.9,8.2,5.9,13c0.8,2,0.8,5.1,0.3,7.3c-0.6,2.5-2.5,6.8-2.5,10.4c0.8-2.3,4.8-6.5,5.1-9
		c0.3-2.5,0.6-4.8,0-7.3c-0.6-2.5-2-4.8-3.7-7c-5.6-6.2-0.6-14.1,3.9-19.5C64.7,1007.4,65.6,1006.3,67.6,1002.9L67.6,1002.9z
		 M77.4,1008.8c-3.9,2.3-6.2,6.2-7.6,8.5c-2,3.1-2.8,8.5-1.7,12.4c1.1,5.4,3.7,9.9,6.5,14.1c2,2.8,3.4,5.1,4.5,8.5
		c0.8,2.3,1.4,4.2,1.1,7c-0.8,7.6-2,9.6-3.4,13.5c3.7-1.1,6.5-5.4,8.2-9.6c1.4-3.4,2.3-7,2.3-9.3c0.3-9.9-4.2-14.9-6.2-23.7
		c0.6,0,2.3,2.3,4.5,5.4c3.7,5.1,4.8,7.9,6.5,12.7c1.1,3.1,2.8,8.2,2.5,13.5c-0.3,5.1-0.8,12.4-1.1,16.6c2-4.2,3.7-13.5,3.4-18.9
		c-0.3-5.6-0.8-9.3-2.5-13.3c-1.7-4.5-5.9-13-9.6-16.4c-2.8-1.1-6.2-3.4-7.6-7c-1.7,9.6,2.5,13.8,5.9,21.4c0.6,1.1,2,4.5,2,8.2
		c0,2.5-0.8,7.9-1.4,9c-1.4,3.1-3.1,5.9-5.1,8.5c0.6-2,2.3-5.4,2.8-9.3c0.6-3.1,0.3-6.8,0-8.2c-0.8-3.7-3.7-7-5.9-10.7
		c-2-2.8-3.7-5.9-4.5-9c-1.7-6.2-1.4-10.1,0.3-14.1C73.5,1014.8,74.6,1012.5,77.4,1008.8L77.4,1008.8z M67,1046.1
		c0,3.7,1.4,11.8-3.7,16.1c-2,1.7-3.1,4.5-3.9,6.8c-1.1,3.7-0.8,7,0.6,9.6c1.4,2.8,2,4.2,4.8,8.2c-1.1-2.8-1.7-3.9-2.5-7
		c-1.1-4.2-1.7-5.9-0.8-10.1c0.6-2.5,2.8-5.1,4.5-7.3C69,1058.2,70.7,1052,67,1046.1L67,1046.1z"/>
	<path shape-rendering="auto" image-rendering="auto" color-rendering="auto" d="M166,1019c-4.5,0-10.7,1.1-14.4,3.7
		c0,0.6,0,1.1,0.3,2c5.6-1.1,11-1.7,17.8-0.6c9.3,1.4,14.1,6.8,21.4,13.5c5.9,5.6,9.3,16.9,9,23.4c-0.3,9.3,2.3,16.1,1.7,25.4
		c-0.3,9.6-2.5,16.9-5.1,26.2c-0.6,2-1.4,3.4-2.5,4.8c1.7,1.7,3.7,3.1,4.2,5.9c0.3,1.1-0.6,4.2-0.8,5.6c-1.7,7.6-0.8,16.9,0.6,24.5
		c-1.4,1.4-2,2.5-2.3,3.9c-0.3,2,0.6,3.7,1.4,5.6c1.1,2.3,4.2,4.8,3.9,7.3c-0.3,3.1-2.8,4.2-3.7,4.8c-0.8,0.6-2,0.3-3.4-0.8
		c0.3-1.4,0.3-3.4,0-4.5c-0.3-1.7-0.6-3.1-1.7-4.8c-0.6,0.8,0.3,2,0.3,3.9c0,2,0.3,3.9,0,5.4c-1.1,1.7-2.3,1.7-3.9,2
		c-0.8,0-1.7-0.3-2.8-1.1c0.3-0.6-0.6-2.8-0.6-4.2c0.3-2.5,1.1-3.9,0-6.5c-0.3,1.1-0.8,2.5-1.1,4.2c-0.3,2.3-0.6,4.5,0,6.2
		c-1.4,1.1-2.5,1.7-4.2,1.1c-1.1-0.3-2-1.1-2.8-1.7c-0.3-2-0.6-2.3-0.3-4.8c0.3-2,2-4.2,2-5.1c-1.4,0.6-2.3,2-2.8,3.4
		c-0.6,2-0.8,4.2-0.6,5.9c-1.4,1.1-3.1-0.6-3.7-0.8c-1.1-1.1-1.4-2.8-0.8-4.8c0.8-5.4,6.5-7.9,10.1-5.6c3.9-4.2,5.9-9,5.1-14.9
		c-1.1-8.5-1.7-15.8-4.8-23.1c0.8-1.7,2-4.5,1.7-5.9c-0.8-2.8-5.9-4.5-8.2-7.6c-2-2.8-3.4-5.6-4.5-8.5c-2.3-5.1-3.1-10.4-6.8-14.7
		c-0.8-0.8-4.2-2.5-5.1-3.1c2.3-1.1,3.7-2,5.9-4.2c2.5-2.5,3.1-9.9,2.5-10.1c-3.1,7.9-6.2,9.9-10.7,11.3c-1.1,0.3-2.5,1.1-3.9,1.1
		c-3.7,0.3-7.3,1.4-10.4,3.7c-1.7,1.1-3.1,2.3-4.2,3.7c0-0.6,0-1.1,0-1.7c0-2,0-3.4-0.6-4.5c-1.1-3.1-2.8-3.9-4.8-5.4
		c0,0,2,3.1,2.8,5.1s0.6,3.4,0.3,4.8c-0.3,1.7-1.1,3.9-2,5.9c-0.6,1.7-0.8,2.8-1.1,3.9c-0.6,3.4-2.3,10.1-2,16.1
		c0.3,12.7-3.1,25.1-6.5,37.2c0.3,3.4,0.6,7.6,1.1,10.7c-0.3,1.4-1.4,2.3-1.7,4.5c-2-1.4-3.9-2.3-6.2-2.3c-2.5,0-5.6,0.8-8.7,2.5
		c2.3-0.6,6.2-0.3,8.5,0c1.7,0.3,3.7,1.1,6.2,2.8c2.5,2,4.5,6.5,4.5,10.1c0,2.8-1.1,4.8-3.4,5.6c-1.7,0.8-3.7,0.8-5.6-1.1
		c-0.8-2-0.8-3.7-0.8-6.2c0-1.4-0.3-2.8-0.8-4.2c-0.6,0.8-0.3,2.8-0.6,4.2c-0.3,2,0.3,3.9,0.6,5.4c-0.6,1.7-1.7,2.8-3.4,2.8
		c-1.1,0-3.1-0.6-4.5-1.7c-0.8-1.4-0.8-3.1-0.8-4.8c0-1.1,0-3.4,0-5.6c-0.8,1.4-1.4,3.7-1.4,5.9c0,1.4-0.3,3.4,0.3,4.5
		c-0.8,1.1-1.7,1.4-2.8,1.4c-2-0.3-3.1-0.8-3.9-1.7c-0.6-1.7-0.6-2.5-0.8-3.9c-0.3-1.1,0.8-4.5,1.7-6.8c-1.7,1.1-2.8,3.9-3.1,5.9
		c-0.3,1.4,0,3.1,0.3,4.2c-0.3,0.6-0.3,1.7-1.7,1.7c-3.4-0.3-3.4-2.5-3.7-4.5c-0.3-4.5,5.4-10.7,9.3-13c2.3-0.3,3.4-1.1,3.7-2.3
		c0.6-1.7-0.8-4.2-1.1-6.5c-0.6-3.7-0.3-7.6,0-11.3c2.3-6.2,3.1-13.8,2.3-20.9c-1.1-9-3.9-17.5-8.5-25.1c-3.4,3.1-2,4.2-6.2,3.7
		c1.1,7.6,2.8,15.2,0,22.8c3.9,7.3,2.3,16.1,5.1,23.7c-3.4,5.1,5.6,11.6-1.1,15.5c-2.8,3.9-7.6,8.7-12.1,10.4
		c-2.8,1.1-5.9,1.1-8.2-0.8c-1.4-1.1-2.8-4.2-2.5-6.2c0.3-1.7,1.7-3.7,2.5-5.1c-2.8,1.1-3.9,3.9-3.9,7c0,2,0.8,3.9,2.3,5.4
		c-3.1,1.1-6.8,0.6-9.3-1.1c-0.6-2-0.3-4.5,0.6-6.5c1.1-2.3,2.5-3.4,4.2-4.8c-2.5,0.6-4.2,2-5.4,3.7c-1.1,1.7-2,3.7-1.4,6.8
		c-1.7-0.3-2.5-2.8-2-5.4c0.3-2,1.7-4.2,2.8-5.1c2.5-2.5,7.9-2.8,11.6-1.1c2,0.3,2.8-0.6,3.7-0.6c2,0,3.9,0.8,5.9,1.1s4.2,0.8,6.2,0
		c1.7-0.8,3.1-3.1,2.3-4.8c-0.3,1.7-1.4,2.5-2.5,3.1c-1.4,0.6-3.4,0.6-5.1,0c-1.1-0.3-2.8-1.7-5.1-2c1.7-3.7,0.6-9.6,0.3-13.3
		c-1.1-9.9-8.2-17.8-10.7-27.6c-2.3-8.2-9.6-13.8-11.8-22.3c-2.3-2.3-3.7-3.9-5.6-6.5c3.7,8.5,6.2,17.2,11.8,24.2
		c4.2,5.4,4.2,13,7.3,18.9c2.5,4.5,5.6,9.3,6.2,14.4c0.3,2,0.6,5.1,0.3,7.3c-0.3,1.7-1.4,3.1-1.7,4.5c-2.5-0.6-5.9-1.7-8.5-1.4
		c-5.4,0.6-9.6,4.5-10.7,10.7c-0.8,5.9,4.2,9.9,9.6,10.7c2.8,0.3,5.6-0.6,7.9-1.4c3.1,2.5,4.8,3.4,8.2,2.8c2.8-0.3,5.6-3.4,7.6-6.2
		c-2.3,5.9-0.6,9-0.3,9.3c0.8,0.8,2,2,3.4,2.5c1.1,0.3,3.7,0.3,5.6-1.4c0.8,1.4,1.7,2,3.1,2c2.5,0,3.1,0,5.6-2.5
		c1.1,2,3.1,2.8,5.4,3.1c1.4,0,2.8-0.6,3.9-2.3c2.3,2,5.6,2.3,7.6,1.4c4.2-1.4,6.2-7.3,5.9-12.1c-0.6-5.6-7.6-8.7-3.9-14.7
		c-0.8-8.5,1.7-16.6,4.2-25.1c3.4-11,2.3-22.8,2-34.4c0-1.1,1.1-1.4,1.7-1.1c0.6,0,1.4,0.6,2,1.4c2.3,2.8,4.8,9,5.9,11.3
		c2,4.2,5.9,7.3,9.3,10.4c3.1,3.1,5.4,6.2,5.6,11c0.3,4.5,3.1,11,0.6,14.9c-0.6,0.8-1.4,3.1-3.1,3.9c-1.7,0.8-3.9-0.8-5.9-1.1
		c-3.4-0.6-8.7,0.6-10.7,2.8c-2.8,3.7-5.4,12.1-2.3,15.8c0.8,0.8,2.8,2.3,5.1,2.5c2,0,3.9-1.1,5.1-2c1.1,1.7,2.8,3.1,4.5,3.1
		c1.4,0,3.9-0.3,4.8-2c0.8,0.8,4.2,2.8,5.4,2.8c1.4,0.3,5.6-0.8,7-4.5c0,0.8,0.6,2.8,2,3.9c1.1,0.8,3.4,1.7,4.8,0
		c1.7,3.4,6.5,5.1,9,2.3c2.5,2,5.6,3.4,8.5-0.3c2.8,1.4,5.1,0.8,7-0.3c2.5-1.7,3.9-4.8,4.8-7.6c1.7-6.5-5.6-10.7-4.2-16.9
		c1.4-4.2-0.6-11.6,0-18.9c0.3-4.5,2-9.3,3.1-11.8c-2-3.4-3.7-4.8-6.2-6.8c3.7-6.2,7-17.2,8.2-25.1c1.7-11.3-1.1-20.9-2.3-32.1
		c-0.6-7.3-2-13-3.9-16.6c-1.7-3.4-4.2-7.9-7.6-11.6c-3.9-4.5-8.7-7-12.4-9.3C176.4,1020.1,171.3,1019,166,1019L166,1019z
		 M154.4,1086.1c2,0,3.7,0.6,5.4,1.7c4.8,3.4,7,10.4,8.5,16.4c0.8,4.5,4.8,8.2,7.6,11.6c1.1,1.1,2.8,2.3,3.1,3.9
		c0.3,2-1.1,4.2-1.7,7c-2,6.8-4.2,14.1-3.9,21.1c1.7,4.5,1.1,8.7-1.1,11.8c-2.5,3.4-4.2,5.6-4.2,9.9c0.3,3.9-3.4,5.6-6.2,4.8
		c-2.3-0.6-3.9-1.1-5.1-2.5c-0.8-1.1-1.1-2.5-1.1-3.9c0-0.8,0.3-2.8,0.6-4.5c-1.1,0.8-2,2.5-2,3.9c-0.3,2,0.3,3.7,1.1,5.1
		c-0.8,0.6-2.3,0.6-3.1,0.6c-1.7-0.3-3.7-0.8-3.9-4.5c-0.3-2.5,0.6-3.7,1.1-5.9c-1.7,1.4-2.3,2.8-2.5,4.5c-0.3,2-0.3,3.4,0.3,5.1
		c-1.1,1.1-4.5,1.1-5.4,0.6c-3.4-2.5-0.3-9,1.4-11c2.8-3.9,7.3-3.1,10.1-2.5c1.7,0.3,3.7,1.1,5.1,0.3c1.4-1.1,3.1-0.8,4.8-0.6
		c1.4,0.3,3.7,1.7,5.1,2.3c-0.6-1.4-2-2.5-3.4-3.4c-0.6-0.3-2.5-0.6-3.1-0.6c0.8-1.7,2-4.2,2.3-6.5c0.8-5.4-0.3-11.3-0.8-16.4
		c-0.6-4.8-3.9-8.2-7.3-11.3c-3.4-3.1-6.8-5.9-8.5-10.4c-1.1-3.1-2.3-6.5-4.2-8.7c-1.7-2-4.2-2.5-6.8-3.9c0.3-0.8,0.8-2.8,1.4-3.9
		c0.3-0.6,0.3-1.4,0.6-2.3c1.1-0.8,2.3-1.4,2.8-1.7c3.1-1.7,5.9-3.1,9.9-4.5C150.7,1086.7,153.8,1086.1,154.4,1086.1L154.4,1086.1z
		 M96,1105.6c3.9,6.8,7.6,15.2,7.9,23.1c0.3,6.8-1.1,13.3-2.5,19.7c0.6,3.4,0.3,8.5,1.7,15.2c0.3,0.8,0,2.3-1.4,1.7
		c-1.1-2.3-3.4-8.5-1.7-12.1c-1.7-3.7-0.8-11.8-1.7-16.1c-1.1-5.1-2.8-5.4-3.1-8.2c2.5-6.8,3.4-11.6,0.6-19.2l-0.3-2.8L96,1105.6z
		 M179.8,1128.1c0,3.4,2,10.4,2.3,14.7c0.6,5.9,2.3,11.8-2,16.6c-2-0.6-4.2,0.6-5.6,0.8c1.7-3.1,3.7-11.3,1.1-13.8
		C177.2,1142.2,177.2,1131.5,179.8,1128.1L179.8,1128.1z"/>
	<pattern  id="SVGID_8_" xlink:href="#SVGID_4_" patternTransform="matrix(2.2603 0 0 1.662 5824.438 44344.4336)">
	</pattern>
	<path style="fill:url(#SVGID_8_);" d="M208.8,977.8c0.3,2.5,1.7,3.7,4.5,2.5c6.5,1.1,11.8,1.4,13,0c0.8,0,3.7-2.8,9.9-10.1
		c2-2.8,4.5-3.9,5.6-9c0.8-3.1,0.3-4.2,0-6.2c-0.8,2.8-3.7,3.7-5.9,5.4c-4.5-0.3-9,2.5-13.5,3.9c-4.5,0.6-8.2,1.4-11.3,2.8
		C208.5,969.7,206.8,972.5,208.8,977.8L208.8,977.8z"/>
	<path shape-rendering="auto" image-rendering="auto" color-rendering="auto" d="M236.2,959.2c-2.8-0.3-8.7,2-11.6,3.4
		c-3.7,1.7-7.9,0.6-11.6,2c-4.2,1.4-9.3,7.3-5.4,13.3c-4.2,1.4-7.6,4.8-9.6,7.6c-3.4,4.8-7.6,10.4-7,16.4c0.6,3.9,3.4,8.7,6.5,11.3
		c4.5,3.9,7.6,8.7,10.7,14.1c2.5,4.5,3.4,7.6,1.4,12.7c-0.8,2-2.3,4.2-5.1,3.9c-2,0-3.7,0-5.6-2.3c1.1,1.7,1.4,3.1,2,4.2
		c2.8,3.1,4.2,5.1,8.2,2.3c4.8-3.1,7-7.9,5.9-13.5c-0.8-4.2-1.4-6.2-3.4-10.1c-1.7-3.4-3.7-6.5-6.2-9c-2.5-2.3-6.8-7.6-8.7-10.4
		c-2.3-3.4-1.1-8.7,1.1-12.4c3.1-5.4,7-12.4,11.6-13.5c2-1.1-1.4-6.8,0.8-9.3c4.2-4.5,9-4.2,11.8-4.2c3.7,0,5.1-2.8,10.4-3.4
		c2.8-0.3,6.2-0.3,8.7-3.9c-1.1,4.2-3.9,9.6-5.9,10.7c-3.1,1.7-5.4,4.5-6.8,7.9c-1.4,3.1-7,2.5-10.1,2.5c-2.8,0-5.4-1.4-6.5,1.7
		c-2.5,6.5-4.5,8.5-6.8,12.4c-2.3,4.5-0.3,8.2,2.8,12.1c4.5,6.2,10.4,9.6,14.4,16.4c2.8,5.4,4.5,11.6,3.1,17.5
		c-1.4,6.5-5.9,11.6-11.8,14.9c-3.1,1.7-7,1.4-10.1,2c0,1.1,0.3,2,0.6,2.8c2.5,0.8,5.4,0.6,8.2-0.3c2.5-0.8,5.1-2,7-3.4
		c5.1-3.4,8.5-8.7,9.9-14.7c1.4-5.9,1.1-12.7-1.7-18.3c-2.8-5.6-7.3-10.1-12.4-13.8c-3.4-2.5-7.3-5.6-7.9-9.9
		c-0.6-3.9,2.5-7.9,4.5-11.3c2-3.1,2-4.2,2.5-6.5c2.5-0.8,6.8,2.8,9.9,2c4.5-0.8,7.6-5.4,10.4-9c2.3-3.1,4.5-3.9,7-8.5
		c1.1-1.4,2.3-3.7,2.5-6.2c0.3-2.3,0.6-6.2-1.7-7.9C241.5,954.7,239,957.5,236.2,959.2L236.2,959.2z"/>
	<path shape-rendering="auto" image-rendering="auto" color-rendering="auto" d="M85.9,969.7c-1.1,0-4.8,0.3-4.5,0.8
		c4.2,2,6.8,2.8,11.3,6.2c1.7,1.4,3.1,2.3,4.2,3.7c-1.4,0-3.4-0.3-5.4,0.3c-1.7,0.6-3.1,2-3.7,2.5c-2-4.8-8.2-6.8-13-6.2
		c-7.9,1.1-12.4,7.9-11.8,15.2c0.3,2.5,3.7,8.5,7.6,7.6c-2.8-2-4.5-5.4-4.5-8.7c0-5.6,3.7-10.4,9.9-10.7c4.2-0.3,9,1.1,10.1,5.6
		c0.3,1.1,1.1,3.7,1.7,4.2c0.8-2.5,1.7-6.5,4.8-7c2.8-0.6,6.2,0,8.2,0.3c-0.8-3.9-10.7-9.3-14.4-11.3c3.4,0,6.2,0.8,7.6,1.1
		c2.8,0.8,9,3.1,13,5.4c-2.5-2.8-6.8-5.4-8.7-6.5C94.6,970.2,90.1,969.7,85.9,969.7L85.9,969.7z M119.4,981.8
		c-2.3-2.3-8.5-2.5-10.4-2.3c1.4,1.7,2.8,3.9,3.7,5.6c0.8,2.3,0,3.9-1.1,6.8c2-1.1,3.4-4.2,3.4-5.6c0-2.8-0.8-2.8-2.3-4.8
		c2.5,0,5.1,0.3,7.3,2c2.8-2,3.7-5.1,7.6-5.1c2.5,0,7,0.8,8.5,5.1c0.8,2.3,0,5.4-0.8,7c-1.1,2.5-7,5.6-10.1,2.3
		c-1.7-1.7-2-3.7-1.4-5.4c0.3-1.4,1.7-2.8,4.5-2.3c1.4,0.3,2.5,0.3,3.4,3.1c1.4-2.5-0.8-4.2-1.7-4.8c-2.5-1.1-5.4-0.3-6.8,0.8
		c-1.7,1.4-2.5,4.5-1.7,6.8c1.1,3.4,4.5,5.6,7.6,7c2.3,1.1,3.9,3.9,3.9,5.6c0,1.7,0.3,7.6-1.1,9.9c0.8,1.1,0.3,4.8,1.4,5.6
		c1.7,1.7,3.4,6.5-1.7,11.3c-1.4,1.4-2.8,1.4-4.2,0.6c-0.6-0.3-0.6-2.3-0.3-3.1c0.6-1.4,0.3-1.7-2-1.7c-0.8,0-2-0.3-2.3,1.1
		c0,0.8-0.6,3.7-0.8,3.9c-6.2,2.5-10.1,3.1-15.8,2.3c-2.5-0.3-5.1-1.4-7.3-3.4c-1.4-1.1-2.5-2.5-2.3-4.2c0.3-2,5.9-3.7,5.6-5.1
		c-1.1,0-3.4,0.3-3.9-0.6c-1.1-1.1-2.5-3.4-3.1-4.5c-0.6,1.1-0.3,2.3,0,3.7c0.3,0.6,0.8,1.7,0.6,2.3c0,0.6-0.6,0.8-1.1,1.4
		c-1.4,1.1-1.7,2.8-1.4,4.2c0.6,2.3,1.7,5.1,3.9,6.2c5.1,2.5,11.3,4.8,17.2,4.2c3.7-0.3,7.6-3.4,10.1-4.2c0.6,1.1,2.5,2.8,3.9,2.3
		c0.6,0.8,1.1,5.9-0.6,7c3.7,4.5,1.4,7.6-0.3,10.7c0-3.1-1.7-4.2-3.4-7c-1.4-2.3-2.8-4.2-4.2-5.4c0,1.7,0.6,2,1.1,3.4
		c0.3,0.8,0.6,1.7,0.6,2.5c0,0.8-0.8,2.5-1.4,4.2c-0.3,0.8-0.6,1.7-1.1,2.8c-2.3-0.8-3.7-2.3-5.1-4.5c-1.7-2.8-0.3-6.8-1.1-8.5
		c-0.3,1.7,0.3,2.8-1.7,5.4c-0.3,3.4-1.4,4.5-2.5,6.5c-1.4-1.1-2.8-3.1-3.1-5.1c-0.3-1.1-0.3-2.3-0.6-3.4c0-0.3,0.6-1.4,0.6-2.3
		c0-1.1-0.3-2,0.3-2.8c-1.1,0.8-1.4,1.7-1.7,2.5c-0.3,0.6-1.1,0.8-1.4,0.8c-3.1-0.6-7-2.5-8.5-4.8c-0.8-1.1-2-5.6-3.4-6.8
		c-0.6-0.6-3.4-3.9-3.9-6.5c-0.6,0.8-1.1,3.1,0.8,5.1c-3.1-1.1-7-3.1-8.2-6.8c-0.3-1.1-0.6-3.9-0.6-5.6c0-2.3,2.3-5.1,2-6.5
		c-1.7,0.8-3.9,3.1-4.5,6.2c-0.6,4.5-0.3,7.3,2,9.3c2.8,2.8,7.3,5.6,11,6.5c1.1,2.3,0.6,5.1,3.7,7.3c2.3,1.7,7.3,3.9,9,5.1
		c0,2-1.4,4.8,2.3,7c1.4,0.8,3.7,4.5,4.8,3.4l2.5-5.1c1.1,3.1,3.9,5.4,7,6.2c0.8-2.3,2-7.3,3.1-8.2c3.1,2.5,3.4,5.9,3.4,9.3
		c1.4-1.7,2.8-3.7,3.9-5.9c0.6-1.4,2.3-6.5,0-9.3c0.6-3.1,1.7-4.2,0.6-7.6c2.3-0.6,5.9-5.1,6.5-9.3c0.6-4.8-2.3-8.2-4.2-12.1
		c1.1-2.3,1.7-6.2,1.4-9.6c-0.3-2.8-1.4-5.4-2.3-7.3c3.9-1.1,5.9-4.5,6.5-6.8c0.6-3.1,1.1-9.3-4.2-12.4c-3.4-2-6.2-2.5-9-1.7
		C122.8,977,120.6,978.7,119.4,981.8L119.4,981.8z M70.7,992.5c0.8,2.3,3.9,4.5,5.1,2.5c-2.5-0.3-3.4-2.8-3.1-4.8
		c0.3-2,1.7-3.9,3.7-3.7c3.9,0.6,6.2,6.2,4.2,9.6c-1.1,2.3-5.1,6.5-9.3,8.7c4.2,0,9-3.9,10.4-5.6c2.3-3.1,2.8-5.1,2.5-6.8
		c-0.3-4.5-3.1-7.9-7.9-8.2S69,987.4,70.7,992.5L70.7,992.5z M98.9,999.3c4.2,1.7,7.9,0.8,8.5,6.2c0.3,2.5-2.5,2-1.1,4.2
		c-2,0-3.7,1.1-7,0.8c-2-0.3-7.6-2.5-8.2-4.2c-1.1,2,5.1,6.5,7.9,6.5c2.3,0,5.1,0.3,7,0c1.7-0.3,3.7-0.6,4.2-1.4
		c0.6-1.7-1.1-1.4-2-2.3c0-0.8,1.4-2.8,1.7-4.2c0-2-1.7-3.4-3.4-5.1c-2.8-2.8-11.3-3.4-14.1-3.7C92.9,997.6,97.7,998.7,98.9,999.3
		L98.9,999.3z M124.5,999.3c-1.7,0.8-3.7,2-4.2,3.4c-0.8,2.3-0.8,5.6,0.8,7.6c1.4,1.4,3.7,2.5,6.5,3.1c-2-1.4-2.5-2.3-4.2-3.9
		c-1.4-1.4-2-2.8-2-4.5C121.7,1001.8,123.4,1001,124.5,999.3L124.5,999.3z"/>
	<path shape-rendering="auto" image-rendering="auto" color-rendering="auto" d="M125.4,1016.2c-1.1,0-3.7-1.1-4.8-1.4
		c-2.3-0.6-3.9,0-5.9,1.1c-1.1,0.6-1.7,2-1.7,3.4c-0.3,1.1,0.6,2.5,1.4,3.1c1.4,1.1,4.5,1.7,5.9,2.3c1.1,0.3,1.1,2.3,2,3.1
		c1.7,1.4,3.1,1.7,5.4,0.8c1.1-0.3,2-2.5,2.8-3.4c1.7-1.1,3.7-1.4,4.8-3.1c1.1-1.7,1.1-3.9,0.3-5.6c-0.8-1.7-2.5-2.3-4.5-2
		C129.3,1015,127.3,1016.2,125.4,1016.2L125.4,1016.2z M133.2,1017.3c0.8,0.8,0.8,2.5,0.6,3.4c-0.8,1.7-3.9,2-4.8,2.8
		c-0.8,0.6-2.3,2.5-3.4,2.5c-1.1,0-2.5-1.1-3.1-1.7c-1.1-1.4-3.4-0.8-5.1-1.7c-1.1-0.6-2.5-2.8-2-3.9c0.8-1.7,5.1-1.7,6.2-1.1
		c2.3,0.8,4.5,0.6,6.8-0.6C129.9,1016.5,132.1,1016.2,133.2,1017.3L133.2,1017.3z"/>
	<path d="M104.8,1004.3c0,1.4-0.8,2.5-2.3,3.1c-1.4,0.6-2.8-0.3-3.7-1.4s-0.6-2.8,0.3-3.7c0.8-1.1,2.5-1.4,3.7-0.8
		c-0.8,0.8-1.7,1.7-2,3.4C101.7,1004.3,102.2,1003.5,104.8,1004.3L104.8,1004.3z"/>
	<path d="M127.3,1004.9c-0.3,1.7-1.7,2.8-2.3,3.1c-0.8,0.3-2.5,0-3.1-1.1c-0.3-1.1-0.3-2.5,0-3.9c0.8-1.1,2.3-1.4,3.7-0.8
		c-0.8,0.8-1.1,1.1-1.7,2.8C124.5,1004.3,124.8,1004.1,127.3,1004.9L127.3,1004.9z"/>
	<path shape-rendering="auto" image-rendering="auto" color-rendering="auto" d="M228.3,966.6c-1.7,1.4-4.8,2.3-6.8,2.5
		c-2,0.3-3.9,0.3-6.2,1.7c-1.4,0.8-2.3,2.3-2.8,3.4c-0.8,1.1-1.7,3.9-1.7,3.9c1.7-1.7,1.7-2.5,3.1-3.9c1.1-1.1,2-2,2.5-2.3
		c1.7-0.8,3.4-1.1,5.4-1.7C224.6,969.4,227.1,969.7,228.3,966.6L228.3,966.6z"/>
	<path shape-rendering="auto" image-rendering="auto" color-rendering="auto" d="M232.2,967.7c-2,1.1-2.3,0.6-4.2,2
		c-2.3,1.7-3.1,4.8-5.4,6.2c-2.8,2-7,0.3-11,2.8c1.7-0.3,3.4-0.6,4.5-0.6c1.1-0.3,5.4,0.6,7.3-0.6c2.5-1.4,2.5-5.4,5.4-6.8
		c3.1-1.4,8.2-5.4,7.6-6.5C236.4,964.3,233.3,967.1,232.2,967.7L232.2,967.7z"/>
</g>
</svg>
