<?xml version="1.0" encoding="utf-8"?>
<!-- Generator: Adobe Illustrator 17.0.0, SVG Export Plug-In . SVG Version: 6.00 Build 0)  -->
<!DOCTYPE svg PUBLIC "-//W3C//DTD SVG 1.1//EN" "http://www.w3.org/Graphics/SVG/1.1/DTD/svg11.dtd" [
	<!ENTITY ns_flows "http://ns.adobe.com/Flows/1.0/">
	<!ENTITY ns_extend "http://ns.adobe.com/Extensibility/1.0/">
	<!ENTITY ns_ai "http://ns.adobe.com/AdobeIllustrator/10.0/">
	<!ENTITY ns_graphs "http://ns.adobe.com/Graphs/1.0/">
]>
<svg version="1.1" id="Layer_1" xmlns:x="&ns_extend;" xmlns:i="&ns_ai;" xmlns:graph="&ns_graphs;"
	 xmlns="http://www.w3.org/2000/svg" xmlns:xlink="http://www.w3.org/1999/xlink" xmlns:a="http://ns.adobe.com/AdobeSVGViewerExtensions/3.0/"
	 x="0px" y="0px" width="283.1px" height="368.4px" viewBox="0 0 283.1 368.4" style="enable-background:new 0 0 283.1 368.4;"
	 xml:space="preserve">
<path d="M192.9,365.5c-2-1.2,1.1-1.7,10-1.7c11.9,0.1,11.6,1.9-0.3,2.1C197.8,366,193.4,365.8,192.9,365.5L192.9,365.5z M150.3,364
	l-1.9-1.6l2.1-1.6c2-1.5,2.1-1.5,2.6,0.2c0.3,1.2,0,1.8-1,1.8c-1.2,0-1.2,0.3-0.3,1.4C153.4,366.1,152.6,366,150.3,364L150.3,364z
	 M156.4,364.8c1.1-0.7,1.1-0.9,0-1.3c-0.7-0.3,0.3-0.5,2.2-0.5c1.9,0,3.5,0.4,3.5,0.9s0.4,0.7,0.9,0.4c0.5-0.3,1.1-0.1,1.5,0.4
	c0.3,0.5-0.3,1-1.3,1c-1.1,0-1.9-0.4-1.9-0.9c0-0.6-0.8-0.6-2.4,0C155.9,365.8,154.7,365.9,156.4,364.8L156.4,364.8z M142.5,361.4
	c-0.7-1.3-2.1-2.3-3.1-2.3c-1.2,0-1.6-0.5-1.3-1.4c0.6-1.6,0.2-1.7-2.1-0.5c-0.9,0.5-3.1,1.1-4.9,1.4c-2.9,0.4-2.8,0.3,1.5-1.9
	c2.6-1.3,3.8-2.1,2.8-1.7c-4.6,1.4-5.3,1.2-1.6-0.6c3.7-1.8,4.1-1.8,5.5-0.4c1.7,1.7,4.3,1.4,10.2-1.5c2.1-1,4.4-1.8,5.2-1.8
	c0.8,0,1.8-0.4,2.3-0.8c0.5-0.4,4.1-1.9,8.1-3.3c4-1.4,11.5-4.8,16.7-7.6c5.2-2.8,9.4-4.7,9.2-4.1c-0.4,1.3-17.9,10.6-24.6,13.1
	c-9.1,3.4-10.3,5-6.6,8.7c2.7,2.7,9.9,3.9,18.2,3.1c5.8-0.6,12.9-6.9,18.6-16.4c1.3-2.2,2.6-3.8,2.8-3.6c0.8,0.8-4.6,8.6-9.4,13.5
	c-2.6,2.7-4.3,4.9-3.7,4.9c1.6,0,8.9-6.4,12-10.5c2.3-3,5.3-5.1,3.8-2.6c-0.3,0.5,0.5,0.6,2.1,0.1c3.6-1,9.7-0.1,10.3,1.5
	c0.7,1.8-0.6,2.9-1.5,1.3c-2.2-3.6-11.2-1.4-17.3,4.4c-3.2,3-7.7,6.2-10,7.1c-2.3,1-4.9,2.1-5.8,2.6c-7.4,3.8-26-2.3-24.5-8.1
	c0.4-1.6,0.2-2.3-0.6-2.3c-0.7,0-0.9,0.3-0.6,0.6c0.9,0.9-2.2,4.1-4.2,4.1c-0.9,0-1.9,0.4-2.3,0.9s-1.4,0.9-2.3,0.9
	c-2.8,0-3.3,2-1,3.9c1.4,1.1,1.7,1.7,0.8,1.7C144.4,363.8,143.2,362.7,142.5,361.4L142.5,361.4z M159.4,357.7
	c-1.2-1.3-2.4-2.1-2.7-1.8c-0.3,0.3,0.5,1.4,1.7,2.3C161.4,360.7,162,360.4,159.4,357.7L159.4,357.7z M117.6,362.4
	c0.5-0.2,2.1-0.6,3.5-0.9c1.8-0.4,2.4-1,2-2c-0.3-0.9,0-1.4,1-1.4c1,0,1.3,0.4,0.9,1.1c-0.5,0.7-0.2,0.9,0.9,0.5
	c0.9-0.3,1.6-0.4,1.6-0.2c0,0.8-6.8,3.3-8.8,3.2C117.6,362.7,117.1,362.5,117.6,362.4L117.6,362.4z M111.2,360.3
	c-0.4-1.1-0.2-1.3,0.9-0.9c0.8,0.3,2.6,0.6,3.9,0.6c3.1,0,2.5,0.5-1.3,1.2C112.5,361.6,111.6,361.4,111.2,360.3L111.2,360.3z
	 M205.8,360.9c-1.5-0.4-5-0.8-7.7-0.8c-4.9-0.1-7.2-2-2.3-2c3.9,0,14.4,1.9,16.1,2.8C213.6,362,210,362,205.8,360.9L205.8,360.9z
	 M223.2,358c-2.3-0.4-4.4-1.1-4.7-1.4c-0.9-1,12.3,0.5,13.4,1.5C233.1,359.3,229.3,359.2,223.2,358L223.2,358z M92.6,357
	c-0.6-0.4,1.1-0.7,4-0.8c2.9,0,7.7-0.7,10.7-1.4c3-0.8,5.7-1.2,5.9-1C114.6,355.2,94.6,358.3,92.6,357L92.6,357z M195.8,355.6
	c0.7-0.3,1.5-0.2,1.8,0.1c0.3,0.3-0.2,0.5-1.2,0.5C195.2,356.1,195,355.9,195.8,355.6z M202,354.9c5.2-2,5.3-2.4,0.5-1.9
	c-2.7,0.3-3.5,0.2-2.3-0.3c3-1.2,14.5-2.1,14.5-1.1c0,0.9-8,3.5-13.3,4.3C198.4,356.3,198.4,356.2,202,354.9L202,354.9z M88.3,352.9
	c-2.7-1.9-2.7-7.9,0.1-7.9c0.7,0,0.7,0.4-0.1,1.1c-3.3,3.3-0.1,6.6,7.2,7.4l5.2,0.6l-5.2,0.1C92.2,354.3,89.7,353.9,88.3,352.9
	L88.3,352.9z M141.8,351.5c0.1-0.5-1.9-1.7-4.4-2.6c-5.2-1.8-7.6-4.9-6-7.9c0.5-0.9,0.6-1.7,0.1-1.7c-2.2,0-2.9,5.7-0.9,7.5
	c1.1,1,1.5,1.8,0.9,1.8c-1.3,0-4-2.6-4-3.8c0-0.5-0.6-0.9-1.4-0.9c-0.8,0-1.4-0.4-1.4-0.9c0-1.2-3.1-1.2-4.3-0.1
	c-1.1,1.1-15.6,3.9-19.5,3.7l-2.9-0.1l2.8-0.8c2.5-0.7,2.3-0.8-1.1-0.5c-2.6,0.2-3.9,0-3.7-0.7c0.1-0.6-0.4-0.9-1.2-0.7
	c-0.8,0.2-3.9,0.5-7,0.7c-6.1,0.4-7.2,0.9-5.2,2.2c1.2,0.8,1.2,0.9-0.1,0.9c-0.8,0-1.9-0.4-2.4-1c-0.7-0.7-2.8-0.7-6.5-0.1
	c-3.6,0.6-5.7,0.5-6.1-0.1c-0.5-0.9-6.1-0.4-10.5,0.8c-1,0.3-1.5,0.1-1.2-0.4c0.3-0.5-3.4-0.3-8.6,0.3c-12.1,1.6-22.4,1.5-26-0.2
	c-2.6-1.3-2.3-1.3,4.9-0.8c10.5,0.8,24.1-0.4,20.9-1.8l-2.3-1l2.8-0.4c1.5-0.2,2.9,0.1,3.1,0.6c0.6,1.9,6.6,1.2,7.7-1
	c1.1-2,1-2-6.3-1.4c-15.3,1.3-24.7,2.7-24.7,3.7c0,0.7-0.4,0.6-1.1-0.1c-0.6-0.6-2-1.1-3-1.1c-1,0-1.6-0.2-1.4-0.5
	c0.3-0.3,20-3.3,22-3.3c0.1,0,0-0.8-0.3-1.8c-0.4-1.5-1.1-1.7-4.3-1.3c-3,0.4-3.7,0.2-3.4-0.8c0.6-1.8,20.2-4.2,22.5-2.8
	c0.9,0.5,2.9,1,4.5,1c1.6,0,3.5,0.6,4.3,1.4c0.8,0.8,3.1,1.4,5.6,1.4c2.6,0,4,0.4,3.6,0.9c-0.8,1.3-6.9,1.1-11.2-0.5
	c-4.5-1.6-7.6-1.8-8.5-0.4c-1,1.6,0.2,2.1,6.8,2.5c3.5,0.2,7.2,0.5,8.2,0.7c1,0.2,3.4,0.4,5.2,0.5l3.3,0.2l-2.8,0.6
	c-1.5,0.4-4,0.3-5.6-0.1c-2.9-0.8-9.7-0.1-10.4,1.1c-0.2,0.4,1.5,0.5,3.8,0.2c2.8-0.3,4.2-0.1,4.2,0.6c0,0.6,0.6,1.1,1.4,1.1
	c2.8,0,10.8-2.1,10.5-2.7c-0.5-0.8,17.2-1.2,18.5-0.4c2,1.2,13,1.3,13.8,0.1c0.4-0.7,3.5-1.2,7.9-1.4c6.2-0.2,11.5-1.3,6.4-1.3
	c-1,0-2.3-0.5-2.9-1.1c-0.6-0.6-1.8-0.8-2.8-0.3c-2.5,1.1-9.2,1.7-16.7,1.7c-23.8-0.2-27.7-0.3-27.7-1.2c0-0.5,2.2-1,4.9-1.1
	c7.8-0.2,11.9-1.5,5.4-1.7c-9.4-0.4-16.3-1-16.8-1.6c-0.3-0.3,5.3-0.3,12.4,0c13.3,0.6,14.7,0.4,10.3-1.4c-2.2-0.9-2.3-1.1-0.8-1.5
	c1-0.2,2.7,0,3.7,0.5c5.6,2.7,7.7,2.8,12,0.6c2.1-1.1,2.6-1.1,3.6,0.1c1.6,2-2.3,3.3-10.1,3.3l-6.3,0.1l3.3,1.4
	c2.8,1.2,4.4,1.3,11.2,0.3c7.5-1.1,22-1.3,23.6-0.4c0.4,0.2,0,1.7-0.9,3.3c-2.3,4.2,1,6.9,10.6,8.4c3.9,0.6,7.1,1.5,7.1,2
	c0,0.5-1.1,0.6-2.3,0.2c-1.4-0.4-2.3-0.2-2.3,0.5c0,0.6-1.1,1-2.3,1C142.6,352.5,141.7,352.1,141.8,351.5L141.8,351.5z M53.4,338.9
	c0-0.8,0.7-1.4,1.5-1.4c0.8,0,1.3-0.5,1.1-1.2c-0.2-0.6-1.1-1.1-2-1.1c-0.9,0-3.3,0.1-5.4,0.2c-4.1,0.2-4.8,2.2-1,2.8
	c1.1,0.2,1.8,0.7,1.5,1.2c-0.3,0.5,0.5,0.9,1.9,0.9C52.5,340.3,53.4,339.8,53.4,338.9L53.4,338.9z M227.3,351.5
	c-2.5-0.5-2.3-0.6,1.9-1.1c5.4-0.7,5.7-0.6,3,0.7C231.1,351.6,228.9,351.8,227.3,351.5L227.3,351.5z M122.3,350.6
	c0.3-0.5,1-0.9,1.5-0.9c0.5,0,0.9,0.4,0.9,0.9c0,0.5-0.7,0.9-1.5,0.9S122,351.1,122.3,350.6z M241.7,349c0.7-0.3,1.5-0.2,1.8,0.1
	c0.3,0.3-0.2,0.5-1.2,0.5C241.2,349.6,240.9,349.3,241.7,349z M247,347.8c2.8-1.2,5.1-1.2,3.3,0c-0.8,0.5-2.2,0.9-3.3,0.9
	C245.2,348.6,245.2,348.6,247,347.8z M253.1,345.5c1-1.2,0.5-1.4-3.4-1.5c-2.5,0-6.5-0.4-8.8-0.9c-3-0.6-1.7-0.7,4.7-0.3
	c4.9,0.3,9.1,0.7,9.3,0.8c0.7,0.6-0.8,3.2-1.8,3.2C252.3,346.9,252.3,346.5,253.1,345.5L253.1,345.5z M15.9,343.1
	c0-0.5,0.4-0.7,0.9-0.4c0.5,0.3,0.9,0.8,0.9,1s-0.4,0.4-0.9,0.4C16.4,344.1,15.9,343.6,15.9,343.1z M230.4,343
	c0.6-0.6,1.4-0.9,1.7-0.6c0.3,0.3-0.2,0.8-1.2,1.2C229.6,344,229.5,343.9,230.4,343L230.4,343z M221,341.5c-0.9-0.2-1.6-0.9-1.6-1.4
	c0-1-8-0.6-13.1,0.7c-2.1,0.5-2.1,0.4-0.6-0.5c4.1-2.6,16.8-2.3,17.8,0.5C224,342.2,223.8,342.3,221,341.5L221,341.5z M158.9,340.2
	c-1.5-0.4-4.7-1.2-7-1.7c-4.6-1.1-6.6-3-6.6-6.2c0-2.4-4.3-3.1-13.1-2.2c-4.5,0.5-4.7,0.6-1.4,0.7c4.3,0.2,11.2,1.9,10.5,2.7
	c-0.7,0.7-16.6-1.5-18.7-2.7c-1-0.5-7.6-1-14.7-1.1c-9.9-0.1-13.3-0.5-14.6-1.5c-1-0.8-1.4-0.9-1-0.2c0.5,0.8,0,1.2-1.4,1.2
	c-1.1,0-1.8,0.3-1.4,0.7c1.5,1.5-8.4,2.7-15.8,1.9c-10.2-1.1-22.3-1.3-23.5-0.4c-0.6,0.4-2.9,0.9-5.2,1.1c-2.3,0.2-7.2,1-10.9,1.7
	c-3.7,0.7-6.8,1.1-6.8,0.9c0-1.3,3.1-3.1,5.3-3.2c4-0.2,12.5-2,12.5-2.7c0-1.4,24.4-1,27.3,0.5c2.1,1.1,4.2,1.3,8.5,0.8
	c3.3-0.4,5.2-0.9,4.4-1.3c-0.7-0.4-3.5-0.4-6.3,0c-2.7,0.4-5.2,0.4-5.4,0c-0.7-1.1,2.3-1.5,10.1-1.4c6.8,0.1,9.1-0.7,5.9-1.9
	c-2-0.8-1.7-2.2,0.5-2.2c1,0,2.8,0.9,3.9,2c1.8,1.8,3.3,2.1,12,2.4c9.7,0.3,9.9,0.3,6.6-1.2c-1.8-0.8-4.4-1.3-5.9-1
	c-2.5,0.5-3.5-0.6-1.7-1.8c1.3-0.8,13.2,1.4,13.2,2.4c0,1.4,3,0.9,4.9-0.7c1.6-1.5,1.8-1.5,3,0.1c1,1.4,2.7,1.8,8.5,2
	c4,0.1,7.5,0.5,7.8,0.8c0.3,0.3,1.4-0.1,2.5-0.9c2.5-1.7,4-1.8,2.6-0.1c-1.8,2.1,1,3.5,7.9,3.9c3.4,0.2,6.9,0.9,7.8,1.4
	c1.2,0.7-0.6,0.9-6.7,0.5c-8.1-0.5-10.5,0.5-4.4,1.8c1.5,0.3,2.8,1,2.8,1.4c0,1.4,5.8,2.8,11.4,2.8c3.2,0,5.5,0.4,5.5,1
	C171.6,341.5,163.5,341.3,158.9,340.2L158.9,340.2z M17.1,339.7c-3-1.2,0.4-1.7,9.3-1.3c8,0.3,9,0.5,6,1.1
	C28.2,340.3,18.9,340.4,17.1,339.7L17.1,339.7z M199.8,339.1c-0.6-0.6-2.3-1.2-3.7-1.2c-2.9-0.1-3.5-1.6-0.9-2.1
	c2-0.4,7.8,3.1,6.6,3.9C201.3,340,200.4,339.7,199.8,339.1L199.8,339.1z M19.7,334.5c-4.7-1.2-7.5-2.8-7.5-4.2
	c0-0.9-1.3-1.2-4.2-1.2c-2.3,0-4.2-0.4-4.2-0.9c0-0.5,1-0.9,2.3-0.9c3.3,0,3.8-1.6,0.8-3c-6-2.9-3.8-3.6,12-3.5
	c8.4,0,17.8-0.4,20.9-0.9c3.1-0.5,7.4-1,9.6-1c3,0,4-0.4,4-1.5c0-1.2-0.9-1.4-5.4-0.9c-4.4,0.5-5.1,0.4-3.6-0.5
	c2.1-1.3,12.8-1.6,26.3-0.7c9.8,0.6,15.8,0.1,30.5-2.5c7.3-1.3,9.9-1.4,14.1-0.5c2.9,0.6,8.5,1.1,12.4,1.1c5.6,0,7.2,0.3,7.2,1.3
	c0,1.6,14.4,1.4,17.4-0.2c1-0.5,5.3-1.3,9.6-1.7c6-0.5,8-1.1,8.6-2.3c1.7-3.2,19.9-5.7,23.8-3.3c1.1,0.7,3.4,1.5,5.2,1.8
	s2.7,0.3,2.1,0c-4.2-1.9-3.3-6.9,1.3-6.9c6.8,0,2.8-11.3-4.6-12.8c-1.4-0.3-2.6-0.9-2.6-1.3c0-0.4,0.9-0.5,2.1,0
	c1.2,0.4,4.9,0.5,8.2,0.2c6.7-0.6,20.7,1,17.2,2c-1.1,0.3-3.3,0.3-4.9,0c-4.1-0.8-15.2-0.2-14.5,0.9c0.3,0.5,0.9,0.6,1.4,0.3
	c0.5-0.3,0.9,0.1,0.9,0.9c0,0.8,0.4,1.5,1,1.5s0.8,0.4,0.5,0.9c-0.3,0.5-0.1,1.1,0.5,1.5c0.5,0.3,0.8,1.4,0.5,2.3
	c-0.7,2.3,1.2,2.9,10.3,3.4c6.4,0.3,7.1,0.2,5.2-0.7c-3.1-1.5-3.1-1.5-2.4-2.5c0.7-1.1,6.2,1.4,6.2,2.7c0,2.7-11.7,3.6-18.5,1.4
	c-1.3-0.4-2.1-0.3-2.1,0.3c0,2,13.3,3.6,17.2,2.1c2-0.8,2.2-0.6,2.2,1.4c0,1.9-0.3,2.1-1.7,1.3c-0.9-0.5-4.4-0.9-7.6-0.8
	c-6.7,0.1-10.5-0.6-10.9-2c-0.2-0.5-1.3-0.9-2.6-0.9c-3.5,0-2.7,2.5,1.4,4.7c4.4,2.2,7.5,2.4,7.5,0.5c0-1.7,2.4-1.9,3.4-0.3
	c0.5,0.7,0.2,0.8-0.6,0.3c-0.8-0.5-1-0.4-0.5,0.1c0.4,0.5,2.8,0.9,5.2,1c11.3,0.4,17.3,0.2,19.2-0.6c1.2-0.4,7.2-0.5,13.3-0.2
	l11.2,0.6l-6.6,0.8c-12.9,1.5-34.6,2.4-36.2,1.5c-0.6-0.4-2.7-0.2-4.8,0.3c-2.9,0.7-3.9,0.7-4.5-0.2c-0.5-0.7-1.2-0.9-2-0.4
	c-1.8,1.1-3.6,1.3-3.6,0.3c0-0.5,0.5-0.9,1.1-0.9c0.6,0,0.9-0.2,0.6-0.5c-0.8-0.8-6.4,0.7-5.9,1.5c0.3,0.5,0.1,0.8-0.4,0.8
	c-0.5,0-1.3-0.5-1.7-1.2c-0.8-1.2-5.5-3.3-9.5-4.2c-3.5-0.8-2.2,2.8,1.5,4c4.4,1.4,4.4,1.9,0.2,1.5c-2.1-0.2-3.5-0.6-3.2-0.9
	c1-1-6.9-4.1-9.9-3.8c-3.7,0.4-4,1.9-0.5,2.9c1.4,0.4,3.7,1,5.1,1.4c1.4,0.4,2.6,1.1,2.6,1.6c0,1.9,1.6,3.3,3.8,3.3
	c1.3,0,2.3-0.4,2.3-0.9c0-1.3,5-2.1,7.4-1.2c1.8,0.7,0.8,1.1-5.2,2.4c-11.4,2.4-15.1,1.7-10.6-2.2l2.1-1.8h-2.2
	c-1.2,0-1.9,0.3-1.6,0.6c1.9,1.9-4.4,5.1-9.6,5c-6.8-0.2-7.6,0-4.8,1.1c1.3,0.5,5.1,1,8.4,1l6.1,0l-4.9,0.6
	c-2.7,0.3-5.1,0.9-5.5,1.2c-1.2,1.2,9.6,1.9,13.6,0.8c2.2-0.6,5.6-0.8,7.4-0.5c6,1.1,1.3,2-11.4,2.2c-6.8,0.1-16.1,0.4-20.7,0.7
	c-6.1,0.5-8.2,0.3-7.7-0.5c0.4-0.6,0.2-1.1-0.3-1.1c-0.5,0-1,0.5-1,1s-0.5,0.8-1.2,0.6c-0.6-0.2-1.1-0.9-0.9-1.5
	c0.1-0.6-0.2-1.1-0.8-1.1c-0.5,0-0.7-0.5-0.4-1c0.5-0.7-2.9-0.9-11.9-0.5c-12.4,0.5-12.5,0.5-7.4-0.9c3.5-1,10-1.4,20.2-1.5
	c12.3-0.1,14.1-0.2,10.1-1c-3.6-0.7-4.7-1.2-4.4-2.2c0.7-1.8-4.7-1.9-6.4-0.1c-2,1.9-10.1,1.9-14.4-0.1c-4.1-1.9-16.4-2.8-16.4-1.3
	c0,0.5,0.5,1.1,1.2,1.4c0.8,0.3,0.6,0.7-0.5,1.1c-2,0.8-4.8-0.1-4-1.3c0.3-0.5-0.3-1.1-1.4-1.5c-1-0.3-1.7-1-1.4-1.5
	c0.8-1.2-4-1-8.7,0.4c-2.8,0.8-3.7,1.5-3,2.2c0.7,0.7,0.1,1-1.9,1c-3.2,0-4.3,0.7-3.3,2.2c0.5,0.8,1,0.7,2-0.1
	c1.6-1.4,19.2-0.4,23.1,1.3c3.9,1.7,3.1,2.9-1.4,2.1c-2.2-0.4-5.4-0.6-7-0.6c-1.7,0.1-3-0.3-3-0.8c0-0.5-1.6-0.7-3.5-0.5
	c-1.9,0.2-7.9,0.6-13.4,1c-11,0.6-12.6,1-11.7,2.3c1,1.7-13.8,1.1-15.9-0.6c-1.7-1.4-1.4-1.4,4.1-0.8c4.3,0.5,5.8,0.4,5.3-0.4
	c-0.4-0.7,1-1,4.8-1.1c3.7,0,5-0.3,4.1-0.9c-1.1-0.7-7.6-0.5-11.3,0.2c-0.3,0.1-2.5-0.2-5-0.6c-7.7-1.2-12.2-1.5-13.2-0.7
	c-1.9,1.5-14.2,2.4-30.3,2.4c-15-0.1-16,0-13.8,1.4c1.3,0.8,2.4,2.2,2.4,3.1c0,1.7,4.1,2.4,5.1,0.9c0.6-1,12.9,0.6,14.2,1.9
	c0.7,0.7-1.4,0.8-6.9,0.5c-8.1-0.5-9.4,2.1-1.6,3.5c1.5,0.3,2.9,0.7,3.1,0.9C25.9,335,22.7,335.3,19.7,334.5L19.7,334.5z
	 M166.2,324.2c3.5-1.8,1.3-2.5-7.3-2.4c-9.7,0.2-10.1,0.4-6.3,2.7C155.3,326.2,162.7,326,166.2,324.2L166.2,324.2z M92.3,319.7
	c1.6-0.7,1.5-0.8-0.9-0.9c-1.6,0-2.3-0.4-1.7-0.8c0.6-0.4-3.8-0.7-9.8-0.7c-6,0-13.9-0.4-17.5-0.8c-8.1-0.9-7.5,0.1,1.1,2
	c4.3,0.9,8.7,1.1,13.5,0.7c4.9-0.4,7.3-0.3,7.8,0.4C85.5,320.8,89.6,320.9,92.3,319.7L92.3,319.7z M177.9,317
	c0.3-0.9-0.1-1.1-1.5-0.6c-1.1,0.3-3.3,0-5-0.8c-2.8-1.3-4.5-1.4-14.7-0.6c-3.3,0.2,3.6,2.3,9.5,2.8
	C175.9,318.7,177.4,318.6,177.9,317L177.9,317z M179.5,314.1c0.3-0.5-0.3-1.1-1.4-1.4c-1-0.3-2.7-0.8-3.8-1.1
	c-1.3-0.4-1.9-0.1-1.9,0.9C172.5,314.5,178.4,315.9,179.5,314.1L179.5,314.1z M177.9,334.5c-4.7-1-9.5-3.6-8.5-4.5
	c0.9-0.9,18.2,1,18.2,1.9C187.5,334.2,182.6,335.5,177.9,334.5L177.9,334.5z M183.8,332.9c-2.7-1.6-11.1-2-9-0.5
	c1,0.7,3.7,1.3,6.1,1.3C183.8,333.7,184.7,333.4,183.8,332.9L183.8,332.9z M203,334.8c-0.3-0.4,2.1-1.1,5.3-1.4
	c16.6-1.6,20.8-2.4,22.4-4.3c2-2.4,2.6-2.4,2,0.1c-0.5,1.9-0.3,1.9,2.7,1.2c1.8-0.4,7.8-0.8,13.5-0.8c5.7,0,9-0.2,7.5-0.4
	c-4.8-0.7-5-2.1-0.2-2.1c2.6,0,4.4,0.4,4.4,1.1c0,0.7,1.3,0.9,3.8,0.4c2.9-0.5,3.7-0.3,3.4,0.6c-0.6,1.7-5.8,2.6-15,2.6
	c-4.5,0-11.9,0.6-16.4,1.3C226.4,334.8,203.7,335.9,203,334.8L203,334.8z M193.9,332.3c-5-1.6-7.5-3.9-5.2-4.7
	c0.8-0.3,3.1,0.5,5,1.9c2,1.3,4.6,2.4,5.8,2.4c2.8,0,2.3-0.7-1.1-1.3c-4.7-0.8-6-2.8-2.5-3.7c1.1-0.3,2.1,0,2.4,0.7
	c0.6,1.6,5.2,2.5,8.8,1.8c3-0.6,3-2.2,0-2.2c-1,0-1.8-0.5-1.8-1c0-0.7,0.9-0.8,2.6-0.4c1.4,0.4,6.8,1,12,1.3c7,0.4,8.7,0.8,6.7,1.3
	c-1.5,0.4-5.3,0.5-8.4,0.1c-5.4-0.6-5.7-0.5-3.9,0.9c1.9,1.5,1.9,1.5-0.2,1.5c-1.2,0-2.1,0.3-2.1,0.7c0,0.4-1.4,0.7-3,0.8
	c-1.7,0-4.7,0.3-6.8,0.7C199.7,333.5,196.7,333.2,193.9,332.3L193.9,332.3z M270.9,330.1c0-0.5,0.4-1.1,0.9-1.5
	c0.5-0.3,0.9,0.1,0.9,0.9c0,0.8-0.4,1.5-0.9,1.5C271.4,330.9,270.9,330.5,270.9,330.1z M31.9,327.2c-0.8-0.5-3-0.9-4.9-0.9
	c-1.9,0-3.8-0.5-4.1-1.1c-0.7-1.1,5.3-0.8,13.9,0.7c3.9,0.7,8.5-0.2,7.8-1.4c-0.5-0.8,4.7-1.9,9.2-2c2.3,0,2.5,0.2,1.5,1.4
	c-0.6,0.8-2.5,1.4-4.1,1.4c-1.6,0-5.5,0.6-8.6,1.4C36.1,328.3,33.8,328.4,31.9,327.2L31.9,327.2z M246.1,327.2
	c-0.3-0.5,0-0.9,0.8-0.9c0.7,0,2.5-0.9,3.9-2c2.2-1.7,3.1-1.9,7-1.1c3.1,0.6,6.1,0.5,10-0.3c7.4-1.6,11.2-1.6,12.5,0
	c0.9,1,0.2,1.3-3.4,1.3c-10.6,0.1-23.4,0.9-24.3,1.4C249.9,327.2,246.6,328,246.1,327.2L246.1,327.2z M132.2,325.5
	c1.8-1.1,13.1-1.9,13.1-0.9c0,0.4-1.8,0.8-4.1,0.8c-2.3,0-5.5,0.2-7.3,0.5C131.8,326.2,131.2,326.1,132.2,325.5L132.2,325.5z
	 M211.6,325.5c-3-0.3-2.5-2,0.5-2.1c1.8-0.1,1.7-0.2-0.5-1c-2.3-0.8-3.1-2.3-2.7-4.8c0.1-0.4-0.3-0.5-0.8-0.2
	c-0.5,0.3-1.1,0.2-1.4-0.3c-1.1-1.7,15.5-2.9,17.6-1.2c0.6,0.5,2.4,0.7,3.9,0.5c7.3-1,10.8-1.1,11.3-0.3c0.3,0.5,1.4,0.9,2.4,0.9
	c1.3,0,1.6-0.4,1.2-1.2c-0.4-0.7,0-0.6,1,0.2c1.6,1.3,1,1.4-6.1,1.9c-4.3,0.3-7.3,0.8-6.5,1.1c2.2,1,19.7,1.5,23.4,0.7
	c3.6-0.8,5-0.3,2.9,1.1c-0.8,0.5-3.7,0.9-6.6,0.9c-2.9,0-5.7,0.5-6.2,1c-1.6,1.6-7.8,2.7-10,1.8c-1.8-0.7-1.7-0.8,0.8-0.9
	c7.9-0.2,9.2-2.3,1.5-2.5c-3-0.1-6.5-0.7-7.7-1.3c-2.5-1.4-3.8-1.6-11.7-1.8c-6.6-0.2-8.5,0.5-6.8,2.5c0.8,0.9,2.8,1.3,6.6,1.1
	c3.9-0.2,5.9,0.2,7.1,1.3c0.9,0.8,2.3,1.3,3.1,1c0.9-0.3,1.1-0.2,0.5,0.5C227.3,325.1,216.3,326,211.6,325.5L211.6,325.5z
	 M218,323.4c-0.3-0.5-1.3-0.9-2.2-0.9c-1.4,0-1.4,0.1-0.2,0.9C217.5,324.6,218.7,324.6,218,323.4L218,323.4z M202.1,324.4
	c-0.3-0.4,0.5-1,1.6-1.3c3.7-1,0.7-2-5-1.7c-7.3,0.4-7.2-1.3,0.2-2.2c4.8-0.6,5.9-0.4,6.6,0.9c0.5,0.8,1.2,1.3,1.7,1
	c0.9-0.5,2.4,1.2,1.6,2C207.8,324.1,202.5,325.1,202.1,324.4L202.1,324.4z M184.7,322.1c0-0.2,1-0.6,2.3-0.8
	c1.3-0.2,2.1-0.1,1.8,0.4C188.4,322.5,184.7,322.9,184.7,322.1L184.7,322.1z M225.9,320.6c0-0.5,0.7-0.9,1.5-0.9s1.2,0.4,0.9,0.9
	c-0.3,0.5-1,0.9-1.5,0.9C226.3,321.6,225.9,321.1,225.9,320.6z M265.5,319.1c0.8-0.8,2.2-1.3,3-1c2.5,1,1.6,2.5-1.5,2.5
	C264.2,320.6,264.1,320.5,265.5,319.1L265.5,319.1z M127.5,318.8c-1.8-0.4-2.9-0.8-2.3-0.9c4.4-0.9,6-0.9,7,0.4
	C133.5,319.9,133.1,319.9,127.5,318.8L127.5,318.8z M247.1,315.2c-0.3-0.4,1.6-0.6,4.1-0.4c3,0.3,5.6-0.1,7.6-1.1
	c3.6-1.8,3.7-1.8,3.7-0.2C262.5,315.7,248.4,317.2,247.1,315.2L247.1,315.2z M153.1,309.1c0.3-0.8,0.1-1.7-0.6-1.9
	c-0.6-0.3-0.2-0.5,0.9-0.5c2.2-0.1,2.5,2.8,0.3,3.5C153,310.4,152.7,310.1,153.1,309.1L153.1,309.1z M265.1,309.2
	c0.5-0.5,1.7-0.7,2.6-0.5c1.3,0.3,1.1,0.5-0.9,0.9C265.2,309.9,264.6,309.8,265.1,309.2z M58.9,308.7c0.7-0.3,1.5-0.2,1.8,0.1
	c0.3,0.3-0.2,0.5-1.2,0.5C58.4,309.3,58.1,309,58.9,308.7z M63,308.7c0.9-0.2,2.4-0.2,3.3,0c0.9,0.2,0.2,0.4-1.6,0.4
	C62.9,309.2,62.1,309,63,308.7z M143.2,308.7c-3-0.8-1.7-1.7,2.7-1.9c3.8-0.2,4.1-0.1,2.9,1.2C147.3,309.4,146.3,309.5,143.2,308.7
	L143.2,308.7z M76.7,307.8c0.7-0.3,1.5-0.2,1.8,0.1c0.3,0.3-0.2,0.5-1.2,0.5C76.2,308.3,76,308.1,76.7,307.8z M118.8,307.8
	c1.2-0.2,2.9-0.2,3.7,0c0.9,0.2-0.1,0.4-2.1,0.4C118.4,308.2,117.7,308,118.8,307.8L118.8,307.8z M126.6,308.1
	c0.2-0.2,1.9-0.5,3.7-0.7s3.5-0.6,3.7-0.9c0.3-0.3,1,0,1.7,0.7c1,1.1,0.4,1.3-4.1,1.3C128.7,308.4,126.4,308.3,126.6,308.1
	L126.6,308.1z M227.8,307.7c0-0.4,1.1-0.8,2.5-0.8c1.8-0.1,2.1,0.1,1.2,0.7C229.9,308.6,227.8,308.7,227.8,307.7L227.8,307.7z
	 M249.8,307.4c-1-1.5-0.3-1.7,4.1-1.2c2.7,0.4,3.6,0.8,2.8,1.3C254.9,308.7,250.5,308.6,249.8,307.4L249.8,307.4z M81.3,306.9
	c0.6-0.3,1.7-0.3,2.3,0c0.6,0.3,0.1,0.5-1.2,0.5C81.2,307.4,80.7,307.1,81.3,306.9z M105.7,305c0.6-0.3,1.7-0.3,2.3,0
	c0.6,0.3,0.1,0.5-1.2,0.5S105.1,305.3,105.7,305z M161.7,302.8c-1.5-1.5-2.4-3.1-2-3.5c0.8-0.7,5.2,3.9,5.2,5.4
	C165,306.1,164.6,305.9,161.7,302.8z M56.5,304c0.9-0.2,2.4-0.2,3.3,0c0.9,0.2,0.2,0.4-1.6,0.4C56.3,304.5,55.6,304.3,56.5,304z
	 M65.9,304c0.9-0.2,2.4-0.2,3.3,0c0.9,0.2,0.2,0.4-1.6,0.4C65.7,304.5,65,304.3,65.9,304z M110.4,304.1c0.6-0.3,1.7-0.3,2.3,0
	c0.6,0.3,0.1,0.5-1.2,0.5S109.7,304.3,110.4,304.1z M165,302.4c-2.2-2.3-1.5-3.5,0.7-1.3c0.9,0.9,1.1,0.8,1.1-0.3
	c0-1-1.5-1.9-4.5-2.7c-18-4.9-34.2-23.9-24.7-29c3.2-1.7,4.7-1.1,11.1,4.3c3.5,2.9,10.7,7.5,16.1,10.3c10.9,5.5,11.1,6.3,0.7,2.6
	c-9.3-3.3-15.4-6.9-20.4-12c-4.5-4.6-5.7-4.7-5.7-0.5c0,14.2,15.7,24.2,38.9,24.9c5.7,0.2,10.8,0.3,11.3,0.3c1.9,0.1,1,2.9-0.9,2.9
	c-5.4,0.2-18.1,1.6-19.8,2.2C167.8,304.6,166.7,304.1,165,302.4L165,302.4z M73.8,303.1c0.6-0.3,1.7-0.3,2.3,0
	c0.6,0.3,0.1,0.5-1.2,0.5C73.7,303.6,73.2,303.4,73.8,303.1z M83.4,302.8c5.3-0.8,17.5-1.2,16.8-0.6c-0.2,0.2-5.2,0.6-11.2,0.9
	C81.8,303.4,79.9,303.3,83.4,302.8z M125.4,303.1c0.7-0.3,1.5-0.2,1.8,0.1c0.3,0.3-0.2,0.5-1.2,0.5
	C124.9,303.6,124.7,303.4,125.4,303.1z M232.3,303.1c0.6-0.3,1.7-0.3,2.3,0c0.6,0.3,0.1,0.5-1.2,0.5
	C232.1,303.6,231.6,303.4,232.3,303.1L232.3,303.1z M248,302.8c-3.7-0.5-4.1-0.7-1.9-1c4.3-0.5,10.2,0.1,11.2,1
	C258.3,303.9,255.3,303.8,248,302.8L248,302.8z M2.6,302.2c0.7-0.3,1.5-0.2,1.8,0.1c0.3,0.3-0.2,0.5-1.2,0.5
	C2.1,302.7,1.9,302.5,2.6,302.2L2.6,302.2z M157,301.9c-0.3-0.5,0-0.7,0.9-0.4c1.6,0.6,1.9,1.3,0.6,1.3
	C158,302.8,157.4,302.4,157,301.9L157,301.9z M260.6,301c0-1.1,6.5-1.3,8.2-0.2c0.7,0.5-0.6,0.8-3.5,0.9
	C262.7,301.8,260.6,301.5,260.6,301L260.6,301z M236.5,300.2c-1.8-0.3-1.9-0.5-0.8-1.7c1.1-1.1,1.8-1.1,3.8-0.3
	c1.9,0.9,3.5,0.8,8-0.5c6.6-1.8,9.5-1.9,14.5-0.1l3.7,1.3l-5.3-0.5c-2.9-0.3-8.4,0-12.2,0.6C239,300.6,238.9,300.6,236.5,300.2
	L236.5,300.2z M127,298.6c-26.5-5.9-67.6-32.4-60.8-39.2c0.3-0.3-0.6-2.7-2.1-5.3l-2.6-4.8l1.9-1.9l1.9-1.9l4,3.3
	c5,4.2,4.7,4.2,10.1-1.3c3-3.1,5.3-4.7,6.8-4.7c3.8,0,26.3-23.5,23.5-24.5c-1.1-0.4-2.8-10.9-2.9-17.1c0-5.6-4.5-14.4-11-21.6
	c-9-10-14.9-20.8-18.5-33.7c-1.8-6.5-3.5-10.5-5.8-13.5c-3.6-4.8-7.2-11.6-8.2-15.4c-0.3-1.4-1.9-4.6-3.4-7
	c-1.5-2.4-2.8-4.9-2.8-5.6c0-0.6-1.8-2.1-3.9-3.3c-2.2-1.2-4.1-2.8-4.3-3.5c-0.3-1,0.5-0.8,2.7,0.6c5,3.1,8.2,3.3,16.8,1.2
	c9-2.2,10.3-2.3,10.3-1c0,0.5-0.8,0.9-1.7,0.9s-4.2,0.8-7.2,1.9s-6.7,1.9-8.2,1.9h-2.7l1.8,2.6c1,1.4,2.1,3.6,2.5,4.9
	c1.4,4.6,9.1,19.3,11.7,22c2.4,2.6,6.5,14.1,5.3,15.2c-0.9,0.9,7.6,19,9,19c0.4,0,0.8,0.5,0.8,1.2c0,0.6,2.3,3.7,5.2,6.8
	c7.5,8.2,13.6,20.4,13.6,27.1c0,4.4,0.4,5.6,2.2,7.2c1.2,1.1,3,3.6,3.9,5.6c1.5,3.3,2,3.7,5,3.7h3.3l-3-2.6c-4.2-3.6-5-8-1.7-10.1
	c2.3-1.5,2.4-1.7,1-4.3c-1.6-3.1-1.7-3.7-0.5-3.7c0.5,0,1.1,0.8,1.5,1.9c1.3,4.1,3.8-1.7,6.1-13.8c3.5-18.7,11.8-40.5,20.7-54.2
	l3.7-5.7l-1.9-3.9c-2.1-4.4-2.3-6.4-0.9-10.2c0.9-2.5,0.9-2.5-0.5-0.8c-1.5,1.9-3.2,0.8-3.2-2.1c0-0.6-0.4-1.2-1-1.2
	c-1.4,0-1.1,2.4,0.5,3.7c1.6,1.3,1.8,4.5,0.5,6.5c-0.6,0.9-3.5,1.6-8.7,2c-4.3,0.4-9.6,1.2-11.8,1.8c-4.6,1.3-11,0.5-9.9-1.2
	c0.5-0.8,0.2-0.8-0.8,0.1c-0.8,0.7-2.1,0.9-2.9,0.6c-1.9-0.7-5.9,3.2-5.5,5.5c0.3,1.9-3.3,10.1-4.5,10.1c-0.4,0,1.3,4.1,3.8,9.1
	c4.1,8.2,8.8,19.8,11.3,28.1c0.5,1.7,1.1,3,1.4,3c1.9,0,5.7-4.1,8.9-9.5c3.3-5.6,5.6-8,5.5-5.7c-0.1,2.9-11.7,17.5-13.1,16.6
	c-1.1-0.7,1.5,5.2,4.5,10.1c2,3.2,2,3.5,0.5,3.5c-2.8,0-7-8.2-15.2-30c-1.6-4.4-3.9-10.3-5-13.1c-1.1-2.8-3.5-7.3-5.3-9.8
	c-4.9-6.9-6.3-9.6-8-16.3c-0.8-3.3-3.4-9.8-5.7-14.5c-4.4-8.9-4.8-10-3.3-10c2.6,0,11.3,17.8,11.3,23.2c0,0.9,1.3,4.4,2.8,7.7l2.8,6
	l2.7-3.2c2-2.3,2.6-3.8,2.2-5.5c-0.4-1.5,0-2.6,1.1-3.5c4.8-3.5-2.6-19.1-9-19.1c-4.3,0-9.2-3-16.2-10c-3.5-3.5-6.9-6.4-7.5-6.4
	c-3.1-0.1-7.2-1.7-8.7-3.5c-1.7-1.9-1.7-2,0.1-1.2c1,0.4,2.6,0.9,3.5,1.2c0.9,0.3,1.5,0.8,1.2,1.1c-0.2,0.3,0.4,0.6,1.4,0.6
	c2.5,0,2.2-0.6-1.9-3.8c-2-1.5-3.7-3.4-3.7-4c-0.1-1.9,8,4.3,12.8,9.9c6.2,7.3,13.7,12.6,18.7,13.1c3.9,0.4,8.7,4.2,8.7,6.8
	c0,0.5,0.5,0.9,1.2,0.9c0.7,0,1.6,0.9,2.1,2.1c1.1,2.5,18.7,3.3,19.6,0.9c0.2-0.6,1.2-1.2,2.1-1.2c2.6,0,13.5-5,18.3-8.2
	c5.3-3.6,6.4-3,1.9,1.1c-3.1,2.8-3.6,5.2-1.1,5.2c1.4,0,5.5-4.8,5.5-6.4c0-0.8,1.3-4.9,2.9-9.2l2.9-7.7l-2-7.8
	c-2.5-9.7-9.6-27.9-10.9-27.9c-0.5,0-3.1-1-5.6-2.3c-4.7-2.3-4.7-2.3-5.4-0.3c-0.7,1.8-0.8,1.8-2.4,0.4c-1.2-1.1-3.2-1.5-7.4-1.3
	c-4.4,0.2-6.1-0.2-7.4-1.4c-2-2-1.1-3.1,1.4-1.7c4.5,2.4,11,1.3,12.1-2c0.9-3,1-3,1.1-0.5c0.1,1.4,0.6,2.8,1.1,3.2
	c0.7,0.4,0.8-2.1,0.4-8.8c-1-14.4,2.2-23.7,8.2-23.6c2.1,0,2,0.1-0.4,1.4c-3.4,1.8-3.3,2,1.4,3.2c20.8,5.3,49,22.3,48.2,29
	c-1.5,12.6-8.4,36.2-12.4,42.3c-1.2,1.9-3,5-3.9,7c-0.9,2-1.9,4.3-2.3,5.1c-0.6,1.3-0.1,1.2,2.8-0.4c7.8-4.3,12.3,6.3,4.8,11.3
	c-1.8,1.2-3.3,2.7-3.4,3.3c-0.2,2.1-3.3,9.1-6.4,14.2c-1.9,3.2-3,4-7.3,5.1c-5.9,1.6-6.1,1.9-11.2,12.2
	c-10.7,21.9-10.9,26.8-1.2,38.9c3.8,4.8,6.3,8.5,8.5,12.7l1.2,2.3l0-3c0-1.7-1-5.8-2.3-9.3c-2.8-7.5-3-9.3-0.5-5.5
	c1,1.5,2.5,6,3.3,9.8c5.6,26.7,6.1,28,11,30.3c3.3,1.6,8.3,9,6,9c-0.7,0-2-1.3-2.9-2.8c-0.9-1.5-3.1-3.5-4.9-4.3
	c-3.9-1.9-5.7-5-6.6-11.5c-0.4-2.7-1-4.4-1.3-3.8c-0.4,0.7-1.3-0.7-2.3-3.6c-0.9-2.6-4.2-8.7-7.3-13.5c-3.2-4.8-6.9-10.7-8.2-13.1
	l-2.4-4.4l-1.7,7.2c-1.6,6.9-3.5,12.9-6.5,21.3c-0.7,2.1-1.1,4.8-0.9,6.2c1.2,6.1-5.3,17.7-8.4,15.1c-2.1-1.7-3.7-0.5-2.5,1.8
	c0.6,1.2,1.5,1.6,2.6,1.2c1.4-0.5,1.5-0.4,0.4,0.9c-0.7,0.9-2,1.5-2.9,1.3c-1.1-0.1-3.8,2.3-7.5,6.8c-3.2,3.9-8.4,9.7-11.4,12.9
	c-3.1,3.2-5.3,6.3-5,6.8c0.3,0.5-1.6,3.7-4.2,7.1c-5.6,7.2-5.6,7.4,3.5,11.7c8.3,3.9,20.7,7.4,31.7,8.7l9.2,1.2l1.2,4.7
	c1.8,6.8,1.7,7-2.2,7c-12.6,0-40.4-10.8-49.3-19.1l-4.5-4.2l4-5.5c2.2-3,5-6.6,6.2-7.9l2.3-2.5l-5.1-5.2l-5.1-5.2l-8.1,7
	c-9.8,8.5-9.8,8.4,2.6,20.3c13.3,12.8,40.9,24,59.3,24.1l5.8,0l-0.5-3l-0.5-3l1.4,2.3C149.7,300,142.6,302,127,298.6L127,298.6z
	 M132.8,290.1c-0.3-0.9-0.8-1.4-1.1-1.1c-0.3,0.3-0.2,1.2,0.1,2c0.3,0.9,0.8,1.4,1.1,1.1C133.2,291.9,133.1,290.9,132.8,290.1z
	 M134.6,288.6c-0.6-2.1-1.2-3.3-1.3-2.5c-0.3,1.4,1.3,6.4,2,6.4C135.5,292.5,135.2,290.7,134.6,288.6L134.6,288.6z M128.6,287.7
	c-0.6-2.2-0.9-2.6-1-1.1c-0.1,2.3,0.9,5.3,1.5,4.7C129.3,291,129.1,289.4,128.6,287.7L128.6,287.7z M124.9,287.8
	c-0.2-1.5-0.6-2.8-0.8-2.8c-0.2,0-0.4,1.3-0.4,2.8s0.3,2.8,0.8,2.8S125.1,289.4,124.9,287.8z M120.2,286.9c-0.2-1.6-0.8-3.1-1.2-3.3
	c-1-0.6-1.1,4.6-0.2,5.5C120.1,290.4,120.6,289.6,120.2,286.9z M115.3,285.3c0-1.7-0.3-2.2-1-1.6c-0.5,0.5-0.7,1.7-0.4,2.5
	C114.9,288.5,115.3,288.2,115.3,285.3L115.3,285.3z M110.6,283.6c0-1.3-0.4-2.3-0.9-2.3c-1,0-1.3,3.1-0.3,4.1
	C110.4,286.3,110.6,286.1,110.6,283.6L110.6,283.6z M70.7,255.3c0.6-0.6-4.5-5.9-5.5-5.9c-1.1,0-0.2,2.5,1.6,4.4
	C68.9,256.1,69.6,256.3,70.7,255.3z M98,245c-0.3-0.7,0-1.1,0.6-1c0.6,0.1,2.3-1.5,4-3.7c1.6-2.2,3.3-4,3.8-4
	c0.8-0.1,5.2-5.2,11.1-12.8c2.3-3-0.3-4.3-3.3-1.6c-1.1,1-2,1.5-2.2,1.3c-0.1-0.3-3.3,2.8-7,6.8c-3.7,4-6.4,7.3-6,7.3
	c0.4,0-1.3,2.1-3.8,4.6c-4.8,4.9-5.2,7.9-0.7,5c2.5-1.6,2.5-1.6,0.9,0.3c-2.5,2.9-2,3.8,0.7,1.3C97.4,247.2,98.3,245.6,98,245
	L98,245z M98.4,242.5c0-0.2,0.7-0.9,1.6-1.6c1.5-1.2,1.5-1.1,0.4,0.4C99.2,242.7,98.4,243.2,98.4,242.5L98.4,242.5z M101.8,237.9
	c0.4-0.9,0.9-1.4,1.2-1.2c0.3,0.3,0,1-0.6,1.7C101.4,239.3,101.3,239.2,101.8,237.9L101.8,237.9z M99.4,236.8c0-0.2,0.7-0.9,1.6-1.6
	c1.5-1.2,1.5-1.1,0.4,0.4C100.2,237.1,99.4,237.6,99.4,236.8L99.4,236.8z M107.5,232.7c0.9-1.7,2.3-3.6,3-4.2c1.8-1.5,0,1.7-2.8,5
	l-2,2.3C105.8,235.8,107.5,232.7,107.5,232.7z M112.5,226.5c0-0.2,0.7-0.9,1.6-1.6c1.5-1.2,1.5-1.1,0.4,0.4
	C113.3,226.8,112.5,227.3,112.5,226.5L112.5,226.5z M129.6,217.7c1.5-2.5,1.4-2.7-1.2-5.6c-3.4-3.8-4.1-3.8-3.3-0.2
	c0.3,1.6,0.2,2.6-0.3,2.3c-0.5-0.3-1.1-0.1-1.4,0.4c-0.3,0.5-0.1,1,0.4,1c0.5,0,1,1,1,2.2C124.7,222,127.1,221.9,129.6,217.7
	L129.6,217.7z M113.4,216.3c0-0.6-0.8-2.2-1.8-3.5l-1.8-2.3l0.5,2.8c0.3,1.5,1,3.1,1.5,3.4C113.3,217.7,113.4,217.7,113.4,216.3
	L113.4,216.3z M123.4,210.2c0.3-0.9,1-2.7,1.5-4c0.6-1.3,0.9-2.8,0.8-3.4c-0.1-0.6,0.5-1.6,1.4-2.3c1.4-1.1,1.5-1.1,1,0.3
	c-0.3,0.9-0.2,1.9,0.3,2.2c0.5,0.3,0.9-0.1,0.9-0.8c0-0.8,0.3-2.1,0.6-3c0.4-1.1,0.3-1.4-0.5-1c-0.7,0.4-0.9,0.2-0.5-0.8
	c0.3-0.8,1-1.2,1.5-0.8c0.6,0.4,0.7,0.2,0.3-0.5c-0.4-0.6-0.2-4.1,0.5-7.7c1.1-6.3,1.2-6.5,2.5-4.4c1,1.6,1.1,1.7,0.7,0.3
	c-1.2-3.6-1.6-6.7-0.6-5.2c1,1.4,2.2-2,3.3-9.3c0.5-3.3,0.5-3.3-0.8,0.5c-0.7,2.1-1.3,4.6-1.4,5.5c0,1-0.3,1.5-0.7,1.2
	c-0.3-0.3,0.1-3.4,1.1-6.8c1.2-4.4,1.9-5.8,2.6-4.9c0.6,0.9,0.8,0.6,0.4-0.9c-0.3-1.2,0.1-3.3,0.8-4.7c0.7-1.4,2.4-5.4,3.7-9
	c1.3-3.5,3-7,3.8-7.8c0.8-0.8,1.4-2,1.4-2.8c0-0.9,0.5-1.2,1.5-0.8c1.3,0.5,1.3,0.4,0.4-0.8c-0.7-0.8-0.8-1.4-0.2-1.4
	c0.5,0,1.8-1.9,3-4.3s2.4-4,2.8-3.8c1.3,0.8,3-1.9,2.3-3.6c-1.2-3.2-5.4,1.6-11.4,13c-7.2,13.7-11.2,24.5-15.2,41.2
	c-2.6,10.8-5.9,20.8-8.3,25.6c-1.1,2.1-1.9,4.5-1.9,5.3C120.9,212.4,122.8,212.3,123.4,210.2L123.4,210.2z M155.6,127.6
	c0-0.5,0.4-1.2,0.9-1.5c0.5-0.3,0.9-0.2,0.9,0.4c0,0.5-0.4,1.2-0.9,1.5C156.1,128.3,155.6,128.1,155.6,127.6z M132.2,210.4
	c0-1.5-2.1-4.2-3.3-4.2c-1.7,0-1.7,0.4-0.2,2.8C129.7,210.8,132.2,211.7,132.2,210.4L132.2,210.4z M132.5,193.1
	c0.3-1,0.1-1.6-0.4-1.4c-0.5,0.3-0.9,1.1-0.9,1.9C131.3,195.6,131.9,195.3,132.5,193.1L132.5,193.1z M143.1,155.5
	c-0.3-0.7-0.5-0.5-0.6,0.6c0,1,0.2,1.5,0.5,1.2C143.4,156.9,143.4,156.1,143.1,155.5L143.1,155.5z M146.2,148.3
	c0-1.4-0.1-1.4-0.9-0.2c-1.2,1.8-1.2,3.1,0,2.3C145.8,150.2,146.3,149.2,146.2,148.3L146.2,148.3z M149.8,141.1
	c-0.3-0.3-0.8,0.2-1.2,1.2c-0.5,1.3-0.4,1.4,0.5,0.5C149.8,142.1,150.1,141.4,149.8,141.1L149.8,141.1z M155.6,130.8
	c0-0.5-0.4-0.3-0.9,0.5c-0.5,0.8-0.9,1.8-0.9,2.3c0,0.5,0.4,0.3,0.9-0.5C155.2,132.4,155.6,131.3,155.6,130.8z M163.6,130.3
	c-0.3-0.5-1.1-0.9-1.7-0.9c-0.7,0-0.6,0.4,0.3,0.9C164,131.5,164.3,131.5,163.6,130.3L163.6,130.3z M165.8,124.8
	c-2.3-4-1.9-6.3,1.5-7.6c1.3-0.5,2.9-1.7,3.5-2.8c1.8-2.9,2.9-2.3,1.3,0.7c-0.7,1.4-2.4,3.1-3.8,3.7c-2.9,1.3-3,2.2-0.6,4.4
	c1.8,1.6,1.8,1.6,1.6-1c-0.1-1.7,0.3-2.7,1.1-2.7c4.2-0.1,4.8-8.1,1.1-14l-2.8-4.5l3-5.3c8.1-14.5,12.7-26.6,15.3-40
	c0.8-4.1,1.7-8.4,2-9.5c1.5-5.3-16.9-16.2-45.6-26.9l-6.2-2.3l-1.2,3.6c-0.8,2.5-1,6.4-0.5,13.3l0.7,9.7l6.3,1.7
	c3.4,0.9,8.7,2,11.7,2.4c8.6,1.1,10.5,2.9,9.7,8.8c-0.4,2.7-1,9.5-1.4,15.1c-0.6,8-1.5,12.6-4.2,20.4c-1.9,5.6-3.4,10.8-3.4,11.7
	c0,0.9-0.8,2.7-1.9,4c-2.6,3.3-2.3,5.9,1,9c1.6,1.5,5,4.9,7.6,7.6C166.8,129.9,168.8,130.1,165.8,124.8L165.8,124.8z M152.1,120
	c-0.3-1.1-0.7-1.7-1-1.4c-0.5,0.5,0.4,3.4,1.1,3.4C152.5,121.9,152.4,121,152.1,120L152.1,120z M124.6,119.2
	c3.4-2.2,0.3-5.9-4.4-5.2c-5.8,0.8-5.9,1-4.7,3.7C116.6,120.1,121.7,121,124.6,119.2z M109.7,117.2c0-1-0.6-1.9-1.4-1.9
	c-1.4,0-1.9,2-0.8,3.1C108.7,119.6,109.7,119.1,109.7,117.2L109.7,117.2z M114.4,118.4c0-0.4-0.4-1.3-0.9-2.1
	c-1.1-1.7-2.3-0.6-1.6,1.3C112.5,119.1,114.4,119.7,114.4,118.4L114.4,118.4z M141.3,116.6c0.2-0.6-2-1.3-6-1.6
	c-6.8-0.6-7.4-0.5-6.6,1.6C129.4,118.2,140.7,118.3,141.3,116.6L141.3,116.6z M140.5,112.1c0.3-0.3,0.1-0.9-0.4-1.5
	c-1.1-1.1-6.9,0.6-6.9,2.1C133.1,113.7,139.4,113.1,140.5,112.1L140.5,112.1z M180,102.6c0-2-1.7-2.5-4-1.2c-1.8,1-1.9,1.2-0.5,1.5
	c0.9,0.2,1.6,0.7,1.6,1.2c0,0.5,0.6,0.6,1.4,0.3C179.4,104.1,180,103.3,180,102.6L180,102.6z M177.7,102.2c0.3-0.5,0.8-0.9,1-0.9
	c0.2,0,0.4,0.4,0.4,0.9c0,0.5-0.4,0.9-1,0.9S177.3,102.7,177.7,102.2z M160.6,68.2c0.3-4.8,0.8-10.2,1.2-12.1
	c0.7-3.7-2.3-5.4-9.2-5.5c-3.2,0-3.2-0.2,0.3,6.9c1.6,3.2,3.6,8.9,4.5,12.6C159.4,78.9,159.9,78.6,160.6,68.2L160.6,68.2z
	 M0.8,297.5c-1.3-1.6,1.9-2.4,9.3-2.2c10.6,0.3,12.4,0.1,11.8-1.3c-0.3-0.7,0.1-1.9,0.7-2.6c0.7-0.7,1.7-2.4,2.4-3.8
	c1.3-2.9,4.8-5,10.1-6c2-0.4,4.1-1.2,4.5-1.7c0.5-0.6,0.6-0.5,0.3,0.5c-0.5,1.6,0,1.8,7.6,4.3c1.7,0.5,3.9,0.8,4.9,0.5
	c1.8-0.5,8.9,3,12.4,6c0.9,0.7,4.1,1.6,7.1,1.9l5.5,0.5l1.5-3.9c1.9-4.6,3.7-5.3,2.4-0.8c-0.5,1.7-0.9,3.2-0.9,3.4
	c0,0.2,5.2,0.2,11.7-0.1c12.1-0.5,13.4-0.3,11.7,1.8c-0.8,0.9-1.5,1-2.8,0.3c-1-0.5-2.1-0.8-2.5-0.5c-0.4,0.2-3.9,0.5-7.7,0.7
	c-3.8,0.1-7.3,0.6-7.6,1.1C83,296,77,296.3,70,296.3c-7.1,0-14.8,0.4-17.3,1C46.4,298.7,2,298.9,0.8,297.5L0.8,297.5z M27.8,294.8
	c-1.5-0.8-3-1.2-3.3-0.9c-0.8,0.8,1.9,2.3,4.1,2.3C30.1,296.2,29.9,296,27.8,294.8L27.8,294.8z M42.2,294.6
	c-0.8-0.3-2.5-0.9-3.7-1.4c-4.4-1.8-8.5-1.5-5.5,0.4c0.9,0.5,0.9,0.8,0.2,0.8c-0.6,0-1.4-0.4-1.7-0.9c-0.7-1.2-4.2-1.2-4.2-0.1
	c0,0.5,0.9,1,2.1,1.2C32.9,295.1,43.7,295.1,42.2,294.6L42.2,294.6z M53.6,290.4c-1.7-3.5-6.8-4.7-6-1.4c0.5,2,3.8,4.4,5.9,4.4
	C55,293.4,55,293.2,53.6,290.4L53.6,290.4z M36.5,290c0.8-0.7-6.1-0.2-7.9,0.6c-1.2,0.5-0.2,0.6,2.8,0.3
	C34,290.6,36.3,290.2,36.5,290z M45.5,288.4c-2.8-4.3-7-5.2-13.9-2.9c-6.1,2.1-5.5,2.8,2,2.4c4.3-0.2,7.4,0.1,9.6,1.1
	c1.8,0.8,3.4,1.5,3.5,1.5C46.8,290.6,46.3,289.6,45.5,288.4z M57.2,289.7c0-0.5-0.4-0.9-0.9-0.9s-0.9,0.4-0.9,0.9s0.4,0.9,0.9,0.9
	S57.2,290.2,57.2,289.7z M69.2,297.5c0.7-0.3,1.5-0.2,1.8,0.1c0.3,0.3-0.2,0.5-1.2,0.5C68.7,298,68.5,297.8,69.2,297.5z M97.3,296.5
	c1.2-0.2,2.9-0.2,3.7,0c0.9,0.2-0.1,0.4-2.1,0.4C96.9,296.9,96.1,296.8,97.3,296.5L97.3,296.5z M171.3,295.6c0.6-0.3,1.7-0.3,2.3,0
	c0.6,0.3,0.1,0.5-1.2,0.5C171.2,296.1,170.7,295.9,171.3,295.6L171.3,295.6z M222.9,294.9c-5.9-1.1-8.1-1.9-7.2-2.7
	c0.2-0.2,4.6,0.1,9.7,0.6c6.8,0.7,11.2,0.6,16.4-0.2c3.9-0.6,8.1-1.3,9.2-1.4c3.5-0.5,2.4,0.9-1.6,2.1c-2,0.6-4,1-4.5,1
	c-0.4-0.1-1,0-1.2,0.1c-0.3,0.1-1.5,0.3-2.8,0.4c-1.3,0.1-4.5,0.5-7,0.7C231.3,295.8,226.4,295.5,222.9,294.9L222.9,294.9z
	 M163.3,293.8c-7.6-2.7-19.8-11.2-19.8-13.8c0-0.5,1.4,0.3,3,1.9c4.2,3.9,7.4,5.9,16.2,9.9C170.3,295.3,170.6,296.4,163.3,293.8
	L163.3,293.8z M256.9,294.5c0-2.4,10.1-4,13.1-2.1c1.9,1.2-2.4,2.2-6.4,1.6c-1.6-0.3-3.2-0.1-3.4,0.4
	C259.4,295.5,256.9,295.6,256.9,294.5L256.9,294.5z M211.4,293.4c-0.3-0.5,0.3-0.9,1.4-0.9s1.7,0.4,1.4,0.9c-0.3,0.5-1,0.9-1.4,0.9
	C212.4,294.4,211.7,294,211.4,293.4z M165,289.8c-4.9-1.6-11.5-4.7-10.2-4.8c0.3,0,2.7,0.8,5.2,1.9c2.5,1.1,6.9,2.5,9.7,3.2
	c2.8,0.7,4.1,1.3,2.8,1.3C171.2,291.5,167.8,290.7,165,289.8L165,289.8z M237.5,290.8c2.1-3.4,8.4-4,24.5-2.5
	c11.4,1.1,8,1.6-5.7,0.9c-11.4-0.6-13.6-0.5-16.3,0.9C238.4,291,237.2,291.3,237.5,290.8L237.5,290.8z M226.7,289.1
	c0.7-0.3,1.5-0.2,1.8,0.1c0.3,0.3-0.2,0.5-1.2,0.5C226.2,289.6,226,289.4,226.7,289.1z M74.1,287.9c-1.8-0.4-7.2-2.9-11.9-5.6
	c-6.4-3.7-9.2-4.8-10.8-4.3c-5.3,1.5-5.9,1.6-5,0.7c3.8-3.7,6.9-3.2,18.1,2.6c5.9,3.1,11.4,5.6,12.1,5.6c0.7,0,1.3,0.4,1.3,0.9
	s-0.1,0.9-0.2,0.8C77.5,288.6,75.9,288.2,74.1,287.9L74.1,287.9z M190.3,287.5c-0.3-0.3-5.6-0.8-16.4-1.5c-2.3-0.1,2.2-1.9,4.8-1.9
	c2.6,0,3-0.4,3.6-3.1c1.1-5.7,1.4-6.3,3-5.7c2.3,0.9,1-5.2-3.1-14.6c-2.6-6.1-3.6-9.8-4.3-17.2c-0.9-9.2-0.5-13.8,0.6-6.7
	c2,12.7,3,16.5,5.8,22.5c1.9,4,3.4,8.9,3.7,12c0.6,5.8,0.9,6.1,6.4,7.8l3.8,1.1l-3.7-0.3c-2.1-0.2-5.1-0.8-6.8-1.3
	c-2.9-1-3-0.9-3,1.5l0,2.5h9.9c7.3,0,10.1-0.3,10.7-1.3c0.6-1,1.5-1.1,4-0.3c5.4,1.7,14.1,0.8,15-1.6c0.4-1.1,1-2,1.4-2
	c0.3,0,0.3,0.7,0,1.6c-1.3,3.4,9.9,4.4,19.2,1.6c5-1.5,12.2-1.5,28.5,0.1c10.3,1,9.2,2.4-1.4,1.8c-23-1.3-23.7-1.3-28.6,0.7
	c-3.8,1.5-6,1.7-12.2,1.3c-16.6-1.2-38-0.2-37,1.8C194.5,287.3,191.1,288.3,190.3,287.5L190.3,287.5z M265.8,286.8
	c0.3-0.5,1.6-0.9,3-0.9c3,0,2.5,0.7-1,1.3C266.4,287.5,265.5,287.3,265.8,286.8L265.8,286.8z M273,286.2c0.9-0.2,2.4-0.2,3.3,0
	c0.9,0.2,0.2,0.4-1.6,0.4S272.1,286.5,273,286.2z M79.3,283.5c1-4.1,2.4-5.1,2.1-1.3c-0.2,1.8-0.8,3.4-1.5,3.6
	C79,286,78.8,285.4,79.3,283.5z M255,285.1c0-1,6.3-2.3,7.5-1.5c0.5,0.3,0.7,1,0.4,1.5C262.2,286.2,255,286.2,255,285.1L255,285.1z
	 M40.6,277.8c-3.2-6.7,4.3-48.2,9.9-55c2-2.4,4.7-11.6,5.4-17.8c1-10.3,24.7-52.9,24.7-44.4c0,0.7-2.2,4.6-4.8,8.7
	c-2.7,4.1-6.4,9.8-8.3,12.6c-4,6.2-7.9,16.7-9.8,26.5c-0.7,3.9-2.4,9.3-3.7,12c-6.9,14.9-9.8,25.6-11.4,41.8
	c-0.7,7.1-0.9,13.5-0.4,14.3c0.4,0.8,0.5,1.9,0.1,2.5C41.9,279.8,41.3,279.3,40.6,277.8L40.6,277.8z M213.2,279.5
	c0.3-0.5,1.9-1.2,3.5-1.6c1.6-0.4,4.4-1.4,6.1-2.4c4.1-2.3,4.1-0.7,0,1.7C219.3,279.3,212.3,281,213.2,279.5L213.2,279.5z
	 M195.7,275.3c-0.8-1.2-2.2-4.9-3-8.2s-1.7-6.7-2-7.6c-0.3-0.9-0.1-1.6,0.4-1.6c0.5,0,1.6,2.6,2.4,5.9c0.9,3.2,2.3,7.4,3.1,9.4
	C198.4,277.2,197.8,278.6,195.7,275.3L195.7,275.3z M221.9,274.1c-0.3-0.3-0.6-2.2-0.6-4.1c0-3.1-1.4-11.5-4.8-27.9
	c-1-5.1-8-23.4-13.2-34.7c-1.6-3.4-3-6.8-3.1-7.6c-0.1-0.8-0.8-1.4-1.6-1.4c-1.6,0-5-3.8-11.4-12.7c-2.4-3.4-6.3-8.6-8.6-11.7
	c-4.6-6.1-4.8-8.6-0.3-3.3c6.9,8.1,15.1,18.5,17.4,22.2c1.4,2.2,3,3.9,3.5,3.7c2.1-0.7,6,6,12.7,21.4
	C219.8,236.5,227.6,279.8,221.9,274.1L221.9,274.1z M76,264.9l-4-4.1l2-2.1c2-2.1,2-2.1,4-0.3c5.3,4.8,7,9.7,2.2,6.6l-2.4-1.6
	l1.6,2.4C81.9,269.7,80.3,269.3,76,264.9L76,264.9z M80.3,259.9c-4.1-4.2-4.2-5-1.2-6.4c2-0.9,2.6-0.7,5.6,2.4
	c4.8,4.9,4.6,7.9-0.3,3.6l-2.4-2.1l1.6,2.5C86.8,264.8,85.1,264.8,80.3,259.9L80.3,259.9z M85.9,255.8c-3.9-3.5-4.1-4.5-1.3-6.3
	c1.9-1.2,2.3-1,5.2,2.2c3.7,4.2,4.1,6.4,0.6,3.2c-1.4-1.2-2.1-1.6-1.6-0.9C92.2,259,90.6,260,85.9,255.8L85.9,255.8z M185.6,243.8
	c-0.7-0.5-1-1.1-0.7-1.5c0.4-0.4,1.2-0.2,1.8,0.4C188.2,244,187.4,244.8,185.6,243.8L185.6,243.8z M189.1,243.2
	c-0.4-0.4-0.2-1.3,0.4-2c0.8-1,0.8-2.6-0.1-6.5c-1.2-5.5-0.9-9.2,1.5-16.6c1.1-3.6,1.2-5.1,0.4-6.9c-0.8-1.8-0.8-2.2,0.1-2
	c2.5,0.8,3.1,3.4,1.9,7.5c-3.2,10.9-3.4,15.1-0.7,21.4C193.3,239.9,190.2,244.3,189.1,243.2L189.1,243.2z M93.7,231.8
	c0-0.4,0.9-3.3,2-6.5c2.5-7.2,1.1-15.5-2.7-16.1c-2.4-0.3-2.5-0.8-0.9-3.5c1.7-2.9,9.5-11.6,10.3-11.6c1.1,0-1.1,3.8-4.2,7
	c-2.7,2.9-3.4,5.6-1.7,6.6c0.5,0.3,0.9,1.3,0.9,2.2c0,0.9,0.6,2.8,1.4,4.3c1.9,3.6,1.8,5.9-0.4,9.4c-1,1.6-2.1,4.3-2.4,6
	C95.6,232.1,93.8,233.8,93.7,231.8L93.7,231.8z M78.6,225.7c-4-3.4-5.1-6-6.8-15.2c-0.7-3.6-1.5-7.3-1.9-8.2c-0.4-1-0.3-1.6,0.3-1.6
	c1.2,0,2.7,4.6,3.4,11c0.8,7,2.8,11.1,6.6,13.4c1.8,1.1,3.1,2.4,2.8,2.9C82.2,229,82.6,229.2,78.6,225.7L78.6,225.7z M86.4,212
	c-3.7-4-6.8-9.4-5.7-10c1.4-0.9,3.4,1.3,4.6,4.8c0.6,1.9,2.4,4.2,4.5,5.5c3,2.1,3.2,2.3,1.3,2.3C89.9,214.7,87.8,213.5,86.4,212
	L86.4,212z M113.4,195.2c0-1.5,2.8-2.2,4.5-1.2c1.5,0.8,1.5,0.9,0,0.9c-0.9,0-2.2,0.3-3,0.6C114.1,195.9,113.4,195.7,113.4,195.2
	L113.4,195.2z M187,178.8c-2.2-5.9-5.1-15.3-5.1-16.4c0-2.8,1.9,0.2,4.7,7.5c1.6,4.2,3.2,8.2,3.4,8.9c0.3,0.6-0.2,1.2-1.1,1.2
	C188.1,180,187.2,179.5,187,178.8L187,178.8z M128,153.5c-2-4-3.9-7.3-4.3-7.3s-1.7-1-3-2.2c-5.3-5.3-10.5-9-12.7-9
	c-1.3,0-2.1-0.4-1.7-0.9c1.5-2.5,5.8-0.8,11,4.4c3,2.9,5.5,5.1,5.7,4.9c0.4-0.5-1-13.5-1.8-16.1c-0.5-1.6-0.4-1.8,0.5-1
	c0.6,0.6,1.5,4.4,1.9,8.5c0.6,5.9,1.5,9,4.6,15.2c2.1,4.2,3.7,8.4,3.5,9.3C131.7,160.1,130.1,157.8,128,153.5L128,153.5z
	 M181.8,159.1c0-0.1-0.1-5.5-0.3-12c-0.2-9.4-0.7-12.8-2.4-17.3c-3.3-8.8-3.5-9.8-1.2-7c4.7,5.8,8.7,36.6,4.7,36.6
	C182.2,159.4,181.9,159.3,181.8,159.1L181.8,159.1z M119.5,153c-1.5-1.4-4.8-4-7.3-5.7c-4-2.7-5.6-4.8-3.8-4.8c1.2,0,11,7,13.1,9.4
	C125.5,156.2,123.9,157.1,119.5,153L119.5,153z M114.2,130.7c-4.1-1.2-6.2-2.8-5.2-3.7c0.7-0.7,9.6,3.1,9.9,4.2c0.2,0.6,0.2,1,0,1
	C118.7,132.1,116.6,131.5,114.2,130.7L114.2,130.7z M52.2,96.8c-4.1-6.6-4-25.9,0.2-32c2.8-4.1,7.7-8.4,7.7-6.6c0,0.6-1.1,1.9-2.4,3
	c-6.3,4.9-7.8,34.5-1.8,34.5c0.7,0,1.5,0.4,1.8,0.9c0.3,0.5-0.6,0.9-2.2,0.9C53.9,97.5,52.4,97.2,52.2,96.8L52.2,96.8z M80.7,66.2
	c-3.4-1.2-7.6-5.5-7.6-7.7c0-2,1.7-1.6,2.3,0.5c2.7,8.4,15.3,7.2,14.7-1.4c-0.3-4-1.9-17.4-2.5-20.2c-0.3-1.3-0.7-4.8-1.1-7.7
	C86,24.4,86,24.4,83,24.4c-1.7,0-4.6-1-6.5-2.3c-1.9-1.3-3.7-2.3-3.9-2.3c-1.3,0-7-5.1-9.1-8.2c-4.6-6.6-15.1-10.4-22-8
	c-8.9,3-13.9,7.6-14.9,13.5c-0.4,2.2-1.2,4.2-1.8,4.4c-0.8,0.3-1-0.5-0.6-2.7c0.8-4.5,2.9-9.2,4-9.2c0.5,0,2.5-1.5,4.5-3.3
	C42-2.6,54.3-1,66,10.5c7.6,7.5,8.1,7.8,12.3,9.6c5.1,2.1,8.4,1.9,9.6-0.7c1.2-2.6,1.3-0.8,0.3,4.7c-0.9,4.8,0.7,14.4,2,12.1
	c0.5-0.8,0.6-1.9,0.3-2.4c-0.3-0.5-0.1-1.2,0.5-1.5c0.8-0.5,0.9,1.5,0.4,7.2c-0.4,4.8-0.2,9.6,0.4,12.4C94.1,62,88.7,69.1,80.7,66.2
	L80.7,66.2z M66.8,57c-1.5-1.5-3.4-2-8.1-2.2c-6.2-0.3-12.1-2.8-13-5.4c-0.3-0.9-0.7-0.9-1.8,0.1c-1.7,1.4-4,0.7-7.6-2.3
	c-2.2-1.8-3.3-2.1-6.7-1.6c-4.4,0.6-6.7-1.4-5.9-5.1c0.2-1-0.6-2-2.3-2.7c-4.2-1.8-4.7-8.3-0.7-9.5c1.1-0.3,1.1-0.2,0.2,0.8
	c-2.3,2.4-1.4,5.6,2,7c1.7,0.7,3.4,2.2,3.7,3.2c0.3,1.1,1.3,1.9,2.4,1.9c2.2,0,3.4-1.5,2-2.4c-0.6-0.4-0.1-1.8,1.5-3.9
	c2.6-3.4,2.5-5.3,0-3.1c-2.9,2.4-7.3-4.6-5.2-8.2c0.8-1.3,0.9-1.1,1,1.2c0.1,4.4,1.2,5.6,3.7,4.1c2.8-1.7,3.8,0.1,3.4,5.7
	c-0.4,5.8-0.4,5.7-1.9,5.7c-2,0-1.8,2.7,0.2,3.5c0.9,0.3,2.3,1.1,3,1.7c1.9,1.6,8.4,2.5,8.4,1.2c0-0.5,1.9,0.7,4.2,2.9
	c4.7,4.3,6.1,4.8,6.1,2c0-1,0.8-2.3,1.9-2.8c1.6-0.9,1.9-0.7,1.9,1c0,1.2-0.4,1.7-1.1,1.3c-0.6-0.4-0.9-0.2-0.6,0.6
	c0.8,2.4,2.6,2,4.3-0.9c1.7-3,3.8-4.1,2.2-1.2c-0.8,1.5-0.6,1.7,1.4,1.3c2.1-0.4,2.3-0.2,1.7,2.3c-0.7,3.7,1.3,4.4,4.4,1.7
	c2.5-2.2,4.9-12.2,4-16.7c-0.4-1.8-0.3-1.9,0.5-0.6C80,44,71.7,61.9,66.8,57L66.8,57z M29.3,43.5c-0.6-0.3-1.7-0.3-2.3,0
	c-0.6,0.3-0.1,0.5,1.2,0.5C29.4,43.9,29.9,43.7,29.3,43.5z M80.3,56.6c-1.3-1.3-0.6-1.9,2.2-1.9c1.6,0,2.7,0.4,2.5,1
	C84.6,56.9,81.3,57.6,80.3,56.6L80.3,56.6z M48.7,44.3c0-1.4,3.2-6.7,4-6.7c0.4,0,0.7,1.5,0.7,3.3c0,2.1-0.4,3.1-1,2.7
	c-0.5-0.3-1.6-0.1-2.3,0.5C49.3,44.8,48.7,44.9,48.7,44.3L48.7,44.3z M46.3,41.3c0.3-1.8,1.1-3.7,1.7-4.2c0.8-0.7,0.9-0.1,0.4,2.3
	c-0.3,1.8-1.1,3.7-1.7,4.2C46,44.3,45.9,43.7,46.3,41.3z M25,33.3c-2.8-2.8-3.3-8.8-0.8-9.6c0.8-0.3,1,0.4,0.6,2.5
	c-0.4,1.9-0.1,3.7,1,5.3C27.6,34.3,27.1,35.4,25,33.3L25,33.3z M42.9,28.6c-1.7-5.7-1.7-5.8,0.7-6.9c3.4-1.6,4.2-1.3,1.1,0.4
	c-2.2,1.2-2.4,1.7-1.6,3.3c0.6,1,0.9,2.6,0.7,3.5C43.5,30.2,43.4,30.2,42.9,28.6L42.9,28.6z M50.9,29.4c-2.1-0.9-1.2-2.3,1.1-1.7
	c1.7,0.4,2.4,0.1,2.8-1.2c0.3-1.1,0.4-0.9,0.3,0.6C54.8,29.5,53.2,30.4,50.9,29.4L50.9,29.4z M67.3,29.5c-0.3-0.3-0.4-1.2-0.1-1.9
	c1.5-4-3.8-9.7-9-9.7c-2,0-2.2,0.3-1.7,3.4c0.5,3.2,0.4,3.3-1,1.9c-1.3-1.3-1.3-2-0.5-3.9c2-4.4,10.3-2.7,13.1,2.8
	C69.3,24,68.4,30.6,67.3,29.5L67.3,29.5z M34.7,26.7c-1.3-1.3-1.9-2.3-1.4-2.3c1.4,0,5.1,2.8,5.1,3.8C38.4,29.6,37.2,29.1,34.7,26.7
	z M45,28.6c0-0.5,0.4-1.6,0.9-2.3c0.5-0.8,0.9-1,0.9-0.5c0,0.5-0.4,1.6-0.9,2.3C45.4,28.9,45,29.1,45,28.6z M62.4,26.5
	c-0.4-0.4-1.4-0.7-2.3-0.7c-1,0-1.7-0.9-1.9-2.6c-0.3-2.6,2.7-3.9,4-1.6c0.3,0.5-0.1,0.9-0.9,0.9S60,22.9,60,23.4
	c0,0.5,0.9,0.6,2,0.3c1.1-0.3,2.3,0,2.8,0.7C66,26.5,64.1,28.2,62.4,26.5L62.4,26.5z M91.4,26c-2.3-5.4,3.2-12.4,11.9-15.3
	c8.7-2.9,29.3-1.8,29.3,1.5c0,1.5-0.2,1.5-10,0.1c-7.6-1.1-16.8-0.1-22.5,2.5c-4.9,2.2-5.3,2.6-6.8,8.5C92.4,26.6,91.9,27.3,91.4,26
	L91.4,26z M33.8,23.5C33,23,32.7,22.3,33,22c0.9-0.9,3.5,0.2,3.5,1.4C36.6,24.6,35.6,24.6,33.8,23.5L33.8,23.5z M34.1,20.2
	c-1-0.7-1.5-1.6-1.1-2c0.4-0.4,1.4,0,2.3,0.8C37.4,21.1,36.5,21.9,34.1,20.2L34.1,20.2z M40.5,19.7c0.2-0.8,1.9-2.2,3.6-3.2
	c3.3-1.9,3.2-1.7-1.4,2.3C41.1,20.2,40.2,20.6,40.5,19.7L40.5,19.7z M34.3,16.7c-2-2.9-1.9-3.9,1-6.8c3.1-3.1,4.3-2.4,1.3,0.8
	c-2,2.1-2.1,2.6-0.9,4.7C37.3,18.5,36.3,19.5,34.3,16.7L34.3,16.7z M42.6,13.2c0.3-0.4,1.3-1,2.3-1.2c1-0.3,1.7-0.2,1.4,0.2
	c-0.3,0.4-1.3,1-2.3,1.2C43,13.7,42.4,13.6,42.6,13.2z M38.4,10.9c0-0.3,0.8-0.9,1.9-1.5c1-0.6,1.9-0.8,1.9-0.5s-0.8,0.9-1.9,1.5
	C39.3,10.9,38.4,11.1,38.4,10.9z"/>
</svg>
