<?xml version="1.0" encoding="utf-8"?>
<!-- Generator: Adobe Illustrator 17.0.0, SVG Export Plug-In . SVG Version: 6.00 Build 0)  -->
<!DOCTYPE svg PUBLIC "-//W3C//DTD SVG 1.1//EN" "http://www.w3.org/Graphics/SVG/1.1/DTD/svg11.dtd" [
	<!ENTITY ns_flows "http://ns.adobe.com/Flows/1.0/">
	<!ENTITY ns_extend "http://ns.adobe.com/Extensibility/1.0/">
	<!ENTITY ns_ai "http://ns.adobe.com/AdobeIllustrator/10.0/">
	<!ENTITY ns_graphs "http://ns.adobe.com/Graphs/1.0/">
]>
<svg version="1.1" id="Layer_1" xmlns:x="&ns_extend;" xmlns:i="&ns_ai;" xmlns:graph="&ns_graphs;"
	 xmlns="http://www.w3.org/2000/svg" xmlns:xlink="http://www.w3.org/1999/xlink" xmlns:a="http://ns.adobe.com/AdobeSVGViewerExtensions/3.0/"
	 x="0px" y="0px" width="256px" height="256px" viewBox="0 0 256 256" style="enable-background:new 0 0 256 256;"
	 xml:space="preserve">
<g id="Layer_x0020_1">
	<path style="fill:none;stroke:#000000;stroke-width:2;stroke-miterlimit:10;" d="M171.2,114.7l-3.1,4.4
		c-10.9-1.2-22.7-2.6-35.2-4.4c-0.1-0.1-0.2-0.2-0.3-0.3c0-0.4,1.5-0.9,4.7-1.7L171.2,114.7L171.2,114.7z M253.6,161.8
		c-5.7,5.6-9.7,8.3-11.8,8.2c-5-0.3-44.8-1.8-119.2-4.5c-3.5,1.2-6.9,2.3-10.1,3.2c-7.8,2.1-14.6,3.1-20.5,3.2
		c-16.9,0.2-29.2-2.1-37.1-6.8c6.1,0.1,9.7-1.2,10.5-3.7c0.3-0.6,0.4-1.3,0.4-2c0-4.3-3-7.2-9.2-8.6c-5.8-1.3-9.7,0-11.6,3.8
		c-1,2.1-0.9,3.8,0.4,5.2c-1.1-0.5-2.3-2.2-3.5-4.9c-0.6-6.5,10.2-13.5,32.3-20.9c8.4-11.2,17.1-16.6,26.4-16.1
		c9.8,0.6,22.1,1.9,36.6,4.1c11.9,1.8,21,2.6,27.4,2.4c2.6-0.1,11-13.6,25.2-40.5c2.5-0.1,4.5,0,5.8,0.3c1.1,0.3,2.4,0.7,4.1,1.1
		l-6.6,30.6l43.3,4.4c-0.4,0.8-1.3,1.5-3,2.4c-3.7,0.1-17.9-0.3-42.4-1.3l-3.4,12.3c-2.4,2.4-7.3,6.6-14.5,12.7
		c-3.1,2.4-7.7,4.9-13.7,7.9L253.6,161.8L253.6,161.8z M64.2,136.4c-2.5,0.9-6.5,2.5-11.7,4.9c-2.1,1.2-4.8,3.2-8.2,6.1
		c-10.6-6.1-24.3-13.8-41.2-23.1c-0.4-0.3-0.7-0.6-0.7-0.9c0-1.3,6.1-2.3,18.5-2.9L64.2,136.4z M61.5,160.5c0,2.5-3.7,3.8-11.1,3.8
		c-3.2,0-4.8-0.9-4.8-2.9c0-5,3.1-7.4,9.2-7.1C59.2,154.6,61.5,156.7,61.5,160.5z M132.5,140.5l-3-12.6l-10.8-1.4l5,15.2
		L132.5,140.5z M120,142.5l-4.4-15.9l-1.7,16.9L120,142.5z M112.9,125.8c-7.2-2.4-13.3-3.5-18.5-3.5c-2.1,0-3.8,0.2-5.2,0.6
		c-3,0.8-7.1,4.6-12.2,11.4c2.7,0.1,7.4,0.6,14.2,1.4c6.1,1.2,12.6,3.5,19.7,6.8L112.9,125.8L112.9,125.8z"/>
</g>
</svg>
