<?xml version="1.0" encoding="utf-8"?>
<!-- Generator: Adobe Illustrator 23.0.0, SVG Export Plug-In . SVG Version: 6.00 Build 0)  -->
<svg version="1.1" id="Layer_1" xmlns="http://www.w3.org/2000/svg" xmlns:xlink="http://www.w3.org/1999/xlink" x="0px" y="0px"
	 viewBox="0 0 256 256" style="enable-background:new 0 0 256 256;" xml:space="preserve">
<ellipse style="fill:#D6AD63;stroke:#886B31;stroke-width:5;stroke-linecap:round;stroke-linejoin:round;stroke-miterlimit:10;" cx="59.5" cy="140.7" rx="39" ry="21.2"/>
<ellipse style="fill:#D6AD63;stroke:#886B31;stroke-width:5;stroke-linecap:round;stroke-linejoin:round;stroke-miterlimit:10;" cx="138" cy="141" rx="39.5" ry="20"/>
<ellipse style="fill:#D6AD63;stroke:#886B31;stroke-width:5;stroke-linecap:round;stroke-linejoin:round;stroke-miterlimit:10;" cx="210" cy="140.5" rx="32.5" ry="21"/>
<polyline style="fill:none;stroke:#886B31;stroke-width:5;stroke-linecap:round;stroke-linejoin:round;stroke-miterlimit:10;" points="
	116.5,157.5 84.5,100.5 51.5,173.5 "/>
<polyline style="fill:none;stroke:#886B31;stroke-width:5;stroke-linecap:round;stroke-linejoin:round;stroke-miterlimit:10;" points="
	154.1,159.2 183.5,102.5 210.5,173.5 "/>
<polyline style="fill:none;stroke:#886B31;stroke-width:5;stroke-linecap:round;stroke-linejoin:round;stroke-miterlimit:10;" points="
	137.2,160.9 133.5,100.5 124.5,173.5 "/>
<path style="fill:none;stroke:#886B31;stroke-width:5;stroke-linecap:round;stroke-linejoin:round;stroke-miterlimit:10;" d="
	M29.5,154.5c0,0-1.6,8.1-20,8.7"/>
<path style="fill:none;stroke:#886B31;stroke-width:5;stroke-linecap:round;stroke-linejoin:round;stroke-miterlimit:10;" d="
	M22.5,148.5c0,0-11-5-18,8.7"/>
<path style="opacity:0.2;" d="M179.4,147.6c0,0,49.1,2,59.6-16.6l3.5,7l-1.9,9.7l-8.7,8.4l-14.5,4.9l-9.1,0.5l-10.6-1.5l-10.8-4.7
	L179.4,147.6z"/>
<ellipse style="fill:none;stroke:#886B31;stroke-width:5;stroke-linecap:round;stroke-linejoin:round;stroke-miterlimit:10;" cx="210" cy="140.5" rx="32.5" ry="21"/>
</svg>
