<?xml version="1.0" encoding="utf-8"?>
<!-- Generator: Adobe Illustrator 23.0.0, SVG Export Plug-In . SVG Version: 6.00 Build 0)  -->
<svg version="1.1" id="Layer_1" xmlns="http://www.w3.org/2000/svg" xmlns:xlink="http://www.w3.org/1999/xlink" x="0px" y="0px"
	 viewBox="0 0 256 256" style="enable-background:new 0 0 256 256;" xml:space="preserve">
<g>
	<path style="fill:#FFD060;" d="M85.8,169.9c8.6,12.3,5.8,26.2,5.8,38.5V250h15.8c0,0-5-63.3,37.9-65.4
		c49.2-2.4,41.7,65.4,41.7,65.4h13.6c0,0,15.8-34.6,13.4-72.6c-1.9-29.4-12.1-41.9-37.4-45.9c-10.9-1.7-22.1-1.4-32.9,0.6l-11,2.1
		c-11.4,2.1-23-2.5-29.7-12c-4.5-6.4-7.9-13.3-10-17.3c-4.3-8.3-6.5-28.1-6.5-28.1c-9-20.2-27.4-5.4-27.4-5.4
		C41.7,88.3,34.1,85,30.1,88.3c-4,3.2-4,11.9,2.5,15.6c6.5,3.7,9.4-5.2,18.3-1.9c9,3.2,15.9,1.4,15.9,1.4S66.9,142.9,85.8,169.9z"/>
	<path style="opacity:0.1;" d="M170.1,191.7c0,0,24.9-26.4,12-59.1l15.1,6.3l11.8,15l4.9,28.2l-1.2,22.1l-3.9,20.6l-8.4,25.3h-13.6
		l0.3-14.4l-2.5-18.6l-6-15.4L170.1,191.7z"/>
	<path style="opacity:0.3;fill:#FFFFFF;" d="M33.2,98.9c0,0-2.1-3.3,1.7-6.7s7,1.3,15.4-6.5S67.1,67,76.7,69.9l1.6-3.8l-7.9-1
		l-6.2,3.1l-7.6,4.4L51,78.3L45,82l-7.1,3.5l-7.8,2.8l-2.6,5.3l1.6,5.9L33.2,98.9z"/>
	<path style="fill:none;stroke:#886B31;stroke-width:5;stroke-linecap:round;stroke-linejoin:round;stroke-miterlimit:10;" d="
		M85.8,169.9c8.6,12.3,5.8,26.2,5.8,38.5V250h15.8c0,0-5-63.3,37.9-65.4c49.2-2.4,41.7,65.4,41.7,65.4h13.6c0,0,15.8-34.6,13.4-72.6
		c-1.9-29.4-12.1-41.9-37.4-45.9c-10.9-1.7-22.1-1.4-32.9,0.6l-11,2.1c-11.4,2.1-23-2.5-29.7-12c-4.5-6.4-7.9-13.3-10-17.3
		c-4.3-8.3-6.5-28.1-6.5-28.1c-9-20.2-27.4-5.4-27.4-5.4C41.7,88.3,34.1,85,30.1,88.3c-4,3.2-4,11.9,2.5,15.6
		c6.5,3.7,9.4-5.2,18.3-1.9c9,3.2,15.9,1.4,15.9,1.4S66.9,142.9,85.8,169.9z"/>
	<path style="fill:#FFD060;stroke:#886B31;stroke-width:5;stroke-linecap:round;stroke-linejoin:round;stroke-miterlimit:10;" d="
		M77.3,69.9c0,0,0.7-12.6,20.9-20.2c0,0,0,22.4-15.1,29.2"/>
	<path style="fill:none;stroke:#886B31;stroke-width:5;stroke-linecap:round;stroke-linejoin:round;stroke-miterlimit:10;" d="
		M71.8,66.1c0,0,1.5-19.3,16-20c14.4-0.7,27.8-10.8,32.4-17.3c4.7-6.5,7.2-16.6,27.8-15.1c0,0,5.8,0,10.1-8.7"/>
	<path style="fill:none;stroke:#886B31;stroke-width:5;stroke-linecap:round;stroke-linejoin:round;stroke-miterlimit:10;" d="
		M149.4,32c0,0-10.8,2.9-14.1,8.7c-3.2,5.8-11.2,8.8-37.1,3.3"/>
	<circle style="fill:#886B31;" cx="65.4" cy="78.9" r="3.5"/>
	<path style="fill:none;stroke:#886B31;stroke-width:5;stroke-linecap:round;stroke-linejoin:round;stroke-miterlimit:10;" d="
		M29.1,100.5c0,0,7.3,0.7,16-6.9"/>
	<path style="fill:none;stroke:#886B31;stroke-width:5;stroke-linecap:round;stroke-linejoin:round;stroke-miterlimit:10;" d="
		M202.5,143.3c0,0,17.2,16,21.9,48.4"/>
</g>
</svg>
