<?xml version="1.0" encoding="utf-8"?>
<!-- Generator: Adobe Illustrator 17.0.0, SVG Export Plug-In . SVG Version: 6.00 Build 0)  -->
<!DOCTYPE svg PUBLIC "-//W3C//DTD SVG 1.1//EN" "http://www.w3.org/Graphics/SVG/1.1/DTD/svg11.dtd" [
	<!ENTITY ns_flows "http://ns.adobe.com/Flows/1.0/">
	<!ENTITY ns_extend "http://ns.adobe.com/Extensibility/1.0/">
	<!ENTITY ns_ai "http://ns.adobe.com/AdobeIllustrator/10.0/">
	<!ENTITY ns_graphs "http://ns.adobe.com/Graphs/1.0/">
]>
<svg version="1.1" id="Layer_1" xmlns:x="&ns_extend;" xmlns:i="&ns_ai;" xmlns:graph="&ns_graphs;"
	 xmlns="http://www.w3.org/2000/svg" xmlns:xlink="http://www.w3.org/1999/xlink" xmlns:a="http://ns.adobe.com/AdobeSVGViewerExtensions/3.0/"
	 x="0px" y="0px" width="256px" height="256px" viewBox="0 0 256 256" style="enable-background:new 0 0 256 256;"
	 xml:space="preserve">
<g transform="translate(0.000000,664.000000) scale(0.100000,-0.100000)">
	<path style="fill:none;stroke:#000000;stroke-width:5;stroke-miterlimit:10;" d="M1156,6021.8c-42.8-4.6-78.8-19.4-104.4-43.4
		c-18.6-17.2-49.8-61-64-89.4c-5.8-11.6-12.4-30.8-11-32.2c0.4-0.4,7,2,14.6,5.4c34.4,15.8,58.6,23.2,81.4,25
		c17.8,1.6,31.2-1.6,65.4-15.6c61.8-25,75.6-30.2,93.6-35c17.4-4.4,22.2-4.8,47.4-4c28.2,1,39.6,3.4,56.6,12.2
		c3.6,1.8,6.4,3,6.4,2.4c0-0.4-3.4-6.6-7.8-13.6c-16.2-26.6-41.6-86-52.8-123.6c-13.4-44.2-25-100.4-40.6-197
		c-1.6-9.8-3.4-18.2-4-18.8c-0.4-0.6-14.2,1-30.4,3.6c-64,9.8-69.8,10.4-92.4,9.8c-26-0.6-32-3-51.2-20.2c-9.8-8.8-10-8.8-28.8-10.2
		c-21.2-1.6-57-8.2-99-18.2c-15.4-3.6-37.4-9-49-11.6c-13-3.2-30.6-5.4-46-6.2c-43.6-2.2-78.4-11-117.6-29.4l-20.6-9.6l-15.4,7
		c-12.6,5.8-16.2,6.6-20,5c-2.6-1.2-11.4-2.2-19.6-2.2c-17.6,0-20.4-1.2-33.8-14c-7.6-7.2-13.4-10.6-24-14
		c-7.6-2.6-17.4-6.2-21.4-8.2c-7.4-3.8-17.6-15-17.6-19.4c0-4-3.4-2.6-6.8,2.6c-8.8,13.4-18.8,10.4-34-10.6
		c-14.8-20.6-16-21.2-42.8-21.2c-21-0.2-23-0.6-26.4-4.6l-3.4-4.4l-2.4,5c-1.2,2.6-4.4,5.8-7.2,7.2c-4.4,2-5.8,1.6-10-2.4
		c-2.8-2.6-9.2-11.4-14.2-19.4c-5.2-8.4-11.6-16-14.8-17.6c-7.8-4-20.4-3.8-37,0.8c-26.8,7.4-35.6,6.6-49.4-4.4
		c-12-9.8-18.4-13.4-34.2-19.4c-6.2-2.4-14.6-7.4-18.8-11.2c-15.6-14.6-22.8-16.4-49.6-11.8c-28.2,4.6-43.6,4-55.2-2.2
		c-10.4-5.8-12-8.4-12.8-22.6c-0.6-9-0.8-9.2-8.6-10.6c-14.6-2.4-26.4-11.6-26.4-20.2c0-2.4-33.4-12.6-55.2-16.6
		c-6.2-1.2-6.4-1.6-7.6-14.8l-1.4-13.4l-7.6-1.2C7,5141.2,0,5134,0,5118.6c0-6.6,1-9.2,5.2-12.4c14.6-11.6,53.4-14.4,95.2-7
		c7,1.2,7.4,1,11.2-7.6c8.8-20.2,34.6-28.2,65.6-20.4c5,1.2,5,1,2.8-3.2c-1.4-2.8-2.2-9.6-1.6-17.6c0.8-11.4,1.6-13.6,7.2-18.6
		c9-8,19.2-10,48-9.4c14.6,0.4,33-0.6,43.2-2.2c9.8-1.4,25.2-2.2,34-1.8c14,0.8,19.4,2.4,39.6,11.4c17.6,7.6,25.8,10.2,33,10.2
		c5.2,0,10.6-0.8,11.8-1.6c3.2-2,6.8-9.6,6.8-14c0-4.8,8.8-8.4,20-8.4h7.4l2.6-11.8c1.6-7.8,4.2-13.6,7.4-16.6
		c5.4-5,8.4-5.2,40.6-2.8l19,1.6l4.6-7.2c2.4-4,4.4-8.8,4.4-10.8c0-5,11.2-15.4,20.8-19.4l7.6-3.2L535,4935
		c-2-16.8,2.4-22.6,20.8-28c15.6-4.8,57.2-1,69.6,6.2c4.6,2.6,9.2,4.8,10.4,4.8c4.4,0,11-9.8,21.6-31.6
		c14.8-30.2,24.6-37.8,37.4-29.2c4.4,2.8,5,2.8,5.8-0.6c6.2-21.4,12.2-38.8,15.4-44c4.6-7.8,13-12.4,26.2-14.4
		c12.8-2,23.6,0,63.8,11.8c38.2,11.2,52,13.8,52,9.8c0-6.2-4.2-16.6-8-20.2c-5-4.8-5-5.4,0.6-13.8c3.4-5.2,7.4-7.8,16.6-10.8l12-4
		l-6.6-6.4c-4.8-4.4-6.6-8-6.6-12.6c0-5.6,1-6.8,9.4-10.4c16.8-7.4,38-7.2,79.6,1c51.8,10.2,46,10.6,46.2-2.4
		c0.2-15.6,6.2-28.4,17-35.6c11-7.2,33.8-9,50-3.6c11.2,3.8,25.4,16.4,30,26.8c2.6,5.6,3,5.8,13.2,4.8c8.2-1,10.6-0.6,10.6,1.6
		c0.2,7.6,3.2,8.4,15.2,4.2c35.2-12.2,65.8-15,78.8-7.2c8.8,5,16,15.6,16,23.4c0,5.4,0.4,5.8,6,4.6c8-1.4,13.4,0.8,24.8,10.6
		c5,4.4,12.6,9,16.8,10.2c10.8,3,32.4,2.4,50-1.2c8.4-1.8,21.8-3.4,29.4-3.6c15-0.2,22,2.4,44.8,17c9.8,6,12.2,6.8,23,6.4
		c16.2-0.8,21.8,1.8,29.4,13.6c7,10.8,25.4,23.8,34,23.8c2.8,0,8-1,11.2-2c5-1.8,5.8-3,5-7.2c-1.6-8.2,4.4-12.8,16.4-12.8
		c5.6,0,13.4,0.8,17.4,1.8c6.6,1.6,7.2,1.2,9.4-4.2c5.8-15.6,42.2-14.8,63.4,1.4l6.4,4.8l0.2-7.2c0.6-17.6,20.2-31.6,44.2-31.6
		c17.2,0,26.2,5,29.4,16c1.2,4.8,2.6,6.8,3.6,5.4c2.4-4.2,23.6-17.4,35-22c12.6-5.2,27.4-5.8,33.8-1.2c5.4,3.8,10.4,13,10.4,19.2
		c0,8.8,2.4,10,12.2,6.6c5.8-2.2,20.8-3.8,44.8-5c27.6-1.2,39-2.6,49-5.8c16.8-5.4,41-7.6,50.6-4.4c4.2,1.4,12.8,8,20.8,16.2
		c11,11,15.2,13.8,21.6,14.8c25.2,4,28.6,5.4,43,17c14.4,11.8,24.2,16.2,35.8,16.2c10.4,0,17.6,4.8,19,12.8
		c1.6,8,7.8,13.8,18.8,17.4c18,5.8,24.4,15.6,24.4,37.4c0,7.8-1,16.6-2,19.6l-2.2,5.4l15.2-1.2c8.8-0.8,16.8-0.6,19,0.6
		c4.8,2.6,8.4,13.2,6.8,21.4l-1.2,6.6h14.6c8.2,0,23.2-1,33.4-2c39.8-4.2,59.8,9.6,58,40c-0.6,10.8-0.2,12,3.4,12
		c6,0.2,19.4,6.8,24.4,12.2c6,6.6,10.6,18.2,10.6,26.6v6.8l13.6,1.2c7.4,0.6,24,1.6,36.8,2.4c27.2,1.4,29,2.6,31,18.4
		c1,9.4,0.6,10.6-5,16.2l-6,6.2h25.8c19,0,27.6,0.8,31.6,3c6.6,3.2,12.2,15.4,12.2,26c0,6,0.6,7,4.8,7c9.8,0,31,8,35,13.4
		c5,6.2,5.8,20.8,1.4,24.6c-1.6,1.2-8.2,3-14.4,3.8c-9,1.2-12.2,2.6-14.6,6.4c-1.8,2.6-6,7.8-9.4,11.4l-6.4,6.4h-37.6
		c-20.8,0-39.8,0.6-42.2,1.2c-3.6,1-4.6,2.8-4.6,7.6c0,3.4-1.4,8.2-3,10.6c-4.4,6.4-24.8,12.2-51,14.6c-12.6,1.2-33.8,4.8-47,8
		s-28.4,6.4-34,7.2c-10.8,1.4-13,3.2-13,10.6c0,7.8-7.4,17.6-16.8,21.8c-9.8,4.8-40.4,9.4-50.4,7.8c-5.6-1-8,0.2-17.8,8.8
		c-28.4,24.8-66.4,32.8-104.6,22c-4.8-1.4-10.2-0.6-24,3.8c-23.6,7.6-52.4,13.4-80.8,16.4c-22,2.2-24.6,2.2-42-2
		c-20.4-4.8-35.4-5.6-42.2-2.2c-2.4,1.4-13.8,11.6-25.4,22.8c-18.2,17.6-22.8,21-32.2,23.6c-17.2,5-35.2,9-56.8,12.2
		c-30.6,4.8-47,8.6-82.6,19.4c-53.4,16-57.8,16.8-83.6,14l-22.4-2.4l-10.6,6.8c-11.8,7.6-44,24-51.4,26.4
		c-2.6,0.8-10.6,5.4-17.6,10.4c-25.2,17.6-48.4,22.2-91.4,18.6c-14.2-1.2-26.4-1.6-27-1c-0.6,0.4-2.2,15.6-3.6,33.4
		c-4.2,54.6,1.8,127,16.4,199.6c6,29.8,9.4,42.6,23.2,85.6l10.4,32.4h8.2c29-0.2,64.4-15.6,92-40.4c40.2-36.2,82.2-47.2,115.6-30.8
		c24.6,12,50.4,39.6,56.8,61c4.8,15.2,4.8,45.4,0,60.8c-2,6.2-4.2,11.4-5,11.4c-0.8,0-2.6-2.4-3.8-5.4c-4-9-15.2-15.2-28.8-16.2
		c-21-1.6-25.6,1.4-67.6,43.6c-31.4,31.8-39.2,38.4-50.2,43.8c-18.6,8.8-34.2,12.2-56,12.2c-28.8,0-50.8-7.4-71.8-24l-9.8-7.8
		l-5.2,6.8c-3,3.8-9.6,9.4-14.8,12.4c-5.2,3-14.6,8.8-21,13.2C1265,6019.6,1220,6028.4,1156,6021.8z"/>
</g>
</svg>
