<?xml version="1.0" encoding="utf-8"?>
<!-- Generator: Adobe Illustrator 17.0.0, SVG Export Plug-In . SVG Version: 6.00 Build 0)  -->
<!DOCTYPE svg PUBLIC "-//W3C//DTD SVG 1.1//EN" "http://www.w3.org/Graphics/SVG/1.1/DTD/svg11.dtd" [
	<!ENTITY ns_flows "http://ns.adobe.com/Flows/1.0/">
	<!ENTITY ns_extend "http://ns.adobe.com/Extensibility/1.0/">
	<!ENTITY ns_ai "http://ns.adobe.com/AdobeIllustrator/10.0/">
	<!ENTITY ns_graphs "http://ns.adobe.com/Graphs/1.0/">
]>
<svg version="1.1" id="Layer_1" xmlns:x="&ns_extend;" xmlns:i="&ns_ai;" xmlns:graph="&ns_graphs;"
	 xmlns="http://www.w3.org/2000/svg" xmlns:xlink="http://www.w3.org/1999/xlink" xmlns:a="http://ns.adobe.com/AdobeSVGViewerExtensions/3.0/"
	 x="0px" y="0px" width="256px" height="256px" viewBox="0 0 256 256" style="enable-background:new 0 0 256 256;"
	 xml:space="preserve">
<path style="fill:none;stroke:#000000;stroke-width:2;stroke-linejoin:round;" d="M182,83.3c1.1-0.6,2-1.1,2.8-3.1
	c0-1.7,0-3.4,0-5.6c0.3-1.7,0-4.5,4.8-3.9c0,0,8.2,2,12.4,2.3c2.5,0.3,4.8,0.3,7.3,0c2.3-0.3,6.5-2,6.5-2l-2,3.4l2.8,3.7
	c0,0-4.5-0.3-6.8-0.3c-4.8-0.3-9.3-0.8-14.1-1.4c-2.3-0.3-6.5-1.1-6.5-1.1c-0.6,2-0.8,4.2-0.8,7.9c-0.3,1.1,0.6,3.1-0.3,3.7
	L182,83.3z"/>
<path style="fill:none;stroke:#000000;stroke-width:2;stroke-linejoin:round;" d="M130.3,128c6.5,5.6,11.3,12.4,16.6,19.7
	c-2.3,3.1-0.6,4.5,0,6.5c1.4-3.1,1.7-2.8,2.5-3.9c2-1.1,3.9-0.3,5.6,0.8c0-2.8-3.1-4.5-4.8-5.3c-6.2-7.3-12.1-12.9-15.5-21.7
	L130.3,128z"/>
<path style="fill:none;" d="M130.3,128c6.5,5.6,11.3,12.4,16.6,19.7c-2.3,3.1-0.6,4.5,0,6.5c1.4-3.1,1.7-2.8,2.5-3.9
	c2-1.1,3.9-0.3,5.6,0.8c0-2.8-3.1-4.5-4.8-5.3c-6.2-7.3-12.1-12.9-15.5-21.7L130.3,128z"/>
<path style="fill:none;stroke:#000000;stroke-width:2;stroke-linejoin:round;" d="M113.7,123.2c0,0-0.3,8.2,0.6,12.1
	c0.6,3.4,2.5,7.3,2.3,11.3c-0.3,3.1-3.1,8.2-3.1,8.2l3.9-0.8v6.8c0,0,2.8-5.1,3.7-8.2c0.6-2.3,0.6-5.9,0.3-8.2
	c-0.3-3.4-2.3-5.9-2.8-9.6c-0.6-5.1-1.1-14.9-1.1-14.9L113.7,123.2z"/>
<path style="fill:none;stroke:#000000;stroke-width:2;stroke-linejoin:round;" d="M47.3,142.3c0,0-3.4,3.7-5.3,5.1
	c-2.8,2-5.3,3.4-8.4,4.8c-2.5,1.1-3.9,2-7.9,2.5s-7.6-0.3-11,2.3c2,0.6,4.5,0.6,5.6,1.7l-2.3,7c0,0,9.6-6.2,14.6-9
	c4.2-2.3,9.6-4.5,11.8-5.9c2.8-2,5.3-5.3,7.3-7.9L47.3,142.3z"/>
<path style="fill:none;stroke:#000000;stroke-width:2;" d="M68.6,89.7c0,0,6.5-8.4,17.4-5.9c10.7,2.3,10.7,16,10.7,16L68.6,89.7z"/>
<path style="fill:none;" d="M83,82.4c-8.7,0-13.5,6.5-13.5,6.5l9,3.4c1.4-2,3.7-4.5,6.8-3.7c2.5,0.8,3.1,3.7,2.8,7l9.3,3.4
	c0,0,0-13.8-10.7-16C85.5,82.4,84.1,82.4,83,82.4L83,82.4z"/>
<path style="fill:none;stroke:#000000;stroke-width:2;" d="M102.7,99.3c-1.7-2.5-0.3-5.9,0-9c0.3-3.9,3.4-8.4,7.9-5.9
	c7.3,3.9,12.7,3.7,18,4.8L102.7,99.3z"/>
<path style="fill:none;" d="M103,98.7c-1.7-2.5-0.3-5.9,0-9c0.3-3.9,3.4-8.4,7.9-5.9c7.3,3.9,12.7,3.7,18,4.8L103,98.7z"/>
<path style="fill:none;stroke:#000000;stroke-width:2;stroke-linejoin:round;" d="M102.1,99.3c0,0-25.3-12.9-39.1-12.1
	c-14.3,0.8-28.4,8.4-39.1,18C16.6,111.7,9,130.5,9,130.5h5.3c0,0,13.5,8.4,20.8,11c7.9,2.5,16.3,3.4,24.5,2.8
	c11.3-0.8,23.1-3.1,32.6-9.3c6.5-4.2,14.9-17.7,14.9-17.7C106.1,114.5,109.4,104.1,102.1,99.3L102.1,99.3z"/>
<path style="fill:none;" d="M65.3,86.4c-0.8,0-2,0-2.8,0c-14.3,0.8-28.4,8.4-39.1,18c-7.3,6.5-14.9,25.3-14.9,25.3h5.6
	c0,0,13.5,8.4,20.8,11c7.9,2.5,16.3,3.4,24.5,2.8c11.3-0.8,23.1-3.1,32.6-9.3c6.5-4.2,14.9-17.7,14.9-17.7c-1.1-2.8,2.3-13.2-5.3-18
	C101.6,98.2,79.3,86.9,65.3,86.4L65.3,86.4z M67,95.1c12.4-0.3,23.9,4.8,25,16.3c1.4,14.6-15.8,17.7-31.2,20
	c-11.5,1.7-37.1-2.5-38.3-6.5c-2.3-8.4,18.3-27,36.3-28.7C59.6,96.2,66.1,95.1,67,95.1L67,95.1z"/>
<path style="fill:none;stroke:#000000;stroke-width:2;" d="M168.2,83c-3.4,2.8-5.3,8.7-4.5,13.2c1.1,5.9,7,9.8,11.5,13.8
	c5.3,4.5,11.5,10.1,18.6,11.5c3.1,0.6,8.4,0.6,10.4-2c3.1-4.2,0-12.7-2-17.2c-2.8-6.5-7.9-11.5-13.2-16c-2.5,1.1-7.3-3.7-7.3-3.9
	c0,0-2.3-1.4-3.4-1.4C175,80.2,170.5,81,168.2,83L168.2,83z"/>
<path style="fill:none;stroke:#000000;stroke-width:2;" d="M142.3,88.6c1.7-2.8,6.2-5.1,12.9-5.3c1.7,0,3.7,0.3,5.3,0.6
	c7,1.4,6.8,4.8,8.7,8.2c1.1,2.3,1.4,4.5,1.1,9c-0.3,1.1-0.8,2.3-2.3,3.9c-5.3,4.5-11,5.6-16.3,5.9L142.3,88.6z"/>
<path style="fill:none;stroke:#000000;stroke-width:2;" d="M100.1,97.9c0,0,15.2-9.6,23.6-11.8c5.6-1.7,17.4-1.7,17.4-1.7
	c2.5,0.3,4.5,2.3,6.5,4.2c4.8,5.3,5.9,11.3,5.3,17.2c0.3,5.1-2.5,7.3-4.8,9.8l-16,11.3c-5.1,2.8-7.6,1.7-10.7,1.4
	C110.3,122.4,95.6,101.8,100.1,97.9L100.1,97.9z"/>
<path style="fill:none;stroke:#000000;stroke-width:2;stroke-linejoin:round;" d="M197.2,94c2.8,2.5,5.3,3.4,20,10.1
	c5.1,2.3,10.4,3.1,11.8,2.3c5.6-3.1,5.3-7.9,8.2-11.8c0.3,5.1,3.9,4.2,9.6,0.8c-4.5,5.1-8.7,11-14.9,14.9c-1.1,0.8-6.8,1.4-10.4,0.6
	c-5.9-1.4-12.1-3.9-19.4-9.3C200.9,99.9,199.5,96.2,197.2,94L197.2,94z"/>
<path style="fill:none;stroke:#000000;stroke-width:2;" d="M106.1,105.5c0,0-11.8-3.9-18.3-3.7c-13.2,0.6-17.7,7.3-17.7,7.3
	c-3.1,3.4,0.3,5.1,0.8,4.2c1.7-2,2.3-1.7,3.1-2c2,0.8,2.5,2,3.7,3.1l2-0.3l5.9-2.3c5.9-1.4,11.8,2.8,20,4.5
	C109.2,117,115.3,108.3,106.1,105.5L106.1,105.5z"/>
<path style="fill:none;" d="M87.5,101.8c-13.2,0.6-17.7,7.3-17.7,7.3c-3.1,3.4,0.3,5.1,0.8,4.2c1.7-2,2.3-1.7,3.1-2c0,0,0,0,0.3,0
	c0.6-1.1,7.3-5.9,13.8-5.1c10.7,1.4,20.8,7.3,21.4,7.9c2.3-2.8,2.8-7-3.1-9C105.8,105.5,94,101.6,87.5,101.8L87.5,101.8z"/>
<path style="fill:none;stroke:#000000;stroke-width:2;stroke-linejoin:bevel;" d="M70.3,113.1c0,0-1.4,6.5-2.5,9.3
	c-1.1,3.7-4.8,10.4-4.8,10.4c-0.3,1.7-1.4,3.7,1.1,5.1c1.4-0.8,2.8-0.8,3.9-0.6c1.7,1.1,3.1,1.4,3.9,6.8c1.4-0.6,1.4-2.5,1.7-4.5
	c0,0-1.1-12.7,0.6-18.8c0.6-2.5,3.4-6.8,3.4-6.8s-2-2.5-3.7-2.8C72.9,111.1,70.3,113.1,70.3,113.1z"/>
<path style="fill:none;stroke:#000000;stroke-width:2;stroke-linejoin:round;" d="M65,137.8c-0.3,4.8,0,13.2,0,20
	c-1.1,1.7-2.5,2.3-4.5,3.4L34,173l-9,1.7l6.8,2.8l0.6,3.4l3.7-4.2l12.4-6.5l16-6.2c2.3-0.8,3.4-3.1,4.8-5.1
	c3.1-4.8,2.8-11.3,2.8-16.3c0,0,0-4.2-3.4-5.3C67.2,137,65,137.8,65,137.8L65,137.8z"/>
<path style="fill:none;" d="M67.5,137.6c-1.1,0-2.5,0.6-2.5,0.6c-0.3,4.8,0,13.2,0,20c-1.1,1.7-2.5,2.3-4.5,3.4L34,173.3l-9,1.7
	l6.5,2.8c6.5-3.1,7.9-5.1,33.2-16c1.4-0.6,2.3-2,2.5-3.1c1.4-5.9,3.4-11.8,2.8-19.7c-0.6-0.6-1.1-0.8-1.7-1.1
	C68.4,137.6,67.8,137.6,67.5,137.6L67.5,137.6z"/>
<path style="fill:none;stroke:#000000;stroke-width:2;stroke-linejoin:round;" d="M114.2,104.4c-2.8,4.2-8.7,14.1-10.7,15.5
	l-5.3,2.8c-1.4,1.4-1.4,2-0.6,3.4c0,0,2.8-2.8,5.3-1.1c1.4,0.8,1.7,4.8,1.7,4.8c0.8,0,1.7,0.6,2.5-1.4l1.7-5.3c0.6-2,7-10.1,11-14.6
	C121.8,105.5,116.5,101.6,114.2,104.4L114.2,104.4z"/>
<path style="fill:none;" d="M116.5,103c-0.8,0-1.7,0.3-2.3,0.8c-2.8,4.2-8.7,14.1-10.7,15.5l-5.3,2.8c-1.4,1.4-1.4,2-0.6,3.4
	c0,0,2.8-2.8,5.3-1.1c0.6,0.3,0.8,0.8,1.1,1.7v-0.3c5.1-10.4,9.6-16,15.2-21.1C118.7,103.5,117.6,103,116.5,103L116.5,103z"/>
<path style="fill:none;stroke:#000000;stroke-width:2;" d="M101,123.8c-2.8,0-5.1,5.1-3.9,5.1c0,0,0.8,3.7,1.1,5.6
	c0.6,3.7,2,7,2,10.7c0,3.1-2.3,9-2.3,9c-0.3,1.7,3.4-0.8,5.1,0.3c1.7,0.8,1.7-0.6,1.4-2.3c0,0-1.4-12.7-0.6-19.1
	c0.3-2,1.7-4.8,1.7-4.8S104.9,123.8,101,123.8L101,123.8z"/>
<path style="fill:none;" d="M100.7,123.5c-2.8,0-5.1,5.1-3.9,5.1c0,0,0.8,3.7,1.1,5.6c0.6,3.7,2,7,2,10.7c0,3.1-2.3,9-2.3,9
	c-0.3,1.7,2.5-0.3,4.5,0c-0.6-5.1-0.3-5.1-0.3-10.4c0-7-3.1-15.5,2.3-18.6C103.2,124.6,101.6,123.5,100.7,123.5L100.7,123.5z"/>
<path style="fill:none;stroke:#000000;stroke-width:2;stroke-linejoin:round;" d="M98.5,155.3c0,0-4.5,11.3-8.4,15.5
	c-2.5,2.8-9,6.8-9,6.8c3.4,0.6,5.1,1.7,7,0.6l1.4,7.3c1.7-4.2,2-7.9,4.5-11.8c1.7-2.5,3.9-6.5,5.6-9.3c2-3.1,3.9-9,3.9-9
	C101.3,152.5,99.9,153.9,98.5,155.3L98.5,155.3z"/>
<path style="fill:none;" d="M101,153.3c-1.1-0.3-2,0.8-2.8,1.7c0,0-4.5,11.3-8.4,15.5c-2.5,2.8-9,6.8-9,6.8c3.4,0.6,5.1,1.4,7,0.6
	l0,0c5.9-6.8,10.7-14.6,14.1-23.6l0,0C101.6,153.6,101.3,153.3,101,153.3L101,153.3z"/>
<path style="fill:none;stroke:#000000;stroke-width:2;stroke-linejoin:round;" d="M135.3,102.4c-2.3-0.8-4.5,0.3-6.5,2.8
	c-2.8,3.7-1.4,6.8-0.3,9.8c1.1,1.4,2.3,2,3.7,1.7c3.7,0.6,7.3,1.1,11,2.5l4.5,4.2c1.1,2.8,2.8-1.1,3.7-1.7c1.1-0.6,1.4-1.1,3.1-0.6
	c-0.8-4.5-3.1-6.2-7.3-7.9c-3.4-1.4-7-2-10.1-1.1c0,0,1.1-3.4,0.8-5.1C137.6,105.8,137.3,103.2,135.3,102.4L135.3,102.4z"/>
<path style="fill:none;stroke:#000000;stroke-width:2;stroke-linejoin:round;" d="M149.4,124.6c0,0,3.1,12.4,5.9,18.6
	c1.7,3.9,4.8,7,6.8,11c1.4,2.8,2.8,9.3,2.8,9.3c1.7-2,3.7-2,5.6-1.4c0,0-8.4-13.2-11.3-20.5c-2.5-6.5-5.1-20-5.1-20
	C151.9,120.4,149.9,122.4,149.4,124.6z"/>
<path style="fill:none;stroke:#000000;stroke-width:2;stroke-linejoin:round;" d="M166,162.9c2,3.1,4.5,5.6,9,7l12.9,5.6l7,9
	c0,0-1.1-7.3-0.3-7.3c2.3-0.8,6.5,2.5,6.5,2.5c0.3-0.3-5.3-7-9-8.2c-0.6-0.3-10.7-2.8-15.8-5.3c-2.5-1.1-6.8-4.2-6.8-4.2
	C167.9,160.9,166,162,166,162.9L166,162.9z"/>
<path style="fill:none;stroke:#000000;stroke-width:2;" d="M182.9,91.1c-3.7,2.3-3.4,9.8-1.4,13.5c2,3.9,8.4,8.7,12.4,6.8
	c3.9-2,4.2-10.7,2-14.6C193.5,92.8,186.5,88.9,182.9,91.1L182.9,91.1z"/>
<path style="fill:none;" d="M182.6,91.1c-3.7,2.3-3.4,9.8-1.4,13.5c2,3.9,8.4,8.7,12.4,6.8c3.9-2,4.2-10.7,2-14.6
	C193.3,93.1,186.5,88.9,182.6,91.1L182.6,91.1z"/>
<path style="fill:none;stroke:#000000;stroke-width:2;" d="M187.4,92.8c-2.3,0-3.4,3.9-3.4,6.2c0,2.3,0.8,3.9,3.1,4.2
	c2.3,0.3,3.1-2.5,3.7-4.8C192.1,95.1,190.2,92.6,187.4,92.8z"/>
<path style="fill:none;" d="M113.7,123.5c0,0-0.3,8.2,0.6,12.1c0.6,3.4,2.5,7.3,2.3,11.3c-0.3,3.1-3.1,8.2-3.1,8.2l3.9-0.8v6.8
	c0,0,2.8-5.1,3.7-8.2c0.6-2.3,0.6-5.9,0.3-8.2c-0.3-3.4-2.3-5.9-2.8-9.6c-0.6-5.1-1.1-14.9-1.1-14.9L113.7,123.5z"/>
<path style="fill:none;" d="M47.5,142.3c0,0-3.4,3.7-5.3,5.1c-2.8,2-5.3,3.4-8.4,4.8c-2.5,1.1-3.9,2-7.9,2.5
	c-3.7,0.6-7.3-0.3-11,2.5c2,0.6,4.5,0.6,5.6,1.7l-2.3,6.8c0,0,9.6-6.2,14.6-9c4.2-2.3,9.6-4.5,11.8-5.9c2.8-2,5.3-5.3,7.3-7.9
	L47.5,142.3z"/>
<path style="fill:none;" d="M74,111.4c-1.4-0.3-3.9,1.7-3.9,1.7s-1.4,6.5-2.5,9.3c-1.1,3.7-4.8,10.4-4.8,10.4
	c-0.3,1.7-1.4,3.7,1.1,5.1c1.4-0.8,2.8-0.8,3.9-0.6c0.3,0.3,0.8,0.6,1.1,0.8c-0.3-10.4,1.4-20,6.5-25.9l0,0
	C75.4,112,74.5,111.4,74,111.4L74,111.4z"/>
<path style="fill:none;" d="M135.3,102.4c-2.3-0.8-4.5,0.3-6.5,2.8c-2.8,3.7-1.4,6.8-0.3,9.8c1.1,1.4,2.3,2,3.7,1.7
	c7.3-1.4,10.1-1.7,12.7-0.8c2.5,0.8,7.6,4.8,9.6,5.3c-0.8-4.5-3.1-6.2-7.3-7.9c-3.4-1.4-7-2-10.1-1.1c-1.7,0.8-5.6-1.1-3.7-3.9
	C134.5,106.9,137,103,135.3,102.4L135.3,102.4z"/>
<path style="fill:none;" d="M153.3,120.4c-0.6,0-1.1,0-1.7,0.3c0.3,0.8,2.5,12.7,4.5,18.3c2.5,7.3,8.4,15.8,10.4,21.7v1.4
	c1.1-0.6,2.5-1.7,3.7-1.4c0,0-8.4-13.2-11.3-20.5c-2.5-6.5-5.1-20-5.1-20C153.6,120.4,153.3,120.4,153.3,120.4L153.3,120.4z"/>
<path style="fill:none;" d="M168.2,161.8c-0.6,0-1.1,0-1.7,0.3c0.6,0.6,4.2,3.9,6.8,5.3c5.3,2.8,14.1,5.1,16.3,6.8
	c2,1.4-0.3,3.7,4.5,7c0-1.4,0.3-3.7,0.6-3.7c2.3-0.8,6.5,2.5,6.5,2.5c0.3-0.3-5.3-7-9-8.2c-0.6-0.3-10.7-2.8-15.8-5.3
	c-2.5-1.1-6.8-4.2-6.8-4.2C169.1,161.8,168.8,161.8,168.2,161.8L168.2,161.8z"/>
</svg>
