<?xml version="1.0" encoding="utf-8"?>
<!-- Generator: Adobe Illustrator 17.0.0, SVG Export Plug-In . SVG Version: 6.00 Build 0)  -->
<!DOCTYPE svg PUBLIC "-//W3C//DTD SVG 1.1//EN" "http://www.w3.org/Graphics/SVG/1.1/DTD/svg11.dtd" [
	<!ENTITY ns_flows "http://ns.adobe.com/Flows/1.0/">
	<!ENTITY ns_extend "http://ns.adobe.com/Extensibility/1.0/">
	<!ENTITY ns_ai "http://ns.adobe.com/AdobeIllustrator/10.0/">
	<!ENTITY ns_graphs "http://ns.adobe.com/Graphs/1.0/">
]>
<svg version="1.1"
	 id="svg2" xmlns:x="&ns_extend;" xmlns:i="&ns_ai;" xmlns:graph="&ns_graphs;" xmlns:rdf="http://www.w3.org/1999/02/22-rdf-syntax-ns#" xmlns:cc="http://creativecommons.org/ns#" xmlns:dc="http://purl.org/dc/elements/1.1/" xmlns:svg="http://www.w3.org/2000/svg"
	 xmlns="http://www.w3.org/2000/svg" xmlns:xlink="http://www.w3.org/1999/xlink" xmlns:a="http://ns.adobe.com/AdobeSVGViewerExtensions/3.0/"
	 x="0px" y="0px" width="256px" height="256px" viewBox="0 0 256 256" style="enable-background:new 0 0 256 256;"
	 xml:space="preserve">
<path id="path24" style="fill:none;stroke:#000000;stroke-miterlimit:10;" d="M169.1,54c-7.3,2.7-21.6-0.1-25.7,5
	c0.9,3,3.9,5.8,5.6,9.6c1.4,3.3,3.8,7.6,4,10.8c0.1,1.6-0.8,3.6-1.1,5.6c-1,5.6-2.1,10.1-7.6,11.1c-2.7,0.4-5.7-1.3-9,0.3
	c2.1,2.7,5.9,4.6,7,8.5c1.1,3.8-0.5,7.9-1.4,11.7c4-1,6.6-6.2,10.2-8.8c1.2-2.4,2.4-4.6,4.3-7c1.4-1.9,4.6-3.9,5.3-6.1
	c1.6-5-0.2-16.2,0.6-21.5c0.2-1.2,0.8-3.1,2.4-3.5c1.8,2.1-1.4,3.9-1.1,6.4c2.6-0.4,3.3-3.6,4.3-5.6c1.1-2.1,2.5-3.8,3.8-5.8
	c0.8-1.3,1.1-3.1,2.1-4.3c1.9-2.7,4.4-4.6,5.8-8.2c1.1-0.4,0.6,0.7,1.1,0.8c0.7-0.5-0.3-2.8,0.8-2.9c0.8-0.8,3.3,1.4,4.7,2.1
	c-3.9,2.5-6.4,6.2-9.3,10.4c-1.8,2.6-2.7,4.9-4.7,7.9c-1.4,2.2-3.7,3.9-4.7,5.8c-3.1,6.3-0.9,14.1-3.5,21.8
	c-1.4,4.2-6.4,10.7-9.6,13.7c-4.7,4.3-9.9,7.6-14,12.2c0.1,4.8,0.5,9.1,2.1,12.5c7.1,2.9,12.4-4.2,20.1-2.6
	c3.8-2.8,14.7-3.8,18.6-1.1c5.4,9.7,9.6,20.5,11.9,33.2c3.8,3.3,8.7,5.7,12.2,9.3c0.4,0.5,0.7,0.9,0.6,2.1c7.6,2.9,12.1,8.9,15.4,16
	c-1.6,0.3-2.7-1.1-4.3,0.3c0.2-1.3-1.6-2.6-0.8-5.3c-3.9-2.2-7.6-4.6-9.6-8.5c-6-1.6-9.3-5.8-13.1-9.6c-0.8-0.8-2.2-1.3-2.6-2.6
	c-0.2-0.6-2,1.7-2.4,0c-3.8-10.7-5.5-23.5-10.2-33.2c-1.1,2.6-3.7,1.6-6.4,2.1c-3.3,0.6-6.2,3.4-9,3.8c-3.3,0.5-6.5-0.9-9.6-0.3
	c-3.1,0.6-4.4,3.1-7.6,3.2c-0.1,1.4,0.8,2.7-0.3,3.5c-4.4-0.5-4.2-5.6-8.8-6.1c-0.2,4.3,4.6,3.8,4.3,8.2c0.8,0.4,1.8,0.8,3.2,0.6
	c11.8,7.4,28.2,10.2,37.5,20.1c0.4,4.9,2,9.3,2.4,14.3c0.5,7.6-1.6,16.7,0.3,23.1c0.6,2.3,3.4,7.6,5,10.2c0.6,1,1.8,1.9,2.4,2.9
	c1.4,2.7,1.2,5.5,2.9,7.6c2.4,3,4.1,8.9,5,13.4c-1.3,1.1-2.3,2.6-4.3,2.9c-0.8-1.8,0.9-2.2,0.8-4c-0.1-2.9-5.3-11.4-7-14.6
	c-2.7-5-5.3-9.9-6.7-14.6c-0.5-1.7-2.8-3.3-3.5-5c-1.6-3.4-0.1-7.9,0.3-10.8c0.4-3.4,0.2-8,0-11.7c-0.2-3.3,0.7-8.1,0.3-9.9
	c-1-3.7-11.5-6-15.4-7.2c-6.8-2.3-13.2-4.4-16.7-10.2c-2.2,1.7-4.6-0.2-7.6,0c-0.7,2.8,2.2,4.2,2.6,6.7c10,1.9,15.7,6.3,18.6,15.7
	c2.9,9.1,2.6,23.3-1.1,32.1c-1.1,2.6-3.1,5.5-4.7,8.2c-4.4,7.4-10.8,15.8-17.5,20.4c-5-0.4-7.3-3.5-11.4-5
	c-4.7-5.7-10.2-9.5-13.7-17.8c-1.7-3.9-4.2-8.4-5-11.9c-2.9-13.7-0.9-28.7,6.1-36.7c4.2-1.3,7.1-3.9,12.2-4.3
	c-0.6-3.5,1.3-4.6,1.1-7.6c-3.7-0.6-6.8,2.1-9.3,4c-2.6,2.1-5.2,4.3-7.9,6.1c-5.7,3.8-12.1,6.1-17.8,10.2c-0.4,8.1,0.2,15,1.4,21.8
	c0.9,5.3,3.9,9.8,1.1,15.1c-1.3,2.6-4.2,4.8-6.1,7.6c-1.9,2.7-3.8,5.9-5.3,8.5c-3.2,5.8-1.4,15.5-8.8,18.3c-0.8-1.4,0.7-2.3,1.1-3.5
	c2.3-6.9,2.9-16.3,8.8-20.1c0.1-1.2-1.4-0.9-1.1-2.4c1.9-4.2,7-6.3,7.6-11.7c0.4-3.5-2.1-8.9-2.6-14.3c-0.6-7-1.6-17.7,2.1-22.4
	c4.8-5.7,10.4-9.7,17.5-14c3.3-2,7.2-3.4,10.2-5.6c2.4-1.7,4-4.1,7.9-4.7c0.1-1.8,1-2.7,1.1-4.3c0.9-1,2.8-1.1,3.2-2.6
	c-4-1.2-5.4,5.1-9.3,5.8c-0.8-1.7,0.3-3.5,0.8-4.7c-1.2-0.3-1.4,0.5-2.4,0.6c-2.3-3.8-6.5-1.1-11.4-1.4c-6.6-0.4-13.4-6.6-17.5-0.6
	c0.1,5.6-3.4,9-4.7,13.1c-1.3,4.3,0,10.9-2.9,14c-7.1,5.4-12.9,12.1-20.7,16.9c-1.1,2.8-3.6,5.3-7.2,4.7c4.3-5.3,10.1-9.1,13.7-15.1
	c1.6-0.4,3.4-1.2,5-2.4c2.3-1.6,5.9-4.4,6.4-6.4c1.2-4.4-0.4-9.7,0.6-14.3c0.9-4.1,4.2-15.9,7.9-17.5c10.2-4.6,23.7,3.8,35.3,2.4
	c0.8-5.5,2.2-12.2-1.1-15.7c-10.6-2.4-16-9.7-20.2-19.4c-0.8-1.9-2.2-3.4-2.9-5.3c-2.6-6.2-2.8-13.4-3.2-21.5
	c-2.1-4.8-8-6.5-11.7-10.2c-1.9-1.9-3.1-4.6-5.3-6.4c-2.6-2.2-6.4-3.4-6.4-8.2c3.5-2.2,3.9,1.9,5.8,4c0.8,0.9,2.5,2.4,3.8,3.5
	c1.2,1.1,2.6,2.5,3.8,3.5c1.1,0.9,3.1,1.1,3.8,2.6c0.5,1,2.5,1.9,4,3.2c2,1.7,2.7,4.2,5,4.7c1.8-1.8-2.6-4.7-0.8-6.4
	c1.2,0.9,3,3.1,3.2,5c0.2,1.6-1,3-1.1,4.7c-0.7,6.9,3.2,15.4,2.6,22.8c7.3,5.2,11.3,13.8,17.8,19.9c0.2-4.4-0.4-11.1,1.1-14.9
	c1.4-2.7,5.6-2.8,7-5.6c-8.3,1.3-15.9-0.9-17.2-8.2c-0.2-1.3,0.3-3,0.3-4.7c-0.1-2.7-1-4.9-0.3-7.9c1.6-6,5.2-12.3,8.2-15.1
	c-6.6-7-26.9,1.3-29.7-8.8c-0.9-9.9-4.4-17.3-8.2-24.5c-2.2-4.1-5.5-8.3-5.6-13.4c2.9-0.7,4.8,2,5.8,3.8c3.5,6,6.2,15.8,9,23.9
	c1.3,3.9,2.6,6.3,2.6,11.1c9.4-0.5,21.3,1,28.2,5c1.3-2.2,1.7-5.4,3.2-7.2c3.5-2.9,6.8-5.8,11.1-1.4c1.2,1.2,2.2,3.7,2.4,5.3
	c2.8,1,6.2-0.1,10.4-1.1c3-0.7,5.9-1,8.5-1.4c3-0.5,5.8-1.6,9.6-1.1c1.1-6.7,2.5-16.4,6.4-22.8c0.5-4.6,1.8-8.4,4.3-10.8
	c0.2-3.9,2.8-5.6,4.3-8.2c1.7-1.1,3,0.5,2.9,2.6c0,1.4-2.3,4.1-3.5,6.1C175.4,27.6,170.5,39.9,169.1,54"/>
</svg>
