<?xml version="1.0" encoding="utf-8"?>
<!-- Generator: Adobe Illustrator 23.0.0, SVG Export Plug-In . SVG Version: 6.00 Build 0)  -->
<svg version="1.1" id="Layer_1" xmlns="http://www.w3.org/2000/svg" xmlns:xlink="http://www.w3.org/1999/xlink" x="0px" y="0px"
	 viewBox="0 0 256 256" style="enable-background:new 0 0 256 256;" xml:space="preserve">
<circle style="fill:#FFFFFF;stroke:#2E6634;stroke-width:5;stroke-linecap:round;stroke-linejoin:round;stroke-miterlimit:10;" cx="226.6" cy="210" r="23"/>
<path style="fill:#60D871;" d="M225.2,173.4l10.2-40.7L202,61.5l4.4-2.9L186,44H46.1c-7.3,0-14.3,2.9-19.4,8L18,60.7
	c-5.2,5.2-8,12.1-8,19.4L9.5,209.8l188.2,1.5c0,0,10.2-30.5,48-21.8C245.6,189.4,245.6,173.4,225.2,173.4z M84.2,192.3v-24.7
	c0,0-2.9-13.1-14.5-17.5l-1.2-49.3c-0.2-6.7,2.1-13.1,6.4-18.3h0c5-6.1,12.4-9.6,20.3-9.9l35.6-1v120.6H84.2z M172.9,192.3v-30.5
	h-33.4V71.5l45.1-1.3l6.4,74.9l-3.5,47.3H172.9z"/>
<path style="opacity:0.2;" d="M9.5,195.7h183.7c0,0,5.3-20.7,32.1-22.3l13.9,3.8l5.5,7.3l-2.4,4.2l-21.2,0.4l-13.2,7.6l-10.2,14.5
	L9.5,209.8L9.5,195.7z"/>
<path style="fill:none;stroke:#2E6634;stroke-width:5;stroke-linecap:round;stroke-linejoin:round;stroke-miterlimit:10;" d="
	M225.2,173.4l10.2-40.7L202,61.5l4.4-2.9L186,44H46.1c-7.3,0-14.3,2.9-19.4,8L18,60.7c-5.2,5.2-8,12.1-8,19.4L9.5,209.8l188.2,1.5
	c0,0,10.2-30.5,48-21.8C245.6,189.4,245.6,173.4,225.2,173.4z M84.2,192.3v-24.7c0,0-2.9-13.1-14.5-17.5l-1.2-49.3
	c-0.2-6.7,2.1-13.1,6.4-18.3h0c5-6.1,12.4-9.6,20.3-9.9l35.6-1v120.6H84.2z M172.9,192.3v-30.5h-33.4V71.5l45.1-1.3l6.4,74.9
	l-3.5,47.3H172.9z"/>
<circle style="fill:#FFFFFF;stroke:#2E6634;stroke-width:5;stroke-linecap:round;stroke-linejoin:round;stroke-miterlimit:10;" cx="43" cy="210" r="23"/>
</svg>
