<?xml version="1.0" encoding="utf-8"?>
<!-- Generator: Adobe Illustrator 22.1.0, SVG Export Plug-In . SVG Version: 6.00 Build 0)  -->
<svg version="1.1" id="Layer_1" xmlns="http://www.w3.org/2000/svg" xmlns:xlink="http://www.w3.org/1999/xlink" x="0px" y="0px"
	 viewBox="0 0 256 256" style="enable-background:new 0 0 256 256;" xml:space="preserve">
<path style="fill:#FFD060;" d="M204,77.5c-0.4,1.2-1.4,2-2.1,3.1c-13.5,22-96.1,73.3-105.5,73.4c0,0-52.1,6.6-79,0c0,0,0,0,0,0
	c0,0.1-1.4,20.1-1.4,20.1c0,0,0,0,0,0c0,0,25.8,24.6,61.3,27.9c55.7,6.3,93.7-21.9,93.7-21.9s37.1-23.8,42.2-68
	c3.2-28,5-32.7,10.2-42.3c0,0,0-0.1,0-0.1c-0.5-0.6-6.8-7.2-13.2-11.3C210.2,58.5,210.2,59.4,204,77.5z"/>
<path style="opacity:0.2;enable-background:new    ;" d="M18.3,169.1c0,0,40,27.5,77.1,25.6c28.8-1.5,59.7-12.8,80.9-28.1
	c10.6-7.6,18.7-18.1,23.9-30.1c9.4-21.7,12.4-42.4,12.4-42.4l1.2-3.7l-0.5,18.9l-1.9,18.3l-12.4,25.9L188,167.6l-28.6,17.6
	l-24.3,12.2l-36.8,6l-23.6-2l-22.1-5.2l-21.8-12.8L17,173.1L18.3,169.1z"/>
<path style="fill:none;stroke:#886B31;stroke-width:5;stroke-linecap:round;stroke-linejoin:round;stroke-miterlimit:10;" d="
	M208.2,58.2c0,0-1.8,7.2-3,12.8c-1.8,8.2-3.6,8-9.3,14.1c-22.4,24.4-51.2,43.3-71.7,55c-17.1,9.8-36.2,15.4-55.8,16.5
	c-15.9,0.9-35.5,0.8-50.8-2.6L16,174.2c0,0,25.8,24.6,61.3,27.9c55,7.6,93.7-21.9,93.7-21.9s41.1-23.5,42.2-68
	c0.8-34,6.6-35.3,13.1-44.5C226.5,67.7,214.9,62.5,208.2,58.2z"/>
</svg>
