<?xml version="1.0" encoding="utf-8"?>
<!-- Generator: Adobe Illustrator 22.1.0, SVG Export Plug-In . SVG Version: 6.00 Build 0)  -->
<svg version="1.1" xmlns="http://www.w3.org/2000/svg" xmlns:xlink="http://www.w3.org/1999/xlink" x="0px" y="0px"
	 viewBox="0 0 256 256" style="enable-background:new 0 0 256 256;" xml:space="preserve">
<g id="Layer_1">
	<g>
		<g>
			<path style="fill:#FFFFFF;" d="M205.7,246.4H51.1c0-14.5-5.1-35.9,2-43.5c11.9-12.8,26.7-16.8,47.8-20.4c0.5-0.1,1-0.2,1.3-0.4
				c4.3-1.3,7.4-5.4,7.4-9.8v-3.8c-17-7-28.9-23.6-28.9-43.1V123c-6.2-1.7-10.9-7.2-10.9-14c0-3.8,1.7-7.5,4.1-10
				c1.9-2,4.2-3.2,6.8-4V75.3c0-7.4,5.9-13.4,13.4-13.4h46.2c4.5,9,11.9,16.3,21,20.6c0.4,0.2,0.7,0.4,1.2,0.6
				c0.2,0.1,0.5,0.2,0.7,0.4c0.4,0.1,0.7,0.4,1.1,0.5c0.5,0.1,0.8,0.4,1.3,0.5c0.5,0.2,1,0.4,1.4,0.5c0.5,0.1,0.8,0.2,1.3,0.4
				c0.4,0.1,0.6,0.2,1,0.2c0.4,0.1,0.6,0.1,1,0.2c0.1,0,0.2,0,0.2,0.1c0.4,0.1,0.6,0.1,1,0.2c0.2,0.1,0.5,0.1,0.7,0.1
				c0.5,0.1,1,0.1,1.4,0.2v8.3c2.9,0.5,5.5,1.8,7.5,3.6c2.9,2.6,4.8,6.4,4.8,10.7c0,7.2-5.4,13.3-12.2,14.3v1.2
				c0,19.4-11.6,36.5-28.6,43.8v3.7c0,4.3,2.8,8.3,6.7,9.8c0.7,0.2,1.4,0.5,2.2,0.6c19.5,2.9,36.5,6.6,47.7,20.6
				C208.2,210.9,205.7,232.1,205.7,246.4z"/>
		</g>
		<g>
			<g>
				<path style="fill:#2E664C;" d="M181.1,57.2v41.2c-2-2-4.7-3.1-7.5-3.6v-8.2c-0.5-0.1-1-0.1-1.4-0.2c-0.2,0-0.5-0.1-0.7-0.1
					c-0.4-0.1-0.6-0.1-1-0.2c-0.1,0-0.2,0-0.2-0.1c-0.4-0.1-0.6-0.1-1-0.2s-0.6-0.1-1-0.2c-0.5-0.1-0.8-0.2-1.3-0.4
					c-0.5-0.1-1-0.4-1.4-0.5c-0.5-0.1-0.8-0.4-1.3-0.5c-0.4-0.1-0.7-0.2-1.1-0.5c-0.2-0.1-0.5-0.2-0.7-0.4c-0.4-0.1-0.8-0.4-1.2-0.6
					c-9.1-4.3-16.5-11.6-21-20.6H94.1c-7.4,0-13.4,5.9-13.4,13.4v19.6c-2.6,0.6-5,2-6.8,4V62.4c0-5.7,3.1-10.5,7.9-13.1
					c-12-19.5,2-41.9,28.5-41.9c27.9,0,67,21.1,70.9,48.5c0,0.2,0,0.5,0.1,0.7l0,0C181.1,56.8,181.1,57,181.1,57.2z"/>
			</g>
			<g>
				<circle style="fill:#2E664C;" cx="104.5" cy="104.7" r="5.4"/>
			</g>
			<g>
				<circle style="fill:#2E664C;" cx="150.9" cy="104.7" r="5.4"/>
			</g>
			<g style="opacity:0.1;">
				<path style="fill:#0C0C0C;" d="M126.5,145.5c-11.7,0-18.7-8.4-18.8-8.5c-0.5-0.6-0.5-1.7,0.2-2.2c0.6-0.5,1.7-0.5,2.2,0.2
					c0.6,0.7,14,16.4,35.3-0.2c0.6-0.5,1.7-0.4,2.2,0.2c0.5,0.6,0.4,1.7-0.2,2.2C139.3,143.4,132.4,145.5,126.5,145.5z"/>
			</g>
		</g>
		<path style="fill:#CCCCCC;" d="M206.8,246.7H51c0,0-4.8-36,2.8-47.6c7.6-11.6,49.9-19.1,49.9-19.1c2.1,17,24.1,16.8,24.1,16.8
			c25.5-1.7,25.4-16.7,25.5-16.8c0,0,2,0.5,2.2,0.6c0,0,5.3,0.9,13.4,3.3c2.7,0.8,5.7,1.8,8.9,3c3.4,1.2,7,2.7,10.7,4.4
			C212.8,202.5,206.8,246.7,206.8,246.7z"/>
		<path style="fill:#2E664C;" d="M183.2,226.9v19.8H71.3v-19.8l1.9-5c2.2-5.9,3.4-12.1,3.4-18.4l0.1-15v-1.4l0,0
			c1-0.4,2.1-0.8,3.2-1.1c1.3-0.4,2.7-0.8,4-1.2c0.1,0,0.1,0,0.2-0.1c0,0,0,0,0.1,0s0.3-0.1,0.4-0.1c0.2-0.1,0.5-0.1,0.7-0.2
			c0.1,0,0.2-0.1,0.3-0.1v14.3c0,22,17.9,39.9,39.9,39.9h3.5c22,0,39.9-17.9,39.9-39.9v-14.8c2.7,0.8,5.7,1.8,8.9,3v0.2l0.1,16.4
			c0,6.3,1.2,12.5,3.4,18.4L183.2,226.9z"/>
		<g>
			<path style="fill:none;stroke:#2E664C;stroke-width:5;stroke-miterlimit:10;" d="M205.7,246.4H51.1c0-14.5-5.1-35.9,2-43.5
				c11.9-12.8,26.7-16.8,47.8-20.4c0.5-0.1,1-0.2,1.3-0.4c4.3-1.3,7.4-5.4,7.4-9.8v-3.8c-17-7-28.9-23.6-28.9-43.1V123
				c-6.2-1.7-10.9-7.2-10.9-14c0-3.8,1.7-7.5,4.1-10c1.9-2,4.2-3.2,6.8-4V75.3c0-7.4,5.9-13.4,13.4-13.4h46.2
				c4.5,9,11.9,16.3,21,20.6c0.4,0.2,0.7,0.4,1.2,0.6c0.2,0.1,0.5,0.2,0.7,0.4c0.4,0.1,0.7,0.4,1.1,0.5c0.5,0.1,0.8,0.4,1.3,0.5
				c0.5,0.2,1,0.4,1.4,0.5c0.5,0.1,0.8,0.2,1.3,0.4c0.4,0.1,0.6,0.2,1,0.2c0.4,0.1,0.6,0.1,1,0.2c0.1,0,0.2,0,0.2,0.1
				c0.4,0.1,0.6,0.1,1,0.2c0.2,0.1,0.5,0.1,0.7,0.1c0.5,0.1,1,0.1,1.4,0.2v8.3c2.9,0.5,5.5,1.8,7.5,3.6c2.9,2.6,4.8,6.4,4.8,10.7
				c0,7.2-5.4,13.3-12.2,14.3v1.2c0,19.4-11.6,36.5-28.6,43.8v3.7c0,4.3,2.8,8.3,6.7,9.8c0.7,0.2,1.4,0.5,2.2,0.6
				c19.5,2.9,36.5,6.6,47.7,20.6C208.2,210.9,205.7,232.1,205.7,246.4z"/>
		</g>
		<g>
			<path style="fill:#60D8A4;" d="M52.9,174.8v2.4H37.3v3.8h15.6v2.4H37.3v4.2h15.6v2.4H37.3v3.8h15.6v2.4H37.3v4.5h15.6v2.4H37.3
				v3.8h15.6v2.4H37.3v3.8h15.6v2.4H37.3v3.8h15.6v2.4H37.3v4.5h15.6v2.4H37.3v3.8h15.6v2.4H37.3v3.8h15.6v2.4H37.3v6.2h16.9
				c5,0,9.1-4.1,9.1-9.1v-60.2c0-5-4.1-9.1-9.1-9.1H37.3v5.4h15.6V174.8z"/>
		</g>
		<g>
			<g>
				<path style="fill:#A5A5A5;" d="M212.7,218.9l-17.9-57l0,0c-5.4,1.7-7.8,9.5-5.3,17.4l9.8,36.5c1,3.7,4.8,5.8,8.4,4.6
					L212.7,218.9z"/>
			</g>
			<g>
				
					<rect x="207.4" y="213" transform="matrix(0.9541 -0.2996 0.2996 0.9541 -56.8304 73.234)" style="fill:#A5A5A5;" width="6.1" height="18"/>
			</g>
			<g>
				<path style="fill:#A5A5A5;" d="M213.2,222.1c1.8-2.2,4.2-3.9,7-4.8c3.7-1.2,7.7-0.8,11.2,1s6,4.9,7.2,8.6
					c1.2,3.7,0.8,7.7-1,11.2s-4.9,6-8.6,7.2l0,0c-3.7,1.2-7.7,0.8-11.2-1s-6-4.9-7.2-8.6c-1.2-3.7-0.8-7.7,1-11.2
					C212.1,223.7,212.6,222.8,213.2,222.1z M231.6,237c0.4-0.5,0.7-1,1-1.5c1.1-2.1,1.3-4.5,0.6-6.8s-2.3-4.1-4.4-5.2
					c-2.1-1.1-4.5-1.3-6.8-0.6s-4.1,2.3-5.2,4.4c-1.1,2.1-1.3,4.5-0.6,6.8s2.3,4.1,4.4,5.2c2.1,1.1,4.5,1.3,6.8,0.6
					C229,239.3,230.5,238.3,231.6,237z"/>
			</g>
		</g>
		<g>
			<g>
				<path style="fill:#898989;" d="M198,219.4l17.3-57.2l0,0c5.4,1.6,7.9,9.4,5.5,17.4l-9.6,37.7c-0.8,3.1-4,4.9-7,4L198,219.4z"/>
			</g>
			<g>
				
					<rect x="191.3" y="219.4" transform="matrix(0.2892 -0.9573 0.9573 0.2892 -70.5747 349.9193)" style="fill:#898989;" width="18" height="6.1"/>
			</g>
			<g>
				<path style="fill:#898989;" d="M174.8,222.9c3.6-4.5,9.8-6.6,15.7-4.9c7.8,2.3,12.2,10.6,9.8,18.3c-1.1,3.8-3.7,6.9-7.1,8.7
					c-3.5,1.9-7.4,2.3-11.2,1.1l0,0c-3.8-1.1-6.9-3.7-8.7-7.1c-1.9-3.5-2.3-7.4-1.1-11.2C172.7,226,173.6,224.3,174.8,222.9z
					 M193.2,237.7c0.7-0.9,1.3-1.9,1.6-3c1.4-4.7-1.3-9.7-6-11.1c-4.7-1.4-9.7,1.3-11.1,6c-0.7,2.3-0.4,4.7,0.7,6.8
					c1.1,2.1,3,3.6,5.3,4.3l0,0c2.3,0.7,4.7,0.4,6.8-0.7C191.5,239.4,192.4,238.6,193.2,237.7z"/>
			</g>
			<g>
				<circle style="fill:#262626;" cx="205.3" cy="213.1" r="2.1"/>
			</g>
		</g>
		<g>
			<g>
				<path style="fill:none;stroke:#2E664C;stroke-width:5;stroke-linecap:round;stroke-linejoin:round;stroke-miterlimit:10;" d="
					M238.6,226.9c-1.2-3.7-3.7-6.8-7.2-8.6s-7.5-2.2-11.2-1c-2.6,0.8-4.9,2.4-6.7,4.4l-0.9-2.8l-1-3.3l0-0.1l9.2-36
					c0.6-2.1,0.9-4.1,0.9-6.1c0-5.6-2.4-10.1-6.4-11.3l-10,33.1l-10.5-33.4c-4,1.2-6.3,5.7-6.3,11.2c0,2,0.3,4.1,1,6.2l9.7,36.1
					l0,0.1l-1.2,3.8l-0.9,2.8c-1.7-2-4-3.5-6.7-4.3c-5.9-1.7-12.1,0.4-15.7,4.9c-1.2,1.4-2.1,3.1-2.6,4.9c-1.2,3.8-0.8,7.7,1.1,11.2
					c0.9,1.7,2.1,3.2,3.6,4.4c1.5,1.2,3.2,2.1,5.1,2.7c3.8,1.2,7.7,0.8,11.2-1.1c3.4-1.8,6-4.9,7.1-8.7c0.5-1.7,0.7-3.5,0.6-5.2
					c0,0,0,0,0,0l3-9.9l0.3,0.1c1,0.3,1.9,0.3,2.8,0.1l2.9,9.2c-0.1,1.7,0.1,3.4,0.7,5.1c1.2,3.7,3.7,6.8,7.2,8.6
					c2.2,1.1,4.5,1.7,6.8,1.7c1.5,0,2.9-0.2,4.3-0.7c3.7-1.2,6.8-3.7,8.6-7.2C239.4,234.6,239.8,230.6,238.6,226.9z"/>
			</g>
		</g>
		<g>
			<path style="fill:none;stroke:#2E664C;stroke-width:5;stroke-miterlimit:10;" d="M37.3,247.3h16.9c5,0,9.1-4.1,9.1-9.1v-60.2
				c0-5-4.1-9.1-9.1-9.1H37.3V247.3z"/>
		</g>
	</g>
</g>
<g id="guidelines">
</g>
</svg>
