<?xml version="1.0" encoding="utf-8"?>
<!-- Generator: Adobe Illustrator 17.0.0, SVG Export Plug-In . SVG Version: 6.00 Build 0)  -->
<!DOCTYPE svg PUBLIC "-//W3C//DTD SVG 1.1//EN" "http://www.w3.org/Graphics/SVG/1.1/DTD/svg11.dtd" [
	<!ENTITY ns_flows "http://ns.adobe.com/Flows/1.0/">
	<!ENTITY ns_extend "http://ns.adobe.com/Extensibility/1.0/">
	<!ENTITY ns_ai "http://ns.adobe.com/AdobeIllustrator/10.0/">
	<!ENTITY ns_graphs "http://ns.adobe.com/Graphs/1.0/">
]>
<svg version="1.1" id="Layer_1" xmlns:x="&ns_extend;" xmlns:i="&ns_ai;" xmlns:graph="&ns_graphs;"
	 xmlns="http://www.w3.org/2000/svg" xmlns:xlink="http://www.w3.org/1999/xlink" xmlns:a="http://ns.adobe.com/AdobeSVGViewerExtensions/3.0/"
	 x="0px" y="0px" width="1026px" height="1280px" viewBox="0 0 1026 1280" style="enable-background:new 0 0 1026 1280;"
	 xml:space="preserve">
<g transform="translate(0.000000,1280.000000) scale(0.100000,-0.100000)">
	<path d="M7090,12797c-3-3-50-13-105-22c-100-17-193-46-230-71c-26-19-11-17,60,5c118,37,255,54,403,48c151-5,221-20,322-69
		c125-61,209-179,229-321c12-82,9-91-61-182c-62-81-108-115-155-115c-51,0-51,22,1,70c72,67,93,158,60,271c-37,128-147,230-247,229
		c-29,0-27-3,30-30c70-34,145-111,163-166c15-44,5-56-17-23c-43,62-117,118-201,150l-27,10l28-29c32-34,29-48-20-93
		c-47-44-69-50-181-51c-178,0-266,25-571,163c-214,98-278,113-461,107c-131-5-154-9-245-40c-99-33-259-120-323-175
		c-27-22-35-38-39-75c-12-108,54-205,197-288c104-59,100-56,88-92c-16-46-61-68-141-68c-67,0-296-54-593-140
		c-398-116-646-243-797-411c-143-156-239-485-172-585l20-29l12,132c13,147,48,268,84,293c55,39,69,59,69,99c0,31,7,49,31,76
		c61,69,400,276,566,345c108,45,233,76,488,120c155,27,278,55,378,86c149,47,199,52,275,29c16-6,22-3,22,8c0,31,76,32,200,1
		c14-3,0,8-30,26c-116,66-180,159-180,262c0,60,18,118,47,150c9,10,14,21,11,23c-10,10-83-81-110-136c-30-62-30-64,47-164
		c31-41,44-68,43-85c-3-23-7-25-49-24c-58,2-138,42-176,89c-27,33-31,34-59,23c-92-34-201,89-212,241c-6,86,2,95,128,145
		c52,20,104,46,116,57c26,24,54,19,54-10c0-18,3-18,60,5c90,37,162,47,295,41c149-6,217-28,171-54c-8-5,22-8,69-8c69,0,88-4,112-21
		c47-35,37-54-41-80c-204-69-288-214-227-389c17-47,20-50,61-57c97-17,120-71,84-198c-5-19,1-14,25,18c33,44,34,45,91,24
		c8-3,0,11-17,31c-52,59-40,137,20,137c20,0,19,2-8,18c-43,27-105,99-105,122c0,10,9,42,20,70c16,40,17,50,6,50c-19,0-33-49-41-143
		c-9-116-22-133-62-79c-54,73-68,147-39,216c52,124,274,215,455,187c95-15,141-34,141-60c0-17,10-21,68-27c87-11,227-11,274-1
		c55,11,97,51,104,98c4,26,12,39,22,39c26,0,98-85,116-136c39-116,0-254-66-229c-18,7-38,47-39,78c0,12-8-5-18-38
		c-30-103-87-166-164-182c-31-7-31-7-7-14c14-4,52-7,84-8c58-1,59-1,42,18c-10,11-16,28-14,38c11,55,479-26,764-133
		c129-47,327-146,434-215c124-80,276-206,371-306c85-90,84-76-3,34c-207,263-580,474-1053,598c-164,43-188,52-180,65
		c10,16,282,12,398-5c365-55,674-209,912-456c179-186,305-423,305-576c0-61-22-113-48-113c-27,0-222,62-427,135
		c-262,94-383,128-568,160c-37,6-38,5-32-17c18-57,65-126,138-199c72-72,83-90,137-208c134-296,245-615,305-876c38-169,45-165,15,10
		c-56,330-188,722-311,926c-27,45-86,121-133,169c-83,86-111,139-88,162c14,14,170-30,379-108c355-132,518-181,682-203l63-8l-6,41
		c-11,69-84,275-133,374c-229,467-630,747-1208,841c-66,11-159,23-208,27c-48,3-89,10-92,14s6,32,19,61c124,281-31,482-429,555
		C7241,12793,7099,12805,7090,12797z"/>
	<path d="M6964,12670c-40-4-80-13-90-19c-25-14-6-14,70,0c67,12,93,1,75-32c-9-18-5-19,103-18c100,1,109,2,76,13c-50,15-55,24-24,35
		c14,6,26,15,26,21C7200,12681,7074,12681,6964,12670z"/>
	<path d="M5746,12446c-58-60-58-121-1-211l26-40l-8,35c-14,63-9,172,10,209C5797,12487,5786,12490,5746,12446z"/>
	<path d="M6689,12300c-43-23-99-84-98-108c0-14,2-14,9,3c15,34,43,62,94,94C6749,12323,6746,12330,6689,12300z"/>
	<path d="M6748,12192c-30-33-55-84-74-150c-2-7-17-18-32-25l-29-12l22-36c21-33,29-37,97-48c168-30,393-101,548-173
		c145-67,323-185,433-287c70-65,57-32-19,49c-103,109-166,146-567,334c-76,35-98,49-95,63c4,22,82,63,123,64l30,1l-33,9
		c-18,6-35,16-38,24c-5,11-14,10-52-7c-109-47-231-31-292,38c-38,44-40,92-5,152c13,23,22,42,21,42
		C6784,12230,6767,12213,6748,12192z"/>
	<path d="M6075,11910c19-31-93-106-270-180c-158-66-229-118-91-66s413,214,408,241c-1,6-13,11-28,13
		C6076,11920,6070,11918,6075,11910z"/>
	<path d="M7787,11821c151-84,287-185,461-341c57-51,106-90,109-87s-55,66-128,140c-143,144-239,215-373,278
		C7741,11865,7698,11871,7787,11821z"/>
	<path d="M6734,11718c52-53,116-134,176-225c52-79,97-143,101-143c10,0-4,48-29,95c-11,22-53,86-94,141c-40,56-81,116-90,133
		c-16,29-57,54-125,75C6661,11798,6685,11767,6734,11718z"/>
	<path d="M5245,11718c-76-25-83-32-24-25c51,7,99,26,99,39C5320,11743,5315,11742,5245,11718z"/>
	<path d="M7709,11669c183-118,301-228,349-326c21-43,24-55,14-65s-74-13-250-13c-130,0-255-4-278-9l-40-8l-88,101
		c-149,171-353,340-431,356c-19,4,19-25,105-82c163-108,218-161,266-257c48-97,45-109-31-118c-96-12-91-29,6-20c109,9,627,9,746,0
		l92-8l-30,53c-121,204-303,380-457,440C7606,11743,7614,11731,7709,11669z"/>
	<path d="M6205,11653c-96-111-93-108-69-95c28,15,99,93,118,131c9,17,15,31,13,31S6237,11690,6205,11653z"/>
	<path d="M6601,11714c2-6,39-41,81-78c89-77,113-114,162-244c54-147,92-190,61-71c-39,150-147,299-279,385
		C6610,11716,6599,11720,6601,11714z"/>
	<path d="M8310,11657c8-7,53-45,100-84c85-71,222-208,314-313l48-55l-28,53c-67,128-250,315-372,380
		C8309,11672,8286,11679,8310,11657z"/>
	<path d="M6261,11582l-84-78l27-18c15-10,29-16,31-14c1,2,22,35,45,73c24,39,49,80,58,93c8,12,13,22,11,22S6307,11625,6261,11582z"
		/>
	<path d="M7310,11604c25-21,81-72,125-114c44-41,91-84,104-95l25-20l-21,34c-45,73-159,174-243,215
		C7266,11641,7267,11640,7310,11604z"/>
	<path d="M5845,11556c-38-18-78-42-88-53c-16-19-16-21,3-38c26-24,48-14,123,55C5970,11599,5959,11610,5845,11556z"/>
	<path d="M4845,11535c-229-131-369-290-410-467c-17-77-8-127,32-158c38-30,46-26,39,23c-20,131-19,143,8,202c58,127,178,265,328,376
		C4961,11599,4961,11601,4845,11535z"/>
	<path d="M6490,11541c0-19,131-273,138-267c12,12-33,140-67,194C6521,11529,6490,11561,6490,11541z"/>
	<path d="M4617,11476c-186-106-327-232-379-338c-57-116-62-273-10-324c16-17,17-13,24,72c10,120,24,175,65,263
		c43,91,155,208,283,295C4732,11535,4737,11544,4617,11476z"/>
	<path d="M5195,11458c-136-100-231-218-277-344c-27-76-38-244-16-244c8,0,22,8,32,18c13,16,16,37,14,118c-2,92,0,103,28,164
		c59,124,142,213,276,295c31,19,40,36,21,42C5269,11509,5234,11487,5195,11458z"/>
	<path d="M5068,11484c-16-8-28-17-28-19c0-7,60,17,66,26C5114,11504,5099,11501,5068,11484z"/>
	<path d="M6311,11451c-11-20-12-47-5-130c14-190,13-209-20-237c-66-57-100-9-101,142c0,56-3,100-7,98c-3-2-16-34-28-70
		c-22-65-23-131-5-191c6-20,0-25-46-46c-30-14-72-41-94-61l-40-37l43,21c129,63,502,190,556,190c51,0,116,18,116,31c0,6-8,8-17,5
		c-33-10-217-36-259-36c-64,0-68,11-74,189C6326,11459,6324,11472,6311,11451z"/>
	<path d="M5519,11424c-21-24-22-26-3-16c25,13,50,42,37,42C5548,11450,5533,11438,5519,11424z"/>
	<path d="M4827,11299c-92-105-121-208-76-270c11-16,23-29,27-29s7,37,7,83c0,78,2,86,47,175c27,50,46,92,44,92
		C4873,11350,4851,11327,4827,11299z"/>
	<path d="M5777,11221c-72-77-121-167-137-251c-10-51-9-56,11-73c36-29,125-50,167-39c25,7,30,10,15,11c-27,1-29,22-9,98
		c20,74,59,155,111,229c24,35,40,64,36,64c-22,0-79-85-136-205c-35-72-71-137-79-144c-22-18-42,0-57,49c-24,79,8,160,109,278
		C5871,11312,5854,11303,5777,11221z"/>
	<path d="M5316,11158c-66-136-80-259-34-304c11-12,14-3,16,57c2,76,20,167,53,267c12,35,19,66,16,69S5341,11210,5316,11158z"/>
	<path d="M5482,11177c-45-75-71-139-78-190c-7-46,8-108,29-126c10-7,13,11,13,82c0,81,5,104,37,187c20,52,35,96,33,97
		C5515,11228,5500,11206,5482,11177z"/>
	<path d="M7686,11132c-2-4,24-41,59-82s88-116,117-167c28-51,53-91,55-89c5,5-25,68-84,177c-33,61-50,103-47,116c4,15-1,23-23,31
		C7713,11137,7692,11141,7686,11132z"/>
	<path d="M5111,11091c-25-49-51-143-51-186c0-22,10-40,33-63c34-33,57-41,57-20c0,6-8,20-17,30c-24,26-28,127-10,208
		c9,36,14,66,12,68S5122,11114,5111,11091z"/>
	<path d="M5546,11064c-9-26-15-70-15-98l2-51l7,65c5,36,13,78,19,94c7,16,10,31,7,33C5564,11109,5555,11090,5546,11064z"/>
	<path d="M7300,11071c0-13,50-71,60-71c15,0-11,60-30,70C7307,11082,7300,11083,7300,11071z"/>
	<path d="M8110,11068c0-10,29-48,64-85c172-184,293-470,402-953c13-58,21-82,18-55c-9,87-74,354-116,474c-50,146-139,333-212,445
		C8198,10996,8111,11094,8110,11068z"/>
	<path d="M7180,11062c0-12,81-94,87-88c8,8-44,74-67,86C7189,11066,7180,11067,7180,11062z"/>
	<path d="M7614,10998c65-94,121-211,170-360c64-192,125-508,98-508c-11,0-28,42-111,270c-28,74-50,131-50,127c-1-4,12-53,29-107
		c16-55,45-166,64-248c18-81,39-167,45-192l10-45l-3,62c-2,34-2,64,1,67c12,12,42-16,57-54c16-41,23-190,9-203c-3-4-18,3-31,15
		c-23,22-24,22-19,3c3-11,11-62,18-113c6-51,15-95,19-97s10,23,13,56c8,90,29,101,48,25c11-41,3,44-22,254c-67,558-167,884-326,1060
		c-24,27-49,50-54,50C7575,11060,7590,11032,7614,10998z"/>
	<path d="M7070,11014c0-3,19-38,43-77c111-185,202-473,267-852c84-493,115-1110,70-1425c-20-141-19-204,5-237c22-29,28,162,22,622
		c-6,418-13,552-42,820c-52,471-164,862-314,1102C7098,11004,7070,11030,7070,11014z"/>
	<path d="M6840,10997c0-15,55-69,87-86c22-11,53-6,53,9c0,5-21,27-46,49C6888,11009,6840,11023,6840,10997z"/>
	<path d="M6510,10936c0-3,29-47,64-99c74-109,131-221,186-367c49-130,51-119,5,27c-39,124-120,312-159,369
		C6577,10909,6510,10958,6510,10936z"/>
	<path d="M8070,10925c0-2,14-26,30-52c17-26,30-44,30-41c0,18-41,98-50,98C8075,10930,8070,10928,8070,10925z"/>
	<path d="M6720,10905c0-3,18-41,40-84c108-216,186-538,225-931c21-213,32-679,15-664c-6,7-21,81-31,165c-11,84-22,156-25,159
		s-4-53-2-125c3-129,4-131,48-230l44-100l6-162c3-89,8-165,13-169c20-20-13,753-49,1146c-42,465-115,763-230,936
		C6740,10896,6720,10919,6720,10905z"/>
	<path d="M7970,10909c0-4,22-53,49-110c140-295,221-654,281-1253c24-241,25-357,4-502c-16-112-14-185,8-245l13-34l6,55
		c17,141,4,566-27,850c-50,470-214,1120-305,1215C7983,10901,7970,10912,7970,10909z"/>
	<path d="M8691,10869c59-73,105-157,167-300c32-74,64-144,71-155c29-45-2,45-50,146c-50,107-58,143-38,156c7,4-2,12-22,18
		c-34,12-36,15-23,69c4,18,2,27-6,27c-7,0-33,15-59,33C8657,10916,8653,10916,8691,10869z"/>
	<path d="M7310,10883c0-6,15-65,34-130c109-378,173-811,226-1518l18-240l1,130c3,440-103,1203-230,1645
		C7332,10864,7310,10915,7310,10883z"/>
	<path d="M8890,10884c0-13,58-69,65-63c2,3-11,21-30,39C8906,10879,8890,10889,8890,10884z"/>
	<path d="M6311,10793c7-20,150-185,156-179c8,8-52,97-89,132C6329,10791,6306,10807,6311,10793z"/>
	<path d="M6120,10781c0-10,47-68,194-242c44-52,88-109,99-127c30-51,31-30,1,30c-40,80-101,166-163,232
		C6186,10742,6120,10796,6120,10781z"/>
	<path d="M6566,10700c20-41,54-120,75-175c42-110,53-109,15,1c-25,74-84,196-111,229C6536,10766,6546,10741,6566,10700z"/>
	<path d="M9514,10723c484-639,693-1325,673-2208c-9-384-56-745-192-1475c-135-724-179-1008-225-1470c-42-415-46-501-27-640
		c26-195,29-233,18-302c-13-81-45-158-65-158c-8,0-28,28-45,63l-30,62l-1-58c0-61-23-121-43-115c-38,12-67,135-67,282
		c-1,148-17,293-40,361l-21,60l6-130c9-216,66-639,88-662c4-3,18-1,32,5c35,16,64,15,71-3c5-12,13-9,40,15c19,16,38,30,43,30
		c19,0,28-30,40-125c7-55,33-194,56-310c58-279,79-384,110-543c45-235,99-362,173-405l32-19v35c0,22-15,63-40,109
		c-109,202-109,202-119,343c-7,121-12,142-65,295c-62,182-84,306-107,618c-16,228-7,692,20,947c11,110,34,368,51,574
		c55,682,89,904,178,1181c31,94,58,206,71,285c90,565,148,1273,123,1520c-7,60-17,170-23,243c-19,235-31,275-266,882
		c-69,180-135,312-253,511c-94,158-134,210-182,235C9481,10781,9477,10771,9514,10723z"/>
	<path d="M9210,10743c0-8,22-45,49-82c150-203,321-493,403-683c23-53,44-95,46-94c2,2-15,50-38,107c-77,195-230,471-378,681
		C9237,10749,9210,10773,9210,10743z"/>
	<path d="M6020,10735c0-5,193-230,223-260c5-5-17,31-51,80c-33,50-68,107-78,128c-11,23-25,37-37,37c-10,0-27,5-38,10
		C6029,10736,6020,10738,6020,10735z"/>
	<path d="M9370,10724c0-12,110-200,253-431c212-342,292-512,381-809c3-10,3,5,0,34c-12,126-88,325-196,513c-290,502-349,599-412,674
		C9382,10722,9371,10730,9370,10724z"/>
	<path d="M4026,10613c-161-246-282-531-347-818c-19-85-23-131-24-315c-1-118-5-228-8-245c-3-16-20-94-37-172c-50-235-39-327,68-558
		c78-169,96-230,96-335l1-85l-128-210c-210-346-297-448-482-574c-244-165-296-235-265-352c20-74,92-133,271-224
		c168-85,217-115,268-166c77-78,89-163,41-284c-31-78-38-125-19-125c21,0,75,67,87,107c18,62,15,198-7,278c-28,99-40,108-335,244
		c-60,28-129,68-154,88c-48,39-102,116-102,144c0,10,57,70,128,135c208,194,390,374,457,454c155,186,255,383,305,606
		c11,50,10,52-56,215c-139,342-164,405-164,423c0,11,11,42,24,70c44,92,56,183,66,476c5,169,15,305,24,354c43,222,117,420,275,733
		c55,112,101,210,101,218C4110,10728,4086,10705,4026,10613z"/>
	<path d="M9197,10648c103-176,203-422,272-668c51-186,53-157,2,43c-64,250-144,447-245,602c-31,47-58,85-60,85
		C9163,10710,9177,10682,9197,10648z"/>
	<path d="M7025,10566c136-562,162-1373,64-1985c-10-68-17-126-14-129c2-3,14,15,25,40c27,62,59,335,68,591c16,455-22,1056-87,1382
		c-18,89-57,195-71,195C7006,10660,7013,10618,7025,10566z"/>
	<path d="M5827,10643c-14-14-5-23,65-69c126-81,232-202,307-352c30-60,91-228,91-251c0-35-39,5-132,137c-99,138-194,243-245,271
		c-13,6-23,9-23,6c0-4,44-56,98-116c203-230,323-422,372-599c23-81,40-290,23-290c-14,0-40,60-94,218c-57,165-66,185-126,269
		c-39,56-103,113-126,113c-4,0,17-32,46-70c277-364,367-896,267-1577c-29-193-56-318-111-502c-88-293-100-652-38-1090
		c28-201,52-296,108-430c66-158,77-196,101-346c12-71,41-236,65-366c109-588,136-806,136-1109c0-171-2-206-15-215c-8-6-72-22-143-34
		c-370-66-697-146-1548-378l-610-166l-85,16c-213,42-441,57-873,57h-267l-11,27c-20,54-49,260-60,426l-10,170l-54,111
		c-128,267-181,530-172,842c6,227,11,242,87,294c94,64,76,88-35,47c-52-20-67-40-100-139c-23-69-29-105-33-208c-6-194,8-251,186-740
		c81-224,96-290,94-410c-2-75,4-137,20-218l23-113l-20-37c-12-21-32-41-47-46c-24-9-32-6-59,20c-73,69-103,155-130,369
		c-27,215-48,288-136,468c-57,115-98,221-168,433c-122,371-192,516-302,630l-39,40l-79-1c-76,0-79-1-98-30c-156-245-168-661-30-1075
		c35-106,144-333,150-313c2,5-14,66-36,134c-51,161-84,287-113,429c-19,96-22,147-22,310c0,169,3,205,22,273c26,94,75,197,108,228
		c29,27,34,24,118-86c81-105,104-142,165-264c67-133,91-193,232-590c119-333,163-473,193-606c20-91,41-288,33-309c-9-22-53-20-76,3
		c-27,27-41,83-41,161c0,41-5,73-14,86c-8,11-31,61-51,112c-20,50-44,97-52,104c-15,12-16,9-10-28c4-22,23-94,43-160
		c65-215,83-354,49-388c-38-38-173-48-240-17c-112,51-186,214-172,381c10,116,28,145,172,268c44,38,37,59-15,47
		c-79-17-157-131-220-318c-20-61-41-112-47-114s-51,74-101,169c-102,197-158,296-276,488c-46,74-127,209-181,300
		c-143,241-231,359-318,425c-146,109-301-96-301-400c0-86,5-126,23-185c57-184,181-400,398-692c79-106,93-130,87-152
		c-12-48,2-72,55-94c82-36,178-45,366-37c267,12,250,13,253-10c1-11-7-35-18-53c-46-74-168-94-444-72l-161,13l-57,43
		c-31,24-58,49-60,56c-3,8-17,7-53-5c-73-25-172-22-226,6c-68,36-80,99-22,113c15,4,59,2,98-5c56-9,78-9,101,0c28,12,27,13-33,20
		c-34,4-79,12-100,18c-72,20-118,14-152-20c-17-17-31-40-31-52c0-39,38-85,92-114c49-26,62-28,169-28c94,0,121-3,135-16
		c26-23,69-43,134-64c30-10,72-26,92-36c45-23,48-36,83-349c32-288,40-335,72-449l26-94l-29-24c-16-12-54-36-85-52
		c-82-45-136-101-96-101c12,0,32,12,150,93c49,32,80,34,115,7c29-24,36-19,54,35c8,25,25,48,47,62c38,26,31,28-34,11
		c-38-10-47-10-59,2c-14,15-58,144-77,229c-32,140-69,442-69,562c0,45,2,48,33,58c17,6,82,15,142,21c89,8,121,16,169,40
		c81,41,91,34,99-72c3-46,18-137,33-203s27-146,28-179l1-58l-52-14c-74-19-126-48-178-98c-62-59-61-96,6-174c31-34,37-70,17-90
		c-9-9-1-12,35-12c50,0,173-23,236-43l36-12l7-100c4-55,17-172,29-260c29-208,29-389,1-496c-28-105-63-177-193-404
		c-140-245-170-327-176-480c-3-60,2-199,11-307c9-109,16-205,16-214c0-29,49,24,55,60c3,17,2,134-3,260c-4,126-4,262,0,302
		c14,131,60,238,212,498c136,232,163,327,153,541c-3,66-19,201-36,300c-41,250-45,291-31,300c6,4,43,14,82,22s121,33,182,55
		c381,138,366,136,366,36c0-73,24-191,56-277c14-36,64-140,113-231c136-255,168-349,178-512c3-54,9-98,14-98c4,0,15,10,23,22
		c25,35,19,113-19,261c-39,150-42,185-19,194c31,12,93-73,124-172c16-51,61-135,72-135c4,0,8,26,8,58c0,90-41,164-143,255
		c-179,158-235,218-270,286c-54,102-86,235-102,418l-7,81l57,7c76,10,270-10,395-41c117-28,110-27,110-14c0,20-55,44-131,56
		c-43,7-91,19-106,26c-59,28-36,39,190,94c120,29,238,56,262,60l44,6l10-38c95-358,143-791,121-1107c-20-300-53-441-240-1041
		c-67-213-141-465-165-560c-46-181-80-355-70-364c3-3,17,1,31,8c48,26,73,88,114,282c115,542,170,763,261,1047
		c137,428,163,590,141,889c-16,204-32,314-93,616c-27,137-48,255-45,261c2,7,44,27,93,44c269,98,505,140,1116,201
		c166,16,335,34,376,39c40,5,80,7,87,4c16-6,74-119,74-144c0-10-5-29-11-43c-11-22-8-28,24-59c73-69,136-261,178-547
		c22-149,27-254,19-420c-4-83-2-100,14-125l20-30l9,30c17,55,13,438-7,562c-33,213-95,434-178,631c-22,53-43,109-45,123
		c-5,26-2,27,59,38c282,48,571,81,726,81h122v-42c0-47-30-121-62-155c-15-16-22-37-23-75c-1-44-12-74-63-172c-55-105-77-178-54-175
		c4,0,51,89,104,197c95,192,118,258,118,342c0,57,19,99,51,116c16,8,34,12,39,9c19-12,11-150-15-246c-28-109-99-307-156-432
		c-21-48-39-96-39-106c0-43,20-26,68,57c108,188,122,231,142,427c18,179,48,258,110,290c64,33,71,16,44-102c-64-283-123-484-184-632
		l-30-75l26,25c36,33,87,137,117,239c43,142,105,411,112,484c10,99,48,133,119,106c22-8,26-16,26-52c0-122-84-498-155-693
		c-19-54-33-100-31-102c6-6,50,55,74,102c28,56,67,189,96,333c20,92,26,152,26,242c0,117,1,120,28,150c15,16,38,31,52,32
		c24,3,25,1,28-65l3-68l32,63c50,98,116,106,118,14l1-41l9,45c18,91,78,108,81,23c7-237-34-510-111-737c-17-50-31-92-31-94
		c0-12,34,26,56,63c54,93,83,235,104,515c11,151,28,282,38,296c10,13,80,44,100,44c28,0,42-21,42-62c0-21,5-38,10-38c6,0,10,6,10,14
		c0,22,50,76,70,76c21,0,30-19,30-63c0-54,15-62,30-18c7,22,26,55,41,73l29,33l19-25l20-25l26,27c31,34,89,46,124,27
		c49-27,43-102-40-554c-49-269-69-415-55-415c5,0,21,9,37,20c34,25,81,120,103,210c24,101,56,297,55,343c-1,58-6,39-37-130
		c-15-81-32-147-37-145c-18,4-10,279,14,467c13,99,27,184,32,189c14,15,29-6,43-59l12-48l13,40c18,56,53,98,74,90c10-4,17-16,17-28
		c0-19,3-17,23,12c12,18,34,39,47,46c31,16,77,17,86,1c4-6,11-70,15-142c12-219,21-316,29-311c4,2,10,29,14,59c15,128,46,135,65,13
		c6-39,20-143,31-230c22-177,43-270,74-337l21-45l3,34c5,51-16,189-50,336c-66,282-77,334-88,429c-10,79-10,119,0,198
		c7,54,11,100,9,102c-33,22-66,41-74,42c-5,1-15,2-21,3c-16,2-34,47-34,88c0,34,1,35,30,31c30-4,30-4,30,41c0,25-7,181-15,346
		c-23,468-29,900-16,1199c6,148,9,271,6,274c-24,24-28-44-30-565c-1-510-5-593-25-593c-14,0-20,63-30,284c-9,209,1,781,16,884
		c3,23,4,42,1,42s-20-21-38-46c-50-72-63-173-56-429c4-115,15-307,26-425s27-298,36-400c8-102,22-212,30-245c28-113,15-190-40-233
		c-38-30-69-28-84,4c-28,62-42,179-51,414c-9,226-21,345-36,359c-4,3-4-16,0-44c17-114,25-261,26-435c0-193,11-328,30-400l11-42
		l20,21c22,24,33,25,77,10c39-13,52-49,39-109c-12-57-23-70-59-70c-33,0-29-16,8-30c13-5,24-16,24-24c0-14-44-31-58-22
		c-4,2-86-4-182-15c-225-25-767-78-1320-129c-943-87-1536-154-2050-230l-195-28l-81,49c-203,123-260,132-864,149
		c-371,11-493,24-638,72c-98,33-187,82-177,98c15,24,465,11,1095-30c162-10,360-22,440-26s153-11,163-16s28-33,42-63
		c20-46,29-55,61-64c60-17,84,5,84,79c0,20,6,42,13,47c7,6,164,13,382,17c359,6,937,27,1315,46c479,25,587,31,607,36c22,4,23,4,3,24
		c-10,10-27,45-36,76l-16,57l-20-32c-27-42-53-40-81,7l-22,37l-3-42c-3-47-6-49-135-78c-136-31-278-45-578-56c-334-12-372-9-308,30
		c59,36,273,115,586,217c338,109,341,109,327,30c-11-72,5-33,31,75c16,63,28,149,32,217c3,62,10,115,14,118c4,2,14-6,21-18
		c9-16,13-72,13-185c0-179,15-198,23-27c12,267-37,665-173,1414c-36,195-75,418-88,495c-22,131-25,140-45,137c-18-3-24,7-46,77
		c-70,222-100,476-100,851c0,294,2,331,54,725c95,712,114,928,114,1275c0,393-34,621-129,861c-83,211-183,353-369,529
		C5866,10645,5843,10659,5827,10643z M1156,5288c101-75,171-162,289-358c93-154,115-186,186-270c25-30,60-87,77-127
		c16-40,75-149,131-243c114-191,177-316,187-368c6-31,3-39-24-63c-49-44-121-54-282-40c-74,7-146,18-159,24c-14,7-42,41-64,77
		s-92,139-157,230c-276,388-363,554-390,748c-22,158,38,334,134,393C1123,5315,1121,5315,1156,5288z M6610,4204c0-7-14-29-31-49
		c-25-28-48-40-118-61c-176-52-331-103-506-168c-333-123-551-181-777-205c-106-12-420-15-481-5c-41,7-45,24-6,35
		c785,221,1420,387,1734,453C6584,4237,6610,4237,6610,4204z M2160,3890c0-33,40-117,74-157c73-86,212-109,324-52c34,17,66,28,72,24
		c24-15,92-149,124-245c19-57,47-171,63-252c15-81,30-148,34-148s21,16,38,35c42,48,41,83-4,131c-22,23-35,46-33,58
		c3,19,10,21,64,21c58,0,65-3,120-46c92-72,92-72,191-54c49,8,147,30,218,49c72,18,200,52,285,74c178,46,314,70,417,74
		c118,5,110-17-32-86c-189-92-419-157-730-206c-168-26-324-65-400-99c-33-15-116-59-185-97c-222-124-316-158-457-171
		c-171-14-339,63-388,180c-22,52-2,96,57,131c88,51,133,44,88-14c-11-14-20-40-20-58c0-31,4-35,58-59c48-23,75-28,170-31
		c64-3,139,1,175,7c123,24,269,81,327,130c21,17,4,13-93-19c-176-59-396-93-429-68c-23,18-84,209-113,353c-37,186-48,287-49,455
		c-1,157,6,209,24,180C2156,3922,2160,3904,2160,3890z M8391,3611c9-43,0-73-20-69c-17,3-28,66-17,95C8363,3661,8384,3646,8391,3611
		z M2868,3545c1-11,5-31,9-45c5-24,6-24,18,10c9,29,17,36,43,38c76,8,124-55,137-180c6-59,5-68-9-68c-25,0-95,38-124,67
		c-22,22-26,23-34,9c-11-19-81-22-96-3c-10,13-32,105-32,137C2780,3559,2861,3591,2868,3545z M3528,3511c83-13,146-44,173-87
		c30-50,22-60-58-66c-37-3-122-22-188-42s-152-39-192-43c-84-7-100,2-135,72c-24,45-58,142-58,162c0,10,39,13,198,13
		C3376,3520,3493,3516,3528,3511z M3956,3489c37-10,45-15,42-33c-5-36-80-66-164-66c-66,0-72,2-82,25c-17,37-15,52,10,69
		C3789,3503,3890,3505,3956,3489z M2220,2990c0-35-33-56-73-46c-58,14-27,76,38,76C2217,3020,2220,3018,2220,2990z"/>
	<path d="M7144,10540c25-120,57-294,72-385c10-60,20-102,22-93c10,52-61,444-90,488C7141,10561,7140,10559,7144,10540z"/>
	<path d="M8960,10549c0-4,15-40,34-81c18-41,50-119,71-173c20-55,39-102,42-105c17-18-60,215-93,280
		C8991,10516,8961,10560,8960,10549z"/>
	<path d="M8024,10480c26-99,72-366,102-590c19-146,41-305,49-355l14-90l-5,105c-6,128-47,452-75,598c-23,123-78,344-86,352
		C8020,10503,8020,10494,8024,10480z"/>
	<path d="M9145,10475c4-11,22-60,41-108c62-162,120-382,175-667c47-242,49-250,43-126c-11,238-74,506-173,742
		C9188,10417,9123,10537,9145,10475z"/>
	<path d="M7571,10435c-1-5,17-91,38-190c48-217,83-415,112-630c25-180,31-512,15-820c-4-93-6-168-3-165c14,13,39,253,44,421
		c9,289-21,603-88,929C7646,10186,7573,10468,7571,10435z"/>
	<path d="M6560,10375c-1-18,53-245,58-241c2,3-6,50-18,106C6580,10337,6562,10396,6560,10375z"/>
	<path d="M8861,10265c-1-5,11-57,25-115s36-157,49-220c27-131,33-121,9,15C8921,10080,8863,10302,8861,10265z"/>
	<path d="M6496,10117c1-117,4-136,23-167c69-113,96-309,86-640c-11-331,12-506,72-561l26-24l-8,95c-5,52-9,239-10,415
		c-4,475-1,437-26,423c-30-19-45,8-53,95c-13,140-64,374-103,474C6498,10240,6495,10198,6496,10117z"/>
	<path d="M9010,10138c0-3,16-73,36-155c87-366,136-660,132-799c-3-79,0-96,15-111c18-17,18-15,12,77c-20,295-54,530-107,735
		C9064,10017,9010,10172,9010,10138z"/>
	<path d="M6641,9974c0-11,3-14,6-6c3,7,2,16-1,19C6643,9991,6640,9985,6641,9974z"/>
	<path d="M8602,9890c0-14,2-19,5-12c2,6,2,18,0,25C8604,9909,8602,9904,8602,9890z"/>
	<path d="M8612,9830c0-14,2-19,5-12c2,6,2,18,0,25C8614,9849,8612,9844,8612,9830z"/>
	<path d="M9512,9810c0-14,2-19,5-12c2,6,2,18,0,25C9514,9829,9512,9824,9512,9810z"/>
	<path d="M8962,9780c0-14,2-19,5-12c2,6,2,18,0,25C8964,9799,8962,9794,8962,9780z"/>
	<path d="M9521,9764c0-11,3-14,6-6c3,7,2,16-1,19C9523,9781,9520,9775,9521,9764z"/>
	<path d="M8466,9725c2-27,13-117,24-200c24-191,38-354,46-577c6-147,9-176,21-167c16,14,18,245,3,434c-12,143-49,371-80,485
		C8462,9768,8461,9770,8466,9725z"/>
	<path d="M8822,9735c0-16,2-22,5-12c2,9,2,23,0,30C8824,9759,8822,9752,8822,9735z"/>
	<path d="M6806,9570c3-80,9-172,14-205c6-42,8-10,4,110c-2,94-9,186-14,205C6803,9705,6802,9672,6806,9570z"/>
	<path d="M9250,9603c0-6,9-71,20-145c11-73,29-224,40-336c24-245,39-337,52-324c18,18,11,268-11,403C9326,9356,9250,9657,9250,9603z
		"/>
	<path d="M9790,9564c1-70,19-184,34-212l15-27l1,31c0,32-38,235-46,243C9792,9601,9790,9586,9790,9564z"/>
	<path d="M8987,9390c-6-101,1-172,21-192c9-9,7,71-7,222l-7,75L8987,9390z"/>
	<path d="M9574,9305c2-101,7-150,19-175c15-34,16-33,10,55c-3,50-12,128-19,175l-13,85L9574,9305z"/>
	<path d="M7311,9380c0-14,6-106,14-205c26-325,16-637-28-847c-17-77-5-89,23-25c36,81,52,512,29,784C7337,9231,7313,9418,7311,9380z
		"/>
	<path d="M7941,9269c-1-72,3-100,15-115c14-17,15-12,9,67C7956,9356,7942,9384,7941,9269z"/>
	<path d="M8656,9236c-9-125-4-224,13-266c12-30,13,164,2,300l-7,85L8656,9236z"/>
	<path d="M8023,9305c0-22,2-30,4-17c2,12,2,30,0,40C8024,9337,8022,9327,8023,9305z"/>
	<path d="M8827,9198c-10-40-17-89-17-108c0-38,14-68,23-52c8,11,22,232,15,232C8846,9270,8836,9237,8827,9198z"/>
	<path d="M8032,9230c0-19,2-27,5-17c2,9,2,25,0,35C8034,9257,8032,9249,8032,9230z"/>
	<path d="M4470,9190c-30-5-94-8-142-9c-76-1-90-4-105-22c-29-34-134-139-205-206c-50-46-70-72-78-103c-19-71-7-78,51-28
		c262,224,446,299,739,302l135,1l87-44c49-24,145-87,214-140c233-178,359-261,394-261c5,0,10,9,10,20c0,14-19,32-57,57
		c-32,20-101,72-153,115c-211,174-384,279-516,312C4778,9201,4573,9204,4470,9190z"/>
	<path d="M6967,8858c-4-122-14-226-35-353c-31-183-49-345-38-334c9,9,54,215,70,330c20,133,40,450,31,495
		C6982,9069,6972,9023,6967,8858z"/>
	<path d="M8046,8819c-10-50-7-76,9-89c12-10,15-7,20,17c4,15,8,34,11,41c5,16-13,62-25,62C8057,8850,8050,8836,8046,8819z"/>
	<path d="M6820,8631c0-21-14-148-30-282c-31-244-48-438-37-429c26,24,98,750,74,750C6823,8670,6820,8653,6820,8631z"/>
	<path d="M4454,8535c-59-102-67-195-34-409l20-130l-21-22c-11-12-48-35-82-50c-64-28-138-37-203-22c-28,6-33,4-52-31
		c-12-21-22-49-22-60c0-20,4-22,43-16c57,9,169-11,242-42c33-14,71-26,85-26c37,0,283,69,333,94c79,40,126,97,151,183
		c11,37,17,42,71,63c60,23,105,61,105,89c0,29-60,0-236-116c-114-75-171-95-245-87c-45,6-129,42-129,56c-17,384-16,434,10,502
		c24,64,24,69,5,69C4487,8580,4469,8560,4454,8535z"/>
	<path d="M6608,8530c-22-83-69-383-66-425l3-50l12,60c7,33,24,115,38,183c17,81,25,146,23,190C6616,8533,6613,8547,6608,8530z"/>
	<path d="M6680,8515c0-8,7-15,15-15s15,7,15,15s-7,15-15,15S6680,8523,6680,8515z"/>
	<path d="M8967,8298c-10-325-30-490-152-1213c-123-731-153-972-160-1265c-3-107-3-190-1-185c3,6,10,86,16,178c13,216,29,339,96,742
		c30,182,73,456,94,610c22,154,57,402,79,550c22,149,45,329,51,400c14,150,10,369-6,385C8976,8508,8971,8452,8967,8298z"/>
	<path d="M8036,8189c-3-17-6-46-6-64c0-52-36-245-90-481c-60-268-78-375-84-524c-6-133,3-103,29,91c9,70,39,236,66,370
		c99,481,124,639,102,639C8047,8220,8040,8206,8036,8189z"/>
	<path d="M9247,8068c-4-57-22-211-41-343c-42-295-49-351-42-344s39,206,81,509c40,291,39,280,22,280C9256,8170,9251,8144,9247,8068z
		"/>
	<path d="M9536,8125c-19-19-20-41-5-120c14-75-9-383-51-690c-47-341-101-955-98-1110c1-52,2-48,10,35c5,52,29,295,53,540
		c52,525,90,933,104,1120C9568,8146,9567,8156,9536,8125z"/>
	<path d="M9777,8083c-9-8-7-71,3-103c7-22,8-23,9-4c1,12,4,42,7,68C9802,8086,9795,8101,9777,8083z"/>
	<path d="M8365,8048c-75-439-168-1280-163-1473c1-71,3-55,23,215c28,376,78,765,140,1094c19,99,32,183,29,188
		C8383,8089,8371,8079,8365,8048z"/>
	<path d="M8547,7988c-23-50-34-100-57-257c-15-102-33-180-65-274c-65-191-86-358-105-827c-12-310-28-582-36-627c-4-24-2-33,7-33
		c7,0,23-9,34-20l22-21l7,158c13,287,36,508,91,878c107,717,111,749,99,865c-3,38,1,76,14,123C8578,8024,8573,8042,8547,7988z
		 M8494,7469c-1-53-11-111-38-205c-26-94-38-157-41-220c-3-90-14-113-36-73c-27,52,14,325,87,567c2,8,10,12,17,9
		C8491,7544,8495,7520,8494,7469z M8404,6914c19-19,19-24,2-46c-18-25-35-22-46,7C8342,6922,8371,6948,8404,6914z M8392,6756
		c9-40-5-80-25-73c-14,4-21,59-12,94C8363,6811,8383,6800,8392,6756z"/>
	<path d="M6886,7916c-49-195-95-516-101-711l-4-130l14,100c7,55,29,195,49,310c19,116,40,260,47,322C6902,7918,6900,7971,6886,7916z
		"/>
	<path d="M7601,7863c-27-104-58-296-65-413l-6-95l25,105c61,251,97,480,77,480C7627,7940,7613,7905,7601,7863z"/>
	<path d="M9741,7787c-66-284-81-355-110-512c-59-315-138-850-129-877c2-6,10,27,17,73s42,239,78,429c140,744,189,1018,180,1026
		C9776,7928,9759,7865,9741,7787z"/>
	<path d="M7181,7845c0-6-8-69-16-140c-9-72-24-191-36-265c-39-266-48-348-59-586c-18-361,0-695,75-1454c63-635,76-808,82-1131
		c6-335,4-351-39-312c-11,10-28,34-39,53l-18,35l-1-53c0-48-2-53-27-63c-28-11-85-8-114,5c-13,6-17-3-22-56c-7-79-13-93-40-106
		c-19-9-16-11,23-11c45-1,414,20,685,39c77,5,157,10,178,10c44,0,45,5,11,44c-25,28-25,28-40,8c-11-17-29-21-108-27
		c-65-5-100-4-116,5c-19,10-26,8-49-14c-39-38-80-35-127,9c-41,39-44,41-44,21c0-8-8-24-19-37c-16-21-22-22-45-11c-14,6-26,7-26,2
		s-21-8-47-7c-27,1-73-2-104-7c-51-7-59-6-78,13c-34,34-26,41,53,41c62,0,79,4,111,25c35,25,38,25,56,9c18-17,19-15,19,52
		c0,270-28,707-80,1284c-71,785-80,936-80,1368c-1,401,10,569,50,799c34,194,49,352,39,422C7186,7834,7182,7850,7181,7845z"/>
	<path d="M7762,7845c-39-247-66-546-60-670l3-80l13,125c33,333,53,574,49,603C7765,7841,7762,7850,7762,7845z"/>
	<path d="M3785,7761c-8-14,20-61,36-61c13,0,2,40-16,58C3796,7768,3790,7769,3785,7761z"/>
	<path d="M6460,7743c0-4-7-71-15-148c-14-140-36-530-34-635c2-104,16-5,29,194c6,105,18,251,26,325c16,159,18,257,4,266
		C6465,7748,6460,7748,6460,7743z"/>
	<path d="M8167,7688c-4-29-9-132-11-228c-6-214,9-128,20,118C8183,7738,8179,7790,8167,7688z"/>
	<path d="M7006,7703c-9-30-44-290-58-428c-8-83-13-266-12-505c1-383,18-629,59-855l14-80l-5,65c-2,36-11,153-20,260
		c-8,107-18,363-21,568c-6,392,2,590,37,849C7017,7707,7019,7746,7006,7703z"/>
	<path d="M7359,7688c-19-35-23-281-9-493c17-249,26-208,34,160c4,160,9,305,12,323c5,25,3,32-10,32C7378,7710,7365,7700,7359,7688z"
		/>
	<path d="M8767,7665c-12-41-57-265-81-410c-51-299-100-736-126-1115c-18-265-8-229,20,75c60,631,99,931,171,1293
		c17,84,29,158,26,165C8775,7680,8770,7676,8767,7665z"/>
	<path d="M9115,7658c-2-13-12-54-20-92c-9-38-18-104-20-145l-5-76l25,100c25,101,43,235,32,235C9123,7680,9118,7670,9115,7658z"/>
	<path d="M9348,7615c-4-22-9-69-12-105c-5-57-3-53,10,25c8,50,13,97,11,105S9351,7637,9348,7615z"/>
	<path d="M6681,7559c-39-122-79-408-86-614l-4-140l9,113c11,153,24,222,67,355c38,118,55,267,35,302C6694,7591,6691,7588,6681,7559z
		"/>
	<path d="M7832,7490c0-14,2-19,5-12c2,6,2,18,0,25C7834,7509,7832,7504,7832,7490z"/>
	<path d="M7232,7473c-5-10-10-94-10-188c0-93-8-296-18-450c-11-172-18-415-18-630c-1-338,0-356,27-515c38-227,57-362,72-515l12-130
		l2,155c1,136-2,168-24,255c-72,281-88,588-60,1125c41,803,45,910,34,910C7245,7490,7237,7482,7232,7473z"/>
	<path d="M7821,7440c-1-8-10-76-21-150c-20-140-23-166-16-159c8,8,48,299,43,312C7823,7451,7821,7450,7821,7440z"/>
	<path d="M8930,7196c0-4-9-66-20-137c-49-317-83-685-100-1108c-10-246-9-311,5-219c10,67,21,78,46,48c20-23,21-32,14-135
		c-9-144-23-158-62-60c-10,27-12,24-12-42c-1-40,2-73,7-73c4,0,16,7,26,15c11,8,30,15,43,15h23l-1,213c-1,184-3,206-13,167
		c-13-51-42-66-51-28c-3,13-5,59-3,103c2,63,6,80,18,80c8,0,22-14,31-32c15-31,16-28,27,129c7,89,10,164,7,166c-3,3-5-4-5-15
		c0-47-39-110-53-85c-15,26,26,559,64,840c12,84,18,156,15,159C8933,7201,8930,7200,8930,7196z"/>
	<path d="M9110,7083c0-90-39-99-41-10c-1,29-3,43-6,32c-2-11-31-128-63-260c-55-219-81-373-79-465c0-19,11,26,24,101
		c35,204,104,449,126,449c5,0,10-64,10-142c2-143,2-143,10-58c15,142,40,354,46,378c4,16,1,22-11,22S9110,7119,9110,7083z"/>
	<path d="M6773,7000c0-30,2-43,4-27c2,15,2,39,0,55C6775,7043,6773,7030,6773,7000z"/>
	<path d="M8121,7014c0-11,3-14,6-6c3,7,2,16-1,19C8123,7031,8120,7025,8121,7014z"/>
	<path d="M9266,7014c-13-13-16-42-16-162c0-81-5-219-11-306c-5-87-8-160-6-162c3-4,42,355,52,491c3,39,8,89,11,113
		C9302,7033,9292,7041,9266,7014z"/>
	<path d="M9792,7002c-27-27-30-43-35-177c-3-96-9-127-45-238c-48-148-64-228-91-474c-26-230-39-444-45-718c-4-234-3-228,14,70
		c24,417,86,851,191,1348c22,104,38,194,36,200S9805,7015,9792,7002z"/>
	<path d="M8082,6714c-18-137-37-303-43-369c-10-125-9-341,2-315c4,8,12,107,18,220s22,315,36,450c14,134,24,248,22,253
		C8116,6958,8100,6850,8082,6714z"/>
	<path d="M3485,6872c-16-11-36-26-43-34c-11-14-6-17,40-23c29-4,106-18,172-31c139-28,136-28,136-10c0,26-44,69-94,92
		C3631,6896,3530,6899,3485,6872z"/>
	<path d="M7371,6599c1-79,5-178,9-219c5-43,6,16,3,140c-3,118-7,217-9,219S7371,6678,7371,6599z"/>
	<path d="M7521,6591c-1-108,17-498,29-623c6-54,17-113,25-130c14-31,15-24,10,97c-5,116-50,669-59,720
		C7524,6666,7522,6637,7521,6591z"/>
	<path d="M9074,6550c0-52,1-74,3-47c2,26,2,68,0,95C9075,6624,9074,6602,9074,6550z"/>
	<path d="M7830,6545c-8-9-22-14-32-11c-17,4-19-1-16-37c3-39,5-42,33-42s30,3,36,45C7858,6551,7850,6569,7830,6545z"/>
	<path d="M9065,5880c3-433,13-683,30-756c3-15,14-23,35-26l30-5l-2,251c-1,239-12,252-17,21c-2-49-6-99-10-109c-7-19-8-19-15,0
		c-14,35-37,436-46,779C9062,6367,9062,6363,9065,5880z"/>
	<path d="M9492,6340c0-14,2-19,5-12c2,6,2,18,0,25C9494,6359,9492,6354,9492,6340z"/>
	<path d="M7820,6150c0-18,26-40,49-40c6,0,11,14,11,30c0,27-3,30-30,30C7827,6170,7820,6166,7820,6150z"/>
	<path d="M3565,6069c-66-16-126-32-134-37c-8-4-20-25-28-46l-13-38l75-77c40-42,103-98,139-126c36-27,65-57,65-66c1-9-21-42-49-73
		c-27-31-53-69-56-83c-14-54,45-177,75-158c16,9,13,44-9,108c-21,60-18,79,15,107c9,8,30,41,47,74c41,83,64,106,105,106
		c45,0,73,16,73,40c0,16-7,20-37,20c-28,0-49-9-82-35c-30-24-54-35-76-35c-29,0-37,6-59,44c-14,25-47,62-72,82
		c-46,38-102,119-90,131c4,4,28,7,54,8c26,0,68,9,94,20c71,29,110,13,217-89c47-46,101-91,120-101c19-9,71-20,117-25
		c83-7,114-20,114-46c0-20-101-180-145-232c-50-58-107-95-188-121c-72-24-135-67-119-83c13-13,123,7,171,31c58,30,104,73,176,166
		c76,97,138,156,194,184c23,12,41,25,41,30c0,22-54,71-93,85c-23,8-82,23-131,32c-86,17-92,20-140,69c-55,55-214,166-237,164
		C3691,6099,3631,6085,3565,6069z"/>
	<path d="M7662,6005c0-16,2-22,5-12c2,9,2,23,0,30C7664,6029,7662,6022,7662,6005z"/>
	<path d="M7675,5865c5-113,36-469,60-700l14-130l-5,125c-8,206-45,640-64,760C7673,5964,7672,5952,7675,5865z"/>
	<path d="M8015,5768c-10-24-2-71,13-76c14-4,16,41,2,73C8023,5783,8021,5783,8015,5768z"/>
	<path d="M7911,5754c0-11,3-14,6-6c3,7,2,16-1,19C7913,5771,7910,5765,7911,5754z"/>
	<path d="M9162,5670c0-19,2-27,5-17c2,9,2,25,0,35C9164,5697,9162,5689,9162,5670z"/>
	<path d="M3000,5656c0-8,84-182,188-388c193-385,272-566,316-729c32-118,75-351,91-490c3-26,12-55,20-65c13-18,14-17,15,11
		c0,61-41,304-75,443c-85,349-231,715-437,1100c-60,112-74,132-94,132C3010,5670,3000,5664,3000,5656z"/>
	<path d="M8016,5589c-10-51-7-81,7-77c14,5,22,87,9,100C8026,5618,8020,5609,8016,5589z"/>
	<path d="M7442,5510c0-14,2-19,5-12c2,6,2,18,0,25C7444,5529,7442,5524,7442,5510z"/>
	<path d="M7601,5461c-1-40,47-774,53-811c3-14,3,74,0,195c-4,215-25,515-43,605C7603,5492,7602,5493,7601,5461z"/>
	<path d="M7451,5395c0-38,4-169,9-290s14-332,20-470c6-137,13-270,17-295l7-45l7,60c17,152,9,435-21,752
		C7455,5476,7453,5488,7451,5395z"/>
	<path d="M7916,5378c-26-42-28-68-12-176c31-220,59-659,54-873c-2-120-9-212-15-223s-30-25-54-33c-37-11-46-10-55,2
		c-6,8-19,115-30,237l-19,223l-6-180c-5-145-10-193-27-245c-12-36-22-72-22-80c0-9,16-40,35-70c30-46,35-50,35-29c0,35,18,49,61,49
		c21,0,41,5,44,10c9,15,31,12,49-6c19-18,21-77,5-123c-6-18-9-34-6-37c2-3,51-2,108,3l104,7l-69,8c-38,5-75,13-82,18
		c-17,15-28,134-14,159c17,33,26,25,36-34c5-31,13-57,18-58c19-4,6,204-49,748c-19,187-40,427-47,533c-7,105-16,192-20,192
		S7924,5390,7916,5378z"/>
	<path d="M8793,5353c-17-6-16-38,1-52c8-7,30-15,50-18l36-6v42c0,41,0,41-37,40C8822,5359,8799,5356,8793,5353z"/>
	<path d="M7061,5296c-1-10,8-107,19-215s24-245,29-306l8-110l2,105c1,122-24,411-43,490C7068,5290,7062,5307,7061,5296z"/>
	<path d="M6880,5282c0-6,11-120,24-254c38-367,47-500,55-765c4-134,11-246,15-250c22-22,27,36,22,262c-6,312-29,574-72,814
		C6894,5259,6880,5320,6880,5282z"/>
	<path d="M8658,5244c-5-4-7-59-7-123l2-116l9,70C8672,5153,8669,5256,8658,5244z"/>
	<path d="M3686,5182c-6-10,33-90,77-156c29-44,32-57,32-120c0-59-9-95-49-210c-42-119-48-147-43-192c12-115,109-226,264-303
		c99-50,179-64,318-58c149,7,266,29,611,118c149,38,278,69,287,69c12,0,24-26,47-97c28-90,66-153,93-153c15,0,0,70-33,145
		c-34,80-38,120-12,133c9,5,94,33,187,62c202,61,509,175,548,202c27,20,52,56,44,64s-205-62-482-171c-580-229-828-291-1215-302
		c-202-6-296,2-399,35c-102,32-160,135-168,302c-6,110,13,223,52,308c14,30,25,59,25,64c0,16-70,161-95,198
		C3749,5158,3695,5196,3686,5182z"/>
	<path d="M8062,5100c0-19,2-27,5-17c2,9,2,25,0,35C8064,5127,8062,5119,8062,5100z"/>
	<path d="M9366,4708l5-338l-33-20c-46-28-99-42-114-30c-6,6-13,47-16,95c-3,52-10,90-17,98c-11,10-12-1-7-58c7-78,40-242,50-252
		c3-3,14,1,23,9c10,9,43,23,73,31c52,15,56,15,75-3c28-26,35-25,35,4c0,13,7,42,15,65c13,38,13,44-5,74c-32,54-35,75-80,562
		C9364,5017,9362,4950,9366,4708z"/>
	<path d="M7303,4965c0-33,2-45,4-27s2,45,0,60S7303,4998,7303,4965z"/>
	<path d="M6751,5004c-1-6,6-101,14-210c8-110,19-311,25-449c12-282,21-351,31-240c12,133,9,274-11,462
		C6789,4757,6753,5024,6751,5004z"/>
	<path d="M7752,4980c0-19,2-27,5-17c2,9,2,25,0,35C7754,5007,7752,4999,7752,4980z"/>
	<path d="M8515,4770c2-85,11-209,20-275c22-158,17-281-15-354c-23-52-23-54-5-67c13-10,33-12,65-8c36,5,50,2,69-13
		c23-19,24-26,27-159c1-76,7-155,12-174c23-81,7,638-19,835c-17,136-31,205-40,205s-6-43,18-265c8-76,12-160,8-184
		c-14-92-54-153-69-103c-13,45-28,188-41,407C8526,4906,8509,4998,8515,4770z"/>
	<path d="M9581,4884c0-11,3-14,6-6c3,7,2,16-1,19C9583,4901,9580,4895,9581,4884z"/>
	<path d="M8850,4877c0-8,11-19,25-25c27-12,33-40,13-60c-19-19-41-14-65,16l-22,27l-1-200c0-204,11-356,54-775c14-129,30-311,36-405
		c13-208,25-300,51-387c19-65,57-143,66-135c2,3-10,78-27,168c-65,350-96,592-106,845c-10,243,2,273,78,194c37-40,38-42,38-119
		c0-113,17-273,52-471c59-346,69-417,72-535c1-66,8-129,13-140c6-11,15-33,19-49c13-44,34-45,34-2c0,62-29,263-85,586
		c-60,349-82,502-91,649l-7,99l44,23c24,12,56,22,71,21l28-1l-1,137l-1,137l-14-78c-17-102-35-131-77-123c-36,7-63,30-84,71l-16,30
		l-12-47c-15-60-42-100-63-96c-15,3-18,27-24,213c-3,116-9,229-12,252c-10,79,34,59,69-32c14-39,15-37,11,75c-2,63-7,123-11,133
		C8897,4893,8850,4896,8850,4877z"/>
	<path d="M7123,4555c0-44,2-61,4-37c2,23,2,59,0,80C7125,4618,7123,4599,7123,4555z"/>
	<path d="M9955,4597c-50-28-69-72-40-93c43-32,138-7,175,46c37,52,23,70-53,70C10012,4620,9979,4610,9955,4597z"/>
	<path d="M7321,4565c-2-57,19-574,25-611c4-30,6-31,72-37c44-5,76-14,94-27c20-15,28-17,28-7c0,7,11,28,25,47c29,39,32,72,9,91
		c-8,7-23,26-31,43l-16,31l-15-35c-16-40-60-90-79-90c-16,0-40,37-54,81c-6,19-21,151-33,294C7333,4488,7322,4587,7321,4565z"/>
	<path d="M7661,4349c1-112,5-217,9-234c5-16,6,74,3,200c-3,127-7,232-9,234S7661,4461,7661,4349z"/>
	<path d="M9665,4100c9-130,25-276,41-370c18-108,55-272,60-268c2,2-10,89-26,193c-16,105-36,256-45,336
		C9678,4158,9656,4239,9665,4100z"/>
	<path d="M9461,3955c-1-42,32-254,80-505c22-118,49-287,60-375c14-116,26-174,44-212c65-142,47-10-75,552c-23,105-55,271-71,370
		C9467,3978,9462,4002,9461,3955z"/>
	<path d="M9271,3945c-2-57,136-831,147-821c11,12-100,687-132,801C9274,3967,9272,3970,9271,3945z"/>
	<path d="M8594,3819c7-96,30-212,34-175c4,36-16,189-29,219C8592,3879,8591,3867,8594,3819z"/>
	<path d="M9180,3789c0-81,92-701,98-661c4,29-31,318-64,522C9189,3801,9180,3838,9180,3789z"/>
	<path d="M9601,3764c-2-89,64-387,124-564c14-41,32-109,41-150c18-93,30-124,56-147c25-22,26-27-27,122c-47,131-97,322-150,575
		C9618,3726,9601,3789,9601,3764z"/>
	<path d="M880,3501c-47-11-157-39-245-64c-243-69-270-75-406-91c-184-21-232-52-209-138c39-142,131-236,275-280
		c109-34,197-29,389,21c216,56,326,55,326-3c0-13,11-54,25-90c14-37,25-74,25-83s13-31,29-48c16-16,46-73,67-125
		c38-95,85-160,118-160c19,0,20-2-69,190c-90,192-123,270-146,340l-17,55l-103-1c-57-1-153-9-214-18c-60-10-161-20-222-23
		c-132-7-217,11-284,59c-45,33-99,111-99,144c0,22,4,22,118,26l117,3l65,51c229,179,512,256,713,194c63-20,169-82,277-165
		c96-73,124-68,62,12c-60,75-141,143-212,177c-60,28-74,31-180,33C998,3519,941,3514,880,3501z M425,3321c9-16-33-48-78-59
		c-117-30-206-22-175,15c22,27,54,37,138,43c47,4,90,8,97,8C413,3329,421,3326,425,3321z"/>
	<path d="M8666,3314c4-38,19-152,34-254l27-185l28-5c32-6,46-27,67-100c18-62,42-61,46,3c2,37-5,67-38,143c-45,106-73,214-90,349
		c-15,116-18,126-32,102c-9-18-11-18-29-1C8659,3384,8659,3383,8666,3314z"/>
	<path d="M8156,3338c-20-105-48-336-48-394c0-53,6-84,23-120l22-49l8,55c32,220,41,300,46,408l6,122h-26
		C8167,3360,8159,3354,8156,3338z"/>
	<path d="M7192,3253c-7-43-30-144-52-226c-22-81-43-165-46-186c-4-27-23-58-65-107c-59-67-74-97-67-129c6-30,23-19,60,41
		c92,148,174,409,185,587c3,53,4,97,1,97C7206,3330,7198,3295,7192,3253z"/>
	<path d="M7041,3223c-13-54-39-143-58-198c-51-148-50-144-26-122c32,28,71,109,87,178c13,61,31,239,24,239
		C7066,3320,7054,3276,7041,3223z"/>
	<path d="M7512,3304c-7-83-73-278-173-513c-43-102-76-187-74-189c19-19,101,137,176,335c44,117,82,287,76,347
		C7515,3307,7513,3316,7512,3304z"/>
	<path d="M7598,3148c-3-13-22-97-42-186c-21-90-35-176-33-190c3-25,5-24,25,19c28,60,50,165,58,284C7613,3164,7608,3199,7598,3148z"
		/>
	<path d="M7648,2923c-70-210-86-265-70-248c30,32,150,405,140,435C7716,3116,7685,3031,7648,2923z"/>
	<path d="M9423,2990c3-113,17-167,48-185c17-11,19-1,8,40c-6,21-22,88-35,149l-24,111L9423,2990z"/>
	<path d="M9861,3084c0-11,3-14,6-6c3,7,2,16-1,19C9863,3101,9860,3095,9861,3084z"/>
	<path d="M8366,2898c-7-152-6-171,11-205c10-20,24-39,32-41c12-4,13,12,7,99c-4,57-15,151-25,209l-17,105L8366,2898z"/>
	<path d="M1270,2300c0-94-50-394-149-895c-101-506-124-657-125-815c-1-163,22-246,104-365c15-22,43-71,63-110c19-38,47-81,61-94
		c24-22,28-23,52-10c15,7,29,19,31,26c3,7-17,38-45,70c-68,80-108,142-147,226c-83,181-79,251,55,992c76,419,105,609,120,790
		c14,168,13,195-5,195C1277,2310,1270,2305,1270,2300z"/>
</g>
</svg>
