<?xml version="1.0" encoding="utf-8"?>
<!-- Generator: Adobe Illustrator 17.0.0, SVG Export Plug-In . SVG Version: 6.00 Build 0)  -->
<!DOCTYPE svg PUBLIC "-//W3C//DTD SVG 1.1//EN" "http://www.w3.org/Graphics/SVG/1.1/DTD/svg11.dtd" [
	<!ENTITY ns_flows "http://ns.adobe.com/Flows/1.0/">
	<!ENTITY ns_extend "http://ns.adobe.com/Extensibility/1.0/">
	<!ENTITY ns_ai "http://ns.adobe.com/AdobeIllustrator/10.0/">
	<!ENTITY ns_graphs "http://ns.adobe.com/Graphs/1.0/">
]>
<svg version="1.1" id="Layer_1" xmlns:x="&ns_extend;" xmlns:i="&ns_ai;" xmlns:graph="&ns_graphs;"
	 xmlns="http://www.w3.org/2000/svg" xmlns:xlink="http://www.w3.org/1999/xlink" xmlns:a="http://ns.adobe.com/AdobeSVGViewerExtensions/3.0/"
	 x="0px" y="0px" width="1280px" height="1245px" viewBox="0 0 1280 1245" style="enable-background:new 0 0 1280 1245;"
	 xml:space="preserve">
<g transform="translate(0.000000,1245.000000) scale(0.100000,-0.100000)">
	<path d="M8290,12435c-125-14-236-32-419-70c-164-33-328-55-417-55c-84,0-92-14-13-23c28-4,62-13,76-22l24-16l-98-71
		c-293-212-584-522-765-814c-164-265-270-532-378-950c-68-262-109-562-96-692c7-63,40-152,57-152c5,0,9,62,9,138
		c0,717,286,1457,772,2002c47,52,159,170,249,262c182,186,236,222,321,216l43-3l-88-73c-48-40-95-85-104-98c-15-23-15-26,0-42
		c9-8,18-14,20-11c1,2,20,31,41,64c87,134,233,239,396,285c92,26,270,50,365,50h71l43-65c117-179,170-371,250-900
		c45-294,66-413,75-422c9-10,7,217-4,377c-23,321-87,603-201,884c-27,66-46,122-43,125s72,6,152,5c185-1,270-22,332-84
		c22-22,40-47,40-55c0-32,15-13,16,20c1,56,13,62,91,42c38-10,136-26,218-36c267-34,301-53,518-294c49-53,103-105,120-113
		c39-21,87-35,87-26c0,4-41,48-91,97c-84,84-148,169-136,181c11,11,94-41,150-94c32-31,83-88,115-127c105-131,207-234,219-222
		s-49,97-137,189c-88,94-136,168-107,168c30,0,147-81,218-150c98-96,161-194,263-405c45-93,90-186,99-205l17-35l-6,45
		c-13,105-53,202-149,360c-67,111-108,190-98,190c5,0,33-20,64-44c63-50,134-150,238-340c36-64,71-125,78-134c35-42,0,59-62,183
		c-58,114-76,165-60,165c2,0,30-11,60-25c79-35,170-129,222-230c22-44,69-161,103-260c35-99,77-212,95-252l33-72l-66-75
		c-86-97-200-202-497-457c-306-263-451-408-518-517c-48-79-96-132-119-132c-24,0,38,188,98,295c73,128,146,223,308,396
		c201,216,269,292,326,367c85,114,153,260,174,373c8,43-13,59-40,32c-13-14-15-29-10-84c6-67,6-68-33-116c-21-26-99-116-172-199
		c-351-395-508-605-637-854c-114-218-172-403-171-542c1-88-2-103-55-262c-62-185-73-274-42-333l14-28l12,30c6,17,14,82,17,145
		c5,110,28,200,50,200c4,0,26-33,48-72c73-130,142-191,244-213c34-7,34-7-43,81c-128,150-175,267-162,408c20,220,128,411,351,624
		c58,55,228,199,378,319c149,120,320,265,378,323c180,179,278,343,307,511l8,44l61-75c210-254,334-602,402-1125c6-44,27-222,46-395
		c43-377,67-530,95-595c70-164,38-368-105-655c-58-117-85-199-96-299c-19-157,9-352,70-486c73-160,284-425,593-743
		c104-107,209-224,236-260c47-66,47-67,47-148c0-78-2-84-38-137c-48-70-87-101-259-211c-172-109-228-159-267-238
		c-27-52-31-72-31-137c0-89,21-143,70-184c33-28,90-61,90-53c0,3-10,29-21,58c-16,39-23,82-27,164c-4,105-3,113,21,150
		c40,62,114,127,227,199c241,154,287,194,329,285c20,44,26,71,26,130c0,69-3,81-35,135c-22,36-117,142-250,279
		c-119,122-260,273-314,336c-266,312-367,547-366,854c1,156,9,192,54,252c58,75,134,238,163,349c23,87,26,121,27,260l1,160l-38,105
		c-34,93-41,130-62,315c-89,798-206,1226-418,1534c-54,78-164,193-223,233c-34,23-37,29-49,101c-7,46-51,97-112,131
		c-25,15-47,26-49,26c-10,0-1-36,31-140c40-127,44-195,16-255l-19-40l-1,51c-1,66-23,137-77,254c-53,112-78,193-70,224
		c5,20-8,34-82,93c-166,132-313,225-564,357c-231,120-805,386-835,386c-46,0-215,27-438,71c-115,22-257,47-315,55
		C8643,12453,8446,12452,8290,12435z"/>
	<path d="M6985,12304c-281-32-462-80-752-200c-277-115-302-131-443-273c-115-117-134-132-230-181c-58-29-117-63-132-73
		c-35-26-93-110-149-216c-49-94-102-159-155-192l-35-22l-72,49c-74,51-187,143-390,322c-347,304-569,406-936,430
		c-349,24-678-43-1077-218c-358-157-588-344-902-736c-158-195-154-189-193-338c-7-27-26-64-42-82l-29-33l-61,31
		c-34,17-123,70-198,118c-160,104-248,150-342,179l-69,21l-42-31c-93-66-161-189-202-364c-18-77-74-408-69-413c1-2,21,5,44,14
		c69,27,114,90,171,236c64,164,80,195,123,236c30,29,35,31,47,17c7-8,19-15,26-15c8,0,14-9,14-20c0-32-81-179-149-270
		c-57-76-131-211-131-239c0-19,18-12,55,20c46,41,74,90,125,222c47,122,88,181,143,210c47,24,61,12,51-43c-8-49-38-103-112-205
		c-86-119-122-187-122-236c0-21,3-39,7-39c3,0,20,11,37,24c38,29,74,92,120,213c49,129,69,164,115,206c44,40,65,46,75,21
		c17-44-15-113-111-244c-39-52-78-111-88-130c-23-45-23-105,0-130c19-20,19-20,37,9c11,16,44,87,74,156c30,70,68,146,84,170
		c34,49,99,107,112,99c27-17-7-99-92-225c-89-131-110-175-110-229c0-25,6-55,14-66c15-19,15-19,30,1c9,11,38,78,66,149
		c81,204,115,258,191,297c49,25,50,25,43-13c-12-68-40-123-116-231c-72-101-108-178-108-229c0-26,12-22,47,15s59,82,103,194
		c43,107,76,161,113,184c62,37,92,20,80-44c-9-47-24-73-107-185c-67-89-104-152-120-204c-4-14-16-18-49-18h-43l-13-62
		c-37-185-107-361-291-728c-121-242-216-457-206-467c6-6,44,14,84,46c62,48,121,154,212,379c48,119,117,289,154,377
		c39,96,77,208,93,279c27,116,29,118,65,137c57,29,94,84,144,211c25,64,59,135,75,158c35,48,112,90,117,64c7-30-30-111-79-174
		c-130-168-154-227-110-281l18-23l12,22c6,11,33,80,60,152c64,168,95,212,174,245c34,14,38,14,43,0c8-20-4-81-25-130
		c-10-22-44-71-76-110c-88-107-117-191-82-239c13-17,15-16,34,15c12,19,50,95,86,169c65,136,103,193,153,233l27,21l-7-43
		c-9-56-34-106-113-218c-73-106-97-162-83-197c5-13,13-27,19-30c14-9,51,58,107,194c39,96,56,124,99,166c46,46,99,74,112,60
		c3-3,2-25-1-50c-8-48-45-109-129-211c-28-33-56-74-63-92c-15-36-19-139-5-147c21-13,64,65,115,209c56,156,90,200,179,234
		c28,11,29,11,22-21c-11-47-46-114-123-231c-64-97-113-210-97-225c4-4,26,14,49,39c31,34,53,76,84,156c60,158,100,207,185,227
		c26,6,27,5,27-39c0-58-22-100-103-203c-87-109-106-142-113-193c-4-34,0-52,17-79l21-34l21,39c11,22,38,90,59,150
		c53,150,84,203,143,243c26,18,53,31,59,29c16-5,20-75,7-119c-6-20-47-82-90-137c-75-96-117-179-109-215c3-13,8-13,37,1
		c44,22,73,68,116,188c50,137,99,195,166,195c19,0,21-4,16-36c-8-50-38-105-114-206c-65-88-103-166-103-213c0-30,14-31,58-5
		c43,26,66,66,103,180c52,158,91,208,178,224l34,6l-6-45c-9-59-33-105-101-190c-66-83-87-124-94-182c-6-55,9-56,58-4
		c25,26,47,65,65,117c50,140,67,173,106,209c22,19,43,35,49,35c13,0,23-63,16-97c-4-15-29-57-57-93c-105-136-129-184-129-262
		c0-44,4-45,47-19c40,25,73,83,108,188c31,95,57,139,104,170c44,29,91,31,91,3c0-37-33-105-100-205c-103-154-119-197-87-224
		c26-21,67,42,107,164c50,153,108,225,181,225c20,0,21-3,15-52c-10-74-52-157-146-286c-44-61-80-114-80-118c0-9,86-116,220-274
		c202-238,308-386,380-530c90-178,128-319,111-401c-16-74-14-88,18-120c36-36,45-36,60-2c23,50,14,140-24,258c-20,61-39,139-42,175
		c-4,57-2,69,19,99c12,19,28,36,34,38s32-15,57-37c54-48,112-156,127-239c13-72,13-221-1-279c-14-57-31-72-82-72c-49,0-77-15-77-41
		c0-24,53-49,103-49c48,0,78,28,136,123c27,45,63,95,80,111l30,29l6-29c14-60,39-131,83-229c67-150,81-198,97-325
		c19-155,21-254,11-825c-8-456-7-507,13-735c37-425,42-560,48-1196l6-621l-114-22c-63-13-229-54-369-93c-486-133-519-138-946-138
		c-346,0-419-8-570-61c-186-65-382-178-733-423c-115-80-244-162-287-182c-295-136-303-141-405-243c-107-107-176-203-254-356
		c-78-152-141-320-289-768c-74-221-145-428-160-461c-14-32-26-63-26-69c0-33,130,135,192,249c62,112,102,209,211,509
		c184,506,266,670,417,828c99,105,157,142,253,161c117,24,156,47,372,224c170,140,291,221,467,312c146,75,288,128,418,156
		c91,19,333,23,399,7l35-9l-135-80c-282-170-376-212-604-269c-98-25-199-57-226-72c-48-26-136-109-126-119c7-7,197,41,329,83
		c170,53,357,130,709,289c384,173,453,202,632,265c259,92,488,141,730,158l129,10l36,37c19,20,60,48,90,62c63,29,173,40,222,24
		c29-11,33-9,62,23c16,19,62,51,101,70c220,108,521,78,650-65c63-70,65-88,22-178c-27-58-54-93-113-151c-113-112-213-162-558-281
		c-423-147-581-249-670-435c-43-89-43-99-1-90c59,13,88,39,153,138c55,84,74,104,133,142c87,56,199,101,409,165
		c367,111,480,162,597,272c136,127,173,255,112,380c-68,138-258,241-472,255c-129,8-223-10-378-72c-12-5-16-3-13,6
		c13,36,51,529,101,1299c19,297,35,498,41,529c6,29-1,41,144-224c224-406,352-608,444-700c227-226,380-603,447-1103
		c17-124,22-211,22-412c1-291-10-397-53-526c-17-49-34-117-37-150c-5-53-2-68,18-103c29-51,30-49,69,110c54,222,65,325,65,639
		c0,274-6,352-41,561c-6,35-4,37,44,67c103,63,115,105,61,210c-17,33-28,65-24,71c4,7,24,19,46,28l39,15l1,67c1,116-2,173-16,301
		c-8,69-15,156-15,194c0,58-2,67-14,57c-18-15-21-239-4-386c9-86,9-105-5-138c-21-50-35-47-39,10c-2,28-8,48-17,51
		c-11,4-12-23-6-165c7-181,0-236-35-268c-23-21-19-30-50,111c-25,109-23,152,9,193c18,24,18,26-5,110c-26,97-58,192-134,396
		c-29,77-61,185-71,239c-22,114-48,180-77,195s-92,14-92-2c0-7,30-66,67-132c96-173,127-276,107-353c-6-22-8-20-32,19
		c-32,54-42,33-11-24c61-114,62-117,50-144l-12-26l-33,49c-18,27-88,141-156,254c-169,281-232,377-342,521c-146,193-260,404-298,553
		c-40,157-20,680,30,794c11,24,36,67,56,95c90,125,95,193,32,426l-43,156v215c0,217,3,241,46,378c10,30,13,32,59,32c30,0,52,5,60,15
		c10,13,9,15-8,15c-44,0-122,49-122,75c0,7,14,15,30,19c38,7,39,28,4,77c-49,71-10,119,47,58l31-33l-7,40c-4,21-24,94-46,161
		c-33,103-39,136-39,210c0,67-5,99-21,133c-11,25-38,89-60,143c-81,203-135,287-203,318c-51,23-74,23-127,2l-41-16l26-14
		c34-18,34-57-1-129c-26-53-126-174-144-174c-17,0-9,65,16,125c30,73,30,73,3,103c-62,65,19,304,115,341c36,13,40,13,99-18
		c41-21,65-28,72-21c5,5,8,11,5,13c-60,50-163,103-215,111l-42,7l-30-73c-28-69-38-99-93-288c-19-68-22-73-35-55
		c-10,14-14,52-14,140c0,91-4,126-15,141c-14,18-14,18-15-8c0-34-23-37-44-7c-14,20-13,23,17,43c23,15,47,51,83,124
		c58,116,74,136,126,163c75,38,115,18,174-89c45-82,62-102,86-102c22,0,23,13,2,31c-25,20-49,76-84,189c-55,177-101,245-180,269
		c-83,25-142-38-190-199c-38-128-80-200-80-136c0,28-35,76-56,76c-8,0-23-9-35-21c-11-11-24-18-27-14c-4,4-9,76-12,162
		c-5,148-6,156-29,174c-13,10-27,19-31,19c-8,0-20-183-20-314v-90l54-95c92-163,97-202,94-656c-3-384-3-388,55-403c47-12,42-37-7-36
		l-38,1l5-251c4-262,14-325,55-376c16-20,17-16,17,122c0,127,19,278,32,264c3-3,11-87,19-188s23-273,34-383c19-189,36-326,145-1195
		c60-471,73-712,57-1039c-13-252-35-476-72-721c-11-74-20-166-20-203c0-110-20-256-43-316l-21-56l-8,65c-4,36-14,313-23,615
		c-8,303-22,746-30,985s-19,685-25,990c-6,333-16,605-24,680c-21,186-39,291-47,283c-5-5-11-35-14-68c-7-65-23-115-36-115
		s-57,62-83,120c-33,71-50,141-81,325c-33,197-47,243-106,346c-74,130-89,169-120,323c-52,249-161,443-535,947
		c-91,123-193,266-227,317c-50,77-62,90-70,76c-20-36,15-112,117-249c67-90,95-147,96-188c0-36-9-34-160,45c-182,95-358,216-471,323
		c-45,43-49,50-69,143c-50,221-80,304-124,341c-34,28-32-58,5-214c20-84,24-171,10-193c-6-11-20-6-62,21c-30,19-142,78-249,132
		c-107,53-232,122-278,152l-83,55l17,26c10,15,69,112,132,217c269,447,383,584,614,735c278,184,665,323,1028,371
		c136,18,394,16,510-5c300-53,466-148,885-506c94-80,209-177,256-217c170-144,291-286,364-433c15-30,60-140,100-245
		c157-414,227-564,387-835c235-399,337-669,457-1212l19-88h-67c-77,0-120-21-148-72c-15-27-18-57-18-165c0-73-2-133-4-133
		c-16,0-76,60-109,110c-51,76-74,146-112,340c-33,166-63,277-88,325c-8,17-48,81-89,144c-86,131-115,194-173,381
		c-64,207-116,361-172,504c-83,217-89,247-97,531c-6,230-9,253-29,292c-12,23-34,51-50,62l-29,20l-12-25c-16-36-14-62,13-142
		c14-40,32-123,41-185c104-734,273-1292,496-1637c39-60,39-60,19-80c-29-29-28-32,29-223c19-65,54-288,66-427c3-36,8-82,10-102l5-38
		h-119h-119l-22-52c-12-29-31-102-42-163c-17-94-57-215-71-215c-3,0-12,44-22,98c-44,249-99,456-257,967c-49,159-114,382-144,495
		c-31,113-91,324-135,470c-98,330-134,474-155,618c-15,103-15,118-1,175c26,102,27,115,17,141c-9,24-63,66-84,66c-5,0-7-81-3-192
		c10-350,56-541,277-1163c147-414,178-525,250-905c48-257,87-411,131-522c33-82,79-218,90-267c27-120,3-256-59-330
		c-27-33-28-33-69-21c-100,30-158,122-194,308c-27,136-30,132,109,188l97,39l-67,3c-77,3-135-10-170-37c-22-18-23-25-22-133
		c0-73,7-138,19-183c9-38,18-113,19-165l2-95l45-12c55-17,142-18,194-4c22,6,65,25,95,43c48,29,55,38,58,67c2,19-2,54-8,78
		c-16,54-16,89-1,107c11,13,19,10,57-19c55-42,157-75,233-75c73,0,137,31,163,80c19,38,25,120,7,120c-25,0-46-22-59-60
		c-18-54-32-64-86-57c-199,22-263,435-86,548c37,23,57,29,103,29c55,0,57-1,68-31c6-18,11-64,11-103c1-141,26-236,63-236
		c17,0,0,218-26,341c-34,151-48,268-40,325l6,46l33-72c45-97,154-207,250-252c135-64,254-37,324,72l32,50l-22,52
		c-52,120-64,187-85,453c-25,313-32,337-232,805c-183,427-226,509-328,618c-123,131-120,122-119,352c2,253,19,443,50,541
		c43,136,254,527,380,704c23,33,64,85,91,116c26,31,67,80,91,108c29,35,55,54,82,62c25,8,40,18,40,28c0,36,53,126,107,183
		c32,33,117,104,188,158c72,53,136,104,143,112c8,10,37,19,75,23c80,8,357,64,377,76C7324,12309,7055,12311,6985,12304z M6652,12162
		c-33-45-110-113-235-206c-124-91-207-162-207-177c0-12,37-11,45,1c3,5,20,19,38,32l31,23l-23-40c-37-61-137-210-209-309
		c-229-317-336-524-399-769c-23-92-26-126-30-337l-5-235l-46,90c-25,50-94,193-154,319c-113,241-191,385-264,492c-24,35-44,68-44,72
		c0,5,12,15,27,23c14,8,51,48,81,89s69,90,86,108c30,33,104,78,112,69c8-7-31-97-101-236c-36-72-65-133-65-136s9-5,19-5
		c33,0,70,58,99,152c25,84,36,102,166,275c155,208,308,368,429,451c71,49,244,138,252,130c2-1-46-48-107-103
		c-357-325-538-570-636-860c-55-164-48-169,32-23c206,377,330,554,520,743c159,157,327,274,513,355c48,22,89,39,91,39
		C6670,12190,6662,12177,6652,12162z M5600,11576c0-7-27-39-60-73c-56-56-61-59-71-41c-9,17-3,27,45,74c31,29,56,59,56,65
		c0,8,4,8,15-1C5593,11593,5600,11582,5600,11576z M4440,9970c19-10,40-59,40-96c0-22-1-23-35-8c-66,27-143,11-182-39
		c-23-30-33-26-33,12C4230,9921,4369,10008,4440,9970z M3089,9343c25-15,29-22,24-43c-9-39-46-108-107-197c-52-79-97-185-83-199
		c10-11,56,24,77,59c11,18,34,66,51,107c57,141,79,180,111,196c17,9,41,13,54,10c20-5,23-11,18-39c-12-69-29-103-89-182
		c-35-45-70-96-79-113c-18-34-21-99-6-122c18-28,75,51,120,167c62,161,96,205,169,219c31,6,31,6,25-27c-3-19-45-115-94-214
		c-90-182-110-235-89-235c25,0,69,65,110,162c44,104,84,162,119,171c16,4,22-2,29-29c12-44,0-85-45-154c-52-79-73-122-80-169
		c-5-29-3-41,5-41c21,0,51,43,84,120c26,61,39,78,66,92c41,21,51,16,51-23c0-33-20-77-58-127c-30-40-35-99-10-115c15-10,25-4,61,31
		c46,45,58,50,76,29c8-10,7-22-1-45c-15-40-3-79,58-180c60-99,92-179,100-246c6-52,5-56-14-56c-28,0-78,44-102,89
		c-11,20-28,47-39,61l-19,24l-66-22c-78-26-107-19-132,30c-54,106-203,270-447,494l-108,99l15,41c26,75,191,394,203,394
		C3053,9360,3072,9352,3089,9343z M4641,9223c30-18,55-73,45-99c-5-13-9-13-28,0c-13,7-41,17-63,21c-52,9-85,30-85,56
		C4510,9239,4591,9252,4641,9223z M4656,9056c94-63,134-138,137-261c2-58-1-69-13-66c-41,11-142,12-174,1c-20-6-51-30-71-53
		c-27-31-38-38-47-29s-8,20,5,47c9,20,17,48,17,63l-1,27l-19-24c-11-13-23-40-26-61c-9-55-18-67-39-50c-53,44-55,115-7,204
		c24,44,100,117,134,128c14,5,2,28-16,28c-7,0-36-18-64-40c-27-22-52-40-56-40c-3,0-10,9-17,21c-16,31,13,99,62,143l39,36l52-20
		C4580,9100,4627,9075,4656,9056z M4207,8968c5-7,26-79,47-160c20-81,84-297,142-480c99-315,158-526,184-665l12-61l-67-79
		c-38-44-83-110-103-152c-32-67-36-83-35-155c0-51,6-98,17-125l17-45l-27,25c-79,74-102,166-114,467c-15,363-58,772-115,1081
		c-37,201-31,361,14,361C4189,8980,4202,8974,4207,8968z M4746,8679c15-25,22-82,13-114c-13-46-49-87-98-111c-41-19-45-25-79-106
		c-19-43-54-70-70-53c-4,4-6,53-6,110c3,153,37,240,108,271C4652,8692,4736,8694,4746,8679z M5750,8550c0-27-3-30-30-30s-30,3-30,30
		s3,30,30,30S5750,8577,5750,8550z M4728,8418c25-25,5-125-33-168c-13-14-11-23,10-75c28-67,30-96,14-161c-12-47-29-55-71-33
		c-17,9-19,19-16,72l3,62l-36,3l-35,3l7,62c10,83,92,247,124,247C4706,8430,4721,8425,4728,8418z M6275,8268c56-26,94-132,103-296
		l7-112h-101h-101l-27,100c-15,54-29,129-33,165c-6,63-5,67,23,97c25,27,75,56,96,58C6246,8280,6261,8275,6275,8268z M4790,7765
		c0-16-4-68-10-115c-31-280-58-688-90-1360c-44-951-61-1175-98-1278c-30-86-31-103-21-617c4-227,3-244-18-311c-29-90-89-161-164-193
		c-48-21-52-21-70-5c-45,40-48,112-14,293c58,307,144,1032,355,2976c39,358,73,661,76,674l5,25l24-30C4778,7808,4789,7782,4790,7765
		z M4594,7450c47-57,47-147-1-358c-21-92-32-122-43-120c-24,5-75,82-94,142c-25,78-19,213,12,273c19,36,75,93,94,93
		C4565,7480,4580,7466,4594,7450z M4838,7198c62-67,54-211-15-256l-23-14v146c0,80,4,146,8,146C4813,7220,4826,7210,4838,7198z
		 M4434,6880c42-27,87-52,101-56c28-7,29-16,15-95c-5-30-26-171-45-314c-42-311-54-374-66-354c-14,26-47,210-53,299
		c-4,47-11,164-17,260c-5,96-16,205-23,243c-10,52-10,67-1,67C4352,6930,4392,6908,4434,6880z"/>
	<path d="M5961,11554c-285-323-403-563-418-854c-6-132,4-137,31-15c82,364,187,594,352,765c83,87,123,151,112,179
		C6036,11634,6002,11600,5961,11554z"/>
	<path d="M8730,12205c0-24,28-75,69-125c59-71,68-91,75-158c3-34,22-133,43-220l37-157l6-350c6-318,9-356,27-410l21-60l1,405
		c1,549-19,713-109,897C8842,12144,8730,12261,8730,12205z"/>
	<path d="M7913,12073c-320-463-503-868-574-1278c-17-93-38-409-23-335c125,615,387,1300,497,1300c11,0,26-8,33-17c12-16,13-13,14,25
		c0,44,13,76,59,147l26,40l5-95c9-164-8-375-56-723l-7-48l26,12c34,15,44,43,63,174c22,161,33,885,12,885
		C7980,12160,7947,12121,7913,12073z"/>
	<path d="M9137,12138c20-26,122-287,166-423c24-77,57-203,73-280c26-127,29-158,29-345c0-194-12-305-42-387c-13-36,38,20,62,67
		c35,70,47,160,47,340c-1,342-68,644-191,866c-40,71-124,174-143,174C9131,12150,9131,12146,9137,12138z"/>
	<path d="M7740,12072c-97-72-212-200-378-420c-288-382-421-608-502-854c-36-108-83-333-66-317c3,3,37,88,75,190
		c97,260,125,327,186,453c101,209,217,356,340,427c52,31,59,39,79,94c27,74,83,157,172,255c112,122,186,220,168,220
		C7809,12120,7776,12098,7740,12072z"/>
	<path d="M6840,11903c-391-398-763-1081-846-1553c-21-124-4-198,55-229c15-9,17,1,19,114c5,353,120,684,368,1063
		c77,118,171,245,379,512C7024,12080,7028,12094,6840,11903z"/>
	<path d="M8380,12007c0-5,15-81,34-170c51-238,56-272,56-373c0-118,16-185,52-226l29-33l-5,35c-4,19-15,122-26,228
		c-22,207-39,307-69,394C8432,11918,8381,12021,8380,12007z"/>
	<path d="M8214,11930c3-30,8-86,11-125c8-81,30-158,51-176c13-11,14-6,10,37c-3,27-8,83-11,124c-8,96-20,142-46,172l-20,23
		L8214,11930z"/>
	<path d="M8092,11846c4-166,23-170,23-4c0,90-3,122-13,126C8092,11971,8090,11945,8092,11846z"/>
	<path d="M9070,11906c0-8,5-50,11-93c10-74,83-318,98-328c9-5-25,210-45,287c-16,62-50,148-59,148C9072,11920,9070,11914,9070,11906
		z"/>
	<path d="M7269,11827c-321-357-503-662-583-977c-13-52-27-126-30-165l-6-70l24,85c93,326,255,619,533,964c35,44,75,99,89,122
		c27,45,47,104,36,104C7328,11889,7300,11861,7269,11827z"/>
	<path d="M9483,11765c4-36,15-84,26-108l19-42l1,65c1,61-26,150-45,150C9480,11830,9480,11801,9483,11765z"/>
	<path d="M9885,11760c4-14,12-28,17-31c25-16,148-414,148-478c0-11-12-24-30-31c-37-15-80-48-80-61c0-5,19-9,43-9c54,0,62-6,76-55
		c24-87,13-149-55-297c-31-69-44-110-44-143c0-25,3-45,8-45c16,0,78,109,104,185c35,104,48,186,48,316c0,133-23,267-65,387
		c-35,98-105,220-150,262l-27,25L9885,11760z"/>
	<path d="M10105,11681c16-28,43-69,61-89c28-32,33-34,34-16c0,29-52,107-90,134l-33,24L10105,11681z"/>
	<path d="M10320,11599c0-4,7-26,16-50c8-24,33-133,55-241c22-109,46-216,54-237c13-39,13-40-44-143c-58-104-134-228-365-596
		c-367-585-504-921-547-1337c-31-311,33-522,185-610c87-49,94-42,29,29c-70,76-134,191-157,283c-38,145-29,369,20,554
		c53,201,156,438,324,746c108,199,182,315,354,558c186,263,249,414,249,595c0,114-21,208-68,305
		C10395,11515,10321,11617,10320,11599z"/>
	<path d="M8266,11515c3-22,1-87-3-145c-10-128-3-178,27-202c13-10,24-17,25-16c4,4-12,233-20,310c-4,31-13,65-20,75
		C8263,11553,8262,11550,8266,11515z"/>
	<path d="M7746,11523c-3-3-6-17-6-30c0-14-13-55-30-93c-33-75-36-103-16-139c13-23,13-22,19,20c3,24,18,80,32,124s25,87,25,97
		C7770,11521,7756,11533,7746,11523z"/>
	<path d="M9772,10863c-23-176-28-328-12-353c7-11,10-3,10,29c0,24,12,107,26,185c19,103,25,159,21,208
		C9806,11057,9795,11039,9772,10863z"/>
	<path d="M7150,10980c-20-37-23-113-6-135c15-19,15-18,16,17c0,21,7,53,16,72C7201,10985,7176,11028,7150,10980z"/>
	<path d="M8270,10893c0-27-7-82-16-123c-17-84-13-114,17-131c20-10,21-9,15,19c-4,16-2,58,4,93c21,117,23,158,10,174
		C8279,10951,8270,10942,8270,10893z"/>
	<path d="M9202,10745c-20-44-15-154,10-205l22-45l8,85c17,161,16,185-8,188C9220,10770,9210,10763,9202,10745z"/>
	<path d="M6995,10550c-44-139-111-421-163-681c-29-144-58-261-70-286c-29-56-29-91,0-102c56-20,80,30,86,179c2,63,8,120,13,126
		c21,26,49,131,74,278c25,151,33,182,89,370c29,99,33,153,12,181C7023,10633,7020,10627,6995,10550z"/>
	<path d="M7933,10473c-22-178-66-316-196-613c-91-210-97-226-122-342c-16-77-25-90-79-123c-24-14-57-146-58-230c-1-68,16-126,31-109
		c4,5,18,52,31,104c32,134,87,287,203,565c163,394,244,647,250,786c2,51,1,54-23,57C7945,10571,7944,10569,7933,10473z"/>
	<path d="M8946,10487c-32-32-44-78-57-212c-10-105-19-157-34-200c-5-14,1-11,19,10c14,17,33,51,42,77c16,49,66,339,59,346
		C8973,10510,8960,10501,8946,10487z"/>
	<path d="M7750,10424c-12-31-45-83-72-115c-47-56-47-59-27-69c62-34,139,63,139,174C7790,10483,7776,10486,7750,10424z"/>
	<path d="M9157,10424c-3-33-19-92-36-133c-35-84-38-112-14-137c17-16,19-12,50,82c34,106,41,183,19,223
		C9164,10481,9163,10479,9157,10424z"/>
	<path d="M9762,10292c-139-313-245-618-306-884c-47-205-65-334-72-513c-10-236,20-415,95-570c36-75,120-200,128-191
		c2,2-14,47-36,100c-54,130-105,291-132,416c-19,88-23,137-23,300c-1,270,3,285,197,852c41,119,78,242,82,273c5,45,14,64,50,106
		c79,93,130,227,91,242C9826,10427,9805,10390,9762,10292z"/>
	<path d="M8200,10381c0-55,8-71,37-71c24,0,25,3,20,36c-6,35-31,74-49,74C8204,10420,8200,10402,8200,10381z"/>
	<path d="M9306,10327c9-60-12-201-42-293c-14-43-49-134-78-203c-56-130-90-233-84-252c6-17,185,359,208,435c11,39,27,111,35,160
		c25,151,18,196-27,196C9303,10370,9301,10364,9306,10327z"/>
	<path d="M9615,10288c-12-45-40-104-79-168c-62-102-96-182-96-222c0-21,4-38,9-38s30,51,56,113c26,61,69,151,97,199
		c47,84,57,127,31,135C9627,10309,9619,10301,9615,10288z"/>
	<path d="M6695,10288c-3-7-23-80-45-163c-30-113-40-168-40-225c1-98,12-80,57,98c32,128,55,302,39,302
		C6702,10300,6697,10294,6695,10288z"/>
	<path d="M6530,10230c0-11-14-48-31-81c-34-69-40-113-16-137c20-19,16-23,52,58c35,79,42,172,13,178
		C6535,10250,6530,10245,6530,10230z"/>
	<path d="M9022,10012c-30-15-33-20-30-56c2-22,8-41,13-43c8-2,59,107,52,113C9056,10027,9040,10020,9022,10012z"/>
	<path d="M8550,9967c0-31-11-86-29-137c-28-83-27-105,5-79c47,39,82,196,55,247C8562,10034,8550,10023,8550,9967z"/>
	<path d="M8810,9916c0-53,4-77,15-86c13-10,15-9,15,11c0,13,7,45,16,70c20,55,14,79-21,79C8811,9990,8810,9988,8810,9916z"/>
	<path d="M8030,9805c0-11-18-47-40-79c-22-33-39-64-37-69c2-6,13-17,25-25c20-13,22-12,47,44c35,79,39,105,21,129l-15,20L8030,9805z
		"/>
	<path d="M9290,9538c-108-498-144-769-144-1073c1-288,32-453,119-630c40-80,139-214,165-223c5-2-8,26-29,62c-75,128-137,313-173,516
		c-31,177-32,560-1,760c30,190,68,353,118,508l43,132h-43h-43L9290,9538z"/>
	<path d="M8411,9445c-40-35-91-138-91-187c0-25,4-37,11-33c13,9,127,245,118,245C8445,9470,8428,9459,8411,9445z"/>
	<path d="M8928,9310c-237-476-290-954-151-1340c15-41,29-68,31-59c1,9-9,110-23,225c-33,263-42,463-26,573c16,109,45,195,135,398
		c80,182,120,298,114,335C9006,9459,8983,9422,8928,9310z"/>
	<path d="M8232,9068c-84-149-168-429-207-688c-21-140-39-535-25-560c6-12,21-20,36-20c22,0,25,4,21,23c-4,12-11,74-18,137
		c-30,299,45,685,184,950c58,110,73,156,62,190C8275,9131,8264,9124,8232,9068z"/>
	<path d="M6737,8978c-61-58-94-146-122-318c-27-170-36-292-36-490c0-303,22-494,126-1093c68-397,91-563,104-745c6-78,13-147,16-152
		c12-20,37-9,48,20c20,54,28,40,65-125c23-104,23-383-1-495c-52-241-182-499-349-693c-28-31-47-57-44-57c16,0,116,56,172,96
		c131,92,188,182,243,378c63,225,76,331,76,651c0,259-3,303-23,410c-23,124-92,359-99,339c-2-6,13-74,33-150c48-185,56-298,24-372
		c-12-28-26-52-31-52c-4,0-10,71-12,158l-4,157l-50,145c-204,587-289,1445-197,2000c19,118,57,270,88,355c13,36,20,65,15,65
		C6775,9010,6756,8995,6737,8978z"/>
	<path d="M11013,8901c-130-21-304-93-431-180c-87-59-237-188-313-268l-66-70l-9,36c-6,25-15,37-30,39c-20,3-22-3-26-71
		c-4-62-11-85-43-142c-42-76-40-77,55-22c33,19,128,105,242,219c279,277,367,327,583,336c197,7,294-30,509-193
		c179-136,160-127,152-75c-24,153-165,307-336,366C11225,8903,11095,8914,11013,8901z"/>
	<path d="M7535,8799c-108-129-167-390-134-588c17-97,29-98,29-2s25,228,76,403c47,161,63,218,59,218C7563,8830,7550,8816,7535,8799z
		"/>
	<path d="M8901,8634c-44-55-53-115-58-366c-10-425,14-525,204-855c93-162,120-231,144-376c23-143,42-199,83-245l29-33l-35-37
		c-67-69-97-156-144-411c-22-123-45-215-71-290c-10-27,47,30,72,74c27,46,59,157,75,265c27,183,56,276,101,333l31,38l-16,117
		c-23,162-74,410-146,717c-107,457-161,758-177,985c-9,142-21,95-22-90c-1-146,11-253,49-455c63-332,72-389,76-510l5-130l-26,60
		c-134,304-203,702-176,1013c7,75,16,156,20,180c5,23,7,42,5,42C8923,8660,8912,8648,8901,8634z"/>
	<path d="M8450,8574c-19-89-8-223,21-281c31-60,50-68,38-16c-5,21-9,79-9,128c0,98-14,203-29,218C8465,8629,8457,8610,8450,8574z"/>
	<path d="M2891,8535c-2-75-24-192-72-370c-37-137-43-174-43-260c0-66,4-110,14-130l14-30l4,30c2,17,24,127,49,245
		c47,230,66,441,45,525l-10,40L2891,8535z"/>
	<path d="M7761,8453c-21-102-24-131-17-158c9-36,26-31,26,7c0,18,12,68,26,111c21,62,23,81,14,92C7787,8533,7775,8520,7761,8453z"/>
	<path d="M7157,8133c-14-13-6-91,14-154c43-130,48-118,20,44C7171,8134,7168,8145,7157,8133z"/>
	<path d="M11240,8102c-21-20-43-55-49-77c-7-22-16-128-20-235c-10-237-26-286-102-326c-26-13-29-11-97,56c-55,53-92,79-164,113
		c-106,51-158,65-269,74l-79,6v-25c0-25,27-58,47-58c6,0,23-10,38-21c23-19,26-27,20-56c-8-45,18-133,47-160c13-12,35-25,51-28
		c23-6,27-4,27,14c0,12-7,33-16,46c-16,25-13,60,5,53c18-6,112-143,118-170c5-24,10-28,41-28c20,0,62-5,94-12c55-11,59-11,82,11
		l25,24l31-26c42-36,119-57,207-57c67,0,73,2,73,21c0,11,14,33,30,47c18,16,30,36,30,52c0,25,0,25-95,25c-84,0-97,2-117,22l-22,22
		l27,55c43,87,57,160,67,342c10,172,20,245,39,297c14,37,14,37-10,37C11287,8140,11261,8123,11240,8102z"/>
	<path d="M9602,7971c-23-14-9-45,28-63c19-9,38-17,43-18c9,0,9,51-1,67S9618,7982,9602,7971z"/>
	<path d="M7403,7779c9-261,25-384,118-877c92-491,126-751,130-1002c2-135,2-135-31-200c-18-36-48-89-66-118c-40-61-40-63-14-80
		c42-26,14-132-50-186c-17-14-40-26-51-26c-17,0-19,7-19,63c0,34,7,89,15,122c22,90,19,175-6,175c-5,0-9-24-9-52c0-29-15-128-34-219
		c-44-210-52-295-36-344c13-38,13-38,25-14c7,13,20,56,30,96c16,68,21,76,93,150c122,124,204,284,271,528c31,110,141,561,141,577
		c0,4-15,8-33,8c-60,0-91-50-102-165c-10-113-24-163-52-185c-14-11-30-20-34-20c-5,0-9,39-9,88c0,187-34,460-109,882
		c-71,402-95,570-110,800c-10,151-13,160-43,179l-21,13L7403,7779z"/>
	<path d="M8527,7888c2-35,16-157,29-273c50-430,56-504,57-670c1-242-31-402-107-527c-20-34-35-75-39-106c-3-28-16-84-28-124
		c-22-75-28-153-11-170c11-11,56,93,105,247c153,470,175,934,67,1430c-22,98-67,255-74,255C8524,7950,8524,7922,8527,7888z"/>
	<path d="M6964,7710c5-196,8-217,91-641c113-571,133-965,90-1754c-6-109,4-88,40,85c69,333,72,689,9,1130c-23,162-49,310-140,800
		c-19,102-48,271-64,375l-30,190L6964,7710z"/>
	<path d="M6830,7780c-10-7-12-12-4-17c20-14,32-48,43-122c9-71,23-102,38-88c11,12-14,187-32,213C6858,7793,6852,7794,6830,7780z"/>
	<path d="M8673,7779c3-8,17-50,31-94c92-295,108-693,46-1126c-42-288-128-604-207-762c-13-27-22-52-19-55c8-7,117,223,160,339
		c112,303,176,704,162,1019c-12,277-61,517-131,636C8690,7778,8661,7808,8673,7779z"/>
	<path d="M7830,7613c0-9-12-29-27-45c-14-15-25-29-22-31c10-8,98-57,102-57c10,0,7,123-4,136C7863,7636,7830,7634,7830,7613z"/>
	<path d="M7692,7511c4-49,24-185,43-302c27-165,35-242,35-343c1-247,26-339,104-379c38-20,39-20,52-2c31,42,38,95,41,315
		c4,186,2,223-9,212c-10-10-13-57-13-187c0-160-2-175-21-202c-12-15-30-29-42-31c-24-4-28,11-37,143c-10,147-44,408-70,542
		c-26,136-76,323-85,323C7687,7600,7688,7560,7692,7511z"/>
	<path d="M6300,7525c0-5,7-95,15-200c23-311,65-1227,65-1437v-86l-42-41l-43-40l-1-363c0-305-3-375-18-438c-19-85-60-165-100-195
		c-28-20-28-20-42,0c-10,14-15,42-14,90c2,103,1,117-9,111c-14-9-24-354-11-413c7-29,15-53,18-53c4,0,7,37,7,82c0,79,1,83,23,86
		c13,2,37-2,53-8c41-18,74-6,93,33c24,52,74,318,97,512c36,323,40,920,10,1470c-7,110-16,324-20,475c-8,244-11,281-30,331
		C6330,7496,6301,7544,6300,7525z M6384,5643c10-25-5-163-18-163c-36,1-42,21-38,128c2,48,4,52,26,52C6367,5660,6381,5653,6384,5643
		z"/>
	<path d="M7227,7408c7-133,39-365,88-638c69-391,86-537,86-750c0-184,0-185,19-162c35,42,44,98,30,187c-31,207-38,281-33,324
		c3,28-3,89-16,155c-12,60-37,224-56,365c-20,141-44,303-56,361c-19,102-56,240-63,240C7224,7490,7224,7453,7227,7408z"/>
	<path d="M8083,7429c-13-4-21-14-18-21c14-41,127-450,149-538c89-362,103-665,41-900c-28-110-33-222-10-276l15-36l28,20
		c40,29,117,114,136,150s21,92,4,92c-6,0-40-29-75-65c-88-91-101-88-72,13c37,129,52,283,46,472c-9,292-60,563-164,869
		c-36,109-44,142-38,176C8132,7432,8121,7443,8083,7429z"/>
	<path d="M8900,7330c0-35,32-100,48-100c17,0-5,91-27,113l-21,21V7330z"/>
	<path d="M8966,7125c3-22,9-101,13-175c19-399-62-763-235-1057c-18-30-18-32-1-51c25-27,21-71-10-117c-27-40-34-88-16-106
		c10-10,56,105,165,416c142,407,177,695,119,985C8980,7121,8954,7202,8966,7125z"/>
	<path d="M8041,7087c-1-5,7-63,16-130c27-192,24-625-6-817c-63-408-186-742-358-971c-29-39-53-73-53-75c0-17,93,52,144,107
		c139,150,250,446,322,857c45,258,43,494-6,774C8080,6942,8043,7103,8041,7087z"/>
	<path d="M6560,6921c0-67,9-150,29-253c19-106,27-172,23-215c-6-80,2-107,33-121c31-15,31-30,0,245c-33,294-60,443-80,443
		C6562,7020,6560,6975,6560,6921z"/>
	<path d="M6130,6927c0-2,9-30,20-62c31-90,48-201,70-455c10-129,26-274,35-322c15-85,49-193,66-213c23-24-1,194-51,475
		c-17,96-35,237-40,312c-14,205-34,268-82,268C6138,6930,6130,6928,6130,6927z"/>
	<path d="M5645,6488c22-138,47-166,43-46c-3,79-4,83-27,86C5639,6532,5638,6530,5645,6488z"/>
	<path d="M5176,6323c-3-3,0-17,5-32c6-14,44-145,85-290c41-146,91-308,111-360c37-101,101-236,108-229c8,8-54,226-110,383
		c-31,88-72,203-90,255c-29,82-33,103-28,157c4,47,2,68-10,86C5233,6315,5187,6334,5176,6323z"/>
	<path d="M5065,6109c11-50,33-99,44-99c15,0,33,38,27,58c-3,9-22,30-42,46l-36,29L5065,6109z"/>
	<path d="M6640,6065c0-104-28-444-46-570c-9-60-26-149-38-198c-19-76-20-86-6-67c40,54,89,244,111,429c14,124,8,427-9,456
		C6643,6132,6641,6123,6640,6065z"/>
	<path d="M12076,6089c-32-11-82-35-110-53c-50-32-152-133-144-142c11-10,134,32,238,83c63,30,144,69,179,86c53,25,61,32,45,38
		C12246,6116,12136,6110,12076,6089z"/>
	<path d="M6837,6000c-60-463-86-590-147-715c-21-44-37-81-36-82c1-2,21,13,44,33c105,90,158,330,150,684
		C6845,6051,6844,6059,6837,6000z"/>
	<path d="M6005,5788c-15-99,28-334,72-392c15-20,15-20,8-1c-4,11-10,92-12,180c-5,170-12,212-43,240C6012,5831,6011,5830,6005,5788z
		"/>
	<path d="M8389,5578c-30-36-65-85-77-107l-23-41h22c33,0,94,70,118,136c12,31,20,62,18,67C8445,5639,8419,5614,8389,5578z"/>
	<path d="M8140,5550c0-12-15-61-34-109c-53-133-53-132-17-120c42,15,93,75,130,152c35,72,41,108,16,87c-14-12-42-10-77,5
		C8144,5571,8140,5567,8140,5550z"/>
	<path d="M5840,5477c0-3,4-28,10-54c5-26,16-106,25-178c15-139,35-218,60-250c15-19,16-19,11,10c-3,17-8,84-11,150
		c-7,140-20,216-45,266C5873,5453,5840,5491,5840,5477z"/>
	<path d="M11981,5270c-24-5-71-22-105-38c-55-26-104-62-336-252c-41-33-103-75-138-92c-34-17-61-32-60-33c4-4,250,14,274,20
		c13,3,36,30,60,72c78,134,207,233,321,249c52,6,148-10,158-27c15-23-87-173-155-228l-40-32l-28,21c-15,11-55,26-89,32
		c-53,10-68,9-106-6c-25-9-51-23-57-31c-9-11-4-15,27-20c21-4,92-17,158-30l120-23l55,47c116,98,195,178,232,236l39,59l-33,18
		C12177,5266,12066,5287,11981,5270z"/>
	<path d="M11277,4782l-38-17l53-19c71-25,130-64,273-180c132-107,210-151,297-166c64-12,153-1,224,28c40,16,42,18,47,72
		c9,80-7,178-33,205c-25,26-69,38-87,23s-16-73,6-142c10-32,16-69,13-81c-5-30-46-45-121-45c-88,0-141,32-285,167
		C11446,4796,11376,4827,11277,4782z"/>
	<path d="M11952,4208c-77-154-97-225-89-333c9-118,29-163,132-293c50-62,60-108,40-185c-34-131-145-256-297-332
		c-135-68-206-80-448-79c-223,1-303,10-710,84c-292,52-421,70-575,77c-190,8-331-23-411-90c-30-26-31-29-38-134
		c-26-407-105-708-273-1035l-65-127l-56,44c-80,61-156,97-349,164c-92,33-257,91-367,130c-949,341-1804,484-2441,411
		c-222-25-497-97-645-169c-36-17-56-29-46-26c112,32,447,85,661,106c190,18,607,16,795-5c539-58,1065-189,1710-426
		c164-61,607-233,700-273l35-15l-7-135c-8-170-28-251-71-294l-32-32l-67,19c-226,63-572,49-730-30c-65-33-98-68-98-104
		c1-46,40-115,90-157c44-37,552-289,856-424c339-151,734-296,994-365c69-18,133-40,144-49c10-9,36-40,58-68c43-59,76-73,113-49
		c21,14,23,19,14,46c-14,38-75,93-136,120c-26,12-115,41-198,64c-338,97-696,240-1145,456c-135,65-281,133-325,150
		c-171,67-268,139-307,228l-21,46l31,27c63,57,203,74,497,62l209-8l21-32c11-18,29-47,40-64c25-40,41-46,50-20c4,13,21,25,46,32
		c38,12,43,10,176-53c180-86,279-119,375-126c84-5,150,12,182,47c16,17,13,18-71,25c-223,18-463,91-605,186c-38,26-48,38-48,60
		c0,78,71,350,91,350c6,0,89-37,183-83c282-137,392-219,550-411c46-56,92-109,103-119c20-18,21-17,27,18c5,23,1,57-9,92
		c-13,46-28,68-78,117c-65,64-294,215-614,404l-172,102l38,92c21,51,58,136,81,188c169,378,228,573,250,835c8,88,16,135,26,146
		c8,9,43,29,77,45c55,25,73,28,162,27c70,0,137-8,225-28c323-70,412-85,642-106c280-25,610-30,733-11c44,7,118,23,163,34l84,21
		l88,91c207,215,250,282,258,404c6,96-10,136-103,258c-82,106-111,159-120,219c-6,36,1,54,59,168c36,70,66,140,66,156
		c0,24-25,61-41,61C12016,4330,11986,4275,11952,4208z"/>
	<path d="M5307,3223c-14-215-94-383-258-538c-97-91-180-147-429-290c-222-127-370-224-399-261c-21-26-62-124-83-194
		c-11-38-20-49-61-71c-67-36-81-52-73-84c8-31,14-30,95,18c32,19,104,85,180,166c110,116,162,160,401,340c209,157,296,216,360,245
		c108,48,141,74,197,150c102,137,171,331,159,449c-7,71-49,157-76,157C5316,3310,5310,3271,5307,3223z"/>
	<path d="M3735,3005c54-162,90-331,111-530c20-188,14-670-10-870c-49-395-105-670-207-1021l-41-141l-123-62c-67-33-146-65-175-71
		c-29-5-130-10-224-10c-207,0-273-9-415-55c-143-46-250-59-436-52c-173,7-517,55-620,88c-84,26-144,28-179,5c-43-27-43-27,104-83
		c195-74,528-104,920-84c244,13,751,48,793,56c49,8,211,92,319,164c183,123,339,285,458,476c70,114,116,164,250,276
		c107,89,156,153,167,219c9,50,6,120-5,120c-4-1-18-24-31-53c-24-52-90-121-339-359c-97-94-104-103-161-220c-32-68-71-135-86-150
		c-28-28-62-44-73-34c-6,6,26,201,108,671c113,648,132,1009,69,1318c-31,153-102,326-164,402l-17,20L3735,3005z"/>
	<path d="M4934,2343c-37-169-134-348-263-486c-77-83-312-269-420-333c-14-8-38-41-53-72c-16-34-62-96-113-152
		c-132-145-164-204-136-249c14-22,86,41,168,146c38,48,103,130,145,184c88,111,156,170,245,210c37,17,70,41,84,61
		c13,17,77,88,142,157c66,69,137,149,158,176c74,98,118,210,133,338l6,47h-45C4944,2370,4940,2367,4934,2343z"/>
</g>
</svg>
