<?xml version="1.0" encoding="utf-8"?>
<!-- Generator: Adobe Illustrator 17.0.0, SVG Export Plug-In . SVG Version: 6.00 Build 0)  -->
<!DOCTYPE svg PUBLIC "-//W3C//DTD SVG 1.1//EN" "http://www.w3.org/Graphics/SVG/1.1/DTD/svg11.dtd" [
	<!ENTITY ns_flows "http://ns.adobe.com/Flows/1.0/">
	<!ENTITY ns_extend "http://ns.adobe.com/Extensibility/1.0/">
	<!ENTITY ns_ai "http://ns.adobe.com/AdobeIllustrator/10.0/">
	<!ENTITY ns_graphs "http://ns.adobe.com/Graphs/1.0/">
]>
<svg version="1.1" id="Layer_1" xmlns:x="&ns_extend;" xmlns:i="&ns_ai;" xmlns:graph="&ns_graphs;"
	 xmlns="http://www.w3.org/2000/svg" xmlns:xlink="http://www.w3.org/1999/xlink" xmlns:a="http://ns.adobe.com/AdobeSVGViewerExtensions/3.0/"
	 x="0px" y="0px" width="256px" height="256px" viewBox="0 0 256 256" style="enable-background:new 0 0 256 256;"
	 xml:space="preserve">
<g>
	<g>
		<path d="M250.1,247.6h-18.8V140.1c9.2-0.3,16.5-7.8,16.5-17v-19.2c0,0,0,0,0,0c0-0.1,0-0.2,0-0.2c0-0.1,0-0.1,0-0.2
			c0-0.1,0-0.1,0-0.2c0-0.1,0-0.1,0-0.2c0-0.1,0-0.1-0.1-0.2c0-0.1,0-0.1-0.1-0.2c0-0.1,0-0.1-0.1-0.2c0-0.1-0.1-0.1-0.1-0.2
			c0-0.1-0.1-0.1-0.1-0.2c0-0.1-0.1-0.1-0.1-0.2c0,0-0.1-0.1-0.1-0.1c0-0.1-0.1-0.1-0.1-0.2c0,0-0.1-0.1-0.1-0.1
			c-0.1-0.1-0.1-0.1-0.2-0.2c0,0,0,0,0,0L218,67.8c1.6-1.3,2.5-3.3,2.5-5.5v-8.6c0-4-3.2-7.2-7.2-7.2H160l0-6.5
			c8-0.3,16-1.9,23.9-4.9c0.8-0.3,1.6-0.8,2.1-1.5c1-1.4,1.1-3.2,0.2-4.6c-0.3-0.6-0.9-1.3-2-1.7l0,0c-0.3-0.1-0.5-0.2-0.8-0.3
			c0,0,0,0,0,0c-4.8-1-11.4-3-15.7-5.3c-5.4-2.9-7.8-6.7-10.2-10.5c-2.8-4.3-5.9-9.2-13-10.6c-2.6-0.5-9.1-1.3-14.5,2.9
			c-0.7,0.6-1.4,1.2-1.9,1.8c-0.6-0.6-1.2-1.2-1.9-1.8c-5.4-4.2-11.9-3.4-14.5-2.9c-7.1,1.5-10.2,6.4-13,10.6
			c-2.4,3.7-4.9,7.6-10.2,10.5c-4.3,2.3-11,4.3-15.7,5.3c0,0,0,0,0,0c-0.3,0.1-0.6,0.1-0.8,0.3l0,0c-1,0.4-1.6,1.1-2,1.7
			C69,30.3,69,32.1,70,33.4c0.5,0.7,1.3,1.3,2.1,1.5C80,38,88,39.6,96,39.9L96,46.4H42.7c-4,0-7.2,3.2-7.2,7.2v8.6
			c0,2.5,1.3,4.7,3.2,6L9.7,101.1c0,0,0,0,0,0c-0.1,0.1-0.1,0.1-0.2,0.2c0,0-0.1,0.1-0.1,0.1c0,0.1-0.1,0.1-0.1,0.2
			c0,0.1-0.1,0.1-0.1,0.2c0,0.1-0.1,0.1-0.1,0.2c0,0.1-0.1,0.1-0.1,0.2c0,0.1-0.1,0.1-0.1,0.2c0,0.1,0,0.1-0.1,0.2
			c0,0.1,0,0.1-0.1,0.2c0,0.1,0,0.1-0.1,0.2c0,0.1,0,0.1,0,0.2c0,0.1,0,0.1,0,0.2c0,0.1,0,0.1,0,0.2c0,0.1,0,0.2,0,0.2
			c0,0,0,0,0,0.1v19.2c0,9.4,7.6,17,17,17c5.1,0,9.7-2.3,12.8-5.8c3.1,3.6,7.7,5.8,12.8,5.8c5.1,0,9.7-2.3,12.8-5.8
			c3.1,3.6,7.7,5.8,12.8,5.8c5.1,0,9.7-2.3,12.8-5.8c3.1,3.6,7.7,5.8,12.8,5.8c5.1,0,9.7-2.3,12.8-5.8c3.1,3.6,7.7,5.8,12.8,5.8
			c5.1,0,9.7-2.3,12.8-5.8c3.1,3.6,7.7,5.8,12.8,5.8c5.1,0,9.7-2.3,12.8-5.8c3.1,3.6,7.7,5.8,12.8,5.8c5.1,0,9.7-2.3,12.8-5.8
			c3.1,3.6,7.7,5.8,12.8,5.8c5.1,0,9.7-2.3,12.8-5.8c1.4,1.6,3,2.9,4.9,3.9v109.5h-20.4v-80.1c0-8.4-6.8-15.1-15.1-15.1h-31.1
			c-8.4,0-15.1,6.8-15.1,15.1v80.1H33.1v-91c0-2.3-1.9-4.2-4.2-4.2c-2.3,0-4.2,1.9-4.2,4.2v91H5.9c-2.3,0-4.2,1.9-4.2,4.2
			c0,2.3,1.9,4.2,4.2,4.2h23h116.4h53h28.8h23c2.3,0,4.2-1.9,4.2-4.2C254.3,249.5,252.4,247.6,250.1,247.6z M194.1,247.6h-44.6
			v-80.1c0-3.7,3-6.7,6.7-6.7h31.1c3.7,0,6.7,3,6.7,6.7V247.6z M135.1,10c1.6-1.2,3.5-1.5,5.1-1.5c1.1,0,2,0.2,2.5,0.3c0,0,0,0,0,0
			c3.5,0.7,4.9,2.8,7.6,7c2.7,4.2,6.1,9.4,13.3,13.3c1.2,0.6,2.5,1.2,3.8,1.8c-3.7,0.6-7.3,0.8-11,0.8c-0.2,0-0.5-0.1-0.7-0.1
			c0,0,0,0,0,0c-0.2,0-0.4,0-0.5,0c-5-0.2-9.8-0.4-14.6-3.4c-6.8-4.3-8.4-8.4-8.4-11.2C132.2,16.4,132.2,12.3,135.1,10z M128,28.2
			c1.9,2.4,4.5,4.8,8.2,7c5.4,3.4,10.6,4.2,15.4,4.5l0,6.7h-47.2l0.1-6.7c4.8-0.3,10-1.2,15.4-4.5C123.5,33,126.1,30.6,128,28.2z
			 M88.5,30.7c1.3-0.6,2.6-1.2,3.8-1.8c7.3-3.9,10.6-9.1,13.3-13.3c2.7-4.2,4.2-6.2,7.6-7c0,0,0,0,0,0c1.1-0.2,4.9-0.8,7.6,1.3
			c2.9,2.3,2.9,6.5,2.9,6.9c-0.1,2.7-1.6,6.9-8.4,11.2c-5,3.1-10,3.3-15.2,3.4C96.3,31.6,92.4,31.4,88.5,30.7z M34.3,123.1
			c0,4.7-3.9,8.6-8.6,8.6c-4.7,0-8.6-3.9-8.6-8.6v-15h17.2L34.3,123.1L34.3,123.1z M36.3,99.7H22.2l26.6-30.1h8.2L36.3,99.7z
			 M60,123.1c0,4.7-3.9,8.6-8.6,8.6c-4.7,0-8.6-3.9-8.6-8.6v-15H60L60,123.1L60,123.1z M61.6,99.7h-15l20.8-30.1h9.2L61.6,99.7z
			 M85.6,123.1c0,4.7-3.9,8.6-8.6,8.6c-4.7,0-8.6-3.9-8.6-8.6v-15h17.2L85.6,123.1L85.6,123.1z M86.7,99.7H70.9l14.9-30.1h9.9
			L86.7,99.7z M111.2,123.1c0,4.7-3.9,8.6-8.6,8.6c-4.7,0-8.6-3.9-8.6-8.6v-15h17.2L111.2,123.1L111.2,123.1z M111.6,99.7H95.5
			l9.1-30.1h10.3L111.6,99.7z M136.9,123.1c0,4.7-3.9,8.6-8.6,8.6c-4.7,0-8.6-3.9-8.6-8.6v-15h17.2V123.1z M120.1,99.7l3.2-30.1
			h10.5l2.6,30.1H120.1z M101.4,61.1C101.4,61.1,101.4,61.1,101.4,61.1H65.2c0,0,0,0,0,0H43.9v-6.3h56.2c0,0,0,0,0,0h112v6.3h-20
			c0,0,0,0,0,0H101.4z M142.3,69.5h10.4l8.5,30.1h-16.2L142.3,69.5z M162.5,123.1c0,4.7-3.9,8.6-8.6,8.6c-4.7,0-8.6-3.9-8.6-8.6v-15
			h17.2L162.5,123.1L162.5,123.1z M161.4,69.5h9.9l14.3,30.1h-15.8L161.4,69.5z M188.1,123.1c0,4.7-3.9,8.6-8.6,8.6
			c-4.7,0-8.6-3.9-8.6-8.6v-15h17.2L188.1,123.1L188.1,123.1z M180.7,69.5h9.2l20.2,30.1H195L180.7,69.5z M213.7,123.1
			c0,4.7-3.9,8.6-8.6,8.6c-4.7,0-8.6-3.9-8.6-8.6v-15h17.2L213.7,123.1L213.7,123.1z M200,69.5h8.3l26,30.1h-14.2L200,69.5z
			 M228.6,131.4c-0.2-0.1-0.4-0.2-0.7-0.2c-3.4-1.2-5.8-4.4-5.8-8.1v-15h17.2v15c0,4.7-3.9,8.6-8.6,8.6
			C230,131.7,229.3,131.6,228.6,131.4z"/>
	</g>
</g>
<g>
	<g>
		<path d="M115.1,152.4H58c-7,0-12.7,5.7-12.7,12.7v57.1c0,7,5.7,12.7,12.7,12.7h57.1l0,0c7,0,12.7-5.7,12.7-12.7V165
			C127.8,158.1,122.1,152.4,115.1,152.4z M82.3,226.4H58c-2.3,0-4.3-1.9-4.3-4.3v-24.3h28.6V226.4z M82.3,189.4H53.8V165
			c0-2.3,1.9-4.3,4.3-4.3h24.3L82.3,189.4L82.3,189.4z M119.3,222.1c0,2.3-1.9,4.3-4.3,4.3H90.8v-28.6h28.6L119.3,222.1L119.3,222.1
			z M119.3,189.4H90.8v-28.6h24.3c2.3,0,4.3,1.9,4.3,4.3L119.3,189.4L119.3,189.4z"/>
	</g>
</g>
<g>
	<g>
		<circle cx="157.1" cy="207.2" r="4.2"/>
	</g>
</g>
</svg>
