<?xml version="1.0" standalone="no"?>
<!DOCTYPE svg PUBLIC "-//W3C//DTD SVG 20010904//EN"
 "http://www.w3.org/TR/2001/REC-SVG-20010904/DTD/svg10.dtd">
<svg version="1.0" xmlns="http://www.w3.org/2000/svg"
 width="1280.000000pt" height="1245.000000pt" viewBox="0 0 1280.000000 1245.000000"
 preserveAspectRatio="xMidYMid meet">
<g transform="translate(0.000000,1245.000000) scale(0.100000,-0.100000)"
fill="#000000" stroke="none">
<path d="M8290 12435 c-125 -14 -236 -32 -419 -70 -164 -33 -328 -55 -417 -55
-84 0 -92 -14 -13 -23 28 -4 62 -13 76 -22 l24 -16 -98 -71 c-293 -212 -584
-522 -765 -814 -164 -265 -270 -532 -378 -950 -68 -262 -109 -562 -96 -692 7
-63 40 -152 57 -152 5 0 9 62 9 138 0 717 286 1457 772 2002 47 52 159 170
249 262 182 186 236 222 321 216 l43 -3 -88 -73 c-48 -40 -95 -85 -104 -98
-15 -23 -15 -26 0 -42 9 -8 18 -14 20 -11 1 2 20 31 41 64 87 134 233 239 396
285 92 26 270 50 365 50 l71 0 43 -65 c117 -179 170 -371 250 -900 45 -294 66
-413 75 -422 9 -10 7 217 -4 377 -23 321 -87 603 -201 884 -27 66 -46 122 -43
125 3 3 72 6 152 5 185 -1 270 -22 332 -84 22 -22 40 -47 40 -55 0 -32 15 -13
16 20 1 56 13 62 91 42 38 -10 136 -26 218 -36 267 -34 301 -53 518 -294 49
-53 103 -105 120 -113 39 -21 87 -35 87 -26 0 4 -41 48 -91 97 -84 84 -148
169 -136 181 11 11 94 -41 150 -94 32 -31 83 -88 115 -127 105 -131 207 -234
219 -222 12 12 -49 97 -137 189 -88 94 -136 168 -107 168 30 0 147 -81 218
-150 98 -96 161 -194 263 -405 45 -93 90 -186 99 -205 l17 -35 -6 45 c-13 105
-53 202 -149 360 -67 111 -108 190 -98 190 5 0 33 -20 64 -44 63 -50 134 -150
238 -340 36 -64 71 -125 78 -134 35 -42 0 59 -62 183 -58 114 -76 165 -60 165
2 0 30 -11 60 -25 79 -35 170 -129 222 -230 22 -44 69 -161 103 -260 35 -99
77 -212 95 -252 l33 -72 -66 -75 c-86 -97 -200 -202 -497 -457 -306 -263 -451
-408 -518 -517 -48 -79 -96 -132 -119 -132 -24 0 38 188 98 295 73 128 146
223 308 396 201 216 269 292 326 367 85 114 153 260 174 373 8 43 -13 59 -40
32 -13 -14 -15 -29 -10 -84 6 -67 6 -68 -33 -116 -21 -26 -99 -116 -172 -199
-351 -395 -508 -605 -637 -854 -114 -218 -172 -403 -171 -542 1 -88 -2 -103
-55 -262 -62 -185 -73 -274 -42 -333 l14 -28 12 30 c6 17 14 82 17 145 5 110
28 200 50 200 4 0 26 -33 48 -72 73 -130 142 -191 244 -213 34 -7 34 -7 -43
81 -128 150 -175 267 -162 408 20 220 128 411 351 624 58 55 228 199 378 319
149 120 320 265 378 323 180 179 278 343 307 511 l8 44 61 -75 c210 -254 334
-602 402 -1125 6 -44 27 -222 46 -395 43 -377 67 -530 95 -595 70 -164 38
-368 -105 -655 -58 -117 -85 -199 -96 -299 -19 -157 9 -352 70 -486 73 -160
284 -425 593 -743 104 -107 209 -224 236 -260 47 -66 47 -67 47 -148 0 -78 -2
-84 -38 -137 -48 -70 -87 -101 -259 -211 -172 -109 -228 -159 -267 -238 -27
-52 -31 -72 -31 -137 0 -89 21 -143 70 -184 33 -28 90 -61 90 -53 0 3 -10 29
-21 58 -16 39 -23 82 -27 164 -4 105 -3 113 21 150 40 62 114 127 227 199 241
154 287 194 329 285 20 44 26 71 26 130 0 69 -3 81 -35 135 -22 36 -117 142
-250 279 -119 122 -260 273 -314 336 -266 312 -367 547 -366 854 1 156 9 192
54 252 58 75 134 238 163 349 23 87 26 121 27 260 l1 160 -38 105 c-34 93 -41
130 -62 315 -89 798 -206 1226 -418 1534 -54 78 -164 193 -223 233 -34 23 -37
29 -49 101 -7 46 -51 97 -112 131 -25 15 -47 26 -49 26 -10 0 -1 -36 31 -140
40 -127 44 -195 16 -255 l-19 -40 -1 51 c-1 66 -23 137 -77 254 -53 112 -78
193 -70 224 5 20 -8 34 -82 93 -166 132 -313 225 -564 357 -231 120 -805 386
-835 386 -46 0 -215 27 -438 71 -115 22 -257 47 -315 55 -127 17 -324 16 -480
-1z"/>
<path d="M6985 12304 c-281 -32 -462 -80 -752 -200 -277 -115 -302 -131 -443
-273 -115 -117 -134 -132 -230 -181 -58 -29 -117 -63 -132 -73 -35 -26 -93
-110 -149 -216 -49 -94 -102 -159 -155 -192 l-35 -22 -72 49 c-74 51 -187 143
-390 322 -347 304 -569 406 -936 430 -349 24 -678 -43 -1077 -218 -358 -157
-588 -344 -902 -736 -158 -195 -154 -189 -193 -338 -7 -27 -26 -64 -42 -82
l-29 -33 -61 31 c-34 17 -123 70 -198 118 -160 104 -248 150 -342 179 l-69 21
-42 -31 c-93 -66 -161 -189 -202 -364 -18 -77 -74 -408 -69 -413 1 -2 21 5 44
14 69 27 114 90 171 236 64 164 80 195 123 236 30 29 35 31 47 17 7 -8 19 -15
26 -15 8 0 14 -9 14 -20 0 -32 -81 -179 -149 -270 -57 -76 -131 -211 -131
-239 0 -19 18 -12 55 20 46 41 74 90 125 222 47 122 88 181 143 210 47 24 61
12 51 -43 -8 -49 -38 -103 -112 -205 -86 -119 -122 -187 -122 -236 0 -21 3
-39 7 -39 3 0 20 11 37 24 38 29 74 92 120 213 49 129 69 164 115 206 44 40
65 46 75 21 17 -44 -15 -113 -111 -244 -39 -52 -78 -111 -88 -130 -23 -45 -23
-105 0 -130 19 -20 19 -20 37 9 11 16 44 87 74 156 30 70 68 146 84 170 34 49
99 107 112 99 27 -17 -7 -99 -92 -225 -89 -131 -110 -175 -110 -229 0 -25 6
-55 14 -66 15 -19 15 -19 30 1 9 11 38 78 66 149 81 204 115 258 191 297 49
25 50 25 43 -13 -12 -68 -40 -123 -116 -231 -72 -101 -108 -178 -108 -229 0
-26 12 -22 47 15 35 37 59 82 103 194 43 107 76 161 113 184 62 37 92 20 80
-44 -9 -47 -24 -73 -107 -185 -67 -89 -104 -152 -120 -204 -4 -14 -16 -18 -49
-18 l-43 0 -13 -62 c-37 -185 -107 -361 -291 -728 -121 -242 -216 -457 -206
-467 6 -6 44 14 84 46 62 48 121 154 212 379 48 119 117 289 154 377 39 96 77
208 93 279 27 116 29 118 65 137 57 29 94 84 144 211 25 64 59 135 75 158 35
48 112 90 117 64 7 -30 -30 -111 -79 -174 -130 -168 -154 -227 -110 -281 l18
-23 12 22 c6 11 33 80 60 152 64 168 95 212 174 245 34 14 38 14 43 0 8 -20
-4 -81 -25 -130 -10 -22 -44 -71 -76 -110 -88 -107 -117 -191 -82 -239 13 -17
15 -16 34 15 12 19 50 95 86 169 65 136 103 193 153 233 l27 21 -7 -43 c-9
-56 -34 -106 -113 -218 -73 -106 -97 -162 -83 -197 5 -13 13 -27 19 -30 14 -9
51 58 107 194 39 96 56 124 99 166 46 46 99 74 112 60 3 -3 2 -25 -1 -50 -8
-48 -45 -109 -129 -211 -28 -33 -56 -74 -63 -92 -15 -36 -19 -139 -5 -147 21
-13 64 65 115 209 56 156 90 200 179 234 28 11 29 11 22 -21 -11 -47 -46 -114
-123 -231 -64 -97 -113 -210 -97 -225 4 -4 26 14 49 39 31 34 53 76 84 156 60
158 100 207 185 227 26 6 27 5 27 -39 0 -58 -22 -100 -103 -203 -87 -109 -106
-142 -113 -193 -4 -34 0 -52 17 -79 l21 -34 21 39 c11 22 38 90 59 150 53 150
84 203 143 243 26 18 53 31 59 29 16 -5 20 -75 7 -119 -6 -20 -47 -82 -90
-137 -75 -96 -117 -179 -109 -215 3 -13 8 -13 37 1 44 22 73 68 116 188 50
137 99 195 166 195 19 0 21 -4 16 -36 -8 -50 -38 -105 -114 -206 -65 -88 -103
-166 -103 -213 0 -30 14 -31 58 -5 43 26 66 66 103 180 52 158 91 208 178 224
l34 6 -6 -45 c-9 -59 -33 -105 -101 -190 -66 -83 -87 -124 -94 -182 -6 -55 9
-56 58 -4 25 26 47 65 65 117 50 140 67 173 106 209 22 19 43 35 49 35 13 0
23 -63 16 -97 -4 -15 -29 -57 -57 -93 -105 -136 -129 -184 -129 -262 0 -44 4
-45 47 -19 40 25 73 83 108 188 31 95 57 139 104 170 44 29 91 31 91 3 0 -37
-33 -105 -100 -205 -103 -154 -119 -197 -87 -224 26 -21 67 42 107 164 50 153
108 225 181 225 20 0 21 -3 15 -52 -10 -74 -52 -157 -146 -286 -44 -61 -80
-114 -80 -118 0 -9 86 -116 220 -274 202 -238 308 -386 380 -530 90 -178 128
-319 111 -401 -16 -74 -14 -88 18 -120 36 -36 45 -36 60 -2 23 50 14 140 -24
258 -20 61 -39 139 -42 175 -4 57 -2 69 19 99 12 19 28 36 34 38 6 2 32 -15
57 -37 54 -48 112 -156 127 -239 13 -72 13 -221 -1 -279 -14 -57 -31 -72 -82
-72 -49 0 -77 -15 -77 -41 0 -24 53 -49 103 -49 48 0 78 28 136 123 27 45 63
95 80 111 l30 29 6 -29 c14 -60 39 -131 83 -229 67 -150 81 -198 97 -325 19
-155 21 -254 11 -825 -8 -456 -7 -507 13 -735 37 -425 42 -560 48 -1196 l6
-621 -114 -22 c-63 -13 -229 -54 -369 -93 -486 -133 -519 -138 -946 -138 -346
0 -419 -8 -570 -61 -186 -65 -382 -178 -733 -423 -115 -80 -244 -162 -287
-182 -295 -136 -303 -141 -405 -243 -107 -107 -176 -203 -254 -356 -78 -152
-141 -320 -289 -768 -74 -221 -145 -428 -160 -461 -14 -32 -26 -63 -26 -69 0
-33 130 135 192 249 62 112 102 209 211 509 184 506 266 670 417 828 99 105
157 142 253 161 117 24 156 47 372 224 170 140 291 221 467 312 146 75 288
128 418 156 91 19 333 23 399 7 l35 -9 -135 -80 c-282 -170 -376 -212 -604
-269 -98 -25 -199 -57 -226 -72 -48 -26 -136 -109 -126 -119 7 -7 197 41 329
83 170 53 357 130 709 289 384 173 453 202 632 265 259 92 488 141 730 158
l129 10 36 37 c19 20 60 48 90 62 63 29 173 40 222 24 29 -11 33 -9 62 23 16
19 62 51 101 70 220 108 521 78 650 -65 63 -70 65 -88 22 -178 -27 -58 -54
-93 -113 -151 -113 -112 -213 -162 -558 -281 -423 -147 -581 -249 -670 -435
-43 -89 -43 -99 -1 -90 59 13 88 39 153 138 55 84 74 104 133 142 87 56 199
101 409 165 367 111 480 162 597 272 136 127 173 255 112 380 -68 138 -258
241 -472 255 -129 8 -223 -10 -378 -72 -12 -5 -16 -3 -13 6 13 36 51 529 101
1299 19 297 35 498 41 529 6 29 -1 41 144 -224 224 -406 352 -608 444 -700
227 -226 380 -603 447 -1103 17 -124 22 -211 22 -412 1 -291 -10 -397 -53
-526 -17 -49 -34 -117 -37 -150 -5 -53 -2 -68 18 -103 29 -51 30 -49 69 110
54 222 65 325 65 639 0 274 -6 352 -41 561 -6 35 -4 37 44 67 103 63 115 105
61 210 -17 33 -28 65 -24 71 4 7 24 19 46 28 l39 15 1 67 c1 116 -2 173 -16
301 -8 69 -15 156 -15 194 0 58 -2 67 -14 57 -18 -15 -21 -239 -4 -386 9 -86
9 -105 -5 -138 -21 -50 -35 -47 -39 10 -2 28 -8 48 -17 51 -11 4 -12 -23 -6
-165 7 -181 0 -236 -35 -268 -23 -21 -19 -30 -50 111 -25 109 -23 152 9 193
18 24 18 26 -5 110 -26 97 -58 192 -134 396 -29 77 -61 185 -71 239 -22 114
-48 180 -77 195 -29 15 -92 14 -92 -2 0 -7 30 -66 67 -132 96 -173 127 -276
107 -353 -6 -22 -8 -20 -32 19 -32 54 -42 33 -11 -24 61 -114 62 -117 50 -144
l-12 -26 -33 49 c-18 27 -88 141 -156 254 -169 281 -232 377 -342 521 -146
193 -260 404 -298 553 -40 157 -20 680 30 794 11 24 36 67 56 95 90 125 95
193 32 426 l-43 156 0 215 c0 217 3 241 46 378 10 30 13 32 59 32 30 0 52 5
60 15 10 13 9 15 -8 15 -44 0 -122 49 -122 75 0 7 14 15 30 19 38 7 39 28 4
77 -49 71 -10 119 47 58 l31 -33 -7 40 c-4 21 -24 94 -46 161 -33 103 -39 136
-39 210 0 67 -5 99 -21 133 -11 25 -38 89 -60 143 -81 203 -135 287 -203 318
-51 23 -74 23 -127 2 l-41 -16 26 -14 c34 -18 34 -57 -1 -129 -26 -53 -126
-174 -144 -174 -17 0 -9 65 16 125 30 73 30 73 3 103 -62 65 19 304 115 341
36 13 40 13 99 -18 41 -21 65 -28 72 -21 5 5 8 11 5 13 -60 50 -163 103 -215
111 l-42 7 -30 -73 c-28 -69 -38 -99 -93 -288 -19 -68 -22 -73 -35 -55 -10 14
-14 52 -14 140 0 91 -4 126 -15 141 -14 18 -14 18 -15 -8 0 -34 -23 -37 -44
-7 -14 20 -13 23 17 43 23 15 47 51 83 124 58 116 74 136 126 163 75 38 115
18 174 -89 45 -82 62 -102 86 -102 22 0 23 13 2 31 -25 20 -49 76 -84 189 -55
177 -101 245 -180 269 -83 25 -142 -38 -190 -199 -38 -128 -80 -200 -80 -136
0 28 -35 76 -56 76 -8 0 -23 -9 -35 -21 -11 -11 -24 -18 -27 -14 -4 4 -9 76
-12 162 -5 148 -6 156 -29 174 -13 10 -27 19 -31 19 -8 0 -20 -183 -20 -314
l0 -90 54 -95 c92 -163 97 -202 94 -656 -3 -384 -3 -388 55 -403 47 -12 42
-37 -7 -36 l-38 1 5 -251 c4 -262 14 -325 55 -376 16 -20 17 -16 17 122 0 127
19 278 32 264 3 -3 11 -87 19 -188 8 -101 23 -273 34 -383 19 -189 36 -326
145 -1195 60 -471 73 -712 57 -1039 -13 -252 -35 -476 -72 -721 -11 -74 -20
-166 -20 -203 0 -110 -20 -256 -43 -316 l-21 -56 -8 65 c-4 36 -14 313 -23
615 -8 303 -22 746 -30 985 -8 239 -19 685 -25 990 -6 333 -16 605 -24 680
-21 186 -39 291 -47 283 -5 -5 -11 -35 -14 -68 -7 -65 -23 -115 -36 -115 -13
0 -57 62 -83 120 -33 71 -50 141 -81 325 -33 197 -47 243 -106 346 -74 130
-89 169 -120 323 -52 249 -161 443 -535 947 -91 123 -193 266 -227 317 -50 77
-62 90 -70 76 -20 -36 15 -112 117 -249 67 -90 95 -147 96 -188 0 -36 -9 -34
-160 45 -182 95 -358 216 -471 323 -45 43 -49 50 -69 143 -50 221 -80 304
-124 341 -34 28 -32 -58 5 -214 20 -84 24 -171 10 -193 -6 -11 -20 -6 -62 21
-30 19 -142 78 -249 132 -107 53 -232 122 -278 152 l-83 55 17 26 c10 15 69
112 132 217 269 447 383 584 614 735 278 184 665 323 1028 371 136 18 394 16
510 -5 300 -53 466 -148 885 -506 94 -80 209 -177 256 -217 170 -144 291 -286
364 -433 15 -30 60 -140 100 -245 157 -414 227 -564 387 -835 235 -399 337
-669 457 -1212 l19 -88 -67 0 c-77 0 -120 -21 -148 -72 -15 -27 -18 -57 -18
-165 0 -73 -2 -133 -4 -133 -16 0 -76 60 -109 110 -51 76 -74 146 -112 340
-33 166 -63 277 -88 325 -8 17 -48 81 -89 144 -86 131 -115 194 -173 381 -64
207 -116 361 -172 504 -83 217 -89 247 -97 531 -6 230 -9 253 -29 292 -12 23
-34 51 -50 62 l-29 20 -12 -25 c-16 -36 -14 -62 13 -142 14 -40 32 -123 41
-185 104 -734 273 -1292 496 -1637 39 -60 39 -60 19 -80 -29 -29 -28 -32 29
-223 19 -65 54 -288 66 -427 3 -36 8 -82 10 -102 l5 -38 -119 0 -119 0 -22
-52 c-12 -29 -31 -102 -42 -163 -17 -94 -57 -215 -71 -215 -3 0 -12 44 -22 98
-44 249 -99 456 -257 967 -49 159 -114 382 -144 495 -31 113 -91 324 -135 470
-98 330 -134 474 -155 618 -15 103 -15 118 -1 175 26 102 27 115 17 141 -9 24
-63 66 -84 66 -5 0 -7 -81 -3 -192 10 -350 56 -541 277 -1163 147 -414 178
-525 250 -905 48 -257 87 -411 131 -522 33 -82 79 -218 90 -267 27 -120 3
-256 -59 -330 -27 -33 -28 -33 -69 -21 -100 30 -158 122 -194 308 -27 136 -30
132 109 188 l97 39 -67 3 c-77 3 -135 -10 -170 -37 -22 -18 -23 -25 -22 -133
0 -73 7 -138 19 -183 9 -38 18 -113 19 -165 l2 -95 45 -12 c55 -17 142 -18
194 -4 22 6 65 25 95 43 48 29 55 38 58 67 2 19 -2 54 -8 78 -16 54 -16 89 -1
107 11 13 19 10 57 -19 55 -42 157 -75 233 -75 73 0 137 31 163 80 19 38 25
120 7 120 -25 0 -46 -22 -59 -60 -18 -54 -32 -64 -86 -57 -199 22 -263 435
-86 548 37 23 57 29 103 29 55 0 57 -1 68 -31 6 -18 11 -64 11 -103 1 -141 26
-236 63 -236 17 0 0 218 -26 341 -34 151 -48 268 -40 325 l6 46 33 -72 c45
-97 154 -207 250 -252 135 -64 254 -37 324 72 l32 50 -22 52 c-52 120 -64 187
-85 453 -25 313 -32 337 -232 805 -183 427 -226 509 -328 618 -123 131 -120
122 -119 352 2 253 19 443 50 541 43 136 254 527 380 704 23 33 64 85 91 116
26 31 67 80 91 108 29 35 55 54 82 62 25 8 40 18 40 28 0 36 53 126 107 183
32 33 117 104 188 158 72 53 136 104 143 112 8 10 37 19 75 23 80 8 357 64
377 76 14 8 -255 10 -325 3z m-333 -142 c-33 -45 -110 -113 -235 -206 -124
-91 -207 -162 -207 -177 0 -12 37 -11 45 1 3 5 20 19 38 32 l31 23 -23 -40
c-37 -61 -137 -210 -209 -309 -229 -317 -336 -524 -399 -769 -23 -92 -26 -126
-30 -337 l-5 -235 -46 90 c-25 50 -94 193 -154 319 -113 241 -191 385 -264
492 -24 35 -44 68 -44 72 0 5 12 15 27 23 14 8 51 48 81 89 30 41 69 90 86
108 30 33 104 78 112 69 8 -7 -31 -97 -101 -236 -36 -72 -65 -133 -65 -136 0
-3 9 -5 19 -5 33 0 70 58 99 152 25 84 36 102 166 275 155 208 308 368 429
451 71 49 244 138 252 130 2 -1 -46 -48 -107 -103 -357 -325 -538 -570 -636
-860 -55 -164 -48 -169 32 -23 206 377 330 554 520 743 159 157 327 274 513
355 48 22 89 39 91 39 2 1 -6 -12 -16 -27z m-1052 -586 c0 -7 -27 -39 -60 -73
-56 -56 -61 -59 -71 -41 -9 17 -3 27 45 74 31 29 56 59 56 65 0 8 4 8 15 -1 8
-7 15 -18 15 -24z m-1160 -1606 c19 -10 40 -59 40 -96 0 -22 -1 -23 -35 -8
-66 27 -143 11 -182 -39 -23 -30 -33 -26 -33 12 0 82 139 169 210 131z m-1351
-627 c25 -15 29 -22 24 -43 -9 -39 -46 -108 -107 -197 -52 -79 -97 -185 -83
-199 10 -11 56 24 77 59 11 18 34 66 51 107 57 141 79 180 111 196 17 9 41 13
54 10 20 -5 23 -11 18 -39 -12 -69 -29 -103 -89 -182 -35 -45 -70 -96 -79
-113 -18 -34 -21 -99 -6 -122 18 -28 75 51 120 167 62 161 96 205 169 219 31
6 31 6 25 -27 -3 -19 -45 -115 -94 -214 -90 -182 -110 -235 -89 -235 25 0 69
65 110 162 44 104 84 162 119 171 16 4 22 -2 29 -29 12 -44 0 -85 -45 -154
-52 -79 -73 -122 -80 -169 -5 -29 -3 -41 5 -41 21 0 51 43 84 120 26 61 39 78
66 92 41 21 51 16 51 -23 0 -33 -20 -77 -58 -127 -30 -40 -35 -99 -10 -115 15
-10 25 -4 61 31 46 45 58 50 76 29 8 -10 7 -22 -1 -45 -15 -40 -3 -79 58 -180
60 -99 92 -179 100 -246 6 -52 5 -56 -14 -56 -28 0 -78 44 -102 89 -11 20 -28
47 -39 61 l-19 24 -66 -22 c-78 -26 -107 -19 -132 30 -54 106 -203 270 -447
494 l-108 99 15 41 c26 75 191 394 203 394 6 0 25 -8 42 -17z m1552 -120 c30
-18 55 -73 45 -99 -5 -13 -9 -13 -28 0 -13 7 -41 17 -63 21 -52 9 -85 30 -85
56 0 38 81 51 131 22z m15 -167 c94 -63 134 -138 137 -261 2 -58 -1 -69 -13
-66 -41 11 -142 12 -174 1 -20 -6 -51 -30 -71 -53 -27 -31 -38 -38 -47 -29 -9
9 -8 20 5 47 9 20 17 48 17 63 l-1 27 -19 -24 c-11 -13 -23 -40 -26 -61 -9
-55 -18 -67 -39 -50 -53 44 -55 115 -7 204 24 44 100 117 134 128 14 5 2 28
-16 28 -7 0 -36 -18 -64 -40 -27 -22 -52 -40 -56 -40 -3 0 -10 9 -17 21 -16
31 13 99 62 143 l39 36 52 -20 c28 -10 75 -35 104 -54z m-449 -88 c5 -7 26
-79 47 -160 20 -81 84 -297 142 -480 99 -315 158 -526 184 -665 l12 -61 -67
-79 c-38 -44 -83 -110 -103 -152 -32 -67 -36 -83 -35 -155 0 -51 6 -98 17
-125 l17 -45 -27 25 c-79 74 -102 166 -114 467 -15 363 -58 772 -115 1081 -37
201 -31 361 14 361 10 0 23 -6 28 -12z m539 -289 c15 -25 22 -82 13 -114 -13
-46 -49 -87 -98 -111 -41 -19 -45 -25 -79 -106 -19 -43 -54 -70 -70 -53 -4 4
-6 53 -6 110 3 153 37 240 108 271 38 16 122 18 132 3z m1004 -129 c0 -27 -3
-30 -30 -30 -27 0 -30 3 -30 30 0 27 3 30 30 30 27 0 30 -3 30 -30z m-1022
-132 c25 -25 5 -125 -33 -168 -13 -14 -11 -23 10 -75 28 -67 30 -96 14 -161
-12 -47 -29 -55 -71 -33 -17 9 -19 19 -16 72 l3 62 -36 3 -35 3 7 62 c10 83
92 247 124 247 11 0 26 -5 33 -12z m1547 -150 c56 -26 94 -132 103 -296 l7
-112 -101 0 -101 0 -27 100 c-15 54 -29 129 -33 165 -6 63 -5 67 23 97 25 27
75 56 96 58 4 0 19 -5 33 -12z m-1485 -503 c0 -16 -4 -68 -10 -115 -31 -280
-58 -688 -90 -1360 -44 -951 -61 -1175 -98 -1278 -30 -86 -31 -103 -21 -617 4
-227 3 -244 -18 -311 -29 -90 -89 -161 -164 -193 -48 -21 -52 -21 -70 -5 -45
40 -48 112 -14 293 58 307 144 1032 355 2976 39 358 73 661 76 674 l5 25 24
-30 c13 -16 24 -42 25 -59z m-196 -315 c47 -57 47 -147 -1 -358 -21 -92 -32
-122 -43 -120 -24 5 -75 82 -94 142 -25 78 -19 213 12 273 19 36 75 93 94 93
3 0 18 -14 32 -30z m244 -252 c62 -67 54 -211 -15 -256 l-23 -14 0 146 c0 80
4 146 8 146 5 0 18 -10 30 -22z m-404 -318 c42 -27 87 -52 101 -56 28 -7 29
-16 15 -95 -5 -30 -26 -171 -45 -314 -42 -311 -54 -374 -66 -354 -14 26 -47
210 -53 299 -4 47 -11 164 -17 260 -5 96 -16 205 -23 243 -10 52 -10 67 -1 67
7 0 47 -22 89 -50z"/>
<path d="M5961 11554 c-285 -323 -403 -563 -418 -854 -6 -132 4 -137 31 -15
82 364 187 594 352 765 83 87 123 151 112 179 -2 5 -36 -29 -77 -75z"/>
<path d="M8730 12205 c0 -24 28 -75 69 -125 59 -71 68 -91 75 -158 3 -34 22
-133 43 -220 l37 -157 6 -350 c6 -318 9 -356 27 -410 l21 -60 1 405 c1 549
-19 713 -109 897 -58 117 -170 234 -170 178z"/>
<path d="M7913 12073 c-320 -463 -503 -868 -574 -1278 -17 -93 -38 -409 -23
-335 125 615 387 1300 497 1300 11 0 26 -8 33 -17 12 -16 13 -13 14 25 0 44
13 76 59 147 l26 40 5 -95 c9 -164 -8 -375 -56 -723 l-7 -48 26 12 c34 15 44
43 63 174 22 161 33 885 12 885 -8 0 -41 -39 -75 -87z"/>
<path d="M9137 12138 c20 -26 122 -287 166 -423 24 -77 57 -203 73 -280 26
-127 29 -158 29 -345 0 -194 -12 -305 -42 -387 -13 -36 38 20 62 67 35 70 47
160 47 340 -1 342 -68 644 -191 866 -40 71 -124 174 -143 174 -7 0 -7 -4 -1
-12z"/>
<path d="M7740 12072 c-97 -72 -212 -200 -378 -420 -288 -382 -421 -608 -502
-854 -36 -108 -83 -333 -66 -317 3 3 37 88 75 190 97 260 125 327 186 453 101
209 217 356 340 427 52 31 59 39 79 94 27 74 83 157 172 255 112 122 186 220
168 220 -5 0 -38 -22 -74 -48z"/>
<path d="M6840 11903 c-391 -398 -763 -1081 -846 -1553 -21 -124 -4 -198 55
-229 15 -9 17 1 19 114 5 353 120 684 368 1063 77 118 171 245 379 512 209
270 213 284 25 93z"/>
<path d="M8380 12007 c0 -5 15 -81 34 -170 51 -238 56 -272 56 -373 0 -118 16
-185 52 -226 l29 -33 -5 35 c-4 19 -15 122 -26 228 -22 207 -39 307 -69 394
-19 56 -70 159 -71 145z"/>
<path d="M8214 11930 c3 -30 8 -86 11 -125 8 -81 30 -158 51 -176 13 -11 14
-6 10 37 -3 27 -8 83 -11 124 -8 96 -20 142 -46 172 l-20 23 5 -55z"/>
<path d="M8092 11846 c4 -166 23 -170 23 -4 0 90 -3 122 -13 126 -10 3 -12
-23 -10 -122z"/>
<path d="M9070 11906 c0 -8 5 -50 11 -93 10 -74 83 -318 98 -328 9 -5 -25 210
-45 287 -16 62 -50 148 -59 148 -3 0 -5 -6 -5 -14z"/>
<path d="M7269 11827 c-321 -357 -503 -662 -583 -977 -13 -52 -27 -126 -30
-165 l-6 -70 24 85 c93 326 255 619 533 964 35 44 75 99 89 122 27 45 47 104
36 104 -4 -1 -32 -29 -63 -63z"/>
<path d="M9483 11765 c4 -36 15 -84 26 -108 l19 -42 1 65 c1 61 -26 150 -45
150 -4 0 -4 -29 -1 -65z"/>
<path d="M9885 11760 c4 -14 12 -28 17 -31 25 -16 148 -414 148 -478 0 -11
-12 -24 -30 -31 -37 -15 -80 -48 -80 -61 0 -5 19 -9 43 -9 54 0 62 -6 76 -55
24 -87 13 -149 -55 -297 -31 -69 -44 -110 -44 -143 0 -25 3 -45 8 -45 16 0 78
109 104 185 35 104 48 186 48 316 0 133 -23 267 -65 387 -35 98 -105 220 -150
262 l-27 25 7 -25z"/>
<path d="M10105 11681 c16 -28 43 -69 61 -89 28 -32 33 -34 34 -16 0 29 -52
107 -90 134 l-33 24 28 -53z"/>
<path d="M10320 11599 c0 -4 7 -26 16 -50 8 -24 33 -133 55 -241 22 -109 46
-216 54 -237 13 -39 13 -40 -44 -143 -58 -104 -134 -228 -365 -596 -367 -585
-504 -921 -547 -1337 -31 -311 33 -522 185 -610 87 -49 94 -42 29 29 -70 76
-134 191 -157 283 -38 145 -29 369 20 554 53 201 156 438 324 746 108 199 182
315 354 558 186 263 249 414 249 595 0 114 -21 208 -68 305 -30 60 -104 162
-105 144z"/>
<path d="M8266 11515 c3 -22 1 -87 -3 -145 -10 -128 -3 -178 27 -202 13 -10
24 -17 25 -16 4 4 -12 233 -20 310 -4 31 -13 65 -20 75 -12 16 -13 13 -9 -22z"/>
<path d="M7746 11523 c-3 -3 -6 -17 -6 -30 0 -14 -13 -55 -30 -93 -33 -75 -36
-103 -16 -139 13 -23 13 -22 19 20 3 24 18 80 32 124 14 44 25 87 25 97 0 19
-14 31 -24 21z"/>
<path d="M9772 10863 c-23 -176 -28 -328 -12 -353 7 -11 10 -3 10 29 0 24 12
107 26 185 19 103 25 159 21 208 -11 125 -22 107 -45 -69z"/>
<path d="M7150 10980 c-20 -37 -23 -113 -6 -135 15 -19 15 -18 16 17 0 21 7
53 16 72 25 51 0 94 -26 46z"/>
<path d="M8270 10893 c0 -27 -7 -82 -16 -123 -17 -84 -13 -114 17 -131 20 -10
21 -9 15 19 -4 16 -2 58 4 93 21 117 23 158 10 174 -21 26 -30 17 -30 -32z"/>
<path d="M9202 10745 c-20 -44 -15 -154 10 -205 l22 -45 8 85 c17 161 16 185
-8 188 -14 2 -24 -5 -32 -23z"/>
<path d="M6995 10550 c-44 -139 -111 -421 -163 -681 -29 -144 -58 -261 -70
-286 -29 -56 -29 -91 0 -102 56 -20 80 30 86 179 2 63 8 120 13 126 21 26 49
131 74 278 25 151 33 182 89 370 29 99 33 153 12 181 -13 18 -16 12 -41 -65z"/>
<path d="M7933 10473 c-22 -178 -66 -316 -196 -613 -91 -210 -97 -226 -122
-342 -16 -77 -25 -90 -79 -123 -24 -14 -57 -146 -58 -230 -1 -68 16 -126 31
-109 4 5 18 52 31 104 32 134 87 287 203 565 163 394 244 647 250 786 2 51 1
54 -23 57 -25 3 -26 1 -37 -95z"/>
<path d="M8946 10487 c-32 -32 -44 -78 -57 -212 -10 -105 -19 -157 -34 -200
-5 -14 1 -11 19 10 14 17 33 51 42 77 16 49 66 339 59 346 -2 2 -15 -7 -29
-21z"/>
<path d="M7750 10424 c-12 -31 -45 -83 -72 -115 -47 -56 -47 -59 -27 -69 62
-34 139 63 139 174 0 69 -14 72 -40 10z"/>
<path d="M9157 10424 c-3 -33 -19 -92 -36 -133 -35 -84 -38 -112 -14 -137 17
-16 19 -12 50 82 34 106 41 183 19 223 -12 22 -13 20 -19 -35z"/>
<path d="M9762 10292 c-139 -313 -245 -618 -306 -884 -47 -205 -65 -334 -72
-513 -10 -236 20 -415 95 -570 36 -75 120 -200 128 -191 2 2 -14 47 -36 100
-54 130 -105 291 -132 416 -19 88 -23 137 -23 300 -1 270 3 285 197 852 41
119 78 242 82 273 5 45 14 64 50 106 79 93 130 227 91 242 -10 4 -31 -33 -74
-131z"/>
<path d="M8200 10381 c0 -55 8 -71 37 -71 24 0 25 3 20 36 -6 35 -31 74 -49
74 -4 0 -8 -18 -8 -39z"/>
<path d="M9306 10327 c9 -60 -12 -201 -42 -293 -14 -43 -49 -134 -78 -203 -56
-130 -90 -233 -84 -252 6 -17 185 359 208 435 11 39 27 111 35 160 25 151 18
196 -27 196 -15 0 -17 -6 -12 -43z"/>
<path d="M9615 10288 c-12 -45 -40 -104 -79 -168 -62 -102 -96 -182 -96 -222
0 -21 4 -38 9 -38 5 0 30 51 56 113 26 61 69 151 97 199 47 84 57 127 31 135
-6 2 -14 -6 -18 -19z"/>
<path d="M6695 10288 c-3 -7 -23 -80 -45 -163 -30 -113 -40 -168 -40 -225 1
-98 12 -80 57 98 32 128 55 302 39 302 -4 0 -9 -6 -11 -12z"/>
<path d="M6530 10230 c0 -11 -14 -48 -31 -81 -34 -69 -40 -113 -16 -137 20
-19 16 -23 52 58 35 79 42 172 13 178 -13 2 -18 -3 -18 -18z"/>
<path d="M9022 10012 c-30 -15 -33 -20 -30 -56 2 -22 8 -41 13 -43 8 -2 59
107 52 113 -1 1 -17 -6 -35 -14z"/>
<path d="M8550 9967 c0 -31 -11 -86 -29 -137 -28 -83 -27 -105 5 -79 47 39 82
196 55 247 -19 36 -31 25 -31 -31z"/>
<path d="M8810 9916 c0 -53 4 -77 15 -86 13 -10 15 -9 15 11 0 13 7 45 16 70
20 55 14 79 -21 79 -24 0 -25 -2 -25 -74z"/>
<path d="M8030 9805 c0 -11 -18 -47 -40 -79 -22 -33 -39 -64 -37 -69 2 -6 13
-17 25 -25 20 -13 22 -12 47 44 35 79 39 105 21 129 l-15 20 -1 -20z"/>
<path d="M9290 9538 c-108 -498 -144 -769 -144 -1073 1 -288 32 -453 119 -630
40 -80 139 -214 165 -223 5 -2 -8 26 -29 62 -75 128 -137 313 -173 516 -31
177 -32 560 -1 760 30 190 68 353 118 508 l43 132 -43 0 -43 0 -12 -52z"/>
<path d="M8411 9445 c-40 -35 -91 -138 -91 -187 0 -25 4 -37 11 -33 13 9 127
245 118 245 -4 0 -21 -11 -38 -25z"/>
<path d="M8928 9310 c-237 -476 -290 -954 -151 -1340 15 -41 29 -68 31 -59 1
9 -9 110 -23 225 -33 263 -42 463 -26 573 16 109 45 195 135 398 80 182 120
298 114 335 -2 17 -25 -20 -80 -132z"/>
<path d="M8232 9068 c-84 -149 -168 -429 -207 -688 -21 -140 -39 -535 -25
-560 6 -12 21 -20 36 -20 22 0 25 4 21 23 -4 12 -11 74 -18 137 -30 299 45
685 184 950 58 110 73 156 62 190 -10 31 -21 24 -53 -32z"/>
<path d="M6737 8978 c-61 -58 -94 -146 -122 -318 -27 -170 -36 -292 -36 -490
0 -303 22 -494 126 -1093 68 -397 91 -563 104 -745 6 -78 13 -147 16 -152 12
-20 37 -9 48 20 20 54 28 40 65 -125 23 -104 23 -383 -1 -495 -52 -241 -182
-499 -349 -693 -28 -31 -47 -57 -44 -57 16 0 116 56 172 96 131 92 188 182
243 378 63 225 76 331 76 651 0 259 -3 303 -23 410 -23 124 -92 359 -99 339
-2 -6 13 -74 33 -150 48 -185 56 -298 24 -372 -12 -28 -26 -52 -31 -52 -4 0
-10 71 -12 158 l-4 157 -50 145 c-204 587 -289 1445 -197 2000 19 118 57 270
88 355 13 36 20 65 15 65 -4 0 -23 -15 -42 -32z"/>
<path d="M11013 8901 c-130 -21 -304 -93 -431 -180 -87 -59 -237 -188 -313
-268 l-66 -70 -9 36 c-6 25 -15 37 -30 39 -20 3 -22 -3 -26 -71 -4 -62 -11
-85 -43 -142 -42 -76 -40 -77 55 -22 33 19 128 105 242 219 279 277 367 327
583 336 197 7 294 -30 509 -193 179 -136 160 -127 152 -75 -24 153 -165 307
-336 366 -75 27 -205 38 -287 25z"/>
<path d="M7535 8799 c-108 -129 -167 -390 -134 -588 17 -97 29 -98 29 -2 0 96
25 228 76 403 47 161 63 218 59 218 -2 0 -15 -14 -30 -31z"/>
<path d="M8901 8634 c-44 -55 -53 -115 -58 -366 -10 -425 14 -525 204 -855 93
-162 120 -231 144 -376 23 -143 42 -199 83 -245 l29 -33 -35 -37 c-67 -69 -97
-156 -144 -411 -22 -123 -45 -215 -71 -290 -10 -27 47 30 72 74 27 46 59 157
75 265 27 183 56 276 101 333 l31 38 -16 117 c-23 162 -74 410 -146 717 -107
457 -161 758 -177 985 -9 142 -21 95 -22 -90 -1 -146 11 -253 49 -455 63 -332
72 -389 76 -510 l5 -130 -26 60 c-134 304 -203 702 -176 1013 7 75 16 156 20
180 5 23 7 42 5 42 -1 0 -12 -12 -23 -26z"/>
<path d="M8450 8574 c-19 -89 -8 -223 21 -281 31 -60 50 -68 38 -16 -5 21 -9
79 -9 128 0 98 -14 203 -29 218 -6 6 -14 -13 -21 -49z"/>
<path d="M2891 8535 c-2 -75 -24 -192 -72 -370 -37 -137 -43 -174 -43 -260 0
-66 4 -110 14 -130 l14 -30 4 30 c2 17 24 127 49 245 47 230 66 441 45 525
l-10 40 -1 -50z"/>
<path d="M7761 8453 c-21 -102 -24 -131 -17 -158 9 -36 26 -31 26 7 0 18 12
68 26 111 21 62 23 81 14 92 -23 28 -35 15 -49 -52z"/>
<path d="M7157 8133 c-14 -13 -6 -91 14 -154 43 -130 48 -118 20 44 -20 111
-23 122 -34 110z"/>
<path d="M11240 8102 c-21 -20 -43 -55 -49 -77 -7 -22 -16 -128 -20 -235 -10
-237 -26 -286 -102 -326 -26 -13 -29 -11 -97 56 -55 53 -92 79 -164 113 -106
51 -158 65 -269 74 l-79 6 0 -25 c0 -25 27 -58 47 -58 6 0 23 -10 38 -21 23
-19 26 -27 20 -56 -8 -45 18 -133 47 -160 13 -12 35 -25 51 -28 23 -6 27 -4
27 14 0 12 -7 33 -16 46 -16 25 -13 60 5 53 18 -6 112 -143 118 -170 5 -24 10
-28 41 -28 20 0 62 -5 94 -12 55 -11 59 -11 82 11 l25 24 31 -26 c42 -36 119
-57 207 -57 67 0 73 2 73 21 0 11 14 33 30 47 18 16 30 36 30 52 0 25 0 25
-95 25 -84 0 -97 2 -117 22 l-22 22 27 55 c43 87 57 160 67 342 10 172 20 245
39 297 14 37 14 37 -10 37 -12 0 -38 -17 -59 -38z"/>
<path d="M9602 7971 c-23 -14 -9 -45 28 -63 19 -9 38 -17 43 -18 9 0 9 51 -1
67 -10 16 -54 25 -70 14z"/>
<path d="M7403 7779 c9 -261 25 -384 118 -877 92 -491 126 -751 130 -1002 2
-135 2 -135 -31 -200 -18 -36 -48 -89 -66 -118 -40 -61 -40 -63 -14 -80 42
-26 14 -132 -50 -186 -17 -14 -40 -26 -51 -26 -17 0 -19 7 -19 63 0 34 7 89
15 122 22 90 19 175 -6 175 -5 0 -9 -24 -9 -52 0 -29 -15 -128 -34 -219 -44
-210 -52 -295 -36 -344 13 -38 13 -38 25 -14 7 13 20 56 30 96 16 68 21 76 93
150 122 124 204 284 271 528 31 110 141 561 141 577 0 4 -15 8 -33 8 -60 0
-91 -50 -102 -165 -10 -113 -24 -163 -52 -185 -14 -11 -30 -20 -34 -20 -5 0
-9 39 -9 88 0 187 -34 460 -109 882 -71 402 -95 570 -110 800 -10 151 -13 160
-43 179 l-21 13 6 -193z"/>
<path d="M8527 7888 c2 -35 16 -157 29 -273 50 -430 56 -504 57 -670 1 -242
-31 -402 -107 -527 -20 -34 -35 -75 -39 -106 -3 -28 -16 -84 -28 -124 -22 -75
-28 -153 -11 -170 11 -11 56 93 105 247 153 470 175 934 67 1430 -22 98 -67
255 -74 255 -2 0 -2 -28 1 -62z"/>
<path d="M6964 7710 c5 -196 8 -217 91 -641 113 -571 133 -965 90 -1754 -6
-109 4 -88 40 85 69 333 72 689 9 1130 -23 162 -49 310 -140 800 -19 102 -48
271 -64 375 l-30 190 4 -185z"/>
<path d="M6830 7780 c-10 -7 -12 -12 -4 -17 20 -14 32 -48 43 -122 9 -71 23
-102 38 -88 11 12 -14 187 -32 213 -17 27 -23 28 -45 14z"/>
<path d="M8673 7779 c3 -8 17 -50 31 -94 92 -295 108 -693 46 -1126 -42 -288
-128 -604 -207 -762 -13 -27 -22 -52 -19 -55 8 -7 117 223 160 339 112 303
176 704 162 1019 -12 277 -61 517 -131 636 -25 42 -54 72 -42 43z"/>
<path d="M7830 7613 c0 -9 -12 -29 -27 -45 -14 -15 -25 -29 -22 -31 10 -8 98
-57 102 -57 10 0 7 123 -4 136 -16 20 -49 18 -49 -3z"/>
<path d="M7692 7511 c4 -49 24 -185 43 -302 27 -165 35 -242 35 -343 1 -247
26 -339 104 -379 38 -20 39 -20 52 -2 31 42 38 95 41 315 4 186 2 223 -9 212
-10 -10 -13 -57 -13 -187 0 -160 -2 -175 -21 -202 -12 -15 -30 -29 -42 -31
-24 -4 -28 11 -37 143 -10 147 -44 408 -70 542 -26 136 -76 323 -85 323 -3 0
-2 -40 2 -89z"/>
<path d="M6300 7525 c0 -5 7 -95 15 -200 23 -311 65 -1227 65 -1437 l0 -86
-42 -41 -43 -40 -1 -363 c0 -305 -3 -375 -18 -438 -19 -85 -60 -165 -100 -195
-28 -20 -28 -20 -42 0 -10 14 -15 42 -14 90 2 103 1 117 -9 111 -14 -9 -24
-354 -11 -413 7 -29 15 -53 18 -53 4 0 7 37 7 82 0 79 1 83 23 86 13 2 37 -2
53 -8 41 -18 74 -6 93 33 24 52 74 318 97 512 36 323 40 920 10 1470 -7 110
-16 324 -20 475 -8 244 -11 281 -30 331 -21 55 -50 103 -51 84z m84 -1882 c10
-25 -5 -163 -18 -163 -36 1 -42 21 -38 128 2 48 4 52 26 52 13 0 27 -7 30 -17z"/>
<path d="M7227 7408 c7 -133 39 -365 88 -638 69 -391 86 -537 86 -750 0 -184
0 -185 19 -162 35 42 44 98 30 187 -31 207 -38 281 -33 324 3 28 -3 89 -16
155 -12 60 -37 224 -56 365 -20 141 -44 303 -56 361 -19 102 -56 240 -63 240
-2 0 -2 -37 1 -82z"/>
<path d="M8083 7429 c-13 -4 -21 -14 -18 -21 14 -41 127 -450 149 -538 89
-362 103 -665 41 -900 -28 -110 -33 -222 -10 -276 l15 -36 28 20 c40 29 117
114 136 150 19 36 21 92 4 92 -6 0 -40 -29 -75 -65 -88 -91 -101 -88 -72 13
37 129 52 283 46 472 -9 292 -60 563 -164 869 -36 109 -44 142 -38 176 7 47
-4 58 -42 44z"/>
<path d="M8900 7330 c0 -35 32 -100 48 -100 17 0 -5 91 -27 113 l-21 21 0 -34z"/>
<path d="M8966 7125 c3 -22 9 -101 13 -175 19 -399 -62 -763 -235 -1057 -18
-30 -18 -32 -1 -51 25 -27 21 -71 -10 -117 -27 -40 -34 -88 -16 -106 10 -10
56 105 165 416 142 407 177 695 119 985 -21 101 -47 182 -35 105z"/>
<path d="M8041 7087 c-1 -5 7 -63 16 -130 27 -192 24 -625 -6 -817 -63 -408
-186 -742 -358 -971 -29 -39 -53 -73 -53 -75 0 -17 93 52 144 107 139 150 250
446 322 857 45 258 43 494 -6 774 -20 110 -57 271 -59 255z"/>
<path d="M6560 6921 c0 -67 9 -150 29 -253 19 -106 27 -172 23 -215 -6 -80 2
-107 33 -121 31 -15 31 -30 0 245 -33 294 -60 443 -80 443 -3 0 -5 -45 -5 -99z"/>
<path d="M6130 6927 c0 -2 9 -30 20 -62 31 -90 48 -201 70 -455 10 -129 26
-274 35 -322 15 -85 49 -193 66 -213 23 -24 -1 194 -51 475 -17 96 -35 237
-40 312 -14 205 -34 268 -82 268 -10 0 -18 -2 -18 -3z"/>
<path d="M5645 6488 c22 -138 47 -166 43 -46 -3 79 -4 83 -27 86 -22 4 -23 2
-16 -40z"/>
<path d="M5176 6323 c-3 -3 0 -17 5 -32 6 -14 44 -145 85 -290 41 -146 91
-308 111 -360 37 -101 101 -236 108 -229 8 8 -54 226 -110 383 -31 88 -72 203
-90 255 -29 82 -33 103 -28 157 4 47 2 68 -10 86 -14 22 -60 41 -71 30z"/>
<path d="M5065 6109 c11 -50 33 -99 44 -99 15 0 33 38 27 58 -3 9 -22 30 -42
46 l-36 29 7 -34z"/>
<path d="M6640 6065 c0 -104 -28 -444 -46 -570 -9 -60 -26 -149 -38 -198 -19
-76 -20 -86 -6 -67 40 54 89 244 111 429 14 124 8 427 -9 456 -9 17 -11 8 -12
-50z"/>
<path d="M12076 6089 c-32 -11 -82 -35 -110 -53 -50 -32 -152 -133 -144 -142
11 -10 134 32 238 83 63 30 144 69 179 86 53 25 61 32 45 38 -38 15 -148 9
-208 -12z"/>
<path d="M6837 6000 c-60 -463 -86 -590 -147 -715 -21 -44 -37 -81 -36 -82 1
-2 21 13 44 33 105 90 158 330 150 684 -3 131 -4 139 -11 80z"/>
<path d="M6005 5788 c-15 -99 28 -334 72 -392 15 -20 15 -20 8 -1 -4 11 -10
92 -12 180 -5 170 -12 212 -43 240 -18 16 -19 15 -25 -27z"/>
<path d="M8389 5578 c-30 -36 -65 -85 -77 -107 l-23 -41 22 0 c33 0 94 70 118
136 12 31 20 62 18 67 -2 6 -28 -19 -58 -55z"/>
<path d="M8140 5550 c0 -12 -15 -61 -34 -109 -53 -133 -53 -132 -17 -120 42
15 93 75 130 152 35 72 41 108 16 87 -14 -12 -42 -10 -77 5 -14 6 -18 2 -18
-15z"/>
<path d="M5840 5477 c0 -3 4 -28 10 -54 5 -26 16 -106 25 -178 15 -139 35
-218 60 -250 15 -19 16 -19 11 10 -3 17 -8 84 -11 150 -7 140 -20 216 -45 266
-17 32 -50 70 -50 56z"/>
<path d="M11981 5270 c-24 -5 -71 -22 -105 -38 -55 -26 -104 -62 -336 -252
-41 -33 -103 -75 -138 -92 -34 -17 -61 -32 -60 -33 4 -4 250 14 274 20 13 3
36 30 60 72 78 134 207 233 321 249 52 6 148 -10 158 -27 15 -23 -87 -173
-155 -228 l-40 -32 -28 21 c-15 11 -55 26 -89 32 -53 10 -68 9 -106 -6 -25 -9
-51 -23 -57 -31 -9 -11 -4 -15 27 -20 21 -4 92 -17 158 -30 l120 -23 55 47
c116 98 195 178 232 236 l39 59 -33 18 c-101 54 -212 75 -297 58z"/>
<path d="M11277 4782 l-38 -17 53 -19 c71 -25 130 -64 273 -180 132 -107 210
-151 297 -166 64 -12 153 -1 224 28 40 16 42 18 47 72 9 80 -7 178 -33 205
-25 26 -69 38 -87 23 -18 -15 -16 -73 6 -142 10 -32 16 -69 13 -81 -5 -30 -46
-45 -121 -45 -88 0 -141 32 -285 167 -180 169 -250 200 -349 155z"/>
<path d="M11952 4208 c-77 -154 -97 -225 -89 -333 9 -118 29 -163 132 -293 50
-62 60 -108 40 -185 -34 -131 -145 -256 -297 -332 -135 -68 -206 -80 -448 -79
-223 1 -303 10 -710 84 -292 52 -421 70 -575 77 -190 8 -331 -23 -411 -90 -30
-26 -31 -29 -38 -134 -26 -407 -105 -708 -273 -1035 l-65 -127 -56 44 c-80 61
-156 97 -349 164 -92 33 -257 91 -367 130 -949 341 -1804 484 -2441 411 -222
-25 -497 -97 -645 -169 -36 -17 -56 -29 -46 -26 112 32 447 85 661 106 190 18
607 16 795 -5 539 -58 1065 -189 1710 -426 164 -61 607 -233 700 -273 l35 -15
-7 -135 c-8 -170 -28 -251 -71 -294 l-32 -32 -67 19 c-226 63 -572 49 -730
-30 -65 -33 -98 -68 -98 -104 1 -46 40 -115 90 -157 44 -37 552 -289 856 -424
339 -151 734 -296 994 -365 69 -18 133 -40 144 -49 10 -9 36 -40 58 -68 43
-59 76 -73 113 -49 21 14 23 19 14 46 -14 38 -75 93 -136 120 -26 12 -115 41
-198 64 -338 97 -696 240 -1145 456 -135 65 -281 133 -325 150 -171 67 -268
139 -307 228 l-21 46 31 27 c63 57 203 74 497 62 l209 -8 21 -32 c11 -18 29
-47 40 -64 25 -40 41 -46 50 -20 4 13 21 25 46 32 38 12 43 10 176 -53 180
-86 279 -119 375 -126 84 -5 150 12 182 47 16 17 13 18 -71 25 -223 18 -463
91 -605 186 -38 26 -48 38 -48 60 0 78 71 350 91 350 6 0 89 -37 183 -83 282
-137 392 -219 550 -411 46 -56 92 -109 103 -119 20 -18 21 -17 27 18 5 23 1
57 -9 92 -13 46 -28 68 -78 117 -65 64 -294 215 -614 404 l-172 102 38 92 c21
51 58 136 81 188 169 378 228 573 250 835 8 88 16 135 26 146 8 9 43 29 77 45
55 25 73 28 162 27 70 0 137 -8 225 -28 323 -70 412 -85 642 -106 280 -25 610
-30 733 -11 44 7 118 23 163 34 l84 21 88 91 c207 215 250 282 258 404 6 96
-10 136 -103 258 -82 106 -111 159 -120 219 -6 36 1 54 59 168 36 70 66 140
66 156 0 24 -25 61 -41 61 -3 0 -33 -55 -67 -122z"/>
<path d="M5307 3223 c-14 -215 -94 -383 -258 -538 -97 -91 -180 -147 -429
-290 -222 -127 -370 -224 -399 -261 -21 -26 -62 -124 -83 -194 -11 -38 -20
-49 -61 -71 -67 -36 -81 -52 -73 -84 8 -31 14 -30 95 18 32 19 104 85 180 166
110 116 162 160 401 340 209 157 296 216 360 245 108 48 141 74 197 150 102
137 171 331 159 449 -7 71 -49 157 -76 157 -4 0 -10 -39 -13 -87z"/>
<path d="M3735 3005 c54 -162 90 -331 111 -530 20 -188 14 -670 -10 -870 -49
-395 -105 -670 -207 -1021 l-41 -141 -123 -62 c-67 -33 -146 -65 -175 -71 -29
-5 -130 -10 -224 -10 -207 0 -273 -9 -415 -55 -143 -46 -250 -59 -436 -52
-173 7 -517 55 -620 88 -84 26 -144 28 -179 5 -43 -27 -43 -27 104 -83 195
-74 528 -104 920 -84 244 13 751 48 793 56 49 8 211 92 319 164 183 123 339
285 458 476 70 114 116 164 250 276 107 89 156 153 167 219 9 50 6 120 -5 120
-4 -1 -18 -24 -31 -53 -24 -52 -90 -121 -339 -359 -97 -94 -104 -103 -161
-220 -32 -68 -71 -135 -86 -150 -28 -28 -62 -44 -73 -34 -6 6 26 201 108 671
113 648 132 1009 69 1318 -31 153 -102 326 -164 402 l-17 20 7 -20z"/>
<path d="M4934 2343 c-37 -169 -134 -348 -263 -486 -77 -83 -312 -269 -420
-333 -14 -8 -38 -41 -53 -72 -16 -34 -62 -96 -113 -152 -132 -145 -164 -204
-136 -249 14 -22 86 41 168 146 38 48 103 130 145 184 88 111 156 170 245 210
37 17 70 41 84 61 13 17 77 88 142 157 66 69 137 149 158 176 74 98 118 210
133 338 l6 47 -45 0 c-41 0 -45 -3 -51 -27z"/>
</g>
</svg>
