<?xml version="1.0" standalone="no"?>
<!DOCTYPE svg PUBLIC "-//W3C//DTD SVG 20010904//EN"
 "http://www.w3.org/TR/2001/REC-SVG-20010904/DTD/svg10.dtd">
<svg version="1.0" xmlns="http://www.w3.org/2000/svg"
 width="1026.000000pt" height="1280.000000pt" viewBox="0 0 1026.000000 1280.000000"
 preserveAspectRatio="xMidYMid meet">
<g transform="translate(0.000000,1280.000000) scale(0.100000,-0.100000)"
fill="#000000" stroke="none">
<path d="M7090 12797 c-3 -3 -50 -13 -105 -22 -100 -17 -193 -46 -230 -71 -26
-19 -11 -17 60 5 118 37 255 54 403 48 151 -5 221 -20 322 -69 125 -61 209
-179 229 -321 12 -82 9 -91 -61 -182 -62 -81 -108 -115 -155 -115 -51 0 -51
22 1 70 72 67 93 158 60 271 -37 128 -147 230 -247 229 -29 0 -27 -3 30 -30
70 -34 145 -111 163 -166 15 -44 5 -56 -17 -23 -43 62 -117 118 -201 150 l-27
10 28 -29 c32 -34 29 -48 -20 -93 -47 -44 -69 -50 -181 -51 -178 0 -266 25
-571 163 -214 98 -278 113 -461 107 -131 -5 -154 -9 -245 -40 -99 -33 -259
-120 -323 -175 -27 -22 -35 -38 -39 -75 -12 -108 54 -205 197 -288 104 -59
100 -56 88 -92 -16 -46 -61 -68 -141 -68 -67 0 -296 -54 -593 -140 -398 -116
-646 -243 -797 -411 -143 -156 -239 -485 -172 -585 l20 -29 12 132 c13 147 48
268 84 293 55 39 69 59 69 99 0 31 7 49 31 76 61 69 400 276 566 345 108 45
233 76 488 120 155 27 278 55 378 86 149 47 199 52 275 29 16 -6 22 -3 22 8 0
31 76 32 200 1 14 -3 0 8 -30 26 -116 66 -180 159 -180 262 0 60 18 118 47
150 9 10 14 21 11 23 -10 10 -83 -81 -110 -136 -30 -62 -30 -64 47 -164 31
-41 44 -68 43 -85 -3 -23 -7 -25 -49 -24 -58 2 -138 42 -176 89 -27 33 -31 34
-59 23 -92 -34 -201 89 -212 241 -6 86 2 95 128 145 52 20 104 46 116 57 26
24 54 19 54 -10 0 -18 3 -18 60 5 90 37 162 47 295 41 149 -6 217 -28 171 -54
-8 -5 22 -8 69 -8 69 0 88 -4 112 -21 47 -35 37 -54 -41 -80 -204 -69 -288
-214 -227 -389 17 -47 20 -50 61 -57 97 -17 120 -71 84 -198 -5 -19 1 -14 25
18 33 44 34 45 91 24 8 -3 0 11 -17 31 -52 59 -40 137 20 137 20 0 19 2 -8 18
-43 27 -105 99 -105 122 0 10 9 42 20 70 16 40 17 50 6 50 -19 0 -33 -49 -41
-143 -9 -116 -22 -133 -62 -79 -54 73 -68 147 -39 216 52 124 274 215 455 187
95 -15 141 -34 141 -60 0 -17 10 -21 68 -27 87 -11 227 -11 274 -1 55 11 97
51 104 98 4 26 12 39 22 39 26 0 98 -85 116 -136 39 -116 0 -254 -66 -229 -18
7 -38 47 -39 78 0 12 -8 -5 -18 -38 -30 -103 -87 -166 -164 -182 -31 -7 -31
-7 -7 -14 14 -4 52 -7 84 -8 58 -1 59 -1 42 18 -10 11 -16 28 -14 38 11 55
479 -26 764 -133 129 -47 327 -146 434 -215 124 -80 276 -206 371 -306 85 -90
84 -76 -3 34 -207 263 -580 474 -1053 598 -164 43 -188 52 -180 65 10 16 282
12 398 -5 365 -55 674 -209 912 -456 179 -186 305 -423 305 -576 0 -61 -22
-113 -48 -113 -27 0 -222 62 -427 135 -262 94 -383 128 -568 160 -37 6 -38 5
-32 -17 18 -57 65 -126 138 -199 72 -72 83 -90 137 -208 134 -296 245 -615
305 -876 38 -169 45 -165 15 10 -56 330 -188 722 -311 926 -27 45 -86 121
-133 169 -83 86 -111 139 -88 162 14 14 170 -30 379 -108 355 -132 518 -181
682 -203 l63 -8 -6 41 c-11 69 -84 275 -133 374 -229 467 -630 747 -1208 841
-66 11 -159 23 -208 27 -48 3 -89 10 -92 14 -3 4 6 32 19 61 124 281 -31 482
-429 555 -94 17 -236 29 -245 21z"/>
<path d="M6964 12670 c-40 -4 -80 -13 -90 -19 -25 -14 -6 -14 70 0 67 12 93 1
75 -32 -9 -18 -5 -19 103 -18 100 1 109 2 76 13 -50 15 -55 24 -24 35 14 6 26
15 26 21 0 11 -126 11 -236 0z"/>
<path d="M5746 12446 c-58 -60 -58 -121 -1 -211 l26 -40 -8 35 c-14 63 -9 172
10 209 24 48 13 51 -27 7z"/>
<path d="M6689 12300 c-43 -23 -99 -84 -98 -108 0 -14 2 -14 9 3 15 34 43 62
94 94 55 34 52 41 -5 11z"/>
<path d="M6748 12192 c-30 -33 -55 -84 -74 -150 -2 -7 -17 -18 -32 -25 l-29
-12 22 -36 c21 -33 29 -37 97 -48 168 -30 393 -101 548 -173 145 -67 323 -185
433 -287 70 -65 57 -32 -19 49 -103 109 -166 146 -567 334 -76 35 -98 49 -95
63 4 22 82 63 123 64 l30 1 -33 9 c-18 6 -35 16 -38 24 -5 11 -14 10 -52 -7
-109 -47 -231 -31 -292 38 -38 44 -40 92 -5 152 13 23 22 42 21 42 -2 0 -19
-17 -38 -38z"/>
<path d="M6075 11910 c19 -31 -93 -106 -270 -180 -158 -66 -229 -118 -91 -66
138 52 413 214 408 241 -1 6 -13 11 -28 13 -18 2 -24 0 -19 -8z"/>
<path d="M7787 11821 c151 -84 287 -185 461 -341 57 -51 106 -90 109 -87 3 3
-55 66 -128 140 -143 144 -239 215 -373 278 -115 54 -158 60 -69 10z"/>
<path d="M6734 11718 c52 -53 116 -134 176 -225 52 -79 97 -143 101 -143 10 0
-4 48 -29 95 -11 22 -53 86 -94 141 -40 56 -81 116 -90 133 -16 29 -57 54
-125 75 -12 4 12 -27 61 -76z"/>
<path d="M5245 11718 c-76 -25 -83 -32 -24 -25 51 7 99 26 99 39 0 11 -5 10
-75 -14z"/>
<path d="M7709 11669 c183 -118 301 -228 349 -326 21 -43 24 -55 14 -65 -10
-10 -74 -13 -250 -13 -130 0 -255 -4 -278 -9 l-40 -8 -88 101 c-149 171 -353
340 -431 356 -19 4 19 -25 105 -82 163 -108 218 -161 266 -257 48 -97 45 -109
-31 -118 -96 -12 -91 -29 6 -20 109 9 627 9 746 0 l92 -8 -30 53 c-121 204
-303 380 -457 440 -76 30 -68 18 27 -44z"/>
<path d="M6205 11653 c-96 -111 -93 -108 -69 -95 28 15 99 93 118 131 9 17 15
31 13 31 -2 0 -30 -30 -62 -67z"/>
<path d="M6601 11714 c2 -6 39 -41 81 -78 89 -77 113 -114 162 -244 54 -147
92 -190 61 -71 -39 150 -147 299 -279 385 -16 10 -27 14 -25 8z"/>
<path d="M8310 11657 c8 -7 53 -45 100 -84 85 -71 222 -208 314 -313 l48 -55
-28 53 c-67 128 -250 315 -372 380 -63 34 -86 41 -62 19z"/>
<path d="M6261 11582 l-84 -78 27 -18 c15 -10 29 -16 31 -14 1 2 22 35 45 73
24 39 49 80 58 93 8 12 13 22 11 22 -2 0 -42 -35 -88 -78z"/>
<path d="M7310 11604 c25 -21 81 -72 125 -114 44 -41 91 -84 104 -95 l25 -20
-21 34 c-45 73 -159 174 -243 215 -34 17 -33 16 10 -20z"/>
<path d="M5845 11556 c-38 -18 -78 -42 -88 -53 -16 -19 -16 -21 3 -38 26 -24
48 -14 123 55 87 79 76 90 -38 36z"/>
<path d="M4845 11535 c-229 -131 -369 -290 -410 -467 -17 -77 -8 -127 32 -158
38 -30 46 -26 39 23 -20 131 -19 143 8 202 58 127 178 265 328 376 119 88 119
90 3 24z"/>
<path d="M6490 11541 c0 -19 131 -273 138 -267 12 12 -33 140 -67 194 -40 61
-71 93 -71 73z"/>
<path d="M4617 11476 c-186 -106 -327 -232 -379 -338 -57 -116 -62 -273 -10
-324 16 -17 17 -13 24 72 10 120 24 175 65 263 43 91 155 208 283 295 132 91
137 100 17 32z"/>
<path d="M5195 11458 c-136 -100 -231 -218 -277 -344 -27 -76 -38 -244 -16
-244 8 0 22 8 32 18 13 16 16 37 14 118 -2 92 0 103 28 164 59 124 142 213
276 295 31 19 40 36 21 42 -4 2 -39 -20 -78 -49z"/>
<path d="M5068 11484 c-16 -8 -28 -17 -28 -19 0 -7 60 17 66 26 8 13 -7 10
-38 -7z"/>
<path d="M6311 11451 c-11 -20 -12 -47 -5 -130 14 -190 13 -209 -20 -237 -66
-57 -100 -9 -101 142 0 56 -3 100 -7 98 -3 -2 -16 -34 -28 -70 -22 -65 -23
-131 -5 -191 6 -20 0 -25 -46 -46 -30 -14 -72 -41 -94 -61 l-40 -37 43 21
c129 63 502 190 556 190 51 0 116 18 116 31 0 6 -8 8 -17 5 -33 -10 -217 -36
-259 -36 -64 0 -68 11 -74 189 -4 140 -6 153 -19 132z"/>
<path d="M5519 11424 c-21 -24 -22 -26 -3 -16 25 13 50 42 37 42 -5 0 -20 -12
-34 -26z"/>
<path d="M4827 11299 c-92 -105 -121 -208 -76 -270 11 -16 23 -29 27 -29 4 0
7 37 7 83 0 78 2 86 47 175 27 50 46 92 44 92 -3 0 -25 -23 -49 -51z"/>
<path d="M5777 11221 c-72 -77 -121 -167 -137 -251 -10 -51 -9 -56 11 -73 36
-29 125 -50 167 -39 25 7 30 10 15 11 -27 1 -29 22 -9 98 20 74 59 155 111
229 24 35 40 64 36 64 -22 0 -79 -85 -136 -205 -35 -72 -71 -137 -79 -144 -22
-18 -42 0 -57 49 -24 79 8 160 109 278 63 74 46 65 -31 -17z"/>
<path d="M5316 11158 c-66 -136 -80 -259 -34 -304 11 -12 14 -3 16 57 2 76 20
167 53 267 12 35 19 66 16 69 -3 3 -26 -37 -51 -89z"/>
<path d="M5482 11177 c-45 -75 -71 -139 -78 -190 -7 -46 8 -108 29 -126 10 -7
13 11 13 82 0 81 5 104 37 187 20 52 35 96 33 97 -1 1 -16 -21 -34 -50z"/>
<path d="M7686 11132 c-2 -4 24 -41 59 -82 35 -41 88 -116 117 -167 28 -51 53
-91 55 -89 5 5 -25 68 -84 177 -33 61 -50 103 -47 116 4 15 -1 23 -23 31 -50
19 -71 23 -77 14z"/>
<path d="M5111 11091 c-25 -49 -51 -143 -51 -186 0 -22 10 -40 33 -63 34 -33
57 -41 57 -20 0 6 -8 20 -17 30 -24 26 -28 127 -10 208 9 36 14 66 12 68 -2 2
-13 -14 -24 -37z"/>
<path d="M5546 11064 c-9 -26 -15 -70 -15 -98 l2 -51 7 65 c5 36 13 78 19 94
7 16 10 31 7 33 -2 2 -11 -17 -20 -43z"/>
<path d="M7300 11071 c0 -13 50 -71 60 -71 15 0 -11 60 -30 70 -23 12 -30 13
-30 1z"/>
<path d="M8110 11068 c0 -10 29 -48 64 -85 172 -184 293 -470 402 -953 13 -58
21 -82 18 -55 -9 87 -74 354 -116 474 -50 146 -139 333 -212 445 -68 102 -155
200 -156 174z"/>
<path d="M7180 11062 c0 -12 81 -94 87 -88 8 8 -44 74 -67 86 -11 6 -20 7 -20
2z"/>
<path d="M7614 10998 c65 -94 121 -211 170 -360 64 -192 125 -508 98 -508 -11
0 -28 42 -111 270 -28 74 -50 131 -50 127 -1 -4 12 -53 29 -107 16 -55 45
-166 64 -248 18 -81 39 -167 45 -192 l10 -45 -3 62 c-2 34 -2 64 1 67 12 12
42 -16 57 -54 16 -41 23 -190 9 -203 -3 -4 -18 3 -31 15 -23 22 -24 22 -19 3
3 -11 11 -62 18 -113 6 -51 15 -95 19 -97 4 -2 10 23 13 56 8 90 29 101 48 25
11 -41 3 44 -22 254 -67 558 -167 884 -326 1060 -24 27 -49 50 -54 50 -4 0 11
-28 35 -62z"/>
<path d="M7070 11014 c0 -3 19 -38 43 -77 111 -185 202 -473 267 -852 84 -493
115 -1110 70 -1425 -20 -141 -19 -204 5 -237 22 -29 28 162 22 622 -6 418 -13
552 -42 820 -52 471 -164 862 -314 1102 -23 37 -51 63 -51 47z"/>
<path d="M6840 10997 c0 -15 55 -69 87 -86 22 -11 53 -6 53 9 0 5 -21 27 -46
49 -46 40 -94 54 -94 28z"/>
<path d="M6510 10936 c0 -3 29 -47 64 -99 74 -109 131 -221 186 -367 49 -130
51 -119 5 27 -39 124 -120 312 -159 369 -29 43 -96 92 -96 70z"/>
<path d="M8070 10925 c0 -2 14 -26 30 -52 17 -26 30 -44 30 -41 0 18 -41 98
-50 98 -5 0 -10 -2 -10 -5z"/>
<path d="M6720 10905 c0 -3 18 -41 40 -84 108 -216 186 -538 225 -931 21 -213
32 -679 15 -664 -6 7 -21 81 -31 165 -11 84 -22 156 -25 159 -3 3 -4 -53 -2
-125 3 -129 4 -131 48 -230 l44 -100 6 -162 c3 -89 8 -165 13 -169 20 -20 -13
753 -49 1146 -42 465 -115 763 -230 936 -34 50 -54 73 -54 59z"/>
<path d="M7970 10909 c0 -4 22 -53 49 -110 140 -295 221 -654 281 -1253 24
-241 25 -357 4 -502 -16 -112 -14 -185 8 -245 l13 -34 6 55 c17 141 4 566 -27
850 -50 470 -214 1120 -305 1215 -16 16 -29 27 -29 24z"/>
<path d="M8691 10869 c59 -73 105 -157 167 -300 32 -74 64 -144 71 -155 29
-45 -2 45 -50 146 -50 107 -58 143 -38 156 7 4 -2 12 -22 18 -34 12 -36 15
-23 69 4 18 2 27 -6 27 -7 0 -33 15 -59 33 -74 53 -78 53 -40 6z"/>
<path d="M7310 10883 c0 -6 15 -65 34 -130 109 -378 173 -811 226 -1518 l18
-240 1 130 c3 440 -103 1203 -230 1645 -27 94 -49 145 -49 113z"/>
<path d="M8890 10884 c0 -13 58 -69 65 -63 2 3 -11 21 -30 39 -19 19 -35 29
-35 24z"/>
<path d="M6311 10793 c7 -20 150 -185 156 -179 8 8 -52 97 -89 132 -49 45 -72
61 -67 47z"/>
<path d="M6120 10781 c0 -10 47 -68 194 -242 44 -52 88 -109 99 -127 30 -51
31 -30 1 30 -40 80 -101 166 -163 232 -65 68 -131 122 -131 107z"/>
<path d="M6566 10700 c20 -41 54 -120 75 -175 42 -110 53 -109 15 1 -25 74
-84 196 -111 229 -9 11 1 -14 21 -55z"/>
<path d="M9514 10723 c484 -639 693 -1325 673 -2208 -9 -384 -56 -745 -192
-1475 -135 -724 -179 -1008 -225 -1470 -42 -415 -46 -501 -27 -640 26 -195 29
-233 18 -302 -13 -81 -45 -158 -65 -158 -8 0 -28 28 -45 63 l-30 62 -1 -58 c0
-61 -23 -121 -43 -115 -38 12 -67 135 -67 282 -1 148 -17 293 -40 361 l-21 60
6 -130 c9 -216 66 -639 88 -662 4 -3 18 -1 32 5 35 16 64 15 71 -3 5 -12 13
-9 40 15 19 16 38 30 43 30 19 0 28 -30 40 -125 7 -55 33 -194 56 -310 58
-279 79 -384 110 -543 45 -235 99 -362 173 -405 l32 -19 0 35 c0 22 -15 63
-40 109 -109 202 -109 202 -119 343 -7 121 -12 142 -65 295 -62 182 -84 306
-107 618 -16 228 -7 692 20 947 11 110 34 368 51 574 55 682 89 904 178 1181
31 94 58 206 71 285 90 565 148 1273 123 1520 -7 60 -17 170 -23 243 -19 235
-31 275 -266 882 -69 180 -135 312 -253 511 -94 158 -134 210 -182 235 -47 25
-51 15 -14 -33z"/>
<path d="M9210 10743 c0 -8 22 -45 49 -82 150 -203 321 -493 403 -683 23 -53
44 -95 46 -94 2 2 -15 50 -38 107 -77 195 -230 471 -378 681 -55 77 -82 101
-82 71z"/>
<path d="M6020 10735 c0 -5 193 -230 223 -260 5 -5 -17 31 -51 80 -33 50 -68
107 -78 128 -11 23 -25 37 -37 37 -10 0 -27 5 -38 10 -10 6 -19 8 -19 5z"/>
<path d="M9370 10724 c0 -12 110 -200 253 -431 212 -342 292 -512 381 -809 3
-10 3 5 0 34 -12 126 -88 325 -196 513 -290 502 -349 599 -412 674 -14 17 -25
25 -26 19z"/>
<path d="M4026 10613 c-161 -246 -282 -531 -347 -818 -19 -85 -23 -131 -24
-315 -1 -118 -5 -228 -8 -245 -3 -16 -20 -94 -37 -172 -50 -235 -39 -327 68
-558 78 -169 96 -230 96 -335 l1 -85 -128 -210 c-210 -346 -297 -448 -482
-574 -244 -165 -296 -235 -265 -352 20 -74 92 -133 271 -224 168 -85 217 -115
268 -166 77 -78 89 -163 41 -284 -31 -78 -38 -125 -19 -125 21 0 75 67 87 107
18 62 15 198 -7 278 -28 99 -40 108 -335 244 -60 28 -129 68 -154 88 -48 39
-102 116 -102 144 0 10 57 70 128 135 208 194 390 374 457 454 155 186 255
383 305 606 11 50 10 52 -56 215 -139 342 -164 405 -164 423 0 11 11 42 24 70
44 92 56 183 66 476 5 169 15 305 24 354 43 222 117 420 275 733 55 112 101
210 101 218 0 33 -24 10 -84 -82z"/>
<path d="M9197 10648 c103 -176 203 -422 272 -668 51 -186 53 -157 2 43 -64
250 -144 447 -245 602 -31 47 -58 85 -60 85 -3 0 11 -28 31 -62z"/>
<path d="M7025 10566 c136 -562 162 -1373 64 -1985 -10 -68 -17 -126 -14 -129
2 -3 14 15 25 40 27 62 59 335 68 591 16 455 -22 1056 -87 1382 -18 89 -57
195 -71 195 -4 0 3 -42 15 -94z"/>
<path d="M5827 10643 c-14 -14 -5 -23 65 -69 126 -81 232 -202 307 -352 30
-60 91 -228 91 -251 0 -35 -39 5 -132 137 -99 138 -194 243 -245 271 -13 6
-23 9 -23 6 0 -4 44 -56 98 -116 203 -230 323 -422 372 -599 23 -81 40 -290
23 -290 -14 0 -40 60 -94 218 -57 165 -66 185 -126 269 -39 56 -103 113 -126
113 -4 0 17 -32 46 -70 277 -364 367 -896 267 -1577 -29 -193 -56 -318 -111
-502 -88 -293 -100 -652 -38 -1090 28 -201 52 -296 108 -430 66 -158 77 -196
101 -346 12 -71 41 -236 65 -366 109 -588 136 -806 136 -1109 0 -171 -2 -206
-15 -215 -8 -6 -72 -22 -143 -34 -370 -66 -697 -146 -1548 -378 l-610 -166
-85 16 c-213 42 -441 57 -873 57 l-267 0 -11 27 c-20 54 -49 260 -60 426 l-10
170 -54 111 c-128 267 -181 530 -172 842 6 227 11 242 87 294 94 64 76 88 -35
47 -52 -20 -67 -40 -100 -139 -23 -69 -29 -105 -33 -208 -6 -194 8 -251 186
-740 81 -224 96 -290 94 -410 -2 -75 4 -137 20 -218 l23 -113 -20 -37 c-12
-21 -32 -41 -47 -46 -24 -9 -32 -6 -59 20 -73 69 -103 155 -130 369 -27 215
-48 288 -136 468 -57 115 -98 221 -168 433 -122 371 -192 516 -302 630 l-39
40 -79 -1 c-76 0 -79 -1 -98 -30 -156 -245 -168 -661 -30 -1075 35 -106 144
-333 150 -313 2 5 -14 66 -36 134 -51 161 -84 287 -113 429 -19 96 -22 147
-22 310 0 169 3 205 22 273 26 94 75 197 108 228 29 27 34 24 118 -86 81 -105
104 -142 165 -264 67 -133 91 -193 232 -590 119 -333 163 -473 193 -606 20
-91 41 -288 33 -309 -9 -22 -53 -20 -76 3 -27 27 -41 83 -41 161 0 41 -5 73
-14 86 -8 11 -31 61 -51 112 -20 50 -44 97 -52 104 -15 12 -16 9 -10 -28 4
-22 23 -94 43 -160 65 -215 83 -354 49 -388 -38 -38 -173 -48 -240 -17 -112
51 -186 214 -172 381 10 116 28 145 172 268 44 38 37 59 -15 47 -79 -17 -157
-131 -220 -318 -20 -61 -41 -112 -47 -114 -6 -2 -51 74 -101 169 -102 197
-158 296 -276 488 -46 74 -127 209 -181 300 -143 241 -231 359 -318 425 -146
109 -301 -96 -301 -400 0 -86 5 -126 23 -185 57 -184 181 -400 398 -692 79
-106 93 -130 87 -152 -12 -48 2 -72 55 -94 82 -36 178 -45 366 -37 267 12 250
13 253 -10 1 -11 -7 -35 -18 -53 -46 -74 -168 -94 -444 -72 l-161 13 -57 43
c-31 24 -58 49 -60 56 -3 8 -17 7 -53 -5 -73 -25 -172 -22 -226 6 -68 36 -80
99 -22 113 15 4 59 2 98 -5 56 -9 78 -9 101 0 28 12 27 13 -33 20 -34 4 -79
12 -100 18 -72 20 -118 14 -152 -20 -17 -17 -31 -40 -31 -52 0 -39 38 -85 92
-114 49 -26 62 -28 169 -28 94 0 121 -3 135 -16 26 -23 69 -43 134 -64 30 -10
72 -26 92 -36 45 -23 48 -36 83 -349 32 -288 40 -335 72 -449 l26 -94 -29 -24
c-16 -12 -54 -36 -85 -52 -82 -45 -136 -101 -96 -101 12 0 32 12 150 93 49 32
80 34 115 7 29 -24 36 -19 54 35 8 25 25 48 47 62 38 26 31 28 -34 11 -38 -10
-47 -10 -59 2 -14 15 -58 144 -77 229 -32 140 -69 442 -69 562 0 45 2 48 33
58 17 6 82 15 142 21 89 8 121 16 169 40 81 41 91 34 99 -72 3 -46 18 -137 33
-203 15 -66 27 -146 28 -179 l1 -58 -52 -14 c-74 -19 -126 -48 -178 -98 -62
-59 -61 -96 6 -174 31 -34 37 -70 17 -90 -9 -9 -1 -12 35 -12 50 0 173 -23
236 -43 l36 -12 7 -100 c4 -55 17 -172 29 -260 29 -208 29 -389 1 -496 -28
-105 -63 -177 -193 -404 -140 -245 -170 -327 -176 -480 -3 -60 2 -199 11 -307
9 -109 16 -205 16 -214 0 -29 49 24 55 60 3 17 2 134 -3 260 -4 126 -4 262 0
302 14 131 60 238 212 498 136 232 163 327 153 541 -3 66 -19 201 -36 300 -41
250 -45 291 -31 300 6 4 43 14 82 22 39 8 121 33 182 55 381 138 366 136 366
36 0 -73 24 -191 56 -277 14 -36 64 -140 113 -231 136 -255 168 -349 178 -512
3 -54 9 -98 14 -98 4 0 15 10 23 22 25 35 19 113 -19 261 -39 150 -42 185 -19
194 31 12 93 -73 124 -172 16 -51 61 -135 72 -135 4 0 8 26 8 58 0 90 -41 164
-143 255 -179 158 -235 218 -270 286 -54 102 -86 235 -102 418 l-7 81 57 7
c76 10 270 -10 395 -41 117 -28 110 -27 110 -14 0 20 -55 44 -131 56 -43 7
-91 19 -106 26 -59 28 -36 39 190 94 120 29 238 56 262 60 l44 6 10 -38 c95
-358 143 -791 121 -1107 -20 -300 -53 -441 -240 -1041 -67 -213 -141 -465
-165 -560 -46 -181 -80 -355 -70 -364 3 -3 17 1 31 8 48 26 73 88 114 282 115
542 170 763 261 1047 137 428 163 590 141 889 -16 204 -32 314 -93 616 -27
137 -48 255 -45 261 2 7 44 27 93 44 269 98 505 140 1116 201 166 16 335 34
376 39 40 5 80 7 87 4 16 -6 74 -119 74 -144 0 -10 -5 -29 -11 -43 -11 -22 -8
-28 24 -59 73 -69 136 -261 178 -547 22 -149 27 -254 19 -420 -4 -83 -2 -100
14 -125 l20 -30 9 30 c17 55 13 438 -7 562 -33 213 -95 434 -178 631 -22 53
-43 109 -45 123 -5 26 -2 27 59 38 282 48 571 81 726 81 l122 0 0 -42 c0 -47
-30 -121 -62 -155 -15 -16 -22 -37 -23 -75 -1 -44 -12 -74 -63 -172 -55 -105
-77 -178 -54 -175 4 0 51 89 104 197 95 192 118 258 118 342 0 57 19 99 51
116 16 8 34 12 39 9 19 -12 11 -150 -15 -246 -28 -109 -99 -307 -156 -432 -21
-48 -39 -96 -39 -106 0 -43 20 -26 68 57 108 188 122 231 142 427 18 179 48
258 110 290 64 33 71 16 44 -102 -64 -283 -123 -484 -184 -632 l-30 -75 26 25
c36 33 87 137 117 239 43 142 105 411 112 484 10 99 48 133 119 106 22 -8 26
-16 26 -52 0 -122 -84 -498 -155 -693 -19 -54 -33 -100 -31 -102 6 -6 50 55
74 102 28 56 67 189 96 333 20 92 26 152 26 242 0 117 1 120 28 150 15 16 38
31 52 32 24 3 25 1 28 -65 l3 -68 32 63 c50 98 116 106 118 14 l1 -41 9 45
c18 91 78 108 81 23 7 -237 -34 -510 -111 -737 -17 -50 -31 -92 -31 -94 0 -12
34 26 56 63 54 93 83 235 104 515 11 151 28 282 38 296 10 13 80 44 100 44 28
0 42 -21 42 -62 0 -21 5 -38 10 -38 6 0 10 6 10 14 0 22 50 76 70 76 21 0 30
-19 30 -63 0 -54 15 -62 30 -18 7 22 26 55 41 73 l29 33 19 -25 20 -25 26 27
c31 34 89 46 124 27 49 -27 43 -102 -40 -554 -49 -269 -69 -415 -55 -415 5 0
21 9 37 20 34 25 81 120 103 210 24 101 56 297 55 343 -1 58 -6 39 -37 -130
-15 -81 -32 -147 -37 -145 -18 4 -10 279 14 467 13 99 27 184 32 189 14 15 29
-6 43 -59 l12 -48 13 40 c18 56 53 98 74 90 10 -4 17 -16 17 -28 0 -19 3 -17
23 12 12 18 34 39 47 46 31 16 77 17 86 1 4 -6 11 -70 15 -142 12 -219 21
-316 29 -311 4 2 10 29 14 59 15 128 46 135 65 13 6 -39 20 -143 31 -230 22
-177 43 -270 74 -337 l21 -45 3 34 c5 51 -16 189 -50 336 -66 282 -77 334 -88
429 -10 79 -10 119 0 198 7 54 11 100 9 102 -33 22 -66 41 -74 42 -5 1 -15 2
-21 3 -16 2 -34 47 -34 88 0 34 1 35 30 31 30 -4 30 -4 30 41 0 25 -7 181 -15
346 -23 468 -29 900 -16 1199 6 148 9 271 6 274 -24 24 -28 -44 -30 -565 -1
-510 -5 -593 -25 -593 -14 0 -20 63 -30 284 -9 209 1 781 16 884 3 23 4 42 1
42 -3 0 -20 -21 -38 -46 -50 -72 -63 -173 -56 -429 4 -115 15 -307 26 -425 11
-118 27 -298 36 -400 8 -102 22 -212 30 -245 28 -113 15 -190 -40 -233 -38
-30 -69 -28 -84 4 -28 62 -42 179 -51 414 -9 226 -21 345 -36 359 -4 3 -4 -16
0 -44 17 -114 25 -261 26 -435 0 -193 11 -328 30 -400 l11 -42 20 21 c22 24
33 25 77 10 39 -13 52 -49 39 -109 -12 -57 -23 -70 -59 -70 -33 0 -29 -16 8
-30 13 -5 24 -16 24 -24 0 -14 -44 -31 -58 -22 -4 2 -86 -4 -182 -15 -225 -25
-767 -78 -1320 -129 -943 -87 -1536 -154 -2050 -230 l-195 -28 -81 49 c-203
123 -260 132 -864 149 -371 11 -493 24 -638 72 -98 33 -187 82 -177 98 15 24
465 11 1095 -30 162 -10 360 -22 440 -26 80 -4 153 -11 163 -16 10 -5 28 -33
42 -63 20 -46 29 -55 61 -64 60 -17 84 5 84 79 0 20 6 42 13 47 7 6 164 13
382 17 359 6 937 27 1315 46 479 25 587 31 607 36 22 4 23 4 3 24 -10 10 -27
45 -36 76 l-16 57 -20 -32 c-27 -42 -53 -40 -81 7 l-22 37 -3 -42 c-3 -47 -6
-49 -135 -78 -136 -31 -278 -45 -578 -56 -334 -12 -372 -9 -308 30 59 36 273
115 586 217 338 109 341 109 327 30 -11 -72 5 -33 31 75 16 63 28 149 32 217
3 62 10 115 14 118 4 2 14 -6 21 -18 9 -16 13 -72 13 -185 0 -179 15 -198 23
-27 12 267 -37 665 -173 1414 -36 195 -75 418 -88 495 -22 131 -25 140 -45
137 -18 -3 -24 7 -46 77 -70 222 -100 476 -100 851 0 294 2 331 54 725 95 712
114 928 114 1275 0 393 -34 621 -129 861 -83 211 -183 353 -369 529 -80 75
-103 89 -119 73z m-4671 -5355 c101 -75 171 -162 289 -358 93 -154 115 -186
186 -270 25 -30 60 -87 77 -127 16 -40 75 -149 131 -243 114 -191 177 -316
187 -368 6 -31 3 -39 -24 -63 -49 -44 -121 -54 -282 -40 -74 7 -146 18 -159
24 -14 7 -42 41 -64 77 -22 36 -92 139 -157 230 -276 388 -363 554 -390 748
-22 158 38 334 134 393 39 24 37 24 72 -3z m5454 -1084 c0 -7 -14 -29 -31 -49
-25 -28 -48 -40 -118 -61 -176 -52 -331 -103 -506 -168 -333 -123 -551 -181
-777 -205 -106 -12 -420 -15 -481 -5 -41 7 -45 24 -6 35 785 221 1420 387
1734 453 159 33 185 33 185 0z m-4450 -314 c0 -33 40 -117 74 -157 73 -86 212
-109 324 -52 34 17 66 28 72 24 24 -15 92 -149 124 -245 19 -57 47 -171 63
-252 15 -81 30 -148 34 -148 4 0 21 16 38 35 42 48 41 83 -4 131 -22 23 -35
46 -33 58 3 19 10 21 64 21 58 0 65 -3 120 -46 92 -72 92 -72 191 -54 49 8
147 30 218 49 72 18 200 52 285 74 178 46 314 70 417 74 118 5 110 -17 -32
-86 -189 -92 -419 -157 -730 -206 -168 -26 -324 -65 -400 -99 -33 -15 -116
-59 -185 -97 -222 -124 -316 -158 -457 -171 -171 -14 -339 63 -388 180 -22 52
-2 96 57 131 88 51 133 44 88 -14 -11 -14 -20 -40 -20 -58 0 -31 4 -35 58 -59
48 -23 75 -28 170 -31 64 -3 139 1 175 7 123 24 269 81 327 130 21 17 4 13
-93 -19 -176 -59 -396 -93 -429 -68 -23 18 -84 209 -113 353 -37 186 -48 287
-49 455 -1 157 6 209 24 180 6 -8 10 -26 10 -40z m6231 -279 c9 -43 0 -73 -20
-69 -17 3 -28 66 -17 95 9 24 30 9 37 -26z m-5523 -66 c1 -11 5 -31 9 -45 5
-24 6 -24 18 10 9 29 17 36 43 38 76 8 124 -55 137 -180 6 -59 5 -68 -9 -68
-25 0 -95 38 -124 67 -22 22 -26 23 -34 9 -11 -19 -81 -22 -96 -3 -10 13 -32
105 -32 137 0 49 81 81 88 35z m660 -34 c83 -13 146 -44 173 -87 30 -50 22
-60 -58 -66 -37 -3 -122 -22 -188 -42 -66 -20 -152 -39 -192 -43 -84 -7 -100
2 -135 72 -24 45 -58 142 -58 162 0 10 39 13 198 13 108 0 225 -4 260 -9z
m428 -22 c37 -10 45 -15 42 -33 -5 -36 -80 -66 -164 -66 -66 0 -72 2 -82 25
-17 37 -15 52 10 69 27 19 128 21 194 5z m-1736 -499 c0 -35 -33 -56 -73 -46
-58 14 -27 76 38 76 32 0 35 -2 35 -30z"/>
<path d="M7144 10540 c25 -120 57 -294 72 -385 10 -60 20 -102 22 -93 10 52
-61 444 -90 488 -7 11 -8 9 -4 -10z"/>
<path d="M8960 10549 c0 -4 15 -40 34 -81 18 -41 50 -119 71 -173 20 -55 39
-102 42 -105 17 -18 -60 215 -93 280 -23 46 -53 90 -54 79z"/>
<path d="M8024 10480 c26 -99 72 -366 102 -590 19 -146 41 -305 49 -355 l14
-90 -5 105 c-6 128 -47 452 -75 598 -23 123 -78 344 -86 352 -3 3 -3 -6 1 -20z"/>
<path d="M9145 10475 c4 -11 22 -60 41 -108 62 -162 120 -382 175 -667 47
-242 49 -250 43 -126 -11 238 -74 506 -173 742 -43 101 -108 221 -86 159z"/>
<path d="M7571 10435 c-1 -5 17 -91 38 -190 48 -217 83 -415 112 -630 25 -180
31 -512 15 -820 -4 -93 -6 -168 -3 -165 14 13 39 253 44 421 9 289 -21 603
-88 929 -43 206 -116 488 -118 455z"/>
<path d="M6560 10375 c-1 -18 53 -245 58 -241 2 3 -6 50 -18 106 -20 97 -38
156 -40 135z"/>
<path d="M8861 10265 c-1 -5 11 -57 25 -115 14 -58 36 -157 49 -220 27 -131
33 -121 9 15 -23 135 -81 357 -83 320z"/>
<path d="M6496 10117 c1 -117 4 -136 23 -167 69 -113 96 -309 86 -640 -11
-331 12 -506 72 -561 l26 -24 -8 95 c-5 52 -9 239 -10 415 -4 475 -1 437 -26
423 -30 -19 -45 8 -53 95 -13 140 -64 374 -103 474 -5 13 -8 -29 -7 -110z"/>
<path d="M9010 10138 c0 -3 16 -73 36 -155 87 -366 136 -660 132 -799 -3 -79
0 -96 15 -111 18 -17 18 -15 12 77 -20 295 -54 530 -107 735 -34 132 -88 287
-88 253z"/>
<path d="M6641 9974 c0 -11 3 -14 6 -6 3 7 2 16 -1 19 -3 4 -6 -2 -5 -13z"/>
<path d="M8602 9890 c0 -14 2 -19 5 -12 2 6 2 18 0 25 -3 6 -5 1 -5 -13z"/>
<path d="M8612 9830 c0 -14 2 -19 5 -12 2 6 2 18 0 25 -3 6 -5 1 -5 -13z"/>
<path d="M9512 9810 c0 -14 2 -19 5 -12 2 6 2 18 0 25 -3 6 -5 1 -5 -13z"/>
<path d="M8962 9780 c0 -14 2 -19 5 -12 2 6 2 18 0 25 -3 6 -5 1 -5 -13z"/>
<path d="M9521 9764 c0 -11 3 -14 6 -6 3 7 2 16 -1 19 -3 4 -6 -2 -5 -13z"/>
<path d="M8466 9725 c2 -27 13 -117 24 -200 24 -191 38 -354 46 -577 6 -147 9
-176 21 -167 16 14 18 245 3 434 -12 143 -49 371 -80 485 -18 68 -19 70 -14
25z"/>
<path d="M8822 9735 c0 -16 2 -22 5 -12 2 9 2 23 0 30 -3 6 -5 -1 -5 -18z"/>
<path d="M6806 9570 c3 -80 9 -172 14 -205 6 -42 8 -10 4 110 -2 94 -9 186
-14 205 -7 25 -8 -8 -4 -110z"/>
<path d="M9250 9603 c0 -6 9 -71 20 -145 11 -73 29 -224 40 -336 24 -245 39
-337 52 -324 18 18 11 268 -11 403 -25 155 -101 456 -101 402z"/>
<path d="M9790 9564 c1 -70 19 -184 34 -212 l15 -27 1 31 c0 32 -38 235 -46
243 -2 2 -4 -13 -4 -35z"/>
<path d="M8987 9390 c-6 -101 1 -172 21 -192 9 -9 7 71 -7 222 l-7 75 -7 -105z"/>
<path d="M9574 9305 c2 -101 7 -150 19 -175 15 -34 16 -33 10 55 -3 50 -12
128 -19 175 l-13 85 3 -140z"/>
<path d="M7311 9380 c0 -14 6 -106 14 -205 26 -325 16 -637 -28 -847 -17 -77
-5 -89 23 -25 36 81 52 512 29 784 -12 144 -36 331 -38 293z"/>
<path d="M7941 9269 c-1 -72 3 -100 15 -115 14 -17 15 -12 9 67 -9 135 -23
163 -24 48z"/>
<path d="M8656 9236 c-9 -125 -4 -224 13 -266 12 -30 13 164 2 300 l-7 85 -8
-119z"/>
<path d="M8023 9305 c0 -22 2 -30 4 -17 2 12 2 30 0 40 -3 9 -5 -1 -4 -23z"/>
<path d="M8827 9198 c-10 -40 -17 -89 -17 -108 0 -38 14 -68 23 -52 8 11 22
232 15 232 -2 0 -12 -33 -21 -72z"/>
<path d="M8032 9230 c0 -19 2 -27 5 -17 2 9 2 25 0 35 -3 9 -5 1 -5 -18z"/>
<path d="M4470 9190 c-30 -5 -94 -8 -142 -9 -76 -1 -90 -4 -105 -22 -29 -34
-134 -139 -205 -206 -50 -46 -70 -72 -78 -103 -19 -71 -7 -78 51 -28 262 224
446 299 739 302 l135 1 87 -44 c49 -24 145 -87 214 -140 233 -178 359 -261
394 -261 5 0 10 9 10 20 0 14 -19 32 -57 57 -32 20 -101 72 -153 115 -211 174
-384 279 -516 312 -66 17 -271 20 -374 6z"/>
<path d="M6967 8858 c-4 -122 -14 -226 -35 -353 -31 -183 -49 -345 -38 -334 9
9 54 215 70 330 20 133 40 450 31 495 -13 73 -23 27 -28 -138z"/>
<path d="M8046 8819 c-10 -50 -7 -76 9 -89 12 -10 15 -7 20 17 4 15 8 34 11
41 5 16 -13 62 -25 62 -4 0 -11 -14 -15 -31z"/>
<path d="M6820 8631 c0 -21 -14 -148 -30 -282 -31 -244 -48 -438 -37 -429 26
24 98 750 74 750 -4 0 -7 -17 -7 -39z"/>
<path d="M4454 8535 c-59 -102 -67 -195 -34 -409 l20 -130 -21 -22 c-11 -12
-48 -35 -82 -50 -64 -28 -138 -37 -203 -22 -28 6 -33 4 -52 -31 -12 -21 -22
-49 -22 -60 0 -20 4 -22 43 -16 57 9 169 -11 242 -42 33 -14 71 -26 85 -26 37
0 283 69 333 94 79 40 126 97 151 183 11 37 17 42 71 63 60 23 105 61 105 89
0 29 -60 0 -236 -116 -114 -75 -171 -95 -245 -87 -45 6 -129 42 -129 56 -17
384 -16 434 10 502 24 64 24 69 5 69 -8 0 -26 -20 -41 -45z"/>
<path d="M6608 8530 c-22 -83 -69 -383 -66 -425 l3 -50 12 60 c7 33 24 115 38
183 17 81 25 146 23 190 -2 45 -5 59 -10 42z"/>
<path d="M6680 8515 c0 -8 7 -15 15 -15 8 0 15 7 15 15 0 8 -7 15 -15 15 -8 0
-15 -7 -15 -15z"/>
<path d="M8967 8298 c-10 -325 -30 -490 -152 -1213 -123 -731 -153 -972 -160
-1265 -3 -107 -3 -190 -1 -185 3 6 10 86 16 178 13 216 29 339 96 742 30 182
73 456 94 610 22 154 57 402 79 550 22 149 45 329 51 400 14 150 10 369 -6
385 -8 8 -13 -48 -17 -202z"/>
<path d="M8036 8189 c-3 -17 -6 -46 -6 -64 0 -52 -36 -245 -90 -481 -60 -268
-78 -375 -84 -524 -6 -133 3 -103 29 91 9 70 39 236 66 370 99 481 124 639
102 639 -6 0 -13 -14 -17 -31z"/>
<path d="M9247 8068 c-4 -57 -22 -211 -41 -343 -42 -295 -49 -351 -42 -344 7
7 39 206 81 509 40 291 39 280 22 280 -11 0 -16 -26 -20 -102z"/>
<path d="M9536 8125 c-19 -19 -20 -41 -5 -120 14 -75 -9 -383 -51 -690 -47
-341 -101 -955 -98 -1110 1 -52 2 -48 10 35 5 52 29 295 53 540 52 525 90 933
104 1120 19 246 18 256 -13 225z"/>
<path d="M9777 8083 c-9 -8 -7 -71 3 -103 7 -22 8 -23 9 -4 1 12 4 42 7 68 6
42 -1 57 -19 39z"/>
<path d="M8365 8048 c-75 -439 -168 -1280 -163 -1473 1 -71 3 -55 23 215 28
376 78 765 140 1094 19 99 32 183 29 188 -11 17 -23 7 -29 -24z"/>
<path d="M8547 7988 c-23 -50 -34 -100 -57 -257 -15 -102 -33 -180 -65 -274
-65 -191 -86 -358 -105 -827 -12 -310 -28 -582 -36 -627 -4 -24 -2 -33 7 -33
7 0 23 -9 34 -20 l22 -21 7 158 c13 287 36 508 91 878 107 717 111 749 99 865
-3 38 1 76 14 123 20 71 15 89 -11 35z m-53 -519 c-1 -53 -11 -111 -38 -205
-26 -94 -38 -157 -41 -220 -3 -90 -14 -113 -36 -73 -27 52 14 325 87 567 2 8
10 12 17 9 8 -3 12 -27 11 -78z m-90 -555 c19 -19 19 -24 2 -46 -18 -25 -35
-22 -46 7 -18 47 11 73 44 39z m-12 -158 c9 -40 -5 -80 -25 -73 -14 4 -21 59
-12 94 8 34 28 23 37 -21z"/>
<path d="M6886 7916 c-49 -195 -95 -516 -101 -711 l-4 -130 14 100 c7 55 29
195 49 310 19 116 40 260 47 322 11 111 9 164 -5 109z"/>
<path d="M7601 7863 c-27 -104 -58 -296 -65 -413 l-6 -95 25 105 c61 251 97
480 77 480 -5 0 -19 -35 -31 -77z"/>
<path d="M9741 7787 c-66 -284 -81 -355 -110 -512 -59 -315 -138 -850 -129
-877 2 -6 10 27 17 73 7 46 42 239 78 429 140 744 189 1018 180 1026 -1 2 -18
-61 -36 -139z"/>
<path d="M7181 7845 c0 -6 -8 -69 -16 -140 -9 -72 -24 -191 -36 -265 -39 -266
-48 -348 -59 -586 -18 -361 0 -695 75 -1454 63 -635 76 -808 82 -1131 6 -335
4 -351 -39 -312 -11 10 -28 34 -39 53 l-18 35 -1 -53 c0 -48 -2 -53 -27 -63
-28 -11 -85 -8 -114 5 -13 6 -17 -3 -22 -56 -7 -79 -13 -93 -40 -106 -19 -9
-16 -11 23 -11 45 -1 414 20 685 39 77 5 157 10 178 10 44 0 45 5 11 44 -25
28 -25 28 -40 8 -11 -17 -29 -21 -108 -27 -65 -5 -100 -4 -116 5 -19 10 -26 8
-49 -14 -39 -38 -80 -35 -127 9 -41 39 -44 41 -44 21 0 -8 -8 -24 -19 -37 -16
-21 -22 -22 -45 -11 -14 6 -26 7 -26 2 0 -5 -21 -8 -47 -7 -27 1 -73 -2 -104
-7 -51 -7 -59 -6 -78 13 -34 34 -26 41 53 41 62 0 79 4 111 25 35 25 38 25 56
9 18 -17 19 -15 19 52 0 270 -28 707 -80 1284 -71 785 -80 936 -80 1368 -1
401 10 569 50 799 34 194 49 352 39 422 -3 25 -7 41 -8 36z"/>
<path d="M7762 7845 c-39 -247 -66 -546 -60 -670 l3 -80 13 125 c33 333 53
574 49 603 -2 18 -5 27 -5 22z"/>
<path d="M3785 7761 c-8 -14 20 -61 36 -61 13 0 2 40 -16 58 -9 10 -15 11 -20
3z"/>
<path d="M6460 7743 c0 -4 -7 -71 -15 -148 -14 -140 -36 -530 -34 -635 2 -104
16 -5 29 194 6 105 18 251 26 325 16 159 18 257 4 266 -5 3 -10 3 -10 -2z"/>
<path d="M8167 7688 c-4 -29 -9 -132 -11 -228 -6 -214 9 -128 20 118 7 160 3
212 -9 110z"/>
<path d="M7006 7703 c-9 -30 -44 -290 -58 -428 -8 -83 -13 -266 -12 -505 1
-383 18 -629 59 -855 l14 -80 -5 65 c-2 36 -11 153 -20 260 -8 107 -18 363
-21 568 -6 392 2 590 37 849 17 130 19 169 6 126z"/>
<path d="M7359 7688 c-19 -35 -23 -281 -9 -493 17 -249 26 -208 34 160 4 160
9 305 12 323 5 25 3 32 -10 32 -8 0 -21 -10 -27 -22z"/>
<path d="M8767 7665 c-12 -41 -57 -265 -81 -410 -51 -299 -100 -736 -126
-1115 -18 -265 -8 -229 20 75 60 631 99 931 171 1293 17 84 29 158 26 165 -2
7 -7 3 -10 -8z"/>
<path d="M9115 7658 c-2 -13 -12 -54 -20 -92 -9 -38 -18 -104 -20 -145 l-5
-76 25 100 c25 101 43 235 32 235 -4 0 -9 -10 -12 -22z"/>
<path d="M9348 7615 c-4 -22 -9 -69 -12 -105 -5 -57 -3 -53 10 25 8 50 13 97
11 105 -2 8 -6 -3 -9 -25z"/>
<path d="M6681 7559 c-39 -122 -79 -408 -86 -614 l-4 -140 9 113 c11 153 24
222 67 355 38 118 55 267 35 302 -8 16 -11 13 -21 -16z"/>
<path d="M7832 7490 c0 -14 2 -19 5 -12 2 6 2 18 0 25 -3 6 -5 1 -5 -13z"/>
<path d="M7232 7473 c-5 -10 -10 -94 -10 -188 0 -93 -8 -296 -18 -450 -11
-172 -18 -415 -18 -630 -1 -338 0 -356 27 -515 38 -227 57 -362 72 -515 l12
-130 2 155 c1 136 -2 168 -24 255 -72 281 -88 588 -60 1125 41 803 45 910 34
910 -4 0 -12 -8 -17 -17z"/>
<path d="M7821 7440 c-1 -8 -10 -76 -21 -150 -20 -140 -23 -166 -16 -159 8 8
48 299 43 312 -4 8 -6 7 -6 -3z"/>
<path d="M8930 7196 c0 -4 -9 -66 -20 -137 -49 -317 -83 -685 -100 -1108 -10
-246 -9 -311 5 -219 10 67 21 78 46 48 20 -23 21 -32 14 -135 -9 -144 -23
-158 -62 -60 -10 27 -12 24 -12 -42 -1 -40 2 -73 7 -73 4 0 16 7 26 15 11 8
30 15 43 15 l23 0 -1 213 c-1 184 -3 206 -13 167 -13 -51 -42 -66 -51 -28 -3
13 -5 59 -3 103 2 63 6 80 18 80 8 0 22 -14 31 -32 15 -31 16 -28 27 129 7 89
10 164 7 166 -3 3 -5 -4 -5 -15 0 -47 -39 -110 -53 -85 -15 26 26 559 64 840
12 84 18 156 15 159 -3 4 -6 3 -6 -1z"/>
<path d="M9110 7083 c0 -90 -39 -99 -41 -10 -1 29 -3 43 -6 32 -2 -11 -31
-128 -63 -260 -55 -219 -81 -373 -79 -465 0 -19 11 26 24 101 35 204 104 449
126 449 5 0 10 -64 10 -142 2 -143 2 -143 10 -58 15 142 40 354 46 378 4 16 1
22 -11 22 -12 0 -16 -11 -16 -47z"/>
<path d="M6773 7000 c0 -30 2 -43 4 -27 2 15 2 39 0 55 -2 15 -4 2 -4 -28z"/>
<path d="M8121 7014 c0 -11 3 -14 6 -6 3 7 2 16 -1 19 -3 4 -6 -2 -5 -13z"/>
<path d="M9266 7014 c-13 -13 -16 -42 -16 -162 0 -81 -5 -219 -11 -306 -5 -87
-8 -160 -6 -162 3 -4 42 355 52 491 3 39 8 89 11 113 6 45 -4 53 -30 26z"/>
<path d="M9792 7002 c-27 -27 -30 -43 -35 -177 -3 -96 -9 -127 -45 -238 -48
-148 -64 -228 -91 -474 -26 -230 -39 -444 -45 -718 -4 -234 -3 -228 14 70 24
417 86 851 191 1348 22 104 38 194 36 200 -2 6 -12 2 -25 -11z"/>
<path d="M8082 6714 c-18 -137 -37 -303 -43 -369 -10 -125 -9 -341 2 -315 4 8
12 107 18 220 6 113 22 315 36 450 14 134 24 248 22 253 -1 5 -17 -103 -35
-239z"/>
<path d="M3485 6872 c-16 -11 -36 -26 -43 -34 -11 -14 -6 -17 40 -23 29 -4
106 -18 172 -31 139 -28 136 -28 136 -10 0 26 -44 69 -94 92 -65 30 -166 33
-211 6z"/>
<path d="M7371 6599 c1 -79 5 -178 9 -219 5 -43 6 16 3 140 -3 118 -7 217 -9
219 -2 2 -3 -61 -3 -140z"/>
<path d="M7521 6591 c-1 -108 17 -498 29 -623 6 -54 17 -113 25 -130 14 -31
15 -24 10 97 -5 116 -50 669 -59 720 -2 11 -4 -18 -5 -64z"/>
<path d="M9074 6550 c0 -52 1 -74 3 -47 2 26 2 68 0 95 -2 26 -3 4 -3 -48z"/>
<path d="M7830 6545 c-8 -9 -22 -14 -32 -11 -17 4 -19 -1 -16 -37 3 -39 5 -42
33 -42 28 0 30 3 36 45 7 51 -1 69 -21 45z"/>
<path d="M9065 5880 c3 -433 13 -683 30 -756 3 -15 14 -23 35 -26 l30 -5 -2
251 c-1 239 -12 252 -17 21 -2 -49 -6 -99 -10 -109 -7 -19 -8 -19 -15 0 -14
35 -37 436 -46 779 -8 332 -8 328 -5 -155z"/>
<path d="M9492 6340 c0 -14 2 -19 5 -12 2 6 2 18 0 25 -3 6 -5 1 -5 -13z"/>
<path d="M7820 6150 c0 -18 26 -40 49 -40 6 0 11 14 11 30 0 27 -3 30 -30 30
-23 0 -30 -4 -30 -20z"/>
<path d="M3565 6069 c-66 -16 -126 -32 -134 -37 -8 -4 -20 -25 -28 -46 l-13
-38 75 -77 c40 -42 103 -98 139 -126 36 -27 65 -57 65 -66 1 -9 -21 -42 -49
-73 -27 -31 -53 -69 -56 -83 -14 -54 45 -177 75 -158 16 9 13 44 -9 108 -21
60 -18 79 15 107 9 8 30 41 47 74 41 83 64 106 105 106 45 0 73 16 73 40 0 16
-7 20 -37 20 -28 0 -49 -9 -82 -35 -30 -24 -54 -35 -76 -35 -29 0 -37 6 -59
44 -14 25 -47 62 -72 82 -46 38 -102 119 -90 131 4 4 28 7 54 8 26 0 68 9 94
20 71 29 110 13 217 -89 47 -46 101 -91 120 -101 19 -9 71 -20 117 -25 83 -7
114 -20 114 -46 0 -20 -101 -180 -145 -232 -50 -58 -107 -95 -188 -121 -72
-24 -135 -67 -119 -83 13 -13 123 7 171 31 58 30 104 73 176 166 76 97 138
156 194 184 23 12 41 25 41 30 0 22 -54 71 -93 85 -23 8 -82 23 -131 32 -86
17 -92 20 -140 69 -55 55 -214 166 -237 164 -8 0 -68 -14 -134 -30z"/>
<path d="M7662 6005 c0 -16 2 -22 5 -12 2 9 2 23 0 30 -3 6 -5 -1 -5 -18z"/>
<path d="M7675 5865 c5 -113 36 -469 60 -700 l14 -130 -5 125 c-8 206 -45 640
-64 760 -7 44 -8 32 -5 -55z"/>
<path d="M8015 5768 c-10 -24 -2 -71 13 -76 14 -4 16 41 2 73 -7 18 -9 18 -15
3z"/>
<path d="M7911 5754 c0 -11 3 -14 6 -6 3 7 2 16 -1 19 -3 4 -6 -2 -5 -13z"/>
<path d="M9162 5670 c0 -19 2 -27 5 -17 2 9 2 25 0 35 -3 9 -5 1 -5 -18z"/>
<path d="M3000 5656 c0 -8 84 -182 188 -388 193 -385 272 -566 316 -729 32
-118 75 -351 91 -490 3 -26 12 -55 20 -65 13 -18 14 -17 15 11 0 61 -41 304
-75 443 -85 349 -231 715 -437 1100 -60 112 -74 132 -94 132 -14 0 -24 -6 -24
-14z"/>
<path d="M8016 5589 c-10 -51 -7 -81 7 -77 14 5 22 87 9 100 -6 6 -12 -3 -16
-23z"/>
<path d="M7442 5510 c0 -14 2 -19 5 -12 2 6 2 18 0 25 -3 6 -5 1 -5 -13z"/>
<path d="M7601 5461 c-1 -40 47 -774 53 -811 3 -14 3 74 0 195 -4 215 -25 515
-43 605 -8 42 -9 43 -10 11z"/>
<path d="M7451 5395 c0 -38 4 -169 9 -290 5 -121 14 -332 20 -470 6 -137 13
-270 17 -295 l7 -45 7 60 c17 152 9 435 -21 752 -35 369 -37 381 -39 288z"/>
<path d="M7916 5378 c-26 -42 -28 -68 -12 -176 31 -220 59 -659 54 -873 -2
-120 -9 -212 -15 -223 -6 -11 -30 -25 -54 -33 -37 -11 -46 -10 -55 2 -6 8 -19
115 -30 237 l-19 223 -6 -180 c-5 -145 -10 -193 -27 -245 -12 -36 -22 -72 -22
-80 0 -9 16 -40 35 -70 30 -46 35 -50 35 -29 0 35 18 49 61 49 21 0 41 5 44
10 9 15 31 12 49 -6 19 -18 21 -77 5 -123 -6 -18 -9 -34 -6 -37 2 -3 51 -2
108 3 l104 7 -69 8 c-38 5 -75 13 -82 18 -17 15 -28 134 -14 159 17 33 26 25
36 -34 5 -31 13 -57 18 -58 19 -4 6 204 -49 748 -19 187 -40 427 -47 533 -7
105 -16 192 -20 192 -4 0 -14 -10 -22 -22z"/>
<path d="M8793 5353 c-17 -6 -16 -38 1 -52 8 -7 30 -15 50 -18 l36 -6 0 42 c0
41 0 41 -37 40 -21 0 -44 -3 -50 -6z"/>
<path d="M7061 5296 c-1 -10 8 -107 19 -215 11 -108 24 -245 29 -306 l8 -110
2 105 c1 122 -24 411 -43 490 -8 30 -14 47 -15 36z"/>
<path d="M6880 5282 c0 -6 11 -120 24 -254 38 -367 47 -500 55 -765 4 -134 11
-246 15 -250 22 -22 27 36 22 262 -6 312 -29 574 -72 814 -30 170 -44 231 -44
193z"/>
<path d="M8658 5244 c-5 -4 -7 -59 -7 -123 l2 -116 9 70 c10 78 7 181 -4 169z"/>
<path d="M3686 5182 c-6 -10 33 -90 77 -156 29 -44 32 -57 32 -120 0 -59 -9
-95 -49 -210 -42 -119 -48 -147 -43 -192 12 -115 109 -226 264 -303 99 -50
179 -64 318 -58 149 7 266 29 611 118 149 38 278 69 287 69 12 0 24 -26 47
-97 28 -90 66 -153 93 -153 15 0 0 70 -33 145 -34 80 -38 120 -12 133 9 5 94
33 187 62 202 61 509 175 548 202 27 20 52 56 44 64 -8 8 -205 -62 -482 -171
-580 -229 -828 -291 -1215 -302 -202 -6 -296 2 -399 35 -102 32 -160 135 -168
302 -6 110 13 223 52 308 14 30 25 59 25 64 0 16 -70 161 -95 198 -26 38 -80
76 -89 62z"/>
<path d="M8062 5100 c0 -19 2 -27 5 -17 2 9 2 25 0 35 -3 9 -5 1 -5 -18z"/>
<path d="M9366 4708 l5 -338 -33 -20 c-46 -28 -99 -42 -114 -30 -6 6 -13 47
-16 95 -3 52 -10 90 -17 98 -11 10 -12 -1 -7 -58 7 -78 40 -242 50 -252 3 -3
14 1 23 9 10 9 43 23 73 31 52 15 56 15 75 -3 28 -26 35 -25 35 4 0 13 7 42
15 65 13 38 13 44 -5 74 -32 54 -35 75 -80 562 -6 72 -8 5 -4 -237z"/>
<path d="M7303 4965 c0 -33 2 -45 4 -27 2 18 2 45 0 60 -2 15 -4 0 -4 -33z"/>
<path d="M6751 5004 c-1 -6 6 -101 14 -210 8 -110 19 -311 25 -449 12 -282 21
-351 31 -240 12 133 9 274 -11 462 -21 190 -57 457 -59 437z"/>
<path d="M7752 4980 c0 -19 2 -27 5 -17 2 9 2 25 0 35 -3 9 -5 1 -5 -18z"/>
<path d="M8515 4770 c2 -85 11 -209 20 -275 22 -158 17 -281 -15 -354 -23 -52
-23 -54 -5 -67 13 -10 33 -12 65 -8 36 5 50 2 69 -13 23 -19 24 -26 27 -159 1
-76 7 -155 12 -174 23 -81 7 638 -19 835 -17 136 -31 205 -40 205 -9 0 -6 -43
18 -265 8 -76 12 -160 8 -184 -14 -92 -54 -153 -69 -103 -13 45 -28 188 -41
407 -19 291 -36 383 -30 155z"/>
<path d="M9581 4884 c0 -11 3 -14 6 -6 3 7 2 16 -1 19 -3 4 -6 -2 -5 -13z"/>
<path d="M8850 4877 c0 -8 11 -19 25 -25 27 -12 33 -40 13 -60 -19 -19 -41
-14 -65 16 l-22 27 -1 -200 c0 -204 11 -356 54 -775 14 -129 30 -311 36 -405
13 -208 25 -300 51 -387 19 -65 57 -143 66 -135 2 3 -10 78 -27 168 -65 350
-96 592 -106 845 -10 243 2 273 78 194 37 -40 38 -42 38 -119 0 -113 17 -273
52 -471 59 -346 69 -417 72 -535 1 -66 8 -129 13 -140 6 -11 15 -33 19 -49 13
-44 34 -45 34 -2 0 62 -29 263 -85 586 -60 349 -82 502 -91 649 l-7 99 44 23
c24 12 56 22 71 21 l28 -1 -1 137 -1 137 -14 -78 c-17 -102 -35 -131 -77 -123
-36 7 -63 30 -84 71 l-16 30 -12 -47 c-15 -60 -42 -100 -63 -96 -15 3 -18 27
-24 213 -3 116 -9 229 -12 252 -10 79 34 59 69 -32 14 -39 15 -37 11 75 -2 63
-7 123 -11 133 -8 20 -55 23 -55 4z"/>
<path d="M7123 4555 c0 -44 2 -61 4 -37 2 23 2 59 0 80 -2 20 -4 1 -4 -43z"/>
<path d="M9955 4597 c-50 -28 -69 -72 -40 -93 43 -32 138 -7 175 46 37 52 23
70 -53 70 -25 0 -58 -10 -82 -23z"/>
<path d="M7321 4565 c-2 -57 19 -574 25 -611 4 -30 6 -31 72 -37 44 -5 76 -14
94 -27 20 -15 28 -17 28 -7 0 7 11 28 25 47 29 39 32 72 9 91 -8 7 -23 26 -31
43 l-16 31 -15 -35 c-16 -40 -60 -90 -79 -90 -16 0 -40 37 -54 81 -6 19 -21
151 -33 294 -13 143 -24 242 -25 220z"/>
<path d="M7661 4349 c1 -112 5 -217 9 -234 5 -16 6 74 3 200 -3 127 -7 232 -9
234 -2 2 -3 -88 -3 -200z"/>
<path d="M9665 4100 c9 -130 25 -276 41 -370 18 -108 55 -272 60 -268 2 2 -10
89 -26 193 -16 105 -36 256 -45 336 -17 167 -39 248 -30 109z"/>
<path d="M9461 3955 c-1 -42 32 -254 80 -505 22 -118 49 -287 60 -375 14 -116
26 -174 44 -212 65 -142 47 -10 -75 552 -23 105 -55 271 -71 370 -32 193 -37
217 -38 170z"/>
<path d="M9271 3945 c-2 -57 136 -831 147 -821 11 12 -100 687 -132 801 -12
42 -14 45 -15 20z"/>
<path d="M8594 3819 c7 -96 30 -212 34 -175 4 36 -16 189 -29 219 -7 16 -8 4
-5 -44z"/>
<path d="M9180 3789 c0 -81 92 -701 98 -661 4 29 -31 318 -64 522 -25 151 -34
188 -34 139z"/>
<path d="M9601 3764 c-2 -89 64 -387 124 -564 14 -41 32 -109 41 -150 18 -93
30 -124 56 -147 25 -22 26 -27 -27 122 -47 131 -97 322 -150 575 -27 126 -44
189 -44 164z"/>
<path d="M880 3501 c-47 -11 -157 -39 -245 -64 -243 -69 -270 -75 -406 -91
-184 -21 -232 -52 -209 -138 39 -142 131 -236 275 -280 109 -34 197 -29 389
21 216 56 326 55 326 -3 0 -13 11 -54 25 -90 14 -37 25 -74 25 -83 0 -9 13
-31 29 -48 16 -16 46 -73 67 -125 38 -95 85 -160 118 -160 19 0 20 -2 -69 190
-90 192 -123 270 -146 340 l-17 55 -103 -1 c-57 -1 -153 -9 -214 -18 -60 -10
-161 -20 -222 -23 -132 -7 -217 11 -284 59 -45 33 -99 111 -99 144 0 22 4 22
118 26 l117 3 65 51 c229 179 512 256 713 194 63 -20 169 -82 277 -165 96 -73
124 -68 62 12 -60 75 -141 143 -212 177 -60 28 -74 31 -180 33 -82 2 -139 -3
-200 -16z m-455 -180 c9 -16 -33 -48 -78 -59 -117 -30 -206 -22 -175 15 22 27
54 37 138 43 47 4 90 8 97 8 6 1 14 -2 18 -7z"/>
<path d="M8666 3314 c4 -38 19 -152 34 -254 l27 -185 28 -5 c32 -6 46 -27 67
-100 18 -62 42 -61 46 3 2 37 -5 67 -38 143 -45 106 -73 214 -90 349 -15 116
-18 126 -32 102 -9 -18 -11 -18 -29 -1 -20 18 -20 17 -13 -52z"/>
<path d="M8156 3338 c-20 -105 -48 -336 -48 -394 0 -53 6 -84 23 -120 l22 -49
8 55 c32 220 41 300 46 408 l6 122 -26 0 c-20 0 -28 -6 -31 -22z"/>
<path d="M7192 3253 c-7 -43 -30 -144 -52 -226 -22 -81 -43 -165 -46 -186 -4
-27 -23 -58 -65 -107 -59 -67 -74 -97 -67 -129 6 -30 23 -19 60 41 92 148 174
409 185 587 3 53 4 97 1 97 -2 0 -10 -35 -16 -77z"/>
<path d="M7041 3223 c-13 -54 -39 -143 -58 -198 -51 -148 -50 -144 -26 -122
32 28 71 109 87 178 13 61 31 239 24 239 -2 0 -14 -44 -27 -97z"/>
<path d="M7512 3304 c-7 -83 -73 -278 -173 -513 -43 -102 -76 -187 -74 -189
19 -19 101 137 176 335 44 117 82 287 76 347 -2 23 -4 32 -5 20z"/>
<path d="M7598 3148 c-3 -13 -22 -97 -42 -186 -21 -90 -35 -176 -33 -190 3
-25 5 -24 25 19 28 60 50 165 58 284 7 89 2 124 -8 73z"/>
<path d="M7648 2923 c-70 -210 -86 -265 -70 -248 30 32 150 405 140 435 -2 6
-33 -79 -70 -187z"/>
<path d="M9423 2990 c3 -113 17 -167 48 -185 17 -11 19 -1 8 40 -6 21 -22 88
-35 149 l-24 111 3 -115z"/>
<path d="M9861 3084 c0 -11 3 -14 6 -6 3 7 2 16 -1 19 -3 4 -6 -2 -5 -13z"/>
<path d="M8366 2898 c-7 -152 -6 -171 11 -205 10 -20 24 -39 32 -41 12 -4 13
12 7 99 -4 57 -15 151 -25 209 l-17 105 -8 -167z"/>
<path d="M1270 2300 c0 -94 -50 -394 -149 -895 -101 -506 -124 -657 -125 -815
-1 -163 22 -246 104 -365 15 -22 43 -71 63 -110 19 -38 47 -81 61 -94 24 -22
28 -23 52 -10 15 7 29 19 31 26 3 7 -17 38 -45 70 -68 80 -108 142 -147 226
-83 181 -79 251 55 992 76 419 105 609 120 790 14 168 13 195 -5 195 -8 0 -15
-5 -15 -10z"/>
</g>
</svg>
