<?xml version="1.0" encoding="utf-8"?>
<!-- Generator: Adobe Illustrator 17.0.0, SVG Export Plug-In . SVG Version: 6.00 Build 0)  -->
<!DOCTYPE svg PUBLIC "-//W3C//DTD SVG 1.1//EN" "http://www.w3.org/Graphics/SVG/1.1/DTD/svg11.dtd" [
	<!ENTITY ns_flows "http://ns.adobe.com/Flows/1.0/">
	<!ENTITY ns_extend "http://ns.adobe.com/Extensibility/1.0/">
	<!ENTITY ns_ai "http://ns.adobe.com/AdobeIllustrator/10.0/">
	<!ENTITY ns_graphs "http://ns.adobe.com/Graphs/1.0/">
]>
<svg version="1.1" id="Layer_1" xmlns:x="&ns_extend;" xmlns:i="&ns_ai;" xmlns:graph="&ns_graphs;"
	 xmlns="http://www.w3.org/2000/svg" xmlns:xlink="http://www.w3.org/1999/xlink" xmlns:a="http://ns.adobe.com/AdobeSVGViewerExtensions/3.0/"
	 x="0px" y="0px" width="256px" height="256px" viewBox="0 0 256 256" style="enable-background:new 0 0 256 256;"
	 xml:space="preserve">
<g transform="translate(-57.619 -143.8)">
	<g transform="translate(-1026.3 383.86)">
		<g transform="matrix(2.3279 0 0 -2.3279 1748.9 -100.57)">
			<path style="fill:none;stroke:#000000;stroke-width:3;stroke-miterlimit:10;" d="M-274,10.5c0,0.1,0,0.2,0,0.2
				c1.4,10.6,5,20.5,10.4,28.3c7.3,10.4,17,16.1,27.3,16.1c10.3,0,20-5.7,27.3-16.1c6.3-9,10.1-20.6,10.9-33.1
				c-0.2,0-0.8-0.1-1.6-0.3c-0.1,0-0.1,0-0.2,0h0c-0.6-0.1-1.3-0.3-2.1-0.4h0c0,0-0.1,0-0.1,0h0c-2.5-0.5-5.3-1.2-5.8-1.2
				c-1.6,26-9.8,48.2-28.2,48.2c-17.4,0-26.7-18.3-29.4-42.3c0-0.1,0-0.3,0-0.4"/>
		</g>
		<g transform="matrix(2.3279 0 0 -2.3279 1279.5 358.94)">
			<path style="fill:none;stroke:#000000;stroke-width:3;stroke-miterlimit:10;" d="M-13.6,197.1c-1-0.5-1.8-1-2.7-1.5
				c-1.1-0.6-2-1.2-2.6-1.6c-8.5-4.9-17.1-10.2-26.8-12.1c-2.3-0.4-4.6-0.5-6.8-0.5c-3.4,0-6.7,0.4-9.8,1.1
				c-5.8,1.6-12.2,4.7-19,9.9c-0.6,0.5-1.2,1-1.7,1.6c0,0,0-0.1,0.1-0.3c-0.1,0-0.1,0.1-0.2,0.2c0,0.1-0.1,0.2-0.1,0.2
				c0,0-0.1,0.4-0.1,1c0.8,4.9,2.2,8.1,4.1,10.2c1.6,1.2,3.8,2.1,6.8,2.6c0.3,0.1,0.7,0.1,1,0.1c0.4,0,0.9,0,1.5,0
				c1.8-0.2,3.7-0.6,5.8-1.2c5.4-1.6,11.7-4.2,18.6-6.4c3.3-1.5,10.9-4.4,20.8-4.1C-21.1,196.1-17.4,196.4-13.6,197.1z"/>
			<path style="fill:none;stroke:#000000;stroke-width:3;stroke-miterlimit:10;" d="M-58.1,180.4c-16.8-0.3-23.3,9.8-24.7,12.9
				c-0.1,0.2-0.2,0.4-0.2,0.6l0,0c0,0,0,0,0,0.1"/>
			<path style="fill:none;stroke:#000000;stroke-width:3;stroke-miterlimit:10;" d="M-83.3,195.1c-0.2,2.1-0.1,7,4.1,10.2"/>
			<path style="fill:none;stroke:#000000;stroke-width:3;stroke-miterlimit:10;" d="M-69.8,208c1.3,0,3.1-0.2,5.8-0.8
				c3.7-0.8,9-2.6,16.8-6c0,0,0.6-0.3,1.7-0.8"/>
			<path style="fill:none;stroke:#000000;stroke-width:3;stroke-miterlimit:10;" d="M-54,180.4c-1.3-0.1,17.5-2.7,37.3,14.1
				c1.7,1,3.9,2.6,6,3.9"/>
			<path style="fill:none;stroke:#000000;stroke-width:3;stroke-miterlimit:10;" d="M-10.7,198.5c0.2,0.1,0.5,0.3,0.7,0.4
				c0.2,0.1,0.3,0.2,0.5,0.3c-0.1,0-0.3-0.1-0.4-0.1h0c-5.2-1.9-10.2-2.7-14.7-2.8"/>
		</g>
		<g transform="matrix(2.3279 0 0 -2.3279 2006 223.09)">
			<path style="fill:none;stroke:#000000;stroke-width:3;stroke-miterlimit:10;" d="M-296.5,111.2c-1.8-2.9-5.9-10.2-16.7-13.7
				c-0.2-0.1-0.3-0.1-0.5-0.1c0,0,0,0-0.1,0c0,0,0,0-0.1,0c0,0-0.1,0-0.1,0c0,0,0,0-0.1,0c-2.1-0.5-14.9-2.7-29.3-2.8
				c-0.5,0-1,0-1.4,0c-9.8,0.1-20.3,1.2-28.5,4.6c-15.9,6.6-19.7,23.1-21,30.6c-0.4,2.4-1.1,5.4-1.2,5.9c0,0,0.1-0.1,0.1-0.1l0,0
				c0,0,0.1-0.1,0.1-0.1c0.1,0,0.1-0.1,0.2-0.1c5.8-5.5,13.3-9.7,22-11.4c0.2,0,0.3-0.1,0.5-0.1c4.9-1,9.4-1,13.8-0.3
				c0.2,0,0.5,0.1,0.7,0.1c0,0,0.1,0,0.1,0c1.7,0.3,3.5,0.6,5.2,1.1c0.2,0,0.3,0.1,0.5,0.1c0.3,0.1,0.6,0.2,0.9,0.3
				c0.4,0.1,0.7,0.2,1.1,0.3c0.3,0.1,0.7,0.2,1,0.3h0c5.5,1.9,11.1,4.8,16.9,9c0,0,0.5,0.4,1.3,0.9c0.7,0.4,1.4,0.8,2.2,1.2
				c1.2,0.7,2.4,1.3,3.6,2c0.7,0.4,1.5,0.8,2.2,1.1l0,0c2.6,1.3,5.2,2.4,7.8,3.3h0c1.8,0.6,3.6,1,5.5,1.3l0,0c6.4,1,13.1,0,20.4-4.5
				c0,0,0.1,0,0.1-0.1C-286.9,138.2-283.8,131.1-296.5,111.2z"/>
			<path style="fill:none;stroke:#000000;stroke-width:3;stroke-miterlimit:10;" d="M-395.3,135.6L-395.3,135.6c0,0.1,0,0.1,0,0.1
				c0,0,0.1-0.1,0.1-0.1"/>
			<path style="fill:none;stroke:#000000;stroke-width:3;stroke-miterlimit:10;" d="M-288.9,140.1c-0.3,0.3-0.6,0.5-0.8,0.6
				c-4.7,3.2-9.7,4.4-14.5,4.4c-2,0-4-0.2-5.9-0.5c-0.9-0.2-1.7-0.3-2.6-0.5h0c-1-0.3-2-0.5-3-0.8c-0.5-0.2-1.1-0.4-1.6-0.5
				c-0.1,0-0.3-0.1-0.4-0.1c-0.1,0-0.3-0.1-0.4-0.1c-1.4-0.5-2.8-1.1-4-1.7c-1.3-0.6-2.5-1.2-3.6-1.8c-1-0.5-1.8-1-2.6-1.5
				c-1-0.6-1.9-1.2-2.6-1.6"/>
			<path style="fill:none;stroke:#000000;stroke-width:3;stroke-miterlimit:10;" d="M-372.9,123.8c2.7-0.5,5.5-0.8,8.4-0.8"/>
			<path style="fill:none;stroke:#000000;stroke-width:3;stroke-miterlimit:10;" d="M-394.8,135.2c-0.1,0.1-0.1,0.1-0.2,0.2"/>
		</g>
		<path style="fill:none;stroke:#000000;stroke-width:3;stroke-miterlimit:10;" d="M1235.9-92.8c-0.1,0-0.2,0.1-0.3,0.1"/>
		<path style="fill:none;stroke:#000000;stroke-width:3;stroke-miterlimit:10;" d="M1333.5-103.1c0.4,0.3,0.8,0.5,1.2,0.8
			c0.2,0.1,0.4,0.3,0.6,0.4"/>
		<path style="fill:none;stroke:#000000;stroke-width:3;stroke-miterlimit:10;" d="M1137.9-65.1c-1.1-0.3-2.2-0.5-3.4-0.8"/>
		<path style="fill:none;stroke:#000000;stroke-width:3;stroke-miterlimit:10;" d="M1085.6-92.8c0.1,0,0.1,0.1,0.2,0.1
			c0,0,0.1,0.1,0.1,0.1"/>
		<path style="fill:none;stroke:#000000;stroke-width:3;stroke-miterlimit:10;" d="M1090.3-89c-1.1-0.9-2.3-1.8-3.4-2.7"/>
		<path style="fill:none;stroke:#000000;stroke-width:3;stroke-miterlimit:10;" d="M1249.7-100.4c-0.1,0-0.2,0-0.3,0.1
			c-0.2,0-0.4,0.1-0.6,0.1c-0.3,0.1-0.6,0.1-0.8,0.2c0,0,0,0-0.1,0"/>
		<path style="fill:none;stroke:#000000;stroke-width:3;stroke-miterlimit:10;" d="M1222-97.9c-17.1-0.5-33.4-4.6-48.4-9.5"/>
		<path style="fill:none;stroke:#000000;stroke-width:3;stroke-miterlimit:10;" d="M1116.9-125.3c-2-0.2-3.9-0.3-5.7-0.3
			c-6.3,0.2-11.7,2.1-15.9,6.6"/>
		<path style="fill:none;stroke:#000000;stroke-width:3;stroke-miterlimit:10;" d="M1085.6-95.3c-0.1,0.8-0.3,1.6-0.4,2.5"/>
	</g>
</g>
</svg>
