<?xml version="1.0" encoding="utf-8"?>
<!-- Generator: Adobe Illustrator 23.0.0, SVG Export Plug-In . SVG Version: 6.00 Build 0)  -->
<svg version="1.1" id="Layer_1" xmlns="http://www.w3.org/2000/svg" xmlns:xlink="http://www.w3.org/1999/xlink" x="0px" y="0px"
	 viewBox="0 0 256 256" style="enable-background:new 0 0 256 256;" xml:space="preserve">
<circle style="fill:#FFFFFF;stroke:#2E4266;stroke-width:5;stroke-linecap:round;stroke-linejoin:round;stroke-miterlimit:10;" cx="38.2" cy="178.6" r="31.4"/>
<circle style="fill:#FFFFFF;stroke:#2E4266;stroke-width:5;stroke-linecap:round;stroke-linejoin:round;stroke-miterlimit:10;" cx="200.2" cy="179.6" r="31.4"/>
<path style="fill:#719DFF;" d="M30.4,178.6l5.7,3.4l19.9-36.7c0.9-0.2,1.7-0.4,2.6-0.8l6.3,3.1c6.2,9.6,10.9,21.9,10.5,36.9
	c0,0,74.1-2.1,76.8-1.8c0,0,2.6-6.3-0.3-6.8l34.3-23.3l-2.8-4.1c8.6-10.3,21.9-11.5,21.9-11.5c3.9-1.1,4.2-5.1,4.2-5.1
	c-17.1-1-29.3,7.6-34.3,11.9l-0.1-0.1l-15.7-2l54.8-22.9l10.7,2.8l4.4,6.6l7.6,1.7l-8.3-20.6c3.8-0.9,8.7-8.9,8.7-8.9l-0.8-6.8
	l-15.3,0.2l-0.3,0l-3.7,5.2l-26.5,8.5l-2.8,4.9l-33.2,9.3c-2.3-1-5-3.7-6.4-5.3l-1.7-9.8c-13.1-25.6-43.2-15.8-56.9-9.6
	c0,0.3-6.6,3.3-6.9,3.5l2.3,0.9l0.5,1.9c1.8,7-33,12.9-37.5,1.5c0,0-1.9-12.7,11.2-20.1c0,0,5.5-0.2,5.9-0.4c0,0,3.4-8-1.4-11
	c0,0-34.9,15.9-26.9,47.9c0,0,4.8,2.4,11,7.4c-5.8,0.6-23.2,3.2-28.8,11.5c0,0,15.1-0.6,27.9,4.4L30.4,178.6z"/>
<path style="opacity:0.3;" d="M70.4,157.9c0,0,60.6,4.1,88.9-16.1l15.7,2l12.7-7.9l11-3.3l10.7-0.6l-4.2,5.1l-18.5,8.1l-3.4,3.4
	l2.8,4.1L151.9,176l0.3,6.8l-76.8,1.8C75.4,184.6,74.4,169.8,70.4,157.9z"/>
<path style="fill:#719DFF;stroke:#2E4266;stroke-width:5;stroke-linecap:round;stroke-linejoin:round;stroke-miterlimit:10;" d="
	M186.2,152.6"/>
<path style="fill:none;stroke:#2E4266;stroke-width:5;stroke-linecap:round;stroke-linejoin:round;stroke-miterlimit:10;" d="
	M30.4,178.6l5.7,3.4l19.9-36.7c0.9-0.2,1.7-0.4,2.6-0.8l6.3,3.1c6.2,9.6,10.9,21.9,10.5,36.9c0,0,74.1-2.1,76.8-1.8
	c0,0,2.6-6.3-0.3-6.8l34.3-23.3l-2.8-4.1c8.6-10.3,21.9-11.5,21.9-11.5c3.9-1.1,4.2-5.1,4.2-5.1c-17.1-1-29.3,7.6-34.3,11.9
	l-0.1-0.1l-15.7-2l54.8-22.9l10.7,2.8l4.4,6.6l7.6,1.7l-8.3-20.6c3.8-0.9,8.7-8.9,8.7-8.9l-0.8-6.8l-15.3,0.2l-0.3,0l-3.7,5.2
	l-26.5,8.5l-2.8,4.9l-33.2,9.3c-2.3-1-5-3.7-6.4-5.3l-1.7-9.8c-13.1-25.6-43.2-15.8-56.9-9.6c0,0.3-6.6,3.3-6.9,3.5l2.3,0.9l0.5,1.9
	c1.8,7-33,12.9-37.5,1.5c0,0-1.9-12.7,11.2-20.1c0,0,5.5-0.2,5.9-0.4c0,0,3.4-8-1.4-11c0,0-34.9,15.9-26.9,47.9c0,0,4.8,2.4,11,7.4
	c-5.8,0.6-23.2,3.2-28.8,11.5c0,0,15.1-0.6,27.9,4.4L30.4,178.6z"/>
</svg>
