<?xml version="1.0" encoding="utf-8"?>
<!-- Generator: Adobe Illustrator 17.0.0, SVG Export Plug-In . SVG Version: 6.00 Build 0)  -->
<!DOCTYPE svg PUBLIC "-//W3C//DTD SVG 1.1//EN" "http://www.w3.org/Graphics/SVG/1.1/DTD/svg11.dtd" [
	<!ENTITY ns_flows "http://ns.adobe.com/Flows/1.0/">
	<!ENTITY ns_extend "http://ns.adobe.com/Extensibility/1.0/">
	<!ENTITY ns_ai "http://ns.adobe.com/AdobeIllustrator/10.0/">
	<!ENTITY ns_graphs "http://ns.adobe.com/Graphs/1.0/">
]>
<svg version="1.1" id="Layer_1" xmlns:x="&ns_extend;" xmlns:i="&ns_ai;" xmlns:graph="&ns_graphs;"
	 xmlns="http://www.w3.org/2000/svg" xmlns:xlink="http://www.w3.org/1999/xlink" xmlns:a="http://ns.adobe.com/AdobeSVGViewerExtensions/3.0/"
	 x="0px" y="0px" width="256px" height="256px" viewBox="0 0 256 256" style="enable-background:new 0 0 256 256;"
	 xml:space="preserve">
<path style="fill:none;stroke:#4C4C4C;stroke-width:5;stroke-linecap:round;stroke-linejoin:round;stroke-miterlimit:10;" d="
	M214.5,89.5c0,0,13-1,7-17s-17-41-51-37s-26,45-18,60s11,19,35,55s10,42-1,47c-10.4,4.7-30,4-37-14s15-22-4-43s-83,5-107-1
	s-15-14-2-19s23-5,20-17s-41-6-27-1c0,0,16-1,17,3s-9,9-18,10s-23,7-23,17s12,20,31,24s63-7,72,5s-17,34,8,55s68,21,94,10
	s32-38,19-67s-65-68-54-80C175.5,79.5,198.5,94.5,214.5,89.5z"/>
<path style="fill:none;" d="M109.5,163.2c0,0,8.6-26.8-35-15.7C37,157,12.6,141.1,14,133c2-12,19-18.3,19-18.3l-15.4,3.8l-9.8,7.2
	L5.6,131l1.5,7.9l6.7,7.8l14.5,7.5l13.5,2.9l23.6,0.3l22.7-1.8l15.8,2.4L109.5,163.2z"/>
<circle style="fill:none;stroke:#4C4C4C;stroke-width:5;stroke-linecap:round;stroke-linejoin:round;stroke-miterlimit:10;" cx="191.5" cy="63.5" r="5"/>
<path style="fill:none;stroke:#4C4C4C;stroke-width:5;stroke-linecap:round;stroke-linejoin:round;stroke-miterlimit:10;" d="
	M191.5,79.5c8,7,21.9,10.3,21.9,10.3s3.8,4.3,6.1,7.7c4,6,13,14,19,13s5-7,5-7"/>
<path style="fill:none;stroke:#4C4C4C;stroke-width:5;stroke-linecap:round;stroke-linejoin:round;stroke-miterlimit:10;" d="
	M166.5,54.5c0,0-21,10,9,25"/>
<path style="fill:none;stroke:#4C4C4C;stroke-width:5;stroke-linecap:round;stroke-linejoin:round;stroke-miterlimit:10;" d="
	M214.5,89.5c0,0,13-1,7-17s-17-41-51-37s-26,45-18,60s11,19,35,55s10,42-1,47c-10.4,4.7-30,4-37-14s15-22-4-43s-83,5-107-1
	s-15-14-2-19s23-5,20-17s-41-6-27-1c0,0,16-1,17,3s-9,9-18,10s-23,7-23,17s12,20,31,24s63-7,72,5s-17,34,8,55s68,21,94,10
	s32-38,19-67s-65-68-54-80C175.5,79.5,198.5,94.5,214.5,89.5z"/>
</svg>
