<?xml version="1.0" encoding="utf-8"?>
<!-- Generator: Adobe Illustrator 17.0.0, SVG Export Plug-In . SVG Version: 6.00 Build 0)  -->
<!DOCTYPE svg PUBLIC "-//W3C//DTD SVG 1.1//EN" "http://www.w3.org/Graphics/SVG/1.1/DTD/svg11.dtd" [
	<!ENTITY ns_flows "http://ns.adobe.com/Flows/1.0/">
	<!ENTITY ns_extend "http://ns.adobe.com/Extensibility/1.0/">
	<!ENTITY ns_ai "http://ns.adobe.com/AdobeIllustrator/10.0/">
	<!ENTITY ns_graphs "http://ns.adobe.com/Graphs/1.0/">
]>
<svg version="1.1" id="Layer_1" xmlns:x="&ns_extend;" xmlns:i="&ns_ai;" xmlns:graph="&ns_graphs;"
	 xmlns="http://www.w3.org/2000/svg" xmlns:xlink="http://www.w3.org/1999/xlink" xmlns:a="http://ns.adobe.com/AdobeSVGViewerExtensions/3.0/"
	 x="0px" y="0px" width="256px" height="256px" viewBox="0 0 256 256" style="enable-background:new 0 0 256 256;"
	 xml:space="preserve">
<g>
	<path style="fill:none;stroke:#000000;stroke-miterlimit:10;" d="M92.9,159.5c-3.5,5.3-8.1,7.4-13.3,7.4c-6.6,0-12.6-4.2-16-12.2
		c-3.4,8.2-9.4,12.2-16.1,12.2c-6.6,0-12.5-4.3-16-12.3c-3.4,8.2-9.4,12.3-16.2,12.3c-4.9,0-9.3-1.7-12.7-6.4l-2.5-28.8
		c3.5,7.3,9,12,15.2,12c6.7,0,12.8-5.2,16.2-13.5c3.4,8,9.4,13.5,16,13.5c6.6,0,12.7-5.2,16.1-13.4c3.4,8,9.4,13.4,16,13.4
		c6.7,0,12.7-5.5,16-13.7L92.9,159.5L92.9,159.5z"/>
	<path style="fill:none;stroke:#000000;stroke-miterlimit:10;" d="M157,159.3c-3.5,5.3-8.1,7.4-13.3,7.4c-6.6,0-12.6-4.2-16-12.2
		c-3.4,8.2-9.4,12.2-16.1,12.2c-6.6,0-12.5-4.3-16-12.3c-3.4,8.2-9.4,12.3-16.2,12.3c-4.9,0-9.3-1.7-12.7-6.4l-2.5-28.8
		c3.5,7.3,9,12,15.2,12c6.7,0,12.8-5.2,16.2-13.5c3.4,8,9.4,13.5,16,13.5c6.6,0,12.7-5.2,16.1-13.4c3.4,8,9.4,13.4,16,13.4
		c6.7,0,12.7-5.5,16-13.7L157,159.3L157,159.3z"/>
</g>
<g>
	<path style="fill:none;stroke:#000000;stroke-miterlimit:10;" d="M93,204.3c-3.5,5.7-8.1,7.9-13.3,7.9c-6.6,0-12.6-4.6-16-13.1
		c-3.4,8.8-9.4,13.1-16.1,13.1c-6.6,0-12.5-4.7-16-13.3c-3.4,8.9-9.4,13.3-16.2,13.3c-4.9,0-9.3-1.9-12.7-6.9l-2.5-31
		c3.5,7.8,9,12.9,15.2,12.9c6.7,0,12.8-5.6,16.2-14.5c3.4,8.6,9.4,14.5,16,14.5c6.6,0,12.7-5.6,16.1-14.4c3.4,8.6,9.4,14.4,16,14.4
		c6.7,0,12.7-5.9,16-14.7L93,204.3L93,204.3z"/>
	<path style="fill:none;stroke:#000000;stroke-miterlimit:10;" d="M156.7,204c-3.5,5.7-8.1,7.9-13.3,7.9c-6.6,0-12.6-4.6-16-13.1
		c-3.4,8.8-9.4,13.1-16.1,13.1c-6.6,0-12.5-4.7-16-13.3c-3.4,8.9-9.4,13.3-16.2,13.3c-4.9,0-9.3-1.9-12.7-6.9l-2.5-31
		c3.5,7.8,9,12.9,15.2,12.9c6.7,0,12.8-5.6,16.2-14.5c3.4,8.6,9.4,14.5,16,14.5c6.6,0,12.7-5.6,16.1-14.4c3.4,8.6,9.4,14.4,16,14.4
		c6.7,0,12.7-5.9,16-14.7L156.7,204L156.7,204z"/>
</g>
<g>
	<path style="fill:none;stroke:#000000;stroke-miterlimit:10;" d="M189.3,158.6c-3.5,5.3-8.1,7.4-13.3,7.4c-6.6,0-12.6-4.2-16-12.2
		c-3.4,8.2-9.4,12.2-16.1,12.2c-6.6,0-12.5-4.3-16-12.3c-3.4,8.2-9.4,12.3-16.2,12.3c-4.9,0-9.3-1.7-12.7-6.4l-2.5-28.8
		c3.5,7.3,9,12,15.2,12c6.7,0,12.8-5.2,16.2-13.5c3.4,8,9.4,13.5,16,13.5c6.6,0,12.7-5.2,16.1-13.4c3.4,8,9.4,13.4,16,13.4
		c6.7,0,12.7-5.5,16-13.7L189.3,158.6L189.3,158.6z"/>
	<path style="fill:none;stroke:#000000;stroke-miterlimit:10;" d="M253.4,158.4c-3.5,5.3-8.1,7.4-13.3,7.4c-6.6,0-12.6-4.2-16-12.2
		c-3.4,8.2-9.4,12.2-16.1,12.2c-6.6,0-12.5-4.3-16-12.3c-3.4,8.2-9.4,12.3-16.2,12.3c-4.9,0-9.3-1.7-12.7-6.4l-2.5-28.8
		c3.5,7.3,9,12,15.2,12c6.7,0,12.8-5.2,16.2-13.5c3.4,8,9.4,13.5,16,13.5c6.6,0,12.7-5.2,16.1-13.4c3.4,8,9.4,13.4,16,13.4
		c6.7,0,12.7-5.5,16-13.7L253.4,158.4L253.4,158.4z"/>
</g>
<g>
	<path style="fill:none;stroke:#000000;stroke-miterlimit:10;" d="M189.4,203.4c-3.5,5.7-8.1,7.9-13.3,7.9c-6.6,0-12.6-4.6-16-13.1
		c-3.4,8.8-9.4,13.1-16.1,13.1c-6.6,0-12.5-4.7-16-13.3c-3.4,8.9-9.4,13.3-16.2,13.3c-4.9,0-9.3-1.9-12.7-6.9l-2.5-31
		c3.5,7.8,9,12.9,15.2,12.9c6.7,0,12.8-5.6,16.2-14.5c3.4,8.6,9.4,14.5,16,14.5c6.6,0,12.7-5.6,16.1-14.4c3.4,8.6,9.4,14.4,16,14.4
		c6.7,0,12.7-5.9,16-14.7L189.4,203.4L189.4,203.4z"/>
	<path style="fill:none;stroke:#000000;stroke-miterlimit:10;" d="M253,203.1c-3.5,5.7-8.1,7.9-13.3,7.9c-6.6,0-12.6-4.6-16-13.1
		c-3.4,8.8-9.4,13.1-16.1,13.1c-6.6,0-12.5-4.7-16-13.3c-3.4,8.9-9.4,13.3-16.2,13.3c-4.9,0-9.3-1.9-12.7-6.9l-2.5-31
		c3.5,7.8,9,12.9,15.2,12.9c6.7,0,12.8-5.6,16.2-14.5c3.4,8.6,9.4,14.5,16,14.5c6.6,0,12.7-5.6,16.1-14.4c3.4,8.6,9.4,14.4,16,14.4
		c6.7,0,12.7-5.9,16-14.7L253,203.1L253,203.1z"/>
</g>
</svg>
