<?xml version="1.0" encoding="utf-8"?>
<!-- Generator: Adobe Illustrator 23.0.0, SVG Export Plug-In . SVG Version: 6.00 Build 0)  -->
<svg version="1.1" id="Layer_1" xmlns="http://www.w3.org/2000/svg" xmlns:xlink="http://www.w3.org/1999/xlink" x="0px" y="0px"
	 viewBox="0 0 256 256" style="enable-background:new 0 0 256 256;" xml:space="preserve">
<path style="fill:#D6AD63;stroke:#896A32;stroke-width:5;stroke-linecap:round;stroke-linejoin:round;stroke-miterlimit:10;" d="
	M9.5,150.5h239.7l-11.1,36c-3.8,12.3-13.7,20.6-24.8,20.6H56.6c-8.6,0-16.7-5-21.7-13.4L9.5,150.5z"/>
<polygon style="opacity:0.3;" points="29,183.7 238.9,183.7 232.4,197.3 223.2,204.7 213.2,207.1 54.3,206.9 42.1,201.9 34.9,193.7 
	"/>
<path style="fill:none;stroke:#896A32;stroke-width:5;stroke-linecap:round;stroke-linejoin:round;stroke-miterlimit:10;" d="
	M9.5,150.5h239.7l-11.1,36c-3.8,12.3-13.7,20.6-24.8,20.6H56.6c-8.6,0-16.7-5-21.7-13.4L9.5,150.5z"/>
<line style="fill:none;stroke:#896A32;stroke-width:5;stroke-linecap:round;stroke-linejoin:round;stroke-miterlimit:10;" x1="116.5" y1="17.3" x2="116.5" y2="149.5"/>
<path style="fill:#FFFFFF;stroke:#896A32;stroke-width:5;stroke-linecap:round;stroke-linejoin:round;stroke-miterlimit:10;" d="
	M173.3,134.5c-49.3,11.3-96,7.7-111.1,0c-9.4-36-8.3-69.5,41.3-97.6h31C127.6,71,138.3,103.3,173.3,134.5z"/>
</svg>
