<?xml version="1.0" encoding="utf-8"?>
<!-- Generator: Adobe Illustrator 17.0.0, SVG Export Plug-In . SVG Version: 6.00 Build 0)  -->
<!DOCTYPE svg PUBLIC "-//W3C//DTD SVG 1.1//EN" "http://www.w3.org/Graphics/SVG/1.1/DTD/svg11.dtd" [
	<!ENTITY ns_flows "http://ns.adobe.com/Flows/1.0/">
	<!ENTITY ns_extend "http://ns.adobe.com/Extensibility/1.0/">
	<!ENTITY ns_ai "http://ns.adobe.com/AdobeIllustrator/10.0/">
	<!ENTITY ns_graphs "http://ns.adobe.com/Graphs/1.0/">
]>
<svg version="1.1" id="Layer_1" xmlns:x="&ns_extend;" xmlns:i="&ns_ai;" xmlns:graph="&ns_graphs;"
	 xmlns="http://www.w3.org/2000/svg" xmlns:xlink="http://www.w3.org/1999/xlink" xmlns:a="http://ns.adobe.com/AdobeSVGViewerExtensions/3.0/"
	 x="0px" y="0px" width="256px" height="256px" viewBox="0 0 256 256" style="enable-background:new 0 0 256 256;"
	 xml:space="preserve">
<path d="M77.3,109.9c-1.7-3.8-8.3-7.6-11.2-10.7c-1.6-1.7-2.6-3.9-4.6-5.6c-14.4-3.9-23.9-12.6-37-17.8c-14,0-24.4,20-12.2,29.4
	C0,104.6-4.4,81,5.3,72.4c5.3-2.5,10-5.5,18.8-4.6c1.9,1.5,4.3,2.4,5.6,4.6C16.4,67.2-1.3,80.1,5.3,96.2c0.7-0.9-0.4-4.3,0-6.6
	C9,81.4,16.7,74.3,26.6,74.9c8.8,0.6,19,10,26.9,13.7c3,1.4,6.8,2.5,9.1,4.1c1.5,1,3.7,4.8,6.6,7.6c2.4,2.3,5.6,3.4,6.6,4.6
	c0.3,0.4-0.4,1.1-0.5,1C75.9,106.6,78.8,108.2,77.3,109.9z"/>
<path style="fill:#FFFFFF;" d="M186.4,76.4c-2.9,0.7-7-1.8-10.1-2.5c-4,0-0.9-0.9,1.5-0.5C180.1,73.7,185.1,76.3,186.4,76.4z"/>
<path style="fill:#FFFFFF;" d="M169.2,75.4c2.7-1,6.4,1.4,9.6,1.5C175.8,78.3,172.6,75.4,169.2,75.4z"/>
<path style="fill:#FFFFFF;" d="M134.2,77.4c6.2-0.9,13.2,1.6,18.3,3.6C147.7,80.5,141,77.5,134.2,77.4z"/>
<path style="fill:#FFFFFF;" d="M129.6,84c-6.2,0.9-12.5-2.4-20.3-1.5C115.3,79.9,123.2,83.7,129.6,84z"/>
<path style="fill:#FFFFFF;" d="M101.7,86.1c-0.5,1.2-3.2,0.2-4.6,0.5C97.8,85.1,100.3,85.5,101.7,86.1z"/>
<path style="fill:#FFFFFF;" d="M185.4,88.6c-1.2,1.1-3.1-1.3-4.6-1.5C182,85.9,183.9,88.3,185.4,88.6z"/>
<path d="M9.8,95.7c4.1,1,4.2,5.9,6.1,9.1C13.5,104.5,10.1,98.2,9.8,95.7z"/>
<path d="M60.6,95.7h1.5c0,1.8,0.8,2.9,1,4.6C61.7,99.3,61.2,97.5,60.6,95.7z"/>
<path d="M55,103.3c2.3,0.5,2,3.7,2,6.6c-1.3,0.6-1.5,1.1-3,0.5c1.4-0.5,2.3-1.5,2.5-3C56.8,105.2,53.8,104.8,55,103.3z"/>
<path d="M14.9,106.4c3.4,6.7,13,7.3,15.7,14.7c-2.2-3.1-5.6-3.3-10.7-2.5C16.5,116.3,14.5,112.5,14.9,106.4z"/>
<path d="M62.1,106.4c0.9,0.2-0.1,2.6-0.5,3c2,1.9,4.3,3.5,6.1,5.6c-0.1,1.3-1.7,0.1-2,0c-2,1.2-0.2,4.1,0,6.1
	c-1.9-1.6-2.9-2.1-5.6-2C59.2,114.2,60.1,109.7,62.1,106.4z"/>
<path d="M42.3,108.4c1.8-1.1,2.4,3.3,4.1,4.1c-1.1,1.1-1.4-0.3-3,0C42.6,111.5,43.3,109.1,42.3,108.4z"/>
<path d="M31.2,108.4c0.5,0.3,0.9,0.6,1,0c0.3,2.4,2.4,3,3.6,4.6c-1.8,0.4-2-0.8-3.6-0.5C32.1,110.8,31,110.2,31.2,108.4z"/>
<path style="fill:#FFFFFF;" d="M215.8,117.5c-2.1-1.3-2.5-4.3-2.5-7.6c1.1-0.5,1.5-1.5,3-1.5C216.7,112.3,216.8,114.2,215.8,117.5z"
	/>
<path d="M49.9,115.5c1.9,0.5,0.7,4.1,1,6.1C49.9,120.3,49.9,117.9,49.9,115.5z"/>
<path d="M38.8,116.5c3-0.8,1.1,11.7,1,6.1C39.4,120.4,37.9,118.4,38.8,116.5z"/>
<path d="M173.7,117c1.1,0.1,0.2,2.2,0.5,3c-1.3,0.6-3.2,2.5-5.1,1C170.3,119.3,172.7,118.9,173.7,117z"/>
<path d="M183.4,117c2.4,5.2,0,15.2,1.5,21.3C183,132.9,182.3,123.7,183.4,117z"/>
<path d="M223,123.6C221.8,121.6,224.6,116.2,223,123.6z"/>
<path style="fill:#FFFFFF;" d="M77.8,121.6c1.1,0.2,0.2,2.5,0.5,3.6C76.9,125.1,77.1,122.3,77.8,121.6z"/>
<path d="M156.5,122.1h3c1.2,3.3-1.6,8-0.5,9.1c-1.8-1.8,1.6-5.8-0.5-8.6c-1.6,4.6,0.9,11.6-0.5,14.7c1.9,0.4,0.6-2.4,1-3.6
	c0.8-1.3,0.8,4.2,0,4.6C155.5,135.6,159.3,126.5,156.5,122.1z"/>
<path d="M190,123.1c1.6,4.9,2.1,16.2,1,20.3C190.9,136.4,190.1,130,190,123.1z"/>
<path d="M72.3,129.2c1.2-1.2,4.6-0.2,6.6-0.5C77.6,129.8,74.3,128.9,72.3,129.2z"/>
<path style="fill:#FFFFFF;" d="M241.2,130.7c-3,0.9-8.4,2.1-11.7,1C231.9,130.1,238.1,129.9,241.2,130.7z"/>
<path d="M200.6,130.7c0.8,2.3,1.9,9.5,0.5,10.7C201.5,137.3,200.5,134.5,200.6,130.7z"/>
<path style="fill:#FFFFFF;" d="M53.5,134.3c-1.6-0.1-4.7-1.3-6.1,0C47,132.1,52.8,130.9,53.5,134.3z"/>
<path d="M170.2,133.3c1.8,2.4,2,8.8,1,12.2C169.9,142.3,171.4,136.4,170.2,133.3z"/>
<path d="M175.3,133.8c0.9-1.2,0.3,3.3,0.5,4.6C174.8,139.6,175.4,135,175.3,133.8z"/>
<path d="M202.7,133.8c2.2,0.8,0.4,5.7,1,8.1C202.5,143.9,203.8,135.1,202.7,133.8z"/>
<path d="M166.6,135.8c1.3,0.9,0.6,8.2,1.5,11.2C165.8,145.1,167.6,140,166.6,135.8z"/>
<path style="fill:#FFFFFF;" d="M251.4,138.8c-7-0.3-14.4,0-22.3,0v-1c-0.1-0.6,0.1-0.9,0.5-1c4.2,0.1,8.7-0.2,12.7,0
	C245.7,136.9,250.4,136.3,251.4,138.8z"/>
<path style="fill:#FFFFFF;" d="M66.2,138.8c-8.3,4.1-23.9,1.5-35,2.5c3.3-3.6,10.8-2,16.7-2C54.1,139.3,60.8,138.7,66.2,138.8z"/>
<path d="M176.3,150.5c-1.5-1.3,0-7.5-0.5-11.2C176.9,142,175.9,146.9,176.3,150.5z"/>
<path d="M178.8,139.3c1.1,2.9,1.7,6.4,1.5,10.7C179.2,147.9,179.5,143.1,178.8,139.3z"/>
<path style="fill:#FFFFFF;" d="M232.1,144.4c-3.3,0.2-2.7-3.7-4.1-4.1c3.8-2.3,10.8-0.7,16.2-0.5c3.2,0.1,7.5-1.5,8.6,1
	c-7.9,0-16.1-0.2-23.3,0.5c5.4,1.9,17.6-1.1,23.3,1c-5,2.8-13.8-0.4-20.3,1.5c5.7,0.2,12.4,0.6,20.3,0.5c-5.5,3.3-17.7,1-24.9,1
	c5.9,2.3,16.2,0.4,23.8,1c-9.7,2.8-26,1.4-40.6,2c-1,0.2-1.8-0.3-1-0.5c5.9,0,9.6-2.2,16.2-1.5C228.1,144.5,228.6,143.6,232.1,144.4
	z"/>
<path d="M189,143.4c0.7,1.4,1.3,7.1-1,7.1C188,147.9,188.9,146,189,143.4z"/>
<path style="fill:#FFFFFF;" d="M52,143.9c-4.2,3.5-15.4,0.8-21.3,1.5C35.4,142.7,45.9,145.4,52,143.9z"/>
<path style="fill:#FFFFFF;" d="M32.2,147c3.4-1.2,9-0.2,13.2-0.5C43.3,149.2,35.8,148.3,32.2,147z"/>
<path style="fill:#FFFFFF;" d="M40.8,148.5c-0.7,1.7-3,1.8-4.6,2.5c0.4-0.9,1.9-1.8-0.5-1.5C36.9,147.9,38.6,149.3,40.8,148.5z"/>
<path style="fill:#FFFFFF;" d="M250.4,148.5c-2,2.9-6.1,1.4-9.1,1.5c-12.2,0.6-27.6,1.4-39.6,1.5c3.1-2.5,8.3-2.5,14.2-2.5
	C227.7,148.8,241.8,148.9,250.4,148.5z"/>
<path style="fill:#FFFFFF;" d="M28.1,165.2c3.6,0.8,5.9,2.9,9.1,4.1C34.6,169.6,29.9,167.5,28.1,165.2z"/>
<path style="fill:#FFFFFF;" d="M56.5,178.4c-5.2-0.2-10.6-3-12.7-4.6C46.6,174.9,56.6,174.4,56.5,178.4z"/>
<path style="fill:#FFFFFF;" d="M70.2,178.4c0.9-0.9,3.8,0.6,5.6,0.5C74.7,180,70.8,179.5,70.2,178.4z"/>
<path style="fill:#FFFFFF;" d="M70.7,182c-3-0.4-5.7-1-9.1-1C63.3,178.7,69.6,180.3,70.7,182z"/>
<path d="M225.5,87.6c-0.6,2.4,5.8,3.4,4.1,7.1c1.3,0.8,3.2,0.9,3.6,2.5c0.5,1.8-2.2,0.5-2.5,1.5c-1.8,6.6-4,23.6-1,29.4
	c0.6,1.3,2.2,0.2,0,1.5c2.6,1.5,6-0.4,9.1,0c-3.6-1.1-3.7-2.6-8.6-2.5c1.4-0.9,1.2-0.6,1.5-2c14.5,1.2,28.5,8.4,23.3,25.4
	c-1.2,4-6.3,11.1-11.2,14.7c-5,3.7-18.2,8.4-25.4,10.7c-11.7,3.7-30.3,6.1-44.7,7.1c-22.5,1.6-51.5,3.3-68,0c-0.4,1.8-2.3,2.1-3,3.6
	c-10.7,4.9-25.1-1.4-38.6-2.5c-11.5-1-17.8-7.8-31-10.1c-1.7-0.3-4-3.3-6.1-3.6c-1.7-4.8-3.1-12.3-2.5-17.8c1.8-0.2,3-1,4.6-1.5
	c-1-5-2-14.4,1.5-12.2c-0.8-2.6,4.6-5.7,8.6-6.6c-1.2,1.2-1.7,3.1-4.1,3c14,2,31.3,0.2,48.2,0c4-0.2,1.7,0.9-1,0.5
	c-1.6-0.2-2.4,1.2-3.6,0c-12.3,8-28.9,11.7-44.1,16.7c-4.2-1.9-9.4,0.8-7.6,5.1c11.2,7.8,23.2,14.6,37.5,19.3
	c-2.5-0.1-5.3,0.3-7.1-0.5c2.5,3.2,8.3,2,11.2,1.5c-0.2-1.1-2.7,0-3-1c12.9-2.2,27.3,5.2,38.6,0c0.2,2.4-1.4,3-3,3.6
	c0,1.5,1.2,1.9,2,2.5c1.1-0.1,1.1-1.3,1-2.5c0.7-1.6,0.5,1.8,0.5,2.5c6.8-7.4,22.2-13.7,28.4-16.7c1.8-2.6,3.6-2.9,7.6-5.1
	c0.1-2,0.4-3.6,0.5-6.6c17.1,6.8,33.9,13.8,50.7,20.8c1.1-4.3-1.4-9.4-1.5-14.2c-35.7-16.4-74.3-29.8-110.1-46.2
	c35.9,14.2,74.4,30.1,111.1,45.2c-35.3-17-74.3-30.3-110.6-46.2c-0.4,0.3-0.8,0.5-1.5,0.5c-0.5,4.5,1.5,8.9,0,12.7
	c6,5.2,20.1,9.5,28.9,13.2c9.3,3.9,18.1,8.8,26.4,10.7c2.3,0.5,6.1-0.9,7.1,2.5c-2.4,0.8-12.3-3.2-10.7-2.5
	c-12.2-4.5-33.8-5.9-49.2-12.7c1.5-1.8,3,0.6,4.6,0.5c0.8-0.2-1.2-5.4,1-5.6c-4.9-4.5-15.1-0.7-23.8-1.5c-2.8,0.1-0.6-0.9,1-0.5h4.1
	c3.4-1,8.5-0.3,12.7-0.5c0.2-2.9-6.8-3-9.6-4.6c3.2-4.4,1.4-11.1,4.6-15.7c1.5,4.4-3.3,9.4-0.5,13.7c0.1-3.2,0.4-9.5,4.1-10.7
	c-0.3-1.6-2.4-1.3-2.5-3c2.4-0.2,3.3,1.1,4.6,2c26,10.6,52.1,21.7,78.6,32.5c8.7,3.5,17.1,8.1,26.4,9.6c-1.6,0.1-2.5-0.9-4.1-2
	c0.1-1.4,4.7,0.7,2,0.5c2.5,0.5,5.1-3.3,7.1-5.1c1,0.1,0.1,2.2,1.5,2c3.5-9.1-2.3-24.1-2-34.5c-4.8,0.1-1.4,5.4-2.5,8.6
	c-0.7-0.2-0.4-1.3-0.5-2c-2.2,0.7-0.2,3.2-0.5,5.1c-2.1-2.9,0.1-6.8-1-10.7c-3.4-0.5-4.7,1-7.6,1c1.9,4.8,1.8,13.1,0.5,17.8
	c-1.1-0.2-0.2-2.5-0.5-3.6c1.9,4.4,0.1-2.3,0.5-5.1c-0.6,6.7-2.8-7.4-3.6-9.1c7.8-1,16.7-3.9,23.3-6.6c4.9,0.8,4.9,6.6,5.1,12.2
	c-0.9,1.4-0.4-3-0.5-4.1c-1.8,3.3,1.1,11.3-1.5,13.7c1.1-5.9,0.7-14.5-1-19.3c-2.3,4.3-0.9,9.8-2,15.7c-1.2-2.5-0.2-7.3-0.5-10.7
	c-1.5,0.9,0.5,5.2-1,6.1V118c-0.2-1.2-1-2.1,0-3c-0.9-0.9-1.3,0.4-3,0c0.3,2,1.3,3.5,1,6.1c-1.7-0.9,0.2-2.1-1.5-3
	c-0.8,1.3-0.1,2.2-0.5,4.6c-1.2,1.2,0.2-4.6-1-5.1c-1.6,9.5,4.7,20.8,2,31c7.2-2.6,2.4-16.3,2-23.3c2.6,7.3,3.1,15.8,2,21.3
	c2.8,0.2,0.8-4.3,3.6-4.1c-0.2,1.6,0.9,1.8,0.5,3.6c1.4-0.1,2.1-0.9,3.6-1c-0.1-1.4-2.4-0.6-2-2.5c0.9-0.2,1,0.4,1,1
	c0.5-3.1,1.2-7.9,0.5-12.7c0.4-1.6,0.7,0.9,0.5,1.5c0.7,2.9,0.9,8.8,0,11.7c1.4-0.7,2-2.3,1.5-3.6c1.6-0.5,0.7,1.7,1.5,2
	c1.9-3.9,1.3-6.6,1-11.2c1.7,2.7,0.7,6.7,0.5,10.1c0.5,1.4,1.2-1.1,1.5-1.5c2.1,2.3-1.5,3.2-3,3.6c2.7,1.9,4.7-1.4,5.6-3
	c-0.2-0.8-0.6,0.2-1.5,0c1.6-1.4,0.4-8.4,1.5-8.6c-0.2,3.7,0.1,7,0.5,10.1c4.2-2.2,1.9-16.4,2-21.3c0-0.5-1.2-2.2,0.5-0.5
	c0.1,7.2,1.9,15.3-0.5,20.8c2,0.5,1.5-1.5,3.6-1c-0.1-0.6-0.9-0.4-1.5-0.5c1.2-1.3,0.1-2.5,0.5-5.6c0.5-4.2,1.8-14.1,1.5-5.1
	c0.5,1.3,0.6,3.1,0.5,5.1c-0.2,1.2-0.6,2.1-1,3c1.4-1.2,1.2-0.8,2,0.5c1.5-3.8-0.5-10.9,1-14.7c-0.3-1.4,0.4-5.5,0.5-2
	c0.2,5.6-0.9,9.9-0.5,15.7c4.5-8.2-0.5-23.4,2.5-33.5c0.1-2.2-4.6,1.4-3.6-2.5c-1.9,0.1-1.5,2.6-3,3c-1.5,0-2.6-0.5-3-1.5
	c-1.2,2.3-6.4,3.4-8.6,3c-5.8,6.2-18,6-28.9,7.1c-2.2,1.7-4.1,3.7-8.1,3.6c-0.1-1.3-0.1-2.4,0.5-3c-3.7,0.6-4.4,2.2-7.1,1.5
	c-0.8,0.7-0.5,2.5-1.5,3c-1.8,0.1-1.9-1.5-3.6-1.5c-0.4,2.4-3.6,3.2-4.6,6.1c-0.7,2.1,0.6,5.2-0.5,8.1c-2,5.3,0.7-2-0.5-2.5
	c-1.3-0.6,0,3.7,0,4.1c-0.2,3.1-2,7.5-1,9.1c-2.2-5.3,1-10.7-0.5-16.2c0.9,0.4,0.8,2.3,2,1c0.1-1.6,0.4-5.4,0.5-6.6
	c-1,2.7-1.4-2.5-1.5,1c-1.5-1.5,0.8-4.9,2-2.5c-3-1.9,2.4-3.1,1-4.6c0.1-1.3,1.7-0.1,2,0c1.1-0.6-1.3-2.1-1-3.6
	c0.8-0.8,3.7-0.8,4.6,0c-0.2,2.5-3.3,2.1-3,5.1c2.4-0.4,2-3.7,5.1-3.6c-0.6,2.2,1.7,1.4,2,2.5c0.3-0.5,0.5-2.4,0.5-4.6
	c1.5-0.5,0.9,1.1,1,2c1.1,0.1,0.2-1.8,0.5-2.5c1.1,3,0.8,1.2,2.5,0v2c0.6-0.1,0.4-0.9,0.5-1.5c2,0.2-0.5,2.8,3,2
	c0.3-0.7,0.4-3.8,1.5-5.1c1.1,0.4,0.2,2.8,0.5,4.1c0.8-0.7,1.1-2,1-3.6c0.8-1.6,0.4,2.2,0.5,3c1.2-0.5,1-2.3,1-4.1
	c1.5-0.5,0.9,1.1,1,2c0.4-0.8,1.6-0.8,1.5-2c1.5,0.4-0.7,1.3,0,2.5c0.6-0.9,1.9-1.1,2.5-2c-0.2-1.7-2,1.4-1.5-1c1.6,0.3,2.3-1.4,2,1
	c0.8-0.4,1.1-1.3,1-2.5c1.4,0.5-0.1,2.2,0,3c1.5,0,0.7-2.4,1.5-3c1.5,0.4-0.3,1.6,0,2.5c1.7,0.5,0.8-1.6,1-2.5
	c1.7,0.9,0.7,2.9,0.5,4.6c1.7-1.3,1.9-4.2,3.6-5.6c1.1,0.1,0.2,2.2,0.5,3c0.8-0.5,0.6-2.2,1-3c1.6,0.7-0.7,2.5,0.5,3
	c0.8-0.8,0.8-2.2,1-3.6c1.1,0.2,0.4,2.7,0,3c0.9-0.1,1.2-0.9,1-2c1.4,1.6,1.3,1.5,1.5,3.6c1.5-0.5,1.1-3,2-4.1c1.1,0.2,0.4,2.7,0,3
	c0.9-0.1,1.2-0.9,1-2c0.6,0.1,0.4,0.9,0.5,1.5c0.7-0.3,0.9-1.1,1-2c1.5,0.7-0.9,1.7-0.5,3c0.9-1.3,2.6-1.8,3-3.6
	c0.6,0.1,0.4,0.9,0.5,1.5c0.7-0.6,0.8-1.9,1.5-2.5c1.5,0.4-0.3,1.6,0,2.5c1.1-0.4,0.8-2.2,1.5-3c0.7,0.1,0.9,2.1,1,0
	c0.7,0.8,2.2,1.9,1,3c2.7,0,1.6-3.8,2.5-5.6c1.1,0.1,0.2,2.2,0.5,3c0.8,0,0.7-3,1-0.5c1.1,0.1,0.2-1.8,0.5-2.5c1.1,0.6,1.2,2.2,2,3
	c1.5-0.5,1-3.1,2.5-3.6c2.5-0.1,4.5,0.2,4.1,3c2.2-0.7,0-2.5,0.5-4.6c1.6-0.3,3.3-0.4,4.6-1c-0.5-0.7-0.5-1.9-1-2.5
	c-0.5,0.3-0.5,1.2-1.5,1c-4.4-7.3-12.6-10.8-21.3-13.7c2.8-1.7-2.1-0.2-0.5-1c-1.1-2.1,4,0.4,4.1,2c4,0.6,6.7,2.4,9.6,4.1
	c-6.5-5-14.3-8.7-23.8-10.7c1.5,2.2,6,1.5,8.1,3c1,0.9-4.1-1-6.6-1.5c-3.4-0.7-6.9-0.6-9.1-1.5c-0.6,0.1-0.3,0.5,0,0.5
	c-1.8,0.6-5.6-1.2-8.1-1.5c1.9,2,6.1,1.7,8.6,3c0.8-0.2-0.4-0.9,0.5-1c4.1,0.4,6.1,3,10.7,3c-0.6,2,1.5,1.2,1.5,2.5
	c10.2,1.6,19.1,4.6,22.3,13.2c-5.1-4.4-12.7-8.9-20.3-9.1c0.4-1.9-2.4-0.6-2-2.5c3.9,0.8,7.5,2,10.7,3.6c-1.8-3.6-12.3-4.4-13.2-4.1
	c-2.1-0.1-0.1-0.3,0-1c-1.8-0.9-3.8-1.6-5.6-2.5c-1.3,0.2,0.8,1.1,1.5,1c-11.9,1.4-25.6-4.2-38.1-5.6c7.7,3,18.2,3.1,23.8,8.1
	c-2.1-0.7-4.1-2.7-6.6-1.5c0-0.3,0.7-0.6,1-0.5c-7.2-1.9-19.2-2.9-28.9-4.6c6.7,1.9,14.3,2.9,19.8,6.1c-1.5,0.3-5.6-1.2-8.1-1.5
	c0.6,4.4,6.1,4,9.6,5.6c-7.7-1.2-12.3-1.7-20.8-3c-0.1,0,0.7-0.5,1-0.5c-2-0.1-6.5-0.7-8.6-1c3.5,1.3,6.8,2.6,10.7,3.6
	c-4.1,1.5-8.8-0.7-12.7-1c0.1-0.6,0.9-0.4,1.5-0.5c-0.8-1.5-2.2,0.4-3.6,0c0.1-0.6,0.9-0.4,1.5-0.5c-4.9-2.1-13-2.7-18.8-1
	c8.6,1.2,19,0.6,23.3,6.1c-9.3-0.3-21.2-5.2-32.5-3.6c7.3-0.3,18.1,2.8,24.4,3.6c-5.8,2.2-12.4-3-20.3-2c0.1,0.6,0.9,0.4,1.5,0.5
	c-1.9,1.2-6.4-1.5-8.6,0c10.1,2.1,20.7,1.9,29.9,5.6c2.8,1.1-2.7-0.6-5.1-1c-2.5-0.5-5.3-0.3-6.6-1c0.6,2.4,17.5,4,8.6,3
	c-5.8-0.7-13.4-1.2-19.8-2c0.4-1.1,2.8-0.2,4.1-0.5c-2.6-2.3-8.6-1.3-12.2-2.5c-0.2,0.9,0.4,1,1,1c-1.5,0.6-4.9-1.2-8.1-0.5
	c8.2,1.3,11.3,2.4,19.8,4.1c-2.8,1-7.7-0.4-9.6-2c-0.2,1.7-12.5-3.1-17.8-0.5c-2.1,1-1.5,3-3.6,5.1c0.7,2.6,2,4.7,3.6,6.6
	c-2.2,2.7,0.3,10.1-2,12.7c-1.7-2.5-2.3-8.1-0.5-11.7c-2.8-0.9-2.6-4.9-4.1-7.1c8.3-12.9,43.5-20.3,69-23.3c12-1.4,25.8-1.2,38.6,0
	c8.8,0.8,18,5,25.9,8.1c9.1,3.6,17.1,6.6,18.8,16.2c-0.5,0.3-0.9,0.6-1,0C230.4,93.2,229.2,89.1,225.5,87.6z M229.5,131.7
	c3.3,1.1,8.7-0.1,11.7-1C238.1,129.9,231.9,130.1,229.5,131.7z M229.5,132.7c0.3,2,0.4,2.1-0.5,3.6c7.4-0.1,15.3-0.5,21.3-0.5
	c-2.3-2.3-8.3-0.8-11.7-2c2.2-0.4,6,0.9,6.6-1C240.9,131.2,235.3,132.8,229.5,132.7z M177.8,73.4c-2.4-0.4-5.5,0.5-1.5,0.5
	c3.2,0.7,7.3,3.2,10.1,2.5C185.1,76.3,180.1,73.7,177.8,73.4z M192,77.4c2.8,0.4,5.7,3.4,7.6,3C197.9,79,194,77,192,77.4z
	 M178.8,76.9c-3.2-0.2-6.9-2.6-9.6-1.5C172.6,75.4,175.8,78.3,178.8,76.9z M171.2,79c-3.4-1.5-12.7-4.3-18.3-3.6
	C159.6,76,164.9,78,171.2,79z M142.8,80c-5-0.8-13.9-2.9-17.8-1.5c0.8,0.1,1.9-0.2,2,0.5c-0.7-0.1-3.7-0.1-2,0.5
	c4.6-0.4,9.4,1.8,12.2,1.5c-1.4-1.4-5.1-0.7-6.6-2C134.7,78.9,139.5,80.8,142.8,80z M157.5,78.4c-7.4-1-15.5-3.4-21.8-2
	c7.5-0.4,13.8,3.1,18.8,3.6c-2-1.5-5.7-1.4-7.6-3C150.1,77.4,154.3,79.6,157.5,78.4z M152.4,81c-5-1.9-12.1-4.5-18.3-3.6
	C141,77.5,147.7,80.5,152.4,81z M109.3,82.5c7.8-0.9,14.1,2.5,20.3,1.5C123.2,83.7,115.3,79.9,109.3,82.5z M97.1,86.6
	c1.4-0.3,4,0.6,4.6-0.5C100.3,85.5,97.8,85.1,97.1,86.6z M78.3,125.1c-0.3-1.1,0.6-3.3-0.5-3.6C77.1,122.3,76.9,125.1,78.3,125.1z
	 M242.2,136.8c-4-0.2-8.5,0.1-12.7,0c-0.4,0.1-0.6,0.4-0.5,1v1c7.9,0,15.3-0.3,22.3,0C250.4,136.3,245.7,136.9,242.2,136.8z
	 M226.5,146.4c-6.6-0.7-10.3,1.5-16.2,1.5c-0.8,0.2,0,0.7,1,0.5c14.6-0.6,30.9,0.8,40.6-2c-7.6-0.7-17.9,1.3-23.8-1
	c7.2,0,19.4,2.2,24.9-1c-7.9,0.1-14.6-0.3-20.3-0.5c6.5-1.9,15.3,1.3,20.3-1.5c-5.8-2.2-18,0.9-23.3-1c7.2-0.7,15.4-0.5,23.3-0.5
	c-1.1-2.5-5.4-0.9-8.6-1c-5.5-0.1-12.4-1.8-16.2,0.5c1.3,0.4,0.8,4.2,4.1,4.1C228.6,143.6,228.1,144.5,226.5,146.4z M215.8,149
	c-5.9,0.1-11.1,0-14.2,2.5c11.9-0.2,27.4-1,39.6-1.5c3.1-0.1,7.1,1.4,9.1-1.5C241.8,148.9,227.7,148.8,215.8,149z M190,152.5
	c2.2,0,3.7-0.7,5.1-1.5C193.1,151.3,191.4,151.8,190,152.5z M195,154.1c-1.3,1.7-5,1.1-7.1,2c4.1,1.5,10.8-1.3,15.2,0.5
	c-4.3-0.2-10.1,0.1-11.7,1c4.7,1.7,0.3,15.3,2.5,17.8c-2.8-9.1,11.3-4.2,14.7-7.6c-5.2-0.6-10.3,1.6-14.7,0c7.4-0.5,16.1,0.2,21.8-2
	c-7.3-0.4-16,0.6-21.8,0c8.2-1.3,19.7,0.7,26.4-2c-9.6-0.5-17.7,0.4-26.4-0.5c10.7-1.2,25.6,1,33-2c-11.4-1.1-21.4,0.6-33-0.5
	c11-1.8,32,1.4,40.1-2.5c-12.6-0.4-26,1.3-39.6,0c12.1-0.8,26.6,0.3,37.5,0c3-0.1,6.3-0.4,8.1-2.5c-11.4,1.1-24.2,1.3-35.5,0
	c15-0.9,34.3,2.5,43.1-4.6c-11-0.6-22.3,0.5-31,1c-7.4,0.5-14.6-0.4-20.3,1.5c17.3,1,34.8-1.8,48.7-1
	C227.4,153.5,212,155.4,195,154.1z M152.9,161.2c-0.7-0.1-3.7-0.1-2,0.5c2.2-0.6,3,0.6,4.6-0.5c-4.9-1.6-9-3.9-13.7-5.6v4.6
	C143.9,157.3,149.5,160.6,152.9,161.2z M132.1,168.8c13.5-0.3,28.4,0.7,41.1-0.5c-9.2-3.5-25.3-0.1-36-2c9.1-0.6,20.9,0.1,29.9-0.5
	c-3.8-0.6-7.2-4-11.2-1.5c1.5,0.3,4.4-0.6,5.1,0.5c-7.6,0.2-12.4,0-19.3-1c1.1-0.3,3.3,0.6,3.6-0.5
	C140.4,161.4,136.6,167,132.1,168.8z M129.6,169.3c-2,1.4-4.7,2-6.6,3.6c2.7,0.3,6.8-0.7,8.6,0.5c-4.4,0.2-9.8-0.6-12.7,1
	c-0.5,1.3-0.6,3.1-0.5,5.1c-0.9-5.4,4.3-4.3,9.6-4.1c9.4,0.4,26.9-0.2,33-1.5c-9-0.3-19.3,0.7-27.4-0.5c16.3-0.4,34.5,1,49.2-1
	c-18.8-2.3-37.2,0.8-55.8-1.5c17.8-0.2,34,1.2,51.2-0.5C164,168,145.6,169.9,129.6,169.3z M122.5,147.5
	c-11.6-4.2-23.2-10.9-34.5-13.7c1.5,1.2,2,3.5,2,6.1C102.4,140.5,111.6,147,122.5,147.5z M32.2,138.3c12.3,0.6,30.4,1.3,41.1-2
	c-14.1,1.2-28-0.2-40.6,1c-0.3-0.7,2-1.2,0.5-1.5C33,136.5,31,137.9,32.2,138.3z M47.9,139.3c-5.9,0-13.5-1.6-16.7,2
	c11.1-1.1,26.7,1.5,35-2.5C60.8,138.7,54.1,139.3,47.9,139.3z M61.1,141.4c-5.7,0.2-10.9,0.3-16.2,0.5c-5.3,0.2-11.3-1.4-14.7,1.5
	C41.3,142.3,57.1,145.7,61.1,141.4z M30.6,145.4c5.9-0.7,17.1,1.9,21.3-1.5C45.9,145.4,35.4,142.7,30.6,145.4z M45.4,146.4
	c-4.2,0.3-9.8-0.7-13.2,0.5C35.8,148.3,43.3,149.2,45.4,146.4z M35.7,149.5c2.4-0.2,0.9,0.6,0.5,1.5c1.6-0.8,3.9-0.8,4.6-2.5
	C38.6,149.3,36.9,147.9,35.7,149.5z M37.2,169.3c-3.3-1.1-5.6-3.2-9.1-4.1C29.9,167.5,34.6,169.6,37.2,169.3z M43.8,173.8
	c2.1,1.6,7.4,4.4,12.7,4.6C56.6,174.4,46.6,174.9,43.8,173.8z M75.8,178.9c-1.8,0.1-4.7-1.4-5.6-0.5C70.8,179.5,74.7,180,75.8,178.9
	z M61.6,180.9c3.4,0,6.1,0.6,9.1,1C69.6,180.3,63.3,178.7,61.6,180.9z"/>
<path d="M196.1,80.5c-3.1,2.1,6.1,3.2,7.6,5.6c0.7-0.2,0-0.9-0.5-1c3.8,0.8,10.7,2.8,11.2,8.6c-0.5,0.2-0.9,0.4-1,1
	c-6.5-1.8-13.3-8.9-18.3-11.2c-2.7-1.2-3.5,0.3,0-0.5c4.3,1.5,7.1,4.4,11.2,6.1c-2-3.3-10-5.4-13.2-8.6
	C193.6,78.9,194.8,81,196.1,80.5z"/>
<path d="M208.7,93.7c-0.7,2.2-3.1,0.1-4.1-0.5c-0.3,1.4,1,2.9-0.5,5.1c-3.8-1.7-3.8-5.8-6.1-8.6c-1.8-2.3-5.4-2.8-5.6-4.6
	c-2.5,0.9-3-2.1-7.1-2C193.9,83.8,202.7,88.7,208.7,93.7z"/>
<path d="M127.6,163.2c0.7,1.3,1.7-1.3,3-1c-2.3,3.1-6.1,1.9-9.1,4.6c3.4,1,6.2-2.9,10.7-2.5c-1.3,0.4-3.5,2.5-4.6,1.5
	c-2.2,3.9-10.4,5.8-13.7,10.1c-0.9-0.4-0.1-0.9,0-1.5c-1.5,1-3.1,2-4.6,3c-1.3-0.5-1.7-2.1-1.5-4.1c-0.9,0.1-1.2,0.9-1,2
	c-1.4-0.7-1.4-2.8-1-4.1c10-6.4,22.9-9.9,33.5-15.7C138.4,159.1,130.9,160.5,127.6,163.2z M122.5,168.8c1.3-0.3,3.9-1.8,3-2.5
	C125,167.6,122.4,166.9,122.5,168.8z M108.8,172.3c4.3-0.3,8.8-3,9.6-5.1C115.5,169.2,111.8,170.4,108.8,172.3z"/>
<path style="fill:#FFFFFF;" d="M199.6,80.5c-1.9,0.4-4.8-2.6-7.6-3C194,77,197.9,79,199.6,80.5z"/>
<path style="fill:#FFFFFF;" d="M152.9,75.4c5.6-0.7,14.8,2.1,18.3,3.6C164.9,78,159.6,76,152.9,75.4z"/>
<path style="fill:#FFFFFF;" d="M130.6,79c1.5,1.4,5.2,0.6,6.6,2c-2.8,0.3-7.5-1.9-12.2-1.5c-1.6-0.6,1.4-0.6,2-0.5
	c-0.2-0.7-1.3-0.4-2-0.5c3.8-1.4,12.8,0.7,17.8,1.5C139.5,80.8,134.7,78.9,130.6,79z"/>
<path style="fill:#FFFFFF;" d="M146.8,76.9c1.9,1.6,5.6,1.5,7.6,3c-5-0.4-11.3-3.9-18.8-3.6c6.3-1.3,14.4,1.1,21.8,2
	C154.3,79.6,150.1,77.4,146.8,76.9z"/>
<path d="M204.7,79.5c-3,0.8-6.1-2.7-9.6-3C196.3,75.4,201.9,78.6,204.7,79.5z"/>
<path d="M189.5,100.3c-3.1-8.9-7.4-9.6-13.7-13.2c2.8-0.7,6,2.4,8.6,3.6c-2-3.7-10.3-5.6-16.2-7.1c3.1-1.6,7.3,2.8,10.1,1.5
	c0.6,0.1,0.3,0.5,0,0.5C185.2,86,197,92.7,189.5,100.3z M180.8,87.1c1.5,0.3,3.4,2.7,4.6,1.5C183.9,88.3,182,85.9,180.8,87.1z"/>
<path d="M194.5,90.6c-0.1-0.6,0.1-0.9,0.5-1c-0.9-0.7-2.6-0.2-2-1.5c-0.9-0.1-1.1,0.6-2,0.5c0.2-2.5-4.2-2.8-7.1-3.6
	c8.4-0.5,17,6,16.2,14.7c-2.9-5.2-6.8-9.4-12.7-11.7C189.5,87.2,192.2,90.1,194.5,90.6z"/>
<path d="M151.4,86.1c1.4-1.6,3.1,0.9,5.1,0.5C155.3,87.9,153.3,85.7,151.4,86.1z"/>
<path d="M161,86.6c4.1-0.5,11.4,4.5,16.7,6.1c-2.9-2.7-7.3-3.8-11.2-5.6c-0.9,0.1-1-0.5-0.5-0.5c6.1,1.8,12.2,3.7,16.2,7.6h2
	c0.5,1.9,1.9,2.9,2,5.1c-1.1,0.8-1.5,2.2-3.6,2c2.6-1.3,0-3.2-0.5-5.6c-2.1,1.1,1.9,4.1-0.5,6.1c-1.5-4.6-4.6-7.6-9.1-9.1
	c0.3-1.5,1.1,0.5,2,0c-0.7-1.3-1.7-0.9-3-0.5C171.3,89.1,164.6,88.2,161,86.6z"/>
<path d="M162.6,88.6c0-0.5-0.6-0.4-1-0.5c-0.9-1.3,2.5,0.5,3.6,0.5c-0.1,0.9-0.9,1.2-2,1c0-0.5,0.6-0.4,1-0.5
	c-0.1-0.6-1.5-0.7-1.5,0C162,89,162.3,88.6,162.6,88.6z"/>
<path d="M164.6,90.1c1.6-2.5,4.6,1.1,7.1,1c-1.4,1.4-3.2-1.2-5.1-1c3.5,4.1,10.7,4.6,11.2,11.7c-2.1,0.5-3,2.1-5.1,2.5
	c1.2-2.2-1.2-3.3-1.5-5.6c-0.7,0.9,0,3.8-2,4.6c-2.8-3.6-5.8-7.1-10.1-9.1c1.3-0.8,3.4,2,5.1,2.5c0.9-0.8-1.8-2.2-3-2.5
	c1.7-0.2,6,1.4,7.6,3c2-0.2-0.4-1.6,1-2c-1.7-1.3-3.8-2.3-6.1-3c1.6-1.1,3.7,1.7,6.1,1.5c-3.1-2.5-8.4-2.7-11.2-5.6
	c2.6,1.3,5.7,2.1,8.1,3.6C165.9,90.8,167.2,89,164.6,90.1z"/>
<path d="M164.6,94.2c-2.3-0.1-5.8-3.3-9.1-4.1C156.5,89.6,162.7,92.3,164.6,94.2z"/>
<path d="M171.2,86.6c1.1-0.9,6.2,2.5,9.1,3C177.6,90.3,174.3,87.2,171.2,86.6z"/>
<path d="M164.6,105.3c-1.6-0.3-0.8-2.9-1.5-4.1c-1.4-0.3-1,1-1.5,1.5c-1.1-0.4-1.3-1.8-2-2.5c-5.2,1.6-9.3-6.1-15.2-7.1
	c2.8-0.4,6.7,2.4,10.1,3c1-0.5-1.5-1.8-2.5-2c1.9-1.1,3.9,2.6,5.6,2c-4.2-3.6-10.3-5.2-15.7-7.6c2.9-0.6,8.6,4.5,14.2,4.6
	C159,96.8,166,98.9,164.6,105.3z"/>
<path d="M152.9,101.3c-2.9-2.7-6.3-4.9-10.1-6.6c4-0.1,8.7,3.5,12.2,5.6c-1.8,3.3,1.3,5.6,2,8.1c-4.2-6.6-10.8-10.8-18.3-14.2
	C143.7,94.3,148.1,99.3,152.9,101.3z"/>
<path d="M158.5,102.3c0.5-0.8,2.6,1.1,2,3C159.4,104.8,159.6,102.9,158.5,102.3z"/>
<path d="M225.5,104.3c-1,3.9-0.2,9.6-1,13.7C224.9,116.6,221.9,105.2,225.5,104.3z"/>
<path d="M220.4,109.9c-0.2-1-1.4,0.8-1-1.5c-4.2,5-2.9,12.7-3,21.3c-1.8-4.2-0.2-9.9-2-13.7c-2.2-0.3-1.4,2.4-1.5,4.1
	c-1.3-1.9,0.7-8.5-2-10.7c-2.1-0.6,0.1,3.1-2.5,2c0.1,9.3,1.4,18,0.5,24.4c0-8.4-2.8-17.9-2-23.8c-0.2-1.2-2.4-0.3-2-2
	c5.3-2.1,10.7-2.4,16.7-4.6c2.8,3.4,1.1,9.9,0.5,15.2c-2.2-2.3,0.4-7.8-0.5-12.2c-0.5,4.2-1.5,10.1-0.5,14.2v8.1
	c-1.2-1.4-0.2-4.9-0.5-7.1C219.1,119.3,220.8,114.9,220.4,109.9z M216.4,108.4c-1.5,0-2,1.1-3,1.5c0,3.4,0.5,6.3,2.5,7.6
	C216.8,114.2,216.7,112.3,216.4,108.4z"/>
<path d="M212.8,121.1c-0.4,2.6-0.4,7.8,0,12.2c-2.9-3,1.4-13.3-3.6-14.2c-0.3-2.6,2.4-2.4,2-5.1
	C212.8,115.9,210.3,121.6,212.8,121.1z"/>
<path d="M195.6,122.1c0.7-1.6,0.7,2.5,0,2.5c1.3,4.6,1.3,10.5,1.5,16.2c0.4,1.2-0.7,2.3-0.5,0.5c0-0.8,0-1.7,0-2.5
	c-1.1-3.5,0-9.1-1-12.7c-0.7-0.2-1.3-0.2-1-2.5C195.6,124.7,195.6,123.5,195.6,122.1z"/>
<path d="M185.9,126.1c0.6,6,1.1,15.4,1,21.8C186.1,144.4,185.3,133.5,185.9,126.1z"/>
<path d="M154.5,140.9c0-3.7-0.3-7.8,1-10.1c0.1-1-0.3-5,0.5-3.6c0.6,5.5-1.6,8.2-1,13.7C154.4,141.8,152.3,140.9,154.5,140.9z"/>
<path style="fill:#FFFFFF;" d="M90,139.8c-0.1-2.6-0.5-4.9-2-6.1c11.3,2.8,22.9,9.5,34.5,13.7C111.6,147,102.4,140.5,90,139.8z"/>
<path style="fill:#FFFFFF;" d="M33.2,135.8c1.5,0.3-0.8,0.8-0.5,1.5c12.6-1.2,26.5,0.1,40.6-1c-10.7,3.3-28.8,2.6-41.1,2
	C31,137.9,33,136.5,33.2,135.8z"/>
<path d="M163.6,136.8c1-0.9,1.4,8.7,0.5,5.6C163.9,141.6,164,139.3,163.6,136.8z"/>
<path style="fill:#FFFFFF;" d="M30.1,143.4c3.4-3,9.4-1.3,14.7-1.5c5.4-0.2,10.5-0.3,16.2-0.5C57.1,145.7,41.3,142.3,30.1,143.4z"/>
<path style="fill:#FFFFFF;" d="M195,151c-1.3,0.9-2.9,1.5-5.1,1.5C191.4,151.8,193.1,151.3,195,151z"/>
<path style="fill:#FFFFFF;" d="M245.3,152.5c-13.9-0.8-31.4,2-48.7,1c5.7-2,12.9-1.1,20.3-1.5c8.7-0.5,20-1.6,31-1
	c-8.9,7-28.2,3.6-43.1,4.6c11.4,1.3,24.2,1.1,35.5,0c-1.8,2.1-5.2,2.4-8.1,2.5c-11,0.3-25.5-0.8-37.5,0c13.6,1.3,27-0.4,39.6,0
	c-8.1,3.9-29.1,0.7-40.1,2.5c11.6,1.1,21.6-0.6,33,0.5c-7.4,3-22.3,0.9-33,2c8.7,1,16.8,0,26.4,0.5c-6.7,2.7-18.2,0.8-26.4,2
	c5.8,0.6,14.5-0.4,21.8,0c-5.7,2.2-14.4,1.5-21.8,2c4.4,1.6,9.5-0.6,14.7,0c-3.4,3.4-17.5-1.5-14.7,7.6c-2.2-2.5,2.1-16-2.5-17.8
	c1.5-0.9,7.4-1.2,11.7-1c-4.4-1.8-11.2,0.9-15.2-0.5c2.1-1,5.8-0.3,7.1-2C212,155.4,227.4,153.5,245.3,152.5z"/>
<path style="fill:#FFFFFF;" d="M141.8,160.1v-4.6c4.7,1.7,8.8,4,13.7,5.6c-1.5,1.1-2.4-0.1-4.6,0.5c-1.6-0.6,1.4-0.6,2-0.5
	C149.5,160.6,143.9,157.3,141.8,160.1z"/>
<path style="fill:#FFFFFF;" d="M125.5,166.2c0.9,0.8-1.8,2.2-3,2.5C122.4,166.9,125,167.6,125.5,166.2z"/>
<path style="fill:#FFFFFF;" d="M145.3,163.2c-0.2,1.1-2.5,0.2-3.6,0.5c6.9,1,11.7,1.2,19.3,1c-0.7-1.2-3.5-0.2-5.1-0.5
	c4-2.5,7.3,0.9,11.2,1.5c-9.1,0.6-20.8,0-29.9,0.5c10.8,1.9,26.9-1.5,36,2c-12.7,1.2-27.6,0.2-41.1,0.5
	C136.6,167,140.4,161.4,145.3,163.2z"/>
<path style="fill:#FFFFFF;" d="M118.4,167.2c-0.8,2-5.3,4.8-9.6,5.1C111.8,170.4,115.5,169.2,118.4,167.2z"/>
<path style="fill:#FFFFFF;" d="M178.3,170.3c-17.2,1.8-33.5,0.3-51.2,0.5c18.6,2.3,37-0.8,55.8,1.5c-14.7,2-32.9,0.6-49.2,1
	c8.1,1.2,18.4,0.2,27.4,0.5c-6.1,1.3-23.6,1.9-33,1.5c-5.3-0.2-10.5-1.4-9.6,4.1c-0.1-2,0-3.7,0.5-5.1c2.9-1.7,8.3-0.8,12.7-1
	c-1.9-1.2-5.9-0.2-8.6-0.5c1.9-1.5,4.6-2.2,6.6-3.6C145.6,169.9,164,168,178.3,170.3z"/>
<path d="M156,110.4c-2.9,0.4-4.6-4-6.6-6.1c-4.8,0.6-6-4.9-9.6-6.6c-2.9-1.3-7.3-1.5-10.7-2.5c-3.6-1.1-6.7-2.3-10.7-2.5
	C134.7,92.8,151.2,97.1,156,110.4z"/>
<path d="M27.6,119c0.9,5.4,7.5,14.7,12.2,7.1c0.9,5.2,10.5,7.8,10.7,1.5c4.4,7.7,12-1.2,10.1-7.6c1.2,1.4,0.2,4.9,0.5,7.1
	c4.2,0.2,8.9-1,12.2,0c-5.3,2.8-12.5,1.7-16.7,6.1c8.7,1.3,16.9-0.9,25.4-0.5c1.2,0.3,3.7-0.6,4.1,0.5h-4.6
	c-13.8,0.9-27.6,1.8-42.6,1.5c0.4-1.7,2.5-0.6,5.1-1c-2.4-0.6-4-2.1-5.6-3.6c-1.8,0.5-3.1,1.6-5.1,2C28.1,131,27.6,125.3,27.6,119z
	 M47.4,134.3c1.4-1.3,4.5-0.1,6.1,0C52.8,130.9,47,132.1,47.4,134.3z"/>
<path d="M166.6,121.1c1.6-0.2,2,0.7,3,1c-0.5,3.4-0.3,8-0.5,14.2c-0.1,1.9-0.1,7.2-0.5,2.5v-5.1c-0.8-2.3,0.2-3.7-0.5-5.6
	C166.6,125.9,166.4,123.2,166.6,121.1z"/>
<path d="M173.7,132.2c-2,2.3-0.7-6.3-0.5-8.1c-0.5,0.4-0.8,0.9-1,1.5c-1.3-1.3-0.4-4.8,2-4.1c1.4,6.3-0.7,13.9,0,19.3
	C172.1,139.9,173.4,134.1,173.7,132.2z"/>
<path d="M162.1,124.6c2.2,1.1,0.7,6.6,0.5,8.6C161.3,131.6,161.1,126.8,162.1,124.6z"/>
<path style="fill:#FFFFFF;" d="M245.3,132.7c-0.6,2-4.4,0.6-6.6,1c3.4,1.2,9.4-0.3,11.7,2c-6,0-13.9,0.4-21.3,0.5
	c0.9-1.5,0.8-1.6,0.5-3.6C235.3,132.8,240.9,131.2,245.3,132.7z"/>
</svg>
