<?xml version="1.0" encoding="utf-8"?>
<!-- Generator: Adobe Illustrator 17.0.0, SVG Export Plug-In . SVG Version: 6.00 Build 0)  -->
<!DOCTYPE svg PUBLIC "-//W3C//DTD SVG 1.1//EN" "http://www.w3.org/Graphics/SVG/1.1/DTD/svg11.dtd" [
	<!ENTITY ns_flows "http://ns.adobe.com/Flows/1.0/">
	<!ENTITY ns_extend "http://ns.adobe.com/Extensibility/1.0/">
	<!ENTITY ns_ai "http://ns.adobe.com/AdobeIllustrator/10.0/">
	<!ENTITY ns_graphs "http://ns.adobe.com/Graphs/1.0/">
]>
<svg version="1.1" id="Layer_1" xmlns:x="&ns_extend;" xmlns:i="&ns_ai;" xmlns:graph="&ns_graphs;"
	 xmlns="http://www.w3.org/2000/svg" xmlns:xlink="http://www.w3.org/1999/xlink" xmlns:a="http://ns.adobe.com/AdobeSVGViewerExtensions/3.0/"
	 x="0px" y="0px" width="256px" height="256px" viewBox="0 0 256 256" style="enable-background:new 0 0 256 256;"
	 xml:space="preserve">
<path d="M154,62.1c0.7,0.4,1.5,0.8,1.4,1.9C154.3,65.1,153.1,63.5,154,62.1z"/>
<path d="M158.1,63.6c0.7,0,0.9,0.6,1.2,1c-0.1,0.9-0.6,1.3-1.7,1.2c-0.3-0.3-0.3-0.9-0.2-1.4C158,64.4,158.3,64.2,158.1,63.6
	L158.1,63.6z"/>
<path d="M168.2,63.6h1.4c0.4,0.8,0.2,1.6-0.5,1.9c-0.8-0.3-0.5-0.3-1.2-0.5C167.8,64.3,168.2,64.1,168.2,63.6z"/>
<path d="M164.6,64.3c0.3,1.8-0.8,1.7-2.2,1.4C162.3,63.6,163.2,64.2,164.6,64.3z"/>
<path d="M132.9,66c-0.3,0.3-1,0.2-1.7,0.2C130,64.1,133.2,63.7,132.9,66z"/>
<path d="M124,64.5c1.4,0,2.4,0.3,2.4,1.7c-0.3,0.4-1.2,0.2-1.9,0.2C124.6,65.5,123.6,65.7,124,64.5z"/>
<path d="M122,64.8c1.1-0.1,1.2,0.7,1.2,1.7c-0.4-0.1-0.5,0.2-0.5,0.5c-0.5,0.3-0.9-0.6-1,0c-0.3-0.2-0.4-0.5-0.5-1
	C121.1,65.1,122.3,65.7,122,64.8z"/>
<path d="M129.3,65c-0.2,0.7,0.3,0.6,0.2,1.2c-0.4,0.4-1.4,0.2-2.2,0.2c0.2-0.7-0.3-0.6-0.2-1.2C127.7,64.8,128.5,64.6,129.3,65z"/>
<path d="M118,65c0.9-0.1,0.5,1.1,1.7,0.7c0.3,1-0.5,0.8-0.5,1.4c-0.9-0.2-2-0.3-1.9-1.9C117.6,65.3,117.9,65.3,118,65z"/>
<path d="M113.9,65.5h1c0.3,0.2,0.1,0.9,0.7,0.7c0.3,0.9-0.6,0.7-0.5,1.4C114.6,67.1,112.8,66.9,113.9,65.5z"/>
<path d="M155.5,65.5c0.9,0.1,1.4,0.6,1.4,1.4c-0.5,0.1-0.9,0.4-1,1c-1,0-1.3-0.8-1.2-1.9C155.1,65.4,155.5,66.4,155.5,65.5z"/>
<path d="M166.5,65.7c0.1,0.5,0.6,0.7,0.5,1.4c-0.9,0.3-0.8,0.9-1.9,0.5C165,66.4,165.3,65.6,166.5,65.7z"/>
<path d="M181.2,65.7c1,0.1,1.4,1.1,1,1.9c-1.3,0.2-1.9-0.2-1.7-1.4C181,66.3,181.2,66.2,181.2,65.7L181.2,65.7z"/>
<path d="M159.6,66.2h1.9c0,0.6,0.4,0.7,0.2,1.4c-0.6,0.1-1.1,0.3-1.9,0.2C159.9,67.1,159.6,66.8,159.6,66.2z"/>
<path d="M108.6,67.4c-0.2,0.8-0.6,1.3-1.7,1.2c-0.1-0.4-0.4-0.6-0.5-1C106.8,66.3,107.9,66.3,108.6,67.4z"/>
<path d="M133.8,69.1c-0.8,0.2-0.9-0.4-1.7-0.2C130.8,66.1,135,66.9,133.8,69.1z"/>
<path d="M140.1,66.9c0.3,0.4,1.2-0.4,1.7,0.2c0.1,0.8-0.1,1.2-0.5,1.4C140.1,68.5,139.8,68,140.1,66.9L140.1,66.9z"/>
<path d="M170.1,66.9h1.4c0.1,0.9,0,1.6-0.7,1.7C169.9,68.6,169.8,67.7,170.1,66.9L170.1,66.9z"/>
<path d="M174.9,66.9h1.4c0.1,1.1-0.1,1.8-1,1.9C174.8,68.7,174.9,67.8,174.9,66.9z"/>
<path d="M135.5,67.2h1.9c0.4,0.8,0.1,1.3-0.2,1.9c-0.7,0-0.7-0.8-1.7-0.5C135.5,67.7,135.2,67.9,135.5,67.2z"/>
<path d="M123.7,67.6c1.1-0.2,1.1,0.9,1.7,1.2c0,0.8-0.8,0-0.7,1.2c-1.1,0-1.4-0.7-1.9-1.2C123,67.9,123.6,68.3,123.7,67.6z"/>
<path d="M185.5,67.6c0.8,0.1,1,0.7,1.2,1.4c-0.3,0.1-0.6,0.4-0.7,0.7c-0.5-0.1-0.8-0.5-1.2-0.7C184.8,68.4,185.3,68.2,185.5,67.6z"
	/>
<path d="M130,68.4c0,1.2-0.8,1.6-2.2,1.4c0.1-0.8-0.7-0.5-0.5-1.4C128.1,67.6,129.1,68,130,68.4z"/>
<path d="M120.8,68.4c0.1,0.6,0.7,0.7,0.7,1.4c-0.2,0-0.2,0.3-0.2,0.5c-1.3,0.1-1-0.5-2.6-0.5c0.2-0.3,0.3-0.6,0.2-1.2
	C119.7,68.7,119.9,68.2,120.8,68.4z"/>
<path d="M162.4,68.4c0.7-0.2,0.7,0.4,1.4,0.2c0.2,0.9-0.2,1.3-0.5,1.7c-0.7-0.1-0.6-0.2-1.4-0.5C162,69.2,162.2,68.8,162.4,68.4
	L162.4,68.4z"/>
<path d="M114.3,69.1c1.1,0.1,1.7,0.5,1.7,1.7c-1.4,0.2-1.1,0-1.9-0.2C113.8,69.8,114,69.7,114.3,69.1z"/>
<path d="M168.4,70.1c-0.3,0.7-0.7,1.4-1.9,1.2C164.9,69.7,167.8,68.2,168.4,70.1z"/>
<path d="M160,70.1v1.2c-0.8,0-1.8,0.6-2.4,0v-1.2C158.5,69.7,159.1,69.5,160,70.1z"/>
<path d="M174.2,70.1c0,1-0.9,1.4-1.2,1.4c-0.5-0.3-0.6-0.8-1-1.2C172.5,69.3,173.5,69.6,174.2,70.1z"/>
<path d="M177.8,69.6c0.3,0.3,1.1,0.1,1.4,0.5v1.2c-0.6,0.1-0.9,0.4-1.7,0.2C177.3,70.8,177.3,70,177.8,69.6z"/>
<path d="M134.8,69.8c0.2,0.2,0.7,0.4,0.7,0c0.6,0.2,0.2,1.3,1.2,1c0.1,1.6-1.6,1.2-2.2,0.5C134.4,70.5,135,70.5,134.8,69.8z"/>
<path d="M143.4,69.8c0.8,0.2,1.5,0.5,1.4,1.7h-1.7C143.2,70.4,142.8,70.4,143.4,69.8z"/>
<path d="M112.4,70.5c0.1,1.3-1.6,1.4-2.2,1.4c-0.4-0.3-0.6-0.8-0.7-1.4C110.3,69.7,111.6,70.1,112.4,70.5z"/>
<path d="M138.6,70.1c1-0.3,1.1,0.4,1.7,0.5c0,0.7-0.2,1.2-0.7,1.4C138.7,71.8,138.3,70.8,138.6,70.1z"/>
<path d="M209.1,70.1c0.6,0.2,0.7,1.7,0.2,2.2C208.8,72,209.2,70.7,209.1,70.1z"/>
<path d="M108.1,71.3c-0.1,0.5-0.7,0.5-0.7,1c-1.2,0.2-1.7-0.4-2.2-1C105.5,70,107.8,70,108.1,71.3z"/>
<path d="M126.1,70.8c0.5,0.4,0.3,0,1,0c0.3,0.5,0.5,1.1,1.2,1.2c-0.2,0.2-0.3,0.5-0.2,1c-0.9,0.1-1.6,0-2.2-0.2
	C125.7,71.8,126.2,71.5,126.1,70.8z"/>
<path d="M181.7,70.8h1.4c-0.1,0.4,0.2,0.5,0.5,0.5c-0.3,0.6-0.4,1.4-1.2,1.4C181.6,72.5,181.3,71.5,181.7,70.8z"/>
<path d="M103.3,72.7c-0.9,0.6-1.3,0.2-2.6,0.2C99.5,70.6,103.4,70.5,103.3,72.7z"/>
<path d="M98.5,72c0,0.8,0.6,0.8,0.5,1.7c-0.7-0.2-2.5,0.9-2.4-1.4C97.5,72,97.4,71.7,98.5,72z"/>
<path d="M122.5,71.7c0,0.3,0.4,1.3,0.5,0.7c0.5,0,0.1,0.9,0.2,1.2c-0.9,0.1-1.6,0-2.2-0.2C121,72.3,121.4,71.6,122.5,71.7z"/>
<path d="M170.9,72.2c-0.1,1.1-0.6,1.6-1.9,1.4C168.1,72.1,169.7,71.3,170.9,72.2z"/>
<path d="M187.7,71.7c0.8-0.1,0.5,0.7,1.4,0.5c0,1-0.5,1.6-1.7,1.4C187.4,72.6,187,72.3,187.7,71.7L187.7,71.7z"/>
<path d="M175.7,73.2c-0.1,0.5-0.4,0.9-1,1c-0.8,0.3-0.2-0.8-1-0.5C173.5,72,175.5,71.8,175.7,73.2L175.7,73.2z"/>
<path d="M94.6,72.9c0.6,0.6,0.6,1.5,0,2.2c-1,0-1.4-0.5-2.2-1.2C92.6,72.5,93.3,72.9,94.6,72.9z"/>
<path d="M119.6,73.9c-0.1,0.7-0.9,0.7-1.4,1c-0.4-0.7-1.4-0.7-1.2-1.9C117.9,72.4,119.3,73.1,119.6,73.9z"/>
<path d="M138.6,72.9c1-0.2,0.7,0.9,1.7,0.7c0.2,1-0.7,1-1,1.4c-0.6-0.1-0.4-0.8-1.2-0.7C137.9,73.5,138.7,73.7,138.6,72.9z"/>
<path d="M113.6,74.1c0,1.2-0.8,1.6-2.2,1.4c0.1-0.8-0.4-1-0.2-1.9C112.3,73.6,113,73.4,113.6,74.1z"/>
<path d="M163.6,73.4c0.8,0.1,1.1,0.7,1.9,0.7c0.2,0.7-0.3,0.6-0.2,1.2c-0.5,0.2-0.8-0.7-0.7,0.2c-0.4,0.1-0.6-0.4-0.7,0
	c-0.3-0.4-0.8-0.6-0.7-1.4C163.7,74.3,163.6,73.8,163.6,73.4L163.6,73.4z"/>
<path d="M108.8,75.8c-0.5-0.1-0.8,0-0.7,0.5c-0.4,0.2-0.8-0.7-1,0c-0.4-0.4-0.5-1.1-0.5-1.9C107.9,74.1,109,74.1,108.8,75.8z"/>
<path d="M128.3,74.1c0.7,0.2,1,0.8,1.7,1c0,2.1-2,1.6-2.6,0.2C127.2,74.5,128.3,74.9,128.3,74.1z"/>
<path d="M178.3,74.4c1-0.2,1.3,0.3,1.9,0.5c0,0.9-0.5,1.3-1.2,1.4C178.5,75.7,177.8,75.3,178.3,74.4z"/>
<path d="M102.1,74.6c0.5,0.3,1.1,0.3,1.7,0.5c0.3,1.1-0.4,1.2-0.7,1.7C102,76.6,100.7,75.6,102.1,74.6z"/>
<path d="M98.7,76.5c-0.2,0-0.2,0.3-0.2,0.5h-1.7C95.3,75.2,98.6,74.3,98.7,76.5z"/>
<path d="M123,75.8c0.6,0.2,0.7,0.9,1.4,1c-0.1,0.7-0.9,0.9-1.2,1.4c-0.9-0.2-1.3-0.7-1.2-1.9C122.5,76.2,123.2,76.5,123,75.8z"/>
<path d="M134.1,75.8c1,0.1,1.4,0.7,1.4,1.7c-0.4,0.8-0.9-0.1-1.4,0.5C133.3,77.7,133.5,76.2,134.1,75.8z"/>
<path d="M143.4,75.8h1.2c0.1,0.7,1,0.6,0.7,1.7c-0.4-0.3-0.8-0.2-0.7,0.5c-0.9,0.1-0.6-0.9-1.4-0.7
	C143.2,76.7,143.2,76.1,143.4,75.8z"/>
<path d="M158.4,75.8c0.9-0.2,0.4,1,1.4,0.7c0.3,0.9-0.6,0.7-0.5,1.4c-0.9-0.2-0.9,0-1.4-0.2C157.5,76.9,158.1,76.6,158.4,75.8z"/>
<path d="M185.3,77c0,1-1.3,0.8-2.2,1c0-0.6-0.4-0.7-0.2-1.4C183.5,76.1,185.2,76.2,185.3,77z"/>
<path d="M112.9,78c0.1,1.2-1.5,0.6-2.4,0.7c0.3-0.9-0.6-0.7-0.5-1.4C110.9,76.4,112.2,77.3,112.9,78z"/>
<path d="M129.7,77.3h1.7c-0.1,0.5,0.1,0.8,0.5,0.7c0,0.7-0.6,0.8-0.7,1.4C130.1,79.5,129.1,78.9,129.7,77.3z"/>
<path d="M172.1,77.7c0.5,1-0.1,1.9-1.4,1.7c0.1-0.4-0.2-0.4-0.2-0.7C170.5,78,171,77.6,172.1,77.7z"/>
<path d="M105,78h1.4c0.1,0.8,1,0.8,0.7,1.9C106.3,80.2,104.6,79.6,105,78z"/>
<path d="M100.2,78.9c0.1,1.3-1.1,1.3-2.4,1.2C96.6,78.2,99.4,77.7,100.2,78.9z"/>
<path d="M75.9,79.9c-0.6,0.6-1.8,0.6-2.4,0C73.3,77.7,75.8,78.5,75.9,79.9z"/>
<path d="M118.2,80.2c-1,0.3-1.3,0.1-2.4,0C115.4,77.9,118.5,78.2,118.2,80.2z"/>
<path d="M178.1,79.2c0.2,0.4,0.8,0.5,1.2,0.7c0.1,0.9-0.4,1.1-0.7,1.4c-0.4-0.3-0.5-0.8-1.2-0.7C177.3,79.9,178,79.8,178.1,79.2
	L178.1,79.2z"/>
<path d="M127.3,80.2c-0.5,1.3-1.8,2-2.4,0.5C125.1,78.9,126.4,79.6,127.3,80.2z"/>
<path d="M103.8,80.2v1.4c-0.8,0.4-1.1-0.1-2.2,0C100.8,79.8,102.4,79.7,103.8,80.2z"/>
<path d="M111,79.9c0.9-0.1,1.6,0,2.2,0.2v1.4c-0.8-0.1-0.8,0.4-1.7,0.2c0.1-0.5-0.3-0.5-0.7-0.5C110.6,80.6,111.2,80.6,111,79.9z"/>
<path d="M139.6,80.4c0.5,0.2,0.8,0.6,1.7,0.5c0,0.6,0,1.2-0.2,1.4C139.7,82.5,139.1,81.4,139.6,80.4z"/>
<path d="M68.9,80.9c-0.2,0.7,0.3,0.6,0.2,1.2c-0.4,0.6-1.7,0.6-2.2,0C66.8,80.8,67.9,80.3,68.9,80.9z"/>
<path d="M134.1,80.6c0.7,0.3,1.3,0.8,1.2,1.9c-0.8,0.3-0.7,0-1.4,0.5c0-0.8-0.6-0.8-0.5-1.7C133.6,81.1,134.2,81.3,134.1,80.6z"/>
<path d="M159.8,80.6h1.7c0,0.6,0.4,0.7,0.2,1.4c-0.8,0.4-1.6,0.2-2.2-0.2C159.4,81.2,159.9,81.2,159.8,80.6z"/>
<path d="M77.6,80.9c0.3,0.7,0.3,1.3,0,1.9C75.2,83.4,75.6,80.4,77.6,80.9z"/>
<path d="M209.1,80.9c0.4,0,0.5,1.8-0.2,1.4C209.1,82,209.1,81.5,209.1,80.9z"/>
<path d="M147.1,81.1c0.7,0.3,1.7,0.3,2.2,1c0.1,1-0.7-0.3-0.5,1c-0.7,0-1.6,0.1-1.9-0.2C146.7,82,147,81.7,147.1,81.1z"/>
<path d="M151.4,81.4h1.2V83c-0.7,0.2-0.5,0.2-1.2,0C151.1,82.3,151.4,82.3,151.4,81.4z"/>
<path d="M72.8,82.1c1.3-0.2,2.1,0.1,2.4,1C74.9,84.9,71.7,84,72.8,82.1z"/>
<path d="M66.3,82.3c0,0.6,0.4,0.7,0.2,1.4c-0.6,0.1-0.7,0.8-1.7,0.5C64.2,83,64.3,82,66.3,82.3z"/>
<path d="M100.4,82.3c0.1,0.4,0.1,1,0.5,1.2c-0.2,0.8-1.2,0.8-2.2,0.7C98.1,83.1,98.7,81.9,100.4,82.3z"/>
<path d="M105.5,82.6h1.4c0.2,0.6,0.7,0.9,0.5,1.9h-1.7C105.7,83.4,105.1,83.7,105.5,82.6z"/>
<path d="M116,82.8h1.4c0.2,0.4,0.2,0.9,1,0.7c0.3,0.9-0.6,0.7-0.5,1.4c-1.2-0.5-0.9,0-2.2-0.7C115.6,83.5,116,83.4,116,82.8z"/>
<path d="M69.9,83c0.9-0.1,1.1,0.5,1.7,0.7c-0.1,0.6-0.3,1-0.5,1.4c-0.8,0.1-1-0.5-1.4-0.2C68.8,84.2,69.5,83.8,69.9,83z"/>
<path d="M79.7,83.3c1-0.1,1.2,0.6,2.2,0.5c-0.3,1.9-1.7,1.6-2.9,2.2c-0.1-1.5-0.1-1.4,0.2-2.4C79.5,83.8,79.7,83.7,79.7,83.3z"/>
<path d="M110.3,83.5c0.4,0.5,0.8,0.8,1.2,1.2c-0.1,0.4-0.4,0.6-0.5,1c-1.2-0.1-1.5-0.1-1.7-1.4C109.6,84,110.2,84,110.3,83.5z"/>
<path d="M124,83.5h2.2c0.1,0.5,0.6,0.7,0.5,1.4C125.2,85.8,123.9,85.8,124,83.5z"/>
<path d="M62.7,84c0.8-0.1,0.5,0.7,1.4,0.5c0.1,0.6-0.4,0.5-0.2,1.2c-0.6-0.6-0.6,0.6-1.7,0.2c-0.5-0.5-0.2-1-0.5-1.2
	C61.8,84.2,62.8,84.7,62.7,84z"/>
<path d="M208.8,84.2c0.5-0.1,0.5,0.3,0.5,0.7c-0.2,0-0.2-0.2-0.5-0.2C208.8,84.7,208.8,84.2,208.8,84.2z"/>
<path d="M130.9,84.5c0.7,0,0.5,0.9,1.4,0.7c0.1,1-0.5,1.2-0.7,1.9c-0.7-0.5-0.5-0.1-1.7-0.7v-1.2C130.6,85.3,131,85.1,130.9,84.5z"
	/>
<path d="M157.1,84.5h1.7c-0.2,0.7,0.3,0.6,0.2,1.2c-0.5,0.1-0.6,0.5-1,0.7C157,86.2,156.8,85.5,157.1,84.5z"/>
<path d="M76.8,87.1c-1-0.6-1.2,0.6-2.4-0.5C74.1,84,78.1,85,76.8,87.1z"/>
<path d="M97.5,85c0.7,0.2,0.7,1.1,1.7,1c0.1,0.6-0.4,0.5-0.2,1.2c-0.9-0.2-1.9,0.7-2.4-0.7C96.5,85.6,97.4,85.6,97.5,85z"/>
<path d="M67.7,87.1c-1.2,0.1-2-0.2-1.9-1.4C66.8,84.6,68.3,85.9,67.7,87.1z"/>
<path d="M102.1,85.7c0.9,0.2,1.8,0.5,1.7,1.7c-0.2,0.3-0.9,0.1-0.7,0.7c-1.2,0.3-1.2-0.6-1.9-0.7C101.3,85.6,101.6,86.7,102.1,85.7z
	"/>
<path d="M59,85.9c0.5,0.3,1.3,0.3,1.7,0.7c-0.2,0.7-0.4,1.4-1.2,1.4c0.2-0.8-0.8-0.3-1-0.7v-1.2C58.9,86.4,59.1,86.4,59,85.9z"/>
<path d="M86.5,85.9c0.4,0.7,0.7,1.7,0.2,2.6c-0.4,0.1-0.6-0.4-0.7,0c-0.9-0.9-1.5-1.5-0.5-2.6H86.5z"/>
<path d="M64.3,86.6c1.6,1.7-0.3,2.8-1.7,1.4C62.6,87,63.1,86.4,64.3,86.6z"/>
<path d="M73.2,87.4c0.1,1.2-0.9,1.3-2.2,1.2c0.1-0.8-0.7-0.5-0.5-1.4C71.2,86.5,72.9,86.4,73.2,87.4z"/>
<path d="M80.9,86.6c1,0,1.4,0.4,2.4,1c0.2,0.8-1,0.3-0.7,1.2C80.6,89.1,80.2,88,80.9,86.6z"/>
<path d="M153.3,86.6c2.3-0.1,2.1,3.6-0.5,1.9C152.6,87.5,153.2,87.4,153.3,86.6z"/>
<path d="M55.7,87.6c1.3-0.1,2,0.9,1.4,1.9C56.1,89.6,55,89,55.7,87.6z"/>
<path d="M61.2,88.1c0.8-0.3,0.2,0.8,1,0.5c0.2,1-0.3,1.3-0.5,1.9c-0.9-0.2-0.6,0-1.4-0.2C59.6,88.9,60.7,88.8,61.2,88.1z"/>
<path d="M69.1,88.8c0.2,0.7-0.4,0.7-0.2,1.4h-1.7c0.1-0.8-0.4-0.8-0.2-1.7C67.5,88.8,68.4,87.9,69.1,88.8z"/>
<path d="M64.3,89.5h1.4c0.1,0.6,0.3,1.1,0.2,1.9h-1.7C64.5,90.4,64,90.3,64.3,89.5z"/>
<path d="M53,90c0.6,0.1,0.4,0.8,1.2,0.7c-0.2,0.4-0.4,0.9-0.5,1.4c-1.2,0.2-1.5-0.6-1.4-1.7C52.5,90.3,53,90.3,53,90z"/>
<path d="M74.2,90.2c1.2,1.7-2,2.2-2.4,1.7c-0.6-0.3,0-1.3,0-1.7C73.1,89.6,74.1,90.8,74.2,90.2z"/>
<path d="M59,91.7c-1.1-0.3-0.8,0.8-1.9,0.5c-0.4-0.1,0-1.1-0.5-1.2C57.1,89.8,59.3,90.1,59,91.7z"/>
<path d="M146.6,90.7c0.8,1.9-3,2.1-2.9,0C144.5,90,145.5,90.5,146.6,90.7z"/>
<path d="M81.2,91c0.1,0.9,0.6,1.2,0.2,1.9c-0.8,0.2-2.1-0.3-2.2,0C78,91.6,79.6,90.2,81.2,91z"/>
<path d="M166.8,90.7h2.4v1.4c-1.3,0.4-1.3,0.6-2.4,0V90.7z"/>
<path d="M61.9,91.2c0.4,0.1,0.6,0.4,1,0.5c0.2,0.9-0.3,1.1-0.2,1.9h-1.4c-0.1-0.6-0.3-1.1-0.2-1.9C61.4,91.6,62.2,91.9,61.9,91.2z"
	/>
<path d="M100.2,91.7c0.5,0.4,1.1,0.7,1.7,1v1.2c-0.3-0.4-2.3,0.7-2.2-0.7c-0.2,0-0.2,0.3-0.2,0.5C98.6,92.9,99.8,92.1,100.2,91.7z"
	/>
<path d="M110.3,91.7v1.9c-1.2,0-2.6,0.2-2.6-1C107.7,91.5,109,91.7,110.3,91.7z"/>
<path d="M204.3,91.7c1.4,0,2.2,0.5,2.2,1.9c-0.4-0.1-0.5,0.2-0.5,0.5C204.7,94,203.6,93,204.3,91.7z"/>
<path d="M55,92.2c0.6,0.2,0.8,0.6,1.2,1c-0.1,0.7-0.8,1-1.2,1.4c-0.7-0.2-1.4-0.5-1.2-1.7C54.6,93.1,54.5,92.4,55,92.2z"/>
<path d="M49.4,92.4c0.8-0.1,0.5,0.7,1.4,0.5c0.1,1.1-0.2,1.7-1.4,1.4C49,93.6,48.9,93.1,49.4,92.4z"/>
<path d="M69.1,92.7c0.2,1.4-0.6,1.8-1.9,1.7C66.3,93,67.9,91.7,69.1,92.7z"/>
<path d="M85.7,92.9c0.2,1-0.3,1.3-0.5,1.9c-0.9-0.2-1.3-0.7-1.2-1.9C84.8,92.4,85,92.4,85.7,92.9z"/>
<path d="M156.9,92.7c0.5,0.5,0.8-0.2,1.7,0c0.1,0.3,0.4,0.4,0.5,0.7c0.1,1.1-0.9,1-1.7,1.2c-0.3-0.2-0.1-0.9-0.7-0.7
	C156.5,93.2,157,93.2,156.9,92.7z"/>
<path d="M77.3,93.9c-0.1,0.6-0.3,1-0.5,1.4c-1.6,0.3-2-0.5-2.4-1.4C75.6,93.1,75.9,93.4,77.3,93.9z"/>
<path d="M178.3,95.1c-0.6,0.6-1.1,0-1.2,0.7c-0.8-0.3-0.8-1.4-0.5-2.2C177.8,93.5,178.5,93.8,178.3,95.1z"/>
<path d="M57.6,93.9h1.9c0,0.6,0.4,0.7,0.2,1.4c-0.6,0.6-1.8,0.6-2.4,0C57.2,94.6,57.8,94.6,57.6,93.9z"/>
<path d="M88.4,94.3c0.9,0.1,1.2,0.9,1.2,1.9c-1,0.2-1.4-0.1-2.4-0.2v-1.2C87.3,94.4,88.3,94.8,88.4,94.3z"/>
<path d="M50.9,94.6H53c-0.2,0.7,0.4,0.7,0.2,1.4c-1,0.5-2.2,0.6-2.6-0.5C50.6,95.1,50.9,95,50.9,94.6z"/>
<path d="M65.8,95.1c0.1,0.7-0.5,0.7-0.5,1.4c-0.7,0.3-1.6-0.4-1.7,0c-0.3-0.3-0.5-0.8-0.5-1.4C64,94.7,65,94.3,65.8,95.1z"/>
<path d="M55.7,95.3c2.6,0.7,0.7,3.2-1.2,2.2c-0.1-0.8,0.2-1.1,0.2-1.7C55.1,95.7,55.9,96,55.7,95.3z"/>
<path d="M95.8,95.8c0.2,0.7-0.4,0.7-0.2,1.4c-1.2,0.3-1.3-0.5-2.2-0.5v-1C94,95.6,94.9,94.9,95.8,95.8z"/>
<path d="M72.3,95.8c1.4-0.2,1.6,0.8,2.2,1.4c-0.1,0.5-1.1,0-0.7,1c-0.9,0.1-0.9-0.7-1.7-0.7C72,96.8,71.9,96.1,72.3,95.8z"/>
<path d="M67.2,96c1.2-0.4,1,0.6,1.9,0.5c0.2,0.7-0.2,0.9-0.2,1.4C67.3,98.3,66.7,97.1,67.2,96z"/>
<path d="M48.9,96.7c1.5,0.5,1.6,2.1,0,2.6c-0.5-0.4-0.6-1.2-0.5-2.2C48.9,97.3,48.9,97,48.9,96.7z"/>
<path d="M77.6,96.7c0.5,0.7,1.6,0.8,1.7,1.9c-0.2,0-0.2,0.3-0.2,0.5c-0.6,0-1.4,0.1-1.7-0.2C77.2,98,77.4,97.3,77.6,96.7z"/>
<path d="M150.9,97c0.5,0.2,0.5,0.9,0.5,1.7c-0.6,0.2-1.4,0.3-1.9,0.7c0.1-0.4-0.2-0.5-0.5-0.5C148.7,97.3,150.4,97.1,150.9,97z"/>
<path d="M45.3,97.2h1.4c0.5,0.8-0.1,1.1-0.2,1.9c-0.6,0.3-1.2-0.5-1.2,0C44.8,98.9,45.1,97.5,45.3,97.2z"/>
<path d="M60.2,97.2c0.7,0.2,0.7,1.1,1.2,1.4c-0.1,0.5-0.9,0.2-0.7,1c-0.9-0.6-1.8-0.1-1.7-1.9C59.2,97.3,60.2,97.7,60.2,97.2z"/>
<path d="M160,97.2c0.8,0.3,1.5,0.8,1.4,1.9c-0.4,0.6-1.7,0.3-1.9,0.5C158.8,98.8,159.3,97.8,160,97.2L160,97.2z"/>
<path d="M84.1,98.4c0.2,1.3-1,1.3-2.2,1.2C80.2,98,83.3,96.9,84.1,98.4z"/>
<path d="M206.9,98.9c-0.1,0.6-0.6,0.9-1,1.2c-0.7-0.1-1.2-0.4-1.4-1C204.8,97.6,206.4,98,206.9,98.9z"/>
<path d="M102.8,98.2c0.4,0.6,0.6,1.2,0.2,1.9c-1.2,0.3-1.3-0.5-2.2-0.5C100.9,98.5,101.5,98,102.8,98.2z"/>
<path d="M52.3,98.4c1.3,0,1.2,1.4,1,2.4c-0.3,0.1-1.2-0.3-1.2,0.2c-0.3-0.6-1.2-0.6-1.2-1.4C51.8,99.3,52.1,98.9,52.3,98.4z"/>
<path d="M64.1,98.7c1.3-0.1,2.1,0.1,1.9,1.4c-0.9-0.3-0.5,0.7-1.2,0.5C64.3,100.5,63.6,99.8,64.1,98.7z"/>
<path d="M43.4,99.6c1,0,1.1,0.4,2.2,0.7c-0.4,0.9-0.9,1.7-2.4,1.4C43,100.8,43.4,100.4,43.4,99.6z"/>
<path d="M70.3,99.6h1.2c-0.2,0.8,0.6,0.5,0.7,1c-0.3,1.6-1.4,1.1-2.2,1C69.6,100.7,70.4,100.7,70.3,99.6z"/>
<path d="M86.5,99.6c1,0.1,1.3,0.8,1.9,1.2c-0.1,0.8-1.1,0.6-1.2,1.4c-0.8-0.4-1.8-0.6-1.4-2.2C86.2,100.2,86.5,100.1,86.5,99.6z"/>
<path d="M97.3,100.3c-0.1,0.6-0.3,1-0.5,1.4c-0.7-0.2-0.5-0.2-1.2,0c0-0.7-0.8-0.7-0.5-1.7C95.8,99.5,96.7,100.2,97.3,100.3z"/>
<path d="M56.6,100.1c0.1,0.6,0.7,0.7,0.7,1.4c-1,0.9-2.8,1.1-2.6-1.2C55.3,100.2,55.8,100,56.6,100.1z"/>
<path d="M47.5,100.3c0.5,0.7,0.2,2.2-0.2,2.6c-0.6,0-0.5-0.8-1.2-0.7C45.9,101,46.3,100.2,47.5,100.3z"/>
<path d="M110,100.3c1.2-0.2,1.6,0.3,2.2,0.7c0,1.3-1.7,1.5-2.4,0.7C109.6,101.1,110,100.9,110,100.3z"/>
<path d="M49.2,101.3h0.7c0.6,0.4,0.6,1.7,0.2,2.4h-1.4C48.5,102.5,49,102.1,49.2,101.3z"/>
<path d="M74.9,101.6c1.1,0.2,1.3,0.1,2.2,0.7c0.2,1.9-1.5,1.9-2.4,1C74.5,102.4,75,102.3,74.9,101.6z"/>
<path d="M65.5,102.3h1.2c0.3,0.9,1.1,1.3,0.2,2.2C65.9,104.3,65.3,103.7,65.5,102.3z"/>
<path d="M42,102.5c0.9,0.4,1.5,1.8,0.7,2.6c-0.8-0.1-0.3-0.6-1.2-0.2C40.9,103.9,41.5,103.1,42,102.5z"/>
<path d="M46.1,104c0.1,1-0.1,1.6-0.5,2.2c-0.9,0.1-1.5-0.2-1.9-0.7C43.8,104.2,45,103.5,46.1,104z"/>
<path d="M161.5,103.7c1.4-0.3,1.8,0.5,2.6,0.7c-0.2,0.9-0.7,1.3-1.9,1.2C162,105.1,161.3,105.1,161.5,103.7L161.5,103.7z"/>
<path d="M56.2,104.7h1.4c-0.3,1,0.8,0.5,0.5,1.4c-0.5-0.5-0.6,0.3-1,0.5c-0.4-0.7-1.7-0.4-1.4-1.7C56,105.2,56.2,105.1,56.2,104.7z"
	/>
<path d="M47.5,104.9c0.4,0.1,0.2,0.8,1,0.5c0.1,1.4-0.3,2.2-1.4,2.4C45.9,106.9,47.1,105.7,47.5,104.9z"/>
<path d="M61.7,105.9c0.2,1.3-0.2,1.9-1.4,1.7c0.1-0.6-1-1.2-0.2-1.7C60.4,105.5,60.8,106.1,61.7,105.9z"/>
<path d="M64.8,106.4c0,0.8,0.5,1.1,0.5,1.9c-0.5-0.1-0.8,0-0.7,0.5c-0.6,0.3-0.6-1.2-0.7,0c-0.7-0.2-0.6-1.2-0.7-1.9
	C64.1,107.1,63.7,106,64.8,106.4z"/>
<path d="M49.7,106.8c1.1,0,1.2,0.8,1.4,1.7c-0.7,0.1-0.7,0.9-1.2,1.2C48.6,109.4,48.9,107.6,49.7,106.8z"/>
<path d="M71.6,107.3c-0.1,1.5-0.8,1.8-2.2,1.4C68.5,106.8,70.5,106.5,71.6,107.3z"/>
<path d="M79,107.6c0.7,0.1,1.1,0.5,1.7,0.7c0.2,1.8-1.4,1.1-1.7,1.4c-0.6-0.2-0.8-0.8-0.7-1.7C78.8,108.1,79,108,79,107.6z"/>
<path d="M89.1,108.8c-0.1,1.7-2.3,0.6-2.6,0.5V108C87.8,107.5,88.4,107.6,89.1,108.8z"/>
<path d="M54.5,109.2c1.1-0.3,0.9,0.7,1.9,0.5v1c-0.7,0-1.1,0.9-2.2,0.5C54.1,110.3,54.3,109.8,54.5,109.2z"/>
<path d="M62.2,110.9c1,0,1.9,0,1.9,1c-0.4,0.9-1.5,1.1-2.2,0.5C61.8,111.6,62.2,111.5,62.2,110.9z"/>
<path d="M67.7,111.9c1.1,0,1.5,0.7,1.7,1.7c-1.1,0.6-1.1,0.6-2.2,0C66.9,112.6,67.6,112.5,67.7,111.9z"/>
<path d="M57.4,114.5c0.9-0.2,1,0.4,1.9,0.2v1.4c-1.3,0.2-0.9,0.2-2.2,0C57.1,115.6,57,114.8,57.4,114.5z"/>
<path d="M241.3,115.3c1.1-0.3,1.2,1.5,0.5,1.7C241.3,116.7,241.3,116,241.3,115.3z"/>
<path d="M66.3,116.2c0.7,0.1,1,0.6,1.7,0.7c0,0.8-0.3,1.3-1,1.4C66,118,65.6,117.1,66.3,116.2z"/>
<path d="M79.2,117.7c0.5,0.6,0.9-0.2,1.9,0.5c0.1,1.5-0.8,2.1-1.9,1.7C78.8,119,78.8,118.4,79.2,117.7z"/>
<path d="M61.9,118.1c0.8,0,1,0.6,1.4,1c-0.1,0.7-0.8,0.8-1,1.4c-0.7-0.1-1.2-0.4-1.4-1C60.9,118.8,62,119,61.9,118.1z"/>
<path d="M86.7,119.8h1.4c0,0.7,0.4,1,0.5,1.7c-0.7,0.9-2.1,0.4-2.6-0.2C86.1,120.7,86.9,120.8,86.7,119.8z"/>
<path d="M67.7,122c0.1,1.1,0.9,0.7,0.5,1.9c-0.8-0.1-0.8,0.4-1.7,0.2c-0.4-0.1,0-1.1-0.5-1.2C66.5,122.5,66.7,121.8,67.7,122z"/>
<path d="M76.6,124.9v1.2c-0.3-0.3-0.5-0.2-0.5,0.2c-0.6,0.3-1.4-0.5-1.4,0c-0.3-0.2-0.3-0.8-0.7-1C74.4,124,75.5,124.1,76.6,124.9z"
	/>
<path d="M219.9,125.1c0.7,0,0.5,0.8,1.4,0.5v1.4c-0.5,0.1-1.5-0.3-1.2,0.5c-0.5-0.3-0.5-0.9-1-1.2
	C219.5,125.9,220,125.8,219.9,125.1z"/>
<path d="M82.6,128.5c0.7,0.3,0.9-0.1,1.9,0c0.2,0.9,0.3,1.5-0.2,2.2C82.6,130.8,82.2,130.1,82.6,128.5z"/>
<path d="M67.7,128.7c0.2,0.8,0.8,1.5,0.2,2.4c-0.6-0.1-0.9-0.3-1.7-0.7C66.1,129.2,66.4,128.4,67.7,128.7z"/>
<path d="M231,130.4c0.7-0.3,1,1,1.2,0.5c0.6,0.4-0.5,1.3-0.7,1.7c-0.8,0.3-0.2-0.8-1-0.5C230.3,131.2,230.6,130.8,231,130.4
	L231,130.4z"/>
<path d="M212.7,131.1c0.4,0.8,0,1.6-0.5,2.2C210.5,133.2,210.4,130.7,212.7,131.1z"/>
<path d="M219.2,132.1c0.7,0.8,0.3,1.3,0,2.2c-0.9,0-0.7-0.3-1.4,0c-0.2-0.5-0.6-0.8-0.5-1.7C218,132.8,218.2,131.9,219.2,132.1
	L219.2,132.1z"/>
<path d="M228.6,134.3c1.2-0.3,1.3,0.7,1.7,1.2c-0.3,0.5-0.9,0.9-1.9,0.7C228,135.1,228.3,135.2,228.6,134.3z"/>
<path d="M75.2,134.7c2.6-1,2.1,4-0.5,1.9C74.6,135.8,74.4,135.2,75.2,134.7z"/>
<path d="M222.1,135.5c-0.1,0.8,0.7,0.5,0.5,1.4c-0.7,1.2-1.3,0.1-2.2,0.5C219.9,136.1,220.4,135.1,222.1,135.5L222.1,135.5z"/>
<path d="M202.1,135.7c0.9,0.5,1.1-0.2,2.2,0.2C204.4,138.5,201.3,137.7,202.1,135.7z"/>
<path d="M207.6,137.4c0.3,0.1,0.4,0.4,0.7,0.5c0.1,0.9-0.3,1.2-0.5,1.7c-0.6-0.2-0.5-0.1-1.4-0.2C205.8,138,206.9,138,207.6,137.4z"
	/>
<path d="M84.3,138.6c0.1,0.6-0.4,0.5-0.2,1.2c-1,0.7-2.4-0.8-2.6-0.7C80.8,137.5,83.5,137.4,84.3,138.6z"/>
<path d="M72,137.9h1c0.2,0.6,0.6,1,1.2,1.2c0.1,0.8-0.7,0.5-0.5,1.4C72,140.4,71.3,139.8,72,137.9z"/>
<path d="M213.9,137.9c0.3,1-0.1,1.5-0.7,2.2c-0.9-0.4-1.3-0.9-1-1.9C212.8,138,213.1,137.7,213.9,137.9z"/>
<path d="M92.2,138.3c0.6-0.1,0.2,0.9,1,0.7c0,0.7-0.3,1.1-0.5,1.7c-1.2,0-1.3-0.1-1.9-1C90.9,139,91.8,138.9,92.2,138.3z"/>
<path d="M227.1,139.3c-0.7,0.6-1.7,1.4-2.2,1.4C222.6,139.5,226.5,136.8,227.1,139.3z"/>
<path d="M111,139.3c0.2,0.4,0,1.3,0.7,1.2c0,0.8-0.9,0.7-1,1.4c-0.7-0.3-0.9-1-1.7-1.2C109.4,140,109.9,139.4,111,139.3z"/>
<path d="M218.2,139.3c0.7-0.1,0.8,0.5,1.2,0.7c0.1,0.8-0.3,0.9-0.5,1.4c-0.3-0.3-0.5-1.3-0.5,0c-0.9,0.1-0.6-1-1.2-1.2
	C217.6,139.5,218.2,140,218.2,139.3z"/>
<path d="M198,139.8c0.7-0.2,0.6,0.3,1.2,0.2c0.3,1.1-0.4,1.2-0.5,1.9c-0.7,0-1-0.4-1.2-1C197.4,140.2,198.4,140.7,198,139.8z"/>
<path d="M202.4,140c0.8,0.1,0.4,0.7,1,0c0.7,0.2,1.2,0.7,1.2,1.7c-1,0.4-1.1,0.8-2.4,0.5C201.8,141.1,202,140.8,202.4,140z"/>
<path d="M187,141c1-0.2,1.5,0.3,1.9,0.7c0.1,1.1-0.6,1.3-1.7,1.2C186.8,142.3,186.6,141.7,187,141z"/>
<path d="M215.8,142.7c0.2,0.7-0.2,0.9-0.2,1.4h-1.7c-0.2-0.5-0.4-0.9-0.5-1.4C214,142.1,215.2,142.1,215.8,142.7L215.8,142.7z"/>
<path d="M220.1,142.2c0.8,0.1,1.9-0.2,2.4,0.2c0.2,1.1-0.7,1.1-1,1.7C220.2,144.2,219.7,143.3,220.1,142.2z"/>
<path d="M209.1,143.6v1.2c-1.2,0.3-1.8,0.6-2.6-0.2C206.3,142.2,207.8,143.3,209.1,143.6z"/>
<path d="M193.2,143.4h1.7c0.5,1.2-0.5,1.1-1,1.9C193.2,145.1,193.1,144.4,193.2,143.4z"/>
<path d="M74.4,143.9c0.4,0.2,0.6,0.7,1.4,0.5c-0.2,0.9,0.3,1.1,0.2,1.9c-1.1,0.1-1.4,0.3-2.4,0C73.6,145.1,74,144.5,74.4,143.9z"/>
<path d="M88.9,146.3c-0.7,0.3-1.7,0.3-2.6,0.2C85.4,144,88.8,143.7,88.9,146.3z"/>
<path d="M181.4,144.4c0.1,0.5,0.5,0.6,0.5,1.2c-1.1,0.6-1.2,0.9-2.2,0.2C179.7,144.7,180.2,144.1,181.4,144.4L181.4,144.4z"/>
<path d="M204,144.6c0.4,0.2-0.1,1.2,0.7,1c-0.1,0.4-0.4,0.6-0.5,1c-0.6,0.3-1.2-0.5-1.2,0c-0.2-0.5-0.8-0.6-0.7-1.4
	C203.4,145.4,203.1,144.4,204,144.6L204,144.6z"/>
<path d="M211.7,145.3c1.1-0.2,1.1,0.9,1.9,1c-0.1,0.4-0.8,0.2-0.5,1c-0.5,0.1-1.4-0.3-1.2,0.5C211.2,147.1,211.2,146.1,211.7,145.3
	L211.7,145.3z"/>
<path d="M189.1,146c0.1,1.2-0.6,1.6-1.4,1.9c-0.2-0.7-0.9-0.8-0.7-1.9C187.7,145.4,188.2,145.7,189.1,146z"/>
<path d="M118.4,145.8c0.7,0.2,0.5,0.2,1.2,0c0.2,0.2,0.5,1.6,0.7,1c0.8,0.4-0.7,0.4-0.2,1.2h-1.9c0-0.4-0.2-0.6-0.5-0.7
	C117.6,146.4,118.6,146.6,118.4,145.8z"/>
<path d="M172.1,146c0.6,0.1,1.7,0.8,1.9,0.5c1,1.3-1,1.7-2.4,1.4c0.1-0.5-0.1-0.8-0.5-0.7C171,146,172.1,146.8,172.1,146L172.1,146z
	"/>
<path d="M215.1,146.3h2.2c-0.2,1-0.5,1.9-1.4,2.2C215.1,148.1,214.6,147.2,215.1,146.3z"/>
<path d="M142,148c-0.2,0-0.2,0.3-0.2,0.5h-1.9C138.8,146.6,142,145.8,142,148z"/>
<path d="M198.3,146.5c0.3,0.5,0.8,0.8,1.2,1.2c-0.4,0.2-0.5,0.8-1,1c-0.8,0.1-1.2-0.3-1.2-1C197.2,146.9,198.2,147.2,198.3,146.5
	L198.3,146.5z"/>
<path d="M165.6,147.2c0.2,0.4,0.8,0.5,1.2,0.7c0.2,1.1-0.7,1.1-1,1.7c-0.5-0.2-1-0.5-1.4-0.7c-0.1-0.6,0.4-0.5,0.2-1.2
	C165.2,147.3,165.5,148.1,165.6,147.2z"/>
<path d="M111,147.7c-0.1,1.6-0.4,1.5-1.9,1.7c0.1-0.8-0.4-0.8-0.2-1.7C109.6,147.3,110.1,147.6,111,147.7z"/>
<path d="M208.4,148.9c0.1,1.3-1.2,1.2-2.4,1.2C204.5,148.4,207.3,147.6,208.4,148.9z"/>
<path d="M193.5,149.9c-0.2,0.3-0.9,0.1-0.7,0.7c-1-0.3-1.6-0.8-1.2-1.9C192.6,148.3,193.3,148.7,193.5,149.9L193.5,149.9z"/>
<path d="M87.2,149.2h1.4c0.4,0.8,0.8,1.1,0.5,2.2c-1-0.3-1.4,0.2-2.2-0.5C86.7,150,87.3,149.9,87.2,149.2z"/>
<path d="M187.4,149.6c1.1-0.1,1.5,0.6,1.7,1.4c-0.6,0.1-0.7,0.8-1.7,0.5C187,151.1,187.3,150.2,187.4,149.6z"/>
<path d="M147.5,149.9c0.2,0.3,0.2,0.9,1,0.7c-0.5,0.3-1,0.5-0.7,1.4C145.7,152.8,144.7,149.5,147.5,149.9z"/>
<path d="M76.8,150.1c0.6,0,0.3,1,1.2,0.7c-0.1,0.8-0.5,1.3-0.7,1.9c-1.1,0.4-1.3-1.3-1.7-0.7c-0.5,0-0.1-0.9-0.2-1.2
	C76.2,151,76.6,150.6,76.8,150.1z"/>
<path d="M95.4,150.1c0.7,0.2,0.6,1.1,1.4,1.2c-0.1,0.6-0.7,0.7-0.7,1.4c-1.2-0.1-1.1-0.1-1.7-1C94.5,151,94.9,150.5,95.4,150.1z"/>
<path d="M136.5,150.6c2-0.3,2.3,1.6,1.2,2.4c-0.6-0.2-0.9-0.7-1.7-0.7v-1.2C136.4,151.4,136.5,151.3,136.5,150.6z"/>
<path d="M202.8,152.3c-1.1-0.7-0.7,0.9-2.2,0.5c-0.1-0.6-0.3-1.1-0.2-1.9C201.5,150.6,203,150.7,202.8,152.3z"/>
<path d="M80,150.8c0.4,0.4,1.2-0.2,2.2,0c-0.1,0.8,0.7,0.5,0.5,1.4c-0.7,1-2.2,0-2.4,0C79.7,152.3,80.1,151.3,80,150.8z"/>
<path d="M126.4,152.8c-0.3-0.3-0.5-0.2-0.5,0.2c-1.2,0.3-2.1-0.2-2.2-1.7C124.9,151,126.5,151.1,126.4,152.8z"/>
<path d="M154.5,151.1c0.1,0.8,1,0.8,0.7,1.9c-0.4-0.1-0.5,0.2-0.5,0.5c-1.4,0.1-1.8-0.8-1.9-1.9
	C153.7,151.2,153.3,151.1,154.5,151.1z"/>
<path d="M160.8,151.6v1.2c-0.8-0.4-1,0.6-2.4,0.2c0.2-0.7-0.4-0.7-0.2-1.4C159.2,151.2,159.6,151.5,160.8,151.6z"/>
<path d="M174.9,151.6h1.4c-0.1,1,0.4,1.1,0,1.9h-0.7C174.8,153.3,174.5,152.4,174.9,151.6z"/>
<path d="M117.7,152.3c0.1,0.6,0.4,0.9,0.2,1.7c-0.6,0.5-2.3,0.3-2.6-0.2C114.9,152.1,116.4,152.2,117.7,152.3z"/>
<path d="M194.9,152.5c0.5,0.1,0.5,0.7,1,0.7c0.1,0.6-0.4,0.5-0.2,1.2c-1.1,0.2-1.1,0.1-1.9,0.2C193,153.2,194.2,153.2,194.9,152.5z"
	/>
<path d="M5.2,152.8c1.3-0.2,1.2,0.8,1.4,1.7c-0.8,0.5-0.8,0.3-1.7,0.5C4.4,154,5.1,153.7,5.2,152.8z"/>
<path d="M102.6,152.8c0.9-0.1,0.7,1,1.7,1c-0.1,0.6-0.3,1-0.5,1.4c-1-0.1-1.3-0.3-2.4-0.7C101.5,153.6,102.3,153.5,102.6,152.8z"/>
<path d="M179,153h1.9c0,0.4,0.3,0.5,0.2,1C181,155.6,178.4,155,179,153L179,153z"/>
<path d="M168.9,153.7c1-0.1,1.8,0,2.2,0.5c-0.3,0.5-0.7,0.9-1,1.4C169.2,155.5,168.8,154.9,168.9,153.7L168.9,153.7z"/>
<path d="M190.3,154.7c-0.1,1.1-1.9,1.2-2.6,1C186.6,153.9,190,152.8,190.3,154.7z"/>
<path d="M85,154.2c1.1,0.1,1.9,0.4,1.9,1.4c-0.5,0.6-1.5,0.7-1.7,1C84.3,156.2,84.6,154.9,85,154.2z"/>
<path d="M177.6,155.7c-0.2,0.2-0.4,0.4-0.5,0.7h-1.7c0-0.7-0.8-0.7-0.5-1.7C176.5,154.3,177.1,154.1,177.6,155.7L177.6,155.7z"/>
<path d="M145.4,154.4c0.1,0.6,0.3,1.1,0.2,1.9C143.4,157.1,142.9,153.8,145.4,154.4z"/>
<path d="M90.5,154.7c0.8,0.3,1.7,0.4,2.2,1c0.1,0.9-0.7,0.7-0.7,1.4c-0.7,0-0.7-0.8-1.7-0.5C90.2,155.7,89.9,155.2,90.5,154.7z"/>
<path d="M132.4,155.9c-0.2,0.9-0.5,1.6-1.7,1.4c0.2-0.5-0.4-1.3-0.5-0.7c-0.5,0-0.1-0.9-0.2-1.2
	C131.1,155.5,131.2,154.9,132.4,155.9z"/>
<path d="M164.4,157.3c-0.5,0.1-1.7-0.4-1.4,0.5C160.5,155.8,165,153.8,164.4,157.3z"/>
<path d="M7.4,155.7c0.7,0,0.6,0.7,1,1c0.1,1.1-1,1-1.2,1.2c-0.5-0.2-0.7-0.7-0.7-1.4C6.8,155.7,7.3,156.5,7.4,155.7z"/>
<path d="M97.8,157.8c-1,0.5-2.6,0.2-2.2-1.4C96.8,155.5,98.3,156.4,97.8,157.8z"/>
<path d="M169.9,155.9c0.8,0,0.6,1,1.2,1.2c0,0.7-0.9,0.5-0.7,1.4c-0.4,0.1-0.6-0.4-0.7,0c-0.3-0.4-0.5-0.9-1-1.2
	C169.1,156.9,169.5,156.3,169.9,155.9L169.9,155.9z"/>
<path d="M183.6,156.4c0,1.2-0.8,1.6-1.9,1.7C180.2,156.7,182.3,155,183.6,156.4z"/>
<path d="M157.1,157.3c0.2,0.7-0.7,0.5-0.5,1.2c-1.2,0.1-1.4-0.7-1.7-1.9C155.8,155.7,156.9,156.3,157.1,157.3z"/>
<path d="M80.7,156.6c1,0.1,1,1.1,1.9,1.2c-0.2,0.5-0.4,0.9-0.5,1.4c-1.8,0.3-3.1-0.7-2.2-2.2C80,157.1,81.2,157.4,80.7,156.6z"/>
<path d="M112.9,156.6c0,0.4,0.2,0.6,0.5,0.7c-0.1,1.7-3,1.5-3.1,0C110.8,156.8,111.6,156.4,112.9,156.6z"/>
<path d="M138.6,156.6c0.7,0.4,1.6,0.6,1.4,1.9c-0.6,0.1-1.1,0.3-1.9,0.2c-0.3-0.5-0.3-1.1-0.5-1.7
	C138.1,157,138.9,157.3,138.6,156.6z"/>
<path d="M124.9,157.1c0.6,0.3,1,0.9,1,1.9c-0.2,0-0.2,0.3-0.2,0.5c-0.5,0.3-0.9-0.6-1,0c-0.5-0.9-1.6-1-0.7-2.2
	C124.6,157.1,125,158.1,124.9,157.1z"/>
<path d="M89.1,157.3c0,0.6,0,1.2,0.7,1.2c0,0.7-0.8,0.7-1,1.2C87,159.8,86.5,156.9,89.1,157.3z"/>
<path d="M100.6,157.3h1.7c0.3,0.7,0.3,1.3,0,1.9c-0.9,0.4-1.4-0.7-1.4-0.2C100.3,158.9,100.8,157.8,100.6,157.3z"/>
<path d="M187,157.3c-0.1,0.4,0.2,0.5,0.5,0.5c-0.1,0.6-0.6,0.8-0.7,1.4c-1,0-1.5-0.6-1.4-1.7C185.8,158.1,185.9,156.9,187,157.3
	L187,157.3z"/>
<path d="M11,158.1c0.5,0.8,0,2.7-1.4,1.9c-0.1-0.1-0.4-1.4-0.5-0.2c-0.5,0-0.1-0.9-0.2-1.2C9.9,158.8,9.7,157.7,11,158.1z"/>
<path d="M92.2,158.1c1.2-0.3,1.3,0.5,2.2,0.5C94.6,161.2,91.1,160,92.2,158.1z"/>
<path d="M151.9,158.1c0.6,0,0.2,1,1.2,0.7c0.2,1-0.7,0.9-1,1.4c-0.7,0.1-0.8-0.5-1.2-0.7C150.9,158.7,151.5,158.5,151.9,158.1
	L151.9,158.1z"/>
<path d="M177.3,158.1c0.9,0.1,1.3,1.4,0.7,2.2c-1,0.2-1.1-0.4-1.4-0.7C176.5,158.6,177.4,158.8,177.3,158.1z"/>
<path d="M115.3,158.5c1,0.1,1.6,0.5,1.7,1.4c-0.6-0.1-0.9,0.1-0.7,0.7c-1,0.2-1.2-0.4-1.4-1C114.7,159,115.5,159.3,115.3,158.5z"/>
<path d="M86.7,158.8v1.9c-1,0.2-1,0.2-1.9,0C85.1,159.7,85.1,158.4,86.7,158.8z"/>
<path d="M106.4,158.8c0,0.8,0.7,0.9,0.5,1.9c-0.5-0.1-0.8,0.1-0.7,0.5c-0.8,0.1-0.5-0.7-1.4-0.5
	C104.3,159.5,104.9,158.6,106.4,158.8z"/>
<path d="M98.2,159c1.6-0.2,2.7,0.2,2.6,1.7c-0.5,0.4-1.6,0.2-2.4,0.2C98.4,160.1,97.8,159.9,98.2,159z"/>
<path d="M171.8,159.3c0.8,0,1.8-0.2,2.2,0.2v1.2c-0.6,0-1.1,0.1-1.4,0.5C171.8,160.9,171.3,160.2,171.8,159.3L171.8,159.3z"/>
<path d="M167.2,159.5c1-0.3,0.5,0.8,1.4,0.5c0.9,1.6-1.3,1.7-1.9,1.7c-0.6-0.3-0.1-1.5,0-1.9C167.1,160,167.3,159.9,167.2,159.5z"/>
<path d="M122.3,161.9c-0.6-0.1-0.5,0.4-1.2,0.2c-0.1-0.6-0.8-0.4-1.2-1.2C120.4,159.4,123.3,159.9,122.3,161.9z"/>
<path d="M8.3,162.1c-0.6,0-1.4,0.1-1.7-0.2v-1.2C7.9,160.4,8.5,160.5,8.3,162.1z"/>
<path d="M96.3,160.7c0.9-0.3,0.4,0.9,1.2,0.7c-0.4,0.3-0.1,1.4-0.5,1.7c-1.3-0.3-2-0.4-1.7-1.9C95.8,161.1,96.6,161.4,96.3,160.7z"
	/>
<path d="M163.2,161.7c-0.4,1.3-1.6,1.5-2.4,0.7C160.3,160.5,162.9,160.2,163.2,161.7z"/>
<path d="M108.6,160.9c0.8,0.3,1.6,0.6,2.2,1.2c0,0.7-0.9,0.6-0.7,1.4c-0.4-0.8-2.1-0.3-2.2-1.4C107.8,161.5,108.6,161.6,108.6,160.9
	z"/>
<path d="M115.1,162.9c-0.6,0.1-1.1,0.3-1.9,0.2c0.1-0.5-0.2-0.6-0.2-1C113.1,160.5,115.6,160.7,115.1,162.9z"/>
<path d="M158.1,161.9c0.3,0.9-0.7,0.5-0.5,1.2c-0.9-0.1-1.3-0.2-1.9-1C156,160.8,157.6,160.6,158.1,161.9L158.1,161.9z"/>
<path d="M88.4,162.1c-0.1,0.6-0.6,0.8-0.7,1.4c-1,0-1.2-0.3-2.2-0.7C85.7,161,87.6,161.3,88.4,162.1z"/>
<path d="M92.7,162.1c0,0.9-0.5,1.3-1.2,1.4c-0.8-0.2-1.3-0.8-1.2-1.9C90.8,161.4,92,161.4,92.7,162.1z"/>
<path d="M151.9,161.4c1.2-0.1,1.9,0.3,1.9,1.4c-0.2,0-0.2,0.3-0.2,0.5c-0.7,0.3-0.7-0.1-1.7,0C151.6,162.7,151.6,162.1,151.9,161.4z
	"/>
<path d="M13.4,161.7c-0.1,0.7,0.5,0.7,0.5,1.4c-0.5,0.3-1.5,0.8-2.2,0.2C11.5,162,12,161.5,13.4,161.7z"/>
<path d="M103.3,162.4v1.4c-0.7,0.2-1.9-0.3-1.9,0c-0.3-0.3-0.5-0.8-0.5-1.4C101.7,161.6,102.4,162.1,103.3,162.4z"/>
<path d="M146.8,161.9c0.3,0.2,0.9,0.2,1.2,0.5c0.4,1.2-0.6,1-0.5,1.9c-0.8,0.1-0.4-1.1-1.4-0.7C146.1,162.8,146.4,162.3,146.8,161.9
	L146.8,161.9z"/>
<path d="M138.6,162.4c1-0.1,1.8,0,2.2,0.5c0.2,0.7-0.2,0.9-0.2,1.4c-0.7,0.3-0.7-0.1-1.7,0C138.7,163.7,138.5,163.2,138.6,162.4z"/>
<path d="M134.3,162.9c0.1,0.7,0.9,0.8,0.7,1.7c-0.8-0.3-0.6,0.4-1,0.5c-0.8,0.5-0.9-1.2-1,0c-0.4-0.6-0.4-1.4-0.2-1.9
	C133.6,163.3,133.6,162.7,134.3,162.9z"/>
<path d="M17.9,163.1c0.4,1.1-0.1,1.1-0.2,2.2c-0.8,0-1-0.6-1.7-0.7C16.4,163.8,16.7,163,17.9,163.1z"/>
<path d="M129.5,163.6c0.2,0.7-0.2,0.9-0.2,1.4c-0.7,0.3-1.6-0.4-1.7,0c-0.4-0.2-0.5-0.8-0.5-1.4C128,163.3,128.7,162.8,129.5,163.6z
	"/>
<path d="M150.7,163.6c0.7-0.2,0.9,0.2,1.4,0.2c0.1,0.8-0.3,0.9-0.5,1.4C150.7,165.3,150.6,164.6,150.7,163.6L150.7,163.6z"/>
<path d="M11,163.8c0.2,1,0.7,1.4,0,2.2C8.9,166.3,9.5,163.8,11,163.8z"/>
<path d="M98,163.8c1,0.2,1.1,0.2,2.4,0.2c-0.1,0.6,0.4,0.5,0.2,1.2c-1,0.8-1.2,0.1-2.4,0.5C97.9,164.9,97.7,164.9,98,163.8z"/>
<path d="M106.9,164.3c-0.4,0.4-0.6,1.2-0.7,1.9c-0.8-0.2-0.9,0-1.7-0.5C103.7,163.9,105.6,163.5,106.9,164.3z"/>
<path d="M113.6,163.8c0.7,0.6,2.1,0.5,1.9,1.9C114.6,166.8,113.4,165.8,113.6,163.8z"/>
<path d="M123.5,163.8c0.7-0.2,1.9,0.3,1.9,0c0.7,0.6,0,1.8-0.5,1.9c-0.6-0.1-0.8-0.6-1.4-0.7C123.5,164.6,123.5,164.2,123.5,163.8z"
	/>
<path d="M117.2,164.1c0.8,0,0.8,0.6,1.7,0.5c0.2,1-0.3,1.3-0.5,1.9c-0.2-0.4-0.7-0.6-1.4-0.5C116.8,165.1,116.6,164.6,117.2,164.1z"
	/>
<path d="M86.5,164.3c1.3,0,2.7-0.1,2.4,1.4c-0.7,0.6-1.5-0.1-2.4,0V164.3z"/>
<path d="M94.9,164.3h1.2c-0.1,0.8,0.7,0.5,0.5,1.4c-0.8,0.2-0.6,0.3-1.7,0.5C94.6,165.3,94.2,165.1,94.9,164.3z"/>
<path d="M108.3,164.3c2.1,0,3.2,1,3.4,2.9c-0.6-0.2-0.5,0.5-0.7,0.7C109.5,168,107.7,166.8,108.3,164.3z"/>
<path d="M92.7,164.8c0.5,0.8-0.1,1.1-0.2,1.9c-1.1,0.2-1.4-0.5-2.2-0.7v-1.2C91.2,164.5,91.4,164.6,92.7,164.8z"/>
<path d="M14.6,165.3c0.4,0.4,0.4,1.2,1.2,1.2c0.1,2.4-3.2,1.3-2.4-0.5C14.2,166.2,14.4,165.8,14.6,165.3z"/>
<path d="M22,165.3c1.1,0,2.2-0.1,2.2,1c0.3,0.8-0.8,0.2-0.5,1C22.1,167.2,21.7,166.9,22,165.3z"/>
<path d="M133.1,165.8c0.1,1.1,0.7,1,0.2,2.2c-0.7-0.1-0.9-0.3-1.2,0c-0.3-0.6-0.8-0.9-0.7-1.9C131.7,165.7,132.5,165.8,133.1,165.8z
	"/>
<path d="M18.7,166h1.4c-0.1,0.8,0.7,0.5,0.5,1.4c-0.9,0-1,0.8-2.2,0.5C18.3,167.1,18.5,166.6,18.7,166z"/>
<path d="M121.1,166c1.2-0.1,1.5,1.2,1.2,1.9c-0.5-0.1-0.8,0-0.7,0.5c-0.3-0.4-0.9-0.5-1.2-1C120.2,166.6,121.1,166.7,121.1,166z"/>
<path d="M103.8,167.9c-0.1,0.9-0.7,1.3-1.4,1.4c-0.2-0.8-1.4-0.7-1.7-1.4C101.2,166,102.9,167.1,103.8,167.9z"/>
<path d="M129,166.7c0,0.6,0.4,0.7,0.2,1.4c-0.4,0-0.6,0.2-0.7,0.5c-0.3-0.5-1.3-0.3-1.4-1C127.2,166.8,127.9,166.6,129,166.7z"/>
<path d="M107.1,168.9c-1.1,0.1-1.8-0.1-2.2-0.7C105.3,166.2,108.1,167.1,107.1,168.9z"/>
<path d="M98.2,167.9c0,0.6-0.8,0.5-0.7,1.2c-0.6-0.3-1.3-0.5-1.2-1.4C96.8,167.2,97.9,167.5,98.2,167.9z"/>
<path d="M25.9,167.7c0.4,0.3,0.6,0.7,1,1c-0.3,0.7-0.9,1.2-1.7,1.4c-0.1-0.9-1-1-0.5-1.9C24.8,167.7,25.8,168.2,25.9,167.7z"/>
<path d="M232.2,168.6c0.7,0.4,1.9,0.4,1.9,1.4c-0.8,0.4-1.2,0.2-1.7,0.5c-0.2-0.2-0.2-0.6-0.7-0.5
	C231.5,169.2,232,169.1,232.2,168.6z"/>
<path d="M23.7,170.8c-1.3,0.3-2.6,0.3-2.4-1.4C22.3,168.2,24.3,169.6,23.7,170.8z"/>
<path d="M29,168.9c0.9-0.3,0.4,0.9,1.2,0.7c0.1,0.7-0.5,0.7-0.5,1.4c-1,0.2-1.1-0.5-1.7-0.7C28.3,169.8,28.5,169.2,29,168.9z"/>
<path d="M41.7,169.4c0.4,0.8,0.2,1.6-0.2,2.2c-0.7,0-0.6-0.4-1.4-0.7C40.1,169.8,40.5,169.2,41.7,169.4z"/>
<path d="M36,169.6h1.4c0.3,0.5,0.3,1.1,1,1.2c-0.4,0.4-0.9,0.9-1.9,0.7c0.1-0.5-0.3-0.5-0.7-0.5C35.5,170.3,36,170.2,36,169.6z"/>
<path d="M219.2,169.8c0.7,0,0.4,1,1.2,1c0.3,1.1-0.8,0.6-0.7,1.4c-0.2,0-0.5-1-0.7-0.2C218,171.3,218.4,170.4,219.2,169.8
	L219.2,169.8z"/>
<path d="M226.4,170.3c0.2,0.7-0.2,0.9-0.2,1.4c-0.6,0-1.4,0.1-1.7-0.2C224.3,169.8,225.4,169.8,226.4,170.3z"/>
<path d="M207.2,170.1c0.6,0.2,0.9,0.1,1.9,0.2c-0.2,0.7,0.3,0.6,0.2,1.2C208.3,172.5,205.8,171.7,207.2,170.1z"/>
<path d="M212.9,170.1h1.2c-0.2,1,1.1,0.5,1,1.4c-0.9,0.2-1.4,1.2-2.4,0C212.5,170.8,213.1,170.8,212.9,170.1L212.9,170.1z"/>
<path d="M32.8,170.3c0.3,0.2,0.9,0.2,1.2,0.5c0.2,0.7-0.4,0.7-0.2,1.4c-0.8,0.2-1,0-1.2,0.2c-0.5,0-0.2-0.8-0.7-0.7
	C32,171.1,32.6,170.8,32.8,170.3z"/>
<path d="M237,172.5c0.3,0.8-0.8,0.2-0.5,1c-1.1,0.1-1.6-0.3-1.7-1.2C235.1,171.7,236.7,171,237,172.5z"/>
<path d="M200.4,173c-0.2,0.4-0.4,0.9-0.5,1.4h-1.4C197.6,172.8,199.5,171.8,200.4,173L200.4,173z"/>
<path d="M236.3,178c-0.1-1.2-0.1-2.6,0.5-3.4c0.2-0.2,0.8-0.1,1-0.2c0.6-0.6,0.1-0.4,1-0.5c0.4,0,0.6-0.7,0.7-0.7
	c2.8-0.8,5.1-0.1,6.7,0.7C248.2,180.1,239.5,179.9,236.3,178L236.3,178z M240.8,174.9c-1.9,0.2-2.4,0.1-2.9,1.9
	c2.9,1.5,5.9,0.3,7.2-0.7C244.9,174.5,241.6,173.9,240.8,174.9z"/>
<path d="M208.8,173.2h2.2c0.2,1.1-0.2,1.6-0.7,1.9C209,175.3,208.7,174.5,208.8,173.2L208.8,173.2z"/>
<path d="M194.4,173.7c1.1-0.2,1.6,0.1,1.9,0.7c-0.5,0.4-0.8,1.1-1.7,1.2C194,175.1,194.3,174.6,194.4,173.7z"/>
<path d="M203.1,173.9h1.9c0,0.3,0.1,0.4,0.2,0.5c-0.2,0.6-0.6,1-1,1.4h-0.5C202.9,175.7,202.7,174.7,203.1,173.9L203.1,173.9z"/>
<path d="M229.5,174.2c0.9-0.3,0.5,0.7,1.2,0.5c0.2,0.7-0.4,0.7-0.2,1.4c-1.1,0.1-1.6-0.3-1.7-1.2C229.1,174.1,229.5,175,229.5,174.2
	L229.5,174.2z"/>
<path d="M214.1,174.6h2.2c0.3,1.5-0.8,1.6-2.2,1.4C214.1,175.2,213.9,175.4,214.1,174.6z"/>
<path d="M188.9,175.4c-0.1,0.9-0.5,1.6-1.7,1.4c-0.3-0.2-0.1-0.9-0.7-0.7C186.7,174.9,188,174.6,188.9,175.4z"/>
<path d="M219.4,175.1c0.1,0.5,0.6,0.7,0.5,1.4c-0.6-0.2-0.5,0.5-0.7,0.7c-0.2-0.1-0.4-0.3-0.5,0c-0.2-0.6-0.9-0.7-1-1.4
	C218.7,176,218.2,174.7,219.4,175.1z"/>
<path d="M192,175.4c-0.2,0.7,0.4,0.7,0.2,1.4c-0.7,0.4-2.1,0.8-2.6,0C189.2,175.2,190.7,175.3,192,175.4z"/>
<path d="M223.5,175.4h1.2c0,0.6,0.5,0.6,0.7,1c-0.3,0.5-0.5,1.2-1.7,1C223.5,176.5,223,176.2,223.5,175.4L223.5,175.4z"/>
<path d="M185,176.8c-1-0.3-0.6,0.8-1.2,1c-0.5-0.2-1-0.4-1.2-1C182.6,175.4,185.1,175.3,185,176.8z"/>
<path d="M179.8,176.6c0,1.3-1.5,1.9-2.4,1C177.1,175.3,178.7,175.8,179.8,176.6z"/>
<path d="M180.5,176.1c0.9-0.2,1.3,0.2,1.7,0.5c0.2,1.2-1,1.1-1.2,1.9C180,178.3,180.1,176.8,180.5,176.1L180.5,176.1z"/>
<path d="M197.3,176.1c1.2-0.2,1.5,0.4,1.9,1c0,0.4-0.3,0.5-0.2,1c-1,0.1-1.5-0.4-1.9-1C197,176.6,197.4,176.5,197.3,176.1z"/>
<path d="M187.9,177.5c0.2,1.2-0.7,1.2-1,1.9c-0.5-0.4-1-0.9-1-1.9C186.9,177.3,187.3,176.8,187.9,177.5z"/>
<path d="M201.9,178c0.2,0.7-0.4,0.7-0.2,1.4h-1.2c-0.1-0.7-0.4-1.3-0.5-1.9C201.1,177.1,201,177.7,201.9,178L201.9,178z"/>
<path d="M207.4,178.7c-0.2,0.4-1.2-0.1-1,0.7c-0.5-0.1-0.4-0.7-1.2-0.5v-1.4C206.4,177.4,207.6,177.1,207.4,178.7z"/>
<path d="M210.5,177.3c1.1-0.2,1.4,0.4,1.9,0.7c0,0.6-0.8,0.5-0.7,1.2c-0.5,0.3-0.9-0.6-1,0C210,178.8,210.5,178.1,210.5,177.3
	L210.5,177.3z"/>
<path d="M176.9,178.3c0.1,0.6-0.4,0.5-0.2,1.2h-1.4c-0.1-0.6-0.4-0.9-0.2-1.7C176,177.5,176.2,177.8,176.9,178.3z"/>
<path d="M233.6,178.5c-0.2,0.8-0.9,1-1.7,1.2c-0.1-0.6-0.5-1-0.7-1.4C231.6,177.2,233.3,177.6,233.6,178.5z"/>
<path d="M183.6,178.3c0.3,0.3,0.1,1.1,0.5,1.4h1.7c0.3,1,0.1,1.3-0.2,2.2c-0.8,0.2-0.9-0.4-1.7-0.2c0.2-1.4-0.6-1.6-1.7-2.2
	C182.4,178.8,182.5,178.1,183.6,178.3z"/>
<path d="M190.8,179.7c0.3-0.3,1-0.2,1.7-0.2c0.3,0.4,0.3,1,0.7,1.2c-0.1,0.4-0.8,0.2-0.5,1h-1.4c0.2-0.7-0.7-0.5-0.5-1.2
	c-1.4,0.1-2.7,0.1-2.4-1.4C189.7,178.4,190.3,178.5,190.8,179.7L190.8,179.7z"/>
<path d="M179,179c0.4,0.8,0.1,1.1,0,1.9c-0.7-0.2-0.9,0.2-1.4,0.2c0.1-0.4-0.2-0.5-0.5-0.5C177,179.3,177.7,178.8,179,179L179,179z"
	/>
<path d="M215.1,179.2c0.1,0.5,0.1,1,0.7,1c-0.1,0.6-0.6,0.8-0.7,1.4c-1-0.1-1-1-1.7-1.4C213.6,179.5,214.2,179.2,215.1,179.2z"/>
<path d="M195.9,179.7c0.7-0.2,0.3,0.8,1.2,0.5c-0.3,0.3-0.2,1-0.2,1.7C194.7,182.4,195,180.3,195.9,179.7z"/>
<path d="M217.3,179.7h1.9c0.4,0.8,0.1,1.1,0,1.9h-1.7C217.4,181,217.2,180.5,217.3,179.7z"/>
<path d="M181.7,181.9c0-0.5-1-0.1-1.4-0.2c-0.3-0.8,0-0.5,0-1.4c1-0.1,0.7-0.1,1.7,0v1.4h1.4c0.3,0.7,0.3,1.3,0,1.9
	C181.8,183.8,181.2,183.1,181.7,181.9L181.7,181.9z"/>
<path d="M176.6,180.4v1.2c-0.6,0.5-1.3,0.5-1.9,0C174.2,180.1,175.8,179.9,176.6,180.4z"/>
<path d="M200.9,181.1c-0.1,0.6-0.3,1-0.5,1.4c-1.3,0.2-1.4-0.7-1.9-1.2C198.8,180,200.1,180.5,200.9,181.1z"/>
<path d="M224.7,181.1c-0.1,0.6-0.3,1-0.5,1.4c-1,0.3-1.1-0.4-1.7-0.5C222.6,180.5,223.6,180.7,224.7,181.1z"/>
<path d="M188.6,181.6c-0.1,0.9-0.4,1.5-1.2,1.7c0-0.2-0.3-0.2-0.5-0.2c-0.4-0.3-0.2-1.2-0.2-1.9
	C187.7,180.9,188.3,180.8,188.6,181.6L188.6,181.6z"/>
<path d="M205.5,181.6c-0.3,0.3-0.3,0.9-0.2,1.4c-0.6-0.4-0.6,0.5-0.7,0.5c0.4-0.1-1.2-0.3-0.5,0C202.3,182.7,203.2,180,205.5,181.6z
	"/>
<path d="M210.8,181.1c0.7,0.8,0.3,1.3,0,2.2c-1.3,0.2-1.9-0.3-2.4-1C209,181,209.6,181.3,210.8,181.1z"/>
<path d="M242.3,181.1c1-0.2,1.3,0.3,1.7,0.7c0,0.8-0.4,1-1,1.2C242.1,183.1,242.3,182,242.3,181.1z"/>
<path d="M181.7,183.3c0.5,0.5-0.3,0.7-0.2,1.4c0.5,0.7,2.5,0.6,1.7,1.9c-0.9-0.1-1.2,0.2-1.4,0.7c-0.3-0.2-0.5-0.7-1-0.7
	c0.4-1.8-1.2-1.5-1-3.1c-0.7,0.6-1.3,0.4-2.4,0.2c-0.3-1.6,0.6-2.1,2.2-1.9v1.4C179.5,183.3,181.7,183.3,181.7,183.3z"/>
<path d="M191.5,181.9c0.1,0.5,0.6,0.7,0.5,1.4c-0.2,0-0.2,0.3-0.2,0.5c-1.9-0.5-1.9,1.3-2.9,1.7c-1.3,0.2-1.4-1.1-1-1.9
	c0.9-0.1,1-0.2,1.7,0.2v-1.4C190.1,182.1,190.6,181.7,191.5,181.9z"/>
<path d="M240.3,182.3c0.6,0.8,0.2,1,0,1.9c-0.7,0-0.9-0.5-1.4-0.7C239.1,182.9,239.3,182.2,240.3,182.3z"/>
<path d="M185.8,183.1c0.6,0.8,0,2-0.5,2.4c-0.3,0-0.5-1.2-0.7-0.5C183.7,184.2,184.5,183.1,185.8,183.1L185.8,183.1z"/>
<path d="M194.7,183.3c0.2,1.7-0.6,2.7-1.9,2.2V184C193.5,183.6,193.6,183.7,194.7,183.3z"/>
<path d="M232.9,183.3c1.3-0.2,2,0.2,2.4,1c0,0.5-0.7,0.3-0.5,1c-0.6,0.3-1.4-0.5-1.4,0C233,184.8,232.9,184.1,232.9,183.3z"/>
<path d="M221.8,183.8v1.4c-0.7,0.7-1-0.3-1.4,0.5c-0.6-0.3-1-0.8-1-1.7C220.4,183.4,220.6,183.7,221.8,183.8z"/>
<path d="M228.8,184.7c-0.2,0.8-0.7,1.3-1.7,1.2c-0.2-0.4,0-1.3-0.7-1.2C226.8,183.8,228.5,183.4,228.8,184.7z"/>
<path d="M198.3,184c0.3,1,0.1,1.7-0.7,2.2c-0.9-0.4-1.6-0.8-1.2-1.9C197.1,184.3,197.4,183.8,198.3,184z"/>
<path d="M211.7,184c0.3,0.5,1.2,0.4,1.7,0.7c-0.1,1.5-0.7,1.2-1.4,1.7c-0.1-0.8-1-0.8-0.7-1.9C211.7,184.6,211.7,184.3,211.7,184
	L211.7,184z"/>
<path d="M207.2,184.7c0.3,0.2,0.1,0.9,0.7,0.7c-0.1,1.5-0.8,1.1-1.7,1.7c-0.2-0.6-0.7-0.9-0.5-1.9
	C206.4,185.3,206.2,184.4,207.2,184.7z"/>
<path d="M200.7,185.2c0.7-0.2,0.9,0.2,1.4,0.2c0.1,0.8-0.1,1.3-0.2,1.9c-1,0.4-1.2,0.1-1.9-0.7C199.7,185.7,201,186.3,200.7,185.2
	L200.7,185.2z"/>
<path d="M215.6,185.5c1.2-0.4,1,0.6,1.9,0.5c0.1,0.7-0.5,0.7-0.5,1.4h-1.4C215.3,186.7,215.3,186.1,215.6,185.5L215.6,185.5z"/>
<path d="M186.5,185.7c0.5,0,0.3,0.7,1,0.5c-0.2,1-0.6,1.6-1.9,1.4c-0.1-0.9-0.7-0.6-0.2-1.4C185.7,186.1,186.7,186.5,186.5,185.7z"
	/>
<path d="M188.9,186.4c0.9-0.4,2-0.4,2.9-0.2C192.1,188.7,188.8,188.6,188.9,186.4z"/>
<path d="M166.3,59.7c0.3,0,0.2-0.4,0.2-0.7c1.6,1.6,5.5,0.9,7.5,2.2c0.2-0.2,0.2-0.6,0.7-0.5c0.2,0.7,1.1,0.3,1.7,0.5
	c0.3,0.1,0.4,0.6,0.7,0.7c1.6,0.7,4,0.7,5.5,1.7c0.6,0.4,2,1.1,2.9,0.7c0.5,1,2.5,0.6,2.9,1.7c1.6-1,2-0.6,3.8-1
	c2.2,1.4,5.2,2.1,6.3,4.6c1.9,0.3,2.5,1.8,4.6,1.7c-0.2,1.1,1.2,0.6,1.2,1.4c2.6,0.6,3.9,2.5,6.5,3.1c0.1,1,1.1,1.2,1.9,1.4
	c0.1,0.5,0.5,0.8,0.7,1.2c0.8,0.2,1.5,0.6,1.7,1.4c1.2,0.8,2.7,1.5,3.8,2.4c0.5,0.4,0.9,1.2,1.4,1.7c0.7,0.6,1.8,0.8,1.9,1.9
	c1.8,0.4,2.8,2.3,4.1,3.6c0.4,0.4,1.4,0.2,1.2,1.4c1.1,0.1,1.5,1.4,2.2,2.2c0.3,0.4,1,0.3,1.2,0.5c0.7,0.8,0.9,1.8,1.4,2.6
	c0.9,0.4,1,1.4,1.7,2.4c0.9,1.3,1.7,3.1,2.6,5c0.7,1.5,0.9,3,1.4,4.3c0.1,0.3,0,0.7,0.7,0.7c1.4,5.1,1.4,11.8,0.2,17.1
	c-0.2,0.2-0.2,0.6-0.7,0.5c-0.3,1.3-0.7,3.4-1.2,4.8c-0.5,1.2-1.3,1.9-1.9,3.1c-0.3,0.5-0.2,1.2-0.5,1.7c-0.3,0.4-0.9,0.6-1.2,1
	c-0.4,0.4-0.4,1.2-0.7,1.4c0,0-0.5-0.2-0.7,0c-0.6,0.5-0.9,1.5-1.4,2.2c-1.7,1.9-3.8,3.2-6,4.6c-0.9,1.4-2.7,2-3.6,3.4
	c-1.3-0.2-2.6,1.3-3.6,2.2c-1-0.4-1.8,0.7-2.6,1.2c-0.4,0.1-0.4-0.2-0.7-0.2c-0.5,0.3-1,0.6-1.2,1.2c-5.3,1.9-10.8,5-16.6,6.3
	c-1.5,0.8-3,1.8-4.8,2.2c-0.3,0.1-0.8-0.3-1.2-0.2c-1.9,0.4-3.4,1.5-5.3,1.9c-0.9,0.2-1.9,0-2.9,0.2c-1.2,0.3-2.4,1.3-3.8,0.7
	c-0.1,0.7-0.9,0.3-1.4,0.5c-0.2,0.1-0.5,0.7-0.7,0.7c-0.8,0.2-2.8,0-4.6,0.2c-0.4,0.1-0.8,0.4-1.2,0.5c-0.5,0.1-1.9-0.1-3.4,0.2
	c-0.3,0.1-0.6,0.4-1,0.5c-1.2,0.3-2.4,0.1-3.1,0.7c-0.3-0.4-1.6-0.9-1.9,0c-1.5-0.8-3.8,1.1-6.5,0.7c-0.5-0.1-0.3,0.5-0.7,0.5
	c-1.8,0.3-3-0.1-3.8,1c-1.5,0-3.6-0.1-5.3,0c-0.6,0-1.5,0.2-1.7,0.7c-1.8,0.2-3.6,0-5.8,0.2c-1.4,0.1-2.8,1-5.5,0.7
	c-1,0.9-2.1-0.2-2.9,0.7c-4.6-0.1-8.8,0.1-12.5,0.2c-0.4,0-0.8,0.5-1.2,0.5c-1.1,0.1-2.1-0.4-3.1-0.2c-0.3,0-0.6,0.5-1,0.5
	c-1.3,0.1-2.7-0.3-4.1-0.2c-0.7,0.1-5,1.2-6.3,0c-3.2,0.5-8.6,0.3-11.8,0c-1.1-0.1-2.4-0.1-3.4-0.2c-0.1,0-0.7-0.5-0.7-0.5
	c-1.6-0.2-3.1,0.4-4.1-1.2c-1,0.4-1.2-0.4-2.4-0.2c-1.3-1.9-4.2-0.7-5.3-2.9c-5.5-1.8-8.3-5.8-13-7.9c-0.2,2.8,1.4,5.3,0.2,7.7
	c-3.3,1.8-5.2,3.1-7.9,4.3c-1.6,0.1-3.2,0.3-4.1,0.7c-0.4,0.2-0.2,0.6-0.5,0.7c-1.1,0.7-2.8,0.7-3.8,1c-0.4,0.1-0.8,0.4-1.2,0.5
	c-0.9,0.2-2-0.1-3.1,0c-1.1,0.1-1.7,0.5-2.9,0.5c-0.7,0-1.3,0-1.9,0c-1.1,0.1-2.1,0.3-4.3,0.2c-0.5,0-1.4,0-1.7-0.5
	c-1.5,0.2-3.3,0.1-5-0.2c-1.2-0.3-2.8-0.6-3.6-1.4h-1.7c-2.1-0.7-3.7-2-5.3-2.6c-2.8-1.1-4.9-3-7-5c-0.7-1.9-2.4-2.9-2.9-5
	c-2.3-2.9-3.7-9.3-3.1-14.7c0.2-2.1,1.4-3.9,1.2-5.5c0.6-0.7,1.1-1.5,1.9-1.9c0.3-2.2,1.5-2.8,3.1-4.1c0.4-0.3,0.7-1,1-1.2
	c0.5-0.3,1.6-0.3,2.4-0.7c0.8-0.4,1.9-1.3,3.1-1.4c1.2-0.2,2.9,0.4,4.1,0.2c0.6-0.1,1.3-0.7,2.6-0.5c1.3,0.2,3.3,1.4,5.3,1.7
	c0.7-1.2,0.7-2.9,0.7-4.1c0.1-3.8-0.3-7.4,1.2-11.3c1.5-1,1.6-3.2,2.6-4.8c0.3-0.5,0.9-0.7,1.2-1.2c0.7-1.1,1.9-4.5,2.9-4.3
	c0.3-1.5,1.5-2,1.9-3.4c0.5,0.8,0.5-0.7,0.7,0c2.8-2.8,5.5-5.7,8.2-8.7c0.6,0.2,0.7-0.2,1-0.5c1.4-1.5,3.4-3.5,4.3-5.3
	c2.9-0.3,5.6-4.5,9.4-5.5c0.5-0.4,1-0.8,1.2-1.4c1.9-0.3,3.2-1.7,5-2.4c1.3-0.5,3-2.1,4.6-2.2c3.8-2,6.3-1.2,10.8-2.9
	c0.1-0.6,0.3-1.1,0.2-1.9c0.4-0.1,0.5,0.2,0.5,0.5c0.5-0.5,0.9-1.2,1.2-1.9c0.6-0.1,1.5,0,1.4-0.7c0.4-0.1,1.1,0,1.2,0
	c0.3-0.1,0.1-0.4,0.2-0.5c0.1-0.1,2,0.1,2.2-1c2.6,0.3,6.7-2.2,9.6-2.2c0.5-0.8,1.5-0.3,2.6-1c0.8-0.5,0.3-0.1,0.7,0
	c0.1,0,0.7-1.1,0.7,0c1.4-1.1,4.7-1.1,6.5-1.9c1.2-0.2,2.3,0,3.4-0.2c0.5-0.1,0.3-0.4,0.7-0.5c1.3-0.4,2.8,0.1,3.6-0.7
	c1.6-0.2,4.4,0.4,4.6-0.5c1.3,0.5,2-0.4,2.9,0.2c1.4-0.6,4.1-0.4,6.7-0.7c3.7-0.4,7.9,0.9,10.8-0.2c-0.3-0.1,0-0.9-0.5-1
	c0.3-0.6,1.2-0.6,1.2-1.4c1.1,0.1,1.4,0.5,1.9-0.2c2.9-0.2,5.3,0.8,7.7-0.5c1.9,0.6,5,1,7.9,0.5C160.9,59.6,164.2,58.7,166.3,59.7
	L166.3,59.7z M174.5,62.8c-1.4-0.7-3,0.1-4.3-0.2c-0.2-0.1-0.5-0.7-0.7-0.7c-1.6-0.4-2.6-0.3-3.4-0.2c-0.1,0.6,0.3,1.7-0.2,1.9
	c-0.3-0.1-1.2,0.3-1.2-0.2c-0.6-0.6,0.1-1.1,0.5-1.4c-1.2-0.7-2.2,0-3.8-0.7c-0.1,0.9,0.6,1,0.7,1.7c-1.1,1.5-3.3,0.1-1.7-1.4
	c0.1,0.2,0,0.5,0.2,0.5c0.1-1.3-2.4-0.6-2.9-0.7c0.5,0.9,0.3,2.1-1.2,1.7c-0.3-0.9,0.2-1.1-0.5-1.4c-0.8,0.3-3.1,0.9-4.1,1
	c-0.7,1.3,0,3.1,1.2,3.4c-0.3,1.8,0.4,6,1.4,7.2c0.9,1,0.2,3.4,1.4,4.1c-0.9,0.8-1.1,2.7-0.5,3.8c-0.6,0.1-0.8,0.6-1.4,0.7
	c-2-2.5-3.4-5.8-5-8.7c-2.4-1.3-3.3-4-5.1-6c-2.2-0.4-3.4-1.4-5-1.4c0.1-1.8-0.9-1-1.7-1.7c-0.5,0.6,0.4,1.2-0.2,1.7
	c-0.7,0-1.6,0.2-1.7-0.5c-0.2-0.6,0.7-1.3,0-1.7c-1.2,0-1.6,0.2-2.6,0c-0.3-0.1-0.9-0.5-1-0.5c0.1,0-0.4,0.7-0.5,0.7
	c-0.6,0.3-2.7-0.6-3.8,0.5c0-0.5-0.2-0.8-0.7-0.7c-0.4,0.5-0.7-0.3-1,0.5c-3.3-0.6-6.1,0.7-10.6,0.5c-1.2,1.3-2.5,0.6-3.8,1
	c-0.6,0.7,0.8,0.9,0.5,2.2c-0.5-0.1-0.5,0.3-0.7,0.5c-0.1-0.6-0.7-0.5-1-1c-0.1-0.8,0.3-0.9,0.5-1.4c-3.6,0.3-5.3,0.8-7.9,1.9
	c0.6,0.7,2.2,0.4,1.9,1.9c-0.8-0.3-0.2,0.8-1,0.5c-0.7-0.4-1.1-1-1.7-1.4c-0.8-0.2-0.8,1.2-1.4,0.2c0.3,1.6-0.4,2.2-1.2,2.6
	c-0.7-0.6-1-1.8-2.6-1.4c-0.3,0.7,0.4,2.1-1,2.2c-0.5-0.4-0.9-0.9-1.4-1.2c-1,0.2-1.5,1.1-1.9,1.9c-1.1,0-2.3-0.2-2.4,0.7
	c0.4,0,0.1,0.7,0.5,0.7c0-1,1.1,0.3,1.4,0.5c-0.2,1.6,0.3,2.5,1.2,2.9c0.2-0.6,0.2-1.4,0.7-1.7c1.2,0,1.8,0.5,1.9,1.4
	c-0.2,0.1-0.3,0.2-0.2,0.5c-0.9,0-1.8,0-2.4,0.2c-0.1,1.5,0.4,2.5,1.2,3.1c0.3-0.8,0.8-1.4,2.2-1.2c0,0.8,0.6,0.8,0.5,1.7
	c-0.8,0.4-1.6,1-2.6,0.2c0,1.3,0.6,1.9,1,2.9c-0.6,2.8,2.2,6.4,0,8.9c-2.7-0.4-3.5-3.6-4.8-5c-0.8-0.8-1.7-1.6-1.9-2.6
	c-1.2-0.4-1.5-1.6-2.9-1.7c-0.5,0-0.2,0.8-0.7,0.7c-0.5-0.5-1.8-0.3-1.9-1.2c-0.1-0.8,1,0,1-1.2c-1.3-1-1.2-0.6-2.6-1
	c-0.1,0.7-0.9,0.8-1.9,0.7c0.1-0.6-0.4-0.5-0.2-1.2c0-0.3,0.4-0.3,0.7-0.2c-0.8-2-4-1.3-4.6-3.1c-1,0.3-1.5-0.1-2.9,0.5
	c0,0.8,0.6,1,0.7,1.7c-0.7,1-2.3,1-2.2-1c-7.5,3-12.7,6.1-18.5,11.1c-0.9-0.1-2.4,0.9-2.6,2.2c-0.8,0.7-2.4,1.8-2.2,2.6
	c1-1,1.8,1.7,0.7,2.2c-0.9-0.2-1.1-1.2-1.4-1.9c-2.6,3-5.6,5.6-7,9.9c0.3,0.5,0.7,0.9,1.2,1.2c2.2-0.7,3.4,1.6,5.8,1.4
	c-0.1,0.7,0.5,0.7,0.5,1.4h1c1,2.2,3.3,3,4.8,4.6c0.1,0.5,0.5,0.6,0.5,1.2c6.9,6.4,11.8,14.8,15.6,24.3c0.3,0.1,0.5,0.3,0.7,0.5
	c2,4.7,3.8,9.7,6,14.2c-0.1,1.2,0.7,1.5,0.7,2.6c1.7,0.8,2.3,2.8,3.1,4.6c1.4,0,1.7,2.5,2.9,1.9c-0.6-0.3-0.4-1,0-1.4
	c1,0,2-0.1,2.2,0.7c-0.1,0.9-1,0.9-1.2,1.7c0.8,1.1,2.2,1.6,2.4,3.4c1.2,0.7,2.5,0.8,2.9,1.7c2.7,0.4,3.8,0.9,6.7,1
	c0.9,0.9,2.4,0,3.6,0c0.4,0,0.8,0.4,1.2,0.5c0.6,0.1,1.3-0.3,1.9-0.2c0.6,0,1.3,0.5,1.9,0.5c0.1,0,0.4-0.4,0.7-0.5
	c1.6-0.3,3.2,0.3,4.1-0.5c2.6,0.8,3.7-0.1,6.3,0.5c-0.2-1,0.5,0.1,0.7,0c0.2-0.1,0-0.4,0.5-0.5c1.3-0.1,3.2,0.3,5,0
	c0.4-0.1,0.8-0.5,1.2-0.5c1.5-0.1,3,0.6,4.6,0.2c0.4-0.1,0.6-0.4,1-0.5c3.2-0.3,6.4,0,9.1-0.2c0.3,0,0.2-0.4,0.5-0.5
	c2.9,0.2,6.2-1.6,11.3-1c2.4-1.7,7.4-0.6,9.6-1.9c2.5,0.2,3.6-0.7,6.7-0.2c-0.1-0.7,0.9-0.4,1-1c3.3-0.2,5.1-0.9,9.6-1.2
	c0.7-1,3.4,0.1,4.1-1.2c2.5,0.3,2.4-1.5,4.8-0.7c0-1,1.2-0.4,1.4-0.5c0.6-0.1,1.1-0.8,1.7-1c0.9-0.2,2.1,0,3.1-0.2
	c1.1-0.3,1.8-1.3,2.9-1c0.2-0.5,0.7-0.6,1-1c1.8,0.1,3-0.4,3.8-1.2c1,0.2,1-0.2,1.2-0.5c-0.2,0.2,1.1-0.4,1.2-0.5
	c1-0.3,1.8-0.5,2.2-0.7c1-0.6,1.6-0.1,1.9-1c0.1,0.2,0,0.5,0.2,0.5c1.3-1.6,5.2-1.6,5.8-3.1c-0.6-0.5-1.2,0.3-1.9-0.5
	c0.2-1.3,1.1-1.7,2.2-1.7c0.7,0.8,0.3,1.3,0,2.2c1.5-0.1,2.7-1.3,4.1-2.2c0.1,0.2,0,0.5,0.2,0.5c1-1,2.6-1.4,3.4-2.6
	c0.1,0.4,0.3-0.1,0.5-0.2h1c1.5-1,2.8-2.8,4.3-4.1c1-0.9,2.8-1.4,2.9-2.9c2.4-1.7,3.8-4.5,5.3-7.2c0.3,0.1,0.4,0.3,0.7,0
	c0-1.4,1.4-2.3,1.9-3.6c0.2-0.4-0.1-1,0-1.4c0.1-0.3,0.6-0.6,0.7-1c0.6-1.4,1-3.7,1.2-5.3c0.3-2.4,0.4-4.2,0.5-6.3
	c0.1-4.8-3.4-7.9-3.8-12.3c-0.6-0.2-0.8-0.6-1.2-1c0.4-0.5,0-0.3,0-1c-0.3-0.2-0.7-0.4-1-0.7c-0.5-2.1-2.1-3-2.6-5
	c-0.5-0.5-1-0.2-1.2-0.5c-0.4-0.8-1.1-1.3-1.4-2.2c-0.3-0.5-0.6,0.3-0.7-0.2c-1.6-1.7-3.4-3.1-4.8-5c-0.8-0.1-0.3-0.7-1.2-0.2
	c-0.8-2.4-3.9-2.6-4.8-4.8c-1.8-0.1-2.3-2.6-3.8-2.2c0.1-0.9-0.7-0.7-0.7-1.4c-3.1-0.9-4-2.6-7.7-2.9c-0.6,1.5-0.2,4.7-1,5.3
	c0.5,2.1,1.5,5.8-0.7,6.7c-0.2-0.4-0.8-0.5-1.2-0.7c-1.4-2.4-2.4-6.4-4.1-7.7c-1.5-3.3-3.6-6.7-6-8.9c-0.5-0.4-0.1-0.5-0.5-1
	c-1.9-0.9-2.9-1.6-4.6-2.4c-0.2,0.9-0.5,0-0.5,0c-0.1-0.1-1.2,0.1-1.4,0c-0.2-0.1-0.3-0.6-0.5-0.7c-1.3-0.7-3.3-1-4.1-1.4
	c0.1,0.7,0.7,0.9,0.5,1.9c-0.9-0.1-1.2,0.5-1.7-0.2c0-0.8-0.1-1.7,0.7-1.7c0.1,0.2,0,0.5,0.2,0.5c-0.7-1.7-2.6-0.8-3.6-1.7
	c-0.3,0.5,0.5,2.3-1,2.2c-0.4-0.2-0.8-0.4-0.7-1.2C173.1,63.2,175.3,63.5,174.5,62.8L174.5,62.8z M149,66.4
	c-1.4-0.8-2.4-1.9-2.9-3.6c-1-0.4-1.5-1.2-2.4-1.7h-0.5c-2.2,2.9,1.8,4.1,3.6,7c0.3,0.4,0.3,1,0.5,1.2c0.4,0.4,1.2,0.4,1.4,0.7
	c0.3,0.3,0.1,0.9,0.2,1.2c0.1,0.2,0.6,0.3,0.7,0.5c1.4,1.6,2.3,3.8,3.4,5.3C153.6,73.3,150.3,69.9,149,66.4z M194.7,73.2
	c0.6,0.2,0.9,0.7,1.2,1.2c0.5,2.4,2.4,3.5,3.6,5.3c0.5,0.3-0.4,1.3,0.5,0.7c-0.2-1.6-2.1-5.9-3.1-8.7c-1.2-0.2-1.2-1.7-1.7-2.6
	c-1.4-0.6-2.4-1.8-3.6-1.4C192.4,69.7,194.1,70.8,194.7,73.2L194.7,73.2z M91.5,82.6c-0.5-0.7-0.8-2-1.2-2.6
	c-0.9-1.3-2.4-2.6-3.4-3.4c-1.1-0.9-2.3-1.6-3.6-2.2c-0.8,1.2-1.9,1.2-2.2,2.4c2.4,1.5,4.3,3.4,5.8,5.8c0.3,0.2,0.6,0.3,1.2,0.2
	c1,2.8,4,3.6,4.8,6.5C93.7,86.5,92.4,83.8,91.5,82.6z M199.9,81.1c0,0,0.2,0,0.2,0C201,82.4,200.1,80.3,199.9,81.1z M73,151.3
	c-1.2-1.6-1.9-3.9-2.6-5.5c-0.2-0.5-0.2-1.5-0.5-1.9c-0.1-0.2-0.3,0.4-0.5,0c-1.7-3.6-3-7.5-4.8-11.1c-1.3-2.4-2.9-5.1-4.3-7.2
	c-1.3-1.9-2.6-3-3.4-5c-1-0.6-2-1.7-2.4-2.4c-0.5-0.7-1.3-0.9-1.7-1.4c-0.4-0.5-0.5-1.4-1-1.9c-0.6-0.6-1.7-1.1-2.6-1.9
	c-2.4-2-4.3-3.9-7.2-5c-1.3,0.3-5.5,0.4-6.5,0.2c-2,1.9-3.5,3.8-4.8,6.7c-1.4,3.2-2.5,6.8-2.2,11.5c0,0.4,0.5,1,0.5,1.7
	c0,0.4-0.3,0.8-0.2,1.2c0.3,1.2,1.2,2.5,1.7,3.6c0.6,1.3,1,2.5,1.7,3.6c2.3,2.4,4.6,4.7,7.7,6.3c0.6,1.3,2,1.7,2.6,2.9
	c0.4,0.1,2.1,0.9,2.4,1.9c1.8,0.2,2.3,1.7,4.1,1.9c0.2,0.4,0.6,0.7,0.7,1.2c1.7,0.5,3.1,1.8,4.6,3.1c1.7,0.4,3.1,1.3,3.8,2.6
	c2.3,0.1,1.9,1.9,4.1,1.7c1,2,4.1,2,4.8,4.3c3.4,0.6,4.4,3.1,7.5,3.6c0.2,1.2,1.6,1.3,3.1,1.2C77.8,161,73.7,157.3,73,151.3z
	 M56.9,160.5c-2.5-1.2-3.6-3.7-6-5c-0.1-1.1-1.2-1-1.9-1.7c-0.3-0.3-0.4-1.1-0.7-1.4c-1.3-1.1-3-1.4-3.8-2.2
	c-1.8-1.5-3.7-3.4-6.3-3.8c-1.3-2-2.6-4-5-4.8c-1.8-1.8-3.6-5-6-6c-0.2-0.1-0.1-0.4-0.2-0.5c-1.2-0.6-2.5-0.5-3.8-1
	c-0.7-0.3-1.3-1-1.9-1.2c-1.6-0.6-5-0.2-7.5,0c-4.5,0.3-9.1,4.1-9.4,7.9c-0.1,1.4,0.8,3.1,1.4,4.8c0.8,2.2,2.4,5.4,3.8,6.3
	c0.3,0.5,0.6,1,0.7,1.7c2.2,1.3,4.1,4.1,6.3,4.8c0.8,0.6,1.5,1.5,2.4,1.9c0.6,0.3,1.3,0.2,1.9,0.5c0.2,0.1,0.4,0.6,0.5,0.7
	c0.9,0.6,2.1,0.9,2.9,1.4c0.9,0.6,2.4,0.9,3.8,1c0,0.3,0,0.7,0.2,0.7c1.4,0.4,2.9,0.2,4.3,0.5c1,0.2,1.9,0.8,2.9,1
	c2.1,0.4,4.2,0.4,6.3,0.7c0.3,0,0.7,0.4,1,0.5c2.3,0.6,4.1-0.1,6.7,0c1.2,0,2.4,0.7,3.6,0.7c0.3,0,0.7-0.4,1.2-0.5
	c2.6-0.5,4.1-0.5,4.8-2.2C58.4,163.6,57.5,162.1,56.9,160.5L56.9,160.5z M44.4,171c-0.5-0.2-0.2-0.7-0.7-0.2
	c-0.1-0.6-0.4-0.9-0.2-1.7c-3.1-0.8-6.3-0.5-9.6-1.7v1.4c-0.9-0.2-0.6,0.8-1.7,0.5c-0.5-0.5-0.2-1.6,0-2.2c-0.9-0.4-1.3,0.3-2.2-0.5
	c-0.4,1.2-2.8,1.2-2.4-0.7c-1.2-0.4-1.8-0.8-3.6-1c-0.9-1.3-1.6-1.3-3.6-1.4c-0.1-0.5-0.6-0.7-0.5-1.4c-1.5,0.1-2.2-0.9-3.6-1.4
	c-0.1,0.6,0.4,0.5,0.2,1.2c-0.5,0.3-1,0.6-1.9,0.5c-0.1-0.4-0.4-0.6-0.5-1c0.6-0.6,0.8-0.9,1.4-1c-0.4-1.3-1.5-1-2.9-1
	c-0.6-2.2-1.7-3.9-4.1-4.3c0-2.1-1.2-2.9-2.2-4.1c-0.3,0.1-0.8,0.4-1.7,0.5c0.1-1,0.8-1.6,0.5-2.4c-1.3,0.3-1.3-0.8-2.4-0.7
	c-0.5,0.8-1.1,1.4-1,2.9c0.8,0.1,2.1-0.3,2.2,0.5c0.2,1.4-1.1,1.3-1.4,2.2c-0.1,0.9,1,0.7,1,1.4c-0.1,1.2,0.1,2.1,0.7,2.6
	c0.2-0.5,0.5-1,1.2-1c0.4,0.4,0.7,0.9,0.7,1.7c-0.8-0.1-0.9,0.3-1.4,0.5c2.3,5.8,6.6,9.6,13.2,11.1c-0.4-0.8-1.4-1.3-0.5-2.2
	c1-0.1,1,0.9,1.4,1.4c-0.2,0.5-1.1,0.4-1,1.2c2.9,0.3,4.9,1.5,7.7,1.9c0.6-0.5,0.1-1.1,0.5-1.4c0.1,0.3,1.2-0.2,1.9,0
	c0,0.6,0.5,0.7,0,1.2c0.6,0.1,1,0.2,1.2,0.7c7-0.3,11.7,0.1,15.6-2.2c-0.1,0.7,1.9-0.3,1.9-1c-0.3-0.8-1.3-0.4-1.7-0.7
	C45.2,170.2,44.9,170.8,44.4,171L44.4,171z"/>
<path d="M209.3,66.9C208.9,65.3,209.9,68.9,209.3,66.9z"/>
<path d="M130,71c0-0.3,0.2-0.1,0.2,0c0.3-0.4,0.9-0.4,1.2-0.7c1.1,0.5,0.9,1.3,0.5,2.4c-1.4,0-0.6-0.4-1.9-0.7
	C129.6,71.4,130.6,71.1,130,71z"/>
<path d="M76.6,88.6c0.4,0.1,0.5-0.2,0.5-0.5c1.2-0.1,1.8,0.5,1.7,1.7c-0.7,0.6-1.4,0-1.9,0.5C76.6,90.1,76.6,89.5,76.6,88.6z"/>
<path d="M60.5,102.3c0.2,0,0.2,0.3,0.2,0.5c0.2-0.6,1.1-0.5,1.9-0.5v1.4c-0.3,0-0.4,0.1-0.5,0.2c-0.8,0.4-1-0.9-1.2-0.2
	C60.6,103.5,60.7,102.7,60.5,102.3z"/>
<path d="M53.8,104.4c0.5,0.2-0.4,1-0.5,1.4c-1-0.4-1.9-0.9-1.4-2.2c0.8,0.3,0.6-0.4,1-0.5C53.9,102.7,53.3,105.2,53.8,104.4z"/>
<path d="M73,113.1c0.9-0.1,1.6,0,2.2,0.2v1.2c-0.6,0.8-1.7-0.1-2.2,0.2C72.6,114.7,73.2,113.8,73,113.1z"/>
<path d="M81.6,141.9c0.3,0.6-0.1,1.2-0.2,2.2h-1.9c-0.5-0.7-0.4-1-0.2-1.9C80.1,141.7,81.1,142.4,81.6,141.9z"/>
<path d="M181.9,148.2c0.2-0.3,1.2-0.3,1.7,0.2c0.1,0.9-0.5,1.1-0.7,1.7c-0.2-0.1-0.4-0.3-0.5,0c-0.5-0.3-0.6-0.8-1-1.2
	C181.4,148.6,182.7,148.4,181.9,148.2L181.9,148.2z"/>
<path d="M113.1,193.2c-3.7-2.3-9.2-3.1-13.2-1.9c-0.9,1.1-1.6,2.3-2.4,3.4c-0.3-0.3-1.6,0.4-1.9,0c0,0,0-0.5,0-0.5
	c-0.7-0.1-1.2,0.2-1.7,0c-0.5-0.2-1.2-0.8-1.9-1c-0.6-0.1-1.3,0.2-1.9,0c-0.4-0.1-0.8-0.7-1.2-0.7c-1-0.1-1.9,0.4-2.9,0
	c-1.4,1-2.4,2.4-3.6,3.6c-1.5,0.3-3.2-0.9-4.1,0c-2.8-2.1-6.5-2-9.9-0.7c-1.4,0.9-1.4,2.2-2.6,2.6c-2.2,0.7-4.7-1.9-7.2-2.2
	c-2.3,0.4-4.7,1.9-7.2,2.2c-1.1,0.1-1.1,0-1.9,0c-0.3,0-0.5-0.3-0.7-0.2c0,0-0.3,0.5-0.2,0.5c-0.4,0-0.8-0.5-1.2-0.5
	c-0.7,0-1.5,0.5-2.2,0.5c-0.3,0-0.8-0.4-1.2-0.5c-2.2-0.4-4.9-0.1-7.5-0.2c-1.4-0.1-3.2-0.2-4.8-0.2c-2.4,0-4.5,1.3-5.3-1
	c0.2-1.9,3-1.4,3.4-3.1c1.8-0.6,3.8-0.7,5.5-1.7c2.3,0.1,4.1-1.2,6.3-1.7c1-0.2,2,0,3.1-0.2c0.5-0.1,0.3-0.4,0.7-0.5
	c0.4-0.1,1.1,0.1,1.4,0c2-0.6,3.8-2.1,6.3-1.7c2.7-0.6,4.9-2.2,7.7-1.4c2.6-1.2,5.8-1.4,9.1-2.2c1.2-0.3,2.3-0.6,3.6-0.7
	c2.9-0.2,5.7-0.2,9.6-0.7c2-0.3,4-1.3,6-0.7c0.7-0.8,3.5-0.1,4.3-1.4c0.9,1.1,2.2-0.6,3.4,0.2c0.6,0.1,0.2-0.9,1-0.7
	c2.3,0.3,5.8-0.5,9.4-0.5c0.5,0.1,0.3-0.5,0.7-0.5c0.9,0.2,2.4-0.3,2.9,0.2c0.4-0.7,0.9,0.1,1-0.7c2.8,0.3,5.1-0.4,10.1,0
	c1.1-1,4,0,4.3-0.7c2.8,0,8.7,0,10.1-0.7c2.3-0.2,4.3,0,6.3-0.2c6-0.6,10.9-2.1,18.5-1c1-0.3,1.9-0.5,2.9-0.2
	c0.5,0.1,0.3-0.5,0.7-0.5c6.1,0,8.4-1.6,13.9-1.7c0.3-0.1,0.1-0.7,0.5-0.7c2.6-0.4,3.8-0.1,5.8-0.7c1.1-0.3,1.6-1.2,3.1-1
	c0.5,0.1,0.3-0.5,0.7-0.5c1.5-0.1,3,0,4.3-0.2c0.4-0.1,0.6-0.4,1-0.5c1.9-0.6,3.6-0.3,6.7-0.7c0.3,0,0.6-0.5,1-0.5
	c1-0.1,2.7,0.2,3.4-1c0.7,0.5,1.6-0.2,2.4,0.5c0.5-1,1.9-0.3,2.6-0.5c0.3-0.1,0.5-0.7,0.5-0.7c0.3,0,0.4,0.5,0.7,0.5
	c0.3,0,0.3-0.4,0.5-0.5c0,0,1.9-0.2,1.9-0.2c0.2,0,0.2,0.5,0.2,0.5c0.8-0.1,1.6-0.5,2.4-0.5c2.1-0.1,4.8,0.8,7-0.5
	c1.3,0.2,2.2,0.5,3.4,0.5c0.3,0,0.7-0.5,1-0.5c0.6-0.1,1.5,0.3,2.2,0.2c0.7-0.1,1.3-0.7,1.9-0.7c0.6-0.1,1.1,0.2,1.9,0.2
	c0.3,0,0.3-0.4,0.5-0.5c0.4-0.1,1.1,0.5,1.7,0.5c2.2,0.1,4.3-0.1,6.3,0.5c0.8,0.2,1.7-0.3,2.4,0.5h2.6c0.7,1,2,0.5,3.6,1.4
	c1.1,0.7,1.5,1.9,2.9,2.4c0.2,2,2.2,3.2,2.4,5.3c0.2,2.3-1.2,4.4-0.7,6.7c-0.2,0.8-0.9,1.4-1.4,2.2c-0.5,0.8-1,2.1-1.7,2.6
	c-0.4,0.3-1.4,0.4-1.9,0.7c-0.8,0.4-1.3,0.9-1.9,1.4c-1.4,0-2.5,0.3-2.9,1.4c-1-0.2-2.1,0-3.1,0.2c-0.2,0.1-0.2,0.4-0.5,0.5
	c-1.1,0.4-2.8,0.3-4.1,0.7c-0.4,0.1-0.9,0.4-1.2,0.5c-2.2,0.3-3.7-0.7-5.3,0.2c-5.1,0.2-9.2-0.4-14.2,0.2c-1.3,0.2-0.3,0.3-1.4,0
	c-0.9-0.2-1.4,0-1.9,0.5c-0.2-0.2-0.7-0.1-0.7-0.5c-0.3,0-0.4,1-0.5,0c-2.4,1.2-7.5-0.9-10.3,0.5c-1.4-0.5-6.5,0.5-8.4,0.5
	c-2.4,0-5.1-0.2-6.7-0.7c0.1,0-0.1,0.4-0.2,0.2c0,0,0-0.5,0-0.5c-0.5-0.1-1.1,0.3-1.7,0.2c-2.8-0.2-5.1-1.1-8.4-1.2
	c-1.9-1.5-5.5-2.5-7.7-3.4c-0.5-0.7-1.2-1.2-1.9-1.7c-4.5,0.4-7.4-1.8-12,0c-3.4,0-4.5,0.8-6.5,2.6c-1.9-0.7-5.5,1.5-7.2-1.2
	c-3.1,0.3-4.2,0.2-6.7,1c-0.7,0.2-1.4,0.3-1.9,0.5c-0.4,0.2-0.7,0.8-1.2,1c-0.3,0.1-1-0.1-1.4,0c-1.1,0.3-1.5,1-1.9,1
	c-2.2,0-3-2.3-5-3.4C117.2,188.3,115.6,190.9,113.1,193.2L113.1,193.2z M181.7,187.6c1.9,0.1,5.8,1.4,7.2,0.7c0.4-0.2,0.6-0.1,1-0.2
	c1.6,0.9,3.2,0.6,4.8,0.7c0.2-1.1-0.1-1.3,0.5-1.9c1.9-0.3,2.5,0.7,1.7,1.9c5.9,0.3,12.7,0.2,16.4-0.2c0.7-0.1,0.9,0.3,1.7,0.2
	c0.2,0,0.6-0.5,1-0.5c7.3-0.3,13.3-0.9,20.4-1.4c1-0.9,3.4-0.4,4.3-1.4c2.6-0.2,6.8-0.8,7.7-3.4c0.8,0.2,0.8-0.6,1.7-0.7
	c0.4-1.6,2-2.6,1.9-4.6c0-1-1.1-1.6-1-2.9c-2.3-1-3.7-2.8-5.8-3.6c-0.6-0.2-1.6,0-2.4-0.2c-0.8-0.3-1.4-1-2.2-1.2
	c-1.3-0.3-3,0.2-4.6,0c-1.7-0.2-3.3-1.2-5-0.2c-0.9-0.6-1.5-0.1-2.4-0.7c-2.1,0.7-6.1,0.1-8.7,0.2c-0.3,0-0.4,0.4-0.7,0.5
	c0.1,0-0.2-0.5-0.2-0.5c0,0-0.6,0.5-0.7,0.5c-0.1,0,0.1-0.5-0.2-0.5c-0.1,0,0,0.5-0.2,0.5c-0.3,0-0.2-0.5-0.5-0.5c0,0,0,0.5-0.2,0.5
	c-0.8,0.1-2.4-0.6-3.6-0.2c-0.2,0.1-0.2,0.4-0.7,0.5c-3.4,0.5-4.9,0.7-7.7,0.7c-1.2,1.1-3,0.5-4.6,0.7c-3,0.3-6.1,1.4-7.7,1.4
	c-0.1,0.8,0.3,0.9,0.5,1.4c-0.5,0.2-0.4,1.1-1.2,1c-1,0-1.1-1.4-1-2.2c-1.9,0.5-2.3-0.1-3.4,1c-0.3-0.1-0.4-0.4-0.7-0.5
	c0,1-1.7,0.4-1.9,1.2c-2.4,0-3,0.8-5.5,0.7c-2.4,1.7-5.9,2.2-7.2,5c0.5,0.5,1.3-0.4,1.7,0.5c1,1.5-1.8,1-1.7,1.7
	c0.1,0.6,0.9,0.8,2.2,0.7c0.2,0.5,0.1,1.3,0.7,1.4c0.2-1.3,2,0.8,1,1.4c-1.9,0.7-0.5-1.9-2.2-1.4c0.4,1.7,1.8,3.5,3.6,2.9
	c-0.7,0.1-0.5-0.8-0.7-1.2c0.6-0.1,0.4-0.8,1.2-0.7c0.1,0.4,0.7,0.4,1,0.7c0.4,1.4-1,0.9-1,1.9C179,188.1,180.4,187.6,181.7,187.6
	L181.7,187.6z M159.1,177.1c-2.6-0.1-4.2,0.2-6-0.2c-0.1,0.2,0,0.5-0.2,0.5c-3.1,0.2-5.7,1.1-9.4,0.7c-0.4,0.2-0.7,0.6-1.2,0.7
	c-2.9-1.1-5.8,0.6-8.9,0.5c-1.5-0.1-2.2,0-3.1,0.2c-2,0.5-4.8-0.5-5.3,0.5c-2.5-0.8-6.8,0.3-10.3-0.5c0.2,0.6-0.5,0.5-0.7,0.7
	c-1.9-0.8-4.3,0.5-6.3,0c-0.5,0.1-0.8,0.5-1.2,0.7c-3.7,0.2-7.6,0.4-11.1,1.4c-0.9,0.3-2,0-2.9,0.2c-0.4,0.1-0.3,0.3-0.7,0.5
	c-0.2,0.1-0.5-0.1-0.7,0c-0.3,0.1-0.2,0.4-0.5,0.5c-1.4,0.3-3.2-0.2-5.5,0.2c-1,0.2-2,0.9-3.1,1c-0.5,0-1-0.2-1.4-0.2
	c-1.6,0-2.8,0.8-4.3,1c-0.4,0.1-1-0.3-1.4-0.2c-1.5,0.2-2.9,1.1-4.3,1.4c-2.4,0.6-4.8,0.3-7.2,0.7c-0.9,0.2-1.7,0.8-2.6,1
	c0,0-0.6-0.3-1-0.2c-1,0.1-2.2,0.8-3.4,1c-0.8,0.1-2.4,0.1-2.6,0.2c-0.2,0.1,0.1,0.4-0.2,0.5c-1,0.2-2.1-0.1-3.1,0
	c-1.5,0.2-3.2,1.2-4.8,1.7c-0.3,0.1-0.8-0.1-1.2,0c-0.6,0.2-1.2,0.8-2.2,0.2c-0.1,0.9-1.2,1-1.9,1.2c-1,0.3-2.6,1.1-3.8,0.7
	c-0.5,0.8-2,0.6-1.9,1.9c1.5-0.3,2.8,0.5,4.1,0.5c0,0,0-0.5,0-0.5c0.1-0.1,0.4,0.3,0.5,0.2c0.8-0.2,3.2-0.3,4.6,0
	c0.3,0.1,0.6,0.4,1,0.5c1.6,0.2,3.2,0.1,4.6,0c1.5-0.1,2.5-0.6,3.1-0.7c0.9-0.2,1.7-0.5,1.9-0.5c0.3,0,0.4,0.4,0.7,0.2
	c0.7-0.2,1.3-1.1,2.2-1.2c1.8-0.3,4.2,0.9,5.8,1.2c1.5-1.1,3.7-1.6,5.3-2.6c0.1,1,0.4-0.5,1,0.5c0.1-1,1.4-0.2,1.7-0.2
	c0.5-0.1,0.5-0.5,1-0.5c1.1-0.1,2.8,0.1,3.4,0.2c0.7,0.2,1.3-0.3,1.4-0.2c0.7,0.2,0.8,1.1,1.7,1.2c1.2,0.2,2.3-0.6,3.1-1.7
	c-0.1,0.8,0.4,0.2,0.7,0c0.5-0.3,1-0.6,1.2-0.7c2.3-0.9,3.5-0.6,6.7-0.7c-0.1,0.5,0.3,0.5,0.5,0.7c2.5,0,2.8,0.7,5.3,0.5
	c1.9-2.9,6.4-2.6,9.4-3.4c0.7,0.6,2.3,0.3,3.6,0.7c0.5,0.2,0.9,0.6,1.4,0.7c1.7,0.4,1.6-1.1,2.9-0.7c0.5-1.9,3.6-1.6,5.3-1.7
	c0.4,0,1-0.4,1.4-0.5c4.1-0.6,7.6,0.9,11.1,1.7c1.4-0.8,2.6-2.3,4.1-1.7c0-0.3,0-0.7,0.2-0.7c3.3-0.4,5.6,0.4,10.1,0.7
	c0.6,0.5,1.6,0.6,2.2,1.2c2.5-1.9,4.1-2.7,7.7-2.6c0.3-0.7,1.4-0.1,1.9-1c0.3,0.2,0.6,0.3,1.2,0.2c0.8-1,1.7-0.2,3.1-0.7
	c1.2-1.3,0.1-3.5,1-5C160.8,178.1,160.1,178.2,159.1,177.1L159.1,177.1z M163.2,177.3c0.2,1.1,1.4,1.5,1.9,2.4c0.1,0.2-0.1,0.7,0,1
	c0.4,0.9,1.3,1.8,1,3.1c0.9,0.3,0.8,1.8,1.9,1.9c2.2-0.8,1.3-5,1-7.7C167.1,177.4,166,177.1,163.2,177.3z M240.1,187.6
	c-0.8,1.1-2.4,0.6-3.8,0.7c-0.3,0-0.6,0.4-1,0.5c-4.9,0.9-8.1,0.2-13.2,1c-0.4,0-0.2,0.6-0.7,0.5c-1.9,0-3.7-0.1-5.3,0
	c-2.3,0.1-7.1,1-8.4,0.2c-1.2,1.3-3-0.6-3.8,1c3.1,0.4,7.1,0.5,10.1,0c3.1,0.8,5.6,0.2,10.3-0.2c0.2,0.4,0.8,0.5,1.4,0.5
	c1.9-0.7,7.6-0.6,11.5-0.7c0.6-0.8,2.3-0.5,2.9-0.7c0.5-0.2,0.8-0.9,1.4-1.2c0.4-0.2,1.3,0,1.9-0.2c0.7-0.3,1.7-0.9,2.9-0.7
	c1-1.1,3.1-1.2,3.6-2.9C246,186.4,243.8,188.2,240.1,187.6L240.1,187.6z M191.8,191v-0.5c-0.5-0.1-0.5,0.3-0.7,0.5
	c-2.4-1-5.1-0.5-6.5-0.5c-2.6-1.4-5.9-0.5-8.7-1.7c-0.3-0.4-1-1.1-1.4-0.7c0.3,2.4,2.7,2,4.6,2.4c1.6,0.3,3.5,1.2,5.3,1.4
	c2.4,0.3,4.9-0.3,6.5,0.7c0.3-0.4,0.8,0.3,1.2-0.5c0.3,0.1,0.4,0.4,0.7,0.5c0.2-0.5,2.3-0.7,3.1-0.7c3.2-0.2,7,0.4,7.7-1
	C200.4,191.4,195.9,190.6,191.8,191L191.8,191z"/>
<path d="M193.5,178.7c-0.4-0.8-0.2-1.6,0.2-2.2c0.8,0.2,1.1,0.8,1.4,1.4C194.7,177.9,194.5,178.8,193.5,178.7z"/>
<path d="M229.8,180.2c0.3,1.3-1.7,2.5-2.2,0.5c0-0.7,0.6-0.9,1-1.2C229.4,179.1,229.5,180.8,229.8,180.2z"/>
</svg>
