<?xml version="1.0" encoding="utf-8"?>
<!-- Generator: Adobe Illustrator 17.0.0, SVG Export Plug-In . SVG Version: 6.00 Build 0)  -->
<!DOCTYPE svg PUBLIC "-//W3C//DTD SVG 1.1//EN" "http://www.w3.org/Graphics/SVG/1.1/DTD/svg11.dtd" [
	<!ENTITY ns_flows "http://ns.adobe.com/Flows/1.0/">
	<!ENTITY ns_extend "http://ns.adobe.com/Extensibility/1.0/">
	<!ENTITY ns_ai "http://ns.adobe.com/AdobeIllustrator/10.0/">
	<!ENTITY ns_graphs "http://ns.adobe.com/Graphs/1.0/">
]>
<svg version="1.1" id="Layer_1" xmlns:x="&ns_extend;" xmlns:i="&ns_ai;" xmlns:graph="&ns_graphs;"
	 xmlns="http://www.w3.org/2000/svg" xmlns:xlink="http://www.w3.org/1999/xlink" xmlns:a="http://ns.adobe.com/AdobeSVGViewerExtensions/3.0/"
	 x="0px" y="0px" width="256px" height="256px" viewBox="0 0 256 256" style="enable-background:new 0 0 256 256;"
	 xml:space="preserve">
<path d="M24,237.7c0-0.2,0.3-1.2,0.7-2.2c0.4-1.1,0.6-1.9,0.4-1.9c-0.2,0-0.5-0.5-0.7-1l-0.4-1l-0.5,1.2c-0.5,1.2-1,1.6-1,0.6
	c0-0.8-0.6-0.7-0.8,0.2c-0.3,1-1,0.5-0.9-0.5c0-0.4,0-1.2,0-1.7l-0.1-0.9l-0.8,1c-0.4,0.5-1,1-1.4,1c-0.5,0-0.6-0.3-0.5-1.5
	c0.1-0.9,0-1.5-0.3-1.5c-0.2,0-0.4,0.5-0.4,1.2c-0.1,2.9-0.1,3-1,3.1c-0.7,0.1-0.8-0.1-0.8-0.9c0-0.8-0.1-0.9-0.5-0.5
	c-0.4,0.4-0.6,0.2-0.9-0.8c-0.4-1.2-0.4-1.2-0.2,0.2c0.1,0.8,0.2,1.6,0.3,1.8s-0.1,0.4-0.4,0.5c-0.4,0.1-0.6-0.7-0.9-3.1
	c-0.1-0.7,0.2-1,1.6-1.5c2.4-0.8,2.5-1,2.2-3.1c-0.2-0.9-0.2-1.8-0.1-1.9c0.4-0.3,0.7,0.2,0.7,1.2c0,1.2,0.4,2.6,0.7,2.6
	c0.1,0,0.5-1,0.9-2.2s0.8-2.2,1-2.2c0.5,0,0.5,0.3-0.2,2.1c-0.3,0.9-0.5,1.7-0.4,1.7c0.1,0.1,2.4-1,3.8-1.9l0.8-0.5l-1.3-1.8
	c-0.7-1-1.5-1.7-1.7-1.6c-0.4,0.3-1.8-0.9-1.8-1.5c0-0.2-0.2-0.5-0.5-0.6c-0.8-0.3-1.8-3.8-1.8-6.4c0-2.8,0.4-5.2,0.8-5
	c0.5,0.3,1.2-2.7,1.5-6.2c0.1-1.8,0.5-3.9,0.8-4.7c0.5-1.2,1.3-4.2,1.9-7.2c0.1-0.4-0.2-0.8-0.6-1c-0.8-0.4-0.9-1.4-0.2-1.5
	c0.3,0,0.2-0.2-0.2-0.4s-0.6-0.6-0.6-1c0-0.5,0.3-0.5,1.8-0.4c1.9,0.2,2.6-0.1,2.6-1.3c0-0.4,0.3-0.9,0.7-1.1c0.8-0.5,2-3.9,1.9-5.4
	c-0.1-1.1,0.6-3.3,1.1-3.3c0.2,0,0.3-1.3,0.3-2.9c0-1.6,0.2-3.3,0.4-3.8c0.3-0.8,0.3-0.9-0.5-0.9c-0.5,0-1-0.2-1.1-0.4
	c-0.2-0.3,0.2-0.4,1.2-0.2c1.2,0.2,1.5,0.1,1.3-0.3c-0.2-0.4-0.8-0.5-2.1-0.5c-1.3,0-2.1-0.2-2.4-0.5c-0.5-0.6-0.3-0.7,1.8-1.1
	c0.7-0.1,1.9-0.3,2.7-0.4s1.5-0.5,1.7-0.8c0.4-0.7-1.2-8.9-1.8-9.1c-0.2-0.1-0.3-0.3-0.2-0.4c0.1-0.2-0.1-0.6-0.5-1
	s-0.6-0.8-0.5-0.9c0.1-0.1,0-0.2-0.2-0.2c-0.2,0-0.4-0.2-0.4-0.5c0-0.3-0.4-1.3-0.8-2.2c-0.8-1.7-0.9-1.8-2.1-1.5
	c-1.8,0.3-2.1,0.3-4.4,0.3c-1.7,0-2.2-0.2-3.3-1.2c-1.2-1.1-1.2-1.1-0.6-0.2c0.7,1.2,0.8,1.4,0.2,1.4c-0.3,0-0.5,0.6-0.6,1.7
	c-0.1,0.9-0.3,1.8-0.5,2c-0.3,0.2-0.3,0.3,0,0.3c0.2,0,0.4,0.3,0.3,0.6c-0.1,0.4-0.2,1.3-0.3,2c-0.2,0.9-0.4,1.3-0.7,1.1
	c-0.3-0.2-0.3-0.1,0,0.3s0.3,0.7,0.1,0.8c-0.2,0.1-0.4,1.9-0.4,4.3c0,4.3,0.9,9.1,2.5,12.8c1.9,4.4,2.1,6.3,1.3,14.1
	c-0.2,2-0.2,2,0.9,2.4c1.2,0.4,1.3,0.7,0.8,1.5c-0.3,0.4-0.5,0.5-1.4,0.1c-1-0.4-1.1-0.4-1.5,0.9c-0.5,1.7-4.2,9.3-4.7,9.6
	c-0.2,0.1-0.5,0.8-0.6,1.4c-0.3,1.4-2.2,4.6-2.8,4.6c-0.3,0-0.3-0.4-0.1-1.2c0.3-1.3,1.1-2.8,1.6-2.8c0.2,0,0.3-0.4,0.3-1
	c0-0.9,0-0.9-1.4,0.5c-0.8,0.8-1.5,1.7-1.5,2c-0.1,0.3-0.2,0.8-0.3,1.1c-0.1,0.3-0.3,2.1-0.4,4c-0.1,1.9-0.4,4.8-0.7,6.4
	c-0.3,1.6-0.6,3.6-0.7,4.5c-0.1,1.5,0,1.6,0.8,1.7c2.2,0.1,2.6,0.2,3.8,1.5c0.9,0.9,1.3,1.6,1.3,2.4c0,0.9,0.1,1,0.6,0.8
	c0.5-0.2,0.6-0.1,0.4,0.4c-0.1,0.4-0.2,0.7-0.2,0.8s-0.2,0.2-0.5,0.2s-0.9-0.5-1.3-1.2c-0.4-0.7-1.4-1.6-2.1-2.2
	c-1.2-0.9-1.4-1-1.7-0.5c-0.6,0.8-0.7,0.7-2-0.9c-1-1.3-1.1-1.6-0.7-1.9c0.6-0.4,1.4-4.8,1.7-9.3c0.2-2.5,0.1-2.7-0.4-2
	c-0.6,0.7-0.6,0.7-0.6-0.3c0-0.5,0.2-1.1,0.4-1.2c0.3-0.2,0.2-0.4-0.4-0.6c-0.4-0.2-0.8-0.6-0.8-1c0-0.9-0.8-1.2-1.4-0.4
	c-0.6,0.8-0.6,0.1,0.1-1.8c0.3-0.9,0.5-2.1,0.5-2.7c0-1.4-1-3-2-3c-0.7,0-0.7-0.2-0.7-3.1c0-1.7-0.2-4.2-0.5-5.6
	C-0.3,188.6,0,182.5,1,179c0.8-2.8,2.3-5.9,4.2-8.5c2.2-3.1,3-6.2,3.2-12.3c0.1-3,0-8.7-0.1-12.7s-0.4-11.3-0.5-16.2
	c-0.1-4.9-0.3-10.6-0.4-12.6c-0.3-5.4,0.6-14.9,2.4-27.5c0.8-5.1,4.3-13.9,7.2-18c4.2-5.9,8.6-8.5,20.1-11.8
	c6.1-1.7,8.3-2.2,13.3-2.6c2.6-0.2,4.8-0.5,4.9-0.5c0.5-0.3,10.8-0.7,15.2-0.6c5.4,0.1,8.6,0.6,16.5,2.4c15.5,3.7,15,3.6,20.2,3.3
	c10.1-0.5,17.6-1.8,22.1-3.7c1.2-0.5,1.3-0.7,1.4-2.3c0.4-7.6,0.6-9.1,1.7-12.4c1.8-5.1,6-7.2,15.5-7.6c4.7-0.2,5.6-0.1,8.3,0.5
	c1.7,0.4,3.3,0.8,3.6,0.8c1,0,4.2,1.7,5.1,2.6c0.5,0.5,1.5,1.5,2.2,2.2c1.3,1.4,5.4,3.5,7.9,4.2c3.1,0.8,5.5,1.2,6.3,1.1
	c0.8-0.1,0.8-0.2-0.7-1.1c-1.7-1-5.9-5.2-7.1-7c-0.4-0.6-0.9-1.3-1.1-1.6c-0.8-0.8-2-5.6-2.2-8.4c-0.2-3.2,0.9-7,2.6-9.4
	c1.9-2.5,2.2-2.1,2.2,3.1c0,4.1,0.1,4.7,0.9,6.6c2,4.2,7.9,8.7,12.5,9.5c1.2,0.2,2.8,0.5,3.5,0.7s2,0.3,2.7,0.3
	c1.3,0,1.5-0.1,2.3-1.8c0.7-1.4,1.1-1.8,1.6-1.7c0.4,0.1,1.6-0.2,2.6-0.7c1.1-0.5,2.5-1,3.1-1.1c2.1-0.5,9.9-0.4,11.7,0.1
	c1.4,0.4,2.2,0.4,4.2-0.1c2.8-0.6,6-0.7,7.6-0.2c0.6,0.2,1.5,0.4,2,0.6c1.2,0.3,2.7,1.7,3.2,3c0.3,0.7,0.5,0.8,1.1,0.7
	c0.4-0.1,0.7-0.1,0.7,0.2c0,0.9,5-0.6,9.4-2.9c4.4-2.2,7.1-5.8,7.1-9.5c0-1.9-1-5.6-1.7-6.3c-0.7-0.7-0.9-1.9-0.2-1.8
	c4.3,0.9,6.9,5.8,6.4,11.9c-0.3,3.7-1,5.7-2.9,8.2c-3.7,4.8-9,7.6-16.8,9l-1.4,0.2l0.9,0.6c0.6,0.4,1.6,0.6,3.1,0.6
	c1.9,0,2.5,0.2,5.1,1.8c7.3,4.5,11.6,11.4,10.9,17.7c-0.7,6.8-2.4,10.2-5,10.2c-1.1,0-1.5-0.4-3-3.3c-1.1-2.2-1.3-2.4-4.5-4.1
	c-4.2-2.3-5.4-3.5-6-5.8c-0.3-1.1-0.8-2-1.3-2.3l-0.8-0.5l0.2,6c0.2,5.8,0.2,6.1-0.6,7.7c-0.6,1.2-0.8,2.2-0.7,3.8
	c0,1.1,0.1,3.8,0.1,5.8c0.1,4.2-0.2,4.8-3,6c-0.9,0.4-1.8,1.1-2.1,1.5c-0.3,0.5-1,1-1.6,1.3c-1,0.4-1,0.5-1.3,4.1
	c-0.4,6.9-2.1,11-6.2,15.4c-2.7,2.9-3.7,5.8-5.2,14.2c-1.3,7.6-2.2,10.9-3.4,13.5c-0.6,1.2-1.1,2.4-1.1,2.6s-1.3,1.2-2.8,2.3
	c-2.9,2-4.1,3.6-4.2,5.9c0,0.6-0.1,1-0.3,1c-0.1,0-0.5,0.5-0.7,1.1c-0.5,1.1-3.4,3.7-4.7,4.1c-0.4,0.1-1.6,1.5-2.8,3
	c-1.2,1.5-2.2,2.9-2.4,2.9s-0.3,0.3-0.3,0.6c0,0.3-1.4,1-3.2,1.6c-1.8,0.6-3.5,1.4-3.9,1.6c-1.8,1.1-5.2,2-7.3,1.9
	c-1.2,0-2.4,0-2.5,0.2c-0.1,0.1-0.5,2.3-0.8,4.9c-0.5,4.3-1.8,10.3-2.7,11.9c-0.2,0.4-0.5,1.8-0.7,3.2c-0.2,1.4-0.6,3-0.9,3.6
	c-1.2,2.3-0.8,12.4,0.7,17.4c0.5,1.7,5.1,9.1,6.7,10.9c0.4,0.4,1.2,1.5,1.8,2.4c0.6,0.9,1.6,2.2,2.1,2.9l1,1.2l0.9-0.7
	c0.5-0.4,1.4-1.4,2-2.2c1-1.4,1-1.6,0.6-2.8c-0.4-1.2-0.4-1.4,0.2-1.8c0.8-0.6,1.5-0.6,1.8-0.2c0.1,0.2-0.2,0.4-0.8,0.6l-1,0.3
	l0.8,0.7l0.8,0.7l-1.3,3.3c-2,5-1.7,6.1,0.8,3.1c0.8-0.9,1.6-1.6,1.8-1.6c0.6,0,0.6,1.2,0.1,2.2c-0.4,0.7-0.3,0.7,0.9-0.1
	c1.8-1,2.3-0.7,1,0.6c-0.6,0.6-1.2,1.4-1.3,1.6c-0.2,0.4-0.3,0.4-0.4,0.1c-0.1-0.3-0.7-0.5-1.2-0.5c-0.6,0-1.1-0.2-1.2-0.5
	c-0.1-0.3-0.3-0.3-0.8,0.2c-1.6,1.6-2.2-0.2-1.1-3.4l0.6-1.6l-1.4,1.4c-1.2,1.2-1.3,1.5-0.9,2.1c0.6,1,0.6,1.1-0.6,1.1
	c-2,0-3.2,0.3-4.8,1.3c-1.7,1-2.9,1.2-2.9,0.6c0-0.2,0.4-0.4,0.9-0.6c1.6-0.4,0.6-0.9-1.9-0.9c-2,0-2.3,0.1-2.2,0.5
	c0.1,0.3,0,0.5-0.3,0.5c-0.3,0-0.6-0.2-0.8-0.5c-0.4-1.1-1.6-0.9-5,0.8c-2.7,1.3-3.6,1.6-3.9,1.3c-0.3-0.3-0.3-0.5,0.3-0.7
	c3.2-1,7.5-3.2,7.4-3.7c0-0.3-2.6-1.6-2.8-1.4c-0.1,0.1,0.1,0.5,0.3,0.9c0.7,1.1-0.2,1.7-2.6,1.7c-1.1,0-2.2-0.1-2.4-0.3
	c-0.2-0.1-0.7,0.2-1.2,0.7c-0.9,1.1-1.2,1.1-2.1,0.2c-0.6-0.6-0.7-0.7-1.4-0.2c-0.4,0.3-1.1,0.5-1.5,0.5c-0.5,0-0.6-0.2-0.4-0.8
	c0.4-1.5,0.4-1.9-0.3-2c-0.5-0.1-0.6,0-0.4,0.4c0.1,0.4,0,0.6-0.3,0.6c-0.3,0-1,0.7-1.6,1.4c-0.6,0.8-1.3,1.5-1.5,1.5
	c-0.7,0-0.5-0.4,1-2.1l1.4-1.6l-0.7-1.8c-0.4-1-0.7-1.8-0.7-1.9s-0.4-0.6-0.9-1.2c-0.5-0.6-0.9-1.2-0.9-1.4c0-0.2-0.3,0-0.7,0.5
	s-0.9,0.8-1.1,0.8c-0.3,0-2.6-2.4-2.6-2.8c0-0.1-0.1-0.8-0.2-1.4c-0.2-1.6,0.5-9.5,1.1-12.2c0.8-3.7,1.3-8.6,1.3-13.1
	c0-4.7-0.4-7.7-1.4-10.4c-2-5.4-2.4-8.4-1.7-12.6c0.6-3.2,0.7-8.2,0.3-8.9c-0.5-0.7-4.7-2.7-7.1-3.3c-3.2-0.8-7.2-0.3-14.9,1.8
	c-1.1,0.3-3.7,0.7-5.8,0.8c-6.5,0.4-9.2,1.3-12.2,4.3c-1.6,1.5-2.4,2.6-2.9,4c-0.4,1.1-0.7,2.1-0.6,2.3c0.1,0.2,0,0.7-0.1,1.1
	c-0.4,1.5-6.8,2.2-9.5,0.9c-0.8-0.4-2.9-2-4.6-3.7c-1.7-1.7-3.9-3.5-4.9-4.2c-2.2-1.4-6.2-3.5-6.8-3.5c-0.5,0-8.6-3.1-9.6-3.7
	c-0.9-0.5-3.7-0.8-4.7-0.6c-0.7,0.2-1,0.6-1.3,1.9c-0.3,0.9-0.6,1.6-0.7,1.6c-0.1,0-0.5,0.8-0.9,1.7c-1,2.7-1.2,3-2.5,5.9
	c-0.7,1.5-1.5,3-1.8,3.3c-3,3.1-5.2,7.5-6.7,13.4c-1.4,5.4-1.7,8.2-1.6,14.9c0,8.7,1.1,14.6,3.1,18.3c2.1,3.6,3.9,6.5,4.7,7.2
	l0.8,0.8L56,227c1-0.8,1.9-1.3,2-1.2c0.1,0.1-0.4,1-1.2,2c-0.8,1-1.4,2-1.4,2.2c0,0.6,2.9,5,3.3,5c0.2,0,1-0.7,1.9-1.5
	c1.5-1.4,5.1-4,5.5-4c0.5,0,0.2,0.9-0.7,1.9c-1.1,1.3-1,1.6,0.3,1c1.3-0.6,2.5,0.5,2.1,1.8c-0.2,0.5-0.5,0.8-0.7,0.8
	s-0.3,0.1-0.2,0.2c0.1,0.1,0.8-0.1,1.5-0.5c1.4-0.8,2.5-0.5,2.2,0.6c-0.2,0.8-1,1-1.4,0.4c-0.2-0.2-0.5-0.2-0.9,0
	c-1,0.6-2.3,0.5-2.1-0.1c0.3-0.9-0.7-2-1.7-1.8c-1,0.2-1.2-0.2-0.5-1.4c0.6-1.2-0.2-0.8-2.3,1.2c-1.3,1.2-2.1,2.2-2.1,2.7
	c0,1.1-1,1-1.6-0.2c-0.5-1.1-0.5-1.1-2.6-0.3c-1.8,0.7-3.2,0.4-3.2-0.6c0-0.7,0-0.8-0.5-0.1c-0.6,0.9-1.6,0.5-1.6-0.5
	c0-0.4,0.5-1.5,1.1-2.3c0.7-0.9,0.2-0.5-1.3,1c-1.3,1.4-2.6,3-2.9,3.6c-0.5,1-0.8,1.3-1.2,0.7c-0.3-0.4,0.9-1.9,3.9-5.1
	c2.1-2.1,2.4-2.6,1.4-2.1c-0.6,0.3-1.3,0.9-1.4,1.3c-0.1,0.4-0.8,1.1-1.5,1.7c-0.7,0.5-1.7,1.7-2.2,2.6c-1.1,1.9-1.4,2-1.2,0.5
	c0.1-0.7,0-1.1-0.3-1.1c-0.3,0-0.5,0.2-0.5,0.4s-0.2,0.4-0.5,0.4s-0.5-0.2-0.5-0.5s-0.2-0.5-0.4-0.5s-0.4,0.3-0.4,0.7
	c0,0.6-0.2,0.7-1.1,0.7c-1,0-1.1-0.1-0.9-0.8c0.6-2.5,0.7-2.8,0.3-2.8c-0.4,0-1.8,2-2.3,3.4c-0.3,0.8-1.2,0.9-0.9,0.1
	c0.1-0.3,0.8-1.5,1.5-2.6l1.3-2l-0.7-1.7c-0.4-0.9-0.9-1.8-1.1-1.8c-0.5-0.2-2.8,3-3.6,4.9c-0.6,1.5-1.2,2-1.2,1.2
	c0-0.6,1.3-3.1,2.9-5.3c1.1-1.6,1.4-2.2,1-2.5c-0.7-0.7-2.2-1-2.7-0.5c-0.3,0.2-0.6,0.2-1-0.2c-0.6-0.6-0.8-2-0.3-2
	c0.4,0,0.2-14.4-0.2-17.9c-0.7-5.4-1.2-8.1-2.1-12.6c-0.7-3.6-0.8-5.1-0.7-8.3c0.2-3.5,0.1-4-0.6-5.4l-0.8-1.5l-0.8,2.3
	c-1.7,4.8-2.3,6.3-2.8,6.8c-0.8,1-1.9,4.2-3.6,10.8c-2.9,11.1-3,16.2-0.4,21.4c1.7,3.4,2.8,4.9,4.3,5.6c1,0.5,1.2,0.5,1.5-0.1
	c0.2-0.4,0.4-0.8,0.4-1s0.2-0.4,0.4-0.4c0.2,0,0.3,0.9,0.2,2.1c-0.1,1.6,0,2.3,0.5,2.8c0.6,0.7,0.7,0.6,1.9-1.1
	c0.7-1,1.5-1.8,1.8-1.8c0.7,0,0.6,0.6-0.1,0.9c-0.3,0.1-0.5,0.4-0.5,0.7c0,0.2-0.4,0.9-1,1.4c-1.7,1.8-0.7,1.8,1.5-0.1
	c1.2-1,2.3-1.8,2.5-1.8c0.7,0,0.1,0.8-1.5,2c-2.7,2-2.9,2.3-1.9,3.3c0.8,0.8,0.8,0.9,0.2,1.1c-0.4,0.2-0.8,0-1-0.4
	c-0.4-0.8-1-0.8-1.3,0c-0.1,0.4-0.7,1.5-1.3,2.6c-1.6,3-1.9,1.9-0.6-1.9c0.8-2.2,1-3.4,0.8-3.8c-0.5-0.8-0.7-0.4-2.1,4.2
	c-0.7,2.1-1.4,3.9-1.6,4S24,237.9,24,237.7L24,237.7z M43,232.6c-0.3-0.1-0.7-0.1-0.9,0s0,0.2,0.5,0.2
	C43.1,232.8,43.3,232.7,43,232.6z M47.3,230.2c0.7-0.3,2-0.8,2.8-1c1.5-0.4,1.5-0.4,1.1-1.2c-0.2-0.4-0.5-0.9-0.5-1.1
	c0-0.2-0.3-0.4-0.6-0.6s-0.4-0.3-0.2-0.4c0.2,0-0.1-0.3-0.5-0.8c-0.5-0.4-0.9-0.9-0.9-1c0-0.1-0.4-0.8-0.9-1.5
	c-0.5-0.7-0.9-1.9-1-2.8c-0.1-0.9-0.3-1.8-0.5-2.1c-0.5-0.7-1.5-4.9-1.5-6.5c0-0.8-0.3-1.7-0.6-2c-0.5-0.5-0.5-1.7-0.4-9.2
	c0.1-5.8,0.4-9.1,0.7-10c0.5-1.3,0.4-1.5-0.2-1.8c-0.4-0.2-0.7-0.7-0.7-1.2s-0.1-0.6-0.2-0.4c-0.3,0.8-1.5,0.5-2.1-0.5
	c-0.7-1-0.4-1.8,0.4-1.5c0.4,0.2,0.4,0,0-1.1c-0.5-1.2-0.5-1.3,0.1-1.1c2.5,1,4.6,0.4,5-1.3c0.1-0.7,0.4-1.6,0.6-2.1
	c0.2-0.5,0.4-1.1,0.4-1.4c0-0.3,0.6-0.7,1.2-0.9c1-0.4,3.8-3,3.8-3.7c0-0.1,0.4-1.1,0.9-2.1c0.5-1,1.7-3.7,2.6-5.9
	c0.9-2.2,2.1-4.8,2.6-5.9c0.5-1,0.9-2.4,1.1-3l0.2-1.2l-1.4,1.1c-1.8,1.4-1.9,1.6-3.3,4.2c-0.7,1.2-1.3,2.3-1.5,2.5
	c-0.4,0.5-0.4-0.5,0-1.8c0.2-0.6,0.4-1.7,0.5-2.4c0.2-1.2,0.1-1.3-0.6-1.3c-0.4,0-1.1,0.3-1.4,0.6c-0.6,0.5-0.7,0.5-0.9-0.1
	c-0.2-0.5-0.4-0.5-1.7,0.2c-0.8,0.4-1.6,0.9-1.6,1.1s-0.3,0.2-0.5,0.1c-0.2-0.1-1,0.1-1.8,0.4c-1.4,0.6-2.1,0.6-1.6-0.1
	c0.1-0.2,0.7-0.5,1.2-0.6c0.5-0.1,1.4-0.7,1.9-1.2c0.5-0.5,1.8-1.6,2.8-2.4c3.3-2.7,4.5-3.9,4.3-4.3c-0.2-0.5,1.8-2.4,2.6-2.4
	c0.3,0,1.2-0.7,2-1.6c1-1.1,1.3-1.6,1-1.6c-0.8,0-0.7-0.2,0.4-1.7c1.1-1.3,1.8-1.6,2-0.7c0.1,0.5,0.2,0.5,0.9,0
	c0.5-0.3,0.8-0.9,0.8-1.3c0-0.4,0.2-0.7,0.5-0.6c0.3,0.1,1-0.2,1.7-0.5c0.7-0.3,1.9-0.8,2.8-1s1.9-0.7,2.4-1.1l0.9-0.7l-0.9,0.2
	c-0.8,0.2-0.9,0.2-0.3-0.3c0.4-0.3,0.6-0.7,0.6-0.9c0-0.8,1.7-1.6,4.1-1.9c0.1,0,0.5-0.3,0.9-0.7c0.4-0.4,1-0.7,1.5-0.7
	c1-0.1,2-0.8,1.7-1.2c-0.1-0.2,0.2-0.7,0.6-1.1c0.4-0.5,0.7-1,0.7-1.1c0-1.4,6-5,8.5-5c2.1,0,1,1.3-4.5,5.6c-1.7,1.3-3.5,3-4,3.8
	c-2.1,3.5-5.8,7.1-10.5,10.6c-0.9,0.6-2.3,2-3.1,2.9l-1.5,1.8l1.7-0.8c4.7-2.3,8.2-2.1,22.8,1.3c1.6,0.4,3.9,0.9,5.1,1.1
	c1.2,0.2,2.8,0.6,3.5,0.7c2,0.4,10.8,0.5,14.8,0.1c2-0.2,4.5-0.5,5.6-0.6c2.9-0.3,8.3-1.5,11.3-2.7c2.6-0.9,3.1-1,9.4-1l6.7,0
	l0.2-0.9c0.1-0.5,0-1.4-0.2-2.1s-0.3-1.6-0.2-2.1c0.2-0.7,0.1-0.9-0.5-1.1c-1-0.3-1.4-1.3-0.8-2.1c0.2-0.4,0.5-1.6,0.6-2.8
	c0.1-1.1,0.8-4.6,1.6-7.7s1.5-6.2,1.7-6.8c0.1-0.7,0.4-1.2,0.6-1.2c0.5,0,0.2,1.9-1.5,8.6c-1.2,4.6-1.7,8.6-1.5,10.5
	c0,0.2,0.4-0.4,0.8-1.4c0.4-1,1.1-2.3,1.6-2.9c1-1.3,1.7-3.2,1.7-4.5c0-0.8,0.1-0.9,0.9-0.7c1,0.2,1,0.2,1.5-3.4
	c0.3-2.2,0.5-2.9,0.9-2.9c0.2,0,0.3,0.4,0.3,0.9c0,1.4-1.4,7.2-2.4,10.4c-1.1,3.2-2,7-1.8,7.2c0.2,0.2,2.3-5.7,3.9-10.6
	c0.7-2.1,1.2-4.8,1.4-6.3c0.1-2,0.3-2.6,0.7-2.6c1.2,0,0.2,4.9-2.8,13.8c-1.6,4.7-3,9.1-3.1,9.8c-0.2,1.2,0.3,3.6,0.7,3.2
	c0.1-0.1,0.8-2,1.6-4.1c2.5-7.1,3.5-9.2,3.9-9.3c0.3,0,0.5,0.1,0.5,0.1s-0.8,2.1-1.8,4.6c-1,2.4-2.2,5.7-2.6,7.3
	c-0.7,2.6-0.8,3.1-0.4,4.1c0.9,2.2,1.2,4.4,1.3,9.4c0.1,4.7,0.1,5,1.2,7.3c1,2,1.2,2.7,1.2,5.1c0,2,0.3,3.5,0.9,5.3
	c1.2,3.2,2.2,7.8,2.5,10.6c0.1,1.2,0.2,6.4,0.3,11.7c0,7.3-0.1,10.2-0.5,12.7c-0.9,5.2-0.7,6.1,1.3,6.1c0.7,0,1,0.2,1,0.5
	c0,0.3,0.2,0.5,0.5,0.5c0.7,0,1.9,1.7,2.4,3.6c0.2,0.9,0.6,1.6,0.9,1.7s1.5-0.3,2.9-0.9c1.3-0.6,2.7-1.1,3-1.1s1.5-0.4,2.6-1l2-1
	l-1.6-1.7c-1.9-2-3.5-4.5-3.5-5.5c0-0.5-0.2-0.7-0.6-0.7c-0.7,0-2.6-2.8-2.6-3.7c0-0.3,0.2-0.7,0.4-0.9c0.3-0.3,0.3-1.4,0-3.9
	c-0.3-2-0.4-5.3-0.3-7.5c0.2-3.2,0.1-4-0.3-4.2c-0.7-0.3-0.6-1.2,0.3-2.7c0.5-0.7,1-1.6,1.1-2c0.3-0.7,0.3-0.7-0.5,0
	c-0.8,0.7-0.8,0.7-1.3,0c-0.3-0.4-0.5-0.9-0.5-1.1s1.1-1.5,2.5-2.8c1.8-1.8,2.6-2.8,2.7-3.7c0.1-0.7,0.3-1.6,0.5-2
	c0.2-0.6,0-0.8-0.5-1c-1.1-0.3-1-0.9,0.1-0.9c0.8,0,0.9-0.2,0.9-1.3c0-0.9-0.2-1.4-0.8-1.7c-0.6-0.3-0.7-0.5-0.3-0.9
	c0.3-0.4,0.3-0.6,0-0.8c-0.3-0.2-0.2-0.4,0.3-0.9c0.5-0.4,0.9-1.4,1.1-3c0.6-3.5,0.6-4.5-0.2-4.2c-0.8,0.3-2-0.1-2-0.7
	c0-0.4,0.2-0.5,0.8-0.3c0.7,0.2,0.7,0.2,0.4-0.3c-0.4-0.4-0.3-0.6,0.4-0.9c1.2-0.5,1.6-2.4,0.7-3.4c-0.6-0.7-0.6-0.7,0.1-0.9
	c0.5-0.1,0.8-0.5,0.8-1c0-2.6,3.4-13.2,6-19c2.5-5.4,4.6-12.8,4.3-14.6c-0.1-0.5,0-0.9,0.2-0.9c0.7,0,0.9,1.8,0.4,4.7
	c-0.6,3.8-0.7,4.4-1.1,5.9c-0.3,1.2-0.2,1.3,0.3,1.1c1.1-0.3,2.2-3.8,2.4-7.4c0.2-3.6,0.8-4.8,0.9-1.8c0.1,5.2-0.4,7.8-2.2,11.1
	c-1.6,3-2.5,5.4-3.8,11c-0.8,3.3-0.9,4.3-0.7,6.3c0.2,1.7,0.4,2.4,0.8,2.4c0.4,0,0.6-0.5,0.6-1.8c0.2-4.7,3-15.1,4.5-16.9
	c0.6-0.7,0.7-0.8,0.5-0.2c-1,2.9-2.9,9.6-3.3,11.8c-0.3,1.5-0.5,4.2-0.5,6c0,5.1-0.6,9.3-1.5,10.5c-1,1.3-0.9,1.5,0.3,1.3
	c0.9-0.1,1-0.3,1.1-1.4c0.2-2.7,0.9-5.1,1.4-5.1c0.4,0,0.5,0.3,0.3,1.2c-0.7,4.2-0.7,4.4,0,4.1c0.4-0.2,1.4-0.5,2.3-0.8
	c2.1-0.6,2.6-1,3.8-3c0.9-1.4,0.9-1.6,0.4-2c-0.5-0.4-0.6-1.2-0.4-6.6c0.1-3.4,0.4-7.8,0.8-9.8c1.6-10.2,1.7-10.9,1.8-21.4
	c0-5.8,0.2-10.5,0.3-10.5c0.6,0,0.7,2.5,0.5,12.4c-0.2,8.3-0.4,11.1-0.9,14.1c-1.3,6.7-2.3,18.5-1.6,20.7l0.3,1.1l0.8-1.3
	c0.8-1.3,1.7-1.9,3.5-2.3c0.6-0.1,1.8-1,2.9-2.1l1.8-1.8l-0.1-2.4c-0.1-1.3,0-3.7,0.3-5.3c0.2-1.6,0.4-5.3,0.3-8.1
	c-0.1-4.8-0.2-7.5-0.7-17.9c-0.1-2.8-0.1-5,0.2-6.2c1-4.3,0.8-9.5-0.5-13.9c-0.3-1-0.9-3-1.3-4.5c-0.9-3-0.9-3.1-4.4-10.5
	c-2.4-5-2.5-5.2-3.1-4.6c-0.3,0.4-0.6,1.2-0.6,1.8c0.1,1.5,0.5,3.5,0.8,3.5c0.1,0,0.3,0.4,0.3,0.9c0,0.5,0.3,1.3,0.6,1.9
	c0.3,0.6,0.4,1.2,0.3,1.4c-0.1,0.2,0,0.5,0.2,0.8c0.2,0.2,0.9,2.1,1.5,4.1c0.6,2,1.4,4.1,1.7,4.7c0.3,0.6,0.8,1.9,1.1,2.8
	c0.7,2.1,1.2,9.4,0.6,10.4c-0.3,0.5-0.4,0.6-0.4,0.1c0-0.6-0.2-2.3-0.5-4.8c-0.1-1-1-3.4-2.2-5.8c-1.1-2.3-3-7.3-4.3-11.1
	c-1.3-3.9-2.5-7-2.7-7c-0.2,0-0.4,0.6-0.4,1.3c0,1.2-1.5,4.5-2,4.5c-0.1,0-0.4-0.5-0.7-1.1c-0.4-0.9-0.4-1.4,0-2.5
	c0.4-1.1,0.3-1.6-0.2-3.2c-0.6-1.6-0.8-1.9-2.3-2.3c-2.4-0.7-3-1.8-3.1-5.2c0-1.5-0.2-3.1-0.4-3.5c-0.2-0.4-0.7-1.4-1-2.2
	c-0.9-2.2-4.5-7.6-5.3-8.1c-0.7-0.4-2.5-3.8-3.1-5.8c-0.3-1,0.4-1.5,0.7-0.6c0.6,1.8,2,4.4,2.6,5c0.6,0.6,3.8,5.2,5.8,8.5l0.7,1.2
	l0.4-2.4l0.4-2.4l-3.4-3.7c-3.5-3.8-4.3-4.8-4.3-5.9c0-1.1,0.5-0.7,1.2,0.7c0.3,0.8,2,2.7,3.7,4.4l3.1,3.1l0.7-1.7
	c1.3-3,3.7-5.8,6.2-7.2l1.3-0.7l-1.8,0c-2.1,0-4.5-1.2-7.8-3.5c-0.5-0.3-1.3-0.7-1.8-0.7c-2.7-0.3-9.5-2.6-10.6-3.6
	c-1.3-1.1-3.5-2.4-3.7-2.2c-0.1,0.1-0.4-0.2-0.6-0.6c-0.2-0.5-0.8-1.2-1.2-1.7s-0.6-0.8-0.4-0.8c0.2,0-0.9-0.6-2.5-1.4
	c-1.6-0.8-2.7-1.5-2.6-1.6c0.6-0.6,7,2.1,8.5,3.5c0.5,0.5,1.3,1.1,1.8,1.3c0.6,0.3,0.3-0.1-0.7-1c-1.6-1.5-6.9-4.4-7.9-4.4
	c-0.3,0-1-0.3-1.7-0.6c-0.9-0.5-2.3-0.6-6.9-0.6c-5.2,0-6,0.1-8.8,1c-2.8,0.9-4.6,2-6,3.8c-0.8,1-2.2,7.7-2.4,11.4
	c-0.2,3.3-0.1,3.6,0.6,4.1c1,0.7,4.2,0.7,7.5,0c2.3-0.5,2.9-0.5,5.1,0c2.8,0.6,5.1,1.5,5.1,2.1c0,0.4-0.3,0.3-2.8-0.6
	c-0.8-0.3-2.4-0.6-3.5-0.7c-1.6-0.2-1.7-0.1-0.6,0.1c0.8,0.2,1.5,0.4,1.6,0.5c0.5,0.5-0.3,0.6-2.9,0.3c-2.5-0.3-2.9-0.3-4.4,0.4
	c-1.4,0.6-2.1,0.7-3.8,0.5c-1.1-0.1-2.3-0.4-2.6-0.5c-0.3-0.2-0.9-0.2-1.4,0c-3.1,1.2-10.1,2.6-15.3,3.1c-8,0.8-12.3,0.7-15.9-0.1
	c-1.6-0.4-3-0.6-3-0.6c-0.2,0.2,1,2.3,1.5,2.5c0.4,0.1,0.3,0.3-0.1,0.6c-0.3,0.2-0.8,0.2-1.1,0.1c-0.3-0.2-1.8-0.5-3.2-0.7
	c-2.2-0.4-2.7-0.6-3-1.2c-0.2-0.4-0.3-0.9-0.3-1.1c0.1-0.6-2.8-2.1-5.5-2.8c-9.2-2.3-14.4-2.5-30.6-0.9c-7.7,0.7-9.2,1-14.9,2.5
	c-4.5,1.2-6.3,1.9-11.2,3.9c-3.3,1.4-6.6,4-8.9,7c-3.5,4.7-7.1,13.7-7.9,19.5c-0.2,1.7-0.5,3.6-0.6,4.2c-0.1,0.6-0.2,1.7-0.3,2.4
	c-0.1,0.7-0.4,3-0.6,5.1c-0.7,5.7-0.6,15.6,0.3,48.5c0.3,10.5,0,14-1.6,17.5c-0.6,1.3-1.3,2.5-1.5,2.7s-0.4,0.4-0.4,0.6
	c0,0.2,0.6-0.2,1.3-0.9c0.7-0.7,1.3-1.5,1.3-1.7c0-0.8,2-4.4,2.6-4.6c1-0.3,1.5-3.4,1.2-7.3c-0.2-2.6-0.1-3.7,0.4-5.5
	c0.5-1.7,0.6-3.2,0.5-6.9c-0.2-6.3-0.1-11,0.2-14.8c0.2-2.3,0.1-3.7-0.3-5.1c-0.3-1-0.5-2-0.3-2.2c0.1-0.2,0.3-5,0.5-10.7
	c0.2-7.8,0.4-10.6,0.8-11.2c0.6-1,1-6.2,0.6-7.5c-0.5-1.3-0.1-3.4,0.8-3.6c0.5-0.1,0.9-1,1.5-2.8c1.6-5,3.8-8.3,6.6-9.7
	c1.5-0.8,1.6-1,1.9-2.7c0.1-0.6,0.7-2,1.3-3c0.6-1.1,1.1-2,1.1-2.1c0-0.4,4.8-5,5-4.8c0.1,0.1-0.5,1.1-1.5,2.1
	C29.7,68,28,70.9,28,71.6c0,0.1,1.1-0.8,2.5-1.9c1.4-1.2,3.4-2.6,4.5-3.1c1.1-0.5,3.1-2,4.4-3.2c1.4-1.2,2.9-2.2,3.3-2.2
	c0.8,0,0.8,0,0,0.6c-1.7,1.3-3.7,2.9-7.7,6.5c-4.4,3.9-8.6,8.5-9.2,10.3c-0.2,0.5-0.5,0.9-0.6,0.9c-0.3,0-0.8,1-2.5,5.1
	c-0.8,1.9-2.3,11.3-2.7,17.5c-0.4,5.9-0.2,15.1,0.4,17.9c0.2,0.9,0.6,2.5,0.8,3.5c0.3,1.2,0.6,1.9,1.1,2c0.4,0.1,0.9,0.9,1.3,2.1
	c1.5,4.7,5,9.7,10.6,15.4c1.7,1.7,1.9,2,1.7,3.3c-0.1,0.8-0.3,1.5-0.5,1.5c-0.2,0.1-0.3,0.4-0.3,0.6c0,0.3-0.4,0.5-0.9,0.5H33
	l0.2,4.5c0.1,2.5,0.3,5.2,0.4,6.1c0.3,2.3-0.7,6.2-2.4,9.3c-0.8,1.5-1.4,3.1-1.4,3.8v1.2l2.1,0l2.1,0l-1.3,0.5
	c-0.7,0.3-1.6,0.5-2.1,0.4c-0.5-0.1-0.8,0-0.8,0.1c0,0.2,0.7,0.4,1.5,0.5c1.8,0.3,1.7,1-0.1,1.2c-0.7,0.1-1.3,0.2-1.3,0.2
	c0,0.1,0.4,1,0.9,2.1c0.8,1.9,0.9,2.4,0.8,7.1c-0.1,4.2,0.1,5.8,0.9,9.8c1.9,9.3,2.6,17.2,1.9,23.7c-0.3,2.7,0.2,3.4,2.8,4.3
	c2.1,0.8,2.5,1.2,2.7,3.2c0.1,0.9,0.3,2,0.5,2.6l0.4,1l1-0.8c0.5-0.4,1.2-1.1,1.5-1.5c0.9-1.3,1.1-0.3,0.3,1.2
	c-0.5,0.8-0.9,1.6-0.9,1.8C42.6,231.7,45.7,230.9,47.3,230.2L47.3,230.2z M46.4,161.1c-0.1-0.2,0.4-0.7,1.2-1.1
	c1.8-0.9,2.3-0.4,0.6,0.7C46.9,161.6,46.7,161.6,46.4,161.1L46.4,161.1z M199.1,152.8c-0.3-1.9-0.3-2.4,0.1-2.1
	c0.2,0.1,0.4-0.8,0.4-2.6c0-3.5-1.3-17.8-2-22.2c-0.5-3.2-1.7-15.3-1.7-17.6c0-2.1,0.7-1.3,0.9,1.1c0.1,1.3,0.4,4.4,0.6,7
	s0.8,7.7,1.3,11.3c1.2,9.5,1.7,14.7,1.7,20.2c0,4.8-0.2,6.2-0.7,6.2C199.5,154.2,199.2,153.5,199.1,152.8L199.1,152.8z M185.9,147.5
	c0.1-0.7,0.6-2.2,1.1-3.6c1.1-3.1,2.1-8.9,1.9-12.4c-0.1-2.7,0.1-3.6,0.8-3.6c0.5,0,0.3,5.8-0.2,8.9c-0.6,3.3-1.5,6.4-2.2,8.1
	c-0.3,0.7-0.6,1.9-0.6,2.5c0,0.9-0.2,1.2-0.6,1.2C185.8,148.7,185.7,148.4,185.9,147.5L185.9,147.5z M88.8,123.6
	c0-0.7,1.6-1.5,2.9-1.5c1.6,0,2.4,0.5,2.1,1.2c-0.2,0.5-0.8,0.6-2.6,0.6C89.9,123.9,88.8,123.8,88.8,123.6z M183.2,103.9
	c0-1.7-0.7-4.1-2.2-8.1c-1.4-3.5-1.7-5.1-2.5-11.9c-0.2-1.9-0.7-4.4-1-5.5c-0.7-2.4-3.8-9.4-5.4-11.8c-3.1-4.9-3.5-5.7-2.8-5.6
	c0.4,0.1,0.9,0.6,1.2,1.2c0.3,0.6,1.2,2.1,2,3.3c1.7,2.5,4.3,8,5.3,11c0.9,2.6,1.8,7.3,2,11c0.2,2.8,0.6,4.2,2.8,10.3
	c1.3,3.5,1.8,7.2,0.9,7.2C183.4,105,183.2,104.5,183.2,103.9L183.2,103.9z M177.7,94.7c-0.2-0.4-1-2.9-1.8-5.4
	c-2.7-9-5.9-16.6-7.4-17.9c-0.3-0.3-0.6-0.7-0.6-1s-0.4-0.8-0.9-1.2c-1.1-0.8-1.1-1.2-0.3-1.2c0.8,0,3.8,4.5,5.7,8.7
	c0.8,1.7,2.1,5.2,2.9,7.7c0.8,2.5,1.9,5.9,2.5,7.6s0.9,3.1,0.7,3.2S178,95.2,177.7,94.7L177.7,94.7z M157.8,56.9
	c-0.9-0.2-1.8-0.5-2-0.7c-0.2-0.2-1.7-0.7-3.3-1.1c-2.4-0.7-3.6-0.8-6.8-0.6c-4.1,0.2-4.6-0.1-1.7-0.9c1.5-0.4,2.2-0.3,6.4,0.6
	c2.6,0.6,5.2,1.1,5.9,1.1c4.6,0.4,10.3,1.6,7.2,1.6c-0.5,0-1.7,0.1-2.5,0.2C160.1,57.1,158.6,57.1,157.8,56.9L157.8,56.9z
	 M157.4,229.9c0.7-0.5,1.4-1,1.4-1.2c0-0.6-0.8-0.2-2.1,1C155.2,231.3,155.4,231.3,157.4,229.9L157.4,229.9z M180.3,229.7
	c0.5-0.6,0.4-0.6-0.2-0.1c-0.4,0.3-0.8,0.6-0.9,0.6c-0.1,0.1,0,0.1,0.2,0.1S180.1,230,180.3,229.7L180.3,229.7z M21.4,228.7
	c0-0.1-0.2-0.2-0.4-0.2c-0.2,0-0.4,0.2-0.4,0.4s0.2,0.3,0.4,0.2C21.3,228.9,21.4,228.7,21.4,228.7z M55.1,228.9
	c0.1-0.2,0.1-0.4-0.1-0.4s-0.5,0.2-0.6,0.4c-0.1,0.2-0.1,0.4,0.1,0.4C54.7,229.2,55,229.1,55.1,228.9z M26.9,228.3
	c0-0.3-0.1-0.5-0.3-0.5c-0.2,0-0.4,0.2-0.5,0.5c-0.1,0.3,0,0.5,0.3,0.5C26.7,228.9,26.9,228.6,26.9,228.3z M156.3,225.6
	c2.1-2.2,2.4-2.6,1.8-2.8c-0.7-0.2-0.9-1.1-0.3-1.4c0.2-0.1,0.2-0.5-0.1-0.9c-0.3-0.5-0.3-1.5,0-3.7c0.3-2.6,0.3-3.2-0.2-3.9
	c-1.1-1.8-2.1-7.8-1.3-8.1c0.2-0.1,0.2-1.2,0-2.5c-0.2-1.3-0.2-3.5-0.1-5c0.3-3.6,0-4.8-1.3-4.9c-1.3-0.1-1.3-0.8,0-1
	c1.2-0.1,1.2-0.2,0.1-2.1c-0.9-1.6-0.9-1.9,0.3-1.9c0.7,0,0.7-0.2,0.5-1.9c-0.2-1.6-1.5-5-1.9-5c-0.1,0-0.5,0.2-1.1,0.4
	c-0.8,0.3-1,0.3-1.2-0.4c-0.1-0.6-0.3-0.6-0.9-0.4c-1.2,0.6-2.2,0.4-2.2-0.4c0-0.4-0.2-0.7-0.3-0.5c-0.2,0.1-0.3,0.4-0.2,0.7
	c0.1,0.3-0.3,0.8-0.9,1.3l-1.1,0.8l1.1,3c1.1,2.9,1.1,3,1.1,9.9c0,4.9-0.2,7.9-0.6,10.2c-1.2,6.5-1.3,7.3-1.4,11.4
	c-0.1,4.7,0.2,5.2,2.2,5.2c1.1,0,1.5,0.2,1.9,0.9c0.3,0.5,1,1.2,1.7,1.4c1.6,0.6,2.1,1.7,1.6,3.1c-0.2,0.6-0.3,1.1-0.2,1.1
	S154.9,227,156.3,225.6L156.3,225.6z M159.5,225c0.9-0.9,1.4-1.6,1.2-1.6s-0.4,0.2-0.4,0.4s-0.3,0.3-0.7,0.2
	c-0.5-0.2-1.2,0.3-2.6,1.6c-1,1-1.9,2-1.9,2.2C155.1,228.3,157.8,226.6,159.5,225L159.5,225z M25.6,226.5c-0.1-0.3-0.4-0.6-0.6-0.6
	s-0.1,0.3,0.1,0.7C25.7,227.5,25.9,227.4,25.6,226.5z M162,224.9c0.2-0.7-0.8-0.6-1.4,0.1c-0.4,0.5-0.4,0.6,0.4,0.5
	C161.4,225.4,161.9,225.2,162,224.9L162,224.9z M6.9,203.3c0-1.2,0.2-2.9,0.4-3.8c0.2-0.9,0.3-1.8,0.3-2c-0.2-0.6-2.5,7.8-2.5,9.1
	l0,1l0.9-1C6.7,205.7,6.9,205.1,6.9,203.3L6.9,203.3z M8.4,203.2c-0.1-0.3-0.3-0.5-0.4-0.4c-0.1,0.1-0.1,0.3,0.1,0.6
	C8.5,203.9,8.7,203.8,8.4,203.2z M5.2,200.1l0.2-1.3L4.9,200c-0.7,1.4-0.8,2.2-0.2,1.7C4.9,201.5,5.1,200.8,5.2,200.1z M158.6,200.9
	c-0.1-0.1-0.2,0.1-0.2,0.5c0,0.4,0.1,0.5,0.2,0.2C158.8,201.3,158.8,201,158.6,200.9L158.6,200.9z M13.2,200.6
	c0.6-0.9,1.4-3.1,1.1-3.1c-0.2,0-1.1,1.8-1.6,3.1C12.2,201.8,12.4,201.8,13.2,200.6L13.2,200.6z M158.6,199.4
	c-0.1-0.1-0.2,0.1-0.2,0.5c0,0.4,0.1,0.5,0.2,0.2C158.8,199.9,158.8,199.6,158.6,199.4L158.6,199.4z M4.4,193.3l0.2-3.6l-0.7,2.9
	c-0.4,1.6-0.8,3.8-0.9,4.9l-0.2,2l0.7-1.3C4,197.3,4.3,195.9,4.4,193.3L4.4,193.3z M5.4,196.5c0.8-2.2,1.3-4.8,1.6-8.1
	c0.1-1.9,0.4-4.3,0.6-5.2c0.4-2,0.4-2.6,0.1-2.3c-0.5,0.5-1.7,5.8-2.2,9.8c-0.3,2.5-0.6,5-0.7,5.7C4.7,197.8,4.9,197.9,5.4,196.5
	L5.4,196.5z M9.4,195.7c0-0.5,0-0.5-0.3,0c-0.2,0.3-0.3,0.9-0.3,1.3c0,0.7,0,0.7,0.3,0C9.2,196.6,9.4,196,9.4,195.7z M8.3,194.8
	c0-0.7,0-0.7-0.3,0c-0.2,0.4-0.3,1.1-0.3,1.5c0,0.7,0,0.7,0.3,0C8.1,195.8,8.3,195.2,8.3,194.8z M9.6,194c-0.1-0.1-0.2,0.1-0.2,0.5
	c0,0.4,0.1,0.5,0.2,0.2C9.8,194.4,9.7,194.1,9.6,194L9.6,194z M8.7,193.1c0-0.4-0.1-0.7-0.1-0.7c-0.1,0-0.2,0.3-0.3,0.7
	c-0.1,0.4,0,0.7,0.1,0.7C8.5,193.9,8.7,193.5,8.7,193.1z M2.5,189.2c0.4-2.2,1.1-5.3,1.6-6.7c2.7-8.2,3.5-10.2,4.2-11.1
	c1-1.3,0.6-1.6-0.5-0.5c-2.5,2.5-4.8,8.1-5.7,13.6C1.9,186,1.5,188,1.3,189c-0.3,1.6-0.1,4.8,0.3,4.4C1.7,193.3,2.1,191.4,2.5,189.2
	L2.5,189.2z M3.6,190.3c0-1.2-0.2-0.9-0.5,0.7c-0.2,0.9-0.1,1.1,0.1,0.7C3.4,191.4,3.6,190.7,3.6,190.3L3.6,190.3z M8.9,190.1
	c-0.1-0.2-0.2,0-0.2,0.6c0,0.6,0.1,0.8,0.2,0.4C9,190.9,9,190.4,8.9,190.1L8.9,190.1z M6,183.9c0.3-1.4,1.2-4.4,1.8-6.6
	c1.4-4.7,1.4-4.5,0.8-4.5c-0.9,0-3.4,9.7-3.7,14.4c-0.1,2.3-0.1,2.4,0.2,0.9C5.2,187.1,5.6,185.3,6,183.9L6,183.9z M8.2,186.1
	c-0.1-0.3-0.2,0-0.2,0.5s0.1,0.7,0.2,0.5C8.3,186.8,8.3,186.4,8.2,186.1L8.2,186.1z M3.4,176.2c0.2-0.5,0.2-0.6-0.1-0.4
	c-0.6,0.6-1.8,4.6-2.1,6.8c-0.2,1.6,0,1.3,0.8-1.8C2.6,178.7,3.2,176.6,3.4,176.2L3.4,176.2z M11.9,177.9c0-2.8-0.1-3-0.3-1.5
	c-0.4,2.3-0.4,4.7,0,4.7C11.8,181.1,11.9,179.8,11.9,177.9z M151.1,178.6c0-0.2-0.2-0.4-0.4-0.4c-0.2,0-0.3,0.2-0.2,0.4
	c0.1,0.2,0.3,0.4,0.4,0.4C151.1,178.9,151.1,178.8,151.1,178.6z M4.3,174.2c0.4-0.8,0.4-0.9-0.1-0.4c-0.3,0.3-0.6,0.8-0.6,1.1
	C3.6,175.5,3.7,175.4,4.3,174.2L4.3,174.2z M97.7,174.4c1.9-0.5,2.1-0.6,2.8-3.1c0.3-0.9,1-2.4,1.6-3.3c0.6-1,1-1.8,0.8-2
	s0.1-0.9,0.6-1.6c1.4-2,1.2-2.4-1.2-2.7c-3.8-0.5-13.6-0.3-13.6,0.3c0,0.2-0.4,0.3-0.9,0.3c-0.6,0-0.9,0.2-0.9,0.6
	c0,0.4-0.5,1-1.2,1.4c-1,0.7-1.4,0.8-2.6,0.5c-1.2-0.3-1.3-0.2-0.9,0.2c0.5,0.6,2.5,1.7,3,1.7c0.2,0,0.4,0.6,0.4,1.2
	c0,0.9,0.3,1.4,1.3,2.2c0.7,0.5,1.6,1.4,2.1,2c1,1.1,2.6,2.1,4.2,2.5C95,175,95.7,175,97.7,174.4L97.7,174.4z M5.3,172.2
	c-0.1-0.1-0.3,0.1-0.5,0.4c-0.2,0.5-0.2,0.6,0.2,0.2C5.3,172.6,5.4,172.3,5.3,172.2L5.3,172.2z M178.4,163.9
	c0.8-4.9,1.1-12.4,0.5-10.4c-0.2,0.6-0.4,2.1-0.6,3.5c-0.3,2.7-1.2,9.2-1.5,10.7c-0.1,0.7-0.1,1,0.3,1
	C177.5,168.7,177.8,167.4,178.4,163.9L178.4,163.9z M109.5,162.6c1.1-0.4,3.5-0.8,5.2-0.9c4.4-0.3,8.2-0.9,9.8-1.5l1.3-0.5l-1.6,0.2
	l-3.8,0.4c-1.2,0.1-2.3,0.3-2.4,0.4c-0.1,0.1-1.7,0.2-3.4,0.4c-1.8,0.1-3.4,0.3-3.5,0.4c-0.2,0.1-0.7-0.1-1.2-0.4s-1-0.6-1.1-0.6
	c-0.4,0-0.2,1,0.3,1.2c0.3,0.1-0.1,0.1-0.8,0.1c-1-0.1-1.4,0-1.7,0.5C105.6,163.5,106.5,163.6,109.5,162.6L109.5,162.6z
	 M149.3,162.7c-0.1-0.6-3.4-1.9-6.5-2.5l-1.3-0.3l1.3,0.8c1.1,0.7,5.4,2.4,6.3,2.5C149.2,163.3,149.3,163,149.3,162.7L149.3,162.7z
	 M129.1,158.8c0.3-0.3-0.1-0.3-1.1-0.2c-0.8,0.1-1.6,0.4-1.8,0.6c-0.3,0.3,0,0.4,1.1,0.2C128.1,159.3,128.9,159,129.1,158.8
	L129.1,158.8z M76.6,158.9c0.1-0.2,0-0.4-0.3-0.4c-0.3,0-0.6,0.2-0.6,0.4c0,0.2,0.2,0.4,0.3,0.4S76.5,159.1,76.6,158.9z M94.7,156.5
	c-0.3-0.1-0.6-0.1-0.7,0c-0.1,0.1,0.1,0.2,0.5,0.2C94.9,156.7,95,156.6,94.7,156.5L94.7,156.5z M151.3,153.4
	c-0.3-0.7-0.5-1.4-0.4-1.5c0.1-0.1-0.1-0.4-0.4-0.6c-0.5-0.4-0.6-0.4-0.6,0.2c0,0.5-0.2,0.6-0.8,0.4c-0.6-0.2-0.5,0.1,0.8,1.4
	c0.9,0.9,1.7,1.6,1.7,1.6C151.8,154.7,151.6,154.1,151.3,153.4L151.3,153.4z M145.6,153.7c-0.1-0.3-0.8-0.8-1.7-1.3
	c-0.8-0.5-1.5-1-1.5-1.2c0-1.3-2.5-2.2-6-2.2c-3.5,0-4.1,0.5-1.2,1.1c1.3,0.3,3.5,1,4.9,1.7s2.8,1.2,3,1.2c0.2,0,0.6,0.2,0.8,0.5
	C144.4,154.3,145.8,154.4,145.6,153.7L145.6,153.7z M206.5,145.6c1-0.7,1.9-1.4,1.9-1.5c0-0.1-0.4-0.1-1-0.1c-0.9,0.1-1,0-1.2-1.9
	c-0.5-3.6-1-12.5-0.9-14.8c0.1-1.2,0.4-2.7,0.7-3.4c1.2-2.2,0.6-20.7-0.7-23.9c-0.3-0.8,0.4-0.8,0.9,0c0.9,1.6,1.6,10.8,1.7,21.4
	c0.1,7.6,0.4,17.5,0.7,19.7c0.1,0.4,0.1,1,0.2,1.3c0.1,0.9,2.1-3.6,2.6-5.8c0.3-1.4,0.3-2,0.1-2.2c-0.2-0.1-0.5-1.8-0.7-3.7
	c-0.1-1.9-0.4-3.8-0.6-4.3c-0.3-0.7-0.1-3.8,0.6-12c0.1-1.6,0-3-0.6-5.1c-0.4-1.6-1.1-4.7-1.5-7c-0.4-2.3-0.9-4.5-1.2-4.9
	c-0.3-0.4-1.1-2.5-1.7-4.5c-1-3.2-1.2-3.5-1.5-2.7c-0.2,0.5-0.3,1.3-0.1,1.9c0.1,0.7,0,1-0.4,1.2c-0.3,0.1-0.5,0.4-0.4,0.7
	c0.3,0.7-1.6,1-2.3,0.4c-0.3-0.3-0.6-0.9-0.6-1.4c-0.1-1.3-1.1-3.6-1.5-3.3c-0.2,0.1-0.3-0.1-0.3-0.4c-0.1-0.9-0.3-1.7-1.5-5.1
	c-1.1-3-1.2-4.4-0.6-8.5c0.1-0.8,0-0.9-0.5-0.8c-1.4,0.5-2.3,1-2.5,1.6c-0.1,0.4-0.4,0.7-0.7,0.7c-0.5,0-0.5,1.2,0,1.9
	c0.6,0.7,2.5,4.7,4.7,9.6c1.6,3.7,4.2,11.6,4.2,13c0,0.2,0.2,0.7,0.5,1s0.9,1.6,1.3,2.8c0.9,2.4,0.9,5.1,0,9
	c-0.3,1.2-0.4,5.5-0.3,12.1c0.1,7.5,0,10.4-0.3,10.8c-0.3,0.4-0.4,1.9-0.2,5.3l0.2,4.8l0.8-0.3C204.3,147.1,205.5,146.3,206.5,145.6
	L206.5,145.6z M32.4,146c0-0.5-0.2-1-0.4-1.1c-0.2-0.1-1.4-1.7-2.6-3.6c-2.7-4-3.2-4.6-2.1-2.4c1.3,2.7,4.5,8,4.8,8
	C32.2,146.9,32.4,146.5,32.4,146L32.4,146z M22.5,145.4c0.8-0.4,1.7-0.7,2.1-0.7c0.7,0,0.7-0.1,0.2-2.2c-0.3-1.2-0.9-3-1.5-3.9
	c-1.3-2.3-2.1-4.8-3.5-10.8c-1.8-7.4-1.8-7.2-1.7-12.2c0-5.1-0.2-8.9-0.7-8.6c-0.4,0.2-0.7-2-0.7-4.5c0-1.1-0.1-1.9-0.3-1.9
	c-0.2,0-0.3,0.2-0.3,0.5c0,0.3-0.4,3-0.8,6.1c-0.7,4.8-0.8,7-0.6,14.3c0.1,6.6,0.2,8.7,0.6,9c0.3,0.2,0.4,0.6,0.2,1.1
	c-0.1,0.4-0.1,1,0.1,1.4c0.5,0.9,0.1,2.4-0.8,2.7c-0.4,0.2-0.6,0.3-0.3,0.3c0.3,0,0.5,0.3,0.5,0.6s0.4,0.9,0.8,1.2
	c0.7,0.6,0.8,0.7,0.2,1.8c-0.3,0.6-0.4,1.2-0.2,1.2c0.7,0,1.4,1,1.2,1.8c-0.1,0.7,0,0.7,1.5,0.5c1.3-0.2,1.6-0.1,1.6,0.4
	c0,0.3-0.2,0.6-0.4,0.6s-0.1,0.3,0.2,0.6c0.4,0.4,0.5,0.7,0.2,0.8c-0.2,0.1-0.4,0.3-0.4,0.5C19.6,146.4,21,146.2,22.5,145.4
	L22.5,145.4z M26,136c-0.3-0.6-0.7-1.2-1-1.3c-0.3-0.2-0.3-0.1-0.1,0.3C26.2,137.1,27,137.9,26,136L26,136z M214.7,120
	c0.6-2,1.5-3.9,2.8-5.6c0.5-0.6,0.5-1,0.3-1.3c-0.2-0.2-0.7-1.5-1.1-2.8c-0.9-2.7-1.6-4-2.5-4c-1.1,0-2.5-1.8-3.7-4.7l-1.1-2.7
	l0.2,1.8c0.1,1,0.4,2,0.8,2.2c0.3,0.2,0.7,1.4,0.9,2.8c0.2,1.3,0.5,3.5,0.7,4.9c0.2,1.4,0.5,3.2,0.6,4c0.1,0.8,0.3,2.3,0.6,3.4
	c0.2,1,0.3,2.1,0.1,2.3c-0.3,0.5,0.1,1.8,0.6,1.8C214,122.1,214.4,121.2,214.7,120L214.7,120z M215.2,95.8c0.9,0.1,2.1,0,2.6-0.2
	c0.8-0.3,0.6-0.4-1.1-0.4c-2.6-0.1-4.5-0.7-4.9-1.7c-0.2-0.5-0.5-0.8-0.6-0.8c-0.3,0,0.7,2.3,1.3,3.2c0.2,0.3,0.5,0.3,0.7,0.1
	C213.3,95.8,214.3,95.7,215.2,95.8L215.2,95.8z M219.7,94.9c-0.3-0.1-0.6-0.1-0.7,0c-0.1,0.1,0.1,0.2,0.5,0.2
	C219.9,95.1,220,95,219.7,94.9L219.7,94.9z M224.3,92.8c0.4-0.4-4.9-0.3-7,0.2c-0.9,0.2,0,0.2,2.7,0.1
	C222.3,93,224.2,92.9,224.3,92.8L224.3,92.8z M225.8,89.6c1.1-0.6,2.1-1.1,2.1-1.1c0,0,0.2-0.5,0.3-1c0.2-0.8,0-1.2-1.1-2.5
	c-0.8-0.9-1.4-1.9-1.4-2.4c0-1.1,1.4-2.7,2.4-2.7c0.7,0,0.7,0,0-0.5c-0.5-0.4-1.3-0.5-3.1-0.3c-2.4,0.2-2.4,0.2-1.2-0.4
	c1.9-0.9,4.8-0.6,6.3,0.6c0.9,0.7,1.2,2,0.4,2.2c-0.5,0.2-0.7,0.7-0.8,2.3c-0.1,1.1-0.3,2.3-0.5,2.7c-0.2,0.4-0.4,1.2-0.4,1.9
	c0,1.3,0,1.3,1.1,0.9c1.2-0.5,1.9-1.9,1.8-4c-0.2-11-0.3-11.5-1.9-13.2c-2.4-2.5-3.8-5.6-3-6.8c0.4-0.6,1.5,0.6,1.5,1.6
	c0,0.4,0.5,1.7,1.2,2.8c1.2,1.9,1.2,1.9,1.6,1.1c0.2-0.5,0.5-3.3,0.6-6.3c0.3-6.2,1-9.2,1.9-9c0.4,0.1,0.6-0.2,0.6-0.7
	c0-0.5,0.3-1.5,0.7-2.3l0.7-1.5l-0.2,1.6c-0.1,0.9-0.4,2.6-0.7,3.7c-0.7,2.7-0.6,3.3,0.1,2c0.3-0.6,0.6-1.2,0.6-1.3
	c0-0.1,0.3-0.8,0.7-1.6c1.7-3.3,5.7-3.7,9.1-0.8c0.7,0.5,1.8,1.3,2.4,1.8c1.4,0.9,4.3,5.6,3.8,6.2c-0.2,0.2-0.5,0.1-0.8-0.2
	c-0.3-0.3-0.7-0.6-1-0.6c-0.3,0-0.9-0.5-1.4-1c-0.5-0.6-0.9-0.8-0.9-0.6c0,0.2,0.2,0.5,0.4,0.7c0.6,0.4,2.6,4.5,2.3,4.9
	c-0.3,0.5-1.2-0.3-2-1.8c-0.8-1.5-2-3.1-4.2-5.3c-1.7-1.7-1.8-1.7-3.6,1.2c-0.5,0.8-1.1,1.6-1.3,1.8c-0.5,0.3-0.1,4.5,0.4,5.1
	c0.2,0.2,0.3,0.8,0.3,1.3c0,0.8,0.4,1.1,2.6,2.2c3.3,1.6,3.7,2,5.2,4.8c0.9,1.8,1.4,2.3,2.1,2.4c2.2,0.3,3.7-3.9,3.7-10
	c0-3.9,0-4.1-1.3-6.5c-1.4-2.7-4.6-6.4-6.8-7.9c-4.6-3-6.9-3.9-7.6-2.9c-0.4,0.6-1.2,0.4-2.5-0.8c-1.2-1-1.4-1.1-1.9-0.6
	c-0.3,0.3-1.2,0.8-1.8,1.1c-1,0.5-1.2,0.5-1.2,0c0-0.3,0.7-0.9,1.6-1.4c0.9-0.4,1.6-1,1.6-1.3c0-0.6-0.1-0.6-1.9,0.2
	c-1.4,0.7-2.1,0.7-2.1,0c0-0.2,0.8-0.7,1.8-1.2s1.9-1.1,2-1.3c0.4-0.6-1-6.2-1.8-7.4c-1-1.5-3-2-7.1-1.6c-1.7,0.2-5.4,0.2-8.2,0
	c-8.5-0.4-10.7-0.2-16.5,2c-1.4,0.5-1.5,0.7-1.5,1.8c0,0.6-0.3,2-0.7,3c-1.1,2.9-1.3,5.3-0.5,7c0.6,1.4,0.6,1.5,0,2.7
	c-0.6,1.1-0.9,1.2-2,1.2c-1.5,0-5.6,1.4-7.6,2.6c-2.7,1.6-4.9,4.7-5.8,8.2c-0.2,0.9-0.3,1.7-0.2,1.8s0.7-0.7,1.3-1.9
	c1.4-2.4,1.9-2.8,5.2-3.9c2.8-0.9,4.9-2.8,4.9-4.3l0-0.8l1,0.8c1.2,1,1.5,0.9,1.7-0.1c0.2-1.2,0.8-1,1.2,0.5
	c0.2,0.7,0.6,1.6,0.8,1.8c0.2,0.2,0.5,1,0.5,1.8c0,1,0.3,1.6,1,2.3c0.6,0.5,1.2,1.6,1.5,2.4c0.7,2.5,1.5,7.3,1.6,9.7
	c0,1.3,0.2,2.4,0.3,2.4c0.2,0,0.3,0.1,0.2,0.3c-0.2,1.1,0.8,2.9,2.6,4.8c1.1,1.2,2.2,2.2,2.3,2.2s0.3-0.4,0.3-0.8
	c0-1.2,0.4-2.5,0.8-2.5c0.2,0,0.2,1,0.1,2.5c-0.2,2.6,0.3,5,1.5,6.4c0.9,0.9,1.2,0.8,1.2-0.4c0-0.6,0.2-1.4,0.3-1.7
	c0.2-0.3,0.4-1,0.6-1.4c0.2-0.7,0.2-0.7,0.8,0c0.3,0.4,0.6,1.3,0.7,2.1c0.2,1.2,0.3,1.3,1.2,1.3c0.7,0,1,0.1,1.1,0.7
	c0.1,0.8,0.2,0.8,3.8,0.6C223.2,90.7,224.1,90.5,225.8,89.6L225.8,89.6z M214.9,86.1c0-0.2,0.2-0.5,0.5-0.8c0.8-0.6,0.7-1.1-0.2-1.1
	c-0.4,0-1.1-0.3-1.6-0.6c-2.5-1.6,0.9-4.6,3.4-3c1.2,0.7,1.4,1.8,0.7,3.3C216.9,85.5,214.9,87.1,214.9,86.1L214.9,86.1z M211.8,85.2
	c-1.5-1.7-1.8-4.5-0.7-5.7c0.7-0.8,2.7-1.8,3.6-1.8c0.9,0,0.6,0.7-0.5,1.4c-0.6,0.3-1.2,1-1.3,1.4c-0.1,0.4-0.5,1.1-0.9,1.4
	c-0.6,0.6-0.6,0.7-0.1,1c0.4,0.3,0.5,0.8,0.5,1.5C212.2,85.3,212.1,85.5,211.8,85.2L211.8,85.2z M219.4,78.5c-1.4-0.7-1.3-1,0.2-0.7
	c1.2,0.3,2.4,1.3,1.5,1.3C220.8,79.1,220,78.8,219.4,78.5z M209.7,75.2c-0.3-0.6,0.1-1.5,0.7-1.5c0.6,0,0.6,0.4,0,1.3
	C210.1,75.3,209.8,75.4,209.7,75.2L209.7,75.2z M211,67.4c-0.1-4.9,0.4-6.3,0.8-2.7c0.3,2.3,0,6.7-0.5,7.1C211.2,72,211,70,211,67.4
	L211,67.4z M208.7,62.9c0-0.3-0.3-0.7-0.6-0.8c-0.3-0.1-1.1-0.7-1.7-1.2c-0.6-0.6-1.5-1.1-2.1-1.2c-1.9-0.4-3.2-1.8-3.4-3.9
	c-0.1-1-0.4-1.9-0.6-2c-0.7-0.4-0.4-1,0.4-0.7c0.6,0.2,0.8,0,1.2-0.9c0.2-0.6,0.6-1.1,0.7-1.1c0.5,0,0.3,1.6-0.3,2.5
	c-1,1.5-0.4,2.8,2,4c1.2,0.6,2.4,1.6,2.7,2.2c0.4,0.6,0.8,1,1,0.9s-0.5-1-1.4-2c-1.6-1.7-2-2.6-0.7-1.8c1.1,0.7,1.2,0.3,0.2-0.7
	c-0.6-0.6-0.9-1.2-0.8-1.3c0.3-0.3,2.8,2,3.3,3.1c0.6,1.2,1.1,5.5,0.6,5.5C208.9,63.4,208.7,63.2,208.7,62.9L208.7,62.9z
	 M225.2,62.4c-1.2-0.8-0.9-4.4,0.3-4.7c0.4-0.1,1.1-1,1.6-2c0.9-1.6,1.6-2.3,1.6-1.4c0,0.2-0.5,1.2-1.1,2.3
	c-0.7,1.3-1.1,2.5-1.1,3.5C226.6,62.4,226.2,63,225.2,62.4L225.2,62.4z M227.2,61c-0.1-2.3,0.1-2.7,2.8-4.8c0.7-0.5,1.1-1.2,1.1-1.9
	c0.1-1.2,1-2.9,1.6-2.9c0.7,0,0.8,1.1,0.2,1.7c-0.3,0.3-0.6,0.8-0.6,1.1c0,1.1-1.7,4.1-2.8,4.9c-0.6,0.5-1.3,1.2-1.4,1.7
	C228,61.8,227.3,61.9,227.2,61L227.2,61z M228.7,84.2c0-0.2-0.2-0.4-0.4-0.4S228,84,228,84.2s0.2,0.4,0.4,0.4S228.7,84.4,228.7,84.2
	z M186.9,80.6c-0.4-0.8-1-1-1.7-0.5c-0.3,0.2-0.3,0.6,0.1,1.5l0.5,1.3l0.8-0.8C187.2,81.5,187.2,81.2,186.9,80.6L186.9,80.6z
	 M185,79.2c0.5-0.3,1.1-0.9,1.3-1.2c2-3.6,3.5-5,6.6-5.8c0.9-0.2,2.2-1,3-1.8c1.2-1.2,1.5-1.6,1.7-3.5c0.4-3.3-0.8-5.1-1.8-2.7
	c-0.8,2-2.4,2.7-4.3,2c-1-0.4-1.2-0.3-2.5,1.1c-0.9,1-1.7,1.5-2.3,1.5c-1.1,0-2.3,1.5-3.4,4.3c-0.4,1.1-1,2.1-1.2,2.2
	c-0.7,0.2-1.2-1.7-1.2-4.6c0-2.3,0-2.5-0.3-1.5c-0.6,2.2-0.4,7.3,0.3,8.7c0.3,0.7,0.8,1.4,1,1.5C182.5,80,183.9,79.9,185,79.2
	L185,79.2z M188.9,78c0.3-0.9,0.7-1.8,0.8-2s0.4-0.7,0.5-1c0.2-0.5,0.1-0.6-0.5-0.3c-0.4,0.2-0.7,0.5-0.7,0.7c0,0.2-0.5,1-1.1,1.9
	c-1.1,1.6-1.1,2.7-0.1,2.5C188.1,79.7,188.6,78.9,188.9,78L188.9,78z M181.7,66.9c0-0.1-0.2-0.2-0.4-0.2c-0.2,0-0.4,0.2-0.4,0.4
	s0.2,0.3,0.4,0.2C181.6,67.1,181.7,67,181.7,66.9z M189.9,50c1.1,0,0.5-0.4-2.2-1.1c-2.1-0.6-2.8-0.6-4.2-0.3
	c-0.9,0.2-1.8,0.6-1.9,0.8c-0.4,0.5,0.1,1,0.7,0.8c0.3-0.1,0.8-0.1,1.3,0.1s1.8,0.2,3.2,0C188.1,50.1,189.5,50,189.9,50L189.9,50z
	 M195.8,47.9c-0.2-0.5,0.8-5.1,1.4-6.8c0.1-0.4-0.4-0.5-2.3-0.5c-2.3,0-4-0.3-7.9-1.1c-2.7-0.6-5.8-2.6-8.8-5.7
	c-2.6-2.7-3-3.2-3.7-5.7c-0.7-2.2-0.8-3.2-0.6-5.6c0.2-2.7,0.2-2.9-0.4-2.2c-0.9,1.1-2,3.8-2.3,5.7c-0.3,1.8,0.2,6.1,1.2,8.9
	c0.6,1.7,2.6,4.5,3.3,4.5c0.3,0,0.6,0.4,0.8,0.9c0.6,1.3,4.7,4.2,5.6,4c0.5-0.1,0.7,0,0.7,0.4c0,0.6,1.2,1.4,2.9,1.9
	c0.5,0.2,0.8,0.2,0.7,0c-0.4-0.4,0.5-2.4,0.9-2.3c0.2,0.1,0.4,0.4,0.3,0.7c-0.1,0.3-0.2,0.9-0.3,1.4c-0.1,0.7-0.1,0.8,0.3,0.5
	c0.6-0.6,1.1-0.6,1.1,0.1c0,1,2.4,1.3,3.2,0.5c0.4-0.4,0.5-0.3,0.8,0.2c0.4,0.8,1.1,0.8,1.1,0.1c0-0.8,0.8-0.7,1,0.2
	c0.1,0.4,0.4,0.7,0.7,0.7C195.8,48.5,196,48.3,195.8,47.9L195.8,47.9z M237.5,44.5c0.5,0,0.7-0.3,0.7-1.1c0-0.6,0.2-1.1,0.4-1.1
	s0.4,0.3,0.4,0.7c0,0.5,0.3,0.7,1.5,0.7c1.3,0.1,1.5,0,1.5-0.7c0-0.4,0.2-0.7,0.4-0.7c0.2,0,0.4,0.2,0.4,0.4c0,0.2,0.4,0,1-0.5
	c0.7-0.6,1-0.7,1.1-0.4c0.3,0.8,1.1,0.5,2-0.6c0.4-0.6,1.1-1.1,1.4-1.1c0.7,0,3.6-2.6,4.6-4.2c1.8-2.6,2.5-7.6,1.6-11.2
	c-0.4-1.4-2.8-5.2-3.1-4.9c-0.1,0.1,0.2,1.2,0.6,2.5c0.6,1.9,0.7,2.9,0.5,4.9c-0.3,2.8-0.9,4.1-3.5,6.6c-2.5,2.5-10.4,5.9-13.5,5.9
	h-1.3l0.3,1.7c0.4,1.9,1,3.4,1,2.3c0-0.3,0.2-0.7,0.4-0.9c0.3-0.2,0.4,0.1,0.2,0.9c-0.2,1-0.1,1.2,0.3,1
	C236.6,44.6,237.1,44.5,237.5,44.5L237.5,44.5z M73.8,235.9c-0.5-0.8,6.6-9.2,7.8-9.2c0.3,0-0.8,1.4-2.7,3.4
	c-2.6,2.6-3.2,3.4-2.7,3.5c0.4,0.1,0.6,0.3,0.5,0.7c-0.2,0.4,0,0.5,0.5,0.3c0.8-0.3,0.9,0.1,0.2,1c-0.4,0.6-0.7,0.6-1.6,0.3
	c-0.7-0.2-1.2-0.3-1.4,0C74.1,236.1,73.9,236.1,73.8,235.9L73.8,235.9z M34.9,234.6c0-0.7,2.4-3.4,2.8-3.1c0.2,0.2-0.1,0.6-0.5,1.1
	c-0.4,0.5-0.9,1.2-1.2,1.6C35.6,235.1,34.9,235.3,34.9,234.6L34.9,234.6z M4.4,233.4c0.2-0.6-0.2-1.6-1-3.3
	c-0.7-1.4-1.1-2.4-0.8-2.4c0.2,0,0.8,0.6,1.2,1.3c1,1.8,2.3,3,3.1,2.8c0.6-0.1,0.7,0,0.7,1c0,1.3,0,1.3-1.3,0.8
	c-0.7-0.3-1-0.2-1.2,0.2C4.8,234.7,4.2,234.4,4.4,233.4L4.4,233.4z M9,232.5c0-0.8-0.2-2.1-0.5-3c-0.6-1.8-0.7-2.2-0.2-2.2
	c0.4,0,1,1.6,1.3,3.5c0.1,0.8,0.3,1.8,0.4,2.3c0.1,0.6,0,0.8-0.4,0.8C9.2,234,9,233.6,9,232.5L9,232.5z M144.6,232.3
	c0-1.4-1.1-4.2-2-4.9c-0.5-0.4-0.6-0.3-0.6,1.3c0,2.4-0.4,4.5-0.8,4.5c-0.3,0-0.2-2.5,0.3-5.5c0.1-0.7-0.1-1.2-0.8-1.8
	c-1-1-1.2-2.5-0.3-2.5c0.4,0,0.5,0.2,0.4,0.7c-0.2,0.5,0.3,1.1,1.6,2.2c1,0.8,1.8,1.7,1.8,1.8s0.3,0.9,0.6,1.7
	c0.4,1,0.7,1.2,0.9,0.9c0.4-0.6,1.1-0.2,0.9,0.5c-0.3,0.9,0.5,0.6,1.1-0.4c0.7-1.1,1.3-1.2,2-0.2c0.5,0.8,0.3,1-1.1,1.2
	c-0.3,0-1.2,0.4-2.1,0.9c-0.9,0.4-1.7,0.8-1.7,0.8S144.6,233,144.6,232.3L144.6,232.3z M135.5,232.6c0-0.4-0.3-1-0.7-1.4
	c-0.9-0.8-0.9-1.3-0.2-1.3c0.6,0,2.5,2.1,2.3,2.7C136.6,233.4,135.5,233.3,135.5,232.6L135.5,232.6z M138.7,232.4
	c0-0.3-0.1-0.8-0.2-1.3c-0.2-0.6-0.1-0.8,0.4-0.8c0.6,0,1.2,1.5,0.8,2.2C139.3,233,138.8,233,138.7,232.4L138.7,232.4z M191,231.6
	c-0.5-1.4,4.9-7.3,7.6-8.3c1-0.4,0.7,0.3-0.5,1c-2.6,1.5-7.4,6.8-6.2,6.8c0.6,0,0.5,0.6-0.2,0.9C191.4,232,191.1,231.9,191,231.6
	L191,231.6z M193,230.7c0-0.7,2.9-3,3.8-3c0.9,0,0.7,0.6-0.5,1.1c-1.2,0.5-2.6,1.8-1.9,1.8c0.2,0,0.3,0.2,0.2,0.4
	C194.3,231.7,193,231.5,193,230.7L193,230.7z M197.2,230.7c-0.2-0.4,1.2-2.6,1.7-2.6c0.5,0,0.4,0.5-0.4,1.7
	C197.7,231.1,197.6,231.2,197.2,230.7L197.2,230.7z M28.6,163.2c-0.9-0.5-0.5-1.1,0.8-1.1c1,0,2.2,0.5,1.9,0.9
	C30.8,163.5,29.2,163.6,28.6,163.2z"/>
</svg>
