<?xml version="1.0" encoding="utf-8"?>
<!-- Generator: Adobe Illustrator 23.0.0, SVG Export Plug-In . SVG Version: 6.00 Build 0)  -->
<svg version="1.1" id="Layer_1" xmlns="http://www.w3.org/2000/svg" xmlns:xlink="http://www.w3.org/1999/xlink" x="0px" y="0px"
	 viewBox="0 0 256 256" style="enable-background:new 0 0 256 256;" xml:space="preserve">
<circle style="fill:none;stroke:#902F3B;stroke-width:5;stroke-linecap:round;stroke-linejoin:round;stroke-miterlimit:10;" cx="35.3" cy="181.3" r="20.8"/>
<circle style="fill:none;stroke:#902F3B;stroke-width:5;stroke-linecap:round;stroke-linejoin:round;stroke-miterlimit:10;" cx="217.7" cy="181.3" r="20.8"/>
<path style="fill:#DD5E6D;" d="M243.2,181.3H9.6c-2.4,0-4.3-1.9-4.3-4.3v-42.8c0-24.7,20-44.7,44.7-44.7h193.2
	c2.4,0,4.3,1.9,4.3,4.3V177C247.5,179.4,245.6,181.3,243.2,181.3z"/>
<path style="fill:#FFFFFF;stroke:#902F3B;stroke-width:5;stroke-linecap:round;stroke-linejoin:round;stroke-miterlimit:10;" d="
	M57.4,141H12.7v0c0-24.7,20-44.7,44.7-44.7h0V141z"/>
<rect x="64.9" y="96.4" style="fill:#FFFFFF;stroke:#902F3B;stroke-width:5;stroke-linecap:round;stroke-linejoin:round;stroke-miterlimit:10;" width="176.6" height="44.7"/>
<polygon style="opacity:0.3;" points="5.3,165.6 247.5,165.6 247.5,181.3 6.8,181.3 "/>
<path style="fill:none;stroke:#902F3B;stroke-width:5;stroke-linecap:round;stroke-linejoin:round;stroke-miterlimit:10;" d="
	M243.2,181.3H9.6c-2.4,0-4.3-1.9-4.3-4.3v-42.8c0-24.7,20-44.7,44.7-44.7h193.2c2.4,0,4.3,1.9,4.3,4.3V177
	C247.5,179.4,245.6,181.3,243.2,181.3z"/>
</svg>
