<?xml version="1.0" encoding="utf-8"?>
<!-- Generator: Adobe Illustrator 17.0.0, SVG Export Plug-In . SVG Version: 6.00 Build 0)  -->
<!DOCTYPE svg PUBLIC "-//W3C//DTD SVG 1.1//EN" "http://www.w3.org/Graphics/SVG/1.1/DTD/svg11.dtd" [
	<!ENTITY ns_flows "http://ns.adobe.com/Flows/1.0/">
	<!ENTITY ns_extend "http://ns.adobe.com/Extensibility/1.0/">
	<!ENTITY ns_ai "http://ns.adobe.com/AdobeIllustrator/10.0/">
	<!ENTITY ns_graphs "http://ns.adobe.com/Graphs/1.0/">
]>
<svg version="1.1" id="Layer_1" xmlns:x="&ns_extend;" xmlns:i="&ns_ai;" xmlns:graph="&ns_graphs;"
	 xmlns="http://www.w3.org/2000/svg" xmlns:xlink="http://www.w3.org/1999/xlink" xmlns:a="http://ns.adobe.com/AdobeSVGViewerExtensions/3.0/"
	 x="0px" y="0px" width="256px" height="256px" viewBox="0 0 256 256" style="enable-background:new 0 0 256 256;"
	 xml:space="preserve">
<rect x="-0.3" y="-0.3" style="fill:none;stroke:#000000;stroke-width:3;stroke-miterlimit:10;" width="256.5" height="256.5"/>
<rect y="193.5" style="fill:none;stroke:#000000;stroke-width:3;stroke-miterlimit:10;" width="256" height="55.5"/>
<rect y="200.5" style="fill:none;stroke:#000000;stroke-width:3;stroke-miterlimit:10;" width="256" height="55.5"/>
<line style="fill:none;stroke:#000000;stroke-width:3;stroke-miterlimit:10;" x1="13" y1="228" x2="234.5" y2="228"/>
<path style="fill:none;stroke:#000000;stroke-width:3;stroke-miterlimit:10;" d="M232.4,98.5h-180c-2.5,0-4.7,2.1-4.7,4.7v30.7
	c0,0.1,0,0.3,0,0.4c-0.1,1.9-1.6,3.4-3.5,3.5l-15.5,1.7c-7.8,0.6-14.3,5.9-16.6,13c-0.1,0.3-0.1,0.6-0.3,0.8
	c-0.1,0.3-0.1,0.6-0.3,0.9c-0.3,1.1-0.4,2.3-0.5,3.5c0,0.3,0,0.6,0,0.9v22.8c0,2.3,1.8,4.1,4.1,4.1h15.8c0,0,1.2-20.6,18.2-19.7
	s18.8,14.3,18.2,19.7h122.6c0,0,2.1-22.1,20.6-22.1s16.4,18.1,17.7,22.1h4.3c2.3,0,4.1-1.8,4.1-4.1v-78.7
	C236.4,100.3,234.6,98.5,232.4,98.5z M78.2,131.6h-20v-23.2h20V131.6z M220.6,131.6h-107v-23.2h107V131.6z"/>
<rect x="113.6" y="108.4" style="fill:none;stroke:#000000;stroke-width:3;stroke-miterlimit:10;" width="107" height="23.2"/>
<rect x="58.2" y="108.4" style="fill:none;stroke:#000000;stroke-width:3;stroke-miterlimit:10;" width="20" height="23.2"/>
<rect x="85.9" y="108.4" style="fill:none;stroke:#000000;stroke-width:3;stroke-miterlimit:10;" width="20" height="76.9"/>
<path style="fill:none;stroke:#000000;stroke-width:3;stroke-miterlimit:10;" d="M236.4,102.6v78.7c0,2.3-1.8,4.1-4.1,4.1h-4.3
	c-1.3-3.9,0.8-22.1-17.7-22.1s-20.6,22.1-20.6,22.1H67.3c0.7-5.4-1.2-18.8-18.2-19.7S31,185.4,31,185.4H15.2c-2.3,0-4.1-1.8-4.1-4.1
	v-22.8c0-0.3,0-0.6,0-0.9c0.1-1.2,0.2-2.4,0.5-3.5c0.1-0.3,0.1-0.6,0.3-0.9s0.1-0.6,0.3-0.8c2.4-7.1,8.8-12.4,16.6-13.1l15.5-1.7
	c1.8-0.2,3.3-1.6,3.5-3.4c0-0.1,0-0.3,0-0.4v-30.8c0-2.6,2.1-4.7,4.7-4.7h180.1C234.6,98.5,236.4,100.3,236.4,102.6z"/>
</svg>
