<?xml version="1.0" encoding="utf-8"?>
<!-- Generator: Adobe Illustrator 23.0.0, SVG Export Plug-In . SVG Version: 6.00 Build 0)  -->
<svg version="1.1" id="Layer_1" xmlns="http://www.w3.org/2000/svg" xmlns:xlink="http://www.w3.org/1999/xlink" x="0px" y="0px"
	 viewBox="0 0 256 256" style="enable-background:new 0 0 256 256;" xml:space="preserve">
<path id="XMLID_398_" style="fill:#60D871;stroke:#2E6634;stroke-miterlimit:10;" d="M248,130c0,9.4,0.1,18.2-2,27
	c-12.1,51.2-58.6,89.6-113.4,89.6c-26,0-46-10.5-65.1-25.1c-47-36-51.1-53.1-51.1-91.5c0-31,9.1-65.5,29.1-59.5c2-12-7-27.9,2-36
	c3.7-3.3,9.7,4.4,15,2c2-14,16.6-23.8,28-28c14,0,32.1,2.2,42,2c16.3,1.2,18.7,3.3,31,7c5.2,1.6,12.7-4.5,17.5-2.5
	c3.7,1.5,7.6,9.2,11,11c8.2,4.3,16,9,22,15c17.9,17.9,26.3,42.8,36,66C251.1,114.5,248,122.1,248,130z"/>
<path id="XMLID_428_" style="fill:none;stroke:#2E6634;stroke-width:5;stroke-miterlimit:10;" d="M125.3,14.8"/>
<path id="XMLID_430_" style="fill:none;stroke:#2E6634;stroke-width:5;stroke-miterlimit:10;" d="M124.5,13.4"/>
<path id="XMLID_435_" style="fill:none;stroke:#2E6634;stroke-width:5;stroke-miterlimit:10;" d="M128.2,15.5"/>
<path id="XMLID_480_" style="fill:none;stroke:#2E6634;stroke-width:5;stroke-miterlimit:10;" d="M214.3,46.4"/>
<path id="XMLID_439_" style="fill:none;stroke:#2E6634;stroke-width:5;stroke-linecap:round;stroke-miterlimit:10;" d="M169.4,105.1
	c1.4-4.3,3.7-9.3,8.3-10.2c1.6-0.3,3.3,0,4.9-0.1c4.9-0.3,8.9-3.6,12.4-6.8c5-4.5,10.2-9.1,12.9-15.2c1.2-2.7,2-5.8,4.4-7.8
	c0.9-0.7,1.9-1.2,2.7-2c2.4-2.4,1.3-6.3,1.3-9.6c0-3.2,1.1-6.4,0.7-9.6c-0.3-3.2-2.9-6.6-6.3-6.2"/>
<path id="XMLID_3_" style="fill:none;stroke:#2E6634;stroke-width:5;stroke-linecap:round;stroke-miterlimit:10;" d="M45,70.9
	c-4.5-12.4,0.5-39.4,0.5-39.4C53.3,31,65.6,38.6,66.6,46c3.2-2.3,7.9-1,11,1.4s5.1,5.8,8,8.4c2.9,2.7,6.4,4.5,10,6.3
	c14.9,7.2,30.7,12.5,47.1,15.7c5.5,1.1,11.5,1.9,16.7-0.3c2-0.8,3.8-2,5.8-2.8c3.6-1.3,7.7-0.9,11.5-0.9c9.3,0,18.5-2.8,26.1-7.9"/>
<path id="XMLID_1_" style="fill:none;stroke:#2E6634;stroke-width:5;stroke-linecap:round;stroke-miterlimit:10;" d="M159.5,17.5
	c2.6,1.3,9.9-1.8,12.8-2.4c2.9-0.6,5.9-1.5,8.7-0.9c2.9,0.6,5.6,3.2,5,5.9c-0.2,1-0.9,1.9-1.6,2.8c-10.7,14.1-23.2,26.9-37.3,37.9
	c-2.5,1.9-5.1,3.9-8.2,4.4c-4.1,0.6-8.8-1.1-12,1.5"/>
<path id="XMLID_446_" style="fill:none;stroke:#2E6634;stroke-width:5;stroke-linecap:round;stroke-miterlimit:10;" d="M187.7,23.7
	c10.2,3.3,18.7,11.2,22.4,20.8c1,2.7,1.7,5.6,1,8.4"/>
<path id="XMLID_447_" style="fill:none;stroke:#2E6634;stroke-width:5;stroke-linecap:round;stroke-miterlimit:10;" d="M165.8,42
	c-3.1-2.4-7.5-1-11.3-0.1c-5.1,1.2-10.5,1.5-15.8,0.7c-7.8-1.1-16.1-4.4-23.3-1.2c-1,0.5-2.1,1.1-3.2,1.1c-1.1,0.1-2.2-0.3-3.2-0.7
	c-5.3-1.9-10.5-3.8-15.8-5.6c-3-1.1-6.3-2.3-7.9-5c-2.5-3.9-0.3-9,2.3-12.9c2.3-3.5,5.3-7,9.5-8.1c1.8-0.4,3.7-0.4,5.5-0.3
	c11,0.3,22,0.7,33.1,1c3.9,0.1,8.4,0.5,10.8,3.4c1.4,1.7,2,4.1,3.9,5.2c0.8,0.5,1.9,0.7,2.6,1.4c0.9,0.8,1.1,2.2,0.7,3.4
	c-0.7,2.6-3.2,4.5-6,5.2c-2.7,0.8-5.6,0.6-8.4,0.4c-4.1-0.2-8.2-0.5-12.3-0.7c-2.3-0.1-4.7-0.3-6.5-1.5c-1.6-1-2.6-2.5-3.5-4.1
	c-1-1.7-1.9-3.9-0.7-5.5c0.8-1,2.1-1.3,3.4-1.4c3.9-0.3,8,1.1,10.8,3.7c-1.2,1.4-3.4,1.9-5.2,1.2"/>
<path id="XMLID_448_" style="fill:none;stroke:#2E6634;stroke-width:5;stroke-linecap:round;stroke-miterlimit:10;" d="M96.5,8.5
	c-15,0-32.1,17-35,28"/>
<path id="XMLID_450_" style="fill:none;stroke:#2E6634;stroke-width:5;stroke-linecap:round;stroke-miterlimit:10;" d="M146.7,13.3
	c5,1.7,9.9,3.6,14.7,5.7c4.6,2,9.8,5.1,10,9.9"/>
<path id="XMLID_453_" style="fill:none;stroke:#2E6634;stroke-width:5;stroke-linecap:round;stroke-miterlimit:10;" d="M61.3,125.6
	c7.4,18.3,6,39.1,13.8,57.3c10.1,23.6,33.8,38.8,56.3,52.7"/>
<path id="XMLID_454_" style="fill:none;stroke:#2E6634;stroke-width:5;stroke-linecap:round;stroke-miterlimit:10;" d="M70,155.5
	c10.3,4.1,21.8-1.2,32.9-1.9c3-0.2,6.1,0,9.1-0.4c5.4-0.6,10.5-2.7,14.6-6.1"/>
<path id="XMLID_455_" style="fill:none;stroke:#2E6634;stroke-width:5;stroke-linecap:round;stroke-miterlimit:10;" d="M86.4,201.3
	c7.6-4.6,16.3-7.6,25.2-8.7c5.1-0.6,10.3-0.7,15.3-1.8c4.2-0.9,8.1-2.5,12.1-4.1c8.9-3.6,17.7-7.2,26.6-10.8c5-2,10-4.1,14.1-7.5
	c4.1-3.4,7-8.4,6.5-13.5"/>
<path id="XMLID_456_" style="fill:none;stroke:#2E6634;stroke-width:5;stroke-linecap:round;stroke-miterlimit:10;" d="M125.1,231
	c2.9-5.7,8.8-10,15.3-11.2c3.3-0.6,6.8-0.5,10.1-1.2c3.9-0.9,7.4-2.8,10.9-4.8c13.3-7.5,26.8-15.3,37.2-26.2c3.9-4.1,7.4-9,7.5-14.5
	"/>
<path id="XMLID_457_" style="fill:none;stroke:#2E6634;stroke-width:5;stroke-miterlimit:10;" d="M69.3,161.9
	c-6-2.4-19.3-9.6-23.8-14c-2.1-2.1-3.9-4.3-5.8-6.5c-6-6.9-12.5-13.4-19.5-19.4"/>
<path id="XMLID_458_" style="fill:none;stroke:#2E6634;stroke-width:5;stroke-linecap:round;stroke-miterlimit:10;" d="M85.5,199.8
	c-5.6,1.5-13.9-1.3-18.5-4.6c-4.6-3.3-8.4-7.7-12.9-11.2c-1.6-1.3-3.3-2.4-4.7-4c-1-1.2-1.8-2.7-2.8-3.9c-3-3.7-8-5.3-12.6-6.7"/>
<path id="XMLID_460_" style="fill:none;stroke:#2E6634;stroke-width:5;stroke-linecap:round;stroke-miterlimit:10;" d="M122.1,229.9
	c-8.6-2.4-23.6-4.2-31.5-8.2c-2.7-1.4-5.5-2.9-8.6-3c-2.8-0.1-6,0.8-8-1.1"/>
<path id="XMLID_461_" style="fill:none;stroke:#2E6634;stroke-width:5;stroke-linecap:round;stroke-miterlimit:10;" d="M213.8,89.5
	c7.4,4.4,11.9,12.4,13.4,20.6c1.4,8.2,0.2,16.6-1.8,24.7"/>
<path id="XMLID_462_" style="fill:none;stroke:#2E6634;stroke-width:5;stroke-linecap:round;stroke-miterlimit:10;" d="M224.6,96.9
	c4.4-6.5,2.2-15.1,0-22.5"/>
<path id="XMLID_463_" style="fill:none;stroke:#2E6634;stroke-width:5;stroke-linecap:round;stroke-miterlimit:10;" d="M228.8,123.2
	c5.9-7,9.1-16,8.9-25"/>
<path id="XMLID_464_" style="fill:none;stroke:#2E6634;stroke-width:5;stroke-linecap:round;stroke-miterlimit:10;" d="M224.4,106.4
	c-8.4,6.5-21.9,5.7-29.5-1.7"/>
<path id="XMLID_465_" style="fill:none;stroke:#2E6634;stroke-width:5;stroke-linecap:round;stroke-miterlimit:10;" d="M183.7,44.4
	c8.1,4.3,14.4,11.7,17,20.3"/>
<path id="XMLID_467_" style="fill:none;stroke:#2E6634;stroke-width:5;stroke-linecap:round;stroke-miterlimit:10;" d="M190.4,49.5
	c4.6-3.7,6.2-10.4,3.7-15.6"/>
<path id="XMLID_468_" style="fill:none;stroke:#2E6634;stroke-width:5;stroke-linecap:round;stroke-miterlimit:10;" d="M186.3,53.4
	c-2.9,0.9-5.9,1.5-8.9,1.9"/>
<path id="XMLID_470_" style="fill:none;stroke:#2E6634;stroke-width:5;stroke-linecap:round;stroke-miterlimit:10;" d="M90,9.2"/>
<path id="XMLID_508_" style="fill:#8BC53F;stroke:#2E6634;stroke-miterlimit:10;" d="M29.7,75.7"/>
<path style="fill:#8BC53F;stroke:#2E6634;stroke-miterlimit:10;" d="M62.5,25.5"/>
<path style="opacity:0.2;" d="M111.5,246.6c0,0,117.6-15.7,125.3-170.9l4.3,8.9l2.2,9.7l6.2,9.2v9l-5,12l3.1,21.3l-0.6,13.7
	l-10.6,18.7l-9,14.7l-15.6,21.6L200.2,226l-19.6,11.3l-15,6.2l-13.7-0.3l-23,3.4L111.5,246.6z"/>
<path id="XMLID_4_" style="fill:none;stroke:#2E6634;stroke-width:5;stroke-linecap:round;stroke-miterlimit:10;" d="M243.6,165.1
	c-7.4,14.4-15.9,28.2-25.6,41.4c-3.5,4.8-7.2,9.6-11.5,13.8c-15,15-36.9,23.5-58.7,22.8l-3.5,0.9c-11.5,1.9-13.7,3.5-25.3,2.1
	c-7.9-1-15.5-3.4-22.6-6.9c-7-3.4-13.4-7.8-19.8-12.2c-21.3-14.7-43.6-30.5-53.7-53.6C12,148.4,17.4,120,23.3,93.6
	c1.7-7.7,3.6-15.7,9.2-21.4c0,0,16-2.7,22.7,3c8.6,1.7,19.3-4.1,25.3,2c1.4,1.4,2.3,3.3,3.6,4.7c6.5,6.9,19.2,0.5,28,4.5
	c5.6,2.6,8.4,8.9,13.8,11.9c8.3,4.5,19.7-0.5,28,4c3.9,2.2,6.5,6.3,10.7,8c7.3,3,16.3-2.3,23.6,0.8c5.4,2.3,8.2,8.6,13.9,10.5
	c4.7,1.5,11.4,0.3,13.2,4.7c0.7,1.7,0.3,3.7,1.3,5.2c1.1,1.7,3.5,2.1,5.5,3c3.2,1.5,5,4.6,6.8,7.6c4.5,7.8,9,15.5,13.5,23.3"/>
<path id="XMLID_451_" style="fill:none;stroke:#2E6634;stroke-width:5;stroke-linecap:round;stroke-miterlimit:10;" d="M217.5,43.5
	c4.9,8.1,11.5,18.6,16.3,26.7c3.6,6.1,7.4,12.3,8.6,19.2c0.4,2.1,0.5,4.3,1.4,6.2c1.6,3.6,5.7,6.2,6.1,10.1c0.3,2.2-0.7,4.4-1.5,6.6
	c-3.6,10-2.5,21-1.1,31.6c0.6,4.7,1.3,9.6,0.1,14.2c-1.2,4.6-2,11.7-6.9,12.5"/>
</svg>
