<?xml version="1.0" encoding="utf-8"?>
<!-- Generator: Adobe Illustrator 17.0.0, SVG Export Plug-In . SVG Version: 6.00 Build 0)  -->
<!DOCTYPE svg PUBLIC "-//W3C//DTD SVG 1.1//EN" "http://www.w3.org/Graphics/SVG/1.1/DTD/svg11.dtd" [
	<!ENTITY ns_flows "http://ns.adobe.com/Flows/1.0/">
	<!ENTITY ns_extend "http://ns.adobe.com/Extensibility/1.0/">
	<!ENTITY ns_ai "http://ns.adobe.com/AdobeIllustrator/10.0/">
	<!ENTITY ns_graphs "http://ns.adobe.com/Graphs/1.0/">
]>
<svg version="1.1" id="svg5428" xmlns:x="&ns_extend;" xmlns:i="&ns_ai;" xmlns:graph="&ns_graphs;"
	 xmlns="http://www.w3.org/2000/svg" xmlns:xlink="http://www.w3.org/1999/xlink" xmlns:a="http://ns.adobe.com/AdobeSVGViewerExtensions/3.0/"
	 x="0px" y="0px" width="256px" height="256px" viewBox="0 0 256 256" style="enable-background:new 0 0 256 256;"
	 xml:space="preserve">
<g id="g5447" transform="matrix(-1,0,0,1,884.61108,73.581274)">
	<path id="path5513" style="fill:none;stroke:#000000;stroke-width:0.25;stroke-miterlimit:10;" d="M633.7,88.2
		c-2.9-1.5-5.2-2.8-4.8-2.9c0.4-0.1,2.8,1.1,5.5,2.5c5.3,2.7,10.3,3.3,12.2,1.7c0.9-0.8,0.9-0.7,0.1,0.4
		C645,92,639.9,91.4,633.7,88.2z M671.8,78.5c-13.7-6.9-24.2-12.5-23.6-12.5c1.5-0.1,49.5,23.8,49.5,24.6c0,0.3-0.2,0.5-0.6,0.5
		C696.8,91,685.5,85.4,671.8,78.5z M707.3,76c-0.6-1-0.5-1.2,0.6-1.2c1.8,0.1,2.2,0.6,1.1,1.5C708.2,77,707.8,76.9,707.3,76
		L707.3,76z M710.1,29.2l81.8-40.9l12.9,6.5c10,5,13.6,6.5,15.9,6.5c2.9,0,9.3-2.9,36.4-16.8c2.9-1.5,5.5-2.6,5.6-2.4
		c0.1,0.1-8.6,4.7-19.5,10.1C827.7-0.1,823,2,820.7,2c-2.2,0-5.9-1.5-15.9-6.5L791.9-11l-81.2,40.6c-44.7,22.4-81.5,40.6-81.8,40.5
		C628.5,70.1,665.1,51.7,710.1,29.2z M725.9,62.4c-7.6-3.8-13.9-7.3-14.2-7.8c-0.2-0.5,6.3,2.4,14.4,6.5c12.7,6.3,16.5,8.6,14.2,8.4
		C740,69.4,733.6,66.3,725.9,62.4z M692.4,58.8c-1.1-1.2-1.1-1.3,0.1-1.3c0.7,0,1.2,0.6,1.2,1.3c0,0.7-0.1,1.3-0.1,1.3
		S693.1,59.5,692.4,58.8z M750.4,54.4c-0.6-1-0.5-1.2,0.6-1.2c1.8,0.1,2.2,0.6,1.1,1.5C751.3,55.4,751,55.4,750.4,54.4L750.4,54.4z
		 M769.1,40.9c-7.6-3.8-13.9-7.3-14.2-7.8c-0.2-0.5,6.3,2.4,14.4,6.5c12.7,6.3,16.5,8.6,14.2,8.4C783.1,47.8,776.7,44.7,769.1,40.9z
		 M735.6,37.3c-1.1-1.2-1.1-1.3,0.1-1.3c0.7,0,1.2,0.6,1.2,1.3s-0.1,1.3-0.1,1.3S736.2,38,735.6,37.3z M793.5,32.9
		c-0.6-1-0.5-1.2,0.6-1.2c1.8,0.1,2.2,0.6,1.1,1.5C794.5,33.9,794.1,33.8,793.5,32.9L793.5,32.9z M881.9,26.2c-2.1-1-2-1.6,0.2-2.6
		c2.4-1.2,2.5-1.2,2.5,1.3C884.6,27.3,884.4,27.3,881.9,26.2z M812.2,19.3c-7.6-3.8-13.9-7.3-14.2-7.8s6.3,2.4,14.4,6.5
		c12.7,6.3,16.5,8.6,14.2,8.4C826.2,26.3,819.8,23.2,812.2,19.3z M873.3,21.9c-0.9-0.4-1.7-1-1.7-1.2c0-0.4,11.8-6.5,12.6-6.5
		c0.2,0,0.4,1.1,0.4,2.4c0,2.2-0.4,2.5-4,4.3C876.3,23,875.7,23,873.3,21.9z M864.7,17.6c-0.9-0.4-1.7-1-1.7-1.2
		c0-0.4,20.4-10.9,21.2-10.9c0.2,0,0.4,1.1,0.4,2.4c0,2.3-0.2,2.4-8.3,6.5C867.6,18.7,867.2,18.8,864.7,17.6L864.7,17.6z
		 M778.7,15.7c-1.1-1.2-1.1-1.3,0.1-1.3c0.7,0,1.2,0.6,1.2,1.3s-0.1,1.3-0.1,1.3S779.4,16.4,778.7,15.7z M856.1,13.2
		c-0.9-0.4-1.7-1-1.7-1.2c0-0.4,29-15.2,29.8-15.2c0.2,0,0.4,1.1,0.4,2.4c0,2.3-0.1,2.4-12.6,8.6c-6.9,3.5-13,6.3-13.5,6.3
		C858.1,14,856.9,13.7,856.1,13.2z M847.4,8.9c-0.9-0.4-1.7-1-1.7-1.2s7-3.9,15.5-8.1l15.5-7.7l2.6,1.2l2.6,1.2L866.6,2
		c-8.4,4.2-15.8,7.7-16.4,7.7C849.5,9.7,848.3,9.4,847.4,8.9z M838.8,4.6c-0.9-0.4-1.7-1-1.7-1.2s7-3.9,15.5-8.1l15.5-7.7l2.6,1.2
		l2.6,1.2l-15.3,7.7c-8.4,4.2-15.8,7.7-16.4,7.7C840.9,5.4,839.7,5.1,838.8,4.6z"/>
	<path id="path5511" style="fill:none;stroke:#000000;stroke-width:0.25;stroke-miterlimit:10;" d="M708.9,80.6
		c-0.3-1.4-0.4-2.7-0.1-2.9c0.1-0.1,0.6,0.9,0.8,2.3c0.3,1.4,0.4,2.7,0.1,2.9C709.6,83.1,709.1,82,708.9,80.6z M709.2,74.9
		c0-0.5,15.9-8.4,16.2-8.1c0.1,0.1-3.5,2.1-8,4.4C712.9,73.3,709.2,75.1,709.2,74.9z M700.6,71.6c-2.6-1.6-4.3-2.8-4-2.8
		s2.8,1.3,5.4,2.9c2.6,1.6,4.3,2.8,4,2.8S703.2,73.2,700.6,71.6z M694.5,64.4c-0.6-2.1-1-3.9-0.9-4.1c0.1-0.2,0.8,1.4,1.4,3.5
		s1,4,0.9,4.1S695.1,66.4,694.5,64.4z M752,59c-0.3-1.4-0.4-2.7-0.1-2.9c0.1-0.1,0.6,0.9,0.8,2.3c0.3,1.4,0.4,2.7,0.1,2.9
		C752.7,61.5,752.3,60.5,752,59z M671.1,56.5c-1.4-0.8-2.2-1.4-1.9-1.4c0.8-0.1,4.8,2.1,4.8,2.5C674,58.1,674,58.1,671.1,56.5z
		 M684.7,54.7c-3.4-1.7-5.9-3.2-5.5-3.2c0.8-0.1,12,5.7,12,6.1S691.5,58.3,684.7,54.7z M694.1,57.6c0-0.5,13-7,13.4-6.7
		c0.1,0.1-2.8,1.8-6.5,3.7C697.2,56.5,694.1,57.8,694.1,57.6z M752.3,53.3c0-0.5,15.9-8.4,16.2-8.1c0.1,0.1-3.5,2.1-8,4.4
		C756.1,51.8,752.3,53.5,752.3,53.3z M743.7,50.1c-2.6-1.6-4.3-2.8-4-2.8c0.4,0,2.8,1.3,5.4,2.9c2.6,1.6,4.3,2.8,4,2.8
		C748.7,52.9,746.3,51.6,743.7,50.1z M737.7,42.8c-0.6-2.1-1-3.9-0.9-4.1c0.1-0.1,0.8,1.4,1.4,3.5c0.6,2.1,1,4,0.9,4.1
		C738.9,46.5,738.2,44.9,737.7,42.8z M714.2,35c-1.4-0.8-2.2-1.4-1.9-1.4c0.8-0.1,4.8,2.1,4.8,2.5C717.1,36.5,717.1,36.5,714.2,35z
		 M727.9,33.2c-3.4-1.7-5.9-3.2-5.5-3.2c0.8-0.1,12,5.7,12,6.1S734.6,36.7,727.9,33.2z M737.2,36c0-0.5,13-7,13.4-6.7
		c0.1,0.1-2.8,1.8-6.5,3.7C740.3,34.9,737.2,36.3,737.2,36z"/>
	<path id="path5509" style="fill:none;stroke:#000000;stroke-width:0.25;stroke-miterlimit:10;" d="M698.8,81.3
		c-0.6-0.6-1.2-1.7-1.1-2.4c0-1,0.1-0.9,0.8,0.2c0.4,0.8,1.3,1.9,1.9,2.3c0.6,0.4,0.8,0.9,0.3,0.9C700.3,82.3,699.4,81.9,698.8,81.3
		z M717.7,71l8.2-4.2l-6.4-3.7c-3.5-2-6.1-3.7-5.8-3.7c0.9,0,11.8,6.4,12.3,7.3c0.4,0.6-14.7,8.6-16,8.6
		C709.8,75.1,713.2,73.3,717.7,71z M673,68.3c-0.6-0.6-1.2-1.7-1.1-2.4c0-1,0.1-0.9,0.8,0.2c0.4,0.8,1.3,1.9,1.9,2.4
		c0.6,0.5,0.8,0.9,0.3,0.9C674.4,69.5,673.5,69,673,68.3z M742,59.7c-0.6-0.6-1.2-1.7-1.1-2.4c0-1,0.1-0.9,0.8,0.2
		c0.4,0.8,1.3,1.9,1.9,2.4c0.6,0.5,0.8,0.9,0.3,0.9C743.4,60.8,742.5,60.3,742,59.7z M760.9,49.4l8.2-4.2l-6.4-3.7
		c-3.5-2-6.1-3.7-5.8-3.7c0.9,0,11.8,6.4,12.3,7.3c0.4,0.6-14.7,8.6-16,8.6C753,53.6,756.4,51.7,760.9,49.4z M685.7,47.9l8.5-4.3
		l7,3.6c3.9,1.9,6.8,3.6,6.5,3.6c-0.3,0-3.5-1.4-7-3.2l-6.5-3.2l-7.9,4c-4.3,2.2-8.1,4-8.5,4C677.5,52.1,681,50.2,685.7,47.9z
		 M716.1,46.7c-0.6-0.6-1.2-1.7-1.1-2.4c0-1,0.1-0.9,0.8,0.2c0.4,0.8,1.3,1.9,1.9,2.4c0.6,0.5,0.8,0.9,0.3,0.9
		C717.5,47.9,716.7,47.4,716.1,46.7z M795.2,37.5c-0.3-1.4-0.4-2.7-0.1-2.9c0.1-0.1,0.6,0.9,0.8,2.3c0.2,1.4,0.4,2.7,0.1,2.9
		C795.8,39.9,795.4,38.9,795.2,37.5z M785.1,38.1c-0.6-0.6-1.2-1.7-1.1-2.4c0-1,0.1-0.9,0.8,0.2c0.4,0.8,1.3,1.9,1.9,2.4
		s0.8,0.9,0.3,0.9S785.7,38.8,785.1,38.1z M795.5,31.7c0-0.2,3.6-2.2,8.1-4.4l8.1-4l-6-3.5c-3.3-1.9-5.8-3.5-5.4-3.5
		c0.9,0,11.8,6.5,12.3,7.3c0.2,0.4-3.2,2.4-7.5,4.6C797.4,31.9,795.5,32.6,795.5,31.7z M786.8,28.5c-2.6-1.6-4.3-2.8-4-2.8
		c0.4,0,2.8,1.3,5.4,2.9c2.6,1.6,4.3,2.8,4,2.8S789.4,30.1,786.8,28.5z M728.8,26.3l8.5-4.3l7,3.6c3.9,1.9,6.8,3.6,6.5,3.6
		c-0.3,0-3.5-1.4-7-3.2l-6.5-3.2l-7.9,4c-4.3,2.2-8.1,4-8.5,4C720.6,30.6,724.1,28.6,728.8,26.3z M759.2,25.2
		c-0.6-0.6-1.2-1.7-1.1-2.4c0-1,0.1-0.9,0.8,0.2c0.4,0.8,1.3,1.9,1.9,2.4c0.6,0.5,0.8,0.9,0.3,0.9S759.8,25.8,759.2,25.2z
		 M780.8,21.2c-0.6-2.1-1-3.9-0.9-4.1c0.1-0.1,0.8,1.4,1.4,3.5c0.6,2.1,1,4,0.9,4.1C782,24.9,781.4,23.3,780.8,21.2z M757.4,13.4
		c-1.4-0.8-2.2-1.4-1.9-1.4c0.8-0.1,4.8,2.1,4.8,2.5C760.2,15,760.2,15,757.4,13.4z M771.7,12c-2.9-1.5-6-2.8-6.8-2.9s2.4-2,7-4.4
		l8.4-4.2l6.8,3.4c3.7,1.9,6.8,3.6,6.8,3.8s-3.1,1.9-6.9,3.8c-3.8,1.9-6.8,3.2-6.5,2.9s2.9-1.9,6.2-3.4s5.8-3,5.8-3.2
		s-2.7-1.8-6.1-3.5l-6.1-3l-6.8,3.4c-3.7,1.9-6.8,3.6-6.8,3.8c0,0.2,2.3,1.5,5.1,2.9c2.8,1.4,5.2,2.7,5.5,3
		C777.7,15,777.7,15,771.7,12z"/>
	<path id="path5505" style="fill:none;stroke:#000000;stroke-width:0.25;stroke-miterlimit:10;" d="M710,78.7c-0.1-1.1,0.1-2,0.2-2
		s0.9-0.2,1.7-0.4c1.2-0.4,1.2-0.4,0.1,0.6c-0.6,0.6-1.4,1.7-1.5,2.4C710.2,80.2,710.1,80.1,710,78.7z M722.9,72.2
		c-0.1-1.1,0.1-2,0.2-2s0.9-0.2,1.7-0.4c1.2-0.4,1.2-0.4,0.1,0.6c-0.6,0.6-1.4,1.7-1.5,2.4C723.1,73.8,723,73.6,722.9,72.2z
		 M753.1,57.1c-0.1-1.1,0.1-2,0.2-2c0.1,0,0.9-0.2,1.7-0.4c1.2-0.4,1.2-0.4,0.1,0.6c-0.6,0.6-1.4,1.7-1.5,2.4
		C753.3,58.7,753.2,58.5,753.1,57.1z M766.1,50.6c-0.1-1.1,0.1-2,0.2-2c0.1,0,0.9-0.2,1.7-0.4c1.2-0.4,1.2-0.4,0.1,0.6
		c-0.6,0.6-1.4,1.7-1.5,2.4C766.3,52.2,766.1,52.1,766.1,50.6z M796.3,35.5c-0.1-1.1,0.1-2,0.2-2s0.9-0.2,1.7-0.4
		c1.2-0.4,1.2-0.4,0.1,0.5c-0.6,0.6-1.4,1.7-1.5,2.4C796.5,37.1,796.3,37,796.3,35.5z M809.2,29.1c-0.1-1.1,0.1-2,0.2-2
		s0.9-0.2,1.7-0.4c1.2-0.4,1.2-0.4,0.1,0.6c-0.6,0.6-1.4,1.7-1.5,2.4C809.4,30.6,809.3,30.5,809.2,29.1z"/>
	<path id="path5503" style="fill:none;stroke:#000000;stroke-width:0.25;stroke-miterlimit:10;" d="M701.9,71.7l-5.5-3.4l8.2-4.1
		c4.5-2.2,8.6-4.1,9.1-4.1s3.3,1.4,6.2,3.2l5.3,3.2l-8.7,4.4c-4.8,2.4-8.8,4.3-8.9,4.3S705,73.6,701.9,71.7z M686.4,54.9
		c-3.2-1.7-6-3.2-6-3.4c0-0.2,3.1-1.9,6.8-3.8l6.8-3.4l6.1,3c3.4,1.7,6.1,3.2,6.1,3.5c0,0.4-13.4,7.3-13.9,7.1
		C692.4,57.9,689.6,56.5,686.4,54.9z M671.3,56l-2.3-1.2l9-4.5c5-2.4,9.2-4.5,9.5-4.5c0.3,0-2.3,1.4-5.7,3.2
		c-5.3,2.7-6.3,3.5-6.7,5.3C674.5,57.2,674,57.3,671.3,56z"/>
	<path id="path5501" style="fill:none;stroke:#000000;stroke-width:0.25;stroke-miterlimit:10;" d="M788.1,28.6l-5.5-3.4l8.2-4.1
		c4.5-2.2,8.6-4.1,9.1-4.1s3.3,1.4,6.2,3.2l5.3,3.2l-8.7,4.4c-4.8,2.4-8.8,4.3-8.9,4.3C793.7,32,791.2,30.4,788.1,28.6z M772.7,11.7
		c-3.2-1.7-6-3.2-6-3.4c0-0.2,3.1-1.9,6.8-3.8l6.8-3.4l6.1,3c3.4,1.7,6.1,3.2,6.1,3.5c0,0.4-13.4,7.3-13.9,7.1
		C778.6,14.8,775.9,13.4,772.7,11.7z M757.6,12.8l-2.3-1.2l9-4.5c5-2.4,9.2-4.5,9.5-4.5c0.3,0-2.3,1.4-5.7,3.2
		c-5.3,2.7-6.3,3.5-6.7,5.3C760.7,14,760.3,14.2,757.6,12.8z"/>
	<path id="path5499" style="fill:none;stroke:#000000;stroke-width:0.25;stroke-miterlimit:10;" d="M745,50.1l-5.5-3.4l8.2-4.1
		c4.5-2.2,8.6-4.1,9.1-4.1s3.3,1.4,6.2,3.2l5.3,3.2l-8.7,4.4c-4.8,2.4-8.8,4.3-8.9,4.3S748.1,52,745,50.1z M729.5,33.3
		c-3.2-1.7-6-3.2-6-3.4s3.1-1.9,6.8-3.8l6.8-3.4l6.1,3c3.4,1.7,6.1,3.2,6.1,3.5c0,0.4-13.4,7.3-13.9,7.1
		C735.5,36.3,732.8,35,729.5,33.3z M714.4,34.4l-2.3-1.2l9-4.5c5-2.4,9.2-4.5,9.5-4.5s-2.3,1.4-5.7,3.2c-5.3,2.7-6.3,3.5-6.7,5.3
		C717.6,35.6,717.2,35.7,714.4,34.4z"/>
	<path id="path5497" style="fill:none;stroke:#000000;stroke-width:0.25;stroke-miterlimit:10;" d="M645.9,91.1
		c0-0.4,0.4-0.9,0.7-1.2s0.7-0.1,0.7,0.3c0,0.4-0.4,0.9-0.7,1.2S645.9,91.5,645.9,91.1z M628.7,71.1c0-0.3,36.4-18.8,80.9-41
		c68.4-34.2,83.9-41.7,81.5-39.4c-0.4,0.4-161.6,80.9-162,80.9C628.8,71.6,628.7,71.4,628.7,71.1z M824.2,2.1
		c0-0.7,39.6-20.3,41-20.3c1,0.1-39.2,20.7-40.5,20.8C824.4,2.6,824.2,2.4,824.2,2.1z"/>
	<path id="path5495" style="fill:none;stroke:#000000;stroke-width:0.25;stroke-miterlimit:10;" d="M710.8,78.3
		c0.1-0.6,0.6-1.4,1.2-1.5c1.3-0.4,1.1,1.7-0.2,2.2C710.8,79.4,710.6,79.2,710.8,78.3z M723.7,71.8c0.1-0.6,0.6-1.4,1.2-1.5
		c1.3-0.4,1.1,1.7-0.2,2.2C723.8,72.9,723.6,72.7,723.7,71.8z M753.9,56.7c0.1-0.6,0.6-1.4,1.2-1.5c1.3-0.4,1.1,1.7-0.2,2.2
		C754,57.8,753.8,57.6,753.9,56.7z M766.8,50.3c0.1-0.6,0.6-1.4,1.2-1.5c1.3-0.4,1.1,1.7-0.2,2.2C766.9,51.3,766.7,51.1,766.8,50.3z
		 M797,35.2c0.1-0.6,0.6-1.4,1.2-1.5c1.3-0.4,1.1,1.7-0.2,2.2C797.1,36.3,796.9,36,797,35.2z M810,28.7c0.1-0.6,0.6-1.4,1.2-1.5
		c1.3-0.4,1.1,1.7-0.2,2.2C810.1,29.8,809.8,29.6,810,28.7z"/>
	<path id="path5493" style="fill:none;stroke:#000000;stroke-width:0.25;stroke-miterlimit:10;" d="M700.3,80.6
		c-1.4-1.4-1.5-2.6-0.1-2.1c1,0.4,2.2,2.4,1.6,2.9C701.6,81.6,700.9,81.3,700.3,80.6z M674.4,67.7c-1.4-1.4-1.5-2.6-0.1-2.1
		c1,0.4,2.2,2.4,1.6,2.9C675.7,68.7,675,68.3,674.4,67.7z M743.4,59c-1.4-1.4-1.5-2.6-0.1-2.1c1,0.4,2.2,2.4,1.6,2.9
		C744.7,60,744.1,59.7,743.4,59z M717.5,46.1c-1.4-1.4-1.5-2.6-0.1-2.1c1,0.4,2.2,2.4,1.6,2.9C718.8,47.1,718.2,46.7,717.5,46.1z
		 M786.5,37.5c-1.4-1.4-1.5-2.6-0.1-2.1c1,0.4,2.2,2.4,1.6,2.9C787.8,38.5,787.2,38.1,786.5,37.5z M760.7,24.5
		c-1.4-1.4-1.5-2.6-0.1-2.1c1,0.4,2.2,2.4,1.6,2.9C762,25.5,761.3,25.2,760.7,24.5z"/>
	<path id="path5491" style="fill:none;stroke:#000000;stroke-width:0.25;stroke-miterlimit:10;" d="M690.6,64.9l-3.1-1.6l2.5-1.2
		c1.4-0.6,2.7-1,2.8-0.7c0.4,0.7,1.4,5.2,1.1,5.2C693.9,66.5,692.4,65.8,690.6,64.9z M733.8,43.4l-3.1-1.6l2.5-1.2
		c1.4-0.6,2.7-1,2.8-0.7c0.4,0.7,1.4,5.2,1.1,5.2C737,45,735.5,44.2,733.8,43.4z M776.9,21.8l-3.1-1.6l2.5-1.2
		c1.4-0.6,2.7-1,2.8-0.7c0.4,0.7,1.4,5.2,1.1,5.2C780.1,23.4,778.6,22.7,776.9,21.8z"/>
	<path id="path5489" style="fill:none;stroke:#000000;stroke-width:0.25;stroke-miterlimit:10;" d="M711.4,79.4
		c0.6-0.5,1.4-1.4,1.6-2c0.4-0.9,0.4-0.9,0.5,0.1c0,0.6-0.6,1.6-1.6,2C710.6,80.2,710.5,80.2,711.4,79.4z M724.4,72.9
		c0.6-0.5,1.4-1.4,1.6-2c0.4-0.9,0.4-0.9,0.5,0.1c0,0.6-0.6,1.6-1.6,2C723.5,73.8,723.4,73.7,724.4,72.9z M754.6,57.8
		c0.6-0.5,1.4-1.4,1.6-2c0.4-0.9,0.4-0.9,0.5,0.1c0,0.6-0.6,1.6-1.6,2C753.7,58.7,753.6,58.6,754.6,57.8z M767.5,51.3
		c0.6-0.5,1.4-1.4,1.6-2c0.4-0.9,0.4-0.9,0.5,0.1c0,0.6-0.6,1.6-1.6,2C766.6,52.2,766.6,52.1,767.5,51.3z M797.7,36.3
		c0.6-0.5,1.4-1.4,1.6-2c0.4-0.9,0.4-0.9,0.5,0.1c0,0.6-0.6,1.6-1.6,2C796.8,37.1,796.8,37,797.7,36.3z M810.6,29.8
		c0.6-0.5,1.4-1.4,1.6-2c0.4-0.9,0.4-0.9,0.5,0.1c0,0.6-0.6,1.6-1.6,2C809.8,30.6,809.7,30.6,810.6,29.8z"/>
	<path id="path5487" style="fill:none;stroke:#000000;stroke-width:0.25;stroke-miterlimit:10;" d="M695.9,64.4
		c-0.2-0.4-0.1-0.7,0.3-0.7c0.4,0,0.9,0.4,1.2,0.7c0.2,0.4,0.1,0.7-0.3,0.7C696.6,65.2,696.2,64.9,695.9,64.4z M697.3,63.5
		c-2.5-1.4-3.5-4.1-1.4-4.1c1.4,0,6.1,2.3,6.1,2.9C702,63.4,698.7,64.3,697.3,63.5z M700.1,60.3c-2.8-1.4-2.9-2.2-0.6-2.7
		c2.7-0.6,8.1,2.7,5.8,3.6c-0.6,0.2-0.9,0.1-0.6-0.3c0.2-0.4,0.1-0.7-0.3-0.7c-0.4,0-0.8,0.4-0.8,0.7
		C703.4,61.8,702.8,61.7,700.1,60.3z M704.4,58.2c-2.4-1.2-3.1-2.4-1.3-2.4c1.4,0,6.1,2.3,6.1,3C709.2,59.8,706.9,59.4,704.4,58.2z
		 M739,42.9c-0.2-0.4-0.1-0.7,0.3-0.7c0.4,0,0.9,0.3,1.2,0.7s0.1,0.7-0.3,0.7C739.7,43.6,739.3,43.3,739,42.9z M740.4,41.9
		c-2.5-1.4-3.5-4.1-1.4-4.1c1.4,0,6.1,2.3,6.1,2.9C745.1,41.9,741.8,42.7,740.4,41.9z M743.2,38.8c-2.8-1.4-2.9-2.2-0.6-2.7
		c2.7-0.6,8.1,2.7,5.8,3.6c-0.6,0.2-0.9,0.1-0.6-0.3c0.2-0.4,0.1-0.7-0.3-0.7s-0.8,0.3-0.8,0.7C746.6,40.2,745.9,40.1,743.2,38.8z
		 M747.5,36.6c-2.4-1.2-3.1-2.4-1.3-2.4c1.4,0,6.1,2.3,6.1,3C752.3,38.2,750,37.8,747.5,36.6z M782.2,21.3c-0.2-0.4-0.1-0.7,0.3-0.7
		c0.4,0,0.9,0.4,1.2,0.7c0.2,0.4,0.1,0.7-0.3,0.7C782.9,22,782.4,21.7,782.2,21.3z M783.5,20.4c-2.5-1.4-3.5-4.1-1.4-4.1
		c1.4,0,6.1,2.3,6.1,2.9C788.3,20.3,785,21.2,783.5,20.4z M786.3,17.2c-2.8-1.4-2.9-2.2-0.6-2.7c2.7-0.6,8.1,2.7,5.8,3.6
		c-0.6,0.2-0.9,0.1-0.6-0.3c0.2-0.4,0.1-0.7-0.3-0.7s-0.8,0.4-0.8,0.7C789.7,18.6,789.1,18.6,786.3,17.2z M790.6,15
		c-2.4-1.2-3.1-2.4-1.3-2.4c1.4,0,6.1,2.3,6.1,3C795.5,16.6,793.2,16.3,790.6,15z"/>
	<path id="path5483" style="fill:none;stroke:#000000;stroke-width:0.25;stroke-miterlimit:10;" d="M704.7,82.7
		c-0.3-0.3-0.5-1.3-0.5-2.2c0-2-3.6-6-5.5-6c-0.7,0-2,0.7-2.9,1.6c-0.9,0.9-1.9,1.4-2.1,1.2c-0.5-0.5,1.8-6.8,2.7-7.4
		c0.8-0.5,10.6,5.3,11.4,6.8c0.4,0.6,0.9,2.4,1.2,4c0.5,2.7,0.5,2.7-1.1,1.9c-1.2-0.6-1.7-0.6-2.1-0.1
		C705.4,82.8,705,82.9,704.7,82.7L704.7,82.7z M689,74.9c-3.3-1.7-3.4-1.8-3.9-6.1c-0.3-2.4-0.4-4.5-0.1-4.7s2.3,0.6,4.7,1.9
		c2.4,1.2,4.5,2.2,4.7,2.2c0.1,0-0.2-1.9-0.8-4.3c-1-3.9-1.4-4.5-4-5.8c-1.6-0.8-3-1.3-3.2-1.2c-0.1,0.1-0.6,1.7-0.9,3.5
		c-0.4,2.4-0.6,2.6-0.6,1c0-1.2,0.2-3,0.4-4.1l0.4-1.9l3.6,1.9c3,1.7,3.7,2.4,4.5,5.2c1.6,5.4,1.6,7.3-0.1,10.9l-1.6,3.4L689,74.9z
		 M681,70.9c-2-1.1-2.7-1.9-2.7-3.2c0-2.2-3.6-6-5.6-6c-0.8,0-1.8,0.4-2.2,1c-2,2.4-4.8-3.8-3-6.7c0.5-0.8,1.2-0.6,3.5,0.6
		c1.7,0.8,3.1,1.5,3.3,1.5c0.2,0,0.7-1.3,1.2-2.9c0.7-2.4,1.2-2.9,2.7-2.9c1.7,0,7.8,2.8,6.2,2.8c-0.4,0-1.5-0.4-2.5-1
		c-2.5-1.4-2.7-1.4-3.5,1.2c-1.3,3.7-1,4.5,2.4,6.2c2.7,1.3,3.2,1.9,3.2,3.5c0,1.1,0.2,3.2,0.4,4.7C685,72.7,684.7,72.8,681,70.9z"
		/>
	<path id="path5481" style="fill:none;stroke:#000000;stroke-width:0.25;stroke-miterlimit:10;" d="M689.5,65.1l-4.2-2.2l0.4-2.9
		c0.2-1.6,0.6-3,0.7-3.2c0.5-0.5,6.3,2.5,6.3,3.3c0,0.4-1.2,1.3-2.6,2l-2.6,1.3l2.9,1.4c1.7,0.7,3.2,1.6,3.3,1.9
		C694.3,67.5,694.3,67.5,689.5,65.1z M680.8,60.7c-1.6-0.8-3-1.6-3.2-1.7c-0.4-0.3,1.3-6,1.7-6c0.1,0,1.4,0.6,2.9,1.2
		c2.6,1.2,2.9,2.1,1.9,6.1l-0.4,1.9L680.8,60.7z M732.6,43.5l-4.2-2.2l0.4-2.9c0.2-1.6,0.6-3,0.7-3.2c0.5-0.5,6.3,2.5,6.3,3.3
		c0,0.4-1.2,1.3-2.6,2l-2.6,1.3l2.9,1.4c1.7,0.7,3.2,1.6,3.3,1.9C737.4,46,737.4,46,732.6,43.5z M723.9,39.1c-1.6-0.8-3-1.6-3.2-1.7
		c-0.4-0.3,1.3-6,1.7-6c0.1,0,1.4,0.6,2.9,1.2c2.6,1.2,2.9,2.1,1.9,6.1l-0.4,1.9L723.9,39.1z M775.8,21.9l-4.2-2.2l0.4-2.9
		c0.2-1.6,0.6-3,0.7-3.2c0.5-0.5,6.3,2.5,6.3,3.3c0,0.4-1.2,1.3-2.6,2l-2.6,1.3l2.9,1.4c1.7,0.7,3.2,1.6,3.3,1.9
		C780.6,24.4,780.6,24.4,775.8,21.9z M767.1,17.6c-1.6-0.8-3-1.6-3.2-1.7c-0.4-0.3,1.3-6,1.7-6c0.1,0,1.4,0.6,2.9,1.2
		c2.6,1.2,2.9,2.1,1.9,6.1l-0.4,1.9L767.1,17.6z"/>
	<path id="path5479" style="fill:none;stroke:#000000;stroke-width:0.25;stroke-miterlimit:10;" d="M790.9,39.6
		c-0.3-0.3-0.5-1.3-0.5-2.2c0-2-3.6-6-5.5-6c-0.7,0-2,0.7-2.9,1.6c-0.9,0.9-1.9,1.4-2.1,1.2c-0.5-0.5,1.8-6.8,2.7-7.4
		c0.8-0.5,10.6,5.3,11.4,6.8c0.4,0.6,0.9,2.4,1.2,4c0.5,2.7,0.5,2.7-1.1,1.9c-1.2-0.6-1.7-0.6-2.1-0.1
		C791.6,39.6,791.2,39.8,790.9,39.6L790.9,39.6z M775.3,31.7c-3.3-1.7-3.4-1.8-3.9-6.1c-0.3-2.4-0.4-4.5-0.1-4.7
		c0.2-0.2,2.3,0.6,4.7,1.9c2.4,1.2,4.5,2.2,4.7,2.2s-0.2-1.9-0.8-4.3c-1-3.9-1.4-4.5-4-5.8c-1.6-0.8-3-1.3-3.2-1.2
		c-0.1,0.1-0.6,1.7-0.9,3.5c-0.4,2.4-0.6,2.6-0.6,1c0-1.2,0.2-3,0.4-4.1l0.4-1.9l3.6,1.9c3,1.7,3.7,2.4,4.5,5.2
		c1.6,5.4,1.6,7.3-0.1,10.9l-1.6,3.4L775.3,31.7z M767.3,27.8c-2-1.1-2.7-1.9-2.7-3.2c0-2.2-3.6-6-5.6-6c-0.8,0-1.8,0.4-2.2,1
		c-2,2.4-4.8-3.8-3-6.7c0.5-0.8,1.2-0.6,3.5,0.6c1.7,0.8,3.1,1.5,3.3,1.5c0.2,0,0.7-1.3,1.2-2.9c0.7-2.4,1.2-2.9,2.7-2.9
		c1.7,0,7.8,2.8,6.2,2.8c-0.4,0-1.5-0.4-2.5-1c-2.5-1.4-2.7-1.4-3.5,1.2c-1.3,3.7-1,4.5,2.4,6.2c2.7,1.3,3.2,1.9,3.2,3.5
		c0,1.1,0.2,3.2,0.4,4.7C771.3,29.6,770.9,29.7,767.3,27.8z"/>
	<path id="path5477" style="fill:none;stroke:#000000;stroke-width:0.25;stroke-miterlimit:10;" d="M747.8,61.1
		c-0.3-0.3-0.5-1.3-0.5-2.2c0-2-3.6-6-5.5-6c-0.7,0-2,0.7-2.9,1.6c-0.9,0.9-1.9,1.4-2.1,1.2c-0.5-0.5,1.8-6.8,2.7-7.4
		c0.8-0.5,10.6,5.3,11.4,6.8c0.4,0.6,0.9,2.4,1.2,4c0.5,2.7,0.5,2.7-1.1,1.9c-1.2-0.6-1.7-0.6-2.1-0.1
		C748.5,61.2,748.1,61.3,747.8,61.1L747.8,61.1z M732.1,53.3c-3.3-1.7-3.4-1.8-3.9-6.1c-0.3-2.4-0.4-4.5-0.1-4.7
		c0.2-0.2,2.3,0.6,4.7,1.9s4.5,2.2,4.7,2.2s-0.2-1.9-0.8-4.3c-1-3.9-1.4-4.5-4-5.8c-1.6-0.8-3-1.3-3.2-1.2s-0.6,1.7-0.9,3.5
		c-0.4,2.4-0.6,2.6-0.6,1c0-1.2,0.2-3,0.4-4.1l0.4-1.9l3.6,1.9c3,1.7,3.7,2.4,4.5,5.2c1.6,5.4,1.6,7.3-0.1,10.9l-1.6,3.4L732.1,53.3
		z M724.1,49.3c-2-1.1-2.7-1.9-2.7-3.2c0-2.2-3.6-6-5.6-6c-0.8,0-1.8,0.4-2.2,1c-2,2.4-4.8-3.8-3-6.7c0.5-0.8,1.2-0.6,3.5,0.6
		c1.7,0.8,3.1,1.5,3.3,1.5s0.7-1.3,1.2-2.9c0.7-2.4,1.2-2.9,2.7-2.9c1.7,0,7.8,2.8,6.2,2.8c-0.4,0-1.5-0.4-2.5-1
		c-2.5-1.4-2.7-1.4-3.5,1.2c-1.3,3.7-1,4.5,2.4,6.2c2.7,1.3,3.2,1.9,3.2,3.5c0,1.1,0.2,3.2,0.4,4.7
		C728.2,51.1,727.8,51.3,724.1,49.3z"/>
	<path id="path5475" style="fill:none;stroke:#000000;stroke-width:0.25;stroke-miterlimit:10;" d="M696.3,65.9
		c0-0.4,0.4-0.7,0.9-0.7s0.3-0.5-0.5-1.1c-1.5-1.2-0.7-1.4,0.9-0.4c1,0.6,4.4-0.4,4.4-1.4c0-0.6-4.8-2.9-6.1-2.9
		c-2.4,0-0.7-1.3,5.6-4.4l6.7-3.3l2.4,3.1c1.3,1.7,2.4,3.3,2.4,3.5c0,0.4-15.5,8.3-16.2,8.3C696.4,66.6,696.3,66.3,696.3,65.9
		L696.3,65.9z M703.4,60.8c0-0.4,0.4-0.7,0.8-0.7s0.6,0.3,0.3,0.7c-0.2,0.4,0,0.5,0.6,0.3c2.3-0.9-3.1-4.2-5.8-3.6
		c-2.4,0.6-2.2,1.4,0.6,2.7C702.8,61.7,703.4,61.8,703.4,60.8z M709.2,58.8c0-0.7-4.7-3-6.1-3c-1.8,0-1.2,1.2,1.3,2.4
		C706.9,59.4,709.2,59.8,709.2,58.8z M739.4,44.3c0-0.4,0.4-0.7,0.9-0.7s0.3-0.5-0.5-1.1c-1.5-1.2-0.7-1.4,0.9-0.4
		c1,0.6,4.4-0.4,4.4-1.4c0-0.6-4.8-2.9-6.1-2.9c-2.4,0-0.7-1.3,5.6-4.4l6.7-3.3l2.4,3.1c1.3,1.7,2.4,3.3,2.4,3.5
		c0,0.4-15.5,8.3-16.2,8.3C739.5,45,739.4,44.7,739.4,44.3L739.4,44.3z M746.6,39.3c0-0.4,0.4-0.7,0.8-0.7s0.6,0.3,0.3,0.7
		c-0.2,0.4,0,0.5,0.6,0.3c2.3-0.9-3.1-4.2-5.8-3.6c-2.4,0.6-2.2,1.4,0.6,2.7C745.9,40.1,746.6,40.2,746.6,39.3z M752.3,37.3
		c0-0.7-4.7-3-6.1-3c-1.8,0-1.2,1.2,1.3,2.4C750,37.8,752.3,38.2,752.3,37.3z M782.5,22.7c0-0.4,0.4-0.7,0.9-0.7s0.3-0.5-0.5-1.1
		c-1.5-1.2-0.7-1.4,0.9-0.4c1,0.6,4.4-0.4,4.4-1.4c0-0.6-4.8-2.9-6.1-2.9c-2.4,0-0.7-1.3,5.6-4.4l6.7-3.3l2.4,3.1
		c1.3,1.7,2.4,3.3,2.4,3.5c0,0.4-15.5,8.3-16.2,8.3C782.7,23.5,782.5,23.2,782.5,22.7L782.5,22.7z M789.7,17.7
		c0-0.4,0.4-0.7,0.8-0.7c0.4,0,0.6,0.3,0.3,0.7c-0.2,0.4,0,0.5,0.6,0.3c2.3-0.9-3.1-4.2-5.8-3.6c-2.4,0.6-2.2,1.4,0.6,2.7
		C789.1,18.6,789.7,18.6,789.7,17.7z M795.5,15.7c0-0.7-4.7-3-6.1-3c-1.8,0-1.2,1.2,1.3,2.4C793.2,16.3,795.5,16.6,795.5,15.7z"/>
	<path id="path5473" style="fill:none;stroke:#000000;stroke-width:0.25;stroke-miterlimit:10;" d="M633.3,89.5
		c-4.9-2.5-5-2.6-4.5-3.2c0.5-0.5,9.9,4.1,9.9,4.9C638.7,92.1,637.9,91.8,633.3,89.5z M803.7-3.6c-13.3-6.7-13-6.5-12.4-7.1
		c0.5-0.5,25.7,12,25.7,12.8C817,3,816.2,2.7,803.7-3.6z"/>
	<path id="path5465" style="fill:none;stroke:#000000;stroke-width:0.25;stroke-miterlimit:10;" d="M709.7,80.5
		c-0.3-0.3-0.5-1.2-0.5-2.2c0-2.2,3.3-4,4.4-2.4c1.2,1.8,0.7,3.3-1.2,4.2C710.3,81.1,710.3,81.1,709.7,80.5z M712.1,79.5
		c1.4-0.8,1.9-2.4,0.7-3.2c-1.2-0.8-2.9,0.5-2.9,2.2C709.9,80.5,710.1,80.6,712.1,79.5z M722.6,74.1c-0.3-0.3-0.5-1.2-0.5-2.2
		c0-2.2,3.3-4,4.4-2.4c1.2,1.8,0.7,3.3-1.2,4.2C723.2,74.6,723.2,74.6,722.6,74.1z M725.1,73.1c1.4-0.8,1.9-2.4,0.7-3.2
		c-1.2-0.8-2.9,0.5-2.9,2.2C722.9,74,723.1,74.1,725.1,73.1z M752.8,59c-0.3-0.3-0.5-1.2-0.5-2.2c0-2.2,3.3-4,4.4-2.4
		c1.2,1.8,0.7,3.3-1.2,4.2C753.4,59.5,753.4,59.5,752.8,59z M755.3,58c1.4-0.8,1.9-2.4,0.7-3.2c-1.2-0.8-2.9,0.5-2.9,2.2
		C753,58.9,753.3,59,755.3,58z M765.8,52.5c-0.3-0.3-0.5-1.2-0.5-2.2c0-2.2,3.3-4,4.4-2.4c1.2,1.8,0.7,3.3-1.2,4.2
		C766.3,53.1,766.3,53.1,765.8,52.5z M768.2,51.5c1.4-0.8,1.9-2.4,0.7-3.2c-1.2-0.8-2.9,0.5-2.9,2.2C766,52.4,766.2,52.6,768.2,51.5
		z M796,37.4c-0.3-0.3-0.5-1.2-0.5-2.2c0-2.2,3.3-4,4.4-2.4c1.2,1.8,0.7,3.3-1.2,4.2C796.5,38,796.5,38,796,37.4z M798.4,36.4
		c1.4-0.8,1.9-2.4,0.7-3.2c-1.2-0.8-2.9,0.5-2.9,2.2C796.2,37.3,796.4,37.5,798.4,36.4z M808.9,30.9c-0.3-0.3-0.5-1.2-0.5-2.2
		c0-2.2,3.3-4,4.4-2.4c1.2,1.8,0.7,3.3-1.2,4.2C809.5,31.5,809.5,31.5,808.9,30.9z M811.3,29.9c1.4-0.8,1.9-2.4,0.7-3.2
		c-1.2-0.8-2.9,0.5-2.9,2.2C809.1,30.9,809.3,31,811.3,29.9z"/>
	<path id="path5461" style="fill:none;stroke:#000000;stroke-width:0.25;stroke-miterlimit:10;" d="M704.2,63.7
		c4.5-2.3,8.6-4.2,9-4.2s-3,1.9-7.5,4.2c-4.5,2.3-8.6,4.2-9,4.2S699.6,66.1,704.2,63.7z M674.3,57c0.2-0.7,0.6-2.1,0.8-3.1
		c0.4-1.3,1.9-2.5,6.2-4.7c3.2-1.6,5.9-2.7,6-2.6s-2.3,1.5-5.5,3.1c-3.2,1.6-5.8,3.2-5.8,3.5c0,0.4-0.5,1.7-1.1,2.9
		C674.4,57.4,674.1,57.7,674.3,57L674.3,57z"/>
	<path id="path5459" style="fill:none;stroke:#000000;stroke-width:0.25;stroke-miterlimit:10;" d="M790.4,20.6
		c4.5-2.3,8.6-4.2,9-4.2c0.4,0-3,1.9-7.5,4.2s-8.6,4.2-9,4.2C782.5,24.8,785.9,23,790.4,20.6z M760.6,13.9c0.2-0.7,0.6-2.1,0.8-3.1
		c0.4-1.3,1.9-2.5,6.2-4.7c3.2-1.6,5.9-2.7,6-2.6c0.1,0.1-2.3,1.5-5.5,3.1c-3.2,1.5-5.8,3.2-5.8,3.5s-0.5,1.7-1.1,2.9
		C760.7,14.3,760.4,14.6,760.6,13.9L760.6,13.9z"/>
	<path id="path5457" style="fill:none;stroke:#000000;stroke-width:0.25;stroke-miterlimit:10;" d="M747.3,42.1
		c4.5-2.3,8.6-4.2,9-4.2s-3,1.9-7.5,4.2s-8.6,4.2-9,4.2C739.4,46.4,742.8,44.5,747.3,42.1z M717.5,35.5c0.2-0.7,0.6-2.1,0.8-3.1
		c0.4-1.3,1.9-2.5,6.2-4.7c3.2-1.6,5.9-2.7,6-2.6c0.1,0.1-2.3,1.5-5.5,3.1c-3.2,1.6-5.8,3.2-5.8,3.5c0,0.4-0.5,1.7-1.1,2.9
		C717.6,35.7,717.2,36.2,717.5,35.5L717.5,35.5z"/>
	<path id="path5451" style="fill:none;stroke:#000000;stroke-width:0.25;stroke-miterlimit:10;" d="M703.4,81c0-2.4-2.7-5.8-4.7-5.8
		c-0.6,0-1.9,0.6-2.7,1.3c-1.5,1.2-1.5,1.2-0.1-0.4c0.7-0.9,1.9-1.7,2.7-1.7c2.1,0,5,3,5.6,6c0.4,1.6,0.4,2.7-0.1,2.7
		C703.7,83.1,703.4,82.1,703.4,81L703.4,81z M677.6,68c0-2.4-2.7-5.8-4.7-5.8c-0.6,0-1.9,0.6-2.7,1.3c-1.5,1.2-1.5,1.2-0.1-0.4
		c0.7-0.9,1.9-1.7,2.7-1.7c2.1,0,5,3,5.6,6c0.4,1.6,0.4,2.7-0.1,2.7C677.8,70.2,677.6,69.2,677.6,68L677.6,68z M746.6,59.4
		c0-2.4-2.7-5.8-4.7-5.8c-0.6,0-1.9,0.6-2.7,1.3c-1.5,1.2-1.5,1.2-0.1-0.4c0.7-0.9,1.9-1.7,2.7-1.7c2.1,0,5,3,5.6,5.9
		c0.4,1.6,0.4,2.7-0.1,2.7C746.9,61.6,746.6,60.6,746.6,59.4z M720.7,46.5c0-2.4-2.7-5.8-4.7-5.8c-0.6,0-1.9,0.6-2.7,1.3
		c-1.5,1.2-1.5,1.2-0.1-0.4c0.7-0.9,1.9-1.7,2.7-1.7c2.1,0,5,3,5.6,6c0.4,1.6,0.4,2.7-0.1,2.7C721,48.6,720.7,47.6,720.7,46.5z
		 M789.7,37.8c0-2.4-2.7-5.8-4.7-5.8c-0.6,0-1.9,0.6-2.7,1.2c-1.5,1.2-1.5,1.2-0.1-0.4c0.7-0.9,1.9-1.7,2.7-1.7c2.1,0,5,3,5.6,6
		c0.4,1.6,0.4,2.7-0.1,2.7C790,40,789.7,39,789.7,37.8z M763.8,24.9c0-2.4-2.7-5.8-4.7-5.8c-0.6,0-1.9,0.6-2.7,1.3
		c-1.5,1.2-1.5,1.2-0.1-0.4c0.7-0.9,1.9-1.7,2.7-1.7c2.1,0,5,3,5.6,6c0.4,1.6,0.4,2.7-0.1,2.7C764.1,27.1,763.8,26,763.8,24.9z"/>
	<path id="path5449" style="fill:none;stroke:#000000;stroke-width:0.25;stroke-miterlimit:10;" d="M747.4,126.7
		c0.7-0.7,137.2-68.7,137.2-68.4c0,0.4-136.3,68.7-137.1,68.7C747.3,127,747.2,126.8,747.4,126.7L747.4,126.7z M633.7,90.3
		c-2.9-1.5-5.2-2.8-4.8-2.9c0.4-0.1,2.8,1.1,5.5,2.5c5.2,2.7,10.4,3.3,12.1,1.7c0.5-0.5,0.9-2.1,0.9-3.6v-2.7l-9.3-4.7
		c-5.2-2.6-9.3-4.8-9.3-5s4.3,1.8,9.6,4.5l9.6,4.9l0.2,3.2c0.3,4-0.9,5.1-5.6,5C640,93.1,637.6,92.3,633.7,90.3L633.7,90.3z
		 M707.3,85.9c-0.9-0.4-1.7-1.1-1.7-1.4c0-0.4-0.7-0.1-1.6,0.5c-0.9,0.6-2.2,1.2-2.9,1.2c-1.7,0-6.3-4.5-6.3-6.3c0-1-2-2.4-7.6-5.1
		c-7.1-3.5-7.7-3.7-9.1-2.7c-0.9,0.6-2.2,1.1-2.9,1.1c-1.8,0-6.3-4.5-6.3-6.3c0-0.9-0.6-1.6-1.9-1.9c-1.8-0.4-1.9-0.6-1.4-3.9
		c0.3-1.9,0.6-4,0.9-4.7c0.4-1.4,20.1-11.6,21.1-10.9c0.4,0.2,1.9-0.3,3.5-1.1l2.9-1.5l7.1,3.6c6.4,3.2,7.5,4,10.4,8.1
		c2.7,3.6,4.6,5.2,9.4,8.1c5.3,3.1,6.1,3.9,6.5,6c0.3,1.6,1.1,2.7,2.2,3.2c1,0.4,1.7,1.4,1.7,2.3c0,1.2-2.1,2.5-11.1,7
		c-6.1,3.1-11.2,5.5-11.4,5.5C708.9,86.6,708.1,86.3,707.3,85.9L707.3,85.9z M720,80.6c6.4-3.2,10.8-5.8,10.8-6.4
		c0-1.4-1.5-2.2-2.2-1.2c-0.4,0.6-0.7-0.1-1.1-1.9c-0.8-4.3-1.4-5-7.9-8.6c-3.4-1.9-6.1-3.7-6.1-4c0-0.3-1.2-2.2-2.7-4.2
		c-2.2-3-3.9-4.2-9.7-7.2l-7-3.5l-2.9,1.5c-1.6,0.8-3.2,1.3-3.5,1.1c-0.4-0.2-5,1.8-10.4,4.5c-10.3,5.1-10.2,5-10.6,10.6
		c-0.1,2.5,0,2.9,1.4,3.1c1.2,0.1,1.7,0.7,1.7,2c0,2.1,3.6,6,5.5,6c0.7,0,2-0.5,2.9-1.1c1.4-1,2.1-0.8,9.5,2.7c6.7,3.2,7.9,4,8,5.5
		c0.1,2,3.7,5.9,5.6,5.9c0.7,0,1.9-0.4,2.7-1c1.2-0.9,1.6-0.9,3.1,0.4c0.9,0.7,1.9,1.4,2,1.4S714.1,83.6,720,80.6L720,80.6z
		 M717,78.3c0.7-0.3,0.6-0.6-0.3-1.3c-1.2-0.9-0.9-1.1,1.9-2.5c1.7-0.9,2.9-1.2,2.6-0.8c-0.3,0.4-0.1,0.8,0.4,0.8
		c0.7,0,0.6,0.2-0.1,0.7c-0.9,0.6-0.9,0.7,0,0.7c0.6,0-0.1,0.6-1.4,1.4c-1.4,0.8-2.9,1.4-3.2,1.4S716.5,78.5,717,78.3L717,78.3z
		 M720,76.7c0.9-0.6,0.9-0.7,0-0.7c-0.9,0-0.9-0.1,0-0.7c1.5-0.9,0.4-0.9-1.8,0.1c-1.4,0.6-1.6,1-0.9,1.4
		C718.5,77.5,718.7,77.5,720,76.7z M710.1,31.4l81.8-40.9l12.9,6.5c9.8,5,13.6,6.5,15.8,6.5c2.3,0,7.4-2.2,24.4-10.8
		c11.9-6,21.8-10.8,22.1-10.7c0.3,0-9.3,5-21.4,11.1C828.1,2,823.4,4,820.8,4c-2.4,0-5.6-1.2-16-6.4l-12.9-6.5l-81.2,40.6
		c-44.7,22.4-81.5,40.6-81.8,40.5S665.1,53.9,710.1,31.4L710.1,31.4z M750.4,64.3c-0.9-0.4-1.7-1.1-1.7-1.4c0-0.4-0.7-0.1-1.6,0.5
		c-0.9,0.6-2.2,1.2-2.9,1.2c-1.7,0-6.3-4.5-6.3-6.3c0-1-2-2.4-7.6-5.1c-7.1-3.5-7.7-3.7-9.1-2.7c-0.9,0.6-2.2,1.1-2.9,1.1
		c-1.8,0-6.3-4.5-6.3-6.3c0-0.9-0.6-1.6-1.9-1.9c-1.8-0.4-1.9-0.6-1.4-3.9c0.3-1.9,0.6-4,0.9-4.7c0.4-1.4,20.1-11.6,21.1-10.9
		c0.4,0.2,1.9-0.3,3.5-1.1l2.9-1.5l7.1,3.6c6.4,3.2,7.5,4,10.4,8.1c2.7,3.6,4.6,5.2,9.4,8.1c5.3,3.1,6.1,3.9,6.5,6
		c0.3,1.6,1.1,2.7,2.2,3.2c1,0.4,1.7,1.4,1.7,2.3c0,1.2-2.1,2.5-11.1,7c-6.1,3.1-11.2,5.5-11.4,5.5C752,65.1,751.2,64.7,750.4,64.3
		L750.4,64.3z M763.1,59c6.4-3.2,10.8-5.8,10.8-6.4c0-1.4-1.5-2.2-2.2-1.2c-0.4,0.6-0.7-0.1-1.1-1.9c-0.8-4.3-1.4-5-7.9-8.6
		c-3.4-1.9-6.1-3.7-6.1-4s-1.2-2.2-2.7-4.2c-2.2-3-3.9-4.2-9.7-7.2l-7-3.5l-2.9,1.5c-1.6,0.8-3.2,1.3-3.5,1.1s-5,1.8-10.4,4.5
		c-10.3,5.1-10.2,5-10.6,10.6c-0.1,2.5,0,2.9,1.4,3.1c1.2,0.1,1.7,0.7,1.7,2c0,2.1,3.6,6,5.5,6c0.7,0,2-0.5,2.9-1.1
		c1.4-1,2.1-0.8,9.5,2.7c6.7,3.2,7.9,4,8,5.5c0.1,2,3.7,5.9,5.6,5.9c0.7,0,1.9-0.4,2.7-1c1.2-0.9,1.6-0.9,3.1,0.4
		c0.9,0.7,1.9,1.4,2,1.4S757.2,62,763.1,59z M760.1,56.7c0.7-0.3,0.6-0.6-0.3-1.3c-1.2-0.9-0.9-1.1,1.9-2.5c1.7-0.9,2.9-1.2,2.6-0.8
		c-0.3,0.4-0.1,0.8,0.4,0.8c0.7,0,0.6,0.2-0.1,0.7c-0.9,0.6-0.9,0.7,0,0.7c0.6,0-0.1,0.6-1.4,1.4c-1.4,0.8-2.9,1.4-3.2,1.4
		C759.5,57.2,759.6,57,760.1,56.7L760.1,56.7z M763.1,55.1c0.9-0.6,0.9-0.7,0-0.7s-0.9-0.1,0-0.7c1.5-0.9,0.4-0.9-1.8,0.1
		c-1.4,0.6-1.6,1-0.9,1.4C761.6,56,761.8,56,763.1,55.1z M793.5,42.7c-0.9-0.4-1.7-1.1-1.7-1.4s-0.7-0.1-1.6,0.5
		c-0.9,0.6-2.2,1.2-2.9,1.2c-1.7,0-6.3-4.5-6.3-6.3c0-1-2-2.4-7.6-5.1c-7.1-3.5-7.7-3.7-9.1-2.7c-0.9,0.6-2.2,1.1-2.9,1.1
		c-1.8,0-6.3-4.5-6.3-6.3c0-0.9-0.6-1.6-1.9-1.9c-1.8-0.4-1.9-0.6-1.4-3.9c0.3-1.9,0.6-4,0.9-4.7c0.4-1.4,20.1-11.6,21.1-10.9
		c0.4,0.2,1.9-0.3,3.5-1.1l2.9-1.5l7.1,3.6c6.4,3.2,7.5,4,10.4,8.1c2.7,3.6,4.6,5.2,9.4,8.1c5.3,3.1,6.1,3.9,6.5,6
		c0.3,1.6,1.1,2.7,2.2,3.2c1,0.4,1.7,1.4,1.7,2.3c0,1.2-2.1,2.5-11.1,7c-6.1,3.1-11.2,5.5-11.4,5.5
		C795.2,43.5,794.4,43.2,793.5,42.7L793.5,42.7z M806.2,37.5c6.4-3.2,10.8-5.8,10.8-6.4c0-1.4-1.5-2.2-2.2-1.2
		c-0.4,0.6-0.7-0.1-1.1-1.9c-0.8-4.3-1.4-5-7.9-8.6c-3.4-1.9-6.1-3.7-6.1-4s-1.2-2.2-2.7-4.2c-2.2-3-3.9-4.2-9.7-7.2l-7-3.5L777.4,2
		c-1.6,0.8-3.2,1.3-3.5,1.1s-5,1.8-10.4,4.5c-10.3,5.1-10.2,5-10.6,10.6c-0.1,2.5,0,2.9,1.4,3.1c1.2,0.1,1.7,0.7,1.7,2
		c0,2.1,3.6,6,5.5,6c0.7,0,2-0.5,2.9-1.1c1.4-1,2.1-0.8,9.5,2.7c6.7,3.2,7.9,4,8,5.5c0.1,2,3.7,5.9,5.6,5.9c0.7,0,1.9-0.4,2.7-1
		c1.2-0.9,1.6-0.9,3.1,0.4c0.9,0.7,1.9,1.4,2,1.4C795.5,43.1,800.3,40.4,806.2,37.5z M803.2,35.2c0.7-0.3,0.6-0.6-0.3-1.3
		c-1.2-0.9-0.9-1.1,1.9-2.5c1.7-0.9,2.9-1.2,2.6-0.8s-0.1,0.8,0.4,0.8c0.7,0,0.6,0.2-0.1,0.7c-0.9,0.6-0.9,0.7,0,0.7
		c0.6,0-0.1,0.6-1.4,1.4c-1.4,0.8-2.9,1.4-3.2,1.4C802.6,35.6,802.7,35.4,803.2,35.2L803.2,35.2z M806.2,33.5c0.9-0.6,0.9-0.7,0-0.7
		s-0.9-0.1,0-0.7c1.5-0.9,0.4-0.9-1.8,0.1c-1.4,0.6-1.6,1-0.9,1.4C804.7,34.4,804.9,34.4,806.2,33.5z"/>
</g>
</svg>
