<?xml version="1.0" encoding="utf-8"?>
<!-- Generator: Adobe Illustrator 17.0.0, SVG Export Plug-In . SVG Version: 6.00 Build 0)  -->
<!DOCTYPE svg PUBLIC "-//W3C//DTD SVG 1.1//EN" "http://www.w3.org/Graphics/SVG/1.1/DTD/svg11.dtd" [
	<!ENTITY ns_flows "http://ns.adobe.com/Flows/1.0/">
	<!ENTITY ns_extend "http://ns.adobe.com/Extensibility/1.0/">
	<!ENTITY ns_ai "http://ns.adobe.com/AdobeIllustrator/10.0/">
	<!ENTITY ns_graphs "http://ns.adobe.com/Graphs/1.0/">
]>
<svg version="1.1" id="Layer_1" xmlns:x="&ns_extend;" xmlns:i="&ns_ai;" xmlns:graph="&ns_graphs;"
	 xmlns="http://www.w3.org/2000/svg" xmlns:xlink="http://www.w3.org/1999/xlink" xmlns:a="http://ns.adobe.com/AdobeSVGViewerExtensions/3.0/"
	 x="0px" y="0px" width="256px" height="256px" viewBox="0 0 256 256" style="enable-background:new 0 0 256 256;"
	 xml:space="preserve">
<g>
	<g>
		<path style="fill:none;" d="M254.1,157.2l1.1-0.8c-4.1-14.8-16-27.2-31.1-29.8c-3-0.5-6.1-0.6-9.1-0.4l0,0
			c-9,0.7-17.8,4.6-24.3,10.8l-1.9-0.9l-33.6-15.6c-0.2,0.2-0.4,0.5-0.6,0.8c-3,4.4-6.2,11.3-6.2,11.3l-8.3-8.8l-3.5-3.7l-8-8.5
			c0,0,1-0.4,2.6-1l0,0c0.4-0.2,0.8-0.3,1.2-0.5L81.6,86.4C81.4,66.6,67.1,49,48.3,45.7c-15.1-2.6-30.6,5-39.4,17.5l0.8,1l2.7,0.5
			l38.8,7l11.3,20.5l-17.6,15.8L2.4,101l0.3,1.4c4.1,14.8,15.4,26.3,30.6,28.9c12.2,2.1,25.1-1.6,33.8-9.9l44.7,20.6l5,2.3
			l57.7,26.6l1.4,0.6c0.1,6.8,1.8,13.4,4.8,19.3l0,0c5.7,11.1,16,19.5,28.3,21.6c15.1,2.6,30.6-5.1,39.4-17.6l-0.4-1.2l-5.6-1
			l-36-6.4l-0.5-0.9l-11-19.6l18-16L254.1,157.2z"/>
		<path style="fill:none;" d="M209,147.5l-18.2,16l11.8,21.2l3.3,0.6l37.1,6.4l0.2-0.2c-0.2,0.4-0.5,0.7-0.8,1.1
			c-8.6,11.5-22.4,17.9-36.6,15.4c-10.7-1.8-19.5-8.3-25-17.2l0,0c-3.6-5.8-5.8-12.6-6.2-19.9c0-0.6,0-1.3-0.1-2L118.2,143l-5-2.3
			l-45.6-21c-8.5,8-20,12.1-31.8,10c-14.7-2.6-25.8-13.8-29.8-28.2l0.2,0.2l40.4,7l18.2-16L53,71.6l-40.4-7l-0.2,0.2
			c8.5-12.2,22.8-19,37.5-16.5C68.2,51.4,81,68.1,81.2,87.4l49.9,23c-1.5,0.6-2.6,1-2.6,1l8,8.5l3.5,3.7l8.3,8.8
			c0,0,3.2-6.9,6.2-11.3l33.4,15.4c0.2-0.2,0.5-0.5,0.8-0.7c7.2-6.5,16.5-10.2,26.2-9.8l0,0c1.6,0,3.2,0.2,4.8,0.5
			c14.7,2.5,25.8,13.8,29.8,28.1l-0.2-0.2L209,147.5z"/>
	</g>
	<path style="fill:none;stroke:#000000;stroke-width:8.431;stroke-linecap:round;stroke-linejoin:round;" d="M254.1,157.2l1.1-0.8
		c-4.1-14.8-16-27.2-31.1-29.8c-3-0.5-6.1-0.6-9.1-0.4l0,0c-9,0.7-17.8,4.6-24.3,10.8l-1.9-0.9l-33.6-15.6c-0.2,0.2-0.4,0.5-0.6,0.8
		c-3,4.4-6.2,11.3-6.2,11.3l-8.3-8.8l-3.5-3.7l-8-8.5c0,0,1-0.4,2.6-1l0,0c0.4-0.2,0.8-0.3,1.2-0.5L81.6,86.4
		C81.4,66.6,67.1,49,48.3,45.7c-15.1-2.6-30.6,5-39.4,17.5l0.8,1l2.7,0.5l38.8,7l11.3,20.5l-17.6,15.8L2.4,101l0.3,1.4
		c4.1,14.8,15.4,26.3,30.6,28.9c12.2,2.1,25.1-1.6,33.8-9.9l44.7,20.6l5,2.3l57.7,26.6l1.4,0.6c0.1,6.8,1.8,13.4,4.8,19.3l0,0
		c5.7,11.1,16,19.5,28.3,21.6c15.1,2.6,30.6-5.1,39.4-17.6l-0.4-1.2l-5.6-1l-36-6.4l-0.5-0.9l-11-19.6l18-16L254.1,157.2z"/>
	<path style="fill:none;" d="M209,147.5l-18.2,16l11.8,21.2l3.3,0.6l37.1,6.4l0.2-0.2c-0.2,0.4-0.5,0.7-0.8,1.1
		c-8.6,11.5-22.4,17.9-36.6,15.4c-10.7-1.8-19.5-8.3-25-17.2l0,0c-3.6-5.8-5.8-12.6-6.2-19.9c0-0.6,0-1.3-0.1-2L118.2,143l-5-2.3
		l-45.6-21c-8.5,8-20,12.1-31.8,10c-14.7-2.6-25.8-13.8-29.8-28.2l0.2,0.2l40.4,7l18.2-16L53,71.6l-40.4-7l-0.2,0.2
		c8.5-12.2,22.8-19,37.5-16.5C68.2,51.4,81,68.1,81.2,87.4l49.9,23c-1.5,0.6-2.6,1-2.6,1l8,8.5l3.5,3.7l8.3,8.8
		c0,0,3.2-6.9,6.2-11.3l33.4,15.4c0.2-0.2,0.5-0.5,0.8-0.7c7.2-6.5,16.5-10.2,26.2-9.8l0,0c1.6,0,3.2,0.2,4.8,0.5
		c14.7,2.5,25.8,13.8,29.8,28.1l-0.2-0.2L209,147.5z"/>
	<g>
		<polygon style="fill:none;stroke:#000000;stroke-width:8;stroke-linecap:round;stroke-linejoin:round;" points="140,123.6 
			118.2,143 116.8,144.3 61.4,193.6 58.6,199.4 44.8,208.4 41,204.3 51.5,191.9 58,189.9 111.8,142 113.2,140.7 136.5,120 		"/>
		<path style="fill:none;stroke:#000000;stroke-width:8.065;stroke-linecap:round;stroke-linejoin:round;" d="M230.9,62.8
			l-56.1,47.8c-8.3,1.7-14.1,4.4-18,7.9c-0.5,0.5-1.1,1.2-1.7,2c-0.2,0.2-0.4,0.5-0.6,0.8c-3,4.4-6.2,11.3-6.2,11.3l-8.3-8.8
			l-3.5-3.7l-8-8.5c0,0,1-0.4,2.6-1l0,0c0.4-0.2,0.8-0.3,1.2-0.5c3.6-1.6,8.8-4,10.9-5.9c3.6-3.5,6.8-9.2,9.2-17.2l54.6-49.6
			C206.9,37.2,228.5,40.7,230.9,62.8z"/>
	</g>
</g>
</svg>
