<?xml version="1.0" encoding="utf-8"?>
<!-- Generator: Adobe Illustrator 22.1.0, SVG Export Plug-In . SVG Version: 6.00 Build 0)  -->
<svg version="1.1" id="Layer_1" xmlns="http://www.w3.org/2000/svg" xmlns:xlink="http://www.w3.org/1999/xlink" x="0px" y="0px"
	 viewBox="0 0 256 256" style="enable-background:new 0 0 256 256;" xml:space="preserve">
<g>
	<path style="fill:#FFFFFF;" d="M202,241.7H58.8c0-13.5-4.7-33.3,1.8-40.3c11-11.9,24.8-15.6,44.3-18.9c0.5-0.1,0.9-0.2,1.2-0.4
		c4-1.2,6.8-5,6.8-9.1v-3.5c-15.7-6.5-26.7-21.8-26.7-39.9v-2.2c-5.8-1.5-10.1-6.7-10.1-12.9c0-3.5,1.5-6.9,3.8-9.3
		c1.7-1.8,3.9-2.9,6.4-3.7V83.3c0-6.8,5.5-12.3,12.3-12.3h42.8c4.1,8.3,11,15.1,19.4,19.1c0.4,0.2,0.7,0.4,1.1,0.6
		c0.2,0.1,0.5,0.2,0.7,0.4c0.4,0.1,0.7,0.4,1,0.5c0.5,0.1,0.8,0.4,1.2,0.5c0.5,0.2,0.9,0.4,1.3,0.5c0.5,0.1,0.8,0.2,1.2,0.4
		c0.4,0.1,0.6,0.2,0.9,0.2c0.4,0.1,0.6,0.1,0.9,0.2c0.1,0,0.2,0,0.2,0.1c0.4,0.1,0.6,0.1,0.9,0.2c0.2,0.1,0.5,0.1,0.7,0.1
		c0.5,0.1,0.9,0.1,1.3,0.2v7.7c2.7,0.5,5.1,1.6,6.9,3.3c2.7,2.4,4.4,6,4.4,9.9c0,6.7-5,12.2-11.3,13.2v1.1
		c0,17.9-10.7,33.9-26.5,40.6v3.4c0,4,2.6,7.7,6.3,9.1c0.7,0.2,1.3,0.5,2,0.6c18,2.7,33.9,6.2,44.2,19.1
		C204.3,208.9,202,228.6,202,241.7z"/>
</g>
<g>
	<path style="fill:#B28D31;" d="M179.3,66.6v38.1c-1.8-1.8-4.3-2.8-6.9-3.3v-7.6c-0.5-0.1-0.9-0.1-1.3-0.2c-0.2,0-0.5-0.1-0.7-0.1
		c-0.4-0.1-0.6-0.1-0.9-0.2c-0.1,0-0.2,0-0.2-0.1c-0.4-0.1-0.6-0.1-0.9-0.2c-0.4-0.1-0.6-0.1-0.9-0.2c-0.5-0.1-0.8-0.2-1.2-0.4
		c-0.5-0.1-0.9-0.4-1.3-0.5c-0.5-0.1-0.8-0.4-1.2-0.5c-0.4-0.1-0.7-0.2-1-0.5c-0.2-0.1-0.5-0.2-0.7-0.4c-0.4-0.1-0.8-0.4-1.1-0.6
		c-8.4-4-15.3-10.7-19.4-19.1H98.7c-6.8,0-12.3,5.5-12.3,12.3v18.1c-2.4,0.6-4.6,1.8-6.4,3.7V71.4c0-5.3,2.8-9.7,7.3-12.1
		c-11.1-18,1.8-38.8,26.4-38.8c25.8,0,62,19.5,65.6,44.9c0,0.2,0,0.5,0.1,0.7l0,0C179.3,66.2,179.3,66.4,179.3,66.6z"/>
</g>
<g>
	<circle style="fill:#B28D31;" cx="108.3" cy="110.6" r="5"/>
</g>
<g>
	<circle style="fill:#B28D31;" cx="151.3" cy="110.6" r="5"/>
</g>
<g style="opacity:0.1;">
	<path style="fill:#0C0C0C;" d="M128.6,148.3c-10.8,0-17.4-7.8-17.5-7.9c-0.5-0.6-0.5-1.5,0.2-2c0.6-0.5,1.5-0.5,2,0.2
		c0.6,0.7,12.9,15.2,32.7-0.2c0.6-0.5,1.5-0.4,2,0.2c0.5,0.6,0.4,1.5-0.2,2C140.5,146.4,134.1,148.3,128.6,148.3z"/>
</g>
<path style="fill:#FFD15F;" d="M204.3,242.3H60.5c0,0-4.6-33.3,2.6-44c7.2-10.8,46.2-17.6,46.1-17.6c1.9,15.6,22.3,15.6,22.3,15.6
	c23.6-1.6,23.5-15.4,23.5-15.6c0,0,1.8,0.5,2,0.6c0,0,4.9,0.8,12.3,3c2.5,0.8,5.2,1.7,8.3,2.8c3.1,1.1,6.4,2.5,9.9,4.1
	C209.8,201.4,204.3,242.3,204.3,242.3z"/>
<path style="opacity:0.3;fill:#0C0C0C;" d="M84.2,186.8v0.5v1.2v13.8c0,5.8-1.1,11.6-3.1,17l-1.7,4.6v18.3h103.3v-18.3l-1.7-4.6
	c-2.1-5.4-3.1-11.2-3.1-17v-15.2V187c-2.9-1.1-5.8-2-8.3-2.8v13.7c0,20.4-16.5,36.8-36.8,36.8h-3.2c-20.4,0-36.8-16.5-36.8-36.8
	l-0.1-13.5C92.3,184.4,85.2,186.5,84.2,186.8z"/>
<g>
	<path style="fill:none;stroke:#B28D31;stroke-width:5;stroke-miterlimit:10;" d="M202,241.7H58.8c0-13.5-4.7-33.3,1.8-40.3
		c11-11.9,24.8-15.6,44.3-18.9c0.5-0.1,0.9-0.2,1.2-0.4c4-1.2,6.8-5,6.8-9.1v-3.5c-15.7-6.5-26.7-21.8-26.7-39.9v-2.2
		c-5.8-1.5-10.1-6.7-10.1-12.9c0-3.5,1.5-6.9,3.8-9.3c1.7-1.8,3.9-2.9,6.4-3.7V83.3c0-6.8,5.5-12.3,12.3-12.3h42.8
		c4.1,8.3,11,15.1,19.4,19.1c0.4,0.2,0.7,0.4,1.1,0.6c0.2,0.1,0.5,0.2,0.7,0.4c0.4,0.1,0.7,0.4,1,0.5c0.5,0.1,0.8,0.4,1.2,0.5
		c0.5,0.2,0.9,0.4,1.3,0.5c0.5,0.1,0.8,0.2,1.2,0.4c0.4,0.1,0.6,0.2,0.9,0.2c0.4,0.1,0.6,0.1,0.9,0.2c0.1,0,0.2,0,0.2,0.1
		c0.4,0.1,0.6,0.1,0.9,0.2c0.2,0.1,0.5,0.1,0.7,0.1c0.5,0.1,0.9,0.1,1.3,0.2v7.7c2.7,0.5,5.1,1.6,6.9,3.3c2.7,2.4,4.4,6,4.4,9.9
		c0,6.7-5,12.2-11.3,13.2v1.1c0,17.9-10.7,33.9-26.5,40.6v3.4c0,4,2.6,7.7,6.3,9.1c0.7,0.2,1.3,0.5,2,0.6c18,2.7,33.9,6.2,44.2,19.1
		C204.3,208.9,202,228.6,202,241.7z"/>
</g>
<path style="fill:#EA4949;" d="M71.7,200L71.7,200l-0.1,3.2h0.1c0.8,0,1.6-0.7,1.6-1.6C73.3,200.6,72.6,200,71.7,200z"/>
<g>
	<path style="fill:#FFD15F;" d="M179,54.5c0,24.7-98.6,24.7-98.6,0c0-20.2,10.1-37.2,32.5-42.8c2.8-0.7,5.9-1.2,9.1-1.5
		c2.5-0.2,4.9-0.4,7.6-0.4c2.8,0,5.3,0.1,7.8,0.4c3.2,0.3,6.3,0.9,9.1,1.5C168.9,17.4,179,34.4,179,54.5z"/>
	<path style="opacity:0.1;fill:#0C0C0C;" d="M146.6,11.8c-4.5,5.4-9.1,26.1-9.1,26.1V10.2C140.7,10.6,143.8,11.1,146.6,11.8z"/>
	<path style="opacity:0.1;fill:#0C0C0C;" d="M122.1,10.2v27.6c0,0-4.6-20.7-9.1-26.1C115.7,11.1,118.8,10.5,122.1,10.2z"/>
	<rect x="120.3" y="5" style="fill:#FFD15F;" width="18.8" height="31.3"/>
	<g>
		<path style="fill:#FFD15F;" d="M135.6,72.8c-1.9,0-3.9,0-6,0C107,72.5,79,70.2,74.3,60.6c-1.7-3.4-0.3-7.5,3-9.1
			c2.9-1.4,6.4-0.7,8.3,1.8c1.2,0.9,9.7,5.5,44.1,5.9c34.5,0.4,43.3-2.9,44.8-3.6c2.3-2,5.7-2.3,8.3-0.5c3.1,2.1,3.9,6.4,1.8,9.5
			C183.2,66.6,179,72.8,135.6,72.8z M173.4,56.9L173.4,56.9L173.4,56.9z M173.4,56.9L173.4,56.9L173.4,56.9z M173.4,56.9L173.4,56.9
			L173.4,56.9z M86.4,54.5L86.4,54.5L86.4,54.5z M86.4,54.5L86.4,54.5L86.4,54.5z M86.4,54.5L86.4,54.5L86.4,54.5z M85.5,53.1
			L85.5,53.1L85.5,53.1z"/>
	</g>
	<path style="fill:none;stroke:#B28D31;stroke-width:5;stroke-linecap:round;stroke-linejoin:round;stroke-miterlimit:10;" d="
		M184.6,64.6c-1.4,2.1-5.5,8.1-47.3,8.2c-0.6,0-1.2,0-1.8,0h-6c-4.2-0.1-8.6-0.2-13.1-0.4h-0.1c-19.1-1-38.3-4-42.2-11.8
		c-1.7-3.4-0.3-7.5,3-9.1c1-0.5,2.1-0.7,3.1-0.7c1.2-18.5,11.3-33.8,32.4-39c2.3-0.6,4.8-1,7.4-1.3V5h18.8v5.4
		c2.6,0.3,5.1,0.8,7.4,1.3c22.1,5.6,32.3,22.3,32.5,42.1c1.3,0,2.6,0.4,3.8,1.2C185.9,57.2,186.7,61.4,184.6,64.6z"/>
</g>
<g id="hammer_1_">
	
		<rect x="195.8" y="161.4" style="fill:#FFD15F;stroke:#B28D31;stroke-width:5;stroke-linecap:round;stroke-linejoin:round;stroke-miterlimit:10;" width="12.1" height="79.8"/>
	<path style="fill:#FFD15F;stroke:#B28D31;stroke-width:5;stroke-linecap:round;stroke-linejoin:round;stroke-miterlimit:10;" d="
		M226.1,158.6h-34.2c-0.3-1.2-1.4-2-2.7-2c-1.3,0-2.4,0.9-2.7,2h-6.6c-1,0-1.9-0.8-1.9-1.9v-11.4c0-1,0.8-1.9,1.9-1.9h6.6
		c0.2,1.3,1.4,2.4,2.8,2.4c1.4,0,2.5-1,2.8-2.4h21.9L226.1,158.6z"/>
</g>
<g id="screwdriver_1_">
	
		<polygon style="fill:#EDEDED;stroke:#B28D31;stroke-width:5;stroke-linecap:round;stroke-linejoin:round;stroke-miterlimit:10;" points="
		57.9,211.6 56.8,156.1 52.3,153.4 54.3,140.6 64.2,140.6 66.2,153.4 61.8,156.1 61.1,211.6 	"/>
	<path style="fill:#FFD15F;stroke:#B28D31;stroke-width:5;stroke-linecap:round;stroke-linejoin:round;stroke-miterlimit:10;" d="
		M59.3,244L59.3,244c-4,0-7.2-3.4-7-7.4l2.8-43.8h8.4l2.8,43.8C66.5,240.6,63.3,244,59.3,244z"/>
</g>
</svg>
