<?xml version="1.0" encoding="utf-8"?>
<!-- Generator: Adobe Illustrator 17.0.0, SVG Export Plug-In . SVG Version: 6.00 Build 0)  -->
<!DOCTYPE svg PUBLIC "-//W3C//DTD SVG 1.1//EN" "http://www.w3.org/Graphics/SVG/1.1/DTD/svg11.dtd" [
	<!ENTITY ns_flows "http://ns.adobe.com/Flows/1.0/">
	<!ENTITY ns_extend "http://ns.adobe.com/Extensibility/1.0/">
	<!ENTITY ns_ai "http://ns.adobe.com/AdobeIllustrator/10.0/">
	<!ENTITY ns_graphs "http://ns.adobe.com/Graphs/1.0/">
]>
<svg version="1.1" id="Layer_1" xmlns:x="&ns_extend;" xmlns:i="&ns_ai;" xmlns:graph="&ns_graphs;"
	 xmlns="http://www.w3.org/2000/svg" xmlns:xlink="http://www.w3.org/1999/xlink" xmlns:a="http://ns.adobe.com/AdobeSVGViewerExtensions/3.0/"
	 x="0px" y="0px" width="256px" height="256px" viewBox="0 0 256 256" style="enable-background:new 0 0 256 256;"
	 xml:space="preserve">
<path d="M35.4,26.4c0.8,0.8-0.8,1.3-0.7,2.2c-2.3,0-2.6,2.1-3,4C29.6,29.9,33.8,27.8,35.4,26.4z"/>
<path d="M50.4,36.6c-0.2,0.9-1.2,0.9-2,1.2c-1.9,1.8-1.6,5.8-5.7,5.5c1.9-1,3.7-2.1,4-4.7c-0.6,0.2-1.1,0.9-1.7,0.2
	C46.5,38,48.9,36.7,50.4,36.6z"/>
<path d="M55.1,42.8c1.1,0.7-1.2,1.7-1,0.2C54.5,42.5,55.1,43.3,55.1,42.8z"/>
<path d="M52.9,43.6c0.5-0.1,0.7,0.2,1,0.2c0,0.6-0.4,1-1,1C52.4,44.3,53,44.4,52.9,43.6z"/>
<path d="M30.2,44.8c0.6-0.1,0.4,0.5,0.7,0.5C30.8,45.9,30,45.3,30.2,44.8z"/>
<path d="M35.4,44.8c0.9,0.6,0.3,2.7,2,2.5c-0.3,1.3,0.7,1.4,1.5,2.2c-0.1,0.8-1.2,0.6-1.7,1C38,48.3,34.1,46.7,35.4,44.8z"/>
<path d="M52.9,45.6c1.1,0,2,0.3,2.7,0.7c0.1,0.6-0.7,0.3-0.7,0.7c0.3,0.4,1.5-0.3,2.2-0.2c-0.4,1.9-2.9,0.3-4.2,1.2
	C52.1,47.2,52.7,46.6,52.9,45.6z"/>
<path d="M77.1,48.1c1.7,0,2.5,1,3,2.2c2,1.3,4.1,2.5,6.7,3.2c0.2,0.9-1.7,0.5-2,0.2c-0.2,1,1.1,0.4,0.7,1.5c-1.9,0.2-4.7-1-5,1.2
	c-1.7-0.9-1.6-3.2-2.2-5C77.9,50.4,77,49.3,77.1,48.1z"/>
<path d="M86.1,52.1c-2.2-0.2-3.5-1.3-5-2.2c-0.1-0.3,0.7-0.9,0.7-0.2C83.2,50.5,85.4,50.5,86.1,52.1z"/>
<path d="M72.6,58.5h0.5V59h-0.5V58.5z"/>
<path d="M74.6,78c1.4-0.8,2.3-2.1,3.7-2.7C79.2,77.1,76.6,78.9,74.6,78z"/>
<path d="M47.2,90.7c2-0.4,4.5,1.6,6.5,2c1.4,0.3,2.3,0,3,1c-1.1,0.4-1.8-0.1-3,0.5c-1.4-0.5-2.2-1.9-3.7-2.5
	C49.1,91.4,47.4,92.2,47.2,90.7z"/>
<path d="M65.4,113.7c-1.3,0.6-1.6-1.3-2-2c-1.1-1.8-1.9-4.2-3.2-6.2c-1.1-1.6-3-3.3-4.7-4.7c-2.6-2.2-5.5-3.6-9.2-2.5
	c0.4-1.1,2.3-1,3.2-1c3.3,0.1,4.9,0.9,7,2.7C60.2,103.2,63.4,109.1,65.4,113.7z"/>
<path d="M47.9,100c1.4,0,2.2,0.7,3,1.2C50,101.6,48.2,101,47.9,100z"/>
<path d="M41.9,115.4c-0.4,1.4-2,1.4-3,2c-1.1,0.7-1.9,2.3-3.5,2.2C37.1,117.8,38.7,115.8,41.9,115.4z"/>
<path d="M68.6,136.9c0.9-0.2,0.9,0.9,0.5,1.2C68.6,138,68.1,137.4,68.6,136.9z"/>
<path d="M21.5,144.4c0.6,0.3,0.7,1.1,0.7,2C21.3,146.3,21.2,144.7,21.5,144.4z"/>
<path d="M30.9,146.9c0.5,0.3,0.7,1.1-0.2,1C30.6,147.3,30.9,147.2,30.9,146.9z"/>
<path d="M31.2,149.4c0.5,0.3,0.7,1.1-0.2,1C30.8,149.8,31.1,149.7,31.2,149.4z"/>
<path d="M37.7,166.3c0,0.6-0.8,0.1-1,0C36.9,165.5,37.2,166.1,37.7,166.3z"/>
<path d="M37.2,167.3c0.5-0.1,0.7,0.2,1,0.2C38.1,168.3,37,168.2,37.2,167.3z"/>
<path d="M38.7,170.3c0.5,0,0.8,0.2,0.7,0.7C39.2,170.8,38.5,171,38.7,170.3z"/>
<path d="M40.7,172.8c-0.8,0-1.2-0.5-1.2-1.2C39.9,171.1,40.9,171.7,40.7,172.8z"/>
<path d="M159.7,177.8c0.2,0,0.2,0.3,0.5,0.2c0,0.2-0.3,0.2-0.2,0.5c-0.2,0-0.2-0.3-0.5-0.2C159.5,178.1,159.7,178.1,159.7,177.8z"/>
<path d="M43.9,178.8c0.4,0.1,0.6,0.4,0.5,1C44,179.7,43.8,179.4,43.9,178.8z"/>
<path d="M44.4,180.3c0.7-0.4,0.7,1.1,0,0.7V180.3z"/>
<path d="M162.4,181.1c-0.1,0.2-0.3,0.4-0.2,0.7c-0.5,0.1-0.7-0.2-1-0.2C161.4,181,161.9,180.5,162.4,181.1z"/>
<path d="M160.9,181.3c0.3,1.1-1.1,1.3-1.5,1C159.4,181.5,160.2,181.3,160.9,181.3z"/>
<path d="M44.9,181.5C46.1,181.7,44.7,183.1,44.9,181.5z"/>
<path d="M158.2,182.3h0.7v0.7h-0.7V182.3z"/>
<path d="M156.2,183.5C155.4,184.5,155.4,182.8,156.2,183.5z"/>
<path d="M164.2,185.5c-0.8,1.7-2.5,2.4-5,2.5c0.8-1.2,2.8-1.2,3.5-2.5c-0.5-0.6-2.1-0.1-3-0.2C160.5,184.4,163.8,184,164.2,185.5z"
	/>
<path d="M152.5,185c0.1,0.7-0.3,0.8-1,0.7C151.4,185.1,151.8,185,152.5,185z"/>
<path d="M158.9,185.5c0.5-0.1,0.4,1.1-0.2,0.7v-0.5C158.9,185.8,158.9,185.7,158.9,185.5z"/>
<path d="M150.5,185.8h0.5v0.5h-0.5V185.8z"/>
<path d="M149.7,186.3c0,0.9-0.8,1-1.7,1C148.3,186.7,149,186.5,149.7,186.3z"/>
<path d="M147.2,187.5c-0.2,0.4-0.4,0.8-1,0.7C146.1,187.6,146.6,187.5,147.2,187.5z"/>
<path d="M57.9,188.3c0,0.6-0.8,0.1-1,0C57.1,187.5,57.4,188.1,57.9,188.3z"/>
<path d="M57.6,189c1,0,1.2,2.1,1.2,2.2C58.2,190.8,57.6,190.2,57.6,189z"/>
<path d="M160.2,189.3h0.5v0.7h-0.7C159.9,189.6,160.2,189.6,160.2,189.3z"/>
<path d="M163.4,189.5C162.7,190.5,162.6,188.8,163.4,189.5z"/>
<path d="M156.9,190C157.7,189.1,157.8,190.8,156.9,190z"/>
<path d="M153.2,190h0.5v0.5h-0.5V190z"/>
<path d="M154.4,190.3C155.2,189.4,155.3,191,154.4,190.3z"/>
<path d="M61.4,190.3c0,0.5-0.6,0.5-1.2,0.5C59.9,189.9,60.9,190.4,61.4,190.3z"/>
<path d="M50.7,190.5c1,1.7,1.6,3.7,2.2,5.7c0.5,1,1.7,1.2,1.7,2.5c-2.8,0.2-1.7-3.6-3.5-4.5c0-0.4-0.1-1,0.2-1
	C50.5,192.6,50.6,191.2,50.7,190.5L50.7,190.5z"/>
<path d="M160.7,191.8h0.5v0.5h-0.5V191.8z"/>
<path d="M160.7,193.3c1.3,0.9-1.6,1.2-2.7,1.2C158.1,193.3,160,193.9,160.7,193.3z"/>
<path d="M149.7,194C149,194.9,148.9,193.3,149.7,194z"/>
<path d="M164.9,193.8c0.1,0.8-1.1,0.9-1.5,0.5C163.5,193.6,164.3,193.8,164.9,193.8z"/>
<path d="M156.2,194.3C155.4,195.2,155.4,193.5,156.2,194.3z"/>
<path d="M146.5,194.3c0.3,0.8-0.6,0.4-1,0.5C145.5,194.3,145.9,194.2,146.5,194.3z"/>
<path d="M153.2,194.5h0.5v0.7H153C152.9,194.9,153.2,194.8,153.2,194.5z"/>
<path d="M58.6,196.3c1,0.5,1.8,1,2.2,2C59.2,198.6,58.3,197.2,58.6,196.3z"/>
<path d="M165.4,197.3c-0.3,1.8-3.1,1-3.7,1.2C162.3,197.5,163.7,197.6,165.4,197.3z"/>
<path d="M88.3,199.3c-1.6-0.1-3.4-0.1-4.7-0.5c0.2-0.7,1.6-0.4,2.5-0.2C86.9,198.6,88.2,198.6,88.3,199.3z"/>
<path d="M90.6,199c7.4,0.4,14.5,1.2,21.2,2.2c-0.2,1.1-1.5,0.3-2,0.2c-4.3-0.1-8.5-1.1-12.7-1.5C94.7,199.8,92,200.5,90.6,199z"/>
<path d="M158.2,199.5c0.6-0.1,0.9,0.1,0.7,0.7C158.7,200,158,200.2,158.2,199.5z"/>
<path d="M147,200.8h0.5v0.5H147V200.8z"/>
<path d="M148,201.3c0-0.1,0.5-0.4,0.7-0.2C149.2,201.4,147.6,202.2,148,201.3z"/>
<path d="M149.2,201.5h1c0.3,0.8-0.6,0.4-1,0.5V201.5z"/>
<path d="M150.7,202.3c-0.1-0.5,1.1-0.4,0.7,0.2H151C151,202.3,150.9,202.3,150.7,202.3z"/>
<path d="M147.5,202.3h0.5c0.1,0.5-0.4,0.5-0.7,0.5C147.3,202.6,147.5,202.5,147.5,202.3z"/>
<path d="M154.9,203h0.5v0.5h-0.5V203z"/>
<path d="M162.7,203h0.5v0.7h-0.7C162.4,203.4,162.7,203.3,162.7,203z"/>
<path d="M157.9,203.3c0.4-0.1,0.4,0.2,0.7,0.2C158.8,204,157.6,203.9,157.9,203.3z"/>
<path d="M159.4,203.3h0.5v0.5h-0.5V203.3z"/>
<path d="M160.7,203.5c0.1-0.1,0.7-0.5,1-0.2C162.1,203.6,160.3,204.3,160.7,203.5z"/>
<path d="M154.9,204.5C154.2,205.4,154.1,203.7,154.9,204.5z"/>
<path d="M95.8,209c-0.6,0.1-0.9,0.4-1.7,0.2C94.1,208.5,96,207.8,95.8,209z"/>
<path d="M74.4,208.5c0.1,0.7-0.9,0.9-1.2,0.5C73.1,208.4,73.7,208.5,74.4,208.5z"/>
<path d="M93.6,208.7c0.3,0.8-2.1,0.8-1.7,0C92.3,208.7,93.3,208.1,93.6,208.7z"/>
<path d="M75.4,208.7h1.5C76.8,209.5,75.2,210,75.4,208.7z"/>
<path d="M78.8,208.7c0.2,0.9-0.9,0.9-1.2,0.5C77.8,208.9,78.2,208.7,78.8,208.7z"/>
<path d="M81.6,209c0.2,0.9-1.3,0.5-1.5,0.2C80.2,208.9,81.4,208.4,81.6,209z"/>
<path d="M83.6,208.7c0.7,0.4-0.3,1-1,0.7C82.2,208.5,83.7,209.4,83.6,208.7z"/>
<path d="M86.6,208.7c-0.1,0.7-1.2,1-1.7,0.5C84.9,208.5,85.9,208.8,86.6,208.7z"/>
<path d="M32.7,218.7c-1.4,3.2-7.1,2.8-9.5,0.7c1.5-0.9,3.9,2.2,6.5,0.5C30,218.5,31.5,217.2,32.7,218.7z"/>
<path d="M9.2,218.7c3.2,0.7,5.4,2.4,8,3.7c-0.3,1-1.6,0.2-2.2,0C13,221.9,10.2,220.4,9.2,218.7z"/>
<path d="M21.5,218.7c0.5-0.1,0.7,0.2,1,0.2C22.5,219.4,21.1,219.4,21.5,218.7z"/>
<path d="M35.9,219.5c1.5,0.1,1.4,1.8,2.7,2C37.5,223,35.2,220.6,35.9,219.5z"/>
<path d="M97.3,237.2c-1.1,0.9-3.7,0.3-5.5,0.5C93,237,96.1,237,97.3,237.2z"/>
<path d="M102.1,237.7c-1.1,0-2.6-0.2-4.2-0.2C98.5,236.5,101.5,236.9,102.1,237.7z"/>
<path d="M103,237.4c3.3-0.6,7.8-0.2,11.2,0C111,238.1,105.7,237.5,103,237.4z"/>
<path d="M120.3,237.4c-1.5,0.4-2.5,0.5-3.7,0.2c10.4,2-1.1-0.3-1.2-0.2c0.9-0.7,2.6,0.7,3.7-0.2C119.6,237.1,120,237.2,120.3,237.4z
	"/>
<path d="M137,237.4c-2.4,0.6-6,0.6-8.7,0.2c0.7-1.1,1.8-0.2,2.7-0.2c1.7,0,3.3-0.3,5-0.2C136.1,237.5,136.6,237.4,137,237.4z"/>
<path d="M91.1,237.9c-0.9-0.2-1.3,0.4-1.7,0C89.6,237.8,91.2,236.9,91.1,237.9z"/>
<path d="M120.8,237.7c0.3-0.6,1.6-0.1,2.2-0.2C122.7,238,121.4,237.5,120.8,237.7z"/>
<path d="M88.3,237.7c0.1,1-1.6,0.3-2.2,0.5C86,237.2,87.6,237.9,88.3,237.7z"/>
<path d="M78.8,238.2c0.3,0.8-0.8,0.4-1.2,0.5C77.8,238.3,78.4,238.3,78.8,238.2z"/>
<path d="M148.5,238.2h0.5v0.5h-0.5V238.2z"/>
<path d="M152.2,238.2c0.2,1.1-1.6,0.8-2,0.5C150.5,238.1,151.4,238.2,152.2,238.2z"/>
<path d="M164.9,238.4c-1.8,1-5.2,0.3-7.7,0.5c0.3-0.9,1.8-0.5,2.7-0.5C161.8,238.4,163.7,238.4,164.9,238.4L164.9,238.4z"/>
<path d="M172.2,238.4c-0.9,1.5-4.2,0-6.5,0.5C167.1,237.5,169.9,238.7,172.2,238.4z"/>
<path d="M72.1,238.7c0.5-0.6,2.1-0.1,3-0.2C74.8,239.2,72.8,239.1,72.1,238.7z"/>
<path d="M6.5,239.4c-1,0.1-1.2-0.4-2.2-0.2C4.5,238.6,6.2,238.5,6.5,239.4z"/>
<path d="M29.7,238.7h1.5c0.2,0.9-1,0.3-1.5,0.5V238.7z"/>
<path d="M37.2,238.7c-1,0.9-2.8-0.2-4.2,0.5C33.5,238.2,35.8,238.9,37.2,238.7z"/>
<path d="M43.2,238.7c0.5-0.1,0.8,0.1,0.7,0.5h-0.7V238.7z"/>
<path d="M16.5,239.2c-2.1,1-6.7,0.5-9.2,0.2c0.3-0.9,1.9,0,2.7,0C11.8,239.1,14.3,239.2,16.5,239.2z"/>
<path d="M22,239.2c0.2-0.4,2.1-0.4,2.2,0C23,239,22.7,239.5,22,239.2z"/>
<path d="M46.2,239.2c0.7-0.6,2.4-0.1,3.5-0.2C49.3,239.9,46.9,239.4,46.2,239.2z"/>
<path d="M59.1,239.2c0.1,0.3-2.7,0.8-3.5,0.2C56.5,238.5,57.6,239.4,59.1,239.2z"/>
<path d="M126.3,240.9c-0.4,0.9-2.2,0.5-3.5,0.5c-1.3,0-2.6,0.2-3.2,0C121.2,240.4,123.9,241.6,126.3,240.9z"/>
<path d="M117.3,241.7c-5.7,1.1-11.3,0.2-17,0.5c-5.6,0.3-11.4,1.1-16.7,1c-0.4,0-1.8,0.4-2-0.5c11.2-1,22.2-0.6,32.7-1.2
	C115.1,241.4,116.6,240.6,117.3,241.7z"/>
<path d="M117.8,241.2c0.4-0.1,0.4,0.2,0.7,0.2C118.6,241.9,117.4,241.8,117.8,241.2z"/>
<path d="M174.4,241.7C173.9,242.4,172.8,241.4,174.4,241.7z"/>
<path d="M38.4,243.2h-3.5C35.4,242.2,37.8,242.3,38.4,243.2z"/>
<path d="M165.2,242.4h0.5v0.5h-0.5V242.4z"/>
<path d="M9,242.9c-0.7,1-3.4,0.4-4.5,0.2C5.5,242.1,7.2,243.2,9,242.9z"/>
<path d="M27.4,242.7c-3.8,1.3-8.2,0.5-13,0.7c1.7-0.9,4.1-0.8,6-0.5C22.4,242.4,25.2,242.8,27.4,242.7z"/>
<path d="M29.4,242.7h0.5v0.5h-0.5V242.7z"/>
<path d="M146.7,242.9c-0.6,1.2-2.1,0.2-3.2,0.2c-2.6,0.1-5.6,0.6-7.7,0.2C138.8,242,143,243,146.7,242.9L146.7,242.9z"/>
<path d="M9.7,242.9h3.7C13.2,243.7,10,243.8,9.7,242.9z"/>
<path d="M76.9,242.9c-1.2,1.3-5.3,0.5-8,0.7C70.5,242.4,74.8,243.8,76.9,242.9z"/>
<path d="M68.4,243.7c-3.1-0.1-6.7,0.1-9,0c1.7-0.4,4.4-0.6,7-0.5C67,243.2,68.3,242.8,68.4,243.7z"/>
<path d="M58.4,243.4c-1.4,0.9-4.7,0.5-6.2,0.5C53.3,242.8,56.4,243.7,58.4,243.4z"/>
<path d="M58.9,79c-0.4,0.1-0.1,0.7-0.5,0.7c-1.2,0.2-0.6-1.4-0.7-2.2c-0.6,0.2-0.2,1.3-1.2,1c-0.3-0.9,0.6-0.7,0.5-1.5
	c0.8-0.1,1,0.6,1.2-0.2c1.4,1.7,2.3,3.9,3.7,5.5c-0.9,0.2-0.9,0.9,0,1.2c-0.6,0.4-1.6-0.9-2.2-1.2c0-0.4,0.2-0.6,0.5-0.7
	C60,80.7,58.8,81,58.9,80c0.5-0.4,0.3,0,1,0C60,79.2,59.3,79.3,58.9,79z"/>
<path d="M47.9,123.4c0.3,0.6,0.9-0.6,1.7-0.2c-1.1,1.4-3.3,1.7-5.7,1.7c2.2-0.8,4.5-3.9,7.2-4.5c1-0.2,2.4,0.1,3.7,0
	c3.6-0.3,6.5-1,9.5,0.2c1.7-1.4-0.2-2.7,0.2-4.2c1.4,0.1,1.9,1.9,2.5,3c0.6,1.2,0.8,2.8,2.2,3.2c0.1-2.1-0.2-4.3-0.7-6.5
	c-0.3-1.2-1.2-2.3-1.5-3.5c-0.4-1.3-0.1-3-0.5-4.2c-1.1-3.7-4.3-6.2-6.7-8.2c0-2.6-2.8-3.7-2.7-5.5c1.9,1.4,3.9,2.8,4.7,5.2
	c1.6,0.9,2.5,2.2,3.7,4c0.6,0.8,1.4,1.8,1.7,2.5c0.8,1.8,0.5,4,1,6c0.3,1.1,1.2,1.9,1.5,3c0.6,2.5-0.1,5,1.5,7
	c-0.1,0.9-0.6,1.4-0.5,2.5c0.2,1.3,1.7,1.3,2.2,2.2c1.2,4.8-0.4,9.1-1.5,13c0.1,0.8,0.8,0.9,0.5,2c-1.1,1.7-1.7,4-3,5.5
	c0.3,1.2,0.1,3.8-0.7,3.7c0.7,3,0,5.9,0.2,9c0,0.5,0.5,1.2,0.5,1.7c0.1,2.8-0.8,5.5-1,8c-0.2,2.8-0.2,5.5,1.5,7c0.2,0.7,1.8,0,1.7,1
	c-0.6,1-2.1,0.4-3,0.2c-1-0.2-1.8-0.9-2.5-0.7c0.2-2.2-0.8-4.6-0.5-7.2c0.2-1.5,0.9-3.2,1.2-4.7c2.2-8.9,0.3-21.5-1.7-29.9
	c-0.7-0.7-1.5-1.4-2.2-2c-3.7-0.3-7.9-0.2-11.5,0.7c-2.9,0.8-6.4,2.4-9.5,3c-1.7,0.3-3.2,0.1-4.5,0.5c-1.3,0.4-2.7,1.8-4.2,2.7
	c-1.1,0.7-2.5,1-2.7,1.7c-0.3,1.1,0.2,2.2,1,2.7c-0.8,0.4-0.9,1.5-0.7,2.7c-0.1,1.2,1-0.3,1,0.7c0.1,1.3-0.9,0-0.7,1
	c-0.2,1,0.5,1.1,1,1.5c0.4,0.9-0.8,0.2-0.7,0.7c0,1.1,1.1-0.4,1,0.7c0.2,0.9-0.4,0.9-0.7,0.5c-0.2,1.4,1.1-0.2,1,1
	c0.2,0.9-0.4,0.9-0.7,0.5c-0.2,0.9,1.3,0.2,1,1.2c0.2,0.8-0.5,0.4-0.7,0.2c2.1,1.6,1.6,7.6,4.2,9.5c-1.1,1.7,2.3,5.7,3,7.7
	c-0.5,0.1-0.7-0.2-1-0.2c2.4,6.4,4.2,12,7,18.7c0.7,1.8,1.8,3.4,2.5,5.2c1.4,3.5,2.9,7.8,6,9.5c1.7,0.9,4.9,1.6,7.5,2
	c8.4,1.3,17.5,2.2,26.9,1.2c0.1-0.5-0.9-0.8,0.5-1.2c1-0.1,0.3,0.9,0,1h1.7c0.1-0.1-0.6-1,0.7-1c1-0.1,0.3,0.9,0,1
	c1.7,0.4,3,0.2,5,0c0.9-0.1,0.4-1.5,1.7-1c1.2,0-0.3,0.6-0.2,1c0.4-0.4,3.1-1.9,2.5-0.2c1.2-0.2,1.5-1.3,3-1.2
	c0.5,0.5-0.1,0.5-0.2,1c0.9-0.3,1.2-1.1,2.2-1.2c1-0.1,0.1,0.5,0.2,1c1-0.5,1.5-1.5,3-1.5c0.3,0.4,0.3,0.6-0.2,0.7
	c0.5,0.4,1.1-1.2,2.2-1c0.8-0.2,0.4,0.5,0.2,0.7c0.6-0.6,2.6-1.7,2.7-0.5c0.9,0.1,0.7-1,1.5-1c0.8-0.3,0.6,0.4,1,0.5
	c0.9-0.4,2-1.7,3-0.5c0.2-0.5,0.8-0.7,1.2-1c0.4,0.1,1.2-0.3,1,0.5c0.7-1.1,2-0.6,3.5-0.7c0.6-0.1,1.1-0.7,1.5-0.7
	c2.3-0.3,4.9,0.2,7-0.2c-5.1-1.7-11.1-1.6-17-2c-1.1-0.1-2.9,0.6-3.7-0.7c6.7,0,14.8,0.2,22,1c-0.1,0.5-1.1,0.1-1.2,0.5
	c0.9,0.9,2.4,1,3.7,0.7c-0.3-0.7-1.6-0.4-2.2-0.7c0.5-0.4,3.2-0.5,4.7-0.2c3.8,0.5,7.4,3.1,11.5,3c0,1-1.7,0.3-2.5,0.5
	c1.2,0.7,3.4,0.5,4.7-0.2c4.2,0,8.5-0.1,11.7,0.2c0.5-1.9,0.3-4.6,0.7-6.5c1.1,0.4,2.8,1.8,4,0.5c-0.3-3.5-3.1-4.5-3.5-8
	c1.8,0,2.6,2.5,4.5,2.7c4.5,0.5,2.9-4.3,1-6c-0.9-0.8-2.5-1.2-3.5-2.2c-0.8-0.8-0.8-1.8-1.2-2.5c-0.2-0.4-1.9-1.1-1.2-2
	c1,0,1.1,0.9,1.5,1.5c2.6,1,4.5,2.8,7.2,3.7c1.5-0.8,2.8-3.2,1.5-5.2c-1-1-2.3-1.7-3.7-2.5c-2.1-1.2-3.8-1.8-6.7-2.5
	c-1.4-0.3-2.2-0.9-3.7-0.5c-2.9,0.7-6,2.4-9,3c1.3-1.7,3.7-2.3,6-3c-1.6-0.1-3.3,0.4-4.7,1c-2.4,0.9-5.5,2.4-7.5,3.7
	c-0.6,0.4-1.3,0.7-1.5,1.5c-2.3-0.2-3.7,1.9-5.5,2.5c-3.5,1.1-9.5,0.3-13.7,0.5c-4.3,0.2-8.8,0.6-13,0.2c-2.2-0.2-3.8-0.5-6.5-0.7
	c-5-0.4-9.1-2.8-13.7-3.5c-2.6-0.4-4.1-0.1-6.7-0.5c-2.2-0.3-4.2-1.1-6.2-1.5c-1.8-0.3-4.2,0.3-5.2-1.5c3.8-0.4,7.9,0.9,11.5,1.5
	c-1-4.1-0.1-10-2-13.2c0.2-3.3-1.4-6.1-1.5-9.2c0-1.2,0.3-2.3,0.2-3.5c-0.1-2.8-0.9-5-1.2-8.2c-0.1-1.1-0.8-2-1-3c-0.2-1,0.1-2,0-3
	c-0.1-0.7-0.6-1.5-0.7-2.2c-0.4-2.3-0.7-4.9-1.2-7.2c-0.7-3.1-2-5.9-2.7-8.7c0.5-0.1,0.7,0.2,1,0.2c0.1-1.3-0.9-0.1-1.5-0.7
	c-1.1-2.2-1.5-4.5-2.2-6.7c-2.2-6.3-6.2-11.3-10-16c-0.1-0.7,1-0.2,0.7-1c-1-2.5-3.1-4.8-5.2-7.2c-4.7-5.4-9.5-11-16-15.2
	c-2.9-1.9-4.3-1.9-8-3.7c-1.3-0.6-2.8-2-4-1.7c-2.3,0.5-1.3,3.8-1,5.2c-1.1-0.1-1.9,0.1-2.5,0.5c-1.9,1.8-2.3,5.1-5,6
	c-2.5,3.7-5.3,7.1-8,10.7c-2.7,3.7-4,8-6.5,12c-0.9,3.6-1.7,7.3-3,11.2c-0.6,1.9-0.6,3.5-1,5.5c-0.4,2.1-0.5,5.8-0.7,9
	c-0.2,2.3-0.3,4,0,7.2c0.3,3.8,1.5,7.8,1.5,11.7c0,4.4,2.2,8.2,2.7,12c0.5,3.7,1.4,6.6,2.7,9.5c-0.9,2.7,1.1,5.5,1.5,8.5
	c0.1,0.7-0.2,1.6,0,2.2c0.4,1.5,1.5,2.4,2,3.7c0.6,1.9,0.3,4.1,0.5,6.5c0.3,3.9,1.9,7.5,3,10.7c2.8,0.6,3.5,2.4,7,2.7
	c1.5,0.1,3.8-1,4.5,1c-1.2,0.7-2.5-0.3-3.5-0.5c-2.6,0.2-6.7,0.2-8-1.7c-0.9,0.1-0.3,1.7-1.7,1.2c-1-2.2-0.6-4.7-1.2-7
	c-0.9-3.2-3.2-6.5-1.5-10.2c-0.8-1.1-0.7-2.9-1.7-3.7c-0.6-2.6-0.9-5.7-1.7-8.2c-0.5-1.4-0.9-3.6-1.5-5.7c-0.5-2.2-1-4-1.5-6.7
	c-1.1-5.5-3.1-10.9-3.5-17c-0.1-1.6,0.2-3.2,0-5c-0.1-1-0.9-2.3-1-3.5c-0.2-2.1,0.3-4.2,0.2-6.2c-0.1-3.4-0.6-7.7,0.2-12
	c0.1-0.5,0.6-1,0.7-1.5c0.2-0.9,0.1-1.9,0.2-2.7c0.2-1,0.9-1.8,1-2.7c0.1-0.7-0.2-1.6,0-2.2c0.5-2.2,2.2-5,3.2-7.5
	c0.9-2,1.6-3.9,2.5-5.7c0.7-1.4,1.5-2,2.2-3.2c1-1.6,1.4-3.3,2.5-4.7c1.9-2.5,4.2-4.9,6.5-7.5c1.1-1.2,2.7-2.2,3.5-3.5
	c0.5-0.7,0.3-1.8,0.7-2.5c0.6-1.1,2.1-1.8,2.7-3c0.4-0.7,0.2-1.6,0.5-2.2c0.9-1.9,3-2.7,3.7-4.7c-0.1-4.3,0.4-8.1,0.2-11.2
	c-0.2-1.3-1.7-1.3-2.5-2c-0.8-1.9-1.7-3.8-2.5-5.7c0.7-1.8-0.6-3.1-0.7-4.5c-0.1-0.8,0.3-2,0.2-3.2c-0.1-2.2-1-4-0.5-5.5
	c0.3-0.9,1.5-1.3,2-2.2c0.7-1.3,0.7-3.2,1.2-4.5c0.5-1.2,1.7-2.2,2.5-3.2c0-2.5,1.5-3.5,3-4.5c1.2-4.4,5.6-6,10-8
	c0.4-0.2,0.9-0.3,1.2-0.5c1.2-0.7,3.1-1,5-1.7c0.6-0.3,1.2-0.8,1.7-1c0.9-0.3,1.9-0.2,2.7-0.5c0.8-0.3,1.4-1,2-1.2
	c2.4-0.8,5.3,0.2,7.5,0.5c0.5,0.1,1.2-0.3,1.7-0.2c1,0.1,2.2,0.9,3.2,1c1.8,0.2,3.5-0.3,5,0.2c1.3,0.5,2.7,1.8,3.2,3.5
	c0.9-0.2,0.7-0.5,1.7-0.2c1.3,1.1,3,1.8,4,3.2c5.2,1.3,8.4,4.6,9.5,10c2.4,2.8,3.8,6,3.5,9.7c-0.1,0.9-0.5,1.7-0.7,2.7
	c-0.2,1-0.1,2-0.2,3c-0.8,4.1-2.4,7.9-3.7,12.2c-0.4,1.2-1.1,2.6-1.2,3.5c-0.3,2.2,0.2,4.8,0.5,6.7c0.3,2.1,1.5,4.5,1.2,6.5
	c-0.3,2.2-2.9,4.1-6,2.7c-1.2,2.9-1.9,6.2-5.5,6.7c-1.3,2.4-1.2,5.3-2.2,7.5c-1,2-2.9,3.2-3.5,5.2c-2.5,0.4-5.1,0.7-8,0.7
	c1.6,3.6,0.5,7.5,2,11.5c0.8,2.3,2.6,4.3,3.7,6.2c1.3,2.1,2.7,4.3,3.5,6.5c0.6,1.5,0.7,3.2,1.2,4.7c0.6,1.5,1.2,2.8,1.7,4.2
	c1.1,3.1,1.2,6.2,2,9.7c0.5,2.4,1.5,6.3,2.2,9.5c0.6,2.3,0.9,5,1.7,8c0,0.6-0.4,0.8-0.5,1.2c0.2,0.3,0.7,0.5,0.7,1
	c0.8,8.8,2.6,16.7,2.5,26.4c1.3,1.2,2.9,1,5.5,1.2c3.9,0.4,7.7,2.3,11,3c8.7,0.2,20.3,0.8,30.2,0.5c6-0.2,10.2-4.1,14.5-6.5
	c2.3-1.3,5-2.5,7.5-3.2c1.6-0.4,3.2-0.1,4.7-1.2c1.8,0.5,2.5-1.2,3.7-0.5c7.6-11.7,14.9-23.9,22.2-35.9c-0.1-3.1,1.4-4.6,2-7
	c-4.7-2.8-10.8-0.2-13.7,2.5c-0.8-0.2-1.4-0.4-1.5-1.2c-1,0.5-1.9-0.1-2.7-0.5c1.6-3.1,4.8-4.9,8.5-6.5c2.3-1,3.8-2,6.5-2.2
	c11-1.1,17.7,7.4,23.5,12.2c1.6-0.2,3.9,0.7,4.2,2c0.5,2.1-3.3,6.3-4.5,7.2c-1.8-0.7-3.9-1.1-4-3.5c-2.3-1.1-5-1.8-7.2-3
	c-1.7,0.3-2,2-3.5,2.5c-7.4,12.7-14.4,25.7-21.2,38.9c0.8,1.6,4.2,3.3,4.2,6c0,2.2-1.7,4.4-5,4c0.2,1.3,1.6,1.7,1.7,3.2
	c0.3,2.6-1.6,5.6-5,5c1.8,3-0.5,5.6-3.2,6.2c0.7,4.5-4.2,6.5-8.7,5.7c-1.2,1.2-1.6,3.2-3,4.2c-5.1,0.2-8.1-1.7-9.7-5
	c-4.2-1.7-10.1-2.7-15.7-2.2c-11.9,0.9-24,5.6-36.9,5.5c-1.6,0-2.4-0.8-3.7,0c-0.2,3.7-1.4,7-1.7,10.5c-0.4,3.4,0.8,7.9-0.5,12.2
	c29.5-0.3,65.7-0.8,98.3-0.7c0.7-1.4-0.2-4.4,0.5-5.7c7.9-0.5,18.3,0.1,28.4-0.2c5-0.2,9.9,0.6,14.5,0.2c2.3-0.2,5.5,0,8.2,0
	c2.7,0,5.5-0.5,7,0c2.5,0.7,4.8,5.5,6.7,7c1.2-0.6,4.9-0.9,6,0c-0.4,1.5-3.4,0.4-5,0.7c1.1,2,2.8,3.5,4.2,5.2
	c-0.2,3.3,0.3,7.3-0.2,10.2c-2.7-0.5-5.4,0.4-8.2,0.2c-0.9,0-1.8-0.5-2.7-0.5c-15.5-0.4-33,0.6-47.7-0.2c-4-4.5-7.5-9.4-11.5-14
	c-0.2-0.7-0.2-0.8,0-1.5c-44.1,0.7-94.5,0-140.2,1.2c-12.8,0.3-27.9-0.3-39.9,0c-1.3,0-4,1.1-4.7-0.5c0.1-0.8,2.4-0.9,3.5-0.7
	c0.7,0.1,1,0.5,1.5,0.5c1.8,0,3.6-0.4,5.5-0.5c18.1-0.6,35.1,0.2,51.9-0.5c-4-4-11.7-5.2-17-8.5c-1.2-0.7-2.4-1.4-3.5-2.2
	c-1-0.7-2.5-1.5-2.7-2.7c2,0.5,3.3,1.7,4.5,3c5.2,3.1,11,5.4,17.2,7.5c1,0.1,1.4-0.4,2.5-0.2c-1.1,1.7,0,1.5,0.5,3.2
	c6.4,0.3,13.6,0.3,19,0c-0.2-5.6,1-13.6,1.7-20.5c0.1-0.8,0.1-1.5,0.5-2.2c-2.1,0-3.6,0.1-5.7,0c-0.7,0-2,0.2-3.5,0.2
	c-1.4,0-3.3-0.5-5-0.5c-4.6,0-9.5-1.2-14.2-2c-3-0.5-6.1-1.5-7.2-2.5c-1.1-1-1.8-3.3-2.7-5.2c-0.9-1.8-2.2-3.5-3-5
	c-2-3.8-2.6-8.1-4-11.7c-1.4-3.6-3.2-6.9-4.7-10.2c-1.2-2.6-2.5-5-3.2-8c-0.3-1-0.1-2.1-0.5-3c-0.7-1.6-2.7-2.1-4-3
	c-0.8-2.2-0.5-3.6-1.7-5.2c-0.6-0.9-1.8-1.1-2.5-2c-0.5-0.6-0.5-1.6-1-2.5c-1-1.8-2.7-3-3-4.5c-0.2-1.1,0.4-2.3,0-3.5
	c-0.5-0.7-1,1.7-1.7,0.7c0-0.9,0.4-1.4,0.5-2.2c-0.6-3-2.3-4.8-3.5-7.2c-0.9-5-1.6-10.2-0.5-15.2c0.2-0.9,0.7-1.6,1-2.5
	c0.8-2.9,1-5.9,2-8.5c1.6-4.2,4.6-7.4,7.7-10.5c2.4-2.4,3.3-3.6,6.5-5c4.1-1.9,10.6-5.9,15.7-2c-0.9,1.2-2.8-0.3-4-0.5
	c-3.6-0.5-7.3,1.5-9.7,3.2c-4.5,1.2-7.6,3.7-9.5,7.5c-2.1,0.8-2.5,1.9-4,4.2c-1.2,1.9-1.6,2.5-2.5,5c-0.7,1.8-0.4,2.8-0.7,5.2
	c-0.3,2.3-1.4,5-2,7.2c-0.8,3,0.7,6.8,1.5,9.5c0,0.8-0.6,1.1-0.5,2c0.6,2.2,2.4,3.3,3.2,5.2c1.2-0.5,0.9-2,1-3
	c0.2-1.1,0.5-2.3,0.2-3.5c-0.4-2.1-3.5-3.8-2.5-5.7c1.7,1.3,1.6,4.4,3.5,5.5c0.1,0.9-0.6,1.8,0,2.5c1.3-0.7,1.7-2.3,2.7-3.2
	c0.1-1.9-1.5-3.4-1-5c0.8,1.3,1.4,2.9,2,4.5c2.3-0.9,3.3-3,6.5-3c0.9-0.2,1.4-0.9,2.2-1.2h2c1.7-1,2.9-2.9,4.5-4.5
	c0.7-0.7,1.6-1.2,2.5-2c0.8-0.7,1.5-1.7,2.2-2c1.1-0.4,2.2-0.2,3.5,0c-1,3.1-4.6,3.6-6.2,6c0,0.7,1,0.5,1.7,0.5
	c-1.1,1.2-2.7,0.8-4.2,1.2c-1.2,0.4-2.3,1.3-3.5,1.7c-0.8,0.3-1.8,0.1-2.5,0.2c-3.5,0.8-6,2.6-8.2,4.7c0.3,1.7,0.5,2.8,0,4.5
	c-1.2-0.4-0.8,0.9-1.7,0.7c-0.6-1,0.4-2.3,0.2-3.7c-0.9-0.6-1.3,1.3-2,1.7c-0.2,0.7,1.2-0.2,1,0.5c0,1-1.4,0.6-1.7,1.2
	c-0.6,1.6,0.1,2.9,0.2,4.5c0.1,1.6-0.4,3.1,0,4.2c0.6,1.6,3.1,2.2,2.7,4.2c-0.3-4,2.4-6.5,3.5-9.7c-0.1-0.3-0.4-0.4-0.5-0.7
	c-1.1-0.9-1.5,1.4-2.7,0.5c0.1-1.1,0.8-1.7,0.7-3c1.7-1.1,2.6-3.4,4.2-4.7c0.7-0.6,1.7-1,2.5-1.5c0.7-0.5,1.3-1.5,2.2-1.2
	c-2.2,3.1-9.5,5.5-5.7,10.7c3.7-2,7.2-4.1,11-6c1.4-0.5,2.4,0.1,3.5-0.5c-0.7-0.7-1.6,0-2.7-0.5c-1,0.9-2.4,1.4-4,1.7
	c-1.3,0.9-2.5,2-4.7,2c1-1.9,2.3-3.6,4.5-4.2c1.6-0.5,3.5-0.1,5.2-0.5c0.6-0.1,1.1-0.8,1.7-1c2.4-0.8,5.2-0.4,7.2-0.7
	c1.1-0.7,1-2.2,2.5-2.5c1.3-0.3,2.8,1,4.5,1.2c3.1,0.5,6.5-0.4,8.5,0.7c0.6-2.5,1-6.4,1-8.7c-2.5-0.6-6.1-0.1-9-0.2
	c0.1-0.7,1-0.4,1.2-1c-2.6,0.8-6-0.1-8.2,0.7C49.2,122,48.9,123.1,47.9,123.4L47.9,123.4z M90.1,23.9c1.2-1.6-2.2-3.2-1.7-3.2
	c0.2,1.2,1.6,1.2,1.5,2.7c-2.1-1-2.9-3.3-4.2-5c-1.6-1.6-4.5-2-6.2-3.5h-1.5c-2.8-1.8-3.9-6.2-9.2-4.7c-1.7-1.1-3.2-2.8-5.7-2.7
	c-1.8,0.1-3,1.4-4.5,1.2c0-1,1.6-0.4,1.5-1.5c-0.9-0.8-1.3,0.6-2.2,0.5c0.5,1,0.1,2.2-1,2.2c-0.3-0.3-0.2-1.1-0.2-1.7
	c-4.8,1.1-8.6,3.2-11.5,6.2c-0.1-0.4,0.3-1.3-0.2-1.2C42.8,15,39,15,38.9,18.6c-0.9,0.2-1.6,0.6-2.5,0.7c-0.3,2.2,0.9,2.9,1.5,4.2
	c-0.4,0.5-0.8,1-1,1.7c1.2,2.1,4.5,5.3,1,7.2c-0.1,2.8,1.5,3.8,2.7,5.2c1.5,0.1,3.6-0.4,3.7,1c-1.2-0.6-2.2,0.4-3.2,0.2
	c-1.8-0.3-2.1-1.5-3-3c-0.7-1.3-1.2-2.2-1-4c0.8-0.6,1.4-1.4,1.7-2.5c-1.2-1.6-2.4-3.1-3.2-5c1.5-0.9-0.2-3.6-0.5-5
	c-1.3,0.7-1.6,2.4-2,4c-2.1,0.2-1.5,2.3-2.2,4.2c-0.4,1-1.1,1.8-1.2,2.5c-0.2,1.1,0.6,2.5-0.5,3.2c-0.7,0.2,0.2-1.2-0.5-1
	c-0.1,0.8-0.6,1.2-1,1.7c0.3,0.7,0.6,1.6,0.7,2.5c-1.3,2.6-0.3,5.7,0,8.7c0.8,1.2,2,2.1,2.5,3.7c-0.9-0.2-1-1.1-2-1.2
	c0.6,2.1,3.3,2,4,4c0.4,0.5,1.1-0.4,1.2,0.5c-0.2,0.1-0.5,0-0.5,0.2c1.4-0.1,3.3,0.3,4.2-0.2c0.7-0.6-0.4-1.3,0.2-1.7
	c2.7-0.2,6.7,0.9,6.7-2c-2.9,0.4-5.6-3.2-3.2-5c0.4,2,0.8,3.8,3,4c0-0.7,0.5-1,0.5-1.7c2.1-0.8,2.4-3.4,4.5-4.2
	c-0.6,1.7-1.9,2.7-2.5,4.5c0.5,0.9,1.5,1.2,1.7,2.2c0,1.1-1.3,1.3,0,1.7c-1.3,1.9-2.2-0.6-3-1.2c0,2.6-3.5,2.8-5.7,2.2
	c-1.2,2-4.3,3.9-7,2.2c-0.5,3.9-0.2,8.8-1,11.7c8.5,1.2,14.5,4.9,20.5,8.7c0.1-1.1-1.1-1.9-0.2-3c-1.3,0-1.2-2.6-1-3.2
	c0.9,0,1.4,0.4,2,0.7c-0.1,0.7-1,0.4-1.2,1c2,0.3,1.6,3,1.5,4.7c1.1,0.2,0.9,1.6,2.2,1.5c-0.2-2.2,0.4-4,1.5-6
	c0.5,1.2-0.1,2.5-0.7,3.2c1.4,1.4,0,4.7-1.7,4.2c0.1,1.3,1.3,1.5,1.5,2.7c-0.2,0.7-0.7,1.1-1,1.7c2.3,0.6,3.8,3.3,6.7,2.5
	c0,0.5,0.8,0.2,0.7,0.7c-1,0.9,0.2,0.5,0.5,1.2c-4,0.8-6-2.3-8.5-4.5c0.5-1.3-0.2-1.3-0.7-2c1.2-0.8-1.7-2,0.2-3
	c-2.4-0.7-3.7-2.9-5.7-4.2c-4.3-2.9-11-4.4-16.2-6.2c-0.5,0.5-1.5,0.5-1.5,1.5C42.4,71.2,50,78.5,57.1,86.2c2.7,3.3,5.6,6.2,7.7,10
	c-0.3-2-0.6-3.9-0.7-6c-1.6-0.3-3-0.8-3.5-2.2c0.4,0,0.9,0.1,1-0.2c-1-0.4-2.5-0.4-2.5-1.7c1.3,0.8,4.1,1.1,5.5,1c1-1,1.9-2.3,3.2-3
	c0.2,1.7-1.2,3.1-1,4c0.5-0.5,1.4-1.4,2-1c0.2,0.8-1.7,1.7-0.5,2c0.5-0.6,1.3-2.4,2-1.2c0.4-1-0.3-3.1,1-3.2c0.4,0.8,0.1,1.1,0,2
	c1.7-1.1-0.5-4,1.2-5c0.6,1.5,2.4,2.8,1.2,4.5c1.4,0.2,0.4-2.1,1.7-2c0,0.4-0.1,0.9,0.2,1c1.1-1.9-0.9-4.7,0.7-6.5
	c1.7-0.3,2.5-1.7,2.5-3.7c-1.2-0.2-1.6,0.4-2.7,0.2c-0.7-1.2-1.1,0-2.5-0.5c-0.8,1.2-1.6,3.7-3.5,3c0.1-1.7,1.8-1.8,2.5-3
	c-2.1-0.3-2.9-1.9-5.7-1.5c-1.4-1-3.2-1.6-4.2-3c0.5-0.7,1.4,0.9,1.7,0.2c-1.8-0.4-1.5-3-2.2-4.5c0.2-0.8,1.6-1.5,0.5-2.2
	c0,0.7,0,1.4-0.7,1.2c-0.7-1.2-0.7-3.2,0.2-4c-1.3-0.1-1.3-1.5-2.2-2c-0.6,1.7,0.3,2.1,0.5,3.5c-2.6-0.8-1-2.8-0.7-5.2
	c0.2-2.2-0.6-4,0-5.5c-0.9,0.3-0.8-1.5-1.5-2c-0.2,1-1.2,2.3-2,2c0.8-1.3,1.2-2.9,2.5-3.7c-1.3-1.6,1.4-3.6,1-5
	c-0.9,1.1-2.2,3-4.2,2c0.3-2.1,2.5-3.5,5-2.7c0.3-0.8,0.4-3.3-0.2-3c1.3,2.4-4,2.2-4.2,0.5c0.1-0.9,1.1-0.9,1-2
	c-0.8,0.2-2,1.3-3,0.5c0.9-1.4,4.8-1.1,5.5-0.5c-7-6-9.9,7.7-8.7,15.2c2.2,0.5,2.2-1.3,3.7-1.5c1,1.5,1.5,3.9,1.2,5.5
	c-0.5,2.9-3.9,2.5-4.7,4.7c0.5,0.1,1.6-0.3,1.7,0.2c-0.1,0.6-0.9,0.5-0.7,1.2c0.2,0.3,1,0,1,0.5c-0.1,0.6-0.8,0.6-1,1
	c3.8-0.1,0.1,3.4-1,2.2c0.2-0.5,0.7-0.7,1.2-0.7c-0.1-0.8-1.1-0.7-1.2-1.5c-0.1-1.3-0.6-2.3-0.7-3.5c0.7-1.6,2.4-2.3,4-3
	c0.8-2,0.5-3.1,0-5.2c-1.3,0.6-2.1,1.5-3.5,1.2c-2.5-0.5-1.7-3-1.5-5c0.1-1.1-0.1-2.3,0-3.5c0.4-5.1,2.2-9.3,4.7-10
	c1.2,0.6,2.2-0.4,3.2-0.2c1.9,0.2,3,2,4.7,2c0.4,1.3,1.1,1.4,1,2.7c0,0.7-1,1.5-1,2c0.1,0.7,1.4,0.9,1,1.7c1.3-0.1,1.2-1.7,2.2-2
	c0.5,1.5-1.2,2.6,0,3.2c0.3-1.6,1.1-2.5,1.2-4.2c0.8-0.3,2.6-0.9,2.2-1.5c0,0.4-1.7,0.4-1.7,0c0.6-1.1,2.3-1,3.2-1.7
	c0.2-1.1-1.3-2.1,0-2.7c1.2-0.3,0.8,1,1.7,1c-0.4-1.9,1.4-3,0-3.7c0.8-0.3,1-2.3,2.2-1.5c0.4-0.6,0.5-1.5,1.2-1.7
	c0.6,1.4-1.1,3.5,0.7,4.2c1.2-1.1,2.4-2.1,2-4.7c1.6-1.4,4.4-0.8,7-0.7c0,0.9,0.3,1.6,0.5,2.2c1.5-0.2,2,0.6,3.2,0.7
	c0.1-1-0.1-2.4,1-2.5c0.8,2,0.7,4.8,2.2,6C93.9,31,92.2,25.7,90.1,23.9L90.1,23.9z M70.1,8.6c1.8-0.1,3.4,1.4,4.5,1.2
	C73.5,9.3,71.3,7.5,70.1,8.6z M44.4,12.9c0.8-0.4,3.1-1.1,2-1.7C46.5,12.3,43.8,12,44.4,12.9z M78.1,13.9c1.7-0.2,2.5,1.7,3.5,1.2
	c-0.4-1.2-1.7-1.6-3-2C78.7,13.6,78.3,13.6,78.1,13.9z M41.7,14.4c0-0.6,1-0.4,1-1C42.2,13.4,41,14,41.7,14.4z M83.3,14.4h0.5v-0.5
	h-0.5V14.4z M36.7,18.1c1.7,0.1,1.9-1.3,2.2-2.5c0.7-0.5,2.2-0.1,2.2-1.2C38.1,14.1,37.4,16.1,36.7,18.1z M87.8,17.1
	c-0.5-0.4-2.8-1.4-2.5-1C86,16.5,86.8,17.9,87.8,17.1z M87.8,19.9c0.7,0.6-0.6-1.7-1-0.7C87.2,19.4,87.8,19.4,87.8,19.9z M90.6,21.9
	c-0.1-1.2-1.4-2.6-2-2.5C89.3,20.2,90,20.9,90.6,21.9z M83.1,29.1h0.5c0.3-0.4,0.3-0.6-0.2-0.7C83.3,28.7,83,28.7,83.1,29.1z
	 M79.8,30.6c0-0.7,0.5-1,0.5-1.7h-0.7C79.7,29.4,79.3,30.5,79.8,30.6z M94.8,32.3c0-1.1,0-2.1-0.5-2.7
	C94.5,30.5,94.4,31.7,94.8,32.3z M90.8,36.3c-2.2-1.5-1.7-6.6-6-5.2c-3.9-3-5.4,3.5-9.7,3.2c-0.6-0.1-0.1-1.2-1-1
	c-0.3,3.9-3.9,4.5-4.5,8.2c-0.9,0.8-2.4,1.1-3,2.2c-0.5,2.1-0.4,4.8-3.2,4.5c0.1,3.2-2.3,5.4-1.7,8.5c0.2,1.4,2,2.5,1.5,4.5
	c0.9,1.1,1.7,2.2,2,3.7c1.8,0.4,2.3,2.1,3.7,2.7c2.4,0.2,4.4-0.6,6.5,0c1.1-0.7,2.1-1.4,3.7-1.5c1.3-1,2.8-3,4.7-2.5
	c-0.4,0.8-1.4,1.1-1.2,2.5c0.8,0.6,2.3,0.4,3.2,0.7c0.7,1.8,3.4,2.8,4.2,0.5c0.1-2.2-0.9-4.5-1.2-6.7c-0.3-1.7-0.8-4.1-0.7-5
	c0.1-1.6,1.7-2.5,1.2-4c-1.6,0.2-2.9-1.9-4.2-2.7c-2.3-0.2-4.2-0.8-5.5-2c-0.8-0.7-2.7-0.3-2.7-1.7c4.6,1.4,10.6,1.4,13.2,4.7
	c1.1-4.8,3.6-9,3.7-14C93.1,36.4,91.9,36.3,90.8,36.3z M94.6,33.3c0.1-0.3-0.2-1-0.2-0.5C94.2,33.2,94.5,33.8,94.6,33.3z M67.1,42.3
	c0.3-0.4,1.7-1.1,1.2-1.5C68.3,41.5,66.1,41.4,67.1,42.3z M60.6,49.3c-0.2,0.8,0.8,0.3,0.7,1c-0.4,0.9-1.3,2.7-0.2,3.5
	c1.1-1.6,0.1-5.4,1.2-7c-0.1,0.5,0.3,0.6,0.2,1c0.9-0.1,1.5-0.5,2-1c-0.6-0.3-0.8-1-1-1.7c-1.6,0.9-1.9-1.1-2.5-2
	C60.1,44.7,62.7,48.2,60.6,49.3z M59.1,49.6c0.9-0.4,1.3-2.5,0.7-3.5C60.1,47.6,58.4,48.3,59.1,49.6z M47.7,49.1
	c-0.1-0.8-1.5-1.5-1.7-1.2C46.5,48.2,46.7,49.9,47.7,49.1z M62.1,59.8c0.1-1.3-0.5-1.8-1.2-2.2C61.1,58.5,61.6,59.2,62.1,59.8z
	 M63.6,66.5c0.7,0.8,1.2,1.8,2,2.5c0.1,0.6-0.7,0.3-0.7,0.7c1.4,0.9,3.4,1.3,5.5,1.5c0.1,0.7-0.9,0.2-1,0.7c2.5,0.2,4.1-0.1,6.2,0.5
	c0,0.3-0.4,0.6,0,0.7c0.9-0.4,2.2-1.3,3-1c-0.1,0.5-0.7,0.5-0.7,1c1.2-0.2,1.7-1.1,3.2-1c0.1,0.5-0.3,0.6-0.2,1
	c0.8,0.1,1.5-1.2,2-0.5c-0.2,0.7-1.4,0.5-1,1.7c2.6-0.6,3.1-5.2,1.2-6.7c-1.7,0.4-2-0.6-3.2-0.7c-2.6,2.2-7.6,2-12.5,2
	C67.6,67.7,64.8,65.5,63.6,66.5L63.6,66.5z M66.9,96.5c-0.1-0.8-0.1-1.7-0.5-2.2C66.3,95.2,66.4,96,66.9,96.5z M67.1,99.2
	c-0.1-0.5,0.2-2.5-0.2-1.7C66.9,97.9,66.7,99.9,67.1,99.2z M68.6,104.7C69.8,106.9,68.6,104.1,68.6,104.7z M70.6,107.7
	C71.5,109.9,70.6,106.9,70.6,107.7z M72.6,111.7c-0.4-0.9-0.6-1.9-1.2-2.5C71.6,110.2,72.1,111,72.6,111.7z M73.4,113.2
	c-0.3-0.3-0.1-1.2-0.7-1.2C72.7,112.4,73.1,113.7,73.4,113.2z M74.6,117.4c0-0.5-0.2-0.8-0.5-1C74,117,74.2,117.4,74.6,117.4z
	 M44.9,119.2c-1.4,1-3,1.8-3.7,3.5c-0.9,0.5-2.6,1.6-2.2,2.5c2.2-2.1,5-3.7,7.2-5.7C45.9,119.2,45.5,119.1,44.9,119.2z M66.1,132.6
	c0.9,0.8,1.6,4,2.2,6c1.8,0,3.9-4.2,4-5.5c0.3-3.6-3.1-7.2-4.5-9.5c-0.1,3.2-0.5,6.1-1.5,8.5c1.5,0.8,3.4,2.4,2.7,4.5
	C67.5,135.9,67.8,133.3,66.1,132.6z M209.6,136.4c-0.7-2-3.1-2.6-4.7-4c-1.1-0.9-1.7-2.2-2.7-3.2c-2.6-2.5-6.6-4.7-10.7-5
	c-5.8-0.4-9.8,2.1-13.2,5.2c3.3-2.5,10.4-1.6,13.7,0.2c-0.4,1.9-1.5,3.2-2.2,4.7c1.7,1.1,3.4,2.1,5.5,2.7c2.7-4.5,8.4-1.4,11.7,0.7
	c-0.7,0.2-0.6-0.4-1.2-0.2c0.2,0.9,1.3,1.7,2,1.2c0.5-0.8-1.2-0.9,0-1C208.6,138.7,209,136.8,209.6,136.4L209.6,136.4z M174.7,128.9
	c-0.5,0.4-1.9,0.6-1.5,1.5c1.5-0.5,2.7-2,4-3c1.4-1,3.1-1.6,3.7-2.7C178.6,125.7,176.3,127.5,174.7,128.9L174.7,128.9z M66.1,131.6
	c-0.2-0.7,0.6-2.1,0-1.5C65.8,130.5,65.2,131.5,66.1,131.6z M51.6,130.4c-0.2,1.4,0.4,2,0.2,0.2c0.4,0,0.6-0.2,0.7-0.5
	C52.2,130.1,52.1,130.4,51.6,130.4z M63.9,131.6c-0.3-0.3-2-0.5-2.2,0C62.4,131.6,63.5,132.7,63.9,131.6z M41.7,133.9
	c2.1-0.2,2.8-0.3,4.2-1.2C44.5,133.1,42.7,133.1,41.7,133.9z M47.2,132.9C48,133.7,47.9,132,47.2,132.9z M35.7,135.1
	c1.1,0.1,3-0.4,2.5-1C37.7,134.9,36,134.3,35.7,135.1z M212.3,137.1c-0.7,0.1-0.8-0.6-1.5-0.5c-0.1,0.5-0.6,0.7-0.5,1.5
	c0.3,0.3,1.2,0.1,1.2,0.7c-0.9,0.2-1.6-1.1-2,0c0.9,0,0.9,0.9,1.7,1c0.4-1.2,1.5-1.8,1.5-3.5c-0.5-0.2-0.7-0.8-1.5-0.7
	C211.3,136.5,212.5,136.1,212.3,137.1z M66.1,136.4C65.9,137.8,67.2,136.5,66.1,136.4z M80.8,138.6c0.6-0.3,0.1-1.6,0.2-2.2h-0.7
	C80.6,137.1,79.8,138.7,80.8,138.6z M189.6,136.4c-3.8,7-7.9,13.6-12,20.2c-2,3.2-3.8,6.4-6,9.5c-1,1.5-2,3.2-3,4.7
	c-1,1.6-2.2,3.2-3,5c2.7,0.3,4.2,1.8,6.7,2.2c0.5-3.1,2.9-5.2,4.2-7.7c0.7-1.4,1-2.9,1.7-4.2c3.6-6.7,7.2-13.4,11-19.7
	c1.6-2.6,3.4-5.3,4-8.5C192.3,137.2,191.5,136.3,189.6,136.4L189.6,136.4z M209.8,141.6c0.5-0.5,0-0.9-0.5-1
	C209.4,141.1,209.5,141.5,209.8,141.6z M27.9,149.6c0.2-0.9-0.8-1.9-1.2-1.2C27.3,148.6,27.1,149.6,27.9,149.6z M25.7,151.9
	c0.7,0.4,1.8,0.4,2.5,0.7c-0.1-1.8-1.8-2-2.2-3.5C25.5,149.6,25.8,150.9,25.7,151.9z M84.1,158.3c-0.4,0-0.1,3.3,0.5,4
	C84.8,160.6,84.1,159.8,84.1,158.3z M29.7,161.3h0.7c0-0.4-0.2-0.6-0.7-0.5V161.3z M162.4,174.8c0.6,0,0.7,0.4,1.5,0.2
	c0-0.4,0.9-1,0.2-1.2C163.8,174.3,162.7,174.2,162.4,174.8z M43.9,191.3c-0.1-0.6-0.3-1.1-0.7-1.5C43.3,190.4,43.5,190.9,43.9,191.3
	z M44.4,192.5C45.5,195.4,44.7,192.1,44.4,192.5z M141,204.3C143,204.9,139.3,203.5,141,204.3z M145.7,205.5
	C144.1,205.2,145.2,206.3,145.7,205.5z M153,207.5c1.5-0.3,5-0.3,5.5-0.7C156.6,207,154.3,206.7,153,207.5z M86.1,212.2
	c0.4,1.7,0.4-1,0.5-0.7c-0.1-0.2-0.7,0.2-0.7,0.2C85.9,211.6,86.1,212.2,86.1,212.2z M86.3,214.2C86.6,212.5,85.8,216.8,86.3,214.2z
	 M85.8,220.5c0-0.6-0.1-1.2-0.5-1.5C85.3,219.7,85.4,220.2,85.8,220.5z M251.3,237.9c-2.3-2.6-3.3-3.9-5.7-6.7
	c-1.1-1.2-2.4-2.8-3.2-3c-0.5-0.1-2,0.3-3,0.2c-3.4-0.1-6.6-0.2-9.7-0.2c-12.9,0-29.3-0.2-41.9,0.2c3.3,4.4,6.7,8.6,10.5,12.5
	c17.1,0.6,38.1,0.1,55.6,0.2C253.7,239.8,252.2,239,251.3,237.9L251.3,237.9z M195.9,240.9C195.6,242.4,196.9,241,195.9,240.9z
	 M198.4,243.2c0-0.2-0.1-1.5-0.2-0.7C197.9,243.4,198.2,243.7,198.4,243.2z M208.1,243.2c0-0.2-0.1-1.5-0.2-0.7
	C207.6,243.4,208,243.7,208.1,243.2z M223.1,245.9c0,1.1-0.4,2.8,0.5,3.2c-0.7-1.8,0.2-5.2-0.5-7C223.1,243.2,223,244.6,223.1,245.9
	z M224.6,245.2c-0.1-0.7,0.2-3.2-0.2-2.7C224.4,243.2,224.1,245.6,224.6,245.2z M225.6,242.9c0.1-0.3-0.2-1-0.2-0.5
	C225.2,242.8,225.5,243.4,225.6,242.9z M251.8,244.9c-0.2-1.7,0.9-3-1.2-2.7v4.5c0.7-0.9-0.2-3.4,0.5-4.2h0.5
	C251.6,243.1,251.3,245.5,251.8,244.9L251.8,244.9z M214.6,246.2c-0.1-1,0.3-3.8-0.2-3.5C214.5,243.6,214.1,246.4,214.6,246.2z
	 M221.8,242.9h0.5v-0.5h-0.5V242.9z M227.8,245.2c-0.1-0.7,0.2-3-0.2-2.5C227.6,243.4,227.3,245.7,227.8,245.2z M234.8,243.2
	c0.1-0.3-0.2-1-0.2-0.5C234.5,243,234.7,243.7,234.8,243.2z M237.3,246.4c-0.1-1,0.3-3.9-0.2-3.7
	C237.2,243.7,236.8,246.6,237.3,246.4z M242.5,247.2c-0.1-1.3,0.3-4.4-0.2-4.5C242.4,244,242,247.1,242.5,247.2z M248.5,243.9
	c-0.4-0.7,0.9-1.5-0.2-1.5C248.4,242.9,248,243.9,248.5,243.9z M249.5,243.7c0-0.3,0-1.8-0.3-1C249.2,243,249.2,244.5,249.5,243.7z
	 M243.5,243.9c0-0.2-0.1-1.5-0.2-0.7C243.1,244.1,243.4,244.4,243.5,243.9z M241.5,244.4c0-0.3,0-1.8-0.2-1
	C241.2,243.8,241.2,245.2,241.5,244.4z M209.1,244.2c0.1-0.3-0.2-1-0.2-0.5C208.8,244,209,244.7,209.1,244.2z M207.6,249.2
	c1-0.8,0.5-4.7,0.2-5.5C207.7,245.5,208.1,247.7,207.6,249.2z M226.8,244.4c0.1-0.3-0.2-1-0.2-0.5
	C226.5,244.3,226.7,244.9,226.8,244.4z M234.5,243.7c0.3,1.9-0.5,5,0.2,5.7C234.6,247.6,235.1,245.1,234.5,243.7z M203.6,245.2
	c0-0.2-0.1-1.5-0.2-0.7C203.1,245.4,203.5,245.7,203.6,245.2z M211.6,249.2c-0.6-1,0.1-4.6-0.5-4.7
	C211.4,245.9,210.5,248.5,211.6,249.2z M212.6,246.4c-0.1-0.5,0.2-2.7-0.2-2C212.4,245,212.1,247.1,212.6,246.4z M225.6,245.2
	c0-0.2-0.1-1.5-0.2-0.7C225.1,245.4,225.4,245.7,225.6,245.2z M243.5,249.2c-0.1-1.3,0.3-4.4-0.2-4.5
	C243.4,246,243,249.1,243.5,249.2z M249.5,245.9c0-0.4,0.1-2-0.3-1.2C249.3,245,249.2,246.7,249.5,245.9z M198.4,247.2
	c-0.1-0.6,0.2-2.9-0.2-2.2C198.2,245.5,197.9,247.8,198.4,247.2z M205.8,249.2c0-0.4,0.2-4.3-0.2-4.2
	C205.8,246.3,205.3,248.2,205.8,249.2z M233.3,244.7c0.3,1.6-0.5,4.3,0.2,4.7C233.5,248.7,233.8,245.8,233.3,244.7z M236,249.4
	c0-0.5,0.2-4.5-0.2-4.5C236,246.3,235.5,248.4,236,249.4z M209.1,248.2c-0.1-0.8,0.3-3.4-0.2-3C209,246,208.6,248.6,209.1,248.2z
	 M213.1,249.2c1-0.1,0.5-4.1,0.2-3.7C213.3,246.7,213.5,248.2,213.1,249.2z M240.8,248.9c-0.7-0.5,0.2-3.8-0.5-3.5
	C240.5,246.4,239.8,249.5,240.8,248.9z M251.8,247.2c0-0.4,0.1-2.3-0.2-1.5C251.5,246.1,251.4,247.9,251.8,247.2z M252.5,249.4
	c0.7,0,0.5-0.4,1,0c0.4-0.5,0-1.8-0.2-1.7c-0.4,0.1,0.6,1.3-0.5,1c-0.2-1,0.3-2.7-0.2-3.2V249.4L252.5,249.4z M253.5,246.7
	c0-0.3,0-1.8-0.2-1C253.2,246,253.2,247.5,253.5,246.7z M221.1,246.4c0.1-0.3-0.2-1-0.2-0.5C220.8,246.3,221,246.9,221.1,246.4z
	 M222.1,246.4c0.1-0.3-0.2-1-0.2-0.5C221.7,246.3,222,246.9,222.1,246.4z M248.5,249.4c0.1-0.2,0.2-3.7-0.2-3.5
	C248.6,247.2,247.7,249.2,248.5,249.4z M225.6,249.4c0.1-0.1,0.1-3.3-0.2-3C225.5,247.3,225,248.9,225.6,249.4z M227.8,246.9
	c0.1-0.3-0.2-1-0.2-0.5C227.5,246.8,227.7,247.4,227.8,246.9z M250.5,249.4c0.6-0.5,1.2,0.5,1.2-0.5c0.1-0.7-0.9,0.6-1-0.2
	c0-0.4,0.1-2-0.2-1.2C250.5,248.1,250.5,248.8,250.5,249.4L250.5,249.4z M215.8,249.2c-0.3-0.4,0-1.5-0.5-1.7
	C215.5,248,214.9,249.4,215.8,249.2z M204.9,248.7c-0.7,0.2,0.2-1.2-0.5-1C204.2,248.2,204.4,249.5,204.9,248.7z M218.1,249.2
	c-0.2-0.4-0.1-1.2-0.5-1.5C217.7,248.2,217.2,249.4,218.1,249.2z M224.6,249.4c0.3,0,0-2.1-0.2-1.5
	C224.5,248.8,223.7,249.2,224.6,249.4z M227.8,248.9c0-0.3,0-1.8-0.2-1C227.5,248.2,227.5,249.7,227.8,248.9z M232.3,249.2
	c0-0.4,0.1-2-0.2-1.2C232,248.3,232,250,232.3,249.2z M241.5,249.4c-0.1-0.5,0.3-1.6-0.2-1.7C241.6,248.6,240.6,249.2,241.5,249.4z
	 M247.5,249.4c0.4-0.4,0.1-1.3-0.2-1.7C247.4,248.2,247,249.3,247.5,249.4z M198.4,249.2c0.3-0.3,0.1-0.9-0.2-1.2
	C198.3,248.3,197.8,249.2,198.4,249.2z M220.1,248.9c-0.7,0.2,0.2-1.2-0.5-1C219.4,248.4,219.6,249.8,220.1,248.9z M242.5,249.4
	c-0.1-0.4,0.3-1.5-0.2-1.5C242.5,248.8,241.6,249.2,242.5,249.4z M203.6,248.9c0.1-0.3-0.2-1-0.2-0.5
	C203.3,248.8,203.5,249.4,203.6,248.9z M199.4,248.9h0.5v-0.5h-0.5V248.9z M200.6,248.9h0.5v-0.5h-0.5V248.9z M214.1,249.2h0.5
	c0.2,0,0.3,0,0.2-0.2c-0.3,0-0.2-0.4-0.5-0.5C214.3,248.7,214,248.8,214.1,249.2z M218.6,248.4C218.4,249.9,219.7,248.6,218.6,248.4
	z M221.8,248.4C221.6,249.9,223,248.6,221.8,248.4z M212.8,248.9c-0.3,0-0.3-0.3-0.7-0.2C211.7,249.3,212.9,249.4,212.8,248.9z
	 M216.3,249.2h0.5v-0.5h-0.5V249.2z M228.6,249.2h0.5v-0.5h-0.5V249.2z M249,249.4h0.5c0.3-0.4,0.3-0.6-0.3-0.7
	C249.3,249,249.1,249.2,249,249.4z"/>
<path d="M3.5,234.4c-0.7-0.1-0.5-1.9-0.2-3c0.3-1.4,1-3.1,1.5-4.5c0.9-2.7,1.9-6,3.2-8.7c0.6-1.2,1.6-2.2,2.2-3.5
	c1.6-3.3,1.8-7.2,4.2-10c1.5,3.2-1.7,6.4-2.7,8.7c1.6,1.5,4.1,2.2,5.5,4c0.6-0.1,1.8-0.4,2.5,0c-0.3,0.9-1.6,0.5-2,0.5
	c-1.8-0.2-3.7-2.4-5.5-2.2c-2.1,0.2-3.1,3.2-4,5.5c-0.3,0.8-0.9,1.5-1,2c-0.6,2.3-0.5,4.7-1.2,6.7c-0.3,0.8-1,1.3-1.2,2
	C4.4,232.8,4.7,234.3,3.5,234.4L3.5,234.4z"/>
</svg>
