<?xml version="1.0" encoding="utf-8"?>
<!-- Generator: Adobe Illustrator 17.0.0, SVG Export Plug-In . SVG Version: 6.00 Build 0)  -->
<!DOCTYPE svg PUBLIC "-//W3C//DTD SVG 1.1//EN" "http://www.w3.org/Graphics/SVG/1.1/DTD/svg11.dtd" [
	<!ENTITY ns_flows "http://ns.adobe.com/Flows/1.0/">
	<!ENTITY ns_extend "http://ns.adobe.com/Extensibility/1.0/">
	<!ENTITY ns_ai "http://ns.adobe.com/AdobeIllustrator/10.0/">
	<!ENTITY ns_graphs "http://ns.adobe.com/Graphs/1.0/">
]>
<svg version="1.1" id="Layer_1" xmlns:x="&ns_extend;" xmlns:i="&ns_ai;" xmlns:graph="&ns_graphs;"
	 xmlns="http://www.w3.org/2000/svg" xmlns:xlink="http://www.w3.org/1999/xlink" xmlns:a="http://ns.adobe.com/AdobeSVGViewerExtensions/3.0/"
	 x="0px" y="0px" width="1082px" height="1280px" viewBox="0 0 1082 1280" style="enable-background:new 0 0 1082 1280;"
	 xml:space="preserve">
<g transform="translate(0.000000,1280.000000) scale(0.100000,-0.100000)">
	<path d="M3230,12789c-406-40-836-193-1252-445c-151-92-352-232-371-258c-24-35-47-102-47-140c0-25-19-53-96-141
		c-253-289-278-315-356-367l-79-51l-33,16c-37,17-71,13-141-17c-22-10-103-40-180-68c-296-106-457-187-563-283
		c-58-52-112-132-112-164c0-30,26-68,304-446c153-208,255-358,292-427c63-119,125-190,198-227c85-42,147-7,361,199
		c77,74,198,184,268,243c148,126,182,170,174,222c-5,32-2,38,46,78c97,81,226,143,386,186l146,39l155-18c143-16,164-21,273-66
		l118-49l158-175c353-392,812-1021,1337-1830c321-495,343-533,1212-1970c294-487,561-922,594-967l59-82l-9-66l-9-66l111-157
		c62-86,197-283,301-437c380-564,556-811,935-1315c625-833,1100-1512,1283-1835c66-115,184-314,262-441c130-210,145-239,164-316
		c36-155,54-321,46-452c-5-94-3-140,11-212l17-93l71-74l71-74l127-22l127-22l154,55c233,84,433,200,662,384c99,79,219,182,267,228
		c76,73,90,92,118,162l33,80l-22,94c-19,84-29,106-96,205c-51,76-129,169-253,301c-163,174-189,207-301,381c-83,129-178,298-291,519
		c-92,180-262,491-379,692c-179,306-274,455-601,935c-562,823-700,996-1763,2213l-842,962l-10-62l-10-62l-42,49c-38,45-43,55-43,102
		c0,51-1,53-129,210c-548,676-1058,1374-1916,2623c-153,223-355,513-450,645c-236,331-276,397-345,572c-57,146-59,155-68,284
		l-10,134l57,103c48,90,69,116,151,192c83,77,110,94,199,134c58,26,162,62,233,81c123,34,136,35,298,35c265,0,333-14,678-136
		c161-57,296-104,301-104c4,0,17,14,29,30c20,26,29,30,71,30c62,0,103,28,143,97l29,52l-128,64c-557,280-1000,428-1468,492
		C3709,12794,3357,12802,3230,12789z M3845,12629c130-16,411-72,422-82c2-2-41-7-94-10c-97-5-304-43-504-91c-177-43-356-151-446-270
		c-165-218-198-509-92-816c66-192,170-369,428-728c97-136,291-413,431-617c838-1222,1337-1907,1878-2580c80-99,149-185,154-191
		c5-7,2-163-7-374c-8-199-15-387-15-418c0-36-3-53-10-46c-5,5-664,963-1465,2129c-800,1166-1473,2140-1494,2165
		c-90,106-195,153-440,195c-85,14-175,33-200,42c-25,8-101,50-167,94c-155,101-244,143-303,143c-41,0-74-16-314-152
		c-293-168-297-171-297-262c0-60,42-175,100-270l39-65l-33-30c-19-16-76-66-127-110c-52-43-157-140-235-215c-78-74-155-143-172-153
		l-31-18l-39,35c-22,21-61,78-93,138c-31,57-98,162-151,233c-52,72-165,226-251,343c-86,118-157,218-157,222c0,36,137,137,267,196
		c72,33,498,194,513,194c4,0,28-32,54-71c58-86,120-155,159-175c59-31,94-22,314,80c114,53,226,107,247,119c97,54,105,148,36,412
		c-37,140-44,186-45,261c0,111-1,109,142,205c502,337,952,514,1423,559C3401,12662,3665,12653,3845,12629z M7115,6035
		c925-1058,1110-1293,1650-2085c321-471,412-613,600-935c121-209,293-522,381-695c108-212,201-378,285-509c114-179,138-210,307-389
		c275-293,357-431,322-538c-19-57-110-146-325-319c-230-184-417-296-619-369c-71-25-139-46-152-46c-12,0-56,7-96,15
		c-65,14-77,20-110,58c-45,53-52,88-49,277c3,166-17,344-55,494c-24,94-34,114-169,330c-78,127-198,328-265,446
		c-190,335-716,1088-1325,1895c-340,452-571,777-940,1325c-87,129-200,294-251,365l-92,130l33,230c19,127,55,424,80,660
		c51,487,53,501,65,489C6394,6859,6721,6486,7115,6035z"/>
	<path d="M6524,6006c-46-46-44-74,15-176c43-76,2685-4061,2729-4119l19-24l43,46c80,88,179,137,324,163c44,8,81,16,84,19
		c4,3-2871,3880-2990,4031C6669,6047,6587,6069,6524,6006z"/>
	<path d="M9557,1593c-2-2,8-56,24-121c15-64,41-179,59-254l32-138l38-11l39-12l123,88c68,49,124,89,125,90c1,0,5,19,8,41l7,40
		l-183,134c-146,107-191,135-226,140C9580,1594,9559,1595,9557,1593z"/>
</g>
</svg>
