<?xml version="1.0" encoding="utf-8"?>
<!-- Generator: Adobe Illustrator 22.1.0, SVG Export Plug-In . SVG Version: 6.00 Build 0)  -->
<svg version="1.1" id="Layer_1" xmlns="http://www.w3.org/2000/svg" xmlns:xlink="http://www.w3.org/1999/xlink" x="0px" y="0px"
	 viewBox="0 0 256 256" style="enable-background:new 0 0 256 256;" xml:space="preserve">
<path style="fill:#FFD15F;stroke:#886B31;stroke-width:5;stroke-linecap:round;stroke-linejoin:round;stroke-miterlimit:10;" d="
	M235.9,152.8c0,0,11.9,5.4,12.3,20.2c0.4,14.8,0,26.5-6.1,27.8C235.9,202.1,217.2,170.5,235.9,152.8z"/>
<path style="fill:#FFD15F;stroke:#886B31;stroke-width:5;stroke-linecap:round;stroke-linejoin:round;stroke-miterlimit:10;" d="
	M125.4,115.7c0,0-21.3-22,2.5-42.2s36.1-20.5,41.5-15.2c5.4,5.4,36.2,29.1-15.2,57.4C139.2,124,125.4,115.7,125.4,115.7z"/>
<path style="fill:#D6AD63;stroke:#886B31;stroke-width:5;stroke-linecap:round;stroke-linejoin:round;stroke-miterlimit:10;" d="
	M169.5,58.3c0,0,26.7,23.8,38.3,57.4c11.6,33.6,12.3,44.4,12.3,44.4l-75.1-5.8c0,0-17.3-31.1-19.5-38.6c0,0,31-4.6,47.3-19.8
	S169.5,58.3,169.5,58.3z"/>
<path style="fill:#D6AD63;stroke:#886B31;stroke-width:5;stroke-linecap:round;stroke-linejoin:round;stroke-miterlimit:10;" d="
	M11.2,171c-0.6,3.7,1.4,7.2,4.8,8.7c13.1,5.6,46.2,19.5,58.9,22.3c15.9,3.5,165.3,0,165.3,0s-23.1-20.3-4.3-49.2h-41.1
	c0,0-28.2-11.6-57-8.7c0,0-29.6-7.9-38.3-7.9s-24.5,2.2-32.5,0c-5.7-1.6-20.8-5.7-28.8-8c-3.2-0.9-6.6,0.3-8.6,2.9
	C24.1,138.5,13.8,154,11.2,171z"/>
<path style="fill:#D6AD63;stroke:#886B31;stroke-width:5;stroke-linecap:round;stroke-linejoin:round;stroke-miterlimit:10;" d="
	M56.1,171.6c0,0,19.9,10.5,39.3,11.2c19.5,0.7,30,0,30,0"/>
<path style="fill:#D6AD63;stroke:#886B31;stroke-width:5;stroke-linecap:round;stroke-linejoin:round;stroke-miterlimit:10;" d="
	M103.1,174.1c0,0,27.4,2.5,35,0"/>
<path style="fill:#D6AD63;stroke:#886B31;stroke-width:5;stroke-linecap:round;stroke-linejoin:round;stroke-miterlimit:10;" d="
	M183.6,128c0,0,13.3,13.3,15.9,23.1"/>
<path style="fill:#D6AD63;stroke:#886B31;stroke-width:5;stroke-linecap:round;stroke-linejoin:round;stroke-miterlimit:10;" d="
	M183.6,102.7c0,0,5.4,7.2,10.4,20.2"/>
</svg>
