<?xml version="1.0" encoding="utf-8"?>
<!-- Generator: Adobe Illustrator 17.0.0, SVG Export Plug-In . SVG Version: 6.00 Build 0)  -->
<!DOCTYPE svg PUBLIC "-//W3C//DTD SVG 1.1//EN" "http://www.w3.org/Graphics/SVG/1.1/DTD/svg11.dtd" [
	<!ENTITY ns_flows "http://ns.adobe.com/Flows/1.0/">
	<!ENTITY ns_extend "http://ns.adobe.com/Extensibility/1.0/">
	<!ENTITY ns_ai "http://ns.adobe.com/AdobeIllustrator/10.0/">
	<!ENTITY ns_graphs "http://ns.adobe.com/Graphs/1.0/">
]>
<svg version="1.1" id="Layer_1" xmlns:x="&ns_extend;" xmlns:i="&ns_ai;" xmlns:graph="&ns_graphs;"
	 xmlns="http://www.w3.org/2000/svg" xmlns:xlink="http://www.w3.org/1999/xlink" xmlns:a="http://ns.adobe.com/AdobeSVGViewerExtensions/3.0/"
	 x="0px" y="0px" width="256px" height="256px" viewBox="0 0 256 256" style="enable-background:new 0 0 256 256;"
	 xml:space="preserve">
<pattern  x="0.5" y="256.5" width="256" height="205.1" patternUnits="userSpaceOnUse" id="SVGID_1_" viewBox="0 -205.1 256 205.1" style="overflow:visible;">
	<g>
		<polygon style="fill:none;" points="0,0 256,0 256,-205.1 0,-205.1 		"/>
		<g>
			<polygon style="fill:none;" points="0,0 256,0 256,-205.1 0,-205.1 			"/>
		</g>
	</g>
</pattern>
<path shape-rendering="auto" image-rendering="auto" color-rendering="auto" d="M127.9,33.4C94.3,34,60.5,35.9,30.7,52.1
	C20.2,58.1,9.4,67.5,8,80c-0.3,21.3,1.1,44,7.4,64.8c8.2,23.9,29,41.5,51.4,51.4c0,6.5-2.6,15.6,5.4,18.5c27.3,8.8,56.8,8.5,85,6
	c9.4-1.7,19.3-2.8,28.1-6.8c6.3-4,3.4-11.6,3.7-17.6c26.4-11.6,45.7-36.9,51.1-65.1c3.1-16.2,5.4-32.7,7.1-48.6
	c-2.6-19.6-21-29.3-37.8-35.8C184.1,36.2,155.7,33.7,127.9,33.4L127.9,33.4z M128.4,36.8c33.5,0.3,69.3,3.7,98.3,21.6
	c8,5.1,15.6,14.8,16.8,24.2c-6,18.8-28.7,26.1-45.7,31c-36.4,9.7-75,11.6-112.2,4.8c-22.4-4-46.3-8.2-63.4-24.7
	c-4.3-5.1-11.6-13.9-7.4-20.7C23,55.5,44.3,48.7,61.4,43.6C83,37.9,106.3,36.8,128.4,36.8L128.4,36.8z M127.3,42.8
	c-27.6,0.3-55.4,2-81,12.5c-9.9,5.1-20.5,11.9-23.6,23.3c4.8,14.2,20.5,20.2,33.2,25.3c43.8,13.9,91.5,13.9,136.1,3.1
	c13.4-4.5,29-7.4,38.6-18.5c6.8-8.2-1.7-18.2-8.2-23.6c-17.6-14.5-41.2-15.9-63.4-19.6C148.6,43.6,138.1,42.8,127.3,42.8L127.3,42.8
	z M127.9,46.2c27,0.6,55.7,4,80.4,14.5c8,4.5,17.3,11.9,18.5,21.9c-5.7,9.9-18.5,11.9-28.1,15.9C162,109.5,122.7,111,85,104.7
	C66.8,101,47.2,97,33.5,84c-8.5-8.8,5.4-18.8,12.2-22.7C67.1,51,92.1,48.2,115.4,46.5C119.3,46.2,123.9,46.2,127.9,46.2L127.9,46.2z
	 M13.1,91.1c1.7,2.3,3.7,4.5,6,6.5c0.3,2.6,4.3,34.7,14.2,54.3c11.4,22.4,38.1,38.4,53.4,44.6c0.6,0.9,1.4,1.4,2.3,2
	c-27.6-7.1-56.3-26.7-66.8-54.3C16.8,128.3,13.6,107.8,13.1,91.1L13.1,91.1z M241.8,103.8c-3.1,20.7-9.1,44-23,60.8
	c-4,5.7-11.6,13.6-19.6,18.8c-15.1,9.9-32.1,15.3-32.1,15.3l2.3-2c0,0,41.2-21.6,52.6-44c9.4-18.8,13.9-46.3,14.5-50.6
	c2-2,5.7-7.1,6.8-9.7C242.9,96.7,242.6,100.2,241.8,103.8L241.8,103.8z M23.6,101.3c13.9,11.1,32.7,15.9,48.9,20.2
	c19,4.3,36.7,5.4,56.3,6.3c38.9-0.6,83.5-8.5,103.1-22.2c-1.4,10.5-5.4,31.8-12.2,45.7c-9.4,19-48.6,41.8-48.6,41.8
	c3.4-3.1-8-10.5-17.9-12.2c-19.6-3.1-40.3-3.1-59.7,2.6c-3.7,0.6-7.4,4-6.5,9.7c-8-1.4-41.5-23.9-51.1-42.9
	C28.1,135.4,24.7,111.5,23.6,101.3L23.6,101.3z M128.4,181.4c12.8,0.6,27,1.7,38.1,8.5c-1.7,10.8-19.9,9.9-29.3,11.1
	c-14.2,0.3-29.3,1.1-42.3-4.5c-15.3-8,8.8-13.6,15.9-13.9C116.8,182,122.5,181.4,128.4,181.4L128.4,181.4z M71,198.2
	c18.8,6.5,40.1,8,61.1,7.7c18.2-0.3,36.4-1.4,52.8-7.1c1.7,7.1-0.3,11.9-11.6,13.9c-24.7,4.3-50,5.7-74.7,2.8
	c-8.8-1.1-26.1-1.1-27.6-11.1C71,202.4,70.7,199.6,71,198.2L71,198.2z"/>
<path style="fill:none;stroke:#000000;stroke-width:0.3543;" d="M144.6,209.3c-4.5,1.7-2.3,5.1,0,5.1c0,0,13.6-0.6,20.2-2.3
	c6.8-1.7,18.8-9.9,18.8-9.9s-14.5,6-21.9,6.8C156,209.8,144.6,209.3,144.6,209.3z"/>
<path shape-rendering="auto" image-rendering="auto" color-rendering="auto" d="M194.1,51.3c-1.1,19.9-4.8,37.8-8.2,55.7l18.2-5.7
	c4.5-13.1,8.2-26.7,10.8-40.9L194.1,51.3z M196,54.7l16.2,7.1c-1.4,13.1-4.8,25.6-9.4,37.5l-14.8,4.3
	C190.9,87.7,194.1,72.6,196,54.7L196,54.7z"/>
<path shape-rendering="auto" image-rendering="auto" color-rendering="auto" d="M194.9,116.1l-2.3,0.6l-19,3.7v1.1
	c0.9,17.3-8.5,43.8-8.5,43.8c-0.6,1.4-0.6,1.7,0,1.7c0.6,0.3,0.9-0.6,1.4-1.1c1.1-1.1,20.7-31.3,27.6-47.4L194.9,116.1z
	 M190.9,119.5c-5.7,13.4-16.5,34.9-24.7,45.5c3.7-10.8,10.2-28.1,9.9-42.6L190.9,119.5z"/>
<path shape-rendering="auto" image-rendering="auto" color-rendering="auto" d="M38.4,115.8c-1.1,0-2,0.6-3.1,1.4
	c-2,1.7-3.1,3.7-3.4,5.4c-0.6,2-0.6,3.7-0.6,5.7c0,5.4,2.3,9.9,4.8,15.3c2,4,4.8,8,8.5,10.2c1.4,0.9,2.8,2,4.5,2.6
	c1.7,0.6,4,0.6,6-0.9s2.8-2.8,3.1-4.3s0-2.8,0.3-4.3c0.3-6-2.3-12.2-4.5-17c-1.7-4-4.8-8-8.2-10.2c-1.1-0.9-2.6-2-4.3-2.8
	C40.6,116.1,39.5,115.8,38.4,115.8L38.4,115.8z M38.6,118.1c0.6,0,1.1,0,1.7,0.3c1.1,0.6,2.6,2,4,2.8c3.1,2,6,5.7,7.7,9.4
	c2.3,5.1,4.5,10.8,4.3,16.2c0,1.4,0,2.8,0,3.7c-0.3,1.1-0.6,2-2.3,2.8c-1.4,1.1-2.6,0.9-4,0.6c-1.4-0.6-2.8-1.4-4.3-2.3
	c-3.1-2-5.7-5.4-7.7-9.4c-2.6-5.1-4.5-9.4-4.5-14.2c0-2,0-3.4,0.6-5.1c0.3-1.4,1.1-2.8,2.8-4.3C37.5,118.3,38.1,118.1,38.6,118.1
	L38.6,118.1z"/>
<pattern  id="SVGID_2_" xlink:href="#SVGID_1_" patternTransform="matrix(1.8758 0 0 1.8758 -703.2119 45405.6211)">
</pattern>
<path style="fill:url(#SVGID_2_);" d="M211.7,113.8c-4,34.4-17.6,58.5-48.3,76.7c-12.2,7.4-24.2,9.4-38.6,13.4
	c13.1-0.6,21.9,0.3,33.8-2c4.3-0.9,6.8-1.7,9.4-6c4.8-2.6,13.1-6.3,17.3-9.7c11.1-8.5,23.6-16.5,31.8-27.8
	c7.1-9.9,10.5-22.7,13.4-34.7c1.7-7.4,2.8-20.2,2.8-20.2C227.6,107.5,219.6,111.2,211.7,113.8L211.7,113.8z"/>
</svg>
