<?xml version="1.0" encoding="utf-8"?>
<!-- Generator: Adobe Illustrator 17.0.0, SVG Export Plug-In . SVG Version: 6.00 Build 0)  -->
<!DOCTYPE svg PUBLIC "-//W3C//DTD SVG 1.1//EN" "http://www.w3.org/Graphics/SVG/1.1/DTD/svg11.dtd" [
	<!ENTITY ns_flows "http://ns.adobe.com/Flows/1.0/">
	<!ENTITY ns_extend "http://ns.adobe.com/Extensibility/1.0/">
	<!ENTITY ns_ai "http://ns.adobe.com/AdobeIllustrator/10.0/">
	<!ENTITY ns_graphs "http://ns.adobe.com/Graphs/1.0/">
]>
<svg version="1.1" id="Layer_1" xmlns:x="&ns_extend;" xmlns:i="&ns_ai;" xmlns:graph="&ns_graphs;"
	 xmlns="http://www.w3.org/2000/svg" xmlns:xlink="http://www.w3.org/1999/xlink" xmlns:a="http://ns.adobe.com/AdobeSVGViewerExtensions/3.0/"
	 x="0px" y="0px" width="256px" height="256px" viewBox="0 0 256 256" style="enable-background:new 0 0 256 256;"
	 xml:space="preserve">
<path style="fill:none;stroke:#000000;stroke-miterlimit:10;" d="M28.3,110.3c-1,0.3-2.1,0.8-2.6,1.3c-0.5,0.5-0.5,1.9-0.9,1.9
	c-0.8,0-1.8-1.8-2.9-1.8c-1.2-0.1-2.8,1.3-4,1.3c-1.3,0-2.4-0.4-3.3-1.3c-1-1.2-1.4-4-2.7-4.5c-1.3-0.4-4.1,1.5-5.5,1.4
	c-1.4-0.5-1.9-2.8-2.8-3.3s-2.3-0.6-3.6-0.1c-0.4,4.2,0.4,9.4,2.8,15.9c2.4,6.5,8.8,17.8,11.4,22.9c2.6,4.9,3.6,6.9,3.5,6.3
	c-2.9,2.3-5.1,4.5-6.7,6.5c-1.5,1.9-2.1,3.8-2.4,5.9c-0.6,2.1-1,6.3-0.4,6.9c0.8,0.6,3.3-3.1,4.5-2.8c0.8,0.4,0.5,4,1.8,4.5
	c1.4,0.4,4.7-2.4,6.5-2.1c1.7,0.4,2.4,3.5,3.8,3.5c1.3-0.3,3.1-4.9,4.5-4.5c1.3,0.5,2.4,6,3.5,6.5c0.9,0.3,0.8-4.6,2.1-4.5
	c1.3,0,3.6,4.2,5.3,4.9c1.4,0.3,2.3-2.4,3.1-2.4c0.8,0,1,1,1,2.8c-2.4,4.2-5.9,7.2-10.1,9.4c-4.5,2.2-15.9,1.5-15.6,3.1
	c0.4,1.4,11.4,4.5,17.7,5.3c6.3,0.6,12.6,0.4,19.5-1c0.3,2.3,0.8,3.7,1.8,4.2c0.9,0.4,2.3-2.2,3.8-1.4c1.4,0.8,3.2,5.9,5.3,5.9
	c1.9-0.1,4-6.9,6.5-6.9c2.4-0.1,6.4,5.4,8.3,5.9c1.8,0.4,2.7-0.8,2.4-3.5c1.2,5.5,2.6,8.5,4.1,9.1c1.5,0.5,2.7-4.2,4.9-6.3
	c2.2-2.2,5-4,8.3-5.9c6.7-1.4,11.8-2.3,16-2.8c4.1-0.5,7.1-0.5,8.7,0c-0.6,1.8,0.8,3.1,4.5,3.8c3.8,0.6,12.6,0.8,17.4,0.4
	c4.6-0.6,7.8-1.4,10.4-3.5c2.4-2.3,5.1-5.4,4.5-9.4c-0.6-4.2-3.5-9-8.3-15l10.8-0.6c0.1,2.6,1,4.1,2.4,4.5c1.4,0.3,4.6-2.8,5.9-2.4
	c1,0.4-0.4,4.5,1,4.9c1.2,0.1,4.6-4,6.5-3.5c1.8,0.5,3.1,5.5,5.3,6.3c2.2,0.4,6.7-0.6,7.7-2.8c0.9-2.2,0.1-5.1-2.1-9.4
	c6.2,2.6,12.9,4,20.9,4.1c8.1,0,21.4-1.7,26.4-3.1c4.7-1.7,0.9-3.8,2.1-5.5c1-1.8,3.8-1.8,4.5-4.2c0.5-2.4-1.8-8.3-1.4-9.7
	c0.3-1.5,2.7,2.3,3.5,1c0.8-1.4,0-6.4,1.4-8.7c1.3-2.3,5.9-2.9,6.3-4.5c0.1-1.8-4.7-3.3-4.9-4.9c-0.1-1.4,3.5-2.3,3.8-3.8
	c0.3-1.8-1.9-3.8-1.8-5.5c0.1-1.8,2.8-3.3,2.4-4.9c-0.6-1.8-4.9-2.7-5.5-4.5c-0.8-1.9,5.8-3.8,1.4-6.3c-4.6-2.3-13.7-4.9-28.2-7.7
	c3.6-3.8,4.4-6.4,1.7-7.7c-2.8-1.3-10.1,0.8-17.4,0c-7.4-0.9-18.1-2.7-26-5.3S166.1,77,159.9,73c6.8-5.9,10.9-10,12.6-12.6
	c1.4-2.4-2.6-1.3-3.1-2.4c-0.5-1.3,0.8-4.7,0-5.3c-0.9-0.5-3.6,2.3-5.3,2.4c-1.7,0-3.1-2.2-4.9-2.1c-1.9,0.1-4,2.6-5.9,2.4
	c-1.9-0.4-2.9-5-5.9-4.5c-3.1,0.5-7.1,2.6-12.2,6.9c-0.9-4.5-2.1-7.1-3.5-7.7c-1.7-0.6-3.8,3.3-5.3,3.8c-1.5,0.4-2.4-2.3-3.1-1.4
	s-0.3,5.6-1.4,6.5c-1.7,0.8-6-1.8-7.3-1s0.4,4.2-0.4,5.3c-0.9,0.9-2.3,0.9-4.5,0c-1-2.7-3.2-3.6-6.5-2.4c-3.5,1.2-7.9,4.1-14,9.1
	c-2.1-2.3-4-3.6-5.5-3.8C82,66,81.1,69,79.6,68.4c-1.7-0.9-3.6-6-4.9-6.3c-1.4-0.1-1.5,5.1-2.8,5.3c-1.4-0.4-2.9-6.3-5.3-5.9
	c-2.3,0.5-5,3.5-8.3,9L49,58.6c-2.7,3.6-4.5,6.5-5.3,9.1c-0.9,2.4-0.6,4.2,0.4,5.6c-2.3,1.2-4.1,1.7-5.6,1.4
	c-1.5-0.5-2.4-2.9-3.1-3.1c-0.6-0.3-0.5,2.4-1.4,2.4c-1.2-0.1-3.6-2.6-4.9-2.8c-1.3-0.1-1.4,1.7-2.8,1.7c-1.5-0.1-4.9-2.1-6.3-1.7
	c-1.5,0.3-2.9,2.1-2.8,3.8c0.1,1.5,1.3,3.8,3.5,6.3c-5.6,2.8-9,5.5-10.4,7.9s-1,4.7,1.8,6.9c2.7,2.2,11.4,3.8,14.2,6.3
	C29.5,104.9,30,107.5,28.3,110.3L28.3,110.3z"/>
<path style="fill:none;stroke:#000000;stroke-miterlimit:10;" d="M38.6,148.9c-10.3-3.1-15.6-3.1-18.8-5.3c-3.2-2.3-1.8-7.1-0.6-8.1
	c0.9-0.9,4.7,2.8,6.3,2.2c1.3-1.2,0.5-6.5,1.8-7.7s4,2.4,5.9,1.4c1.8-1.5,3.5-7.1,4.9-8.7c1.2-1.4,1.8,1,3.1,0
	c1.4-1.3,3.2-6.8,5.3-7.7c1.8-1,4.2,2.7,5.6,1.8c1.2-1.2,1-6.5,2.4-8.1c1.5-1.5,4.2,0.6,6.9-0.6c2.3-1.5,3.8-6.4,7.7-7.7
	c4-1.3,12.1,0.4,15.6,0c3.3-0.5-0.6-3.2,4.9-3.1c5.5,0,21.3,1,28.5,3.5c6.9,2.4,11.2,8.3,14.2,10.8c3.1,2.2,3.6,1.9,4.9,3.1
	c1.2,1.3,1.4,2.8,2.1,4.2c0.6,1,1.3,1.3,1.4,2.8c-0.3,1.7-2.6,4.7-2.1,6.5c0.5,1.7,4.1,2.6,4.9,3.8c0.5,1.3-1.3,2.4-1,4.1
	c0.5,1.5,3.1,3.3,3.1,5.3c-0.3,1.5-3.5,2.9-3.8,4.9s2.2,5.3,1.8,6.9c-0.6,1.5-4.5,1-4.9,3.1c-0.5,2.1,2.4,6.7,2.4,9.1
	c-0.1,2.2-2.1,2.4-2.4,4.5c-0.5,1.9,0.8,5.6,0,7.3c-0.8,1.4-3.2,1-4.5,2.2c-1.3,1,1.3,4.2-3.5,4.1c-5-0.3-17.6-1.7-25.8-5.3
	c-8.5-3.7-12.6-11.4-23.6-16.3C69.7,157,49.1,152.1,38.6,148.9L38.6,148.9z"/>
<path style="fill:none;stroke:#000000;stroke-miterlimit:10;" d="M27.4,138.8c1.7,0.4,12.9,1.9,21.2,4c7.8,1.8,12.8,4.1,26.8,7.9
	c14.2,4,49.7,14,57.2,15.8c6.9,1.5-5.4-3.1-14.7-6c-9.7-3.1-28.2-7.6-41.5-11c-13.3-3.6-28.8-7.9-37-9.7
	C30.9,138,26,138.1,27.4,138.8z"/>
<path style="fill:none;stroke:#000000;stroke-miterlimit:10;" d="M94.2,163.5c0.4,0.4,26.2,11.4,31.3,13.2c4.7,1.7,3.6-0.5-1.7-2.8
	C118.4,171.5,94,163.1,94.2,163.5z"/>
<path style="fill:none;stroke:#000000;stroke-miterlimit:10;" d="M37.6,130.8c1.8,0.5,24.9,7.7,34.5,10c9.2,2.4,22.7,5.1,21.3,4.5
	c-1.8-0.8-21.5-5.9-31-8.3S36,130.2,37.6,130.8z"/>
<path style="fill:none;stroke:#000000;stroke-miterlimit:10;" d="M50.1,124.9c19,4.6,29.5,6.9,32,7.3c2.3,0.1-11.4-4.2-17.4-5.6
	c-6-1.4-12.2-2.2-18.5-2.4C46.3,124.2,50.1,124.9,50.1,124.9z"/>
<path style="fill:none;stroke:#000000;stroke-miterlimit:10;" d="M96.4,125.6c-0.3,0.3,15.1,4.9,22.2,7.1c6.9,1.9,18.7,5,19.1,4.9
	c0.1-0.4-11.2-4.2-18.1-6.3C112.6,129,96.5,125.3,96.4,125.6z"/>
<path style="fill:none;stroke:#000000;stroke-miterlimit:10;" d="M105.4,117.9c-1.7-0.1-20.6-3.8-27-5.3c-6.7-1.5-12.9-4-11.5-3.8
	c1.5,0.1,14,2.4,20.5,4.2C93.8,114.7,106.7,117.9,105.4,117.9z"/>
<path style="fill:none;stroke:#000000;stroke-miterlimit:10;" d="M113.5,110.3c6.9,1.7,10,2.3,9.7,2.2c-0.5-0.4-7.9-2.9-11.9-3.5
	c-4-0.6-10.4-0.1-11.4,0c-1.2,0.1,0.5,0.1,4.9,0.4C104.7,109.3,113.5,110.3,113.5,110.3z"/>
<path style="fill:none;stroke:#000000;stroke-miterlimit:10;" d="M100.5,95.7c-1.7-1.7-1.7-4,0-6.5c1.5-2.8,3.8-5.3,9.4-9.7
	c5.5-4.7,17.8-13.7,23.1-17.4c5-3.8,5-3.3,7.3-4.9c2.3-1.7,4.6-4.2,6.5-4.2c1.7-0.1,2.9,3.7,4.9,4.2c1.9,0.4,5-1.9,6.9-1.8
	c1.7,0,2.4,1.7,3.8,1.8c1.4,0,3.8-1.9,4.9-1.4c0.8,0.4-0.5,2.9,0,3.8c0.5,0.6,2.8,0,2.8,1c-0.1,0.9-0.8,2.1-3.5,4.9
	c-2.9,2.7-6.5,5.5-13.8,11.5c-7.6,6-17.3,13.7-30.3,24c-2.8-1.2-6.2-2.3-9.7-3.1C109.1,96.8,105,96.2,100.5,95.7L100.5,95.7z"/>
<path style="fill:none;stroke:#000000;stroke-miterlimit:10;" d="M107.6,89.4c0.1-0.5,9.1-8.1,14.1-11.8c4.9-3.8,14.9-10.9,15-10.4
	c-0.1,0.4-10.4,9.1-15.3,12.8C116.4,83.8,107.4,89.7,107.6,89.4z"/>
<path style="fill:none;stroke:#000000;stroke-miterlimit:10;" d="M138.8,72.7c2.3-2.4,5.6-5,8.7-6.9c2.8-2.1,10.5-6.9,8.3-4.5
	c-2.4,2.3-19.5,16.3-22.3,18.5C130.8,81.5,136.4,75.1,138.8,72.7z"/>
<path style="fill:none;stroke:#000000;stroke-miterlimit:10;" d="M154.5,78c1.8,2.1,2.7,4.1,3.1,5.9c0.3,1.8-1.8,3.5-1,4.9
	c0.8,1.2,4.5,1,5.5,2.4c0.8,1.3-0.9,4.6-0.4,5.9c0.6,1.2,3.5-0.3,4.1,1.4c0.4,1.4-2.6,5.8-1.4,7.7c1,1.8,8.2,0.8,7.7,3.1
	c-0.8,2.3-7.2,6.5-11.8,10.4c-4.6,3.6-9.9,7.4-15.6,11.4c-2.4-0.4-3.7-1.3-4.2-2.8c-0.5-1.5,1.4-4,1.4-5.9c-0.1-2.1-1.8-4.1-2.4-5.9
	c-0.8-1.8-0.5-4.1-1.8-5.3c-1.3-1.3-3.3-1-5.5-2.4c-2.2-1.7-4.7-3.6-7.7-6.5C134.5,94.2,144.5,86.1,154.5,78z"/>
<path style="fill:none;stroke:#000000;stroke-miterlimit:10;" d="M139.1,103.6c1.2-1.4,13.8-11.5,15.4-12.6c1.2-0.9-4.7,5.1-7.3,7.3
	C144.5,100.6,137.9,104.8,139.1,103.6z"/>
<path style="fill:none;stroke:#000000;stroke-miterlimit:10;" d="M141.1,112.4c1.2-1.4,13.8-11.7,15.4-12.6c1.3-1-4.7,5.3-7.3,7.3
	C146.7,109.3,140,113.5,141.1,112.4z"/>
<path style="fill:none;stroke:#000000;stroke-miterlimit:10;" d="M143.3,123.9c1.3-1.4,13.7-11.5,15.3-12.6c1.3-0.9-4.9,5.1-7.3,7.3
	C148.6,120.7,142.2,125.1,143.3,123.9z"/>
<path style="fill:none;stroke:#000000;stroke-miterlimit:10;" d="M165.2,90.8c5.6-1.2,12.2-1.4,20.1-0.6c7.8,0.5,18.8,2.9,26.8,4.5
	c7.7,1.5,13.5,3.3,19.9,5.3c6.3,1.7,15.1,3.5,17.7,5.3c2.4,1.4-3.7,2.8-3.1,4.2c0.5,1.4,5.4,2.9,6.3,4.5c0.6,1.3-1.4,2.6-1.4,4.1
	c-0.1,1.5,1.8,3.6,1.4,5.3c-0.5,1.5-3.6,2.2-3.8,3.8c-0.4,1.7,2.1,4.5,2.1,5.9c-0.3,1.2-1.7,0.8-2.4,2.4c-0.8,1.8-1,6.2-1.8,7.7
	c-1,1.3-2.8-1.4-3.5,0.4c-0.6,1.7,0.6,7.2,0,9.7c-1,2.3-3.6,3.1-4.5,4.9c-0.8,1.9,2.7,4-0.4,5.5c-3.3,1.3-11.7,2.4-18.5,2.4
	c-6.8-0.1-9.7,0.3-22.3-3.1c-12.8-3.5-30.4-9.4-53.6-17.7c2.7-1.4,4-2.8,4.2-4.2c-0.1-1.7-2.8-3.2-3.5-4.5c-0.6-1.4-0.6-2.6,0-3.5
	c10.1-6.4,17.3-11.7,22.3-16c4.7-4.2,6.5-7.4,6.7-9.4c-0.1-2.2-5.8-1.4-6.7-3.1c-1-1.9,1.5-5.9,1-7.3c-0.6-1.5-3.6,0-4.1-1
	C163.7,94.8,164,93.3,165.2,90.8L165.2,90.8z"/>
<path style="fill:none;stroke:#000000;stroke-miterlimit:10;" d="M156.7,139.5c1.7,0.8,24.5,9.1,33.7,12.2
	c9.1,2.9,22.3,6.5,20.9,5.9c-1.8-0.8-21.2-7.3-30.4-10.3C171.6,144.2,155.1,138.8,156.7,139.5z"/>
<path style="fill:none;stroke:#000000;stroke-miterlimit:10;" d="M186.3,98c1.7,0.5,25.3,7.2,34.6,9.4c9.4,2.3,22.7,4.6,21.3,4.1
	c-1.9-0.8-21.7-5.4-31.2-7.7C201.6,101.3,184.6,97.4,186.3,98z"/>
<path style="fill:none;stroke:#000000;stroke-miterlimit:10;" d="M217.3,114.2c-1.7-0.1-20.6-3.8-27-5.3c-6.7-1.5-12.9-4-11.5-3.8
	c1.5,0.1,14,2.4,20.5,4.2C205.9,110.8,218.7,114,217.3,114.2z"/>
<path style="fill:none;stroke:#000000;stroke-miterlimit:10;" d="M239,133.6c-1.7-0.1-20.6-3.8-27.2-5.3c-6.7-1.5-12.9-4-11.5-3.8
	c1.5,0.1,14,2.4,20.5,4.2C227.4,130.3,240.2,133.5,239,133.6L239,133.6z"/>
<path style="fill:none;stroke:#000000;stroke-miterlimit:10;" d="M196.3,143.1c-1.7-0.4-20.3-5.8-26.4-7.9c-6.3-2.2-12.6-5.3-11-5
	c1.5,0.1,13.6,4.1,20,6.3C185.1,138.6,197.5,143.3,196.3,143.1z"/>
<path style="fill:none;stroke:#000000;stroke-miterlimit:10;" d="M193.4,132.6c-0.1,0.1,15.3,5,22.3,6.9c6.9,1.9,18.7,5.1,19.1,4.9
	c0.1-0.4-11.2-4.2-18.1-6.3C209.6,136.1,193.6,132.2,193.4,132.6L193.4,132.6z"/>
<path style="fill:none;stroke:#000000;stroke-miterlimit:10;" d="M159.3,73.4l-3.1,3.8c1.8,2.4,2.7,4.2,3.1,5.9
	c0.4,1.5-2.1,2.4-1,3.5c0.9,1,3.1,1.9,6.5,2.8c2.8-1,6.9-1.5,12.6-1.7c5.5-0.1,12.3,0.1,20.5,1c-7.9-0.8-15.1-2.2-21.7-4.9
	C169.9,81.3,164.2,77.9,159.3,73.4L159.3,73.4z"/>
<path style="fill:none;stroke:#000000;stroke-miterlimit:10;" d="M199.3,88.8c4.9,0.8,9.2,1.3,13.2,1.4c4,0,8.7-1.8,10.4-1
	c1.5,0.8,1.2,2.3-1,5.3c-4.6-0.6-8.7-1.5-12.6-2.4C205.5,91,202.3,89.8,199.3,88.8L199.3,88.8z"/>
<path style="fill:none;stroke:#000000;stroke-miterlimit:10;" d="M145.4,148.3l9.7,16.3l11.8-0.4c0.1,2.4,0.9,4,2.1,4.2
	c1.2,0.1,3.7-2.9,4.9-2.8c1.2,0.1,0.5,3.3,1.7,3.8c1,0.4,2.7-2.3,4.5-1.7c1.7,0.4,4.4,3.5,5.9,4.5c1.4,0.8,2.1,1.3,3.1,1
	c1-0.3,2.9-0.4,3.1-2.1c0.1-1.8-0.8-4.7-2.4-8.7c-11.2-3.2-20.4-6-27.8-8.3C154.6,151.6,149.1,149.8,145.4,148.3z"/>
<path style="fill:none;stroke:#000000;stroke-miterlimit:10;" d="M141.1,156.2c6.5,5.6,11.3,10.8,14.6,15.3
	c3.2,4.5,4.7,8.5,4.5,11.9c-0.4,3.2-2.4,5.9-6.5,7.6c-4.2,1.5-13.8,1.7-18.1,1.8c-4.2,0.1-5.5-0.5-6.9-1.8c-1.4-1.4-2.1-3.6-1.8-6.5
	c4,0.9,6.5,0.8,8.1,0.4c1.3-0.8-0.5-2.8,0.4-3.8c1-1,4.2-0.1,5.3-1.8c0.8-1.8-0.4-6.5,0-8.3c0.3-1.9,1.9-0.4,2.2-2.8
	C142.7,165.6,142.3,161.6,141.1,156.2z"/>
<path style="fill:none;stroke:#000000;stroke-miterlimit:10;" d="M48.7,172.9c-1.2,5-1.3,8.8-0.4,11.4c0.9,2.3,4.2,2.4,5.9,3.8
	c1.5,1.5,2.4,4.1,3.8,4.9c1.3,0.6,3.3-1.7,4.5-0.8c1.2,0.9,1.7,5.6,3.1,5.6c1.3-0.3,2.9-6.3,5.3-6.5c2.4-0.4,6.3,4,8.7,4.5
	c2.2,0.4,2.2,1.7,4.5-2.1c2.3-4,5.3-10.8,9.1-20.9c-3.3-4.2-6-6.7-8.3-7.3s-3.8,2.9-5.6,3.1c-2.1,0-3.6-2.9-5.3-2.4
	c-1.5,0.4-2.1,4.5-3.5,4.9c-1.5,0.4-2.8-2.9-5.3-2.4c-2.4,0.4-7.3,4.6-9.4,4.9c-2.4,0-2.9-3.3-4.1-3.5
	C50.6,169.9,49.5,170.8,48.7,172.9L48.7,172.9z"/>
<path style="fill:none;stroke:#000000;stroke-miterlimit:10;" d="M71.3,184.7c0.5-1.7,5.9-14.1,6.8-14.9c0.5-0.9-1.8,7.1-2.9,9.7
	C74,182,70.8,186.2,71.3,184.7z"/>
<path style="fill:none;stroke:#000000;stroke-miterlimit:10;" d="M77.6,192.4c0.5-1.8,7.7-18.3,8.8-20.1c0.8-1.7-1.4,6.2-2.9,9.6
	C81.8,185.3,77.2,193.8,77.6,192.4z"/>
<path style="fill:none;stroke:#000000;stroke-miterlimit:10;" d="M59.1,189.5c0.5-1.8,5.9-14,6.8-14.9c0.5-0.9-1.8,7.1-2.9,9.7
	C61.7,186.7,58.7,191.1,59.1,189.5z"/>
<path style="fill:none;stroke:#000000;stroke-miterlimit:10;" d="M95.4,174.9c-4.4,8.5-7.1,14.7-8.3,19.1c-1.3,4.2-0.5,6.3,0.6,6.5
	c1,0,2.6-3.5,5.6-5.5c2.8-2.2,6.8-5.1,12.2-6.3c5.4-1.2,12.1-1.2,20.1-0.4l-2.1-3.8c-5.9,0.1-10.9-0.5-15.6-2.2
	C103.1,180.9,99,178.4,95.4,174.9z"/>
<path style="fill:none;stroke:#000000;stroke-miterlimit:10;" d="M45.3,177.7c-0.4,2.7-1.8,4.6-3.8,6.3c-2.3,1.5-6.4,2.3-9.1,3.1
	c-2.6,0.5-5.9,0.1-6.3,0.6c-0.5,0.5,0.6,1.8,3.5,2.4c2.7,0.5,8.7,1.3,12.8,1.4c4,0.1,7.7-0.1,11.2-0.6c-1.3-0.6-2.4-1.4-3.8-2.4
	c-1.5-1-3.5-1.8-4.2-3.5C44.7,183.1,44.7,180.8,45.3,177.7z"/>
<path style="fill:none;stroke:#000000;stroke-miterlimit:10;" d="M27.6,148.9c-3.8,0.6-7.1,1.5-9.7,3.5c-2.7,1.7-5,4.6-6.3,6.9
	c-1.4,2.4-2.1,6.2-1.8,7.3c0.4,1,2.3-1.8,3.8-1.4c1.4,0.4,2.7,2.6,4.2,3.1c1.5,0.3,3.1-1.4,4.5-1c1,0.4,1.3,2.9,2.4,2.8
	c1.2-0.5,3.1-4.7,4.5-4.9c1.2-0.1,1.9,3.8,3.1,4.1c1.2,0.1,2.6-3.3,4.1-2.8c1.3,0.6,1.9,5.8,4.5,6.3c2.7,0.1,8.6-4.5,11.2-4.9
	c2.3-0.3,2.4,2.4,3.8,2.8c1.2,0,2.3-1.7,3.8-2.4c1.5-0.9,3.5-2.2,5.3-2.2c1.7,0.1,2.9,2.6,4.2,2.3c1-0.5,1.7-4,3.1-4.5
	c1.5-0.5,4.4,1.7,5.9,1.7c1.5,0,2.4-0.5,3.1-1.7c-6.4-2.7-14-5.1-22.9-7.7C49.4,153.6,39.2,151.3,27.6,148.9L27.6,148.9z"/>
<path style="fill:none;stroke:#000000;stroke-miterlimit:10;" d="M24.4,167.2c0-1.2,1.7-12.8,2.2-14.2c0.4-1.3,0.4,3.8,0,6.3
	C26,161.7,24.4,168.1,24.4,167.2z"/>
<path style="fill:none;stroke:#000000;stroke-miterlimit:10;" d="M31.7,166.6c0-1.2,1.5-12.8,2.1-14.2c0.4-1.3,0.4,3.8,0,6.3
	C33.2,161.1,31.8,167.4,31.7,166.6z"/>
<path style="fill:none;stroke:#000000;stroke-miterlimit:10;" d="M41,169.7c0-1.2,1.7-12.8,2.2-14.1c0.4-1.3,0.4,3.7,0,6.3
	C42.7,164.2,41,170.6,41,169.7z"/>
<path style="fill:none;stroke:#000000;stroke-miterlimit:10;" d="M51.5,164.9c-0.3-0.6-0.3-6.9,0-7.7c0.1-0.8,1,2.2,1,3.5
	C52.4,162.1,51.7,165.2,51.5,164.9z"/>
<path style="fill:none;stroke:#000000;stroke-miterlimit:10;" d="M17.3,160.4c-0.1-0.6,1.2-5.5,1.5-6c0.3-0.5,0.5,1.8,0.4,2.9
	C19,158.5,17.2,160.8,17.3,160.4z"/>
<path style="fill:none;stroke:#000000;stroke-miterlimit:10;" d="M13.6,139.2c-2.7-3.8-5-8.3-6.9-13.6c-2.2-5.4-3.7-11.3-5.3-18.1
	c2.6,1.5,4.6,2.7,6.3,3.1c1.4,0.5,1.8-1.4,2.8-0.4c0.8,0.8,1,4.9,2.8,5.6c1.8,0.6,5.9-1.9,7.9-1.8c1.9,0,2.8,2.1,3.8,1.8
	c0.9-0.5,1.2-3.5,2.4-3.8c1.2-0.4,4,1.5,5.3,1.8c1.2,0.1,1-1,2.1-0.6c0.9,0.4,2.3,2.2,3.5,2.4c1.2-0.1,2.2-2.1,3.1-2.1
	c0.8,0,1.4,0.6,1.8,2.1c-0.5,2.4-1.2,4.2-2.4,5.3c-1.4,0.8-3.5-1.2-4.9,0.4c-1.5,1.4-1.8,7.1-3.5,8.3c-1.8,1.2-5.1-2.3-6.5-1.4
	c-1.5,0.8-1,5.3-2.1,6.3c-1.3,0.6-3.3-1.2-4.6-0.8c-1.5,0.3-2.9,1.7-3.5,2.8c-0.6,1,0.6,3.3,0.4,3.8
	C15.6,140.6,14.7,140.3,13.6,139.2z"/>
<path style="fill:none;stroke:#000000;stroke-miterlimit:10;" d="M10,117c0.5,1,3.7,12.2,4.1,13.7c0.1,1.3-2.1-3.5-2.7-5.6
	C10.6,122.6,9.5,115.9,10,117z"/>
<path style="fill:none;stroke:#000000;stroke-miterlimit:10;" d="M16.5,116.8c0.5,0.9,5.5,11.5,6,12.9c0.4,1.2-2.4-3.1-3.5-5.3
	S16,115.8,16.5,116.8z"/>
<path style="fill:none;stroke:#000000;stroke-miterlimit:10;" d="M23.2,117.5c0.4,0.6,3.8,8.1,4.2,9.2c0.1,0.8-1.7-2.2-2.4-3.7
	C24.1,121.2,22.8,116.8,23.2,117.5z"/>
<path style="fill:none;stroke:#000000;stroke-miterlimit:10;" d="M41.4,77.2c-2.2-1.5-3.7-2.3-4.9-2.4c-1.2-0.1-1,1.5-2.1,1.4
	c-1.3-0.4-3.5-2.6-4.5-2.8s-0.4,1.8-1.7,1.7c-1.5-0.1-5.8-2.7-6.9-2.4c-1.3,0.4-1.5,1.7-0.4,4.1c1.2,2.3,2.9,3.6,7.3,9.7
	c4.4,5.9,10.3,14.6,18.5,26c1.9,1.5,3.1,1.9,4.1,1.4c0.8-0.8,0.4-3.8,1-5.3c0.5-1.4,1.2-2.3,2.4-2.8c1.2-0.5,2.6-0.5,4.5,0
	c-3.1-2.7-5.8-6.3-8.1-11.5c-2.4-5.3-4.2-11.4-5.9-19.1C43.7,76.1,42.6,76.7,41.4,77.2z"/>
<path style="fill:none;stroke:#000000;stroke-miterlimit:10;" d="M27.2,78c0.8,0.6,7.8,10.3,8.7,11.4c0.6,1-3.1-2.6-4.5-4.4
	C29.7,83,26.4,77.4,27.2,78z"/>
<path style="fill:none;stroke:#000000;stroke-miterlimit:10;" d="M35.4,80.1c0.8,0.8,6.8,10.9,7.4,12.2c0.5,1.2-2.8-2.7-4-4.7
	C37.6,85.3,34.7,79.3,35.4,80.1z"/>
<path style="fill:none;stroke:#000000;stroke-miterlimit:10;" d="M22.3,82.9c-4.4,2.1-7.1,3.8-8.3,5.9c-1.3,1.9-1.9,4,0.6,5.9
	c2.4,1.8,11.4,2.6,14.2,5.3c2.7,2.7,3.3,6,2.1,10.4c0.9,0,1.9,0.3,3.1,0.6c1.2,0.4,2.7,2.1,3.8,2.2c0.8-0.3,0.6-2.3,1.7-2.4
	c1.2-0.1,2.7,0.6,4.9,2.1C41,108,37.7,103.1,34,98.1C30.4,93,26.5,88.1,22.3,82.9z"/>
<path style="fill:none;stroke:#000000;stroke-miterlimit:10;" d="M60.3,104c-2.3-2.3-4.6-5.3-6.5-9.1c-2.1-3.8-4.2-9.2-5.6-13.6
	c-1.5-4.5-2.8-9.2-2.4-12.6c0.4-3.3,1.8-5.3,4.5-6.5c1.7,2.2,4.4,5.3,8.1,9.4c3.7,4.1,9.1,10.8,13.8,15c4.7,4.1,9.1,7.3,13.8,9.7
	c-0.4,1.4-1.5,2.3-3.5,2.4c-2.2,0.1-5.4-1.5-8.3-1.4c-3.1,0-6.7,0.9-9.1,2.1C62.6,100.6,61,102,60.3,104z"/>
<path style="fill:none;stroke:#000000;stroke-miterlimit:10;" d="M57.9,85.4c0.8,0.6,8.7,9.5,9.6,10.5c0.8,1-3.3-2.3-4.9-4
	C61,90.2,57.2,84.8,57.9,85.4z"/>
<path style="fill:none;stroke:#000000;stroke-miterlimit:10;" d="M53.5,86.1c0.8,0.8,6.8,10.8,7.4,12.2c0.5,1.2-2.8-2.7-4-4.7
	C55.6,91.3,52.8,85.2,53.5,86.1z"/>
<path style="fill:none;stroke:#000000;stroke-miterlimit:10;" d="M63.6,84.4c0.9,0.5,10.5,7.3,11.5,8.5c1,0.8-3.7-1.5-5.6-2.9
	C67.7,88.4,62.6,84,63.6,84.4z"/>
<path style="fill:none;stroke:#000000;stroke-miterlimit:10;" d="M134,58.8c-0.1-3.5-0.9-5.5-1.7-5.9c-1-0.4-2.8,2.8-3.8,3.5
	c-1.2,0.4-2.3-1.7-2.8-0.8c-0.6,0.9,0.3,5-1,5.9c-1.5,0.8-6-1.9-7.3-1c-1.3,0.9,1,5.3,0,6.3c-1.2,0.9-3.3,0.6-6.7-0.6v10.4
	c2.6-2.7,5.8-5.4,9.7-8.3C124.2,65.2,128.7,62.2,134,58.8z"/>
<path style="fill:none;stroke:#000000;stroke-miterlimit:10;" d="M87.7,94.7c-2.8-0.8-6.3-2.8-10.8-6.9c-4.5-4.1-9.7-9.7-16-17
	c1.7-3.8,3.3-5.6,5.3-5.9c1.8-0.1,3.8,4.1,5.5,4.5c1.3,0.3,2.1-3.2,3.5-2.8c1.5,0.3,3.7,4.7,5.5,5.3c1.5,0.4,2.4-3.2,4.5-2.4
	c2.1,0.8,5.1,3.6,7.7,6.5c2.3,2.8,4.6,6.3,6.5,10.5c-1.3,1-2.2,2.2-2.4,3.8c-0.3,1.5-0.1,3.3,0.8,5.6C94.3,95.3,91,95.1,87.7,94.7z"
	/>
<path style="fill:none;stroke:#000000;stroke-miterlimit:10;" d="M70.5,71.5c0.9,0.6,8.6,9.4,9.6,10.5c0.8,1.2-3.3-2.2-4.9-4
	C73.5,76.1,69.7,71,70.5,71.5z"/>
<path style="fill:none;stroke:#000000;stroke-miterlimit:10;" d="M81.3,73.6c0.8,0.6,8.7,9.5,9.6,10.5c0.8,1-3.3-2.3-4.9-4
	C84.4,78.4,80.4,73,81.3,73.6z"/>
<path style="fill:none;stroke:#000000;stroke-miterlimit:10;" d="M100.9,85.3c-0.3-2.6-1.2-5-2.8-7.3c-1.7-2.3-4-4.6-6.9-6.5
	c3.6-2.7,6.5-4.6,9.1-5.9c2.3-1.4,4.4-2.2,5.9-2.1c1.4,0,2.6,0.6,3.1,2.1l-0.4,11.5c-2.4,1.9-4.2,3.5-5.6,4.9
	C101.9,83.1,101.1,84.3,100.9,85.3z"/>
</svg>
