<?xml version="1.0" encoding="utf-8"?>
<!-- Generator: Adobe Illustrator 17.0.0, SVG Export Plug-In . SVG Version: 6.00 Build 0)  -->
<!DOCTYPE svg PUBLIC "-//W3C//DTD SVG 1.1//EN" "http://www.w3.org/Graphics/SVG/1.1/DTD/svg11.dtd" [
	<!ENTITY ns_flows "http://ns.adobe.com/Flows/1.0/">
	<!ENTITY ns_extend "http://ns.adobe.com/Extensibility/1.0/">
	<!ENTITY ns_ai "http://ns.adobe.com/AdobeIllustrator/10.0/">
	<!ENTITY ns_graphs "http://ns.adobe.com/Graphs/1.0/">
]>
<svg version="1.1" id="Layer_1" xmlns:x="&ns_extend;" xmlns:i="&ns_ai;" xmlns:graph="&ns_graphs;"
	 xmlns="http://www.w3.org/2000/svg" xmlns:xlink="http://www.w3.org/1999/xlink" xmlns:a="http://ns.adobe.com/AdobeSVGViewerExtensions/3.0/"
	 x="0px" y="0px" width="256px" height="256px" viewBox="0 0 256 256" style="enable-background:new 0 0 256 256;"
	 xml:space="preserve">
<g transform="translate(1 1)">
	<g>
		<path d="M242.2,211.5c-25.5-13.5-45-21.1-62.4-24l1.8-2.5c0.9-0.9,1.3-2.1,0.9-3.4l-4-16c10.6-15,16.8-33.6,16.8-51.4V97.1h4.3
			h8.5c2.6,0,4.3-1.7,4.3-4.3c0-2.6-1.7-4.3-4.3-4.3h-4.3v-4.3c0-33.7-22.2-62.3-55.5-71.7v-0.9C148.3,5,142.8-1,135.5-1h-17.1
			c-6.8,0-12.8,5.5-12.8,12.8v0.9c-33.3,9.4-55.5,38-55.5,71.7v4.3h-4.3c-2.6,0-4.3,1.7-4.3,4.3c0,2.6,1.7,4.3,4.3,4.3h8.5h4.3v17.1
			c0,17.8,6.2,36.5,16.8,51.4l-4,16c0,0.9,0,2.6,0.9,3.4l1.8,2.5c-17.4,2.9-36.9,10.5-62.4,24C3.7,215.3-1,223.4-1,232.4v18.3
			c0,2.6,1.7,4.3,4.3,4.3h102.4h1.7h39.3h1.7h102.4c2.6,0,4.3-1.7,4.3-4.3v-18.3C255,223.9,249.9,215.7,242.2,211.5z M124.4,207.5
			l2.6-5.8l6.4,14l4.2,9.4h-20.8L124.4,207.5z M113.5,233.7h26.9l2.4,12.8H111L113.5,233.7z M171.8,173.9l1.7,7.7l-4.4,6
			c-0.3,0.2-0.5,0.5-0.8,0.8L150.6,213l-5.6,7.7l-11.5-25.9c13.7-1.7,26-8.6,35.9-18.5c0.1-0.1,0.2-0.2,0.3-0.3c0,0,0.1-0.1,0.1-0.1
			C170.5,175.3,171.2,174.6,171.8,173.9z M166.2,30.2c0.5,0.3,0.9,0.6,1.4,1c5.4,4.1,10.5,8.8,14.4,13.9l-19.6,3.8L166.2,30.2z
			 M91.6,48.9L72,45.1c3.9-5.1,9-9.9,14.4-13.9c0.5-0.3,0.9-0.6,1.4-1L91.6,48.9z M58.7,84.3c0-11.4,2.9-22.1,8-31.4l29.5,5.8
			c0.4,0,0.4,0,0.9,0c1.3,0,2.1-0.4,3.4-0.9c1.3-0.9,1.7-2.6,1.3-3.8L96,25.5c3.1-1.5,6.3-2.8,9.7-3.8v11.4c0,2.6,1.7,4.3,4.3,4.3
			c2.6,0,4.3-1.7,4.3-4.3V16.1v-4.3c0-2.1,1.7-4.3,4.3-4.3h17.1c2.1,0,4.3,1.7,4.3,4.3v4.3v17.1c0,2.6,1.7,4.3,4.3,4.3
			c2.6,0,4.3-1.7,4.3-4.3V21.7c3.5,1.1,6.8,2.4,10,4l-5.7,27.9c0,1.3,0.4,3,1.3,3.8c0.9,0.9,1.7,1.3,3,1.3c0.4,0,0.4,0,0.9,0
			l29.3-6.2c5.3,9.4,8.2,20.3,8.2,31.8v4.3H191H63h-4.3L58.7,84.3L58.7,84.3z M67.3,97.1h119.5v17.1c0,18.6-6.4,35.1-16,47.7
			l-0.2,0.1c-0.4,0.4-0.9,0.9-1.3,1.3c-2.1,2.9-4.4,5.5-6.8,7.8c-10,9.4-22,15-33.6,15.6c-0.6-0.2-1.2-0.4-1.9-0.4
			c-0.7,0-1.2,0.1-1.8,0.4c-7.1-0.3-14.3-2.6-21.2-6.4c-6.9-4-13.5-9.7-19.3-17c-0.4-0.4-0.9-0.9-1.3-1.3l-0.2-0.1
			c-9.6-12.6-16-29.1-16-47.7L67.3,97.1L67.3,97.1z M120.5,194.9L109,220.7l-5.6-7.7l-17.7-24.6c-0.1-0.1-0.3-0.3-0.4-0.4l-4.7-6.4
			l1.7-7.7c0.6,0.6,1.2,1.2,1.8,1.8C94,186,106.5,193.2,120.5,194.9z M7.5,232.4c0-5.5,3-10.7,8.1-13.2
			c27.2-14.4,46.8-21.7,64.2-23.9l25.5,35l-3.2,16.2H7.5V232.4z M246.5,246.5h-94.5l-3.2-16.2l25.7-35.4
			c17.4,2.6,37.3,9.9,63.9,23.8c5.1,3,8.1,8.1,8.1,13.7V246.5z"/>
	</g>
</g>
</svg>
