<?xml version="1.0" encoding="utf-8"?>
<!-- Generator: Adobe Illustrator 17.0.0, SVG Export Plug-In . SVG Version: 6.00 Build 0)  -->
<!DOCTYPE svg PUBLIC "-//W3C//DTD SVG 1.1//EN" "http://www.w3.org/Graphics/SVG/1.1/DTD/svg11.dtd" [
	<!ENTITY ns_flows "http://ns.adobe.com/Flows/1.0/">
	<!ENTITY ns_extend "http://ns.adobe.com/Extensibility/1.0/">
	<!ENTITY ns_ai "http://ns.adobe.com/AdobeIllustrator/10.0/">
	<!ENTITY ns_graphs "http://ns.adobe.com/Graphs/1.0/">
]>
<svg version="1.1" id="Layer_1" xmlns:x="&ns_extend;" xmlns:i="&ns_ai;" xmlns:graph="&ns_graphs;"
	 xmlns="http://www.w3.org/2000/svg" xmlns:xlink="http://www.w3.org/1999/xlink" xmlns:a="http://ns.adobe.com/AdobeSVGViewerExtensions/3.0/"
	 x="0px" y="0px" width="256px" height="256px" viewBox="0 0 256 256" style="enable-background:new 0 0 256 256;"
	 xml:space="preserve">
<path style="fill:none;stroke:#000000;stroke-miterlimit:10;" d="M156.4,126c0,0.2,0.2,0.6,0.1,0.8s-0.6,0.3-0.7,0.4
	c-0.1,0.1-0.1,0.6-0.3,0.7c-0.1,0.1-0.6-0.1-0.8,0c-0.1,0-0.3,0.3-0.5,0.4c-0.1,0-0.1,0.1-0.1,0.1c-0.2,0-0.5-0.4-0.7-0.4
	c-0.1,0-0.2,0-0.4,0.1c-0.2,0-0.3,0.1-0.4,0.1c-0.1-0.1-0.3-0.6-0.4-0.7c-0.1-0.1-0.6-0.1-0.7-0.3c-0.1-0.1,0-0.6,0-0.8
	c-0.1-0.1-0.5-0.4-0.5-0.6c0-0.2,0.4-0.5,0.4-0.7c0-0.1,0-0.2-0.1-0.3c-0.1-0.2-0.1-0.4-0.1-0.4c0.1-0.1,0.6-0.3,0.7-0.4
	c0.1-0.1,0.1-0.6,0.3-0.7c0.1-0.1,0.6,0.1,0.8,0s0.4-0.5,0.6-0.5c0.2,0,0.5,0.4,0.7,0.4c0.2,0,0.6-0.2,0.8-0.1s0.3,0.6,0.4,0.7
	c0.1,0.1,0.6,0.1,0.7,0.3c0.1,0.1,0,0.6,0,0.8l0,0c0.1,0.1,0.5,0.4,0.5,0.6C156.8,125.5,156.4,125.8,156.4,126z"/>
<path style="fill:none;stroke:#000000;stroke-miterlimit:10;" d="M151.3,124.8c-1.5,0.1-2.9,0.2-4.3,0.3"/>
<path style="fill:none;stroke:#000000;stroke-miterlimit:10;" d="M127.3,132.3c2.8-2.6,9.8-5.7,16.8-6.8"/>
<path style="fill:none;stroke:#000000;stroke-miterlimit:10;" d="M156.3,124.7c5.3,0.1,10.2,0.7,14.4,1.7"/>
<g transform="matrix(.13698 .01323 -.01323 .13698 424.93 51.509)">
	<path style="fill:none;stroke:#000000;stroke-miterlimit:10;" d="M-1912.9,744l0,20.7c0,1.9,1.5,3.4,3.4,3.4h2.1
		c1.9,0,3.4-1.5,3.4-3.4v-19.9"/>
</g>
<g transform="matrix(.12868 .01166 -.01243 .12073 401.42 49.826)">
	<path style="fill:none;stroke:#000000;stroke-miterlimit:10;" d="M-1917.7,812.4v20.7c0,1.9,1.5,3.4,3.4,3.4h2.1
		c1.9,0,3.4-1.5,3.4-3.4v-19.9"/>
	<path style="fill:none;stroke:#000000;stroke-miterlimit:10;" d="M-1895.3,794.7c-0.1,1.1,1.9,4.5,1.5,5.6c-0.4,1.1-4,2.4-4.7,3.4
		c-0.4,0.5-0.5,2.1-0.7,3.4c-0.2,1-0.4,1.9-0.7,2.2c-0.9,0.7-4.7,0.1-5.7,0.6c-0.8,0.4-2.1,2.4-3.1,3.4c-0.3,0.3-0.7,0.6-1,0.6
		c-1.1,0.2-4.1-2.2-5.3-2.3c-0.5,0-1.6,0.4-2.7,0.8v-1c-1.2,0.3-2.5,0.6-3.7,1c-0.9-1.2-1.9-3.5-2.7-4c-0.9-0.6-4.8-0.6-5.6-1.5
		c-0.8-0.8-0.1-4.7-0.6-5.7c-0.5-1-3.9-2.9-4.1-4s2.2-4.1,2.3-5.3c0.1-1.1-1.9-4.5-1.5-5.6c0.4-1.1,4-2.4,4.7-3.4
		c0.6-1,0.6-4.9,1.5-5.6c0.9-0.7,4.7-0.1,5.7-0.6c1-0.5,3-3.9,4.1-4.1c1.2-0.2,4.1,2.2,5.3,2.3c1.2,0.1,4.5-1.9,5.6-1.5
		c1.1,0.4,2.4,4,3.4,4.7c1,0.7,4.8,0.6,5.6,1.5c0.7,0.9,0.1,4.7,0.6,5.7c0.5,1.1,3.9,3,4.1,4.1
		C-1892.7,790.5-1895.2,793.5-1895.3,794.7z"/>
	<path style="fill:none;stroke:#000000;stroke-miterlimit:10;" d="M-1917.7,811.4v1c-1.2,0.4-2.3,0.9-2.9,0.7
		c-0.2-0.1-0.5-0.3-0.7-0.6C-1920.2,812.1-1918.9,811.8-1917.7,811.4z"/>
</g>
<g transform="matrix(.79003 0 0 .79003 -61.012 -125.31)">
	<path style="fill:none;stroke:#000000;stroke-miterlimit:10;" d="M276.3,329.2c-14.7-2.1-31-3.3-48.2-3.3
		c-15.2,0.4-30.4,1-45.3,2.8"/>
</g>
<path style="fill:none;stroke:#000000;stroke-miterlimit:10;" d="M206.2,121c1.1,0,2.2,0,3.3,0c2.7,0,5.3,0.1,7.9,0.2"/>
<path style="fill:none;stroke:#000000;stroke-miterlimit:10;" d="M205.6,121c-0.3,0-0.6,0-1,0"/>
<path style="fill:none;stroke:#000000;stroke-miterlimit:10;" d="M157.4,134.7c6.4-7,23.1-12.3,43.4-13.5"/>
<path style="fill:none;stroke:#000000;stroke-miterlimit:10;" d="M227.5,122.1c11.7,1.5,21.7,4.4,28.3,8.2v21.8"/>
<path style="fill:none;stroke:#000000;stroke-miterlimit:10;" d="M167.2,138.6c-37.9,0.9-75.6,3.2-108.9,23.2h197.5v-10.5
	C234.4,143.6,202.7,138.6,167.2,138.6L167.2,138.6z"/>
<path style="fill:none;stroke:#000000;stroke-miterlimit:10;" d="M96.9,144.5l12.6-1.3c12.5,4.5,21,10.6,27.7,18.7h-20.9L96.9,144.5
	L96.9,144.5z"/>
<path style="fill:none;stroke:#000000;stroke-miterlimit:10;" d="M167.4,138.7c-37.9,0.9-75.6,3.2-108.9,23.2H256v-10.5
	C234.5,143.6,202.8,138.7,167.4,138.7z"/>
<path style="fill:none;stroke:#000000;stroke-miterlimit:10;" d="M125.6,141.1l-6.2,0.8c15.4,5.4,21.6,10.2,27.6,20l12.2-0.1
	C152,152.5,137,147.4,125.6,141.1L125.6,141.1z"/>
<path style="fill:none;stroke:#000000;stroke-miterlimit:10;" d="M129,161.8H0.1v-20.3c5-3.5,11-6.4,17.9-8.6l0.1,1
	c0.1,0.5,0.5,0.9,1.1,0.8l0.6-0.1c0.5-0.1,0.9-0.5,0.8-1.1l-0.2-1.4c1.6-0.5,3.3-0.9,5-1.3c-0.4,0.6-0.7,1.3-0.7,1.6
	c0.1,0.6,2,1.7,2.3,2.3s-0.1,2.8,0.3,3.3s2.6,0.5,3.2,0.8c0.5,0.4,1.3,2.4,1.9,2.7c0.3,0.1,1-0.1,1.7-0.4c0.6-0.2,1.2-0.5,1.5-0.4
	c0.6,0.1,2.3,1.5,3,1.3c0.2,0,0.3-0.2,0.5-0.4c0.6-0.6,1.3-1.7,1.8-1.9c0.6-0.3,2.8,0.1,3.3-0.3c0.5-0.4,0.5-2.6,0.8-3.2
	s2.4-1.3,2.7-1.9c0.2-0.6-0.9-2.5-0.8-3.2c0-0.6,1.2-2,1.3-2.8c0.5,0,1,0,1.5,0c2.2,0,4.3,0.1,6.5,0.3l0,0l-0.4,4.4
	c-0.1,0.7,0.5,1.4,1.3,1.5l0.8,0.1c0.7,0.1,1.4-0.5,1.5-1.3l0.4-4.4l0,0C87.5,132,111.2,146.1,129,161.8z"/>
<path style="fill:none;stroke:#000000;stroke-miterlimit:10;" d="M128.8,161.8H0v-20.3c5-3.5,11.1-6.5,18-8.7v0l0.1,1
	c0.1,0.5,0.5,0.9,1.1,0.8l0.6-0.1c0.5-0.1,0.9-0.5,0.8-1.1l-0.2-1.4v0c1.6-0.5,3.3-0.9,5-1.3c0,0,0,0,0,0c-0.4,0.6-0.7,1.3-0.7,1.6
	c0.1,0.6,2,1.7,2.3,2.3s-0.1,2.8,0.3,3.3s2.6,0.5,3.2,0.8c0.5,0.4,1.3,2.4,1.9,2.7c0.3,0.1,1-0.1,1.7-0.4c0.6-0.2,1.2-0.5,1.5-0.4
	c0.6,0.1,2.3,1.5,3,1.3c0.2,0,0.3-0.2,0.5-0.4c0.6-0.6,1.3-1.7,1.8-1.9c0.6-0.3,2.8,0.1,3.3-0.3c0.5-0.4,0.5-2.6,0.8-3.2
	s2.4-1.3,2.7-1.9c0.2-0.6-0.9-2.5-0.8-3.2c0-0.6,1.2-2,1.3-2.8c0.5,0,1,0,1.5,0c2.2,0,4.3,0.1,6.5,0.3l-0.4,4.4
	c-0.1,0.7,0.5,1.4,1.3,1.5l0.8,0.1c0.7,0.1,1.4-0.5,1.5-1.3l0.4-4.4C87.4,132.1,111.1,146.1,128.8,161.8z"/>
<g transform="matrix(.56592 0 0 .56592 -21.409 -53.531)">
	<path style="fill:none;stroke:#000000;stroke-miterlimit:10;" d="M107,344.8v19.9c0,1.9-1.5,3.4-3.4,3.4h-2.1
		c-1.9,0-3.4-1.5-3.4-3.4v-20.7"/>
	<path style="fill:none;stroke:#000000;stroke-miterlimit:10;" d="M122.8,321.3c-0.2,1.3-2.3,3.9-2.3,4.9c-0.1,1.2,1.9,4.5,1.5,5.6
		c-0.4,1.1-4,2.4-4.7,3.4c-0.6,1-0.6,4.8-1.5,5.6c-0.9,0.7-4.7,0.1-5.7,0.6c-0.8,0.4-2,2.4-3.1,3.4c-0.3,0.3-0.7,0.6-1,0.6
		c-1.1,0.2-4.1-2.3-5.3-2.3c-0.5,0-1.6,0.4-2.7,0.8c-1.2,0.5-2.3,0.9-2.9,0.7c-1.1-0.4-2.4-4-3.4-4.7c-1-0.6-4.8-0.6-5.6-1.5
		c-0.7-0.9-0.1-4.7-0.6-5.7c-0.5-1.1-3.9-2.9-4.1-4.1c-0.1-0.6,0.6-1.8,1.2-2.9c0,0,0,0,0-0.1c0.5-0.9,1.1-1.8,1.1-2.3
		c0.1-1.2-1.9-4.5-1.5-5.6c0.4-1.1,4-2.4,4.7-3.4c0.6-1,0.6-4.8,1.5-5.6c0.9-0.7,4.7-0.1,5.7-0.6c1.1-0.5,3-3.9,4.1-4.1
		c1.1-0.2,4.1,2.2,5.3,2.3s4.5-1.9,5.6-1.5c1.1,0.4,2.4,4,3.4,4.7c1,0.6,4.8,0.6,5.6,1.5c0.7,0.9,0.1,4.7,0.6,5.7
		c0.5,1.1,3.9,3,4.1,4.1C122.8,321,122.8,321.1,122.8,321.3z"/>
</g>
<g transform="matrix(.40408 .039034 -.039034 .40408 92.341 -55.163)">
	<path style="fill:none;stroke:#000000;stroke-miterlimit:10;" d="M-36.5,450.2v8.8v0v11c0,1.9-1.5,3.4-3.4,3.4H-42
		c-1.9,0-3.4-1.5-3.4-3.4v-11v0v-9.8c1.1-0.4,2.1-0.8,2.7-0.8c1.2,0.1,4.1,2.5,5.3,2.3C-37.2,450.8-36.9,450.6-36.5,450.2z"/>
	<path style="fill:none;stroke:#000000;stroke-miterlimit:10;" d="M-21.5,437.2c-0.4,1.1-4,2.4-4.7,3.4c-0.6,1-0.6,4.8-1.5,5.6
		c-0.9,0.7-4.7,0.1-5.7,0.6c-0.8,0.4-2,2.4-3.1,3.4c-0.3,0.3-0.7,0.6-1,0.6c-1.1,0.2-4.1-2.2-5.3-2.3c-0.5,0-1.6,0.4-2.7,0.8
		c-1.2,0.4-2.3,0.9-2.9,0.7c-1.1-0.4-2.4-4-3.4-4.7c-1-0.6-4.8-0.6-5.6-1.5c-0.7-0.9-0.1-4.7-0.6-5.7c-0.5-1.1-3.9-2.9-4.1-4.1
		c-0.2-1.2,2.2-4.1,2.3-5.3c0.1-1.2-1.9-4.5-1.5-5.6c0.4-1.1,4-2.4,4.7-3.4s0.6-4.8,1.5-5.6c0.9-0.7,4.7-0.1,5.7-0.6
		c1-0.5,2.9-3.9,4.1-4.1c1.2-0.2,4.1,2.2,5.3,2.3c1.2,0.1,4.5-1.9,5.6-1.5c1.1,0.4,2.4,4,3.4,4.7c1,0.6,4.8,0.6,5.6,1.5
		c0.7,0.9,0.1,4.7,0.6,5.7s3.9,3,4.1,4.1c0.2,1.1-2.3,4.1-2.3,5.3C-23.1,432.8-21.1,436.1-21.5,437.2z"/>
</g>
<g transform="matrix(.27422 -.032014 .032014 .27422 -18.675 14.368)">
	<path style="fill:none;stroke:#000000;stroke-miterlimit:10;" d="M87.8,448.4h-2.1c-1.9,0-3.4-1.5-3.4-3.4v-3.5v-0.2v-17.1
		c1.1-0.4,2.1-0.8,2.7-0.8c1.2,0.1,4.1,2.5,5.3,2.3c0.3-0.1,0.6-0.3,1-0.6v14.6v0.1v5.1C91.2,446.9,89.7,448.4,87.8,448.4z"/>
	<path style="fill:none;stroke:#000000;stroke-miterlimit:10;" d="M106.2,412.1c-0.4,1.1-4,2.4-4.7,3.4c-0.6,1-0.6,4.8-1.5,5.6
		c-0.9,0.7-4.7,0.1-5.7,0.6c-0.8,0.4-2,2.4-3.1,3.5c-0.4,0.3-0.7,0.6-1,0.6c-1.2,0.2-4.1-2.3-5.3-2.3c-0.5,0-1.6,0.4-2.7,0.8
		c-1.2,0.4-2.3,0.9-2.9,0.7c-1.1-0.4-2.4-4-3.4-4.7c-1-0.6-4.8-0.6-5.6-1.5c-0.7-0.9-0.1-4.7-0.6-5.7c-0.5-1.1-3.9-3-4.1-4.1
		c-0.2-1.1,2.2-4.1,2.3-5.3c0.1-1.2-1.9-4.5-1.5-5.6c0.4-1.1,4-2.4,4.7-3.4c0.6-1,0.6-4.8,1.5-5.6c0.9-0.7,4.7-0.1,5.7-0.6
		c1.1-0.5,2.9-3.9,4.1-4.1c1.2-0.2,4.1,2.2,5.3,2.3c1.2,0.1,4.5-1.9,5.6-1.5c1.1,0.4,2.4,4,3.4,4.7c1,0.6,4.8,0.6,5.6,1.5
		c0.7,0.9,0.1,4.7,0.6,5.7c0.5,1.1,3.9,3,4.1,4.1c0.2,1.2-2.2,4.1-2.3,5.3C104.6,407.7,106.6,411,106.2,412.1z"/>
</g>
<g transform="matrix(.26679 .025772 -.025772 .26679 600.14 1.3842)">
	<path style="fill:none;stroke:#000000;stroke-miterlimit:10;" d="M-1364.3,602.6v20.7c0,1.9,1.5,3.4,3.4,3.4h2.1
		c1.9,0,3.4-1.5,3.4-3.4v-19.9"/>
	<path style="fill:none;stroke:#000000;stroke-miterlimit:10;" d="M-1340.4,581.9c-0.6,1.2-1.5,2.4-1.5,3c-0.1,1.2,1.9,4.5,1.5,5.6
		c-0.4,1.1-4,2.4-4.7,3.4c-0.6,1-0.6,4.8-1.5,5.6c-0.9,0.7-4.7,0.1-5.7,0.6c-0.8,0.4-2,2.4-3.1,3.4c-0.4,0.3-0.7,0.6-1,0.6
		c-1.1,0.2-4.1-2.3-5.3-2.3c-0.5,0-1.6,0.4-2.7,0.8c-1.2,0.4-2.3,0.9-2.9,0.7c-1.1-0.4-2.4-4-3.4-4.7s-4.8-0.6-5.6-1.5
		c-0.7-0.9-0.1-4.7-0.6-5.7c-0.5-1-3.9-2.9-4.1-4.1c-0.2-1.1,2.1-3.9,2.3-5.2c0,0,0-0.1,0-0.1c0.1-1.2-1.9-4.5-1.5-5.6
		c0.4-1.1,4-2.4,4.7-3.4c0.6-1,0.6-4.8,1.5-5.6c0.9-0.7,4.7-0.1,5.7-0.6s3-3.9,4.1-4.1c1.2-0.2,4.1,2.2,5.3,2.3s4.5-1.9,5.6-1.5
		s2.4,4,3.4,4.7c1,0.6,4.8,0.6,5.6,1.5c0.7,0.9,0.1,4.7,0.6,5.7c0.5,1.1,3.9,2.9,4.1,4.1C-1339.4,580.2-1339.8,581-1340.4,581.9z"/>
</g>
<g transform="matrix(.25064 .022716 -.024212 .23515 547.35 -3.893)">
	<path style="fill:none;stroke:#000000;stroke-miterlimit:10;" d="M-1315.4,659v0.6v20.7c0,1.9,1.5,3.4,3.4,3.4h2.1
		c1.9,0,3.4-1.5,3.4-3.4v-19.9v-2.8"/>
	<path style="fill:none;stroke:#000000;stroke-miterlimit:10;" d="M-1293,641.9c-0.1,1.2,1.9,4.5,1.5,5.6c-0.4,1.1-4,2.4-4.7,3.4
		c-0.6,1-0.6,4.8-1.5,5.6c-0.1,0-0.1,0.1-0.2,0.1c-0.7,0.1-1.4,0.2-2.1,0.3l0,0c-1.3,0-2.9-0.1-3.5,0.2c-0.1,0.1-0.2,0.2-0.4,0.3
		l0,0c-0.9,0.1-1.8,0.2-2.7,0.4c-3,0.4-5.9,0.8-8.9,1.3c-1.3,0.2-2.5,0.4-3.7,0.6l0,0c-0.9-1.2-1.8-3.4-2.6-3.9
		c-1-0.6-4.8-0.6-5.6-1.5c-0.7-0.9-0.1-4.7-0.6-5.7c-0.5-1.1-3.9-3-4.1-4.1c-0.2-1.1,2.2-4.1,2.3-5.3c0.1-1.2-1.9-4.5-1.5-5.6
		c0.4-1.1,4-2.4,4.7-3.4c0.6-1,0.6-4.8,1.5-5.6s4.7-0.1,5.7-0.6c1.1-0.5,3-3.9,4.1-4.1c1.1-0.2,4.1,2.3,5.3,2.3
		c1.2,0.1,4.5-1.9,5.6-1.5c1.1,0.4,2.4,4,3.4,4.7c1,0.6,4.8,0.6,5.6,1.5s0.1,4.7,0.6,5.7c0.5,1.1,3.9,3,4.1,4.1
		C-1290.4,637.7-1292.9,640.7-1293,641.9z"/>
	<path style="fill:none;stroke:#000000;stroke-miterlimit:10;" d="M-1306.5,657.7c0.9-0.1,1.8-0.2,2.7-0.4c-0.8,0.7-1.8,2.3-2.7,3.2
		c-0.3,0.3-0.7,0.6-1,0.6c-1.2,0.2-4.1-2.3-5.3-2.3c-0.5,0-1.6,0.4-2.7,0.8c-1.2,0.5-2.3,0.9-2.9,0.7c-0.2-0.1-0.5-0.4-0.8-0.7
		c1.3-0.2,2.4-0.4,3.7-0.6C-1312.5,658.5-1309.5,658.1-1306.5,657.7z"/>
	<path style="fill:none;stroke:#000000;stroke-miterlimit:10;" d="M-1297.9,656.6c-0.4,0.2-1.2,0.2-2.1,0.3
		C-1299.2,656.7-1298.6,656.6-1297.9,656.6z"/>
</g>
<g transform="matrix(.21834 .018418 -.021091 .19067 642.77 3.4012)">
	<path style="fill:none;stroke:#000000;stroke-miterlimit:10;" d="M-1805.6,777.3V798c0,1.9,1.5,3.4,3.4,3.4h2.1
		c1.9,0,3.4-1.5,3.4-3.4v-19.9"/>
	<path style="fill:none;stroke:#000000;stroke-miterlimit:10;" d="M-1783.2,759.6c-0.1,1.2,1.9,4.5,1.5,5.6c-0.4,1.1-4,2.4-4.7,3.4
		c-0.6,1-0.6,4.8-1.5,5.6c-0.9,0.7-4.7,0.1-5.7,0.6c-0.8,0.4-2.1,2.4-3.1,3.4c-0.3,0.3-0.7,0.6-1,0.6c-1.1,0.2-4.1-2.2-5.3-2.3
		c-0.5-0.1-1.6,0.4-2.7,0.8c-1.2,0.4-2.3,0.9-2.9,0.7c-1.1-0.4-2.4-4-3.4-4.7c-1-0.6-4.8-0.6-5.6-1.5c-0.7-0.9-0.1-4.7-0.6-5.7
		c-0.5-1.1-3.9-3-4.1-4.1c-0.2-1.1,2.3-4.1,2.3-5.3c0.1-1.2-1.9-4.5-1.5-5.6c0.4-1.1,4-2.4,4.7-3.4c0.6-1,0.6-4.8,1.5-5.6
		s4.7-0.1,5.7-0.6c1.1-0.5,3-3.9,4.1-4.1c1.2-0.2,4.1,2.3,5.3,2.3c1.2,0.1,4.5-1.9,5.6-1.5c1.1,0.4,2.4,4,3.4,4.7s4.8,0.6,5.6,1.5
		c0.7,0.9,0.1,4.7,0.6,5.7c0.5,1.1,3.9,3,4.1,4.1C-1780.7,755.4-1783.1,758.4-1783.2,759.6z"/>
</g>
<path style="fill:none;stroke:#000000;stroke-miterlimit:10;" d="M89.4,97.5c-3.3,0-5.9,1.8-5.9,4.1c0,0.7,0.3,1.5,0.8,2
	c-3.5,0.8-5.9,2.2-5.9,3.9c0,0.3,0.1,0.7,0.3,1c-2.9,0.4-5.1,1.7-5.1,3.3c0,1.9,3.2,3.4,7.1,3.4c3.8,0,6.9-1.4,7.1-3.2
	c0.9,0.1,1.9,0.1,2.9,0.1c5.3,0,9.8-1.2,11.6-2.9c0.8,0.1,1.7,0.2,2.5,0.2c5.3,0,9.5-2.4,9.5-5.4s-4.2-5.4-9.5-5.4
	c-4.9,0-8.9,2.1-9.5,4.8c-0.2,0-0.4-0.1-0.6-0.1c0.3-0.5,0.5-1.1,0.5-1.6C95.3,99.4,92.7,97.5,89.4,97.5L89.4,97.5z"/>
<path style="fill:none;stroke:#000000;stroke-miterlimit:10;" d="M193.4,95.3c-1.8,0-3.3,1.2-3.7,2.8c-0.4-0.1-0.7-0.2-1.2-0.2
	c-1.6,0-2.9,1.1-2.9,2.5s1.3,2.5,2.9,2.5c0.8,0,1.5-0.3,2.1-0.7c0.2,0.9,0.8,1.6,1.7,1.6c0.5,0,1-0.3,1.3-0.7c1,0,1.8-0.4,2.5-0.9
	c0.3,0.4,0.7,0.6,1.2,0.6c1,0,1.7-0.9,1.7-2c0-1.1-0.7-2-1.6-2C197,96.7,195.4,95.3,193.4,95.3z"/>
<path style="fill:none;stroke:#000000;stroke-miterlimit:10;" d="M7.3,94.2c-0.1,0.2-0.1,0.5-0.1,0.7c0,0.5,0.1,1,0.4,1.4
	c-4.1,0.6-7.1,2.4-7.1,4.6c0,2.7,4.5,4.8,10.1,4.8c5.3,0,9.7-2,10-4.5c1.3,0.1,2.7,0.2,4.1,0.2c7.4,0,13.7-1.7,16.3-4.1
	c1.2,0.2,2.3,0.3,3.6,0.3c4.6,0,8.7-1.3,11.2-3.4L7.3,94.2L7.3,94.2z"/>
<path style="fill:none;stroke:#000000;stroke-miterlimit:10;" d="M137.5,140l-5.6,0.4c15.4,5.4,30.2,11.7,36.2,21.4l10.3-0.1
	C173.2,151.5,149.5,146,137.5,140L137.5,140z"/>
<path style="fill:none;stroke:#000000;stroke-miterlimit:10;" d="M152,139.1l-6.7,0.3c15.4,5.4,39.4,12.5,45.5,22.3l10.2,0
	C195.8,151.5,163.4,145.4,152,139.1L152,139.1z"/>
<path style="fill:none;stroke:#000000;stroke-miterlimit:10;" d="M161.8,138.9l-3.2,0.1c15.4,5.4,51.1,13.1,57.1,22.8h12.6
	C223.1,151.5,175.3,143.7,161.8,138.9L161.8,138.9z"/>
<path style="fill:none;stroke:#000000;stroke-miterlimit:10;" d="M177,138.5l-6.4-0.2c18.4,3.1,60.1,13.7,66.1,23.5l15.8,0
	C247.3,151.5,184.7,139.5,177,138.5L177,138.5z"/>
</svg>
