<?xml version="1.0" encoding="utf-8"?>
<!-- Generator: Adobe Illustrator 17.0.0, SVG Export Plug-In . SVG Version: 6.00 Build 0)  -->
<!DOCTYPE svg PUBLIC "-//W3C//DTD SVG 1.1//EN" "http://www.w3.org/Graphics/SVG/1.1/DTD/svg11.dtd" [
	<!ENTITY ns_flows "http://ns.adobe.com/Flows/1.0/">
	<!ENTITY ns_extend "http://ns.adobe.com/Extensibility/1.0/">
	<!ENTITY ns_ai "http://ns.adobe.com/AdobeIllustrator/10.0/">
	<!ENTITY ns_graphs "http://ns.adobe.com/Graphs/1.0/">
]>
<svg version="1.1" id="Layer_1" xmlns:x="&ns_extend;" xmlns:i="&ns_ai;" xmlns:graph="&ns_graphs;"
	 xmlns="http://www.w3.org/2000/svg" xmlns:xlink="http://www.w3.org/1999/xlink" xmlns:a="http://ns.adobe.com/AdobeSVGViewerExtensions/3.0/"
	 x="0px" y="0px" width="256px" height="256px" viewBox="0 0 256 256" style="enable-background:new 0 0 256 256;"
	 xml:space="preserve">
<g id="layer1">
	<g>
		<path style="fill:none;stroke:#000000;stroke-width:2;stroke-miterlimit:10;" d="M36,60.5l0.6,0.7c0.3,0.4,0.7,0.8,0.8,0.9
			c0.1,0.1,0.4,0.2,0.8,0.2h0c0,0,0,0,0.1,0c0.4,0,0.7,0.1,0.9,0.3c0.2,0.2,0.4,0.3,1.3,0.3c0.2,0,0.4,0,0.6,0c0.2,0,0.3,0,0.4,0
			c1,0,1.3,0.1,1.7,0.3c0.3,0.1,0.7,0.3,0.9,0.3c0.3,0.1,0.4,0.2,0.5,0.4c0.1,0.2,0.4,0.5,0.6,0.8c0.4,0.4,0.6,0.4,1.6,0.4
			c0.8,0,1.2,0.1,1.4,0.3c0.2,0.2,0.5,0.3,0.9,0.3h0c0,0,0,0,0,0c0.4,0,0.7,0.1,0.8,0.3c0.3,0.3,0.4,0.4,0.7,0.4
			c0.2,0,0.5-0.1,1-0.2c0.5-0.1,1-0.2,1.2-0.2c0,0,0,0,0.1,0c0.1,0,0.2,0.3,0.2,0.5c0,0.7,0.2,0.9,1,0.9c0.6,0,0.7,0.1,0.7,0.4
			c0,0.2,0.2,0.4,0.4,0.5c0.2,0.1,0.2,0.1,0.3,0.1c0.1,0,0.2-0.1,0.3-0.2c0.2-0.2,0.6-0.3,1.3-0.3c0.3,0,0.6,0,0.8,0
			c0.6,0,0.9,0.1,1,0.5c0.1,0.5,0.3,0.7,0.8,0.7c0,0,0,0,0,0l0,0c0.3,0,0.6,0.1,0.8,0.3c0.3,0.2,0.5,0.3,1.3,0.3c0.1,0,0.2,0,0.3,0
			c0.2,0,0.3,0,0.4,0c0.8,0,0.9,0.1,1.2,0.4c0.2,0.2,0.4,0.5,0.5,0.8c0.1,0.3,0.3,0.5,0.7,0.8c0.4,0.2,0.7,0.4,0.7,0.4l0,0l0,0
			c0,0,0.2,0.2,0.3,0.4c0.2,0.3,0.4,0.4,0.7,0.4c0.1,0,0.3-0.1,0.3-0.2c0-0.1,0.3-0.1,0.6-0.1h0c0.4,0,0.6,0.1,1,0.5
			c0.3,0.4,0.4,0.4,0.7,0.4c0.1,0,0.2,0,0.3,0c0.5-0.1,1.5-0.7,1.5-0.8c0-0.1,0.1-0.1,0.1-0.1c0.2,0,0.5,0.2,0.9,0.5
			c0.3,0.3,0.4,0.4,0.5,0.4c0.1,0,0.1,0,0.2-0.1c0.2-0.1,0.5-0.2,0.9-0.2c0.5,0,0.7-0.1,0.8-0.3c0.1-0.2,0.4-0.3,0.7-0.3
			c0.3,0,0.5,0.1,0.7,0.2c0.2,0.2,0.6,0.2,1.6,0.3c0.3,0,0.5,0,0.6,0c0.7,0,0.8-0.1,0.9-0.3c0.2-0.3,0.4-0.3,1.3-0.3
			c0.8,0,1.2,0.1,1.4,0.2c0.2,0.1,0.5,0.2,0.8,0.2c0.2,0,0.4-0.1,0.5-0.2c0-0.1,0.3-0.2,0.5-0.3c0.3-0.1,0.5-0.2,0.6-0.3
			c0.1-0.1,0.5-0.2,0.8-0.2s0.7,0.1,0.8,0.2c0.1,0.1,0.4,0.3,0.7,0.3c0.1,0,0.2,0,0.4,0c0.4,0,1-0.2,1.9-0.6
			c0.3-0.1,0.5-0.2,0.8-0.2c0.3,0,0.6,0.1,0.8,0.3c0.2,0.2,0.7,0.3,1.1,0.4c0.2,0,0.4,0,0.5,0c0.3,0,0.4-0.1,0.7-0.3
			c0.3-0.3,0.7-0.4,1.2-0.4c0.4,0,0.7,0.1,0.8,0.3c0.2,0.2,0.5,0.3,1,0.3c0.4,0,0.7,0.1,0.9,0.1c0.4,0,0.5-0.1,0.8-0.3
			c0.3-0.2,0.4-0.2,0.8-0.2c0.2,0,0.4,0,0.8,0c0.7,0,1.3,0.2,1.5,0.3c0.2,0.1,0.3,0.2,0.5,0.2c0.2,0,0.4-0.1,0.7-0.3
			c0.3-0.2,1-0.4,1.7-0.4c0.5,0,0.9,0.1,1.1,0.2c0.2,0.2,0.4,0.3,0.7,0.3c0.2,0,0.4-0.1,0.5-0.2c0.3-0.3,0.6-0.3,1.5-0.4
			c0.2,0,0.3,0,0.5,0c0.6,0,0.7,0.1,0.8,0.2c0.2,0.2,0.5,0.3,0.8,0.3c0.3,0,0.5-0.1,0.7-0.2c0.8-0.4,1.1-0.6,1.2-0.8
			c0.1-0.1,0.2-0.2,0.3-0.2c0.1,0,0.2-0.1,0.3-0.3c0-0.1,0.2-0.3,0.3-0.3c0.1,0,0.4-0.1,0.6-0.3c0.4-0.3,0.5-0.3,3.1-0.3
			c0.3,0,0.5,0,0.8,0c1.6,0,2,0,2.2,0.2c0.2,0.1,0.7,0.3,1.1,0.3c0.4,0,0.8,0.2,0.8,0.3s0.4,0.2,0.6,0.3c0.3,0.1,0.6,0.2,0.8,0.3
			c0.1,0.2,0.3,0.3,0.4,0.3l0,0l0,0c0.1,0,0.5,0.2,0.9,0.5c1.3,0.9,1.8,1.2,2.1,1.2c0.2,0,0.3-0.1,0.4-0.2c0.2-0.1,0.5-0.2,0.8-0.2
			c0.3,0,0.5,0.1,0.7,0.2c0.2,0.1,0.5,0.4,0.8,0.6c0.3,0.2,0.5,0.4,0.6,0.4c0,0,0,0,0.1,0c0.3-0.1,1-0.2,1.6-0.2c0.2,0,0.4,0,0.6,0
			c0.5,0.1,0.6,0.1,0.7,0.5c0.1,0.3,0.2,0.4,0.5,0.5c0,0,0.1,0,0.1,0c0.2,0,0.3-0.1,0.4-0.2c0.1-0.2,0.3-0.2,1.2-0.2
			c0.1,0,0.2,0,0.2,0c0.7,0,0.9,0.1,1.2,0.3c0.2,0.2,0.4,0.4,0.5,0.5s0.4,0.2,0.6,0.2c0.2,0,0.4,0,0.4-0.1c0.1-0.1,0.2-0.2,0.4-0.2
			c0.5,0,1.4,0.3,2,0.8c0.1,0.1,0.3,0.1,0.6,0.1c0.4,0,1-0.1,1.6-0.2c0.1,0,0.2,0,0.3,0c0.2,0,0.3,0,0.4,0.2
			c0.1,0.1,0.3,0.2,0.4,0.2l0,0l0,0c0.1,0,0.2,0.1,0.3,0.2c0,0.1,0.2,0.2,0.4,0.2l0,0c0.2,0,0.4-0.1,0.5-0.2c0.1-0.1,0.4-0.2,1-0.2
			c0,0,0.1,0,0.1,0c0.6,0,0.7,0.1,0.9,0.3c0.1,0.2,0.3,0.3,0.4,0.3l0,0l0,0c0.1,0,0.2,0.1,0.3,0.2c0,0.1,0.2,0.2,0.3,0.2
			c0.2,0,0.4-0.1,0.6-0.2c0.2-0.1,0.7-0.2,1-0.2c0,0,0,0,0.1,0c0.4,0,0.6,0.1,0.6,0.3c0.1,0.3,0.5,0.4,0.8,0.4c0.1,0,0.2,0,0.3-0.1
			c0.2-0.1,0.7-0.1,1.3-0.1c0.1,0,0.3,0,0.4,0c0.5,0,0.7,0.1,0.8,0.2c0.1,0.2,0.4,0.3,2.1,0.3c1.8,0.1,2,0.1,2.3,0.4
			c0.3,0.2,0.4,0.3,1,0.3c0.3,0,0.6,0,1.1,0c1.2-0.1,1.8-0.1,2.1-0.3c0.3-0.1,0.4-0.2,0.6-0.2c0.2,0,0.4,0.1,0.8,0.4
			c0.3,0.3,0.5,0.4,0.6,0.4c0.1,0,0.3-0.1,0.4-0.3c0.2-0.2,0.4-0.3,0.5-0.3s0.3-0.1,0.3-0.2c0.1-0.1,0.3-0.2,0.5-0.2
			c0.4,0,0.8,0.2,0.8,0.5c0,0.1,0.2,0.2,0.3,0.3c0.1,0.1,0.3,0.1,0.4,0.1c0.2,0,0.5-0.1,0.8-0.4c0.1-0.1,0.5-0.2,0.9-0.2
			c0,0,0.1,0,0.1,0c0.5,0,0.7,0.1,0.9,0.4c0.2,0.2,0.3,0.3,0.4,0.3c0.1,0,0.1,0,0.2,0c0.2,0,0.4-0.2,0.4-0.3c0-0.1,0.1-0.2,0.2-0.2
			c0.1,0,0.3-0.1,0.4-0.3c0.2-0.2,0.4-0.3,0.6-0.3c0.3,0,0.6,0.2,1,0.5c0.3,0.4,0.6,0.5,0.8,0.5c0.2,0,0.3-0.1,0.4-0.3
			c0.2-0.3,1-0.7,1.4-0.7l0,0c0.1,0,0.4,0.2,0.7,0.4c0.3,0.3,0.5,0.4,0.7,0.4c0.2,0,0.4-0.1,0.6-0.3c0.3-0.3,0.5-0.4,1.2-0.4
			c0.1,0,0.1,0,0.2,0c0.6,0,0.8,0.1,1,0.3c0.2,0.2,0.4,0.3,0.5,0.3l0,0c0.4,0,0.6-0.2,0.6-0.4c0-0.2,0.6-0.3,1.2-0.3
			c0.2,0,0.3,0,0.4,0c0.3,0.1,0.5,0.2,0.6,0.4c0.1,0.2,0.3,0.3,0.5,0.3c0.2,0,0.4-0.1,0.5-0.3c0.2-0.2,1.6-0.7,2.1-0.7l0,0
			c0.1,0,0.3,0.2,0.4,0.4c0.1,0.4,0.5,0.6,0.9,0.6c0.4,0,0.8-0.2,1.2-0.5c0.3-0.2,0.5-0.3,1.2-0.3c0.1,0,0.1,0,0.2,0
			c0.6,0,0.6,0.1,0.9,0.5c0.2,0.3,0.5,0.5,0.7,0.5c0.1,0,0.1-0.1,0.1-0.2c0-0.1,0.2-0.2,0.4-0.3c0.3-0.1,0.5-0.3,0.5-0.4
			c0.1-0.1,0.5-0.2,1-0.2c0.1,0,0.2,0,0.2,0c0.6,0,0.7,0,0.8,0.3c0,0.2,0.2,0.4,0.4,0.5c0.2,0.1,0.2,0.1,0.3,0.1
			c0.1,0,0.1-0.1,0.2-0.2c0.3-0.4,1.3-0.7,1.9-0.7c0.3,0,0.5,0.1,0.6,0.2c0.1,0.1,0.3,0.2,0.4,0.2l0,0l0,0c0.1,0,0.2,0.1,0.2,0.2
			c0,0.1,0.2,0.2,0.4,0.3c0.1,0,0.1,0,0.2,0c0.2,0,0.3-0.1,0.4-0.2c0.2-0.3,0.4-0.3,1.3-0.3c0.2,0,0.3,0,0.4,0
			c0.7,0,0.7,0.1,0.8,0.4c0.1,0.2,0.3,0.5,0.5,0.5c0.1,0.1,0.2,0.1,0.3,0.1c0.1,0,0.2-0.1,0.3-0.2c0.3-0.2,0.7-0.4,1.2-0.4
			c0.7,0,1.5,0.3,1.9,0.7c0.2,0.3,0.3,0.4,0.4,0.4c0.1,0,0.1,0,0.2-0.1c0.2-0.1,0.6-0.2,1.1-0.3c0.3,0,0.4,0,0.6,0
			c0.3,0,0.5,0.1,0.8,0.3c0.3,0.2,0.6,0.4,0.6,0.5c0.1,0.2,0.2,0.2,1,0.2c0.1,0,0.3,0,0.4,0s0.3,0,0.4,0c1.3,0,1.4,0.1,1.6,0.6
			c0.1,0.4,0.2,0.5,0.5,0.5c0.1,0,0.3,0,0.5-0.1c0.2,0,0.4-0.1,0.7-0.1c0.3,0,0.6,0,1.1,0.1c1.1,0.2,1.2,0.2,1.3,0.5
			c0.1,0.5,0.2,0.5,1.3,0.6c0.5,0,1,0.1,1.2,0.2c0.2,0.1,0.4,0.2,0.6,0.2l0,0l0,0c0.2,0,0.3,0.1,0.4,0.4c0.1,0.4,0.2,0.4,1.5,0.5
			c0.8,0,1.4,0.1,1.4,0.3c0.1,0.1,0.2,0.2,0.4,0.3c0.2,0.1,0.2,0.2,0.2,0.5c0,0.4,0.2,0.6,0.3,0.6c0.1,0,0.2-0.1,0.2-0.2
			c0.1-0.2,0.4-0.3,0.6-0.3c0.3,0,0.5,0.1,0.6,0.3c0.1,0.1,0.4,0.3,0.6,0.3c0.4,0.1,0.5,0.2,0.6,0.6c0.1,0.3,0.1,0.6,0.1,0.7
			c0,0.1,0,0.1,0,0.1c0,0,0.1,0,0.1-0.1c0.1-0.1,0.5-0.2,1-0.2c0.4,0,0.9,0.1,1,0.2c0.1,0.1,0.4,0.3,0.6,0.3
			c0.4,0.1,0.4,0.2,0.4,0.5c0.1,0.4,0.1,0.5,0.4,0.5c0.1,0,0.3,0,0.5-0.1c0.2-0.1,0.4-0.1,0.5-0.1c0.1,0,0.2,0,0.3,0.1
			c0.1,0.1,0.4,0.2,0.7,0.3c0.5,0.1,0.5,0.1,0.6,0.7c0.1,0.4,0.1,0.6,0.3,0.6c0,0,0,0,0.1,0c0.2,0,0.6-0.1,1.1-0.1
			c0.1,0,0.2,0,0.3,0c0.4,0,0.6,0.1,0.9,0.3c0.2,0.2,0.4,0.4,0.4,0.5c0,0.3,0.5,0.6,1.1,0.6l0,0l0,0c0.3,0,0.6,0.1,0.8,0.2
			c0.2,0.1,0.4,0.2,0.5,0.3c0.1,0,0.3,0.3,0.4,0.5c0.1,0.3,0.1,0.4,0.4,0.4c0.1,0,0.2,0,0.4,0c0.1,0,0.2,0,0.3,0
			c0.3,0,0.4,0.1,0.5,0.2c0.1,0.1,0.3,0.2,0.4,0.2l0,0l0,0c0.1,0,0.2,0.2,0.3,0.4c0.1,0.5,0.3,0.6,1,0.7c0.5,0.1,0.6,0.2,1.1,0.9
			c0.4,0.6,0.6,0.8,0.8,0.8l0,0l0,0c0.4,0,1,0.5,1.2,1.1c0.1,0.3,0.2,0.4,0.6,0.4c0.4,0.1,0.5,0.2,0.6,0.4c0.1,0.2,0.4,0.4,0.8,0.6
			c0.4,0.1,0.7,0.4,0.9,0.5c0.1,0.1,0.4,0.3,0.6,0.3c0.3,0,0.4,0.1,0.5,0.5c0.1,0.4,0.2,0.4,0.4,0.4c0.1,0,0.1,0,0.2,0
			c0,0,0.1,0,0.1,0c0.4,0,0.4,0.3,0.5,1.2c0,0.9-0.4,1.3-1.2,1.3c0,0,0,0,0,0c-0.3,0-0.7-0.1-0.9-0.2c-0.2-0.1-0.5-0.2-0.8-0.3
			c-0.3-0.1-0.6-0.2-0.7-0.3c-0.1-0.1-0.4-0.2-0.6-0.3c-0.3-0.1-0.6-0.2-0.8-0.3s-0.6-0.3-0.8-0.3c-0.3,0-0.5-0.1-0.5-0.2
			c0-0.1-0.2-0.2-0.5-0.3c-0.3-0.1-0.8-0.3-1.1-0.4c-0.3-0.1-0.6-0.3-0.8-0.3l0,0l0,0c-0.2,0-0.4-0.1-0.7-0.3
			c-0.2-0.2-0.5-0.3-0.7-0.3l0,0l0,0c-0.2,0-0.5-0.1-0.8-0.3s-0.6-0.3-0.8-0.3l0,0l0,0c-0.2,0-0.5-0.1-0.8-0.3
			c-0.3-0.1-0.8-0.3-1.1-0.3c-0.4-0.1-0.8-0.2-1-0.3c-0.2-0.1-0.6-0.2-1-0.3c-0.4-0.1-0.8-0.2-1-0.3c-0.2-0.1-0.7-0.2-1.2-0.3
			c-0.5-0.1-1-0.2-1.2-0.3c-0.2-0.1-0.7-0.2-1.1-0.3c-0.4,0-0.9-0.2-1.1-0.3c-0.2-0.1-0.7-0.2-1.2-0.3c-0.5,0-1-0.2-1.1-0.3
			c-0.1-0.1-0.6-0.2-1-0.3s-0.9-0.2-1.1-0.3c-0.2-0.1-0.7-0.3-1.2-0.3c-0.5-0.1-1-0.2-1.2-0.3c-0.2-0.1-0.8-0.2-1.7-0.3
			c-0.9,0-1.5-0.2-1.7-0.3c-0.2-0.2-0.8-0.2-2-0.2c-0.9,0-1.7-0.1-1.7-0.2c0-0.2-1-0.4-2.4-0.4c-0.1,0-0.2,0-0.2,0
			c-0.1,0-0.2,0-0.3,0c-0.9,0-1.4-0.1-1.7-0.2c-0.4-0.2-2.5-0.3-5.7-0.3c-0.5,0-1,0-1.5,0c-0.3,0-0.6,0-0.9,0
			c-1.4,0-2.1-0.1-2.5-0.2c-0.3-0.1-0.4-0.1-0.5-0.1c-0.1,0-0.3,0-0.4,0.1c-0.3,0.2-1.2,0.2-4.4,0.2c-3.8,0-4,0.1-4.5,0.3
			c-0.3,0.2-0.8,0.3-1.2,0.3c-1.1,0-2.9,0.3-3.1,0.4c-0.1,0.1-0.7,0.2-1.4,0.3c-0.7,0-1.3,0.2-1.5,0.3c-0.2,0.1-0.8,0.2-1.3,0.3
			c-0.6,0.1-1.1,0.2-1.3,0.3s-0.6,0.3-1.4,0.3c-0.7,0.1-1.3,0.2-1.4,0.3c-0.2,0.1-0.7,0.2-1.6,0.3c-1.1,0.1-1.4,0.1-1.6,0.3
			c-0.1,0.2-0.5,0.2-1.7,0.3c-1.1,0.1-1.7,0.2-1.8,0.3c-0.3,0.2-2.6,0.4-4.7,0.4c-0.1,0-0.2,0-0.3,0c0,0-0.1,0-0.1,0
			c-1,0-1.4,0-1.7,0.2c-0.6,0.3-3.8,0.4-11.7,0.5c-2.1,0-3.7,0-4.8,0c-3.1,0-3.3-0.1-3.4-0.2c-0.1-0.1-0.1-0.1-0.2-0.1
			c-0.1,0-0.2,0.1-0.4,0.2c-0.3,0.2-0.8,0.2-1.3,0.3c-0.7,0-0.9,0.1-1.2,0.3c-0.2,0.2-0.3,0.2-0.5,0.2c-0.1,0-0.3,0-0.6-0.1
			c-0.4-0.1-1.1-0.2-1.6-0.2c-0.1,0-0.2,0-0.2,0c-0.6,0-0.7,0-0.8,0.4c-0.1,0.3-0.4,0.7-0.6,1c-0.3,0.3-0.5,0.7-0.5,0.9
			c-0.1,0.2-0.2,0.4-0.5,0.4c-0.2,0-0.6,0.3-0.9,0.6c-0.3,0.3-0.7,0.5-1,0.6c-0.3,0.1-0.5,0.2-0.5,0.3c0,0.1-0.4,0.2-1.5,0.4
			c-0.8,0.1-1.6,0.3-1.9,0.3c-0.2,0.1-0.4,0.1-0.7,0.1c-0.5,0-1.3-0.1-2.9-0.2c-1.1-0.1-2.1-0.2-2.9-0.2c-1,0-1.7,0.1-1.9,0.2
			c-0.2,0.1-0.6,0.3-1.2,0.3c-0.5,0.1-1.2,0.2-1.5,0.4c-0.3,0.2-0.7,0.3-0.9,0.3c0,0-0.1,0-0.1,0l-0.4,0l0-0.9c0-0.5-0.1-1-0.2-1.1
			c-0.1-0.1-0.1-0.1-0.3-0.1c-0.2,0-0.4,0-0.8,0.1c-1.4,0.3-2.5,0.4-3.4,0.4c-0.2,0-0.4,0-0.6,0l-1.1-0.1V101c0-0.2,0.1-0.5,0.3-0.7
			c0.2-0.2,0.4-0.4,0.4-0.6c0-0.2,0-0.3,0-0.3c0,0-0.1,0-0.2,0c-0.2,0-0.5,0.1-0.8,0.2c-0.1,0-0.2,0-0.3,0c-0.3,0-0.4-0.1-0.8-0.4
			c-0.3-0.3-0.5-0.4-0.7-0.4c-0.1,0-0.1,0-0.2,0c-0.2,0.1-1.5,0.1-2.9,0.2c-0.7,0-1.2,0-1.7,0c-1,0-1.7,0-2.5-0.1
			c-1.2-0.1-3.1-0.2-8-0.2c-0.7,0-1.5,0-2.3,0c-6.4,0-9,0-9.7-0.2c-0.5-0.1-1.6-0.2-2.2-0.2c-0.2,0-0.4,0-0.5,0
			c-0.6,0-0.8,0.1-1,0.3c-0.2,0.2-0.3,0.3-0.4,0.3c-0.1,0-0.1,0.1-0.1,0.2c0,0.3-0.8,0.9-1.1,0.9c-0.1,0-0.4,0.1-0.5,0.3
			c-0.2,0.2-0.3,0.3-0.4,0.3c-0.1,0-0.3,0.2-0.4,0.4c-0.2,0.2-0.4,0.4-0.5,0.4c-0.1,0-0.3,0.1-0.4,0.3c-0.2,0.2-0.4,0.3-0.7,0.3
			c-0.3,0-0.7,0.1-1,0.3c-0.5,0.3-0.7,0.3-5.3,0.3c-1.1,0-2,0-2.6,0c-2.1,0-2.2-0.1-2.5-0.3c-0.2-0.2-0.4-0.3-0.5-0.3
			c-0.2,0-0.2,0.2-0.1,0.5c0.1,0.4,0,0.6-0.2,0.8c-0.2,0.2-0.4,0.3-0.6,0.3c-0.2,0-0.4-0.1-0.7-0.2c-0.3-0.1-0.8-0.2-1.3-0.3
			c-0.4,0-0.9-0.2-1-0.3c-0.1-0.1-0.3-0.2-0.4-0.2l0,0c-0.3,0-1,0.8-1.2,1.3c-0.1,0.7-0.5,1.3-0.7,1.3l0,0c-0.4,0-0.9-0.5-1-1
			c-0.1-0.6-0.8-1.1-1.4-1.1l0,0c-0.3,0-0.6-0.1-0.8-0.2c-0.2-0.1-0.4-0.2-0.6-0.2c-0.2,0-0.4,0.1-0.4,0.2c-0.1,0.2-0.3,0.2-0.9,0.2
			c-0.6,0-0.8,0.1-1,0.3c-0.2,0.2-0.3,0.3-1,0.3c-0.8,0-1.3-0.2-1.4-0.7c-0.1-0.2-0.4-0.2-1.1-0.3c-0.8,0-1-0.1-1.2-0.4
			c-0.1-0.2-0.3-0.3-0.4-0.3l0,0l0,0c-0.1,0-0.3-0.1-0.4-0.3l-0.3-0.3l-0.1,0.3c-0.1,0.3-0.2,0.3-0.6,0.3c0,0,0,0-0.1,0
			c-0.4,0-0.5,0-0.5-0.3c0-0.2,0.1-0.3,0.2-0.4c0.3-0.1,0.4-0.2,1.1-0.8c0.2-0.2,0.4-0.5,0.4-0.6c0-0.1,0.2-0.2,0.5-0.3
			c0.3-0.1,0.5-0.2,0.5-0.3c0-0.1,0.3-0.2,0.5-0.3c0.3-0.1,0.5-0.2,0.6-0.4c0.1-0.2,0.2-0.3,0.4-0.3c0.1,0,0.4-0.1,0.6-0.3
			c0.3-0.2,0.5-0.3,1.2-0.3c0,0,0.1,0,0.1,0c0.1,0,0.2,0,0.3,0c1.3,0,2.6-0.2,3-0.5c0.2-0.1,0.5-0.3,0.6-0.3c0.1,0,0.5-0.3,0.9-0.5
			c0.4-0.3,0.9-0.5,1.1-0.5c0.2,0,0.4-0.1,0.5-0.2c0.1-0.1,0.4-0.3,0.6-0.4c0.3-0.2,0.4-0.3,0.4-0.5c0-0.3-0.1-0.4-0.5-0.5
			c-0.2-0.1-0.3-0.1-0.4-0.1c-0.2,0-0.3,0-0.5,0.2S54.9,95,54.7,95c-0.1,0-0.3,0-0.5-0.1c-0.3-0.1-0.5-0.1-0.7-0.1
			c-0.2,0-0.4,0-0.7,0.1s-0.6,0.1-0.9,0.1c-0.3,0-0.6,0-1-0.1c-0.6-0.1-1.4-0.1-2-0.1c0,0-0.1,0-0.1,0c0,0-0.1,0-0.1,0
			c-0.6,0-0.9-0.1-1.1-0.2c-0.1-0.1-0.4-0.2-0.6-0.3c-0.2,0-0.6-0.2-0.9-0.3c-0.3-0.1-0.7-0.3-1-0.3l0,0l0,0c-0.2,0-0.5-0.1-0.6-0.3
			c-0.2-0.1-0.4-0.3-0.6-0.4c-0.7-0.2-1.8-0.7-1.9-0.8c-0.1-0.1-0.2-0.2-0.4-0.2l0,0l0,0c-0.1,0-0.4-0.1-0.6-0.3
			c-0.2-0.2-0.4-0.3-0.5-0.3l0,0l0,0c-0.1,0-0.5-0.4-1-0.8c-0.4-0.4-0.9-0.8-1-0.8l0,0l0,0c-0.1,0-0.1-0.1-0.1-0.2
			c0-0.2-0.9-1.1-1.1-1.1l0,0l0,0c-0.1,0-0.1-0.4-0.1-0.9c0-0.9-0.1-1-0.8-1.6C36.1,86,36,86,35.3,86c-0.3,0-0.8,0-1.4,0
			c-0.3,0-0.6,0-0.8,0c-0.7,0-0.9-0.1-1.2-0.2c-0.2-0.1-0.3-0.2-0.4-0.2s-0.2,0-0.3,0.1c-0.2,0.1-0.5,0.2-0.7,0.2h0
			c-0.3,0-0.3-0.1-0.3-0.5c0-0.6-0.2-0.7-1.1-0.7c-0.4,0-0.6-0.1-0.6-0.2C28.5,84.3,28,84,27.7,84c-0.1,0-0.1,0-0.2,0.1
			c-0.1,0.1-0.2,0.1-0.4,0.1c-0.2,0-0.4-0.1-0.5-0.4c-0.1-0.5-0.4-0.6-2.1-0.7c-0.9-0.1-1.9-0.2-2.3-0.3C22,82.7,21,82.6,20,82.6
			c-1,0-1.9-0.2-2.2-0.3c-0.3-0.1-1.3-0.2-2.3-0.3c-1-0.1-2-0.2-2.2-0.3c-0.2-0.1-0.8-0.2-1.4-0.3c-0.6-0.1-1.3-0.2-1.4-0.3
			c-0.2-0.1-0.5-0.2-0.9-0.3C8.5,80.8,7,79.8,7,79.1c0-0.4,0.3-1,0.6-1.1c0.1,0,0.2-0.2,0.2-0.3s0.2-0.2,0.5-0.3
			c0.3-0.1,0.6-0.2,0.7-0.3c0.1-0.2,0.6-0.2,2.1-0.2c2.2,0,3.5-0.2,3.6-0.4c0.1-0.1,0.4-0.2,0.8-0.3c0.4-0.1,0.8-0.2,1.1-0.4
			c0.2-0.2,0.5-0.3,0.6-0.3c0.3,0,1.2-0.6,1.5-0.9c0.2-0.2,1.3-0.4,2.2-0.4c0,0,0.1,0,0.1,0c0.4,0,0.6-0.1,0.6-0.1
			c0-0.1,0.1-0.1,0.3-0.1s0.3,0,0.3,0.1c0,0.1,0.5,0.1,1.1,0.1c1.1,0,2.6-0.1,2.8-0.2c0.1-0.1,0.4-0.2,0.8-0.3s0.7-0.2,0.8-0.4
			c0.1-0.1,0.4-0.2,0.6-0.2c0.2,0,0.6-0.1,0.9-0.2c0.3-0.1,0.9-0.3,1.3-0.3c0.8-0.1,1-0.3,0.8-0.6c-0.1-0.2-0.3-0.2-0.8-0.3
			c-1.5-0.1-3.3-0.3-3.8-0.6c-0.3-0.1-0.4-0.2-0.6-0.2c-0.1,0-0.2,0-0.3,0.1c-0.2,0.1-0.3,0.1-0.4,0.1c-0.2,0-0.3-0.1-0.4-0.4
			c-0.2-0.4-0.3-0.4-0.8-0.4c0,0-0.1,0-0.1,0h0c-0.4,0-0.7-0.1-0.9-0.3c-0.2-0.2-0.7-0.3-1.5-0.4c-0.6-0.1-1.3-0.2-1.4-0.3
			c-0.2-0.1-0.6-0.2-1.1-0.2c-0.5,0-1,0.1-1.3,0.2c-0.2,0.1-0.3,0.1-0.4,0.1c-0.1,0-0.2,0-0.3-0.1c-0.2-0.1-1.1-0.2-2.3-0.2
			c-0.2,0-0.3,0-0.4,0c0,0-0.1,0-0.1,0c-0.5,0-0.7,0-0.7-0.2c0-0.1-0.1-0.3-0.3-0.3c-0.2-0.1-0.4-0.2-0.5-0.3
			c-0.1-0.1-0.3-0.2-0.4-0.2l0,0l0,0c-0.2,0-0.4-0.2-0.6-0.3c-0.2-0.2-0.4-0.3-0.6-0.3l0,0l0,0c-0.2,0-0.4-0.1-0.5-0.1
			c0,0-0.1,0-0.1,0c-0.2,0-0.4,0-0.6,0.1c-0.3,0.1-0.6,0.1-0.9,0.1c-1,0-2.2-0.3-2.3-0.8c-0.1-0.2-0.3-0.3-0.4-0.3
			c-0.7-0.1-0.7-0.2-0.7-0.6c0-0.3-0.1-0.4-0.3-0.6c-0.4-0.2-0.4-1.2,0-1.8c0.2-0.2,0.3-0.5,0.3-0.7c0-0.2,0.3-0.6,0.6-1
			c0.5-0.6,0.7-0.7,1.1-0.7c0.3,0,0.7-0.1,0.9-0.3c0.4-0.2,0.8-0.3,1.2-0.3c0.4,0,0.9,0.1,1.2,0.4c0.5,0.4,0.7,0.5,1.3,1
			c0.2,0.2,0.5,0.3,0.6,0.3l0,0l0,0c0.1,0,0.4,0.1,0.5,0.3C13.1,63,13.3,63,14,63c0.1,0,0.1,0,0.2,0c0,0,0,0,0.1,0
			c0.6,0,1.3,0.1,1.8,0.3c0.5,0.1,1.1,0.3,1.3,0.3l0,0l0,0c0.3,0,0.7,0.1,1.1,0.3c0.6,0.3,2.2,0.4,5.1,0.5c0.1,0,0.1,0,0.2,0
			c1.2,0,3-0.3,3.4-0.6c0.2-0.2,0.5-0.3,0.7-0.3c0.2,0,0.4-0.1,0.4-0.3c0.1-0.2,0.2-0.3,0.6-0.3c0.4,0,0.7-0.1,0.8-0.3
			c0.1-0.1,0.4-0.3,0.5-0.4c0.2,0,0.3-0.1,0.3-0.2c0-0.2,1.3-0.8,2-0.9c0.3-0.1,0.8-0.2,0.9-0.4c0.2-0.2,0.6-0.2,1.3-0.3L36,60.5z"
			/>
	</g>
</g>
</svg>
