<?xml version="1.0" encoding="utf-8"?>
<!-- Generator: Adobe Illustrator 17.0.0, SVG Export Plug-In . SVG Version: 6.00 Build 0)  -->
<!DOCTYPE svg PUBLIC "-//W3C//DTD SVG 1.1//EN" "http://www.w3.org/Graphics/SVG/1.1/DTD/svg11.dtd" [
	<!ENTITY ns_flows "http://ns.adobe.com/Flows/1.0/">
	<!ENTITY ns_extend "http://ns.adobe.com/Extensibility/1.0/">
	<!ENTITY ns_ai "http://ns.adobe.com/AdobeIllustrator/10.0/">
	<!ENTITY ns_graphs "http://ns.adobe.com/Graphs/1.0/">
]>
<svg version="1.1" id="Layer_1" xmlns:x="&ns_extend;" xmlns:i="&ns_ai;" xmlns:graph="&ns_graphs;"
	 xmlns="http://www.w3.org/2000/svg" xmlns:xlink="http://www.w3.org/1999/xlink" xmlns:a="http://ns.adobe.com/AdobeSVGViewerExtensions/3.0/"
	 x="0px" y="0px" width="256px" height="256px" viewBox="0 0 256 256" style="enable-background:new 0 0 256 256;"
	 xml:space="preserve">
<g transform="translate(0.000000,871.000000) scale(0.100000,-0.100000)">
	<path style="fill:none;stroke:#000000;stroke-width:3;stroke-miterlimit:10;" d="M958,8284.2c-19.6-26.4-41.4-50.2-80.2-87.2
		c-91.4-87-122.6-120.8-147-159c-24-37.4-40-77.4-47.6-119.6l-4.4-23.6l-12.8,16.6c-18.2,23.8-61.8,66.4-83.6,81.6
		c-31.8,22.4-65.6,38-102.2,47.2c-40.6,10.4-65,12.4-171.2,14.8c-47.2,1-95,2.8-106,4c-25.6,2.6-65.2,9.2-83.4,14
		c-13,3.4-14.6,3.4-20.8,0.6c-7-3.4-10.8-10.8-10.8-21c0-13.6,12.4-26.4,37-37.6c18-8.4,42.6-16.6,140-47
		c128.6-40.2,225.4-78.4,316-124.6c23-11.8,23.6-12.2,16-12.2c-12.8-0.2-56.2-6-78-10.4c-120.8-24.2-223.6-93.2-289.4-193.8
		c-25.6-39-44.6-84.8-49.6-119.4c-3.2-21.8-2.2-24.8,8.6-28.8l9-3.2l30.6,31c65.4,65.8,105,90.8,192.8,122.4
		c87.8,31.4,107.6,39.6,162,67.8c28.8,15,74.6,41.4,96,55.4l5.6,3.8l-3-5c-11.2-17.8-98.8-166.4-138-234
		c-217.2-374.8-327.4-600.2-345.8-707c-1-6.6-2.8-27.2-3.6-46c-1.4-27.4-2.6-36.2-6.2-45.6c-2.4-6.2-4-12.4-3.6-13.6
		c0.4-1.2-17.8-11.6-40.4-23.2c-39.4-20.4-90-48.2-115-63.4c-6.6-4-13.8-7.2-16-7.2s-5.6-2.4-7.8-5.2c-3.6-5.2-3.6-5.2,2.8-11.8
		c5.6-5.8,7-6.4,11.2-4.6c3.4,1.6,18.8,1.6,54.2-0.2c108.8-5,163.4-7.2,341.6-13.2c238.8-8.2,624-12.4,875-9.6
		c196,2.2,291.4,1.6,509-3.8c135.6-3.2,422.6-3.2,492,0c87.2,4.2,174.2,10.4,237,17l23,2.4v10c0,8.4-0.6,10-4,10.8
		c-2.2,0.4-16.2,8-31,17.2c-308.8,187.8-634.2,298.6-981,334c-126.8,13-279.6,14.4-415,3.8C953,6945,768,6911,609.2,6864
		c-20.8-6.2-38.6-10.4-39.4-9.6c-6,6.4-17.8,53.4-22,87.4c-3.8,31-1.2,102,5.2,145.2c21.6,145.6,82.6,321.8,188.6,545
		c40.2,84.6,60.4,125,62.4,125c6.4,0,31.8-16.2,45.8-29c20.2-18.4,30.6-35.4,68-110.4c37.2-74,57-104,90.8-137.2
		c44.4-43.4,107.4-79,178.4-100.4c10-3,19-5.8,20.2-6.4c1-0.4,4.8,3.2,8.2,7.8l6,8.6l-12.6,20c-24,37.8-48.4,89.4-87.8,186
		c-29.6,72.6-56.6,118.6-88,150c-29.6,29.8-61.2,48.4-105.4,61.8l-21.6,6.6l14.4,2.4c26,4.6,77.8,18.2,110.6,29.2
		c110.8,36.8,205,90.4,285.2,162.2c22,19.8,49.8,49.4,49.8,53.2c0,1.2-2,5.4-4.4,9.4c-2.4,4-4.4,7.4-4.6,7.6
		c-1.2,2-182.6-36.4-248-52.4c-140.6-34.8-199.6-59.4-256-107.2c-22.6-19.2-33.2-27.6-42-33c-6-3.6-6-3.6-3,0.2
		c12.4,15.6,32.6,37.8,68,74.2c69.8,71.6,100.4,115,117,165.8c14.8,45.4,14.8,97.4,0,146.2c-3,9.8-6.4,18.8-7.6,20
		c-1.4,1.2-6,2.8-10.4,3.4C967.2,8296.4,966.8,8296.2,958,8284.2z"/>
</g>
</svg>
