<?xml version="1.0" encoding="utf-8"?>
<!-- Generator: Adobe Illustrator 17.0.0, SVG Export Plug-In . SVG Version: 6.00 Build 0)  -->
<!DOCTYPE svg PUBLIC "-//W3C//DTD SVG 1.1//EN" "http://www.w3.org/Graphics/SVG/1.1/DTD/svg11.dtd" [
	<!ENTITY ns_flows "http://ns.adobe.com/Flows/1.0/">
	<!ENTITY ns_extend "http://ns.adobe.com/Extensibility/1.0/">
	<!ENTITY ns_ai "http://ns.adobe.com/AdobeIllustrator/10.0/">
	<!ENTITY ns_graphs "http://ns.adobe.com/Graphs/1.0/">
]>
<svg version="1.1" id="Layer_1" xmlns:x="&ns_extend;" xmlns:i="&ns_ai;" xmlns:graph="&ns_graphs;"
	 xmlns="http://www.w3.org/2000/svg" xmlns:xlink="http://www.w3.org/1999/xlink" xmlns:a="http://ns.adobe.com/AdobeSVGViewerExtensions/3.0/"
	 x="0px" y="0px" width="256px" height="256px" viewBox="0 0 256 256" style="enable-background:new 0 0 256 256;"
	 xml:space="preserve">
<path shape-rendering="auto" image-rendering="auto" color-rendering="auto" d="M203.8,91.7c0.6,2.3,0.8,5.4-2.3,6.2
	c0,2.3,0.6,5.1-0.6,6.2c-0.8,0.8-3.4,0.8-4.8,1.1c-0.6,1.7-0.3,3.4-0.6,5.4c-0.3,1.4-2.5,1.4-4,1.1c-0.8,2-1.4,4.5-2.5,5.1
	c-1.4,0.6-4.2,0.3-5.7,0.8c0,1.4-0.3,3.7-2,4c-2,0.6-4,0-5.9,0.8c5.1,2,6.2,1.7,8.5,0.8c1.4-0.6,1.1-2.5,1.7-3.4
	c2.3-0.3,4.5-0.6,5.9-2.3c1.1-1.1,0.8-2.3,1.4-3.4c1.1,0,3.4-0.6,4-1.1c0.6-0.8,1.7-3.4,0.3-6.2c4.2,0.6,5.4,0.6,6.2-2.8
	c0.3-1.4-0.3-2.8-1.1-4.8c1.4-0.6,2.8-2.3,2.8-2.8C205.5,94.5,204.9,93.3,203.8,91.7L203.8,91.7z"/>
<g transform="matrix(1.0886 0 0 1.0886 -3.5562 -86.592)" shape-rendering="auto">
	<path image-rendering="auto" color-rendering="auto" d="M130.3,196.2c2.8,2.8,7.1,5.9,7.4,10.5c0,2-2,3.7-3.4,5.1
		c-0.3,2-0.6,4.8-1.7,6.5c-1.7,2.5-4.2,3.7-4.8,4.2c0.3,2.5,1.1,4,0.6,6.2c-0.6,2.3-2.3,5.4-2.5,7.1c-0.6,3.4-3.4,7.6-6.5,7.4
		c0,2.3-1.1,4-2,5.7c-1.4,2.5-3.4,4.2-5.4,5.4c4.2-0.6,7.6-4.5,8.8-9.6c2,0.8,3.7-1.4,4.8-3.4c1.1-1.7,2-4.2,2.5-6.2
		c1.1-3.7,3.1-7.9,1.7-11.9c1.7-0.6,4-1.7,5.1-4c1.1-2,1.1-5.1,1.4-7.1c2-1.1,3.4-2.5,3.7-4.5C140.2,204.2,136.6,199.4,130.3,196.2
		L130.3,196.2z"/>
	<path image-rendering="auto" color-rendering="auto" d="M107.7,199.6c-2.3,1.1-4.5,2-7.1,1.7c-0.8,0-2-0.3-2.8-0.6
		c2.3,2.3,6.8,2.8,8.8,2c0.8-0.3,1.7-0.8,3.7-1.4c4-0.8,7.9,0.6,9.9-1.7c-1.7-0.3-3.4,0-5.4-0.3C112.5,199.4,110,198.5,107.7,199.6
		L107.7,199.6z"/>
</g>
<path shape-rendering="auto" image-rendering="auto" color-rendering="auto" d="M115,118.2c-1.7,0-3.4,0.8-4.8,1.7
	c-2,1.1-3.7,2.5-5.1,4.2c-2.8,3.1-4.2,2.8-6.5,5.1c2.5-0.6,5.7-1.7,7.9-3.1c1.4,2,3.7,3.1,5.9,3.1c4-0.3,7.6-3.1,9.6-4.2
	c2-0.8,4-1.1,4.5-0.8c2.5,1.4,4,3.7,7.1,3.1c-2.5-1.7-4-2.8-6.5-5.1c-0.6-0.6-2.3-0.3-3.1,0s-1.7-0.3-2-0.6
	C120.6,119.4,117.8,118.5,115,118.2L115,118.2z M114.4,120.2c2.3-0.3,5.7,1.4,7.4,2.8c-2.3,1.1-5.9,3.4-8.8,4
	c-1.7,0.3-3.4-1.4-4.5-2.8C110.5,122.8,112.2,120.8,114.4,120.2L114.4,120.2z"/>
<path shape-rendering="auto" image-rendering="auto" color-rendering="auto" d="M35.5,126.2c-2,1.4-0.8,1.4-2.3,3.4
	c-0.6,1.1-1.7,1.4-1.7,2.8c0,1.7,1.1,2.5,2.3,3.1c-0.8-1.4,1.7-6.8,3.1-7.4c0.6-0.6,0.3-2.3,1.1-3.1c0.8-0.8,2.8-0.8,3.7-1.4
	C38.6,121.6,37.8,121.9,35.5,126.2L35.5,126.2z"/>
<g transform="matrix(1.0886 0 0 1.0886 -3.5562 -86.592)" shape-rendering="auto">
	<path image-rendering="auto" color-rendering="auto" d="M93.6,223.4c-3.4,0.6-5.7,3.1-7.6,5.7c-2.5,3.7-5.4,7.4-9.3,9.9
		c-1.4,0.8-2.8,1.7-4.2,2.3c3.1,1.4,8.5-2.5,10.5-4.5c2.3-2.3,3.7-4.8,5.7-7.4c1.4-2,2.5-3.1,5.1-4c2.8-0.8,4.2-1.1,6.5-1.4
		C97.8,224,95.8,223.1,93.6,223.4z"/>
	<path image-rendering="auto" color-rendering="auto" d="M92.4,231.9c-1.7,1.1-2.8,3.1-4.2,4.5c-1.4,1.7-4.2,4.5-4.8,6.8
		c2.3-2.8,3.7-3.7,6.2-5.9c1.1-0.8,2.5-3.4,3.7-4.2c1.7-0.8,3.4-0.8,5.1-1.1C95.5,231.6,94.1,230.5,92.4,231.9L92.4,231.9z"/>
</g>
<g transform="matrix(1.0886 0 0 1.0886 -3.5562 -86.592)" shape-rendering="auto">
	<path image-rendering="auto" color-rendering="auto" d="M98.1,189.5c-1.1,1.1-3.4-0.3-4.8,0.6c-3.4,1.7-8.5,2.8-8.8,3.7
		c0,0.6,2.3,0.8,3.1,0.8c2.8,0,4.2-2.8,7.1-2.8c1.1,0,3.4,1.4,4,0.6c2-2.3,4-5.4,6.8-6.2c2.8-0.8,5.4,1.1,8.2,2
		c1.1,0.3,2.3,2,3.4,1.4c2.3-0.8,5.1-1.4,7.4-0.3c2.3,0.8,4.2,2.3,6.5,3.1c2,0.8,4,1.1,5.9,1.7c-3.4-2.3-6.5-4.2-9.1-5.9
		c-1.4-0.8-2.8-1.1-4.2-1.7c-2.3-0.6-4.5-0.3-6.8,0.6c-3.1-1.7-6.5-3.4-10.2-3.7c-0.6,0-1.4,0-3.1,0.6
		C102.3,184.6,100.4,187.2,98.1,189.5L98.1,189.5z"/>
	<path image-rendering="auto" color-rendering="auto" d="M158.1,100.4c-2.3-0.6-4,0.6-4,2.3c1.4-0.8,2.5-1.1,3.4-0.8
		s1.7,2.3,1.7,3.4c1.1-0.6,3.1-0.6,4.5,0c1.1,0.3,2.5,0.6,1.4,2.5c2.5,1.4,3.1,0.8,5.4,3.1c-0.3,0.8-0.6,2.3-0.3,2.5
		c0.6,0.8,1.4,0.3,2.5,0.8c0.6,1.1-0.6,2.5-1.4,2.8c0.6,0.6,2.5,2.5,2.3,2.8c-0.3,0.6-2,0.8-2,2.3c0,1.1,1.4,3.4,1.1,4
		c-0.6,1.7-3.4,1.4-5.1,2.8c-1.7,1.1-0.8,4.2-1.7,5.1c-0.3,0.3-2.5,0-3.4,0.3c-2.8,1.1-2.5,2-3.7,3.7c-0.6,0.3-4,1.1-4.5,1.4
		c-1.1,0.8-1.1,2-2,4c-1.1,0.3-3.7,0.6-4.5,1.1c-2,1.4-2,3.4-2,4.8c-1.4,0.3-4.2,1.4-5.1,2c-1.4,1.4-1.7,3.7-2.3,5.4
		c-1.4,0.6-4.5,1.1-5.7,2.5c-0.8,1.1-0.8,3.7-0.6,5.4c-1.7,1.4-2.8,2-4,4.5c-0.6,1.4,0,4.8,1.4,7.1c0-3.4-1.1-4.8,0.6-6.8
		c1.1-1.4,2.8-2.8,4.2-3.7c-0.6-1.7-1.1-4.2,0-5.1c1.1-0.8,4.5-1.7,5.7-2c0.8-2.3,0.6-3.1,1.7-5.4c1.1-2,3.4-1.7,5.1-2
		c0.3-1.7,0.3-4,1.4-5.1c0.8-0.8,4-1.1,5.1-1.1c0.3-1.7,0.6-3.1,1.7-4c0.6-0.3,3.7-1.4,4.5-1.1c1.7-1.4,0.3-2.3,2.5-3.4
		c1.7-0.8,5.1,0.6,5.9-0.3c-0.3-1.7-0.6-4.2,0.8-5.4c1.4-1.4,2.8-2,5.1-3.1c0.6-1.1-1.4-3.1-1.1-4.5c0.3-0.6,2-2,2.3-2.8
		c0.3-0.6-1.1-2.3-2.5-2.5c0.8-1.1,1.7-2.8,1.4-3.7c-0.3-1.1-2-1.1-2.8-1.7c0.3-1.4,0-2.8-0.8-3.7c-1.4-0.8-3.7-0.6-3.7-1.7
		c0.3-1.1-0.3-2.3-1.4-2.8c-1.7-0.8-4.2-1.4-6.2-0.6C160.3,101.5,159.2,100.4,158.1,100.4L158.1,100.4z"/>
	<path image-rendering="auto" color-rendering="auto" d="M181,113.1c0.8,1.1,0,4,0.6,4.8c0.6,0.6,1.4,1.7,1.4,2.3
		c0.3,1.4-0.8,2.3-2.5,3.1c1.4,1.7,3.1,2.5,3.1,5.4c-0.3,4-4.8,4.2-6.2,6.2c-2,2.5-0.3,4,0.6,5.9c-1.7-0.3-4-0.8-5.1,1.1
		c-0.8,1.7-0.8,3.7,0.3,5.4c-2,0.3-3.1-1.4-4.8,1.1c-1.4,2-0.6,3.4,0,4.8c-2,0-3.1-2.3-5.7,0.6c-2,2.3-0.3,4.5,0.3,5.9
		c-1.4-0.6-2.8-2.3-5.4,0.3c-1.7,1.7-0.8,2.8-0.3,4.5c-1.7-0.6-3.1-1.1-5.7,1.4c-2.3,2.3-2,4.8-1.1,6.8c-1.1-0.3-4.8-1.7-6.5-0.6
		c-2,1.4-2.5,4.8-1.4,6.8c0.8-2.5,1.4-3.4,2.5-4.8c1.4-1.7,4.8,0,6.8,0.3c0.3-2.5-0.6-6.5,2.5-6.8c2-0.6,2.5-1.4,4.2-1.7
		c0.3-1.1-0.6-3.1,0-4.2c0.8-1.1,3.4-1.1,4.8-0.8c1.4,0,0.3-3.7,0.8-4.8c1.4-2,2.5-0.8,5.4-2.3c0.3-1.1-0.3-2.8,0.3-4
		c0.6-0.8,3.4-1.4,4.8-1.4c-1.1-1.4-0.8-4.5-0.3-5.4c0.8-1.1,3.7-0.8,5.1-1.4c-1.1-2.3-1.4-3.4-0.3-5.1c0.8-1.4,2.5-1.1,4-2.5
		c1.4-1.7,2.8-2.3,2.5-4.8c-0.3-3.4-1.1-5.1-2.5-5.7c0.8-0.8,2.5-2.5,2.5-4.2c0-0.8-0.6-2-2-2.8c-2.8-9.9-6.8-7.1-7.9-6.8
		C178.7,110.3,179.8,111.1,181,113.1L181,113.1z"/>
	<path image-rendering="auto" color-rendering="auto" d="M118.5,153c-1.4,1.4-1.1,3.7-1.1,5.7c-1.7,0.6-4,0.8-4.8,2.8
		c-0.6,0.8,0,3.4,0.6,5.4c-1.7,0.6-4.5,0.3-5.1,2.5c-0.6,2,0.6,4.2,2,7.1c-0.6-2.8-1.1-4.8-0.6-6.5c0.6-2.3,3.4-2,4.8-2.5
		c-0.3-1.7-0.6-4.2,0.6-5.7c0.8-1.4,2.5-1.7,4-2.3c-0.3-2,0.3-3.7,1.4-5.1c1.1-1.1,3.4-1.4,4.5-1.7c0.3-2,0.8-4,2.5-5.1
		c1.1-0.6,2.5-0.8,3.1-0.3c-2-1.7-3.7-0.8-4.8-0.3c-1.7,0.8-2,3.1-1.7,4.5C121.9,151.6,119.9,151.6,118.5,153L118.5,153z"/>
	<path image-rendering="auto" color-rendering="auto" d="M135.1,177.9c-1.1,0-2,1.1-3.1,1.1c-1.7,0-3.4-1.1-5.1-0.6
		c-1.1,0.3-2,1.7-3.1,2c-1.7,0.3-3.7-0.6-5.1,0.3c-1.1,0.6-2,1.7-2.8,2.8c2.5-1.4,4-2,5.4-1.7c1.1,0.3,2.3,1.7,3.4,1.1
		c1.4-0.8,1.7-3.1,3.4-2.8c1.1,0,3.1,1.7,4.2,1.7c0.8,0,2-1.7,2.5-2c3.1-1.1,2.5-0.8,5.1-0.6C138.5,178.1,136.8,177.9,135.1,177.9
		L135.1,177.9z"/>
	<path image-rendering="auto" color-rendering="auto" d="M197.9,172.5c-3.4,4.5-0.3,8.8-2.3,13c-1.7,4.2-5.4,6.8-7.1,7.9l-5.1,3.7
		c6.2-1.4,10.5-4.5,13-8.8c1.4-2.5,0.3-7.4,0.8-11.9L197.9,172.5z"/>
</g>
<path shape-rendering="auto" image-rendering="auto" color-rendering="auto" d="M47.1,119.1c-0.6,2,1.1,2.5,2.5,4
	c2,2.3,3.1,2.5,6.5,3.1c2.3,0.3,2.3-1.1,2.5-3.1c0.3-2.3-0.8-4-2.5-5.1c-2.3-1.7-4.2-1.1-6.8-0.6C48.2,117.4,47.4,118,47.1,119.1
	L47.1,119.1z M50.2,119.7c0.3-1.1,1.7-0.3,2.8-0.3c1.7,0,2.5,0.8,3.4,2.5c0.3,0.8,0,1.1-0.8,1.7c-1.7,0.8-2.3-0.3-3.7-1.4
	C50.5,121.4,49.6,120.8,50.2,119.7L50.2,119.7z"/>
<path style="fill:none;stroke:#000000;stroke-width:0.25;stroke-miterlimit:10;" d="M117.5,123.6c0,1.4-1.1,2.8-2.5,3.1
	c-1.4,0.3-2.8-0.6-3.4-2c-0.6-1.4,0-3.1,1.1-4c1.1-0.8,2.8-0.8,4,0.3c-2.5,0.8-2.5,1.7-2.8,2.5C115.3,123.3,116.4,122.8,117.5,123.6
	L117.5,123.6z"/>
<path shape-rendering="auto" image-rendering="auto" color-rendering="auto" d="M135.9,7.9c-0.6,3.4,0.6,8.5-0.8,9.6
	c-2-1.4-5.1-7.9-10.2-7.4c-0.6,3.7,0.3,6.8-0.6,9.1c-3.4-4.2-9.3-8.8-10.2-7.9c1.4,2.5,0.3,7.4,0.6,9.3c-2.8-2-10.7-6.5-12.4-5.7
	c1.7,2.8,1.4,7.4,2.3,9.9c-2.3-3.7-12.7-6.2-14.7-4c0.8,2,6.2,7.1,6.2,9.6c-3.7-6.5-14.7-7.1-17-4.8c1.7,2.3,2.3,4,5.1,7.6
	c-1.1-2.5-13-5.1-15.8-3.4c0.8,2.8,5.7,5.4,5.9,7.4c-3.7-0.8-13.6-5.7-15.8-2.8c2.5,3.1,4.5,5.1,5.7,7.6c-2.5,0.6-11-4.8-16.7-3.1
	c0.8,1.1,5.4,8.8,5.4,9.1c-3.7-0.8-11-7.4-13.6-5.7c2,2,2.5,5.7,3.1,7.9c-1.7-2-8.2-4.8-11.6-4.2c0.3,2.3-1.4,1.7-2.3,5.4
	c-1.4-0.3-6.2-4.8-10.5-4.8c0,1.1-1.4,6.5-2,6.5c-2.3,0.8-2.8-0.6-6.5-1.1c-0.8,7.6,4.2,13.9,7.4,15.3c5.9,2.8,15.3,2.5,22.1,5.7
	c10.7,5.7,24,2.5,35.9,0.8c11.9-1.7,17.8-17.3,30.8-17.5c11.9-0.3,21.5-7.1,33.4-5.1c5.9-1.7,18.7,0.3,19.2,3.4
	c0.3,1.4-2.5,4-7.4,5.7c-4.5-2.8-11-3.7-15.6-2c-5.9,2.3-9.3,8.5-11,13.3c-7.6,3.4-13,9.6-17.3,16.4c-3.1,5.1-4.8,7.9-6.8,13.6
	c-0.3,1.1-1.7,4.8-2.3,5.4c-1.7,0.8-5.1,0-8.2,0.6c-2,0.3-4.2,1.1-5.4,3.7c-4.2,7.9-19,9.3-24.3,1.7c-0.6-0.8-6.8-4-12.7-3.7
	c-4.2,0.3-8.2,2.5-9.9,5.7c-7.9,2.8-8.2,5.7-10.5,9.1c-6.8,4.5-2.8,9.9,0.3,11.9c3.4,2,8.8,3.4,11,5.1c4.8,4.8,13.9,0.8,21.5,2.5
	c3.1,0.8,7.6-2.8,10.5-4c2.3-0.8,4.2-0.3,4.2,0.6c-1.4,1.7-1.7,3.4-2.8,4.5c-2-0.3-3.7-1.4-5.4,0c-0.3,0.6-1.4,0.8-1.7,0.8
	c-1.7,0-4.2-0.6-5.9-0.3c-2.8,0.8-5.9,1.7-7.6,4.8c0.8,0.3,4.5,0,5.4,0.3c-3.4,0.8-9.3,2.5-11,6.5c3.4-0.3,9.6-0.6,10.2-0.6
	c-1.4,1.1-5.1,5.1-4.5,7.1c2.5-0.6,6.8-1.1,10.5-1.7c-5.7,3.7-8.8,8.8-13.9,13.3c-7.1,5.9-18.7,11-16.4,22.1c1.7,3.4,4,7.1,6.8,9.3
	c4.8,3.7,11,4.8,17.3,4.5c10.2-0.6,19-7.1,29.4-4.8c10.2,2.5,19.8-1.7,29.4-3.4c8.2-6.5,14.4-6.2,25.2-5.4
	c12.2,1.1,19.5-11.3,28.3-17.3c4.5,2.3,14.4-6.2,15.3-5.9c5.7,0.6-2.3,4.5-4.2,7.4c-2.5,5.9-1.1,12.7-2.8,17.8
	c-0.8,2.5-3.4,4.2-5.9,5.9c-5.9,4.5-14.7,17.5-8.8,23.8c2.5-3.7,7.1-4.2,11-5.4c2.8-0.8,5.7-2.8,7.6-3.4c-1.1,5.7-0.8,6.5-1.4,12.2
	c0.6,6.5,3.1,11,4,15.6c1.7-2.3,6.8-7.1,9.6-11.6c2.8-4.5,3.4-10.2,4.2-12.4c4.5,2.5,5.9,2.5,8.8,6.5c2.5,2.3,8.5,8.8,11,11.3
	c3.7-5.9,1.4-13.9,1.4-15.8c4.8,0.3,5.9,3.1,10.5,4.2c0.3-5.7-3.7-13.3-7.4-15.8c1.1-0.6,1.7-0.8,3.4-0.6c2,0.3,5.9,2.5,7.1,2.5
	c-0.8-7.4-7.9-13.9-14.7-15c-8.2-4-1.1-7.9,2-12.7c6.8-9.3,9.1-21.8,5.7-32.8c0.8-9.6-8.2-15.6-13.3-19.2
	c7.4-3.7,10.5-11.9,10.5-19.8c1.4,2.3,3.7,4.5,4.5,4.2c0.6-2.3,0.6-2.8,1.4-7.9c1.7,2.5,6.5,4.8,7.6,4.2c1.7-0.8,0.6-8.2-0.8-11.6
	c4.5,0.3,7.9,2,11.3,2.8c0.3-3.1-2.8-7.9-4.2-9.3c-2.3-2.8-9.3-4.8-13.3-4.8c0.6-2.5,1.7-6.8,1.4-9.9c-0.8-9.1-8.5-12.2-15.8-14.4
	c1.4-5.4-0.3-10.7-1.7-16.4c-1.4-6.5-2.3-17-7.1-22.1c-1.1-1.1-3.4-0.6-5.4-1.1c0.8-5.1-0.3-6.5-2.3-8.2c-1.7-1.4-3.4-1.1-6.2,1.1
	c1.7-3.4-1.1-6.2-3.7-7.1c-1.4-0.6-4.8,0.3-5.9,3.7c-0.3-2.8-2.8-5.7-5.4-6.2c-2.5-0.6-5.4,1.7-5.9,4.5c-0.6-4-4.5-7.1-7.4-6.8
	c-2.5,0.3-2.3,3.7-3.1,5.9c-1.4-3.1-5.9-5.7-7.9-5.7c-2.5,0.3-2.5,3.7-3.4,5.4C145.8,14.4,140.4,7.6,135.9,7.9L135.9,7.9z M139,12.7
	c3.7,1.4,7.4,6.5,9.3,8.8c2-2,1.7-4.8,3.4-5.1c3.7,0,5.9,3.7,8.5,3.7c1.4-1.4,1.7-4.8,3.7-5.1c2.5-0.3,4.2,5.7,5.7,5.7
	c2-1.4,3.4-4.5,5.1-4.2c1.1,0,3.1,4,3.4,6.8c3.4,2,6.2-4,7.9-3.4c3.1,1.1,4.2,2.3,4.5,6.8c1.4-0.8,3.7-3.4,5.1-2.3
	c1.4,0.8,1.7,5.4,0.8,9.3c3.1-1.1,5.1-0.8,6.5,0.6c1.7,1.7,2.3,4.8,1.4,8.8c-1.1,2-1.4,5.1-0.6,7.4c1.1,3.1-0.3,7.1-3.1,9.1
	c-3.4,2.3-0.3,7.1-3.4,9.9c-1.7,1.7-0.8,4.5-1.7,7.6c-0.6,1.7-2,2.3-2.5,4c-0.6,1.1-0.8,3.4-1.1,5.1c-1.7,0-4.5,1.1-5.1,2.5
	c-0.6,1.4-0.6,3.1,0.3,4.5c-1.7,0-4,0.3-4.8,1.1c-1.1,1.7-0.8,4.2-0.8,5.7c-2-0.3-4.2,0.6-5.4,1.7c-1.7,1.7-2,4-2.5,5.7
	c-1.4-0.6-3.7-0.8-4.8,0c-1.4,1.1-2,3.4-2.5,4.8c-2.3-1.1-2.3-2-4.8-2c-2,0-2.8,1.1-4.5,3.4c-2-0.6-4.2-2.3-6.8-1.7
	c-2.5,0.6-5.4,3.7-6.2,5.9c2.5-2,4.2-3.4,7.1-4c2.5-0.3,4,1.1,6.8,2.8c1.1-2.3,2.3-3.4,4.2-4.2c2-0.8,3.1,1.1,4.8,2.5
	c0.8-1.4,2-4.8,3.4-5.9c1.4-1.1,3.1,0,5.1,1.1c0-2.3,2-4.8,3.1-6.8c1.7-1.1,4.5-1.7,6.5-1.1c-1.1-2.5-0.6-5.4-0.3-6.2
	c0.8-1.7,2-2,5.1-1.1c-1.1-2.5-1.7-3.1-0.8-5.1c1.1-2.5,4.2-1.4,6.2-1.4c-0.8-1.7-1.7-3.1,0-5.1c1.1-1.1,0.8-2.8,1.7-4.2
	c1.7-2.5,0.3-4.8,1.1-7.6c0.6-2,4-3.1,3.7-5.1c-0.3-2.8,0-5.4,2.5-7.1c2.8-2,3.1-6.8,2.3-10.2c-0.3-1.1,0-4.8,0.8-6.2
	c3.1,5.4,0.3,14.1,3.1,19.2c1.4,2.8,0,4.2-0.8,6.2c-2.8-0.3-6.2,1.7-8.2,3.4c-2.8,2.5-0.8,6.5-0.6,9.9c1.7-2.5,0.3-4.5,1.4-6.2
	c0.6-0.8,1.1-2.3,2-2.5c2-0.6,2-0.8,4-0.6c0.6,0,2.3-0.6,3.4-0.8c4,5.9,12.7,1.1,13.3,9.6c5.1,4.2-0.8,14.4,0,15.8
	c3.4-1.1,7.1-0.8,9.9,0.3c-0.3,0.3-0.8,0.8-1.1,1.4c-0.3,1.1-0.8,2-0.8,3.1c-1.4-0.8-5.7-2.3-5.7-1.7c0.6,1.1,1.7,1.4,2.5,1.7
	c0.8,0.6,1.4,1.1,1.7,1.4c-2,0-4,1.7-4.2,3.7c0,0-2.3-1.4-2.5-2.3c-0.8-0.3-1.1-0.3-1.1,0.3c0.3,0.8,2.5,3.1,2.3,3.7
	c-0.6-0.6-0.8-0.8-1.7-0.8c-1.7-0.3-3.1,0.8-4.2,2.5c0-0.3,0-0.8,0-1.1c0.6-3.1-1.1-7.9-4-11c1.7,1.7,5.1,0.8,5.7-0.3h-2.8
	c-1.4,0-3.4-1.7-4.2-2.5c-1.1-1.7-1.4-2.8-3.1-4.2c-1.1-0.8-4.2-2.5-7.1-4.2c2.8,3.1,6.8,7.1,9.1,10.5c1.7,2.5,2.3,5.4,3.1,8.2
	c0.6,1.4,1.4,3.1,1.1,4.5c0,1.4-1.1,3.7-0.8,5.7c1.1,9.6-7.4,11.3-10.7,18.7c-6.2-1.7-10.7-2.8-17.3-2.5c-2.5,0-7.1,0.8-9.6,2
	c-2.3-1.1-4.2-1.7-6.5-2c-2.3-3.1-4.5-6.2-7.4-8.8c-1.7-1.4-3.7-2.5-5.7-3.1c-3.4-0.6-5.7-1.4-11,1.7c4-0.6,7.9-0.6,11.3,1.1
	c2,1.1,4,2.3,5.4,4c1.7,1.7,3.1,3.7,4.5,5.7c-0.6,0.3-0.8,0.6-1.4,1.1c-1.7,1.7-1.1,2.8-0.3,6.5c0.6-3.4,2.3-5.1,3.7-5.7
	c2.8,0,6.2,0.8,7.6,2.8c4.2-2,9.1-2.8,13.6-2c4.5,1.1,9.3,2,13.6,3.7c2.5,1.1,6.5,2.5,8.2,5.1c5.9,7.9,8.2,19.5,5.9,29.4
	c-2,8.5-7.4,15.8-14.1,21.2c-3.7-0.8-7.6-3.7-11.3-3.1c-4,0.6-6.5-0.3-11.3,5.4c3.7-2.3,7.6-3.7,11.6-3.1c3.4,0.3,7.1,2,10.2,3.1
	c4.8,1.7,6.5,6.2,11.6,7.4c-0.6,1.1-1.1,5.7,0.8,7.6c-1.1-0.6-5.9-1.1-6.8-1.7c0-4.2-2.8-5.9-5.7-4.5c0.6,0.6,2.3,1.1,2.8,1.4
	c0.8,0.6,1.1,3.1,1.4,4c2.3,1.1,5.7,1.1,7.4,2.5c0.6,0.8,1.7,2.8,2.3,4c-1.7,0.3-2.5,0.6-3.1,2.3c-0.3,1.4-1.1,3.1-1.4,3.7
	c-0.8-0.6-1.7-2.8-2.5-3.1c-1.1-2-2.8-4-4.8-5.1c-0.6-0.3-1.4,0-2-0.6c-2-1.4-2.5-3.7-5.1-5.9c1.1,2,1.7,4.5,3.1,6.2
	c0.3,0.6,0.8,1.1,1.4,1.7c1.1,0.8,2,0.8,3.1,2.3c0.8,0.8,2.8,2.3,3.4,3.1c-2.3,0.8-4.8,2.8-4.8,5.4c-4.5-3.1-8.8-7.9-13-4.8
	c0,2.3-0.8,4.5-2,6.5c-0.8-2-2-3.7-4.2-4.2c-1.7-0.3-4.2,0.3-5.7,1.1c-1.1-1.4-0.3-6.8,0.8-9.3c-3.4,0.3-5.4,2.3-9.9,4
	c0-2-2.8-6.5-4-7.6c1.1-0.8,3.1-2.5,2.8-3.7c7.9-1.4,4.5-8.5,9.1-13c-4-8.2,3.4-15,5.7-19.2c2.3-4.2,5.4-6.8,8.8-9.6
	c1.1-0.8,5.9-2.5,7.1-3.1c-4.8-2.3-10.5,3.1-12.2,4.8c-1.1,1.4-2.3,2.8-3.1,4.2c-1.7-1.4-3.1-1.7-4.8-1.1c-0.6-3.1-0.8-5.9-1.1-9.1
	c-0.3-2-3.1-3.7-2.3-5.7c0.3-0.8,1.1-5.1,0.6-5.4c-0.3-0.3-1.7,3.1-2,3.4c-2,2.3,0.8,5.4,1.7,7.9c0.6,1.4-0.3,2.5,0,4
	c0,0.8,0.6,3.4,0,3.4c-2.3-0.8-3.4-1.1-4.2-3.1c-0.8-1.7-0.6-5.7-1.4-8.8c0,2-1.4,6.8-0.8,9.1c1.4,2.8,3.7,4.2,5.9,5.9
	c-3.1,2-6.2,4.2-10.2,3.4c0.6-2.3,0.8-4.5,0-6.8c-0.6-1.7,0.6-2.8,1.4-4c1.4-2.3,1.1-4.8,1.7-7.4c0.3-1.7,2.3-3.1,2.3-5.1
	c0-4.2-1.7-4.8-4.2-8.2c0,2.8,2.5,5.4,1.7,8.2c-0.3,1.4-1.7,2.5-2.3,4c-0.6,2,0.6,4.5-0.8,6.5c-0.8,1.1-2,2-2.5,3.4
	c-0.8,2.3,1.1,3.4,0.8,5.7c0,1.1-2.5,3.7-2.3,6.2c-7.1,4.2-11.3,11.3-20.4,13.6c-8.8,2-18.7-4.8-26,3.1c-9.3,4.8-20.6,7.6-31.1,6.5
	c-2-0.8-4-1.1-6.2-0.8c0.8-1.1,1.7-2,2.5-2.8c1.1-0.8,4-0.3,5.4-1.7c1.4-1.7,3.4-3.1,5.7-3.7c2.5-0.8,5.7-0.3,7.9-0.8
	c2.5-0.8,7.6-2.5,10.7-4.8c4-3.1,4.8-7.4,4.8-7.4s3.7,0,5.1-1.7c2-3.4,4.8-8.5,3.1-11c-0.3,2.5-2,6.8-4,9.1c-1.7,2-3.7,2-5.7,2.8
	c-0.8,1.7-1.1,3.7-2.3,4.5c-3.7,3.4-7.4,5.1-12.2,6.5c-3.7,1.1-8.5,0.8-11.9,2.8c-2.3,1.1-4,3.4-6.5,4c-3.1,0.6-4,4.8-7.4,5.4
	c-3.7,0.8-7.6,1.7-11.9,0.3c-7.1,7.4-17,4.5-24,0.6c-4-2.3-5.9-9.1-3.7-12.4c0.6,1.7,2,4,3.1,4.8c1.4,2.5,3.1-0.8,5.1,0.6
	c3.4,0.8,6.8,2.5,9.9,4.2c0.6-2.8,4-3.4,6.2-1.7c2-2.8,2-4.2,4-7.4c2.5-2,7.9,2,10.2-1.7c2.3-0.3,5.4,0.6,6.5-2.3
	c2.5-3.7,6.2-0.6,9.3-2c3.7-0.6,6.8-2.8,9.1-5.4c3.1-3.7,5.9-8.5,11.3-9.1c2.5-3.7,3.7-8.2,7.9-10.5c2.3-0.6,3.1-5.4,3.1-7.6
	c1.7-2.8,3.4-2,5.9-3.1c1.4-1.4,5.9-2,7.9-2c-2.3-1.4-6.2-1.1-9.9-0.6c-0.8,0.6-2.5,0.6-3.7,1.4c0.3-1.1,0-1.7-0.6-2.8
	c1.4-0.3,2.8-1.4,3.7-2.3c2.3-1.7,3.4-4.2,5.4-5.1c1.1-0.3,2.3,0.3,4,1.1c1.4,0.6,2.3,1.7,5.7,4.2c-0.3-2.5-2-4.5-3.1-5.4
	c-1.4-1.1-3.7-2.3-6.5-2.5c-2.8-0.3-3.7,2.8-5.4,4.5c-1.4,0.6-4.2,0.8-6.5,0.3c-5.1,1.1-5.1,0-8.8,0.3c-2.8,0-6.2-1.7-8.5-2.8
	c-2,1.1-4.2,2.8-6.2,4c-2.3,0.8-3.4,2-5.7,0.3c-0.6-0.6-3.7-3.1-5.4-3.7c-1.1-0.3-4.2-0.3-5.7-0.6c-4.5-3.1-13.3-4-17,1.7
	c-8.5-1.1-15.3,1.1-21.5-4c-4.8,0.3-12.2-2.8-12.7-5.9c-0.3-1.1,3.1-2.5,4.8-4.2c1.7-5.9,9.1-8.2,13.3-11.6c6.2,0,15.6-0.3,17.3,7.6
	c4.5,1.7,11.9,0.3,16.4-2c6.8,2,8.8-6.8,13-8.8c1.7-0.8,3.7-0.6,6.5,1.7c2-1.4,4-2,6.2-2.3c2.3-0.3,5.1,0.3,6.5,1.4
	c1.1-1.7,2.5-3.1,4.8-3.4c2.5-0.6,5.7,1.1,7.1,1.4c0-1.4,0.3-3.1,1.1-4c0.8-0.6,3.1-0.8,4-0.8c-0.3-2-1.1-6.5,0-9.1
	c0.6-1.7,3.4-2.5,4-4c0-1.7-0.8-3.7,0-5.4c0.8-1.4,3.1-1.4,4-2.5c0-2-0.3-4,0.8-5.7c1.1-1.4,3.4-2,4.5-3.1c0.6-2,0.8-4.5,2.8-5.7
	c1.7-0.8,3.4-0.8,5.4-1.1c-0.3-1.4,0-4,2.3-4.8c1.7-2,4.8-3.7,8.5-5.9c3.4-2.3,6.5-5.4,8.2-9.3c-0.6-2,0.6-3.4,1.1-5.1
	c0.6-1.4,0.8-2,1.1-3.4c0.8-4-1.4-7.6-3.1-11.3c-0.8,1.1-1.4,2.3-2.3,3.4c-0.8-2.8-2.8-6.2-6.5-6.2c-1.1,0-2.3,0-1.7,1.4
	c0.8,3.1-2-1.1-3.1-1.7c-1.7-1.4-4-3.7-6.2-2.5c-1.7,0.8,0.6,5.4-1.7,3.4c-2.5-1.7-5.1-3.7-8.2-4.5c-1.4-0.3-4.2,0.3-3.7,2
	c0.3,1.4,0,2.3,0,3.1c-3.1-2-4.8-3.1-8.5-3.7c-1.1-0.3-5.7,0.6-4.2,1.4c1.1,0.8,3.4,4.5,0.8,2.8c-3.7-1.7-6.8-2.8-10.7-2.5
	c-0.3,2.5-1.4,5.4-1.7,5.9c-1.1-0.3-2.5-2.8-3.4-3.7c1.7-1.7,1.1-5.7,0-8.5c2.8-0.3,5.7,2,7.9,4.2c3.7-0.8,3.4-6.5,2.8-8.2
	c2.5,0.8,4.5,5.4,6.8,7.6c3.1-0.8,2-8.2,3.1-8.8c2,0,4,4.2,9.3,6.8C139,19,139.3,16.4,139,12.7L139,12.7z M94.3,22.3
	c4.2,1.4,7.6,3.4,10.2,6.2c2,2.3,4.2,5.1,7.4,5.7c1.1-2.3,2.3-4.8,2-6.5c2.3,0.3,9.3,2.5,11.6,3.4c-2,1.1-4,1.4-5.4,3.4
	c-0.6,0.8,0,4.5-0.3,5.7c0,2.8-2.5,5.1-1.4,7.6c0.3,0.8,0.8,1.7,1.1,2.5c-5.1,1.7-10.7,2.3-16.4,2.8c0.8-3.4,1.4-7.1,0.6-10.7
	c-0.3-1.1-0.3-2.5-1.1-3.4c-1.7-2-3.7-4.2-3.1-6.8C99.4,30,98.3,25.5,94.3,22.3L94.3,22.3z M137.9,24.3c0.8,0,2,0.8,2.5,1.1
	c2.8,1.1,3.7,3.4,6.2,4.8c0,2.8-1.4,5.7-3.1,7.9c-0.6,0.8-1.1,1.4-1.7,2.3c-1.1,1.7-1.4,4.2-0.6,5.9c0,0.3,0.3,0.6,0.6,0.8
	c-5.1,0.3-10.2,1.1-15.6,0c-1.4,0.8-3.1,1.7-4.8,2.3c-0.3-1.4-1.4-2.8-1.7-4.2c-0.3-2,1.7-3.4,1.4-5.4c-0.3-2.3-0.8-4-0.3-4.5
	c0.3-0.6,5.7-3.1,6.2-4.2c-0.3-1.7-0.6-1.7-1.7-2.8c-0.6-0.6-1.7-1.1-2-2.3c4.2-1.1,10.2,3.7,12.4,4.8c0.6-1.1,0.3-1.1,0.6-3.1
	c-0.3-1.1-1.1-2.8,0-3.4C137.3,24.3,137.6,24.3,137.9,24.3L137.9,24.3z M150.6,26.3c2.5,1.4,4.2,4.2,6.5,5.9
	c1.7,1.4,3.7-0.6,3.1-2.5c2.5,0.8,2.3,4.2,4,5.7c1.7,1.7,3.1-2.5,3.7,0.6c1.1,2,0.6,4.2-0.3,6.2c-0.6,1.7-0.6,2-1.4,3.4
	c-0.3,2.5-0.6,4.8-2.3,6.8c-0.6,0.8-1.1,1.4-1.7,2c0-1.7-1.4-3.7-5.1-4.8c-4-2-8.2-2.3-12.2-2c-0.6-0.8-1.1-1.7-1.4-2.5
	c-0.3-1.4,0.6-2.8,1.4-4c-0.3,0.3,0.6-0.6,0.8-0.8c2-2.5,3.7-5.9,3.7-9.3C150.6,29.7,150.1,26.6,150.6,26.3L150.6,26.3z M87.3,27.7
	c0.6,0,1.4,0,2.5,0.6c2.3,1.1,3.7,2.3,5.7,4.8c1.4,2.3,2.8,5.7,4,6.8c0.8,1.1,1.4,3.4,1.7,3.4c1.1,4.2,0.3,7.4-0.8,10.7
	c-5.4,1.4-9.6,5.1-14.1,8.5c-0.3-0.6-0.6-1.1-0.8-1.4c-0.6-1.1-1.1-2.5-1.4-4c-0.6-2.8,0.8-5.4,0.6-8.2c0-2.8-2.3-5.4-4.2-7.1
	c-2-1.7-4-6.2-5.4-8.5c2.5-0.6,11.3,2.8,13.6,5.1c1.4-3.1-2.5-7.1-4-10.5C85.9,28,86.7,27.7,87.3,27.7L87.3,27.7z M66.1,37.6
	c1.4,0,7.4,1.7,9.3,2.5s3.7,4,4.5,5.1c1.1,1.1,2,2.3,2,4c0,2.8-1.4,5.9-0.3,8.8c0.6,2,1.1,4.2,2.5,6.2c-2.5,2-4.5,4.8-7.6,5.4
	c-6.8,1.7-14.7,2.3-21.5,1.7c0.8-1.7,2.3-5.4,2-7.4c0-2-0.8-3.7-1.7-5.4c-1.1-2.5,0-4.8,0.8-7.4c0.8-2-0.8-4.5-2.5-8.8
	c4,0.3,10.7,3.7,16.1,4.2C69.4,44.7,67.7,40.2,66.1,37.6L66.1,37.6z M45.7,46.7c1.7,2.3,6.2,4,8.2,4.2c-0.6,2-1.1,4-1.1,5.9
	c0,1.1,0.6,2.5,1.1,3.4c1.4,2.3,0.8,5.1,0.3,7.1c-0.6,2-2.5,2.5-4,3.4c-4.8,0.3-8.8-1.1-12.4-2.5c-5.1-2-10.2-2.8-17-4.2
	c-2.8-0.6-7.9-3.4-6.5-6.8c0.6-1.1,6.5,0.8,6.5,0.3c0.3-2.3,0.3-5.1,1.7-5.4c2.3-0.3,6.8,4.5,8.8,4.2c2.5-0.6,2.3-3.4,3.1-7.1
	c3.7,2,7.4,3.7,11.9,5.9C46,53.2,46.2,49.8,45.7,46.7L45.7,46.7z M141.6,60.8c3.1,0,6.2,1.1,8.8,1.7c-1.1,1.7-1.7,2.3-2.3,5.1
	c-1.4,0.3-5.7,0.6-6.2,1.7c-4.2-0.6-9.6-0.3-12.7,1.4c0.6-1.7,2.3-4,3.4-5.1C134.2,63.4,138.7,61.1,141.6,60.8L141.6,60.8z
	 M138.2,71.8c0.8,0,1.7,0,2.3,0.3c-0.3,0.8-0.6,1.7-0.6,2.3c-1.7,0.8-3.7,2-4.5,3.7c-0.6,0.8-0.8,3.4-0.6,5.1
	c-1.4,0.6-2.8,1.7-4,3.4c-0.8,1.4-0.3,3.7-0.3,5.4c-2.3,1.4-3.1,3.1-3.4,3.7c-1.1,2.5-0.8,5.4-0.6,8.2c-1.1,0-2,0.3-2.5,0.8
	c-0.8,0.6-1.7,1.7-2,2.8c-1.7-0.8-3.4-1.4-5.1-1.1c-2.5,0.3-2.3,1.1-5.1,4c-1.4-2.3-4.8-3.7-8.2-2.3c2.8-5.1,3.7-11.6,7.9-16.1
	c2-9.1,9.6-14.1,14.7-17C128.8,72.7,135.4,71.8,138.2,71.8L138.2,71.8z M236.9,99C237.2,99,237.2,99,236.9,99
	c1.1,0.6,1.7,0.8,2.5,1.4c0.8,0.8,2.8,3.4,2.5,4.5c-0.8-0.6-4.5-2-7.4-2.5c0-0.8,0.6-1.7,0.8-2.5C235.5,99,236.3,99,236.9,99
	L236.9,99z M231,105.5c0.6-0.3,1.7,0.6,2,1.7c0.8,1.4,1.1,3.7,0.8,6.8c-1.1,0.8-4.2-1.4-5.7-4c-0.3-1.1,0.3-3.1,1.4-3.7
	C229.8,106.1,230.1,105.8,231,105.5L231,105.5z M225,111.5c-0.3,2-0.3,4.2-0.8,5.7c-0.8-0.3-2.5-2.5-3.4-4.2c0.3-1.1,0-2.5,1.7-2.8
	C223.9,109.8,224.2,110.9,225,111.5L225,111.5z M81.6,142.6c2,0.3,4,1.7,5.4,3.1c2.8,2.3,6.8,1.7,9.9,0.6c1.7-0.6,3.1-1.7,4.8-2.8
	c1.4-1.1,2.8,1.1,4.2,1.1c2.3,0.8,5.1,0.6,7.4,0.6c1.4-0.8,3.1,0.3,5.1,0.3c0,0.8,0.8,0.8,1.1,2c0.3,1.7,0,0.3-1.1,2.3
	c-0.6,1.1-0.8,2.3-0.8,3.4c-0.3,2.5-1.4,4.8-3.1,5.4c-2.8,2.3-4,5.9-5.9,8.8c-5.1,1.1-8.8,5.4-11.9,9.3c-1.4,1.1-4.5,4.8-7.6,5.1
	c-3.7-0.8-8.2,0.3-11.6,4c-3.7-1.1-6.2,2.5-9.6,0.8c-0.6-0.3-2.3,0.8-4.2,0.8c-2,0-3.7,4.5-4,6.2c-2.5-2-5.1,1.1-6.8,1.1
	c-1.1-0.6-2.3-1.4-3.4-2c1.1-3.4,4.2-5.7,6.8-8.2c3.1-3.1,7.1-6.5,10.5-9.1c5.9-4.2,10.2-8.2,17-11.6c3.1-1.4,6.2-4,4.5-9.9
	c-0.6,0.8-0.8,4.8-2.5,5.7c-2,0.8-4.2,2.3-5.9,3.1c-5.9,3.1-10.7,7.9-16.1,11.6c-5.9,4-11.9,8.5-15.6,14.7c-0.3,0.6-0.8,1.4-1.1,2
	c-0.3,0-0.6-0.3-0.8-0.3c-1.4-0.3-3.1,0.6-4.5,0.8c-2-0.8-2-2.8-2.5-4c0.6-0.3,2.5-1.7,4.2-3.7c4.2-4.8,9.1-7.1,13-11.9
	c2.3-2.8,13-10.7,14.1-13C77.1,156.1,82.2,149.4,81.6,142.6L81.6,142.6z M77.9,144c2,4.8-5.9,11.6-10.7,15.6
	c-2.8,0.3-7.9,0.3-10.7,0.8c2.3-2.3,5.4-4.2,7.9-5.9c-3.1,0.3-9.1-0.3-12.4,1.1c2.3-3.1,12.7-4.2,14.1-4.5c-2.5,0-7.4-0.6-9.6-1.4
	c2.8-1.7,6.2-2,9.9-1.1c2-1.1,4-1.4,6.2,0C74,146.8,76.5,144.3,77.9,144L77.9,144z M219.4,205.1c3.1,0.6,7.9,3.7,8.8,8.2
	c-3.4-1.7-6.8-1.7-8.2-1.4C218.5,210.7,218.5,206.8,219.4,205.1L219.4,205.1z M167.3,214.4c1.4,1.1,4,5.1,3.7,6.8
	c-1.7,0.6-5.9,1.1-7.6,4C160.2,223.2,164.2,216.4,167.3,214.4z M220.8,218.7c2.5,1.4,4,4,4.2,7.6c-3.1-3.1-6.2-1.1-7.6-2
	C216.8,222.9,218.2,218.9,220.8,218.7L220.8,218.7z M212.9,223.5c2,2,5.1,10.7,2.5,14.4c-0.6-0.6-5.1-4.2-7.6-8.8
	C206.9,226,211.2,223.5,212.9,223.5z M185.4,226.6c0.3,0,0.8,0,1.1,0c0.6,0,0.8,0.3,1.4,0.3c1.4,0.6,2.5,2.3,2.8,3.7
	c-0.8,2.8-5.1,9.3-7.1,11c-0.8-3.1-3.1-10.2-2-13.9C182.9,227.1,184,226.6,185.4,226.6L185.4,226.6z"/>
<g transform="matrix(1.0886 0 0 1.0886 -3.5562 -86.592)">
	<path d="M34.2,253.4c-0.3-3.4,1.1-4.5,2.5-5.4c0.8,2.5,2.8,6.8,1.4,8.5C35.6,256.8,35.3,256.2,34.2,253.4L34.2,253.4z"/>
	<path d="M41.8,249.7c-2.3-0.3-2.5-2-2.8-5.1c0-2-2.5-6.5,0.3-8.5c2.3,0,2.5,4.2,3.7,5.9c1.4,1.7,3.1,4,3.1,4
		C46,248.6,44.6,249.7,41.8,249.7L41.8,249.7z"/>
	<path d="M86.8,212.9c-0.3,2-0.3,4.8,2.3,6.5c1.7-2.5,3.1-5.4,2.8-7.1L86.8,212.9z"/>
	<path d="M77.2,209c-0.3,3.4,0.3,6.2,2.5,7.6c1.4-1.7,1.4-4.2,1.4-6.5L77.2,209z"/>
	<path d="M34.4,206.1c0,3.7,0.6,4.8,2.3,7.4c2-1.7,4.5-3.1,2.5-6.8C37,206.1,34.4,206.1,34.4,206.1L34.4,206.1z"/>
	<path d="M42.9,209.5c0,2.3,1.4,4.8,3.1,6.8c0.8-2,2.5-2.5,2.5-6.2C46.9,208.1,44.9,209.3,42.9,209.5L42.9,209.5z"/>
	<path d="M63.3,209c-0.8,4.2,0.3,9.6,2,10.2c1.7,0,3.1-5.7,5.4-12.7C68.4,205.3,63,208.1,63.3,209L63.3,209z"/>
	<path d="M28.2,202.5c-2.5,3.1-3.7,9.6,0.3,12.2c1.1,0.6,2.3-7.6,3.7-10.2L28.2,202.5z"/>
	<path d="M39.5,259c0-2-0.3-3.7,2.8-5.7c2.3,3.1,2.8,5.7,2.3,7.9C43.2,261.3,40.7,262.7,39.5,259z"/>
	<path d="M47.5,261.6c-0.6-1.7,0.3-4.2,2.3-7.1c3.4,2.5,4,4.5,3.1,7.9C51.1,263.3,48.9,263.6,47.5,261.6z"/>
	<path d="M56.5,261.3c-1.1-2-0.3-4.2,0.6-6.8c2.3,1.1,4,2.8,4.5,5.1C60.8,260.7,59.9,262.4,56.5,261.3L56.5,261.3z"/>
	<path d="M95.8,210.1c0.6,2.8,0.8,4.8,2.8,7.4c2.3-2.3,2.5-4,1.7-7.1L95.8,210.1z"/>
	<path d="M104.6,211c-0.8,3.1,1.1,5.7,1.7,6.5c3.4-2,2.8-3.7,3.1-6.5H104.6z"/>
	<path d="M79.1,253.7c-0.8-0.8-2-2,0.3-5.4c3.4,0.3,4,2.3,4.2,4.5C82,253.7,80.6,254.2,79.1,253.7L79.1,253.7z"/>
	<path d="M62.2,254c-1.1-1.7-2.8-7.9,0.3-10.5c2.5,0.8,3.1,5.4,4.8,7.1c1.1,1.1,3.1,3.1,2.8,4c-0.6,1.1,0,2-3.1,2.8
		C64.7,258.2,63.6,256.8,62.2,254L62.2,254z"/>
	<path d="M52,210.7c0,2.3,0.6,3.7,2.3,6.5c2.8-1.7,3.4-2.3,3.4-5.9C55.9,209,54,210.4,52,210.7L52,210.7z"/>
	<path d="M91.3,249.7c-1.1-0.8-4.2-5.1-3.1-9.1c3.4-0.6,6.5,5.1,7.1,7.1C94.4,249.1,93,250,91.3,249.7L91.3,249.7z"/>
	<path d="M100.9,244.3c-1.1-0.6-2.3-1.4-1.1-5.4c3.4-0.6,4.5,1.1,5.1,3.1C104,243.5,102.6,244.3,100.9,244.3L100.9,244.3z"/>
	<path d="M108.8,238.1c-1.4-0.6-2.5-1.1-2-5.1c3.1-1.1,4.5,0.3,5.7,2.3C111.4,237,110.3,238.1,108.8,238.1L108.8,238.1z"/>
	<path d="M114.8,229.1c-1.4-0.3-2.5-0.8-2.3-4.8c3.1-1.4,4.5,0,5.7,2C117.6,227.9,116.5,229.1,114.8,229.1L114.8,229.1z"/>
	<path d="M50.3,242.9c-1.1-0.6-2.3-1.4-1.1-5.4c3.4-0.6,4.5,1.1,5.1,3.4C53.1,242.4,51.7,243.2,50.3,242.9L50.3,242.9z"/>
	<path d="M58.2,236.1c-1.1-0.6-4-4.2-2.8-8.2c3.4-0.6,6.2,4,7.1,5.9C61,235.6,59.9,236.4,58.2,236.1z"/>
	<path d="M66.1,229.9c-1.1-0.6-2.3-1.4-1.1-5.4c3.4-0.6,4.5,1.1,5.1,3.1C69,229.1,67.5,229.9,66.1,229.9L66.1,229.9z"/>
	<path d="M73.8,222.8c-1.1-0.6-2.3-1.4-1.1-5.4c3.4-0.6,4.5,1.1,5.1,3.1C76.6,222,75.2,222.8,73.8,222.8z"/>
</g>
</svg>
