<?xml version="1.0" encoding="utf-8"?>
<!-- Generator: Adobe Illustrator 17.0.0, SVG Export Plug-In . SVG Version: 6.00 Build 0)  -->
<!DOCTYPE svg PUBLIC "-//W3C//DTD SVG 1.1//EN" "http://www.w3.org/Graphics/SVG/1.1/DTD/svg11.dtd" [
	<!ENTITY ns_flows "http://ns.adobe.com/Flows/1.0/">
	<!ENTITY ns_extend "http://ns.adobe.com/Extensibility/1.0/">
	<!ENTITY ns_ai "http://ns.adobe.com/AdobeIllustrator/10.0/">
	<!ENTITY ns_graphs "http://ns.adobe.com/Graphs/1.0/">
]>
<svg version="1.1" id="Layer_1" xmlns:x="&ns_extend;" xmlns:i="&ns_ai;" xmlns:graph="&ns_graphs;"
	 xmlns="http://www.w3.org/2000/svg" xmlns:xlink="http://www.w3.org/1999/xlink" xmlns:a="http://ns.adobe.com/AdobeSVGViewerExtensions/3.0/"
	 x="0px" y="0px" width="256px" height="256px" viewBox="0 0 256 256" style="enable-background:new 0 0 256 256;"
	 xml:space="preserve">
<path style="fill:none;stroke:#000000;stroke-width:2;stroke-miterlimit:10;" d="M236.6,78.7c5.3,9,7.2,19,5.2,28.3
	c-0.7,3.3-1.5,5.7-3.1,8.9c-1.7,3.4-3.5,6.2-6.3,9.3c-4.2,4.8-10.3,9.4-16,12.3c-2.2,1.1-2.6,1.5-3.1,3.3c-0.5,1.8-1.8,4.6-3.1,6.6
	c-1.4,2.2-4.7,4.9-7.8,6.4c-1,0.5-10.8,4.5-11.5,4.8c-0.1,0-0.3-0.1-0.3-0.3c-0.3-0.8-1.1-0.9-1.5-0.2c-0.1,0.3-0.2,2.6-0.1,11.7
	c0,8.1,0,11.4-0.1,11.7c-0.2,0.6-1.9,1.7-2.9,2l-0.4,0.1v-1.3c0-1.2,0-1.3-0.3-1.5c-0.4-0.3-0.7-0.3-1,0.1c-0.2,0.3-0.3,0.5-0.3,1.6
	l0,1.3h-1.7h-1.7l-0.1-0.6c0-0.3-0.1-1-0.1-1.4c0-1.1-0.2-1.5-0.8-1.5c-0.8-0.1-0.8,0.1-0.8,1.9v1.7l-1.1-0.1
	c-0.6-0.1-1.3-0.1-1.6-0.2l-0.5-0.1l-0.1-1.6c-0.1-1.7-0.1-1.9-0.7-1.9c-0.6,0-0.9,0.5-0.9,1.7c0,1.3-0.1,1.4-1.2,0.8
	c-1.3-0.6-1.7-0.9-1.9-1.3c-0.2-0.4-0.2-0.8-0.6-14.5c-0.1-5.7-0.3-8.4-0.4-8.5c-0.2-0.4-0.5-0.5-0.9-0.3c-0.5,0.2-0.6,0.5-0.6,2.3
	c0,1.6,0,1.7-0.2,1.7c-4.7,0.6-18,0.9-25.1,0.5c-1.9-0.1-3.7-0.2-3.9-0.2h-0.4v-1.9c0-1.1-0.1-2.1-0.1-2.2c-0.2-0.3-0.8-0.3-1.1-0.1
	c-0.2,0.2-0.3,2.4-0.4,14.1c0,3.6-0.1,7.1-0.2,7.7l-0.1,1.1l-0.7,0.4c-0.7,0.5-2.4,1.4-2.5,1.4c0,0-0.1-0.5-0.1-1.1
	c0-1.2-0.2-1.6-0.7-1.6c-0.7,0-0.8,0.4-0.9,2c0,0.9-0.1,1.2-0.2,1.3c-0.4,0.1-2.1,0.3-2.8,0.3H128v-1.4c0-1.6-0.1-1.9-0.8-1.9
	c-0.7,0-0.8,0.3-0.8,1.8v1.4l-0.7,0.1c-0.4,0.1-1.2,0.1-1.7,0l-1.1-0.1v-1.5c0-1.7-0.1-1.9-0.8-1.9c-0.6,0-0.8,0.3-0.8,1.4
	c0,0.5,0,1.2-0.1,1.5c-0.1,0.4-0.1,0.5-0.4,0.5c-0.6,0-1.4-0.5-1.8-1c-0.5-0.7-1-2.3-1.2-3.5c-0.1-1.1-0.1-4.8,0.1-13.6
	c0.2-5.8,0.2-8.2,0-8.4c-0.3-0.3-0.9-0.2-1.2,0.2c-0.2,0.2-0.3,0.4-0.3,0.5c0,0.1-0.1,0.2-0.3,0.1c-0.2,0-0.9-0.2-1.6-0.3
	c-3.5-0.8-8.2-2.2-12.2-3.8c-1.3-0.5-2.4-0.9-2.3-1c0,0,0.7-0.5,1.4-1c4.9-3.4,7.6-6.7,8.8-10.5c0.7-2.3,0.8-4.1,0.1-6.4
	c-1.5-5.7-7-10.8-14.5-13.3c-1-0.3-1.9-0.6-1.9-0.7c-0.1-0.1,4.5-2.3,6.5-3.2c4.3-1.9,10.5-4.1,14.1-5.1c4.8-1.2,12.8-2.6,18.9-3.2
	c0.5,0,1.1-0.1,1.3-0.1c0.3,0,1.9-0.2,3.5-0.3c5.4-0.4,18.4-0.2,23,0.3c0.3,0,0.9,0.1,1.4,0.1c7.5,0.7,16.8,2.5,23.1,4.6
	c6.3,2.1,10.6,4.1,16.8,8.1c1.3,0.8,2.4,1.4,2.6,1.4c0.9,0,8.6-7.1,12.1-11.2c4.5-5.3,8.1-10.5,10.8-16c3.3-6.6,5.4-12.3,6.9-18.7
	l0.1-0.4l0.3,0.3C235.6,77.1,236.1,77.9,236.6,78.7z M233,78.9c-0.2,0.9-1.2,4.4-1.4,4.8l-0.2,0.5l-0.6-1.8c-0.3-1-0.6-1.8-0.6-1.9
	c0-0.1,2.6-2,2.7-2C233,78.5,233,78.7,233,78.9z M229.2,89.9c-0.9,2.3-1.1,2.7-1.2,2.7c-0.2,0-0.1-2.8,0-3.1
	c0.1-0.2,1.7-1.1,1.7-0.9C229.7,88.6,229.5,89.2,229.2,89.9z M225.4,97.5c-0.5,1.1-3,5.2-3.7,5.9c-0.2,0.2-0.2-0.1-0.2-2.2l0-2.4
	l2-0.9c1.1-0.5,2-0.9,2.1-0.9C225.6,97.1,225.5,97.3,225.4,97.5z M133.6,105.1l1.9,2l-0.7,0.1c-2.5,0.3-6.9,0.8-7.1,0.7
	c-0.1,0,3.7-4.9,3.9-4.9C131.7,103.1,132.5,104,133.6,105.1z M142.8,105c0.6,0.9,1.1,1.6,1.1,1.6c0,0-1.1,0.1-2.4,0.2
	c-1.3,0.1-2.7,0.1-3.1,0.2c-0.5,0.1-0.8,0-0.8-0.1c0-0.1,0.8-1,1.9-2c1.6-1.6,1.9-1.8,2.1-1.7C141.6,103.3,142.2,104.1,142.8,105z
	 M151.9,103.8c0.6,0.8,2.2,2.9,2.2,2.9c0,0.1-6.6-0.1-6.7-0.1c0,0,0.1-0.2,0.3-0.4c0.5-0.5,3.4-3.1,3.5-3.1
	C151.3,103.1,151.6,103.4,151.9,103.8z M161.2,103.3c0.4,0.4,2.8,4,2.8,4.1c0,0-0.3,0-0.6,0c-0.3,0-1.8-0.2-3.4-0.3
	c-1.5-0.1-2.9-0.2-3.1-0.3c-0.3-0.1-0.2-0.2,0.8-1c2.2-2,3.1-2.7,3.2-2.7C161,103.1,161.1,103.2,161.2,103.3z M59.9,104.9
	c3.5,0.7,6.5,3.1,8,6.3c0.5,1,0.6,1.2,1.1,1.2c0.3,0,0.5-0.3,1.5-1.7c1.4-2.2,3.5-3.9,6.2-5c1.7-0.7,3-0.9,5.1-0.8
	c3.4,0.1,5.8,1.1,7.9,3.2c1.9,1.9,2.7,3.7,2.8,6.5c0.1,2-0.2,3.4-1,5c-0.8,1.6-0.7,1.7,1.4,2.2c4.9,1.2,8.7,3.2,11.7,6
	c2.5,2.4,3.9,4.7,4.5,7.5c1.1,5.2-2.2,10.7-9.1,15.2c-2.8,1.8-6.5,3.7-9.1,4.7c-2.4,0.9-5.7,1.7-8.1,1.9c-0.7,0.1-1.5,0.2-1.7,0.2
	c-1.4,0.2-7.2,0.3-10.4,0.2c-1.9-0.1-3.7-0.1-3.9-0.2c-0.2,0-0.8-0.1-1.3-0.1c-3.1-0.3-7-1-11.5-2.3c-5.7-1.5-9.2-2.1-15.8-2.3
	c-5.5-0.2-8.8-0.6-12.4-1.5c-2.3-0.6-6.2-1.9-6.2-2.1c0-0.1,0.3-0.6,0.7-1.2c0.4-0.6,0.7-1.2,0.8-1.3c0-0.1,1.5,0,3.4,0.1
	c1.8,0.1,4.6,0.3,6.2,0.4c1.6,0.1,2.9,0.2,2.9,0.3c0,0,0.2,0.7,0.4,1.5c0.3,1.6,0.6,2.2,1.1,2.7c0.6,0.6,1.5,0.5,2.2-0.4
	c0.1-0.2,0.7-1.2,1.3-2.2l1-1.9l0.6,0c2.4-0.1,6.1-0.6,10-1.4c7.1-1.3,11.7-1.6,20.9-1.1c5.4,0.3,6.3,0.3,8.2,0.1
	c2-0.2,4-0.7,5.6-1.4l1-0.4l0.6,0.9c0.9,1.2,1.6,1.8,2.2,1.8c1.2,0,1.6-0.9,2.1-4.4c0.2-1.5,0.2-1.5,1.4-2.7
	c0.6-0.6,1.6-1.6,2.1-2.2l0.9-1.1l0.5,0.3c0.3,0.2,0.9,0.5,1.4,0.7c1.4,0.5,2.2,0.3,2-0.5c-0.1-0.3-0.3-0.4-0.9-0.6
	c-1.2-0.5-2-0.9-2.6-1.6c-0.8-0.8-1.2-1.8-1.4-3c-0.1-0.5-0.2-1.1-0.3-1.2c-0.2-0.2-0.7-0.2-1.1-0.1c-0.6,0.3-0.1,3,0.8,4.3
	c0.2,0.3,0.3,0.6,0.3,0.7c-0.1,0.4-1.7,2.2-2.9,3.3c-3.2,3.1-6.8,5-10.7,5.6c-1.4,0.2-4.4,0.3-8.5,0.1c-1.5-0.1-3.8-0.2-5.1-0.2
	l-2.3-0.1l-0.6-1.6c-0.5-1.6-1.4-3.2-2-3.8c-1.9-1.8-3.8,0.4-3.8,4.3c0,0.7,0,1.2-0.1,1.2c-0.1,0-1.4,0.2-3,0.4
	c-1.6,0.2-3,0.4-3.1,0.4c-0.1,0-0.3-0.3-0.4-0.7c-0.6-1.8-1.8-3.7-2.7-4.1c-0.6-0.3-0.6-0.3-1-0.1c-0.3,0.1-0.6,0.4-0.7,0.6
	c-0.3,0.6-0.7,2.2-0.9,3.6c-0.2,1.9-0.2,1.8-1.6,2c-0.6,0.1-1.6,0.2-2.2,0.2c-0.5,0-1.1,0.1-1.3,0.1c-0.2,0-2.2,0.1-4.5,0.1
	c-3.1,0.1-5.1,0-7.6-0.1c-4.5-0.3-5.9-0.5-12.2-1.4l-2-0.3l-0.1-0.5c-0.1-0.3-0.2-0.9-0.3-1.4c-0.1-0.8-0.1-1.1,0.1-2.1
	c0.1-0.6,0.5-1.6,0.8-2.2c2-4.1,5.1-5.4,18.7-7.9c4-0.7,7.1-1.7,9.9-3.2c2.5-1.3,5.7-3.6,5.7-4.1c0-0.1-0.3-0.6-0.6-1.1
	c-1.6-2.1-2.3-4.3-2.4-6.5c0-1.6,0.2-2.6,1-4.1c1.5-3,4.7-5.3,8.4-5.8C56.6,104.6,59,104.7,59.9,104.9z M124.5,106.5
	c1.2,0.9,2.1,1.6,2.2,1.6c0,0.1-0.6,0.2-1.5,0.3c-7.1,1.1-13.2,2.6-17.9,4.4c-0.6,0.2-0.9,0.3-0.8,0.2c0-0.1,1.1-1.6,2.3-3.4
	l2.3-3.2l3,1.6c1.6,0.9,3,1.6,3.1,1.6c0.1,0,1.2-1.1,2.6-2.3c1.4-1.3,2.5-2.3,2.5-2.3C122.3,104.9,123.3,105.6,124.5,106.5z
	 M172.8,106.9c0.6,1,1.1,1.9,1.1,1.9c0,0-0.1,0-0.2,0c-0.1,0-1.8-0.3-3.7-0.6c-1.9-0.3-3.5-0.6-3.6-0.6c-0.1-0.1,4.6-2.6,5-2.6
	C171.6,105.1,172.1,105.7,172.8,106.9z M218.8,107.6c-1.8,2.3-4.1,4.9-4.2,4.8c-0.1-0.1,0.7-5.2,0.9-5.4c0.1-0.1,2.2-0.3,3.1-0.3
	l0.9,0L218.8,107.6z M183,109.5c0.6,0.9,1,1.6,1,1.6c-0.1,0.1-5.6-1.3-5.6-1.4c0-0.1,3.5-1.9,3.6-1.8
	C182,107.9,182.5,108.7,183,109.5z M106.1,113.2c0,0-0.7,0.4-1.7,0.7c-2.3,0.9-5.4,2.3-8.4,3.7c-2.3,1.1-2.4,1.2-2.3,0.8
	c0.1-0.6,0.3-0.8,1-1.6c0.3-0.4,1.5-2.1,2.5-3.9l1.9-3.2l3.5,1.7C104.5,112.4,106.1,113.2,106.1,113.2z M193.8,112.6
	c0.4,1.2,0.7,2.3,0.8,2.4c0.1,0.1,0.1,0.2,0,0.2c-0.1-0.1-5-2.1-5.8-2.4c-0.3-0.1-0.1-0.2,1.9-1.2c1.2-0.6,2.3-1.1,2.3-1.1
	C193.1,110.4,193.5,111.4,193.8,112.6z M212.5,114.7c-0.5,0.7-5.9,5.6-6.1,5.6c0,0,0.4-1.3,0.9-3l1-3h2.3h2.3L212.5,114.7z
	 M203.1,116c0.3,1.1,0.9,4.2,0.8,4.2c-0.1,0.1-5.2-2.9-5.5-3.2c-0.1-0.1,0.4-0.2,1-0.4c0.6-0.2,1.6-0.4,2.2-0.6s1.2-0.3,1.2-0.3
	C203,115.7,203.1,115.9,203.1,116z M61,139.1c0.3,0.5,0.6,1,0.7,1.2c0.2,0.4,0.8,2.1,0.8,2.3c0,0.1-0.7,0.1-1.5,0.1h-1.5v-1
	c0-1.3,0.6-3.5,0.9-3.5C60.4,138.3,60.7,138.6,61,139.1z M49.1,142c0.3,0.7,0.8,2.1,0.7,2.1c0,0-0.5,0.1-1.1,0.2
	c-0.6,0.1-1.1,0.2-1.1,0.2c0,0,0-0.4,0-0.8c0-0.8,0.1-1.3,0.4-2.6l0.1-0.5l0.3,0.3C48.6,141.1,48.9,141.6,49.1,142z M89.2,141
	c0,0.1-0.4,2.1-0.5,2.5c-0.1,0.3-0.1,0.3-0.3,0.1c-0.3-0.3-1.1-1.6-1-1.7C87.5,141.9,89,141,89.2,141C89.2,140.9,89.2,141,89.2,141z
	 M19.6,145.5c0.1,0.1-0.5,1.2-1.1,2l-0.6,0.9l-0.1-0.5c-0.1-0.5,0-2.2,0.1-2.4C17.9,145.4,19.5,145.4,19.6,145.5z M16,145.7
	c0,0.1-0.1,0.3-0.1,0.3c0,0-0.1-0.1-0.3-0.3c-0.2-0.3-0.2-0.3,0.1-0.3C16,145.5,16.1,145.5,16,145.7z M37.6,147.4
	c0,0.6-1.3,2.9-1.6,2.9c-0.4,0-1-2.8-0.7-3.1c0-0.1,0.6-0.1,1.2-0.1C37.5,147.1,37.6,147.1,37.6,147.4z M100.7,154.1
	c1.2,0.5,2.2,0.9,2.2,1c0.3,0.2-1.8,2.9-2.6,3.3c-0.2,0.1-0.9-0.2-3.2-1.4c-1.6-0.9-2.9-1.6-2.9-1.6c0.1-0.1,4-2.1,4.1-2.1
	C98.6,153.2,99.6,153.6,100.7,154.1z M108.5,156.8l3.7,1.1v0.7c0,0.4-0.1,1-0.2,1.4c-0.2,0.7-1.7,2.7-2,2.7c-0.1,0-1.7-0.7-3.6-1.5
	c-1.9-0.8-3.7-1.5-3.9-1.7l-0.5-0.2l0.9-1.1c0.5-0.6,1.1-1.4,1.4-1.8c0.2-0.4,0.5-0.7,0.5-0.7C104.8,155.7,106.5,156.2,108.5,156.8z
	 M201.6,156.1c-1.3,0.9-4.8,2.8-5.1,2.8c-0.1,0-0.1-0.2,0-0.5l0-0.5l2.7-1.1c1.5-0.6,2.8-1.1,2.9-1.1
	C202.1,155.7,201.9,155.9,201.6,156.1z M115.4,158.6l1.1,0.2l-0.1,2.9c0,1.6-0.1,2.9-0.1,3c-0.1,0.1-1.1-0.2-2.4-0.7l-2.3-0.7
	l0.7-1.1c0.8-1.2,1.2-2.2,1.4-3.3c0.1-0.7,0.1-0.7,0.4-0.7C114.2,158.4,114.8,158.5,115.4,158.6z M194.5,159.2
	c0,0.2-0.1,0.4-0.1,0.5c-0.1,0.1-2.4,1-3.4,1.2c-0.4,0.1-0.6-0.2-0.3-0.5c0.2-0.2,3.4-1.5,3.7-1.6
	C194.5,158.8,194.5,159,194.5,159.2z M168.5,164.5c0.1,0.9,0.1,1.7,0,1.7c-0.1,0.1-3.3,0.5-4.1,0.5h-0.5l0.4-1.8l0.4-1.8l1.3-0.1
	c0.7-0.1,1.6-0.2,1.9-0.2l0.5,0L168.5,164.5z M141.6,163.4l1.4,0.1l-0.1,0.8c-0.1,1-0.9,2.6-1.5,3.1c-0.4,0.3-0.5,0.3-1.6,0.3h-1.2
	v-2.1c0-1.1,0-2.2,0.1-2.3c0.1-0.2,0.2-0.2,0.8-0.1C139.9,163.3,140.8,163.4,141.6,163.4z M162.9,163.4c0,0.3-0.6,2.2-0.8,2.7
	c-0.4,0.8-0.6,0.9-2.8,1c-1.1,0.1-2.8,0.1-3.8,0.2l-1.9,0.1l0.5-1.8c0.3-1,0.5-1.8,0.5-1.8c0,0,2.2-0.2,5.3-0.3
	c1.4-0.1,2.6-0.1,2.8-0.1C162.8,163.3,162.9,163.4,162.9,163.4z M112.2,165.1l4.2,1.4l-0.1,0.8c0,0.4-0.1,3-0.2,5.7
	c-0.1,4.1-0.1,5.1,0.1,6.1c0.3,1.9,1,3.6,1.7,4.4c0.3,0.4,0.2,0.4-0.3,0c-0.5-0.3-0.6-0.4-4-0.5c-4.2-0.1-4.7-0.3-5.3-1.5
	c-1-2-1.2-4.5-1-10.9c0.2-5.6,0.3-7,0.5-7C108,163.7,109.9,164.3,112.2,165.1z M152,163.7h0.8l-0.1,0.6c-0.1,0.4-0.2,1.1-0.4,1.7
	c-0.5,1.6-0.3,1.5-5,1.5l-4,0.1l0.5-0.9c0.3-0.5,0.6-1.4,0.7-2l0.2-1.1l3.2,0.1C149.7,163.7,151.5,163.7,152,163.7z M168.6,171.3
	c0.1,1.8,0.1,3.9,0.1,4.7c0,0.8,0.1,2.4,0.1,3.6c0.1,2.3,0.1,2.5,1,2.9c0.2,0.1,0.4,0.3,0.4,0.3c0,0.2-4.7,0.3-6.3,0.1
	c-2.7-0.2-3-0.5-3.7-3.9c-0.2-1-0.3-1.8-0.3-5.8v-4.7l1.4-0.1c0.8-0.1,2.5-0.2,3.8-0.3c1.3-0.1,2.6-0.2,2.9-0.2l0.5,0L168.6,171.3z"
	/>
<path d="M80.6,108c-1.7,0.1-3.7,0.8-5,1.7c-3,2-4.5,6-3.5,9.3c0.8,2.6,3.6,5.2,6.4,5.9c1,0.3,3.6,0.3,4.8,0c3.5-0.7,6.2-3.2,7-6.4
	c0.3-1,0.3-2.9,0-3.8c-0.3-1-1-2.4-1.7-3.3C86.9,109.2,83.4,107.7,80.6,108z M83.5,109.8c4.8,1.4,6.9,6.5,4.3,10.4
	c-0.9,1.3-2.3,2.4-4,3c-0.7,0.3-1.1,0.3-2.6,0.3c-1.5,0-1.9,0-2.7-0.3c-1.3-0.5-2.1-1-3.1-2c-2.1-2.2-2.5-5-1.1-7.7
	c1-1.9,3.2-3.5,5.5-3.9C80.7,109.4,82.5,109.5,83.5,109.8z"/>
<path d="M82.8,112.3c-1.1,0.3-2.1,1.5-2.1,2.5c0,0.8,0.6,1.9,1.4,2.3c0.6,0.3,0.8,0.4,1.6,0.4s1-0.1,1.6-0.4
	c1.9-1.2,1.7-3.8-0.4-4.7C84.3,112.1,83.7,112.1,82.8,112.3z M84.6,114.1c0.4,0.5,0.4,0.8,0.1,1.3c-0.2,0.4-0.4,0.5-1.1,0.5
	c-1.1,0-1.6-1.2-0.8-1.9C83.4,113.6,84.1,113.6,84.6,114.1z"/>
<path d="M54.9,108.3c-2.8,0.8-4.9,2.5-6,4.9c-2,4.4,0.1,9.3,4.8,11.2c1.4,0.5,2.4,0.7,4.4,0.6c1.5-0.1,1.8-0.1,2.8-0.5
	c3.7-1.4,5.9-4.3,6-7.9c0-2.4-0.7-4.1-2.4-5.8c-1.2-1.2-2.3-1.9-3.9-2.4c-0.9-0.3-1.4-0.4-2.8-0.4C56.3,108,55.9,108,54.9,108.3z
	 M59.2,109.7c2.8,0.6,5.2,2.6,5.8,5.2c0.6,2.3-0.1,4.9-1.8,6.5c-0.9,0.9-2.8,1.9-4.1,2.1c-2.7,0.5-5.5-0.3-7.2-2.1
	c-1.5-1.5-2.2-3.3-2.1-5.2c0.1-1,0.1-1.3,0.7-2.3c1.1-2.3,2.9-3.6,5.4-4.1C56.9,109.4,57.9,109.4,59.2,109.7z"/>
<path d="M58.6,112.3c-1.1,0.4-1.7,1.1-2,2c-0.3,1.2,0.6,2.7,1.9,3.1c1,0.3,2.5-0.1,3.2-0.8c0.7-0.7,0.9-1.9,0.6-2.7
	C61.9,112.6,60,111.8,58.6,112.3z M60.5,114.1c0.3,0.2,0.4,0.4,0.4,0.8c0,1.4-2.3,1.5-2.5,0.1c-0.1-0.4,0-0.5,0.3-0.8
	C59.2,113.6,59.9,113.6,60.5,114.1z"/>
<path d="M19.6,135.1c-1.2,0.3-2.2,1.2-2.6,2.2c-0.3,0.7-0.3,2,0,2.7c0.3,0.7,1.1,1.4,1.9,1.9c0.9,0.5,2.6,0.5,3.5,0.1
	c1.4-0.7,2.3-1.9,2.3-3.3c0-0.9-0.1-1.3-0.6-2c-0.5-0.7-1.3-1.2-2.2-1.5C21,134.9,20.4,134.9,19.6,135.1z M21.9,136.8
	c0.7,0.4,1.2,1.3,1.1,2c-0.2,1.1-1.2,1.9-2.4,1.9c-1.9,0-2.9-2.1-1.7-3.5C19.6,136.5,21,136.3,21.9,136.8z"/>
<path d="M31.2,135.9c-1.2,0.2-2.3,1-2.9,2.1c-0.2,0.4-0.3,0.8-0.3,1.5c0,0.9,0,1.1,0.3,1.6c0.4,0.7,0.9,1.2,1.8,1.6
	c0.5,0.2,0.8,0.3,1.8,0.3c1.2,0,1.3,0,2-0.4c2.3-1.3,2.7-4,0.8-5.7c-0.3-0.3-0.7-0.6-0.9-0.7c-0.3-0.2-1.8-0.5-2-0.5
	C31.8,135.8,31.5,135.8,31.2,135.9z M33.3,137.7c1.3,1,1.3,2.8-0.1,3.6c-0.6,0.4-1.8,0.4-2.4,0c-1.2-0.7-1.4-2.4-0.4-3.3
	C31.1,137.3,32.6,137.2,33.3,137.7z"/>
</svg>
