<?xml version="1.0" encoding="utf-8"?>
<!-- Generator: Adobe Illustrator 17.0.0, SVG Export Plug-In . SVG Version: 6.00 Build 0)  -->
<!DOCTYPE svg PUBLIC "-//W3C//DTD SVG 1.1//EN" "http://www.w3.org/Graphics/SVG/1.1/DTD/svg11.dtd" [
	<!ENTITY ns_flows "http://ns.adobe.com/Flows/1.0/">
	<!ENTITY ns_extend "http://ns.adobe.com/Extensibility/1.0/">
	<!ENTITY ns_ai "http://ns.adobe.com/AdobeIllustrator/10.0/">
	<!ENTITY ns_graphs "http://ns.adobe.com/Graphs/1.0/">
]>
<svg version="1.1" id="Layer_1" xmlns:x="&ns_extend;" xmlns:i="&ns_ai;" xmlns:graph="&ns_graphs;"
	 xmlns="http://www.w3.org/2000/svg" xmlns:xlink="http://www.w3.org/1999/xlink" xmlns:a="http://ns.adobe.com/AdobeSVGViewerExtensions/3.0/"
	 x="0px" y="0px" width="256px" height="256px" viewBox="0 0 256 256" style="enable-background:new 0 0 256 256;"
	 xml:space="preserve">
<path style="fill:none;stroke:#000000;stroke-width:2;stroke-miterlimit:10;" d="M170.2,8.1l0.4-0.4v1.8c0,1.2-2.1,9.3-6.4,24.3
	s-6.9,25.7-7.9,31.9l-1.5,9.5l3.7-4.2l3.7-4.2l1.8,1.3c1.2,0.9,3,2.6,5.3,5.3c2.3,2.7,4.1,4.8,5.5,6.5l2,2.6l0.5,7.2l0.5,7.2
	l-1.8-3.6c-1.2-2.4-2.7-4.5-4.5-6.5c-1.8-2-4.5-4-8.3-6.3c-3.7-2.2-6.5-2-8.3,0.7c-1.8,2.7-3.9,11.7-6.3,27l-3.6,23l3-3.3l3-3.3
	l1.9-4.1c1.3-2.7,2.8-5.2,4.6-7.3c1.8-2.1,3.3-3.5,4.5-4l1.8-0.8l0.9,2.2c0.6,1.4,1.2,3.4,1.8,5.8l0.9,3.6l2.2-1.8
	c1.4-1.2,2.7-2.2,3.8-3.2l1.7-1.4h1.5l3.8,3.3c2.6,2.2,5.3,4.8,8.1,7.8s5.3,8.7,7.3,17.3c2,8.5,3.1,13.4,3.1,14.8v2l-2-3.6
	c-1.4-2.4-3-5.7-4.9-10c-1.9-4.2-3.9-8.2-6-11.9l-3.2-5.5l-5.4-1.3c-3.6-0.9-5.6-1.1-6-0.7l-0.7,0.7l0.3,0.8
	c0.2,0.5,0.9,3.4,2.3,8.7c1.4,5.3,2,9.4,2,12.3v4.3l-1.3-3.6l-1.3-3.6l-0.8,2.3c-0.5,1.5-1.4,4.4-2.6,8.7l-1.8,6.4l1.2-0.2
	c0.8-0.1,1.9,0.2,3.5,0.7l2.3,0.8l1.4,3.2c0.9,2.1,1.7,5,2.2,8.6l0.8,5.4l-4-6l-4-6l-3,1.2c-1.9,0.8-3.5,2.8-4.8,6
	c-1.2,3.2-2,6.3-2.5,9.4s-0.4,4.7,0.3,5.1c0.6,0.4,0.9,1.3,1,2.7l0.2,2l-3.1-0.2c-2-0.1-3.9,1.3-5.5,4.1s-4,6.8-7.1,12.2
	c-3.1,5.3-4.6,9.2-4.8,11.8l-0.3,3.8l14.6,1.3l14.6,1.3l-1,0.5c-0.7,0.4-19.2,0.4-55.6,0l-54.6-0.5l-0.2-0.8
	c-0.1-0.5,3.5-0.9,10.6-1l10.7-0.3l-2-3.2c-1.4-2.1-3.5-4.6-6.5-7.4s-6.2-7.2-9.6-13.2c-3.4-6-5.3-9.1-5.5-9.6l-0.4-0.7l-1.9,0.9
	c-1.3,0.6-2.4,1.3-3.3,2.2l-1.2,1.3l1.8-4.2c1.2-2.8,2.4-4.3,3.5-4.6l1.7-0.4l-0.8-4.1c-0.5-2.7-0.7-6.5-0.7-11.5l0.1-7.4l3.2,1.8
	c2.1,1.2,4.5,3.7,7.1,7.4c2.6,3.7,5.5,9.1,8.9,16.1l5.1,10.5L78.8,186c-0.9-10.2-2-17.7-3.6-22.5c-1.5-4.8-3.6-9.6-6.1-14.3
	c-2.6-4.8-4-7.4-4.3-7.9l-0.5-0.8l-1.5,1.8c-1,1.2-4.4,7.3-10.2,18.1l-8.7,16.4l1.3-4.3c0.9-2.9,4.3-10.4,10.4-22.6
	s9.8-18.5,11.1-18.9l2-0.7l3,6.6c1.9,4.4,3.7,8.1,5.3,11l2.3,4.3l-1.4-9.9c-0.9-6.6-1.9-12.4-3.3-17.1c-1.4-4.8-2.7-7.8-3.8-9.2
	l-1.8-2l-1.8,2c-1.2,1.4-4.8,7.1-10.7,17.1s-9.1,15.2-9.5,15.6l-0.5,0.5l1.3-3.3c0.9-2.2,3.1-7.1,6.6-14.6
	c3.6-7.5,6.5-14.1,8.8-19.8l3.5-8.6l1.8,1.3c1.2,0.9,2.7,2.7,4.5,5.5s3,5.2,3.5,7.1l0.8,2.8l0.3-0.3c0.2-0.2,0.2-1.8,0.2-4.9
	l-0.2-4.6l0.9-0.3c0.6-0.2,1-5.2,1.3-15L80,79.9l0.9,0.2c0.6,0.1,1.4,4.9,2.3,14.5l1.4,14.3l-0.5,5.6l-0.5,5.6l0.9-1
	c0.6-0.7,1.8-3.8,3.7-9.5c1.9-5.6,3.4-9.8,4.5-12.5l1.7-4.1l1.7,1.3c1.1,0.9,3,3.5,5.6,7.9l4,6.6l-3.6-2.2c-2.4-1.4-4-2.4-4.9-2.7
	l-1.3-0.5l-1.7,3.5c-1.1,2.3-2.9,6.6-5.3,12.9c-2.4,6.3-3.6,13.9-3.6,22.7c0,8.8,0.3,13.5,0.8,14.1c0.5,0.5,0.9,1.4,1,2.6l0.3,1.8
	l6.3-15c4.2-10,6.6-15,7.3-15.1l1-0.2l1.9,5.6l1.9,5.6l3.7-8.1c2.5-5.4,3.9-8,4.2-7.9l0.5,0.2l0.9-22.2l0.9-22.2h1.3
	c0.9,0,1.1,4.2,0.8,12.5s-0.5,13.4-0.5,15.1v2.6l1.4,0.7c0.9,0.4,1.9,1.7,2.8,3.8c0.9,2.1,1.5,4,1.7,5.5l0.3,2.3l-2.7-2.6l-2.7-2.6
	l-0.4,2.8c-0.3,1.9-0.3,8.1-0.2,18.7l0.3,15.8l1.8-7.9l1.8-7.9l1.8-1.5c1.2-1,3.7-8.3,7.4-21.7c3.7-13.4,5.6-20.7,6.4-21.7l1.3-1.5
	l1,4.1c0.7,2.7,1.5,5.7,2.5,8.9l1.4,4.9l3-22.5c1.9-15,2.7-22.8,2-23.4l-0.9-0.9l-2.8,1.3c-1.9,0.9-3.3,1.7-4.2,2.5l-1.4,1.2
	l0.8-4.3l0.8-4.3l4.5-2.7c3-1.8,4.8-2.5,5.4-2c0.6,0.4,1.2,1.4,1.9,3l1,2.3l1.5-5.9c1-3.9,3.7-12.8,8.1-26.7S169.9,8.3,170.2,8.1z
	 M91.6,164l0.3-0.5l0.3,0.3c0.2,0.2,0.4,2.5,0.5,6.9c0.2,4.4,0.5,7.3,1,8.7c0.5,1.4,1,3.2,1.4,5.4c0.5,2.2,0.2,3.5-0.9,3.7l-1.5,0.4
	l1.2,0.9c0.8,0.6,1.6,1.7,2.5,3.2s2.1,4.4,3.8,8.7c1.7,4.2,3.4,8.2,5.1,11.8s3.2,6.3,4.5,8.3c1.3,2,2,3.2,2.3,3.6
	c0.3,0.4,0.4,0.8,0.5,1.2l0.2,0.5l-0.8,0.2c-0.5,0.1-4.5,0.1-12.2,0L88.3,227l0.3-6.4c0.2-4.2,0.5-7.1,0.9-8.6
	c0.5-1.5,0.8-2.2,1.2-2.5l0.5-0.3l1.2,0.4c0.8,0.3,1.5,0.8,2.2,1.7s1.4,2.1,2.3,3.8s1.4,2.7,1.8,3.1l0.5,0.5l-0.3-3.3
	c-0.2-2.2-0.8-5.2-1.8-8.9s-2.1-6.5-3.2-8.3s-1.9-2.6-2.5-2.5s-1.1,0.5-1.7,0.9c-0.6,0.5-1.2,1.2-1.9,2.5l-1,1.8l0.3-9.2
	c0.2-6.1,0.5-10.9,1-14.3c0.5-3.4,1.2-6.4,2-8.9S91.4,164.4,91.6,164z M97.9,150c0.6-1.9,1.1-2.8,1.4-2.7l0.5,0.2l0.7,1.2
	c0.4,0.8,0.7,1.3,0.9,1.7c0.2,0.4,0.2,1.1,0,2.3s-0.7,2.5-1.4,4c-0.8,1.5-1.4,2-2,1.8l-0.9-0.4l-0.9-0.5c-0.6-0.4-0.6-1.2,0-2.6
	C96.7,153.5,97.3,151.9,97.9,150z M103.9,156.5l0.5-0.2l0.9,3.1c0.6,2,1.2,3.7,1.7,5.1c0.5,1.4,0.9,3.2,1,5.4l0.3,3.3l-1.3-1.8
	c-0.9-1.2-1.8-2.6-2.8-4.1c-1-1.5-2-3-3-4.2c-1-1.3-0.8-2.7,0.4-4.2C102.8,157.3,103.5,156.6,103.9,156.5z M112.5,140.8h0.5l0.2,0.2
	c0.1,0.1,0.2,1.7,0.4,5c0.2,3.3,0.2,5.8-0.2,7.6c-0.3,1.8-0.6,2.7-0.9,2.8l-0.5,0.2l0.2,2.3c0.1,1.5,0.1,3-0.2,4.3l-0.3,2l-0.8-2.3
	c-0.5-1.5-1.1-4.3-1.8-8.4c-0.7-4.1-0.6-7.1,0.3-8.9s1.5-3.1,1.9-3.7C111.9,141.1,112.2,140.8,112.5,140.8z M121.1,159.9l1.7-6.6
	h0.5c0.4,0,0.7,0.4,1.2,1.3s1.2,2.2,2.5,4.1c1.2,1.9,2,3.8,2.6,5.9c0.5,2,1.4,5.5,2.6,10.5c1.2,5,1.9,7.8,2.3,8.4s0.6,3.8,0.7,9.5
	l0,8.4l-0.7-0.3c-0.4-0.2-0.7-0.4-0.8-0.8c-0.1-0.4-0.5-0.6-1.2-0.8s-1.7,1.9-3,6.1c-1.3,4.2-2.1,6.8-2.5,7.7
	c-0.4,0.9-0.5,1.5-0.5,2v0.8l2.7-3.2c1.8-2.1,2.9-3.2,3.2-3.2h0.5l0.2,0.2c0.1,0.1,0.3,3,0.5,8.6l0.4,8.4h-12.8l0.2-4.1
	c0.1-2.7-0.1-5.4-0.4-7.9c-0.4-2.6-0.4-7.4-0.2-14.5c0.3-7.1,0.6-10.7,0.9-10.9l0.5-0.3l1.4,0.4c0.9,0.3,1.8,1.4,2.6,3.5
	c0.8,2,1.3,3.1,1.7,3.1h0.5l-0.4-4.6c-0.3-3.1-0.7-5.3-1.4-6.6c-0.7-1.4-1.6-2.8-2.7-4.2c-1.1-1.5-1.8-2.2-2.2-2.3
	c-0.4-0.1-0.9,0.9-1.7,3l-1.2,3.1l0.3-8.9C119.3,169.5,120,164.4,121.1,159.9z M134.2,116.8c1.3-3.9,2.1-5.8,2.5-5.8l0.5,0.2
	l0.2,0.2c0.1,0.1,0.2,5.4,0.3,16l0.2,15.8l-1-0.7c-0.7-0.4-1.1-0.7-1.2-0.8c-0.1-0.1-0.2,3.9-0.4,11.9c-0.2,8-0.4,12.3-0.5,12.8
	l-0.3,0.8l-0.8-3.1c-0.5-2-1-4.8-1.5-8.2c-0.5-3.4-1.4-6.3-2.8-8.7l-2-3.6l0.3-1.5c0.2-1,1-4.5,2.6-10.5
	C131.4,125.6,132.9,120.7,134.2,116.8z M158.5,116.2l0.3-0.3l1,0.8c0.7,0.5,1.4,1.9,2.2,4.2l1.2,3.5l-1.8,2.3
	c-1.2,1.5-2.3,3-3.3,4.2c-1,1.3-1.7,1.9-2,1.9s-0.7,0.4-1.2,1c-0.5,0.7-1,1.4-1.7,2.3s-1.4,1.9-2.3,3.1c-0.9,1.2-1.8,2.6-2.8,4.1
	c-1,1.5-2.2,3-3.5,4.2c-1.3,1.3-2.1,1.9-2.5,2l-0.5,0.2l0.9-4.6c0.6-3.1,1.7-5.9,3.2-8.4c1.5-2.6,2.6-4.2,3.1-5.1
	c0.5-0.9,1.2-2.4,2-4.6l1.3-3.3l1.5-1.3c1-0.9,2-2,3.1-3.6S158.4,116.4,158.5,116.2z M163,132c0.6-0.4,1.1-0.3,1.4,0.4
	c0.4,0.7,0.6,1.2,0.8,1.5l0.3,0.5l0.2,1.2c0.1,0.8-0.4,1.7-1.4,2.7s-2.5,2.5-4.2,4.5s-2.7,3.1-2.8,3.5c-0.1,0.4-0.3,0.5-0.7,0.5
	c-0.4,0-0.7,0.4-1.2,1s-1.3,2.4-2.7,5.1c-1.4,2.7-2.2,4.7-2.7,5.9l-0.6,1.6h-0.9c-0.6,0-1.3,0.6-2.2,1.8c-0.9,1.2-1.7,2.3-2.6,3.3
	l-1.3,1.5l-0.3-0.8c-0.2-0.5-0.3-2.2-0.3-5.1v-4.3l0.8-1.3c0.5-0.9,1.2-1.9,2-3.1s1.8-2.6,2.8-4.1c1-1.5,3.7-4.5,8.1-9.1
	S162.4,132.4,163,132z"/>
</svg>
