<?xml version="1.0" encoding="utf-8"?>
<!-- Generator: Adobe Illustrator 22.1.0, SVG Export Plug-In . SVG Version: 6.00 Build 0)  -->
<svg version="1.1" xmlns="http://www.w3.org/2000/svg" xmlns:xlink="http://www.w3.org/1999/xlink" x="0px" y="0px"
	 viewBox="0 0 256 256" style="enable-background:new 0 0 256 256;" xml:space="preserve">
<g id="Layer_1">
	<g>
		<g>
			<path style="fill:#2E4266;" d="M191.8,70.4v120.7l-129.6,0.1V70.4c0-35.7,29-64.7,64.7-64.7c17.9,0,34,7.3,45.8,18.9
				c0.4,0.4,0.8,0.8,1.2,1.2C185.1,37.4,191.8,53.1,191.8,70.4z"/>
		</g>
		<g>
			<path style="fill:#FFFFFF;" d="M209.6,248.7H45.7c0-15.5-5.4-38.2,2.1-46.1c4.4-4.9,9.4-8.4,14.8-11.4
				c9.8-5.2,21.4-7.8,35.8-10.2c0.5-0.1,1-0.2,1.4-0.3c4.7-1.4,7.9-5.6,7.9-10.6v-8.8c-16.9-6.5-29.4-21.6-32.3-39.9
				c-7-1.6-12.2-7.9-12.2-15.5c0-6.5,3.9-12,9.4-14.5c3,0,6.2-0.3,9.5-1.2c21.3-5.1,46.4-16,66.9-33.8c5.4,17,15.9,29.5,28.5,33.4
				v0.2c7.8,1,13.9,7.7,13.9,15.8c0,8.3-6.5,15.3-14.6,15.9c-3.1,17.5-14.9,32.4-31,39.1v8.9c0,4.7,2.9,8.8,7.1,10.4
				c0.8,0.3,1.5,0.4,2.3,0.5c13.7,2.1,26.5,4.5,36.9,10.4c5.2,2.9,9.7,6.6,13.6,11.6C212.3,211.1,209.6,233.5,209.6,248.7z"/>
		</g>
		<g>
			<circle style="fill:#2E4266;" cx="101.8" cy="102.3" r="5.8"/>
		</g>
		<g>
			<circle style="fill:#2E4266;" cx="152.9" cy="102.3" r="5.8"/>
		</g>
		<g style="opacity:0.1;">
			<path style="fill:#0C0C0C;" d="M127.2,136.2c-10,0-16-3-16.3-3.2c-0.9-0.4-1.1-1.4-0.8-2.3c0.4-0.9,1.4-1.1,2.3-0.8
				c0.2,0.1,12.8,6.4,31.9-0.1c0.9-0.3,1.8,0.2,2.2,1.1c0.3,0.9-0.2,1.8-1.1,2.2C138.5,135.5,132.3,136.2,127.2,136.2z"/>
		</g>
	</g>
	<path style="fill:#68EAD7;" d="M210.2,249.9H44.4c0-16.1-3.5-39.7,3.9-48c12.6-14.1,28.4-18.5,50.7-22.4c0.5-0.1,1-0.2,1.4-0.3
		l27.2,45.7l25.8-46.3c0.8,0.3,1.5,0.5,2.3,0.6c20.6,3.1,38.8,7.4,50.5,22.7C212.9,210.8,210.2,234.1,210.2,249.9z"/>
	<path style="fill:#E5E5E5;stroke:#2E4266;stroke-width:5;stroke-miterlimit:10;" d="M210.2,249.9H44.4c0-16.1-3.5-39.7,3.9-48
		c12.6-14.1,28.4-18.5,50.7-22.4c0.5-0.1,1-0.2,1.4-0.3l5.4,70.8h21.6h19.5l6.3-71.3c0.8,0.3,1.5,0.5,2.3,0.6
		c20.6,3.1,38.8,7.4,50.5,22.7C212.9,210.8,210.2,234.1,210.2,249.9z"/>
	<path style="fill:#F4F4F4;" d="M146.5,174.2c0,0,3.5,34.8-6.3,72.8h12c0,0,12.7-11.4,16.8-23.9l-11.1-6.8l11.1-1.6
		c0,0-3.5-24.4-13.4-36L146.5,174.2z"/>
	<path style="fill:#F4F4F4;" d="M107.2,174.2c0,0-3.5,34.8,6.3,72.8h-12c0,0-12.7-11.4-16.8-23.9l11.1-6.8l-11.1-1.6
		c0,0,3.5-24.4,13.4-36L107.2,174.2z"/>
	<g>
		<path style="fill:#2E4266;" d="M107.8,169.4v1.1c0,1.3-0.2,2.5-0.6,3.7c-4,1.4-7.5,4.1-10.4,7.6c-13,15.3-16.9,45.5-17,45.9
			l-4.3-0.5c0.2-1.6,3.6-27.5,14.9-44.2C94.9,176.3,100.7,171.2,107.8,169.4z"/>
	</g>
	<g>
		<path style="fill:#2E4266;" d="M166.4,187.2l-4.1,1.5c-1.1-2.8-2.9-5.3-5.2-7.4c-3.2-3-7.4-5.2-10.4-6.6c-0.6-1.4-1.1-3-1.1-4.7
			v-0.4c4.2,1.6,13.2,5.6,18.2,12.8C164.9,183.9,165.7,185.5,166.4,187.2z"/>
	</g>
	<g>
		<path style="fill:#2E4266;" d="M154.3,206.4c-0.1-0.3-2.6-7.6,0.6-13.7c1.7-3.4,4.8-5.5,8.9-6.7c4-1.2,7.8-0.8,11,1.1
			c6.2,3.6,8.3,11.3,8.4,11.6l-4.2,1.1c0-0.1-1.7-6.4-6.4-9c-2.3-1.3-4.8-1.5-7.7-0.6c-3,0.9-5.1,2.4-6.3,4.5
			c-2.3,4.4-0.4,10.3-0.4,10.3L154.3,206.4z"/>
	</g>
	<g>
		<g>
			<path style="fill:#2E4266;" d="M167.6,234c-3.9,0-9-0.8-9.6-4.5c-0.5-2.9-4-23.9-4.1-24.8c-0.2-1.2,0.6-2.3,1.7-2.5
				c1.2-0.2,2.3,0.6,2.5,1.7c0,0.2,3.6,21.8,4.1,24.8c0.5,0.9,4.9,1.3,8.7,0.9c1.2-0.1,2.3,0.8,2.4,1.9s-0.8,2.3-1.9,2.4
				C170.5,233.8,169.1,234,167.6,234z"/>
		</g>
		<g>
			<path style="fill:#2E4266;" d="M181.6,231.2c-0.8,0-1.6-0.4-1.9-1.2c-0.5-1.1,0-2.4,1.1-2.9c2.9-1.4,5.8-3.6,6.1-4.5
				c-1.1-3.1-8-23.5-8.1-23.7c-0.4-1.1,0.2-2.4,1.3-2.7c1.1-0.4,2.4,0.2,2.7,1.3c0.3,0.9,7.1,20.9,8.1,23.8c1.5,4.5-5.4,8.3-8.3,9.7
				C182.3,231.1,182,231.2,181.6,231.2z"/>
		</g>
	</g>
	<g>
		<path style="fill:#7C7C7C;" d="M167.2,234c-1.9,0-8.3-0.3-9.3-4.4c-0.8-3-4-24-4.2-25l4.3-0.6c1,6.1,3.6,22.3,4.1,24.6
			c0.3,0.5,2.8,1.2,5.4,1.2l0.1,4.3C167.5,234,167.4,234,167.2,234z"/>
	</g>
	<g>
		<path style="fill:#7C7C7C;" d="M184.6,229.9l-1.9-3.9c2.3-1.2,4.1-2.9,4.1-3.6c-0.6-2.3-6.1-17.9-8-23.6l4.1-1.4
			c0.3,0.9,7.4,21,8.1,23.9C192.1,225.8,185.9,229.2,184.6,229.9z"/>
	</g>
	<circle style="fill:#7C7C7C;" cx="77.7" cy="233" r="8.3"/>
	<path style="opacity:0.2;fill:#0C0C0C;" d="M198.3,195.7c0,0,7.6,38.4-6.5,46c-14.1,7.6-45.3,7-45.3,7h63
		C209.6,248.7,223.7,208.7,198.3,195.7z"/>
</g>
<g id="guidelines">
</g>
</svg>
