<?xml version="1.0" encoding="utf-8"?>
<!-- Generator: Adobe Illustrator 17.0.0, SVG Export Plug-In . SVG Version: 6.00 Build 0)  -->
<!DOCTYPE svg PUBLIC "-//W3C//DTD SVG 1.1//EN" "http://www.w3.org/Graphics/SVG/1.1/DTD/svg11.dtd" [
	<!ENTITY ns_flows "http://ns.adobe.com/Flows/1.0/">
	<!ENTITY ns_extend "http://ns.adobe.com/Extensibility/1.0/">
	<!ENTITY ns_ai "http://ns.adobe.com/AdobeIllustrator/10.0/">
	<!ENTITY ns_graphs "http://ns.adobe.com/Graphs/1.0/">
]>
<svg version="1.1" id="Layer_1" xmlns:x="&ns_extend;" xmlns:i="&ns_ai;" xmlns:graph="&ns_graphs;"
	 xmlns="http://www.w3.org/2000/svg" xmlns:xlink="http://www.w3.org/1999/xlink" xmlns:a="http://ns.adobe.com/AdobeSVGViewerExtensions/3.0/"
	 x="0px" y="0px" width="1280px" height="846px" viewBox="0 0 1280 846" style="enable-background:new 0 0 1280 846;"
	 xml:space="preserve">
<g transform="translate(0.000000,846.000000) scale(0.100000,-0.100000)">
	<path d="M9080,8447c-25-7-67-25-95-40c-39-21-64-27-115-27c-75,0-128-21-207-80c-58-45-96-63-167-79c-26-6-85-33-130-59
		c-74-44-82-52-91-90l-10-41l-25,19c-27,21-70,27-70,10c0-6,7-13,15-16c36-14,10-22-52-17c-60,5-71,3-95-17c-28-21-38-60-17-60
		c6,0,22,9,36,20s29,17,34,14c20-12,6-24-48-40c-105-30-145-46-166-67l-21-21l22-14c30-20,27-35-5-28c-27,6-30,2-85-117
		c-66-143-78-177-78-227c0-49,40-123,71-132c13-4,42-11,64-17l41-10l11-94c13-112,43-186,92-229c35-31,36-31,39-10c2,12-10,44-25,70
		c-16,26-32,55-36,65c-11,30,11,18,33-19c12-19,24-33,27-30c6,6-23,60-58,108c-40,56-52,98-38,134l11,29l18-46
		c21-53,104-191,125-209c8-6,19-9,25-5s-7,26-34,56c-52,58-96,141-96,182c0,25,2,28,15,17c8-7,29-38,45-69c27-51,65-89,76-78
		c3,3-16,35-41,72c-26,37-49,83-52,101l-5,33l-30-15c-92-47-228,19-228,111c0,24,25,85,35,85c2,0,1-15-2-33c-7-44,27-111,67-132
		c32-16,130-21,130-6c0,6-23,11-51,13c-74,4-94,33-93,131c1,102,61,237,77,175c8-30,20-16,41,48c20,62,72,125,133,160
		c54,33,73,23,48-26c-13-24-14-35-5-44c16-15,37,14,45,65c4,21,15,49,25,61l18,23l7-27c5-20,0-40-19-74c-14-26-26-58-26-73v-26
		l23,27c12,16,51,40,87,54c80,32,100,49,48,41c-42-6-80,1-72,14c16,27,75,43,173,48c101,6,104,7,87,24c-16,16-30,17-114,11
		c-108-8-119,5-25,32c41,12,85,15,169,12c94-3,111-1,100,10c-31,31-155,34-283,6c-36-7-27,11,15,29c88,39,187,46,291,22
		c35-9,66-14,68-12c11,12-38,33-95,42c-36,6-67,15-69,21c-10,31,164,44,255,20c42-12,52-12,52-1c0,16-19,24-88,39c-29,6-53,16-53,21
		c1,19,86,16,172-6c49-13,91-20,96-16c12,12-14,24-81,37c-34,7-72,18-86,26l-25,13l31,1c17,0,72-13,122-30c96-32,127-36,152-20
		c18,11,10,15-74,29c-60,11-90,26-80,42c7,13,66,11,117-3c45-12,102-4,92,12c-3,6-24,10-46,10c-41,0-79,14-79,29c0,14,78,1,156-25
		c39-13,74-24,77-24c14,0,6,29-10,39c-10,5-15,12-12,16c4,3,41-8,84-25s80-29,83-26c12,13-10,33-49,46l-44,14l33,4c19,2,54-4,80-12
		c30-11,49-13,56-6c6,6,3,12-7,16c-9,3-17,10-17,15c0,4,17,1,38-8c32-13,49-14,132-3c85,11,99,11,127-4c40-20,50-36,24-36
		c-73,0,49-53,229-100c57-15,190-78,190-90c0-5-7-7-16-3c-13,5-15,2-9-18c7-22,4-21-29,10c-53,51-54,31-1-41c66-91,98-162,103-229
		c4-56-12-129-28-129c-5,0-10,33-13,73c-4,67-49,217-85,284c-22,41-132,114-132,88c0-3,27-32,60-64c35-34,70-81,85-112
		c25-53,34-133,16-143c-5-3-27,38-50,92c-50,119-81,167-123,188c-41,21-88,35-88,25c0-4,30-31,66-60c45-37,64-58,60-68
		c-4-9,13-46,39-88c25-40,52-89,60-109c16-38,20-116,6-116c-11,0-25,34-56,138c-35,120-69,177-134,223c-33,24-57,35-59,29
		c-3-7,1-17,7-23c26-26,6-23-55,9c-52,27-77,34-123,34c-33,0-65-6-76-14c-18-13-16-15,25-36c114-58,209-202,217-328l4-67l-24,53
		c-14,31-34,59-48,66c-13,6-43,43-66,81c-43,72-84,115-109,115s-15-28,21-61c19-18,35-42,35-53c-1-19-2-18-16,6c-8,15-45,46-84,68
		c-81,49-103,70-65,62c14-2,25,0,25,4c0,13-101,54-133,54c-27,0-28,0-12-31c18-34,91-84,139-95c70-15,216-210,216-288
		c-1-28-19-66-33-66c-3,0-13,22-22,50c-18,54-33,70-45,50c-5-9-15,0-31,29c-13,22-30,41-37,41c-8,0-42,27-76,60c-48,46-70,60-92,60
		l-29-1l21-17c12-9,50-37,84-62c67-48,129-122,155-183c14-35,14-38-2-44c-10-3-44-16-76-29l-59-22l-92,88c-89,85-123,109-176,125
		c-23,7-24,6-10-10c8-9,39-34,70-55c60-41,86-67,77-76c-3-4-26,10-50,30c-24,19-70,47-103,62c-32,15-69,40-82,55c-25,31-52,38-52,15
		c0-8,14-26,31-40c35-29,31-33-11-11c-26,14-61,12-60-4c1-3,32-26,71-50c103-64,126-111,55-111c-24,0-51,13-92,43
		c-76,56-84,60-84,48c0-19,53-72,94-93c22-12,77-33,121-48c77-26,79-27,55-40c-14-7-50-21-81-30l-56-17l-54,34c-70,45-154,83-182,83
		c-15-1-5-10,34-30c31-16,68-42,81-59c19-22,28-27,37-18c8,8,15,7,28-6c16-15,12-18-48-46c-89-42-125-48-131-24c-3,11-25,29-50,40
		c-96,46-157,214-112,309c9,19,20,34,24,34c5,0,14-17,21-37c14-42,39-86,46-79c3,2-2,29-11,59s-16,78-16,106c0,40-4,53-17,59
		c-34,13-108,5-196-22c-60-19-105-27-138-24c-57,4-63-7-15-27c33-14,42-13,148,21c78,24,123,33,145,29c42-8,49-21,26-47
		c-27-30-82-55-185-84c-123-36-175-59-285-132c-121-80-165-102-205-102c-41,0-70,19-98,65c-12,19-26,35-31,35c-16,0-9-47,11-73
		c25-31,25-47,3-47c-40,1-48,17-53,112l-5,93l-19-34c-10-19-21-60-23-91c-5-52-3-58,20-77c14-11,60-32,102-47l77-27l166,109
		c184,121,240,152,321,176c96,28,106,21,75-60c-15-39-15-44,6-92c16-36,47-75,106-132l83-80l-54-15c-148-43-418-169-620-288l-60-35
		l-33,29c-46,41-73,40-32-1c35-35,26-55-42-85c-35-15-65-29-67-31s7-39,19-83c22-73,22-82,8-98c-57-65-88-185-88-343
		c0-189,40-355,120-497c29-52,30-57,20-110c-18-98-14-116,28-149c35-28,39-29,72-17c19,6,65,12,102,12c63,1,69-1,85-26
		c14-20,18-48,18-109c0-70,4-87,23-113c35-47,105-84,152-79c25,2,39,0,36-7c-3-5-10-27-17-47c-16-49-6-60,81-93c38-14,73-32,78-38
		c5-7,12-57,14-112c4-104,22-159,65-197c31-28,145-9,409,67c179,52,202,55,161,21c-19-15-53-75-96-167c-37-79-78-164-90-189
		c-35-67-124-153-246-240c-138-98-167-125-198-186c-15-30-42-62-68-80c-50-36-123-150-169-263c-67-164-110-389-110-576v-108l-20,26
		c-11,14-20,29-20,34s-32,40-71,78c-87,86-310,330-405,445c-102,123-198,254-308,423c-53,81-118,170-144,196c-47,47-50,48-125,56
		l-77,7v91c0,103-24,464-40,602c-24,212-80,310-218,383c-53,29-72,47-72,71c0,4,45,7,99,7c64-1,104,3,112,11c6,6,14,32,16,56l5,46
		l-37,7c-20,3-98,3-173-1c-187-11-199-9-239,25c-93,82-209,113-418,114c-192,0-385-32-585-96c-77-25-92-35-89-62c0-12,1-26,0-32
		c-1-7-82-13-253-18c-139-3-290-9-336-13l-82-6l6,31c10,49-3,79-61,142c-30,33-55,64-55,69s-3,16-6,24c-7,20,48,81,118,128l58,40v58
		c0,101-6,113-69,143c-31,15-96,59-145,98s-109,82-135,97c-122,68-148,91-167,138c-15,41-16,55-6,104c21,99,16,139-19,172
		c-16,15-46,34-66,41c-31,11-47,32-133,178c-111,186-170,264-250,328c-44,35-61,58-81,109c-39,92-71,129-147,167
		c-97,49-163,60-347,60c-313-1-496-53-929-267c-260-128-331-173-434-277c-89-89-134-160-174-272c-32-89-108-385-108-418
		c0-11,10-34,21-49c12-16,20-34,17-41c-5-16-85,44-93,72c-4,12-9,236-10,498c-1,261-6,496-10,521l-7,47l-62,16
		c-128,33-195,40-391,40c-197,0-300-9-484-41l-94-17l7-415c11-739,13-686-22-735c-34-47-94-86-134-86c-23,0-31-9-56-62
		c-67-142-87-244-86-438c1-177,19-264,79-386c33-67,113-164,136-164c6,0,17-16,24-35c8-19,33-63,56-97c40-62,41-64,35-133
		c-8-97-25-148-103-307c-66-137-67-138-47-159c27-31,92-59,140-59c39,0,43-3,79-57c47-71,129-152,203-201l55-37l-229-8
		c-126-4-331-5-455-1c-205,5-230,4-260-12l-34-18l25-7c39-11,504-10,734,2c231,12,226,13,226-52v-36l-262-6c-145-4-354-10-466-13
		l-203-7l-30-28l-29-27l117-7c65-5,219-5,343-1c595,19,552,20,606-10c130-69,294,27,294,173c0,52,0,52,38,62c93,26,167,91,287,255
		c16,21,31,28,74,33c30,3,74,17,98,30c83,47,81,60-45,294c-79,145-103,250-67,290c9,9,40,72,69,140l52,124l110,6c60,4,121,12,137,18
		c17,6,27,7,27,1s20-20,45-32c29-14,45-28,45-40c0-29,45-110,77-139c15-15,64-50,108-79c128-84,172-134,189-216c7-31,11-33,99-54
		c51-12,243-62,427-112c465-124,607-156,938-213l32-6v-154c0-151-12-249-32-261c-5-3-22,5-36,18c-93,86-258,163-578,272
		c-317,108-392,140-599,261c-132,77-169,95-176,84c-15-24-9-120,15-234c28-133,25-162-11-109c-53,77-85,232-66,319c8,33,13,39,31,37
		c28-4,27,1,0,41c-53,75-48,76-85-15c-19-46-49-128-68-183c-32-96-35-101-77-124c-32-17-60-47-103-110c-32-47-110-156-173-240
		c-63-85-135-193-161-240c-39-71-77-116-244-290c-365-377-446-519-492-866c-21-153-124-588-173-725c-36-103-37-108-36-250
		c0-80,7-273,15-430c21-382,9-563-57-884c-30-149-31-229-4-274c18-29,23-32,36-21c11,9,15,26,12,58c-3,28,5,83,18,138
		c57,227,59,260,60,923c1,657,5,721,54,925c22,89,79,250,86,243c2-2-1-31-6-64c-14-89-16-216-6-449c7-175,5-237-9-370
		c-27-245-6-400,62-473c18-19,36-33,38-30c3,3-1,37-9,75c-23,109-37,314-30,448c5,82,1,183-11,320c-30,345-11,494,93,736
		c47,108,53,149,17,119c-30-24-26-2,11,71c46,92,77,139,174,259c94,118,96,120,73,120c-10,0-46-30-80-67c-63-67-78-70-47-10
		c31,59,68,99,169,182c55,46,111,95,124,109l24,26h-22c-13,0-36-9-53-21c-16-12-32-19-35-15c-12,12,29,57,89,97
		c70,46,124,94,140,122c9,17,7,17-14,6c-75-39-191-125-216-160c-17-22-36-63-42-90c-8-31-18-50-30-54c-33-10-116-109-173-208
		c-32-53-70-112-86-130c-23-26-31-48-41-122c-12-89-57-251-66-242c-6,6,32,285,47,340c13,50,42,102,113,201c29,41,72,108,94,148
		c45,82,186,247,263,308c117,92,268,136,574,166c49,5,64,9,50,15c-46,18-139,10-350-30l-50-9l23,19c36,28,147,60,234,66
		c52,4,82,11,90,21c12,13,5,14-52,8c-94-10-197-33-262-57c-48-18-57-25-60-48c-2-19-13-31-41-45c-22-10-42-15-47-10
		c-4,5,21,45,56,89c36,44,108,148,162,230c125,195,195,287,271,358c93,86,88,85,162,21c110-97,274-197,579-354
		c465-240,567-306,733-472c76-76,115-108,131-108c14,0,30-10,40-25c9-13,36-36,60-50c31-18,54-44,82-90c56-96,142-199,344-410
		c252-263,351-398,414-566c51-137,74-300,115-830c40-511,74-758,123-904c21-62,59-126,65-108c2,6-12,116-31,244
		c-58,384-65,448-86,727c-29,387-74,685-130,865c-11,34-19,69-19,77c0,14,225,132,278,146c13,3,72,1,131-6c129-16,156-9,274,65
		l77,49l-6,51c-4,27-15,104-26,170c-21,130-26,295-9,295c6,0,114-61,241-137l230-136l-7-46c-4-25-22-101-40-169l-32-122l71-93
		c100-128,200-226,282-274c40-24,109-80,160-130c70-68,120-106,223-167c191-114,222-139,368-298c144-158,237-235,499-414
		c650-446,701-484,751-570c17-28,28-67,33-119c7-57,15-83,29-98l21-20l7,27c3,15-1,55-10,93c-9,36-16,67-14,68c6,4,117-11,123-17
		c4-4-1-18-10-32c-10-14-13-26-9-27c34-2,93-9,116-15c60-13,14-40-48-28c-34,6-53-4-54-28c0-11,479-9,645,2c165,11,276,29,377,61
		c98,32,66,35-99,10c-133-20-239-29-247-20c-3,2,59,19,137,37s208,51,289,74c124,34,157,47,210,85c52,37,173,106,213,122
		c28,11-50-58-115-102c-128-86-159-123-62-76c31,16,65,29,74,29c10,0,25,11,34,25s45,48,81,76c39,30,70,64,79,85c8,19,18,34,22,34
		c5,0,29,16,55,36c45,35,86,43,94,18c2-7-36-52-84-101c-67-68-105-98-158-123c-40-20-84-50-104-73c-41-46-121-88-227-117
		c-190-53-280-84-251-88c16-2,56,6,90,17c71,24,102,26,137,6c39-23,144-18,322,15c89,16,173,30,186,30c25,0,29,21,8,40
		c-8,6-12,18-9,26c6,17-8,12-117-40c-74-36-122-44-150-26c-13,8-13,10,1,10c33,0,132,61,232,141c92,74,179,125,247,144l25,7l-25-27
		c-14-15-55-45-92-67c-79-47-101-68-70-68c42,0,122,22,144,40c27,22,19,36-11,20c-15-7-21-7-21,0c0,6,19,19,43,29
		c23,10,149,71,280,135c236,116,303,159,333,217c31,61,8,52-76-26c-52-49-95-78-172-115c-57-27-132-67-167-90c-36-22-76-40-90-39
		h-26l29,22c59,45,81,65,74,72c-3,3-25-6-49-21c-65-41-161-84-187-84c-38,0-23,31,33,67c28,18,56,39,63,47c108,117,198,198,259,234
		c45,27,92,65,129,107c36,42,84,82,128,108c39,23,106,76,150,117c76,72,434,490,420,490c-4,0-26-11-49-25c-27-15-95-87-187-197
		c-238-284-404-435-568-518c-41-21-64-41-88-78c-41-64-104-120-181-161c-47-25-62-39-71-65c-12-38-63-87-163-158c-48-34-73-60-88-91
		c-19-39-28-46-73-60c-28-8-67-18-86-22l-35-7l35,37c41,43,79,65,115,65c17,0,28,7,34,23c16,42,59,83,150,143c76,50,89,62,85,81
		c-4,15,5,32,30,61c45,50,47,71,3,38c-33-25-67-34-67-18s117,121,157,141c68,34,83,27,40-17c-60-62-42-71,21-11
		c31,31,100,86,152,124c188,136,290,214,277,215c-17,0-75-35-147-90c-122-92-151-103-96-35c47,56,36,59-13,4c-26-30-42-40-59-38
		l-23,4l26,35c44,60,167,180,224,217c54,36,151,79,151,66c0-3-27-34-60-69c-33-34-60-68-60-76c0-19,341,329,508,520
		c79,89,140,162,135,162c-14,0-101-74-141-120c-21-25-71-86-111-137c-39-51-96-114-126-141c-63-55-184-125-303-173
		c-62-25-88-41-102-64c-22-35-68-81-75-74c-8,9,99,128,175,195c81,70,267,199,368,254c54,30,62,38,57,58c-8,31,14,68,75,127
		c56,54,85,99,74,116c-3,6-24-16-45-49c-51-78-155-189-243-260c-87-70-254-192-263-192c-4,0,11,19,33,43c23,23,84,94,137,158
		s111,130,130,145c43,37,68,75,97,148c15,38,46,84,83,125c66,73,73,84,117,200c24,63,39,87,61,100c15,8,37,32,48,51
		c34,61,181,400,206,474c50,153,76,413,46,469c-22,41-31,32-31-30c-1-201-97-590-175-713c-23-36-91-153-150-259
		c-182-330-208-367-446-642c-69-80-159-193-200-250c-41-56-89-117-108-133c-59-53-111-106-255-261c-162-175-320-325-455-433
		c-159-128-178-133-86-24c36,44,77,85,91,93c14,7,54,56,89,109c35,52,101,142,146,200c223,283,307,415,373,587c40,103,44,122,22,103
		c-8-6-29-48-46-93c-33-89-238-438-296-505c-21-24-45-42-57-43c-16,0-38-24-82-92c-33-51-65-108-72-127c-7-22-43-65-96-115
		c-46-44-103-105-125-136s-55-68-74-84c-45-38-142-83-197-91c-25-4-63-20-85-35c-48-36-101-51-166-48c-40,2-55-2-74-20
		c-17-16-31-21-43-16c-16,6-15,9,12,31c17,13,33,24,38,24c4,0,7,7,7,15s-4,15-10,15c-5,0-10-4-10-10c0-17-73-59-125-70
		c-55-13-188-4-164,10c7,5,32,12,54,16c71,12,147,44,141,61c-8,19,41,63,127,115c37,22,66,43,63,45c-2,3-13,0-24-6c-52-28-49-7,2,24
		c134,80,222,163,369,347c64,79,90,120,102,161c9,30,24,62,35,72c18,16,18,16,13-4c-3-12-1-21,6-21c6,0,11,19,11,48
		c0,26,10,67,21,92c42,90,59,156,89,338c17,101,40,208,51,236c22,60,25,119,5,135c-12,10-15,5-20-26c-51-337-80-482-131-650
		c-21-66-29-82-47-85c-16-2-26-17-39-56c-25-74-74-166-124-238c-43-60-203-219-212-210c-3,2,24,42,60,88c134,174,196,285,212,384
		c5,32,0,26-27-37c-58-127-184-310-301-436c-61-65-73-102-14-45c18,18,36,32,40,32c17,0,2-28-30-54c-26-22-48-31-87-34
		c-50-4-52-5-70-48c-29-70-181-213-203-191c-2,3,23,40,56,82c34,42,68,89,75,103c15,30,30,92,23,92c-3,0-24-34-46-76
		c-76-140-167-241-240-265c-29-10-36-9-47,5c-8,11-24,16-49,14c-21-1-40,3-44,10c-6,10-11,9-21-3c-18-21-48-19-182,14
		c-135,34-193,60-240,108c-32,33-33,36-31,116c1,45,8,123,16,172c8,50,12,92,10,94c-2,3-14-5-26-17c-20-21-22-34-27-185l-5-162
		l-30,49c-40,68-45,170-16,362c25,169,26,184,6,184c-11,0-15-12-15-50c0-27-4-50-10-50c-5,0-10,13-10,28c0,43,26,243,49,377
		c12,66,23,132,26,148c2,15,0,27-5,27c-24,0-52-96-80-273c-34-214-38-320-13-389c16-44,16-51,0-107c-22-78-21-93,3-141
		c21-42,26-80,10-80c-5,0-75,50-156,110c-126,95-438,307-640,435c-33,21-65,48-70,59s-29,32-54,45c-26,14-127,106-239,218
		c-209,209-310,292-418,344c-37,18-93,56-123,84c-31,27-96,81-145,120c-143,110-204,165-249,226l-43,57l61,64c78,82,118,150,223,378
		c192,419,249,565,274,707c7,37,14,70,15,72c2,2,34-19,71-46c37-28,111-78,163-113c52-34,127-88,165-120c76-62,131-93,252-141
		c106-41,138-61,283-174c200-156,308-219,630-365c63-29,216-103,340-165s258-124,298-139c66-23,217-56,262-56c29,0,103,66,209,186
		c88,99,115,138,198,292c231,427,387,649,600,852c71,68,136,119,199,156c73,43,110,74,176,146c99,108,157,153,275,212
		c219,108,464,145,606,91c31-13,19,24-15,46c-30,19-43,20-143,15c-229-12-482-102-627-223c-25-21-93-82-152-135
		c-73-66-135-112-194-144c-170-92-387-345-599-699c-59-99-130-225-158-280c-36-73-58-104-77-113c-18-8-28-21-28-35
		c0-27-101-178-157-234c-66-67-173-100-173-53c0,26-27,26-35,0c-3-11-13-20-22-20c-13,0-14,8-9,40c7,46-9,55-25,13
		c-24-63-53-39-36,30c5,21,7,40,4,43c-11,12-26-7-33-41c-11-58-26-62-100-24c-36,19-71,40-77,47c-7,9-7,35,1,90
		c10,67,25,104,118,287c126,248,249,471,408,736c90,151,113,196,105,210c-5,10-32,37-59,60c-28,23-50,49-50,57c0,15,13,14,96-3
		c42-9,84,29,174,154c77,109,108,140,166,169c23,12,65,42,95,67c58,50,297,212,391,264c61,35,82,54,76,72c-2,6-85-44-188-113
		c-102-68-207-137-235-153l-49-30l29,39c36,47,147,149,200,182c22,14,54,49,70,76c42,70,103,123,352,305c246,180,368,263,463,316
		l66,36l94-47c52-26,156-72,230-101c108-44,145-64,185-101c28-25,83-65,123-89c91-53,129-86,187-163c62-82,102-169,189-409
		c41-112,113-302,160-421c162-407,192-550,236-1123c24-311,48-486,129-910c33-176,65-356,70-400c13-106,32-449,35-650
		c2-110,7-168,16-185l13-25l16,35c13,29,16,75,14,285c-4,432-23,616-113,1080c-56,289-84,477-100,670c-6,72-15,184-21,250
		s-14,193-18,281c-7,142-11,166-30,198c-14,22-28,72-37,128c-12,73-23,107-54,161c-51,88-102,215-190,472c-122,354-176,479-257,593
		c-40,56-66,78-211,174c-183,121-263,164-445,239c-210,86-248,116-336,258c-72,118-111,151-175,151c-42,0-46,2-52,28
		c-10,44-51,108-90,140c-34,28-36,32-46,130l-11,100l51,108c91,193,103,243,105,423l2,156l50,105c45,97,49,112,53,195
		c7,152-32,305-116,450c-19,33-74,119-122,190c-119,178-141,218-171,307c-68,200-203,327-404,378c-46,12-82,28-97,43
		c-14,14-45,35-69,48c-39,20-65,23-239,30C9151,8460,9126,8460,9080,8447z M9857,8104c37-19,73-44,81-55c24-34,112-261,112-289
		c0-27-16-50-36-50c-6,0-14,23-17,54c-6,64-32,118-88,183c-23,26-50,66-60,88c-13,29-30,47-63,64c-26,13-46,28-46,32
		C9740,8150,9793,8138,9857,8104z M10309,7976c12-34,23-85,24-114c3-69,17-67,17,3c0,30,4,55,9,55c4,0,13-24,19-52c10-49,9-54-10-70
		c-11-10-28-18-38-18c-14,0-18,13-23,83c-3,46-14,106-25,133c-36,91-36,92-14,65C10279,8048,10297,8009,10309,7976z M10029,7985
		c17-30,31-60,31-67c0-14-58,75-71,109C9974,8067,9996,8044,10029,7985z M7990,7870c0-11-7-20-15-20c-15,0-21,21-8,33
		C7979,7896,7990,7890,7990,7870z M10098,7794c2-68-12-56-23,20c-5,38-4,47,7,44C10090,7855,10096,7833,10098,7794z M10220,7834
		c14-35,12-54-4-54c-9,0-15,14-18,40C10194,7865,10206,7873,10220,7834z M9824,7754c7-19,8-59,1-52c-11,10-23,68-15,68
		C9814,7770,9821,7763,9824,7754z M10400,7685c12-44,44-84,57-72c3,4-6,25-21,47c-25,38-38,116-16,94c8-8,70-159,70-170
		c0-1-26-4-58-8s-147-29-257-56c-207-52-214-52-215-5c-1,11-9,36-20,55c-18,33-19,34-20,9c0-14,7-47,16-73s15-49,13-50
		c-2-2-38-10-79-18l-74-14l-19,50c-10,28-21,63-24,78s-9,25-14,22c-15-9-10-50,12-100c19-46,19-49,3-61c-10-7-33-13-50-13
		c-30,0-34,4-43,38c-6,20-11,45-11,55c0,9-4,17-10,17c-15,0-12-52,4-91c14-33,14-34-17-47c-39-16-50-5-67,69c-7,27-16,49-21,49
		c-13,0-11-21,6-70c23-65,20-80-14-80c-47,0-81,53-84,130c-2,31,0,32,93,66c184,68,550,162,572,148c4-3,8-20,8-38c0-39,18-96,31-96
		c12,0,11,9-6,66c-26,85-23,91,43,104c31,7,72,16,91,21c19,4,38,6,42,3c5-3,16-31,25-62c17-58,34-89,34-61c0,9-7,38-15,65
		c-21,68-20,81,4,60C10379,7737,10393,7709,10400,7685z M10480,7726c0-7,9-28,19-49c10-20,15-37,11-37c-13,0-26,23-43,74
		c-14,41-14,46-2,36C10473,7743,10480,7732,10480,7726z M9352,7647c26-17,52-42,58-55c12-27,5-62-12-62c-12,0-69,58-143,145l-49,58
		l49-28C9283,7690,9326,7663,9352,7647z M3462,7571l66-28l10,23c10,22,12,22,56,9c59-18,82-30,134-72c41-34,56-73,27-73
		c-8,0-15-4-15-10c0-5,11-10,25-10c26,0,35-23,14-35c-14-9-71-9-100,0c-22,7-23,6-9-10c12-15,25-17,82-12c37,3,70,2,73-3
		c5-9-55-30-86-30c-9,0-24-9-34-20c-24-26-55-25-140,5c-38,14-77,25-85,25c-31-1,18-26,74-39c31-7,58-17,61-22c9-14-4-11-98,16
		c-110,32-180,41-242,34l-50-6l45-2c25,0,95-13,155-27c61-14,136-30,168-36c31-6,57-15,57-19c0-3-13-12-30-19c-36-15-76-8-160,26
		c-70,28-88,26-38-4c53-32,106-44,190-46c66-1,76-3,61-14c-30-22-95-34-142-27c-25,4-91,24-146,45c-111,43-187,64-207,58
		c-19-7,47-45,107-63c28-8,59-21,71-29c19-14,20-20,12-73c-5-32-24-85-42-119c-19-33-37-76-41-94c-5-23-27-54-66-91
		c-47-47-88-72-226-140c-144-71-177-92-230-145c-57-57-75-84-55-84c4,0,39,25,77,56c105,84,168,125,300,194c127,67,178,106,202,155
		l14,30l-6-40c-10-65-56-135-127-195c-69-57-329-222-338-213c-8,8,101,104,165,145c72,46,65,49-19,8c-77-38-173-123-231-205
		c-48-67-108-189-120-242c-9-46-22-49-30-7c-8,43,1,86,26,137c21,41,9,51-16,13c-22-34-34-112-41-270c-4-77-10-133-14-125
		c-14,26-33,229-27,298c8,94,27,134,101,211c36,37,66,78,70,95c5,22,26,43,82,84c41,29,73,55,70,58s-30-6-60-21
		c-64-31-96-66-203-220l-77-111l-4-123c-5-138,10-304,38-444c21-99,80-301,88-294c2,3-3,46-12,97c-23,134-20,143,19,55
		c50-115,93-182,154-237c29-28,56-48,58-45c3,3-30,51-73,108c-104,138-127,190-121,271c2,34,11,82,20,107s21,68,27,95
		c24,109,96,213,223,321c48,42,82,62,118,71c52,13,93,37,142,81c32,31,35,22,6-24c-24-39-70-73-184-134c-164-89-214-142-241-259
		c-30-125-9-307,46-410c17-30,28-56,26-58c-8-9-69,53-89,91c-18,34-21,58-22,143c0,57-3,103-6,103c-14,0-32-58-30-95
		c3-56,28-160,47-198c21-41,62-85,95-103c20-10,30-26,39-63c26-108,99-183,175-179c32,1,56-8,112-41c83-49,195-88,179-63
		c-3,5-46,26-96,47c-50,20-104,48-119,61c-22,18-36,22-59,18c-20-4-46,1-78,16l-49,22l28,10c30,11,144-4,180-23c22-13,30-8,21,14
		c-7,19-50,33-127,41c-84,9-123,28-130,62c-3,16-8,39-12,52c-6,17-3,22,9,22c14,0,12,8-12,43c-135,196-135,379,0,532
		c23,26,102,88,177,138c156,104,215,161,264,255c39,74,97,251,97,294c0,21-6,29-25,34c-28,7-28,19,5,84c32,65,35,97,8,121l-24,22
		l19,56c14,39,18,72,14,112l-5,55h102c84-1,109,3,149,21c70,33,120,76,148,128c13,25,29,45,35,45c23,0,122-81,161-132
		c22-29,73-109,113-178s87-146,106-173c19-26,34-50,34-55c0-4-47-38-104-75c-206-136-288-223-328-350c-33-106-2-83,74,53
		c52,96,92,138,143,151c22,6,47,17,55,24c12,11,25,12,60,4c25-6,53-15,62-20c14-7,25,1,58,46c39,53,76,83,87,71c3-3,0-46-7-96
		c-11-74-11-92,0-105c47-56,335-278,442-341l68-39v-62c0-35-4-63-9-63s-32-18-60-40c-57-45-76-52-41-15c34,36,16,53-39,37
		c-39-12-111-80-111-105c0-22,23-37,56-37c28,0,33-4,39-30c4-17,21-50,39-74l33-43l-19-37c-11-21-34-80-53-130c-18-51-38-103-44-115
		c-10-19-7-30,24-81c38-62,83-114,122-140c20-14,23-27,30-144c5-72,5-168,1-214c-15-169-55-199-280-212c-111-7-169-16-258-40
		c-72-20-141-32-186-33c-63-1-76,2-113,26c-24,16-52,27-64,26c-50-6-97,47-222,251c-67,109-174,240-197,240c-22,0-3-42,31-69
		c26-21,57-64,92-129c71-133,110-190,171-251c39-39,46-51,32-51c-11,0-35,11-54,24c-33,22-80,42-80,34c0-10,132-100,171-118
		c44-19,44-20,13-20c-90,0-311,53-396,96c-50,25-73,31-63,14s-17-12-136,24c-157,48-265,76-289,76c-11,0-20,5-20,11c0,8,9,9,28,3
		c34-10,232-12,232-2c0,12-72,26-173,32c-104,7-177,29-177,53c0,16,15,15,78-3c31-9,28,14-4,26c-14,6-37,10-50,10c-19,0-25,5-22,18
		c4,24,52,27,105,7c30-12,62-16,94-13c33,4,52,1,60-8c15-18,99-64,99-55c0,5-19,21-42,36c-24,15-52,36-63,45c-16,14-42,19-121,22
		c-65,2-107,8-118,17c-27,22-18,29,27,20c23-4,62-8,87-8c42,0,44,1,26,14c-11,8-41,15-67,15c-85,0-138,11-144,30c-3,10-19,23-35,29
		c-33,11-39,28-13,38c10,4,37-4,65-20c26-15,53-27,60-27c12,0-86,71-131,94c-22,12-30,25-35,57c-11,67-35,107-116,193
		c-96,103-126,143-144,192c-8,21-15,31-15,21c-1-10,8-36,20-58c28-56,20-86-10-36c-24,38-45,51-34,20c3-10,24-49,46-86s37-70,35-73
		c-3-3-26,18-51,46c-60,67-78,136-46,180c24,32,20,64-7,53c-13-5-15-3-8,8c5,8,12,140,15,294c7,304,17,366,72,438c16,21,26,50,29,85
		c7,71,50,133,161,228c49,42,86,78,83,81c-2,3-27-7-55-23c-63-34-151-124-184-190c-38-76-85-216-106-317c-17-84-19-90-31-68
		c-15,28-9,106,13,169c16,46,10,53-18,22c-14-16-20-42-23-106c-4-76-2-89,17-114c21-29,28-60,14-60c-5,1-25,27-45,58
		c-21,31-57,83-80,115c-39,53-43,64-43,117c0,34,5,64,13,72c10,10,11,2,7-37c-5-44-4-47,7-25c6,14,32,67,56,118
		c43,90,67,120,162,201c51,44,15,39-44-7c-42-31-126-138-139-176c-2-6-17-9-34-8c-29,2-30,0-43-55c-27-126-62-173-127-173
		c-34,0-34,1-28,33c4,17,16,55,26,82c23,60,23,66,5,59c-20-8-38-56-45-122l-6-57l-40-7c-22-4-69-7-104-7l-63-1l4,93
		c5,117,35,187,117,272c37,38,64,78,76,110c19,51,56,92,225,250c41,39,130,135,196,215c119,142,184,209,254,262
		c46,34,166,94,208,103c26,5,32,11,30,28c-3,20,3,23,47,27c28,3,109,3,180,0c72-3,140-3,152-1c36,6,16,21-28,21c-24,0-38,4-34,10
		C3298,7610,3394,7600,3462,7571z M10484,7495c9-17,18-51,22-74c6-35,4-43-7-39c-7,2-17,24-21,48c-7,43-32,90-46,90
		c-5,0,4-66,19-147c16-82,31-178,35-215c6-64,16-85,27-55c2,6,2,58-1,115c-3,73-2,102,7,102c7,0,11-31,11-97c0-95,0-96,19-79
		c11,10,22,28,24,40c12,62,5-89-9-180c-9-59-14-127-12-151c2-35,0-43-12-40c-12,2-14,15-12,60c3,61-7,72-32,35c-9-12-19-18-23-14
		c-5,4-8,67-8,139c-1,86-5,143-14,162c-7,17-19,57-26,90l-13,60l-1-58c-1-33-5-56-10-52c-5,3-19,49-31,103c-12,53-30,111-40,129
		c-19,32-19,32,3,39c12,4,35,17,52,30c28,22,30,22,57,6C10457,7533,10476,7512,10484,7495z M10549,7462c14-56,23-160,12-142
		c-5,8-20,56-35,106c-14,50-28,100-32,110c-4,14,1,12,20-9C10528,7512,10544,7483,10549,7462z M10565,7520c3-11,11-20,16-20
		s9-7,9-16s-5-14-11-12c-14,5-41,68-29,68C10555,7540,10562,7531,10565,7520z M10273,7473c24-49,46-136,57-223c13-105,13-230,1-230
		c-21,0-33,73-26,151c7,88,1,118-47,222c-31,64-48,84-48,52c0-25-30-17-42,11c-15,32,0,44,54,44C10253,7500,10262,7495,10273,7473z
		 M9410,7475c6-8,24-48,40-89c25-69,26-75,10-79c-22-6-60,12-71,33c-5,8-16,33-25,55c-15,33-18,36-21,19c-2-12,5-39,16-60
		c27-50,27-74,0-74c-33,0-60,19-75,55c-17,43-18,114-1,119c6,3,32,11,57,19C9399,7492,9396,7492,9410,7475z M1242,7459l216-12l6-66
		c13-131,26-521,26-757v-241l-61-7c-76-7-446-8-475,0c-21,5-21,9-16,201c6,223-18,815-29,743c-4-25-8-250-9-500c-2-408-3-450-16-405
		c-10,36-14,119-14,295c-1,176-4,238-11,220c-6-14-9-58-7-97c2-40,2-73,0-73c-12,0-25,75-32,188c-10,144-18,167-58,157
		c-17-4-23-2-20,7c3,7,21,17,41,22c42,11,43,15,21,58c-13,25-13,35-3,59c10,26,9,32-7,44c-25,19-29,19-41-7c-8-18-10-19-16-5
		c-9,23,31,70,54,64c26-7,25,19-1,35c-11,7-20,21-20,31s4,16,9,12c5-3,16,2,24,10c22,21,37,19,38-7c1-18,3-16,8,7c6,29,9,30,71,36
		c36,3,74,4,85,3C1016,7472,1122,7466,1242,7459z M2431,7151c-307-307-321-323-366-410c-34-65-56-96-80-111c-43-26-84-98-126-218
		c-36-104-49-105-49-6c0,56,6,72,67,190c47,88,83,144,115,176c27,26,48,53,48,61c0,7,14,41,31,75c38,77,119,152,210,195
		c38,17,72,39,75,49c2,9,43,49,89,88c54,46,91,86,105,115c17,34,27,44,54,49c18,3,52,19,77,35c24,16,50,30,56,30
		C2744,7470,2606,7326,2431,7151z M10148,7425c29-32,52-99,39-112c-7-7-72,94-79,125C10099,7470,10113,7465,10148,7425z M1532,7436
		c9-10,17-11,30-3c9,6,19,9,21,7c7-7,27-724,26-900c0-84-4-137-8-125c-17,41-24,189-27,540c-1,198-7,380-13,405c-7,32-8-76-4-360
		c10-606,11-562-12-595l-20-30l-6,70c-4,39-7,180-8,315s-6,341-11,459s-7,218-4,223C1504,7454,1517,7452,1532,7436z M10122,7333
		c68-143,74-160,93-281c16-98,14-126-9-135c-10-4-15,13-19,66c-6,75-27,141-95,292C10005,7467,10033,7520,10122,7333z M9255,7378
		c6-25,19-58,29-73c14-21,15-29,5-41c-27-33-74-2-104,68c-22,54-19,73,13,85C9237,7432,9242,7429,9255,7378z M10040,7285
		c81-166,90-192,89-253l-1-57l-12,45c-7,25-40,106-74,180c-33,74-64,148-68,163c-4,19-10,25-17,18s-6-25,3-56c23-81-9-66-51,23
		c-26,55-20,70,28,74c30,2,40-1,46-17C9988,7394,10013,7340,10040,7285z M10664,7388c34-59,61-162,82-317l18-131l-22-23
		c-16-17-19-26-11-34c9-9,2-23-25-54c-25-30-36-52-36-74c0-18-9-67-20-110c-21-81-89-275-96-275c-3,0-2,41,2,92c5,68,14,108,34,153
		c68,150,102,311,102,485c0,115-2,132-31,212C10618,7433,10619,7465,10664,7388z M707,7378c0-18,1-70,3-116c2-54-1-87-8-94
		c-9-9-12,1-12,45c0,31-4,57-10,57c-5,0-10-25-10-56c0-30-4-53-9-50s-9,56-10,117c-2,105-1,110,17,105c13-4,22-1,26,9
		C703,7418,706,7413,707,7378z M9155,7388c2-7,6-29,9-49c4-19,15-45,26-57c39-41,6-68-117-95c-70-16-66-19-78,60c-9,59-30,70-22,12
		c3-24,9-54,13-67c6-20-3-27-102-74c-60-29-165-71-234-94c-109-37-125-40-128-26c-2,10-13,41-25,70c-15,38-18,55-10,63
		c21,21,51-1,74-54l24-52l3,33c2,21-5,45-19,68c-25,42-17,57,29,48c28-6,32-11,37-49c9-54,20-74,35-59c9,9,6,22-9,52
		c-28,54-26,76,6,97c24,16,27,16,38,1c7-9,15-34,19-56c3-22,10-40,15-40c17,0,18,25,3,66c-17,47-11,74,17,74c31,0,48-24,55-79
		c4-28,11-53,16-56c15-9,12,51-5,92c-21,49-19,73,5,73c25,0,46-32,59-88c5-24,12-46,15-49c12-12,6,45-10,90c-9,26-14,53-11,60
		c2,7,32,21,66,31c59,18,63,18,81,1c11-10,20-25,20-34c0-11,3-12,12-3s8,16-5,30c-24,26-22,31,26,52C9132,7403,9149,7405,9155,7388z
		 M9893,7317c54-83,77-156,77-250l1-82l19,24c11,13,20,33,20,45c1,40,19-7,26-67c7-57-13-257-25-257c-4,0-18,46-30,103
		c-37,175-69,262-113,312c-22,25-44,45-49,45c-6,0-8-19-4-47l6-48l-25,30c-14,17-40,55-57,85c-23,42-29,48-24,25
		c11-51,111-248,149-294c28-33,36-52,36-83c0-21,5-48,10-59c14-25,1-25-50,1c-22,11-55,20-75,20c-45,0-46,18-1,67c18,21,31,45,28,53
		c-2,8-29,57-59,108c-57,97-93,187-93,230c0,21-3,23-25,18c-56-14-14,38,43,54c60,16,72,13,72-18c0-27,52-103,64-92c3,3-6,30-19,59
		c-26,56-30,71-17,71c4,0,20-33,36-74c15-41,39-85,53-98l25-23l-27,60c-14,33-29,83-32,110c-6,45-5,49,10,37
		C9852,7374,9875,7345,9893,7317z M10278,7159c3-94,1-142-7-155c-10-16-11-14-6,13c6,31,1,66-30,212c-10,47-13,90-9,115l7,41l20-45
		C10269,7304,10274,7267,10278,7159z M2481,7321c-24-33-118-111-246-202c-92-65-205-172-205-192c0-26-62-140-130-242
		c-39-59-73-105-74-103c-1,1,0,32,2,66c3,56,6,63,23,59c15-4,21,5,33,47c33,110,125,227,257,328c74,56,76,73,6,39
		c-45-22-110-79-170-151c-52-62-27-14,29,58c83,103,179,179,314,247c59,30,151,68,178,74C2500,7350,2492,7337,2481,7321z
		 M10781,7318c11-21,39-113,39-131c0-5-4-6-9-3s-14,30-21,58c-7,29-19,63-26,76c-8,12-10,22-5,22C10765,7340,10775,7330,10781,7318z
		 M9594,7288c41-62,85-222,101-361c6-51,9-57,26-52c14,5,19,2,19-12c-1-27-25-54-37-42c-7,7-15,2-27-15c-21-33-52-36-41-3
		c14,42,17,211,5,267c-13,56-67,187-74,179c-3-2,5-31,16-64c46-136,47-372,2-486c-14-35-19-38-27-24s-11,15-18,4c-5-9-9,13-9,56
		c0,161-37,349-89,458c-16,34-28,63-26,65s17-5,33-17c42-29,71-107,94-246c11-66,21-122,24-124c2-2,4,35,4,83c0,109-23,204-65,267
		c-30,44-31,49-16,62C9526,7316,9574,7318,9594,7288z M10630,7261c-1-25-1-25-15-7c-8,11-15,29-15,39c0,16,3,17,15,7
		C10623,7293,10630,7276,10630,7261z M9416,7173c56-94,90-244,79-344c-9-77-20-92-34-43c-6,21-11,52-11,68s-2,27-5,24
		c-12-12-5-209,10-274c28-121,67-236,76-223c4,7,1,29-8,48c-32,75-33,88-8,111c13,13,27,36,31,53c8,40,19,20,28-52c9-67,19-87,48-95
		c31-8,115-82,105-92c-4-5-16-3-27,4c-34,21-29-3,12-57l41-54l-18-34c-17-31-17-35-3-50c32-31,63-10,102,72c20,41,40,75,46,75
		c25,0,3,84-46,178c-1,2-16-4-33-12c-37-20-61-20-86-2c-16,12-17,19-8,57l10,44l17-38c13-30,22-38,39-35c36,5,33,43-7,101
		c-36,52-41,71-30,101c5,14,10,13,42-3c87-45,132-129,142-266c5-71,8-84,14-61c12,41,0,152-23,214c-29,78-69,142-89,142
		c-10,0-22,4-28,10c-14,14-88-23-113-59c-12-17-27-58-34-92c-10-54-12-59-24-43c-18,24-16,96,2,142c23,53,83,112,116,112
		c15,0,63-24,112-56l86-55l14-67c47-211,16-466-75-608l-28-45l-58,3l-57,3l-25,53c-20,42-28,50-38,40c-23-23-13-71,28-138
		c40-65,48-97,31-115c-5-6-21-40-34-77c-19-54-21-68-11-72c22-8,16-38-16-89c-27-43-27-75,0-42c21,25,33,17,26-16c-3-17-20-47-37-67
		c-23-26-30-42-27-64c4-24-2-35-35-64c-23-19-34-34-26-34s20,5,27,12c6,6,14,9,17,6c14-13-10-60-46-93s-52-54-29-40
		c17,10,11-8-19-60c-64-111-133-150-363-204c-90-21-187-48-216-60c-70-28-147-28-162-1c-6,11-15,73-21,138c-15,172-29,197-112,190
		c-37-3-43,0-55,25c-7,15-16,43-19,62l-6,35l79,2c135,5,202-1,236-18c26-14,63-17,180-18c80-1,144,2,142,6c-13,20-99,59-187,84
		c-89,25-103,32-143,74c-57,60-117,93-235,126c-52,15-96,28-98,30c-1,1,8,18,22,36c63,84,107,213,107,316c0,31,4,52,11,52
		c6,0,34-18,63-41c43-35,52-38,55-23c2,11-8,27-25,41c-84,68-114,95-114,104c0,6,9,7,20,4c28-9,25,5-10,51c-37,49-37,64,1,131l32,55
		l54-4c49-4,53-3,38,11c-11,12-40,17-108,19c-113,4-129,8-104,27c17,13,17,14-5,20c-30,9-58,34-58,52c0,11,4,11,22,2
		c18-10,24-9,33,5c30,51,26,50,106,26c41-12,80-27,87-32c27-22,23,3-5,30c-21,22-46,33-89,41c-77,15-144,40-144,53c0,10-41,7-71-6
		c-12-5-35,15-87,77c-65,77-84,91-162,124c-23,10-14,16,120,81c80,39,277,123,438,187c246,99,295,115,308,104c15-13,97-147,124-204
		c13-27,14-28,17-9c6,30-20,86-74,166c-26,37-44,70-41,73c8,8,97-60,123-95c27-36,50-101,60-167c5-29,13-44,26-48c19-6,23-15,19-50
		c-3-28,15-8,29,34c26,78,6,193-47,274c-14,20-26,36-28,35c-1-2,6-28,16-59c22-63,37-158,21-124c-6,11-19,52-31,92
		c-11,40-32,85-45,102c-14,16-25,32-25,35c0,16,88,46,125,44C9382,7225,9388,7221,9416,7173z M10000,7184c7-19,9-38,6-41
		c-6-6-36,58-36,77C9970,7242,9989,7219,10000,7184z M9208,7149c19-31,9-33-18-4c-16,17-19,25-9,25C9189,7170,9201,7161,9208,7149z
		 M720,7103c-1-27-1-27-15-9c-19,25-19,36,0,36C715,7130,720,7120,720,7103z M8460,7082c19-15,54-110,45-120c-2-2-13-1-24,3
		c-18,5-71,98-71,124C8410,7106,8435,7102,8460,7082z M8396,7055c42-28,58-116,24-123c-10-2-15,6-16,23c-1,14-14,41-28,60
		c-14,18-26,38-26,44C8350,7074,8372,7073,8396,7055z M9868,7037c7-15,12-38,10-50c-3-20-6-19-26,13c-24,38-29,74-9,68
		C9849,7065,9861,7051,9868,7037z M8327,7018c28-31,43-62,43-90c0-18-10-28-37-41c-36-16-39-16-50,0c-7,9-13,24-13,32
		c0,9-7,28-15,44c-13,26-12,29,13,52C8301,7045,8302,7045,8327,7018z M10618,6921c-2-45-6-81-9-81c-15,0-19,37-13,112
		C10605,7056,10622,7032,10618,6921z M720,6948c0-64-2-71-15-57c-13,12-13,23-3,72c7,31,13,57,15,57S720,6988,720,6948z M10421,6877
		c-6-15-16-27-22-27s-9,6-7,13c3,6,11,34,19,61l14,49l3-34C10430,6920,10426,6892,10421,6877z M8194,6931c21-23,33-95,18-105
		c-16-9-39,32-46,82C8159,6954,8167,6961,8194,6931z M9743,6930c3-11,1-20-4-20c-4,0-13,9-19,20c-8,16-8,20,3,20
		C9731,6950,9740,6941,9743,6930z M8140,6925c7-8,15-41,19-73c7-58,6-59-20-69c-15-6-31-8-37-4c-16,10-46,106-39,124
		c8,21,27,22,27,3c0-16,18-31,26-23c3,3,1,14-5,25C8095,6939,8117,6952,8140,6925z M8255,6888c4-17,3-28-3-28c-12,0-22,24-22,53
		C8230,6940,8246,6924,8255,6888z M10354,6859c5-38,12-52,26-56c40-11,30-110-15-153l-22-21l1,81c1,77,0,83-26,105
		c-16,13-28,29-28,36c0,12,39,56,51,58C10345,6910,10350,6887,10354,6859z M9950,6850c0-11-4-20-10-20c-5,0-10,9-10,20s5,20,10,20
		C9946,6870,9950,6861,9950,6850z M10097,6763c-3-49-13-108-21-132c-21-57-20-71,4-71s24-1,5-47c-8-19-15-46-15-59c0-32-25-31-47,2
		c-14,22-15,34-6,72c5,26,14,55,18,66c7,15,5,17-11,12c-17-5-22,1-32,40c-15,56-9,70,9,20c10-27,19-36,36-36c19,0,22,4,18,23
		c-3,12,3,39,14,61c13,24,18,49,15,63c-7,24,2,73,13,73C10100,6850,10100,6811,10097,6763z M720,6785c0-36-13-47-24-19s-6,54,9,54
		C715,6820,720,6809,720,6785z M10706,6693c-11-11-17,4-9,23c7,18,8,18,11,1C10710,6707,10709,6696,10706,6693z M853,6656
		c-8-52-23-31-16,23c4,29,9,39,14,29C856,6700,857,6676,853,6656z M3279,6643c-40-72-38-70-49-53c-10,17,2,42,44,90
		S3318,6712,3279,6643z M10517,6676c-3-7-21-22-41-34l-36-21v22c1,33,24,59,39,44c10-9,15-8,23,8C10514,6716,10526,6701,10517,6676z
		 M8174,6675c110-29,172-90,275-272c38-67,50-98,46-116c-4-13,3-61,15-108c12-46,26-118,30-159l7-75l2,80c1,67,4,77,13,60
		c17-28,16-216-1-291c-29-132-72-167-180-145c-161,33-325,243-388,498c-15,61-20,210-10,328c1,20-2,29-10,28c-15-3-17,25-4,46
		c8,12,12,12,24,2c17-13,19-9,32,59C8041,6692,8066,6703,8174,6675z M10160,6598c-7-40-16-82-20-93c-6-17-8-15-15,13
		c-9,42,22,179,38,163C10170,6674,10169,6648,10160,6598z M3287,6559c-37-85-95-135-297-255c-70-42-150-96-178-120
		c-48-42-50-46-45-85c5-36,2-44-29-77c-53-56-77-103-119-230c-41-128-55-132-46-14c5,78,67,274,83,268c7-3,18,21,28,56
		c47,168,159,295,345,387c34,18,65,30,68,27c3-2-35-35-84-73c-97-75-233-205-233-223c0-7,43,29,95,79c53,50,119,108,148,129
		c66,49,146,96,153,90c7-8-104-107-145-128c-26-14-31-19-16-19c58-1,182,93,247,187C3296,6608,3308,6608,3287,6559z M3315,6504
		c-34-90-178-205-400-319c-104-53-108-55-80-25c17,18,107,83,201,145c114,76,189,134,227,175c31,33,57,66,57,72s3,8,6,5
		C3330,6553,3325,6530,3315,6504z M10386,6518c-4-18-9-52-13-76c-7-50-13-56-53-47c-32,7-42,24-13,21c11-1,21,12,31,39
		c31,86,35,95,44,95C10388,6550,10390,6537,10386,6518z M10720,6440c-6-30-24-93-38-140c-23-71-28-80-30-53c-2,18,6,49,17,72
		c15,27,21,59,21,101c0,36,7,76,17,98l17,37l4-30C10730,6509,10727,6470,10720,6440z M10448,6471c-38-67-52-50-21,26
		c15,36,20,40,31,29C10470,6515,10468,6506,10448,6471z M10520,6531c0-5-7-11-15-15c-15-5-20,5-8,17
		C10506,6543,10520,6542,10520,6531z M1801,6477c-8-8-11-7-11,4c0,20,13,34,18,19C1811,6493,1807,6483,1801,6477z M10275,6470
		c-4-7-13-6-26,1c-20,10-20,11-2,24c15,11,19,11,26-1C10277,6486,10278,6475,10275,6470z M770,6456c0-19-4-38-10-41
		c-6-4-10,10-10,34c0,23,5,41,10,41C766,6490,770,6475,770,6456z M10126,6416c-9-52-14-58-37-45c-21,11-21,26,1,85c9,22,13,24,26,13
		C10128,6459,10130,6446,10126,6416z M10230,6443c0-5-5-15-10-23c-8-12-10-11-10,8c0,12,5,22,10,22
		C10226,6450,10230,6447,10230,6443z M748,6338c-3-7-17-15-33-16c-25-3-27-2-16,12C715,6353,754,6356,748,6338z M920,6335
		c-8-10-25-15-43-13c-48,5-41,23,9,26C928,6350,931,6349,920,6335z M1430,6335c30,0,79,4,108,9c39,7,52,6,52-4c0-8-9-11-25-8
		c-14,3-28,1-31-3c-3-5-130-9-282-8c-197,0-270,3-252,10c14,6,57,8,100,4c41-3,95-2,120,3s70,7,100,3C1350,6338,1400,6335,1430,6335
		z M10070,6314c0-14-7-38-15-53c-8-16-12-31-8-34c9-10,44,13,71,45c34,40,48,24,33-36c-15-62-15-63,19-75c36-12,39-37,8-76
		c-18-23-26-26-60-22c-43,6-44,4-21-27l17-23l58,45c31,24,65,61,75,81c16,32,21,36,46,31l29-5l-37-48c-20-26-35-55-33-65
		c5-27,73,43,113,118c32,61,35,63,35,33c0-18-12-57-26-86c-19-38-25-62-20-81c8-33,24-33,36-1c5,14,14,25,20,25c17,0,11-39-15-90
		c-25-50-32-80-17-80c5,0,37,59,72,132c55,114,65,129,73,110c8-17,3-31-22-70c-32-50-38-72-21-72c14,0,12-32-5-73s-20-101-5-92
		c5,3,12,28,16,55c11,81,27,59,22-31c-3-78-3-80,14-59c10,12,18,35,18,51s4,29,9,29c11,0,21-25,21-53c0-12,6-34,14-49
		c13-24,12-28-8-46c-38-35-100-69-211-116c-189-81-444-237-680-414c-44-33-81-59-83-57c-5,5,75,171,132,273c59,105,70,134,34,92
		l-21-25l6,83c7,92,30,193,59,261c19,45,17,64-4,43c-19-19-35-14-41,13c-3,21,1,29,25,41c16,8,39,14,51,12c24-3,43,17,91,92
		c16,25,40,57,53,71c16,17,21,29,14,33c-20,13-11,78,22,151C10055,6348,10070,6360,10070,6314z M3253,6287c-17-23-62-69-102-102
		c-71-61-251-179-259-171c-2,3-1,14,3,26c4,13,34,34,78,57c84,42,158,97,242,180c33,33,62,58,64,56C3282,6331,3270,6311,3253,6287z
		 M705,6290c4-6-12-29-34-52c-34-34-44-38-56-28c-20,16-19,49,2,72C634,6302,695,6307,705,6290z M1700,6265c33-28,38-35,22-35
		c-21,0-82,45-82,61C1640,6308,1658,6300,1700,6265z M8635,6253c-4-17-9-23-16-16s-6,19,3,38C8636,6306,8645,6292,8635,6253z
		 M791,6271c-11-21-80-65-89-57c-7,8,19,37,53,58C793,6295,803,6295,791,6271z M826,6243c-15-13-35-23-44-23c-12,0-5,11,22,37
		c28,26,41,33,44,23C851,6273,841,6256,826,6243z M1824,6226c6-26,5-28-8-17c-10,8-16,28-15,50C1801,6298,1809,6286,1824,6226z
		 M1100,6271c0-4-15-13-32-19c-29-9-24-10,45-11c51-1,90,4,115,15s72,16,147,17c100,2,115,0,165-24c63-30,123-87,187-176
		c25-35,46-63,49-63c6,0-16,53-36,85c-10,17-53,64-95,104c-41,41-73,76-71,79c3,3,25-3,50-12c58-22,129-99,169-184
		c28-59,32-77,31-147c-2-180-12-324-28-390c-43-180-163-332-326-413c-99-49-232-89-224-67c9,22,46,42,122,65c38,12,90,35,114,51
		c23,16,64,43,90,60c48,32,111,117,164,220c21,43,28,71,31,134l3,80l-19-65c-93-324-288-479-602-480c-65,0-90-4-99-15
		c-16-19-35-19-96,1c-87,29-83,42,6,19c36-9-37,37-125,79c-38,19-82,47-96,63c-69,73-143,220-168,333c-17,76-13,201,9,272
		c23,73,23,78,10,78c-5,0-10-11-10-24s-7-29-15-36c-21-17-19-2,5,62c21,56,79,148,94,148c4,0,0-12-9-27c-39-59-58-96-48-92
		c6,2,46,47,91,99c96,114,149,156,232,181C965,6281,1100,6282,1100,6271z M8564,6245c3-8,1-15-3-15c-5,0-11,7-15,15c-3,8-1,15,3,15
		C8554,6260,8560,6253,8564,6245z M2274,6152c27-86,36-126,51-227c33-227,8-428-70-562c-15-24-28-43-30-41c-3,2,11,52,30,110
		c81,249,84,393,12,609c-24,74-47,147-51,162c-7,28-6,28,18,12C2249,6205,2265,6179,2274,6152z M8543,6177c-9-14-23,4-23,31l1,27
		l13-25C8542,6196,8546,6182,8543,6177z M487,6133c-4-32-18-116-33-188c-37-185-31-290,29-525c25-96,43-177,42-178
		c-6-7-50,71-73,127c-12,30-32,100-43,155c-18,86-20,126-16,266c3,113,10,186,22,230c20,73,60,170,71,170
		C490,6190,490,6164,487,6133z M750,6183c0-5-11-13-25-20c-28-13-34,1-7,16C739,6191,750,6193,750,6183z M2125,6175
		c-34-16-85-19-85-6c0,14,20,19,70,19h45L2125,6175z M1910,6170c0-5-12-10-26-10s-23,4-19,10c3,6,15,10,26,10
		C1901,6180,1910,6176,1910,6170z M567,6110c-22-50-37-64-37-33c0,18,40,83,52,83C586,6160,579,6138,567,6110z M2166,6129
		c8-6,14-15,14-20s-72-9-160-9c-133,0-160,2-160,15C1860,6146,2130,6159,2166,6129z M2384,5997c9-26,16-52,16-58c0-14-28-41-33-32
		c-9,15-35,119-42,163l-7,45l25-35C2357,6060,2375,6023,2384,5997z M2201,6071c14-14,40-111,50-191c10-78,5-272-8-305
		c-3-10-22-12-71-9c-37,3-108,2-158-3l-91-9l-6,176c-4,96-11,195-17,219c-15,62-4,71,88,71c61,0,73,2,63,13c-7,7-41,12-88,12
		c-81,0-106,15-56,34C1936,6090,2189,6084,2201,6071z M2865,5925c-43-47-81-85-86-85c-9,0,15,62,42,106c20,32,70,63,102,64
		C2937,6010,2920,5986,2865,5925z M8617,5953c-3-10-5-2-5,17s2,27,5,18C8619,5978,8619,5962,8617,5953z M2636,5725
		c-8-31-18-60-22-63c-10-10,2,67,15,102C2648,5811,2652,5786,2636,5725z M8108,5727c3-38,22-52,22-17c0,11,4,20,9,20
		c13,0,51-49,51-65c0-12-42-25-81-25c-23,0-45,66-35,105C8083,5782,8104,5771,8108,5727z M6380,5693c81-16,144-40,190-73
		c38-27,38-40-1-40s-69,16-69,38c-1,13-6,10-21-10c-11-16-24-28-29-28c-18,0-40,32-40,58c0,35-17,16-22-23c-2-18-9-30-18-30
		c-8,0-17,13-21,30l-6,30l-7-27c-13-46-46-30-36,17c3,14-11-1-24-27c-20-38-36-33-36,11c0,41-13,55-24,25c-3-9-6-29-6-46
		c0-50-25-27-28,26c-4,54-25,59-30,7c-4-39-26-37-30,2c-5,39-22,23-22-21c0-42-14-34-27,16c-10,39-29,39-25,0c4-46-41-33-53,15
		c-10,38-25,34-25-8c0-43-25-48-41-7l-11,27l-11-22c-12-27-22-29-31-8c-8,22-24,18-28-5c-4-28-22-27-29,2c-5,22-5,23-17,3
		c-6-11-12-15-12-9c-1,35,110,80,229,94C6115,5721,6282,5713,6380,5693z M10674,5691c16-17,56-130,56-158c0-6-44-35-97-64
		c-333-179-722-451-1068-748l-139-120l-13,47c-39,143-41,158-28,195c49,142,379,397,824,636c69,37,180,92,246,122
		c66,29,133,66,150,81C10641,5715,10651,5716,10674,5691z M2370,5611c0-6-4-13-10-16c-5-3-10,1-10,9c0,9,5,16,10,16
		C2366,5620,2370,5616,2370,5611z M4830,5586c11-22,10-30-14-68c-14-24-37-56-52-73l-26-30l6,43c6,41,54,152,66,152
		C4814,5610,4822,5599,4830,5586z M5650,5581c0-24-25-45-45-37c-18,7-20,42-2,49C5630,5605,5650,5600,5650,5581z M6999,5577
		c95-33,40-39-511-53c-199-6-258-4-258,5c0,30,67,41,252,42c101,1,235,5,298,9C6952,5590,6962,5590,6999,5577z M8497,5536
		c36-32,22-45-22-21c-35,18-41,26-28,38C8458,5564,8468,5561,8497,5536z M6120,5536c30-8,115-44,189-80c122-59,234-96,292-96
		c27,0,194-116,241-168c19-21,43-58,54-81c10-23,23-40,28-38c6,2,10,35,11,74c0,64-2,70-17,62c-24-13-25-12-31,21c-5,21-12,30-27,30
		c-17,0-20,6-20,44c0,54-14,66-32,29c-24-50-38-40-38,27c0,68-16,74-26,9c-6-33-9-37-21-27c-11,9-14,25-10,55c5,49-9,57-24,13
		c-17-47-47-40-55,11l-7,42l-14-27c-18-34-42-35-35-1c5,30-13,33-28,5c-6-11-15-20-20-20c-6,0-10,9-10,20c0,23-3,24-30,8
		c-23-14-39-3-21,15c8,8,61,13,166,15l153,3l114-95c63-52,127-113,143-136l28-40l-17-51c-20-63-20-70-1-63c17,7,21-21,5-31
		c-18-11-11-23,10-18c21,6,21,5,2-44c-14-37-16-53-8-66c8-12,7-22-2-37c-16-25-15-31,2-24c8,3,17,15,21,27l6,22l11-22
		c9-18,6-32-16-73c-27-52-26-62,6-33c17,15,18,15,18-10c0-15-9-41-20-59c-25-41-26-56-2-35c10,10,22,14,25,10c14-13,6-36-25-79
		c-32-45-31-77,2-36c21,25,27,21,30-23c5-72,0-87-40-128c-22-22-38-43-34-46c3-3,19,9,36,27c16,19,31,32,32,30c9-9,27-50,24-52
		c-2-1-19-12-38-25c-34-22-34-22-6-16c27,6,28,5,22-22c-6-23-5-26,5-15c7,6,15,12,19,12c9,0-1-124-11-136c-11-14,11-34,40-37
		c27-2,27-7-11-85c-67-136-204-246-358-286c-49-12-57-12-72,2c-33,28-22,42,34,42c69,0,52,14-25,20l-62,6l35,16c19,10,60,24,91,32
		c57,16,99,46,65,46c-10,0-41-10-69-22c-52-23-128-30-143-15c-12,12,13,25,73,38c29,7,60,20,69,31c27,29,11,31-37,3
		c-26-14-60-25-82-25c-50,0-44,19,11,38c24,8,42,20,42,28c0,11-5,12-17,6c-68-34-163-33-163,3c0,12,12,15,54,15c34,0,58,5,65,14
		c19,23-3,27-52,10c-37-13-50-13-69-3c-22,12-22,13,19,30c22,9,44,22,47,28c9,14,11,14-48-4c-61-19-76-19-76-1c0,8,16,20,35,27
		s35,17,35,21c0,10-15,10-61-1s-69,0-50,23c8,9,24,16,37,16s24,5,24,10c0,6-25,10-55,10c-48,0-55,2-55,20c0,16,7,20,35,20
		c52,0,42,16-17,26c-67,12-77,34-14,34c24,0,48,5,51,10c4,6-7,10-27,10c-42,0-82,20-86,43c-3,16,1,18,41,12c26-4,47-3,51,3
		c3,5-16,12-44,16c-62,8-84,27-69,60c9,19,6,31-15,64c-14,23-26,44-26,48c0,3,15,5,33,4c51-3,67-1,67,9c0,6-24,7-56,4
		c-66-7-76,3-67,60c4,26,2,37-7,37s-8,5,3,18c10,10,17,30,17,43c0,14,4,29,10,35s0,28-16,62c-16,33-23,60-18,70c4,9,13,37,20,62
		c12,44,12,46-27,109c-40,64-45,97-7,51c58-72,98-193,98-297c0-52,3-72,11-67c6,4,9,19,5,38c-5,28,4,21,87-66
		c127-134,182-154,284-103c58,29,82,60,90,113l5,37l-30-50c-33-56-57-79-89-89c-31-10-29-4,12,37c33,33,44,57,27,57
		c-4,0-23-16-42-35c-28-29-41-35-77-35c-37,0-43,3-49,25c-4,18-13,25-30,25c-36,0-29,15,17,36c49,22,69,39,69,61c0,11-10,6-32-16
		c-52-51-138-61-138-16c0,8-12,22-26,31c-17,12-21,19-13,24s-3,23-35,54c-44,45-46,49-46,106c0,39-4,60-12,60c-6,0-3,9,7,20
		s24,20,31,20c18,0,74,49,74,66c0,28-30,13-45-22c-13-32-17-35-51-32c-23,2-41,10-48,21c-9,15-6,22,19,42c35,29,28,41-15,27
		c-35-13-80-1-80,21c0,8,9,22,20,32c26,23,19,31-12,12c-21-13-28-12-76,9c-41,18-52,28-48,40c5,13,2,14-11,8c-32-14-145-16-192-3
		c-25,7-66,22-91,33l-45,21l65,5c36,4,75,12,88,19c26,14,29,47,5,73c-20,23-16,26,38,37C6018,5552,6060,5551,6120,5536z M2240,5535
		c0-33-303-63-328-32c-11,13,5,16,120,24C2203,5540,2240,5541,2240,5535z M5883,5509c43-53-1-83-88-59c-31,9-44,19-52,41
		c-11,27-9,31,10,39C5791,5546,5862,5535,5883,5509z M8450,5495c14-15,35-31,47-36c15-6,20-14,16-28c-3-12,2-32,11-47
		c33-49,17-57-49-26c-33,16-66,36-73,45c-17,20-26,79-18,112C8392,5545,8409,5539,8450,5495z M10870,5531c0-5,33-51,73-103
		c92-116,105-138,85-149c-39-21-475-314-558-374c-182-131-408-320-396-332c3-4,12-1,18,5c16,16,28,15,28-1c0-17-36-50-78-72
		c-19-9-48-33-65-53c-18-20-102-109-187-197c-130-135-247-280-263-329c-6-18-117-10-181,13c-119,42-134,15-38-67c30-26,75-65,100-88
		l44-40l-47-85c-27-46-107-181-180-299c-167-272-231-388-289-520c-44-97-96-253-111-328c-4-17-13-32-20-32c-21,0-64,57-72,98
		c-22,101,1,343,62,665c41,218,70,322,123,446c51,117,300,574,366,671c72,106,304,335,484,478c247,196,392,294,957,644
		C10807,5533,10870,5554,10870,5531z M5618,5504c-10-10-21-13-29-8c-12,7,0,14,41,23C5632,5520,5627,5513,5618,5504z M8657,5458
		c34-36,63-88,63-113c0-20-26-7-68,35c-17,16-37,30-44,30c-10,0-12,11-10,40C8603,5499,8616,5500,8657,5458z M8779,5380
		c12-36,2-38-26-7c-21,22-63,100-63,114C8691,5503,8769,5409,8779,5380z M2216,5435l-11-45l-150,1c-135,1-147,2-120,14
		c18,9,67,14,125,15c74,0,91,3,76,12c-12,7-48,8-102,4c-81-7-124,2-124,24c0,14,34,17,181,19l135,1L2216,5435z M5705,5420
		c26-55,28-63,17-94c-15-41-2-80,41-132c21-25,27-42,27-81c0-54,20-119,69-225c17-37,31-70,31-72c0-9-164,93-207,129
		c-23,20-78,79-121,133c-130,160-192,208-299,231c-29,6-71,24-94,41c-80,58-151,47-165-25c-5-30-10-35-33-35c-14,0-37,10-51,21
		l-25,20l44-3c51-3,67,15,28,33c-18,8-48,9-100,2c-104-12-111-8-80,44c21,36,30,43,68,48c23,4,204,10,401,14c198,4,373,8,389,9
		C5672,5479,5678,5473,5705,5420z M8815,5433c30-31,59-82,51-90c-11-11-34,7-69,55c-32,45-37,62-17,62
		C8784,5460,8800,5448,8815,5433z M1813,5401c-6-21-40-67-47-61c-2,3,5,27,16,53c13,29,24,44,28,36C1814,5423,1816,5410,1813,5401z
		 M1860,5374c0-27-37-74-58-74c-10,0-29-22-46-52c-41-73-107-135-179-168c-97-44-118-45-50-3c34,22,88,59,118,84
		c60,47,162,173,184,227C1844,5423,1860,5416,1860,5374z M2399,5374c8-16,18-37,23-46c4-10,4-18,0-18c-5,0-14,10-20,23l-11,22v-23
		c-1-36,22-72,85-132c32-30,78-74,102-97c25-24,46-43,49-43c13,0-43,84-72,106c-48,36-36,43,20,10c52-31,105-112,105-163
		c0-18-2-33-5-33c-20,0-69,37-101,76c-21,26-73,73-115,105c-52,40-83,71-98,101c-19,40-21,41-21,15c0-41,23-79,76-126
		c51-44,51-48,1-27c-47,19-97,73-125,134l-24,54l48,49c27,27,53,48,59,46C2380,5405,2391,5390,2399,5374z M2460,5340
		c18-28,42-57,53-65c15-10,17-15,7-15c-23,0-35,12-69,64c-29,46-37,66-27,66C2426,5390,2442,5367,2460,5340z M2110,5349
		c-33-6-85-6-125,0c-66,8-64,8,55,9C2148,5358,2158,5356,2110,5349z M5180,5301c15-28,13-31-18-31c-36,0-72,33-72,66v24l40-20
		C5151,5329,5174,5311,5180,5301z M5833,5326c12-8,70-35,129-59c140-58,202-99,235-154c14-24,23-46,20-49s-24,7-48,21
		c-32,21-50,26-75,22c-31-5-34-4-34,20c0,22-2,24-16,12c-11-9-14-22-10-41c4-20,1-28-8-28c-15,0-26,21-26,52c0,17-2,18-15,8
		c-13-11-18-10-29,5c-9,13-15,15-20,7c-10-17-26-15-26,4c0,13-3,14-15,4c-19-16-31-7-55,40c-11,22-29,44-40,50c-20,11-25,36-14,78
		C5793,5344,5803,5345,5833,5326z M4894,5282c60-28,63-32,70-71c3-23,3-49-2-56c-7-13-11-13-31,1c-12,9-20,22-17,29c3,9-8,15-31,20
		c-35,6-133,86-133,108C4750,5330,4827,5313,4894,5282z M5137,5253c30-29,48-29,67-1l15,21l68-25c37-14,81-29,97-34
		c21-7,49-37,101-112c97-140,129-169,260-247c63-37,132-82,154-102c65-55,127-152,198-305l64-142l-12-82c-14-94-5-139,17-89
		c7,17,14,46,14,65c2,35,2,34,30-25c15-33,49-117,75-185c55-144,112-264,157-326c30-42,30-45,26-133c-3-73-2-88,9-79
		c7,6,13,31,13,59c0,27,4,49,10,49c21,0,32-45,27-107c-3-45-1-63,7-60c6,2,11,26,12,53c0,35,5,50,16,52c21,4,38-20,53-75
		c12-48,12-48,23-20c12,29,15,30,50,21c27-8,28-29,3-88c-11-25-23-61-27-81c-6-31-10-35-38-35c-31,0-31,0-48-82
		c-21-103-79-218-158-317c-33-41-60-80-60-88c0-16,2-16,35-1c34,15,40,6,20-32l-16-31l-62,48c-34,28-64,60-67,73c-4,17-16,26-40,32
		c-19,5-45,21-56,35c-12,14-27,23-32,19c-14-8-88,22-78,32c4,4,37,28,74,53c72,49,112,97,112,136c0,38-23,22-41-28
		c-21-57-123-139-172-139c-32,1-32,1-11,18c12,9,42,29,67,44c55,32,80,67,75,105c-3,27-4,27-30-18c-31-52-78-96-112-105
		c-13-3-40-4-62-2l-39,3l61,32c62,32,114,82,114,109c0,22-8,18-71-45c-33-33-75-65-94-71c-34-11-38-9-98,34c-142,104-148,114-77,142
		c35,14,58,40,46,52c-3,2-27-10-54-27c-55-35-74-38-93-15c-10,13-10,17,2,25c8,5,22,9,32,9c20,0,73,48,63,57c-3,3-23-6-44-20
		c-41-29-96-44-106-29c-7,11,18,34,58,53c31,14,47,39,26,39c-7,0-25-11-42-25c-16-14-39-25-51-25c-18,0-14,7,26,41
		c26,22,47,47,47,55c0,24-17,15-30-16c-10-25-23-33-67-46l-55-16l-63,31c-115,57-212,179-230,290c-4,24-16,52-26,62s-19,28-19,39
		c0,13-5,18-15,14c-18-7-35,32-35,82c0,31-19,51-21,22c0-7-7,4-14,25c-8,21-31,65-51,97c-39,63-55,142-37,175c9,15,14,13,45-17
		c19-18,54-67,78-108c42-74,86-130,102-130c12,0-2,60-24,104c-11,22-38,66-61,99c-46,68-66,117-67,167c0,25-3,31-9,20
		c-7-10-11-1-13,30c-3,41-4,43-19,27c-23-22-29-12-29,49v53l49-23c79-36,97-51,176-150c42-52,83-97,92-100c10-4,25,2,39,15
		c16,15,40,23,76,26c78,6,98,12,98,27c0,23-22,25-62,5c-47-24-57-24-51,0c4,15-5,22-43,35c-54,18-65,15-39-14c10-11,15-20,11-20
		s-19,14-33,31c-15,17-69,63-121,101c-113,85-147,131-147,200c0,53-2,56-20,31c-11-14-13-12-24,18c-11,29-14,31-20,15
		c-13-33-20-3-18,72c2,73,12,88,37,57c7-8,10-24,7-35c-4-16,0-20,21-20c36,0,82-29,167-105c65-58,139-105,165-105c6,0,10,10,8,22
		c-2,15-16,29-40,41c-52,24-53,52-3,52c27,0,30,3,27,30c-2,17-14,39-28,50c-13,12-24,26-24,33c0,20-14,14-56-23c-27-24-34-34-22-35
		c9,0,24,8,33,17c16,16,17,15,14-2c-6-28-57-42-77-21c-17,17-12,26,23,39c6,3,7,7,4,11s-19,2-34-4c-42-16-55-6-55,42
		c0,53-15,81-30,58c-5-8-10-22-10-30c-1-13-2-13-10,1c-5,9-5,31,0,54c10,46,4,58-16,31c-13-19-14-17-14,16c0,19,5,49,11,67
		c10,28,15,31,51,31c46,0,65-9,138-66c60-47,116-74,153-74c13,0,34-11,46-24c16-17,39-27,73-31c55-8,70-21,213-177
		c33-36,75-73,93-82c31-16,32-16,32,4c0,12-15,31-40,48c-22,15-42,36-46,47c-13,39-57,86-128,136c-39,29-85,65-102,81
		c-27,25-35,28-52,19c-11-6-25-11-31-11c-21,0-11,35,17,56c40,32,20,40-25,10c-20-14-45-26-55-26c-30,0-29,19,2,35
		c42,22,38,27-16,19c-43-6-46-5-40,13c5,16,1,22-15,26c-17,5-20,11-15,30c5,22-1,30-41,56c-25,17-51,31-56,31c-6,0,0,11,13,25
		s21,27,18,30c-2,3-13-4-23-15s-25-20-33-20c-12,0-10,5,6,23c12,13,22,30,22,38c-1,8-9,3-21-13c-25-34-49-36-49-5c0,27-19,47-67,71
		c-33,16-63,61-63,91c0,14,6,13,41-7C5094,5285,5123,5265,5137,5253z M2656,5259c19-22,19-22-3-8c-13,8-23,17-23,21
		C2630,5284,2636,5281,2656,5259z M1690,5240c-22-30-39-45-45-38c-6,6,45,68,56,68C1707,5270,1702,5257,1690,5240z M2276,5244
		c4-15,26-49,50-76s44-53,44-58s25-26,56-45c60-39,159-128,175-157c14-27-167,118-247,198c-68,67-120,144-107,158
		C2260,5276,2270,5269,2276,5244z M2690,5186c0-9-37,6-60,25c-24,19-24,19,18-1C2671,5199,2690,5188,2690,5186z M834,5195
		c11-8,16-18,12-22c-3-4-16,3-28,15C793,5213,805,5217,834,5195z M5085,5109c28-28,77-71,110-96c58-44,59-45,25-38
		c-66,14-139,46-170,75c-24,22-30,36-30,69c0,23,4,41,8,41S5058,5137,5085,5109z M1780,5144c0-16-23-44-35-44c-19,0-19,6,3,29
		C1765,5148,1780,5155,1780,5144z M2713,5100c19-22,43-40,51-40c18,0,21-15,6-25c-20-12-46,5-83,55C2642,5151,2661,5158,2713,5100z
		 M4985,5100c3-11-4-55-15-99c-21-78-24-154-6-193c5-12,0-23-20-40c-14-13-32-29-40-35c-7-7-15-13-18-13c-14,0-4,44,15,71
		c17,25,19,34,10,66c-6,21-11,68-11,105s-4,78-10,92c-9,24-7,26,15,26c14,0,33,9,43,19C4970,5124,4977,5124,4985,5100z M1120,5075
		c0-29-15-33-29-6c-11,20-5,31,16,31C1114,5100,1120,5089,1120,5075z M6036,4999c172-87,217-121,180-135c-20-8-56,13-65,38
		c-7,19-9,18-29-13c-21-34-25-32-35,16l-4,20l-7-20c-5-11-10-26-12-34c-6-19-34,5-34,31c0,15-4,17-17,10c-27-14-60,3-79,40
		c-22,44-24,45-34,28c-11-19-14-15-45,53c-17,40-21,57-12,57C5850,5090,5937,5049,6036,4999z M6167,5034c13-18,18-64,8-64
		c-3,0-24,9-46,20c-36,19-63,55-53,71C6083,5073,6154,5051,6167,5034z M6238,4994c-5-42-28-43-28-1c0,18,3,37,7,41
		C6229,5046,6242,5023,6238,4994z M5047,4980c29,0,1-89-29-90c-3,0-9,22-13,50c-7,54,1,84,17,56C5027,4987,5038,4980,5047,4980z
		 M1599,4995c-3-2-39-12-80-21c-50-10-139-17-274-19c-236-4-225-1,70,20c120,9,221,18,224,20c2,3,18,5,34,5
		C1590,5000,1601,4998,1599,4995z M2591,4983c13-16,12-17-3-4c-17,13-22,21-14,21C2576,5000,2584,4992,2591,4983z M2804,4938
		c11-41,7-58-13-58c-27,0-36,18-18,38c8,9,12,23,10,30c-3,6,0,12,5,12S2800,4950,2804,4938z M1660,4945c0-2-9-9-20-15
		c-22-12-44-5-35,11C1611,4950,1660,4954,1660,4945z M2680,4926c0-30-15-42-24-20c-10,27-7,44,9,44C2674,4950,2680,4941,2680,4926z
		 M2736,4902c1-43-2-47-23-34c-16,10-5,84,11,79C2730,4945,2735,4925,2736,4902z M1578,4927c7-8,7-17-2-30c-19-25-26-21-26,13
		C1550,4942,1561,4948,1578,4927z M1170,4908c85,0,200,4,255,7l100,7v-181c0-100-4-181-8-181c-12,0-47,81-47,110c-1,56-9,67-51,66
		c-38-1-39-2-39-36c0-19,10-67,21-107c12-39,19-79,16-87c-6-14-36-16-222-16c-196,0-215-2-215-17c0-13-3-14-12-5c-13,13-7,45,26,165
		c14,48,15,62,4,84c-28,57-78,57-78,0c0-18-7-42-15-53c-14-18-14-18-15,7c0,14,3,47,6,73c6,44,8,46,40,46c18,0,40,7,48,16
		c34,34,11,64-50,64c-24,0-46,6-51,12c-14,23-19-44-11-137c11-129,12-178,3-204c-9-31-29-21-33,17c-2,21-9,32-18,32c-12,0-14-7-9-30
		c8-35-10-42-19-7c-9,36-7,179,4,219c6,21,18,44,26,53c21,21,14,49-14,53c-26,4-28,17-4,32c11,7,50,8,112,4
		C972,4910,1085,4908,1170,4908z M724,4853c1-99-5-164-14-158c-7,4-10,46-8,110c2,62,7,100,12,95S723,4874,724,4853z M5969,4861
		c29-22,66-43,82-46c16-4,29-13,29-21s10-14,25-14s36-11,51-27c28-30,26-40-5-21c-17,11-25,11-42,0c-18-12-24-11-40,7
		c-13,14-32,21-54,21c-33,0-35,2-35,32c0,25-3,29-12,20c-18-18-24-15-38,18c-7,17-19,34-28,39c-14,8-9,31,7,31
		C5913,4900,5940,4882,5969,4861z M2868,4866c3-13-1-17-14-14c-11,2-20,11-22,22c-3,13,1,17,14,14C2857,4886,2866,4877,2868,4866z
		 M6203,4831c15-15,17-23,8-39c-21-39-91,3-91,54c0,13,6,15,32,10C6170,4852,6193,4841,6203,4831z M1596,4753l8-48l6,60
		c5,56,6,58,17,33c8-19,10-51,4-105c-6-66-9-74-18-54c-9,23-10,22-16-17c-8-45-26-92-37-92s-21,204-14,262c7,51,7,51,24,30
		C1580,4810,1591,4779,1596,4753z M2813,4825c-4-15-36-12-41,3c-3,9,3,13,19,10C2804,4837,2814,4831,2813,4825z M2870,4809
		c14-24,9-32-14-23c-17,7-23,44-6,44C2855,4830,2864,4821,2870,4809z M770,4776c0-24-16-43-26-33c-8,7,7,57,17,57
		C766,4800,770,4789,770,4776z M2787,4760c8,0,11-4,8-10c-3-5-17-10-31-10c-21,0-24,5-23,33c0,32,0,32,16,10
		C2765,4770,2779,4760,2787,4760z M9336,4672c4-19,1-59-5-89c-16-71-115-263-199-386c-109-158-131-198-154-271c-12-39-41-99-69-140
		c-58-83-81-152-115-336c-14-74-36-162-50-195c-31-75-32-81-16-78c15,4,15,15-3-140c-8-70-24-151-35-179c-13-35-16-55-9-64
		c5-6,11-66,12-133l2-122l-24,6c-14,4-60,22-103,42c-87,40-90,46-63,123c17,49,19,74,5,65c-5-3-12-22-16-43c-15-83-49-85-41-2
		c5,48,2,71-14,112s-18,57-10,76c6,12,11,47,11,76c0,40,5,60,20,77l21,24l-7-66c-5-60,1-117,12-106c3,2,9,67,14,143
		c8,122,13,146,37,193c32,62,60,82,50,35c-36-163-47-233-53-318c-12-164,17-104,46,99c13,86,27,132,51,167c11,14,19,30,19,34
		c0,5-7-2-16-14c-37-54-45-9-14,89c17,56,39,99,114,224c15,25,12,24-19-10c-45-48-109-145-155-235c-42-80-39-77-49-61
		c-12,19-26-8-41-84c-19-92-27-110-45-95s-19,64-4,109c9,24,9,35,0,44c-23,23-12,102,22,171c19,37,30,69,26,72c-4,2-15-8-23-23
		c-13-24-15-25-17-8c-3,44,3,64,48,152c27,50,44,95,40,99s-14-1-22-12c-14-19-14-19-15,2c0,11,16,35,35,54s55,76,80,126
		c31,63,57,102,81,121c19,15,42,41,50,56c33,62,147,167,182,167c10,0,7-10-13-36c-45-58-23-48,44,21c35,36,67,65,72,65
		c14,0,11-28-7-62c-9-16-11-28-6-24c11,7,106,177,222,400c75,142,85,157,96,141C9324,4715,9333,4691,9336,4672z M1748,4651
		c17-32,32-65,32-73c0-17-41-38-75-38c-22,0-24,2-15,26c6,14,10,52,10,85c0,32,3,59,8,59C1712,4710,1730,4684,1748,4651z M6168,4680
		c48-36,48-63-1-58c-34,3-73,47-64,72C6112,4716,6120,4714,6168,4680z M4916,4611c-5-55-3-71,13-97c14-23,18-43,14-75
		c-3-29,3-66,16-108c27-81,26-121,0-174c-12-23-25-53-29-67c-14-48,8-130,60-233l51-99l-12-107c-7-59-9-121-4-137l7-29l11,25
		c6,14,19,43,29,64c22,49,23,48-7,40l-24-6l22,41c12,22,24,41,28,41c7,0,56-80,120-195c34-61,71-111,115-153l65-63l-29-37
		c-38-48-54-80-49-95c2-7,13,4,23,23c11,19,31,46,45,61c24,26,29,27,70,18c50-12,149-83,149-108c0-10-7-26-15-37c-17-22-19-34-5-34
		c5,0,12,11,16,25c12,49,60,21,75-45c6-24,7-60,4-80c-3-19,1-105,9-190c21-220,7-272-82-313c-38-18-61-21-122-18
		c-204,11-205,11-326-47c-62-29-127-55-145-58c-33-5-35-4-46,35c-16,49-17,84-3,76c6-3,10-19,10-36c0-39,18-37,25,4c3,17,9,54,14,82
		c5,27,8,52,5,54c-5,5-24-47-24-67c0-15-2-15-10-2c-19,30-11,142,15,205c28,68,28,68,16,61c-5-4-23-35-40-71c-16-36-33-65-37-65
		c-11,0,5,77,31,153c26,74,26,106,0,44c-8-20-15-41-15-46c0-24-21-19-35,8c-17,34-20,65-5,56c5-3,16,11,25,31c17,42,13,57-7,25
		c-7-12-16-21-19-21s-6,123-5,273c0,283-6,360-50,627c-33,195-31,364,5,444c24,55,43,128,31,121c-5-3-14-21-20-40c-14-43-26-45-34-5
		c-7,37,4,150,15,150c17,0,20,42,5,65c-14,21-13,29,9,94c28,85,33,93,47,85C4919,4680,4920,4653,4916,4611z M6051,4673
		c16-10,42-35,56-56c24-34,31-38,58-34c16,3,38,8,47,12c21,8,18,15,53-138c20-85,26-136,23-183c-2-35-3-64-1-64c1,0,10,14,18,30
		c9,17,20,28,26,25c5-4,30-43,56-88c26-44,60-96,76-114l29-32l-17-57c-19-65-13-102,11-70c8,11,14,29,14,40c0,12,5,28,10,36
		c8,12,17,7,51-30c23-25,59-71,80-103l37-57l-19-58c-10-31-23-83-29-114c-15-74-30-75-97-4c-63,66-98,138-232,474
		c-56,140-120,290-143,335c-43,87-125,214-152,236C5968,4691,6003,4701,6051,4673z M5320,4642c0-5-9-17-20-27c-15-13-24-15-31-8
		c-8,8-5,13,10,18c12,3,21,11,21,16s5,9,10,9C5316,4650,5320,4646,5320,4642z M680,4574c0-30-2-54-4-54c-35,0-44,33-25,88
		C667,4653,680,4638,680,4574z M950,4592c0-39-28-103-48-110c-17-5-15,12,10,89C935,4644,950,4652,950,4592z M1475,4560
		c30-59,31-69,6-46c-21,19-57,111-40,101C1446,4611,1462,4587,1475,4560z M600,4573c-1-5-12-28-26-53c-19-34-24-38-19-18
		c9,44,24,78,35,78C595,4580,600,4577,600,4573z M2598,4436c5-122-3-144-33-86c-18,34-20,142-4,189C2580,4594,2592,4559,2598,4436z
		 M2804,4510c113-68,242-128,556-258c416-172,539-234,689-345c66-49,81-68,145-174c40-65,150-233,245-372c96-140,198-293,226-340
		c46-76,56-86,84-89c17-2,35-11,40-20c18-35,105-444,99-464c-6-17-129,123-362,412c-121,151-272,328-335,393l-115,118l22,74
		c26,88,29,145,7,145c-19,0-33-28-45-91c-6-29-15-58-21-66c-30-36-91-1-164,94c-55,73-123,124-272,207c-57,31-147,80-200,110
		c-54,29-124,63-156,75c-86,31-133,57-222,122c-44,31-114,76-155,98c-114,62-130,80-149,169c-11,53-16,252-6,252
		C2719,4560,2758,4537,2804,4510z M4788,4418c-3-92-10-145-21-172c-21-47-21-57-2-32c13,18,15,7,15-108c0-73-4-125-9-122s-7,15-4,25
		c7,26-12,35-31,15c-21-21-20-54,2-70c16-12,16-16-5-78c-24-67-30-126-14-126c5,0,11,8,14,18c3,14,6,12,17-11c11-22,11-36,1-75
		c-19-72-25-136-12-128c6,4,11,23,11,42s4,34,9,34c23,0,41-110,23-138c-7-10-12-8-24,5c-39,45-51,82-89,282l-22,114l23,64
		c12,35,20,67,16,70c-3,3-8-2-11-11c-16-51-17-51-27-16c-14,49-4,140,26,244c37,125,34,166-5,54l-18-53v40c-1,41,37,194,57,232
		c11,19,29,27,71,32C4790,4550,4792,4526,4788,4418z M1743,4513c-7-2-19-2-25,0c-7,3-2,5,12,5S1749,4516,1743,4513z M4667,4498
		c-3-13-15-58-26-101c-48-188-38-419,34-807c4-19-29,42-73,135c-105,227-225,463-311,613c-39,67-71,124-71,126c0,10,311,52,409,55
		C4669,4520,4672,4518,4667,4498z M828,4483c-10-2-28-2-40,0c-13,2-5,4,17,4C827,4488,837,4486,828,4483z M1643,4483
		c-13-2-33-2-45,0c-13,2-3,4,22,4S1655,4485,1643,4483z M778,4440c66-30,53-56-23-44c-47,7-53,24-8,24c37,0,20,13-18,14
		c-18,1-34,7-36,14C686,4466,728,4463,778,4440z M1667,4444c14-13,14-17,2-25c-19-12-66-11-74,1C1573,4455,1636,4475,1667,4444z
		 M4213,4398c39-49,63-93,146-270c33-69,73-141,90-160c16-18,41-68,55-111c14-42,53-130,85-195c53-107,76-166,96-256
		c12-54-21-11-56,72c-58,142-126,266-223,409c-72,109-100,160-116,213c-11,38-29,100-40,138c-11,37-35,89-55,116
		C4137,4436,4152,4473,4213,4398z M898,4403c2-8-6-13-22-13c-25,0-33,10-19,24C867,4424,893,4417,898,4403z M1477,4408
		c40-16,27-18-235-26c-212-6-277-2-204,14c15,3,33,8,41,10c7,2,41,0,75-6c45-7,79-6,131,4C1376,4421,1442,4423,1477,4408z
		 M1630,4355c0-20-48-94-88-135c-54-56-111-77-158-60c-23,9-31,8-41-6c-13-18-43-13-43,9c0,10-23,13-97,12c-72,0-110,5-142,18
		c-61,25-126,71-153,110l-23,32l25-16c143-93,207-119,287-119c43,0,67,6,102,27c40,24,43,28,23,31c-13,2-44-4-69-12
		c-54-18-130-22-100-5c27,16,20,26-25,33c-23,4-47,11-54,17c-9,7-16,4-27-11c-9-13-20-18-31-14c-22,8-21,12,12,42
		c36,34,83,40,320,41c164,1,192-1,192-14c0-21,17-19,30,5C1579,4358,1630,4370,1630,4355z M850,4306c0-5-8-1-19,10
		c-10,10-16,23-13,28C823,4354,850,4323,850,4306z M982,4325c0-5-5-11-11-13s-11,4-11,13s5,15,11,13S982,4330,982,4325z M7258,4294
		c19-5,22-13,22-51c0-53-14-83-40-83c-15,0-20,10-25,55C7205,4294,7211,4306,7258,4294z M7594,3915c270-371,329-444,573-705
		c115-122,214-232,220-244c7-12,13-58,14-106c0-47,4-109,8-137c9-61,8-61-70-34c-116,40-287,124-282,138c3,8,32,32,64,54
		c53,36,89,80,89,109c0,6-14-6-32-25c-17-20-56-56-87-80l-57-43l-36,19c-36,19-53,43-42,61c4,7-5,8-25,3c-24-5-31-3-31,9
		c0,9,4,16,9,16c28,0,161,153,161,185c0,15-40-28-65-70c-39-67-88-105-136-105c-35,0-40,2-34,19c5,17,0,21-29,27c-46,8-48,37-5,59
		c48,25,27,29-24,4c-54-26-81-20-75,16c5,21,2,25-21,25c-52,0-70,10-68,38c2,25-1,27-45,30c-40,3-48,6-48,23c0,14-9,21-29,25
		s-28,11-24,20c6,16-22,20-32,4c-11-18-35-10-35,11c0,18-4,21-30,16c-36-8-51,11-24,30c10,8,28,21,39,29l20,15l-20-7
		c-11-4-36-13-56-20c-36-13-79-9-79,7c0,4,37,32,83,62c80,54,156,122,146,132c-3,3-37-21-75-53s-81-65-96-75c-36-22-96-22-132,2
		l-29,19l43,29c64,42,118,95,102,101c-8,2-35-17-61-42c-45-45-105-74-116-56c-3,5,32,35,77,68c72,52,129,115,116,128
		c-2,2-43-32-91-76c-47-43-99-86-115-94c-34-18-57-7-49,23c4,18,2,20-18,15c-17-4-26,0-35,15c-7,14-21,21-40,21c-37,0-40,23-7,51
		c22,20,22,20,0,10c-50-25-153-1-153,35c0,8,21,24,48,36c114,50,285,216,403,391c47,70,59,96,59,127c0,21,3,46,7,56
		C7326,4280,7347,4254,7594,3915z M4190,4228c22-24,28-47,7-30c-7,6-23,9-35,5c-17-4-22-1-22,15c0,17,5,23,27,31
		C4168,4250,4178,4240,4190,4228z M1236,4135c-11-8-29-15-39-15c-16,0-17,3-7,15c7,8,24,15,39,15C1254,4149,1254,4149,1236,4135z
		 M1223,4095c15,0,27-3,27-7c0-5-15-8-32-8c-51,0-108,12-108,21c0,5,19,6,43,2C1176,4099,1207,4095,1223,4095z M4199,4066
		c35-36,112-158,105-165c-9-10-68,58-110,127C4146,4107,4148,4119,4199,4066z M1288,4043c33-8,27-73-7-73c-9,0-33-12-54-26
		s-53-28-72-31c-62-10-114,67-89,132c6,15,18,16,103,10C1222,4052,1275,4046,1288,4043z M4215,3958c20-48,5-50-41-4
		c-25,25-34,43-34,67v34l30-30C4186,4008,4206,3978,4215,3958z M4140,3933c0-9,37-52,81-95c45-43,77-78,73-78c-22,0-115,63-138,93
		c-29,38-45,97-27,97C4135,3950,4140,3942,4140,3933z M4388,3840c13-16,19-30,14-30c-4,0-21,14-37,30c-20,21-24,30-14,30
		C4359,3870,4376,3857,4388,3840z M4328,3826c43-23,90-77,107-125c8-24,14-46,12-48c-2-1-35,30-74,70C4274,3825,4257,3863,4328,3826
		z M6880,3779c0-5-21-19-46-30s-48-27-51-35c-8-21-33-17-33,5c0,37,12,51,44,52c25,1,59,8,84,18C6879,3790,6880,3785,6880,3779z
		 M4814,3754c8-21,8-88,0-109c-12-29-24,5-24,68C4790,3768,4801,3787,4814,3754z M4304,3697c62-64,206-257,212-284
		c13-52,42-98,93-146c27-26,53-47,57-47c10,0-44,88-126,205c-132,188-171,247-167,251c2,2,23-18,46-46s46-48,50-46
		c20,13,102-103,166-235c42-86,131-337,122-345c-10-10-507,697-507,721C4250,3739,4276,3726,4304,3697z M6730,3684
		c15-39,13-44-20-44c-26,0-30,4-30,28C6680,3717,6714,3728,6730,3684z M4838,3559c-3-50-11-62-22-33c-8,22,4,95,16,88
		C4836,3611,4839,3586,4838,3559z M6736,3574c-3-9-6-36-6-60c0-25-5-44-11-44c-13,0-69,55-69,68c0,12,60,52,79,52
		C6737,3590,6740,3584,6736,3574z M4600,3472c0-12-3-12-15-2c-8,7-15,22-15,34c1,21,1,21,15,2C4593,3495,4600,3480,4600,3472z
		 M4856,3355c18-45,18-152-1-188c-13-25-12-37,1-104c18-88,14-167-10-191c-15-15-16-13-16,23c0,22-13,112-29,200
		c-39,212-46,275-32,275c11,0,22-33,19-60c0-8,0-24,1-35c2-20,2-20,16-1c9,11,15,41,15,68C4820,3399,4835,3404,4856,3355z
		 M6256,2659c12-20,21-180,9-176c-21,7-35,54-35,120C6230,2665,6239,2686,6256,2659z M6321,2634c17-21,15-83-5-102
		c-14-14-16-13-26,12c-15,41-13,106,4,106C6301,2650,6313,2643,6321,2634z M6217,2513c5-60-11-39-22,27c-5,35-4,42,5,33
		C6207,2567,6214,2540,6217,2513z M10745,1112c31-28,32-29,12-41c-17-11-19-11-14,3c8,21,4,20-51-9c-45-24-72-31-72-19
		c0,15,65,94,78,94C10706,1140,10727,1127,10745,1112z M10105,414c-44-34-119-65-168-70s-51-5-32,11c48,40,134,71,200,74h20
		L10105,414z M8738,393c2-9-8-13-33-13c-33,0-36,2-25,15C8695,413,8731,411,8738,393z M8928,354c9-6-75-54-95-54c-31,0-29,13,8,44
		c23,20,37,24,57,20C8913,360,8926,356,8928,354z M9118,364c31-9,28-20-9-33c-39-13-139-15-139-2C8970,360,9056,380,9118,364z
		 M9248,350c39,0,15-18-35-26c-35-5-43-4-43,9c0,17,18,28,38,21C9216,352,9233,350,9248,350z"/>
	<path d="M10197,7694c-19-19,16-115,47-127c11-4,9,8-9,52c-12,32-24,63-26,70C10206,7696,10201,7698,10197,7694z"/>
	<path d="M10284,7668c7-34,36-74,36-50c0,18-28,82-36,82C10281,7700,10280,7685,10284,7668z"/>
	<path d="M10030,7596c0-18,7-39,15-46c13-11,15-8,15,18c0,17-3,37-6,46C10043,7642,10030,7631,10030,7596z"/>
	<path d="M9830,7555c1-17,7-43,15-60l15-30l-4,48C9852,7568,9830,7604,9830,7555z"/>
	<path d="M3180,7494c-79-15-166-36-182-45c-11-6-35-28-55-50c-37-41-114-91-277-180c-122-67-183-120-224-197c-26-48-54-78-142-152
		c-130-108-191-179-236-275c-30-64-102-155-121-155c-5,0-17-36-27-80c-16-65-17-82-6-95c25-30,40-18,40,33c0,61,40,143,86,178
		c19,15,34,34,34,43s13,44,30,79c31,67,101,142,272,295c69,61,93,90,117,141c34,72,70,107,138,131c82,30,173,73,173,83
		c0,19,52,61,120,96c38,20,82,48,98,61c58,49,282,93,379,76c31-6,61-15,65-19c5-5-16-19-47-30c-49-19-62-20-102-10
		c-105,26-266-36-381-148c-77-76-73-74,64,18c109,74,191,109,251,107l38-1l-49-13c-51-14-126-61-133-82c-6-16,49,2,127,42
		c74,37,137,42,234,16c44-12,88-21,98-21c28,0,21,17-9,23c-16,3-37,13-48,21c-20,15-19,15,5,15c14,0,44-4,67-8c42-8,84,2,53,13
		c-8,3-30,7-49,8c-19,2-37,9-39,17c-4,11,10,13,72,9c86-6,83,2-14,33c-53,18-95,22-230,24C3279,7497,3194,7496,3180,7494z"/>
	<path d="M2930,7200c0-30-68-91-148-133c-39-20-72-42-72-47c0-16,65,15,156,73c62,39,84,59,89,79c7,29,0,48-16,48
		C2934,7220,2930,7211,2930,7200z"/>
	<path d="M2795,7170c-19-8-19-9,3-9c12-1,22,4,22,9c0,6-1,10-2,9C2816,7179,2806,7175,2795,7170z"/>
	<path d="M3084,7145c-10-26-115-88-242-144c-92-40-137-66-178-103c-30-28-52-54-49-58c9-14,45,2,68,30c27,34,108,80,202,115
		c140,53,235,118,235,161C3120,7165,3091,7164,3084,7145z"/>
	<path d="M3157,7063c-58-86-105-122-253-194c-248-120-404-260-499-448c-33-67-75-193-75-227c0-17,1-17,16-3c8,9,30,68,49,132
		c18,63,36,120,40,126c3,6,19,11,35,11c26,0,33,7,59,58c63,123,141,186,393,318c90,47,182,101,206,121c44,36,82,97,82,133
		C3210,7123,3192,7113,3157,7063z"/>
	<path d="M2623,7030c-79-52-142-108-169-151c-5-8-36-32-69-53c-112-73-207-190-235-286c-13-47,4-29,79,83c38,56,83,117,101,135
		c31,31,75,51,86,39c16-16-29-87-97-156c-58-58-86-96-118-161c-43-87-85-226-71-235c13-8,20,7,20,47c0,27,10,52,33,85
		c19,27,51,80,72,118c53,98,100,160,139,184c26,16,36,32,49,80c26,93,65,136,268,292c27,20,30,27,17,32
		C2718,7086,2679,7067,2623,7030z"/>
	<path d="M3189,6895c-33-18-105-115-85-115c25,0,78,45,103,88C3234,6913,3230,6918,3189,6895z"/>
	<path d="M2890,6699c-123-62-191-113-215-160c-23-43-18-42,25,5c24,26,83,67,152,105C3045,6755,3072,6793,2890,6699z"/>
	<path d="M4047,6503c-10-9-9-23,1-23c5,0,17,7,28,15c19,14,19,14-2,15C4063,6510,4050,6507,4047,6503z"/>
	<path d="M4221,6481c-57-37-139-117-196-191l-45-59l33-6c20-4,65,2,116,15c56,14,97,19,125,15c41-7,42-6,63,37c38,78,38,81-13,127
		c-37,33-45,47-41,66c2,14,4,25,3,24C4266,6509,4245,6496,4221,6481z M4259,6418c49-48,40-65-59-109c-112-48-140-55-140-32
		c0,14,143,167,161,172C4224,6449,4241,6436,4259,6418z"/>
	<path d="M2070,6413c-14-17-33-46-44-64c-23-42-33-22-11,21c20,38,15,48-10,20c-10-11-20-41-23-69c-4-40-1-52,17-70
		c26-26,41-20,41,17c0,15,14,56,30,91C2105,6433,2105,6456,2070,6413z"/>
	<path d="M3333,6273c-50-89-205-232-366-338c-31-21-56-40-53-42c2-2,29,8,61,22c73,32,77,32,34-4c-20-17-56-57-80-90
		c-24-34-52-64-63-67c-16-5-18-14-14-78c6-87,45-185,119-297c49-76,53-79,90-79c21,0,41,5,44,10c3,6-4,10-18,10c-30,0-66,28-90,69
		c-21,36-21,36,26,16c42-17,47-18,47-7c0,4-16,14-35,21c-43,15-91,62-112,110c-9,22-16,65-16,111c0,61,5,86,28,137
		c28,64,82,123,142,154c24,13,30,22,26,40c-3,20,3,28,41,48c94,49,175,142,205,234C3367,6307,3358,6318,3333,6273z"/>
	<path d="M4398,6278c-4-8-1-33,5-56c8-30,8-45,0-53c-7-7-12,2-17,34c-4,24-12,52-19,61c-10,14-11,3-6-58c3-42,9-79,12-83
		c4-3,7-1,7,5c0,17,50,15,56-2c3-8,1-31-5-52c-6-20-7-43-3-51c13-22,43,53,49,120c5,47,3,57-10,57c-9,0-17-10-19-22
		c-6-41-22-14-19,32C4431,6258,4409,6307,4398,6278z"/>
	<path d="M4392,6103c4-39,28-42,28-4c0,21-5,31-16,31S4390,6122,4392,6103z"/>
	<path d="M4487,6064c-19-38-25-60-18-71c7-14,12-11,26,17c24,46,34,85,26,99C4517,6115,4502,6096,4487,6064z"/>
	<path d="M3186,6019c-23-18-36-49-20-49c10,0,74,52,74,61C3240,6047,3214,6041,3186,6019z"/>
	<path d="M4612,6010c-18-4-42-16-53-26c-48-43-79-147-79-257c1-61,1-61,16-34c15,28,38,38,28,13c-3-8,3-19,14-25c17-9,19-16,12-44
		c-4-18-19-54-34-79c-14-24-26-55-26-68c0-45,29,0,56,87c17,56,35,94,55,114c16,16,29,32,29,35s-16,26-35,51c-22,29-35,57-35,76
		c0,45,22,108,39,115c69,23,85,33,71,42c-8,5-17,9-20,9C4647,6018,4630,6014,4612,6010z"/>
	<path d="M3168,5941c-54-18-96-52-172-141s-76-90-76-147c0-73,9-90,38-72c18,11,24,10,43-6c11-11,32-41,45-67l24-48h-27
		c-36,0-18-19,21-22c21-2,35-13,52-39c30-48,58-67,197-134c67-32,132-71,152-90c33-34,37-35,108-35h74l28,40c15,22,30,58,32,83
		c5,39,2,46-22,65c-38,30-45,28-34-10c15-54,11-95-14-123l-23-27l-94,38c-242,95-392,219-471,389l-28,60l32,110l32,110l66,23
		c99,33,137,30,181-15c60-61,80-126,56-178c-19-42-28-28-28,44c0,78,9,70-104,96l-69,15l-27-25c-60-58-67-185-15-290
		c28-58,130-173,142-161c3,3,0,12-6,20c-7,8-10,20-7,25c10,16,60-6,92-41c19-21,23-29,12-25c-34,12-17-13,35-51c28-22,63-45,75-52
		c44-22,33-3-18,34c-67,49-69,66-2,47c24-7,35-6,47,5c24,25,18,50-25,99c-22,25-40,50-40,56c0,15-28,10-38-8c-9-15-13-13-35,13
		c-25,28-25,29-46,10c-31-28-37-13-11,28c12,20,17,36,11,36c-10,0-45-48-55-75c-2-5-7-7-11-3c-9,9,35,86,64,112c11,10,34,19,50,18
		c37-1,52,30,59,119c4,56,1,73-17,106c-34,60-82,87-160,90C3225,5948,3183,5945,3168,5941z M3311,5740c3-41,4-79,1-84
		c-2-4-29-19-59-32c-34-15-57-32-60-44c-7-27-18-25-42,6c-23,29-29,101-11,135c15,27,25,24,50-18c19-33,23-35,37-21c8,9,17,38,20,64
		c6,69,10,76,35,72C3303,5815,3306,5808,3311,5740z M2996,5686c-8-43-13-53-23-44c-17,14-16,29,3,79C2998,5774,3009,5755,2996,5686z
		"/>
	<path d="M2866,5814c-11-28-6-39,9-20c8,11,15,23,15,28C2890,5836,2872,5831,2866,5814z"/>
	<path d="M4497,5633c-4-3-7-13-7-21c0-12,3-12,15-2c8,7,15,16,15,21C4520,5642,4506,5643,4497,5633z"/>
	<path d="M4497,5437c-14-29-31-74-38-100c-13-53-8-142,10-160c8-8,11,10,11,74c0,78,3,92,34,150c30,59,36,89,17,89
		C4527,5490,4512,5466,4497,5437z"/>
	<path d="M2986,5291c-3-5,0-11,7-14c6-3,29-12,50-21c40-18,51-5,15,18C3025,5294,2993,5302,2986,5291z"/>
	<path d="M2772,5211c38-77,41-80,96-100c68-25,296-91,300-86c10,9-129,65-221,90l-107,28l-26,56c-29,62-51,91-69,91
		C2737,5290,2748,5258,2772,5211z"/>
	<path d="M3214,5225c28-13,54-21,59-18c6,3-10,14-34,24C3175,5257,3157,5252,3214,5225z"/>
	<path d="M4690,5235c0-25,73-115,84-104c10,9-28,71-55,90C4703,5232,4690,5239,4690,5235z"/>
	<path d="M3250,5120c8-14,21-20,45-20c46,0,44,14-4,28C3240,5144,3238,5143,3250,5120z"/>
	<path d="M2855,5060c3-5,51-24,106-41c54-17,99-35,99-40s-18-9-39-9c-22,0-43-4-46-10c-4-6,15-10,49-10c48,0,71-8,181-65
		c70-36,139-65,153-64c23,0,20,3-18,18c-70,29-164,87-232,144c-50,41-68,51-94,48c-17-1-57,7-90,18C2859,5072,2846,5074,2855,5060z"
		/>
	<path d="M3275,4940c-7-11,36-30,63-29c13,0,12,2-4,9c-12,5-25,13-29,19C3297,4953,3283,4953,3275,4940z"/>
	<path d="M3048,4781c33-29,90-38,110-18c9,9,14,18,11,21c-2,2-35,6-74,10l-70,7L3048,4781z"/>
	<path d="M3360,4704c29-14,65-24,80-22c20,3,15,7-33,26C3326,4739,3290,4737,3360,4704z"/>
	<path d="M10375,7458c3-15,10-40,17-55c12-28,12-28,16-4c2,13,0,26-5,30c-5,3-14,17-21,31l-12,25L10375,7458z"/>
	<path d="M10500,7031c0-30,4-41,15-41c10,0,15,10,15,29c0,16-7,34-15,41C10502,7071,10500,7067,10500,7031z"/>
	<path d="M9370,7185c0-5,14-46,30-90c28-77,42-73,20,5C9410,7135,9370,7204,9370,7185z"/>
	<path d="M9386,6870c1-109,6-142,18-129c2,2,7,49,11,104c6,89,5,103-11,123C9385,6991,9385,6989,9386,6870z"/>
	<path d="M8660,6372c0-12,58-14,65-2c4,6-8,10-29,10C8676,6380,8660,6376,8660,6372z"/>
	<path d="M9897,6212c-20-64-21-72-8-72c11,0,34,82,29,108C9916,6263,9909,6251,9897,6212z"/>
	<path d="M8780,5215c-14-8-35-11-47-8c-29,7-30-11-1-31c28-20,38-20,38-2c0,7,10,20,23,29C8822,5223,8812,5232,8780,5215z"/>
	<path d="M8291,6955c22-37,39-45,39-19c0,27-20,54-40,54C8271,6990,8271,6989,8291,6955z"/>
	<path d="M8110,6821c0-21,5-31,15-31c8,0,15,8,15,19c0,10-7,24-15,31C8112,6851,8110,6848,8110,6821z"/>
	<path d="M8001,6433c-20-103-9-237,25-279c13-18,14-17,8,8c-3,16-3,36,1,45c5,13,11,4,24-35c22-63,26-68,44-51c10,10,13,33,10,89
		c-2,41-7,86-10,100c-5,23-6,24-13,5c-5-11-9-32-9-47c-1-16-6-28-12-28c-7,0-9,10-5,24c9,36-10,41-23,6c-18-53-31-34-30,43
		c0,39,4,94,8,120C8030,6501,8015,6501,8001,6433z"/>
	<path d="M8394,6315c4-11,19-54,33-95s27-77,30-80s2,22-2,55c-8,65-23,103-51,126C8388,6334,8387,6333,8394,6315z"/>
	<path d="M8130,6222c0-17,8-38,17-48c21-21,27-7,16,37C8151,6254,8130,6261,8130,6222z"/>
	<path d="M8215,6227c-14-11-16-21-11-50c7-40,16-43,65-26c23,8,31,17,31,34C8300,6231,8253,6254,8215,6227z"/>
	<path d="M8371,6193c6-16,14-79,16-141c5-97,8-111,21-100c30,26-4,268-39,268C8364,6220,8365,6208,8371,6193z"/>
	<path d="M8342,6126c1-10,8-17,13-17c15,1,12,24-3,29C8343,6141,8339,6136,8342,6126z"/>
	<path d="M8462,5980c-2-62,1-101,7-105c8-4,11,26,11,94c0,55-3,102-7,104C8468,6076,8464,6034,8462,5980z"/>
	<path d="M10067,6093c-20-14-35-28-33-30c6-7,61,24,75,41C10129,6128,10109,6123,10067,6093z"/>
	<path d="M9877,5739c-9-6-24-24-33-41l-16-30l25,18c25,19,51,53,45,59C9896,5747,9887,5744,9877,5739z"/>
	<path d="M9848,5597c-21-23-35-43-32-46c5-6,84,70,84,81C9900,5648,9884,5637,9848,5597z"/>
	<path d="M9813,5449c-24-27-43-57-43-66c0-19,0-19,59,50c39,46,50,68,34,66C9858,5499,9836,5476,9813,5449z"/>
	<path d="M650,6265c-8-9-8-15-2-15c12,0,26,19,19,26C665,6278,657,6274,650,6265z"/>
	<path d="M1406,6241c-5-7,3-11,21-11c30,0,107-43,132-74c16-20,64-46,82-46c21,0-47,63-103,97C1479,6242,1416,6258,1406,6241z"/>
	<path d="M828,6178c-66-47-124-122-158-205c-39-93-38-113,1-34c20,39,65,97,125,161c52,55,94,102,94,105C890,6217,871,6208,828,6178
		z"/>
	<path d="M1195,6190c-13-5,5-8,50-7c56,0,85-6,144-31c41-18,77-29,80-26c10,10-49,51-89,63C1337,6202,1225,6203,1195,6190z"/>
	<path d="M1020,6155c0-13,4-14,20-5c11,6,20,13,20,15c0,3-9,5-20,5S1020,6163,1020,6155z"/>
	<path d="M889,6112c-94-60-155-155-165-255l-5-52l20,55c27,69,74,141,146,218c31,34,55,62,53,62S914,6127,889,6112z"/>
	<path d="M934,6020c-25-10-38-36-23-46c11-6,59,33,59,48C970,6032,962,6031,934,6020z"/>
	<path d="M1770,5942c0-13,23-32,37-32c11,0,11,5,3,20C1800,5949,1770,5958,1770,5942z"/>
	<path d="M837,5883c-4-3-7-17-7-30c0-21,3-22,20-13c22,12,27,50,7,50C849,5890,840,5887,837,5883z"/>
	<path d="M1748,5760c5-47,32-79,32-37c0,31-16,77-28,77C1748,5800,1746,5782,1748,5760z"/>
	<path d="M622,5714c-2-88,23-205,57-271c24-47,82-115,123-145c28-19,25-14-20,45c-104,136-141,224-152,362l-7,90L622,5714z"/>
	<path d="M822,5748c-17-17-15-48,3-55c20-7,23-3,31,35C863,5762,846,5772,822,5748z"/>
	<path d="M683,5678c4-35,24-89,60-160c51-100,59-111,128-164c85-64,111-76,145-68c35,9,30,17-25,37c-27,9-73,35-101,58
		c-89,71-142,159-160,271c-9,56-21,77-44,78C681,5730,680,5706,683,5678z"/>
	<path d="M1656,5700c-7-50-14-170-10-170c2,0,13,15,24,33c24,38,27,124,6,152C1663,5734,1661,5733,1656,5700z"/>
	<path d="M840,5592c0-36,14-62,32-62c15,0,8,68-8,84C842,5637,840,5635,840,5592z"/>
	<path d="M919,5463c4-14,17-30,29-34c19-7,22-5,22,14c0,27-17,47-41,47C915,5490,913,5485,919,5463z"/>
	<path d="M1600,5475c0-9-11-35-24-58c-51-89-41-121,13-40c31,46,40,96,21,108C1605,5488,1600,5484,1600,5475z"/>
	<path d="M1340,5424c-44-32-49-44-16-44c31,0,68,34,60,55c-4,8-7,15-8,14C1376,5449,1359,5437,1340,5424z"/>
	<path d="M1020,5396c0-10,9-16,21-16c24,0,21,23-4,28C1027,5410,1020,5405,1020,5396z"/>
	<path d="M1391,5358c-33-41-93-66-193-80c-122-16-131-30-18-25c78,2,106,8,155,31c70,32,132,86,112,98
		C1427,5395,1416,5390,1391,5358z"/>
	<path d="M1142,5368c3-7,13-15,22-16c12-3,17,1,14,10c-3,7-13,15-22,16C1144,5381,1139,5377,1142,5368z"/>
	<path d="M1429,5260c-29-24-32-29-16-35c20-9,67,19,67,40C1480,5291,1464,5289,1429,5260z"/>
	<path d="M913,5225c129-70,352-85,423-29c17,13,16,13-11,2c-54-20-210-13-315,15C865,5252,861,5253,913,5225z"/>
	<path d="M6038,5488c-2-15-10-23-23-23s-21-8-23-22c-4-27,0-28,38-8c21,11,30,23,30,40C6060,5506,6042,5517,6038,5488z"/>
	<path d="M6141,5488c0-13,4-32,9-43c7-15,9-10,9,23c1,23-3,42-9,42C6145,5510,6140,5500,6141,5488z"/>
	<path d="M6192,5436c1-10,8-17,13-17c15,1,12,24-3,29C6193,5451,6189,5446,6192,5436z"/>
	<path d="M6272,5280c-7-11-8-20-2-20c5,0,14,9,20,20s7,20,3,20C6288,5300,6279,5291,6272,5280z"/>
	<path d="M6377,5241c-29-18-62-59-55-66c2-2,24,13,48,34C6418,5251,6422,5271,6377,5241z"/>
	<path d="M6421,5126c-19-20-21-26-9-26c19,0,41,25,36,40C6446,5146,6434,5140,6421,5126z"/>
	<path d="M6452,5084c-25-17-29-34-7-34c21,0,19-10-7-37c-29-31-16-40,20-13c33,24,43,48,35,80C6487,5104,6481,5105,6452,5084z"/>
	<path d="M6287,4900c-3-11-2-20,3-20c12,0,21,28,11,35C6296,4917,6290,4911,6287,4900z"/>
	<path d="M6489,4900c-18-15-20-19-8-20c9,0,24,9,34,20C6538,4926,6519,4926,6489,4900z"/>
	<path d="M6635,4799c-11-17,1-21,15-4c8,9,8,15,2,15S6638,4805,6635,4799z"/>
	<path d="M6670,4773c-12-16-31-33-43-40c-16-9-18-12-6-13c20,0,65,35,79,61C6716,4810,6695,4804,6670,4773z"/>
	<path d="M6850,4735c0-8-25-34-55-58c-63-48-75-78-19-45c57,34,105,83,98,102C6866,4754,6850,4755,6850,4735z"/>
	<path d="M6375,4694c-6-8-29-18-53-21c-23-3-45-10-49-16c-4-7,9-8,37-3c53,8,80,22,80,41S6387,4714,6375,4694z"/>
	<path d="M6365,4500c-8-12,20-24,35-15c5,3,10,10,10,16C6410,4513,6373,4513,6365,4500z"/>
	<path d="M7039,4241c-13-11-21-22-18-25c3-4,17,2,30,13s21,22,18,25C7066,4258,7052,4252,7039,4241z"/>
	<path d="M7020,4140c-24-19-24-20-4-20c12,0,25,7,28,16C7053,4160,7048,4161,7020,4140z"/>
	<path d="M6875,3875c-16-13-26-27-22-31c10-10,57,24,57,41C6910,3904,6911,3904,6875,3875z"/>
	<path d="M5629,4449c-43-47-68-49-119-9c-40,32-55,36-65,20c-18-29,100-80,186-80c65,0,79,18,53,69l-19,38L5629,4449z"/>
	<path d="M6097,4323c-10-10-8-113,2-113c12,0,21,26,21,63C6120,4308,6108,4334,6097,4323z"/>
	<path d="M5444,4135c-18-13-16-14,22-15c22,0,49,7,60,15c18,13,16,14-22,15C5482,4150,5455,4143,5444,4135z"/>
	<path d="M6182,4069c2-24,9-44,16-47c10-3,12,7,10,39c-2,24-9,44-16,47C6182,4111,6180,4101,6182,4069z"/>
	<path d="M5220,4011c0-5,12-19,26-30c27-21,88-29,98-13c3,5-8,9-23,9c-16,0-41,9-56,21C5235,4021,5220,4026,5220,4011z"/>
	<path d="M5375,3944c-10-8-33-14-49-15c-17,0-40-4-51-9c-16-7-14-9,15-9c41-1,107,16,115,29C5415,3956,5395,3959,5375,3944z"/>
	<path d="M5398,3893c-42-3-71-9-78-18c-21-25,111-21,141,5c13,10,20,19,14,18C5470,3897,5435,3895,5398,3893z"/>
	<path d="M6407,3588c8-67,14-83,24-67c13,20,11,73-3,87C6409,3627,6403,3622,6407,3588z"/>
	<path d="M5565,3406c-47-45-55-56-35-50c36,9,67,31,86,59C5649,3466,5622,3461,5565,3406z"/>
	<path d="M5485,3415c-44-38-39-43,15-17c19,9,36,25,38,35C5543,3458,5530,3454,5485,3415z"/>
	<path d="M6486,3233c-3-16-8-48-11-73c-9-63-75-196-125-253c-58-65-43-71,20-8c58,58,98,136,135,261c30,103,30,100,6,100
		C6498,3260,6490,3251,6486,3233z"/>
	<path d="M6333,3202c-7-4-23-41-37-81c-16-46-37-87-57-107c-22-23-30-38-25-50c6-14,15-6,47,42c41,60,83,136,99,180
		C6370,3211,6358,3218,6333,3202z"/>
	<path d="M6377,3148c-39-60-110-198-104-204c4-4,100,121,116,154c22,42,40,102,32,102C6416,3200,6396,3176,6377,3148z"/>
	<path d="M6531,3152c-24-85-29-112-21-112c13,0,41,74,42,113C6554,3207,6546,3206,6531,3152z"/>
	<path d="M5814,3166c-28-13-54-29-58-34c-11-19,86,15,108,38C5890,3196,5878,3195,5814,3166z"/>
	<path d="M5875,3120c-33-22-52-40-43-40c30,0,98,32,108,51C5962,3172,5950,3170,5875,3120z"/>
	<path d="M5990,3125c-12-20-35-42-51-50c-16-9-29-20-29-25c0-17,99,44,109,68C6044,3171,6021,3176,5990,3125z"/>
	<path d="M6424,3127c-28-42-114-210-110-214c11-11,78,85,105,151C6455,3149,6457,3177,6424,3127z"/>
	<path d="M6466,2978c-9-18-43-64-76-102c-59-68-69-86-51-86c29,0,164,200,148,217C6484,3009,6475,2997,6466,2978z"/>
	<path d="M1264,4849c-24-46-6-81,39-77c27,2,33,8,35,31c4,32-21,77-43,77C1287,4880,1273,4866,1264,4849z"/>
	<path d="M1434,4870c-27-11-24-38,6-71c14-15,33-37,42-50c17-23,17-22,18,54c0,74-1,77-22,76C1465,4879,1446,4875,1434,4870z"/>
	<path d="M1076,4838c-21-30-20-45,3-58c48-25,80,1,69,57C1143,4865,1095,4866,1076,4838z"/>
	<path d="M822,4721c-10-49-11-76-4-83c12-12,26,78,20,127C836,4786,831,4774,822,4721z"/>
	<path d="M8803,4068c-18-11-33-24-33-29c0-17,16-9,45,21C8848,4095,8847,4096,8803,4068z"/>
	<path d="M8671,3934c-34-42-71-95-83-117c-11-23-18-40-15-37c10,10,134,176,151,203C8758,4033,8732,4011,8671,3934z"/>
	<path d="M8744,3892c-106-133-116-172-14-56c60,69,101,135,83,133C8808,3969,8778,3934,8744,3892z"/>
	<path d="M8734,3737c-45-49-111-153-102-162c2-2,39,44,82,101c42,58,76,108,73,110C8785,3789,8761,3767,8734,3737z"/>
	<path d="M8572,3655c-23-36-46-65-53-65s-9-12-5-36c9-43-7-122-39-205c-17-41-20-57-10-49c8,7,22,10,30,6c11-4,15,2,15,22
		c0,30,29,99,60,142c25,35,25,44,1,30c-28-15-31-13-31,18c0,15,18,66,40,111c22,46,39,86,37,88C8614,3719,8594,3691,8572,3655z"/>
	<path d="M8682,3125c-19-41-14-53,8-20c22,32,25,45,12,45C8697,3150,8688,3139,8682,3125z"/>
	<path d="M8601,2942c-22-56-21-92,3-92c12,0,36,81,36,120S8623,2997,8601,2942z"/>
	<path d="M8567,2710c-9-33-17-66-17-75c0-25,15-17,18,10c1,14,9,39,17,55c16,32,19,56,7,64C8588,2766,8577,2742,8567,2710z"/>
	<path d="M8638,2695c-3-6-8-23-12-40c-4-16-10-39-13-50c-5-17-4-18,10-6c9,7,19,28,23,46C8652,2680,8648,2711,8638,2695z"/>
	<path d="M5070,3488c-25-45-39-161-25-215l7-28l16,31c10,17,29,46,45,66c46,59,31,95-16,38c-32-37-37-37-37-1c0,30,4,42,34,114
		C5116,3543,5099,3540,5070,3488z"/>
	<path d="M5093,3242c-31-45-42-82-25-82c12,0,72,94,72,113C5140,3301,5127,3293,5093,3242z"/>
	<path d="M5152,3222c-43-43-82-116-82-152c0-18,8-10,36,36c19,32,41,66,49,74c16,19,47,80,40,80C5192,3260,5173,3243,5152,3222z"/>
	<path d="M5376,3119c-36-81-66-219-49-219c22,1,31,20,35,75c2,35,15,83,30,116c16,35,23,62,17,70C5403,3171,5394,3158,5376,3119z"/>
	<path d="M5152,3125c-24-29-49-80-89-182c-3-7,2-13,11-13s16-8,16-17c0-36,84,66,115,140c23,55,1,45-42-20c-41-61-70-82-58-42
		c4,13,19,41,33,63c52,76,62,91,62,99C5200,3170,5180,3158,5152,3125z"/>
	<path d="M5432,3103c-26-72-56-176-76-270c-19-84-19-83-8-83c16,0,40,73,52,154c7,43,25,109,41,147c29,68,37,109,20,109
		C5456,3160,5443,3134,5432,3103z"/>
	<path d="M5534,2973c-9-38-21-76-26-85c-5-10-5-18,0-18c14,0,43,71,49,122c3,26,3,48,1,48C5555,3040,5544,3010,5534,2973z"/>
	<path d="M4962,2978c-7-18-8-36-3-41s12,8,15,28c4,20,6,39,4,41S4969,2995,4962,2978z"/>
	<path d="M5582,2940c-26-89-27-100-7-126c15-18,15-18,9,8c-3,15,1,51,11,81c9,29,15,67,13,83C5606,3009,5601,3001,5582,2940z"/>
	<path d="M5155,2923c-24-39-29-59-28-103c1-105,29-220,53-220c15,0,12,87-5,127c-14,33-14,38,5,68c23,38,25,55,6,55
		c-8,0-17-11-20-25c-4-14-11-23-16-20c-11,7,2,51,29,95c21,35,28,70,13,70C5188,2970,5172,2949,5155,2923z"/>
	<path d="M5430,2898c-6-24-28-94-50-155c-41-117-39-141,5-74c37,55,64,133,72,200C5464,2941,5446,2961,5430,2898z"/>
	<path d="M5620,2756c0-35,4-46,16-46s14,9,12,42C5644,2811,5620,2815,5620,2756z"/>
	<path d="M5410,2643c-16-44-19-62-11-80c17-36,27-27,40,34C5462,2711,5445,2737,5410,2643z"/>
	<path d="M5467,2536c-5-14,10-36,25-36c13,0,9,27-6,39C5476,2548,5471,2547,5467,2536z"/>
	<path d="M2770,4483c0-5,7-52,15-105c13-88,48-188,62-175c2,3,0,14-6,26c-6,11-16,64-21,117c-6,54-17,108-25,121
		C2779,4490,2770,4496,2770,4483z"/>
	<path d="M2867,4308c8-43,42-136,52-142c7-4,1,42-17,134c-4,22-14,36-24,38C2863,4341,2861,4336,2867,4308z"/>
	<path d="M2957,4266c-8-20,11-87,33-116c23-30,25-16,9,59C2988,4262,2966,4291,2957,4266z"/>
	<path d="M3042,4123c4-22,38-30,38-10c0,8-7,18-16,21C3041,4143,3038,4142,3042,4123z"/>
	<path d="M1465,4271c-7-12,12-24,25-16c11,7,4,25-10,25C1475,4280,1469,4276,1465,4271z"/>
	<path d="M1376,4213c-8-19,1-33,20-33c18,0,18,36,0,43C1388,4226,1379,4222,1376,4213z"/>
	<path d="M7157,3696c-43-48-76-86-73-86c4,0,31,16,61,36c57,38,99,92,93,119C7236,3776,7208,3752,7157,3696z"/>
	<path d="M7058,3685c-26-34-22-42,7-15c25,23,32,40,18,40C7078,3710,7067,3699,7058,3685z"/>
	<path d="M7181,3632c-29-29-50-56-47-59c7-7,116,85,116,97C7250,3692,7231,3681,7181,3632z"/>
	<path d="M7481,3446c-25-25-43-48-40-50c8-8,92,70,88,83C7526,3486,7506,3471,7481,3446z"/>
	<path d="M7211,3424c-12-8-19-19-16-24c6-10,55,9,55,21C7250,3437,7232,3439,7211,3424z"/>
	<path d="M7553,3422c-27-21-93-104-93-117c0-11,108,93,121,118C7593,3445,7581,3445,7553,3422z"/>
	<path d="M7586,3339c-38-44-32-56,9-18c19,19,35,37,35,41C7630,3379,7611,3369,7586,3339z"/>
	<path d="M7631,3286c-19-20-21-26-9-26c19,0,41,25,36,40C7656,3306,7644,3300,7631,3286z"/>
	<path d="M7808,3284c-29-15-54-51-43-62c3-3,22,11,42,31C7848,3294,7849,3305,7808,3284z"/>
	<path d="M7847,3225c-21-25-37-50-35-56c5-16,80,67,76,85C7886,3267,7875,3259,7847,3225z"/>
	<path d="M7878,3147c-16-16-28-34-28-40s14,2,31,20c17,17,30,35,28,39C7907,3171,7893,3162,7878,3147z"/>
	<path d="M7933,3093c-34-30-71-83-57-83c5,1,29,20,53,44C7979,3103,7983,3136,7933,3093z"/>
	<path d="M8068,3034c-52-63-48-78,7-24c25,24,45,50,45,57C8120,3089,8106,3080,8068,3034z"/>
	<path d="M8145,3010c-3-11-19-29-36-40c-38-28-38-45,0-25c32,16,61,51,61,72C8170,3037,8152,3032,8145,3010z"/>
	<path d="M8255,2960c3-5-12-29-35-53c-58-64-49-71,11-9c45,47,55,72,28,72C8253,2970,8252,2966,8255,2960z"/>
	<path d="M8260,2885c-13-14-20-28-17-32c8-7,57,35,57,49C8300,2917,8284,2910,8260,2885z"/>
	<path d="M8281,2805c-19-19-32-37-28-41c11-11,67,37,67,57C8320,2845,8321,2846,8281,2805z"/>
	<path d="M1164,3985c-24-18-7-19,26,0c16,9,19,14,9,15C1191,4000,1175,3993,1164,3985z"/>
	<path d="M4810,3218c0-9,5-20,11-23c17-11,20,0,4,21C4812,3233,4811,3233,4810,3218z"/>
	<path d="M9678,8342c-29-3-40-22-13-22c8,0,15-6,15-14c0-12-8-12-56,1c-31,8-70,13-87,11c-36-4-50-28-15-28c13,0,56-7,97-15
		c84-18,102-15,94,14c-6,24-6,24,33,12c55-18,84-21,84-11C9830,8316,9734,8349,9678,8342z"/>
	<path d="M9353,8273c-40-8-25-22,21-21c24,0,73-5,109-12c67-14,109-8,89,12C9551,8273,9421,8286,9353,8273z"/>
	<path d="M9239,8210c-16-13-18-18-7-14c10,3,49,1,87-6c110-18,157,6,53,28C9291,8235,9266,8233,9239,8210z"/>
	<path d="M9100,8159l-25-11l25-9c51-18,201-37,197-25C9285,8151,9151,8181,9100,8159z"/>
	<path d="M9010,8099c0-5,16-17,35-25c53-22,135-17,135,8c0,6-7,8-15,4c-8-3-36,1-62,9C9046,8112,9010,8114,9010,8099z"/>
	<path d="M8872,8043c-36-3-52-8-49-16c4-14,197-18,197-4c0,11-47,27-73,25C8935,8047,8901,8045,8872,8043z"/>
	<path d="M9297,8010c-7-29,14-82,47-115c28-28,18-33-20-9c-13,9-27,14-31,10c-13-12,30-44,87-65c47-17,69-33,102-73
		c24-28,61-71,82-95l40-44l12,23c20,35,17,45-14,51c-39,8-73,37-102,88l-24,44l39-31c74-58,116-72,69-23c-16,17-70,55-121,85
		c-91,54-123,83-123,115c0,9-8,27-18,40l-19,22L9297,8010z"/>
	<path d="M8745,7972c-86-32-127-67-67-57c15,2,61,9,102,16c156,23,188,47,74,55C8812,7989,8780,7985,8745,7972z"/>
	<path d="M9525,7953c17-8,56-38,88-65c61-53,71-52,34,3c-30,45-83,79-121,79l-31-1L9525,7953z"/>
	<path d="M9085,7899c-4-6-5-12-2-15c7-7,37,7,37,17C9120,7914,9093,7912,9085,7899z"/>
	<path d="M8914,7826c-17-70,30-180,100-235c40-32,93-51,136-50c18,0,11,5-26,20c-62,23-135,85-158,133c-9,19-16,56-16,84
		C8950,7837,8925,7870,8914,7826z"/>
	<path d="M8525,7764c-88-33-105-36-177-24c-38,7-71,10-74,8c-2-3,8-15,22-29c20-19,36-24,72-23c60,1,250,63,231,75
		S8572,7782,8525,7764z"/>
	<path d="M8182,7718c-7-7-12-26-12-44c0-25,6-34,29-43c29-13,108-18,117-8c14,14-11,27-51,27c-43,0-44,0-47,37
		C8215,7726,8202,7738,8182,7718z"/>
	<path d="M8821,7580c-1-80,81-160,164-160h40l-50,29c-55,32-114,90-138,136l-16,30V7580z"/>
	<path d="M8180,7547l-25-10l23-5c26-4,36,1,31,16C8206,7554,8195,7553,8180,7547z"/>
	<path d="M10848,4995c-56-20-107-54-63-42c11,3,38,11,60,16c48,13,69,25,64,38C10907,5012,10879,5006,10848,4995z"/>
	<path d="M10610,4807c-47-18-109-48-137-67c-58-38-73-61-20-30c17,10,79,37,136,60s114,48,125,56c20,14,20,14,1,14
		C10704,4839,10657,4825,10610,4807z"/>
	<path d="M11490,4415c-8-2-36-6-61-10c-26-3-55-13-65-21c-17-14-8-15,98-10c89,4,128,2,159-9c52-19,69-19,69-1
		C11690,4391,11544,4428,11490,4415z"/>
	<path d="M9870,4191c-58-41-180-164-180-182c0-12,88,62,190,158C9954,4238,9950,4247,9870,4191z"/>
	<path d="M2230,3828c-35-10-70-34-70-48c0-10,75,7,110,25C2331,3837,2307,3850,2230,3828z"/>
	<path d="M9777,3577c-15-34-72-123-127-196c-56-74-98-136-96-139c6-6,65,45,105,91c32,36,181,272,181,286c0,7-23,21-34,21
		C9805,3640,9792,3612,9777,3577z"/>
	<path d="M9416,3518c-77-129-241-482-266-570c-32-115-25-149,10-46c39,114,122,302,232,522c49,98,87,180,85,183
		C9474,3609,9447,3569,9416,3518z"/>
	<path d="M2310,3590c-123-15-208-48-254-99c-34-37-9-34,81,10c85,41,91,43,203,47c185,7,339-30,555-132c210-100,321-186,409-319
		c68-103,271-510,320-641s90-296,121-491c52-328,90-462,210-735c143-327,167-436,181-809c6-176,9-195,27-212c12-10,25-19,30-19
		c6,0,8,97,4,258c-8,347-16,383-172,737c-167,378-179,426-200,785c-15,249-39,413-70,484l-13,31l-1-40c0-22,6-65,14-95
		c17-63,20-140,5-140c-5,0-10,11-10,24c0,52-58,194-193,471c-77,160-159,321-181,359c-55,94-162,206-261,271
		c-112,75-395,211-486,234C2539,3592,2398,3601,2310,3590z"/>
	<path d="M9780,3429c-14-19-132-143-263-277c-130-134-265-280-298-323c-62-81-158-249-142-249c4,0,62,78,128,172
		c164,236,204,280,367,410c146,116,208,182,228,243C9817,3457,9807,3468,9780,3429z"/>
	<path d="M9523,3056c-209-216-338-385-402-531l-22-50l36,35c21,20,56,75,81,127c62,129,92,165,296,363c153,149,178,177,166,188
		C9665,3198,9641,3178,9523,3056z"/>
	<path d="M11626,3048c-3-24-10-93-16-153c-10-113-31-209-52-248c-12-21-12-21-18,8c-7,37-14,27-30-45c-39-167-145-380-382-767
		c-11-18-17-33-15-33c9,0,244,285,335,407c193,256,298,478,352,742c23,114,23,136,0,121c-10-6-16-35-21-92c-11-140-104-379-216-555
		c-36-58-152-213-159-213c-4,0,35,85,129,280c81,169,104,238,122,359c18,114,18,144,4,194C11646,3102,11634,3100,11626,3048z"/>
	<path d="M11437,2871c-9-16-17-44-17-63c0-39-33-201-56-273c-65-209-192-446-331-617c-65-81-97-132-91-149c7-20,200,254,290,410
		c121,209,223,489,244,667C11484,2909,11466,2920,11437,2871z"/>
	<path d="M6886,2848c-3-7-14-49-25-93c-12-44-30-114-41-155s-19-78-17-83c1-5,17,17,34,49c28,55,73,214,73,262
		C6910,2852,6892,2867,6886,2848z"/>
	<path d="M9382,2795c-55-70-151-214-193-289c-28-50-30-58-13-54c12,2,25,21,37,52c10,28,48,85,86,130c87,105,107,133,126,179
		C9446,2864,9433,2859,9382,2795z"/>
	<path d="M4250,2765c0-3,14-27,30-54c46-74,129-255,208-451c80-198,130-311,131-293c2,24-72,250-115,358c-55,134-199,415-221,433
		C4266,2770,4250,2774,4250,2765z"/>
	<path d="M4150,2748c0-10,29-60,65-113c36-52,79-130,96-173c30-76,71-142,89-142c11,0-51,154-103,254C4254,2657,4151,2779,4150,2748
		z"/>
	<path d="M10748,2617c-63-96-96-159-113-217c-15-49,21-2,109,140c77,123,101,180,79,180C10818,2720,10785,2674,10748,2617z"/>
	<path d="M6882,2525c-46-94-92-201-103-236c-27-85-36-227-17-253c14-17,16-11,22,60c8,99,33,190,87,319c53,127,101,264,97,274
		C6966,2693,6928,2620,6882,2525z"/>
	<path d="M11302,2633c-11-16-41-98-67-183c-25-85-55-175-66-199c-20-47-19-62,5-42c31,26,177,451,155,451
		C11325,2660,11313,2648,11302,2633z"/>
	<path d="M9340,2604c-47-51-83-123-78-157c2-17,14-4,49,58c55,96,81,145,76,145C9384,2650,9364,2629,9340,2604z"/>
	<path d="M10806,2519c-32-50-76-129-98-176c-39-83-88-251-88-301c0-23,2-25,15-11c8,8,18,42,21,74c11,111,100,305,196,426
		c35,44,44,79,21,79C10869,2610,10839,2569,10806,2519z"/>
	<path d="M4460,2555c0-3,15-36,34-73c42-84,89-215,162-447c55-174,123-360,130-352c7,6-66,276-110,408c-57,169-171,450-188,461
		C4473,2561,4460,2562,4460,2555z"/>
	<path d="M7181,2484c-1-44,8-152,19-240c22-177,25-300,9-357c-10-38-4-97,10-97c16,0,31,118,31,248c0,135-14,255-49,432l-19,95
		L7181,2484z"/>
	<path d="M6958,2457c-14-34-44-107-66-162c-45-110-74-267-53-288c8-8,11-3,11,19c0,41,20,111,72,249c43,113,75,231,66,241
		C6985,2518,6972,2492,6958,2457z"/>
	<path d="M7830,2463c0-71-27-199-76-358c-30-98-37-140-41-230l-4-110l25,28c25,27,26,33,25,140c-2,111-1,114,51,267
		c70,206,80,319,28,320C7833,2520,7830,2494,7830,2463z"/>
	<path d="M9013,2512c-25-16-44-102-23-102c6,0,10,9,10,20c0,12,7,35,16,51C9033,2514,9032,2523,9013,2512z"/>
	<path d="M4590,2487c0-4,16-53,35-110c19-56,59-185,89-287c55-186,95-304,101-298c5,4-29,175-49,248c-40,149-130,404-152,428
		C4601,2483,4590,2492,4590,2487z"/>
	<path d="M6775,2458c-12-32-22-108-14-108c14,0,39,57,39,90C6800,2470,6784,2481,6775,2458z"/>
	<path d="M10742,2191c-48-147-70-201-91-222c-19-18-25-32-20-41c17-26,8-60-41-153c-27-52-50-97-50-100c0-2,14,4,30,13
		c42,23,65,77,105,240c23,92,52,178,85,251c43,92,51,118,48,158C10805,2382,10801,2374,10742,2191z"/>
	<path d="M7316,2253c15-179,11-248-21-373c-34-136-41-268-14-295c15-15,16-8,22,77c3,51,16,156,28,233c35,226,28,465-12,465
		C7310,2360,7309,2333,7316,2253z"/>
	<path d="M8765,2280c-62-85-105-213-120-364c-6-52-5-67,4-61c20,12,31,52,41,147c8,82,14,99,69,203c34,62,61,116,61,119
		C8820,2342,8797,2324,8765,2280z"/>
	<path d="M9390,2320c0-5,8-14,19-19c22-12,81-132,107-216c14-47,18-94,19-210c0-82,4-157,10-165c14-22,23,50,24,191
		c1,177-38,309-117,392C9417,2328,9390,2341,9390,2320z"/>
	<path d="M10821,2258c-5-18-13-59-17-92c-4-36-14-66-25-77s-21-40-24-71c-14-113-78-242-224-446c-76-107-134-202-123-201
		c16,1,106,118,180,237c45,70,97,145,117,167l37,40l-43-80c-57-108-153-253-234-354c-76-94-183-206-190-199c-3,3,10,38,29,79
		s37,92,41,114l6,40l-19-24c-11-14-32-61-47-105c-36-105-52-136-70-136c-8,0-32-24-54-54c-47-63-67-80-56-46c5,14,3,20-3,16
		c-6-3-13-19-17-34c-15-71-91-156-262-293c-81-66-120-104-117-114c4-9-15-29-54-57c-58-41-92-78-73-78c5,0,31,18,57,40
		c27,22,59,40,71,40c18,0,23,6,23,25c0,18,9,29,33,41c51,27,310,288,410,414c27,34,27,34,17,6c-18-48-4-41,26,14c18,34,40,58,64,70
		c53,28,104,86,255,294c201,274,267,397,281,521c6,49,5,55-10,49c-22-8-21-2,14,111c30,96,39,175,21,175
		C10836,2290,10827,2275,10821,2258z M10790,1930c0-19-11-42-30-62c-36-40-39-23-8,48C10777,1972,10790,1976,10790,1930z"/>
	<path d="M8840,2250c-36-51-87-171-118-280c-40-140-66-260-57-268c15-15,35,34,35,85c0,63,43,187,126,362c30,63,54,118,54,122
		C8880,2289,8861,2279,8840,2250z"/>
	<path d="M4730,2265c0-3,8-22,19-43c35-68,82-216,126-392c24-96,49-188,56-205l13-30l4,36c5,60-34,222-105,436
		c-61,184-70,203-90,203C4740,2270,4730,2268,4730,2265z"/>
	<path d="M9327,2263c-3-5,9-23,28-41c52-51,95-162,115-297c8-54,8-51,6,40c-2,83-8,114-35,185c-31,84-36,90-97,116
		C9337,2269,9330,2268,9327,2263z"/>
	<path d="M9182,2198c24-48,32-78,34-125c3-68,8-83,29-83c10,0,12,14,8,63c-7,92-20,133-54,172C9152,2278,9146,2267,9182,2198z"/>
	<path d="M9246,2204c33-109,23-384-20-542c-14-53-14-53,11-65c28-13,29-9-17-141c-17-49-29-94-27-99c6-19,57,81,86,170
		c42,127,71,315,71,466c0,110-2,128-18,139c-10,7-33,34-50,60C9238,2256,9229,2259,9246,2204z M9328,2022c2-57-5-115-27-222
		c-33-154-34-132-6,105c9,77,15,157,12,179c-4,29-3,36,6,27C9320,2104,9326,2064,9328,2022z"/>
	<path d="M7870,2220c-6-11-24-80-40-153s-34-146-40-163c-6-16-14-87-17-159c-8-190-5-227,17-249c18-18,18-16,19,122
		c1,111,8,183,35,344C7894,2262,7895,2266,7870,2220z"/>
	<path d="M6950,2138c-14-41-50-222-44-227c9-9,34,36,49,84C6987,2107,6984,2230,6950,2138z"/>
	<path d="M8867,1985c-4-8-2-17,3-20c6-4,10-4,10-1c0,2,3,11,6,20s2,16-4,16C8877,2000,8870,1993,8867,1985z"/>
	<path d="M7886,1889c-33-145-48-275-47-415c0-149,14-235,50-314l21-45l-5,45c-4,25-10,77-16,115c-16,122-22,395-11,487
		c6,48,20,105,31,126c17,33,18,42,7,57C7904,1961,7901,1954,7886,1889z"/>
	<path d="M10270,1915c0-19-13-94-29-167s-32-160-35-193l-6-60l16,35c40,86,89,329,78,386C10286,1960,10270,1960,10270,1915z"/>
	<path d="M8812,1800c-35-107-42-143-41-202c1-40,3-64,6-53c2,11,21,74,40,140c31,104,55,245,41,245C8856,1930,8835,1872,8812,1800z"
		/>
	<path d="M7433,1834c-30-71-46-150-39-189c15-79,34-33,57,137C7465,1881,7459,1896,7433,1834z"/>
	<path d="M11043,1738c-66-68-113-132-113-155c0-9,21,13,46,48c26,35,67,88,91,117c25,28,43,52,41,52S11077,1772,11043,1738z"/>
	<path d="M8319,1723c-52-137-78-349-60-480c19-138,29-130,29,24c1,187,25,356,67,466c5,12,2,17-9,17C8337,1750,8325,1738,8319,1723z
		"/>
	<path d="M10312,1663c-12-49-53-182-92-297c-38-115-68-211-67-212c6-7,147,335,161,391c15,62,32,205,24,205
		C10335,1750,10323,1711,10312,1663z"/>
	<path d="M9951,1712c-22-15-111-143-111-159c0-12,42,31,102,105C9999,1727,10002,1748,9951,1712z"/>
	<path d="M9968,1633c-30-32-67-78-83-103c-39-61-156-320-145-320c13,0,47,51,71,106c21,50,46,84,60,84c23,0-90-203-191-346
		c-34-47-60-88-58-89c9-9,93,74,128,125c38,56,200,378,200,398c0,5-7,12-15,16c-23,9-18,24,25,73c44,50,84,113,71,113
		C10027,1690,9998,1664,9968,1633z"/>
	<path d="M7930,1620c-1-14-5-72-10-130c-10-125,1-233,30-291c24-46,37-48,18-3c-7,19-12,95-13,219c-1,123-5,197-13,210
		C7931,1644,7931,1644,7930,1620z"/>
	<path d="M4856,1588c10-74,24-115,44-140c19-23,19-23,20-2c0,12,6,27,14,33c11,10,9,17-15,41c-16,15-29,35-29,44c0,21-21,66-32,66
		C4854,1630,4853,1611,4856,1588z"/>
	<path d="M10753,1493c-129-221-145-261-49-123c64,91,121,193,130,233c4,15,5,27,3,27S10797,1568,10753,1493z"/>
	<path d="M10168,1441c-16-19-30-53-38-94c-9-48-22-78-50-116c-21-28-46-74-55-103c-14-42-35-71-104-141c-84-86-205-198-266-245
		c-48-37-7-14,80,46c114,79,200,156,248,223c25,36,44,54,48,48c9-15,17,0,69,132c51,125,101,271,96,276
		C10194,1469,10181,1457,10168,1441z"/>
	<path d="M11329,1273c-101-98-202-193-224-210c-44-33-163-107-327-202c-60-35-108-64-108-66c0-8,151,59,239,106
		c174,93,346,221,452,337c64,70,163,202,156,208C11514,1449,11429,1371,11329,1273z"/>
	<path d="M8117,1183c-11-11-8-55,8-107c8-27,15-64,15-83c0-24,4-33,16-33c15,0,16,11,10,100c-4,56-9,107-13,115
		C8148,1191,8128,1195,8117,1183z"/>
	<path d="M9195,1094c-33-151-109-321-218-486c-35-54-61-98-58-98c9,0,72,67,103,110c52,71,160,276,163,310c2,19,11,55,19,79
		c18,49,20,79,7,100C9203,1121,9200,1117,9195,1094z"/>
	<path d="M8001,1070c11-29,88-124,96-117c9,10-82,147-98,147C7995,1100,7996,1087,8001,1070z"/>
	<path d="M10254,1062c-6-4-27-32-47-62c-43-68-61-84-87-77c-16,4-25-3-41-35c-11-22-55-77-98-121c-72-76-108-123-99-132
		c2-2,74,64,159,148c104,102,168,173,194,215C10271,1059,10276,1076,10254,1062z"/>
	<path d="M9080,1015c0-17-9-56-20-88c-22-62-25-93-11-102c11-6,51,94,58,145c3,22-1,42-11,55C9081,1044,9081,1044,9080,1015z"/>
	<path d="M9290,1008c-5-13-11-39-15-59c-10-65-100-233-185-343c-45-60-79-110-77-113c11-11,145,130,180,188c45,77,89,190,110,282
		C9317,1027,9310,1055,9290,1008z"/>
	<path d="M9340,899c0-9-31-76-69-150c-47-90-86-152-120-188c-28-29-51-58-51-63c0-13,92,65,134,114c74,86,140,246,117,285
		C9343,912,9341,912,9340,899z"/>
	<path d="M8988,738c-8-18-32-53-52-77s-35-46-32-48c8-9,75,48,96,82c20,33,27,75,12,75C9007,770,8997,755,8988,738z"/>
	<path d="M8556,684c-11-28-6-101,7-112c10-9,16,1,26,49c6,33,9,64,6,69C8586,705,8563,702,8556,684z"/>
	<path d="M10905,620c-59-47-206-113-305-139c-39-10-78-25-88-34c-15-16-13-17,25-17c23,0,54-5,69-10c35-14,55-6,79,30
		c15,23,45,40,124,72c103,41,171,90,171,123C10980,669,10958,662,10905,620z"/>
</g>
</svg>
