<?xml version="1.0" encoding="utf-8"?>
<!-- Generator: Adobe Illustrator 17.0.0, SVG Export Plug-In . SVG Version: 6.00 Build 0)  -->
<!DOCTYPE svg PUBLIC "-//W3C//DTD SVG 1.1//EN" "http://www.w3.org/Graphics/SVG/1.1/DTD/svg11.dtd" [
	<!ENTITY ns_flows "http://ns.adobe.com/Flows/1.0/">
	<!ENTITY ns_extend "http://ns.adobe.com/Extensibility/1.0/">
	<!ENTITY ns_ai "http://ns.adobe.com/AdobeIllustrator/10.0/">
	<!ENTITY ns_graphs "http://ns.adobe.com/Graphs/1.0/">
]>
<svg version="1.1"
	 id="svg2" xmlns:x="&ns_extend;" xmlns:i="&ns_ai;" xmlns:graph="&ns_graphs;" xmlns:rdf="http://www.w3.org/1999/02/22-rdf-syntax-ns#" xmlns:cc="http://web.resource.org/cc/" xmlns:dc="http://purl.org/dc/elements/1.1/" xmlns:svg="http://www.w3.org/2000/svg"
	 xmlns="http://www.w3.org/2000/svg" xmlns:xlink="http://www.w3.org/1999/xlink" xmlns:a="http://ns.adobe.com/AdobeSVGViewerExtensions/3.0/"
	 x="0px" y="0px" width="256px" height="256px" viewBox="0 0 256 256" style="enable-background:new 0 0 256 256;"
	 xml:space="preserve">
<path id="path15" style="fill:none;stroke:#000000;stroke-miterlimit:10;" d="M102.9,57l-2.6,30.5l-8.4,18.6l-5.7,40.3L76,158.5
	l1.8,16.6l9.9,17.1L87,212l-16.3,7.2l0.4,11l18.3-2.2v8.8l-2.6,6.8l7.9,11.3l13.3,1.1l8.4-8.4l-5.7-12.2l2.2-17.1l15.2-8l4.6-8.8
	l14.8-0.4l1.5,30l7.3,15.2l7.6,9.5l19-0.4l3.8-13.3l-15.5-3.8l-1.6-7.2l17.1-2.2l1.1-10.2l-4.9-6.8l0.7-49.4l-12.2-18.6l-4.6-55.5
	l-9.1-8l1.5-24.7l17.1-9.9l-15.2-32.3l-15.3-4.2L129.5,0l-25.4,0.7L98,9.5L73.3,11l-4.9,16L79,44.9L102.9,57z"/>
<path id="path19" style="fill:none;stroke:#000000;stroke-miterlimit:10;" d="M117,8.1l10.2,11.2l-8.3-2.7l-5.5,1.5l-3.7-4.1
	l2.3-5.4L117,8.1z"/>
<path id="path21" style="fill:none;stroke:#000000;stroke-miterlimit:10;" d="M146.9,11.6l12.6,4.3l12.9,29.7l-33.7,17.8l-6.2-4.1
	l4.7-30.7C137.3,28.6,146.9,11.6,146.9,11.6z"/>
<path id="path23" style="fill:none;stroke:#000000;stroke-miterlimit:10;" d="M86.9,214.3L72.9,220l0.6,8.4l13.9-2
	C87.5,226.5,86.9,214.3,86.9,214.3z"/>
</svg>
