<?xml version="1.0" encoding="utf-8"?>
<!-- Generator: Adobe Illustrator 17.0.0, SVG Export Plug-In . SVG Version: 6.00 Build 0)  -->
<!DOCTYPE svg PUBLIC "-//W3C//DTD SVG 1.1//EN" "http://www.w3.org/Graphics/SVG/1.1/DTD/svg11.dtd" [
	<!ENTITY ns_flows "http://ns.adobe.com/Flows/1.0/">
	<!ENTITY ns_extend "http://ns.adobe.com/Extensibility/1.0/">
	<!ENTITY ns_ai "http://ns.adobe.com/AdobeIllustrator/10.0/">
	<!ENTITY ns_graphs "http://ns.adobe.com/Graphs/1.0/">
]>
<svg version="1.1"
	 id="svg2742" xmlns:x="&ns_extend;" xmlns:i="&ns_ai;" xmlns:graph="&ns_graphs;" xmlns:svg="http://www.w3.org/2000/svg"
	 xmlns="http://www.w3.org/2000/svg" xmlns:xlink="http://www.w3.org/1999/xlink" xmlns:a="http://ns.adobe.com/AdobeSVGViewerExtensions/3.0/"
	 x="0px" y="0px" width="256px" height="256px" viewBox="0 0 256 256" style="enable-background:new 0 0 256 256;"
	 xml:space="preserve">
<g id="Ebene_2_1_" transform="matrix(0.9759274,0,0,0.9759274,5.9999917,8.383883)">
	<path id="path2747" style="fill:none;stroke:#000000;stroke-width:4;stroke-miterlimit:10;" d="M106,250.9
		c-1.1-0.4-2.2-1.6-2.6-2.7c-0.8-2.1,2.7-7.2,6.7-9.9c2.5-1.6,3.3-2.7,4.2-5.7c1.2-3.6,1.8-13.2,1.1-16.7c-0.3-1.6-0.6-5.4-0.6-9.2
		c0-7.9-1.2-22.5-2.4-28.3c-0.5-2.4-1.2-6.4-1.7-9c-0.9-4.8-2.2-9-3.3-10.9c-3.2-5.3-6-8.7-9.9-12.5c-4.4-4.2-6.1-5.3-6.9-4.8
		c-1.6,1-2.1,7-1,9.9c0.6,1.5,0.6,1.8,0,3.1c-0.4,0.8-1,1.9-1.4,2.6c-2.1,3-2.6,3.7-4,5.5c-1.4,1.8-4.7,7-4.7,7.5
		c0,0.4-4.3,7.5-5.4,9c-0.6,0.7-1,1.5-1,1.7c0,0.2-0.3,0.8-0.8,1.2s-1.7,2.3-2.8,4.1c-1.1,1.8-2.8,4.3-3.7,5.6
		c-0.9,1.3-2.1,3.1-2.6,4.1c-0.5,0.9-1.6,2.6-2.6,3.7c-2,2.4-5,8-5.7,10.6c-0.3,1.1-0.4,2.5-0.2,3.2c0.5,2.5-0.8,4.5-3,4.5
		c-1.1,0-1.8,1.4-3.5,6.5c-0.8,2.4-1.7,4.4-2.5,5.3c-1,1.1-1.4,2.1-1.6,3.9c-0.2,1.4-0.5,2.9-0.7,3.5c-0.6,1.5-7.4,9.7-9.6,11.4
		c-2.6,2.1-4.8,2.2-7.9,0.3c-5.3-3.4-4.6-7.5,2.3-13.3c6.2-5.3,9.6-10.4,11-16.8c0.9-4,2.8-10.6,3.4-11.3c0.2-0.3,0.7-1.4,1.1-2.6
		c0.4-1.2,1.2-2.8,1.8-3.6c0.6-0.8,1-1.7,1-2c0-0.5,2.2-4.8,6.9-13.7c2.5-4.8,4.2-9,7.5-18.4c1.2-3.6,2.7-7.9,3.4-9.6
		c1.1-3,1.2-3.5,1-9.2c-0.2-6-0.2-6.1-2.2-11.1c-4.8-12.4-5.4-15.3-5.8-26.4l-0.3-7.5l-1.7-2.7c-0.9-1.5-2.5-3.8-3.6-5.1
		c-2.9-3.5-3.3-4.5-3-7.3c0.3-2.2,0.2-2.6-1.2-4.9c-0.8-1.4-1.5-2.7-1.5-2.9c0-1-5.6-4.3-8.5-4.9c-1.8-0.4-3.5,0.5-6.9,3.7
		c-1.5,1.4-4.2,3.4-5.9,4.5c-2.8,1.8-3.5,2-6.6,2.2c-4.2,0.3-5.3,0-5.4-2.1c-0.2-1.8,1-3.2,3.3-3.9c3.3-1,5.5-3.1,4.9-4.6
		c-0.1-0.3-1.9-0.5-5-0.4c-4.5,0-5.1-0.1-7.9-1.3c-5.3-2.3-10.2-7-10.1-9.8c0-0.7,0.5-2.1,1-3c1.1-1.8,7.9-8.9,11-11.4
		c1-0.8,2.1-2.1,2.5-2.8c1-1.9,1.8-7.2,1.4-9c-0.6-2.8,1.6-6,7.6-10.6c8.4-6.4,13.3-8.7,19.8-9.3c10.2-0.9,11.8-0.5,18.3,4.6
		c2.9,2.3,4.2,2.7,7.6,2.7c10.1,0,18.2,6.9,15.1,12.9c-0.3,0.7-0.8,2.1-0.9,3.1c-0.3,1.8-0.2,1.9,2.9,5.5c1.7,2,3.3,3.7,3.6,3.9
		c0.8,0.4,9.7,0.9,17.6,1c4,0,9.3,0.3,11.9,0.7c5.7,0.8,7.5,0.4,15.6-2.6c3.1-1.2,6.6-2.3,7.7-2.5c1.2-0.2,4.2-1.1,6.6-1.9
		c12.2-4,30.3-6.4,45.5-6.2c5.1,0.1,11.9,1.5,13.2,2.1c1.3,0.5,3.4,1.4,4.7,2c2.4,1.1,3.7,1.5,7.4,2.4c1.8,0.4,2.3,0.3,4.7-0.6
		c5.7-2.2,8.3-7.1,10.5-10.5c5.6-8.5,0-21.2-6.3-25.1c-3.5-2.1-8.9-2.8-11.8-1.4c-2.7,1.3-4.1,2.4-4.1,3.5c0,1.2,1.5,3,3,3.8
		c1.4,0.7,4.3,6.3,4.3,8.3c0,1.7-1.5,3.5-3,3.5c-2.4,0-10.6-4.9-13.1-7.8c-1.8-2.1-2.8-5.1-2.8-6.6c0-0.6,0.3-2.7,1.3-4.7
		c3.4-7.4,10.2-12,18.7-12.5c4.7-0.3,11.3,2.1,14.1,3.9c5.9,3.6,10.8,9.4,13.1,15c4.6,11.7-0.4,24.6-2.6,27.8
		c-0.6,0.9-5.4,8.6-9.7,13c-1.9,1.9-3.6,3.9-3.8,4.4c-0.4,1.3,0.8,3.4,3.7,6.8c2.9,3.3,3.7,5,5.4,11.7c1.8,6.9,0.9,17.5-3,37
		c-0.5,2.4-1.1,6.2-1.3,8.6c-0.3,2.4-0.6,5.3-0.9,6.6c-0.7,4.4-0.2,10.1,1.6,16.2c0.3,1.2,0.9,3.3,1.2,4.5c1.3,5,6.7,14.3,10.8,18.6
		c2.9,3.1,3.4,4.3,2.7,6.8c-0.8,2.7-1.5,35.7-0.9,39.4c0.5,3,0.3,5.9-0.4,7.3c-0.2,0.4-0.6,1.7-0.9,2.8c-0.3,1.4-1.1,2.7-2.4,4.1
		c-1,1.1-1.8,2.2-1.8,2.4c0,0.3-0.6,1-1.3,1.7c-1,0.9-1.7,1.2-3.1,1.2c-2.6,0-3.3-0.6-3.3-3.2c0-1.1-0.3-2.8-0.7-3.6
		c-0.6-1.5-0.6-1.9,0.6-7.5c4.7-20.9,3.9-29-4-45.7c-2.7-5.6-3.6-7-6.7-10.3c-1.1-1.2-2.7-3.2-3.5-4.5c-2.8-4.4-5-6.1-5-3.9
		c0,0.4,0.6,2.3,1.3,4.2c0.7,1.9,1.9,5.1,2.6,7.1c0.7,2,2.3,5.7,3.6,8.2c2.5,4.8,2.8,6.4,1.9,9.3c-1.2,4-2.2,10.6-2.6,15.9
		c-0.3,4.3-0.6,6.6-1.4,9c-0.6,1.8-1.3,4.7-1.5,6.4c-0.3,1.8-0.7,4-1.1,4.9c-0.3,0.9-0.6,2.7-0.6,3.8c0,2.6-1.3,5.2-3,6.1
		c-1.7,0.9-10.3,0.9-12,0c-1.9-1-2-1.9-0.7-6.3c0.8-2.8,0.8-2.8,4-4c2.2-0.8,2.4-1.1,3.8-3.6c1.4-2.7,1.5-2.8,1.7-10.1
		c0.3-7.5,0.2-8.1-2-20.1c-0.5-2.6-0.9-5.4-0.9-6.3c0-3-2.4-8.5-6.1-14.3c-3.6-5.6-7.2-13.5-8.7-19.3c-0.4-1.5-1-3.4-1.4-4.3
		c-0.4-0.9-1.8-4.7-3-8.3c-1.3-3.6-2.8-8-3.4-9.6c-1.5-4.2-1.7-8.4-0.6-11.4c0.5-1.3,0.9-2.7,0.9-3.3c0-1.4-1.5-2.5-2.8-2.1
		c-1.1,0.3-1.4,0.7-2.4,3.9c-0.8,2.5-2.4,4.5-3.6,4.5c-1.2,0-2.4-1.2-3.2-3c-0.7-1.8-3.3-3.5-5.1-3.5c-3,0-9.3,1.6-12.7,3.3
		c-3.5,1.7-5.7,3.6-8.9,7.7c-4.2,5.4-6,7.4-8.7,9.9c-3.1,2.8-11.1,8.7-11.7,8.7c-0.6,0-2.2,2-2.2,2.8c0,0.5,0.4,1.5,0.9,2.4
		c1.2,2.1,1.1,3.5-0.4,9.6l-1.3,5.1l0.4,17.1c0.6,22.8,1.1,30.5,2.6,37c1.1,4.6,1.1,5-0.5,8.1c-2,4.1-2.8,8.6-3.4,19.3
		c-0.4,7.4-0.8,8.3-3.3,9.1C120.2,250.9,107,251.3,106,250.9z M84.9,133.7c1.1-1.1,0.6-2.8-1.2-4.3c-1-0.8-3.1-2.6-4.8-4.1
		c-1.7-1.5-3.4-2.7-3.9-2.7c-2.4,0-3.3,3.5-1.5,5.4c0.5,0.6,1.1,1,1.3,1c0.4,0,1.5,0.7,5.2,3.5C82.3,134.3,84,134.6,84.9,133.7z"/>
</g>
</svg>
