<?xml version="1.0" encoding="utf-8"?>
<!-- Generator: Adobe Illustrator 17.0.0, SVG Export Plug-In . SVG Version: 6.00 Build 0)  -->
<!DOCTYPE svg PUBLIC "-//W3C//DTD SVG 1.1//EN" "http://www.w3.org/Graphics/SVG/1.1/DTD/svg11.dtd" [
	<!ENTITY ns_flows "http://ns.adobe.com/Flows/1.0/">
	<!ENTITY ns_extend "http://ns.adobe.com/Extensibility/1.0/">
	<!ENTITY ns_ai "http://ns.adobe.com/AdobeIllustrator/10.0/">
	<!ENTITY ns_graphs "http://ns.adobe.com/Graphs/1.0/">
]>
<svg version="1.1" id="Layer_1" xmlns:x="&ns_extend;" xmlns:i="&ns_ai;" xmlns:graph="&ns_graphs;"
	 xmlns="http://www.w3.org/2000/svg" xmlns:xlink="http://www.w3.org/1999/xlink" xmlns:a="http://ns.adobe.com/AdobeSVGViewerExtensions/3.0/"
	 x="0px" y="0px" width="256px" height="256px" viewBox="0 0 256 256" style="enable-background:new 0 0 256 256;"
	 xml:space="preserve">
<path style="fill:none;stroke:#000000;stroke-width:2;stroke-miterlimit:10;" d="M45.6,222h181.8v-18.9H64.7v-81.9l162.9-73.6V28
	L25.5,119.2v19.7l20.3-9.1V222H45.6z"/>
<path style="fill:none;stroke:#000000;stroke-width:2;stroke-miterlimit:10;" d="M138.9,157.7h28.6v25.5c0,4.1,3.3,7.7,7.7,7.7
	c4.1,0,7.5-3.3,7.5-7.7v-25.5c2.3,0,2.5-1.5,2.5-3.1v-19.1L161.3,124h-51l-6.6-3.7c-2.1-1.2-4.8-0.4-6,1.7c-1.2,2.1-0.4,4.8,1.7,6
	l10.4,6v49.7c0,4.1,3.3,7.7,7.7,7.7c4.1,0,7.5-3.3,7.5-7.7v-19.9l13.7,23.2c2.3,3.5,6.8,4.8,10.4,2.7c3.5-2.3,4.8-6.8,2.7-10.4
	C151.7,179.3,138.9,157.7,138.9,157.7z"/>
<path style="fill:none;stroke:#000000;stroke-width:2;stroke-miterlimit:10;" d="M163.5,118.6l21.6,10.4v-4.1h17.4l6.4-13.9
	l-45.4-21.6V118.6z"/>
</svg>
