<?xml version="1.0" encoding="utf-8"?>
<!-- Generator: Adobe Illustrator 17.0.0, SVG Export Plug-In . SVG Version: 6.00 Build 0)  -->
<!DOCTYPE svg PUBLIC "-//W3C//DTD SVG 1.1//EN" "http://www.w3.org/Graphics/SVG/1.1/DTD/svg11.dtd" [
	<!ENTITY ns_flows "http://ns.adobe.com/Flows/1.0/">
	<!ENTITY ns_extend "http://ns.adobe.com/Extensibility/1.0/">
	<!ENTITY ns_ai "http://ns.adobe.com/AdobeIllustrator/10.0/">
	<!ENTITY ns_graphs "http://ns.adobe.com/Graphs/1.0/">
]>
<svg version="1.1" id="Layer_1" xmlns:x="&ns_extend;" xmlns:i="&ns_ai;" xmlns:graph="&ns_graphs;"
	 xmlns="http://www.w3.org/2000/svg" xmlns:xlink="http://www.w3.org/1999/xlink" xmlns:a="http://ns.adobe.com/AdobeSVGViewerExtensions/3.0/"
	 x="0px" y="0px" width="256px" height="256px" viewBox="0 0 256 256" style="enable-background:new 0 0 256 256;"
	 xml:space="preserve">
<path style="fill:none;stroke:#000000;stroke-width:4;stroke-miterlimit:10;" d="M206.4,194c1,0,2,0.1,3,0.2
	c2.4,0.4,3.3,1.4,3.5,3.9c0.3,3.3,0,6.5-0.3,9.8c-0.2,2.1-0.4,4.2,0.2,6.4c0.7,2.4-0.6,5.3-2.7,6.6c-0.4,0.3-0.9,0.6-1.3,0.8
	c-0.7,0.4-1.3,1.1-1.4,2c0,0.4,0.1,0.8,0.5,1c0.2,0.1,0.4,0.1,0.5,0.1c3.3,0,6.5,0,9.8,0h1.3c0.8,0,1.4-0.6,1.4-1.4v-0.1
	c0-0.3-0.1-0.7-0.3-0.9c-0.4-0.5-0.5-1.1-0.2-2c0.7-2.2,0.6-4.5,0.5-6.7c-0.1-4.6,0.4-9.2,0.8-13.8c0.1-0.9,0.1-1.8,0.4-2.6
	c0.1-0.3,0.2-0.6,0.6-0.5c0.8,0.2,1.5,0,2.2-0.1c1.3-0.1,1.5,0.1,1.4,1.4c0,0.3,0,0.6-0.1,0.8c-0.3,6.2-0.2,12.3-0.2,18.5
	c0,1.5,0.3,2.9,0.5,4.4c0,0.2,0.1,0.5,0.1,0.8c0,0.3-0.2,0.6-0.2,0.8c0,0.3,0,0.6,0.2,0.9c0.3,0.4,0.8,0.6,1.3,0.6
	c2.1,0,4.2-0.1,6.3-0.1c0.8,0,1.4,0.3,1.5-0.7c0.1-0.9,0.1-1.9,0-2.8c0-0.3,0-0.6-0.2-0.9c-0.2-0.5-0.8-0.5-1.1-1
	c-0.2-0.4,0-0.9,0-1.2c0.4-3.6,0.8-7.2,1.1-10.9c0.3-3.2,0.5-6.4,0.7-9.5c0-0.5,0.2-0.6,0.6-0.6c2.7-0.1,5.4-0.5,8.1-0.2
	c0.3,0,0.5-0.1,0.4-0.3c-0.1-1.3,0.3-2.6,0-3.9c-1.9-7.7-4-15.4-6.2-23.1c-1.1-3.8-1.4-7.4-0.3-11.2c0.6-2.2,1-4.6,1.3-6.9
	c0.6-4.6,0-9.2-0.6-13.7c-0.2-1.5-0.6-3,0.4-4.3c0.2-0.3,0.2-0.7,0-1c-0.4-1.1-0.9-2.1-1.5-3.1c-2.1-4.1-3.8-8.3-4.7-12.9
	c-0.7-3.6-1.6-7.2-2.4-10.7c-0.6-2.5-1.2-5-3.1-6.9c-2.1-2.1-4.4-3.1-7.3-2.4c-3,0.8-5.7,2.1-6.6,5.3c-0.9,3.2-1.4,6.6-1.5,9.9
	c0,0.8,0.1,1.7,0.7,2.3c1.1,1.1,1.4,2.5,1.6,3.9c0.2,2-0.5,2.7-2,2.8c-0.3,0-0.6,0.1-0.9,0.2c-2,0.2-3.7,1-5,2.5
	c-1.3,1.4-2.5,2.9-3.7,4.4c-0.7,0.9-0.8,1.9-0.4,3c0.3,0.8,0.5,1.6,0.7,2.5c0.1,0.5,0.1,1.1-0.1,1.6c-0.6,1.3-1.3,2.5-2.2,3.6
	c-0.8,1-1.8,1.1-2.9,0.7c-1.1-0.4-2-0.9-2.2-2.3c-0.1-1.1-0.2-2.3-0.2-3.4c0-6.2,0-12.4,0-18.7c0-2.7-0.2-5.5-0.7-8.2
	c-0.7-3.4-1.9-6.6-2.8-10c-0.7-2.4-0.6-2.4,1.4-3.8c1.2-0.8,1.4-1.2,1-2.6c-2-6.9-4.8-13.5-7.6-20c-1.4-3.3-3.6-5.6-6.8-7
	c-0.8-0.4-1.6-0.8-2.4-1.1c-2-0.7-3.9-1.4-5.8-2.2c-1.5-0.7-2.9-1.5-4.1-2.7c-1.8-2-1.5-3-0.1-4.4c0.9-0.9,1.3-2,1.3-3.3
	c-0.1-1-0.4-1.9-0.4-2.8c-0.3-3.6-0.7-7.2-1.3-10.8c-0.2-1.4-0.8-2.6-2.2-3.3c-2.6-1.4-5.3-2.6-8.2-3.2c-2.4-0.5-4.7-0.6-6.8,0.9
	c-1.5,1.1-3.1,1.7-4.8,2.1c-1.5,0.4-2.6,1.3-2.9,2.9c-0.1,0.8-0.2,1.6-0.2,2.5c0,0.2-0.2,0.6,0.1,0.7c0.4,0.1,0.3-0.3,0.5-0.5
	c0.1-0.1,0.1-0.1,0.2-0.2c0,0.1,0.1,0.2,0.1,0.2c0.1,2.3,0.8,4.5,1.1,6.8c0.1,1,0,1.7-0.8,2.3c-0.7,0.5-0.8,1.4-0.3,2.1
	c0.9,1.1,1.9,2.2,2,3.8c0,0.2,0.1,0.3,0.2,0.5c0.7,0.7,0.8,1.5,0.6,2.5c-0.2,1.1,0.2,1.5,1.3,1.5c0.2,0,0.5,0,0.7,0
	c0.4,0,0.5,0.1,0.6,0.5c0.2,1.4-0.4,2.6-1.7,3.1c-2.2,0.8-4.4,1.7-6.6,2.5c-2.6,0.9-4.2,2.7-5.3,5.1c-2.7,5.9-4.7,12-6.3,18.3
	c-0.6,2.1-1,4.3,0.8,6.2c0,0,0,0.1,0.1,0.1c0.2,0.3,0.2,0.6-0.2,0.6c-1,0-1.1,0.6-1.3,1.4c-1.7,7.1-3.2,14.3-4.7,21.5
	c-0.2,1.1-0.5,2.3-0.7,3.4c-0.1,0.4-0.3,0.8-0.7,0.9c-0.3,0.1-0.5-0.4-0.6-0.6c-1-1.5-1.9-3.1-2.4-4.9c-2.5-9-5.2-17.8-8.2-26.6
	c-1.5-4.1-2.8-8.3-4.7-12.2c-0.7-1.4-1.7-2.4-3.1-3.1c-1.6-0.8-3.3-1.4-5.1-1.8c-0.6-0.1-0.9-0.4-1.2-0.8c-0.6-0.8-0.7-1.6-0.4-2.5
	c0.6-2,0.7-3.9,0.2-5.9c-0.3-1.4-0.6-2.8-0.8-4.2c-0.7-4.3-1.9-8.3-3.7-12.3c-1.4-3.1-3.6-5.4-7.2-6c-0.6-0.1-1.2-0.1-1.7-0.3
	c-1.4-0.4-2.6-0.1-3.8,0.7c-1.6,1.1-3.2,2.2-4.6,3.6c-1.4,1.3-2.2,2.9-2.2,4.8c-0.1,4.5-0.4,8.9-0.2,13.4c0.1,1.6,0.2,3.3,0.2,4.9
	c-0.1,3.1-1.1,4.5-4,5.6c-1.3,0.5-2.8,0.7-4.1,1.2c-3,1-5.1,2.8-5.5,6.2c-0.4,2.9-0.8,5.9-1.1,8.8c-0.5,4.4-0.9,8.7-1.1,13.1
	c-0.4,5.6-0.4,11.1-0.5,16.7c0,2.4-0.3,4.8-0.7,7.2c-0.7,3.8-0.9,7.6-0.7,11.5c0.1,1.1,0.4,2.1,1.4,2.9c1.5,1.2,1.6,1.5,0.9,3.3
	c-0.5,1.2-0.7,2.5-0.6,3.8c0.1,1,0,2-0.5,2.8c-1.1,1.7-2.4,3.2-4.1,4.2c-1.1,0.7-2.3,0.7-3.4-0.1c-0.4-0.3-0.8-0.5-1.1-0.9
	c-1.7-1.9-3.9-2.7-6.4-2.7c-1.7,0-2.8-0.9-3.6-2.4c-0.9-1.7-0.4-3.1,1.4-3.8c1-0.4,1.5-1.1,1.7-2.1c0.5-2.8,0.7-5.6,0.6-8.5
	c-0.1-1.3-0.5-2.5-1.5-3.4c-2.2-2.3-4.6-4-7.7-4.8c-1.6-0.5-2.9,0-4.2,0.6c-0.2,0.1-0.4,0.2-0.5,0.3c-2,1.4-3.8,3.1-5.5,4.8
	c-1.2,1.2-1.7,2.7-1.6,4.4c0,0.9,0.2,1.8,0.5,2.6c0.8,3.5,1.8,6.9,5.5,8.6c0,0,0.1,0,0.1,0.1c0.7,0.6,1,1.5,0.8,2.4
	c-0.1,0.8-0.9,0.7-1.5,0.9c-0.1,0-0.2,0-0.3,0.1c-1.4,0.2-2.7,0.6-3.7,1.6c-0.5,0.5-1.2,0.7-2,0.8c-1.3,0.2-2,1-2.5,2.2
	c-1.3,3.2-2.7,6.5-4.3,9.5c-0.5,0.9-0.8,1.9-1.3,2.9c-0.4,0.9-0.3,1.9,0.1,2.8c1,1.9,2.2,3.5,3.9,4.9c1.3,1.1,2.6,1.7,4.3,1.4
	c1.1-0.2,1.3,0.1,1.4,1.2c0,0.7,0,1.3,0,2c0,3.4,0,6.8-0.2,10.2c-0.4,6.7,0.9,13.3,1.5,19.9c0.2,1.9,0.3,3.8-0.6,5.5
	c-0.9,1.8-0.9,3.7-0.6,5.6c0.3,2.1,1.1,4,1.6,5.9c0.6,2.4,1.4,4.7,1,7.3c-0.1,0.5,0.1,0.9,0.2,1.3H48c0.6,0,1.5,0.3,1.6-0.6
	c0-0.2,0-0.4,0-0.6c-0.2-0.8-0.3-1.2-0.8-1.8c-0.9-1-2-2-3.5-2.1c-2.6-0.1-4.8-3.3-3.9-5.7c0.2-0.5,0.5-0.9,1-1.1
	c0.5-0.1,0.9-0.3,1.3-0.5c0.9-0.3,1.3-0.9,1.3-1.9c0.5-12.2,0.5-24.4,0.6-36.7c0.1-5.9,0.2-11.9,0.4-17.8c0-1.5,0.3-1.7,1.7-2.2
	c4.7-1.9,9-4.3,11.9-8.7c0.5-0.8,1.1-1.5,1.6-2.2c0.4-0.5,0.8-0.7,1.4-0.7c1.6,0,2.1,0.5,1.9,2c-0.4,2.9-1.3,5.7-2,8.6
	c-0.4,2-0.8,4-0.9,6c0,0.6-0.1,1.2-0.5,1.7c-1.2,1.6-1.2,3.4-1.1,5.2c0.1,2.4,0.1,2.4,3.1,2.5c2.3,0.1,5.3,0.3,8.2,0.5
	c0.5,0,0.9,0,1.4,0c1,0,1.2,0.2,1.1,1.2c-0.2,1.9-0.5,3.8-0.8,5.7c-0.5,3.5-0.3,6.9,0.1,10.4c0.4,3.2,0.7,6.4,0.9,9.6
	c0.3,4.6,0.7,9.1,1.6,13.6c0.6,3.2,0.5,6.1-1.4,8.8c-1.2,1.6-1.3,3.7-1.3,5.6c0,0.6,0.5,1.1,1.1,1.1c2.4,0,4.8,0,7.2,0
	c2.3,0,4.5,0,6.8,0c0.4,0,0.8,0,1.2,0h10.9c1.2,0,1.9,0.1,2.2-1.2c0.2-0.8,0.1-1.6-0.2-2.3c-0.5-0.9-1.3-0.6-2-1.1
	c-0.6-0.4-1-1-1.2-1.7c-0.8-2.3-1-4.7-0.5-7.1c1.4-7.6,3.2-15.2,4.8-22.8c1.1-5.3,1.2-10.6,0.4-16c-0.2-1.3-0.3-2.5-0.6-3.8
	c-0.2-0.7,0.1-0.9,0.7-1c2.1-0.4,4.2-0.7,6.3-1.1c2.1-0.4,4.3-0.8,6.4-1.6c1.5-0.6,2.1-1.3,2-2.9c-0.1-3.1-0.8-6.1-1.8-9
	c-3.8-12-7.7-23.9-11.7-35.8c-0.8-2.3-1.2-4.6-0.7-7c0.3-1.2-0.2-2.5-0.6-3.6c-1.5-4.4-2.8-8.9-3.5-13.5c-0.6-3.7-0.9-7.4,0.3-11.1
	c0.1-0.2-0.1-0.6,0.2-0.6c0.2,0,0.2,0.3,0.2,0.5c1.4,4.4,2.8,8.8,4.3,13.2c1.2,3.8,2.5,7.5,3.9,11.3c0.7,1.8,1.6,3.4,3,4.6
	c2.4,2.2,4,4.9,5.1,8c0.7,1.8,1.4,3.6,2.5,5.2c1.1,1.7,1.2,3.6,1.4,5.5c0.2,1.9,1.6,2.7,3.4,2c1.2-0.5,2.3-1.1,3.2-2.1
	c0.6-0.7,1.4-1.2,2.2-1.7c1.1-0.8,1.3-1.2,0.9-2.5c-0.1-0.4-0.2-0.9-0.3-1.3c-0.1-1.6-0.6-3.1-1.7-4.4c-0.8-0.9-0.9-2.1-1-3.2
	c-0.2-2.3,0-4.7,1.5-6.6c4.5-5.5,6.6-12.1,8.6-18.7c0.8-2.6,1.7-5.2,2.5-7.8c0.2-0.6,0.3-1.1,0.8-1.5c0.2-0.1,0.4-0.4,0.6-0.3
	c0.4,0.1,0.1,0.5,0.2,0.7c0,0.1,0,0.3,0,0.2c-0.1,1.2,0.3,2,0.4,2.9c0.4,2.9,0.1,5.8-0.1,8.7c-0.3,3.4-0.1,6.8,0.4,10.2
	c0.6,4.4,1.3,8.8,1.5,13.3c0.1,3-0.4,5.9-1,8.8c-1.1,5.1-0.8,10.1,0.1,15.1c0.9,4.9,1.5,9.8,1.8,14.8c0.3,4.6,0.6,9.3,0.9,13.9
	c0.3,4.7,0.6,9.5,0.9,14.2c0.2,3,0.4,6,0.6,9c0.1,0.8,0.8,1.4,0.9,2.3c0.2,1.4,0.5,2.8,0.8,4.1c0.2,0.9-0.2,1.4-1,1.7
	c-0.4,0.1-0.7,0.3-1.1,0.4c-0.8,0.4-1.2,1-1.1,1.9c0,0.3,0,0.6,0.1,0.9c0.4,1,0.6,2-0.2,2.7c-0.4,0.4-1,1.1-1.2,1.6
	c-0.3,0.8-0.6,1.7-0.9,2.5c-0.5,1.2-1.4,2-2.7,2.1c-2.3,0.2-4.1,2.2-4.2,4.5c-0.1,2,1.9,3.6,3.8,3.6h15.4c1.4,0,2.5-1.1,2.5-2.5
	v-2.5c0-0.6-0.2-1.2-0.6-1.7c-0.2-0.3-0.1-0.7,0.1-1.3c0.4-1.1,1-2,1.5-3c0.9-1.7,1.4-3.4,1.4-5.4c0-9-0.4-17.9-0.5-26.9
	c0-2.1,0-4.2,0-6.3c0-1.9,0.5-3.6,1.4-5.2c1.6-2.7,2.2-5.7,2.2-8.9c0-4.7-0.1-9.4-0.4-14.1c0-0.8,1-1.8,1.8-1.7
	c0.3,0,0.3,0.2,0.4,0.4c2.5,7.6,5,15.1,7.5,22.7c0.7,2.2,1.4,4.5,2.1,6.6c1.3,3.7,1.2,7.3,0.2,11c-1.1,4.5-1.1,9-0.6,13.6
	c0.3,2.8,0.5,5.5,0.2,8.3c-0.2,1.8,0.2,3.5,1.2,5c0.6,0.9,1.1,1.7,1.6,2.6c0.4,0.6,0.1,1.1-0.1,1.7c-0.1,0.7-0.2,1.4-0.3,2
	c-0.1,2,0.2,5.1,2.8,5.1h10.6c1.5,0,2.7-1.2,2.7-2.7c0-1.2,0.1-2.4-0.1-3.5c-0.2-1.4-1-2.2-1.5-3.4c-0.4-0.9-0.7-1.9-0.9-2.8
	c-0.2-0.8-0.6-1.6-1.3-2.1c-0.7-0.5-0.9-1.1-0.7-1.9c0.4-2.5,0.7-5.1,0.7-7.7c-0.2-6.5-0.4-13-0.8-19.6c-0.2-4.1-0.4-8.3-0.7-12.4
	c-0.3-4.6-0.7-9.1-1.1-13.6c-0.4-4-0.7-7.9-1.1-11.9c-0.2-1.8-0.3-3.6-0.5-5.4c-0.2-2.1,0-4.2,0.2-6.4c0.1-0.6,1.1-1.5,1.7-1.6
	c0.3,0,0.5,0.1,0.6,0.3c0.3,0.4,0.6,0.8,0.8,1.3c0.7,1.8,2.3,2.3,3.9,2.6c0.1,0,0.3,0.1,0.4,0c0.9-0.8,1.3,0,1.9,0.5
	c2.6,2.3,5.7,2.9,8.5,1.1c0.8-0.5,1.3-1.2,1.8-2c0.9-1.5,1.7-3,2.6-4.5c0.7-1.2,1-1.2,1.7,0.1c0.9,1.6,0.9,3.3,1,5
	c0.2,4-0.6,7.9-1.3,11.8c-1.5,8.2-4.2,16.2-6.8,24.1c-0.6,1.8-0.8,3.6-0.8,5.4c0,2.1-0.3,4-1.2,5.9c-0.5,1.1-0.6,2.2-0.4,3.4
	c0.2,1.1,0.7,1.5,1.7,1.5C203.6,194.1,205,194.1,206.4,194L206.4,194z M232.5,142.1c0,0,0-0.1,0-0.1c0.2-0.7,0.6-1.5,1.3-1.6
	c0.4,0,0.4,1,0.5,1.6c0.2,1.2,0.1,2.5,0.1,3.7c-0.1,1.2-0.1,2.5-0.2,3.7c0,0.1-0.1,0.2-0.1,0.4c-0.1-0.1-0.1-0.1-0.2-0.2
	C232.5,147.3,231.5,144.9,232.5,142.1L232.5,142.1z M34.7,230.1c-0.1,0.6-0.3,0.8-0.9,0.7c-1-0.2-1.9-0.6-2.3-1.6
	c-0.4-1-0.1-1.8,0.6-2.5c0.5-0.5,0.9-0.9,1.4-1.4c0.2-0.2,0.3-0.5,0.7-0.4c0.4,0.1,0.4,0.5,0.4,0.8c0.2,0.8,0.1,1.6,0.1,2.5
	C34.6,228.8,34.8,229.4,34.7,230.1L34.7,230.1z M67.7,119.1c-1.2,2.6-1.1,5.4-0.7,8.2c0.4,2.6,0.2,5.3-0.1,7.9
	c-0.2,2.3-0.5,4.6-1,6.9c-0.2,1.1-0.5,1.2-1.5,0.5c-0.5-0.4-0.8-0.9-1-1.5c-1.1-2.8-1.3-5.7-0.9-8.7c0.9-6.2,1.7-12.3,2.6-18.5
	c0.7-4.7,1.2-9.4,2.1-14c0.1-0.4,0-1,0.5-1c0.5,0,0.8,0.4,1,0.9c0.4,1.2,0.7,2.5,0.8,3.8c0.1,1.5,0,2.9,0,4.4
	C69.6,111.9,69.4,115.6,67.7,119.1L67.7,119.1z M92.5,222.8c-0.1,1.4-0.4,2.8-1,4.2c-0.9,1.8-2,3.5-3.1,5.2
	c-0.3,0.4-0.6,0.5-1.1,0.3c-2.4-0.8-3.5-2.5-4-4.9c-1-5.2-1.1-10.4-0.7-15.7c0.4-6.1,1.6-12.2,2.1-18.3c0.2-3.3,0.1-6.5,0-9.8
	c-0.1-1.4-0.1-2.7-0.3-4.1c0-0.6,0.1-0.7,0.7-0.7c1.9-0.1,3.8-0.3,5.7-0.6c0.6-0.1,0.8,0.1,1,0.7c0.8,2.3,0.5,5.1,0.2,7.5
	c-0.1,1.5-0.2,2.9-0.4,4.4c-0.1,1.2-0.2,2.5-0.2,3.8c-0.1,3.1-0.1,6.3,0.8,9.3c0.3,1.1,0.5,2.2,0.5,3.3
	C92.8,212.6,93,217.7,92.5,222.8L92.5,222.8z M189.6,130c-0.6,1-1.1,1.1-2,0.4c-0.5-0.4-0.9-0.9-1.3-1.5c-1-1.8-1.5-3.7-1.8-5.8
	c-0.5-3.9-1.1-7.8-1.5-11.7c-0.3-3.8-0.4-7.6-0.6-11.4c0,0,0,0,0,0c0-1.2,0-2.4,0-3.6c0-0.7,0.3-0.7,0.8-0.4c1,0.7,1.7,1.6,1.6,2.9
	c-0.2,2.8,0.6,5.3,1.6,7.9c1.7,4.3,2.7,8.8,3.4,13.4c0.3,2.2,0.6,4.4,0.6,6.7C190.5,128,190.1,129.1,189.6,130L189.6,130z"/>
</svg>
