<?xml version="1.0" encoding="utf-8"?>
<!-- Generator: Adobe Illustrator 22.1.0, SVG Export Plug-In . SVG Version: 6.00 Build 0)  -->
<svg version="1.1" xmlns="http://www.w3.org/2000/svg" xmlns:xlink="http://www.w3.org/1999/xlink" x="0px" y="0px"
	 viewBox="0 0 256 256" style="enable-background:new 0 0 256 256;" xml:space="preserve">
<g id="Layer_1">
	<path style="fill:#FFFFFF;" d="M205.7,246.9H51.1c0-14.5-5.1-35.9,2-43.5c11.9-12.8,26.7-16.8,47.8-20.4c0.5-0.1,1-0.2,1.3-0.4
		c4.3-1.3,7.4-5.4,7.4-9.8V169c-17-7-28.9-23.6-28.9-43.1v-2.4c-6.2-1.7-10.9-7.2-10.9-14c0-3.8,1.7-7.5,4.1-10c1.9-2,4.2-3.2,6.8-4
		V75.8c0-7.4,5.9-13.4,13.4-13.4h46.2c4.5,9,11.9,16.3,21,20.6c0.4,0.2,0.7,0.4,1.2,0.6c0.2,0.1,0.5,0.2,0.7,0.4
		c0.4,0.1,0.7,0.4,1.1,0.5c0.5,0.1,0.8,0.4,1.3,0.5c0.5,0.2,1,0.4,1.4,0.5c0.5,0.1,0.8,0.2,1.3,0.4c0.4,0.1,0.6,0.2,1,0.2
		c0.4,0.1,0.6,0.1,1,0.2c0.1,0,0.2,0,0.2,0.1c0.4,0.1,0.6,0.1,1,0.2c0.2,0.1,0.5,0.1,0.7,0.1c0.5,0.1,1,0.1,1.4,0.2v8.3
		c2.9,0.5,5.5,1.8,7.5,3.6c2.9,2.6,4.8,6.4,4.8,10.7c0,7.2-5.4,13.3-12.2,14.3v1.2c0,19.4-11.6,36.5-28.6,43.8v3.7
		c0,4.3,2.8,8.3,6.7,9.8c0.7,0.2,1.4,0.5,2.2,0.6c19.5,2.9,36.5,6.6,47.7,20.6C208.2,211.4,205.7,232.6,205.7,246.9z"/>
	<g>
		<path style="fill:#896A32;" d="M181.1,57.7v41.2c-2-2-4.7-3.1-7.5-3.6v-8.2c-0.5-0.1-1-0.1-1.4-0.2c-0.2,0-0.5-0.1-0.7-0.1
			c-0.4-0.1-0.6-0.1-1-0.2c-0.1,0-0.2,0-0.2-0.1c-0.4-0.1-0.6-0.1-1-0.2s-0.6-0.1-1-0.2c-0.5-0.1-0.8-0.2-1.3-0.4
			c-0.5-0.1-1-0.4-1.4-0.5c-0.5-0.1-0.8-0.4-1.3-0.5c-0.4-0.1-0.7-0.2-1.1-0.5c-0.2-0.1-0.5-0.2-0.7-0.4c-0.4-0.1-0.8-0.4-1.2-0.6
			c-9.1-4.3-16.5-11.6-21-20.6H94.1c-7.4,0-13.4,5.9-13.4,13.4v19.6c-2.6,0.6-5,2-6.8,4V62.9c0-5.7,3.1-10.5,7.9-13.1
			c-12-19.5,2-41.9,28.5-41.9c27.9,0,67,21.1,70.9,48.5c0,0.2,0,0.5,0.1,0.7l0,0C181.1,57.3,181.1,57.5,181.1,57.7z"/>
	</g>
	<g>
		<circle style="fill:#896A32;" cx="104.5" cy="105.2" r="5.4"/>
	</g>
	<g>
		<circle style="fill:#896A32;" cx="150.9" cy="105.2" r="5.4"/>
	</g>
	<g style="opacity:0.1;">
		<path style="fill:#0C0C0C;" d="M126.5,146c-11.7,0-18.7-8.4-18.8-8.5c-0.5-0.6-0.5-1.7,0.2-2.2c0.6-0.5,1.7-0.5,2.2,0.2
			c0.6,0.7,14,16.4,35.3-0.2c0.6-0.5,1.7-0.4,2.2,0.2c0.5,0.6,0.4,1.7-0.2,2.2C139.3,143.9,132.4,146,126.5,146z"/>
	</g>
	<path style="fill:#D6AD63;" d="M206.8,247.2H51c0,0-4.8-36,2.8-47.6c7.6-11.6,49.9-19.1,49.9-19.1c2.1,17,24.1,16.8,24.1,16.8
		c25.5-1.7,25.4-16.7,25.5-16.8c0,0,2,0.5,2.2,0.6c0,0,5.3,0.9,13.4,3.3c2.7,0.8,5.7,1.8,8.9,3c3.4,1.2,7,2.7,10.7,4.4
		C212.8,203,206.8,247.2,206.8,247.2z"/>
	<path style="fill:none;stroke:#896A32;stroke-width:5;stroke-miterlimit:10;" d="M205.7,246.9H51.1c0-14.5-5.1-35.9,2-43.5
		c11.9-12.8,26.7-16.8,47.8-20.4c0.5-0.1,1-0.2,1.3-0.4c4.3-1.3,7.4-5.4,7.4-9.8V169c-17-7-28.9-23.6-28.9-43.1v-2.4
		c-6.2-1.7-10.9-7.2-10.9-14c0-3.8,1.7-7.5,4.1-10c1.9-2,4.2-3.2,6.8-4V75.8c0-7.4,5.9-13.4,13.4-13.4h46.2c4.5,9,11.9,16.3,21,20.6
		c0.4,0.2,0.7,0.4,1.2,0.6c0.2,0.1,0.5,0.2,0.7,0.4c0.4,0.1,0.7,0.4,1.1,0.5c0.5,0.1,0.8,0.4,1.3,0.5c0.5,0.2,1,0.4,1.4,0.5
		c0.5,0.1,0.8,0.2,1.3,0.4c0.4,0.1,0.6,0.2,1,0.2c0.4,0.1,0.6,0.1,1,0.2c0.1,0,0.2,0,0.2,0.1c0.4,0.1,0.6,0.1,1,0.2
		c0.2,0.1,0.5,0.1,0.7,0.1c0.5,0.1,1,0.1,1.4,0.2v8.3c2.9,0.5,5.5,1.8,7.5,3.6c2.9,2.6,4.8,6.4,4.8,10.7c0,7.2-5.4,13.3-12.2,14.3
		v1.2c0,19.4-11.6,36.5-28.6,43.8v3.7c0,4.3,2.8,8.3,6.7,9.8c0.7,0.2,1.4,0.5,2.2,0.6c19.5,2.9,36.5,6.6,47.7,20.6
		C208.2,211.4,205.7,232.6,205.7,246.9z"/>
</g>
<g id="guidelines">
</g>
</svg>
