<?xml version="1.0" encoding="utf-8"?>
<!-- Generator: Adobe Illustrator 17.0.0, SVG Export Plug-In . SVG Version: 6.00 Build 0)  -->
<!DOCTYPE svg PUBLIC "-//W3C//DTD SVG 1.1//EN" "http://www.w3.org/Graphics/SVG/1.1/DTD/svg11.dtd" [
	<!ENTITY ns_flows "http://ns.adobe.com/Flows/1.0/">
	<!ENTITY ns_extend "http://ns.adobe.com/Extensibility/1.0/">
	<!ENTITY ns_ai "http://ns.adobe.com/AdobeIllustrator/10.0/">
	<!ENTITY ns_graphs "http://ns.adobe.com/Graphs/1.0/">
]>
<svg version="1.1" id="Layer_1" xmlns:x="&ns_extend;" xmlns:i="&ns_ai;" xmlns:graph="&ns_graphs;"
	 xmlns="http://www.w3.org/2000/svg" xmlns:xlink="http://www.w3.org/1999/xlink" xmlns:a="http://ns.adobe.com/AdobeSVGViewerExtensions/3.0/"
	 x="0px" y="0px" width="256px" height="256px" viewBox="0 0 256 256" style="enable-background:new 0 0 256 256;"
	 xml:space="preserve">
<path style="fill:none;stroke:#000000;stroke-width:10;" d="M5.4,154.3c3.8-20,1.7-40.6,4.8-60.6c4.2-20.2,18.2-38.7,38.1-45.1
	c23.9-11.3,51.4-15.2,77.2-8.7c17.7,3.3,35.2,8.3,51.7,15.6c11.1-9.1,27-17.6,41.1-10.4c9.3,13.4,26.5,20.6,31.5,37
	c5.8,13.2,7,28.6,0.9,41.9c-5.8,17.2-12.5,34.8-11.4,53.2c4.6,8.2,23.8,21,8.2,28.3c-16.7,3.8-22.4-16.4-24.5-29.2
	c-4.2-17.8-6.1-36.3-11.8-53.7c-8.4,6.9-2.9,22-12,29.6c-5.3,9.1-17.4,5.3-13.9-5.7c-0.7-16.1-6.1-31.5-13.1-45.9
	c-4.7-15.2,3.4-33.6,18.3-39.4c8.5,0.9,14.9,7.5,22.5,10.6 M5,153.9c8.1-13,18.2-26.5,17-42.7c0.5-5.3,0.3-26.1-1.2-11.2
	c-2,12.9-3,28.2,6.7,38.4c6.5,8.3,13.2,23.4,2.3,30.9c-9.4,7.2-23,8-30.1,18.1c-4.2,13.4,11.5,25.7,22.3,31
	c12.6-1,13-22.1,27.1-23.9c13.9-8.5,29.1-14.8,41.7-25.3c5.9-11.8-5.2-22-11.9-30.5c-3.3-4.8-6.9-9.3-10.3-14 M147.2,116
	c-2.5,14.1-13.9,23.7-21.6,35c-1.9,13.3,1,26.9-1.3,40.1c-6,8.9-19,21.8-3.9,30c9.5,10.1,24.3,3.2,23.3-10.4
	c2.5-14.2,11.7-25.2,19.5-36.7c5.7-8.7,10-18.2,13.6-27.9 M187.1,157.4c-12.4,1-29.5,13.5-15.3,25.1c11.5,9.6,7.1,31,20.4,37.1
	c9,1.6,32.3-1.8,20.2-14.2c-10-10.9-10.1-25.1-10.5-38.9c-2.9-6.9-1.1-29.1,9.2-17.6c2.5,2.7,4.8,5.7,8,7.6 M78.2,177.8
	c-5.9,14.3,9.6,29,1.6,42.9c-9.2,7.1-26.9,6.3-31.6-5.8c-1.7-6.9,1.9-13.7,2.2-20.6 M91.4,160c10.1,6.2,21.7,12.5,34,9.9
	 M238.8,111.6c12.4-5.6-6.5,9.5-0.1,0.1 M244.3,93.9c-1.8,1.1-3.6,2.2-5.4,3.3"/>
</svg>
