<?xml version="1.0" encoding="utf-8"?>
<!-- Generator: Adobe Illustrator 17.0.0, SVG Export Plug-In . SVG Version: 6.00 Build 0)  -->
<!DOCTYPE svg PUBLIC "-//W3C//DTD SVG 1.1//EN" "http://www.w3.org/Graphics/SVG/1.1/DTD/svg11.dtd" [
	<!ENTITY ns_flows "http://ns.adobe.com/Flows/1.0/">
	<!ENTITY ns_extend "http://ns.adobe.com/Extensibility/1.0/">
	<!ENTITY ns_ai "http://ns.adobe.com/AdobeIllustrator/10.0/">
	<!ENTITY ns_graphs "http://ns.adobe.com/Graphs/1.0/">
]>
<svg version="1.1" id="Layer_1" xmlns:x="&ns_extend;" xmlns:i="&ns_ai;" xmlns:graph="&ns_graphs;"
	 xmlns="http://www.w3.org/2000/svg" xmlns:xlink="http://www.w3.org/1999/xlink" xmlns:a="http://ns.adobe.com/AdobeSVGViewerExtensions/3.0/"
	 x="0px" y="0px" width="256px" height="256px" viewBox="0 0 256 256" style="enable-background:new 0 0 256 256;"
	 xml:space="preserve">
<path style="fill:none;stroke:#000000;stroke-width:3;stroke-miterlimit:10;" d="M79.4,30.8c0,0-13-5.2-22.9,1.3
	c-9.9,6.5-12.2,17.5-13,20.4c-0.8,2.8-0.7,11.2-0.7,11.2L44,65c0,0,0,7.6,0.5,8.1c0.5,0.5,0.7,1.2,0.7,1.2L43.4,76
	c0,0-13.2-14-24.1-11.3C8.5,67.5,3.5,76.2,3.5,76.2l-3.2,2.1l-0.2,6c0,0,4.6-0.2,7,1.1c2.4,1.3,10.3,3.8,12.9,2.8
	c2.6-1,3.1-4.6,5.6-3.3c2.5,1.3,5.9,6.2,5.9,7.4s8.8,20.4,8.8,20.4l-9.8,11.7l-8.9,9.4c0,0,0.6,1.6,1.8,1.7s4-0.2,4.2-0.6
	c0.2-0.4,5,0,5,0s13.1-8.5,14.1-9c1-0.4,2-1,2-1s6.8,3.8,9.4,3.8s3.9,0.7,3.9,0.7s-8,8.2-11.9,10.8c-3.9,2.6-7.6,4.8-3.9,4.8
	s15.1,0.3,21.4-3.4c6.2-3.6,13.2-9.3,13.2-9.3s1.1-0.7,1.3,1.3c0.2,2,0.2,11.2,1.1,15.6c0.9,4.5,2.1,11.2,2,15
	c-0.1,3.9,0.4,6-0.5,8.4c-1,2.3-1.5,5.2-1.2,6.9c0.3,1.8,0.7,2.3,0.6,3.4c0,1.1-0.6,2-0.6,2s0.2,1.9,0.2,3.6s0.4,3.2,1.1,3.9
	c0.7,0.7,0.3,2.4,0.2,4.2c-0.1,1.8-0.1,3-0.1,3s-2,5.6-2.4,6.3c-0.4,0.8-1.4,3.4-1.4,3.4s-3.2,3.1-4.3,4.8c-1.1,1.7-1.4,3.7-1.5,5
	c-0.1,1.3,4.5,3.7,6.4,3.7c2,0,3.7-0.8,5.3,0.3s3.3,0.4,4.9,1.7c1.6,1.3,4.2,1.4,4.2,1.4s6.5,1.7,11,1.8c4.5,0.1,14-1.1,14-1.1
	s9-2.9,9.9-7.2c0.8-4.2-2-23.4-1-25.8c1-2.4,6.8-28.7,9.4-31.4c2.7-2.7,5.9-10.3,9-10.8c3.1-0.6,12,2.5,14.5,2.4
	c2.5-0.1,5.2,2.1,5.8,6c0.6,3.9,3.4,11.8,5.8,14.4s2.8,4.4,2.7,5.2c-0.1,0.8-0.6,21.2-0.6,21.2s-1.2,1.5-3.1,3.2
	c-2,1.8-2.4,3.3-2.8,4.1s-1.3,1.8-1.3,1.8c9.3,8.4,18,10.4,37.5,3.7c2.3-1.2,2.7,1.2,5.7,3.5c3.2,2.5,9.1,5.1,15.1,4.8
	c4.9-0.7,10.9-1.5,13.9-3.8c3.3-2.1,6.3-2.8,6-7.9c-0.4-5.1-4.4-22.3-4.4-22.3s-2.9-16.2-2.5-26.4c0.4-10.1-0.3-28.4-0.3-28.4
	s6.2,3.2,9.4,0.7c3.2-2.6,5-5.6,5.5-9.3s-2.2-16.3-0.4-18.8c1.9-2.5,0.7-7.6,0-10.4c-0.7-2.8-3.1-9.5-5.8-12.8c-2.7-3.3-3.3-3-3.3-3
	s-0.3,3-1.1,3.2c-0.7,0.2-2.1,0.3-2,2.3c0.1,2,0.3,4.1-0.5,4.8c-0.8,0.7-1.4,1.7-1.4,2.3c0,0.5,0.2,3.2,0.5,4.1
	c0.4,0.8-0.2,1.2-0.5,1.7c-0.4,0.5,1.1,3.5,0.1,4.6c-1,1.1-2.5-0.2-2.6-1.5c0-1.3-0.1-2-0.5-2.5c-0.5-0.5-0.5-2.3-0.5-2.7
	s1.2-9.9-6.2-21.5c-7.5-11.6-14.2-17.4-14.2-17.4s-13.5-14.6-26.9-18.2c-13.5-3.6-23.4-3.7-23.8-3.7c-0.4,0-22.2,0.8-23.7,0.1
	c-1.5-0.7-14-4.1-23-5.1c-9-1-12-1.8-12-1.8s-3.2,0.2-12.4-0.1s-12.1,0-12.9,1C81.2,30.1,79.4,30.8,79.4,30.8L79.4,30.8z M54.2,65.5
	c0,0,0.5,3.5,0.9,4.2c0.5,0.7,0.2,8.8-0.5,10.5c-0.7,1.6-0.6,3.3-1.2,4.2s-0.6,2.8-0.6,2.8s-2.9,5.1-3.2-0.2
	c-0.3-5.3,0.1-5.4,0.9-6.7c0.8-1.2,1.1-4.4,1.1-5.5c0-1.1,0.9-3.5,1-4.5s-0.5-5.4,0.5-5L54.2,65.5z M55.4,57.9c0,0-1.5-0.4-1.6,1.3
	c-0.2,1.8-0.4,4.3,0.7,4c1.1-0.3,0.3-2.4,0.8-2.7c0.5-0.3,0.8-0.9,0.8-1.7C56,58,55.4,57.9,55.4,57.9L55.4,57.9z M105,79.4
	c0,0-0.7,1.2,0,1.4s0.9-1,0.8-1.3C105.7,79.2,105,79.4,105,79.4L105,79.4z M146,53.9c0,0-5.9-1.5-12.9,1.1s-7,3-7.2,6.6
	c-0.2,3.6-3.6,6.9-4,8.5c-0.4,1.6-0.5,3.7,1,4.5c1.5,0.8,7.4,2.4,9.2,5.4c1.9,3.1,0.8,3.4-0.2,3.1s-2-2.4-7.4-2.3
	c-5.4,0.1-8.4,1-8.7,4.6s2.9,5.5,2.8,11.1c-0.1,5.6-0.6,8.8-2,10.3c-1.4,1.6-2.1,0.6-2.1-0.7c0-1.3,1.1-6.4-0.1-9.6
	c-1.2-3.2-4.7-2.4-4.7-2.4s-1,2-2.2,4.6c-1.2,2.6-4,14.7-2.5,17.3c1.4,2.6,2.4,2.4,3.5,2s3.3-1.7,3.8,0.2c0.5,1.9,2.4,5.5,7.1,3.1
	c4.7-2.4,5.7-4.5,5.7-4.5s1.6,2.2,2.8,1.9c1.2-0.4,3-5.1,3-5.1s0.8,3.4,3,2.7c2.2-0.7,5.4-3.4,5.5-4.8c0.1-1.5,1.1-2.9,2.2-2.4
	c1.1,0.6,3.6,0.9,5.1-1.6c1.5-2.5-0.1-3.9,0.8-5.6c0.9-1.7,2.7,1.7,5.1,0.7c2.4-1,6.2-4.8,5.3-9c-0.9-4.2-2.5-10.4-4.1-15.7
	c-1.6-5.4-4-8.2-6-10.7c-2-2.6,1.2-2.7,2.8-1.7c1.6,1,5.3,7.6,6.1,11.3c0.8,3.7,4.9,14.4,5.9,8.9s0.4-7.4,2-7.7
	c1.7-0.3,2.9-2.2,2.7-5.3c-0.2-3-3.6-8.9-2.2-10.4c1.4-1.5,3-1.3,2.4-3.8s-2-9.9-9.8-13.4c-7.8-3.5-16.9-7.5-22.9-9
	c-6-1.5-15.7-2-25-2.9s-19.9-3.8-28.7,0S67.3,40.7,67.6,44c0.3,3.3-0.5,5.8-3.3,8.9c-2.8,3.2-6.3,11.2-6,13c0.2,1.9,2.8,2.1,2.9,1
	c0.1-1.1-0.2-3.6,1-5.8c1.2-2.1,2-1.8,2.8,1.9c0.7,3.6,0.5,2.8-0.4,4.2c-0.9,1.3-2.2,4.3-0.5,4.3c1.7,0,8-0.8,11.6,0.9
	s5.4,3.7,4.9,5.1c-0.5,1.4-0.9-0.6-4.6-1.8c-3.8-1.2-9.6-2.6-12.6-0.9c-3,1.7-4.8,4.2-4.2,7.2c0.6,3,1.8,1.8,2.1,0.9
	c0.3-0.9,1-1.4,2.5-1.7c1.5-0.3,6.6-0.1,8.6,1.2c2,1.2,3,2.1,2.4,3.3C74,87,72.5,84.4,69.1,84c-3.4-0.4-8.2,0-9.2,2.8
	c-1,2.8-1.2,4.1-1,5.3c0.2,1.2,1.7,0.9,4.2,1.3c2.6,0.5,6.1,0.9,7,3.2c0.9,2.2,0.5,2.2,0.5,2.2s-1-1.1-3.2-1.4
	c-2.2-0.4-3.7-1.2-4.2,0.1c-0.5,1.2,0.8,1.2,1.3,2.4c0.5,1.2,0.6,1.4,0.6,1.4s-0.6,0.1-1.8-0.1c-1.1-0.1-2,0-2.1,0.3
	c-0.2,0.3,1.1,2.1-0.1,2.5c-1.1,0.4-2.1-1.7-3.7-2.1c-1.6-0.4-1.7,0-1.8,1c-0.1,1-0.3,1.2-0.8,1.1c-0.5-0.1-0.2-2.8-1.2-4.4
	S43.3,79.6,36.1,74S18,65.6,11.9,70.9c-6.1,5.3-5.8,9.9-5.8,9.9s5.8,0.7,7.8,2.2s4.5,1.9,5.3,0.9c0.8-1.1,1.3-2.2,0.6-2.9
	c-0.7-0.7-1.8-1.6-1.1-2.6s1.6-3.2,3.1-3c1.4,0.2,1.7,1.3,1.7,1.3s0.6-1.2,1.2-1.2c0.5,0,2.3,0.9,2.4,1.7c0.1,0.8,0.4,1.5,0.4,1.5
	s2.5-0.4,3.1,0.4c0.5,0.7,0.4,1.4,0.4,1.4s-2.7,2.9-0.3,3.4c2.4,0.5,4.1-0.1,5.1,0.8l1,0.9c0,0-3.3,1.7-2.6,3
	c0.7,1.3,2.3,2.4,3.6,2.7c1.2,0.3,0.4,0.9,1.5,1.2c1.2,0.2,1.2,0.3,1.2,0.3s0.3,1.7-0.3,2.2c-0.5,0.5-1.7,0.9-0.8,1.5
	c0.9,0.7,1,0.5,1,1.1c0,0.6,0.2,1,0.5,1c0.4,0,1.6,0,1.6,0s0.7,1.4,1.5,2c0.7,0.5,0.7,0.8,0.4,1c-0.3,0.2-0.8,0.3-0.8,0.7
	c0,0.4-0.2,1.2,0.8,2.4c1,1.2,1.3,1.1,2,1.1s1.5-0.1,1.5,1.1c0,1.2-0.1,2.8-0.1,2.8s-0.3,0.4,2.4,2.2c2.7,1.8,4.1,1.2,4.1,2.8
	c-0.1,1.6-1,2.5,0.6,3c1.6,0.5,3.3,1,4,0.3c0.7-0.7,1.3-0.3,1.5,0.4c0.2,0.6-1.5,0.6-0.2,1.8c1.2,1.2,1.4,1.8,2,1.2
	c0.6-0.5,1-0.4,2.7-1.3c1.8-1-0.1-1.2,1.8-0.9c1.9,0.3,0.7,1.3,2.1,1.5c1.3,0.2,3.8-2.1,5.1-3.5c1.2-1.3,3.6-3.8,6.8-4.9
	c3.2-1.2,6.9,2.6,8.3,1.4s5-12.9,5.3-17.4c0.3-4.6,0.1-7.4,1.2-8c1.1-0.6,2.4,2.7,2.4,3c0,0.4,1.9-1.5,1.9,1.4c0,2.9-1.1,10,0.3,9.5
	c1.3-0.4,4.6-5.7,4.6-8.4s0.4-3.8-0.5-3.8s-4.6,0.3-3.7-0.8c0.9-1.1,3-2.5,3.9-3.6c0.8-1.1,0.7-2.8,0.2-3.2c-0.5-0.4-0.7-0.3-2,1.2
	c-1.3,1.5-0.1,2.1-2.1,1.7s-3.6-0.6-4,0.1s-2.1,2.3-2.3,2.3c-0.3,0-0.9-1.1-1.3-1.3s-0.1-2.4-0.4-2.4c-0.3,0-1.2-0.2-1-1
	s1.1-1.6,1.1-1.6s-0.2-5.1,0-5.5s0.8-0.6,0.8-0.6s-0.6-1.2,0.3-1.3c0.8-0.1,1.2,0.2,1.2,0.2l3.6-4.4c0,0,3.4-0.5,3.6,0.1
	c0.2,0.6,0.9,1,1.4,1c0.5,0,1.7,0.2,1.8,1.1s0.1,1.5,0.6,1.5s1.7,0.2,1.7,0.2l1.3-1.5c0,0-0.5-3.2,0.1-3.9c0.6-0.8,1.8,0.8,1.8,1.1
	c0,0.3-0.4,0.8,0.4,1.3c0.8,0.5,0.9,2.8,0.7,3.9c-0.2,1.1-2.4,2.8-1.9,5.2c0.5,2.5,2,1.5,2.6,0.7c0.5-0.8,2.4-3.2,2.3-6.5
	s0.5-6.1,1.1-7.3s5-5,5-9.6s0.6-7.5-2.6-9.5c-3.2-2-5.7-6.4-4.5-7.2c1.2-0.8,4.2,1.4,6.5,3.9c2.4,2.5,2.1,5.5,4.5,5.7
	c2.4,0.2,6.2-1,9-1.2c2.8-0.2,4.8-0.4,4.8-0.4s5.5-0.5,7.2-0.4c1.7,0.2,2.9,1.5,1.8,1.5c-1,0.1-3.7,0.9-2.4,1.4
	c1.3,0.5,5.1,1.2,7.4,1.9c2.3,0.7,7.8,4.9,7.6,6.8c-0.2,1.9-4.4-0.6-5.2-1.1c-0.7-0.5-4.3-2.7-6.2-3.2C147,54.4,146,53.9,146,53.9
	L146,53.9z M242.9,110.7c0,0,4.4,1.7,4.8,4.4c0.4,2.7,0,8.5-1,8.5s-3.5-1.9-3.5-3.5s0.4-2.3-0.4-3.6
	C242.1,115.1,242.9,110.7,242.9,110.7L242.9,110.7z M206.6,172.7c0,0-3.1,5.2-3.8,10.4c-0.7,5.2,0.5,12.4,0.8,13.9
	c0.3,1.4,1.8,11.6,4.3,11.6s7.8-2.2,7.4-5.2s-0.9-4.4-1.6-7.9c-0.6-3.5,0.3-11.4-1.4-15c-1.7-3.6-2.3-5.6-4-6.6L206.6,172.7z"/>
<g>
	<path style="fill:none;stroke:#000000;stroke-width:3;stroke-miterlimit:10;" d="M98.4,172.4c-0.1,0.8-0.8,3.1,0.1,4.3
		c0.9,1.2,1.3,1.9,0.8,2.3c-0.5,0.4-1.8,4.4-2,6.3c-0.2,1.9,0.9,4.1,0.7,6.2c-0.2,2.1-1.8,2.2-0.9,4c0.9,1.8,1.8,6.6,0.9,7.3
		c-0.9,0.7-0.8,3.3-2.1,3.4c-1.3,0.1-4.9-0.5-5,1.1s3.8,1.9,2.6,3.3 M102.5,150.5c0,4.3-0.2,8.5-0.2,8.5s-1.6,0.6-0.7,1
		c0.9,0.4,1.3,1.6,1,2.3c-0.3,0.7-1,0.2-1,1.9s0.3,4.2,0.1,4.4 M102.1,132c-1.1-0.8-1.4-2.4-1.7-3.6c-0.3-1.1-0.3-3.8-1.3-3.7
		c-1.1,0.1-1,5.7-1,6.5c0,0.8,1.4,2.4,1.2,3.3c-0.2,0.9,0.9,2.3,2,3.3c1.1,1.1,1.8,3.2,1,3.8s-2.4-2.6-2.9-1.4
		c-0.4,1.1-0.7,2.2,0.2,3.4 M112.1,138.7c1.9-2.2,0.4-2.1-0.8-1.4c-1.2,0.7-2.2,2.4-3,1s0.7-2.8,2.4-4.2c1.8-1.3,1.5-1.9,4.3-1.9
		c2.8,0,5.7,3.6,6.7,2.7c1-1-2-3.6-3-4.4c-1-0.9-2.3-1.7-3.6-1.2c-1.3,0.5-3.6,1.6-5.1,1.6s-1.8-0.8-1.8-2.4"/>
	<path style="fill:none;stroke:#000000;stroke-width:3;stroke-miterlimit:10;" d="M227.3,211.2c0,0-3-0.4-3.3,2.4
		c-0.3,2.8,0.4,3.6,2.4,3.8c2,0.2,3.7-2.2,2.9-4.1C228.6,211.5,227.3,211.2,227.3,211.2L227.3,211.2z M81.3,213.4
		c0,0-2.5,1.9-1.3,2.2c1.1,0.4,3.5-0.1,2.9-1C82.2,213.7,81.3,213.4,81.3,213.4L81.3,213.4z M108.1,216.4c0,0-2.5,0.3-2.7,3.3
		s1.7,5.1,3.6,4.5c1.9-0.5,3.5-3.1,2.8-4.2c-0.6-1.1-1.2-2.7-2-3.2C109.1,216.2,108.1,216.4,108.1,216.4z M96.7,215.5
		c0,0-2.2,1.3-1.9,3.5c0.3,2.2,4.1,2.1,4.5,1.9c0.4-0.2,0.5-1.6,0.3-2.6c-0.3-1-1.3-2-1.8-2.3C97.3,215.7,96.7,215.5,96.7,215.5
		L96.7,215.5z M91.6,214.2c0,0-3.5-0.3-3.7,2.1c-0.2,2.4,1.4,2.8,2.8,2.4c1.4-0.4,1.6-2.3,1.6-3.1c0-0.8,0.2-0.9-0.3-1.2L91.6,214.2
		L91.6,214.2z M176.8,206.4c0,0,1.1,0.2,0.5,1.8c-0.6,1.6-0.5,3-1.6,2.8c-1.1-0.3-1.6-1.9-1.4-3c0.2-1.1,1.3-1.9,1.7-1.9
		C176.3,206,176.8,206.4,176.8,206.4L176.8,206.4z M186.1,207c0,0-3.9,0-4.4,2.8c-0.4,2.8,2,2.5,2.4,2.8c0.4,0.4,1.6,1.1,2.1,0.6
		c0.5-0.4,0.4-0.7,1.2-0.7c0.8,0,2.2-0.5,1.6-2c-0.6-1.5-1.3-3.2-2.1-3.4C186.1,207,186.1,207,186.1,207L186.1,207z M215.9,210.3
		c0,0-4.7,1.5-3,3.8c1.6,2.3,2.9,3.6,3.9,2.5c1-1,1.2-1.8,1-3.5C217.5,211.5,215.9,210.3,215.9,210.3L215.9,210.3z"/>
</g>
</svg>
