<?xml version="1.0" encoding="utf-8"?>
<!-- Generator: Adobe Illustrator 23.0.0, SVG Export Plug-In . SVG Version: 6.00 Build 0)  -->
<svg version="1.1" id="Layer_1" xmlns="http://www.w3.org/2000/svg" xmlns:xlink="http://www.w3.org/1999/xlink" x="0px" y="0px"
	 viewBox="0 0 256 256" style="enable-background:new 0 0 256 256;" xml:space="preserve">
<g>
	<path style="fill:#E8E7E7;stroke:#4C4C4C;stroke-width:5;stroke-linecap:round;stroke-linejoin:round;stroke-miterlimit:10;" d="
		M241.8,124.7c0-33.2-36.9-51.7-82.3-51.7s-82.3,18.6-82.3,51.7c0,9.3,2.9,18.1,8.1,25.9c2.5,3.8,3.8,8.3,3.8,12.9v51H128v-34.4
		c9.7,2.9,20.4,4.6,31.5,4.6c11.4,0,22.3-1.7,32.2-4.8v34.6h38.9v-46.8l0-0.6c-0.2-6.9,1.7-13.6,5.1-19.6
		C239.6,140.6,241.8,132.8,241.8,124.7z"/>
	<path style="opacity:0.1;" d="M143.2,182.4c38.3,5.1,70.4-8.5,81.7-37.1C241.8,102.5,201,79,201,79l15,6l14.3,9.1l10.5,21.1l1,14.9
		l-6.2,17.5l-4.7,13.5l-0.4,53.5h-38.9V180l-16.3,3.6l-15.8,1.1l-31.5-4.6"/>
	<path style="fill:none;stroke:#4C4C4C;stroke-width:5;stroke-linecap:round;stroke-linejoin:round;stroke-miterlimit:10;" d="
		M241.8,124.7c0-33.2-36.9-51.7-82.3-51.7s-82.3,18.6-82.3,51.7c0,9.3,2.9,18.1,8.1,25.9c2.5,3.8,3.8,8.3,3.8,12.9v51H128v-34.4
		c9.7,2.9,20.4,4.6,31.5,4.6c11.4,0,22.3-1.7,32.2-4.8v34.6h38.9v-46.8l0-0.6c-0.2-6.9,1.7-13.6,5.1-19.6
		C239.6,140.6,241.8,132.8,241.8,124.7z"/>
	<path style="fill:none;stroke:#4C4C4C;stroke-width:5;stroke-linecap:round;stroke-linejoin:round;stroke-miterlimit:10;" d="
		M232.5,98.8c0,0,14,13.3,18.5,39.5"/>
	<path style="fill:#E8E7E7;stroke:#4C4C4C;stroke-width:5;stroke-linecap:round;stroke-linejoin:round;stroke-miterlimit:10;" d="
		M85.7,66.7c0,0-44.7-9.4-55.3,69.6c-4.8,35.4-6.8,71.1,20.7,80.9l5.6-7.7c0,0-17.9-5.1-5.6-30.7s-1.2-22.5,8.5-29.2
		c9.7-6.7,15-4.1,22.3-11.8c0,0-3.8,11.3,0,13.8c0,0,16.1-2.6,24.8-12.8s14.3-11.8,25.6-14.8s21.7-29,7.2-47.6
		C126.6,60.1,108.7,54.4,85.7,66.7z"/>
	<path style="fill:none;stroke:#4C4C4C;stroke-width:5;stroke-linecap:round;stroke-linejoin:round;stroke-miterlimit:10;" d="
		M54.4,154.6c0,0-15.1,22-49.4,15.2"/>
	<circle style="fill:#4C4C4C;" cx="72.9" cy="108.4" r="4.3"/>
</g>
</svg>
