<?xml version="1.0" encoding="utf-8"?>
<!-- Generator: Adobe Illustrator 22.1.0, SVG Export Plug-In . SVG Version: 6.00 Build 0)  -->
<svg version="1.1" id="Layer_1" xmlns="http://www.w3.org/2000/svg" xmlns:xlink="http://www.w3.org/1999/xlink" x="0px" y="0px"
	 viewBox="0 0 256 256" style="enable-background:new 0 0 256 256;" xml:space="preserve">
<path style="fill:#FFFFFF;" d="M201.2,250H55c0-13.7-4.8-34.1,1.9-41.1c11.2-12.2,25.3-15.9,45.3-19.2c0.4-0.1,0.9-0.2,1.2-0.3
	c4.2-1.2,7-5.1,7-9.3v-3.6c-16-6.6-27.2-22.3-27.2-40.8v-2.4c-5.9-1.5-10.3-6.9-10.3-13.3c0-3.6,1.5-7.1,3.8-9.6
	c1.8-1.9,4.1-3.1,6.5-3.7V88.1c0-7,5.6-12.6,12.6-12.6h43.6c4.3,8.5,11.2,15.4,19.8,19.4c0.3,0.2,0.7,0.3,1.1,0.6
	c0.2,0.1,0.4,0.2,0.7,0.3c0.3,0.1,0.7,0.3,1,0.4c0.4,0.1,0.8,0.3,1.2,0.4c0.4,0.2,0.9,0.3,1.4,0.4c0.4,0.1,0.8,0.2,1.2,0.3
	c0.3,0.1,0.6,0.2,0.9,0.2c0.3,0.1,0.6,0.1,0.9,0.2c0.1,0,0.2,0,0.2,0.1c0.3,0.1,0.6,0.1,0.9,0.2c0.2,0.1,0.4,0.1,0.7,0.1
	c0.4,0.1,0.9,0.1,1.3,0.2v7.8c2.7,0.4,5.2,1.6,7.1,3.4c2.7,2.5,4.5,6,4.5,10.1c0,6.9-5.1,12.5-11.5,13.5v1.1c0,18.3-11,34.6-27,41.4
	v3.5c0,4.2,2.6,7.8,6.4,9.2c0.7,0.2,1.4,0.4,2.1,0.6c18.5,2.7,34.6,6.3,45.1,19.4C203.6,216.5,201.2,236.5,201.2,250z"/>
<path style="fill:#2B2B2B;" d="M178.1,71v38.9c-2-1.9-4.4-3-7.1-3.4v-7.8c-0.4-0.1-0.9-0.1-1.3-0.2c-0.2,0-0.4-0.1-0.7-0.1
	c-0.3-0.1-0.6-0.1-0.9-0.2c-0.1,0-0.2,0-0.2-0.1c-0.3-0.1-0.6-0.1-0.9-0.2c-0.3-0.1-0.6-0.1-0.9-0.2c-0.4-0.1-0.8-0.2-1.2-0.3
	c-0.4-0.1-0.9-0.3-1.4-0.4s-0.8-0.3-1.2-0.4c-0.3-0.1-0.7-0.2-1-0.4c-0.2-0.1-0.4-0.2-0.7-0.3c-0.3-0.1-0.8-0.3-1.1-0.6
	c-8.6-4.2-15.6-11-19.8-19.4H95.6c-7,0-12.6,5.6-12.6,12.6v18.6c-2.5,0.6-4.7,2-6.5,3.7V76c0-5.4,3-10,7.5-12.4
	c-11.3-18.5,1.9-39.8,26.9-39.8c26.4,0,63.3,19.9,67.1,45.8c0,0.2,0,0.4,0.1,0.7l0,0C178.1,70.6,178.1,70.8,178.1,71z"/>
<circle style="fill:#2B2B2B;" cx="105.5" cy="115.9" r="5.1"/>
<circle style="fill:#2B2B2B;" cx="149.4" cy="115.9" r="5.1"/>
<path style="opacity:0.2;fill:#0C0C0C;" d="M126.3,154.5c-11.1,0-17.8-7.9-17.9-8c-0.4-0.6-0.4-1.5,0.2-2.1c0.6-0.4,1.5-0.4,2.1,0.2
	c0.6,0.7,13.3,15.5,33.4-0.2c0.6-0.4,1.5-0.3,2.1,0.2c0.4,0.6,0.3,1.5-0.2,2.1C138.5,152.6,131.8,154.5,126.3,154.5z"/>
<path style="fill:#E8E8E8;" d="M202.2,249.4H53.8c0-14-3.1-34.3,3.5-41.6c6.8-7.3,14.5-11.6,23.9-14.7c3.5-1.1,7.4-2.1,11.4-2.9
	c1-0.2,2.1-0.4,3-0.8c2.2-0.6,4.4-1.1,6.8-1.5c0.4-0.1,1-0.3,1.5-0.4c4.9,9.8,22.7,14.2,22.7,14.2c0.1,0,20.5-1.9,24.3-13.8l0,0
	c0.1-0.1,0.1-0.3,0.2-0.4h0.1c0.6,0.2,1.2,0.3,2,0.4c2.3,0.3,4.6,0.7,6.9,1.1c0.9,0.1,1.9,0.3,2.7,0.4c4,0.8,7.8,1.7,11.4,2.8
	c9.7,2.9,17.9,7.4,24.2,15.4C204.5,215.6,202.2,235.8,202.2,249.4z"/>
<path style="fill:#474747;" d="M202.2,249.4H53.8c0-14-3.1-34.3,3.5-41.6c6.8-7.3,14.5-11.6,23.9-14.7c3.5-1.1,7.4-2.1,11.4-2.9
	c1-0.2,5.9-1.3,6.3-1.4c-3,4.1,12,51.9,17.3,60.4h19.3c4.6-8.1,22.6-57.1,15.4-61.2l0,0c0.1-0.1,0.1-0.3,0.2-0.4h0.1
	c0.6,0.2,1.2,0.3,2,0.4c2.3,0.3,4.6,0.7,6.9,1.1c0.9,0.1,1.9,0.3,2.7,0.4c4,0.8,7.8,1.7,11.4,2.8c9.7,2.9,17.9,7.4,24.2,15.4
	C204.5,215.6,202.2,235.8,202.2,249.4z"/>
<polygon style="fill:#474747;" points="118.2,209.1 123.7,215.5 119.9,249.3 132.4,249.3 129,215.5 135.6,209.1 126.7,201.8 "/>
<path style="fill:#F4F4F4;" d="M126.7,201.8l8.9,13.7c0,0,18.1-15.1,22.1-26.2l-11-2.6C147.9,188.8,138.6,199.6,126.7,201.8z"/>
<path style="fill:#F4F4F4;" d="M126.7,201.4l-8.1,14.1c0,0-18.6-15.1-22.5-26.1l12.1-2.3C104.3,189.6,114.7,199.2,126.7,201.4z"/>
<path style="fill:#666666;" d="M150.7,187.7c0,0-10.7,48.8-15.2,62l29.7-28.9l-11.3-9.2l12.3-2.2l-7-20.3L150.7,187.7z"/>
<path style="fill:#666666;" d="M101.3,187.5c0,0,10.7,49.5,15.2,62.5l-29.1-28.9l11.3-9.2l-15.2-0.9l9-20.7L101.3,187.5z"/>
<path style="fill:#FFD15F;" d="M180.7,61.2c0,27-108,27-108,0c0-22.1,11-40.7,35.6-46.8c3.1-0.7,6.4-1.3,10-1.7
	c2.7-0.2,5.4-0.4,8.3-0.4c3,0,5.8,0.1,8.5,0.4c3.5,0.3,6.9,0.9,10,1.7C169.5,20.6,180.7,39.2,180.7,61.2z"/>
<path style="opacity:0.1;fill:#0C0C0C;" d="M145.1,14.5c-4.9,5.9-10,28.6-10,28.6V12.7C138.7,13.1,142.1,13.6,145.1,14.5z"/>
<path style="opacity:0.1;fill:#0C0C0C;" d="M118.3,12.7v30.2c0,0-5.1-22.6-10-28.6C111.4,13.6,114.7,13,118.3,12.7z"/>
<rect x="116.4" y="7" style="fill:#FFD15F;" width="20.6" height="34.3"/>
<path style="fill:none;stroke:#B28D31;stroke-width:5;stroke-miterlimit:10;" d="M135,81.2c-7.6,0.4-15.4,0.2-22.8-0.4
	c4.8,0.3,9.7,0.4,14.3,0.5h6.5C133.7,81.3,134.4,81.3,135,81.2z"/>
<path style="fill:none;stroke:#2B2B2B;stroke-width:5;stroke-miterlimit:10;" d="M201.2,250H55c0-13.7-4.8-34.1,1.9-41.1
	c11.2-12.2,25.3-15.9,45.3-19.2c0.4-0.1,0.9-0.2,1.2-0.3c4.2-1.2,7-5.1,7-9.3v-3.6c-16-6.6-27.2-22.3-27.2-40.8v-2.4
	c-5.9-1.5-10.3-6.9-10.3-13.3c0-3.6,1.5-7.1,3.8-9.6c1.8-1.9,4.1-3.1,6.5-3.7V88.1c0-7,5.6-12.6,12.6-12.6h43.6
	c4.3,8.5,11.2,15.4,19.8,19.4c0.3,0.2,0.7,0.3,1.1,0.6c0.2,0.1,0.4,0.2,0.7,0.3c0.3,0.1,0.7,0.3,1,0.4c0.4,0.1,0.8,0.3,1.2,0.4
	c0.4,0.2,0.9,0.3,1.4,0.4c0.4,0.1,0.8,0.2,1.2,0.3c0.3,0.1,0.6,0.2,0.9,0.2c0.3,0.1,0.6,0.1,0.9,0.2c0.1,0,0.2,0,0.2,0.1
	c0.3,0.1,0.6,0.1,0.9,0.2c0.2,0.1,0.4,0.1,0.7,0.1c0.4,0.1,0.9,0.1,1.3,0.2v7.8c2.7,0.4,5.2,1.6,7.1,3.4c2.7,2.5,4.5,6,4.5,10.1
	c0,6.9-5.1,12.5-11.5,13.5v1.1c0,18.3-11,34.6-27,41.4v3.5c0,4.2,2.6,7.8,6.4,9.2c0.7,0.2,1.4,0.4,2.1,0.6
	c18.5,2.7,34.6,6.3,45.1,19.4C203.6,216.5,201.2,236.5,201.2,250z"/>
<g>
	<path style="fill:#FFD15F;" d="M133.1,81.3c-2.1,0-4.3,0-6.5,0c-24.7-0.3-55.4-2.9-60.5-13.4c-1.9-3.7-0.3-8.2,3.3-10
		c3.2-1.6,7-0.7,9.1,2c1.4,0.9,10.6,6,48.3,6.4c37.8,0.4,47.5-3.2,49-3.9c2.5-2.2,6.2-2.5,9-0.5c3.4,2.3,4.3,7,2,10.4
		C185.2,74.5,180.7,81.3,133.1,81.3z M174.5,63.8L174.5,63.8L174.5,63.8z M174.5,63.8L174.5,63.8L174.5,63.8z M174.5,63.8
		L174.5,63.8L174.5,63.8z M79.3,61.2L79.3,61.2L79.3,61.2z M79.3,61.2L79.3,61.2L79.3,61.2z M79.3,61.2L79.3,61.2L79.3,61.2z
		 M78.3,59.6L78.3,59.6L78.3,59.6z"/>
</g>
<path style="fill:none;stroke:#B28D31;stroke-width:5;stroke-linecap:round;stroke-linejoin:round;stroke-miterlimit:10;" d="
	M186.8,72.2c-1.5,2.3-6,8.8-51.7,9c-0.6,0-1.3,0-1.9,0h-6.5c-4.6-0.1-9.5-0.2-14.3-0.5h-0.1c-21-1.1-41.9-4.4-46.2-12.9
	c-1.9-3.7-0.3-8.2,3.3-10c1.1-0.5,2.3-0.8,3.4-0.8c1.3-20.3,12.4-37,35.5-42.7c2.6-0.6,5.3-1.1,8.1-1.5V7h20.6v5.9
	c2.8,0.3,5.5,0.9,8.1,1.5c24.2,6.2,35.4,24.4,35.6,46.1c1.4,0,2.9,0.4,4.2,1.3C188.2,64.1,189.1,68.8,186.8,72.2z"/>
</svg>
