<?xml version="1.0" encoding="utf-8"?>
<!-- Generator: Adobe Illustrator 17.0.0, SVG Export Plug-In . SVG Version: 6.00 Build 0)  -->
<!DOCTYPE svg PUBLIC "-//W3C//DTD SVG 1.1//EN" "http://www.w3.org/Graphics/SVG/1.1/DTD/svg11.dtd" [
	<!ENTITY ns_flows "http://ns.adobe.com/Flows/1.0/">
	<!ENTITY ns_extend "http://ns.adobe.com/Extensibility/1.0/">
	<!ENTITY ns_ai "http://ns.adobe.com/AdobeIllustrator/10.0/">
	<!ENTITY ns_graphs "http://ns.adobe.com/Graphs/1.0/">
]>
<svg version="1.1" id="Layer_1" xmlns:x="&ns_extend;" xmlns:i="&ns_ai;" xmlns:graph="&ns_graphs;"
	 xmlns="http://www.w3.org/2000/svg" xmlns:xlink="http://www.w3.org/1999/xlink" xmlns:a="http://ns.adobe.com/AdobeSVGViewerExtensions/3.0/"
	 x="0px" y="0px" width="256px" height="256px" viewBox="0 0 256 256" style="enable-background:new 0 0 256 256;"
	 xml:space="preserve">
<line style="fill:none;stroke:#000000;stroke-miterlimit:10;" x1="0" y1="172.5" x2="256" y2="172.5"/>
<g>
	<g>
		<path style="fill:none;stroke:#000000;stroke-miterlimit:10;" d="M42.2,193.8c0,0,0.3,1.4-0.4,2.4s-2.2,1.1-2.2,1.1
			s-0.3-1.4,0.4-2.4C40.8,193.9,42.2,193.8,42.2,193.8z"/>
	</g>
	<g>
		<path style="fill:none;stroke:#000000;stroke-miterlimit:10;" d="M41.4,191.5c0,0,0.3,1.4-0.4,2.3c-0.7,0.9-2.1,1.1-2.1,1.1
			s-0.3-1.4,0.4-2.3C40,191.6,41.4,191.5,41.4,191.5z"/>
	</g>
	<g>
		<path style="fill:none;stroke:#000000;stroke-miterlimit:10;" d="M35.5,194.5c0,0,0.4,1.4,1.5,2c1.1,0.5,2.5,0,2.5,0
			s-0.4-1.4-1.5-2S35.5,194.5,35.5,194.5z"/>
	</g>
	<g>
		<path style="fill:none;stroke:#000000;stroke-miterlimit:10;" d="M35,191.8c0,0,0.4,1.4,1.4,1.9s2.4,0,2.4,0s-0.4-1.4-1.4-1.9
			S35,191.8,35,191.8z"/>
	</g>
	<g>
		<path style="fill:none;stroke:#000000;stroke-miterlimit:10;" d="M40.9,188.7c0,0,0.3,1.3-0.4,2.2s-2,1-2,1s-0.3-1.3,0.4-2.2
			C39.6,188.8,40.9,188.7,40.9,188.7z"/>
	</g>
	<g>
		<path style="fill:none;stroke:#000000;stroke-miterlimit:10;" d="M39.9,186.4c0,0,0.2,1.2-0.4,2c-0.6,0.8-1.8,0.9-1.8,0.9
			s-0.2-1.2,0.4-2S39.9,186.4,39.9,186.4z"/>
	</g>
	<g>
		<path style="fill:none;stroke:#000000;stroke-miterlimit:10;" d="M34.7,189.3c0,0,0.4,1.3,1.4,1.8s2.3,0,2.3,0s-0.4-1.3-1.4-1.8
			S34.7,189.3,34.7,189.3z"/>
	</g>
	<g>
		<path style="fill:none;stroke:#000000;stroke-miterlimit:10;" d="M34.4,186.6c0,0,0.3,1.2,1.2,1.6c0.9,0.4,2,0,2,0
			s-0.3-1.2-1.2-1.6S34.4,186.6,34.4,186.6z"/>
	</g>
	<g>
		<path style="fill:none;stroke:#000000;stroke-miterlimit:10;" d="M39.3,184.2c0,0,0.2,1.1-0.3,1.9c-0.6,0.8-1.7,0.9-1.7,0.9
			s-0.2-1.1,0.3-1.9S39.3,184.2,39.3,184.2z"/>
	</g>
	<g>
		<path style="fill:none;stroke:#000000;stroke-miterlimit:10;" d="M38.8,182.1c0,0,0.2,1.1-0.3,1.9c-0.6,0.8-1.7,0.9-1.7,0.9
			s-0.2-1.1,0.3-1.9C37.7,182.2,38.8,182.1,38.8,182.1z"/>
	</g>
	<g>
		<path style="fill:none;stroke:#000000;stroke-miterlimit:10;" d="M34.1,184.5c0,0,0.3,1.1,1.1,1.5s1.9,0,1.9,0s-0.3-1.1-1.1-1.5
			S34.1,184.5,34.1,184.5z"/>
	</g>
	<g>
		<path style="fill:none;stroke:#000000;stroke-miterlimit:10;" d="M33.5,182.3c0,0,0.3,1.1,1.1,1.5s1.9,0,1.9,0s-0.3-1.1-1.1-1.5
			C34.6,181.8,33.5,182.3,33.5,182.3z"/>
	</g>
	<g>
		<path style="fill:none;stroke:#000000;stroke-miterlimit:10;" d="M38.2,179.8c0,0,0.2,1-0.3,1.7s-1.6,0.8-1.6,0.8s-0.2-1,0.3-1.7
			C37.1,179.9,38.2,179.8,38.2,179.8z"/>
	</g>
	<g>
		<path style="fill:none;stroke:#000000;stroke-miterlimit:10;" d="M37.5,178c0,0,0.2,1-0.3,1.7s-1.5,0.8-1.5,0.8s-0.2-1,0.3-1.7
			S37.5,178,37.5,178z"/>
	</g>
	<g>
		<path style="fill:none;stroke:#000000;stroke-miterlimit:10;" d="M34.9,175.3c0,0,0.9,0.6,1,1.4c0.1,0.9-0.5,1.7-0.5,1.7
			s-0.9-0.6-1-1.4S34.9,175.3,34.9,175.3z"/>
	</g>
	<g>
		<path style="fill:none;stroke:#000000;stroke-miterlimit:10;" d="M33.2,180.2c0,0,0.3,1,1.1,1.4s1.8,0,1.8,0s-0.3-1-1.1-1.4
			C34.2,179.9,33.2,180.2,33.2,180.2z"/>
	</g>
	<g>
		<path style="fill:none;stroke:#000000;stroke-miterlimit:10;" d="M32.8,178.3c0,0,0.3,1,1,1.4c0.8,0.4,1.7,0,1.7,0s-0.3-1-1-1.4
			C33.8,177.9,32.8,178.3,32.8,178.3z"/>
	</g>
	<g>
		<path style="fill:none;stroke:#000000;stroke-miterlimit:10;" d="M41.3,195.3L41.3,195.3c-0.2,0-0.2-0.1-0.1-0.2l2.1-3.1
			c0-0.1,0.1-0.1,0.2,0c0.1,0,0.1,0.1,0,0.2L41.3,195.3C41.4,195.3,41.3,195.3,41.3,195.3z"/>
	</g>
	<g>
		<path style="fill:none;stroke:#000000;stroke-miterlimit:10;" d="M40.3,193.1C40.3,193.1,40.2,193.1,40.3,193.1
			c-0.2-0.1-0.2-0.1-0.1-0.2l2.3-3.7c0-0.1,0.1-0.1,0.2,0c0.1,0,0.1,0.1,0,0.2L40.3,193.1C40.4,193.1,40.3,193.1,40.3,193.1z"/>
	</g>
	<g>
		<path style="fill:none;stroke:#000000;stroke-miterlimit:10;" d="M39.8,190.6L39.8,190.6c-0.2,0-0.2-0.1-0.1-0.2l2.1-3.1
			c0-0.1,0.1-0.1,0.2,0c0.1,0,0.1,0.1,0,0.2L39.8,190.6C39.8,190.5,39.8,190.5,39.8,190.6z"/>
	</g>
	<g>
		<path style="fill:none;stroke:#000000;stroke-miterlimit:10;" d="M38.6,188.3L38.6,188.3c-0.2,0-0.2-0.1-0.1-0.2l2.5-3.5
			c0-0.1,0.1-0.1,0.2,0s0.1,0.1,0,0.2L38.6,188.3C38.7,188.3,38.6,188.3,38.6,188.3z"/>
	</g>
	<g>
		<path style="fill:none;stroke:#000000;stroke-miterlimit:10;" d="M38,186.5L38,186.5c-0.2,0-0.2-0.1-0.1-0.2l2.4-3.5
			c0-0.1,0.1-0.1,0.2,0c0.1,0,0.1,0.1,0,0.2L38,186.5C38.1,186.5,38,186.5,38,186.5z"/>
	</g>
	<g>
		<path style="fill:none;stroke:#000000;stroke-miterlimit:10;" d="M37.1,184.5L37.1,184.5c-0.2,0-0.2-0.1-0.1-0.2l2.4-3.5
			c0-0.1,0.1-0.1,0.2,0c0.1,0,0.1,0.1,0,0.2L37.1,184.5C37.2,184.5,37.2,184.5,37.1,184.5z"/>
	</g>
	<g>
		<path style="fill:none;stroke:#000000;stroke-miterlimit:10;" d="M36.7,181.9L36.7,181.9c-0.2,0-0.2-0.1-0.1-0.2l2.1-3.1
			c0-0.1,0.1-0.1,0.2,0c0.1,0,0.1,0.1,0,0.2L36.7,181.9C36.8,181.9,36.7,181.9,36.7,181.9z"/>
	</g>
	<g>
		<path style="fill:none;stroke:#000000;stroke-miterlimit:10;" d="M36.1,180.3L36.1,180.3c-0.2,0-0.2-0.1-0.1-0.2l2.1-3.1
			c0-0.1,0.1-0.1,0.2,0c0.1,0,0.1,0.1,0,0.2L36.1,180.3C36.2,180.3,36.1,180.3,36.1,180.3z"/>
	</g>
	<g>
		<path style="fill:none;stroke:#000000;stroke-miterlimit:10;" d="M37.2,195.4L37.2,195.4l-3.4-1.7c-0.1,0-0.1-0.1-0.1-0.2
			c0-0.1,0.1-0.1,0.2-0.1l3.4,1.7C37.3,195.2,37.4,195.3,37.2,195.4C37.3,195.4,37.3,195.4,37.2,195.4z"/>
	</g>
	<g>
		<path style="fill:none;stroke:#000000;stroke-miterlimit:10;" d="M37.1,193C37.1,193,37,193,37.1,193l-3.8-2.2
			c-0.1,0-0.1-0.1,0-0.2c0-0.1,0.1-0.1,0.2,0l3.8,2.1C37.2,192.8,37.2,192.9,37.1,193C37.2,193,37.1,193,37.1,193z"/>
	</g>
	<g>
		<path style="fill:none;stroke:#000000;stroke-miterlimit:10;" d="M36.3,190.4L36.3,190.4l-3.4-1.7c-0.1,0-0.1-0.1-0.1-0.2
			c0-0.1,0.1-0.1,0.2-0.1l3.4,1.7C36.4,190.2,36.4,190.3,36.3,190.4C36.4,190.4,36.4,190.4,36.3,190.4z"/>
	</g>
	<g>
		<path style="fill:none;stroke:#000000;stroke-miterlimit:10;" d="M36.2,187.6C36.2,187.6,36.1,187.6,36.2,187.6l-3.9-1.9
			c-0.1,0-0.1-0.1-0.1-0.2c0-0.1,0.1-0.1,0.2-0.1l3.8,1.9C36.3,187.4,36.3,187.5,36.2,187.6C36.3,187.6,36.2,187.6,36.2,187.6z"/>
	</g>
	<g>
		<path style="fill:none;stroke:#000000;stroke-miterlimit:10;" d="M36,185.5C35.9,185.5,35.9,185.5,36,185.5l-3.9-1.9
			c-0.1,0-0.1-0.1-0.1-0.2c0-0.1,0.1-0.1,0.2-0.1l3.8,1.9C36,185.3,36.1,185.4,36,185.5L36,185.5z"/>
	</g>
	<g>
		<path style="fill:none;stroke:#000000;stroke-miterlimit:10;" d="M35.8,183.6L35.8,183.6l-3.9-1.9c-0.1,0-0.1-0.1-0.1-0.2
			c0-0.1,0.1-0.1,0.2-0.1l3.8,1.9C35.9,183.4,35.9,183.4,35.8,183.6C35.9,183.5,35.8,183.6,35.8,183.6z"/>
	</g>
	<g>
		<path style="fill:none;stroke:#000000;stroke-miterlimit:10;" d="M35.2,181.3L35.2,181.3l-3.4-1.7c-0.1,0-0.1-0.1-0.1-0.2
			c0-0.1,0.1-0.1,0.2-0.1l3.4,1.7C35.3,181.1,35.4,181.1,35.2,181.3C35.3,181.2,35.3,181.3,35.2,181.3z"/>
	</g>
	<g>
		<path style="fill:none;stroke:#000000;stroke-miterlimit:10;" d="M35.1,179.5C35.1,179.6,35.1,179.5,35.1,179.5l-3.4-1.7
			c-0.1,0-0.1-0.1-0.1-0.2c0-0.1,0.1-0.1,0.2-0.1l3.4,1.7C35.2,179.3,35.3,179.4,35.1,179.5C35.2,179.5,35.2,179.5,35.1,179.5z"/>
	</g>
	<g>
		<path style="fill:none;stroke:#000000;stroke-miterlimit:10;" d="M35.1,176.1c-0.1,0-0.1,0-0.2-0.1l-0.4-2c0-0.1,0-0.1,0.1-0.2
			c0.1,0,0.1,0,0.2,0.1l0.4,2C35.2,176.1,35.1,176.1,35.1,176.1z"/>
	</g>
	<g>
		<path style="fill:none;stroke:#000000;stroke-miterlimit:10;" d="M40.9,203.3c-0.1,0-0.1,0-0.2-0.1c-0.2-1-5.5-24.4-5.6-25.5
			c0-0.1,0-0.1,0.1-0.1s0.1,0,0.1,0.1c0.1,1.2,5.5,25.3,5.6,25.5C41,203.3,41,203.3,40.9,203.3L40.9,203.3z"/>
	</g>
	<path style="fill:none;stroke:#000000;stroke-miterlimit:10;" d="M40.4,201.8c0,0,4.1-7.4,4.9-9.5c0.8-2,3.2-0.8,4.7,3.3
		c0,0-2.9-4.2-3.9-2.2C45,195.3,43.8,198.9,40.4,201.8z"/>
	<path style="fill:none;stroke:#000000;stroke-miterlimit:10;" d="M40.7,202.6c0,0-2.6-5.2-6.3-3.8C34.5,198.7,38.7,200,40.7,202.6z
		"/>
</g>
<g>
	<g>
		<path style="fill:none;stroke:#000000;stroke-miterlimit:10;" d="M217.9,228.7c0,0-0.4,1.7-1.7,2.4s-2.9,0.1-2.9,0.1
			s0.4-1.7,1.7-2.4C216.2,228.1,217.9,228.7,217.9,228.7z"/>
	</g>
	<g>
		<path style="fill:none;stroke:#000000;stroke-miterlimit:10;" d="M218.2,225.7c0,0-0.4,1.6-1.7,2.3c-1.2,0.6-2.8,0-2.8,0
			s0.4-1.6,1.7-2.3C216.6,225.2,218.2,225.7,218.2,225.7z"/>
	</g>
	<g>
		<path style="fill:none;stroke:#000000;stroke-miterlimit:10;" d="M210.4,225.9c0,0-0.3,1.7,0.6,2.9s2.6,1.3,2.6,1.3
			s0.3-1.7-0.6-2.9S210.4,225.9,210.4,225.9z"/>
	</g>
	<g>
		<path style="fill:none;stroke:#000000;stroke-miterlimit:10;" d="M211.2,222.8c0,0-0.3,1.6,0.5,2.7s2.5,1.2,2.5,1.2
			s0.3-1.6-0.5-2.7C212.9,222.9,211.2,222.8,211.2,222.8z"/>
	</g>
	<g>
		<path style="fill:none;stroke:#000000;stroke-miterlimit:10;" d="M219.1,222.6c0,0-0.4,1.6-1.6,2.2c-1.2,0.6-2.7,0-2.7,0
			s0.4-1.6,1.6-2.2C217.6,222,219.1,222.6,219.1,222.6z"/>
	</g>
	<g>
		<path style="fill:none;stroke:#000000;stroke-miterlimit:10;" d="M219.2,219.6c0,0-0.4,1.4-1.4,1.9c-1.1,0.5-2.4,0-2.4,0
			s0.4-1.4,1.4-1.9C217.9,219.1,219.2,219.6,219.2,219.6z"/>
	</g>
	<g>
		<path style="fill:none;stroke:#000000;stroke-miterlimit:10;" d="M212.1,220c0,0-0.3,1.6,0.5,2.7c0.8,1.1,2.4,1.2,2.4,1.2
			s0.3-1.6-0.5-2.7C213.8,220.1,212.1,220,212.1,220z"/>
	</g>
	<g>
		<path style="fill:none;stroke:#000000;stroke-miterlimit:10;" d="M213.2,216.9c0,0-0.3,1.4,0.5,2.4c0.7,0.9,2.2,1.1,2.2,1.1
			s0.3-1.4-0.5-2.4C214.7,217,213.2,216.9,213.2,216.9z"/>
	</g>
	<g>
		<path style="fill:none;stroke:#000000;stroke-miterlimit:10;" d="M219.7,216.9c0,0-0.3,1.3-1.3,1.8s-2.3,0-2.3,0s0.3-1.3,1.3-1.8
			C218.5,216.5,219.7,216.9,219.7,216.9z"/>
	</g>
	<g>
		<path style="fill:none;stroke:#000000;stroke-miterlimit:10;" d="M220.3,214.4c0,0-0.3,1.3-1.3,1.8s-2.3,0-2.3,0s0.3-1.3,1.3-1.8
			C219.1,213.9,220.3,214.4,220.3,214.4z"/>
	</g>
	<g>
		<path style="fill:none;stroke:#000000;stroke-miterlimit:10;" d="M214,214.5c0,0-0.2,1.3,0.4,2.2s2,1,2,1s0.2-1.3-0.4-2.2
			S214,214.5,214,214.5z"/>
	</g>
	<g>
		<path style="fill:none;stroke:#000000;stroke-miterlimit:10;" d="M214.6,211.8c0,0-0.2,1.3,0.4,2.2s2,1,2,1s0.2-1.3-0.4-2.2
			S214.6,211.8,214.6,211.8z"/>
	</g>
	<g>
		<path style="fill:none;stroke:#000000;stroke-miterlimit:10;" d="M220.9,211.7c0,0-0.3,1.2-1.2,1.7s-2.1,0-2.1,0s0.3-1.2,1.2-1.7
			C219.7,211.2,220.9,211.7,220.9,211.7z"/>
	</g>
	<g>
		<path style="fill:none;stroke:#000000;stroke-miterlimit:10;" d="M221.1,209.3c0,0-0.3,1.2-1.2,1.6s-2,0-2,0s0.3-1.2,1.2-1.6
			S221.1,209.3,221.1,209.3z"/>
	</g>
	<g>
		<path style="fill:none;stroke:#000000;stroke-miterlimit:10;" d="M219.7,205.1c0,0,0.7,1.1,0.4,2.1s-1.4,1.5-1.4,1.5
			s-0.7-1.1-0.4-2.1C218.6,205.7,219.7,205.1,219.7,205.1z"/>
	</g>
	<g>
		<path style="fill:none;stroke:#000000;stroke-miterlimit:10;" d="M215.3,209.5c0,0-0.2,1.2,0.4,2.1c0.6,0.8,1.9,0.9,1.9,0.9
			s0.2-1.2-0.4-2.1C216.6,209.6,215.3,209.5,215.3,209.5z"/>
	</g>
	<g>
		<path style="fill:none;stroke:#000000;stroke-miterlimit:10;" d="M215.9,207.2c0,0-0.2,1.2,0.4,2c0.6,0.8,1.8,0.9,1.8,0.9
			s0.2-1.2-0.4-2C217.2,207.3,215.9,207.2,215.9,207.2z"/>
	</g>
	<g>
		<path style="fill:none;stroke:#000000;stroke-miterlimit:10;" d="M216.1,229.8C216.1,229.8,216,229.7,216.1,229.8
			c-0.1-0.1-0.1-0.2,0-0.3l3.9-2.2c0.1,0,0.2,0,0.2,0.1s0,0.2-0.1,0.2L216.1,229.8L216.1,229.8z"/>
	</g>
	<g>
		<path style="fill:none;stroke:#000000;stroke-miterlimit:10;" d="M216.2,226.9C216.1,226.9,216.1,226.9,216.2,226.9
			c-0.1-0.1-0.1-0.2,0-0.3l4.3-2.7c0.1,0,0.2,0,0.2,0c0,0.1,0,0.2,0,0.2l-4.3,2.7C216.3,226.9,216.2,226.9,216.2,226.9z"/>
	</g>
	<g>
		<path style="fill:none;stroke:#000000;stroke-miterlimit:10;" d="M216.9,223.9C216.9,223.9,216.8,223.9,216.9,223.9
			c-0.1-0.1-0.1-0.2,0-0.3l3.9-2.2c0.1,0,0.2,0,0.2,0.1s0,0.2-0.1,0.2L216.9,223.9C217,223.9,217,223.9,216.9,223.9z"/>
	</g>
	<g>
		<path style="fill:none;stroke:#000000;stroke-miterlimit:10;" d="M216.9,220.9C216.8,220.9,216.8,220.9,216.9,220.9
			c-0.1-0.2-0.1-0.2,0-0.3l4.4-2.4c0.1,0,0.2,0,0.2,0.1s0,0.2-0.1,0.2L216.9,220.9C217,220.9,216.9,220.9,216.9,220.9z"/>
	</g>
	<g>
		<path style="fill:none;stroke:#000000;stroke-miterlimit:10;" d="M217.2,218.7C217.1,218.7,217.1,218.7,217.2,218.7
			c-0.1-0.1-0.1-0.2,0-0.3l4.4-2.5c0.1,0,0.2,0,0.2,0.1s0,0.2-0.1,0.2L217.2,218.7L217.2,218.7z"/>
	</g>
	<g>
		<path style="fill:none;stroke:#000000;stroke-miterlimit:10;" d="M217.3,216.1C217.2,216.1,217.2,216.1,217.3,216.1
			c-0.1-0.1-0.1-0.2,0-0.3l4.4-2.5c0.1,0,0.2,0,0.2,0.1s0,0.2-0.1,0.2L217.3,216.1L217.3,216.1z"/>
	</g>
	<g>
		<path style="fill:none;stroke:#000000;stroke-miterlimit:10;" d="M218.2,213.1C218.1,213.1,218.1,213.1,218.2,213.1
			c-0.1-0.1-0.1-0.2,0-0.3l3.9-2.2c0.1,0,0.2,0,0.2,0.1s0,0.2-0.1,0.2L218.2,213.1C218.3,213.1,218.2,213.1,218.2,213.1z"/>
	</g>
	<g>
		<path style="fill:none;stroke:#000000;stroke-miterlimit:10;" d="M218.4,211.1C218.3,211.1,218.3,211,218.4,211.1
			c-0.1-0.1-0.1-0.2,0-0.3l3.9-2.2c0.1,0,0.2,0,0.2,0.1s0,0.2-0.1,0.2L218.4,211.1L218.4,211.1z"/>
	</g>
	<g>
		<path style="fill:none;stroke:#000000;stroke-miterlimit:10;" d="M211.7,227.8C211.7,227.8,211.6,227.8,211.7,227.8l-2.8-3.6
			c-0.1-0.1,0-0.2,0-0.2c0.1-0.1,0.2,0,0.2,0l2.7,3.6C211.9,227.7,211.8,227.8,211.7,227.8C211.8,227.8,211.8,227.8,211.7,227.8z"/>
	</g>
	<g>
		<path style="fill:none;stroke:#000000;stroke-miterlimit:10;" d="M212.8,225.2C212.7,225.2,212.7,225.1,212.8,225.2l-3-4.3
			c0-0.1,0-0.2,0-0.2h0.2l2.9,4.2c0,0.1,0,0.2,0,0.2C212.9,225.2,212.8,225.2,212.8,225.2z"/>
	</g>
	<g>
		<path style="fill:none;stroke:#000000;stroke-miterlimit:10;" d="M213.3,222L213.3,222l-2.8-3.6c-0.1-0.1,0-0.2,0-0.2
			c0.1-0.1,0.2,0,0.2,0l2.7,3.6C213.5,221.9,213.4,222,213.3,222C213.4,222,213.4,222,213.3,222z"/>
	</g>
	<g>
		<path style="fill:none;stroke:#000000;stroke-miterlimit:10;" d="M214.7,218.9C214.6,218.9,214.6,218.9,214.7,218.9l-3.2-4
			c-0.1-0.1,0-0.2,0-0.2c0.1-0.1,0.2,0,0.2,0l3.1,4c0.1,0.1,0,0.2,0,0.2H214.7z"/>
	</g>
	<g>
		<path style="fill:none;stroke:#000000;stroke-miterlimit:10;" d="M215.5,216.6C215.5,216.6,215.4,216.5,215.5,216.6l-3.1-4.1
			c-0.1-0.1,0-0.2,0-0.2c0.1-0.1,0.2,0,0.2,0l3,4c0.1,0.1,0,0.2,0,0.2C215.6,216.6,215.5,216.6,215.5,216.6z"/>
	</g>
	<g>
		<path style="fill:none;stroke:#000000;stroke-miterlimit:10;" d="M216.4,214.4C216.3,214.4,216.3,214.4,216.4,214.4l-3.1-4.1
			c-0.1-0.1,0-0.2,0-0.2c0.1-0.1,0.2,0,0.2,0l3,4c0.1,0.1,0,0.2,0,0.2C216.5,214.4,216.4,214.4,216.4,214.4z"/>
	</g>
	<g>
		<path style="fill:none;stroke:#000000;stroke-miterlimit:10;" d="M217,211.7C216.9,211.7,216.9,211.6,217,211.7l-2.8-3.6
			c-0.1-0.1,0-0.2,0-0.2c0.1-0.1,0.2,0,0.2,0l2.7,3.6C217.2,211.6,217.1,211.7,217,211.7L217,211.7z"/>
	</g>
	<g>
		<path style="fill:none;stroke:#000000;stroke-miterlimit:10;" d="M217.7,209.8L217.7,209.8l-2.8-3.6c-0.1-0.1,0-0.2,0-0.2
			c0.1-0.1,0.2,0,0.2,0l2.7,3.6C217.9,209.7,217.8,209.8,217.7,209.8C217.8,209.8,217.8,209.8,217.7,209.8z"/>
	</g>
	<g>
		<path style="fill:none;stroke:#000000;stroke-miterlimit:10;" d="M219.4,206.1c-0.1,0-0.1-0.1-0.1-0.2l0.6-2.4
			c0-0.1,0.1-0.1,0.2-0.1s0.1,0.1,0.1,0.2l-0.6,2.4C219.6,206.1,219.5,206.1,219.4,206.1z"/>
	</g>
	<g>
		<path style="fill:none;stroke:#000000;stroke-miterlimit:10;" d="M211.5,238.2c-0.1,0-0.1-0.1-0.1-0.2c0.3-1.2,6.9-28.9,7.3-30.2
			c0-0.1,0.1-0.1,0.2-0.1c0.1,0,0.1,0.1,0.1,0.2c-0.5,1.3-7.3,29.8-7.3,30.1C211.6,238.1,211.6,238.2,211.5,238.2L211.5,238.2z"/>
	</g>
	<path style="fill:none;stroke:#000000;stroke-miterlimit:10;" d="M211.8,236.2c0,0,8.3-5.8,10.1-7.6s3.8,0.8,3.3,5.9
		c0,0-0.9-6-3-4.4S216.9,234.9,211.8,236.2z"/>
	<path style="fill:none;stroke:#000000;stroke-miterlimit:10;" d="M211.7,237.3c0,0,0-6.9-4.7-7.4
		C207,229.9,210.9,233.4,211.7,237.3z"/>
</g>
</svg>
