<?xml version="1.0" encoding="utf-8"?>
<!-- Generator: Adobe Illustrator 22.1.0, SVG Export Plug-In . SVG Version: 6.00 Build 0)  -->
<svg version="1.1" xmlns="http://www.w3.org/2000/svg" xmlns:xlink="http://www.w3.org/1999/xlink" x="0px" y="0px"
	 viewBox="0 0 256 256" style="enable-background:new 0 0 256 256;" xml:space="preserve">
<g id="Layer_1">
	<g>
		<path style="fill:#FFFFFF;stroke:#2E6634;stroke-width:5;stroke-miterlimit:10;" d="M198,245.6H58.1c0-13.2-4.6-32.6,1.7-39.4
			c10.8-11.6,24.2-15.2,43.3-18.4c0.4-0.1,0.8-0.2,1.2-0.3c3.9-1.2,6.7-4.8,6.7-9V175c-15.3-6.3-26.1-21.4-26.1-39v-2.2
			c-5.7-1.4-9.9-6.6-9.9-12.7c0-3.5,1.4-6.8,3.7-9.1c1.7-1.7,3.8-3,6.2-3.6V90.6c0-6.7,5.4-12.1,12.1-12.1h41.9
			c4.1,8.1,10.8,14.7,19,18.6c0.4,0.2,0.7,0.3,1.1,0.5c0.2,0.1,0.5,0.2,0.7,0.3c0.3,0.1,0.6,0.3,1,0.4s0.8,0.3,1.2,0.4
			c0.4,0.2,0.9,0.3,1.3,0.5c0.4,0.1,0.8,0.2,1.2,0.4c0.3,0.1,0.6,0.2,0.9,0.2c0.3,0.1,0.6,0.2,0.9,0.2c0.1,0,0.2,0,0.2,0.1
			c0.3,0.1,0.6,0.1,0.9,0.2c0.2,0.1,0.5,0.1,0.7,0.1c0.4,0.1,0.8,0.2,1.3,0.2v7.5c2.6,0.4,4.9,1.6,6.8,3.3c2.6,2.4,4.2,5.8,4.2,9.6
			c0,6.5-4.8,11.9-11,12.9v1.1c0,17.6-10.6,33.1-25.8,39.7v3.4c0,4,2.5,7.5,6.1,8.8c0.6,0.2,1.3,0.4,1.9,0.5
			c17.6,2.6,33.1,6,43.1,18.7C200.3,213.5,198,232.6,198,245.6z"/>
	</g>
	<path style="fill:#44B764;" d="M200.7,248.9H55.6c0-14.1-3.1-34.7,3.4-42c6.6-7.4,14.2-11.7,23.4-14.8c3.5-1.1,7.2-2.1,11.2-3
		c3.1-0.7,6.3-1.3,9.8-1.9c0.4-0.1,0.9-0.2,1.3-0.3c4.4,13.1,12.8,22.9,23.7,30.7c11.3-6.2,18.6-16.7,22.5-31.2
		c0.6,0.2,1.3,0.4,2,0.5c3.2,0.5,6.4,1,9.4,1.6c3.9,0.8,7.6,1.6,11.2,2.8c9.4,2.9,17.5,7.5,23.6,15.5
		C203,214.7,200.7,235.1,200.7,248.9z"/>
	<path style="opacity:0.6;fill:#0C0C0C;" d="M173.5,193.6V249h-91v-54.6c3.5-1.1,7.2-2,11.2-2.9v36l68.7-0.4V191
		C166.2,191.7,169.9,192.5,173.5,193.6z"/>
	<g>
		<g>
			<path style="fill:#2E6634;" d="M175.9,74.2v37.2c-1.9-1.7-4.2-2.9-6.8-3.3v-7.5c-0.4-0.1-0.8-0.1-1.3-0.2c-0.2,0-0.5-0.1-0.7-0.1
				c-0.3-0.1-0.6-0.1-0.9-0.2c-0.1,0-0.2,0-0.2-0.1c-0.3-0.1-0.6-0.1-0.9-0.2c-0.3-0.1-0.6-0.2-0.9-0.2c-0.4-0.1-0.8-0.2-1.2-0.4
				c-0.4-0.1-0.9-0.3-1.3-0.5c-0.4-0.1-0.8-0.3-1.2-0.4c-0.3-0.1-0.7-0.3-1-0.4c-0.2-0.1-0.5-0.2-0.7-0.3c-0.4-0.2-0.7-0.3-1.1-0.5
				c-8.2-4-14.9-10.5-19-18.6H97c-6.7,0-12.1,5.4-12.1,12.1v17.8c-2.4,0.6-4.5,1.8-6.2,3.6V79c0-5.1,2.9-9.6,7.1-11.8
				c-10.9-17.7,1.7-38.1,25.7-38.1c25.2,0,60.7,19,64.3,43.8c0,0.2,0,0.4,0.1,0.6l0,0C175.9,73.8,175.9,74,175.9,74.2z"/>
		</g>
		<g>
			<circle style="fill:#2E6634;" cx="106.4" cy="117.2" r="4.8"/>
		</g>
		<g>
			<circle style="fill:#2E6634;" cx="148.4" cy="117.2" r="4.8"/>
		</g>
		<g style="opacity:0.1;">
			<path style="fill:#0C0C0C;" d="M126.3,154.2c-10.6,0-17-7.5-17.1-7.6c-0.5-0.6-0.4-1.4,0.2-1.9s1.4-0.4,1.9,0.2
				c0.5,0.6,12.7,14.8,32-0.2c0.6-0.5,1.5-0.4,1.9,0.2c0.5,0.6,0.4,1.5-0.2,1.9C137.9,152.3,131.6,154.2,126.3,154.2z"/>
		</g>
	</g>
	<g>
		<path style="fill:#D6AD63;" d="M198.9,58.6c0,13.2-31.9,31.4-71.1,31.4S56.9,71.8,56.9,58.6s31.8-24,71-24S198.9,45.4,198.9,58.6z
			"/>
		<path style="fill:#D6AD63;" d="M173.2,44.8c-7.6,4.2-23.7,9.2-43.4,9.2s-37.7-5-46.3-9.2l3.7-31.7c0-3.6,18.4-6.6,41.1-6.6
			s41.1,3,41.1,6.6L173.2,44.8z"/>
		<path style="opacity:0.2;fill:#0C0C0C;" d="M173.8,43.3c0,3.6-18.7,13.4-43.8,13.4s-47-9.8-47-13.4l0.5-4.5
			c8.6,4.2,26.6,9.2,46.3,9.2s35.8-5,43.4-9.2L173.8,43.3z"/>
	</g>
	<path style="fill:none;stroke:#896A32;stroke-width:5;stroke-miterlimit:10;" d="M198.9,58.6c0,13.2-31.9,31.4-71.1,31.4
		S56.9,71.8,56.9,58.6c0-7.6,10.6-14.5,27.2-18.9l3.1-26.6c0-3.6,18.4-6.6,41.1-6.6s41.1,3,41.1,6.6l3.2,26.9
		C188.7,44.4,198.9,51.1,198.9,58.6z"/>
	<path style="opacity:0.2;fill:#0C0C0C;" d="M188,200c0,0,7,35.5-6,42.5s-41.8,6.5-41.8,6.5h58.2C198.4,249,211.5,212,188,200z"/>
	<path style="fill:none;stroke:#2E6634;stroke-width:5;stroke-miterlimit:10;" d="M200.7,248.9H55.6c0-14.1-3.1-34.7,3.4-42
		c6.6-7.4,14.2-11.7,23.4-14.8c3.5-1.1,7.2-2.1,11.2-3c3.1-0.7,6.3-1.3,9.8-1.9c0.4-0.1,0.9-0.2,1.3-0.3
		c4.4,13.1,12.8,22.9,23.7,30.7c11.3-6.2,18.6-16.7,22.5-31.2c0.6,0.2,1.3,0.4,2,0.5c3.2,0.5,6.4,1,9.4,1.6
		c3.9,0.8,7.6,1.6,11.2,2.8c9.4,2.9,17.5,7.5,23.6,15.5C203,214.7,200.7,235.1,200.7,248.9z"/>
</g>
<g id="guidelines">
</g>
</svg>
