<?xml version="1.0" encoding="utf-8"?>
<!-- Generator: Adobe Illustrator 17.0.0, SVG Export Plug-In . SVG Version: 6.00 Build 0)  -->
<!DOCTYPE svg PUBLIC "-//W3C//DTD SVG 1.1//EN" "http://www.w3.org/Graphics/SVG/1.1/DTD/svg11.dtd" [
	<!ENTITY ns_flows "http://ns.adobe.com/Flows/1.0/">
	<!ENTITY ns_extend "http://ns.adobe.com/Extensibility/1.0/">
	<!ENTITY ns_ai "http://ns.adobe.com/AdobeIllustrator/10.0/">
	<!ENTITY ns_graphs "http://ns.adobe.com/Graphs/1.0/">
]>
<svg version="1.1" id="svg2" xmlns:x="&ns_extend;" xmlns:i="&ns_ai;" xmlns:graph="&ns_graphs;"
	 xmlns="http://www.w3.org/2000/svg" xmlns:xlink="http://www.w3.org/1999/xlink" xmlns:a="http://ns.adobe.com/AdobeSVGViewerExtensions/3.0/"
	 x="0px" y="0px" width="2000px" height="3000px" viewBox="0 0 2000 3000" style="enable-background:new 0 0 2000 3000;"
	 xml:space="preserve">
<g id="layer1" transform="translate(0,1947.6378)">
	<path id="path2995" d="M1402.6-1333.1c0.1-0.4,5.6,1,15.9,3.9c10.2,2.9,25.2,7.3,44.4,12.7c38.3,10.7,93.5,25.3,160.9,38.9
		c55.3,12.1,118.8,23.7,187.7,32.2c-6.1-14.2-16.8-27.1-30.8-36.1c-12-9.6-26.4-16.4-41.5-19.5c0.1-1.5,0.2-2.9,0.3-4.4
		c1.7-29,3.4-57.4,5.1-85.1c-32.5-13.5-64.8-24.6-96.1-33.4c-23.7-7.5-46.8-13.6-69.1-18.6c-12.8,11.7-22.9,25.5-30.2,39.8
		c-6.8,11.8-11.8,24-15.1,36c-3.3,12-5.1,23.8-5.5,34.9c-8.1-4.8-16.5-8.5-24.7-11.2c-8.2-2.7-16.3-4.4-24-5.3
		c-6.2-0.9-12.2-1.3-17.8-1.2c-5.6,0.1-10.9,0.6-15.7,1.3c-9.7,1.5-17.8,4-24.2,6.4c-6.4,2.4-11.1,4.8-14.3,6.4
		C1404.4-1333.8,1402.7-1332.9,1402.6-1333.1c-0.1-0.2,1.3-1.5,4.2-3.5c3-2,7.6-4.9,14-7.8c6.4-2.9,14.6-5.9,24.6-7.8
		c5-1,10.5-1.7,16.3-2c5.8-0.3,12.1-0.1,18.6,0.6c7.5,1.1,15.3,3.1,23.1,6.2c7.9,3.1,15.8,7.4,23.4,13c-0.4-11.3,0.4-23.3,2.8-35.5
		c2.4-12.2,6.4-24.5,12.3-36.5c8.6-15.6,20.4-30.6,35.3-43.5c23.7,4.5,48.4,10.1,73.8,17.1c32.6,10.1,66.4,22.8,100.4,38.1
		c-2,27.6-4.1,55.9-6.2,84.7c-0.1,1.5-0.2,2.9-0.3,4.4c15.4,1.5,30,7.3,41.9,16.2c13.8,12.5,23.8,29.2,28.8,47.3
		c-35.6-3.1-69.8-7.2-102.2-11.8c-32.4-4.7-62.9-9.9-91.3-15.6c-33.8-7.2-64.4-14.8-91.4-22.1s-50.2-14.3-69.2-20.3
		c-19-6.1-33.8-11.2-43.8-14.9C1407.7-1330.5,1402.4-1332.7,1402.6-1333.1L1402.6-1333.1z"/>
	<path id="path3007" d="M1733.1-1243.8c0.5,0.2-6.4,16.1-19.5,45.4c-4.4,6.2-9.2,13.1-14.5,20.6c0.1,6.2,0.1,12.7,0.1,19.6
		c6.6,7.3,13.6,15.1,21.1,23.4c2,7.6,4,15.5,6.2,23.8c9.1,10.9,20.8,20.8,34.9,28.3c6,3.3,12.5,6.2,19.3,8.7s13.9,4.8,21.3,7
		c6.8,2,13.8,4,21,6.1c7.1,2.1,14.4,4.5,21.7,7.3c8.6,3.3,17.3,7.4,25.6,12.3c8.3,5,16.3,10.9,23.5,18c6.7,6.7,12.6,14.3,17.5,22.7
		c4.9,8.4,8.8,17.6,11.3,27.4c2.4,9.1,3.6,18.6,3.6,28.3c-0.1,9.6-1.4,19.4-4.2,28.9c2.9,33.8,3.6,69.2,1.3,105.8
		c-2.2,36.5-7.3,74.2-15.7,112.2c-3.1,13.8-6.5,27.6-10.1,41.5c-3.6,13.9-7.2,27.9-10.6,42c-2,8.4-4,17.2-7.8,25.7
		c-3.7,8.5-9.6,16.7-18.2,22c-8.2,4.4-18.6,4.6-27.9,0c19.2,36,32.8,75.8,39.3,117.2c2.5,20,3.5,40.1,3.9,60.4
		c0.1,6.4,0.2,12.7,0.2,19c0.2,26.7,0,52.9,1.8,78.7c1,14.4,2.5,28.9,3.1,43.6c0.6,14.7,0,29.7-3.3,44.2c-2.1,9.4-5.2,18.2-7.7,26.9
		c-2.4,8.6-4.4,17.2-4.2,25.5c0.1,10.8,3.8,21.7,7.4,32.8c3.7,11.2,7.4,23.2,7.4,35.8c-0.2,11.6-3.4,22.4-6.5,32.5
		c-3,10.3-5.9,20.2-5.6,29.8c0.1,8.3,2.7,16.8,4.6,25.8c2.1,9.1,3.4,19.1,1.1,29c-2.7,11.9-11.4,21.8-22.5,26
		c-4.6,7.1-9.1,14.1-13.7,21c0,0,0,0,0,0c1.1,2.4,2.2,4.8,3.2,7.2c2,8.1,4,16.1,5.9,24c3.3,13.1,6.3,26.3,8.4,39.4
		c2.1,13.1,3.4,26.1,3.4,39.1c0,15.1-1.8,29.8-4.9,44c-3.2,14.1-7.7,27.6-13.5,40.1c1,34.8,1.8,67.5,2.6,97.7
		c-6.1,51.2-11.5,95.4-15.9,131.3c-19.7,66.7-31.2,104-32,103.8s9.2-38,27.6-104.6c3.7-35.9,8.4-79.9,13.9-130.7
		c-1.1-30.5-2.2-63.6-3.3-98.8c5.5-12.4,9.8-25.6,12.8-39.5c3-13.9,4.6-28.4,4.6-43.2c0-12.4-1.4-25-3.5-37.7s-5.2-25.6-8.5-38.7
		c-2-7.8-4-15.7-6-23.6c-0.9-3.5-1.8-7.1-2.7-10.6c0,0,0,0,0,0c5.3-8.8,10.7-17.6,16.1-26.6c9-3.7,16.6-12.1,19.1-21.6
		c2-7.6,0.6-16.1-1.2-24.8c-2-8.6-4.6-17.6-5-27.6c-0.2-11.5,2.7-22.4,5.8-32.8c2.9-10.2,6-20.1,6-29.9c0.2-10.6-3.4-21.5-7-32.7
		c-3.7-11-7.6-22.8-8-35.6c-0.2-9.9,1.9-19.4,4.5-28.4c2.6-9,5.6-17.7,7.5-26.4c3-13.4,3.5-27.4,3-41.7c-0.5-14.2-2.1-28.6-3.1-43.3
		c-1.8-26.3-1.7-52.8-1.9-79.3c-0.1-6.3-0.1-12.6-0.2-18.9c-0.4-20.1-1.3-39.9-3.8-59.3c-4.2-42.7-15.4-83.7-32.2-121
		c8.4,1.4,18.1-0.8,25.7-5.9c6.4-3.7,11-10.4,14.4-17.6c3.4-7.4,5.2-15.6,7.3-24c3.5-14.2,7.2-28.2,10.8-42.1
		c3.6-13.8,7.1-27.5,10.2-41.2c8.5-37.8,13.7-75.2,16.1-111.5s2-71.6-0.7-105.2c2.6-9,4-18.3,4.1-27.5c0.2-9.2-0.9-18.3-3-26.9
		c-2.3-9-5.8-17.6-10.3-25.5c-4.5-7.9-10-15-16.2-21.3c-6.6-6.7-14.1-12.3-21.9-17.1c-7.8-4.8-16.1-8.7-24.4-12.1
		c-7-2.8-14.1-5.1-21.1-7.3c-7-2.2-14-4.2-20.9-6.4c-7.4-2.3-14.6-4.7-21.6-7.4c-7-2.7-13.7-5.8-20-9.3
		c-14.8-8.5-27.1-19.4-36.6-31.2c-2-8.3-3.9-16.2-5.8-23.9c-7.3-8.6-14.2-16.7-20.6-24.2c0-7.8,0.1-15.2,0.1-22.1
		c5.6-7.7,10.7-14.8,15.3-21.1C1724.8-1228.6,1732.6-1244,1733.1-1243.8L1733.1-1243.8z"/>
	<path id="path3013" d="M1637.8-276.1c1.7-0.1,5.6,75.6,10.1,190.6c-2.6,68.6-6,151.2-10.1,240.1c-0.3,7.5-0.7,15-1,22.5
		c-5.2,29.4-10.2,58-15.1,85.6c4,14.1,8,27.9,11.8,41.3c-0.7,53.9-2.2,102.7-3.9,143.7v0c-1.8,41.3-3.9,74.8-5.7,97.9
		c-1.8,23.2-3.2,36-3.9,35.9s-0.6-12.9-0.1-36.1s1.5-56.7,2.4-98c0,0,0,0,0,0c0.9-40.7,1.8-88.9,2-142.2c-3.9-13.7-7.9-27.7-12-42.1
		c4.7-28,9.6-57.2,14.6-87.1c0.3-7.4,0.7-14.9,1-22.4c4-88.5,8.1-170.8,11.7-239.1C1636.9-200.4,1636.1-276.1,1637.8-276.1
		L1637.8-276.1z"/>
	<path id="path3019" d="M1646.7-121.3c0.5,0,1.4,5.5,2.7,15.9c1.2,10.4,2.7,25.5,4.3,44.7c3.2,38.3,6.9,92.7,9.5,156.7
		c1.7,43.4,3,91.3,3.3,141.6c0,1.4,0,2.8,0,4.2c5.2,45.2,10.1,88.5,14.5,128.2c-3,50.2-4,95-4.2,131.1c-0.2,29.5,0.1,53.3,0.2,69.8
		c0.1,16.4,0,25.5-0.6,25.5c-0.7,0-1.8-9-3.1-25.4s-2.6-40.3-3.3-69.9c-0.8-36.1-0.7-80.8,1.7-130.9c-4.8-39.6-10-82.7-15.2-127.9
		c0-1.4,0-2.8,0-4.2c-0.4-50.4-1.3-98.3-2.6-141.9c-1.8-63.9-4.2-118.3-5.9-156.6c-0.8-19.2-1.5-34.4-1.7-44.8
		S1646.2-121.3,1646.7-121.3L1646.7-121.3z"/>
	<path id="path3025" d="M1435.3-1020.5c0.6-0.1,2,5,4.4,14.4c2.4,9.4,5.7,23.2,10.1,40.4s9.8,37.9,16.5,61
		c6.7,23.2,14.7,48.9,24.1,76.2c0,0,0,0,0,0c4.2,12.3,8.8,25,13.2,38.1c4.5,13.1,8.8,26.6,12.6,40.6c2.2,8.2,4.1,16.3,5.7,24.5
		c3.8,19.2,5.6,38.5,4.8,56.9s-4.1,35.8-9.9,51.5c-5.1,13.7-12,25.8-19.7,36.2c-7.7,10.4-16.3,19-24.9,25.9l0,0
		c-9.3,7.5-18.6,13.1-27.1,17.2s-16.2,6.7-22.5,8.5c-6.3,1.8-11.4,2.6-14.8,3c-3.4,0.4-5.2,0.4-5.3,0c-0.1-0.3,1.7-0.9,4.9-1.9
		c3.2-1,8-2.4,14-4.7s13.2-5.3,21.2-9.7c7.9-4.4,16.6-10.1,25.2-17.6l0,0c7.9-6.9,15.8-15.3,22.9-25.4c7.1-10,13.3-21.6,17.8-34.5
		c5.3-14.9,8.2-31.3,8.7-48.8s-1.3-36-5-54.6c-1.6-7.9-3.5-15.8-5.6-23.8c-3.7-13.7-7.9-27-12.3-40c-4.4-13-8.8-25.7-12.9-38.2l0,0
		c-9.2-27.6-16.8-53.6-22.9-77.1c-6.2-23.5-10.9-44.4-14.5-61.9c-3.6-17.5-6-31.5-7.4-41.1
		C1435.2-1015.1,1434.8-1020.4,1435.3-1020.5L1435.3-1020.5z"/>
	<path id="path3031" d="M1759.9-1089c0.3-0.1,1.3,1.3,3,4.2s3.9,7.2,6.7,12.9c5.5,11.3,13,28,21.2,49.1
		c8.1,21.1,16.9,46.7,24.9,75.6s15.3,61.2,20.7,95.6l0,0c0.3,2.2,0.7,4.5,1,6.7c5.2,35.2,8,69,8.9,99.8s0.1,58.5-1.5,81.8
		c-1.6,23.2-4,41.9-6,54.8c-1,6.4-1.9,11.4-2.7,14.7c-0.8,3.3-1.3,5.1-1.7,5c-0.3,0-0.4-1.9-0.3-5.3c0.1-3.4,0.4-8.5,0.8-14.9
		c0.8-12.9,2.1-31.6,2.8-54.7c0.7-23.1,0.8-50.6-0.6-81.1c-1.4-30.5-4.4-63.9-9.6-98.7c-0.3-2.2-0.7-4.4-1-6.6l0,0
		c-5.3-34-12.2-66-19.6-94.8s-15.4-54.3-22.6-75.6s-13.7-38.2-18.1-50c-2.2-5.9-3.9-10.5-5-13.6
		C1760-1087.1,1759.6-1088.8,1759.9-1089L1759.9-1089z"/>
	<path id="path3037" d="M1554.4-627.5c0.2-0.7,4.1-0.2,10.9,1c6.8,1.2,16.7,3,28.9,4.8s26.8,3.4,43,4.2s34.1,0.7,52.7-0.7
		c19.4-1.5,37.7-4.3,54-7.7c11.7-2.5,22.4-5.2,31.9-8s17.7-5.4,24.5-7.7s12.2-4.2,16-5.4s5.9-1.7,6.1-1.2s-1.5,1.8-4.9,3.9
		c-3.4,2-8.5,4.8-15.1,7.9c-6.6,3.1-14.8,6.5-24.3,9.9c-9.5,3.4-20.3,6.7-32.2,9.6c-16.6,4.1-35.4,7.3-55.3,8.8
		c-19.2,1.5-37.5,1.3-54.1,0s-31.4-3.7-43.7-6.4s-22-5.6-28.6-8C1557.7-625,1554.2-626.8,1554.4-627.5L1554.4-627.5z"/>
	<path id="path3043" d="M1468.1-1044.3c1.2-0.3,7.9,18.9,17.8,50.7c10,31.9,23.2,76.4,37.6,126.8l0,0c1.6,8.2,3.2,16.5,4.8,25
		c11,57.3,20.4,109.3,26.8,147c6.3,37.7,9.6,61.2,8.2,61.4s-7-22.7-15.1-60c-8.1-37.3-18.6-89-29.6-146.1
		c-1.6-8.4-3.2-16.8-4.8-24.9l0,0c-14.1-50.3-26.2-95-34.4-127.3C1471.3-1024.1,1466.8-1044,1468.1-1044.3z"/>
	<path id="path3049" d="M1810.5-1056.2c0.3-0.1,1.3,1.3,2.9,4.3c1.6,3,3.8,7.4,6.5,13.2c5.3,11.6,12.4,28.8,19.6,50.5
		c7.2,21.7,14.6,48,20.4,77.7s10.1,62.8,11.6,97.8c0.3,6.2,0.4,12.4,0.5,18.4l0,0c0.5,32.8-1.6,63.9-5.2,91.8s-8.6,52.7-13.8,73.1
		c-5.2,20.5-10.4,36.7-14.4,47.7c-2,5.5-3.7,9.7-4.9,12.6c-1.3,2.8-2.1,4.2-2.4,4.1c-0.3-0.1-0.1-1.7,0.6-4.7s1.8-7.4,3.2-13
		c2.9-11.3,7.1-27.7,11.3-48.1s8.5-45.1,11.5-72.7c3-27.6,4.7-58.3,4.2-90.6l0,0c-0.1-6-0.3-12.1-0.5-18.2
		c-1.5-34.4-5.4-67.1-10.7-96.5c-5.3-29.4-11.8-55.6-18.1-77.3c-6.3-21.8-12.3-39.1-16.5-51.1c-2.1-6-3.7-10.7-4.7-13.9
		C1810.6-1054.3,1810.2-1056.1,1810.5-1056.2L1810.5-1056.2z"/>
	<path id="path3055" d="M1703.3-439.9c-0.1-0.7,1.6-1.5,4.7-2.5c3.1-1,7.6-2.1,13.1-3.5c5.6-1.3,12.2-2.9,19.5-4.7
		c7.4-1.8,15.4-3.8,23.9-6.1l0,0c1.4-0.4,2.8-0.8,4.2-1.1c9-2.4,17.5-4.9,25.2-7.2s14.7-4.5,20.6-6.3s10.7-3.2,14.1-4
		c3.4-0.8,5.4-1,5.7-0.3c0.3,0.6-1.2,2-4.2,3.9c-3,1.9-7.4,4.3-13,7c-5.6,2.7-12.5,5.6-20.2,8.4c-7.7,2.9-16.3,5.7-25.5,8.2
		c-1.5,0.4-2.9,0.8-4.3,1.1l0,0c-8.7,2.2-17,4-24.6,5.3c-7.6,1.3-14.5,2.1-20.3,2.6c-5.8,0.5-10.5,0.6-13.7,0.4
		S1703.4-439.2,1703.3-439.9L1703.3-439.9z"/>
	<path id="path3067" d="M1715.2-407.1c0.6-0.1,1.5,2.3,2.8,6.7s3.1,10.9,5.6,18.9s5.7,17.5,9.9,27.9s9.4,21.8,15.8,33.5l0,0
		c4.4,8.1,9.4,16.5,15,24.7c9.4,13.9,19.5,26.4,29.4,37.2c9.9,10.7,19.5,19.8,27.9,27c8.4,7.3,15.5,12.8,20.4,16.7
		c4.9,3.9,7.6,6.2,7.2,6.8s-3.7-0.6-9.3-3.6s-13.5-7.7-22.7-14.4s-19.6-15.4-30.2-26.2s-21.3-23.5-31-38
		c-5.8-8.6-10.9-17.2-15.3-25.8l0,0c-6.4-12.3-11.3-24.2-15.1-35.2c-3.8-11-6.3-20.9-8-29.3c-1.7-8.4-2.5-15.1-2.9-19.8
		C1714.4-404.5,1714.6-407,1715.2-407.1z"/>
	<path id="path3079" d="M1628.9,313.4c0.2,0.6-1.5,1.8-4.7,3.5s-8.2,3.8-14.4,6.1c-6.3,2.3-13.9,4.7-22.6,7s-18.5,4.4-29,6.1l0,0
		c-5.9,0.9-12.1,1.7-18.5,2.4c-12.8,1.3-25.1,1.7-36.3,1.4c-11.2-0.2-21.2-1.1-29.5-2.1c-8.4-1.1-15.1-2.4-19.6-3.6
		c-4.6-1.2-7-2.2-6.9-2.9s2.7-0.9,7.4-0.9c4.7,0,11.4,0.2,19.7,0.4c8.3,0.2,18.1,0.3,29,0c10.9-0.3,22.8-0.9,35.3-2.2
		c6.2-0.6,12.2-1.3,18-2.1l0,0c10.3-1.4,19.9-3.1,28.5-4.7c8.6-1.7,16.3-3.4,22.7-4.8c6.4-1.4,11.5-2.6,15.1-3.3
		C1626.6,313,1628.7,312.9,1628.9,313.4L1628.9,313.4z"/>
	<path id="path3085" d="M1673.5,325.3c0.2-0.7,2.6-0.6,6.7-0.1c4.1,0.5,9.9,1.5,17.1,2.4c7.2,0.9,15.8,1.7,25.3,2
		c9.5,0.3,20,0.1,30.9-0.9c6-0.6,11.9-1.3,17.4-2.3h0c8.7-1.5,16.8-3.4,24-5.3c7.2-2,13.6-4,18.9-5.8c5.3-1.8,9.5-3.3,12.5-4.2
		c3-0.9,4.7-1.2,5-0.7s-0.9,1.8-3.5,3.7c-2.6,1.9-6.5,4.3-11.6,7c-5.1,2.6-11.4,5.5-18.8,8.1c-7.3,2.6-15.7,5-24.8,6.8l0,0
		c-5.8,1.2-12,2.1-18.3,2.7c-11.5,1.1-22.5,1-32.4,0.1c-9.9-0.9-18.8-2.5-26-4.3s-13-3.9-16.9-5.6
		C1675.3,327.3,1673.3,326,1673.5,325.3L1673.5,325.3z"/>
	<path id="path3121" d="M1468.1,587.4c-0.1,0.3-1.6-0.1-4.4-0.9c-2.8-0.8-6.8-2-12.1-3.3s-11.8-2.7-19.6-3.6s-16.6-1.5-26.4-1
		c-4.5,0.2-9.3,0.7-14.1,1.6c-4.8,0.9-9.6,2.3-14.2,4.5c-4,1.9-7.8,4.5-11.1,7.7c-3.3,3.2-6,7-7.5,11.4c-2.2,6-2.1,13.2,0,19.9
		c2,6.4,5.9,12.4,11,17.5c4.7,4.9,10.5,8.9,16.9,12.5s13.5,6.6,20.8,9.7c13.8,5.8,28.2,11.4,43.2,15.4c9.4,2.5,19.1,4.3,28.9,4.9
		c5.1,0.3,10.1,0.3,15,0c13.1-0.4,25.8-2.9,37.4-7.1c2.3,5,4.6,9.9,6.9,14.7c23.5-0.4,45.8,0.3,66.6,1.9c4.6,0.4,9,0.9,13.1,0.7
		c4.2-0.2,8.2-1,11.3-2.8c3.6-1.9,6.4-5.2,8.3-8.8c2-3.8,3-8.2,3.4-12.5c0.4-4.8-0.1-9.5-0.9-14.2c-0.8-4.7-1.9-9.2-2.9-13.7
		c-3.5-15-6-28.1-7.8-38.7c-8.8-17.2-13.5-27.2-12.8-27.6s6.7,8.9,16.9,26c2.5,10.5,5.8,23.5,10,38.7c1.2,4.3,2.5,9,3.6,14
		c1,5,1.7,10.3,1.5,15.9c-0.2,5.2-1.3,10.6-3.8,15.7c-2.4,4.9-6.2,9.4-11.3,12.4c-4.6,2.7-9.8,3.9-14.9,4.2
		c-4.9,0.3-9.7-0.1-14.3-0.4c-21.9-2.1-45.5-3.5-70.4-4c-1.6-5-3.3-10-5-15.1c-10.5,5.6-22.1,9.3-34.1,10.8
		c-5.4,0.4-10.9,0.4-16.4,0c-10.6-0.7-20.9-2.6-30.8-5.3c-15.8-4.3-30.4-10.2-44.4-16.1c-7.4-3.1-14.8-6.4-21.7-10.4
		s-13.3-8.7-18.8-14.4c-5.9-6.1-10.4-13.4-12.7-21.3c-2.5-8.4-2.3-17.4,0.7-25.3c2.2-5.6,5.7-10.4,9.8-14.2
		c4.1-3.8,8.7-6.7,13.5-8.7c5.4-2.3,10.8-3.7,16-4.5s10.3-1.1,15.1-1.1c10.2-0.1,19.4,1,27.3,2.4c7.9,1.5,14.5,3.4,19.8,5.2
		c5.3,1.8,9.2,3.6,11.8,4.9C1466.9,586.2,1468.2,587.1,1468.1,587.4L1468.1,587.4z"/>
	<path id="path3127" d="M1426.4-803.1c0.7-0.1,1.7,2.6,2.5,7.5c0.9,4.9,1.6,12.2,1.5,21.1c-0.2,9-1.2,19.7-3.9,31.3
		s-7,24.1-13.2,36.5c-2.9,5.8-6.2,11.3-9.6,16.4l0,0c-6.4,9.6-13.5,17.8-20.4,24.6c-6.9,6.8-13.7,12.2-19.6,16.2
		c-5.9,4-11,6.8-14.6,8.4c-3.6,1.6-5.7,2.2-6,1.6c-0.3-0.5,1.2-2.1,4.2-4.6c3-2.5,7.3-6,12.5-10.5c5.2-4.6,11.2-10.3,17.4-17.1
		c6.2-6.9,12.5-14.9,18.4-24.1l0,0c3.1-4.9,6.1-10.1,8.9-15.6c5.9-11.6,10.2-23.3,13.2-34.2s4.8-21,5.8-29.6
		c1-8.6,1.4-15.6,1.7-20.4S1425.7-803.1,1426.4-803.1L1426.4-803.1z"/>
	<path id="path3157" d="M1256.7-791.2c0.5,0.2,0.5,1.4,0.2,3.5c-0.3,2.1-0.9,5.1-1.4,8.9c-0.6,3.8-1.1,8.4-1.4,13.6
		c-0.3,5.2-0.2,11.1,0.4,17.4c1,10.2,3.7,21.6,8.6,32.7c1.2,2.7,2.5,5.2,3.9,7.7l0,0c4.6,8.3,10.2,15.4,15.9,21.3
		c5.7,5.9,11.5,10.5,16.5,14.1s9.4,6.2,12.4,8s4.6,3,4.4,3.6c-0.2,0.6-2.3,0.6-5.8-0.3c-3.6-0.9-8.6-2.6-14.5-5.7
		s-12.6-7.5-19.2-13.5c-6.6-6-13.1-13.7-18.4-22.8l0,0c-1.6-2.7-3-5.6-4.4-8.5c-2.8-6.1-4.8-12.4-6.2-18.5
		c-1.4-6.1-2.1-12.1-2.3-17.7c-0.3-6.9,0.2-13.3,1.1-18.9c0.9-5.6,2.2-10.3,3.6-14.2c1.4-3.8,2.8-6.7,3.9-8.6
		S1256.2-791.4,1256.7-791.2L1256.7-791.2z"/>
	<path id="path3163" d="M1801.6,599.3c0.3-0.2,1.2,0.5,2.5,1.9c1.3,1.5,3,3.8,4.9,7s4,7.2,6,12.1c2,4.9,3.8,10.6,5.2,17.1l0,0
		c1.4,7.1,2.1,15,1.8,23.6c-0.3,8.6-1.7,17.8-4.4,27.1c-7.1,7.2-16,13.3-26.1,17.2c-1.8,0.6-3.5,1.1-5.3,1.6
		c-7.8,2.1-15.6,2.8-23.1,2.9c-7.5,0-14.7-0.6-21.5-1.6l0,0c-12.5-1.8-24-4.4-33.9-7.2c-4.3-3.6-7.6-7.7-10.2-11.7s-4.4-8-5.6-11.6
		l0,0c-1.1-3.4-1.6-6.5-1.9-9.2c-0.3-2.7-0.2-5.1-0.1-6.9c0.2-1.9,0.4-3.3,0.7-4.2c0.3-0.9,0.6-1.4,0.8-1.4c0.3,0,0.5,0.5,0.7,1.5
		c0.2,0.9,0.4,2.3,0.7,4.1c0.3,1.7,0.7,3.9,1.4,6.3c0.7,2.4,1.5,5.2,2.8,8l0,0c1.3,3,3,6.3,5.3,9.4c2.3,3.2,5.2,6.3,8.6,9
		c9.5,1.9,20.1,3.7,31.6,4.7l0,0c6.5,0.6,13.4,1.1,20.3,1s13.8-0.8,20.6-2.6c1.6-0.4,3.1-0.9,4.6-1.4c8.3-2.6,15.6-7.1,21.5-12.6
		c2.5-8,3.8-16,4.2-23.5s0-14.7-0.9-21.1l0,0c-0.8-6.1-2.1-11.6-3.4-16.4c-1.4-4.8-2.8-8.9-4.1-12.2c-1.3-3.3-2.4-5.9-3-7.7
		S1801.2,599.5,1801.6,599.3L1801.6,599.3z"/>
	<path id="path3175" d="M1667.6,524.8c0.1,0.3-0.4,0.7-1.2,1.1c-0.8,0.5-2,1-3.5,1.8c-1.5,0.7-3.3,1.7-5.2,2.9s-4.1,2.8-6.1,4.7l0,0
		c-1.9,1.8-3.8,3.9-5.5,6.4c-1.7,2.5-3.2,5.3-4.4,8.5c-1.4,3.8-2.2,8-2.3,12.6c-0.1,4.6,0.5,9.4,1.7,14.3c1.2,4.6,3.1,9.2,5.5,13.7
		c2.1,4,4.6,7.9,7.2,11.5c3.7,5.1,7.7,9.9,11.6,14.3s7.7,8.6,11.2,12.6c7.2,8.3,12.7,15.4,16.3,20.6c3.6,5.2,5.2,8.4,4.6,9
		c-0.6,0.5-3.5-1.7-8.1-5.9s-10.9-10.5-18.7-18.1c-3.7-3.6-7.8-7.6-12.1-11.9c-4.2-4.4-8.6-9.2-12.8-14.7c-2.9-3.9-5.7-8.1-8.1-12.7
		c-2.7-5.1-4.8-10.5-6.1-15.9c-1.4-5.8-1.9-11.6-1.5-17.2s1.8-10.7,3.8-15.3c1.7-3.8,3.9-7.1,6.3-9.9c2.4-2.8,4.9-5,7.5-6.8l0,0
		c2.8-1.9,5.5-3.3,7.9-4.2s4.6-1.5,6.4-1.8s3.2-0.3,4.1-0.2C1667,524.3,1667.5,524.5,1667.6,524.8L1667.6,524.8z"/>
	<path id="path3181" d="M1605-398.2c0.7,0,1.6,3.1,2.3,8.8s1.3,14.1,0.9,24.5c-0.4,10.4-1.8,22.8-4.8,36.3
		c-3.1,13.5-7.8,28.1-14.6,42.7c0,0,0,0,0,0c-0.8,1.6-1.6,3.3-2.4,4.9c-7.5,15-16.4,28.3-25.6,39.5c-9.2,11.2-18.6,20.3-27,27.2
		s-15.8,11.9-21,14.9s-8.5,4.3-8.8,3.7c-0.4-0.6,2.1-2.9,6.6-6.8c4.5-3.9,11-9.6,18.6-17c7.5-7.4,16.1-16.7,24.5-27.7
		c8.4-11.1,16.8-23.9,23.9-38.2c0.8-1.6,1.5-3.1,2.3-4.7l0,0c6.6-13.9,11.4-27.8,14.9-40.6c3.4-12.9,5.5-24.7,6.8-34.7
		s1.8-18.2,2.2-23.8C1604-395,1604.4-398.2,1605-398.2L1605-398.2z"/>
	<path id="path3223" d="M0,0"/>
	<path id="path3235" d="M1483,587.4c2.2-1.6,7.4,1.8,11.5,7.5c4.1,5.8,5.6,11.7,3.4,13.3c-2.2,1.6-7.4-1.8-11.5-7.5
		C1482.2,594.9,1480.7,589,1483,587.4z"/>
	<path id="path3241" d="M1798.6,602.2c1.7,2.2-2.9,8.6-10.3,14.4c-7.4,5.8-14.8,8.7-16.5,6.5c-1.7-2.2,2.9-8.6,10.3-14.4
		C1789.5,603,1796.9,600.1,1798.6,602.2z"/>
	<path id="path3247" d="M0,0"/>
	<path id="path4022" d="M1494.9-1303.3c0.6-0.1,3.3,11.4,7.7,32.7c-0.8,5.5-1.7,11.7-2.6,18.5c-3.4,7.9-7.3,16.6-11.5,26.1
		c4.8,9,9.9,18.7,15.4,29c0.9,16.2,1.9,33.8,2.9,52.7c14.1,9.7,29,20,44.7,30.8l0,0c-7.1,11.8-16.1,23-26.8,33
		c-10.7,10-23.1,18.7-36.8,25.5c-7.1,3.2-14.5,5.8-22,8.2s-15.1,4.5-22.6,6.9c-14.3,4.4-28.6,9.4-40.9,17.6
		c-8.2,5.4-15.5,12.2-22,19.9c-6.6,7.8-12.4,16.5-17.6,25.6c-4.5,8-8.6,16.3-12.6,24.9c-4.9,10.6-9.5,21.3-14.5,31.8
		c-14.3,29.6-31.1,57.1-49.4,81.9c-10.8,3.9-21,9-30.4,14.9c-9.4,6-18,12.8-25.7,20.3c-12.2,11.6-21.9,25-28.9,39
		c2,11,4,21.7,5.9,32.1c-2,15.3-0.9,30.2,2.5,43.8c1.3,5.2,3,10.2,5.1,14.9c2.1,4.7,4.5,9,7.4,12.9c3.2,4.3,6.9,8.1,10.8,11.1
		s8.3,5.3,12.7,6.8c3.7,1.3,7.6,1.9,11.4,2.3c3.8,0.3,7.6,0.3,11.3,0.2c4.2-0.2,8.4-0.6,12.4-0.9c4-0.4,7.8-0.7,11.5-0.9
		c8.3-0.4,15.7,0,22.1,0.8c6.4,0.8,11.7,1.9,16,2.9c4.3,1.1,7.5,2.1,9.6,2.9c2.1,0.8,3.2,1.3,3.1,1.5c-0.1,0.2-1.2,0-3.4-0.4
		s-5.4-1.1-9.7-1.8c-4.3-0.7-9.6-1.4-15.8-1.8s-13.5-0.4-21.5,0.3c-3.6,0.3-7.3,0.8-11.3,1.3s-8.1,1-12.6,1.4
		c-3.8,0.3-7.9,0.4-12,0.2s-8.5-0.9-12.8-2.2c-5.1-1.6-10.1-4.1-14.7-7.4s-8.8-7.4-12.5-12.2c-3.3-4.3-6.1-9-8.4-14
		c-2.4-5-4.3-10.4-5.8-16c-3.9-14-5.3-29.6-3.4-45.5c-1.9-10.8-3.9-22-6-33.4c7.4-15.8,17.6-31,30.6-44.4c7.7-7.8,16.4-14.9,26-21
		c9.6-6.1,20-11.3,31-15.2c17.1-23.9,32.7-50.4,45.9-78.8c4.9-10.3,9.5-21,14.5-31.8c4-8.7,8.2-17.3,12.9-25.6
		c5.4-9.6,11.6-18.8,18.7-27.1s15.1-15.7,24.2-21.7c13.8-9,29-14.2,43.6-18.6c7.7-2.3,15.2-4.4,22.5-6.7c7.3-2.3,14.4-4.7,21.1-7.6
		c13.1-5.1,25-12.2,35.4-20.5c10.3-8.3,19.1-17.9,26.1-28.2c0,0,0,0,0,0c-15.7-10-30.6-19.6-44.7-28.7c-1.2-19.6-2.2-37.8-3.1-54.5
		c-5.1-11-9.9-21.2-14.3-30.5c4.5-10.1,8.6-19.3,12.3-27.5c1.2-6.3,2.3-12,3.3-17.2C1495.8-1291.5,1494.2-1303.2,1494.9-1303.3
		L1494.9-1303.3z"/>
	<path id="path4028" d="M1405.6-67.7c-0.4,0.1-1.6-2.3-3.7-7c-2.1-4.7-4.9-11.8-8.3-20.9c-6.8-18.3-15.7-45-24.4-78.3v0
		c-4.3-16.4-8.6-34.5-11.8-54.1s-5.2-40.8-4.2-63.1c0.5-11.4,1.8-22.9,3.6-34.5c1.8-11.6,4.3-23.4,7-35.2c2.3-9.9,4.7-19.8,7.2-29.8
		c3.2-12.9,6.3-25.7,8.9-38.2c4.8-18.9,8.5-37.5,11.2-55.6c2.7-18.1,4.3-35.5,5.1-52.2c-3,4.9-6.8,9-11,12.2s-8.9,5.5-13.8,6.8
		c-5.9,1.2-11.8,1.2-17.4,0.3c-5.6-0.9-10.9-2.8-15.7-5.4c-7.2-4-13-9.6-17.1-15.9c-4.2-6.2-6.8-13-8-19.6c-1.3-7.2-1-14-0.1-20.2
		s2.4-11.8,4-16.8c1.9-6,3.9-11.2,5.9-15.6s3.8-8.1,5.5-11s3-5.1,4-6.5c1-1.4,1.6-2.1,1.8-2s-0.1,1-0.7,2.6
		c-0.6,1.6-1.6,3.9-2.9,6.9s-2.8,6.8-4.3,11.3c-1.6,4.5-3.2,9.7-4.7,15.6c-1.2,4.9-2.4,10.4-3,16.2c-0.6,5.8-0.6,12,0.8,18.3
		c1.3,5.8,3.8,11.6,7.5,16.9c3.8,5.3,8.8,10,15,13.1c4,2.1,8.6,3.5,13.3,4.2c4.7,0.7,9.7,0.5,14.5-0.6c5-0.8,10.1-2.3,14.7-4.6
		s9-5.3,12.7-8.9c0.4,17.3,0.2,35.5-1,54.4s-3.3,38.3-6.5,58.2c-2.6,12.8-5.7,25.6-8.9,38.6c-2.5,10-4.9,19.9-7.2,29.7
		c-2.7,11.7-5.1,23.2-7,34.5c-1.9,11.3-3.2,22.5-3.8,33.4c-1.2,21.5,0.5,42.1,3.3,61.3c2.8,19.3,6.7,37.3,10.5,53.7v0
		c7.8,33.3,15.6,60.2,21.1,78.8c2.8,9.3,5,16.6,6.3,21.5S1405.9-67.8,1405.6-67.7L1405.6-67.7z"/>
	<path id="path4034" d="M1456.2-430.9c0.1-0.7,2.4-0.9,6.3-0.8c3.9,0.1,9.6,0.4,16.5,0.7c6.9,0.3,15.1,0.5,24.2,0.4
		c9.1-0.1,19.1-0.6,29.5-1.6c2.1-0.2,4.2-0.4,6.2-0.7l0,0c9.7-1.1,18.8-2.6,27-4.2c8.2-1.6,15.5-3.3,21.7-4.8
		c6.1-1.5,11.1-2.8,14.6-3.5c3.5-0.7,5.5-0.9,5.8-0.3c0.2,0.6-1.3,1.9-4.4,3.8s-7.8,4.1-13.9,6.5c-6,2.4-13.4,4.9-21.8,7.1
		s-17.8,4.1-27.8,5.4l0,0c-2.1,0.3-4.3,0.5-6.5,0.7c-10.8,1.1-21.2,1.3-30.6,0.9c-9.4-0.4-17.8-1.4-24.8-2.6
		c-7-1.2-12.6-2.6-16.4-3.9C1458-429.2,1456-430.3,1456.2-430.9L1456.2-430.9z"/>
	<path id="path4040" d="M1456.2,322.4c-0.8,0.1-2.7-8.6-5.2-23.8s-5.4-37-8.5-63.3v0c-5.1,1-10.4,0.7-15.4-0.9
		c-5-1.6-9.6-4.6-13.2-8.9c-3.6-4.2-6.2-9.4-7.5-15c-1.3-5.6-1.2-11.7,0.5-17.5c1.7-5.6,4.6-10.5,7.5-14.9c2.8-4.3,5.6-8.4,7.4-12.5
		c2.1-4.2,3.3-8.9,3.5-13.6c0.2-4.7-0.6-9.6-2.4-13.9c-3.1-1.5-6-3.3-8.7-5.4c-7.6-5.9-13.3-14-16.4-22.9c-3-7.9-3.7-16.4-2.4-24.4
		c1.3-8,4.5-15.5,9.3-21.8c-6.4-7.2-11.5-14.9-15.5-22.9s-6.8-16.1-8.6-24c-2.8-12.9-3.1-25.2-2-36.1c1.1-10.9,3.6-20.4,6.5-28.2
		c1.9-5.1,3.9-9.5,5.9-13.2c2-3.7,3.9-6.7,5.5-9.1c1.7-2.4,3-4.1,4.1-5.2c1-1.1,1.7-1.6,1.8-1.5c0.2,0.1,0,0.9-0.7,2.2
		c-0.6,1.4-1.6,3.3-2.9,5.8c-1.2,2.5-2.7,5.7-4.3,9.4c-1.5,3.8-3.2,8.1-4.6,13.1c-2.2,7.7-4.1,16.8-4.6,27.1
		c-0.5,10.3,0.2,21.8,3.2,33.7c1.9,8.1,4.8,16.4,8.7,24.6s8.8,16.3,14.9,23.8c-3.8,5.9-6.3,13-7.3,20.5s-0.3,15.4,2.2,22.6
		c3,7.7,8.2,14.9,15,20.3c2.4,1.9,4.9,3.6,7.6,5c2.8,6.1,4.3,12.7,4.4,19.2c0.1,6.5-1,12.9-3.4,18.8c-2.4,5.3-5.6,9.7-8.3,13.8
		c-2.8,4.3-5.3,8.3-6.5,12.3c-1.3,4.1-1.4,8.6-0.6,12.8c0.9,4.2,2.7,8.1,5.3,11.2c3.2,3.8,7.4,6.7,11.9,8.5s9.1,2.7,13.4,2.5
		c0,0,0,0,0,0c4.1,27.9,7.1,50.8,8.8,66.7C1456.6,313.4,1457,322.2,1456.2,322.4L1456.2,322.4z"/>
	<path id="path4046" d="M1485.9,590.3c-0.7,0.1-1.6-3.5-2.8-10.1c-1.2-6.6-2.6-16.1-4.3-27.9c-3.3-23.6-7.6-56.2-12.8-92.3
		c-0.1-1.1-0.3-2.1-0.5-3.2c-4.9-34.4-9.7-65.7-13.2-89.4c-0.9-27.7-0.8-45,0.7-45.1c1.5-0.1,3.9,17,6.7,44.2
		c5.1,23.4,10.8,54.6,15.7,88.9c0.2,1.1,0.3,2.1,0.4,3.2c2.5,18.1,4.6,35.4,6.3,51.2c1.6,15.7,2.8,29.9,3.6,41.8s1.1,21.6,1.1,28.3
		C1487,586.6,1486.6,590.3,1485.9,590.3L1485.9,590.3z"/>
	<path id="path4052" d="M1697.3-1154.5c0.4,0.4-0.2,2-2.1,4.5c-1.8,2.5-4.9,5.9-9.3,9.5c-4.4,3.6-10.1,7.4-17.1,10.7
		c-7,3.2-15.4,5.9-24.6,7l0,0c-6.2,0.8-12.7,0.9-19.2,0.6c-2.3-0.1-4.6-0.2-6.9-0.3c-4.5-0.2-8.8-0.5-12.9-0.6s-8.1-0.2-11.8,0
		c-6.7,0.3-12.8,1.3-18.2,2.5s-10.1,2.7-14,4c-3.9,1.3-6.9,2.5-9.1,3.3c-2.2,0.7-3.4,1-3.7,0.6s0.5-1.5,2.2-3.1
		c1.8-1.6,4.5-3.6,8.3-5.8c3.8-2.2,8.5-4.4,14.2-6.3c5.7-1.9,12.3-3.5,19.6-4.3c4.1-0.4,8.3-0.6,12.7-0.6c4.3,0,8.8,0.2,13.2,0.4
		c2.2,0.1,4.5,0.2,6.7,0.3c6.3,0.2,12.2,0.2,17.8-0.3l0,0c8.2-0.8,15.8-2.7,22.4-5.1s12.2-5.3,16.8-8s8-5.1,10.5-6.8
		C1695.4-1154,1696.9-1154.9,1697.3-1154.5L1697.3-1154.5z"/>
	<path id="path4064" style="stroke:#000000;stroke-width:2.0842;" d="M9.1-1672.6c85,17.4,168.7,41.3,250.1,71.5
		c177.2,65.7,342.8,160.8,494.3,273.9c124.1,92.6,238.9,197.3,345.4,309.7c58.1,61.3,113.7,124.9,166.7,190.6l-29.8,29.8
		c-38.9-48.3-78.6-96-119.1-142.9c-84.4-97.9-172.5-192.8-268-279.9c-95.5-87.1-198.5-166.3-309.7-232.2
		c-54.2-32.2-110.3-61.2-166.7-89.3c-77.3-38.5-155.8-75.5-238.2-101.2C93.2-1655.6,51.4-1665.5,9.1-1672.6"/>
	<path id="path4068" style="fill:none;stroke:#000000;stroke-width:2;" d="M90.7-1638.9c0,6.2-6,11.2-13.4,11.2s-13.4-5-13.4-11.2
		c0,0,0,0,0,0c0-6.2,6-11.2,13.4-11.2C84.6-1650.1,90.7-1645.1,90.7-1638.9C90.7-1638.9,90.7-1638.9,90.7-1638.9z"/>
	<path id="path4070" style="fill:none;stroke:#000000;stroke-width:2;" d="M301.4-1545.9c0,9.9-7.9,17.9-17.7,17.9
		c-9.8,0-17.7-8-17.7-17.9c0,0,0,0,0,0c0-9.9,7.9-17.9,17.7-17.9S301.4-1555.8,301.4-1545.9L301.4-1545.9z"/>
	<path id="path4072" style="fill:none;stroke:#000000;stroke-width:2;" d="M541.7-1426.8c0,10.1-9,18.3-20,18.3
		c-11,0-20-8.2-20-18.3c0-10.1,9-18.3,20-18.3C532.8-1445.1,541.7-1436.9,541.7-1426.8L541.7-1426.8z"/>
	<path id="path4074" style="fill:none;stroke:#000000;stroke-width:2;" d="M777.1-1265.9c0,11-10.7,20-24,20s-24-8.9-24-20
		c0,0,0,0,0,0c0-11,10.7-20,24-20C766.3-1285.9,777.1-1276.9,777.1-1265.9C777.1-1265.9,777.1-1265.9,777.1-1265.9z"/>
	<path id="path4076" style="fill:none;stroke:#000000;stroke-width:1.8257;" d="M970.9-1085c0,14.4-13.6,26.1-30.4,26.1
		c-16.8,0-30.4-11.7-30.4-26.1c0,0,0,0,0,0c0-14.4,13.6-26.1,30.4-26.1C957.3-1111.1,970.9-1099.5,970.9-1085
		C970.9-1085,970.9-1085,970.9-1085z"/>
	<path id="path4078" style="fill:none;stroke:#000000;stroke-width:1.727;" d="M1167-857.4c0,18-15.5,32.6-34.6,32.6
		s-34.7-14.6-34.7-32.6c0,0,0,0,0,0c0-18,15.5-32.6,34.6-32.6S1167-875.5,1167-857.4C1167-857.4,1167-857.4,1167-857.4z"/>
	<path id="path7104" style="fill:none;stroke:#000000;" d="M1211.4-777.6l-65.7-72.9L1020-996.2l-74.3-84.3
		c0,0-73.3-73.8-104.3-105.7s-82.9-72.9-82.9-72.9s-88.4-65.9-127.1-90c-38.8-24.1-105.7-71.4-105.7-71.4L390-1494.8
		c0,0-55.5-27.7-104.3-51.4S80-1639.1,80-1639.1l-65.7-20"/>
</g>
</svg>
