<?xml version="1.0" encoding="utf-8"?>
<!-- Generator: Adobe Illustrator 22.1.0, SVG Export Plug-In . SVG Version: 6.00 Build 0)  -->
<svg version="1.1" id="Layer_1" xmlns="http://www.w3.org/2000/svg" xmlns:xlink="http://www.w3.org/1999/xlink" x="0px" y="0px"
	 viewBox="0 0 256 256" style="enable-background:new 0 0 256 256;" xml:space="preserve">
<g id="Layer_1_1_">
	<g>
		<path style="fill:#FFFFFF;" d="M199.7,248.5H59.1c0-13.2-4.6-32.7,1.7-39.6c10.8-11.7,24.3-15.3,43.5-18.5
			c0.5-0.1,0.9-0.2,1.2-0.4c3.9-1.2,6.7-4.9,6.7-9v-3.5C96.8,171.1,86,156.1,86,138.4v-2.2c-5.7-1.5-9.9-6.6-9.9-12.8
			c0-3.5,1.5-6.8,3.8-9.2c1.7-1.7,3.9-2.9,6.2-3.7V92.7c0-6.7,5.4-12.1,12.1-12.1h42c4,8.2,10.8,14.8,19.1,18.7
			c0.4,0.2,0.6,0.4,1.1,0.6c0.2,0.1,0.5,0.2,0.6,0.4c0.4,0.1,0.6,0.4,1,0.5c0.5,0.1,0.7,0.4,1.2,0.5c0.5,0.2,0.9,0.4,1.3,0.5
			c0.5,0.1,0.7,0.2,1.2,0.4c0.4,0.1,0.6,0.2,0.9,0.2c0.4,0.1,0.6,0.1,0.9,0.2c0.1,0,0.2,0,0.2,0.1c0.4,0.1,0.6,0.1,0.9,0.2
			c0.2,0.1,0.5,0.1,0.6,0.1c0.5,0.1,0.9,0.1,1.3,0.2v7.5c2.7,0.5,5,1.6,6.8,3.3c2.7,2.4,4.3,5.9,4.3,9.7c0,6.6-4.9,12-11.1,13v1.1
			c0,17.6-10.6,33.2-26,39.8v3.4c0,3.9,2.6,7.5,6.2,8.9c0.6,0.2,1.3,0.5,2,0.6c17.7,2.7,33.2,6.1,43.4,18.7
			C202,216.2,199.7,235.5,199.7,248.5z"/>
	</g>
	<g>
		<path style="fill:#7F9038;" d="M177.4,76.3v37.5c-1.8-1.7-4.2-2.8-6.8-3.3V103c-0.5-0.1-0.9-0.1-1.3-0.2c-0.2,0-0.5-0.1-0.6-0.1
			c-0.4-0.1-0.6-0.1-0.9-0.2c-0.1,0-0.2,0-0.2-0.1c-0.4-0.1-0.6-0.1-0.9-0.2c-0.4-0.1-0.6-0.1-0.9-0.2c-0.5-0.1-0.7-0.2-1.2-0.4
			c-0.5-0.1-0.9-0.4-1.3-0.5c-0.5-0.1-0.7-0.4-1.2-0.5c-0.4-0.1-0.6-0.2-1-0.5c-0.2-0.1-0.5-0.2-0.6-0.4c-0.4-0.1-0.7-0.4-1.1-0.6
			c-8.3-3.9-15-10.6-19.1-18.7h-42c-6.7,0-12.1,5.4-12.1,12.1v17.8c-2.4,0.6-4.5,1.8-6.2,3.7V81.1c0-5.1,2.8-9.5,7.2-11.9
			C76.3,51.5,88.9,31,113.1,31c25.3,0,61,19.2,64.5,44.1c0,0.2,0,0.5,0.1,0.6l0,0C177.4,75.9,177.4,76.1,177.4,76.3z"/>
	</g>
	<g>
		<circle style="fill:#7F9038;" cx="107.7" cy="119.5" r="4.9"/>
	</g>
	<g>
		<circle style="fill:#7F9038;" cx="149.9" cy="119.5" r="4.9"/>
	</g>
	<g style="opacity:0.1;">
		<path style="fill:#0C0C0C;" d="M127.7,156.6c-10.6,0-17.1-7.6-17.2-7.7c-0.5-0.6-0.5-1.5,0.2-2c0.6-0.5,1.5-0.5,2,0.2
			s12.8,14.9,32.1-0.2c0.6-0.5,1.5-0.4,2,0.2c0.5,0.6,0.4,1.5-0.2,2C139.3,154.8,133,156.6,127.7,156.6z"/>
	</g>
	<path style="fill:#C7DD6C;" d="M200.4,248.6H57.2c0-13.9-3-34.3,3.4-41.5c6.5-7.3,14-11.6,23.1-14.6c3.4-1.1,7.1-0.3,11-1.1
		c1-0.2,1.9-0.5,2.9-0.7c2.1-0.6,4.2-1.2,6.5-1.6c0.5-0.1,2.3,0.3,2.8,0.2c4.7,9.8,20.7,11.8,20.7,11.8c0.1,0,19.7-1.9,23.4-13.7
		l0,0c0.1-0.1,0.2-0.3,0.2-0.4h0.1c0.6,0.2,1.2,0.4,1.9,0.5c2.3,0.4,4.5,0.7,6.6,1.1c0.9,0.2,1.7,0.4,2.7,0.5
		c3.9,0.7,7.5,1.7,11,2.8c9.3,2.9,17.3,7.3,23.3,15.3C202.8,214.8,200.4,235,200.4,248.6z"/>
	<polygon style="opacity:0.2;enable-background:new    ;" points="152.8,190.2 128.1,244.4 104.2,190.2 68.1,202.5 74.4,248.5 
		177.5,248.6 182,197.9 	"/>
	<g>
		<path style="fill:none;stroke:#7F9038;stroke-width:5;stroke-miterlimit:10;" d="M199.7,248.5H59.1c0-13.2-4.6-32.7,1.7-39.6
			c10.8-11.7,24.3-15.3,43.5-18.5c0.5-0.1,0.9-0.2,1.2-0.4c3.9-1.2,6.7-4.9,6.7-9v-3.5C96.8,171.1,86,156.1,86,138.4v-2.2
			c-5.7-1.5-9.9-6.6-9.9-12.8c0-3.5,1.5-6.8,3.8-9.2c1.7-1.7,3.9-2.9,6.2-3.7V92.7c0-6.7,5.4-12.1,12.1-12.1h42
			c4,8.2,10.8,14.8,19.1,18.7c0.4,0.2,0.6,0.4,1.1,0.6c0.2,0.1,0.5,0.2,0.6,0.4c0.4,0.1,0.6,0.4,1,0.5c0.5,0.1,0.7,0.4,1.2,0.5
			c0.5,0.2,0.9,0.4,1.3,0.5c0.5,0.1,0.7,0.2,1.2,0.4c0.4,0.1,0.6,0.2,0.9,0.2c0.4,0.1,0.6,0.1,0.9,0.2c0.1,0,0.2,0,0.2,0.1
			c0.4,0.1,0.6,0.1,0.9,0.2c0.2,0.1,0.5,0.1,0.6,0.1c0.5,0.1,0.9,0.1,1.3,0.2v7.5c2.7,0.5,5,1.6,6.8,3.3c2.7,2.4,4.3,5.9,4.3,9.7
			c0,6.6-4.9,12-11.1,13v1.1c0,17.6-10.6,33.2-26,39.8v3.4c0,3.9,2.6,7.5,6.2,8.9c0.6,0.2,1.3,0.5,2,0.6
			c17.7,2.7,33.2,6.1,43.4,18.7C202,216.2,199.7,235.5,199.7,248.5z"/>
	</g>
	<g>
		<path style="fill:#D6AD63;" d="M195,56.7c0,12.1-29.3,28.8-65.3,28.8S64.6,68.9,64.6,56.7s29.2-22,65.2-22S195,44.6,195,56.7z"/>
		<path style="fill:#D6AD63;" d="M171.4,44.1c-7,3.9-21.8,8.4-39.8,8.4S96.9,47.9,89,44.1L92.4,15c0-3.3,16.9-6.1,37.7-6.1
			s37.7,2.8,37.7,6.1L171.4,44.1z"/>
		<path style="opacity:0.2;fill:#0C0C0C;enable-background:new    ;" d="M171.9,42.7c0,3.3-17.2,12.3-40.2,12.3s-43.1-9-43.1-12.3
			l0.5-4.1c7.9,3.9,24.4,8.4,42.5,8.4s32.9-4.6,39.8-8.4L171.9,42.7z"/>
	</g>
	<path style="fill:none;stroke:#896A32;stroke-width:5;stroke-miterlimit:10;" d="M195,55.8c0,12.1-29.3,28.8-65.3,28.8
		S64.6,67.9,64.6,55.8c0-7,9.8-13.3,25-17.3l2.9-24.4c0-3.3,16.9-6.1,37.7-6.1s37.7,2.8,37.7,6.1l3,24.7C185.6,42.8,195,49,195,55.8
		z"/>
</g>
<g id="guidelines">
</g>
</svg>
