<?xml version="1.0" encoding="utf-8"?>
<!-- Generator: Adobe Illustrator 17.0.0, SVG Export Plug-In . SVG Version: 6.00 Build 0)  -->
<!DOCTYPE svg PUBLIC "-//W3C//DTD SVG 1.1//EN" "http://www.w3.org/Graphics/SVG/1.1/DTD/svg11.dtd" [
	<!ENTITY ns_flows "http://ns.adobe.com/Flows/1.0/">
	<!ENTITY ns_extend "http://ns.adobe.com/Extensibility/1.0/">
	<!ENTITY ns_ai "http://ns.adobe.com/AdobeIllustrator/10.0/">
	<!ENTITY ns_graphs "http://ns.adobe.com/Graphs/1.0/">
]>
<svg version="1.1" id="Layer_1" xmlns:x="&ns_extend;" xmlns:i="&ns_ai;" xmlns:graph="&ns_graphs;"
	 xmlns="http://www.w3.org/2000/svg" xmlns:xlink="http://www.w3.org/1999/xlink" xmlns:a="http://ns.adobe.com/AdobeSVGViewerExtensions/3.0/"
	 x="0px" y="0px" width="256px" height="256px" viewBox="0 0 256 256" style="enable-background:new 0 0 256 256;"
	 xml:space="preserve">
<g transform="translate(0.000000,1280.000000) scale(0.100000,-0.100000)">
	<path style="fill:none;stroke:#000000;stroke-width:4;stroke-miterlimit:10;" d="M2248.2,11861.8c-54.2-11.6-112.8-43.6-182.2-99.6
		c-73.6-59.2-112-83.4-165-103.2c-59-22.2-123.8-23.2-184-2.6c-49.8,16.8-94.2,43.6-159.2,95.8c-16,13-39,30.2-51,38.4
		c-113.4,77.8-222.4,93.6-335.2,48.2c-44-17.6-85.4-43.4-140.6-87.8c-61.2-49.2-112.4-80-159-95.8c-54.2-18.2-111.6-18-165.4,1
		c-47.8,17-92.2,44.6-165.6,103.6c-75.4,60.4-136.2,91.2-202,101.6c-26.2,4.2-74.6,2.6-99.2-3.2c-54.2-12.4-116.4-44.6-172.6-89.2
		c-9.4-7.6-17.2-14.4-17.2-15.4c0-2.2,56-85.6,57.6-85.6c0.4,0,9.6,6.6,20.2,14.8c101.4,77.6,176.4,91.6,263,49.6
		c32-15.6,58.2-33.2,104.2-70.2c47.2-38,86-64,125.4-84.2c44.6-22.8,78.8-34.4,123.6-42.2c21.2-3.8,76.6-3.2,100,0.8
		c77,13.2,152.6,52,243,124.4c41.8,33.6,69.2,52,98,66c40.6,19.8,70.4,27,110.4,27c67,0,123-24.6,204.6-90.2
		c84.8-68,149.6-103.8,221-121.8c32.8-8.4,56-10.6,96.6-9.6c57.2,1.6,99,12.8,159.4,42.6c41.2,20.2,82.2,47.2,127,83.2
		c45.4,36.6,69.2,54,91,67c58.4,34.2,103.8,40.4,157.2,20.8c28.8-10.4,66.6-33.6,104.4-64c9.6-7.6,18.2-14,19-14
		s14.4,19.4,30.4,43.2l29,43l-5,4c-72.8,58-121,85.6-177,101.2C2327.2,11866.6,2275.6,11867.8,2248.2,11861.8z"/>
	<path style="fill:none;stroke:#000000;stroke-width:4;stroke-miterlimit:10;" d="M2255.2,11566.8c-43.8-8-96-32.4-148.2-69.6
		c-7.6-5.6-29.2-22.2-48-37.2c-72.8-58-116.2-84-168.2-101.2c-31.6-10.2-51.8-13.6-84.8-13.6c-45.6,0-80.8,8.4-128,31
		c-40.2,19.4-67.2,37-118,77.8c-49.6,39.6-73.6,55.6-114.2,75.8c-101.6,50.6-198.6,50.8-300.8,0.4c-35-17.2-67.2-38.4-106-69.4
		c-59.2-47.4-84.8-64.6-124-83.8c-47.6-23.4-81.4-31.8-126-31.6c-42.4,0.2-75,8.4-120,30.6c-37.6,18.4-68.6,39.6-127,86.6
		c-68.2,55.2-129.6,87.2-192,100.6c-23.6,5.2-77.8,5.2-102.8,0.2c-42.8-8.6-92.4-30.4-137.2-60.4c-33.4-22.2-59-42.6-58.8-46.6
		c0-2,12.8-22.2,28.2-45l28.2-41.6l6.8,5.8c3.6,3.2,15.2,12,25.6,19.8c95.4,69.8,168.2,81.2,253.2,39.6c29-14.2,56-32.6,97.8-66
		c39.6-31.8,70-53.6,98-70.4c120-72,232.2-81.4,350.2-29c47.6,21.2,93.8,51.2,157.6,102.8c38.8,31.4,79.8,56.6,113.2,69.4
		c51.2,19.8,107,21.2,159,4c40.4-13.4,78.2-36.2,134-81c64.4-51.6,127.2-89.2,181-108.2c141.6-50.2,274.8-15,431,113.8
		c56,46.2,94.8,70.2,133,82.6c24.6,8,56.6,9.2,83,3.2c33.4-7.8,77-32.2,123.8-69.4l21-16.6l29.2,43c34.2,50.4,34.4,41.8-1.6,69.2
		c-79.6,60.6-145.2,88-210.2,87.4C2281,11569.8,2263.8,11568.4,2255.2,11566.8z"/>
	<path style="fill:none;stroke:#000000;stroke-width:4;stroke-miterlimit:10;" d="M2260,11271c-59.8-9.8-126.2-45.4-203-109
		c-72.8-60.4-138.8-96-201-109.2c-8.2-1.6-26.2-3.6-40-4.2c-78.6-3.6-156.8,29.2-252,105.4c-55.4,44.4-86.8,65.4-125.2,83.2
		c-133.8,62-260.6,39.4-398-71.6c-49.4-39.8-68.8-53.6-103.4-73.6c-71.8-41.2-139.4-53.2-205.8-36.2c-55,13.8-105.2,42.2-175.6,99.2
		c-82.6,66.8-138.4,97.2-204.8,111.4c-28.6,6-77.8,6-105.8,0c-46-10-91.4-30.4-137.4-61.2c-27.8-18.8-58-42.2-58-45
		c0-1.2,54.2-83,57-85.8c0.4-0.4,9.2,6,19.6,14.2c51.6,40.4,96.6,63.2,141,71.6c7.6,1.4,22.4,2,39,1.2c32-1.2,51.4-6.2,85.4-22.6
		c29.6-14.2,54.6-31,97.4-65.2c39-31.4,62.2-48.4,86.2-63.4c62-38.8,118.6-60.8,175.8-68.4c26.2-3.4,79.8-1.2,105.6,4.2
		c73.8,15.6,145.2,53.6,231,122.8c63.8,51.6,109.6,76.6,162.4,88.4c20.2,4.6,69,4.6,89.6,0c23.8-5.2,39.2-10.8,65-23.2
		c29.2-14,55-31.2,92-60.8c66.6-53.4,108.2-80,160.2-102.4c107.4-46.6,209.2-43.4,317.8,10.2c48.2,23.6,79.4,44.4,140.4,93.2
		c71.4,57.2,112.6,80.4,156.2,88c17.4,3,47.6,1.2,66.4-4.2c31.4-9,74-33.6,117-67.6c11-8.8,20.6-15.6,21.4-15.2
		c0.6,0.4,14,19.8,29.6,43c27.6,41,28.4,42.4,24.8,45.8c-9,8.6-45.8,36-67.8,50.6c-27,17.8-68.4,38.8-91,46.2
		C2336.4,11272.4,2292.8,11276.4,2260,11271z"/>
</g>
</svg>
