<?xml version="1.0" encoding="utf-8"?>
<!-- Generator: Adobe Illustrator 17.0.0, SVG Export Plug-In . SVG Version: 6.00 Build 0)  -->
<!DOCTYPE svg PUBLIC "-//W3C//DTD SVG 1.1//EN" "http://www.w3.org/Graphics/SVG/1.1/DTD/svg11.dtd" [
	<!ENTITY ns_flows "http://ns.adobe.com/Flows/1.0/">
	<!ENTITY ns_extend "http://ns.adobe.com/Extensibility/1.0/">
	<!ENTITY ns_ai "http://ns.adobe.com/AdobeIllustrator/10.0/">
	<!ENTITY ns_graphs "http://ns.adobe.com/Graphs/1.0/">
]>
<svg version="1.1" id="Layer_1" xmlns:x="&ns_extend;" xmlns:i="&ns_ai;" xmlns:graph="&ns_graphs;"
	 xmlns="http://www.w3.org/2000/svg" xmlns:xlink="http://www.w3.org/1999/xlink" xmlns:a="http://ns.adobe.com/AdobeSVGViewerExtensions/3.0/"
	 x="0px" y="0px" width="256px" height="256px" viewBox="0 0 256 256" style="enable-background:new 0 0 256 256;"
	 xml:space="preserve">
<rect style="fill:none;stroke:#000000;stroke-width:2;stroke-miterlimit:10;" width="256" height="256"/>
<rect y="214.5" style="fill:none;stroke:#000000;stroke-width:2;stroke-miterlimit:10;" width="256" height="41.5"/>
<g>
	<path style="fill:none;stroke:#000000;stroke-width:2;stroke-miterlimit:10;" d="M167.8,192.4c0.6,5.9,0.3,12.6-0.5,17.8
		c-0.3,0.2-0.6,0.3-1,0.3c-0.8,0.1-1.8-1.7-2.6-1.6c-0.9,0.1-1.4,1.7-2.1,1.9c-1.1,0.2-1.5,1.1-1.9,1.3s-1.8-0.7-2.9-0.5
		c-0.7,0.2-1.6,0-2.5,0.1c-0.8,0.2-1.6,0.4-2.4,0.5c-0.9,0.1-1.7,1.2-2.4,1.2c-1.2,0.1-2.4-0.1-2.8-0.4c-0.5-0.4-0.3-1.6-0.8-2.6
		c-0.3-0.6,0.2-1.6-0.1-2.5c-0.2-0.6-2.2-0.8-2.5-1.6c-0.3-0.7-0.5-1.5-0.8-2.3c-0.2-0.7-0.5-1.5-0.8-2.3c-0.2-0.6-0.2-1-0.2-1.3
		c-0.6,0.4-1.5,0.9-1.5,1.7c-0.1,0.8,0.8,1.9,0.6,2.9c-0.2,0.9-1.8,1.3-2.2,2.1c-0.4,0.9-0.2,0.8-0.9,0.9c-0.7,0.2-0.8,0.1-1.6-0.3
		c-0.6-0.4-0.9-1-1.5-1.5s-3.1,0.9-3.6,0.4c-0.8-0.8,0.5-2.9,0.4-3.2c-0.2-0.3-1.8-1-3.1-1.5c-0.7-0.2-2.4,1.6-3.3,1.3
		c-0.8-0.3-1.4-1.2-2.3-1.5c-0.8-0.3-0.9-2.2-1.7-2.7c0,0,0,0-0.1,0c-0.8-0.4-2,0.1-2.8-0.3c-0.8-0.4-1.9-0.1-2.7-0.5
		c-0.8-0.4-0.7-2.3-1.5-2.8s-1.8-0.2-2.3-0.6c-0.7-0.6-0.9-1.3-1.3-1.8c-0.5-0.8-1.7-1-1.8-1.7c-0.2-0.8-0.9-2.1-0.7-2.8
		c0.4-1.3,2-0.3,2.9-1.1c0.4-0.4,1-0.8,1.4-1.3c0.6-0.3,0.5-2.4,1.3-2.8c0.7-0.4,1.8-0.1,2.6-0.4c0.7-0.3,1.7,0,2.5-0.3
		s1.3-1.1,2.1-1.4s2.3,1.1,3,0.8c0.8-0.3,0.9-2.5,1.6-2.8c0.8-0.3,1.5-0.7,2.2-1c1.2-0.5,2.8,0.1,2.9-0.1c0.2-0.3-0.1,0.6,0.9,1.6
		c0.5,0.5,2.2,0,2.8,0.7c0.5,0.6,0.8,1.5,1.4,2.1c0.6,0.6,0.1,2.3,0.7,2.9c0.6,0.5,2.4-0.3,3,0.2c0.7,0.5,1.1,1.4,2.1,1.5
		c0.8,0.1,1.6-1.1,2.5-1.2c0.8-0.1,2.1,1.9,3,1.7c0.8-0.2,1.3-1.6,2.2-1.9c0.8-0.2,1.7-0.4,2.5-0.7s2.1,0.4,2.9,0.1
		c0.8-0.4,0.5-3.1,1.3-3.5s1.9,0,2.7-0.4s1.9-0.1,2.7-0.5c0.5-0.2,0.9-0.6,1.3-0.9c0.3,0.2,0.6,0.5,0.9,0.7
		C165.8,182.5,167.2,187.1,167.8,192.4z"/>
	<path style="fill:none;stroke:#000000;stroke-width:2;stroke-miterlimit:10;" d="M222.1,206L222.1,206c0.1,1-0.3,1.7-1,2.1
		c-0.6,0.4-1.5-0.2-2.5-0.1c-0.7,0-1.6,1.8-2.5,1.7c-0.8,0-1.5-1.3-2.4-1.4c-0.8-0.1-1.6-0.2-2.5-0.3c-0.8-0.1-1.5-1.5-2.3-1.6
		c-0.9-0.1-1.9,1.1-2.7,1c-1-0.1-1.9,1-2.7,1c-1,0-2.3-2.2-3.1-2c-0.9,0.3-1.3,2.1-2.1,2.5c-0.9,0.4-1.4,1.3-2.2,1.7
		s-2.5-0.8-3.3-0.4c-0.8,0.3-1.4,0.8-2.3,1.1c-0.9,0.2-1.4,1.6-2.4,1.7c-0.9,0.1-1.8-1.5-2.6-1.5c-0.9,0-1.6-0.1-2.4-0.2
		c-0.2,0-0.4,0-0.6,0c-0.8-8.5-0.8-20.6-0.8-20.6l-0.3-2.3l-0.2-1.5l-5.7-4.6l6.3-8.2c0.2,0.2,0.5,0.4,0.7,0.4
		c0.8,0,1.6,0.7,2.5,0.7c0.9,0.1,1.7-0.1,2.6-0.1c0.9,0,1.7-0.1,2.6-0.1c0.8,0.1,1.7-1.7,2.6-1.7c0.9,0,1.7,1.7,2.6,1.7
		c0.8,0,1.3,0.4,2.2,0.6c0.8,0.2,1.9-0.8,2.7-0.4c0.7,0.3,0.9,1.7,1.7,2.1c0.7,0.4,1.2,1.1,1.9,1.6s2.1,0,2.8,0.5s2,0.2,2.7,0.8
		c0.3,0.2,0.5,0.6,0.8,0.9c0.3,0.4,0.5,0.9,0.8,1.2c0.6,0.6,0.9,1.5,1.5,2.1s1,1.4,1.6,2s1.9,0.7,2.4,1.3c0.6,0.7-0.1,2.4,0.4,3
		c0.3,0.4,0.4,0.8,0.6,1.3c0.1,0.4,0.3,0.7,0.4,1c0.5,0.8,1.5,1.1,1.8,1.7c0.6,1.1,2.5,2.1,2.3,2.5c-0.4,0.8-2.3,1.1-2.2,1.9
		c0.1,0.7-0.1,1.8,0.1,2.6c0.2,0.7,1.4,1.1,1.6,2C221.6,204.4,222,205.1,222.1,206z"/>
</g>
<path style="fill:none;stroke:#000000;stroke-width:2;stroke-miterlimit:10;" d="M200.2,170.5h-9.5l-8.1,2.6l-0.8,1l-6.3,8.2
	l5.7,4.6l0.2,1.5l0.3,2.3c0,0,0,12.2,0.8,20.6c0.3,3.1,0.6,5.6,1.1,7h-18.9c0.9-0.2,2-3.5,2.7-8.1c0.8-5.1,1.1-11.9,0.5-17.8
	c-0.6-5.3-2-9.9-4.7-11.9c-0.3-0.2-0.6-0.5-0.9-0.7c-5.6-4.8-6.7-11.8-6.7-11.8s5.7-5,3.8-10.3c0.5-0.1,1.1-0.4,1.6-0.5
	c1.2,1.4,2,2.9,1.8,3.6c-0.9,2.3,20.7-2.5,31.5-4.9c0.3,0.3,0.6,0.6,0.7,0.9c0,0.3,0.1,0.6,0.1,0.9c-10.8,0.9-22.4,4.4-22.4,4.4
	s-8.6,8.9-5.2,11c3.3,2,18.1-4.1,20-4.6s10-2,17.1-1.3C208.2,167.6,200.2,170.5,200.2,170.5z"/>
<path style="fill:none;stroke:#000000;stroke-width:2;stroke-miterlimit:10;" d="M160.9,157.2c-0.5,0.1-1.1,0.4-1.6,0.5
	c-0.3-0.8-0.7-1.6-1.4-2.5C154.3,151,158.3,154,160.9,157.2z"/>
<path style="fill:none;stroke:#000000;stroke-width:2;stroke-miterlimit:10;" d="M201.5,157.5c-0.3,0-0.5,0-0.8,0
	c-1.8-0.1-3.7,0-5.7,0.2c0-0.3-0.1-0.5-0.1-0.9c0-0.3-0.3-0.6-0.7-0.9c1.2-0.3,2.3-0.5,3.2-0.7c2.6-0.6,4.9-0.6,6.6-0.4l0,0
	C208.3,155.4,209.2,157.6,201.5,157.5z"/>
<g>
	<path style="fill:none;stroke:#000000;stroke-width:2;stroke-miterlimit:10;" d="M245.5,186.4c-0.1-0.2-0.3-0.3-0.4-0.5
		c-0.5-0.6-1-1.7-1.7-2.3c-0.6-0.5-1.7-0.7-2.5-1.2c-0.7-0.5-2-0.2-2.7-0.7s-1.9-0.4-2.6-0.8c-0.8-0.5-1.5-1.1-2.2-1.6
		c-0.8-0.6,0.2-2.8-0.2-3.4c-0.6-0.8-2.3-0.8-2-1.6c0.3-0.6,1.6-0.2,2.4-0.6c0.7-0.3,0.9-1.7,1.8-2c0.8-0.2,1.7,0.4,2.5,0.2
		s1.7,0.2,2.5,0.1c0.9-0.2,1.9-0.1,2.5-0.3c0.2-0.1,0.4-0.2,0.6-0.4c0.9-0.8,1.4-2.6,0.7-3.1c-0.2-0.2-0.7,0-1.3,0.1s-1.2,0.2-1.8,0
		c-1-0.4-1.3-1.4-1.8-1.8c-0.6-0.5-0.5-0.8-0.2-1.1c0.1-0.1,0.3-0.3,0.4-0.5c0.4-0.5,0.7-1.3,1.5-1.8c0.6-0.4,1.1-1.1,1.8-1.6
		c0.6-0.5,2.1-0.3,2.6-0.9c0.5-0.6-0.6-2.1-0.4-2.9c0.1-0.7,1-1.4,0.7-2.3c-0.2-0.7-2.1-0.9-2.4-1.8c-0.3-0.7,0.3-1.9-0.1-2.7
		c-0.3-0.7-0.7-1.5-1.1-2.3c-0.4-0.7-1.3-1.2-1.7-2c-0.4-0.7-0.5-1.6-0.9-2.4c-0.4-0.7-0.9-1.4-1.3-2.2c-0.4-0.7-0.7-1.6-1.1-2.3
		c-0.4-0.7-0.2-1.9-0.7-2.6c-0.5-0.7-0.2-2-0.7-2.6c-0.5-0.7-1.4-1.2-1.9-1.8c-0.6-0.7-2.2-0.3-2.8-0.9c-0.6-0.7-1-1.3-1.7-1.8
		c-0.7-0.6-1.1-1.4-1.8-1.7c-0.8-0.4-1.4,0.3-2.2,0.4c-0.8,0.1-1.9-0.1-2.9-0.2c-0.8-0.1-1.8-0.3-2.7-0.5c-0.8-0.2-1.3-2.1-2.1-2.3
		s-2.3,1.6-3.2,1.3c-0.8-0.3-1.5-1-2.4-1.3c-0.8-0.3-0.8-2.8-1.6-3.1c-0.8-0.3-2.2,0.8-3,0.5c-0.8-0.4-1.1-1.9-1.9-2.3
		c-0.8-0.4-1.9-0.2-2.6-0.6c-0.8-0.4-1.7-0.7-2.4-1.1c-0.9-0.4-1.5-1-2.2-1.4c-0.9-0.5-1.4-1.5-2-1.8c-0.7-0.4-2.5,1.2-3.4,0.8
		c-0.8-0.3-1-2.1-1.8-2.4s-1.8-0.4-2.6-0.7c-0.8-0.3-1.6-0.8-2.5-1.1c-0.8-0.3-1.6-1-2.4-1.3c-0.9-0.3-1.8-0.5-2.6-0.7
		c-0.9-0.2-2.1,0.8-2.9,0.6c-0.9-0.2-1.8-0.4-2.6-0.5c-1-0.1-2-1.3-2.8-1.2c-0.8,0.1-1.6,0.7-2.5,0.8c-0.8,0-1.7,0.4-2.6,0.4
		c-0.9,0-1.7-0.8-2.6-0.8c-0.9,0-1.7-0.4-2.6-0.5c-0.9,0-1.8,2.3-2.7,2.3s-1.7-0.2-2.6-0.2c-0.9,0-1.7-2.2-2.6-2.2
		c-0.9,0-1.7,2-2.7,2c-0.9,0-1.8-1.4-2.7-1.3c-0.8,0-1.8,0.2-2.6,0.4c-0.8,0.2-1.6,0.7-2.4,1s-1.6,0.6-2.4,1
		c-0.8,0.4-2.1-0.1-2.8,0.3s-0.7,2.1-1.4,2.6s-1.8,0.5-2.5,1c-0.6,0.6-1.9,0.6-2.5,1.2s-1,1.5-1.6,2.1c-0.6,0.7-0.6,1.8-1,2.5
		c-0.5,0.7,0.4,2.3,0,3c-0.5,0.9-0.7,1.4-0.9,2c-0.2,0.9-1.7,1.8-1.3,2.6c0.4,0.7,2.6,0.2,3.1,0.8c0.5,0.5,0,1.4-0.3,2.1
		c-0.2,0.3-0.3,0.6-0.3,0.8c0,0.5,0.2,0.3-1.1,0.7c-0.6,0.2-1,2.3-2,2.5s-2.1-0.9-2.9-0.9c-1,0.1-1.8-1.3-2.6-1.4
		c-1-0.1-2.1,1.6-2.9,1.5c-1.1-0.2-1.9-0.2-2.6-0.3c-1.1-0.1-0.7,0.1-1.2,1c-0.3,0.6-2.7,0.7-2.8,1.9c-0.1,1,0.3,1.9,0.2,2.8
		c-0.2,1,1.2,2.2,1.1,3c-0.2,1-2.6,1.6-2.6,2.4c0,0.1,0,0.2,0,0.3c0,0.9,0.1,2,0.4,2.6c0,0.1,0.1,0.2,0.1,0.2
		c0.4,0.7,1.4,1.9,2.4,2.4c0.9,0.4,2.3,0.1,3,0c0.4-0.1,0.8-0.3,1.1-0.5c0,0.1-0.1,0.3-0.1,0.4c-0.7,1.1,0.4,1.7-0.9,2.5
		c-0.7,0.4-2.2-0.4-3,0.2c-0.7,0.5-1.8,0.6-2.5,1.2c-0.7,0.5-0.8,2-1.4,2.5c-0.7,0.7-0.3,2-0.7,2.6c-0.3,0.6-2.2-0.2-3.2,0.3
		c-0.7,0.3-1.5,0.3-2.4,0.6c-0.8,0.3-1.5,0.6-2.4,0.8c-0.7,0.2-1.1,1.2-1.8,1.6c-0.1,0.1-0.2,0.1-0.4,0.2c-0.8,0.2-1.6,0.8-2.4,1
		c-0.9,0.3-1.5,1.1-2.2,1.4c-0.9,0.3-1.8,0.3-2.5,0.6c-1,0.6-2.9,0.9-2.9,1.6c0,0.6,1.7,1.3,2.9,1.8c0.7,0.3,1.3,1.4,2.2,1.7
		c0.8,0.2,2.1-1.3,3-1c0.8,0.2,1.8-0.2,2.6,0c0.8,0.2,1.3,2,2.2,2.1c0.8,0.2,1.7,0,2.6,0.2c0.9,0.1,1.7,0.5,2.5,0.7
		c0.9,0.1,2-1.3,2.8-1.2c0.9,0.1,1.6,1.4,2.4,1.6c0.9,0.1,1.9-0.5,2.7-0.3c1,0.2,1.9,0.2,2.6,0.4c1.4,0.3,3.1,1.2,3.2,1.5
		s-1.7,1.1-3.2,1.6c-0.7,0.3-1.3,1.4-2.3,1.7c-0.8,0.2-1.8,0.3-2.7,0.5c-0.8,0.2-1.9-0.3-2.8-0.1c-0.9,0.3-1.6,0.8-2.5,1
		c-0.9,0.3-1.7,0.6-2.6,0.8c-0.9,0.3-1.8,0.3-2.6,0.6c-1,0.3-1.4,1.7-2.1,2c-1.5,0.6-3,0.4-2.6,0.7c0.7,0.6-0.6,1.1-0.8,2.2
		c-0.2,0.9-0.2,2.8,0.3,3.7c0.4,0.6,1.8,1.7,3,2.1c0.7,0.3,2.4-1.6,3.4-1.2c0.7,0.3,1.7,0.5,2.6,0.9c0.8,0.4,1.3,1.3,2.1,1.7
		c0.8,0.4,0.6,2.7,1.4,3.1c0.8,0.4,2.3-0.6,3.1-0.2c0.8,0.4,1,2.1,1.7,2.5c0.9,0.5,2.2-0.1,2.9,0.3c1.4,0.8,0.8,0.1,2.1-0.1
		c1.3-0.2,0.3,0,1.4-1.1c0.1-0.1,0.2-0.2,0.3-0.3c0.5-0.5,0.9-1.3,1.4-1.7c0.7-0.5,2.6,0.6,3.3,0.1c0.8-0.5,0.6-2.7,1.3-3.1
		c0.9-0.4,2.2,1.1,3,1.2c0.7,0.1,2-0.5,2.6,0.1c0.6,0.5,1.8,0.8,2.3,1.5s-0.1,2.1,0.3,2.8c0.4,0.8-0.6,2.3-0.2,2.9
		c0.6,1.1,2.5,2.4,2.8,2.3c0.5-0.1-0.4-2.7,0.3-3.9c0.4-0.7,3.2-0.2,3.7-1l0,0c0-0.1,0-0.1,0-0.2c0.1-0.9-1.5-2.8-1.2-3.5
		c0.5-0.8,3-0.4,3.4-1.1c0.6-0.8,0.4-2,1.1-2.5c0.8-0.7,1.5-0.8,2.3-0.5c0.7,0.2,1.4,0.7,2.4,1.1c0.7,0.3,1.6,0.8,2.5,1.1
		c0.8,0.3,2.1-1.3,3-1.1c0.8,0.2,1.5,1.8,2.4,1.9c0.8,0,1.6-1.9,2.6-1.9c0.8-0.1,2,1.8,2.9,1.6c0.8-0.2,1.6-0.8,2.5-1.1
		c0.8-0.3,1.4-1.3,2.1-1.6c-0.6-5.3-2-9.9-4.7-11.9c-0.3-0.2-0.6-0.5-0.9-0.7c-5.6-4.8-6.7-11.8-6.7-11.8s5.7-5,3.8-10.3
		c0.5-0.1,1.1-0.4,1.6-0.5c1.2,1.4,2,2.9,1.8,3.6c-0.9,2.3,20.7-2.5,31.5-4.9c0.3,0.3,0.6,0.6,0.7,0.9c0,0.3,0.1,0.6,0.1,0.9
		c-10.8,0.9-22.4,4.4-22.4,4.4s-8.6,8.9-5.2,11c3.3,2,18.1-4.1,20-4.6s10-2,17.1-1.3c3.7,0.4-4.3,3.3-4.3,3.3h-9.5l-8.1,2.6l-0.8,1
		l-6.3,8.2l5.7,4.6l0.2,1.5c0.2,0.4,0.5,0.8,0.9,1c0.7,0.4,1.7,0.6,2.5,1.1c0.7,0.5,1.9,0.5,2.6,1c0.7,0.5,0.5,2.4,1.2,3
		s1.1,1.5,1.8,2s3.1,0.2,3.1,1.2c0,0.7-1.5,1.6-1.7,2.5c-0.2,0.8,0.3,1.9,0,2.7s-2.2,0.9-2.5,1.7c-0.4,0.9-0.7,1.7-1,2.4
		c-0.5,1.3,0,0.8,0.8,0.8c0.6,0,1.6,1.4,2.7,1c0.7-0.3,0.9-2,1.7-2.4c0.7-0.4,1.6-0.6,2.4-1.1c0.8-0.4,1.7-0.4,2.5-0.8
		c0.8-0.4,1.7-0.5,2.5-0.9s1.9-0.2,2.6-0.5c0.9-0.4,1.4-1.4,2.2-1.7c1-0.4,2.1-0.9,2.7-0.9c0.7,0.1,0.9,2.3,1.8,2.6
		c0.7,0.3,1.5,0.3,2.3,0.7c0.7,0.3,1.5,0.6,2.3,0.9s2.2-1.3,3-1.1s1.2,2.3,1.9,2.5c0.7,0.1,1.6-0.1,2.4-0.2c0.1,0,0.2,0,0.3,0
		c0.8-0.1,1.9-0.4,2.6-0.9s1.3-0.9,2.1-1.3c0.7-0.4,0.5-2.6,1.2-3s1.6-0.7,2.3-1c0.7-0.4,2.1,0.4,2.8,0c0.8-0.4,2,0.2,2.7-0.1
		c0.8-0.4,1.2-1.4,1.9-1.8c0.4-0.2,0.6-0.9,0.7-1.5c0.1-0.6,0.3-1.2,0.6-1.4c0.5-0.2,1.3,0.1,2.1,0.3c0.5,0.1,0.9,0.2,1.1,0.1
		c0.7-0.5,0.8-1.8,1.4-2.4c0.7-0.6,0.8-1.4,1.1-2.1c0.3-0.8,1.9-1.6,1.7-2.5C246.5,187.8,246,187,245.5,186.4z M119.4,150.3
		c0.1,0,0,0-0.3,0.2C119.3,150.3,119.4,150.2,119.4,150.3z"/>
</g>
<g>
	<path style="fill:none;stroke:#000000;stroke-width:2;stroke-miterlimit:10;" d="M184.9,126.6c-0.1,0.9-0.3,1.8-0.6,2.7
		c-0.3,0.9-0.6,1.7-0.9,2.6c-0.3,0.9-0.4,1.9-0.7,2.7c-0.3,0.9-0.3,1.8-0.6,2.6c-0.4,1.1-2,1.6-2.1,2.3c0,0.8-0.5,0.8-1.2,1.4
		c-0.5,0.5-0.8,1.3-1.6,1.7c-0.7,0.4-1.1,1.3-1.9,1.7c-0.8,0.4-1.5,0.8-2.2,1.2s-1.1,1.2-1.7,1.7c-0.6,0.5-0.8,1.2-1.2,1.9
		c-0.4,0.6-0.3,1.1-0.5,2c-0.2,0.7-1.5,1.3-1.4,2.2c0.1,1,0.5,2.1,0.2,2.7c-0.4,0.8-1.8,0.3-2.6,0.7c-0.7,0.3-1.1,2.5-2,2.6
		c-0.8,0-1.7-2.2-2.6-2.2c-0.1,0-0.3,0-0.4,0.1c-0.5,0.1-1.1,0.4-1.6,0.5c-0.2,0.1-0.4,0.1-0.5,0c-0.8-0.1-1.6-0.9-2.4-1
		c-0.9-0.1-1.8,1-2.6,1c-0.9-0.1-1.9-1.4-2.6-1.3c-1,0.1-0.6,2-0.9,2.7c-0.3,0.7-0.9,1.6-1.5,2.4c-0.5,0.6-1.4,1.1-2,1.8
		c-0.5,0.6-1.9,0.4-2.6,1c-0.7,0.5-1.6,0.7-2.3,1.2s-1.6,0.4-2.4,0.8c-0.8,0.4-1.5,0.5-2.3,0.8s-1.5,0.5-2.3,0.7s-1.2,3.1-2.1,3.2
		c-0.8,0.1-1.7-1.6-2.6-1.7c-0.8-0.1-1.8,1.3-2.7,1.2c-0.8-0.1-1.6-1-2.5-1.1s-1.7-0.8-2.6-0.8s-1.8,1.7-2.7,1.7
		c-0.9-0.1-1.6-2.1-2.5-2.1c-0.9-0.1-1.7-0.5-2.6-0.6s-1.9,0.8-2.7,0.7c-0.9,0-1.6-1.5-2.4-1.6c-0.9-0.2-2.2,2.5-3,2.3
		c-0.9-0.2-1.5-1.7-2.3-1.9c-0.9-0.3-2.3,0.3-3-0.1c-0.8-0.5-1.3-1.9-1.7-2.6c0,0,0,0,0-0.1c-0.4-0.9-0.6-2.1-0.5-2.9
		c0.1-0.9,2.2-0.9,2.7-1.7c0.4-0.8,0.3-1.8,1-2.4c0.7-0.6,0.8-1.9,1.5-2.4c0.8-0.5,1.8-0.8,2.5-1.2c1-0.5,2.4,0.4,3,0.1
		c0.6-0.3,0.9-2.2,1.1-3.3c0-0.3,0.3-0.7,0.5-1c0.3-0.5,0.6-1,0.6-1.6c0-0.3-0.5-0.7-1-1.1c-0.7-0.5-1.6-1-1.6-1.5
		c0-0.9,2.7-1.8,2.7-2.7s-2.6-1.6-2.6-2.5s2.4-1.9,2.4-2.7c0-0.9-0.5-1.7-0.5-2.5c0-1,0.5-1.7,0.6-2.4c0.1-1,0-0.7,0.7-1.1
		c0.7-0.3,1-1.3,1.9-1.2c0.8,0.1,1.9-0.8,2.7-0.6c0.8,0.3,1.3,1.6,2.1,1.9s1.1,1.7,1.8,2c1.1,0.5,2.6-0.6,2.9-0.5
		c0.4,0.1,1,0,2.2-0.3c0.7-0.2,1.1-1.5,1.9-1.8c0.6-0.2,1.7,1.1,2.5,1.6c0.3,0.1,0.5,0.2,0.7,0.1c0.7-0.3,1.2-1.4,1.9-1.7
		c0.8-0.3,1.2-1.5,1.9-1.8c1.3-0.6,1.2,0,2.1-0.8c0.8-0.8,0.6-0.6,1.3-2.3c0.3-0.6,0.9-1.2,1.4-1.9c0.4-0.7,1.5-0.8,2-1.5
		c0.5-0.6-0.6-2.6-0.1-3.2c0.6-0.6,1.9-0.6,2.5-1.1c0.7-0.6,2.1,0.5,2.8,0.2c0.6-0.3,0.8-2.6,1.9-2.7c0.8,0,1.7,1.6,2.7,1.6
		c0.8,0.1,1.7-0.2,2.6-0.1c0.9,0.1,1.9-1,2.8-0.9c0.9,0.1,1.6,1.5,2.5,1.6c0.8,0.1,1.5,1.4,2.4,1.5c0.8,0.1,2.1-2.2,3-2.1
		c0.9,0.2,1.7,0.5,2.6,0.6c0.9,0.2,1.6,1.2,2.5,1.3c0.9,0.2,1.7,0.3,2.6,0.4c0.9,0.2,1.9-0.2,2.7-0.1c0.9,0.2,1.6,1.7,2.4,1.8
		c1,0.2,1.9,0,2.7,0.1c1.1,0.1,1.6,0.6,2.2,1c0.9,0.5,2.9,0.2,3.1,1.1C186,124.4,185.1,125.6,184.9,126.6z"/>
</g>
<g>
	<path style="fill:none;stroke:#000000;stroke-width:2;stroke-miterlimit:10;" d="M221.9,178.5c-1,1-2-0.1-3.3,0.4
		c-1.2,0.5-2.5,0.6-2.8,0.5s-1.6-0.3-2.8-0.7c-1.2-0.3-1.3-0.6-1.5,0.5c-0.1,0.7-1.5,1.5-1.5,2.6c0,0.9,0.8,1.8,0.8,2.7
		c0,1.3,0.1,3.2-0.5,3.4c-0.3,0.1-1.8-1-3.2-0.6c-0.8,0.2-1.6,0.8-2.6,1.1c-0.9,0.2-2,0.1-2.8,0.3c-1,0.3-2.2,0.1-2.9,0.5
		c-1.3,0.6-0.8,2-0.5,2.6c0.2,0.4,0.3,0.9,1.6,1c0.7,0.1,1.5,0.5,2.5,0.5c0.8,0,1.6-0.7,2.5-0.7c0.8,0,1.7,1.6,2.5,1.5
		c0.8,0,1.5-2.7,2.4-2.7c0.8,0,1.7,1.4,2.5,1.3c0.8,0,1.7-0.4,2.5-0.5c0.9,0,1.7-0.1,2.5-0.2c0.9,0,1.7-0.7,2.5-0.8
		c1.1,0,1.9,2,2.4,2.1c0.9,0.1,0.9,0.3,1.4,1.1c0.4,0.8,1.3,1.4,1.5,2.2c0.3,1.6,0.2,2.7,0.6,2c0.2-0.3,1.2-0.8,2.5-1
		c0.7-0.1,1.8,1.2,2.6,1c0.8-0.1,1.3-2,2.2-2.2c0.8-0.1,1.6-0.2,2.4-0.4c0.8-0.2,1.9,0.7,2.6,0.5c0.9-0.2,1.9-0.2,2.6-0.5
		c1-0.5,1.4-1.8,1.3-2.5c-0.1-0.8,0.6-1.2,1.1-2c0.4-0.7,1-1.1,1.7-1.8c0.6-0.6,0-2.7,0.6-3.2c0.7-0.6,1.5-1,2.1-1.5
		c0.9-0.8,1.8-0.8,1.8-1.3c0-0.4,0-1.2-0.5-2.5c-0.3-0.7-0.3-1.8-0.7-2.7c-0.4-0.8-0.5-1.7-1-2.6c-0.4-0.8-2-1-2.4-1.7
		c-0.5-0.8-0.5-1.8-1-2.5c-0.5-0.8,0.2-2.4-0.3-3.1c-0.6-0.8-2.2-0.7-2.8-1.3c-0.8-0.8-1.5-2.6-2.1-2.7c-0.7-0.1-2.1,0.3-3,0.6
		c-0.7,0.3-0.6,2.6-1.4,3.1c-0.7,0.4-1.4,0.9-2.1,1.3c-0.7,0.5-1.4,0.9-2.1,1.4c-0.8,0.5-2.6-0.6-3.3-0.2c-1,0.7-1.6,1-2,1.2
		c-0.7,0.3-2.1,1.3-2.7,2.1C220.7,175.6,223,177.5,221.9,178.5z"/>
</g>
<g>
	<path style="fill:none;stroke:#000000;stroke-width:2;stroke-miterlimit:10;" d="M238.4,152.1c-0.3,0.5-1.1,2.1-2.2,2.4
		c-0.7,0.2-1.9-0.6-2.8-0.5c-0.8,0.1-1.6,1-2.5,1.1s-1.8-2-2.7-2c-0.8,0.1-1.7,0-2.5,0c-0.9,0-1.7,1.6-2.5,1.6
		c-0.9,0-1.8-0.3-2.5-0.2c-1.2,0.2-1.7,0.8-2.1,1.1c-0.6,0.5-1.9,0.2-2.8,0c-0.7-0.2-1.1-1.6-1.9-1.9c-0.8-0.3-2.2,1.1-3,0.8
		s-1.4-0.1-2.2-0.1c-0.9-0.1-2.1-1.9-2.8-1.4c-0.6,0.4-1.1,1.2-1.8,1.8l0,0l0,0c-0.6,0.5-1.8,0.5-2.3,1.1c-0.3,0.3-0.3,0.9-0.2,1.6
		c0,0.6,0.1,1.3-0.2,1.5c-0.6,0.6-2.2-0.2-2.8,0.2c-0.9,0.5-1.1,1.2-1.8,1.1c-0.7-0.1-0.7-0.5-1.2-1.4c-0.3-0.4-0.4-0.8-0.5-1.2
		c0-0.3-0.1-0.5-0.1-0.9c0-0.3-0.3-0.6-0.7-0.9c-0.6-0.5-1.3-1-1.2-1.5c0.1-0.8,1.3-1.6,1.4-2.4c0.1-0.9-0.3-1.8-0.2-2.6
		c0.2-0.8,0.1-1.6,0.1-2.4s0.3-1.5,0.1-2.3s1.2-1.4,1.6-2.3c0.3-0.7,1.1-1,1.7-1.7c0.5-0.7,0.7-1.6,1.3-2.2s0.3-2.3,0.9-2.9
		c0.7-0.7,1-1.8,1.6-2.3c1.2-0.9,1.9,0.9,3.2,0.6c1.3-0.4,0.8-0.5,2.3-0.5c0.7,0.1,1.7-0.8,2.6-0.8c0.8,0.1,1.6,0,2.5,0
		s1.7-0.3,2.5-0.4c0.9,0,1.9,1,2.6,0.8c1.1-0.3,2.4-0.6,2.9,0.1c0.4,0.6,0.4,1.9,0.5,2.8c0.2,1.3-0.9,1.4-0.3,2.5
		c0.5,1.1,0.7,0.6,2.1,1.3c0.7,0.4,1.9-0.1,2.7,0.4c0.7,0.3,1.1,1.3,1.9,1.8c0.7,0.4,2.1-0.1,2.8,0.4s1.4,1.1,2.1,1.6
		c0.7,0.5,1.6,0.8,2.3,1.3s1.1,1.5,1.7,2.1c0.7,0.6,0.7,1.8,1.3,2.4C238.1,150.6,238.7,151.5,238.4,152.1z"/>
</g>
</svg>
