<?xml version="1.0" encoding="utf-8"?>
<!-- Generator: Adobe Illustrator 17.0.0, SVG Export Plug-In . SVG Version: 6.00 Build 0)  -->
<!DOCTYPE svg PUBLIC "-//W3C//DTD SVG 1.1//EN" "http://www.w3.org/Graphics/SVG/1.1/DTD/svg11.dtd" [
	<!ENTITY ns_flows "http://ns.adobe.com/Flows/1.0/">
	<!ENTITY ns_extend "http://ns.adobe.com/Extensibility/1.0/">
	<!ENTITY ns_ai "http://ns.adobe.com/AdobeIllustrator/10.0/">
	<!ENTITY ns_graphs "http://ns.adobe.com/Graphs/1.0/">
]>
<svg version="1.1" id="Layer_1" xmlns:x="&ns_extend;" xmlns:i="&ns_ai;" xmlns:graph="&ns_graphs;"
	 xmlns="http://www.w3.org/2000/svg" xmlns:xlink="http://www.w3.org/1999/xlink" xmlns:a="http://ns.adobe.com/AdobeSVGViewerExtensions/3.0/"
	 x="0px" y="0px" width="256px" height="256px" viewBox="0 0 256 256" style="enable-background:new 0 0 256 256;"
	 xml:space="preserve">
<g transform="translate(0.000000,872.000000) scale(0.100000,-0.100000)">
	<path style="fill:none;stroke:#000000;stroke-width:3;stroke-miterlimit:10;" d="M1230.4,8085c-24-93.2-22.2-88.8-53.4-125.4
		c-40.2-47-61.8-68.4-75.4-74.4c-11.4-4.8-40.6-24.2-52.6-34.4l-6-5.2l9.6,1.2c5.2,0.6,19,4.4,30.8,8.2c11.6,3.8,21.6,6.8,22,6.4
		c0.4-0.4-4-7.4-9.6-15.4c-11.6-16.4-11.4-17,6.2-19.4c25.6-3.4,38,0,38,10.8c0,6.4,11.6,18.6,24.2,25.6l10.4,5.6l-1.4-5.8
		c-0.6-3.2-1.8-12.4-2.4-20.2l-1.4-14.6l-27.2-26.6c-48.4-47.2-66.2-61-88.8-68.6c-8-2.6-26.4-10.8-41-18l-26.8-13l-7.8-17
		c-4.4-9.4-7.4-17.8-6.8-19c1.8-2.8,12.6-2.2,19.6,1.4c3.6,1.8,11.6,8.4,18,14.6l11.6,11.2l-11-19c-6.2-10.4-11.2-19.6-11.2-20.4
		c0-1.6,7.8,0.8,15.4,4.8c2.4,1.2,8.4,7.4,13.4,13.8c5.2,6.6,10,11.8,11.2,11.8c1,0,2-5,2-11s0.6-11,1.6-11
		c4.8,0,16.8,11.4,22.4,21.4c3.6,6.4,6.8,12,7.2,12.4c0.2,0.4,3-1.2,6-3.6c3-2.2,6.2-4.2,7.2-4.2c1.2,0,8.4,5,16,11
		c19,14.8,20,13.8,9.8-9.4c-3-7.2-5.4-9.8-9.6-10.8c-22-5.4-37.2-18.2-71.2-59.6c-19.2-23.8-46.2-46.6-85.8-72.6
		c-10.8-7.2-19.6-13.6-19.6-14.4c0-5.6,14.4-8.2,24.4-4.4c2.6,1,12,8.2,20.8,16c9,7.8,16.8,14.2,17.6,14.2c0.6,0-1.6-4.2-4.8-9.4
		c-6-9.4-7.8-18.6-3.8-18.6c3.2,0,14.6,12.4,22.8,24.4c4.6,7,11,12.8,22.2,19.6c8.6,5.4,16,9.4,16.2,9.2c0.4-0.2-1.2-5.8-3.4-12.2
		c-2.2-6.4-4-14.8-4-18.8l0.2-7.2l6.6,7.6c3.8,4.2,10.2,13.8,14.2,21.6c4.8,9,9.2,14.8,13.2,16.8c6.6,3.6,6.8,3.2,3-10.2
		c-6.6-22.4-3-32.4,5.6-15.8l4.2,8l1-11.6c0.6-6.2,1.4-11.6,2-11.8s3,0.2,5.4,0.8c5.6,1.4,10.6,11.6,21.6,43
		c11.6,33.2,19.2,41.8,14.8,16.8c-2-10.4-1.8-13,0.8-15.8c1.6-1.8,3.4-5.2,3.8-7.4c0.8-3.2,1.6-2.4,4.4,4c2,4.4,5.8,11,8.6,14.6
		c3.8,5,4.6,8,3.6,12.4c-2.2,10.4,0.2,6.6,6-9c3-8.2,6.2-15,7.2-15c1.8,0,7,16.8,8.4,27c0.4,3.4,1,0,1.2-7.4c0-7.4-0.8-15.8-2-19
		c-1-3-8.4-12.2-16.4-20.2c-13.2-13.4-18.6-16.8-68-43.8c-29.4-16-53.2-29.4-53-29.8c0.4-0.4,14.2,3.6,30.6,8.6
		c16.6,5,31.8,9.6,33.8,10.2c3.2,0.8,2.6-0.6-3-7.6c-14-17.8-18.6-21.2-38.2-27.6c-10.2-3.4-27.4-8-38-10
		c-18.2-3.8-21.8-5.4-56-25.4c-20.2-11.8-42-25.4-48.6-30c-12.6-9-24.4-20.4-22.8-21.8c0.6-0.6,10.8,2.6,22.8,7
		c17.4,6.6,26.2,11.2,42.4,23c11.2,8.2,20.8,14.8,21.6,14.8c0.8,0,1-3.6,0.6-8c-0.4-4.4-0.2-8,0.6-8s10,5,20.8,11
		c10.6,6,19.6,11,20,11c0.4,0-1.4-3.8-4-8.4c-11-19.2-3.2-26.2,12-11c7.8,8,20,15.2,22,13.2c0.4-0.6,0.2-7-0.6-14.6
		c-1.4-13.6-1.6-13.8-8.4-16.2c-7.6-2.6-13.2-10.2-15.2-20.6c-1.6-8.4-3.4-9.4-18.8-9.6c-13.8-0.2-36-5.6-43.6-10.4
		c-4-2.6-5-2.6-6.6-0.2c-1.4,2.2-2,2-3-1.6c-0.8-2.8-7-7.8-16.8-13.6c-8.6-5-16.8-10.6-18.2-12.2c-1.4-1.8-6.2-5-10.6-7.2
		c-10.6-5.2-36.8-25.2-39.2-29.8c-3.2-5.8-2.4-9.8,2-9.8c2.2,0,4-0.6,4-1.4c0-1-8.4-11.6-18.6-24c-19-22.8-30.6-41-28.4-44.6
		c3.8-6.2,19.4,1.6,29,14.4l6,8.4v-8c0-10,4.6-14.8,14.2-14.8c8.6,0,20.6,9.6,29.2,23c3,5,7.2,9,9,9c2,0,4,2,4.8,5
		c1,4.4,10.4,14,12,12.4c0.2-0.2,0-4.4-0.6-9.2c-1-7.4-3.6-11-18-26.2c-14.2-15-19.6-19-33.8-26c-14.2-6.8-17.6-9.4-20-15
		c-1.6-3.8-2.8-7.8-2.8-9c0-3.6,6-2,11,3c5.8,5.6,6.2,5,2-3c-4-7.8-0.8-7.6,6.8,0.6c5.8,6,6.2,6.2,6.2,1.8c0-3.8,0.6-4.2,3.8-2.6
		c2,1.2,4.4,4.4,5,7.4c1.2,4.2,1.8,4.8,4.4,2.6c2.4-2,4-1.4,8.8,3.2c3.8,3.6,6,4.6,5.8,2.8c-0.2-6-3.2-10-9.8-13.4
		c-4-2-12.2-10.4-19.6-19.8c-7-9-19.2-22-27.4-28.8c-8.2-6.8-14.4-13-13.8-14c2-3.2,6.6-1.8,13.4,4.2l6.8,6l-0.8-5.6l-0.8-5.4
		l3.6,4.4c2,2.4,5.2,6.6,7.2,9.4c2,2.8,5.4,6.2,7.8,7.4c4,2.2,4,1.8,2.8-5.4c-1.2-7.6-1.2-7.8,2.2-3.6c2,2.4,5.2,7.2,7.2,10.8
		c4.4,8,6,7,3.4-2c-2-7-1-10.8,1.8-6.2c1.2,1.8,2,1.4,2.8-1.8c1.8-6.8,4.6-3.2,9.4,11.6c4.6,13.6,9.6,22.2,7.2,12
		c-0.6-2.8-0.6-6.8,0-8.6c1-2.6,2.2-1.8,5.4,3.4l4.2,6.6l1.2-5c1.4-5.2,2.6-3.8,4.6,5c0.6,2.4,1,1.4,1.2-2.4
		c0.2-9.2-10-20-33.4-34.6c-10.6-6.6-18.8-12-18.2-12c0.6,0,6.4,1.8,12.8,4l11.4,4l-2.8-4.4c-4.8-7-11.8-11.2-24.2-14.4
		c-14.4-3.8-51.4-27.8-51.4-33.6c0-2.6,14.2,4.6,23.6,12c6,4.8,8.4,5.8,8.4,3.6c0-4.2,2-4,8,0.8c6.4,5,8.6,5,6,0
		c-3.8-7,0-8.8,6.2-2.8c3.2,3,6.2,5,6.8,4.4c2-1.8-1.4-11.8-4.2-13c-1.4-0.4-3.2-3.6-3.8-6.8c-1.2-4.8-2.2-5.8-7.6-5.8
		c-8.4,0-19.6-6-37.4-19.8c-11.2-8.6-14.8-12.6-14.6-15.8c0.4-2.4-3-9.4-7.4-15.6c-8-11.4-9.8-16.8-6-16.8c1.2,0,3.6,1.6,5.6,3.6
		c3.2,3.4,3.6,3.4,6.4-0.2c4.2-5.2,8.4-2.8,17,9.8c9.8,14.2,10.8,14.6,8.4,3.6c-1.6-7.2-1.6-9.4,0.4-10.8c2-1.2,1.4-3.2-2.6-9.2
		c-2.8-4.2-5.2-8.8-5.2-10.2c0-4,5.4-3,8.6,1.4l2.8,4.2l1.2-4.2c1.4-5.6,8.4-5,12.8,1c2,2.8,6.2,8.4,9.2,12.6l5.6,7.2l-1.4-10.6
		c-1.2-8.8-0.8-10.6,1.4-9.8c1.6,0.4,4.2,5.2,5.8,10.4c2.6,8,4.4,10.2,12.2,14.2l9.2,4.6l-3.8-7.2c-4-8-4.6-14.8-1.8-20.2
		c1.4-2.4-0.4-10.2-6-26.8c-4.4-12.8-7.8-25.8-7.4-29l0.8-5.4l3.2,7c3.2,7,3.2,7,3.4,1.6c0.2-3.2,1-5.6,2-5.6c3.2,0,5.8,5,10,19.4
		c2.4,8,4.8,14.6,5.4,14.6c0.4,0,0.4-5.8-0.4-13c-1.6-14.4,2-18.8,4-5c0.6,4.4,1.8,11.4,2.4,15.6c0.8,6,10.4,20.4,13.4,20.4
		c0.4,0,0-4.6-0.8-10.4c-1-5.8-1.4-10.8-0.8-11.2c0.4-0.4,2.6,5.8,5,13.8c7.8,26,8.6,26.8,10.2,10.8c1.6-14.6-1.4-67-8-142
		c-2.2-24.4-3-42.2-2-42.6s1.8-1.8,1.8-3c0-1.6,4.6-2.6,12.6-3c10.8-0.4,13.4,0.2,18,4l5,4.6l-4.2,31c-3.4,25.4-4.2,40.6-4.2,85
		c0.2,53,1.6,79.2,4.6,75.8c0.8-1,3-8.8,5-17.2c2-8.6,4.2-16,5.2-16.6c0.8-0.4,3,2,4.6,5.4l3,6.2l1.4-9.2c1.8-12,5-14.2,5-3.4
		c0,10.4,2.8,8.8,5.8-3c3-11.6,7-12,5.2-0.4c-1.8,12.4,2,5,5-9.6c1.4-6.6,3.4-14.2,4.6-17c2-5,2.2-5,3.4,2l1.4,7l2.6-6
		c4.4-9.8,4.6-1.4,0.4,17.6c-2,9.6-3,18.4-2,19.8c0.8,1.4,1.6,4.6,1.6,7.2c0,8.2,3.6,4.4,8-8.6c4.6-14,7.2-16.2,9.2-7.4
		c2,9,2.6,10.4,4.8,10.4c1,0,2-1.6,2-3.8c0-6,4.2-16.2,6.2-15c1,0.6,1.8,3.4,1.8,6.4l0.2,5.4l3-5.4c1.6-3.2,3.8-5.6,5-5.6
		c2.2,0,0.6,7.4-3.6,17.8c-5,11.8-1.2,9.6,12.4-7.2c3-3.6,8-8.4,11.2-10.8c8.6-6,7.6-0.4-2.2,12c-9,11.4-9.4,12.2-4.4,12.2
		c1.8,0,5.6-3.6,8.4-8c5-8,13.4-15.4,15.4-13.2c2.6,2.6-4.4,15-13,23.2c-5.2,5-12.8,13.4-17,18.6c-6,7.2-9.8,10-16.8,12
		c-7.2,1.8-9.8,3.8-12.8,9.8c-2,4-5.4,7.8-7.4,8.4c-2,0.6-4.8,4.4-6.2,8.2c-1.4,4.2-3.8,7-5.8,7c-4.2,0-14.4,9.2-14.4,13
		c0,1.6-2.6,4.2-6,6c-6.6,3.4-7.8,7.8-2.8,9.8c7,2.6,10.2,0.6,19.2-11.8c5.2-7.2,10.4-13,11.6-13c1,0,2,3.8,2,8.4
		c0,7.8,0.2,8.2,3.2,5.2c1.8-1.8,6.4-8.4,10.2-14.8l6.8-11.8l-0.8,8.6c-0.8,6-0.4,8,1.2,7c14.6-8.6,17.2-10.8,18.4-17
		c2.4-11.8,3.2-13.6,6.4-13.6c2.6,0,3,1.6,1.8,9.2c-1.4,11,0.6,10.2,8.4-4c6-10.4,10.8-14.4,14.6-12c1,0.6,1.8,2.4,1.8,4.2
		c0,2.4,1.4,1.8,5-2.2c2.8-3,5.8-4.8,7-4.2c2.6,1.6-0.8,9.8-10.4,24c-4.6,6.6-8,13.8-8,16.2c0.4,5.2-6.6,12.8-11.6,12.8
		c-4.6,0-5.2,2.6-1.2,5.8c1.6,1.2,3.8,5,5.2,8.2c2,5,3,5.6,6.2,3.8c3-1.6,3.8-1.2,3.8,1.8c0,2-1,4.6-2.2,5.8c-1.6,1.6-1,5.8,2.2,16
		c7,20.6,22.4,55,21.2,46.6c-7.4-47.8-8.6-60.2-6-66.8c4-10.4,9.4,2.8,13.8,32.8c4.8,33.8,6.2,36.8,24.8,55.6
		c8.8,8.8,16.2,15,16.2,13.8c0-1.4-1.4-10.4-3-20.4c-3.6-21.2-4-33.8-1-28.6c1.2,1.8,7,18,13.2,36c12.6,36.4,20.4,53.6,22.6,49.8
		c1-1.4,1.2-13.6,0.6-27.4c-1-24.2-0.2-27.8,5.2-22.4c3.4,3.4,3.2-9.2-1.4-51.6c-7.4-67.2-10.2-103.8-11-143.8
		c-0.6-22-3-63.4-5.2-92c-5.8-71.4-5.8-71.6-0.8-78.4c3.6-5,19.2-14.8,32.4-20.6c10.4-4.4,26.8-0.2,29.4,7.8c0.6,2,5.2,5.2,10.2,7.2
		c9.2,3.4,9.2,3.6,8,11c-0.6,4.2-3.8,28.6-7.2,54.2c-12.6,98.6-14.8,138-10.4,187.8c1.4,14.8,2.4,40.6,2.4,57
		c0,26,6.8,106.4,9.2,108.8c2.6,2.8,7-8.2,14.8-36.8c4.6-17.6,10.4-36.4,12.6-41.6c4-9.8,8-11.4,9-3.6c0.4,2.4,2,5,3.4,5.4
		c1.6,0.6,4.4,5.8,6.2,11.4l3.6,10.4l2.6-9c1.6-5,2.4-11.2,1.8-14c-0.4-2.8,0.2-6.4,1.6-8s3.6-7,5-11.8c3.2-11.4,6.2-7.6,6.2,8
		c0,6.6,1.2,12.6,3,15c2.8,3.6,2.8,3.6,3-0.8c0-3,1.4-5.2,4-5.8c3-0.8,5-4.8,8.2-15.4c4.2-14.2,6.8-19.2,10-19.2
		c3.4,0,4,8.8,1.8,26.2c-1.2,10.2-1.8,18.8-1.2,19.2c0.4,0.6,4-8.8,7.8-20.6c5.2-15.8,6.4-22.4,5-24.6c-1.2-1.8-7-7-12.8-11.8
		c-11.8-9.4-15.8-14.6-17.8-22.8c-3.2-12.6,12.8-3,25,15c5.2,7.8,9.4,9.4,11.2,4.4c0.8-1.8-2.2-7.2-7.6-13.6
		c-17.6-20.4-16.4-26,2.2-11.4l10.2,8l2.8-6.8c3-7.4,7.6-11.2,8.8-7.6c0.4,1.4,2,2.4,3.4,2.4c1.6,0,3.8,1.8,5,4c2.4,4.4,6,5.4,6,1.6
		c0-1.4,0.8-3.8,1.8-5.4c3-4.8,7.8,0.8,9.2,10.6c0.8,4.8,2.2,9.8,3,11.2c3,4.8,10-3.4,10-11.2c0-13.6,6.8-8.8,13,9.2
		c5.6,16.4,10.8,23.2,11,14.6c0.2-2,1.4-7.2,3-11.4c2.6-7.2,2.4-9.4-2.2-26c-7.2-27.4-5.8-41.8,2-20.2l3,8v-9.4
		c0.2-9.8,2.4-13.2,5.8-9c1,1.2,4.4,11.8,7.4,23.4c6.8,26,9.2,30.8,7.6,14.8c-1.6-17,1.8-17.8,7.6-1.4c6.2,17,9.8,18.6,9.8,4.4
		c0-13.4,2.8-11,6.4,5.2l2.8,12l4.8-9.6c2.6-5.2,5.4-8.8,6.4-7.8c0.8,0.8,4.4,12,8,25c3.6,12.8,7.2,23.4,7.8,23.4
		c2.6,0,3.8-9.8,6.2-49c3.2-53.4,2.8-131.8-1-187c-1.8-24.6-2.8-45.4-2.2-46s8.4-1,17.4-1c16.4,0,29.8,4.2,32,9.6
		c0.4,1.4-1.6,26.8-4.8,56.4c-3.2,29.8-6.6,70.6-7.8,91c-1,20.4-3.4,48.8-5,63c-3.4,31-3.6,37.6-1,36c1.2-0.8,2,3.6,2,11.8
		c0,12.4,1.8,16.2,5.2,10.8c0.8-1.2,4.8-11.8,9-23.4c7.6-21.2,9.6-21,6,0.6l-1.6,9.8l10.4-10.8c9.4-9.8,10.6-12,11.8-22.8
		c2-16,5-27,7.2-27c2.4,0,2.4,17.8,0,30c-0.8,5-1.4,9.2-1,9.6c0.4,0.4,3.4-6.8,6.8-16c13-34.6,18.6-41.4,21.4-26.4l1.4,7.2l3.6-8.2
		c3.8-8.8,7.8-10.8,7.8-4c0,5.6-10.6,36.6-19.2,55.8c-5.8,13.2-6.2,15.4-3.6,18.2c6.2,6.8,1.8,28-7.4,34.8
		c-5.2,3.8-4.2,3.6,12.2-3.4c15.6-6.6,15.6-6.6,19-18.6c1.8-5.8,4.4-11.8,6-13c6.8-5.6,9,4.6,4.2,18.6c-1.6,4.2-2.2,7.4-1.4,7
		s7.6-7.6,15-16c7.2-8.4,15-16,17.4-16.6c5-1.6,9.8,2.2,9.8,7.6c0,3.8,0.6,3.6,6.6-2.2c6.8-6.6,13.4-8.4,13.4-3.6
		c0,4-15.8,24.6-27.6,36l-10.2,9.8l5.2,2.8c2.8,1.4,5.4,2.6,5.6,2.6c0.4,0,2.2-4.8,3.8-10.8c3.2-11,7.4-16.4,11.2-14.2
		c2.8,1.8,2.6,9-1,18.8c-1.6,4.4-2.2,8.2-1.4,8c0.8,0,6.8-6.4,13.4-14.2c15-17.6,19.2-20.6,24.8-17.6c2.4,1.2,4.2,4,4.2,6.2
		c0,3.8,0.6,3.6,7-2c4-3.4,8.4-6.2,10-6.2c6.6,0,3,6.4-20,35.2c-3.4,4.2-3.4,5.2-1,6.8c4.2,2.6-3.4,10-25,24.4
		c-25.2,16.6-36.8,21.8-50.8,23c-8.2,0.8-12.2,2-12.2,3.8c0,5.6-4.8,12.6-9.2,13.6c-4,1-4.8,2.6-4.8,9.2c0,4.4,0.8,8,2,8
		c1,0,5-2.6,8.6-6c3.8-3.2,8-6,9.2-6c3.2,0,2.6,6.4-1.2,12c-3.2,4.6-2.8,4.6,8-1.6c13.4-7.6,13.4-7.6,13.4-2.4c0,2.2,0.4,4,1,4
		c0.6,0,6.2-3.6,12.2-8.2c6-4.4,17-10.2,24.4-13l13.4-5l-6.6,6.8c-3.8,3.8-18.2,13.6-32,22c-19.6,11.4-28.4,15.4-38.4,17.4
		c-16.4,3-18.6,4.2-23.8,13c-4.6,8-4,8.2,7.8,4c4.8-1.6,9-2.8,9.4-2.4c0.2,0.4-5.8,4.2-13.6,8.6c-12,6.4-16.4,10.6-26.6,23.8
		c-11.2,14.8-12.2,16.8-12.2,26.8c-0.4,13.4,2.2,10.6,10-11.4c3-8.4,6.4-16.6,7.4-17.8c3.8-4.8,7.6-2.8,7.8,4c0,6,0.2,6.2,2.2,2
		c4.8-9.8,7.2-3.4,3.8,9c-3.2,11,2.4,7.8,10.2-5.8c3-5,7-10.4,8.8-12c3.8-3,3.8-4.2-0.6,14l-1.2,4.8l8.4-4.8
		c4.6-2.6,11.6-9,15.4-14.2c7.8-11.2,15-13.8,9.8-3.6c-4.6,8.8-3.8,8.8,8-1c11-8.8,19.2-11.4,22.2-6.6c0.8,1.4,0,3.2-2.2,4.4
		c-16,9.4-47.6,35.6-57,47.6c-15,18.8-26.2,28.8-35.4,31.6c-6,1.8-8.2,4-11,10.2c-4,9.6-1.4,10,8.2,1.8c6.4-5.4,7.4-5.8,11.4-3
		c4.2,2.6,4.6,2.4,6.8-3.2c2.4-5.4,10.6-13.8,14-13.8c0.6,0,1,2.6,0.4,6c-1.2,7.8,2.2,7.6,7.6,0c4-5.8,16-13.8,16-10.8
		c0,0.8-2.4,5.6-5.4,10.6l-5.4,9.2l7.6-6.4c4.8-4.4,9.4-6.6,13.2-6.6c7,0,7.2,0.4,1.4,12c-3.6,7.2-6.6,10-17.4,15.4
		c-7.2,3.6-18,8.4-23.8,10.8c-14.6,5.4-25.4,13.8-48.4,37.2c-18.8,19-19.4,20-20.2,30.2l-1,10.4l5.2-3.2c8.8-5.6,14.2-11.4,14.2-15
		c0-5.2,3.4-6.6,15.8-6.2c14.4,0.4,16.2,2.4,9.4,11.4c-3.2,4-5.2,7.6-5,8c0.4,0.2,6.2-1.2,12.8-3.2c6.6-2,13.8-3.8,16-3.8
		c3.4,0.2,2.8,1-3,6c-3.8,3.2-13.2,9.2-20.6,13.4c-9.6,5.2-17.8,12.2-28.2,23.6c-33.2,36.6-36.2,42-45.2,78.8
		c-5,20.2-6,20.4-10.6,2.2c-1.4-5.6-3.4-10-4.6-10c-1,0.2-6.2,3-11.8,6.4l-10,6.2l6,2c26.6,8.6-1,25.2-32.6,19.4
		c-10.8-1.8-12.8-1.6-18.6,1.8c-10.4,6-41.6,17.6-71.6,26.2c-18.8,5.4-28.4,9.2-32,12.8c-3,3-6.4,5.2-7.8,5.2s-2.4,2-2.4,4.6
		c0,5.2-9.2,20.4-15.6,26.2c-6.6,5.6-5.4,7.2,5.2,7.2c13.6,0,21.8-2.8,32.2-11.4c17.4-14.4,17.2-14.4,9.4,1.2
		c-5.8,11.4-7,15.2-5,17.4c4,5,7.2,3.2,21.2-12.4c9.2-10.4,16.8-16.8,23.6-20c5.4-2.6,10.2-4.4,10.6-4c0.4,0.4-3.4,9-8.4,19
		c-5.2,10-8.4,18.2-7.4,18.2c6.2,0,20-7.4,28.8-15.2c14-12.6,27.4-18.4,27.4-11.8c0,3.4-8.6,18-12,20c-1,0.6-2,2.2-2,3.2
		c0,1.2,4-1.2,8.8-5.2c10-8,18.4-9.8,21.8-4.6c2,3-0.6,6.6-18.2,24.2l-20.6,20.6l-33.4,9.8c-39.4,11.4-52.8,18-95,46.2
		c-35,23.6-45.4,32.2-45.4,38.4c0,4.4-1.6,4.4,28.4,0.6l11.4-1.6l6,14.2c3.2,7.8,6.6,14.4,7.6,14.6c1,0.4,6-5.8,11.2-13.8
		c14.6-22.8,15.4-23.8,22.8-27c12.2-5,13-3.4,6.6,16c-3,9.6-5.2,17.4-4.6,17.4s7.8-5.6,16.4-12.4c14.4-11.6,28-19.4,33.8-19.6
		c1.6,0-2.2,6-8.4,13.4c-6.2,7.4-10.8,13.6-10.4,14.2c0.4,0.4,7.6-0.8,16-2.4c19.6-4.2,33.2-4.2,33.2-0.2s-5.8,6.6-14,6.4
		c-9.8-0.2-20.2,5.4-35.2,18.8c-17,15.4-25.4,20.8-39,24.8c-14.2,4-31.2,14.2-51.6,31c-13.2,11-17.4,15.8-25.8,31
		c-18,32.4-22.6,45.6-24.4,69c-1.6,19.6-6.8,40-13,52l-2.6,5L1230.4,8085z M1355.8,7604.2c3-2.2,8.4-9.4,12-16
		c3.6-6.8,6.8-12.2,7.2-12.2c0.4,0,4,5.8,8,13c4,7.2,8.2,13.4,9.2,14c1,0.8,5.8-1.6,10.8-5c8.2-5.6,9-7,9-14c0-7.6,5.2-16,9.6-16
		c3.2,0,8.4,7.2,9.6,13.6c0.8,3.6,1.8,6.4,2.6,6.4c0.6,0,3-4.2,5-9.6c2.2-5.2,5.8-13.4,8-18.4l4.2-9l1,20l1,20l7.6-12.2
		c4-6.8,7.4-13.6,7.4-15.4c0-3,12.8-15.4,15.8-15.4c1,0-0.4,8.4-3,18.6c-2.6,10-4.8,19.2-4.8,20.2s7.2-5,16-13.6
		c16.6-16.2,21.8-18.2,24.2-9.2c1,4.2,1.4,4.4,2.6,1.6c2.4-5.2-11.8-30.4-21.6-38.2c-4.4-3.6-9.4-7.4-10.6-8.2
		c-1.4-0.8-15.4,3.6-31,9.6c-15.8,6-41.4,14.8-57,19.4c-25.2,7.6-28.6,9-28.6,12.8c0,9.8-18.4,31.2-30.4,35.4
		c-10,3.6-5.4,14.8,5,12.8C1347.8,7608.6,1352.8,7606.2,1355.8,7604.2z M1460,7475.2c0-0.6-0.8-3.2-2-6c-1.6-4.6-1.4-5.2,2-5.2
		c2.2,0,5.8,1.8,8,4c5.6,5.6,10.8,2.6,14.6-9c3.2-8.8,3-9-2-13c-4.8-3.8-5.6-3.8-9.4-1c-2.4,1.8-6.6,4.6-9.6,6.6
		c-2.8,1.8-5.8,5.6-6.4,8.6s-1.6,7.6-2.4,10.6c-1,4.4-0.6,5.2,3,5.2C1458.2,7476,1460,7475.6,1460,7475.2z M1354.6,7399.4
		c0.6-1.4,9.2-13,19.2-26c10-12.8,18.2-23.4,18.2-23.8s-2.2-0.8-5-0.8c-14.4-1-19.6-6.2-10.8-11c4.2-2.2,4-2.2-2-6
		c-8.4-5-9.2-4.8-12.4,2.8c-1.4,3.4-5.6,9.2-9.2,12.6c-3.6,3.4-6.6,8.2-6.6,10.4c0,7.6-2.4,10.4-16.2,17.8
		c-8.2,4.4-13.8,8.8-13.8,10.6c0,6.2,5,9.8,17,12.8C1348.6,7402.4,1353.4,7402.6,1354.6,7399.4z M1426.2,7368.6
		c7.4-8.4,6.4-9.8-9.2-13.8c-4.4-1.2-5-0.6-5,4.8c0,3.4,0.8,8.4,2,11.4c1.6,4.2,2.6,4.8,5.6,3.2
		C1421.4,7373.2,1424.4,7370.8,1426.2,7368.6z M1475.2,7337.6c1.6-2.4-4.2-7.6-8.6-7.6c-2.6,0-3.6,6.4-1.2,8.6
		C1467.4,7340.8,1473.6,7340.2,1475.2,7337.6z M1447.4,7329c2-4.2,4.6-6.8,6.4-6.6c1.8,0.4,3.2-0.6,3-1.8c-0.2-1.4-0.4-4.4-0.4-6.4
		c-0.4-3.2-4.6-5.2-20.8-10.2c-21.8-6.8-30.4-6.8-36.4-0.2c-3,3.4-3,4.2,2.2,14l5.6,10.4l1-10.6l1.2-10.6l3.6,8
		c4.8,10.6,5,10.6,9.2,5c3-4,4-4.4,6.8-2.2c1.8,1.4,3.2,5,3.2,7.8c0,5,4.8,10.2,9.6,10.4C1443,7336,1445.6,7332.8,1447.4,7329z
		 M1393,7318.2c-1.4-6.6-2.4-7.2-7-4.2c-2.4,1.4-2.2,2.6,1.8,6.8C1393.6,7327,1394.8,7326.4,1393,7318.2z M1092.8,7265
		c-0.8-1.6-2.4-3-3.8-3c-6.6,0-15.6-17.2-18.8-35.6c-3-17.2-0.6-24.8,9.4-29.8c0.4,0-2.6-7.8-6.6-17c-4.2-9-8.2-18.6-9.2-21.2
		c-1.8-4.4-1.8-4.6-6.6-1c-4.2,3.2-4.4,3.8-1.4,6c5,3.6-0.2,7.2-11.2,7.8c-5.6,0.2-16.6,3.4-26.4,7.4c-9.2,4-18.4,7.6-20.6,8
		c-2,0.6-5,4.2-6.6,8c-1.6,4-3.8,7.6-5,8.4c-1,0.6-2,2.2-2,3.2c0,3,10.6-0.2,15.8-5l4.6-4.2l-1.4,5c-2.2,7.4-2.2,7.6,0,8
		c1.2,0.4,3.4-2.4,5.2-6.2c3.4-6.8,13.8-12,13.8-6.8c0,1.4,1.2,3.6,2.8,4.8c2,1.8,3.2,1.6,5.2-0.8c3.8-4.6,8.6-4,6,0.8
		c-3,6-2.4,7.2,1.8,3.4c6.6-6,6.8,0.2,0.2,8.6c-5.8,7.2-6.2,8.2-4.2,15.8c3.2,11.8,7.4,15.4,25.2,22.4c8.8,3.4,20,8.4,25,11
		s9.2,4.8,9.4,5C1093.6,7268,1093.4,7266.6,1092.8,7265z M1016.6,7239c-3-9.2-3.8-10-9.6-7.8c-2.8,1.2-2,2.6,4.2,9
		c4.2,4.4,7.8,7.8,8,7.8C1019.6,7248,1018.4,7244,1016.6,7239z M1400.6,7176.4c-1.2-6.8-1-7.2,2.2-4.6c4,3.4,3.8,3.8,9-10.6
		c4-10.6,4-12.2,1.4-16.2c-2-3-6.6-5.4-13.6-7c-5.8-1.4-11-2.6-11.6-2.4c-0.6,0-2,3.6-3.2,7.8c-1.8,6.6-1.6,9,2.6,17.6
		c2.4,5.4,4.6,11.6,4.6,13.4c0,1.8,1,5.8,2,8.6c1.6,4.4,2.6,5,4.8,3C1400.8,7184.4,1401.4,7181.4,1400.6,7176.4z M1000.4,7156.4
		l3.2-6.8l3.2,6.2c3,5.4,3.8,5.8,7.2,3.8c2.2-1.4,4-4.6,4-7c0-5.4,3.6-8,5.2-3.8c1.8,4.8,4.6,3.8,6-1.8c1.8-7,5.4-6.2,4.4,1
		c-1.2,8.4,1.2,7.4,5-2c1.6-4.4,4-8,5.2-8c1.2,0,1.8,1.2,1.4,2.6c-0.6,1.2-1.4,5.2-2.2,8.4l-1.2,6l7-7.2l7.2-7.2l-3.2-9.2l-3-9
		l-14.4,6.6c-8,3.6-18.2,7.8-23,9.2c-6.6,1.8-9.2,4-11.8,9.2c-1.8,3.8-5.4,8.2-7.8,10c-6,3.8-6.2,7-0.2,6.2
		C995.2,7163.2,998.4,7160.4,1000.4,7156.4z M1041,7104c0.6-1.2,0.6-3.8,0-6.2c-1-3-2-3.4-4-1.8c-4.4,3.8-5.2,10-1,10
		C1038.2,7106,1040.4,7105,1041,7104z M1056.4,7088.6c-0.4-4.8-1.6-8.2-2.6-7.6c-0.8,0.6-1.2,2.2-0.8,3.6s1.2,5,2,8.2
		C1056.8,7100.8,1057.6,7098.6,1056.4,7088.6z M1386,7080.4c-1.4-2.6-1.8-1.6-1.8,4.6c0,7,0.2,7.4,2,3.4
		C1387.4,7085.4,1387.2,7082.4,1386,7080.4z M849.8,7020.2c2-1.4,1.2-3.2-3.4-8.4l-6-6.8l2.2,8.6
		C845,7022.4,845.4,7023,849.8,7020.2z"/>
</g>
</svg>
