<?xml version="1.0" encoding="utf-8"?>
<!-- Generator: Adobe Illustrator 17.0.0, SVG Export Plug-In . SVG Version: 6.00 Build 0)  -->
<!DOCTYPE svg PUBLIC "-//W3C//DTD SVG 1.1//EN" "http://www.w3.org/Graphics/SVG/1.1/DTD/svg11.dtd" [
	<!ENTITY ns_flows "http://ns.adobe.com/Flows/1.0/">
	<!ENTITY ns_extend "http://ns.adobe.com/Extensibility/1.0/">
	<!ENTITY ns_ai "http://ns.adobe.com/AdobeIllustrator/10.0/">
	<!ENTITY ns_graphs "http://ns.adobe.com/Graphs/1.0/">
]>
<svg version="1.1" id="Layer_1" xmlns:x="&ns_extend;" xmlns:i="&ns_ai;" xmlns:graph="&ns_graphs;"
	 xmlns="http://www.w3.org/2000/svg" xmlns:xlink="http://www.w3.org/1999/xlink" xmlns:a="http://ns.adobe.com/AdobeSVGViewerExtensions/3.0/"
	 x="0px" y="0px" width="256px" height="256px" viewBox="0 0 256 256" style="enable-background:new 0 0 256 256;"
	 xml:space="preserve">
<path style="fill:none;stroke:#000000;stroke-miterlimit:10;" d="M126.4,94.1h2.5L139.1,221h-22.8L126.4,94.1L126.4,94.1z"/>
<path style="fill:none;stroke:#000000;stroke-miterlimit:10;" d="M-8.8,37"/>
<path id="a" style="fill:none;stroke:#000000;stroke-miterlimit:10;" d="M1.2,94.1h116.7L26.5,221H1.2V94.1L1.2,94.1z"/>
<g transform="matrix(-1 0 0 1 997.11 -3e-5)">
	<path id="a_1_" style="fill:none;stroke:#000000;stroke-miterlimit:10;" d="M996,94.1H879.3L970.6,221H996L996,94.1L996,94.1z"/>
</g>
<g id="e">
	<path style="fill:none;stroke:#000000;stroke-miterlimit:10;" d="M127.6,92h10.2l95.8,133.3l-95.2-1.1L127.6,92L127.6,92z"/>
	<g>
		<path style="fill:none;stroke:#000000;stroke-miterlimit:10;" d="M135.3,93l77.4,126.9h-5.1L135.3,93L135.3,93z"/>
		<path style="fill:none;stroke:#000000;stroke-miterlimit:10;" d="M132.8,93l54.5,126.9h-5.1L132.8,93L132.8,93z"/>
		<path style="fill:none;stroke:#000000;stroke-miterlimit:10;" d="M130.3,93L162,219.9h-5.1L130.3,93L130.3,93z"/>
	</g>
	<g>
		<rect x="130.3" y="100.9" style="fill:none;stroke:#000000;stroke-miterlimit:10;" width="12.7" height="1.4"/>
		<rect x="135.3" y="128.3" style="fill:none;stroke:#000000;stroke-miterlimit:10;" width="22.8" height="1.4"/>
		<rect x="135.3" y="135.3" style="fill:none;stroke:#000000;stroke-miterlimit:10;" width="30.5" height="2.8"/>
		<rect x="137.9" y="144.7" style="fill:none;stroke:#000000;stroke-miterlimit:10;" width="35.5" height="2.8"/>
		<rect x="140.4" y="154.1" style="fill:none;stroke:#000000;stroke-miterlimit:10;" width="38.1" height="2.8"/>
		<rect x="140.4" y="164.9" style="fill:none;stroke:#000000;stroke-miterlimit:10;" width="45.7" height="2.8"/>
		<rect x="140.4" y="175.8" style="fill:none;stroke:#000000;stroke-miterlimit:10;" width="53.3" height="2.8"/>
		<rect x="140.4" y="188" style="fill:none;stroke:#000000;stroke-miterlimit:10;" width="60.9" height="2.8"/>
		<rect x="140.4" y="202" style="fill:none;stroke:#000000;stroke-miterlimit:10;" width="71" height="2.8"/>
		<rect x="132.8" y="106" style="fill:none;stroke:#000000;stroke-miterlimit:10;" width="12.7" height="1.4"/>
		<rect x="132.8" y="111.1" style="fill:none;stroke:#000000;stroke-miterlimit:10;" width="17.8" height="1.4"/>
		<rect x="132.8" y="116.2" style="fill:none;stroke:#000000;stroke-miterlimit:10;" width="20.3" height="1.4"/>
		<rect x="132.8" y="121.2" style="fill:none;stroke:#000000;stroke-miterlimit:10;" width="22.8" height="1.4"/>
		<rect x="128.6" y="95.8" style="fill:none;stroke:#000000;stroke-miterlimit:10;" width="9.2" height="1.4"/>
	</g>
	<path style="fill:none;stroke:#000000;stroke-miterlimit:10;" d="M136.5,89.8l0.2,0.2l1.1,1.5h0.3L136.5,89.8z M137.8,91.6h-10.2
		V92l10.3,132.2l0.1,0.3h0.6l95.3,1.1l0.9,0l-0.4-0.6L137.8,91.6L137.8,91.6z M128.3,92l9.4,0.3l95.3,132.6l-93.6-1.1L128.3,92
		L128.3,92z"/>
</g>
<g transform="matrix(-1 0 0 1 991.07 1.0083e-5)">
	<g id="e_1_">
		<path style="fill:none;stroke:#000000;stroke-miterlimit:10;" d="M863.5,92h-10.2l-95.8,133.3l95.2-1.1L863.5,92L863.5,92z"/>
		<g>
			<path style="fill:none;stroke:#000000;stroke-miterlimit:10;" d="M855.8,93l-77.4,126.9h5.1L855.8,93L855.8,93z"/>
			<path style="fill:none;stroke:#000000;stroke-miterlimit:10;" d="M858.3,93l-54.5,126.9h5.1L858.3,93L858.3,93z"/>
			<path style="fill:none;stroke:#000000;stroke-miterlimit:10;" d="M860.8,93l-31.7,126.9h5.1L860.8,93L860.8,93z"/>
		</g>
		<g>
			<rect x="848.1" y="102.3" style="fill:none;stroke:#000000;stroke-miterlimit:10;" width="12.7" height="-1.4"/>
			<rect x="832.9" y="129.7" style="fill:none;stroke:#000000;stroke-miterlimit:10;" width="22.8" height="-1.4"/>
			<rect x="825.3" y="138.2" style="fill:none;stroke:#000000;stroke-miterlimit:10;" width="30.5" height="-2.8"/>
			<rect x="817.7" y="147.5" style="fill:none;stroke:#000000;stroke-miterlimit:10;" width="35.5" height="-2.8"/>
			<rect x="812.6" y="156.9" style="fill:none;stroke:#000000;stroke-miterlimit:10;" width="38.1" height="-2.8"/>
			<rect x="805" y="167.8" style="fill:none;stroke:#000000;stroke-miterlimit:10;" width="45.7" height="-2.8"/>
			<rect x="797.4" y="178.6" style="fill:none;stroke:#000000;stroke-miterlimit:10;" width="53.3" height="-2.8"/>
			<rect x="789.8" y="190.9" style="fill:none;stroke:#000000;stroke-miterlimit:10;" width="60.9" height="-2.8"/>
			<rect x="779.6" y="204.8" style="fill:none;stroke:#000000;stroke-miterlimit:10;" width="71" height="-2.8"/>
			<rect x="845.6" y="107.4" style="fill:none;stroke:#000000;stroke-miterlimit:10;" width="12.7" height="-1.4"/>
			<rect x="840.5" y="112.5" style="fill:none;stroke:#000000;stroke-miterlimit:10;" width="17.8" height="-1.4"/>
			<rect x="838" y="117.5" style="fill:none;stroke:#000000;stroke-miterlimit:10;" width="20.3" height="-1.4"/>
			<rect x="835.4" y="122.6" style="fill:none;stroke:#000000;stroke-miterlimit:10;" width="22.8" height="-1.4"/>
			<rect x="853.2" y="97.2" style="fill:none;stroke:#000000;stroke-miterlimit:10;" width="9.2" height="-1.4"/>
		</g>
		<path style="fill:none;stroke:#000000;stroke-miterlimit:10;" d="M854.5,89.8l-0.2,0.2l-1.1,1.5H853L854.5,89.8z M853.3,91.6h10.2
			V92l-10.3,132.2l-0.1,0.3h-0.6l-95.3,1.1l-0.9,0l0.4-0.6L853.3,91.6L853.3,91.6z M862.8,92l-9.4,0.3l-95.3,132.6l93.6-1.1
			L862.8,92L862.8,92z"/>
	</g>
</g>
<g>
	<path style="fill:none;stroke:#000000;stroke-miterlimit:10;" d="M1.2,150.5"/>
</g>
<g>
	<path style="fill:none;stroke:#000000;stroke-miterlimit:10;" d="M230.3,61.1c-2.6,0-4.7,2.5-5.1,5.9c-0.1,0-0.2,0-0.3,0
		c-1.8,0-3.2,2-3.3,4.5c-0.3-0.2-0.6-0.3-1-0.3c-1.1,0-2.1,1.2-2.1,2.8c0,1.5,1.2,3.2,2.3,3.2c9.6,0,16.1,0.2,25.7,0.1
		c1.3,0,2.5-0.8,2.5-2.5c0-1.7-1-3.1-2.3-3.1c-0.3,0-0.7,0.1-0.9,0.3c-0.5-1.2-1.5-1.9-2.6-1.9c-0.4,0-0.8,0.1-1.2,0.3
		c-0.2-1.8-1.3-3.1-2.7-3.1c-1.1,0-2,0.8-2.5,2.1c-0.4-0.3-0.9-0.5-1.3-0.6c0-0.2,0-0.3,0-0.6C235.4,64.2,233.1,61.1,230.3,61.1
		L230.3,61.1z"/>
	<path style="fill:none;stroke:#000000;stroke-miterlimit:10;" d="M150.8,77.1c1.1,0,2.1,1.1,2.3,2.6c0.1,0,0.1,0,0.1,0
		c0.8,0,1.5,0.9,1.5,2c0.1-0.1,0.3-0.2,0.5-0.2c0.5,0,0.9,0.6,0.9,1.2c0,0.7-0.5,1.4-1,1.4c-4.3,0-7.1,0.1-11.4,0
		c-0.6,0-1.1-0.4-1.1-1.1c0-0.8,0.5-1.4,1-1.4c0.2,0,0.3,0,0.4,0.1c0.2-0.5,0.7-0.9,1.1-0.9c0.2,0,0.4,0,0.5,0.2
		c0.1-0.8,0.6-1.4,1.2-1.4c0.5,0,0.9,0.4,1.1,0.9c0.2-0.1,0.4-0.3,0.6-0.3c0-0.1,0-0.2,0-0.3C148.5,78.5,149.6,77.1,150.8,77.1
		L150.8,77.1z"/>
	<path style="fill:none;stroke:#000000;stroke-miterlimit:10;" d="M35.3,41.8c-5.7,0-10.4,5.6-11.2,12.9c-0.2,0-0.4,0-0.6,0
		c-3.9,0-7.1,4.4-7.2,10c-0.7-0.5-1.4-0.8-2.2-0.8c-2.5,0-4.5,2.7-4.5,6.1c0,3.3,2.6,7,5.1,7c21.2,0.1,35.3,0.4,56.4,0.2
		c2.8,0,5.4-1.8,5.4-5.6c0-3.8-2.3-6.9-5.1-6.9c-0.7,0-1.5,0.2-2.1,0.6C68.1,62.7,66,61,63.6,61c-0.9,0-1.8,0.3-2.6,0.8
		c-0.5-3.9-3-6.9-6-6.9c-2.4,0-4.5,1.9-5.4,4.6c-0.9-0.7-1.9-1.1-3-1.3c0-0.4,0-0.8,0-1.2C46.6,48.5,41.6,41.8,35.3,41.8L35.3,41.8z
		"/>
	<path style="fill:none;stroke:#000000;stroke-miterlimit:10;" d="M121.5,39.5c2,0,3.6,1.9,3.9,4.5c0.1,0,0.1,0,0.2,0
		c1.3,0,2.4,1.5,2.5,3.4c0.2-0.2,0.5-0.3,0.8-0.3c0.9,0,1.6,0.9,1.6,2.1c0,1.1-0.9,2.4-1.8,2.4c-7.3,0-12.2,0.1-19.5,0.1
		c-1,0-1.9-0.6-1.9-1.9s0.8-2.4,1.8-2.4c0.3,0,0.5,0.1,0.7,0.2c0.4-0.9,1.1-1.5,2-1.5c0.3,0,0.6,0.1,0.9,0.3c0.2-1.4,1-2.4,2.1-2.4
		c0.8,0,1.5,0.6,1.9,1.6c0.3-0.3,0.7-0.4,1-0.4c0-0.1,0-0.3,0-0.4C117.6,41.9,119.3,39.5,121.5,39.5L121.5,39.5z"/>
</g>
</svg>
