<?xml version="1.0" encoding="utf-8"?>
<!-- Generator: Adobe Illustrator 23.0.0, SVG Export Plug-In . SVG Version: 6.00 Build 0)  -->
<svg version="1.1" id="Layer_1" xmlns="http://www.w3.org/2000/svg" xmlns:xlink="http://www.w3.org/1999/xlink" x="0px" y="0px"
	 viewBox="0 0 256 256" style="enable-background:new 0 0 256 256;" xml:space="preserve">
<g>
	<path style="fill:#FFD060;" d="M93.5,62.4c0,0-7.4,2.7-21.9-3.5c0,0-18.8,6.1-23.8-1.9c0,0-6.6,0.1-6.2-3.4c0,0-5.5-14.8,16.5-15.1
		C80,38.2,68.4,26.2,87.3,22.9s27.2,21.5,19.1,31.8c0,0-4.6,37.1,4.5,60.6s19.7,32.7,47.4,33.1c35.5,0.5,48.7,9.4,50.7,41
		c2.1,32.8-11.5,62.6-11.5,62.6h-11.7c0,0,6.5-58.5-35.9-56.4c-37,1.8-32.7,56.4-32.7,56.4h-13.6v-35.9c0-10.6,1.7-22.2-5-33.3
		C88,165.8,75.8,93.5,86.2,63.2"/>
	<path style="opacity:0.3;fill:#FFFFFF;" d="M47.8,53.7c0,0-2.8-6.2,2.2-8.3s18.5-1.9,18.5-1.9s8.5-1.6,10.7-10.3
		c2.2-8.7,11.5-9.4,11.5-9.4l-9.3,0.7l-8.2,8.2l-8.4,5.1l-14.6,1.5l-7.1,6.1c0,0-3.4,7.3-1.6,8.1c1.9,0.8,4.2,2.1,5,2.1
		C47.4,55.7,47.8,53.7,47.8,53.7z"/>
	<path style="opacity:0.1;" d="M177.6,151c0,0,8.8,34.2-9.3,47.5l7,4.4l6.6,8.7l3.6,25.3l0.3,15.1h11.7l4.9-8.3l4.3-26l2.1-11.7
		l0-20.3l-3.7-16.3l-6.5-10.1l-8.2-5.5L177.6,151z"/>
	<path style="fill:none;stroke:#886B31;stroke-width:5;stroke-linecap:round;stroke-linejoin:round;stroke-miterlimit:10;" d="
		M93.5,62.4c0,0-7.4,2.7-21.9-3.5c0,0-18.8,6.1-23.8-1.9c0,0-6.6,0.1-6.2-3.4c0,0-5.5-14.8,16.5-15.1C80,38.2,68.4,26.2,87.3,22.9
		s27.2,21.5,19.1,31.8c0,0-4.6,37.1,4.5,60.6s19.7,32.7,47.4,33.1c35.5,0.5,48.7,9.4,50.7,41c2.1,32.8-11.5,62.6-11.5,62.6h-11.7
		c0,0,6.5-58.5-35.9-56.4c-37,1.8-32.7,56.4-32.7,56.4h-13.6v-35.9c0-10.6,1.7-22.2-5-33.3C88,165.8,75.8,93.5,86.2,63.2"/>
	
		<line style="fill:none;stroke:#886B31;stroke-width:5;stroke-linecap:round;stroke-linejoin:round;stroke-miterlimit:10;" x1="90.7" y1="22.4" x2="88.9" y2="10.7"/>
	
		<line style="fill:none;stroke:#886B31;stroke-width:5;stroke-linecap:round;stroke-linejoin:round;stroke-miterlimit:10;" x1="101.5" y1="26.6" x2="110.9" y2="19.2"/>
	<path style="fill:#FFD060;stroke:#886B31;stroke-width:5;stroke-linecap:round;stroke-linejoin:round;stroke-miterlimit:10;" d="
		M80.9,22.7c0,0-3.4-18.9-19.8-18.7c0,0-2.8,17.2,12.5,25.7"/>
	<path style="fill:#FFD060;stroke:#886B31;stroke-width:5;stroke-linecap:round;stroke-linejoin:round;stroke-miterlimit:10;" d="
		M109.9,34.6c0,0,10.5-13.3,30.2-4.7c0,0-2.2,21-30.4,14.2"/>
	<path style="fill:none;stroke:#886B31;stroke-width:5;stroke-linecap:round;stroke-linejoin:round;stroke-miterlimit:10;" d="
		M195.2,156.5c0,0,17.2,16.8,22.5,48"/>
	<path style="fill:none;stroke:#886B31;stroke-width:5;stroke-linecap:round;stroke-linejoin:round;stroke-miterlimit:10;" d="
		M47.8,57c0,0,11.1-1.3,17.1-6.5"/>
	<circle style="fill:#886B31;" cx="86.1" cy="39.9" r="3.7"/>
</g>
</svg>
