<?xml version="1.0" encoding="UTF-8"?>
<svg viewBox="0 0 666.95 440.7" xmlns="http://www.w3.org/2000/svg">
 <g>
  <g fill-rule="evenodd">
   <path d="m39.334 439.99c0.025902-1.9671 0.0354-3.9353 0-5.9375-0.027298-1.4055-0.094902-2.8294-0.15625-4.25-0.37658-8.7242-1.4134-17.108-3.1875-24.781-1.7741-7.6733-4.2697-14.642-7.3125-20.719-2.778-5.6408-6.0008-10.512-9.25-14.531s-6.5368-7.1776-9.4375-9.6562c-6.5572-4.3742-10.313-7.3738-9.9688-8.2188 0.36408-0.83429 4.8508 0.59674 12.625 3.9375 3.5686 2.0855 7.6468 5.0774 11.75 9.125s8.209 9.1795 11.781 15.312c3.76 6.536 6.902 14.115 9.125 22.438 2.223 8.3227 3.541 17.375 3.9062 26.688 0.059502 1.5164 0.082001 3.0369 0.093704 4.5312 0.019493 2.0485-0.011002 4.0555-0.0625 6.0625h-9.9062 4.6e-5z"/>
   <path d="m71.924 439.99c0.2117-1.9488 0.44762-3.9004 0.62497-5.8747 1.0514-11.705 1.3852-23.067 1.0833-33.79-0.34975-12.553-1.5864-24.245-3.2498-34.665s-3.7379-19.546-5.6664-27.123c-1.9284-7.5779-3.6763-13.612-4.7497-17.832-1.0734-4.2208-1.4787-6.6373-0.79162-6.958 0.68706-0.32062 2.3946 1.4846 4.7497 5.2497s5.3756 9.5021 8.4579 16.999c3.0823 7.497 6.1972 16.774 8.7495 27.54s4.5125 23.013 5.2914 36.248c0.66113 11.282 0.51451 23.258-0.5833 35.54-0.14029 1.5695-0.29036 3.114-0.45831 4.6664h-13.458z"/>
   <path d="m100.33 439.99c2.6703-8.2386 5.4302-16.085 7.9688-23.438 2.7355-7.9226 5.2069-15.312 7.2188-22.094 1.1734-3.9623 2.1996-7.704 3.0312-11.188 0.83164-3.4835 1.461-6.7053 1.9375-9.6562 0.46651-2.9156 0.77016-5.5644 0.96875-7.875 0.19861-2.3106 0.28305-4.2756 0.34375-5.9062 0.060699-1.6306 0.11896-2.925 0.21875-3.8125 0.099808-0.88745 0.25645-1.3757 0.53125-1.4375 0.2748-0.061829 0.66112 0.31152 1.0938 1.125 0.43265 0.81348 0.92197 2.0805 1.375 3.75s0.85115 3.7464 1.125 6.2188c0.27386 2.4724 0.39439 5.3185 0.3125 8.4688-0.078094 3.1838-0.33997 6.6889-0.84375 10.438-0.50378 3.7485-1.2329 7.7624-2.1562 11.938-1.5744 7.137-3.6818 14.855-6.1562 22.969-2.0066 6.58-4.2755 13.46-6.5312 20.5h-10.438z"/>
   <path d="m144.02 439.99c0.058014-1.4747 0.13564-2.9319 0.18752-4.425 0.005997-0.14746-0.005005-0.30231 0-0.44995 0.42305-12.603 0.6237-24.628 0.86249-35.625 0.23878-10.997 0.54106-20.964 0.97499-29.325 0.43393-8.3603 0.99469-15.119 1.6875-19.8 0.69281-4.6808 1.497-7.2749 2.325-7.2749s1.6196 2.5784 2.3625 7.2374c0.74287 4.659 1.4479 11.388 2.1 19.725 0.65212 8.3367 1.245 18.292 1.6125 29.362 0.36752 11.07 0.50104 23.271 0.074997 36.112-0.00502 0.15045 0.00499 0.29968 0 0.45001-0.045197 1.3525-0.12914 2.6732-0.1875 4.0124h-12z"/>
   <path d="m175.43 439.99c0.25287-6.3088 0.79102-12.361 1.6207-17.905 1.0052-6.7162 2.4185-12.694 3.9875-17.571 1.569-4.8771 3.2686-8.6604 4.6821-11.165 1.4136-2.5046 2.514-3.7372 3.0356-3.5244 0.52156 0.21271 0.41768 1.8534-0.051407 4.6049-0.46913 2.7515-1.2702 6.6222-2.0581 11.448-0.7879 4.8259-1.5455 10.602-2.0838 17.082-0.43707 5.2613-0.71349 11.01-0.90039 17.03h-8.2323z"/>
   <path d="m280.3 337.95c-0.30988-0.005005-0.8118 0.38403-1.4688 1.1875-0.75079 0.91821-1.7049 2.379-2.75 4.3438s-2.1741 4.4385-3.25 7.4375-2.0891 6.5303-2.875 10.5c-0.71945 3.6408-1.2332 7.6498-1.5 11.969-0.26672 4.3189-0.27188 8.9488 0.031189 13.781 0.45172 7.1347 1.4928 14.72 3.125 22.562 1.6322 7.8429 3.8487 15.937 6.375 24.125 0.51511 1.6694 1.0369 3.3018 1.5625 4.9375 0.20584 0.64398 0.41788 1.2672 0.625 1.9062h10.438c-0.52585-1.641-1.04-3.2428-1.5625-4.9062-0.50546-1.6182-0.99695-3.2362-1.5-4.875-2.4673-8.038-4.6938-15.858-6.4688-23.312-1.775-7.4544-3.0878-14.544-3.875-21.219-0.53476-4.5064-0.85217-8.8227-0.9375-12.844-0.085297-4.0211 0.059723-7.7549 0.34375-11.188 0.61435-7.4694 1.9465-13.45 2.9062-17.594 0.47989-2.0718 0.84885-3.699 1.0312-4.8438 0.18243-1.1448 0.16602-1.7978-0.125-1.9375-0.036377-0.017395-0.080688-0.030518-0.125-0.031189l1e-4 -1e-4z"/>
   <path d="m229.75 338.67c-0.11322-0.022583-0.26517 0.020386-0.37445 0.18726-0.10928 0.16681-0.16064 0.48804-0.18722 0.71143-0.056091 0.39496-0.061096 0.90753 0 1.4978 0.12054 1.1668 0.47061 2.735 0.97357 4.6058 1.0008 3.7186 2.6886 8.8284 4.7181 15.053 4.0065 12.283 9.446 29.154 13.668 49.054 2.0501 9.6731 3.7637 20.075 4.9428 30.93h12.095c-1.283-11.859-3.4439-23.157-6.0661-33.514-2.5942-10.254-5.6422-19.597-8.7622-27.859-3.12-8.2625-6.3003-15.437-9.2115-21.344-2.9607-6.0089-5.6042-10.666-7.6389-13.93-1.032-1.6602-1.879-2.9219-2.5463-3.8195-0.341-0.46338-0.62753-0.79456-0.86124-1.0485-0.15173-0.23358-0.33142-0.2663-0.44934-0.33704-0.11789-0.070679-0.18645-0.16455-0.29956-0.1872z"/>
   <path d="m207.77 358.49c-0.63554 0.21399-0.41457 2.7958 0.40626 7.2812s2.2306 10.896 3.875 18.812c1.6444 7.9161 3.5167 17.317 4.9375 27.812 1.1873 8.7705 2.0558 18.31 2.1875 28.312h9.9062c-0.2727-10.621-1.4806-20.654-3.1562-29.75-1.9922-10.815-4.6014-20.341-7.1563-28.188-2.5548-7.8464-5.0494-13.993-7-18.156-1.9506-4.1634-3.3644-6.339-4-6.125z"/>
   <path d="m308.03 360.5c-0.73947 0-1.4332 2.0774-2.1099 5.7604-0.67667 3.6829-1.3505 8.9863-2.0094 15.573-0.65894 6.5868-1.2854 14.441-1.775 23.209-0.48962 8.7676-0.82849 18.454-0.63632 28.668 0.006012 0.33929 0.025909 0.66638 0.033417 1.0047 0.0354 1.7626 0.097778 3.5213 0.16745 5.258h10.717c-0.056396-1.8157-0.12503-3.6409-0.16745-5.4924-0.007019-0.32965-0.0271-0.64044-0.033417-0.97125-0.1926-9.9582-0.18179-19.514-0.23444-28.232-0.052582-8.7183-0.15842-16.599-0.46884-23.242-0.31046-6.6429-0.80148-12.022-1.4066-15.74-0.60513-3.7187-1.337-5.7939-2.0764-5.7939z"/>
   <path d="m317.87 368.77c-0.65714 0.20361-0.60599 2.4323-0.15625 6.2812 0.44977 3.849 1.302 9.3268 2.1875 16.094 0.8855 6.7669 1.7809 14.839 2.5 23.844 0.63354 7.9337 1.1111 16.618 1.4688 25.719h10c-0.41138-9.4385-1.185-18.483-2.3125-26.719-1.2608-9.2097-2.9362-17.43-4.75-24.219-1.8138-6.7887-3.7588-12.149-5.375-15.75-1.6162-3.6012-2.9053-5.4536-3.5625-5.25z"/>
  </g>
  <rect x="28.131" y="427.69" width="638.82" height="13.011"/>
  <g fill-rule="evenodd">
   <path d="m39.334 439.99c0.025902-1.9671 0.0354-3.9353 0-5.9375-0.027298-1.4055-0.094902-2.8294-0.15625-4.25-0.37658-8.7242-1.4134-17.108-3.1875-24.781-1.7741-7.6733-4.2697-14.642-7.3125-20.719-2.778-5.6408-6.0008-10.512-9.25-14.531s-6.5368-7.1776-9.4375-9.6562c-6.5572-4.3742-10.313-7.3738-9.9688-8.2188 0.36408-0.83429 4.8508 0.59674 12.625 3.9375 3.5686 2.0855 7.6468 5.0774 11.75 9.125s8.209 9.1795 11.781 15.312c3.76 6.536 6.902 14.115 9.125 22.438 2.223 8.3227 3.541 17.375 3.9062 26.688 0.059502 1.5164 0.082001 3.0369 0.093704 4.5312 0.019493 2.0485-0.011002 4.0555-0.0625 6.0625h-9.9062 4.6e-5z"/>
   <path d="m71.924 439.99c0.2117-1.9488 0.44762-3.9004 0.62497-5.8747 1.0514-11.705 1.3852-23.067 1.0833-33.79-0.34975-12.553-1.5864-24.245-3.2498-34.665s-3.7379-19.546-5.6664-27.123c-1.9284-7.5779-3.6763-13.612-4.7497-17.832-1.0734-4.2208-1.4787-6.6373-0.79162-6.958 0.68706-0.32062 2.3946 1.4846 4.7497 5.2497s5.3756 9.5021 8.4579 16.999c3.0823 7.497 6.1972 16.774 8.7495 27.54s4.5125 23.013 5.2914 36.248c0.66113 11.282 0.51451 23.258-0.5833 35.54-0.14029 1.5695-0.29036 3.114-0.45831 4.6664h-13.458z"/>
   <path d="m100.33 439.99c2.6703-8.2386 5.4302-16.085 7.9688-23.438 2.7355-7.9226 5.2069-15.312 7.2188-22.094 1.1734-3.9623 2.1996-7.704 3.0312-11.188 0.83164-3.4835 1.461-6.7053 1.9375-9.6562 0.46651-2.9156 0.77016-5.5644 0.96875-7.875 0.19861-2.3106 0.28305-4.2756 0.34375-5.9062 0.060699-1.6306 0.11896-2.925 0.21875-3.8125 0.099808-0.88745 0.25645-1.3757 0.53125-1.4375 0.2748-0.061829 0.66112 0.31152 1.0938 1.125 0.43265 0.81348 0.92197 2.0805 1.375 3.75s0.85115 3.7464 1.125 6.2188c0.27386 2.4724 0.39439 5.3185 0.3125 8.4688-0.078094 3.1838-0.33997 6.6889-0.84375 10.438-0.50378 3.7485-1.2329 7.7624-2.1562 11.938-1.5744 7.137-3.6818 14.855-6.1562 22.969-2.0066 6.58-4.2755 13.46-6.5312 20.5h-10.438z"/>
   <path d="m144.02 439.99c0.058014-1.4747 0.13564-2.9319 0.18752-4.425 0.005997-0.14746-0.005005-0.30231 0-0.44995 0.42305-12.603 0.6237-24.628 0.86249-35.625 0.23878-10.997 0.54106-20.964 0.97499-29.325 0.43393-8.3603 0.99469-15.119 1.6875-19.8 0.69281-4.6808 1.497-7.2749 2.325-7.2749s1.6196 2.5784 2.3625 7.2374c0.74287 4.659 1.4479 11.388 2.1 19.725 0.65212 8.3367 1.245 18.292 1.6125 29.362 0.36752 11.07 0.50104 23.271 0.074997 36.112-0.00502 0.15045 0.00499 0.29968 0 0.45001-0.045197 1.3525-0.12914 2.6732-0.1875 4.0124h-12z"/>
   <path d="m175.43 439.99c0.25287-6.3088 0.79102-12.361 1.6207-17.905 1.0052-6.7162 2.4185-12.694 3.9875-17.571 1.569-4.8771 3.2686-8.6604 4.6821-11.165 1.4136-2.5046 2.514-3.7372 3.0356-3.5244 0.52156 0.21271 0.41768 1.8534-0.051407 4.6049-0.46913 2.7515-1.2702 6.6222-2.0581 11.448-0.7879 4.8259-1.5455 10.602-2.0838 17.082-0.43707 5.2613-0.71349 11.01-0.90039 17.03h-8.2323z"/>
   <path d="m280.3 337.95c-0.30988-0.005005-0.8118 0.38403-1.4688 1.1875-0.75079 0.91821-1.7049 2.379-2.75 4.3438s-2.1741 4.4385-3.25 7.4375-2.0891 6.5303-2.875 10.5c-0.71945 3.6408-1.2332 7.6498-1.5 11.969-0.26672 4.3189-0.27188 8.9488 0.031189 13.781 0.45172 7.1347 1.4928 14.72 3.125 22.562 1.6322 7.8429 3.8487 15.937 6.375 24.125 0.51511 1.6694 1.0369 3.3018 1.5625 4.9375 0.20584 0.64398 0.41788 1.2672 0.625 1.9062h10.438c-0.52585-1.641-1.04-3.2428-1.5625-4.9062-0.50546-1.6182-0.99695-3.2362-1.5-4.875-2.4673-8.038-4.6938-15.858-6.4688-23.312-1.775-7.4544-3.0878-14.544-3.875-21.219-0.53476-4.5064-0.85217-8.8227-0.9375-12.844-0.085297-4.0211 0.059723-7.7549 0.34375-11.188 0.61435-7.4694 1.9465-13.45 2.9062-17.594 0.47989-2.0718 0.84885-3.699 1.0312-4.8438 0.18243-1.1448 0.16602-1.7978-0.125-1.9375-0.036377-0.017395-0.080688-0.030518-0.125-0.031189l1e-4 -1e-4z"/>
   <path d="m229.75 338.67c-0.11322-0.022583-0.26517 0.020386-0.37445 0.18726-0.10928 0.16681-0.16064 0.48804-0.18722 0.71143-0.056091 0.39496-0.061096 0.90753 0 1.4978 0.12054 1.1668 0.47061 2.735 0.97357 4.6058 1.0008 3.7186 2.6886 8.8284 4.7181 15.053 4.0065 12.283 9.446 29.154 13.668 49.054 2.0501 9.6731 3.7637 20.075 4.9428 30.93h12.095c-1.283-11.859-3.4439-23.157-6.0661-33.514-2.5942-10.254-5.6422-19.597-8.7622-27.859-3.12-8.2625-6.3003-15.437-9.2115-21.344-2.9607-6.0089-5.6042-10.666-7.6389-13.93-1.032-1.6602-1.879-2.9219-2.5463-3.8195-0.341-0.46338-0.62753-0.79456-0.86124-1.0485-0.15173-0.23358-0.33142-0.2663-0.44934-0.33704-0.11789-0.070679-0.18645-0.16455-0.29956-0.1872z"/>
   <path d="m207.77 358.49c-0.63554 0.21399-0.41457 2.7958 0.40626 7.2812s2.2306 10.896 3.875 18.812c1.6444 7.9161 3.5167 17.317 4.9375 27.812 1.1873 8.7705 2.0558 18.31 2.1875 28.312h9.9062c-0.2727-10.621-1.4806-20.654-3.1562-29.75-1.9922-10.815-4.6014-20.341-7.1563-28.188-2.5548-7.8464-5.0494-13.993-7-18.156-1.9506-4.1634-3.3644-6.339-4-6.125z"/>
   <path d="m308.03 360.5c-0.73947 0-1.4332 2.0774-2.1099 5.7604-0.67667 3.6829-1.3505 8.9863-2.0094 15.573-0.65894 6.5868-1.2854 14.441-1.775 23.209-0.48962 8.7676-0.82849 18.454-0.63632 28.668 0.006012 0.33929 0.025909 0.66638 0.033417 1.0047 0.0354 1.7626 0.097778 3.5213 0.16745 5.258h10.717c-0.056396-1.8157-0.12503-3.6409-0.16745-5.4924-0.007019-0.32965-0.0271-0.64044-0.033417-0.97125-0.1926-9.9582-0.18179-19.514-0.23444-28.232-0.052582-8.7183-0.15842-16.599-0.46884-23.242-0.31046-6.6429-0.80148-12.022-1.4066-15.74-0.60513-3.7187-1.337-5.7939-2.0764-5.7939z"/>
   <path d="m317.87 368.77c-0.65714 0.20361-0.60599 2.4323-0.15625 6.2812 0.44977 3.849 1.302 9.3268 2.1875 16.094 0.8855 6.7669 1.7809 14.839 2.5 23.844 0.63354 7.9337 1.1111 16.618 1.4688 25.719h10c-0.41138-9.4385-1.185-18.483-2.3125-26.719-1.2608-9.2097-2.9362-17.43-4.75-24.219-1.8138-6.7887-3.7588-12.149-5.375-15.75-1.6162-3.6012-2.9053-5.4536-3.5625-5.25z"/>
   <path d="m47.395 429.97c0.026596-2.0201 0.0364-4.0414 0-6.0975-0.028-1.4434-0.097504-2.9057-0.16046-4.3646-0.38673-8.9594-1.4515-17.569-3.2734-25.449-1.8219-7.8802-4.3848-15.037-7.5096-21.277-2.8528-5.7928-6.1626-10.796-9.4994-14.923-3.3368-4.1274-6.713-7.3711-9.6919-9.9166-6.734-4.4921-10.591-7.5725-10.238-8.4403 0.37389-0.85675 4.9816 0.61285 12.965 4.0436 3.6648 2.1418 7.8529 5.2143 12.067 9.371 4.2138 4.1567 8.4303 9.4269 12.099 15.725 3.8613 6.7122 7.0881 14.495 9.371 23.042 2.2829 8.5471 3.6364 17.843 4.0116 27.407 0.061104 1.5573 0.084198 3.1187 0.096199 4.6534 0.020004 2.1037-0.011299 4.1649-0.064201 6.226h-10.173 9.2e-5z"/>
   <path d="m80.862 429.97c0.21739-2.0013 0.45967-4.0055 0.6418-6.033 1.0798-12.02 1.4226-23.689 1.1125-34.701-0.35919-12.891-1.6292-24.899-3.3374-35.599s-3.8387-20.072-5.8191-27.855c-1.9804-7.7822-3.7754-13.978-4.8778-18.313-1.1024-4.3346-1.5186-6.8162-0.81297-7.1455 0.7056-0.32928 2.4592 1.5247 4.8778 5.3912 2.4186 3.8666 5.5205 9.7582 8.6859 17.457 3.1654 7.699 6.3642 17.227 8.9854 28.282 2.6211 11.056 4.6341 23.634 5.434 37.225 0.67894 11.586 0.52837 23.885-0.59903 36.498-0.14407 1.6118-0.29819 3.1979-0.47067 4.7922h-13.82z"/>
   <path d="m110.04 429.97c2.7423-8.4607 5.5766-16.519 8.1836-24.069 2.8092-8.1362 5.3473-15.725 7.4133-22.689 1.205-4.0691 2.2589-7.9117 3.113-11.489 0.85406-3.5774 1.5003-6.886 1.9898-9.9166 0.47905-2.9942 0.79092-5.7145 0.99484-8.0873 0.20396-2.3729 0.29068-4.3909 0.35304-6.0655 0.062271-1.6746 0.12215-3.0039 0.22462-3.9153 0.10248-0.91138 0.26337-1.4128 0.54558-1.4763 0.2822-0.063477 0.67896 0.31995 1.1232 1.1553 0.44429 0.83545 0.94681 2.1366 1.412 3.8511 0.46527 1.7145 0.87412 3.8474 1.1553 6.3864 0.28125 2.539 0.40503 5.4619 0.32092 8.697-0.0802 3.2696-0.34915 6.8693-0.86649 10.719-0.51736 3.8496-1.2662 7.9717-2.2144 12.259-1.6168 7.3293-3.7811 15.255-6.3222 23.588-2.0607 6.7574-4.3908 13.823-6.7073 21.053h-10.719z"/>
   <path d="m154.9 429.97c0.059601-1.5144 0.13925-3.0109 0.19254-4.5442 0.005997-0.15149-0.00499-0.31049 0-0.4621 0.43449-12.943 0.64053-25.291 0.88576-36.585 0.24521-11.294 0.55563-21.53 1.0013-30.115 0.44562-8.5857 1.0215-15.527 1.733-20.334 0.71149-4.807 1.5374-7.4711 2.3877-7.4711 0.85033 0 1.6632 2.648 2.4262 7.4326 0.76291 4.7846 1.4869 11.695 2.1566 20.256 0.66966 8.5614 1.2785 18.785 1.656 30.154 0.37744 11.368 0.51454 23.899 0.076996 37.086-0.005005 0.15448 0.005005 0.3078 0 0.46216-0.046417 1.389-0.13263 2.7452-0.19257 4.1206h-12.323 3.1e-5z"/>
   <path d="m187.16 429.97c0.25969-6.4788 0.81233-12.695 1.6644-18.388 1.0323-6.8972 2.4837-13.036 4.095-18.044 1.6113-5.0086 3.3567-8.8939 4.8083-11.466 1.4517-2.5722 2.5818-3.838 3.1175-3.6195 0.53566 0.21851 0.42897 1.9034-0.05278 4.7291-0.48178 2.8257-1.3044 6.8007-2.1136 11.757-0.80914 4.9559-1.5871 10.888-2.14 17.542-0.44888 5.4031-0.73273 11.307-0.92468 17.49h-8.4542z"/>
   <path d="m294.86 325.18c-0.31824-0.005005-0.83368 0.39441-1.5083 1.2195-0.77106 0.94299-1.7509 2.4431-2.8242 4.4609-1.0732 2.0178-2.2327 4.5582-3.3376 7.638s-2.1454 6.7063-2.9525 10.783c-0.73886 3.7389-1.2664 7.8561-1.5404 12.291-0.27393 4.4354-0.2792 9.1901 0.032013 14.153 0.4639 7.327 1.533 15.116 3.2092 23.171 1.6762 8.0543 3.9524 16.366 6.5468 24.775 0.52899 1.7145 1.0648 3.3908 1.6046 5.0706 0.21136 0.66132 0.42911 1.3013 0.64185 1.9576h10.719c-0.54001-1.6853-1.068-3.3303-1.6046-5.0385-0.5191-1.6617-1.0238-3.3234-1.5404-5.0064-2.5338-8.2547-4.8203-16.286-6.6431-23.941-1.8228-7.6553-3.171-14.936-3.9795-21.791-0.54916-4.6278-0.87515-9.0606-0.96277-13.19-0.087585-4.1294 0.06131-7.9639 0.35303-11.489 0.63089-7.6706 1.999-13.813 2.9846-18.068 0.4928-2.1277 0.8717-3.7986 1.059-4.9744 0.18732-1.1757 0.17047-1.8463-0.12836-1.9897-0.037415-0.017883-0.082916-0.031311-0.12839-0.031982l1e-4 -1e-4z"/>
   <path d="m242.94 325.91c-0.11629-0.023193-0.27231 0.020874-0.38455 0.19226-0.11221 0.17133-0.16496 0.50122-0.19226 0.73065-0.057632 0.40558-0.062714 0.93201 0 1.5382 0.12381 1.1982 0.48328 2.8086 0.9998 4.7299 1.0277 3.8188 2.7611 9.0664 4.8453 15.459 4.1145 12.614 9.7006 29.94 14.036 50.376 2.1054 9.9338 3.8651 20.617 5.076 31.764h12.421c-1.3176-12.178-3.5367-23.781-6.2297-34.417-2.6641-10.531-5.7943-20.125-8.9984-28.61-3.2041-8.4853-6.4701-15.854-9.4599-21.919-3.0405-6.171-5.7553-10.953-7.8448-14.305-1.0599-1.705-1.9297-3.0007-2.6149-3.9224-0.35022-0.47589-0.64447-0.81604-0.88446-1.0768-0.15585-0.23981-0.34039-0.27344-0.4615-0.34607-0.12105-0.072571-0.19142-0.16901-0.3076-0.19226z"/>
   <path d="m220.37 346.27c-0.65268 0.21973-0.42575 2.8712 0.41721 7.4775 0.84294 4.6063 2.2907 11.19 3.9795 19.32 1.6888 8.1295 3.6115 17.784 5.0706 28.562 1.2193 9.007 2.1112 18.803 2.2465 29.076h10.173c-0.28006-10.907-1.5206-21.211-3.2414-30.552-2.0459-11.106-4.7254-20.89-7.3492-28.947-2.6237-8.0579-5.1855-14.37-7.1887-18.646-2.0032-4.2756-3.4551-6.5098-4.1078-6.2901z"/>
   <path d="m323.34 348.33c-0.7594 0-1.4719 2.1335-2.1668 5.9156-0.69492 3.7822-1.3869 9.2285-2.0636 15.993-0.6767 6.7643-1.32 14.831-1.8228 23.834-0.50284 9.004-0.85086 18.951-0.6535 29.441 0.006012 0.34845 0.026611 0.68433 0.034302 1.0318 0.036407 1.8101 0.10043 3.6162 0.172 5.3997h11.006c-0.057892-1.8646-0.12839-3.7391-0.17197-5.6405-0.006989-0.3385-0.027802-0.65765-0.034302-0.99738-0.19778-10.227-0.18671-20.04-0.24075-28.994-0.053986-8.9532-0.16269-17.047-0.48151-23.869s-0.82309-12.346-1.4445-16.165c-0.62143-3.819-1.373-5.9501-2.1324-5.9501z"/>
   <path d="m333.43 356.83c-0.67487 0.20911-0.62234 2.4979-0.16046 6.4506 0.46188 3.9528 1.3371 9.5782 2.2465 16.528 0.90939 6.9493 1.8289 15.239 2.5674 24.486 0.6506 8.1476 1.141 17.066 1.5083 26.412h10.27c-0.42246-9.6929-1.217-18.981-2.3748-27.439-1.2948-9.458-3.0154-17.9-4.878-24.872-1.8627-6.9717-3.8602-12.476-5.5199-16.175-1.6598-3.6983-2.9837-5.6006-3.6585-5.3915z"/>
   <path d="m67.481 433.07c0.022903-1.7413 0.031403-3.4836 0-5.256-0.024094-1.2442-0.084-2.5046-0.13831-3.7622-0.33336-7.7228-1.2512-15.144-2.8216-21.937-1.5705-6.7925-3.7796-12.961-6.4731-18.341-2.4591-4.9933-5.312-9.3055-8.1882-12.863-2.8762-3.5577-5.7864-6.3537-8.3542-8.5478-5.8045-3.8721-9.1292-6.5273-8.8245-7.2753 0.3223-0.73852 4.294 0.52826 11.176 3.4855 3.159 1.8462 6.769 4.4946 10.401 8.0776 3.6322 3.583 7.2668 8.1258 10.429 13.555 3.3284 5.7858 6.1098 12.495 8.0776 19.862 1.9678 7.3674 3.1345 15.38 3.4579 23.624 0.052689 1.3424 0.072586 2.6882 0.082886 4.0111 0.017212 1.8134-0.009995 3.59-0.055298 5.3666h-8.7692 6.1e-5z"/>
   <path d="m96.329 433.07c0.18739-1.7251 0.39622-3.4527 0.55322-5.2004 0.93076-10.361 1.2262-20.42 0.95894-29.911-0.30962-11.112-1.4044-21.462-2.8768-30.686-1.4724-9.2236-3.3089-17.302-5.016-24.01-1.707-6.7081-3.2543-12.049-4.2045-15.786-0.95023-3.7364-1.309-5.8755-0.70076-6.1593 0.6082-0.28381 2.1198 1.3142 4.2045 4.6471 2.0848 3.333 4.7585 8.4114 7.487 15.048 2.7285 6.6364 5.4858 14.849 7.7452 24.379 2.2593 9.5298 3.9945 20.372 4.684 32.087 0.58524 9.9868 0.45544 20.589-0.51636 31.46-0.12418 1.3894-0.25702 2.7565-0.4057 4.1308h-11.913z"/>
   <path d="m121.48 433.07c2.3638-7.293 4.8069-14.239 7.054-20.747 2.4215-7.0132 4.6092-13.555 6.3901-19.558 1.0387-3.5074 1.9471-6.8197 2.6833-9.9033 0.73619-3.0837 1.2933-5.9356 1.7151-8.5478 0.41295-2.5809 0.68173-4.9258 0.85754-6.9711 0.1758-2.0454 0.25056-3.7849 0.30429-5.2283 0.05368-1.4434 0.10529-2.5893 0.19363-3.3749 0.088287-0.78558 0.22702-1.2178 0.47028-1.2725 0.24326-0.054688 0.58522 0.27576 0.96822 0.99591 0.38298 0.72009 0.81613 1.8417 1.2172 3.3195 0.40106 1.4779 0.75346 3.3164 0.99588 5.5049 0.24243 2.1885 0.34912 4.7081 0.27664 7.4966-0.069107 2.8184-0.30095 5.9212-0.7469 9.2395-0.44597 3.3182-1.0914 6.8714-1.9088 10.567-1.3937 6.3177-3.2592 13.15-5.4496 20.332-1.7763 5.8247-3.7847 11.915-5.7816 18.147h-9.2394z"/>
   <path d="m160.15 433.07c0.051407-1.3054 0.12006-2.5954 0.16596-3.917 0.005005-0.13055-0.003998-0.26764 0-0.39832 0.37451-11.156 0.55216-21.801 0.76349-31.536 0.2114-9.7349 0.47897-18.558 0.8631-25.959 0.38412-7.4007 0.88052-13.384 1.4938-17.527 0.61328-4.1435 1.3252-6.4399 2.0581-6.4399 0.73297 0 1.4337 2.2825 2.0913 6.4067 0.65762 4.1243 1.2817 10.081 1.859 17.461 0.57724 7.3798 1.102 16.192 1.4274 25.992 0.32535 9.7994 0.44354 20.6 0.066422 31.967-0.004013 0.13318 0.003998 0.26532 0 0.39838-0.040024 1.1973-0.11433 2.3663-0.16597 3.5519h-10.622z"/>
   <path d="m187.95 433.07c0.22383-5.5846 0.70023-10.942 1.4347-15.85 0.8898-5.9452 2.1409-11.237 3.5298-15.554 1.3889-4.3173 2.8934-7.6663 4.1447-9.8834 1.2513-2.2172 2.2255-3.3082 2.6872-3.1199 0.46173 0.18835 0.36975 1.6407-0.045502 4.0764-0.41528 2.4357-1.1244 5.8621-1.8218 10.134-0.69748 4.2719-1.3681 9.385-1.8446 15.121-0.3869 4.6574-0.63159 9.7462-0.79706 15.076h-7.2874z"/>
   <path d="m280.79 342.75c-0.27432-0.004028-0.71863 0.33997-1.3002 1.0512-0.66461 0.8128-1.5092 2.1059-2.4344 3.8452-0.92511 1.7393-1.9245 3.929-2.8769 6.5838-0.95239 2.6547-1.8493 5.7806-2.545 9.2947-0.63687 3.2228-1.0916 6.7718-1.3278 10.595-0.23612 3.8232-0.24066 7.9217 0.027618 12.199 0.39987 6.3157 1.3214 13.03 2.7663 19.973 1.4449 6.9427 3.4069 14.108 5.6432 21.356 0.45596 1.4778 0.91785 2.9228 1.3832 4.3707 0.18222 0.57007 0.3699 1.1218 0.55325 1.6874h9.2394c-0.46548-1.4527-0.92062-2.8705-1.3832-4.3431-0.44745-1.4324-0.88254-2.8647-1.3278-4.3154-2.1841-7.1154-4.155-14.038-5.7263-20.636-1.5712-6.5988-2.7333-12.875-3.4302-18.783-0.47339-3.9891-0.75436-7.81-0.82986-11.37-0.0755-3.5594 0.052795-6.8648 0.30426-9.9033 0.54385-6.612 1.7231-11.906 2.5727-15.574 0.42474-1.834 0.75137-3.2744 0.91284-4.2877 0.1615-1.0134 0.14694-1.5916-0.11063-1.7152-0.032196-0.015381-0.071503-0.026978-0.11066-0.027588l1e-4 -1e-4z"/>
   <path d="m236.04 343.38c-0.1002-0.02002-0.23473 0.018005-0.33147 0.16577-0.096725 0.14764-0.14218 0.43201-0.16576 0.62976-0.049576 0.34961-0.05397 0.80334 0 1.3259 0.10674 1.0329 0.41661 2.4211 0.86186 4.0772 0.8859 3.2917 2.38 7.815 4.1765 13.325 3.5466 10.873 8.3617 25.808 12.099 43.423 1.8148 8.5627 3.3316 17.771 4.3755 27.38h10.706c-1.1357-10.498-3.0486-20.499-5.3698-29.667-2.2964-9.0772-4.9946-17.347-7.7565-24.662-2.7619-7.3141-5.5771-13.665-8.1542-18.894-2.6209-5.3192-4.9609-9.4415-6.762-12.331-0.91357-1.4697-1.6633-2.5865-2.254-3.381-0.30185-0.41016-0.55551-0.70337-0.76239-0.9281-0.13431-0.20673-0.29341-0.23572-0.39777-0.29828-0.10437-0.062622-0.16504-0.14569-0.26518-0.16577z"/>
   <path d="m216.58 360.92c-0.56262 0.18939-0.367 2.4749 0.35962 6.4455 0.72662 3.9705 1.9745 9.6457 3.4302 16.653 1.4557 7.0074 3.113 15.33 4.3708 24.62 1.051 7.7638 1.8198 16.208 1.9364 25.063h8.7692c-0.24142-9.4016-1.3107-18.283-2.794-26.335-1.7636-9.5736-4.0732-18.006-6.3348-24.952-2.2616-6.9457-4.4698-12.387-6.1965-16.072-1.7267-3.6855-2.9783-5.6113-3.5409-5.4219z"/>
   <path d="m305.34 362.7c-0.6546 0-1.2687 1.839-1.8677 5.0992-0.599 3.2601-1.1954 7.9548-1.7788 13.786-0.58328 5.8308-1.1378 12.784-1.5712 20.545-0.43344 7.7612-0.7334 16.335-0.56329 25.377 0.005005 0.30035 0.022919 0.5899 0.029602 0.8894 0.031403 1.5603 0.086609 3.1171 0.14825 4.6545h9.4868c-0.049896-1.6073-0.11069-3.223-0.14825-4.862-0.005981-0.29181-0.023987-0.56696-0.029602-0.85974-0.1705-8.8152-0.16095-17.274-0.20752-24.992-0.0466-7.7176-0.14023-14.694-0.41504-20.575-0.27481-5.8805-0.7095-10.642-1.2452-13.934-0.53568-3.2919-1.1835-5.1288-1.8381-5.1288z"/>
   <path d="m314.04 370.02c-0.58173 0.18024-0.53644 2.1531-0.13831 5.5602 0.3981 3.4072 1.1525 8.2563 1.9364 14.246 0.78388 5.9902 1.5765 13.136 2.213 21.107 0.56082 7.023 0.98355 14.71 1.3001 22.767h8.8522c-0.36417-8.3551-1.049-16.361-2.0471-23.652-1.1161-8.1525-2.5992-15.429-4.2048-21.439-1.6056-6.0095-3.3274-10.754-4.7581-13.942-1.4307-3.1879-2.5719-4.8276-3.1536-4.6474z"/>
   <path d="m210.54 433.07c-0.18738-1.7251-0.39624-3.4527-0.55322-5.2004-0.93076-10.361-1.2262-20.42-0.95892-29.911 0.3096-11.112 1.4043-21.462 2.8768-30.686 1.4724-9.2236 3.3089-17.302 5.016-24.01 1.7071-6.7081 3.2543-12.049 4.2045-15.786 0.95023-3.7364 1.309-5.8755 0.70074-6.1593-0.60822-0.28381-2.1198 1.3142-4.2045 4.6471-2.0848 3.333-4.7585 8.4114-7.487 15.048-2.7285 6.6364-5.4858 14.849-7.7452 24.379-2.2594 9.5298-3.9946 20.372-4.684 32.087-0.58522 9.9868-0.45543 20.589 0.51637 31.46 0.12418 1.3894 0.25702 2.7565 0.4057 4.1308h11.913z"/>
   <path d="m175.08 342.75c0.27432-0.004028 0.7186 0.33997 1.3002 1.0512 0.66463 0.8128 1.5092 2.1059 2.4343 3.8452 0.92514 1.7393 1.9246 3.929 2.877 6.5838 0.95239 2.6547 1.8493 5.7806 2.545 9.2947 0.63689 3.2228 1.0917 6.7718 1.3278 10.595 0.23614 3.8232 0.24069 7.9217-0.027588 12.199-0.39986 6.3157-1.3214 13.03-2.7663 19.973-1.4448 6.9427-3.4069 14.108-5.6432 21.356-0.45596 1.4778-0.91785 2.9228-1.3832 4.3707-0.1822 0.57007-0.3699 1.1218-0.55325 1.6874h-9.2394c0.46548-1.4527 0.92064-2.8705 1.3832-4.3431 0.44745-1.4324 0.88252-2.8647 1.3278-4.3154 2.1841-7.1154 4.155-14.038 5.7262-20.636 1.5713-6.5988 2.7333-12.875 3.4302-18.783 0.47336-3.9891 0.75436-7.81 0.82986-11.37 0.0755-3.5594-0.052795-6.8648-0.30429-9.9033-0.54382-6.612-1.7231-11.906-2.5727-15.574-0.42477-1.834-0.75137-3.2744-0.91287-4.2877-0.16147-1.0134-0.14693-1.5916 0.11067-1.7152 0.032196-0.015381 0.071487-0.026978 0.11064-0.027588l-1e-4 -1e-4z"/>
   <path d="m304.83 348.38c0.10022-0.02002 0.23474 0.018005 0.33148 0.16577 0.09671 0.14764 0.14218 0.43201 0.16574 0.62976 0.049591 0.34961 0.053986 0.80334 0 1.3259-0.10672 1.0329-0.4166 2.4211-0.86185 4.0772-0.8859 3.2917-2.38 7.815-4.1765 13.325-3.5466 10.873-8.3617 25.808-12.099 43.423-1.8148 8.5627-3.3316 17.771-4.3755 27.38h-10.706c1.1357-10.498 3.0486-20.499 5.3698-29.667 2.2964-9.0772 4.9946-17.347 7.7565-24.662 2.7619-7.3141 5.5771-13.665 8.1542-18.894 2.6209-5.3192 4.9609-9.4415 6.762-12.331 0.9136-1.4697 1.6634-2.5865 2.254-3.381 0.30185-0.41016 0.55548-0.70337 0.76239-0.9281 0.13431-0.20673 0.2934-0.23572 0.39777-0.29828 0.10437-0.062622 0.16504-0.14569 0.26517-0.16577z"/>
   <path d="m350.28 360.92c0.56262 0.18939 0.367 2.4749-0.35962 6.4455-0.72662 3.9705-1.9745 9.6457-3.4302 16.653-1.4557 7.0074-3.113 15.33-4.3708 24.62-1.051 7.7638-1.8198 16.208-1.9364 25.063h-8.7692c0.24142-9.4016 1.3107-18.283 2.794-26.335 1.7636-9.5736 4.0732-18.006 6.3348-24.952 2.2616-6.9457 4.4698-12.387 6.1965-16.072 1.7267-3.6855 2.9783-5.6113 3.5409-5.4219z"/>
   <path d="m129.53 359.7c0.6546 0 1.2687 1.839 1.8677 5.0992 0.599 3.2601 1.1954 7.9548 1.7788 13.786 0.5833 5.8308 1.1378 12.784 1.5712 20.545 0.43344 7.7612 0.73341 16.335 0.56329 25.377-0.005005 0.30035-0.022888 0.5899-0.029602 0.8894-0.031403 1.5603-0.086594 3.1171-0.14824 4.6545h-9.4868c0.049896-1.6073 0.11069-3.223 0.14824-4.862 0.005997-0.29181 0.024002-0.56696 0.029602-0.85974 0.1705-8.8152 0.16095-17.274 0.20754-24.992 0.0466-7.7176 0.14024-14.694 0.41504-20.575 0.27481-5.8805 0.70949-10.642 1.2452-13.934 0.53567-3.2919 1.1835-5.1288 1.8381-5.1288z"/>
   <path d="m194.82 366.02c0.58173 0.18024 0.53642 2.1531 0.13831 5.5602-0.39815 3.4072-1.1525 8.2563-1.9364 14.246-0.78388 5.9902-1.5765 13.136-2.213 21.107-0.56084 7.023-0.98355 14.71-1.3001 22.767h-8.8522c0.36417-8.3551 1.049-16.361 2.0471-23.652 1.1161-8.1525 2.5992-15.429 4.2048-21.439 1.6056-6.0095 3.3274-10.754 4.758-13.942 1.4307-3.1879 2.5718-4.8276 3.1536-4.6474z"/>
   <path d="m339.33 439.99c0.025909-1.9671 0.0354-3.9353 0-5.9375-0.027313-1.4055-0.09491-2.8294-0.15625-4.25-0.37659-8.7242-1.4134-17.108-3.1875-24.781-1.7741-7.6733-4.2697-14.642-7.3125-20.719-2.778-5.6408-6.0008-10.512-9.25-14.531s-6.5368-7.1776-9.4375-9.6562c-6.5572-4.3742-10.313-7.3738-9.9688-8.2188 0.36408-0.83429 4.8509 0.59674 12.625 3.9375 3.5686 2.0855 7.6468 5.0774 11.75 9.125s8.209 9.1795 11.781 15.312c3.76 6.536 6.902 14.115 9.125 22.438 2.223 8.3227 3.541 17.375 3.9062 26.688 0.059509 1.5164 0.082001 3.0369 0.093689 4.5312 0.019501 2.0485-0.010986 4.0555-0.0625 6.0625h-9.9062 6.1e-5z"/>
   <path d="m371.92 439.99c0.2117-1.9488 0.4476-3.9004 0.62497-5.8747 1.0514-11.705 1.3852-23.067 1.0833-33.79-0.34976-12.553-1.5865-24.245-3.2498-34.665-1.6634-10.42-3.738-19.546-5.6664-27.123-1.9284-7.5779-3.6763-13.612-4.7498-17.832-1.0734-4.2208-1.4787-6.6373-0.7916-6.958 0.68707-0.32062 2.3946 1.4846 4.7497 5.2497s5.3756 9.5021 8.4578 16.999c3.0823 7.497 6.1972 16.774 8.7495 27.54s4.5125 23.013 5.2914 36.248c0.66113 11.282 0.5145 23.258-0.58328 35.54-0.14032 1.5695-0.29038 3.114-0.45831 4.6664h-13.458z"/>
   <path d="m400.33 439.99c2.6703-8.2386 5.4302-16.085 7.9688-23.438 2.7354-7.9226 5.2069-15.312 7.2188-22.094 1.1734-3.9623 2.1996-7.704 3.0312-11.188 0.83164-3.4835 1.461-6.7053 1.9375-9.6562 0.46649-2.9156 0.77014-5.5644 0.96875-7.875s0.28305-4.2756 0.34375-5.9062c0.060699-1.6306 0.11896-2.925 0.21875-3.8125 0.099792-0.88745 0.25647-1.3757 0.53125-1.4375 0.27478-0.061829 0.6611 0.31152 1.0938 1.125 0.43265 0.81348 0.92197 2.0805 1.375 3.75s0.85114 3.7464 1.125 6.2188 0.39441 5.3185 0.3125 8.4688c-0.078094 3.1838-0.33997 6.6889-0.84375 10.438-0.50378 3.7485-1.2329 7.7624-2.1562 11.938-1.5744 7.137-3.6818 14.855-6.1562 22.969-2.0066 6.58-4.2755 13.46-6.5312 20.5h-10.438z"/>
   <path d="m547.21 439.99c-0.057983-1.4747-0.13562-2.9319-0.1875-4.425-0.005981-0.14746 0.005005-0.30231 0-0.44995-0.42304-12.603-0.62372-24.628-0.86249-35.625s-0.54108-20.964-0.97498-29.325c-0.43396-8.3603-0.99475-15.119-1.6875-19.8-0.69281-4.6808-1.497-7.2749-2.325-7.2749-0.82794 0-1.6196 2.5784-2.3624 7.2374-0.74292 4.659-1.4479 11.388-2.1 19.725-0.6521 8.3367-1.2449 18.292-1.6125 29.362-0.36749 11.07-0.50104 23.271-0.074951 36.112 0.004944 0.15045-0.005005 0.29968 0 0.45001 0.045166 1.3525 0.12909 2.6732 0.1875 4.0124h12z"/>
   <path d="m515.8 439.99c-0.25287-6.3088-0.79102-12.361-1.6207-17.905-1.0051-6.7162-2.4185-12.694-3.9875-17.571-1.569-4.8771-3.2686-8.6604-4.6821-11.165-1.4136-2.5046-2.514-3.7372-3.0356-3.5244-0.52161 0.21271-0.41772 1.8534 0.051392 4.6049 0.46912 2.7515 1.2701 6.6222 2.058 11.448 0.7879 4.8259 1.5455 10.602 2.0838 17.082 0.43707 5.2613 0.7135 11.01 0.90039 17.03h8.2324z"/>
   <path d="m580.3 337.95c-0.30988-0.005005-0.81177 0.38403-1.4688 1.1875-0.75079 0.91821-1.7049 2.379-2.75 4.3438s-2.1741 4.4385-3.25 7.4375-2.0891 6.5303-2.875 10.5c-0.71948 3.6408-1.2332 7.6498-1.5 11.969-0.26672 4.3189-0.27185 8.9488 0.031189 13.781 0.45172 7.1347 1.4928 14.72 3.125 22.562 1.6322 7.8429 3.8487 15.937 6.375 24.125 0.51508 1.6694 1.0369 3.3018 1.5625 4.9375 0.20587 0.64398 0.41791 1.2672 0.625 1.9062h10.438c-0.52582-1.641-1.04-3.2428-1.5625-4.9062-0.50543-1.6182-0.99695-3.2362-1.5-4.875-2.4673-8.038-4.6937-15.858-6.4688-23.312-1.775-7.4544-3.0878-14.544-3.875-21.219-0.53473-4.5064-0.85217-8.8227-0.9375-12.844-0.085266-4.0211 0.059692-7.7549 0.34375-11.188 0.61438-7.4694 1.9465-13.45 2.9062-17.594 0.47986-2.0718 0.84882-3.699 1.0312-4.8438 0.18243-1.1448 0.16602-1.7978-0.125-1.9375-0.036377-0.017395-0.080688-0.030518-0.125-0.031189l1e-4 -1e-4z"/>
   <path d="m461.48 338.67c0.11322-0.022583 0.2652 0.020386 0.37445 0.18726 0.10925 0.16681 0.16064 0.48804 0.18726 0.71143 0.056091 0.39496 0.061096 0.90753 0 1.4978-0.1206 1.1668-0.47064 2.735-0.97363 4.6058-1.0007 3.7186-2.6886 8.8284-4.7181 15.053-4.0065 12.283-9.446 29.154-13.668 49.054-2.0501 9.6731-3.7636 20.075-4.9428 30.93h-12.095c1.283-11.859 3.4439-23.157 6.0661-33.514 2.5942-10.254 5.6422-19.597 8.7622-27.859 3.12-8.2625 6.3003-15.437 9.2116-21.344 2.9607-6.0089 5.6042-10.666 7.6388-13.93 1.032-1.6602 1.879-2.9219 2.5463-3.8195 0.341-0.46338 0.62756-0.79456 0.86127-1.0485 0.15173-0.23358 0.33142-0.2663 0.44934-0.33704 0.11792-0.070679 0.18646-0.16455 0.29956-0.1872z"/>
   <path d="m483.46 358.49c0.63556 0.21399 0.41455 2.7958-0.40625 7.2812-0.82086 4.4854-2.2306 10.896-3.875 18.812-1.6444 7.9161-3.5167 17.317-4.9375 27.812-1.1873 8.7705-2.0558 18.31-2.1875 28.312h-9.9062c0.2727-10.621 1.4806-20.654 3.1562-29.75 1.9922-10.815 4.6014-20.341 7.1562-28.188 2.5549-7.8464 5.0494-13.993 7-18.156 1.9506-4.1634 3.3644-6.339 4-6.125z"/>
   <path d="m608.03 360.5c-0.73944 0-1.4332 2.0774-2.1099 5.7604-0.67664 3.6829-1.3505 8.9863-2.0094 15.573-0.65894 6.5868-1.2854 14.441-1.775 23.209-0.48962 8.7676-0.82849 18.454-0.63629 28.668 0.005981 0.33929 0.025879 0.66638 0.033386 1.0047 0.0354 1.7626 0.097839 3.5213 0.16748 5.258h10.717c-0.056396-1.8157-0.12506-3.6409-0.16748-5.4924-0.007019-0.32965-0.0271-0.64044-0.033386-0.97125-0.19263-9.9582-0.18182-19.514-0.23444-28.232-0.052612-8.7183-0.15845-16.599-0.46887-23.242-0.31049-6.6429-0.80151-12.022-1.4066-15.74-0.6051-3.7187-1.3369-5.7939-2.0764-5.7939z"/>
   <path d="m617.87 368.77c-0.65717 0.20361-0.60596 2.4323-0.15625 6.2812 0.44977 3.849 1.302 9.3268 2.1875 16.094 0.8855 6.7669 1.7809 14.839 2.5 23.844 0.63354 7.9337 1.1111 16.618 1.4688 25.719h10c-0.41138-9.4385-1.185-18.483-2.3125-26.719-1.2608-9.2097-2.9362-17.43-4.75-24.219-1.8137-6.7887-3.7588-12.149-5.375-15.75-1.6162-3.6012-2.9053-5.4536-3.5625-5.25z"/>
   <path d="m339.33 439.99c0.025909-1.9671 0.0354-3.9353 0-5.9375-0.027313-1.4055-0.09491-2.8294-0.15625-4.25-0.37659-8.7242-1.4134-17.108-3.1875-24.781-1.7741-7.6733-4.2697-14.642-7.3125-20.719-2.778-5.6408-6.0008-10.512-9.25-14.531s-6.5368-7.1776-9.4375-9.6562c-6.5572-4.3742-10.313-7.3738-9.9688-8.2188 0.36408-0.83429 4.8509 0.59674 12.625 3.9375 3.5686 2.0855 7.6468 5.0774 11.75 9.125s8.209 9.1795 11.781 15.312c3.76 6.536 6.902 14.115 9.125 22.438 2.223 8.3227 3.541 17.375 3.9062 26.688 0.059509 1.5164 0.082001 3.0369 0.093689 4.5312 0.019501 2.0485-0.010986 4.0555-0.0625 6.0625h-9.9062 6.1e-5z"/>
   <path d="m371.92 439.99c0.2117-1.9488 0.4476-3.9004 0.62497-5.8747 1.0514-11.705 1.3852-23.067 1.0833-33.79-0.34976-12.553-1.5865-24.245-3.2498-34.665-1.6634-10.42-3.738-19.546-5.6664-27.123-1.9284-7.5779-3.6763-13.612-4.7498-17.832-1.0734-4.2208-1.4787-6.6373-0.7916-6.958 0.68707-0.32062 2.3946 1.4846 4.7497 5.2497s5.3756 9.5021 8.4578 16.999c3.0823 7.497 6.1972 16.774 8.7495 27.54s4.5125 23.013 5.2914 36.248c0.66113 11.282 0.5145 23.258-0.58328 35.54-0.14032 1.5695-0.29038 3.114-0.45831 4.6664h-13.458z"/>
   <path d="m400.33 439.99c2.6703-8.2386 5.4302-16.085 7.9688-23.438 2.7354-7.9226 5.2069-15.312 7.2188-22.094 1.1734-3.9623 2.1996-7.704 3.0312-11.188 0.83164-3.4835 1.461-6.7053 1.9375-9.6562 0.46649-2.9156 0.77014-5.5644 0.96875-7.875s0.28305-4.2756 0.34375-5.9062c0.060699-1.6306 0.11896-2.925 0.21875-3.8125 0.099792-0.88745 0.25647-1.3757 0.53125-1.4375 0.27478-0.061829 0.6611 0.31152 1.0938 1.125 0.43265 0.81348 0.92197 2.0805 1.375 3.75s0.85114 3.7464 1.125 6.2188 0.39441 5.3185 0.3125 8.4688c-0.078094 3.1838-0.33997 6.6889-0.84375 10.438-0.50378 3.7485-1.2329 7.7624-2.1562 11.938-1.5744 7.137-3.6818 14.855-6.1562 22.969-2.0066 6.58-4.2755 13.46-6.5312 20.5h-10.438z"/>
   <path d="m547.21 439.99c-0.057983-1.4747-0.13562-2.9319-0.1875-4.425-0.005981-0.14746 0.005005-0.30231 0-0.44995-0.42304-12.603-0.62372-24.628-0.86249-35.625s-0.54108-20.964-0.97498-29.325c-0.43396-8.3603-0.99475-15.119-1.6875-19.8-0.69281-4.6808-1.497-7.2749-2.325-7.2749-0.82794 0-1.6196 2.5784-2.3624 7.2374-0.74292 4.659-1.4479 11.388-2.1 19.725-0.6521 8.3367-1.2449 18.292-1.6125 29.362-0.36749 11.07-0.50104 23.271-0.074951 36.112 0.004944 0.15045-0.005005 0.29968 0 0.45001 0.045166 1.3525 0.12909 2.6732 0.1875 4.0124h12z"/>
   <path d="m515.8 439.99c-0.25287-6.3088-0.79102-12.361-1.6207-17.905-1.0051-6.7162-2.4185-12.694-3.9875-17.571-1.569-4.8771-3.2686-8.6604-4.6821-11.165-1.4136-2.5046-2.514-3.7372-3.0356-3.5244-0.52161 0.21271-0.41772 1.8534 0.051392 4.6049 0.46912 2.7515 1.2701 6.6222 2.058 11.448 0.7879 4.8259 1.5455 10.602 2.0838 17.082 0.43707 5.2613 0.7135 11.01 0.90039 17.03h8.2324z"/>
   <path d="m580.3 337.95c-0.30988-0.005005-0.81177 0.38403-1.4688 1.1875-0.75079 0.91821-1.7049 2.379-2.75 4.3438s-2.1741 4.4385-3.25 7.4375-2.0891 6.5303-2.875 10.5c-0.71948 3.6408-1.2332 7.6498-1.5 11.969-0.26672 4.3189-0.27185 8.9488 0.031189 13.781 0.45172 7.1347 1.4928 14.72 3.125 22.562 1.6322 7.8429 3.8487 15.937 6.375 24.125 0.51508 1.6694 1.0369 3.3018 1.5625 4.9375 0.20587 0.64398 0.41791 1.2672 0.625 1.9062h10.438c-0.52582-1.641-1.04-3.2428-1.5625-4.9062-0.50543-1.6182-0.99695-3.2362-1.5-4.875-2.4673-8.038-4.6937-15.858-6.4688-23.312-1.775-7.4544-3.0878-14.544-3.875-21.219-0.53473-4.5064-0.85217-8.8227-0.9375-12.844-0.085266-4.0211 0.059692-7.7549 0.34375-11.188 0.61438-7.4694 1.9465-13.45 2.9062-17.594 0.47986-2.0718 0.84882-3.699 1.0312-4.8438 0.18243-1.1448 0.16602-1.7978-0.125-1.9375-0.036377-0.017395-0.080688-0.030518-0.125-0.031189l1e-4 -1e-4z"/>
   <path d="m461.48 338.67c0.11322-0.022583 0.2652 0.020386 0.37445 0.18726 0.10925 0.16681 0.16064 0.48804 0.18726 0.71143 0.056091 0.39496 0.061096 0.90753 0 1.4978-0.1206 1.1668-0.47064 2.735-0.97363 4.6058-1.0007 3.7186-2.6886 8.8284-4.7181 15.053-4.0065 12.283-9.446 29.154-13.668 49.054-2.0501 9.6731-3.7636 20.075-4.9428 30.93h-12.095c1.283-11.859 3.4439-23.157 6.0661-33.514 2.5942-10.254 5.6422-19.597 8.7622-27.859 3.12-8.2625 6.3003-15.437 9.2116-21.344 2.9607-6.0089 5.6042-10.666 7.6388-13.93 1.032-1.6602 1.879-2.9219 2.5463-3.8195 0.341-0.46338 0.62756-0.79456 0.86127-1.0485 0.15173-0.23358 0.33142-0.2663 0.44934-0.33704 0.11792-0.070679 0.18646-0.16455 0.29956-0.1872z"/>
   <path d="m483.46 358.49c0.63556 0.21399 0.41455 2.7958-0.40625 7.2812-0.82086 4.4854-2.2306 10.896-3.875 18.812-1.6444 7.9161-3.5167 17.317-4.9375 27.812-1.1873 8.7705-2.0558 18.31-2.1875 28.312h-9.9062c0.2727-10.621 1.4806-20.654 3.1562-29.75 1.9922-10.815 4.6014-20.341 7.1562-28.188 2.5549-7.8464 5.0494-13.993 7-18.156 1.9506-4.1634 3.3644-6.339 4-6.125z"/>
   <path d="m608.03 360.5c-0.73944 0-1.4332 2.0774-2.1099 5.7604-0.67664 3.6829-1.3505 8.9863-2.0094 15.573-0.65894 6.5868-1.2854 14.441-1.775 23.209-0.48962 8.7676-0.82849 18.454-0.63629 28.668 0.005981 0.33929 0.025879 0.66638 0.033386 1.0047 0.0354 1.7626 0.097839 3.5213 0.16748 5.258h10.717c-0.056396-1.8157-0.12506-3.6409-0.16748-5.4924-0.007019-0.32965-0.0271-0.64044-0.033386-0.97125-0.19263-9.9582-0.18182-19.514-0.23444-28.232-0.052612-8.7183-0.15845-16.599-0.46887-23.242-0.31049-6.6429-0.80151-12.022-1.4066-15.74-0.6051-3.7187-1.3369-5.7939-2.0764-5.7939z"/>
   <path d="m617.87 368.77c-0.65717 0.20361-0.60596 2.4323-0.15625 6.2812 0.44977 3.849 1.302 9.3268 2.1875 16.094 0.8855 6.7669 1.7809 14.839 2.5 23.844 0.63354 7.9337 1.1111 16.618 1.4688 25.719h10c-0.41138-9.4385-1.185-18.483-2.3125-26.719-1.2608-9.2097-2.9362-17.43-4.75-24.219-1.8137-6.7887-3.7588-12.149-5.375-15.75-1.6162-3.6012-2.9053-5.4536-3.5625-5.25z"/>
   <path d="m347.39 429.97c0.026611-2.0201 0.036407-4.0414 0-6.0975-0.027985-1.4434-0.097504-2.9057-0.16046-4.3646-0.38672-8.9594-1.4515-17.569-3.2734-25.449-1.8219-7.8802-4.3848-15.037-7.5096-21.277-2.8528-5.7928-6.1626-10.796-9.4994-14.923-3.3368-4.1274-6.713-7.3711-9.6919-9.9166-6.734-4.4921-10.591-7.5725-10.238-8.4403 0.37387-0.85675 4.9816 0.61285 12.965 4.0436 3.6649 2.1418 7.8529 5.2143 12.067 9.371 4.2139 4.1567 8.4303 9.4269 12.099 15.725 3.8613 6.7122 7.0881 14.495 9.371 23.042 2.2829 8.5471 3.6364 17.843 4.0116 27.407 0.061096 1.5573 0.084198 3.1187 0.096191 4.6534 0.02002 2.1037-0.011292 4.1649-0.064178 6.226h-10.173 9.2e-5z"/>
   <path d="m377.67 429.97c0.26279-2.279 0.55563-4.5615 0.77579-6.8704 1.3052-13.689 1.7196-26.977 1.3448-39.517-0.43417-14.68-1.9694-28.355-4.0342-40.54-2.0648-12.186-4.6402-22.858-7.034-31.721-2.3939-8.8623-4.5636-15.919-5.8962-20.855-1.3325-4.9363-1.8356-7.7623-0.9827-8.1373s2.9726 1.7363 5.8962 6.1395c2.9236 4.4033 6.673 11.113 10.499 19.88 3.8262 8.7676 7.693 19.618 10.861 32.208 3.1684 12.59 5.6016 26.914 6.5685 42.392 0.82071 13.194 0.6387 27.201-0.72409 41.564-0.17416 1.8356-0.36044 3.6418-0.56894 5.4573h-16.706z"/>
   <path d="m410.04 429.97c2.7423-8.4607 5.5766-16.519 8.1836-24.069 2.8092-8.1362 5.3473-15.725 7.4133-22.689 1.205-4.0691 2.2589-7.9117 3.113-11.489 0.85406-3.5774 1.5003-6.886 1.9898-9.9166 0.47906-2.9942 0.79092-5.7145 0.99484-8.0873 0.20395-2.3729 0.29068-4.3909 0.35303-6.0655 0.062286-1.6746 0.12216-3.0039 0.22464-3.9153 0.10248-0.91138 0.26337-1.4128 0.54559-1.4763 0.28217-0.063477 0.67892 0.31995 1.1232 1.1553 0.44428 0.83545 0.94681 2.1366 1.412 3.8511 0.46527 1.7145 0.87408 3.8474 1.1553 6.3864s0.40503 5.4619 0.32092 8.697c-0.0802 3.2696-0.34915 6.8693-0.86649 10.719-0.51736 3.8496-1.2662 7.9717-2.2144 12.259-1.6168 7.3293-3.7811 15.255-6.3222 23.588-2.0607 6.7574-4.3908 13.823-6.7073 21.053h-10.719z"/>
   <path d="m536.33 429.97c-0.05957-1.5144-0.13928-3.0109-0.19257-4.5442-0.005981-0.15149 0.005005-0.31049 0-0.4621-0.43445-12.943-0.6405-25.291-0.88574-36.585s-0.55566-21.53-1.0013-30.115c-0.44562-8.5857-1.0215-15.527-1.733-20.334-0.71143-4.807-1.5374-7.4711-2.3876-7.4711-0.85034 0-1.6633 2.648-2.4262 7.4326-0.76294 4.7846-1.4869 11.695-2.1566 20.256-0.66968 8.5614-1.2785 18.785-1.6559 30.154-0.37744 11.368-0.51459 23.899-0.077026 37.086 0.005005 0.15448-0.005005 0.3078 0 0.46216 0.046387 1.389 0.13263 2.7452 0.19257 4.1206h12.323z"/>
   <path d="m504.07 429.97c-0.2597-6.4788-0.81238-12.695-1.6644-18.388-1.0322-6.8972-2.4837-13.036-4.095-18.044-1.6113-5.0086-3.3566-8.8939-4.8083-11.466-1.4517-2.5722-2.5818-3.838-3.1175-3.6195-0.53564 0.21851-0.42896 1.9034 0.052795 4.7291 0.48181 2.8257 1.3044 6.8007 2.1135 11.757 0.8092 4.9559 1.5872 10.888 2.14 17.542 0.44885 5.4031 0.73273 11.307 0.92468 17.49h8.4543z"/>
   <path d="m594.86 325.18c-0.31824-0.005005-0.83368 0.39441-1.5084 1.2195-0.771 0.94299-1.7508 2.4431-2.8241 4.4609-1.0732 2.0178-2.2327 4.5582-3.3376 7.638s-2.1454 6.7063-2.9524 10.783c-0.73889 3.7389-1.2665 7.8561-1.5405 12.291-0.27393 4.4354-0.27918 9.1901 0.031982 14.153 0.46393 7.327 1.5331 15.116 3.2093 23.171 1.6762 8.0543 3.9524 16.366 6.5468 24.775 0.52899 1.7145 1.0648 3.3908 1.6046 5.0706 0.21143 0.66132 0.42914 1.3013 0.64185 1.9576h10.719c-0.54004-1.6853-1.068-3.3303-1.6046-5.0385-0.5191-1.6617-1.0238-3.3234-1.5405-5.0064-2.5338-8.2547-4.8202-16.286-6.6431-23.941-1.8229-7.6553-3.171-14.936-3.9795-21.791-0.54919-4.6278-0.87518-9.0606-0.96277-13.19-0.087585-4.1294 0.061279-7.9639 0.35303-11.489 0.63086-7.6706 1.999-13.813 2.9846-18.068 0.49274-2.1277 0.8717-3.7986 1.059-4.9744 0.18732-1.1757 0.17047-1.8463-0.12836-1.9897-0.037415-0.017883-0.082886-0.031311-0.12836-0.031982l1e-4 -1e-4z"/>
   <path d="m542.94 325.91c-0.11627-0.023193-0.27234 0.020874-0.38452 0.19226-0.11224 0.17133-0.16498 0.50122-0.19232 0.73065-0.057556 0.40558-0.062683 0.93201 0 1.5382 0.12384 1.1982 0.48334 2.8086 0.99982 4.7299 1.0278 3.8188 2.7611 9.0664 4.8453 15.459 4.1145 12.614 9.7006 29.94 14.036 50.376 2.1054 9.9338 3.865 20.617 5.076 31.764h12.421c-1.3176-12.178-3.5367-23.781-6.2297-34.417-2.6641-10.531-5.7943-20.125-8.9984-28.61-3.2041-8.4853-6.4702-15.854-9.4599-21.919-3.0405-6.171-5.7552-10.953-7.8447-14.305-1.0599-1.705-1.9297-3.0007-2.6149-3.9224-0.35022-0.47589-0.64447-0.81604-0.88446-1.0768-0.15582-0.23981-0.34039-0.27344-0.46149-0.34607-0.12109-0.072571-0.19147-0.16901-0.30762-0.19226z"/>
   <path d="m470.86 346.27c0.65271 0.21973 0.42578 2.8712-0.41718 7.4775-0.84302 4.6063-2.2907 11.19-3.9795 19.32-1.6888 8.1295-3.6115 17.784-5.0706 28.562-1.2193 9.007-2.1112 18.803-2.2465 29.076h-10.173c0.28009-10.907 1.5206-21.211 3.2413-30.552 2.046-11.106 4.7255-20.89 7.3492-28.947 2.6237-8.0579 5.1855-14.37 7.1887-18.646 2.0032-4.2756 3.4551-6.5098 4.1078-6.2901z"/>
   <path d="m623.34 348.33c-0.7594 0-1.4719 2.1335-2.1668 5.9156-0.69495 3.7822-1.3869 9.2285-2.0636 15.993-0.67676 6.7643-1.3201 14.831-1.8229 23.834-0.50281 9.004-0.85083 18.951-0.65344 29.441 0.005981 0.34845 0.02655 0.68433 0.034302 1.0318 0.036377 1.8101 0.1004 3.6162 0.17194 5.3997h11.006c-0.057861-1.8646-0.12842-3.7391-0.17194-5.6405-0.007019-0.3385-0.027832-0.65765-0.034302-0.99738-0.19782-10.227-0.18677-20.04-0.24078-28.994-0.054016-8.9532-0.16266-17.047-0.48151-23.869-0.31879-6.822-0.82306-12.346-1.4445-16.165-0.62146-3.819-1.373-5.9501-2.1324-5.9501z"/>
   <path d="m633.43 356.83c-0.67487 0.20911-0.62231 2.4979-0.16046 6.4506 0.46185 3.9528 1.3371 9.5782 2.2465 16.528 0.90936 6.9493 1.8289 15.239 2.5674 24.486 0.65064 8.1476 1.141 17.066 1.5084 26.412h10.27c-0.42248-9.6929-1.217-18.981-2.3749-27.439-1.2948-9.458-3.0154-17.9-4.878-24.872-1.8626-6.9717-3.8601-12.476-5.5199-16.175-1.6597-3.6983-2.9836-5.6006-3.6585-5.3915z"/>
   <path d="m367.48 433.07c0.022919-1.7413 0.031403-3.4836 0-5.256-0.024109-1.2442-0.083984-2.5046-0.13831-3.7622-0.33334-7.7228-1.2512-15.144-2.8216-21.937-1.5705-6.7925-3.7796-12.961-6.4731-18.341-2.4591-4.9933-5.312-9.3055-8.1882-12.863-2.8762-3.5577-5.7865-6.3537-8.3542-8.5478-5.8045-3.8721-9.1292-6.5273-8.8245-7.2753 0.3223-0.73852 4.294 0.52826 11.176 3.4855 3.159 1.8462 6.769 4.4946 10.401 8.0776 3.6322 3.583 7.2668 8.1258 10.429 13.555 3.3284 5.7858 6.1098 12.495 8.0776 19.862 1.9678 7.3674 3.1345 15.38 3.4579 23.624 0.052704 1.3424 0.072601 2.6882 0.082886 4.0111 0.017212 1.8134-0.009979 3.59-0.055298 5.3666h-8.7692 6.1e-5z"/>
   <path d="m397.33 433.07c0.18741-1.7251 0.39624-3.4527 0.55322-5.2004 0.93076-10.361 1.2262-20.42 0.95895-29.911-0.30963-11.112-1.4044-21.462-2.8768-30.686-1.4724-9.2236-3.3089-17.302-5.016-24.01-1.707-6.7081-3.2543-12.049-4.2045-15.786-0.95023-3.7364-1.309-5.8755-0.70078-6.1593 0.60822-0.28381 2.1198 1.3142 4.2045 4.6471 2.0848 3.333 4.7585 8.4114 7.487 15.048 2.7285 6.6364 5.4858 14.849 7.7452 24.379 2.2593 9.5298 3.9945 20.372 4.684 32.087 0.58524 9.9868 0.45544 20.589-0.51636 31.46-0.12418 1.3894-0.25702 2.7565-0.4057 4.1308h-11.913z"/>
   <path d="m421.48 433.07c2.3638-7.293 4.8069-14.239 7.054-20.747 2.4215-7.0132 4.6092-13.555 6.3901-19.558 1.0387-3.5074 1.9472-6.8197 2.6833-9.9033 0.73618-3.0837 1.2933-5.9356 1.7151-8.5478 0.41293-2.5809 0.68176-4.9258 0.85754-6.9711 0.17581-2.0454 0.25055-3.7849 0.30429-5.2283 0.053711-1.4434 0.10529-2.5893 0.19363-3.3749 0.088318-0.78558 0.22705-1.2178 0.47028-1.2725 0.24326-0.054688 0.58524 0.27576 0.9682 0.99591 0.383 0.72009 0.81613 1.8417 1.2172 3.3195 0.40103 1.4779 0.75345 3.3164 0.99588 5.5049 0.24237 2.1885 0.34912 4.7081 0.27661 7.4966-0.069092 2.8184-0.30096 5.9212-0.74692 9.2395-0.44595 3.3182-1.0914 6.8714-1.9088 10.567-1.3937 6.3177-3.2592 13.15-5.4496 20.332-1.7763 5.8247-3.7848 11.915-5.7816 18.147h-9.2394z"/>
   <path d="m531.08 433.07c-0.051392-1.3054-0.12006-2.5954-0.16596-3.917-0.005005-0.13055 0.003967-0.26764 0-0.39832-0.37451-11.156-0.55212-21.801-0.76349-31.536-0.21143-9.7349-0.479-18.558-0.8631-25.959-0.38409-7.4007-0.88055-13.384-1.4938-17.527-0.61328-4.1435-1.3252-6.4399-2.0581-6.4399-0.73297 0-1.4337 2.2825-2.0913 6.4067-0.65759 4.1243-1.2817 10.081-1.859 17.461-0.57727 7.3798-1.102 16.192-1.4274 25.992-0.32532 9.7994-0.44354 20.6-0.066406 31.967 0.004028 0.13318-0.003967 0.26532 0 0.39838 0.040039 1.1973 0.11432 2.3663 0.16602 3.5519h10.622z"/>
   <path d="m503.28 433.07c-0.22388-5.5846-0.70026-10.942-1.4347-15.85-0.88977-5.9452-2.1409-11.237-3.5298-15.554-1.3888-4.3173-2.8934-7.6663-4.1446-9.8834-1.2513-2.2172-2.2255-3.3082-2.6872-3.1199-0.46173 0.18835-0.36975 1.6407 0.045471 4.0764 0.41534 2.4357 1.1244 5.8621 1.8218 10.134 0.69751 4.2719 1.3681 9.385 1.8446 15.121 0.38696 4.6574 0.63159 9.7462 0.79706 15.076h7.2875z"/>
   <path d="m580.79 342.75c-0.27435-0.004028-0.71863 0.33997-1.3002 1.0512-0.66461 0.8128-1.5092 2.1059-2.4343 3.8452-0.92511 1.7393-1.9246 3.929-2.877 6.5838-0.95239 2.6547-1.8493 5.7806-2.545 9.2947-0.6369 3.2228-1.0917 6.7718-1.3278 10.595-0.23614 3.8232-0.24066 7.9217 0.027588 12.199 0.39984 6.3157 1.3215 13.03 2.7663 19.973 1.4449 6.9427 3.4069 14.108 5.6432 21.356 0.45593 1.4778 0.91785 2.9228 1.3831 4.3707 0.18225 0.57007 0.36993 1.1218 0.55328 1.6874h9.2394c-0.46552-1.4527-0.92065-2.8705-1.3832-4.3431-0.44745-1.4324-0.88251-2.8647-1.3278-4.3154-2.1841-7.1154-4.155-14.038-5.7262-20.636-1.5713-6.5988-2.7333-12.875-3.4302-18.783-0.47339-3.9891-0.7544-7.81-0.8299-11.37-0.0755-3.5594 0.052795-6.8648 0.30432-9.9033 0.54382-6.612 1.7231-11.906 2.5726-15.574 0.4248-1.834 0.7514-3.2744 0.9129-4.2877 0.16144-1.0134 0.14691-1.5916-0.11066-1.7152-0.032227-0.015381-0.071533-0.026978-0.11066-0.027588l1e-4 -1e-4z"/>
   <path d="m536.04 343.38c-0.10022-0.02002-0.23474 0.018005-0.33148 0.16577-0.09668 0.14764-0.14221 0.43201-0.16571 0.62976-0.049622 0.34961-0.054016 0.80334 0 1.3259 0.10669 1.0329 0.41656 2.4211 0.86182 4.0772 0.88586 3.2917 2.38 7.815 4.1765 13.325 3.5466 10.873 8.3618 25.808 12.099 43.423 1.8148 8.5627 3.3316 17.771 4.3754 27.38h10.706c-1.1357-10.498-3.0486-20.499-5.3698-29.667-2.2964-9.0772-4.9946-17.347-7.7565-24.662-2.7618-7.3141-5.5772-13.665-8.1542-18.894-2.6208-5.3192-4.9609-9.4415-6.762-12.331-0.91357-1.4697-1.6633-2.5865-2.254-3.381-0.30182-0.41016-0.55548-0.70337-0.76233-0.9281-0.13434-0.20673-0.2934-0.23572-0.39783-0.29828-0.10437-0.062622-0.16504-0.14569-0.26514-0.16577z"/>
   <path d="m474.65 360.92c0.56262 0.18939 0.367 2.4749-0.35962 6.4455-0.72662 3.9705-1.9745 9.6457-3.4302 16.653-1.4556 7.0074-3.113 15.33-4.3707 24.62-1.051 7.7638-1.8198 16.208-1.9364 25.063h-8.7692c0.24139-9.4016 1.3107-18.283 2.794-26.335 1.7636-9.5736 4.0732-18.006 6.3348-24.952 2.2616-6.9457 4.4698-12.387 6.1965-16.072 1.7267-3.6855 2.9782-5.6113 3.5408-5.4219z"/>
   <path d="m605.34 362.7c-0.6546 0-1.2687 1.839-1.8677 5.0992-0.599 3.2601-1.1954 7.9548-1.7788 13.786-0.58331 5.8308-1.1378 12.784-1.5712 20.545-0.43347 7.7612-0.73346 16.335-0.56329 25.377 0.004944 0.30035 0.022888 0.5899 0.029602 0.8894 0.031372 1.5603 0.086548 3.1171 0.14819 4.6545h9.4868c-0.049866-1.6073-0.11066-3.223-0.14819-4.862-0.006042-0.29181-0.024048-0.56696-0.029602-0.85974-0.17053-8.8152-0.16095-17.274-0.20758-24.992-0.04657-7.7176-0.1402-14.694-0.41504-20.575-0.27478-5.8805-0.70947-10.642-1.2451-13.934-0.53571-3.2919-1.1835-5.1288-1.8381-5.1288z"/>
   <path d="m614.04 370.02c-0.58173 0.18024-0.53644 2.1531-0.13831 5.5602 0.39813 3.4072 1.1525 8.2563 1.9364 14.246 0.78388 5.9902 1.5765 13.136 2.213 21.107 0.56085 7.023 0.98358 14.71 1.3002 22.767h8.8522c-0.36414-8.3551-1.049-16.361-2.0471-23.652-1.1161-8.1525-2.5992-15.429-4.2048-21.439-1.6056-6.0095-3.3274-10.754-4.7581-13.942-1.4307-3.1879-2.5718-4.8276-3.1536-4.6474z"/>
   <path d="m480.69 433.07c0.18738-1.7251 0.39624-3.4527 0.55322-5.2004 0.93072-10.361 1.2262-20.42 0.95892-29.911-0.30957-11.112-1.4044-21.462-2.8768-30.686-1.4725-9.2236-3.3089-17.302-5.0159-24.01-1.7071-6.7081-3.2543-12.049-4.2045-15.786-0.95026-3.7364-1.309-5.8755-0.70081-6.1593 0.60822-0.28381 2.1198 1.3142 4.2045 4.6471 2.0848 3.333 4.7586 8.4114 7.4871 15.048 2.7285 6.6364 5.4858 14.849 7.7452 24.379 2.2593 9.5298 3.9945 20.372 4.684 32.087 0.58527 9.9868 0.45544 20.589-0.51636 31.46-0.12421 1.3894-0.25702 2.7565-0.4057 4.1308h-11.913z"/>
   <path d="m516.15 342.75c-0.27435-0.004028-0.71863 0.33997-1.3002 1.0512-0.66461 0.8128-1.5092 2.1059-2.4343 3.8452-0.92508 1.7393-1.9245 3.929-2.8769 6.5838-0.95239 2.6547-1.8493 5.7806-2.545 9.2947-0.6369 3.2228-1.0917 6.7718-1.3278 10.595-0.23614 3.8232-0.24066 7.9217 0.027588 12.199 0.39984 6.3157 1.3215 13.03 2.7663 19.973 1.4449 6.9427 3.4069 14.108 5.6432 21.356 0.45593 1.4778 0.91785 2.9228 1.3831 4.3707 0.18225 0.57007 0.36993 1.1218 0.55328 1.6874h9.2394c-0.46552-1.4527-0.92065-2.8705-1.3832-4.3431-0.44745-1.4324-0.88251-2.8647-1.3278-4.3154-2.1841-7.1154-4.155-14.038-5.7262-20.636-1.5713-6.5988-2.7333-12.875-3.4302-18.783-0.47339-3.9891-0.7544-7.81-0.8299-11.37-0.0755-3.5594 0.052795-6.8648 0.30432-9.9033 0.54382-6.612 1.7231-11.906 2.5726-15.574 0.4248-1.834 0.7514-3.2744 0.9129-4.2877 0.16144-1.0134 0.14691-1.5916-0.11066-1.7152-0.032227-0.015381-0.071533-0.026978-0.11066-0.027588l1e-4 -1e-4z"/>
   <path d="m604.83 348.38c0.10022-0.02002 0.23474 0.018005 0.33148 0.16577 0.09668 0.14764 0.14221 0.43201 0.16571 0.62976 0.049622 0.34961 0.054016 0.80334 0 1.3259-0.10669 1.0329-0.41656 2.4211-0.86182 4.0772-0.88586 3.2917-2.38 7.815-4.1765 13.325-3.5466 10.873-8.3618 25.808-12.099 43.423-1.8148 8.5627-3.3317 17.771-4.3754 27.38h-10.706c1.1357-10.498 3.0486-20.499 5.3698-29.667 2.2964-9.0772 4.9946-17.347 7.7565-24.662 2.7618-7.3141 5.5772-13.665 8.1542-18.894 2.6208-5.3192 4.9609-9.4415 6.762-12.331 0.91357-1.4697 1.6633-2.5865 2.254-3.381 0.30182-0.41016 0.55548-0.70337 0.76233-0.9281 0.13434-0.20673 0.2934-0.23572 0.39777-0.29828 0.10437-0.062622 0.1651-0.14569 0.2652-0.16577z"/>
   <path d="m650.28 360.92c0.56262 0.18939 0.367 2.4749-0.35962 6.4455-0.72662 3.9705-1.9746 9.6457-3.4302 16.653-1.4556 7.0074-3.113 15.33-4.3707 24.62-1.051 7.7638-1.8198 16.208-1.9364 25.063h-8.7692c0.24139-9.4016 1.3107-18.283 2.794-26.335 1.7636-9.5736 4.0732-18.006 6.3348-24.952 2.2616-6.9457 4.4698-12.387 6.1965-16.072 1.7267-3.6855 2.9782-5.6113 3.5408-5.4219z"/>
   <path d="m561.7 359.7c-0.6546 0-1.2687 1.839-1.8677 5.0992-0.599 3.2601-1.1954 7.9548-1.7788 13.786-0.58331 5.8308-1.1378 12.784-1.5712 20.545-0.43347 7.7612-0.73346 16.335-0.56329 25.377 0.005005 0.30035 0.022888 0.5899 0.029602 0.8894 0.031372 1.5603 0.086548 3.1171 0.14819 4.6545h9.4868c-0.049866-1.6073-0.11066-3.223-0.14819-4.862-0.006042-0.29181-0.024048-0.56696-0.029602-0.85974-0.17053-8.8152-0.16095-17.274-0.20758-24.992-0.04657-7.7176-0.1402-14.694-0.41504-20.575-0.27478-5.8805-0.70947-10.642-1.2451-13.934-0.53564-3.2919-1.1835-5.1288-1.8381-5.1288z"/>
   <path d="m496.41 366.02c-0.58173 0.18024-0.53644 2.1531-0.13831 5.5602 0.39813 3.4072 1.1525 8.2563 1.9364 14.246 0.78388 5.9902 1.5765 13.136 2.213 21.107 0.56085 7.023 0.98358 14.71 1.3002 22.767h8.8522c-0.36414-8.3551-1.049-16.361-2.0471-23.652-1.1161-8.1525-2.5992-15.429-4.2048-21.439-1.6056-6.0095-3.3274-10.754-4.7581-13.942-1.4307-3.1879-2.5718-4.8276-3.1536-4.6474z"/>
  </g>
  <g fill-rule="evenodd">
   <path d="m86.351 420.14c4.1794 0.82959 11.009 7.5737 11.025-0.98462 24.794-71.931 35.38-149.21 26.991-225.03-3.5785-50.442 3.7489-103.76 33.367-146.03 11.498-17.257 25.218-32.885 39.257-48.095-32.514 32.457-61.916 70.932-71.414 116.82-9.0818 37.945-6.0396 77.18-4.2502 115.73 0.43372 63.911-12.225 127.96-34.976 187.59z"/>
   <path d="m202.15 61.471c-31.518 26.594-60.853 58.992-73.417 100.1-4.176 12.337-6.962 24.986-8.9063 37.796 1.084 0.59668 2.1798 1.1771 3.2915 1.7211 4.9145-36.192 16.933-71.477 40.163-99.355 11.679-14.697 25.15-27.688 38.869-40.266z"/>
  </g>
  <rect transform="rotate(36.384)" x="148.47" y="-104.63" width="14.5" height="63" rx="7.25" ry="7.25"/>
  <rect transform="rotate(43.174)" x="181.45" y="-79.377" width="12.063" height="52.413" rx="6.0317" ry="6.0317"/>
  <path d="m44.34 248.08c-6.87e-4 0.018311 0.014603 0.042389 0.014114 0.060913-11.533 5.9583-21.839 12.771-23.386 16.612 3.909 1.7358 15.94 0.48498 28.396-2.1825 10.117 19.965 32.871 50.712 43.486 53.409 4.6667 0.94391 9.347 1.9053 13.762 3.7412l0.3093 0.0887 0.2343 0.042c0.80502-1.6988-1.555-13.506-0.84923-16.131-2.1139-12.861-50.247-55.602-61.966-55.64v3.1e-5z"/>
  <path d="m133.66 273.68c2.6941-1.7062 5.6717-2.8709 8.6324-4.0194 8.7797-3.9134 25.899-42.142 24.212-50.109-7.6988 1.3509-34.508 34.882-34.443 43.575 0.76079 1.645 0.54008 9.6727 1.2614 10.698l0.1504-0.0523 0.1862-0.0927h1.5e-5z"/>
  <path d="m97.022 301.34c-1.8301 0.44836-3.5564 1.076-5.1562 1.8438 8.3701 9.595 16.28 19.826 22.688 30.812 2.259-0.90344 4.2874-2.0638 6.0313-3.4688-6.6682-10.548-14.751-20.266-23.562-29.188z"/>
  <path d="m139.1 259.34c1.4939 0.36603 2.903 0.87836 4.2089 1.505-6.8323 7.8322-13.289 16.183-18.519 25.151-1.844-0.73749-3.4996-1.6846-4.9231-2.8314 5.443-8.61 12.041-16.543 19.233-23.825z"/>
  <g transform="matrix(.87748 -.25756 .25756 .87748 143.47 136.28)">
   <g fill-rule="evenodd">
    <path d="m-48.207-69.461c-15.59 20.378-28.178 41.899-33.875 66.281-10.18 37.676-6.7557 76.632-4.75 114.91 0.48613 63.458-13.718 127.05-39.219 186.25 4.6847 0.82373 12.326 7.5289 12.344-0.96875 27.791-71.421 39.685-148.16 30.281-223.44-3.9412-49.211 3.9205-101.17 35.688-142.78-0.33734-0.32318-0.15371 0.10262-0.46875-0.25z"/>
    <path d="m3.7532-58.15c-35.328 26.406-68.209 58.574-82.293 99.394-4.6809 12.25-7.8037 24.809-9.983 37.528 1.2151 0.59244 2.4433 1.1687 3.6894 1.709 5.5086-35.936 18.98-70.971 45.018-98.651 13.09-14.593 28.19-27.492 43.568-39.981z"/>
   </g>
   <path d="m-27.778-11.421c-1.732 2.4233-4.1469 4.6326-8.6302 7.5187-8.1919 2.189-20.656 2.8272-22.142 11.616-0.11093 0.096191-0.16744 0.16492-0.23972 0.23972-1.9056 1.2881-3.7821 2.6268-5.6009 4.0318 0.26476 0.65536 0.65574 1.2889 1.155 1.8524 1.6436-1.3769 3.3527-2.6958 5.0779-3.9882 10.494 2.5034 16.427-6.697 22.622-12.074 4.8706-2.3726 8.0521-3.3108 11.049-3.5306-2.2808-0.042084-5.2943 0.34662-8.5648 1.0461 2.273-2.4072 4.1327-4.7594 5.274-6.7124z"/>
   <path d="m-47.59 67.5c-0.050171 0.27145-0.10816 0.51492-0.15914 0.77771-14.411 7.6969-23.432 29.231-30.138 48.388-1.4055 1.267-1.8608 6.3582-1.6521 9.4723-1.5154 2.0733-3.009 4.174-4.4373 6.3322 0.61375 0.99747 1.4021 1.9035 2.32 2.6416 1.5186-2.4898 3.1034-4.9077 4.7268-7.3203 1.7356-0.15704 3.0172-1.9021 6.0462-4.2435 11.827-16.687 25-37.335 23.35-55.238 0.10412-0.10791 0.19522-0.2045 0.30174-0.31369-0.10866 0.054993-0.21305 0.11484-0.32111 0.1713-0.021233-0.21954-0.012112-0.44916-0.03788-0.66788v1e-4zm-0.2445 1.1239c-1.7979 9.0564-4.4452 13.545-14.236 27.78 5.9287-16.492 7.9818-21.226 14.236-27.78z"/>
   <path d="m-42.427-43.479c-1.5001 2.7929-3.7416 5.4447-8.0589 9.0766-8.2844 3.3597-21.235 5.6115-21.661 15.135-0.10364 0.11621-0.1539 0.19635-0.21989 0.28494-1.8272 1.6089-3.6175 3.2679-5.3389 4.99 0.36089 0.66275 0.85095 1.2863 1.4453 1.8219 1.5418-1.6702 3.1597-3.2869 4.7976-4.8777 11.293 1.3342 16.317-9.1883 22.104-15.682 4.7882-3.1353 7.9943-4.5337 11.1-5.1455-2.3902 0.24322-5.491 1.0367-8.8209 2.1927 2.0677-2.8441 3.7104-5.5776 4.6532-7.7963z"/>
   <path d="m-76.46-76.388c1.4268 2.8311 2.3126 6.1884 2.8102 11.808-2.0015 8.7128-7.5877 20.612-0.032043 26.425 0.035721 0.15158 0.072525 0.23874 0.10721 0.3436 0.26936 2.4196 0.60098 4.8378 1.0238 7.2358 0.74986 0.084686 1.5418 0.041077 2.3215-0.13843-0.48328-2.2211-0.87922-4.4738-1.2423-6.728 7.5721-8.4836 1.8363-18.636-0.1618-27.101 0.17935-5.7205 0.87355-9.1488 2.1542-12.043-1.1722 2.0971-2.3014 5.0921-3.2652 8.4826-1.143-3.3254-2.4393-6.2391-3.7156-8.2843z"/>
   <path d="m-100.15-9.0034c2.3182 2.8036 4.1653 6.3339 6.155 12.495-0.0177 10.258-3.2336 24.995 6.702 29.572 0.078506 0.16049 0.142 0.2486 0.20756 0.35709 0.91834 2.6384 1.906 5.2593 2.9904 7.8344 0.86056-0.096405 1.7354-0.34717 2.562-0.74683-1.107-2.3617-2.1244-4.7811-3.1055-7.2105 6.3086-11.422-2.6973-21.318-7.0912-30.279-1.258-6.4459-1.3554-10.458-0.66065-14.024-0.7767 2.6452-1.2765 6.2839-1.4902 10.323-2.1267-3.429-4.32-6.3584-6.2694-8.3211z"/>
   <path d="m-32.918 16.718c-2.2156 1.966-5.0056 3.5324-9.8742 5.2198-8.1069-0.015015-19.753-2.7423-23.37 5.6838-0.12685 0.06662-0.19646 0.12042-0.2822 0.17602-2.0851 0.77881-4.1563 1.6164-6.1914 2.5361 0.07621 0.72983 0.27434 1.4718 0.59018 2.1728 1.8664-0.93884 3.7784-1.8016 5.6983-2.6337 9.0268 5.3501 16.847-2.2875 23.929-6.0139 5.094-1.0669 8.2651-1.1495 11.082-0.56027-2.0904-0.65869-4.966-1.0826-8.158-1.2638 2.7098-1.8036 5.0249-3.6637 6.576-5.3169z"/>
   <path d="m-42.072-63.833c-5.1474 2.3375-10.275 4.7885-15.354 7.3172 0.12538 0.13043 0.27116 0.2587 0.40464 0.3857 4.9506-2.6228 9.9413-5.1776 14.949-7.7029z"/>
   <g fill="#00892c">
    <path d="m3.7532-58.15c-35.328 26.406-68.209 58.574-82.293 99.394-4.6809 12.25-7.8037 24.809-9.983 37.528 1.2151 0.59247 2.4433 1.1688 3.6894 1.709 5.5086-35.936 18.98-70.971 45.018-98.651 13.09-14.593 28.19-27.492 43.568-39.981h1e-5z" fill="#000" fill-rule="evenodd"/>
   </g>
   <path d="m-111.1 46.535c0.008995 0.25738 0.029594 0.48956 0.040398 0.73895 14.005 8.6458 20.014 29.586 23.961 48.077 1.2808 1.3229 0.9234 6.0993 0.18848 8.9704 1.2642 2.0833 2.5008 4.1896 3.6587 6.3427-0.8151 0.86282-1.8002 1.6226-2.8948 2.2129-1.1989-2.4704-2.4798-4.881-3.8025-7.2907-1.8137-0.32608-2.8842-2.0801-5.7086-4.5695-9.7833-16.729-20.34-37.276-15.637-53.735-0.092606-0.11102-0.17319-0.2102-0.26809-0.32269 0.10612 0.062408 0.20687 0.12878 0.31211 0.19247 0.058792-0.20175 0.086899-0.41598 0.15033-0.61649l-1e-4 1e-4zm0.0737 1.0694c0.41159 8.5992 2.4771 13.044 10.507 27.283-3.5633-15.935-4.9586-20.546-10.507-27.283z"/>
  </g>
 </g>
</svg>
