<?xml version="1.0" encoding="utf-8"?>
<!-- Generator: Adobe Illustrator 16.0.3, SVG Export Plug-In . SVG Version: 6.00 Build 0)  -->
<!DOCTYPE svg PUBLIC "-//W3C//DTD SVG 1.1//EN" "http://www.w3.org/Graphics/SVG/1.1/DTD/svg11.dtd">
<svg version="1.1" id="Layer_1" xmlns="http://www.w3.org/2000/svg" xmlns:xlink="http://www.w3.org/1999/xlink" x="0px" y="0px"
	 width="595.28px" height="396.85px" viewBox="0 0 595.28 396.85" enable-background="new 0 0 595.28 396.85" xml:space="preserve">
<path id="path3052" fill="#010101" d="M340.011,382.288c-3.774-1.473-7.587-5.45-8.474-8.838c-1.356-5.188-3.187-5.905-11.586-4.543
	c-10.666,1.731-14.875-2.535-11.41-11.564c1.511-3.938,2.572-4.089,6.405-0.908c3.578,2.97,5.814,3.051,10.113,0.365
	c3.883-2.424,7.793-2.583,13.181-0.534c12.735,4.842,13.729,0.226,3.077-14.287c-5.563-7.578-11.053-17.686-12.197-22.461
	c-1.145-4.774-3.335-10.276-4.868-12.226c-1.532-1.949-2.421-13.146-1.973-24.882c0.623-16.346-0.461-23.735-4.634-31.584
	c-3.699-6.955-5.451-16.355-5.458-29.271c-0.01-22.042,4.285-32.2,13.62-32.2c3.595,0,12.913-5.269,20.707-11.709
	c12.933-10.687,22.313-14.774,22.313-9.721c0,2.741-20.652,21.431-23.68,21.431c-1.349,0-2.83,12.736-3.291,28.303
	c-0.529,17.881-2.064,28.71-4.171,29.407c-2.361,0.782-2.894-4.362-1.826-17.659c0.828-10.32,0.2-21.096-1.396-23.948
	c-2.71-4.844-3.335-4.751-9.492,1.406c-5.456,5.456-6.339,8.834-5.125,19.604c1.739,15.43,12.081,28.568,19.307,24.524
	c3.457-1.936,6.149-0.272,10.812,6.678c3.414,5.091,7.157,12.548,8.317,16.573c6.536,22.661,13.408,52.047,13.438,57.465
	c0.028,4.966,2.795,6.934,13.563,9.646c15.561,3.918,17.492,3.099,12.904-5.476c-8.274-15.46-14.725-43.105-14.725-63.109
	c0-15.314-1.742-25.141-6.278-35.394c-5.771-13.046-6.009-15.925-2.95-35.601c3.849-24.752,9.099-36.379,19.761-43.761
	c4.174-2.89,10.099-7.559,13.165-10.376c8.396-7.714,10.53-6.354,12.117,7.729c0.976,8.652,4.578,16.747,11.026,24.77
	c8.28,10.304,9.363,13.519,7.992,23.738c-0.872,6.502-0.394,12.557,1.063,13.457s2.648-1.075,2.648-4.391
	c0-7.514,1.412-7.542,8.782-0.172c6.596,6.596,12.674,7.254,25.553,2.765c7.847-2.735,9.088-4.786,10.825-17.885
	c1.079-8.138,4.203-18.214,6.94-22.392c8.048-12.284,13.174-27.517,13.479-40.059c0.156-6.44,1.408-12.529,2.781-13.532
	c1.374-1.003,1.045-4.539-0.731-7.857s-3.229-9.352-3.229-13.407c0-9.798-5.517-21.462-11.374-24.049
	c-2.599-1.148-21.192-2.246-41.315-2.44c-35.532-0.343-37.056-0.624-52.689-9.694c-57.874-33.574-72.841-36.834-117.089-25.503
	c-27.03,6.921-33.561,7.587-54.154,5.52c-12.88-1.293-34.615-2.338-48.301-2.322c-21.198,0.024-27.141,1.189-40.151,7.872
	c-17.113,8.79-25.252,9.571-35.955,3.452c-4.025-2.301-12.851-4.23-19.612-4.287c-8.715-0.074-16.105-2.676-25.389-8.94
	c-7.201-4.86-17.914-10.851-23.807-13.313c-10.044-4.197-10.649-4.149-9.703,0.765c0.555,2.882,4.615,6.969,9.023,9.082
	c4.407,2.112,8.014,5.04,8.014,6.505c0,3.675-10.054,8.725-17.371,8.725c-14.312,0,1.133,15.598,20.595,20.8
	c11.106,2.968,15.73,2.854,26.371-0.648c11.357-3.739,13.839-3.722,20.726,0.144c7.104,3.988,8.354,3.912,13.589-0.825
	c9.07-8.208,10.405-0.659,2.186,12.361c-4.014,6.358-12.521,14.496-18.906,18.084l-11.608,6.524l-0.146,22.458
	c-0.188,28.747-8.713,49.146-26.874,64.308l-9.701,8.099l5.27,13.797c4.14,10.841,5.119,20.814,4.572,46.559
	c-0.851,39.99-0.842,40.08,3.964,40.08c5.124,0,16.609,12.377,16.609,17.897c0,5.821,5.868,11.374,12.021,11.374
	c3.516,0,4.552-1.695,3.499-5.722c-1.131-4.323,0.367-6.189,6.128-7.636c9.776-2.453,9.596-4.188-1.525-14.635
	c-11.948-11.227-19.978-28.963-20.058-44.313c-0.08-15.303,5.169-40.709,10.612-51.371c4.58-8.971,14.796-11.614,11.314-2.928
	c-10.339,25.789-13.803,64.649-6.933,77.766c1.843,3.516,7.813,11.385,13.269,17.485c5.456,6.101,10.689,14.94,11.63,19.645
	c0.941,4.704,2.544,8.274,3.563,7.935c3.368-1.123,3.469,5.119,0.208,12.99c-3.58,8.643-13.888,12.023-22.227,7.289
	c-2.972-1.687-10.671-3.785-17.11-4.663c-10.749-1.466-11.829-2.437-13.173-11.827c-1.214-8.479-3.467-11.168-13.173-15.713
	c-6.439-3.016-12.666-6.975-13.837-8.797c-1.17-1.823-1.315-14.039-0.324-27.147c1.444-19.077,0.73-26.817-3.573-38.786
	c-4.506-12.531-6.585-14.989-12.848-15.183c-4.109-0.128-5.496-0.882-3.081-1.678c9.376-3.089,17.563-7.979,17.563-10.492
	c0-1.446-2.585-1.81-5.744-0.807c-5.98,1.897-17.674-2.747-17.674-7.021c0-1.352,3.737-3.205,8.306-4.119
	c12.194-2.439,36.754-23.079,42.918-36.067c6.427-13.544,7.973-54.02,2.137-55.964c-5.133-1.711-4.454-6.565,0.918-6.565
	c2.482,0,6.105-1.396,8.05-3.101c1.944-1.706,7.816-5.638,13.049-8.739c16.105-9.544,12.234-12.645-13.173-10.548
	c-12.983,1.071-27.342,0.578-33.572-1.155C27.374,77.314,13.141,65.962,7.212,54.497c-6.96-13.458-5.751-15.415,8.154-13.193
	c9.958,1.591,11.711,1.256,8.782-1.675c-2.013-2.015-3.659-8.668-3.659-14.786c0-9.459,0.949-11.124,6.346-11.124
	c3.49,0,16.991,5.73,30.003,12.734c13.013,7.004,25.208,12.196,27.1,11.538c5.255-1.828,26.479,4.602,31.384,9.507
	c3.852,3.851,6.309,3.469,21.355-3.319c18.106-8.17,20.569-8.34,98.964-6.819c24.203,0.469,35.47-0.598,45.371-4.295
	c7.245-2.706,22.394-5.675,33.662-6.598c24.105-1.974,36.359,1.905,74.789,23.675c24.305,13.769,25.247,14.031,54.008,15.06
	c16.1,0.576,34.738,1.803,41.421,2.727c15.917,2.201,30.296,15.477,30.296,27.972c0,19.114,1.687,19.834,42.383,18.076
	c21.774-0.94,36.65-0.478,36.65,1.139c0,6.524-25.943,17.609-56.92,24.323c-11.211,2.429-27.702,17.488-27.889,25.466
	c-0.044,1.848-3.356,9.093-7.362,16.1c-4.847,8.479-7.294,17.27-7.317,26.285c-0.019,7.45-1.698,14.926-3.73,16.612
	c-2.031,1.687-12.13,5.015-22.44,7.397c-14.483,3.346-20.134,3.563-24.846,0.951c-13.999-7.758-16.345-11.398-16.345-25.376
	c0-9.782-2.645-18.765-9.133-31.014c-5.022-9.484-9.547-17.706-10.053-18.271s-5.511,2.474-11.121,6.754
	c-9.001,6.865-10.604,10.17-13.626,28.083c-3.704,21.961-1.802,41.182,5.123,51.75c3.203,4.889,3.849,10.726,2.435,22.037
	c-2.615,20.932,2.693,44.107,14.86,64.88c15.125,25.82,15.521,31.472,2.691,38.381c-12.612,6.792-19.896,3.812-22.166-9.072
	c-1.145-6.492-3.479-8.761-10.5-10.196c-13.059-2.671-15.218-4.7-13.661-12.842c1.693-8.855-6.908-49.016-13.519-63.119
	c-3.128-6.674-6.836-10.246-10.634-10.246c-5.065,0-5.948,2.273-6.724,17.303c-0.49,9.517,0.391,20.713,1.957,24.883
	c1.567,4.168,3.66,11.279,4.65,15.802c0.991,4.522,6.837,13.743,12.992,20.491c8.069,8.846,11.638,15.737,12.794,24.707
	c0.883,6.842,0.742,12.917-0.313,13.5C357.729,383.832,346.025,384.633,340.011,382.288L340.011,382.288z M531.507,131.161
	c-0.875-1.416-4.147-3.243-7.271-4.06c-3.996-1.045-5.219-0.282-4.123,2.574c0.856,2.233,4.129,4.06,7.271,4.06
	S532.382,132.577,531.507,131.161z M308.948,346.871c-0.715-2.114-2.755-9.529-4.535-16.477
	c-4.6-17.958-17.524-36.002-24.603-34.348c-7.021,1.64-16.358-3.17-16.358-8.428c0-2.187-1.976-4.732-4.391-5.66
	c-6.65-2.551-5.254-7.098,2.195-7.149c3.623-0.025,9.17-0.494,12.328-1.042c3.777-0.654,6.134,0.909,6.887,4.568
	c0.629,3.061,4.796,8.638,9.261,12.395c13.679,11.51,30.819,53.617,23.634,58.058C311.65,349.848,309.662,348.985,308.948,346.871
	L308.948,346.871z M211.79,335.457c-19.182-2.5-21.52-4.068-21.52-14.455c0-5.178-2.051-9.603-5.242-11.311
	c-2.883-1.543-9.594-11.467-14.913-22.053c-5.626-11.195-15.039-23.971-22.501-30.54c-11.516-10.137-13.677-15.062-6.608-15.062
	c9.317,0,43.41,45.656,43.41,58.135c0,1.723,2.963,4.692,6.586,6.6c8.15,4.293,11.325,8.792,9.574,13.569
	c-0.737,2.013-0.064,3.659,1.495,3.659c1.559,0,2.835-1.91,2.835-4.245s2.305-5.538,5.123-7.118
	c4.71-2.641,4.512-3.536-2.457-11.122c-25.376-27.626-42.846-78.884-31.206-91.565c2.012-2.193-0.45-1.172-5.473,2.269
	c-5.021,3.44-12.596,7.573-16.831,9.183c-4.235,1.61-7.7,4.372-7.7,6.137c0,3.976-7.361,11.572-11.214,11.572
	c-1.681,0-1.215-5.432,1.136-13.242c5.734-19.055,3.021-23.854-8.166-14.443c-10.759,9.054-15.419,7.991-15.419-3.516
	c0-7.433-0.953-8.507-6.587-7.43c-8.066,1.543-8.692-3.944-0.924-8.102c9.451-5.059,17.756-3.738,17.756,2.824
	c0,7.445,4.364,7.508,9.526,0.138c3.286-4.692,16.211-11.847,21.4-11.847c2.793,0,1.048,15.079-2.386,20.619
	c-3.016,4.866-2.888,6.395,0.731,8.697c6.359,4.044,8.172,3.561,10.162-2.711c0.977-3.076,4.903-7.641,8.725-10.146
	c3.822-2.505,7.808-8.459,8.856-13.232c1.8-8.194,9.021-17.204,11.668-14.557c0.668,0.668,1.847,4.701,2.619,8.962
	c2.703,14.906,10.586,19.197,37.375,20.346c21.419,0.919,24.541,0.418,25.411-4.075c0.581-3.001-0.785-5.123-3.3-5.123
	c-4.008,0-7.846-5.829-7.846-11.914c0-5.346,13.316-1.052,18.103,5.837c4.47,6.433,4.997,13.071,2.842,35.733
	c-0.25,2.627-4.656,8.884-9.791,13.904c-9.744,9.527-9.434,10.104,4.946,9.193c6.293-0.399,7.904,0.348,5.686,2.639
	c-3.988,4.117-25.999,5.538-26.151,1.688c-0.063-1.61-1.161-4.574-2.438-6.587c-1.49-2.346-0.714-3.658,2.165-3.658
	c5.04,0,13.42-14.297,13.42-22.896c0-8.01-23.253-10.835-42.212-5.129c-13.316,4.008-14.129,3.933-15.533-1.437
	c-3.971-15.184-16.908,6.663-14.515,24.511c1.982,14.778,16.739,43.9,29.95,59.104c5.596,6.439,10.991,14.344,11.99,17.563
	c0.998,3.22,4.183,9.219,7.077,13.331c4.896,6.959,4.921,7.676,0.348,10.369c-2.786,1.641-11.441,2.043-19.985,0.93L211.79,335.457z
	 M254.671,262.527c0-1.61,1.543-2.928,3.429-2.928s5.846-2.188,8.8-4.86c7.275-6.585,10.544-2.513,3.888,4.843
	C265.259,265.689,254.671,267.625,254.671,262.527z M238.771,179.826c-1.262-2.821-1.256-8.749,0.013-13.172
	c2.17-7.564,2.375-7.651,3.446-1.457c0.626,3.623,0.621,9.55-0.013,13.172C241.205,184.152,240.785,184.33,238.771,179.826z
	 M227.169,172.278c-2.257-3.651,1.127-20.623,4.531-22.727c1.495-0.924,1.786,3.81,0.679,11.038
	C230.177,174.951,229.609,176.226,227.169,172.278L227.169,172.278z M440.76,164.255c-5.842-5.842-5.843-12.813-0.006-21.147
	l4.595-6.56l8.578,6.108c8.389,5.974,10.372,12.263,6.801,21.569C458.442,170.179,446.701,170.197,440.76,164.255L440.76,164.255z
	 M214.17,154.938c0.537-1.215,3.46-8.46,6.496-16.1c3.036-7.64,6.769-13.891,8.294-13.891s2.276,0.988,1.67,2.195
	s-3.962,8.453-7.457,16.1c-3.496,7.647-7.171,13.904-8.167,13.904C214.009,157.146,213.633,156.152,214.17,154.938L214.17,154.938z
	 M209.465,124.216c3.613-11.713,10.982-24.245,12.179-20.709c1.201,3.554-9.766,27.295-12.609,27.295
	C208.153,130.802,208.348,127.838,209.465,124.216L209.465,124.216z M409.817,125.74c-5.629-0.699-11.557-2.308-13.173-3.577
	s-7.872-3.195-13.901-4.282c-21.715-3.913-43.142-36.842-23.972-36.842c8.769,0,17.636,4.16,26.943,12.641
	c6.215,5.662,7.638,5.804,21.954,2.192c19.949-5.033,41.927-5.487,46.453-0.959c5.486,5.486,0.757,7.802-8.364,4.096
	c-6.294-2.557-11.704-2.356-23.815,0.884c-8.619,2.306-16.396,4.918-17.281,5.803c-2.796,2.796,19.142,10.469,29.93,10.469
	c11.025,0,13.661,3.775,5.217,7.469c-6.706,2.933-17.321,3.678-29.993,2.105H409.817z"/>
</svg>
