<?xml version="1.0" encoding="utf-8"?>
<!-- Generator: Adobe Illustrator 23.0.0, SVG Export Plug-In . SVG Version: 6.00 Build 0)  -->
<svg version="1.1" id="Layer_1" xmlns="http://www.w3.org/2000/svg" xmlns:xlink="http://www.w3.org/1999/xlink" x="0px" y="0px"
	 viewBox="0 0 256 256" style="enable-background:new 0 0 256 256;" xml:space="preserve">
<path style="fill:#E8E7E7;" d="M67.7,146.1c2.8,5.9,6.9,10.9,12,14.9c7.2,5.7,17.8,16.5,17.8,40.5L97.1,222h15.4
	c0,0-9.2-51.5,32.9-53.5c48.2-2.3,45.1,53.5,45.1,53.5h13.3c0,0,15.4-33.9,13.1-71.2c-1.8-28.9-11.8-41.1-36.6-45
	c-10.7-1.7-21.6-1.4-32.3,0.6c0,0-32.6,5.1-51.6-9.9s-24-28-40-27s-20,14-24,21s-10,11-9,16c0,0,1,9,9,9c0,0,3,6,9,3
	c0,0,6.9-11.7,13-9C62,112.8,59.1,127.9,67.7,146.1z"/>
<path style="opacity:0.2;fill:#FFFFFF;" d="M26.5,109.5l12-15c0,0,3-17,18-19s11.1-4,11.1-4l-13.1-2l-7.9,2.7l-6.1,4.3l-3.7,6
	l-4.3,8l-10,13l1,4L26.5,109.5z"/>
<path style="display:none;fill:#FFD060;" d="M91.4,143.4c8.4,12,5.7,25.7,5.7,37.8V222h15.4c0,0-4.9-62.1,37.2-64.1
	c48.2-2.3,40.8,64.1,40.8,64.1h13.3c0,0,15.4-33.9,13.1-71.2c-1.8-28.9-11.8-41.1-36.6-45c-10.7-1.7-21.6-1.4-32.3,0.6l-10.7,2"/>
<path style="opacity:0.1;" d="M166,172c0,0,32.7-33,20-65.1l14.8,6.2l11.6,14.7l4.8,27.6L216,177l-3.9,20.2l-8.3,24.8h-13.3
	l0.3-14.1L186,191l-9-10L166,172z"/>
<path style="fill:none;stroke:#4C4C4C;stroke-width:5;stroke-linecap:round;stroke-linejoin:round;stroke-miterlimit:10;" d="
	M67.7,146.1c2.8,5.9,6.9,10.9,12,14.9c7.2,5.7,17.8,16.5,17.8,40.5L97.1,222h15.4c0,0-9.2-51.5,32.9-53.5
	c48.2-2.3,45.1,53.5,45.1,53.5h13.3c0,0,15.4-33.9,13.1-71.2c-1.8-28.9-11.8-41.1-36.6-45c-10.7-1.7-21.6-1.4-32.3,0.6
	c0,0-32.6,5.1-51.6-9.9s-24-28-40-27s-20,14-24,21s-10,11-9,16c0,0,1,9,9,9c0,0,3,6,9,3c0,0,6.9-11.7,13-9
	C62,112.8,59.1,127.9,67.7,146.1z"/>
<path style="fill:none;stroke:#4C4C4C;stroke-width:5;stroke-linecap:round;stroke-linejoin:round;stroke-miterlimit:10;" d="
	M206,117.4c0,0,16.9,15.6,21.5,47.5"/>
<path style="fill:none;stroke:#4C4C4C;stroke-width:5;stroke-linecap:round;stroke-linejoin:round;stroke-miterlimit:10;" d="
	M50.5,70.6c0,0,10-33.1,47-12.1"/>
<path style="fill:none;stroke:#4C4C4C;stroke-width:5;stroke-linecap:round;stroke-linejoin:round;stroke-miterlimit:10;" d="
	M56.5,69.5c0,0,11-23,38-6"/>
<path style="fill:#E8E7E7;stroke:#4C4C4C;stroke-width:5;stroke-linecap:round;stroke-linejoin:round;stroke-miterlimit:10;" d="
	M65.5,76.5c0,0,16-9,19-1c2,9-17,9-17,9"/>
<path style="fill:none;stroke:#4C4C4C;stroke-width:5;stroke-linecap:round;stroke-linejoin:round;stroke-miterlimit:10;" d="
	M32,115c0,0,3,0,8-10"/>
<circle style="fill:#4C4C4C;" cx="50.5" cy="84.5" r="3.5"/>
</svg>
