<?xml version="1.0" encoding="utf-8"?>
<!-- Generator: Adobe Illustrator 17.0.0, SVG Export Plug-In . SVG Version: 6.00 Build 0)  -->
<!DOCTYPE svg PUBLIC "-//W3C//DTD SVG 1.1//EN" "http://www.w3.org/Graphics/SVG/1.1/DTD/svg11.dtd" [
	<!ENTITY ns_flows "http://ns.adobe.com/Flows/1.0/">
	<!ENTITY ns_extend "http://ns.adobe.com/Extensibility/1.0/">
	<!ENTITY ns_ai "http://ns.adobe.com/AdobeIllustrator/10.0/">
	<!ENTITY ns_graphs "http://ns.adobe.com/Graphs/1.0/">
]>
<svg version="1.1" id="Layer_1" xmlns:x="&ns_extend;" xmlns:i="&ns_ai;" xmlns:graph="&ns_graphs;"
	 xmlns="http://www.w3.org/2000/svg" xmlns:xlink="http://www.w3.org/1999/xlink" xmlns:a="http://ns.adobe.com/AdobeSVGViewerExtensions/3.0/"
	 x="0px" y="0px" width="256px" height="256px" viewBox="0 0 256 256" style="enable-background:new 0 0 256 256;"
	 xml:space="preserve">
<g transform="translate(110.84 251.21)">
	<path style="fill:none;stroke:#000000;stroke-width:3;stroke-miterlimit:10;" d="M-74.9-88.4h184.1l-63.9-44.3h-56.4L-74.9-88.4
		L-74.9-88.4z"/>
	<path style="fill:none;stroke:#000000;stroke-width:3;stroke-miterlimit:10;" d="M-18.7-104H-27l12.5-13.6H-9L-18.7-104L-18.7-104z
		"/>
	<path style="fill:none;stroke:#000000;stroke-width:3;stroke-miterlimit:10;" d="M-27.3-134.6l-83.4,40.2l35.9,0.1v-0.1v5.9
		l63.5-44.1l0-2L-27.3-134.6z"/>
	<path style="fill:none;stroke:#000000;stroke-width:3;stroke-miterlimit:10;" d="M-75-94.1l63.7-40.3"/>
	<path style="fill:none;stroke:#000000;stroke-width:3;stroke-miterlimit:10;" d="M61.4-134.6l83.4,40.2c-12-0.1-23.9,0.2-35.9,0
		v5.9l-63.5-44.1l0-2L61.4-134.6z"/>
	<path style="fill:none;stroke:#000000;stroke-width:3;stroke-miterlimit:10;" d="M109.1-94.2l-63.7-40.3"/>
	<path style="fill:none;stroke:#000000;stroke-width:3;stroke-miterlimit:10;" d="M20.5-104h8.4l-3.7-13.7h-5.4L20.5-104z"/>
	<path style="fill:none;stroke:#000000;stroke-width:3;stroke-miterlimit:10;" d="M36.4-104h8.3l-7.9-13.6h-5.6L36.4-104z"/>
	<path style="fill:none;stroke:#000000;stroke-width:3;stroke-miterlimit:10;" d="M52.2-104h8.3L48-117.6h-5.5L52.2-104L52.2-104z"
		/>
	<path style="fill:none;stroke:#000000;stroke-width:3;stroke-miterlimit:10;" d="M68.1-104h8.3l-16.8-13.5H54L68.1-104L68.1-104z"
		/>
	<path style="fill:none;stroke:#000000;stroke-width:3;stroke-miterlimit:10;" d="M13-104H4.6l3.7-13.7h5.4L13-104z"/>
	<path style="fill:none;stroke:#000000;stroke-width:3;stroke-miterlimit:10;" d="M-2.9-104h-8.3l7.9-13.6h5.6L-2.9-104z"/>
	<path style="fill:none;stroke:#000000;stroke-width:3;stroke-miterlimit:10;" d="M-34.6-104h-8.3l16.8-13.5h5.6L-34.6-104
		L-34.6-104z"/>
</g>
<g transform="matrix(.51334 0 0 .51334 649.62 455.45)">
	<path style="fill:none;stroke:#000000;stroke-width:3;stroke-miterlimit:10;" d="M-1118.7-693.5c0,2.3-1.9,4.2-4.2,4.2
		c-2.3,0-4.2-1.9-4.2-4.2c0-2.3,1.9-4.2,4.2-4.2C-1120.6-697.8-1118.7-695.9-1118.7-693.5z"/>
	<path style="fill:none;stroke:#000000;stroke-width:3;stroke-miterlimit:10;" d="M-1124.8-689.9v0.9h0.1c0,0.1,0,0.1,0,0.2
		c0,0.2,0.1,0.2,0.3,0.4c0.1,0.1,0.3,0.2,0.4,0.2v30.7l-0.6,4.1v20.6h3.4v-20.6l-0.6-4.1v-30.7c0.1,0,0.2-0.1,0.3-0.1
		c0.2-0.2,0.3-0.2,0.3-0.4c0-0.1,0-0.1,0-0.2h0.2v-0.9C-1120.9-689.9-1124.8-689.9-1124.8-689.9z"/>
	<path style="fill:none;stroke:#000000;stroke-width:3;stroke-miterlimit:10;" d="M-1123.8-665.7h2v8.1h-2V-665.7z"/>
	<path style="fill:none;stroke:#000000;stroke-width:3;stroke-miterlimit:10;" d="M-1124.3-649.2h3.1v8.1h-3.1V-649.2z"/>
	<path style="fill:none;stroke:#000000;stroke-width:3;stroke-miterlimit:10;" d="M-1123.8-682.1h2v8.1h-2V-682.1z"/>
</g>
<path style="fill:none;stroke:#000000;stroke-width:3;stroke-miterlimit:10;" d="M30.1,156.9l68.6-40.2"/>
<path style="fill:none;stroke:#000000;stroke-width:3;stroke-miterlimit:10;" d="M225.9,156.9l-68.6-40.2"/>
<g transform="matrix(.78415 0 0 .78415 2029.6 629.15)">
	<path style="fill:none;stroke:#000000;stroke-width:3;stroke-miterlimit:10;" d="M-2320.8-679c0,2.3-1.9,4.2-4.2,4.2
		s-4.2-1.9-4.2-4.2c0-2.3,1.9-4.2,4.2-4.2C-2322.6-683.3-2320.8-681.4-2320.8-679z"/>
	<path style="fill:none;stroke:#000000;stroke-width:3;stroke-miterlimit:10;" d="M-2326.9-675.4v0.9h0.1c0,0.1,0,0.1,0,0.2
		c0,0.2,0.1,0.2,0.3,0.4c0.1,0.1,0.3,0.2,0.4,0.2v30.7l-0.6,4.1v20.6h3.4V-639l-0.6-4.1v-30.7c0.1,0,0.2-0.1,0.3-0.1
		c0.2-0.2,0.3-0.2,0.3-0.4c0-0.1,0-0.1,0-0.2h0.2v-0.9C-2323-675.4-2326.9-675.4-2326.9-675.4z"/>
	<path style="fill:none;stroke:#000000;stroke-width:3;stroke-miterlimit:10;" d="M-2325.8-651.1h2v8.1h-2V-651.1z"/>
	<path style="fill:none;stroke:#000000;stroke-width:3;stroke-miterlimit:10;" d="M-2326.4-634.7h3.1v8.1h-3.1V-634.7z"/>
	<path style="fill:none;stroke:#000000;stroke-width:3;stroke-miterlimit:10;" d="M-2325.8-667.6h2v8.1h-2V-667.6z"/>
</g>
</svg>
