<?xml version="1.0" encoding="utf-8"?>
<!-- Generator: Adobe Illustrator 17.0.0, SVG Export Plug-In . SVG Version: 6.00 Build 0)  -->
<!DOCTYPE svg PUBLIC "-//W3C//DTD SVG 1.1//EN" "http://www.w3.org/Graphics/SVG/1.1/DTD/svg11.dtd" [
	<!ENTITY ns_flows "http://ns.adobe.com/Flows/1.0/">
	<!ENTITY ns_extend "http://ns.adobe.com/Extensibility/1.0/">
	<!ENTITY ns_ai "http://ns.adobe.com/AdobeIllustrator/10.0/">
	<!ENTITY ns_graphs "http://ns.adobe.com/Graphs/1.0/">
]>
<svg version="1.1" id="Layer_2_1_" xmlns:x="&ns_extend;" xmlns:i="&ns_ai;" xmlns:graph="&ns_graphs;"
	 xmlns="http://www.w3.org/2000/svg" xmlns:xlink="http://www.w3.org/1999/xlink" xmlns:a="http://ns.adobe.com/AdobeSVGViewerExtensions/3.0/"
	 x="0px" y="0px" width="256px" height="256px" viewBox="0 0 256 256" style="enable-background:new 0 0 256 256;"
	 xml:space="preserve">
<path style="fill:none;stroke:#000000;stroke-width:3;stroke-miterlimit:10;" d="M256,123c-1,0.9-3.4,1.3-2.9,0.3
	c-2,0.6-3.2,0.2-4-1.3c0,1.3-0.4,1-1.7-0.8c0.1,1.1-0.6,0.6-2.3-1.1c0,0.8-0.2,1.2-0.3,0.5c-0.8,0.8-1.4,0.7-2.2-0.3
	c-0.1,1.5-1,1.4-2.7-0.1c-0.4,1.5-1.8,1.2-3.7-0.5c-0.6,1.2-1.2,0.9-1.5-0.4c-1.1,0.8-1.8,0.4-2-0.8c-1.5,1-2.3,1.2-2.3,0.4
	c-1.7,1.2-2.5,1.3-2.2,0.1c-1.5,1.5-2.6,1.4-3.4-0.3c-0.9,1.7-1.4,1.8-1.5,0.2c-2.3,1.1-3.2,1-3.5-0.3c-0.9,1.3-1.5,1.1-2-0.4
	c-0.6,1.1-1,0.9-1.3-0.2c-0.6,1.2-1.1,1.5-1.5,0.3c-0.3,0.8-0.5,1.3-0.7,1.4c-0.1,0-0.2,0-0.2,0c-0.1-0.1-0.3-0.4-0.4-0.8
	c-0.1,0.2-0.2,0.3-0.3,0.4c0-0.1,0.2-0.3,0.4-0.5c-1.9,0.7-2,0.2-1.2-1.2c-1.2,0.5-1.2,0.1-0.4-1c-1.6,0.9-2.3,1.1-1.9,0.3
	c-1.8,1.2-2.4,1.5-1.5,0.5c-2.2,0.6-2.9,0.4-2.7-0.7c-2,0.6-2.9,0.4-3.3-0.6c-0.9,0.9-1.2,0.7-1-0.4c-0.6,0.6-0.7,0.2-0.5-0.7
	c-1.2,0.7-1.8,0.3-2.3-1c-0.3,0.8-0.7,1.1-0.6,0.8c-0.9,0.7-1.3,0.8-1.3,0c-1.2,0.9-2.2,0.8-3.4-0.5c-0.9,1-1.1,1-0.7-0.1
	c-2,0.8-3.1,0.6-4.1-0.8c0.2,1.2-0.2,1.1-1.7-0.5c0.2,1.1-0.6,0.7-2.4-0.8c0.1,0.8-0.1,1.2-0.2,0.6c-0.6,0.9-1.3,0.9-2.2-0.1
	c0.1,1.5-0.9,1.6-2.7,0.2c-0.2,1.5-1.6,1.4-3.8-0.1c-0.5,1.2-1,1.1-1.5-0.2c-1,0.9-1.8,0.6-2.1-0.5c-1.4,1.2-2.1,1.5-2.2,0.6
	c-1.6,1.4-2.3,1.6-2.2,0.4c-1.3,1.7-2.4,1.7-3.4,0.1c-0.7,1.8-1.2,2-1.4,0.4c-2.1,1.4-3.1,1.4-3.6,0.1c-0.7,1.4-1.3,1.2-2.1-0.1
	c-0.4,1.1-0.9,1-1.4-0.1c-0.5,1.3-0.9,1.6-1.5,0.5c-0.4,1.7-0.7,2.1-1.2,0.8c-0.9,1.7-1.7,2-2.5,1c-1.2,1.4-2.2,1.5-3.7,0.3
	c0.1,1.2-0.1,1.3-0.9,0.3c0,0.8-0.4,0.5-1.2-0.4c0.1,0.8-0.1,1-0.8,0.5c-0.1,0.5-0.6,0.2-1.5-0.4c0.3,0.9,0.3,1.4-0.4,1.1
	c0,0.2,0,0.3,0,0.4c-0.1-0.2-0.1-0.4,0-0.6c-0.7,0.3-0.7-0.2-0.4-1.1c-0.9,0.6-1.4,0.8-1.5,0.3c-0.7,0.5-0.9,0.3-0.7-0.5
	c-0.8,0.9-1.3,1.1-1.2,0.3c-0.8,1-1.1,0.8-0.9-0.3c-1.7,1.1-2.6,0.9-3.7-0.6c-0.9,0.9-1.6,0.6-2.4-1.1c-0.6,1.3-0.9,0.9-1.2-0.8
	c-0.6,1-1,0.7-1.4-0.6c-0.6,1-1,1.1-1.4,0c-0.8,1.3-1.5,1.4-2,0c-0.6,1.3-1.6,1.2-3.5-0.3c-0.4,1.6-0.8,1.4-1.4-0.4
	c-1.1,1.5-2.1,1.5-3.4-0.3c0.1,1.2-0.7,0.9-2.1-0.6c-0.1,0.9-0.9,0.5-2.1-0.8c-0.4,1.1-1.2,1.3-2.1,0.4c-0.5,1.3-1.1,1.4-1.5,0.1
	c-2.2,1.3-3.7,1.3-3.8-0.2c-2,1.2-2.9,1.1-2.7-0.4c-1,0.9-1.6,0.9-2.2-0.1c-0.2,0.6-0.3,0.2-0.2-0.6c-1.9,1.4-2.7,1.7-2.4,0.6
	c-1.6,1.5-2,1.7-1.8,0.4c-1.1,1.3-2.3,1.5-4.2,0.5c0.3,1.1,0.1,1.1-0.7,0c-1.2,1.1-2.2,1.2-3.4,0.2c0,0.8-0.5,0.7-1.3-0.1
	c0,0.3-0.3,0-0.6-0.8c-0.6,1.3-1.1,1.7-2.3,0.9c0.2,1,0.1,1.3-0.5,0.7c0.1,1.2-0.2,1.3-1,0.3c-0.4,1-1.3,1.1-3.3,0.4
	c0.1,1.1-0.6,1.3-2.8,0.5c0.9,1,0.3,0.8-1.4-0.6c0.4,0.8-0.4,0.5-1.9-0.5c0.7,1.1,0.6,1.5-0.5,0.9c0.8,1.5,0.6,1.9-1.2,1.1
	c0.8,0.9,0.2,1.1-1.9,0.7c0,0,0-0.1,0-0.1c0,0-0.1,0.1-0.1,0.1c-0.2,0-0.4-0.1-0.6-0.1c0.1,0.1,0.2,0.2,0.3,0.3
	c-0.6,0.5-1,0.6-1.1,0.2c-0.6,0.6-0.9,0.4-0.8-0.4c-0.7,1-1.2,1.3-1.2,0.5c-0.7,1-0.9,0.9-0.9-0.2c-1.5,1.3-2.5,1.2-3.8-0.1
	c-0.8,1-1.6,0.8-2.5-0.9c-0.5,1.3-0.8,1-1.3-0.7c-0.5,1.1-1,0.8-1.5-0.5c-0.4,1.1-0.9,1.2-1.4,0.1c-0.7,1.4-1.3,1.6-2,0.2
	c-0.4,1.3-1.4,1.4-3.6,0.1c-0.2,1.6-0.6,1.5-1.5-0.3c-0.9,1.6-2,1.7-3.4,0.1c0.2,1.2-0.6,1-2.2-0.3c0,0.9-0.8,0.6-2.2-0.5
	c-0.3,1.1-1,1.5-2,0.6c-0.4,1.3-1,1.5-1.5,0.3c-2,1.6-3.5,1.7-3.8,0.2c-1.8,1.4-2.8,1.4-2.7-0.1c-0.8,1-1.5,1.1-2.2,0.2
	c-0.2,0.6-0.3,0.3-0.3-0.6c-1.8,1.6-2.5,2-2.4,0.9c-1.4,1.7-1.8,1.9-1.7,0.6c-1,1.5-2.1,1.8-4.1,1c0.5,1.1,0.3,1.1-0.7,0.1
	c-1.1,1.3-2.1,1.4-3.3,0.6c0.1,0.7-0.4,0.7-1.3,0c0,0.3-0.3,0-0.7-0.7c-0.4,1.4-0.9,1.8-2.2,1.1c0.3,0.9,0.2,1.3-0.4,0.7
	c0.3,1.1,0,1.3-1,0.5c-0.3,1.1-1.2,1.3-3.2,0.8c0.3,1.1-0.5,1.3-2.7,0.8c1,0.9,0.4,0.7-1.5-0.4c0.4,0.8-1,0.2-2.6-0.6 M69.6,114.7
	c0.1,0.2,0.1,0.3,0,0.4C69.6,115,69.6,114.9,69.6,114.7z"/>
<path style="fill:none;stroke:#000000;stroke-width:3;stroke-miterlimit:10;" d="M255.5,134.1c-0.9,0.6-1.4,0.6-1.3-0.1
	c-1.3,0.7-2.3,0.5-3.2-0.8c-1,0.9-1.2,0.9-0.6-0.1c-2,0.6-3.1,0.2-3.9-1.3c0,1.2-0.4,1-1.6-0.7c0.1,1.1-0.6,0.6-2.2-1.1
	c0,0.8-0.2,1.1-0.3,0.5c-0.8,0.8-1.4,0.7-2.1-0.3c-0.1,1.5-1,1.4-2.7-0.1c-0.4,1.4-1.8,1.2-3.7-0.5c-0.6,1.1-1.1,0.9-1.4-0.4
	c-1.1,0.8-1.8,0.4-2-0.7c-1.5,1-2.3,1.2-2.2,0.3c-1.7,1.2-2.4,1.3-2.2,0.1c-1.5,1.5-2.5,1.3-3.3-0.3c-0.9,1.6-1.4,1.8-1.5,0.2
	c-2.2,1.1-3.2,1-3.5-0.3c-0.9,1.3-1.4,1-2-0.4c-0.6,1-1,0.9-1.3-0.2c-0.6,1.2-1.1,1.4-1.5,0.3c-0.3,0.8-0.5,1.2-0.7,1.4
	c-0.1,0-0.2,0-0.2,0c-0.1-0.1-0.3-0.4-0.4-0.8c-0.1,0.1-0.2,0.3-0.3,0.4c0-0.1,0.2-0.3,0.3-0.5c-1.9,0.6-2,0.2-1.1-1.1
	c-1.1,0.5-1.1,0.1-0.4-0.9c-1.5,0.9-2.3,1.1-1.9,0.3c-1.8,1.2-2.4,1.4-1.5,0.5c-2.2,0.6-2.9,0.4-2.7-0.7c-2,0.6-2.9,0.4-3.2-0.6
	c-0.9,0.9-1.2,0.7-1-0.4c-0.6,0.6-0.7,0.2-0.5-0.7c-1.2,0.7-1.7,0.3-2.2-1c-0.3,0.7-0.6,1.1-0.6,0.8c-0.8,0.7-1.3,0.8-1.3,0
	c-1.2,0.9-2.2,0.8-3.3-0.4c-0.9,1-1.1,1-0.7-0.1c-1.9,0.8-3.1,0.5-4.1-0.8c0.2,1.2-0.2,1-1.7-0.5c0.2,1-0.6,0.7-2.4-0.8
	c0.1,0.8-0.1,1.1-0.2,0.6c-0.6,0.9-1.3,0.9-2.2-0.1c0.1,1.5-0.8,1.5-2.7,0.2c-0.2,1.5-1.6,1.4-3.7-0.1c-0.5,1.2-1,1-1.5-0.2
	c-1,0.9-1.7,0.6-2-0.5c-1.3,1.1-2.1,1.5-2.2,0.6c-1.5,1.3-2.3,1.6-2.1,0.4c-1.3,1.6-2.3,1.6-3.3,0.1c-0.7,1.7-1.1,1.9-1.4,0.3
	c-2.1,1.4-3,1.4-3.5,0.1c-0.7,1.4-1.3,1.2-2-0.1c-0.4,1.1-0.9,1-1.3-0.1c-0.4,1.3-0.9,1.5-1.4,0.5c-0.4,1.7-0.7,2-1.2,0.7
	c-0.9,1.6-1.7,1.9-2.4,1c-1.2,1.4-2.1,1.5-3.7,0.3c0.1,1.1-0.1,1.2-0.9,0.3c0,0.8-0.4,0.5-1.2-0.4c0.1,0.8-0.1,1-0.8,0.4
	c-0.1,0.5-0.6,0.2-1.5-0.4c0.3,0.9,0.3,1.3-0.4,1c0,0.1,0,0.3,0,0.4c-0.1-0.2-0.1-0.4,0-0.6c-0.7,0.2-0.7-0.2-0.3-1.1
	c-0.9,0.6-1.4,0.8-1.5,0.3c-0.7,0.5-0.9,0.3-0.7-0.5c-0.8,0.8-1.3,1.1-1.2,0.3c-0.8,0.9-1,0.8-0.8-0.3c-1.6,1.1-2.6,0.9-3.7-0.5
	c-0.9,0.9-1.6,0.5-2.4-1.1c-0.6,1.2-0.9,0.9-1.2-0.8c-0.6,1-1,0.7-1.4-0.6c-0.6,1-1,1.1-1.3,0c-0.8,1.3-1.4,1.4-2,0
	c-0.6,1.2-1.5,1.2-3.5-0.3c-0.4,1.6-0.8,1.3-1.4-0.4c-1.1,1.5-2.1,1.4-3.3-0.3c0.1,1.2-0.6,0.9-2.1-0.5c-0.1,0.9-0.8,0.5-2.1-0.8
	c-0.4,1.1-1.2,1.3-2.1,0.3c-0.5,1.3-1.1,1.4-1.5,0.1c-2.2,1.3-3.6,1.3-3.7-0.2c-1.9,1.2-2.9,1.1-2.7-0.4c-0.9,0.9-1.6,0.9-2.2-0.1
	c-0.2,0.6-0.3,0.2-0.2-0.6c-1.9,1.3-2.6,1.7-2.4,0.6c-1.6,1.5-2,1.6-1.7,0.4c-1.1,1.3-2.3,1.5-4.1,0.5c0.3,1.1,0.1,1.1-0.7,0
	c-1.2,1.1-2.2,1.2-3.3,0.2c0,0.7-0.5,0.7-1.3-0.1c0,0.3-0.3,0-0.6-0.8c-0.6,1.3-1.1,1.6-2.3,0.9c0.2,0.9,0.1,1.3-0.5,0.7
	c0.1,1.1-0.2,1.3-1,0.3c-0.4,1-1.3,1.1-3.2,0.4c0.1,1.1-0.6,1.2-2.7,0.5c0.8,1,0.3,0.7-1.4-0.6c0.4,0.8-0.4,0.5-1.8-0.5
	c0.7,1.1,0.6,1.5-0.5,0.9c0.8,1.4,0.6,1.8-1.2,1.1c0.8,0.9,0.2,1.1-1.9,0.7c0,0,0-0.1,0-0.1c0,0-0.1,0.1-0.1,0.1
	c-0.2,0-0.4-0.1-0.6-0.1c0.1,0.1,0.2,0.2,0.3,0.3c-0.6,0.5-1,0.6-1.1,0.2c-0.6,0.6-0.9,0.4-0.8-0.4c-0.7,0.9-1.1,1.2-1.1,0.5
	c-0.7,1-0.9,0.9-0.9-0.2c-1.5,1.2-2.5,1.2-3.7-0.1c-0.7,1-1.5,0.7-2.5-0.8c-0.5,1.3-0.8,1-1.3-0.7c-0.5,1-0.9,0.8-1.5-0.4
	c-0.4,1.1-0.9,1.2-1.3,0.1c-0.6,1.4-1.3,1.5-2,0.2c-0.4,1.3-1.4,1.3-3.5,0.1c-0.2,1.6-0.6,1.4-1.4-0.3c-0.9,1.6-1.9,1.6-3.3,0.1
	c0.2,1.1-0.5,1-2.1-0.3c0,0.9-0.8,0.6-2.2-0.5c-0.3,1.1-1,1.4-2,0.6c-0.4,1.3-0.9,1.5-1.5,0.3c-2,1.5-3.4,1.7-3.7,0.2
	c-1.8,1.4-2.7,1.4-2.7-0.1c-0.8,1-1.5,1-2.1,0.2c-0.2,0.6-0.3,0.3-0.3-0.5c-1.7,1.5-2.4,2-2.3,0.9c-1.4,1.6-1.8,1.8-1.7,0.6
	c-0.9,1.4-2.1,1.7-4,1c0.5,1.1,0.2,1.1-0.7,0.1c-1,1.2-2,1.4-3.3,0.6c0.1,0.7-0.4,0.7-1.3,0c0,0.3-0.3,0-0.7-0.7
	c-0.4,1.4-0.9,1.7-2.2,1.1c0.3,0.9,0.2,1.3-0.4,0.7c0.3,1.1,0,1.3-1,0.4c-0.3,1-1.2,1.3-3.2,0.8c0.3,1-0.5,1.3-2.7,0.8
	c1,0.9,0.4,0.7-1.5-0.4c0.4,0.7-0.3,0.5-1.9-0.2c0.8,1,0.8,1.4-0.4,0.9c0.9,1.3,0.4,1.8-1.5,1.2 M69.6,124.6c0.1,0.2,0.1,0.3,0,0.4
	C69.6,125,69.6,124.8,69.6,124.6z"/>
</svg>
