<?xml version="1.0" encoding="utf-8"?>
<!-- Generator: Adobe Illustrator 23.0.0, SVG Export Plug-In . SVG Version: 6.00 Build 0)  -->
<svg version="1.1" id="Layer_1" xmlns="http://www.w3.org/2000/svg" xmlns:xlink="http://www.w3.org/1999/xlink" x="0px" y="0px"
	 viewBox="0 0 256 256" style="enable-background:new 0 0 256 256;" xml:space="preserve">
<g>
	<path style="fill:#29AAE1;stroke:#2E4D66;stroke-width:5;stroke-linecap:round;stroke-linejoin:round;stroke-miterlimit:10;" d="
		M243.4,132.1c0-31.3-34.8-56.6-77.7-56.6S88,100.8,88,132.1c0,8.8,2.7,17.1,7.6,24.5c2.4,3.6,3.6,7.9,3.6,12.2v30.1h36.7v-14.4
		c9.2,2.8,19.2,4.3,29.7,4.3c10.8,0,21-1.6,30.3-4.5v14.6h36.7v-26.1l0-0.6c-0.2-6.5,1.6-12.8,4.8-18.5
		C241.3,147,243.4,139.7,243.4,132.1z"/>
	<path style="opacity:0.1;" d="M150.3,186.5c36.2,4.8,66.4-8,77.1-35c16-40.4-22.3-68.2-22.3-68.2l14.1,7.7l13.3,12.1l9.9,19.9l1,14
		l-5.9,16.6l-4.4,12.8l-0.3,32.4H196v-14.6l-15.4,3.4l-14.9,1l-29.7-4.3"/>
	<path style="fill:none;stroke:#2E4D66;stroke-width:5;stroke-linecap:round;stroke-linejoin:round;stroke-miterlimit:10;" d="
		M243.4,132.1c0-31.3-34.8-56.6-77.7-56.6S88,100.8,88,132.1c0,8.8,2.7,17.1,7.6,24.5c2.4,3.6,3.6,7.9,3.6,12.2v30.1h36.7v-14.4
		c9.2,2.8,19.2,4.3,29.7,4.3c10.8,0,21-1.6,30.3-4.5v14.6h36.7v-26.1l0-0.6c-0.2-6.5,1.6-12.8,4.8-18.5
		C241.3,147,243.4,139.7,243.4,132.1z"/>
	<path style="fill:#29AAE1;stroke:#2E4D66;stroke-width:5;stroke-linecap:round;stroke-linejoin:round;stroke-miterlimit:10;" d="
		M88.6,74.8c0,0-5.6-12.2,4.5-17.1s6.1,14.5,5.3,16.4"/>
	<path style="fill:#29AAE1;stroke:#2E4D66;stroke-width:5;stroke-linecap:round;stroke-linejoin:round;stroke-miterlimit:10;" d="
		M103,122.6c0,0-13,49.7-60.6,43.2S4.7,104.5,18,93.8s19.1-0.4,41.6-3.4c22.5-3.1,11.8-24.8,39.7-20.2s23.7,14.1,23.7,14.1"/>
	<path style="opacity:0.3;fill:#FFFFFF;" d="M30.5,162.9c0,0-27.5-16.7-11-57.1c9.2-22.6,42.5,13.1,65.4-31L59.6,90.4l-13,0.4
		L29,87.5l-11,6.3l-8.9,16.3l-2,13l2.4,18l6.9,12.1L30.5,162.9z"/>
	<path style="fill:none;stroke:#2E4D66;stroke-width:5;stroke-linecap:round;stroke-linejoin:round;stroke-miterlimit:10;" d="
		M103,122.6c0,0-13,49.7-60.6,43.2S4.7,104.5,18,93.8s19.1-0.4,41.6-3.4c22.5-3.1,11.8-24.8,39.7-20.2s23.7,14.1,23.7,14.1"/>
	<path style="fill:#29AAE1;stroke:#2E4D66;stroke-width:5;stroke-linecap:round;stroke-linejoin:round;stroke-miterlimit:10;" d="
		M112.1,84.1c0,0-0.2-13.4,11.1-13.8s-0.3,15.7-1.8,17.2"/>
	<circle style="fill:#2E4D66;" cx="80.7" cy="95.2" r="4.2"/>
	<path style="fill:none;stroke:#2E4D66;stroke-width:5;stroke-linecap:round;stroke-linejoin:round;stroke-miterlimit:10;" d="
		M232.5,103.1c0,0,15.3,17,19.5,41.7"/>
	<path style="fill:none;stroke:#2E4D66;stroke-width:5;stroke-linecap:round;stroke-linejoin:round;stroke-miterlimit:10;" d="
		M25.2,159.3c0,0,27.5,5,45.6-27"/>
</g>
</svg>
