<?xml version="1.0" encoding="utf-8"?>
<!-- Generator: Adobe Illustrator 17.0.0, SVG Export Plug-In . SVG Version: 6.00 Build 0)  -->
<!DOCTYPE svg PUBLIC "-//W3C//DTD SVG 1.1//EN" "http://www.w3.org/Graphics/SVG/1.1/DTD/svg11.dtd" [
	<!ENTITY ns_flows "http://ns.adobe.com/Flows/1.0/">
	<!ENTITY ns_extend "http://ns.adobe.com/Extensibility/1.0/">
	<!ENTITY ns_ai "http://ns.adobe.com/AdobeIllustrator/10.0/">
	<!ENTITY ns_graphs "http://ns.adobe.com/Graphs/1.0/">
]>
<svg version="1.1" id="Layer_1" xmlns:x="&ns_extend;" xmlns:i="&ns_ai;" xmlns:graph="&ns_graphs;"
	 xmlns="http://www.w3.org/2000/svg" xmlns:xlink="http://www.w3.org/1999/xlink" xmlns:a="http://ns.adobe.com/AdobeSVGViewerExtensions/3.0/"
	 x="0px" y="0px" width="256px" height="256px" viewBox="0 0 256 256" style="enable-background:new 0 0 256 256;"
	 xml:space="preserve">
<g transform="matrix(.85709 0 0 .85709 -265.18 -368.47)">
	<path style="fill:none;stroke:#000000;stroke-width:2.3335;stroke-linecap:round;stroke-linejoin:round;" d="M411.9,549.8
		l-101.6-0.2l2.4,131.7l85.4,0.4"/>
	<path style="fill:none;stroke:#000000;stroke-width:2.3335;stroke-linecap:round;stroke-linejoin:round;" d="M520.7,682.4l85.7,0.4
		l0.8-132.6l-101.9-0.2"/>
	<path style="fill:none;stroke:#000000;stroke-width:2.3335;stroke-linecap:round;stroke-linejoin:round;" d="M505.2,529.6l0.1,5.3
		l74.2,0.4l-0.1-6.3L505.2,529.6z"/>
	<path style="fill:none;stroke:#000000;stroke-width:2.3335;stroke-linecap:round;stroke-linejoin:round;" d="M335.1,528v6.9h79.3
		l0.1-7.1L335.1,528z"/>
	<path style="fill:none;stroke:#000000;stroke-width:1.1667;stroke-linecap:round;stroke-linejoin:round;" d="M456.5,477.1l0.2,35
		h4.5l0.4-34.9L456.5,477.1z"/>
	<path style="fill:none;stroke:#000000;stroke-width:1.1667;stroke-linecap:round;stroke-linejoin:round;" d="M468.4,467.9
		l-1.2,44.8l6.6,0.1v-44.9H468.4z"/>
	<path style="fill:none;stroke:#000000;stroke-width:2.3335;stroke-linecap:round;stroke-linejoin:round;" d="M506,622.2l-0.9-109.6
		l-90.7-0.4l0.4,110"/>
	<path style="fill:none;stroke:#000000;stroke-width:2.3335;stroke-linecap:round;stroke-linejoin:round;" d="M414.9,644.3l0.1,40.8
		l91.5,0.7l-0.3-40.1"/>
	<path style="fill:none;stroke:#000000;stroke-width:2.3335;stroke-linecap:round;stroke-linejoin:round;" d="M399.2,644.5v45.6
		l10.3-0.1l-0.4-45.9L399.2,644.5z"/>
	<path style="fill:none;stroke:#000000;stroke-width:2.3335;stroke-linecap:round;stroke-linejoin:round;" d="M510.9,644.5
		l-0.5,44.1l10.4-0.2l-0.7-43.8L510.9,644.5z"/>
	<path style="fill:none;stroke:#000000;stroke-width:2.3335;stroke-linecap:round;stroke-linejoin:round;" d="M396.3,622.2v21.9
		l127.8,0.5l-0.2-21.9L396.3,622.2z"/>
	<path style="fill:none;stroke:#000000;stroke-width:1.1667;stroke-linecap:round;stroke-linejoin:round;" d="M433.4,651.1l0.5,33.5
		l55.8,1.1l-0.5-34.3L433.4,651.1z"/>
	<path style="fill:none;stroke:#000000;stroke-width:1.1667;stroke-linecap:round;stroke-linejoin:round;" d="M461.4,651.8l0.6,33.4
		"/>
	<path style="fill:none;stroke:#000000;stroke-width:1.1667;stroke-linecap:round;stroke-linejoin:round;" d="M448.4,534v16.9
		l19.2-0.7V534L448.4,534z"/>
	<path style="fill:none;stroke:#000000;stroke-width:1.2119;stroke-linecap:round;stroke-linejoin:round;" d="M452.8,503
		c0,5.2-4.2,9.6-9.5,9.6c-5.2,0-9.5-4.2-9.5-9.6c0-5.3,4.2-9.6,9.5-9.6C448.6,493.4,452.8,497.7,452.8,503z"/>
	<path style="fill:none;stroke:#000000;stroke-width:1.1667;stroke-linecap:round;stroke-linejoin:round;" d="M534.4,567.9
		l-0.5,15.5h24.7v-16.3L534.4,567.9z"/>
	<path style="fill:none;stroke:#000000;stroke-width:1.1667;stroke-linecap:round;stroke-linejoin:round;" d="M568.5,567.2v15.5
		h24.7v-16.3L568.5,567.2z"/>
	<path style="fill:none;stroke:#000000;stroke-width:1.1667;stroke-linecap:round;stroke-linejoin:round;" d="M568.5,567.2v15.5
		h24.7v-16.3L568.5,567.2z"/>
	<path style="fill:none;stroke:#000000;stroke-width:1.1667;stroke-linecap:round;stroke-linejoin:round;" d="M534.6,597v16h24.7
		v-16.3L534.6,597z"/>
	<path style="fill:none;stroke:#000000;stroke-width:1.1667;stroke-linecap:round;stroke-linejoin:round;" d="M568.5,596.8v15.5
		h24.7v-16.3L568.5,596.8z"/>
	<path style="fill:none;stroke:#000000;stroke-width:1.1667;stroke-linecap:round;stroke-linejoin:round;" d="M535.1,621.9
		l-0.5,16.6h24.7v-16.3L535.1,621.9z"/>
	<path style="fill:none;stroke:#000000;stroke-width:1.1667;stroke-linecap:round;stroke-linejoin:round;" d="M568.5,622.2v15.5
		h24.7v-16.3L568.5,622.2z"/>
	<path style="fill:none;stroke:#000000;stroke-width:1.1667;stroke-linecap:round;stroke-linejoin:round;" d="M533.2,649v15.5h24.7
		v-16.3L533.2,649z"/>
	<path style="fill:none;stroke:#000000;stroke-width:1.1667;stroke-linecap:round;stroke-linejoin:round;" d="M567,648.3v15.5h24.7
		v-16.2L567,648.3z"/>
	<path style="fill:none;stroke:#000000;stroke-width:1.1667;stroke-linecap:round;stroke-linejoin:round;" d="M327.9,562.2v15.5
		h24.7v-16.3L327.9,562.2z"/>
	<path style="fill:none;stroke:#000000;stroke-width:1.1667;stroke-linecap:round;stroke-linejoin:round;" d="M362.5,561.5v15.5
		h24.6v-16.2L362.5,561.5z"/>
	<path style="fill:none;stroke:#000000;stroke-width:1.1667;stroke-linecap:round;stroke-linejoin:round;" d="M363,561.1l-0.5,16
		h24.6v-16.3L363,561.1z"/>
	<path style="fill:none;stroke:#000000;stroke-width:1.1667;stroke-linecap:round;stroke-linejoin:round;" d="M328.6,591.9v15.5
		h24.7v-16.3L328.6,591.9z"/>
	<path style="fill:none;stroke:#000000;stroke-width:1.1667;stroke-linecap:round;stroke-linejoin:round;" d="M362.5,591.2v15.5
		h24.6v-16.3L362.5,591.2z"/>
	<path style="fill:none;stroke:#000000;stroke-width:1.1667;stroke-linecap:round;stroke-linejoin:round;" d="M328.6,617.3v15.5
		h24.7v-16.3L328.6,617.3z"/>
	<path style="fill:none;stroke:#000000;stroke-width:1.1667;stroke-linecap:round;stroke-linejoin:round;" d="M362.5,616.6v15.5
		h24.6v-16.3L362.5,616.6z"/>
	<path style="fill:none;stroke:#000000;stroke-width:1.1667;stroke-linecap:round;stroke-linejoin:round;" d="M327.2,643.4v15.5
		h24.7v-16.3L327.2,643.4z"/>
	<path style="fill:none;stroke:#000000;stroke-width:1.1667;stroke-linecap:round;stroke-linejoin:round;" d="M361,642.7v15.5h24.7
		v-16.3L361,642.7z"/>
	<path style="fill:none;stroke:#000000;stroke-width:1.1667;stroke-linecap:round;stroke-linejoin:round;" d="M342.7,535.2l-0.5,14
		h4.5v-14H342.7z"/>
	<path style="fill:none;stroke:#000000;stroke-width:1.1667;stroke-linecap:round;stroke-linejoin:round;" d="M365.2,535.2l-0.5,14
		h4.5v-14H365.2z"/>
	<path style="fill:none;stroke:#000000;stroke-width:1.1667;stroke-linecap:round;stroke-linejoin:round;" d="M365.2,535.2l-0.5,14
		h4.5v-14H365.2z"/>
	<path style="fill:none;stroke:#000000;stroke-width:1.1667;stroke-linecap:round;stroke-linejoin:round;" d="M391.6,535.7l-0.5,14
		h4.5v-14H391.6z"/>
	<path style="fill:none;stroke:#000000;stroke-width:1.1667;stroke-linecap:round;stroke-linejoin:round;" d="M517.3,535.7l-0.5,14
		h4.5v-14H517.3z"/>
	<path style="fill:none;stroke:#000000;stroke-width:1.1667;stroke-linecap:round;stroke-linejoin:round;" d="M539.2,535.7l-0.5,14
		h4.5v-14H539.2z"/>
	<path style="fill:none;stroke:#000000;stroke-width:1.1667;stroke-linecap:round;stroke-linejoin:round;" d="M561.2,535.7l-0.5,14
		h4.5v-14H561.2z"/>
	<path style="fill:none;stroke:#000000;stroke-width:1.1667;stroke-linecap:round;stroke-linejoin:round;" d="M448.4,563v16.9
		l19.5,0.4l-0.4-17.3H448.4z"/>
	<path style="fill:none;stroke:#000000;stroke-width:1.1667;stroke-linecap:round;stroke-linejoin:round;" d="M448.4,588.9v16.9
		l19.2,0.3v-17.2L448.4,588.9z"/>
</g>
</svg>
