<?xml version="1.0" encoding="utf-8"?>
<!-- Generator: Adobe Illustrator 22.1.0, SVG Export Plug-In . SVG Version: 6.00 Build 0)  -->
<svg version="1.1" id="Layer_1" xmlns="http://www.w3.org/2000/svg" xmlns:xlink="http://www.w3.org/1999/xlink" x="0px" y="0px"
	 viewBox="0 0 256 256" style="enable-background:new 0 0 256 256;" xml:space="preserve">
<g>
	<path style="fill:#4E2E66;" d="M188,70.8v111.5l-119.7,0.1V70.8c0-33,26.8-59.8,59.8-59.8c16.5,0,31.4,6.7,42.3,17.5
		c0.4,0.4,0.7,0.7,1.1,1.1C181.8,40.3,188,54.8,188,70.8z"/>
</g>
<g>
	<path style="fill:#FFFFFF;" d="M204.4,235.5H53c0-14.3-5-35.3,1.9-42.6c4.1-4.5,8.7-7.8,13.7-10.5c9.1-4.8,19.8-7.2,33.1-9.4
		c0.5-0.1,0.9-0.2,1.3-0.3c4.3-1.3,7.3-5.2,7.3-9.8v-8.1c-15.6-6-27.2-20-29.8-36.9c-6.5-1.5-11.3-7.3-11.3-14.3
		c0-6,3.6-11.1,8.7-13.4c2.8,0,5.7-0.3,8.8-1.1c19.7-4.7,42.9-14.8,61.8-31.2c5,15.7,14.7,27.3,26.3,30.9V89
		c7.2,0.9,12.8,7.1,12.8,14.6c0,7.7-6,14.1-13.5,14.7c-2.9,16.2-13.8,29.9-28.6,36.1v8.2c0,4.3,2.7,8.1,6.6,9.6
		c0.7,0.3,1.4,0.4,2.1,0.5c12.7,1.9,24.5,4.2,34.1,9.6c4.8,2.7,9,6.1,12.6,10.7C206.9,200.8,204.4,221.5,204.4,235.5z"/>
</g>
<g>
	<circle style="fill:#4E2E66;" cx="104.8" cy="100.2" r="5.4"/>
</g>
<g>
	<circle style="fill:#4E2E66;" cx="152" cy="100.2" r="5.4"/>
</g>
<g style="opacity:0.1;">
	<path style="fill:#0C0C0C;" d="M128.3,131.6c-9.2,0-14.8-2.8-15.1-3c-0.8-0.4-1-1.3-0.7-2.1c0.4-0.8,1.3-1,2.1-0.7
		c0.2,0.1,11.8,5.9,29.5-0.1c0.8-0.3,1.7,0.2,2,1s-0.2,1.7-1,2C138.7,130.9,133,131.6,128.3,131.6z"/>
</g>
<path style="fill:#AB61DB;stroke:#4E2E66;stroke-width:5;stroke-miterlimit:10;" d="M206.8,236.2h-157c0-14.6-3.3-36.1,3.7-43.7
	c11.9-12.8,26.8-16.9,48-20.4c0.5-0.1,0.9-0.2,1.4-0.3l5.2,10.1c3.6,7.1,10.6,11.9,18.5,12.5c0.1,0,0.2,0,0.3,0
	c9.8,0.6,18.8-5.3,22.4-14.4l3.6-8.8c0.7,0.3,1.4,0.5,2.2,0.6c19.5,2.9,36.7,6.7,47.9,20.7C209.3,200.7,206.8,221.9,206.8,236.2z"/>
<path style="opacity:0.2;fill:#0C0C0C;" d="M194,186.5c0,0,7,35.5-6,42.5s-41.8,6.5-41.8,6.5h58.2
	C204.4,235.5,217.5,198.5,194,186.5z"/>
</svg>
