<?xml version="1.0" encoding="utf-8"?>
<!-- Generator: Adobe Illustrator 23.0.0, SVG Export Plug-In . SVG Version: 6.00 Build 0)  -->
<svg version="1.1" id="Layer_1" xmlns="http://www.w3.org/2000/svg" xmlns:xlink="http://www.w3.org/1999/xlink" x="0px" y="0px"
	 viewBox="0 0 256 256" style="enable-background:new 0 0 256 256;" xml:space="preserve">
<path style="fill:#60D871;" d="M152.3,103.6v21.5c0,7.6-6.1,13.7-13.7,13.7H82.7c-7.6,0-13.7-6.1-13.7-13.7v-21.5H10.3v59h231.6v-59
	H152.3z"/>
<rect x="10.3" y="146.5" style="opacity:0.3;" width="231.6" height="16.1"/>
<path style="fill:none;stroke:#2E6634;stroke-width:5;stroke-linecap:round;stroke-linejoin:round;stroke-miterlimit:10;" d="
	M152.3,103.6v21.5c0,7.6-6.1,13.7-13.7,13.7H82.7c-7.6,0-13.7-6.1-13.7-13.7v-21.5H10.3v59h231.6v-59H152.3z"/>
<circle style="fill:#FFFFFF;stroke:#2E6634;stroke-width:5;stroke-linecap:round;stroke-linejoin:round;stroke-miterlimit:10;" cx="49.7" cy="168.7" r="35.6"/>
<circle style="fill:#FFFFFF;stroke:#2E6634;stroke-width:5;stroke-linecap:round;stroke-linejoin:round;stroke-miterlimit:10;" cx="202.7" cy="168.7" r="35.6"/>
<line style="fill:none;stroke:#2E6634;stroke-width:5;stroke-linecap:round;stroke-linejoin:round;stroke-miterlimit:10;" x1="69" y1="121" x2="91.7" y2="103.6"/>
<line style="fill:none;stroke:#2E6634;stroke-width:5;stroke-linecap:round;stroke-linejoin:round;stroke-miterlimit:10;" x1="82.2" y1="93.8" x2="102.4" y2="114"/>
<line style="fill:none;stroke:#2E6634;stroke-width:5;stroke-linecap:round;stroke-linejoin:round;stroke-miterlimit:10;" x1="69" y1="103.6" x2="78" y2="68.7"/>
</svg>
