<?xml version="1.0" encoding="utf-8"?>
<!-- Generator: Adobe Illustrator 17.0.0, SVG Export Plug-In . SVG Version: 6.00 Build 0)  -->
<!DOCTYPE svg PUBLIC "-//W3C//DTD SVG 1.1//EN" "http://www.w3.org/Graphics/SVG/1.1/DTD/svg11.dtd" [
	<!ENTITY ns_flows "http://ns.adobe.com/Flows/1.0/">
	<!ENTITY ns_extend "http://ns.adobe.com/Extensibility/1.0/">
	<!ENTITY ns_ai "http://ns.adobe.com/AdobeIllustrator/10.0/">
	<!ENTITY ns_graphs "http://ns.adobe.com/Graphs/1.0/">
]>
<svg version="1.1" id="Layer_1" xmlns:x="&ns_extend;" xmlns:i="&ns_ai;" xmlns:graph="&ns_graphs;"
	 xmlns="http://www.w3.org/2000/svg" xmlns:xlink="http://www.w3.org/1999/xlink" xmlns:a="http://ns.adobe.com/AdobeSVGViewerExtensions/3.0/"
	 x="0px" y="0px" width="256px" height="256px" viewBox="0 0 256 256" style="enable-background:new 0 0 256 256;"
	 xml:space="preserve">
<g>
	<path style="fill:none;stroke:#000000;stroke-width:2;stroke-miterlimit:10;" d="M42,193.5l-23.1-0.2h47.8v2.9h11.7l0.2,0.2h0.2
		v0.2c-0.2,0-0.2,1.1-0.2,3.1v3.1c0,0-0.1,0-0.2,0s-3.4,0.2-9.6,0.4H59v0.2h-0.9c0-0.2-0.5-0.2-1.6-0.2H55v-0.2h2.9v-6.5H38.6v-0.2
		h-0.2v-0.2h27.8v-0.9l0.2-1.1V194h-0.2l-0.7-0.2h-0.4C65.1,193.6,57.4,193.5,42,193.5z"/>
	<path style="fill:none;stroke:#000000;stroke-width:2;stroke-miterlimit:10;" d="M210.5,128.4l0.2-0.2h0.2c0,0.2,0.4,0.2,1.3,0.2
		h1.3v-0.2h0.2v2c0.2,1.2,0.2,2,0,2.2v0.2H212c0-0.2-0.2-0.2-0.7-0.2c-0.6,0-0.9-0.7-0.9-2C210.5,129.3,210.5,128.6,210.5,128.4z"/>
	<path style="fill:none;stroke:#000000;stroke-width:2;stroke-miterlimit:10;" d="M18.6,194.9v-1.1h46.9l0.7,0.2h0.2v0.2l-0.2,1.1
		v0.9H18.6V194.9z"/>
	<path style="fill:none;stroke:#000000;stroke-width:2;stroke-miterlimit:10;" d="M65.7,109.2c0.2-2.7,0.5-4,1.1-4
		c0.6,0.2,0.9,3.2,0.9,9.2c0,6-0.3,9-0.9,9s-0.9-1.7-0.9-5.2C65.7,114.7,65.6,111.7,65.7,109.2z"/>
	<path style="fill:none;stroke:#000000;stroke-width:2;stroke-miterlimit:10;" d="M119.4,201.4l0.2-2v3.8H140v0.2h9.4
		c6.1,0,9.2,0.1,9.2,0.2h-18.4v3.4l0.2,3.1v0.2h-0.2c-0.2,0.2-0.2,0.2-0.2,0.2h-20.4v5.4h-0.2v-2.7c0-2-0.1-2.9-0.2-2.9V207
		c-0.2-2.2-0.2-3.4-0.2-3.4v-0.2C118.9,203.4,119.1,202.7,119.4,201.4z"/>
	<path style="fill:none;stroke:#000000;stroke-width:2;stroke-miterlimit:10;" d="M255.8,197.6h0.2v10.1c0,6.7-0.2,10.1-0.7,10.1
		h-0.9l-5.6-0.2h-5.6c0-0.2-0.2-0.2-0.4-0.2c-0.2,0-0.2-0.2-0.2-0.4v-0.2c0.2,0,0.2,0.1,0.2,0.2v0.2h12.6v-6.3h-0.2v-0.2h-12.6v-0.2
		h0.2l0.4-0.2h12.1v-6.7h-12.8v-0.2h12.8v-4.7l0.2-0.4C255.7,197.7,255.8,197.6,255.8,197.6z"/>
	<path style="fill:none;stroke:#000000;stroke-width:2;stroke-miterlimit:10;" d="M119.1,194.9v-1.3c0.2,0,0.2,0.4,0.2,1.3v1.1h0.2
		v0.4h0.4l-0.2,0.2c-0.2,0-0.2,0.4-0.2,1.3v1.3l-0.2,2c-0.3,1.3-0.4,2-0.4,2v0.2H99.2c0-0.2-0.1-0.2-0.2-0.2h-0.2v-0.4
		c0,0,0-1.1,0-3.1v-3.4h0.2c0.2-0.2,0.2-0.2,0.2-0.2h20V194.9z"/>
	<path style="fill:none;stroke:#000000;stroke-width:2;stroke-miterlimit:10;" d="M102.1,168.4V152h17.7c12,0.2,17.9,0.2,17.9,0.2
		h0.2l0.2,0.7c0,0.4,0,5.8,0,15.9c0,10.3-0.2,15.9-0.7,16.6c-0.4,0.7-0.8,1.3-1.1,1.6c-0.3,0.4-0.5,0.7-0.7,0.7h-0.2l-0.2,0.2
		l-0.2,0.2h-0.4l-0.2,0.2l-0.2,0.2h9v0.2h-37.7v-0.2h0.4v-0.2h-0.2v-0.2h-0.4l-0.2-0.2l-0.4-0.2c0,0-0.1,0-0.2,0
		c-0.2-0.2-0.5-0.6-1.1-1.3C102.6,185.4,102.2,179.4,102.1,168.4z M109,170.2V185c0,0-0.4,0-1.3,0h-1.3l0.2-14.8
		c0.2-9.9,0.6-14.8,1.3-14.8c0.7,0,1.1,0.1,1.1,0.2S109,160.6,109,170.2z M131.7,170.2v-14.8h1.1c0.9,0,1.3,4.9,1.3,14.8V185h-0.2
		c0,0-0.4,0-1.1,0h-1.1C131.5,185,131.5,180.1,131.7,170.2z M115.3,185.2v0.2h-2.5v-0.2h-0.2v-14.8c0-9.9,0.4-14.8,1.3-14.8
		c0.9,0.2,1.3,5.1,1.3,14.8S115.3,185.1,115.3,185.2z M121.6,170.6v14.8h-1.3c-0.7,0-1.1-0.1-1.1-0.2h-0.2l0.2-14.8
		c0-10,0.4-15,1.1-14.8C121.2,155.6,121.6,160.6,121.6,170.6z M125.2,170.2v-14.8h2.7v29.8h-2.7V170.2z"/>
	<path style="fill:none;stroke:#000000;stroke-width:2;stroke-miterlimit:10;" d="M237.8,139.4h0.2v0.7c0,0.6-1.4,0.9-4.3,0.9
		c-2.8,0-4.3-0.3-4.5-0.9c0-0.4,1.3-0.7,4-0.7C236.2,139.3,237.7,139.3,237.8,139.4z"/>
	<path style="fill:none;stroke:#000000;stroke-width:2;stroke-miterlimit:10;" d="M37.7,205.9v-2.5h18.8c1.1,0,1.6,0.1,1.6,0.2v6.3
		c-0.2,0.2-0.2,0.2,0,0.2c0.2,0,0.2,0,0.2,0v0.2c0,0.2-0.1,0.2-0.2,0.2H37.9v4.9h-0.2V213c0-1.6-0.1-2.5-0.2-2.5v-2.2h0.2V205.9z"/>
	<path style="fill:none;stroke:#000000;stroke-width:2;stroke-miterlimit:10;" d="M250.4,189.5h0.4c0,0,0.7,0.1,2.2,0.2h2.2v6.7
		h-12.6c-0.2,0.2-0.2,0.2-0.2,0.2c-0.2,0-0.2-0.1-0.2-0.2v-0.7l0.2-2c0.2-1.3,1.4-2,3.8-2s3.6-0.4,3.6-1.1
		C250.1,189.9,250.2,189.5,250.4,189.5z"/>
	<path style="fill:none;stroke:#000000;stroke-width:2;stroke-miterlimit:10;" d="M181.3,210.6l0.2-0.2h19.7c0.2,0,0.2,0.1,0.2,0.2
		v3.4c0,2.1,0.1,3.1,0.2,3.1v0.2h19.5l-28.9,0.2h-28.9v-0.2h17.5v-0.2l0.2-2.2v-3.1C181.2,211.1,181.3,210.7,181.3,210.6z"/>
	<path style="fill:none;stroke:#000000;stroke-width:2;stroke-miterlimit:10;" d="M199.9,47.5l14.1,0.2c0,0,0,8.8,0,26.3
		s-4.9,26.3-14.8,26.5l-14.8,0.2v-0.2l-0.2-26.7c0-17.7,0.2-26.5,0.7-26.5C185.5,47.2,190.5,47.3,199.9,47.5z M209.8,78V84h-0.9
		c-0.4,0-0.7-2.1-0.7-6.3s0.3-6.2,0.9-6.1C209.6,71.8,209.8,73.9,209.8,78z"/>
	<path style="fill:none;stroke:#000000;stroke-width:2;stroke-miterlimit:10;" d="M181.1,195.1l0.2-0.4v1.6h1.8l9,0.2
		c6.1,0,9.2,0.1,9.2,0.2c0.2,0.3,0.2,0.4,0.2,0.4v6.3h-18.6v0.2h-1.1c0-0.2-0.2-0.2-0.4-0.2h-0.2v-2.2c-0.2-1.6-0.2-2.5-0.2-2.5
		v-1.1c0-0.6-0.1-0.9-0.2-0.9v-0.2c0.2,0,0.2-0.2,0.2-0.4l0.2-0.4V195.1z"/>
	<path style="fill:none;stroke:#000000;stroke-width:2;stroke-miterlimit:10;" d="M115.3,185.2v0.2h-2.5v-0.2h-0.2v-14.8
		c0-9.9,0.4-14.8,1.3-14.8c0.9,0.2,1.3,5.1,1.3,14.8S115.3,185.1,115.3,185.2z"/>
	<path style="fill:none;stroke:#000000;stroke-width:2;stroke-miterlimit:10;" d="M242.5,199.8v-3.1h6.5c4.2,0,6.3,0.3,6.3,0.9v5.6
		h-12.8V199.8z"/>
	<path style="fill:none;stroke:#000000;stroke-width:2;stroke-miterlimit:10;" d="M119.8,196.7l0.2-0.2h9.9l9.9,0.2h0.2v6.5h-20.4
		V198C119.6,197.1,119.7,196.7,119.8,196.7z"/>
	<path style="fill:none;stroke:#000000;stroke-width:2;stroke-miterlimit:10;" d="M37.7,213v2.5h0.2v0.9c0,0.6,0.4,0.9,1.1,0.9h0.9
		v0.2H28c-7.9-0.2-11.7-0.2-11.4-0.2h0.2v-0.2c0.2,0,0.2-0.1,0.2-0.2v-6.5h20.4l0.2-0.2c0.2,0,0.2,0.1,0.2,0.2
		C37.8,210.5,37.7,211.4,37.7,213z"/>
	<path style="fill:none;stroke:#000000;stroke-width:2;stroke-miterlimit:10;" d="M140.2,210.3H160l0.2,0.2c0,0,0.1,1.1,0.2,3.1v3.1
		c0.2,0.2,0.2,0.2,0.2,0.2v0.2h2.7v0.2h-42v-0.2h18.4v-0.2h0.2v-6.5C140,210.6,140.1,210.5,140.2,210.3z"/>
	<path style="fill:none;stroke:#000000;stroke-width:2;stroke-miterlimit:10;" d="M113.5,66.7v20H84.1l0.2-20c0-13.3,4.9-20,14.6-20
		S113.5,53.4,113.5,66.7z M88.8,65.4c0.6-0.2,0.9,1.3,0.9,4.5s-0.2,4.7-0.7,4.7c-0.6,0-0.9-1.5-0.9-4.5C88,67,88.2,65.4,88.8,65.4z"
		/>
	<path style="fill:none;stroke:#000000;stroke-width:2;stroke-miterlimit:10;" d="M155.7,74.8H155v-4.7c0-3.3,0.3-4.9,0.9-4.9
		s0.8,1.6,0.7,4.7C156.6,73,156.3,74.7,155.7,74.8z"/>
	<path style="fill:none;stroke:#000000;stroke-width:2;stroke-miterlimit:10;" d="M180.8,200.9v-2.2c0,0,0.1,0.8,0.2,2.5v2.2h0.2
		c0.3,0,0.4,0.1,0.4,0.2h-0.2c-0.2,0-0.2,1.1-0.2,3.4v3.1h0.2v0.2l-0.2,0.2c0,0.2-0.1,0.5-0.2,1.1v0.9c-0.2,0-0.2-0.4-0.2-1.1v-0.9
		h-20.2v6.3h-0.2v-3.1c-0.2-2.1-0.2-3.1-0.2-3.1l-0.2-0.2v-0.2c0.2,0,0.2-0.8,0.2-2.5v-2.5l0.2-0.9c0.2-0.6,3.3-0.9,9.4-0.9h9.2
		v-0.2h1.8V200.9z"/>
	<path style="fill:none;stroke:#000000;stroke-width:2;stroke-miterlimit:10;" d="M0.9,210.6h15.9v6.5H0.7v-3.1
		C0.8,211.8,0.9,210.7,0.9,210.6z"/>
	<path style="fill:none;stroke:#000000;stroke-width:2;stroke-miterlimit:10;" d="M78.5,202.9l10.1,0.2h10.1v0.2
		c0.2,0,0.2-0.1,0.2-0.2c0.2,0,0.2,0.1,0.2,0.2v3.6c0,2.1,0.1,3.1,0.2,3.1v0.2h-0.2v0.2H78.5v-0.4c0-0.3-0.1-0.4-0.2-0.4v-6.1H59
		v-0.2h9.6c6.4-0.3,9.6-0.4,9.6-0.4C78.5,202.9,78.5,202.9,78.5,202.9z"/>
	<path style="fill:none;stroke:#000000;stroke-width:2;stroke-miterlimit:10;" d="M140.2,193.1v-1.3h20v3.6c0,0.6-0.3,0.9-0.9,0.9
		h-19.1V193.1z"/>
	<g>
		<path style="fill:none;stroke:#000000;stroke-width:2;stroke-miterlimit:10;" d="M142.7,69.9v4.7h-0.9c-0.6,0-0.8-1.6-0.7-4.7
			c0-3.1,0.3-4.7,0.9-4.7C142.6,65.2,142.9,66.7,142.7,69.9z"/>
		<path style="fill:none;stroke:#000000;stroke-width:2;stroke-miterlimit:10;" d="M222.3,172.9c0-3.1,0.3-4.6,0.9-4.5
			c0.4,0,0.7,1.6,0.7,4.7c0,3.1-0.3,4.7-0.9,4.7C222.6,177.8,222.3,176.2,222.3,172.9z"/>
	</g>
	<path style="fill:none;stroke:#000000;stroke-width:2;stroke-miterlimit:10;" d="M114.9,148.2h0.9l1.3,0.2h4
		c1.8-0.2,2.7-0.2,2.7-0.2h3.1c0,0,2,0.1,5.8,0.2h5.6v3.6h-0.2l-0.2,0.2h-0.2c0,0-6-0.1-17.9-0.2h-17.9v-3.6h6.3
		C112.5,148.3,114.7,148.2,114.9,148.2z"/>
	<path style="fill:none;stroke:#000000;stroke-width:2;stroke-miterlimit:10;" d="M146.1,105.8v0.2h0.2v0.2h-0.2v0.2h-1.1
		c-0.4,0-3.9,0-10.3,0h-9.4v0.2h-0.9v-1.1h0.2v-0.2h0.2v-0.2h0.2v-0.2h0.2l1.3-1.1c0.9-0.9,2-1.6,3.1-2c1.3-0.4,2.7-0.8,4-1.1
		c1.2,0,2.5,0.2,4,0.4c1.5,0.3,2.8,0.7,4,1.3c1.2,0.6,2.2,1.3,2.9,2.2C145.5,105.4,145.9,105.8,146.1,105.8z"/>
	<path style="fill:none;stroke:#000000;stroke-width:2;stroke-miterlimit:10;" d="M197.2,130.2h1.8v1.1c0,0.7,0,1.1,0,1.1h-1.8v-0.2
		c-0.2,0-0.2,0-0.2,0v-1.1C197,130.5,197.1,130.2,197.2,130.2z"/>
	<path style="fill:none;stroke:#000000;stroke-width:2;stroke-miterlimit:10;" d="M152.1,108.9l0.2-0.2v-0.2h13.2
		c0.2,0.2,0.2,0.2,0.2,0l0.2,0.4c0.2,0.2,0.3,0.3,0.4,0.4v10.3c-0.2,6.7-0.2,10.2-0.2,10.3H166c-0.2,0.2-9.3,0.2-27.4,0.2l-27.1,0.2
		v-11c0.2-7.2,0.2-10.8,0.2-10.8v-0.2h12.8v0.2"/>
	<path style="fill:none;stroke:#000000;stroke-width:2;stroke-miterlimit:10;" d="M210.5,115.7l0.2-1.1h2.9l0.2,0.2h0.2v5.4
		c0,3.6,0,5.5,0,5.6v0.4c-0.2,0-0.3-0.1-0.4-0.2c-0.3-0.2-0.9-0.2-1.8,0l-1.1,0.2h-0.2c-0.2,0-0.2-1.6-0.2-4.7
		C210.4,118.4,210.5,116.4,210.5,115.7z"/>
	<path style="fill:none;stroke:#000000;stroke-width:2;stroke-miterlimit:10;" d="M211.8,191.7h10.1v2c0.2,1.3,0.2,2,0.2,2
		c0,0.2-0.1,0.3-0.2,0.4h-0.2v0.2h-9.9l-10.1,0.2c-0.2,0-0.2,0.1-0.2,0.2v0.2c0,0-0.1-0.2-0.2-0.4c0-0.2-3.1-0.2-9.2-0.2l-9-0.2h9
		c6.1,0,9.2-0.3,9.2-0.9v-0.7l0.2-1.6C201.6,192.2,205.1,191.7,211.8,191.7z"/>
	<path style="fill:none;stroke:#000000;stroke-width:2;stroke-miterlimit:10;" d="M71.8,189.5l3.6-0.2h3.4v0.2H85
		c4.3,0.2,6.5,0.6,6.5,1.3c0,0.6,1.2,0.9,3.6,0.9c2.4,0.2,3.7,0.9,3.8,2.2l0.2,1.8v0.7c0,0.2-0.1,0.2-0.2,0.2
		c-0.2-0.2-0.2-0.2-0.2-0.2H78.5l-0.2-0.2v-3.1l-0.2-3.4v-0.2H71.8z"/>
	<path style="fill:none;stroke:#000000;stroke-width:2;stroke-miterlimit:10;" d="M181.5,203.6h19.7L201,207c0,2.1,0,3.2,0,3.4
		h-19.5v-0.2h-0.2V207C181.3,204.7,181.4,203.6,181.5,203.6z"/>
	<path style="fill:none;stroke:#000000;stroke-width:2;stroke-miterlimit:10;" d="M94.5,162.6v-25.1h49.8l0.2,25.6
		c0,17.2-0.2,25.8-0.4,25.8c-0.2,0.2-0.3,0.2-0.4,0h-0.4v-0.2h-9l0.2-0.2l0.2-0.2h0.4l0.2-0.2l0.2-0.2h0.2c0.2,0,0.4-0.2,0.7-0.7
		c0.3-0.3,0.7-0.8,1.1-1.6c0.4-0.7,0.7-6.3,0.7-16.6c0-10.2,0-15.5,0-15.9l-0.2-0.7l0.2-0.2h0.2v-3.6h-5.6c-3.9-0.2-5.8-0.2-5.8-0.2
		v-0.7l-0.2-0.4c-0.2-0.3-0.3-0.6-0.4-0.9c-0.3-0.4-0.8-0.9-1.6-1.3c-0.9-0.4-2-0.7-3.4-0.9c-1.3-0.2-2.3-0.1-2.9,0.2
		c-0.4,0-1.1,0.3-1.8,0.9l-1.1,0.9h-0.2v0.4l-0.2,0.2l-0.2,0.2v1.3c-0.2,0-2.4,0.1-6.7,0.2h-6.3v3.6h0.2v16.4
		c0.2,11.1,0.5,17.1,1.1,17.9c0.6,0.7,1,1.2,1.1,1.3c0.2,0,0.2,0,0.2,0l0.4,0.2l0.2,0.2h0.4v0.2h0.2v0.2h-0.4v0.2h-5.2
		c-3.4,0.2-5.2,0.2-5.4,0.2h-0.2v-0.2l-0.2-0.4C94.3,188.1,94.3,179.4,94.5,162.6z"/>
	<path style="fill:none;stroke:#000000;stroke-width:2;stroke-miterlimit:10;" d="M119.6,213.3v-2.7H140v6.5h-0.2v0.2h-19.3
		c-0.6,0-0.9-0.2-0.9-0.7V213.3z"/>
	<path style="fill:none;stroke:#000000;stroke-width:2;stroke-miterlimit:10;" d="M247.7,189.7v0.2h-14.6c-9.7,0-14.6-6.7-14.6-20.2
		c0-13.2,4.9-19.8,14.6-20c9.7-0.2,14.6,6.4,14.6,19.7C247.7,182.8,247.7,189.5,247.7,189.7z M222.3,172.9c0-3.1,0.3-4.6,0.9-4.5
		c0.4,0,0.7,1.6,0.7,4.7c0,3.1-0.3,4.7-0.9,4.7C222.6,177.8,222.3,176.2,222.3,172.9z"/>
	<path style="fill:none;stroke:#000000;stroke-width:2;stroke-miterlimit:10;" d="M109,170.2V185c0,0-0.4,0-1.3,0h-1.3l0.2-14.8
		c0.2-9.9,0.6-14.8,1.3-14.8c0.7,0,1.1,0.1,1.1,0.2S109,160.6,109,170.2z"/>
	<path style="fill:none;stroke:#000000;stroke-width:2;stroke-miterlimit:10;" d="M232.2,148.4l-13.7-0.2l-0.2-5.8v-5.8h14.8
		c9.7,0,14.6,2,14.6,5.8c0,4-0.3,6.1-0.9,6.1C246.2,148.6,241.3,148.6,232.2,148.4z M237.8,139.4h0.2v0.7c0,0.6-1.4,0.9-4.3,0.9
		c-2.8,0-4.3-0.3-4.5-0.9c0-0.4,1.3-0.7,4-0.7C236.2,139.3,237.7,139.3,237.8,139.4z"/>
	<path style="fill:none;stroke:#000000;stroke-width:2;stroke-miterlimit:10;" d="M222.3,193.1v-1.3h9.9c6.7,0.2,10.1,0.9,10.1,2.2
		v2.2h-20V193.1z"/>
	<path style="fill:none;stroke:#000000;stroke-width:2;stroke-miterlimit:10;" d="M131.7,170.2v-14.8h1.1c0.9,0,1.3,4.9,1.3,14.8
		V185h-0.2c0,0-0.4,0-1.1,0h-1.1C131.5,185,131.5,180.1,131.7,170.2z"/>
	<path style="fill:none;stroke:#000000;stroke-width:2;stroke-miterlimit:10;" d="M151.2,47v-0.2h28.9v19.1
		c0,12.7,0.1,19.1,0.2,19.1s0.2,0.3,0.2,0.9c-0.2,0.6-5.1,0.9-14.8,0.9h-14.6v-20C151.2,53.6,151.2,47,151.2,47z M155.7,74.8H155
		v-4.7c0-3.3,0.3-4.9,0.9-4.9s0.8,1.6,0.7,4.7C156.6,73,156.3,74.7,155.7,74.8z"/>
	<path style="fill:none;stroke:#000000;stroke-width:2;stroke-miterlimit:10;" d="M58.1,206.5v-2.9h20.2v6.3
		c-0.2,0.2-3.5,0.2-10.1,0.2l-9.9,0.2v-0.2c0,0-0.1,0-0.2,0V206.5z"/>
	<path style="fill:none;stroke:#000000;stroke-width:2;stroke-miterlimit:10;" d="M99.2,207v-3.4h19.7c0,0,0.1,1.1,0.2,3.4v3.4H99.4
		v-0.2C99.2,210.1,99.2,209.1,99.2,207z"/>
	<path style="fill:none;stroke:#000000;stroke-width:2;stroke-miterlimit:10;" d="M65.7,150c0.2-2.5,0.5-3.7,1.1-3.6
		c0.6,0,0.9,3,0.9,9s-0.3,9-0.9,9s-0.9-1.7-0.9-5.2C65.7,155.8,65.6,152.7,65.7,150z"/>
	<path style="fill:none;stroke:#000000;stroke-width:2;stroke-miterlimit:10;" d="M181.3,193.1v-1.3h20v3.6c0,0.6-3.1,0.9-9.2,0.9
		h-10.8V193.1z"/>
	<path style="fill:none;stroke:#000000;stroke-width:2;stroke-miterlimit:10;" d="M99.2,210.3h20c0.2,0,0.2,1,0.2,2.9v2.7h0.2v0.7
		c0,0.4,0.3,0.7,0.9,0.7h0.9v0.2H79.9v-0.2h19.1v-6.7h0.2V210.3z"/>
	<path style="fill:none;stroke:#000000;stroke-width:2;stroke-miterlimit:10;" d="M219,100.4h-0.9v-53h14.6
		c9.7,0,14.6,8.8,14.6,26.5c0,17.8-4.5,26.7-13.5,26.7C224.7,100.6,219.7,100.6,219,100.4z M222.8,71.7c0.6-0.2,0.9,1.9,0.9,6.1
		c0.2,4.2-0.1,6.3-0.7,6.3s-0.9-2-0.9-6.1C222.1,73.8,222.3,71.7,222.8,71.7z"/>
	<path style="fill:none;stroke:#000000;stroke-width:2;stroke-miterlimit:10;" d="M222.8,71.7c0.6-0.2,0.9,1.9,0.9,6.1
		c0.2,4.2-0.1,6.3-0.7,6.3s-0.9-2-0.9-6.1C222.1,73.8,222.3,71.7,222.8,71.7z"/>
	<path style="fill:none;stroke:#000000;stroke-width:2;stroke-miterlimit:10;" d="M45.3,43.2l-0.4-0.7h103.7
		c69.3,0,103.6,0.4,103,1.1c-0.6,0.9-1.1,1.3-1.3,1.3c-0.3,0.2-0.4,9.7-0.4,28.7l-0.2,28.5V45.4h-0.2c0,0-11.1-0.1-33.2-0.2h-33.2
		V45c0-0.2-11.3-0.2-33.9-0.2L115.1,45H99.6c-10.2,0-21.2,0-33.2,0H48.5v0.4c-0.2,0-0.5-0.2-1.1-0.4l-0.9-0.4h-0.2v-0.2H46v-0.2
		C45.8,44.1,45.6,43.8,45.3,43.2z"/>
	<path style="fill:none;stroke:#000000;stroke-width:2;stroke-miterlimit:10;" d="M222.3,206.1v-2.5h20v6.5h-0.2c0,0,0,0.1,0,0.2
		h-19.7V206.1z"/>
	<path style="fill:none;stroke:#000000;stroke-width:2;stroke-miterlimit:10;" d="M123.8,148v0.2c0,0-0.9,0.1-2.7,0.2h-2.9v-0.2H118
		v-0.7l0.2-0.2l0.2-0.2v-0.2l1.1-0.4c0.6-0.3,1.3-0.3,2,0c0.6,0,1.1,0.2,1.6,0.7S123.8,147.8,123.8,148z"/>
	<path style="fill:none;stroke:#000000;stroke-width:2;stroke-miterlimit:10;" d="M126.8,147.1l0.2,0.4v0.7h-3.1V148
		c0-0.2-0.2-0.4-0.7-0.9s-1-0.7-1.6-0.7c-0.7-0.3-1.4-0.3-2,0l-1.1,0.4v0.2l-0.2,0.2l-0.2,0.2v0.7h0.2v0.2h-1.1l-1.3-0.2h-0.9v-1.3
		l0.2-0.2l0.2-0.2v-0.4h0.2l1.1-0.9c0.7-0.6,1.3-0.9,1.8-0.9c0.6-0.3,1.6-0.4,2.9-0.2c1.3,0.2,2.5,0.4,3.4,0.9
		c0.7,0.4,1.3,0.9,1.6,1.3C126.5,146.5,126.6,146.8,126.8,147.1z"/>
	<path style="fill:none;stroke:#000000;stroke-width:2;stroke-miterlimit:10;" d="M38.1,196.7h19.7v6.5h-20v-3.4
		C37.9,197.7,38,196.7,38.1,196.7z"/>
	<path style="fill:none;stroke:#000000;stroke-width:2;stroke-miterlimit:10;" d="M115.1,45l33.9-0.2c22.6,0,33.9,0.1,33.9,0.2v0.2
		l-0.2,21.3c0,14.1-0.1,21.2-0.2,21.5v0.4h-66.6v-0.9c0-0.3-0.2-7.5-0.4-21.5L115.1,45z M146.7,66.7v20h-14.8
		c-9.9,0-14.7-6.6-14.6-19.7c0.2-13.3,5.1-20,14.8-20S146.7,53.6,146.7,66.7z M151.2,47v-0.2h28.9v19.1c0,12.7,0.1,19.1,0.2,19.1
		s0.2,0.3,0.2,0.9c-0.2,0.6-5.1,0.9-14.8,0.9h-14.6v-20C151.2,53.6,151.2,47,151.2,47z"/>
	<path style="fill:none;stroke:#000000;stroke-width:2;stroke-miterlimit:10;" d="M242.5,203.4h12.8v6.7h-12.1l-0.4,0.2h-0.7
		c0-0.2,0-0.2,0-0.2h0.2v-6.5C242.3,203.6,242.4,203.5,242.5,203.4z"/>
	<path style="fill:none;stroke:#000000;stroke-width:2;stroke-miterlimit:10;" d="M160.6,193.7v-2h20.2v1.8c0,1.3,0.1,2,0.2,2
		l-0.2,0.4c0,0.3-0.1,0.4-0.2,0.4h-19.5c-0.3-0.2-0.4-0.3-0.4-0.4l-0.2-0.2h0.2V193.7z"/>
	<path style="fill:none;stroke:#000000;stroke-width:2;stroke-miterlimit:10;" d="M88.8,65.4c0.6-0.2,0.9,1.3,0.9,4.5
		s-0.2,4.7-0.7,4.7c-0.6,0-0.9-1.5-0.9-4.5C88,67,88.2,65.4,88.8,65.4z"/>
	<path style="fill:none;stroke:#000000;stroke-width:2;stroke-miterlimit:10;" d="M0,207v-10.8l0.2,0.2l0.2,0.2v0.7h0.2v5.8h7.9
		l8.1-0.2l0.2-3.1v-3.1h0.2v3.4c0,2.2-0.1,3.4-0.2,3.4H0.7v3.6l0.2,3.4v0.2c0,0.2-0.1,1.3-0.2,3.4v3.1l8.1-0.2
		c5.2,0,7.9-0.1,8.1-0.2v-0.2h0.2v0.4c0,0.3-0.2,0.4-0.4,0.4c-0.3,0,3.5,0.1,11.4,0.2h164.2l28.9-0.2h0.2l11,0.2h16.4l5.6,0.2H0V207
		z"/>
	<path style="fill:none;stroke:#000000;stroke-width:2;stroke-miterlimit:10;" d="M209.8,78V84h-0.9c-0.4,0-0.7-2.1-0.7-6.3
		s0.3-6.2,0.9-6.1C209.6,71.8,209.8,73.9,209.8,78z"/>
	<path style="fill:none;stroke:#000000;stroke-width:2;stroke-miterlimit:10;" d="M242.5,213.7v-3.1h12.6v0.2h0.2v6.3h-12.6v-0.2
		c0-0.2-0.1-0.2-0.2-0.2V213.7z"/>
	<path style="fill:none;stroke:#000000;stroke-width:2;stroke-miterlimit:10;" d="M182.6,66.5l0.2-21.3h33.2
		c22.1,0.2,33.2,0.2,33.2,0.2h0.2v57h-67.1V88.1C182.6,87.8,182.6,80.6,182.6,66.5z M199.9,47.5l14.1,0.2c0,0,0,8.8,0,26.3
		s-4.9,26.3-14.8,26.5l-14.8,0.2v-0.2l-0.2-26.7c0-17.7,0.2-26.5,0.7-26.5C185.5,47.2,190.5,47.3,199.9,47.5z M219,100.4h-0.9v-53
		h14.6c9.7,0,14.6,8.8,14.6,26.5c0,17.8-4.5,26.7-13.5,26.7C224.7,100.6,219.7,100.6,219,100.4z"/>
	<path style="fill:none;stroke:#000000;stroke-width:2;stroke-miterlimit:10;" d="M78.8,196.7v-0.2h20c0,0.2,0,0.2,0,0.2h0.2v6.5
		H88.6l-10.1-0.2v-3.1C78.5,197.7,78.6,196.7,78.8,196.7z"/>
	<path style="fill:none;stroke:#000000;stroke-width:2;stroke-miterlimit:10;" d="M70.7,130.7v0.2c-0.2,0-0.2,0.1-0.2,0.2
		c0,0-0.2,0.2-0.7,0.4c-0.4,0.3-9.5,0.6-27.1,0.9c-17.7,0-26.5,0-26.7,0l-0.2-0.2c0-0.2-0.1-0.2-0.2-0.2h-0.2c0,0-0.1-0.1-0.2-0.2
		h-0.2l-0.2-0.2v-0.2c0-0.2-0.1-0.4-0.2-0.7c0-0.3,0-6.4,0-18.4c0-11.8,0.2-17.9,0.7-18.4c0.4-0.3,9.6-0.4,27.6-0.4
		c17.8,0,26.9,0.2,27.4,0.4c0.3,0.4,0.5,6.7,0.7,18.6C70.8,124.5,70.8,130.5,70.7,130.7z M65.7,109.2c0.2-2.7,0.5-4,1.1-4
		c0.6,0.2,0.9,3.2,0.9,9.2c0,6-0.3,9-0.9,9s-0.9-1.7-0.9-5.2C65.7,114.7,65.6,111.7,65.7,109.2z"/>
	<path style="fill:none;stroke:#000000;stroke-width:2;stroke-miterlimit:10;" d="M186.2,134.3h24.2c16.3,0,24.7,0,25.1,0h0.9
		l0.4,0.2c0.2,0.2,2.4,0.2,6.7,0.2c4.2,0,6.3,9.1,6.3,27.4v27.1h4.5c0,0.2-0.6,0.2-1.8,0.2h-2.2c-0.2,0-0.3,0.4-0.4,1.1
		c0,0.7-1.2,1.1-3.6,1.1s-3.7,0.7-3.8,2l-0.2,2V194c0-1.3-3.4-2.1-10.1-2.2h-9.9v2.7c-0.2,0-0.2,0.2-0.2,0.7v0.7c0,0-0.1-0.7-0.2-2
		v-2h-10.1c-6.7,0-10.2,0.4-10.3,1.3l-0.2,1.6v-2.9h-20v2.9l-0.2,0.4v0.4c-0.2,0-0.2-0.7-0.2-2v-1.8h-20.2v4h-0.2v-0.9l-0.2-0.7
		v-2.5h-20v2.9H140v-1.3c0-0.9-3.4-1.4-10.3-1.6h-10.1v4.3h-0.2v-1.1c0-0.9-0.1-1.3-0.2-1.3v-1.8h-9.9c-6.6,0-9.9,0.7-10.1,2v2
		l-0.2-1.8c-0.2-1.3-1.4-2.1-3.8-2.2c-2.4,0-3.6-0.3-3.6-0.9c0-0.7-2.2-1.2-6.5-1.3h-6.3v-0.2h12.8v-54.5h46.2c30.8,0,46.4,0,46.9,0
		h0.7l0.4-0.2L186.2,134.3z M184.4,142.4v-6.1l14.8,0.2c9.9,0,14.7,2,14.6,5.8c-0.2,3.9-0.6,5.9-1.3,6.1s-5.6,0.2-14.6,0.2h-13.2
		v-0.2h-0.2V142.4z M232.2,148.4l-13.7-0.2l-0.2-5.8v-5.8h14.8c9.7,0,14.6,2,14.6,5.8c0,4-0.3,6.1-0.9,6.1
		C246.2,148.6,241.3,148.6,232.2,148.4z M94.5,162.6v-25.1h49.8l0.2,25.6c0,17.2-0.2,25.8-0.4,25.8c-0.2,0.2-0.3,0.2-0.4,0h-43.3
		c-3.4,0.2-5.2,0.2-5.4,0.2h-0.2v-0.2l-0.2-0.4C94.3,188.1,94.3,179.4,94.5,162.6z M182,163.4v25.8h-16.2c-10.8,0.2-16.5,0.2-17.3,0
		h-0.9v-25.8c0.2-17.1,5.8-25.6,17.1-25.6c11.4,0,17.1,0,17.1,0S181.8,146.4,182,163.4z M184.7,149.8v-0.2l14.6,0.2
		c9.9,0.2,14.8,6.8,14.8,20c0.2,13.5,0.2,20.2,0,20.2c-0.3,0-5.2,0-14.8,0h-14.8v-20.2C184.4,156.4,184.5,149.8,184.7,149.8z
		 M247.7,189.7v0.2h-14.6c-9.7,0-14.6-6.7-14.6-20.2c0-13.2,4.9-19.8,14.6-20c9.7-0.2,14.6,6.4,14.6,19.7
		C247.7,182.8,247.7,189.5,247.7,189.7z"/>
	<path style="fill:none;stroke:#000000;stroke-width:2;stroke-miterlimit:10;" d="M222.1,210.1l0.2,0.2h20.2v6.5
		c0,0.3,0.1,0.4,0.2,0.4c0.3,0,0.4,0.1,0.4,0.2h-10.8l-11-0.2h0.4v-1.6h0.2v-2.5c0-1.8-0.1-2.8-0.2-2.9
		C221.9,210.2,222,210.1,222.1,210.1z"/>
	<path style="fill:none;stroke:#000000;stroke-width:2;stroke-miterlimit:10;" d="M184.4,142.4v-6.1l14.8,0.2c9.9,0,14.7,2,14.6,5.8
		c-0.2,3.9-0.6,5.9-1.3,6.1s-5.6,0.2-14.6,0.2h-13.2v-0.2h-0.2V142.4z M204.2,139.4h0.2v0.7c0,0.6-1.4,0.9-4.3,0.9
		c-2.8,0-4.3-0.3-4.5-0.9c0-0.4,1.3-0.7,4-0.7C202.5,139.3,204,139.3,204.2,139.4z"/>
	<path style="fill:none;stroke:#000000;stroke-width:2;stroke-miterlimit:10;" d="M17.3,204.3v-0.7h20.2v6.7h-20v-0.2
		c0,0-0.1-0.8-0.2-2.5V204.3z"/>
	<path style="fill:none;stroke:#000000;stroke-width:2;stroke-miterlimit:10;" d="M227.3,130.2v0.2h-0.2c-0.2-0.2-0.3-0.2-0.4-0.2
		h-0.2V130h0.2v-0.2h-0.9c-0.4,0-0.9,0-1.3,0s-0.8-0.2-1.1-0.7l-0.2-0.7h-0.2v-0.2h-0.2v-0.4h-0.2v-0.2h0.2l0.4-0.9
		c0.4-0.6,1.4-0.9,2.9-0.9c1.6,0,2.6,0.4,2.9,1.1s0.2,1.4-0.2,2s-0.8,1-1.1,1.1C227.3,130,227.3,130.1,227.3,130.2z"/>
	<path style="fill:none;stroke:#000000;stroke-width:2;stroke-miterlimit:10;" d="M204.2,139.4h0.2v0.7c0,0.6-1.4,0.9-4.3,0.9
		c-2.8,0-4.3-0.3-4.5-0.9c0-0.4,1.3-0.7,4-0.7C202.5,139.3,204,139.3,204.2,139.4z"/>
	<path style="fill:none;stroke:#000000;stroke-width:2;stroke-miterlimit:10;" d="M201.7,210.8v-0.2h20.2v6.7h-20.2v-0.2
		c-0.2,0-0.2-1.1-0.2-3.1v-3.1C201.5,210.8,201.5,210.8,201.7,210.8z"/>
	<path style="fill:none;stroke:#000000;stroke-width:2;stroke-miterlimit:10;" d="M110.8,106.9v-0.2h54.7l0.2,0.9v0.9h-54.5
		c-0.3,0-0.4-0.2-0.4-0.7V106.9z"/>
	<path style="fill:none;stroke:#000000;stroke-width:2;stroke-miterlimit:10;" d="M222.3,194.4v1.8h20c0,0,0.1,0.1,0.2,0.2h0.2v0.2
		c0,0.2-0.1,1.3-0.2,3.4v3.4c-0.2,0.2-0.2,0.2-0.2,0.2h-20v4.9h-0.2v-2.5c0-1.6-3.1-2.5-9.2-2.7h-9.2v-0.2h18.2v-3.4
		c-0.2-2.1-0.2-3.1-0.2-3.1v-0.4h0.2c0.2-0.2,0.2-0.3,0.2-0.4v-0.7C222.1,194.6,222.2,194.4,222.3,194.4z"/>
	<path style="fill:none;stroke:#000000;stroke-width:2;stroke-miterlimit:10;" d="M109.3,191.7h9.9v4.5h-20v-2.5
		C99.3,192.4,102.7,191.7,109.3,191.7z"/>
	<path style="fill:none;stroke:#000000;stroke-width:2;stroke-miterlimit:10;" d="M159.1,105.6h1.8l0.7,0.2c0.6,0.2-0.3,0.2-2.7,0.2
		c-2.2,0-3.1-0.1-2.5-0.2S157.9,105.6,159.1,105.6z"/>
	<path style="fill:none;stroke:#000000;stroke-width:2;stroke-miterlimit:10;" d="M153.2,147.1v4.7h-0.9c-0.6,0-0.9-1.6-0.9-4.7
		c0-3.1,0.3-4.7,0.9-4.7C152.9,142.4,153.2,143.9,153.2,147.1z"/>
	<path style="fill:none;stroke:#000000;stroke-width:2;stroke-miterlimit:10;" d="M197,132.5v-0.2c0,0,0.1,0,0.2,0v0.2h1.8
		c0,0,2.2,0.1,6.5,0.2h8.3l10.5,0.2c7,0,11,0.1,11.9,0.2s1.3,0.3,1.3,0.4s-0.2,0.3-0.4,0.4c-0.4,0.2-0.7,0.2-0.7,0.2h-0.9
		c-0.4,0-8.8,0-25.1,0h-24.7l-0.4-0.2l-0.2-0.2h-0.2v-0.4h0.9l2-0.4c1.3,0,3.2-0.1,5.6-0.2h3.6V132.5z"/>
	<path style="fill:none;stroke:#000000;stroke-width:2;stroke-miterlimit:10;" d="M70.2,190.6l0.7-1.1h7.2v0.2l0.2,3.4v3.1H66.6
		v-2.9h0.2c0-0.2,0.2-0.2,0.4-0.2s0.7-0.2,1.3-0.7C69.3,191.9,69.8,191.3,70.2,190.6z"/>
	<path style="fill:none;stroke:#000000;stroke-width:2;stroke-miterlimit:10;" d="M225.7,130.2h1.3c0,0,0,0.1,0,0.2h0.2v0.9
		l-0.2,0.9v0.2h-1.8v-0.2l-0.2-1.1C225,130.5,225.3,130.2,225.7,130.2z"/>
	<path style="fill:none;stroke:#000000;stroke-width:2;stroke-miterlimit:10;" d="M201.5,203.2h2.2v0.2h9.2c6.1,0.2,9.2,1.1,9.2,2.7
		v2.5h0.2v2c-0.2,0-0.2,0.9-0.2,2.7v2.5h-0.2v-5.2h-20.2v0.2c-0.2,0-0.2,0-0.2,0v-0.2c0-0.2-0.1-0.2-0.2-0.2H201c0-0.2,0-1.3,0-3.4
		l0.2-3.4h-18.4v-0.2h18.6V203.2z"/>
	<path style="fill:none;stroke:#000000;stroke-width:2;stroke-miterlimit:10;" d="M140.2,207v-3.4h19.1c0.6,0,0.9,0.2,0.9,0.7v3.4
		c0,1.6-0.1,2.5-0.2,2.5v0.2h-19.5v-0.2L140.2,207z"/>
	<path style="fill:none;stroke:#000000;stroke-width:2;stroke-miterlimit:10;" d="M75.8,69.9v4.7h-0.9c-0.4,0-0.7-1.6-0.9-4.7
		c0-3.1,0.3-4.7,0.9-4.7S75.8,66.7,75.8,69.9z"/>
	<path style="fill:none;stroke:#000000;stroke-width:2;stroke-miterlimit:10;" d="M182,163.4v25.8h-16.2c-10.8,0.2-16.5,0.2-17.3,0
		h-0.9v-25.8c0.2-17.1,5.8-25.6,17.1-25.6c11.4,0,17.1,0,17.1,0S181.8,146.4,182,163.4z M153.2,147.1v4.7h-0.9
		c-0.6,0-0.9-1.6-0.9-4.7c0-3.1,0.3-4.7,0.9-4.7C152.9,142.4,153.2,143.9,153.2,147.1z"/>
	<path style="fill:none;stroke:#000000;stroke-width:2;stroke-miterlimit:10;" d="M184.7,149.8v-0.2l14.6,0.2
		c9.9,0.2,14.8,6.8,14.8,20c0.2,13.5,0.2,20.2,0,20.2c-0.3,0-5.2,0-14.8,0h-14.8v-20.2C184.4,156.4,184.5,149.8,184.7,149.8z
		 M209.1,177.8h-0.7v-4.9c0-3,0.2-4.6,0.7-4.7c0.6,0,0.9,1.6,0.9,4.7C210,176.2,209.7,177.8,209.1,177.8z"/>
	<path style="fill:none;stroke:#000000;stroke-width:2;stroke-miterlimit:10;" d="M110.6,107.8v-0.9h0.2v0.9c0,0.4,0.2,0.7,0.4,0.7
		h0.4v0.2c0,0-0.1,3.6-0.2,10.8v11l27.1-0.2c18.1,0,27.2-0.1,27.4-0.2h0.2c0.2,0,0.2,0.2,0.2,0.7v0.7h-56.1v-11.4
		C110.4,112.5,110.5,108.4,110.6,107.8z"/>
	<path style="fill:none;stroke:#000000;stroke-width:2;stroke-miterlimit:10;" d="M70.7,137.4v0.4c0.2,0.2,0.2,8.8,0.2,26v25.6
		l-0.7,1.1c-0.4,0.7-1,1.3-1.6,1.8c-0.6,0.4-1.1,0.7-1.3,0.7s-0.4,0.1-0.4,0.2H18.2v1.1l-0.2,1.3h-0.4v-0.2l-0.2-0.4V194
		c0.2-0.3,0.2-0.4,0.2-0.4c0-0.2-0.2-0.3-0.4-0.4c-0.3-0.3-0.8-0.7-1.6-1.3c-0.7-0.7-1.1-9.9-1.1-27.6v-26.7c0-0.2,0.1-0.4,0.2-0.7
		l0.2-0.4c0.2-0.2,0.2-0.2,0.2-0.2h0.2c0,0,0-0.1,0-0.2c0.2-0.2,0.2-0.2,0.2-0.2l0.4-0.4c0.3-0.3,0.7-0.4,1.1-0.4
		c0.4-0.3,9-0.3,25.6,0c16.8,0,25.5,0.3,26.3,0.9c0.7,0.4,1.2,0.9,1.3,1.3C70.4,137.3,70.5,137.4,70.7,137.4z M65.7,150
		c0.2-2.5,0.5-3.7,1.1-3.6c0.6,0,0.9,3,0.9,9s-0.3,9-0.9,9s-0.9-1.7-0.9-5.2C65.7,155.8,65.6,152.7,65.7,150z"/>
	<path style="fill:none;stroke:#000000;stroke-width:2;stroke-miterlimit:10;" d="M201.7,196.7l10.1-0.2h9.9v0.2
		c0,0,0.1,1.1,0.2,3.1v3.4h-20.4v-6.3C201.5,196.7,201.5,196.7,201.7,196.7z"/>
	<path style="fill:none;stroke:#000000;stroke-width:2;stroke-miterlimit:10;" d="M0.7,207v-3.6h16.2l0.2,0.9c0,0.6,0.1,0.9,0.2,0.9
		v2.5c0.2,1.6,0.2,2.5,0.2,2.5v0.2h-0.4v6.1h-0.2v-5.8H0.9v-0.2L0.7,207z"/>
	<path style="fill:none;stroke:#000000;stroke-width:2;stroke-miterlimit:10;" d="M18.2,194.4v-1.1h0.7l23.1,0.2
		c15.4,0,23.1,0.1,23.1,0.2H18.6v2.5h19.7v0.2h0.2v0.2h-0.4c-0.2,0-0.2,1.1-0.2,3.1v3.4H55v0.2H37.7v4.9h-0.2v-4.7H17.3v1.6
		c-0.2,0-0.2-0.3-0.2-0.9l-0.2-0.9v-0.2c0.2,0,0.2-1.1,0.2-3.4v-3.1h-0.2l0.2-0.2v-1.8h0.2v0.4l0.2,0.4v0.2h0.4L18.2,194.4z"/>
	<path style="fill:none;stroke:#000000;stroke-width:2;stroke-miterlimit:10;" d="M160.6,213.7v-3.1h20.2v0.9c0,0.7,0.1,1.1,0.2,1.1
		v2.2l-0.2,2.2v0.2h-20.2v-0.2c0,0-0.1-0.1-0.2-0.2h0.2V213.7z"/>
	<path style="fill:none;stroke:#000000;stroke-width:2;stroke-miterlimit:10;" d="M70.7,130.9v2.9c0.2,2.1,0.2,3.2,0,3.4v0.2
		c-0.2,0-0.3-0.2-0.4-0.4c-0.2-0.4-0.6-0.9-1.3-1.3c-0.7-0.6-9.5-0.9-26.3-0.9c-16.6-0.3-25.1-0.3-25.6,0c-0.4,0-0.8,0.2-1.1,0.4
		l-0.4,0.4c-0.2,0-0.2,0-0.2,0v0.2c0,0-0.1,0.1-0.2,0.2h-0.2v0.2h-0.2l-0.2,0.2l-0.2-2.5v-2.5h0.4l0.2,0.2v0.2h0.4
		c0,0,0.1,0.1,0.2,0.2h0.2l0.2,0.2c0.2,0,9,0,26.7,0c17.7-0.3,26.7-0.6,27.1-0.9c0.4-0.3,0.7-0.4,0.7-0.4
		C70.5,131,70.5,130.9,70.7,130.9z"/>
	<path style="fill:none;stroke:#000000;stroke-width:2;stroke-miterlimit:10;" d="M37.9,213v-2.5h20v6.7H39c-0.7,0-1.1-0.3-1.1-0.9
		V213z"/>
	<path style="fill:none;stroke:#000000;stroke-width:2;stroke-miterlimit:10;" d="M50.5,46.8h14.6c9.9,0,14.9,0.3,15,0.9
		s0.2,7.2,0,19.7c-0.2,12.7-4.9,19.1-14.4,19.3c-9.6,0-14.6,0.1-15,0.2h-0.4V67C50.3,53.5,50.3,46.8,50.5,46.8z M75.8,69.9v4.7h-0.9
		c-0.4,0-0.7-1.6-0.9-4.7c0-3.1,0.3-4.7,0.9-4.7S75.8,66.7,75.8,69.9z"/>
	<path style="fill:none;stroke:#000000;stroke-width:2;stroke-miterlimit:10;" d="M146.7,66.7v20h-14.8c-9.9,0-14.7-6.6-14.6-19.7
		c0.2-13.3,5.1-20,14.8-20S146.7,53.6,146.7,66.7z M142.7,69.9v4.7h-0.9c-0.6,0-0.8-1.6-0.7-4.7c0-3.1,0.3-4.7,0.9-4.7
		C142.6,65.2,142.9,66.7,142.7,69.9z"/>
	<path style="fill:none;stroke:#000000;stroke-width:2;stroke-miterlimit:10;" d="M160.2,195.3v-1.1l0.2,0.7v0.9l0.2,0.2
		c0,0.2,0.2,0.3,0.4,0.4h0.2l-0.2,0.2c-0.3,0-0.4,1.1-0.4,3.1v3.4H179v0.2h-9.2c-6.1,0-9.3,0.3-9.4,0.9l-0.2,0.9v-0.9
		c0-0.4-0.3-0.7-0.9-0.7h-0.7c0-0.2-3.1-0.2-9.2-0.2H140v-6.7h0.2l9.2-0.2l9-0.2h0.9C159.9,196.2,160.2,195.9,160.2,195.3z"/>
	<path style="fill:none;stroke:#000000;stroke-width:2;stroke-miterlimit:10;" d="M119.6,194v-2.2h10.1c6.9,0.2,10.3,0.7,10.3,1.6
		v1.3h0.2v1.6h18.2l-9,0.2l-9.2,0.2h-0.4l-9.9-0.2h-10.3V194z"/>
	<path style="fill:none;stroke:#000000;stroke-width:2;stroke-miterlimit:10;" d="M209.1,177.8h-0.7v-4.9c0-3,0.2-4.6,0.7-4.7
		c0.6,0,0.9,1.6,0.9,4.7C210,176.2,209.7,177.8,209.1,177.8z"/>
	<path style="fill:none;stroke:#000000;stroke-width:2;stroke-miterlimit:10;" d="M110.6,91.9v-0.2l28,0.2c18.6,0,27.8,2.9,27.8,8.8
		c0,5.8,0,8.8,0,8.8c-0.2-0.2-0.3-0.3-0.4-0.4c0-0.2-0.2-0.2-0.4-0.2l-0.2-0.2c0.2,0,0.2-0.3,0.2-0.9v-1.1c0-0.2-0.1-2.5-0.2-7.2
		l-0.2-6.7h-25.4c-16.9,0-25.8,0-26.7,0h-1.6c-0.2,0-0.2,2.2-0.2,6.7v7h-0.2v0.2h-0.4v-0.2h-0.2v-7.2
		C110.4,94.3,110.5,91.9,110.6,91.9z"/>
	<path style="fill:none;stroke:#000000;stroke-width:2;stroke-miterlimit:10;" d="M125.2,170.2v-14.8h2.7v29.8h-2.7V170.2z"/>
	<path style="fill:none;stroke:#000000;stroke-width:2;stroke-miterlimit:10;" d="M121.6,105.6h0.4l0.4,0.4c0.4,0-0.4,0-2.7,0
		c-2.4,0-3.4,0-3.1,0c0.4-0.3,1.3-0.4,2.7-0.4C120.7,105.6,121.4,105.6,121.6,105.6z"/>
	<path style="fill:none;stroke:#000000;stroke-width:2;stroke-miterlimit:10;" d="M197.9,125.8h2.2v0.4h0.2v0.2h0.2v0.4l0.2,0.2
		c0.2,0.2,0.2,0.3,0.2,0.4c0,0,0,0.2,0,0.4c-0.3,0.4-0.7,0.9-1.1,1.3l-0.9,0.9h-1.8c0,0-0.2-0.1-0.7-0.2s-0.9-0.4-1.3-0.9l-0.9-0.9
		v-0.9l0.2-0.2l0.2-0.2v-0.2l0.2-0.2l0.2-0.2V126l0.2-0.2C195.6,125.8,196.4,125.8,197.9,125.8z"/>
	<path style="fill:none;stroke:#000000;stroke-width:2;stroke-miterlimit:10;" d="M0.7,197.1v-0.4h16.2v6.5H0.7V197.1z"/>
	<path style="fill:none;stroke:#000000;stroke-width:2;stroke-miterlimit:10;" d="M161.1,196.7l0.2-0.2h19.3v0.2
		c0.2,0,0.2,0.3,0.2,0.9v5.6h-20.2v-3.4C160.6,197.7,160.8,196.7,161.1,196.7z"/>
	<path style="fill:none;stroke:#000000;stroke-width:2;stroke-miterlimit:10;" d="M58.1,209.7v0.4c0.2,0,0.2,0,0.2,0v0.2l9.9-0.2
		c6.6,0,9.9-0.1,10.1-0.2v-0.2c0.2,0,0.2,0.2,0.2,0.4v3.8c0,2.2,0.2,3.4,0.7,3.4h0.7v0.2H39.9v-0.2h17.9v-7.2
		C57.9,209.8,58,209.7,58.1,209.7z"/>
	<path style="fill:none;stroke:#000000;stroke-width:2;stroke-miterlimit:10;" d="M121.6,170.6v14.8h-1.3c-0.7,0-1.1-0.1-1.1-0.2
		h-0.2l0.2-14.8c0-10,0.4-15,1.1-14.8C121.2,155.6,121.6,160.6,121.6,170.6z"/>
	<path style="fill:none;stroke:#000000;stroke-width:2;stroke-miterlimit:10;" d="M78.5,213.9v-3.4h20.4v6.7H79.2
		C78.8,217.3,78.5,216.2,78.5,213.9z"/>
	<path style="fill:none;stroke:#000000;stroke-width:2;stroke-miterlimit:10;" d="M99.6,45h15.5l0.2,21.1
		c0.3,14.1,0.4,21.2,0.4,21.5v0.9H48.5V45h17.9C78.4,45,89.5,45,99.6,45z M50.5,46.8h14.6c9.9,0,14.9,0.3,15,0.9s0.2,7.2,0,19.7
		c-0.2,12.7-4.9,19.1-14.4,19.3c-9.6,0-14.6,0.1-15,0.2h-0.4V67C50.3,53.5,50.3,46.8,50.5,46.8z M113.5,66.7v20H84.1l0.2-20
		c0-13.3,4.9-20,14.6-20S113.5,53.4,113.5,66.7z"/>
	<path style="fill:none;stroke:#000000;stroke-width:2;stroke-miterlimit:10;" d="M214,126.2v0.9c-0.2,0.6-0.2,1-0.2,1.1h-0.2v0.2
		h-1.3c-0.9,0-1.3-0.1-1.3-0.2h-0.2V128c-0.2,0-0.2-0.3-0.2-0.9v-0.9h0.2l1.1-0.2c0.9-0.2,1.5-0.2,1.8,0
		C213.8,126.1,213.9,126.2,214,126.2z"/>
	<path style="fill:none;stroke:#000000;stroke-width:2;stroke-miterlimit:10;" d="M111.5,92.6h1.6c0.9,0,9.8,0,26.7,0h25.4l0.2,6.7
		c0.2,4.6,0.2,7,0.2,7.2v0.2h-40.4v-0.2h9.4c6.4,0,9.9,0,10.3,0h1.1v-0.2h0.2V106h-0.2v-0.2c-0.2,0-0.6-0.4-1.3-1.1
		c-0.7-0.9-1.7-1.6-2.9-2.2c-1.2-0.6-2.5-1.1-4-1.3c-1.5-0.3-2.8-0.4-4-0.4c-1.3,0.3-2.7,0.7-4,1.1c-1.2,0.4-2.2,1.1-3.1,2l-1.3,1.1
		H125v0.2h-0.2v0.2h-0.2v0.2h-0.2v1.1h-6.7l-6.5,0.2h-0.4v-0.2l0.2-0.2h0.2v-0.2h0.2v-7C111.3,94.8,111.4,92.6,111.5,92.6z
		 M121.6,105.6h0.4l0.4,0.4c0.4,0-0.4,0-2.7,0c-2.4,0-3.4,0-3.1,0c0.4-0.3,1.3-0.4,2.7-0.4C120.7,105.6,121.4,105.6,121.6,105.6z
		 M159.1,105.6h1.8l0.7,0.2c0.6,0.2-0.3,0.2-2.7,0.2c-2.2,0-3.1-0.1-2.5-0.2S157.9,105.6,159.1,105.6z"/>
</g>
</svg>
