<?xml version="1.0" encoding="utf-8"?>
<!-- Generator: Adobe Illustrator 17.0.0, SVG Export Plug-In . SVG Version: 6.00 Build 0)  -->
<!DOCTYPE svg PUBLIC "-//W3C//DTD SVG 1.1//EN" "http://www.w3.org/Graphics/SVG/1.1/DTD/svg11.dtd" [
	<!ENTITY ns_flows "http://ns.adobe.com/Flows/1.0/">
	<!ENTITY ns_extend "http://ns.adobe.com/Extensibility/1.0/">
	<!ENTITY ns_ai "http://ns.adobe.com/AdobeIllustrator/10.0/">
	<!ENTITY ns_graphs "http://ns.adobe.com/Graphs/1.0/">
]>
<svg version="1.1"
	 id="svg2" xmlns:x="&ns_extend;" xmlns:i="&ns_ai;" xmlns:graph="&ns_graphs;" sodipodi:docname="New document 1" inkscape:version="0.48.4 r9939" xmlns:inkscape="http://www.inkscape.org/namespaces/inkscape" xmlns:sodipodi="http://sodipodi.sourceforge.net/DTD/sodipodi-0.dtd" xmlns:rdf="http://www.w3.org/1999/02/22-rdf-syntax-ns#" xmlns:cc="http://creativecommons.org/ns#" xmlns:dc="http://purl.org/dc/elements/1.1/" xmlns:svg="http://www.w3.org/2000/svg"
	 xmlns="http://www.w3.org/2000/svg" xmlns:xlink="http://www.w3.org/1999/xlink" xmlns:a="http://ns.adobe.com/AdobeSVGViewerExtensions/3.0/"
	 x="0px" y="0px" width="256px" height="256px" viewBox="0 0 256 256" style="enable-background:new 0 0 256 256;"
	 xml:space="preserve">
<sodipodi:namedview  id="base" inkscape:window-height="1000" inkscape:document-units="px" inkscape:window-y="-8" inkscape:window-x="-8" inkscape:pageshadow="2" inkscape:current-layer="layer1" inkscape:window-maximized="1" inkscape:pageopacity="0.0" inkscape:window-width="1680" showgrid="false" pagecolor="#ffffff" inkscape:cx="375" bordercolor="#666666" inkscape:zoom="0.35985915" borderopacity="1.0" inkscape:cy="520">
	</sodipodi:namedview>
<g id="layer1" transform="translate(0,-52.362183)" inkscape:groupmode="layer" inkscape:label="Layer 1">
	<path id="path3000" inkscape:connector-curvature="0" style="stroke:#FFFFFF;stroke-miterlimit:10;" d="M21.6,290.1
		c0.3-2.7,0.3-3-0.8-3.7c-1-0.7-1.1-0.9-0.6-2.3c0.3-0.8,0.4-2,0.3-2.7c-0.3-1.4,0-1.5,1.3-0.4c0.9,0.8,0.9,1.2,0.6,3.7
		c-0.3,2.5-0.2,2.9,0.4,2.9c0.9,0,1,1.6,0,3.7C21.9,294,21.2,293.4,21.6,290.1L21.6,290.1z M87.8,289.7c-0.2-0.2-0.3-0.8-0.3-1.5
		c0-0.7-0.2-1.4-0.5-1.5c-0.3-0.2-0.5-0.7-0.5-1.1c0-0.5-0.2-1.2-0.4-1.6c-0.7-1.2-1.9-5.2-1.9-6.2c0-0.5-0.2-0.9-0.5-0.9
		c-0.3,0-0.5-0.4-0.5-0.8c0-0.4-0.2-1-0.4-1.2s-0.8-1.4-1.2-2.6c-1-2.7-1.6-4-2.5-5.7c-0.4-0.7-0.7-1.9-0.7-2.8
		c0-0.8-0.2-1.9-0.4-2.3c-0.5-0.8,0.5-4.2,1.4-5.1c0.2-0.2,0.4-0.9,0.4-1.4s0.2-1.1,0.5-1.3c0.6-0.4,0.6-11.5-0.1-12.6
		c-0.3-0.5-0.5-2-0.5-3.4c0-1.4-0.3-3.1-0.7-3.9s-0.6-2.2-0.6-3.1s-0.2-1.9-0.4-2.1s-0.5-1.5-0.6-2.8c-0.1-1.3-0.6-4.3-1-6.6
		c-0.5-2.3-1-5.2-1.2-6.4l-0.3-2.2l-0.4,1.9c-0.2,1-0.6,2-0.8,2.1c-0.2,0.1-0.4,1.1-0.4,2.2c0,1.1-0.2,2-0.4,2.2
		c-0.2,0.1-0.5,0.9-0.6,1.7c-0.3,2-1.3,5.7-1.8,6.6c-0.2,0.4-0.4,1.3-0.4,1.8c0,0.6-0.2,1.5-0.4,2.1c-0.2,0.6-0.8,2.2-1.2,3.7
		c-0.4,1.5-1.2,3.4-1.6,4.4c-0.5,1-1,2.3-1.2,2.9c-0.4,1.4-1.5,3.6-4,8.4c-1.1,2.1-2.3,4.2-2.5,4.7c-0.3,0.5-0.7,1-0.9,1
		c-0.2,0-0.4,0.2-0.4,0.5c0,0.3-0.5,1.1-1.2,1.9c-0.6,0.8-1.2,1.7-1.2,1.9c0,1-5.4,5.8-6.5,5.8c-1.4,0-2.5,0.9-2.5,2.1
		c0,0.5-0.3,1-0.7,1.1c-0.4,0.1-0.7,0.6-0.7,1s-0.5,1.4-1.2,2.3c-1,1.2-1.4,1.4-1.9,1c-0.8-0.6-1.4,0.1-3.6,3.8
		c-1,1.8-1.5,2.3-2.8,2.4c-1.3,0.2-1.8,0.6-3.2,3.2c-0.9,1.6-1.9,3-2.2,3c-0.5,0-1.7-2-1.7-2.9c0-0.3,0.4-0.9,1-1.5
		c0.7-0.7,1.3-0.9,2.1-0.7c0.9,0.2,1.2,0.1,1.2-0.5c0-1.2,3.9-5.5,4.5-5c0.6,0.5,1.2,0.6,1.2,0c0-0.8,3-4.9,3.6-4.9
		c0.4,0,0.6,0.2,0.6,0.4s0.3,0.4,0.7,0.4c0.4,0,0.7-0.4,0.7-1.1c0-0.6,0.2-1.1,0.5-1.1c0.3,0,0.5-0.3,0.5-0.7c0-1.4,2.5-4.1,3.8-4.2
		c1.3,0,4-3,6.1-6.6c0.6-1.1,1.5-2.5,2-3c1.1-1.3,5.6-10,8-15.3c0.2-0.5,0.7-1.8,1-2.9s1-3.2,1.5-4.6c0.5-1.5,1.1-3.4,1.3-4.4
		c0.7-3.3,3.4-13.2,3.8-14c0.2-0.4,0.4-1.3,0.4-2c0-0.7,0.3-2,0.7-3c0.8-2,0.9-7.8,0.3-8.4c-0.5-0.4-1-4.7-1.8-12.7
		c-0.4-4.6-0.9-3.5-1.9,4.1c-0.2,1.7-0.5,3.4-0.7,3.6c-0.4,0.6-1.2,7.6-1.5,12.8c-0.3,4.8-0.6,6.1-1.2,4.4c-0.5-1.7-0.5-6.8,0-8.2
		c0.3-0.7,0.7-3.3,1-5.9c0.9-8.9,1.8-13.7,2.7-15.3c0.3-0.6,0.5-1.9,0.3-3.3c-0.2-1.4,0-2.5,0.3-2.9c0.3-0.4,0.7-1.7,1-2.9
		c0.8-4.7,0.9-5.1,1.6-5.6c0.4-0.3,0.7-0.9,0.7-1.4s0.6-1.6,1.4-2.5c4.5-5.1,5.2-6.1,5.2-6.5c0-0.3,0.5-0.8,1-1.2
		c0.6-0.4,1.6-1.1,2.3-1.6c1.4-1.2,5.5-4,7.1-4.8c2.9-1.6,6.6-3.1,7.4-3.1c0.5,0,1.5-0.3,2.3-0.7c0.7-0.4,1.9-0.7,2.6-0.7
		c0.7,0,1.4-0.2,1.6-0.4c0.2-0.2,1.5-0.4,2.9-0.4c1.4,0,3.4-0.3,4.3-0.7s2.8-0.7,4.2-0.7s3.3-0.3,4.2-0.7c0.9-0.4,2.7-0.7,4-0.7
		c1.3,0,2.5-0.2,2.6-0.4s1.4-0.5,2.7-0.7c5-0.6,6.9-1.6,6.9-3.8c0-0.6,0.2-1.3,0.4-1.5c0.6-0.7,1-5,0.5-5.3
		c-0.6-0.4-0.1-3.9,0.8-5.7c0.4-0.7,0.7-1.5,0.7-1.9c0-0.7,0.6-0.8,1.3-0.1c0.5,0.4,0.5,0.2,0.3-0.9c-0.2-0.9-0.1-1.4,0.2-1.4
		c0.3,0,0.5-0.3,0.5-0.7s0.5-1.4,1.1-2.1c1.6-2,2.4-3.6,2.1-4.1c-0.2-0.2,0.2-1,0.8-1.6c0.7-0.7,1.2-1,1.4-0.7
		c0.3,0.4,0,1.2-1.2,3.1c-0.2,0.4-0.5,0.9-0.7,1.3c-1,2.4-1.7,3.5-2.5,4.2c-0.5,0.5-1,1.1-1,1.4c0,0.7,1.2,0.8,1.7,0.2
		c0.4-0.6,1.2-0.6,1.2,0c0,0.5-2.9,4.6-3.4,4.8c-0.2,0.1-0.4,0.7-0.4,1.5c0,1.2,0.1,1.3,0.7,0.8c0.5-0.4,0.9-0.4,1.3-0.1
		c0.4,0.4,0.2,0.9-0.6,2.2c-0.6,0.9-1.8,2.9-2.5,4.3c-0.7,1.5-1.5,3-1.7,3.4s-0.4,1.4-0.4,2.2c0,0.8-0.2,1.7-0.5,2
		c-0.6,0.6-1.1,4.5-0.5,4.5c0.2,0,0.8-0.8,1.3-1.8c0.5-1,1-1.8,1.3-1.8c0.8,0,0.9,1.4,0.2,2.2c-0.4,0.4-0.8,1-0.8,1.3
		s-0.2,0.9-0.4,1.3c-1.8,3.4-2,4.1-1.7,4.8c0.3,0.7,0.4,0.7,0.6,0.1c0.7-1.6,1.9-2.8,2.4-2.4c0.3,0.3,0.1,1.2-0.6,2.6
		c-1.3,2.4-2.1,5.2-2.4,8.1c-0.3,2.2,0.3,3.6,0.7,1.7c0.1-0.7,0.5-1.4,0.8-1.5c0.7-0.2,0.8,3,0.1,3.7c-0.5,0.5-0.8,14.1-0.3,14.6
		c0.1,0.1,0.4-0.2,0.6-0.7c0.6-1.9,1.4-0.6,1.7,2.9c0.2,1.9,0.5,4.8,0.7,6.3c0.4,2.7,0.5,2.8,0.8,1.4c0.6-2.5,1.4-1.3,2,3.5
		c0.6,4.6,1.2,6.3,3.3,10.3c2.1,4.1,5,8.2,5.9,8.2c0.4,0,0.2-2.1-0.4-4.1c-0.4-1.3,1.2-0.9,1.8,0.4c0.3,0.7,0.7,1.6,0.9,2
		c0.2,0.4,0.4,1,0.4,1.3c0,0.6,3,4.5,5.1,6.6c0.8,0.8,1.5,1.7,1.5,1.9c0,0.2,0.2,0.3,0.5,0.3c0.3,0,0.4-0.7,0.2-1.8
		c-0.4-2.4,0.4-2.3,3.1,0.4c1.2,1.2,2.6,2.2,3,2.2c0.5,0,0.9,0.5,1.1,1.2c0.2,0.7,0.7,1.8,1.2,2.5c0.5,0.7,1,1.6,1.1,2
		c0.2,0.4,0.5,1,0.7,1.4c0.2,0.4,0.4,1.1,0.5,1.5c0,0.6,0.2,0.4,0.7-0.5c0.9-1.5,1.3-1.3,2.1,1c0.7,2.1,1.2,2.2,2,0.7
		c0.8-1.6,1.8-1.4,1.8,0.4c0,2.2,0.9,1.9,2-0.7c0.7-1.5,1.3-2.2,1.9-2.2c1.3,0,11.8-10.1,14.1-13.7c1.6-2.5,2.3-2.7,2.3-1
		c0,1.2,0,1.2,1.8-0.6c1-1,2.2-2.4,2.8-3.1c0.8-1,1.2-1.1,1.6-0.7c0.5,0.4,0.5,0.7,0,1.1c-0.7,0.6-0.8,2.1-0.1,2.1
		c0.3,0,0.6-0.2,0.8-0.5c0.2-0.3,0.4-0.3,0.7,0.1c0.6,0.9,0.5,2.2-0.3,3c-0.4,0.5-0.6,0.9-0.3,1c0.9,0.6,8.2-8.2,10.3-12.4
		c1-2.1,1.4-2.3,1.9-1c0.3,0.8,0.4,0.7,1.2-0.7c0.5-0.9,0.9-1.9,0.9-2.2s0.2-0.6,0.5-0.6s0.5-0.5,0.5-1.1c0-1.5,1.5-4.1,2.4-4.4
		c0.5-0.1,0.9-0.9,1-1.9c0.5-3,1.3-6,1.5-6.3c0.2-0.2,0.6,0.1,0.9,0.6c1,1.2,0.8,4-0.2,5c-0.8,0.7-1,1.3-1.7,4.3
		c-0.5,2-1.8,4.2-2.6,4.2c-0.7,0-2.4,2.8-2.4,3.9c0,0.3-0.4,1-0.8,1.6c-0.4,0.6-1.1,1.7-1.5,2.5c-0.5,0.9-1.1,1.4-1.8,1.4
		c-0.9,0-2,1-5,4.6c-0.3,0.4-1.4,1.5-2.3,2.6c-1.5,1.7-1.8,2.3-1.8,4.2c0,1.2-0.3,2.9-0.6,3.8c-0.9,2.4,0.2,20.7,1.2,20.7
		c0.2,0,0.7,0.5,1,1.1c0.4,0.7,0.9,1.1,1.7,1.1c0.6,0,1.7,0.3,2.4,0.6s1.8,0.9,2.6,1.2c2,0.9,4.1,4.4,4.1,6.8c0,2.2-1.1,3.2-2,1.8
		c-0.2-0.4-0.9-0.7-1.6-0.7s-1.2-0.2-1.2-0.5c0-0.9-18.6,0.5-19.6,1.5c-0.6,0.6-2.3,0.4-3.9-0.6l-1.6-0.9l0.3-3.9
		c0.2-3,0.1-4.2-0.4-5.1s-0.6-2.2-0.4-5c0.6-8.5,0.8-16.3,0.4-16.3c-0.2,0-1,0.5-1.6,1c-0.7,0.6-1.9,1.5-2.8,1.9
		c-2.4,1.4-3.5,2.7-4.4,5.3c-0.9,2.5-1.5,2.9-1.9,1.2c-0.3-1.2-0.9-1.4-1.4-0.7c-0.5,0.8-1.7,0.5-1.7-0.4c0-1.5-0.9-1.5-1.3,0
		l-0.3,1.4l-1.1-1.2c-0.6-0.7-1.1-1.7-1.1-2.3c0-0.6-0.2-1.2-0.5-1.3c-0.3-0.2-0.5-0.7-0.5-1.1c0-0.5-0.5-1.6-1.1-2.5
		c-0.6-0.9-1.4-2.2-1.7-2.9c-0.8-1.5-1.4-1.6-1.4-0.1c0,1-0.2,1.1-1.2,0.9c-1-0.2-1.2-0.1-1.2,0.6c0,0.5-0.2,1.2-0.4,1.7
		c-1.3,2.3-2.4,8.6-2.9,15.5c-0.4,5.8-0.2,8.6,0.9,11.2c0.3,0.7,0.5,2.1,0.5,3.2s0.2,2.3,0.5,2.8c0.6,1-0.6,2.7-1.8,2.7
		c-0.5,0-1.2,0.3-1.5,0.7c-0.9,1-5.5,4.1-6.1,4.1c-0.3,0-0.5,0.2-0.5,0.4c0,0.2-0.8,0.5-1.8,0.7c-1.8,0.3-3.1,0.7-5.5,1.8
		c-0.7,0.3-1.7,0.6-2.2,0.6c-0.5,0-2.1,0.3-3.6,0.7c-4.6,1.1-8.4,0.7-6.8-0.8c0.3-0.3,0.5-1.3,0.5-2.3c0-1.1,0.3-2.1,0.7-2.4
		c0.4-0.3,0.7-0.9,0.7-1.3c0-0.8,2.3-2.9,4.6-4.2c2.7-1.5,4.1-6.2,4.1-13.4c0-5.4-1-18.4-1.7-23.7l-0.5-3.6h-1.5
		c-0.8,0-2.1-0.4-2.8-0.8c-0.8-0.5-1.8-0.7-2.5-0.6c-0.8,0.2-1.5-0.1-2.4-1l-1.3-1.2l-1.9,4.6c-1,2.5-2.3,5.2-2.8,5.9
		c-0.5,0.7-1.4,2-1.9,2.8c-1.5,2.4-5.9,7.9-6.4,7.9c-0.2,0-0.7,0.7-1.2,1.5c-0.4,0.8-2.8,3.5-5.3,5.9c-5.2,4.9-9.6,10.2-10.2,12
		c-1.5,4.8-1.8,7-1.2,10c0.3,1.7,0.7,3.3,1,3.5c0.2,0.2,0.4,0.9,0.4,1.6c0,0.7,0.6,1.8,1.7,2.8c0.9,0.9,1.5,1.8,1.4,2
		c-0.5,0.7-3.7,0.5-5-0.3c-3.7-2.3-3.8-2.7-5.3-10.9c-1.1-6.5-0.1-17.7,1.9-21.2c0.3-0.5,0.6-1.5,0.6-2.1s0.2-1.2,0.5-1.4
		c0.3-0.2,0.5-0.6,0.5-1.1c0-0.8,0.8-2.9,1.9-4.9c0.2-0.4,0.4-1.1,0.4-1.6c0-0.4,0.2-1,0.4-1.2c0.2-0.2,0.7-1.6,1.2-3.1
		c0.5-1.5,1-3.3,1.3-4c0.2-0.7,0.4-1.8,0.4-2.4c0-0.6,0.2-2.2,0.5-3.5c0.9-4.5,1.5-9,1.9-13.3c0.8-8.7,0.9-9.5,1.4-9.9
		c0.3-0.3,0.6,0,0.9,0.8c0.3,0.7,0.7,1.1,1,0.9c0.3-0.2,0.8-0.1,1.2,0.3c0.6,0.4,0.8,0.4,1.4-0.3c0.7-0.8,0.7-0.8,1.4,0
		c0.4,0.5,0.7,1.4,0.7,1.9c0,1.1,0,1.1,1,0.3c0.9-0.7,1-0.8,1.5-0.2c0.3,0.4,0.9,0.8,1.4,1c0.6,0.2,0.8,0.8,0.8,2.3
		c0,1.1,0.2,2.1,0.5,2.3c0.3,0.2,0.5,0.9,0.5,1.7c0,0.9,0.2,1.3,0.5,0.9c0.7-0.6,0.7-6.9,0-7.1c-0.6-0.2-0.7-2.3-0.1-2.3
		c0.7,0,0.6-1-0.2-2.5c-0.4-0.7-0.9-1.8-1.3-2.6c-0.3-0.7-0.9-1.7-1.3-2.1c-0.5-0.6-0.6-0.9-0.1-1.3c0.5-0.4,0.8-0.3,1.5,0.6
		c0.5,0.6,0.9,1.5,0.9,1.9c0,0.4,0.2,0.8,0.4,0.8c0.5,0,2,3.1,2,4.1c0,0.4,0.2,0.8,0.5,1s0.5,0.9,0.5,1.8c0,0.8,0.2,1.6,0.5,1.8
		c0.3,0.2,0.5,0.9,0.5,1.7c0,0.8,0.3,1.8,0.7,2.3c0.4,0.5,0.7,1.2,0.7,1.6c0,0.4,0.2,0.8,0.4,0.9c0.5,0.2,2,3.4,2,4.2
		c0,0.6,0.1,0.6,0.6,0.2c1-0.9,1.7-0.6,3,1.3c1.2,1.7,1.3,1.7,2.2,1c0.9-0.7,1-0.7,2.6,0.9c1.4,1.4,1.8,1.6,2.6,1.2
		c0.7-0.4,1.1-0.3,1.9,0.5c1.3,1.2,1.5,0.9,1.7-1.7c0.3-4,1-8.1,1.5-8.6c0.8-0.7,0.6-4-0.2-5c-0.4-0.5-0.7-1.2-0.7-1.6
		c0-0.4-0.7-1.9-1.5-3.5c-1.5-3-2.3-5.5-2.7-9.1c-0.2-1.6-0.6-2.5-1.4-3.2c-0.9-0.8-1.1-1.5-1.1-2.9c0-1.1-0.2-2.1-0.5-2.2
		c-0.3-0.2-0.5-2.2-0.5-4.5c0-3-0.2-4.4-0.7-4.8c-0.5-0.5-0.6-3.1-0.6-14.3c0.1-13.4-0.1-14.5-1.4-13.3c-0.3,0.2-1.7,0.5-3.3,0.6
		c-2.4,0.1-2.8,0.3-2.8,0.9c0.1,0.7-0.1,0.7-1.2,0.5c-1.6-0.5-9.4-0.2-10.5,0.3c-0.4,0.2-2.5,0.4-4.5,0.4c-2.3,0-4.1,0.3-4.9,0.6
		c-0.6,0.4-1.7,0.6-2.4,0.6c-0.7,0-1.8,0.3-2.6,0.7c-0.7,0.4-1.7,0.7-2.1,0.7c-0.9,0-3.2,1-6.3,2.9c-1.3,0.8-2.8,1.5-3.4,1.7
		c-0.6,0.2-1,0.5-1,0.7s-0.3,0.4-0.6,0.4c-0.3,0-0.9,0.4-1.4,0.8c-0.4,0.4-1.5,1.4-2.3,2.1c-1.8,1.5-6.3,7.1-7.1,8.8
		c-0.3,0.6-0.7,1.1-0.9,1.1c-0.4,0-0.9,1.7-1.2,3.6c-0.1,0.6-0.5,2.1-0.9,3.3c-0.6,1.7-0.8,3.6-0.7,9.3c0,4,0.3,7.4,0.5,7.7
		s0.6,2.2,0.8,4.2c0.2,2.1,0.5,3.9,0.7,4.2c0.2,0.2,0.5,2.3,0.7,4.6c0.5,6.8,1,10.3,1.5,11c0.3,0.4,0.6,1.8,0.8,3.3
		c0.2,1.5,0.6,3.9,0.8,5.5c0.3,1.6,0.7,4,0.9,5.3c0.2,1.3,0.6,3.3,0.9,4.4c1.1,4.3,1.5,8,1.6,13.3c0,3.1,0.2,5.7,0.4,5.8
		c0.6,0.3,1.9-4.8,1.9-7.4c0-1.7,0.1-2.1,0.5-1.7c0.3,0.4,0.5,1.9,0.5,3.5c0,2.5-0.9,5-2.7,7.5c-0.1,0.1-0.5-0.1-0.8-0.4
		c-0.6-0.5-0.7-0.4-0.7,0.1c0,0.4,0.2,0.8,0.5,1c0.6,0.4,0.6,2.3,0,2.6c-0.3,0.2-0.7-0.2-0.9-0.7c-0.7-1.7-1-0.1-0.8,4
		c0.1,2.8,0.4,4.3,1.2,6c2.7,5.5,3.4,6.9,3.4,7.7c0,0.5,0.2,0.9,0.5,0.9c0.3,0,0.5,0.5,0.5,1s0.3,1.6,0.7,2.3
		c0.4,0.7,0.7,1.8,0.7,2.5s0.2,1.3,0.5,1.5c0.3,0.2,0.5,0.6,0.5,1c0,0.4,0.3,1.4,0.7,2.2c0.6,1.2,1,1.4,2.6,1.4c1,0,1.9-0.2,2.1-0.4
		c0.2-0.2,1.3-0.4,2.6-0.4c2.5,0,5.2-0.7,5.2-1.4c0-0.3,0.6-0.3,1.4-0.2c0.9,0.2,1.4,0.1,1.4-0.2c0-0.3,0.8-0.8,1.7-1.2
		s1.9-1.2,2.2-1.8s0.9-1.2,1.4-1.3c1.7-0.5,0.6-2.4-1.4-2.4c-0.6,0-1.1-0.3-1.1-0.7c0-0.5,0.5-0.7,1.6-0.7c1,0,1.7,0.3,1.9,0.7
		c0.2,0.4,0.8,0.7,1.5,0.7c1.8,0,1.5,1.3-1.1,3.8c-1.4,1.4-3.5,2.8-5.6,3.7c-1.8,0.8-3.6,1.6-4.1,1.9c-0.5,0.2-2,0.4-3.5,0.4
		c-1.5,0-3.3,0.3-3.9,0.6C92.4,289.9,88.3,290.2,87.8,289.7L87.8,289.7z M102.1,275.7c0-0.4-0.2-0.8-0.5-0.9
		c-0.3-0.2-0.5-0.7-0.5-1.3s-0.3-1.3-0.6-1.5s-0.8-1.3-0.9-2.4c-0.2-1-0.4-2.6-0.6-3.5c-0.3-1.9,0.9-7.2,2.3-9.8c1-2,5.3-7,8.1-9.8
		c1-1,3.1-3,4.5-4.6c1.4-1.5,2.8-3,3.1-3.3c0.3-0.3,1.3-1.7,2.4-3.1c1-1.4,2.2-2.9,2.5-3.2c0.8-0.8,5.9-9.2,6.7-11.2
		c0.3-0.8,0.8-2,1.1-2.5c0.4-0.7,0.3-1.2-0.2-1.7c-0.6-0.7-0.7-0.7-1.3,0.1c-0.6,0.7-0.6,0.7-1.5,0c-0.5-0.4-1.2-1.4-1.5-2.2
		c-0.8-1.9-0.8-1.9-1.6-0.9c-0.8,1-1.8,0.4-2.7-1.7c-0.3-0.8-0.9-2-1.2-2.7s-0.8-1.9-1-2.6s-1-1.6-1.8-2c-0.8-0.4-1.7-1.4-2.2-2.3
		c-1-1.9-1.7-2.4-2.3-1.6c-0.4,0.5-0.5,0.5-1-0.2c-0.6-0.7-0.7-0.7-1.4,0c-0.8,0.8-1.1,2.4-1.7,9.4c-0.5,5.7-1.4,11.9-1.8,12.8
		c-0.2,0.4-0.5,1.5-0.7,2.4c-0.9,4.1-2,7.4-3.7,11.5c-0.2,0.5-0.7,1.8-1.2,2.9c-0.5,1.1-1,2.4-1.2,2.9s-0.5,1.5-0.6,2.2
		c-0.1,0.7-0.6,2.6-1,4.2c-1.2,4.3-1.4,16.4-0.4,20.5c0.4,1.7,1,3.3,1.2,3.6c0.2,0.2,0.4,0.7,0.4,1.1c0,0.8,1.4,2.2,2.3,2.2
		C101.8,276.3,102.1,276,102.1,275.7L102.1,275.7z M122.9,225c0-0.4,0.2-0.7,0.5-0.7s0.5-0.4,0.5-0.8s0.2-1,0.5-1.1
		c0.8-0.5,0.5,1.2-0.5,2.3C123.1,225.4,122.9,225.5,122.9,225z M138.9,270.6c0.3-0.5,0.5-1.5,0.5-2.2c0-1.9,1.3-4.2,2-3.6
		c0.4,0.4,0.4,0.6-0.1,1c-0.3,0.3-0.6,1.6-0.6,2.9c0,2.1,0.1,2.4,0.8,2c0.5-0.2,1.3-0.4,1.8-0.4c1.4-0.1,1.4-0.2,2.2-2.9
		c0.8-3,1.7-3.4,1.7-0.7c0,2.2,0.5,2.8,1.4,1.8c0.3-0.4,1.2-0.7,1.9-0.7c1.4,0,4.2-1.3,4.2-1.9c0-0.2,0.3-0.3,0.6-0.3
		s1.6-0.8,2.8-1.8s2.4-1.8,2.7-1.8s0.6-0.3,0.7-0.6c0.4-0.9,0-4.7-0.6-5.6c-0.3-0.5-0.5-1.9-0.5-3.2c0-1.3-0.2-2.6-0.5-2.9
		c-0.5-0.5-0.1-6.1,0.8-12.7c0.1-1,0.4-2.9,0.6-4.2s0.6-2.9,0.9-3.4c0.7-1.2,0.7-3.2,0.1-3.2c-0.3,0-0.5-0.3-0.5-0.7
		c0-0.4,0.2-0.7,0.5-0.7c0.3,0,0.5,0.3,0.5,0.7c0,0.4,0.2,0.7,0.5,0.7s0.5-0.5,0.5-1.1c0-0.6-0.2-1.1-0.5-1.1s-0.5-0.2-0.5-0.5
		c0-0.4-2.8-3.7-5.5-6.6c-0.3-0.4-1.1-0.7-1.7-0.7c-1.2-0.1-7.4-6-7.4-7.1c0-0.3-0.2-0.6-0.4-0.6c-0.2,0-0.5-0.4-0.7-1
		c-0.4-1.3-1-0.6-1.6,1.5c-0.6,2-0.3,24.6,0.4,27c0.6,2.3,0.6,16.6,0,18.1c-0.3,0.6-0.5,2-0.6,2.9c-0.1,1.5-0.5,2.2-2.2,3.9
		c-1.2,1.2-2.8,2.6-3.7,3c-0.8,0.5-2,1.6-2.5,2.4c-0.9,1.4-1.3,3.8-0.7,4.4C137,271.7,138.4,271.4,138.9,270.6L138.9,270.6z
		 M151.9,258.2c-0.2-0.2-0.1-0.4,0.2-0.4c0.3,0,0.5,0.2,0.5,0.4s-0.1,0.4-0.2,0.4C152.3,258.6,152.1,258.5,151.9,258.2z
		 M149.7,257.9c0.3-0.1,0.8-0.1,1.2,0s0.1,0.2-0.6,0.2S149.3,258,149.7,257.9z M157.9,243.2c0-0.8,0.1-1.2,0.2-0.8
		c0.1,0.4,0.1,1.1,0,1.5C158,244.4,157.9,244.1,157.9,243.2L157.9,243.2z M152.6,236.4c0-0.4,0.3-0.7,0.7-0.7c0.4,0,0.7,0.3,0.7,0.7
		c0,0.4-0.3,0.7-0.7,0.7C152.9,237,152.6,236.7,152.6,236.4z M149.8,234.6c-0.8-0.8-1.5-1.7-1.5-1.8s-0.3-0.7-0.8-1.1
		c-0.7-0.8-0.6-2.2,0.2-2.2c0.2,0,0.9,0.9,1.4,1.9c0.6,1,1.5,2.3,2,2.7c0.9,0.8,1.3,2,0.6,2C151.5,236.2,150.7,235.5,149.8,234.6
		L149.8,234.6z M195.7,256.7c0.3-0.4,1.7-0.7,3.8-0.8c3.8-0.2,4.6-0.8,4.2-3.6c-0.2-1.3-0.1-1.7,0.4-1.7c0.8,0,1.4,2.5,0.7,2.9
		c-0.8,0.5,1.2,1.5,2.9,1.5c3.4,0,3.9-0.3,3.7-2.5c-0.2-2.8,0.8-2.9,1.5-0.1c0.5,1.9,0.8,2.3,2.3,2.9c0.9,0.4,2.1,0.9,2.5,1.1
		c1.2,0.6,1.3,0.5,1.3-0.5c0-1.5-3.9-5.7-5.2-5.7c-0.4,0-1-0.3-1.3-0.6c-0.3-0.4-0.8-0.5-1.2-0.4c-1,0.4-3.4-1.2-3.9-2.5
		c-0.3-0.6-0.8-3.2-1.3-5.7c-0.8-4.6-0.8-12.9,0.1-19.4c0.3-2.1,0.2-2.4-0.5-2.1c-1.1,0.4-1.4-0.6-0.6-2.1c0.8-1.5,0.5-2.2-0.4-0.9
		c-0.8,1.1-1.8,0.5-1.4-0.9c0.4-1.4-0.2-1.3-1.6,0.3c-1.9,2.2-4.4,4.3-5,4.3c-0.3,0-1.5,1-2.6,2.2l-2,2.2l-0.1,8
		c-0.1,4.4-0.3,9-0.5,10.3c-0.3,1.7-0.2,2.6,0.4,3.8c0.9,1.8,0.9,2.3,0.5,5.8c-0.2,2-0.1,2.8,0.4,3.6
		C193.8,257.5,195,257.6,195.7,256.7L195.7,256.7z M193.8,246.3c0-0.8,0.1-1.2,0.2-0.8c0.1,0.4,0.1,1.1,0,1.5
		C193.9,247.5,193.8,247.1,193.8,246.3z M163.9,221.2c0-0.2-0.2-0.4-0.5-0.4c-0.3,0-0.4,0.2-0.2,0.4c0.2,0.2,0.4,0.4,0.5,0.4
		C163.8,221.6,163.9,221.4,163.9,221.2z M124.8,207.9c-0.5-1.1-1.1-2.6-1.2-3.3c-0.2-0.7-0.5-1.1-0.8-0.9c-0.7,0.4-0.1,3,1.4,6.1
		c1.2,2.4,1.3,2.5,1.4,1.4C125.7,210.5,125.3,209,124.8,207.9L124.8,207.9z M122.5,200c0.2-0.6,0-0.9-0.4-0.9
		c-0.4,0-0.7,0.4-0.7,0.9s0.2,0.9,0.4,0.9C122.1,200.9,122.4,200.5,122.5,200L122.5,200z M25.9,288.8c-0.2-0.2-0.3-0.9-0.3-1.6
		c0-1.3-0.1-1.3-0.7-0.5c-0.4,0.5-0.8,0.7-0.9,0.6c-0.3-0.3,2.2-5.2,2.7-5.2c0.2,0,0.6,0.9,0.9,2c0.5,1.5,0.5,2.1,0.1,2.5
		c-0.3,0.3-0.5,0.8-0.5,1.3C27,288.7,26.4,289.2,25.9,288.8z M27,285.3c0-0.1-0.2-0.2-0.5-0.2s-0.5,0.2-0.5,0.5
		c0,0.3,0.2,0.3,0.5,0.2C26.8,285.6,27,285.4,27,285.3z M100.2,284.2c0-0.2,0.2-0.4,0.5-0.4c0.3,0,0.5,0.2,0.5,0.4s-0.2,0.4-0.5,0.4
		C100.4,284.7,100.2,284.5,100.2,284.2z M98.5,283.1c0.2-0.2,0.6-0.2,0.9,0c0.4,0.1,0.3,0.3-0.3,0.3
		C98.6,283.3,98.3,283.2,98.5,283.1L98.5,283.1z M22.8,280c-1.1-2.6,0.1-4.6,1.3-2.3c0.5,1,0.5,1,0.5-0.2c0-1,1.4-3,2.2-3
		c0.1,0,0.2,0.4,0.2,0.9s-0.2,0.9-0.5,0.9s-0.5,0.3-0.5,0.5c0,1.1-1.7,4.3-2.3,4.3C23.5,281.1,23,280.6,22.8,280L22.8,280z
		 M105.9,280.7c0-0.2,0.4-0.4,0.9-0.4s0.9,0.2,0.9,0.4s-0.4,0.4-0.9,0.4C106.3,281.1,105.9,280.9,105.9,280.7z M20.7,276.3
		c-0.5-0.7,1.3-4.5,2-4.2c0.5,0.2,0.6-0.1,0.3-1.2c-0.3-1.2-0.2-1.3,0.3-0.9c0.3,0.3,0.8,0.6,1,0.6c0.6,0,0.4-1.2-0.2-1.5
		c-0.5-0.2-0.5-0.3,0-0.8c0.3-0.3,0.6-1,0.6-1.6c0-0.8,1.4-2.2,4-4.1c2.4-1.7,8.6-2.4,9.7-1.2c0.3,0.4,1,0.7,1.5,0.7
		s0.9,0.2,0.9,0.4s0.9,0.4,2.1,0.4s2.2-0.2,2.4-0.4c0.2-0.2,0.7-0.4,1.2-0.4c0.5,0,0.9-0.3,0.9-0.7s0.2-0.7,0.4-0.7
		c0.2,0,0.8-0.7,1.3-1.5c0.5-0.8,1-1.5,1.3-1.5c0.2,0,0.4-0.3,0.4-0.6s0.4-1,1-1.4c0.5-0.5,1.3-1.5,1.7-2.4c0.4-0.9,0.9-1.9,1.2-2.4
		c2.1-3.7,5.1-9.5,5.1-9.9c0-0.6,1.4-3.1,1.9-3.5c0.2-0.1,0.4-1,0.4-2s0.2-1.8,0.5-2s0.5-1.3,0.5-2.5c0-1.6,0.2-2.3,0.7-2.5
		c0.5-0.2,0.7-0.6,0.5-1.5c-0.3-1.5,0.1-3.9,0.7-3.9c0.6,0,0.5,5.2-0.1,5.5c-0.3,0.2-0.5,1.3-0.5,2.4s-0.2,2.3-0.4,2.4s-0.5,1-0.7,2
		c-0.2,1-0.5,2.1-0.7,2.5s-0.6,1.3-0.9,1.8c-1,2.4-3.7,7.6-6,11.9c-1.5,2.7-5.6,8.1-7.2,9.5c-0.6,0.5-1.1,1.1-1.1,1.3
		c0,0.9-2.3,2-4.1,2c-1.8,0-4.7-1-5.4-1.9c-0.3-0.4-3.6-0.7-4.6-0.4c-0.5,0.2-0.5,0.3-0.1,0.8c0.6,0.6-0.3,1.8-4.3,5.8
		c-0.9,0.9-2.1,2.4-2.6,3.4c-0.5,0.9-1.1,2-1.4,2.5c-0.3,0.5-0.8,0.7-1.3,0.6c-0.4-0.1-0.9,0.1-1,0.4
		C22.3,276.8,21.1,277,20.7,276.3L20.7,276.3z M26.3,268.7c0.2-0.4,0.3-0.4,0.7,0.1c0.4,0.5,0.6,0.4,1.4-0.3c0.5-0.5,1.1-1.4,1.3-2
		c0.2-0.7,0.8-1.4,1.5-1.6c1.5-0.5,1.5-1.3-0.1-1.3c-1.4,0-2.6,0.9-2.6,1.9c0,0.4-0.2,0.7-0.5,0.7c-0.3,0-0.4,0.4-0.2,0.9
		c0.2,0.7,0.1,0.8-0.4,0.6c-0.8-0.3-2.2,0.5-2.2,1.2C25.2,269.4,26,269.3,26.3,268.7L26.3,268.7z M27.6,274.7
		c-0.9-0.9-0.8-1.2,1.2-2.7c1.8-1.5,3.1-1.8,3.7-1c0.4,0.6,0.9,0.5,2.1-0.5c1.4-1.2,1.8-0.8,0.6,0.6c-0.5,0.6-1.4,1.5-1.9,2.1
		s-1.1,0.9-1.3,0.7c-0.2-0.2-0.1-0.4,0.2-0.5c0.7-0.2,0.8-1.5,0.2-1.5c-0.5,0-2.9,2.5-2.9,3.1C29.4,275.6,28.3,275.5,27.6,274.7
		L27.6,274.7z M83,267.3c-0.7-1.2-0.8-1.7-0.4-2.1c0.4-0.4,0.6-0.3,0.6,0.4c0,0.5,0.2,1.1,0.5,1.4c0.3,0.3,0.4,0.8,0.4,1.2
		C84,268.6,83.7,268.4,83,267.3z M36.1,266.3c0.2-0.2,0.6-0.2,0.9,0c0.4,0.1,0.3,0.3-0.3,0.3C36.2,266.6,36,266.5,36.1,266.3
		L36.1,266.3z M81.3,263.3c0-0.4,0.2-0.7,0.5-0.7c0.3,0,0.5,0.3,0.5,0.7s-0.2,0.7-0.5,0.7C81.5,263.9,81.3,263.6,81.3,263.3z
		 M83.6,241.5c-0.5-2-0.4-4.4,0.1-4.7c0.6-0.4,1,2.4,0.6,4.4l-0.4,1.8L83.6,241.5z M174.3,215.7c0-4.7,0.2-8.7,0.3-8.9
		c0.7-0.6,1.4,5.8,1.2,10.5c-0.2,5.5-0.4,6.8-1.1,6.8C174.5,224.2,174.3,221,174.3,215.7z M65.3,219c0-2.2,0.2-4,0.4-4.2
		c0.5-0.3,1,4.7,0.7,6.6C65.9,224.3,65.3,222.9,65.3,219L65.3,219z M177.9,221.7c-0.5-0.5-0.3-7.6,0.2-7.9c0.3-0.2,0.5-1,0.5-2
		s0.2-1.8,0.5-2c0.3-0.2,0.7-0.8,1-1.5l0.5-1.2l0.2,1c0.1,0.6-0.1,1.3-0.3,1.5c-0.3,0.3-0.5,1.3-0.5,2.4c0,1-0.2,2-0.5,2.2
		c-0.3,0.2-0.5,1.8-0.5,3.7C179,221.3,178.7,222.4,177.9,221.7z M169,220.4c-0.2-0.2-0.3-0.8-0.3-1.5c0-0.7-0.3-1.9-0.6-2.7
		c-1-2.3-1.7-4.5-1.7-5.5c0-0.5-0.2-1-0.5-1.2c-0.3-0.2-0.5-0.5-0.5-0.9c0-0.3-0.8-2.3-1.9-4.4c-1-2.1-1.9-4.1-1.9-4.4
		c0-0.3-0.2-0.7-0.5-0.9c-0.3-0.2-0.5-0.9-0.5-1.8c0-0.8-0.2-1.6-0.5-1.8c-0.6-0.3-0.6-6.8,0-6.8c0.7,0,1,1.5,0.9,4.2
		c-0.1,1.4,0.1,2.7,0.4,3c0.3,0.3,0.6,0.8,0.6,1.2c0,0.6,1.3,3.4,2.9,6.3c0.2,0.4,0.4,1,0.4,1.3c0,0.3,0.5,1.6,1.2,2.8
		c0.6,1.2,1.2,2.7,1.2,3.3c0,0.6,0.2,1.3,0.5,1.6c0.5,0.4,1.3,3.5,1.7,6.4C170.1,220.1,169.6,221,169,220.4L169,220.4z M182.2,218.2
		c-0.2-1.5-0.1-2.3,0.4-2.8c0.4-0.4,0.7-0.8,0.7-1c0-0.4,3.1-4.5,4.1-5.4c0.3-0.3,0.8-1.3,1.1-2.2c0.3-0.9,0.7-1.8,1-2.1
		c0.2-0.2,0.4-0.9,0.4-1.4c0-0.6,0.3-1,0.7-1c0.6,0,0.7,0.7,0.7,3.7c0,2.2,0.2,3.7,0.5,3.7c0.3,0,0.5-0.4,0.5-0.9
		c0-0.5,0.2-0.9,0.5-0.9s0.5-0.4,0.5-0.8s0.3-1.2,0.7-1.7c0.4-0.5,0.7-1.2,0.7-1.6c0-1.1,0.9-1,0.9,0.1c0,0.5-0.3,1.3-0.5,1.9
		c-1.1,2-1.3,2.5-1.3,3.1c0,1.3-5.3,9.5-6.2,9.5c-0.8,0-0.9-1.2-0.2-2.5c0.4-0.7,0.7-1.6,0.7-2s0.2-0.9,0.5-1
		c0.3-0.2,0.5-0.8,0.5-1.5c0-0.7,0.2-1.4,0.5-1.5s0.5-0.5,0.4-0.8c0-0.4-0.1-0.4-0.3,0c-0.1,0.3-0.5,0.6-0.9,0.6
		c-0.4,0-0.7,0.2-0.7,0.5c0,0.3-1,1.8-2.2,3.3c-1.6,2-2.3,3.4-2.4,4.8C183.1,220.9,182.5,220.8,182.2,218.2L182.2,218.2z
		 M190.6,210.7c-0.2-0.2-0.3,0.1-0.3,0.6c0,0.5,0.1,0.6,0.3,0.3C190.8,211.2,190.8,210.8,190.6,210.7L190.6,210.7z M193.4,214
		c0-0.8,0.5-2.3,1.1-3.5c0.6-1.1,1-2.3,1-2.7c0-0.4,0.2-0.8,0.3-1c0.9-0.8,2-6.6,2-10.5c0-4.1,0.5-5.5,1.1-3.3c0.6,2,0.3,8.9-0.4,10
		c-0.4,0.6-0.7,1.6-0.7,2.3c0,0.7-0.2,1.3-0.5,1.5c-0.3,0.2-0.5,0.8-0.5,1.4c0,0.6-0.3,1.2-0.7,1.4s-0.7,0.7-0.7,1.3
		c0,0.6-0.2,1-0.5,1c-0.3,0-0.5,0.4-0.5,0.9s0.2,0.9,0.5,0.9c0.3,0,0.5-0.4,0.5-0.8s0.3-0.9,0.7-1.1s0.7-0.6,0.7-1.1s0.2-1,0.5-1.2
		s0.5-0.8,0.5-1.4c0-0.6,0.2-1.1,0.5-1.1c0.3,0,0.5-0.5,0.5-1s0.3-1.4,0.7-1.9s0.7-1.5,0.7-2.3c0-1.5,0.7-1.9,1.2-0.7
		c0.4,0.9-0.1,3.6-0.7,3.9c-0.2,0.1-0.4,0.6-0.4,1.1c0,0.5-0.2,1.2-0.4,1.6c-0.2,0.4-0.6,1.1-0.7,1.4c-0.2,0.4-0.7,1.3-1.2,2
		c-0.5,0.7-0.9,1.6-0.9,2c-0.1,0.9-1.7,2.2-2.8,2.2C193.5,215.4,193.4,215.1,193.4,214L193.4,214z M136.4,214.2
		c-0.2-0.2-0.3-0.7-0.3-1.2c0-0.5-0.3-1.2-0.6-1.5c-0.5-0.5-1.3-3.9-1.5-6.5c-0.1-1.6,0.8-2.2,1-0.7c0.1,0.6,0.4,1.3,0.6,1.5
		c0.2,0.2,0.4,1,0.4,1.8s0.3,1.9,0.7,2.6C137.9,212.2,137.5,215.3,136.4,214.2L136.4,214.2z M138.9,213.9c-0.6-0.9-0.9-3.1-0.4-3.7
		c0.4-0.6,0.5-0.6,0.7,0.1C139.5,211.1,139.2,214.5,138.9,213.9z M141.1,212.9c-0.2-0.2-0.3-1-0.3-1.9c0-1.4,0.2-1.7,0.9-1.7
		c1,0,1.7,1.6,1.2,2.8C142.6,212.8,141.5,213.3,141.1,212.9z M171,209.1c0-2.3-0.1-5.2-0.1-6.6c-0.1-3.2,0.7-3.1,1.3,0.1
		c0.5,2.7-0.1,10.6-0.7,10.6C171.2,213.2,171,211.4,171,209.1z M131.3,211.3c-1.5-3-2.3-4.8-2.3-5.6c0-0.5-0.2-1-0.5-1.1
		c-0.3-0.2-0.5-1.1-0.5-2c0-1.1-0.2-1.7-0.5-1.5c-0.3,0.2-0.5,0.9-0.5,1.8c0,2-0.8,1.9-1.2-0.1c-0.2-0.9-0.5-2-0.7-2.4
		c-0.2-0.4-0.4-1.3-0.4-1.9c0-1.5,1.1-1.2,1.3,0.4c0.1,0.6,0.4,1.2,0.6,1.2c0.8,0,0.4-2-0.7-3.9c-1.5-2.5-1-3.8,0.8-2.1
		c0.6,0.6,1.6,1.9,2.1,2.8c0.5,0.9,1.1,1.7,1.3,1.8c0.2,0.1,0.4,0.3,0.4,0.6c0,0.2,0.3,0.7,0.7,1.1c0.4,0.4,0.7,1.1,0.7,1.7
		c0,0.6,0.2,1.2,0.5,1.3c0.3,0.2,0.5,0.9,0.5,1.8s0.3,1.6,0.6,1.7c0.3,0.1,0.6,1,0.6,2.2c0,1.1,0.2,2.5,0.4,3
		c0.2,0.7,0.2,0.9-0.1,0.5c-0.3-0.4-0.7-0.5-1.4-0.1C132.1,212.6,131.9,212.5,131.3,211.3z M132.8,208.4c0-0.5-0.2-0.9-0.5-1.1
		c-0.3-0.2-0.5,0.3-0.5,1.1s0.2,1.3,0.5,1.1C132.6,209.3,132.8,208.8,132.8,208.4z M130.9,203.8c-0.3-0.3-0.5-0.9-0.5-1.5
		c0-0.5-0.2-1.1-0.5-1.3c-0.3-0.2-0.5,0.4-0.5,1.5c0,1,0.2,1.8,0.4,1.8c0.2,0,0.6,0.6,0.8,1.4l0.4,1.4l0.2-1.5
		C131.4,204.9,131.2,204.1,130.9,203.8L130.9,203.8z M169.1,209.2c-0.9-2.3-1.4-4-1.4-5.6c0-1-0.3-2-0.7-2.3c-0.4-0.3-0.7-1-0.7-1.6
		c0-0.6-0.3-1.4-0.6-1.9c-0.3-0.5-0.4-1-0.2-1.2c0.5-0.4,1.7,1.1,2,2.5c0.1,0.6,0.4,1.5,0.7,1.9c0.3,0.4,0.4,1.6,0.4,2.7
		s0.2,2.1,0.5,2.4c0.3,0.3,0.4,1.3,0.3,2.2C169.4,209.1,169.2,209.6,169.1,209.2L169.1,209.2z M137.3,207.9c-0.6-2.8-0.2-6,0.7-5.4
		c0.5,0.3,0.6,6.8,0,6.8C137.8,209.2,137.5,208.6,137.3,207.9L137.3,207.9z M210.6,206.4c-0.7-1.5-0.3-2.5,1-2.2
		c0.8,0.2,1,0.5,0.8,1.6C212.3,207.6,211.3,207.9,210.6,206.4L210.6,206.4z M184.4,203.3c-0.2-0.6-0.2-2,0-3c0.3-2.2-0.3-5-0.8-3.6
		c-0.2,0.5-0.4,1.8-0.6,3c-0.2,1.2-0.6,2.4-0.9,2.9c-0.6,0.7-0.7,0.7-1.2-0.5c-0.7-1.6-1.2-13-0.5-13c0.3,0,0.6-0.9,0.7-2.1
		c0.5-3.9,1-6,1.7-6.2c0.7-0.2,0.6,2-0.4,6.5c-1.2,5.3-1.5,8.8-1.2,10.4l0.4,1.7l0.7-2.6c0.4-1.5,0.8-3.4,0.9-4.2
		c0.1-0.8,0.4-1.9,0.6-2.4s0.5-1.2,0.7-1.7c0.2-0.4,0.5-0.8,0.8-0.8c0.4,0,0.5,1,0.4,3c-0.2,4.6,0,7.6,0.5,7.6
		c0.3,0,0.5-0.3,0.5-0.6c0-0.9,1.5-3.8,2-3.8c0.2,0,0.4-0.4,0.4-0.9c0-0.5,0.2-0.9,0.5-0.9s0.5,0.4,0.5,0.8c0,0.5-0.2,1-0.5,1.1
		c-0.3,0.2-0.5,0.6-0.5,1.1c0,0.5-0.5,1.7-1.1,2.7c-0.6,1-1.2,2.8-1.2,3.9s-0.3,2.1-0.4,2.3C185.8,204.8,184.7,204.3,184.4,203.3
		L184.4,203.3z M210,200.9c0.2-1.8,0.5-3.5,0.7-3.7c0.2-0.2,0.4-0.8,0.4-1.4c0-0.5,0.3-1.3,0.7-1.8c0.4-0.5,0.7-1.4,0.7-2
		c0-0.7,0.2-1.3,0.5-1.5c0.3-0.2,0.5-0.8,0.5-1.5c0-0.7,0.4-2.3,0.9-3.6c0.7-1.9,1-2.3,1.2-1.6c0.2,0.5,0.1,1.5-0.2,2.2
		c-0.3,0.8-0.5,2-0.5,2.7s-0.2,1.5-0.4,1.7c-0.2,0.2-0.8,1.6-1.2,3.1c-0.5,1.5-1,2.9-1.2,3.3c-0.2,0.4-0.5,1.7-0.7,2.9
		c-0.2,1.2-0.6,2.7-1,3.3C209.8,204.1,209.8,203.8,210,200.9L210,200.9z M212.6,202.2c0-0.9,0.2-2.2,0.4-2.8
		c0.2-0.6,0.8-2.1,1.3-3.4c0.5-1.3,1-2.6,1.2-2.8c0.2-0.2,0.4-0.9,0.4-1.4c0-0.5,0.2-1.1,0.4-1.2c0.2-0.1,0.8-1.6,1.3-3.3
		c0.8-2.9,1.9-4.9,2.3-4.5c0.2,0.2-0.7,8.4-0.9,8.7c-0.1,0.1-0.5-0.1-0.9-0.4c-0.6-0.5-0.7-0.4-0.7,0.8c0,0.7-0.3,1.6-0.7,1.9
		c-0.4,0.3-0.7,0.9-0.7,1.4c0,0.5-0.2,0.8-0.5,0.8c-0.3,0-0.5,0.7-0.5,1.5c0,0.8-0.2,1.6-0.5,1.8c-0.3,0.2-0.5,0.9-0.5,1.8
		c0,0.8-0.1,1.8-0.3,2.2C213.1,204.5,212.6,204,212.6,202.2L212.6,202.2z M85.5,197.9c-0.2-3.5-0.6-4.9-1.8-7.8
		c-0.2-0.5-0.5-1.5-0.6-2.2c-0.1-0.7-0.5-2.7-0.8-4.4c-0.6-3.2-0.3-9.9,0.5-9.9c0.5,0,0.9,3.2,0.9,6.7c0,1.4,0.2,3,0.5,3.7
		c0.3,0.7,0.5,1.8,0.5,2.6c0,1.3,0.4,2.7,1.7,6.2c1,2.5,0.8,9.1-0.3,9.1C85.9,201.7,85.6,200,85.5,197.9z M202.4,201.3
		c-0.2-0.2-0.4-1.4-0.4-2.5c-0.1-1.2-0.1-1.6,0.1-0.9c0.3,2,1.4,1.4,1.7-0.9c0.7-5.2,1-6.5,1.5-6.5c0.3,0,0.5,0.8,0.6,1.8
		c0.1,1,0.4,1.9,0.6,2.2c0.6,0.5,0.6,3.2,0,3.5c-0.2,0.1-0.6-0.5-0.7-1.4c-0.2-1.2-0.5-1.5-0.8-1.1c-0.4,0.4-0.4,0.9,0,2
		c0.8,2.1,0.7,2.6-0.4,2.3c-0.7-0.2-0.9-0.1-0.9,0.6C203.6,201.4,202.9,202,202.4,201.3L202.4,201.3z M207.1,201.2
		c-0.2-0.4-0.1-1,0.2-1.3c0.3-0.3,0.5-1.2,0.5-2.1c0-0.9,0.3-1.9,0.7-2.4c0.4-0.5,0.7-1.4,0.7-2.1c0-1.6,1-4.8,1.6-4.8
		c0.2,0,0.3,0.6,0.1,1.4c-0.2,0.8-0.4,2.3-0.6,3.4c-0.1,1.1-0.4,2.2-0.7,2.4c-0.2,0.2-0.4,0.8-0.4,1.4s-0.4,1.8-0.9,2.9
		C207.6,201.6,207.4,201.8,207.1,201.2L207.1,201.2z M158.5,199.7c-0.3-0.8,0-1.5,0.7-1.5c0.3,0,0.4,0.5,0.4,1.1
		C159.7,200.5,159,200.8,158.5,199.7L158.5,199.7z M156.1,197.1c-1.1-0.7-1.4-1.7-2.1-7.7c-0.8-6.3-1-12.3-0.5-12.3
		c0.3,0,0.5,1.5,0.5,4.2c0,2.3,0.2,4.3,0.5,4.4c0.3,0.2,0.5,1,0.5,1.9c0,0.9,0.2,2.4,0.3,3.4c0.3,1.4,0.4,1.6,0.7,0.9
		c0.2-0.5,0.4-1.5,0.4-2.3c0-0.8,0.2-1.4,0.5-1.4c0.5,0,0.8,1,1.2,4c0.1,1.1,0.4,2.8,0.5,3.9c0.3,1.6,0.2,1.9-0.6,1.9
		C157.5,197.8,156.6,197.5,156.1,197.1z M123.8,196c0-0.5,0.2-0.9,0.5-0.9c0.3,0,0.5,0.4,0.5,0.9s-0.2,0.9-0.5,0.9
		C124,196.9,123.8,196.5,123.8,196z M172.9,194.5c-0.7-2.2,0-9.2,0.9-9.5c0.3-0.1,0.5-1.7,0.5-4.4c0-3.3-0.2-4.3-0.7-4.7
		c-0.4-0.3-0.6-0.8-0.4-1.3c0.5-1.1,0.8-0.9,1.7,0.8c1,2,1.1,7.4,0.1,9.2c-0.5,0.9-0.7,2.7-0.7,6.5c0,2.9-0.2,5.2-0.4,5.2
		C173.7,196.4,173.2,195.6,172.9,194.5z M178,195c-0.5-1.1-0.4-7.2,0.1-8.9c1.6-5.1,1.8-7.4,1.2-12.3c-0.3-2.3-0.9-2.6-3.9-1.6
		c-1.9,0.6-3.6-0.1-4.6-1.9c-0.4-0.7-1-1.2-1.4-1.2c-1,0-0.9-2.3,0.2-2.9c1.2-0.7,1.5-0.3,1.5,1.5c0,0.8,0.2,1.5,0.5,1.5
		c0.3,0,0.5-0.3,0.5-0.7s0.3-0.7,0.7-0.7c0.5,0,0.7,0.5,0.7,1.5c0,2,0.5,1.9,1.7-0.1c1.2-2,2.1-2.3,3.7-0.8c1.2,1,1.4,1,2,0.5
		c0.7-0.6,0.9-0.5,1.9,0.2c1.3,1,3.3,1.1,3.7,0.2c0.2-0.4,0.6-0.7,1.1-0.7c1.1,0,4.7-3.2,4.7-4.1c0-0.4,0.2-0.7,0.5-0.7
		c0.6,0,0.6-1.5-0.1-2.9c-1.2-2.4-3.2-3.6-3.8-2.1c-0.2,0.4-0.9,0.7-1.7,0.7c-0.9,0-1.9,0.5-2.9,1.4c-1.2,1.1-1.9,1.4-3.8,1.4
		c-1.3,0.1-2.5-0.1-2.6-0.3c-0.4-0.6-1.6-0.4-1.6,0.3c0,0.4-0.2,0.7-0.5,0.7c-0.3,0-0.5-0.2-0.5-0.4c0-0.2,0.2-0.5,0.5-0.7
		c0.7-0.4,0.6-1.1-0.2-1.1c-0.4,0-0.9-0.3-1.1-0.7c-0.3-0.6-1-0.7-3.3-0.6c-2.1,0.1-2.9,0-2.9-0.4c0-0.3-0.3-0.6-0.7-0.6
		s-1-0.1-1.4-0.3c-0.5-0.2-0.7,0-0.7,0.4c0,0.4-0.3,0.8-0.6,1c-0.4,0.2-1.2,1.2-1.9,2.2c-1.5,2.1-1.7,2.2-1.7,1.1
		c0-0.7,1.2-2.4,3.4-4.6c0.8-0.8,1-2,0.6-3.2c-0.3-0.7-0.5-0.6-6.5,4.9c-1.7,1.6-3.2,2.7-3.2,2.4c0-0.7,1.1-1.9,4.4-4.8
		c1.9-1.7,2.6-2.6,2.2-2.9c-0.4-0.3-0.6-0.2-1,0.3c-0.3,0.4-0.8,0.8-1.2,0.8c-0.4,0-1,0.4-1.4,0.8c-0.5,0.6-0.7,0.6-1.2,0.3
		c-0.7-0.6-0.2-1.5,0.8-1.5c0.4,0,0.7-0.2,0.7-0.4c0-0.2,0.5-0.5,1.2-0.7c1.2-0.3,1.5-0.9,0.8-1.9c-0.4-0.6-2-0.3-2,0.4
		c0,0.2-0.5,0.4-1.2,0.4c-0.7,0-1.2,0.3-1.2,0.7c0,0.4-0.3,0.7-0.7,0.7s-0.7-0.3-0.7-0.7s0.3-0.7,0.7-0.7s0.7-0.2,0.7-0.4
		c0-0.2,0.8-0.7,1.9-1.2c1.8-0.8,1.9-0.9,1.6-2.4c-0.2-0.8-0.5-1.7-0.7-1.9c-0.2-0.2-0.2-0.9,0.2-1.5c0.4-0.8,0.4-1.4,0-2.5
		c-0.3-0.8-0.6-1.7-0.6-2.1c0-0.4-0.3-0.9-0.7-1.2c-0.5-0.4-0.7-1.7-0.7-4.9c0-2.4-0.2-4.6-0.3-4.8c-0.1-0.2,0.1-0.6,0.5-0.9
		c0.5-0.4,0.6-0.7,0.2-1.2c-0.6-0.6-0.4-0.8,2.5-3.8c1.6-1.7,2.2-1,0.6,0.8c-0.7,0.8-1,1.5-0.7,1.5c0.3,0,0.5,0.3,0.5,0.7
		c0,0.8-0.8,0.9-1.1,0.1c-0.1-0.3-0.4-0.4-0.6-0.2c-0.3,0.2-0.2,0.5,0.2,0.6c0.7,0.2,0.8,1.5,0.1,1.5c-0.9,0-0.5,1,0.5,1.2
		c1.1,0.3,1.2,1.7,0.2,3c-0.9,1.1-0.9,2,0.1,2.7c0.7,0.5,0.7,0.7,0.2,1.7c-0.7,1.4-0.7,4.1-0.1,4.4c0.3,0.2,0.5-0.4,0.5-1.4
		c0-2,0.6-3.3,1.1-2.1c0.2,0.4,0.3,1.2,0.3,1.7s0.3,1.2,0.6,1.5c0.4,0.4,0.4,1-0.1,2.8c-0.5,1.7-0.5,2.3-0.1,2.6
		c0.3,0.2,0.4,0.6,0.3,1c-0.2,0.5,0,0.8,0.6,1c0.5,0.2,1.3,0.4,1.7,0.7c1,0.5,1.3,0.5,1.3,0c0-0.2-0.3-0.4-0.7-0.4
		c-1.3,0-0.7-0.8,0.9-1.3c2-0.6,2.8-0.3,2.4,1.1c-0.2,0.7,0,1.1,0.4,1.3c1.1,0.4,0.8,1.1-0.5,1.6c-1.6,0.6-1.6,1.8,0.1,1.7
		c1-0.1,1.3,0.1,1.4,0.7c0.1,0.7,0.1,0.8-0.3,0.2c-0.7-1-2.6,0.9-2.2,2.2c0.3,0.8,0.6,0.9,3.2,0.8c2-0.1,3.5-0.5,4.7-1.2
		c2.9-1.6,2.6-2.3-3.8-7.7c-3.3-2.7-2.4-4.3,1.6-2.7c2.3,0.9,10.5,0.9,11.8,0c1-0.7,1.6-0.8,2.5-0.3c1.4,0.8-2.8,4.9-5,4.9
		c-1.1,0-2.4,1-3.2,2.5c-0.5,1-0.6,1.4-0.1,2.2c0.3,0.6,0.9,1,1.4,1c0.4,0,1.1,0.3,1.4,0.7c0.4,0.5,1.4,0.6,3.4,0.6
		c2.5-0.1,2.8-0.2,3-1.1c0.2-0.5,0.6-1.2,0.9-1.5s0.5-0.9,0.4-1.3c-0.4-1.3,1.5-1,2.8,0.4c0.6,0.7,1.3,1.1,1.4,0.9
		c0.5-0.5-0.6-2.1-1.4-2.1c-0.9,0-0.9-0.8,0.1-1.2c0.5-0.2,1,0,1.4,0.5c0.9,1.1,1.3,0.9,0.9-0.5c-0.2-0.9-0.1-1.5,0.4-1.9
		c0.4-0.4,0.7-1,0.7-1.3c0-1,2.8-4,3.9-4.3c0.5-0.1,1.2-0.6,1.5-1.1c0.3-0.5,0.8-1,1.1-1.2c0.3-0.2,0.6-1.2,0.6-2.3
		c0-1.2,0.3-2.1,0.6-2.3c0.7-0.4,0.5-3.2-0.2-3.2c-0.2,0-0.4-0.3-0.4-0.7c0-0.8,0.5-0.8,1.3-0.1c0.9,0.8,1.1,0.2,0.5-1.4
		c-0.4-1-0.4-1.6,0-1.9c0.7-0.7,0.7-2.1-0.2-3.6c-0.4-0.7-0.7-2-0.7-2.9s-0.2-1.7-0.5-1.8c-0.3-0.1-0.4-0.6-0.4-1.2
		c0.2-0.9,0.4-0.8,1.8,1.3l1.6,2.4l-0.1,6.1c-0.1,4.1-0.3,6.3-0.7,6.8c-0.3,0.4-0.5,1-0.4,1.5c0.1,0.5-0.2,1.5-0.6,2.3
		c-0.4,0.8-0.9,2.2-1.2,3.3c-0.5,1.8-0.6,1.9-2.6,1.9c-1.8,0-2.1,0.1-2.1,0.9c0,0.5-0.3,1.2-0.7,1.4s-0.8,1.1-1,1.9
		c-0.2,1.2-0.1,1.4,0.7,1.6c1.4,0.4,1.3,1.4-0.2,1.1c-1.8-0.3-1.8,0.4-0.2,1.9c0.8,0.7,1.3,1.5,1.1,1.7c-0.2,0.2-0.5,0.1-0.6-0.2
		c-0.1-0.3-0.6-0.6-1.2-0.6c-0.7,0-0.9,0.2-0.7,0.8c0.9,2.7,0.8,3.1-0.6,5.2c-0.8,1.2-1.5,2.3-1.5,2.6c0,0.2-0.5,1-1.1,1.8
		s-1.4,1.9-1.7,2.5c-0.4,0.6-1.2,1.3-1.8,1.4c-0.6,0.2-1.1,0.5-1.1,0.7s-0.7,0.4-1.7,0.4c-1.2,0-1.7,0.2-1.7,0.7
		c0,0.8-0.7,0.9-1.2,0.2c-0.2-0.3-0.5-0.3-0.9,0c-0.8,0.6-1.6,0.2-1.6-0.7c0-0.5-0.2-0.5-0.9-0.1c-1.1,0.6-1.2,2-0.2,3.2
		c0.4,0.5,0.7,1.3,0.7,1.8c0,0.5,0.2,1.1,0.4,1.2c0.5,0.3-0.6,4.1-1.4,4.8c-0.3,0.2-0.5,1.3-0.5,2.3s-0.2,2-0.4,2.2
		c-0.2,0.2-0.6,2.3-0.8,4.6C178.5,194.2,178.2,195.5,178,195L178,195z M178.5,159.7c-0.3-0.8-1.8-0.9-1.8-0.2c0,0.4,0.4,0.7,1,0.7
		C178.2,160.3,178.6,160,178.5,159.7z M183.3,159.9c0-0.2-0.4-0.6-1-0.9c-0.8-0.5-1.1-0.5-1.7,0.1c-1,0.9-0.9,1.2,1,1.2
		C182.6,160.3,183.3,160.1,183.3,159.9z M195.5,159.3c0.2-0.9-1.7-3.4-2.6-3.4c-0.9,0-0.7,2.6,0.2,3.6
		C194,160.5,195.3,160.4,195.5,159.3L195.5,159.3z M179.1,157.3c-0.3-0.1-0.7-0.1-0.9,0c-0.2,0.1,0.1,0.3,0.6,0.2
		C179.4,157.6,179.5,157.5,179.1,157.3L179.1,157.3z M164.4,151.5c0-0.2-0.2-0.4-0.5-0.4s-0.5,0.2-0.5,0.4s0.2,0.4,0.5,0.4
		S164.4,151.7,164.4,151.5z M151.2,193.6c0-0.5,0.1-0.7,0.3-0.6c0.2,0.2,0.2,0.5,0,0.8C151.3,194.2,151.2,194.1,151.2,193.6
		L151.2,193.6z M207.2,193.5c-0.5-0.5-0.4-2.7,0.2-3c0.3-0.2,0.5,0.4,0.5,1.5C207.8,193.8,207.7,194,207.2,193.5z M146,191
		c-0.3-0.8-0.7-4.2-0.8-7.6c-0.2-3.4-0.4-6.5-0.6-6.9c-0.5-0.8,0.5-4,1.2-3.8c0.3,0.1,0.5,2.5,0.5,5.9c0,4,0.2,5.9,0.6,6.3
		c0.7,0.6,0.8,6.8,0.2,7.2C146.7,192.4,146.3,191.8,146,191L146,191z M220.3,190.7c-0.2-0.5-0.1-1.6,0.3-2.5c0.7-1.9,1-8.1,0.4-8.4
		c-0.2-0.1-0.4-1.2-0.4-2.4c0-1.4,0.2-2.1,0.5-1.9c0.3,0.2,0.5,1,0.5,2c0,2,0.7,2.6,1.4,1.3c0.4-0.6,0.4-1.2,0-1.7
		c-0.7-1.2-0.6-3.7,0.1-3.5c0.3,0.1,0.7,0.7,0.7,1.4c0.3,2.4,1,1.1,1-1.9c0-1.8,0.2-3.1,0.5-3.1c0.3,0,0.5-0.4,0.5-0.8
		c0-0.7-0.1-0.7-0.6,0c-0.3,0.4-0.8,0.8-0.9,0.8c-0.5,0-0.4-1.7,0.2-2.7c0.6-1.1,0.2-2-0.7-1.3c-0.5,0.4-0.7-0.1-0.9-1.8
		c-0.4-3.3-0.4-3.9,0.3-3.9c0.4,0,0.9,0.8,1.2,1.9c1,3.1,1.2,3.3,1.3,1.2c0.1-1.1-0.1-2.4-0.3-2.9c-0.3-0.5-0.6-1.4-0.7-2
		c-0.1-0.6-0.5-2-0.8-3.2c-0.5-2.2-0.4-3.4,0.4-3.4c0.3,0,0.6,0.4,0.8,0.9c0.4,1.2,1.3,0.6,1-0.6c-0.4-1.4,0.3-2.3,1.1-1.4
		c0.3,0.4,0.9,0.5,1.3,0.4c0.6-0.2,0.7-0.1,0.4,0.8c-0.2,0.6-0.6,1.4-1,1.8c-0.8,0.8-0.9,2.9-0.2,3.3c0.6,0.3,0.6,4.3,0,4.9
		c-0.8,0.8-0.7,5.6,0.2,7.4c0.7,1.6,0.7,3.4-0.1,3.4c-0.2,0-0.6-0.5-0.9-1.2c-0.4-1-0.5-0.1-0.6,4.6c0,4.1-0.2,6-0.7,6.6
		c-0.9,1.1-2.1,0.6-2.3-0.9c-0.1-0.7-0.2,0.3-0.3,2.2c-0.1,3.2-1.3,7.8-2,7.8C220.8,191.6,220.5,191.2,220.3,190.7L220.3,190.7z
		 M149.8,188.2c0-1.6,0.1-1.9,0.4-1.2c0.6,1.2,0.6,3.3,0,3.3C150,190.3,149.8,189.3,149.8,188.2z M167.7,189.6
		c0-0.4,0.2-0.7,0.5-0.7s0.5,0.3,0.5,0.7c0,0.4-0.2,0.7-0.5,0.7S167.7,190,167.7,189.6z M229.4,186c-0.6-1.5,0.2-10,0.8-9.4
		c0.6,0.6,0.6,6.1,0,8.6C229.8,186.8,229.7,186.8,229.4,186L229.4,186z M169.2,184.7c0-0.7,0.1-1.1,0.2-0.8s0.1,0.9,0,1.3
		C169.3,185.7,169.2,185.5,169.2,184.7L169.2,184.7z M116.1,184.7c-0.2-0.2-0.3-0.7-0.3-1.3c0-0.6-1.3-2.3-3.5-4.5
		c-6.2-6.2-8.8-9.9-8.8-12.8c0-0.5-0.2-1.1-0.5-1.2c-0.3-0.2-0.5-0.9-0.5-1.6c0-0.8,0.2-1.2,0.5-1c0.3,0.2,0.5,0.7,0.5,1.3
		s0.2,1.2,0.4,1.4c0.2,0.2,0.8,1.5,1.2,2.8c0.9,2.8,3.3,5.9,7.6,9.9c1.7,1.6,3,3.1,3,3.5s0.3,0.8,0.7,1.2c0.4,0.3,0.7,0.9,0.7,1.4
		C117.2,184.6,116.6,185.1,116.1,184.7L116.1,184.7z M142.1,182.5c-0.2-0.2-0.3-4.6-0.3-9.9c0-6.1-0.2-9.6-0.5-9.6
		c-0.3,0-0.5-0.3-0.5-0.7s0.2-0.7,0.5-0.7c0.3,0,0.5,0.3,0.5,0.6s0.3,0.7,0.6,0.8c0.4,0.1,0.6,1.9,0.5,7.2c-0.1,5.7,0,7.3,0.6,8.5
		c0.5,1,0.6,1.8,0.3,2.6C143.4,182.5,142.6,183,142.1,182.5z M147.9,181.3c0-0.5,0.1-0.7,0.3-0.6c0.2,0.2,0.2,0.5,0,0.8
		C148,181.9,147.9,181.8,147.9,181.3L147.9,181.3z M218.5,181.2c-0.5-1.1-0.3-4.1,0.2-4.1c0.3,0,0.5,1.1,0.5,2.4
		C219.2,182,219,182.4,218.5,181.2z M176.6,177.4c-0.2-2.5-0.1-3.4,0.6-3.4c0.6,0,1,2.4,0.7,4.1C177.4,180.4,176.8,180,176.6,177.4z
		 M231.4,177.3c0-0.8-0.3-1.7-0.6-1.9c-0.4-0.2-0.7-1.1-0.8-2c-0.2-1.2-0.1-1.5,0.4-1.2c1,0.8,1.2-0.3,1.2-5.5
		c0-3.5,0.2-5.1,0.5-5.4c0.3-0.2,0.6-0.1,0.7,0.2c0.1,0.3,0.4,0.5,0.6,0.5c0.5,0,0.3-4.4-0.3-5.7c-0.9-2.1-1.1-3.9-0.4-4.3
		c0.5-0.3,0.6-1.2,0.2-4.8c-0.3-3.7-0.3-4.7,0.3-5.7c0.8-1.4,0.9-2.6,0.3-3c-0.5-0.3-1-2.3-0.6-2.7c0.5-0.5,2.4,3.8,2.4,5.4
		c0,0.9,0.2,2.3,0.5,3.3c0.6,2,0.2,4-0.7,3.7c-0.9-0.3-1.3,1-0.7,2.2c0.6,0.9,0.9,17.6,0.4,18.3c-0.1,0.2-0.6,0.5-1,0.6
		c-0.7,0.2-0.8,1-0.9,4.8c-0.1,3.1-0.3,4.6-0.7,4.7C231.6,178.8,231.4,178.4,231.4,177.3L231.4,177.3z M168.8,177.2
		c-0.2-0.4-0.1-1.1,0.2-1.7c0.5-0.9,0.5-0.8,0.5,0.7C169.6,178,169.3,178.4,168.8,177.2z M219.3,173.7c-0.2-0.4-0.2-0.8,0-0.9
		c0.4-0.4,1.3,0.3,1.3,1C220.6,174.6,219.7,174.6,219.3,173.7L219.3,173.7z M159.3,165.5c0.1-0.3,0.4-0.6,0.7-0.7
		c0.3-0.1,0.5,0.1,0.3,0.5C160,166.1,159,166.3,159.3,165.5z M166.8,164.9c-0.9-1-0.2-2.5,1.2-2.5c0.9,0,1.2,0.2,1.2,1
		c0,1-0.8,2.1-1.5,2.1C167.5,165.6,167.1,165.3,166.8,164.9L166.8,164.9z M180,163.4c0-0.2,0.2-0.4,0.5-0.4c0.3,0,0.5,0.2,0.5,0.4
		s-0.2,0.4-0.5,0.4C180.2,163.8,180,163.6,180,163.4z M187.2,155c-0.4-0.5-1.2-0.9-1.6-0.9c-1,0-1.6-1.3-0.9-1.9
		c0.3-0.3,0.9,0,2,0.9c0.8,0.8,1.7,1.4,1.9,1.4c0.2,0,0.4,0.3,0.4,0.7C189,156.1,188.1,156,187.2,155L187.2,155z M206.9,153.9
		c0-0.8,0.2-1.5,0.5-1.5c0.3,0,0.5,0.7,0.5,1.5c0,0.8-0.2,1.5-0.5,1.5C207.1,155.4,206.9,154.7,206.9,153.9z M147.8,154.7
		c-0.5-0.5-0.4-3.1,0.1-3.5c0.2-0.1,0.5,0.2,0.7,0.6C148.8,153,148.2,155.2,147.8,154.7z M187.9,152.4c-1.2-1.3-1-1.9,0.6-1.6
		c0.9,0.2,1.5,0.1,1.9-0.4c0.7-0.8,3.1-0.9,3.6-0.2c0.2,0.2,0.1,0.4-0.1,0.4s-0.9,0.4-1.5,0.9c-0.6,0.5-1.4,0.9-1.7,0.9
		c-0.4,0-0.6,0.2-0.6,0.4C189.9,153.5,188.7,153.3,187.9,152.4L187.9,152.4z M208.3,148.9c0-2.1,0.2-2.8,0.5-2.3
		c0.6,0.9,0.6,4.7,0,5.1C208.5,151.9,208.3,150.8,208.3,148.9z M206,149c0-1.3,0.2-1.9,0.5-1.8c0.3,0.2,0.5,0.9,0.5,1.8
		s-0.2,1.6-0.5,1.8C206.1,151,206,150.3,206,149z M142.8,148.4c0.1-3,0.9-3.3,0.9-0.2c0,1.4-0.2,2.5-0.5,2.5
		S142.7,149.6,142.8,148.4L142.8,148.4z M178.6,144.7c0.1-1.2,0.7-2.3,1.1-1.7c0.2,0.3,0.1,0.9-0.2,1.4
		C178.9,145.4,178.6,145.6,178.6,144.7z M206.9,144c0-1,0.7-1.2,1.1-0.2c0.4,1,0.4,1.1-0.4,1.1C207.2,144.8,206.9,144.5,206.9,144z
		 M210.5,144c-0.5-1.7-0.4-8.8,0.1-8.8c0.7,0,0.6-2.1-0.1-2.3c-0.4-0.1-0.4-0.5-0.2-1c0.4-0.8,0.4-0.8,0.9,0.1c0.3,0.5,0.7,1,0.9,1
		c0.6,0,0.5,3-0.1,3.3c-0.3,0.2-0.5,1.7-0.5,3.5c0,1.7-0.2,3.7-0.4,4.3l-0.3,1.1L210.5,144L210.5,144z M150.7,143.3
		c0-0.7,0.3-1.1,0.7-1.1c0.4,0,0.7-0.4,0.7-0.8c0-0.5,0.2-1,0.5-1.1c0.3-0.2,0.5-0.7,0.5-1.1s0.2-0.8,0.5-0.8s0.5,0.4,0.5,0.9
		s-0.2,0.9-0.4,0.9s-0.8,1-1.2,2.2C151.5,144.6,150.7,145.1,150.7,143.3L150.7,143.3z M146.5,142.7c0-1.3,1-3.6,1.5-3.6
		c0.2,0,0.4-0.3,0.4-0.6c0-0.8,5.1-5.8,5.5-5.4c0.2,0.2,0.1,0.4-0.2,0.5c-0.3,0.1-0.6,0.4-0.6,0.6c0,0.2-0.3,0.7-0.6,1.1
		c-0.3,0.4-0.8,0.9-1.1,1.2c-2.7,3-4,5.2-3.7,6.2c0.2,0.9,0.1,1.1-0.5,1.1C146.7,144,146.5,143.6,146.5,142.7L146.5,142.7z
		 M169.8,142.5c0.2-0.5,0.4-2.3,0.6-3.9c0.2-2.7,0.4-3.1,2.1-4.6c1.3-1.2,1.8-2.1,1.8-3.1c0-0.7,0.4-1.7,0.9-2.1
		c0.8-0.7,0.9-0.7,1.7,0.1c0.9,0.9,1,1.8,0.3,1.8c-0.3,0-0.7-0.4-0.9-0.8c-0.4-0.6-0.5-0.4-0.5,1.1c0,1-0.2,1.9-0.4,1.9
		c-0.6,0-2.3,3.5-2.9,6c-0.8,3.1-1.5,4.6-2.3,4.6C169.7,143.5,169.6,143.2,169.8,142.5L169.8,142.5z M187.3,141.3
		c-0.8-1.5-1.1-8.3-0.4-8.3c0.2,0,0.7,0.7,1.2,1.6c0.7,1.4,0.7,1.8,0.2,3.1c-0.5,1.2-0.5,1.8,0,2.9
		C189.2,142.5,188.3,143.1,187.3,141.3L187.3,141.3z M144.1,138.9c0-0.6,0.2-1.1,0.5-1.1c0.3,0,0.5,0.5,0.5,1.1s-0.2,1.1-0.5,1.1
		C144.3,140,144.1,139.5,144.1,138.9z M200.3,139.3c0-0.4,0.2-0.7,0.5-0.7s0.5,0.3,0.5,0.7s-0.2,0.7-0.5,0.7
		S200.3,139.7,200.3,139.3z M141.7,138.5c0-0.1,0.2-0.3,0.5-0.5c0.3-0.2,0.5-0.1,0.5,0.2c0,0.3-0.2,0.5-0.5,0.5
		S141.7,138.6,141.7,138.5L141.7,138.5z M215.9,136.7c0-0.8-0.2-1.5-0.4-1.5s-0.6-0.4-0.7-1c-0.7-2.4-3.6-7.8-4.1-7.8
		c-0.2,0-0.4-0.3-0.4-0.6s-0.4-0.8-0.9-0.9c-0.9-0.3-1.4-2-0.5-2c1.4,0,6.2,6.5,6.2,8.5c0,0.4,0.2,0.8,0.5,0.8s0.5,0.7,0.5,1.5
		c0,0.8,0.2,1.5,0.4,1.5c0.6,0,1,1.5,0.7,2.4C216.5,138.7,215.9,138.3,215.9,136.7L215.9,136.7z M154.5,137.2c0-0.5,0.1-0.7,0.3-0.6
		c0.2,0.2,0.2,0.5,0,0.8C154.7,137.8,154.5,137.7,154.5,137.2L154.5,137.2z M145,136.9c0-0.2,0.2-0.4,0.5-0.4c0.3,0,0.5,0.2,0.5,0.4
		c0,0.2-0.2,0.4-0.5,0.4C145.3,137.3,145,137.1,145,136.9z M146.2,135.5c-0.2-0.3,0-0.7,0.4-1c0.4-0.3,0.8-0.8,0.8-1
		s0.3-0.5,0.7-0.5s0.8-0.3,0.9-0.6c0.1-0.3,0.4-0.4,0.5-0.3c0.2,0.2-0.2,0.8-0.9,1.5s-1.2,1.4-1.2,1.6
		C147.4,135.8,146.6,136.1,146.2,135.5L146.2,135.5z M208.3,135.2c0-0.5,0.2-0.9,0.5-0.9c0.3,0,0.5,0.3,0.5,0.6s-0.2,0.8-0.5,0.9
		C208.5,136,208.3,135.7,208.3,135.2L208.3,135.2z M164.2,134.5c-0.4-1-0.4-1.1,0.4-1.1s0.9,0.4,0.3,1.3
		C164.6,135.1,164.5,135.1,164.2,134.5L164.2,134.5z M192.7,133.1c-0.6-0.6-1.5-1.1-1.9-1.1c-2.1,0,0-4.5,2.7-5.8l1.8-0.9l2,0.9
		c2.8,1.3,3.1,2.5,0.9,4.4c-1.3,1.1-2.2,1.5-3.4,1.5c-1.8,0-2,0.3-0.9,1.1c0.5,0.3,0.6,0.6,0.3,0.8
		C194,134.1,193.3,133.7,192.7,133.1L192.7,133.1z M231.6,133c-0.2-0.7-0.5-1.6-0.7-2.1s-0.8-1.9-1.2-3.1c-0.5-1.2-1-2.4-1.2-2.6
		s-0.4-0.9-0.4-1.5c0-0.6-0.5-1.7-1.2-2.5c-1.3-1.6-1.5-2.8-0.5-2.8c1,0,0.9-0.5-0.7-2.2c-1.6-1.8-1.8-2.6-0.5-2.6
		c0.6,0,1-0.4,1.1-1c0.2-0.9,0.2-0.9,0.6-0.1c0.3,0.6,0.2,0.9-0.2,1c-0.7,0.2-0.7,1.4-0.1,1.4c0.3,0,0.5-0.2,0.5-0.4
		s0.3-0.4,0.7-0.4c0.5,0,0.6,0.3,0.5,0.8c-0.2,0.5-0.1,1,0.2,1.1c0.3,0.2,0.5,0.8,0.5,1.3s0.3,1.6,0.6,2.2c0.5,1,0.4,1.2-0.4,1.8
		c-0.5,0.4-0.7,0.6-0.4,0.7c0.3,0,0.7,0.7,1.1,1.5c0.3,0.8,0.9,2,1.3,2.7c0.4,0.7,0.8,2.8,1,4.7C232.5,134.2,232.2,135.4,231.6,133
		L231.6,133z M184.4,132.9c-0.5-0.7,0.6-1.6,1.3-1c0.5,0.5,0.2,1.5-0.5,1.5C184.9,133.4,184.6,133.2,184.4,132.9L184.4,132.9z
		 M169,132.7c-0.2-0.2-0.3-0.7-0.3-1.1c0-0.6-0.2-0.8-0.9-0.6c-0.7,0.2-0.9,0.1-0.7-0.7c0.1-0.6,0.1-0.8-0.1-0.5s-0.6,0.6-0.9,0.6
		c-0.7,0-0.7-2.2,0-3.7c0.2-0.5,0.2-0.9-0.2-1.2c-0.4-0.2-0.4-0.4-0.1-0.6c0.3-0.2,0.5-0.1,0.5,0.2s0.8,0.5,1.9,0.5
		c1,0,1.9,0.2,1.9,0.4c0,0.2,0.3,0.4,0.7,0.4c1.4,0,2.7,1.9,2.5,3.7c-0.1,1.7-0.2,1.8-1.8,1.9c-0.9,0.1-1.8,0.3-1.9,0.6
		C169.4,132.8,169.1,132.8,169,132.7L169,132.7z M150.8,131.1c0.1-0.3,0.5-0.7,0.8-0.8c0.4-0.1,0.5,0.1,0.4,0.4
		c-0.1,0.3-0.5,0.7-0.8,0.8C150.9,131.6,150.7,131.5,150.8,131.1z M186.3,129.1c-0.4-1.7,0.3-3.5,1.5-3.5c1,0,1,0.3,0.4,2.8
		C187.6,130.4,186.7,130.7,186.3,129.1z M153.1,129.1c0-0.2,0.4-0.9,0.9-1.5c0.7-0.8,0.9-0.9,0.9-0.4c0,0.4-0.4,1.1-0.9,1.5
		C153.5,129.2,153.1,129.4,153.1,129.1L153.1,129.1z M216,128.3c-0.2-0.4-0.2-0.8,0-0.9c0.4-0.4,1.3,0.3,1.3,1
		C217.3,129.2,216.4,129.1,216,128.3L216,128.3z M155.4,126.1c0-0.4,0.2-0.7,0.5-0.7s0.5,0.3,0.5,0.7s-0.2,0.7-0.5,0.7
		S155.4,126.5,155.4,126.1z M215.1,126.3c-0.2-0.2-0.1-0.4,0.2-0.4s0.5,0.2,0.5,0.4s-0.1,0.4-0.2,0.4
		C215.5,126.8,215.3,126.6,215.1,126.3z M180,124.8c0-1.5,0.9-3.3,1.7-3.3c0.3,0,0.7-0.4,0.8-0.8c0.1-0.4,0.1,0.1-0.1,1.2
		C182,125,180,127.4,180,124.8L180,124.8z M199.4,125.6c-0.9-0.3-0.7-1,0.4-1c0.5,0,0.9,0.2,0.9,0.4
		C200.8,125.5,200.2,125.8,199.4,125.6z M211.5,122.7c-1.5-1.4-2.7-2.7-2.7-2.8c0-0.7,1.6,0,3,1.3c1.4,1.3,2.9,3.7,2.5,4
		C214.3,125.3,213,124.2,211.5,122.7L211.5,122.7z M172.3,124.3c-0.4-0.4,0.1-1,0.6-1c0.3,0,0.4,0.3,0.4,0.7
		C173.4,124.6,172.8,124.8,172.3,124.3z M189.3,124.2c-0.4-0.6,2-2.4,2.8-2.1c0.7,0.3,0.6,0.4-0.3,1.4
		C190.7,124.6,189.7,124.8,189.3,124.2L189.3,124.2z M195.6,124.1c-0.7-0.4-0.6-0.4,1.5-0.4c0.1,0,0.3,0.2,0.5,0.4
		C198.1,124.7,196.5,124.7,195.6,124.1L195.6,124.1z M167.6,121.5c-0.1-0.5,0-1.1,0.3-1.3c0.8-0.8,2.1-0.6,2.4,0.4
		c0.2,0.5,0.1,0.8-0.2,0.6s-0.8,0.1-1.3,0.5C167.9,122.3,167.8,122.3,167.6,121.5L167.6,121.5z M152.1,121.7c0-0.1,0.2-0.3,0.5-0.5
		c0.3-0.2,0.5-0.1,0.5,0.2c0,0.3-0.2,0.5-0.5,0.5C152.3,121.9,152.1,121.8,152.1,121.7z M158.3,121c0.6-0.5,1.8-1,2.5-1.2
		c0.7-0.2,1.5-0.5,1.8-0.9c0.3-0.3,0.7-0.6,1-0.6c0.8,0,4.5-3.3,6.5-5.6c1.2-1.5,2.8-1.9,2.8-0.8c0,0.4-0.3,0.7-0.6,0.7
		s-1.3,0.7-2.1,1.7c-1.9,2.2-4,4.1-4.4,4.1c-0.2,0-0.9,0.5-1.7,1.1c-0.7,0.6-2,1.2-2.7,1.4s-1.4,0.4-1.6,0.6
		c-0.1,0.2-0.8,0.4-1.5,0.4H157L158.3,121L158.3,121z M194.6,120.8c0-0.9,0.2-1.1,1.2-1.1c1.4,0,1.5,0.7,0.4,1.6
		C194.9,122.1,194.6,122,194.6,120.8L194.6,120.8z M214.9,121.5c0-0.2,0.2-0.4,0.5-0.4c0.3,0,0.5,0.2,0.5,0.4s-0.2,0.4-0.5,0.4
		C215.1,121.9,214.9,121.7,214.9,121.5z M139.4,118.6c0-0.8,0.2-1.6,0.5-1.8c0.3-0.2,0.5-0.8,0.5-1.5c0-0.7,0.3-1.5,0.7-1.8
		s0.7-0.9,0.7-1.4c0-0.8,1.9-4.3,3-5.6c0.3-0.4,0.2-0.7-0.4-1.2c-0.8-0.5-0.8-0.7-0.1-1.9c0.4-0.7,1-1.8,1.3-2.5
		c0.3-0.7,1.4-2,2.2-3c1-1,1.5-2,1.3-2.4c-0.4-0.9,4.1-5.3,6.6-6.3c4.7-2,5.5-2.3,6.6-2.3c1.4,0,2.6,0.4,2.6,0.9
		c0,0.2-0.3,0.4-0.6,0.4s-1.4,0.4-2.5,0.9c-1,0.5-2.4,0.9-3.1,0.9c-1.7,0-4,1.2-5.1,2.5c-0.9,1.1-0.9,1.2-0.2,1.9
		c0.7,0.7,0.7,0.8-0.1,1.1c-0.5,0.2-2,1.3-3.4,2.5c-2.3,2.1-3.1,3.3-2,3.3c0.3,0,0.5-0.2,0.5-0.4s0.4-0.4,0.9-0.4
		c1.3,0,1.2,0.3-0.9,3.1c-1,1.4-1.9,2.6-1.9,2.8c0,0.2-0.5,0.9-1.2,1.7c-0.6,0.8-1.2,1.8-1.2,2.2s-0.2,0.7-0.5,0.7
		c-0.3,0-0.5,0.5-0.5,1.1c0,0.6,0.2,1.2,0.5,1.4c0.3,0.2,0.5,0.5,0.5,0.7c0,0.6-1.3,0.5-1.5-0.1c-0.1-0.3-0.4-0.4-0.6-0.2
		c-0.2,0.2-0.1,0.5,0.3,0.8c0.6,0.4,0.5,0.7-0.4,2.3c-0.6,1-1.1,2.1-1,2.4c0,0.3-0.3,0.6-0.7,0.6
		C139.6,120.1,139.4,119.7,139.4,118.6L139.4,118.6z M201.1,118.9c-0.7-0.8-1.1-2.3-0.5-2.3c0.5,0,2.5,2.4,2.3,2.8
		C202.4,119.9,201.9,119.8,201.1,118.9L201.1,118.9z M211.8,118.9c-0.8-0.4-1.5-0.8-1.7-1c-0.2-0.2-1-0.4-2-0.6
		c-0.9-0.2-1.9-0.6-2-1c-0.4-1-0.2-1.1,1.6-0.5c3.2,1,4.5,1.6,5.1,2.6C213.8,119.6,213.6,119.8,211.8,118.9L211.8,118.9z
		 M153.1,117.9c0-0.5,0.9-0.6,2.7-0.5c0.6,0.1,1.9-0.3,2.9-0.8c1.2-0.6,2-0.7,2.5-0.5c0.6,0.3,0.6,0.5-0.1,0.8
		c-0.4,0.2-1.1,0.4-1.5,0.4s-0.9,0.2-1.1,0.4c-0.2,0.2-1.5,0.4-2.9,0.4S153.1,118.2,153.1,117.9L153.1,117.9z M180.9,116.6
		c0-0.5,0.2-0.9,0.5-0.9c0.3,0,0.5-1.4,0.5-3.3c0-1.8-0.2-3.4-0.5-3.6s-0.5-1.5-0.5-3c0-3.4-1.6-6.7-4.3-9.1c-1.3-1.1-1.7-1.8-1.4-2
		c0.8-0.4,5.5,4.4,5.9,6c0.2,0.7,0.5,1.4,0.7,1.5c0.2,0.1,0.4,1.7,0.4,3.6c0,3.2,0,3.3,1,2.8c0.7-0.3,0.9-0.7,0.7-1.2
		c-0.2-0.4-0.4-1-0.5-1.4c-0.3-0.8,2.2-4.4,3-4.4c0.8,0,0.8,1.2,0,1.6c-0.8,0.4-1.7,2-1.7,2.9c0,0.4,0.2,0.3,0.6-0.2
		c0.3-0.4,0.9-0.8,1.2-0.8c0.3,0,0.5-0.2,0.5-0.5s0.2-0.4,0.3-0.2c0.2,0.2-0.2,0.9-0.7,1.6c-0.6,0.7-1,1.6-1,1.9
		c0,0.3-0.2,0.8-0.4,1c-0.6,0.6-2.1,5.5-1.8,5.8c0.2,0.2,0.9-0.4,1.6-1.2c0.7-0.8,1.9-2,2.6-2.7c1.4-1.4,1.6-1.9,0.7-2.2
		c-0.3-0.1-0.4-0.4-0.2-0.6c0.2-0.2,0.6-0.1,0.8,0.2c0.3,0.5,0.9,0.4,2.9-0.6c1.8-0.8,3.1-1.2,4.4-1.1c2.6,0.2,2.3,1-0.4,1.2
		c-1.4,0.1-2.4,0.4-2.5,0.8c-0.2,0.4-0.6,0.6-1,0.6c-0.4,0-1.3,0.4-1.9,0.9c-0.9,0.7-1,1-0.5,1.3c0.6,0.3,0.6,0.5,0.1,0.9
		c-0.5,0.5-0.7,0.5-1-0.1c-0.6-0.9-3.4,1.8-3.2,3.1c0.1,1.1-1.5,2.1-3.6,2.1C181.2,117.5,180.9,117.3,180.9,116.6L180.9,116.6z
		 M187.6,115.6c0.1-0.3,0.6-0.6,1.1-0.7c0.5-0.1,1.1-0.4,1.3-0.8c0.2-0.3,0.7-0.6,1-0.6s1.6-0.5,2.8-1.1c3.1-1.5,6-1.5,9.3,0.2
		c1.4,0.7,2.6,1.5,2.7,1.8c0.2,0.7-1.4,0.7-2.2,0c-1.6-1.5-7.2-2.2-8.4-1c-0.4,0.4-1.1,0.7-1.6,0.7s-1.1,0.3-1.4,0.7
		c-0.3,0.4-1,0.7-1.5,0.7c-0.5,0-0.9,0.2-0.9,0.4s-0.5,0.4-1.2,0.4C187.9,116.2,187.5,116,187.6,115.6L187.6,115.6z M179,115.2
		c0-0.7-1.6-2.6-2.3-2.6c-0.3,0-0.7-0.3-1-0.7s-1-0.7-1.5-0.7c-0.5,0-0.9-0.2-0.9-0.5c0-0.8,1.4-1,2.3-0.3c0.5,0.4,1.1,0.7,1.4,0.7
		c0.6,0,2.9,2.7,2.9,3.4C180,115.5,179,115.9,179,115.2L179,115.2z M151.9,114.4c-0.2-0.3,0.3-0.4,1.2-0.4c0.8,0,1.4,0.2,1.4,0.4
		c0,0.2-0.5,0.4-1.2,0.4C152.7,114.8,152.1,114.7,151.9,114.4z M156.6,114.2c0.5-0.4,1.3-0.6,1.8-0.6c1,0,1.5-0.4,4.3-2.9
		c1.1-1,2.7-2.1,3.7-2.6c1-0.4,1.9-0.9,2-1.2c0.5-0.7,5.6-0.5,6.9,0.3c1.8,1.2,2.4,1.8,2.4,2.5c0,0.9-0.3,0.9-1.4-0.1
		c-2-1.7-2.5-1.9-4.9-1.9c-1.8,0-2.6,0.2-2.8,0.7c-0.2,0.4-0.7,0.7-1.1,0.7c-0.5,0-2.1,1.1-3.7,2.4c-1.6,1.3-3.1,2.4-3.4,2.4
		c-0.3,0-0.6,0.2-0.6,0.4c0,0.2-0.9,0.4-2,0.4C155.8,114.8,155.7,114.8,156.6,114.2L156.6,114.2z M223.5,109.6c-1.1-1.2-2-2.4-2-2.6
		c0-0.8,1.4-0.6,2.7,0.4c1.7,1.3,2.3,1.1,1.2-0.4c-1.5-2.1-4.1-4.7-5.7-5.6c-1.5-0.8-2.1-2-1-2c1.6,0-2.2-4-5.3-5.5
		c-1.7-0.8-2.3-1.6-1.3-1.6c0.3,0,0.5-0.3,0.5-0.7s-0.4-0.7-0.9-0.7c-0.5,0-0.9-0.3-0.9-0.6c0-0.4-0.8-0.7-2.4-0.8
		c-1.6-0.2-2.7-0.5-3.3-1.2c-0.8-0.8-1.5-0.9-4.7-0.9c-3.8,0-4.8-0.4-3.8-1.6c0.5-0.5,0.4-0.6-0.2-0.6c-0.4,0-0.8,0.2-0.8,0.4
		c0,0.2-0.5,0.5-1.2,0.7c-0.6,0.2-1.2,0.5-1.2,0.7c0,0.2-0.3,0.4-0.6,0.4c-0.4,0-0.9,0.3-1.2,0.7c-0.7,0.7-2.2,0.9-2.6,0.2
		c-0.2-0.2-0.1-0.8,0.2-1.4c0.5-0.9,0.4-0.9-1.1-0.6c-1.7,0.3-2.7-0.4-1.8-1.3c0.7-0.6,0.7-1.2,0.1-1.2c-0.3,0-0.5,0.3-0.5,0.7
		c0,0.4-0.2,0.7-0.4,0.7c-0.2,0-0.6,0.4-0.8,1c-0.3,0.5-0.9,1-1.5,1.1c-0.7,0.1-1,0.4-1,1c0,0.5-0.3,0.8-0.7,0.8s-1,0.1-1.4,0.3
		c-0.5,0.2-0.9,0-1.1-0.6c-0.5-1.2-2.4-2.8-3.4-2.8c-0.5,0-1-0.3-1.2-0.7c-0.2-0.5,0.1-0.7,1.1-0.7c0.8,0,1.5,0.2,1.7,0.5
		c0.2,0.3,0.5,0.3,0.9,0c0.4-0.3,0.9-0.2,1.7,0.6c1.5,1.5,1.7,1.4,1.7-0.6c0-0.9,0.3-2.4,0.5-3.4c0.6-1.9,2-3.2,2.6-2.4
		c0.4,0.6,0,3.4-0.6,4c-0.2,0.2-0.4,0.6-0.4,0.8s0.9-0.4,2-1.4c1.1-1,2.3-1.8,2.6-1.8c0.9,0,1.2,0.7,0.6,1.9c-0.7,1.4-0.3,1.9,0.8,1
		c0.9-0.8,1.6-0.9,2.6-0.3c0.6,0.3,0.6,0.5,0.1,1.1c-0.4,0.4-0.4,0.7-0.1,0.7c0.3,0,0.6-0.2,0.8-0.4s0.8-0.4,1.4-0.4
		c0.6,0,1.4-0.3,1.7-0.7c0.6-0.7,3.5-0.9,4.9-0.4c0.4,0.2,0.7,0.5,0.7,0.9c0,0.3,0.4,0.6,0.9,0.6c0.5,0,1,0.2,1.2,0.4
		c0.2,0.2,1.1,0.4,2.1,0.4c1.5,0,2.2,0.3,3.7,1.8c1,1,2.2,1.8,2.6,1.8s1,0.3,1.3,0.7c0.3,0.4,0.8,0.7,1,0.7c0.9,0,3.4,2.6,3.2,3.4
		c-0.1,0.5,0.6,1.5,1.5,2.4c2.9,2.8,4.2,4.3,4.2,4.8c0,0.3,0.2,0.5,0.4,0.5c0.2,0,0.5,0.5,0.7,1c0.2,0.6,0.9,1.7,1.7,2.5
		c0.8,0.8,1.4,1.9,1.4,2.3s0.3,0.8,0.7,0.8s0.8,0.2,1,0.5c0.4,0.7-0.7,1.8-1.6,1.5c-0.4-0.1-0.9,0-1.2,0.4
		C225.6,111.6,225.2,111.3,223.5,109.6L223.5,109.6z M179.5,110.5c-0.4-0.4-1-1.4-1.4-2.1c-0.8-1.5-2.3-2.8-3.2-2.8
		c-0.3,0-0.7-0.3-0.9-0.7c-0.2-0.4-0.9-0.7-1.9-0.7c-0.9,0-2.3-0.3-3-0.7c-1.3-0.7-1.4-0.7-3.9,0.4c-2.7,1.3-3.7,1.5-3.7,0.7
		c0-0.2,0.2-0.4,0.5-0.4c0.3,0,1.2-0.5,2-1.1c0.8-0.6,2.3-1.2,3.1-1.4c0.9-0.2,2-0.5,2.6-0.8c1.3-0.7,5.4-0.7,5.8,0.1
		c0.1,0.3,0.6,0.6,1,0.6c1,0,2.6,2,1.9,2.4c-0.3,0.2-0.7,0.1-0.9-0.2c-0.8-1.2-3.6-2.2-5.8-1.9c-2.4,0.3-2.6,1-0.4,1
		c2.9,0,7.6,2.8,7.6,4.6c0,0.4,0.2,0.7,0.5,0.9c0.3,0.2,0.5,0.7,0.5,1.1c0,0.5,0.2,0.8,0.5,0.8c0.3,0,0.5,0.2,0.5,0.4
		C180.9,111.6,180.2,111.4,179.5,110.5L179.5,110.5z M191.1,110.9c-0.4-0.6,0.9-1,1.9-0.7c0.4,0.2,0.7,0,0.7-0.4
		c0-0.4,0.5-0.6,1.7-0.6c2,0,2.2,0.8,0.4,1.1c-0.7,0.1-1.7,0.4-2.1,0.7C192.5,111.4,191.4,111.4,191.1,110.9L191.1,110.9z
		 M165.4,106c0-0.2,0.2-0.4,0.5-0.4c0.3,0,0.5,0.2,0.5,0.4s-0.2,0.4-0.5,0.4C165.6,106.5,165.4,106.3,165.4,106z M163,98.8
		c0-0.4,0.3-0.7,0.7-0.7c0.4,0,1-0.3,1.5-0.7c0.8-0.8,2.3-0.9,2.8-0.2c0.2,0.3-0.1,0.6-0.6,0.7c-0.5,0.1-1.5,0.5-2.2,0.9
		C163.5,99.6,163,99.6,163,98.8L163,98.8z M187.9,99.1c-0.4-0.4,1.1-2.4,1.8-2.4c1.2,0,1.2,0.8-0.2,1.7
		C188.7,99,188,99.3,187.9,99.1L187.9,99.1z M171.4,98.4c-0.7-0.3-1.3-0.7-1.3-1c0-0.9,1.8-0.7,2.4,0.3
		C173.1,98.8,173,98.9,171.4,98.4z M184.7,95.7c0-0.6,1.2-2.5,1.5-2.5c0.6,0,0.5,1.5-0.2,2.1C185.5,95.9,184.7,96.1,184.7,95.7z
		 M181.4,94.8c0-0.5,0.1-0.7,0.3-0.6c0.2,0.2,0.2,0.5,0,0.8C181.6,95.4,181.5,95.3,181.4,94.8L181.4,94.8z M188,91.9
		c0-0.2,0.2-0.4,0.5-0.4s0.5,0.2,0.5,0.4c0,0.2-0.2,0.4-0.5,0.4C188.2,92.4,188,92.2,188,91.9z M165.5,87.3
		c-0.5-1.3,0.1-2.2,1.4-2.4c0.7-0.1,1.4-0.4,1.6-0.8c0.3-0.7,1.6-0.8,3.4-0.4c0.8,0.2,1,0.5,0.8,1.2c-0.2,0.5-0.1,1,0.3,1.2
		c0.3,0.2,0.4,0.5,0.3,0.8c-0.2,0.3-0.8,0.2-1.7-0.3C170,86,170,86,169.3,87C168.4,88.1,165.9,88.3,165.5,87.3z"/>
</g>
</svg>
