<?xml version="1.0" encoding="utf-8"?>
<!-- Generator: Adobe Illustrator 17.0.0, SVG Export Plug-In . SVG Version: 6.00 Build 0)  -->
<!DOCTYPE svg PUBLIC "-//W3C//DTD SVG 1.1//EN" "http://www.w3.org/Graphics/SVG/1.1/DTD/svg11.dtd" [
	<!ENTITY ns_flows "http://ns.adobe.com/Flows/1.0/">
	<!ENTITY ns_extend "http://ns.adobe.com/Extensibility/1.0/">
	<!ENTITY ns_ai "http://ns.adobe.com/AdobeIllustrator/10.0/">
	<!ENTITY ns_graphs "http://ns.adobe.com/Graphs/1.0/">
]>
<svg version="1.1" id="Layer_1" xmlns:x="&ns_extend;" xmlns:i="&ns_ai;" xmlns:graph="&ns_graphs;"
	 xmlns="http://www.w3.org/2000/svg" xmlns:xlink="http://www.w3.org/1999/xlink" xmlns:a="http://ns.adobe.com/AdobeSVGViewerExtensions/3.0/"
	 x="0px" y="0px" width="256px" height="256px" viewBox="0 0 256 256" style="enable-background:new 0 0 256 256;"
	 xml:space="preserve">
<g transform="translate(0.000000,1244.000000) scale(0.100000,-0.100000)">
	<path style="fill:none;stroke:#000000;stroke-width:3;stroke-miterlimit:10;" d="M1704,12394c-19.4-3.2-29.8-5.8-67-16.2
		c-7.6-2.2-18.4-5.2-24-6.6c-9.6-2.6-16-4.8-31-10.4c-3.8-1.4-14.2-4.6-23-7c-18.8-5-44.2-13.4-48.8-15.8c-1.8-1-11.2-5.6-21.2-10.2
		c-47-21.8-74.2-46.8-111-101c-24.2-36-47.6-80-83-155.8c-9.4-20.2-17-37.2-17-38c0-2.8-26.8-55.4-38.6-76
		c-16-27.6-46.2-73.4-71.2-107.6c-32.2-44.2-46.4-66.4-58.4-90.6c-6.4-13.2-11.8-25.2-11.8-26.6c0-1.4-1.2-5-2.8-7.8
		c-6.2-11.8-19.4-61-28-105.4c-3.4-18.2-8.4-58.6-11.2-93.8c-2.6-31.4-12.4-83.6-19.2-101.8c-1.6-4-2.8-9-2.8-11
		c0-9.4-9.8-23-29-40.6c-82.8-75.4-161.2-131.6-237-169.8c-41.6-21-58.6-28.6-119-53.4c-24.6-10.2-56.8-21.4-122-42.4
		c-68.6-22.2-125.4-49.6-168.2-81.2c-47.6-35.2-76.4-69.8-103.2-124.4c-6.6-13.6-12.8-24.6-13.8-24.6c-0.8,0-8.2,8.4-16.4,18.4
		c-32,39.6-75.6,79-109.4,98.8c-30,17.4-83.2,6.8-99.8-19.8c-13.8-22.4-14.2-57-0.6-79.4c19-31.4,56-71.6,87.4-95.4
		c34.2-25.8,57-39,79.6-46.6c15.8-5.4,15.2-3.4,7.4-31c-2.4-8.8-5.6-21-7-27c-6.6-28.4-11.4-50-13.2-60c-1-6-3.2-18.2-4.8-27
		c-7.8-43.4-14-102.6-17.2-166c-2.4-47.4-1.2-138.2,2.2-168c1.2-9.8,3-26.6,4-37.4c2.8-29.6,8.4-56.4,21.8-107.2
		c3.4-12.4,17-45.4,26.4-63.8c13.6-26.4,29.4-48,51.6-70.2c25-25,41.6-36.2,75.2-50.4c18.6-8,67.2-16,95.6-16
		c31.4,0,78.4,9,111.4,21l15,5.6l85-0.4c46.8,0,213-1.6,369.4-3.6c264-3,284.6-3,289.2,0c7.6,5,22.8,25.6,27.4,37.2
		c8.2,21.2,3.4,43.4-12.6,57.2c-18,15.6-43.4,24.6-95.6,34c-30,5.4-80.6,7.4-143.8,5.8c-32.4-1-71.6-1.4-87-1.2
		c-47.8,1-100.8,11-133.2,25.2c-27.4,12-30.2,13.6-29.4,16.8c0.6,1.8,10.4,17.8,22,35.4c69,105.8,84.6,131.8,97.2,164
		c17.4,44.4,22.6,72.2,22.6,122.6c0,24.2-1,43-3,53.4c-1.6,8.8-3.6,20.8-4.2,26.6c-0.8,5.8-2.6,15-4,20.4
		c-3.2,12.2-1.6,14.6,12,18.6c5.6,1.8,16.8,5,25,7.6c17.6,5.2,59.4,18.8,66.2,21.6c2.6,1,13.4,5.2,23.8,9.4
		c57.4,22.4,108.6,50.4,153,83.6c36,26.6,71.6,59.8,103.8,96.2c22,24.8,60.8,73,75.2,93.4c6.2,8.8,12.2,15.4,13.8,15
		c3.2-0.4,3,0,14.4-43.4c10.4-39.2,12.6-47.6,17.6-66c12.6-47,13.6-51,20.8-81c1.6-6.6,3.8-15.6,5-20c1.2-4.4,9-35.8,17.4-70
		c8.2-34,16.4-67,18-73c1.4-6,4.2-16.8,5.8-24s6.8-28.2,11.2-47c4.6-18.6,10-41.6,12.2-51c2.2-9.4,5.2-22,6.8-28
		c1.4-6,4.2-16.8,5.8-24s6.2-26,10-42s9.2-38.8,12.2-51c2.8-12,6.4-27.6,8-34.4c9.4-39.4,15.4-67.4,21-100.6
		c13.4-78.6,21.8-110.6,40-151.6c10-22.4,15.6-29.2,27.4-33.4c15.2-5.4,43.8-5.8,199.2-2.2c79.4,1.8,162.6,3.4,185,3.8
		c45.2,0.4,44.6,0.2,42.8,14.2c-3.6,29-19.6,47-53.4,59.8c-23.8,9.2-57.8,16.2-94,19.4c-13.2,1.2-25.2,2.6-26.4,3
		c-1.4,0.4-16.2,1.8-33,3c-28.8,2.2-61.4,7.8-69.2,11.8c-1.8,1.2-7.8,4-13,6.4c-34.4,16.4-49,47-70.2,146.8
		c-12.6,59-27.8,178.6-32.2,254c-0.8,11-2.6,36.4-4.2,56.6c-1.6,20.2-2.8,45-2.8,55v18.2l19.6,39.6c10.6,21.6,20.6,40,22.2,40.6
		s4,0,5.2-1.4c1.4-1.4,25.6-42.6,54-91.6c28.4-49,67-114.6,85.8-146s35-58.6,36.2-60.4c72.2-124,157.2-257.8,211.2-333
		c39.4-55.2,78.6-98.6,91.2-101.8c3.2-0.8,58.2,0,122.6,2c64.4,1.8,132,3.2,150.2,3.2c23.4,0,34,0.8,36.2,2.4
		c4.8,3.6,10.2,26.8,8.8,36.6c-3.4,22-19.2,41.4-43.2,52.6c-31.8,14.8-40.6,16.6-87,17.8c-51.4,1.2-64.2-0.4-88.4-11.2
		c-21.4-9.6-23.2-9.4-36.6,5c-9.2,10-15.6,19-33.4,47.8c-9.6,15.4-12.6,21-35.6,63c-9.8,18-55,109-55,110.8c0,0.4-4,9.2-8.8,19.6
		c-4.8,10.4-13,28.6-18.2,40.6c-9.2,21.8-12.2,29-17.8,41.6c-1.6,3.4-5.4,12.2-8.2,19.4s-6.4,15.8-7.8,19c-1.4,3.4-6,14.4-10,24.6
		c-4,10-10.4,26.2-14.2,36c-3.8,9.6-7,18.2-7,19.2c0,0.8-1.2,4.4-2.8,7.8c-1.6,3.6-3.8,9.2-4.8,12.4c-1.2,3.4-5.8,16.4-10.4,29
		c-4.6,12.6-10.8,30.6-14,40s-6.6,19.4-7.6,22c-4.4,10.8-25,78.8-32.4,107c-12.6,47.6-13.6,52-22.2,92c-16.2,76-16.8,134.8-2.8,214
		c1.6,8.8,3.4,20,4.2,25c0.6,5,2.4,14.4,3.8,21c1.6,6.6,4.8,21,7,32c2.4,11,5.6,24,7,29c2.4,8.6,8,30.4,14,54
		c19.8,78.2,28,176.2,20,238c-3.8,29.2-7.8,47.2-16.6,76c-6.6,21.8-8.4,26.8-18.6,52.6c-21.8,54.8-62.2,123.8-109.8,188.4
		c-19.4,26-51.2,66.2-53.8,68c-1.2,0.6-2.2,3-2.2,5.2c0,4.6,3.4,4.8,27.4,1.8c28-3.6,75.4-17.6,112-33.2c3.4-1.6,7.2-2.8,8.6-2.8
		c1.4,0,5.2-1.2,8.6-2.8c3.6-1.6,11-4.4,16.6-6c5.6-1.8,11.8-4.4,13.6-5.8c2-1.4,6.4-11.2,10-21.6c8-23.8,8.6-24,35.6-8.8
		c34.6,19.4,65.2,44.4,85.4,69.8c23.8,29.8,56,82.2,80.6,130.6l10.4,20.6l-6,7.8c-3.2,4.2-10,13-15.4,19.4
		c-18.6,23.2-66.4,92.2-101.2,146.8c-51,79.8-66.4,102.2-78.2,114.2c-10.4,10.6-20.6,16.4-58,33.4c-28,12.6-56.2,30.2-85.2,52.8
		c-49.8,38.8-61,46-93.8,59.4C1781.8,12398,1742,12400.4,1704,12394z M1566,12319.2c0-1.4-5.2-6.6-11.4-11.4
		c-30.6-23-59.2-52.2-76.2-77.6c-9.8-15-26.8-48.4-31.8-63.2c-8.8-25.6-17.4-67.8-19.6-96c-4.6-56.6-12.2-97-26-140
		c-11.6-35.4-16.4-42.6-60-87c-47.6-48.6-66.8-72.4-91.6-112.4c-22.8-37-36.8-65.4-54.4-111.6c-7.2-18.8-18.8-62.4-28.2-105l-3.4-16
		l-29.2-28.4c-16-15.6-30.4-28.4-31.6-28.6c-3.6,0-3.2,3,2.6,25.2c2.8,11,6.4,25.2,7.8,31.8c1.6,6.6,4.8,20.6,7,31
		c2.4,10.4,5.2,23,6.2,28c1,4.8,3.2,13.8,4.8,20c1.4,6,4.6,19.2,7,29c2.2,10,5.4,21.6,6.8,26c1.6,4.4,4.8,15.2,7.2,24
		c5.8,21.6,18.4,58.6,25.8,77c3.4,8.2,6.2,15.6,6.2,16.4c0,1.6,15.2,34.4,24.2,52c21.4,42.8,51.2,78.8,90.8,109.8
		c11,8.6,23,18.2,26.8,21.2c11.4,9.2,16,22.6,17.4,48.8c4.4,90.4,22,154,59,213.8c20.6,33.2,59.8,74.8,87.6,92.8
		c15.2,10,44.2,25.2,47.8,25.2c1,0,5.8,1.8,10.6,4C1558.6,12322.6,1566,12323.2,1566,12319.2z M1712.6,12293.2
		c23.6-4.6,36.2-11.4,54.4-30c16.6-17,28.4-36.2,36.2-59.2c2-6,4.4-12.2,5.4-13.4c2.6-3.6,44.8-3.4,61.4,0.2c7.2,1.6,19.8,5.6,28,9
		c45.6,18.8,102,9.8,152.8-24.2c15.4-10.4,44.8-39.8,52-52.2c8.2-13.8,6.8-15.4-14.4-15.4c-22.6,0-24.4-1.2-26.4-19.2
		c-3.4-28-13.2-46.6-32-60.2c-5-3.6-15.6-11.2-23.8-17c-20.8-14.8-23.2-18.6-23.2-36.2c0.2-11.8,1.2-16.4,5.8-25.4
		c12.8-24.6,37-58.8,60.4-85c14.6-16.4,22-22.6,24.2-20.2c1.2,1-5.6,24.2-12.6,44.2c-3.6,10.6-3.6,18,0.6,30.2
		c9.4,28.4,38,50.8,64.8,50.8c12.4,0,25.8-6.6,36.8-17.8c4.2-4.6,9-8.2,10.4-8.2c1.4,0,6.8,7.2,12,16c11.2,18.4,15,20,23.4,9.2
		c6.6-8.8,6.6-11-0.8-23.8c-11.8-20.6-18.4-25.4-34-25.4c-12.2,0-17.8,3-27.8,14.6c-5.6,6.6-18.2,13.4-24.6,13.4
		c-7.8-0.2-24.2-10.6-30.2-19.2c-12.6-18-10.6-34.4,9.2-79.4c7.2-16.4,12.8-30.8,12.2-32.2c-1.6-4.2-27.8-7.4-37.6-4.4
		c-14,4.2-31.2,16.6-51.2,37c-39.8,40.4-67,91.6-66.8,126.2c0,26.4,8,35.6,63.8,75c15.4,10.8,19,18.2,19,39.8c0,9.4,0.8,19.2,2,22
		c1,2.8,7,8.4,13,12.4c6.2,3.8,10.8,8.2,10.4,9.4c-1,3.2-12,10.8-34.4,24.2c-35.6,21-52.4,26.2-83,26c-22-0.2-28.4-1.6-67-15
		c-17.8-6-18.6-6.2-49.2-5.4c-37.6,0.8-40.2,2-45,19.2c-5.4,19.2-9.2,28.8-17,42.4c-18.4,32.2-42.4,44.8-85.8,44.8
		c-24.4,0-38.2-3.4-55.4-13.2c-54.8-31.6-101.6-108.2-117.8-192.6c-4-20.6-4.6-60.8-1-75.4c1.2-5.2,2.8-18.2,3.4-29
		c2-30.2,2.4-29.6-73.6-124c-40.6-50.6-82.2-105.4-94.8-124.6c-11.8-18.2-22-39.2-26.8-54.6c-3.4-11.2-5.8-14.4-20.8-29
		c-9.2-9-18.2-16.4-20-16.4c-4.2,0-4.2-0.2,1.8,15.6c2.8,7.4,7,18.4,9.2,24.4c4.8,12.6,9,23.6,13.8,35c2,4.4,6,14.4,9,22
		c8.4,21.8,24.2,52.2,35.6,68.6c14.2,20.6,36.4,43.6,74,77c38.4,34,53.2,50.2,61.6,67.2c8.2,16.6,9.2,26.6,4.6,52.4
		c-5.2,30.4-4.6,71.4,1.2,98.2c15,68.2,47,131.8,86,171c23.4,23.4,33.2,30.4,62.8,45C1650.8,12295.4,1688.8,12297.8,1712.6,12293.2z
		 M1714.8,12241.8c16-4.4,32-27,44.2-62.8c3-8.8,6.8-17.8,8.2-20c4.4-6.2,3.4-8.6-6.6-16c-11.6-8.4-16-8.8-18.6-1.4
		c-1.2,3-3,7.2-4,9.4s-4.2,9.8-7.2,17c-8,19.8-14.2,31.2-21,39c-5.6,6.4-7.2,7-17,7c-11.6,0-26.8-6.2-33.2-13.2
		c-9.8-11.2-12.2-30.4-5.6-45.4c8.4-19,30.4-32.4,73.8-44.6c6.8-2,13-4.6,13.4-5.8c0.6-1.4-7-10.4-16.8-20.4
		c-21.2-21.6-35-39.6-42-54.6c-4.8-10.2-5.2-13.2-5.2-39s0.4-29,5.2-40.4c7.8-18.2,18.6-34,34.6-49.4c17.4-17,53.2-41,72.6-48.8
		c25-10,24.6-14.4-0.6-14.4c-16.8,0-17,0-18-5.4c-2-10.8-10.8-43.8-14-52.6c-6.2-17.4-17.8-38.8-25-46c-4.4-4.6-11.2-8.6-18.4-11
		c-10.6-3.6-11.4-3.6-16.6-0.2c-8,5.2-8.6,9.2-1.8,14c20.6,14.8,36.4,49.2,45,98c2.4,13.6,0,19-10.2,23.2c-7.6,3.2-8.2,2.6-14-14
		c-4.6-12.8-15.2-35.6-23.8-50.4c-5.8-10.4-10.2-18.2-19-34c-4-7.2-8.6-14.4-10.2-15.6c-3.6-3-10.8-1.4-16.8,3.6l-4.4,3.4l12.8,25
		c15,29,28.8,60.4,36.4,82.4c6,17.6,5.6,19-7,30.4c-6.6,6-8.8,7-11.2,5c-1.6-1.2-2.8-4.6-2.8-7.4c0-7.2-9-33.4-16.6-47.8
		c-10-19-56-88.4-59.4-89.4c-1.6-0.6-8.4-1.2-15-1.6c-9.8-0.4-12,0-12.6,2.8c-0.6,3,18,31.6,45.2,69.6c30.6,42.8,42.6,91.4,31.6,128
		c-9.4,31.2-5.2,66,11.6,98c5,9.4,20,30.2,25,34.8c2.4,2.2,4.2,4.8,4.2,6.2c0,3-29.2,21-33.8,21s-23.2-18.6-29.8-29.8
		c-11.2-19-12.8-29.8-14.4-99.2c-1.6-66.4-4.2-90.2-12-113.4c-4.4-13-13.8-31-21.6-41.4c-30.8-41.2-63.6-82.6-66.6-84.4
		c-2.2-1.2-7.8-3.2-12.4-4.8c-4.6-1.4-17.4-6-28.4-9.8c-21.6-7.6-25-8.4-25-5.2c0,1.2,13.2,16.2,29.6,33.6
		c78.4,83.8,96.6,108.8,110.6,152.6c4.4,14,4.6,18,4.8,73.8c0.2,54,0.6,60.2,4.6,73.8c5.4,18.6,15.8,37.6,30.2,54.8
		c18,21.8,17.2,20.2,11.6,27.8c-10,13.4-12,19.6-12,37.6c0,13.2,1,19.4,4.6,27.6c7.8,18,31,36,52,40.4
		C1686.8,12244.4,1706.2,12244.2,1714.8,12241.8z M1960,12151.6c-0.2-1.4-1.4-7.6-2.8-13.6c-3-13.2-4.2-13.6-25.4-9
		c-8.2,1.8-19.6,4.4-25.6,5.8c-6,1.2-11.2,3.4-11.6,4.6c-1,2.8,14.4,7.4,35.4,10.6c8.2,1.2,15.2,2.6,15.8,3
		C1947.8,12155.2,1960,12153.8,1960,12151.6z M2003,12126.8c7.6-12.8,10.8-19.8,9.4-21.2c-2.6-2.6-32.4,6-33.8,9.8
		c-1.6,4.2,7.6,30.6,10.6,30.6C1990.6,12146,1996.8,12137.4,2003,12126.8z M106.2,10957.2c5.2-1.6,12.4-4.4,16-6.2
		c9.4-4.8,39-28.8,63.8-52c46.8-43.6,68.6-59.8,89.6-66.8c15.4-5.2,56.2-5.8,83.4-1.2c18.4,3.2,37,7,101,21.2
		c10.4,2.2,24.8,5.4,32,7c7.2,1.6,18.8,4.2,26,5.8c19,4.6,62,9,87,9c21.6,0,73.2-4.6,76.8-6.8c1-0.6,7.4-2.4,14.4-4
		c27.4-6.2,48.4-15.6,76.8-34.4c66.2-43.8,113.6-117.2,134.6-208.8c4.2-18.2,10.8-59,14.4-90c1.4-10.4,2.8-40.2,3.4-66
		c0.8-41.8,0.4-49.6-3.2-71c-7-39.4-16-66.6-35.2-105.2c-48.8-98-131.8-190.2-227.4-253.2c-14-9-25.8-16.6-26.4-16.6
		c-0.4,0-8.6-4.4-18.2-10c-9.6-5.4-17.6-10-18.2-10c-0.4,0-6.4-2.8-13.2-6.2c-7-3.2-18.4-8.2-25.6-11s-16.2-6.4-20-7.8
		c-28.6-11.2-61.4-17.2-102-18.4c-33.8-1-38.8-0.6-55,3.4c-35,8.6-76.2,34.2-105.6,65.8c-7.6,8.2-9.2,10.8-7.6,13.6
		c3.2,6.2,50.6,62.8,53.2,63.8c1.2,0.6,8.2-2.2,15.2-6.2c74.8-41.4,108-41.4,189.6,0.6c88.2,45.4,135.8,78,185.8,127.2
		c37.8,37,60,66.8,79.2,105.8c23.2,47,33.6,91.6,33.8,146.4c0.6,93.4-31.6,180.6-86.4,235.2c-33.8,33.6-63.8,50.4-111.2,62.2
		c-13.2,3.4-22.6,4-53,4c-43.4,0-67.6-3.6-112.4-16.6c-28.2-8-32.2-9-57.6-14.8c-33.2-7.6-92.8-7.4-114.6,0.2
		c-4.4,1.6-9.4,2.8-11.4,2.8c-4.2,0-49.6,15.2-70,23.4c-68.8,27.8-136.2,73.4-159,107.8c-7.6,11.2-15,33.2-15,43.8
		c0,9.2,3.8,20.4,8.6,26.2C50.8,10958.6,86.6,10963.2,106.2,10957.2z"/>
	<path style="fill:none;stroke:#000000;stroke-width:3;stroke-miterlimit:10;" d="M61.4,10936.4c-5.4-6-6-14.4-1.6-27
		c7.2-20.6,21.8-36.8,55.4-61c17.8-13,50.4-32.2,68.2-40.6c7.4-3.4,19.2-8.8,26-12s13.6-5.8,15.2-5.8c1.4,0,3.4-0.8,4.4-1.8
		c2.8-2.6,46.6-17,68-22.2c16.4-4,21.4-4.4,55-3.4c42,1.2,55,3.6,115,21.2c52,15.4,118.6,19.8,163,10.8c16.4-3.2,40-10.8,49.2-15.6
		c3.2-1.6,6.4-3,7.4-3c3.6,0,35.8-21.8,50.6-34.2c44.4-37.6,80.8-100.4,98.4-170.8c18-71.6,14-155.4-10.6-215.6
		c-24.4-59.8-50-98.6-97-145.6c-33.4-33.6-81-69.8-128.8-98.2c-9.6-5.8-20.4-12.4-24-14.4c-9.8-6-62.6-32.6-80.2-40.6
		c-50.6-22.6-105.4-18.4-155.2,11.8c-5,3-10.6,5.6-12.2,5.6c-3.2,0-31.6-32.8-31.6-36.6c0-6.2,35.6-33.2,59.2-45
		c26.2-13.2,34.2-15.2,68.2-16c25.4-0.6,34.4,0,53,3.6c57.6,11.2,113.6,35.8,175.6,77.4c53.8,36,97,75,140.4,126.6
		c31.6,37.6,73.6,104.4,85.2,135.2c1.2,3.2,4,10.8,6.4,16.8c13.2,34,20,72.2,20,114c0,32.2-4,84.8-9,114c-1.6,9.4-3.2,20.6-4,25
		c-4.6,32.4-22.4,86-38.6,117.4c-31.6,60.4-83,107.6-140.4,128.6c-36.2,13.2-88,19-138.6,15.2c-17.8-1.4-37.8-3.6-44.4-5.2
		c-6.6-1.4-21-4.6-32-7c-40-8.8-56.2-12.4-68-15c-62.6-14.2-81.4-17-115.2-17c-39.6,0-50.8,3.4-82.8,25.6
		c-18.6,13-29.6,22.2-71.4,60.8c-43.2,39.6-49.8,43.4-82.8,46.6C66.6,10940,64.2,10939.6,61.4,10936.4z"/>
</g>
</svg>
