<?xml version="1.0" encoding="utf-8"?>
<!-- Generator: Adobe Illustrator 23.0.0, SVG Export Plug-In . SVG Version: 6.00 Build 0)  -->
<svg version="1.1" id="Layer_1" xmlns="http://www.w3.org/2000/svg" xmlns:xlink="http://www.w3.org/1999/xlink" x="0px" y="0px"
	 viewBox="0 0 256 256" style="enable-background:new 0 0 256 256;" xml:space="preserve">
<g>
	<path style="fill:#FFD060;stroke:#886B31;stroke-width:5;stroke-linecap:round;stroke-linejoin:round;stroke-miterlimit:10;" d="
		M98.5,72l-0.9,6.6c0,0-6.9,34.8,42.7,42.3c6.2,0.9,12.6,0.8,18.8,0c53.7-7.3,78,15.6,78.4,64c0.3,37.1-17.6,52.8-17.6,52.8h-17.9
		c0,0,9.9-46.5-54.9-43.3c-56.5,2.7-49.9,43.3-49.9,43.3H76.6v-12c0-16.3,2.6-33.9-7.7-50.8c-15.9-26-22.4-50.8-6.6-97"/>
	<path style="opacity:0.1;" d="M166.7,195c0,0,56.7-29.3,34.5-72.2l15.2,7.7l16.7,18.9l4.4,19.9l-0.3,24.9l-4.2,21.1l-13,22.3h-17.9
		l0-12.8l-10.3-19.3l-14.2-8L166.7,195z"/>
	<path style="fill:none;stroke:#886B31;stroke-width:5;stroke-linecap:round;stroke-linejoin:round;stroke-miterlimit:10;" d="
		M98.5,72l-0.9,6.6c0,0-6.9,34.8,42.7,42.3c6.2,0.9,12.6,0.8,18.8,0c53.7-7.3,78,15.6,78.4,64c0.3,37.1-17.6,52.8-17.6,52.8h-17.9
		c0,0,9.9-46.5-54.9-43.3c-56.5,2.7-49.9,43.3-49.9,43.3H76.6v-12c0-16.3,2.6-33.9-7.7-50.8c-15.9-26-22.4-50.8-6.6-97"/>
	<path style="fill:#FFD060;" d="M89.5,206.2c0,0-79.2-3.3-49.7-92.9H11.5L7,96.2c-1.5-5.8,1.3-11.9,6.8-14.5l16.7-7.8
		c3.3-7.9,7.9-13.1,14.3-14.5c0.7-2.4,1.9-4.6,3.6-6.8c0,0,33-36.6,71.7,2.1l-18.4,0.4c0,0,34.3,16.1,36.1,48.1l-24.9-3.2
		C149.1,147.1,130.8,174.5,89.5,206.2z"/>
	<path style="opacity:0.3;fill:#FFFFFF;" d="M12,92.4l20.6-8.5c1.3-0.5,2.2-1.8,2.4-3.2c0.5-4,2.8-12.3,11.8-13.5
		c1.3-0.2,2.4-1,2.9-2.2c3.1-6.3,14.1-24.8,34.8-20.3c3.7,0.8,7.1,1.6,10.1,2.3c4.4,1.1,6.9-4.7,3.2-7.2l0,0
		c-0.6-0.4-1.2-0.6-1.8-0.7L72.3,37c-0.8-0.1-1.7,0.1-2.4,0.6l-10.3,6.1c-0.1,0.1-0.3,0.2-0.4,0.3L49,52c-0.4,0.3-0.8,0.8-1.1,1.3
		l-2.7,5.1c-0.3,0.6-0.8,1.1-1.4,1.5l-7.6,4.9c-0.5,0.3-1,0.8-1.3,1.4l-3.8,6.6c-0.4,0.7-1,1.3-1.8,1.6L8.7,84.1l-0.4,0.2
		c-2.1,1-2.9,3.6-1.8,5.6L7,90.7C8,92.5,10.1,93.2,12,92.4z"/>
	<path style="fill:none;stroke:#886B31;stroke-width:5;stroke-linecap:round;stroke-linejoin:round;stroke-miterlimit:10;" d="
		M8.7,102.8c0,0,13,2.7,26.1-6.1"/>
	<path style="fill:none;stroke:#886B31;stroke-width:5;stroke-linecap:round;stroke-linejoin:round;stroke-miterlimit:10;" d="
		M39.8,113.2l16.4-22.7c4.7-6.5,4.2-15.4-1.1-21.4l-1.9-2.1"/>
	<path style="fill:none;stroke:#886B31;stroke-width:5;stroke-linecap:round;stroke-linejoin:round;stroke-miterlimit:10;" d="
		M224.5,138.3c0,0,18.3,18.9,25.5,49"/>
	<circle style="fill:#886B31;" cx="43.9" cy="75.3" r="4.9"/>
	<path style="fill:none;stroke:#886B31;stroke-width:5;stroke-linecap:round;stroke-linejoin:round;stroke-miterlimit:10;" d="
		M89.5,206.2c0,0-79.2-3.3-49.7-92.9H11.5L6.7,95.1c-1.4-5.2,1.2-10.7,6.1-13l17.7-8.3c3.3-7.9,7.9-13.1,14.3-14.5
		c0.7-2.4,1.9-4.6,3.6-6.8c0,0,33-36.6,71.7,2.1l-18.4,0.4c0,0,34.3,16.1,36.1,48.1l-24.9-3.2c23.1,30.1,24.1,52.1,11,72.4
		c-1.7,2.7-14.3-2-16.5-4.9C106.3,184.3,101,197.4,89.5,206.2z"/>
</g>
<path style="fill:none;stroke:#886B31;stroke-width:5;stroke-linecap:round;stroke-linejoin:round;stroke-miterlimit:10;" d="
	M68.8,74.2C76.4,68.8,80,87.5,71,87.5"/>
</svg>
