<?xml version="1.0" encoding="utf-8"?>
<!-- Generator: Adobe Illustrator 17.0.0, SVG Export Plug-In . SVG Version: 6.00 Build 0)  -->
<!DOCTYPE svg PUBLIC "-//W3C//DTD SVG 1.1//EN" "http://www.w3.org/Graphics/SVG/1.1/DTD/svg11.dtd" [
	<!ENTITY ns_flows "http://ns.adobe.com/Flows/1.0/">
	<!ENTITY ns_extend "http://ns.adobe.com/Extensibility/1.0/">
	<!ENTITY ns_ai "http://ns.adobe.com/AdobeIllustrator/10.0/">
	<!ENTITY ns_graphs "http://ns.adobe.com/Graphs/1.0/">
]>
<svg version="1.1" id="Layer_1" xmlns:x="&ns_extend;" xmlns:i="&ns_ai;" xmlns:graph="&ns_graphs;"
	 xmlns="http://www.w3.org/2000/svg" xmlns:xlink="http://www.w3.org/1999/xlink" xmlns:a="http://ns.adobe.com/AdobeSVGViewerExtensions/3.0/"
	 x="0px" y="0px" width="256px" height="256px" viewBox="0 0 256 256" style="enable-background:new 0 0 256 256;"
	 xml:space="preserve">
<g>
	<path style="fill:none;stroke:#000000;stroke-width:2;stroke-miterlimit:10;" d="M163.8,200.4l-0.2-1.1h0.4l0.4,1.1
		c0.3,0.9,0.5,1.3,0.7,1.3v0.4c-0.2,0.4-0.2,0.9-0.2,1.3v0.4h-0.4v-0.4l-0.2-0.9C164.1,201.9,164,201.1,163.8,200.4z"/>
	<path style="fill:none;stroke:#000000;stroke-width:2;stroke-miterlimit:10;" d="M40.7,165.8h0.4v0.2c-0.2,0-0.2,3.7-0.2,11v10.8
		h-0.2l-0.2-0.2l-0.4-0.2h-1.6v-7.2l-0.2-7.4v-2.5l0.2-0.2v-0.2h0.7v-0.4h-0.2v-0.2h-0.2v-0.2h-0.2c0,0,0-0.4,0-1.3v-1.3h0.2v0.2
		l0.2-0.2l0.2-0.2v0.2H40c0,0,0-0.1,0-0.2C40.2,165.8,40.4,165.8,40.7,165.8z"/>
	<path style="fill:none;stroke:#000000;stroke-width:2;stroke-miterlimit:10;" d="M167.9,210.5h0.4l0.2,0.2c0,0,0.2,0.1,0.4,0.2
		c0.3,0,0.6,0.4,0.9,1.1c0.3,0.6,0.6,1,0.9,1.1c0.4,0.2,0.7,0.2,0.7,0.2c-0.2,0-0.4,0.1-0.7,0.2l-0.7,0.2h0.2v0.2l0.2,0.2v0.2h-1.1
		c-0.2-0.2-0.3-0.2-0.4-0.2c0-0.2-0.3-0.7-0.9-1.8l-0.7-1.3v-0.4C167.4,210.6,167.6,210.5,167.9,210.5z"/>
	<path style="fill:none;stroke:#000000;stroke-width:2;stroke-miterlimit:10;" d="M148.3,63.7v-0.2h96.4v0.2
		c0.2,0.3,0.5,0.6,1.1,0.9c0.6,0.4-15.5,0.7-48.3,0.7l-49.2,0.2v-0.2c0,0-0.1-0.2-0.2-0.7v-0.9C148.3,63.7,148.3,63.7,148.3,63.7z"
		/>
	<path style="fill:none;stroke:#000000;stroke-width:2;stroke-miterlimit:10;" d="M181.2,197.5l-0.7-0.2h53.9c0,0-0.1,0.1-0.2,0.2
		l-0.2,0.2h-0.4v6.3c0,0-1.8,0.1-5.4,0.2l-5.4,0.2h-30.1v-0.2h0.2V204h0.7v-6.3h-6.1C183.6,197.7,181.4,197.6,181.2,197.5z"/>
	<path style="fill:none;stroke:#000000;stroke-width:2;stroke-miterlimit:10;" d="M254.7,149.6v12.1c-0.2,0-0.2-0.2-0.2-0.7
		c-0.2-0.4-0.6-1.1-1.3-2c-0.9-0.9-1.3-1.8-1.3-2.7l-0.4-1.3v1.3h-0.2v-2.7c-0.2-1.8-0.4-3-0.7-3.6c-0.3-0.7-0.8-1.5-1.6-2.2
		c-0.7-0.9-1.3-1.3-1.6-1.3H247c-0.2,0-0.2-0.6-0.2-1.8c0-1.1-0.1-2.1-0.2-3.1l-0.2-1.6h-0.2v-0.2h-0.2v-0.4h-0.2V139h-0.2v-0.2H245
		l-0.2,0.2c-0.2,0.2-0.4,0.4-0.7,0.7c-0.3,0.3-0.7,0.6-1.3,0.9c-0.6,0.3-2,0.3-4,0c-2.1-0.3-4.5-0.4-7.2-0.4
		c-2.9,0.3-5.5,0.4-7.9,0.4c-2.4,0-4-0.3-4.9-0.9c-0.9-0.6-1.6-1-2-1.1c-0.6-0.2-1,0-1.1,0.4l-0.2,0.7c0,0-0.1,0.1-0.2,0.2v0.2h-0.4
		v-0.2l-0.2-0.2v-0.4h-0.2L214,139l-0.2-0.2h-0.2c-0.2,0-0.4,0.2-0.9,0.7c-0.3,0.4-0.7,0.8-1.3,1.1c-0.6,0.3-2.1,0.3-4.5,0
		c-2.2-0.3-4.7-0.4-7.2-0.4c-2.5,0.3-4.9,0.4-7.2,0.4c-2.1,0-3.8-0.3-5.2-0.9l-2-1.3h-1.1v0.2h-0.2v0.2l-0.2,0.4l-0.2,0.2v2.9
		c-0.3,2-0.4,3-0.4,3.1c0,0,0.1,0,0.2,0v0.2l-1.6,0.9c-0.9,0.4-1.6,1.1-2,1.8c-0.4,0.6-0.8,1.3-1.1,2c-0.3,0.6-0.4,1.8-0.4,3.6v2.7
		c0,0.2-0.4,0.7-1.3,1.6l-1.3,1.3l-0.2,0.2l-0.2,0.2v0.2h-0.4v0.7h-0.2l0.2-11.9c0-7.9,0.3-12.3,0.9-13c0.6-0.9,1.2-1.6,1.8-2
		c0.7-0.4,1.3-0.8,1.8-1.1c0.4,0,12.4,0,36,0c23.4,0,35.5,0.3,36.4,0.9c0.9,0.6,1.6,1.2,2,1.8c0.4,0.6,0.8,1.1,1.1,1.3
		C254.4,137.4,254.5,141.6,254.7,149.6z"/>
	<path style="fill:none;stroke:#000000;stroke-width:2;stroke-miterlimit:10;" d="M158,188.2h0.4v1.1c0.2,0.7,0.2,1.1,0.2,1.1
		l7.4,0.2l7.4,0.2h-15.1v3.1l0.2,3.1v0.4H154v0.4c-0.2,0.2-0.2,1.1-0.2,2.7v2.7h-0.2v-5.8h-39.3v5.6H114v-5.6H76.4l7-0.2
		c4.7-0.2,7.1-0.2,7.4-0.2H91v-6.3H58.4l16.2-0.2l16.2-0.2c0.2,0,0.2-0.1,0.2-0.2l0.2-1.1c0-0.6,11.1-0.9,33.3-0.9
		S157.8,188.2,158,188.2z M124.1,190.9c0.3-0.3,0.7-0.4,1.3-0.2c0.6,0.2,1.1,0.4,1.3,0.7c0.3,0.4,0.4,1,0.4,1.6
		c-0.3,0.6-0.6,1-0.9,1.1c-0.3,0.3-0.7,0.4-1.3,0.2c-0.6-0.2-1.1-0.5-1.3-1.1c-0.3-0.6-0.4-1.1-0.2-1.6
		C123.7,191.2,123.9,190.9,124.1,190.9z"/>
	<path style="fill:none;stroke:#000000;stroke-width:2;stroke-miterlimit:10;" d="M141.4,92.5V79.9h0.2V83c0.2,2.1,0.4,2.7,0.9,1.8
		c0.6-0.6,0.9-1,0.9-1.1h0.2l0.2,0.4c0,0.3,0.1,3.6,0.2,9.9c0.2,6.1,0.1,9.4-0.2,9.7c-0.3,0.3-0.4,0.5-0.4,0.7s-0.1,0.3-0.2,0.4
		s-0.2,0.2,0,0.2s0.3,0.1,0.4,0.2h0.4v0.4h-0.9l-0.9-0.2h-0.7v-0.4c0-0.2-0.1-0.2-0.2-0.2V92.5z"/>
	<path style="fill:none;stroke:#000000;stroke-width:2;stroke-miterlimit:10;" d="M38.4,103.5v-0.2h2.7v0.2h0.2v0.4h0.2v0.2h0.2
		l0.2,0.9c0.2,0.6,0.1,1.2-0.2,1.8s-0.5,1.6-0.7,3.1v2h-0.2v-4h-0.2l-0.2-0.2h-2v4.5h-0.2V110c0-1.6-0.2-2.6-0.4-2.9
		c0-0.3-0.2-0.7-0.4-1.1c0-0.4,0.1-0.9,0.2-1.3l0.2-0.4L38,104l0.2-0.2v-0.2H38.4z"/>
	<path style="fill:none;stroke:#000000;stroke-width:2;stroke-miterlimit:10;" d="M56.9,191.8l-0.2-0.9H91v6.3h-0.2
		c-0.3,0-2.8,0.1-7.4,0.2l-7,0.2H76v-0.2h0.2v-0.2h-0.7c-0.4,0-0.6,0.1-0.4,0.2l0.2,0.2h-0.7c-0.2,0-2.5-0.1-7.2-0.2
		c-4.8-0.2-7.3-0.5-7.4-1.1c-0.2-0.6-0.7-1.3-1.6-2.2C57.5,193.2,57,192.4,56.9,191.8z"/>
	<path style="fill:none;stroke:#000000;stroke-width:2;stroke-miterlimit:10;" d="M144.7,75.2h3.1v2.2h-1.8c-1.3,0-2-0.2-2-0.7v-1.1
		c0-0.2,0.1-0.2,0.2-0.2C144.6,75.4,144.7,75.3,144.7,75.2z"/>
	<path style="fill:none;stroke:#000000;stroke-width:2;stroke-miterlimit:10;" d="M23.4,146.2l0.2-0.2h1.1l0.2,0.2l0.2,0.2h0.4
		c0.2,0.2,0.3,0.5,0.4,1.1c0.2,0.7,0.2,1.1,0.2,1.1c0.2,0,0.2,0,0.2,0v0.4h0.2c0,0,0.1,0.1,0.2,0.2l0.2,0.2h0.2v0.2
		c0,0.2-0.2,0.1-0.7-0.2l-0.7-0.4v0.4l0.4,0.4c0.4,0.3,0.6,0.5,0.4,0.7h-0.2v-0.2c-0.2,0-0.2,0-0.2,0c0-0.2-0.1-0.2-0.2-0.2h-0.2
		c-0.2-0.2-0.3-0.2-0.4-0.2c-0.3-0.3-0.7-0.4-1.3-0.4c-0.6,0-1,0-1.1,0l-0.2-0.2h-0.2v-0.2h-0.2v-0.2l-0.2-0.2l-0.2-0.2v-1.1
		l0.2-0.2l0.2-0.2v-0.2h0.2v-0.2h0.4L23.4,146.2z"/>
	<path style="fill:none;stroke:#000000;stroke-width:2;stroke-miterlimit:10;" d="M158.2,178.8h0.2v9.4H158c-0.2,0-11.3,0-33.5,0
		s-33.3,0.3-33.3,0.9l-0.2,1.1v-10.8h0.2v-0.2h33.5C147.1,179,158.2,178.8,158.2,178.8z M123.8,184.4h-0.2v-0.2l-0.2-0.2l-0.2-0.2
		v-1.1l0.7-0.7c0.4-0.6,1-0.8,1.6-0.7c0.6,0.2,1.1,0.4,1.3,0.7c0.3,0.3,0.4,0.7,0.4,1.3c-0.2,0.6-0.4,1.1-0.9,1.3
		c-0.4,0.3-1,0.3-1.6,0C124.1,184.6,123.8,184.6,123.8,184.4z"/>
	<path style="fill:none;stroke:#000000;stroke-width:2;stroke-miterlimit:10;" d="M173.1,80.6l-0.2-0.9h40.7v6.1h-0.4l-0.2,0.2
		l-0.2,0.2h-0.4l-0.2,0.2l-0.2,0.2h-0.2v0.2h-0.2v0.2h-0.4v-0.2c0,0-0.2-0.2-0.7-0.7c-0.4-0.4-1.2-1.1-2.2-1.8
		c-1.2-0.9-2.8-1.6-4.7-2.2c-2.1-0.6-4.3-1.1-6.7-1.3c-2.4-0.3-5.2-0.4-8.3-0.2s-5.9,0.7-8.3,1.6l-3.8,1.3c-0.2-0.2-0.5-0.4-1.1-0.9
		l-0.9-0.9h-0.2l-0.2-0.2C173.2,81.3,173.1,81,173.1,80.6z"/>
	<path style="fill:none;stroke:#000000;stroke-width:2;stroke-miterlimit:10;" d="M144.1,78.6v-0.9h3.8v0.9c0,0.4-0.6,0.7-1.8,0.7
		C144.7,79.2,144.1,79,144.1,78.6z"/>
	<path style="fill:none;stroke:#000000;stroke-width:2;stroke-miterlimit:10;" d="M41.1,166l0.2,11c0,7.5,0.1,11.3,0.2,11.5
		s0.2,0.2,0.2,0.2H42l0.2,0.9c0,0.6,0.2,0.9,0.4,0.9h0.2v0.2h0.2v0.2l-0.9,0.2c-0.4,0.2-0.7,0.3-0.9,0.4c-0.3,0.3-0.4,0.4-0.4,0.4
		s-0.4,0.1-1.3,0.2h-1.1v2.2l-0.2,2.5v-2.5c0-1.8-0.1-2.7-0.2-2.7c-0.2,0-0.3-0.2-0.4-0.4c-0.2-0.3-0.4-0.4-0.7-0.4h-0.2v-0.2
		c0.2-0.2,0.2-0.5,0.2-1.1l0.2-0.9c0.2-0.2,0.3-0.3,0.4-0.4c0.3-0.3,0.5-2.9,0.7-7.9v-7.6l0.2,7.4v7.2H40l0.4,0.2l0.2,0.2h0.2V177
		C40.9,169.6,41,166,41.1,166z"/>
	<path style="fill:none;stroke:#000000;stroke-width:2;stroke-miterlimit:10;" d="M34.4,200.1v-2.5h2.9c2.1,0,5.3,0,9.7,0h27.2v5.6
		h0.2v0.7c0,0-1.8,0.1-5.4,0.2c-3.6,0.2-5.5,0.5-5.6,1.1v0.7v-0.7c0-0.6-6.5-0.9-19.6-0.9H24.3v-0.2H24V204h10.1v-1.3L34.4,200.1z"
		/>
	<path style="fill:none;stroke:#000000;stroke-width:2;stroke-miterlimit:10;" d="M25.6,100.1h2.2l0.2,0.2l0.2,0.2h0.2v0.2h0.2v0.4
		c0.3,0.3,0.4,0.7,0.2,1.3c-0.2,0.4-0.2,0.7-0.2,0.9c0,0-0.1,0.2-0.2,0.4v0.4h-0.2c0-0.2-0.3-0.2-0.9,0c-0.7,0.2-1.3,0.2-1.6,0
		l-0.4-0.2h-0.2c0,0-0.2-0.2-0.4-0.4s-0.4-0.7-0.4-1.3V101h0.2v-0.2h0.2v-0.2h0.2v-0.2h0.2v-0.2H25.6z"/>
	<path style="fill:none;stroke:#000000;stroke-width:2;stroke-miterlimit:10;" d="M165.4,198.1v1.8c-0.2,1.2-0.2,1.8-0.2,1.8
		c-0.2,0-0.4-0.4-0.7-1.3l-0.4-1.1V199c0-0.3-0.2-0.6-0.4-0.9v-0.2h-0.2v-0.2h-0.2v-0.2h-0.2v-0.2h-0.9l-0.2,0.2l-0.2,0.2h-0.2v0.2
		l-0.4,0.4c0,0.3-0.1,0.5-0.2,0.7l-0.2,0.2v0.2l-0.2,1.3c-0.2,0.7-0.3,1.5-0.4,2.2v1.1h-0.4l-0.4,0.2h-2.5v-0.2h0.2V204h0.7
		c0.4,0,0.9-1.1,1.3-3.1c0.3-2.1,0.4-3.1,0.2-3.1h-0.2v-0.4h0.9V197l0.9-0.7c0.4-0.6,1.1-0.9,1.8-0.9s1.4,0.4,2,1.3
		C165,197.7,165.4,198.1,165.4,198.1z"/>
	<path style="fill:none;stroke:#000000;stroke-width:2;stroke-miterlimit:10;" d="M215.8,79.5h0.4c0,0.2,0,1.1,0,2.7v2.7l2.7,0.4
		c1.6,0,2.7,0.2,3.1,0.4c0.4,0,1.1-0.4,1.8-1.3c0.7-0.9,1.6-1.7,2.7-2.5c1.2-0.7,2.1-1.1,2.7-1.1c0.6-0.3,1.8-0.4,3.6-0.2
		c1.8,0.2,3.3,0.5,4.5,1.1c1.2,0.6,2.2,1.2,2.9,1.8c0.7,0.7,1.1,1.2,1.1,1.3c0,0.2,0.1,0.3,0.2,0.4l0.2,0.2v0.2l0.2,0.4l0.2,0.2v0.4
		h0.2v0.2h0.2v-7.4l0.2,14.6v14.6h-13.3c-8.7,0.2-13.2,0.2-13.5,0.2h-0.4v-0.2h-0.2v-0.2c0.2,0,0.2-4.8,0-14.4V79.7
		C215.5,79.5,215.6,79.5,215.8,79.5z"/>
	<path style="fill:none;stroke:#000000;stroke-width:2;stroke-miterlimit:10;" d="M139.8,70.2c-2.4-0.2-3.1-0.4-2-0.9
		c1.1-0.4,2.3-0.7,3.8-0.9c1.3,0,2,0.4,2,1.1C143.6,70.2,142.3,70.4,139.8,70.2z"/>
	<path style="fill:none;stroke:#000000;stroke-width:2;stroke-miterlimit:10;" d="M167,204.4l-0.2-0.4h0.2l0.2,0.2
		c0,0.2,0.2,0.2,0.4,0c0.2-0.2,0.3-0.2,0.4-0.2h2.7c1.2,0,1.9,0.1,2,0.2h0.2l0.9,0.2c0.6,0,0.9,0,0.9,0h0.2l-0.2,2.9
		c-0.3,2-0.4,2.9-0.4,2.9s0,0.1,0,0.2H174c-0.2,0.2-0.4,0.2-0.9,0h-0.7c-0.2,0.2-0.8,0.2-2,0h-2.5c-0.3,0-0.4,0.1-0.4,0.2v0.4h-0.2
		v-0.4c0-0.3,0-1.3,0-3.1C167.2,205.6,167.2,204.6,167,204.4z"/>
	<path style="fill:none;stroke:#000000;stroke-width:2;stroke-miterlimit:10;" d="M165.9,197.9v-0.2h0.9c0.7,0,1.1,0.1,1.1,0.2v0.2
		l-0.2,0.2v2.2c0,0.2,0,0.2,0,0.2h0.2l-0.4,1.3c-0.2,0.9-0.3,1.4-0.4,1.6v0.2h-0.9v-0.2c-0.2-0.2-0.2-0.2-0.2-0.2v0.2
		c0,0-0.2-0.4-0.4-1.1v-0.9h-0.2c0,0,0.1-0.6,0.2-1.8v-1.8h0.2C165.8,198.1,165.9,198.1,165.9,197.9z"/>
	<path style="fill:none;stroke:#000000;stroke-width:2;stroke-miterlimit:10;" d="M143.8,60.1v0.2c0,0.2-1.2,0.2-3.6,0.2l-3.6,0.2
		v-0.2l1.3-0.9c0.9-0.6,2.1-0.9,3.6-0.9c1.3,0,2,0.2,2,0.4C143.8,59.7,143.8,60,143.8,60.1z"/>
	<path style="fill:none;stroke:#000000;stroke-width:2;stroke-miterlimit:10;" d="M0.7,200.8v-3.1h33.5v6.3H0.7V200.8z"/>
	<path style="fill:none;stroke:#000000;stroke-width:2;stroke-miterlimit:10;" d="M42.3,191.2l0.9-0.2l2.2,0.2
		c1.6,0.2,3.1,0.5,4.5,1.1c1.5,0.6,2.7,1.2,3.6,1.8c0.9,0.6,1.4,0.9,1.6,0.9c0.2,0.2,0.2,0.2,0.2,0.2v0.2h0.2v0.2h0.2v0.4l0.2,0.2
		l0.2,0.2v0.7H41.4c-0.2,0-0.3-0.9-0.4-2.7v-2.5c0,0,0.2-0.2,0.4-0.4C41.5,191.4,41.8,191.3,42.3,191.2z"/>
	<path style="fill:none;stroke:#000000;stroke-width:2;stroke-miterlimit:10;" d="M184.1,138.6v-0.2h1.1l2,1.3
		c1.3,0.6,3.1,0.9,5.2,0.9c2.2,0,4.7-0.2,7.2-0.4c2.5,0,4.9,0.2,7.2,0.4c2.4,0.3,3.9,0.3,4.5,0c0.6-0.3,1.1-0.7,1.3-1.1
		c0.4-0.4,0.7-0.7,0.9-0.7h0.2l0.2,0.2l0.2,0.2h0.2v0.4l0.2,0.2l0.2,0.2v-0.2h0.2v-0.2h0.2v0.4c0,0.2-0.1,0.2-0.2,0.2
		s-0.2,1.4,0,4.3c0.2,2.7,0.2,4.2,0.2,4.5v0.7l-0.2,0.2c-0.2,0-0.4,0.9-0.7,2.7c-0.3,1.6-0.4,2.6-0.4,2.9v0.4
		c0,0.2-5.2,0.2-15.5,0.2H183v-0.2h1.8v-0.2c0-0.3-0.1-0.5-0.2-0.7s-0.4-1.7-0.7-4.7l-0.7-4.7v-0.2c-0.2,0-0.2,0-0.2,0
		c0-0.2,0.2-1.2,0.4-3.1v-2.9l0.2-0.2l0.2-0.4v-0.2H184.1z"/>
	<path style="fill:none;stroke:#000000;stroke-width:2;stroke-miterlimit:10;" d="M172.6,211.2v-0.7h0.4c0.4,0.2,0.7,0.2,0.9,0h0.4
		v0.2c0,0.3,1.4,0.4,4.3,0.4s4.3,0.1,4.3,0.2h-4.5c-2.9,0.2-4.5,0.6-4.9,1.3c-0.6,0.7-1.2,1.3-1.8,1.6l-0.9,0.4h-0.9v-0.2h0.7v-0.2
		l-0.2-0.2v-0.2h-0.2l0.7-0.2c0.3-0.2,0.5-0.2,0.7-0.2h0.2c0,0,0.2-0.2,0.4-0.7C172.5,212.3,172.6,211.8,172.6,211.2z"/>
	<path style="fill:none;stroke:#000000;stroke-width:2;stroke-miterlimit:10;" d="M25.8,106l-0.4-1.8l0.4,0.2c0.3,0.2,0.8,0.2,1.6,0
		c0.6-0.2,0.9-0.2,0.9,0h0.2l0.7,1.6c0.4,1.2,1.2,2.2,2.2,3.1c0.9,0.9,2,1.6,3.1,2.2c1.2,0.6,2,0.9,2.2,0.9h1.6l0.2,0.2
		c0.2,0.2,0.5,0.2,1.1,0c0.6-0.2,1-0.2,1.1-0.2s0.2-0.1,0-0.2h0.2v0.2h1.6l0.4-0.2c0.3-0.2,0.9-0.4,1.8-0.7c0.9-0.6,1.8-1.3,2.7-2.2
		c0.9-0.9,1.3-1.8,1.3-2.7l-0.4-1.3v-0.9l0.2,0.4l0.2,0.2v0.7l0.9,2c0.6,1.3,1.2,2.2,1.8,2.7c0.6,0.4,0.9,0.7,0.9,0.9h0.2v0.2H53
		v0.2h0.2v0.2h0.2v1.1v-0.4h-0.2v-0.2H53v-0.4h-0.2v-0.2h-0.2v-0.2h-0.2c-0.2,0-0.2-0.1-0.2-0.2c-0.2-0.2-0.4-0.2-0.9-0.2
		c-0.4-0.3-0.9-0.2-1.3,0.4c-0.6,0.4-1.6,1.1-2.9,1.8c-1.3,0.9-2.6,1.4-3.8,1.6c-1.3,0.3-2,0.5-2,0.7v0.2h-0.2
		c0-0.2-0.4-0.2-1.3-0.2h-1.1V135h-0.2v-9.7c0-6.6-0.3-10-0.9-10.1c-0.6-0.2-1.6-0.4-3.1-0.9c-1.3-0.4-2.5-1.1-3.6-2
		c-1.1-0.9-2-1.9-2.9-2.9C26.9,108.2,26.3,107,25.8,106z"/>
	<path style="fill:none;stroke:#000000;stroke-width:2;stroke-miterlimit:10;" d="M51.9,136.1l0.9-0.4c0.2,0,0.2,0.2,0.2,0.7v0.7
		l0.2,0.4l0.2,0.2v0.4h0.2v0.2h0.2v0.9c0,0.4,0.2,1,0.4,1.6c0.3,0.6,0.4,0.9,0.4,0.9v0.7l-0.9,0.2c-0.7,0.2-1.3,0.4-1.6,0.9
		c-0.2,0.4-0.3,0.8-0.4,1.1c-0.2,0.4-1.2,1.4-3.1,2.9c-2,1.3-2.9,2.1-2.9,2.2h-0.2v0.2h-0.2c0,0-0.1,0-0.2,0v0.2
		c-0.2,0-0.2,0.1-0.2,0.2c-0.2,0-0.3,0.1-0.4,0.2l-0.2,0.2l-0.7,0.4c-0.4,0.3-0.7,0.5-0.9,0.7l-0.2,0.2h-0.2l-0.2,0.2l-0.2,0.2h-0.2
		l-0.2,0.2h-0.2v-4.7c0-3,1.6-5.7,4.9-8.1C49.5,137.7,51.5,136.4,51.9,136.1z"/>
	<path style="fill:none;stroke:#000000;stroke-width:2;stroke-miterlimit:10;" d="M144.3,56.1l1.8-0.2h1.8v2.2h-3.8V57L144.3,56.1z"
		/>
	<path style="fill:none;stroke:#000000;stroke-width:2;stroke-miterlimit:10;" d="M26.5,159.9v-0.2l1.8,1.3c1.1,0.7,2.7,2,4.9,3.6
		c2.1,1.6,3.2,2.5,3.4,2.5h0.2v0.2h0.2v0.2h0.2v0.2h0.2v0.2h0.7v-6.5l0.2,2.5v3.6c0,0.9,0,1.3,0,1.3h0.2v0.2h0.2v0.2h0.2v0.4h-0.7
		v0.2l-0.2,0.2V170H38v-0.2h-0.2v-0.2h-0.2v-0.2h-0.2c-0.2,0-2-1.3-5.6-4l-5.4-4h-0.2V161h-0.2v-0.2c-0.2,0-0.2,0-0.2,0
		c0-0.2,0.2-0.3,0.4-0.4S26.5,160.1,26.5,159.9z"/>
	<path style="fill:none;stroke:#000000;stroke-width:2;stroke-miterlimit:10;" d="M144.1,81.3v-1.6h2c1.2,0,1.8,0.2,1.8,0.7
		c0,0.3-0.6,0.7-1.8,1.3c-1.1,0.6-1.6,1-1.8,1.1h-0.2V81.3z"/>
	<path style="fill:none;stroke:#000000;stroke-width:2;stroke-miterlimit:10;" d="M52.4,111.4h0.2v0.2h0.2v0.2H53v0.4h0.2v0.2h0.2
		v0.4l0.2,0.4c0.2,0.3,0.2,0.5,0.2,0.7v0.4l0.2,0.2v0.2h0.4v0.4c0.2,0.3,0.2,0.4,0.2,0.4v2.2c0,1.3-0.3,2.2-0.9,2.5
		c-0.4,0.2-0.7,0.3-0.9,0.4c0,0.2-0.1,0.5-0.2,1.1v0.7h-0.2v0.2h-0.4v0.2h-0.2v0.2h-0.2l-4.5,3.4c-3,2.2-4.5,3.4-4.5,3.4h-0.2
		l-0.2,0.2l-0.2,0.2h-0.2v0.2h-0.2v0.2h-0.4v-15.7c0-0.2,0.7-0.4,2-0.7c1.2-0.2,2.5-0.7,3.8-1.6c1.3-0.7,2.3-1.3,2.9-1.8
		c0.4-0.6,0.9-0.7,1.3-0.4c0.4,0,0.7,0.1,0.9,0.2C52.1,111.3,52.2,111.4,52.4,111.4z"/>
	<path style="fill:none;stroke:#000000;stroke-width:2;stroke-miterlimit:10;" d="M216.4,79.5v-0.2h25.8v0.2h0.2
		c0.2,0,0.2,0.1,0.2,0.2v7.4h-0.2v-0.2h-0.2v-0.4l-0.2-0.2l-0.2-0.4v-0.2l-0.2-0.2c-0.2-0.2-0.2-0.3-0.2-0.4c0-0.2-0.4-0.6-1.1-1.3
		c-0.7-0.6-1.7-1.2-2.9-1.8c-1.2-0.6-2.7-1-4.5-1.1c-1.8-0.2-3-0.1-3.6,0.2c-0.6,0-1.5,0.4-2.7,1.1c-1.1,0.7-2,1.6-2.7,2.5
		c-0.7,0.9-1.3,1.3-1.8,1.3c-0.4-0.3-1.5-0.4-3.1-0.4l-2.7-0.4v-2.7c0-1.6,0-2.5,0-2.7C216.2,79.5,216.3,79.5,216.4,79.5z"/>
	<path style="fill:none;stroke:#000000;stroke-width:2;stroke-miterlimit:10;" d="M143.6,64.6v-0.9h0.4v0.9c0,0.6,0.7,0.9,2,0.9h2
		c0.2,0.2,0.2,0.3,0.2,0.4c-0.2,0-0.2,0.1-0.2,0.2v0.9l0.2,0.9v0.4c0,0-0.1,0.2-0.2,0.7V70h-0.2v-1.6h-1.8c-1.3,0-2,0.4-2,1.1
		c0,0.6,0.4,0.9,1.1,0.9h1.3c0,0-0.4,0.1-1.3,0.2h-1.1v1.6h-0.2v-0.4c0-0.4-0.1-0.7-0.2-0.9c0-0.2-1.3-0.2-3.8-0.2h-3.6
		c-0.2,0.2-0.2,0.2-0.2,0.2h-0.2l-0.4-0.2h-0.2v-0.2l0.2-0.2c0.2-0.2,0.2-0.9,0.2-2.2v-2c0.2,0,0.2-0.1,0.2-0.2v-0.2h-0.4v-0.2h0.2
		v-0.2h0.2l0.2,0.2c0.2,0.2,0.2,0.2,0.2,0.2h3.6C142.3,65.5,143.6,65.2,143.6,64.6z M140,66h3.6v2h-2c-1.3-0.2-2.5-0.4-3.6-0.9
		C137.1,66.5,137.8,66.1,140,66z M144.1,66.9V66h3.8v0.9c0,0.7-0.6,1.1-1.8,1.1C144.7,68,144.1,67.6,144.1,66.9z M139.8,70.2
		c-2.4-0.2-3.1-0.4-2-0.9c1.1-0.4,2.3-0.7,3.8-0.9c1.3,0,2,0.4,2,1.1C143.6,70.2,142.3,70.4,139.8,70.2z"/>
	<path style="fill:none;stroke:#000000;stroke-width:2;stroke-miterlimit:10;" d="M70.8,211.4h38.7l0.2,0.2c0.3,0,0.4,1,0.4,2.9
		c0,2,0,2.9,0,2.9v0.2h-0.2v0.2H70.6v-3.1C70.6,212.5,70.6,211.4,70.8,211.4z"/>
	<path style="fill:none;stroke:#000000;stroke-width:2;stroke-miterlimit:10;" d="M147.9,75h0.2c0,0,0.1,0.1,0.2,0.2v1.1
		c0,0.6,16,1,47.9,1.1h47.9v0.2h-95.7v1.6h24.9v0.2h-0.2c-0.3,0-0.4,0.1-0.4,0.2v0.2h-1.1c-0.7-0.2-1.1,4.7-1.1,14.4v14.4h0.2v0.2
		h-29.2v-4c0.2,0,0.2,0.1,0.2,0.2v0.4h0.7l0.9,0.2h0.9v-0.4h-0.4c-0.3-0.2-0.4-0.2-0.4-0.2c-0.2,0-0.2-0.1,0-0.2s0.2-0.3,0.2-0.4
		s0.2-0.4,0.4-0.7c0.3-0.3,0.4-3.5,0.2-9.7c-0.2-6.3-0.2-9.6-0.2-9.9l-0.2-0.4v-4h-1.1l-0.9,0.2h-0.2v-0.2c0-0.2-0.7-0.2-2-0.2h-2.2
		v-0.2h6.5v-1.6h-5.2v-0.4h0.4l2.2,0.2c1.6,0,2.5-0.2,2.5-0.7v-0.9h0.4v0.9c0,0.4,0.7,0.7,2,0.7h1.8V75z M144.1,78.6v-0.9h3.8v0.9
		c0,0.4-0.6,0.7-1.8,0.7C144.7,79.2,144.1,79,144.1,78.6z M151.5,80.4h-2.2l-0.4,0.2h-0.4v-0.9h10.8c7.2,0,10.8,0.1,10.8,0.2
		c0,0.3-0.8,0.5-2.5,0.7s-3.1,0.5-4.3,1.1c-1.2,0.6-2,1.1-2.2,1.3c-0.4,0.3-0.8,0.4-1.1,0.4c-0.4-0.2-1.1-0.5-2-1.1
		c-0.9-0.7-1.8-1.3-2.7-1.6C154.2,80.5,153,80.4,151.5,80.4z M144.1,81.3v-1.6h2c1.2,0,1.8,0.2,1.8,0.7c0,0.3-0.6,0.7-1.8,1.3
		c-1.1,0.6-1.6,1-1.8,1.1h-0.2V81.3z"/>
	<path style="fill:none;stroke:#000000;stroke-width:2;stroke-miterlimit:10;" d="M42.9,152.9l2-1.6h0.4v0.2
		c-0.2,0.2-0.3,0.2-0.4,0.2c0,0,0,0.1,0,0.2h-0.2c0,0.2-0.1,0.2-0.2,0.2c-0.2,0-0.3,0.1-0.4,0.2c-0.2,0.2-0.2,0.2-0.2,0.2
		c-0.2,0-0.2,0-0.2,0v0.2h-0.2c0,0.2-0.1,0.2-0.2,0.2c0,0-0.1,0-0.2,0v0.2c-0.2,0-0.2,0.1-0.2,0.2l-0.7,0.4
		c-0.4,0.4-0.7,2.2-0.9,5.2v4.5h0.2l0.2-0.2H42v-0.2h0.2v-0.2h0.2l0.2-0.2c0.2-0.2,0.9-0.6,2.2-1.3l1.8-1.3v0.4h-0.2v0.2h-0.2v0.7
		v-0.2l0.2,0.2v0.2l-2.7,2c-1.8,1.3-2.7,2-2.7,2h-0.4c-0.3,0-0.5,0.1-0.7,0.2c0,0.2,0,0.2,0,0.2h-0.9V166l-0.2,0.2l-0.2,0.2v-0.2
		h-0.2V164l-0.2-2.5V159c0,0,0.1,0,0.2,0s0.3-0.1,0.4-0.2c0.2-0.2,0.2-0.3,0-0.4s-0.3-1.1-0.4-2.9v-2.5h0.2v1.6h0.7v-0.2h0.2
		c0-0.2,0.2-0.2,0.4-0.2l0.2-0.2l-0.2,0.2c0,0.3-0.1,0.4-0.2,0.4c-0.2,0-0.2,0.1-0.2,0.2v0.2h0.7v-0.2h0.2v-0.2h0.2
		C40.8,154.5,41.6,154,42.9,152.9z"/>
	<path style="fill:none;stroke:#000000;stroke-width:2;stroke-miterlimit:10;" d="M88.8,115.2l-0.2-6.3l0.2,1.6l0.2,1.3v4.7
		c0.2,3.1,1.6,4.7,4.5,4.7c2.7,0,8.5,0,17.3,0h13.3V121c0-0.2,0.1-1,0.2-2.5v-2.5l0.2,2.7c0,1.6,6.3,2.5,18.9,2.7
		c12.7,0,19.1,0.1,19.1,0.2c0,0.2-0.7,0.6-2,1.3c-1.2,0.6-1.9,8.2-2,22.7v21.8H158v-0.2l0.2-0.2v-21.6c0-14.4-0.1-21.6-0.2-21.6
		c0,0-11.1-0.1-33.3-0.2l-33.3-0.2v0.2h-0.2v43.4H91v-21.6c-0.2-14.5-0.6-22-1.3-22.5l-1.3-0.9h-0.2l-0.2-0.2h-0.2v-0.4h0.4
		C88.6,121.5,88.8,119.4,88.8,115.2z"/>
	<path style="fill:none;stroke:#000000;stroke-width:2;stroke-miterlimit:10;" d="M163.6,199v0.2l0.2,1.1c0.2,0.7,0.3,1.5,0.4,2.2
		l0.2,0.9v0.2c0,0.2,0.2-0.2,0.4-0.9l0.2-1.1h0.2v0.9c0.3,0.7,0.4,1.1,0.4,1.1v0.2c0,0-1.1,0.1-3.1,0.2h-2.9V204h0.4v-0.2l0.2-0.2
		v-0.9c0-0.4,0.1-1.1,0.2-1.8l0.2-1.1l0.7-1.1c0.4-0.6,0.8-0.8,1.1-0.7c0.3,0.2,0.5,0.4,0.7,0.7C163.6,198.7,163.6,198.9,163.6,199z
		"/>
	<path style="fill:none;stroke:#000000;stroke-width:2;stroke-miterlimit:10;" d="M27.6,211.2H67c2.5,0,3.8,0.1,3.8,0.2
		c-0.2,0-0.2,1.1-0.2,3.4v3.1H71v0.2H36l-35.1-0.2h29.4v-6.5h-2.7V211.2z"/>
	<path style="fill:none;stroke:#000000;stroke-width:2;stroke-miterlimit:10;" d="M146.5,70.5h1.3v0.7c0,0.4,0.1,0.7,0.2,0.7v0.4
		c0.2,0.3,0.2,0.5,0.2,0.7v0.2h-1.1c0,0-0.5-0.1-1.6-0.2h-1.6v-2.2h1.1C146.1,70.5,146.5,70.5,146.5,70.5z"/>
	<path style="fill:none;stroke:#000000;stroke-width:2;stroke-miterlimit:10;" d="M179.8,197.2h0.7l0.7,0.2c0.3,0.2,2.4,0.2,6.3,0.2
		h6.1v6.3h-18.4v-0.4c-0.2-0.4-0.4-1.5-0.7-3.1l-0.4-2.2v-0.4h2.5c1.6,0,2.5-0.1,2.5-0.2h0.2C179.3,197.3,179.5,197.2,179.8,197.2z"
		/>
	<path style="fill:none;stroke:#000000;stroke-width:2;stroke-miterlimit:10;" d="M175.1,204.2V204h17.8v0.2h-0.2v0.2h-9.2v6.7h5.8
		v0.2H183c0-0.2-1.4-0.2-4.3-0.2s-4.3-0.2-4.3-0.4v-0.2c0-0.2,0-0.2,0-0.2s0.2-1,0.4-2.9l0.2-2.9V204.2z"/>
	<path style="fill:none;stroke:#000000;stroke-width:2;stroke-miterlimit:10;" d="M38.2,152.7v-4.3h0.2v4.5l0.2,2.5
		c0,1.5,0.2,2.4,0.4,2.7c0,0.3-0.1,0.5-0.2,0.7c-0.3,0.2-0.4,0.2-0.4,0.2c-0.2,0-0.2,0-0.2,0c-0.2,0-2.1-1.4-5.8-4.3l-5.4-4
		c0.2-0.2,0.2-0.2,0,0h-0.7v-0.4h-0.2v-1.1h0.4v-0.2H27v0.4l0.2,0.2v0.2c0.2,0.2,0.2,0.2,0.2,0v-0.2l4.5,3.4
		c3.1,2.2,4.7,3.4,4.7,3.4h0.2l0.2,0.2l0.2,0.2h0.2v0.2h0.2v0.2h0.4V152.7z"/>
	<path style="fill:none;stroke:#000000;stroke-width:2;stroke-miterlimit:10;" d="M148.3,76.3v-0.9h0.4l49,0.2H247v0.4h-0.2
		l-0.2,0.2h-0.2c-0.2,0-0.4,0.2-0.7,0.4h-0.4L245,77l-0.2,0.2h-0.2v0.2h-48.3C164.3,77.3,148.3,76.9,148.3,76.3z"/>
	<path style="fill:none;stroke:#000000;stroke-width:2;stroke-miterlimit:10;" d="M255.8,203.5v-0.4h0.2v9h-0.2v-0.4
		c0-0.2-4.3-0.2-13-0.2h-12.8c0-0.2-1.2-0.2-3.6-0.2h-3.6v-6.7l5.4-0.2c3.6-0.2,5.4-0.2,5.4-0.2h11C252,204,255.8,203.8,255.8,203.5
		z"/>
	<path style="fill:none;stroke:#000000;stroke-width:2;stroke-miterlimit:10;" d="M172.8,79.5h0.4c0.2,0,0.2,0,0.2,0v0.2h-0.7
		l0.2,0.9c0,0.4,0.2,0.7,0.4,0.9l0.2,0.2h0.2l0.9,0.9c0.6,0.4,1,0.7,1.1,0.9v0.2c-0.2,0.2-0.5,0.4-1.1,0.9l-0.9,0.7v0.2h-0.2v0.2
		h-0.2V86h-0.2v0.2h-0.2v0.2h-0.2v0.2h-0.2v-2.5c0-1.6,0-2.8,0-3.4v-0.9c0-0.2-0.1-0.2-0.2-0.2C172.4,79.5,172.5,79.5,172.8,79.5z"
		/>
	<path style="fill:none;stroke:#000000;stroke-width:2;stroke-miterlimit:10;" d="M167.7,201.3v-0.7l0.2,0.2c0.2,0,0.3,0.5,0.4,1.6
		v1.6h-0.2c-0.2,0-0.3,0.1-0.4,0.2c-0.3,0.2-0.4,0.2-0.4,0L167,204v-0.2c0.2-0.2,0.2-0.4,0.2-0.9
		C167.5,202.4,167.7,201.9,167.7,201.3z"/>
	<path style="fill:none;stroke:#000000;stroke-width:2;stroke-miterlimit:10;" d="M171.3,79.7h1.1c0,0.2,0.1,0.2,0.2,0.2v0.9
		c0,0.6,0,1.7,0,3.4v24.3l-0.2,0.2v0.2h-1.8v-0.2h-0.2V94.3C170.4,84.6,170.7,79.7,171.3,79.7z"/>
	<path style="fill:none;stroke:#000000;stroke-width:2;stroke-miterlimit:10;" d="M161.8,197.5l0.2-0.2h0.9v0.2h0.2v0.2h0.2v0.2h0.2
		v0.2c0.3,0.3,0.4,0.6,0.4,0.9v0.2h-0.4V199c0-0.2-0.1-0.3-0.2-0.4c-0.2-0.3-0.4-0.5-0.7-0.7c-0.3-0.2-0.7,0.1-1.1,0.7l-0.7,1.1
		v-0.2h-0.4v-0.2l0.2-0.2c0.2-0.2,0.2-0.4,0.2-0.7l0.4-0.4v-0.2h0.2L161.8,197.5z"/>
	<path style="fill:none;stroke:#000000;stroke-width:2;stroke-miterlimit:10;" d="M103.6,207.8v-3.4h39.3v6.7h-39.3V207.8z"/>
	<path style="fill:none;stroke:#000000;stroke-width:2;stroke-miterlimit:10;" d="M141.6,125.3H129h13.9c9.1,0,13.7,6.7,13.7,20.2
		l-0.2,20.5v0.2h-14.8c-9.7,0-14.6-0.1-14.6-0.2c-0.2-0.2-0.2-7-0.2-20.5v-20h13.5l13.7-0.2H141.6z M131,148.7
		c0-3.1,0.3-4.7,0.9-4.5c0.4,0,0.7,1.6,0.7,4.7s-0.3,4.7-0.9,4.7C131.3,153.6,131,152,131,148.7z"/>
	<path style="fill:none;stroke:#000000;stroke-width:2;stroke-miterlimit:10;" d="M123.8,184.4h-0.2v-0.2l-0.2-0.2l-0.2-0.2v-1.1
		l0.7-0.7c0.4-0.6,1-0.8,1.6-0.7c0.6,0.2,1.1,0.4,1.3,0.7c0.3,0.3,0.4,0.7,0.4,1.3c-0.2,0.6-0.4,1.1-0.9,1.3c-0.4,0.3-1,0.3-1.6,0
		C124.1,184.6,123.8,184.6,123.8,184.4z"/>
	<path style="fill:none;stroke:#000000;stroke-width:2;stroke-miterlimit:10;" d="M139.8,75.2l-3.6-0.2l1.8-0.9
		c1.1-0.6,2.2-0.9,3.6-0.9c1.3,0,2,0.3,2,0.9C143.6,74.8,142.3,75.2,139.8,75.2z"/>
	<path style="fill:none;stroke:#000000;stroke-width:2;stroke-miterlimit:10;" d="M168.6,210.7l-0.2-0.2h2c1.2,0.2,1.9,0.2,2,0h0.2
		v0.7c0,0.6-0.2,1.1-0.4,1.6c-0.3,0.4-0.4,0.7-0.4,0.7h-0.2c0,0-0.2-0.1-0.7-0.2c-0.3-0.2-0.6-0.5-0.9-1.1c-0.3-0.7-0.6-1.1-0.9-1.1
		C168.7,210.8,168.6,210.7,168.6,210.7z"/>
	<path style="fill:none;stroke:#000000;stroke-width:2;stroke-miterlimit:10;" d="M165.9,210.7v0.2l-0.9,1.6
		c-0.6,1.2-0.9,1.8-0.9,1.8c-0.2,0-0.4,0.1-0.9,0.2h-0.9v-0.2h0.2c0,0,0-0.1,0-0.2c0.2,0,0.1-0.1-0.2-0.2l-0.2-0.2v-0.4h0.2l0.4-0.2
		c0,0,0.3-0.4,0.9-1.1l0.7-1.1h0.7C165.4,210.7,165.7,210.7,165.9,210.7z"/>
	<path style="fill:none;stroke:#000000;stroke-width:2;stroke-miterlimit:10;" d="M135.8,92.9V76.8L136,77v0.2h1.1
		c0.4,0,0.7,0,0.9,0h0.4c0,0,0,0.1,0,0.2h0.2v0.2H136v1.6h1.1v0.2h2.2c1.3,0,2,0.1,2,0.2v29.2h74.4v0.2h0.4c0.3,0,4.8-0.1,13.5-0.2
		H243V94.3l-0.2-14.6c0-0.2-0.1-0.2-0.2-0.2h-0.2v-0.2h4.7v-1.6h0.2v1.8h-0.9c-0.7,0.2-1.1,5.6-1.1,16.2l-0.2,15.7l-54.6,0.2h-54.6
		v-1.1C135.8,109.6,135.8,103.7,135.8,92.9z"/>
	<path style="fill:none;stroke:#000000;stroke-width:2;stroke-miterlimit:10;" d="M148.3,66h49.4c33,0.2,49,0.5,48.1,1.1
		c-0.9,0.4-1.3,0.7-1.3,0.9c0,0,0.1,0.1,0.2,0.2v0.2h-0.2c0,0.2,0,0.2,0,0.2c-0.2,0-16.2-0.1-48.1-0.2h-48.1V68l-0.2-0.9v-0.9
		C148.3,66.2,148.3,66.1,148.3,66z"/>
	<path style="fill:none;stroke:#000000;stroke-width:2;stroke-miterlimit:10;" d="M36.4,188.7h0.7l-0.2,0.9c0,0.6-0.1,1-0.2,1.1v0.2
		l-2.5,0.4c-1.6,0.3-3.1,0.7-4.5,1.3c-1.5,0.6-2.6,1.1-3.4,1.6c-0.7,0.6-1.1,0.9-1.1,0.9v0.2h-0.2v0.2h-0.2v0.4l-0.2,0.2l-0.2,0.2
		v0.7h10.1v0.2h-0.2v0.2H13.9l1.1-0.2c0.7,0,1.1-0.4,1.1-1.1v-0.9h0.2v0.2l0.2,0.2v1.3h1.8c1.2,0,2-0.4,2.5-1.3
		c0.4-0.9,1.2-1.8,2.2-2.7l1.6-1.3h0.4l0.2-0.2l0.2-0.2h0.4v-0.2h0.2v-0.2h-9.7v0.2h-0.2v-0.7l6.5-0.2c4.2-0.2,7.4-0.4,9.7-0.7
		C34.8,189,36.1,188.7,36.4,188.7z"/>
	<path style="fill:none;stroke:#000000;stroke-width:2;stroke-miterlimit:10;" d="M91.5,123.7v-0.2l33.3,0.2
		c22.2,0.2,33.3,0.2,33.3,0.2c0.2,0,0.2,7.2,0.2,21.6v21.8c-0.2,0.2-0.2,0.2-0.2,0.2H91.3v-0.2H91v-0.2h0.2v-43.4H91.5z
		 M141.6,125.3H129h13.9c9.1,0,13.7,6.7,13.7,20.2l-0.2,20.5v0.2h-14.8c-9.7,0-14.6-0.1-14.6-0.2c-0.2-0.2-0.2-7-0.2-20.5v-20h13.5
		l13.7-0.2H141.6z M93.5,145.5v-20h29.4V166h-13.7c-9.1,0.2-14.1,0.2-14.8,0.2h-0.9V166C93.5,165.8,93.5,159,93.5,145.5z"/>
	<path style="fill:none;stroke:#000000;stroke-width:2;stroke-miterlimit:10;" d="M124.1,172.1c0.2-0.3,0.6-0.4,1.3-0.2
		c0.7,0.2,1.3,0.4,1.6,0.7c0.2,0.3,0.2,0.7,0.2,1.3c-0.2,0.6-0.4,1-0.7,1.1s-0.8,0.2-1.6,0.2c-0.7,0-1.3-0.2-1.6-0.7
		c-0.2-0.4-0.2-1,0-1.6C123.5,172.3,123.8,172.1,124.1,172.1z"/>
	<path style="fill:none;stroke:#000000;stroke-width:2;stroke-miterlimit:10;" d="M54.8,141.9v-0.2h0.2c0.2,0,0.2,0.2,0.2,0.4
		c0,0.3,0.1,0.4,0.2,0.4l0.7,2c0.3,1.3,0.4,2.2,0.4,2.5c0,0.2,0,0.2,0,0.2s-0.1,0-0.2,0v-0.4c-0.2-0.3-0.2-0.5-0.2-0.7V146h-1.6
		c-0.6,0.3-1.1,0.4-1.6,0.4c-0.6,0.2-1.8,0.9-3.6,2.2c-2,1.5-2.9,2.2-2.9,2.2h-0.2v0.2h-0.2v0.2h-0.4l-0.2,0.2v-0.2h-0.7v-0.2H45
		v-0.2h0.2v-0.2H45v-0.2h0.2v-0.2h0.2V150h0.2v-0.2h0.2c0-0.2,1-0.9,2.9-2.2c2-1.5,3-2.5,3.1-2.9c0.2-0.3,0.3-0.7,0.4-1.1
		c0.3-0.4,0.8-0.7,1.6-0.9l0.9-0.2V141.9z"/>
	<path style="fill:none;stroke:#000000;stroke-width:2;stroke-miterlimit:10;" d="M160.3,200.8l0.2-1.3h0.4v0.2l-0.2,1.1
		c-0.2,0.7-0.2,1.3-0.2,1.8v0.9l-0.2,0.2v0.2h-0.4v-0.9C160,202.3,160.1,201.6,160.3,200.8z"/>
	<path style="fill:none;stroke:#000000;stroke-width:2;stroke-miterlimit:10;" d="M144.3,61v-0.2h3.6v2.7h-0.7
		c0-0.2-0.5-0.2-1.6-0.2h-1.6v-1.1C144.2,61.4,144.3,61,144.3,61z"/>
	<path style="fill:none;stroke:#000000;stroke-width:2;stroke-miterlimit:10;" d="M247,146.4v-0.2l1.3,1.1c0.9,0.6,1.6,1.3,2,2.2
		c0.3,0.9,0.5,2.2,0.7,4v3.4h-0.2l-0.2-0.2h-0.2c-0.2,0-1-0.2-2.5-0.4l-2.2-0.4h-0.2v-0.2c0-0.2,0.3-1.7,0.9-4.7L247,146.4z"/>
	<path style="fill:none;stroke:#000000;stroke-width:2;stroke-miterlimit:10;" d="M244.5,57.9v0.4c0,0.3,0.3,0.7,0.9,1.1
		c0.6,0.4,1,0.7,1.1,0.7h0.2l0.2,0.2l0.2,0.2h-98.9v-1.1l-0.2-0.4v-0.4h95.5c0.2,0,0.2-0.1,0.2-0.2s0.1-0.2,0.2-0.2
		C244.2,57.9,244.4,57.9,244.5,57.9z"/>
	<path style="fill:none;stroke:#000000;stroke-width:2;stroke-miterlimit:10;" d="M131,148.7c0-3.1,0.3-4.7,0.9-4.5
		c0.4,0,0.7,1.6,0.7,4.7s-0.3,4.7-0.9,4.7C131.3,153.6,131,152,131,148.7z"/>
	<path style="fill:none;stroke:#000000;stroke-width:2;stroke-miterlimit:10;" d="M0.7,194.1v-3.4h15.7v4.7h-0.2v0.9
		c0,0.7-0.4,1.1-1.1,1.1l-1.1,0.2H0.7V194.1z"/>
	<path style="fill:none;stroke:#000000;stroke-width:2;stroke-miterlimit:10;" d="M146.1,68.4h1.8v2h-2.7c-0.7,0-1.1-0.3-1.1-0.9
		C144.1,68.8,144.7,68.4,146.1,68.4z"/>
	<path style="fill:none;stroke:#000000;stroke-width:2;stroke-miterlimit:10;" d="M173.3,79.5v-0.2h43.2v0.2c-0.2,0-0.2,0-0.2,0
		h-0.4c-0.2,0-0.2,0.1-0.2,0.2h-0.7c-0.6,0-0.9,4.9-0.9,14.6v14.4h0.2v0.2h-41.8v-0.2l0.2-0.2V86.6h0.2v-0.2h0.2v-0.2h0.2V86h0.2
		v-0.2h0.2v-0.2h0.2v-0.2l0.9-0.7c0.6-0.4,1-0.7,1.1-0.9v-0.2l3.8-1.3c2.4-0.9,5.2-1.4,8.3-1.6s5.9-0.1,8.3,0.2
		c2.4,0.3,4.7,0.7,6.7,1.3c2,0.6,3.5,1.3,4.7,2.2c1.1,0.7,1.8,1.3,2.2,1.8c0.4,0.4,0.7,0.7,0.7,0.7v0.2h0.4v-0.2h0.2v-0.2h0.2
		l0.2-0.2l0.2-0.2h0.4l0.2-0.2l0.2-0.2h0.4v-6.1h-40v-0.2C173.5,79.5,173.4,79.5,173.3,79.5z"/>
	<path style="fill:none;stroke:#000000;stroke-width:2;stroke-miterlimit:10;" d="M24.9,126.7l0.4-0.4l5.6,4
		c3.8,2.7,5.6,4.1,5.6,4.3h0.2v0.2h0.4v0.2h0.2v0.2h0.7V135h0.2v0.2l-0.2,0.4v1.1h-0.4l-0.4-0.2h-0.2v-0.2h-0.2
		c0-0.2-1.9-1.6-5.6-4.3l-5.6-4h-0.2l-0.2-0.2l-0.2-0.2h-0.2c0,0,0-0.1,0-0.2h-0.2C24.5,127.2,24.7,126.9,24.9,126.7z"/>
	<path style="fill:none;stroke:#000000;stroke-width:2;stroke-miterlimit:10;" d="M124.1,190.9c0.3-0.3,0.7-0.4,1.3-0.2
		c0.6,0.2,1.1,0.4,1.3,0.7c0.3,0.4,0.4,1,0.4,1.6c-0.3,0.6-0.6,1-0.9,1.1c-0.3,0.3-0.7,0.4-1.3,0.2c-0.6-0.2-1.1-0.5-1.3-1.1
		c-0.3-0.6-0.4-1.1-0.2-1.6C123.7,191.2,123.9,190.9,124.1,190.9z"/>
	<path style="fill:none;stroke:#000000;stroke-width:2;stroke-miterlimit:10;" d="M189.2,211.2h37.1c2.4,0,3.6,0.1,3.6,0.2
		c-0.2,0-0.2,1.1-0.2,3.4v3.1h13c8.5,0,12.8,0.1,12.8,0.2h-68.3v-0.2h2.5v-6.5h-0.4V211.2z"/>
	<path style="fill:none;stroke:#000000;stroke-width:2;stroke-miterlimit:10;" d="M165,212.5l0.9-1.6v0.2c0,0.2,0.2,0.2,0.7,0.2
		c0.4-0.2,0.7-0.2,0.7-0.2h0.2l0.7,1.3c0.6,1.1,0.9,1.6,0.9,1.8c0.2,0,0.3,0.1,0.4,0.2h0.4v0.2h0.9l0.9-0.4c0.6-0.3,1.2-0.8,1.8-1.6
		c0.4-0.7,2.1-1.2,4.9-1.3h11.2v6.5h-39.8v-6.5l4.5,0.2c3.1,0,4.9,0.4,5.2,1.1c0.4,0.7,0.7,1.1,0.9,1.1h0.2v0.2h0.2v0.2h0.4l0.4,0.2
		h1.3c0.4-0.2,0.7-0.2,0.9-0.2C164.1,214.3,164.4,213.7,165,212.5z"/>
	<path style="fill:none;stroke:#000000;stroke-width:2;stroke-miterlimit:10;" d="M74.4,204h39.3v0.4h-10.1v6.7h5.8v0.2H70.8
		c0-0.2-1.3-0.2-3.8-0.2h-3.8l0.2-0.2v-5.6c0.2-0.6,2-1,5.6-1.1C72.6,204,74.4,204,74.4,204z"/>
	<path style="fill:none;stroke:#000000;stroke-width:2;stroke-miterlimit:10;" d="M143.8,60.3v-0.2h0.2v0.4c0.2,0.2,0.2,0.2,0.2,0.2
		V61c0,0-0.1,0.4-0.2,1.1v1.1h1.6c1.1,0,1.6,0.1,1.6,0.2h-1.6l-1.6,0.2h-0.4c0,0-0.7,0-2,0c-1.5,0-2.7,0.2-3.6,0.4l-1.1,0.9h-0.2
		c-0.3,0-0.4,0.1-0.4,0.2v0.2h-0.4v0.2c0,0.2-0.1,0.2-0.2,0.2h-0.2c-0.2,0-0.2-0.1,0-0.2v-0.2c0,0,0.1,0,0.2,0v-0.4h0.2v-1.8
		c0-1.2-0.1-1.9-0.2-2l-0.2-0.2h-0.2l0.2-0.2l0.2-0.2h0.2v0.2h0.2V61h0.2l0.2-0.2h0.2l3.6-0.2C142.7,60.6,143.8,60.5,143.8,60.3z
		 M136.7,61.5l-0.2-0.4h7.2v0.4c0.2,0.2,0.2,0.4,0,0.9v0.9h-1.3c-0.9,0-1.4,0-1.6,0c-0.3,0-1-0.3-2-0.9
		C137.6,62.1,136.9,61.8,136.7,61.5z"/>
	<path style="fill:none;stroke:#000000;stroke-width:2;stroke-miterlimit:10;" d="M109.5,211.2h33.9c0.3,0,1.5,0,3.6,0h2.9v6.7h37.3
		v0.2H71v-0.2h38.9v-0.2h0.2v-0.2c0,0,0-1,0-2.9c0-2-0.2-2.9-0.4-2.9l-0.2-0.2V211.2z"/>
	<path style="fill:none;stroke:#000000;stroke-width:2;stroke-miterlimit:10;" d="M144.1,66.9V66h3.8v0.9c0,0.7-0.6,1.1-1.8,1.1
		C144.7,68,144.1,67.6,144.1,66.9z"/>
	<path style="fill:none;stroke:#000000;stroke-width:2;stroke-miterlimit:10;" d="M170.6,197.2h0.4l-0.7,0.9
		c-0.6,0.7-0.9,1.3-0.9,1.8c-0.3,0.6-0.4,1.1-0.4,1.6v0.7l-0.2,0.9l-0.2,0.7v0.2h-0.2v-1.6c0-1.1-0.1-1.6-0.2-1.6h-0.2
		c-0.2-0.2-0.2-0.2-0.2-0.2v-0.7h0.4v-0.2l0.2,0.2l0.2,0.4v-0.4l0.2-0.4c0.2-0.2,0.3-0.4,0.4-0.7l0.2-0.4c0,0,0.1-0.1,0.2-0.2
		c0.2,0,0.2,0,0.2,0v-0.2c0-0.2,0-0.2,0-0.2h0.2l0.2-0.2C170.4,197.5,170.4,197.4,170.6,197.2z"/>
	<path style="fill:none;stroke:#000000;stroke-width:2;stroke-miterlimit:10;" d="M140,66h3.6v2h-2c-1.3-0.2-2.5-0.4-3.6-0.9
		C137.1,66.5,137.8,66.1,140,66z"/>
	<path style="fill:none;stroke:#000000;stroke-width:2;stroke-miterlimit:10;" d="M160.5,170h-2v2.9h-0.2V170h-16.4
		c-10.9-0.2-22.1-0.2-33.5-0.2H91.3v0.4c0,0.2-0.1,0.2-0.2,0.2v-0.2c0-0.2-0.5-0.2-1.6-0.2l-1.8-0.2h0.2v-0.2h0.2v-0.2h0.4l0.2-0.2
		l0.2-0.2l1.1-0.4c0.6-0.3,12.4-0.4,35.3-0.4c23.1,0,35.1,0.3,36,0.9C162.3,169.5,162,169.9,160.5,170z"/>
	<path style="fill:none;stroke:#000000;stroke-width:2;stroke-miterlimit:10;" d="M251.3,155.6V155l0.4,1.3c0,0.9,0.4,1.8,1.3,2.7
		c0.7,0.9,1.2,1.6,1.3,2c0,0.4,0.1,0.7,0.2,0.7v28.5c-0.2,0-0.3,0.4-0.4,1.3s-0.5,1.7-1.1,2.5c-0.3,0.6-1,1.2-2,1.8
		c-0.9,0.6-3.9,1-9,1.1l-7.6,0.2h-54.6c-0.3,0-0.5,0.1-0.7,0.2h-2.7c0-0.2-0.1-0.2-0.2-0.2H176v-1.1c0.2-0.7,0-1.5-0.4-2.2
		c-0.4-0.7-0.7-6.5-0.9-17.3l-0.2-16v-0.2h0.4v-0.2l0.2-0.2l0.2-0.2l1.3-1.3c0.9-0.9,1.3-1.4,1.3-1.6h0.7l0.9-0.4
		c0.6,0,1.3-0.1,2-0.2h1.3v0.2h15.5c10.3,0,15.5-0.1,15.5-0.2h0.7v0.2h1.1c0.9,0,6.1,0,15.5,0s14.2-0.1,14.2-0.2v-0.2h0.2l2.2,0.4
		c1.5,0.3,2.3,0.4,2.5,0.4h0.2l0.2,0.2h0.2v-0.7h0.2V155.6z"/>
	<path style="fill:none;stroke:#000000;stroke-width:2;stroke-miterlimit:10;" d="M160.9,210.7h-0.2c-0.2,0-0.2,0.3,0,0.9
		c0.2,0.7,0.4,1.3,0.7,1.6c0.3,0.2,0.4,0.3,0.4,0.4h0.2l0.2,0.2c0.3,0.2,0.4,0.2,0.2,0.2c0,0.2,0,0.2,0,0.2h-0.2v0.2h-0.4l-0.4-0.2
		h-0.4v-0.2h-0.2v-0.2h-0.2c-0.2,0-0.4-0.4-0.9-1.1c-0.3-0.7-2-1.1-5.2-1.1l-4.5-0.2v-0.2h8.8v-0.2l0.2-0.2v-0.2h1.1
		C160.6,210.6,160.9,210.7,160.9,210.7z"/>
	<path style="fill:none;stroke:#000000;stroke-width:2;stroke-miterlimit:10;" d="M74.6,197.7H114v5.8l-0.2,0.4H74.4v-3.6
		C74.6,198.6,74.6,197.7,74.6,197.7z"/>
	<path style="fill:none;stroke:#000000;stroke-width:2;stroke-miterlimit:10;" d="M134.9,55.9v-0.2h13v0.2h-1.8l-1.8,0.2l-0.2,0.9
		v1.1h3.8v-0.7c0,0,0.1,0.2,0.2,0.4l0.2,0.2v0.2h47.4c31.6,0,47.4,0.1,47.4,0.2h-97.1c-1.3,0-2,0.2-2,0.7v0.9h-0.2
		c0-0.2-0.1-0.4-0.2-0.9c0-0.3-0.7-0.4-2-0.4c-1.5,0-2.7,0.3-3.6,0.9l-1.3,0.9v0.2h-0.2l-0.2,0.2H136l-0.2-0.2h-0.4v-0.4h0.4v-0.2
		c0-0.2-0.1-0.8-0.2-2c-0.2-1.2-0.3-1.9-0.4-2C134.9,56.1,134.9,56,134.9,55.9z M137.6,57l-1.8-0.9h7.9v2h-2.2
		C139.9,57.9,138.6,57.6,137.6,57z"/>
	<path style="fill:none;stroke:#000000;stroke-width:2;stroke-miterlimit:10;" d="M137.6,57l-1.8-0.9h7.9v2h-2.2
		C139.9,57.9,138.6,57.6,137.6,57z"/>
	<path style="fill:none;stroke:#000000;stroke-width:2;stroke-miterlimit:10;" d="M40.9,123.5v-7.9h0.2l0.2,7.6c0,5.2,0,7.9,0,7.9
		h0.2v-0.2h0.2v-0.2H42l0.2-0.2l0.2-0.2h0.2c0,0,1.5-1.1,4.5-3.4l4.5-3.4h0.2v-0.2h0.2v-0.2h0.4v-0.2h0.2v0.2H53v0.2l0.2,0.2v0.2
		h0.4v0.2h-0.4v0.2H53v0.2h-0.2l-5.4,4c-3.4,2.5-5.2,3.8-5.4,3.8v0.2h-0.4v0.2h-0.2v0.2h-0.2v0.2h-0.2v-0.2h-0.4V132h0.2l0.2-0.2
		h0.2v-0.2C41,131.4,40.9,128.7,40.9,123.5z"/>
	<path style="fill:none;stroke:#000000;stroke-width:2;stroke-miterlimit:10;" d="M244.8,139l0.2-0.2h0.4v0.2h0.2v0.2h0.2v0.4h0.2
		v0.2h0.2l0.2,1.6c0.2,1.1,0.3,2.1,0.4,3.1v1.6h-0.2c0,0.2,0,0.2,0,0.2h0.2l-0.7,4.5c-0.6,3-0.9,4.6-0.9,4.7v0.4
		c0,0.2-4.7,0.2-14.2,0.2s-14.6,0-15.5,0h-1.1v-0.2h1.8v-0.2c-0.2-0.3-0.4-1.3-0.7-3.1l-0.4-2.9v-0.7c0-0.3-0.1-1.9-0.2-4.7v-4.3
		c0.2,0,0.2-0.1,0.2-0.2v-0.2l0.2-0.7c0.2-0.4,0.5-0.6,1.1-0.4c0.4,0.2,1.1,0.5,2,1.1c0.9,0.6,2.5,0.9,4.9,0.9c2.4,0,5-0.2,7.9-0.4
		c2.7,0,5.1,0.2,7.2,0.4c2.1,0.3,3.4,0.3,4,0c0.6-0.3,1.1-0.6,1.3-0.9C244.4,139.4,244.6,139.2,244.8,139z"/>
	<path style="fill:none;stroke:#000000;stroke-width:2;stroke-miterlimit:10;" d="M136.2,76.3l-0.2-0.4h7.6v0.9
		c0,0.4-0.8,0.7-2.5,0.7h-2.5v-0.2c-0.2,0-0.2,0-0.2,0H138c-0.2,0-0.4,0-0.9,0h-0.7l-0.2-0.2v-0.2h0.2
		C136.6,76.8,136.5,76.6,136.2,76.3z"/>
	<path style="fill:none;stroke:#000000;stroke-width:2;stroke-miterlimit:10;" d="M16.6,191.2v-0.2h9.7v0.2h-0.2v0.2h-0.4l-0.2,0.2
		l-0.2,0.2h-0.4l-1.6,1.3c-1.1,0.9-1.8,1.8-2.2,2.7c-0.4,0.9-1.3,1.3-2.5,1.3h-1.8v-1.3l-0.2-0.2v-4.5H16.6z"/>
	<path style="fill:none;stroke:#000000;stroke-width:2;stroke-miterlimit:10;" d="M181.6,146.7l1.6-0.9l0.7,4.7
		c0.3,3,0.5,4.6,0.7,4.7s0.2,0.4,0.2,0.7v0.2h-3.1c-0.7,0.2-1.4,0.2-2,0.2l-0.9,0.4H178v-2.7c0-1.8,0.2-3,0.4-3.6
		c0.3-0.7,0.7-1.4,1.1-2C180,147.7,180.7,147.1,181.6,146.7z"/>
	<path style="fill:none;stroke:#000000;stroke-width:2;stroke-miterlimit:10;" d="M183.4,207.8v-3.4h39.3v6.7h-39.3V207.8z"/>
	<path style="fill:none;stroke:#000000;stroke-width:2;stroke-miterlimit:10;" d="M136.7,61.5l-0.2-0.4h7.2v0.4
		c0.2,0.2,0.2,0.4,0,0.9v0.9h-1.3c-0.9,0-1.4,0-1.6,0c-0.3,0-1-0.3-2-0.9C137.6,62.1,136.9,61.8,136.7,61.5z"/>
	<path style="fill:none;stroke:#000000;stroke-width:2;stroke-miterlimit:10;" d="M174.4,160.8v-0.2l0.2,16
		c0.2,10.8,0.4,16.6,0.9,17.3c0.4,0.7,0.6,1.5,0.4,2.2v1.1h0.2c0.2,0,0.2,0.1,0.2,0.2h-0.2c-0.3-0.2-0.8-0.2-1.6-0.2
		s-1.3-0.3-1.6-0.9c-0.4-0.3-1.1-0.5-2-0.7c-0.9-0.2-1.6,0.2-2.2,1.1l-0.9,1.1c0-0.2-0.4-0.2-1.1-0.2h-0.9v0.2
		c0,0.2-0.1,0.2-0.2,0.2h-0.2c0,0-0.4-0.4-1.1-1.3c-0.6-0.9-1.3-1.3-2-1.3s-1.3,0.3-1.8,0.9l-0.9,0.7v0.2h-0.9l-0.2-3.1v-3.1h15.1
		l-7.4-0.2l-7.4-0.2h15.5V161h0.2V160.8z"/>
	<path style="fill:none;stroke:#000000;stroke-width:2;stroke-miterlimit:10;" d="M144.1,63.7l1.6-0.2h2.2v2h-1.8
		c-1.3,0-2-0.3-2-0.9V63.7z"/>
	<path style="fill:none;stroke:#000000;stroke-width:2;stroke-miterlimit:10;" d="M176.2,197.5h2.7c0,0.2-0.8,0.2-2.5,0.2H174v0.4
		l0.4,2.2c0.3,1.6,0.5,2.7,0.7,3.1v0.9h-0.2c0,0-0.3,0-0.9,0l-0.9-0.2V204h0.2c0.2,0,0.2-0.4,0-1.3s-0.4-1.8-0.7-2.7l-0.4-1.6v-0.2
		h-0.2l-0.2-0.2v-0.2h-0.2v-0.2h-0.2v-0.2h-0.9v0.2l-0.2,0.2h-0.2c0,0,0,0.1,0,0.2c-0.2,0.2-0.2,0.2-0.2,0.2h-0.2c0,0,0,0.1,0,0.2
		l-0.2,0.4c-0.2,0.3-0.3,0.5-0.4,0.7l-0.2,0.4v0.4l-0.2-0.4l-0.2-0.2v0.2h-0.4v-1.6l0.2-0.2v-0.2l0.9-1.1c0.6-0.9,1.3-1.3,2.2-1.1
		c0.9,0.2,1.6,0.4,2,0.7c0.3,0.6,0.8,0.9,1.6,0.9S175.9,197.3,176.2,197.5z"/>
	<path style="fill:none;stroke:#000000;stroke-width:2;stroke-miterlimit:10;" d="M114.2,200.4v-2.7h39.3v6.1c0,0.2-1.6,0.2-4.9,0.2
		s-4.9,0.1-4.9,0.2c0,0.2-0.1,0.2-0.2,0.2h-29.7V204l0.2-0.4v-0.2h0.2V200.4z"/>
	<path style="fill:none;stroke:#000000;stroke-width:2;stroke-miterlimit:10;" d="M24,204.4h19.8c13,0,19.6,0.3,19.6,0.9v5.6
		l-0.2,0.2H24v-0.2h-0.2v-3.4C23.8,205.5,23.9,204.4,24,204.4z"/>
	<path style="fill:none;stroke:#000000;stroke-width:2;stroke-miterlimit:10;" d="M148.1,56.3v-0.2h49.2c32.8,0,49.2,0.1,49.2,0.2
		s-0.4,0.4-1.1,0.9c-0.6,0.4-0.9,0.7-0.9,0.7c-0.2,0-0.3,0.1-0.4,0.2c-0.2,0-0.2,0.1-0.2,0.2s-0.1,0.2-0.2,0.2h-0.4
		c0-0.2-15.8-0.2-47.4-0.2h-47.4v-0.2l-0.2-0.2c-0.2-0.3-0.2-0.4-0.2-0.4v-0.9C147.9,56.5,148,56.5,148.1,56.3z"/>
	<path style="fill:none;stroke:#000000;stroke-width:2;stroke-miterlimit:10;" d="M42.3,189.6l-0.2-0.9l3.4,0.4
		c2.2,0.3,3.9,0.6,4.9,0.9c1.2,0.3,8.2,0.4,21.1,0.4h19.3l-16.2,0.2l-16.2,0.2h-1.8l0.2,0.9c0.2,0.6,0.7,1.3,1.6,2.2
		c0.9,0.9,1.4,1.6,1.6,2.2c0.2,0.6,2.6,0.9,7.4,0.9c4.7,0,7.3,0,7.9,0h0.9v0.2H76v0.2h-1.3c0,0-0.1,0.9-0.2,2.7v2.9h-0.2v-5.6H53.5
		c0,0-2-0.1-6.1-0.2l-6.1-0.2h14.8v-0.7l-0.2-0.2l-0.2-0.2v-0.4h-0.2v-0.2h-0.2v-0.2c0,0-0.1-0.1-0.2-0.2c-0.2,0-0.7-0.3-1.6-0.9
		c-0.9-0.6-2.1-1.2-3.6-1.8c-1.3-0.6-2.9-1-4.5-1.1l-2.2-0.2v-0.2h-0.2v-0.2h-0.2C42.4,190.5,42.3,190.2,42.3,189.6z"/>
	<path style="fill:none;stroke:#000000;stroke-width:2;stroke-miterlimit:10;" d="M151.5,80.4h-2.2l-0.4,0.2h-0.4v-0.9h10.8
		c7.2,0,10.8,0.1,10.8,0.2c0,0.3-0.8,0.5-2.5,0.7s-3.1,0.5-4.3,1.1c-1.2,0.6-2,1.1-2.2,1.3c-0.4,0.3-0.8,0.4-1.1,0.4
		c-0.4-0.2-1.1-0.5-2-1.1c-0.9-0.7-1.8-1.3-2.7-1.6C154.2,80.5,153,80.4,151.5,80.4z"/>
	<path style="fill:none;stroke:#000000;stroke-width:2;stroke-miterlimit:10;" d="M170.4,197.2h0.2l0.2,0.2c0,0.2,0,0.2,0,0
		c0,0,0.1-0.1,0.2-0.2h0.2v0.2h0.2v0.2h0.2l0.2,0.2c0.2,0,0.2,0.1,0.2,0.2v0.2h-0.2c-0.2,0,0,1,0.4,2.9c0.4,1.8,0.7,2.7,0.7,2.7v0.2
		h-0.2c-0.2-0.2-0.8-0.2-2-0.2h-2.5h0.2v-0.2l0.2-0.7l0.2-0.9v-0.7c0-0.4,0.1-0.8,0.2-1.1c0.2-0.2,0.2-0.5,0.2-1.1v-1.1
		c0-0.2,0.1-0.2,0.2-0.2h0.2c0-0.2,0-0.2,0-0.2h0.2v-0.2C170.1,197.3,170.2,197.2,170.4,197.2z"/>
	<path style="fill:none;stroke:#000000;stroke-width:2;stroke-miterlimit:10;" d="M215.1,150l0.2-0.2l0.4,2.9
		c0.3,1.8,0.5,2.9,0.7,3.1v0.2H214v-0.4c0-0.3,0.2-1.3,0.4-2.9C214.7,150.9,214.9,150,215.1,150z"/>
	<path style="fill:none;stroke:#000000;stroke-width:2;stroke-miterlimit:10;" d="M229.9,211.4h12.8c8.7,0,13,0.1,13,0.2v6.5h-0.2
		c0-0.2-4.3-0.2-12.8-0.2h-13v-3.1C229.7,212.5,229.8,211.4,229.9,211.4z"/>
	<path style="fill:none;stroke:#000000;stroke-width:2;stroke-miterlimit:10;" d="M55.5,132l-0.2-0.2l-0.2,1.6
		c-0.2,1.1-0.3,2.2-0.4,3.6v1.8h-0.4v-0.2h-0.2v-0.2h-0.2v-0.2h-0.2v-0.4l-0.2-0.2L53,137v-0.7c0-0.4-0.1-0.7-0.2-0.7
		c0.2-0.2,0.2-0.7,0.2-1.8v-1.6h-0.2V132c0.2-0.3,0.4-1.3,0.7-3.1l0.7-2.5h0.2v-0.2c0-0.2,0.2-0.6,0.4-1.3c0-0.6,0.1-1.9,0.2-3.8
		c0.2-2,0.2-3.2,0-3.8l-0.2-1.1v-0.2c0,0-0.1-0.2-0.2-0.4V115l-0.2-0.7c0-0.4,0.1-0.7,0.2-0.7c0.2,0,0.5,0.7,1.1,2.2
		c0.6,1.6,0.9,4.3,0.9,7.9c-0.3,3.6-0.5,5.9-0.7,7C55.8,131.6,55.7,132,55.5,132z"/>
	<path style="fill:none;stroke:#000000;stroke-width:2;stroke-miterlimit:10;" d="M160.7,210.7h0.2l0.4,1.1c0.3,0.7,0.4,1.1,0.4,1.1
		s0.1,0,0.2,0v0.7h-0.2c0-0.2-0.2-0.3-0.4-0.4c-0.3-0.3-0.5-0.8-0.7-1.6C160.5,211,160.5,210.7,160.7,210.7z"/>
	<path style="fill:none;stroke:#000000;stroke-width:2;stroke-miterlimit:10;" d="M147.9,61.9V61h49.7c33.1,0.2,49.3,0.4,48.5,0.9
		c-0.9,0.4-1.3,0.8-1.3,1.1v0.4h-48.1l-48.1,0.2h-0.4v-0.4l-0.2-0.2V61.9z"/>
	<path style="fill:none;stroke:#000000;stroke-width:2;stroke-miterlimit:10;" d="M54.8,118.1v-2l0.2,1.1c0.2,0.6,0.2,1.9,0,3.8
		c-0.2,2-0.2,3.2-0.2,3.8c-0.3,0.7-0.4,1.2-0.4,1.3v0.2h-0.2v-0.7c0.2-0.3,0.2-0.7,0.2-1.1s-0.2-0.7-0.4-0.7l-0.2-0.2h-0.4v-0.2
		l-0.2-0.2v-0.2h-0.2v-0.9c0.2-0.6,0.2-1,0.2-1.1c0.2-0.2,0.4-0.3,0.9-0.4C54.5,120.3,54.8,119.5,54.8,118.1z"/>
	<path style="fill:none;stroke:#000000;stroke-width:2;stroke-miterlimit:10;" d="M164.3,210.7l-0.7,1.1c-0.6,0.7-0.9,1.1-0.9,1.1
		l-0.4,0.2h-0.2V213c-0.2,0-0.2,0-0.2,0s-0.2-0.4-0.4-1.1l-0.4-1.1h1.8C163.8,210.7,164.3,210.7,164.3,210.7z"/>
	<path style="fill:none;stroke:#000000;stroke-width:2;stroke-miterlimit:10;" d="M244.1,77.4h0.4v0.2h2.5v1.6h-98.7v-1.6h95.7V77.4
		z"/>
	<path style="fill:none;stroke:#000000;stroke-width:2;stroke-miterlimit:10;" d="M38.4,125.3v-9.9h1.1c0.9,0,1.3,0.1,1.3,0.2v7.9
		c0,5.1,0.1,7.6,0.2,7.6v0.7h-0.2l-0.2,0.2h-0.2v0.9h0.4v0.2h0.2v4.5l0.2,4.5v-0.2h0.2l0.2-0.2l0.2-0.2h0.2l0.2-0.2
		c0.2-0.2,1.9-1.4,5.2-3.8l4.7-3.6h0.2v-1.3h0.2v-0.2H53v1.6c0,1.1-0.1,1.6-0.2,1.8l-0.9,0.4c-0.4,0.3-2.4,1.6-5.8,4
		c-3.3,2.4-4.9,5.1-4.9,8.1v4.7h0.2l0.2-0.2h0.2l0.2-0.2l0.2-0.2h0.2l0.2-0.2c0.2-0.2,0.4-0.4,0.9-0.7l0.7-0.4l0.2-0.2h0.2v-0.2
		l0.2-0.2V150h0.4v0.4h-0.2v0.2h0.2v0.4l-0.2,0.2l0.2,0.2v0.2h-0.2v0.2H45v0.2l-0.4,0.2c-0.3,0.2-0.5,0.3-0.7,0.4h-0.2v-0.2
		c0,0-0.1,0-0.2,0v0.2c0,0.2-0.1,0.2-0.2,0.2v0.2c0,0.2-0.1,0.2-0.2,0.2h-0.2l-0.2-0.2c-0.2-0.2-0.4,0-0.9,0.4
		c-0.4,0.4-0.7,0.7-0.9,0.7h-0.2v0.2h-0.2v0.2h-0.7v-0.7h-0.2v0.2h-0.7v-1.6h-0.2v-4.7c0.2-0.3,0.2-0.6,0.2-0.9c0-0.3,0-0.4,0-0.4
		c-0.2,0-0.3-1.6-0.4-4.9v-6.5c0,0,0.1-0.1,0.2-0.2V125.3z M44.1,152c0,0,0.1,0,0.2,0c0,0.2-0.1,0.2-0.2,0.2
		C44.1,152.3,44.1,152.2,44.1,152z M40,153.8c0,0,0.1,0,0.2,0c0,0.2-0.1,0.2-0.2,0.2C40,154.1,40,154,40,153.8z"/>
	<path style="fill:none;stroke:#000000;stroke-width:2;stroke-miterlimit:10;" d="M153.5,203.7v-0.2h0.2v0.4h2.9v0.2h-0.2v0.2h1.8
		l0.2,2.9c0.2,2,0.2,2.9,0.2,2.9s0,0.1,0,0.2h0.2v0.2l-0.2,0.2v0.2H147c-2.1,0-3.3,0-3.6,0h-0.7h0.2v-6.7c0,0,0.1-0.1,0.2-0.2V204
		h5.2C151.8,204,153.5,203.9,153.5,203.7z"/>
	<path style="fill:none;stroke:#000000;stroke-width:2;stroke-miterlimit:10;" d="M146.1,58.5h1.8v2.2h-3.6c0,0-0.1-0.1-0.2-0.2
		v-1.3C144.1,58.8,144.7,58.5,146.1,58.5z"/>
	<path style="fill:none;stroke:#000000;stroke-width:2;stroke-miterlimit:10;" d="M93.5,145.5v-20h29.4V166h-13.7
		c-9.1,0.2-14.1,0.2-14.8,0.2h-0.9V166C93.5,165.8,93.5,159,93.5,145.5z M118.7,148.7v4.7c0,0.2-0.3,0.2-0.9,0.2l-0.9-0.2l0.2-4.7
		c0-3,0.3-4.5,0.9-4.5C118.4,144.2,118.7,145.7,118.7,148.7z"/>
	<path style="fill:none;stroke:#000000;stroke-width:2;stroke-miterlimit:10;" d="M91.3,170.3v-0.4h17.1c11.4,0,22.5,0.1,33.5,0.2
		h16.4v2.9h0.2v5.8h-0.2c0,0-11.2,0.2-33.5,0.4H91.3v0.2H91v-9C91.2,170.5,91.3,170.4,91.3,170.3z M124.1,172.1
		c0.2-0.3,0.6-0.4,1.3-0.2c0.7,0.2,1.3,0.4,1.6,0.7c0.2,0.3,0.2,0.7,0.2,1.3c-0.2,0.6-0.4,1-0.7,1.1s-0.8,0.2-1.6,0.2
		c-0.7,0-1.3-0.2-1.6-0.7c-0.2-0.4-0.2-1,0-1.6C123.5,172.3,123.8,172.1,124.1,172.1z"/>
	<path style="fill:none;stroke:#000000;stroke-width:2;stroke-miterlimit:10;" d="M65.2,161.5H65v0.2h-0.9v0.2h-0.2v0.2h-0.4v-0.4
		h0.2v-0.2h-0.2V161l0.2-0.2c0.2-0.3,0.6-1.6,1.3-4c0.7-2.4,1.3-4.2,1.6-5.4v-2h-0.2v-0.2h-0.4v-0.2h-0.2v0.2H65v0.2h-0.2v0.2h-0.4
		l-0.9,1.6c-0.6,0.9-1.6,2.7-3.1,5.4c-1.3,2.5-2.1,3.9-2.2,4l-0.2,0.2h-0.2v0.4l-0.2,0.2l-0.2,0.2v0.2h-0.2v0.2h-0.4v-1.3
		c-0.2-0.9-0.1-2.9,0.2-6.1c0.3-3.1,0.3-5.2,0-6.1l-0.2-1.3c0.2,0,0.2,0,0.2,0s0-0.1,0-0.2c0-0.3-0.2-1.1-0.4-2.5l-0.7-2v-1.1
		c-0.2-0.7-0.2-1.6-0.2-2.7c0-0.9,0-2.2,0-4l0.2-2.7c0.2,0,0.3-0.4,0.4-1.3c0.2-1.1,0.4-3.4,0.7-7c0-3.6-0.2-6.1-0.7-7.4l-0.9-2.2
		h-0.2c-0.2,0-0.2,0.2-0.2,0.4v0.4h-0.4v-0.2l-0.2-0.2v-0.4c0-0.2-0.1-0.4-0.2-0.7l-0.2-0.4v-1.1h-0.2v-0.2H53v-0.2h-0.2v-0.2h-0.2
		c0-0.2-0.3-0.4-0.9-0.9c-0.6-0.4-1.2-1.3-1.8-2.7l-0.9-2v-0.7l-0.2-0.2l-0.2-0.4v-1.8c0-1.1,0.4-1.9,1.1-2.5c0.7-0.4,1.4-0.8,2-1.1
		c0.7-0.3,1.8-0.4,3.1-0.2c1.2,0.2,2.5,0.7,4,1.6c1.3,0.9,2.6,2.1,3.8,3.6c1.3,1.5,2.6,3.4,3.8,5.8c1.2,2.4,2.1,4.6,2.7,6.5
		c0.6,2,0.9,3.8,0.9,5.6c0,1.8-0.2,3.8-0.4,5.8c-0.6,2.2-0.8,4.3-0.7,6.1c0.2,1.8,0.6,3.7,1.3,5.6c0.7,2,1.6,3.9,2.5,5.8
		c0.9,1.8,1.3,3.4,1.3,4.9c0,1.6-0.4,3-1.3,4c-0.6,1.1-1.8,2.4-3.6,4c-1.8,1.5-2.9,2.4-3.4,2.7C65.4,161.1,65.2,161.3,65.2,161.5z"
		/>
	<path style="fill:none;stroke:#000000;stroke-width:2;stroke-miterlimit:10;" d="M123.2,114.7h-0.7v0.4h0.2l0.2-0.2h0.4
		c0.3,0.2,0.5,0.3,0.7,0.4c0,0.3,0.1,0.4,0.2,0.4v2.7c-0.2,1.5-0.2,2.3-0.2,2.5v0.2h-13.3c-8.8,0-14.6,0-17.3,0
		c-2.9,0-4.3-1.6-4.5-4.7v-4.7l0.2-1.3c0.2-1.1,0.3-1.6,0.4-1.8c0.2,0,5.9,0,17.3,0c11.2,0,16.9,0.2,17.1,0.4c0,0.2,0,1.1,0,2.7
		c0,1.8-0.1,2.7-0.2,2.7C123.8,114.5,123.6,114.6,123.2,114.7z"/>
	<path style="fill:none;stroke:#000000;stroke-width:2;stroke-miterlimit:10;" d="M166.5,204h0.2l0.2,0.4c0.2,0.2,0.2,1.2,0.2,3.1
		c0,1.8,0,2.9,0,3.1v0.4c0,0-0.2,0.1-0.7,0.2c-0.4,0-0.7-0.1-0.7-0.2v-0.4l0.2-0.4c0.2-0.2,0.2-0.3,0-0.4c-0.2,0-0.2-0.9,0-2.7
		c0.2-1.6,0.2-2.5,0-2.7l-0.2-0.4v-0.2h0.2c0.2,0,0.2,0,0.2,0C166.3,203.9,166.4,204,166.5,204z"/>
	<path style="fill:none;stroke:#000000;stroke-width:2;stroke-miterlimit:10;" d="M118.7,148.7v4.7c0,0.2-0.3,0.2-0.9,0.2l-0.9-0.2
		l0.2-4.7c0-3,0.3-4.5,0.9-4.5C118.4,144.2,118.7,145.7,118.7,148.7z"/>
	<path style="fill:none;stroke:#000000;stroke-width:2;stroke-miterlimit:10;" d="M214.9,79.7h0.7v14.6c0.2,9.6,0.2,14.4,0,14.4v0.2
		h-1.3v-0.2H214V94.3C214,84.6,214.3,79.7,214.9,79.7z"/>
	<path style="fill:none;stroke:#000000;stroke-width:2;stroke-miterlimit:10;" d="M154,198.1v-0.4h4.9c0.2,0,0.1,1.1-0.2,3.1
		c-0.4,2.1-0.9,3.1-1.3,3.1h-3.6v-3.1C153.7,199.2,153.8,198.3,154,198.1z"/>
	<path style="fill:none;stroke:#000000;stroke-width:2;stroke-miterlimit:10;" d="M53.7,123.7l0.2,0.2c0.3,0,0.4,0.2,0.4,0.7
		s-0.1,0.8-0.2,1.1v0.7l-0.7,2.5c-0.3,1.8-0.5,2.9-0.7,3.1v0.4h-0.2v1.3h-0.2l-4.7,3.6c-3.3,2.4-5,3.7-5.2,3.8l-0.2,0.2H42l-0.2,0.2
		l-0.2,0.2h-0.2v0.2l-0.2-4.5v-4.7h0.2v-0.2h0.2v-0.2H42v-0.2c0.2,0,2-1.3,5.4-3.8l5.4-4H53v-0.2h0.2V124h0.4V123.7z"/>
	<path style="fill:none;stroke:#000000;stroke-width:2;stroke-miterlimit:10;" d="M23.4,135l0.2-0.2H24l0.2,0.2l0.4,0.2l0.4,0.4
		c0.3,0.3,0.5,0.7,0.7,1.1v0.7h-0.2c0,0,0,0.1,0,0.2h0.2l0.2,0.2c0.2,0,0.3,0.1,0.4,0.2c0,0.2-0.2,0.2-0.4,0l-0.4-0.2l-0.2,0.2v0.2
		h-0.4v0.2h-1.1l-0.9-0.2h-0.4v-0.2h-0.2v-0.2H22v-2.2h0.2v-0.2h0.2v-0.2h0.4L23.4,135z"/>
	<path style="fill:none;stroke:#000000;stroke-width:2;stroke-miterlimit:10;" d="M0.7,207.6V204H24v0.2h0.2v0.2H24
		c-0.2,0-0.2,1.1-0.2,3.1v3.4H24v0.2h3.6v0.2h-27V207.6z"/>
	<path style="fill:none;stroke:#000000;stroke-width:2;stroke-miterlimit:10;" d="M136,78.6v-0.9h7.6v1.6H136V78.6z"/>
	<path style="fill:none;stroke:#000000;stroke-width:2;stroke-miterlimit:10;" d="M23.6,157.4v-0.2h1.8v0.2h0.2l0.2,0.2
		c0.2,0,0.3,0.2,0.4,0.4c0.2,0.2,0.2,0.4,0.2,0.9v0.9c0,0.2-0.1,0.3-0.2,0.4c-0.2,0-0.3,0.2-0.4,0.4v0.2h-0.2
		c-0.2-0.2-0.4-0.2-0.9-0.2c-0.6,0-1.1,0-1.3,0l-0.2-0.4h-0.2v-0.2h-0.2v-0.2h-0.2v-1.6h0.2v-0.2h0.2v-0.4h0.4v-0.2H23.6z"/>
	<path style="fill:none;stroke:#000000;stroke-width:2;stroke-miterlimit:10;" d="M55.1,133.4l0.2-1.6l0.2,0.2l-0.2,2.7
		c0,1.8,0,3.1,0,4c0,1.1,0.1,2,0.2,2.7v1.1c-0.2,0-0.2-0.2-0.2-0.4c0-0.3-0.1-0.4-0.2-0.4h-0.2c0,0-0.2-0.3-0.4-0.9
		c-0.3-0.6-0.4-1.1-0.4-1.6v-0.7h0.2v0.2h0.4V137C54.8,135.6,54.9,134.5,55.1,133.4z"/>
	<path style="fill:none;stroke:#000000;stroke-width:2;stroke-miterlimit:10;" d="M148.3,68.4h96.4v0.2c0,0.3,0.2,0.5,0.7,0.7
		c0.4,0.2,0.7,0.3,0.9,0.4l0.2,0.2h0.2v0.2h-0.2v0.2h-49.2c-32.7,0-49-0.1-49-0.2l-0.2-0.2v-0.9C148.3,68.7,148.3,68.4,148.3,68.4z"
		/>
	<path style="fill:none;stroke:#000000;stroke-width:2;stroke-miterlimit:10;" d="M22.5,124h1.8l0.4,0.2c0.3,0.3,0.5,0.7,0.7,1.1
		v0.9l-0.4,0.4c-0.3,0.3-0.4,0.5-0.4,0.7H24c-0.3,0.2-0.7,0.1-1.1-0.2H22v-0.2h-0.2v-0.2h-0.2v-2l0.2-0.2v-0.2H22l0.2-0.2H22.5z"/>
	<path style="fill:none;stroke:#000000;stroke-width:2;stroke-miterlimit:10;" d="M38.4,110v-2.2h2l0.2,0.2h0.2v4c0,0.2,0,0.3,0,0.4
		c0.2,0.2-0.2,0.2-0.9,0.2c-0.7,0-1.2-0.1-1.3-0.2l-0.2-0.2V110z"/>
	<path style="fill:none;stroke:#000000;stroke-width:2;stroke-miterlimit:10;" d="M244.5,72.9h0.2v0.2l-0.2,0.2v0.2l0.7,0.4
		c0.4,0.3,0.7,0.4,0.9,0.4h0.2l0.2,0.2h0.2v0.4h-98.4V75h-0.2v-0.4l-0.2-0.2v-1.1h48.5C228.4,73.2,244.4,73.1,244.5,72.9z"/>
	<path style="fill:none;stroke:#000000;stroke-width:2;stroke-miterlimit:10;" d="M134,53.8V52H247v3.6H134.4
		C134.1,55.6,134,55,134,53.8z"/>
	<path style="fill:none;stroke:#000000;stroke-width:2;stroke-miterlimit:10;" d="M141.6,79.9l0.9-0.2h1.1v4h-0.2
		c0,0.2-0.3,0.5-0.9,1.1c-0.4,0.9-0.7,0.3-0.9-1.8V79.9z"/>
	<path style="fill:none;stroke:#000000;stroke-width:2;stroke-miterlimit:10;" d="M40.9,192.1v2.5c0.2,1.8,0.3,2.7,0.4,2.7l6.1,0.2
		c4,0.2,6.1,0.2,6.1,0.2H47c-4.3,0-7.6,0-9.7,0h-2.9v2.5l-0.2,2.5v-5.2h0.2v-0.2h2c1.2,0,1.8-0.1,1.8-0.2l0.2-2.5v-2.2h1.1
		C40.5,192.1,40.9,192.1,40.9,192.1z"/>
	<path style="fill:none;stroke:#000000;stroke-width:2;stroke-miterlimit:10;" d="M172.2,199l-0.2-0.9c0,0,0.1,0.1,0.2,0.2l0.4,1.6
		c0.3,0.9,0.5,1.8,0.7,2.7s0.2,1.3,0,1.3h-0.2c0,0-0.2-0.6-0.4-1.8C172.3,200.8,172.2,199.8,172.2,199z"/>
	<path style="fill:none;stroke:#000000;stroke-width:2;stroke-miterlimit:10;" d="M0.7,214.5v-3.1h29.7v6.5H0.9
		C0.9,217.7,0.8,216.6,0.7,214.5z"/>
	<path style="fill:none;stroke:#000000;stroke-width:2;stroke-miterlimit:10;" d="M47.9,160.8h-0.2v0.2h-0.2v0.2H47v0.2h-0.2v0.2
		h-0.2v-0.2l-0.2-0.2v0.2v-0.7h0.2v-0.2h0.2v-0.7H47l2.2-1.8c1.6-1.2,2.5-2.1,2.7-2.7c0.2-0.7,0.4-1.2,0.7-1.3
		c0.3-0.3,0.7-0.4,1.3-0.2c0.7,0.2,1.3,0.4,1.6,0.7c0.2,0.3,0.2,0.7,0.2,1.3c-0.2,0.6-0.4,1-0.7,1.1s-0.7,0.2-1.3,0.2
		c-0.6,0-1.7,0.6-3.4,1.8C48.7,160.2,47.9,160.8,47.9,160.8z"/>
	<path style="fill:none;stroke:#000000;stroke-width:2;stroke-miterlimit:10;" d="M136.2,70.5v0.2l0.4,0.4c0.2,0.2,0.3,0.3,0.4,0.4
		c0.2,0.2,0.3,0.2,0.4,0.2h0.2l0.9,0.4c0.6,0.3,1.6,0.4,2.9,0.4c1.5,0,2.2-0.1,2.2-0.2v-0.2h0.2v0.7h1.6c1.1,0.2,1.6,0.2,1.6,0.2
		h-1.6c-1.1,0-1.6,0.3-1.6,0.9c0,0.7,0.1,1.1,0.2,1.1h0.4c0,0.2-0.2,0.2-0.4,0.2c-0.2,0-0.2,0.1-0.2,0.2v0.2H136l0.2,0.4
		c0.3,0.3,0.4,0.4,0.2,0.4h-0.2V77l0.2,0.2H136V77l-0.2-0.2v-0.7h-0.2v-0.2h-0.2l-0.2-0.2c-0.2-0.2-0.1-0.2,0.2-0.2
		c0.2-0.2,0.2-0.9,0.2-2.2v-2.2h-0.2c-0.3,0-0.4-0.1-0.4-0.2l0.2-0.2h0.2c0,0.2,0.1,0.2,0.2,0c0-0.2,0.1-0.2,0.2,0
		C136,70.5,136.2,70.5,136.2,70.5z M139.8,75.2l-3.6-0.2l1.8-0.9c1.1-0.6,2.2-0.9,3.6-0.9c1.3,0,2,0.3,2,0.9
		C143.6,74.8,142.3,75.2,139.8,75.2z"/>
	<path style="fill:none;stroke:#000000;stroke-width:2;stroke-miterlimit:10;" d="M255.8,197.5v6.1c0,0.3-3.8,0.4-11.2,0.4h-11v-6.3
		h11.2C252,197.7,255.6,197.6,255.8,197.5z"/>
	<path style="fill:none;stroke:#000000;stroke-width:2;stroke-miterlimit:10;" d="M34.2,191.4l2.5-0.4h0.2c0.3,0,0.5,0.2,0.7,0.4
		c0.2,0.3,0.3,0.4,0.4,0.4c0.2,0,0.2,0.9,0.2,2.7v2.5c0,0.2-0.6,0.2-1.8,0.2H24.3v-0.7l0.2-0.2l0.2-0.2v-0.4h0.2v-0.2h0.2v-0.2
		c0,0,0.4-0.3,1.1-0.9c0.7-0.4,1.9-1,3.4-1.6C31,192.1,32.5,191.7,34.2,191.4z"/>
	<path style="fill:none;stroke:#000000;stroke-width:2;stroke-miterlimit:10;" d="M136.7,71.1l-0.4-0.4h3.6c2.5,0,3.8,0.1,3.8,0.2
		c0.2,0.2,0.2,0.4,0.2,0.9v0.7c0,0.2-0.7,0.2-2.2,0.2c-1.3,0-2.3-0.2-2.9-0.4l-0.9-0.4h-0.2c-0.2,0-0.3-0.1-0.4-0.2
		C136.9,71.4,136.8,71.3,136.7,71.1z"/>
	<path style="fill:none;stroke:#000000;stroke-width:2;stroke-miterlimit:10;" d="M145.6,73.2h2.2v2h-3.6c-0.2,0-0.2-0.4-0.2-1.1
		C144.1,73.5,144.6,73.2,145.6,73.2z"/>
	<path style="fill:none;stroke:#000000;stroke-width:2;stroke-miterlimit:10;" d="M148.3,70.9h98.4v0.4h-0.4l-0.2,0.2
		c-0.2,0.2-0.4,0.2-0.7,0.2c-0.3,0.3-0.4,0.5-0.4,0.7l-0.2,0.4h-0.2c-0.2,0.2-16.2,0.2-48.1,0.2h-48.1v-0.2c0-0.2-0.1-0.4-0.2-0.7
		v-0.9L148.3,70.9z"/>
	<path style="fill:none;stroke:#000000;stroke-width:2;stroke-miterlimit:10;" d="M165,204h0.4c0.3,0,0.4,0,0.4,0h0.2v0.4
		c0,0.3-0.1,1.3-0.2,2.9c0,1.6,0.1,2.5,0.2,2.5c0.2,0.2,0.2,0.3,0,0.4l-0.2,0.4c-0.2,0-0.4,0-0.9,0h-0.7c0,0-0.5,0-1.6,0h-1.8
		c0,0-0.3-0.1-0.9-0.2h-1.3c0-0.2,0-0.2,0-0.2s-0.1-1-0.2-2.9l-0.2-2.9h0.7l0.4-0.2h2.9C164.1,204,165,204,165,204z"/>
	<path style="fill:none;stroke:#000000;stroke-width:2;stroke-miterlimit:10;" d="M143.6,63.7v0.9c0,0.6-1.3,0.9-3.8,0.9h-3.6v-0.2
		c0-0.2,0.2-0.2,0.4-0.2h0.2l1.1-0.9c0.9-0.3,2.1-0.4,3.6-0.4C142.9,63.7,143.6,63.7,143.6,63.7z"/>
	<path style="fill:none;stroke:#000000;stroke-width:2;stroke-miterlimit:10;" d="M38.2,141.5v-4.7v5.2c0.2,3.3,0.3,4.9,0.4,4.9
		c0,0,0,0.2,0,0.4c0,0.3-0.1,0.6-0.2,0.9v0.2h-0.2v-0.2c0,0-2.1-1.5-6.3-4.5l-5.8-4.5h-0.2l-0.2-0.2l-0.2-0.2h-0.2v-0.2h-0.2v-0.2
		h0.4v-0.2l0.2-0.2v-0.4h0.2v0.2h0.2l0.2,0.2h0.4v0.2c0,0.2,1.6,1.3,4.7,3.6c3.3,2.2,5,3.4,5.2,3.6l0.2,0.2h0.2v0.2h0.2v0.2h0.4
		l0.2,0.2h0.2V141.5z M26.1,138.1c0,0,0.1,0,0.2,0c0,0.2-0.1,0.2-0.2,0.2C26.1,138.3,26.1,138.3,26.1,138.1z"/>
</g>
</svg>
