<?xml version="1.0" encoding="utf-8"?>
<!-- Generator: Adobe Illustrator 23.0.0, SVG Export Plug-In . SVG Version: 6.00 Build 0)  -->
<svg version="1.1" id="Layer_1" xmlns="http://www.w3.org/2000/svg" xmlns:xlink="http://www.w3.org/1999/xlink" x="0px" y="0px"
	 viewBox="0 0 256 256" style="enable-background:new 0 0 256 256;" xml:space="preserve">
<polygon style="fill:#FFD15F;" points="250.8,140.9 92.5,140.9 92.5,92.3 230.9,92.3 "/>
<path style="fill:#FFD15F;stroke:#902F3B;stroke-width:5;stroke-linecap:round;stroke-linejoin:round;stroke-miterlimit:10;" d="
	M85.2,147.2V99.5c0-7.3-5.9-13.3-13.3-13.3H19.3C11.9,86.3,6,92.2,6,99.5v78.6c0,4.6,3.7,8.2,8.2,8.2h63.7h17.8h140.7
	c5.1,0,9.3-4.2,9.3-9.3v-29.9H85.2z"/>
<polygon style="opacity:0.2;" points="6,165.9 245.7,165.9 245.7,183 236.4,186.4 14.2,186.4 7,182.1 "/>
<path style="fill:none;stroke:#B28D31;stroke-width:5;stroke-linecap:round;stroke-linejoin:round;stroke-miterlimit:10;" d="
	M85.2,147.2V99.5c0-7.3-5.9-13.3-13.3-13.3H19.3C11.9,86.3,6,92.2,6,99.5v78.6c0,4.6,3.7,8.2,8.2,8.2h63.7h17.8h140.7
	c5.1,0,9.3-4.2,9.3-9.3v-29.9H85.2z"/>
<circle style="fill:#FFFFFF;stroke:#B28D31;stroke-width:5;stroke-linecap:round;stroke-linejoin:round;stroke-miterlimit:10;" cx="51.9" cy="193.7" r="30"/>
<circle style="fill:#FFFFFF;stroke:#B28D31;stroke-width:5;stroke-linecap:round;stroke-linejoin:round;stroke-miterlimit:10;" cx="208.8" cy="193.7" r="30"/>
<path style="fill:#FFFFFF;stroke:#B28D31;stroke-width:5;stroke-linecap:round;stroke-linejoin:round;stroke-miterlimit:10;" d="
	M64.5,146.8H31c-6,0-10.9-4.9-10.9-10.9v-27.2c0-6,4.9-10.9,10.9-10.9h33.5c6,0,10.9,4.9,10.9,10.9v27.2
	C75.3,141.9,70.5,146.8,64.5,146.8z"/>
<polygon style="opacity:0.2;" points="92.5,124.1 243.9,124.1 250.8,140.9 92.5,140.9 "/>
<polygon style="fill:none;stroke:#B28D31;stroke-width:5;stroke-linecap:round;stroke-linejoin:round;stroke-miterlimit:10;" points="
	250.8,140.9 92.5,140.9 92.5,92.3 230.9,92.3 "/>
</svg>
