<?xml version="1.0" encoding="utf-8"?>
<!-- Generator: Adobe Illustrator 23.0.0, SVG Export Plug-In . SVG Version: 6.00 Build 0)  -->
<svg version="1.1" id="Layer_1" xmlns="http://www.w3.org/2000/svg" xmlns:xlink="http://www.w3.org/1999/xlink" x="0px" y="0px"
	 viewBox="0 0 256 256" style="enable-background:new 0 0 256 256;" xml:space="preserve">
<path style="fill:#72C16E;" d="M52.7,20.4c0,0,5.7-16.6,26.4-15.5s29.4,14.3,33.8,22.6c4.9,9.3,4.8,18.5,26.7,38.2
	c22,19.8,29.7,72.3,36.2,88.2s14.5,30.4,24.8,37.2c0,0-11,0.3-35.7-15.2c0,0,16.9,40.2,21.3,73.4c0,0-27.7-48.3-39.2-56.1
	s-54.1-27-73-61.2s-9.8-71.3-9.8-71.3l-5.9-13.5c0,0-6.1,4.1-11.3-2.4l-1.5,6.6C45.5,51.3,28.9,31,52.7,20.4z"/>
<polygon style="fill:#FFFFFF;stroke:#000000;stroke-miterlimit:10;" points="135.6,61.9 126.2,57.6 109.3,61.9 104,77.6 105.5,99.4 
	114.4,120.1 136.3,148.9 158.8,171 176.6,182.6 198.5,190.9 194.2,184.8 177.5,161.7 170.6,136.5 162.5,108.1 152.1,82.6 142.9,69 
	"/>
<path style="fill:none;stroke:#306735;stroke-width:5;stroke-linecap:round;stroke-linejoin:round;stroke-miterlimit:10;" d="
	M133.1,60c0,0-24.1-10.9-28.2,14.3c-4.1,25.2,5,40.7,19.1,60.1c14,19.2,41.4,42.5,41.4,42.5"/>
<path style="fill:none;stroke:#306735;stroke-width:5;stroke-linecap:round;stroke-linejoin:round;stroke-miterlimit:10;" d="
	M105.3,167.1c0,0-12.3-1.4-17.9,7.9"/>
<circle style="fill:#306735;" cx="76.4" cy="22.9" r="2.9"/>
<path style="fill:none;stroke:#306735;stroke-width:5;stroke-linecap:round;stroke-linejoin:round;stroke-miterlimit:10;" d="
	M52.7,20.4c0,0,5.7-16.6,26.4-15.5s29.4,14.3,33.8,22.6c4.9,9.3,4.8,18.5,26.7,38.2c22,19.8,29.7,72.3,36.2,88.2
	s14.5,30.4,24.8,37.2c0,0-11,0.3-35.7-15.2c0,0,16.9,40.2,21.3,73.4c0,0-27.7-48.3-39.2-56.1s-54.1-27-73-61.2s-9.8-71.3-9.8-71.3
	l-5.9-13.5c0,0-6.1,4.1-11.3-2.4l-1.5,6.6C45.5,51.3,28.9,31,52.7,20.4z"/>
</svg>
