<?xml version="1.0" encoding="utf-8"?>
<!-- Generator: Adobe Illustrator 17.0.0, SVG Export Plug-In . SVG Version: 6.00 Build 0)  -->
<!DOCTYPE svg PUBLIC "-//W3C//DTD SVG 1.1//EN" "http://www.w3.org/Graphics/SVG/1.1/DTD/svg11.dtd" [
	<!ENTITY ns_flows "http://ns.adobe.com/Flows/1.0/">
	<!ENTITY ns_extend "http://ns.adobe.com/Extensibility/1.0/">
	<!ENTITY ns_ai "http://ns.adobe.com/AdobeIllustrator/10.0/">
	<!ENTITY ns_graphs "http://ns.adobe.com/Graphs/1.0/">
]>
<svg version="1.1" id="Layer_1" xmlns:x="&ns_extend;" xmlns:i="&ns_ai;" xmlns:graph="&ns_graphs;"
	 xmlns="http://www.w3.org/2000/svg" xmlns:xlink="http://www.w3.org/1999/xlink" xmlns:a="http://ns.adobe.com/AdobeSVGViewerExtensions/3.0/"
	 x="0px" y="0px" width="905px" height="1280px" viewBox="0 0 905 1280" style="enable-background:new 0 0 905 1280;"
	 xml:space="preserve">
<g transform="translate(0.000000,1280.000000) scale(0.100000,-0.100000)">
	<path d="M5000,12214c-100-17-248-47-265-53c-11-5-36-14-55-21c-84-30-101-38-181-87c-69-43-140-95-204-152c-5-5-30-35-55-66
		c-25-32-54-67-65-79c-30-31-75-99-75-113c0-7-12-13-26-13c-33,0-160-43-227-76c-64-33-185-122-239-178c-127-130-209-302-254-527
		c-23-115-25-148-20-239c9-143,16-203,27-214c5-6,9-28,9-50c0-50,26-159,51-212c11-23,26-75,34-116s21-95,30-121s17-78,19-115
		c5-94,28-132,72-115c24,9,34,47,34,124s20,145,72,249l33,65l40-3c22-2,72-12,111-23c66-18,78-18,165-5c52,7,99,11,105,9
		c7-2,39,9,73,26c73,37,79,38,91,7c15-41,110-189,141-222c44-46,40-88-31-319c-10-33-23-105-29-160s-15-116-21-135
		c-23-88-41-180-46-240c-3-36-8-81-10-100s-7-116-10-215c-7-196,7-396,31-465c8-24,15-73,14-109c-1-99,28-238,91-441
		c18-58,45-148,62-200c16-52,37-113,48-135c10-22,40-89,65-150c26-60,65-143,87-182c21-40,36-73,32-73s-26,16-50,35
		c-23,19-48,35-54,35c-7,0-33,15-59,34c-25,18-74,47-107,64c-34,17-131,78-215,135c-85,57-233,154-329,214c-96,61-229,145-295,187
		c-66,43-158,98-205,124c-47,25-87,49-88,54c-2,4-12,8-22,8c-9,0-23,6-29,14s-26,20-44,27c-36,15-259,161-294,192l-23,20l73,76
		c59,63,79,92,110,166c22,52,43,122,49,165c10,71,10,78-16,138c-27,63-80,125-131,152c-30,16-30,20-7,51c18,25,29,47,55,109
		c42,99,51,186,31,275c-9,39-23,81-31,95s-25,48-38,77c-17,36-56,84-127,154l-102,101l13,41c20,66,33,186,28,262c-3,62-9,80-52,153
		c-40,68-63,95-123,142c-104,81-131,93-244,110c-42,6-103,8-137,4c-93-10-104-4-141,73c-46,100-75,138-179,240
		c-122,120-156,133-361,140c-80,3-184,0-232-5c-156-20-347-97-436-177c-67-61-156-231-172-330c-6-37-15-75-20-85c-5-9-40-26-79-38
		c-58-17-85-33-160-97c-103-86-113-99-169-211c-53-105-76-215-76-364l-1-116l57-117c32-64,58-121,58-125c0-5-9-17-20-27
		s-20-25-20-34s-7-27-16-40c-28-39-25-237,5-321c29-82,99-196,159-258c44-46,199-132,236-132c10,0,15-21,18-87c4-81,8-95,51-179
		c105-202,209-268,422-267c133,0,316,40,448,97l37,16l35-54c46-73,183-182,245-195c128-28,364-34,531-15c55,6,56,6,108-40
		c28-25,57-46,63-46s29-16,52-36c51-44,265-183,366-237c125-66,230-162,230-208c0-26-91-64-195-83c-49-9-220-30-380-46
		c-159-17-324-35-365-40c-86-11-412-58-452-65l-27-4l29,46c40,62,53,136,47,257c-5,107-9,131-20,142c-4,4-7,14-7,22
		c0,14-48,79-95,129c-11,12-24,27-30,33c-25,28-177,130-235,157c-109,52-171,67-253,60s-133-25-161-56c-24-26-42-26-108,0
		c-46,19-66,21-158,15c-178-9-283-43-445-143c-41-25-101-108-126-173c-39-103-51-186-44-298c7-101,6-104-20-143c-15-21-31-39-36-39
		c-4,0-11-10-14-22c-4-13-20-43-35-68c-23-36-32-69-46-163c-14-102-15-142-6-280c11-181,28-264,71-358c40-89,89-143,151-165
		c57-21,68-35,94-119c31-100,70-166,138-231c122-118,327-191,508-181c90,5,101,8,215,62c166,79,255,145,316,232l29,42l65-23
		c55-21,73-23,132-16c114,14,240,68,316,136c27,24,53,44,57,44c14,0,131,162,153,210c26,58,56,201,57,265c0,32-8,66-20,90
		c-11,21-19,39-17,40c1,1,74,10,162,19c357,38,467,56,750,121c263,61,333,69,498,61c76-3,147-11,157-16c9-5,38-51,64-102
		s69-135,96-187c28-51,50-98,50-104c0-25,64-147,78-147c9,0,12-6,7-17c-6-16-49-146-75-228c-20-66-23-179-5-241c9-32,20-63,25-69
		c4-5,10-23,14-38c8-35,48-56,71-37c9,8,23,26,30,41c8,15,49,53,91,84c88,67,92,66,140-14c60-99,100-233,138-467
		c20-121,40-241,46-269c5-27,16-86,24-130s26-127,40-185s26-114,26-126c0-11,10-56,21-100c12-43,30-113,40-154s30-118,43-170
		c14-52,32-138,40-190s33-172,55-267c23-94,52-236,66-315c46-255,96-511,119-608c25-104,50-249,44-256c-3-2-38,11-79,28
		c-49,21-106,36-169,44c-87,11-107,10-234-12c-144-25-193-45-402-164l-41-24l-79,41c-43,23-127,55-187,72c-91,26-124,31-216,31
		c-249,0-461-81-607-232c-59-61-114-145-114-175c0-15-34-13-150,9c-30,6-69,13-86,15c-43,7-343-43-402-66c-165-65-278-194-365-416
		c-31-78-36-103-38-185c-1-77,3-111,24-180c14-47,23-87,20-90c-2-3-21-6-41-7c-62-3-122-20-224-61c-197-79-277-145-372-305
		c-50-83-66-120-71-162c-9-69-1-105,24-105c21,0,31,19,31,55c0,39,46,155,73,184c14,14,32,40,40,57c39,76,217,190,357,227
		c91,24,213,39,262,32c39-6,48-4,56,11c13,26,6,42-39,90c-66,73-74,96-75,224c-1,104,2,122,29,190c73,190,151,284,288,350
		c135,64,190,75,374,75c171,0,164,1,279-62c39-21,59-8,67,43c8,58,72,175,116,215c60,55,129,99,196,126c145,59,360,79,514,47
		c79-16,284-110,300-137c17-30,48-28,79,4c52,57,170,126,267,158c170,56,326,64,434,23c70-27,183-104,254-172c34-33,65-60,69-60
		s23,6,41,14c56,23,314,12,409-18c41-13,97-28,124-35c27-6,62-23,78-36c16-14,35-25,43-25c7,0,73-29,147-65c96-47,149-80,188-116
		c46-44,58-50,83-45l30,6l-7-112c-15-254-38-384-79-442c-26-37-13-61,33-61c31,0,36,5,69,70c20,39,65,112,100,164l64,94l12-30
		c18-43,28-46,82-27c128,44,634-47,826-148c93-49,203-147,225-198c7-19,20-42,27-50c18-22,33-77,38-141c7-91,10-93,124-94
		c84-1,107-5,163-29c129-56,154-70,226-131s77-67,109-133c17-35,31-52,43-52c36,0,68,59,42,75c-6,4-19,23-29,43
		c-30,58-119,144-196,189c-38,22-92,53-120,69c-57,33-85,42-174,54c-94,14-99,17-112,62c-6,22-23,67-39,99c-16,33-26,59-24,59
		c15,0-66,95-129,152c-86,78-135,104-282,151c-188,60-408,100-631,113c-92,6-115,4-142-10l-33-17l40,58c61,89,231,443,280,583
		c53,151,170,464,202,540c12,30,64,154,115,275c90,214,218,592,289,852c105,383,185,876,200,1243c7,160-13,414-40,521
		c-9,34-15,63-13,64c2,2,21-4,43-12c108-40,278-96,350-114c44-11,108-30,142-40c34-11,79-22,100-24c68-7,157-23,185-34
		c48-18,92,13,81,59c-3,14-17,43-31,64c-13,22-39,85-57,140c-55,168-160,405-327,734c-184,365-269,574-533,1323
		c-54,151-115,319-137,374s-62,161-88,235c-27,74-80,218-118,320c-39,102-84,239-102,305c-29,115-93,303-188,560
		c-24,66-53,145-64,175s-23,64-28,75c-4,11-22,58-40,105c-51,138-107,242-158,293c-60,61-241,197-261,197c-6,0-35,10-65,22
		c-63,26-66,33-66,163c0,46-7,119-15,162s-18,109-20,146c-11,136-54,356-84,425c-88,204-131,291-209,424c-127,220-183,280-382,415
		c-71,48-309,152-385,168C5275,12210,5047,12223,5000,12214z M5370,12121c121-42,265-114,345-173c114-84,250-221,295-298
		c146-251,232-419,249-487c6-21,19-64,31-96c24-68,81-484,86-631c2-72-1-106-11-127c-32-61-13-87,72-93c61-5,103-16,103-27
		c0-5,9-9,19-9c11,0,23-4,26-10c3-5,25-18,48-29c71-32,176-146,224-242c42-84,93-206,93-220c0-5,11-32,24-61c25-55,70-177,88-238
		c6-19,17-48,26-65c18-34,81-210,118-330c118-376,119-380,240-695c55-144,191-521,304-845c174-496,321-854,453-1105
		c95-179,133-258,207-430c69-161,167-428,172-467c3-25,0-28-27-26c-42,2-204,32-300,54c-98,23-468,139-475,149c-3,4-26,12-51,18
		c-26,6-91,30-145,53c-55,22-174,69-266,104c-239,92-353,144-475,218c-60,35-123,72-142,82c-19,9-39,21-45,26s-102,54-213,109
		c-121,60-261,140-350,198c-81,54-173,113-203,132c-30,18-77,50-105,72c-64,50-333,228-346,228c-5,0-9,4-9,10c0,5,7,7,15,4
		c9-4,58,15,111,42l96,48l76-80c109-114,386-343,526-435c116-77,279-150,500-226c86-29,231-53,277-47c53,8,117,43,141,77
		c36,50,32,150-10,245l-32,73l38-20c141-76,246-94,323-55c51,25,124,101,126,130c1,11,6,37,12,58c9,35,6,50-24,126
		c-53,138-83,189-150,256c-71,69-151,177-179,242c-15,32-25,42-42,42c-24,0-44-26-44-55c0-28,83-145,160-225c40-41,78-87,86-102
		c8-16,19-28,24-28c6,0,10-5,10-11s17-38,38-72c33-55,37-67,38-134l1-74l-44-45c-42-41-48-44-98-44c-78,0-210,55-296,124
		c-73,59-93,74-125,98c-17,13-71,65-120,117s-102,106-118,120c-15,14-47,45-70,69c-50,51-79,54-96,12c-11-26-10-33,5-50
		c10-11,23-20,30-20c6,0,44-37,84-81c40-45,96-101,124-124c82-67,224-232,259-300c36-71,55-171,42-220c-9-35-85-59-167-52
		c-97,8-155,25-366,105c-203,78-294,127-419,224c-48,37-121,93-162,124c-81,61-262,240-290,287c-17,28-17,31,5,80
		c32,70,48,169,40,242l-6,60l53-52c72-70,146-112,206-120c86-10,220,34,268,89c37,41,84,134,90,180c5,39-6,151-23,216
		c-4,19,10,11,79-41c98-74,155-93,253-84c112,11,243,107,292,214c25,53,25,61,19,176c-4,65-11,127-16,136s-21,53-35,98
		s-40,101-57,124c-39,54-118,245-158,385c-18,60-45,140-61,178c-16,37-29,74-29,82c0,17-51,19-68,2c-7-7-12-19-12-27
		c0-14,47-136,71-183c4-9,15-44,24-78c25-96,91-258,136-335c101-172,122-238,133-411c5-83,3-96-17-135c-13-24-43-59-68-77
		c-24-18-53-39-64-48c-86-65-236-30-349,83c-63,63-142,175-152,218c-4,17-19,55-35,86c-15,30-66,147-113,260
		c-124,297-154,363-170,373c-21,14-92-16-88-37c1-9,20-44,40-79c41-67,136-267,159-333c7-22,22-58,32-80s37-80,60-128
		c53-114,137-364,150-445c13-78,1-149-35-209c-21-36-38-50-89-74c-151-70-275-14-434,197c-79,104-357,672-420,856
		c-29,85-46,100-87,73c-19-12-23-21-18-38c3-12,12-27,19-32c6-6,16-21,20-35s20-52,35-85s36-80,46-105c46-115,107-243,203-420
		c34-63,65-126,68-140c3-13,14-38,24-55c10-16,22-48,27-70c6-22,18-69,27-105c12-45,16-83,11-125c-10-101-24-135-81-190
		c-123-120-223-125-349-16c-27,24-61,48-75,54c-39,17-185,151-228,210c-21,29-65,84-98,122c-33,39-83,102-109,140
		c-27,39-67,93-88,121c-58,78-210,386-250,509c-53,159-72,304-71,515c1,198,19,358,58,530c9,41,23,118,31,170s21,116,29,142
		s15,54,15,63c0,8,11,50,24,93c60,191,61,231,5,251c-42,14-125,133-149,213l-20,67l43,68c45,70,81,161,116,293c16,59,18,89,12,143
		c-4,38-4,70,1,73c4,3,8,13,8,23c0,9,6,25,13,34c11,16,18,15,106-14c86-28,107-31,230-33c129-1,139,0,195,27c32,15,63,27,68,27
		s18,9,30,20s27,20,34,20s34,26,61,59c45,54,82,118,128,226c20,45,47,174,40,186c-3,4-1,18,4,32c14,35-12,153-48,226
		c-17,33-57,91-89,128c-57,66-61,69-160,102c-90,30-109,33-179,29c-74-5-196-39-260-72c-76-39-169-129-214-206c-18-33-37-60-40-60
		s-23,15-45,33c-40,33-129,67-177,67c-34,0-34,7,3,56c16,21,30,44,30,50c0,12,143,152,210,206c78,62,208,117,400,168
		c83,22,154,28,290,26C5282,12144,5315,12140,5370,12121z M5080,11799c58-18,113-48,152-82c53-47,107-146,120-220c6-34,15-67,19-73
		c6-7,5-23-1-39s-13-53-16-84s-9-60-15-65c-5-6-9-19-9-30c0-28-77-163-119-209c-98-106-198-144-355-134c-50,3-98,8-106,10
		c-32,7-130,59-130,68c0,5-11,14-25,19c-24,9-25,13-19,47c15,81,19,152,13,253c-6,107-20,152-60,196c-19,20-19,21,1,39
		c11,10,20,24,20,31c0,17,36,79,73,126c36,45,85,78,158,108c30,12,63,26,74,31C4900,11810,5028,11814,5080,11799z M4305,11550
		c38-13,67-34,115-84c56-58,66-75,82-134c9-37,18-98,19-137c1-87-38-314-59-337c-8-10-12-18-8-18c14,0-28-65-72-110
		c-54-53-113-95-192-135c-30-15-58-32-61-37c-4-6-41-25-83-43c-88-39-119-60-190-132c-92-92-196-204-196-210c0-4-13-34-28-67
		c-16-34-37-80-47-103c-24-58-41-56-50,4c-2,16-18,66-36,113c-28,73-49,156-63,250c-13,82-30,255-30,315c0,73,27,235,49,295
		c23,60,80,184,100,215c37,59,198,221,229,231c11,4,40,21,65,38c58,40,135,73,192,82c24,4,49,10,54,14
		C4125,11583,4224,11578,4305,11550z M1730,10754c47-10,74-23,95-44c17-17,37-36,45-43c37-31,149-150,148-155c-1-4,8-26,20-50
		c13-24,20-51,17-61c-7-23,13-70,40-93c14-12,31-16,55-12c76,10,208,11,265,3c171-26,311-169,331-340c8-72-11-186-42-247
		c-13-26-24-56-24-67c0-25,40-69,82-91c36-19,43-24,109-83c106-95,156-280,114-424c-10-34-24-69-32-78c-7-8-13-21-13-28
		s-18-38-40-70c-22-31-40-64-40-73c0-22,35-46,78-54c36-7,102-65,102-90c0-8,6-25,13-37c44-72-13-268-106-364c-23-23-54-47-69-54
		c-15-6-28-15-28-20c0-17-23-9-46,17c-13,14-24,29-24,33c0,5-7,15-16,22c-9,8-27,30-39,49c-13,19-69,83-126,141
		c-57,59-117,125-132,148c-31,46-58,52-81,20c-21-31-3-72,53-116c69-55,217-207,248-256c33-51,130-148,198-199
		c104-77,349-231,447-282c106-54,323-182,352-207c9-8,22-19,29-24c7-6,58-38,115-70c57-33,145-88,195-122c301-203,511-337,566-363
		c14-6,52-35,85-64c73-63,112-90,123-83c8,5,110-159,168-267l23-44l-86-16c-196-35-333-101-458-219c-45-43-97-100-114-127
		c-18-28-35-50-39-50c-3,1-24,38-46,83c-42,85-93,181-158,295c-21,37-47,88-59,115c-13,30-28,49-42,52c-12,2-90,7-175,10
		c-178,6-372-17-526-61c-49-15-112-31-140-36c-27-5-81-15-120-23c-108-21-459-65-612-76c-76-5-207-21-293-35c-121-20-214-27-425-34
		c-148-5-281-12-295-15s-45-11-70-17c-55-14-70-24-70-51c0-46,62-75,90-42c27,32,106,44,342,50c128,4,267,13,308,20
		c41,8,111,17,155,20s89,8,101,10c17,4,27-6,53-55c34-65,40-125,20-189c-45-141-67-177-188-300c-71-72-98-92-147-110
		c-138-52-235-52-287,1c-45,44-72,52-96,27c-11-12-22-33-26-47c-12-47-106-143-200-204c-49-32-93-58-97-58c-8,0-88-34-120-51
		c-45-24-321,0-351,30c-6,6-18,11-26,11c-21,0-135,76-177,118c-70,70-119,186-109,256c6,36,3,50-19,85c-19,30-33,41-51,41
		c-16,0-25-6-25-15c0-26-39-16-80,21c-46,42-90,128-116,229c-15,57-19,108-19,270c1,183,2,205,24,264c34,98,81,157,131,167
		c17,3,50,41,50,58c0,6-9,25-19,43c-37,60-38,237-2,328c37,93,61,131,105,173c64,60,118,86,242,117c160,40,311,30,369-25
		c30-28,64-23,84,14c26,47,98,78,180,78c74,0,161-23,181-48c7-7,20-14,30-14s37-16,61-36c23-19,54-41,68-49c14-7,55-45,91-84
		c89-98,95-116,95-276c0-101-2-113-25-145c-31-44-57-68-81-75c-14-5-17-13-12-36c5-25,2-29-16-29c-12,0-29-4-39-9c-9-5-46-14-82-21
		c-89-16-174-55-166-76c3-8,6-22,6-29c0-8,9-19,19-25c16-8,35-3,93,24c81,38,215,73,311,82c34,3,130,19,212,34c144,27,478,68,730,90
		c275,24,458,64,513,113c24,22,29,67,12,112c-24,63-163,181-285,241c-33,17-93,54-133,82c-39,29-74,52-77,52c-2,0-21,11-42,25
		s-47,31-57,38c-11,6-38,29-61,49c-23,21-67,55-97,75c-101,69-221,220-330,417c-30,55-172,220-205,239c-18,11-43-9-43-34
		c0-11,28-45,61-77c60-55,149-166,149-185c0-11,118-183,167-244c39-49,40-53,10-53c-13,0-29-6-36-12c-8-9-55-13-164-12
		c-138,0-160,3-239,28c-73,23-97,37-148,83c-53,48-113,136-109,160c5,28-21,63-45,63c-8,0-24-16-37-35c-66-96-438-170-606-120
		c-56,17-139,83-163,131c-8,16-19,36-26,44c-41,55-60,171-41,247c7,27,11,55,9,62c-5,16-45,31-97,37c-22,3-44,9-50,13
		c-5,4-31,15-58,25c-66,25-127,90-180,193c-74,145-88,273-41,370c15,29,30,53,34,53s19,11,34,25l27,25l-20,39c-24,47-78,128-91,136
		c-5,3-19,36-31,73c-32,94-30,210,7,335c14,50,34,103,44,117s31,53,48,86c54,107,210,214,312,214c45,0,70,26,70,73
		c1,115,64,287,135,366c20,22,60,54,89,70c82,47,266,100,396,115C1499,10781,1661,10770,1730,10754z M4437,10601
		c-8-64-31-130-88-246c-42-86-56-105-97-133c-89-60-257-91-348-63c-16,5-48,14-71,20c-24,7-43,16-43,21s24,33,53,63
		c28,30,71,74,94,98c31,32,86,66,207,128c91,47,166,88,166,93c0,4,5,8,10,8c6,0,16,4,23,10c7,5,25,20,42,34
		C4427,10668,4444,10658,4437,10601z M4470,7869c0-29,211-350,315-478c103-128,118-144,290-314c136-135,172-163,385-308
		c129-88,262-180,295-205c33-24,78-54,100-65c22-12,116-71,209-131c94-60,250-150,348-199s178-95,178-102c0-8,10-23,23-35
		c12-11,31-38,42-59c10-21,24-45,30-53c41-55,91-214,168-530c47-190,88-367,91-395c4-27,13-84,21-125c81-424,104-688,104-1165
		c0-193,1-406,1-475c1-69-6-182-14-250c-9-69-23-222-31-340c-12-181-34-383-50-465c-2-11-8-47-14-80c-25-148-31-180-42-214
		c-24-80-148-311-234-436l-90-132v381c0,347-3,533-21,1191c-15,567-12,544-138,888c-20,54-43,140-52,190c-8,51-36,164-61,252
		s-65,234-88,325c-63,242-106,390-126,435c-10,22-25,65-33,95c-18,68-36,122-46,135c-5,6-13,30-20,55c-12,43-51,134-110,250
		c-15,30-37,87-50,125c-12,39-29,77-36,86c-8,8-14,22-14,29c0,8-10,24-22,37s-23,34-24,46c-2,48-17,133-24,142c-4,6-10,29-14,53
		c-7,45-30,94-107,221c-47,78-109,131-217,185c-63,32-189,66-244,66c-29,0-38,4-38,18c0,9-19,37-43,62c-77,81-258,371-313,500
		c-16,36-31,67-35,70c-10,8-115,240-128,285c-7,22-16,49-20,60c-41,99-91,256-91,282c0,11-9,46-20,79c-14,43-16,54-5,40
		C4463,7885,4470,7873,4470,7869z M5167,6430c46-7,103-23,138-39c33-15,76-34,95-42c49-19,131-105,173-180c42-76,74-182,80-262
		c5-73-4-81-69-61c-32,10-114,17-235,21l-185,6l-179-43c-323-77-572-186-688-302c-24-24-32-23-45,6c-28,62-22,232,11,291
		c6,11,12,22,12,25c49,208,198,404,369,484C4840,6426,4988,6453,5167,6430z M6830,5940c74-44,396-183,675-290c105-41,193-76,197-80
		c12-9,59-200,74-300c17-123,17-223-2-450c-8-102-17-212-20-245c-9-128-48-362-86-515c-6-25-14-70-19-100c-13-95-76-329-134-500
		c-31-91-74-226-96-300c-23-74-44-137-48-140c-5-3-29-59-56-125c-26-66-56-135-66-154c-11-18-49-113-85-210c-78-209-85-223-79-156
		c3,28,12,158,20,290c9,132,20,287,25,345c13,138,13,1023,0,1170c-32,371-107,812-204,1200c-76,301-122,465-137,485
		c-4,6-19,36-33,69C6726,6002,6727,6002,6830,5940z M5441,5796c74-8,148-18,165-22c44-10,143-87,144-110c0-6,6-17,14-23
		c8-7,17-24,21-39c8-34,45-118,90-203c19-37,35-75,35-86c0-10,4-23,9-28c4-6,18-41,31-80c12-38,26-79,31-90c55-134,100-263,114-334
		c4-18,20-65,36-104c17-39,34-103,40-141c5-38,34-151,63-250c30-100,63-229,75-288c27-129,46-198,100-348c83-231,87-264,102-915
		c6-253,14-575,18-715c3-140,5-257,3-260s-8,3-13,12s-46,35-92,58c-45,23-91,49-102,59c-11,11-31,22-45,26c-30,9-163,75-170,84
		c-3,4-25,13-50,20s-66,24-93,37c-62,32-229,55-409,56l-137,1l-48,36c-47,34-49,38-50,86c-1,68-18,172-36,220c-8,22-26,108-41,190
		c-15,83-33,179-41,215s-24,124-35,195c-11,72-47,252-80,400c-32,149-66,308-75,354s-39,163-66,260s-65,262-85,366
		c-19,105-48,249-64,320c-16,72-41,204-55,295c-46,290-84,418-152,509c-18,24-33,47-33,51c0,12,155,75,279,114c122,38,242,65,346,76
		C5291,5811,5295,5811,5441,5796z"/>
	<path d="M4854,11669c-22-11-62-42-90-70l-49-50v-109c0-74,4-113,13-122c6-6,12-20,12-30c0-22,34-73,70-105c58-53,177-69,236-32
		c62,38,119,138,129,225c13,118,4,178-34,241c-32,51-59,63-157,68C4910,11688,4888,11685,4854,11669z M5054,11604c9-3,16-12,16-20
		s3-14,8-14c20,0,29-93,16-171c-18-112-30-144-69-173c-51-39-102-36-157,10c-63,53-81,94-82,184c-2,140,42,187,174,189
		C5003,11610,5045,11607,5054,11604z"/>
	<path d="M4872,11480c-23-30-26-45-24-93c2-35,39-55,71-37c29,15,61,68,61,102c0,30-32,58-65,58C4903,11510,4884,11497,4872,11480z"
		/>
</g>
</svg>
