<?xml version="1.0" encoding="utf-8"?>
<!-- Generator: Adobe Illustrator 17.0.0, SVG Export Plug-In . SVG Version: 6.00 Build 0)  -->
<!DOCTYPE svg PUBLIC "-//W3C//DTD SVG 1.1//EN" "http://www.w3.org/Graphics/SVG/1.1/DTD/svg11.dtd" [
	<!ENTITY ns_flows "http://ns.adobe.com/Flows/1.0/">
	<!ENTITY ns_extend "http://ns.adobe.com/Extensibility/1.0/">
	<!ENTITY ns_ai "http://ns.adobe.com/AdobeIllustrator/10.0/">
	<!ENTITY ns_graphs "http://ns.adobe.com/Graphs/1.0/">
]>
<svg version="1.1" id="Layer_1" xmlns:x="&ns_extend;" xmlns:i="&ns_ai;" xmlns:graph="&ns_graphs;"
	 xmlns="http://www.w3.org/2000/svg" xmlns:xlink="http://www.w3.org/1999/xlink" xmlns:a="http://ns.adobe.com/AdobeSVGViewerExtensions/3.0/"
	 x="0px" y="0px" width="256px" height="256px" viewBox="0 0 256 256" style="enable-background:new 0 0 256 256;"
	 xml:space="preserve">
<g transform="translate(0.000000,1280.000000) scale(0.100000,-0.100000)">
	<path style="fill:none;stroke:#000000;stroke-width:3;stroke-miterlimit:10;" d="M2023.2,12730.6c-59-7-134-28.4-204.8-58.2
		c-53.8-22.8-139.5-67.5-199.6-104.3c-29-17.8-97.6-63.1-117-77.2c-7.2-5.3-21.8-15.9-32.2-23.5c-10.4-7.4-20.3-14.8-21.8-16.1
		c-1.5-1.3-7.2-5.7-12.5-9.5c-16.9-12.1-56.9-43.6-59.3-46.6c-2.1-2.5-6.6-3-20.9-3c-36-0.2-66.2-10.2-102.6-34.7
		c-30-20.1-67.1-57.8-87-88.5c-13.7-20.9-22.8-31.5-35.3-40.8c-27.5-20.5-65.6-56.5-87.2-82.5c-8-9.5-22.8-30.9-31.3-45.3
		c-5.5-9.5-22.8-48.3-22.8-51.4c0-0.9-0.8-3.8-1.9-6.4c-1.5-4.4-2.3-4.6-7.2-2.8c-4.6,1.5-5.9,3.4-7.8,11.8
		c-3.4,15.2-7.6,20.7-17.4,23.1c-5.7,1.5-8.3,3-8.2,5.1c0.2,1.7,4.4,9.1,9.5,16.7c12.9,19.3,16.9,40.4,8.7,46.8
		c-2.5,2.1-2.5,3.6-0.4,11.2c4.7,16.9,1.9,34.3-5.9,36.2c-2.7,0.8-3.4,1.9-2.3,4.2c2.5,5.3,2.8,36.2,0.6,42.1
		c-3.8,9.1-7,10.4-13.3,5.7c-5.5-4-5.7-4-5.7-0.4c0,2.1,0.9,8.2,2.1,13.7c2.3,10.8,0,30.9-5.3,47.8c-3.2,9.9-6.3,11.8-6.3,3.8
		c0-5.7-8-34.7-9.5-34.7c-0.6,0-3.4,5.5-6.3,12.1c-5.3,11.8-5.3,11.9-3,28.8c1.3,9.7,1.7,25.2,1.1,36.2c-0.9,16.5-2.1,21.4-6.8,31.7
		c-6.8,14-10.4,17.8-14,14.6c-3.8-3-5.1-0.6-5.1,10c0,5.3-1.7,15.9-3.6,23.3c-3.8,14.6-14.8,39.8-16.5,37.9
		c-0.9-0.9-4.4-15.5-9.3-41.1c-5.3-27.1-20.3-78.3-33.6-114.7c-17.8-49.1-18.8-50.8-28.3-60.9c-8-8.5-16.3-22.8-19.5-33.4
		c-0.9-3.2-1.3-3.2-6.6,0c-5.5,3-5.7,3-10.6-1.5c-5.1-4.7-12.7-19.3-15-28.4c-0.6-2.7-2.1-25.2-3-50.4c-2.5-52.3,0.2-89.7,8.3-117
		c2.5-8.5,5.9-25.8,7.8-38.3c1.7-12.5,4.6-27.5,6.3-33.2c2.7-8.9,3.2-20.9,3.2-78.7c0-65.2-0.4-69.6-5.1-99.5
		c-2.8-17.3-6.4-35.1-7.8-39.8l-2.7-8.5l-11.8-0.6c-6.8-0.4-11.6,0.2-11.6,1.3c0,2.3-11.9,5.9-19.9,5.9c-4.2,0-4.9,0.6-2.8,1.9
		c2.1,1.3,1.7,2.1-2.5,3.6c-3,1.1-7.2,2.1-9.5,2.1c-4.2,0-11.8,3.6-8,3.8c1.1,0,0.6,0.9-0.9,1.9c-1.5,0.9-6.8,1.9-11.6,1.9
		c-4.7,0-10.2,1.3-12.3,2.8c-1.9,1.5-6.8,2.8-10.6,2.8c-5.1,0-7.2,0.8-7.2,2.8s-2.1,2.8-8.2,2.8c-4.4,0-9.9,1.3-12.1,2.8
		c-2.1,1.5-7.4,3.2-11.8,4c-4.4,0.8-11.2,2.8-15,4.7c-3.8,2.1-8.9,3.6-11.4,3.6s-4,0.8-3.4,1.7c1.3,1.9-6.1,2.8-45.3,5.7
		c-14.6,1.1-30.1,3-34.7,4.2c-5.5,1.5-16.5,1.9-33.2,1.1c-28.1-1.3-28.6-1.5-82.7-26.7c-2.5-1.1-10.4-7.8-17.4-14.8
		c-10.4-10.4-14.8-16.5-22.4-32.2c-14.8-31.1-16.1-38.3-8.9-53.5l4.7-9.9l-3.8-11.2c-11-33.4-8.9-88.7,4.2-113.2
		c14.2-26.7,29.2-44.4,48.7-57.1c16.7-11,47.8-23.5,47.8-19.3c0,0.6-2.3,4.6-4.9,8.9c-6.1,9.5-15.9,30.1-15.9,33
		c0,1.5,6.8,1.9,24.3,1.1c41.3-1.5,53.7,1.1,88.4,19.9c2.8,1.7,10.8,3.4,17.4,4c12.1,0.9,12.1,0.9,20.7-7c11-10,29.2-21.8,53.5-34.1
		c16.7-8.5,20.9-11.6,28.8-21.6c11.6-14.6,41.3-43.6,55.4-54c8-6.1,12.1-11,17.6-21.4c8.7-17.1,33.9-55,48.2-72.8
		c5.9-7.2,21.4-24.3,34.5-37.9c22.2-22.8,25-26.4,36.4-48.3c11-21,27.5-57.3,33.4-73c6.3-17.1,13.7-46.6,15.7-63.1
		c2.7-20.5,1.7-26.2-3.6-24.1c-1.7,0.8-7,1.9-11.8,2.3c-7.4,0.8-9.7,0.2-14.6-4c-4.4-3.6-8-4.9-14-4.9c-4.7,0-10.8-1.5-14.2-3.6
		c-11.9-7.4-37.5-42.1-44.6-60.7c-4.7-12.9-5.7-30.5-1.7-35.3c6.3-7.6,26.7-11.4,32-6.1c1.9,1.9,2.7,1.5,4.4-1.5
		c4-6.8,10.8-12.3,15.4-12.3c10.2,0,32.6,15.5,38.5,26.9c4,7.8,3.4,8-5.3,1.7c-10.8-8-12.3-5.9-9.5,11.6c2.7,15.4,14,40.4,19.7,43.4
		c1.9,1.1,5.9,1.7,8.7,1.3c5.9-0.6,5.9-1.7,2.7-33.4c-1.9-18-3.6-22.2-12.7-31.3c-13.5-13.3,6.8-6.4,21.6,7.4
		c6.1,5.7,11.6,10.2,12.1,10.2c0.4,0,1.5-4.4,2.1-9.9c0.8-5.3,2.3-11.4,3.2-13.3c4-7.4,20.9-11.9,31.3-8.5c3.2,1.1,4.4,0,7.2-6.3
		c3.8-8.9,7.4-11.2,19.7-12.7c8.9-0.9,9.3-0.8,23.1,10.8c7.8,6.4,18.4,13.7,23.7,15.9c11.8,5.3,37.7,27.9,41,35.8
		c2.1,4.7,1.9,8.5-0.9,22.2l-3.4,16.7l13.1,18c7.2,9.9,16.9,25.2,21.4,34.1c6.6,13.1,8.7,15.9,10.8,14.2
		c5.7-4.7,29.6-36.4,48.3-64.1c34.5-50.6,45.7-69.6,72.6-122.3c14.4-28.1,27.7-53.3,29.4-55.9c1.9-2.7,6.1-10.2,9.5-17.1
		c17.4-34.5,55.9-98.8,84.2-140.1c7.4-10.8,14.4-21,15.4-22.8c1.1-1.5,5.1-8,9.1-14c3.8-6.1,7-11.6,7-11.9
		c0-1.9,38.7-60.1,52.1-78.5c17.8-24.5,38.7-49.3,53.1-63.5c18.8-18.4,47-42.7,49.9-42.7c1.1,0,2.8,1.5,4,3.2
		c2.1,4-1.1,6.4,39.2-28.4c37.2-32,44.6-37.5,61.1-45.9c14-7,26.9-10.4,26.9-7.4c0,3.6-13.7,21.4-31.7,41.7
		c-38.1,42.5-69,82.5-100.7,130.1c-24.6,36.8-28.6,43.8-34.7,63.1c-3,9.3-6.4,19.5-7.4,22.6c-0.9,3-1.5,5.9-1.1,6.3
		c0.4,0.4,10.2-13.7,22-31.1c19.1-28.4,47-67.3,77.7-108.6c5.7-7.8,20.7-26.9,33.2-42.5s26.2-32.6,30.3-37.9
		c4-5.3,8.3-10.4,9.5-11.6c1.1-0.9,8.9-9.9,17.1-19.3c8.2-9.7,15.4-17.3,15.7-16.7c0.9,0.8-5.7,12.5-15.7,28.4
		c-14.4,22.8-40.8,65.6-40.8,66.5c0,0.4,20.7-19.9,46.1-45.5c58.4-58.8,90.1-84.2,126.5-101.4c8.9-4.2,18.2-8.2,20.9-8.7
		c3-0.9-17.6,21.2-57.8,61.8c-62.4,62.9-75.1,76.6-105.4,112.4c-22.2,26.2-59.3,73-68.1,85.7c-1.5,2.3-8.2,11.4-14.8,20.1
		c-32,42.3-61.8,86.5-105.6,157c-2.3,3.6-7.8,13.1-12.3,20.9c-4.6,7.8-10.8,18.6-13.8,23.7c-31.9,52.9-98,184.7-98,194.9
		c0,1.1-1.3,4.6-2.8,7.6c-1.3,2.8-6.6,14.4-11.6,25.6c-14.8,34.1-27.3,62.9-35.3,81.9c-8.2,19-11.4,26.7-19.1,43.6
		c-10.2,22.6-29.4,67.5-30.7,71.9c-1.1,4-0.9,4.4,2.1,3.2c22.2-8.9,38.7-8.9,38.7,0c0,1.3,0.9,4.7,1.9,7.6c1.9,4.7,2.3,4.9,5.5,1.9
		c9.1-8.2,41.3-16.9,55-15l6.4,1.1l-1.3,24.3c-1.1,21-0.9,24.6,1.5,25.6c1.5,0.6,9.5-0.9,17.6-3.6c20.3-6.4,35.3-9.1,37-6.4
		c0.8,1.1,0.8,13.5,0.2,27.1l-1.1,25l16.5-0.9l16.5-1.1l-1.3,29.2l-1.3,29.2l14-0.6l14-0.6l-0.6,27.5c-0.6,15.2,0,27.7,0.8,27.7
		c0.9-0.2,6.4-1.7,12.1-3.8c11.9-4.2,25.8-4.9,26.9-1.3c0.4,1.1,0,21.4-0.6,44.9c-0.9,37.7-1.5,44-5.3,53.8
		c-2.3,6.1-3.8,11.6-3.2,11.9c0.6,0.6,6.8-2.8,13.8-7.4c20.5-13.5,29.2-18,42.1-22.2c12.9-4.2,25.8-5.1,27.7-2.1
		c0.6,0.9-0.2,9.3-1.7,18.4c-1.5,9.1-3.4,23.5-4,31.9s-1.5,20.1-2.1,26l-0.9,11l5.3-2.1c2.8-0.9,9.5-4,14.6-6.6
		c18.4-9.3,54.2-16.1,54.2-10.2c0,1.1-1.7,9.5-3.6,18.6c-2.1,9.1-4,23.3-4.4,31.9l-0.6,15.2l19.5,2.1c10.8,1.1,20.1,2.7,20.7,3.2
		c0.6,0.6-0.4,7.8-2.1,15.7c-1.7,8.2-4.4,24.8-5.9,37c-1.3,12.1-4,24.8-5.7,28.1c-4.2,8.2-2.5,11.4,5.5,11.4c9.1,0,27.3,7,29.6,11.4
		c1.1,1.9,1.9,10,1.9,18c0,19.1-6.4,38.1-19.9,57.4c-9.7,14-45.1,50.6-60.1,61.8c-4,3-7.2,6.1-7.2,6.8s8.3-1.1,18.6-4
		c25.6-7.4,71.5-15,90.6-15c17.8,0,39.6,4.2,50.6,9.9c9.9,4.9,21.8,15.9,28.3,26c5.9,9.5,6.8,15.5,2.5,19.1c-1.5,1.3-2.8,3-2.8,3.8
		c0,0.9,5.5,4.6,12.1,8.3c14,8,32.2,23.7,36.4,31.9c4,7.8,2.3,11.2-11.9,24.3c-6.8,6.3-12.1,11.6-11.8,11.9
		c0.4,0.4,7.6,2.5,15.7,4.9c26,7.2,41.3,16.1,55.7,31.5c12.7,13.7,23.1,30.7,23.1,38.1c0,2.5-4.4,8.2-10.6,14
		c-11.8,11.2-11.8,10.8,4.4,17.1c28.3,10.6,59.3,36.4,71.7,59.3c5.5,10.4,5.5,10.6,1.9,14.6c-2.1,2.3-9.1,7-15.5,10.8
		c-6.6,3.6-11.9,7-11.9,7.4s8.7,5.1,19.5,10.4c25.8,12.9,47.6,27.5,62.4,42.1c11.9,11.6,24.3,26.7,24.3,30.1c0,7-66.2,18-119.8,19.9
		c-17.6,0.6-31.9,1.9-31.9,2.7c0,2.8,7.6,6.3,77.7,34.3c79.3,31.9,137.5,61.6,194.5,99.3c26,17.3,27.1,16.5-22.9,15.4
		c-40.6-0.8-98.6-6.1-120.4-10.8c-4.7-0.9-12.7-2.3-18-2.8l-9.5-0.9l13.3,6.6c7.4,3.6,17.1,8,21.8,9.7c15.2,5.9,61.2,28.3,80,39.1
		c25.4,14.8,52.7,35.6,66.2,50.8c11.6,12.9,22.6,28.1,22.6,31.1c0,1.5-45.3,0.2-59.7-2.1l-7.6-1.1l18.6,17.6
		c18.4,17.4,30.7,32.6,28.4,34.9c-1.9,1.9-70,1.3-87.8-0.8c-8.9-1.1-24.5-3.4-34.5-5.5c-10.2-1.9-18.6-2.8-18.6-1.9
		c0,0.8,5.3,4.6,11.9,8.5c12.3,7.4,37.9,24.8,46.5,31.7c8.7,6.8,45.9,44.6,45.9,46.5c0,2.5-6.1,3.8-27.9,6.1
		c-10.2,0.9-22.2,2.5-26.7,3l-8,1.1l8.7,10.4c5.3,6.3,8.2,11,7,12.1C2123.7,12733.2,2059.1,12734.8,2023.2,12730.6z M1003.4,11138.5
		c7-6.3,25-44.7,29.2-62.2c2.1-8.9,3.8-18.2,3.8-20.7c0-4.2-0.4-4.4-8-3.2c-22.9,3.8-23.5,3.6-32.4-1.7c-5.7-3.2-11.9-5.1-18-5.5
		c-5.1-0.2-11.6-1.7-14.2-3.6c-2.7-1.7-11.8-12.5-20.5-24.1c-8.5-11.4-16.3-20.9-17.1-20.9c-4.2,0-6.1,19-2.8,26.7
		c1.5,3.6,4.2,12.5,5.7,19.5c3.8,16.3,4.9,17.8,7.8,12.5c2.3-4.4,2.5-4.2,6.6,4.9c7.6,16.9,18.8,53.3,22,71.3
		c1.5,9.7,3.2,18.6,3.6,19.9C970,11154.5,997.3,11144,1003.4,11138.5z M1033.3,11009.2c0.8-3.6-0.2-11.9-1.9-19.3
		c-1.5-7.2-2.5-16.1-1.9-19.9c0.8-4.4,0.2-8-1.7-10.4c-2.7-3.4-2.7-3.4-2.8,1.1c-0.2,4.7-0.2,4.7-6.1-1.9
		c-11.2-12.3-22.4-17.1-25-10.2c-1.7,4.4,1.9,17.8,10.4,39.6c8.9,22.8,12.7,27.5,21.4,27.5
		C1031.4,11015.7,1032.2,11015.1,1033.3,11009.2z"/>
</g>
</svg>
