<?xml version="1.0" encoding="utf-8"?>
<!-- Generator: Adobe Illustrator 17.0.0, SVG Export Plug-In . SVG Version: 6.00 Build 0)  -->
<!DOCTYPE svg PUBLIC "-//W3C//DTD SVG 1.1//EN" "http://www.w3.org/Graphics/SVG/1.1/DTD/svg11.dtd" [
	<!ENTITY ns_flows "http://ns.adobe.com/Flows/1.0/">
	<!ENTITY ns_extend "http://ns.adobe.com/Extensibility/1.0/">
	<!ENTITY ns_ai "http://ns.adobe.com/AdobeIllustrator/10.0/">
	<!ENTITY ns_graphs "http://ns.adobe.com/Graphs/1.0/">
]>
<svg version="1.1" id="Layer_1" xmlns:x="&ns_extend;" xmlns:i="&ns_ai;" xmlns:graph="&ns_graphs;"
	 xmlns="http://www.w3.org/2000/svg" xmlns:xlink="http://www.w3.org/1999/xlink" xmlns:a="http://ns.adobe.com/AdobeSVGViewerExtensions/3.0/"
	 x="0px" y="0px" width="256px" height="256px" viewBox="0 0 256 256" style="enable-background:new 0 0 256 256;"
	 xml:space="preserve">
<g transform="translate(0.000000,1280.000000) scale(0.100000,-0.100000)">
	<path style="fill:none;stroke:#000000;stroke-width:3;stroke-miterlimit:10;" d="M985.8,12636.4c-2.8-0.3-11.5-1.6-19.2-2.6
		c-21.3-2.8-65.5-13.1-90.8-21.1c-37.5-11.7-62.5-26.4-73.9-43.1c-7.3-10.7-9.3-25.1-5.1-37.4c2.8-8.6,14.1-26.2,20.3-31.6
		c1.9-1.9,3.7-4,3.7-4.9c0-1-3.8-6.1-8.6-11.3c-10.8-12.2-22.2-34.7-24.6-48.9c-1.4-8.4-1.2-13.4,0.9-23.6c5.6-27.4,21-48.4,67.2-92
		c16.8-15.7,37.2-35.1,45.4-42.8l14.8-14.1l0.5-14.8c2.3-74.2,25.1-181.6,47.5-222.6c6.5-11.9,6.6-12.6,4.2-18.3
		c-8.9-21.1-17.1-64.4-19.9-104.6c-5.1-76.8,13.6-168,54.1-263.8c26.9-63.7,81.2-158.9,126.2-220.9c33-45.4,56.6-76.1,92.7-120.5
		c8.6-10.3,30-35.1,46.3-53.3c6.5-7.2,16.9-19,23-26.2c6.1-7.2,30-32,53.1-55c61.3-61.3,71.9-78.1,98.7-155.9
		c14.1-41.6,23.4-66.7,36.3-99.9c30.4-78.2,46.1-119.4,55.4-145.8c27.9-79.1,37.5-103.7,50.1-129.2c10-19.7,19.2-33.4,23.9-34.9
		c2.3-0.7,3.7-3.8,4.9-11c18.9-108.8,31.6-148.4,54.5-170.2c14.8-14.1,29.3-17.1,43.1-9.1c14.5,8.6,21.7,29.7,21.7,64.3
		c0,21.1,0,20.1-15.5,138.3c-6.6,51-16.2,123.6-21,161.5c-4.9,37.9-9.3,71.1-9.8,73.7c-1,6.1,1.9,7.9,4.5,2.8
		c4.9-9.1,31.8-34.2,51.7-48.2c8.6-6.1,19-9.3,24.1-7.3c7.2,2.8,8.4,9.1,5.4,27.1c-8.2,47.7-18,156.6-24.6,272.4
		c-1.4,25-3,52-3.5,59.9c-0.9,12.6-0.7,15,1.9,16.9c3.3,2.3,3.5-4.7-3.8,109.1c-1.2,21.7-3.1,54.7-4.2,73.3
		c-0.9,18.7-3.5,66.7-5.9,106.5c-5.6,93.4-5.6,94.3-3,96c1.9,1,1.7,9.6-0.5,44.7c-1.6,23.9-4.4,72.6-6.3,108.1
		c-6.8,124.5-12.4,182.8-24.6,254.1c-6.6,39.3-11.5,58.3-21.7,86.4c-36.3,100.1-124.7,210.1-246.4,307.5
		c-42.8,34.2-98.8,72.1-107,72.3c-1.6,0.2-7.7,8.2-14,18.5c-27.1,44.2-69.8,94.5-103.7,121.7c-42.3,34-85.9,55-136.7,65.8
		C1050.9,12635.7,999.7,12638.3,985.8,12636.4z M912.4,12323c8.2-3.7,8.2-3.8,7.2-10c-0.7-3.7-1.9-11-2.6-16.4
		c-0.7-5.6-1.7-10.5-2.3-11c-1.9-1.9-11.9,26.7-11.9,34c0,3.8,0.3,7,0.7,7C903.9,12326.6,907.9,12325.1,912.4,12323z"/>
</g>
</svg>
