<?xml version="1.0" encoding="utf-8"?>
<!-- Generator: Adobe Illustrator 23.0.0, SVG Export Plug-In . SVG Version: 6.00 Build 0)  -->
<svg version="1.1" id="Layer_1" xmlns="http://www.w3.org/2000/svg" xmlns:xlink="http://www.w3.org/1999/xlink" x="0px" y="0px"
	 viewBox="0 0 256 256" style="enable-background:new 0 0 256 256;" xml:space="preserve">
<g id="XMLID_2354_">
	
		<path id="XMLID_2229_" style="fill:#FFFFFF;stroke:#886B31;stroke-width:5;stroke-linecap:round;stroke-linejoin:round;stroke-miterlimit:10;" d="
		M108.6,206.1C92.7,150.8,89.2,89.4,89.2,31.6c38.5,47,80.5,133.7,31,187.8C113.5,217.6,108.6,206.1,108.6,206.1z"/>
	
		<path id="XMLID_2318_" style="fill:#FFFFFF;stroke:#886B31;stroke-width:5;stroke-linecap:round;stroke-linejoin:round;stroke-miterlimit:10;" d="
		M116.7,219.9c10.9-33,21.4-61.9,30.9-95.8c3.7-12.3,7.3-24.8,10.4-36.7c3.1-11.9,5.8-23.3,7.6-33.5c0,0,8.2,20.1,11.4,48.7
		c1.1,9.5,1.6,20,1.1,31c-1.5,17.2-5,35.3-13.2,55.1c-2.9,7.2-6.1,14.4-9.9,21c-7.6,13.1-17.4,23.7-32,26.8
		C117.5,232.5,116.7,219.9,116.7,219.9z"/>
	
		<path id="XMLID_2303_" style="fill:#FFD060;stroke:#886B31;stroke-width:5;stroke-linecap:round;stroke-linejoin:round;stroke-miterlimit:10;" d="
		M117.1,180c-3.5,14.2-14,21.4-24.5,10.5c-3.5-7.2-3.5-21.7,12.6-22.6C111.7,168.1,117,170,117.1,180z"/>
	
		<path id="XMLID_2302_" style="fill:#FFD060;stroke:#886B31;stroke-width:5;stroke-linecap:round;stroke-linejoin:round;stroke-miterlimit:10;" d="
		M116.8,160.5c-3.2,12-10.2,15.6-17.2,12c-10.5-3.6-7-25.3,6.1-23.7C111.8,148.8,116.7,150.8,116.8,160.5z"/>
	
		<path id="XMLID_2301_" style="fill:#FFD060;stroke:#886B31;stroke-width:5;stroke-linecap:round;stroke-linejoin:round;stroke-miterlimit:10;" d="
		M116.5,141.9c-2.8,12.5-9.8,16.1-16.8,12.5c-7-3.6-3.5-25.3,6.4-23.3C111.7,131.3,116.3,133,116.5,141.9z"/>
	
		<path id="XMLID_2300_" style="fill:#FFD060;stroke:#886B31;stroke-width:5;stroke-linecap:round;stroke-linejoin:round;stroke-miterlimit:10;" d="
		M116.1,125.3c0.2,9-4.4,10-10.2,9.9c-5.7-0.1-10.4-0.2-9.9-10.2c0.4-8.2,4.8-9.2,10.1-9.1C111.6,115.9,115.9,117.5,116.1,125.3z"/>
	
		<path id="XMLID_2299_" style="fill:#FFD060;stroke:#886B31;stroke-width:5;stroke-linecap:round;stroke-linejoin:round;stroke-miterlimit:10;" d="
		M115.7,109.2c1.4,12.7-9.1,9.1-16.1,9.1c0-7.2-10.5-18.1,6.8-18.8C111.5,99.6,115.6,101.1,115.7,109.2z"/>
	
		<path id="XMLID_2298_" style="fill:#FFD060;stroke:#886B31;stroke-width:5;stroke-linecap:round;stroke-linejoin:round;stroke-miterlimit:10;" d="
		M115.4,94.7c0.1,7.3-4,8.1-9,8c-5.1-0.1-9.1-0.2-8.7-8.3c0.4-6.6,4.2-7.5,9-7.4C111.4,87.1,115.3,88.4,115.4,94.7z"/>
	
		<path id="XMLID_2297_" style="fill:#FFD060;stroke:#886B31;stroke-width:5;stroke-linecap:round;stroke-linejoin:round;stroke-miterlimit:10;" d="
		M115.3,82.8c1.9,13.8-12.1,2.9-15.6,6.6c0-7.2-3.5-14.5,7.4-13.4C111.5,76,115.2,77.2,115.3,82.8z"/>
	
		<path id="XMLID_2296_" style="fill:#FFD060;stroke:#886B31;stroke-width:5;stroke-linecap:round;stroke-linejoin:round;stroke-miterlimit:10;" d="
		M115.3,72.9c1.9,9.3-8.6,5.6-12.1,5.6c-3.5-3.6-7-10.8,4.6-12.4C111.9,66.3,115.2,67.4,115.3,72.9z"/>
	
		<path id="XMLID_2295_" style="fill:#FFD060;stroke:#886B31;stroke-width:5;stroke-linecap:round;stroke-linejoin:round;stroke-miterlimit:10;" d="
		M115.2,62.2c1.9,9.1-8.6,5.5-12.1,5.5c-3.5-3.6-7-10.8,5-11.7C112.1,56,115.2,57.1,115.2,62.2z"/>
	
		<path id="XMLID_2294_" style="fill:#FFD060;stroke:#886B31;stroke-width:5;stroke-linecap:round;stroke-linejoin:round;stroke-miterlimit:10;" d="
		M116.3,52.5c-2.6,8-9.6,4.4-13.1,4.4c0-7.2,3.5-7.2,6.4-9.8C113.3,47.2,116.3,48.1,116.3,52.5z"/>
	
		<path id="XMLID_2293_" style="fill:#FFD060;stroke:#886B31;stroke-width:5;stroke-linecap:round;stroke-linejoin:round;stroke-miterlimit:10;" d="
		M116.2,43.5c0,5.2-3,5.8-6.7,5.7c-3.7-0.1-6.8-0.1-6.3-5.9c0.4-4.8,3.2-5.4,6.7-5.3C113.4,38,116.2,38.9,116.2,43.5z"/>
	
		<path id="XMLID_2292_" style="fill:#FFD060;stroke:#886B31;stroke-width:5;stroke-linecap:round;stroke-linejoin:round;stroke-miterlimit:10;" d="
		M116.4,36.2c0,4.5-2.9,4.9-6.4,4.9c-3.5-0.1-6.4-0.1-6-5.1c0.3-4.1,3.1-4.6,6.4-4.6C113.7,31.5,116.4,32.3,116.4,36.2z"/>
	
		<path id="XMLID_2304_" style="fill:#FFD060;stroke:#886B31;stroke-width:5;stroke-linecap:round;stroke-linejoin:round;stroke-miterlimit:10;" d="
		M118.2,29.1c0.1,4.7-3,5.2-6.8,5.2c-3.8-0.1-6.8-0.1-6.5-5.4c0.3-4.4,3.2-5,6.8-4.9C115.3,24.1,118.2,24.9,118.2,29.1z"/>
	
		<path id="XMLID_2291_" style="fill:#FFD060;stroke:#886B31;stroke-width:5;stroke-linecap:round;stroke-linejoin:round;stroke-miterlimit:10;" d="
		M175.1,180.3c1.3,11.6-4.7,13-12.2,13c-7.5,0-13.6,0-13.8-13.1c-0.2-10.5,5.3-11.9,12.2-11.9C168.2,168.4,174,170.3,175.1,180.3z"
		/>
	
		<path id="XMLID_2290_" style="fill:#FFD060;stroke:#886B31;stroke-width:5;stroke-linecap:round;stroke-linejoin:round;stroke-miterlimit:10;" d="
		M173,160.8c1.2,11.4-4.3,12.7-11.3,12.7c-7,0-12.6-0.1-12.9-12.8c-0.2-10.3,4.9-11.6,11.3-11.6C166.5,149.1,171.9,151,173,160.8z"
		/>
	
		<path id="XMLID_2289_" style="fill:#FFD060;stroke:#886B31;stroke-width:5;stroke-linecap:round;stroke-linejoin:round;stroke-miterlimit:10;" d="
		M170.9,142.1c1.1,10.3-4,11.5-10.5,11.5c-6.5,0-11.7-0.1-12-11.7c-0.2-9.4,4.6-10.6,10.6-10.5C165,131.5,170,133.2,170.9,142.1z"/>
	
		<path id="XMLID_2288_" style="fill:#FFD060;stroke:#886B31;stroke-width:5;stroke-linecap:round;stroke-linejoin:round;stroke-miterlimit:10;" d="
		M169.1,125.4c1,9-3.8,10.1-9.9,10c-6.1,0-10.9-0.1-11.2-10.2c-0.2-8.2,4.3-9.3,9.9-9.2C163.6,116.1,168.3,117.6,169.1,125.4z"/>
	
		<path id="XMLID_2287_" style="fill:#FFD060;stroke:#886B31;stroke-width:5;stroke-linecap:round;stroke-linejoin:round;stroke-miterlimit:10;" d="
		M167.4,109.3c1,9.3-3.5,10.4-9.2,10.4c-5.7-0.1-10.3-0.1-10.5-10.6c-0.2-8.4,4-9.5,9.2-9.5C162.2,99.7,166.5,101.2,167.4,109.3z"/>
	
		<path id="XMLID_2286_" style="fill:#FFD060;stroke:#886B31;stroke-width:5;stroke-linecap:round;stroke-linejoin:round;stroke-miterlimit:10;" d="
		M165.8,94.8c0.8,7.3-3.4,8.1-8.6,8.1c-5.3-0.1-9.5-0.1-9.7-8.3c-0.1-6.7,3.8-7.5,8.7-7.5C161.1,87.2,165.1,88.4,165.8,94.8z"/>
	
		<path id="XMLID_2285_" style="fill:#FFD060;stroke:#886B31;stroke-width:5;stroke-linecap:round;stroke-linejoin:round;stroke-miterlimit:10;" d="
		M164.6,82.9c0.7,6.5-3.2,7.2-8.2,7.2c-4.9-0.1-8.9-0.1-9.1-7.4c-0.1-6,3.6-6.7,8.2-6.7C160.2,76.1,164,77.2,164.6,82.9z"/>
	
		<path id="XMLID_2284_" style="fill:#FFD060;stroke:#886B31;stroke-width:5;stroke-linecap:round;stroke-linejoin:round;stroke-miterlimit:10;" d="
		M163.7,72.9c0.7,6.3-2.9,7.1-7.3,7c-4.5-0.1-8.1-0.1-8.3-7.2c-0.1-5.8,3.2-6.6,7.4-6.5C159.6,66.3,163.1,67.4,163.7,72.9z"/>
	
		<path id="XMLID_2283_" style="fill:#FFD060;stroke:#886B31;stroke-width:5;stroke-linecap:round;stroke-linejoin:round;stroke-miterlimit:10;" d="
		M162.5,62.2c0.6,5.9-2.7,6.5-6.9,6.5c-4.2-0.1-7.6-0.1-7.8-6.7c-0.1-5.4,3-6.1,7-6C158.7,56,162,57.1,162.5,62.2z"/>
	
		<path id="XMLID_2282_" style="fill:#FFD060;stroke:#886B31;stroke-width:5;stroke-linecap:round;stroke-linejoin:round;stroke-miterlimit:10;" d="
		M162.6,52.5c0.6,5-2.6,5.6-6.5,5.5c-4-0.1-7.2-0.1-7.3-5.7c-0.1-4.6,2.9-5.2,6.6-5.2C159,47.2,162.1,48.1,162.6,52.5z"/>
	
		<path id="XMLID_2281_" style="fill:#FFD060;stroke:#886B31;stroke-width:5;stroke-linecap:round;stroke-linejoin:round;stroke-miterlimit:10;" d="
		M161.6,43.5c0.6,5.2-2.4,5.8-6.1,5.7c-3.7-0.1-6.8-0.1-6.9-5.9c-0.1-4.8,2.7-5.4,6.2-5.3C158.2,38,161.1,38.9,161.6,43.5z"/>
	
		<path id="XMLID_2280_" style="fill:#FFD060;stroke:#886B31;stroke-width:5;stroke-linecap:round;stroke-linejoin:round;stroke-miterlimit:10;" d="
		M161,36.2c0.5,4.5-2.3,4.9-5.9,4.9c-3.6-0.1-6.4-0.1-6.6-5.1c-0.1-4.1,2.6-4.6,5.9-4.6C157.8,31.5,160.5,32.3,161,36.2z"/>
	
		<path id="XMLID_2308_" style="fill:#FFD060;stroke:#886B31;stroke-width:5;stroke-linecap:round;stroke-linejoin:round;stroke-miterlimit:10;" d="
		M160.1,27.8c0.5,4.7-2.5,5.2-6.3,5.2c-3.8-0.1-6.9-0.1-7-5.4c-0.1-4.4,2.8-5,6.3-4.9C156.7,22.7,159.7,23.6,160.1,27.8z"/>
	
		<path id="XMLID_2267_" style="fill:#FFD060;stroke:#886B31;stroke-width:5;stroke-linecap:round;stroke-linejoin:round;stroke-miterlimit:10;" d="
		M164.4,180.3c1.7,13.9-8.8,17.5-19.3,13.9s-10.5-28.9,5.8-25.9C157.8,168.4,163.5,170.3,164.4,180.3z"/>
	
		<path id="XMLID_2266_" style="fill:#FFD060;stroke:#886B31;stroke-width:5;stroke-linecap:round;stroke-linejoin:round;stroke-miterlimit:10;" d="
		M162.6,160.8c3.6,15.3-10.4,11.7-17.4,11.7c-10.5-3.6-10.5-21.7,4.9-23.5C156.4,149.1,161.7,151,162.6,160.8z"/>
	
		<path id="XMLID_2265_" style="fill:#FFD060;stroke:#886B31;stroke-width:5;stroke-linecap:round;stroke-linejoin:round;stroke-miterlimit:10;" d="
		M160.9,142.1c-1.8,12.3-8.8,15.9-15.8,12.3c-7-3.6-14-21.7,4.1-23C155.1,131.5,160.1,133.2,160.9,142.1z"/>
	
		<path id="XMLID_2264_" style="fill:#FFD060;stroke:#886B31;stroke-width:5;stroke-linecap:round;stroke-linejoin:round;stroke-miterlimit:10;" d="
		M159.4,125.4c0.8,9-4,10.1-10,10c-6-0.1-10.8-0.1-10.9-10.2c-0.1-8.2,4.4-9.3,10-9.2C154.1,116.1,158.7,117.6,159.4,125.4z"/>
	
		<path id="XMLID_2263_" style="fill:#FFD060;stroke:#886B31;stroke-width:5;stroke-linecap:round;stroke-linejoin:round;stroke-miterlimit:10;" d="
		M158,109.3c-2.3,12.6-9.3,9-16.3,9c0-7.2-10.5-18.1,6.1-18.7C152.9,99.7,157.3,101.2,158,109.3z"/>
	
		<path id="XMLID_2262_" style="fill:#FFD060;stroke:#886B31;stroke-width:5;stroke-linecap:round;stroke-linejoin:round;stroke-miterlimit:10;" d="
		M156.7,94.8c0.6,7.3-3.5,8.1-8.8,8.1c-5.3-0.1-9.5-0.1-9.5-8.3c0-6.7,3.9-7.5,8.8-7.5C152.1,87.2,156.1,88.4,156.7,94.8z"/>
	
		<path id="XMLID_2261_" style="fill:#FFD060;stroke:#886B31;stroke-width:5;stroke-linecap:round;stroke-linejoin:round;stroke-miterlimit:10;" d="
		M155.7,82.9c0.6,6.5-3.4,7.2-8.3,7.2c-4.9-0.1-8.9-0.1-8.9-7.4c0-6,3.7-6.7,8.3-6.7C151.4,76.1,155.2,77.2,155.7,82.9z"/>
	
		<path id="XMLID_2260_" style="fill:#FFD060;stroke:#886B31;stroke-width:5;stroke-linecap:round;stroke-linejoin:round;stroke-miterlimit:10;" d="
		M155,72.9c0.5,6.3-3,7.1-7.5,7c-4.5-0.1-8.1-0.1-8.1-7.2c0-5.8,3.3-6.6,7.5-6.5C151,66.3,154.5,67.4,155,72.9z"/>
	
		<path id="XMLID_2259_" style="fill:#FFD060;stroke:#886B31;stroke-width:5;stroke-linecap:round;stroke-linejoin:round;stroke-miterlimit:10;" d="
		M154,62.2c0.5,5.9-2.8,6.5-7,6.5c-4.2-0.1-7.6-0.1-7.6-6.7c0-5.4,3.2-6.1,7.1-6C150.3,56,153.6,57.1,154,62.2z"/>
	
		<path id="XMLID_2258_" style="fill:#FFD060;stroke:#886B31;stroke-width:5;stroke-linecap:round;stroke-linejoin:round;stroke-miterlimit:10;" d="
		M154.2,52.5c0.5,5-2.7,5.6-6.6,5.5c-4-0.1-7.2-0.1-7.2-5.7c0-4.6,3-5.2,6.7-5.2C150.8,47.2,153.8,48.1,154.2,52.5z"/>
	
		<path id="XMLID_2257_" style="fill:#FFD060;stroke:#886B31;stroke-width:5;stroke-linecap:round;stroke-linejoin:round;stroke-miterlimit:10;" d="
		M153.4,43.5c0.5,5.2-2.5,5.8-6.2,5.7c-3.7-0.1-6.8-0.1-6.8-5.9c0-4.8,2.8-5.4,6.3-5.3C150.1,38,153,38.9,153.4,43.5z"/>
	
		<path id="XMLID_2256_" style="fill:#FFD060;stroke:#886B31;stroke-width:5;stroke-linecap:round;stroke-linejoin:round;stroke-miterlimit:10;" d="
		M152.9,36.2c0.4,4.5-2.4,4.9-6,4.9c-3.5-0.1-6.4-0.1-6.5-5.1c0-4.1,2.7-4.6,6-4.6C149.8,31.5,152.6,32.3,152.9,36.2z"/>
	
		<path id="XMLID_2307_" style="fill:#FFD060;stroke:#886B31;stroke-width:5;stroke-linecap:round;stroke-linejoin:round;stroke-miterlimit:10;" d="
		M152.2,27.8c0.4,4.7-2.6,5.2-6.4,5.2c-3.8-0.1-6.9-0.1-6.9-5.4c-0.1-4.4,2.8-5,6.4-4.9C148.9,22.7,151.9,23.6,152.2,27.8z"/>
	
		<path id="XMLID_2311_" style="fill:#FFD060;stroke:#886B31;stroke-width:5;stroke-linecap:round;stroke-linejoin:round;stroke-miterlimit:10;" d="
		M152.6,21.2c0.4,4.7-2.6,5.2-6.4,5.2c-3.8-0.1-6.9-0.1-6.9-5.4c-0.1-4.4,2.8-5,6.4-4.9C149.2,16.1,152.2,17,152.6,21.2z"/>
	
		<path id="XMLID_2313_" style="fill:#FFD060;stroke:#886B31;stroke-width:5;stroke-linecap:round;stroke-linejoin:round;stroke-miterlimit:10;" d="
		M147.4,13.1c0.4,4.7-2.6,5.2-6.4,5.2c-3.8-0.1-6.9-0.1-6.9-5.4c-0.1-4.4,2.8-5,6.4-4.9C144.1,8.1,147,8.9,147.4,13.1z"/>
	
		<path id="XMLID_2279_" style="fill:#FFD060;stroke:#886B31;stroke-width:5;stroke-linecap:round;stroke-linejoin:round;stroke-miterlimit:10;" d="
		M129.5,180.1c-1.9,10.4-8.9,17.7-19.4,14.1s-10.5-28.9,7.2-26.1C123.8,168.2,129.2,170.1,129.5,180.1z"/>
	
		<path id="XMLID_2278_" style="fill:#FFD060;stroke:#886B31;stroke-width:5;stroke-linecap:round;stroke-linejoin:round;stroke-miterlimit:10;" d="
		M128.9,160.6c0.4,11.3-5,12.7-11.6,12.6c-6.6-0.1-12-0.1-11.4-12.9c0.5-10.2,5.4-11.6,11.5-11.5
		C123.5,148.9,128.5,150.8,128.9,160.6z"/>
	
		<path id="XMLID_2277_" style="fill:#FFD060;stroke:#886B31;stroke-width:5;stroke-linecap:round;stroke-linejoin:round;stroke-miterlimit:10;" d="
		M128.2,142c3,16.1-11,12.5-18,12.5c-7-3.6-3.5-25.3,7.3-23.2C123.1,131.3,127.8,133.1,128.2,142z"/>
	
		<path id="XMLID_2276_" style="fill:#FFD060;stroke:#886B31;stroke-width:5;stroke-linecap:round;stroke-linejoin:round;stroke-miterlimit:10;" d="
		M127.5,125.4c0.3,9-4.3,10-10.1,9.9c-5.8-0.1-10.4-0.2-10.1-10.2c0.3-8.2,4.7-9.2,10.1-9.2C122.8,116,127.2,117.5,127.5,125.4z"/>
	
		<path id="XMLID_2275_" style="fill:#FFD060;stroke:#886B31;stroke-width:5;stroke-linecap:round;stroke-linejoin:round;stroke-miterlimit:10;" d="
		M126.9,109.2c0.8,12.7-9.7,9.1-16.7,9.1c0-7.2-10.5-18.1,7.2-18.8C122.4,99.6,126.6,101.2,126.9,109.2z"/>
	
		<path id="XMLID_2274_" style="fill:#FFD060;stroke:#886B31;stroke-width:5;stroke-linecap:round;stroke-linejoin:round;stroke-miterlimit:10;" d="
		M126.3,94.7c1.3,5.5-2.2,9.1-9.2,9.1c-14-3.6-10.5-10.8,0.2-16.8C122.2,87.1,126.1,88.4,126.3,94.7z"/>
	
		<path id="XMLID_2273_" style="fill:#FFD060;stroke:#886B31;stroke-width:5;stroke-linecap:round;stroke-linejoin:round;stroke-miterlimit:10;" d="
		M126,82.9c-1.9,10.1-8.9,6.5-15.9,6.5c0-7.2-3.5-14.5,7.4-13.4C122.1,76.1,125.9,77.2,126,82.9z"/>
	
		<path id="XMLID_2272_" style="fill:#FFD060;stroke:#886B31;stroke-width:5;stroke-linecap:round;stroke-linejoin:round;stroke-miterlimit:10;" d="
		M125.9,72.9c1.8,9.2-8.7,5.6-12.2,5.6c-3.5-3.6-7-10.8,4.6-12.4C122.4,66.3,125.7,67.4,125.9,72.9z"/>
	
		<path id="XMLID_2271_" style="fill:#FFD060;stroke:#886B31;stroke-width:5;stroke-linecap:round;stroke-linejoin:round;stroke-miterlimit:10;" d="
		M125.6,62.2c2,9.1-8.5,5.5-12,5.5c-3.5-3.6-7-10.8,4.7-11.7C122.3,56,125.5,57.1,125.6,62.2z"/>
	
		<path id="XMLID_2270_" style="fill:#FFD060;stroke:#886B31;stroke-width:5;stroke-linecap:round;stroke-linejoin:round;stroke-miterlimit:10;" d="
		M126.5,52.5c0.1,5-3,5.6-7,5.5c-3.9-0.1-7.1-0.1-6.8-5.7c0.3-4.6,3.3-5.2,7-5.2C123.3,47.2,126.3,48.1,126.5,52.5z"/>
	
		<path id="XMLID_2269_" style="fill:#FFD060;stroke:#886B31;stroke-width:5;stroke-linecap:round;stroke-linejoin:round;stroke-miterlimit:10;" d="
		M128.4,43.5c0.2,5.2-3.4,5.8-7.7,5.7c-4.4-0.1-7.9-0.1-7.5-5.9c0.3-4.8,3.6-5.4,7.7-5.3C124.9,38,128.2,38.9,128.4,43.5z"/>
	
		<path id="XMLID_2268_" style="fill:#FFD060;stroke:#886B31;stroke-width:5;stroke-linecap:round;stroke-linejoin:round;stroke-miterlimit:10;" d="
		M126.2,35.6c0.5,4.4-2.3,5.2-5.8,5.5c-3.5,0.3-6.4,0.5-6.6-4.5c-0.2-4.1,2.5-4.9,5.8-5.2C122.9,31.2,125.7,31.7,126.2,35.6z"/>
	
		<path id="XMLID_2305_" style="fill:#FFD060;stroke:#886B31;stroke-width:5;stroke-linecap:round;stroke-linejoin:round;stroke-miterlimit:10;" d="
		M128.9,28.4c0.2,5.4-3.3,5.9-7.6,5.9c-4.3-0.1-7.9-0.1-7.6-6.1c0.2-5,3.6-5.6,7.7-5.5C125.4,22.7,128.8,23.7,128.9,28.4z"/>
	
		<path id="XMLID_2309_" style="fill:#FFD060;stroke:#886B31;stroke-width:5;stroke-linecap:round;stroke-linejoin:round;stroke-miterlimit:10;" d="
		M125.2,21.2c0.2,4.7-2.9,5.2-6.7,5.2c-3.8-0.1-6.8-0.1-6.6-5.4c0.2-4.4,3.1-5,6.7-4.9C122.1,16.1,125,17,125.2,21.2z"/>
	
		<path id="XMLID_2312_" style="fill:#FFD060;stroke:#886B31;stroke-width:5;stroke-linecap:round;stroke-linejoin:round;stroke-miterlimit:10;" d="
		M127.3,16c0.2,4.7-2.9,5.2-6.7,5.2c-3.8-0.1-6.8-0.1-6.6-5.4c0.2-4.4,3.1-5,6.7-4.9C124.3,11,127.2,11.8,127.3,16z"/>
	
		<path id="XMLID_2255_" style="fill:#FFD060;stroke:#886B31;stroke-width:5;stroke-linecap:round;stroke-linejoin:round;stroke-miterlimit:10;" d="
		M147.7,183c-2.5,14.8-23.5,14.8-30.5,7.5c-3.5-10.8,3.5-18.1,15.2-17.3C140.5,173.3,147.4,174.9,147.7,183z"/>
	
		<path id="XMLID_2254_" style="fill:#FFD060;stroke:#886B31;stroke-width:5;stroke-linecap:round;stroke-linejoin:round;stroke-miterlimit:10;" d="
		M147,167c-5.4,16.4-29.9,12.8-29.9-1.7c0-7.2,7-7.2,15.1-8.4C140.2,156.9,146.7,158.6,147,167z"/>
	
		<path id="XMLID_2253_" style="fill:#FFD060;stroke:#886B31;stroke-width:5;stroke-linecap:round;stroke-linejoin:round;stroke-miterlimit:10;" d="
		M146.4,150.7c-1.2,18.2-15.2,10.9-22.2,10.9c-14-3.6-3.5-18.1,8-20.7C139.8,141,146.1,142.6,146.4,150.7z"/>
	
		<path id="XMLID_2252_" style="fill:#FFD060;stroke:#886B31;stroke-width:5;stroke-linecap:round;stroke-linejoin:round;stroke-miterlimit:10;" d="
		M145.7,135.4c-4.1,15.4-18.1,8.2-25.1,4.6c-10.5-7.2,3.5-10.8,11.4-13.6C139.4,126.4,145.5,127.9,145.7,135.4z"/>
	
		<path id="XMLID_2251_" style="fill:#FFD060;stroke:#886B31;stroke-width:5;stroke-linecap:round;stroke-linejoin:round;stroke-miterlimit:10;" d="
		M145.1,119.7c0,13-14,13-21,9.4c-7-7.2-10.5-18.1,7.8-19.1C139,110.1,144.8,111.6,145.1,119.7z"/>
	
		<path id="XMLID_2250_" style="fill:#FFD060;stroke:#886B31;stroke-width:5;stroke-linecap:round;stroke-linejoin:round;stroke-miterlimit:10;" d="
		M144.6,105c-2.9,13.3-23.9,13.3-23.9-1.1c0-7.2,3.5-10.8,11.2-6.9C138.7,97,144.3,98.3,144.6,105z"/>
	
		<path id="XMLID_2249_" style="fill:#FFD060;stroke:#886B31;stroke-width:5;stroke-linecap:round;stroke-linejoin:round;stroke-miterlimit:10;" d="
		M144.2,92.3c-2.6,15.1-13.1,7.9-20.1,7.9c-7-7.2-7-14.5,7.9-15.4C138.6,84.9,144,86.1,144.2,92.3z"/>
	
		<path id="XMLID_2248_" style="fill:#FFD060;stroke:#886B31;stroke-width:5;stroke-linecap:round;stroke-linejoin:round;stroke-miterlimit:10;" d="
		M144,81.3c-2.4,15.3-12.9,8.1-19.9,8.1c-7-7.2-7-14.5,8.6-15.6C138.9,73.8,143.8,75,144,81.3z"/>
	
		<path id="XMLID_2247_" style="fill:#FFD060;stroke:#886B31;stroke-width:5;stroke-linecap:round;stroke-linejoin:round;stroke-miterlimit:10;" d="
		M143.6,69.1c0.2,6.8-4.8,7.6-10.9,7.6c-6.1,0-11.1,0-10.8-7.6c0.2-6.3,5-7.2,10.9-7.2C138.7,61.9,143.5,63,143.6,69.1z"/>
	
		<path id="XMLID_2241_" style="fill:#FFD060;stroke:#886B31;stroke-width:5;stroke-linecap:round;stroke-linejoin:round;stroke-miterlimit:10;" d="
		M144.9,57.5c0.2,6-4.5,6.7-10.4,6.7c-5.9,0-10.6,0-10.4-6.7c0.2-5.6,4.8-6.4,10.4-6.4C140.1,51.1,144.7,52.1,144.9,57.5z"/>
	
		<path id="XMLID_2235_" style="fill:#FFD060;stroke:#886B31;stroke-width:5;stroke-linecap:round;stroke-linejoin:round;stroke-miterlimit:10;" d="
		M144.5,46.5c0.2,6.4-4.4,7.2-10,7.2c-5.7,0-10.2,0-10-7.2c0.2-6,4.6-6.8,10-6.8C139.9,39.6,144.3,40.8,144.5,46.5z"/>
	
		<path id="XMLID_2223_" style="fill:#FFD060;stroke:#886B31;stroke-width:5;stroke-linecap:round;stroke-linejoin:round;stroke-miterlimit:10;" d="
		M143.4,36.2c0.2,4.9-4.2,5.5-9.7,5.5c-5.4,0-9.9,0-9.6-5.5c0.2-4.6,4.4-5.3,9.7-5.3S143.3,31.7,143.4,36.2z"/>
	
		<path id="XMLID_2306_" style="fill:#FFD060;stroke:#886B31;stroke-width:5;stroke-linecap:round;stroke-linejoin:round;stroke-miterlimit:10;" d="
		M141.3,26.3c0.2,5.3-3.7,5.9-8.5,5.9s-8.6,0-8.5-5.9c0.1-5,3.9-5.7,8.5-5.7C137.4,20.6,141.1,21.5,141.3,26.3z"/>
	
		<path id="XMLID_2310_" style="fill:#FFD060;stroke:#886B31;stroke-width:5;stroke-linecap:round;stroke-linejoin:round;stroke-miterlimit:10;" d="
		M142.3,18.6c0.2,4.4-4,4.9-9.3,4.9c-5.2,0-9.5,0-9.3-4.9c0.1-4.2,4.2-4.7,9.3-4.7S142.1,14.7,142.3,18.6z"/>
	
		<path id="XMLID_2314_" style="fill:#FFD060;stroke:#886B31;stroke-width:5;stroke-linecap:round;stroke-linejoin:round;stroke-miterlimit:10;" d="
		M140.8,9.7c0.2,4.4-3.8,4.9-8.6,4.9c-4.9,0-8.8,0-8.6-4.9c0.1-4.1,3.9-4.7,8.6-4.7C136.8,5,140.6,5.8,140.8,9.7z"/>
	
		<path id="XMLID_2316_" style="fill:#FFFFFF;stroke:#886B31;stroke-width:5;stroke-linecap:round;stroke-linejoin:round;stroke-miterlimit:10;" d="
		M181.4,74.9c-5.1,12.4-10.3,23.1-15.5,32.5c-30.2,37.7-68.7,106.4-19.7,142.5c5.2-9,10.5-17.2,15.4-25.6
		c16.1-28.6,23.1-57.5,24.9-90.6c0.4-10.9,0.2-21.9-0.3-33.1C185.1,92.3,183.5,83.7,181.4,74.9z"/>
	
		<path id="XMLID_2315_" style="fill:#FFFFFF;stroke:#886B31;stroke-width:5;stroke-linecap:round;stroke-linejoin:round;stroke-miterlimit:10;" d="
		M90.2,79.9c13,45.6,44.5,81.7,62,125.1c7,14.5,3.5,47-10.5,47c-56-3.6-63-97.6-56.5-146.9C86.2,97,87.9,88.6,90.2,79.9z"/>
</g>
</svg>
