<?xml version="1.0" encoding="utf-8"?>
<!-- Generator: Adobe Illustrator 17.0.0, SVG Export Plug-In . SVG Version: 6.00 Build 0)  -->
<!DOCTYPE svg PUBLIC "-//W3C//DTD SVG 1.1//EN" "http://www.w3.org/Graphics/SVG/1.1/DTD/svg11.dtd" [
	<!ENTITY ns_flows "http://ns.adobe.com/Flows/1.0/">
	<!ENTITY ns_extend "http://ns.adobe.com/Extensibility/1.0/">
	<!ENTITY ns_ai "http://ns.adobe.com/AdobeIllustrator/10.0/">
	<!ENTITY ns_graphs "http://ns.adobe.com/Graphs/1.0/">
]>
<svg version="1.1"
	 id="svg2" xmlns:x="&ns_extend;" xmlns:i="&ns_ai;" xmlns:graph="&ns_graphs;" sodipodi:docname="Maize.png" inkscape:version="0.48.5 r10040" xmlns:inkscape="http://www.inkscape.org/namespaces/inkscape" xmlns:sodipodi="http://sodipodi.sourceforge.net/DTD/sodipodi-0.dtd" xmlns:rdf="http://www.w3.org/1999/02/22-rdf-syntax-ns#" xmlns:cc="http://creativecommons.org/ns#" xmlns:dc="http://purl.org/dc/elements/1.1/" xmlns:svg="http://www.w3.org/2000/svg"
	 xmlns="http://www.w3.org/2000/svg" xmlns:xlink="http://www.w3.org/1999/xlink" xmlns:a="http://ns.adobe.com/AdobeSVGViewerExtensions/3.0/"
	 x="0px" y="0px" width="256px" height="256px" viewBox="0 0 256 256" style="enable-background:new 0 0 256 256;"
	 xml:space="preserve">
<sodipodi:namedview  id="namedview4" inkscape:window-height="734" inkscape:window-y="27" inkscape:window-x="0" inkscape:pageshadow="2" inkscape:current-layer="svg2" inkscape:window-maximized="1" inkscape:pageopacity="0" inkscape:window-width="1280" gridtolerance="10" showgrid="false" pagecolor="#ffffff" objecttolerance="10" inkscape:cx="146.47691" bordercolor="#666666" inkscape:zoom="0.68807873" borderopacity="1" guidetolerance="10" inkscape:cy="294.99624">
	</sodipodi:namedview>
<path id="path2999" inkscape:connector-curvature="0" style="fill:none;stroke:#181818;stroke-width:3;stroke-miterlimit:10;" d="
	M54.6,237.2c-0.1-0.3-0.3-2.2-0.4-4.1c-0.1-2.9-0.4-3.8-1.5-5.4c-1.6-2.4-1.9-2.6-4.6-2.6c-2,0-2.5,0.2-3.7,1.5
	c-0.8,0.8-1.8,2.4-2.2,3.5c-1.3,2.9-3.5,4.4-6.6,4.4c-3.5,0-4.6-0.6-8.4-4.3c-1.7-1.7-3.8-3.6-4.6-4c-2.3-1.4-3.8-4-3.8-6.6
	c0-1.2,0.2-2.4,0.4-2.7c0.2-0.2,0.7-1.2,1-2.1c0.3-0.9,1.1-2.2,1.7-2.9c1.3-1.6,1.8-3.9,1.1-5.6c-0.6-1.6-2.4-1.7-5.4-0.3
	c-2.1,1-2.2,1-3,0.1c-0.8-0.7-0.9-1.5-0.9-4.7c0-4.2,0.2-4.5,3.7-7.1c1.7-1.3,2.6-1.4,2.3-0.1c-0.3,1.2,0.4,1.7,3.1,2.1
	c1.3,0.2,2.6,0.6,2.9,0.8c0.9,0.7,2.8-0.3,3.7-2.1c0.6-1.3,0.6-1.5-0.1-2.2c-0.6-0.7-1.5-0.8-4.4-0.8c-3.7,0-3.7,0-3.7-1.2
	c0-1.8,0.7-2.9,2.9-4.3c1.7-1.1,2.8-1.3,7.8-1.7c4.4-0.4,5.9-0.7,6.1-1.2c0.2-0.4,0.6-1.1,0.8-1.7c0.3-0.6,0.8-2.9,1.3-5.1
	c0.4-2.3,1.1-4.8,1.5-5.6c0.4-0.7,1.1-2.9,1.6-4.7c0.5-1.8,1.2-3.6,1.5-4c0.3-0.4,0.8-1.5,1.2-2.6c0.7-2.1,2.4-6.1,3.8-8.7
	c0.5-0.9,1.4-2.6,1.9-3.7c0.6-1.2,1.2-2.2,1.4-2.3c0.2-0.1,0.8-1.1,1.4-2.1s1.5-2.6,2.2-3.5c0.7-0.9,1.5-2.1,1.8-2.6
	c3.4-4.9,6.1-8.3,13.3-16.9c4.6-5.5,9.4-11.1,10.7-12.4c1.3-1.4,4-4.3,6-6.5c3.6-4,12.7-13.5,22.1-23.1c2.8-2.8,5.3-5.6,5.7-6.2
	c0.4-0.6,2.5-3.3,4.8-6.1c2.2-2.8,5.3-6.6,6.8-8.5c1.5-1.9,3.3-4.2,4.1-5.2c0.8-1,2.1-2.7,2.8-3.7c3.2-4.4,6.9-9,7.5-9.3
	c1.2-0.5,2.9,0.3,4,1.8l1,1.5l-1.1,2c-0.6,1.1-1.3,2.2-1.6,2.7c-0.3,0.4-0.9,1.6-1.4,2.8c-0.5,1.2-1.1,2.4-1.4,2.8
	c-0.3,0.4-0.9,1.6-1.4,2.8c-0.5,1.2-1.3,2.5-1.7,3.1s-0.8,1.3-0.8,1.7c0,0.4-1.3,2.7-2.9,5.1c-1.5,2.4-3,4.9-3.3,5.6
	c-0.5,1.3-0.2,2.4,0.6,2.4c0.9,0,5-4.5,12.7-13.8c7.6-9.5,9.8-12.7,10.3-15.2c0.5-2.5,2.8-3.6,4.6-2.2c0.8,0.6,0.9,1.2,0.7,6.8
	c-0.1,6.9-0.1,7,3,4.9c5.8-3.9,9.5-8.2,12.8-14.7c2.8-5.5,4.9-7.7,9.6-10.3c1-0.6,2.4-1.4,3-1.9c1.5-1.1,8.5-2.3,10.2-1.8
	c0.7,0.2,2.2,0.7,3.3,1c1.1,0.3,2.2,0.8,2.5,1.2c0.3,0.4,1.7,0.6,4.1,0.6c2.8,0,3.9,0.2,5,0.9c0.7,0.5,2.1,1.3,2.9,1.6
	c0.8,0.4,2.2,1.7,3.1,2.9c1.5,2.1,1.9,2.3,4.3,2.8c1.5,0.3,3.2,1.1,4,1.7c0.7,0.7,2.6,1.5,4.1,1.9c1.5,0.4,2.9,0.9,3.2,1.2
	c0.2,0.2,1.7,0.8,3.2,1.4c1.5,0.5,2.9,1.1,3,1.4c0.1,0.2,1.2,1,2.3,1.7c1.9,1.3,2,1.4,1.2,2c-0.5,0.4-1.1,0.7-1.4,0.7
	c-0.8,0-5.4-1.7-7.4-2.8c-1-0.5-2.4-1-3-1c-3,0-4.8-0.6-5.2-1.7c-0.5-1.2-1.2-1.3-3.9-0.4c-0.7,0.2-1.1,0-1.8-1.4l-0.8-1.7l-4.1,0.1
	l-4.1,0.1l-0.1,1.4c-0.1,0.8-0.3,1.6-0.6,1.9c-0.8,0.8-0.5,2.9,0.6,3.8c0.6,0.5,1.8,1.3,2.7,1.8c1.5,0.8,5.6,5.7,5.6,6.7
	c0,0.8,3.9,3.6,6.1,4.4c3.1,1.1,2.8,2.1-0.7,2.1c-2.8,0-2.9,0-4.9-2.1c-1.1-1.2-2.2-2.4-2.5-2.9c-1.5-2.4-4.6-6.1-5.9-6.8
	c-0.8-0.5-1.4-1-1.4-1.2c0-1.5-8.2-2.6-8.7-1.2c-0.5,1.2,0.6,2.2,3.5,3.3c1.5,0.6,3.2,1.4,3.7,1.8c0.5,0.4,1.7,1.5,2.8,2.4
	c1.2,1,2.2,2.5,2.8,3.8c0.5,1.2,1.1,2.5,1.4,2.9s0.7,1.2,1,1.8c0.2,0.6,1.8,1.9,3.5,2.9c2.6,1.5,3.2,2.2,4.6,4.8
	c0.9,1.7,1.8,3.1,2,3.2c0.2,0.1,0.7,0.9,0.9,1.8c0.7,2,0,3-1.9,3c-1.4,0-3.1-1.6-4.7-4.6c-0.5-0.9-1.8-2.4-2.8-3.3s-2.6-2.4-3.5-3.3
	c-1.6-1.7-4.5-6.8-5.1-8.9c-0.3-1.2-1.7-2.6-5.6-5.4c-1.5-1-2.6-1.5-3.7-1.5c-0.9,0-1.8-0.2-2-0.5c-0.7-1.3-4.9,0.3-4.9,1.9
	c0,0.8,3.7,3.3,4.8,3.3c0.6,0,1.5,0.5,2.1,1.1s1.7,1.6,2.6,2.3c0.9,0.7,2.1,2.2,2.6,3.4c0.6,1.2,1.2,2.2,1.5,2.4
	c0.8,0.5,0.6,5.4-0.2,6.4c-0.4,0.5-1,2-1.4,3.4c-0.7,2.4-0.6,2.7,0.3,4.4c0.5,1,0.9,2.1,0.9,2.6c0,0.5,0.2,0.9,0.5,1.1
	c0.7,0.5,0.6,1.9-0.4,2.7c-0.5,0.4-1.5,0.8-2.4,0.8c-2.2,0-3.8-1.8-8.5-9c-1.5-2.4-2.6-3.1-4.2-3.1c-1.1,0-4.6-1.9-5.8-3.2
	c-0.4-0.5-1.1-2.1-1.5-3.6c-0.7-2.7-2.3-4.9-3.7-4.9c-0.3,0-1.2,0.7-2.1,1.6c-2.4,2.4-2,4.9,0.9,5.9c2.5,0.8,2.8,1.4,1.5,4
	c-2.9,5.9-6.3,13.2-6.8,14.9c-0.3,1-0.9,2.2-1.2,2.6c-0.3,0.4-0.7,1.2-0.9,1.9c-0.2,0.7-1,2.5-1.7,4.1c-1,2.1-1.3,3.1-0.9,3.5
	c0.7,0.7,2.7,0.1,4.4-1.4c1.4-1.2,2.6-2,7.4-5.2c2.6-1.7,4.1-2.2,7.5-2.4c4.8-0.2,4.9,0.6,0.6,3.4c-2.7,1.7-10,7.1-11.7,8.6
	c-0.3,0.3-1.5,1.2-2.8,2.1c-4.8,3.6-21.8,20.4-23.1,22.8c-0.3,0.6-0.9,1.5-1.3,1.9c-1.6,1.9-4,5-4.5,5.9c-0.3,0.6-0.7,1.1-0.8,1.2
	c-0.1,0.1-0.7,0.9-1.4,1.6c-1.7,2.3-2.3,3-5.7,7.5c-1.8,2.3-3.9,5.1-4.8,6.3s-1.8,2.3-2,2.6c-0.3,0.3-1,1.2-1.5,1.9
	c-0.6,0.7-3.2,3.4-5.9,5.8c-2.6,2.4-5.1,4.9-5.5,5.5c-0.4,0.6-1.9,2.4-3.4,4c-1.5,1.6-3.1,3.6-3.7,4.3c-0.6,0.7-2.9,3.3-5.3,5.7
	c-2.3,2.4-4.4,4.7-4.5,5.1c-0.2,0.4-0.7,0.8-1.3,0.8c-0.6,0-1.1,0.5-1.4,1.2c-0.2,0.7-0.7,1.2-0.9,1.2s-1.8,1.3-3.4,2.8
	c-3.2,3.1-8.8,7.3-12.4,9.1c-1.3,0.7-2.6,1.5-2.9,1.9c-0.3,0.4-0.8,0.7-1.1,0.7c-0.3,0-1.1,0.5-1.7,1.2c-0.6,0.7-1.3,1.2-1.5,1.2
	s-1.2,0.6-2.2,1.4c-0.9,0.7-2.3,1.7-3.1,2.1c-0.7,0.4-1.7,1-2.2,1.3c-0.6,0.4-1.3,0.3-3.5-0.7c-2.2-1.1-3.1-1.3-5.1-1
	c-1.3,0.1-3.9,0.3-5.9,0.4l-3.5,0.1l-0.1,2.2c-0.1,1.6,0.1,2.6,0.9,3.8c1,1.5,2.2,2.3,2.2,1.4c0-0.2,0.7-0.9,1.7-1.7l1.7-1.4l1,0.9
	c0.6,0.5,1.8,1.4,2.9,2l1.8,1l1.3-1.3c0.7-0.7,1.8-1.2,2.4-1.2c5.4,0.2,7.1,0.5,7.4,1c0.4,0.7,0.1,2.7-0.6,3.6
	c-0.7,0.9-2.4,0.7-3.4-0.4c-0.9-1.1-2.3-1.2-2.9-0.4c-0.2,0.3-0.4,2.4-0.4,4.6c0,4.3-0.5,5.6-2.9,8.2c-2.8,3-3.8,3.5-7,3.5
	C55.8,237.8,54.8,237.6,54.6,237.2L54.6,237.2z M62.2,233c3.1-3.4,3.8-8.1,1.5-9.9l-1.3-0.9l-1.9,1.3c-1.8,1.2-2,1.2-2.8,0.5
	c-1.1-1-3.5-0.7-3.7,0.4c-0.1,0.5,0.3,1.3,0.8,1.9c1.3,1.4,3.3,5.3,3.3,6.3c0,0.5,0.1,1,0.3,1.1C59.1,234.4,61.3,234,62.2,233z
	 M37.1,229.1c0.4-0.5,0.5-1.7,0.3-3.8c-0.2-2.9-0.4-3.2-2.3-5.2c-1.1-1.2-2.8-2.4-3.6-2.8c-1.7-0.7-5.1-0.9-6-0.3
	c-0.7,0.4-2,2.7-2,3.4s7.8,8.4,8.9,8.8C34.1,230,36.4,229.9,37.1,229.1L37.1,229.1z M46.8,221.2c0.6-0.4,1.6-1.9,2.4-3.4
	c1.5-2.9,1.5-2.9-0.6-7.2c-1.4-2.7-8.2-0.4-8.3,2.7c0,0.8,0.5,1.7,1.5,2.5c1.2,1,1.4,1.4,0.9,1.9c-1.4,1.4,0,4.2,2,4.2
	C45.3,221.9,46.2,221.6,46.8,221.2L46.8,221.2z M73.4,209.2c1-0.6,2.9-1.8,4.2-2.8c1.3-1,2.8-1.8,3.1-1.8s1.4-0.6,2.2-1.3
	c0.8-0.7,2.2-1.7,3-2.2c4.1-2.6,4.9-3.2,4.9-3.5c0-0.2,0.7-0.8,1.5-1.3c0.8-0.5,3.3-2.6,5.5-4.6c2.2-2.1,4.4-4,5-4.4
	c0.9-0.6,3.8-4,9.2-10.6c3.8-4.7,4.7-5.8,6-7.3c0.7-0.8,1.3-1.6,1.3-1.8c0-0.1,0.7-1,1.4-1.9c0.7-0.9,1.8-2.1,2.3-2.8
	c0.5-0.7,1.5-1.9,2.2-2.8c0.7-0.9,2.8-3.5,4.7-5.9c1.9-2.3,3.7-4.7,4.3-5.4c3-3.7,5.5-6.8,13-16.3c1.5-1.9,3.4-4.3,4.2-5.3
	c0.8-1,1.5-2.2,1.5-2.5c0-0.3,0.3-0.9,0.7-1.2c0.4-0.3,1.3-1.7,1.9-3c0.6-1.3,1.4-2.7,1.8-3c0.4-0.3,0.7-0.8,0.7-1.1
	c0-0.3,0.5-1.1,1.1-1.8c0.6-0.7,1.4-2,1.7-2.8c0.3-0.8,1.1-2.6,1.7-3.8c1.4-2.9,1.5-4.9,0.2-6.4l-0.9-1.1l-1.5,1.4
	c-0.8,0.7-2.2,2.5-3.1,3.7s-2.2,3.2-3,4.2c-0.7,1-2,2.7-2.7,3.7s-1.8,2.5-2.4,3.3c-1.9,2.3-4.5,5.9-7.6,10.4
	c-0.6,0.8-1.6,2.2-2.4,3.1c-0.7,0.8-1.3,1.7-1.3,2s-0.5,0.8-1,1.4c-1,0.9-4.2,5-5.6,7.2c-0.4,0.7-2.3,3-4.2,5.2
	c-1.9,2.2-4.2,4.9-5.1,6c-3.6,4.5-4.4,5.4-15.6,17.2c-2.1,2.2-3.8,3.9-4,3.9s-1.4,1.1-2.7,2.3c-2.8,2.8-3.7,3-3.2,0.9
	c0.1-0.8,0.3-2.2,0.3-3.1c0-1.6,0-1.6,1.5-1.3c0.8,0.2,1.8,0.6,2.1,0.8c0.7,0.6,0.8,0.6,1.9-2.1c0.7-1.8,1.2-2.3,2.4-2.5
	c1-0.2,1.6-0.7,2.1-1.7c0.3-0.8,1.3-2.2,2-2.9c2-2.2,3.1-3.9,3.7-5.8c0.3-1.2,0.8-1.7,1.6-1.8c0.6-0.1,1.8-0.9,2.8-1.8
	c1.5-1.5,1.6-1.8,1.1-2.6c-0.7-1.1,0-2.2,1.4-2.2c0.5,0,1.4-0.8,2.1-1.9c1.1-1.6,1.2-2.1,0.7-3c-0.5-1.1-0.5-1.2,1.5-1.2
	c2.5,0,3.3-1,2.9-3.9l-0.3-1.9l1.5,0.3c1.8,0.4,3.2-0.7,3.2-2.4c0-1.6,1.5-3.3,4.3-4.8c1.4-0.7,2.5-1.6,2.6-2
	c0.2-1.1-3.5-3.2-5.5-3.2c-2,0-2.7,0.7-3.2,3.5c-0.2,1-0.6,1.5-1.5,1.5c-2.1,0.3-2.4,1-2.2,3.9l0.2,2.7l-2.2-0.3
	c-2.9-0.3-3.5,0.4-3.2,3.6l0.2,2.3h-1.9c-2.7,0-3.6,1-3.6,3.8v2.3l-1.5-0.3c-2-0.3-3.6,0.9-4,3c-0.3,1.3-0.6,1.6-1.6,1.8
	c-0.7,0.1-1.4,0.5-1.5,0.8c-0.4,1-1.4,0.8-1.7-0.3c-0.3-1.2-1.6-1.7-2.3-1c-0.4,0.4-0.2,0.8,0.5,1.6c1.3,1.4,1.3,2.5,0.1,3.1
	c-1.3,0.7-2.9,3.6-2.9,5.4c0,1.6,0,1.6-2.1,1.6c-1.7,0-2.3,0.2-3.3,1.2c-0.6,0.7-1.2,1.7-1.2,2.2c0,1.3-0.8,2.2-2.2,2.2
	c-1.5,0-2.2,1.1-1.9,3.1c0.5,2.4,2.5,4.4,4.7,4.4c2.6,0,2.4,0.4-2,4.2c-0.7,0.7-2.2,1.9-3.4,2.8s-2.8,2.3-3.8,3.2
	c-2.3,2.1-2.8,1.9-2.8-0.6v-2.1l2.2-0.1c2-0.1,2.2-0.3,2.4-1.4c0.1-0.9,0.5-1.3,1.6-1.5c2-0.4,2.7-1.1,2.7-2.8
	c0-1.6-2.7-4.5-4.1-4.5c-1.2,0-3.5,3-3.3,4.4c0.1,0.8,0,1-0.9,0.9c-1.4-0.2-2.4,0.7-2.4,2.1c0,1-0.2,1.1-1.8,1.1c-1,0-2,0.2-2.3,0.6
	c-0.8,0.8-0.7,2.5,0.4,3.4c0.5,0.5,0.9,1.1,0.9,1.3c0,0.7,1.5,1.7,2.7,1.7c1.5,0,1.3,0.7-0.5,1.5c-0.8,0.4-2.9,1.5-4.6,2.5
	s-4,2.2-5.1,2.8s-2.3,1.3-2.6,1.5s-1.4,0.6-2.5,0.7c-1.8,0.3-1.9,0.2-2.1-0.8c-0.1-0.9-0.4-1.1-1.8-1.1c-1.5,0-1.6,0.1-1.6,1.6
	c0,1-0.2,1.7-0.7,1.8c-0.4,0.1-1.3,0.5-2.1,0.8c-0.8,0.3-2.3,0.7-3.5,0.9c-2.7,0.4-3.7,1-3.7,2.1c0,1.3,0.9,1.8,3,1.8
	c3.1,0,9.3-1,10.1-1.6c0.4-0.3,1-0.6,1.4-0.6c0.7,0,2.8-0.7,5.6-2c0.9-0.4,2.2-0.8,3-1c2.2-0.5,0.6,1-1.8,1.6
	c-1.1,0.3-2.2,0.8-2.6,1.1c-0.4,0.3-1.3,0.7-2,0.9c-1.7,0.4-2.9,1.8-2.7,3.1c0.1,0.9,0.5,1.1,2.2,1.4
	C70.2,210.3,71.6,210.2,73.4,209.2L73.4,209.2z M76.4,199.9c0-0.6,1.9-1.6,2.2-1.2c0.4,0.4-0.8,1.7-1.6,1.7
	C76.7,200.4,76.4,200.2,76.4,199.9z M83.7,195.6c0.1-0.2,1.4-1.2,2.8-2.1c1.4-0.9,2.5-1.8,2.5-2c0-0.5,2.8-2.5,3.1-2.2
	c0.5,0.5-0.4,1.6-1.8,2.4c-0.8,0.5-2,1.3-2.5,1.7C86.6,194.5,83.3,196.2,83.7,195.6L83.7,195.6z M92.8,188.7c0-0.5,4.2-4.3,4.7-4.3
	c0.7,0,0.5,0.8-0.3,1.5c-0.4,0.3-1.4,1.2-2.1,1.9C93.6,189.2,92.8,189.5,92.8,188.7L92.8,188.7z M99.3,182.9c0-0.1,0.4-0.5,0.8-0.8
	c0.7-0.6,0.7-0.6,0.2,0.2C99.7,183,99.3,183.3,99.3,182.9z M36.3,204c2.8-1.2,3.7-2.7,4-6.6c0.3-4.4-0.4-6.6-2.4-7.8
	c-1.5-0.9-5.2-1.3-5.7-0.5c-0.1,0.2,0.2,1.3,0.7,2.3c1.5,3,1,8.5-0.7,9.2c-0.8,0.3-2.2,3-1.9,3.6C30.7,204.8,34.5,204.7,36.3,204z
	 M55.5,199.8c1-0.8,1.2-1.3,1.1-2.7c-0.1-1.7-0.2-1.7-2.4-1.8c-2.2-0.1-3.6,0.4-3.6,1.5c0,0.7,2.7,4,3.2,4
	C54.1,200.8,54.8,200.4,55.5,199.8z M71.4,195.7c0.8-0.9,0.8-1-0.2-2.3c-1.6-2.2-3.7-1.7-3.7,0.9C67.5,196.6,69.8,197.5,71.4,195.7z
	 M64.1,193.6c2.2-1.6,0.4-4.6-2.6-4.4c-1.7,0.1-1.7,0.2-1.7,2c0,1.5,0.2,2,1.2,2.4C62.4,194.5,62.9,194.4,64.1,193.6z M77.2,191.2
	c0.2-1.9-0.7-2.6-3-2.4c-1.5,0.1-1.8,0.3-2,1.2c-0.2,1.7,1.2,2.9,3.2,2.8C76.9,192.7,77.1,192.5,77.2,191.2z M56.5,189.6
	c0-0.8-1.5-1.2-2.2-0.6c-0.3,0.3-0.3,0.7-0.1,1C54.6,190.8,56.5,190.4,56.5,189.6z M68.2,188c0-1.8-0.1-1.9-1.6-2
	c-2.2-0.2-2.8,0.5-1.9,2.2c0.8,1.6,1.4,2,2.5,1.9C68,189.9,68.2,189.5,68.2,188z M60.6,184.8c1.5-0.7,1.6-1.3,0.1-2.9
	c-1.2-1.3-3.4-1.7-4.4-0.7c-0.9,0.9-0.7,2.5,0.5,3.3C58.1,185.5,59,185.6,60.6,184.8z M72.8,185c0.4-0.7,0.5-4.4,0.1-5.6
	c-0.4-1-0.3-1,2.2-0.9c3.2,0.1,4.2-0.6,4-2.9c-0.1-1.6-0.1-1.7,1.5-1.8c1.5-0.1,2.6-0.5,4.7-1.5c0.4-0.2,0.7-0.8,0.8-1.3
	c0.2-1.2,1.4-2.3,2.9-2.5c1.1-0.1,1.4-0.4,2.5-2.9c0.3-0.7,1-1.6,1.5-1.9c2.8-1.5,4-2.7,4-4c0-0.8,0.5-1.8,1.4-2.7
	c1.5-1.4,2.8-3.7,2.8-4.7c0-0.3-0.8-1.2-1.9-1.9c-1-0.7-1.9-1.4-1.9-1.6c0-0.8,3.1-0.4,4,0.6c0.7,0.7,1.3,0.9,3,0.8
	c2.1-0.1,2.2-0.2,2.5-2.1c0.4-1.8,0.3-2.1-1.1-3.4c-0.8-0.8-1.5-1.6-1.5-1.9s-0.3-0.4-0.7-0.4c-0.4,0-0.9-0.3-1.2-0.7
	c-1-1.2-3.1-0.8-5.5,1c-3.1,2.3-3.5,3-3.8,6.9l-0.3,3.4l-2.9,0.2c-1.6,0.1-3.1,0.5-3.4,0.7c-0.2,0.2-0.5,1.5-0.6,2.8
	c-0.1,2.2-0.2,2.3-1.7,2.6c-1.2,0.2-1.8,0.7-2.6,2c-0.6,1-2,2.4-3.2,3.2c-2,1.3-2.2,1.6-2.2,3.3c0,1.3,0.2,2,0.9,2.3
	c1.1,0.6,1.3,2.3,0.3,2.3c-0.4,0-0.8-0.2-1-0.5c-0.6-0.9-3.4-0.5-4.4,0.6s-1.3,2.9-0.5,3.4c0.3,0.1,0.5,0.7,0.5,1.2
	c0,0.7-0.3,0.9-1.5,0.9c-1.6,0-2.2,0.6-3.5,2.8c-0.5,0.8-0.5,1.3-0.1,1.6c0.3,0.3,0.5,0.9,0.5,1.5s0.1,1.1,0.3,1.3
	C68.2,185.5,72.5,185.5,72.8,185L72.8,185z M53.2,184c0.9-0.3,1.2-0.8,1.2-1.8c0-1.1,2.3-6.2,5.8-12.5c0.4-0.7,0.8-1.6,0.8-1.9
	c0-0.2,0.7-1.4,1.6-2.6c0.9-1.2,1.9-2.8,2.3-3.5c0.4-0.7,1.4-2.4,2.3-3.7c0.9-1.3,1.7-2.5,1.7-2.7c0-0.2,1.3-2.1,2.9-4.1
	c1.6-2.1,3.5-4.4,4.1-5.2c1.3-1.7,6.3-7.7,7.3-8.8c0.6-0.7,1.5-1.7,6-7.2c1-1.3,2.8-3.2,3.8-4.3c1.1-1.1,2.5-2.8,3.2-3.7
	s1.6-1.7,1.9-1.7c0.4,0,0.8-0.4,1-0.8c0.3-0.8,6.2-6.7,8.9-8.9c1.7-1.4,7.3-5.9,9.9-8c4.4-3.6,9.2-7.7,11.5-9.8
	c5.9-5.8,20.3-18.6,21.8-19.6c2-1.3,5.2-5.1,5.1-5.9c-0.3-1.7-1.5-1.8-3.9-0.2c-1.2,0.8-3.1,1.9-4.2,2.5s-2.1,1.1-2.2,1.3
	c-0.1,0.2-1.2,0.8-2.3,1.4c-1.2,0.6-2.6,1.5-3.3,1.9c-0.7,0.5-2.6,1.7-4.2,2.7c-1.7,1.1-3.5,2.3-4.1,2.7c-0.6,0.4-2.5,1.7-4.2,2.8
	c-1.7,1.1-3.4,2.2-3.7,2.4c-0.3,0.2-1.1,0.8-1.9,1.3c-1.5,0.9-5.1,4.6-11.2,11.2c-2.1,2.2-5.4,5.7-7.4,7.6c-3.4,3.3-9,9.4-12.6,13.7
	c-3.3,3.9-4.1,4.9-5.5,6.4c-3.1,3.5-9,10.6-10.1,12.2c-0.6,0.9-1.8,2.5-2.6,3.5c-0.8,1-2.6,3.7-4,5.9c-1.5,2.2-2.8,4.1-2.9,4.2
	c-0.3,0.2-4.6,7.2-6.5,10.4c-0.4,0.7-1.4,2.3-2.2,3.6s-2,3.4-2.8,4.7c-1.3,2.2-1.5,2.4-3,2.2c-0.9-0.1-1.7-0.3-1.8-0.4
	c-0.1-0.1,0.6-1,1.5-2c0.9-1,3.4-5.2,5.4-9.3c2.1-4.1,4.2-8,4.8-8.7c0.6-0.7,1.8-2.3,2.7-3.7c5.5-8.5,9.5-14.2,13.5-19
	c8-9.7,13.2-15.8,18.4-21.2c20-20.7,21.2-22,25.3-27.5c2.6-3.6,4.3-7.1,3.8-8c-0.5-0.8-2.5-0.6-3.4,0.4c-0.5,0.5-1.5,1.7-2.5,2.7
	c-0.9,1-2.1,2.3-2.5,2.9c-0.7,0.9-8.5,9.5-11,12.3c-0.4,0.4-2.8,2.7-5.4,5.1c-6.2,5.8-22.2,21.8-23.6,23.7c-0.7,0.8-1.9,2.3-2.8,3.3
	c-0.9,1-2.3,2.6-3,3.6c-0.7,1-1.6,2-1.9,2.3c-0.3,0.3-1.7,2.3-3.2,4.5c-1.5,2.2-3.7,5.4-4.9,7.1c-1.2,1.7-2.8,4-3.4,5.1
	c-0.6,1.1-1.7,2.7-2.3,3.7c-2.1,3.1-3.7,6.7-4.8,10.3c-0.6,2-1.2,3.8-1.5,4.1c-0.2,0.3-0.6,2.3-0.7,4.4c-0.2,3.5-0.4,3.8-1.4,4.2
	c-1.9,0.7-1.5,3,0.7,5.2c2.1,1.9,2.2,2.3,1.2,3.2c-1,0.8-0.8,1.9,0.6,3.4C50.9,184.6,51.4,184.7,53.2,184L53.2,184z M65.4,178.2
	c1.1-1.1,1.1-2.5,0.1-3.7c-0.8-1-1.4-1.3-3-1.3c-2.2,0-3,0.8-3,3c0,1.6,2.2,3.2,4,2.8C64.3,178.9,65.1,178.5,65.4,178.2z M69.1,172
	c0.4-1.3,0.7-1.9,1.3-2.7c0.5-0.7,0.5-0.9-0.3-1.5c-1.5-1.1-4.6-1.4-6.3-0.5c-1.9,1-2.1,3.3-0.3,4c0.6,0.2,1.3,0.7,1.5,0.9
	C65.4,173,68.9,172.9,69.1,172z M73.8,166.5c0.4-0.7,0.7-1.9,0.7-2.7c0-1.5,0.1-1.6,2-2c1.9-0.4,2-0.6,2.2-2.2
	c0.1-2-1.4-4.6-2.8-4.6c-0.4,0-1-0.3-1.4-0.7c-0.9-1.1-1.7-0.8-2.5,0.8c-0.9,1.8-0.9,2.7,0,3.9c0.4,0.5,0.7,1.2,0.7,1.5
	c0,0.9-1.3,0.7-1.9-0.3c-0.7-1.3-1.5-1.2-3,0.5c-1.3,1.3-1.3,1.5-0.7,2.7c1,2,1.9,2.9,2.8,2.9c0.4,0,1.1,0.3,1.4,0.7
	C72.1,167.9,72.9,167.8,73.8,166.5L73.8,166.5z M81.9,154.5c1.2-1.6,1.3-3.5,0.3-4.4c-0.4-0.3-1.2-1.1-1.8-1.7c-0.8-0.9-1.3-1-2-0.6
	c-0.5,0.3-1.3,0.6-1.7,0.7c-2.9,0.9-0.3,7.3,2.9,7.3C80.5,155.9,81.2,155.4,81.9,154.5L81.9,154.5z M86.3,148.6
	c1.2-1.1,1.1-2.9-0.3-4.7c-1.5-1.9-3.3-2.1-5.1-0.5c-1.3,1.2-1.3,1.5,0.9,4.7C82.7,149.6,84.9,149.8,86.3,148.6z M90.7,144.7
	c1.2-1.3,0.7-4.4-1-6.1c-2.3-2.4-7.2-1.5-5.4,0.9c0.3,0.4,0.7,1.3,1,1.9c0.6,1.5,3.2,4.2,4,4.2C89.6,145.6,90.2,145.2,90.7,144.7
	L90.7,144.7z M111.1,143c1.2-1.1,1.1-1.6-0.6-3.2c-0.7-0.7-1.4-1.5-1.4-1.7c0-0.7,2.2-0.4,3,0.6c1.3,1.4,3.4,1.3,4-0.3
	c1-2.6,0.6-4-1.7-6.4c-1.9-1.9-2.5-2.2-4-2.2c-2.2,0-4.5,1.6-4.5,3.1c0,0.7-0.7,1.5-1.9,2.3c-1.8,1.3-2.3,2.2-1.4,2.8
	c0.3,0.1,0.8,1,1.3,1.9c1,2,3.7,4,5.2,4C109.7,143.7,110.6,143.4,111.1,143L111.1,143z M95.8,138.1c0.4-0.8,0.6-2,0.5-2.5
	c-0.2-1-0.1-1.1,2.2-1.2c2.2-0.1,2.5-0.3,2.7-1.3c0.1-0.6-0.1-1.4-0.4-1.6c-0.3-0.3-0.5-0.9-0.5-1.5c0-1.6-1.8-3.1-3.7-3.1
	c-2.2,0-2.8,0.7-2.8,3.4c0,2.2,0,2.2-1.6,2.2c-2.1,0-2.8,0.9-2.4,3c0.2,1.2,0.7,1.8,1.4,2.1c0.6,0.2,1.2,0.7,1.3,1.1
	C92.9,140.1,95,139.7,95.8,138.1z M121.2,129.7c0.1-1.3-0.2-2-1.2-3c-1.4-1.4-4-3.5-4.5-3.5c-0.8,0-3,2.2-3,3c0,0.5,1,2,2.2,3.2
	c2.1,2.1,2.3,2.2,4.4,2.1S121.1,131.3,121.2,129.7z M104.7,125.5c0-1.9-0.1-2.2-1.7-3c-1.7-0.9-1.8-0.9-2.7,0
	c-1.3,1.2-1.2,2.5,0.3,4.1c0.9,1,1.6,1.3,2.7,1.2C104.6,127.6,104.7,127.5,104.7,125.5L104.7,125.5z M126.5,126.6
	c0.2-0.7,0.5-2.2,0.5-3.4c0-1.9-0.2-2.3-1.6-3.5c-1.3-1-2.1-1.3-4.2-1.3c-3.1,0-3.8,0.7-3.3,3c0.2,1.2,0.7,1.8,1.4,2.1
	c0.6,0.2,2,1.3,3,2.3C124.5,128.1,125.8,128.3,126.5,126.6L126.5,126.6z M138.5,123.3c0.3-0.9-1.5-2.6-2.6-2.4
	c-1,0.2-1.7,1.5-1.4,2.4C135,124.4,138.1,124.3,138.5,123.3L138.5,123.3z M110.4,123c1.7-1.7-0.6-6.5-3-6.5c-2,0-2.9,0.8-2.9,2.6
	C104.5,121.9,108.8,124.7,110.4,123L110.4,123z M131.6,119.9c2.5-1.4-0.7-7-4.1-7c-2.1,0-3.9,0.7-3.9,1.7c0,1,3.6,5.1,4.8,5.4
	C130,120.4,130.6,120.4,131.6,119.9z M141.5,119.6c1.1-1,1.1-1.5-0.1-2.8c-1.7-1.9-4.1-1-4.1,1.4C137.2,120.1,139.9,121,141.5,119.6
	z M116.2,116.8c0.7-0.8,0.3-4.9-0.6-5.5c-0.3-0.2-1.6-0.3-2.9-0.3c-2.2,0.1-2.3,0.2-2.5,1.6C109.8,115.7,114.4,118.9,116.2,116.8
	L116.2,116.8z M144.7,114.5c0.9-1.1,0.4-3.3-0.8-3.5c-0.6-0.1-1.4,0.1-1.8,0.4c-0.7,0.6-0.9,2.9-0.4,3.4
	C142.3,115.4,144.1,115.2,144.7,114.5L144.7,114.5z M137.1,112.9c1.4-1.9,1.3-3.5-0.2-4.7c-1.6-1.3-4.2-1.3-5.7,0
	c-1.4,1.3-1.4,2,0.1,3.8C133.6,114.7,135.6,114.9,137.1,112.9L137.1,112.9z M119.2,110.1c0-1.7-1-2.7-2.3-2.2
	c-0.5,0.2-0.7,0.8-0.7,1.9c0,1.3,0.2,1.6,1.1,1.8C118.9,111.9,119.2,111.7,119.2,110.1z M149.9,109.3c0.9-1.1-0.6-4-2.2-4
	c-2.9,0-4.8,3.2-2.4,4.2C146.9,110.2,149.2,110.1,149.9,109.3z M123.9,107.2c0.9-1,0.9-1-0.2-1.9c-1.4-1.1-2.1-0.9-2.3,0.5
	C121,108.2,122.3,108.9,123.9,107.2z M141.1,105.3c0.3-0.5,0.3-1.2,0-2.1c-0.4-1.1-0.7-1.3-2.1-1.3c-1.5,0-1.6,0.1-1.8,1.5
	c-0.1,0.8,0.1,1.9,0.4,2.2C138.4,106.5,140.5,106.3,141.1,105.3L141.1,105.3z M153.3,103.9l1.5-1.5l-1.3-1.1
	c-1.4-1.2-2.6-1.4-3.5-0.6c-1.2,1.2-0.3,4.6,1.1,4.6C151.4,105.3,152.4,104.7,153.3,103.9z M129.7,103.3c0.4-0.5,0.4-0.9-0.2-1.9
	c-0.6-0.9-1.1-1.2-2.2-1.1c-1.7,0.2-2.2,1.4-0.9,2.8C127.2,104.1,128.9,104.2,129.7,103.3L129.7,103.3z M146.5,99.5
	c0.2-1.9-1.6-3.2-3.9-2.8c-1.4,0.3-1.6,0.5-1.6,1.8c0,2.1,0.8,2.7,3.3,2.5C146.2,100.9,146.3,100.8,146.5,99.5L146.5,99.5z
	 M134.8,97.5c0.1-1.8,0-2.1-1.2-2.5c-1.7-0.7-3.4,0.1-3.4,1.5c0,1.5,1.8,3.3,3.3,3.1C134.5,99.5,134.6,99.3,134.8,97.5L134.8,97.5z
	 M156.7,97.7c0.1-0.4,0-1.1-0.3-1.7c-1-2-3.5-0.5-2.6,1.6C154.1,98.5,156.4,98.6,156.7,97.7L156.7,97.7z M148.7,92.9
	c0-1.2-0.2-1.4-1.1-1.4c-1.3,0-2.2,1.2-1.8,2.3c0.2,0.6,0.7,0.7,1.6,0.7C148.5,94.4,148.7,94.2,148.7,92.9L148.7,92.9z M138.9,92.7
	c0-0.4-0.4-0.7-0.8-0.8c-0.8-0.1-1.1,0.8-0.5,1.5C138,93.8,138.9,93.4,138.9,92.7z M161.1,92.6c0.6-0.6,0.9-1.5,0.8-2.2
	c-0.1-1-0.4-1.2-2.1-1.3c-1.8-0.1-2.1,0-2.5,1.1c-0.6,1.6-0.6,1.9,0.3,2.8C158.7,94,159.9,93.8,161.1,92.6L161.1,92.6z M152.9,88.3
	c0-0.6-0.4-1-1.1-1.1c-1.4-0.2-2.2,0.5-1.8,1.5C150.5,89.9,152.9,89.5,152.9,88.3z M142.8,87.3c0-0.4-0.4-0.7-0.9-0.7
	S141,87,141,87.3s0.4,0.7,0.9,0.7S142.8,87.8,142.8,87.3z M147.8,83.5c0.2-0.7-1.2-1.3-1.8-0.7c-0.3,0.3-0.3,0.7-0.1,1
	C146.3,84.5,147.6,84.2,147.8,83.5z M169.7,81.1c0.9-1.3,1.7-2.5,1.7-2.7s0.6-1,1.4-1.8c1-1.1,1.5-2.2,1.9-4.2
	c0.3-1.5,0.7-3,0.9-3.2c1-1.1-0.3-3.6-1.9-3.6c-0.4,0-1-0.3-1.3-0.6c-0.4-0.4-1.7-0.7-4.6-0.7c-3.5,0-4.3,0.1-5.5,1
	c-0.7,0.6-1.9,1.2-2.5,1.4c-2.2,0.7-3,5.8-1,6.8c1.1,0.6,1.1,1.5,0,2.5c-1.3,1.2-1.2,2.9,0.1,3.5c0.6,0.2,1.7,0.8,2.5,1.4
	c0.8,0.6,1.9,1,2.4,1c0.6,0,1.3,0.3,1.6,0.7C166.4,84,167.8,83.5,169.7,81.1L169.7,81.1z M152.9,78.7c0-0.4-0.4-0.7-0.8-0.8
	c-0.8-0.1-1.1,0.8-0.5,1.5C152.1,79.8,152.9,79.4,152.9,78.7z M205.7,75.8c0.7-1.1,0.9-3.9,0.4-7.5c-0.2-1.5-0.8-2.7-1.9-4
	c-0.9-1-1.6-2.3-1.6-2.9c0-1-0.3-1.3-4.2-4.4c-4.2-3.4-6.5-0.8-2.9,3.4c1,1.2,2,2.6,2.1,3c0.1,0.5,1,1.3,2,1.8c1.8,1,1.8,1.8,0,1.8
	c-1.3,0-4.5-2.4-5.2-3.9c-0.8-1.7-4.3-4.6-5.4-4.4c-1.5,0.2-1.5,1-0.1,2.8c1.1,1.3,1.3,2.1,1.5,4.9c0.2,4.2,0.8,5,3.8,5
	c1.6,0,2.4,0.2,3,0.9c0.5,0.5,1.5,1.1,2.4,1.2c1.2,0.2,1.7,0.7,2.2,1.9C202.8,77.1,204.6,77.4,205.7,75.8L205.7,75.8z M153.8,60
	c1-1,1.3-1.7,1.1-2.9c-0.3-3.4-3.7-1.6-3.7,2C151.3,61.8,151.9,62,153.8,60z M183.6,58.8c0-0.4-0.3-0.7-0.7-0.7
	c-0.4,0-0.7,0.3-0.7,0.7s0.3,0.7,0.7,0.7C183.2,59.5,183.6,59.2,183.6,58.8z M189,50.4c0.7-0.4,1.7-0.7,2.2-0.7
	c0.5,0,1.3-0.3,1.7-0.7c0.4-0.4,1.9-0.8,3.2-1c1.9-0.2,2.6-0.6,3.3-1.6c1.3-1.8,1.2-2.6-0.7-3.5c-1.7-0.8-1.9-0.8-5,0.8
	c-0.5,0.2-1.5,0.4-2.2,0.4c-2.7,0-7,3.2-7,5.1c0,0.7,0.1,1.4,0.3,1.6C185.3,51.3,187.6,51.1,189,50.4z M182.1,47.5
	c1.2-0.8,1.2-2.4,0-3.2c-1.2-0.7-4.1,0.7-4.1,2.2c0,0.6,0.1,1.2,0.3,1.4C178.8,48.5,181,48.3,182.1,47.5z M206.9,40.6
	c0.4-0.4,1.4-0.8,2.2-1.1c1.4-0.4,1.4-0.6,1.7-4.1c0.2-2.2,0.1-3.9-0.1-4.3c-0.8-0.9-6.6-0.3-7.8,0.9c-1,0.9-1,1-0.4,2
	c1,1.6,0.9,2.1-0.8,2.1c-0.8,0-2,0.3-2.5,0.7c-0.5,0.4-1.3,0.7-1.7,0.7c-2,0-1.2,2.3,0.8,2.3c0.6,0,1.3,0.3,1.6,0.7
	C200.7,41.5,205.9,41.5,206.9,40.6L206.9,40.6z M187.1,39.4c1-0.4,1.2-0.7,1.1-1.8c-0.2-1.7-2-1.9-3.8-0.4
	C181.9,39.2,183.8,40.6,187.1,39.4z M199.2,34.5l1.4-1.1l-1.5-2.2c-1.3-1.8-1.8-2.2-3-2.2c-1.8,0-2.6,0.7-2.6,2.5
	c0,1,0.4,1.8,1.5,2.7C196.8,35.9,197.5,35.9,199.2,34.5z"/>
</svg>
