<?xml version="1.0" encoding="utf-8"?>
<!-- Generator: Adobe Illustrator 17.0.0, SVG Export Plug-In . SVG Version: 6.00 Build 0)  -->
<!DOCTYPE svg PUBLIC "-//W3C//DTD SVG 1.1//EN" "http://www.w3.org/Graphics/SVG/1.1/DTD/svg11.dtd" [
	<!ENTITY ns_flows "http://ns.adobe.com/Flows/1.0/">
	<!ENTITY ns_extend "http://ns.adobe.com/Extensibility/1.0/">
	<!ENTITY ns_ai "http://ns.adobe.com/AdobeIllustrator/10.0/">
	<!ENTITY ns_graphs "http://ns.adobe.com/Graphs/1.0/">
]>
<svg version="1.1" id="Layer_1" xmlns:x="&ns_extend;" xmlns:i="&ns_ai;" xmlns:graph="&ns_graphs;"
	 xmlns="http://www.w3.org/2000/svg" xmlns:xlink="http://www.w3.org/1999/xlink" xmlns:a="http://ns.adobe.com/AdobeSVGViewerExtensions/3.0/"
	 x="0px" y="0px" width="256px" height="256px" viewBox="0 0 256 256" style="enable-background:new 0 0 256 256;"
	 xml:space="preserve">
<path d="M157.6,204.8c-0.4-0.4-0.4-0.5,0-1c0.2-0.3,0.4-0.8,0.4-1.1c0-0.3,0.1-0.6,0.2-0.6c0.1,0,0.3-0.6,0.4-1.3
	c0.1-0.7,0.3-1.3,0.4-1.3s0.2-0.6,0.3-1.2s0.2-1.3,0.4-1.4c0.1-0.1,0.3-0.7,0.4-1.4c0.1-0.7,0.3-1.3,0.4-1.3s0.3-0.4,0.4-0.9
	s0.2-0.9,0.3-0.9c0.1,0,0.2-1,0.3-2.3c0.1-1.6,0.3-2.4,0.5-2.7c0.2-0.2,0.4-0.7,0.4-1.1s0.1-0.7,0.2-0.7s0.3-0.5,0.4-1.2
	c0.1-0.6,0.3-1.2,0.4-1.3c0.1-0.1,0.3-0.9,0.4-1.9s0.2-1.8,0.3-1.8s0.2-0.5,0.3-1s0.3-1.1,0.4-1.1c0.1,0,0.3-0.4,0.3-0.7
	c0-0.3,0.2-1.1,0.5-1.7c0.3-0.6,0.4-1.2,0.4-1.4c-0.1-0.2-0.1-0.1-0.1,0.2c0,0.4-0.1,0.4-0.3,0.2c-0.4-0.4-0.9-0.4-1,0.2
	c-0.1,0.3-0.3,0.5-0.5,0.5s-0.3,0.2-0.3,0.5c0,0.3-0.1,0.5-0.2,0.5c-0.1,0-0.3,0.2-0.4,0.5c-0.1,0.5-3.3,3.8-3.3,3.5
	c0-0.1-0.4,0.3-0.9,0.8s-0.9,1-0.9,1.1c0,0.1-0.2,0.3-0.4,0.4c-0.2,0.1-0.4,0.3-0.5,0.6c-0.1,0.2-0.4,0.6-0.7,0.8s-0.7,0.6-0.7,0.9
	c-0.1,0.3-0.8,1.1-1.6,1.8c-0.8,0.7-1.9,1.7-2.4,2.2c-1.2,1.1-2.2,1.9-2.2,1.8c0-0.1-0.2,0.1-0.5,0.4s-0.6,0.5-0.8,0.5
	s-0.4,0.1-0.5,0.3c-0.2,0.4-2.4,1.9-2.7,1.9c-0.1,0-0.3,0.1-0.3,0.2s-0.3,0.3-0.7,0.5s-1.1,0.6-1.5,1s-1.3,1.2-1.9,1.7
	c-0.6,0.5-1.7,1.5-2.5,2.2c-0.8,0.7-1.7,1.3-2,1.4c-0.3,0.1-0.6,0.2-0.6,0.3c0,0.1-0.4,0.3-0.8,0.5c-0.4,0.2-1,0.6-1.3,0.9
	c-0.9,0.9-2.5,1.4-2.5,0.7c0-0.5,1.2-1.6,1.8-1.7c0.3-0.1,0.7-0.4,0.9-0.7c0.2-0.3,0.7-0.6,0.9-0.6c0.5,0,2.3-1.2,3.1-1.9
	c0.2-0.2,0.7-0.6,1.2-0.9s0.8-0.7,1-0.9c0.3-0.6,0.1-1.4-0.3-1.4c-0.3,0-1.1-0.9-1.1-1.2c0-0.1-0.2-0.2-0.4-0.2
	c-0.2,0-0.4-0.2-0.5-0.4c-0.1-0.2-0.2-0.4-0.4-0.4s-0.8-0.5-1.4-1.2c-0.7-0.7-1.3-1.2-1.4-1.2c-0.3,0-1.1-0.6-2.1-1.6
	c-0.8-0.8-1.3-0.9-2-0.6c-0.9,0.4-2.2,0.8-3.2,0.8c-0.7,0-1.2,0.2-1.5,0.5c-0.3,0.3-1.4,0.7-2.6,0.9c-2.9,0.6-2.9,0.6-2.6,2.9
	c0.1,1,0.3,1.8,0.4,1.7c0.1-0.1,0.2,0.7,0.3,1.6c0.1,0.9,0.2,1.8,0.4,1.9s0.3,0.6,0.4,1.2c0.1,0.6,0.2,1,0.3,0.9
	c0.1-0.1,0.3,0.6,0.3,1.4c0.1,0.8,0.3,1.6,0.4,1.6c0.4,0.1,0.3,1.7-0.1,1.7c-0.2,0-0.4-0.2-0.4-0.7c0-0.5-0.1-0.6-0.2-0.3
	c-0.1,0.2-0.3-0.1-0.4-1c-0.1-0.7-0.3-1.3-0.4-1.4s-0.3-0.5-0.4-0.9c-0.1-0.4-0.3-0.8-0.4-0.9c-0.1-0.1-0.3-1-0.4-2.1
	c-0.1-1.1-0.2-2-0.3-2s-0.2-1-0.3-2.1c-0.1-1.2-0.3-2.4-0.5-2.7c-0.3-0.5-0.3-0.6,0-0.8c0.3-0.2,0.3-0.2,0-0.3
	c-0.3-0.1-0.3-0.7-0.3-2.8c0-1.5,0.2-2.8,0.3-2.9c0.3-0.3,0.3-2.8,0-2.8c-0.1,0-0.2-0.4-0.2-1c0-0.6,0.1-0.9,0.2-0.8
	c0.2,0.1,0.2-0.6,0.2-1.8c0-1.6-0.1-2.1-0.5-2.5c-0.8-0.9-1.3-0.3-1.5,1.7c-0.2,2.4,0,8.4,0.3,8.8c0.2,0.2,0.3,1.8,0.3,4
	c0,3.2,0,3.6-0.3,3.3c-0.3-0.3-0.3-1.1-0.4-3.7c0-3.5-0.2-4.5-0.8-3.7c-0.2,0.2-0.4,0.4-0.5,0.3c-0.1-0.1-0.2,0-0.2,0.3
	c0,0.2,0.1,0.4,0.2,0.3c0.2-0.1,0.2,0.4,0.2,1.3c0,1-0.1,1.3-0.2,1c-0.2-0.3-0.2-0.2-0.2,0.4c0,0.6-0.1,0.8-0.4,0.7
	c-0.3,0-0.5,0.2-0.5,0.5c-0.1,0.6,0.4,1.3,0.6,0.8c0.1-0.2,0.3-0.3,0.5-0.3c0.3,0,0.3,0.1,0.1,0.1c-0.4,0.1-0.4,1.3-0.1,1.3
	c0.1,0,0.2,0.2,0.2,0.5c0,0.4,0,0.5-0.2,0.2c-0.2-0.3-0.2-0.2-0.2,0.3c0,0.4,0.1,0.7,0.2,0.7c0.4,0,0.3,1.4-0.1,1.6
	c-0.3,0.1-0.3,0.2-0.1,0.5c0.2,0.2,0.2,0.4,0,0.5c-0.1,0.1-0.2,0.3-0.1,0.4c0.1,0.1,0.2,0.2,0.3,0.1c0.2-0.1,0.5,0.4,0.5,1.1
	c0,0.2,0.1,0.5,0.2,0.5c0.3,0.1,0.4,2.2,0.1,2.3c-0.2,0.1-0.4-0.5-0.5-1.4c-0.2-1.2-0.3-1.4-0.4-1c-0.2,0.6-0.7,0.7-1,0.2
	c-0.1-0.2-0.1-1.2-0.1-2.1c0-1.6-0.4-3.1-0.8-3.1c-0.1,0-0.1,0.3,0,0.6c0.1,0.4,0,0.6-0.1,0.6c-0.2,0-0.3,0.5-0.3,1.2
	c0,0.7,0.1,1.2,0.3,1.2c0.1,0,0.2,0.5,0.2,1c0,0.6,0,1.6,0.1,2.3c0.1,0.7,0.1,1,0,0.8c-0.1-0.2-0.2-0.4-0.3-0.3
	c-0.2,0.2-0.5-4.7-0.4-7.1c0.1-1.2,0.2-1.9,0.4-2c0.3-0.2,0.3-0.3-0.1-0.5c-0.2-0.1-0.6-0.4-0.7-0.6c-0.7-0.7-0.9,0.2-1.1,3.7
	c-0.1,1.9-0.2,3.4-0.4,3.4s-0.2,0.2-0.2,0.4s-0.2,0.4-0.4,0.4c-0.2,0-0.4,0.1-0.4,0.2c-0.1,1.4-0.2,1.9-0.4,2.3
	c-0.1,0.3-0.3,1.1-0.4,1.9c-0.1,0.8-0.2,1.4-0.4,1.4c-0.1,0-0.3,0.3-0.4,0.6c-0.1,0.5-0.2,0.6-0.5,0.3c-0.3-0.2-0.3-0.6-0.2-1.8
	c0.1-0.8,0.2-1.6,0.3-1.6c0.1-0.1,0.3-0.8,0.4-1.6s0.3-1.5,0.4-1.6c0.1-0.1,0.3-0.7,0.4-1.3s0.2-1.1,0.3-1c0.1,0.1,0.2-0.5,0.2-1.2
	c0-0.8-0.1-1.3-0.2-1.2c-0.1,0.1-0.3-0.2-0.4-0.6c-0.1-0.4-0.3-0.7-0.4-0.7c-0.1,0-0.3-0.3-0.4-0.7s-0.3-0.8-0.5-0.8
	c-0.2-0.1-0.4-0.3-0.4-0.4c0-0.3-0.2-0.6-1.6-2.1c-0.6-0.6-1-1.2-1-1.3s-0.3-0.3-0.7-0.5c-0.4-0.2-0.8-0.5-0.9-0.8
	c-0.2-0.7,0-0.8,0.5-0.3c0.2,0.2,0.5,0.4,0.6,0.4s0.3,0.1,0.3,0.2s0.2,0.2,0.4,0.2c0.2,0,0.4,0.2,0.5,0.4c0.1,0.2,0.3,0.4,0.5,0.4
	c0.3,0,0.3-0.2,0.2-0.7c-0.1-0.4-0.2-0.7-0.3-0.8c-0.1-0.1-0.2-0.3-0.3-0.6c-0.2-0.4-0.1-0.4,0.5,0c0.8,0.5,1.7,1.5,2.6,2.9
	c0.4,0.7,1,0.9,1.3,0.4c0.1-0.1,0-0.4-0.2-0.6c-0.2-0.2-0.4-0.6-0.5-0.9c-0.1-0.3-0.3-0.5-0.4-0.5c-0.1,0-0.3-0.2-0.4-0.5
	c-0.2-0.6-0.3-0.7-1.5-2.1c-0.4-0.5-0.8-1-0.8-1.2c0-0.2-0.2-0.4-0.4-0.4c-0.4-0.2-0.5-0.6-0.1-0.6c0.4,0,1.4,1.1,1.4,1.5
	c0,0.2,0.1,0.2,0.1,0.2c0.2-0.2,1.3,1,1.3,1.3c0,0.1,0.2,0.2,0.4,0.2c0.3,0,0.4-0.2,0.2-0.7c-0.1-0.7-0.3-0.9-1.1-1.8
	c-0.2-0.2-0.3-0.5-0.3-0.6s-0.2-0.3-0.3-0.3c-0.2,0-0.4-0.4-0.5-1c-0.1-0.5-0.3-1-0.4-1s-0.2-0.2-0.2-0.3s-0.2-0.4-0.4-0.5
	c-0.2-0.1-0.4,0-0.4,0.1c0,0.1-0.4,0.2-0.9,0.2c-0.5,0-1.1,0.1-1.3,0.2c-0.3,0.2-0.3,0.3,0.2,0.8l0.6,0.6l-0.7,0.1
	c-0.4,0-0.8,0-0.9-0.2c-0.2-0.4-1.5-0.1-1.6,0.4c-0.1,0.2-0.2,0.3-0.3,0.2c-0.1-0.1-0.2,0-0.2,0.3s0.1,0.3,0.2,0.2s0.2,0,0.2,0.2
	s0.2,0.4,0.4,0.4c0.2,0,0.8,0.2,1.2,0.5l0.7,0.5l-1.4-0.2c-0.9-0.1-1.4-0.1-1.4,0.1c0,0.1,0.1,0.3,0.3,0.3c0.2,0,0.2,0.1,0,0.4
	c-0.2,0.2-0.6,0.3-1.1,0.3c-1.6-0.1-2,0-3.3,1.3c-0.7,0.7-1.3,1.4-1.3,1.6s-0.1,0.3-0.2,0.3s-0.3,0.2-0.4,0.5s-0.2,0.4-0.4,0.4
	c-0.1-0.1-0.3,0-0.3,0.2c-0.2,0.5-0.9,0.5-0.9,0c0-0.2,0.2-0.5,0.4-0.7s0.4-0.5,0.4-0.7c0-0.4-1.9-0.1-2.5,0.5
	c-0.6,0.6-1.9,1.2-2.5,1.2c-0.2,0-1,0.3-1.7,0.7c-0.7,0.4-1.6,0.8-1.9,0.8c-0.3,0-0.7,0.2-0.9,0.4c-0.3,0.4-1.4,0.4-1.9,0.1
	c-0.4-0.3-0.2-1,0.5-1.5c0.3-0.2,2-0.8,3.9-1.4c1.8-0.6,3.6-1.2,4-1.4c0.4-0.2,1.3-0.7,2.1-1.1s1.7-0.9,1.9-1.1s0.9-0.5,1.5-0.7
	c1.1-0.3,3.5-2.3,3.5-2.9c0-0.2,0.1-0.2,0.2-0.1s0.2,0,0.2-0.1s0.3-0.5,0.6-0.9c0.3-0.3,0.6-0.5,0.6-0.5c0,0.1,0.8-0.6,2.4-2
	c0.6-0.6,1.2-1,1.3-1s0.2-0.2,0.3-0.4c0.1-0.2,0.8-0.8,1.6-1.4c0.8-0.5,1.5-1,1.5-1.2s0.1-0.2,0.2-0.1c0.1,0.1,0.2,0,0.2-0.2
	c0-0.2,0.2-0.4,0.4-0.5c0.2-0.1,0.4-0.3,0.4-0.4c0-0.3,1.2-1.4,1.5-1.4c0.1,0,0.2-0.1,0.2-0.2c0-0.1,0.3-0.4,0.7-0.6
	c0.4-0.2,1.1-0.8,1.5-1.3s0.9-0.8,1.1-0.8s0.3-0.1,0.3-0.2s0.3-0.3,0.6-0.5c0.6-0.3,0.9-1.5,0.4-1.5c-0.1,0-0.2-0.7-0.2-1.7
	c0-2-0.2-3.2-0.5-3.1c-0.1,0.1-0.2-0.1-0.2-0.3s-0.2-0.6-0.4-0.8s-0.8-0.8-1.2-1.3s-1-1.2-1.4-1.6c-0.4-0.4-0.7-0.9-0.7-1
	c0-0.2-0.2-0.6-0.5-0.9c-0.3-0.3-0.5-0.9-0.5-1.3c0-0.6-0.2-1-0.7-1.4c-0.4-0.4-0.7-0.7-0.7-0.9s-0.2-0.3-0.4-0.4
	c-0.4-0.1-1.3,0.7-2.1,1.8c-0.2,0.3-0.5,0.7-0.6,0.8c-0.1,0.2-0.3,0.7-0.4,1.1c-0.2,1-0.9,2.7-1.2,2.7c-0.1,0-0.2,0.3-0.3,0.7
	s-0.2,0.7-0.4,0.7s-0.3,0.4-0.3,1c-0.1,0.5-0.3,1-0.4,1s-0.2,0.2-0.2,0.4s-0.3,0.7-0.7,1.1c-0.4,0.4-0.7,0.9-0.7,1.1
	s-0.5,0.9-1.2,1.6c-0.7,0.7-1.2,1.3-1.2,1.5c0,0.1-0.1,0.2-0.2,0.1s-0.3,0.1-0.3,0.3c-0.2,0.6-1.9,1.2-2.1,0.7
	c-0.3-0.5,0-0.9,0.6-1.1c0.7-0.2,0.8-0.5,0.2-0.7c-0.6-0.2-0.4-1.3,0.4-2.2c0.4-0.5,1-1.1,1.2-1.4c0.2-0.3,0.7-0.9,1.1-1.3
	c0.8-0.8,1.6-2.2,1.6-2.7c0-0.2,0.1-0.4,0.2-0.4s0.3-0.4,0.4-0.8c0.1-0.4,0.3-0.9,0.4-0.9c0.1-0.1,0.3-0.7,0.4-1.4
	c0.1-0.7,0.2-1.3,0.3-1.3c0.1,0,0.3-0.5,0.3-1.1s0.3-1.1,0.4-1.1c0.1,0,0.3-0.2,0.4-0.5c0.1-0.3,0.4-0.8,0.7-1.1s0.6-0.6,0.6-0.7
	s0.3-0.5,0.7-1c0.4-0.4,0.6-0.8,0.5-0.8c-0.1,0-0.3-0.2-0.3-0.4c0-0.2-0.2-0.7-0.5-1l-0.7-0.8c-0.1-0.1-0.3-0.5-0.4-0.9
	s-0.3-0.7-0.4-0.7c-0.1,0-0.2-0.2-0.2-0.5s-0.1-0.6-0.3-0.8c-0.2-0.2-0.4-0.7-0.5-1c-0.1-0.4-0.3-0.8-0.4-0.9s-0.3-0.7-0.3-1.3
	c-0.1-0.7-0.2-1.2-0.4-1.3c-0.1,0-0.2-0.3-0.2-0.5c0-0.2-0.2-0.7-0.4-0.9c-0.2-0.3-0.6-0.8-0.8-1.1c-0.3-0.4-0.7-0.6-1.5-0.6
	c-1.5-0.1-3.1-0.6-3.2-1.1c-0.1-0.2-0.2-0.4-0.4-0.4c-0.1,0-0.2-1.4-0.2-3.1c0-2.4-0.1-3.2-0.4-3.5c-0.2-0.2-0.4-0.6-0.5-1
	s-0.3-0.6-0.4-0.6c-0.1,0-0.3-0.2-0.4-0.5s-0.3-0.6-0.4-0.7c-0.1-0.1-0.2-1.7-0.3-3.6c-0.1-2.8-0.2-3.5-0.5-3.8
	c-0.2-0.2-0.4-0.7-0.4-1c0-0.3-0.1-0.6-0.2-0.6c-0.3,0-0.3-3.1-0.1-3.2c0.1,0,0.4-0.6,0.7-1.1c0.5-0.8,0.5-1.3,0.4-2.1
	c-0.1-0.6-0.3-1-0.4-1c-0.4,0.2-0.5-2.4-0.4-7.3c0.1-3.6,0.2-4.9,0.4-4.9c0.2-0.1,0.3-1,0.3-3.4c0-2.1-0.1-3.2-0.2-3.1
	c-0.2,0.1-0.2-0.6-0.2-1.9c0-1.3,0.1-2.1,0.3-2.1c0.1,0,0.3-0.8,0.4-1.6c0.1-0.8,0.2-1.5,0.3-1.4c0.1,0.1,0.2-0.4,0.3-1
	c0.1-0.6,0.2-1.2,0.4-1.3s0.3-0.6,0.4-1.1c0.1-0.5,0.3-1.1,0.4-1.2s0.3-1,0.4-1.9s0.2-1.6,0.3-1.5s0.3-0.3,0.4-0.9
	c0.1-0.5,0.3-1,0.4-1c0.1,0,0.3-0.3,0.4-0.8s0.3-0.9,0.4-1.1c0.7-0.8,0.9-1.1,0.9-1.3c0-0.1,1-1.3,2.3-2.5c1.2-1.3,2.4-2.5,2.6-2.8
	c0.5-0.7,1.1-1.5,1.6-2c0.6-0.6,1.1-1.8,1.1-2.6c0-0.4,0.1-0.8,0.2-0.8c0.1,0,0.3-0.4,0.4-0.9c0.1-0.5,0.2-0.9,0.3-0.9
	c0.1,0,0.7-0.5,1.3-1.1c0.9-0.8,1.6-1.2,3-1.6c1.2-0.4,2.1-0.8,2.7-1.3c0.5-0.4,1-0.8,1.1-0.8c0.1,0,0.2-0.2,0.3-0.5
	c0.1-0.3,0.4-0.5,0.7-0.5c0.3,0,0.9-0.2,1.3-0.4c0.9-0.5,3.4-0.5,4.2-0.1c0.3,0.2,1.8,0.4,3.3,0.5c3.8,0.3,5.3,0.6,7.2,1.3
	c0.9,0.3,2.1,0.7,2.6,0.7c1.1,0.2,3.5,1.3,4.1,1.9c0.4,0.4,0.8,0.4,2.5,0.4c1.3,0,2.2,0,2.3,0.2c0.2,0.2,0.5,0.3,0.8,0.3
	c0.5,0,2.6,0.9,2.8,1.2c0.1,0.1,0.7,0.2,1.5,0.3c0.7,0.1,1.4,0.3,1.6,0.4c0.1,0.1,0.9,0.4,1.8,0.7c1.9,0.7,3.2,1.5,3.4,2.2
	c0.1,0.3,0.2,0.5,0.4,0.5c0.1,0,0.2,0.3,0.2,0.6c0,0.5-0.1,0.6-0.6,0.6c-0.3,0-0.6-0.1-0.6-0.2c0-0.4-1.4-1.7-2-1.9
	c-0.3-0.1-1.2-0.5-2.1-0.9c-0.9-0.4-2.1-0.8-2.7-0.9c-0.6-0.1-1.4-0.3-1.7-0.5c-0.3-0.2-1-0.6-1.5-0.7s-1-0.4-1.1-0.5
	c-0.1-0.1-1.1-0.1-2.1-0.1s-2,0-2.2-0.2c-0.3-0.1-0.8-0.1-1.6,0.1c-0.9,0.3-1.4,0.3-2,0.1c-1.3-0.4-0.9-1,0.7-1
	c0.8,0,0.9-0.5,0.1-0.6c-1-0.1-1.7-0.4-1.8-0.6c-0.1-0.1-1.5-0.6-3.2-0.9c-1.7-0.4-3.5-0.8-4-1s-1.9-0.3-3-0.4s-2.6-0.2-3.3-0.4
	c-1.5-0.3-3.1-0.3-3.8,0c-0.4,0.2-1,0.7-1.7,1.3c-0.9,0.8-3.4,2.1-4,2.1c-0.6,0-1.1,0.3-2.1,1.3c-1.1,1.1-1.4,1.5-1.4,2.2
	c0,0.5-0.2,1-0.4,1.2c-0.2,0.2-0.4,0.5-0.4,0.6c0,0.1-0.2,0.4-0.5,0.5c-0.3,0.1-0.5,0.4-0.5,0.5c0,0.3-0.4,0.8-2.2,2.6
	c-0.8,0.9-1.6,1.5-1.8,1.5s-0.2,0.2-0.2,0.5c0,0.5,0.1,0.5,0.9,0.4c0.5-0.1,1.2-0.4,1.5-0.8s0.7-0.6,0.9-0.6s0.4-0.3,0.6-0.7
	c0.3-0.6,0.4-0.7,1.3-0.7c0.6,0,1.3,0.2,1.7,0.4c0.7,0.4,2.7,0.5,3,0.3c0.1-0.1-0.2-0.5-0.7-0.9l-0.8-0.8l0.8,0.1
	c0.5,0.1,1,0.3,1.1,0.4c0.7,0.6,3.1,1.9,3.4,1.9c0.2,0,0.6,0.3,1,0.6c0.7,0.7,1.3,0.6,1.3-0.3c0-0.4-0.2-0.7-0.5-0.8
	c-0.3-0.1-0.5-0.2-0.5-0.3c0-0.1-0.3-0.3-0.7-0.5c-0.4-0.2-0.7-0.4-0.7-0.5c0-0.1-0.3-0.3-0.7-0.4s-0.9-0.5-1.1-0.8
	c-0.2-0.3-0.6-0.5-0.9-0.5c-0.6,0-1.7-0.5-1.7-0.8c0-0.3,1.1-0.2,1.5,0.1c0.2,0.2,0.7,0.4,1.1,0.5c0.4,0.1,1.6,0.5,2.5,0.9
	c2,0.9,2.4,0.9,2.3,0.2c-0.1-0.3-0.2-0.5-0.3-0.5c-0.1,0-0.5-0.3-1-0.7c-0.4-0.4-1-0.7-1.1-0.7c-0.2,0-0.3-0.1-0.3-0.2
	s-0.2-0.3-0.5-0.3c-0.6-0.2-0.6-0.7-0.1-0.7c0.6,0,2.8,1.6,4.2,2.9c1,1,2.2,1.8,2.7,1.8c0.4,0,0.2-0.7-0.2-0.9
	c-0.2-0.1-0.4-0.3-0.4-0.6c0-0.2-0.4-0.8-0.9-1.3s-0.9-1-0.9-1.1c0-0.4,1.1-1.5,1.6-1.5c0.4,0,2.2,1.1,2.8,1.7
	c0.5,0.5,0.6,1.2,0.1,1c-0.5-0.2-0.5,0.5,0.1,1c0.3,0.2,0.6,0.4,0.7,0.4c0.1,0,0.4,0.3,0.7,0.6c0.5,0.5,0.9,0.8,2.5,1.4
	c0.4,0.2,0.8,0.3,0.9,0.4s0.2-0.1,0.2-0.3s-0.3-0.4-0.7-0.5c-0.4-0.1-0.9-0.4-1.2-0.7c-0.5-0.5-0.6-0.6-0.2-0.9
	c0.4-0.3,0.6-0.2,1.6,0.1c1.1,0.4,1.2,0.4,1,0c-0.1-0.2-0.2-0.4-0.3-0.3c-0.1,0.1-0.3-0.1-0.4-0.4s-0.3-0.5-0.4-0.5
	c-0.1,0-0.2-0.1-0.2-0.2c0-0.3,0.6-0.3,0.8-0.1c0,0.1,0.5,0.4,1,0.6c0.5,0.3,1.1,0.6,1.3,0.9c0.5,0.4,2,0.9,2,0.6
	c0-0.2-1.2-0.8-1.8-0.8c-0.2,0-0.5-0.2-0.6-0.4c-0.1-0.2-0.2-0.3-0.4-0.2c-0.1,0.1-0.2,0-0.2-0.1s-0.2-0.3-0.4-0.3
	c-0.2,0-0.4-0.1-0.4-0.2c0-0.1-0.1-0.2-0.2-0.2c-0.3,0-1.2-0.9-1.2-1.2c0-0.5,0.9-0.2,1.6,0.4c0.4,0.3,1.1,0.7,1.6,0.9
	c0.5,0.2,0.9,0.4,0.9,0.5c0,0.4,1,0.4,1.4,0c0.5-0.6,1-0.6,2.3,0.1c0.6,0.3,1.7,0.7,2.3,0.9s1.4,0.3,1.7,0.4c0.3,0.1,0.5,0,0.5-0.1
	s-0.1-0.2-0.2-0.2c-0.3,0-1.2-0.9-1.2-1.2c0-0.1,0.3-0.2,0.7-0.2s0.9-0.2,1.1-0.4c0.5-0.5,1-0.5,2.2,0.1c0.7,0.3,1.1,0.4,1.6,0.2
	c0.4-0.1,0.9-0.1,1.3,0c0.4,0.1,1,0.3,1.4,0.3c0.5,0,2.2,0.8,3.1,1.6c0.3,0.3-0.7,0.5-1.6,0.4c-1-0.1-1-0.1-1,0.4
	c0,0.5-0.1,0.5-0.7,0.4c-1.4-0.4-5.4,0.1-5.4,0.7c0,0.3-0.8,1.1-1.3,1.3c-0.3,0.1-1.1,0.2-1.9,0.3c-0.9,0.1-1.6,0.2-1.7,0.5
	c-0.1,0.2-0.3,0.3-0.4,0.2c-0.1-0.1-0.2,0-0.2,0.1c0,0.6-3.2,1.8-6.1,2.3c-1.1,0.2-2.1,0.4-2.2,0.5c-0.3,0.4-4.9,0.7-6.3,0.4
	c-1.3-0.3-1.5-0.2-2.8,0.4c-1.5,0.7-1.3,0.7-5.3,0.3c-0.2,0-0.4-0.2-0.5-0.3c-0.1-0.2-0.2-0.2-0.2,0c0,0.2-0.2,0.3-0.4,0.4
	c-0.4,0.2-2.5-0.3-2.5-0.6c0-0.2-1.3-0.1-1.9,0.2c-0.2,0.1-0.4,0.2-0.5,0.2c-0.7,0.2-1,0.5-1.1,0.9c-0.1,0.3-0.8,1.1-1.6,1.9
	c-0.8,0.8-1.4,1.5-1.4,1.6c0,0.1-0.1,0.3-0.2,0.5l-1,1.1c-0.4,0.5-0.7,1-0.7,1.2s-0.2,0.5-0.5,0.7c-0.3,0.2-0.5,0.6-0.5,0.8
	c0,0.2-0.1,0.4-0.2,0.4c-0.1,0-0.3,0.4-0.4,0.9c-0.1,0.5-0.3,1-0.4,1.1c-0.1,0.1-0.3,0.7-0.4,1.5s-0.3,1.4-0.4,1.5
	c-0.1,0.1-0.3,1.2-0.4,2.6c-0.1,1.3-0.3,2.5-0.4,2.6c-0.2,0.1-0.2,1.6-0.2,4.6c0.1,4.9,0,5.9-0.6,5.7c-0.3-0.1-0.3,0-0.3,0.4
	c0,0.3,0.2,0.5,0.4,0.5c0.4-0.1,0.4,0.6,0,0.7c-0.1,0-0.3,0.9-0.4,1.9c-0.1,1-0.2,1.8-0.4,1.9c-0.1,0.1-0.2,0.8-0.2,1.6
	c0,1.3,0.1,1.6,0.6,2c0.3,0.3,0.7,0.9,0.8,1.3s0.2,0.7,0.4,0.7c0.1,0,0.2,0.2,0.2,0.5s0.2,0.6,0.4,0.8c0.5,0.5,0.6,4.7,0.2,5
	c-0.1,0.1-0.3,0.8-0.4,1.6c-0.1,0.8-0.3,1.5-0.4,1.6c-0.1,0.1-0.2,1-0.3,2c-0.1,1.3-0.2,2-0.5,2.1c-0.3,0.2-0.3,0.3-0.1,0.4
	c0.2,0.1,0.3,0.5,0.3,0.9c0,0.6,0.1,0.8,0.4,0.7c0.2-0.1,0.4-0.5,0.4-1.1c0-0.6-0.1-0.9-0.2-0.8c-0.1,0.1-0.2,0-0.2-0.2
	c0-0.2,0.1-0.4,0.2-0.4c0.1,0,0.3-0.5,0.4-1.2s0.3-1.2,0.4-1.3c0.1,0,0.3-0.7,0.4-1.4s0.2-1.4,0.4-1.5c0.1-0.1,0.3-0.8,0.4-1.5
	s0.2-1.4,0.3-1.4c0.1,0,0.2-0.4,0.2-0.8c0-0.5,0.1-0.9,0.3-1c0.4-0.3,0.6,0.1,0.2,0.7c-0.2,0.4-0.2,0.6-0.1,0.6
	c0.4,0.1,0.3,0.7-0.1,1c-0.2,0.2-0.4,0.6-0.4,1s-0.1,0.7-0.2,0.8c-0.1,0.1-0.3,0.8-0.4,1.6c-0.1,0.8-0.3,1.5-0.4,1.5s-0.3,1-0.4,2.3
	s-0.3,2.3-0.4,2.3c-0.3,0-0.3,0.9,0,1.1c0.1,0.1,0.2,0.7,0.2,1.4c0,0.7-0.1,1.2-0.2,1.2c-0.1,0-0.2,0.4-0.2,0.8
	c0,0.6,0.2,0.9,0.7,1.2l0.7,0.4l0-3.9c0-2.6,0.1-3.9,0.3-4.1c0.1-0.1,0.4-1,0.4-2.1c0.1-1,0.3-1.9,0.4-1.9s0.3-0.7,0.4-1.6
	c0.1-0.9,0.3-1.8,0.6-2c0.3-0.3,0.4-0.2,0.2,1.2c-0.1,0.9-0.3,1.6-0.4,1.7c-0.2,0.1-0.7,3.9-0.6,4.9c0,0.3-0.1,0.7-0.2,0.8
	c-0.2,0.1-0.3,0.7-0.4,1.5c-0.1,1.9,0.2,4.8,0.4,4.7c0.2-0.1,0.4,1.1,0.3,2.6c0,0.6,0,0.9,0.3,0.9c0.2,0,0.4-0.1,0.5-0.3
	c0.2-0.6,0-4.1-0.2-4.3c-0.3-0.2-0.6-4.6-0.3-5.3c0.3-0.7,0.7-0.7,0.7,0.1c0,0.3,0.1,0.6,0.2,0.6s0.3,0.2,0.3,0.4
	c0.1,0.3,0.1,0.3,0.1-0.1c0-0.3,0.2-0.6,0.4-0.7c0.3-0.1,0.4,0.2,0.4,1.7c0,1,0.1,1.9,0.2,1.9c0.1,0.1,0.3,0.7,0.4,1.4
	c0.1,0.7,0.3,1.3,0.3,1.4c0.4,0.3,0.5,1.7,0.1,2.1c-0.2,0.2-0.4,0.8-0.5,1.4c-0.1,0.6-0.3,1.1-0.4,1.2c-0.4,0.3,0,0.5,0.5,0.3
	c0.3-0.1,0.5-0.4,0.6-0.6c0.1-0.3,0.3-0.5,0.5-0.5c0.4,0,0.3,0.6-0.3,1.2c-0.2,0.2-0.3,0.6-0.3,1c0,0.4-0.1,0.7-0.2,0.7
	c-0.3,0-0.3,1.9,0,2.1c0.1,0.1,0.3-0.1,0.4-0.5s0.2-0.6,0.4-0.6c0.1,0,0.3-0.3,0.4-0.7s0.3-0.8,0.5-0.9c0.3-0.1,0.4-0.4,0.3-1.4
	c-0.1-0.7-0.2-1.3-0.4-1.4c-0.3-0.1-0.4-2.2-0.1-2.2c0.1,0,0.3-0.8,0.3-1.8c0.1-1,0.2-1.9,0.4-2c0.2-0.1,0.4-0.5,0.4-0.8
	c0.1-0.4,0.3-0.6,0.4-0.5c0.1,0.1,0.2,0,0.2-0.1c0-0.1,0.4-0.6,0.8-1.1c0.4-0.5,0.9-1,1.1-1.3c0.2-0.2,0.5-0.4,0.7-0.4
	c0.3,0,0.3,0.1,0.1,0.1c-0.2,0.1-0.3,0.3-0.3,0.5c0,0.2-0.5,0.8-1.1,1.4c-0.7,0.7-1.2,1.4-1.2,1.9l-0.1,0.8l0.8-0.8
	c0.4-0.4,0.8-0.9,0.8-1c0-0.1,0.3-0.5,0.7-0.9s0.7-0.8,0.7-0.9c0-0.1,0.4-0.5,0.9-1s0.9-0.9,0.9-1c0-0.1,0.3-0.4,0.6-0.5
	c0.3-0.2,0.7-0.6,0.8-1c0.1-0.3,0.2-0.7,0.3-0.7c0.1-0.1,0.3-0.5,0.3-0.9c0.2-1.1-0.5-0.8-0.8,0.4c-0.2,0.9-0.9,1.5-1.2,1.2
	c-0.1-0.1-0.1-0.3,0.1-0.4c0.1-0.1,0.3-0.5,0.4-1c0.1-0.4,0.3-0.8,0.4-0.8c0.1,0,0.3-0.3,0.4-0.7s0.3-0.7,0.4-0.8s0.3-0.7,0.4-1.3
	c0.2-1.1,0.1-1.2-0.3-1.1c-0.4,0.1-0.4-0.1-0.4-1.4c0.1-1.4,0.3-1.8,1-1.8c0.4,0,0.4,0.9,0.1,1.1c-0.3,0.2-0.3,1.8,0,1.8
	c0.3,0,0.5-0.6,0.5-1.2c0-0.3,0.1-0.5,0.2-0.5s0.3-0.4,0.4-0.9c0.1-0.5,0.3-1,0.5-1.2c1-1-0.1-1.1-1.6-0.1c-1.3,0.8-1.7,0.9-1.7,0.3
	c0-0.2,0.5-0.7,1.1-1.1c1.3-0.8,2.5-2.1,2.5-2.5c0-0.2,0.1-0.3,0.3-0.3c0.2,0,0.2-0.1,0-0.4c-0.2-0.2-0.4-0.4-0.6-0.4
	s-0.5-0.2-0.7-0.5c-0.4-0.5-1-0.6-1.3-0.2c-0.3,0.5-0.7,0.2-0.8-0.4c-0.1-1.1-1.1-1.4-1.2-0.3c0,0.3-0.2,0.7-0.4,0.8
	c-0.2,0.1-0.4,0.5-0.5,0.9c-0.3,0.9-0.6,1-1.8,0.8l-1.1-0.1l0.1,0.8c0.1,0.5,0,0.8-0.2,0.8c-0.5,0-1.5-0.8-1.5-1.1
	c0-0.2-0.1-0.3-0.2-0.3c-0.3,0-0.6-1.2-0.3-1.7c0.1-0.2,0.2-0.3,0.3-0.2c0,0.1,0.3,0,0.7-0.3c0.9-0.6,3.4-1.5,4.2-1.5
	c0.4,0,0.7-0.1,0.7-0.3c0-0.1,0.1-0.2,0.2-0.1c0.3,0.2,0.6-0.8,0.3-1.2c-0.2-0.2-0.5-0.2-1,0.2c-0.5,0.3-0.8,0.4-1.1,0.2
	c-0.4-0.3-1.6-0.1-2.6,0.4c-0.4,0.2-0.9,0.3-1.2,0.3s-0.7,0.2-1,0.5c-0.3,0.3-0.6,0.5-0.7,0.5c-0.3,0-0.2-1.1,0.2-1.9
	c0.2-0.4,0.4-0.5,0.4-0.3c0,0.2,0.1,0.5,0.3,0.5c0.5,0.2,1.2-0.8,1.2-1.5c0-0.4,0.1-0.7,0.3-0.8c0.2-0.1,0.2-0.2,0-0.4
	c-0.5-0.3-1.2,0.1-1.2,0.7c0,0.5-0.6,0.7-0.8,0.2c-0.1-0.4-2.9,1.4-2.9,1.9c0,0.2-0.1,0.3-0.2,0.3c-0.1,0-0.2,0.2-0.2,0.5
	c0,0.3-0.2,0.9-0.4,1.3c-0.4,0.9-0.4,1.2,0.4,0.9c0.3-0.1,0.6-0.5,0.7-1c0.1-0.5,0.2-0.8,0.4-0.8s0.2-0.2,0.3-0.4
	c0.1-0.3,0.1-0.3,0.1,0.1c0,0.3,0.1,0.5,0.3,0.5c0.1,0,0.2,0.2,0.2,0.5c0,0.3-0.1,0.5-0.2,0.5c-0.1,0-0.2,0.2-0.2,0.3
	s-0.1,0.5-0.3,0.7s-0.5,0.8-0.7,1.4c-0.3,1-0.4,1.1-1.1,1.2c-0.6,0.1-1-0.1-1.7-0.8l-0.9-0.9l0.1-3.6c0.1-2.2,0.2-3.7,0.4-3.8
	c0.1-0.1,0.3-0.8,0.4-1.5s0.3-1.4,0.4-1.5s0.3-1.5,0.3-3.2l0.1-3.1l0.8-0.9c0.4-0.5,0.9-0.9,1.1-0.9s0.4-0.2,0.6-0.5
	c0.2-0.3,0.4-0.5,0.5-0.5c0.1,0,0.5-0.3,0.8-0.6c0.8-0.7,1.1-0.8,1.1-0.1c0,0.3-0.1,0.4-0.2,0.4s-0.2,0-0.2,0.1s-0.5,0.5-1.1,0.8
	c-0.6,0.3-1.2,0.7-1.2,1c-0.1,0.3-0.3,0.5-0.4,0.5s-0.2,0.2-0.2,0.4c0,0.2,0.1,0.4,0.1,0.4c0.3,0,2.8-1.8,2.8-2
	c0-0.1,0.3-0.2,0.6-0.2c1,0,0.7,0.6-0.9,1.6c-1.6,1.1-2.9,2.1-2.9,2.5c0,0.4,0.4,0.3,1.4-0.3c0.5-0.3,1.2-0.7,1.6-0.8
	c0.4-0.1,0.7-0.3,0.8-0.5c0.1-0.4,0.9-0.5,0.9-0.1c0,0.1-0.1,0.2-0.2,0.2c-0.1,0-0.8,0.5-1.5,1.2c-0.8,0.8-1.1,1.2-0.9,1.2
	c0.2,0,0.6-0.2,0.9-0.5c0.8-0.8,1-0.6,0.9,0.7c-0.1,1.4-0.8,2.2-1.7,2.2c-0.4,0-0.7,0.1-0.7,0.4c0,0.2-0.1,0.4-0.2,0.4
	c-0.1,0-0.2,0.2-0.2,0.4c0,0.5,0.5,0.4,1.6-0.2c0.5-0.3,1-0.6,1.2-0.6c0.4,0-1,1.3-2,1.9c-0.8,0.5-1.1,1-0.7,1.4
	c0.2,0.2,0.3,0.2,0.6-0.1c0.4-0.5,2.7-1.9,3.2-1.9c0.5,0,1.9-0.7,2-1c0-0.1,0.3-0.2,0.7-0.2s0.6-0.1,0.6-0.2s0.3-0.4,0.7-0.5
	c0.4-0.1,1-0.4,1.4-0.6c0.7-0.4,1.6-0.5,1.6-0.2c0,0.1-0.2,0.3-0.4,0.5c-0.2,0.2-0.3,0.5-0.2,0.7c0.1,0.2,0.1,0.5,0.1,0.7
	c0,0.2,0.1,0.3,0.2,0.2c0.1-0.1,0.2,0.2,0.2,0.6c0,0.9,0.6,1,0.9,0.2c0.1-0.3,0.4-0.6,0.7-0.7c0.4-0.1,0.6-0.3,0.6-0.7
	c0-1.2,1.2-0.8,1.6,0.6c0.1,0.3,0.3,0.5,0.4,0.4s0.3,0.2,0.4,0.6c0.1,0.4,0.3,0.7,0.4,0.7s0.3,0.4,0.4,0.9s0.3,0.9,0.4,0.9
	c0.3,0,0.3,0.9-0.1,1c-0.2,0.1-0.3,1-0.4,3.4c0,1.8-0.2,3.3-0.3,3.2s-0.2,2.3-0.3,5.2c-0.1,3.8-0.2,5.4-0.4,5.5
	c-0.2,0.1-0.4,0.6-0.5,1.2c-0.1,0.6-0.3,1-0.4,0.9c-0.1-0.1-0.2,0.2-0.2,0.6s-0.2,0.9-0.4,1.1c-0.2,0.2-0.3,0.4-0.1,0.4
	c0.1,0,0.3,0.1,0.3,0.3c0,0.1-0.1,0.2-0.2,0.1c-0.3-0.2-0.6,1.6-0.4,2.3c0.1,0.3,0.4,0.8,0.7,1.2c0.8,0.8,0.7,1-0.2,1.2
	c-0.4,0.1-0.7,0.2-0.7,0.4s-0.1,0.2-0.2,0.1c-0.1-0.1-0.3,0.1-0.4,0.4c-0.1,0.3-0.4,0.8-0.7,1c-0.3,0.3-0.6,0.7-0.7,0.9
	s-0.3,0.4-0.4,0.4s-0.3,0.2-0.3,0.4c0,0.2-0.2,0.6-0.5,0.8s-0.5,0.6-0.4,0.8c0.1,0.2,0.3,0.1,0.7-0.3c0.3-0.3,1-0.9,1.5-1.3
	s0.9-0.9,0.9-1.1c0-0.4,0.7-1,1.2-1c0.4,0,0.4,0.6-0.1,1.1c-0.2,0.2-0.4,0.6-0.4,0.9c0,0.3-0.2,0.8-0.5,1c-0.3,0.2-0.5,0.6-0.5,0.8
	c0,0.5,0.7,0.2,0.9-0.4c0.2-0.5,0.5-0.6,1.2-0.3c0.5,0.2,0.5,0.7,0,1.6c-0.3,0.6-0.1,1,0.2,0.4c0.1-0.1,0.5-0.2,0.9-0.2
	c1.1,0,1,0.4-0.5,2.1c-0.1,0.2-0.3,0.7-0.4,1.2c-0.2,1.1,0.4,1.1,1.1,0.1c0.3-0.4,0.6-0.7,0.7-0.6s0.3-0.3,0.3-0.7
	c0.1-0.4,0.4-1,0.6-1.2c0.3-0.2,0.4-0.6,0.3-0.8c-0.1-0.2,0-0.3,0.1-0.2c0.1,0.1,0.3-0.1,0.4-0.5c0.1-0.5,0.3-0.7,0.8-0.8
	c0.8-0.2,1.3,0,1.3,0.4c0,0.2,0.1,0.4,0.3,0.4c0.3,0.1,1.6-0.6,1.6-0.9c0-0.1,0.2-0.2,0.4-0.2c0.2,0,0.4,0.2,0.4,0.8
	c0,0.9,0.6,0.8,0.7-0.1c0.1-1.1,0.8-0.1,0.8,1.2c0,0.6,0.1,1,0.1,0.9c0.1-0.2,0.2-0.2,0.3-0.2c0.1,0.1,0.2-0.1,0.2-0.4
	c0-0.3,0.1-0.4,0.4-0.4c0.2,0.1,0.4,0.3,0.4,0.6c0,0.3,0.2,0.5,0.4,0.5c0.2,0,0.4-0.2,0.4-0.7c0-0.7,0-0.7,0.4-0.4
	c0.2,0.2,0.4,0.5,0.4,0.7c0,0.6,1.1,1.6,1.6,1.6c1,0,1-1.9-0.1-2.4c-0.3-0.2-0.6-0.4-0.6-0.5c0-0.4,0.7-0.2,1.2,0.3
	c0.3,0.3,0.5,0.4,0.6,0.3c0.1-0.1,0.1,0,0.1,0.3s0.5,1,1.2,1.7c0.7,0.7,1.2,1.3,1.2,1.5s0.3,0.5,0.7,0.9c0.6,0.6,0.7,0.7,1,0.3
	c0.3-0.3,0.3-0.4,0-0.5c-0.2-0.1-0.3-0.4-0.3-0.8c0-0.6,0.1-0.7,0.4-0.4c0.2,0.2,0.4,0.4,0.4,0.5c0,0.2,0.9,1.2,1.1,1.2
	c0.1,0,0.1-0.2,0.1-0.4c0-0.8,0.7-0.4,0.9,0.5c0.1,0.5,0.3,0.9,0.4,1c0.1,0.1,0.3,0.8,0.4,1.6s0.3,1.4,0.4,1.3
	c0.1-0.1,0.2,0.1,0.2,0.4c0,0.6,0.6,1.2,1.1,1.2c0.2,0,0.3-0.2,0.3-0.4c0-0.2-0.1-0.4-0.2-0.4s-0.2-0.1-0.2-0.3s0.1-0.2,0.2-0.1
	s0.2,0,0.2-0.2c0-0.2-0.1-0.4-0.2-0.5s-0.2-0.5-0.2-0.9s0.1-0.7,0.2-0.7s0.2-0.3,0.2-0.6s-0.1-0.6-0.2-0.6c-0.5,0-1.7-3.3-1.2-3.5
	c0.3-0.2,1,0.6,1,1.1c0,0.2,0.2,0.5,0.4,0.6c0.2,0.1,0.4,0.3,0.4,0.5c0,0.2,0.3,0.6,0.6,0.9c0.4,0.3,0.6,0.9,0.7,1.6
	c0.1,0.6,0.3,1.1,0.4,1.2c0.1,0.1,0.3,0.6,0.4,1.2c0.2,1.2,0.2,1.2,1.8,2.9c0.6,0.6,1.3,1.4,1.5,1.7s0.6,0.8,0.8,1
	c0.2,0.3,0.4,0.7,0.4,1s0.1,0.4,0.2,0.3c0.1-0.1,0.3,0.2,0.4,0.7c0.1,0.5,0.3,0.8,0.4,0.8s0.2,0.2,0.2,0.4c0,0.6,0.5,0.7,1,0.2
	c0.3-0.3,0.6-0.5,0.8-0.5c0.5,0,0.4,0.2,0,0.6c-0.2,0.2-0.4,0.6-0.4,0.8c0,0.3,0.1,0.4,0.4,0.3c0.2-0.1,0.4-0.2,0.4-0.3
	c0-0.2,0.2-0.4,1.2-1.6c0.1-0.1,0.3-0.5,0.4-0.8c0.1-0.3,0.3-0.7,0.5-0.9c0.2-0.2,0.3-0.5,0.3-0.8c0-0.3,0.1-0.5,0.2-0.5
	s0.3-0.3,0.4-0.6c0.2-0.8,1-1.7,1.3-1.5c0.1,0.1,0.3,0.5,0.3,0.9c0,0.4,0.1,0.7,0.2,0.7s0.2,0.2,0.2,0.5c0,0.3-0.1,0.5-0.2,0.5
	s-0.3,0.4-0.4,0.9c-0.1,0.5-0.5,1.2-0.9,1.6c-0.7,0.6-0.9,1.2-0.5,1.2c0.4,0,1.9-1.1,2.6-1.8c1.1-1.1,2.5-2.2,2.8-2.2
	c0.1,0,0.2,0,0.2-0.1s0.2-0.5,0.5-0.8c0.3-0.3,0.5-0.9,0.5-1.4c0-0.4,0.1-0.8,0.2-0.8s0.2-0.1,0.2-0.3s-0.1-0.2-0.2-0.1
	s-0.2,0-0.2-0.2c0-0.2,0.1-0.4,0.2-0.4c0.4,0,0.3-2.5-0.1-2.9c-0.2-0.2-0.2-0.3,0-0.5c0.2-0.1,0.4-1.3,0.5-2.9
	c0.2-2.5,0.1-2.7-0.2-2.7c-0.5,0-1.1,0.6-1.1,1.1c0,0.2-0.2,0.5-0.4,0.8c-0.3,0.3-0.4,0.4-0.1,0.6c0.3,0.2,0.3,0.3,0.1,0.4
	c-0.2,0.1-0.4,0.5-0.5,0.8c-0.1,0.4-0.3,0.6-0.4,0.5c-0.3-0.2-0.3-2.3,0-2.3c0.1,0,0.2-0.3,0.2-0.6s-0.1-0.6-0.2-0.6
	c-0.3,0-0.3-1.9,0-2c0.1-0.1,0.3-0.7,0.3-1.5c0.2-1.8,0.9-2.6,1.8-1.7c0.6,0.6,2,0.7,3.4,0.3c1.4-0.4,3-1.8,3-2.5
	c0-0.2,0.3-0.7,0.6-1.1c0.3-0.3,0.7-1,0.7-1.4c0.1-0.4,0.3-0.7,0.4-0.7c0.1,0,0.3-0.4,0.4-1s0.3-1,0.4-1s0.2-0.2,0.2-0.4
	c0-0.4,1.6-2.1,1.9-2.1c0.1,0,0.3-0.4,0.4-0.9c0.1-0.5,0.3-0.9,0.4-0.9s0.3-0.6,0.4-1.4c0.1-0.8,0.3-1.5,0.4-1.5
	c0.3-0.2,0.3-5.9,0-6c-0.1,0-0.3-0.4-0.3-0.7c0-0.9-0.3-1.8-0.5-1.6c-0.1,0.1-0.2,0-0.2-0.1c0-0.4-1.4-1.7-1.8-1.7
	c-0.2,0-0.4-0.1-0.4-0.2s-0.7-0.2-1.6-0.3c-1.3-0.1-1.6,0-2,0.4c-0.2,0.3-0.6,0.5-0.7,0.5s-0.3,0.1-0.3,0.2s-0.2,0.3-0.5,0.4
	c-0.3,0.1-0.9,0.4-1.4,0.7c-0.6,0.4-1,0.5-1.2,0.3c-0.5-0.3-0.9,0-1.1,0.8c-0.1,0.4-0.4,0.7-0.8,0.8c-0.8,0.2-0.9,0-0.3-0.6
	c0.3-0.3,0.5-0.8,0.5-1s0.1-0.4,0.2-0.4s0.3-0.5,0.4-1.1c0.1-0.6,0.3-1.1,0.4-1.1s0.2-0.3,0.2-0.7c0-0.4,0.2-0.9,0.4-1.1
	c0.2-0.2,0.4-0.7,0.5-1.1c0.1-0.4,0.2-0.7,0.3-0.6c0.1,0.1,0.3-0.4,0.4-1c0.1-0.6,0.2-1.1,0.3-1.1s0.2-0.5,0.3-1s0.3-1.1,0.5-1.2
	c0.2-0.1,0.3-0.9,0.4-2.6c0-2.5-0.2-3.3-1.2-4.4c-0.4-0.4-0.4-0.4-0.3,0.4c0.1,0.5,0.2,1.4,0.2,2.1c0,1,0.1,1.3,0.4,1.3
	c0.3,0,0.3,0.1,0.2,0.4c-0.1,0.2-0.1,0.9-0.1,1.6c0,0.7-0.1,1.1-0.2,1.1c-0.1-0.1-0.3,0.1-0.4,0.4c-0.1,0.3-0.2,0.5-0.4,0.5
	c-0.1,0-0.2,0.7-0.3,1.5c-0.1,1.1-0.2,1.6-0.5,1.7c-0.3,0.1-0.4,0.5-0.4,1.1c0,0.5-0.1,0.8-0.2,0.7s-0.3,0.4-0.4,1.1
	c-0.1,0.7-0.3,1.3-0.4,1.4s-0.2,0.2-0.2,0.4c0,0.2-0.2,0.5-0.4,0.7s-0.4,0.9-0.5,1.5c-0.3,1.8-1.1,1.7-1.4-0.2
	c-0.1-0.8-0.1-1.2,0.2-1.5c0.5-0.5,0.6-2,0.1-2c-0.2,0-0.4,0.2-0.4,0.6c0,0.3-0.2,0.5-0.3,0.4c-0.1-0.1-0.2,0.1-0.2,0.3
	c0,0.6-0.4,0.9-0.7,0.6c-0.3-0.3,0-2.1,0.3-1.9c0.1,0.1,0.2-0.3,0.3-0.9s0.3-1.1,0.5-1.2c0.2-0.1,0.4-0.5,0.4-1.1
	c0-0.5,0.1-0.8,0.2-0.8c0.2,0,0.2-1.3,0.2-3.5s-0.1-3.5-0.2-3.5c-0.1,0-0.2-0.3-0.2-0.6s0.1-0.6,0.2-0.6c0.4,0,0.3-1.9-0.1-2
	c-0.2-0.1-0.2-0.2,0.1-0.4c0.3-0.2,0.3-0.3,0-0.5c-0.3-0.2-0.2-0.3,0.3-0.9c0.4-0.3,0.6-0.6,0.4-0.6c-0.1,0-0.3-0.7-0.4-1.6
	c-0.1-0.9-0.3-1.6-0.4-1.6c-0.1,0-0.2-0.3-0.2-0.6c0-0.3-0.2-0.7-0.3-0.9c-0.2-0.2-0.4-1-0.5-1.7c-0.1-0.8-0.3-1.3-0.4-1.3
	c-0.1,0.1-0.2-0.7-0.3-1.7c-0.1-1.2-0.3-2-0.5-2.2c-0.2-0.2-0.4-0.6-0.4-0.9c0-0.3-0.1-0.4-0.2-0.4c-0.1,0.1-0.3-0.1-0.5-0.5
	c-0.2-0.3-0.4-0.6-0.5-0.6c-0.1,0-0.2-0.2-0.2-0.5c0-0.3-0.1-0.5-0.2-0.5c-0.1,0-0.3-0.4-0.4-0.9s-0.3-1-0.5-1.1
	c-0.2-0.1-0.4-0.3-0.4-0.5c0-0.2-0.3-0.7-0.7-1.1c-0.4-0.4-0.7-0.9-0.7-1.2c0-0.3-0.2-0.5-0.6-0.6c-0.5-0.1-0.6-0.3-0.7-1.3
	c-0.1-0.6-0.2-1.2-0.4-1.2c-0.4-0.1-0.3-1.8,0.1-1.8c0.5,0,0.9,0.5,1,1.5c0.1,0.4,0.5,1.1,0.9,1.5c0.4,0.4,0.7,0.8,0.7,0.9
	s0.2,0.2,0.4,0.2s0.4,0.1,0.4,0.2c0,0.4,2.2,2.4,2.9,2.6c0.6,0.2,1.5,0.9,1.5,1.3c0,0.1,0.2,0.2,0.4,0.2s0.4,0.1,0.4,0.3
	c0,0.1,0.1,0.2,0.2,0.1c0.3-0.2,0.3,0.3,0.3,1.4c0,0.4,0.1,0.7,0.3,0.9c0.2,0.1,0.5,0.6,0.5,1.2c0.1,0.5,0.3,1.1,0.5,1.3
	s0.3,0.8,0.3,1.3c0,0.7,0.2,1.1,0.6,1.5c0.4,0.4,0.6,0.9,0.7,1.7c0.1,0.7,0.2,1.3,0.4,1.3s0.3,0.6,0.4,1.1c0.1,0.5,0.3,0.9,0.4,0.9
	s0.3,0.5,0.3,1.1c0.1,0.6,0.3,1.1,0.5,1.2c0.3,0.1,0.4-0.1,0.4-1.2c0-0.7,0.1-1.4,0.2-1.4c0.2-0.1,0.5,0.6,0.5,1.5
	c0,0.3,0.1,0.6,0.3,0.6c0.1,0,0.3,1.3,0.3,3.2c0,1.7,0.1,3.2,0.2,3.3c0.3,0.3,0.5-0.2,0.6-1.7c0.1-0.8,0.3-1.5,0.4-1.6
	c0.2-0.1,0.2,1.2,0.2,3.9c-0.1,3.9,0,4,0.4,4c0.4,0,0.5-0.2,0.5-1.2c0-0.7,0.1-1.2,0.2-1.2c0.1,0,0.2-0.8,0.2-2c0-1.9,0-2,0.5-1.8
	c0.4,0.1,0.5,0,0.5-0.6c0-0.4,0.1-0.7,0.2-0.7s0.2-0.3,0.2-0.6c0-0.3-0.1-0.6-0.2-0.6c-0.4,0-0.3-0.9,0.1-1c0.6-0.2,0.9,0.5,0.9,1.9
	c0,0.7-0.1,1.4-0.2,1.4c-0.1,0-0.2,1.2-0.2,3.2c0,1.8,0.1,3.2,0.2,3.2c0.1,0,0.3,0.2,0.3,0.4c0.1,0.4,0.1,0.4,0.1,0
	c0-0.2,0.1-0.4,0.3-0.4c0.1,0,0.3-0.4,0.4-0.9c0.1-0.5,0.3-0.9,0.4-0.9c0.1,0,0.2-1.5,0.2-3.4S175.1,90,175,90s-0.3-1.6-0.5-3.5
	c-0.1-1.9-0.3-3.8-0.4-4.3c-0.1-0.6-0.1-0.8,0.2-0.8c0.4,0,0.4-0.2,0.3-2c-0.1-1.3-0.3-2.1-0.5-2.3c-0.2-0.2-0.4-0.7-0.4-1.2
	s-0.1-0.8-0.2-0.8c-0.1,0-0.3-0.3-0.4-0.6c-0.1-0.3-0.2-0.6-0.3-0.6c-0.1,0-0.3-0.3-0.3-0.7c-0.1-0.4-0.5-1.1-0.9-1.5
	c-0.4-0.4-0.7-0.8-0.7-1c0-0.2-0.2-0.5-0.9-1.3c-0.2-0.2-0.3-0.4-0.3-0.5c0-0.4-1.8-1.9-3.1-2.5c-0.7-0.3-1.3-0.7-1.3-0.9
	s-0.2-0.3-0.4-0.3s-0.9-0.3-1.5-0.6s-2.1-1-3.3-1.6c-1.2-0.6-2.1-1.1-2.1-1.2c0-0.1-0.2-0.3-0.5-0.3s-0.5-0.3-0.5-0.5
	c0-0.6,1.4-0.5,3.1,0.3c0.8,0.4,1.7,0.8,2.1,0.9c0.3,0.1,1,0.5,1.6,0.8c0.5,0.4,1.5,0.9,2.2,1.1c0.7,0.2,1.3,0.5,1.3,0.6
	c0.1,0.1,0.5,0.3,0.9,0.6c1.1,0.6,3.2,2.8,3.9,4.1c0.3,0.6,0.7,1.2,0.9,1.3c0.2,0.1,0.3,0.3,0.3,0.5s0.1,0.4,0.2,0.4
	c0.1,0,0.3,0.3,0.4,0.7c0.1,0.4,0.2,0.7,0.3,0.8c0.5,0.4,1.2,2.3,1.2,3.1c0,0.5,0.1,1,0.2,1s0.2,0.4,0.2,0.8c0,1.4,0.3,3.3,0.5,3.2
	c0.1-0.1,0.3,0.4,0.4,1c0.1,0.6,0.3,1.3,0.5,1.5c0.4,0.4,0.4,1.3,0,1.3c-0.2,0-0.4-0.2-0.5-0.4s-0.1,0-0.1,0.5
	c0,0.5-0.1,0.9-0.3,0.9c-0.3,0-0.3,6.6,0,7c0.3,0.3,0.4,4.5,0.1,4.7c-0.1,0.1-0.3,1.1-0.4,2.2c-0.1,1.1-0.2,2.1-0.4,2.2
	c-0.1,0.1-0.3,0.8-0.4,1.7c-0.1,0.9-0.3,1.6-0.5,1.6c-0.6,0.2-0.4,0.6,1.1,1.5c0.8,0.5,1.5,1,1.5,1.1c0,0.1,0.2,0.4,0.5,0.7
	c0.4,0.4,0.5,0.9,0.5,2.1c0,0.8,0.1,1.5,0.2,1.5c0.3,0,0.5,1.9,0.3,2.6c-0.1,0.4-0.2,0.6-0.2,0.4c-0.1-0.5-0.5,0.7-0.5,1.5
	c0,0.4-0.1,0.8-0.3,0.8s-0.2,0.4-0.2,0.8s-0.1,1-0.3,1.3c-0.2,0.3-0.4,0.7-0.5,1.1c-0.1,0.3-0.3,0.7-0.5,0.9c-0.6,0.8-1.9,2-2.1,2
	c-0.1,0-0.3,0.4-0.3,1c-0.1,0.5-0.3,0.9-0.4,0.9c-0.1-0.1-0.3,0.3-0.3,0.8c-0.1,0.5-0.3,1.1-0.5,1.4c-0.2,0.2-0.4,0.5-0.4,0.7
	s-0.1,0.3-0.2,0.3c-0.1,0-0.2,0.1-0.2,0.3s-0.2,0.6-0.5,0.9s-0.5,0.7-0.5,0.8s-0.1,0.2-0.2,0.1s-0.3,0.1-0.4,0.5
	c-0.1,0.3-0.2,0.6-0.3,0.6c-0.3,0-1.8,1.4-1.8,1.6c0,0.2-0.9,1-1.2,1c-0.1,0-0.4,0.2-0.6,0.5c-0.4,0.4-0.5,1.1-0.6,3.2
	c-0.1,1.5-0.2,2.8-0.4,2.9c-0.2,0.1-0.2,0.2,0,0.3c0.4,0.1,0.4,1.7,0.1,1.8c-0.3,0.1-0.4,4.8-0.1,5c0.2,0.1,0.4,0.7,0.5,1.4
	c0.1,0.7,0.3,1.3,0.4,1.3c0.1,0,0.3,0.4,0.3,0.9c0.2,1.1,0.7,1.6,1.8,2c1.3,0.4,4.2,2.6,4.2,3.1c0,0.2,0.1,0.3,0.2,0.3
	c0.3,0,1,0.6,2.5,2c0.6,0.6,1.2,1.1,1.2,1c0-0.1,0.9,0.8,4.9,4.6c0.8,0.8,1.5,1.4,1.7,1.4s0.3,0.1,0.4,0.3s0.6,0.6,1,0.9
	c0.5,0.3,1,0.8,1.2,1c0.2,0.2,0.7,0.6,1.2,0.8c0.4,0.2,0.8,0.6,0.9,0.8c0.1,0.2,0.6,0.7,1.3,1.1c1.9,1.2,2.9,2.3,3.1,3.4
	c0.1,0.5,0.3,1.1,0.4,1.3c1.1,1.3,1.9,2,2.2,2c0.2,0,0.4,0.1,0.4,0.3s0.1,0.2,0.1,0.1c0.1-0.1,0.4,0.1,0.8,0.4
	c0.3,0.3,0.8,0.6,1,0.6c0.2,0,0.8,0.4,1.3,0.9c0.5,0.5,1.4,1.1,2,1.3c1.9,0.9,2.6,1.9,1.6,2.4c-0.6,0.3-0.8,0.3-1.4-0.2
	c-0.3-0.2-0.9-0.6-1.4-0.9c-0.5-0.3-1-0.6-1.1-0.8c-0.1-0.2-0.3-0.3-0.5-0.3c-0.2,0-0.4-0.3-0.6-0.6s-0.6-0.7-1-0.9
	c-0.4-0.2-1.2-0.7-1.7-1.3s-1.1-0.9-1.2-0.9c-0.4,0-0.5,1.2-0.4,2.8c0.1,0.8,0.2,1.7,0.2,1.9s0.1,0.4,0.2,0.3
	c0.2-0.1,0.5,1.2,0.5,2.5c0,0.4,0.1,0.8,0.2,0.8c0.1,0,0.2,0.9,0.2,2.3c0,1.5-0.1,2.3-0.2,2.2c-0.1-0.1-0.2,0-0.2,0.2
	c0,0.5-1.4,0.5-1.5,0.1c0-0.2,0-2.5-0.1-5.3c-0.1-6.4-0.1-7.1-0.4-7c-0.1,0.1-0.3-0.7-0.4-1.7c-0.1-1-0.3-1.8-0.4-1.8
	c-0.1,0-0.3-0.3-0.4-0.6c-0.1-0.3-0.3-0.6-0.5-0.6s-0.3-0.1-0.3-0.2c0-0.1-0.4-0.5-1-0.8c-0.5-0.3-1-0.7-1-0.8c0-0.3-2-2.1-2.5-2.3
	c-0.2-0.1-0.4-0.2-0.4-0.4c0-0.1-0.3-0.4-0.7-0.5c-0.8-0.3-2.2-1.4-3.3-2.5c-0.4-0.4-0.8-0.7-0.9-0.7c-0.1,0-0.2-0.2-0.3-0.4
	c-0.1-0.5-3.2-3.6-3.4-3.6c-0.2,0-2.3-2.1-2.3-2.4c0-0.1-0.7-0.7-1.5-1.2c-0.8-0.5-1.5-1.1-1.5-1.2c0-0.5-1.3-0.6-2.2-0.2l-0.8,0.4
	l1.1-0.1c0.7-0.1,1.2,0,1.4,0.2c0.3,0.3,0.2,0.4-0.3,0.5c-1.2,0.3-2.7,1.1-2.7,1.5c0,0.4,0.6,0.4,1.2,0.1c0.8-0.4,2.7-0.7,3.2-0.5
	c0.8,0.4,0.5,0.7-0.7,0.7c-1.2,0-3.2,0.8-3.2,1.2c0,0.4,1,0.3,2.3-0.1c1-0.3,1.2-0.3,1.6,0c0.3,0.2,0.4,0.4,0.2,0.4
	c-0.2,0-0.3,0.2-0.3,0.4c0,0.2,0.1,0.4,0.2,0.4c0.4,0,0.3,0.8-0.2,1.1c-0.3,0.2-0.3,0.4-0.1,0.8c0.3,0.6,0.2,0.6-1.6,0.9
	c-1,0.2-2.2,1-2.2,1.6c0,0.3,1.8-0.1,2.2-0.4c0.5-0.5,1.5-0.6,1.9-0.4c0.3,0.2,0.3,0.3,0,0.5c-0.2,0.1-0.6,0.2-0.8,0.2
	c-0.7,0-2.3,0.5-2.3,0.8c0,0.1-0.3,0.3-0.7,0.5c-0.4,0.1-0.7,0.4-0.7,0.6c0,0.4,1,0.5,1.4,0.1c0.1-0.1,0.8-0.3,1.5-0.4
	c1.1-0.1,1.3-0.1,1.3,0.2c0,0.3-0.2,0.4-1,0.4c-0.6,0-1.2,0.2-1.5,0.5c-0.3,0.3-0.7,0.5-0.8,0.5c-0.2,0-0.3,0.1-0.3,0.2
	s0.3,0.2,0.7,0.2c1,0,0.9,0.3-0.2,0.8c-1.3,0.6-1.3,1.2-0.1,1c2.5-0.4,2.8-0.4,2.7-0.1c-0.1,0.2-0.5,0.4-1,0.4
	c-0.5,0-1.2,0.2-1.4,0.4c-0.3,0.2-0.7,0.3-0.9,0.3c-0.5,0-1.1,0.7-0.8,1c0.1,0.1,0.8,0,1.6-0.2c1.3-0.4,2.4-0.4,2.4,0
	c0,0.2-0.6,0.3-1.4,0.3c-0.2,0-0.5,0.1-0.7,0.3c-0.2,0.2-0.5,0.3-0.8,0.3s-0.5,0.1-0.6,0.3c-0.1,0.1-0.3,0.2-0.5,0.1
	c-0.2-0.1-0.3,0-0.2,0.2c0.2,0.4,0.4,0.4,2.3,0c1.6-0.4,2.7-0.3,2.7,0.3c0,0.3-0.3,0.4-1,0.4c-1.1,0-2.5,0.7-1.5,0.8
	c1,0.1,1.2,0.1,1.2,0.4c0,0.1-0.8,0.5-2,0.9c-2.3,0.6-3,1.1-3,1.9c0,0.7,0.8,0.8,1.6,0.1c0.4-0.3,0.9-0.6,1.2-0.6s0.7-0.1,0.9-0.3
	c0.4-0.2,0.5-0.2,0.5,0.1c0,0.3-1.9,1.4-2.5,1.4c-0.3,0-1.6,1.1-1.6,1.3c0,0.2,1.2,0.1,1.3-0.1c0.2-0.4,2.1-0.3,2.1,0.1
	c0,0.3-1.3,0.9-2,0.9c-0.2,0-0.6,0.2-0.9,0.5c-0.3,0.3-0.7,0.5-0.9,0.5c-0.2,0-0.4,0.2-0.4,0.5c0,0.6,0.1,0.6,1.3,0
	c1.3-0.6,2.3-0.6,2.3,0c0,0.6,0,0.6-2.9,1.2c-0.7,0.1-0.9,0.3-0.9,0.7c-0.1,0.5,0,0.6,0.6,0.4c1.8-0.4,2.3-0.4,2.3,0
	c0,0.3-0.3,0.5-0.8,0.6c-0.4,0.1-0.8,0.1-0.8,0.1s-0.4,0.3-0.8,0.7c-0.5,0.4-0.9,0.8-1,0.8s-0.2,0.4-0.2,0.8c0,0.6,0.1,0.7,0.2,0.4
	c0.1-0.2,0.2-0.3,0.2-0.1c0,0.1,0.1,0.1,0.3-0.1c0.7-1,2.4-1.3,2.4-0.5c0,0.3-0.2,0.5-0.4,0.5c-0.6,0-1.8,0.8-1.8,1.2
	c0,0.2,0.2,0.5,0.4,0.7c0.4,0.3,0.4,0.3-0.1,0.8c-0.3,0.3-0.6,0.5-0.8,0.5c-0.3,0-0.5,0.6-0.3,1.3c0.1,0.5,0,0.7-0.2,0.7
	c-0.4,0-1.9,1.3-1.9,1.7c0,0.2,0.2,0.3,0.4,0.3c0.2,0,0.4-0.1,0.4-0.3s0.1-0.2,0.2-0.1c0.1,0.1,0.2,0,0.2-0.1s0.2-0.3,0.5-0.3
	c0.6,0,0.6,0.7,0.1,1.3c-0.8,0.7-1,1.1-1.1,2c-0.1,0.5-0.3,0.9-0.4,0.9s-0.2,0.1-0.2,0.2c0,0.3-1.1,2-1.3,1.8
	c-0.1-0.1-0.2,0.3-0.3,0.8c-0.2,0.9-0.6,1.6-1.5,2C158.1,205.2,157.9,205.2,157.6,204.8L157.6,204.8z M143.8,191.9
	c0.8-0.2,1.5-0.5,1.9-0.8c0.3-0.3,0.8-0.7,1.1-0.7c0.4-0.1,0.8-0.4,2.5-1.9c0.4-0.4,1-0.7,1.2-0.8c0.4-0.1,2.7-2.4,4-3.8
	c0.1-0.2,0.7-0.6,1.2-1c0.5-0.4,0.9-0.8,0.9-0.9c0-0.3,1.6-1.8,1.8-1.7c0.1,0.1,0.1,0,0.1-0.1c0-0.1,0.2-0.5,0.4-0.8
	c0.9-1.1,1.3-1.6,1.3-1.8c0-0.1,0.1-0.1,0.2-0.1c0.1,0.1,0.2,0,0.2-0.1s0.2-0.4,0.4-0.6c0.3-0.3,0.4-0.4,0.1-0.6
	c-0.2-0.1-0.4-0.1-0.4,0c0,0.1-0.2,0.2-0.4,0.2s-0.3,0.1-0.3,0.2c0,0.1-0.1,0.2-0.2,0.2c-0.1,0-0.6,0.2-1.2,0.4
	c-0.5,0.2-1.2,0.4-1.4,0.5c-1.2,0.2-3.7,1.2-4.7,1.8c-0.6,0.4-1.5,0.7-1.9,0.8c-0.8,0.1-1.6,0.5-3.2,1.3c-0.4,0.2-0.9,0.3-1.2,0.3
	s-0.9,0.2-1.2,0.5c-0.7,0.6-0.9,0.6-0.9,0.1c0-0.2-0.1-0.4-0.2-0.4c-0.1,0-0.3-1-0.4-2.3c-0.1-2-0.2-2.3-0.6-2.4c-0.6-0.2-1,0-1,0.7
	c0,0.4-0.2,0.6-0.6,0.7c-0.4,0.1-0.6,0.3-0.6,0.7c0,0.6-0.4,0.9-2,1.2c-1.1,0.2-1.5,0.8-0.5,0.8c0.4,0,1-0.1,1.4-0.3
	c0.4-0.2,1-0.2,1.2-0.1c0.4,0.1,0.4,0.2,0,0.5c-0.2,0.2-0.4,0.6-0.4,0.9c0,0.4,0.2,0.5,1.5,0.5c1.1,0,1.5,0.1,1.5,0.3
	c0,0.2-0.5,0.4-1.4,0.6c-0.8,0.2-1.3,0.4-1.1,0.4c0.1,0.1,0.3,0.4,0.4,0.7s0.3,0.5,0.4,0.4c0.1-0.1,0.3,0.1,0.3,0.3
	c0.1,0.3,0.4,0.5,0.9,0.6c0.4,0.1,1.3,0.6,1.9,1.2c0.6,0.6,1.2,1.1,1.4,1.1s0.2,0.3,0.2,0.6c0,0.5-0.1,0.6-0.5,0.5
	c-0.6-0.2-1.6-0.9-2.5-1.7c-0.3-0.3-0.8-0.6-1.3-0.8c-0.4-0.2-0.8-0.5-0.8-0.7s-0.1-0.3-0.2-0.3s-0.2-0.2-0.2-0.4
	c0-0.4-0.9-0.8-2.1-1c-0.5-0.1-0.8,0-0.8,0.1c0,0.2,0.1,0.3,0.2,0.3s0.6,0.3,1,0.7c0.5,0.4,1.1,0.9,1.5,1.1c0.4,0.2,0.7,0.5,0.7,0.7
	c0,0.2,0.2,0.4,0.4,0.5c0.2,0.1,0.4,0.3,0.4,0.6c0,0.3-0.2,0.5-0.7,0.5c-0.4,0-0.5,0.1-0.4,0.2c0.1,0.1,0.3,0.5,0.4,0.8
	c0.1,0.4,0.3,0.7,0.4,0.7c0.1,0,0.2,0.2,0.2,0.4C141.6,192.2,142,192.2,143.8,191.9L143.8,191.9z M163.8,191.8
	c0.6-0.5,0.5-0.7-0.2-0.6c-0.4,0-0.7,0.2-0.7,0.5C162.7,192.2,163.2,192.3,163.8,191.8L163.8,191.8z M110.7,190.7
	c-0.1-0.4-0.5-1-1-1.5c-0.4-0.4-0.8-0.9-0.8-0.9s-0.3-0.3-0.6-0.5c-0.3-0.2-0.6-0.2-0.6-0.1s0.1,0.2,0.2,0.2c0.1,0,0.3,0.3,0.4,0.6
	s0.3,0.6,0.4,0.6c0.1,0,0.2,0.2,0.2,0.4c0,0.2,0.2,0.6,0.5,0.8s0.5,0.5,0.5,0.7c0,0.3,0.5,0.6,0.8,0.4
	C110.8,191.4,110.8,191.1,110.7,190.7L110.7,190.7z M138.7,191.4c0-0.1-0.2-0.3-0.4-0.4c-0.2-0.1-0.4,0-0.4,0.2
	c0,0.2,0.2,0.4,0.4,0.4S138.7,191.6,138.7,191.4z M112,189.8c-0.2-0.1-0.4-0.1-0.5,0c-0.1,0.1,0.1,0.1,0.3,0.1
	C112.1,189.9,112.2,189.9,112,189.8L112,189.8z M111.6,186.2c-0.3-0.3-0.9-0.5-0.9-0.2c0,0.3,0.6,0.8,0.9,0.7
	C111.8,186.5,111.8,186.4,111.6,186.2L111.6,186.2z M112.5,184.4c-0.2-0.2-0.7-0.9-1.2-1.5c-1-1.3-1.4-1.5-1.4-0.6
	c0,0.3,0.1,0.6,0.2,0.6s0.3,0.2,0.4,0.5c0.1,0.3,0.3,0.4,0.4,0.3c0.1-0.1,0.2,0.1,0.2,0.4c-0.1,0.4,0.1,0.7,0.5,1
	c0.3,0.2,0.5,0.6,0.5,0.8s0.1,0.4,0.3,0.4C112.9,186.5,113,184.9,112.5,184.4L112.5,184.4z M130.1,185.1c0.1-0.6-0.5-0.8-0.8-0.2
	c-0.2,0.6-0.2,0.9,0.3,0.8C129.8,185.7,130.1,185.4,130.1,185.1z M121.8,184.8c0.5-0.3,1.1-0.8,1.1-1c0-0.3-1.2-0.1-2.1,0.2
	c-0.6,0.2-0.8,0.5-0.8,0.9c0,0.4,0.1,0.5,0.7,0.3C121,185.1,121.5,184.9,121.8,184.8L121.8,184.8z M131,185.1
	c-0.1-0.1-0.2-0.2-0.3-0.2c-0.1,0-0.1,0.1-0.1,0.2s0.1,0.2,0.3,0.2S131.1,185.2,131,185.1z M132.1,183.6c0-0.1,0.2-0.4,0.4-0.6
	c0.2-0.2,0.4-0.9,0.4-1.9c0.1-1.4,0-1.5-0.5-1.7c-0.7-0.2-2.4,0.2-3.1,0.7c-0.4,0.3-0.5,0.6-0.5,1.2c0,0.9,0.3,1,1.3,0.3
	c1-0.7,1.4-0.4,1.4,1c0,0.9,0.1,1.2,0.4,1.2C131.9,183.9,132.1,183.8,132.1,183.6L132.1,183.6z M113.4,182.8c0-0.6-0.2-1-1-1.8
	c-0.2-0.2-0.4-0.5-0.4-0.7c0-0.1-0.3-0.4-0.6-0.6c-0.3-0.2-0.6-0.4-0.6-0.5c0-0.2-0.7-0.9-2-2.1c-0.7-0.6-1.6-0.7-1.6-0.2
	c0,0.2,0.3,0.4,0.6,0.5c0.3,0.1,0.6,0.4,0.7,0.7c0.1,0.3,0.5,0.7,0.9,1s0.7,0.6,0.7,0.8s0.1,0.3,0.2,0.2s0.2,0,0.2,0.2
	s0.2,0.5,0.5,0.6c0.3,0.1,0.5,0.4,0.5,0.5c0,0.4,1.4,1.9,1.7,1.9C113.3,183.4,113.4,183.1,113.4,182.8z M122.3,182.8
	c0.3-0.1,0.5-0.4,0.5-0.6c0-0.3-1.7-0.7-2.3-0.5c-0.4,0.2-0.7,1-0.5,1.3C120.2,183.4,121.4,183.3,122.3,182.8L122.3,182.8z
	 M136.1,179.8c0.3-0.2,0.7-0.5,0.9-0.6c0.2-0.1,0.4-0.3,0.3-0.4c-0.2-0.2-2.8,0.9-2.8,1.3C134.5,180.4,135.7,180.2,136.1,179.8
	L136.1,179.8z M113.4,178.7c-0.1-0.1-0.4-0.2-0.5-0.2c-0.2,0.1-0.2,0.2,0.2,0.5c0.3,0.3,0.5,0.4,0.5,0.2
	C113.6,179.1,113.6,178.8,113.4,178.7z M128,178.9c0.5-0.5-1.5-2.3-2.5-2.3c-0.3,0-0.5-0.1-0.6-0.2c-0.2-0.3-1.1-0.3-1.1,0
	c0,0.1,0.2,0.3,0.5,0.4c0.3,0.1,0.7,0.4,1.1,0.7C126.8,178.7,127.7,179.2,128,178.9z M130.7,176.4c-0.1-1-0.2-1.9-0.3-2
	c-0.1-0.1-0.3-0.6-0.4-1.3c-0.1-0.6-0.3-1.2-0.4-1.2s-0.3-0.6-0.4-1.3s-0.3-1.4-0.4-1.5c-0.1-0.1-0.2-0.4-0.2-0.8
	c0-1.3-0.3-1.7-1.4-2.1c-0.6-0.2-1.4-0.4-1.7-0.4s-0.6-0.1-0.7-0.2c-0.1-0.1-0.3-0.2-0.6-0.2c-0.2,0-0.7-0.2-1-0.5s-0.8-0.5-1-0.5
	c-0.2,0-0.7-0.1-1.1-0.3c-0.4-0.1-0.7-0.3-0.7-0.3c0,0-0.4-0.3-0.9-0.8c-2.2-2.1-2.5-2.1-2.3-0.2c0.5,5,0.7,7,0.9,7.1
	c0.1,0.1,0.2,0.8,0.3,1.5c0.1,0.8,0.3,1.6,0.5,1.8c0.3,0.3,0.4,0.3,0.8-0.1c0.5-0.5,1.3-0.7,1.6-0.2c0.1,0.1,0.2,0.2,0.4,0.1
	c0.1-0.1,0.2,0.1,0.3,0.4c0,0.3,0.2,0.6,0.4,0.7c0.2,0.1,0.7,0.4,1.2,0.6c0.4,0.2,0.8,0.3,0.8,0.3c0-0.1,0.3,0.1,0.7,0.3
	c1,0.7,2.3,1.3,2.8,1.3c0.6,0,1.2,0.6,1.2,1.1c0,0.2,0.2,0.4,0.3,0.4s0.4,0.2,0.5,0.4c0.1,0.3,0.2,0.3,0.5,0.1
	C130.8,178.3,130.9,177.9,130.7,176.4L130.7,176.4z M136.9,177.9c1.8-0.8,6-1.9,6.9-1.7c0.5,0.1,1.2,0,2.1-0.4
	c1.2-0.5,3.3-1.7,3.7-2.2c0.1-0.2,1.1-0.7,2.1-1.2c1-0.5,5.1-3.2,5.2-3.5c0-0.1,0.2-0.2,0.4-0.2c0.2,0,0.4-0.2,0.5-0.3
	s0.2-0.3,0.3-0.3c0.3,0.1,2.4-1.1,2.5-1.4c0.1-0.2,0.3-0.4,0.5-0.4s0.4-0.1,0.4-0.2c0-0.1,0.4-0.4,0.9-0.6c0.5-0.2,1.1-0.7,1.4-1.1
	c0.3-0.4,0.6-0.7,0.7-0.7c0.1,0,0.6-0.5,1.2-1l1-1l-0.1-1.8c-0.1-1-0.2-1.9-0.4-1.9c-0.1-0.1-0.3-1-0.4-2c-0.1-1-0.3-1.9-0.4-1.9
	c-0.1,0-0.3-0.9-0.3-2c-0.1-1.1-0.3-2-0.4-2.1c-0.1,0-0.2-0.3-0.2-0.6c0-0.4-0.2-0.5-0.7-0.4c-0.6,0-0.8,0.2-0.9,0.8
	c-0.1,0.4-0.2,0.6-0.3,0.6c-0.1-0.1-0.4,0.1-0.6,0.4s-0.8,0.7-1.2,0.9c-0.4,0.2-0.7,0.5-0.8,0.8c-0.1,0.3-0.2,0.4-0.3,0.3
	c-0.1-0.1-0.4,0.2-0.7,0.5c-0.3,0.4-0.7,0.7-0.8,0.7c-0.5,0.1-1.7,0.7-1.7,0.8c0,0.4-1.8,1-2.8,0.9c-0.7-0.1-1,0-1,0.3
	c-0.1,0.5,0.9,1.5,2,2.1c0.9,0.4,1,0.6,0.9,1.2c-0.1,0.4-0.3,0.8-0.5,0.9c-0.4,0.3-0.2,0.8,0.3,0.8c0.2,0,0.4,0.1,0.4,0.3
	c0,0.2-0.4,0.2-1.3,0.2c-1.5-0.1-2.2-0.6-2.4-1.8c-0.1-0.3-0.2-0.6-0.4-0.6c-0.1,0-0.2-0.2-0.3-0.5c-0.1-0.4-0.2-0.5-0.7-0.5
	c-0.3,0-0.6,0.2-0.7,0.3c0,0.1-0.2,0.2-0.4,0.2c-0.2,0-0.4,0.1-0.4,0.3s-0.7,0.5-1.5,0.8c-0.8,0.3-1.4,0.5-1.4,0.6
	c0,0.1-0.3,0.3-0.7,0.3s-0.7,0.3-0.7,0.4c0,0.1-0.1,0.2-0.3,0.2c-0.2,0-0.6,0.3-1,0.6c-0.4,0.3-1,0.7-1.3,0.8
	c-0.8,0.2-2.7,1.1-3.6,1.7c-0.4,0.3-1.1,0.6-1.6,0.8s-1.3,0.5-1.8,0.8c-1.3,0.6-3.8,1.2-4.5,1.1c-0.6-0.1-0.6-0.1-0.5,2
	c0,1.1,0.2,2.1,0.3,2.2c0.1,0.1,0.3,0.8,0.4,1.7c0.1,0.9,0.3,1.6,0.4,1.7c0.1,0.1,0.3,0.9,0.4,1.8c0.1,0.9,0.2,1.6,0.3,1.5
	c0.1-0.1,0.3,0.1,0.3,0.3c0.1,0.2,0.2,0.3,0.3,0.3s0.4,0,0.8,0.1C134.2,178.8,135.4,178.6,136.9,177.9L136.9,177.9z M115.1,178
	c0-0.6-0.4-0.9-0.8-0.6c-0.3,0.3,0,1,0.4,1C114.9,178.5,115.1,178.3,115.1,178z M167.9,177.1c0-0.1-0.1-0.2-0.2-0.2
	s-0.2,0.1-0.2,0.2s0.1,0.2,0.2,0.2S167.9,177.2,167.9,177.1z M156.9,174.7c0-0.5-0.1-0.8-0.2-0.7c-0.1,0.1-0.3-0.1-0.3-0.4l-0.1-0.6
	l0,0.5c0,0.3-0.1,0.5-0.3,0.5c-0.1,0-0.2,0.3-0.2,0.6c0,0.5,0.2,0.7,1,0.8C156.8,175.6,156.9,175.2,156.9,174.7z M158.6,169.8
	c0.1-0.4-0.6-0.3-0.8,0.1c-0.1,0.2-0.2,0.3-0.3,0.3c-0.4-0.1-1,0.3-1,0.7c0,0.2,0.3,0.2,1-0.2C158,170.3,158.5,169.9,158.6,169.8z
	 M162.9,170.3c-0.1-0.1-0.3-0.3-0.4-0.3s-0.1,0.2,0.1,0.3C162.9,170.7,163.1,170.7,162.9,170.3L162.9,170.3z M163.7,166.2
	c0-0.5-0.8-0.4-0.9,0.1c-0.1,0.3-0.2,0.5-0.3,0.5s-0.2,0.1-0.2,0.2c0,0.1,0.3,0.1,0.7-0.1C163.4,166.8,163.7,166.4,163.7,166.2
	L163.7,166.2z M130.9,165.5c0.6-0.5,0.5-0.9-0.3-0.9c-0.7,0-1.3,0.4-1.3,0.9C129.4,166,130.4,165.9,130.9,165.5L130.9,165.5z
	 M133.7,165.1c-0.2-0.2,1.5-1.9,1.9-1.9c0.1,0,0.2-0.1,0.2-0.2c0-0.7-3.6,1-3.6,1.7c0,0.1,0.4,0.2,0.8,0.4c0.4,0.1,0.8,0.3,0.9,0.3
	C133.8,165.4,133.8,165.3,133.7,165.1L133.7,165.1z M129.5,164.6c0.6-0.2,1.2-0.4,1.3-0.5c0.1-0.1,0.4-0.2,0.6-0.2
	c0.6,0,2.1-0.8,2.2-1.1c0-0.1,0.5-0.4,1-0.6c0.6-0.2,1.3-0.5,1.7-0.8s0.7-0.4,0.8-0.3s0.2,0,0.2-0.1c0-0.2,2.2-1.6,2.7-1.6
	c0.3,0,1.2-1,1.2-1.3c0-0.2-0.2-0.3-0.5-0.3c-0.5,0-0.5,0,0.1-0.6c0.7-0.7,1.2-0.7,1.2-0.1c0,0.6,0.1,0.6,1.5-0.4
	c1.1-0.8,1.9-1.1,1.9-0.7c0,0.4-2.9,2.6-3.4,2.6c-0.1,0-0.3,0.1-0.3,0.2s-0.3,0.3-0.7,0.5s-0.7,0.4-0.7,0.6s-0.1,0.2-0.1,0.1
	c-0.2-0.2-1.3,1-1.3,1.3c0,0.1,0.2,0.3,0.4,0.4c0.4,0.1,2.8-1.3,2.8-1.6c0-0.1,0.2-0.2,0.4-0.2c0.2,0,0.6-0.2,0.8-0.4
	c0.2-0.2,0.8-0.7,1.3-1c0.5-0.3,1.2-0.9,1.6-1.4c0.4-0.4,0.9-0.8,1.1-0.8c0.2,0,0.4-0.1,0.5-0.3s0.3-0.3,0.5-0.3
	c0.3,0,0.3,0.1,0.3,0.3c-0.1,0.2-0.2,0.3-0.4,0.3s-0.5,0.3-0.9,0.7c-0.4,0.4-1.1,1-1.6,1.5c-0.5,0.4-0.9,0.9-0.8,0.9
	c0.2,0.2,1.3-0.2,1.9-0.7c0.3-0.3,1-0.9,1.5-1.2l0.9-0.7l0.2,0.6c0.1,0.5,0.3,0.6,0.7,0.4c0.3-0.1,0.6-0.3,0.7-0.4
	c0.3-0.4,0-1.8-0.4-2.2c-0.2-0.2-0.4-0.5-0.4-0.7s-0.1-0.3-0.2-0.3s-0.3-0.3-0.4-0.6c-0.1-0.3-0.3-0.6-0.4-0.6c-0.3,0-1.2-1-1.2-1.4
	c0-0.2-0.1-0.3-0.2-0.2s-0.3-0.1-0.4-0.5c-0.1-0.3-0.3-0.6-0.4-0.6s-0.2-0.1-0.2-0.3c0-0.3-2.3-2.5-2.6-2.5c-0.1,0-0.4-0.2-0.7-0.5
	c-0.3-0.3-0.6-0.6-0.7-0.6s-0.6-0.5-1.2-1.1s-1.4-1.2-1.9-1.4c-0.5-0.2-1.3-0.7-1.8-1.1c-0.7-0.7-1-0.8-1.6-0.7
	c-0.4,0.1-1,0-1.3-0.2c-0.5-0.3-0.6-0.3-0.9,0.2c-0.3,0.5-0.4,0.5-0.4,0c0-0.3-0.1-0.6-0.2-0.8c-0.4-0.7-1.3,0.6-1.3,1.9l0,1.1
	l-1.1,0.1c-1.2,0.1-1.4,0.4-0.7,0.8c0.3,0.1,0.5,0.4,0.5,0.6c0,0.2,0.1,0.4,0.2,0.4s0.2,0.1,0.2,0.2c0,0.1-0.6,0.3-1.4,0.4
	c-0.8,0.1-1.8,0.2-2.4,0.3c-0.5,0.1-1.2,0.1-1.5,0c-0.3-0.1-1.1,0-2.1,0.3l-1.5,0.5l-0.1,1.3c-0.1,0.7-0.2,1.3-0.4,1.4
	c-0.1,0.1-0.3,0.4-0.4,0.7c-0.1,0.3-0.3,0.7-0.5,0.8c-0.4,0.3-0.4,3.9,0,4c0.2,0.1,0.3,0.2,0.3,0.4c0,0.3,0.7,0.9,1.8,1.7
	c1.3,0.9,1.3,0.9,1.3,0.5c0-0.2-0.2-0.4-0.4-0.4c-0.4,0-0.5-0.6-0.1-0.8c0.4-0.1,2.4,0.7,2.4,1c0,0.1,0.2,0.3,0.6,0.4
	c0.3,0.1,0.8,0.4,1.2,0.7c0.4,0.4,0.9,0.6,1.6,0.6c1,0,1.6,0.6,0.7,0.6c-0.8,0-0.9,0.1-1.2,0.3c-0.1,0.1,0.2,0.2,0.8,0.1l1.9-0.3
	c0.5-0.1,1.4-0.4,1.9-0.7c0.5-0.3,1-0.6,1.1-0.6c0.1,0,0.4-0.2,0.7-0.5s0.9-0.8,1.4-1c0.5-0.3,0.9-0.6,1-0.8
	c0.1-0.2,0.3-0.3,0.5-0.2c0.2,0.1,0.2,0.1,0.1-0.1c-0.1-0.2-0.3-0.2-0.5,0c-0.2,0.2-0.3,0.2-0.3,0.1c0-0.1-0.2,0-0.5,0.1
	c-0.8,0.4-0.6-0.3,0.2-0.8c0.8-0.4,2-0.6,2-0.2c0,0.1,0.1,0.4,0.1,0.6c0.1,0.2,0,0.4-0.3,0.6c-0.6,0.2-1.2,0.7-2.3,1.8
	c-0.5,0.5-1,0.9-1.2,0.9c-0.2,0-1,0.3-1.8,0.7c-0.8,0.4-1.8,0.8-2.1,0.8c-0.3,0.1-1,0.2-1.6,0.4c-0.5,0.1-2.2,0.2-3.8,0.1
	c-2.6-0.1-3.8,0.1-3.3,0.5c0.2,0.2,2.4,0.7,4.4,1c0.6,0.1,1.1,0,1.5-0.2c0.3-0.2,1.1-0.4,1.7-0.5c0.6-0.1,2-0.5,2.9-1
	c1-0.5,1.9-0.9,2-0.9s0.4-0.2,0.6-0.4c0.5-0.5,2.2-1.9,2.2-1.7c0,0.1,0.4-0.1,0.9-0.3c1.8-0.9,1,0.2-0.9,1.2
	c-0.5,0.2-1.5,0.8-2.3,1.3s-1.5,0.9-1.6,0.9c-0.1,0-0.2,0.1-0.2,0.2s-0.3,0.2-0.6,0.2c-0.3,0-0.7,0.1-0.7,0.2
	c-0.1,0.1-0.9,0.5-1.9,0.7c-2.2,0.6-3.1,1.2-2.6,1.5C128.2,164.9,128.1,164.9,129.5,164.6L129.5,164.6z M127.7,158.5
	c-0.2-0.2-0.4-0.4-0.4-0.5s1.1-0.2,2.4-0.2c2,0,2.4,0.1,2.4,0.4c0,0.2-0.2,0.4-0.6,0.4c-0.3,0-1.2,0.1-2,0.1
	C128.5,158.8,128,158.7,127.7,158.5L127.7,158.5z M133.6,157.7c0.1-0.5,1.4-0.7,1.4-0.2c0,0.4-0.5,0.7-1.1,0.7
	C133.7,158.1,133.6,157.9,133.6,157.7z M170.4,164.1c0.7-0.3,0.8-0.7,0.3-0.7c-0.6,0-1.9,0.5-1.9,0.8
	C168.8,164.5,169.7,164.5,170.4,164.1L170.4,164.1z M136.5,163.9c0-0.1-0.2-0.2-0.4-0.2c-0.2,0-0.4,0.1-0.4,0.2s0.2,0.2,0.4,0.2
	C136.3,164.2,136.5,164.1,136.5,163.9z M137.6,163.8c0.4-0.2,0.5-0.8,0.2-0.8c-0.5,0-1,0.3-1,0.6C136.7,164,137,164,137.6,163.8z
	 M101.2,162.6c0-0.8-0.6-0.8-0.8-0.1c-0.3,1-0.2,1.2,0.3,0.9C101,163.3,101.2,162.9,101.2,162.6L101.2,162.6z M170.9,162.2
	c0.4-0.3-0.4-0.3-1.4,0.2c-0.5,0.2-0.8,0.5-0.8,0.6C168.8,163.2,170.5,162.6,170.9,162.2L170.9,162.2z M137.2,161.8
	c0-0.1-0.1-0.1-0.2-0.1c-0.1,0-0.2,0.1-0.2,0.3s0.1,0.2,0.2,0.1C137.1,162,137.2,161.9,137.2,161.8z M127.7,161
	c0-0.5-0.4-0.6-0.9-0.1c-0.2,0.2-0.2,0.3,0,0.4C127.3,161.6,127.7,161.5,127.7,161z M122.1,160.4c-0.9-0.6-2.6-1.1-2.6-0.7
	c0,0.6,1.4,1.3,2.8,1.3l0.7,0L122.1,160.4L122.1,160.4z M143.2,160.5c0.3-0.4,0-0.5-0.5-0.1c-0.4,0.3-0.4,0.4-0.1,0.4
	C142.8,160.8,143.1,160.6,143.2,160.5z M127.2,160c0-0.2-1.2-0.5-2.1-0.4c-0.8,0.1-1,0.3-0.5,0.5C125.1,160.3,127.2,160.2,127.2,160
	L127.2,160z M154.3,159.6c0.6-0.2,0.5-0.8-0.1-1c-0.3-0.1-0.6,0-0.7,0.2C153,159.6,153.4,160,154.3,159.6L154.3,159.6z M152.8,159.1
	c0-0.3-0.2-0.5-0.4-0.5c-0.3,0-0.3,0.1-0.1,0.1c0.2,0.1,0.3,0.3,0.3,0.5s0.1,0.3,0.1,0.3S152.8,159.3,152.8,159.1z M121.7,158.7
	c-0.6-0.4-1.2-0.5-1-0.1c0.1,0.3,1.2,0.7,1.4,0.5C122.2,159.1,122,158.9,121.7,158.7L121.7,158.7z M117.9,154.4
	c0-1.9,0.1-2.6,0.4-2.9c0.2-0.2,0.5-0.6,0.7-0.9c0.2-0.3,0.5-0.7,0.6-0.8c0.1-0.2,0.3-0.5,0.4-0.8s0.3-0.5,0.4-0.5s0.2-0.3,0.2-0.6
	s-0.1-0.6-0.3-0.6c-0.4,0-1.9,1.7-1.9,2.1c0,0.2-0.1,0.3-0.2,0.3c-0.1,0-0.2,0.2-0.2,0.3s-0.2,0.5-0.4,0.7c-0.2,0.2-0.4,0.9-0.5,1.4
	c-0.1,0.6-0.2,1.1-0.4,1.2c-0.1,0.1-0.3,0.6-0.4,1.1c-0.1,0.9-0.1,1,0.4,0.9c0.5-0.1,0.5,0,0.5,0.4c-0.1,0.9,0,1.2,0.3,1.2
	C117.8,156.9,117.9,156.2,117.9,154.4L117.9,154.4z M168.8,156.4c0.3-0.2,0.2-0.3-0.1-0.5c-0.3-0.3-0.4-0.3-0.8,0
	c-0.3,0.3-0.4,0.2-0.2-0.3c0.1-0.5,0.1-0.7-0.3-0.7c-0.3,0-0.4,0.1-0.3,0.4c0.1,0.2,0.1,0.6,0.1,0.9
	C167.4,156.7,168.2,156.8,168.8,156.4L168.8,156.4z M115.6,153.2c0-0.4,0.2-0.9,0.5-1.3l0.7-0.8c0.1-0.1,0.3-0.6,0.4-1
	c0.1-0.6,0.1-0.7-0.2-0.6c-0.2,0.1-0.4,0.3-0.5,0.6s-0.2,0.5-0.4,0.5s-0.2,0.2-0.2,0.4s-0.2,0.4-0.3,0.5c-0.2,0.1-0.4,0.8-0.5,1.5
	c-0.2,1.1-0.1,1.3,0.2,1.1C115.4,154,115.6,153.6,115.6,153.2z M114.2,152.6c0.1-0.4,0.3-0.8,0.4-0.8c0.1,0,0.2-0.2,0.2-0.4
	c0-0.5,0.4-1,1.6-2.4c0.4-0.5,0.8-1,0.8-1.1s0.2-0.4,0.4-0.6c0.2-0.2,0.4-0.6,0.4-0.9s0.1-0.4,0.1-0.4c0.1,0.1,0.4-0.1,0.7-0.4
	s0.8-0.6,1.2-0.7s0.7-0.3,0.7-0.4s0.1-0.2,0.3-0.2c0.2,0,0.6-0.2,0.9-0.5c0.5-0.4,0.5-0.5,0.3-0.8c-0.2-0.3-0.5-0.2-1.2,0.2
	c-0.5,0.3-1,0.6-1.1,0.7c-0.1,0.1-0.2,0.2-0.2,0.1c0-0.1-0.6,0.4-1.3,1.2c-0.7,0.7-1.4,1.3-1.6,1.3c-0.1,0-0.3,0.2-0.4,0.5
	c-0.1,0.3-0.3,0.4-0.4,0.4c-0.1-0.1-0.2,0-0.2,0.2c0,0.3-0.2,0.6-1.2,1.8c-0.1,0.2-0.2,0.5-0.2,0.7c0,0.2-0.2,0.5-0.4,0.8
	c-0.6,0.6-0.8,2.7-0.3,2.7C113.9,153.4,114.1,153.1,114.2,152.6L114.2,152.6z M119.3,152.3c0.1-0.2,0.1-0.6,0.1-0.8
	c0-0.3-0.1-0.3-0.5,0.2c-0.3,0.3-0.5,0.7-0.5,0.8C118.5,152.9,119.2,152.8,119.3,152.3z M112.4,149.8c0.3-0.3,0.5-0.7,0.5-1
	c0-0.4-0.1-0.4-0.5-0.2c-0.7,0.4-1.2,1-1.2,1.4C111.2,150.5,111.7,150.4,112.4,149.8z M115.7,146.6c0.1-0.3,0.3-0.4,0.4-0.4
	c0.1,0.1,0.2,0,0.2-0.2c0-0.2-0.1-0.4-0.1-0.4c-0.2,0-1.1,1-1.1,1.2C115.1,147.3,115.5,147.1,115.7,146.6z M114.1,145.8
	c0-0.4-0.5-0.4-0.7,0.1c-0.1,0.2,0.1,0.3,0.3,0.3S114.1,146,114.1,145.8z M126.6,145.2c0.2-0.3-0.1-0.3-0.7,0
	c-0.5,0.2-0.5,0.2,0,0.2C126.2,145.4,126.5,145.3,126.6,145.2z M117.9,144.3c0.4-0.3,0.6-0.7,0.6-0.8s-0.5,0.2-0.9,0.6
	C116.6,145.1,116.8,145.2,117.9,144.3L117.9,144.3z M108.5,143.2c0-0.3,0.1-0.4,0.2-0.4c0.2,0.2,0.5-1,0.5-2.2
	c0-0.5,0.1-0.8,0.2-0.7c0.2,0.1,0.5-1.5,0.5-2.6c0-0.9-0.7-0.2-0.9,0.9c-0.1,0.6-0.3,1-0.4,0.9c-0.1-0.1-0.2,0.2-0.2,0.5
	c0,1-0.3,1.8-0.5,1.6c-0.1-0.1-0.2,0.4-0.2,1.1c0,0.9,0.1,1.2,0.4,1.2C108.3,143.7,108.5,143.5,108.5,143.2L108.5,143.2z
	 M110.7,143.2c0-0.3-0.2-0.5-0.4-0.5c-0.4,0-0.5,0.2-0.1,0.6C110.7,143.8,110.7,143.8,110.7,143.2L110.7,143.2z M130.1,143
	c0.1-0.2,0-0.3-0.2-0.2c-0.2,0.1-0.4,0.3-0.4,0.4c-0.1,0.2,0,0.3,0.2,0.2C129.9,143.4,130.1,143.2,130.1,143z M144.8,142.8
	c0-0.5-0.1-0.7-0.4-0.7c-0.4,0-0.4,0.1-0.3,0.7c0.1,0.4,0.3,0.7,0.4,0.7C144.6,143.5,144.8,143.2,144.8,142.8z M120.4,142.8
	c0.7-0.4,0.6-0.9-0.3-0.9c-0.5,0-0.6,0.1-0.7,0.6C119.3,143.2,119.5,143.3,120.4,142.8z M107,141.9c0-0.2,0.1-0.4,0.2-0.4
	c0.1,0,0.3-0.5,0.3-1.1s0.3-1.2,0.4-1.3c0.5-0.3,0.5-2.1,0-2.1c-0.2,0-0.4,0.3-0.4,0.7c0,0.4-0.2,0.7-0.3,0.7
	c-0.1,0-0.3,0.6-0.3,1.4c-0.1,0.8-0.3,1.4-0.4,1.5c-0.3,0.1-0.3,0.8-0.1,1.1C106.7,142.6,107,142.3,107,141.9L107,141.9z M131,141.8
	c0.2-0.3,0.4-0.7,0.4-1c0-0.3,0.2-0.6,0.4-0.6c0.3-0.1,0.3-0.2,0-0.5c-0.5-0.5-0.8-0.4-1,0.3c-0.1,0.3-0.2,0.6-0.3,0.6
	c-0.3,0-0.5,0.6-0.3,1.2C130.2,142.4,130.4,142.4,131,141.8L131,141.8z M124.5,140.9c0.1-0.1,0.3-0.7,0.4-1.2
	c0.1-0.6,0.3-1.2,0.5-1.4c0.5-0.5,0.5-0.8,0-0.8c-0.4,0-0.6,0.5-0.6,1.1c0,0.2-0.2,0.6-0.4,0.8c-0.6,0.5-0.9,1.7-0.5,1.7
	C124.1,141.1,124.3,141,124.5,140.9L124.5,140.9z M123,140.2c0.1-0.3,0.2-0.6,0.3-0.6s0.3-0.4,0.3-0.8c0.1-0.5,0.3-0.9,0.5-1
	c0.2-0.1,0.2-0.2-0.1-0.4c-0.2-0.1-0.5-0.3-0.6-0.3c-0.5,0-1.1,1.5-1.1,2.6C122.4,140.9,122.8,141.2,123,140.2L123,140.2z
	 M127.2,140.5c0.2,0,0.6-0.1,0.8-0.1c0.3,0,0.5-0.3,0.6-0.7c0.1-0.4,0.2-0.7,0.4-0.6s0.2,0,0.2-0.2c0-0.4-0.8-0.8-1.2-0.5
	c-0.1,0.1-0.4,0-0.5-0.1c-0.2-0.2-0.3-0.2,0-0.2c0.2,0,0.3-0.1,0.3-0.2c0-0.4-0.5-0.3-1,0.3c-0.2,0.3-0.5,0.7-0.5,0.9
	s-0.1,0.3-0.2,0.3c-0.1,0-0.2,0.4-0.2,0.9c0,0.8,0.1,0.9,0.5,0.7C126.6,140.6,127,140.5,127.2,140.5L127.2,140.5z M127.2,138.7
	c0-0.2,0.1-0.3,0.2-0.2c0.1,0.1,0.2,0.3,0.2,0.4c0,0.1-0.1,0.2-0.2,0.2C127.3,139.1,127.2,138.9,127.2,138.7z M136.5,140.4
	c0-0.4-0.5-0.4-0.7,0.1c-0.1,0.2,0.1,0.3,0.3,0.3C136.3,140.8,136.5,140.6,136.5,140.4z M116,140.2c-0.4-0.4-0.9-0.5-0.9-0.1
	c0,0.2,0.4,0.5,0.9,0.5C116.3,140.6,116.2,140.5,116,140.2L116,140.2z M130.2,139.6c0-0.5-0.1-0.7-0.4-0.6c-0.2,0.1-0.4,0.4-0.4,0.7
	c0,0.4,0.1,0.6,0.4,0.6C130,140.3,130.2,140.1,130.2,139.6z M138.8,140.1c0.1-0.1,0-0.2-0.2-0.2c-0.2,0-0.4,0.1-0.4,0.2
	s0.1,0.2,0.2,0.2S138.7,140.2,138.8,140.1z M121.6,139.6c0.1-0.2,0-0.3-0.2-0.2c-0.2,0.1-0.4,0.3-0.4,0.4c-0.1,0.2,0,0.3,0.2,0.2
	C121.3,140,121.5,139.8,121.6,139.6z M117.1,139c0-0.1-0.1-0.3-0.2-0.3c-0.2-0.1-0.3,0.1-0.3,0.3C116.5,139.4,117,139.4,117.1,139z
	 M122.1,138c0-0.2-0.1-0.4-0.2-0.4c-0.1,0-0.2,0.2-0.2,0.4s0.1,0.4,0.2,0.4C122,138.4,122.1,138.2,122.1,138z M135.8,138
	c0-0.3-0.8-1.3-1-1.3c-0.3,0-0.3,0.4,0.2,1C135.4,138.1,135.8,138.3,135.8,138L135.8,138z M104.7,137.1c-0.2-0.2-0.4-0.2-0.5-0.1
	c-0.1,0.1,0,0.3,0.2,0.4C104.8,137.7,105,137.5,104.7,137.1L104.7,137.1z M110.9,135.5c0.3-0.2,0.5-0.6,0.5-0.9
	c0-0.2,0.1-0.4,0.2-0.4s0.3-0.2,0.4-0.5c0.2-0.6,0.3-0.7,1.5-2.1c0.4-0.5,0.8-1,0.8-1.2c0-0.2,0.1-0.3,0.2-0.3s0.3-0.3,0.4-0.6
	s0.4-0.7,0.8-0.9c0.7-0.4,1-1.1,0.7-1.5c-0.3-0.3-1.2,0.2-1.4,0.8c-0.1,0.2-0.2,0.4-0.3,0.4s-0.3,0.2-0.4,0.5
	c-0.1,0.3-0.3,0.5-0.4,0.5c-0.2,0-0.5,0.2-0.7,0.5c-0.2,0.3-0.5,0.6-0.6,0.8c-0.2,0.2-0.4,0.6-0.4,1.1c-0.1,0.4-0.3,0.8-0.4,0.8
	s-0.3,0.3-0.4,0.6c-0.1,0.3-0.2,0.6-0.3,0.6c-0.2,0-1,1.7-1,2C110,136.1,110.4,136,110.9,135.5L110.9,135.5z M110.2,133.5
	c0.2-0.3,0.5-0.7,0.5-0.9s0.1-0.3,0.2-0.3c0.1,0,0.3-0.4,0.4-0.9c0.1-0.5,0.3-0.9,0.4-0.9s0.3-0.3,0.4-0.6s0.2-0.6,0.3-0.6
	c0.3,0,1.7-1.3,1.7-1.6c0-0.2,0.2-0.5,1.2-1.7c0.1-0.1,0.3-0.5,0.4-0.9s0.3-0.7,0.5-0.9c0.3-0.2,0.3-0.5,0.2-1
	c-0.1-0.4-0.2-0.8-0.3-0.8c-0.5,0-1,0.7-1,1.4c0,0.4-0.2,1-0.5,1.3s-0.5,0.7-0.5,0.8s-0.1,0.2-0.2,0.1c-0.1-0.1-0.2,0-0.2,0.2
	s-0.2,0.6-0.5,0.9c-0.3,0.3-0.5,0.7-0.5,0.9s-0.1,0.3-0.2,0.3s-0.2,0.2-0.2,0.4c0,0.2-0.1,0.4-0.3,0.4c-0.3,0-1.4,1.2-1.4,1.6
	c0,0.2-0.2,0.4-0.4,0.4s-0.4,0.3-0.4,0.5s-0.1,0.4-0.2,0.4c-0.3,0-0.6,1.4-0.4,1.7C109.4,134.1,109.8,134,110.2,133.5L110.2,133.5z
	 M104.7,132.2c0.2-0.8-0.1-2.8-0.4-2.8c-0.1,0-0.3-0.3-0.3-0.7s-0.1,0-0.1,0.8c0,0.9,0.2,1.5,0.4,1.7c0.3,0.2,0.3,0.3,0,0.4
	c-0.3,0.1-0.4,1.3-0.1,1.3C104.5,132.8,104.6,132.5,104.7,132.2L104.7,132.2z M109.9,130.1c0.1-0.3,0.2-0.5,0.3-0.5s0.2-0.2,0.2-0.5
	c0-0.3,0.2-0.6,0.5-0.8c0.3-0.2,0.5-0.5,0.4-0.7c-0.1-0.3-0.2-0.2-0.6,0.2c-0.3,0.3-0.6,0.5-0.6,0.4c-0.1-0.1-0.2,0.1-0.3,0.4
	c-0.1,0.3-0.3,0.5-0.4,0.5s-0.2,0.3-0.2,0.7C109.2,130.7,109.7,130.9,109.9,130.1L109.9,130.1z M112.9,126.4c0.3-0.4,0.8-1,1-1.3
	c0.5-0.6,0.6-1.2,0.1-1.2c-0.5,0-1.1,0.5-1.3,1.1c-0.1,0.3-0.3,0.7-0.5,0.8c-0.4,0.3-0.5,1.2-0.1,1.2
	C112.2,127.2,112.6,126.9,112.9,126.4L112.9,126.4z M97.3,123.1c0-0.1-0.1-0.2-0.2-0.2c-0.1,0-0.3,0.1-0.4,0.2s0,0.2,0.2,0.2
	S97.3,123.2,97.3,123.1z M97.7,121.2c0.2-0.1,0.4-0.3,0.4-0.5c0-0.2-0.1-0.3-0.4-0.2c-0.3,0.1-0.4,0-0.3-0.3
	c0.1-0.3,0.2-0.4,0.4-0.4c0.2,0,0.3,0,0.3-0.2s0.2-0.4,0.4-0.6c0.5-0.5,0.4-0.6-0.4-0.6c-1-0.1-1.2,0-1.2,0.3c0,0.2-0.2,0.6-0.5,0.9
	s-0.5,0.7-0.5,0.9c0,0.2,0.2,0.3,0.5,0.2c0.3-0.1,0.5,0,0.5,0.2C96.8,121.4,97,121.4,97.7,121.2L97.7,121.2z M117.1,116.8
	c0.1-0.3,0.1-0.7,0.1-0.7c-0.2-0.2-0.6,0.3-0.8,0.9c-0.1,0.5-0.1,0.6,0.2,0.5C116.8,117.5,117,117.1,117.1,116.8L117.1,116.8z
	 M98.4,116.1c1.3-1,1.4-1.3,0.5-1.5c-0.7-0.2-0.8-0.5-0.2-1c0.4-0.3,0.4-0.3-0.1-0.5c-0.3-0.1-0.5-0.3-0.5-0.5
	c0-0.6-0.5-0.6-1.6-0.1c-0.6,0.3-1.1,0.7-1.2,1c-0.1,0.3-0.3,0.5-0.4,0.5c-0.2,0-0.1,0.1,0,0.4c0.4,0.5,1,0.5,1.1-0.1
	c0.1-0.4,1.5-1.5,1.5-1.1c0,0.1-0.4,0.5-0.9,0.9c-0.5,0.4-0.9,0.9-0.9,1.2s-0.1,0.4-0.2,0.4s-0.2,0.1-0.2,0.2c0,0.1,0.2,0.2,0.4,0.2
	s0.4-0.1,0.4-0.3c0-0.2,0.1-0.2,0.2-0.1c0.1,0.1,0.5-0.1,0.8-0.5s0.8-0.6,0.8-0.5c0.1,0.1-0.1,0.4-0.5,0.8c-0.6,0.6-0.9,1.4-0.5,1.3
	C97.1,117,97.7,116.6,98.4,116.1L98.4,116.1z M117.8,114.3c0-0.1-0.1-0.2-0.2-0.1c-0.1,0.1-0.2,0.3-0.2,0.4s0.1,0.2,0.2,0.1
	C117.6,114.6,117.8,114.4,117.8,114.3z M96.1,111.6c0.1-0.5,0-0.5-1.2,0.1c-1.3,0.7-1.5,1-0.8,1.1C94.7,113,96,112.2,96.1,111.6z
	 M96.1,109.8c0-0.2-0.3-0.5-0.6-0.6c-0.8-0.3-0.8-0.3-0.8,0c0,0.1,0.2,0.2,0.4,0.2c0.2,0,0.4,0.2,0.4,0.4c0,0.2,0.2,0.4,0.4,0.4
	S96.1,110,96.1,109.8z M109.7,107.2c0-0.1-0.1-0.2-0.2-0.1c-0.1,0.1-0.2,0.2-0.2,0.3s0.1,0.1,0.2,0.1
	C109.6,107.5,109.7,107.4,109.7,107.2z M170.4,105.2c0.2-0.2,0.4-0.8,0.5-1.3s0.3-1,0.4-1c0.5,0,0.2-0.7-0.4-0.8
	c-0.6-0.1-0.9-0.6-0.4-0.6c0.1,0,0.2-0.3,0.2-0.6c0-0.3-0.1-0.6-0.3-0.6c-0.5,0-1,0.7-1,1.5c0,0.9,0.4,1.4,0.6,0.7
	c0.1-0.2,0.1-0.1,0.1,0.4c0,0.6-0.1,0.8-0.5,0.9c-0.3,0.1-0.5,0.3-0.5,0.8C169.3,105.6,169.8,105.8,170.4,105.2L170.4,105.2z
	 M102.5,104.9c0.1-0.1,0-0.4-0.1-0.5c-0.2-0.3-0.3-0.3-0.5,0c-0.2,0.4-0.1,0.7,0.2,0.7C102.3,105.1,102.5,105,102.5,104.9z
	 M164.2,103.3c0-0.3-0.1-0.7-0.3-0.9c-0.2-0.3-0.2-0.3,0-0.2c0.2,0.1,0.3-0.1,0.3-0.7c0-0.5-0.1-0.9-0.3-0.9c-0.2,0-0.2,0,0-0.1
	c0.4-0.1,0.4-1.1,0-1.1c-0.1,0-0.2-0.4-0.2-0.8c0.1-1.5,0-1.9-0.4-1.9c-0.3,0-0.4,0.3-0.4,0.9c0,0.5,0.1,0.9,0.2,0.9
	c0.4,0,0.3,2.7-0.1,3.1c-0.6,0.6-0.5,1.3,0.1,1.3c0.5,0,0.5,0.1,0.3,0.9c-0.2,0.8-0.1,0.9,0.2,0.5C164,104,164.2,103.6,164.2,103.3
	L164.2,103.3z M96,102.4c0-0.2-0.1-0.4-0.3-0.4c-0.2-0.1-0.3,0.1-0.3,0.4s0.1,0.5,0.3,0.4C95.8,102.7,96,102.6,96,102.4z
	 M109.7,101.9c0-0.2,0.2-0.7,0.4-1c0.3-0.4,0.3-0.6,0.1-0.9c-0.3-0.3-0.4-0.3-0.8,0.2c-0.4,0.5-0.6,1.7-0.3,2
	C109.5,102.5,109.7,102.4,109.7,101.9L109.7,101.9z M111.6,101c0.3-0.7,0.4-1.3,0.3-1.9c0-0.5-0.5-0.4-0.5,0.1
	c0,0.2-0.2,0.7-0.4,0.9c-0.4,0.6-0.5,1.6-0.1,1.6C111.2,101.6,111.4,101.3,111.6,101L111.6,101z M114.9,100.6c0.2-0.6,0-1.6-0.3-1.6
	c-0.3,0-0.5,0.7-0.5,1.5C114.1,101.3,114.7,101.4,114.9,100.6L114.9,100.6z M168.6,100c0-0.1-0.2-0.3-0.4-0.4
	c-0.3-0.1-0.4,0-0.4,0.6c0,0.7,0,0.7,0.4,0.4C168.4,100.4,168.6,100.1,168.6,100z M172.3,99.9c0.1-0.4,0-1-0.1-1.2
	c-0.3-0.6-0.4-0.6-0.5,0.9c-0.1,1-0.1,1.2,0.2,1.1C172,100.7,172.3,100.3,172.3,99.9L172.3,99.9z M165.1,97.8
	c-0.1-0.2-0.1,0-0.1,0.4s0.1,0.7,0.1,0.4S165.2,98,165.1,97.8z M103.9,95.3c0.3-0.5,0.2-1.2-0.1-1.2c-0.5,0-1.2,0.8-1.2,1.2
	c0,0.3,0.1,0.4,0.5,0.3C103.5,95.6,103.8,95.4,103.9,95.3L103.9,95.3z M165.7,92.6c0-0.1-0.1-0.2-0.2-0.2s-0.2,0.1-0.2,0.2
	c0,0.1,0.1,0.2,0.2,0.2S165.7,92.8,165.7,92.6z M163.6,91.7c-0.1-0.3-0.2-0.5-0.4-0.5c-0.3,0-0.3,0.9,0.1,1
	C163.7,92.4,163.7,92.3,163.6,91.7L163.6,91.7z M166.4,90.5c0-0.3-0.1-0.5-0.2-0.5s-0.2,0.2-0.2,0.5c0,0.3,0.1,0.5,0.2,0.5
	S166.4,90.7,166.4,90.5z M165.8,88.1c-0.1-1.3-0.6-2.3-1.1-2.3c-0.1,0-0.2,0.2-0.2,0.4c0,0.2,0.1,0.4,0.2,0.4s0.3,0.5,0.4,1.1
	c0.1,0.6,0.3,1.1,0.4,1.1c0.1,0,0.2,0.2,0.2,0.4c0,0.2,0.1,0.4,0.1,0.4C165.9,89.5,165.8,88.9,165.8,88.1L165.8,88.1z M97.5,86.3
	c0.1-0.2,0.2-0.5,0.1-0.7s0-0.4,0.2-0.4s0.3-0.2,0.3-0.4c0-0.4-0.4-0.5-1-0.1c-0.2,0.2-0.3,0.2-0.1,0.2c0.2,0,0.3,0.2,0.3,0.5
	c0,0.3-0.1,0.5-0.2,0.5s-0.2,0.2-0.2,0.4C96.8,86.6,97.2,86.7,97.5,86.3z M96.5,84.4c-0.3-0.3-0.4,0.2-0.3,0.6
	c0.2,0.4,0.2,0.4,0.3,0C96.6,84.8,96.6,84.5,96.5,84.4L96.5,84.4z M102.5,75.5c-0.2-0.1-0.4-0.1-0.5,0c-0.1,0.1,0.1,0.1,0.3,0.1
	C102.6,75.6,102.7,75.5,102.5,75.5L102.5,75.5z M98,73.4c0-0.1-0.1-0.2-0.2-0.2c-0.1,0-0.2,0.1-0.2,0.2c0,0.1,0.1,0.2,0.2,0.2
	C97.9,73.7,98,73.6,98,73.4z M99,72.8c0.5-0.1,0.8-0.8,0.3-0.8c-0.1,0-0.3-0.3-0.4-0.8c-0.1-0.6-0.1-0.8,0.2-1.1
	c0.2-0.2,0.4-0.4,0.4-0.5s0.2-0.4,0.4-0.6c0.2-0.2,0.4-0.7,0.5-1.2c0.1-0.7,0.1-0.8-0.2-0.4c-0.2,0.2-0.5,0.6-0.5,0.9
	c-0.1,0.3-0.3,0.5-0.4,0.5c-0.1,0-0.2,0.2-0.2,0.3s-0.1,0.5-0.3,0.7c-0.4,0.4-0.8,3.1-0.5,3.1C98.3,72.9,98.7,72.9,99,72.8L99,72.8z
	 M115,68.3c0-0.2-0.1-0.4-0.3-0.4c-0.2-0.1-0.3,0.1-0.3,0.4c0,0.3,0.1,0.5,0.3,0.4C114.8,68.7,115,68.5,115,68.3z M119.2,67
	c0-0.2-0.1-0.4-0.3-0.6c-0.2-0.2-0.2-0.4,0.2-0.6c0.3-0.2,0.4-0.4,0.1-0.5c-0.2-0.1-0.4,0-0.5,0.1c-0.1,0.2-0.3,0.3-0.4,0.4
	c-1.1,0.1-1.4,1.2-0.4,1.4C119.1,67.4,119.2,67.3,119.2,67z M105.2,66.9c-0.1-0.1-0.2-0.2-0.3-0.2s-0.1,0.1-0.1,0.2s0.1,0.2,0.3,0.2
	S105.3,67,105.2,66.9z M110,66.5c0-0.2-0.2-0.4-0.4-0.5c-0.5-0.2-0.6-0.2-0.4,0.3C109.3,66.9,110,67,110,66.5z M114.1,66.6
	c0-0.1-0.1-0.2-0.2-0.2s-0.3,0.1-0.4,0.2s0,0.2,0.2,0.2S114.1,66.8,114.1,66.6z M123.7,66.1c-0.1-0.2-0.1,0-0.1,0.3
	c0,0.3,0.1,0.5,0.1,0.3C123.8,66.5,123.8,66.2,123.7,66.1z M104.6,66.4c0-0.1-0.1-0.2-0.2-0.2s-0.3,0.1-0.4,0.2
	c-0.1,0.1,0,0.2,0.2,0.2S104.6,66.5,104.6,66.4z M105.6,65.1c0-0.1-0.2-0.2-0.4-0.2c-0.4,0-0.5,0.5-0.2,0.8
	C105.2,65.9,105.6,65.5,105.6,65.1z M131.4,65.6c0-0.1-0.1-0.2-0.2-0.2s-0.2,0.1-0.2,0.2c0,0.1,0.1,0.2,0.2,0.2
	S131.4,65.8,131.4,65.6z M107.8,65.3c0.5-0.3,0.6-1.1,0.2-1.1c-0.1,0-0.2-0.3-0.2-0.6c0-0.7,0-0.7-0.6-0.5c-0.3,0.1-0.4,0.5-0.4,1.2
	C106.8,65.7,107,65.9,107.8,65.3L107.8,65.3z M133.6,64.7c0-0.3-0.2-0.5-0.6-0.6c-0.3-0.1-0.6-0.3-0.6-0.4s-0.3-0.2-0.7-0.2
	c-0.7,0-0.7,0.1-0.7,0.7c0,0.6,0.1,0.7,0.5,0.6c0.3-0.1,0.7,0,1,0.2C133,65.4,133.6,65.3,133.6,64.7L133.6,64.7z M124.7,64.7
	c0.1-0.1,0-0.2-0.2-0.2c-0.2,0-0.4-0.2-0.5-0.4c-0.1-0.2-0.1-0.1-0.1,0.2C123.9,64.9,124.4,65.2,124.7,64.7z M138.9,64.1
	c0-0.1-0.2-0.3-0.5-0.6c-0.5-0.5-0.6-0.4-0.3,0.3C138.2,64.1,138.9,64.4,138.9,64.1z M139.6,62.8c0-0.2-0.7-0.6-0.9-0.4
	c-0.1,0.1,0,0.2,0,0.4C139,63,139.6,63.1,139.6,62.8L139.6,62.8z M138.2,62c0-0.1-0.2-0.1-0.4-0.1s-0.4,0.3-0.4,0.5
	c0,0.3,0.1,0.3,0.4,0.1C138,62.3,138.2,62.1,138.2,62z M124.1,59.4c-0.1,0-0.2-0.2-0.2-0.4s0-0.3-0.1-0.3s-0.3-0.1-0.5-0.1
	c-0.3-0.1-0.4,0-0.4,0.2c0,0.2,0.2,0.4,0.4,0.4c0.2,0,0.4,0.2,0.4,0.5c0,0.4,0.1,0.4,0.3,0.2C124.1,59.6,124.2,59.4,124.1,59.4
	L124.1,59.4z M120,203.8c-0.1-0.4-0.2-0.7-0.4-0.7s-0.2-0.3-0.2-0.7c0-1.1-0.3-2.5-0.5-2.4c-0.1,0.1-0.3-0.5-0.4-1.2
	c-0.1-0.7-0.3-1.3-0.4-1.3c-0.1,0-0.2-0.1-0.2-0.2c0-0.4,0.5-0.3,0.7,0.2c0.1,0.3,0.2,0.5,0.3,0.5s0.3,0.6,0.4,1.3
	c0.1,0.7,0.3,1.3,0.4,1.3s0.3,0.5,0.4,1.1c0.1,0.6,0.3,1.1,0.4,1.1s0.2,0.4,0.2,0.9C120.7,204.7,120.2,204.8,120,203.8L120,203.8z
	 M115.6,200.8c0-0.3-0.1-0.6-0.2-0.6c-0.4,0-0.3-1.1,0.1-1.3c0.3-0.1,0.4,0.1,0.4,1.2c0,0.7-0.1,1.3-0.1,1.3
	S115.6,201.1,115.6,200.8L115.6,200.8z M99.6,196.5c-0.2-0.4,0.1-0.7,0.7-0.7c0.4,0,0.6,0.1,0.6,0.5s-0.2,0.5-0.6,0.5
	C100,196.8,99.7,196.7,99.6,196.5z M117.8,194.9c0-0.8-0.1-1.1-0.3-0.9c-0.2,0.1-0.2,0-0.2-0.2c0.1-0.2,0.2-0.4,0.4-0.4
	c0.2-0.1,0.3,0.3,0.3,1.3c0,0.7-0.1,1.4-0.1,1.4S117.8,195.5,117.8,194.9L117.8,194.9z M100.1,193.9c-3.2-1.1-3.2-1.8-0.1-0.9
	c1.7,0.5,2.4,0.8,2.4,1.2C102.4,194.7,102.4,194.7,100.1,193.9z M105.6,192.6c0-0.5-2.2-2.4-3.5-3c-0.8-0.4-1.7-1-2.1-1.3
	c-0.5-0.5-0.8-0.6-1.6-0.5c-0.5,0.1-1.1,0-1.3-0.1c-0.3-0.2-0.3-0.3,0.1-0.6c0.6-0.5,0.4-0.5,2.5,0.2c1.7,0.6,2.7,1.1,3.8,2.1
	c1.5,1.3,1.8,1.6,1.9,2.1c0.1,0.3,0.3,0.5,0.4,0.5s0.2,0.2,0.2,0.4s-0.1,0.4-0.2,0.4C105.7,192.9,105.6,192.8,105.6,192.6
	L105.6,192.6z M102.2,192c-0.3-0.2-0.6-0.4-0.7-0.5c-0.2-0.2,1.7,0.3,2,0.6C103.9,192.5,102.9,192.4,102.2,192z M107.2,191.3
	c-0.5-0.6-0.6-1.2-0.1-1c0.3,0.1,0.8,1.2,0.6,1.4C107.7,191.8,107.5,191.6,107.2,191.3z M99.7,190.6c-0.3-0.2-1-0.4-1.5-0.4
	c-0.7,0-0.9-0.1-0.9-0.4c0-0.3,0.2-0.4,1.3-0.2c0.8,0.1,1.4,0.3,1.7,0.6c0.2,0.3,0.5,0.4,0.5,0.3s0.2,0,0.2,0.1
	C101,191,100.5,191,99.7,190.6L99.7,190.6z M91.5,190.3c0-0.4,1.1-1.2,1.5-1c0.3,0.2,0,0.9-0.3,1.2
	C92.2,190.8,91.5,190.7,91.5,190.3L91.5,190.3z M105.2,189.1c-0.2-0.3-0.5-0.6-0.7-0.6s-0.6-0.3-1-0.6c-0.4-0.3-0.6-0.5-0.6-0.5
	s-0.2-0.1-0.5-0.3c-0.5-0.5-2.2-1.8-2.5-2.1c-0.2-0.1-0.2-0.2-0.1-0.3c0.2-0.2,1.7,0.6,2.3,1.2c0.3,0.3,0.8,0.7,1.3,1
	c0.4,0.2,0.8,0.5,0.8,0.6s0.4,0.5,1,0.8c0.5,0.3,1,0.8,1,1C106.1,189.9,105.7,189.8,105.2,189.1L105.2,189.1z M104.5,183.7
	c-0.5-0.6-0.2-0.8,0.4-0.4c0.3,0.2,0.4,0.4,0.2,0.6C105,184,104.8,184,104.5,183.7L104.5,183.7z M170.2,170.3
	c-0.6-0.1-0.7-0.1-0.2-0.4c0.5-0.4,1.4-0.5,1.6-0.2c0.2,0.2-0.3,0.8-0.5,0.8C171,170.4,170.6,170.4,170.2,170.3L170.2,170.3z
	 M159.9,145.4c0.1-1.4,0.4-2,1-1.8c0.4,0.1,0.4,1.3,0,1.9c-0.2,0.3-0.4,0.7-0.4,1c0,0.2-0.2,0.4-0.4,0.4
	C159.8,146.9,159.8,146.7,159.9,145.4L159.9,145.4z M140.1,135.3c-0.5-0.2-0.7-0.6-0.7-1.3c0-0.5,0.1-0.7,0.5-0.7
	c0.7,0,1.2,0.7,1.2,1.5C141.1,135.5,140.9,135.6,140.1,135.3z M137.9,134.2c0-0.4,0-0.5-0.2-0.2c-0.2,0.3-0.2,0.1-0.3-0.7
	c0-0.6-0.1-0.9-0.1-0.7c-0.1,0.5-0.8,0.8-0.8,0.4c0-0.1-0.1-0.2-0.2-0.1c-0.1,0.1-0.2-0.1-0.2-0.3c0-0.3-0.1-0.4-0.4-0.4
	c-0.2,0.1-0.4,0.3-0.4,0.5c0,0.2-0.2,0.3-0.4,0.3c-0.6,0-1.3-0.5-1.3-0.9c0-0.5-0.7-1.2-1.4-1.4c-0.6-0.2-0.8-0.6-0.6-1.4
	c0.1-0.6,0.2-0.6,1.4-0.6c0.7,0.1,1.3,0.1,1.4,0.1c0.1,0,0.6,0.5,1.2,1c0.6,0.5,1.2,1,1.3,1s0.3,0.2,0.3,0.4c0,0.2,0.2,0.4,0.4,0.3
	c0.2,0,0.5,0,0.7,0c0.3,0,0.6,1.9,0.4,2.7C138.6,134.9,137.9,134.9,137.9,134.2L137.9,134.2z M123.1,129.8c0-0.4-1-1.1-1.7-1.2
	c-0.3,0-0.7-0.3-1-0.5c-0.3-0.3-0.8-0.6-1.2-0.8c-0.6-0.3-0.7-0.4-0.7-1.7c0-0.8,0.1-1.5,0.2-1.6c0.1-0.1,0.8,0.2,1.6,0.6
	s1.6,0.7,1.8,0.6c0.6-0.2,1.6-0.7,1.7-0.8c0.2-0.3,1.7-0.9,2.1-0.9c0.2,0,0.4,0.1,0.4,0.2s-0.1,0.2-0.2,0.2c-0.1,0-0.3,0.2-0.4,0.5
	c-0.1,0.3-0.5,0.6-0.7,0.8c-0.3,0.1-0.5,0.3-0.6,0.4c-0.1,0.1-0.6,0.2-1.1,0.3c-0.8,0.2-0.9,0.2-0.5,0.4c0.3,0.2,0.6,0.2,0.9,0
	c0.2-0.2,0.6-0.3,0.8-0.3s0.7-0.3,1.1-0.7c0.5-0.4,1-0.7,1.3-0.6c0.4,0.1,0.5,0,0.5-0.5c0-1.2,2-1.1,3.3,0.2
	c0.8,0.9,1.1,1.7,0.9,2.5c-0.2,0.6-0.6,0.7-1.2,0.2c-0.4-0.4-3.4-0.9-3.8-0.7c-0.1,0.1-0.2,0.3-0.2,0.5c0,0.2-0.1,0.3-0.2,0.2
	c-0.1-0.1-0.2,0.3-0.2,1.1c0,0.9-0.1,1.2-0.4,1.2c-0.2,0-0.4,0.1-0.5,0.3C124.7,130.1,123.1,130.2,123.1,129.8L123.1,129.8z
	 M144,129.1c0-0.1-0.4-0.4-0.8-0.6c-1.3-0.5-2.1-1.3-2.1-2c0-0.3-0.1-0.6-0.3-0.6c-0.2,0-0.5-0.3-0.8-0.6c-0.7-1-1.1-1.3-1.4-1.3
	c-0.2,0-0.4-0.2-0.5-0.5c-0.2-0.7-0.6-1.1-1.4-1.3c-0.5-0.1-0.7-0.3-0.7-0.8c0-0.5-0.1-0.6-0.7-0.6c-0.5,0-0.7-0.1-0.7-0.4
	c0-0.3,0.3-0.4,1-0.4c0.7,0,1,0.1,1.1,0.5c0.1,0.3,0.4,0.5,0.7,0.5c0.6,0,1.4,0.8,1.4,1.4c0,0.3,0,0.4,0.2,0.1
	c0.3-0.4,1.2-0.1,1.2,0.4c0,0.6,0.3,1,0.9,1.1c0.3,0,0.6,0.3,0.7,0.6c0.1,0.3,0.3,0.5,0.4,0.5s0.2,0.2,0.2,0.5
	c0,0.3,0.2,0.6,0.6,0.7c0.6,0.2,2.3,1.8,2.3,2.1c0,0.2-0.7,0.8-1,0.8C144.1,129.4,144,129.3,144,129.1z M106.3,127.6
	c0-0.2,0.1-0.4,0.2-0.4s0.3-0.3,0.4-0.7c0.1-0.4,0.3-0.7,0.5-0.7c0.4,0,0.2,0.9-0.3,1.4c-0.2,0.2-0.3,0.4-0.3,0.6s-0.1,0.2-0.2,0.2
	S106.3,127.8,106.3,127.6L106.3,127.6z M168.1,126.7c0-0.5,0.1-1.1,0.3-1.3c0.2-0.2,0.6-0.7,1-1.1s0.8-0.8,1-0.8s0.4-0.2,0.5-0.5
	c0.1-0.3,0.3-0.5,0.4-0.5c0.1,0,0.3-0.4,0.4-0.9c0.1-0.5,0.2-0.9,0.3-0.9c0.1,0,0.3-0.3,0.3-0.6c0.3-1.1,1.4-1.8,1.4-0.9
	c0,0.2-0.1,0.4-0.2,0.4s-0.3,0.5-0.3,1c-0.1,0.6-0.2,1.1-0.4,1.2c-0.1,0.1-0.3,0.4-0.4,0.7c-0.1,0.3-0.5,0.9-0.8,1.3
	c-0.9,0.9-1.5,1.7-1.5,2c0,0.1-0.1,0.1-0.2,0.1c-0.1-0.1-0.3,0.2-0.4,0.5c-0.2,0.7-0.7,1.3-1.1,1.3
	C168.2,127.7,168.1,127.2,168.1,126.7L168.1,126.7z M132.9,125.7c0.1-0.7,0.3-1.4,0.4-1.5c0.1-0.1,0.2-0.5,0.2-0.8
	c0-0.5-0.1-0.7-0.9-1.6c-0.1-0.2-0.3-0.5-0.4-0.8c-0.1-0.3-0.3-0.6-0.5-0.6c-0.2-0.1-0.4-0.3-0.4-0.5c0-0.3,0.2-0.3,1,0.2
	c0.6,0.3,1.1,0.6,1.1,0.7s0.3,0.4,0.5,0.6c0.5,0.5,0.5,3.3-0.1,4.3c-0.2,0.4-0.4,0.9-0.4,1s-0.2,0.3-0.4,0.3
	C132.8,126.9,132.8,126.8,132.9,125.7L132.9,125.7z M165.8,123.5c-0.1-0.2-0.1-0.8-0.1-1.3c0.1-0.7,0.2-1,0.5-1
	c0.4-0.1,0.4,0.1,0.4,1.2C166.5,123.6,166.1,124.2,165.8,123.5L165.8,123.5z M168.1,122.3c0-0.8-0.2-1.1-1.1-2.1
	c-0.6-0.6-1.2-1.4-1.2-1.7s-0.2-0.5-0.4-0.5c-0.6,0.4-0.5-3,0.1-3.7c0.2-0.2,0.5-0.5,0.7-0.8c0.8-1.2,1.2-1.6,1.9-2
	c0.7-0.4,0.8-0.4,0.8,0.1c0,0.3-0.2,0.6-0.4,0.6c-0.2,0.1-0.4,0.5-0.5,1c-0.1,0.5-0.3,0.8-0.4,0.8s-0.2,0.2-0.2,0.4
	c0,0.2,0.1,0.3,0.2,0.2c0.1-0.1,0.2,0.1,0.2,0.4c0,0.3,0.2,0.8,0.5,1.1s0.5,0.7,0.5,0.9s0.1,0.3,0.2,0.3c0.1,0,0.2,1.1,0.2,2.8
	c0,2.3-0.1,2.8-0.4,2.9C168.2,123.4,168.1,123.3,168.1,122.3L168.1,122.3z M174.6,116.3c-0.1-0.6-0.2-1.2-0.4-1.2s-0.3-0.3-0.3-0.6
	c0-0.5-0.5-1.3-1.3-2.1c-0.2-0.2-0.4-0.5-0.4-0.7c0-0.4-0.5-0.9-1.1-1.1c-0.5-0.2-0.5-0.2,0.1-0.6c0.7-0.6,1.7-0.6,2.4-0.1
	c0.3,0.2,0.5,0.3,0.5,0.2c0-0.6,0.5,0.7,0.5,1.3c0,0.4,0.1,0.8,0.2,0.9c0.3,0.1,0.6,3.8,0.4,4.7
	C175.1,117.8,174.7,117.6,174.6,116.3L174.6,116.3z M124.9,112.1c0.1-0.4,0.2-1,0.2-1.3c0-0.4,0.1-0.6,0.4-0.6
	c0.2,0,0.4,0.2,0.4,0.4s0.1,0.4,0.2,0.4c0.1,0,0.2,0.2,0.2,0.4c0,0.2-0.1,0.4-0.2,0.4c-0.1,0-0.2,0.3-0.2,0.6c0,0.5-0.1,0.6-0.5,0.6
	C124.8,112.8,124.8,112.7,124.9,112.1z M106,110c-0.5-0.3-1-0.6-1.2-0.6c-0.4,0-0.3-0.3,0.5-1c1-0.9,1.4-0.9,1.4,0
	c0,0.4,0.2,0.9,0.5,1.3c0.3,0.3,0.5,0.7,0.5,0.8C107.8,110.8,106.9,110.6,106,110L106,110z M144.5,108.9c0-0.3,0.2-0.5,0.4-0.5
	c0.2,0,0.4-0.1,0.4-0.2c0-0.4,1.4-1.2,2.3-1.4c0.7-0.1,0.9-0.1,0.9,0.2c0,0.2-0.2,0.6-0.5,0.8s-0.6,0.6-0.8,0.7
	c-0.3,0.2-1.9,0.8-2.4,0.8C144.6,109.4,144.5,109.2,144.5,108.9L144.5,108.9z M125.4,109c-0.7-0.3-0.2-1.4,0.6-1.1
	c0.2,0.1,0.3,0.4,0.3,0.7C126.3,109.2,126,109.3,125.4,109z M125.5,106.9c0-0.2-0.1-0.4-0.3-0.4c-0.2,0-0.2-0.1,0.1-0.2
	c0.2-0.1,0.4-0.6,0.3-1.2c0-1,0.2-1.2,1-0.8c0.3,0.1,0.4,0.5,0.4,1.4c0,0.9-0.1,1.3-0.4,1.4C126,107.3,125.5,107.3,125.5,106.9
	L125.5,106.9z M134.1,107.1c-0.5-0.2-0.4-0.8,0.2-0.9c0.6-0.2,1,0.2,0.8,0.8C135,107.2,134.7,107.3,134.1,107.1L134.1,107.1z
	 M142.3,106.7c0-0.4,0.5-1,1.2-1.4c0.3-0.2,0.5-0.5,0.5-0.9c0-0.9-0.3-1.3-0.9-1.1c-0.4,0.1-0.5,0.3-0.5,0.8c0,0.4-0.1,0.8-0.2,0.9
	c-0.7,1-2.6,0.8-2.9-0.3c-0.2-0.7-0.6-1.3-1-1.3c-0.1,0-0.3-0.2-0.5-0.4c-0.4-0.5-0.9-0.2-0.9,0.5c0,0.6,1.5,2.3,2,2.3
	c0.1,0,0.2,0.2,0.2,0.5c0,0.6-1,0.7-1.5,0.1c-0.9-0.9-1.4-1.6-1.4-2c0-0.8-0.9-0.8-1.8,0.1c-2.1,2-2.7,2.4-3,2.3
	c-0.4-0.2-0.4-1,0-1.3c0.2-0.1,0.7-0.3,1.1-0.4c0.4-0.1,0.8-0.3,0.8-0.5s0.3-0.5,0.7-0.8c0.4-0.2,0.8-0.6,1-0.8
	c0.9-0.9,1.4-1,4.7-1.2c1.9-0.1,3.7,0,4.2,0.1c1.4,0.4,3.2,1.7,3.3,2.5c0.1,0.5,0.3,0.6,0.8,0.7c0.4,0.1,0.8,0.3,0.8,0.5
	c0.1,0.6-0.6,0.8-1,0.4c-0.2-0.2-0.8-0.5-1.3-0.8l-1-0.4l-1.4,1.1C142.8,107,142.3,107.2,142.3,106.7L142.3,106.7z M150.6,104.6
	c0-0.1-0.5-0.5-1.1-0.7c-0.6-0.3-1.2-0.7-1.2-1s-0.3-0.5-0.5-0.5c-0.2,0-0.3-0.1-0.3-0.3c0-1.2-3.1-2-8-2.1l-3.7-0.1l-0.8,0.7
	c-0.4,0.4-0.9,0.8-1,1c-0.2,0.2-0.5,0.5-0.7,0.7c-1.7,1.5-2,1.7-2.3,1.7c-0.2,0-0.3,0.1-0.3,0.2c0,0.1-0.4,0.2-0.9,0.2
	c-0.7,0-1-0.2-1.4-0.6c-0.3-0.3-0.7-0.6-0.9-0.5c-0.5,0.2-1.2-0.3-1.2-0.8c0-0.3,0.2-0.5,0.7-0.6c0.4-0.1,1.6-1,3.2-2.6
	c1.4-1.4,2.6-2.3,2.6-2.2c0.1,0.4,0.7,0.3,0.9-0.1c0.3-0.8,0.2-1.1-0.5-1.1c-1.1,0-2.2,0.7-2.6,1.7c-0.2,0.5-0.6,1-0.8,1.1
	c-0.2,0.1-0.3,0.2-0.3,0.3c0,0.3-1.1,1.4-1.4,1.4c-0.4,0-0.3-0.7,0.2-1.2c0.4-0.4,0.4-0.5,0.1-0.6c-0.2-0.1-0.6,0.1-0.9,0.6
	c-0.6,0.8-1.2,0.9-1.2,0.3c0-0.5-0.4-0.8-1.3-1.3c-0.6-0.3-0.9-1-0.4-1c0.1,0,0.2-0.2,0.2-0.3c0-0.5,0.7-1.1,1.1-1
	c0.3,0.1,0.4,0,0.4-0.5c0-0.7,0.4-0.8,0.9-0.4c0.4,0.4,2.3-0.5,3.2-1.5c0.4-0.4,0.7-0.7,0.7-0.6c0,0.1,0.1,0,0.2-0.1
	s0.7-0.4,1.2-0.5c1.2-0.2,1.3,0.2,0.5,0.9l-0.5,0.5l0.7,0c0.4,0,1,0.1,1.3,0.3c0.5,0.2,0.7,0.2,0.8,0c0.1-0.2,0.4-0.3,0.7-0.3
	c0.3,0,0.6-0.1,0.6-0.2c0-0.1-0.3-0.2-0.6-0.1c-0.4,0.1-0.6,0-0.7-0.3c-0.1-0.2-0.3-0.3-0.4-0.2c-0.1,0.1-0.2,0-0.2-0.2
	c0-0.8,2.8-0.9,3.9-0.1c0.8,0.6,2,0.6,2.8,0c0.7-0.5,2.3-0.4,2.7,0.1c0.2,0.2,0.7,0.3,1.3,0.3c0.8,0,1.2,0.1,1.8,0.8
	c0.9,0.9,0.9,1.8-0.1,1.9c-0.4,0-0.8,0.3-0.8,0.5c-0.1,0.2-0.2,0.5-0.3,0.5s-0.2,0.5-0.3,1c-0.1,0.8-0.1,0.9,0.3,0.9
	c0.3,0,0.5-0.2,0.5-0.4c0-0.2,0.1-0.4,0.2-0.4c0.1,0,0.3-0.2,0.3-0.5c0.1-0.3,0.2-0.5,0.4-0.5c0.3,0,0.4,0.9,0,1
	c-0.1,0-0.3,0.5-0.4,1c-0.1,0.8-0.1,0.9,0.2,0.8c0.2-0.1,0.5-0.4,0.5-0.6c0.2-0.5,0.8-0.6,0.8-0.1c0,0.2,0.3,0.4,0.6,0.5
	c0.5,0.1,0.6,0.4,0.8,1c0.1,0.6,0.5,1.2,1.1,1.8c0.9,0.9,1,1.2,1,1.9C151.8,104.9,150.6,104.9,150.6,104.6L150.6,104.6z
	 M130.6,103.1c0-0.3-0.4-0.2-0.6,0.1c-0.1,0.2,0,0.3,0.2,0.2C130.5,103.4,130.6,103.2,130.6,103.1z M129.5,102.5
	c0.2-0.1,0.4-0.4,0.4-0.6c0-0.3,0.2-0.5,0.4-0.6c0.5-0.2,1-0.7,1-0.9c0-0.1,0.3-0.4,0.7-0.8c0.4-0.4,0.8-0.9,0.9-1.3
	c0.2-0.6,0.2-0.6-0.3-0.2c-0.9,0.7-2.5,2.4-2.5,2.6c0,0.1-0.3,0.5-0.7,0.9C128.4,102.3,128.5,102.9,129.5,102.5L129.5,102.5z
	 M135.8,99.5c0-0.1,0.2-0.5,0.5-0.8c0.3-0.3,0.5-0.7,0.5-0.9s0.1-0.3,0.2-0.3s0.2-0.3,0.2-0.6s-0.1-0.6-0.3-0.6
	c-0.4,0-1.7,1.5-1.8,2.1c-0.1,0.3-0.2,0.6-0.4,0.6c-0.1,0-0.2,0.2-0.2,0.4c0,0.2,0.2,0.4,0.6,0.4C135.5,99.7,135.8,99.6,135.8,99.5z
	 M139.9,98.4c0.2-0.3,0.5-0.7,0.5-1c0-0.2,0.1-0.4,0.2-0.4c0.1,0,0.2-0.4,0.2-0.9c0-0.9,0-0.9-0.5-0.5c-0.3,0.2-0.6,0.7-0.8,1.1
	c-0.3,1-0.9,1.2-0.9,0.4c0-0.3-0.1-0.6-0.2-0.6c-0.3,0-1,1.1-1,1.7c0,0.5,0,0.5,0.4,0.1c0.6-0.5,0.8-0.5,0.8,0.1
	C138.7,99.1,139.3,99.1,139.9,98.4L139.9,98.4z M134.4,98c0.1-0.3,0.2-0.5,0.4-0.5s0.3-0.3,0.5-0.7c0.1-0.4,0.2-0.7,0.1-0.7
	c-0.3,0-1.1,0.9-1.1,1.2c0,0.2-0.2,0.5-0.4,0.7c-0.2,0.2-0.4,0.5-0.4,0.6C133.6,98.9,134.3,98.5,134.4,98L134.4,98z M142.2,98.3
	c0.2-0.2,0.4-0.5,0.4-0.6c0-0.1,0.2-0.4,0.4-0.6c0.5-0.5,0.5-1.8,0-1.7c-0.4,0.1-1.3,1.1-1.3,1.5c0,0.2-0.1,0.3-0.2,0.3
	c-0.2,0-0.5,1.1-0.3,1.3C141.3,98.8,141.8,98.7,142.2,98.3L142.2,98.3z M144.2,98.2c0.3-0.3,0.5-0.7,0.5-0.9c0-0.2,0.1-0.4,0.2-0.4
	s0.2-0.1,0.2-0.3s0.2-0.5,0.5-0.8c0.3-0.3,0.4-0.5,0.3-0.7c-0.3-0.3-1.5,0.2-1.5,0.6c0,0.2-0.1,0.4-0.3,0.4s-0.3,0.2-0.4,0.4
	c-0.1,0.2-0.3,0.6-0.5,0.7c-0.4,0.4-0.4,1.3,0,1.3C143.5,98.7,143.9,98.5,144.2,98.2L144.2,98.2z M138.3,94.3
	c-0.1-0.1-0.2-0.2-0.3-0.2c-0.1,0-0.1,0.1-0.1,0.2s0.1,0.2,0.3,0.2C138.3,94.6,138.4,94.5,138.3,94.3z M105,103.1
	c-0.1-0.1,0-0.3,0.1-0.4c0.1-0.1,0.2,0,0.2,0.2C105.3,103.4,105.2,103.5,105,103.1z M101.9,88.6c0-0.3,0.1-0.6,0.2-0.6
	c0.1,0,0.2-0.1,0.2-0.2c0-0.1-0.3-0.2-0.6-0.1c-0.4,0.1-0.6,0-0.6-0.1c0-0.1,0.1-0.3,0.2-0.3c0.1,0,0.3-0.2,0.4-0.6
	c0.1-0.3,0.7-0.9,1.5-1.4c0.7-0.5,1.3-0.9,1.3-1c0-0.1,0.2-0.2,0.4-0.2c0.7,0,0.4,0.9-0.4,1.3c-0.4,0.3-0.9,0.4-1,0.4
	c-0.1,0-0.2,0.2-0.2,0.4c0,0.6,0.4,0.6,0.7,0.2c0.4-0.6,1.4-1.1,1.8-0.9c0.3,0.2,0.3,0.3-0.1,0.5c-0.3,0.1-1.1,0.9-1.9,1.7
	c-0.8,0.8-1.6,1.4-1.7,1.4C102,89.2,101.9,89,101.9,88.6L101.9,88.6z M101.9,84.8c0-0.2,0.3-0.5,0.6-0.8c0.5-0.4,0.6-0.8,0.6-1.5
	c0-1.1,0.4-1.6,1.8-2.3c1.1-0.6,1.4-0.3,0.4,0.6c-0.8,0.7-1.2,1.6-0.4,1c0.2-0.2,0.4-0.2,0.5-0.2c0.2,0.2-0.2,1.2-0.4,1
	c-0.1-0.1-0.2,0-0.2,0.2s-0.4,0.7-0.9,1c-0.5,0.4-1,0.8-1.2,1C102.4,85.2,101.9,85.2,101.9,84.8L101.9,84.8z M104.3,78.9
	c0.2-0.1,0.3-0.3,0.3-0.4c0-0.5,1.2-1.5,1.5-1.2c0.4,0.4,0,1.2-0.8,1.5C104.5,79,103.7,79.1,104.3,78.9L104.3,78.9z M105.5,76.6
	c-0.2-0.3,0.4-1,0.7-0.8c0.2,0.2,0,1-0.3,1C105.7,76.8,105.5,76.7,105.5,76.6z M152.6,73c-0.2-0.6,0.3-0.9,0.9-0.6
	c0.3,0.2,0.5,0.5,0.5,0.6C154,73.6,152.8,73.5,152.6,73z M126.8,61.3c-0.2-0.1-0.5-0.3-0.7-0.4c-0.3-0.3-0.4-1.1-0.1-1.1
	c0.3,0,1.3,1,1.3,1.3c0,0.2,0,0.3-0.1,0.3C127.1,61.5,127,61.4,126.8,61.3L126.8,61.3z M138.8,59.7c-0.1-0.2-0.3-0.3-0.5-0.3
	c-1.3,0-3-0.6-3-1.1c0-0.2,1.6,0,2.5,0.4c0.5,0.2,1.2,0.4,1.6,0.5c0.4,0.1,0.8,0.3,0.8,0.5C140.1,60.2,138.9,60.2,138.8,59.7z
	 M116.7,57c-1-0.2-1.8-0.8-1.8-1.3c0-0.4,0.1-0.5,0.5-0.4c0.4,0.1,0.5,0,0.5-0.5c-0.1-0.4,0-0.5,0.5-0.5c0.5,0,0.6-0.1,0.6-0.8v-0.8
	l1.2,0.2c0.6,0.1,1.8,0.2,2.6,0.2c1.4,0.1,3.6,1,4.5,1.9c0.3,0.2,0.6,0.5,0.7,0.5c0.4,0,0.8,0.5,0.6,0.9c-0.1,0.3-1.2,0.2-2.5-0.4
	c-0.5-0.2-0.8-0.2-1.1,0c-0.3,0.3-0.7,0.4-2.5,0.9C119.9,57,117.5,57.1,116.7,57L116.7,57z M127.4,55.6c-0.8-0.3-1.6-1-1.6-1.5
	c0-0.5,0.2-0.5,1,0.1c0.4,0.3,1,0.5,1.8,0.5c1.2,0,2.1,0.4,2.1,0.9C130.6,56,128.4,56,127.4,55.6L127.4,55.6z"/>
</svg>
