<?xml version="1.0" encoding="utf-8"?>
<!-- Generator: Adobe Illustrator 17.0.0, SVG Export Plug-In . SVG Version: 6.00 Build 0)  -->
<!DOCTYPE svg PUBLIC "-//W3C//DTD SVG 1.1//EN" "http://www.w3.org/Graphics/SVG/1.1/DTD/svg11.dtd" [
	<!ENTITY ns_flows "http://ns.adobe.com/Flows/1.0/">
	<!ENTITY ns_extend "http://ns.adobe.com/Extensibility/1.0/">
	<!ENTITY ns_ai "http://ns.adobe.com/AdobeIllustrator/10.0/">
	<!ENTITY ns_graphs "http://ns.adobe.com/Graphs/1.0/">
]>
<svg version="1.1" id="Layer_1" xmlns:x="&ns_extend;" xmlns:i="&ns_ai;" xmlns:graph="&ns_graphs;"
	 xmlns="http://www.w3.org/2000/svg" xmlns:xlink="http://www.w3.org/1999/xlink" xmlns:a="http://ns.adobe.com/AdobeSVGViewerExtensions/3.0/"
	 x="0px" y="0px" width="256px" height="256px" viewBox="0 0 256 256" style="enable-background:new 0 0 256 256;"
	 xml:space="preserve">
<g>
	<g>
		<g>
			<path d="M180.8,182.9h-36.6V181c8.1-1.8,15.7-5,22.7-9.4l7.1,7.1l23-23l-7.1-7.1c4.4-7,7.5-14.6,9.4-22.7h10v-24.4h16.3v-8.1
				h-8.1c0-42.2-29.6-78.6-70.7-87.3c-2.1-3.7-6-6.1-10.5-6.1h-16.3c-4.5,0-8.4,2.5-10.5,6.1c-41.1,8.7-70.7,45.1-70.7,87.3h-8.1
				v8.1h16.3V126h10c1.8,8.1,5,15.7,9.4,22.7l-7.1,7.1l23,23l7.1-7.1c7,4.4,14.6,7.5,22.7,9.4v1.9H75.2c-0.8,0-1.5,0.1-2.3,0.1
				l-22.8-22.9c0.5-1.9,0.7-3.8,0.7-5.7c0-16.1-15.8-28.9-32.6-22.9l-6,2.2l12.6,12.6l-6.4,6.4L5.7,140.2l-2.2,6
				c-1,2.8-1.5,5.6-1.5,8.2c0,13.4,10.9,24.4,24.4,24.4c1.9,0,3.8-0.2,5.7-0.7L44,189.9C19.2,201.7,2,226.8,2,256h8.1
				c0-18.4,7.7-35,20-46.8C40.8,222.4,46.7,239,46.7,256h8.1c0-2.7-0.2-5.4-0.4-8.1h69.5v8.1h8.1v-8.1h69.5
				c-0.3,2.7-0.4,5.4-0.4,8.1h8.1c0-17,5.9-33.6,16.6-46.8c12.3,11.8,20,28.4,20,46.8h8.1C254,215.7,221.2,182.9,180.8,182.9z
				 M46.7,93.5c0-37.2,25.3-69.4,61-78.6V61h8.1V12.2c0-2.2,1.8-4.1,4.1-4.1h16.3c2.2,0,4.1,1.8,4.1,4.1V61h8.1V14.9
				c35.6,9.2,61,41.4,61,78.6h-7l-4.1,12.2H57.8l-4.1-12.2H46.7z M164.3,113.8c-2,18.3-17.5,32.5-36.3,32.5S93.7,132,91.7,113.8
				H164.3z M90.9,163.1l-2.8-1.9l-6.1,6.1l-11.5-11.5l6.1-6.1l-1.9-2.8c-5.4-7.7-8.9-16.3-10.6-25.6l-0.6-3.3h-8.6v-4.1h28.7
				c2.1,22.7,21.2,40.6,44.5,40.6s42.4-17.9,44.5-40.6h28.7v4.1h-8.6l-0.6,3.3c-1.7,9.3-5.2,17.9-10.6,25.6l-1.9,2.8l6.1,6.1
				L174,167.2l-6.1-6.1l-2.8,1.9c-7.7,5.4-16.3,8.9-25.6,10.6l-3.3,0.6v8.6h-16.3v-8.6l-3.3-0.6C107.2,172,98.6,168.4,90.9,163.1z
				 M34.3,168.8l-2.4,0.9c-1.9,0.7-3.7,1-5.5,1c-8.4,0-15.3-6.3-16.2-14.5l8,8l17.9-17.9l-8-8c8.1,0.9,14.5,7.8,14.5,16.2
				c0,1.8-0.3,3.6-1,5.5l-0.9,2.4L62.5,184c-3.5,0.6-7,1.5-10.3,2.6L34.3,168.8z M123.9,239.7H53.2c-2.6-13-8.4-25.4-16.8-35.8
				c10.8-8.1,24.3-13,38.8-13h14.2l34.5,46.1V239.7z M128,228.9L99.6,191h12.2h32.5h12.2L128,228.9z M202.8,239.7h-70.8V237
				l34.5-46.1h14.2c14.6,0,28,4.9,38.8,13C211.2,214.4,205.5,226.7,202.8,239.7z"/>
			<rect x="63" y="85.3" width="130" height="8.1"/>
		</g>
	</g>
</g>
</svg>
