<?xml version="1.0" encoding="utf-8"?>
<!-- Generator: Adobe Illustrator 17.0.0, SVG Export Plug-In . SVG Version: 6.00 Build 0)  -->
<!DOCTYPE svg PUBLIC "-//W3C//DTD SVG 1.1//EN" "http://www.w3.org/Graphics/SVG/1.1/DTD/svg11.dtd" [
	<!ENTITY ns_flows "http://ns.adobe.com/Flows/1.0/">
	<!ENTITY ns_extend "http://ns.adobe.com/Extensibility/1.0/">
	<!ENTITY ns_ai "http://ns.adobe.com/AdobeIllustrator/10.0/">
	<!ENTITY ns_graphs "http://ns.adobe.com/Graphs/1.0/">
]>
<svg version="1.1"
	 id="svg2" xmlns:x="&ns_extend;" xmlns:i="&ns_ai;" xmlns:graph="&ns_graphs;" sodipodi:docname="Elephant.svg" inkscape:version="0.48.2 r9819" inkscape:export-ydpi="144" sodipodi:version="0.32" inkscape:export-filename="/Users/olivier/Desktop/Blason Rouge/Blason_Vide_3D.png" inkscape:export-xdpi="144" xmlns:inkscape="http://www.inkscape.org/namespaces/inkscape" xmlns:sodipodi="http://sodipodi.sourceforge.net/DTD/sodipodi-0.dtd" xmlns:rdf="http://www.w3.org/1999/02/22-rdf-syntax-ns#" xmlns:cc="http://creativecommons.org/ns#" xmlns:dc="http://purl.org/dc/elements/1.1/" xmlns:svg="http://www.w3.org/2000/svg"
	 xmlns="http://www.w3.org/2000/svg" xmlns:xlink="http://www.w3.org/1999/xlink" xmlns:a="http://ns.adobe.com/AdobeSVGViewerExtensions/3.0/"
	 x="0px" y="0px" width="256px" height="256px" viewBox="0 0 256 256" style="enable-background:new 0 0 256 256;"
	 xml:space="preserve">
<sodipodi:namedview  height="660px" id="base" inkscape:window-height="746" inkscape:window-y="-17" inkscape:window-x="23" inkscape:grid-bbox="false" inkscape:grid-points="true" inkscape:showpageshadow="true" inkscape:guide-bbox="true" inkscape:object-paths="false" inkscape:pageshadow="2" inkscape:current-layer="layer4" inkscape:window-maximized="0" inkscape:pageopacity="0.0" inkscape:window-width="1024" showborder="true" gridtolerance="50" showguides="true" showgrid="false" pagecolor="#ffffff" objecttolerance="10.0" inkscape:cx="340.16997" bordercolor="#666666" inkscape:zoom="0.36970694" borderopacity="1.0" guidetolerance="10.0" inkscape:cy="414.22073">
	</sodipodi:namedview>
<desc  id="desc4">Flag of Canton of Valais (Wallis)</desc>
<g id="layer4" inkscape:groupmode="layer" sodipodi:insensitive="true" inkscape:label="Meubles">
	<g id="g46013" transform="matrix(0.68687858,0,0,0.60947612,-6.3095457,43.716649)">
		<g id="g41120">
			
				<path id="path20646" sodipodi:nodetypes="cccccccccccccccccccccccccccccccccccccccccccccsccccccccccccsccc" inkscape:connector-curvature="0" style="fill:none;stroke:#000000;stroke-width:6.5263;" d="
				M93.2,222.1c3.4,1.6,5.5,4.5,6.7,8.4c-7.4,7.8-15.5,8.6-25.1-5.9l7.5-57.3l1.7-10.9c0.5-4.4,1.1-7.9,1.7-10
				c-0.4-3.9-0.9-7.8,0.9-11.7c-1.6-4.7-0.5-9.5,0-14.2c0.3-1.9,0.5-4.3,0.9-8.4c0.1-3.3-0.5-6.7,1.7-10c0.9-3.1,1.7-6.6,2.5-7.5
				c-1.4-2.9-1.4-5.8,1.7-8.6l0.9-5.9c3.1-9,3.9-16.8,2.5-23.5c-0.9-2.5,0.3-5,1.7-7.5c8-22.2,17.1-43.4,57.8-34.9
				c3-1.6,7.9-2.3,15.4-1.7c3.3-1.3,6.3-3,11.7,0c10.6-3.6,35.2,10.4,53.6,16.8c45.5-13.5,65.8,7.5,87.5,26.7
				c24.6,28.1,17.5,44.8,11.7,62c-7.2,22-15.2,42.9-26.8,58.4l-8.4,31.8c-0.2,4.7-0.2,9.5-2.5,14.2c2.2,2.9,5,5.1,5,10l-2.5,1.7
				l-4.2,0.9h-8.4l-6.7,0.9l-4.2-0.9l-3.3-0.9l-5-0.9c0.1-2.2,1.9-4.5,4.2-6.7c2.2-1.6,4.5-8.5,6.7-14.2l5-20.9v-30.2
				c-7.6-5-1.6-16.6,2.5-20.1c-3.3,2.7-5.9,6.6-5.9,15.9c5.5,2.2-25,4.8-14.5-3.3c-13.1,4-37.6-5.6-53.8-8.4
				c-5.9-3.9-5.2,2.1-7.1,4.2c-2.4,9.9-10.6,19.8-18.7,26.5c-9.9,16.3-9.1,12.3-17.3,21.4c-0.2,3.1-5.4,18-6.6,21.1
				c1.9,6.6,1.2,11.4,1.2,14.8c-1.8-0.3-16.6-1.3-15.2-2.8c1-1-12.3-2.6-17.6-7.4c0.8-4,4.8-8.8,7.7-10.6c0.1-2.8,4.1-10.5,6.3-13.3
				c4.4-5.8,3.7-0.6,6-13.1c6.4-14.2,7.3-17.8,12-31.6l-1.7-31l-8.4-17.6l-13.4-10l-5,2.5l-5.4,11.6c-3.8,2.4-7.2,8.3-18.6,0.4
				c4.6-1.9,10-4.3,19.5-0.3c-1.4-0.2,0.1-0.1-8.8,3.8c-4.5,2-5.7,5.8-8.5,9.7l-25.2,94.2C89.3,222.4,90.2,226.3,93.2,222.1
				L93.2,222.1z"/>
			
				<path id="path20648" sodipodi:nodetypes="ccccccccccc" inkscape:connector-curvature="0" style="fill:none;stroke:#000000;stroke-width:6.5263;" d="
				M195.6,15.4c13.8,10.3,32,16.2,36.7,35.6l-4.7,11.8l-10.7,9.5c-11.5,7.5-14.4,10.7-20.1,15.4c-4-1.6-4.7,0-2.4,4.7l-27.3,14.2
				c-8.5,6-10.4-5.7-9.5-24.9l7.1-27.3l1.2-10.7l3.6-15.4"/>
			<g id="g24552" transform="translate(388.9275,30.24992)">
				<g id="g23571" transform="translate(-265.6136,17.59278)">
					
						<path id="path22600" sodipodi:ry="5.9419479" sodipodi:rx="7.0223017" sodipodi:cy="231.60417" sodipodi:cx="176.27779" sodipodi:type="arc" style="fill:none;stroke:#000000;stroke-width:6.5263;" d="
						M18.2,16.6c0,1.3-1.2,2.3-2.7,2.3s-2.7-1-2.7-2.3c0-1.3,1.2-2.3,2.7-2.3C17,14.4,18.2,15.4,18.2,16.6z"/>
					
						<path id="path21629" sodipodi:ry="1.6205312" sodipodi:rx="1.6205312" sodipodi:cy="214.31851" sodipodi:cx="175.19743" sodipodi:type="arc" style="fill:none;stroke:#000000;stroke-width:6.5263;" d="
						M16.1,16.2c0,0.3-0.3,0.6-0.6,0.6c-0.3,0-0.6-0.3-0.6-0.6l0,0c0-0.3,0.3-0.6,0.6-0.6S16.1,15.9,16.1,16.2L16.1,16.2z"/>
				</g>
				<g id="g24546" transform="translate(-378.9072,-21.38992)">
					
						<path id="path20654" sodipodi:nodetypes="ccccc" inkscape:connector-curvature="0" style="fill:none;stroke:#000000;stroke-width:6.5263;" d="
						M121.5,57.5c4.4-0.2,6,1.6,12.6-0.4l-4.2-4.2l-7.5,1.2L121.5,57.5L121.5,57.5z"/>
					
						<path id="path20656" sodipodi:nodetypes="cc" inkscape:connector-curvature="0" style="fill:none;stroke:#000000;stroke-width:6.5263;" d="
						M130.3,53.3c-3.3-6.2-6.3-2.8-8,0.4"/>
					
						<path id="path20658" sodipodi:nodetypes="cc" inkscape:connector-curvature="0" style="fill:none;stroke:#000000;stroke-width:6.5263;" d="
						M133.2,57.5c-7.2,3.2-11.6,2.8-12.1,0.4"/>
					
						<path id="path23575" sodipodi:nodetypes="ccscc" inkscape:connector-curvature="0" style="fill:none;stroke:#000000;stroke-width:6.5263;" d="
						M126.7,53.7c-1,1.2-1.5,2.6,0.4,4.2c0,0-4.4-0.9-5.2-0.4c-0.4,0.2,0.6-3.1,0.6-3.1L126.7,53.7L126.7,53.7z"/>
				</g>
			</g>
			
				<path id="path24562" sodipodi:nodetypes="ccccccccccccc" inkscape:connector-curvature="0" style="fill:none;stroke:#000000;stroke-width:6.5263;" d="
				M334.1,114.5c1.9,17,4.7,33.6,3.6,52.2c-2.6,16.3,1.7,16.5,4.7,21.1l-2.2-6.7l-0.7-5l1.2-4.8c0.6,7.7,1.5,13.4,3.2,14.4l-0.5-6
				l5.4,6.7c-3-4.9-6.1-9.8-6.9-16.9l1.2-13.6l-2.4-21.3l-1.2-27.3"/>
			
				<path id="path24564" sodipodi:nodetypes="cccccccccc" inkscape:connector-curvature="0" style="fill:none;stroke:#000000;stroke-width:6.5263;" d="
				M329.9,133.9c-9.1,34-1.2,41.5,7.1,54.5c5.2,6.7,12.3,11.4,13,22.5l7.1,14.2c-3.1,2.2-4.7,4.3-10.7,6.5c-9,0.1-18.5,0.7-26.1-0.6
				c-1-0.7-2.1-1.4,0-3.6c5.4-2.2,6.9-7.3,5.9-14.2c-2.5-2.7-5.3-5.3-4.7-9.5c-4.3-10.7-11.1-18.6-15.4-20.1"/>
			
				<path id="path24566" sodipodi:nodetypes="cccccccsccccccc" inkscape:connector-curvature="0" style="fill:none;stroke:#000000;stroke-width:6.5263;" d="
				M204.9,153.6l4.2,42.1c4.2,4.5,4.1,11.2,5.4,17.2l1.8,8.3c2.2,1.3,5.1,0.8,5.9,6.5l0.6,4.2l-3.6,0.6c0,0-7.1-1.8-7.1-1.2
				s-4.2,0.6-4.2,0.6l-13.6,0.6c-3.1,0.4-5.5,0-7.1-1.2c-0.8-0.4,0-1.6,2.4-3.6c1.2-2.3,2.5-4.6,5.4-5.4c-0.6-2.8-1.2-5.5-1.8-8.3
				l-12.5-28.4"/>
			<path id="path27475" inkscape:connector-curvature="0" style="fill:none;stroke:#000000;stroke-width:6.5263;" d="M204.3,154.4
				l-15.4,20.1"/>
			
				<path id="path28446" sodipodi:nodetypes="cc" inkscape:connector-curvature="0" style="fill:none;stroke:#000000;stroke-width:6.5263;" d="
				M306.2,184.1c6.2-16.2,14.1-31.2,22.5-48.6"/>
			
				<path id="path31355" sodipodi:nodetypes="ccccc" inkscape:connector-curvature="0" style="fill:none;stroke:#000000;stroke-width:6.5263;" d="
				M113.6,109.3c-2-2.2,17.2-1.5,16.4,1.5c-16.8,15.7-41.2,26-63.2,25.1c-12.1-1.6-15.4-7.3-2.4-7.1c21.9-4.1,42.4-12.3,49.7-19.4"
				/>
			
				<path id="path32328" sodipodi:nodetypes="cccc" inkscape:connector-curvature="0" style="fill:none;stroke:#000000;stroke-width:6.5263;" d="
				M86.8,111.9c-1,5-31.6,7-45.3,5.5c-9.1-1.9-17.5-6.4,0.9-8.4c19,0.2,36-1.1,46.1-7.5"/>
			
				<path id="path37175" sodipodi:nodetypes="cc" inkscape:connector-curvature="0" style="fill:none;stroke:#000000;stroke-width:6.5263;" d="
				M86.2,146.4c3.7,2.2,6.7,5.1,16.6,1.2"/>
			
				<path id="path37177" sodipodi:nodetypes="cc" inkscape:connector-curvature="0" style="fill:none;stroke:#000000;stroke-width:6.5263;" d="
				M92.5,94.8c4.2,5,11.6,3.6,19,2.4"/>
			
				<path id="path37179" sodipodi:nodetypes="cc" inkscape:connector-curvature="0" style="fill:none;stroke:#000000;stroke-width:6.5263;" d="
				M93.7,86c1,3.1,8.5,3.6,19,3.6"/>
			
				<path id="path37183" sodipodi:nodetypes="cc" inkscape:connector-curvature="0" style="fill:none;stroke:#000000;stroke-width:6.5263;" d="
				M87.8,109.9c3.9,5.4,9.8,6.1,14.2,6.2"/>
			
				<path id="path37185" sodipodi:nodetypes="cc" inkscape:connector-curvature="0" style="fill:none;stroke:#000000;stroke-width:6.5263;" d="
				M88.6,103.8c5.1,3.2,10.1,6.5,21.3,3.6"/>
			
				<path id="path37187" sodipodi:nodetypes="cc" inkscape:connector-curvature="0" style="fill:none;stroke:#000000;stroke-width:6.5263;" d="
				M85.4,133.9c6.3,4,12.6,4.7,19,2.4"/>
			
				<path id="path37189" sodipodi:nodetypes="cc" inkscape:connector-curvature="0" style="fill:none;stroke:#000000;stroke-width:6.5263;" d="
				M94.5,77.6c1,3.1,8.5,3.6,19,3.6"/>
			
				<path id="path37191" sodipodi:nodetypes="cc" inkscape:connector-curvature="0" style="fill:none;stroke:#000000;stroke-width:6.5263;" d="
				M82.2,167.7c2.9,3.5,7.1,5.5,16.3,2.7"/>
			
				<path id="path37195" sodipodi:nodetypes="cc" inkscape:connector-curvature="0" style="fill:none;stroke:#000000;stroke-width:6.5263;" d="
				M83.8,159.3c2.9,3.5,8.8,4.7,17.9,1.9"/>
			<g id="g41106">
				<g id="g37205">
					
						<path id="path37197" sodipodi:nodetypes="cc" inkscape:connector-curvature="0" style="fill:none;stroke:#000000;stroke-width:6.5263;" d="
						M137.9,226.3c5.9-16.2-5.9-5.6-6.1-3.7"/>
					
						<path id="path37199" sodipodi:nodetypes="cc" inkscape:connector-curvature="0" style="fill:none;stroke:#000000;stroke-width:6.5263;" d="
						M140.1,226.3c2.8-8.9,8.9-4.9,7.5,4"/>
					
						<path id="path37201" sodipodi:nodetypes="cc" inkscape:connector-curvature="0" style="fill:none;stroke:#000000;stroke-width:6.5263;" d="
						M149.9,230.6c0.9-7,7.9-8.8,8.2,1.2"/>
					
						<path id="path37203" sodipodi:nodetypes="cc" inkscape:connector-curvature="0" style="fill:none;stroke:#000000;stroke-width:6.5263;" d="
						M160.3,232.1c-2.8-2.6,8.5-11.6,4.1,0.7"/>
				</g>
				
					<path id="path38180" sodipodi:nodetypes="cc" inkscape:connector-curvature="0" style="fill:none;stroke:#000000;stroke-width:6.5263;" d="
					M193.2,232.5c3-3.9,1.5-4.7-2.4-6.5"/>
				<g id="g40130">
					
						<path id="path40120" sodipodi:nodetypes="cc" inkscape:connector-curvature="0" style="fill:none;stroke:#000000;stroke-width:6.5263;" d="
						M275.2,234.4c2.6-6,0.2-6.9-1.8-8.3"/>
					
						<path id="path40122" sodipodi:nodetypes="cc" inkscape:connector-curvature="0" style="fill:none;stroke:#000000;stroke-width:6.5263;" d="
						M277,234.4c3.6-5.8,7.4-7.9,9.5,0.6"/>
					
						<path id="path40124" sodipodi:nodetypes="cc" inkscape:connector-curvature="0" style="fill:none;stroke:#000000;stroke-width:6.5263;" d="
						M288.8,234.4c2.2-4.5,3.4-11,7.7,0"/>
					
						<path id="path40126" sodipodi:nodetypes="cc" inkscape:connector-curvature="0" style="fill:none;stroke:#000000;stroke-width:6.5263;" d="
						M298.9,233.9c-1-4.1,0.3-5.2,2.4-7.7"/>
					
						<path id="path40128" sodipodi:nodetypes="cc" inkscape:connector-curvature="0" style="fill:none;stroke:#000000;stroke-width:6.5263;" d="
						M325.6,231.4c3.1-3.5,0.8-5.2-0.6-7.1"/>
				</g>
			</g>
		</g>
		
			<path id="path41164" sodipodi:nodetypes="cc" inkscape:connector-curvature="0" style="fill:none;stroke:#000000;stroke-width:6.5263;" d="
			M270.7,157.6c9.5,2.9,14.2-1.4,14.2,11.9"/>
		<path id="path45042" inkscape:connector-curvature="0" style="fill:none;stroke:#000000;stroke-width:6.5263;" d="M284.9,169.4
			l-14.2-11.9"/>
	</g>
</g>
</svg>
