<?xml version="1.0" encoding="utf-8"?>
<!-- Generator: Adobe Illustrator 23.0.0, SVG Export Plug-In . SVG Version: 6.00 Build 0)  -->
<svg version="1.1" id="Layer_1" xmlns="http://www.w3.org/2000/svg" xmlns:xlink="http://www.w3.org/1999/xlink" x="0px" y="0px"
	 viewBox="0 0 256 256" style="enable-background:new 0 0 256 256;" xml:space="preserve">
<path style="fill:#DD5E6D;" d="M129.3,104.7c0,0-63.5-5-79,24.5C35.7,157.1,12.1,195.7,99,246c0,0,78.1,14.1,102.7-14.1
	s34.1-73.6-29.5-111c0,0-5.8-13.7-1.7-27.4l-9.6,9.6l3.3-17.5l-9.1,9.6l-2.1-9.6l-8.3,17.5l-2.9-14.1L129.3,104.7z"/>
<path style="fill:none;stroke:#902F3B;stroke-width:5;stroke-linecap:round;stroke-linejoin:round;stroke-miterlimit:10;" d="
	M129.3,104.7c0,0-57.7-6.9-75.8,19.8C35.8,150.6,12.1,195.7,99,246c0,0,78.1,14.1,102.7-14.1s34.1-73.6-29.5-111
	c0,0-5.8-13.7-1.7-27.4l-9.6,9.6l3.3-17.5l-9.1,9.6l-2.1-9.6l-8.3,17.5l-2.9-14.1L129.3,104.7z"/>
<path style="fill:none;stroke:#902F3B;stroke-width:5;stroke-linecap:round;stroke-linejoin:round;stroke-miterlimit:10;" d="
	M106.4,104.8c0,0-54.3,26.3-47.4,78.8c0.8,6,2.7,11.8,5.5,17.3c5.2,10.2,15.6,29.3,25.3,39.7"/>
<path style="fill:none;stroke:#902F3B;stroke-width:5;stroke-linecap:round;stroke-linejoin:round;stroke-miterlimit:10;" d="
	M107.6,247.3c0,0-16.3-51,1.5-90c17.6-38.5,35.7-55.1,35.7-55.1"/>
<path style="fill:none;stroke:#902F3B;stroke-width:5;stroke-linecap:round;stroke-linejoin:round;stroke-miterlimit:10;" d="
	M161.1,103.8c0,0-3.1,103.9-49.6,140.5"/>
<path style="fill:none;stroke:#902F3B;stroke-width:5;stroke-linecap:round;stroke-linejoin:round;stroke-miterlimit:10;" d="
	M119.8,248.6c0,0,65.7-17.5,76.5-50c10.8-32.4-18.5-74.3-18.5-74.3"/>
<path style="fill:none;stroke:#902F3B;stroke-width:5;stroke-linecap:round;stroke-linejoin:round;stroke-miterlimit:10;" d="
	M141.6,89.2c0-1.7-3.8-30.3,9.6-54.8"/>
<path style="fill:none;stroke:#902F3B;stroke-width:5;stroke-linecap:round;stroke-linejoin:round;stroke-miterlimit:10;" d="
	M153,86c0,0,7.1-56.5,16.3-74.4"/>
<path style="fill:none;stroke:#902F3B;stroke-width:5;stroke-linecap:round;stroke-linejoin:round;stroke-miterlimit:10;" d="
	M164.3,86c0,0,20.1-66.1,34.3-79"/>
<line style="fill:none;stroke:#902F3B;stroke-width:5;stroke-linecap:round;stroke-linejoin:round;stroke-miterlimit:10;" x1="170.8" y1="94.1" x2="201" y2="38.2"/>
</svg>
