<?xml version="1.0" encoding="utf-8"?>
<!-- Generator: Adobe Illustrator 23.0.0, SVG Export Plug-In . SVG Version: 6.00 Build 0)  -->
<svg version="1.1" id="Layer_1" xmlns="http://www.w3.org/2000/svg" xmlns:xlink="http://www.w3.org/1999/xlink" x="0px" y="0px"
	 viewBox="0 0 256 256" style="enable-background:new 0 0 256 256;" xml:space="preserve">
<ellipse style="fill:#F9BE62;" cx="127.5" cy="134.6" rx="111.3" ry="108.4"/>
<path style="opacity:0.3;fill:#FFFFFF;" d="M137.8,29.9c11.7,0,22.9,1.8,33.4,5c-13.4-5.6-28.2-8.7-43.8-8.7
	C66,26.2,16.2,74.7,16.2,134.6c0,15.4,3.3,30,9.2,43.3c6.5,10.1,9.3,19,18.7,26.5c-14.5-18.3-17.7-41.2-17.7-66.1
	C26.5,78.3,76.4,29.8,137.8,29.9z"/>
<path style="opacity:0.1;" d="M197.6,50.5c14.5,18.3,23.1,41.2,23.1,66.1c0,59.9-49.8,108.4-111.3,108.4c-26.6,0-51-9.1-70.1-24.3
	c20.3,25.7,52.3,42.3,88.2,42.3c61.5,0,111.3-48.5,111.3-108.4C238.8,100.6,222.7,70.3,197.6,50.5z"/>
<ellipse style="fill:none;stroke:#EF8220;stroke-width:5;stroke-miterlimit:10;" cx="127.5" cy="134.6" rx="111.3" ry="108.4"/>
<path style="fill:none;stroke:#EF8220;stroke-width:5;stroke-linecap:round;stroke-miterlimit:10;" d="M166.4,41.5
	c0,0,5.3-21.7,27.5-23.8"/>
</svg>
