<?xml version="1.0" encoding="utf-8"?>
<!-- Generator: Adobe Illustrator 17.0.0, SVG Export Plug-In . SVG Version: 6.00 Build 0)  -->
<!DOCTYPE svg PUBLIC "-//W3C//DTD SVG 1.1//EN" "http://www.w3.org/Graphics/SVG/1.1/DTD/svg11.dtd" [
	<!ENTITY ns_flows "http://ns.adobe.com/Flows/1.0/">
	<!ENTITY ns_extend "http://ns.adobe.com/Extensibility/1.0/">
	<!ENTITY ns_ai "http://ns.adobe.com/AdobeIllustrator/10.0/">
	<!ENTITY ns_graphs "http://ns.adobe.com/Graphs/1.0/">
]>
<svg version="1.1" id="Layer_1" xmlns:x="&ns_extend;" xmlns:i="&ns_ai;" xmlns:graph="&ns_graphs;"
	 xmlns="http://www.w3.org/2000/svg" xmlns:xlink="http://www.w3.org/1999/xlink" xmlns:a="http://ns.adobe.com/AdobeSVGViewerExtensions/3.0/"
	 x="0px" y="0px" width="256px" height="256px" viewBox="0 0 256 256" style="enable-background:new 0 0 256 256;"
	 xml:space="preserve">
<g transform="translate(0.000000,1280.000000) scale(0.100000,-0.100000)">
	<path style="fill:none;stroke:#000000;stroke-width:4;stroke-miterlimit:10;" d="M416.2,12772.8c22-125.2,65.2-231.4,130.4-319.8
		c83.2-112.8,198.4-198,341.4-252.2c15.4-6,27.2-10.8,26-10.8c-8.2-0.2-69.2-8.8-91-12.8c-157.2-29.2-308.8-98-430-195
		c-131.2-104.8-228-241.8-284.4-402c-54.2-154.2-62.2-325.6-22.4-485.2c30.8-123.4,88.2-238.2,170.4-341.4
		c39.4-49.4,112-118.6,165.4-158c185-135.8,424.4-204.6,650.2-186.6c345,27.2,641,222.6,782,516c58.4,121.8,86.8,244.2,86.8,375
		c0,94-14.2,181.4-44.2,270.6c-66.4,198.2-199.4,365.2-379.4,476.8l-11.4,7l18-1.2c72.2-4.6,140.2-3,203,5
		c179,22.6,332.4,90,468,205.8c26.2,22.4,81.8,78.4,104.2,105c36.2,43,93.4,124.4,108.2,154c27.2,54,91.6,242.6,91.6,267.8v9.2h-8.8
		c-7.8,0-11.6-1.8-28.2-13c-45.6-31-111.2-57.6-205-83c-43-11.6-139.2-33.2-282-63c-189.4-39.8-283.2-63.8-386.6-99
		c-224.4-76.4-380-182.2-473.8-322.4l-9-13.4l-3.4,28.4c-16.2,137.8-78.6,264.6-175.8,356.6C826,12686,692.6,12750.6,527,12784
		c-44.8,9-90.4,16-105.2,16h-10.2L416.2,12772.8z"/>
</g>
</svg>
