<?xml version="1.0" encoding="utf-8"?>
<!-- Generator: Adobe Illustrator 22.1.0, SVG Export Plug-In . SVG Version: 6.00 Build 0)  -->
<svg version="1.1" xmlns="http://www.w3.org/2000/svg" xmlns:xlink="http://www.w3.org/1999/xlink" x="0px" y="0px"
	 viewBox="0 0 256 256" style="enable-background:new 0 0 256 256;" xml:space="preserve">
<g id="Layer_1">
	<path style="fill:#FFFFFF;" d="M206.5,251.6H51.8c0-14.6-5.1-36,1.9-43.5c4.2-4.6,8.9-8,14-10.7c9.3-4.9,20.3-7.4,33.8-9.6
		c0.5-0.1,0.9-0.2,1.4-0.3c4.4-1.3,7.4-5.3,7.4-10v-8.3c-15.9-6.1-27.7-20.4-30.4-37.7c-6.6-1.6-10-7.5-10-14.6
		c0-6.1,2-11.3,7.2-13.7c2.8,0,5.8-0.3,9-1.1c20.1-4.8,43.8-15.1,63.1-31.9c5.1,16,15,27.9,26.8,31.5v0.2c7.4,1,11.4,7.3,11.4,14.9
		c0,7.9-4.5,14.4-12.2,15c-3,16.6-14.1,30.5-29.2,36.9v8.4c0,4.4,2.8,8.3,6.7,9.8c0.7,0.3,1.4,0.4,2.2,0.6c13,1.9,25,4.2,34.8,9.8
		c4.9,2.7,9.2,6.2,12.9,10.9C209,216.1,206.5,237.3,206.5,251.6z"/>
	<path style="fill:#2B2B2B;" d="M189.7,83.3v113.9c-9.8-5.5-21.8-7.9-34.8-9.8c-0.7-0.1-1.5-0.3-2.2-0.6c-4-1.5-6.7-5.4-6.7-9.8
		v-8.4c15.1-6.4,26.3-20.3,29.2-36.9c7.7-0.6,12.8-6.3,12.8-14.7c0-8.1-4.7-14.2-12-15.2v-0.2c-11.9-3.6-21.7-15.5-26.8-31.5
		c-19.3,16.8-43,27.1-63.1,31.9c-3.1,0.8-6.2,1.1-9,1.1c-5.2,2.3-8.1,7.4-8.1,13.9c0,7.6,4.2,12.9,10.9,14.4
		c2.7,17.3,14.5,31.6,30.4,37.7v8.3c0,4.6-3.1,8.7-7.4,10c-0.4,0.2-0.9,0.3-1.4,0.3c-13.6,2.3-24.6,4.7-33.8,9.6v-114
		c0-33.7,27.3-61,61-61c16.9,0,32.1,6.8,43.2,17.9c0.4,0.4,0.7,0.7,1.1,1.1C183.4,52.2,189.7,67,189.7,83.3z"/>
	<circle style="fill:#2B2B2B;" cx="104.7" cy="113.3" r="5.6"/>
	<circle style="fill:#2B2B2B;" cx="153" cy="113.3" r="5.6"/>
	<path style="opacity:0.1;fill:#0C0C0C;" d="M128.8,145.4c-9.4,0-15.1-2.9-15.4-3c-0.8-0.4-1.1-1.4-0.7-2.1c0.4-0.8,1.3-1.1,2.1-0.7
		c0.2,0.1,12,6,30.1-0.1c0.8-0.3,1.7,0.2,2,1s-0.2,1.7-1,2C139.3,144.7,133.6,145.4,128.8,145.4z"/>
	<path style="fill:#E8E8E8;" d="M207.2,251.3H50.7c0-15.2-3.3-37.4,3.7-45.2c7.1-8,15.3-12.7,25.2-15.9c3.8-1.2,7.8-2.3,12-3.2
		c1.1-0.2,2.1-0.5,3.2-0.8c2.3-0.6,4.6-1.3,7.2-1.7c0.5-0.1,1.1-0.3,1.6-0.4c5.1,10.7,24,15.5,24,15.5c0.1,0,21.6-2.1,25.6-15l0,0
		c0.1-0.1,0.2-0.3,0.2-0.4h0.1c0.7,0.2,1.3,0.4,2.1,0.5c2.5,0.4,4.9,0.8,7.3,1.2c1,0.2,1.9,0.4,2.9,0.5c4.2,0.8,8.2,1.8,12,3
		c10.1,3.2,18.9,8.1,25.5,16.7C209.7,214.5,207.2,236.4,207.2,251.3z"/>
	<polygon style="fill:#474747;" points="118.7,207.5 124.6,214.4 120.5,251.3 133.7,251.3 130.2,214.4 137,207.5 127.6,199.5 	"/>
	<path style="fill:#474747;" d="M207.2,251.3H50.7c0-15.2-3.3-37.4,3.7-45.2c7.1-8,15.3-12.7,25.2-15.9c3.8-1.2,7.8-2.3,12-3.2
		c1.1-0.2,6.2-1.5,6.7-1.6c-3.1,4.5,12.6,56.6,18.3,65.9H137c4.9-8.8,23.9-62.2,16.2-66.7l0,0c0.1-0.1,0.2-0.3,0.2-0.4h0.1
		c0.7,0.2,1.3,0.4,2.1,0.5c2.5,0.4,4.9,0.8,7.3,1.2c1,0.2,1.9,0.4,2.9,0.5c4.2,0.8,8.2,1.8,12,3c10.1,3.2,18.9,8.1,25.5,16.7
		C209.7,214.5,207.2,236.4,207.2,251.3z"/>
	<path style="fill:#F4F4F4;" d="M127.6,199.5l9.4,14.8c0,0,19.1-16.4,23.3-28.6l-11.5-2.9C150.1,185.3,140.2,197.1,127.6,199.5z"/>
	<path style="fill:#F4F4F4;" d="M127.6,199l-8.6,15.4c0,0-19.6-16.4-23.8-28.6l12.8-2.5C104,186,115,196.6,127.6,199z"/>
	<path style="fill:#666666;" d="M152.9,187.3c0,0-11.2,50.4-15.9,64l31.2-29.6l-12-9.5l12.9-2.3l-7.4-21.1L152.9,187.3z"/>
	<path style="fill:#666666;" d="M100.9,187c0,0,11.2,50.7,15.9,64.3l-30.7-29.2l12-9.5l-16-1l9.6-21.5L100.9,187z"/>
	<path style="fill:#474747;" d="M197.3,53.5l-6.4,9.4l-3.7,5.4C148,50,108.5,49.9,68.9,68.3l-3.4-4.9l-7-10.3
		c-4.6-6.8-5.1-15.7-0.6-22.6c1.8-2.7,4.2-5,7.2-6.8c23.5-13.4,71.7-31.4,126,0.6c2.2,1.3,4,2.9,5.5,4.8
		C202.3,36.1,202.3,46.1,197.3,53.5z"/>
	<path style="fill:#2D2D2D;" d="M76.2,62.9c34.4-14.5,68.8-14.5,103.2,0c0,0-17.1,22.6-51.5,22.9C93.5,86.1,76.2,62.9,76.2,62.9z"/>
	<path style="fill:#FCD73D;" d="M190.8,59.9l-3.7,5.4c-39.2-18.3-78.7-18.4-118.3,0l-3.4-4.9c8.4-4.2,31-13.9,62.5-13.7
		C158.2,47,181.2,55.6,190.8,59.9z"/>
	<path style="fill:#FCD73D;" d="M113,25.4c0,0,14.1,4.5,29.1,0c0,0-9,12-14.7,12S113,25.4,113,25.4z"/>
	<path style="fill:#474747;" d="M76.2,64.6c14.7-5.7,29.4-9,44-9.8c-14.5,0.9-29.1,4.3-43.7,10.2c-2.5,1-5.1,2.1-7.6,3.3l0,0
		c2.5-1.2,5.1-2.3,7.6-3.3C76.3,64.7,76.2,64.6,76.2,64.6z"/>
	<path style="fill:#474747;" d="M121.8,54.7c0.2,0,0.5,0,0.7,0c-0.1,0-0.2,0-0.3,0c-0.5,0-0.9,0-1.4,0.1
		C121.2,54.7,121.5,54.7,121.8,54.7z"/>
	<path style="fill:#474747;" d="M124.4,54.6c0.6,0,1.2,0,1.7,0c-0.5,0-1.1,0-1.6,0H124.4z"/>
	<path style="fill:#474747;" d="M179.4,64.6c0,0-0.1,0.1-0.2,0.2c-10.2-4.1-20.5-7-30.7-8.7C158.8,57.8,169.1,60.6,179.4,64.6z"/>
	<path style="fill:#2D2D2D;" d="M76.2,64.6c14.7-5.7,29.4-9,44-9.8c-14.5,0.9-29.1,4.3-43.7,10.2c0,0,0,0,0,0
		C76.3,64.7,76.2,64.6,76.2,64.6z"/>
	<path style="fill:#2D2D2D;" d="M121.8,54.7c0.1,0,0.3,0,0.4,0c-0.5,0-0.9,0-1.4,0.1C121.2,54.7,121.5,54.7,121.8,54.7z"/>
	<path style="fill:#2D2D2D;" d="M179.4,64.6c0,0-0.1,0.1-0.2,0.2c0,0,0,0,0,0c-11.5-4.6-23-7.7-34.5-9.2c0.6,0.1,1.3,0.2,1.9,0.3
		c0,0,0.1,0,0.1,0c0.6,0.1,1.2,0.2,1.8,0.3C158.8,57.8,169.1,60.6,179.4,64.6z"/>
	<path style="fill:#FCD73D;" d="M65.5,63.4l3.4,4.9c0,0,0,0-0.1,0L65.5,63.4C65.4,63.4,65.5,63.4,65.5,63.4L65.5,63.4z"/>
	<path style="fill:none;stroke:#161616;stroke-width:5;stroke-linecap:round;stroke-linejoin:round;stroke-miterlimit:10;" d="
		M196.6,29.1c-1.5-1.9-3.3-3.5-5.5-4.8c-54.3-32-102.5-14-126-0.6c-3,1.8-5.4,4.1-7.2,6.8c-4.5,6.9-4,15.8,0.6,22.6l7,10.3l0,0
		l3.4,4.9c2.5-1.2,5.1-2.3,7.6-3.3c-0.2-0.2,19.7,21.1,51.4,20.8c32.1-0.3,49.2-18.5,51.3-20.9c0,0,0.2-0.2,0,0
		c2.6,1.1,5.3,2.2,7.9,3.4c0,0,0,0,0.1,0l3.7-5.4l6.4-9.4C202.3,46.1,202.3,36.1,196.6,29.1z"/>
	<path style="fill:none;stroke:#2B2B2B;stroke-width:5;stroke-miterlimit:10;" d="M107.7,177.1c0-4.8-0.4,8.1-4.8,9.4
		c-0.5,0.1-0.9,0.2-1.4,0.3C88,189,77,191.5,67.7,196.4c-5.1,2.7-9.8,7.1-14,11.7c-7,7.5-1.9,28.9-1.9,43.5h154.7
		c0-14.3,2.5-35.5-3.9-43.4c-3.7-4.7-8-9.2-12.9-11.9c-9.8-5.6-21.8-7.9-34.8-9.8c-0.8-0.2-1.5-0.3-2.2-0.6
		c-3.9-1.5-4.1-12.9-4.1-8.4"/>
</g>
<g id="guidelines">
</g>
</svg>
