<?xml version="1.0" encoding="utf-8"?>
<!-- Generator: Adobe Illustrator 17.0.0, SVG Export Plug-In . SVG Version: 6.00 Build 0)  -->
<!DOCTYPE svg PUBLIC "-//W3C//DTD SVG 1.1//EN" "http://www.w3.org/Graphics/SVG/1.1/DTD/svg11.dtd" [
	<!ENTITY ns_flows "http://ns.adobe.com/Flows/1.0/">
	<!ENTITY ns_extend "http://ns.adobe.com/Extensibility/1.0/">
	<!ENTITY ns_ai "http://ns.adobe.com/AdobeIllustrator/10.0/">
	<!ENTITY ns_graphs "http://ns.adobe.com/Graphs/1.0/">
]>
<svg version="1.1" id="Layer_1" xmlns:x="&ns_extend;" xmlns:i="&ns_ai;" xmlns:graph="&ns_graphs;"
	 xmlns="http://www.w3.org/2000/svg" xmlns:xlink="http://www.w3.org/1999/xlink" xmlns:a="http://ns.adobe.com/AdobeSVGViewerExtensions/3.0/"
	 x="0px" y="0px" width="256px" height="256px" viewBox="0 0 256 256" style="enable-background:new 0 0 256 256;"
	 xml:space="preserve">
<path style="fill:none;stroke:#000000;stroke-miterlimit:10;" d="M197.2,159.7c0.1,0,0.7-0.3,1.9-0.8c1.2-0.6,2.1-0.9,2.5-1l3.5-1.6
	l0.1-1.2l-1.5,0.8l-2.8-1.1l1.2-0.5c0.7-0.3,1.1-0.4,1.1-0.4c0.1-0.1,0.1-0.4,0-0.9c-0.1-0.4-0.1-0.6-0.1-0.6
	c-0.1,0-0.3-0.2-0.5-0.6l5.1-2.5c0.4-0.2,0.5-0.3,0.5-0.4c0,0-0.1,0-0.5,0c-1.3,0-2.5-0.1-3.8-0.4c-0.8-0.1-1.3-0.3-1.3-0.4
	c0-0.1,0.3-0.2,0.8-0.3c1.8-0.4,3-0.7,3.3-1.1c0.5-0.4,0.6-0.6,0.5-0.6c-0.4,0.1-0.6,0.1-0.8-0.1c-0.1-0.3,0.2-0.5,0.9-0.7
	c0.4-0.1,0.7-0.1,1.1-0.2l-0.3-0.8l-2.3-0.6l1.9-1.1c1.7-1.3,2.8-2.4,3.3-3.4c0.1-0.3,0.2-0.5,0.3-0.8c-0.6,0.1-1.5,0.1-2.4,0
	c-0.2,0-0.4,0-0.6,0c0.1-0.1,0.2-0.1,0.4-0.2c0.1-0.1-0.1-0.1-0.5-0.3c-0.4-0.1-0.6-0.2-0.5-0.3c-0.1-0.1-0.3-0.1-0.5,0
	c-0.1,0.1-0.2,0.1-0.4,0.2l0.9-2.8l1.7-1.1l-3.3-0.1l1-1.8l3-3l-2.8-0.5c-0.3-0.1-0.4-0.1-0.4-0.1c0.2-0.1,0.3-0.1,0.2-0.3
	c-0.1-0.1-0.3-0.1-0.8,0.1l-0.7,0.4l0.7-1.3l-1.9,0.4l1.5-1.9c1.1-0.9,1.8-1.6,1.9-2.1c-0.8-0.1-1.7-0.2-2.4-0.4
	c-1.6-0.3-2.1-0.6-1.6-0.8l6.4-1.7h-1.8l-0.5,0.4c-0.3-0.1-0.6-0.3-0.8-0.4c-0.1,0-0.1-0.1-0.2-0.1h1.6l0.5-0.5l-0.8-0.2l-0.9-0.5
	l3-1.1c0-0.4,0.8-1.2,2.4-2.4c0.7-0.5,0.9-0.8,0.8-1.1l-0.4-0.1l-0.8-1.1c-0.7,0.1-1.1,0.2-1.1,0.1v-0.4c0-0.2,0.4-0.6,1.3-1.2
	l1.3-0.8l-0.4,0.1c-0.3,0.1-1.3,0.1-3,0c2.3-1.1,3.9-1.8,4.7-2.3c1-0.5,1.7-0.8,2.1-1.1c0.8-0.4,1.3-0.8,1.5-1.2l3.9-1.1l4.4,4.2
	c0.9,0.8,1.2,1.2,0.9,1.1l-0.7-0.4l-1.6,0.6l-2-0.1l1.6,5.3c0.1,0.5,0.1,0.7,0.1,0.8c0,0.1-0.1,0-0.4-0.1c-0.8-0.6-1.6-1-2.5-1.1
	c-0.9-0.1-1.2-0.1-0.9,0c0.8,0.5,1.3,1,1.5,1.5c0.1,0.4,0.2,0.8,0.1,1.1c0.4,0.1,0.8,0.2,1.1,0.3l1.6,0.2l1.4,0.6
	c0.4,0.2,0.9,0.4,1.8,0.8c-1.1,0.3-1.8,0.4-2.3,0.4c-0.2,0-0.3,0.1-0.1,0.4c0.1,0.1,0.2,0.3,0.4,0.4l-2.8,0.2v0.4
	c0,0.2-0.4,0.1-1.2-0.3l0.1,0.3l-1.6,0.6l0.5,1.1c0.6-0.1,1-0.1,1.2,0c0.1,0.1,1-0.1,2.6-0.6c1.6-0.4,2.5-0.7,2.8-0.8
	c0.2-0.1,0.4-0.2,0.7-0.2l0,0c0.1,0,0.4-0.1,0.7-0.1c0.4-0.1,0.4,0.2,0,0.8c-0.5,0.3-0.9,0.6-1.3,0.8c-0.3,0.1-0.1,0.2,0.5,0.4
	c0.3,0.1,0.6,0.1,1,0.1l-2.8,0.6c-0.7,0.2-0.8,0.4-0.5,0.7c0.2,0.1,0.4,0.3,0.8,0.4l-1.1,0.1l2.3,1.7c1.1,0.8,1.3,1.3,0.7,1.6
	c-0.3,0.1-0.7,0.2-1.2,0.2l-1.7,1.3l0.7,0.1c1.4,0.4,2.9,0.9,4.6,1.6l-2.5,0.8c-0.9-0.2-1.6-0.2-2.1-0.1c0.4,0.2,0.5,0.6,0.3,1.3
	h1.3l1.5,1.1l0.8-0.2l0.8,0.2c0.6,0.2,1,0.4,1.3,0.6l1.6,1.1c1.1,0.2,1.6,0.4,1.2,0.4l-1.7,0.2l1.6,1.3l-1.9,0.3l1.1,0.8
	c0.6,0.6,0.6,0.8-0.1,0.8l-1.1-0.1c-0.3,0.1-0.6,0.1-0.8,0.1c-0.2,0-0.4-0.1-0.7-0.4L232,141l0.3,0.5c0.1,0.4,0.1,0.6,0,0.8
	c-0.1,0.1-0.4,0.1-0.8-0.1l0.6,1.5l2.2,0.8l1.7-0.6l1.8-1.7l0.9-0.6c0.6-0.3,0.8-0.2,0.6,0.2l-0.4,1.1l0,0l-1.8,1.1
	c0.4,0.2,0.8,0.2,1.5,0v0.1l-0.5,0.4l-1.3,0.8l3,4c-1.6-0.4-2.2,0-1.8,1.3c0.2,0.8,0.8,2.1,2.1,3.7c2.3,3.3,5.2,6.4,8.8,9.4
	c-0.5,0.3-0.9,0.6-1.2,0.8c-0.4,0.4-0.7,0.7-0.8,1.1c-0.1,0.2,0,0.6,0.1,1.2l0,0c0.1-0.4,0.3-0.7,0.6-0.8l0.5-0.1l0.5,1.4l-0.1,0.6
	h1.8l-1.1,1.3l-0.4,0.4l0.8,0.4h2.8l-1.6,0.9l0.1,1.5l1.3,1l-1.4,0.6c-0.4,0.1-0.8,0.1-1,0.1c-0.1,0,0,0.2,0.4,0.7
	c0.2,0.3,0.4,0.5,0.7,0.8c0,0.5-0.2,0.7-0.6,0.7c-0.3,0-0.6-0.1-0.8-0.2c-0.3-0.1-1-0.6-2.1-1.4c-0.8-0.5-1.1-0.7-0.8-0.5
	c0.6,0.6,1,1.1,1,1.3c0.1,0.6,0.4,1.2,0.7,2c0.1,0.4,0.1,0.4-0.2,0.1c-0.3-0.3-0.5-0.6-0.6-0.8c-0.1-0.1-0.3-0.1-0.8,0l-0.7,0.4
	l0.1,0.5l-0.7,0.4l-1.6-1.6l-1.1-0.6l0.6,1.7c0,0.2-0.1,0.4-0.4,0.4c-0.4,0.1-1.1-0.1-2.1-0.8c-0.8-0.6-1.3-0.8-1.1-0.6
	c0.3,0.5,0.4,0.8,0.3,0.9c-0.3,0.2-0.4,0.6-0.2,1.1c-0.6-0.6-1-1.1-1.1-1.6c-0.1-0.3-0.4-0.4-0.8-0.4h-0.6c-0.3-0.2-0.6-0.4-0.9-0.6
	c-0.7-0.4-1.1-0.6-1.5-0.5l-0.6,1.7l-1.8-1.7c-0.8-0.7-1-0.8-0.7-0.1c0.1,0.4,0.4,0.9,0.8,1.6c0.1,0.4-0.1,0.9-0.8,1.5l-0.5-0.6
	l0.3,1.2c-0.4,0.8-0.8,1.3-1.1,1.3c-0.2,0-0.4-0.1-0.5-0.4c-0.1-0.3-0.1-0.5-0.1-0.6l-0.6-1.4c-0.1-0.1-0.1-0.1-0.2,0
	c-0.2,0.4-0.5,0.7-0.9,1c-0.4,0.3-0.7,0.6-0.9,0.8c-0.1,0.1-0.2,0-0.3-0.1l-0.6-1.6c-0.1-0.1-0.4-0.4-0.9-0.8l-3.5,1.6l0.8,1.3
	l-1.3,1l-1.4-0.9v3.6l-0.4-1.1l-1.6-0.6l0.1,0.8l-0.1,1.2L217,183c-0.4-0.7-0.7-1.2-1-1.5l-0.6,2.8l-0.3-0.8
	c-0.1-0.3-0.3-0.6-0.4-0.7l-0.2-0.1l-0.6-0.8l0.1,1.6c0.1,0.7,0,0.9-0.2,0.7c-0.1-0.2-0.3-0.6-0.5-1.3c-0.1-0.4-0.2-0.7-0.4-0.7
	l-0.1,0.1l-0.2,0.5c-0.2,0.4-0.5,0.8-0.8,1.3c-0.4,0.4-0.6,0.1-0.7-1.1v-1.8l-1.4,1.5l-0.8-1.2h-0.1c-0.1,0.4-0.5,0.7-1.1,0.9
	c-0.3,0.1-0.3-0.1-0.1-0.8c-0.6,0.1-1.1,0.1-1.3,0.1c-0.2,0.1-0.5,0.1-0.6,0.1l-1.7,1.1c-1,0.6-1.6,0.9-1.6,0.8
	c-0.4-0.5-0.8-0.8-1.3-1c-0.8-0.3-1.3-0.3-1.3,0c0,0.1,0.1,0.3,0.3,0.5"/>
<path style="fill:none;stroke:#000000;stroke-miterlimit:10;" d="M226.7,167.9c0.4-0.1,0.8-0.3,1.2-0.6l1.2-0.2l1.9-3.5
	c-0.8,0.9-1.3,1.4-1.6,1.4c-0.1,0-0.1-0.3,0-0.7c0.2-0.6,0.4-1.1,0.4-1.3c0.1-0.4,0-0.6-0.2-0.5c-0.2,0.1-0.6,0.5-1.1,1.1
	c-0.7,0.8-0.9,0.8-0.6-0.1c0.1-0.2-0.1-0.3-0.5-0.3l-0.6,0.1l-1.4,2.2"/>
<g>
	<path style="fill:none;stroke:#000000;stroke-miterlimit:10;" d="M217.9,100.2c0.1-0.2,0.2-0.1,0.5,0.3c0.5,0.6,0.8,1.1,1.1,1.2
		c0.6,0.6,0.9,1.3,0.9,2.1l0.8,2l0.2-0.6l0.4,1.6l0.2,0.6c0.2,0.4,0.4,0.7,0.5,0.9c0.2,0.3,0.4,0.8,0.5,1.3l0.8,1.6l-1.4-0.3
		c-0.1-0.4-0.4-0.8-0.9-1.2c-0.3-0.3-0.4-0.2-0.4,0.2c-0.1,0.6-0.1,1-0.1,1.1c-0.2,0.3-0.8,1-1.8,2c-0.1-0.6-0.1-1.2-0.1-1.6
		c0-0.3-0.1-0.4-0.3-0.3l-2.5,1.2c-0.5,0.3-0.8,0.4-1.1,0.5c-0.2,0.1-0.8,0.2-1.9,0.3c-0.8,0.1-1.1,0.1-0.8,0c0.6-0.1,1-0.3,1.1-0.4
		c0.1-0.1,0.4-0.4,1.2-0.9c0.6-0.5,1-0.8,0.9-1c-0.1-0.1-0.2-0.2-0.4-0.1l-0.3,0.1l-1.8,0.4c-0.7,0.2-1.1,0.1-0.9-0.1l0.4-0.4
		c1.3-0.4,2.2-0.7,2.8-1.1c0.4-0.2,0.7-0.5,1-1.1c0.4-0.6,0.7-1,0.8-1.1c0.1-0.5,0.1-1,0.3-1.5c0.2-1,0.5-1.6,0.7-1.6
		c0.2-0.1,0.4-0.4,0.5-0.7c0.1-0.4,0.1-0.7,0.1-0.9s-0.1-0.7-0.4-1.4C218,100.8,217.8,100.4,217.9,100.2L217.9,100.2z"/>
	<path style="fill:none;stroke:#000000;stroke-miterlimit:10;" d="M214.6,116.1c0.3-0.1,0.4-0.1,0.4-0.1c0.3-0.1,0.5,0.1,0.6,0.4
		l0.6,0.4c0.4,0.3,0.8,0.5,1.3,0.6l0.1,1.6l-0.8,1.5l-0.4,0.1c-0.3,0.1-0.4-0.2-0.5-0.8l-0.6-0.8c-0.2-0.3-0.4-0.4-0.6-0.1
		c-0.1,0.1-0.1,0.2-0.1,0.4c-0.1,0.6-0.6,1.1-1.3,1.3c-0.4,0.1-0.7,0.1-0.8-0.2v-0.5l-0.9,2.6l-0.5-1.7l-1.5,0.8l-1.6,0.6l0.6-1.6
		l-2.4,0.7H205l3.1-1.3l-2.5-0.6c-0.6-0.1-0.6-0.2-0.1-0.2c0.2,0,0.6,0,0.9,0l0.7-0.1c0.6-0.1,1-0.3,1.3-0.4
		c0.8-0.3,1.7-0.8,2.6-1.3L214.6,116.1L214.6,116.1z"/>
	<path style="fill:none;stroke:#000000;stroke-miterlimit:10;" d="M222.8,121.6c1.4,1.4,1.3,1.5-0.5,0.3l-2.1-1.4l0.6,0.8
		c0.4,0.6,0.8,0.8,1.1,1c0.5,0.2,0.4,0.4-0.1,0.6c-0.4-0.3-0.8-0.4-1.4-0.3l-1.1-0.3l-0.4,0.7c-0.1,0-0.3-0.4-0.5-1.1
		c-0.1-0.1,0.1-0.5,0.3-1.3l0.4-1.1l1.1-0.6l0.6,0.5C221.3,120,222,120.6,222.8,121.6L222.8,121.6z"/>
	<path style="fill:none;stroke:#000000;stroke-miterlimit:10;" d="M206.2,124.8c0.4-0.3,0.6-0.4,0.9-0.5c0.4-0.1,0.6-0.2,0.7-0.3
		l2.3-1.2l0.7,0.7h0.4c0.3,0,0.6,0.3,0.7,0.7l-0.2,0.9l-1.2,1.6c-0.3,0.4-0.4,0.5-0.4,0.4c0.1-0.2-0.1-0.2-0.3-0.1
		c-0.4,0.2-0.6-0.1-0.6-1c0,0.3-0.2,0.6-0.6,1.1s-0.6,0.6-0.4,0.4l-0.5,0.6c-0.4,0.5-0.9,0.9-1.5,1.3c-0.6,0.4-0.8,0.3-0.6-0.4
		l0.5-1.2c-0.7,0.6-1.7,1.3-3,1.8c-0.8,0.4-0.8,0.1,0.1-0.9l1.6-1.6c-1.5,0.4-2.1,0.4-1.6,0c0.2-0.3,0.4-0.5,0.3-0.8l-0.1-0.3
		l-0.8-0.7c-0.3-0.2-0.4-0.3-0.2-0.3c0.3,0.1,0.6,0.2,0.7,0.1c0.2-0.1,0.6,0,1.3,0.1c0.4,0.1,0.6,0.1,1,0.1L206.2,124.8L206.2,124.8
		z"/>
	<path style="fill:none;stroke:#000000;stroke-miterlimit:10;" d="M220.6,125.8c0-0.2,0.1-0.5,0.2-0.7c0.3-0.5,0.9-0.7,1.8-0.8
		c1.9-0.1,3-0.1,3.2-0.1c0.4-0.1,0.1,0.1-0.9,0.6l1.1,0.6c-0.9,0.1-1.7,0.2-2.3,0.4c-0.3,0.1-0.4,0.1-0.2,0.3
		c0.4,0.4,0.6,0.8,0.8,1.3c0.3,0.6,0.1,0.8-0.6,0.4l-1-0.8l-0.1,1.4c-0.1,0.6-0.5,0.1-1.3-1.4c-0.1,0.4-0.2,0.6-0.5,0.7
		C220.7,127.6,220.5,127.1,220.6,125.8L220.6,125.8z"/>
	<path style="fill:none;stroke:#000000;stroke-miterlimit:10;" d="M212.2,130.9l0.4-1.1l0.6-0.7l0.5-1l0.5-0.1
		c0.4-0.1,0.7-0.2,0.8-0.1l2.3-2.5l1,0.6l1,1.1l0.8,1.3c0.6,0.8,1,1.4,1.2,1.7l-0.8,0.2c0.6,0.3,1.3,0.5,2,0.6
		c1.6,0.4,2.1,0.5,1.3,0.3l2.8-0.2c0.6,0,0.9,0,1.1,0.1l1,1.1l0.6-0.1c-0.5,0.1-1,0.1-1.5,0.3c-0.3,0.1-0.1,0.2,0.5,0.5
		c0.8,0.3,1.2,0.6,1.3,0.8c0.2,0.4-0.4,0.3-1.8-0.4l0.4,0.8c0.3,0.6,0.4,1.1,0.4,1.3c0.1,0.3-0.3,0.1-1-0.4
		c-0.8-0.7-1.3-1.1-1.4-1.2c-0.1-0.1-0.1,0-0.2,0.3c0,0.3-0.2,0.4-0.6,0.4l-0.3,1.2c-0.6-1-1.1-1.5-1.5-1.5c-0.2,0-0.4,0.1-0.4,0.2
		c-0.1,0.1-0.1,0.1-0.1,0.2l-0.4-0.6l-1.1,1.4l-0.1-2l-1.9-2.5c-0.3,0.3-0.1,0.7,0.4,1.3l-1.5-0.9c-0.4-0.2-0.5-0.1-0.2,0.4
		c0.1,0.2,0.3,0.5,0.5,0.8l-0.7,0.1c-0.2-0.6-0.4-1-0.7-1.4c-0.1-0.3-0.3-0.1-0.4,0.6c-0.1,0.4-0.1,0.7-0.1,1.1l-0.2,1.8l-0.8-0.6
		c0,0.1-0.1,0.1-0.2,0.2c-0.2,0.1-0.6,0-1-0.2c-0.4-0.2-0.6-0.2-0.6-0.1c0,0.5-0.2,0.9-0.6,1.3c-0.4,0.5-0.6,0.5-0.5,0
		c0.2-0.8,0.3-1.3,0.2-1.6c-0.1-0.3-0.2-0.4-0.5-0.1c-0.5,0.4-0.8,0.7-0.8,0.7c-0.8,0.4-1.1,0.6-1.3,0.6c-0.5,0.2-0.7,0.2-0.6,0
		c0.1-0.1,0.3-0.4,0.7-0.8c0.5-0.5,0.8-0.8,1-1l0.7-0.8L212.2,130.9L212.2,130.9z"/>
	<path style="fill:none;stroke:#000000;stroke-miterlimit:10;" d="M211.9,138.8c-0.3-0.5-0.4-0.6-0.6-0.3c-0.1,0.1-0.1,0.4-0.1,0.6
		c-0.7,0.6-1.2,0.8-1.6,0.9c-0.3,0.1-0.2-0.1,0.1-0.6s0.6-0.7,0.8-0.9c0.2-0.1,0-0.2-0.5-0.1l-0.8,0.1l-0.6-0.4l1.3-0.3
		c0.8-0.3,1.5-0.6,1.9-0.8l3.1-0.8l-0.1,0.6l-0.1,0.4c-0.1,0.3-0.3,0.4-0.7,0.1l0.1,0.5c0.1,0.4,0.1,0.8,0.1,1.3
		c-0.1,0.7-0.4,0.5-1-0.6l-0.7,1.3c-0.2,0.4-0.4,0.6-0.4,0.4C212.2,139.7,212.1,139.2,211.9,138.8L211.9,138.8z"/>
	<path style="fill:none;stroke:#000000;stroke-miterlimit:10;" d="M218,139.6l0.8-0.1c0.1-0.2,0.2-0.4,0.4-0.7
		c0.3-0.5,0.6-0.8,0.8-0.8c0.2-0.1,0.3,0,0.4,0.3c0.1,0.4,0.1,0.6,0.1,0.8c0.2,0.2,0.7,0.2,1.5-0.1l1.8,0.8l1.8,0.3l0.2,0.9
		l-2.1-0.1l0.8,2l-0.8,0.2l-0.1,1.2l-1.8-2.3c-0.7-0.9-1.1-1.2-0.9-0.8c0.1,0.2,0.2,0.5,0.4,0.8l-0.9,0.6l-0.6,1.3l-0.8-2.3
		l-0.9,0.8c0.5,1.3,0.4,1.7-0.2,1.3c-0.4-0.2-0.7-0.3-1-0.2l-0.3,0.2l-0.6,1.1l-0.4-1.2c-0.1-0.1-0.1-0.1-0.3,0
		c-0.4,0.4-0.8,0.8-1.3,1.3c-0.4,0.4-0.1-0.6,1.1-2.7l-1.1,0.3c-0.5,0.1-0.6,0-0.4-0.2l0.4-0.4c0.7-0.7,1.2-1.2,1.5-1.6
		c0.2-0.3,0.5-0.4,1-0.4h1.4C217.8,139.7,218,139.7,218,139.6C217.6,139.7,217.7,139.6,218,139.6L218,139.6z"/>
	<path style="fill:none;stroke:#000000;stroke-miterlimit:10;" d="M226.4,137.8l1.7-0.1l0.1-0.8l1.4,0.2c0.8,0.1,1.5,0.6,2.3,1.5
		c0.2,0.2,0.1,0.4-0.3,0.2c-0.6-0.2-1.1-0.4-1.4-0.4c-0.4-0.1-0.4,0.1-0.1,0.6c0.4,0.6,0.5,1.1,0.5,1.2c-0.1,0.4-0.6,0.6-1.6,0.4
		c-0.4-0.6-1-1.3-1.6-2.1l-0.1,0.6c-0.1,0.4-0.2,0.8-0.4,0.9s-0.3,0.1-0.4-0.1c-0.1-0.5-0.2-0.8-0.3-0.8c-0.1-0.2-0.1-0.5-0.1-0.8
		C226.3,138.2,226.4,137.8,226.4,137.8z"/>
	<path style="fill:none;stroke:#000000;stroke-miterlimit:10;" d="M197,159c0.3,0,0.5,0,0.7,0l0.9-0.8l-1.3-0.4l2.8-0.6
		c0.6-0.1,1.3-0.4,2-0.6c1-0.4,1.6-0.6,1.8-0.8c0.1-0.1,0.4-0.3,0.8-0.4c0.4-0.1,0.6-0.3,0.8-0.4c0.1-0.1,0.6-0.4,1.5-0.8
		c0.4-0.1,0.9-0.3,1.3-0.5c0.9-0.2,1.6-0.4,2-0.6l0,0l1.8-0.7l1.8-1l3.3-0.6l-1.5-1.2l2.1-0.5l1.8,0.3l0.9-0.4h1.6
		c0.7,0,1.2,0.1,1.5,0.4c0.1,0.1,0.2,0.3,0.3,0.4l1.3,0.8l0.5,0.1c0.2,0.1,0.2,0.1,0.1,0.1c-0.2,0.1-0.4,0.4-0.5,0.6
		c-0.1,0.3,0.3,0.6,1.3,0.7c0.5,0.1,1,0.1,1.5,0.1c-0.6,0.1-1.4,0.2-2.3,0.2c-0.4,0-0.6,0.1-0.5,0.1c0.4,0.2,0.7,0.5,0.8,0.8
		c0.2,0.6-0.1,0.7-1,0.2l-0.4,0.8l-1.2,0.7c-0.1,0.1-0.1,0.4-0.1,1c0,0.4,0.1,0.9,0.2,1.6c0.1,0.5-0.1,0.7-0.4,0.6
		c-0.3-0.1-0.8-0.4-1.6-1c-0.6-0.4-0.9-0.4-1,0c0,0.2,0,0.5,0.1,0.8l-0.3,1.1c-0.2,0.8-0.5,1.4-0.8,1.8c-0.5,0.6-0.5,0.4,0-0.8
		c0.3-1,0.4-1.8,0.1-2.3c-0.1-0.3-0.2-0.5-0.4-0.5l-0.1,0.1c-0.1,0.1-0.1,0.2-0.3,0.2c-0.2,0.1-0.3-0.1-0.4-0.5
		c-0.1-0.4-0.1-0.8-0.1-1.4v-0.7L217,154l-0.4,1.4c-0.4,1.1-0.8,2.1-1.4,3s-0.8,1.2-0.8,0.9l0.2-0.7c0-0.8,0.1-1.4,0.3-1.6
		c0.1-0.1,0.1-0.4,0-0.8l-0.3-0.5l-1.7,0.7l-0.4,0.8c-0.3,0.6-0.5,0.5-0.6-0.1l-0.8-0.8l-0.9,2.6c-0.3,0.8-0.5,1.2-0.4,0.9
		c0.1-0.7,0.1-1.1-0.1-1.3c-0.2-0.1-0.4-0.4-0.4-0.8l-0.1-0.6l-0.5,0.4c-0.1,0.1-0.3,0.4-0.6,0.8c-0.2,0.4-0.5,0.8-0.8,1.1
		c-0.3,0.3-0.4,0.5-0.5,0.6c-0.1,0.2-0.4,0.7-0.9,1.3l0.6-3.1c-0.7,0.3-1.2,0.4-1.6,0.5c-0.2,0.1-0.6,0.5-1,1.3
		c-0.2,0.4-0.5,0.8-0.6,1.1l-0.3,1.1c-0.3,0.7-0.8,1.1-1.4,1.2c-0.5,0.1-0.7,0.1-0.6,0c0.4-0.2,0.7-0.4,0.8-0.6
		c0.1-0.3,0-0.8-0.4-1.5l-0.6-1l-0.8,0.4l-0.1,1.1c-0.1,0.8-0.4,1.3-0.6,1.7c0-0.8-0.1-1.6-0.2-2.3c-0.1-0.4-0.2-0.6-0.3-0.6h-0.1
		l-0.3,1.6l-1.7,2.5l0.2-0.6c0.1-0.2,0.1-0.6-0.1-1.1"/>
	<path style="fill:none;stroke:#000000;stroke-miterlimit:10;" d="M197.1,167.6l1.3-0.8l2.7-0.8l1.3,0.4c0.3,0.1,0.6,0.1,0.8-0.1
		c0.5-0.3,1-0.6,1.5-1c0.7-0.5,1.2-0.5,1.6-0.1c0.2,0.2,0.4,0.6,0.6,1c0.2-0.2,0.5-0.4,0.8-0.6c0.6-0.4,0.9-0.7,1.1-0.8
		c0.2-0.1,0.5-0.1,1-0.1c0.2,0,0.4,0,0.6,0l1.8,0.3l1.2-0.3l0.8,0.1l1.1,0.3l0.3,0.8l1.1,0.1l-1.7,0.7l1.1,0.9l0,0l1.2,0.5
		c0.8,0.4,1.3,0.8,1.5,1c0.1,0.3,0.1,0.4-0.1,0.4c-0.4-0.1-0.6-0.2-0.8-0.2l-3-0.8l-0.6,2.8c-0.2,1-0.5,1.3-0.9,0.8
		c-0.6-0.6-1-0.8-1.2-0.6l-0.5,0.4l-1.5,0.4l-1.6-2.2l-0.4,1.2l0,0l-1.8,2v-0.8l-0.4-0.6l-0.8,0.2l-0.7-2l-1.7,1l-1.8,3.3l-0.5,0.2
		l-1-0.3"/>
	<path style="fill:none;stroke:#000000;stroke-miterlimit:10;" d="M196.8,174.2"/>
	<path style="fill:none;stroke:#000000;stroke-miterlimit:10;" d="M198.7,176.6l1.3-0.3c-0.1,0-0.1,0.1-0.1,0.1
		c0.2,0,0.5,0.1,0.8,0.4c0.2,0.1,0.4,0.3,0.6,0.4l-0.6,0.6l-0.5,0.2c-0.2,0.1-0.4,0.3-0.5,0.5c-0.1,0.1-0.1,0.2-0.1,0.3l0.2,0.4
		c0.2,0.3,0.4,0.5,0.6,0.6c0.3,0.2,0.1,0.6-0.6,1l-1.6-0.6l-0.1-0.4"/>
	<path style="fill:none;stroke:#000000;stroke-miterlimit:10;" d="M218.2,178.8l1.1,0.6l0.7,1.8l-0.2,0.6l-1,0.1l-1.7-0.6v1.3
		c-0.6,0.1-1.1,0.1-1.8-0.1c-0.4-0.1-0.6-0.1-0.7,0.1c-0.2,0.6-0.4,0.9-0.4,1c-0.2,0.3-0.3,0.4-0.2,0.3c0.1-0.3,0.1-0.5,0-0.6
		l-0.6-1c-1.2,0.9-2.1,1.3-2.4,1.1c-0.2-0.1-0.4-0.4-0.5-0.6l-0.1-0.4l-1.4,0.2l0.9-1.5l-0.8,0.2c-0.6,0.4-1.2,0.5-1.6,0.5
		c-0.2,0-0.3,0-0.2,0c0.1-0.1,0.2-0.2,0.2-0.4c0-0.1,0.1-0.4,0.3-0.6c0.2-0.3,0.3-0.5,0.4-0.6c0.1-0.1,0.1-0.2,0-0.1
		c-0.2,0.1-0.4,0.2-0.6,0.3c-0.3,0.1-0.5,0.2-0.6,0.2c-0.2,0.1-0.4,0.1-0.7-0.1c-0.2-0.1-0.3-0.1-0.2-0.1c0.2,0,0.4-0.1,0.4-0.3
		c0.1-0.2,0.2-0.5,0.4-0.9l0.4-0.6l-0.7,0.1c-0.4,0.4-1.3,0.8-2.5,1.3c-0.8,0.3-0.8,0.2-0.4-0.3l0.9-0.8c0.7-0.6,1.3-1.1,1.7-1.7
		c0.3-0.4,0.8-0.6,1.4-0.8c0.4-0.1,0.9-0.2,1.8-0.4l1.2,1.1c0.2,0.2,0.4,0.3,0.4,0.3c0.2-0.1,0.5,0,0.9,0.1c0.6,0.2,0.8,0.4,0.8,0.4
		s-0.1,0.1-0.1,0.1l0.3,0.8l1.1-0.1c0.2-0.1,0.5-0.1,0.8,0c0.6,0.1,1.1,0.1,1.5,0C217.3,178.7,218,178.7,218.2,178.8L218.2,178.8z"
		/>
	<path style="fill:none;stroke:#000000;stroke-miterlimit:10;" d="M229.4,170.8c0.1,0.1,0.3,0.2,0.4,0.4l1.5,0.5l2.8,1.8l-0.8,0.3
		c-0.3,0.1-0.4,0.1-0.4,0.1s-0.1,0-0.3,0c-0.3,0.1-0.4,0.2-0.5,0.4c-0.1,0.1-0.2,0.3-0.3,0.3c-0.1,0.1-0.1,0.4,0,0.9
		c0.1,0.6,0.1,0.9,0,0.9c-0.2,0.1-0.4,0.1-0.4,0.4c-0.1,0.1-0.1,0.1-0.1,0.2l-1.7-1.1l-0.1,4c-0.5,0-0.8-0.3-1.1-0.8
		c-0.1-0.4-0.4-0.8-0.7-1.3l-0.4-0.6l-0.7,3.3l-1.2-2.8l0.1,0.6c-0.3,1.2-0.6,1.8-0.9,1.9c-0.2,0.1-0.4,0-0.6-0.1l-0.2-0.2l0.1-1.8
		l-1.3-0.4c-1.5,0.6-2.1,0.8-1.7,0.6c0.3-0.3,0.1-0.8-0.4-1.8c-1.3,0.7-1.9,0.8-2,0.6c-0.1-0.1,0.1-0.4,0.4-0.8l0.5-0.4l-2.4,0.6
		c-1.1,0.2-1.6,0.2-1.6,0c0-0.1,0.2-0.4,0.6-0.8c0.2-0.1,0.7-0.4,1.5-0.7c0.4-0.1,0.8-0.3,1.1-0.4l5.1-1.9c0.3,0,1.1-0.3,2.5-0.8
		c1.4-0.5,2.3-0.8,2.7-1.1C228.9,170.6,229.1,170.6,229.4,170.8L229.4,170.8z"/>
	<path style="fill:none;stroke:#000000;stroke-miterlimit:10;" d="M223.6,155.1l0.4,0.8c0-0.1,0-0.3,0-0.4l0.1-0.3l0.8-0.8l1.1-0.3
		l1.2,0.1c0.1,0,0.3-0.2,0.6-0.7c0.4-0.5,0.7-0.7,1.1-0.6l0.9,0.2l1.1-0.4c0.2-0.1,0.3-0.2,0.2-0.6l-0.1-0.5l0.9-0.1
		c0.1,0,0.3-0.1,0.7-0.2c0.4-0.1,0.7-0.2,0.8-0.1c0.4,0.1,0.6,0.3,0.7,0.6c0.1,0.3,0.4,0.6,0.8,0.8c0.8,0.4,1.7,0.6,2.8,0.8
		c-0.1-0.1-0.2-0.3-0.2-0.4c0-0.1,0.4,0.1,1.1,0.6c1.1,0.8,1.8,1.3,2.1,1.5c0.4,0.3,1.1,0.5,1.8,0.7l2,0.8v0.1
		c0.2,0.2,0.8,0.6,1.9,1.1c4,2.1,5.9,3.1,5.8,3l-1.6-0.4c-1.4-0.4-2.3-0.8-2.6-0.9l-1.2-0.6l0.6,0.5c0.4,0.4,0.8,0.7,1.2,1l0.8,0.6
		c-0.9-0.3-1.5-0.5-1.8-0.6l-2.1-1c-0.1,0,0.2,0.2,0.8,0.6c0.6,0.6,1.1,1.1,1.3,1.6c0.2,0.5,0.1,0.8-0.1,0.8l-0.5-0.1l-2.1-1.8
		l2.1,2.7c-1-0.2-1.6-0.4-1.9-0.6l-1.1-1.1l-0.4-0.3l0.7,2.1l0.1,0.9l-2.3-2.7c0.2,0.7,0.1,0.9-0.2,0.7c-0.1-0.1-0.4-0.5-0.8-1.1
		c-0.4-0.6-0.6-0.9-0.6-0.9c-0.2-0.1-0.3-0.1-0.4-0.1c-0.1,0-0.2,0.1-0.3,0.4l-0.2,0.7l-0.7-0.4l-0.5-0.7c-0.5-1.1-0.9-1.8-1.3-2.1
		c-0.2-0.2-0.5-0.4-0.7-0.6l-3.6-1.8l-0.3,0.1c-0.1,0.1-0.1,0.3,0.1,0.6c0.4,0.4,0.8,0.8,1.3,1.3l1.3,1.4c2,1.8,2.8,2.7,2.4,2.5
		c-0.1,0-0.7-0.3-1.9-0.8c-0.3-0.3-0.6-0.4-0.7-0.6c-0.3-0.2-0.5-0.3-0.6-0.1c-0.1,0.1,0,0.4,0.3,0.8c0.1,0.1-0.1,0-0.6-0.3
		c-1.3-1-2.1-1.6-2.5-1.8l-1.6-1.4l-1.1-0.6l-1.5-0.4l0.4,1c1.4,0.5,1.6,0.7,0.8,0.6l-1.3-0.1c1.2,1,1.6,1.6,1.4,1.6
		c-0.2,0-0.8-0.1-1.7-0.6c-0.1-0.1-0.1,0-0.1,0.1c0,0.2-0.1,0.4-0.4,0.4c-0.2,0.1-0.5,0.1-0.8-0.1c-0.3-0.2-0.5-0.4-0.6-0.4
		c-0.3-0.1-0.5-0.4-0.7-0.6l-0.2-0.4c-0.2-1.2-0.4-1.8-0.5-2l-1,2.8c-0.1,0.4-0.2,0.6-0.1,0.8c0,0.1,0.1,0.1,0.1,0l-0.6,0.4
		c-0.4,0.3-0.5,0.1-0.4-0.4l-0.6,0.3l-1-0.6c-0.2-0.3-0.6-0.4-1.1-0.4c-0.2,0.1-0.3,0-0.3-0.1c0.1-0.3,0.2-0.6,0.1-0.8
		c0-0.4-0.1-0.6-0.3-0.6l-0.2,0.1l-1.3-0.5l1.1-0.4c-0.6-0.4-1.1-0.8-1.3-1.1c-0.1-0.1-0.1-0.3,0.1-0.3c0.1,0,0.2,0,0.4,0l0.7,0.1
		l0.2-0.7c1.3,0.4,2.1,0.6,2.3,0.6L223.6,155.1L223.6,155.1z"/>
	<path style="fill:none;stroke:#000000;stroke-miterlimit:10;" d="M246.2,167.3c-0.4,0.3-0.6,0.5-0.5,0.6c0.1,0.3-0.1,0.8-0.6,1.6
		l1.9,0.8l-0.8,0.2c-0.4,0.1-0.7,0.3-0.7,0.5c0,0.3,0.4,0.6,1.1,1.1c0.9,0.6,1.5,0.9,1.7,1l-2.5-0.2l0.6,0.4
		c0.4,0.2,0.6,0.6,0.8,0.8c0.3,0.4,0.3,0.6,0.1,0.8c-0.2,0.1-1.3-0.1-3.3-0.6l1.3,1.2c0.8,0.8,1.3,1.5,1.3,1.8
		c-0.1,0.3-0.2,0.4-0.6,0.2c-0.9-0.4-2.1-0.6-3.4-0.8c-1.6-0.3-2.1-0.2-1.2,0.1c0.4,0.1,1,0.4,1.7,0.6l-0.4,1.3l-1.8-1.4v0.7
		c0,0.5-0.1,0.8-0.2,0.9c-0.1,0.1-0.5,0.1-1.1-0.2c-0.6-0.4-1.1-0.6-1.3-0.6s-0.2,0.1-0.1,0.6c0.1,0.2,0.2,0.5,0.3,0.8l-2.1-0.9
		l-1.8,0.6c-0.8,0.2-1.2,0.3-1.3,0.1l0.1-0.3l0.5-0.2c0.4-0.2,0.9-0.8,1.8-1.8l0.8-1.3c0.6-0.8,1.2-1.6,1.9-2
		c0.4-0.3,0.9-0.6,1.4-1.1l0.6-0.6c0.3-0.3,0.6-0.8,1-1.4c0.4-0.7,0.5-1.1,0.5-1.4s0.1-0.4,0.4-0.6l0.4-0.1l0.9,0.1
		c0.3,0,0.5,0,0.6-0.1c0.2-0.2,0.6-0.4,1.1-0.6C246.2,167.2,246.4,167.2,246.2,167.3L246.2,167.3z"/>
</g>
<path style="fill:none;stroke:#000000;stroke-miterlimit:10;" d="M70.3,138.7l-0.5-0.4l0.4,0.6c0.2,0.4,0.2,0.7,0,0.8
	c-0.1,0.2-0.5,0.1-1.1-0.1l0.6,1.8"/>
<path style="fill:none;stroke:#000000;stroke-miterlimit:10;" d="M55.4,173.7c-0.9-0.8-1.2-0.9-0.8-0.1c0.1,0.4,0.5,1.1,0.9,2.1
	c0.2,0.6-0.1,1.1-1,1.8l-0.6-0.7l0.4,1.5c-0.5,1-1,1.5-1.5,1.5c-0.3,0-0.5-0.1-0.6-0.4c-0.1-0.4-0.1-0.6-0.2-0.8l-0.6-1.8
	c-0.1-0.1-0.1-0.1-0.2,0c-0.3,0.4-0.7,0.8-1.1,1.2c-0.4,0.4-0.8,0.7-1.2,1.1c-0.1,0.1-0.2,0-0.3-0.2l-0.6-1.9
	c-0.1-0.3-0.5-0.6-1.1-1.1l-4.3,1.8l1,1.5l-1.6,1.2l-1.6-1.2l-0.1,4.3l-0.4-1.3l-1.9-0.8l0.1,1l-0.2,1.4l-1-1.3
	c-0.4-0.8-0.8-1.4-1.1-1.8l-0.8,3.5l-0.4-1c-0.1-0.4-0.3-0.7-0.5-0.8l-0.2-0.1l-0.6-0.8l0.1,1.8c0.1,0.8,0,1.2-0.2,0.8
	c-0.2-0.4-0.4-0.8-0.6-1.6c-0.1-0.6-0.3-0.8-0.4-0.8l-0.2,0.1l-0.3,0.6c-0.3,0.5-0.6,1.1-1.1,1.6c-0.5,0.5-0.8,0-0.8-1.5l0.1-2.3
	l-1.7,1.8l-0.4-0.8l-0.6-0.7h-0.1c-0.4,0.6-0.9,0.9-1.4,1.1c-0.4,0.1-0.4-0.1,0-0.9c-0.8,0.1-1.3,0.1-1.6,0
	c-0.3,0.1-0.6,0.2-0.8,0.2l-2.1,1.3c-1.2,0.8-1.9,1.1-2,0.9c-0.4-0.6-0.9-1.1-1.5-1.3c-1.1-0.4-1.6-0.4-1.6,0c0,0.1,0.1,0.4,0.4,0.6
	l-4.2,0.6c-1.8,0.3-2.5,0-2.3-0.8l0.9-1.3L8.3,181c-1,0.2-1.8,0.3-2.4,0.3c-0.8-0.1-1.6-0.1-2.3-0.1c-0.9,0-1.1-0.1-0.6-0.2
	c0.3-0.1,0.6-0.1,1.1-0.2l4.2-4.7c0.1-0.3,0.1-1.1,0-2.3c0-0.6,0.2-1.3,0.6-2.2c-0.7,0.2-1.1,0.2-1.3-0.1c-0.4-0.6-0.6-0.6-1-0.4
	l0.9-1.4L3.8,171l-1.6,0.4c3.1-2.1,4.7-3.3,4.9-4c0.1-0.4,0.4-0.8,1-1.1l0.8-0.4c0.2-0.2,0.5-0.4,0.8-0.7c0.8-0.5,1.6-0.8,2.5-1
	c1.2-0.3,2-0.4,2.3-0.6c0.6-0.1,1.1-0.4,1.6-0.6l1.4-0.3l2.5-4.1c-0.9,1.1-1.6,1.6-2,1.6c-0.2,0-0.2-0.3,0-0.8
	c0.4-0.8,0.5-1.3,0.6-1.6c0.1-0.5,0-0.7-0.2-0.6c-0.2,0.1-0.6,0.5-1.3,1.3c-0.6,0.6-0.8,0.8-0.9,0.7c0-0.1,0-0.4,0.1-0.8
	c0.1-0.2-0.1-0.4-0.6-0.3l-0.8,0.1l-1.8,2.6l-0.8,0.4l-0.7-1.6c-0.7,2.1-1.2,3.3-1.5,3.6c-0.2,0.2-0.4,0.2-0.6,0
	c-0.1-0.2-0.2-0.6-0.2-1c0-0.4,0-0.8-0.1-1.1l-0.2-0.5l-0.6,0.8c-0.5,0.7-1,1.5-1.6,2.3s-1,1.1-1.2,1c-0.1-0.3-0.2-0.6-0.3-0.7
	c-0.1-0.2,0-0.5,0.3-1l1.3-1.7l-2.3,0.6l1.8-2.6c-1.8,0.4-2.5,0.3-2.1-0.3c0.3-0.4,1.2-0.9,2.7-1.7c1.2-0.6,2.2-1.1,2.9-1.4
	c0.3-0.1,1-0.5,2-1.1c0.9-0.6,1.5-0.9,1.6-0.9l2.3-1c1.4-0.6,2.5-1.1,3-1.1l4.4-1.8l0.1-1.5l-1.8,0.8l-3.5-1.3l1.5-0.6
	c0.8-0.3,1.3-0.5,1.3-0.6c0.1-0.1,0.1-0.5,0.1-1.1c-0.1-0.4-0.1-0.6-0.1-0.7c-0.1,0-0.4-0.3-0.6-0.8l2.7-1.1
	c1.3-0.6,2.5-1.3,3.6-1.8c0.4-0.2,0.6-0.4,0.6-0.4c0-0.1-0.2-0.1-0.6-0.1c-1.6,0-3.1-0.2-4.6-0.6c-1.1-0.2-1.6-0.4-1.6-0.5
	s0.4-0.2,1-0.4c2.3-0.4,3.6-0.8,4.1-1.2c0.6-0.5,0.8-0.7,0.6-0.6c-0.5,0.1-0.8,0.1-0.8-0.1c-0.1-0.3,0.3-0.6,1.1-0.8
	c0.4-0.1,0.8-0.2,1.3-0.2l-0.4-1l-2.8-0.8l2.3-1.3c2.1-1.5,3.5-2.9,4.2-4.1c0.2-0.3,0.3-0.6,0.4-1c-1,0.1-1.9,0-2.9,0
	c-0.8-0.1-1.1-0.1-0.8-0.1c0.9-0.1,1.6-0.4,2.1-0.6l1.3-0.7l-0.5-0.7l-4.4,0.4l0.8-2.3l2.1-1.3l-4-0.3l1.3-2.1l3.8-3.5l-3.3-0.7
	c-0.4-0.1-0.5-0.1-0.4-0.1c0.3-0.1,0.4-0.1,0.3-0.3c-0.1-0.2-0.4-0.2-0.9,0.1l-0.8,0.5l0.8-1.6l-2.2,0.1l1.9-2.3
	c1.4-1.1,2.2-1.8,2.4-2.3c0.8-0.6,1.8-1.1,2.7-1.6l-0.5-1.1l0.8-0.8h-0.1c-0.1-0.2-0.6-0.1-1.5,0.1l-1.2,0.4l1.3-1.1l-1-0.4
	l-1.1-0.6l3.7-1.3c0-0.4,1-1.4,3-2.9c0.8-0.6,1.2-1.1,1-1.3l-0.5-0.2l-1-1.3c-0.8,0.1-1.3,0.2-1.4,0.1v-0.6c0-0.2,0.6-0.7,1.6-1.4
	l1.6-1l-0.5,0.1c-0.4,0.1-1.6,0-3.6-0.1c2.8-1.3,4.7-2.2,5.9-2.8c1.2-0.6,2.1-1,2.6-1.3c0.9-0.5,1.6-1,1.8-1.4l4.8-1.1l2.4,2.5
	c0.7,0.8,1.6,1.6,2.7,2.6c1.1,1,1.5,1.5,1.1,1.4l-0.8-0.4l-1.9,0.7l-2.3-0.2l1,3l0.8,3.5c0.1,0.6,0.2,0.9,0.1,0.9
	c0,0.1-0.1,0-0.4-0.1c-0.9-0.8-2-1.2-3-1.5c-0.8-0.2-1.3-0.3-1.4-0.3c-0.1,0,0,0.1,0.2,0.2c1,0.6,1.6,1.2,1.8,1.8
	c0.2,0.4,0.2,0.8,0.1,1.3c0.4,0.1,0.9,0.3,1.3,0.4l1.9,0.3l0.6,0.2c0.4,0.2,0.8,0.4,1.1,0.5c0.4,0.2,1.1,0.6,2.1,0.9
	c-1.3,0.3-2.3,0.4-2.8,0.4c-0.3,0-0.4,0.1-0.1,0.5c0.1,0.1,0.3,0.3,0.4,0.5l-3.3,0.1v0.5c0,0.2-0.5,0.1-1.5-0.4l0.1,0.4l-2,0.7
	l0.6,1.3c0.7-0.1,1.1-0.1,1.4,0c0.1,0.1,1.2-0.1,3.2-0.6c2-0.4,3.1-0.8,3.5-0.9c0.3-0.1,0.5-0.2,0.8-0.2c0.5-0.1,0.8-0.1,0.8-0.1
	c0.4-0.1,0.4,0.3,0,1.1c-0.6,0.4-1.1,0.6-1.6,0.8c-0.3,0.1-0.1,0.3,0.6,0.5c0.4,0.1,0.8,0.1,1.2,0.2l-3.4,0.9
	c-0.8,0.2-1.1,0.4-0.6,0.8c0.2,0.2,0.5,0.4,0.8,0.5l-1.3,0.1l2.8,2.1c1.3,1,1.6,1.7,0.8,2.1c-0.4,0.2-0.8,0.3-1.5,0.3l-2.1,1.6
	l0.8,0.2c1.7,0.5,3.5,1.2,5.5,2.2l-3,1c-1.1-0.2-2-0.3-2.5-0.1c0.4,0.3,0.6,0.8,0.4,1.6l1.6,0.1l1.7,1.4l1-0.2l1,0.3"/>
<g>
	<path style="fill:none;stroke:#000000;stroke-miterlimit:10;" d="M40.9,82c0.6,0.8,1.1,1.3,1.3,1.5c0.7,0.6,1.1,1.5,1.1,2.5
		l0.8,2.4l0.3-0.8l0.5,2l0.2,0.6c0.2,0.5,0.4,0.8,0.5,1.1c0.3,0.4,0.5,0.9,0.6,1.6l0.8,1.9l-1.7-0.4c-0.1-0.4-0.5-0.9-1.1-1.5
		c-0.3-0.4-0.5-0.3-0.6,0.2c-0.1,0.8-0.1,1.2-0.1,1.3c-0.2,0.4-1,1.2-2.3,2.3c-0.1-0.8-0.1-1.4-0.1-1.9c0.1-0.3-0.1-0.4-0.4-0.4
		l-3,1.4c-0.6,0.4-1.1,0.6-1.3,0.6c-0.3,0.1-1.1,0.2-2.3,0.3c-0.9,0.1-1.3,0.1-1,0c0.8-0.1,1.3-0.3,1.4-0.5c0.6-0.4,1.1-0.8,1.5-1.1
		c0.8-0.6,1.2-1,1.1-1.2c-0.1-0.2-0.2-0.3-0.5-0.1l-0.4,0.2l-2.2,0.6c-0.9,0.2-1.3,0.1-1.1-0.1l0.4-0.4c1.6-0.4,2.6-0.8,3.3-1.2
		c0.4-0.2,0.8-0.6,1.3-1.2c0.5-0.7,0.8-1.2,1.1-1.3c0.1-0.6,0.3-1.1,0.4-1.8c0.3-1.2,0.6-1.8,0.8-2s0.5-0.4,0.6-0.8
		c0.1-0.2,0.1-0.6,0.2-1.1c0.1-0.3-0.1-0.8-0.4-1.7c-0.3-0.9-0.4-1.4-0.4-1.6C40.4,81.4,40.6,81.6,40.9,82L40.9,82z"/>
	<path style="fill:none;stroke:#000000;stroke-miterlimit:10;" d="M26.8,104.1c0.7-0.1,1.2-0.3,1.6-0.5c1.1-0.4,2.2-0.9,3.2-1.5
		l4.5-1.3c0.3-0.1,0.4-0.1,0.5-0.1h-0.1h0.1c0.3-0.1,0.6,0.1,0.7,0.6l0.7,0.6c0.5,0.4,1,0.6,1.5,0.8l0.1,1.9l-1,1.8l-0.5,0.1
		c-0.2,0.1-0.4-0.1-0.5-0.5l-0.1-0.6l-0.7-0.9c-0.3-0.4-0.5-0.5-0.7-0.3c-0.1,0.1-0.1,0.3-0.1,0.4c-0.2,0.8-0.8,1.3-1.6,1.5
		c-0.6,0.2-0.8,0.1-0.8-0.3l0.1-0.6l-1.3,3.2l-0.6-2.1l-1.8,1.1l-2,0.6l0.8-1.9l-3,0.8h-1.8l3.8-1.5c-0.8-0.2-1.8-0.4-3-0.8
		c-0.8-0.2-0.8-0.3-0.1-0.3c0.3,0,0.7,0.1,1.2,0.1L26.8,104.1L26.8,104.1z"/>
	<path style="fill:none;stroke:#000000;stroke-miterlimit:10;" d="M45.8,107.7c1.1,1.1,1.3,1.5,0.6,1.1l-3.8-2.5l0.7,0.9
		c0.5,0.7,1,1.1,1.3,1.3c0.6,0.2,0.5,0.5-0.1,0.7c-0.5-0.4-1.1-0.5-1.7-0.4l-1.4-0.4l-0.4,0.8c-0.1,0-0.3-0.4-0.6-1.3
		c-0.1-0.1,0.1-0.6,0.4-1.5l0.5-1.3l1.4-0.6l0.7,0.6C43.9,105.8,44.8,106.6,45.8,107.7z"/>
	<path style="fill:none;stroke:#000000;stroke-miterlimit:10;" d="M29.1,112.7c-0.1,0.4-0.4,0.9-0.8,1.3c-0.6,0.6-0.7,0.7-0.6,0.5
		l-0.6,0.7c-0.5,0.6-1.1,1.1-1.9,1.6c-0.7,0.5-1,0.4-0.7-0.5l0.6-1.4c-0.8,0.8-2.1,1.5-3.7,2.2c-1.1,0.4-1,0.1,0.1-1.1l2.1-1.9
		c-1.8,0.4-2.5,0.4-2-0.1c0.3-0.3,0.4-0.6,0.4-0.8l-0.2-0.6l-1-0.8c-0.3-0.3-0.4-0.4-0.3-0.4c0.4,0.2,0.6,0.3,0.8,0.2
		c0.2-0.1,0.7,0,1.6,0.1c0.4,0.1,0.8,0.1,1.2,0.2l1.3-0.7c0.4-0.3,0.8-0.5,1.1-0.6c0.5-0.2,0.8-0.3,0.8-0.4l2.8-1.5l0.8,0.8l0.6,0.1
		c0.4,0.1,0.6,0.4,0.8,0.8l-0.4,1.1l-1.5,1.9c-0.4,0.4-0.5,0.6-0.5,0.5c0.1-0.2,0-0.3-0.3-0.1c-0.3,0.1-0.5,0-0.6-0.4
		C29.1,113.3,29.1,113,29.1,112.7z"/>
	<path style="fill:none;stroke:#000000;stroke-miterlimit:10;" d="M42.9,112.8c0-0.3,0.1-0.6,0.3-0.8c0.4-0.6,1.1-0.8,2.2-0.8h2.5
		c0.5,0,1,0,1.3-0.1c0.6-0.1,0.1,0.1-1.2,0.8l1.3,0.8c-1.1,0.1-2.1,0.3-2.7,0.4c-0.4,0.1-0.4,0.1-0.3,0.3c0.4,0.4,0.8,1,0.9,1.6
		c0.3,0.8,0.1,0.9-0.6,0.4l-1.2-1.1v0.5c0,0.4,0,0.8-0.1,1.3c-0.1,0.7-0.6,0.1-1.5-1.8c-0.1,0.5-0.3,0.8-0.6,0.8
		C42.9,115.1,42.8,114.4,42.9,112.8z"/>
	<path style="fill:none;stroke:#000000;stroke-miterlimit:10;" d="M39.1,112l1.1,0.8l3.7,4.9L43,118c0.8,0.4,1.6,0.6,2.3,0.8
		c2,0.5,2.5,0.6,1.6,0.4l3.3-0.1c0.7-0.1,1.1,0,1.3,0.1l1.1,1.3h0.8c-0.6,0-1.3,0.1-1.8,0.2c-0.4,0.1-0.1,0.3,0.6,0.6
		c0.9,0.4,1.5,0.8,1.6,1c0.2,0.6-0.6,0.4-2.2-0.6l0.4,1.1c0.3,0.8,0.5,1.3,0.5,1.7c0.1,0.4-0.4,0.2-1.2-0.6
		c-0.9-0.8-1.4-1.3-1.6-1.5c-0.1-0.1-0.2,0-0.2,0.3c0,0.4-0.3,0.5-0.7,0.4l-0.4,1.5c-0.8-1.2-1.3-1.8-1.7-1.9
		c-0.3,0-0.4,0.1-0.6,0.2c-0.1,0.1-0.1,0.2-0.1,0.3l-0.6-0.8l-1.4,1.6l-0.1-2.4l-2.3-3.1c-0.4,0.4-0.2,0.9,0.5,1.6
		c-0.5-0.4-1.1-0.8-1.8-1.2c-0.4-0.3-0.5-0.1-0.2,0.4c0.1,0.3,0.3,0.6,0.6,0.9l-0.8,0.1c-0.2-0.6-0.5-1.2-0.8-1.7
		c-0.2-0.3-0.4-0.1-0.6,0.8c-0.1,0.4-0.1,0.8-0.2,1.3L38,123l-1-0.8c0,0.1-0.1,0.2-0.2,0.3c-0.3,0.1-0.7,0-1.2-0.3
		c-0.4-0.3-0.6-0.3-0.7-0.1c0,0.6-0.3,1.1-0.8,1.6c-0.6,0.6-0.8,0.6-0.6,0c0.3-1.1,0.4-1.6,0.4-1.8c-0.1-0.4-0.3-0.4-0.6-0.1
		c-0.6,0.5-1,0.8-1.1,0.8c-0.7,0.3-1.2,0.5-1.5,0.6c-0.6,0.2-0.8,0.2-0.8,0c0.1-0.2,0.4-0.5,0.9-1c0.6-0.6,1.1-0.9,1.2-1.2l0.9-1.1
		l-0.2-1.1l0.4-1.3l0.8-0.8l0.7-1.2l0.6-0.2c0.4-0.1,0.8-0.1,1.1-0.1L39.1,112L39.1,112z"/>
	<path style="fill:none;stroke:#000000;stroke-miterlimit:10;" d="M29.1,129.8c-0.3,0.1-0.3-0.1,0.1-0.7c0.4-0.4,0.7-0.8,1.1-1.1
		c0.3-0.2,0.1-0.2-0.6-0.1l-1,0.1l-0.7-0.6l1.5-0.3c1.1-0.4,1.8-0.7,2.3-1l3.8-0.8l-0.1,0.7l-0.1,0.6c-0.1,0.4-0.4,0.4-0.8,0.1
		l0.1,0.6c0.1,0.6,0.1,1.1,0.1,1.6c-0.1,0.8-0.5,0.6-1.2-0.8l-0.8,1.6c-0.3,0.6-0.4,0.7-0.4,0.4c0.1-0.8,0-1.3-0.2-1.8
		c-0.3-0.6-0.5-0.7-0.7-0.4c-0.1,0.2-0.2,0.4-0.2,0.7C30.2,129.4,29.5,129.8,29.1,129.8L29.1,129.8z"/>
	<path style="fill:none;stroke:#000000;stroke-miterlimit:10;" d="M44,128.6l2.2,1.1l2.1,0.4l0.2,1.2l-2.5-0.1l0.8,2.4l-1,0.2
		l-0.2,1.4l-2.1-2.9c-0.8-1.2-1.3-1.5-1.1-1.1c0.1,0.2,0.2,0.6,0.4,1.1l-1.1,0.8l-0.8,1.5l-1-2.9l-1.1,0.9l0.2,1.1
		c0.1,0.6-0.1,0.8-0.6,0.6s-0.8-0.4-1.2-0.3l-0.4,0.2l-0.8,1.4l-0.5-1.5c-0.1-0.1-0.1-0.1-0.3,0c-0.4,0.5-1,1-1.7,1.5
		c-0.6,0.4-0.1-0.7,1.4-3.3l-1.3,0.3c-0.6,0.1-0.7,0-0.4-0.3l0.6-0.5c0.8-0.8,1.5-1.4,1.8-1.9c0.3-0.4,0.6-0.5,1.2-0.5
		c0.3,0,0.8,0,1.6,0.1c0.4,0,0.6-0.1,0.6-0.1c-0.1,0,0,0,0.3-0.1l1-0.2c0.1-0.3,0.3-0.5,0.4-0.8c0.4-0.6,0.6-0.8,0.8-1
		c0.3-0.1,0.4,0,0.4,0.4c0.1,0.5,0.1,0.8,0.1,0.9C42.5,129,43.1,129,44,128.6L44,128.6z"/>
	<path style="fill:none;stroke:#000000;stroke-miterlimit:10;" d="M52,126.5l1.7,0.4c0.4,0.1,0.9,0.3,1.5,0.7
		c0.5,0.4,0.9,0.7,1.3,1.1c0.3,0.3,0.1,0.4-0.4,0.3c-0.8-0.2-1.3-0.4-1.7-0.6c-0.4-0.1-0.5,0.1-0.2,0.7c0.4,0.8,0.6,1.3,0.6,1.5
		c-0.1,0.5-0.8,0.6-2,0.4c-0.5-0.7-1.1-1.6-1.9-2.5l-0.1,0.8c-0.1,0.6-0.3,0.9-0.6,1.1c-0.2,0.2-0.4,0.1-0.4-0.2
		c-0.1-0.6-0.3-0.9-0.4-1c-0.1-0.3-0.1-0.6,0-1l0.2-0.6l2.1-0.1L52,126.5L52,126.5z"/>
	<path style="fill:none;stroke:#000000;stroke-miterlimit:10;" d="M15.2,151.5l-1.6-0.5l3.3-0.7c0.8-0.1,1.6-0.4,2.4-0.7
		c1.2-0.4,1.9-0.7,2.2-1c0.1-0.1,0.4-0.3,0.9-0.4s0.8-0.3,0.9-0.4c0.2-0.2,0.8-0.5,1.9-0.8c0.6-0.2,1.1-0.4,1.6-0.6
		c1.1-0.2,1.9-0.4,2.4-0.7c0.5-0.2,1.3-0.5,2.3-0.8l2.3-1.1l4-0.7l-1.8-1.5l2.5-0.6l2.3,0.4l1.1-0.4l2.1,0.1
		c0.8,0.1,1.4,0.2,1.8,0.5c0.2,0.1,0.3,0.3,0.3,0.4l1.6,1.1l0.6,0.2c0.2,0.1,0.3,0.1,0.1,0.2c-0.2,0.2-0.4,0.4-0.6,0.8
		c-0.3,0.6,0.8,1,3.4,1.1c-0.8,0.1-1.7,0.2-2.8,0.2c-0.6,0-0.7,0.1-0.6,0.1c0.5,0.3,0.8,0.6,0.9,1c0.1,0.5,0,0.6-0.4,0.6l-0.7-0.3
		l-0.6,1l-1.5,0.8c-0.2,0.1-0.3,0.5-0.2,1.2c0.1,0.4,0.1,1.1,0.2,2.1c0.1,0.6-0.1,0.9-0.6,0.8c-0.4-0.1-1-0.6-1.9-1.3
		c-0.7-0.6-1.1-0.6-1.2-0.1c0,0.3,0,0.6,0.1,1l-0.4,1.3c-0.3,1-0.6,1.7-1,2.1c-0.6,0.7-0.6,0.4,0.1-0.8c0.4-1.2,0.5-2.1,0.3-2.8
		c-0.1-0.4-0.3-0.6-0.4-0.6l-0.1,0.1c-0.1,0.1-0.2,0.2-0.4,0.3c-0.2,0.1-0.4-0.1-0.5-0.6c-0.1-0.5-0.1-1.1-0.1-1.7v-0.8l-1.6-1.1
		l-0.5,1.7c-0.4,1.3-1.1,2.5-1.8,3.6c-0.8,1.1-1.1,1.5-1.1,1.1l0.3-0.8c0-1.1,0.1-1.7,0.4-2c0.2-0.1,0.2-0.4,0-0.8l-0.4-0.6
		l-2.1,0.8l-0.6,1c-0.3,0.4-0.4,0.5-0.6,0.3l-0.1-0.4l-0.8-1l-1.3,3.2c-0.4,1.1-0.6,1.4-0.6,1.1c0.1-0.8,0.1-1.4-0.1-1.5
		c-0.3-0.1-0.4-0.5-0.6-1.1v-0.8l-0.6,0.5c-0.1,0.1-0.4,0.4-0.7,0.9c-0.3,0.5-0.6,1-1.1,1.3c-0.4,0.4-0.6,0.6-0.6,0.7
		c-0.1,0.3-0.5,0.8-1.1,1.6l0.8-3.8c-0.8,0.3-1.5,0.5-2,0.6c-0.3,0.1-0.7,0.6-1.3,1.5c-0.3,0.5-0.6,0.9-0.8,1.4l-0.4,1.3
		c-0.4,0.8-1,1.3-1.8,1.4c-0.6,0.1-0.8,0.1-0.7,0c0.6-0.3,0.8-0.5,0.9-0.8c0.1-0.3,0-0.9-0.4-1.8l-0.6-1.3l-0.8,0.6l-0.1,1.3
		c-0.2,0.9-0.5,1.6-0.8,2.1c0-1.1-0.1-1.9-0.2-2.7c-0.1-0.5-0.2-0.8-0.3-0.8l-0.1,0.1l-0.4,2l-2.2,3l0.3-0.8
		c0.1-0.3,0.1-0.8-0.1-1.3l-0.4-0.8L10,160l-0.6,1c-0.5,0.8-1.2,1.3-2,1.6S6,163,5.4,163.1l-0.7,0.1l3.5-3.3l-6.1,1.1l4.8-1.7
		c0.6-0.3-0.8-0.1-4.4,0.4l6.9-3L7.9,157c-2.1,0.4-3.6,0.6-4.6,0.8c-0.6,0.1-0.5-0.1,0.5-0.5c0.6-0.2,1.6-0.6,3-1.1
		c0.6-0.3,1.3-0.7,2.1-1.3c0.8-0.8,1.5-1.3,2-1.6c0.8-0.4,1.5-0.6,2.2-0.7c0.4,0,0.6,0,0.8,0.1L15.2,151.5L15.2,151.5z"/>
	<path style="fill:none;stroke:#000000;stroke-miterlimit:10;" d="M27.4,159.9c0.3-0.1,0.6-0.2,1.2-0.1c0.3,0,0.5,0,0.8,0.1l2.1,0.4
		l1.5-0.3l2.3,0.6l0.4,1l1.3,0.2l-2.1,0.8l1.3,1.1l1.4,0.7c1,0.5,1.6,0.9,1.8,1.3c0.2,0.4,0.1,0.5-0.2,0.4c-0.1,0-0.5-0.1-1.1-0.4
		l-3.5-1l-0.7,3.3c-0.3,1.2-0.6,1.6-1.1,1c-0.7-0.8-1.1-1-1.5-0.8l-0.6,0.5l-1.8,0.4l-1.8-2.7l-0.6,1.5l0,0l-2.3,2.3v-1.1l-0.4-0.8
		l-1,0.2l-0.8-2.4l-2.1,1.1l-2.3,3.9l-0.6,0.3l-1.3-0.4l-3.4,2.6c-0.1-1,0-1.9,0.4-2.7c0.2-0.5,0-0.4-0.6,0.2
		c-0.3,0.4-0.6,0.7-0.9,1.1l-0.8,0.7c-0.8,0.6-1.9,1-3.3,1.3c-1.3,0.4-1.6,0.1-0.7-0.6l1.8-1.3c0.3-0.2,0.6-0.5,1-0.8
		c0.8-0.6,1.3-0.8,1.6-1c0.5-0.2-0.1-0.6-1.7-1.2l-1.5,1.5l-3.8,1.5l-2.1-0.1c0.6-0.4,1.1-0.6,1.5-1c0.4-0.2,0.6-0.4,0.8-0.5
		c0.4-0.3,1.1-0.9,1.8-1.8c0.8-0.8,0.8-1.1,0.2-0.6c-0.3,0.3-0.6,0.6-1.1,1.1H2.2c0.1-0.1,0.1-0.3,0.3-0.4c0.3-0.3,0.6-0.6,1-0.7
		c0.6-0.2,1-0.6,1.1-0.9l4.1-1.6l-1.6-0.7l2.7-0.6l2.1-1.1c0.4-0.2,0.8-0.5,1.1-0.8l1.7-0.8L18,161l1.6,0.6c0.4,0.1,0.6,0,0.9-0.1
		c0.6-0.4,1.2-0.8,1.8-1.2c0.8-0.6,1.6-0.6,2-0.1c0.2,0.3,0.4,0.7,0.6,1.3c0.3-0.2,0.6-0.5,0.9-0.7C26.7,160.4,27.1,160,27.4,159.9
		L27.4,159.9z"/>
	<path style="fill:none;stroke:#000000;stroke-miterlimit:10;" d="M17.2,174.1c0.3,0.2,0.5,0.4,0.7,0.6l-0.7,0.6l-0.6,0.3
		c-0.3,0.1-0.4,0.3-0.6,0.6c-0.1,0.1-0.1,0.2-0.1,0.3l0.3,0.4c0.3,0.4,0.5,0.6,0.7,0.8c0.4,0.3,0.1,0.7-0.7,1.2l-1.9-0.8l-0.1-0.5
		c0.1,0.3-0.6,0.4-2.3,0.1l0.1,1.5c-0.2-0.2-0.4-0.4-0.6-0.6c-0.5-0.4-0.8-0.5-1-0.5c-0.2,0.1-0.4,0.3-0.4,0.8c0,0.2,0,0.4,0,0.7
		l-1-1.3L7.3,181l-0.7-1.3l-1.6,2.4l-0.8-1.6L3.6,181c-0.5,0.4-1.6,0.6-3.4,0.7c-0.4,0-0.4-0.1,0.1-0.4c0.8-0.4,1.1-0.6,1.2-0.7
		l1.8-2l2.1-1.1c1.2-0.5,2.1-1,2.9-1.6l1.8-0.7c1.5-0.6,3-1,4.7-1.3l1.4-0.3l0,0C16.5,173.6,16.8,173.7,17.2,174.1z"/>
	<path style="fill:none;stroke:#000000;stroke-miterlimit:10;" d="M36.3,177c1.2,0,2,0,2.3,0l1.3,0.8l0.8,2.3l-0.3,0.8l-1.3,0.1
		l-2.1-0.8v1.6c-0.7,0.1-1.4,0.1-2.3-0.2c-0.5-0.2-0.8-0.1-0.8,0.1c-0.3,0.7-0.4,1.1-0.5,1.2c-0.2,0.4-0.4,0.4-0.3,0.4
		c0.1-0.4,0.1-0.6,0-0.8c-0.1-0.2-0.3-0.4-0.4-0.8l-0.1-0.5c-1.6,1.1-2.5,1.6-3,1.3c-0.3-0.1-0.5-0.4-0.6-0.8l-0.1-0.5l-1.7,0.1
		l1.1-1.8l-1,0.2c-0.8,0.4-1.5,0.6-2,0.6c-0.2,0-0.3,0-0.3-0.1c0.2-0.1,0.3-0.3,0.3-0.5s0.1-0.4,0.4-0.7c0.3-0.3,0.4-0.5,0.4-0.7
		c0.1-0.2,0.1-0.2,0-0.2c-0.2,0.2-0.4,0.3-0.6,0.4c-0.4,0.1-0.6,0.2-0.7,0.3c-0.2,0.1-0.5,0-0.8-0.1c-0.3-0.1-0.4-0.2-0.3-0.2
		c0.3-0.1,0.4-0.1,0.4-0.4c0.1-0.2,0.3-0.6,0.6-1.1l0.4-0.7l-0.8,0.1c-0.6,0.5-1.6,1-3,1.5c-0.9,0.4-1.1,0.2-0.6-0.4l1.1-1
		c0.8-0.6,1.6-1.3,2.2-2c0.4-0.4,1-0.8,1.7-0.9c0.4-0.1,1.1-0.2,2.1-0.4l1.4,1.4c0.3,0.2,0.4,0.4,0.5,0.4c0.2-0.1,0.6,0,1.1,0.2
		c0.6,0.2,1,0.4,1,0.6c0,0.1-0.1,0.1-0.2,0.1l0.4,1h0.4c0.4,0,0.7-0.1,0.9-0.1c0.2-0.1,0.6-0.1,1.1,0C35,177,35.6,177,36.3,177
		L36.3,177z"/>
	<path style="fill:none;stroke:#000000;stroke-miterlimit:10;" d="M56.8,171.5c-0.3,0.1-0.5,0.2-0.5,0.1c0.1-0.1-0.1-0.1-0.4,0
		c-0.3,0.1-0.5,0.2-0.6,0.4c-0.1,0.2-0.2,0.3-0.4,0.4c-0.1,0.1-0.2,0.4-0.1,1.1c0.1,0.7,0.1,1.1-0.1,1.1c-0.2,0.1-0.4,0.1-0.6,0.4
		c-0.1,0.1-0.1,0.2-0.1,0.3l-2.1-1.3l-0.3,4.9c-0.6,0-1-0.4-1.3-1.1c-0.1-0.5-0.4-1-0.8-1.6l-0.5-0.8l-0.9,4l-1.3-3.5v0.7
		c-0.4,1.5-0.7,2.3-1.2,2.3c-0.3,0.1-0.5,0-0.8-0.1l-0.3-0.3l0.1-2.1l-1.6-0.6c-1.8,0.7-2.5,0.9-2.1,0.6s0.2-1-0.4-2.2
		c-1.5,0.8-2.3,1-2.4,0.7c-0.1-0.2,0.1-0.5,0.5-0.9l0.6-0.6l-3,0.6c-1.3,0.3-1.9,0.2-1.8-0.1c0-0.1,0.3-0.5,0.8-0.9
		c0.3-0.2,0.8-0.4,1.8-0.8c0.5-0.2,0.9-0.4,1.3-0.5l6.2-2.2c0.4,0,1.4-0.3,3.2-0.8c1.8-0.6,2.8-1,3.3-1.2l0,0
		c0.4-0.2,0.7-0.2,1.1,0.1c0.1,0.1,0.3,0.3,0.4,0.5l1.8,0.6"/>
	<path style="fill:none;stroke:#000000;stroke-miterlimit:10;" d="M54.8,156.1c-0.1,0-0.1,0.1-0.1,0.3c0.1,0.3,0.1,0.6,0,0.9
		c-0.1,0.4-0.5,0.6-1,0.6c-0.6,0-0.9,0-1.1,0c-0.4,0.1-0.8,0.1-1.3-0.1l-0.6-0.2c-0.3-0.4-0.6-0.7-1-1c-0.7-0.7-1.1-1.1-1.3-1.1
		l1.3,4.7c0.2,0.7,0.4,1.1,0.6,1.1c0.1,0.1,0.1,0,0.2-0.1l-0.4,1.1c-0.1,0.5-0.3,0.6-0.5,0.4l-0.3-0.5l-0.6,1l-1.7,0.1
		c-0.1-0.1-0.3-0.1-0.5-0.1c-0.4,0-0.8,0.2-1.1,0.6c-0.3,0.3-0.4,0.4-0.4,0.1c-0.1-0.5-0.2-0.9-0.6-1.3c-0.4-0.5-0.7-0.7-0.9-0.6
		l-0.2,0.3l-1.9,0.6l1.1-1.6c-1.2,0-2.1,0-2.5-0.1c-0.3-0.1-0.4-0.2-0.1-0.4l1.4-0.8l-0.4-1.1c1.9-0.6,3-1.1,3.4-1.6l2.9-2.5
		l1.1,0.7c-0.1-0.1-0.3-0.3-0.4-0.6l-0.1-0.4l0.4-2l1.1-1.5l1.6-1c0.1-0.1,0.1-0.6,0.1-1.6s0.3-1.6,0.8-1.9l1.4-0.6l1.1-1.6
		c0.3-0.3,0.2-0.6-0.1-1l-0.6-0.6c0.1-0.1,0.2-0.3,0.4-0.4c0.3-0.3,0.5-0.5,0.7-0.6c0.1-0.1,0.4-0.4,0.7-1s0.6-0.9,0.9-1.1"/>
	<path style="fill:none;stroke:#000000;stroke-miterlimit:10;" d="M55.4,151.5l-2.2,0.9l1.4,0.9L56,153c0.8-0.1,0.8,0,0.1,0.4
		l-1.8,1.1l1.7,0.2"/>
	<path style="fill:none;stroke:#000000;stroke-miterlimit:10;" d="M57.1,177.9"/>
</g>
<path style="fill:none;stroke:#000000;stroke-miterlimit:10;" d="M116.8,168.4c-1.1,0.4-2.3,0.4-3.2,0.4c0.1,0,0.5-0.2,1-0.7
	c0.2-0.2,0.5-0.5,0.8-0.8c1-1.1,1.6-1.7,2.1-1.8c-2.6,0.1-5.2-0.3-7.5-1c0.6-0.1,1.6-0.1,3.3,0.1c1.4,0,2.2-0.4,2.2-1.3
	c-2.2-1.1-5-1.1-8.4,0.1l0.6-1.5l-2.4,0.1c0.6-0.8,1.3-1.3,2-1.7c-0.6,0.2-1.1,0.1-1.6-0.1c-0.2-0.6,1-1,3.5-1.2
	c1.3-0.1,2.7-0.2,4.2-0.2c1.3,0.1,0.8-0.1-1.3-0.8c-1.5-0.4-2.4-0.8-2.6-0.9c-0.5,0.4-1.1,0.7-1.8,1.1c-0.1-0.6,0.1-1.1,0.6-1.6
	c-2,0.4-3.7,0.4-5.2,0.3c-0.1,0.4-0.1,0.8-0.2,1.1c0.6,0.6,1,1.2,1.3,1.9c0.4,0.8,0.3,1.3-0.1,1.6c0.4,0.3,1.1,0.8,2,1.6
	c0.8,0.8,1.5,1.3,2.1,1.6c0.6,0.4,1.7,0.8,3.3,1.2c1.5,0.4,2.5,0.8,3.3,1.3c-0.1,0.1-0.1,0.3-0.1,0.5c-0.4-0.1-0.8-0.1-1.1-0.1
	c-2-0.2-3.4-0.4-4.2-0.5c-1.6-0.2-3.4-0.8-5.5-1.6c-2.4-1-4.2-1.7-5.4-2.1c-0.4-0.1-1.2-0.6-2.7-1.4c-1.3-0.8-2.1-1.1-2.5-1.1
	c-0.6-0.1-1.1,0-1.4,0.3c-0.2,0.2-0.5,0.8-1,1.7c-0.1,0-0.1,0-0.1-0.1c-0.1-0.1-0.1-0.2-0.1-0.2c-0.7,1.7-1.8,3-3.2,4.2
	c-1.6,1.2-3,1.5-4.4,1c0-0.8,0.2-1.6,0.6-2.3c-0.4,0.4-0.8,0.8-1.3,1.3c-1.3,1-2.1,0.9-2.5-0.2c-0.4,0.8-0.9,1.5-1.8,1.9
	s-1.6,0.5-2.2,0.1c0.7-0.8,1.5-1.6,2.3-2.1c-1.3,0.8-2.9,1.3-4.6,1.6c-2.2,0.4-3.7,0.2-4.7-0.6c0.3-1.1,1-2.1,2.1-2.9
	c-1,0.6-1.8,0.7-2.5,0.3c0.2-0.6,0.5-1.3,0.8-1.9c0.4-0.8,0.8-1.3,1-1.8c-1.8,0.4-3,0.6-3.8,0.7c-1.3,0.1-2.5-0.1-3.4-0.6
	c0.8-0.7,1.2-1.5,1.3-2.5c-0.8,0.4-1.3,1.1-1.5,2.3c0.1,0.1,0.1,0.1,0.2,0.1c-0.3,0.3-0.7,0.6-1.1,0.8c-2.1,1.1-3.3,1.8-3.5,2.1
	c0.2,0.3,0.5,0.5,0.8,0.6c-1.3,0.3-2.3,0.6-3.1,1c-1.4,0.2-2.5,0.2-3.2,0.1c0.1-0.4,0.4-0.8,0.9-1.5c0.5-0.6,0.8-1.1,1-1.5
	c-0.1,0-0.3-0.1-0.4-0.2c-0.2-0.2-0.4-0.3-0.4-0.4c0.6-0.8,1.5-1.5,2.5-2.3c1.2-0.8,2.1-1.5,2.7-1.9c0.8,0.4,1.8,0.3,3-0.4
	c1.3-0.8,2.3-1.5,3-1.8c0.8-0.4,2.1-0.7,3.9-0.7c1.6-0.1,2.9-0.4,3.7-1.1c2.2-1.8,3.5-4.3,3.8-7.4c0.3-2.9-0.3-5.7-1.7-8.3
	c-1.3-2.3-2.3-3.5-2.9-3.4c-1.1,0.6-2.3,1.1-3.5,1.4c-1.1,0.2-2.1,0.1-3.3-0.4c0.2-0.3,0.3-0.7,0.2-1.2c0-0.7,0-1.1,0-1.2
	c-0.5-0.3-1.3-0.3-2.3-0.1c-1.1,0.2-1.8,0.1-2.2-0.1c0.7-0.5,1.3-1.2,1.7-2.1c-1.1,0.2-1.8,0.4-2.3,0.4c-1,0.1-1.8-0.1-2.3-0.4
	c0.8-0.6,1.3-0.9,1.5-1.1c0.5-0.4,0.8-0.9,1.1-1.5c-0.4-0.1-1.1-0.1-2.3-0.1c-1,0-1.7-0.1-2.1-0.4c0.1-0.1,1.1-0.6,2.8-1.6
	c1.1-0.6,2-1.3,2.5-2.1c-0.1-0.2-0.2-0.4-0.3-0.4c0.6-0.6,1-1.1,1.3-1.4c0.5-0.6,0.8-1.1,1.1-1.5c-1.6-0.1-2.8-0.4-3.5-0.6
	c1.1-1.6,1.6-2.3,1.5-2.4c-0.7,0.1-1.4,0.1-2.2,0.1c0.1-0.2,0.3-0.6,0.4-1.2c0.1-0.6,0.3-1.1,0.4-1.2c-0.2,0-0.6-0.1-1.1-0.4
	c-0.6-0.1-1-0.2-1.1-0.2c0.5-0.6,0.8-1,1-1.3c0.3-0.5,0.6-1,0.7-1.5c-0.2-0.1-0.4-0.2-0.6-0.4c0.1-0.1,0.2-0.4,0.2-0.8
	c0-0.6,0.1-0.8,0.1-1c-0.2,0.1-0.5,0-1-0.1c-0.4-0.1-0.8-0.1-1-0.1c0.6-1.6,1.8-3,3.5-4.1c2.3-1.5,3.7-2.5,4.1-3
	c0.4-0.4,0.8-1,1-1.6c0.3-0.8,0.3-1.5,0-2.1c-0.1-0.1-1-0.2-2.7-0.4c-1.2-0.1-1.6-0.8-1.1-2C62.1,97,62,97,61.9,96.9
	c-0.1-0.1-0.3-0.1-0.3-0.1c0.4-0.6,0.7-1.1,1-1.3c-0.3-0.1-0.7-0.5-1.4-1.2c-0.5-0.5-1.1-0.7-1.7-0.6c0.1-0.1,0.4-0.3,0.7-0.6
	c0.3-0.3,0.6-0.5,0.8-0.6c-0.3,0.1-0.6,0.1-0.9,0c-0.4-0.2-0.8-0.3-1-0.4l0.4-0.6c-0.5-0.1-0.8-0.2-1.1-0.4c5.4-3.8,7.1-6.5,4.9-8.1
	c-0.1-0.1-0.2-0.2-0.4-0.3c-0.2-0.1-0.4-0.1-0.4-0.1c0-0.1,0.1-0.2,0.2-0.4c0.1-0.2,0.2-0.4,0.2-0.4c-0.5-0.1-0.8-0.1-1.1-0.1
	c0.3-0.1,0.6-0.3,0.9-0.6c0.4-0.4,0.6-0.6,0.8-0.7c-0.6-0.1-0.9-0.2-1.1-0.2c1.7-0.5,3-0.9,3.7-1.3c1.3-0.6,2.4-1.5,3.3-2.5v0.1
	c0.5-0.3,1.1-0.7,1.6-1.3c0.6-0.8,1.1-1.3,1.4-1.6c1.4-1.2,2.6-1.8,3.7-1.8c0.8,0,2.1,0.5,3.8,1.4c6.7,2.5,10.1,4.7,10.2,6.4
	c0,0.6-0.3,1.1-0.9,1.5c-0.5,0.4-1,0.6-1.3,0.6c0.4,1.5-0.8,2.1-3.3,1.6c-3-0.4-4.5-0.6-4.7-0.4c2.3,2.3,4.5,3.7,6.6,4.5
	c0.6,0.3,1.6,0.6,3,1.1c1.2,0.5,2,1.3,2.3,2.3c-0.1,0-0.4,0.1-0.8,0.3c-0.4,0.2-0.6,0.3-0.7,0.3c0,0.1,0.1,0.4,0.3,0.8
	c-0.3,0.6-0.8,0.9-1.6,0.9c-1-0.1-1.6,0-1.8,0.2c0.8,1.6,1.2,3,1,4.4c-0.6,0.1-1.4-0.1-2.4-0.9c-0.1,0.4-0.3,0.8-0.4,0.9
	c1.8,1.2,4.1,2,7.1,2.3c4.2,0.4,6.6,0.7,7.3,0.8c0.1,0.8-0.1,1.4-0.5,1.8c-0.4,0.4-0.8,0.6-1.5,0.6l-0.1,1.8
	c0.4,0.4,0.7,0.8,0.9,1.4s0.2,1.1,0.1,1.7c-0.2-0.1-0.5-0.1-1-0.1s-0.8,0-1-0.1c0,0.4-0.2,1-0.6,1.8c-0.4-0.3-0.6-0.5-0.8-0.7
	c0.1,0.4,0,0.8,0,1.3c-0.1,0.6-0.1,1-0.1,1.1c-0.1-0.1-0.4-0.1-0.8-0.3c-0.4-0.1-0.6-0.3-0.8-0.6c0.1,0.3,0.1,0.6,0.1,1.1l-0.1,1.1
	c-0.3-0.2-0.6-0.4-0.8-0.8c-0.1,0.1-0.1,0.4-0.1,0.7c-0.1,0.3-0.1,0.5-0.1,0.6c0,0.1-0.1,0.1-0.1,0c-0.1-0.1-0.2-0.1-0.3,0
	c-0.1,0.1-0.2,0.2-0.2,0.5c-0.1,0.3-0.1,0.4-0.1,0.5h-0.6c1,0.6,2.1,1,3.5,1.2c0.8,0.1,2,0.3,3.6,0.4c0.7,0.1,1.6,0.4,2.8,0.8
	c1.3,0.6,2.2,0.8,2.7,1c0.1,0.1,0.8,0.1,1.8,0.3c0.7,0.1,1.3,0.3,1.6,0.6c0,0-0.3,0.1-0.8,0.4c-0.4,0.2-0.6,0.3-0.9,0.3
	c0.3,0.4,0.5,0.6,0.7,0.6c-0.7,0.7-1.4,1.1-2.1,1.1c0.3,0.6,0.4,1,0.4,1.2c-0.1,0.1-0.3,0.4-0.8,0.8c0.2,0.3,0.6,0.6,1.1,1.1
	l1.6-0.5c-0.3,0.1-0.5-0.3-0.6-1c-0.1-0.7,0-1.1,0.1-1.4c1.2,1.1,2.6,2.1,4.4,2.7c1.2,0.4,2.6,0.8,4.3,1.2c-1-0.3-1.3-0.8-1-1.5
	c0.8,0.3,1.7,0.3,2.5,0.1c-0.6-0.5-1-1-1.3-1.6c3.3,1.1,5.1,1.6,5.6,1.6c-2.5-1.1-3-2-1.7-2.9c2.1-0.8,3.5-1.5,4.2-1.8
	c-0.9-0.6-1.6-1-1.9-1c0.9,0,2.1-0.3,3.4-0.8c0.8-0.3,1.8-0.7,3.3-1.3c-1-0.3-1.6-0.4-2-0.5c-0.6-0.1-1.5-0.1-2.8,0.3
	c1.2-1.1,1.8-1.6,1.6-1.6c-0.2-0.2-0.6-0.2-1.2-0.1c-0.6,0.1-1,0-1.1-0.1l0.7-0.8c-0.6,0.1-1.6,0.1-2.9,0.1c-1.5,0.1-2.3,0-2.2-0.1
	c0.1-0.1,0.7-0.4,1.8-0.8c0.6-0.2,1.3-0.4,2-0.7c-0.6,0.1-1.2,0.1-1.9,0.1c-1.1-0.1-1.7-0.1-1.8-0.1l2.3-0.6c-0.4,0-0.8,0-1.6-0.1
	c-0.8-0.1-1.3-0.2-1.6-0.2c0.1-0.4,0.4-0.5,1.1-0.6c0.7,0,1.1-0.1,1.1-0.2c-0.2-0.3-0.4-0.8-0.6-1.6c-0.2-0.6-0.4-1.1-0.5-1.3
	c1.1,2.1,2.6,3.5,4.5,4.2c1.6,0.6,3.2,0.5,4.7-0.2c1.4-0.6,2.2-1.6,2.3-2.6c0.1-1.3-0.7-2.3-2.5-3c2.8,0.6,5.2-0.1,7.2-2.1
	c-0.6,0.2-1.7,0.4-3.3,0.6c-1.2,0.2-2.1,0.4-2.8,0.6c0.6-0.3,0.9-0.8,0.8-1.7l-2.3-0.4l1.7-1.1c-1.2-0.1-2.1-0.1-2.7,0
	c0.4-0.4,0.9-0.8,1.4-1.1l-1.3-0.2c-1-0.1-1.3-0.2-1.2-0.2c0.6,0.1,0.8,0.1,0.6,0c-0.2-0.1-0.5-0.4-0.8-0.8
	c-0.4-0.4-0.6-0.6-0.8-0.6c-0.2-0.1-0.3,0.3-0.4,0.9c0,0.3,0,0.6,0,1l-1.3-1l-0.1,4.5c0,0.4,0,0.3-0.1-0.2c-0.1-0.5-0.3-1.2-0.4-2
	c-0.1-0.6-0.1-1.2-0.1-1.7v-0.5l-0.8,4.5c-0.3,1.6-0.7,2.3-1.2,2.2l-0.6-0.7c-0.6,0.7-1.5,1.2-3,1.5c-0.3-0.1-1.3,0.2-2.8,0.8
	c-0.9,0.4-1.6,0.4-1.8,0.3c-0.2-0.3-0.4-0.6-0.7-0.8c-0.4-0.2,0-0.5,1.1-0.9c1.6-0.6,2.5-1.1,2.8-1.3c0.5-0.4,0.8-0.7,1.1-1
	c0.4-0.5,0.8-0.9,1.3-1.4c0.7-0.6,1.1-1.1,1.2-1.3l-0.1-0.1l-3.2,0.6l1.1-1.2l0.9-2.2l-1.7,0.9c-1.9,0.8-3.1,1.3-3.6,1.1
	c-0.3-0.1,0-0.5,0.8-1.3l1.4-1.1c0.4-0.7,1.1-1.6,1.8-2.5c0.4-0.6,0.7-1,0.8-1.2c0.1-0.4,0.1-0.8,0.3-1.3c0.2-0.6,0.4-1.1,0.6-1.1
	c0.5-0.4,0.8-0.6,0.8-0.6c0.4-0.4,0.7-0.8,0.8-1.1c0.1-0.3,0.3-0.8,0.5-1.4c0.6-1.8,0.8-2.8,0.8-3l1.1-1.8l0.1,0.6
	c0.1,0.6,0.2,1,0.3,1.3c0,0.3,0.2,0.7,0.6,1.3c0.2,0.3,0.6,0.8,1,1.4c0.2,0.4,0.4,0.8,0.5,1.3c0.1,0.3,0.1,0.7,0.1,1.3
	c0.1,0.8,0.4,1.7,0.8,2.7c0.2,0.8,0.6,1.7,1,2.8l2.5,3c1.1-0.4,2.3-0.3,3.5,0.1c0.6,0.2,1.6,0.6,2.8,1.1c1.1,0.4,2.2,0.6,3.1,0.6
	c-1.5-1.8-2.3-2.8-2.3-3.1c-0.4-1-0.3-2.1,0.6-3.5c-1,0.1-2.1,0.1-3.1,0c0.2-0.4,0.4-1,0.8-1.8c0.1-0.4,0.3-0.7,0.3-0.8
	c1.1-0.4,2.6-0.2,4.8,0.6c1.8,0.6,2.8,0.9,3.1,1c-0.2-0.1-0.6-0.7-1.3-1.7c-1-1.6-1.6-2.4-1.8-2.7c0.6,0.3,1.1,0.4,1.6,0.4
	c-0.1-0.5-0.4-1-0.6-1.5c0.5,0.7,1.2,0.9,2.1,0.6c0.4-0.2,1.1-0.5,2.1-1c-1.1-0.6-2.2-1.4-3.2-2.6c-1.1-1.3-2.1-2.3-3-2.9
	c0.4,0.2,1.9,0.7,4.5,1.5c2.7,0.8,4.5,1.3,5.4,1.4c-2.5-2.1-4.6-3.3-6.2-3.7l2.2-2.2c0.7-0.8,1.3-1.7,1.7-2.7
	c0.6-0.3,1.5-0.6,2.5-1.1c0.8-0.2,1.6,0.1,2.3,1.1c0-0.1,0.9,0.1,2.8,0.5s3.1,0.6,3.7,0.8c0.1,0.8,0.1,1.1,0.1,1.1
	c0.2-0.1,0.6,0.1,1.1,0.7c-0.2,0.4-0.6,0.7-1.2,0.8c0.2,0.1,0.5,0.4,0.9,0.6c0.2,0.1,0.4,0.4,0.7,0.6l-2.4-0.5
	c0.1,0.1,0.4,0.4,1.1,1c0.6,0.6,0.8,0.9,0.8,1.1c-0.8,0-1.8-0.2-2.8-0.6c0.7,1.2,1.7,1.9,3,2.1c1.4,0.3,2.1-0.5,2.1-2.3
	c1.7,0.9,2.5,1.9,2.5,2.8c0,0.9-0.8,1.5-2.4,1.7c0.1,0.4,0.3,1.3,0.6,2.6c0.3,1.3,0.5,2.1,0.7,2.7c-0.1,0.1,0.6-0.1,1.9-0.5
	c1.3-0.3,1.8-0.3,1.6,0c-0.5,0.7-0.7,1.1-0.6,1.3c0.1,0.1,0.2,0.1,0.4,0.1l-1.6,0.8c0.1,0.1,0.4,0.2,0.8,0.4c0.5,0.1,0.8,0.4,1,0.5
	c0.1,0.1-0.1,0.4-0.4,0.7c-0.6,0.6-1,0.8-1,0.8c-0.7,0.8-0.2,1.3,1.4,1.8c0.8,0.2,1.3,0.8,1.4,1.8c0.1,1.1,0.3,1.8,0.7,2.2
	c-0.3-0.3-0.6-0.4-0.8-0.5c-0.2-0.1-0.4-0.1-0.8,0c0.2,0.7,0.2,2.1,0,4.3c-0.1,0.8,0.3,1.3,1.1,1.8c0.6-0.1,1.2,0,1.8,0.2
	c0.4,0.1,1.1,0.4,2.1,0.8c0.8,0.4,1.6,0.5,2.3,0.5c-1.1-1.3-1.6-2.1-1.7-2.3c-0.3-0.7-0.2-1.6,0.4-2.5c-0.8,0.1-1.6,0.1-2.3,0
	c0.2-0.4,0.4-1,0.7-1.9c0.8-0.3,1.9-0.1,3.5,0.4c1.3,0.4,2.1,0.7,2.3,0.8c-0.2-0.1-0.5-0.5-1-1.3c-0.7-1.1-1.2-1.7-1.3-1.9
	c0.4,0.2,0.8,0.3,1.2,0.3c-0.1-0.4-0.2-0.7-0.5-1.1c0.4,0.5,0.8,0.6,1.5,0.4c0.4-0.1,0.8-0.4,1.5-0.8c-0.8-0.4-1.6-1-2.3-1.8
	c-0.8-1-1.6-1.7-2.3-2.1c0.3,0.2,1.4,0.6,3.3,1.1c2,0.6,3.3,0.9,3.9,1c-1.8-1.5-3.3-2.4-4.5-2.8c0.8-0.7,1.3-1.2,1.6-1.6
	c0.5-0.6,0.9-1.3,1.2-2c0.4-0.2,1.1-0.5,1.8-0.8c0.6-0.2,1.2,0.1,1.6,0.8c0,0,0.6,0.1,2,0.4c1.3,0.3,2.3,0.4,2.7,0.6
	c0.1,0.6,0.1,0.8,0,0.8c0.1-0.1,0.4,0,0.8,0.5c-0.1,0.4-0.4,0.6-0.8,0.6c0.2,0.1,0.4,0.3,0.6,0.4c0.2,0.1,0.4,0.3,0.5,0.4l-1.8-0.4
	c0.1,0.1,0.3,0.3,0.8,0.7c0.4,0.4,0.6,0.7,0.6,0.8c-0.7,0-1.3-0.1-2-0.4c0.5,0.8,1.2,1.3,2.2,1.6c1.1,0.2,1.6-0.4,1.6-1.7
	c1.2,0.7,1.8,1.3,1.8,2.1c0,0.6-0.6,1.1-1.7,1.3c0.4,2.1,0.7,3.3,0.8,3.9c0,0,0.4-0.1,1.4-0.4c0.9-0.2,1.3-0.2,1.2,0
	c-0.4,0.5-0.5,0.8-0.4,0.9c0.1,0.1,0.1,0.1,0.3,0.1l-1.1,0.5c0.1,0.1,0.2,0.1,0.6,0.3c0.4,0.1,0.6,0.2,0.7,0.4c0,0-0.3,0.4-1,1.1
	c-0.5,0.6-0.2,1,1,1.3c0.6,0.1,0.9,0.6,1,1.3c0.1,0.8,0.3,1.3,0.5,1.6c-0.4-0.3-0.7-0.4-1.1-0.3c0.1,0.5,0.1,1.6,0,3.1
	c-0.1,0.8,0.5,1.3,1.8,1.6c-0.4,0.3-0.5,0.5-0.4,0.7c0.1,0.1,0.3,0.2,0.6,0.4c-0.4,0.1-0.6,0.1-0.8,0c-0.4-0.1-0.6-0.2-0.8-0.3
	c0.4,1.1,0.8,1.6,1.3,1.7c0.4,0.1,0.8-0.1,1.6-0.4c0.6-0.4,1.1-0.5,1.4-0.4c0.4,0.2,0.8,0.8,0.9,2.1l-1,0.1l0.4,0.8
	c-1.3,0.1-1.9,0.8-1.8,1.8c0.1,1.2-0.5,2-2,2.3c1.5,1.3,2.5,2.1,2.9,2.3c1.3,0.6,2.3,0.9,2.6,1.1c-0.1-0.1-0.3,0.1-0.4,0.4
	c-0.1,0.4-0.4,0.7-0.6,0.8c-0.1,0,0.1,0.2,0.6,0.6c0.5,0.4,0.6,0.7,0.5,0.8c-0.2,0.1-0.5,0-0.8-0.1c-0.4-0.2-0.7-0.4-0.8-0.4
	l0.6,1.6c-0.2-0.1-0.4-0.1-0.8-0.4c-0.3-0.2-0.5-0.4-0.6-0.4c0,0.7-0.1,1.1-0.6,1.3c-0.1,0-0.4,0-0.8,0c0.2,0.6,1,0.9,2.3,1.1
	c1.3,0.2,2.2,0.1,2.7-0.4c-0.4,0.4-0.5,0.6-0.4,0.8c0.3,0.3,0.4,0.6,0.4,0.8l-1.7,2.1l-0.7-2.1c-0.4,0.4-0.7,1-0.8,1.6
	c-0.1-0.2-0.4-0.6-0.6-1c-0.2-0.5-0.4-0.8-0.5-1c-1.1,1.9-0.5,3.2,1.6,3.8c1.1,0.4,3,0.7,5.4,1c-0.5,0.4-1,0.6-1.5,0.8
	c-0.1,0.1-0.6,0.1-1.5,0.3l0.3,1.1c-1.5-0.1-2.3-0.1-2.3-0.2c0.1,0.1,0.2,0.4,0.6,0.7c0.4,0.4,0.6,0.6,0.6,0.8
	c-0.4,0-0.6,0.2-0.8,0.7c-0.1,0.2-0.2,0.4-0.3,0.7c-0.4-0.8-0.9-1.3-1.6-1.2c-0.3,0.6-0.3,1.3,0,2c-0.4-0.7-0.8-0.6-1.3,0.3
	c0,0.2,0.5,0.6,1.5,1.1c0.9,0.6,1.6,0.8,2.1,1c-2.1,0.6-3.3,0.8-3.5,0.7c0.3,0.2,0.6,0.4,0.9,0.6l-1.5-0.2c0.7,1.2,1.8,1.6,3.2,1.3
	c0,0,1.3-0.5,3.7-1.5c0.1,0-0.4,1.1-1.3,3.2c-0.9,2.2-0.8,3.2,0.4,3c0.3-2.2,0.9-2.9,1.8-2.2c0.3,0.2,0.6,0.6,0.7,0.9
	c0.1,0.4,0.1,0.6-0.1,0.6c0.6,0.2,1.2,0.4,1.8,0.7c0.1,0-0.5,0.3-1.5,0.8c0.8,1.3,1.3,2,1.1,2.1c-0.2,0.1-0.6,0.2-1,0.2
	c-0.6-0.1-0.9-0.1-1.1-0.1c-0.1,0.6-0.3,1.1-0.6,1.4c-0.2,0.2-0.3,1.3-0.3,3.2c0.6-0.3,1.1-0.5,1.8-0.5c-0.2,0.1-0.2,0.3,0,0.7
	c0.2,0.5,0.6,0.8,1.2,0.8c-0.1,0.1-0.4,0.2-0.8,0.3c-0.5,0.1-0.8,0.1-0.9,0.1c0,0,0.1,0.2,0.4,0.6c0.3,0.4,0.4,0.6,0.4,0.8
	c-0.4-0.1-0.8-0.1-1.1-0.1c-0.5-0.1-0.8,0-1.1,0.1c0,0.2,0.1,0.4,0.4,0.8c0.2,0.4,0.4,0.6,0.3,0.6c-0.6,0.6-2.1,1.6-4.5,3.2
	c-1.6,1.1-2.4,2.1-2.4,2.9c-0.6-0.1-1.1-0.4-1.5-0.8c-0.7,0.4-1,1.2-1,2.2c0,1.1-0.2,1.8-0.5,2.2l0.6,0.6h-2
	c0.3,0.4,0.6,0.9,1.1,1.7l-2-0.9c0.1,0.1,0.1,0.3,0.1,0.7c0,0.4-0.1,0.7-0.2,0.8l-1.1-1.7c0.1,0.8,0.1,1.6-0.1,2.4
	c0-0.1-0.3-0.6-0.8-1.4c-0.6-0.8-1-1.1-1.1-0.9c-0.1,0.8-0.1,1.6,0,2.2c-0.1-0.4-0.2-0.9-0.5-1.6c-0.3-0.7-0.4-1.3-0.5-1.6l-0.6,1.1
	c-0.4-0.7-0.7-1.1-1-1.3c-0.7-0.4-1.3-0.7-1.8-1c0,1.3-0.6,2.1-2,2.2c-0.1,0-0.2,0-0.4,0l0,0c-0.1,0-0.1,0-0.1,0
	c-0.4,0-0.6-0.1-0.9-0.1c-0.1,0-0.4-0.1-0.5-0.1c-0.7-0.1-1.2-0.1-1.5,0.2c0,0.2,0.1,0.6,0.4,1.1c0.3,0.4,0.5,0.7,0.4,0.8
	c-0.8,0.8-2.9,2.3-6.2,4.5c-2.3,1.5-3.4,2.8-3.4,4c-0.8-0.2-1.5-0.6-2.1-1.1c-0.9,0.6-1.4,1.6-1.4,3c0,1.6-0.2,2.5-0.6,3l0.8,0.8
	h-1.7c0.4,0.5,0.8,1.3,1.5,2.3l-2.7-1.3c0.1,0.1,0.1,0.4,0.1,0.9c-0.1,0.6-0.1,1-0.4,1.2l-1.5-2.3c0.1,1.1,0,2.3-0.1,3.3
	c0-0.2-0.4-0.8-1.2-2c-0.8-1.2-1.3-1.6-1.4-1.3c-0.1,0.9-0.1,1.9-0.1,3c-0.1-0.5-0.3-1.2-0.6-2.1c-0.4-0.9-0.6-1.6-0.7-2.1l-0.8,1.6
	c-0.5-1-0.9-1.6-1.3-1.7c-1-0.5-1.8-0.9-2.5-1.4c0,1.9-0.9,2.9-2.7,3c-1.8,0.1-3-0.4-3.8-1.6c0,0.1-0.5,0.9-1.4,2.4
	c-1,1.6-1.6,2.5-2,3c-0.5,0.6-0.8-0.7-1.1-3.9c-0.4,0.1-0.5,0.8-0.4,2c0.1,0.6,0.1,1.4,0.3,2.4c-0.2-0.6-0.5-1.3-1.1-2.1
	c-0.6-1-1-1.6-1.1-2.1c-0.8,1.1-1.3,2.1-1.5,2.8c-0.1-0.4-0.4-1.3-0.9-3c-0.6-1.7-0.9-2.6-1-2.8c-0.9,2.1-2.1,2.8-3.5,2.1
	c1.3-2.2,1.9-3.5,2-4.2c0.1-0.9-1.3-1.2-4-0.7c-0.8,0.1-2.1-0.6-3.8-2.3c-1.8-2-3-3.2-3.7-3.6h2.3c0.9,0,1.7-0.1,2.4-0.1
	c-0.1-0.3-0.1-0.6-0.2-1c-1.3,0.1-2.1,0-2.1-0.4c0.4-0.6,0.5-1.2,0.4-1.7c-0.6,0.3-1.2,0.1-1.6-0.4c0.1-0.2,0.4-0.4,0.8-0.5
	c0.5-0.1,0.9-0.5,1.2-1.2c-0.2,0.2-1.3-0.4-3.4-1.8c-2.3-1.6-4-2.4-5.1-2.5c0.8-0.5,1.5-0.9,1.8-1.2c-1.3,0.4-1.4-0.1-0.4-1.3
	C117.8,168.1,117.3,168.3,116.8,168.4L116.8,168.4z M104.1,155.4c-0.5,0-0.9-0.1-1.2-0.1c0,0.6-0.1,1.2-0.1,1.7
	c0.1-0.1,0.7-0.4,1.6-0.8c1-0.6,1.6-0.8,1.8-0.9C105.7,155.5,105,155.5,104.1,155.4L104.1,155.4z M103,153.2c0,0.4-0.1,1.1-0.1,1.7
	l2.4-1.1C104.5,153.8,103.7,153.6,103,153.2L103,153.2z M103,152c0,0.1,0,0.4,0,1c0.2,0,0.4,0,0.6-0.1c-0.1-0.1-0.1-0.1-0.1-0.1
	C103.2,152.5,103.1,152.3,103,152z M104.3,152.9c0.1,0,0.1,0,0.2,0c-0.1-0.1-0.1-0.1-0.2-0.3C104.3,152.7,104.3,152.8,104.3,152.9
	L104.3,152.9z M106.4,150.3c-0.1,0.4-0.1,0.6-0.1,0.8c-0.1-0.1-0.4-0.2-0.7-0.3c-0.4-0.1-0.6-0.2-0.8-0.4c0.4,1,0.4,1.8,0.2,2.6
	c1.7-0.2,3.7-0.6,6.1-1.2c4-0.9,6.8-1.5,8.3-1.7c-2.5-0.4-4.9-0.5-7.1-0.6c-0.1-1-0.1-1.6,0-2c0.1-0.5,0.4-1,0.9-1.6
	c-0.6,0.3-1.3,0.6-2.1,1v0.1c-0.4,0.8-1.1,1.3-2.4,1.3c0.3,0.1,0.6,0.4,1,0.8c-0.4,0.2-0.9,0.3-1.6,0.4c-0.9,0-1.4,0-1.6,0
	C106.5,149.6,106.5,149.9,106.4,150.3L106.4,150.3z M104.3,128.4L104.3,128.4c-0.9-0.1-1.3-0.1-1.4-0.1c0,0.2-0.1,0.7-0.3,1.5
	c-0.1-0.3-0.3-0.6-0.4-0.9c0,0.3,0,0.6,0,1c-0.1,0.3-0.1,0.8-0.2,1.3c-0.4-0.2-0.7-0.5-0.8-0.7c-0.3,1.3-0.8,2.2-1.3,2.8
	c-0.1-0.4-0.2-0.6-0.2-0.8c-0.1-0.3-0.1-0.6-0.1-0.9c0,0.1-0.1,0.4-0.3,0.9c-0.1,0.4-0.1,0.6-0.1,0.8c0,0-0.1-0.4-0.4-1.1
	c0,0.4-0.1,0.8-0.3,1.3c-0.1-0.1-0.2-0.1-0.5-0.3c-0.3-0.1-0.5-0.3-0.6-0.4c-0.1,1.5-0.6,2.2-1.4,2.2c-0.1,0.2-0.1,0.6-0.4,1.1
	s-0.3,0.8-0.4,1.1l-0.3-0.6c0.1,0.7,0,1.3-0.2,1.8s-0.5,0.7-0.9,0.6c0.4,0.5,0.4,1.3,0.3,2.3c-0.2,1.1-0.1,1.8,0.1,2.3
	c0.8,1,2.4,1.1,4.8,0.3c3.1-1.1,4.7-1.6,5-1.6c0.8,0.1,2.1,0.7,3.5,1.6c0.6,0.3,1.2,0.5,1.8,0.8c1.3-0.8,1.8-1.4,1.6-1.8
	c-0.1-0.1-1.1-0.1-3-0.1h-1.3c0.8-0.1,1.6-0.3,2.5-0.6c1.1-0.4,2.5-0.9,4.5-1.8c-2.4-0.7-4.7-1.2-7.1-1.5c3.3-1.1,3.7-1.8,1.4-2.2
	c-2.9-0.1-4.4-0.2-4.5-0.3c1.2-0.3,2.5-1.1,4-2.3c1.9-1.7,3.3-2.8,4.2-3.5c-0.6,0.2-2,0.4-4.2,0.6c0.7-0.4,1.1-0.8,1.1-0.8l0.4-0.8
	c-0.2,0-1.2-0.2-3.1-0.7C105.2,128.6,104.7,128.4,104.3,128.4L104.3,128.4z M105.7,125.5c0.4-0.1,0.9-0.2,1.5-0.4
	c-0.5,0.1-1.1,0-1.8-0.2c-0.1,0-0.2-0.1-0.3-0.1C105.4,125,105.6,125.2,105.7,125.5L105.7,125.5z M106.8,126.6l-0.6-0.1
	c0,0.1,0.1,0.1,0.1,0.1c-0.1,0-0.4,0.1-0.7,0.2c-0.3,0.1-0.6,0.1-0.7,0.1c0.1,0.1,0.1,0.1,0.1,0.2
	C105.7,126.9,106.3,126.7,106.8,126.6L106.8,126.6z M166.2,110.6c0.3,0.4,0.6,0.5,1,0.6c0.2,0,0.4,0,0.8-0.1c0.5-0.3,1-0.6,1.4-1.1
	c-0.4,0.1-1.2,0.3-2.3,0.4C166.8,110.5,166.5,110.5,166.2,110.6L166.2,110.6z M115.1,172.3c-0.5-0.3-0.7-0.5-0.8-0.5
	c0.1,0,0.4-0.1,0.8-0.3c0.2-0.1,0.4-0.2,0.6-0.3c-0.1,0.3-0.1,0.5-0.3,0.6C115.3,172,115.2,172.2,115.1,172.3L115.1,172.3z
	 M115.8,169.5c0.1,0.1,0.1,0.2,0.2,0.4c-0.1,0.6-0.2,1-0.3,1.3c-0.1-0.1-0.4-0.1-0.6-0.3c-0.4-0.2-0.7-0.4-0.8-0.4
	C114.4,170.3,114.9,170,115.8,169.5C115.7,169.6,115.7,169.6,115.8,169.5L115.8,169.5z M115.2,174.2c0.6,0.6,1.1,1.1,1.3,1.8
	c-0.3,0.3-0.7,0.5-1.3,0.7c-0.7,0.3-1.2,0.4-1.4,0.6c0.5,0.4,1.2,1.1,2.2,1.9c0.8,0.8,1.5,1.6,1.9,2.3c-0.9,1-2.8,1.1-5.6,0.1
	c-1.6-0.6-3-1.1-4-1.6c0.3-0.6,0.4-1.6,0.2-3c1.3,2.5,2.5,3.8,3.7,3.8c-0.2-0.9-0.7-1.9-1.4-2.8c-0.8-1.1-1.6-1.8-2-2.3
	c1.3,0.7,2.3,1.2,3.3,1.5c-0.3-0.6-0.7-1.1-1.4-1.7c-0.8-0.7-1.3-1.2-1.6-1.6c0.9-0.4,2.3-0.5,4.1-0.1
	C114,174,114.7,174.1,115.2,174.2L115.2,174.2z M53.7,176.7c0.1-0.1,0.4-0.1,0.5-0.2c0.8-0.3,2.1-0.8,3.7-1.5
	c-0.2,0.1-1,0.6-2.3,1.3c-0.9,0.6-1.7,1-2.3,1.5c0.9,0.2,2.1,0.1,3.6-0.4c2.1-0.7,3.2-1.1,3.5-1.1c-0.8,0.7-1.5,1.2-2.1,1.5
	c0.6,0.1,1.6,0,2.9-0.5c1.7-0.6,2.7-0.9,3-1c-0.1,0.1-0.4,0.5-0.6,1.1c-0.3,0.5-0.5,0.8-0.6,0.9c0.4-0.1,0.9-0.2,1.5-0.5
	c0.8-0.3,1.3-0.5,1.6-0.6c-0.1,0.2-0.1,0.5-0.1,1c-0.1,0.4-0.1,0.7-0.1,0.8c0.5-0.1,1-0.5,1.5-1c0,0,0.4-0.5,1.3-1.4
	c-0.1,0.2-0.1,0.6-0.1,1.1c0,0.5,0,0.8-0.1,1.1c0.8,0.1,1.7-0.4,2.7-1.6c-0.1,0.2-0.1,0.5-0.1,1s0,0.8-0.1,1c0.9,0,1.7-0.6,2.4-1.6
	c-0.1,0.3-0.2,0.7-0.3,1.3c0.9,0.4,2.2-0.1,3.8-1.6c-0.2,0.4-0.4,0.8-0.6,1.5c0.4-0.1,1.1-0.2,2.1-0.4s1.6-0.4,2.1-0.5l-1,2.8
	c0.8-0.1,1.8-0.6,2.8-1.3c0.6-0.4,1.4-1.1,2.5-2.2c-0.6,1.6-0.8,3-0.8,4c0.8-0.1,1.4-0.8,2-2.1c0.5-1.6,0.9-2.8,1.1-3.4
	c0.1,0.4,0.4,0.8,0.7,1.5c0.4-0.6,0.8-1.4,1.1-2.5c0.4-1.5,0.8-2.3,0.8-2.6c0.9,1.6,1.7,2,2.3,1.1c1.5,1.7,2.8,2.7,3.8,3.1
	c0.1-0.8,0.1-1.6,0-2.5c0.2,0.8,0.4,1.6,0.6,2.3c0.7,2,1.5,3.3,2.3,3.8c0.2-0.6,0.4-1.1,0.4-1.4c0.1-0.6,0.2-1,0.2-1.4
	c0.1,0.4,0.4,1.1,0.6,1.9c0.2,0.7,0.4,1.2,0.8,1.6c0.4-0.6,0.6-1.4,0.8-2.5c0.2-1.3,0.4-2.2,0.4-2.8c1.1,2,2.5,3.5,4.2,4.7
	c0.3,0.2,0.5,0.4,0.8,0.4c0,0.1,0.1,0.3,0.1,0.5c-0.7,0.3-1.7,0.1-3-0.3c-1.3-0.5-2.3-0.6-2.9-0.4c-0.1,1.4-0.8,1.9-2.3,1.5
	c-2.1-0.7-3.2-1-3.3-0.9c0,0.8,0,1.5-0.1,1.9c-0.1,0.6-0.3,1.2-0.6,1.6c-0.7-0.1-1.3-0.6-2-1.2c-0.7-0.8-1.3-1.5-1.6-1.9
	c-0.8,2.2-1.7,3.3-2.6,3.4c-0.9,0.1-2-0.8-3.3-2.7c-0.7,4.3-1.9,5.2-3.7,2.5c-0.1,0.4-0.3,0.9-0.5,1.6c-0.2,0.6-0.5,1-0.8,1.3
	c-0.8-0.7-1.3-1.4-1.4-2.1c-0.1,0.1-0.4,0.4-0.7,0.6s-0.6,0.5-0.7,0.6c-0.4-0.3-0.7-0.8-0.9-1.7c-0.2-1-0.4-1.7-0.5-2.1
	c-0.2,0.3-0.6,0.8-1,1.4c-0.4,0.5-0.8,0.8-1.3,0.8c-0.1-0.4-0.1-1.1-0.3-2.2c-0.1-0.9-0.3-1.6-0.4-2.1c-0.4,0.4-1.1,1-1.8,1.9
	c-0.8,0.7-1.5,1.1-2.1,1.1c-0.1-0.4-0.1-1,0-1.7c0-0.8,0-1.3,0-1.8c-0.1,0.1-0.8,0.6-2.1,1.6c-0.8,0.6-1.6,1-2.2,1.2
	c0.1-1.1,0.5-2.1,1.1-3.1c-0.7,0.8-1.2,1.3-1.6,1.6c-0.6,0.5-1.2,0.7-1.8,0.6c0.1-0.2,0.1-0.5,0.1-0.9s0-0.7,0.1-0.9
	c-0.2,0.2-0.4,0.4-0.8,0.6c-0.2,0.1-0.4,0.3-0.8,0.5c-0.1-0.4-0.2-0.8-0.3-1.1c-0.1-0.4-0.2-0.9-0.1-1.3c-0.2,0.1-0.5,0.2-1.1,0.4
	c-0.5,0.1-0.8,0.2-1.1,0.4c0.3-0.8,0.6-1.3,0.8-1.6c-0.6,0.2-1.4,0.4-2.3,0.5c-1,0.1-1.8,0.1-2.2,0.2c-0.4,0.1-1.3,0.3-2.5,0.8
	c-1.1,0.4-1.9,0.6-2.6,0.5c0.3-0.8,1-1.6,2.3-2.4C52.8,177.2,53.3,176.9,53.7,176.7L53.7,176.7z M55.9,166.5
	c0.5-0.1,1.1-0.1,1.7-0.2c-0.3,0.1-0.6,0.2-1,0.5c-0.1,0.1-0.4,0.3-0.7,0.5l0,0C55.9,167.1,55.9,166.9,55.9,166.5L55.9,166.5z
	 M53.7,174.9c0.3-0.1,0.6-0.1,0.9-0.1c-0.3,0.2-0.6,0.5-1.1,0.8l0,0C53.5,175.4,53.6,175.1,53.7,174.9z M55.1,171.1
	c0.1-0.1,0.1-0.4,0.1-0.6c0.2,0,0.4,0,0.6,0c0.3,0,0.9-0.1,2.1-0.3C56.8,170.6,55.9,170.9,55.1,171.1z M55.9,168.9
	c0.1-0.3,0.2-0.5,0.4-0.7c-0.2-0.4-0.3-0.6-0.4-0.8c0.4,0.1,0.9,0.2,1.4,0.6C56.9,168.2,56.5,168.6,55.9,168.9L55.9,168.9z"/>
<path style="fill:none;stroke:#000000;stroke-miterlimit:10;" d="M106.9,180.4c-0.2-0.1-0.5-0.2-0.8-0.4c-1.7-1.1-3-2.7-4.2-4.7
	c-0.1,0.6-0.2,1.6-0.4,2.8c-0.2,1.1-0.5,1.9-0.8,2.5c-0.3-0.4-0.6-0.9-0.8-1.6c-0.2-0.8-0.4-1.5-0.6-1.9c0,0.4-0.1,0.8-0.2,1.4
	c-0.1,0.3-0.2,0.8-0.4,1.4c-0.8-0.6-1.7-1.8-2.3-3.8c-0.3-0.7-0.5-1.5-0.6-2.3c0.1,0.8,0.1,1.7,0,2.5c-1.1-0.4-2.3-1.4-3.8-3.1
	c-0.6,0.8-1.4,0.5-2.3-1.1c-0.1,0.3-0.4,1.2-0.8,2.6c-0.4,1.1-0.7,1.9-1.1,2.5c-0.4-0.6-0.6-1.1-0.7-1.5c-0.2,0.7-0.6,1.8-1.1,3.4
	c-0.6,1.3-1.2,2-2,2.1c0-1.1,0.3-2.4,0.8-4c-1.1,1-1.9,1.8-2.5,2.2c-1,0.7-1.9,1.1-2.8,1.3l1-2.8c-0.5,0.1-1.1,0.2-2.1,0.5
	c-0.9,0.3-1.6,0.4-2.1,0.4c0.2-0.6,0.4-1.1,0.6-1.5c-1.6,1.6-2.8,2.1-3.8,1.6c0.1-0.6,0.2-1.1,0.3-1.3c-0.7,1.1-1.5,1.6-2.4,1.6
	c0.1-0.2,0.1-0.5,0.1-1s0-0.8,0.1-1c-1,1.3-1.8,1.8-2.7,1.6c0.1-0.2,0.1-0.6,0.1-1.1s0-0.8,0.1-1.1c-0.8,0.9-1.3,1.4-1.3,1.4
	c-0.6,0.5-1.1,0.8-1.5,1c0.1-0.1,0.1-0.4,0.1-0.8c0.1-0.5,0.1-0.8,0.1-1c-0.3,0.1-0.8,0.3-1.6,0.6c-0.6,0.2-1.1,0.4-1.5,0.5
	c0.1-0.1,0.4-0.4,0.6-0.9c0.3-0.6,0.5-0.9,0.6-1.1c-0.4,0.1-1.3,0.4-3,1c-1.3,0.4-2.2,0.6-2.9,0.5c0.6-0.3,1.3-0.8,2.1-1.5
	c-0.3,0.1-1.4,0.4-3.5,1.1c-1.4,0.5-2.6,0.6-3.6,0.4c0.6-0.4,1.4-0.9,2.3-1.5c1.3-0.8,2.1-1.2,2.3-1.3c-1.7,0.6-2.9,1.1-3.7,1.5
	c-0.2,0.1-0.4,0.1-0.5,0.2c-1.3,0.4-2.4,0.7-3.4,0.9c0.4-0.4,1.1-0.8,2.1-1.5c0.4-0.2,0.7-0.4,1-0.6c0.5-0.4,0.8-0.6,1.1-0.8
	c-0.4,0.1-0.6,0.1-0.9,0.1c-0.7,0.1-1.3,0.2-1.7,0.3c-1,0.1-1.8,0.1-2.6-0.1c0.8-0.6,1.6-1.1,2.4-1.5c-0.8,0.2-1.7,0.2-2.4,0
	c1.1-0.8,2.5-1.4,4.2-2c0.4-0.1,0.9-0.3,1.5-0.5c0.8-0.2,1.7-0.5,2.8-0.8c-1.1,0.2-1.8,0.3-2.1,0.3c-0.2,0-0.4,0-0.6,0
	c-0.6,0-1.1-0.1-1.5-0.3c0.8-0.5,1.4-0.8,1.8-1.1c0.1-0.1,0.3-0.1,0.4-0.3c0.6-0.4,1-0.7,1.3-1c-0.5-0.4-1-0.6-1.4-0.6h-0.1
	c0.1-0.1,0.1-0.1,0.1-0.1c0.3-0.2,0.6-0.4,0.7-0.5c0.4-0.2,0.7-0.4,1-0.5c-0.6,0.1-1.2,0.1-1.7,0.2c-0.6,0.1-1.1,0-1.4,0
	c0.3-0.2,0.6-0.4,1.1-0.6c0.8-0.4,1.8-0.7,3.1-1c-0.3-0.1-0.6-0.4-0.8-0.6c0.3-0.3,1.4-1,3.5-2.1c0.4-0.2,0.8-0.5,1.1-0.8
	c-0.1-0.1-0.1-0.1-0.2-0.1c0.1-1.3,0.6-2.1,1.5-2.3c-0.1,1-0.6,1.8-1.3,2.5c0.9,0.5,2.1,0.6,3.4,0.6c0.8-0.1,2.1-0.3,3.8-0.7
	c-0.2,0.4-0.6,1-1,1.8c-0.4,0.7-0.6,1.3-0.8,1.9c0.7,0.4,1.5,0.4,2.5-0.3c-1.1,0.8-1.8,1.7-2.1,2.9c0.9,0.8,2.5,1,4.7,0.6
	c1.7-0.3,3.3-0.8,4.6-1.6c-0.9,0.6-1.7,1.3-2.3,2.1c0.6,0.4,1.3,0.4,2.2-0.1c0.8-0.4,1.4-1.1,1.8-1.9c0.4,1.1,1.3,1.2,2.5,0.2
	c0.5-0.4,0.9-0.8,1.3-1.3c-0.4,0.8-0.6,1.6-0.6,2.3c1.3,0.5,2.8,0.2,4.4-1c1.5-1.1,2.5-2.5,3.2-4.2c0,0,0.1,0.1,0.1,0.2
	c0.1,0.1,0.1,0.1,0.1,0.1c0.5-0.9,0.8-1.5,1-1.7c0.3-0.3,0.8-0.4,1.4-0.3c0.4,0,1.3,0.4,2.5,1.1c1.4,0.8,2.3,1.3,2.7,1.4
	c1.2,0.4,3,1.1,5.4,2.1c2.1,0.8,4,1.3,5.5,1.6c0.8,0.1,2.2,0.4,4.2,0.5c0.4,0,0.8,0.1,1.1,0.1c0.1,0,0.3,0,0.4,0.1
	c-0.5,0.5-0.8,0.7-1,0.7c1,0.1,2.1,0,3.2-0.4c0.1,0,0.1,0.1,0.2,0.1c-0.2,0.4-0.6,0.7-1.3,1.1c0,0,0,0-0.1,0
	c-0.8,0.4-1.3,0.8-1.5,0.9c0.1,0.1,0.4,0.2,0.8,0.4c0.3,0.1,0.5,0.2,0.6,0.3c0.1,0,0.1,0,0.2,0c-0.1,0-0.1,0-0.2,0.1
	c-0.1,0.1-0.4,0.1-0.6,0.3c-0.4,0.2-0.6,0.3-0.8,0.3c0,0,0.3,0.2,0.8,0.5c0.3,0.1,0.6,0.4,1.1,0.6c0.7,0.4,1.2,0.9,1.5,1.4
	c-0.4,0-1.1-0.1-2.3-0.2c-0.6-0.1-1.2-0.2-2-0.4c-1.8-0.3-3.2-0.3-4.1,0.1c0.3,0.4,0.8,0.9,1.6,1.6c0.7,0.6,1.2,1.2,1.4,1.7
	c-0.8-0.3-2-0.8-3.3-1.5c0.4,0.5,1.1,1.3,2,2.3c0.7,0.9,1.2,1.9,1.4,2.8c-1.1,0-2.3-1.3-3.7-3.8c0.1,1.4,0.1,2.4-0.2,3
	C108.1,180.6,107.6,180.7,106.9,180.4L106.9,180.4z"/>
<g>
	<path style="fill:none;stroke:#000000;stroke-miterlimit:10;" d="M79.7,64.5c0.8-0.8,1.8-0.3,3.1,1.3c0.7,0.8,1.6,2.1,2.5,3.8
		c0.4,0.4,1.3,1.3,2.8,2.8c1.1,1.4,1.3,2.6,0.5,3.7c0.3,0.3,0.5,0.7,0.6,1.1c0,0.1,0.1,0.5,0.2,1.3c-0.3,0.1-0.5,0.1-0.6,0.1
		c-0.4,0-0.6-0.1-0.8-0.2c0.8,1.3,1.1,2.3,0.8,3.1c-1.1-0.3-2.3-1.3-3.5-3c0.6,1.1,0.7,2.1,0.4,3.1c-0.8-0.2-1.5-0.6-2-1.3
		c0.2,0.8,0.2,1.4,0,1.9c-0.2,0.4-0.6,0.6-1,0.6c0.9,0.8,2.3,2.3,4,4.4c1.6,1.7,3.2,2.6,4.7,2.9c-0.1,1.1-0.6,1.6-1.4,1.6
		c-0.5,0-1.3-0.2-2.3-0.7c-0.8,0.6-1.5,1-1.9,1.2c-0.7,0.4-1.5,0.2-2.2-0.5c0,0.3-0.1,0.8-0.4,1.5c-0.4-0.2-0.7-0.5-1-0.9
		c-0.4,0.6-0.8,0.8-1.2,0.7c-0.4-0.1-0.8-0.6-1.1-1.4l-0.6,1.3L79,92.1c-0.1,0.3-0.1,0.6-0.4,1c-0.1,0.2-0.3,0.5-0.5,0.8
		c0-0.2-0.1-0.5-0.2-1c-0.1-0.5-0.2-0.8-0.2-1c-0.1,0.1-0.1,0.3-0.3,0.4c-0.1,0.1-0.1,0.2-0.3,0.3c-0.4-0.7-0.6-1.3-0.7-1.6
		c-0.1,0.2-0.3,0.4-0.5,0.8c-0.2,0.3-0.4,0.6-0.5,0.8c-0.3-0.3-0.5-0.4-0.7-0.6c0,0.2-0.1,0.5-0.2,0.9c-0.1,0.4-0.2,0.6-0.2,0.8
		c-0.1-0.2-0.1-0.4-0.4-0.7c-0.2-0.3-0.4-0.5-0.4-0.6c-0.1,0.3-0.2,0.6-0.4,0.9c-0.3-0.4-0.6-0.8-0.8-1.5c-0.3-0.6-0.4-1.1-0.6-1.5
		c-0.1,0.4-0.4,1-0.8,1.8c0-0.1-0.1-0.4-0.2-0.6c-0.1-0.3-0.2-0.5-0.2-0.6c-0.4,1.3-1.1,2.1-1.8,2.2c0-0.2-0.1-0.5-0.2-0.9
		c-0.1-0.4-0.2-0.7-0.2-0.9c-0.1,0.1-0.3,0.3-0.6,0.5s-0.5,0.4-0.6,0.4C67,91.6,67,91.2,67,91c-0.8,0.4-1.6,0.5-2.3,0.1v-0.7
		c-0.3,0.1-0.6,0.1-1.1,0.1c-0.5-0.1-0.9-0.1-1.1-0.1v-1.1c-0.5-0.1-0.8-0.2-1.1-0.3c-0.4-0.1-0.7-0.1-0.9-0.1
		c0.8-0.3,2.5-0.6,5.2-1.2c2.3-0.8,3.5-2.3,3.5-4.3c-0.1,0.1-0.3,0.3-0.4,0.4c-0.2,0.1-0.4,0.1-0.6,0.2c0.1-0.1,0.1-0.4,0.1-0.7
		c-0.1-0.5-0.1-0.8-0.1-0.8c-0.3,0.1-0.4,0.2-0.4,0.2c0-0.1-0.1-0.1-0.2-0.2c-0.6,0.1-0.9,0.2-1.1,0.2c-0.1-0.1,0-0.2,0-0.4
		c0.1-0.2,0.1-0.4,0.1-0.4c-0.5,0-0.8-0.1-1.1-0.2c0.1,0,0.1-0.1,0.3-0.3c0.1-0.2,0.1-0.3,0.1-0.4c-0.1,0.1-0.4,0.1-0.8,0
		c-0.4-0.1-0.6-0.1-0.7-0.1l0.6-0.7c-0.1,0-0.3-0.1-0.6-0.3s-0.6-0.3-0.8-0.3c1.7-0.4,2.8-0.6,3.3-0.8c1.3-0.6,2-1.6,2.1-3h-1.1
		c0.2-0.1,0.4-0.4,0.8-0.8c0.3-0.4,0.6-0.7,0.8-0.8c0-0.5-0.3-0.5-0.8-0.5c0.1-0.1,0.5-0.5,1.1-1.1c0.5-0.4,0.8-0.8,0.9-1.1
		c-0.1,0.1-0.2,0.1-0.4,0.1c-0.3,0.1-0.5,0.1-0.6,0.2c0.2-0.2,0.4-0.6,0.6-1.1c0.4-0.7,0.6-1.1,0.6-1.2c-0.2,0-0.4-0.1-0.4-0.1
		c0.7-1.1,1-2.1,1-3.1l-0.8,0.6c0.8-1.9,1.4-3,1.5-3.4c0.4-1.2,0.7-2.4,0.7-3.7c-0.1-1.1,0.1-2.3,0.3-3.6c0.3-1.4,0.6-2.5,1.1-3.3
		C75.9,58.4,77.8,62.3,79.7,64.5L79.7,64.5z"/>
	<path style="fill:none;stroke:#000000;stroke-miterlimit:10;" d="M94,99.5c2.1,0.7,3.6,1.5,4.5,2.4c-0.6,0.6-1.3,1.1-2.1,1.2
		c-0.4,0.1-1.2,0.1-2.5,0.1c0,0.3,0.1,0.5,0.1,0.8c-0.1-0.1-0.4-0.1-0.8-0.1c-0.4,0-0.7-0.1-0.9-0.2c0.1,0.2,0.1,0.5,0,0.8
		c-0.1,0.4-0.1,0.6,0,0.8c-0.6,0.1-1.2-0.1-1.8-0.4c-0.2-0.1-0.8-0.4-1.7-1.1c0,0.5-0.1,0.9-0.3,1.3c0,0-0.2,0.4-0.6,1.1
		c-0.1-0.1-0.2-0.4-0.4-0.8c-0.2-0.4-0.4-0.7-0.4-1c-0.3,0-0.5,0.1-0.7,0.4c0-0.3-0.1-0.8-0.3-1.6c-0.1,0-0.2,0.1-0.4,0.1
		c-0.2,0.1-0.4,0.1-0.4,0c0-0.4-0.1-0.6-0.1-0.6c-0.4,0.1-0.8,0.6-1.4,1.3c-0.6,0.7-1.1,1.1-1.5,1.3c-0.4-0.5-0.6-0.8-0.7-1.1
		c-0.4,0.6-1.1,1.5-1.8,2.8c-0.8,1.1-1.5,1.8-2.1,2.2c0.1-0.4,0.3-1,0.5-1.6c0.3-0.7,0.5-1.2,0.6-1.6c-0.4,0.5-1.1,1.3-2.1,2.3
		c-0.8,0.8-1.6,1.5-2.3,1.9c0.1-0.4,0.4-0.9,0.8-1.6c0.5-0.8,0.8-1.3,0.9-1.6c-0.2,0.2-0.6,0.5-1.1,0.8c-0.4,0.4-0.8,0.6-1.2,0.8
		c0.2-0.6,0.6-1.3,1.1-2.1c0.7-1.1,1.1-1.7,1.2-2c-0.8,0.8-1.6,1.6-2.7,2.4c0-0.8,0.1-1.4,0.1-1.6c-0.5,0.9-1.1,1.5-1.8,1.6
		c-0.2-0.3-0.4-0.6-0.4-0.8c-0.7,0.8-1.1,1.2-1.2,1.3c-0.4,0.4-0.9,0.6-1.3,0.8c-0.1-0.8-0.1-1.3-0.1-1.6c-0.4,0.6-0.8,1.1-1.3,1.4
		c-0.6,0.4-1.1,0.6-1.6,0.6c0.1-0.2,0.1-0.6,0-1.3c-0.1-0.6-0.1-1.1,0-1.3c-0.6,0.5-1,0.8-1.3,1c-0.6,0.3-1.1,0.3-1.5,0.1
		c0.1-0.3,0.1-0.7,0.1-1.3c-0.2,0.1-0.8,0.4-1.5,0.8c-0.6,0.3-1.2,0.4-1.6,0.4c0.1-0.4,0.3-0.8,0.4-1c0.2-0.4,0.4-0.7,0.6-0.8
		c-0.9,0.4-1.9,0.6-3,0.8c-1.2,0.1-2.2,0.1-3-0.2c0.1-0.1,0.4-0.2,0.6-0.5c0.4-0.3,0.6-0.5,0.8-0.6c-0.9,0.2-1.8,0.2-2.7,0
		c0.5-0.4,1.4-0.8,2.6-1.3c1.2-0.5,2.1-1,2.6-1.4c-0.2-0.4-0.4-0.6-0.4-0.6c1.2-0.6,2.9-1.1,5.2-1.3c2.3-0.4,4.1-0.8,5.2-1.2
		c-0.6-0.1-1.7-0.2-3-0.2c1.1-0.2,2.1-0.5,3.1-0.9c0.7-0.4,1.7-1,2.9-1.8H72c0.9-0.5,2.3-0.6,4.1-0.4c2.4,0.3,3.8,0.4,4.2,0.4
		c2,0,3.9,0.2,5.7,0.6c0.6,0.1,1.2,0.3,1.8,0.5c0.4,0.1,0.8,0.4,1.6,0.8C89.9,98.1,91.5,98.7,94,99.5z"/>
	<path style="fill:none;stroke:#000000;stroke-miterlimit:10;" d="M85.2,109.6c0.4,0.6,1.2,1.1,2.4,1.8c1.1,0.6,1.9,1.2,2.3,1.9
		c0,0.3-0.1,0.6-0.4,0.7c0.3,0.5,0.4,0.8,0.4,1.2c0,0.2-0.1,0.6-0.1,1.1l-0.4-0.6c0.2,0.3,0.3,0.6,0.2,1.1c0,0.6,0,0.8,0,0.9
		c-0.6-0.1-1.3-0.4-2.1-1c-0.8-0.7-1.5-1.3-2-1.6c0,0.6-0.1,1.1-0.2,1.3c-0.1,0.1-0.3,0.3-0.8,0.5c0.1,0.9,0.1,1.7,0.1,2.3
		c-0.1,0.8-0.2,1.2-0.5,1.1c0.3,1.3,0.1,2.5-0.4,3.7c-1-0.3-1.8-1.8-2.3-4.7c-0.2,0.8-0.4,1.3-0.5,1.6c-0.2,0.5-0.5,0.8-0.9,1
		c0-1.5-0.1-2.5-0.3-3.3c-0.7,1.8-1.5,3.1-2.4,3.7c-0.4-0.9-0.3-2.1,0.3-3.5c-1.2,2.2-2.3,3.2-3.4,2.9c0-0.9,0.2-1.8,0.6-2.8
		c-0.4,0.6-0.7,1-1.1,1.2c0-0.1-0.1-0.4-0.2-0.8c-0.1-0.4-0.2-0.7-0.2-0.8c-0.8,1-1.6,1.5-2.3,1.5c-0.3-1.1-0.8-1.5-1.6-1
		c-1.1,0.6-1.9,0.9-2.3,0.8c-0.1-1-0.1-1.7-0.1-2.1c-0.6,0.8-1,1.2-1.1,1.3c-0.4,0.4-0.9,0.6-1.4,0.5c0.1-0.3,0.1-0.6,0.1-1.1
		c-0.4,0.2-1.1,0.6-1.9,1.1c-0.8,0.4-1.3,0.6-1.9,0.7l0.6-0.8c-1.1,0.8-2.1,1.4-3,1.7c-1.3,0.4-2.2,0.4-2.9-0.2
		c0.3-0.8,0.5-1.2,0.6-1.3c-0.1-0.1-0.1-0.1-0.3-0.2c-0.1-0.1-0.3-0.1-0.3-0.1c0.7-0.5,1.8-1.1,3.3-1.8c1.5-0.8,2.6-1.3,3.3-1.8
		c-0.2-0.1-0.3-0.2-0.4-0.4c1.3-0.8,2.7-1.8,4.1-2.9c-0.3,0-0.5-0.1-0.6-0.2c0.2-0.9,0.8-1.8,1.6-2.5c0.8-0.8,1.6-1,2.2-0.5
		c0.9-0.3,2.4-0.6,4.5-0.8c0.2-0.1,0.8,0,1.6,0.1c0.8,0.1,1.3,0.1,1.6,0.1c0.4-0.1,1.1-0.5,1.9-1.1c0.8-0.5,1.4-0.4,2,0.1
		c0.5-1.1,1.1-1.6,2.1-1.6c0.8,0.1,1.5,0.6,2.2,1.6c0.1,0.2,0.3,0.5,0.4,1C84.9,109,85.1,109.4,85.2,109.6L85.2,109.6z"/>
	<path style="fill:none;stroke:#000000;stroke-miterlimit:10;" d="M91.7,116.1c0.1,0.1,0.4,0.1,0.8,0c0.4,0,0.8,0,1,0.1
		c-0.1-0.3-0.3-0.7-0.3-1.3c-0.1-0.8-0.1-1.3-0.1-1.3c0.4-0.3,0.8-0.2,1.2,0.3c0.9,0.3,2.5,0.8,4.8,1.4c2.1,0.6,3.6,1.1,4.7,1.4
		l-0.4,0.6c0.4,0.1,0.8,0.2,1.6,0.3c0.7,0.1,1.3,0.1,1.6,0.3c-0.6,0.2-1.5,0.4-2.6,0.4c-1.3,0-2.1,0.1-2.6,0.2
		c1.2,0.2,2.1,0.6,2.5,0.9c-0.4,0.1-0.9,0.2-1.7,0.4c-0.7,0.1-1.2,0.2-1.6,0.4c0.3,0.1,0.6,0.4,0.9,0.8c0.4,0.6,0.6,0.9,0.8,1
		c-0.1,0-0.4,0.1-0.7,0.3s-0.6,0.3-0.8,0.3c0.5,0.8,0.8,1.3,0.8,1.4c0.3,0.6,0.4,1.1,0.4,1.6c-0.4-0.2-0.6-0.3-0.8-0.4
		c-0.3-0.2-0.6-0.4-0.7-0.6c1,1.3,1.5,2.5,1.5,3.7c-0.8-0.1-1.9-1.1-3.1-2.9c0.4,0.9,0.6,2,0.4,3.1c-0.4-0.1-0.8-0.4-1.2-0.7
		c0,0-0.4-0.4-1.1-1.1c0.1,0.4,0.1,0.8,0.1,1.3c-0.1,0.8-0.1,1.3-0.1,1.3c-0.6-0.6-1-1.4-1.3-2.5c0.1,1.1,0,2.4-0.3,3.8
		c-0.7-0.6-1.4-2.2-2.3-4.9c-0.8-2.8-1-4.5-0.3-4.9c-0.5-1-0.8-1.8-0.9-2.3C91.7,117.5,91.6,116.8,91.7,116.1L91.7,116.1z"/>
	<path style="fill:none;stroke:#000000;stroke-miterlimit:10;" d="M80.2,122c0.6,0.3,1.1,0.4,1.5,0.4c0.6,0,1.6-0.1,3.3-0.5
		c1.4-0.3,2.5-0.4,3.3-0.2c-0.1,0.1-0.4,0.3-0.8,0.7c-0.4,0.3-0.6,0.5-0.9,0.6c0.4,0.3,1.3,0.7,2.8,1.3c1.2,0.5,2.1,1.1,2.6,1.6
		c0.1,1,0.4,2.2,1,3.5c0.2,0.8-0.6,1.1-2.3,0.9c0.1,1.3-0.4,1.8-1.6,1.5c-1.3-0.6-2.3-0.9-2.7-0.9c0.1,0.4,0,0.9-0.1,1.3
		c-0.1,0.3-0.2,0.6-0.4,1.1c-0.3-0.1-0.8-0.4-1.6-0.8c-0.6-0.4-1.1-0.6-1.6-0.6c-0.4,1.9,0.2,3,1.6,3.5c0.6,0.1,1,0.1,1.4-0.4
		c0.4-0.4,0.6-1.1,0.6-2c0.5,1.1,1.1,1.5,1.6,1.3c0.3-0.1,0.6-0.4,1.1-0.7c0.2,0,0.7,0.1,1.5,0.5c0.8,0.3,1.3,0.4,1.8,0.4l0.3-1.3
		c0.1-0.6,0.1-1,0.1-1.4c0.2,0.1,0.5,0.2,0.8,0.4c0.3-1.3,2.3-1.3,6.1,0c1.9,0.7,4.1,1.6,6.6,2.9c-0.7,0.2-1.6,0.3-2.8,0.3
		c-1.3-0.1-2.3,0-2.8,0.1c0.6,0.2,1.6,0.6,2.9,1.1c1.1,0.5,2,1,2.5,1.6c-0.6,0.2-1,0.4-1.3,0.4c0.2,0.1,0.5,0.4,0.8,0.8
		c0.4,0.4,0.6,0.6,0.8,0.8c-0.4,0.5-1,0.7-2,0.8c-1.1,0-1.7,0.1-2,0.4c0.2,0.2,0.4,0.5,0.6,1s0.3,0.8,0.3,0.8
		c-0.6,0.3-1.5,0.4-2.4,0.2c-1.1-0.3-1.9-0.5-2.4-0.6c0.4,0.6,1.1,1.5,2.2,2.9c0.9,1.3,1.3,2.3,1.1,3.2c-1.1-0.3-2.5-1.3-4.2-3.3
		c0.8,1.5,1.4,2.6,1.7,3.5c0.5,1.5,0.6,2.8,0.3,3.9c-0.8-0.3-1.6-1.2-2.3-2.8c0.8,2.1,1,3.7,0.6,4.6c-1.3-1.1-2.5-2.7-3.7-4.7
		c0.1,0.5-0.1,1.3-0.4,2.5c-0.5-0.3-0.9-0.7-1.3-1.4c0.1,0.9,0,1.8-0.1,2.5l-0.6-0.9c0,1.1-0.2,2-0.7,2.8c-0.9-0.6-1.4-1.9-1.5-3.8
		c-0.1,0.8-0.3,1.6-0.6,2.1c-0.8-1.1-1.2-2.8-1.1-5.4c-0.2,1.3-0.6,2.1-1.1,2.6c-0.3-0.6-0.5-1.4-0.6-2.4c-0.1-1.1-0.1-2-0.2-2.5
		c-0.1,0.6-0.2,1.4-0.4,2.6c-0.2,1-0.6,1.6-1.1,1.9c-0.2-0.8-0.2-1.6-0.1-2.3c-0.3,0.8-0.6,1.3-1,1.8c-0.5,0.6-1,0.7-1.4,0.4
		c-0.3-0.1-0.5-0.7-0.6-1.7c-0.1-1.1-0.1-1.8-0.1-2c-0.4,0.4-1.3,1.3-2.3,2.8c-1.1,1.2-1.9,1.7-2.5,1.6c0.1-0.3,0.2-0.7,0.2-1.3
		c0.1-0.6,0.1-1.1,0.2-1.3c-0.4,0.2-0.9,0.6-1.6,1.2c-0.6,0.4-1.3,0.7-1.8,0.8c-0.1-0.6-0.1-1.1-0.1-1.5c-0.5,0.6-1.3,1.6-2.5,2.9
		c-1.1,1.1-2.1,1.7-3,1.7c0-0.1,0-0.5,0.1-1.3c0.1-0.6,0.1-1,0.3-1.3c-0.6,0.4-1.4,1.2-2.5,2.3c-1.1,0.8-2.1,1.3-2.9,1.3
		c0-0.5,0.1-1,0.4-1.6c0.1-0.3,0.4-0.8,0.8-1.6c-0.8,0.9-1.5,1.5-1.8,1.8c-0.7,0.6-1.4,0.8-2.1,0.9c0.2-0.8,0.8-2.1,1.8-3.7
		c-1.1,1.1-1.8,1.7-2.1,1.9c-0.9,0.7-1.7,0.9-2.3,0.6c0.3-1.3,0.8-2.6,1.6-4c-0.4,0.2-0.9,0.5-1.6,0.9c-0.6,0.4-1.1,0.5-1.6,0.5
		c0.1-0.2,0.4-0.5,0.6-1c0.3-0.4,0.4-0.7,0.5-0.8c-1.1,0.4-2,0.6-2.5,0.8c-1,0.3-1.8,0.4-2.5,0.4c0-0.5-0.1-0.8-0.1-1.1
		c-0.8-0.4-1.9-0.5-3.4-0.5c-1.7,0-2.8-0.1-3.5-0.2c1.3-0.6,3.9-1.5,7.5-2.5c3.3-0.9,5.7-1.9,7.3-2.8c2.2-1.1,4-2.1,5.2-2.9
		c2.3-1.5,3.8-3,4.5-4.5c-0.1-0.1-0.1-0.1-0.2-0.1c-0.1,0-0.3,0-0.4-0.1c0.8-1.1,1.3-1.9,1.7-2.3c-1,1-1.8,1.3-2.4,1.1
		c-0.1-0.4-0.2-0.8-0.4-1.3c-0.4,0.3-1.1,0.8-1.9,1.6c-0.8,0.6-1.5,1-2.2,1.2c0.4-1.1,1.2-2.1,2.4-3.3c-1.1,0.9-2.1,1.3-3,1.1
		c0-0.4,0-0.6,0-0.8c0-0.4,0-0.8,0-1c-0.4,0.2-0.9,0.6-1.6,1.1c-0.6,0.4-1.1,0.6-1.6,0.7c0.1-0.1,0.2-0.4,0.4-0.8s0.3-0.7,0.4-0.8
		c-1.8,1.3-2.8,2-3,2.1c-1.4,0.8-2.5,0.8-3.2,0.3c0.1-0.1,0.2-0.4,0.4-0.7c0.1-0.4,0.3-0.6,0.4-0.8c-0.1,0-0.4-0.1-0.9-0.3
		c-0.5-0.2-0.8-0.3-1.1-0.3c0.6-0.3,1.9-0.7,3.7-1.3c1.6-0.6,2.8-1.3,3.5-2.3c-0.1-0.2-0.2-0.4-0.3-0.6c1.7-1.1,3-1.9,4-2.5
		c1.7-1.1,2.8-2.4,3.3-3.7l2.1-0.7l0.3,0.8c0.1,0,0.4-0.1,0.7-0.2c-0.1,0.3-0.1,0.6,0,1.1c0.1,0.5,0.1,0.8,0,1.1
		c0.5,0,1.3-0.3,2.3-0.9c0.2,0.9,0.8,1.1,1.6,0.5c0.5-0.3,1.1-0.8,2.1-1.4c0.8,0.4,1.1,0.6,1.3,0.6c0.2,0,0.5-0.1,0.8-0.3
		s0.7-0.3,1-0.3C79.1,121.6,79.5,121.7,80.2,122L80.2,122z"/>
	<path style="fill:none;stroke:#000000;stroke-miterlimit:10;" d="M92.1,152.9c0.2-0.7,0.3-1.2,0.3-1.5c0.6,0.1,1.6,0.4,2.9,0.8
		c1.1,0.3,2.1,0.2,2.6-0.4c-0.3-0.3-0.6-0.6-0.7-0.7c0.2,0.1,0.4,0.1,0.8,0c0.2-0.1,0.4-0.1,0.8-0.2c-0.2-0.8-0.6-1.4-1.1-1.8
		c0.1,0,0.3-0.1,0.5-0.3c0.2-0.1,0.4-0.3,0.4-0.3s0.1-0.2,0.1-0.6c0.1-0.4,0.2-0.6,0.3-0.6c0.3-0.1,0.6-0.1,1,0
		c0.5,0.2,0.8,0.4,1,0.4c3.3-0.6,5.7-0.8,6.9-1c2.7-0.2,5-0.1,7.1,0.4c-0.2,0.8-0.7,1.3-1.3,1.6c-0.8,0.3-1.5,0.5-1.9,0.7
		c0.5,0.2,1.3,0.4,2.4,0.7c0.9,0.3,1.7,0.6,2.3,1.1c-0.7,0.2-1.7,0.2-3,0.1c-1.4-0.1-2.4-0.2-3-0.1c0,0.4,0.1,0.6,0.4,0.8
		c-0.6,0.1-1.5-0.1-2.6-0.4c-1.2-0.4-2-0.5-2.4-0.5c0.4,0.4,1.1,1.1,2,1.9c0.8,0.8,1.3,1.6,1.6,2.5c-0.1,0-0.3,0.1-0.6,0.3
		c-0.3,0.2-0.5,0.3-0.6,0.3c0.1,0.2,0.2,0.5,0.3,0.8c0.1,0.4,0.2,0.6,0.3,0.8c-0.6,0.4-1.6,0.5-2.9,0.1c-1.8-0.4-2.8-0.7-3-0.7
		c0.4,0.6,0.9,1.4,1.6,2.5c0.6,1.1,1.1,2.1,1.1,3c-0.8,0.2-1.6-0.1-2.1-0.8c0.7,1.2,1.1,2.3,1.4,3.1c-0.8,0.2-1.9-0.3-3.3-1.6
		c-1.4-1.6-2.4-2.7-3-3.2c0,1.4-0.6,1.8-1.6,1.1c-1.2-1.1-2-1.8-2.3-2c-0.1,0.3-0.3,0.9-0.4,1.8c-0.1,0.8-0.4,1.5-0.6,2
		c0,0-0.2-0.4-0.6-0.9c-0.3,1.3-0.8,2.1-1.4,2.4c-0.6-1.1-1-2.5-1-4.2c0,1.3-0.2,2.3-0.6,3.1c-0.6-0.6-1.2-1.8-2-3.5
		c0,0.3-0.1,0.6-0.2,1.1s-0.2,0.8-0.2,0.9c-1.1-1.2-1.8-2.5-2.4-4c-0.2,1.8-0.6,3.1-1.3,3.8c-0.5-0.6-0.8-1.6-1-3
		c-0.1,1-0.2,1.7-0.3,2.1c-0.1,0.8-0.4,1.3-0.8,1.7l-0.4-3.1c-0.2,1.7-0.6,3-1.1,3.8c-0.3-0.4-0.4-1-0.3-1.8
		c0.1-0.9,0.2-1.6,0.3-2.1c-0.4,0.4-1.1,1-1.9,1.9c-0.8,0.8-1.5,1.2-2.2,1.4c0.1-0.9,0.5-2,1.1-3.2c0.4-0.6,1-1.6,1.8-2.9
		c-1.3,1.8-2.6,2.8-3.7,3c-0.2-1-0.2-1.7-0.1-2.1c-0.3,0.1-1,0.4-2.1,1.1c-0.8,0.5-1.5,0.6-2.1,0.3c0.2-1,0.6-2.1,1.1-3.3
		c-0.6,0.3-1.6,0.9-2.8,1.8c-1.2,0.7-2.2,1-3,0.9c0.5-1.1,1.1-1.9,1.7-2.5c-1.3,1-2.3,1.7-3,2.1c-1.3,0.6-2.3,0.8-3.2,0.5
		c0.6-1.2,1.1-1.9,1.4-2.2c-1,0.8-1.8,1.3-2.5,1.6c-1.1,0.5-2,0.6-2.7,0.1c0.1-0.3,0.1-0.6,0.1-1.1c-1.4,0.8-2.5,1.3-3.2,1.7
		c-1.3,0.6-2.4,0.8-3.3,0.6c0.1-0.1,0.1-0.5,0.2-1.1c0.1-0.6,0.1-1,0.2-1.1c-1.4,0.5-2.5,0.9-3.3,1.1c-1.3,0.4-2.4,0.4-3.2,0
		c0.6-0.8,0.9-1.2,1-1.3c-0.6-0.1-1.2-0.2-1.6-0.2c0.9-0.4,2.4-0.8,4.3-1.5c1.6-0.6,3-1.6,3.9-2.8c0.4,0.1,0.8,0.1,1.1,0.1
		c0.3-0.1,0.6-0.3,0.9-0.6c-0.1,0.1-0.1,0.2-0.1,0.6c-0.1,0.3-0.1,0.5-0.1,0.6c1.2,0.5,2.6,0.4,4.2-0.2c1-0.4,2.3-1.1,3.9-2.2
		l-0.3,0.4c0.1,0,1.1-0.3,3.2-0.8c1.3-0.3,2.3-0.8,3.1-1.3l0.4-0.8c-0.4,0.9-0.6,2-0.6,3c0.1-0.1,0.4-0.1,0.8-0.2
		c0.4-0.1,0.6-0.2,0.8-0.4c-0.1,0.4,0,0.8,0.1,1.2c0.1,0.6,0.1,0.8,0.1,1c1.3,0,2.5-0.7,3.8-2.2l-0.1,0.7c1.8,0.2,3.7-0.4,5.8-1.8
		c0,0.2,0.1,0.6,0.1,0.9c0.4-0.1,0.8-0.2,1-0.4s0.4-0.6,0.7-1c1.1,1.3,2.3,2.3,3.4,3c1.8,1,2.5,0.5,2.5-1.5c0.8,0.6,1.5,1.1,1.9,1.3
		C90.9,152.7,91.6,152.9,92.1,152.9L92.1,152.9z"/>
</g>
<g>
	<path style="fill:none;stroke:#000000;stroke-miterlimit:10;" d="M171.9,94.7c0.1,0.2,0.4,0.4,0.8,0.4c0.1,0.4,0.4,1.1,0.5,1.8
		l1.7-0.4c-0.3,0.6-0.2,1.1,0.1,1.6c0.5-0.3,0.8-0.4,1-0.6c0.1,0,0.4,0.3,0.8,0.8l1.2-0.5l0.4,0.6c-0.1,0.2-0.4,0.5-0.8,0.9
		c-2.6-0.9-4.7-2-6.2-3.2c0.1,0.1,0.3,0.7,0.5,1.7c0.2,1.1,0.1,1.5-0.1,1.3c1.2,0.7,3,1.7,5.2,2.8l1.3-1.1c0,0.8-0.1,1.5-0.3,2.3
		c-0.1,0.1,0.3-0.4,1.1-1.6l0.3,0.8l0.4-1.3c0,0.3,0.1,0.6,0.1,1c0.1,0.2,0.1,0.5,0.3,0.8c-0.1-0.6,0-0.8,0.1-0.6
		c0.3,0.3,0.6,0.4,0.7,0.4c0.6-0.1,0.9-0.1,1-0.1c-0.1-0.3,0-0.7,0.3-1.3c0.4,0.7,0.6,1.6,0.6,2.3c0.1-0.6,0.2-0.8,0.6-0.9
		c0.7,0,1.1,0,1.1-0.1c0.5-0.8,0.8-1.6,1.1-2.5c0.2-0.1,0.4-0.1,0.6-0.1c0.4,0,0.4-0.3,0.2-0.8l1.1,0.2l-0.4-1.6h0.1
		c0,0.3,0.1,0.4,0.2,0.4l0.4-0.2c0.8,0.2,1.2,0.1,1-0.4l-0.1-0.3l0,0c0.4-0.6,0.4-1.5-0.3-2.6c-0.7-1.3-1.1-2-1-2.2
		c-0.1,0.8-0.6,1.5-1.3,2.3c-0.4,0.4-0.5,0.8-0.1,1c-0.2,0-0.4-0.1-0.5-0.1c-0.2-0.2-0.4-0.3-0.5-0.4c-0.2-0.1-0.5-0.3-0.8-0.6
		l-0.5-0.4l-0.6-1.7c1.3-0.3,1.8-0.4,1.8-0.4c-0.4-0.4-1.2-0.8-2.5-1.2l1.3-0.4c-0.6-0.5-1-0.8-1.1-0.9c-0.1-0.1,0.1-0.4,0.4-0.9
		c-0.7-0.4-1.8-1.4-3.5-3.3c-1.7-1.9-2.5-3.1-2.3-3.5c-0.5,0.8-0.8,2.8-1.1,5.7c-0.2,2.5-1,4.4-2.3,5.5c0.3-0.1,0.8-0.1,1.5-0.1
		c0.7,0.1,0.8,0.1,0.1,0.1c0.2,0.6,0.9,1.1,2.1,1.6c-0.1,0.4-0.3,0.6-0.7,0.6l-1.1,0.2c-1.2-0.7-2.3-1.5-3.3-2.3
		c-1.1-0.8-1.6-1.3-1.6-1.6c-0.1,0.6,0.1,1.2,0.5,1.7C171.7,94.1,171.7,94.4,171.9,94.7z"/>
	<path style="fill:none;stroke:#000000;stroke-miterlimit:10;" d="M178.6,165.6L178.6,165.6L178.6,165.6z"/>
	<path style="fill:none;stroke:#000000;stroke-miterlimit:10;" d="M203.2,158.4c-1.3,0.4-3,0.7-5.2,0.9l-8.3,0.3
		c-0.1-0.8-0.4-1.8-0.8-2.6l-0.6-1.1l1.5,1.5c1,0.9,1.6,1.1,1.7,0.6c0.1-0.4,0.1-0.8,0.1-1.4c0.8,0.6,1.1,1,1,1.3
		c0.1-0.2,0.1-0.6,0-1.3c-0.1-0.7-0.2-1.1-0.4-1.1c0.4,0.1,0.8,0.5,1.4,1c0.5,0.4,0.8,0.8,1.1,1.2l-0.7-2.3c0.4,0.5,1.1,1.1,2.1,1.8
		l-0.3-1.8c0.3,0.4,0.6,0.8,1.1,1.1c0.6,0.5,0.9,0.8,1.1,0.9l-0.8-1.9c0.1,0,0.5-0.1,1.3-0.2c0.8-0.1,1.3-0.1,1.6,0
		c-0.2-0.5-0.6-0.9-0.9-1.3l2.4,0.4c-0.5-0.2-1-0.5-1.4-0.8c-0.2-0.3,0.2-0.3,1.3-0.1c-0.4-0.3-0.3-0.8,0.3-1.6
		c0.5-0.6,0.9-1.1,1.3-1.3l-1.6-0.7c0.2-0.2,0.4-0.4,0.6-0.6c0.3-0.3,0.4-0.6,0.3-0.7c-0.1-0.1-0.3-0.1-0.7,0.1
		c-0.4,0.1-0.8,0.3-1.1,0.5l-0.1-0.1c-0.1-0.1-0.1-0.2-0.3-0.2c-0.4,0-0.8-0.1-1.3-0.3c-0.8-0.3-0.8-0.6-0.2-1.1
		c0.6,0.1,1.1,0.1,1.7,0.3c-0.4-0.1-0.7-0.4-1.1-0.6c0,0,0,0,0.1-0.1l2.3-1.1c-0.1-0.3-0.5-0.6-1.1-1.1c-0.2-0.1-0.5-0.2-1.1-0.1
		l3-1.5l0.9-2.3l-0.6-0.1l0,0l-3.7,1.2l-2.4,0.2c-0.4-0.6-0.7-0.8-0.9-0.8h-2.1l-2.2,1.6c-0.8,0-1.8,0.1-3.1,0.2l-1.8,0.2l-3.9,1.1
		c-2,0.3-3.1,0.5-3.3,0.5c-0.3,0-0.9,0.1-1.8,0.3c-0.8-0.1-2.8-0.1-6.2,0.2c-2.8,0.2-4.7-0.1-5.8-0.8c0.1,0.1,0.7,0,1.7-0.2
		c-0.8,0.1-1.6,0.1-2.4,0.1l-0.1-1.7l0.6-0.2c0.1,0.1,0.3,0.4,0.4,0.4c0.4,0.4,1,0.6,1.7,0.6l-0.1-0.5c0.1,0,0.1-0.1,0.2-0.1
		c4.2,1.8,5.9,1.9,5.1,0.3c-0.1-0.1-0.1-0.1-0.1-0.3l0.7-0.3v0.4l0.4-0.5l1.6-0.6l-0.4,1.1c-0.1,0.8-0.1,1.1,0.4,1.1
		c0.6-0.1,1.9-1.2,4-3.4c0,0.1-0.1,0.3-0.1,0.4c0.2-0.1,0.4-0.4,0.4-0.6l0.6-0.6v0.1v2.8l0.4-0.6l0.2,1.3l2.9-4.1
		c0.2,0.6,0.4,1.1,0.4,1.4c0.2-1.2,0.4-2.1,0.4-2.7l0.1-0.1c1.3,2.5,2.1,3.9,2.4,4c0.3,0.1,0.6-0.6,0.7-2.2l4.3,2.1l-0.2-3.8h0.1
		c0.4,0.8,1.1,1.3,1.9,1.4v-0.5c3.1,1.4,4.5,1.5,3.9,0.3l-0.5-0.8l0.8,0.4c0.4,0.1,0-0.7-1.3-2.3l2.3-0.1l-1.1-0.4
		c0.2,0,0.4-0.1,0.7-0.1s0.5-0.1,0.7-0.1c-0.7-0.1-1.5-0.3-2.4-0.5c-1.1-0.3-1.8-0.5-2.4-0.6c-0.8,0-1.8,0-2.7-0.1l-5.4-2.5
		l-1.3,0.6l-1.6-0.5c0.1,0.1,0.2,0.2,0.2,0.3c-0.3,0.3-1,0.6-2.2,0.8c-1.3,0.3-2.2,0.5-2.5,0.7l-0.9,1.5c-0.6,0.9-1.2,1.5-1.8,1.7
		c-0.5,0.1-1.3,0.6-2.6,1.2c-0.6-0.1-1.3-0.3-2-0.5c-1.3-0.4-2.3-0.6-3.1-0.8c0.1-0.1,0.1-0.2,0.1-0.4c0.1-0.6,0.2-1,0.4-1.3h0.5
		l0.7-0.1c-0.1,0.2-0.1,0.5-0.3,0.8c-0.1,0.3-0.2,0.6-0.2,0.8c0.4-0.3,0.8-0.5,1-0.7c0.4-0.2,0.6-0.4,0.8-0.6l0,0l0,0
		c-0.3,0.6-0.3,1.2-0.1,1.8c0.1-0.1,0.6-0.6,1.3-1.4c1,0.4,1.5,0.4,1.5,0l-0.1-1.8c1.1,1,1.7,1.3,1.8,1c0.1-0.2,0.1-0.6,0.1-1.1
		c0.2-0.1,0.4-0.4,0.6-0.5c0.6,0.3,0.9,0.3,0.8-0.1c0-0.1-0.1-0.4-0.2-0.5c0.4-0.5,0.9-1.1,1.3-1.7c0,0.1,0.1,0.3,0.1,0.6
		c0,0.3,0,0.5,0.1,0.6c0.2-0.4,0.5-0.7,0.8-1l0.4,1.3c0.5-0.5,1.1-1.2,1.8-2l0.1,0.1c0.6,0.2,1,0.3,1.2,0.1c0.1-0.1,0.3,0,0.5,0.1
		c0.3,0.2,0.6,0.4,0.8,0.4c0.6,0.1,0.8,0,0.8-0.4l0.5,0.6c0.4,0.4,0.7,0.5,1.1,0.5c0.3,0,0.5-0.1,0.6-0.4c0.1-0.2,0.2-0.3,0.4-0.1
		c0.4,0.2,1.1,0.8,2.2,1.6l0.2-0.9l0.3,0.3c0.2,0.2,0.5,0.4,0.8,0.4c0.5,0.1,0.8,0,1.1-0.4l2.1,0.2c-0.1-0.1-0.1-0.2-0.1-0.3
		c0-0.1,0.2-0.1,0.7,0.1c0.7,0.4,1.5,0.7,2.3,1c1.3,0.6,1.9,0.6,1.9,0.4l-0.1-1.3c0.8,0.7,1.2,1,1.3,0.7c0.1-0.1,0.1-0.4,0.1-0.8
		v-0.6c0.7,0.5,1.1,0.5,1,0.1c-0.1-0.3-0.2-0.4-0.5-0.6l-0.4-0.2l0.7-1.5l-2.3,0.2c-0.4-0.2-1.2-0.3-2.3-0.3c-0.4,0-1.4,0-3.3,0
		l-5.9-1.7c-0.6-0.4-1.2-0.6-1.6-0.6c-0.1-0.1-0.6-0.1-1.3-0.1c-0.4,0-1.1,0.1-2,0.2c-1.1,0.2-1.8,0.3-1.8,0.3
		c-0.7,0.1-1.3,0.2-1.8,0.3c-1,0.1-1.9,0.3-2.8,0.3c-0.8,0.1-1.3,0.1-1.7,0c-0.7-0.1-1.5-0.2-2.5-0.2c1.1-0.6,1.8-1,2.3-1
		c0.3,0,0.8,0.1,1.8,0.6l0.4-1.1c0.2,0.2,0.4,0.4,0.5,0.7c0.1,0.1,0.1,0.4,0.3,0.8l1.1-1.7c0.4,0.4,0.6,0.8,0.7,1.3
		c0.4-0.6,0.7-1,0.8-1.1c0.3-0.4,0.6-0.6,0.8-0.6h0.1c0.6-0.1,1.1-0.4,1.3-0.6c0.1-0.5,0.3-0.8,0.4-1.2l0.5,0.3l1.6,0.5l1.7,0.3
		c1.8,0.9,3.4,1.8,4.6,2.6c0-0.4,0-0.7,0.1-1.1c0,0,0.4,0.6,1.3,2.1c0-0.4,0.1-1,0.2-1.7c0.4,0.3,0.8,0.7,0.9,1.1
		c0-0.1,0.1-0.3,0.3-0.8c0.2-0.5,0.3-0.7,0.3-0.8c0.4,0.5,0.6,0.8,0.8,1.1c0.1,0.1,0.4,0.3,0.8,0.6l-1.3-2.3c0.5,0.2,0.9,0.6,1.4,1
		c0.3,0,0.5,0,0.7-0.1c0.2,0,0.8,0.3,1.8,0.8c-0.1-0.1-0.3-0.4-0.4-1c-0.2-0.6-0.4-0.9-0.4-0.9c0.1,0,0.4,0.1,0.8,0.2
		s0.7,0.2,0.8,0.1c-0.5,0-0.8-0.3-0.9-0.7c0.6,0.1,0.9,0,1-0.1c0,0.1-0.8-0.3-2.2-1.1c-2.4,0.8-5.1,1.2-8,0.9l0.1-0.4h0.6
		c0.4,0,0.8,0,1.1,0c0.3,0.1,0.5,0,0.6-0.1c0-0.1,0.1-0.2,0.2-0.5c0.1-0.1-0.1-0.2-0.5-0.3c-0.1,0,0.1,0,0.6,0c0.4,0,1,0.1,1.5,0.1
		c0.2,0.1,0.4,0,0.5-0.1c0-0.1,0-0.3-0.1-0.7c-0.1-0.3,0.1-0.4,0.6-0.4h1.3c0.3-0.1,0.5-0.1,0.7-0.4c0.1-0.2,0.3-0.5,0.4-0.8
		l0.1-0.5l0.4-0.7c-0.8,0.1-1.4,0.2-1.8,0.2h-1.6c-0.6,0-1.1-0.1-1.6-0.2c-0.6-0.2-1.1-0.3-1.5-0.4l-3.4-0.4l0.9-0.8
		c1.2,1,1.8,1.3,2.1,1c0.1-0.2,0.1-0.6,0.1-1.1v-0.6l-0.4-0.8c1.4,0.4,2.2,0.9,2.3,1.4c-0.1-0.8,0.4-1.1,1.3-1.1
		c0.2,0,0.8,0.1,1.8,0.4c0.4-0.4,0.7-0.7,0.8-0.7c0.7,0,1.1,0,1.3,0c-0.5-0.4-0.8-0.8-1-1.3c0.9,0.3,1.3,0.4,1.4,0.1
		c0.4-1.1-0.5-1.4-2.6-1.1c-2.3,0.6-3.4,0.8-3.5,0.8h-0.5v-1.2l0.8,0.1c0.1-0.1,0.4-0.5,0.8-0.9c0.5-0.5,0.8-0.7,0.8-0.6
		c-0.2-0.3-0.7-0.4-1.6-0.2c-0.9,0.2-1.5,0.4-1.8,0.4c-0.2,0-0.9-0.1-2.3-0.1c-1.1,0-1.8-0.1-1.9-0.1l0.3,0.1l-2.2-0.5l1.1-3.8
		l2.1,1.4c-0.1-0.3-0.3-0.5-0.4-0.8c-0.1-0.5,0.1-0.6,0.6-0.4c0.1,0.1,0.7,0.4,1.9,1.1c0.7,0.4,1.1,0.4,1.1,0.1c0.1-0.6,0.1-1,0-1.3
		V109c0.3-0.1,0.5-0.1,0.6-0.2l-0.4-0.3l0.2-0.3c0.4,0.3,0.8,0.6,1.5,1.2c-0.1-0.8-0.4-1.5-0.9-2.2l0.6-0.1c0.4,0,0.7,0,0.8,0
		c-0.2-0.4-0.4-0.8-0.6-1.2c-0.2-0.5-0.2-0.7-0.1-0.6c-0.5-0.5-0.9-0.6-1.1-0.4c-0.1,0.1-0.3,0.6-0.4,1.2c-0.6-0.4-0.9-0.8-0.9-1.1
		V104l0,0c0.7-1.6,0.7-3.1-0.1-4.5l-1.2,2.3c-0.4,0.7-0.8,1.3-1.1,1.6c-0.6,0.4-1.1,0.6-1.5,0.7c-0.6,0.1-1.2,0.1-1.9,0.1h-2.3
		c-0.1,0-0.4-0.1-0.8-0.1c-0.5-0.1-0.9-0.1-1.3-0.2l-2.3-0.2h-0.2c-0.6-0.4-1.7-1.1-3.3-1.9c-1.6-0.8-2.7-1.4-3.3-2
		c0.4,0.4,0.4,0.6-0.1,0.6c-0.8,0-1,0.1-0.5,0.3c0.4,0.2,0.8,0.3,1.3,0.3c-0.6,0-1.1,0.1-1.3,0.3c0.3,0.3,0.6,0.5,1.1,0.6
		c0.2,0.1,0.6,0.1,1.2,0.3c-0.1,0.1-0.4,0.3-0.8,0.7c-0.1,0.1-0.2,0.4-0.2,0.8c0.9-0.3,1.5-0.4,1.7-0.4c0,0.1,0.3,0.3,0.7,0.6
		c0.6,0.5,1.1,0.9,1.6,1.2l-0.1,0.2l0.6,0.5c-0.8-0.3-1.5-0.4-1.9-0.4c-0.2,0.1-0.6,0.1-1,0h-0.6c-1,0.1-1.7,0.1-2.1,0.1
		c-0.8-0.4-1.8-0.6-2.8-0.6c-1,0-1.8,0.1-2.3,0.4c0.2,0.1,0.4,0.3,0.6,0.4c0.1,0.1,0,0.3-0.4,0.6l1.6,0.1l-0.4,0.2
		c-0.4-0.1-0.9-0.1-1.6,0c-1.3,0.3-2.1,0.5-2.5,0.6c-0.3-0.1-1.3-0.1-3-0.1c-1.5,0-2.4-0.1-2.7-0.2l0.4,0.2l-3-0.6l1.5-5.2l2.8,2
		c-0.2-0.4-0.4-0.7-0.4-1.1c-0.2-0.6,0.1-0.8,0.8-0.6c0.1,0.1,1.1,0.6,2.6,1.4c0.9,0.5,1.4,0.6,1.5,0.2c0.1-0.8,0.1-1.4,0-1.8v-0.1
		c0.4-0.1,0.7-0.3,0.8-0.4l-0.4-0.4l0.3-0.4c0.5,0.3,1.2,0.8,2.1,1.6c-0.2-1.1-0.6-2.1-1.3-3c0,0,0.3-0.1,0.8-0.1
		c0.6-0.1,0.9,0,1.1,0c-0.3-0.6-0.5-1.1-0.8-1.6c-0.3-0.7-0.4-1-0.1-0.8c-0.8-0.7-1.3-0.9-1.6-0.6c-0.2,0.2-0.4,0.8-0.5,1.6
		c-0.8-0.5-1.3-1-1.3-1.5v-1.3c0.9-2.3,0.9-4.3-0.1-6.2c-0.4,0.8-1,1.9-1.6,3.2c-0.5,1-1,1.8-1.5,2.3c-0.8,0.5-1.5,0.8-2.1,0.9
		c-0.4,0.1-0.7,0.1-0.8,0.1c-0.1,0-0.8,0-1.8,0h-3.1c-0.2,0-0.6-0.1-1.1-0.1c-0.6-0.1-1.3-0.3-1.8-0.3l-3.5-0.4
		c-0.8-0.6-2.3-1.5-4.6-2.5c-2.2-1.1-3.7-1.9-4.5-2.7l0,0c0.5,0.6,0.4,0.8-0.1,0.8c-1.1,0-1.3,0.1-0.7,0.4c0.6,0.3,1.2,0.4,1.7,0.4
		c-0.8,0-1.5,0.1-1.9,0.4c0.4,0.4,0.9,0.6,1.5,0.8c0.4,0.1,0.9,0.3,1.6,0.4c-0.1,0.1-0.5,0.4-1.1,0.9c-0.2,0.1-0.3,0.6-0.3,1.1
		c1-0.4,1.8-0.6,2.3-0.6l0.9,0.8c0.8,0.7,1.6,1.2,2.3,1.6l-0.1,0.4l0.8,0.6c-1.2-0.4-2.1-0.6-2.6-0.5c-0.4,0.1-0.8,0.1-1.4,0.1
		l-0.8-0.1c-1.2,0.1-2.1,0.2-3,0.2c-1.1-0.6-2.4-0.8-3.9-0.8c-1.3,0-2.4,0.2-3.2,0.6c0.3,0.2,0.6,0.4,0.9,0.6
		c0.1,0.1-0.1,0.4-0.6,0.8c0.5,0.1,1.3,0.1,2.3,0.1l-2.1,1.2c0.5-0.1,1.2-0.1,2.2,0c1.1,0.1,1.8,0.1,2.3,0.1l-1.5,2.8
		c0.1-0.1,0.7-0.2,1.7-0.4c0.9-0.2,1.3-0.4,1.3-0.6c0,0.1,0.1,0.6,0.3,1.5c0.1,0.8,0.1,1.3,0.1,1.6c-0.7,0.1-1.6,0.2-2.6,0.1
		c-0.9-0.1-1.7-0.2-2.3-0.4c-0.4-0.1-0.9-0.1-1.8-0.1c-0.9,0-2-0.1-3-0.2l-1.3-0.3l0.9,0.8c0.6,0.6,1.1,1.1,1.2,1.3
		c0.2,0.3,0.6,0.6,1.1,0.8l-0.7-0.3l0.6,2.1l0.5,1l0.6,0.1c0.4,0.1,0.5,0.3,0.4,0.5v0.1c-2.1-0.8-3.7-1.8-4.8-2.7
		c0,0.2,0.1,0.6,0.3,1s0.2,0.8,0.2,1.1c-0.7-0.3-1.8-1-3.2-2.1c-1.6-1.3-2.3-2.2-2.2-2.6c-0.1,0.5-0.2,1.9-0.4,4.2
		c1.3,0.2,2.1,0.4,2.5,0.6c0.2,0.1,1,0.6,2.5,1.6l-1.3,1.1c0.2-0.1,1-0.2,2.3-0.4c1-0.2,1.8-0.4,2.4-0.7c-0.2,0.2-0.6,0.6-1.1,1.1
		s-0.8,1-1.1,1.2c3.5,0.8,5.4,0.9,5.4,0.3c0,0.4-0.2,1.1-0.6,2.1c-0.6,0.1-1.1,0.3-1.3,0.3c-0.4,0.1-0.8,0.1-1.1,0.1h-2.3l-7.4-0.4
		c-0.4,0-0.6,0.1-0.8,0.4c-0.1,0.3,0.2,0.6,0.9,1.1c1.2,0.7,2.3,1.2,3.5,1.5l-0.4,0.5c-0.2,0.4-0.2,0.6-0.1,0.8
		c0.2,0.4,0.9,0.5,2.1,0.5l1,0.6l-1,1c-0.4,0.6-0.2,0.9,0.6,0.8c0.8-0.1,1.6-0.4,2.2-0.7l0.6-0.5l0.8,2l3.3-0.1l1.5,1.1l4.2-1.8
		l1.8,0.1l1.3-0.1h1.3c0.9,0,1.5,0.1,1.8,0.1c0.6,0.1,1.3-0.1,2.1-0.8l3.6,0.4l2-0.8l2.1,0.5l0.6,0.4c-0.5,0.5-1.2,0.8-2.1,1.2
		c-0.1-0.1-0.1-0.1-0.2-0.3c0.1,0.1,0.1,0.2,0.1,0.3c-1.5,0.5-3.5,0.8-6,0.8c-4.7,0-7.6,0.1-8.8,0.3c0.3,0.6,0.5,0.8,0.6,0.6
		c0.3-0.4,0.6-0.6,0.9-0.6c-0.5,1-1.2,1.8-2.2,2.3c1.8-0.4,3-0.6,3.5-0.9l-0.4,2.1l0,0l-3.2-0.1c-1.1-0.4-2-0.6-2.6-0.2
		c-2.4-1.8-5.7-2.2-9.9-1.5c-2.4,0.4-4,0.6-4.7,0.7c-1.6,0.1-3-0.2-4.2-0.8c1.6,0.8,3,1.4,4.2,1.6l0,0c0.9,0.1,2.5,0.2,4.9,0.2
		c-0.7,0-1.7,0.3-2.8,0.8c-1.7,0.8-2.6,1.2-2.8,1.2c0.8-0.1,1.8-0.2,3.2-0.3c1.1-0.1,2.2-0.4,3.1-0.7l-2.4,2.5l0.8,0.8
		c1.3-0.5,2.2-0.7,2.6-0.7c0.2,0,0.6,0,0.9,0.1c1.1-1.6,1.8-2.5,2.1-2.7c0.4-0.2,0.7,0.5,0.8,2.2c0.3-0.3,0.8-0.6,1.4-1.1
		c0.7-0.4,1.1-0.8,1.4-1c0.3,0.5,0.3,0.9,0,1.3c0.2,0.1,0.6,0,1.3-0.3c0.6-0.3,1.1-0.4,1.3-0.3c0.2,0.1,0.4,0.7,0.6,1.6
		c0.3,0.6,1.1,0.2,2.2-1.1c-0.3,0.4-0.8,1.2-1.8,2.5c-0.9,1.3-1.7,2-2.2,2.1c0.6-0.2,1.4-1,2.5-2.3c1.2-1.5,2.1-2.3,2.5-2.5l0.4,0.1
		c-0.1,0.6-0.2,1.5-0.4,2.8c-0.3,1.3-0.4,2.1-0.5,2.1c1.3-1.3,2.3-2.4,3-3c0.3,0.6,0.3,1.2,0,1.8c1-0.8,1.8-1.3,2.3-1.3
		c0.4,0,1.3,0,2.5,0c-0.2,0.4-0.6,1.1-1,2.3c-0.4,1-0.7,1.8-1.1,2.2c1.8-1.2,3.4-2.8,4.7-5c0.1,0.1,0.1,0.5,0.1,0.9
		c0,0.4,0.1,0.7,0.1,0.8c0.3-0.6,0.7-1,1.2-1.3l0.4,1.1c-0.3,0.1-0.6,0.1-0.8,0.1c-1.4,0.3-1.8,0.5-1.1,0.7c1.1,0.3,2,0.4,2.6,0.2
		l-0.5,0.4c-0.2,0.2-0.1,0.4,0.2,0.4c-0.6,0.1-1.1,0.4-1.3,0.5c0,0-0.4,0.7-1.3,2.1c-0.8,1.3-1.6,2.1-2.5,2.3
		c-1.1,0.4-2.9,1.3-5.7,2.7c-8.3,2.5-13.8,4.2-16.3,5.2c-1.5-0.2-2.8-0.6-3.8-0.9c0,0.6,0.3,1.1,0.7,1.5c-2,0.1-4.4,0-7.4-0.3
		c-3.3-0.4-5.7-0.6-7.4-0.7l1.6,1.1c-1.1,0-2.3,0.1-3.5,0.4c-0.1,0,0.4,0.2,1.3,0.6c0.8,0.4,1.5,0.6,1.8,0.6l1.9,0.1
		c-1.1,0.1-1.8,0.1-2.3,0.1c-1,0.1-1.7,0.3-2.2,0.6c0.6-0.4,2-0.4,4-0.1l0,0c1.8,0.2,3.3,0.6,4.5,0.9c-0.2,0.1-0.6,0.6-1.3,1.2
		c-0.6,0.6-1,1-0.9,1c3.2,0,7.3-0.4,12.3-1c-0.4,0.1-1.3,0.8-3,2c0.7-0.2,1.8-0.4,3.3-0.4c1.5-0.1,2.6-0.3,3.3-0.4
		c-0.4,0.3-0.8,0.8-1.6,1.6c-0.6,0.8-1.2,1.3-1.6,1.6c0.7,0,2.3-0.4,4.5-1.1c2.5-0.8,4-1.4,4.3-2c-0.1,0.3-0.6,1.1-1.5,2.5
		c-0.8,1.2-1.1,1.8-0.9,1.8l-6,0.1l-12.8,3.6h1.2l-3.5,0.2c1.8-0.1,4.2,0.1,7.4,0.6c3.4,0.4,5.9,0.7,7.6,0.7
		c-0.9,0.8-2.1,1.5-3.4,2.1c1-0.1,1.8-0.1,2.3-0.1c-0.7,0.2-1.6,0.4-2.5,0.8c-1.5,0.6-2.3,0.8-2.3,0.9c0.6-0.1,1.9-0.2,4-0.4
		c2-0.3,3.2-0.6,3.6-1.1c-0.4,0.5-1.1,1.1-2.2,1.8c-1.1,0.8-2,1.2-2.4,1.1c0.9,0.3,2.1,0.1,3.5-0.5c1.1-0.4,2.1-1.1,3.1-1.8
		c-2.6,2.5-3.2,3.5-1.7,3.1c1.3-0.3,2.4-0.9,3.3-1.9c0,0.4,0.1,1.2,0.4,2.4l1.6-3c0.4,1.8,0.5,2.7,0.5,2.7c0.8-0.8,1.3-1.8,1.6-2.8
		c0.1,0.1,0.2,0.3,0.3,0.8c0.1,0.4,0.2,0.7,0.5,0.8c0.7-0.1,1-0.6,0.8-1.3l0.6,2.5c1.3-1.3,2.7-2.3,4.1-3.1c1-0.2,2-0.5,2.8-0.8
		c0.6,0.1,1.1,0.3,1.5,0.8l-0.9,1.4c3,0.8,4.7,1.1,4.9,0.5c0.1-0.4,0.8-0.8,1.8-1.5l1.6-0.9l-0.1,1.5c-0.1,1.1-0.1,2.1-0.1,2.9
		l-8.3,2.7c-3.4,0.8-6.5,1.3-9.2,1.6c-0.8-0.1-1.4-0.2-2.1-0.2c-0.8-0.1-1,0-0.7,0.2c0.1,0.1,0.2,0.1,0.5,0.3c-1.2,0.1-2,0.1-2.3,0
		c0.6,0.6,1.3,1.1,2.5,1.3c0.9,0.2,1.8,0.3,2.8,0.1c-1,0.2-2.1,0.6-3.1,1c0.5,0.1,1.2,0.1,2.1-0.1c0.5-0.1,1.3-0.1,2.2-0.3
		c-0.4,0.2-0.5,0.5-0.4,1c0.1,0.2,0.5,0,1.1-0.6c0.7-0.7,1.2-1.2,1.5-1.5l0.7-0.1v0.4c-0.7,0.5-1.2,1-1.5,1.6
		c-0.4,0.6-0.1,0.8,1,0.5c0.7-0.2,1.3-0.5,1.9-0.8c0.6-0.4,1-0.6,1.2-0.8l-0.1,0.4l0.8-0.8l0.6-0.1c0.5,0,1.1-0.4,1.9-1
		c0.2-0.1,0.3-0.2,0.2-0.1c-0.1,0.1-0.3,0.5-0.7,1.1c-0.6,0.8-1.6,1.8-3.3,2.9c-0.4,0.3-0.6,0.4-0.4,0.4c0.1,0,0.8-0.2,2.1-0.6
		c2.1-0.7,3.7-1.4,4.8-2.1l1-0.8l0.1,0.7c-0.1,0.1-0.1,0.1,0,0.2h0.1l0.4,1.9l-1.8-0.3l-1,1.1c-0.6,0.7-0.8,1.1-0.6,1.1l-4.9,1.8
		l-8.8,0.1c0.3-0.1,0.8-0.5,1.8-1c0.6-0.3,0.8-0.5,0.7-0.6c-1.9-1.1-3.4-1.8-4.5-2.3c-1.6-0.6-3.3-0.6-4.9-0.4
		c0.4,0.7,1.1,1.4,2.1,2.2c0.6,0.4,1.4,1.1,2.5,2h-0.8l0.6,1.3l3.8,1.3l-1.6,2.3l5.9-0.5c-0.6,0.5-1.1,1-1.5,1.6
		c-0.1,0.2,0.6,0,2.1-0.7c1.5-0.7,2.2-1.1,2.2-1.2c0.1,0.4,0.2,1,0.3,1.8c0.1,0.9,0.2,1.6,0.2,1.9c0.7-1.5,1.2-2.8,1.6-3.9
		c0,0.5,0.1,0.9,0.2,1.4c0.1,0.3,0.3,0.6,0.5,1.1c-0.1-1.1-0.2-2.2-0.1-3.3l0.4-0.3c0.4,0.5,1.1,1.9,1.8,4.4c0-0.1,0.2-0.6,0.6-1.7
		c0.4-1.1,0.6-1.9,0.7-2.3l1.4-0.9v0.6v0.4c0.1,0.1,0.5,0.1,1.2-0.1l1.6-0.7l1.8,3.3c-0.5-0.9-0.7-1.6-0.6-2
		c0.1-0.6,0.7-0.5,1.9,0.1c0.4,0.2,1.7,1.1,3.8,2.5c0.8,0.5,1.2,0.4,1.3-0.1c0.1,0,0.4-0.5,0.9-1.4c0.5-0.8,0.8-1,0.9-0.7
		c0.1,0.4,0.2,1.1,0.3,1.9c0.1-0.2,0.1-0.5,0.3-0.8c0.1-0.3,0.2-0.4,0.2-0.4c0.2,0.2,0.5,0.8,0.8,1.6c0.3,0.6,0.6,1.1,1.1,1.5
		c0-0.9,0.1-1.8,0.4-2.8c0.9,0.4,1.6,1,2.1,2c0.4,0.7,0.1,0-1-2.2c0.2,0,0.4,0,0.4,0l0.2-0.2c2.1,0.6,3.4,0.8,4,0.6
		c-0.7-0.4-1.6-0.8-2.5-1c0.2,0,0.6-0.1,1.3-0.1c0.5,0,0.9,0,1.2-0.1l-0.4-0.1l2.5-0.1l2.2,0.2c0.8-0.1-0.5-0.6-3.7-1.5
		c-3-0.9-5.4-1.7-7.1-2.5c-1.6-0.7-2.5-1.1-2.8-1.1c-0.4-0.1-0.7-0.3-1.1-0.5c-0.4-0.3-1.6-0.6-3.7-1.1l-0.6-0.1l4.1-5.2v4.1
		c0.2,2.4,0.8,2.8,1.7,1.1c1-1.6,1.7-3.2,2.2-4.6l0.4-1.6l0.6,0.6l-0.5-0.1l0.6,0.1l4.2,4.5l-4,0.7c1,0.8,1.8,1.3,2.7,1.6
		c0.8,0.3,1.8,0.4,3,0.5c-0.4-0.5-0.4-1-0.1-1.5c0.6,0.2,1.6,0.6,3.3,1.5c0-0.1-0.3-0.6-0.8-1.4c-0.4-0.6-0.4-0.9,0.1-1.1
		c-1.1-0.2-2.1-0.4-3.1-0.4l1.8-1.4c-0.1,0,0-0.1,0.2-0.3c0.2,0.1,0.4,0.1,0.5,0.1c0.1,0,0.1-0.1-0.1-0.4l1.1-0.6
		c0.7,0.4,1.3,0.6,1.7,0.6l-0.1-1.3l1.1-0.4l0.7,0.3l-0.2-0.5l2.1-0.8l1.5,0.8c-0.3-0.3-0.5-0.6-0.6-1.1l1.5-0.6
		c0.4,0.1,0.8,0.1,1.2,0.1l0.3-0.8c0.9-0.4,1.6-0.7,2.3-1l0.2,0.4c-0.1-0.1-0.1-0.3-0.2-0.4c0.6-0.3,1.1-0.5,1.5-0.7
		c0.4,0.3,1.3,0.8,2.5,1.7c0.5,0.4,0.8,0.4,0.9-0.1c0,0,0.3-0.4,0.7-1.1c0.4-0.6,0.6-0.7,0.7-0.5c0.1,0.4,0.1,0.9,0.2,1.4
		c0.1-0.6,0.3-0.8,0.4-0.8c0.1,0.2,0.4,0.6,0.6,1.1c0.2,0.5,0.5,0.8,0.8,1.1c0-0.8,0.1-1.5,0.3-2.1c0.7,0.3,1.2,0.8,1.5,1.4
		c0.1,0.2,0.1,0.1-0.1-0.4c-0.2-0.4-0.4-0.8-0.6-1.2c0.1,0,0.2,0,0.3,0l0.1-0.1c1.6,0.4,2.5,0.6,2.9,0.4c-0.6-0.3-1.1-0.6-1.8-0.7
		c0.2,0,0.5,0,0.8,0c0.4,0,0.6,0,0.8-0.1h-0.2l1.8-0.1l1.6,0.1c0.6,0-0.4-0.4-2.8-1.1c-2.2-0.6-4-1.3-5.2-1.8
		c-1.1-0.5-1.7-0.8-2-0.8c-0.3-0.1-0.5-0.2-0.8-0.4c-0.3-0.2-1.2-0.4-2.8-0.8l-0.4-0.1l3-3.8v3c0.1,1.8,0.6,2.1,1.3,0.8
		s1.2-2.3,1.6-3.3l0.4-1.2l0.4,0.4l-0.4-0.1l0.4,0.1l3,3.3l-2.9,0.5c0.7,0.6,1.4,1,2,1.2s1.3,0.3,2.2,0.4c-0.3-0.4-0.3-0.7-0.1-1.1
		c0.4,0.1,1.2,0.5,2.3,1.1c0-0.1-0.2-0.4-0.6-1c-0.3-0.4-0.3-0.7,0.1-0.8l-2.3-0.3l1.3-1.1c-0.1,0-0.1-0.1,0.1-0.1l0.4,0.1
		c0,0,0-0.1,0-0.3l0.8-0.4c0.5,0.3,0.9,0.4,1.2,0.5l-0.1-1l0.8-0.3c0.3,0.1,0.4,0.2,0.5,0.2l-0.1-0.4l1.5-0.6l1.1,0.6
		c-0.2-0.2-0.4-0.5-0.5-0.8l1.1-0.5c0.2,0.1,0.5,0.1,0.8,0.1l0.2-0.6c1.6-0.7,2.6-1.2,3-1.4c0.4-0.4,0.6-0.8,0.6-1.1
		C205.1,158.2,204.5,158,203.2,158.4z M184.9,119.1l0.8,0.6l-1-0.1L184.9,119.1z M129.6,115.8c-0.5,0-1.1,0.1-1.6,0.1
		c0.8-1.1,1.5-1.6,2.1-1.6c0.5,0,1,0.4,1.5,1l0,0C131.1,115.6,130.4,115.8,129.6,115.8z M135.1,104.1l-0.7,0.4
		c0.2-0.3,0.6-0.6,0.8-1.1c0.5-0.6,0.7-1,0.7-1c-0.1,0.1-0.3,0.5-0.5,1.1C135.4,103.8,135.2,104,135.1,104.1z M152.4,146
		c-0.2,0.1-0.5,0.4-0.9,0.8c-0.2,0.2-0.4,0.4-0.4,0.4l1-1.4C152.1,145.9,152.2,146,152.4,146z M161,113c1,0.3,1.8,0.6,2.3,0.9
		l0.1,0.2l0.4,0.7l0.4,0.1c0.3,0.1,0.4,0.2,0.3,0.4l0,0c-1.3-0.5-2.3-1.1-3.2-1.7L161,113z M167.1,130.1c0.5-0.2,0.8-0.3,0.9-0.2
		c0.1,0.1,0.2,0.3,0.3,0.6c-0.6,0-1.3,0-2.3,0l-1.1-0.3c0.1,0,0.1-0.1,0.1-0.1c0.5-0.3,0.8-0.6,1-0.7c0.2,0.4,0.2,0.6,0,1
		C166.4,130.3,166.7,130.3,167.1,130.1z M168.1,137.3c-0.3,0-0.6,0-0.9,0c0.1-0.1,0.1-0.1,0.2-0.1c0.5-0.4,0.8-0.6,0.8-0.8
		C168.1,136.5,168.1,136.8,168.1,137.3z M161.8,133.9l0.4,0.4c0.1,0.1,0.2,0.2,0.4,0.3c-0.4,0-0.6,0-0.9,0L161.8,133.9z M163.4,127
		c-0.2,0-0.4,0-0.6,0c0-0.2,0.1-0.5,0.1-0.8C162.9,126.2,163.1,126.4,163.4,127z M164.9,137.1L164.9,137.1L164.9,137.1L164.9,137.1z
		 M163.7,136.7l-0.1-0.1C163.7,136.7,163.7,136.7,163.7,136.7z M166.8,137.3c-0.2,0-0.5,0-0.7-0.1c0.9-0.8,1.4-1.1,1.4-1.1
		C167.3,136.6,167,136.9,166.8,137.3z M164.4,134.6c0.1-0.1,0.1-0.1,0.2-0.2l1.9,0.2C165.9,134.6,165.2,134.6,164.4,134.6z
		 M171.2,130.5c-0.1,0-0.4,0-0.6,0c-0.1,0-0.2,0-0.3,0c0.2-0.2,0.4-0.4,0.6-0.4l0.4,0.1C171.2,130.3,171.2,130.4,171.2,130.5z
		 M170,130.5C170,130.5,169.9,130.5,170,130.5c0-0.1,0.1-0.1,0.2-0.3C170.1,130.3,170,130.3,170,130.5z M164.9,127.2
		c0.1-0.1,0.1-0.3,0.1-0.5c0.4,0.2,0.6,0.5,0.8,0.8C165.5,127.4,165.2,127.3,164.9,127.2z M160.3,123.9l0.1-0.5l0.4-0.1L160.3,123.9
		L160.3,123.9z M161.4,116.6c0.7-0.1,1.3-0.3,1.8-0.5c-0.1,0.1-0.4,0.4-0.7,0.7c-0.1,0-0.1,0-0.1,0l-1.4-0.1
		C161.1,116.7,161.3,116.6,161.4,116.6z M158.5,115.1c0.8,0.6,1.4,1.1,1.9,1.3l-0.2,0.1l-2.5-0.2L158.5,115.1z M162.7,123.8l0.1,0.2
		c-0.1,0-0.3,0-0.4,0C162.6,123.9,162.7,123.8,162.7,123.8z M163.7,129.3c0.2-0.1,0.4,0.1,0.4,0.6l-0.8-0.2
		C163.5,129.4,163.6,129.3,163.7,129.3z M159.5,128.6l-0.4-0.1c0.4,0,0.6,0,1.1,0C160,128.5,159.8,128.5,159.5,128.6z M150.3,131.8
		L150.3,131.8c0.8,0.4,1.3,0.4,1.7,0.2c0.2-0.1,0.4-0.1,0.7,0.1c0.4,0.3,0.8,0.5,1.1,0.5c0.5,0.1,0.8,0,1-0.2l0.1-0.3l0.6,0.8
		c0.5,0.5,1,0.8,1.5,0.8c0.4,0,0.6-0.2,0.8-0.6c0.1-0.3,0.3-0.4,0.6-0.2c0.4,0.3,1.1,0.8,2.2,1.6c-0.8-0.1-1.5-0.1-1.9-0.2
		c-0.1,0-0.1,0-0.2,0l-1.3-0.6l-0.8,0.4c-0.7-0.1-1.3-0.2-1.8-0.4l0,0c-0.6-0.1-1.6-0.4-3-0.9c-0.6-0.2-1.2-0.4-1.6-0.6L150.3,131.8
		z M148.3,144.8h0.4v0.1c-0.1,0-0.4,0-0.5,0.1L148.3,144.8z M154.6,142L154.6,142c0.4,0.6,0.6,1.1,0.9,1.6c-0.4,0-0.8-0.1-1.2-0.1
		C154.5,142.6,154.6,142.1,154.6,142z M177.5,164.3c0,0.1,0,0.1,0,0.2l0,0l0.2,1.3l-1.3-0.2l-0.8,0.8c-0.4,0.5-0.6,0.8-0.5,0.8
		l-2,0.8l-0.8-1.8c0.2-0.1,0.5-0.1,0.8-0.3c0.8-0.3,1.6-0.6,2.2-0.8c0.3,0,0.5,0.1,0.6,0.1c-0.1-0.1-0.1-0.2-0.1-0.4
		c0.4-0.1,0.6-0.3,0.9-0.5l0.7-0.6l0,0L177.5,164.3z M172.2,165.5c0.1,0,0.4-0.1,1-0.1c-0.2,0.2-0.5,0.4-0.8,0.6L172.2,165.5z
		 M174.7,163.3L174.7,163.3C174.8,163.4,174.8,163.4,174.7,163.3C174.8,163.4,174.8,163.4,174.7,163.3z M169.3,166.7
		c0.8,0.6,1.3,1,1.4,1.1l-0.4-2.3c0,0,0,0,0.1,0c0.4,0.5,0.8,1,1.5,1.5c0.6,0.5,1,0.8,1.3,1.1l-1.4,0.5H169l-1-3.1
		C168.3,165.8,168.7,166.2,169.3,166.7z M165.9,168.2c0.1,0.1,0.1,0.2,0.1,0.3h-0.6C165.5,168.4,165.6,168.3,165.9,168.2z
		 M166,168.1c0.8-0.4,1.2-0.7,1.1-0.7c-0.4-0.3-0.8-0.5-1.2-0.7c-0.1-0.7-0.3-1.1-0.6-1.3c0.5,0.2,1.2,0.7,2,1.4
		c0.6,0.6,1.1,1.1,1.6,1.6H166C166,168.4,166,168.2,166,168.1z M178.2,165.9l0.6-0.7l-0.2,0.4c0.1-0.1,0.4-0.3,0.8-0.5
		c0.3-0.1,0.7-0.3,1.3-0.5l0.8,2.1C180.6,166.4,179.4,166.1,178.2,165.9z M179.9,159.7c-0.5,0.1-1,0.3-1.4,0.4
		c0.6-0.7,1.1-1.2,1.5-1.4l-2-0.8c0.2-0.2,0.6-0.4,1-0.7l1.1-0.7L179.9,159.7z M178,146L178,146c-0.1,0-0.1,0-0.2,0H178z
		 M167.2,143.5v-0.1C167.2,143.3,167.3,143.3,167.2,143.5C167.3,143.4,167.3,143.5,167.2,143.5z M167.5,134.6
		c-0.1-0.1-0.1-0.2-0.1-0.3c0-0.2,0.4-0.1,0.9,0.2c0,0,0.1,0,0.1,0.1C168.1,134.6,167.8,134.6,167.5,134.6z M171.4,128.5
		L171.4,128.5l-2.3-0.1c-0.8-0.3-1.5-0.4-1.9-0.1c-0.3-0.2-0.6-0.4-0.8-0.5c0.1-0.1,0.1-0.4,0.2-0.6c0.3-0.6,0.4-1,0.4-1
		c0.5,0.7,0.9,1.1,1.2,1.4c0.2,0.2,0.6,0.4,1.1,0.8l-1.6-3l0.1-0.1c0.6,0.4,1.2,0.7,1.7,1.2c0.1,0,0.2,0,0.3,0c0.1,0,0.1,0,0.1,0
		c0.1,0,0.4-0.1,0.5-0.1c-0.4,0.6-0.8,1-1.3,1.3c1.3-0.3,2.2-0.5,2.5-0.7L171.4,128.5z M176,124l2.6,0.2l1.5-0.6l1.6,0.4l0.4,0.2
		c-0.8,0.9-2.9,1.4-6,1.5c-1.4,0-2.5,0-3.5,0.1c-0.2-0.7-0.4-1.1-0.4-1.1c0.1,0,0.5,0.1,1.1,0.4c0.6,0.1,0.9,0.2,1.1,0.1
		c-0.6-0.1-0.9-0.3-1.1-0.7c0.6,0,1.1,0.1,1.3,0.1C174.8,124.7,175.3,124.5,176,124z M170.9,109.8
		C170.9,109.8,170.9,109.8,170.9,109.8c0-0.1,0.1-0.1,0.1-0.2C171,109.7,170.9,109.8,170.9,109.8z M163.8,109.5
		c0.1-0.2,0.6-0.6,1.2-1.3c0.2-0.2,0.4-0.4,0.6-0.5c0.1,0,0.4,0,0.6,0.1c0.8,0.1,1.3,0.1,1.6,0.1l-1.1,2.1c0.1-0.1,0.5-0.1,1.2-0.3
		c0.6-0.1,1-0.3,1-0.5c0.1,0.2,0.1,0.4,0.1,0.6c-0.3,0-0.6,0.1-0.8,0.1c-3,0.8-4.6,1.1-4.7,1.1c-0.2,0-0.4-0.1-0.7-0.1v-1.6
		L163.8,109.5z M161.3,111.1l-0.9,0.1l-0.1-0.1L161.3,111.1z M155.2,115.3l1.2,0.8c-0.4,0-0.9-0.1-1.5-0.1L155.2,115.3z
		 M150.6,124.3c0.3-0.6,0.5-1.2,0.6-1.6l0.7,0.4l2.1,0.7l2.4,0.4c0,0,0,0,0.1,0c0,0.1,0.1,0.2,0.2,0.4c0.1,0.7,0.6,1.1,1.3,1.3
		c0.4,0.1,0.9,0.1,1.4-0.1c0.8,0.4,1.6,0.8,2.3,1.3c-0.5,0.1-1.1,0.1-1.6,0.2c-1.2,0.2-2.2,0.4-3.1,0.4c-0.4-0.1-0.7-0.2-1-0.2
		c-0.2,0-0.4,0-0.6-0.1c-0.2-0.1-0.6-0.1-1.2-0.1c-0.1,0-0.2,0-0.4,0c-0.1-0.1-0.2-0.1-0.3-0.1c0.1,0.1,0.1,0.1,0.2,0.1
		c-0.1,0-0.2,0-0.3,0c-0.1-0.1-0.1-0.1-0.1-0.2c-0.4-0.6-1.1-1.1-2.1-1.6c-0.4-0.2-0.7-0.4-1.1-0.6
		C150.3,124.5,150.4,124.5,150.6,124.3z M142.4,128.6c-1.1,0.1-1.8,0-2.3,0c-0.8-0.1-2-0.2-3.5-0.3c1.5-0.9,2.5-1.3,3.2-1.4
		c0.4,0,1.3,0.2,2.4,0.8l0.5-1.5c0.3,0.3,0.5,0.6,0.6,0.9c0.1,0.2,0.3,0.6,0.4,1.1l1.6-2.3c0.5,0.6,0.8,1.1,1,1.7
		c0.6-0.9,1-1.4,1.1-1.6c0.4-0.6,0.8-0.8,1.2-0.8l0,0h0.1c0,0.3,0,0.6-0.2,0.8c0.2-0.2,0.6-0.1,1.5,0.3c0.4,0.2,0.9,0.6,1.4,0.8
		l-0.9,0.4c-0.8,0.1-1.3,0.2-1.7,0.2C146.6,128.2,144.4,128.5,142.4,128.6z M148.9,133.5l0.4,0.2c-0.3,0-0.5,0.1-0.7,0.1
		L148.9,133.5z M149.8,135.4c0.4-0.1,0.5-0.1,0.6-0.1c-0.3,0.1-0.6,0.1-0.8,0.1C149.6,135.4,149.7,135.4,149.8,135.4z M134.1,156.1
		l0.6-0.5l0.1,0.6L134.1,156.1z M138.3,156.2h-2c0.8-1.3,1.4-2,1.9-2C138.4,154.3,138.4,154.9,138.3,156.2z M138.9,156.2l0.3-0.3
		l0,0l0.2,0.2L138.9,156.2z M144.8,151.6c-1.1-0.2-3.9-0.1-8.5,0.3c-3.8,0.3-6.4,0-8-1.1c0.1,0.1,0.5,0,1.1-0.1
		c0.6-0.1,1.1-0.2,1.1-0.2c-1.9,0.1-3.7,0.3-5.2,0.4c-3,0.2-4.5,0.2-4.5,0c0-0.1,0.9-0.4,2.8-1.1c1.9-0.6,3.1-1,3.5-1h-1.6l7-2.1
		c-0.1,0.1-0.4,0.5-0.9,1.2c-0.4,0.5-0.8,0.8-1,1.1c0.8-0.2,1.9-0.8,3.4-1.8c1.3-0.9,2.5-1.5,3.3-1.5c0.3,0,0.1,0.7-0.6,2.1l0.7-0.5
		l-2.1,2.5l3.5-1.3l0.1,0.5l0.6-0.7l2.3-0.8l-0.5,1.6c-0.2,1,0,1.5,0.5,1.4c0.8-0.1,2.5-1.7,5.5-4.7c0,0.2-0.1,0.3-0.1,0.4
		c0.2-0.1,0.4-0.4,0.6-0.8l0.2-0.2c0.2,0,0.4,0,0.7,0.1c0,1.6,0,2.6,0,3.2l0.5-0.8l0.3,1.9l1.3-1.9c1.9,0,4.2-0.1,6.9-0.4
		c0.1,0.2,0.3,0.4,0.4,0.4c0.2,0.1,0.4-0.1,0.6-0.5c0.4-0.1,0.8-0.1,1.1-0.1c-0.4,0.2-1.1,0.6-2.2,1.4c0.6-0.1,1.3-0.2,2.4-0.3
		c1.1-0.1,1.9-0.2,2.4-0.3c-0.2,0.2-0.6,0.5-0.9,0.9c-0.5,0.1-1.1,0.1-1.6,0.2l-2.4,0.4l-4.6,1.3c-0.8-0.2-1.8-0.4-2.7-0.7
		c0.2,0.5,0.1,0.8-0.6,0.7c-0.6-0.1-0.8,0-0.8,0.1l0,0c0.5,0.1,1.2,0.3,2,0.4c-1.9,0.3-3,0.4-3.3,0.4
		C146.9,151.3,146.1,151.4,144.8,151.6z M148.3,154.4h-0.8c-0.2-1.2-0.9-1.8-2.2-2.1l4.2,0.6l0.5-0.4c0.3-0.1,0.7-0.1,1.2,0.1
		c-0.1,0.1-0.4,0.2-0.6,0.4c0.3-0.1,0.5-0.2,0.7-0.3c0.3,0.1,0.6,0.3,1,0.6c0,0-0.1,0-0.1,0.1l-1.4,0.4h0.7c0,0,0,0-0.1,0l-2.3,0.1
		c0.5,0,1.1,0,1.8,0.1C150.3,154.2,149.4,154.3,148.3,154.4z M145.9,179.8l0.8-0.9l-0.3,0.5c0.1-0.2,0.6-0.4,1.1-0.6
		c0.4-0.1,0.9-0.4,1.8-0.7l0,0l1.3,2.8L145.9,179.8z M150,170.6L150,170.6l1.3-3l1.1,2.3L150,170.6z M156.2,170.3l0.5-2.3l0,0l2.3,3
		L156.2,170.3z M161.8,171.1c-0.2-1.2-0.6-2.4-1.1-3.6l-0.8-1.5l2.1,2.1c0.5,0.5,0.9,0.8,1.3,1l0.2,0.4l2.8,0.9l-0.4,0.5
		L161.8,171.1z M181.2,159.2l0.9-2.2l0.8,1.6L181.2,159.2z M179.9,147.4c-0.1,0-0.2,0-0.4,0l0.5-1.2l0.8,0.1l0.4-0.4l0,0
		c0.4-0.1,0.9,0.1,1.6,0.6C182.5,147.1,181.6,147.4,179.9,147.4z M185.7,159l0.4-1.6l1.6,2.1L185.7,159z"/>
	<path style="fill:none;stroke:#000000;stroke-miterlimit:10;" d="M137.2,81.8c0.1,0.3,0.5,0.4,1,0.5c0.4,1,0.6,1.8,0.8,2.5l2.3-0.6
		c-0.4,0.8-0.3,1.5,0.1,2.2c0.7-0.4,1.1-0.6,1.3-0.8c0.1,0,0.5,0.4,1.2,1.2l1.6-0.6L146,87c-0.1,0.3-0.5,0.7-1.1,1.3
		c-1.7-0.6-3.4-1.4-5.1-2.3c-1.5-0.8-2.7-1.5-3.5-2.1c0.2,0.2,0.4,1,0.7,2.4c0.2,1.4,0.1,2-0.2,1.8c1.9,1.1,4.2,2.5,7.1,3.9l1.8-1.5
		c0.1,1.1-0.1,2.1-0.4,3.2c-0.1,0.3,0.4-0.5,1.5-2.3l0.4,1.2l0.6-1.8c0,0.4,0.1,0.9,0.2,1.4c0.1,0.3,0.2,0.6,0.4,1.1
		c-0.1-0.8-0.1-1.1,0.1-0.8c0.4,0.4,0.8,0.6,0.9,0.5c0.8-0.1,1.3-0.1,1.3-0.1c-0.1-0.4,0-0.9,0.4-1.7c0.6,1.1,0.8,2.1,0.8,3.3
		c0.1-0.8,0.4-1.3,0.8-1.3c1,0,1.5-0.1,1.6-0.1c0.7-1.2,1.3-2.3,1.6-3.5c0.4-0.1,0.7-0.1,0.8-0.1c0.4,0,0.6-0.4,0.4-1.1l1.5,0.4
		l-0.5-2.3l0.1,0.1c0.1,0.4,0.1,0.6,0.3,0.6l0.6-0.3c1.1,0.3,1.6,0.1,1.4-0.5l-0.2-0.4c0.6-0.8,0.5-2.1-0.4-3.6
		c-1-1.8-1.5-2.8-1.4-3c-0.2,1.1-0.8,2.1-1.8,3.1c-0.6,0.6-0.7,1.1-0.1,1.4c-0.2,0-0.5,0-0.6-0.1c-0.4-0.3-0.6-0.4-0.7-0.4
		c-0.3-0.1-0.6-0.4-1.1-0.8l-0.6-0.6l-0.8-2.3c1.8-0.3,2.6-0.5,2.5-0.6c-0.4-0.5-1.6-1-3.5-1.6l1.7-0.5c-0.8-0.7-1.3-1.1-1.5-1.3
		c-0.1-0.1,0.1-0.5,0.5-1.3c-0.9-0.5-2.5-2-4.8-4.5l0,0c-2.3-2.7-3.4-4.2-3.1-4.7c-0.7,1.1-1.2,3.7-1.5,7.8c-0.3,3.5-1.3,6-3.1,7.6
		c0.4-0.1,1.1-0.2,2-0.1c1,0.1,1.1,0.1,0.2,0.2c0.3,0.8,1.3,1.6,2.8,2.1c0,0.2-0.1,0.4-0.1,0.6c-0.1,0.1-0.4,0.3-0.8,0.4
		c-0.6,0.1-1.1,0.1-1.5,0.3c-1.6-1-3.1-2.1-4.5-3c-1.5-1.1-2.2-1.8-2.2-2.2c-0.1,0.9,0.1,1.7,0.8,2.3
		C136.9,81.1,137,81.4,137.2,81.8z"/>
	<path style="fill:none;stroke:#000000;stroke-miterlimit:10;" d="M118.1,124.5c0.9,0.1,2.1-0.1,3.5-0.6c-1.8-0.8-3-1.3-3.9-1.6
		c-1.6-0.6-2.1-0.4-1.5,0.5C116.5,123.8,117.1,124.4,118.1,124.5z"/>
	<path style="fill:none;stroke:#000000;stroke-miterlimit:10;" d="M105.2,124.7c0.2-0.4,0.9-0.2,2,0.4c0.6,0.3,1.2,0.7,1.9,1.2l-2,1
		c0.4,0.5,0.8,0.8,1.1,1c0.2,0.1,0.4,0.5,0.8,1.1c0.9-0.1,2.1-0.6,3.5-1.2c-0.3-0.8-0.6-1.5-0.9-2.1c-0.6-0.8-1.5-1.6-2.9-2.3l0,0
		c-1.5-0.7-2.5-1.6-3.3-2.4c0.3,0.5,0.3,0.8,0,0.8c-0.4,0.1-0.4,0.3-0.2,0.8C105.6,123.7,105.5,124.3,105.2,124.7z"/>
	<path style="fill:none;stroke:#000000;stroke-miterlimit:10;" d="M130.8,142.2L130.8,142.2l-1.5,1.3c0.7-0.4,1.3-0.9,2-1.4
		C132,141.4,131.9,141.5,130.8,142.2L130.8,142.2z"/>
	<path style="fill:none;stroke:#000000;stroke-miterlimit:10;" d="M106.4,158.4c-0.8-0.1-1.3,0-1.2,0.1c0.9,0.3,1.8,0.4,2.7,0.5
		c0,0.8-0.4,1.4-1,2c0.8,0.1,1.7,0.1,2.5,0c-0.4,0.4-0.8,0.8-1.3,1c1.8-0.6,3.7-1.3,5.9-2l0,0c1.1-0.4,1.7-0.6,1.6-0.7
		c-2.2-0.2-5-0.8-8.4-1.8C107.5,158.1,107.2,158.5,106.4,158.4z"/>
	<path style="fill:none;stroke:#000000;stroke-miterlimit:10;" d="M135.6,168.7L135.6,168.7c-0.4,0.3-0.5,0.4-0.2,0.4
		C135.7,168.9,135.7,168.9,135.6,168.7z"/>
	<path style="fill:none;stroke:#000000;stroke-miterlimit:10;" d="M105.1,137.3L105.1,137.3l-0.7,0.5c-0.3,0.3-0.2,0.5,0.4,0.5
		c0.4,0,1.1-0.2,2.1-0.6c0.6-0.2,0.9-0.2,0.8,0.1c-0.2,0.6-0.4,1-0.4,1.5l0.4,0.1c-1,0-1.6,0-1.8-0.1c0.3,0.1,1,0.4,2.1,0.9
		c0.8,0.4,1.6,0.6,2.3,0.8c-1.1,0-2.1,0.2-3,0.6c-0.1,0.6,0.5,0.8,2.1,0.6c0.8-0.1,1.6-0.3,2.6-0.6c-0.2,0.1-1.1,0.8-2.8,2.1
		c-1.6,1.1-2.5,1.6-2.9,1.4c0.7,0.4,2.1,0.1,3.9-0.8c1.2-0.6,2.3-1.3,3.5-2.2c-0.4,0.4-0.9,1.3-1.6,2.4c-0.6,1.1-1.2,1.9-1.7,2.4
		c2.8-1.2,4.9-3,6.2-5.4l0.5,2.2c0.1-0.1,0.4-0.6,0.8-1.2c0.3-0.6,0.6-1,0.7-1.1c0.4-0.1,0.6,0.1,0.6,0.6s0.1,0.7,0.2,0.8
		c0.6-0.7,1.1-1.2,1.5-1.5c0.4-0.3,0.9-0.6,1.8-1.1c-0.8,1.1-1.3,2-1.6,2.5c-0.5,0.6-1.1,1.3-1.9,2.1c0.2-0.3,2.5-2.1,6.7-5.4
		c0.4-0.1,0.4,0.3,0,1.2c-0.2,0.5-0.5,1.1-0.8,1.7c-0.4,0.4-0.1,0.3,0.8-0.6c0.9-0.8,1.6-1.4,1.8-1.8c0.1,0.6,0.1,1.2-0.1,1.7
		c0.1-0.1,0.8-0.7,2-1.6c1.1-0.8,1.7-1.3,1.8-1.3c-0.5,0.6-0.9,1.4-1.3,2.3c0,0,0.4-0.3,1.1-0.8c0.7-0.6,1.1-0.9,1.1-1.1
		c-0.1,1.1-0.2,1.8-0.2,2.4c0.4-0.4,0.7-0.9,0.8-1.6c0.2-0.8,0.4-1.3,0.4-1.8l0.7-0.1l0.9-0.2c-0.1,0.3-0.2,0.6-0.4,1.1
		c-0.2,0.4-0.3,0.8-0.3,1.2c1.3-0.8,2.2-1.5,2.7-2c-0.4,0.8-0.5,1.8-0.2,2.7c0.2-0.1,0.8-0.8,1.8-2.1c0.9-1.3,1.5-2.1,1.6-2.4l0,0
		c-11.6,0.4-18.5,0.4-20.9-0.1c-2.5-0.2-4.5-0.5-5.7-0.8c-0.8-0.2-2.1-0.6-4.1-1.3c-2.1-0.7-3.2-1.1-3.5-1.1
		c-0.5-0.1-1.5-0.3-3.1-0.6l-2.3-0.3l5.7,3.3c-1.1,0.1-2.2,0.4-3.1,0.6c-1.9,0.4-2.4,0.7-1.5,0.9
		C103.1,137.3,104.3,137.4,105.1,137.3z"/>
</g>
</svg>
