<?xml version="1.0" encoding="utf-8"?>
<!-- Generator: Adobe Illustrator 17.0.0, SVG Export Plug-In . SVG Version: 6.00 Build 0)  -->
<!DOCTYPE svg PUBLIC "-//W3C//DTD SVG 1.1//EN" "http://www.w3.org/Graphics/SVG/1.1/DTD/svg11.dtd" [
	<!ENTITY ns_flows "http://ns.adobe.com/Flows/1.0/">
	<!ENTITY ns_extend "http://ns.adobe.com/Extensibility/1.0/">
	<!ENTITY ns_ai "http://ns.adobe.com/AdobeIllustrator/10.0/">
	<!ENTITY ns_graphs "http://ns.adobe.com/Graphs/1.0/">
]>
<svg version="1.1" id="Layer_1" xmlns:x="&ns_extend;" xmlns:i="&ns_ai;" xmlns:graph="&ns_graphs;"
	 xmlns="http://www.w3.org/2000/svg" xmlns:xlink="http://www.w3.org/1999/xlink" xmlns:a="http://ns.adobe.com/AdobeSVGViewerExtensions/3.0/"
	 x="0px" y="0px" width="256px" height="256px" viewBox="0 0 256 256" style="enable-background:new 0 0 256 256;"
	 xml:space="preserve">
<g transform="translate(0.000000,1280.000000) scale(0.100000,-0.100000)">
	<path style="fill:none;stroke:#000000;stroke-width:2;stroke-miterlimit:10;" d="M495.3,12703.9c39.1-53.5,94.4-116.1,171.4-194.1
		c22.5-22.9,40.1-41.5,39.1-41.5s-8.8,2.2-17.3,4.7c-69.1,20.3-161.9,26.1-236.8,14.7c-9.7-1.3-18.4-2.6-19.6-2.8
		c-0.9-0.2,6.1-1.3,15.8-2.8c56.1-8.2,115.7-23.8,164.9-43.6c22.5-8.9,68.4-33,89.6-47.1c44-28.9,83.1-63.2,122.2-107.3
		c13-14.7,23.5-27.2,23.1-27.6c-0.4-0.4-13,0.2-28.3,1.3c-46.4,3.4-170.3,4.5-219.6,2c-49.4-2.4-97.4-6.1-133.2-10.4
		c-12.9-1.5-24.6-2.8-26.1-3c-4.1-0.4,27.9-7.1,34.5-7.3c10.1-0.4-0.7-3.4-17.5-4.8c-8.4-0.6-14.9-1.7-14.3-2
		c1.3-1.5,51.8-9.5,77.9-12.7c14-1.5,53.3-4.8,87.6-7.5c75.8-5.6,106.9-9.1,138-15.1c52.5-10.2,90.7-29.4,113.1-57.2
		c9.3-11.4,16.4-22.9,14.9-24.2c-0.6-0.4-7.6,0-15.8,0.7c-34.7,3.4-81,1.1-122.4-6c-81.8-13.8-159.1-48.2-226.9-101.2
		c-15.3-11.9-65.2-57.4-64.3-58.5c0.4-0.4,10.1,3.7,21.6,9.1c92.8,42.3,162.3,68.2,221.7,82.5c71.5,17,126.9,14.3,161.1-7.8
		c20.5-13.4,38.7-38.6,45.1-62.2l1.9-7.1l-13.2-3.7c-49.7-14.5-91.5-33-123-54.6c-17.9-12.3-35.4-30.2-38.9-39.9
		c-1.5-4.3-3.4-6.1-6.1-6.1c-5.2,0-26.6-11.4-42.7-22.4c-32.6-22.7-63.3-54-82.5-84.2c-10.1-15.8-10.6-16.4-26.1-24
		c-64.1-31.7-148.1-130.6-154.4-181.8c-1.5-12.1-16.2-51-22.7-60.7c-12.1-17.5-19.9-37.1-17.1-42.3c1.5-2.6,0.6-4.3-4.5-8.2
		c-10.1-7.6-23.1-26.5-34.8-50.5c-16.8-34.7-28.1-72.7-34.5-116.2c-3.9-27.2-2.8-72.3,2-87.7c3.7-11.7,3.7-14.3,1.9-33.5
		c-0.9-8.2-3.2-17.5-5.6-22.4c-21.1-42.3-22.9-104.3-4.1-143.4l4.3-8.8l-4.5-9.5c-12.1-26.8-7.6-78.4,11.9-137.9
		c8.9-27.6,37.6-89.8,44.9-97.4c4.1-4.5,4.5-5.6,2.6-12.1c-1.9-6.9-1.7-7.3,8.8-20.1c15.3-19.2,65.8-69.3,84.2-83.8
		c49.2-38.9,101-64.8,139-69.3c9.5-1.1,10.2-1.7,14.9-9.9c2.8-4.7,12.3-16,21.1-25c52.8-54.2,150.4-110.8,221-128.3
		c12.5-3,22.9-4.1,41-4.3c29.4-0.4,42.3-3,56.3-11.4c13.4-8.2,16.4-8.8,26.5-6.5c11.4,2.4,34.8-2,46.4-9.1
		c24-14.9,61.1-21.2,122.4-21.2c69.1-0.2,112.3,6.1,166.7,24c40.6,13.2,43.2,14.2,55,17c48.2,11.9,110.5,43.6,148.5,75.8
		c11.6,9.7,12.1,10.1,17,7.5c4.5-2.2,5.8-2,12.9,1.5c17.7,8.9,37.1,23.8,56.4,43.4c33.3,33.5,57.8,72.1,70.6,111.6
		c6.3,19.9,11.9,53.3,9.3,57.4c-0.6,0.9,1.7,9.9,5.2,19.6l6.1,17.7l12.7,8.6c28.1,18.6,49.6,55.7,58.3,100.4
		c4.3,21.6,4.3,63.3,0,82.3c-1.7,7.5-3,14.7-3,16c0,1.5,5.4,6.1,12.3,10.4c24,15.6,40.4,39.1,50.3,71.7c8.8,28.9,6.9,76.6-4.1,102.6
		c-3.2,7.6-1.1,18.4,6.7,34.3c16,32.4,22.9,64.1,23.1,107.1c0,44.9-7.5,79.4-25,113.5c-9.1,17.7-39.1,107.7-39.1,117
		c0,8.2-8,36.1-14.2,49.7c-2.4,5.4-9.1,17.7-14.7,27.2c-12.9,21.6-23.7,46.2-27.9,64.3c-14,58.7-49.7,119.4-103.4,175.7l-20.9,21.8
		l1.9,11c9.1,52,77.3,90.2,188.5,105.8c29.6,4.1,116.4,4.7,143.4,0.9c49.9-7.1,90.4-18.4,120.5-33.7c6.3-3.2,12.1-5.8,12.7-5.8
		c1.3,0-5.6,16.8-14.2,33.9c-20.9,41.9-47.9,72.5-82.5,93.3l-10.6,6.5l15.5,2c33.9,4.8,91.5,15.6,116.6,21.8
		c68.7,16.8,107.1,38,118.9,65.8c3.7,8.9,3.4,9.7-4.3,8.6c-3.9-0.6-19.2-2.2-34.1-3.7c-14.9-1.7-71.3-8.8-125.7-15.8
		c-170.5-22.4-206.2-26.3-319.5-36.3c-6.5-0.6-11.6-0.7-11.2-0.2c0.6,0.4,23.7,12.7,51.2,27.2c91.1,48.1,117,64.5,148.1,94.3
		c13.8,13,14.3,13.4,37.3,20.9c119.2,38.9,234,57.8,309.1,50.9c12.7-1.1,23.5-1.9,23.7-1.5c2.2,2.2-93.1,25.7-129.7,31.9
		c-87.4,14.9-181.3,16.8-269.2,5.6c-61.1-7.8-129.5-24.4-189.8-46.4c-12.3-4.5-22.7-8-22.9-7.6c-1.7,1.7,232.9,149.4,325.8,205.1
		c10.1,6,18.1,11,17.7,11.4c-0.9,0.9-80.3-16.2-117.7-25.5c-79.7-19.9-155.2-44.7-229.7-75.4c-35.8-14.7-113.8-53.3-146.6-72.3
		c-29.4-17.1-26.1-14.2,37.3,33.9c56.8,43,84.9,66.1,112.9,92.8c50.9,48.6,83.1,90.4,109,141c11.2,21.8,25,54.4,25,58.9
		c0,1.1-7.8-3.5-17.1-10.2c-52.7-37.4-127.2-78.1-200.6-109.5c-15.8-6.7-28.9-12.3-29.2-12.3c-0.4,0,7.5,12.5,17.5,27.6
		c31.7,48.2,49.7,84.9,58.1,118.9c3.4,12.9,3.9,20.1,3.4,35.4c-0.6,17.3-1.3,20.1-7.1,31.7c-3.7,7.1-7.5,12.5-8.4,12.1
		c-1.1-0.4-4.5-7.3-7.6-15.1c-16.6-41-42.7-86.8-71.2-124.6c-19.6-26.1-63.2-70.6-89.2-91.1c-27.6-21.8-93-64.3-101.7-66.1
		c-0.7-0.2-4.8,15.1-8.6,34.1c-17.9,86.6-41.2,155.4-66.9,197.8c-10.4,17-18.3,27.2-19.6,25.7c-1.7-1.7-28.9-77.1-41-113.8
		c-27.9-83.8-44-148.7-49.9-202.9l-2.2-21.4l-2.4,9.3c-2.4,8.8-3.9,21.6-11,84.8c-6,53.5-15.5,90.2-33.5,128
		c-27.2,57-67.3,102.3-135.4,152.9c-12.5,9.1-14.2,9.7-9.3,2.8c5.6-8,16.2-30.2,20.7-43.4c11.7-33.9,15.3-72.7,12.5-136.7
		c-2.6-60.5-2.4-149.2,0.4-162.1c1.1-6.1,1.9-11.4,1.3-11.9c-0.4-0.4-4.8,2.4-9.7,6.5c-15.3,12.5-46.8,34.7-83.5,58.7
		c-19.4,12.9-72.3,50.9-117.5,84.8c-128,95.9-259.3,191.1-292.3,212.2l-5.6,3.5L495.3,12703.9z"/>
</g>
</svg>
