<?xml version="1.0" encoding="utf-8"?>
<!-- Generator: Adobe Illustrator 23.0.0, SVG Export Plug-In . SVG Version: 6.00 Build 0)  -->
<svg version="1.1" id="Layer_1" xmlns="http://www.w3.org/2000/svg" xmlns:xlink="http://www.w3.org/1999/xlink" x="0px" y="0px"
	 viewBox="0 0 256 256" style="enable-background:new 0 0 256 256;" xml:space="preserve">
<path style="fill:#FFFFFF;stroke:#B28D31;stroke-width:5;stroke-linecap:round;stroke-linejoin:round;stroke-miterlimit:10;" d="
	M91.4,102.6C90.7,81.9,85.9,70.7,68.6,50l26.3,5.7l-6.5-21.1l25.9,16.6l8.2-23l7.9,23L153.8,35l-8.2,24.3l36.7-4.6
	c-20,14.9-34.1,31-33.9,49.9l-31.8,18.9L91.4,102.6z"/>
<path style="fill:#FFD15F;" d="M187.8,163.4c0.1,72.8-29.7,82.3-66.3,82.3s-66.4-11.2-66.3-82.3c0-45.4,29.7-82.3,66.3-82.3
	S187.8,118,187.8,163.4z"/>
<line style="fill:none;stroke:#B28D31;stroke-width:5;stroke-linecap:round;stroke-linejoin:round;stroke-miterlimit:10;" x1="55.9" y1="150.9" x2="150.6" y2="89.5"/>
<line style="fill:none;stroke:#B28D31;stroke-width:5;stroke-linecap:round;stroke-linejoin:round;stroke-miterlimit:10;" x1="55.5" y1="176.8" x2="167" y2="105.8"/>
<line style="fill:none;stroke:#B28D31;stroke-width:5;stroke-linecap:round;stroke-linejoin:round;stroke-miterlimit:10;" x1="61.5" y1="203.4" x2="181.5" y2="128.5"/>
<line style="fill:none;stroke:#B28D31;stroke-width:5;stroke-linecap:round;stroke-linejoin:round;stroke-miterlimit:10;" x1="68.8" y1="224.5" x2="187.3" y2="153.1"/>
<line style="fill:none;stroke:#B28D31;stroke-width:5;stroke-linecap:round;stroke-linejoin:round;stroke-miterlimit:10;" x1="91" y1="241.5" x2="187.1" y2="181.5"/>
<line style="fill:none;stroke:#B28D31;stroke-width:5;stroke-linecap:round;stroke-linejoin:round;stroke-miterlimit:10;" x1="96.1" y1="87.4" x2="186.4" y2="147"/>
<line style="fill:none;stroke:#B28D31;stroke-width:5;stroke-linecap:round;stroke-linejoin:round;stroke-miterlimit:10;" x1="74.8" y1="107.9" x2="186.4" y2="172.4"/>
<line style="fill:none;stroke:#B28D31;stroke-width:5;stroke-linecap:round;stroke-linejoin:round;stroke-miterlimit:10;" x1="61.5" y1="131.3" x2="182.3" y2="206.2"/>
<line style="fill:none;stroke:#B28D31;stroke-width:5;stroke-linecap:round;stroke-linejoin:round;stroke-miterlimit:10;" x1="55.1" y1="163.4" x2="167.2" y2="232.9"/>
<line style="fill:none;stroke:#B28D31;stroke-width:5;stroke-linecap:round;stroke-linejoin:round;stroke-miterlimit:10;" x1="57.8" y1="196" x2="141.3" y2="244.3"/>
<path style="opacity:0.2;" d="M111.2,244.3c46.6-21.2,69.7-61.3,64.6-124.2l5.7,8.3l5.6,20.9v27.4l-2.3,21.4l-6.4,19.6L163,236.2
	l-13.8,5.3l-18.6,4L111.2,244.3z"/>
<path style="fill:none;stroke:#B28D31;stroke-width:5;stroke-linecap:round;stroke-linejoin:round;stroke-miterlimit:10;" d="
	M187.8,163.4c0.1,72.8-29.7,82.3-66.3,82.3s-66.4-11.2-66.3-82.3c0-45.4,29.7-82.3,66.3-82.3S187.8,118,187.8,163.4z"/>
</svg>
