<?xml version="1.0" encoding="utf-8"?>
<!-- Generator: Adobe Illustrator 17.0.0, SVG Export Plug-In . SVG Version: 6.00 Build 0)  -->
<!DOCTYPE svg PUBLIC "-//W3C//DTD SVG 1.1//EN" "http://www.w3.org/Graphics/SVG/1.1/DTD/svg11.dtd" [
	<!ENTITY ns_flows "http://ns.adobe.com/Flows/1.0/">
	<!ENTITY ns_extend "http://ns.adobe.com/Extensibility/1.0/">
	<!ENTITY ns_ai "http://ns.adobe.com/AdobeIllustrator/10.0/">
	<!ENTITY ns_graphs "http://ns.adobe.com/Graphs/1.0/">
]>
<svg version="1.1" id="Layer_1" xmlns:x="&ns_extend;" xmlns:i="&ns_ai;" xmlns:graph="&ns_graphs;"
	 xmlns="http://www.w3.org/2000/svg" xmlns:xlink="http://www.w3.org/1999/xlink" xmlns:a="http://ns.adobe.com/AdobeSVGViewerExtensions/3.0/"
	 x="0px" y="0px" width="256px" height="256px" viewBox="0 0 256 256" style="enable-background:new 0 0 256 256;"
	 xml:space="preserve">
<g>
	<path style="fill:none;stroke:#000000;stroke-miterlimit:10;" d="M80.8,180.7C80.8,180.7,80.8,180.7,80.8,180.7L80.8,180.7
		c-0.1,0.2-0.1,0.3-0.2,0.5c0.1,0.5,0.2,1.1,0.3,1.6c0.2-0.7,0.5-1.6,0.9-2.4C81.5,180.5,81.1,180.6,80.8,180.7z M110.2,227.3
		c0,0,0.1,0,0.1-0.1c-0.7,0.2-1.4,0.4-2.2,0.5c1,0.2,1.9,0.4,2.8,0.6C110.6,228,110.4,227.7,110.2,227.3z M125.1,209.5
		c-0.8,0.5-1.7,1.1-2.7,1.5c0.8,0.6,1.4,1.2,2,1.9c0-0.3,0-0.7-0.1-1.1C124.5,211.1,124.8,210.3,125.1,209.5z M124.4,212.9
		c0.1,1.4,0.5,2.7,1,3.8C125.7,215.4,125.3,214.1,124.4,212.9z M125.4,216.7c0,0.2-0.1,0.4-0.2,0.6c-0.3,0.5-0.8,1.1-1.3,1.7
		c0.8-0.3,1.5-0.5,2.3-0.7c0.3,0.1,0.5,0.3,0.8,0.4C126.3,218.2,125.8,217.5,125.4,216.7z M127,218.8c1.2,1.2,3,2.1,5.4,2.7
		C130.4,220.3,128.6,219.7,127,218.8z M136.2,221.8c-0.3,0.1-0.6,0.2-1,0.3c-1.1-0.1-2-0.3-2.9-0.5c1.2,0.7,2.5,1.7,4,3
		C136.1,223.4,136,222.5,136.2,221.8z M131.6,196.7c0.5,0.9,0.8,1.7,1,2.4c0.7-0.6,1.5-1.1,2.3-1.6
		C133.7,197.4,132.6,197.1,131.6,196.7z M136.6,196.8c-0.6,0.2-1.2,0.5-1.7,0.8c0.1,0,0.2,0,0.2,0c0.6-0.2,1.2-0.5,1.8-0.7
		C136.8,196.8,136.7,196.8,136.6,196.8z M137,196.9c0.1,0,0.1,0,0.2,0l0,0c0,0,0-0.1,0-0.2C137.1,196.8,137,196.8,137,196.9z
		 M111.5,181.7c0,0.4-0.1,0.9-0.4,1.2c-0.1,0.2-0.2,0.4-0.4,0.6c1.4-0.5,2.9-0.7,4.4-0.5C113.9,182.7,112.7,182.3,111.5,181.7z
		 M115.8,183.1c0.6,0.1,1.2,0.3,1.7,0.6c0.2-0.5,0.4-1.1,0.7-1.6C117.4,182.5,116.6,182.8,115.8,183.1z M79.3,155
		C79.3,155,79.3,155.1,79.3,155C79.4,155.1,79.4,155.1,79.3,155C79.4,155,79.4,155,79.3,155z M98.8,167.7c-0.5,0.2-1.1,0.4-1.6,0.6
		c-0.9-0.1-1.8-0.3-2.7-0.6c0.1,0.3,0.3,0.6,0.4,0.9c1.1-0.2,2.2-0.2,3.4,0l0,0C98.5,168.3,98.6,168,98.8,167.7z M73.6,155.2
		c0,0,0,0.1,0,0.1c0,0,0.1,0,0.1,0C73.7,155.3,73.7,155.3,73.6,155.2z M76.9,127c0.3,0.9,0.5,1.7,0.8,2.4c-0.4,0.6-1,1.3-1.7,2h0
		c0.3,0.1,0.7,0.2,1,0.3c0.3-1.1,0.9-2.4,1.5-3.6C78.1,127.8,77.5,127.4,76.9,127z M73.6,155.2c0,0,0,0.1,0,0.1c0,0,0.1,0,0.1,0
		C73.7,155.3,73.7,155.3,73.6,155.2z M76.9,127c0.3,0.9,0.5,1.7,0.8,2.4c-0.4,0.6-1,1.3-1.7,2h0c0.3,0.1,0.7,0.2,1,0.3
		c0.3-1.1,0.9-2.4,1.5-3.6C78.1,127.8,77.5,127.4,76.9,127z M93.7,117.4c0.1-0.5,0.3-1.1,0.6-1.6c-0.4,0.1-0.7,0.3-1.2,0.4
		c-0.5-0.2-0.9-0.5-1.4-0.8c0.3,0.6,0.5,1.2,0.7,1.6c-0.2,0.3-0.4,0.7-0.7,1c0.8,0,1.7,0,2.5,0.2c0,0,0.1,0.1,0.1,0.1
		C94.1,118,93.9,117.7,93.7,117.4z M107.8,105.5L107.8,105.5L107.8,105.5C107.8,105.5,107.8,105.5,107.8,105.5z M73.6,155.2
		c0,0,0,0.1,0,0.1c0,0,0.1,0,0.1,0C73.7,155.3,73.7,155.3,73.6,155.2z M76.9,127c0.3,0.9,0.5,1.7,0.8,2.4c-0.4,0.6-1,1.3-1.7,2h0
		c0.3,0.1,0.7,0.2,1,0.3c0.3-1.1,0.9-2.4,1.5-3.6C78.1,127.8,77.5,127.4,76.9,127z M93.7,117.4c0.1-0.5,0.3-1.1,0.6-1.6
		c-0.4,0.1-0.7,0.3-1.2,0.4c-0.5-0.2-0.9-0.5-1.4-0.8c0.3,0.6,0.5,1.2,0.7,1.6c-0.2,0.3-0.4,0.7-0.7,1c0.8,0,1.7,0,2.5,0.2
		c0,0,0.1,0.1,0.1,0.1C94.1,118,93.9,117.7,93.7,117.4z M107.8,105.5L107.8,105.5L107.8,105.5C107.8,105.5,107.8,105.5,107.8,105.5z
		 M73.6,155.2c0,0,0,0.1,0,0.1c0,0,0.1,0,0.1,0C73.7,155.3,73.7,155.3,73.6,155.2z M76.9,127c0.3,0.9,0.5,1.7,0.8,2.4
		c-0.4,0.6-1,1.3-1.7,2h0c0.3,0.1,0.7,0.2,1,0.3c0.3-1.1,0.9-2.4,1.5-3.6C78.1,127.8,77.5,127.4,76.9,127z M93.7,117.4
		c0.1-0.5,0.3-1.1,0.6-1.6c-0.4,0.1-0.7,0.3-1.2,0.4c-0.5-0.2-0.9-0.5-1.4-0.8c0.3,0.6,0.5,1.2,0.7,1.6c-0.2,0.3-0.4,0.7-0.7,1
		c0.8,0,1.7,0,2.5,0.2c0,0,0.1,0.1,0.1,0.1C94.1,118,93.9,117.7,93.7,117.4z M107.8,105.5L107.8,105.5L107.8,105.5
		C107.8,105.5,107.8,105.5,107.8,105.5z M73.6,155.2c0,0,0,0.1,0,0.1c0,0,0.1,0,0.1,0C73.7,155.3,73.7,155.3,73.6,155.2z M76.9,127
		c0.3,0.9,0.5,1.7,0.8,2.4c-0.4,0.6-1,1.3-1.7,2h0c0.3,0.1,0.7,0.2,1,0.3c0.3-1.1,0.9-2.4,1.5-3.6C78.1,127.8,77.5,127.4,76.9,127z
		 M93.7,117.4c0.1-0.5,0.3-1.1,0.6-1.6c-0.4,0.1-0.7,0.3-1.2,0.4c-0.5-0.2-0.9-0.5-1.4-0.8c0.3,0.6,0.5,1.2,0.7,1.6
		c-0.2,0.3-0.4,0.7-0.7,1c0.8,0,1.7,0,2.5,0.2c0,0,0.1,0.1,0.1,0.1C94.1,118,93.9,117.7,93.7,117.4z M94.9,143
		c-1.6-0.2-3.2-0.6-4.7-1.2c0.3,0.4,0.7,0.9,1,1.3c1.3-0.2,2.8-0.2,4.3,0.1c0.3,0.2,0.7,0.4,1.1,0.7c0.3-0.9,0.7-1.8,1.3-2.7
		C96.9,141.8,96,142.4,94.9,143z M107.8,105.5L107.8,105.5L107.8,105.5C107.8,105.5,107.8,105.5,107.8,105.5z M113.6,130.7
		c0.1-0.4,0.2-0.8,0.4-1.2c-0.7,0.4-1.5,0.7-2.4,1c-1.2-0.1-2.3-0.4-3.4-0.9c0.4,0.5,0.8,1,1.1,1.4c-0.2,0.3-0.4,0.6-0.6,0.9
		c0.9-0.5,1.7-0.9,2.6-1.2c1.3,0.8,2.9,1.6,4.5,2.5C114.9,132.3,114.2,131.5,113.6,130.7z M73.6,155.2c0,0,0,0.1,0,0.1
		c0,0,0.1,0,0.1,0C73.7,155.3,73.7,155.3,73.6,155.2z M76.9,127c0.3,0.9,0.5,1.7,0.8,2.4c-0.4,0.6-1,1.3-1.7,2h0
		c0.3,0.1,0.7,0.2,1,0.3c0.3-1.1,0.9-2.4,1.5-3.6C78.1,127.8,77.5,127.4,76.9,127z M93.7,117.4c0.1-0.5,0.3-1.1,0.6-1.6
		c-0.4,0.1-0.7,0.3-1.2,0.4c-0.5-0.2-0.9-0.5-1.4-0.8c0.3,0.6,0.5,1.2,0.7,1.6c-0.2,0.3-0.4,0.7-0.7,1c0.8,0,1.7,0,2.5,0.2
		c0,0,0.1,0.1,0.1,0.1C94.1,118,93.9,117.7,93.7,117.4z M94.9,143c-1.6-0.2-3.2-0.6-4.7-1.2c0.3,0.4,0.7,0.9,1,1.3
		c1.3-0.2,2.8-0.2,4.3,0.1c0.3,0.2,0.7,0.4,1.1,0.7c0.3-0.9,0.7-1.8,1.3-2.7C96.9,141.8,96,142.4,94.9,143z M107.8,105.5
		L107.8,105.5L107.8,105.5C107.8,105.5,107.8,105.5,107.8,105.5z M113.6,130.7c0.1-0.4,0.2-0.8,0.4-1.2c-0.7,0.4-1.5,0.7-2.4,1
		c-1.2-0.1-2.3-0.4-3.4-0.9c0.4,0.5,0.8,1,1.1,1.4c-0.2,0.3-0.4,0.6-0.6,0.9c0.9-0.5,1.7-0.9,2.6-1.2c1.3,0.8,2.9,1.6,4.5,2.5
		C114.9,132.3,114.2,131.5,113.6,130.7z M73.6,155.2c0,0,0,0.1,0,0.1c0,0,0.1,0,0.1,0C73.7,155.3,73.7,155.3,73.6,155.2z M76.9,127
		c0.3,0.9,0.5,1.7,0.8,2.4c-0.4,0.6-1,1.3-1.7,2h0c0.3,0.1,0.7,0.2,1,0.3c0.3-1.1,0.9-2.4,1.5-3.6C78.1,127.8,77.5,127.4,76.9,127z
		 M93.7,117.4c0.1-0.5,0.3-1.1,0.6-1.6c-0.4,0.1-0.7,0.3-1.2,0.4c-0.5-0.2-0.9-0.5-1.4-0.8c0.3,0.6,0.5,1.2,0.7,1.6
		c-0.2,0.3-0.4,0.7-0.7,1c0.8,0,1.7,0,2.5,0.2c0,0,0.1,0.1,0.1,0.1C94.1,118,93.9,117.7,93.7,117.4z M94.9,143
		c-1.6-0.2-3.2-0.6-4.7-1.2c0.3,0.4,0.7,0.9,1,1.3c1.3-0.2,2.8-0.2,4.3,0.1c0.3,0.2,0.7,0.4,1.1,0.7c0.3-0.9,0.7-1.8,1.3-2.7
		C96.9,141.8,96,142.4,94.9,143z M107.8,105.5L107.8,105.5L107.8,105.5C107.8,105.5,107.8,105.5,107.8,105.5z M113.6,130.7
		c0.1-0.4,0.2-0.8,0.4-1.2c-0.7,0.4-1.5,0.7-2.4,1c-1.2-0.1-2.3-0.4-3.4-0.9c0.4,0.5,0.8,1,1.1,1.4c-0.2,0.3-0.4,0.6-0.6,0.9
		c0.9-0.5,1.7-0.9,2.6-1.2c1.3,0.8,2.9,1.6,4.5,2.5C114.9,132.3,114.2,131.5,113.6,130.7z M73.6,155.2c0,0,0,0.1,0,0.1
		c0,0,0.1,0,0.1,0C73.7,155.3,73.7,155.3,73.6,155.2z M76.9,127c0.3,0.9,0.5,1.7,0.8,2.4c-0.4,0.6-1,1.3-1.7,2h0
		c0.3,0.1,0.7,0.2,1,0.3c0.3-1.1,0.9-2.4,1.5-3.6C78.1,127.8,77.5,127.4,76.9,127z M93.7,117.4c0.1-0.5,0.3-1.1,0.6-1.6
		c-0.4,0.1-0.7,0.3-1.2,0.4c-0.5-0.2-0.9-0.5-1.4-0.8c0.3,0.6,0.5,1.2,0.7,1.6c-0.2,0.3-0.4,0.7-0.7,1c0.8,0,1.7,0,2.5,0.2
		c0,0,0.1,0.1,0.1,0.1C94.1,118,93.9,117.7,93.7,117.4z M94.9,143c-1.6-0.2-3.2-0.6-4.7-1.2c0.3,0.4,0.7,0.9,1,1.3
		c1.3-0.2,2.8-0.2,4.3,0.1c0.3,0.2,0.7,0.4,1.1,0.7c0.3-0.9,0.7-1.8,1.3-2.7C96.9,141.8,96,142.4,94.9,143z M107.8,105.5
		L107.8,105.5L107.8,105.5C107.8,105.5,107.8,105.5,107.8,105.5z M113.6,130.7c0.1-0.4,0.2-0.8,0.4-1.2c-0.7,0.4-1.5,0.7-2.4,1
		c-1.2-0.1-2.3-0.4-3.4-0.9c0.4,0.5,0.8,1,1.1,1.4c-0.2,0.3-0.4,0.6-0.6,0.9c0.9-0.5,1.7-0.9,2.6-1.2c1.3,0.8,2.9,1.6,4.5,2.5
		C114.9,132.3,114.2,131.5,113.6,130.7z M73.6,155.2c0,0,0,0.1,0,0.1c0,0,0.1,0,0.1,0C73.7,155.3,73.7,155.3,73.6,155.2z M76.9,127
		c0.3,0.9,0.5,1.7,0.8,2.4c-0.4,0.6-1,1.3-1.7,2h0c0.3,0.1,0.7,0.2,1,0.3c0.3-1.1,0.9-2.4,1.5-3.6C78.1,127.8,77.5,127.4,76.9,127z
		 M93.7,117.4c0.1-0.5,0.3-1.1,0.6-1.6c-0.4,0.1-0.7,0.3-1.2,0.4c-0.5-0.2-0.9-0.5-1.4-0.8c0.3,0.6,0.5,1.2,0.7,1.6
		c-0.2,0.3-0.4,0.7-0.7,1c0.8,0,1.7,0,2.5,0.2c0,0,0.1,0.1,0.1,0.1C94.1,118,93.9,117.7,93.7,117.4z M94.9,143
		c-1.6-0.2-3.2-0.6-4.7-1.2c0.3,0.4,0.7,0.9,1,1.3c1.3-0.2,2.8-0.2,4.3,0.1c0.3,0.2,0.7,0.4,1.1,0.7c0.3-0.9,0.7-1.8,1.3-2.7
		C96.9,141.8,96,142.4,94.9,143z M107.8,105.5L107.8,105.5L107.8,105.5C107.8,105.5,107.8,105.5,107.8,105.5z M113.6,130.7
		c0.1-0.4,0.2-0.8,0.4-1.2c-0.7,0.4-1.5,0.7-2.4,1c-1.2-0.1-2.3-0.4-3.4-0.9c0.4,0.5,0.8,1,1.1,1.4c-0.2,0.3-0.4,0.6-0.6,0.9
		c0.9-0.5,1.7-0.9,2.6-1.2c1.3,0.8,2.9,1.6,4.5,2.5C114.9,132.3,114.2,131.5,113.6,130.7z M73.6,155.2c0,0,0,0.1,0,0.1
		c0,0,0.1,0,0.1,0C73.7,155.3,73.7,155.3,73.6,155.2z M76.9,127c0.3,0.9,0.5,1.7,0.8,2.4c-0.4,0.6-1,1.3-1.7,2h0
		c0.3,0.1,0.7,0.2,1,0.3c0.3-1.1,0.9-2.4,1.5-3.6C78.1,127.8,77.5,127.4,76.9,127z M93.7,117.4c0.1-0.5,0.3-1.1,0.6-1.6
		c-0.4,0.1-0.7,0.3-1.2,0.4c-0.5-0.2-0.9-0.5-1.4-0.8c0.3,0.6,0.5,1.2,0.7,1.6c-0.2,0.3-0.4,0.7-0.7,1c0.8,0,1.7,0,2.5,0.2
		c0,0,0.1,0.1,0.1,0.1C94.1,118,93.9,117.7,93.7,117.4z M94.9,143c-1.6-0.2-3.2-0.6-4.7-1.2c0.3,0.4,0.7,0.9,1,1.3
		c1.3-0.2,2.8-0.2,4.3,0.1c0.3,0.2,0.7,0.4,1.1,0.7c0.3-0.9,0.7-1.8,1.3-2.7C96.9,141.8,96,142.4,94.9,143z M107.8,105.5
		L107.8,105.5L107.8,105.5C107.8,105.5,107.8,105.5,107.8,105.5z M113.6,130.7c0.1-0.4,0.2-0.8,0.4-1.2c-0.7,0.4-1.5,0.7-2.4,1
		c-1.2-0.1-2.3-0.4-3.4-0.9c0.4,0.5,0.8,1,1.1,1.4c-0.2,0.3-0.4,0.6-0.6,0.9c0.9-0.5,1.7-0.9,2.6-1.2c1.3,0.8,2.9,1.6,4.5,2.5
		C114.9,132.3,114.2,131.5,113.6,130.7z M73.6,155.2c0,0,0,0.1,0,0.1c0,0,0.1,0,0.1,0C73.7,155.3,73.7,155.3,73.6,155.2z M76.9,127
		c0.3,0.9,0.5,1.7,0.8,2.4c-0.4,0.6-1,1.3-1.7,2h0c0.3,0.1,0.7,0.2,1,0.3c0.3-1.1,0.9-2.4,1.5-3.6C78.1,127.8,77.5,127.4,76.9,127z
		 M93.7,117.4c0.1-0.5,0.3-1.1,0.6-1.6c-0.4,0.1-0.7,0.3-1.2,0.4c-0.5-0.2-0.9-0.5-1.4-0.8c0.3,0.6,0.5,1.2,0.7,1.6
		c-0.2,0.3-0.4,0.7-0.7,1c0.8,0,1.7,0,2.5,0.2c0,0,0.1,0.1,0.1,0.1C94.1,118,93.9,117.7,93.7,117.4z M94.9,143
		c-1.6-0.2-3.2-0.6-4.7-1.2c0.3,0.4,0.7,0.9,1,1.3c1.3-0.2,2.8-0.2,4.3,0.1c0.3,0.2,0.7,0.4,1.1,0.7c0.3-0.9,0.7-1.8,1.3-2.7
		C96.9,141.8,96,142.4,94.9,143z M107.8,105.5L107.8,105.5L107.8,105.5C107.8,105.5,107.8,105.5,107.8,105.5z M113.6,130.7
		c0.1-0.4,0.2-0.8,0.4-1.2c-0.7,0.4-1.5,0.7-2.4,1c-1.2-0.1-2.3-0.4-3.4-0.9c0.4,0.5,0.8,1,1.1,1.4c-0.2,0.3-0.4,0.6-0.6,0.9
		c0.9-0.5,1.7-0.9,2.6-1.2c1.3,0.8,2.9,1.6,4.5,2.5C114.9,132.3,114.2,131.5,113.6,130.7z M131.5,143.8c-1.2-0.4-2.3-0.9-3.4-1.3
		c0.3,0.5,0.5,1.1,0.5,1.5c0.4-0.2,0.9-0.3,1.2-0.5c0.9,0.2,1.8,0.5,2.7,0.9c0.2-0.4,0.4-0.9,0.6-1.3
		C132.7,143.3,132.2,143.5,131.5,143.8z M148.9,156.8L148.9,156.8c-0.5-0.1-1-0.2-1.4-0.3c0.1,0.4,0.1,0.7,0.1,1.1
		c-0.4,0.6-1,1.3-1.7,2.2c1.6-0.4,3.3-0.5,5.1-0.3C150.2,158.5,149.5,157.6,148.9,156.8z M73.6,155.2c0,0,0,0.1,0,0.1
		c0,0,0.1,0,0.1,0C73.7,155.3,73.7,155.3,73.6,155.2z M76.9,127c0.3,0.9,0.5,1.7,0.8,2.4c-0.4,0.6-1,1.3-1.7,2h0
		c0.3,0.1,0.7,0.2,1,0.3c0.3-1.1,0.9-2.4,1.5-3.6C78.1,127.8,77.5,127.4,76.9,127z M93.7,117.4c0.1-0.5,0.3-1.1,0.6-1.6
		c-0.4,0.1-0.7,0.3-1.2,0.4c-0.5-0.2-0.9-0.5-1.4-0.8c0.3,0.6,0.5,1.2,0.7,1.6c-0.2,0.3-0.4,0.7-0.7,1c0.8,0,1.7,0,2.5,0.2
		c0,0,0.1,0.1,0.1,0.1C94.1,118,93.9,117.7,93.7,117.4z M94.9,143c-1.6-0.2-3.2-0.6-4.7-1.2c0.3,0.4,0.7,0.9,1,1.3
		c1.3-0.2,2.8-0.2,4.3,0.1c0.3,0.2,0.7,0.4,1.1,0.7c0.3-0.9,0.7-1.8,1.3-2.7C96.9,141.8,96,142.4,94.9,143z M107.8,105.5
		L107.8,105.5L107.8,105.5C107.8,105.5,107.8,105.5,107.8,105.5z M73.6,155.2c0,0,0,0.1,0,0.1c0,0,0.1,0,0.1,0
		C73.7,155.3,73.7,155.3,73.6,155.2z M76.9,127c0.3,0.9,0.5,1.7,0.8,2.4c-0.4,0.6-1,1.3-1.7,2h0c0.3,0.1,0.7,0.2,1,0.3
		c0.3-1.1,0.9-2.4,1.5-3.6C78.1,127.8,77.5,127.4,76.9,127z M93.7,117.4c0.1-0.5,0.3-1.1,0.6-1.6c-0.4,0.1-0.7,0.3-1.2,0.4
		c-0.5-0.2-0.9-0.5-1.4-0.8c0.3,0.6,0.5,1.2,0.7,1.6c-0.2,0.3-0.4,0.7-0.7,1c0.8,0,1.7,0,2.5,0.2c0,0,0.1,0.1,0.1,0.1
		C94.1,118,93.9,117.7,93.7,117.4z M94.9,143c-1.6-0.2-3.2-0.6-4.7-1.2c0.3,0.4,0.7,0.9,1,1.3c1.3-0.2,2.8-0.2,4.3,0.1
		c0.3,0.2,0.7,0.4,1.1,0.7c0.3-0.9,0.7-1.8,1.3-2.7C96.9,141.8,96,142.4,94.9,143z M107.8,105.5L107.8,105.5L107.8,105.5
		C107.8,105.5,107.8,105.5,107.8,105.5z M73.6,155.2c0,0,0,0.1,0,0.1c0,0,0.1,0,0.1,0C73.7,155.3,73.7,155.3,73.6,155.2z M76.9,127
		c0.3,0.9,0.5,1.7,0.8,2.4c-0.4,0.6-1,1.3-1.7,2h0c0.3,0.1,0.7,0.2,1,0.3c0.3-1.1,0.9-2.4,1.5-3.6C78.1,127.8,77.5,127.4,76.9,127z
		 M93.7,117.4c0.1-0.5,0.3-1.1,0.6-1.6c-0.4,0.1-0.7,0.3-1.2,0.4c-0.5-0.2-0.9-0.5-1.4-0.8c0.3,0.6,0.5,1.2,0.7,1.6
		c-0.2,0.3-0.4,0.7-0.7,1c0.8,0,1.7,0,2.5,0.2c0,0,0.1,0.1,0.1,0.1C94.1,118,93.9,117.7,93.7,117.4z M94.9,143
		c-1.6-0.2-3.2-0.6-4.7-1.2c0.3,0.4,0.7,0.9,1,1.3c1.3-0.2,2.8-0.2,4.3,0.1c0.3,0.2,0.7,0.4,1.1,0.7c0.3-0.9,0.7-1.8,1.3-2.7
		C96.9,141.8,96,142.4,94.9,143z M107.8,105.5L107.8,105.5L107.8,105.5C107.8,105.5,107.8,105.5,107.8,105.5z M73.6,155.2
		c0,0,0,0.1,0,0.1c0,0,0.1,0,0.1,0C73.7,155.3,73.7,155.3,73.6,155.2z M76.9,127c0.3,0.9,0.5,1.7,0.8,2.4c-0.4,0.6-1,1.3-1.7,2h0
		c0.3,0.1,0.7,0.2,1,0.3c0.3-1.1,0.9-2.4,1.5-3.6C78.1,127.8,77.5,127.4,76.9,127z M93.7,117.4c0.1-0.5,0.3-1.1,0.6-1.6
		c-0.4,0.1-0.7,0.3-1.2,0.4c-0.5-0.2-0.9-0.5-1.4-0.8c0.3,0.6,0.5,1.2,0.7,1.6c-0.2,0.3-0.4,0.7-0.7,1c0.8,0,1.7,0,2.5,0.2
		c0,0,0.1,0.1,0.1,0.1C94.1,118,93.9,117.7,93.7,117.4z M94.9,143c-1.6-0.2-3.2-0.6-4.7-1.2c0.3,0.4,0.7,0.9,1,1.3
		c1.3-0.2,2.8-0.2,4.3,0.1c0.3,0.2,0.7,0.4,1.1,0.7c0.3-0.9,0.7-1.8,1.3-2.7C96.9,141.8,96,142.4,94.9,143z M107.8,105.5
		L107.8,105.5L107.8,105.5C107.8,105.5,107.8,105.5,107.8,105.5z M73.6,155.2c0,0,0,0.1,0,0.1c0,0,0.1,0,0.1,0
		C73.7,155.3,73.7,155.3,73.6,155.2z M76.9,127c0.3,0.9,0.5,1.7,0.8,2.4c-0.4,0.6-1,1.3-1.7,2h0c0.3,0.1,0.7,0.2,1,0.3
		c0.3-1.1,0.9-2.4,1.5-3.6C78.1,127.8,77.5,127.4,76.9,127z M93.7,117.4c0.1-0.5,0.3-1.1,0.6-1.6c-0.4,0.1-0.7,0.3-1.2,0.4
		c-0.5-0.2-0.9-0.5-1.4-0.8c0.3,0.6,0.5,1.2,0.7,1.6c-0.2,0.3-0.4,0.7-0.7,1c0.8,0,1.7,0,2.5,0.2c0,0,0.1,0.1,0.1,0.1
		C94.1,118,93.9,117.7,93.7,117.4z M94.9,143c-1.6-0.2-3.2-0.6-4.7-1.2c0.3,0.4,0.7,0.9,1,1.3c1.3-0.2,2.8-0.2,4.3,0.1
		c0.3,0.2,0.7,0.4,1.1,0.7c0.3-0.9,0.7-1.8,1.3-2.7C96.9,141.8,96,142.4,94.9,143z M107.8,105.5L107.8,105.5L107.8,105.5
		C107.8,105.5,107.8,105.5,107.8,105.5z M73.6,155.2c0,0,0,0.1,0,0.1c0,0,0.1,0,0.1,0C73.7,155.3,73.7,155.3,73.6,155.2z M76.9,127
		c0.3,0.9,0.5,1.7,0.8,2.4c-0.4,0.6-1,1.3-1.7,2h0c0.3,0.1,0.7,0.2,1,0.3c0.3-1.1,0.9-2.4,1.5-3.6C78.1,127.8,77.5,127.4,76.9,127z
		 M93.7,117.4c0.1-0.5,0.3-1.1,0.6-1.6c-0.4,0.1-0.7,0.3-1.2,0.4c-0.5-0.2-0.9-0.5-1.4-0.8c0.3,0.6,0.5,1.2,0.7,1.6
		c-0.2,0.3-0.4,0.7-0.7,1c0.8,0,1.7,0,2.5,0.2c0,0,0.1,0.1,0.1,0.1C94.1,118,93.9,117.7,93.7,117.4z M94.9,143
		c-1.6-0.2-3.2-0.6-4.7-1.2c0.3,0.4,0.7,0.9,1,1.3c1.3-0.2,2.8-0.2,4.3,0.1c0.3,0.2,0.7,0.4,1.1,0.7c0.3-0.9,0.7-1.8,1.3-2.7
		C96.9,141.8,96,142.4,94.9,143z M107.8,105.5L107.8,105.5L107.8,105.5C107.8,105.5,107.8,105.5,107.8,105.5z M73.6,155.2
		c0,0,0,0.1,0,0.1c0,0,0.1,0,0.1,0C73.7,155.3,73.7,155.3,73.6,155.2z M76.9,127c0.3,0.9,0.5,1.7,0.8,2.4c-0.4,0.6-1,1.3-1.7,2h0
		c0.3,0.1,0.7,0.2,1,0.3c0.3-1.1,0.9-2.4,1.5-3.6C78.1,127.8,77.5,127.4,76.9,127z M93.7,117.4c0.1-0.5,0.3-1.1,0.6-1.6
		c-0.4,0.1-0.7,0.3-1.2,0.4c-0.5-0.2-0.9-0.5-1.4-0.8c0.3,0.6,0.5,1.2,0.7,1.6c-0.2,0.3-0.4,0.7-0.7,1c0.8,0,1.7,0,2.5,0.2
		c0,0,0.1,0.1,0.1,0.1C94.1,118,93.9,117.7,93.7,117.4z M94.9,143c-1.6-0.2-3.2-0.6-4.7-1.2c0.3,0.4,0.7,0.9,1,1.3
		c1.3-0.2,2.8-0.2,4.3,0.1c0.3,0.2,0.7,0.4,1.1,0.7c0.3-0.9,0.7-1.8,1.3-2.7C96.9,141.8,96,142.4,94.9,143z M107.8,105.5
		L107.8,105.5L107.8,105.5C107.8,105.5,107.8,105.5,107.8,105.5z M117.1,108.4c0.2-0.9,0.5-1.7,0.8-2.5c-0.9,0.9-1.9,1.5-2.8,2.1
		c1.2,0.8,2.4,1.6,3.6,2.5C118.1,109.7,117.6,109.1,117.1,108.4z M125.7,118.9c-0.6-0.6-1.2-1.2-1.9-1.9c0,0.2,0,0.4,0.1,0.6
		c-0.5,0.8-1.1,1.9-1.7,3.1C123.3,119.9,124.5,119.3,125.7,118.9z M131.9,120.4c0.4,0.4,0.9,0.8,1.3,1.2c0.2-0.7,0.5-1.4,0.9-2
		C133.4,120,132.6,120.2,131.9,120.4z M73.6,155.2c0,0,0,0.1,0,0.1c0,0,0.1,0,0.1,0C73.7,155.3,73.7,155.3,73.6,155.2z M76.9,127
		c0.3,0.9,0.5,1.7,0.8,2.4c-0.4,0.6-1,1.3-1.7,2h0c0.3,0.1,0.7,0.2,1,0.3c0.3-1.1,0.9-2.4,1.5-3.6C78.1,127.8,77.5,127.4,76.9,127z
		 M93.7,117.4c0.1-0.5,0.3-1.1,0.6-1.6c-0.4,0.1-0.7,0.3-1.2,0.4c-0.5-0.2-0.9-0.5-1.4-0.8c0.3,0.6,0.5,1.2,0.7,1.6
		c-0.2,0.3-0.4,0.7-0.7,1c0.8,0,1.7,0,2.5,0.2c0,0,0.1,0.1,0.1,0.1C94.1,118,93.9,117.7,93.7,117.4z M94.9,143
		c-1.6-0.2-3.2-0.6-4.7-1.2c0.3,0.4,0.7,0.9,1,1.3c1.3-0.2,2.8-0.2,4.3,0.1c0.3,0.2,0.7,0.4,1.1,0.7c0.3-0.9,0.7-1.8,1.3-2.7
		C96.9,141.8,96,142.4,94.9,143z M107.8,105.5L107.8,105.5L107.8,105.5C107.8,105.5,107.8,105.5,107.8,105.5z M117.1,108.4
		c0.2-0.9,0.5-1.7,0.8-2.5c-0.9,0.9-1.9,1.5-2.8,2.1c1.2,0.8,2.4,1.6,3.6,2.5C118.1,109.7,117.6,109.1,117.1,108.4z M125.7,118.9
		c-0.6-0.6-1.2-1.2-1.9-1.9c0,0.2,0,0.4,0.1,0.6c-0.5,0.8-1.1,1.9-1.7,3.1C123.3,119.9,124.5,119.3,125.7,118.9z M73.6,155.2
		c0,0,0,0.1,0,0.1c0,0,0.1,0,0.1,0C73.7,155.3,73.7,155.3,73.6,155.2z M76.9,127c0.3,0.9,0.5,1.7,0.8,2.4c-0.4,0.6-1,1.3-1.7,2h0
		c0.3,0.1,0.7,0.2,1,0.3c0.3-1.1,0.9-2.4,1.5-3.6C78.1,127.8,77.5,127.4,76.9,127z M94.9,143c-1.6-0.2-3.2-0.6-4.7-1.2
		c0.3,0.4,0.7,0.9,1,1.3c1.3-0.2,2.8-0.2,4.3,0.1c0.3,0.2,0.7,0.4,1.1,0.7c0.3-0.9,0.7-1.8,1.3-2.7C96.9,141.8,96,142.4,94.9,143z
		 M137.3,84.3c0.4,0.3,0.8,0.6,1.1,0.9c0.2-0.1,0.4-0.2,0.6-0.4C138.5,84.6,137.9,84.4,137.3,84.3z M129.3,97.1
		c0.1-0.4,0.2-0.8,0.4-1.2c-0.8,0.3-1.5,0.5-2.3,0.6C128.1,96.6,128.7,96.8,129.3,97.1z M127.4,96.5
		C127.4,96.5,127.4,96.5,127.4,96.5C127.4,96.4,127.4,96.4,127.4,96.5C127.4,96.4,127.4,96.4,127.4,96.5z M126.3,96.4
		c-0.5-0.2-1-0.4-1.6-0.8c0.1,0.3,0.2,0.6,0.3,0.8c-0.3,0.4-0.6,1-1,1.6c1-0.7,2.1-1.2,3.4-1.7C127,96.5,126.6,96.5,126.3,96.4z
		 M109.4,79.3c0.2,0,0.4,0,0.5,0c1.3,1.2,2,2.3,2,3.3c1.4-1.4,3.3-2.4,5.4-2.8C113.9,79.3,111.1,79.1,109.4,79.3z M111.2,84.7
		c0.5-0.7,0.7-1.4,0.7-2.2c-0.4,0.5-0.8,1-1.2,1.5C110.9,84.3,111,84.5,111.2,84.7z M111.4,85c0-0.1-0.1-0.1-0.2-0.2
		c-0.1,0.1-0.2,0.2-0.3,0.4C111.1,85.1,111.2,85,111.4,85z M99.9,94.6c0.1-0.6,0.4-1.2,0.6-1.7c-0.7,0.7-1.7,1.2-3,1.6
		c1.5,0.6,2.7,1.3,3.8,2.1C100.9,95.9,100.4,95.2,99.9,94.6z M94.9,143c-1.6-0.2-3.2-0.6-4.7-1.2c0.3,0.4,0.7,0.9,1,1.3
		c1.3-0.2,2.8-0.2,4.3,0.1c0.3,0.2,0.7,0.4,1.1,0.7c0.3-0.9,0.7-1.8,1.3-2.7C96.9,141.8,96,142.4,94.9,143z M73.6,155.2
		c0,0,0,0.1,0,0.1c0,0,0.1,0,0.1,0C73.7,155.3,73.7,155.3,73.6,155.2z M56.4,119.3c-0.5,1.2-1,2.5-1.5,4c0.6-0.7,1.2-1.4,2-2.1
		C56.5,120.7,56.4,120.1,56.4,119.3z M67.9,115.9L67.9,115.9C67.9,116,67.9,116,67.9,115.9C68,115.9,67.9,115.9,67.9,115.9z
		 M71.7,101.4c0.1,0,0.2,0.1,0.3,0.1c0.1-0.3,0.2-0.5,0.4-0.8C72.2,101,72,101.1,71.7,101.4z M73.6,155.2c0,0,0,0.1,0,0.1
		c0,0,0.1,0,0.1,0C73.7,155.3,73.7,155.3,73.6,155.2z M73.4,106.5c-0.2,0.4-0.4,0.9-0.7,1.3c1.1-0.8,2.2-1.4,3.5-2.1
		C75.4,105.9,74.5,106.2,73.4,106.5z M73.6,155.2c0,0,0,0.1,0,0.1c0,0,0.1,0,0.1,0C73.7,155.3,73.7,155.3,73.6,155.2z M76.9,127
		c0.3,0.9,0.5,1.7,0.8,2.4c-0.4,0.6-1,1.3-1.7,2h0c0.3,0.1,0.7,0.2,1,0.3c0.3-1.1,0.9-2.4,1.5-3.6C78.1,127.8,77.5,127.4,76.9,127z
		 M83.2,104.1c-0.4,0.4-1,0.7-1.5,0.8c1.3,0.6,2.7,1.7,4.1,2.9C84.9,106.6,84.1,105.3,83.2,104.1z M91.8,94.8
		c-1.1-0.1-2.2-0.5-3.2-0.9c0.1,0.8,0,1.6-0.2,2.5C89.5,95.9,90.6,95.3,91.8,94.8z M94.9,143c-1.6-0.2-3.2-0.6-4.7-1.2
		c0.3,0.4,0.7,0.9,1,1.3c1.3-0.2,2.8-0.2,4.3,0.1c0.3,0.2,0.7,0.4,1.1,0.7c0.3-0.9,0.7-1.8,1.3-2.7C96.9,141.8,96,142.4,94.9,143z
		 M76.9,127c0.3,0.9,0.5,1.7,0.8,2.4c-0.4,0.6-1,1.3-1.7,2h0c0.3,0.1,0.7,0.2,1,0.3c0.3-1.1,0.9-2.4,1.5-3.6
		C78.1,127.8,77.5,127.4,76.9,127z M73.6,155.2c0,0,0,0.1,0,0.1c0,0,0.1,0,0.1,0C73.7,155.3,73.7,155.3,73.6,155.2z M107.8,105.5
		L107.8,105.5L107.8,105.5C107.8,105.5,107.8,105.5,107.8,105.5z M94.9,143c-1.6-0.2-3.2-0.6-4.7-1.2c0.3,0.4,0.7,0.9,1,1.3
		c1.3-0.2,2.8-0.2,4.3,0.1c0.3,0.2,0.7,0.4,1.1,0.7c0.3-0.9,0.7-1.8,1.3-2.7C96.9,141.8,96,142.4,94.9,143z M93.7,117.4
		c0.1-0.5,0.3-1.1,0.6-1.6c-0.4,0.1-0.7,0.3-1.2,0.4c-0.5-0.2-0.9-0.5-1.4-0.8c0.3,0.6,0.5,1.2,0.7,1.6c-0.2,0.3-0.4,0.7-0.7,1
		c0.8,0,1.7,0,2.5,0.2c0,0,0.1,0.1,0.1,0.1C94.1,118,93.9,117.7,93.7,117.4z M76.9,127c0.3,0.9,0.5,1.7,0.8,2.4
		c-0.4,0.6-1,1.3-1.7,2h0c0.3,0.1,0.7,0.2,1,0.3c0.3-1.1,0.9-2.4,1.5-3.6C78.1,127.8,77.5,127.4,76.9,127z M73.6,155.2
		c0,0,0,0.1,0,0.1c0,0,0.1,0,0.1,0C73.7,155.3,73.7,155.3,73.6,155.2z M142.9,112.8c-0.2,0.2-0.3,0.4-0.5,0.6
		c0.3-0.1,0.6-0.2,0.9-0.4C143.1,112.9,143,112.9,142.9,112.8z M145.1,112.3c-0.6,0.2-1.2,0.5-1.9,0.7c0.1,0,0.2,0.1,0.3,0.1
		c0.9,0.1,1.7-0.1,2.5-0.6C145.7,112.5,145.4,112.4,145.1,112.3z M146.7,112.1c-0.2,0.1-0.4,0.3-0.7,0.4c0.5,0.1,1,0.3,1.5,0.5
		C147.2,112.8,146.9,112.4,146.7,112.1z M149.9,88.8c-0.5-0.2-1-0.4-1.4-0.6c0.5,0.5,0.9,1.1,1.3,1.6
		C149.7,89.4,149.8,89,149.9,88.8z M156,101c-0.3-0.3-0.5-0.6-0.8-0.9c-0.4-1.1-1-2.1-1.7-3.1c0.3,0.8,0.6,1.6,0.8,2.2
		c-0.5,0.8-1.1,2.2-1.8,3.7C153.6,102.2,154.7,101.5,156,101z M178.3,117.6c-0.5-1.2-1.1-2.4-1.6-3.7c0.1,0.4,0.1,0.9,0.2,1.3
		c-0.2-0.1-0.6-0.2-1-0.4C176.9,115.7,177.7,116.6,178.3,117.6z M145.1,112.3c-0.6,0.2-1.2,0.5-1.9,0.7c0.1,0,0.2,0.1,0.3,0.1
		c0.9,0.1,1.7-0.1,2.5-0.6C145.7,112.5,145.4,112.4,145.1,112.3z M142.9,112.8c-0.2,0.2-0.3,0.4-0.5,0.6c0.3-0.1,0.6-0.2,0.9-0.4
		C143.1,112.9,143,112.9,142.9,112.8z M125.7,118.9c-0.6-0.6-1.2-1.2-1.9-1.9c0,0.2,0,0.4,0.1,0.6c-0.5,0.8-1.1,1.9-1.7,3.1
		C123.3,119.9,124.5,119.3,125.7,118.9z M117.1,108.4c0.2-0.9,0.5-1.7,0.8-2.5c-0.9,0.9-1.9,1.5-2.8,2.1c1.2,0.8,2.4,1.6,3.6,2.5
		C118.1,109.7,117.6,109.1,117.1,108.4z M125.7,118.9c-0.6-0.6-1.2-1.2-1.9-1.9c0,0.2,0,0.4,0.1,0.6c-0.5,0.8-1.1,1.9-1.7,3.1
		C123.3,119.9,124.5,119.3,125.7,118.9z M117.1,108.4c0.2-0.9,0.5-1.7,0.8-2.5c-0.9,0.9-1.9,1.5-2.8,2.1c1.2,0.8,2.4,1.6,3.6,2.5
		C118.1,109.7,117.6,109.1,117.1,108.4z M107.8,105.5L107.8,105.5L107.8,105.5C107.8,105.5,107.8,105.5,107.8,105.5z M94.9,143
		c-1.6-0.2-3.2-0.6-4.7-1.2c0.3,0.4,0.7,0.9,1,1.3c1.3-0.2,2.8-0.2,4.3,0.1c0.3,0.2,0.7,0.4,1.1,0.7c0.3-0.9,0.7-1.8,1.3-2.7
		C96.9,141.8,96,142.4,94.9,143z M93.7,117.4c0.1-0.5,0.3-1.1,0.6-1.6c-0.4,0.1-0.7,0.3-1.2,0.4c-0.5-0.2-0.9-0.5-1.4-0.8
		c0.3,0.6,0.5,1.2,0.7,1.6c-0.2,0.3-0.4,0.7-0.7,1c0.8,0,1.7,0,2.5,0.2c0,0,0.1,0.1,0.1,0.1C94.1,118,93.9,117.7,93.7,117.4z
		 M76.9,127c0.3,0.9,0.5,1.7,0.8,2.4c-0.4,0.6-1,1.3-1.7,2h0c0.3,0.1,0.7,0.2,1,0.3c0.3-1.1,0.9-2.4,1.5-3.6
		C78.1,127.8,77.5,127.4,76.9,127z M73.6,155.2c0,0,0,0.1,0,0.1c0,0,0.1,0,0.1,0C73.7,155.3,73.7,155.3,73.6,155.2z M107.8,105.5
		L107.8,105.5L107.8,105.5C107.8,105.5,107.8,105.5,107.8,105.5z M94.9,143c-1.6-0.2-3.2-0.6-4.7-1.2c0.3,0.4,0.7,0.9,1,1.3
		c1.3-0.2,2.8-0.2,4.3,0.1c0.3,0.2,0.7,0.4,1.1,0.7c0.3-0.9,0.7-1.8,1.3-2.7C96.9,141.8,96,142.4,94.9,143z M93.7,117.4
		c0.1-0.5,0.3-1.1,0.6-1.6c-0.4,0.1-0.7,0.3-1.2,0.4c-0.5-0.2-0.9-0.5-1.4-0.8c0.3,0.6,0.5,1.2,0.7,1.6c-0.2,0.3-0.4,0.7-0.7,1
		c0.8,0,1.7,0,2.5,0.2c0,0,0.1,0.1,0.1,0.1C94.1,118,93.9,117.7,93.7,117.4z M76.9,127c0.3,0.9,0.5,1.7,0.8,2.4
		c-0.4,0.6-1,1.3-1.7,2h0c0.3,0.1,0.7,0.2,1,0.3c0.3-1.1,0.9-2.4,1.5-3.6C78.1,127.8,77.5,127.4,76.9,127z M73.6,155.2
		c0,0,0,0.1,0,0.1c0,0,0.1,0,0.1,0C73.7,155.3,73.7,155.3,73.6,155.2z M167.2,118.5c-0.6,0.8-1.3,1.5-2,2.1c0.5,0,1,0.1,1.4,0.2
		c0.1,0,0.3,0.1,0.4,0.1C167.2,120.3,167.2,119.4,167.2,118.5z M156.2,120.2c0.8,1.3,1.3,2.5,1.7,3.7c0.6-0.6,1.2-1.2,1.9-1.7
		C158.8,121.7,157.6,121.1,156.2,120.2z M107.8,105.5L107.8,105.5L107.8,105.5C107.8,105.5,107.8,105.5,107.8,105.5z M94.9,143
		c-1.6-0.2-3.2-0.6-4.7-1.2c0.3,0.4,0.7,0.9,1,1.3c1.3-0.2,2.8-0.2,4.3,0.1c0.3,0.2,0.7,0.4,1.1,0.7c0.3-0.9,0.7-1.8,1.3-2.7
		C96.9,141.8,96,142.4,94.9,143z M93.7,117.4c0.1-0.5,0.3-1.1,0.6-1.6c-0.4,0.1-0.7,0.3-1.2,0.4c-0.5-0.2-0.9-0.5-1.4-0.8
		c0.3,0.6,0.5,1.2,0.7,1.6c-0.2,0.3-0.4,0.7-0.7,1c0.8,0,1.7,0,2.5,0.2c0,0,0.1,0.1,0.1,0.1C94.1,118,93.9,117.7,93.7,117.4z
		 M76.9,127c0.3,0.9,0.5,1.7,0.8,2.4c-0.4,0.6-1,1.3-1.7,2h0c0.3,0.1,0.7,0.2,1,0.3c0.3-1.1,0.9-2.4,1.5-3.6
		C78.1,127.8,77.5,127.4,76.9,127z M73.6,155.2c0,0,0,0.1,0,0.1c0,0,0.1,0,0.1,0C73.7,155.3,73.7,155.3,73.6,155.2z M107.8,105.5
		L107.8,105.5L107.8,105.5C107.8,105.5,107.8,105.5,107.8,105.5z M94.9,143c-1.6-0.2-3.2-0.6-4.7-1.2c0.3,0.4,0.7,0.9,1,1.3
		c1.3-0.2,2.8-0.2,4.3,0.1c0.3,0.2,0.7,0.4,1.1,0.7c0.3-0.9,0.7-1.8,1.3-2.7C96.9,141.8,96,142.4,94.9,143z M93.7,117.4
		c0.1-0.5,0.3-1.1,0.6-1.6c-0.4,0.1-0.7,0.3-1.2,0.4c-0.5-0.2-0.9-0.5-1.4-0.8c0.3,0.6,0.5,1.2,0.7,1.6c-0.2,0.3-0.4,0.7-0.7,1
		c0.8,0,1.7,0,2.5,0.2c0,0,0.1,0.1,0.1,0.1C94.1,118,93.9,117.7,93.7,117.4z M76.9,127c0.3,0.9,0.5,1.7,0.8,2.4
		c-0.4,0.6-1,1.3-1.7,2h0c0.3,0.1,0.7,0.2,1,0.3c0.3-1.1,0.9-2.4,1.5-3.6C78.1,127.8,77.5,127.4,76.9,127z M73.6,155.2
		c0,0,0,0.1,0,0.1c0,0,0.1,0,0.1,0C73.7,155.3,73.7,155.3,73.6,155.2z M181.8,126.6c0,2.4-1.1,4.4-3.5,5.2c-0.4-0.1-0.8-0.3-1.2-0.6
		c0.3,0.9,0.5,1.8,0.7,2.6c1.2-1,2.4-1.8,3.8-2.3c1.2,1.1,2.2,2.3,3,3.6C183.9,132.6,182.9,129.7,181.8,126.6z M107.8,105.5
		L107.8,105.5L107.8,105.5C107.8,105.5,107.8,105.5,107.8,105.5z M94.9,143c-1.6-0.2-3.2-0.6-4.7-1.2c0.3,0.4,0.7,0.9,1,1.3
		c1.3-0.2,2.8-0.2,4.3,0.1c0.3,0.2,0.7,0.4,1.1,0.7c0.3-0.9,0.7-1.8,1.3-2.7C96.9,141.8,96,142.4,94.9,143z M93.7,117.4
		c0.1-0.5,0.3-1.1,0.6-1.6c-0.4,0.1-0.7,0.3-1.2,0.4c-0.5-0.2-0.9-0.5-1.4-0.8c0.3,0.6,0.5,1.2,0.7,1.6c-0.2,0.3-0.4,0.7-0.7,1
		c0.8,0,1.7,0,2.5,0.2c0,0,0.1,0.1,0.1,0.1C94.1,118,93.9,117.7,93.7,117.4z M76.9,127c0.3,0.9,0.5,1.7,0.8,2.4
		c-0.4,0.6-1,1.3-1.7,2h0c0.3,0.1,0.7,0.2,1,0.3c0.3-1.1,0.9-2.4,1.5-3.6C78.1,127.8,77.5,127.4,76.9,127z M73.6,155.2
		c0,0,0,0.1,0,0.1c0,0,0.1,0,0.1,0C73.7,155.3,73.7,155.3,73.6,155.2z M165.8,144.6c1.6,0.4,3,1.2,4.2,2.2c0.2-0.9,0.5-1.7,0.9-2.6
		C169.4,144.5,167.7,144.7,165.8,144.6z M165.7,144.5c-0.4-0.1-0.9-0.1-1.3-0.2c0.1,0,0.1,0,0.2,0.1
		C165,144.5,165.4,144.5,165.7,144.5C165.8,144.6,165.7,144.6,165.7,144.5z M162.3,143.1c0.2,0.4,0.3,0.8,0.4,1.2c0.6,0,1.2,0,1.7,0
		C163.7,144.1,163,143.7,162.3,143.1z M153.2,133.6c0.1-0.6,0.3-1.2,0.6-1.9c-0.9,1.1-1.9,2.1-3.2,2.9c2,0.6,3.8,1.5,5.5,2.4
		C155.1,136,154.1,134.8,153.2,133.6z M107.8,105.5L107.8,105.5L107.8,105.5C107.8,105.5,107.8,105.5,107.8,105.5z M94.9,143
		c-1.6-0.2-3.2-0.6-4.7-1.2c0.3,0.4,0.7,0.9,1,1.3c1.3-0.2,2.8-0.2,4.3,0.1c0.3,0.2,0.7,0.4,1.1,0.7c0.3-0.9,0.7-1.8,1.3-2.7
		C96.9,141.8,96,142.4,94.9,143z M93.7,117.4c0.1-0.5,0.3-1.1,0.6-1.6c-0.4,0.1-0.7,0.3-1.2,0.4c-0.5-0.2-0.9-0.5-1.4-0.8
		c0.3,0.6,0.5,1.2,0.7,1.6c-0.2,0.3-0.4,0.7-0.7,1c0.8,0,1.7,0,2.5,0.2c0,0,0.1,0.1,0.1,0.1C94.1,118,93.9,117.7,93.7,117.4z
		 M76.9,127c0.3,0.9,0.5,1.7,0.8,2.4c-0.4,0.6-1,1.3-1.7,2h0c0.3,0.1,0.7,0.2,1,0.3c0.3-1.1,0.9-2.4,1.5-3.6
		C78.1,127.8,77.5,127.4,76.9,127z M73.6,155.2c0,0,0,0.1,0,0.1c0,0,0.1,0,0.1,0C73.7,155.3,73.7,155.3,73.6,155.2z M142,132.5
		c-0.5,1-1,2.1-1.6,3.3c1.2-0.6,2.4-1.1,3.7-1.4C143.4,133.8,142.7,133.2,142,132.5z M107.8,105.5L107.8,105.5L107.8,105.5
		C107.8,105.5,107.8,105.5,107.8,105.5z M94.9,143c-1.6-0.2-3.2-0.6-4.7-1.2c0.3,0.4,0.7,0.9,1,1.3c1.3-0.2,2.8-0.2,4.3,0.1
		c0.3,0.2,0.7,0.4,1.1,0.7c0.3-0.9,0.7-1.8,1.3-2.7C96.9,141.8,96,142.4,94.9,143z M93.7,117.4c0.1-0.5,0.3-1.1,0.6-1.6
		c-0.4,0.1-0.7,0.3-1.2,0.4c-0.5-0.2-0.9-0.5-1.4-0.8c0.3,0.6,0.5,1.2,0.7,1.6c-0.2,0.3-0.4,0.7-0.7,1c0.8,0,1.7,0,2.5,0.2
		c0,0,0.1,0.1,0.1,0.1C94.1,118,93.9,117.7,93.7,117.4z M76.9,127c0.3,0.9,0.5,1.7,0.8,2.4c-0.4,0.6-1,1.3-1.7,2h0
		c0.3,0.1,0.7,0.2,1,0.3c0.3-1.1,0.9-2.4,1.5-3.6C78.1,127.8,77.5,127.4,76.9,127z M73.6,155.2c0,0,0,0.1,0,0.1c0,0,0.1,0,0.1,0
		C73.7,155.3,73.7,155.3,73.6,155.2z M107.8,105.5L107.8,105.5L107.8,105.5C107.8,105.5,107.8,105.5,107.8,105.5z M94.9,143
		c-1.6-0.2-3.2-0.6-4.7-1.2c0.3,0.4,0.7,0.9,1,1.3c1.3-0.2,2.8-0.2,4.3,0.1c0.3,0.2,0.7,0.4,1.1,0.7c0.3-0.9,0.7-1.8,1.3-2.7
		C96.9,141.8,96,142.4,94.9,143z M93.7,117.4c0.1-0.5,0.3-1.1,0.6-1.6c-0.4,0.1-0.7,0.3-1.2,0.4c-0.5-0.2-0.9-0.5-1.4-0.8
		c0.3,0.6,0.5,1.2,0.7,1.6c-0.2,0.3-0.4,0.7-0.7,1c0.8,0,1.7,0,2.5,0.2c0,0,0.1,0.1,0.1,0.1C94.1,118,93.9,117.7,93.7,117.4z
		 M76.9,127c0.3,0.9,0.5,1.7,0.8,2.4c-0.4,0.6-1,1.3-1.7,2h0c0.3,0.1,0.7,0.2,1,0.3c0.3-1.1,0.9-2.4,1.5-3.6
		C78.1,127.8,77.5,127.4,76.9,127z M73.6,155.2c0,0,0,0.1,0,0.1c0,0,0.1,0,0.1,0C73.7,155.3,73.7,155.3,73.6,155.2z M113.6,130.7
		c0.1-0.4,0.2-0.8,0.4-1.2c-0.7,0.4-1.5,0.7-2.4,1c-1.2-0.1-2.3-0.4-3.4-0.9c0.4,0.5,0.8,1,1.1,1.4c-0.2,0.3-0.4,0.6-0.6,0.9
		c0.9-0.5,1.7-0.9,2.6-1.2c1.3,0.8,2.9,1.6,4.5,2.5C114.9,132.3,114.2,131.5,113.6,130.7z M107.8,105.5L107.8,105.5L107.8,105.5
		C107.8,105.5,107.8,105.5,107.8,105.5z M94.9,143c-1.6-0.2-3.2-0.6-4.7-1.2c0.3,0.4,0.7,0.9,1,1.3c1.3-0.2,2.8-0.2,4.3,0.1
		c0.3,0.2,0.7,0.4,1.1,0.7c0.3-0.9,0.7-1.8,1.3-2.7C96.9,141.8,96,142.4,94.9,143z M93.7,117.4c0.1-0.5,0.3-1.1,0.6-1.6
		c-0.4,0.1-0.7,0.3-1.2,0.4c-0.5-0.2-0.9-0.5-1.4-0.8c0.3,0.6,0.5,1.2,0.7,1.6c-0.2,0.3-0.4,0.7-0.7,1c0.8,0,1.7,0,2.5,0.2
		c0,0,0.1,0.1,0.1,0.1C94.1,118,93.9,117.7,93.7,117.4z M76.9,127c0.3,0.9,0.5,1.7,0.8,2.4c-0.4,0.6-1,1.3-1.7,2h0
		c0.3,0.1,0.7,0.2,1,0.3c0.3-1.1,0.9-2.4,1.5-3.6C78.1,127.8,77.5,127.4,76.9,127z M73.6,155.2c0,0,0,0.1,0,0.1c0,0,0.1,0,0.1,0
		C73.7,155.3,73.7,155.3,73.6,155.2z M113.6,130.7c0.1-0.4,0.2-0.8,0.4-1.2c-0.7,0.4-1.5,0.7-2.4,1c-1.2-0.1-2.3-0.4-3.4-0.9
		c0.4,0.5,0.8,1,1.1,1.4c-0.2,0.3-0.4,0.6-0.6,0.9c0.9-0.5,1.7-0.9,2.6-1.2c1.3,0.8,2.9,1.6,4.5,2.5
		C114.9,132.3,114.2,131.5,113.6,130.7z M107.8,105.5L107.8,105.5L107.8,105.5C107.8,105.5,107.8,105.5,107.8,105.5z M94.9,143
		c-1.6-0.2-3.2-0.6-4.7-1.2c0.3,0.4,0.7,0.9,1,1.3c1.3-0.2,2.8-0.2,4.3,0.1c0.3,0.2,0.7,0.4,1.1,0.7c0.3-0.9,0.7-1.8,1.3-2.7
		C96.9,141.8,96,142.4,94.9,143z M93.7,117.4c0.1-0.5,0.3-1.1,0.6-1.6c-0.4,0.1-0.7,0.3-1.2,0.4c-0.5-0.2-0.9-0.5-1.4-0.8
		c0.3,0.6,0.5,1.2,0.7,1.6c-0.2,0.3-0.4,0.7-0.7,1c0.8,0,1.7,0,2.5,0.2c0,0,0.1,0.1,0.1,0.1C94.1,118,93.9,117.7,93.7,117.4z
		 M76.9,127c0.3,0.9,0.5,1.7,0.8,2.4c-0.4,0.6-1,1.3-1.7,2h0c0.3,0.1,0.7,0.2,1,0.3c0.3-1.1,0.9-2.4,1.5-3.6
		C78.1,127.8,77.5,127.4,76.9,127z M73.6,155.2c0,0,0,0.1,0,0.1c0,0,0.1,0,0.1,0C73.7,155.3,73.7,155.3,73.6,155.2z M184.6,158.6
		c-0.1,0-0.2,0-0.3,0c0.1,0.2,0.2,0.5,0.3,0.8c0.1-0.6,0.3-1.2,0.4-1.7C185,158.1,184.8,158.3,184.6,158.6z M179.3,176.8
		c0,0.2,0.1,0.3,0.1,0.5c0-0.2,0.1-0.5,0.2-0.7C179.6,176.7,179.4,176.7,179.3,176.8z M175.7,156.2c0.3,1.2,0.4,2.4,0.3,3.3
		c0.5-0.6,1.1-1.2,1.8-1.6C177.1,157.4,176.4,156.8,175.7,156.2z M166.7,169.9c-0.6-0.1-1.2-0.2-1.8-0.3c0.1,0.6,0,1.2-0.3,1.7
		c-0.5,0.8-0.9,1.9-1.3,3c2.6-2.5,5.6-4.7,8.4-5.6c0.2,0.1,0.5,0.1,0.8,0.2c0.3-1.1,0.5-2.1,0.8-3
		C172.2,167.4,170.5,168.7,166.7,169.9z M113.6,130.7c0.1-0.4,0.2-0.8,0.4-1.2c-0.7,0.4-1.5,0.7-2.4,1c-1.2-0.1-2.3-0.4-3.4-0.9
		c0.4,0.5,0.8,1,1.1,1.4c-0.2,0.3-0.4,0.6-0.6,0.9c0.9-0.5,1.7-0.9,2.6-1.2c1.3,0.8,2.9,1.6,4.5,2.5
		C114.9,132.3,114.2,131.5,113.6,130.7z M107.8,105.5L107.8,105.5L107.8,105.5C107.8,105.5,107.8,105.5,107.8,105.5z M94.9,143
		c-1.6-0.2-3.2-0.6-4.7-1.2c0.3,0.4,0.7,0.9,1,1.3c1.3-0.2,2.8-0.2,4.3,0.1c0.3,0.2,0.7,0.4,1.1,0.7c0.3-0.9,0.7-1.8,1.3-2.7
		C96.9,141.8,96,142.4,94.9,143z M93.7,117.4c0.1-0.5,0.3-1.1,0.6-1.6c-0.4,0.1-0.7,0.3-1.2,0.4c-0.5-0.2-0.9-0.5-1.4-0.8
		c0.3,0.6,0.5,1.2,0.7,1.6c-0.2,0.3-0.4,0.7-0.7,1c0.8,0,1.7,0,2.5,0.2c0,0,0.1,0.1,0.1,0.1C94.1,118,93.9,117.7,93.7,117.4z
		 M76.9,127c0.3,0.9,0.5,1.7,0.8,2.4c-0.4,0.6-1,1.3-1.7,2h0c0.3,0.1,0.7,0.2,1,0.3c0.3-1.1,0.9-2.4,1.5-3.6
		C78.1,127.8,77.5,127.4,76.9,127z M73.6,155.2c0,0,0,0.1,0,0.1c0,0,0.1,0,0.1,0C73.7,155.3,73.7,155.3,73.6,155.2z M113.6,130.7
		c0.1-0.4,0.2-0.8,0.4-1.2c-0.7,0.4-1.5,0.7-2.4,1c-1.2-0.1-2.3-0.4-3.4-0.9c0.4,0.5,0.8,1,1.1,1.4c-0.2,0.3-0.4,0.6-0.6,0.9
		c0.9-0.5,1.7-0.9,2.6-1.2c1.3,0.8,2.9,1.6,4.5,2.5C114.9,132.3,114.2,131.5,113.6,130.7z M107.8,105.5L107.8,105.5L107.8,105.5
		C107.8,105.5,107.8,105.5,107.8,105.5z M94.9,143c-1.6-0.2-3.2-0.6-4.7-1.2c0.3,0.4,0.7,0.9,1,1.3c1.3-0.2,2.8-0.2,4.3,0.1
		c0.3,0.2,0.7,0.4,1.1,0.7c0.3-0.9,0.7-1.8,1.3-2.7C96.9,141.8,96,142.4,94.9,143z M93.7,117.4c0.1-0.5,0.3-1.1,0.6-1.6
		c-0.4,0.1-0.7,0.3-1.2,0.4c-0.5-0.2-0.9-0.5-1.4-0.8c0.3,0.6,0.5,1.2,0.7,1.6c-0.2,0.3-0.4,0.7-0.7,1c0.8,0,1.7,0,2.5,0.2
		c0,0,0.1,0.1,0.1,0.1C94.1,118,93.9,117.7,93.7,117.4z M76.9,127c0.3,0.9,0.5,1.7,0.8,2.4c-0.4,0.6-1,1.3-1.7,2h0
		c0.3,0.1,0.7,0.2,1,0.3c0.3-1.1,0.9-2.4,1.5-3.6C78.1,127.8,77.5,127.4,76.9,127z M73.6,155.2c0,0,0,0.1,0,0.1c0,0,0.1,0,0.1,0
		C73.7,155.3,73.7,155.3,73.6,155.2z M157,183.7c0.1-0.3,0.2-0.6,0.3-1c-0.5,0.3-1.2,0.6-1.8,0.9c1,0.5,1.9,1.1,2.8,1.8
		C157.8,184.9,157.4,184.3,157,183.7z M149,185c1.1-0.6,2.1-1.2,3.1-1.6c-1.1-0.3-2.1-0.7-3.1-1.1c0.5,1,0.7,1.7,0.3,2.3
		C149.2,184.7,149.1,184.8,149,185z M131.3,169.6c0.4,0,0.7,0,1.1,0c0.6,0.2,1.3,0.6,2.2,1c0.3-1,0.9-2.1,1.5-3.2
		C134.6,168.3,133,169,131.3,169.6z M113.6,130.7c0.1-0.4,0.2-0.8,0.4-1.2c-0.7,0.4-1.5,0.7-2.4,1c-1.2-0.1-2.3-0.4-3.4-0.9
		c0.4,0.5,0.8,1,1.1,1.4c-0.2,0.3-0.4,0.6-0.6,0.9c0.9-0.5,1.7-0.9,2.6-1.2c1.3,0.8,2.9,1.6,4.5,2.5
		C114.9,132.3,114.2,131.5,113.6,130.7z M107.8,105.5L107.8,105.5L107.8,105.5C107.8,105.5,107.8,105.5,107.8,105.5z M94.9,143
		c-1.6-0.2-3.2-0.6-4.7-1.2c0.3,0.4,0.7,0.9,1,1.3c1.3-0.2,2.8-0.2,4.3,0.1c0.3,0.2,0.7,0.4,1.1,0.7c0.3-0.9,0.7-1.8,1.3-2.7
		C96.9,141.8,96,142.4,94.9,143z M93.7,117.4c0.1-0.5,0.3-1.1,0.6-1.6c-0.4,0.1-0.7,0.3-1.2,0.4c-0.5-0.2-0.9-0.5-1.4-0.8
		c0.3,0.6,0.5,1.2,0.7,1.6c-0.2,0.3-0.4,0.7-0.7,1c0.8,0,1.7,0,2.5,0.2c0,0,0.1,0.1,0.1,0.1C94.1,118,93.9,117.7,93.7,117.4z
		 M76.9,127c0.3,0.9,0.5,1.7,0.8,2.4c-0.4,0.6-1,1.3-1.7,2h0c0.3,0.1,0.7,0.2,1,0.3c0.3-1.1,0.9-2.4,1.5-3.6
		C78.1,127.8,77.5,127.4,76.9,127z M73.6,155.2c0,0,0,0.1,0,0.1c0,0,0.1,0,0.1,0C73.7,155.3,73.7,155.3,73.6,155.2z M130.2,169.8
		c0.1,0,0.3,0,0.5,0.1c0.2-0.1,0.4-0.1,0.6-0.2C131,169.6,130.6,169.7,130.2,169.8z M128.4,169.4c0,0.1-0.1,0.2-0.1,0.3
		c-0.2,0.3-0.4,0.8-0.7,1.2c0.9-0.5,1.7-0.9,2.6-1.1C129.6,169.7,128.9,169.5,128.4,169.4z M117.2,155.6c0.2,0.1,0.4,0.2,0.6,0.4
		c0.1-0.3,0.2-0.5,0.3-0.8C117.8,155.3,117.5,155.4,117.2,155.6z M113.6,130.7c0.1-0.4,0.2-0.8,0.4-1.2c-0.7,0.4-1.5,0.7-2.4,1
		c-1.2-0.1-2.3-0.4-3.4-0.9c0.4,0.5,0.8,1,1.1,1.4c-0.2,0.3-0.4,0.6-0.6,0.9c0.9-0.5,1.7-0.9,2.6-1.2c1.3,0.8,2.9,1.6,4.5,2.5
		C114.9,132.3,114.2,131.5,113.6,130.7z M107.8,105.5L107.8,105.5L107.8,105.5C107.8,105.5,107.8,105.5,107.8,105.5z M94.9,143
		c-1.6-0.2-3.2-0.6-4.7-1.2c0.3,0.4,0.7,0.9,1,1.3c1.3-0.2,2.8-0.2,4.3,0.1c0.3,0.2,0.7,0.4,1.1,0.7c0.3-0.9,0.7-1.8,1.3-2.7
		C96.9,141.8,96,142.4,94.9,143z M93.7,117.4c0.1-0.5,0.3-1.1,0.6-1.6c-0.4,0.1-0.7,0.3-1.2,0.4c-0.5-0.2-0.9-0.5-1.4-0.8
		c0.3,0.6,0.5,1.2,0.7,1.6c-0.2,0.3-0.4,0.7-0.7,1c0.8,0,1.7,0,2.5,0.2c0,0,0.1,0.1,0.1,0.1C94.1,118,93.9,117.7,93.7,117.4z
		 M76.9,127c0.3,0.9,0.5,1.7,0.8,2.4c-0.4,0.6-1,1.3-1.7,2h0c0.3,0.1,0.7,0.2,1,0.3c0.3-1.1,0.9-2.4,1.5-3.6
		C78.1,127.8,77.5,127.4,76.9,127z M73.6,155.2c0,0,0,0.1,0,0.1c0,0,0.1,0,0.1,0C73.7,155.3,73.7,155.3,73.6,155.2z M113.6,130.7
		c0.1-0.4,0.2-0.8,0.4-1.2c-0.7,0.4-1.5,0.7-2.4,1c-1.2-0.1-2.3-0.4-3.4-0.9c0.4,0.5,0.8,1,1.1,1.4c-0.2,0.3-0.4,0.6-0.6,0.9
		c0.9-0.5,1.7-0.9,2.6-1.2c1.3,0.8,2.9,1.6,4.5,2.5C114.9,132.3,114.2,131.5,113.6,130.7z M111.3,155.4c-1.3-0.4-2.6-1-3.9-1.7
		c0.5,0.8,0.8,1.6,0.8,2.3c-0.2,0.3-0.3,0.6-0.5,0.9C108.7,156.3,109.9,155.8,111.3,155.4z M107.8,105.5L107.8,105.5L107.8,105.5
		C107.8,105.5,107.8,105.5,107.8,105.5z M94.9,143c-1.6-0.2-3.2-0.6-4.7-1.2c0.3,0.4,0.7,0.9,1,1.3c1.3-0.2,2.8-0.2,4.3,0.1
		c0.3,0.2,0.7,0.4,1.1,0.7c0.3-0.9,0.7-1.8,1.3-2.7C96.9,141.8,96,142.4,94.9,143z M93.7,117.4c0.1-0.5,0.3-1.1,0.6-1.6
		c-0.4,0.1-0.7,0.3-1.2,0.4c-0.5-0.2-0.9-0.5-1.4-0.8c0.3,0.6,0.5,1.2,0.7,1.6c-0.2,0.3-0.4,0.7-0.7,1c0.8,0,1.7,0,2.5,0.2
		c0,0,0.1,0.1,0.1,0.1C94.1,118,93.9,117.7,93.7,117.4z M76.9,127c0.3,0.9,0.5,1.7,0.8,2.4c-0.4,0.6-1,1.3-1.7,2h0
		c0.3,0.1,0.7,0.2,1,0.3c0.3-1.1,0.9-2.4,1.5-3.6C78.1,127.8,77.5,127.4,76.9,127z M73.6,155.2c0,0,0,0.1,0,0.1c0,0,0.1,0,0.1,0
		C73.7,155.3,73.7,155.3,73.6,155.2z M107.8,105.5L107.8,105.5L107.8,105.5C107.8,105.5,107.8,105.5,107.8,105.5z M93.7,117.4
		c0.1-0.5,0.3-1.1,0.6-1.6c-0.4,0.1-0.7,0.3-1.2,0.4c-0.5-0.2-0.9-0.5-1.4-0.8c0.3,0.6,0.5,1.2,0.7,1.6c-0.2,0.3-0.4,0.7-0.7,1
		c0.8,0,1.7,0,2.5,0.2c0,0,0.1,0.1,0.1,0.1C94.1,118,93.9,117.7,93.7,117.4z M76.9,127c0.3,0.9,0.5,1.7,0.8,2.4
		c-0.4,0.6-1,1.3-1.7,2h0c0.3,0.1,0.7,0.2,1,0.3c0.3-1.1,0.9-2.4,1.5-3.6C78.1,127.8,77.5,127.4,76.9,127z M73.6,155.2
		c0,0,0,0.1,0,0.1c0,0,0.1,0,0.1,0C73.7,155.3,73.7,155.3,73.6,155.2z M107.8,105.5L107.8,105.5L107.8,105.5
		C107.8,105.5,107.8,105.5,107.8,105.5z M93.7,117.4c0.1-0.5,0.3-1.1,0.6-1.6c-0.4,0.1-0.7,0.3-1.2,0.4c-0.5-0.2-0.9-0.5-1.4-0.8
		c0.3,0.6,0.5,1.2,0.7,1.6c-0.2,0.3-0.4,0.7-0.7,1c0.8,0,1.7,0,2.5,0.2c0,0,0.1,0.1,0.1,0.1C94.1,118,93.9,117.7,93.7,117.4z
		 M76.9,127c0.3,0.9,0.5,1.7,0.8,2.4c-0.4,0.6-1,1.3-1.7,2h0c0.3,0.1,0.7,0.2,1,0.3c0.3-1.1,0.9-2.4,1.5-3.6
		C78.1,127.8,77.5,127.4,76.9,127z M73.6,155.2c0,0,0,0.1,0,0.1c0,0,0.1,0,0.1,0C73.7,155.3,73.7,155.3,73.6,155.2z M107.8,105.5
		L107.8,105.5L107.8,105.5C107.8,105.5,107.8,105.5,107.8,105.5z M93.7,117.4c0.1-0.5,0.3-1.1,0.6-1.6c-0.4,0.1-0.7,0.3-1.2,0.4
		c-0.5-0.2-0.9-0.5-1.4-0.8c0.3,0.6,0.5,1.2,0.7,1.6c-0.2,0.3-0.4,0.7-0.7,1c0.8,0,1.7,0,2.5,0.2c0,0,0.1,0.1,0.1,0.1
		C94.1,118,93.9,117.7,93.7,117.4z M76.9,127c0.3,0.9,0.5,1.7,0.8,2.4c-0.4,0.6-1,1.3-1.7,2h0c0.3,0.1,0.7,0.2,1,0.3
		c0.3-1.1,0.9-2.4,1.5-3.6C78.1,127.8,77.5,127.4,76.9,127z M73.6,155.2c0,0,0,0.1,0,0.1c0,0,0.1,0,0.1,0
		C73.7,155.3,73.7,155.3,73.6,155.2z M98.8,167.7c-0.5,0.2-1.1,0.4-1.6,0.6c-0.9-0.1-1.8-0.3-2.7-0.6c0.1,0.3,0.3,0.6,0.4,0.9
		c1.1-0.2,2.2-0.2,3.4,0l0,0C98.5,168.3,98.6,168,98.8,167.7z M79.3,155C79.3,155,79.3,155.1,79.3,155
		C79.4,155.1,79.4,155.1,79.3,155C79.4,155,79.4,155,79.3,155z M73.6,155.2c0,0,0,0.1,0,0.1c0,0,0.1,0,0.1,0
		C73.7,155.3,73.7,155.3,73.6,155.2z M98.8,167.7c-0.5,0.2-1.1,0.4-1.6,0.6c-0.9-0.1-1.8-0.3-2.7-0.6c0.1,0.3,0.3,0.6,0.4,0.9
		c1.1-0.2,2.2-0.2,3.4,0l0,0C98.5,168.3,98.6,168,98.8,167.7z M79.3,155C79.3,155,79.3,155.1,79.3,155
		C79.4,155.1,79.4,155.1,79.3,155C79.4,155,79.4,155,79.3,155z M98.8,167.7c-0.5,0.2-1.1,0.4-1.6,0.6c-0.9-0.1-1.8-0.3-2.7-0.6
		c0.1,0.3,0.3,0.6,0.4,0.9c1.1-0.2,2.2-0.2,3.4,0l0,0C98.5,168.3,98.6,168,98.8,167.7z M79.3,155C79.3,155,79.3,155.1,79.3,155
		C79.4,155.1,79.4,155.1,79.3,155C79.4,155,79.4,155,79.3,155z M98.8,167.7c-0.5,0.2-1.1,0.4-1.6,0.6c-0.9-0.1-1.8-0.3-2.7-0.6
		c0.1,0.3,0.3,0.6,0.4,0.9c1.1-0.2,2.2-0.2,3.4,0l0,0C98.5,168.3,98.6,168,98.8,167.7z M79.3,155C79.3,155,79.3,155.1,79.3,155
		C79.4,155.1,79.4,155.1,79.3,155C79.4,155,79.4,155,79.3,155z M98.8,167.7c-0.5,0.2-1.1,0.4-1.6,0.6c-0.9-0.1-1.8-0.3-2.7-0.6
		c0.1,0.3,0.3,0.6,0.4,0.9c1.1-0.2,2.2-0.2,3.4,0l0,0C98.5,168.3,98.6,168,98.8,167.7z M79.3,155C79.3,155,79.3,155.1,79.3,155
		C79.4,155.1,79.4,155.1,79.3,155C79.4,155,79.4,155,79.3,155z M98.8,167.7c-0.5,0.2-1.1,0.4-1.6,0.6c-0.9-0.1-1.8-0.3-2.7-0.6
		c0.1,0.3,0.3,0.6,0.4,0.9c1.1-0.2,2.2-0.2,3.4,0l0,0C98.5,168.3,98.6,168,98.8,167.7z M79.3,155C79.3,155,79.3,155.1,79.3,155
		C79.4,155.1,79.4,155.1,79.3,155C79.4,155,79.4,155,79.3,155z M98.8,167.7c-0.5,0.2-1.1,0.4-1.6,0.6c-0.9-0.1-1.8-0.3-2.7-0.6
		c0.1,0.3,0.3,0.6,0.4,0.9c1.1-0.2,2.2-0.2,3.4,0l0,0C98.5,168.3,98.6,168,98.8,167.7z M79.3,155C79.3,155,79.3,155.1,79.3,155
		C79.4,155.1,79.4,155.1,79.3,155C79.4,155,79.4,155,79.3,155z M98.8,167.7c-0.5,0.2-1.1,0.4-1.6,0.6c-0.9-0.1-1.8-0.3-2.7-0.6
		c0.1,0.3,0.3,0.6,0.4,0.9c1.1-0.2,2.2-0.2,3.4,0l0,0C98.5,168.3,98.6,168,98.8,167.7z M79.3,155C79.3,155,79.3,155.1,79.3,155
		C79.4,155.1,79.4,155.1,79.3,155C79.4,155,79.4,155,79.3,155z M98.8,167.7c-0.5,0.2-1.1,0.4-1.6,0.6c-0.9-0.1-1.8-0.3-2.7-0.6
		c0.1,0.3,0.3,0.6,0.4,0.9c1.1-0.2,2.2-0.2,3.4,0l0,0C98.5,168.3,98.6,168,98.8,167.7z M79.3,155C79.3,155,79.3,155.1,79.3,155
		C79.4,155.1,79.4,155.1,79.3,155C79.4,155,79.4,155,79.3,155z M98.8,167.7c-0.5,0.2-1.1,0.4-1.6,0.6c-0.9-0.1-1.8-0.3-2.7-0.6
		c0.1,0.3,0.3,0.6,0.4,0.9c1.1-0.2,2.2-0.2,3.4,0l0,0C98.5,168.3,98.6,168,98.8,167.7z M79.3,155C79.3,155,79.3,155.1,79.3,155
		C79.4,155.1,79.4,155.1,79.3,155C79.4,155,79.4,155,79.3,155z M98.8,167.7c-0.5,0.2-1.1,0.4-1.6,0.6c-0.9-0.1-1.8-0.3-2.7-0.6
		c0.1,0.3,0.3,0.6,0.4,0.9c1.1-0.2,2.2-0.2,3.4,0l0,0C98.5,168.3,98.6,168,98.8,167.7z M79.3,155C79.3,155,79.3,155.1,79.3,155
		C79.4,155.1,79.4,155.1,79.3,155C79.4,155,79.4,155,79.3,155z M98.8,167.7c-0.5,0.2-1.1,0.4-1.6,0.6c-0.9-0.1-1.8-0.3-2.7-0.6
		c0.1,0.3,0.3,0.6,0.4,0.9c1.1-0.2,2.2-0.2,3.4,0l0,0C98.5,168.3,98.6,168,98.8,167.7z M79.3,155C79.3,155,79.3,155.1,79.3,155
		C79.4,155.1,79.4,155.1,79.3,155C79.4,155,79.4,155,79.3,155z M98.8,167.7c-0.5,0.2-1.1,0.4-1.6,0.6c-0.9-0.1-1.8-0.3-2.7-0.6
		c0.1,0.3,0.3,0.6,0.4,0.9c1.1-0.2,2.2-0.2,3.4,0l0,0C98.5,168.3,98.6,168,98.8,167.7z M79.3,155C79.3,155,79.3,155.1,79.3,155
		C79.4,155.1,79.4,155.1,79.3,155C79.4,155,79.4,155,79.3,155z M98.8,167.7c-0.5,0.2-1.1,0.4-1.6,0.6c-0.9-0.1-1.8-0.3-2.7-0.6
		c0.1,0.3,0.3,0.6,0.4,0.9c1.1-0.2,2.2-0.2,3.4,0l0,0C98.5,168.3,98.6,168,98.8,167.7z M79.3,155C79.3,155,79.3,155.1,79.3,155
		C79.4,155.1,79.4,155.1,79.3,155C79.4,155,79.4,155,79.3,155z M98.8,167.7c-0.5,0.2-1.1,0.4-1.6,0.6c-0.9-0.1-1.8-0.3-2.7-0.6
		c0.1,0.3,0.3,0.6,0.4,0.9c1.1-0.2,2.2-0.2,3.4,0l0,0C98.5,168.3,98.6,168,98.8,167.7z M79.3,155C79.3,155,79.3,155.1,79.3,155
		C79.4,155.1,79.4,155.1,79.3,155C79.4,155,79.4,155,79.3,155z M98.8,167.7c-0.5,0.2-1.1,0.4-1.6,0.6c-0.9-0.1-1.8-0.3-2.7-0.6
		c0.1,0.3,0.3,0.6,0.4,0.9c1.1-0.2,2.2-0.2,3.4,0l0,0C98.5,168.3,98.6,168,98.8,167.7z M79.3,155C79.3,155,79.3,155.1,79.3,155
		C79.4,155.1,79.4,155.1,79.3,155C79.4,155,79.4,155,79.3,155z M98.8,167.7c-0.5,0.2-1.1,0.4-1.6,0.6c-0.9-0.1-1.8-0.3-2.7-0.6
		c0.1,0.3,0.3,0.6,0.4,0.9c1.1-0.2,2.2-0.2,3.4,0l0,0C98.5,168.3,98.6,168,98.8,167.7z M79.3,155C79.3,155,79.3,155.1,79.3,155
		C79.4,155.1,79.4,155.1,79.3,155C79.4,155,79.4,155,79.3,155z M98.8,167.7c-0.5,0.2-1.1,0.4-1.6,0.6c-0.9-0.1-1.8-0.3-2.7-0.6
		c0.1,0.3,0.3,0.6,0.4,0.9c1.1-0.2,2.2-0.2,3.4,0l0,0C98.5,168.3,98.6,168,98.8,167.7z M79.3,155C79.3,155,79.3,155.1,79.3,155
		C79.4,155.1,79.4,155.1,79.3,155C79.4,155,79.4,155,79.3,155z M98.8,167.7c-0.5,0.2-1.1,0.4-1.6,0.6c-0.9-0.1-1.8-0.3-2.7-0.6
		c0.1,0.3,0.3,0.6,0.4,0.9c1.1-0.2,2.2-0.2,3.4,0l0,0C98.5,168.3,98.6,168,98.8,167.7z M79.3,155C79.3,155,79.3,155.1,79.3,155
		C79.4,155.1,79.4,155.1,79.3,155C79.4,155,79.4,155,79.3,155z M98.8,167.7c-0.5,0.2-1.1,0.4-1.6,0.6c-0.9-0.1-1.8-0.3-2.7-0.6
		c0.1,0.3,0.3,0.6,0.4,0.9c1.1-0.2,2.2-0.2,3.4,0l0,0C98.5,168.3,98.6,168,98.8,167.7z M79.3,155C79.3,155,79.3,155.1,79.3,155
		C79.4,155.1,79.4,155.1,79.3,155C79.4,155,79.4,155,79.3,155z M98.8,167.7c-0.5,0.2-1.1,0.4-1.6,0.6c-0.9-0.1-1.8-0.3-2.7-0.6
		c0.1,0.3,0.3,0.6,0.4,0.9c1.1-0.2,2.2-0.2,3.4,0l0,0C98.5,168.3,98.6,168,98.8,167.7z M79.3,155C79.3,155,79.3,155.1,79.3,155
		C79.4,155.1,79.4,155.1,79.3,155C79.4,155,79.4,155,79.3,155z M98.8,167.7c-0.5,0.2-1.1,0.4-1.6,0.6c-0.9-0.1-1.8-0.3-2.7-0.6
		c0.1,0.3,0.3,0.6,0.4,0.9c1.1-0.2,2.2-0.2,3.4,0l0,0C98.5,168.3,98.6,168,98.8,167.7z M79.3,155C79.3,155,79.3,155.1,79.3,155
		C79.4,155.1,79.4,155.1,79.3,155C79.4,155,79.4,155,79.3,155z M98.8,167.7c-0.5,0.2-1.1,0.4-1.6,0.6c-0.9-0.1-1.8-0.3-2.7-0.6
		c0.1,0.3,0.3,0.6,0.4,0.9c1.1-0.2,2.2-0.2,3.4,0l0,0C98.5,168.3,98.6,168,98.8,167.7z M79.3,155C79.3,155,79.3,155.1,79.3,155
		C79.4,155.1,79.4,155.1,79.3,155C79.4,155,79.4,155,79.3,155z M61.5,139.3c-0.6-0.2-1.1-0.6-1.6-1c0,0.5,0,1,0,1.4
		c0.1,0,0.2-0.1,0.4-0.1c0.8,0.2,1.5,0.5,2.3,0.9c0.5-0.7,1.1-1.5,1.6-2.2C63.3,138.7,62.4,139,61.5,139.3z M62.4,165.2
		c0.4,1,0.8,1.9,1.1,2.7c0.4-1.2,1-2.5,1.7-3.9C64.3,164.5,63.4,164.8,62.4,165.2z M63.9,169.2c-0.1-0.4-0.3-0.8-0.4-1.2
		c-0.1,0.5-0.3,0.9-0.4,1.3c0,0.1-0.1,0.3-0.1,0.4c0.2,0.3,0.4,0.6,0.7,0.9c0.2-0.2,0.4-0.4,0.5-0.7C64.1,169.6,64,169.5,63.9,169.2
		z M51,193.8c-0.6-0.7-1.2-1.5-1.7-2.4c0.4,1.2,0.9,2,1.3,2.5c0.1,0.1,0.3,0.3,0.4,0.4c0-0.2,0.1-0.4,0.1-0.6
		C51.2,193.7,51.1,193.8,51,193.8z M51.8,175.1c0.3,0.4,0.6,0.9,0.8,1.3c0.5-0.7,1-1.4,1.6-2C53.5,174.5,52.7,174.8,51.8,175.1z
		 M54.2,186.5c0.3,1,0.6,2,0.7,3c0.4-0.1,0.8-0.3,1.3-0.5C55.5,188.2,54.9,187.3,54.2,186.5z M50.3,152.6c-0.1,0-0.3,0.1-0.4,0.2
		c-0.5,0.2-1.1,0.6-1.5,1.1c0.5-0.2,1-0.4,1.4-0.6c0.3-0.1,0.6-0.3,0.9-0.5L50.3,152.6z M47.2,154.2c-0.2-0.2-0.4-0.6-0.6-0.9
		c-0.1,0.7-0.2,1.4-0.4,2.1c0,0.2,0,0.5,0,0.9c0.6-1,1.2-1.8,1.9-2.5C48,154,47.6,154.1,47.2,154.2z M79.3,155
		C79.3,155,79.3,155.1,79.3,155C79.4,155.1,79.4,155.1,79.3,155C79.4,155,79.4,155,79.3,155z M98.8,167.7c-0.5,0.2-1.1,0.4-1.6,0.6
		c-0.9-0.1-1.8-0.3-2.7-0.6c0.1,0.3,0.3,0.6,0.4,0.9c1.1-0.2,2.2-0.2,3.4,0l0,0C98.5,168.3,98.6,168,98.8,167.7z M79.3,155
		C79.3,155,79.3,155.1,79.3,155C79.4,155.1,79.4,155.1,79.3,155C79.4,155,79.4,155,79.3,155z M98.8,167.7c-0.5,0.2-1.1,0.4-1.6,0.6
		c-0.9-0.1-1.8-0.3-2.7-0.6c0.1,0.3,0.3,0.6,0.4,0.9c1.1-0.2,2.2-0.2,3.4,0l0,0C98.5,168.3,98.6,168,98.8,167.7z M79.3,155
		C79.3,155,79.3,155.1,79.3,155C79.4,155.1,79.4,155.1,79.3,155C79.4,155,79.4,155,79.3,155z M98.8,167.7c-0.5,0.2-1.1,0.4-1.6,0.6
		c-0.9-0.1-1.8-0.3-2.7-0.6c0.1,0.3,0.3,0.6,0.4,0.9c1.1-0.2,2.2-0.2,3.4,0l0,0C98.5,168.3,98.6,168,98.8,167.7z M79.3,155
		C79.3,155,79.3,155.1,79.3,155C79.4,155.1,79.4,155.1,79.3,155C79.4,155,79.4,155,79.3,155z M98.8,167.7c-0.5,0.2-1.1,0.4-1.6,0.6
		c-0.9-0.1-1.8-0.3-2.7-0.6c0.1,0.3,0.3,0.6,0.4,0.9c1.1-0.2,2.2-0.2,3.4,0l0,0C98.5,168.3,98.6,168,98.8,167.7z M79.3,155
		C79.3,155,79.3,155.1,79.3,155C79.4,155.1,79.4,155.1,79.3,155C79.4,155,79.4,155,79.3,155z M98.8,167.7c-0.5,0.2-1.1,0.4-1.6,0.6
		c-0.9-0.1-1.8-0.3-2.7-0.6c0.1,0.3,0.3,0.6,0.4,0.9c1.1-0.2,2.2-0.2,3.4,0l0,0C98.5,168.3,98.6,168,98.8,167.7z M79.3,155
		C79.3,155,79.3,155.1,79.3,155C79.4,155.1,79.4,155.1,79.3,155C79.4,155,79.4,155,79.3,155z M98.8,167.7c-0.5,0.2-1.1,0.4-1.6,0.6
		c-0.9-0.1-1.8-0.3-2.7-0.6c0.1,0.3,0.3,0.6,0.4,0.9c1.1-0.2,2.2-0.2,3.4,0l0,0C98.5,168.3,98.6,168,98.8,167.7z M79.3,155
		C79.3,155,79.3,155.1,79.3,155C79.4,155.1,79.4,155.1,79.3,155C79.4,155,79.4,155,79.3,155z M98.8,167.7c-0.5,0.2-1.1,0.4-1.6,0.6
		c-0.9-0.1-1.8-0.3-2.7-0.6c0.1,0.3,0.3,0.6,0.4,0.9c1.1-0.2,2.2-0.2,3.4,0l0,0C98.5,168.3,98.6,168,98.8,167.7z M79.3,155
		C79.3,155,79.3,155.1,79.3,155C79.4,155.1,79.4,155.1,79.3,155C79.4,155,79.4,155,79.3,155z M98.8,167.7c-0.5,0.2-1.1,0.4-1.6,0.6
		c-0.9-0.1-1.8-0.3-2.7-0.6c0.1,0.3,0.3,0.6,0.4,0.9c1.1-0.2,2.2-0.2,3.4,0l0,0C98.5,168.3,98.6,168,98.8,167.7z M79.3,155
		C79.3,155,79.3,155.1,79.3,155C79.4,155.1,79.4,155.1,79.3,155C79.4,155,79.4,155,79.3,155z M98.8,167.7c-0.5,0.2-1.1,0.4-1.6,0.6
		c-0.9-0.1-1.8-0.3-2.7-0.6c0.1,0.3,0.3,0.6,0.4,0.9c1.1-0.2,2.2-0.2,3.4,0l0,0C98.5,168.3,98.6,168,98.8,167.7z M79.3,155
		C79.3,155,79.3,155.1,79.3,155C79.4,155.1,79.4,155.1,79.3,155C79.4,155,79.4,155,79.3,155z M98.8,167.7c-0.5,0.2-1.1,0.4-1.6,0.6
		c-0.9-0.1-1.8-0.3-2.7-0.6c0.1,0.3,0.3,0.6,0.4,0.9c1.1-0.2,2.2-0.2,3.4,0l0,0C98.5,168.3,98.6,168,98.8,167.7z M79.3,155
		C79.3,155,79.3,155.1,79.3,155C79.4,155.1,79.4,155.1,79.3,155C79.4,155,79.4,155,79.3,155z M98.8,167.7c-0.5,0.2-1.1,0.4-1.6,0.6
		c-0.9-0.1-1.8-0.3-2.7-0.6c0.1,0.3,0.3,0.6,0.4,0.9c1.1-0.2,2.2-0.2,3.4,0l0,0C98.5,168.3,98.6,168,98.8,167.7z M79.3,155
		C79.3,155,79.3,155.1,79.3,155C79.4,155.1,79.4,155.1,79.3,155C79.4,155,79.4,155,79.3,155z M98.8,167.7c-0.5,0.2-1.1,0.4-1.6,0.6
		c-0.9-0.1-1.8-0.3-2.7-0.6c0.1,0.3,0.3,0.6,0.4,0.9c1.1-0.2,2.2-0.2,3.4,0l0,0C98.5,168.3,98.6,168,98.8,167.7z M79.3,155
		C79.3,155,79.3,155.1,79.3,155C79.4,155.1,79.4,155.1,79.3,155C79.4,155,79.4,155,79.3,155z M98.8,167.7c-0.5,0.2-1.1,0.4-1.6,0.6
		c-0.9-0.1-1.8-0.3-2.7-0.6c0.1,0.3,0.3,0.6,0.4,0.9c1.1-0.2,2.2-0.2,3.4,0l0,0C98.5,168.3,98.6,168,98.8,167.7z M79.3,155
		C79.3,155,79.3,155.1,79.3,155C79.4,155.1,79.4,155.1,79.3,155C79.4,155,79.4,155,79.3,155z M98.8,167.7c-0.5,0.2-1.1,0.4-1.6,0.6
		c-0.9-0.1-1.8-0.3-2.7-0.6c0.1,0.3,0.3,0.6,0.4,0.9c1.1-0.2,2.2-0.2,3.4,0l0,0C98.5,168.3,98.6,168,98.8,167.7z M79.3,155
		C79.3,155,79.3,155.1,79.3,155C79.4,155.1,79.4,155.1,79.3,155C79.4,155,79.4,155,79.3,155z M98.8,167.7c-0.5,0.2-1.1,0.4-1.6,0.6
		c-0.9-0.1-1.8-0.3-2.7-0.6c0.1,0.3,0.3,0.6,0.4,0.9c1.1-0.2,2.2-0.2,3.4,0l0,0C98.5,168.3,98.6,168,98.8,167.7z M79.3,155
		C79.3,155,79.3,155.1,79.3,155C79.4,155.1,79.4,155.1,79.3,155C79.4,155,79.4,155,79.3,155z M98.8,167.7c-0.5,0.2-1.1,0.4-1.6,0.6
		c-0.9-0.1-1.8-0.3-2.7-0.6c0.1,0.3,0.3,0.6,0.4,0.9c1.1-0.2,2.2-0.2,3.4,0l0,0C98.5,168.3,98.6,168,98.8,167.7z M79.3,155
		C79.3,155,79.3,155.1,79.3,155C79.4,155.1,79.4,155.1,79.3,155C79.4,155,79.4,155,79.3,155z M98.8,167.7c-0.5,0.2-1.1,0.4-1.6,0.6
		c-0.9-0.1-1.8-0.3-2.7-0.6c0.1,0.3,0.3,0.6,0.4,0.9c1.1-0.2,2.2-0.2,3.4,0l0,0C98.5,168.3,98.6,168,98.8,167.7z M79.3,155
		C79.3,155,79.3,155.1,79.3,155C79.4,155.1,79.4,155.1,79.3,155C79.4,155,79.4,155,79.3,155z M98.8,167.7c-0.5,0.2-1.1,0.4-1.6,0.6
		c-0.9-0.1-1.8-0.3-2.7-0.6c0.1,0.3,0.3,0.6,0.4,0.9c1.1-0.2,2.2-0.2,3.4,0l0,0C98.5,168.3,98.6,168,98.8,167.7z M79.3,155
		C79.3,155,79.3,155.1,79.3,155C79.4,155.1,79.4,155.1,79.3,155C79.4,155,79.4,155,79.3,155z M98.8,167.7c-0.5,0.2-1.1,0.4-1.6,0.6
		c-0.9-0.1-1.8-0.3-2.7-0.6c0.1,0.3,0.3,0.6,0.4,0.9c1.1-0.2,2.2-0.2,3.4,0l0,0C98.5,168.3,98.6,168,98.8,167.7z M79.3,155
		C79.3,155,79.3,155.1,79.3,155C79.4,155.1,79.4,155.1,79.3,155C79.4,155,79.4,155,79.3,155z M98.8,167.7c-0.5,0.2-1.1,0.4-1.6,0.6
		c-0.9-0.1-1.8-0.3-2.7-0.6c0.1,0.3,0.3,0.6,0.4,0.9c1.1-0.2,2.2-0.2,3.4,0l0,0C98.5,168.3,98.6,168,98.8,167.7z M79.3,155
		C79.3,155,79.3,155.1,79.3,155C79.4,155.1,79.4,155.1,79.3,155C79.4,155,79.4,155,79.3,155z M98.8,167.7c-0.5,0.2-1.1,0.4-1.6,0.6
		c-0.9-0.1-1.8-0.3-2.7-0.6c0.1,0.3,0.3,0.6,0.4,0.9c1.1-0.2,2.2-0.2,3.4,0l0,0C98.5,168.3,98.6,168,98.8,167.7z M79.3,155
		C79.3,155,79.3,155.1,79.3,155C79.4,155.1,79.4,155.1,79.3,155C79.4,155,79.4,155,79.3,155z M98.8,167.7c-0.5,0.2-1.1,0.4-1.6,0.6
		c-0.9-0.1-1.8-0.3-2.7-0.6c0.1,0.3,0.3,0.6,0.4,0.9c1.1-0.2,2.2-0.2,3.4,0l0,0C98.5,168.3,98.6,168,98.8,167.7z M79.3,155
		C79.3,155,79.3,155.1,79.3,155C79.4,155.1,79.4,155.1,79.3,155C79.4,155,79.4,155,79.3,155z M98.8,167.7c-0.5,0.2-1.1,0.4-1.6,0.6
		c-0.9-0.1-1.8-0.3-2.7-0.6c0.1,0.3,0.3,0.6,0.4,0.9c1.1-0.2,2.2-0.2,3.4,0l0,0C98.5,168.3,98.6,168,98.8,167.7z M98.8,167.7
		c-0.5,0.2-1.1,0.4-1.6,0.6c-0.9-0.1-1.8-0.3-2.7-0.6c0.1,0.3,0.3,0.6,0.4,0.9c1.1-0.2,2.2-0.2,3.4,0l0,0
		C98.5,168.3,98.6,168,98.8,167.7z M79.3,155C79.3,155,79.3,155.1,79.3,155C79.4,155.1,79.4,155.1,79.3,155
		C79.4,155,79.4,155,79.3,155z M171.2,196.7c0.5,0.8,0.8,1.7,1,2.7c0.4-1.1,0.7-2.2,1.2-3.3C172.7,196.3,171.9,196.6,171.2,196.7z
		 M171.1,196.5c-0.2,0.1-0.5,0.2-0.7,0.2c0.3,0,0.6,0,0.8-0.1C171.2,196.6,171.1,196.6,171.1,196.5z M167.9,196.5
		c-1.3-0.5-2.7-1.8-4-3.3c0.9,2,1.6,3.9,2.1,5.3c1.6-0.7,3.2-1.3,4.5-1.8C169.6,196.8,168.8,196.7,167.9,196.5z M158.3,185.4
		c1.8,2.6,3.7,5.5,5.6,7.8C162.6,190.5,160.8,187.5,158.3,185.4z M151.7,209.1c0.1-0.3,0.2-0.7,0.4-1l0,0c-0.7-0.3-1.6-0.7-2.6-1.2
		c1.8,2.4,3,4.8,3.5,6.3c-0.2,0.4-0.5,0.7-0.9,1.1c0.9-0.2,1.7-0.3,2.5-0.1C153.9,212.6,153.1,210.9,151.7,209.1z M139.1,227.1
		c0.2,0.2,0.4,0.4,0.6,0.6c-0.2,0.1-0.5,0.3-0.8,0.4c1-0.2,1.8-0.4,2.6-0.7c0.3-0.1,0.6-0.2,0.9-0.4
		C141.2,227.3,140.1,227.3,139.1,227.1z M136.5,224.6c0.1,0.3,0.2,0.5,0.3,0.8c0.5,0.9,1.3,1.5,2.4,1.7
		C138.2,226.1,137.3,225.3,136.5,224.6z M100.3,199.5c0.5,1.3,0.7,2.7,0.6,4.1c-0.2,0.6-0.5,1.2-0.7,1.8c1.4-0.9,3-1.3,4.6-1.2
		C103,202.6,101.4,200.9,100.3,199.5z M104,226.7c-1.2-0.9-2.4-1.9-3.6-3.2c0.4,0.8,0.8,1.7,1.2,2.5c-0.1,0-0.1,0-0.2,0
		C102.3,226.4,103.2,226.6,104,226.7z M96.6,209.9c1.5-1.2,2.7-2.6,3.6-4.5C98.8,206.3,97.5,207.8,96.6,209.9z M92.7,212.1
		c0.9,0.7,1.7,1.5,2.5,2.6c0.3-1.9,0.8-3.5,1.3-4.8C95.5,210.7,94.2,211.5,92.7,212.1z M100.2,199.1c0,0.1,0,0.2,0,0.3
		c0,0,0,0.1,0.1,0.1C100.3,199.4,100.2,199.2,100.2,199.1z M101.4,192.7c-0.8,0.4-1.7,0.8-2.6,1.1c-0.9-0.1-1.7-0.3-2.5-0.5
		c1.7,1.7,3.1,3.7,3.9,5.8C99.8,197.3,100.3,195,101.4,192.7z M80.8,182.8c0.1,1.7-0.3,3.4-1.2,4.9c1.9-1,3.7-1.4,4.8-1
		C83,185.4,81.8,184.1,80.8,182.8z M80.8,180.7C80.8,180.7,80.8,180.7,80.8,180.7L80.8,180.7c-0.1,0.2-0.1,0.3-0.2,0.5
		c0.1,0.5,0.2,1.1,0.3,1.6c0.2-0.7,0.5-1.6,0.9-2.4C81.5,180.5,81.1,180.6,80.8,180.7z M73.2,204.7c1.3,2.1,2.4,4,2.9,5.3
		c0.5-0.1,1-0.3,1.5-0.4C76.2,208,74.6,206.4,73.2,204.7z M68.5,198.3c0,0.1-0.1,0.3-0.1,0.5c1.2,1.6,2.9,3.7,4.8,6
		C71.9,202.7,70.3,200.4,68.5,198.3z M67.6,196.6c-0.1,0-0.3,0-0.5-0.1c0.5,0.6,1,1.1,1.4,1.7c0.3-0.8,0.8-1.7,1.4-2.5
		C69.2,196,68.4,196.3,67.6,196.6z M73.7,211C73.8,211,73.8,211,73.7,211c0.1,0.1,0.2,0,0.2,0C73.9,211,73.8,211,73.7,211z
		 M80.8,180.7C80.8,180.7,80.8,180.7,80.8,180.7L80.8,180.7c-0.1,0.2-0.1,0.3-0.2,0.5c0.1,0.5,0.2,1.1,0.3,1.6
		c0.2-0.7,0.5-1.6,0.9-2.4C81.5,180.5,81.1,180.6,80.8,180.7z"/>
	<path style="fill:none;stroke:#000000;stroke-miterlimit:10;" d="M110.7,84.1c0.1,0.2,0.3,0.4,0.5,0.6c-0.1,0.1-0.2,0.2-0.3,0.4
		c-4.8,1.8-8.6,3.9-10.4,7.8c-0.7,0.7-1.7,1.2-3,1.6c-0.8-0.3-1.7-0.6-2.7-0.9c-1.1,0.4-2.1,0.8-3,1.2c-1.1-0.1-2.2-0.5-3.2-0.9
		c-0.2-1.2-0.8-2.2-1.7-3c-0.5-0.4-1.2-0.8-1.8-1.1c0.6-4.7,15.1-11,24.3-10.6c0.2,0,0.4,0,0.5,0c1.3,1.2,2,2.3,2,3.3
		C111.5,83,111,83.5,110.7,84.1z"/>
	<path style="fill:none;stroke:#000000;stroke-miterlimit:10;" d="M111.9,82.6c0,0.7-0.2,1.5-0.7,2.2c-0.2-0.2-0.3-0.4-0.5-0.6
		C111,83.5,111.5,83,111.9,82.6z"/>
	<path style="fill:none;stroke:#000000;stroke-miterlimit:10;" d="M138.4,85.2c-4,2.4-7.2,6.6-8.6,10.7c-0.8,0.3-1.5,0.5-2.3,0.6
		c0,0,0,0,0,0h0l0,0c-0.3,0-0.7,0-1.1,0c-0.5-0.2-1-0.4-1.6-0.8l0,0c-1.5-3.9-4.8-8.9-12.6-10.9c-0.2,0.1-0.4,0.1-0.6,0.2
		c0-0.1-0.1-0.1-0.2-0.2c0.5-0.7,0.7-1.4,0.7-2.2c1.4-1.4,3.3-2.4,5.4-2.8c6.9-1.5,16.2,1.6,20.1,4.5
		C137.8,84.6,138.1,84.9,138.4,85.2z"/>
	<path style="fill:none;stroke:#000000;stroke-miterlimit:10;" d="M110.7,84.1c0.3-0.6,0.7-1.1,1.2-1.5c0,0.7-0.2,1.5-0.7,2.2
		C111,84.5,110.9,84.3,110.7,84.1z"/>
	<path style="fill:none;stroke:#000000;stroke-miterlimit:10;" d="M127.4,96.4C127.4,96.4,127.4,96.4,127.4,96.4
		C127.4,96.4,127.4,96.4,127.4,96.4L127.4,96.4z"/>
	<path style="fill:none;stroke:#000000;stroke-miterlimit:10;" d="M176.9,115.2c-0.2-0.1-0.6-0.2-1-0.4l0,0
		c-1.4-1.5-3.1-2.8-4.8-3.8l0,0c-1.5-3.9-4.8-9-12.7-11c-0.9,0.3-1.7,0.7-2.5,1.1c-0.3-0.3-0.5-0.6-0.8-0.9c-0.4-1.1-1-2.1-1.7-3.1
		l0,0c-0.8-2.2-2-4.8-3.7-7.2c0-0.3,0-0.7,0.1-1c0.2-0.6,0.7-1.2,1.6-1.7c10.1,2.1,23.1,14.7,25.2,26.8l0,0
		C176.8,114.3,176.9,114.8,176.9,115.2z"/>
	<path style="fill:none;stroke:#000000;stroke-miterlimit:10;" d="M154.3,99.2c-0.5,0.8-1.1,2.2-1.8,3.7c-3.2,2.2-5.6,4.9-6.5,8.4
		c0.2,0.3,0.4,0.6,0.7,0.8c-0.2,0.1-0.4,0.3-0.7,0.4c-0.3-0.1-0.6-0.2-0.9-0.3c-0.6,0.2-1.2,0.5-1.9,0.7c-0.1,0-0.2-0.1-0.4-0.2
		c0.7-0.7,1.2-1.4,1.5-1.9c-1.2-3.7-7.5-10.9-15-13.8c0.1-0.4,0.2-0.8,0.4-1.2c1.5-4,4.7-8.2,8.6-10.7c0.2-0.1,0.4-0.2,0.6-0.4
		c0.8-0.4,1.5-0.8,2.4-1.1c2.9,0.8,5.3,2.4,7.1,4.4c0.5,0.5,0.9,1.1,1.3,1.6c1.8,2.4,3,5.1,3.7,7.2l0,0
		C153.8,97.8,154.1,98.6,154.3,99.2z"/>
	<path style="fill:none;stroke:#000000;stroke-miterlimit:10;" d="M146,112.6c-0.8,0.4-1.6,0.6-2.5,0.6c-0.1,0-0.2-0.1-0.3-0.1
		c0.6-0.2,1.2-0.5,1.9-0.7C145.4,112.4,145.7,112.5,146,112.6z"/>
	<path style="fill:none;stroke:#000000;stroke-miterlimit:10;" d="M88.5,96.5c-2.8,1.7-4.8,3.8-5.7,7.1c0.1,0.2,0.3,0.4,0.4,0.6
		c-0.4,0.4-1,0.7-1.5,0.8c-0.7-0.3-1.3-0.5-1.9-0.6c-1.2,0.4-2.4,0.9-3.5,1.5c-0.8,0.2-1.7,0.4-2.7,0.7c1-2.1,1.2-3.8-1.4-4.9
		c0.1-0.3,0.2-0.5,0.4-0.8c2.3-4.6,8.3-9.6,12.2-11.1c0.2,0,0.3,0.1,0.5,0.2c0.7,0.3,1.3,0.7,1.8,1.1c1,0.8,1.6,1.8,1.7,3
		C88.8,94.7,88.7,95.6,88.5,96.5z"/>
	<path style="fill:none;stroke:#000000;stroke-miterlimit:10;" d="M125,96.5c-0.3,0.4-0.6,1-1,1.6c-2.9,1.9-4.8,4.6-6,7.7
		c-0.9,0.9-1.9,1.5-2.8,2.1c-1.3-0.9-2.8-1.6-4.1-2.2c-1.1-0.2-2.2-0.3-3.2-0.2c0,0,0,0,0,0c0,0,0,0,0,0c-0.9-2.7-2.7-6.2-6.4-8.8
		c-0.5-0.7-1-1.4-1.4-2c0.1-0.6,0.4-1.2,0.6-1.7c1.8-3.9,5.7-6,10.4-7.8c0.1,0,0.3-0.1,0.5-0.2c0.2-0.1,0.4-0.1,0.6-0.2
		c7.8,2.1,11.1,7,12.6,10.9l0,0C124.8,96,124.9,96.2,125,96.5z"/>
	<path style="fill:none;stroke:#000000;stroke-miterlimit:10;" d="M107.8,105.4C107.8,105.5,107.8,105.5,107.8,105.4
		C107.8,105.5,107.8,105.5,107.8,105.4c-6.7,0.4-11.7,5.9-13.6,10.4c-0.4,0.1-0.7,0.3-1.2,0.4c-0.5-0.2-0.9-0.5-1.4-0.8l0,0
		c-1.2-2.3-3.5-5.3-6-7.5l0,0c-0.8-1.3-1.7-2.6-2.5-3.7c-0.1-0.2-0.3-0.4-0.4-0.6c0.9-3.2,2.9-5.4,5.7-7.1c1-0.6,2.2-1.2,3.4-1.7
		c1-0.4,2-0.8,3-1.2c1,0.2,1.8,0.5,2.7,0.9c1.5,0.6,2.7,1.3,3.8,2.1C105.1,99.2,106.9,102.7,107.8,105.4z"/>
	<path style="fill:none;stroke:#000000;stroke-miterlimit:10;" d="M144.3,110.8c-0.3,0.5-0.9,1.2-1.5,1.9c-0.2,0.2-0.3,0.4-0.5,0.6
		l0,0c-3.6,1.5-6.6,3.3-8.3,6.2c-0.7,0.3-1.4,0.6-2.2,0.9c-1-0.9-2-1.7-3.1-2.5c-1.1,0.2-2.1,0.5-3.1,0.9c-0.6-0.6-1.2-1.2-1.9-1.9
		c-0.4-2-2.5-4.4-5.2-6.5c-0.5-0.7-1.1-1.4-1.5-2.1c0.2-0.9,0.5-1.7,0.8-2.5c1.2-3.1,3.1-5.9,6-7.7c1-0.7,2.1-1.2,3.4-1.7l0,0
		c0,0,0,0,0.1,0c0.7,0.2,1.3,0.4,1.9,0.6C136.8,99.9,143.1,107.1,144.3,110.8z"/>
	<path style="fill:none;stroke:#000000;stroke-miterlimit:10;" d="M127.4,96.4C127.4,96.4,127.4,96.4,127.4,96.4
		C127.4,96.4,127.4,96.4,127.4,96.4L127.4,96.4z"/>
	<path style="fill:none;stroke:#000000;stroke-miterlimit:10;" d="M171.2,111c-0.5-0.3-1-0.5-1.4-0.8c-0.3,0.1-0.6,0.3-0.8,0.5
		c-2.3,1.8-1.8,5-1.7,7.8c-0.6,0.8-1.3,1.5-2,2.1l0,0c-2-0.2-3.8,0.4-5.3,1.5c-1.1-0.5-2.3-1.2-3.6-2l0,0c-2.9-1.9-6.3-4.5-8.7-7.2
		c-0.3-0.3-0.6-0.6-0.8-0.9s-0.5-0.6-0.7-0.8c0.9-3.4,3.3-6.2,6.5-8.4c1.1-0.7,2.2-1.4,3.5-1.9c0.8-0.4,1.7-0.7,2.5-1.1
		C166.3,102,169.7,107,171.2,111z"/>
	<path style="fill:none;stroke:#000000;stroke-miterlimit:10;" d="M181.8,126.6c0,2.4-1.1,4.4-3.5,5.2c-0.4-0.1-0.8-0.3-1.2-0.6l0,0
		c-1.2-3.7-3.4-8-10-10.2c0.1-0.8,0.1-1.6,0.1-2.5c-0.1-2.8-0.6-6,1.7-7.8c0.2-0.2,0.5-0.3,0.8-0.5c0.5,0.2,1,0.5,1.4,0.8l0,0
		c1.8,1,3.4,2.4,4.8,3.8l0,0c0.9,0.9,1.6,1.8,2.4,2.8l0,0C179.6,120.7,180.8,123.8,181.8,126.6z"/>
	<path style="fill:none;stroke:#000000;stroke-miterlimit:10;" d="M181.8,126.6c-1-2.9-2.2-5.9-3.5-9
		C180.5,120.6,181.8,123.9,181.8,126.6z"/>
	<path style="fill:none;stroke:#000000;stroke-miterlimit:10;" d="M158,123.9c-2,2.3-3.4,5.2-4.2,7.8c-0.9,1.1-1.9,2.1-3.2,2.9
		c-0.4-0.1-0.8-0.2-1.2-0.3c-1.9-0.4-3.6-0.3-5.3,0c-0.7-0.5-1.3-1.2-2.1-1.9c0.1-0.2,0.2-0.4,0.3-0.5c-2.4-3-5.1-6.7-9.1-10.4
		c0.2-0.7,0.5-1.4,0.9-2c1.7-2.9,4.6-4.7,8.3-6.2l0,0c0.3-0.1,0.6-0.2,0.9-0.4c0.1,0,0.2,0.1,0.3,0.1c0.9,0.1,1.7-0.1,2.5-0.6
		c0.5,0.1,1,0.3,1.5,0.5c2.5,2.6,5.8,5.3,8.7,7.2l0,0C157.1,121.5,157.6,122.8,158,123.9z"/>
	<path style="fill:none;stroke:#000000;stroke-miterlimit:10;" d="M146,112.6c-0.8,0.4-1.6,0.6-2.5,0.6c-0.1,0-0.2-0.1-0.3-0.1
		c0.6-0.2,1.2-0.5,1.9-0.7C145.4,112.4,145.7,112.5,146,112.6z"/>
	<path style="fill:none;stroke:#000000;stroke-miterlimit:10;" d="M123.9,117.5c-0.5,0.8-1.1,1.9-1.7,3.1l0,0
		c-3.8,2.3-6.9,5.7-8.2,8.9c-0.7,0.4-1.5,0.7-2.4,1c-1.2-0.1-2.3-0.4-3.4-0.9l0,0c-3.1-3.8-8.1-7.1-13.8-11.3
		c-0.2-0.3-0.5-0.7-0.8-1c0.1-0.5,0.3-1.1,0.6-1.6c1.9-4.5,7-10,13.5-10.3h0c1,0,2.1,0,3.2,0.2c1.3,0.6,2.7,1.3,4.1,2.2
		c1.2,0.8,2.4,1.6,3.6,2.5c2.7,2.2,4.8,4.5,5.2,6.5C123.8,117.1,123.9,117.3,123.9,117.5z"/>
	<path style="fill:none;stroke:#000000;stroke-miterlimit:10;" d="M73.4,106.5c-0.2,0.4-0.4,0.9-0.7,1.3c-2.6,1.9-4.6,4.3-5.4,7.3
		c0.2,0.2,0.4,0.5,0.6,0.7c0,0,0,0,0,0c-0.4-0.1-0.9-0.3-1.3-0.4c-3.4,1.2-7,3.2-9.7,5.8c-0.3-0.6-0.5-1.2-0.5-1.9l0,0
		c0-5.9,10.1-16.1,15.2-18c0,0,0.1,0,0.1,0c0.1,0,0.2,0.1,0.3,0.1C74.7,102.6,74.5,104.4,73.4,106.5z"/>
	<path style="fill:none;stroke:#000000;stroke-miterlimit:10;" d="M92.4,117c-0.2,0.3-0.4,0.7-0.7,1c-2.2,3.2-5.9,7.7-12.9,10.1
		c0,0-0.1,0-0.1-0.1c-0.5-0.2-1.1-0.6-1.7-1.1l0,0c-3-2.4-6.2-7.2-9-11l0,0c-0.2-0.2-0.4-0.5-0.6-0.7c0.8-3.1,2.8-5.5,5.4-7.3
		c1.1-0.8,2.2-1.4,3.5-2.1c1.1-0.6,2.3-1.1,3.5-1.5c0.6,0.1,1.2,0.3,1.9,0.6c1.3,0.6,2.7,1.7,4.1,2.9l0,0c2.4,2.3,4.7,5.2,6,7.5l0,0
		C92,116,92.3,116.6,92.4,117z"/>
	<path style="fill:none;stroke:#000000;stroke-miterlimit:10;" d="M77.7,129.5c-0.4,0.6-1,1.3-1.7,2c-2.5,2.4-6.8,4.9-11.9,6.9l0,0
		c-0.9,0.3-1.8,0.7-2.7,1c-0.6-0.2-1.1-0.6-1.6-1c-2.5-2.1-4-6.3-6.7-10c0,0,0-0.1,0-0.2c0.5-1.7,1.1-3.3,1.6-4.7
		c0.6-0.7,1.2-1.4,2-2.1c2.7-2.5,6.3-4.5,9.7-5.8c0.5,0.1,0.9,0.2,1.3,0.4c0,0,0,0,0.1,0c2.8,3.8,6,8.7,9,11l0,0
		C77.2,127.9,77.5,128.7,77.7,129.5z"/>
	<path style="fill:none;stroke:#000000;stroke-miterlimit:10;" d="M54.9,123.4c-0.5,1.4-1.1,3-1.6,4.7c0,0.1,0,0.1,0,0.2
		c0,0,0-0.1-0.1-0.1c-0.1-0.2-0.3-0.4-0.4-0.6C53.1,126.1,53.9,124.7,54.9,123.4z"/>
	<path style="fill:none;stroke:#000000;stroke-miterlimit:10;" d="M109.3,131.1c-0.2,0.3-0.4,0.6-0.6,0.9c-4.5,2.4-8.6,5.8-10.8,9.3
		l0,0c-0.9,0.6-1.9,1.1-3,1.7c-1.6-0.2-3.2-0.6-4.7-1.2c-3-3.9-6.9-8.2-13.1-10.2c0.3-1.1,0.9-2.4,1.5-3.6c0,0,0.1,0,0.1,0.1
		c7-2.4,10.8-6.9,12.9-10.1c0.8,0,1.7,0,2.5,0.2c0,0,0.1,0.1,0.1,0.1c5.7,4.2,10.7,7.5,13.8,11.3l0,0
		C108.6,130.1,109,130.6,109.3,131.1z"/>
	<path style="fill:none;stroke:#000000;stroke-miterlimit:10;" d="M142.3,132c-0.1,0.1-0.2,0.3-0.3,0.5c-0.5,1-1,2.1-1.6,3.3
		c-3.2,1.7-5.6,4.6-7.1,7.2l0,0c-0.6,0.3-1.2,0.5-1.8,0.7c-1.2-0.4-2.3-0.9-3.4-1.3c-1.7-2.6-7.2-6.2-12.3-9.2
		c-0.8-0.9-1.6-1.7-2.2-2.6c0.1-0.4,0.2-0.8,0.4-1.2c1.3-3.3,4.5-6.6,8.2-8.9l0,0c1.1-0.7,2.3-1.2,3.5-1.7c1-0.4,2.1-0.7,3.1-0.9
		c1.1,0.8,2.2,1.7,3.1,2.5c0.4,0.4,0.9,0.8,1.3,1.2C137.1,125.3,140,129,142.3,132z"/>
	<path style="fill:none;stroke:#000000;stroke-miterlimit:10;" d="M177.8,133.9c-3.1,2.6-5.5,6.5-7,10.1c-1.5,0.4-3.2,0.7-5.1,0.5
		l0,0h0c-0.4-0.1-0.9-0.1-1.3-0.2l0,0c-0.7-0.3-1.4-0.7-2.1-1.2c-0.9-2-3.2-4.2-6.2-6l0,0c-1-1.2-1.9-2.4-2.8-3.6
		c0.1-0.6,0.3-1.2,0.6-1.9c0.9-2.6,2.3-5.6,4.2-7.8c0.6-0.6,1.2-1.2,1.9-1.7c1.5-1.1,3.3-1.7,5.3-1.5l0,0c0.5,0,1,0.1,1.4,0.2
		c0.1,0,0.3,0.1,0.4,0.1c6.6,2.3,8.8,6.5,10,10.2l0,0C177.4,132.2,177.6,133.1,177.8,133.9z"/>
	<path style="fill:none;stroke:#000000;stroke-miterlimit:10;" d="M165.8,144.6c-0.4,0-0.8,0-1.2-0.1c-0.1,0-0.1,0-0.2-0.1
		C164.8,144.4,165.2,144.5,165.8,144.6C165.7,144.6,165.8,144.6,165.8,144.6z"/>
	<path style="fill:none;stroke:#000000;stroke-miterlimit:10;" d="M187.4,144.4c0,3.1-0.9,7.8-2.3,13.4l0,0
		c-0.1,0.3-0.3,0.6-0.5,0.9c-0.1,0-0.2,0-0.3,0c-0.4-0.9-0.9-1.7-1.4-2.4c-2.2,0.3-3.7,0.9-5,1.6c-0.8-0.4-1.5-1.1-2.1-1.7l0,0
		c-0.7-3.2-2.7-7-5.8-9.5c0.2-0.9,0.5-1.7,0.9-2.6c1.4-3.6,3.8-7.5,7-10.1c1.2-1,2.4-1.8,3.8-2.3c1.2,1.1,2.2,2.3,3,3.6l0,0
		C185.7,138.7,186.6,141.8,187.4,144.4z"/>
	<path style="fill:none;stroke:#000000;stroke-miterlimit:10;" d="M185.1,157.7c1.4-5.6,2.3-10.3,2.3-13.4c-0.8-2.6-1.6-5.7-2.7-9
		C188.5,141.6,188.9,150.8,185.1,157.7z"/>
	<path style="fill:none;stroke:#000000;stroke-miterlimit:10;" d="M148.4,156.2c0.1,0.2,0.3,0.4,0.5,0.6c-0.5-0.1-1-0.2-1.4-0.3
		c-1.1-3.5-8-9.4-14.8-12.1c0.2-0.4,0.4-0.9,0.6-1.3l0,0c1.4-2.7,3.9-5.5,7.1-7.2c1.2-0.6,2.4-1.1,3.7-1.4c1.7-0.4,3.5-0.4,5.3,0
		c0.4,0.1,0.8,0.2,1.2,0.3c2,0.6,3.8,1.5,5.5,2.4l0,0c3,1.8,5.3,4,6.2,6c0.2,0.4,0.3,0.8,0.4,1.2
		C155.1,144.6,149.6,151.4,148.4,156.2z"/>
	<path style="fill:none;stroke:#000000;stroke-miterlimit:10;" d="M128.6,143.9c-4.9,2-8.7,6.8-10.5,11.2l0,0
		c-0.3,0.1-0.6,0.3-0.9,0.4c-0.6-0.3-1.1-0.6-1.6-0.9c-1.6,0.1-3,0.3-4.3,0.7c-1.3-0.4-2.6-1-3.9-1.7c-1.8-3.2-6.6-7-10.8-9.8
		c0.3-0.9,0.7-1.8,1.3-2.7l0,0c2.3-3.6,6.4-7,10.8-9.3c0.9-0.5,1.7-0.9,2.6-1.2c1.3,0.8,2.9,1.6,4.5,2.5c5.1,3,10.7,6.5,12.3,9.2
		C128.5,143,128.6,143.5,128.6,143.9z"/>
	<path style="fill:none;stroke:#000000;stroke-miterlimit:10;" d="M79.4,155.1C79.4,155.1,79.4,155.1,79.4,155.1
		C79.3,155.1,79.3,155.1,79.4,155.1C79.4,155,79.4,155,79.4,155.1z"/>
	<path style="fill:none;stroke:#000000;stroke-miterlimit:10;" d="M91.2,143.2c-6.4,1-10.6,7.4-11.8,11.9c-0.4-0.2-0.8-0.5-1.1-0.7
		c-1.6,0-3.1,0.4-4.5,1c0,0-0.1,0-0.2-0.1c-1.6-4.3-5-11.8-11-14.7c0.5-0.7,1.1-1.5,1.6-2.2l0,0c5.1-2,9.4-4.6,11.9-6.9h0
		c0.3,0.1,0.7,0.2,1,0.3c6.2,2,10,6.3,13.1,10.2C90.5,142.3,90.9,142.8,91.2,143.2z"/>
	<path style="fill:none;stroke:#000000;stroke-miterlimit:10;" d="M60,139.8c-4.9,2-8.4,8-10.1,13c-0.5,0.2-1.1,0.6-1.5,1.1l0,0
		c-0.3,0.1-0.7,0.3-1.1,0.4c-0.2-0.2-0.4-0.6-0.6-0.9c-2.8-5.7,1.2-22.1,6.5-25.2c0,0,0,0.1,0.1,0.1c2.6,3.7,4.1,7.9,6.7,10
		C59.9,138.9,59.9,139.4,60,139.8z"/>
	<path style="fill:none;stroke:#000000;stroke-miterlimit:10;" d="M50.6,152.7c-0.3,0.2-0.6,0.3-0.9,0.5c-0.4,0.2-0.9,0.4-1.4,0.6
		c0.5-0.4,1-0.8,1.5-1.1c0.1-0.1,0.3-0.1,0.4-0.2L50.6,152.7z"/>
	<path style="fill:none;stroke:#000000;stroke-miterlimit:10;" d="M53.3,128.1c0,0.1,0,0.1,0,0.2c0,0,0-0.1-0.1-0.1
		C53.2,128.2,53.2,128.1,53.3,128.1z"/>
	<path style="fill:none;stroke:#000000;stroke-miterlimit:10;" d="M73.7,155.4c-3.8,1.7-6.7,5.2-8.5,8.6c-0.9,0.4-1.8,0.8-2.8,1.2
		c-0.6,0.2-1.2,0.4-1.8,0.7c-3.7-1.5-7.9-6.2-11.4-10.8c0.1-0.6,0.3-1.2,0.5-1.8c0.3-0.1,0.6-0.3,0.9-0.5l-0.4-0.1
		c-0.1,0-0.3,0.1-0.4,0.2c1.7-5,5.2-11,10.1-13c0.1,0,0.2-0.1,0.4-0.1c0.8,0.2,1.5,0.5,2.3,0.9c6,2.9,9.4,10.5,11,14.7
		C73.6,155.3,73.6,155.3,73.7,155.4z"/>
	<path style="fill:none;stroke:#000000;stroke-miterlimit:10;" d="M50.6,152.7c-0.3,0.2-0.6,0.3-0.9,0.5c0-0.1,0.1-0.3,0.1-0.4
		c0.1-0.1,0.3-0.1,0.4-0.2L50.6,152.7z"/>
	<path style="fill:none;stroke:#000000;stroke-miterlimit:10;" d="M108.2,156.1c-0.2,0.3-0.3,0.6-0.5,0.9l0,0
		c-4.6,2.7-6.5,7.4-8.8,10.8c-0.5,0.2-1.1,0.4-1.6,0.6c-0.9-0.1-1.8-0.3-2.7-0.6c-2.1-3.6-8.7-8.7-15.1-12.7c0,0,0,0,0,0
		c1.2-4.5,5.4-10.8,11.8-11.9c1.3-0.2,2.8-0.2,4.3,0.1c0.3,0.2,0.7,0.4,1.1,0.7c4.3,2.8,9,6.6,10.8,9.8
		C107.9,154.6,108.2,155.4,108.2,156.1z"/>
	<path style="fill:none;stroke:#000000;stroke-miterlimit:10;" d="M79.4,155.1C79.4,155.1,79.4,155.1,79.4,155.1
		C79.3,155.1,79.3,155.1,79.4,155.1C79.4,155,79.4,155,79.4,155.1z"/>
	<path style="fill:none;stroke:#000000;stroke-miterlimit:10;" d="M147.6,157.5c-0.4,0.6-1,1.3-1.7,2.2l0,0
		c-4.3,1.2-7.8,4.4-9.8,7.7c-1.5,0.9-3.1,1.6-4.8,2.2l0,0c-0.4,0-0.7,0-1.1,0.1c-0.6-0.1-1.2-0.2-1.8-0.4c1.2-2.9-5.2-10-10.6-13.4
		c0.1-0.3,0.2-0.5,0.3-0.8l0,0c1.8-4.5,5.6-9.2,10.5-11.2c0.4-0.2,0.9-0.3,1.2-0.5c0.9,0.2,1.8,0.5,2.7,0.9
		c6.8,2.7,13.7,8.6,14.8,12.1C147.6,156.9,147.6,157.2,147.6,157.5z"/>
	<path style="fill:none;stroke:#000000;stroke-miterlimit:10;" d="M131.3,169.6c-0.2,0.1-0.4,0.1-0.6,0.2c-0.1,0-0.3,0-0.5-0.1
		C130.6,169.7,131,169.6,131.3,169.6z"/>
	<path style="fill:none;stroke:#000000;stroke-miterlimit:10;" d="M176.1,159.5c-1.4,1.7-2.2,3.9-2.9,6.5c-1,1.3-2.7,2.7-6.4,3.9
		c-0.6-0.1-1.2-0.2-1.8-0.3l0,0c-0.5-3.4-6.3-8.2-13.2-10c-0.2,0-0.5-0.1-0.7-0.1l0,0c-0.8-0.9-1.5-1.8-2.1-2.6l0,0
		c-0.1-0.2-0.3-0.4-0.5-0.6c1.2-4.8,6.8-11.7,14.3-12c0.6,0,1.2,0,1.7,0l0,0c0.1,0,0.1,0,0.2,0.1c0.4,0,0.8,0.1,1.2,0.1l0,0
		c1.6,0.4,3,1.2,4.2,2.2c3.1,2.4,5.1,6.2,5.8,9.5l0,0C176,157.4,176.2,158.5,176.1,159.5z"/>
	<path style="fill:none;stroke:#000000;stroke-miterlimit:10;" d="M165.8,144.6c-0.4,0-0.8,0-1.2-0.1c-0.1,0-0.1,0-0.2-0.1
		C164.8,144.4,165.2,144.5,165.8,144.6C165.7,144.6,165.8,144.6,165.8,144.6z"/>
	<path style="fill:none;stroke:#000000;stroke-miterlimit:10;" d="M179.7,176.6c-0.1,0-0.2,0.1-0.4,0.2c-1.1-3.5-3.4-6.5-7-7.8
		c0.3-1.1,0.5-2.1,0.8-3c0.7-2.6,1.5-4.9,2.9-6.5c0.5-0.6,1.1-1.2,1.8-1.6c1.2-0.8,2.9-1.4,5-1.6c0.6,0.8,1.1,1.6,1.4,2.4
		c0.1,0.2,0.2,0.5,0.3,0.8C187.4,165.9,185.5,173.8,179.7,176.6z"/>
	<path style="fill:none;stroke:#000000;stroke-miterlimit:10;" d="M164.6,171.3c-0.5,0.8-0.9,1.9-1.3,3c-2.7,2.6-4.9,5.7-6,8.4
		c-0.5,0.3-1.2,0.6-1.8,0.9c-0.7-0.3-1.4-0.6-2.2-0.8c-0.4,0.1-0.8,0.3-1.2,0.5l0,0c-1.1-0.3-2.1-0.7-3.1-1.1
		c-2-3.6-9.5-9.1-14.4-11.6c0.3-1,0.9-2.1,1.5-3.2c2-3.3,5.5-6.6,9.8-7.7l0,0c1.6-0.4,3.3-0.5,5.1-0.3l0,0c0.2,0,0.5,0.1,0.7,0.1
		c7,1.8,12.8,6.7,13.2,10l0,0C165,170.2,164.9,170.8,164.6,171.3z"/>
	<path style="fill:none;stroke:#000000;stroke-miterlimit:10;" d="M128.4,169.4c0,0.1-0.1,0.2-0.1,0.3c-0.2,0.3-0.4,0.8-0.7,1.2
		c-4,2.3-7.5,7.2-9.4,11.2l0,0c-0.7,0.4-1.5,0.8-2.4,1.1c-0.2,0-0.4,0-0.6-0.1l0,0c-1.3-0.2-2.5-0.7-3.7-1.2
		c0.3-3.8-5.2-11.1-12.7-13.1c-0.2,0-0.3,0-0.5-0.1l0,0c0.2-0.2,0.4-0.5,0.6-0.8c2.3-3.4,4.2-8,8.8-10.8l0,0
		c1.1-0.6,2.3-1.2,3.6-1.5c1.2-0.3,2.7-0.6,4.3-0.7c0.5,0.2,1.1,0.5,1.6,0.9c0.2,0.1,0.4,0.2,0.6,0.4
		C123.2,159.4,129.6,166.4,128.4,169.4z"/>
	<path style="fill:none;stroke:#000000;stroke-miterlimit:10;" d="M95.1,169.3c-1.9,3-6.1,8.3-13.3,11.1l0,0c-0.3,0.1-0.6,0.2-1,0.3
		l0,0c1.1-3.3-5.3-9.2-13.2-11.3c-1.3-0.2-2.5-0.3-3.7-0.2c-0.1-0.4-0.3-0.8-0.4-1.2c0.4-1.2,1-2.5,1.7-3.9c1.8-3.5,4.7-7,8.5-8.6
		c0,0,0.1,0,0.1,0c1.3-0.6,2.8-0.9,4.5-1c0.4,0.2,0.7,0.4,1.1,0.7c0,0,0,0,0,0.1c0,0,0,0,0.1,0c6.4,4,13,9,15.1,12.7
		c0.1,0.3,0.3,0.6,0.4,0.9C95,168.8,95,169.1,95.1,169.3z"/>
	<path style="fill:none;stroke:#000000;stroke-miterlimit:10;" d="M79.4,155.1C79.4,155.1,79.4,155.1,79.4,155.1
		C79.3,155.1,79.3,155.1,79.4,155.1C79.4,155,79.4,155,79.4,155.1z"/>
	<path style="fill:none;stroke:#000000;stroke-miterlimit:10;" d="M64.1,169.8c-0.1,0.2-0.3,0.5-0.5,0.7c-0.2-0.3-0.5-0.6-0.7-0.9
		c0-0.1,0.1-0.3,0.1-0.4c0.1-0.4,0.2-0.9,0.4-1.3c0.2,0.4,0.3,0.9,0.4,1.2C64,169.5,64.1,169.6,64.1,169.8z"/>
	<path style="fill:none;stroke:#000000;stroke-miterlimit:10;" d="M63.5,168c-0.1,0.5-0.3,0.9-0.4,1.3c-3.6,0.6-6.6,2.6-8.8,5l0,0
		c-0.8,0.2-1.5,0.4-2.4,0.7c-1-1.2-2.4-2.4-5-3.2c-0.2-0.1-0.5-0.1-0.7-0.2c-2.9-4.8-2.1-11.2,0.2-15.3l0,0c0.6-1,1.2-1.8,1.9-2.5
		l0,0c0.5-0.2,1-0.4,1.4-0.6c-0.2,0.6-0.4,1.2-0.5,1.8c3.6,4.6,7.6,9.4,11.4,10.8c0.6-0.2,1.2-0.4,1.8-0.7
		C62.8,166.2,63.2,167.1,63.5,168z"/>
	<path style="fill:none;stroke:#000000;stroke-miterlimit:10;" d="M49.7,153.2c-0.4,0.2-0.9,0.4-1.4,0.6c0.5-0.4,1-0.8,1.5-1.1
		c0.1-0.1,0.3-0.1,0.4-0.2l0.4,0.1C50.3,152.9,50,153,49.7,153.2z"/>
	<path style="fill:none;stroke:#000000;stroke-miterlimit:10;" d="M46.9,172.8c-0.3-0.4-0.6-0.7-0.8-1.1c0.2,0,0.5,0.1,0.7,0.2
		C46.9,172.2,46.9,172.5,46.9,172.8z"/>
	<path style="fill:none;stroke:#000000;stroke-miterlimit:10;" d="M64.1,169.8c-0.1,0.2-0.3,0.5-0.5,0.7c-0.2-0.3-0.5-0.6-0.7-0.9
		c0-0.1,0.1-0.3,0.1-0.4c0.1-0.4,0.2-0.9,0.4-1.3c0.2,0.4,0.3,0.9,0.4,1.2C64,169.5,64.1,169.6,64.1,169.8z"/>
	<path style="fill:none;stroke:#000000;stroke-miterlimit:10;" d="M55,189.5c-3.2,1.2-3.1,1.3-3.6,4.2c-0.1,0-0.1,0-0.2,0.1
		c-0.6-0.7-1.2-1.5-1.7-2.4l0,0c-3.4-5.9-6-16.3-3.5-19.7c0.1,0,0.2,0,0.3,0.1c0.2,0.4,0.5,0.8,0.8,1.1c0-0.3,0-0.6,0-0.9
		c2.5,0.8,4,1.9,5,3.2c0.3,0.4,0.6,0.9,0.8,1.3c-1.1,1.6-1.9,3.3-2.3,4.7c1.1,1.4,2.4,3.4,3.9,5.4C54.6,187.5,54.9,188.5,55,189.5z"
		/>
	<path style="fill:none;stroke:#000000;stroke-miterlimit:10;" d="M46.9,172.8c-0.3-0.4-0.6-0.7-0.8-1.1c0.2,0,0.5,0.1,0.7,0.2
		C46.9,172.2,46.9,172.5,46.9,172.8z"/>
	<path style="fill:none;stroke:#000000;stroke-miterlimit:10;" d="M80.8,182.8c0.1,1.7-0.3,3.4-1.2,4.9c-3.4,1.7-7.4,4.9-9.6,8
		c-0.8,0.3-1.6,0.7-2.4,1c-0.1,0-0.3,0-0.5-0.1l0,0c-3.3-3.7-7-6.8-10.3-7.7c-0.2,0-0.3,0.1-0.5,0.2c-0.7-0.9-1.4-1.7-2-2.5
		c-1.5-2-2.8-4-3.9-5.4c0.4-1.4,1.2-3.1,2.3-4.7c0.5-0.7,1-1.4,1.6-2l0,0c2.3-2.4,5.3-4.5,8.8-5c0,0.1-0.1,0.3-0.1,0.4
		c0.2,0.3,0.4,0.6,0.7,0.9c0.2-0.2,0.4-0.4,0.5-0.7c0-0.2-0.1-0.4-0.2-0.7c1.2-0.1,2.4,0,3.7,0.2c7.9,2.1,14.3,8,13.2,11.3l0,0
		c0,0.2-0.1,0.3-0.2,0.5C80.7,181.7,80.8,182.3,80.8,182.8z"/>
	<path style="fill:none;stroke:#000000;stroke-miterlimit:10;" d="M64.1,169.8c-0.1,0.2-0.3,0.5-0.5,0.7c-0.2-0.3-0.5-0.6-0.7-0.9
		c0-0.1,0.1-0.3,0.1-0.4c0.3,0,0.6-0.1,0.9-0.1C64,169.5,64.1,169.6,64.1,169.8z"/>
	<path style="fill:none;stroke:#000000;stroke-miterlimit:10;" d="M111.5,181.7c0,0.4-0.1,0.9-0.4,1.2c-0.1,0.2-0.2,0.4-0.4,0.6
		c-4.1,1.4-7.5,5.4-9.4,9.2c-0.8,0.4-1.7,0.8-2.6,1.1c-0.9-0.1-1.7-0.3-2.5-0.5c-3.1-3.1-7.3-5.4-11.6-6.5c0,0-0.1,0-0.2,0l0,0
		c-1.4-1.3-2.6-2.6-3.6-3.9c0.2-0.7,0.5-1.6,0.9-2.4l0,0c7.2-2.8,11.4-8.1,13.3-11.1c0-0.2-0.1-0.4-0.2-0.7c1.1-0.2,2.2-0.2,3.4,0
		c0.2,0,0.3,0,0.5,0.1C106.3,170.7,111.8,177.9,111.5,181.7z"/>
	<path style="fill:none;stroke:#000000;stroke-miterlimit:10;" d="M149.2,184.6c-0.1,0.1-0.1,0.2-0.2,0.4l0,0
		c-4.9,2.9-10.3,7.7-11.8,11.8c-0.1,0-0.2,0.1-0.3,0.1c-0.1,0-0.2,0-0.3-0.1c-0.6,0.2-1.2,0.5-1.7,0.8c-1.2-0.1-2.2-0.4-3.3-0.8l0,0
		c-2.4-4.5-8.5-10.8-14.1-13.1c0.2-0.5,0.4-1.1,0.7-1.6l0,0c1.8-4,5.4-9,9.4-11.2c0.9-0.5,1.7-0.9,2.6-1.1c0.1,0,0.3,0,0.5,0.1
		c0.2-0.1,0.4-0.1,0.6-0.2l0,0c0.4,0,0.7,0,1.1,0c0.6,0.2,1.3,0.6,2.2,1c4.8,2.5,12.4,8,14.4,11.6
		C149.5,183.2,149.6,184,149.2,184.6z"/>
	<path style="fill:none;stroke:#000000;stroke-miterlimit:10;" d="M131.3,169.6c-0.2,0.1-0.4,0.1-0.6,0.2c-0.1,0-0.3,0-0.5-0.1
		C130.6,169.7,131,169.6,131.3,169.6z"/>
	<path style="fill:none;stroke:#000000;stroke-miterlimit:10;" d="M137,196.9c-0.6,0.3-1.2,0.5-1.8,0.7c-0.1,0-0.2,0-0.2,0
		c0.6-0.3,1.2-0.6,1.7-0.8C136.7,196.8,136.8,196.8,137,196.9z"/>
	<path style="fill:none;stroke:#000000;stroke-miterlimit:10;" d="M173.3,196L173.3,196c-0.7,0.3-1.3,0.5-2.1,0.6
		c0,0-0.1-0.1-0.1-0.2c-0.2,0.1-0.5,0.2-0.7,0.2l0,0l0,0c-0.8,0-1.6,0-2.5-0.2c-1.3-0.5-2.7-1.8-4-3.3l0,0l0,0
		c-1.3-2.7-3.1-5.7-5.6-7.8l0,0c-0.4-0.6-0.9-1.2-1.2-1.7c0.1-0.3,0.2-0.6,0.3-1c1-2.7,3.3-5.8,6-8.4c2.6-2.5,5.6-4.7,8.4-5.6
		c0.2,0.1,0.5,0.1,0.8,0.2c3.6,1.3,5.8,4.3,7,7.8c0,0.2,0.1,0.3,0.1,0.5C181.5,184.4,179,193.5,173.3,196z"/>
	<path style="fill:none;stroke:#000000;stroke-miterlimit:10;" d="M163.9,193.2c-1.9-2.3-3.7-5.2-5.6-7.8
		C160.8,187.5,162.6,190.5,163.9,193.2z"/>
	<path style="fill:none;stroke:#000000;stroke-miterlimit:10;" d="M171.2,196.7c-0.3,0-0.5,0-0.8,0.1c0.2-0.1,0.5-0.2,0.7-0.2
		C171.1,196.6,171.2,196.6,171.2,196.7z"/>
	<path style="fill:none;stroke:#000000;stroke-miterlimit:10;" d="M165.9,198.5c-5.5,2.4-12,5.9-13.8,9.6c-0.7-0.3-1.6-0.7-2.6-1.2
		c-2.9-4-7.3-8.4-12.4-9.9c0,0,0-0.1,0-0.2c1.5-4,6.8-8.9,11.8-11.8l0,0c1.1-0.6,2.1-1.2,3.1-1.6l0,0c0.4-0.2,0.9-0.4,1.2-0.5
		c0.8,0.2,1.5,0.5,2.2,0.8c1,0.5,1.9,1.1,2.8,1.8l0,0c1.8,2.6,3.7,5.5,5.6,7.8l0,0l0,0C164.8,195.2,165.5,197.1,165.9,198.5z"/>
	<path style="fill:none;stroke:#000000;stroke-miterlimit:10;" d="M163.9,193.2c-1.9-2.3-3.7-5.2-5.6-7.8
		C160.8,187.5,162.6,190.5,163.9,193.2z"/>
	<path style="fill:none;stroke:#000000;stroke-miterlimit:10;" d="M132.6,199.1c-3.3,2.7-6,6.8-7.4,10.4l0,0
		c-0.8,0.5-1.7,1.1-2.7,1.5c-3.5-2.6-9.2-4.7-14.1-6c-1.2-0.5-2.3-0.8-3.5-0.9c-1.8-1.6-3.4-3.2-4.5-4.7c0-0.1-0.1-0.3-0.1-0.4l0,0
		c-0.3-1.7,0.1-4,1.2-6.4c1.8-3.8,5.2-7.8,9.4-9.2c1.4-0.5,2.9-0.7,4.4-0.5l0,0c0.2,0,0.4,0.1,0.6,0.1c0.6,0.1,1.2,0.3,1.7,0.6
		c5.6,2.3,11.7,8.5,14.1,13.1l0,0C132.1,197.6,132.4,198.4,132.6,199.1z"/>
	<path style="fill:none;stroke:#000000;stroke-miterlimit:10;" d="M100.3,199.5C100.3,199.5,100.3,199.4,100.3,199.5
		c-0.1-0.2-0.1-0.3-0.1-0.4C100.2,199.2,100.3,199.4,100.3,199.5z"/>
	<path style="fill:none;stroke:#000000;stroke-miterlimit:10;" d="M76.2,209.9c-0.7,0.2-1.5,0.6-2.3,1.1c-0.1,0-0.1,0-0.2,0
		c-9.7-0.4-19.7-11.1-22.9-15.3c0.1-0.5,0.2-1,0.3-1.3c0-0.2,0.1-0.4,0.1-0.6c0.6-2.8,0.5-3.1,3.6-4.2c0.4-0.1,0.8-0.3,1.3-0.5
		c0.1,0,0.3-0.1,0.5-0.2c3.4,0.9,7.1,4,10.3,7.7l0,0c0.5,0.6,1,1.1,1.4,1.7l0,0c0,0.1-0.1,0.3-0.1,0.5c1.2,1.6,2.9,3.7,4.8,6
		C74.6,206.8,75.6,208.7,76.2,209.9z"/>
	<path style="fill:none;stroke:#000000;stroke-miterlimit:10;" d="M73.2,204.7c-1.9-2.2-3.6-4.4-4.8-6c0-0.1,0.1-0.3,0.1-0.5
		C70.3,200.4,71.9,202.7,73.2,204.7z"/>
	<path style="fill:none;stroke:#000000;stroke-miterlimit:10;" d="M125.4,216.7c0,0.2-0.1,0.4-0.2,0.6c-0.3,0.5-0.8,1.1-1.3,1.7l0,0
		c-3.7,1.3-7.7,4.1-13.6,8.1c-0.7,0.2-1.4,0.4-2.2,0.5l0,0c-0.6,0.1-1.2,0.2-1.7,0.3c-0.8-0.3-1.6-0.8-2.4-1.4
		c-1.2-0.9-2.4-1.9-3.6-3.2c-1.8-3.6-3.4-6.6-5.1-8.9c0.3-1.9,0.8-3.5,1.3-4.8c1.5-1.2,2.7-2.6,3.6-4.5l0,0c1.4-0.9,3-1.3,4.6-1.2
		c1.2,0,2.4,0.3,3.5,0.9c4.9,1.3,10.7,3.4,14.1,6c0.8,0.6,1.4,1.2,2,1.9l0,0C124.6,214.4,124.9,215.6,125.4,216.7z"/>
	<path style="fill:none;stroke:#000000;stroke-miterlimit:10;" d="M100.2,205.4c-0.9,1.8-2.1,3.3-3.6,4.5
		C97.5,207.8,98.8,206.3,100.2,205.4z"/>
	<path style="fill:none;stroke:#000000;stroke-miterlimit:10;" d="M125.4,216.7c-0.6-1.1-0.9-2.4-1-3.8
		C125.3,214.1,125.7,215.4,125.4,216.7z"/>
	<path style="fill:none;stroke:#000000;stroke-miterlimit:10;" d="M153.1,213.1c-0.2,0.4-0.5,0.7-0.9,1.1l0,0
		c-1.7,0.4-3.4,1.1-5.2,1c-4.5,2.9-9.9,3.2-10.8,6.5c-0.3,0.1-0.6,0.2-1,0.3c-1.1-0.1-2-0.3-2.9-0.5l0,0c-2.1-1.2-3.7-1.9-5.4-2.7
		c-0.7-0.6-1.2-1.3-1.5-2.1c0.3-1.3-0.1-2.6-1-3.8l0,0c0-0.3,0-0.7-0.1-1.1c0.2-0.7,0.5-1.5,0.8-2.3l0,0c1.4-3.6,4.2-7.7,7.4-10.4
		c0.7-0.6,1.5-1.1,2.3-1.6c0.1,0,0.2,0,0.2,0c0.6-0.2,1.2-0.5,1.8-0.7c0.1,0,0.1,0,0.2,0l0,0c5,1.5,9.5,5.9,12.4,9.9
		C151.4,209.3,152.6,211.6,153.1,213.1z"/>
	<path style="fill:none;stroke:#000000;stroke-miterlimit:10;" d="M125.4,216.7c-0.6-1.1-0.9-2.4-1-3.8
		C125.3,214.1,125.7,215.4,125.4,216.7z"/>
	<path style="fill:none;stroke:#000000;stroke-miterlimit:10;" d="M132.4,221.5c-2.4-0.6-4.2-1.5-5.4-2.7
		C128.6,219.7,130.4,220.3,132.4,221.5z"/>
	<path style="fill:none;stroke:#000000;stroke-miterlimit:10;" d="M137,196.9c-0.6,0.3-1.2,0.5-1.8,0.7c-0.1,0-0.2,0-0.2,0
		c0.6-0.3,1.2-0.6,1.7-0.8C136.7,196.8,136.8,196.8,137,196.9z"/>
	<path style="fill:none;stroke:#000000;stroke-miterlimit:10;" d="M159.1,219.4c-0.4-0.1-0.7-0.3-1-0.5c0.3-0.3,0.5-0.5,0.8-0.8
		c0-0.1-0.1-0.2-0.1-0.2c-1.3-2.5-2.6-3.6-4.1-3.8c-0.7-1.5-1.6-3.2-2.9-4.9c0.1-0.3,0.2-0.7,0.4-1l0,0c1.9-3.7,8.4-7.2,13.8-9.6
		c1.6-0.7,3.2-1.3,4.5-1.8l0,0l0,0c0.3,0,0.6,0,0.8-0.1c0.5,0.8,0.8,1.7,1,2.7l0,0C172.9,205.6,166.6,216.1,159.1,219.4z"/>
	<path style="fill:none;stroke:#000000;stroke-miterlimit:10;" d="M171.2,196.7c-0.3,0-0.5,0-0.8,0.1c0.2-0.1,0.5-0.2,0.7-0.2
		C171.1,196.6,171.2,196.6,171.2,196.7z"/>
	<path style="fill:none;stroke:#000000;stroke-miterlimit:10;" d="M158.9,218.1c-0.2,0.2-0.5,0.5-0.8,0.8c-0.1-0.1-0.3-0.2-0.4-0.3
		c0.4-0.2,0.7-0.5,1.1-0.8C158.8,217.9,158.8,218,158.9,218.1z"/>
	<path style="fill:none;stroke:#000000;stroke-miterlimit:10;" d="M157.7,218.6c0.1,0.1,0.3,0.2,0.4,0.3c-3.4,3.4-10.5,7.3-15.7,8.2
		l0,0c-1.2,0.2-2.4,0.2-3.3,0c-1-1-1.8-1.8-2.6-2.5c-0.4-1.2-0.4-2.1-0.2-2.8c0.8-3.4,6.2-3.6,10.8-6.5c1.8,0,3.5-0.6,5.2-1l0,0
		c0.9-0.2,1.7-0.3,2.5-0.1c1.4,0.2,2.8,1.2,4.1,3.8C158.4,218.1,158.1,218.4,157.7,218.6z"/>
	<path style="fill:none;stroke:#000000;stroke-miterlimit:10;" d="M139.1,227.1c-1.1-0.2-1.9-0.8-2.4-1.7c-0.1-0.3-0.2-0.6-0.3-0.8
		C137.3,225.3,138.2,226.1,139.1,227.1z"/>
	<path style="fill:none;stroke:#000000;stroke-miterlimit:10;" d="M158.9,218.1c-0.2,0.2-0.5,0.5-0.8,0.8c-0.1-0.1-0.3-0.2-0.4-0.3
		c0.4-0.2,0.7-0.5,1.1-0.8C158.8,217.9,158.8,218,158.9,218.1z"/>
	<path style="fill:none;stroke:#000000;stroke-miterlimit:10;" d="M101,203.6c-0.2,0.6-0.5,1.2-0.7,1.8l0,0
		c-1.4,0.9-2.7,2.4-3.6,4.5c-1.1,0.9-2.4,1.6-3.9,2.2c-0.3-0.2-0.6-0.4-1-0.6c-3.5,0.8-8.5-2.9-14.1-1.9c-1.5-1.5-3-3.2-4.4-4.9
		c-1.3-2-2.9-4.3-4.7-6.4l0,0c0.3-0.8,0.8-1.7,1.4-2.5c2.2-3.1,6.2-6.3,9.6-8c1.9-1,3.7-1.4,4.8-1l0,0c0,0,0.1,0,0.2,0
		c4.3,1.1,8.5,3.5,11.6,6.5c1.7,1.7,3.1,3.7,3.9,5.8l0,0c0,0.1,0,0.2,0,0.3c0,0,0,0.1,0.1,0.1C100.8,200.8,101,202.2,101,203.6z"/>
	<path style="fill:none;stroke:#000000;stroke-miterlimit:10;" d="M73.2,204.7c-1.9-2.2-3.6-4.4-4.8-6c0-0.1,0.1-0.3,0.1-0.5
		C70.3,200.4,71.9,202.7,73.2,204.7z"/>
	<path style="fill:none;stroke:#000000;stroke-miterlimit:10;" d="M100.2,205.4c-0.9,1.8-2.1,3.3-3.6,4.5
		C97.5,207.8,98.8,206.3,100.2,205.4z"/>
	<path style="fill:none;stroke:#000000;stroke-miterlimit:10;" d="M100.3,199.5C100.3,199.5,100.3,199.4,100.3,199.5
		c-0.1-0.2-0.1-0.3-0.1-0.4C100.2,199.2,100.3,199.4,100.3,199.5z"/>
	<path style="fill:none;stroke:#000000;stroke-miterlimit:10;" d="M101.6,226.1c-0.1,0-0.1,0-0.2,0c-7.8,1.9-25.2-9.5-27.9-14.8
		c0.1-0.1,0.3-0.2,0.4-0.3c0,0,0.1,0,0.1,0c0.8-0.5,1.5-0.8,2.3-1.1c0.5-0.1,1-0.3,1.5-0.4c5.6-1,10.6,2.6,14.1,1.9
		c0.3,0.2,0.6,0.4,1,0.6c0.9,0.7,1.7,1.5,2.5,2.6c1.7,2.2,3.3,5.3,5.1,8.9C100.8,224.4,101.2,225.2,101.6,226.1z"/>
	<path style="fill:none;stroke:#000000;stroke-miterlimit:10;" d="M139.7,227.7c-0.2,0.1-0.5,0.3-0.8,0.4l0,0
		c-5.7,2.8-23.3,4.1-27.9,0.1l0,0c-0.4-0.3-0.6-0.7-0.8-1.1c0,0,0.1,0,0.1-0.1c5.9-4,9.9-6.8,13.6-8.1l0,0c0.8-0.3,1.5-0.5,2.3-0.7
		c0.3,0.1,0.5,0.3,0.8,0.4c1.2,1.2,3,2.1,5.4,2.7l0,0c1.2,0.7,2.5,1.7,4,3c0.1,0.3,0.2,0.5,0.3,0.8c0.5,0.9,1.3,1.5,2.4,1.7
		C139.4,227.3,139.5,227.5,139.7,227.7z"/>
	<path style="fill:none;stroke:#000000;stroke-miterlimit:10;" d="M132.4,221.5c-2.4-0.6-4.2-1.5-5.4-2.7
		C128.6,219.7,130.4,220.3,132.4,221.5z"/>
	<path style="fill:none;stroke:#000000;stroke-miterlimit:10;" d="M139.1,227.1c-1.1-0.2-1.9-0.8-2.4-1.7c-0.1-0.3-0.2-0.6-0.3-0.8
		C137.3,225.3,138.2,226.1,139.1,227.1z"/>
</g>
<path style="fill:none;stroke:#000000;stroke-miterlimit:10;" d="M201.5,77.7c-20-4.3-14.5,0.8-37.9,4.7
	C184.1,75.3,189,70.8,201.5,77.7z"/>
<g>
	<path style="fill:none;stroke:#000000;stroke-miterlimit:10;" d="M195,59.2c12.1-3.7,24.6-6.1,33.8-4.7c-23-6.7-42.1-3.9-56.5,1
		c9.2-5.6,20.7-12,31.6-18c-25.1,4.2-40.8,11.6-50.1,17c8.4-6.8,24.5-14.2,30.2-30c-7.5,5-15.2,8.4-22.4,11.1
		c5.8-7.6,9.6-14.8,5.7-19c-6.1,14.6-16.6,21.1-25.4,25.5h0c-1.7-9.2-4.7-18-8.6-22.2c-6.1,14.6-8.3,22.7-8.6,28.7
		c-2.5-7.1,2-20-18.1-32.4c6.7,8.8,1.5,20.4,3.7,30.4l0,0c-2.7-1.9-5.3-3.6-7.9-5.2C91,33.8,77.5,24.3,63.7,15.7
		C68,21.5,75.8,29,84.1,36.5c-7.5-2.4-16.3-3.3-26.5-1.7c20.9,2.4,31,10.6,38.8,19.2c-10.4-0.7-24-0.9-38.1,0.9
		c1.5,0.3,3,0.5,4.5,0.7c-1.2,0.1-2.4,0.2-3.6,0.4c15.6,3.1,32.5,0.1,39.1,8.1c0.3,0.5,0.7,1.2,0.9,1.8c-10-1-26,0.3-40.3,14
		c17.6-7.5,39.5-15.4,42.2-0.2c30.7,0.6,48.5,4.8,64.2,14c-4.4-11.4,28.4-15.9,42.8-8.4c-2.4-6-5.9-9.4-10-11.3
		c12-1.5,23-3.5,23.9-8.4c-8.9,0.7-30.3,3.9-46.7,4.8C182.4,67,191.1,63.6,195,59.2z"/>
	<path style="fill:none;stroke:#000000;stroke-miterlimit:10;" d="M101,79.7L101,79.7L101,79.7z"/>
</g>
</svg>
