<?xml version="1.0" encoding="utf-8"?>
<!-- Generator: Adobe Illustrator 22.1.0, SVG Export Plug-In . SVG Version: 6.00 Build 0)  -->
<svg version="1.1" id="Layer_1" xmlns="http://www.w3.org/2000/svg" xmlns:xlink="http://www.w3.org/1999/xlink" x="0px" y="0px"
	 viewBox="0 0 256 256" style="enable-background:new 0 0 256 256;" xml:space="preserve">
<path style="fill:#E9E8E8;" d="M79.2,146.5H29.7c0,0-29.6-1.6-24.2-16.7s29.6-22.6,53.8-23.7s129.7,0,129.7,0s20.5,2.7,46.3-43.6
	h17.2l-11.8,45.2c0,0,17.8,11.2-4.8,18l12.9,14.3h-18.3l-12.4-6.5c0,0-24.2,13.5-60.3,12.9"/>
<path style="fill:none;stroke:#4C4C4C;stroke-width:5;stroke-linecap:round;stroke-linejoin:round;stroke-miterlimit:10;" d="
	M79.2,146.5H29.7c0,0-29.6-1.6-24.2-16.7s29.6-22.6,53.8-23.7s129.7,0,129.7,0s20.5,2.7,46.3-43.6h17.2l-11.8,45.2
	c0,0,17.8,11.2-4.8,18l12.9,14.3h-18.3l-12.4-6.5c0,0-24.2,13.5-60.3,12.9"/>
<line style="fill:none;stroke:#4C4C4C;stroke-width:5;stroke-linecap:round;stroke-linejoin:round;stroke-miterlimit:10;" x1="10.2" y1="122.2" x2="31.3" y2="122.2"/>
<circle style="fill:#4C4C4C;" cx="75.3" cy="123" r="3.4"/>
<circle style="fill:#4C4C4C;" cx="90.1" cy="123" r="3.4"/>
<circle style="fill:#4C4C4C;" cx="104.9" cy="123" r="3.4"/>
<circle style="fill:#4C4C4C;" cx="119.7" cy="123" r="3.4"/>
<circle style="fill:#4C4C4C;" cx="134.5" cy="123" r="3.4"/>
</svg>
