<?xml version="1.0" encoding="utf-8"?>
<!-- Generator: Adobe Illustrator 17.0.0, SVG Export Plug-In . SVG Version: 6.00 Build 0)  -->
<!DOCTYPE svg PUBLIC "-//W3C//DTD SVG 1.1//EN" "http://www.w3.org/Graphics/SVG/1.1/DTD/svg11.dtd" [
	<!ENTITY ns_flows "http://ns.adobe.com/Flows/1.0/">
	<!ENTITY ns_extend "http://ns.adobe.com/Extensibility/1.0/">
	<!ENTITY ns_ai "http://ns.adobe.com/AdobeIllustrator/10.0/">
	<!ENTITY ns_graphs "http://ns.adobe.com/Graphs/1.0/">
]>
<svg version="1.1" id="Layer_1" xmlns:x="&ns_extend;" xmlns:i="&ns_ai;" xmlns:graph="&ns_graphs;"
	 xmlns="http://www.w3.org/2000/svg" xmlns:xlink="http://www.w3.org/1999/xlink" xmlns:a="http://ns.adobe.com/AdobeSVGViewerExtensions/3.0/"
	 x="0px" y="0px" width="256px" height="256px" viewBox="0 0 256 256" style="enable-background:new 0 0 256 256;"
	 xml:space="preserve">
<g transform="translate(0.000000,1280.000000) scale(0.100000,-0.100000)">
	<path style="fill:none;stroke:#000000;stroke-width:3;stroke-miterlimit:10;" d="M1502,12798c-17.2-2.2-27.6-5.8-45-14.6
		c-21.2-10.8-46.8-36-57.6-56.6c-8.4-16.2-9.2-22.2-3.6-29c3.8-4.8,4.8-4.8,53.6-6.8l49.6-2l4.8-9.6c6.6-13.4,8.4-43.2,3.4-56.4
		c-3.4-8.6-3.8-9-11.8-9c-4.6,0-27.2-1-50.2-2c-39.2-1.6-42-2-46.4-6.2c-7.8-7.4-6.4-16.4,5.2-34c37-56.4,108.4-77.8,165.8-49.6
		l13,6.4l3-4.6c1.8-2.6,11.6-14.8,22-26.8c31.8-37.2,43-54.4,53.2-81.8c3.4-9,3.4-10,0-20.4c-2.6-8.6-3.4-18.4-3.4-44.6
		c-0.2-40.2,2.8-55,15.6-82c7.2-14.8,12-21.8,23.4-33.2c8-8,19.8-17.6,26.4-21.6l12-6.8l1.6-19c1-10.4,1.8-47.6,1.8-82.8
		c0.2-63.4-2.2-104.4-9.6-169c-10.2-90.2-46-291-55.6-311.2c-2.6-5.4-11.2-17.8-19-27.4c-10.6-13-42-55.2-45.4-61
		c-0.2-0.2-2.6,0.6-5.6,1.8c-28.2,13-91.6-91.8-142.2-235.2c-2.6-7.6-7.4-14-20.8-27c-35.8-35.4-69.2-45.8-172.4-53.6
		c-43.6-3.4-45.6-3.4-53.6,0.2c-6.8,3-9.6,3.2-15,1.4c-7.6-2.4-14-8.8-16.4-16.4l-1.8-5.4l-8.8,8.4c-4.8,4.4-7.8,8.6-6.6,9
		c8.2,2.6,30.2,19.6,45.4,35.2c27.6,28,38.4,49.4,40.4,80.2c1.4,22.6-2.8,38.4-20.2,75c-29,60.8-33,80.4-35.2,171
		c-1,36.4-2.6,72.2-4,80c-10,63.2-28.6,120-58.8,180c-36,71-71.8,114-128.8,155.2c-49.4,35.8-69.4,55.6-90.6,90
		c-5.6,9.2-13.6,20.8-17.6,25.8c-7.2,8.8-7.2,9-6.6,26c1,26.2-7.8,46.8-26.2,61.8c-9.6,8-27.8,14.2-42.4,14.6c-7.2,0.2-13,1-13,1.6
		c0,1.8,29,34.2,66,74c35.8,38.6,67.6,76.2,74.8,88.4c7.6,13,10,25.2,7.2,35.8c-3.2,12.4-32.6,41-51.6,50.2
		c-12.6,6.2-14.4,6.6-35.4,6.6c-19.2-0.2-23.6-0.8-34.6-5.4c-44.6-18.8-83.8-59.8-128.2-134c-5.8-9.8-11.2-17.6-11.8-17.6
		s-31.4,14.8-68.4,32.8c-36.8,18-73.2,35.2-80.8,38.2c-7.6,3-16.4,7.2-19.4,9.4c-3.8,2.8-7,3.8-10.6,2.8
		c-14.2-3.6-108.8-81-159.8-131.2c-65.8-64.2-110.8-122.2-147.2-189c-20.6-37.8-21.6-41.2-17.2-64.8c7.2-40.4,27.8-111.8,56.8-197.2
		c14-41,21.6-52.4,35.2-53.4c8.6-0.6,15.6-8.8,14-16.6c-0.6-3.2-1.8-15.4-2.4-27c-0.8-18.8-0.4-22.6,4-36c2.6-8.2,6.4-20.4,8.4-26.8
		c4.4-16,13.6-33.6,22-43c7.8-8.6,8.6-10.6,3.6-8.8c-3.2,1.2-3.2,1-0.8-2c4-5,31.6-23.2,37.4-24.6c3-0.8,7.4-5.4,11.8-12.8
		c17.2-28.2,46.2-47.8,73.4-49.4c21-1.2,22.8-1.8,27.6-9.8c4.6-8.2,4.4-8.6-8-14.2c-6.6-3-26.2-4-30-1.6c-1.2,0.6-2,0.6-2-0.4
		c0.2-2,15-13.2,23.8-17.6c12.2-6,25-9,40.8-9c22.2,0,25.4-2.2,31-20.8c5.6-18.2,16.6-35.6,30.6-49c9.6-9.2,10.2-10.2,12-24
		c3.4-27.2,19.8-57.6,39-72.2c11.8-8.8,33.6-20,39.4-20c1.8,0,3.4-0.8,3.4-1.8c0-2.8-14.2-4.2-22.4-2.4c-4.2,1-7.6,1.4-7.6,0.8
		c0-4,26-19.6,39.4-23.6c19.8-6,51.8-1.8,62.8,8.2c2.2,2,4.2,3,4.8,2.4c2.2-2,31.4-64.8,43.6-93.6c14.4-34,25.2-62.8,38.4-103.6
		c12.4-37.6,12.4-37.6,6-39.2c-6-1.6-13-12-13-19.6c0-3.2-1-5.6-2.2-5.6c-4,0-51-22.2-72.8-34.4c-12-6.6-41.4-24.6-65-39.6
		c-23.6-15-53.4-33.4-66-41c-41.6-24.8-66.4-55.6-101.4-126c-25.2-50.6-53.6-128-65.6-179.4c-6-25.6-5.8-36,1-47.2
		c3.6-5.8,4.8-6.4,14.2-6.4c9.6,0,10.2-0.2,9-4.4c-2.2-8.4-11-56.2-14.2-76.6c-1.6-11-5-25-7.4-31c-3.4-8.8-4.4-15.2-4.4-32
		c-0.2-24.6,3-36.8,14.4-56c8.6-14.4,29.2-32,48.4-41.6l11-5.4l606.8,0.4c333.8,0.4,607.2,0.8,607.6,1.4c0.4,0.4-1,5.2-3.2,10.8
		c-10.2,25.8-18.2,72-22.4,127.4c-2.8,40-2.8,155,0.2,216c4.4,93.2,14.2,236.4,17.2,253c20,110.8,68.8,212.8,175.2,366.6
		c12,17.2,22.6,34,23.6,37c2,7.2-2,19-8.8,26.2l-5.2,5.4l16.8,36c40.4,86.8,92,219.2,97.4,250c3.6,20.6,1.2,80.6-5,120.8
		c-6,39.4-8.8,52.8-27,132.2c-27.8,121.8-34.2,163.4-34.2,226c0,50.2,6.6,96.2,20.4,141.2c5.6,18.8,6.8,21,14,26
		c11.2,7.6,31.8,30.4,42.8,47.2c25.8,39,43,92.2,45.2,138c0.2,7.4,1,13.4,1.8,13.4c3.2,0,28.2-29,39.8-45.8c15.8-23,32-37.8,52.8-48
		c24.4-12.2,38-15.2,67.2-15c21.4,0,27.2,0.8,41,5.4c21.6,7.2,39,17.6,56.4,34.2c20.2,19,38.6,47.4,38.6,59.6c0,2.2-2.6,6.4-5.6,9.6
		l-5.6,5.6l-52.6,0.8c-52.2,0.8-52.6,0.8-56.4,5.4c-6.4,8-10,23.8-10,45.6c0,23.2,3.8,36,11,37.4c2.2,0.6,26.6,1.6,54,2.2
		c59.6,1.6,63.2,2.6,63.2,18.6c0,12.8-27,47.8-48.6,63.2c-26.6,18.8-47.8,25.6-79.4,25.6c-30.8,0-54.2-7-95.2-28.2
		c-10.8-5.6-20.6-10.2-21.8-10.2s-3.4,4.4-4.8,9.8c-6.6,26-22.2,47-42,57.2c-13.4,6.8-24.6,8-43.6,5l-15.8-2.4l-10,6.4
		c-14.2,8.6-28.6,12.2-49.4,11.8l-17.6-0.4l-7.4,7.2c-20.4,19.6-55.4,25.4-90.6,14.8c-8.4-2.6-9.6-2.6-14,1
		c-9.6,7.6-23.6,13.6-37,15.6c-16.8,2.8-34.2,0.2-58.8-8.4c-31.2-11-47.6-21-53.6-32.6l-3.4-7l-8.8,4.4c-12.4,6-31,24-43.4,41.8
		c-17.8,25.4-34,38.2-60.8,48c-13.2,4.8-41.6,10.4-48.6,9.6C1514,12799.6,1508,12798.8,1502,12798z M668,11367.2
		c0-2.4-1.2-6.2-2.8-8.4c-2.8-3.8-3-3.8-8,1c-6.8,6.4-6.6,7.6,1.4,11C666.2,11374,668,11373.2,668,11367.2z"/>
</g>
</svg>
