<?xml version="1.0" encoding="utf-8"?>
<!-- Generator: Adobe Illustrator 17.0.0, SVG Export Plug-In . SVG Version: 6.00 Build 0)  -->
<!DOCTYPE svg PUBLIC "-//W3C//DTD SVG 1.1//EN" "http://www.w3.org/Graphics/SVG/1.1/DTD/svg11.dtd" [
	<!ENTITY ns_flows "http://ns.adobe.com/Flows/1.0/">
	<!ENTITY ns_extend "http://ns.adobe.com/Extensibility/1.0/">
	<!ENTITY ns_ai "http://ns.adobe.com/AdobeIllustrator/10.0/">
	<!ENTITY ns_graphs "http://ns.adobe.com/Graphs/1.0/">
]>
<svg version="1.1" id="Layer_1" xmlns:x="&ns_extend;" xmlns:i="&ns_ai;" xmlns:graph="&ns_graphs;"
	 xmlns="http://www.w3.org/2000/svg" xmlns:xlink="http://www.w3.org/1999/xlink" xmlns:a="http://ns.adobe.com/AdobeSVGViewerExtensions/3.0/"
	 x="0px" y="0px" width="256px" height="256px" viewBox="0 0 256 256" style="enable-background:new 0 0 256 256;"
	 xml:space="preserve">
<g transform="translate(0.000000,1193.000000) scale(0.100000,-0.100000)">
	<path style="fill:none;stroke:#000000;stroke-width:3;stroke-miterlimit:10;" d="M1169,11665.8c-3.2-1.6-11.8-7.4-19-12.8
		c-7.2-5.6-17.4-13-23-16.8c-22.2-15-42.6-54.2-47-90.6c-4.4-35.6,3.4-87.6,17.4-115.6c12.2-24.2,40.4-50.2,99.6-92.4
		c24.8-17.6,41.8-27,66.6-36.8c10.8-4.2,19.6-8.8,20-10.4c0.8-3.4-14.4-33.2-41.6-81.4c-16.4-29.2-24.4-41.4-38.8-58
		c-27.4-31.4-38.8-40.8-59.2-48.6c-7.2-2.8-15.4-5.6-18.2-6.2c-3-0.6-8-3.6-11.4-6.8l-6-5.6l-1.4-36.2l-1.6-36.4l-10-2.2
		c-15.2-3.2-24.2-11.4-28.6-26.2c-2.6-8.8-5-12.8-8-13.8c-4.4-1.8-8.8-11.2-15.8-34.2c-10.6-34.8-15-42.4-28-49.2
		c-5-2.8-13.2-3-57-2c-50.4,1.2-70.8,2.6-182,12.4c-95.4,8.6-154.2,21.4-171.6,37.8c-3.8,3.4-11.6,14.4-17.8,24.2
		c-18.4,30.2-20.8,33.2-44,57c-15.2,15.6-25.6,24.8-33,28.4c-15.8,8-40.8,12.4-62,11c-16.4-1-18.4-1.8-33.6-10.8
		c-19-11.4-23-17-43.6-62c-12.8-27.6-14.2-30-22.2-34.4c-10.2-5.6-17.8-17-22.6-34c-1.8-7-7.6-23.6-12.4-37
		c-14.4-38.4-14.8-44.2-17-205l-1.8-141l5.6-11.2c6.6-13.2,24.6-42.2,44.2-71c11.6-17.2,19.6-26,29.2-31.6c2.2-1.4,78,3.4,93,5.8
		c8.6,1.2,11.6,4.8,31.6,34.8c18.6,28,31.6,43.4,41.4,48.8c4.6,2.6,16.8,6.8,26.8,9.2c17.2,4,20.4,4.2,46.6,2
		c15.6-1.2,52-6.2,81.2-11c29.2-4.8,86.8-13.4,128-19c72.6-9.8,97.8-14.8,142-28.2c20.2-6.2,26.8-13.8,32.6-36.8
		c5-20.4,7.2-42.4,8.4-86c1.8-71.6,4.6-104,10.4-118.8c10.2-26.6,24.2-39.2,57.4-52.2l17.6-6.8l-7-6c-4-3.4-8-8-9-10.2
		s-2.2-17.4-2.6-34c-0.6-26.4-0.2-30.6,3-35.4c2-3,4-9,4.6-13.6c1-7.8,1-8-4.6-8c-6.4,0-13.2-4.8-16.6-11.4c-1.4-2.8-2.2-18-2.2-41
		V9962l8-10c13.8-17.4,19.2-22.2,37.4-33.4c21.8-13.4,58.6-25,104.4-32.8c15.8-2.6,19.8-4,24-8.6c4-4.2,8.6-6.2,19-8.2
		c17.6-3.2,54.4-1.6,63.4,3.2c6.2,3.2,20.6,4.8,72,8.6c23.6,1.8,31.6,3.4,60.8,12.2c33.4,10,36.2,11.4,70.4,33l9.6,6l3.4,26
		c1.8,14.4,3.4,33.4,3.4,42.6c0.2,15.4-0.2,16.6-4.2,18.2c-4.6,1.6-4.6,2-3.2,27.4c0.6,14.2,1.2,35.4,1.4,47l0.2,21l-7,8.2l-7,8.2
		l10.8,6.2c5.8,3.4,12,6.2,13.4,6.2c4,0,22.4,9,29.6,14.2c13.8,10.2,23,33.8,33,83.8c11.4,57.2,36,110.8,59.2,129.2
		c28.6,22.6,90.2,17.4,170.4-14.6c60.6-24,91.8-47,118.2-87c19-29,30.4-54.8,52.4-119c26.4-77.2,28.2-80.8,42.8-90.2
		c24.6-15.8,59.4-26.6,98.2-30.6c65.8-6.8,179.6-3,215,7.4c24.6,7,46.6,25.6,51.8,43.4c3.6,12.4,4.2,27,1.2,37.4
		c-1,3.8-3.2,23.8-4.8,44.2c-8,97.6-22.8,159.4-57,239c-12.4,28.8-18.8,41.4-41.8,79.8c-24.2,40.6-45.2,68-86.8,113
		c-27,29.4-74,67.8-105.4,86c-24.8,14.4-67.2,33.6-88.8,40.2c-11.2,3.4-33.4,10.2-49.4,15.2c-49.8,15.6-98.4,28.6-128.6,34.4
		c-48.8,9.4-99.8,24.6-117,34.8c-6,3.6-13.6,10-17.2,14.4c-11,13.4-12.4,16.6-38.8,89.4c-6.6,18.2-14,36.8-16,41
		c-5,9.6-19.2,22.8-30.8,28.8c-4.6,2.4-9.4,5.4-10.2,6.6c-2.2,3,0,32.4,4,52.6c3.8,19.6,5.8,15.6-24.6,50.6
		c-41,47.6-58.8,73.8-74,108.8c-6,14.2-14,30.2-17.8,35.8c-3.8,5.6-6.6,10.6-6,11c1.4,1.6,27.6,6.4,50,9.6
		c34,4.6,53.4,9.8,65.4,17.4c5.8,3.8,16,8.4,22.6,10.2c34,9.8,55.6,35.2,68.8,81.4c4.8,16.8,6.2,25.2,6.2,39.4
		c0,35.6-6.8,68.6-21.4,102.8c-7.8,18.2-11,23.4-22.4,35c-12,12.6-14.4,14-28.2,18c-40.2,11.6-56,11.2-111-3
		c-28-7.2-52.2-9-83.8-6.4c-30.8,2.6-44.8,5.4-66.2,13.4c-29,10.8-71,38-104,67.4c-25.6,22.6-41.6,32.2-64.2,38
		C1193.8,11669.6,1177,11669.6,1169,11665.8z"/>
</g>
</svg>
