<?xml version="1.0" encoding="utf-8"?>
<!-- Generator: Adobe Illustrator 17.0.0, SVG Export Plug-In . SVG Version: 6.00 Build 0)  -->
<!DOCTYPE svg PUBLIC "-//W3C//DTD SVG 1.1//EN" "http://www.w3.org/Graphics/SVG/1.1/DTD/svg11.dtd" [
	<!ENTITY ns_flows "http://ns.adobe.com/Flows/1.0/">
	<!ENTITY ns_extend "http://ns.adobe.com/Extensibility/1.0/">
	<!ENTITY ns_ai "http://ns.adobe.com/AdobeIllustrator/10.0/">
	<!ENTITY ns_graphs "http://ns.adobe.com/Graphs/1.0/">
]>
<svg version="1.1" id="Layer_1" xmlns:x="&ns_extend;" xmlns:i="&ns_ai;" xmlns:graph="&ns_graphs;"
	 xmlns="http://www.w3.org/2000/svg" xmlns:xlink="http://www.w3.org/1999/xlink" xmlns:a="http://ns.adobe.com/AdobeSVGViewerExtensions/3.0/"
	 x="0px" y="0px" width="256px" height="256px" viewBox="0 0 256 256" style="enable-background:new 0 0 256 256;"
	 xml:space="preserve">
<g transform="translate(0.000000,1280.000000) scale(0.100000,-0.100000)">
	<path style="fill:none;stroke:#000000;stroke-width:3;stroke-miterlimit:10;" d="M936,12795.4c-6-2.4-21.2-10.6-33.4-18
		c-29.2-17.6-38.2-21.4-55.4-23.6c-19.6-2.6-43.6,0.4-82.2,10.2c-52.8,13.4-84.4,11-112.4-8.2c-9.8-6.8-17.8-19.4-19.6-31
		c-1.4-8.4,3.2-31.2,8.4-41.4c4.6-9,16.6-21.4,25.2-25.8c11.4-5.6,23.4-5.2,73.4,3.4c66,11.4,111,11.8,132,1
		c3.8-2,10.2-6.8,13.8-10.8c3.8-4,8.6-7.2,10.6-7.2c3.2,0,3.6-2.4,3.6-26.8v-26.6l-6.2-1.4c-3.4-0.6-17.8-7.6-32-15.4
		c-29-16-45.8-20.4-70-18.4c-12.4,1-13.8,0.8-18.4-3.8c-7.2-7.4-9-23-4.2-40c0.8-2.4,4.6-4.2,12.6-5.8l11.4-2.2l-0.8-10.6
		c-1.2-15.6,0.4-20,10.8-27.2l9.4-6.4l-1.4-35.2c-1.4-32-2-36-6.2-43.4c-7.4-12.6-22.2-26.2-40.6-37c-15.8-9.4-17.2-9.8-31-9.8
		c-20,0.2-28,2.4-41.2,11.8c-12.4,8.6-27.8,13.4-33.8,10.4c-1.8-1-41.2-3.8-87.4-6c-46.2-2.4-104.4-5.4-129.4-6.6l-45.2-2.4
		l-1.2-20.2c-0.6-11-1.6-61.6-2.2-112.6c-1-74.8-0.8-92.6,1.4-93.2c1.4-0.4,60.6-5.4,131.6-11c71-5.8,133.2-11,138.2-11.6
		c7.8-0.8,9.4-0.4,10.2,2.8c1.6,5.8,23.6,16.4,44,20.8c31.2,6.8,46.6,6,117-6.8c80.8-14.8,95.2-15,174.6-2.2
		c93,14.8,154.2,20.8,175.6,17c25.6-4.6,41.8-15.4,50.2-33.4c7.4-15.4,12.2-50.8,12.2-88.4c0-19.4,1-36.4,2.2-40.2
		c2.2-6.4,4.4-7.4,30.8-13.8c6.8-1.8,4.8-2-13.4-2.2l-21.6-0.2l-1-429.4c-0.4-236.4-1-436.4-1.4-444.6c-0.4-12.8,0.4-16.4,4.8-25
		c14.2-27,45-39.6,74-29.8c15.2,5,31.8,22,36.8,37.6c4,12.6,4,12.6,19.6,6.2l7.6-3.2l-12-7.6c-15.4-10-25.4-23.4-30.8-40.8
		c-5.2-17.6-4-29.6,5.4-51.8c2.4-5.6-4.2-4.4-20,3.4c-9,4.6-18.2,7.6-25.6,8.4c-11.6,1.2-13,2.2-9.2,6c3.6,3.6,2.8,19.6-1.4,26.8
		c-8.8,15-31.6,20.4-47.6,11.2c-21.6-12.2-20.8-39.4,1.4-51.6l9.4-5l-7.6-7.2l-7.4-7.4l-43.4-1.4c-24-0.8-43.6-2-43.6-3
		c0-0.8,3.6-6,8.2-11.8c4.4-5.6,7.8-10.6,7.4-11c-0.2-0.4-20.8,15-45.2,34.4c-24.6,19.2-45,34.6-45.2,34.2
		c-0.4-0.4-9.4-12.8-20.2-27.6s-19.8-27.4-20.2-27.6c-0.2-0.4-10.6,7.4-22.8,17.4c-12.2,10-22.8,18.2-23.6,18.2
		c-0.8-0.2-8.8-10.4-18-23.2l-16.6-23l20.4-19.4l20.2-19.4l-15.2-22.4l-15.2-22.2l13-11.4c7.2-6.4,13-12.2,13-13c0-1-6-9-13.2-18
		l-13.4-16.4l8.8-8.6c4.8-4.6,38.8-37,75.6-72.2c36.8-35,91-87.2,120.2-116c29.4-28.6,58.8-56.4,65.6-61.4
		c39.6-30.6,92.4-54.6,149.4-68c27.2-6.4,73.8-13.4,90.2-13.4h12l101-98c55.4-53.8,101.6-97.6,102.6-97.4
		c5.2,1.6,195,162.8,194.6,165.4c-0.2,1.6-27,20.6-59.4,42.4c-121,81.2-144.2,97.4-204.6,142.2l-37.6,28l1.4,14.2
		c0.8,7.8,1.6,14.6,2,15c0.4,0.4,34.2-2.6,75.2-6.8c79.4-8,97.2-8.4,121.8-2c46,11.8,86,51.2,101,99.6c3,10,4.2,11.4,7.8,10.6
		c15.2-3.6,271.8-47.2,272.6-46.2c0.8,0.6-0.2,3.6-2,6.4c-1.6,2.8-41.2,69.4-87.8,147.8c-68.6,115.6-85.8,143-89.8,144.2
		c-2.8,0.8-37.8-0.2-78-2c-87.6-4.2-183.6-8.8-211-10.2l-20-1l-14,11.2c-50.6,40.6-129.4,81.8-209.4,109.2
		c-3.4,1.2-3.6,23-3.6,419.4v418l-33.4,0.2l-33.6,0.2l13.6,2.8c15.6,3,48.6,11.6,60.4,15.6c14.2,4.8,15,10,10,65.8
		c-3.6,41.8-9.4,81.6-16,110.4c-6.6,29.4-22.4,61.8-38.2,79c-38,41-134.2,80-236.8,96c-52.2,8.2-62.6,12.2-74.4,29
		c-10.6,15.2-13.6,29.8-13.6,64.8v31.2l13.8,9.6c14.8,10.4,16.2,13.2,16.2,32.6c0,8,0.2,8.4,7.8,9.6c4.2,0.6,8.8,2.4,10,4
		c6.8,8,3.8,43.2-3.8,47.2c-2,1.2-12.2,2-22.4,2c-14.2,0-23,1.2-36.6,5.2c-23,6.6-30.2,10.4-45.4,24c-7,6.2-14.2,11.8-16.2,12.6
		c-3.2,1.2-3.6,4.2-3.6,28.2c0,24.4,0.2,27,3.6,27.8c2,0.4,8,4.6,13.2,9.4c15,13.4,25.2,15.8,66.4,15.6c30,0,39-0.8,77-7.6
		c23.6-4.2,48.2-7.6,54.4-7.6c27.8,0,49.6,25.2,53,61.6c1,10.2,0.4,14-3.2,21.6c-11,22.4-38.4,35.2-76.2,35.4
		c-15.6,0-24.8-1.4-52-8.2c-41.2-10-64-12.8-83.8-10c-17.8,2.4-25.8,5.8-53.8,22.6c-31,18.6-37.8,21.8-50.2,22.6
		C949.6,12800,944.4,12799,936,12795.4z"/>
</g>
</svg>
