<?xml version="1.0" encoding="utf-8"?>
<!-- Generator: Adobe Illustrator 22.1.0, SVG Export Plug-In . SVG Version: 6.00 Build 0)  -->
<svg version="1.1" xmlns="http://www.w3.org/2000/svg" xmlns:xlink="http://www.w3.org/1999/xlink" x="0px" y="0px"
	 viewBox="0 0 256 256" style="enable-background:new 0 0 256 256;" xml:space="preserve">
<g id="Layer_1">
	<g>
		<path style="fill:#FFFFFF;" d="M203.9,249.6H53c0-14.2-5-35.1,1.9-42.5c11.6-12.5,26.1-16.5,46.7-19.9c0.5-0.1,1-0.2,1.3-0.4
			c4.2-1.3,7.2-5.3,7.2-9.6v-3.7c-16.6-6.9-28.2-23-28.2-42.1v-2.3c-6.1-1.6-10.6-7.1-10.6-13.6c0-3.7,1.6-7.3,4-9.8
			c1.8-1.9,4.1-3.1,6.7-3.9V82.6c0-7.2,5.8-13,13-13h45.1c4.3,8.8,11.6,15.9,20.5,20.1c0.4,0.2,0.7,0.4,1.2,0.6
			c0.2,0.1,0.5,0.2,0.7,0.4c0.4,0.1,0.7,0.4,1.1,0.5c0.5,0.1,0.8,0.4,1.3,0.5c0.5,0.2,1,0.4,1.4,0.5c0.5,0.1,0.8,0.2,1.3,0.4
			c0.4,0.1,0.6,0.2,1,0.2c0.4,0.1,0.6,0.1,1,0.2c0.1,0,0.2,0,0.2,0.1c0.4,0.1,0.6,0.1,1,0.2c0.2,0.1,0.5,0.1,0.7,0.1
			c0.5,0.1,1,0.1,1.4,0.2v8.1c2.8,0.5,5.4,1.7,7.3,3.5c2.8,2.5,4.6,6.3,4.6,10.4c0,7.1-5.3,12.9-11.9,13.9v1.2
			c0,18.9-11.3,35.7-27.9,42.8v3.6c0,4.2,2.7,8.1,6.6,9.6c0.7,0.2,1.4,0.5,2.1,0.6c19,2.8,35.7,6.5,46.6,20.1
			C206.4,215,203.9,235.7,203.9,249.6z"/>
	</g>
	<g>
		<path style="fill:#2E4266;" d="M180,64.9v40.2c-1.9-1.9-4.5-3-7.3-3.5v-8c-0.5-0.1-1-0.1-1.4-0.2c-0.2,0-0.5-0.1-0.7-0.1
			c-0.4-0.1-0.6-0.1-1-0.2c-0.1,0-0.2,0-0.2-0.1c-0.4-0.1-0.6-0.1-1-0.2s-0.6-0.1-1-0.2c-0.5-0.1-0.8-0.2-1.3-0.4
			c-0.5-0.1-1-0.4-1.4-0.5c-0.5-0.1-0.8-0.4-1.3-0.5c-0.4-0.1-0.7-0.2-1.1-0.5c-0.2-0.1-0.5-0.2-0.7-0.4c-0.4-0.1-0.8-0.4-1.2-0.6
			c-8.9-4.2-16.1-11.3-20.5-20.1H95c-7.2,0-13,5.8-13,13v19.1c-2.5,0.6-4.9,1.9-6.7,3.9V70c0-5.6,3-10.2,7.7-12.8
			c-11.7-19,1.9-40.9,27.8-40.9c27.2,0,65.4,20.6,69.2,47.3c0,0.2,0,0.5,0.1,0.7l0,0C180,64.5,180,64.7,180,64.9z"/>
	</g>
	<g>
		<circle style="fill:#2E4266;" cx="105.2" cy="111.3" r="5.3"/>
	</g>
	<g>
		<circle style="fill:#2E4266;" cx="150.5" cy="111.3" r="5.3"/>
	</g>
	<g style="opacity:0.1;">
		<path style="fill:#0C0C0C;" d="M126.6,151.1c-11.4,0-18.3-8.2-18.4-8.3c-0.5-0.6-0.5-1.6,0.2-2.1c0.6-0.5,1.6-0.5,2.1,0.2
			c0.6,0.7,13.6,16,34.5-0.2c0.6-0.5,1.6-0.4,2.1,0.2c0.5,0.6,0.4,1.6-0.2,2.1C139.1,149.1,132.4,151.1,126.6,151.1z"/>
	</g>
	<path style="fill:#68EAD7;" d="M206.4,250.2H54.8c0,0-4.8-35.1,2.7-46.4c7.6-11.4,48.7-18.6,48.6-18.6c2,16.5,23.5,16.4,23.5,16.4
		c24.9-1.7,24.8-16.2,24.8-16.4c0,0,1.9,0.5,2.1,0.6c0,0,5.2,0.8,13,3.2c2.6,0.8,5.5,1.8,8.7,2.9c3.3,1.2,6.8,2.6,10.4,4.3
		C212.2,207.1,206.4,250.2,206.4,250.2z"/>
	<path style="opacity:0.3;fill:#0C0C0C;" d="M79.7,191.7v0.5v1.3v14.6c0,6.1-1.2,12.2-3.3,17.9l-1.8,4.8v19.3h108.9v-19.3l-1.8-4.8
		c-2.2-5.7-3.3-11.8-3.3-17.9v-16v-0.2c-3.1-1.2-6.1-2.1-8.7-2.9v14.4c0,21.5-17.4,38.8-38.8,38.8h-3.4c-21.5,0-38.8-17.4-38.8-38.8
		l-0.1-14.2C88.3,189.2,80.8,191.4,79.7,191.7z"/>
	<g>
		<path style="fill:none;stroke:#2E4266;stroke-width:5;stroke-miterlimit:10;" d="M203.9,249.6H53c0-14.2-5-35.1,1.9-42.5
			c11.6-12.5,26.1-16.5,46.7-19.9c0.5-0.1,1-0.2,1.3-0.4c4.2-1.3,7.2-5.3,7.2-9.6v-3.7c-16.6-6.9-28.2-23-28.2-42.1v-2.3
			c-6.1-1.6-10.6-7.1-10.6-13.6c0-3.7,1.6-7.3,4-9.8c1.8-1.9,4.1-3.1,6.7-3.9V82.6c0-7.2,5.8-13,13-13h45.1
			c4.3,8.8,11.6,15.9,20.5,20.1c0.4,0.2,0.7,0.4,1.2,0.6c0.2,0.1,0.5,0.2,0.7,0.4c0.4,0.1,0.7,0.4,1.1,0.5c0.5,0.1,0.8,0.4,1.3,0.5
			c0.5,0.2,1,0.4,1.4,0.5c0.5,0.1,0.8,0.2,1.3,0.4c0.4,0.1,0.6,0.2,1,0.2c0.4,0.1,0.6,0.1,1,0.2c0.1,0,0.2,0,0.2,0.1
			c0.4,0.1,0.6,0.1,1,0.2c0.2,0.1,0.5,0.1,0.7,0.1c0.5,0.1,1,0.1,1.4,0.2v8.1c2.8,0.5,5.4,1.7,7.3,3.5c2.8,2.5,4.6,6.3,4.6,10.4
			c0,7.1-5.3,12.9-11.9,13.9v1.2c0,18.9-11.3,35.7-27.9,42.8v3.6c0,4.2,2.7,8.1,6.6,9.6c0.7,0.2,1.4,0.5,2.1,0.6
			c19,2.8,35.7,6.5,46.6,20.1C206.4,215,203.9,235.7,203.9,249.6z"/>
	</g>
	<path style="fill:#68EAD7;" d="M183.4,73c-35.8-11.4-73.3-12-113,0c0-31.3,13.6-59.4,48.3-62.9c0-0.1,0-0.3,0-0.4
		c0-3.2,2.6-5.7,5.7-5.7c3.2,0,5.7,2.6,5.7,5.7v0.1C164.9,11.7,183.4,39.5,183.4,73z"/>
	<path style="fill:#68EAD7;" d="M79.8,61.5c0,0-14.9,13.9-13,26.1c0.4,2.6,4.9,2.3,7.2,1c28.5-15.8,76.2-17.8,107.1,0.3
		c2.5,1.5,7.5,1.2,7.6-1.6c0.5-13.7-13.1-24.8-13.1-24.8C143.6,41.6,102.1,44,79.8,61.5z"/>
	<circle style="opacity:0.2;fill:#0C0C0C;" cx="125" cy="33.8" r="10"/>
	<path style="opacity:0.2;fill:#0C0C0C;" d="M79.8,61.5c0,0-14.9,13.9-13,26.1c0.4,2.6,4.9,2.3,7.2,1c28.5-15.8,76.2-17.8,107.1,0.3
		c2.5,1.5,7.5,1.2,7.6-1.6c0.5-13.7-13.1-24.8-13.1-24.8C143.6,41.6,102.1,44,79.8,61.5z"/>
	<g>
		<path style="fill:none;stroke:#2E4266;stroke-width:5;stroke-linecap:round;stroke-linejoin:round;stroke-miterlimit:10;" d="
			M188.7,87.3c-0.1,2.8-5.1,3.1-7.6,1.6C150.2,70.8,102.5,72.8,74,88.6c-2.3,1.3-6.8,1.6-7.2-1c-0.8-5,1.2-10.2,3.9-14.7
			c-0.1,0-0.2,0.1-0.3,0.1c0-31.3,13.6-59.4,48.3-62.9V9.7c0-3.2,2.6-5.7,5.7-5.7c3.2,0,5.7,2.6,5.7,5.7v0.1
			c34.2,1.9,52.6,28.7,53.3,61.4c0,0,0,0,0,0C186.3,75.6,188.9,81.2,188.7,87.3z"/>
	</g>
	<path style="fill:#898989;stroke:#2E4266;stroke-width:5;stroke-linecap:round;stroke-linejoin:round;stroke-miterlimit:10;" d="
		M227.3,176.6c0,7.6-5.9,14.2-14,16.4v52.4c0,3.2-2.6,5.7-5.7,5.7c-3.1,0-5.7-2.5-5.7-5.7v-52.2c-8.4-2-14.6-8.7-14.6-16.6
		c0-6.1,3.7-11.5,9.3-14.6v18.8h21.3V162C223.6,165,227.3,170.4,227.3,176.6z"/>
	<path style="fill:#EA4949;" d="M66.6,205.6L66.6,205.6l-0.1,3.3h0.1c0.9,0,1.7-0.8,1.7-1.7C68.3,206.2,67.5,205.6,66.6,205.6z"/>
	<g>
		<path style="fill:#757575;" d="M62.5,217.1L62.5,217.1c-2.2,0-4-1.8-4-4l0.1-42.3H39.1l0,0c0-7.6,6.1-13.7,13.7-13.7h13.8l-0.2,56
			C66.5,215.3,64.7,217.1,62.5,217.1z"/>
	</g>
	<path style="fill:#EA4949;" d="M69.2,198.8v-19.6H47.7v67.4c0,2.5,2,4.5,4.5,4.5l0,0c2.5,0,4.5-2,4.5-4.5V211
		c0-0.8,0.1-1.5,0.2-2.1h9.7c0.9,0,1.7-0.8,1.7-1.7c0-1-0.8-1.7-1.7-1.7H58c0.6-1.2,1.3-2.3,2.3-3.2
		C62.6,200.1,65.7,198.8,69.2,198.8z M52.2,247.9c-0.7,0-1.2-0.6-1.2-1.2s0.6-1.2,1.2-1.2c0.7,0,1.2,0.6,1.2,1.2
		C53.4,247.4,52.9,247.9,52.2,247.9z"/>
	<path style="fill:none;stroke:#2E4266;stroke-width:5;stroke-linecap:round;stroke-linejoin:round;stroke-miterlimit:10;" d="
		M66.6,179.1l0.1-22.1H52.9c-3.8,0-7.2,1.5-9.7,4c-2.5,2.5-4,5.9-4,9.7h19.4l0,8.4H47.7v67.4c0,2.5,2,4.5,4.5,4.5
		c1.2,0,2.3-0.5,3.1-1.3s1.3-1.9,1.3-3.2V211c0-0.8,1.8-2.1,1.8-2.1l0,4.1c0,2.2,1.8,4,4,4c2.2,0,4-1.8,4-4L66.6,179.1z"/>
</g>
<g id="guidelines">
</g>
</svg>
