<?xml version="1.0" encoding="utf-8"?>
<!-- Generator: Adobe Illustrator 17.0.0, SVG Export Plug-In . SVG Version: 6.00 Build 0)  -->
<!DOCTYPE svg PUBLIC "-//W3C//DTD SVG 1.1//EN" "http://www.w3.org/Graphics/SVG/1.1/DTD/svg11.dtd" [
	<!ENTITY ns_flows "http://ns.adobe.com/Flows/1.0/">
	<!ENTITY ns_extend "http://ns.adobe.com/Extensibility/1.0/">
	<!ENTITY ns_ai "http://ns.adobe.com/AdobeIllustrator/10.0/">
	<!ENTITY ns_graphs "http://ns.adobe.com/Graphs/1.0/">
]>
<svg version="1.1" id="Layer_1" xmlns:x="&ns_extend;" xmlns:i="&ns_ai;" xmlns:graph="&ns_graphs;"
	 xmlns="http://www.w3.org/2000/svg" xmlns:xlink="http://www.w3.org/1999/xlink" xmlns:a="http://ns.adobe.com/AdobeSVGViewerExtensions/3.0/"
	 x="0px" y="0px" width="256px" height="256px" viewBox="0 0 256 256" style="enable-background:new 0 0 256 256;"
	 xml:space="preserve">
<g id="Layer_x0020_1">
	<path style="fill:none;stroke:#000000;stroke-width:3;stroke-miterlimit:10;" d="M247.8,33.3l-44.6,21.8l40.9-28.3
		C244.1,26.8,247.8,33.3,247.8,33.3z M205.2,9.2l-27.6,41.1l21.2-44.8L205.2,9.2L205.2,9.2z M254.7,75.1l-49.5-3.5l49.5-3.8V75.1z
		 M158.3,1.7L154.8,51l-3.9-49.3L158.3,1.7L158.3,1.7z M248.5,144.1l-15.1,9.8l-7.4-21.6h22.5V144.1L248.5,144.1z M105.1,1.7
		L101.2,51L97.8,1.7C97.8,1.7,105.1,1.7,105.1,1.7z M199,81.9h-143V62.2h143V81.9z M78.4,50.3L50.8,9.2l6.3-3.7L78.4,50.3z
		 M52.8,55.1L8.2,33.3l3.7-6.5L52.8,55.1z M238,212.9H232v8.9h-9.8v32.5h-37v-21.4c-7.4-0.1-11.6-3.8-12.6-11.1H82.6
		c-1.1,7.3-5.2,11-12.5,11.1v21.4H33.1v-32.5H23v-8.9h-5.9v-12.6h5.9v-32.6c0-11.6,9.1-36.4,27.3-74.5c20.6-3.7,46.3-5.5,77.3-5.5
		c30.9,0,56.7,1.8,77.4,5.5c18,38,27,62.8,27,74.5v32.6h5.9L238,212.9L238,212.9z M50.8,71.5L1.3,75.1v-7.4L50.8,71.5z M29.2,132.3
		l-7.4,21.6l-15.1-9.8v-11.8H29.2z M195.6,78.4V65.2h-44.6v13.1H195.6z M226,195.6v-23.1h-32.9v23.1H226z M104.2,78.4V65.2H59.6
		v13.1H104.2z M219.7,146c-1.5-4.9-4.1-12.8-7.9-23.5c-2.6-6-6.7-14-12.3-23.9c-16.4-2.3-40.4-3.5-72-3.5c-31.5,0-55.4,1.1-71.9,3.5
		c-2.7,4.8-6.8,12.8-12.3,23.9c-2.5,5.5-5.2,13.3-8,23.5c28.2-1.3,58.9-1.9,92.2-1.9C160.9,144.1,191.6,144.7,219.7,146z
		 M195.6,220.3c0-7-3.4-10.4-10.3-10.4c-7,0-10.4,3.4-10.4,10.4c0,6.9,3.4,10.3,10.4,10.3C192.3,230.6,195.6,227.2,195.6,220.3z
		 M185.2,180.3v-7.7h-115v7.7H185.2z M185.2,195.6v-7.5h-115v7.5H185.2z M235.7,211.1v-8.2H19.4v8.2h41.1c2.5-2.7,5.6-4,9.3-4
		c3.7,0,6.9,1.3,9.5,4H176c2.5-2.7,5.6-4,9.3-4c3.7,0,6.9,1.3,9.5,4H235.7L235.7,211.1z M62.1,195.6v-23.1H29.2v23.1H62.1z
		 M80.2,220.3c0-7-3.5-10.4-10.4-10.4c-6.9,0-10.4,3.4-10.4,10.4c0,6.9,3.5,10.3,10.4,10.3C76.7,230.6,80.2,227.2,80.2,220.3z"/>
</g>
</svg>
