<?xml version="1.0" encoding="utf-8"?>
<!-- Generator: Adobe Illustrator 22.1.0, SVG Export Plug-In . SVG Version: 6.00 Build 0)  -->
<svg version="1.1" id="Layer_1" xmlns="http://www.w3.org/2000/svg" xmlns:xlink="http://www.w3.org/1999/xlink" x="0px" y="0px"
	 viewBox="0 0 256 256" style="enable-background:new 0 0 256 256;" xml:space="preserve">
<g>
	<path style="fill:#FFFFFF;" d="M207.5,247.2H58.2c0-14-4.9-34.7,1.9-42c11.5-12.4,25.8-16.3,46.2-19.7c0.5-0.1,1-0.2,1.3-0.4
		c4.2-1.3,7.1-5.2,7.1-9.5v-3.7c-16.4-6.8-27.9-22.8-27.9-41.6V128c-6-1.6-10.5-7-10.5-13.5c0-3.7,1.6-7.2,4-9.7
		c1.8-1.9,4.1-3.1,6.6-3.9v-19c0-7.1,5.7-12.9,12.9-12.9h44.6c4.3,8.7,11.5,15.7,20.3,19.9c0.4,0.2,0.7,0.4,1.2,0.6
		c0.2,0.1,0.5,0.2,0.7,0.4c0.4,0.1,0.7,0.4,1.1,0.5c0.5,0.1,0.8,0.4,1.3,0.5c0.5,0.2,1,0.4,1.4,0.5c0.5,0.1,0.8,0.2,1.3,0.4
		c0.4,0.1,0.6,0.2,1,0.2c0.4,0.1,0.6,0.1,1,0.2c0.1,0,0.2,0,0.2,0.1c0.4,0.1,0.6,0.1,1,0.2c0.2,0.1,0.5,0.1,0.7,0.1
		c0.5,0.1,1,0.1,1.4,0.2v8c2.8,0.5,5.3,1.7,7.2,3.5c2.8,2.5,4.6,6.2,4.6,10.3c0,7-5.2,12.8-11.8,13.8v1.2
		c0,18.7-11.2,35.3-27.6,42.3v3.6c0,4.2,2.7,8,6.5,9.5c0.7,0.2,1.4,0.5,2.1,0.6c18.8,2.8,35.3,6.4,46.1,19.9
		C209.9,212.9,207.5,233.4,207.5,247.2z"/>
</g>
<g>
	<g>
		<path style="fill:#2E4D66;" d="M183.8,64.4v39.8c-1.9-1.9-4.5-3-7.2-3.5v-7.9c-0.5-0.1-1-0.1-1.4-0.2c-0.2,0-0.5-0.1-0.7-0.1
			c-0.4-0.1-0.6-0.1-1-0.2c-0.1,0-0.2,0-0.2-0.1c-0.4-0.1-0.6-0.1-1-0.2s-0.6-0.1-1-0.2c-0.5-0.1-0.8-0.2-1.3-0.4
			c-0.5-0.1-1-0.4-1.4-0.5c-0.5-0.1-0.8-0.4-1.3-0.5c-0.4-0.1-0.7-0.2-1.1-0.5c-0.2-0.1-0.5-0.2-0.7-0.4c-0.4-0.1-0.8-0.4-1.2-0.6
			c-8.8-4.2-15.9-11.2-20.3-19.9H99.7c-7.1,0-12.9,5.7-12.9,12.9v18.9c-2.5,0.6-4.8,1.9-6.6,3.9V69.5c0-5.5,3-10.1,7.6-12.7
			C76.2,38,89.7,16.3,115.3,16.3c26.9,0,64.7,20.4,68.5,46.8c0,0.2,0,0.5,0.1,0.7l0,0C183.8,64,183.8,64.2,183.8,64.4z"/>
	</g>
	<g>
		<circle style="fill:#2E4D66;" cx="109.8" cy="110.3" r="5.2"/>
	</g>
	<g>
		<circle style="fill:#2E4D66;" cx="154.6" cy="110.3" r="5.2"/>
	</g>
	<g style="opacity:0.1;">
		<path style="fill:#0C0C0C;" d="M131,149.7c-11.3,0-18.1-8.1-18.2-8.2c-0.5-0.6-0.5-1.6,0.2-2.1c0.6-0.5,1.6-0.5,2.1,0.2
			c0.6,0.7,13.5,15.8,34.1-0.2c0.6-0.5,1.6-0.4,2.1,0.2c0.5,0.6,0.4,1.6-0.2,2.1C143.4,147.7,136.7,149.7,131,149.7z"/>
	</g>
</g>
<path style="fill:#5E98D3;" d="M208.5,247.8H56c0-14.8-3.2-36.5,3.6-44.1c3.5-3.9,7.2-6.9,11.2-9.5c4.1-2.5,8.5-4.5,13.4-6.1
	c1.7-0.6,3.5-1.1,5.3-1.6c2.1-0.6,4.2-1.1,6.4-1.5c1-0.2,2.1-0.5,3.1-0.8c2.2-0.6,4.5-1.2,7-1.6c0.5-0.1,1.1-0.3,1.5-0.4
	c5,10.4,23.4,15.1,23.4,15.1c0.1,0,21-2.1,24.9-14.6l0,0c0.1-0.1,0.2-0.3,0.2-0.4h0.1c0.6,0.2,1.3,0.4,2,0.5
	c2.4,0.4,4.8,0.7,7.1,1.2c0.9,0.2,1.9,0.4,2.8,0.5c1.6,0.3,3.2,0.6,4.8,1c2.4,0.6,4.7,1.2,7,1.9c4.2,1.3,8.2,3,11.9,5.1
	c4.9,2.8,9.3,6.4,13,11.3C210.9,211.9,208.5,233.3,208.5,247.8z"/>
<polygon style="opacity:0.2;fill:#2E4D66;" points="122.3,205 128,211.7 124,247.7 136.9,247.7 133.5,211.7 140.1,205 130.9,197.3 
	"/>
<path style="fill:#E8E8E8;" d="M130.9,197.3l16.9,14.2c0,0,6.2-16.9,10.3-28.7l-9.1-7.9C150.5,177.2,143.2,194.9,130.9,197.3z"/>
<path style="fill:#E8E8E8;" d="M130.9,196.7L116.1,212c0,0-11.3-15.6-11.3-29.2l9.4-7.2C112.4,179.3,118.7,194.4,130.9,196.7z"/>
<path style="opacity:0.2;fill:#2E4D66;" d="M176.5,244.3h-15.9c-2.4,0-4.4-2-4.4-4.4v-20.3H181v20.3
	C180.9,242.3,178.9,244.3,176.5,244.3z"/>
<rect x="76.6" y="218.1" style="opacity:0.2;fill:#2E4D66;" width="27.5" height="6.9"/>
<g>
	<path style="fill:none;stroke:#2E4D66;stroke-width:5;stroke-miterlimit:10;" d="M207.5,247.2H58.2c0-14-4.9-34.7,1.9-42
		c11.5-12.4,25.8-16.3,46.2-19.7c0.5-0.1,1-0.2,1.3-0.4c4.2-1.3,7.1-5.2,7.1-9.5v-3.7c-16.4-6.8-27.9-22.8-27.9-41.6V128
		c-6-1.6-10.5-7-10.5-13.5c0-3.7,1.6-7.2,4-9.7c1.8-1.9,4.1-3.1,6.6-3.9v-19c0-7.1,5.7-12.9,12.9-12.9h44.6
		c4.3,8.7,11.5,15.7,20.3,19.9c0.4,0.2,0.7,0.4,1.2,0.6c0.2,0.1,0.5,0.2,0.7,0.4c0.4,0.1,0.7,0.4,1.1,0.5c0.5,0.1,0.8,0.4,1.3,0.5
		c0.5,0.2,1,0.4,1.4,0.5c0.5,0.1,0.8,0.2,1.3,0.4c0.4,0.1,0.6,0.2,1,0.2c0.4,0.1,0.6,0.1,1,0.2c0.1,0,0.2,0,0.2,0.1
		c0.4,0.1,0.6,0.1,1,0.2c0.2,0.1,0.5,0.1,0.7,0.1c0.5,0.1,1,0.1,1.4,0.2v8c2.8,0.5,5.3,1.7,7.2,3.5c2.8,2.5,4.6,6.2,4.6,10.3
		c0,7-5.2,12.8-11.8,13.8v1.2c0,18.7-11.2,35.3-27.6,42.3v3.6c0,4.2,2.7,8,6.5,9.5c0.7,0.2,1.4,0.5,2.1,0.6
		c18.8,2.8,35.3,6.4,46.1,19.9C209.9,212.9,207.5,233.4,207.5,247.2z"/>
</g>
<g>
	<path style="fill:#5E98D3;" d="M80.7,62h104c0,0-12,29-48.5,29.4S80.7,62,80.7,62z"/>
	<path style="fill:#5E98D3;" d="M76.2,60.4l-14-25.6C85.7,23.7,108.7,7.3,132,7.1s46.9,15.8,69.9,27.7l-13.4,24.9L76.2,60.4z"/>
	<path style="fill:#EAC347;" d="M140.8,28.2c0,0-3.4,14.4-7.9,14.4s-8.4-14.4-8.4-14.4C124.5,31.1,140.8,31.4,140.8,28.2z"/>
	<g>
		<path style="fill:#EAC347;" d="M188.6,65.3H76.9c-2.8,0-5-1.5-5-3.3s2.2-3.3,5-3.3h111.7c2.8,0,5,1.5,5,3.3S191.4,65.3,188.6,65.3
			z"/>
	</g>
</g>
<path style="fill:none;stroke:#2E4D66;stroke-width:5;stroke-linecap:round;stroke-linejoin:round;stroke-miterlimit:10;" d="
	M189.9,57.2l12-22.4c-23-11.9-46.6-27.9-69.9-27.7c-23.3,0.2-46.3,16.6-69.8,27.7l12.4,22.7C73,58.4,71.9,60,71.9,62
	c0,2.8,2.2,5,5,5h7.6c7.2,8.5,24.7,24.7,51.7,24.4c26.9-0.3,40.5-16.1,45.8-24.4h6.6c2.8,0,5-2.2,5-5
	C193.6,59.7,192,57.7,189.9,57.2z"/>
</svg>
