<?xml version="1.0" encoding="utf-8"?>
<!-- Generator: Adobe Illustrator 23.0.0, SVG Export Plug-In . SVG Version: 6.00 Build 0)  -->
<svg version="1.1" id="Layer_1" xmlns="http://www.w3.org/2000/svg" xmlns:xlink="http://www.w3.org/1999/xlink" x="0px" y="0px"
	 viewBox="0 0 256 256" style="enable-background:new 0 0 256 256;" xml:space="preserve">
<path style="fill:none;stroke:#886B31;stroke-width:5;stroke-linecap:round;stroke-linejoin:round;stroke-miterlimit:10;" d="
	M89.5,248.5c0,0,18-127,52-195"/>
<path style="fill:#FFD160;stroke:#886B31;stroke-width:5;stroke-linecap:round;stroke-linejoin:round;stroke-miterlimit:10;" d="
	M92.6,192.9c-5.3-1.9-12.2-6.6-15-17.9c-0.9-3.6,2.6-6.8,6.1-5.5c5.8,2,13.2,6.8,15.1,18.2C99.4,191.2,96,194.1,92.6,192.9z"/>
<path style="fill:#FFD160;stroke:#886B31;stroke-width:5;stroke-linecap:round;stroke-linejoin:round;stroke-miterlimit:10;" d="
	M99.7,168.9c-5.5-0.8-13.3-4-18.2-14.5c-1.6-3.4,1.2-7.2,4.9-6.6c6,0.9,14.3,4.1,18.4,14.8C106.1,165.9,103.3,169.4,99.7,168.9z"/>
<path style="fill:#FFD160;stroke:#886B31;stroke-width:5;stroke-linecap:round;stroke-linejoin:round;stroke-miterlimit:10;" d="
	M101.6,146.9c-5.3-1.9-12.2-6.5-15.1-17.8c-0.9-3.6,2.6-6.8,6.1-5.6c5.8,2,13.2,6.7,15.2,18.1C108.4,145.2,105,148.1,101.6,146.9z"
	/>
<path style="fill:#FFD160;stroke:#886B31;stroke-width:5;stroke-linecap:round;stroke-linejoin:round;stroke-miterlimit:10;" d="
	M109.1,122.3c-5.2-2.1-12-6.9-14.4-18.3c-0.8-3.7,2.8-6.7,6.3-5.4c5.7,2.2,13,7.2,14.5,18.6C116,120.8,112.5,123.6,109.1,122.3z"/>
<path style="fill:#FFD160;stroke:#886B31;stroke-width:5;stroke-linecap:round;stroke-linejoin:round;stroke-miterlimit:10;" d="
	M117.1,100.7c-5.2-2-12.1-6.7-14.7-18.1c-0.8-3.6,2.7-6.7,6.2-5.5c5.7,2.1,13.1,7,14.8,18.4C123.9,99.1,120.5,102,117.1,100.7z"/>
<path style="fill:#FFD160;stroke:#886B31;stroke-width:5;stroke-linecap:round;stroke-linejoin:round;stroke-miterlimit:10;" d="
	M125.6,79.9c-5.3-1.9-12.2-6.5-15.1-17.8c-0.9-3.6,2.6-6.8,6.1-5.6c5.8,2,13.2,6.7,15.2,18.1C132.4,78.2,129,81.1,125.6,79.9z"/>
<path style="fill:#FFD160;stroke:#886B31;stroke-width:5;stroke-linecap:round;stroke-linejoin:round;stroke-miterlimit:10;" d="
	M132,58.1c-5.2-2.1-11.9-7.1-14.3-18.5c-0.7-3.7,2.9-6.7,6.3-5.3c5.7,2.3,12.9,7.4,14.3,18.8C138.9,56.7,135.3,59.5,132,58.1z"/>
<path style="fill:#FFD160;stroke:#886B31;stroke-width:5;stroke-linecap:round;stroke-linejoin:round;stroke-miterlimit:10;" d="
	M145.8,64.5c5.3,1.9,13.6,2.6,22.9-4.4c3-2.2,2.3-6.9-1.2-8.1c-5.7-2.1-14.6-3.1-23.2,4.5C141.6,58.9,142.4,63.3,145.8,64.5z"/>
<path style="fill:#FFD160;stroke:#886B31;stroke-width:5;stroke-linecap:round;stroke-linejoin:round;stroke-miterlimit:10;" d="
	M134.2,84.1c5.2,2.2,13.4,3.5,23.1-2.8c3.1-2,2.7-6.7-0.7-8.2c-5.6-2.4-14.3-4-23.4,3C130.4,78.3,130.9,82.7,134.2,84.1z"/>
<path style="fill:#FFD160;stroke:#886B31;stroke-width:5;stroke-linecap:round;stroke-linejoin:round;stroke-miterlimit:10;" d="
	M127.5,106.6c5.3,1.8,13.6,2.4,22.8-4.7c3-2.3,2.2-6.9-1.4-8.1c-5.8-2-14.6-2.8-23.1,4.9C123.2,101.1,124.1,105.5,127.5,106.6z"/>
<path style="fill:#FFD160;stroke:#886B31;stroke-width:5;stroke-linecap:round;stroke-linejoin:round;stroke-miterlimit:10;" d="
	M119.4,127.8c5.3,1.9,13.6,2.7,22.9-4.3c3-2.2,2.3-6.9-1.2-8.2c-5.7-2.1-14.5-3.1-23.2,4.4C115.2,122.1,116,126.6,119.4,127.8z"/>
<path style="fill:#FFD160;stroke:#886B31;stroke-width:5;stroke-linecap:round;stroke-linejoin:round;stroke-miterlimit:10;" d="
	M114.5,150.7c5.3,1.8,13.6,2.5,22.9-4.6c3-2.3,2.2-6.9-1.3-8.2c-5.8-2-14.6-2.9-23.1,4.8C110.2,145.1,111.1,149.5,114.5,150.7z"/>
<path style="fill:#FFD160;stroke:#886B31;stroke-width:5;stroke-linecap:round;stroke-linejoin:round;stroke-miterlimit:10;" d="
	M107.1,171.5c5.3,2,13.6,2.9,23-3.9c3-2.2,2.4-6.9-1.1-8.2c-5.7-2.2-14.5-3.3-23.3,4.1C103,165.8,103.7,170.3,107.1,171.5z"/>
<path style="fill:#FFD160;stroke:#886B31;stroke-width:5;stroke-linecap:round;stroke-linejoin:round;stroke-miterlimit:10;" d="
	M103.9,195.2c5.4,1.5,13.7,1.8,22.6-5.8c2.8-2.4,1.9-7-1.7-8c-5.9-1.7-14.7-2.2-22.9,6C99.3,189.8,100.4,194.2,103.9,195.2z"/>
<path style="fill:#FFD160;stroke:#886B31;stroke-width:5;stroke-linecap:round;stroke-linejoin:round;stroke-miterlimit:10;" d="
	M139.3,49.5c-0.7-5.6,0.3-13.9,9.1-21.5c2.8-2.4,7.2-0.8,7.7,2.9c0.8,6.1-0.1,14.9-9.4,21.8C143.9,54.8,139.8,53.1,139.3,49.5z"/>
</svg>
