<?xml version="1.0" encoding="utf-8"?>
<!-- Generator: Adobe Illustrator 17.0.0, SVG Export Plug-In . SVG Version: 6.00 Build 0)  -->
<!DOCTYPE svg PUBLIC "-//W3C//DTD SVG 1.1//EN" "http://www.w3.org/Graphics/SVG/1.1/DTD/svg11.dtd" [
	<!ENTITY ns_flows "http://ns.adobe.com/Flows/1.0/">
	<!ENTITY ns_extend "http://ns.adobe.com/Extensibility/1.0/">
	<!ENTITY ns_ai "http://ns.adobe.com/AdobeIllustrator/10.0/">
	<!ENTITY ns_graphs "http://ns.adobe.com/Graphs/1.0/">
]>
<svg version="1.1" id="Layer_1" xmlns:x="&ns_extend;" xmlns:i="&ns_ai;" xmlns:graph="&ns_graphs;"
	 xmlns="http://www.w3.org/2000/svg" xmlns:xlink="http://www.w3.org/1999/xlink" xmlns:a="http://ns.adobe.com/AdobeSVGViewerExtensions/3.0/"
	 x="0px" y="0px" width="256px" height="256px" viewBox="0 0 256 256" style="enable-background:new 0 0 256 256;"
	 xml:space="preserve">
<g>
	<g>
		<path style="fill:none;stroke:#000000;stroke-miterlimit:10;" d="M16.4,221.9c0-1,0-2,0-3.1c0-0.7,0-1.5-0.1-2.2
			c-0.1-4.5-0.5-8.8-1.2-12.8c-0.7-4-1.6-7.6-2.8-10.7c-1.1-2.9-2.3-5.4-3.5-7.5c-1.2-2.1-2.5-3.7-3.6-5c-2.5-2.3-3.9-3.8-3.8-4.3
			c0.1-0.4,1.8,0.3,4.8,2c1.4,1.1,2.9,2.6,4.5,4.7c1.6,2.1,3.1,4.8,4.5,7.9c1.4,3.4,2.6,7.3,3.5,11.6c0.8,4.3,1.4,9,1.5,13.8
			c0,0.8,0,1.6,0,2.3c0,1.1,0,2.1,0,3.1L16.4,221.9L16.4,221.9L16.4,221.9z"/>
		<path style="fill:none;stroke:#000000;stroke-miterlimit:10;" d="M28.7,221.9c0.1-1,0.2-2,0.2-3c0.4-6,0.5-11.9,0.4-17.5
			c-0.1-6.5-0.6-12.5-1.2-17.9c-0.6-5.4-1.4-10.1-2.2-14c-0.7-3.9-1.4-7-1.8-9.2c-0.4-2.2-0.5-3.4-0.3-3.6s0.9,0.8,1.8,2.7
			c0.9,2,2,4.9,3.2,8.8c1.2,3.9,2.4,8.7,3.3,14.2c1,5.6,1.7,11.9,2,18.7c0.3,5.8,0.2,12-0.2,18.4c-0.1,0.8-0.1,1.6-0.2,2.4
			L28.7,221.9L28.7,221.9z"/>
		<path style="fill:none;stroke:#000000;stroke-miterlimit:10;" d="M39.5,221.9c1-4.3,2-8.3,3-12.1c1-4.1,2-7.9,2.7-11.4
			c0.4-2,0.8-4,1.2-5.8c0.3-1.8,0.5-3.5,0.7-5c0.2-1.5,0.3-2.9,0.4-4.1c0.1-1.2,0.1-2.2,0.1-3.1c0-0.8,0.1-1.5,0.1-2
			c0-0.5,0.1-0.7,0.2-0.7s0.3,0.2,0.4,0.6c0.2,0.4,0.3,1.1,0.5,1.9c0.2,0.9,0.3,1.9,0.4,3.2c0.1,1.3,0.1,2.7,0.1,4.4
			c0,1.6-0.1,3.5-0.3,5.4c-0.2,1.9-0.5,4-0.8,6.2c-0.6,3.7-1.4,7.7-2.3,11.9c-0.7,3.4-1.6,7-2.5,10.6L39.5,221.9L39.5,221.9z"/>
		<path style="fill:none;stroke:#000000;stroke-miterlimit:10;" d="M56.1,221.9c0-0.7,0.1-1.5,0.1-2.3c0-0.1,0-0.1,0-0.2
			c0.2-6.5,0.2-12.7,0.3-18.4c0.1-5.7,0.2-10.8,0.4-15.1c0.2-4.3,0.4-7.8,0.6-10.2s0.6-3.8,0.9-3.8s0.6,1.3,0.9,3.7
			s0.5,5.9,0.8,10.2c0.3,4.3,0.5,9.4,0.6,15.2c0.1,5.7,0.2,12,0,18.7c0,0.1,0,0.1,0,0.2c0,0.7-0.1,1.4-0.1,2.1H56.1L56.1,221.9z"/>
		<path style="fill:none;stroke:#000000;stroke-miterlimit:10;" d="M68,221.9c0.1-3.3,0.3-6.4,0.6-9.2c0.4-3.5,0.9-6.6,1.5-9.1
			c0.6-2.5,1.2-4.5,1.8-5.8c0.5-1.3,1-1.9,1.2-1.8s0.1,1,0,2.4c-0.2,1.4-0.5,3.4-0.8,5.9s-0.6,5.5-0.8,8.8c-0.2,2.7-0.3,5.7-0.3,8.8
			L68,221.9L68,221.9z"/>
		<path style="fill:none;stroke:#000000;stroke-miterlimit:10;" d="M107.7,169.1c-0.1,0-0.3,0.2-0.5,0.6c-0.3,0.5-0.6,1.2-1,2.2
			c-0.4,1-0.8,2.3-1.2,3.9c-0.4,1.6-0.8,3.4-1.1,5.4c-0.3,1.9-0.5,3.9-0.6,6.2c-0.1,2.2-0.1,4.6,0,7.1c0.2,3.7,0.6,7.6,1.2,11.7
			c0.6,4.1,1.5,8.2,2.4,12.5c0.2,0.9,0.4,1.7,0.6,2.6c0.1,0.3,0.2,0.7,0.2,1h3.9c-0.2-0.8-0.4-1.7-0.6-2.5c-0.2-0.8-0.4-1.7-0.6-2.5
			c-0.9-4.1-1.8-8.2-2.4-12.1c-0.7-3.9-1.2-7.5-1.5-11c-0.2-2.3-0.3-4.5-0.3-6.7c0-2.1,0-4,0.1-5.8c0.2-3.9,0.7-6.9,1.1-9.1
			c0.2-1.1,0.3-1.9,0.4-2.5C107.8,169.5,107.8,169.2,107.7,169.1C107.8,169.2,107.7,169.1,107.7,169.1L107.7,169.1L107.7,169.1z"/>
		<path style="fill:none;stroke:#000000;stroke-miterlimit:10;" d="M88.5,169.5c0,0-0.1,0-0.1,0.1c0,0.1-0.1,0.3-0.1,0.4
			c0,0.2,0,0.5,0,0.8c0.1,0.6,0.2,1.4,0.4,2.4c0.4,1.9,1,4.5,1.8,7.8c1.5,6.4,3.6,15.1,5.2,25.4c0.8,5,1.4,10.4,1.9,16h4.6
			c-0.5-6.1-1.3-12-2.3-17.3c-1-5.3-2.1-10.1-3.3-14.4c-1.2-4.3-2.4-8-3.5-11c-1.1-3.1-2.1-5.5-2.9-7.2c-0.4-0.9-0.7-1.5-1-2
			c-0.1-0.2-0.2-0.4-0.3-0.5c-0.1-0.1-0.1-0.1-0.2-0.2C88.6,169.6,88.6,169.5,88.5,169.5L88.5,169.5z"/>
		<path style="fill:none;stroke:#000000;stroke-miterlimit:10;" d="M80.2,179.8c-0.2,0.1-0.1,1.4,0.1,3.8c0.3,2.3,0.8,5.6,1.5,9.7
			s1.3,9,1.9,14.4c0.5,4.5,0.8,9.5,0.8,14.6h3.7c-0.1-5.5-0.5-10.7-1.2-15.4c-0.7-5.6-1.8-10.5-2.7-14.6c-1-4.1-1.9-7.2-2.6-9.4
			C81,180.8,80.5,179.6,80.2,179.8L80.2,179.8z"/>
		<path style="fill:none;stroke:#000000;stroke-miterlimit:10;" d="M118.2,180.8c-0.3,0-0.5,1.1-0.8,3c-0.3,1.9-0.5,4.6-0.7,8.1
			c-0.2,3.4-0.5,7.5-0.7,12c-0.2,4.5-0.3,9.5-0.2,14.8c0,0.2,0,0.3,0,0.5c0,0.9,0,1.8,0.1,2.7h4.1c0-1-0.1-1.9-0.1-2.9
			c0-0.2,0-0.3,0-0.5c-0.1-5.2-0.1-10.1-0.1-14.6s-0.1-8.6-0.2-12c-0.1-3.4-0.3-6.2-0.5-8.1C118.8,181.9,118.5,180.8,118.2,180.8
			L118.2,180.8z"/>
		<path style="fill:none;stroke:#000000;stroke-miterlimit:10;" d="M122,185.1c-0.3,0.1-0.2,1.3-0.1,3.3c0.2,2,0.5,4.8,0.8,8.3
			c0.3,3.5,0.7,7.7,1,12.3c0.2,4.1,0.4,8.6,0.5,13.3h3.8c-0.1-4.9-0.5-9.6-0.9-13.8c-0.5-4.8-1.1-9-1.8-12.5c-0.7-3.5-1.4-6.3-2-8.1
			C122.7,185.9,122.2,185,122,185.1L122,185.1z"/>
	</g>
	<g>
		<path style="fill:none;stroke:#000000;stroke-miterlimit:10;" d="M16.4,221.9c0-1,0-2,0-3.1c0-0.7,0-1.5-0.1-2.2
			c-0.1-4.5-0.5-8.8-1.2-12.8c-0.7-4-1.6-7.6-2.8-10.7c-1.1-2.9-2.3-5.4-3.5-7.5c-1.2-2.1-2.5-3.7-3.6-5c-2.5-2.3-3.9-3.8-3.8-4.3
			c0.1-0.4,1.8,0.3,4.8,2c1.4,1.1,2.9,2.6,4.5,4.7c1.6,2.1,3.1,4.8,4.5,7.9c1.4,3.4,2.6,7.3,3.5,11.6c0.8,4.3,1.4,9,1.5,13.8
			c0,0.8,0,1.6,0,2.3c0,1.1,0,2.1,0,3.1L16.4,221.9L16.4,221.9L16.4,221.9z"/>
		<path style="fill:none;stroke:#000000;stroke-miterlimit:10;" d="M28.7,221.9c0.1-1,0.2-2,0.2-3c0.4-6,0.5-11.9,0.4-17.5
			c-0.1-6.5-0.6-12.5-1.2-17.9c-0.6-5.4-1.4-10.1-2.2-14c-0.7-3.9-1.4-7-1.8-9.2c-0.4-2.2-0.5-3.4-0.3-3.6s0.9,0.8,1.8,2.7
			c0.9,2,2,4.9,3.2,8.8c1.2,3.9,2.4,8.7,3.3,14.2c1,5.6,1.7,11.9,2,18.7c0.3,5.8,0.2,12-0.2,18.4c-0.1,0.8-0.1,1.6-0.2,2.4
			L28.7,221.9L28.7,221.9z"/>
		<path style="fill:none;stroke:#000000;stroke-miterlimit:10;" d="M39.5,221.9c1-4.3,2-8.3,3-12.1c1-4.1,2-7.9,2.7-11.4
			c0.4-2,0.8-4,1.2-5.8c0.3-1.8,0.5-3.5,0.7-5c0.2-1.5,0.3-2.9,0.4-4.1c0.1-1.2,0.1-2.2,0.1-3.1c0-0.8,0.1-1.5,0.1-2
			c0-0.5,0.1-0.7,0.2-0.7s0.3,0.2,0.4,0.6c0.2,0.4,0.3,1.1,0.5,1.9c0.2,0.9,0.3,1.9,0.4,3.2c0.1,1.3,0.1,2.7,0.1,4.4
			c0,1.6-0.1,3.5-0.3,5.4c-0.2,1.9-0.5,4-0.8,6.2c-0.6,3.7-1.4,7.7-2.3,11.9c-0.7,3.4-1.6,7-2.5,10.6L39.5,221.9L39.5,221.9z"/>
		<path style="fill:none;stroke:#000000;stroke-miterlimit:10;" d="M56.1,221.9c0-0.7,0.1-1.5,0.1-2.3c0-0.1,0-0.1,0-0.2
			c0.2-6.5,0.2-12.7,0.3-18.4c0.1-5.7,0.2-10.8,0.4-15.1c0.2-4.3,0.4-7.8,0.6-10.2s0.6-3.8,0.9-3.8s0.6,1.3,0.9,3.7
			s0.5,5.9,0.8,10.2c0.3,4.3,0.5,9.4,0.6,15.2c0.1,5.7,0.2,12,0,18.7c0,0.1,0,0.1,0,0.2c0,0.7-0.1,1.4-0.1,2.1H56.1L56.1,221.9z"/>
		<path style="fill:none;stroke:#000000;stroke-miterlimit:10;" d="M68,221.9c0.1-3.3,0.3-6.4,0.6-9.2c0.4-3.5,0.9-6.6,1.5-9.1
			c0.6-2.5,1.2-4.5,1.8-5.8c0.5-1.3,1-1.9,1.2-1.8s0.1,1,0,2.4c-0.2,1.4-0.5,3.4-0.8,5.9s-0.6,5.5-0.8,8.8c-0.2,2.7-0.3,5.7-0.3,8.8
			L68,221.9L68,221.9z"/>
		<path style="fill:none;stroke:#000000;stroke-miterlimit:10;" d="M107.7,169.1c-0.1,0-0.3,0.2-0.5,0.6c-0.3,0.5-0.6,1.2-1,2.2
			c-0.4,1-0.8,2.3-1.2,3.9c-0.4,1.6-0.8,3.4-1.1,5.4c-0.3,1.9-0.5,3.9-0.6,6.2c-0.1,2.2-0.1,4.6,0,7.1c0.2,3.7,0.6,7.6,1.2,11.7
			c0.6,4.1,1.5,8.2,2.4,12.5c0.2,0.9,0.4,1.7,0.6,2.6c0.1,0.3,0.2,0.7,0.2,1h3.9c-0.2-0.8-0.4-1.7-0.6-2.5c-0.2-0.8-0.4-1.7-0.6-2.5
			c-0.9-4.1-1.8-8.2-2.4-12.1c-0.7-3.9-1.2-7.5-1.5-11c-0.2-2.3-0.3-4.5-0.3-6.7c0-2.1,0-4,0.1-5.8c0.2-3.9,0.7-6.9,1.1-9.1
			c0.2-1.1,0.3-1.9,0.4-2.5C107.8,169.5,107.8,169.2,107.7,169.1C107.8,169.2,107.7,169.1,107.7,169.1L107.7,169.1L107.7,169.1z"/>
		<path style="fill:none;stroke:#000000;stroke-miterlimit:10;" d="M88.5,169.5c0,0-0.1,0-0.1,0.1c0,0.1-0.1,0.3-0.1,0.4
			c0,0.2,0,0.5,0,0.8c0.1,0.6,0.2,1.4,0.4,2.4c0.4,1.9,1,4.5,1.8,7.8c1.5,6.4,3.6,15.1,5.2,25.4c0.8,5,1.4,10.4,1.9,16h4.6
			c-0.5-6.1-1.3-12-2.3-17.3c-1-5.3-2.1-10.1-3.3-14.4c-1.2-4.3-2.4-8-3.5-11c-1.1-3.1-2.1-5.5-2.9-7.2c-0.4-0.9-0.7-1.5-1-2
			c-0.1-0.2-0.2-0.4-0.3-0.5c-0.1-0.1-0.1-0.1-0.2-0.2C88.6,169.6,88.6,169.5,88.5,169.5L88.5,169.5z"/>
		<path style="fill:none;stroke:#000000;stroke-miterlimit:10;" d="M80.2,179.8c-0.2,0.1-0.1,1.4,0.1,3.8c0.3,2.3,0.8,5.6,1.5,9.7
			s1.3,9,1.9,14.4c0.5,4.5,0.8,9.5,0.8,14.6h3.7c-0.1-5.5-0.5-10.7-1.2-15.4c-0.7-5.6-1.8-10.5-2.7-14.6c-1-4.1-1.9-7.2-2.6-9.4
			C81,180.8,80.5,179.6,80.2,179.8L80.2,179.8z"/>
		<path style="fill:none;stroke:#000000;stroke-miterlimit:10;" d="M118.2,180.8c-0.3,0-0.5,1.1-0.8,3c-0.3,1.9-0.5,4.6-0.7,8.1
			c-0.2,3.4-0.5,7.5-0.7,12c-0.2,4.5-0.3,9.5-0.2,14.8c0,0.2,0,0.3,0,0.5c0,0.9,0,1.8,0.1,2.7h4.1c0-1-0.1-1.9-0.1-2.9
			c0-0.2,0-0.3,0-0.5c-0.1-5.2-0.1-10.1-0.1-14.6s-0.1-8.6-0.2-12c-0.1-3.4-0.3-6.2-0.5-8.1C118.8,181.9,118.5,180.8,118.2,180.8
			L118.2,180.8z"/>
		<path style="fill:none;stroke:#000000;stroke-miterlimit:10;" d="M122,185.1c-0.3,0.1-0.2,1.3-0.1,3.3c0.2,2,0.5,4.8,0.8,8.3
			c0.3,3.5,0.7,7.7,1,12.3c0.2,4.1,0.4,8.6,0.5,13.3h3.8c-0.1-4.9-0.5-9.6-0.9-13.8c-0.5-4.8-1.1-9-1.8-12.5c-0.7-3.5-1.4-6.3-2-8.1
			C122.7,185.9,122.2,185,122,185.1L122,185.1z"/>
		<path style="fill:none;stroke:#000000;stroke-miterlimit:10;" d="M19.4,216.7c0-1,0-2.1,0-3.1c0-0.7,0-1.5-0.1-2.2
			c-0.1-4.6-0.5-9.1-1.2-13.2c-0.7-4.1-1.7-7.8-2.9-11c-1.1-3-2.3-5.6-3.6-7.7c-1.3-2.1-2.5-3.8-3.7-5.1c-2.6-2.3-4-3.9-3.9-4.4
			c0.1-0.4,1.9,0.3,4.9,2.1c1.4,1.1,3,2.7,4.6,4.8c1.6,2.2,3.2,4.9,4.6,8.1c1.5,3.5,2.7,7.5,3.5,11.9c0.9,4.4,1.4,9.2,1.5,14.2
			c0,0.8,0,1.6,0,2.4c0,1.1,0,2.2,0,3.2L19.4,216.7L19.4,216.7L19.4,216.7z"/>
		<path style="fill:none;stroke:#000000;stroke-miterlimit:10;" d="M32.1,216.7c0.1-1,0.2-2.1,0.2-3.1c0.4-6.2,0.5-12.2,0.4-17.9
			c-0.1-6.7-0.6-12.9-1.3-18.4c-0.6-5.5-1.5-10.4-2.2-14.4c-0.7-4-1.4-7.2-1.8-9.5c-0.4-2.2-0.6-3.5-0.3-3.7
			c0.3-0.2,0.9,0.8,1.8,2.8c0.9,2,2.1,5,3.3,9c1.2,4,2.4,8.9,3.4,14.6c1,5.7,1.8,12.2,2.1,19.2c0.3,6,0.2,12.4-0.2,18.9
			c-0.1,0.8-0.1,1.6-0.2,2.5H32.1L32.1,216.7z"/>
		<path style="fill:none;stroke:#000000;stroke-miterlimit:10;" d="M43.2,216.7c1-4.4,2.1-8.6,3.1-12.4c1.1-4.2,2-8.1,2.8-11.7
			c0.5-2.1,0.9-4.1,1.2-5.9c0.3-1.8,0.6-3.6,0.7-5.1c0.2-1.6,0.3-3,0.4-4.2c0.1-1.2,0.1-2.3,0.1-3.1c0-0.9,0.1-1.6,0.1-2
			c0-0.5,0.1-0.7,0.2-0.8c0.1,0,0.3,0.2,0.4,0.6c0.2,0.4,0.3,1.1,0.5,2c0.2,0.9,0.3,2,0.4,3.3c0.1,1.3,0.1,2.8,0.1,4.5
			c0,1.7-0.1,3.5-0.3,5.5c-0.2,2-0.5,4.1-0.8,6.3c-0.6,3.8-1.4,7.9-2.4,12.2c-0.8,3.5-1.7,7.1-2.5,10.9H43.2L43.2,216.7z"/>
		<path style="fill:none;stroke:#000000;stroke-miterlimit:10;" d="M60.2,216.7c0-0.8,0.1-1.6,0.1-2.4c0-0.1,0-0.2,0-0.2
			c0.2-6.7,0.2-13.1,0.3-18.9c0.1-5.8,0.2-11.1,0.4-15.6s0.4-8,0.7-10.5c0.3-2.5,0.6-3.9,0.9-3.9s0.6,1.4,0.9,3.8
			c0.3,2.5,0.6,6,0.8,10.5c0.3,4.4,0.5,9.7,0.6,15.6s0.2,12.4,0,19.2c0,0.1,0,0.2,0,0.2c0,0.7-0.1,1.4-0.1,2.1L60.2,216.7
			L60.2,216.7L60.2,216.7z"/>
		<path style="fill:none;stroke:#000000;stroke-miterlimit:10;" d="M72.4,216.7c0.1-3.3,0.3-6.6,0.6-9.5c0.4-3.6,1-6.7,1.6-9.3
			s1.3-4.6,1.8-5.9s1-2,1.2-1.9c0.2,0.1,0.2,1,0,2.4c-0.2,1.5-0.5,3.5-0.8,6.1c-0.3,2.6-0.6,5.6-0.8,9.1c-0.2,2.8-0.3,5.8-0.3,9
			H72.4L72.4,216.7z"/>
		<path style="fill:none;stroke:#000000;stroke-miterlimit:10;" d="M113.2,162.5c-0.1,0-0.3,0.2-0.6,0.6c-0.3,0.5-0.7,1.3-1.1,2.3
			s-0.8,2.4-1.3,3.9s-0.8,3.5-1.1,5.6c-0.3,1.9-0.5,4.1-0.6,6.4c-0.1,2.3-0.1,4.8,0,7.3c0.2,3.8,0.6,7.8,1.2,12s1.5,8.5,2.5,12.8
			c0.2,0.9,0.4,1.8,0.6,2.6c0.1,0.3,0.2,0.7,0.2,1h4.1c-0.2-0.9-0.4-1.7-0.6-2.6c-0.2-0.9-0.4-1.7-0.6-2.6c-1-4.3-1.8-8.4-2.5-12.4
			c-0.7-3.9-1.2-7.7-1.5-11.3c-0.2-2.4-0.3-4.7-0.4-6.8c0-2.1,0-4.1,0.1-5.9c0.2-4,0.7-7.1,1.1-9.3c0.2-1.1,0.3-2,0.4-2.6
			C113.4,163,113.4,162.7,113.2,162.5C113.3,162.5,113.3,162.5,113.2,162.5L113.2,162.5L113.2,162.5z"/>
		<path style="fill:none;stroke:#000000;stroke-miterlimit:10;" d="M93.6,162.9c-0.1,0-0.1,0-0.1,0.1c0,0.1-0.1,0.3-0.1,0.4
			c0,0.2,0,0.5,0,0.8c0.1,0.6,0.2,1.4,0.4,2.4c0.4,2,1,4.7,1.8,8c1.6,6.5,3.7,15.5,5.3,26c0.8,5.1,1.5,10.7,1.9,16.4h4.7
			c-0.5-6.3-1.4-12.3-2.4-17.8c-1-5.4-2.2-10.4-3.4-14.8c-1.2-4.4-2.4-8.2-3.6-11.3c-1.2-3.2-2.2-5.7-3-7.4c-0.4-0.9-0.7-1.6-1-2
			c-0.1-0.3-0.2-0.4-0.3-0.5c-0.1-0.1-0.1-0.1-0.2-0.2C93.6,163,93.6,162.9,93.6,162.9L93.6,162.9z"/>
		<path style="fill:none;stroke:#000000;stroke-miterlimit:10;" d="M85,173.5c-0.3,0.1-0.2,1.5,0.1,3.9s0.9,5.8,1.5,10
			c0.6,4.2,1.4,9.2,1.9,14.8c0.5,4.7,0.8,9.7,0.9,15h3.9c-0.1-5.6-0.6-11-1.2-15.8c-0.8-5.7-1.8-10.8-2.8-15s-2-7.4-2.7-9.6
			C85.8,174.5,85.2,173.3,85,173.5L85,173.5z"/>
		<path style="fill:none;stroke:#000000;stroke-miterlimit:10;" d="M124,174.5c-0.3,0-0.5,1.1-0.8,3.1c-0.3,2-0.5,4.8-0.8,8.3
			c-0.3,3.5-0.5,7.7-0.7,12.3c-0.2,4.7-0.3,9.8-0.3,15.2c0,0.2,0,0.3,0,0.5c0,0.9,0,1.9,0.1,2.8h4.2c0-1-0.1-1.9-0.1-2.9
			c0-0.2,0-0.3,0-0.5c-0.1-5.3-0.1-10.4-0.1-15c0-4.6-0.1-8.8-0.2-12.4c-0.1-3.5-0.3-6.4-0.5-8.4C124.6,175.6,124.3,174.5,124,174.5
			L124,174.5z"/>
		<path style="fill:none;stroke:#000000;stroke-miterlimit:10;" d="M127.9,178.9c-0.3,0.1-0.2,1.3-0.1,3.3c0.2,2,0.5,5,0.9,8.6
			c0.3,3.6,0.7,7.9,1,12.7c0.3,4.2,0.4,8.8,0.6,13.6h3.9c-0.2-5-0.5-9.8-0.9-14.2c-0.5-4.9-1.2-9.2-1.8-12.9
			c-0.7-3.6-1.5-6.5-2.1-8.4C128.6,179.8,128.1,178.8,127.9,178.9L127.9,178.9z"/>
		<path style="fill:none;stroke:#000000;stroke-miterlimit:10;" d="M27,218.3c0-0.9,0-1.8,0-2.7c0-0.6,0-1.3-0.1-2
			c-0.1-4-0.5-7.8-1.1-11.3c-0.6-3.5-1.4-6.7-2.4-9.5c-0.9-2.6-2-4.8-3.1-6.7c-1.1-1.8-2.2-3.3-3.2-4.4c-2.2-2-3.5-3.4-3.3-3.8
			c0.1-0.4,1.6,0.3,4.2,1.8c1.2,1,2.6,2.3,3.9,4.2c1.4,1.8,2.8,4.2,3.9,7c1.3,3,2.3,6.5,3.1,10.3c0.7,3.8,1.2,7.9,1.3,12.2
			c0,0.7,0,1.4,0,2.1c0,1,0,1.8,0,2.8L27,218.3L27,218.3L27,218.3z"/>
		<path style="fill:none;stroke:#000000;stroke-miterlimit:10;" d="M38,218.3c0.1-0.9,0.1-1.8,0.2-2.7c0.3-5.4,0.5-10.6,0.4-15.5
			c-0.1-5.7-0.5-11.1-1.1-15.9s-1.3-9-1.9-12.4c-0.6-3.5-1.2-6.2-1.6-8.1c-0.4-1.9-0.5-3-0.3-3.2c0.2-0.1,0.8,0.7,1.6,2.4
			c0.8,1.7,1.8,4.3,2.9,7.8s2.1,7.7,2.9,12.6s1.5,10.5,1.8,16.6c0.2,5.2,0.2,10.7-0.2,16.3c-0.1,0.7-0.1,1.4-0.1,2.1H38L38,218.3z"
			/>
		<path style="fill:none;stroke:#000000;stroke-miterlimit:10;" d="M47.5,218.3c0.9-3.8,1.8-7.4,2.7-10.7c0.9-3.6,1.8-7,2.4-10.1
			c0.4-1.8,0.7-3.5,1-5.1c0.3-1.6,0.5-3.1,0.7-4.4c0.1-1.3,0.3-2.5,0.3-3.6c0.1-1.1,0.1-2,0.1-2.7c0-0.7,0-1.3,0.1-1.8
			c0-0.4,0.1-0.6,0.2-0.7c0.1,0,0.2,0.1,0.4,0.5c0.1,0.4,0.3,1,0.5,1.7c0.1,0.8,0.3,1.7,0.4,2.9c0.1,1.1,0.1,2.4,0.1,3.9
			c0,1.5-0.1,3.1-0.3,4.8c-0.2,1.7-0.4,3.5-0.7,5.5c-0.5,3.3-1.2,6.8-2.1,10.5c-0.7,3-1.4,6.2-2.2,9.4L47.5,218.3L47.5,218.3z"/>
		<path style="fill:none;stroke:#000000;stroke-miterlimit:10;" d="M62.2,218.3c0-0.7,0.1-1.4,0.1-2c0-0.1,0-0.1,0-0.2
			c0.1-5.8,0.2-11.3,0.3-16.3c0.1-5,0.2-9.6,0.3-13.4c0.1-3.8,0.3-6.9,0.6-9.1c0.2-2.1,0.5-3.3,0.8-3.3c0.3,0,0.5,1.2,0.8,3.3
			c0.3,2.1,0.5,5.2,0.7,9c0.2,3.8,0.4,8.4,0.5,13.4c0.1,5.1,0.2,10.7,0,16.5c0,0.1,0,0.1,0,0.2c0,0.6-0.1,1.2-0.1,1.8L62.2,218.3
			L62.2,218.3z"/>
		<path style="fill:none;stroke:#000000;stroke-miterlimit:10;" d="M72.7,218.3c0.1-2.9,0.3-5.6,0.5-8.2c0.3-3.1,0.8-5.8,1.3-8
			c0.5-2.2,1.1-4,1.6-5.1c0.5-1.2,0.8-1.7,1-1.6c0.2,0.1,0.1,0.8,0,2.1c-0.1,1.3-0.4,3-0.7,5.2c-0.3,2.2-0.5,4.8-0.7,7.8
			c-0.1,2.4-0.2,5-0.3,7.8L72.7,218.3L72.7,218.3z"/>
		<path style="fill:none;stroke:#000000;stroke-miterlimit:10;" d="M107.9,171.6c-0.1,0-0.3,0.2-0.5,0.5c-0.3,0.4-0.6,1.1-0.9,2
			c-0.3,0.9-0.7,2-1.1,3.4c-0.4,1.4-0.7,3-1,4.8c-0.2,1.7-0.4,3.5-0.5,5.5c-0.1,2-0.1,4.1,0,6.3c0.1,3.3,0.5,6.7,1,10.3
			c0.5,3.6,1.3,7.3,2.1,11c0.2,0.8,0.3,1.5,0.5,2.2c0.1,0.3,0.1,0.6,0.2,0.9h3.5c-0.2-0.7-0.3-1.5-0.5-2.2c-0.2-0.7-0.3-1.5-0.5-2.2
			c-0.8-3.7-1.6-7.3-2.2-10.7c-0.6-3.4-1-6.7-1.3-9.7c-0.2-2.1-0.3-4-0.3-5.9c0-1.8,0-3.5,0.1-5.1c0.2-3.4,0.7-6.2,1-8.1
			c0.2-1,0.3-1.7,0.3-2.2C108.1,172,108.1,171.7,107.9,171.6C107.9,171.6,107.9,171.6,107.9,171.6L107.9,171.6L107.9,171.6z"/>
		<path style="fill:none;stroke:#000000;stroke-miterlimit:10;" d="M90.9,172c0,0-0.1,0-0.1,0.1c0,0.1-0.1,0.2-0.1,0.3
			c0,0.2,0,0.4,0,0.7c0,0.5,0.1,1.2,0.3,2.1c0.3,1.7,0.9,4,1.6,6.9c1.4,5.6,3.2,13.3,4.6,22.5c0.7,4.4,1.3,9.2,1.7,14.2h4.1
			c-0.4-5.4-1.2-10.6-2-15.3c-0.9-4.7-1.9-9-2.9-12.8c-1-3.8-2.1-7.1-3.1-9.8c-1-2.7-1.9-4.9-2.6-6.4c-0.3-0.7-0.6-1.3-0.9-1.8
			c-0.1-0.2-0.2-0.4-0.3-0.5c-0.1-0.1-0.1-0.1-0.1-0.1C91,172,91,172,90.9,172L90.9,172z"/>
		<path style="fill:none;stroke:#000000;stroke-miterlimit:10;" d="M83.6,181c-0.2,0.1-0.1,1.3,0.1,3.3c0.3,2.1,0.7,5,1.3,8.6
			s1.2,7.9,1.7,12.7c0.4,4,0.7,8.4,0.7,13h3.3c-0.1-4.9-0.5-9.4-1.1-13.6c-0.7-5-1.6-9.3-2.4-12.9c-0.9-3.6-1.7-6.4-2.4-8.3
			C84.3,181.9,83.8,180.9,83.6,181L83.6,181z"/>
		<path style="fill:none;stroke:#000000;stroke-miterlimit:10;" d="M117.2,182c-0.3,0-0.5,1-0.7,2.6s-0.5,4.1-0.7,7.1
			c-0.2,3-0.4,6.6-0.6,10.6c-0.2,4-0.3,8.4-0.2,13.1c0,0.1,0,0.3,0,0.5c0,0.8,0,1.6,0.1,2.4h3.6c0-0.8,0-1.7-0.1-2.5
			c0-0.1,0-0.3,0-0.4c-0.1-4.5-0.1-8.9-0.1-12.9c0-4-0.1-7.6-0.1-10.6c-0.1-3.1-0.3-5.5-0.5-7.2C117.7,182.9,117.5,182,117.2,182
			L117.2,182z"/>
		<path style="fill:none;stroke:#000000;stroke-miterlimit:10;" d="M120.5,185.7c-0.2,0.1-0.2,1.1-0.1,2.9s0.4,4.3,0.7,7.4
			c0.3,3.1,0.6,6.8,0.8,10.9c0.2,3.6,0.4,7.6,0.5,11.8h3.4c-0.1-4.3-0.4-8.5-0.8-12.2c-0.4-4.2-1-8-1.6-11.1
			c-0.6-3.1-1.3-5.6-1.8-7.2C121.1,186.5,120.7,185.6,120.5,185.7L120.5,185.7z"/>
		<path style="fill:none;stroke:#000000;stroke-miterlimit:10;" d="M81.3,218.3c-0.1-0.9-0.1-1.8-0.2-2.7
			c-0.3-5.4-0.5-10.6-0.4-15.5c0.1-5.7,0.5-11.1,1.1-15.9s1.3-9,1.9-12.4c0.6-3.5,1.2-6.2,1.6-8.1c0.4-1.9,0.5-3,0.3-3.2
			c-0.2-0.1-0.8,0.7-1.6,2.4c-0.8,1.7-1.8,4.3-2.9,7.8s-2.1,7.7-2.9,12.6s-1.5,10.5-1.8,16.6c-0.2,5.2-0.2,10.7,0.2,16.3
			c0.1,0.7,0.1,1.4,0.1,2.1H81.3L81.3,218.3z"/>
		<path style="fill:none;stroke:#000000;stroke-miterlimit:10;" d="M67.8,171.6c0.1,0,0.3,0.2,0.5,0.5c0.3,0.4,0.6,1.1,0.9,2
			c0.3,0.9,0.7,2,1.1,3.4c0.4,1.4,0.7,3,1,4.8c0.2,1.7,0.4,3.5,0.5,5.5c0.1,2,0.1,4.1,0,6.3c-0.1,3.3-0.5,6.7-1,10.3
			s-1.3,7.3-2.1,11c-0.2,0.8-0.3,1.5-0.5,2.2c-0.1,0.3-0.1,0.6-0.2,0.9h-3.5c0.2-0.7,0.3-1.5,0.5-2.2c0.2-0.7,0.3-1.5,0.5-2.2
			c0.8-3.7,1.6-7.3,2.2-10.7c0.6-3.4,1-6.7,1.3-9.7c0.2-2.1,0.3-4,0.3-5.9c0-1.8,0-3.5-0.1-5.1c-0.2-3.4-0.7-6.2-1-8.1
			c-0.2-1-0.3-1.7-0.3-2.2C67.6,172,67.6,171.7,67.8,171.6C67.8,171.6,67.8,171.6,67.8,171.6L67.8,171.6L67.8,171.6z"/>
		<path style="fill:none;stroke:#000000;stroke-miterlimit:10;" d="M117,174.5c0,0,0.1,0,0.1,0.1c0,0.1,0.1,0.2,0.1,0.3
			c0,0.2,0,0.4,0,0.7c0,0.5-0.1,1.2-0.3,2.1c-0.3,1.7-0.9,4-1.6,6.9c-1.4,5.6-3.2,13.3-4.6,22.5c-0.7,4.4-1.3,9.2-1.7,14.2H105
			c0.4-5.4,1.2-10.6,2-15.3c0.9-4.7,1.9-9,2.9-12.8c1-3.8,2.1-7.1,3.1-9.8c1-2.7,1.9-4.9,2.6-6.4c0.3-0.7,0.6-1.3,0.9-1.8
			c0.1-0.2,0.2-0.4,0.3-0.5c0.1-0.1,0.1-0.1,0.1-0.1C116.9,174.6,117,174.5,117,174.5L117,174.5z"/>
		<path style="fill:none;stroke:#000000;stroke-miterlimit:10;" d="M134.2,181c0.2,0.1,0.1,1.3-0.1,3.3c-0.3,2.1-0.7,5-1.3,8.6
			s-1.2,7.9-1.7,12.7c-0.4,4-0.7,8.4-0.7,13h-3.3c0.1-4.9,0.5-9.4,1.1-13.6c0.7-5,1.6-9.3,2.4-12.9c0.8-3.6,1.7-6.4,2.4-8.3
			C133.6,181.9,134,180.9,134.2,181L134.2,181z"/>
		<path style="fill:none;stroke:#000000;stroke-miterlimit:10;" d="M50.6,180.4c0.3,0,0.5,1,0.7,2.6c0.2,1.7,0.5,4.1,0.7,7.1
			c0.2,3,0.4,6.6,0.6,10.6c0.2,4,0.3,8.4,0.2,13.1c0,0.1,0,0.3,0,0.5c0,0.8,0,1.6-0.1,2.4h-3.6c0-0.8,0-1.7,0.1-2.5
			c0-0.1,0-0.3,0-0.4c0.1-4.5,0.1-8.9,0.1-12.9s0.1-7.6,0.1-10.6c0.1-3.1,0.3-5.5,0.5-7.2C50.1,181.3,50.3,180.4,50.6,180.4
			L50.6,180.4z"/>
		<path style="fill:none;stroke:#000000;stroke-miterlimit:10;" d="M75.3,183.6c0.2,0.1,0.2,1.1,0.1,2.9c-0.1,1.8-0.4,4.3-0.7,7.4
			c-0.3,3.1-0.6,6.8-0.8,10.9c-0.2,3.6-0.4,7.6-0.5,11.8h-3.4c0.1-4.3,0.4-8.5,0.8-12.2c0.4-4.2,1-8,1.6-11.1
			c0.6-3.1,1.3-5.6,1.8-7.2C74.7,184.4,75.1,183.6,75.3,183.6L75.3,183.6z"/>
		<path style="fill:none;stroke:#000000;stroke-miterlimit:10;" d="M130.1,221.9c0-1,0-2,0-3.1c0-0.7,0-1.5-0.1-2.2
			c-0.1-4.5-0.5-8.8-1.2-12.8c-0.7-4-1.6-7.6-2.8-10.7c-1.1-2.9-2.3-5.4-3.5-7.5c-1.2-2.1-2.5-3.7-3.6-5c-2.5-2.3-3.9-3.8-3.8-4.3
			c0.1-0.4,1.8,0.3,4.8,2c1.4,1.1,2.9,2.6,4.5,4.7c1.6,2.1,3.1,4.8,4.5,7.9c1.4,3.4,2.6,7.3,3.5,11.6c0.8,4.3,1.4,9,1.5,13.8
			c0,0.8,0,1.6,0,2.3c0,1.1,0,2.1,0,3.1L130.1,221.9L130.1,221.9L130.1,221.9z"/>
		<path style="fill:none;stroke:#000000;stroke-miterlimit:10;" d="M142.4,221.9c0.1-1,0.2-2,0.2-3c0.4-6,0.5-11.9,0.4-17.5
			c-0.1-6.5-0.6-12.5-1.2-17.9c-0.6-5.4-1.4-10.1-2.2-14c-0.7-3.9-1.4-7-1.8-9.2c-0.4-2.2-0.5-3.4-0.3-3.6c0.3-0.2,0.9,0.8,1.8,2.7
			c0.9,2,2,4.9,3.2,8.8c1.2,3.9,2.4,8.7,3.3,14.2c1,5.6,1.7,11.9,2,18.7c0.3,5.8,0.2,12-0.2,18.4c-0.1,0.8-0.1,1.6-0.2,2.4
			L142.4,221.9L142.4,221.9z"/>
		<path style="fill:none;stroke:#000000;stroke-miterlimit:10;" d="M153.2,221.9c1-4.3,2-8.3,3-12.1c1-4.1,2-7.9,2.7-11.4
			c0.4-2,0.8-4,1.2-5.8c0.3-1.8,0.5-3.5,0.7-5c0.2-1.5,0.3-2.9,0.4-4.1c0.1-1.2,0.1-2.2,0.1-3.1c0-0.8,0.1-1.5,0.1-2
			c0-0.5,0.1-0.7,0.2-0.7c0.1,0,0.3,0.2,0.4,0.6c0.2,0.4,0.3,1.1,0.5,1.9c0.2,0.9,0.3,1.9,0.4,3.2c0.1,1.3,0.1,2.7,0.1,4.4
			c0,1.6-0.1,3.5-0.3,5.4c-0.2,1.9-0.5,4-0.8,6.2c-0.6,3.7-1.4,7.7-2.3,11.9c-0.7,3.4-1.6,7-2.5,10.6L153.2,221.9L153.2,221.9z"/>
		<path style="fill:none;stroke:#000000;stroke-miterlimit:10;" d="M208.9,221.9c0-0.7-0.1-1.5-0.1-2.3c0-0.1,0-0.1,0-0.2
			c-0.2-6.5-0.2-12.7-0.3-18.4c-0.1-5.7-0.2-10.8-0.4-15.1c-0.2-4.3-0.4-7.8-0.6-10.2s-0.6-3.8-0.9-3.8c-0.3,0-0.6,1.3-0.9,3.7
			c-0.3,2.4-0.5,5.9-0.8,10.2c-0.3,4.3-0.5,9.4-0.6,15.2c-0.1,5.7-0.2,12,0,18.7c0,0.1,0,0.1,0,0.2c0,0.7,0.1,1.4,0.1,2.1H208.9
			L208.9,221.9z"/>
		<path style="fill:none;stroke:#000000;stroke-miterlimit:10;" d="M197,221.9c-0.1-3.3-0.3-6.4-0.6-9.2c-0.4-3.5-0.9-6.6-1.5-9.1
			c-0.6-2.5-1.2-4.5-1.8-5.8c-0.5-1.3-1-1.9-1.2-1.8c-0.2,0.1-0.1,1,0,2.4c0.2,1.4,0.5,3.4,0.8,5.9s0.6,5.5,0.8,8.8
			c0.2,2.7,0.3,5.7,0.3,8.8L197,221.9L197,221.9z"/>
		<path style="fill:none;stroke:#000000;stroke-miterlimit:10;" d="M221.4,169.1c-0.1,0-0.3,0.2-0.5,0.6c-0.3,0.5-0.6,1.2-1,2.2
			c-0.4,1-0.8,2.3-1.2,3.9c-0.4,1.6-0.8,3.4-1.1,5.4c-0.3,1.9-0.5,3.9-0.6,6.2c-0.1,2.2-0.1,4.6,0,7.1c0.2,3.7,0.6,7.6,1.2,11.7
			c0.6,4.1,1.5,8.2,2.4,12.5c0.2,0.9,0.4,1.7,0.6,2.6c0.1,0.3,0.2,0.7,0.2,1h3.9c-0.2-0.8-0.4-1.7-0.6-2.5c-0.2-0.8-0.4-1.7-0.6-2.5
			c-0.9-4.1-1.8-8.2-2.4-12.1c-0.7-3.9-1.2-7.5-1.5-11c-0.2-2.3-0.3-4.5-0.3-6.7c0-2.1,0-4,0.1-5.8c0.2-3.9,0.7-6.9,1.1-9.1
			c0.2-1.1,0.3-1.9,0.4-2.5C221.6,169.5,221.6,169.2,221.4,169.1C221.4,169.2,221.4,169.1,221.4,169.1L221.4,169.1L221.4,169.1z"/>
		<path style="fill:none;stroke:#000000;stroke-miterlimit:10;" d="M176.4,169.5c0,0,0.1,0,0.1,0.1c0,0.1,0.1,0.3,0.1,0.4
			c0,0.2,0,0.5,0,0.8c-0.1,0.6-0.2,1.4-0.4,2.4c-0.4,1.9-1,4.5-1.8,7.8c-1.5,6.4-3.6,15.1-5.2,25.4c-0.8,5-1.4,10.4-1.9,16h-4.6
			c0.5-6.1,1.3-12,2.3-17.3c1-5.3,2.1-10.1,3.3-14.4c1.2-4.3,2.4-8,3.5-11c1.1-3.1,2.1-5.5,2.9-7.2c0.4-0.9,0.7-1.5,1-2
			c0.1-0.2,0.2-0.4,0.3-0.5c0.1-0.1,0.1-0.1,0.2-0.2C176.3,169.6,176.3,169.5,176.4,169.5L176.4,169.5z"/>
		<path style="fill:none;stroke:#000000;stroke-miterlimit:10;" d="M184.7,179.8c0.2,0.1,0.1,1.4-0.1,3.8c-0.3,2.3-0.8,5.6-1.5,9.7
			c-0.6,4.1-1.3,9-1.9,14.4c-0.5,4.5-0.8,9.5-0.8,14.6h-3.7c0.1-5.5,0.5-10.7,1.2-15.4c0.7-5.6,1.8-10.5,2.7-14.6
			c1-4.1,1.9-7.2,2.6-9.4C183.9,180.8,184.5,179.6,184.7,179.8L184.7,179.8z"/>
		<path style="fill:none;stroke:#000000;stroke-miterlimit:10;" d="M231.9,180.8c-0.3,0-0.5,1.1-0.8,3c-0.3,1.9-0.5,4.6-0.7,8.1
			s-0.5,7.5-0.7,12c-0.2,4.5-0.3,9.5-0.2,14.8c0,0.2,0,0.3,0,0.5c0,0.9,0,1.8,0.1,2.7h4.1c0-1-0.1-1.9-0.1-2.9c0-0.2,0-0.3,0-0.5
			c-0.1-5.2-0.1-10.1-0.1-14.6c0-4.5-0.1-8.6-0.2-12c-0.1-3.4-0.3-6.2-0.5-8.1C232.5,181.9,232.2,180.8,231.9,180.8L231.9,180.8z"/>
		<path style="fill:none;stroke:#000000;stroke-miterlimit:10;" d="M235.6,185.1c-0.3,0.1-0.2,1.3-0.1,3.3c0.2,2,0.5,4.8,0.8,8.3
			c0.3,3.5,0.7,7.7,1,12.3c0.2,4.1,0.4,8.6,0.5,13.3h3.8c-0.1-4.9-0.5-9.6-0.9-13.8c-0.5-4.8-1.1-9-1.8-12.5c-0.7-3.5-1.4-6.3-2-8.1
			C236.4,185.9,235.9,185,235.6,185.1L235.6,185.1z"/>
		<path style="fill:none;stroke:#000000;stroke-miterlimit:10;" d="M130.1,221.9c0-1,0-2,0-3.1c0-0.7,0-1.5-0.1-2.2
			c-0.1-4.5-0.5-8.8-1.2-12.8c-0.7-4-1.6-7.6-2.8-10.7c-1.1-2.9-2.3-5.4-3.5-7.5c-1.2-2.1-2.5-3.7-3.6-5c-2.5-2.3-3.9-3.8-3.8-4.3
			c0.1-0.4,1.8,0.3,4.8,2c1.4,1.1,2.9,2.6,4.5,4.7c1.6,2.1,3.1,4.8,4.5,7.9c1.4,3.4,2.6,7.3,3.5,11.6c0.8,4.3,1.4,9,1.5,13.8
			c0,0.8,0,1.6,0,2.3c0,1.1,0,2.1,0,3.1L130.1,221.9L130.1,221.9L130.1,221.9z"/>
		<path style="fill:none;stroke:#000000;stroke-miterlimit:10;" d="M142.4,221.9c0.1-1,0.2-2,0.2-3c0.4-6,0.5-11.9,0.4-17.5
			c-0.1-6.5-0.6-12.5-1.2-17.9c-0.6-5.4-1.4-10.1-2.2-14c-0.7-3.9-1.4-7-1.8-9.2c-0.4-2.2-0.5-3.4-0.3-3.6c0.3-0.2,0.9,0.8,1.8,2.7
			c0.9,2,2,4.9,3.2,8.8c1.2,3.9,2.4,8.7,3.3,14.2c1,5.6,1.7,11.9,2,18.7c0.3,5.8,0.2,12-0.2,18.4c-0.1,0.8-0.1,1.6-0.2,2.4
			L142.4,221.9L142.4,221.9z"/>
		<path style="fill:none;stroke:#000000;stroke-miterlimit:10;" d="M153.2,221.9c1-4.3,2-8.3,3-12.1c1-4.1,2-7.9,2.7-11.4
			c0.4-2,0.8-4,1.2-5.8c0.3-1.8,0.5-3.5,0.7-5c0.2-1.5,0.3-2.9,0.4-4.1c0.1-1.2,0.1-2.2,0.1-3.1c0-0.8,0.1-1.5,0.1-2
			c0-0.5,0.1-0.7,0.2-0.7c0.1,0,0.3,0.2,0.4,0.6c0.2,0.4,0.3,1.1,0.5,1.9c0.2,0.9,0.3,1.9,0.4,3.2c0.1,1.3,0.1,2.7,0.1,4.4
			c0,1.6-0.1,3.5-0.3,5.4c-0.2,1.9-0.5,4-0.8,6.2c-0.6,3.7-1.4,7.7-2.3,11.9c-0.7,3.4-1.6,7-2.5,10.6L153.2,221.9L153.2,221.9z"/>
		<path style="fill:none;stroke:#000000;stroke-miterlimit:10;" d="M208.9,221.9c0-0.7-0.1-1.5-0.1-2.3c0-0.1,0-0.1,0-0.2
			c-0.2-6.5-0.2-12.7-0.3-18.4c-0.1-5.7-0.2-10.8-0.4-15.1c-0.2-4.3-0.4-7.8-0.6-10.2s-0.6-3.8-0.9-3.8c-0.3,0-0.6,1.3-0.9,3.7
			c-0.3,2.4-0.5,5.9-0.8,10.2c-0.3,4.3-0.5,9.4-0.6,15.2c-0.1,5.7-0.2,12,0,18.7c0,0.1,0,0.1,0,0.2c0,0.7,0.1,1.4,0.1,2.1H208.9
			L208.9,221.9z"/>
		<path style="fill:none;stroke:#000000;stroke-miterlimit:10;" d="M197,221.9c-0.1-3.3-0.3-6.4-0.6-9.2c-0.4-3.5-0.9-6.6-1.5-9.1
			c-0.6-2.5-1.2-4.5-1.8-5.8c-0.5-1.3-1-1.9-1.2-1.8c-0.2,0.1-0.1,1,0,2.4c0.2,1.4,0.5,3.4,0.8,5.9s0.6,5.5,0.8,8.8
			c0.2,2.7,0.3,5.7,0.3,8.8L197,221.9L197,221.9z"/>
		<path style="fill:none;stroke:#000000;stroke-miterlimit:10;" d="M221.4,169.1c-0.1,0-0.3,0.2-0.5,0.6c-0.3,0.5-0.6,1.2-1,2.2
			c-0.4,1-0.8,2.3-1.2,3.9c-0.4,1.6-0.8,3.4-1.1,5.4c-0.3,1.9-0.5,3.9-0.6,6.2c-0.1,2.2-0.1,4.6,0,7.1c0.2,3.7,0.6,7.6,1.2,11.7
			c0.6,4.1,1.5,8.2,2.4,12.5c0.2,0.9,0.4,1.7,0.6,2.6c0.1,0.3,0.2,0.7,0.2,1h3.9c-0.2-0.8-0.4-1.7-0.6-2.5c-0.2-0.8-0.4-1.7-0.6-2.5
			c-0.9-4.1-1.8-8.2-2.4-12.1c-0.7-3.9-1.2-7.5-1.5-11c-0.2-2.3-0.3-4.5-0.3-6.7c0-2.1,0-4,0.1-5.8c0.2-3.9,0.7-6.9,1.1-9.1
			c0.2-1.1,0.3-1.9,0.4-2.5C221.6,169.5,221.6,169.2,221.4,169.1C221.4,169.2,221.4,169.1,221.4,169.1L221.4,169.1L221.4,169.1z"/>
		<path style="fill:none;stroke:#000000;stroke-miterlimit:10;" d="M176.4,169.5c0,0,0.1,0,0.1,0.1c0,0.1,0.1,0.3,0.1,0.4
			c0,0.2,0,0.5,0,0.8c-0.1,0.6-0.2,1.4-0.4,2.4c-0.4,1.9-1,4.5-1.8,7.8c-1.5,6.4-3.6,15.1-5.2,25.4c-0.8,5-1.4,10.4-1.9,16h-4.6
			c0.5-6.1,1.3-12,2.3-17.3c1-5.3,2.1-10.1,3.3-14.4c1.2-4.3,2.4-8,3.5-11c1.1-3.1,2.1-5.5,2.9-7.2c0.4-0.9,0.7-1.5,1-2
			c0.1-0.2,0.2-0.4,0.3-0.5c0.1-0.1,0.1-0.1,0.2-0.2C176.3,169.6,176.3,169.5,176.4,169.5L176.4,169.5z"/>
		<path style="fill:none;stroke:#000000;stroke-miterlimit:10;" d="M184.7,179.8c0.2,0.1,0.1,1.4-0.1,3.8c-0.3,2.3-0.8,5.6-1.5,9.7
			c-0.6,4.1-1.3,9-1.9,14.4c-0.5,4.5-0.8,9.5-0.8,14.6h-3.7c0.1-5.5,0.5-10.7,1.2-15.4c0.7-5.6,1.8-10.5,2.7-14.6
			c1-4.1,1.9-7.2,2.6-9.4C183.9,180.8,184.5,179.6,184.7,179.8L184.7,179.8z"/>
		<path style="fill:none;stroke:#000000;stroke-miterlimit:10;" d="M231.9,180.8c-0.3,0-0.5,1.1-0.8,3c-0.3,1.9-0.5,4.6-0.7,8.1
			s-0.5,7.5-0.7,12c-0.2,4.5-0.3,9.5-0.2,14.8c0,0.2,0,0.3,0,0.5c0,0.9,0,1.8,0.1,2.7h4.1c0-1-0.1-1.9-0.1-2.9c0-0.2,0-0.3,0-0.5
			c-0.1-5.2-0.1-10.1-0.1-14.6c0-4.5-0.1-8.6-0.2-12c-0.1-3.4-0.3-6.2-0.5-8.1C232.5,181.9,232.2,180.8,231.9,180.8L231.9,180.8z"/>
		<path style="fill:none;stroke:#000000;stroke-miterlimit:10;" d="M235.6,185.1c-0.3,0.1-0.2,1.3-0.1,3.3c0.2,2,0.5,4.8,0.8,8.3
			c0.3,3.5,0.7,7.7,1,12.3c0.2,4.1,0.4,8.6,0.5,13.3h3.8c-0.1-4.9-0.5-9.6-0.9-13.8c-0.5-4.8-1.1-9-1.8-12.5c-0.7-3.5-1.4-6.3-2-8.1
			C236.4,185.9,235.9,185,235.6,185.1L235.6,185.1z"/>
		<path style="fill:none;stroke:#000000;stroke-miterlimit:10;" d="M133.2,216.7c0-1,0-2.1,0-3.1c0-0.7,0-1.5-0.1-2.2
			c-0.1-4.6-0.5-9.1-1.2-13.2c-0.7-4.1-1.7-7.8-2.9-11c-1.1-3-2.3-5.6-3.6-7.7c-1.3-2.1-2.5-3.8-3.7-5.1c-2.6-2.3-4-3.9-3.9-4.4
			c0.1-0.4,1.9,0.3,4.9,2.1c1.4,1.1,3,2.7,4.6,4.8c1.6,2.2,3.2,4.9,4.6,8.1c1.5,3.5,2.7,7.5,3.5,11.9c0.9,4.4,1.4,9.2,1.5,14.2
			c0,0.8,0,1.6,0,2.4c0,1.1,0,2.2,0,3.2L133.2,216.7L133.2,216.7L133.2,216.7z"/>
		<path style="fill:none;stroke:#000000;stroke-miterlimit:10;" d="M144.6,216.7c0.1-1.2,0.2-2.4,0.3-3.5c0.5-7.1,0.7-13.9,0.5-20.4
			c-0.2-7.6-0.7-14.7-1.5-21c-0.8-6.3-1.8-11.8-2.7-16.4c-0.9-4.6-1.7-8.2-2.2-10.8c-0.5-2.6-0.7-4-0.4-4.2c0.3-0.2,1.1,0.9,2.2,3.2
			c1.1,2.3,2.5,5.8,4,10.3s2.9,10.1,4.1,16.6c1.2,6.5,2.1,13.9,2.5,21.9c0.3,6.8,0.2,14.1-0.3,21.5c-0.1,1-0.1,1.9-0.2,2.8
			L144.6,216.7L144.6,216.7z"/>
		<path style="fill:none;stroke:#000000;stroke-miterlimit:10;" d="M156.9,216.7c1-4.4,2.1-8.6,3.1-12.4c1.1-4.2,2-8.1,2.8-11.7
			c0.5-2.1,0.9-4.1,1.2-5.9c0.3-1.8,0.6-3.6,0.7-5.1c0.2-1.6,0.3-3,0.4-4.2c0.1-1.2,0.1-2.3,0.1-3.1c0-0.9,0.1-1.6,0.1-2
			c0-0.5,0.1-0.7,0.2-0.8c0.1,0,0.3,0.2,0.4,0.6c0.2,0.4,0.3,1.1,0.5,2c0.2,0.9,0.3,2,0.4,3.3c0.1,1.3,0.1,2.8,0.1,4.5
			c0,1.7-0.1,3.5-0.3,5.5c-0.2,2-0.5,4.1-0.8,6.3c-0.6,3.8-1.4,7.9-2.4,12.2c-0.8,3.5-1.7,7.1-2.5,10.9H156.9L156.9,216.7z"/>
		<path style="fill:none;stroke:#000000;stroke-miterlimit:10;" d="M204.7,216.7c0-0.8-0.1-1.6-0.1-2.4c0-0.1,0-0.2,0-0.2
			c-0.2-6.7-0.2-13.1-0.3-18.9c-0.1-5.8-0.2-11.1-0.4-15.6c-0.2-4.4-0.4-8-0.7-10.5c-0.3-2.5-0.6-3.9-0.9-3.9
			c-0.3,0-0.6,1.4-0.9,3.8c-0.3,2.5-0.6,6-0.8,10.5c-0.3,4.4-0.5,9.7-0.6,15.6s-0.2,12.4,0,19.2c0,0.1,0,0.2,0,0.2
			c0,0.7,0.1,1.4,0.1,2.1L204.7,216.7L204.7,216.7z"/>
		<path style="fill:none;stroke:#000000;stroke-miterlimit:10;" d="M192.5,216.7c-0.1-3.3-0.3-6.6-0.6-9.5c-0.4-3.6-1-6.7-1.6-9.3
			c-0.6-2.6-1.3-4.6-1.8-5.9c-0.5-1.3-1-2-1.2-1.9s-0.2,1,0,2.4c0.2,1.5,0.5,3.5,0.8,6.1c0.3,2.6,0.6,5.6,0.8,9.1
			c0.2,2.8,0.3,5.8,0.3,9H192.5L192.5,216.7z"/>
		<path style="fill:none;stroke:#000000;stroke-miterlimit:10;" d="M226.9,162.5c-0.1,0-0.3,0.2-0.6,0.6c-0.3,0.5-0.7,1.3-1.1,2.3
			c-0.4,1-0.8,2.4-1.3,3.9s-0.8,3.5-1.1,5.6c-0.3,1.9-0.5,4.1-0.6,6.4c-0.1,2.3-0.1,4.8,0,7.3c0.2,3.8,0.6,7.8,1.2,12
			c0.6,4.2,1.5,8.5,2.5,12.8c0.2,0.9,0.4,1.8,0.6,2.6c0.1,0.3,0.2,0.7,0.2,1h4.1c-0.2-0.9-0.4-1.7-0.6-2.6c-0.2-0.9-0.4-1.7-0.6-2.6
			c-1-4.3-1.8-8.4-2.5-12.4c-0.7-3.9-1.2-7.7-1.5-11.3c-0.2-2.4-0.3-4.7-0.4-6.8c0-2.1,0-4.1,0.1-5.9c0.2-4,0.7-7.1,1.1-9.3
			c0.2-1.1,0.3-2,0.4-2.6C227.1,163,227.1,162.7,226.9,162.5C227,162.5,226.9,162.5,226.9,162.5L226.9,162.5L226.9,162.5z"/>
		<path style="fill:none;stroke:#000000;stroke-miterlimit:10;" d="M207.2,162.9c-0.1,0-0.1,0-0.1,0.1c0,0.1-0.1,0.3-0.1,0.4
			c0,0.2,0,0.5,0,0.8c0.1,0.6,0.2,1.4,0.4,2.4c0.4,2,1,4.7,1.8,8c1.6,6.5,3.7,15.5,5.3,26c0.8,5.1,1.5,10.7,1.9,16.4h4.7
			c-0.5-6.3-1.4-12.3-2.4-17.8c-1-5.4-2.2-10.4-3.4-14.8c-1.2-4.4-2.4-8.2-3.6-11.3c-1.2-3.2-2.2-5.7-3-7.4c-0.4-0.9-0.7-1.6-1-2
			c-0.1-0.3-0.2-0.4-0.3-0.5c-0.1-0.1-0.1-0.1-0.2-0.2C207.3,163,207.3,162.9,207.2,162.9L207.2,162.9z"/>
		<path style="fill:none;stroke:#000000;stroke-miterlimit:10;" d="M179.9,173.5c0.3,0.1,0.2,1.5-0.1,3.9c-0.3,2.4-0.9,5.8-1.5,10
			c-0.6,4.2-1.4,9.2-1.9,14.8c-0.5,4.7-0.8,9.7-0.9,15h-3.9c0.1-5.6,0.6-11,1.2-15.8c0.8-5.7,1.8-10.8,2.8-15s2-7.4,2.7-9.6
			C179.1,174.5,179.7,173.3,179.9,173.5L179.9,173.5z"/>
		<path style="fill:none;stroke:#000000;stroke-miterlimit:10;" d="M237.7,174.5c-0.3,0-0.5,1.1-0.8,3.1c-0.3,2-0.5,4.8-0.8,8.3
			c-0.3,3.5-0.5,7.7-0.7,12.3c-0.2,4.7-0.3,9.8-0.3,15.2c0,0.2,0,0.3,0,0.5c0,0.9,0,1.9,0.1,2.8h4.2c0-1-0.1-1.9-0.1-2.9
			c0-0.2,0-0.3,0-0.5c-0.1-5.3-0.1-10.4-0.1-15c0-4.6-0.1-8.8-0.2-12.4c-0.1-3.5-0.3-6.4-0.5-8.4C238.3,175.6,238,174.5,237.7,174.5
			L237.7,174.5z"/>
		<path style="fill:none;stroke:#000000;stroke-miterlimit:10;" d="M241.5,178.9c-0.3,0.1-0.2,1.3-0.1,3.3s0.5,5,0.9,8.6
			s0.7,7.9,1,12.7c0.3,4.2,0.4,8.8,0.6,13.6h3.9c-0.2-5-0.5-9.8-0.9-14.2c-0.5-4.9-1.2-9.2-1.8-12.9c-0.7-3.6-1.5-6.5-2.1-8.4
			C242.3,179.8,241.8,178.8,241.5,178.9L241.5,178.9z"/>
		<path style="fill:none;stroke:#000000;stroke-miterlimit:10;" d="M140.8,218.3c0-0.9,0-1.8,0-2.7c0-0.6,0-1.3-0.1-2
			c-0.1-4-0.5-7.8-1.1-11.3c-0.6-3.5-1.4-6.7-2.4-9.5c-0.9-2.6-2-4.8-3.1-6.7c-1.1-1.8-2.2-3.3-3.2-4.4c-2.2-2-3.5-3.4-3.3-3.8
			c0.1-0.4,1.6,0.3,4.2,1.8c1.2,1,2.6,2.3,3.9,4.2c1.4,1.8,2.8,4.2,3.9,7c1.3,3,2.3,6.5,3.1,10.3c0.7,3.8,1.2,7.9,1.3,12.2
			c0,0.7,0,1.4,0,2.1c0,1,0,1.8,0,2.8L140.8,218.3L140.8,218.3L140.8,218.3z"/>
		<path style="fill:none;stroke:#000000;stroke-miterlimit:10;" d="M152.1,218.3c0.1-0.9,0.1-1.8,0.2-2.7c0.3-5.4,0.5-10.6,0.4-15.5
			c-0.1-5.7-0.5-11.1-1.1-15.9c-0.6-4.8-1.3-9-1.9-12.4c-0.6-3.5-1.2-6.2-1.6-8.1c-0.4-1.9-0.5-3-0.3-3.2c0.2-0.1,0.8,0.7,1.6,2.4
			c0.8,1.7,1.8,4.3,2.9,7.8c1,3.4,2.1,7.7,2.9,12.6c0.9,4.9,1.5,10.5,1.8,16.6c0.2,5.2,0.2,10.7-0.2,16.3c-0.1,0.7-0.1,1.4-0.1,2.1
			H152.1L152.1,218.3z"/>
		<path style="fill:none;stroke:#000000;stroke-miterlimit:10;" d="M161.2,218.3c0.9-3.8,1.8-7.4,2.7-10.7c0.9-3.6,1.8-7,2.4-10.1
			c0.4-1.8,0.7-3.5,1-5.1c0.3-1.6,0.5-3.1,0.7-4.4c0.1-1.3,0.3-2.5,0.3-3.6c0.1-1.1,0.1-2,0.1-2.7c0-0.7,0-1.3,0.1-1.8
			c0-0.4,0.1-0.6,0.2-0.7s0.2,0.1,0.4,0.5c0.1,0.4,0.3,1,0.5,1.7c0.1,0.8,0.3,1.7,0.4,2.9c0.1,1.1,0.1,2.4,0.1,3.9
			c0,1.5-0.1,3.1-0.3,4.8s-0.4,3.5-0.7,5.5c-0.5,3.3-1.2,6.8-2.1,10.5c-0.7,3-1.4,6.2-2.2,9.4L161.2,218.3L161.2,218.3z"/>
		<path style="fill:none;stroke:#000000;stroke-miterlimit:10;" d="M202.8,218.3c0-0.7-0.1-1.4-0.1-2c0-0.1,0-0.1,0-0.2
			c-0.1-5.8-0.2-11.3-0.3-16.3s-0.2-9.6-0.3-13.4c-0.1-3.8-0.3-6.9-0.6-9.1c-0.2-2.1-0.5-3.3-0.8-3.3s-0.5,1.2-0.8,3.3
			c-0.3,2.1-0.5,5.2-0.7,9s-0.4,8.4-0.5,13.4c-0.1,5.1-0.2,10.7,0,16.5c0,0.1,0,0.1,0,0.2c0,0.6,0.1,1.2,0.1,1.8L202.8,218.3
			L202.8,218.3z"/>
		<path style="fill:none;stroke:#000000;stroke-miterlimit:10;" d="M192.2,218.3c-0.1-2.9-0.3-5.6-0.5-8.2c-0.3-3.1-0.8-5.8-1.3-8
			c-0.5-2.2-1.1-4-1.6-5.1c-0.5-1.2-0.8-1.7-1-1.6c-0.2,0.1-0.1,0.8,0,2.1c0.1,1.3,0.4,3,0.7,5.2c0.3,2.2,0.5,4.8,0.7,7.8
			c0.1,2.4,0.2,5,0.3,7.8L192.2,218.3L192.2,218.3z"/>
		<path style="fill:none;stroke:#000000;stroke-miterlimit:10;" d="M221.6,171.6c-0.1,0-0.3,0.2-0.5,0.5c-0.3,0.4-0.6,1.1-0.9,2
			c-0.3,0.9-0.7,2-1.1,3.4c-0.4,1.4-0.7,3-1,4.8c-0.2,1.7-0.4,3.5-0.5,5.5c-0.1,2-0.1,4.1,0,6.3c0.1,3.3,0.5,6.7,1,10.3
			c0.5,3.6,1.3,7.3,2.1,11c0.2,0.8,0.3,1.5,0.5,2.2c0.1,0.3,0.1,0.6,0.2,0.9h3.5c-0.2-0.7-0.3-1.5-0.5-2.2s-0.3-1.5-0.5-2.2
			c-0.8-3.7-1.6-7.3-2.2-10.7c-0.6-3.4-1-6.7-1.3-9.7c-0.2-2.1-0.3-4-0.3-5.9c0-1.8,0-3.5,0.1-5.1c0.2-3.4,0.7-6.2,1-8.1
			c0.2-1,0.3-1.7,0.3-2.2C221.8,172,221.8,171.7,221.6,171.6C221.6,171.6,221.6,171.6,221.6,171.6L221.6,171.6L221.6,171.6z"/>
		<path style="fill:none;stroke:#000000;stroke-miterlimit:10;" d="M204.6,172c0,0-0.1,0-0.1,0.1c0,0.1-0.1,0.2-0.1,0.3
			c0,0.2,0,0.4,0,0.7c0,0.5,0.1,1.2,0.3,2.1c0.3,1.7,0.9,4,1.6,6.9c1.4,5.6,3.2,13.3,4.6,22.5c0.7,4.4,1.3,9.2,1.7,14.2h4.1
			c-0.4-5.4-1.2-10.6-2-15.3c-0.9-4.7-1.9-9-2.9-12.8c-1-3.8-2.1-7.1-3.1-9.8c-1-2.7-1.9-4.9-2.6-6.4c-0.3-0.7-0.6-1.3-0.9-1.8
			c-0.1-0.2-0.2-0.4-0.3-0.5c-0.1-0.1-0.1-0.1-0.1-0.1C204.7,172,204.7,172,204.6,172L204.6,172z"/>
		<path style="fill:none;stroke:#000000;stroke-miterlimit:10;" d="M181.4,181c0.2,0.1,0.1,1.3-0.1,3.3c-0.3,2-0.7,5-1.3,8.6
			c-0.5,3.6-1.2,7.9-1.7,12.7c-0.4,4-0.7,8.4-0.7,13h-3.3c0.1-4.9,0.5-9.4,1.1-13.6c0.7-5,1.6-9.3,2.4-12.9c0.9-3.6,1.7-6.4,2.4-8.3
			C180.7,181.9,181.2,180.9,181.4,181L181.4,181z"/>
		<path style="fill:none;stroke:#000000;stroke-miterlimit:10;" d="M230.9,182c-0.3,0-0.5,1-0.7,2.6c-0.2,1.7-0.5,4.1-0.7,7.1
			c-0.2,3-0.4,6.6-0.6,10.6c-0.2,4-0.3,8.4-0.2,13.1c0,0.1,0,0.3,0,0.5c0,0.8,0,1.6,0.1,2.4h3.6c0-0.8,0-1.7-0.1-2.5
			c0-0.1,0-0.3,0-0.4c-0.1-4.5-0.1-8.9-0.1-12.9c0-4-0.1-7.6-0.1-10.6c-0.1-3.1-0.3-5.5-0.5-7.2C231.4,182.9,231.1,182,230.9,182
			L230.9,182z"/>
		<path style="fill:none;stroke:#000000;stroke-miterlimit:10;" d="M234.2,185.7c-0.2,0.1-0.2,1.1-0.1,2.9s0.4,4.3,0.7,7.4
			c0.3,3.1,0.6,6.8,0.8,10.9c0.2,3.6,0.4,7.6,0.5,11.8h3.4c-0.1-4.3-0.4-8.5-0.8-12.2c-0.4-4.2-1-8-1.6-11.1
			c-0.6-3.1-1.3-5.6-1.8-7.2C234.9,186.5,234.4,185.6,234.2,185.7L234.2,185.7z"/>
		<path style="fill:none;stroke:#000000;stroke-miterlimit:10;" d="M183.7,218.3c0.1-0.9,0.1-1.8,0.2-2.7c0.3-5.4,0.5-10.6,0.4-15.5
			c-0.1-5.7-0.5-11.1-1.1-15.9c-0.5-4.8-1.3-9-1.9-12.4s-1.2-6.2-1.6-8.1c-0.4-1.9-0.5-3-0.3-3.2c0.2-0.1,0.8,0.7,1.6,2.4
			c0.8,1.7,1.8,4.3,2.9,7.8s2.1,7.7,2.9,12.6s1.5,10.5,1.8,16.6c0.2,5.2,0.2,10.7-0.2,16.3c-0.1,0.7-0.1,1.4-0.1,2.1H183.7
			L183.7,218.3z"/>
		<path style="fill:none;stroke:#000000;stroke-miterlimit:10;" d="M197.1,171.6c-0.1,0-0.3,0.2-0.5,0.5c-0.3,0.4-0.6,1.1-0.9,2
			c-0.3,0.9-0.7,2-1.1,3.4c-0.4,1.4-0.7,3-1,4.8c-0.2,1.7-0.4,3.5-0.5,5.5c-0.1,2-0.1,4.1,0,6.3c0.1,3.3,0.5,6.7,1,10.3
			c0.5,3.6,1.3,7.3,2.1,11c0.2,0.8,0.3,1.5,0.5,2.2c0.1,0.3,0.1,0.6,0.2,0.9h3.5c-0.2-0.7-0.3-1.5-0.5-2.2c-0.2-0.7-0.3-1.5-0.5-2.2
			c-0.8-3.7-1.6-7.3-2.2-10.7c-0.6-3.4-1-6.7-1.3-9.7c-0.2-2.1-0.3-4-0.3-5.9c0-1.8,0-3.5,0.1-5.1c0.2-3.4,0.7-6.2,1-8.1
			c0.2-1,0.3-1.7,0.3-2.2C197.3,172,197.3,171.7,197.1,171.6C197.1,171.6,197.1,171.6,197.1,171.6L197.1,171.6L197.1,171.6z"/>
		<path style="fill:none;stroke:#000000;stroke-miterlimit:10;" d="M230.7,174.5c0,0,0.1,0,0.1,0.1c0,0.1,0.1,0.2,0.1,0.3
			c0,0.2,0,0.4,0,0.7c0,0.5-0.1,1.2-0.3,2.1c-0.3,1.7-0.9,4-1.6,6.9c-1.4,5.6-3.2,13.3-4.6,22.5c-0.7,4.4-1.3,9.2-1.7,14.2h-4.1
			c0.4-5.4,1.2-10.6,2-15.3c0.9-4.7,1.9-9,2.9-12.8c1-3.8,2.1-7.1,3.1-9.8c1-2.7,1.9-4.9,2.6-6.4c0.3-0.7,0.6-1.3,0.9-1.8
			c0.1-0.2,0.2-0.4,0.3-0.5c0.1-0.1,0.1-0.1,0.1-0.1C230.7,174.6,230.7,174.5,230.7,174.5L230.7,174.5z"/>
		<path style="fill:none;stroke:#000000;stroke-miterlimit:10;" d="M247.9,181c0.2,0.1,0.1,1.3-0.1,3.3c-0.3,2-0.7,5-1.3,8.6
			c-0.5,3.6-1.2,7.9-1.7,12.7c-0.4,4-0.7,8.4-0.7,13h-3.3c0.1-4.9,0.5-9.4,1.1-13.6c0.7-5,1.6-9.3,2.4-12.9s1.7-6.4,2.4-8.3
			C247.2,181.9,247.7,180.9,247.9,181L247.9,181z"/>
		<path style="fill:none;stroke:#000000;stroke-miterlimit:10;" d="M214.4,180.4c-0.3,0-0.5,1-0.7,2.6c-0.2,1.7-0.5,4.1-0.7,7.1
			c-0.2,3-0.4,6.6-0.6,10.6c-0.2,4-0.3,8.4-0.2,13.1c0,0.1,0,0.3,0,0.5c0,0.8,0,1.6,0.1,2.4h3.6c0-0.8,0-1.7-0.1-2.5
			c0-0.1,0-0.3,0-0.4c-0.1-4.5-0.1-8.9-0.1-12.9c0-4-0.1-7.6-0.1-10.6c-0.1-3.1-0.3-5.5-0.5-7.2
			C214.8,181.3,214.6,180.4,214.4,180.4L214.4,180.4z"/>
		<path style="fill:none;stroke:#000000;stroke-miterlimit:10;" d="M189.6,183.6c-0.2,0.1-0.2,1.1-0.1,2.9c0.1,1.8,0.4,4.3,0.7,7.4
			c0.3,3.1,0.6,6.8,0.8,10.9c0.2,3.6,0.4,7.6,0.5,11.8h3.4c-0.1-4.3-0.4-8.5-0.8-12.2c-0.4-4.2-1-8-1.6-11.1
			c-0.6-3.1-1.3-5.6-1.8-7.2C190.3,184.4,189.8,183.6,189.6,183.6L189.6,183.6z"/>
		<path style="fill:none;stroke:#000000;stroke-miterlimit:10;" d="M34.2,212.1c1,0.3,2.5,2.9,2.5-0.4c5.6-27.5,7.9-57.1,6.1-86.1
			c-0.8-19.3,0.8-39.7,7.5-55.9c2.6-6.6,5.7-12.6,8.8-18.4C51.8,63.7,45.2,78.5,43.1,96c-2,14.5-1.4,29.5-1,44.3
			C42.2,164.8,39.3,189.3,34.2,212.1L34.2,212.1z"/>
		<path style="fill:none;stroke:#000000;stroke-miterlimit:10;" d="M63.7,83.1c-8.3,10.1-16.1,22.4-19.4,38
			c-1.1,4.7-1.8,9.5-2.4,14.4c0.3,0.2,0.6,0.5,0.9,0.7c1.3-13.8,4.5-27.2,10.6-37.8C56.5,92.8,60.1,87.9,63.7,83.1L63.7,83.1z"/>
	</g>
	<g transform="matrix(1.155 -.46238 .339 1.5753 187.35 -278.39)" vector-effect="non-scaling-stroke">
		<path style="fill:none;stroke:#000000;stroke-miterlimit:10;" d="M-177.9,149.8c-4.5,5.9-8.1,12.1-9.8,19.1
			c-2.9,10.9-2,22.1-1.4,33.1c0.1,18.3-3.9,36.6-11.3,53.6c1.4,0.2,3.5,2.2,3.5-0.3c8-20.6,11.4-42.7,8.7-64.3
			c-1.1-14.2,1.1-29.1,10.3-41.1C-177.9,149.8-177.8,149.9-177.9,149.8L-177.9,149.8z"/>
		<path style="fill:none;stroke:#000000;stroke-miterlimit:10;" d="M-176.1,151.4c-1.5,0.7-3,1.4-4.4,2.1c0,0,0.1,0.1,0.1,0.1
			C-179,152.9-177.6,152.1-176.1,151.4L-176.1,151.4z"/>
	</g>
</g>
</svg>
