<?xml version="1.0" encoding="utf-8"?>
<!-- Generator: Adobe Illustrator 17.0.0, SVG Export Plug-In . SVG Version: 6.00 Build 0)  -->
<!DOCTYPE svg PUBLIC "-//W3C//DTD SVG 1.1//EN" "http://www.w3.org/Graphics/SVG/1.1/DTD/svg11.dtd" [
	<!ENTITY ns_flows "http://ns.adobe.com/Flows/1.0/">
	<!ENTITY ns_extend "http://ns.adobe.com/Extensibility/1.0/">
	<!ENTITY ns_ai "http://ns.adobe.com/AdobeIllustrator/10.0/">
	<!ENTITY ns_graphs "http://ns.adobe.com/Graphs/1.0/">
]>
<svg version="1.1" id="Layer_1" xmlns:x="&ns_extend;" xmlns:i="&ns_ai;" xmlns:graph="&ns_graphs;"
	 xmlns="http://www.w3.org/2000/svg" xmlns:xlink="http://www.w3.org/1999/xlink" xmlns:a="http://ns.adobe.com/AdobeSVGViewerExtensions/3.0/"
	 x="0px" y="0px" width="256px" height="256px" viewBox="0 0 256 256" style="enable-background:new 0 0 256 256;"
	 xml:space="preserve">
<g transform="translate(-51.525 -395.61)">
	<path style="fill:none;stroke:#000000;stroke-miterlimit:10;" d="M174.4,481.6h8.1l125.1,84l-256-0.1L174.4,481.6z"/>
	<path style="fill:none;stroke:#000000;stroke-miterlimit:10;" d="M168.7,562.9l2.5-23.6h7.5l-0.1,23.6H168.7z"/>
	<path style="fill:none;stroke:#000000;stroke-miterlimit:10;" d="M172.9,525.7h5.8v-11.9h-4.3L172.9,525.7z"/>
	<path style="fill:none;stroke:#000000;stroke-miterlimit:10;" d="M175.2,508.3h3.6v-6.1h-2.9L175.2,508.3z"/>
	<path style="fill:none;stroke:#000000;stroke-miterlimit:10;" d="M176.4,498.6l2.5,0.1v-3.4l-2,0.1L176.4,498.6z"/>
	<path style="fill:none;stroke:#000000;stroke-miterlimit:10;" d="M176.9,493.4h1.9l0.1-2h-1.7L176.9,493.4z"/>
	<path style="fill:none;stroke:#000000;stroke-miterlimit:10;" d="M177.3,490.2h1.5v-1.3h-1.4L177.3,490.2z"/>
	<path style="fill:none;stroke:#000000;stroke-miterlimit:10;" d="M177.6,488.2h1.2v-0.9h-1.2L177.6,488.2z"/>
	<path style="fill:none;stroke:#000000;stroke-miterlimit:10;" d="M177.8,486.7h1.1v-0.6h-1L177.8,486.7z"/>
	<path style="fill:none;stroke:#000000;stroke-miterlimit:10;" d="M177.9,485.8h0.9v-0.5h-0.9V485.8z"/>
	<path style="fill:none;stroke:#000000;stroke-miterlimit:10;" d="M178,484.9h0.9v-0.4H178L178,484.9z"/>
	<path style="fill:none;stroke:#000000;stroke-miterlimit:10;" d="M178.1,484.3h0.8v-0.4h-0.7L178.1,484.3z"/>
	<path style="fill:none;stroke:#000000;stroke-miterlimit:10;" d="M178.1,483.8h0.7v-0.3h-0.7V483.8z"/>
	<path style="fill:none;stroke:#000000;stroke-miterlimit:10;" d="M178.2,483.3h0.6v-0.2h-0.6V483.3z"/>
	<path style="fill:none;stroke:#000000;stroke-miterlimit:10;" d="M178.2,483h0.6v-0.2h-0.6L178.2,483z"/>
	<path style="fill:none;stroke:#000000;stroke-miterlimit:10;" d="M178.3,482.6h0.6v-0.1h-0.6V482.6z"/>
	<path style="fill:none;stroke:#000000;stroke-miterlimit:10;" d="M178.3,482.5h0.5v-0.1h-0.5L178.3,482.5z"/>
	<path style="fill:none;stroke:#000000;stroke-miterlimit:10;" d="M178.3,482.3h0.5v-0.1L178.3,482.3L178.3,482.3z"/>
	<path style="fill:none;stroke:#000000;stroke-miterlimit:10;" d="M178.3,482.1h0.5v-0.1L178.3,482.1L178.3,482.1z"/>
</g>
</svg>
