<?xml version="1.0" encoding="utf-8"?>
<!-- Generator: Adobe Illustrator 17.0.0, SVG Export Plug-In . SVG Version: 6.00 Build 0)  -->
<!DOCTYPE svg PUBLIC "-//W3C//DTD SVG 1.1//EN" "http://www.w3.org/Graphics/SVG/1.1/DTD/svg11.dtd" [
	<!ENTITY ns_flows "http://ns.adobe.com/Flows/1.0/">
	<!ENTITY ns_extend "http://ns.adobe.com/Extensibility/1.0/">
	<!ENTITY ns_ai "http://ns.adobe.com/AdobeIllustrator/10.0/">
	<!ENTITY ns_graphs "http://ns.adobe.com/Graphs/1.0/">
]>
<svg version="1.1" id="Layer_1" xmlns:x="&ns_extend;" xmlns:i="&ns_ai;" xmlns:graph="&ns_graphs;"
	 xmlns="http://www.w3.org/2000/svg" xmlns:xlink="http://www.w3.org/1999/xlink" xmlns:a="http://ns.adobe.com/AdobeSVGViewerExtensions/3.0/"
	 x="0px" y="0px" width="256px" height="256px" viewBox="0 0 256 256" style="enable-background:new 0 0 256 256;"
	 xml:space="preserve">
<g transform="translate(-81.201 -110.32)">
	<path style="fill:none;stroke:#000000;stroke-width:3;stroke-miterlimit:10;" d="M113.2,261.9l99.7-17.1l93.4,16.9l-99,70.3
		L113.2,261.9L113.2,261.9z"/>
	<path style="fill:none;stroke:#000000;stroke-width:3;stroke-miterlimit:10;" d="M221.7,321.5l-13-8.8l15.4-9.7l13.5,7.1
		L221.7,321.5L221.7,321.5z"/>
	<path style="fill:none;stroke:#000000;stroke-width:3;stroke-miterlimit:10;" d="M208.5,312.8l-15.2-10.2l-15.1,7.7L194,322
		L208.5,312.8L208.5,312.8z"/>
	<path style="fill:none;stroke:#000000;stroke-width:3;stroke-miterlimit:10;" d="M193.8,302.8l14.9-7.6l-12.6-6.9l-15.4,6.4
		L193.8,302.8L193.8,302.8z"/>
	<path style="fill:none;stroke:#000000;stroke-width:3;stroke-miterlimit:10;" d="M207.8,295.2l14.2-6.6l15.4,6.6l-12.8,7.8
		L207.8,295.2L207.8,295.2z"/>
	<path style="fill:none;stroke:#000000;stroke-width:3;stroke-miterlimit:10;" d="M251.4,286.5l-14,9l13.1,5.8l14-9.8L251.4,286.5
		L251.4,286.5z"/>
	<path style="fill:none;stroke:#000000;stroke-width:3;stroke-miterlimit:10;" d="M180.5,294.7l-14,6.7l-11.7-8.8l14.4-5.2
		L180.5,294.7L180.5,294.7z"/>
	<path style="fill:none;stroke:#000000;stroke-width:3;stroke-miterlimit:10;" d="M209.7,282.6l-13.4,5.8l-12.6-6.6l13.3-4.6
		L209.7,282.6L209.7,282.6z"/>
	<path style="fill:none;stroke:#000000;stroke-width:3;stroke-miterlimit:10;" d="M209.7,282.6l15.1-6.5l12.7,5.3l-15.1,7.1
		L209.7,282.6z"/>
	<path style="fill:none;stroke:#000000;stroke-width:3;stroke-miterlimit:10;" d="M237.3,281.2l13.4-6.9l14,4.7l-12.3,7.7
		L237.3,281.2L237.3,281.2z"/>
	<path style="fill:none;stroke:#000000;stroke-width:3;stroke-miterlimit:10;" d="M140.2,268.3l-12.4,4.5l14,10.5l13.7-5
		L140.2,268.3L140.2,268.3z"/>
	<path style="fill:none;stroke:#000000;stroke-width:3;stroke-miterlimit:10;" d="M155.7,278.5l13.9-4.3l14,7.7l-14.5,5.2
		L155.7,278.5L155.7,278.5z"/>
	<path style="fill:none;stroke:#000000;stroke-width:3;stroke-miterlimit:10;" d="M153.3,265.5l15.8,9l12.4-4l-17.1-8L153.3,265.5
		L153.3,265.5z"/>
	<path style="fill:none;stroke:#000000;stroke-width:3;stroke-miterlimit:10;" d="M196.7,276.7l15.2-5L197,266l-14.6,4.9
		L196.7,276.7L196.7,276.7z"/>
	<path style="fill:none;stroke:#000000;stroke-width:3;stroke-miterlimit:10;" d="M178.7,259.2l13.1-2.7l18.4,5.5l-13.1,4
		L178.7,259.2L178.7,259.2z"/>
	<path style="fill:none;stroke:#000000;stroke-width:3;stroke-miterlimit:10;" d="M212,271.7l12.6-5l13.7,4l-13.1,5.6L212,271.7z"/>
	<path style="fill:none;stroke:#000000;stroke-width:3;stroke-miterlimit:10;" d="M211.2,262.1l18.4-5.8l13.9,3.4l-18.4,6.8
		L211.2,262.1L211.2,262.1z"/>
	<path style="fill:none;stroke:#000000;stroke-width:3;stroke-miterlimit:10;" d="M238.7,270.7l18.3-7.8l12,3.1l-18,8.6L238.7,270.7
		L238.7,270.7z"/>
	<path style="fill:none;stroke:#000000;stroke-width:3;stroke-miterlimit:10;" d="M210.7,251.8l-18.6,4.6l-16.4-4.9l18.2-3.8
		L210.7,251.8z"/>
	<path style="fill:none;stroke:#000000;stroke-width:3;stroke-miterlimit:10;" d="M211.2,251.8l18.2-4l18.7,3.1l-18,5.6L211.2,251.8
		z"/>
	<path style="fill:none;stroke:#000000;stroke-width:3;stroke-miterlimit:10;" d="M244.6,259.9l16.7-6.5l12,2.4l-15.6,6.9
		L244.6,259.9L244.6,259.9z"/>
	<path style="fill:none;stroke:#000000;stroke-width:3;stroke-miterlimit:10;" d="M292.3,271.4l-10.9-2.5l-16,9.9l11.1,3.8
		L292.3,271.4L292.3,271.4z"/>
	<path style="fill:none;stroke:#000000;stroke-width:3;stroke-miterlimit:10;" d="M269.2,265.7l15.2-7.7l11.4,2.2l-13.7,8.6
		L269.2,265.7L269.2,265.7z"/>
	<path style="fill:none;stroke:#000000;stroke-width:3;stroke-miterlimit:10;" d="M178.3,259.3l-13.7,3.3l-14.6-6.5l13.1-2.7
		L178.3,259.3L178.3,259.3z"/>
	<path style="fill:none;stroke:#000000;stroke-width:3;stroke-miterlimit:10;" d="M127.2,260.2l11.5-2.2l13.9,7.7l-12.3,2.8
		L127.2,260.2L127.2,260.2z"/>
	<path style="fill:none;stroke:#000000;stroke-width:3;stroke-miterlimit:10;" d="M211.6,175.8L82.2,144.9l-0.4,0.9L211.6,175.8
		l1.7,68.6l-95.1,17.4"/>
	<path style="fill:none;stroke:#000000;stroke-width:3;stroke-miterlimit:10;" d="M81.7,144.9l129.4,30.8l1.3,68.2L82.2,267.4"/>
	<path style="fill:none;stroke:#000000;stroke-width:3;stroke-miterlimit:10;" d="M212,175.8l0.9,69"/>
	<path style="fill:none;stroke:#000000;stroke-width:3;stroke-miterlimit:10;" d="M337.1,268.3l-124.2-23.9l-0.9-68.6l122.4-30.8"/>
	<path style="fill:none;stroke:#000000;stroke-width:3;stroke-miterlimit:10;" d="M334,145.4l-122,30.4l1.3,69l93.4,17.8"/>
	<path style="fill:none;stroke:#000000;stroke-width:3;stroke-miterlimit:10;" d="M244.6,184.9l0.4,31.3l32.1,0.4l-0.9-36.9
		L244.6,184.9L244.6,184.9z"/>
	<path style="fill:none;stroke:#000000;stroke-width:3;stroke-miterlimit:10;" d="M177.3,183.2v66.4l-26.9,6.1l-0.9-76.8
		L177.3,183.2L177.3,183.2z"/>
	<path style="fill:none;stroke:#000000;stroke-width:3;stroke-miterlimit:10;" d="M104.8,171.4v43.9l30-0.4v-38.2L104.8,171.4
		L104.8,171.4z"/>
	<path style="fill:none;stroke:#000000;stroke-width:3;stroke-miterlimit:10;" d="M172,217.5l-0.1,2.7l2.4-0.2v-2.7L172,217.5
		L172,217.5z"/>
</g>
</svg>
