<?xml version="1.0" encoding="utf-8"?>
<!-- Generator: Adobe Illustrator 17.0.0, SVG Export Plug-In . SVG Version: 6.00 Build 0)  -->
<!DOCTYPE svg PUBLIC "-//W3C//DTD SVG 1.1//EN" "http://www.w3.org/Graphics/SVG/1.1/DTD/svg11.dtd" [
	<!ENTITY ns_flows "http://ns.adobe.com/Flows/1.0/">
	<!ENTITY ns_extend "http://ns.adobe.com/Extensibility/1.0/">
	<!ENTITY ns_ai "http://ns.adobe.com/AdobeIllustrator/10.0/">
	<!ENTITY ns_graphs "http://ns.adobe.com/Graphs/1.0/">
]>
<svg version="1.1" id="Layer_1" xmlns:x="&ns_extend;" xmlns:i="&ns_ai;" xmlns:graph="&ns_graphs;"
	 xmlns="http://www.w3.org/2000/svg" xmlns:xlink="http://www.w3.org/1999/xlink" xmlns:a="http://ns.adobe.com/AdobeSVGViewerExtensions/3.0/"
	 x="0px" y="0px" width="256px" height="256px" viewBox="0 0 256 256" style="enable-background:new 0 0 256 256;"
	 xml:space="preserve">
<g transform="translate(0 -792.36)">
	<g transform="translate(177.63 447.07)">
		<g>
			<g>
				<path style="fill:none;stroke:#000000;stroke-miterlimit:10;" d="M-104.1,502.6c-13.9-0.5-28-1.4-42-2.6c0-0.2,0-0.5,0-0.7
					c0.2-9.5,0.6-31.7,0.7-40.5c13.4,1.4,26.8,2.6,40.1,3.3l1.2,39.9V502.6z"/>
				<path style="fill:none;stroke:#000000;stroke-miterlimit:10;" d="M-33.3,502.4c-15.8,0.6-31.6,0.9-47.4,0.7c0-0.3,0-0.5,0-0.8
					c0.2-9.3,0.5-29.8,0.7-39.1c15.4,0.5,30.8,0.5,46,0.2c0.2,8.4,0.5,27.6,0.7,37.8C-33.3,501.6-33.3,502-33.3,502.4z"/>
				<path style="fill:none;stroke:#000000;stroke-miterlimit:10;" d="M32,498.7c-13.9,1-27.9,1.9-42,2.7l0.1-1.3l1.1-37.7
					c13.4-0.7,26.8-1.6,40.1-2.9c0.2,8,0.5,27.5,0.7,38.1C32,498,32,498.4,32,498.7z"/>
				<path style="fill:none;stroke:#000000;stroke-miterlimit:10;" d="M61.9,514.9l-88.7,1.9l-11.5-4.7H-39l-0.6-0.5l-22.3,0.8h-0.1
					l-13.1,0.2l-0.1-0.2l-0.3,0.2l-8.2,6.2L-84,519l-4.4,2.8l-87.5-5.5l0.3-0.4l6.4-7.9l0.1,2.3l15.3,0.9c0,0,7.6-4.3,7.6-7.6
					c0-0.5,0-1.7,0.1-3.5c14.1,1.3,28.1,2.2,42,2.6l0.3,11.9h15.3c0,0,7.6-4.3,7.6-7.6c0-0.5,0-1.8,0.1-3.8
					c15.9,0.1,31.7-0.1,47.4-0.7c0.1,2.8,0.1,4.7,0.1,5.3c0,3.4,7.6,7.6,7.6,7.6v-0.2v0.2h15.3l0.4-14c14-0.7,28-1.6,42-2.7
					c0.1,3,0.1,5,0.1,5.6c0,3.4,7.6,7.6,7.6,7.6v-0.2v0.2l15.3-0.9l0.1-4.2L61.9,514.9z"/>
				<path style="fill:none;stroke:#000000;stroke-miterlimit:10;" d="M-104.1,502.6c-13.9-0.5-28-1.4-42-2.6c0-0.2,0-0.5,0-0.7
					c13.9,1.4,27.9,2.3,42,2.7V502.6z"/>
				<polygon style="fill:none;stroke:#000000;stroke-miterlimit:10;" points="-62.1,512.4 -74.5,512.8 -75.1,513.3 -83.8,518.8 
					-75.6,512.6 -75.3,512.4 -75.3,512.6 				"/>
				<path style="fill:none;stroke:#000000;stroke-miterlimit:10;" d="M-80.8,503.1c0-0.3,0-0.5,0-0.8c15.8,0,31.6-0.5,47.4-1.1
					c0,0.4,0,0.8,0,1.2C-49.1,503-64.9,503.3-80.8,503.1z"/>
				<path style="fill:none;stroke:#000000;stroke-miterlimit:10;" d="M32,498.7c-13.9,1-27.9,1.9-42,2.7l0.1-1.3
					C4,499.4,18,498.4,32,497.6C32,498,32,498.4,32,498.7z"/>
				<polygon style="fill:none;stroke:#000000;stroke-miterlimit:10;" points="62.7,515.8 -28.2,519.7 -34.6,515.1 -34.7,515.1 
					-38,512.7 -39,512 -38.3,512 -26.9,516.7 61.9,514.9 				"/>
				<path style="fill:none;stroke:#000000;stroke-miterlimit:10;" d="M12.2,405.4c-47.3,1.4-82.2,1.8-132,1.3
					c-15,13.9-33.5,27.8-55.2,41.6c2.2,0.2,4.4,0.5,6.7,0.7c34.8,3.4,69.8,4.6,105.1,4.1c13.3-0.2,26.5-0.6,39.8-1.1v-27.9h7.9v27.5
					c23.7-1.1,47.3-2.7,71.1-4.7c0.1,0,0.1,0,0.2,0c4-0.3,8.1-0.7,12.2-1c0.6-0.1,1.1-0.1,1.6-0.2C45.1,435.6,32,420.1,12.2,405.4z
					 M-95.4,424h7.9v28.6h-7.9V424z"/>
				<path style="fill:none;stroke:#000000;stroke-miterlimit:10;" d="M70.3,455.1c-4.6,0.6-9.1,1.2-13.7,1.7
					c-2.6,0.3-5.1,0.6-7.7,0.9c-3.1,0.3-6.1,0.7-9.3,1c-0.5,0.1-1,0.1-1.6,0.2c-2.3,0.2-4.6,0.5-6.8,0.7
					c-13.3,1.3-26.7,2.2-40.1,2.9c-5.6,0.3-11.2,0.5-16.9,0.7c-0.5,0-1,0.1-1.5,0.1c-2.3,0.1-4.6,0.1-6.9,0.2
					c-15.2,0.3-30.6,0.3-46-0.2c-2.3-0.1-4.6-0.2-6.9-0.2c-0.5,0-1-0.1-1.5-0.1c-5.6-0.2-11.2-0.5-16.8-0.8
					c-13.3-0.8-26.7-1.9-40.1-3.3c-2.3-0.2-4.6-0.5-6.8-0.7c-0.5-0.1-1.1-0.1-1.6-0.2c-2.8-0.3-5.6-0.7-8.5-1
					c-2.8-0.3-5.6-0.7-8.5-1.1c-1.4-0.2-2.8-0.4-4.3-0.6l-0.9-6.8c2.5,0.2,5,0.5,7.5,0.7c34.8,3.4,69.8,4.6,105.1,4.1
					c13.4-0.1,26.6-0.4,39.8-0.9v0.4h7.9V452c23.9-1,47.6-2.7,71.1-4.9c0.1,0,0.1,0,0.2,0c4-0.3,8.1-0.7,12.2-1L70.3,455.1z"/>
				<path style="fill:none;stroke:#000000;stroke-miterlimit:10;" d="M-63.3,453.1c-35.3,0.5-70.4-0.7-105.1-4.1
					C-132.9,452.1-97.9,453.3-63.3,453.1z"/>
				<path style="fill:none;stroke:#000000;stroke-miterlimit:10;" d="M-15.7,451.8v0.7h-7.9v-0.4c0.7,0,1.5-0.1,2.3-0.1
					c1.4-0.1,2.7-0.1,4-0.2C-16.7,451.9-16.2,451.9-15.7,451.8z"/>
				<path style="fill:none;stroke:#000000;stroke-miterlimit:10;" d="M67.8,445.9c-4,0.3-8.1,0.7-12.2,1c4-0.4,8.1-0.7,12.1-1.2
					L67.8,445.9z"/>
				<path style="fill:none;stroke:#000000;stroke-miterlimit:10;" d="M-153.8,457.8v53.3l-15.3-0.9l-0.1-2.3l-1.6-52.3
					c2.8,0.4,5.6,0.7,8.5,1.1C-159.5,457.2-156.7,457.5-153.8,457.8z"/>
				<path style="fill:none;stroke:#000000;stroke-miterlimit:10;" d="M-145.4,458.8c-0.2,8.8-0.6,30.9-0.7,40.5c0,0.2,0,0.5,0,0.7
					c0,1.8-0.1,3.1-0.1,3.5c0,3.4-7.6,7.6-7.6,7.6v-53.3c0.5,0.1,1.1,0.1,1.6,0.2C-150,458.3-147.7,458.6-145.4,458.8z"/>
				<g>
					<path style="fill:none;stroke:#000000;stroke-miterlimit:10;" d="M-88.5,462.9v51.6h-15.3l-0.3-11.9V502l-1.2-39.9
						C-99.7,462.4-94.1,462.7-88.5,462.9z"/>
					<path style="fill:none;stroke:#000000;stroke-miterlimit:10;" d="M-80,463.2c-0.2,9.3-0.6,29.8-0.7,39.1c0,0.3,0,0.5,0,0.8
						c0,1.9-0.1,3.3-0.1,3.8c0,3.4-7.6,7.6-7.6,7.6v-51.6c0.5,0,1,0.1,1.5,0.1C-84.7,463.1-82.4,463.2-80,463.2z"/>
					<path style="fill:none;stroke:#000000;stroke-miterlimit:10;" d="M56.7,456.9L55.2,507l-0.1,4.2L39.8,512v-0.2v-53.1
						c3.1-0.3,6.2-0.6,9.3-1C51.6,457.4,54.2,457.1,56.7,456.9z"/>
					<path style="fill:none;stroke:#000000;stroke-miterlimit:10;" d="M39.8,458.7V512c0,0-7.6-4.3-7.6-7.6c0-0.6,0-2.7-0.1-5.6
						c0-0.3,0-0.7,0-1.1c-0.2-10.5-0.6-30-0.7-38.1c2.3-0.2,4.6-0.5,6.8-0.7C38.7,458.8,39.2,458.8,39.8,458.7z"/>
					<path style="fill:none;stroke:#000000;stroke-miterlimit:10;" d="M-8.8,462.4l-1.1,37.7l-0.1,1.3l-0.4,14h-15.2v-0.2v-52.1
						C-20,462.9-14.4,462.7-8.8,462.4z"/>
					<path style="fill:none;stroke:#000000;stroke-miterlimit:10;" d="M-25.6,463.1v52.3c0,0-7.6-4.3-7.6-7.6c0-0.6,0-2.6-0.1-5.3
						c0-0.4,0-0.8,0-1.2c-0.2-10.2-0.5-29.5-0.7-37.8c2.3-0.1,4.6-0.1,6.9-0.2C-26.7,463.2-26.1,463.2-25.6,463.1z"/>
				</g>
				<path style="fill:none;stroke:#000000;stroke-miterlimit:10;" d="M-74.5,512.8l12.3-0.5l-13.1,0.2h-0.3l-8.2,6.2L-84,519
					l-3.1,2.3l0.9,8.9l13.1-8.5l-1.9-8.5L-74.5,512.8z M62.7,515.8l-0.8-1l-88.7,1.9l-11.5-4.7H-39l1,0.7l-1.3,8.6l0,0h-33.1
					l-12.7,9.3l22.6,0.3l0,0l34.3,0.5l-1.3-1.3l-6.4-6.1l7.3,6.1l-0.5-10.6l-5.6-4.6l6.4,4.6L62.7,515.8z"/>
				<path style="fill:none;stroke:#000000;stroke-miterlimit:10;" d="M63.5,514.8l-0.9,14.8c-76.3,3.5-154.7,4.3-237.8-0.6
					l-2.6-13.3l2,0.1l-0.3,0.4l87.5,5.5l4.4-2.8l-3.1,2.3l0.9,8.9l13.1-8.4l-1.9-8.5l0.6-0.4l12.3-0.5h0.1l22.9-0.4l1,0.7l-1.3,8.6
					l0.5-8.9l-34.3,1.3v7.6h34l0,0h-33.1l-12.7,9.3l22.6,0.3l0,0l34.3,0.5l-1.3-1.3l-6.4-6.1l7.3,6.1l-0.5-10.6l-5.6-4.6l6.4,4.6
					l90.9-3.8l-0.8-1H63.5z"/>
			</g>
			<polygon style="fill:none;stroke:#000000;stroke-miterlimit:10;" points="-38.8,512.4 -39.2,521.4 -73.2,521.4 -73.2,513.7 			
				"/>
			<g>
				<g>
					<polygon style="fill:none;stroke:#000000;stroke-miterlimit:10;" points="-73.2,521.8 -86.4,530.2 -87.2,521.4 -84,519 
						-83.8,518.8 -75.6,512.6 -75.3,512.4 -75.3,512.6 -75.1,513.3 					"/>
					<polygon style="fill:none;stroke:#000000;stroke-miterlimit:10;" points="-28.6,530.2 -35.9,524.2 -39.2,521.4 -39.2,521.4 
						-38,512.7 -38,512.4 -34.7,515.1 -34.6,515.1 -29,519.7 					"/>
				</g>
				<polygon style="fill:none;stroke:#000000;stroke-miterlimit:10;" points="-28.2,531.5 -62.5,531 -62.5,531 -85.1,530.7 
					-72.3,521.4 -38.8,521.4 -35.9,524.2 -29.5,530.2 				"/>
			</g>
			<g>
				<path style="fill:none;stroke:#000000;stroke-miterlimit:10;" d="M-139.1,471.6c7.9,0.7,15.7,0.4,23.6,0V490
					c-7.9,1.1-15.7,0.1-23.6,0C-139.1,490-139.1,471.6-139.1,471.6z"/>
				<g>
					<rect x="-136.8" y="474.1" style="fill:none;stroke:#000000;stroke-miterlimit:10;" width="8.1" height="13.3"/>
					<rect x="-126.2" y="474.6" style="fill:none;stroke:#000000;stroke-miterlimit:10;" width="7.5" height="12.6"/>
				</g>
				<rect x="0.2" y="472.8" style="fill:none;stroke:#000000;stroke-miterlimit:10;" width="23.6" height="18.4"/>
				<g>
					<rect x="2.5" y="475.4" style="fill:none;stroke:#000000;stroke-miterlimit:10;" width="8.1" height="13.3"/>
					<rect x="13" y="475.9" style="fill:none;stroke:#000000;stroke-miterlimit:10;" width="7.5" height="12.6"/>
				</g>
				<rect x="-63.9" y="470.5" style="fill:none;stroke:#000000;stroke-miterlimit:10;" width="17.7" height="31.1"/>
				<rect x="-61.7" y="472.9" style="fill:none;stroke:#000000;stroke-miterlimit:10;" width="13.1" height="26.3"/>
				<g>
					<rect x="-95.4" y="424" style="fill:none;stroke:#000000;stroke-miterlimit:10;" width="7.9" height="28.7"/>
					<path style="fill:none;stroke:#000000;stroke-miterlimit:10;" d="M-15.7,424.1v27.5c-0.5,0-0.9,0.1-1.3,0.1
						c-1.5,0.1-3,0.1-4.4,0.2c-0.7,0.1-1.4,0.1-2.1,0.1v-27.9H-15.7z"/>
					<path style="fill:none;stroke:#000000;stroke-miterlimit:10;" d="M-15.7,451.7v0.9h-7.9V452c0.7,0,1.4-0.1,2.1-0.1
						c1.5-0.1,3-0.1,4.4-0.2C-16.6,451.7-16.1,451.7-15.7,451.7z"/>
				</g>
			</g>
			<g>
				<path style="fill:none;stroke:#000000;stroke-miterlimit:10;" d="M-91.5,452.4L-91.5,452.4L-91.5,452.4z"/>
				<path style="fill:none;stroke:#000000;stroke-miterlimit:10;" d="M-103.7,440c2.6-2.7,5.3-5.1,8.3-7.2v15.6L-103.7,440z"/>
				<path style="fill:none;stroke:#000000;stroke-miterlimit:10;" d="M-23.5,428.6v21.6c-11.8-9.4-41.4-22.9-64.1-1.8v-20.3
					C-67.9,418-43.2,418.3-23.5,428.6z"/>
				<path style="fill:none;stroke:#000000;stroke-miterlimit:10;" d="M-17,451.7l-0.2,0.2l-0.5,0.6h-3.1c-0.2-0.2-0.3-0.3-0.5-0.5
					c-0.1-0.1-0.1-0.1-0.2-0.2C-19.9,451.8-18.4,451.8-17,451.7z"/>
				<path style="fill:none;stroke:#000000;stroke-miterlimit:10;" d="M-7.8,440l-7.9,10v-16.7C-12.9,435.4-10.2,437.6-7.8,440z"/>
			</g>
		</g>
		<g>
			
				<text transform="matrix(1 0 0 1 -87.7108 441.1574)" style="fill:none;stroke:#000000;stroke-miterlimit:10; font-family:'Arial-Black'; font-size:13.6533;">S</text>
			
				<text transform="matrix(1 0 0 1 -78.3964 437.8975)" style="fill:none;stroke:#000000;stroke-miterlimit:10; font-family:'Arial-Black'; font-size:13.6533;">C</text>
			
				<text transform="matrix(1 0 0 1 -68.0879 435.2715)" style="fill:none;stroke:#000000;stroke-miterlimit:10; font-family:'Arial-Black'; font-size:13.6533;">H</text>
			
				<text transform="matrix(1 0 0 1 -56.7686 433.9146)" style="fill:none;stroke:#000000;stroke-miterlimit:10; font-family:'Arial-Black'; font-size:13.6533;">O</text>
			
				<text transform="matrix(1 0 0 1 -45.3885 434.4747)" style="fill:none;stroke:#000000;stroke-miterlimit:10; font-family:'Arial-Black'; font-size:13.6533;">O</text>
			
				<text transform="matrix(1 0 0 1 -34.2736 436.8886)" style="fill:none;stroke:#000000;stroke-miterlimit:10; font-family:'Arial-Black'; font-size:13.6533;">L</text>
			<path id="a" style="fill:none;stroke:#000000;stroke-miterlimit:10;" d="M-87.7,441.3c34-13.1,49.3-5.1,67.5-0.3"/>
		</g>
	</g>
</g>
</svg>
