<?xml version="1.0" encoding="utf-8"?>
<!-- Generator: Adobe Illustrator 17.0.0, SVG Export Plug-In . SVG Version: 6.00 Build 0)  -->
<!DOCTYPE svg PUBLIC "-//W3C//DTD SVG 1.1//EN" "http://www.w3.org/Graphics/SVG/1.1/DTD/svg11.dtd" [
	<!ENTITY ns_flows "http://ns.adobe.com/Flows/1.0/">
	<!ENTITY ns_extend "http://ns.adobe.com/Extensibility/1.0/">
	<!ENTITY ns_ai "http://ns.adobe.com/AdobeIllustrator/10.0/">
	<!ENTITY ns_graphs "http://ns.adobe.com/Graphs/1.0/">
]>
<svg version="1.1" id="Layer_1" xmlns:x="&ns_extend;" xmlns:i="&ns_ai;" xmlns:graph="&ns_graphs;"
	 xmlns="http://www.w3.org/2000/svg" xmlns:xlink="http://www.w3.org/1999/xlink" xmlns:a="http://ns.adobe.com/AdobeSVGViewerExtensions/3.0/"
	 x="0px" y="0px" width="256px" height="256px" viewBox="0 0 256 256" style="enable-background:new 0 0 256 256;"
	 xml:space="preserve">
<path style="fill:none;stroke:#000000;stroke-miterlimit:10;" d="M256,172.5c-5,1.8-12.8,0.9-18.7,1.9c-3.6,0.7-7.3,1.5-11,1.5
	c-6.4,0-12.9,0.3-19.4,0.3c-2.6,0-5.5-0.9-7.7-0.5c-1.1,0.2-2.7,1.2-4.3,1.5c-1.6,0.2-3.2,0.2-4.8-0.2c-0.7-0.2-2.7-1.4-3.3-1.2
	c-0.4,0.2-0.5,1.6-1,2.1c-2.2,2.5-8.5,4-11.7,4.7c-10.7,2-22.1,2.9-33.1,3.8c-26.5,2.4-51-4.6-75.7-12.2
	c-12.4-3.8-26.8-5.9-37.6-11.9c-2.4-1.3-5.9-3-7.4-5c-2.3-3,1.2-5,4-6.4c3.8-1.8,8.3-1.5,12.7-1.5c3.8,0,7.7-1.8,11.4-2.7
	c2-0.5,6.9-1,5.8-3.4c-0.9-1.9-4.9-1.6-7.1-1.9c-2.7-0.4-4-0.9-6.1-2.4c-7.1-5-12-10.6-14.7-18.7c-0.6-1.8,0.1-3.8-0.4-5.4
	c-0.4-1.2-2-1.9-3.2-2.9c-3.8-3-6.3-6.7-8.7-11c-2.1-3.7-4.4-6.2-6-9.8c-0.8-1.9-2-3.9-2.7-6c-0.5-1.6-0.1-3.4-0.5-4.3
	c-0.4-0.9-2.6-1.8-3.2-2.6c-1-0.9-1.5-2.1-1.5-3.8c0-3.8,3-3.5,6.4-3.4c4.4,0.1,7.9-0.2,12.2-0.2c3.4,0,6.4-1.5,10.3-1.3
	c2.7,0.2,5.1,0.9,7.7,1.5c2.6,0.5,3.6-0.2,6-0.8c4.7-1.3,11.1-1.8,16.1-0.5c3.5,0.9,6.5,3.4,8.8,4.1c1.5,0.4,2-0.1,3.5-0.5
	c3-0.8,6.3-0.4,9.3-1.2c10.7-2.7,22.5-0.9,32.8,1.5c9.9,2.2,17.6,6.2,25.4,12.2c6.6,5.2,11.8,13.5,15.9,20.1c2.4,3.8,3.7,7.7,4.8,12
	c0.5,2.3,0.8,4.9,1.8,7.1c0.7,1.6,1.6,1.8,2.6,2.7c1.4,1.3,2.3,2.1,4.7,3c1.6,0.5,3.4,1.3,4.7,2.3c1.9,1.5,3.8,4.9,5.3,7.1
	c1.4,1.9,1.1,4.5,0.8,7.1c3.9,2.4,10.3,4.5,15.3,6c3.7,1.1,6.5,4.9,10.3,3.4c4.1-1.6,7.5-4.7,12-5.8c3.5-0.9,6.6-2.7,10.2-3.2
	c4.4-0.5,8.5,1,12.7,1.3c2,0.1,6,0.1,7.7,1.3c2.2,1.5,0.1,1.7-1.9,1.9c-6,0.5-10.4-0.6-16.4,1.8c-5.6,2.3-11.2,4.4-16.3,6.9
	c-2.6,1.3-3.5,1.6-3.8,4.2c-0.4,2.7,0.5,4.3,3.5,4.3c5.7,0,11.7,1,17.6,0.2c4.9-0.6,9.7-1.6,14.8-1.3c3,0.2,8.9,0.1,10.5,2.3
	C255.8,171.1,256.1,171.9,256,172.5"/>
<path style="fill:none;stroke:#000000;stroke-miterlimit:10;" d="M227.5,173.2c-6.9,0.7-13.6,0.9-20.7,0.5c-1.2-0.1-3.8,0.1-4.7-0.5
	c-1.6-1.1,0.7-1.4,0.2-2.7c-1.1-2.7-3.8,2.5-5,3.2c-5.1,3.1-11.6-1.3-16.9-2.9c-3-0.9-19.2-2.3-19.2,1.3c0.1,2.6,9.3,0.1,11.3,0
	c3.8-0.1,10,1.5,12.2,3.5c-1.8,2.2-9.1,4.1-11.9,4.7c-3.8,0.7-6.9,1.5-10.3,1.9c-8.1,1.2-15.6,1.1-23.7,2.3
	c-9.9,1.5-21.7-0.1-31.5-1.6c-12.3-1.9-25.5-5.5-37.3-9.5c-14.1-4.7-34.5-7.5-45.7-16.2c-0.7-0.5-1-0.9-1.8-1.3
	c1.9-4.4,9.1-3.4,14.3-3.4c-0.9,5.4,1.4,8.8,6.3,10c6.6,1.6,16.3,3.1,23.5,1.8c3.4-0.6,4.7-1.8,7.5,0.3c2.3,1.8,3.7,3,6.1,4.3
	c5.9,3.4,12.1,5.4,19.8,7.2c8.5,2.1,17.3,3.9,26.3,4.2c7.2,0.2,15.5-2.3,20.7-4.7c7.6-3.5,15.4-8.7,21.7-14.3c2.6-2.3,5.2-5.2,7.1-8
	c2-3.1,1.9-3.3,5.7-1.9c3,1.1,6.1,2.4,9.5,3.5c2.7,0.9,5.6,1.2,7.1,3c0.7,1-0.4,1.9,1.6,2.3c1,0.2,2.9-0.4,4-0.7
	c3.2-0.8,5.4-3.2,8.7-4.7c2.9-1.3,14.6-6.4,16.9-4.2c-4.1,4.1-14.4,6.4-19.8,9c-3.2,1.5-2.4,1.9-2.7,5c-0.2,2.1-1.5,4-2.4,5.7
	c1,1,7.1,1.5,9.5,1.8C217.1,172.4,225.6,171.3,227.5,173.2"/>
<path style="fill:none;stroke:#000000;stroke-miterlimit:10;" d="M171.4,175.8c-0.7,0.5-8.3,2.7-7.4,0.5
	C164.3,175.4,172.2,173.3,171.4,175.8"/>
<path style="fill:none;stroke:#000000;stroke-miterlimit:10;" d="M176.5,146c-2.5,6.3-6.7,11.4-12,15.5c-6.8,5-16.5,11.7-24.1,14
	c-15.5,4.6-35,0.9-50.2-5c-6.5-2.5-10.5-5-15.6-8.8c-4.9-3.7-10.9-7.1-14.5-11.7c-1.2-1.5-3.5-5.2-3.5-7.4c-0.1-2.3,2.2-3.2,3.5-5.3
	c1.9-2.9,2.8-6.3,4.2-9.5c1.3-3.1,3.3-5.4,4.7-8.2c2.7-5.8,2.7-13.1,4-19.2c1.6-7.2-2.1-12.5-2.9-19.2c-0.4-3.5,0-4.9,3.2-5.3
	c3.6-0.5,7.7-1,11.4-1.5c8.2-1,16.4-0.7,24.1,1.2c14.6,3.4,26.1,8.1,34.5,19.3c4.6,6.1,10.2,13,12.2,19c1,2.9,1.3,5.9,2.1,9.3
	c0.6,3,2.7,5.4,3,8.3c0.4,3.7-1,7.1-1,10.8c2-1.3,3.2-6.8,4-9.8c0.5,0.5,1.2,2.1,1.8,2.3c1,0.2,0.9-1.2,1.9-1.5
	c1.7-0.5,4.5,1.5,5.3,2.4c1.3,1.4,1.6,3.8,2.7,5.2C176.8,142.4,177.8,143.1,176.5,146"/>
<path style="fill:none;stroke:#000000;stroke-miterlimit:10;" d="M168.7,147.8c-0.5,0.7-1.9,1.7-2.3,0.5c-0.2-0.6,0.9-4,1.3-4.5
	C170.3,140.2,169.1,146.4,168.7,147.8"/>
<path style="fill:none;stroke:#000000;stroke-miterlimit:10;" d="M158.1,175.5c-0.9,1-3.5,4-2.7,0.7
	C155.6,174.7,158.7,172.8,158.1,175.5"/>
<path style="fill:none;stroke:#000000;stroke-miterlimit:10;" d="M163.8,148.3c-0.9,1.6-1.3,3.3-3,3.7c0.1-2,2.9-13.4,4-13.7
	C167.8,137.7,164.3,146.9,163.8,148.3"/>
<path style="fill:none;stroke:#000000;stroke-miterlimit:10;" d="M152.9,159.3c-1.8,1.5-6.7,0.4-9.3,0c-4.4-0.6-8.8-2.5-13-3.8
	c-5-1.6-10.2-4.4-15-7.2c-10.3-6.2-17.8-14.2-28.8-18.2c-2.7-1-4.9-1.4-7.9-1.1c-2.4,0.2-6.6,2.1-8.7,1.6c-4-0.9,2.1-3.7,4.3-3.7
	c3.3,0,6.3-0.9,9.6-0.2c7.1,1.5,11.3,5,16.9,8.8c5.5,3.8,9.1,6.2,14.5,9.7c4.4,2.9,9.8,5.5,14.7,7.4c4.1,1.6,8.3,3,12.2,4
	C144.2,157.1,153.6,157.6,152.9,159.3"/>
<path style="fill:none;stroke:#000000;stroke-miterlimit:10;" d="M152.9,150.5c-4.9,2.9-16.7-3.1-21.4-5.5
	c-5.8-2.9-10.5-6.6-15.8-12c-9.6-10-18.9-23.9-33.5-22.7c-1.8,0.2-8.9,2.6-5.8-1c1.5-1.7,6.3-1.7,8.7-1.6c6.7,0.4,11.8,4.1,15.9,7.2
	c5.2,4,10.5,10.8,16.1,16.2c5,4.9,7.8,7.2,13,10.2c3.2,1.8,6.9,3.4,10.8,4.8C143.1,146.9,153.6,148.7,152.9,150.5"/>
<path style="fill:none;stroke:#000000;stroke-miterlimit:10;" d="M144.9,168c-1.9,1.8-6,1.2-9,1.2c-4.2-0.1-8.4-0.1-12.4-0.8
	c-8-1.4-15.1-5.8-21.7-8.7c-6.8-2.9-14-5-19.5-8.5c-5.3-3.4-9.7-7.3-16.2-7.9c-1.9-0.2-6.8-0.8-3.5-2.7c2.1-1.3,7.8,0.9,9.8,1.6
	c5.2,1.9,9,5.8,13.3,8.2c7.4,4,16.5,6.6,24,10.3c6.4,3.2,12.7,5.2,20.6,6c4.8,0.4,10.2,0.8,14.8,0
	C145.2,167.1,145.2,167.5,144.9,168"/>
<path style="fill:none;stroke:#000000;stroke-miterlimit:10;" d="M151.2,123.6c-4.4,1.8-14.2-5-17-6.8c-1.9-1.2-4.3-2.5-6-3.7
	c-2.3-1.6-5.7-5.2-8.3-7.4c-4.2-3.5-9.8-7-14.7-8.7c-5.8-2-13.3-2.1-19.3-0.7c-1.9,0.5-7.5,3.8-8.5,2.7c-1.6-1.6,3.3-3.7,4.8-4.2
	c5.7-1.9,13.4-2.6,19.6-1.3c5.7,1.2,11,4,15.5,7.4c4.4,3.3,9.1,8,14,11c2.7,1.6,5.5,3.4,8.5,5c2.1,1,11,3.8,11.9,6
	C151.5,123.2,151.3,123.5,151.2,123.6"/>
<path style="fill:none;stroke:#000000;stroke-miterlimit:10;" d="M132.3,97.1c-5.2-0.5-9.6-6.4-14.7-8.7c-6.8-3-12.6-5.2-20.3-6.1
	c-3.2-0.4-8.8-1.5-12.2-0.4c-2.3,0.7-8.9,3.2-10.3,2.7c-3.3-1.2,2.1-3.1,3.4-3.5c2.7-0.9,6-1.6,8.8-1.8c8.5-0.5,17.9,1.6,25.2,4.3
	c7.5,2.7,12.2,6.7,18,11.3C131.5,95.7,132.6,96.4,132.3,97.1"/>
<path style="fill:none;stroke:#000000;stroke-miterlimit:10;" d="M101.3,165.3c-6.4,0.1-14.9-3.7-20.3-6.4c-2.4-1.3-4.3-2.2-6.4-3.7
	c-0.2-0.2-2.7-2.6-0.9-2.6c1.6,0,3.5,1.2,4.4,1.8c2.9,1.6,5,3,8.3,4.5C88,159.6,101.5,163.5,101.3,165.3"/>
<path style="fill:none;stroke:#000000;stroke-miterlimit:10;" d="M68.2,161c-1.8,1.3-4.7,1.1-7.4,1c-5.5-0.3-11.5-0.7-16.7-1.9
	c-5.8-1.3-7-6.4-1.1-10c2.1-1.3,5.4-1.4,6.8-2.9c0.1,0.1-0.1,0.4,0,0.5c0.5-0.3,3.5-0.5,4.7-0.3c2.2,0.2,2.2,1.9,3.7,3.8
	c3,3.9,6.8,6.5,10.5,9.3C68.4,160.5,68.2,160.7,68.2,161"/>
<path style="fill:none;stroke:#000000;stroke-miterlimit:10;" d="M66.7,118.5c-1.5,2.7-3.4,4.5-4.7,7.5c-1.5,3.5-2.4,7.4-4.3,10.3
	c-2.8,4-10.6,3.4-14.8,0.8c-5.4-3.5-11.1-8.7-13.2-14c-1.1-2.8-2.4-6.8-0.8-9.3c1.6-2.5,4.8-3.5,6.3-6.1c1.9-3.5,2.5-7.5,3.3-11.4
	c0.7-3.3,0.4-7.3,1.3-10.4c1-3.2-0.3-9.7,1.5-12.2c1-1.3,6-1.5,8.1-1.7c5.5-0.5,13.9,0.5,16.7,3.7c1.6,1.8,1.1,4.9,1.5,7.4
	c0.4,2.5,2,4.9,2.6,7.4c1,4.3,0.1,7.7-0.8,11.6c-0.4,2.1-0.5,4.9-0.5,7C69,112.2,67.5,115.5,66.7,118.5"/>
<path style="fill:none;stroke:#000000;stroke-miterlimit:10;" d="M64.2,115.8c-2.6,0.5-4.6-2.6-6-3.7c-3-2.5-4.8-6-7.5-9
	c-2.3-2.4-3.9-2.7-6.4-3.2c-2.7-0.5-2.2-2.9,1-3c3.9-0.2,8.2,5.5,10.5,8.7C57.2,107.7,65,113.9,64.2,115.8"/>
<path style="fill:none;stroke:#000000;stroke-miterlimit:10;" d="M68.8,98.9c-6.3,1.5-9.8-6-14.5-8.3c-2.4-1.3-4.1-1.4-7.1-0.8
	c-3.4,0.7-2.7-1.6-0.3-2.7c3.8-1.6,7.9,0.4,10.6,2.4c2.6,1.9,4.4,4.9,7.1,6.8C65.8,96.9,69.3,97.3,68.8,98.9"/>
<path style="fill:none;stroke:#000000;stroke-miterlimit:10;" d="M56.8,130.6c-4.9,1.6-9.2-6-11.6-9.2c-2.2-3-4.9-6.7-6.6-9
	c-1.8-2.5,1.1-3.2,2.9-1.5c3.8,3.8,5.8,9.8,9.5,13.8C52.3,126.3,57.2,129.6,56.8,130.6"/>
<path style="fill:none;stroke:#000000;stroke-miterlimit:10;" d="M47.9,129.9c-5.1,0.5-11.1-5.2-12.8-8.7c-0.9-1.9-1.7-7.1,1-3.7
	c2.1,2.7,2.6,5,5,7.1C42.5,125.9,48,128.8,47.9,129.9"/>
<path style="fill:none;stroke:#000000;stroke-miterlimit:10;" d="M61.3,82.3c-2.7-0.1-5.9-2.4-8.8-2.4c-2.2,0-6.4,2.3-7.5,1.3
	c-2.4-2.1,2.6-3.3,4.5-3.5c3.1-0.4,5.1,0.1,7.7,1.2C58.8,79.5,61.5,80.4,61.3,82.3"/>
<path style="fill:none;stroke:#000000;stroke-miterlimit:10;" d="M33.9,104c-1.5,4.6-5.6,9.2-10.8,5.5c-2.5-1.8-4.4-5-6.1-8
	c-2.4-4.3-0.7-5.2,1.6-8.8c1.5-2.4,2.9-6.4,3.3-10c0.4-2.6-0.6-6.2,0-8.2c1-3.2,14.4-2.6,16.2,0.3c1,1.7,0.1,5.7-0.2,7.7
	c-0.4,3.1-0.4,6.1-0.8,9.2C36.7,96,35.7,100.2,33.9,104"/>
<path style="fill:none;stroke:#000000;stroke-miterlimit:10;" d="M30.5,103.8c-3-0.1-10-4.7-9.8-7.2c0.3-3.3,3.5,1.2,4.3,1.9
	C27.1,100.4,30.7,102,30.5,103.8"/>
<path style="fill:none;stroke:#000000;stroke-miterlimit:10;" d="M32.5,97.1c-1.8-0.1-9.1-4.4-8.5-6.6c0.5-2.1,3,0.6,3.5,1.2
	C29,93,32.4,95,32.5,97.1"/>
<path style="fill:none;stroke:#000000;stroke-miterlimit:10;" d="M34.1,88.8c-1.5,0-11.4-3.3-9-5C27.4,82.2,33.9,86.6,34.1,88.8"/>
<path style="fill:none;stroke:#000000;stroke-miterlimit:10;" d="M34.7,80.7c-1.9,0.2-5-1-7.5-1c-2.2,0-5-0.5-2.3-2.4
	C27,75.9,35.9,78.1,34.7,80.7"/>
<path style="fill:none;stroke:#000000;stroke-miterlimit:10;" d="M17.5,88.6c-0.5,1.3-2.6,6.2-4.2,6.3c-2.3,0.1-2.8-3.7-3.3-5.3
	c-1-2.7-2.8-4.4-1.9-7.4c0.7-2.3,2.6-6,4.2-7.4c1-0.8,2-1.2,3.8-1.3c2.4-0.1,2.8,1.2,3.2,3.8C19.8,81,18.9,85.8,17.5,88.6"/>
<path style="fill:none;stroke:#000000;stroke-miterlimit:10;" d="M17,81c-2.6-0.3-6.7-1.9-5.7-4.3C13.5,77.3,18.2,79.1,17,81"/>
<path style="fill:none;stroke:#000000;stroke-miterlimit:10;" d="M14.2,84.7c-1.6,0.1-6.1-1.2-3.5-2.7C12.1,81.1,14.7,83,14.2,84.7"
	/>
<path style="fill:none;stroke:#000000;stroke-miterlimit:10;" d="M7.1,76.8c-0.4,2.5-3.6,1.2-3.8-0.8c-0.4-3.2,3-2.8,5-1.9
	C7.8,75,7.5,76,7.1,76.8"/>
</svg>
