<?xml version="1.0" encoding="utf-8"?>
<!-- Generator: Adobe Illustrator 17.0.0, SVG Export Plug-In . SVG Version: 6.00 Build 0)  -->
<!DOCTYPE svg PUBLIC "-//W3C//DTD SVG 1.1//EN" "http://www.w3.org/Graphics/SVG/1.1/DTD/svg11.dtd" [
	<!ENTITY ns_flows "http://ns.adobe.com/Flows/1.0/">
	<!ENTITY ns_extend "http://ns.adobe.com/Extensibility/1.0/">
	<!ENTITY ns_ai "http://ns.adobe.com/AdobeIllustrator/10.0/">
	<!ENTITY ns_graphs "http://ns.adobe.com/Graphs/1.0/">
]>
<svg version="1.1" id="Layer_1" xmlns:x="&ns_extend;" xmlns:i="&ns_ai;" xmlns:graph="&ns_graphs;"
	 xmlns="http://www.w3.org/2000/svg" xmlns:xlink="http://www.w3.org/1999/xlink" xmlns:a="http://ns.adobe.com/AdobeSVGViewerExtensions/3.0/"
	 x="0px" y="0px" width="256px" height="256px" viewBox="0 0 256 256" style="enable-background:new 0 0 256 256;"
	 xml:space="preserve">
<circle style="fill:none;stroke:#000000;stroke-width:1.629;stroke-miterlimit:3.864;" cx="83.2" cy="128.6" r="12.3"/>
<circle style="fill:none;stroke:#000000;stroke-width:1.629;stroke-miterlimit:3.864;" cx="84" cy="128.2" r="8.2"/>
<circle style="fill:none;stroke:#000000;stroke-width:1.629;stroke-miterlimit:3.864;" cx="84" cy="128.2" r="6.5"/>
<polygon style="fill:none;stroke:#000000;stroke-width:1.629;stroke-miterlimit:3.864;" points="75.5,143.6 78.7,135.8 82.7,137 
	79.5,144.8 "/>
<path style="fill:none;stroke:#000000;stroke-width:1.629;stroke-miterlimit:3.864;" d="M111,53.3c0,0,3.4,0.2,4,4.1
	c0.6,4-0.3,3.8-0.3,3.8s-3.8,1.8-9.8,2.6c-1.5,0.2-2.9-2.5-3.4-3.6c-0.4-1.1-1-2.6,0.5-3.5C103.6,56,107.2,54.2,111,53.3L111,53.3z"
	/>
<path style="fill:none;stroke:#000000;stroke-width:1.629;stroke-miterlimit:3.864;" d="M100.2,60c0.7,0-8.7,2.6-11.9,9.9
	c-2.6,6,8.4,26.4,38.4,53.8l2.6-3.5C99.4,92.8,88.8,75.7,92.2,69.9c3.4-5.8,10.5-6.7,9.8-6.7c0,0,0.7-1,0.3-2
	C101.8,60.2,100.3,60,100.2,60L100.2,60z"/>
<path style="fill:#FFFFFF;" d="M71.6,165c0,0,6.4,4.1,16.1,3.1c0,0-0.6-1-5-1.2c-4.5-0.2-6.6-1.3-7.5-1.6
	C74.2,165,71.6,165,71.6,165"/>
<path style="fill:none;stroke:#000000;stroke-width:1.629;stroke-miterlimit:3.864;" d="M179.8,101l-4.3,1.5
	c-14-41.5-28.9-50.7-31.2-51.5c-2.2-0.8-15.5,1.8-15.5,1.8l-2-3.4c0,0,10.8-2.1,13.8-1.8c3,0.3,5.6,0,8.3,2.6
	c2.7,2.6,14.5,10.9,25.5,36.8C177.2,93.5,179.1,98.3,179.8,101L179.8,101z"/>
<path style="fill:none;stroke:#000000;stroke-width:1.629;stroke-miterlimit:3.864;" d="M128.7,55.2c-1,1.1-6.8,4.3-9,4.8
	c-2.2,0.5-3.2-0.8-3.9-1.8c-0.6-1-1.6-4.8,0.8-6.1c4.3-2.3,9.2-3,9.2-3S129.8,50,128.7,55.2L128.7,55.2z"/>
<path style="fill:none;stroke:#000000;stroke-width:1.629;stroke-miterlimit:3.864;" d="M80.6,145.8c-0.1,0.3-5.2,14-5.2,18.8
	c0,7,3.6,16.9,11.8,21.2c14.2,7.4,22.2-18.2,54.1,5.2c4.6,3.4,10.8,8.6,16.3,10.8c9.6,3.8,21.6,0.2,25.1-5.5
	c7.3-11.5,4.1-21.2,2.2-25.4c-1.6-3.6-12.9-22.1-16.7-28.2c-7.3,1.7-16.5-0.3-26.6-6.8c-5.3-3.4-10.5-7.5-14.8-11.8
	c0,0,0.9-2.4,2.3-3.3c1.1-0.7,3.4-1,3.4-1c1.2,1.3,23,22.3,35.7,15.8c13.2-6.7,7.2-31.6,6.8-32.8c0,0,2.1-1.4,3.7-1.7
	c1.4-0.2,3.7,0.2,3.7,0.2s2,7.4,1.8,15.9c-0.2,10.6-3.6,18.2-9.3,22.4c1.5,2.5,4.2,6.9,7,11.5c9.8,16.2,19.5,29.3,7.4,48.3
	c-5.8,9.1-22.3,13.2-34.8,8.3c-13.6-5.4-26.4-24.2-42.5-19.6c-9.5,2.7-18.2,8.7-28.6,3.2c-11.5-6-15.5-18.8-15.5-26.9
	c0-5.2,3.6-15.6,5.6-20.8c0,0,2.6-0.3,4.1,0.2C78.9,144.4,80.6,145.8,80.6,145.8L80.6,145.8z"/>
</svg>
