<?xml version="1.0" encoding="utf-8"?>
<!-- Generator: Adobe Illustrator 17.0.0, SVG Export Plug-In . SVG Version: 6.00 Build 0)  -->
<!DOCTYPE svg PUBLIC "-//W3C//DTD SVG 1.1//EN" "http://www.w3.org/Graphics/SVG/1.1/DTD/svg11.dtd" [
	<!ENTITY ns_flows "http://ns.adobe.com/Flows/1.0/">
	<!ENTITY ns_extend "http://ns.adobe.com/Extensibility/1.0/">
	<!ENTITY ns_ai "http://ns.adobe.com/AdobeIllustrator/10.0/">
	<!ENTITY ns_graphs "http://ns.adobe.com/Graphs/1.0/">
]>
<svg version="1.1" id="Layer_1" xmlns:x="&ns_extend;" xmlns:i="&ns_ai;" xmlns:graph="&ns_graphs;"
	 xmlns="http://www.w3.org/2000/svg" xmlns:xlink="http://www.w3.org/1999/xlink" xmlns:a="http://ns.adobe.com/AdobeSVGViewerExtensions/3.0/"
	 x="0px" y="0px" width="256px" height="256px" viewBox="0 0 256 256" style="enable-background:new 0 0 256 256;"
	 xml:space="preserve">
<title>table</title>
<g id="Layer_2">
	<g id="Layer_1-2">
		<g>
			<path d="M232.4,34.9c2.2,0,4.2,0.9,5.5,2.5l0,0l0,0l6.1,6.9c2.7,3.1,2.4,7.8-0.7,10.6l0,0l0,0c-1.7,1.5-3.6,1.8-4.9,1.8h-221
				c-4.1,0-7.5-3.4-7.5-7.5c0-1.8,0.7-3.6,1.9-5l6-6.8c1.4-1.6,3.5-2.6,5.6-2.6H232.4 M232.4,24.9H23.6c-5,0-9.8,2.2-13.1,5.9
				l-6.1,6.9C1.6,40.9,0,45,0,49.3C0,59,7.9,66.8,17.5,66.8h221c4.3,0,8.4-1.5,11.6-4.4c7.2-6.4,7.9-17.5,1.5-24.7l-6.1-6.9
				C242.2,27,237.4,24.9,232.4,24.9L232.4,24.9z"/>
		</g>
		<path d="M141.9,200h-31.3L80.8,57.2h90.9L141.9,200z M121.7,186.3h9.1l24.1-115.5H97.6L121.7,186.3z"/>
		<path d="M126.5,227c-5.5,0-54.1-0.6-54.1-20.1s48.6-20.1,54.1-20.1s54.1,0.6,54.1,20.1S132,227,126.5,227z M87.4,206.8
			c4.8,2.7,18.3,6.5,39.1,6.5s34.3-3.7,39.1-6.5c-4.8-2.7-18.4-6.5-39.1-6.5S92.2,204.1,87.4,206.8z"/>
	</g>
</g>
</svg>
