<?xml version="1.0" encoding="utf-8"?>
<!-- Generator: Adobe Illustrator 17.0.0, SVG Export Plug-In . SVG Version: 6.00 Build 0)  -->
<!DOCTYPE svg PUBLIC "-//W3C//DTD SVG 1.1//EN" "http://www.w3.org/Graphics/SVG/1.1/DTD/svg11.dtd" [
	<!ENTITY ns_flows "http://ns.adobe.com/Flows/1.0/">
	<!ENTITY ns_extend "http://ns.adobe.com/Extensibility/1.0/">
	<!ENTITY ns_ai "http://ns.adobe.com/AdobeIllustrator/10.0/">
	<!ENTITY ns_graphs "http://ns.adobe.com/Graphs/1.0/">
]>
<svg version="1.1" id="Layer_1" xmlns:x="&ns_extend;" xmlns:i="&ns_ai;" xmlns:graph="&ns_graphs;"
	 xmlns="http://www.w3.org/2000/svg" xmlns:xlink="http://www.w3.org/1999/xlink" xmlns:a="http://ns.adobe.com/AdobeSVGViewerExtensions/3.0/"
	 x="0px" y="0px" width="256px" height="256px" viewBox="0 0 256 256" style="enable-background:new 0 0 256 256;"
	 xml:space="preserve">
<title>tea</title>
<g id="Layer_2">
	<g id="Layer_1-2">
		<path d="M208.9,203.6h-39.3L182,106h46.3c8,0,14.4,6.5,14.4,14.5c0,1.3-0.2,2.7-0.6,3.9l-19.4,68.7
			C221,199.3,215.3,203.6,208.9,203.6z M186.5,188.6h22l19.2-67.6h-32.5L186.5,188.6z"/>
		<path d="M162.1,256H51.9c-9,0-16.7-6.7-17.8-15.7L13.3,78.6c-1.2-9.9,5.8-18.9,15.6-20.1c0.7-0.1,1.5-0.1,2.2-0.1h151.6
			c9.9,0,18,8.1,17.9,18.1c0,0.7,0,1.5-0.1,2.2l-20.7,161.7C178.7,249.3,171.1,256,162.1,256z M31.2,73.3c-0.9,0-1.7,0.4-2.3,1
			c-0.6,0.7-0.9,1.5-0.7,2.4l20.7,161.7c0.2,1.5,1.5,2.6,3,2.6h110.2c1.5,0,2.8-1.1,3-2.6l20.7-161.7c0.2-1.6-0.9-3.1-2.6-3.4
			c-0.1,0-0.3,0-0.4,0H31.2z"/>
		<path d="M109.1,73.3c-4.1,0-7.5-3.4-7.5-7.5c0-2.3,1.1-4.5,2.9-5.9c2.2-1.8,6.6-7.1-0.8-16.4c-13.8-17.4-3.1-34.8,4.5-41.6
			c3.1-2.8,7.8-2.5,10.6,0.6c2.8,3.1,2.5,7.8-0.6,10.6c-1.9,1.8-10.9,11-2.8,21.2c5.6,7,8,14.3,7.2,21.5c-0.8,6.3-4,12-8.9,16
			C112.4,72.8,110.8,73.3,109.1,73.3z"/>
	</g>
</g>
</svg>
