<?xml version="1.0" encoding="utf-8"?>
<!-- Generator: Adobe Illustrator 17.0.0, SVG Export Plug-In . SVG Version: 6.00 Build 0)  -->
<!DOCTYPE svg PUBLIC "-//W3C//DTD SVG 1.1//EN" "http://www.w3.org/Graphics/SVG/1.1/DTD/svg11.dtd" [
	<!ENTITY ns_flows "http://ns.adobe.com/Flows/1.0/">
	<!ENTITY ns_extend "http://ns.adobe.com/Extensibility/1.0/">
	<!ENTITY ns_ai "http://ns.adobe.com/AdobeIllustrator/10.0/">
	<!ENTITY ns_graphs "http://ns.adobe.com/Graphs/1.0/">
]>
<svg version="1.1" id="Layer_1" xmlns:x="&ns_extend;" xmlns:i="&ns_ai;" xmlns:graph="&ns_graphs;"
	 xmlns="http://www.w3.org/2000/svg" xmlns:xlink="http://www.w3.org/1999/xlink" xmlns:a="http://ns.adobe.com/AdobeSVGViewerExtensions/3.0/"
	 x="0px" y="0px" width="256px" height="256px" viewBox="0 0 256 256" style="enable-background:new 0 0 256 256;"
	 xml:space="preserve">
<path style="fill:none;stroke:#000000;stroke-width:3;stroke-miterlimit:10;" d="M241.2,217.1c-0.6,0-1.2,0.1-1.7,0.1v-0.1H241.2z"
	/>
<path style="fill:none;stroke:#000000;stroke-width:3;stroke-miterlimit:10;" d="M243.6,218.8l-0.8,22.4h-4.2l0.9-22.1
	C240.8,218.9,242.2,218.9,243.6,218.8z"/>
<path style="fill:none;stroke:#000000;stroke-width:3;stroke-miterlimit:10;" d="M48.9,39.9h159.6V136H48.9V39.9z"/>
<path style="fill:none;stroke:#000000;stroke-width:3;stroke-miterlimit:10;" d="M51.2,43.5h154.7V136H51.2V43.5z"/>
<path style="fill:none;stroke:#000000;stroke-width:3;stroke-miterlimit:10;" d="M56.7,142.9v12c-0.8,0-1.5,0-2.3,0v-12H56.7z"/>
<path style="fill:none;stroke:#000000;stroke-width:3;stroke-miterlimit:10;" d="M56.7,191.3v4.6c-0.8-0.1-1.5-0.1-2.3-0.2v-4.5
	C55.1,191.3,55.8,191.2,56.7,191.3z"/>
<path style="fill:none;stroke:#000000;stroke-width:3;stroke-miterlimit:10;" d="M203.4,142.9L203.4,142.9l0,13.9
	c-0.8,0-1.7,0-2.5,0l0-13.9v-0.2L203.4,142.9z"/>
<path style="fill:none;stroke:#000000;stroke-width:3;stroke-miterlimit:10;" d="M43.1,140.7l5.1-4.5l160.3,0.2l6.7,4.1L43.1,140.7z
	"/>
<path style="fill:none;stroke:#000000;stroke-width:3;stroke-miterlimit:10;" d="M176.2,129.9h25.2v4.2h-25.2V129.9z"/>
<path style="fill:none;stroke:#000000;stroke-width:3;stroke-miterlimit:10;" d="M176.2,132.1h25.2v5.6h-25.2V132.1z"/>
<path style="fill:none;stroke:#000000;stroke-width:3;stroke-miterlimit:10;" d="M65.4,135.4h10.5v2.1H65.4V135.4z"/>
<path style="fill:none;stroke:#000000;stroke-width:3;stroke-miterlimit:10;" d="M82.1,135.4h6.5v2.1h-6.5V135.4z"/>
<path style="fill:none;stroke:#000000;stroke-width:3;stroke-miterlimit:10;" d="M112.5,183.4L112.5,183.4c-0.1-0.7-0.1-1.4-0.2-2
	h0.1C112.4,182.1,112.4,182.7,112.5,183.4z"/>
<path style="fill:none;stroke:#000000;stroke-width:3;stroke-miterlimit:10;" d="M43.1,140.7h172.1v2.2H43.1V140.7z"/>
<path style="fill:none;stroke:#000000;stroke-width:3;stroke-miterlimit:10;" d="M82.6,199.2c-0.6-4.6-5.5-7-11.5-7.3
	c-8.4-0.5-12.2-0.6-14.5-0.6c-0.9,0-1.6,0-2.3,0.1c-2.5,0.1-4.5,0.3-18.5-0.1c-8.1-0.3-11.4-4.2-11-9.4c0.4,4.3,3.9,7.4,11,7.6
	c14,0.5,16,0.2,18.5,0.1c0.6,0,1.3-0.1,2.3-0.1c2.3,0,6.1,0.2,14.5,0.6C77.9,190.5,83.2,193.4,82.6,199.2z"/>
<path style="fill:none;stroke:#000000;stroke-width:3;stroke-miterlimit:10;" d="M114.3,209.9c0,3-9.8,3.3-11.9,3.3h-0.1
	c-0.2,0-0.3,0-0.3,0c-1.1,0-2.4,0.1-3.8,0c-3,0-6.5-0.1-9.8-0.1c0.2-0.6,0.4-1.2,0.6-1.8c4.6,0.1,9.5,0.2,12.9,0.1
	c0,0,10.9,0,12.2-2.8C114.2,209.1,114.3,209.5,114.3,209.9z"/>
<path style="fill:none;stroke:#000000;stroke-width:3;stroke-miterlimit:10;" d="M114.2,208.7c-1.3,2.8-12.2,2.8-12.2,2.8
	c-3.4,0.1-8.3,0-12.9-0.1c0.4-1.2,0.9-2.5,1.3-3.7c0.9-2.8-3.8-6.7-6.9-7.5c-0.3-0.1-0.6-0.1-0.9-0.2c0-0.3,0-0.5-0.1-0.8
	c0.6-5.8-4.7-8.7-11.5-9.1c-8.4-0.5-12.2-0.6-14.5-0.6c-0.9,0-1.6,0-2.3,0.1c-2.5,0.1-4.5,0.3-18.5-0.1c-7.1-0.2-10.6-3.3-11-7.6
	c-0.1-0.8-0.1-1.6,0.1-2.4c5.2-9.7,7.4-13.7,12.6-20.9c2.5-3.4,8.1-3.5,8.1-3.5c3,0,6,0,8.8,0.1c0.8,0,1.5,0,2.3,0
	c15.3,0,29-0.1,45.3,0c8.1-0.5,9.6,3,9.6,3c0.2,9,0.3,16.3,0.7,23.4h-0.1c0,0.7,0.1,1.4,0.1,2c0.2,4.8,0.5,9.4,0.9,14.4
	C113.6,200.3,113.8,204.9,114.2,208.7z"/>
<path style="fill:none;stroke:#000000;stroke-width:3;stroke-miterlimit:10;" d="M82.7,200c-0.1,0-0.1,0-0.2,0
	c0.1-0.2,0.1-0.5,0.1-0.7C82.7,199.5,82.7,199.7,82.7,200z"/>
<path style="fill:none;stroke:#000000;stroke-width:3;stroke-miterlimit:10;" d="M160.5,181.4c-0.2,0.5-0.5,1-0.7,1.6
	c0,0.2-0.1,0.3-0.1,0.5h-47.2c0-0.7-0.1-1.4-0.1-2H160.5z"/>
<path style="fill:none;stroke:#000000;stroke-width:3;stroke-miterlimit:10;" d="M114.3,208.2c0,0.2,0,0.4-0.1,0.5
	c-0.4-3.8-0.6-8.4-0.8-10.9c-0.4-5-0.7-9.6-0.9-14.4c0-0.7-0.1-1.4-0.1-2h0.1c0,0.7,0.1,1.4,0.1,2c0.2,4.1,0.5,8.2,0.9,12.6
	C113.6,198.8,113.8,204.2,114.3,208.2z"/>
<path style="fill:none;stroke:#000000;stroke-width:3;stroke-miterlimit:10;" d="M90.4,207.6c-0.4,1.2-0.8,2.5-1.3,3.7
	c-0.2,0.6-0.4,1.2-0.6,1.8c-2,5.9-4,11.8-6,17.7c-1.9,4.8-8.5,4.1-12.6,3.2c-0.4-0.1-0.8-0.2-1.2-0.2c1.7-7.1,4.2-17.6,5.9-24.1
	c1-4.1-0.7-8-4-8.5c-15.3-2.4-30.4-2.8-45.9-1.3c-3.3,0.4-5.7,4.2-5.2,8.4c0.6,6.2,1.9,17.2,2.8,24.8c-1.2,0.2-2.3,0.4-3.5,0.6
	c-2.4,0.5-7.9-0.3-8.6-3.1c-2.1-7.8-4.2-15.6-6.3-23.4c-0.1-4,4-7.2,7.4-8.3c14.5-2.9,28.9-4,43.2-3.1c0.8,0.1,1.5,0.1,2.3,0.2
	c8.6,0.6,17.2,2,25.8,4.1c0.1,0,0.1,0,0.2,0c0.3,0.1,0.6,0.1,0.9,0.2C86.6,201,91.3,204.9,90.4,207.6z"/>
<path style="fill:none;stroke:#000000;stroke-width:3;stroke-miterlimit:10;" d="M74.6,209.7c-1.7,6.5-4.2,17.1-5.9,24.1
	c-1.9-0.4-3.8-0.7-5.7-1c-11.9-1.8-23.5-2-35.3-0.6c-1.8,0.2-3.7,0.5-5.5,0.8c-0.9-7.6-2.1-18.6-2.8-24.8c-0.4-4.2,1.9-8,5.2-8.4
	c15.5-1.5,30.5-1,45.9,1.3C73.9,201.8,75.7,205.6,74.6,209.7z"/>
<path style="fill:none;stroke:#000000;stroke-width:3;stroke-miterlimit:10;" d="M97.7,241.1h5.1v-27.9h-4.5L97.7,241.1z"/>
<path style="fill:none;stroke:#000000;stroke-width:3;stroke-miterlimit:10;" d="M74.6,209.7c-1.7,6.5-4.2,17.1-5.9,24.1
	c-1,4.3-1.7,7.3-1.7,7.3h-5.5c0,0,0.7-3.5,1.6-8.3c1.3-6.6,3-15.7,4.2-21.4c0.7-3.2,1.2-5.8-3.8-6.5c-10.6-1.2-21.1-1.5-31.8-0.9
	c-5.1,0.4-5.9,3.2-5.6,6.4c0.5,6.9,1.2,15.5,1.7,21.8c0.5,5.2,0.8,8.9,0.8,8.9h-5.3c0,0-0.4-3.4-0.9-8.1c-0.9-7.6-2.1-18.6-2.8-24.8
	c-0.4-4.2,1.9-8,5.2-8.4c15.5-1.5,30.5-1,45.9,1.3C73.9,201.8,75.7,205.6,74.6,209.7z"/>
<path style="fill:none;stroke:#000000;stroke-width:3;stroke-miterlimit:10;" d="M25,216.9c0,0.8-0.6,1.5-1.5,1.5s-1.6-0.5-1.6-1.3
	s0.6-1.5,1.5-1.5C24.3,215.5,25,216.1,25,216.9z"/>
<path style="fill:none;stroke:#000000;stroke-width:3;stroke-miterlimit:10;" d="M71.1,217.6c0,0.8-0.6,1.5-1.5,1.5
	s-1.6-0.5-1.6-1.3c0-0.8,0.6-1.5,1.5-1.5C70.4,216.2,71.1,216.8,71.1,217.6L71.1,217.6z"/>
<path style="fill:none;stroke:#000000;stroke-width:3;stroke-miterlimit:10;" d="M176,197c-3.5,0.2-7,0.5-10.5,0.9
	c-3.6-1.5-5.5-4.8-5.8-8.6c0.9,4.1,4,7.3,9.2,7.7C171.3,197.1,173.7,197.1,176,197z"/>
<path style="fill:none;stroke:#000000;stroke-width:3;stroke-miterlimit:10;" d="M218.2,200.3c-1.7-0.3-3.4-0.7-5-1
	c-3.3-1.3-6.6-2-9.9-2.2c-0.8-0.1-1.5-0.1-2.3-0.1c-2-0.1-4.1,0-6.2,0.1c-5.9-0.4-11.9-0.4-17.8-0.2c8.1-0.5,16.2-2,24.1-1.7
	c0.8,0,1.6,0.1,2.3,0.1c4.8,0.4,9.5,1.7,14.1,4.4C217.6,199.9,217.9,200.1,218.2,200.3z"/>
<path style="fill:none;stroke:#000000;stroke-width:3;stroke-miterlimit:10;" d="M251.5,218.4c-2.6,0.1-5.2,0.2-7.9,0.4
	c-1.4,0.1-2.8,0.2-4.2,0.2c-0.3,0-0.7,0-1,0.1c-2.8,0.2-13.7-0.4-12.6-4.9c1.7,2.9,10,3.3,12.4,3.1c0.4,0,0.9-0.1,1.3-0.1
	c0.6,0,1.2-0.1,1.7-0.1c3.3-0.2,6.6-0.3,10-0.5c0,0,2.4-0.5,3-1.6c0.1,0.2,0.2,0.4,0.3,0.7l0,0C255.4,217.7,251.5,218.4,251.5,218.4
	z"/>
<path style="fill:none;stroke:#000000;stroke-width:3;stroke-miterlimit:10;" d="M241.2,217.1c-0.6,0-1.2,0.1-1.7,0.1v-0.1H241.2z"
	/>
<path style="fill:none;stroke:#000000;stroke-width:3;stroke-miterlimit:10;" d="M254.3,215.1c-0.6,1.1-3,1.5-3,1.6
	c-3.3,0.1-6.7,0.3-10,0.5h-1.7v0.1c-0.4,0-0.9,0.1-1.3,0.1c-2.4,0.2-10.6-0.2-12.4-3.1c0-0.2,0.1-0.3,0.2-0.5c0.3-0.7,0.4-1.3,0.4-2
	c0.3-1.2,0.7-2.5,1-3.7c0.8-2.8-4.1-6.6-7.3-7.3c-0.7-0.2-1.4-0.3-2-0.4c-0.3-0.2-0.5-0.3-0.8-0.5c-4.6-2.8-9.3-4-14.1-4.4
	c-0.8-0.1-1.5-0.1-2.3-0.1c-7.8-0.3-15.9,1.3-24.1,1.7c-0.3,0-0.6,0-0.8,0.1c-2.4,0.1-4.7,0.1-7.1-0.1c-5.2-0.3-8.3-3.5-9.2-7.7
	c-0.4-1.8-0.4-3.8,0-5.8c0-0.2,0.1-0.3,0.1-0.5c0.2-0.5,0.5-1,0.7-1.6c3-6.8,4.5-13.4,6.3-20.7c0.9-3.5,5.9-3.6,5.9-3.6
	c9.4,0,18.7-0.1,28.1-0.2c0.8,0,1.7,0,2.5,0c7.8-0.1,15.6-0.1,23.3-0.1c4.8,0,6.1,3.7,6.1,3.7c4.9,13.6,10.1,27,15.6,40.4
	c1.3,3.1,2,4.7,2.9,6.9c2.5,5.8,1.5,2.8,3.1,6.4l0,0C254.5,214.4,254.4,214.8,254.3,215.1z"/>
<path style="fill:none;stroke:#000000;stroke-width:3;stroke-miterlimit:10;" d="M226.4,211.7c0,0.6-0.1,1.3-0.4,2
	c-0.1,0.2-0.1,0.3-0.2,0.5c0-0.1-0.1-0.1-0.1-0.2C226,213.3,226.2,212.5,226.4,211.7z"/>
<path style="fill:none;stroke:#000000;stroke-width:3;stroke-miterlimit:10;" d="M241.2,217.1c-0.6,0-1.2,0.1-1.7,0.1v-0.1H241.2z"
	/>
<path style="fill:none;stroke:#000000;stroke-width:3;stroke-miterlimit:10;" d="M227.5,208c-0.3,1.2-0.7,2.5-1,3.7
	c-0.2,0.8-0.4,1.6-0.6,2.3c-1.6,5.8-3.3,11.6-4.9,17.4c-1.7,4.8-8.2,4.2-12.2,3.5c1.3-6.9,3.4-18,4.7-24.8c0.8-4.1-1.4-8-4.9-8.5
	l0,0c-1.7-0.2-3.4-0.4-5.2-0.6c-0.8-0.1-1.5-0.2-2.3-0.2c-13.6-1.3-27.1-1-40.8,0.8c-3.5,0.5-5.6,4.4-4.9,8.5l4.7,24.8
	c-0.9,0.2-1.8,0.3-2.7,0.5c-2.4,0.6-7.9-0.2-8.8-3c-2.5-7.8-5-15.5-7.6-23.2c-0.3-4,3.5-7.3,6.9-8.5c5.9-1.3,11.8-2.3,17.7-3
	c3.5-0.4,7-0.7,10.5-0.9c0.3,0,0.6,0,0.8-0.1c5.9-0.3,11.9-0.2,17.8,0.2c2.1-0.1,4.2-0.2,6.2-0.1c0.8,0,1.5,0.1,2.3,0.1
	c3.4,0.3,6.7,0.9,9.9,2.2c1.7,0.3,3.3,0.6,5,1c0.7,0.1,1.4,0.3,2,0.4C223.3,201.4,228.2,205.2,227.5,208z"/>
<path style="fill:none;stroke:#000000;stroke-width:3;stroke-miterlimit:10;" d="M161.5,218.5c0.1,0.8-0.6,1.5-1.4,1.5
	s-1.6-0.5-1.6-1.3c-0.1-0.8,0.6-1.5,1.4-1.5C160.7,217.1,161.4,217.7,161.5,218.5z"/>
<path style="fill:none;stroke:#000000;stroke-width:3;stroke-miterlimit:10;" d="M205.7,212c-0.8,5.9-2.2,15.4-3.1,21.9
	c-12.5-1.8-24.7-1.7-37.2,0.1c-0.9-6.5-2.3-16-3.2-22c-0.5-3.2,0.1-6,5.4-6.6c11.2-1,22.3-1,33.5,0
	C206.5,206.1,206.1,208.8,205.7,212z"/>
<path style="fill:none;stroke:#000000;stroke-width:3;stroke-miterlimit:10;" d="M208.1,220c-0.8,0.1-1.6-0.5-1.6-1.3
	c-0.1-0.8,0.6-1.5,1.4-1.5s1.6,0.5,1.6,1.3C209.6,219.3,209,220,208.1,220z"/>
<path style="fill:none;stroke:#000000;stroke-width:3;stroke-miterlimit:10;" d="M208.4,201.6L208.4,201.6c-1.7-0.2-3.4-0.4-5.2-0.6
	c-0.8-0.1-1.5-0.2-2.3-0.2c-13.6-1.3-27.1-1-40.8,0.8c-3.5,0.5-5.6,4.4-4.9,8.5l4.7,24.8c1.8-0.3,3.7-0.7,5.5-0.9
	c-0.9-6.5-2.3-16-3.2-22c-0.5-3.2,0.1-6,5.4-6.6c11.2-1,22.3-1,33.5,0c5.3,0.6,5,3.3,4.5,6.5c-0.8,5.9-2.2,15.4-3.1,21.9
	c1.9,0.3,3.9,0.6,5.8,0.9c0.1,0,0.1,0,0.2,0c1.3-6.9,3.4-18,4.7-24.8C214,206,211.9,202.1,208.4,201.6z M160.1,220
	c-0.8,0.1-1.6-0.5-1.6-1.3c-0.1-0.8,0.6-1.5,1.4-1.5c0.8-0.1,1.6,0.5,1.6,1.3C161.5,219.3,160.9,220,160.1,220z M208.1,220
	c-0.8,0.1-1.6-0.5-1.6-1.3c-0.1-0.8,0.6-1.5,1.4-1.5s1.6,0.5,1.6,1.3C209.6,219.3,209,220,208.1,220z"/>
<path style="fill:none;stroke:#000000;stroke-width:3;stroke-miterlimit:10;" d="M160.1,220c-0.8,0.1-1.6-0.5-1.6-1.3
	c-0.1-0.8,0.6-1.5,1.4-1.5c0.8-0.1,1.6,0.5,1.6,1.3C161.5,219.3,160.9,220,160.1,220z"/>
<path style="fill:none;stroke:#000000;stroke-width:3;stroke-miterlimit:10;" d="M165.4,234c0.6,4.2,1,7.1,1,7.1h-5.4l-1.2-6.2
	C161.8,234.6,163.6,234.3,165.4,234z"/>
<path style="fill:none;stroke:#000000;stroke-width:3;stroke-miterlimit:10;" d="M208.4,234.9c0.1,0,0.1,0,0.2,0
	c-0.7,3.7-1.2,6.2-1.2,6.2h-5.8c0,0,0.4-3,1-7.2C204.5,234.2,206.5,234.5,208.4,234.9z"/>
<path style="fill:none;stroke:#000000;stroke-width:3;stroke-miterlimit:10;" d="M208.1,220c-0.8,0.1-1.6-0.5-1.6-1.3
	c-0.1-0.8,0.6-1.5,1.4-1.5s1.6,0.5,1.6,1.3C209.6,219.3,209,220,208.1,220z"/>
<path style="fill:none;stroke:#000000;stroke-width:3;stroke-miterlimit:10;" d="M200.3,250.4"/>
<path style="fill:none;stroke:#000000;stroke-width:3;stroke-miterlimit:10;" d="M160.1,220c-0.8,0.1-1.6-0.5-1.6-1.3
	c-0.1-0.8,0.6-1.5,1.4-1.5c0.8-0.1,1.6,0.5,1.6,1.3C161.5,219.3,160.9,220,160.1,220z"/>
<path style="fill:none;stroke:#000000;stroke-width:3;stroke-miterlimit:10;" d="M208.1,220c-0.8,0.1-1.6-0.5-1.6-1.3
	c-0.1-0.8,0.6-1.5,1.4-1.5s1.6,0.5,1.6,1.3C209.6,219.3,209,220,208.1,220z"/>
</svg>
