<?xml version="1.0" encoding="utf-8"?>
<!-- Generator: Adobe Illustrator 22.1.0, SVG Export Plug-In . SVG Version: 6.00 Build 0)  -->
<svg version="1.1" xmlns="http://www.w3.org/2000/svg" xmlns:xlink="http://www.w3.org/1999/xlink" x="0px" y="0px"
	 viewBox="0 0 256 256" style="enable-background:new 0 0 256 256;" xml:space="preserve">
<g id="Layer_1">
	<g>
		<path style="fill:#2E4D66;" d="M192.7,70.5v120.3l-129.1,0.1V70.5C63.6,34.9,92.5,6,128.1,6c17.8,0,33.9,7.2,45.6,18.9
			c0.4,0.4,0.8,0.8,1.2,1.2C186,37.6,192.7,53.2,192.7,70.5z"/>
	</g>
	<g>
		<path style="fill:#FFFFFF;" d="M210.4,248.1H47.1c0-15.4-5.4-38.1,2-45.9c4.4-4.9,9.4-8.4,14.8-11.3c9.8-5.2,21.4-7.8,35.7-10.1
			c0.5-0.1,1-0.2,1.4-0.3c4.6-1.4,7.9-5.6,7.9-10.6v-8.7c-16.8-6.5-29.3-21.6-32.1-39.8c-7-1.6-12.2-7.9-12.2-15.4
			c0-6.5,3.9-12,9.4-14.5c3,0,6.1-0.3,9.5-1.2c21.2-5.1,46.3-16,66.7-33.7c5.4,16.9,15.9,29.4,28.4,33.3v0.2
			c7.8,1,13.8,7.7,13.8,15.7c0,8.3-6.5,15.2-14.6,15.9c-3.1,17.5-14.9,32.2-30.8,38.9v8.8c0,4.6,2.9,8.7,7.1,10.4
			c0.8,0.3,1.5,0.4,2.3,0.5c13.7,2,26.4,4.5,36.8,10.4c5.2,2.9,9.7,6.6,13.6,11.5C213.1,210.7,210.4,233,210.4,248.1z"/>
	</g>
	<g>
		<circle style="fill:#2E4D66;" cx="102.9" cy="102.2" r="5.8"/>
	</g>
	<g>
		<circle style="fill:#2E4D66;" cx="153.8" cy="102.2" r="5.8"/>
	</g>
	<g style="opacity:0.1;">
		<path style="fill:#0C0C0C;" d="M128.3,136.1c-9.9,0-16-3-16.3-3.2c-0.9-0.4-1.1-1.4-0.8-2.3c0.4-0.9,1.4-1.1,2.3-0.8
			c0.2,0.1,12.7,6.4,31.8-0.1c0.9-0.3,1.8,0.2,2.2,1.1s-0.2,1.8-1.1,2.2C139.5,135.3,133.4,136.1,128.3,136.1z"/>
	</g>
	<rect x="104" y="192.1" style="fill:#5E98D3;stroke:#2E4D66;stroke-width:5;stroke-miterlimit:10;" width="51" height="56.9"/>
	<path style="fill:#5E98D3;stroke:#2E4D66;stroke-width:5;stroke-miterlimit:10;" d="M212.9,248.9H43.6c0-15.7-3.6-38.9,4-47.1
		c12.8-13.8,28.9-18.2,51.8-22c0.5-0.1,1-0.2,1.5-0.3l10.4,20.2l17.3-7.5l19.4,7.5l7-20.8c0.8,0.3,1.5,0.5,2.4,0.6
		c21,3.1,39.6,7.2,51.7,22.3C215.6,210.6,212.9,233.5,212.9,248.9z"/>
	<path style="fill:#4F88B7;stroke:#2E4D66;stroke-width:5;stroke-miterlimit:10;" d="M149.5,174.6c-5.6,11.9-11.4,18-21,17.3
		l22.3,11.3l4.2-24.9L149.5,174.6z"/>
	<path style="fill:#4F88B7;stroke:#2E4D66;stroke-width:5;stroke-miterlimit:10;" d="M105.3,176.8c3.8,8.6,10.1,16.1,23.2,15
		L107,203.2l-7.8-23.3L105.3,176.8z"/>
	<g>
		<path style="fill:none;stroke:#2E4D66;stroke-width:3;stroke-linecap:round;stroke-linejoin:round;stroke-miterlimit:10;" d="
			M108.3,113.3c-6.7,0.8-10.5,0.8-17.1-0.8c-1.1-0.2-2-1-2.5-1.9c-2.3-4.6-3-11.1-1.9-16c0.3-1.5,1.6-2.6,3.1-2.7
			c9.5-1,18.9-0.6,28,1.3c1.6,0.3,2.8,1.8,2.8,3.5c0,3.1-0.8,6.3-1.8,8.8C117.2,109.8,113.1,112.8,108.3,113.3z"/>
		<path style="fill:none;stroke:#2E4D66;stroke-width:3;stroke-linecap:round;stroke-linejoin:round;stroke-miterlimit:10;" d="
			M147.8,113.4c6.8,0.6,10.5,0.6,17.1-1c1.1-0.2,2-1,2.5-1.9c2.3-4.7,2.9-11.1,1.8-16.1c-0.3-1.5-1.6-2.6-3.1-2.7
			c-9.5-0.9-18.9-0.4-28,1.5c-1.6,0.3-2.8,1.8-2.8,3.5c0,3.1,0.9,6.1,1.9,8.8C139,110,143.1,112.9,147.8,113.4z"/>
		
			<line style="fill:none;stroke:#2E4D66;stroke-width:3;stroke-linecap:round;stroke-linejoin:round;stroke-miterlimit:10;" x1="177.2" y1="90.5" x2="169.8" y2="95.5"/>
		
			<line style="fill:none;stroke:#2E4D66;stroke-width:3;stroke-linecap:round;stroke-linejoin:round;stroke-miterlimit:10;" x1="78.8" y1="90.5" x2="86.2" y2="95.5"/>
		<path style="fill:none;stroke:#2E4D66;stroke-width:3;stroke-linecap:round;stroke-linejoin:round;stroke-miterlimit:10;" d="
			M121.5,97.2c0,0,8.3-1.4,13.4,0"/>
	</g>
	<path style="opacity:0.2;fill:#0C0C0C;" d="M199.1,195.3c0,0,7.5,38.3-6.5,45.8c-14,7.5-45.1,7-45.1,7h62.8
		C210.4,248.1,224.5,208.2,199.1,195.3z"/>
</g>
<g id="guidelines">
</g>
</svg>
