<?xml version="1.0" encoding="utf-8"?>
<!-- Generator: Adobe Illustrator 17.0.0, SVG Export Plug-In . SVG Version: 6.00 Build 0)  -->
<!DOCTYPE svg PUBLIC "-//W3C//DTD SVG 1.1//EN" "http://www.w3.org/Graphics/SVG/1.1/DTD/svg11.dtd" [
	<!ENTITY ns_flows "http://ns.adobe.com/Flows/1.0/">
	<!ENTITY ns_extend "http://ns.adobe.com/Extensibility/1.0/">
	<!ENTITY ns_ai "http://ns.adobe.com/AdobeIllustrator/10.0/">
	<!ENTITY ns_graphs "http://ns.adobe.com/Graphs/1.0/">
]>
<svg version="1.1"
	 id="svg2" xmlns:x="&ns_extend;" xmlns:i="&ns_ai;" xmlns:graph="&ns_graphs;" xmlns:rdf="http://www.w3.org/1999/02/22-rdf-syntax-ns#" xmlns:cc="http://creativecommons.org/ns#" xmlns:dc="http://purl.org/dc/elements/1.1/" xmlns:svg="http://www.w3.org/2000/svg"
	 xmlns="http://www.w3.org/2000/svg" xmlns:xlink="http://www.w3.org/1999/xlink" xmlns:a="http://ns.adobe.com/AdobeSVGViewerExtensions/3.0/"
	 x="0px" y="0px" width="256px" height="256px" viewBox="0 0 256 256" style="enable-background:new 0 0 256 256;"
	 xml:space="preserve">
<g id="layer2" transform="translate(-8.3351 -167.79)">
	<path id="path2679" style="fill:none;stroke:#000000;stroke-width:3;stroke-miterlimit:10;" d="M42.7,338
		c-0.6-4.4-0.6-10.3-0.7-11.5c-0.6-5.7-15.7-42.4-17.6-50.6c-2,6-2,10.1-1.6,17c1.1,15.1,3.3,37.3,2.9,45.2c-0.4,7.9-0.9,31-10.8,28
		c-5.3-1.6-3.2-12-0.5-19.4c2.8-7.4-4-39.3-3.2-65.6c0.9-26.5,16.4-41.5,27.8-47c18.6-9.2,35.3-8.3,62.3-3.7
		c20.3,3.5,27.6,5.9,44.7,6.6c25.1,1.1,39.6-13.1,47.5-20.1c4.5-4,7.4-4.6,10.9-7.2c-3.2-3-7-7.4-1.3-12.9c5.7-5.4,12.9-1.1,14.5,3
		c4.2-0.8,8.9-1.1,13.5-0.7c4.6,0.4,8.4,1.8,11.2,2.9c2.6-2.2,10.3-6.6,12.7-4.8c2.4,1.8,10.7,5.9-0.5,14.5
		c1.8,1.6,6.6,8.5,6.9,16.2c0.4,8.5-2.7,13.4-4,17.2c-1.3,3.5-6.4,8.8-8.3,9.6c-2,0.8-1.8,3.8-3.6,6.2c-1.1,1.4-7.8,5.2-16.2,2.4
		c-4.7-1.6-14,21.8-13.4,29c0.8,9.2-1.6,21.5-6.2,27.1s-4,47.5-3.5,55s7.4,8.6,8.6,11.7c2.7,5-1.7,10-6.2,8.3
		c-0.7,0.9-2.6,3.7-10.3,2c-4.9-1.1-11.2-12-12.7-17.5c-1.3-4.9-4.4-38.9-8.1-48.4c-3.3-8.6-26.6-7.8-30.4-6.6s-21.5,4.7-27.5,4
		c-8.8-1.1-11.7-2-22.3-10c-5.6-4.2-10.9-8.5-15.3-12.7c-2.4,5.9-7.9,19.7-10.5,26.5s-14,20.8-14,24.9s-1,23,3,26.8
		c3,2.8,9.2,6.1,5.3,8.1c-0.8,0.4-2,4.5-4.5,3.5c-2,2.8-4.4,2.7-5,2.8c-9.7,1.1-14.6-7.6-16.2-12.6c-1.7-5.1-2.6-27.3-2-32.8
		c0.6-5.4,7.2-17.1,7.2-23.9c0-6.8,0.8-14.9-2.8-22.5c-3.7-7.7-3.7-10.7-3.7-10.7 M177.6,330.4c-4.6,1.3-7.4,8.2-14,28.3
		c-6.6,20.1-3.2,21.9-2,23.9c1.3,2,1.1,4.2-1.1,5c-2.3,0.8-4,4-7,2.8c-3-1.1-7.2,1.8-9.6-1.1c-2.4-2.8-7.9-13.6-7.2-19.5
		c0.7-5.9,5-7.7,5.5-12s3.9-26.9,3.9-32.1 M65.1,385.6c5.3,2,6.8-1.3,7.1-4c0.4-3.8-4.2-7.5-4.2-11.7c0-4.2-2.5-23.5,1.1-32.7"/>
	<g id="g3255">
		<path id="path2393" style="fill:none;stroke:#000000;stroke-width:3;stroke-miterlimit:10;" d="M37,257c-7.2,4-10.9,14-10.7,19.8"
			/>
		<path id="path2397" style="fill:none;stroke:#000000;stroke-width:3;stroke-miterlimit:10;" d="M218.1,221.3
			c3.6-0.4,5.9,0.1,7.3,1.3c1.5,1.3,1.4,4.3,1,7.2"/>
		<path id="path2399" style="fill:none;stroke:#000000;stroke-width:3;stroke-miterlimit:10;" d="M248.3,219.6c-3,0.9-4.2,2.3-4.8,4
			c-0.7,1.8-0.1,4,0.7,6.9"/>
		<path id="path3187" style="fill:none;stroke:#000000;stroke-width:3;stroke-miterlimit:10;" d="M224.5,254.6c2,1.1,8.6,0.1,10-0.4
			c3-0.9,2.5-2.8,2.6-4.9c0.1,0.6,0,4.1,0.4,4.2c2.8,0.9,10.5,0.8,12.3-0.1"/>
		<path id="path3190" style="fill:none;stroke:#000000;stroke-width:3;stroke-miterlimit:10;" d="M217.5,260.9l-6.2,1.3l0.4-7.5
			l-6.2,1.3l0.1-6.4l-5.8,1.4l1.4-7.5l-5.5-0.1l1.6-4.8l-2.4-4.7l3.9-9.5"/>
	</g>
	<g id="g3280">
		<path id="path3171" style="fill:none;stroke:#000000;stroke-width:3;stroke-miterlimit:10;" d="M224,227.5
			c-0.7,0.8-2.1,0.7-3.1-0.3c-1-1-1.2-2.3-0.5-3.2c0.7-0.8,2.1-0.7,3.1,0.3C224.5,225.3,224.7,226.7,224,227.5L224,227.5z"/>
		<path id="path3173" style="fill:none;stroke:#000000;stroke-width:3;stroke-miterlimit:10;" d="M245.1,226.3c0.7,0.7,2,0.6,3-0.2
			c0.9-0.8,1.1-2.2,0.5-2.9c-0.7-0.7-2-0.6-3,0.2S244.4,225.6,245.1,226.3L245.1,226.3z"/>
		<path id="path3262" style="fill:none;stroke:#000000;stroke-width:3;stroke-miterlimit:10;" d="M229.1,244c-0.8,2,5.4,4.9,8.2,6
			c2-1.3,7.7-4.3,7.5-6.3c-0.1-1.5-5.7-0.5-7.4-0.4C234.8,243.6,230,241.5,229.1,244L229.1,244z"/>
		<path id="path3228" style="fill:none;stroke:#000000;stroke-width:3;stroke-miterlimit:10;" d="M212.2,208l2.5-2.5
			c-0.8-3.3-2.8-5.5-4-5.7c-2-0.3-4.2,2-3.4,4.2C208.2,206.2,212.2,208,212.2,208z"/>
		<path id="path3230" style="fill:none;stroke:#000000;stroke-width:3;stroke-miterlimit:10;" d="M248.6,209.4l-2.8-2.7
			c0.6-2.9,4.3-3.6,5.4-3.7c1.6-0.3,2.7,1.3,2,3.2C252.4,208,248.6,209.4,248.6,209.4z"/>
	</g>
</g>
<g id="layer3" transform="translate(-8.3351 -167.79)">
	<path id="path3004" style="fill:none;stroke:#000000;stroke-width:3;stroke-miterlimit:10;" d="M16.4,348c0.5,5.2,6.1,1.8,7.3,1.6
		c5.2-0.6-3.7,14.5-7.3,15.5C12.6,366.1,10.9,346.3,16.4,348L16.4,348z"/>
	<path id="path3002" style="fill:none;stroke:#000000;stroke-width:3;stroke-miterlimit:10;" d="M201,338.4
		c-7.3-8.3-17.7-22.4-15-29.2c1.1-2.9,7.1,15.5,13.3,18.8C201.9,329.5,206.5,344.7,201,338.4L201,338.4z"/>
	<path id="path3000" style="fill:none;stroke:#000000;stroke-width:3;stroke-miterlimit:10;" d="M159.8,336.4
		c-3.7,0-8.8-3.3-5.4-2.8c9.9,1.6,20.4-6.7,20.8-4.2C176.2,334,163.2,336.4,159.8,336.4L159.8,336.4z"/>
	<path id="path2998" style="fill:none;stroke:#000000;stroke-width:3;stroke-miterlimit:10;" d="M16.9,331.8
		c2.8-1.6,7.3-1.3,0.7-5.1c-2.4-1.4-4.4-4.9-2.2-5.4c0.6-0.1,2.7,3.5,7.5-0.3c2.6-2,4,12.6,1.7,15.1c-1,1.1-2.8,2.3-7.3,1.6
		L16.9,331.8L16.9,331.8z"/>
	<path id="path2996" style="fill:none;stroke:#000000;stroke-width:3;stroke-miterlimit:10;" d="M68.9,331.2
		c-3.1-4.9-5.9-10.9-9.9-16.2c-2.8-3.6-12.8-8.6-9.6-9c3.5-0.4,8.5,1.6,12.4,5.9c3.7,4.2,6.4,10.5,9.3,13.8
		C71.5,326.1,69.7,332.4,68.9,331.2z"/>
	<path id="path2994" style="fill:none;stroke:#000000;stroke-width:3;stroke-miterlimit:10;" d="M178,324.2
		c-3.2,0.2-0.8-25.1-4.7-10.2c-1.1,4.3-7.1,9.8-4.7,1.3c4-13.6,10.2-27.2,10.3-41.5c0.1-4.8,1.3-19.1,2-17.6
		c1.3,2.4,2.5,18.7,2.1,19.5c-0.8,1.3-3.8,17.7-4,25.7C178.9,308.1,181.3,323.9,178,324.2L178,324.2z"/>
	<path id="path2992" style="fill:none;stroke:#000000;stroke-width:3;stroke-miterlimit:10;" d="M114.5,322.3
		c-3.7-6,1.6-18.2,3.3-26c1.5-6.6,6.2-26.7,8.5-21.8c3.4,7.1-5.5,21.5-5.8,32.6c-0.1,3.2,1.2,16-4.1,15.5
		C116.4,322.5,115,322.3,114.5,322.3L114.5,322.3z"/>
	<path id="path2990" style="fill:none;stroke:#000000;stroke-width:3;stroke-miterlimit:10;" d="M142.5,319.4
		c0.1-9.7-1.3-20.6,2.7-29.9c2-4.6,7.3-13.6,5.9-2.3c-1.2,10,0.4,20.8-4.2,29.7C146.1,318.5,142.5,321.8,142.5,319.4L142.5,319.4z"
		/>
	<path id="path2988" style="fill:none;stroke:#000000;stroke-width:3;stroke-miterlimit:10;" d="M148.1,296.3
		c0.4-15.3-4,11.2-2.1,10.7C147.6,306.7,148,298.7,148.1,296.3z"/>
	<path id="path2986" style="fill:none;stroke:#000000;stroke-width:3;stroke-miterlimit:10;" d="M162.4,290.8
		c-0.5-10.3-0.8-21.8,3.2-29.9c2.5-5.2,1.3,9.1,1,9.9c-1.6,3.7,0.3,18.4-0.6,26c-0.9,7.3-0.9,21.8-9.6,22
		C155.7,320.3,163,300.8,162.4,290.8z"/>
	<path id="path2984" style="fill:none;stroke:#000000;stroke-width:3;stroke-miterlimit:10;" d="M68.4,309.8
		c-4.4-11.1,0.6-20.8,0.9-30.3c0.4-8.3-1.2-28.7-1.6-27.8c-2.4,5.5-1.8,25.1-3,29.7c-0.6,2.5,0.1,10.6-3.6,2.8
		c-1.9-17,4.1-34.3,2.9-51.5c-1.8-8.8,7.7-9.9,6.8-2.5c-1.3,10.2,1.3,28.8,2.1,36.8c0.8,7.8,1.6,16.7-0.8,23.2
		c-2.1,5.9-2,16.8-0.6,20.6C73.3,315.6,69.9,313.7,68.4,309.8L68.4,309.8z"/>
	<path id="path2982" style="fill:none;stroke:#000000;stroke-width:3;stroke-miterlimit:10;" d="M205.8,313.9
		c-4.1-7-6.9-14.1-9.4-22c-2.6-8.1,2-11.2,3.2-2c1.3,9.1,12.5,33.5,7.6,26.5c0,0-0.4-0.5-0.5-0.7
		C206.5,315.1,205.8,313.9,205.8,313.9L205.8,313.9z"/>
	<path id="path2980" style="fill:none;stroke:#000000;stroke-width:3;stroke-miterlimit:10;" d="M14.2,309.7
		c1.7-2.6,4.5-3.5,7.3-1.8c3.3,2,3.8-5.2-1.4-5.5c0,0-4.8-0.3-5.9,0.9C13.8,303.6,14.2,309.7,14.2,309.7z"/>
	<path id="path2978" style="fill:none;stroke:#000000;stroke-width:3;stroke-miterlimit:10;" d="M92.2,309
		c-4.7-2.7,1.3-9.3,2.3-14.1c1.7-7.8,3.2-16.7,4.7-23.7c1.7-8.3,0.1-18.2,2.8-24.7c0.7-1.8,2.3,15,1.4,20.2
		c-2.3,14-3.5,28.6-9.7,41.3C93.3,308.5,93.4,309.7,92.2,309z"/>
	<path id="path2976" style="fill:none;stroke:#000000;stroke-width:3;stroke-miterlimit:10;" d="M105,309.3
		c-6.6-9,7.6-27.1,7.8-41.4c0.1-10.7-6.7-28.8-3.4-36l5,1.3c-3,5.3,0.3,20.3,0.7,23.4c1.3,10.4,4.5-15,4.5-23.3
		c8.5-5.4,3,20.4,0.6,26.6c-4.1,10-4.8,21.4-9,31.5C108.8,296.6,107.3,312.4,105,309.3L105,309.3z"/>
	<path id="path2974" style="fill:none;stroke:#000000;stroke-width:3;stroke-miterlimit:10;" d="M192,309.3c-4-6.9-4.5-17.2-5.2-26
		c-0.5-5.2,0-20,1.4-6.9c1.1,9.9,2.5,19.8,5.2,29.5C193.7,306.7,193.3,311.4,192,309.3L192,309.3z"/>
	<path id="path2972" style="fill:none;stroke:#000000;stroke-width:3;stroke-miterlimit:10;" d="M35.2,284.7
		c0.1-0.8,7-3.6,10.5-21.3c1.8-9.6-0.7-21.1,1.3-29.7c2.1-8.9,3.5,8.8,3.5,14c0.3,13.8-4,27.8-7.3,33.1
		C42.6,281.8,34.6,290.4,35.2,284.7z"/>
	<path id="path2970" style="fill:none;stroke:#000000;stroke-width:3;stroke-miterlimit:10;" d="M80.1,289.8
		c-1.6-7.6,0.9-13.7,1.6-21.3c0.6-6.3,3.1-16.1,5.1-18.7c3.8-5,10.9-27,13-19.4c2.4,8.4-12.6,23.1-13.9,34.6
		c-0.5,4.5,0.1,7.1-0.8,12.9C85,279.7,81.5,296.3,80.1,289.8L80.1,289.8z"/>
	<path id="path2968" style="fill:none;stroke:#000000;stroke-width:3;stroke-miterlimit:10;" d="M130,289.8
		c2.9-13.3,5.1-27.1,3.1-40.5c-1-6.9,7.8-17.2,8.8-12.3c0.4,2-2.9,4.8-3.6,9.7c-1,6.9,0.2,16.5-1,21.5c-1.4,6.2-1.6,14.7-5.3,21.4
		C131.5,290.4,129.5,291.8,130,289.8z"/>
	<path id="path2966" style="fill:none;stroke:#000000;stroke-width:3;stroke-miterlimit:10;" d="M212.1,286.6
		c-9.9-8.5-12.4-14.8-0.2-7.3C216.1,282,218.2,292.7,212.1,286.6z"/>
	<path id="path2964" style="fill:none;stroke:#000000;stroke-width:3;stroke-miterlimit:10;" d="M143.7,282.8
		c0.3-9.4,3.8-20.1,1.7-30.2c-1.1-5-3-18.5,5.1-15.1c0.3,3.5-1.2,15.1,0.1,15.5s3.2-14.3,6.7-14.8c2.8-0.4,4.3-2.2,3,0.7
		c-4,8.3-8.5,20.8-10,30C149.7,272.2,143.5,288.1,143.7,282.8L143.7,282.8z"/>
	<path id="path2962" style="fill:none;stroke:#000000;stroke-width:3;stroke-miterlimit:10;" d="M169,276.3c-2.3-7,2.8-24.6,0.1-34
		c-1.9-6.7,1.3-16.4,2.8-4.9c1.1,9.7,3.1,24.6-0.6,33.3C170.6,272.2,169.7,278.1,169,276.3z"/>
	<path id="path2960" style="fill:none;stroke:#000000;stroke-width:3;stroke-miterlimit:10;" d="M197.9,273
		c-6.8-2.5-8.8-14.3-10.4-22.5c-1.3-6.8-10.7-27.9-4.7-25.4c6,2.5,7.7,22.3,10.5,31.3C194.8,261.2,201.2,274.3,197.9,273z"/>
	<path id="path2950" style="fill:none;stroke:#000000;stroke-width:3;stroke-miterlimit:10;" d="M14.2,269.5
		c4.4-1.8,7.6,0.5,10.8,3.1l-2.2,6.6c-4.7-2.7-7.8-7-10.7-0.6L14.2,269.5z"/>
	<path id="path2948" style="fill:none;stroke:#000000;stroke-width:3;stroke-miterlimit:10;" d="M20.9,254.9c3.5,1,8.1,7.1,8.8,9.6
		c0.6,2-1.4,3.1-2.5,4.3c-2.1-5.6-6.9-10.3-10.2-8.2C16.9,260.6,20.9,254.9,20.9,254.9z"/>
	<path id="path2669" style="fill:none;stroke:#000000;stroke-width:3;stroke-miterlimit:10;" d="M12.5,286.4c3.9-0.8,7.3,1,10.8,3
		l-1,4.2c-5-2.2-8.6-5.3-10.2-1.3L12.5,286.4z"/>
	<path id="path3006" style="fill:none;stroke:#000000;stroke-width:3;stroke-miterlimit:10;" d="M216.5,239.9
		c-2.4-1.6-6.8-6-7.4-8.4c-0.4-1.7,0.5-0.5,1.2,0.6c0.7,1.1,1.1,2.1,2.1,3.4C213.7,236.9,218,240.9,216.5,239.9L216.5,239.9z"/>
	<path id="path3008" style="fill:none;stroke:#000000;stroke-width:3;stroke-miterlimit:10;" d="M209.6,240.5c0.8-0.9,5,4.1,7.7,4.9
		c2.5,0.8,3.8-1.6,4.5-1.4c-1.1,1.5-2.9,2.5-5.5,1.3C214.3,244.3,209.1,241.1,209.6,240.5L209.6,240.5z"/>
	<path id="path3010" style="fill:none;stroke:#000000;stroke-width:3;stroke-miterlimit:10;" d="M217.3,249.6
		c1.9,1.1,3.9-0.8,4.5-0.8c-1.1,1.2-4,3-5.5,1.3C216.1,250.2,216.8,249.4,217.3,249.6z"/>
	<path id="path3012" style="fill:none;stroke:#000000;stroke-width:3;stroke-miterlimit:10;" d="M252.2,237.9
		c-0.4-0.2,4.3-7.1,4.5-9.6c0.1-1.7-0.4-0.4-0.8,0.8c-0.4,1.2-0.5,2.3-1.1,3.7C253.9,234.5,252.9,238.3,252.2,237.9L252.2,237.9z"/>
	<path id="path3014" style="fill:none;stroke:#000000;stroke-width:3;stroke-miterlimit:10;" d="M259,236.9
		c-0.7-0.8-3.2,4.9-5.2,6.2c-1.8,1.2-3.2-1.1-3.6-0.6c-0.7,1,2.5,2,4.4,0.2C255.9,241.6,259.4,237.4,259,236.9L259,236.9z"/>
	<path id="path3016" style="fill:none;stroke:#000000;stroke-width:3;stroke-miterlimit:10;" d="M253.7,248.2
		c-1.3,1.4-3.7-0.2-3.5,0.1c0.4,0.8,3.5,2.3,4.4,0.4C254.7,248.5,254.1,247.8,253.7,248.2L253.7,248.2z"/>
	<path id="path3026" style="fill:none;stroke:#000000;stroke-width:3;stroke-miterlimit:10;" d="M232.9,211.9
		c0.9,0.1,1.1,0.9,1.9,1.5c0.5,0.4,4.8,1.3,4.2,1.8c-0.8,0.8-3.2-0.9-6.4-0.9c-3,0-7.8,2.7-8.5,1.7c-0.3-0.4,4.1-1.7,5.8-2.5
		C231.2,213,232.2,211.8,232.9,211.9L232.9,211.9z"/>
	<path id="path3028" style="fill:none;stroke:#000000;stroke-width:3;stroke-miterlimit:10;" d="M232.3,204.6c2.8-0.1,2.8,2.2,5.1,3
		c3.2,1.2,6.9,1.6,6.4,2.3c-0.8,1-7.6-2.1-12.8-1.9c-4.9,0.2-13,4.2-13.6,3c-0.4-0.7,4.4-0.8,8.2-3.2
		C227.9,206.4,229.5,204.6,232.3,204.6L232.3,204.6z"/>
	<path id="path3265" style="fill:none;stroke:#000000;stroke-width:3;stroke-miterlimit:10;" d="M41.7,376.3c3-0.9,4.2,1.8,5.5,8.1
		c1.3,6,8.1,6.3,6.3,9.6c-3.7,7-8.5-3-10.6-6.6C39.1,380.2,39.9,376.9,41.7,376.3z"/>
	<path id="path3267" style="fill:none;stroke:#000000;stroke-width:3;stroke-miterlimit:10;" d="M143.7,376.9
		c3.1-0.8,3.1,1.8,4.2,4.1c2,4.4,4.4,4,2.7,6.9l-5.7,1.2c-0.6-0.4-2.8-5.9-3.6-8.5C140.5,377.8,143,377.1,143.7,376.9L143.7,376.9z"
		/>
	<path id="path3084" style="fill:none;stroke:#000000;stroke-width:3;stroke-miterlimit:10;" d="M206.9,387.3
		c2.8,1.9,5.3,6.4,5.3,7.9"/>
	<path id="path3086" style="fill:none;stroke:#000000;stroke-width:3;stroke-miterlimit:10;" d="M199.7,390c1.6,2,1.6,4.7-0.1,6.1
		c-1.7,1.3-4.3,0.7-5.9-1.3c-1.6-2-1.6-4.7,0.1-6.1C195.5,387.4,198.1,387.9,199.7,390z"/>
</g>
</svg>
