<?xml version="1.0" encoding="utf-8"?>
<!-- Generator: Adobe Illustrator 23.0.0, SVG Export Plug-In . SVG Version: 6.00 Build 0)  -->
<svg version="1.1" id="Layer_1" xmlns="http://www.w3.org/2000/svg" xmlns:xlink="http://www.w3.org/1999/xlink" x="0px" y="0px"
	 viewBox="0 0 256 256" style="enable-background:new 0 0 256 256;" xml:space="preserve">
<path style="fill:#DD5E6D;" d="M249.5,148.5c0,52.1-49.1,104.9-116.2,97.8c-4-0.4-7.9-0.3-11.9,0.3c-60.7,8.3-116-46.2-116-98
	c0-53.6,54.6-97,122-97S249.5,94.9,249.5,148.5z"/>
<path style="opacity:0.3;" d="M249.5,148.5c0-36.9-25.9-69-64-85.4c74,64.4,42,170.4-55.2,182.9l0,0c1,0,2.1,0.1,3.1,0.2
	C200.4,253.4,249.5,200.6,249.5,148.5z"/>
<path style="opacity:0.3;fill:#FFFFFF;" d="M5.3,148.5c0-36.9,25.9-69,64-85.4C-26,119,19,245,124.5,246.1l0,0c-1,0-2.1,0.1-3.1,0.2
	C54.4,253.4,5.3,200.6,5.3,148.5z"/>
<path style="fill:none;stroke:#902F3B;stroke-width:5;stroke-miterlimit:10;" d="M249.5,148.5c0,52.1-49.1,104.9-116.2,97.8
	c-4-0.4-7.9-0.3-11.9,0.3c-60.7,8.3-116-46.2-116-98c0-53.6,54.6-97,122-97S249.5,94.9,249.5,148.5z"/>
<path style="fill:#FFFFFF;stroke:#902F3B;stroke-width:5;stroke-linejoin:round;stroke-miterlimit:10;" d="M120,45.6
	c0,0-30.9-14.6-39.4-21.4c0,0,11.4,19,30.9,26.7c-0.5-0.6-22-9.4-47,3.6c0,0,33.7,0.3,42.2,6c0,0-29.4,13.7-27.2,23
	c0,0,30.6-15.7,41.7-15.7c11-0.1,23.2,24.5,38.3,23.7l-17.9-28l48.2,12.1l-43.6-18.7l29.9-21.6l-36.3,14l11.3-39.2L125.8,12
	L120,45.6z"/>
</svg>
