<?xml version="1.0" encoding="utf-8"?>
<!-- Generator: Adobe Illustrator 17.0.0, SVG Export Plug-In . SVG Version: 6.00 Build 0)  -->
<!DOCTYPE svg PUBLIC "-//W3C//DTD SVG 1.1//EN" "http://www.w3.org/Graphics/SVG/1.1/DTD/svg11.dtd" [
	<!ENTITY ns_flows "http://ns.adobe.com/Flows/1.0/">
	<!ENTITY ns_extend "http://ns.adobe.com/Extensibility/1.0/">
	<!ENTITY ns_ai "http://ns.adobe.com/AdobeIllustrator/10.0/">
	<!ENTITY ns_graphs "http://ns.adobe.com/Graphs/1.0/">
]>
<svg version="1.1" id="Layer_1" xmlns:x="&ns_extend;" xmlns:i="&ns_ai;" xmlns:graph="&ns_graphs;"
	 xmlns="http://www.w3.org/2000/svg" xmlns:xlink="http://www.w3.org/1999/xlink" xmlns:a="http://ns.adobe.com/AdobeSVGViewerExtensions/3.0/"
	 x="0px" y="0px" width="256px" height="256px" viewBox="0 0 256 256" style="enable-background:new 0 0 256 256;"
	 xml:space="preserve">
<rect y="172.5" style="fill:none;stroke:#000000;stroke-width:3;stroke-miterlimit:10;" width="256" height="83.5"/>
<circle style="fill:none;stroke:#000000;stroke-width:3;stroke-miterlimit:10;" cx="211" cy="51" r="24"/>
<line style="fill:none;stroke:#000000;stroke-width:3;stroke-miterlimit:10;" x1="0" y1="191.5" x2="256" y2="191.5"/>
<line style="fill:none;stroke:#000000;stroke-width:3;stroke-miterlimit:10;" x1="0" y1="220.7" x2="256" y2="220.7"/>
<g>
	<g>
		<line style="fill:none;stroke:#000000;stroke-width:3;stroke-miterlimit:10;" x1="245.3" y1="191.5" x2="241" y2="220.7"/>
		<line style="fill:none;stroke:#000000;stroke-width:3;stroke-miterlimit:10;" x1="245.3" y1="191.5" x2="241" y2="220.7"/>
	</g>
	<g>
		<line style="fill:none;stroke:#000000;stroke-width:3;stroke-miterlimit:10;" x1="222.3" y1="220.7" x2="218" y2="191.5"/>
		<line style="fill:none;stroke:#000000;stroke-width:3;stroke-miterlimit:10;" x1="222.3" y1="220.7" x2="218" y2="191.5"/>
	</g>
	<g>
		<line style="fill:none;stroke:#000000;stroke-width:3;stroke-miterlimit:10;" x1="199.3" y1="191.5" x2="195" y2="220.7"/>
		<line style="fill:none;stroke:#000000;stroke-width:3;stroke-miterlimit:10;" x1="199.3" y1="191.5" x2="195" y2="220.7"/>
	</g>
	<g>
		<line style="fill:none;stroke:#000000;stroke-width:3;stroke-miterlimit:10;" x1="176.3" y1="220.7" x2="172" y2="191.5"/>
		<line style="fill:none;stroke:#000000;stroke-width:3;stroke-miterlimit:10;" x1="176.3" y1="220.7" x2="172" y2="191.5"/>
	</g>
	<g>
		<line style="fill:none;stroke:#000000;stroke-width:3;stroke-miterlimit:10;" x1="153.3" y1="191.5" x2="149" y2="220.7"/>
		<line style="fill:none;stroke:#000000;stroke-width:3;stroke-miterlimit:10;" x1="153.3" y1="191.5" x2="149" y2="220.7"/>
	</g>
	<g>
		<line style="fill:none;stroke:#000000;stroke-width:3;stroke-miterlimit:10;" x1="130.3" y1="220.7" x2="126" y2="191.5"/>
		<line style="fill:none;stroke:#000000;stroke-width:3;stroke-miterlimit:10;" x1="130.3" y1="220.7" x2="126" y2="191.5"/>
	</g>
	<g>
		<line style="fill:none;stroke:#000000;stroke-width:3;stroke-miterlimit:10;" x1="107.3" y1="191.5" x2="103" y2="220.7"/>
		<line style="fill:none;stroke:#000000;stroke-width:3;stroke-miterlimit:10;" x1="107.3" y1="191.5" x2="103" y2="220.7"/>
	</g>
	<g>
		<line style="fill:none;stroke:#000000;stroke-width:3;stroke-miterlimit:10;" x1="84.3" y1="220.7" x2="80" y2="191.5"/>
		<line style="fill:none;stroke:#000000;stroke-width:3;stroke-miterlimit:10;" x1="84.3" y1="220.7" x2="80" y2="191.5"/>
	</g>
	<g>
		<line style="fill:none;stroke:#000000;stroke-width:3;stroke-miterlimit:10;" x1="61.3" y1="191.5" x2="57" y2="220.7"/>
		<line style="fill:none;stroke:#000000;stroke-width:3;stroke-miterlimit:10;" x1="61.3" y1="191.5" x2="57" y2="220.7"/>
	</g>
	<g>
		<line style="fill:none;stroke:#000000;stroke-width:3;stroke-miterlimit:10;" x1="38.3" y1="220.7" x2="34" y2="191.5"/>
		<line style="fill:none;stroke:#000000;stroke-width:3;stroke-miterlimit:10;" x1="38.3" y1="220.7" x2="34" y2="191.5"/>
	</g>
	<g>
		<line style="fill:none;stroke:#000000;stroke-width:3;stroke-miterlimit:10;" x1="15.3" y1="191.5" x2="11" y2="220.7"/>
		<line style="fill:none;stroke:#000000;stroke-width:3;stroke-miterlimit:10;" x1="15.3" y1="191.5" x2="11" y2="220.7"/>
	</g>
</g>
</svg>
