<?xml version="1.0" encoding="utf-8"?>
<!-- Generator: Adobe Illustrator 23.0.0, SVG Export Plug-In . SVG Version: 6.00 Build 0)  -->
<svg version="1.1" id="Layer_1" xmlns="http://www.w3.org/2000/svg" xmlns:xlink="http://www.w3.org/1999/xlink" x="0px" y="0px"
	 viewBox="0 0 256 256" style="enable-background:new 0 0 256 256;" xml:space="preserve">
<polygon style="fill:#DD5E6D;" points="57.5,98.5 57.5,60.8 49.5,60.8 49.5,98.5 45,98.5 45,132 62,132 62,98.5 "/>
<polygon style="fill:none;stroke:#902F3B;stroke-width:5;stroke-linecap:round;stroke-linejoin:round;stroke-miterlimit:10;" points="
	57.5,98.5 57.5,60.8 49.5,60.8 49.5,98.5 45,98.5 45,132 62,132 62,98.5 "/>
<path style="fill:#DD5E6D;" d="M184.7,57.3h-65.6c-7.3,0-13.4,5.6-13.9,12.9l-3.5,48.4c-0.5,7.3-6.6,12.9-13.9,12.9H32.1
	c-9.4,0-16.1,9.2-13.3,18.2l11.1,34.5c1.8,5.8,7.2,9.7,13.3,9.7h53h56.6h39.9c8.1,0,14.5-6.9,13.9-14.9l-8-108.6
	C198.1,63,192,57.3,184.7,57.3z"/>
<polygon style="opacity:0.3;" points="28,178.3 187.7,172 151.9,196 34,193.8 "/>
<path style="fill:none;stroke:#902F3B;stroke-width:5;stroke-linecap:round;stroke-linejoin:round;stroke-miterlimit:10;" d="
	M184.7,57.3h-65.6c-7.3,0-13.4,5.6-13.9,12.9l-3.5,48.4c-0.5,7.3-6.6,12.9-13.9,12.9H32.1c-9.4,0-16.1,9.2-13.3,18.2l11.1,34.5
	c1.8,5.8,7.2,9.7,13.3,9.7h53h56.6h39.9c8.1,0,14.5-6.9,13.9-14.9l-8-108.6C198.1,63,192,57.3,184.7,57.3z"/>
<circle style="fill:#FFFFFF;stroke:#902F3B;stroke-width:5;stroke-linecap:round;stroke-linejoin:round;stroke-miterlimit:10;" cx="187.7" cy="188.9" r="57.1"/>
<circle style="fill:#FFFFFF;stroke:#902F3B;stroke-width:5;stroke-linecap:round;stroke-linejoin:round;stroke-miterlimit:10;" cx="51.6" cy="214.8" r="31.2"/>
<path style="fill:#FFFFFF;stroke:#902F3B;stroke-width:5;stroke-linecap:round;stroke-linejoin:round;stroke-miterlimit:10;" d="
	M172.5,125.5h-41.2c-5.9,0-10.8-4.8-10.8-10.8v-33c0-5.9,4.8-10.8,10.8-10.8h41.2c5.9,0,10.8,4.8,10.8,10.8v33
	C183.2,120.7,178.4,125.5,172.5,125.5z"/>
</svg>
