<?xml version="1.0" encoding="utf-8"?>
<!-- Generator: Adobe Illustrator 17.0.0, SVG Export Plug-In . SVG Version: 6.00 Build 0)  -->
<!DOCTYPE svg PUBLIC "-//W3C//DTD SVG 1.1//EN" "http://www.w3.org/Graphics/SVG/1.1/DTD/svg11.dtd" [
	<!ENTITY ns_flows "http://ns.adobe.com/Flows/1.0/">
	<!ENTITY ns_extend "http://ns.adobe.com/Extensibility/1.0/">
	<!ENTITY ns_ai "http://ns.adobe.com/AdobeIllustrator/10.0/">
	<!ENTITY ns_graphs "http://ns.adobe.com/Graphs/1.0/">
]>
<svg version="1.1" id="Layer_1" xmlns:x="&ns_extend;" xmlns:i="&ns_ai;" xmlns:graph="&ns_graphs;"
	 xmlns="http://www.w3.org/2000/svg" xmlns:xlink="http://www.w3.org/1999/xlink" xmlns:a="http://ns.adobe.com/AdobeSVGViewerExtensions/3.0/"
	 x="0px" y="0px" width="256px" height="256px" viewBox="0 0 256 256" style="enable-background:new 0 0 256 256;"
	 xml:space="preserve">
<rect y="193.5" style="fill:none;stroke:#000000;stroke-width:3;stroke-miterlimit:10;" width="256" height="55.5"/>
<rect y="200.5" style="fill:none;stroke:#000000;stroke-width:3;stroke-miterlimit:10;" width="256" height="55.5"/>
<line style="fill:none;stroke:#000000;stroke-width:3;stroke-miterlimit:10;" x1="13" y1="228" x2="234.5" y2="228"/>
<g>
	<path style="fill:none;stroke:#000000;stroke-width:3;stroke-miterlimit:10;" d="M224.5,107.8v80.1h-17.3
		c-2.4-8.6-4.8-15.1-20.3-15.1h-0.3c-15.5,0.1-17.9,15.1-17.9,15.1H90.4v-80.1H224.5z"/>
	<path style="fill:none;stroke:#000000;stroke-width:3;stroke-miterlimit:10;" d="M79.6,130.1v57.7h-6.1
		c-2.7-10.9-8.4-14.2-12.8-15.1c-3-0.6-5.3-0.1-5.3-0.1c-0.5,0-1.1,0-1.6,0h-0.1c-15.5,0.9-16.5,15.1-16.5,15.1h-6v-32.1l16.3-25.6
		L79.6,130.1L79.6,130.1z"/>
	<path style="fill:none;stroke:#000000;stroke-width:3;stroke-miterlimit:10;" d="M90.4,172.7l96.3,0.1
		c-15.5,0.1-17.9,15.1-17.9,15.1H90.4V172.7z"/>
	<path style="fill:none;stroke:#000000;stroke-width:3;stroke-miterlimit:10;" d="M224.9,172.8l-0.4,2.5l-1.8,12.5h-15.5
		c-2.4-8.6-4.8-15.1-20.3-15.1h37.5L224.9,172.8L224.9,172.8L224.9,172.8z"/>
	<path style="fill:none;stroke:#000000;stroke-width:3;stroke-miterlimit:10;" d="M31.3,172.7h22.5c-15.5,0.9-16.5,15.1-16.5,15.1
		h-6C31.3,187.9,31.3,172.7,31.3,172.7z"/>
	<path style="fill:none;stroke:#000000;stroke-width:3;stroke-miterlimit:10;" d="M79.6,172.8l-0.8,15.1h-5.3
		c-2.7-10.9-8.4-14.2-12.8-15.1H79.6z"/>
	<path style="fill:none;stroke:#000000;stroke-width:3;stroke-miterlimit:10;" d="M224.5,107.8v80.1h-17.3
		c-2.4-8.6-4.8-15.1-20.3-15.1h-0.3c-15.5,0.1-17.9,15.1-17.9,15.1H90.4v-80.1H224.5z"/>
	<path style="fill:none;stroke:#000000;stroke-width:3;stroke-miterlimit:10;" d="M79.6,130.1v57.7h-6.1
		c-2.7-10.9-8.4-14.2-12.8-15.1c-3-0.6-5.3-0.1-5.3-0.1c-0.5,0-1.1,0-1.6,0h-0.1c-15.5,0.9-16.5,15.1-16.5,15.1h-6v-32.1l16.3-25.6
		L79.6,130.1L79.6,130.1z"/>
</g>
</svg>
