<?xml version="1.0" encoding="utf-8"?>
<!-- Generator: Adobe Illustrator 17.0.0, SVG Export Plug-In . SVG Version: 6.00 Build 0)  -->
<!DOCTYPE svg PUBLIC "-//W3C//DTD SVG 1.1//EN" "http://www.w3.org/Graphics/SVG/1.1/DTD/svg11.dtd" [
	<!ENTITY ns_flows "http://ns.adobe.com/Flows/1.0/">
	<!ENTITY ns_extend "http://ns.adobe.com/Extensibility/1.0/">
	<!ENTITY ns_ai "http://ns.adobe.com/AdobeIllustrator/10.0/">
	<!ENTITY ns_graphs "http://ns.adobe.com/Graphs/1.0/">
]>
<svg version="1.1" id="Layer_1" xmlns:x="&ns_extend;" xmlns:i="&ns_ai;" xmlns:graph="&ns_graphs;"
	 xmlns="http://www.w3.org/2000/svg" xmlns:xlink="http://www.w3.org/1999/xlink" xmlns:a="http://ns.adobe.com/AdobeSVGViewerExtensions/3.0/"
	 x="0px" y="0px" width="256px" height="256px" viewBox="0 0 256 256" style="enable-background:new 0 0 256 256;"
	 xml:space="preserve">
<title>tshirt</title>
<g id="Layer_2">
	<g id="Layer_1-2">
		<path d="M57.8,109.2H12.4C5.6,109.2,0,103.6,0,96.8V72.6c0-5,3-9.6,7.7-11.5l47.5-19.6l5.1,12.3l-47,19.4v22.7h44.5V109.2z"/>
		<path d="M243.5,109.2h-45.3V95.9h44.4V73.2l-47-19.4l5.1-12.3l47.5,19.6c4.7,1.9,7.8,6.5,7.8,11.6v24
			C256,103.6,250.4,109.2,243.5,109.2C243.5,109.2,243.5,109.2,243.5,109.2z"/>
		<path d="M194,227.7H62c-9,0-16.2-7.3-16.3-16.3V56.1c0-7.2,4.7-13.5,11.5-15.5l40-12.3h62l39.6,12.3c6.8,2.1,11.5,8.4,11.4,15.5
			v155.4C210.2,220.4,203,227.7,194,227.7z M99.2,41.6L61.2,53.3c-1.2,0.4-2.1,1.5-2.1,2.8v155.4c0,1.6,1.3,2.9,2.9,2.9h132
			c1.6,0,2.9-1.3,2.9-2.9V56.1c0-1.3-0.9-2.4-2.1-2.8l-37.6-11.7H99.2z"/>
		<path d="M128.7,77.3c-19.7,0-35.7-16-35.7-35.7h13.3c0.3,12.4,10.5,22.2,22.9,21.9c12-0.3,21.7-9.9,21.9-21.9h13.3
			C164.4,61.3,148.4,77.3,128.7,77.3z"/>
	</g>
</g>
</svg>
