<?xml version="1.0" encoding="utf-8"?>
<!-- Generator: Adobe Illustrator 17.0.0, SVG Export Plug-In . SVG Version: 6.00 Build 0)  -->
<!DOCTYPE svg PUBLIC "-//W3C//DTD SVG 1.1//EN" "http://www.w3.org/Graphics/SVG/1.1/DTD/svg11.dtd" [
	<!ENTITY ns_flows "http://ns.adobe.com/Flows/1.0/">
	<!ENTITY ns_extend "http://ns.adobe.com/Extensibility/1.0/">
	<!ENTITY ns_ai "http://ns.adobe.com/AdobeIllustrator/10.0/">
	<!ENTITY ns_graphs "http://ns.adobe.com/Graphs/1.0/">
]>
<svg version="1.1" id="Layer_1" xmlns:x="&ns_extend;" xmlns:i="&ns_ai;" xmlns:graph="&ns_graphs;"
	 xmlns="http://www.w3.org/2000/svg" xmlns:xlink="http://www.w3.org/1999/xlink" xmlns:a="http://ns.adobe.com/AdobeSVGViewerExtensions/3.0/"
	 x="0px" y="0px" width="224px" height="225px" viewBox="0 0 224 225" style="enable-background:new 0 0 224 225;"
	 xml:space="preserve">
<g>
	<g>
		<path d="M137.2,9.1c0.5,0.2,1.1,0.5,1.7,0.6c4.5,1.6,4.5,2.4,4.2,4.2c-0.5,3.4,0.6,6.4,3.3,8.9c0,0,0.1,0.1,0.1,0.1
			c4.1,4.8,9.2,7.4,13.6,9.7c2.4,1.2,4.6,2.4,6.5,3.8c14.1,10.3,25.4,23.3,37.3,37c1.6,1.9,3.2,3.7,4.9,5.6c0.8,1,1.4,1.8,1.8,2.4
			c-1.1,4.1-0.4,7.7,0.1,10.2c0.2,1,0.4,1.9,0.4,2.4c-0.4,8.9,2.1,16.9,4.5,24.7c0.5,1.5,0.9,2.9,1.3,4.4v7.3
			c-1,6.7-1.9,13.7-2.8,20.5c-0.1,0.5-0.1,1-0.2,1.4c-5.6,4.3-9.8,10.7-11.4,17.6c-2,8.7-7.3,15-18,21.8c-4.2,2.7-7.4,5.7-10.3,9.6
			c-4.7,6.4-8,7.3-10.5,7.3c-0.7,0-1.6-0.1-2.4-0.3l0,0l0,0c-1.3-0.3-2.7-0.4-4-0.4c-4.8,0-9.3,1.8-13.4,5.3c-1.7,1.5-3.3,2.2-5,2.2
			c-1.2,0-2.6-0.4-4-1.1c-0.1,0-0.1-0.1-0.2-0.1c-1.1-0.7-3.4-2.3-6.6-2.3c-2.1,0-4.1,0.7-5.8,1.9l0,0l0,0c-2,1.5-4.9,2.2-8.2,2.9
			c-1.4,0.3-2.9,0.7-4.4,1.1h-8c-2.7-2.4-5.8-2.8-7.8-2.8c-2.2,0-4.3,0.6-6,1.1c-2.2,0.7-4.4,1.1-6.3,1.1c-3.6,0-6.8-1.2-9.8-3.8
			c-1.6-1.4-3.2-2.6-4.7-3.8c-1.2-1-2.4-1.9-3.5-2.8l0,0l0,0l-0.3-0.2c-1.8-1.5-4.7-3.9-8.9-4.1c-0.2-0.6-0.4-1.1-0.6-1.6
			c-2.6-5.2-8.1-5.5-10.8-5.7l-0.4,0c-0.8-0.1-1.5-0.3-2-0.5c0.7-10.5-3.9-17.5-8.8-23.9c-3.6-4.7-9.4-11-19.4-12
			c-2-0.2-3-0.5-3.4-0.8v-2.2c0.4-0.9,0.8-1.8,1.3-2.8c0.7-1.5,1.4-3,2.1-4.6c3.4-7.9,4.2-15.2,2.4-22.4c-1.4-5.6-0.7-11.5,1.9-17.1
			c2.2-4.8,2.4-9.4,2.5-13c0.1-1.9,0.1-3.5,0.4-5c0.1-0.3,0.1-0.7,0.2-1c0.4-2.3,0.7-3.5,1.2-3.9c2.7-2.6,4.3-5.5,5.3-7.9l0-0.1
			l0-0.1c1.2-2.8,2.4-5.7,4-6.9c0.1-0.1,0.4-0.2,0.6-0.4c1.5-0.9,4.1-2.3,6.3-5.8c4.5-7.1,8.7-11.5,13.7-14.3c5.1-2.9,10.1-6,15-9
			c2.6-1.6,5.2-3.2,7.8-4.7l0,0l0,0c1.1-0.7,2.2-1.4,3.1-2.1c1.7-1.2,3.3-2.2,4.5-2.7c5.5-1.8,11.1-3.3,17-4.9
			c1.8-0.5,3.6-1,5.5-1.5c1.9-0.5,3.8-0.9,5.9-1.3c6.1-1.2,13-2.6,19.3-7.5c2.2-1.7,3.8-3.7,5.1-5.3c0.8-1,1.5-1.8,2.1-2.4H137.2
			 M139.1,1.1c-1.7,0-3.3,0-5,0c-4.6,1.8-6.3,6.5-10,9.4c-6.7,5.2-14.8,5.3-22.4,7.4c-7.7,2.1-15.4,4-22.9,6.5
			c-3.3,1.1-6.2,3.6-9.3,5.5c-7.5,4.5-15,9.3-22.6,13.6c-7.2,4.1-12.3,10.4-16.5,17c-1.6,2.6-3.3,2.8-5,4.1
			c-3.2,2.5-4.9,6.4-6.5,10.1c-0.9,2-1.9,3.8-3.5,5.3c-2.7,2.5-3.1,5.7-3.8,9.2c-1.1,5.4,0.2,10.8-2.3,16.2
			c-3.2,6.9-4.3,14.7-2.4,22.4c1.5,6.1,0.4,11.7-2,17.3c-1.3,3-2.7,5.9-4,8.9c0,2,0,4,0,6c1.9,4.8,5.8,6.1,10.6,6.6
			c6,0.6,10.1,3.9,13.9,8.9c4.7,6.1,8.1,11.4,7.1,19.7c-0.5,4.4,4.5,7.4,9.5,7.8c3.2,0.2,6.7,0.1,3.4,4.9c-0.8,1.1-0.1,2.1,0.8,3
			c0.8,0.8,1.9,1.2,2.8,1.2c0.7,0,1.3-0.2,1.8-0.6c1.1-0.8,2.1-1.2,3-1.2c1.8,0,3.2,1.3,4.7,2.6c2.7,2.3,5.6,4.3,8.2,6.6
			c4.6,4,9.7,5.7,15.1,5.7c2.9,0,5.8-0.5,8.7-1.4c1.3-0.4,2.5-0.7,3.6-0.7c1.6,0,2.9,0.7,3.9,2.8c4.3,0,8.7,0,13,0
			c5.4-1.7,11.4-2,16.2-5.6c0.4-0.3,0.7-0.4,1.1-0.4c1.1,0,2.1,1,3,1.5c2.7,1.4,5.3,2.1,7.8,2.1c3.6,0,7-1.4,10.2-4.2
			c2.5-2.1,5.1-3.3,8.1-3.3c0.8,0,1.6,0.1,2.4,0.2c1.4,0.3,2.8,0.4,4,0.4c7.4,0,12.6-4.6,17-10.5c2.3-3.2,4.8-5.5,8.1-7.6
			c10.1-6.4,18.5-14,21.5-26.7c1.2-5,4.6-10.6,9.7-14c2-1.3,1.7-3.7,2-5.8c0.9-7,1.9-14,2.9-21c0-3,0-6,0-9
			c-2.6-9.2-6.2-18.2-5.8-27.7c0.1-3.9-2.1-7.4-0.4-11.7c1-2.4-1.6-6.3-3.8-8.8c-13.6-15.5-26.7-31.5-43.5-43.8
			c-6.1-4.5-13.8-6.4-18.9-12.4c-0.8-0.9-1.7-1.3-1.5-2.6c1-7.6-3.6-10.8-9.8-12.9C140.5,1.9,139.8,1.4,139.1,1.1L139.1,1.1z"/>
	</g>
</g>
</svg>
