<?xml version="1.0" encoding="utf-8"?>
<!-- Generator: Adobe Illustrator 17.0.0, SVG Export Plug-In . SVG Version: 6.00 Build 0)  -->
<!DOCTYPE svg PUBLIC "-//W3C//DTD SVG 1.1//EN" "http://www.w3.org/Graphics/SVG/1.1/DTD/svg11.dtd" [
	<!ENTITY ns_flows "http://ns.adobe.com/Flows/1.0/">
	<!ENTITY ns_extend "http://ns.adobe.com/Extensibility/1.0/">
	<!ENTITY ns_ai "http://ns.adobe.com/AdobeIllustrator/10.0/">
	<!ENTITY ns_graphs "http://ns.adobe.com/Graphs/1.0/">
]>
<svg version="1.1" id="Layer_1" xmlns:x="&ns_extend;" xmlns:i="&ns_ai;" xmlns:graph="&ns_graphs;"
	 xmlns="http://www.w3.org/2000/svg" xmlns:xlink="http://www.w3.org/1999/xlink" xmlns:a="http://ns.adobe.com/AdobeSVGViewerExtensions/3.0/"
	 x="0px" y="0px" width="256px" height="256px" viewBox="0 0 256 256" style="enable-background:new 0 0 256 256;"
	 xml:space="preserve">
<path style="fill:none;stroke:#000000;stroke-miterlimit:10;" d="M32.6,93.5h-2.1v-0.2C31.2,93.4,31.9,93.5,32.6,93.5z"/>
<rect style="fill:none;stroke:#000000;stroke-miterlimit:10;" width="256" height="256"/>
<rect y="138" style="fill:none;stroke:#000000;stroke-miterlimit:10;" width="256" height="118"/>
<g style="opacity:0.6;">
	<path style="fill:none;stroke:#000000;stroke-miterlimit:10;" d="M207.5,161.5c6.5,1.8,12.8,4.1,18.9,7.1c3,1.6,6,3.3,8.6,5.6
		c1.3,1.2,2.6,2.6,3.4,4.5c0.4,0.9,0.6,2,0.5,3.1s-0.5,2.2-1,3c-1.1,1.8-2.6,2.9-4.2,3.9c-1.5,1-3.1,1.7-4.7,2.4
		c-3.2,1.3-6.5,2.3-9.8,3.1s-6.6,1.5-9.9,2l-9.9,1.7l-10,1.4c-3.3,0.4-6.7,0.8-10,1.2c-6.7,0.6-13.4,1.3-20.1,1.5
		c-6.7,0.4-13.4,0.4-20.2,0.2c-6.7-0.3-13.4-0.6-20.1-1.9c6.7,0.3,13.4,0.2,20-0.1c6.7-0.3,13.3-0.7,20-1.4c3.3-0.3,6.6-0.7,9.9-1
		c3.3-0.3,6.6-0.8,9.9-1.2l9.9-1.3l9.9-1.5l9.9-1.6c3.3-0.5,6.5-1.2,9.7-1.9s6.4-1.6,9.4-2.7c1.5-0.6,3-1.2,4.3-2s2.6-1.7,3.3-2.7
		c0.8-1,0.9-2.2,0.4-3.4c-0.4-1.3-1.4-2.5-2.5-3.6c-2.2-2.2-5-4.1-7.8-5.8C219.8,166.9,213.7,164.1,207.5,161.5z"/>
</g>
<g style="opacity:0.6;">
	<path style="fill:none;stroke:#000000;stroke-miterlimit:10;" d="M82,175c-9,2-17.9,4.3-26.5,7.4c-4.3,1.6-8.5,3.3-12.3,5.6
		c-1.9,1.1-3.7,2.4-5.3,3.8c-1.5,1.5-2.8,3.2-3.2,5s0,3.7,1.1,5.4s2.6,3.3,4.2,4.7c1.7,1.4,3.5,2.6,5.4,3.8c0.9,0.6,1.9,1.1,2.9,1.7
		l3,1.5l1.5,0.8l1.5,0.7l3.1,1.4l3.2,1.2c1.1,0.4,2.1,0.8,3.2,1.2l3.2,1.1c1.1,0.4,2.2,0.6,3.3,0.9c2.2,0.7,4.4,1.2,6.6,1.7
		c8.8,2.2,17.8,3.5,26.9,4.4c9.1,1,18.2,1.4,27.3,1.7c9.1,0.2,18.3,0.1,27.5-0.2s18.3-0.9,27.5-1.7c-9,1.7-18.2,2.8-27.4,3.6
		c-4.6,0.4-9.2,0.7-13.8,1c-4.6,0.2-9.2,0.4-13.8,0.4c-18.4,0.2-37-1.1-55.1-5.3c-2.3-0.6-4.5-1.1-6.7-1.8c-1.1-0.3-2.2-0.6-3.3-1
		l-3.3-1.1c-1.1-0.4-2.2-0.8-3.3-1.2l-3.3-1.3l-3.2-1.5l-1.6-0.7l-1.6-0.8l-3.1-1.7c-1-0.6-2-1.2-3-1.8c-2-1.3-3.9-2.6-5.7-4.2
		c-1.8-1.6-3.5-3.4-4.8-5.6c-0.6-1.1-1.2-2.4-1.4-3.7c-0.2-1.3-0.2-2.8,0.2-4.1c0.7-2.7,2.5-4.7,4.3-6.3c1.9-1.6,3.9-2.9,6-4
		c4.2-2.2,8.6-3.8,13-5.2C63.8,177.9,72.9,176.1,82,175z"/>
</g>
<g style="opacity:0.6;">
	<path style="fill:none;stroke:#000000;stroke-miterlimit:10;" d="M165.5,181.5c1.9,0.6,3.8,1.5,5.3,3.1c0.7,0.8,1.4,2,1.3,3.5
		c0,0.7-0.3,1.4-0.6,2c-0.2,0.3-0.4,0.5-0.6,0.8c-0.2,0.3-0.4,0.5-0.6,0.7c-1.8,1.6-3.7,2.5-5.7,3.2s-3.9,1.2-5.9,1.6
		c-4,0.8-7.9,1.2-11.9,1.3s-7.9-0.1-11.9-0.7c3.9-1.1,7.8-1.7,11.6-2.5c3.8-0.7,7.7-1.3,11.4-2.1c1.9-0.4,3.7-0.8,5.5-1.3
		s3.5-1.1,4.8-2c0.6-0.4,1.1-0.9,1.2-1.4c0.2-0.5,0.1-1.2-0.3-2C168.5,184.2,167,182.8,165.5,181.5z"/>
</g>
</svg>
