<?xml version="1.0" encoding="utf-8"?>
<!-- Generator: Adobe Illustrator 23.0.0, SVG Export Plug-In . SVG Version: 6.00 Build 0)  -->
<svg version="1.1" id="Layer_1" xmlns="http://www.w3.org/2000/svg" xmlns:xlink="http://www.w3.org/1999/xlink" x="0px" y="0px"
	 viewBox="0 0 256 256" style="enable-background:new 0 0 256 256;" xml:space="preserve">
<path style="fill:none;stroke:#886B31;stroke-width:5;stroke-linecap:round;stroke-linejoin:round;stroke-miterlimit:10;" d="
	M88.5,249.5c0,0,18-127,52-195c0,0,3-23-3-45"/>
<path style="fill:none;stroke:#886B31;stroke-width:5;stroke-linecap:round;stroke-linejoin:round;stroke-miterlimit:10;" d="
	M180.5,26.5c0,0-32,13-40,28"/>
<path style="fill:#FFD160;stroke:#886B31;stroke-width:5;stroke-linecap:round;stroke-linejoin:round;stroke-miterlimit:10;" d="
	M96.3,197.2c0,0-20.8,0.1-22.8-26.2C73.5,171,96.7,171.5,96.3,197.2z"/>
<path style="fill:#FFD160;stroke:#886B31;stroke-width:5;stroke-linecap:round;stroke-linejoin:round;stroke-miterlimit:10;" d="
	M100.3,172.2c0,0-20.8,0.3-22.9-26.1C77.3,146.1,100.5,146.5,100.3,172.2z"/>
<path style="fill:#FFD160;stroke:#886B31;stroke-width:5;stroke-linecap:round;stroke-linejoin:round;stroke-miterlimit:10;" d="
	M105.3,149.2c0,0-20.8,0.3-22.9-26.1C82.3,123.1,105.5,123.5,105.3,149.2z"/>
<path style="fill:#FFD160;stroke:#886B31;stroke-width:5;stroke-linecap:round;stroke-linejoin:round;stroke-miterlimit:10;" d="
	M112.3,126.2c0,0-20.7-1.3-20.9-27.7C91.3,98.5,114.4,100.6,112.3,126.2z"/>
<path style="fill:#FFD160;stroke:#886B31;stroke-width:5;stroke-linecap:round;stroke-linejoin:round;stroke-miterlimit:10;" d="
	M119.3,104.2c0,0-20.6-2.4-19.4-28.8C99.9,75.4,122.8,78.7,119.3,104.2z"/>
<path style="fill:#FFD160;stroke:#886B31;stroke-width:5;stroke-linecap:round;stroke-linejoin:round;stroke-miterlimit:10;" d="
	M127.3,81.2c0,0-20.8,0.3-22.9-26.1C104.3,55.1,127.5,55.5,127.3,81.2z"/>
<path style="fill:#FFD160;stroke:#886B31;stroke-width:5;stroke-linecap:round;stroke-linejoin:round;stroke-miterlimit:10;" d="
	M135,61.2c0,0-20.7-1.6-20.5-28C114.5,33.1,137.6,35.6,135,61.2z"/>
<path style="fill:#FFD160;stroke:#886B31;stroke-width:5;stroke-linecap:round;stroke-linejoin:round;stroke-miterlimit:10;" d="
	M138.7,64.5c0,0,18.2,9.9,32.4-12.4C171.1,52.1,150.4,41.6,138.7,64.5z"/>
<path style="fill:#FFD160;stroke:#886B31;stroke-width:5;stroke-linecap:round;stroke-linejoin:round;stroke-miterlimit:10;" d="
	M127.4,82.6c0,0,15.1,14.3,34.5-3.7C162,78.9,144.7,63.5,127.4,82.6z"/>
<path style="fill:#FFD160;stroke:#886B31;stroke-width:5;stroke-linecap:round;stroke-linejoin:round;stroke-miterlimit:10;" d="
	M120.4,104.6c0,0,16.2,13,34.1-6.5C154.6,98.1,136,84.1,120.4,104.6z"/>
<path style="fill:#FFD160;stroke:#886B31;stroke-width:5;stroke-linecap:round;stroke-linejoin:round;stroke-miterlimit:10;" d="
	M113.4,126.6c0,0,15.9,13.3,34.3-5.8C147.7,120.8,129.5,106.5,113.4,126.6z"/>
<path style="fill:#FFD160;stroke:#886B31;stroke-width:5;stroke-linecap:round;stroke-linejoin:round;stroke-miterlimit:10;" d="
	M107.4,148.6c0,0,16.1,13.1,34.2-6.3C141.6,142.3,123.2,128.2,107.4,148.6z"/>
<path style="fill:#FFD160;stroke:#886B31;stroke-width:5;stroke-linecap:round;stroke-linejoin:round;stroke-miterlimit:10;" d="
	M103.4,171.6c0,0,16.8,12.2,33.8-8C137.2,163.6,118.1,150.4,103.4,171.6z"/>
<path style="fill:#FFD160;stroke:#886B31;stroke-width:5;stroke-linecap:round;stroke-linejoin:round;stroke-miterlimit:10;" d="
	M97.3,197.8c0,0,18.6,9.2,31.9-13.7C129.3,184.1,108.2,174.5,97.3,197.8z"/>
<path style="fill:#FFD160;stroke:#886B31;stroke-width:5;stroke-linecap:round;stroke-linejoin:round;stroke-miterlimit:10;" d="
	M140.2,54.1c0,0-9.5-18.4,13.1-32.2C153.2,21.9,163.3,42.8,140.2,54.1z"/>
</svg>
