<?xml version="1.0" encoding="utf-8"?>
<!-- Generator: Adobe Illustrator 17.0.0, SVG Export Plug-In . SVG Version: 6.00 Build 0)  -->
<!DOCTYPE svg PUBLIC "-//W3C//DTD SVG 1.1//EN" "http://www.w3.org/Graphics/SVG/1.1/DTD/svg11.dtd" [
	<!ENTITY ns_flows "http://ns.adobe.com/Flows/1.0/">
	<!ENTITY ns_extend "http://ns.adobe.com/Extensibility/1.0/">
	<!ENTITY ns_ai "http://ns.adobe.com/AdobeIllustrator/10.0/">
	<!ENTITY ns_graphs "http://ns.adobe.com/Graphs/1.0/">
]>
<svg version="1.1" id="Layer_1" xmlns:x="&ns_extend;" xmlns:i="&ns_ai;" xmlns:graph="&ns_graphs;"
	 xmlns="http://www.w3.org/2000/svg" xmlns:xlink="http://www.w3.org/1999/xlink" xmlns:a="http://ns.adobe.com/AdobeSVGViewerExtensions/3.0/"
	 x="0px" y="0px" width="1257px" height="1280px" viewBox="0 0 1257 1280" style="enable-background:new 0 0 1257 1280;"
	 xml:space="preserve">
<g transform="translate(0.000000,1280.000000) scale(0.100000,-0.100000)">
	<path d="M1891,12774c-16-20-18-31-10-51c5-15,8-32,5-39c-3-8,34-40,89-79c285-203,479-501,574-887c30-119,61-322,61-394v-35l-29,22
		c-24,18-32,19-51,9l-22-12l35-36c65-68,105-130,117-182c13-56,7-75-14-44c-8,10-41,52-75,92c-69,82-87,112-100,171
		c-8,39-8,41,10,36c52-17,5,19-128,97c-232,135-324,176-450,199c-67,13-83,2-83-52c0-21-4-40-9-44c-12-6-250,188-304,248
		c-53,60-111,150-212,327c-48,85-110,188-138,228l-50,72l-42-37c-24-21-44-43-44-48c-2-22,129-267,202-378c42-63,167-236,277-384
		c110-147,200-271,200-275c0-12-27-10-87,8c-33,10-68,13-89,10l-34-7v-82c0-147,38-390,84-542c22-72,21-75-23-75c-29,0-75-18-173-67
		c-154-79-170-81-279-34c-243,102-513,330-857,724l-156,179l-38-40c-20-22-40-52-44-66c-14-56,31-106,108-123c29-7,48-25,110-108
		c217-288,549-565,892-746c87-46,115-64,106-73c-13-13-102-13-206-1c-49,5-73,4-78-3c-16-26,65-123,131-156c59-30,156-44,343-51
		c190-6,250-14,307-42c41-19,42-29,4-36c-16-3-89-32-162-64c-139-59-182-67-267-48c-56,13-108-41-69-73c6-6,29-13,50-17
		c43-8,57-29,35-51c-13-13-25-12-99,12c-286,90-571,254-771,443l-96,91l-26-31c-33-39-33-63,0-86c14-10,69-58,122-106
		c117-108,263-205,492-327c96-51,207-113,245-137c75-49,158-113,153-119c-2-2-28,3-58,11c-61,16-118,19-138,6c-10-6,3-23,46-62
		c232-215,494-325,754-317c143,4,104-15-45-23c-157-8-225-36-139-58c72-18,118-21,241-13c115,8,191,4,234-13c13-6,17-2,17,18
		s16,39,70,83c42,34,70,64,70,75c0,28,19,23,31-7c9-25,12-26,57-20c323,44,597,47,747,7c96-25,221-84,292-137c51-37,53-41,53-87
		c0-26,13-85,29-132c16-46,31-97,32-112c5-62,1-69-43-82c-24-7-101-40-173-74c-71-33-165-72-209-87c-83-29-88-47-10-35
		c24,3,44,4,44,1c0-10-86-55-150-80c-36-13-130-38-210-56c-155-34-214-51-262-76c-16-8-33-12-36-8c-4,4-2,9,4,11s19,10,29,17
		c16,12,15,14-15,36c-32,23-36,23-102,12c-57-10-82-9-146,4c-247,50-391,128-437,236c-8,21-15,40-15,44s38,4,85,2
		c98-7,165-34,332-137c92-56,188-101,216-101c7,0-10,20-36,45c-81,74-73,79,133,86c195,7,232,12,510,68c262,53,316,72,398,139
		c30,23,40,37,32,42c-7,5-9,13-5,20c13,21-86,5-290-44c-99-25-227-49-285-56c-247-26-288-32-345-46c-82-21-94-36-26-33
		c34,2,56-1,58-8c6-18-79-27-178-19c-170,13-308,64-405,149l-44,39l-39-34c-21-19-70-47-109-62c-40-15-82-36-94-45
		c-20-17-20-21-9-49c15-36,69-87,165-155c37-26,64-52,61-57c-9-14-74-30-126-30c-59,0-82-17-81-61c0-19-6-45-15-58
		c-13-21-20-23-59-17c-75,10-121,43-272,194c-128,128-164,158-276,227c-156,97-205,139-250,213c-53,87-78,107-137,106
		c-27,0-52-3-55-7c-12-11,62-133,118-192c62-67,99-97,308-252c79-59,196-157,260-218c63-61,134-125,157-143c60-47,144-83,210-89
		c55-6,56-6,35-23c-12-10-38-21-59-25c-88-16-84-47,14-112c165-111,300-156,468-157c138,0,226,23,393,104l119,58l32-25
		c57-44,39-71-77-113c-60-22-89-47-105-92c-5-14-18-18-50-18c-42,0-182-32-195-44c-8-9,84-101,137-136c24-16,59-32,77-36
		c19-3,34-10,34-14s-22-19-48-33c-27-14-55-38-62-53c-13-24-13-28,8-44c12-10,27-20,34-22c8-3,8-9,0-25c-10-17-18-20-49-16
		c-26,3-59-4-106-21c-124-48-223-30-372,66c-208,134-308,177-378,164c-42-8-52-23-43-60c7-27,39-40,120-50c66-8,202-97,211-137
		s24-48,122-68c96-19,130-33,153-63c13-16,20-17,44-9c15,6,54,11,86,11c70,0,98,10,166,56c36,25,60,35,80,32l29-3l-35-36
		c-27-27-58-44-130-68c-52-17-103-38-113-45c-17-13-13-16,40-31c242-71,414-70,630,1c56,19,109,34,118,34c23,0,115-41,115-51
		c0-4-42-32-93-63c-106-62-128-82-103-92c27-11,89,4,175,41c131,56,155,60,192,33c26-19,43-23,107-23c42,0,106,3,142,8
		c39,4,71,3,80-2c27-18-6-35-78-39c-70-4-102-21-102-53c0-27,39-48,108-57c34-5,65-11,68-15c4-3-3-18-15-33c-18-23-20-35-15-89
		c7-70-3-98-44-119c-40-21-113-29-144-17c-36,14-35,26,2,41c17,7,49,26,71,42l40,29l-59,39c-71,48-141,57-97,14c22-23,19-31-35-88
		c-27-29-50-56-50-59c0-4,14-22,31-42c28-32,29-36,12-42c-10-5-56-8-103-7c-66,1-112,9-205,37c-220,65-311,82-430,82
		c-103,0-113-2-163-29c-51-28-79-52-71-60c2-3,105-7,229-9c293-7,306-10,494-137c60-41,120-74,149-81c47-11,131-8,145,6
		c4,3-5,29-21,56c-44,80-38,87,73,95c106,8,119-24,25-61c-48-18-62-40-19-29c27,7,104-13,104-27c0-4-28-9-61-11c-69-3-94-22-73-55
		c9-14,27-18,85-19c105-2,108-3,77-19c-15-9-62-18-105-21c-54-4-95-14-133-32l-55-26l58-18c131-40,211-51,357-51c130,0,154,3,235,28
		c50,15,102,30,117,32c34,6,133-39,206-94c52-40,235-214,230-218c-5-5-255,33-300,45c-24,6-67,25-95,41c-54,30-135,40-148,19
		s32-85,108-153c123-111,137-124,137-140c0-24-105-51-200-51c-107,0-186,21-298,79c-234,122-269,137-331,142c-66,6-155-18-148-41
		c8-24,86-55,190-74c143-28,181-50,233-135c58-98,71-108,145-117c35-4,102-24,149-43c96-40,177-54,231-39c33,9,36,8,32-8
		c-4-15,2-19,28-22l34-3l-23-21c-40-37-93-46-226-38c-112,6-125,5-174-16c-29-12-52-27-52-32c0-18,70-38,134-38c59,0,69-3,101-31
		s45-33,126-41c50-5,134-18,188-28c182-37,282-45,384-32c132,17,228,54,349,135c58,39,68,42,130,42c51,0,72-4,85-18
		c14-13,15-21,7-35c-23-36-99-72-199-93c-55-11-104-24-108-28c-19-18,184-57,358-69l100-7l-105-82c-194-152-326-216-445-216
		c-91-1-132,20-199,104c-66,82-106,109-162,109c-24,0-45-4-48-8c-7-11,74-113,138-174c93-89,228-168,403-238c46-18,81-36,78-40
		c-15-25-79-40-157-39c-90,2-128-10-128-41c0-26,15-33,83-41c32-4,61-9,63-12c5-5,12-31,13-53c1-19,26-23,71-13c36,8,69,4,204-27
		c225-52,304-51,441,1c55,21,120,40,145,43c39,3,50,0,84-27c21-17,47-31,57-31c11,0,42,16,69,35l50,35l71-10c130-19,230,1,564,110
		c254,83,323,100,440,107c103,6,176-6,251-42l50-25l-4-113c-7-177,33-296,135-407l52-57l-87-66c-359-271-686-350-1031-251
		c-154,45-547,252-523,276c4,4,46,16,93,25c107,20,214,9,420-43c236-60,408-58,552,6c41,18,46,24,36,36c-18,22,4,38,76,59
		c69,19,145,56,164,79c8,9,12,16,10,17c-2,0-46,6-97,13c-89,11-94,11-107-7c-7-11-11-25-9-32c5-13-24-25-63-25c-12,0-28,9-36,20
		c-14,20-14,20-33-1c-30-34-78-49-158-49c-87,0-159-23-154-49c3-12,13-15,38-13c26,2,32,0,23-9c-16-16-146-15-218,1
		c-81,19-210,85-398,205l-157,100l6,33c8,40-1,40-50-2c-38-32-38-34-18-45c11-6,49-50,85-98c74-102,94-121,133-132c27-7,25-9-29-20
		c-48-11-75-10-158,3c-166,27-274,15-274-29c0-17,10-21,60-29c33-5,63-14,67-20c17-26-62-76-170-107c-36-10-75-25-87-33
		c-21-14-24-13-40,4c-21,24-48,26-64,6s-2-45,49-89c55-47,118-65,295-82c156-16,185-21,185-34c0-9-136-73-195-92
		c-58-18-163-16-208,6c-20,9-65,48-98,87c-70,78-102,98-156,98c-72,0-70-10,15-111c157-188,240-242,380-248c78-3,82-4,82-26
		c0-37,19-44,79-33c67,12,170-1,301-38c52-15,96-28,98-30c2-1-16-20-39-41l-42-40l-41,23c-23,13-58,24-79,24c-40,0-104-28-126-54
		c-11-13-9-17,15-27c43-18,168-23,237-9c149,29,386,130,565,239l83,51l38-20c21-10,71-27,111-36c97-22,134-38,159-70
		c21-27,20-44-3-44c-8,0-42-19-77-42c-63-43-65-43-149-42c-47,0-119,3-160,5c-59,3-84,0-118-15c-57-26-52-38,31-70
		c45-18,49-44,10-81c-36-33-92-49-127-35c-15,5-54,28-87,51c-60,41-139,64-139,41c0-6,7-55,16-109c11-73,13-110,5-143
		c-5-24-7-47-5-50c15-15,177-1,266,22l96,25l78-34c43-19,99-37,125-40l47-5l42,53c53,67,70,79,70,46c0-17,10-28,35-40
		c19-9,35-23,35-31c0-21-90-52-242-82c-153-30-219-53-276-94c-41-29-111-120-93-120c5,0,36,23,68,50l58,51l65-6c36-4,162-10,280-14
		c255-9,224-18,426,131c143,106,193,134,217,125c31-12,60-108,37-122c-8-5-202-34-229-35c-2,0,2-7,9-15c6-8,37-24,68-35
		c63-24,102-54,102-81c0-26,11-29,60-17c76,20,174-4,424-101c14-5-16-22-125-70c-147-65-160-68-240-56c-42,7-49,5-78-21
		c-30-28-31-30-16-52c15-21,22-22,112-20l95,3l32-35l31-35l70,6c39,4,138,7,220,8c282,3,419,28,580,105c179,87,318,202,561,467
		c86,93,165,174,176,180c55,30,282-49,333-115c14-18,25-35,25-39c0-16-107-39-205-43c-60-3-125-7-144-10c-32-5-33-7-28-39
		c23-139,175-296,335-345c100-31,175-27,278,16c47,19,98,34,112,32c27-3,27-4,37-116c8-87,14-116,26-123c9-4,43-41,75-80
		c76-93,125-129,176-129c38,0,98,23,98,38c0,4-23,15-50,25c-117,42-224,125-255,199c-17,42-20,104-5,113c21,13,96-33,140-86
		c104-128,153-169,205-169c30,0,31-7,5-40c-20-26-27-60-12-60c16,0,39,34,57,83c10,27,24,51,31,54c17,6,74-34,74-52c0-8-26-32-57-53
		c-128-87-124-110,25-138c26-5,30-39,6-48c-34-13-103-5-203,24c-67,19-126,30-167,30h-64v-33c0-94,72-218,172-295
		c29-22,94-64,143-92l90-52l45,16c120,42,215,39,288-9c44-29,86-99,97-160c6-39,8-41,98-82c51-23,111-49,135-57c41-15,42-15,32,4
		c-35,66,14,50,98-32l74-72l-26-19c-14-10-26-24-26-30s67-79,148-162c81-82,178-183,214-223l66-74l43,27c76,47,139,117,139,154
		c0,6-60,49-132,97c-190,125-285,201-335,267c-41,56-73,131-60,143c8,8,44-12,122-72c78-58,111-74,158-74c32,0,31,1-55,84
		c-83,79-88,87-88,125c0,23,2,41,5,41c14,0,419-389,453-434c46-62,76-70,130-32c21,14,43,35,50,47c32,51-23,121-145,183
		c-102,51-148,89-173,140c-21,44-24,46-54,40c-32-5-40,2-270,239l-237,245l-82-5c-151-9-228,40-406,261c-95,118-202,226-223,226
		c-6,0-8,9-4,23c49,167,5,330-135,496c-33,39-62,71-64,71c-10,0-47-75-70-145c-15-44-38-99-51-122c-24-42-25-43-49-27
		c-23,15-30,14-99-6c-62-19-78-20-91-10c-12,10-13,15-3,28c19,23,72,42,115,42c21,0,48,7,60,15c22,15,22,15,4,68
		c-44,126-126,248-206,306c-25,18-77,43-116,56c-90,31-129,55-179,112c-46,53-52,95-20,136c30,38,123,96,191,119c43,15,58,23,50,31
		c-20,20-11,45,37,99c162,179,273,379,318,573c25,110,19,283-15,390c-46,148-168,303-316,401c-67,45-89,40-117-24
		c-12-26-26-50-32-54c-16-11-36-9-36,3c0,19-50,112-73,137c-36,39-91,62-149,62h-53v187c0,177-1,191-23,231c-19,37-25,41-42,32
		c-29-15-50-51-50-85c0-16-9-43-19-59l-19-28l-10,33c-6,19-16,69-21,112c-14,98-32,141-78,184l-37,35l13,89c13,92,9,140-13,158
		c-19,16-68-41-105-120c-17-36-41-75-55-88l-24-22l-21,27c-31,39-27,99,14,225c19,60,35,122,35,137c0,35-23,57-68,65
		c-38,8-42,1-68-115c-22-97-38-131-74-162c-31-26-80-36-80-16c0,6,14,86,31,178c59,323,38,510-74,646l-24,30l-25-26
		c-16-15-29-42-33-69c-9-55-39-114-61-123c-21-8-44,11-44,35c0,33-20,21-40-23c-16-35-20-66-20-160c0-64-5-129-11-145
		c-10-27-12-25-30,46c-10,40-45,139-78,220c-32,80-66,169-74,198c-24,80-30,179-14,250l13,61l-42,64c-24,34-70,92-104,127l-61,65
		l-51-51l-51-51l27-32c14-18,38-56,52-85l26-52l-21-41c-26-51-38-104-51-229c-6-54-18-123-26-153c-19-66-68-160-97-189l-22-20v167
		c0,137-4,188-24,282c-13,63-27,121-31,129c-10,18-47-32-75-101c-11-28-30-57-43-66c-22-14-22-14-22,39c0,29-5,78-12,110
		c-10,49-9,71,12,176c27,141,24,164-31,258c-50,85-59,139-33,197l18,40l11-33c13-39,52-50,47-14c-1,11-6,73-11,138
		c-9,127-21,156-74,187c-22,12-29,12-52,0c-34-18-63-66-71-120c-10-65-29-97-77-126c-56-35-93-70-129-122l-29-43l-52,43
		c-150,125-236,224-252,291c-4,15-12,27-19,27c-6,0-70-9-142-21s-142-19-157-15l-26,6l26,62c30,75,53,190,53,266
		c0,120-29,220-167,580c-46,118-35,120-131-24c-54-81-112-145-130-144c-13,1-206,314-259,420c-71,140-95,239-91,370
		c3,108,6,103-48,83c-21-8-42,27-54,85c-13,71-29,132-35,132c-2,0-26-13-52-30c-26-16-52-30-57-30c-6,0-35-11-63-25l-53-24l2-76
		c1-57-3-80-14-92c-14-14-17-11-28,21c-17,52-100,138-167,173c-75,40-130,54-209,54c-35,0-64,2-64,4c0,3,14,39,31,82
		c17,42,42,124,57,182c25,99,27,120,27,316c-1,180-4,224-23,305c-26,113-93,330-101,330c-9,0-58-80-80-133c-11-26-35-96-52-155
		c-30-104-69-195-89-207c-15-9-24,42-24,150c-1,87,2,107,25,155c24,51,25,57,11,90c-22,54-16,161,17,305c40,177,45,217,31,259
		c-10,32-51,76-70,76c-8,0-34-91-44-150c-3-19-13-109-21-199c-26-273-50-352-131-431c-85-83-172-199-273-364c-50-82-103-162-116-178
		l-25-30v92c0,123,16,190,122,505c82,244,91,278,92,350c1,51,11,112,26,168c28,97,23,120-24,125c-34,4-38-6-81-236
		c-19-103-41-210-49-238c-15-58-66-174-75-174c-4,0-55,115-113,255l-107,255l16,61c14,55,14,62-1,77c-14,14-17,14-35-2
		c-22-20-63-113-87-200l-17-60l-18,23c-11,13-29,55-40,95c-40,138-50,164-68,180c-16,15-18,31-13,184c12,426-56,825-193,1129l-27,61
		l-36-25c-68-46-69-75-6-143c42-45,48-58,70-149c82-349,97-820,38-1195c-7-49-15-91-18-93c-2-2-18,14-36,37c-37,47-65,52-75,13
		c-8-35-23-53-43-53c-12,0-14,15-10,98c4,78,13,119,45,213c38,110,39,117,26,155c-21,59-41,168-52,278c-6,54-14,102-18,107
		c-4,4-21,9-38,11c-29,3-30,5-25,43c15,124-2,275-32,275c-17,0-47-85-58-169c-15-111-52-185-64-129c-3,13-15,63-26,111
		c-23,102-25,205-5,260c13,37,12,42-19,107c-18,38-45,115-60,172c-69,258-81,297-111,365c-22,46-52,91-89,130l-57,58l-20-25
		c-50-66-49-140,6-217c98-138,106-153,120-229c16-80,19-88,44-117c13-15,15-45,12-180c-3-185-18-249-77-335c-34-52-36-53-55-36
		c-13,11-19,31-19,58c0,23-5,48-10,56c-14,23-64-31-90-99c-11-31-35-73-53-94l-32-39l-27,27c-15,15-32,42-38,61c-8,25-19,36-38,40
		c-86,18-187,94-212,160c-6,14-10,60-10,102c0,55-9,107-31,187c-114,403-323,698-637,899c-40,25-74,46-76,46
		C1913,12800,1902,12788,1891,12774z M3440,11660c0-15-7-49-15-76c-23-77-19-136,20-255c21-66,35-129,35-160c0-69-37-172-119-337
		c-73-145-111-246-111-293c0-33-13-44-29-25c-15,17-16,45-7,140c9,88,1,93-33,20c-15-31-25-80-31-149c-11-122-29-175-60-175
		c-26,0-78,52-86,86c-8,31-20,31-28,0c-9-38,8-70,66-117c102-85,142-133,198-239c30-58,74-124,98-148c40-40,42-45,28-61
		c-9-10-16-33-16-53c0-24-8-42-25-58c-23-22-25-22-31-4c-41,130-145,242-240,260c-31,6-33,8-44,72c-25,148-69,270-110,307
		c-16,15-18,10-25-67c-4-46-10-76-13-68s-11,19-19,24c-8,4-23,27-34,50c-15,35-17,57-13,146c5,95,4,103-10,86c-24-30-29-112-12-211
		c9-49,16-110,16-135c-1-43-1-44-16-25c-33,41-63,122-69,185c-18,178,69,468,214,712c57,95,179,264,186,256c1-2-17-95-41-208
		c-56-267-74-388-74-511c0-110,8-118,42-42c17,39,19,58,13,132c-11,142,31,272,210,646c60,126,131,287,149,340c7,20,8,20,22,1
		C3434,11695,3440,11674,3440,11660z M2035,11529c22-6,76-32,120-57l80-47l-48-3c-57-4-131,28-192,82
		C1950,11543,1960,11549,2035,11529z M1786,11490c118-31,272-92,449-182c208-104,363-267,451-475c26-61,27-67,14-111
		c-7-26-19-69-26-97c-8-27-20-112-26-188c-11-131-13-140-35-148c-71-27-140,82-109,172l13,38l-44,32c-39,27-50,31-87,26
		c-39-6-46-3-73,26c-41,44-100,126-159,221l-48,79l-8-31c-22-84,29-171,175-301c115-103,141-131,172-190c18-35,25-124,11-138
		c-16-16-174-5-291,21c-76,17-149,27-202,27c-45,0-84,3-87,7c-2,4,2,18,9,32c12,23,9,28-50,93c-89,98-155,214-203,359
		c-69,208-85,326-61,437c10,50,11,50,34,35c13-8,52-18,87-22c47-6,62-11,60-22c-11-47-1-213,17-283c36-139,163-347,246-401l26-17
		l-7,38c-11,62-41,123-103,203c-104,134-119,182-131,420c-11,229-19,258-82,315C1659,11518,1667,11520,1786,11490z M3654,11263
		c93-245,100-503,21-748c-46-142-154-335-264-475l-20-25l-41,40c-54,53-88,125-96,205c-12,125,30,265,210,705c36,88,75,198,87,245
		C3588,11350,3615,11364,3654,11263z M4084,10525c83-271,93-543,31-802c-25-104-81-263-93-263c-4,0-32,25-63,56l-57,56l-26-39
		c-32-48-43-110-35-188c9-79,11-175,3-175c-20,0-124,83-179,142c-77,84-124,172-132,252l-6,58l-34-5c-18-3-33-4-33-1
		c0,2,17,23,39,47c32,35,39,51,44,97c7,76,43,180,122,351c37,79,78,173,92,209c33,83,38,88,64,64c68-61,66-133-7-352
		c-37-110-58-190-61-236c-6-67-5-68,15-57c13,7,27,31,36,59c18,61,31,35,23-45c-6-60,0-113,14-113c4,0,17,30,29,66
		c15,51,20,94,20,183c0,106,11,177,36,236c8,19,7,19-18,3l-26-17l33,102c43,132,65,282,65,448l1,134l35-80
		C4035,10671,4066,10586,4084,10525z M1636,10553c18-61,47-106,80-125l37-22l-23-18c-13-11-36-17-59-16c-21,0-43-2-50-7
		c-25-15,8-28,89-35c68-6,86-11,107-32l25-25l-44-11c-133-34-319-23-465,27c-82,28-213,102-247,140c-18,20-18,20,18,10
		c44-12,124,1,223,36c37,13,113,40,168,59C1609,10575,1628,10577,1636,10553z M4300,10391c5-11,10-38,10-61c0-32,14-66,67-158
		c96-169,153-291,153-326c0-50-38-263-65-364c-14-51-42-135-63-186c-39-96-128-256-141-256c-5,0-16,9-27,21c-30,33-22,99,26,224
		c64,166,81,226,78,265l-4,35l-26-55c-15-30-43-111-63-180s-39-127-41-129c-8-8-42,31-48,55c-4,16,9,71,39,160c46,138,61,242,29,199
		c-8-11-22-45-30-75c-30-111-46-156-66-188c-11-18-22-32-24-30s15,109,36,238c43,255,82,531,100,705c10,99,19,124,42,125
		C4286,10410,4294,10401,4300,10391z M1407,10149c19-7,65-8,148-1c66,5,126,6,133,3c17-10-108-40-216-52c-105-12-216,2-314,38
		c-68,25-69,27-46,39c13,7,71,18,128,24c58,6,107,14,109,16c3,2,10-9,17-26C1374,10173,1391,10155,1407,10149z M2335,10158
		c-13-34-93-50-114-24c-16,19,1,29,64,36C2344,10177,2342,10177,2335,10158z M2686,10139c83-25,229-100,306-157
		c235-173,376-396,412-650l6-43l-50,7c-38,5-56,3-76-11c-25-16-29-16-88,5c-262,95-446,271-486,467c-7,32-10,99-8,152l5,96l-54,57
		c-47,50-69,98-44,98C2614,10160,2649,10151,2686,10139z M5132,10098c3-45-3-74-33-162c-31-91-32-114-8-174c12-30,11-39-10-95
		c-13-34-26-77-28-94c-5-28-2-33,16-33c12,0,21,5,21,10c0,6,5,10,11,10c8,0,10-22,6-72c-15-181-20-208-34-208c-46,0-81,53-109,164
		c-32,128-79,141-79,23c1-68,28-139,84-221l31-44l-30-57c-17-31-30-63-30-71c0-15-34-37-44-27c-3,3-6,17-6,30c0,12-4,23-8,23
		c-5,0-41-56-81-125c-41-69-86-142-102-161c-27-34-30-54-8-54c5,0,27,16,49,36s43,34,47,31c7-8-44-84-69-101c-21-15-14-27,10-19
		c10,4,41,27,71,52c60,50,57,32-7-48c-23-28-28-40-16-33c46,25,116,110,179,217c80,134,116,181,133,171c7-4,24-31,38-59
		c15-29,37-63,49-77l24-25l-112-145c-62-79-145-177-185-217c-41-40-69-73-64-73c25,0,136,97,227,198c55,60,104,111,108,111
		c18,2-82-128-168-217c-93-98-219-212-234-212c-5,0-12,11-15,24c-3,14-62,84-131,156c-121,127-175,204-175,251c0,21-1,22-20,4
		c-13-12-20-31-20-55c0-22-7-43-16-51c-15-12-16-9-9,41c44,344,209,711,489,1092c94,128,108,129,61,4c-27-71-32-101-15-91
		c25,16,65,97,100,203C5070,10077,5127,10164,5132,10098z M2412,9961c140-37,216-90,257-181c11-25,21-64,21-86c0-36-6-47-43-81
		c-23-22-66-53-95-69c-56-31-61-38-35-48c10-4,29,2,46,14l29,22l-12-21c-16-31-96-87-160-112c-67-27-170-78-170-84c0-5,93,22,153,46
		c55,22,177,87,255,137c30,18,57,31,60,27c12-12-83-89-173-139c-49-28-107-64-130-81c-22-18-58-34-79-38c-21-3-83-28-139-54l-102-48
		h-200c-182,0-207,2-275,23c-109,35-199,85-260,147c-64,65-72,63,135,34c190-27,436-29,543-5c166,36,317,102,469,203
		c46,31,80,59,77,64c-13,21-56,5-118-44c-115-92-341-165-576-188c-108-10-138-9-219,5c-98,17-116,25-296,120
		c-147,78-255,145-255,158c0,14,56,0,111-27l45-23l56,49l56,49l94-25c51-13,136-28,188-33c107-10,313,0,410,19l65,13l-30,13
		c-23,10-70,12-200,7c-141-4-194-2-313,15c-78,12-163,21-188,21c-91,0-24,54,85,69c66,9,78,14,106,44c36,39,118,65,295,92
		c58,9,112,18,120,20s83,2,165,0C2293,9983,2356,9976,2412,9961z M5391,9898c21-83,23-116,23-303c0-156-5-230-17-290
		c-9-44-17-106-17-138c0-64-17-112-49-141c-21-19-21-19-21,1c0,11,11,46,25,77s25,68,25,83c0,24-1,25-22,11c-13-9-32-40-43-69
		c-14-36-30-59-48-69c-27-15-29-14-60,21c-79,90-95,115-85,132c24,44,51,146,79,297c17,91,44,206,60,255c29,88,101,225,119,225
		C5364,9990,5379,9948,5391,9898z M3976,9378c98-109,168-240,198-372c23-96,21-114-10-122c-30-8-39,3-49,55c-10,56-30,78-92,101
		c-120,44-133,66-143,235c-5,98-4,123,8,138C3911,9440,3924,9434,3976,9378z M3470,9238c34-23,114-154,104-170c-3-4-19-8-36-8
		c-39,0-78,41-105,112c-12,29-24,61-28,71C3395,9268,3429,9265,3470,9238z M3890,9023c174-150,303-291,350-385c32-63,40-91,40-133
		c0-78-7-91-32-60c-11,14-34,33-51,41c-18,9-45,28-61,43l-29,26l7-49c3-27,13-63,21-79c19-38,19-37-3-37c-35,0-51,31-54,105
		c-3,70-3,70-33,73c-33,4-45,16-45,48c0,12-6,27-14,33c-11,10-16,8-21-8c-3-11-1-29,4-40c16-28,13-57-5-72c-15-12-24-6-75,51l-59,65
		v-33c0-47,13-67,98-154c87-88,80-100-26-47c-149,74-246,271-274,559c-7,69-8,151-4,204l8,89l77-75C3751,9147,3832,9073,3890,9023z
		 M5026,9087c-17-45-116-201-123-194s45,136,84,208c33,59,39,66,47,49C5040,9137,5037,9116,5026,9087z M5548,8908
		c25-11,81-55,126-97s98-89,119-105s36-34,33-40c-35-75-87-218-105-284c-48-181-66-449-35-551c15-52,12-105-7-117
		c-15-9-85,53-123,110c-88,133-105,224-116,621c-9,324-16,382-55,439c-28,41-24,43,64,45C5486,8930,5518,8923,5548,8908z M6032,8841
		c31-25,85-142,97-212c16-93,24-476,12-569c-26-193-107-370-235-508l-39-43l-24,23c-61,57-80,132-94,378c-13,217-7,371,17,463
		c8,34,44,127,78,207c35,80,71,170,79,201c12,38,24,59,39,67C5995,8863,6004,8862,6032,8841z M5375,8741c-10-10-36-15-77-16
		c-56,0-64-3-73-22c-5-13-15-23-22-23c-25,0-12,36,38,104l51,68l49-48C5385,8761,5388,8754,5375,8741z M5340,8633
		c40-51,43-93,25-293c-18-184-18-185,3-245c22-64,21-75-6-59c-11,7-19,30-23,66c-7,61-14,78-33,78c-17,0-26-31-26-87
		c0-32,17-74,75-188c70-137,75-150,74-208c-1-108-9-112-61-31c-63,97-90,117-151,111c-41-4-47-2-41,12c20,45,15,78-21,146
		c-21,39-44,82-51,96c-12,23-12,32,2,64c20,49,20,119,0,150c-15,23-15,28-1,62c9,21,24,76,35,124c20,94,46,152,92,211
		c27,34,31,36,58,26C5307,8663,5329,8647,5340,8633z M4628,8393c48-65,107-146,130-179c42-63,122-214,122-232c0-6-26-5-67,3
		c-193,38-330,130-390,263c-44,94-34,230,24,345l14,28l39-55C4522,8535,4579,8457,4628,8393z M3865,8300c129-14,229-38,267-63
		c18-12,44-44,57-70c22-45,24-60,26-235c2-200,8-229,60-298l25-32l-50-36c-348-250-703-359-979-301c-171,36-347,133-474,263l-69,69
		l26,21c14,11,54,25,88,31l63,11l100-50c126-63,229-90,372-97c104-5,279,9,326,26c20,7,19,8-3,24c-20,14-42,16-144,11
		c-91-5-118-4-110,5c12,14,86,26,253,41c145,13,251,42,251,68c0,9,14,29,31,43l32,26l-84-4c-171-8-269-32-269-65c0-7,14-8,39-4
		c43,7,65-7,28-19c-12-4-83-9-157-12c-127-5-196,2-342,33c-25,6-28,3-28-19c0-28,16-37,65-37c19,0,37-4,40-10c4-6-17-10-57-10
		c-235,1-448,154-533,383c-10,26-16,50-13,53c11,11,59-9,124-52c43-28,78-44,98-44c52,0,60,11,58,84l-1,67l80,39
		C3336,8279,3593,8330,3865,8300z M2220,8235c0-2-11-12-24-20c-34-23-120-33-206-26l-75,7l65,21c46,15,91,22,153,22
		C2181,8240,2220,8238,2220,8235z M4320,8166c29-77,121-135,293-185c204-60,253-91,380-245c48-57,101-116,119-131c31-26,31-28,13-41
		c-32-24-76-17-130,21c-28,19-62,36-75,37c-21,3-25-2-28-28c-4-39,15-56,108-94c83-34,110-54,110-82c0-40-169-15-338,50
		c-10,3-13-2-10-19c2-19,14-27,61-42c83-27,64-41-47-34c-103,5-162,26-239,85c-100,76-193,229-241,393c-46,160-62,313-35,330
		C4286,8197,4310,8191,4320,8166z M6254,8155c13-14,31-55,40-92c9-36,23-78,31-93c13-24,13-30,0-40c-12-10-22-10-46,1
		c-28,11-33,10-45-6c-8-11-14-44-14-78c0-56-20-120-42-133c-12-8-5,407,7,444C6195,8187,6225,8186,6254,8155z M2170,8152
		c0-19-27-32-67-32c-24,0-59-7-78-14c-45-19-47-38-3-25c39,11,108,12,108,2c-1-5-24-19-53-33c-45-22-52-29-50-52c3-50-55-48-124,4
		l-32,25l29,22c42,30,39,45-7,37c-65-11-78-11-82-1c-8,22,93,58,179,65C2116,8160,2170,8161,2170,8152z M6475,7944
		c14-19,38-60,53-92c26-55,27-64,27-222c0-154-3-178-43-372c-23-114-46-248-51-297c-10-92-4-231,9-231s39,109,65,275
		c22,137,52,284,60,293c6,7,93-31,122-54c65-49,84-123,58-223c-21-81-75-202-87-195c-11,7-5,26,43,140c38,89,49,147,29,159
		c-12,8-40-48-85-175c-53-148-78-202-131-281l-45-69l-52,26c-29,15-112,64-185,110c-74,46-135,84-137,84c-9,0-12-46-4-67
		c12-32-7-27-35,10c-19,26-19,28-2,144c11,76,14,127,8,142c-8,24-9,24-31-12c-12-20-27-51-32-69c-15-50-12-193,5-282
		c9-44,15-80,13-81c-1-1-16,2-34,7c-86,23-104,149-59,416c18,111,31,160,46,179c11,14,20,30,20,35c0,6,11,32,25,60
		c18,35,25,66,25,105c0,51,3,59,44,105c44,50,68,93,142,256c25,55,42,81,51,78c23-9,43,5,69,50c26,44,28,73,9,118
		C6373,8042,6440,7990,6475,7944z M6820,7865c97-242,104-271,104-435c0-111-4-154-16-185c-16-40-17-39-17,112c-1,87-6,164-12,180
		l-12,28l-18-41c-17-37-17-50-7-120c6-44,8-92,4-108c-6-26-10-28-42-23c-53,9-102,44-126,90c-23,46-24,78-15,376l6,184l42,43
		c24,24,46,41,50,36C6765,7998,6792,7937,6820,7865z M2290,7870c20-14,6-23-89-55c-40-13-89-36-108-51c-44-33-55-23-18,16
		c16,17,23,30,16,30c-23,0,10,31,54,51C2188,7881,2266,7886,2290,7870z M5580,7710c77-55,166-176,231-314c34-73,79-211,79-243
		c0-25-40-12-67,22c-15,19-31,35-35,35c-17,0-7-64,18-111c14-28,24-53,21-55c-9-9-147,98-190,147c-54,61-109,167-132,254
		c-9,33-19,113-22,179l-6,119l39-7C5537,7732,5566,7720,5580,7710z M2770,7475c7-9,11-16,9-18c-22-12-171-57-191-57
		c-32,0-58,9-58,21c0,4,28,22,63,38C2664,7494,2748,7501,2770,7475z M5340,7411c80-61,150-140,287-323c58-79,126-167,150-196l45-52
		l-17-43c-11-30-15-67-13-132l3-90l55-17c30-9,86-23,123-32c79-18,160-56,201-94c15-15,54-66,86-113c67-99,96-120,273-203
		c65-31,138-69,162-86c50-34,89-95,99-153c6-32,3-44-19-73c-14-19-35-34-46-34c-29,0-33-24-16-85c26-93-21-87-82,10
		c-22,36-44,65-49,65c-16,0-34-57-27-82c4-13,44-61,89-107l81-84l-53,5c-41,4-60,12-83,34c-49,47-98,125-137,220
		c-61,147-78,161-108,88c-19-46-7-73,76-161c70-73,81-98,58-122c-11-10-9-15,6-27c11-8,30-14,42-14c24,0,49-24,40-39
		c-4-5-28-13-54-16c-26-4-59-10-74-15c-32-10-56,12-85,80c-22,51-47,77-58,60c-12-19,6-71,38-107l31-36l-34,8c-85,18-141,65-171,144
		c-18,48-23,88-29,271c-4,118-13,230-18,248c-18,54-57,114-122,186c-68,75-101,124-120,178c-12,31-18,36-36,32
		c-64-16-167,54-214,147c-17,32-24,39-31,28c-26-41-2-78,114-176c20-17,37-36,37-42c0-17-77-13-116,5c-43,21-132,116-180,194
		c-29,48-40,58-50,49c-19-15-18-49,2-77c9-13,13-30,10-38c-9-22-46-13-67,16c-23,31-49,181-49,280c0,75,27,264,56,393l16,69l-53,54
		c-29,30-49,54-44,54C5271,7460,5304,7438,5340,7411z M2784,7401c11-17-74-71-112-71c-33,0-44,24-19,40
		C2708,7406,2772,7421,2784,7401z M5015,7280c43-11,98-31,123-45l45-25l34,21c55,34,58,20,28-147c-31-168-32-295-2-351l17-33l-57-45
		c-128-102-237-148-458-195c-83-17-172-39-198-47c-46-15-49-15-70,5c-48,44-86,55-167,49l-77-6l-49,50c-92,95-209,160-287,159
		c-18-1-50-7-72-15c-48-18-45-17-45-4c0,6,32,44,70,83c39,40,70,76,70,81c0,4-44,5-97,1c-54-3-143-9-199-12c-119-8-181,4-245,47
		c-51,34-50,34,58,15c150-27,174-25,318,29c156,57,231,66,374,41c180-31,383-12,550,51c39,15,42,18,25,30c-25,18-74,16-174-7
		c-136-31-231-28-520,20c-192,31-197,31-203,16c-8-19,1-26,35-26c53,0,29-32-56-74c-90-45-194-59-254-35l-33,14l38,39
		c40,40,69,56,108,56c17,0,26,8,34,30c12,35,18,36,50,14c22-16,24-16,33,0c18,32,52,56,87,61c49,8,117,43,144,74c21,25,26,26,142,28
		c76,1,193,12,320,32c264,40,244,38,371,40C4908,7300,4957,7295,5015,7280z M3574,7151c-35-22-66-60-58-73c3-4,15-8,26-8
		c42,0,6-14-54-21c-33-4-64-13-69-21c-5-7-5-14-1-15s19-4,35-7c46-10,32-34-30-52c-47-14-65-15-110-4c-29,6-53,15-53,20
		c0,16,136,111,224,155C3572,7170,3634,7188,3574,7151z M6869,7083c-23-120-63-207-148-319c-61-82-178-201-187-191
		c-11,11,27,66,58,85c79,49,127,120,193,287c41,104,80,185,90,185C6876,7130,6873,7109,6869,7083z M7190,7102c22-11,57-48,96-102
		c33-47,74-94,91-105c65-43,68-45,56-51c-7-3-24-14-38-26l-25-20l39-28c22-16,52-50,66-75c42-71,43-133,5-319c-23-114-31-174-27-212
		s2-54-8-58c-18-7-25,3-25,35c0,15-4,31-10,34c-15,9-23-41-18-115c4-55,13-82,46-143l40-75l-29-12c-43-18-71-6-136,58
		c-167,164-202,440-117,910c23,126,24,145,11,160c-8,9-29,45-47,80c-18,34-37,62-41,62c-5,0-9,5-9,10C7110,7126,7151,7122,7190,7102
		z M7027,7071c45-21,107-80,136-130c18-31,18-31-3-31c-27,0-78,26-111,57l-26,24l-28-33c-36-42-50-78-65-158c-11-61-40-133-58-144
		c-5-3-12,50-15,117c-9,155,11,287,46,309C6924,7096,6984,7090,7027,7071z M7875,6958c1-109,5-154,28-247c27-115,27-115,7-136
		s-20-21,7-146c23-110,26-144,25-300c-1-123,3-192,12-230l14-54l-33-28c-24-19-40-46-55-93c-16-46-35-79-62-106l-40-40l-66,65
		c-37,35-77,67-90,71c-18,6-21,12-15,29c16,44,7,86-30,141c-47,70-56,114-57,256c0,165,48,377,134,597c20,52,23,71,17,117l-8,55
		l89,66c49,37,96,77,104,91c9,13,17,24,18,24C7874,7090,7875,7030,7875,6958z M3275,6924c39-23,44-29,30-36c-23-13-60-2-113,34
		c-30,21-40,33-32,38C3177,6971,3218,6958,3275,6924z M7106,6825l42-52l-45-189c-38-161-45-206-46-304c-2-140,9-177,95-292
		c73-98,108-170,108-220c0-26,4-38,14-38c20,0,30,35,17,58c-13,24-5,32,32,32c21,0,37-9,56-31c60-72,102-107,201-169
		c57-36,137-96,177-134c93-87,124-148,131-254l5-76l-24,15c-13,9-43,51-66,95c-45,83-55,77-27-17c23-79,51-119,98-140l40-18l-27-10
		c-66-25-137-4-137,41c0,23-18,14-29-14c-6-17-15-13-96,47c-111,82-214,182-262,254c-41,61-73,154-73,211v38l-72,16
		c-183,41-296,162-348,371c-32,128-25,329,18,495c28,111,96,288,127,337C7034,6906,7049,6898,7106,6825z M5291,6603c5-26,2-33-18-42
		c-27-12-66-14-77-4c-8,9,65,84,78,80C5280,6635,5287,6620,5291,6603z M6395,6588c122-62,274-246,325-392c35-103,33-105-67-51
		c-249,135-354,259-388,457l-6,37l38-11C6318,6622,6362,6604,6395,6588z M5490,6508l23-21l-23-19c-23-19-23-18-51,8
		c-22,21-26,31-18,41C5438,6536,5463,6533,5490,6508z M5422,6456c28-29,59-68,56-70c-71-53-128-47-128,13c0,23,34,71,51,71
		C5405,6470,5415,6464,5422,6456z M4975,6449c4-5-1-19-12-31c-23-26-185-148-196-148c-14,0,100,141,134,166
		C4936,6462,4965,6467,4975,6449z M8506,6363c17-34,19-61,20-248c0-179,3-216,18-252c21-50,36-53,65-17l21,26l35-74
		c113-237,81-604-80-916c-34-66-40-66-35,3c2,29,28,96,103,270c38,90,57,164,57,230c0,51-24,170-43,217l-14,33l-11-40
		c-7-22-12-101-12-175c0-162-11-234-45-303l-25-52l5,55c3,30,9,73,12,95c6,36,5,39-10,26c-34-28-56-79-77-181c-23-110-45-167-82-212
		l-23-26l-90,22c-222,55-315,140-315,292c0,121,61,260,237,544c100,160,171,296,198,378c14,43,16,72,10,145c-5,68-3,100,7,122
		c17,37,41,75,49,75C8484,6400,8495,6383,8506,6363z M3639,6299c40-14,39-25-1-37c-96-30-152-21-101,15c15,12,37,23,48,26
		c11,2,20,5,21,6C3607,6309,3621,6305,3639,6299z M5748,6285c34-8,85-27,114-41c89-45,208-173,195-209c-10-24-187-105-267-121
		c-68-14-91-14-259,1l-183,17l-76-22c-66-20-89-22-177-16c-195,12-370,53-500,116c-94,45-126,75-134,127c-6,35-9,38-38,39
		c-18,0-35,2-38,5c-2,3,13,23,35,44c22,22,40,44,40,51c0,15,28,26,51,19c9-3,29-21,42-39c23-29,33-34,84-39c80-8,256,7,491,43
		C5472,6313,5604,6318,5748,6285z M4448,6011c135-78,367-150,562-172c60-7,106-17,103-22s-20-6-38-3c-37,7-53-5-30-24
		c20-17,131-24,184-12c24,6,39,7,35,3c-17-15-175-82-267-113c-84-30-103-32-217-33c-122,0-127,1-190,32c-44,22-104,69-188,147
		c-68,63-153,134-190,157c-37,24-69,45-72,47c-7,5,23,22,41,22c9,0,36-13,60-30c66-44,110-40,123,13c3,15,9,27,12,27
		S4412,6033,4448,6011z M9072,5820c30-77,36-247,13-361c-23-117-74-264-157-454c-34-77-44-88-69-74c-10,5-20,9-22,9
		c-3,0-31-39-63-86c-51-76-125-154-145-154c-4,0-11,9-14,21c-5,14,6,47,34,102c61,125,160,510,226,886l25,144l52,48l53,47l23-36
		C9040,5891,9060,5850,9072,5820z M6019,5833c-51-76-227-243-319-304c-201-133-428-220-648-249c-77-10-84-10-109,9
		c-30,25-72,26-130,6c-63-22-146-3-322,75c-48,20-101,41-118,44c-40,9-42,24-8,56c23,22,33,24,103,22c99-4,212,25,432,111
		c259,102,310,115,498,132c188,18,191,18,397,85c174,56,179,57,223,59l33,1L6019,5833z M6864,5761c7-34,6-45-5-52c-22-14-31-6-45,39
		c-10,37-10,43,5,52C6845,5815,6854,5807,6864,5761z M6884,5549c15-12,39-47,52-78c44-99,85-126,294-195c164-54,246-101,340-195
		c96-96,234-277,226-297c-9-24-35-28-56-9c-19,18-20,17-20-9c0-32,14-61,43-94c25-27,16-36-40-47c-62-11-92,17-142,133
		c-24,56-48,99-53,96c-20-13-48-90-48-134c0-25,9-77,20-115s20-80,20-92c0-43-67-42-162,2c-61,28-86,31-113,11c-17-13-23-11-56,15
		c-52,41-138,150-200,254c-29,50-55,92-57,95c-10,14-22-31-19-71c6-73,44-136,142-235c75-76,105-98,175-132c47-22,135-52,195-67
		c111-28,195-61,195-75c0-13-69-22-179-21c-299,1-512,158-603,445c-14,42-21,103-25,193c-6,140,1,201,39,331l21,72l-21,23
		c-11,12-26,45-32,72c-6,28-18,61-26,74c-17,25-13,34,28,56C6854,5573,6854,5573,6884,5549z M6075,5389c44-5,84-9,90-9
		c5-1-15-11-47-24c-178-75-344-73-412,2c-23,27-16,30,81,41C5858,5408,5940,5405,6075,5389z M9286,5264l-27-84l26-73
		c120-332,120-632-1-920c-48-115-126-252-200-351c-36-47-69-98-73-114c-4-15-6-59-3-99l4-71l42,29c62,43,89,46,115,13
		c30-38,27-92-8-162l-29-57l14-115c16-136,53-271,97-354c41-77,123-166,211-227c59-42,76-49,115-49c79,0,77,11-11,76
		c-103,74-211,182-265,262c-63,94-85,161-91,272c-4,85-1,103,23,170c30,83,30,90,20,172c-10,75,10,129,70,188c25,24,45,39,45,33
		c0-7-4-15-10-18c-24-15-7-32,43-44c79-18,205-83,274-143c89-75,156-164,213-282c74-153,95-248,95-433v-153l-72-72l-72-72l-41,19
		c-41,18-44,18-131,1c-49-10-100-15-114-12c-20,5-25,3-25-13c0-14,13-24,48-36c93-33,96-35,83-48c-8-8-46-12-104-12
		c-98,0-136,13-242,85c-22,14-56,36-76,48l-36,22l-42-31l-41-31l-83,12c-101,14-203,3-379-41c-212-53-181-60,87-19
		c117,18,169,23,231,21l30-1l-6-53c-4-28-9-59-11-67c-6-22,27-23,116-2c44,11,82,18,84,16c10-9-23-33-67-49c-114-43-142-57-142-76
		c0-30-74-95-152-135c-84-42-201-84-235-84c-13,0-23-4-23-10c0-19,91-10,168,16c110,36,214,95,307,174c98,83,142,110,178,110
		c48,0,39-10-121-129c-101-76-161-111-261-155c-151-67-216-80-396-80c-177-1-189,1-470,76c-177,47-235,68-191,68
		c63,0,1146,277,1146,293c0,17-57,28-110,22c-72-8-241-65-349-116c-67-32-96-41-134-40c-26,1-105-8-175-20c-215-38-304-28-346,35
		c-15,24-15,26,5,37c12,6,36,8,56,4c46-8,140,23,399,134c312,133,399,155,525,131c65-12,74-12,118,7l48,20l21-24c20-22,27-24,79-17
		c32,3,59,7,60,9c2,1-5,33-15,71c-33,130-99,209-169,201c-25-2-30,0-21,10c6,7,16,13,23,13c22,0,27,68,14,224c-11,132-11,163,3,227
		c8,41,18,81,22,90c6,13,2,16-17,12c-22-4-24-2-19,22c4,24,3,26-14,17c-11-6-44-36-74-66c-30-31-60-56-67-56c-26,0-12,43,32,97
		c25,31,44,58,41,60c-3,3-21-5-41-17c-42-26-79-86-96-155c-6-27-16-57-20-66c-18-35-296-234-449-321c-122-69-319-138-395-138
		c-19,0-35-5-35-11c0-18,125-5,200,21c132,45,411,188,493,252c82,65,28,12-133-131c-145-130-174-151-202-151c-18,0-107-21-198-46
		c-165-46-313-66-374-50c-13,3-45,24-70,45c-43,38-48,39-98,34c-52-5-53-5-86,36c-57,71-169,121-274,121c-54,0-61,12-20,36
		c84,51,134,90,148,114c14,23,31,30,113,50c53,12,195,56,316,97s261,88,310,104c155,52,329,97,429,110c126,17,103,34-44,33
		c-117-1-247-29-379-83c-41-17-77-29-79-27c-8,8,138,87,224,122c173,70,240,87,354,88c109,1,168-15,242-66c36-25,42-23,83,17
		c47,47,46,76-5,126c-45,45-72,118-96,269c-28,168-1,339,75,475c16,28,31,67,35,89c12,61,48,135,157,318c65,109,112,200,130,252
		c23,69,32,84,60,100c55,32,116,84,146,126C9315,5393,9318,5368,9286,5264z M6667,5274c94-31,131-95,118-199c-8-65,5-58-193-116
		c-145-43-192-63-264-116l-47-34l-146,10c-80,6-150,13-156,17c-7,4-9-3-7-17s17-31,38-43c78-46,362-10,567,70c119,47,153,53,173,29
		c7-9,11-17,9-18s-28-22-58-46c-154-126-311-191-486-198c-113-5-431,26-504,49c-53,17-117,83-201,208c-120,180-148,199-318,218
		c-45,5-89,15-98,23c-14,11-13,14,8,25c13,6,66,17,118,23c60,8,115,21,150,37c51,24,67,26,230,28c106,2,266,13,405,29
		c127,15,246,28,265,30s106,5,192,5C6583,5290,6630,5286,6667,5274z M4327,5234c39-9,87-13,113-10l45,5l-35-18c-71-37-211-34-296,6
		c-30,15-32,18-17,24C4169,5254,4256,5251,4327,5234z M4724,5159c-38-41-84-63-166-82c-114-25-74,16,46,48c37,10,82,29,100,41
		C4749,5198,4758,5195,4724,5159z M9500,5116c0-40,12-84,45-171c70-181,89-262,89-390c1-125-20-212-80-325c-39-74-42-96-14-103
		c11-3,20-10,20-15s-56-58-125-116c-118-101-177-164-190-206c-3-10-26-26-51-36s-63-30-85-46c-21-15-39-25-39-22s24,47,54,97
		c164,280,276,569,311,801c25,170,18,293-26,440l-20,69l42,38C9490,5184,9500,5182,9500,5116z M7860,5005c11-14,16-182,5-193
		c-2-2-11-2-20,1c-11,5-15,22-15,71c0,36-5,77-10,92c-8,21-8,29,2,36C7840,5023,7846,5022,7860,5005z M4623,4971c-1-37-27-71-55-71
		c-22,0-23,18-2,48c8,12,12,27,8,33c-8,13,15,30,36,26C4620,5005,4624,4994,4623,4971z M8160,4839c41-11,121-42,178-70
		c127-61,226-152,269-245c38-84,43-186,13-288c-13-42-26-76-30-76c-8,0-25,55-36,113c-4,27-9,35-15,25c-13-20-10-123,6-223
		c8-49,15-100,15-112c0-66-59,18-100,142c-45,134-81,192-135,215c-53,23-61,38-121,212c-49,142-85,205-138,237c-35,22-96,85-96,100
		C7970,4879,8065,4865,8160,4839z M6789,4684c5-32,12-66,16-75c9-24-111-112-240-174c-60-30-122-57-137-60c-49-12-31-28,26-23
		c90,7,250,94,354,191c34,32,39,27,21-20c-35-93-258-236-443-283c-104-26-243-27-351-1c-89,22-164,49-398,145c-87,35-176,67-198,71
		c-21,4-39,10-39,14s22,18,49,31c53,24,81,58,39,46c-51-15-88-18-88-8c0,6,22,15,49,21c103,22,207,23,409,6c230-20,433-16,526,9
		c92,26,214,82,301,140c54,36,82,49,87,41C6776,4749,6783,4717,6789,4684z M8008,4591c15-15,49-52,75-84c27-31,55-57,63-57
		s14-5,14-10c0-11-39-7-111,11c-98,25-198,160-126,171C7957,4628,7978,4620,8008,4591z M7695,4568c459-201,680-386,798-671
		c16-36,15-38-8-53c-29-19-51-13-100,26c-33,26-85,41-85,25c0-29,38-67,99-99c64-33,111-75,111-97c0-21-211,29-285,67
		c-27,15-69,41-91,60c-45,36-54,35-54-6c0-36,20-52,113-90c42-17,77-33,77-35s3-11,7-21c6-15,1-17-43-11c-27,3-83,20-124,36
		s-78,27-82,25c-5-3-8-22-8-43s-5-52-11-69c-10-30-13-32-52-26c-177,25-267,114-318,311c-31,124-22,357,19,464c9,22,3,36-39,105
		c-27,44-52,98-56,118c-6,37-5,38,18,31C7594,4611,7646,4590,7695,4568z M9967,4369c46-22,79-60,138-158c36-60,37-66,26-95
		c-68-164-91-260-116-471c-22-187-45-316-56-309c-17,10-66,117-92,199c-68,219-60,548,20,802c9,29,21,53,27,53
		C9919,4390,9943,4381,9967,4369z M5220,4343c33-9,60-19,60-23s-9-15-19-24c-18-16-21-16-68,8c-27,13-66,27-86,31s-34,11-31,16
		C5084,4365,5155,4361,5220,4343z M10295,4225c233-166,325-435,251-728c-41-160-46-152-39,58c4,134,2,211-6,257
		c-13,68-65,173-81,163c-22-14-29-77-13-119c55-148,55-148,55-271c0-89-6-141-21-200c-21-78-98-255-111-255c-8,0,1,71,30,220
		c25,129,23,215-5,270c-18,34-18,34-27,11c-5-14-13-110-18-215c-9-186-17-255-41-343c-13-49-21-52-43-21c-12,16-16,47-16,106
		c0,62-3,83-12,80c-8-3-14-29-16-71c-2-37-7-67-12-67c-23,0-39,50-46,138c-4,50-10,92-15,92c-13,0-24-89-24-197c0-70-4-103-11-103
		c-19,0-37,29-35,58c0,15,2,144,4,287c3,243,15,369,37,405c7,12,12,11,30-5c36-33,50-70,65-179c19-136,25-150,41-105
		c22,59,16,170-17,332c-37,180-36,292,1,390c12,31,24,57,27,57S10261,4250,10295,4225z M5384,4254c9-3,16-10,16-15c0-13-56-39-83-39
		c-14,0-35-9-48-20l-24-19l38-1c21,0,69,5,108,11c52,8,78,8,106-2l36-12l-29-15c-20-11-75-17-179-22c-82-4-151-6-153-4
		c-9,7,79,90,123,115C5347,4261,5358,4264,5384,4254z M9790,4155c0-8-21-39-47-68c-27-30-56-64-65-75c-10-12-22-22-28-22
		c-17,0-29,36-27,76c3,44,29,64,85,64c25,0,35,5,39,20C9753,4173,9790,4177,9790,4155z M9754,3984c22-9,39-79,31-133
		c-9-64-36-161-45-161c-12,0-57,111-65,158c-4,23-4,65,0,92c6,47,9,50,35,50C9726,3990,9745,3987,9754,3984z M6066,3475
		c16-13,17-16,4-25c-43-29-126-38-154-17c-17,12-13,15,35,35C6016,3493,6040,3495,6066,3475z M8910,3421c16-31,13-81-5-81
		c-26,0-96,40-89,51c7,12,65,49,76,49C8896,3440,8904,3431,8910,3421z M7150,3175c0-37-63-95-103-95h-31l59,60c33,33,63,60,67,60
		S7150,3189,7150,3175z M6170,3111c0-5-15-20-32-33c-26-18-47-23-105-24c-76-1-82,5-30,33C6055,3114,6170,3131,6170,3111z
		 M10147,2965l22-15l-22-36c-12-19-32-47-44-62l-22-27l-1,24c0,20,7,51,26,119C10110,2984,10121,2983,10147,2965z M8810,2874
		c74-17,200-72,200-87c0-6-40-7-112-3c-108,7-115,6-161-18c-38-20-52-24-73-16c-14,6-39,10-55,10c-29,0-79-25-79-40
		c0-14,28-19,59-10c19,5,31,5,31,0c0-16-77-50-148-65c-76-16-113-29-155-58c-22-15-40-18-79-15c-48,5-52,4-84-32
		c-61-68-208-130-306-130c-89,0-117,36-50,63c20,8,102,35,182,61c80,25,150,49,156,53c6,5,21,28,34,53c80,160,93,172,238,209
		C8579,2894,8696,2901,8810,2874z M7490,2711c0-22-35-46-97-65c-55-17-8,40,50,61C7484,2722,7490,2722,7490,2711z M10192,2374
		c59-20,153-105,197-178c19-31,31-59,28-62c-10-10-74,16-134,55c-71,46-215,180-207,192C10084,2395,10142,2392,10192,2374z
		 M9388,2285c11-10,8-20-18-59c-17-25-33-46-34-46c-2,0-1,11,2,25c6,36-16,32-66-11c-23-19-42-33-42-29c0,14,24,52,53,83
		c49,51,10,38-48-17c-29-28-51-52-48-55c10-10-28-64-64-92c-63-47-134-117-148-145c-20-38-104-62-245-68l-115-6l-83-59
		c-83-58-84-59-122-46c-23,8-62,10-101,7c-35-3-97-9-138-13c-61-6-80-4-108,11c-18,10-33,22-33,26c0,18,84,30,255,39
		c187,10,235,16,235,31c0,12-96,11-180-2c-74-11-155,2-147,24c2,6,30,22,62,34c33,13,65,29,73,36c10,11,22,12,52,3
		c50-13,159,4,284,46c109,36,422,188,526,255c71,46,78,49,130,45C9350,2300,9381,2292,9388,2285z M10164,2176c73-25,206-100,206-117
		s-87-80-123-90c-47-12-85-5-157,31c-77,38-109,45-117,24c-4-11,2-23,20-36c36-26,34-36-9-44c-78-14-167,37-232,136
		c-23,34-42,66-42,71c0,7,77,33,155,53c11,3,65,3,120,2C10060,2203,10105,2196,10164,2176z M10818,2098c31-29,54-80,85-190
		c19-69,22-88,11-92c-19-7-44,21-44,48c0,13-7,30-16,37c-16,13-16,8-10-61c4-41,9-95,12-120c7-67-4-77-60-56
		c-107,41-149,172-112,346c8,36,19,78,25,94c10,26,15,28,48,23C10777,2123,10804,2110,10818,2098z M8655,1769c-59-22-89-29-114-24
		c-19,4-30,10-25,15c12,11,140,38,184,39C8730,1799,8723,1794,8655,1769z M10840,1251c80-16,156-31,170-33c36-4,31-31-9-42
		c-26-7-38-19-50-48c-23-54-57-66-125-45c-63,20-86,21-122,5c-24-11-29-10-50,15c-22,26-46,91-60,161l-6,33l54-8
		C10671,1285,10760,1268,10840,1251z M11145,1258c37-19,75-61,75-84c0-12-10-33-21-48c-33-42-10-52,36-16c47,38,73,26,34-16
		c-32-35-99-84-114-84c-17,0-31,38-50,135c-8,44-24,92-35,107s-20,29-20,32C11050,1290,11119,1271,11145,1258z M11605,1120
		c21-17,45-40,52-50c13-18,12-21-12-30c-14-6-32-10-39-10c-8,0-19-7-26-15c-12-14-17-12-46,16C11445,1117,11509,1197,11605,1120z
		 M11379,974c28-36,28-90,0-97c-35-9-65,9-94,58c-31,54-25,65,37,65C11350,1000,11364,994,11379,974z M11533,865c-32-36-69-73-83-82
		c-22-15-21-12,7,24c33,41,118,123,128,123C11589,930,11565,901,11533,865z"/>
	<path d="M2871,10565c-12-69-9-85,15-85c11,0,14,16,14,75c0,41-4,75-8,75C2887,10630,2878,10601,2871,10565z"/>
	<path d="M2380,11072c0-5,12-19,26-33c14-13,42-51,62-84c55-93,80-122,118-140c20-9,37-15,39-13c7,6-80,175-110,213
		c-28,37-77,65-115,65C2389,11080,2380,11076,2380,11072z"/>
	<path d="M2090,10472c-8-2-23-11-32-20c-22-19-7-42,28-42c15,0,24-6,24-16c0-16-11-16-67,1c-44,14-23-15,39-56c103-66,195-83,281-50
		c32,12,36,45,8,61c-11,5-47,14-81,18c-54,8-67,14-108,54C2132,10470,2114,10480,2090,10472z"/>
	<path d="M3630,10748c-1-44-35-123-103-237c-61-102-65-111-43-111c7,0,19-7,26-15c11-13,8-26-15-75c-16-33-26-63-22-66
		c3-3,21,16,39,42c18,27,45,61,61,77c15,16,27,36,27,46c0,9,18,77,40,150c43,143,50,205,24,215C3636,10785,3630,10780,3630,10748z"
		/>
	<path d="M3050,8095c-10-11-9-18,3-30c14-14,14-20,1-56c-23-66-21-68,39-56c35,6,108,6,222-2c115-8,191-8,235-1c36,5,69,10,74,10
		s2,7-5,17c-29,34-82,46-244,54c-168,8-209,17-262,55C3076,8114,3067,8115,3050,8095z"/>
	<path d="M4021,7573c-13-3-79-27-145-55c-143-59-210-84-251-93c-28-7-29-8-9-17c16-7,44-4,103,11c44,12,93,21,108,21
		c43,0,14-18-47-30c-75-14-87-30-24-30c68,0,138,22,273,86c97,46,112,56,101,69c-7,8-10,22-6,30c4,12-3,15-37,14
		C4064,7578,4034,7575,4021,7573z"/>
	<path d="M5015,6755c-27-7-109-38-181-68s-145-58-162-62c-45-10-48-23-7-31c39-7,81,2,228,47c126,39,189,36,72-3
		c-211-72-421-99-621-81c-66,6-121,10-122,8c-2-2,27-13,65-25c191-59,392-43,668,55c177,63,261,115,186,115c-37,0-38,6-9,37l21,23
		l-44-1C5085,6769,5043,6763,5015,6755z"/>
	<path d="M7860,6405c-12-11-14-30-10-78c7-88-6-324-24-440c-21-128-21-149,1-145c24,4,40,40,60,134c24,111,26,537,3,542
		C7882,6419,7868,6414,7860,6405z"/>
	<path d="M7772,5950c-24-38-28-89-12-121c13-23,35-26,26-3c-4,9-1,43,5,75C7806,5977,7799,5994,7772,5950z"/>
	<path d="M8241,5665c-40-87-100-277-116-369c-17-98-20-226-6-226c17,0,69,90,76,130c4,22,1,73-6,114c-15,96-10,126,41,236
		c31,67,40,99,38,127l-4,38L8241,5665z"/>
	<path d="M5929,6055c-3-2-74-11-159-20s-171-20-190-24l-35-8l50-9c88-15,205-8,266,15c56,21,103,50,83,51
		C5938,6060,5931,6058,5929,6055z"/>
	<path d="M8998,5454c-10-27-33-114-53-194s-47-170-61-200c-38-85,5-24,56,79c53,107,82,219,78,302l-3,63L8998,5454z"/>
	<path d="M5655,5599c-205-127-219-133-408-163c-57-9-103-24-133-41c-25-15-44-29-41-31c5-6,341,82,407,107c99,37,189,90,252,150
		c35,32,61,58,58,58C5787,5680,5727,5643,5655,5599z"/>
	<path d="M7172,4961c-20-12,22-96,75-148c36-36,49-43,83-43c22,0,40,5,40,10c0,21-43,96-74,128C7247,4961,7202,4980,7172,4961z"/>
	<path d="M9246,4530c-9-29-23-112-32-183c-18-152-44-243-87-309c-17-26-33-46-35-43c-2,2,8,35,22,75c26,71,34,140,17,140
		c-5,0-27-42-50-93c-73-168-76-242-8-235c29,3,35,10,79,98c92,186,145,384,136,512C9281,4585,9266,4598,9246,4530z"/>
	<path d="M8635,3464c-11-8-46-29-78-46s-77-48-100-68c-33-29-98-57-317-140c-243-91-282-103-332-101c-58,2-102-13-127-43
		c-11-14-11-16,6-16c33,0,418,99,510,131c156,54,340,155,416,228C8671,3464,8687,3504,8635,3464z"/>
	<path d="M9302,3370c-18-8-21-14-16-37c34-142,132-320,209-378c17-14,35-25,38-25c13,0,7,22-12,47c-11,13-17,31-14,39
		c5,12,10,11,32-9c14-13,38-32,52-41c29-18,89-38,89-29c0,3-26,39-57,80c-74,97-151,167-208,188l-45,18v56c0,35-6,65-16,79
		C9337,3382,9335,3383,9302,3370z"/>
	<path d="M8576,3304c-59-51-196-143-358-239c-78-46-138-85-131-85c23,0,171,68,249,114c95,56,208,148,253,205c18,22,31,41,29,41
		C8617,3339,8597,3324,8576,3304z"/>
	<path d="M8723,2366c-50-16-113-54-113-68c0-7,4-7,13,0c6,6,41,15,76,22c58,10,141,43,141,55C8840,2385,8764,2378,8723,2366z"/>
	<path d="M8630,2238c-134-30-263-79-227-86c24-5,208,35,274,59c41,16,115,61,93,57C8767,2268,8704,2254,8630,2238z"/>
	<path d="M9486,4268c-19-30-58-129-53-135c8-7,65,92,72,125C9513,4296,9506,4299,9486,4268z"/>
	<path d="M7812,3877c-17-20,17-78,59-102c20-11,48-28,63-39c39-27,47-9,9,22c-17,15-43,51-57,80C7859,3891,7834,3904,7812,3877z"/>
	<path d="M9015,2075c-53-16-98-40-116-61c-13-16-12-17,6-9c11,4,42,14,70,21c45,13,96,47,84,58C9057,2086,9037,2082,9015,2075z"/>
	<path d="M538,9673c-10-2-18-7-18-9c0-3,22-37,49-77s58-91,70-114c14-28,28-43,40-43c37,0,179-82,321-186c116-85,184-125,336-200
		c238-117,292-152,409-264c100-94,153-123,196-103c21,9,19,12-35,59c-58,49-92,97-81,113c9,16,43,0,89-40l44-39l108,34
		c369,116,645,154,803,110c58-16,151-13,151,5c0,27-146,61-260,61c-96,0-509-24-480-28c47-7,41-19-17-40c-100-37-174-52-259-52
		c-70,0-89,4-142,30c-33,17-75,47-92,66c-33,38-43,37-65-7c-9-17-24-29-35-29c-16,0-19,8-22,62l-3,63l-185,77
		c-226,94-497,228-605,298c-157,102-212,149-234,200c-11,26-28,50-37,54C567,9680,565,9680,538,9673z"/>
	<path d="M7267,3607c-42-26-40-37,8-37c39,0,94,38,73,51C7327,3635,7307,3631,7267,3607z"/>
	<path d="M7420,3512c-74-32-164-74-200-94c-67-39-127-83-100-75c150,45,234,74,275,94c59,30,151,98,159,119c3,7,4,14,3,13
		C7556,3569,7494,3543,7420,3512z"/>
</g>
</svg>
