<?xml version="1.0" encoding="utf-8"?>
<!-- Generator: Adobe Illustrator 17.0.0, SVG Export Plug-In . SVG Version: 6.00 Build 0)  -->
<!DOCTYPE svg PUBLIC "-//W3C//DTD SVG 1.1//EN" "http://www.w3.org/Graphics/SVG/1.1/DTD/svg11.dtd" [
	<!ENTITY ns_flows "http://ns.adobe.com/Flows/1.0/">
	<!ENTITY ns_extend "http://ns.adobe.com/Extensibility/1.0/">
	<!ENTITY ns_ai "http://ns.adobe.com/AdobeIllustrator/10.0/">
	<!ENTITY ns_graphs "http://ns.adobe.com/Graphs/1.0/">
]>
<svg version="1.1"
	 id="svg2" xmlns:x="&ns_extend;" xmlns:i="&ns_ai;" xmlns:graph="&ns_graphs;" sodipodi:docname="wing variable sweep.svg" inkscape:version="0.47 r22583" sodipodi:version="0.32" inkscape:output_extension="org.inkscape.output.svg.inkscape" xmlns:inkscape="http://www.inkscape.org/namespaces/inkscape" xmlns:sodipodi="http://sodipodi.sourceforge.net/DTD/sodipodi-0.dtd" xmlns:rdf="http://www.w3.org/1999/02/22-rdf-syntax-ns#" xmlns:cc="http://creativecommons.org/ns#" xmlns:dc="http://purl.org/dc/elements/1.1/" xmlns:svg="http://www.w3.org/2000/svg"
	 xmlns="http://www.w3.org/2000/svg" xmlns:xlink="http://www.w3.org/1999/xlink" xmlns:a="http://ns.adobe.com/AdobeSVGViewerExtensions/3.0/"
	 x="0px" y="0px" width="256px" height="256px" viewBox="0 0 256 256" style="enable-background:new 0 0 256 256;"
	 xml:space="preserve">
<sodipodi:namedview  id="base" inkscape:window-height="945" inkscape:document-units="pt" inkscape:window-y="51" inkscape:window-x="0" inkscape:guide-bbox="true" inkscape:pageshadow="2" inkscape:current-layer="svg2" inkscape:window-maximized="0" inkscape:pageopacity="0.0" inkscape:window-width="1272" gridtolerance="10.0" showguides="true" showgrid="false" pagecolor="#ffffff" objecttolerance="10.0" inkscape:cx="86.95471" bordercolor="#666666" inkscape:zoom="2" borderopacity="1.0" guidetolerance="10.0" inkscape:cy="79.107138">
	<sodipodi:guide  id="guide2385" orientation="1,0" position="376.16936,610.63108"></sodipodi:guide>
	<sodipodi:guide  id="guide3176" orientation="1,0" position="130.5,244.5"></sodipodi:guide>
</sodipodi:namedview>
<defs>
	
	
		<inkscape:perspective  id="perspective19" inkscape:persp3d-origin="300 : 200 : 1" sodipodi:type="inkscape:persp3d" inkscape:vp_z="600 : 300 : 1" inkscape:vp_y="0 : 1000 : 0" inkscape:vp_x="0 : 300 : 1">
		</inkscape:perspective>
</defs>
<g id="g3221" transform="translate(0.2767813,32.727271)">
	<path style="fill:none;stroke:#1F1A17;stroke-width:6.8182;" d="M105.3,70.1c4.6,24,7.3,38.6,8.8,47.4l-51.9,45.9l-15.4-12.7
		L105.3,70.1z"/>
	<polygon style="fill:none;stroke:#1F1A17;stroke-width:6.8182;" points="116.5,109.3 116.5,115.3 116.4,115.3 	"/>
	<polygon style="fill:none;stroke:#1F1A17;stroke-width:6.8182;" points="116.9,79.3 116.5,109.3 116.7,79.2 	"/>
	<polygon style="fill:none;stroke:#1F1A17;stroke-width:6.8182;" points="140.5,112.3 140.1,79.3 140.4,79.1 	"/>
	<polygon style="fill:none;stroke:#1F1A17;stroke-width:6.8182;" points="140.5,112.4 140.6,115.3 140.5,115.3 140.5,115.3 	"/>
	<path style="fill:none;stroke:#1F1A17;stroke-width:6.8182;" d="M210.2,150.6l-15.4,12.7L143,117.5c1.6-8.8,4.2-23.2,8.8-47.4
		L210.2,150.6z"/>
</g>
<path id="path3211" sodipodi:nodetypes="ccccccc" style="fill:none;stroke:#1F1A17;stroke-width:6.8182;stroke-dasharray:13.6364,13.6364;" d="
	M17.4,106.9l111.3-6.4l111.5,6.4v19.9l-111.5,18.4L17.4,126.8C17.4,126.8,17.4,106.9,17.4,106.9z"/>
<g id="g3738" transform="translate(0,32.727271)">
	<path style="fill:none;stroke:#000000;stroke-width:4.0909;" d="M117.1,50.7L117,79.2l-0.1,30.1l-0.1,6l-2.4,2.1
		c-1.6-8.8-4.2-23.2-8.8-47.4c-0.2-0.9-0.3-1.8-0.5-2.8l12-21.3C117,47.6,117,49.1,117.1,50.7z"/>
	<path style="fill:none;stroke:#000000;stroke-width:4.0909;" d="M114.3,117.5l2.4-2.1l-0.2,15.4
		C116.5,130.5,116.4,128.8,114.3,117.5z"/>
	<path style="fill:none;stroke:#000000;stroke-width:4.0909;" d="M117.7,45.1l-0.5,34.3l-0.4,29.9l0.1-30.1l0.1-28.5
		c0-1.6,0-3.2,0-4.6L117.7,45.1z"/>
	<path style="fill:none;stroke:#000000;stroke-width:4.0909;" d="M152.5,67.3c-0.2,0.9-0.3,1.9-0.5,2.8c-4.6,24-7.3,38.6-8.8,47.4
		l-2.4-2.1v-2.9v-0.1l-0.1-33.3l-0.1-27.1c0-2,0-3.8,0-5.7L152.5,67.3z"/>
	<path style="fill:none;stroke:#000000;stroke-width:4.0909;" d="M140.7,79.1l0.1,33.3l-0.5-33l-0.5-34.3l0.7,1.3l0,0
		c0,1.9,0,3.7,0,5.7L140.7,79.1z"/>
	<path style="fill:none;stroke:#000000;stroke-width:4.0909;" d="M143.3,117.5c-2,11.3-2.2,13-2.2,13.3l-0.3-15.5L143.3,117.5z"/>
</g>
<path style="fill:none;stroke:#000000;stroke-width:6.8182;" d="M117.4,180.6c0.9,15.3,2.6,31.7,3.9,42.4h-44v-14.2l0.6-0.2
	L117.4,180.6z"/>
<path style="fill:none;stroke:#000000;stroke-width:6.8182;" d="M180.3,208.8V223h-44.2c1.4-10.5,3.1-26.9,4-42.1l39.6,27.8
	L180.3,208.8z"/>
<path style="fill:none;stroke:#1F1A17;stroke-width:4.0909;" d="M140.8,160.6c0,6-0.3,13-0.7,20.2c-1,15.3-2.8,31.6-4,42.1h-14.8
	c-1.4-10.6-3.1-27.1-3.9-42.4c-0.4-7.1-0.7-13.9-0.6-19.8l0.1-12.8v-6l0.4-29.9l0.5-34.3l-0.6,1.1c0.4-35.8,8.3-51.2,11.7-51.2
	c3.5,0,11.2,15.4,11.8,51.4l-0.7-1.3l0.5,34.3l0.5,33v0.1v2.9l0,0L140.8,160.6z"/>
<path style="fill:none;stroke:#1F1A17;stroke-width:4.0909;" d="M136.1,223c-0.4,3-0.7,5.5-1,7.4h-12.8c-0.3-2-0.7-4.4-1-7.4H136.1z
	"/>
<path style="fill:none;stroke:#1F1A17;stroke-width:4.0909;" d="M117.7,77.8l-0.5,34.4l-0.4,29.9l0.1-30.1l0.1-28.5
	c0-1.6,0-3.2,0-4.6L117.7,77.8z"/>
<path style="fill:none;stroke:#1F1A17;stroke-width:4.0909;" d="M140.8,145l-0.5-33l-0.4-34.3l0.7,1.3l0,0c0,1.9,0,3.7,0,5.7
	l0.1,27.1L140.8,145z"/>
<path id="path2404" sodipodi:nodetypes="cscscccc" style="fill:none;stroke:#1F1A17;stroke-width:4.0909;" d="M126.1,192.1
	c-0.1-10.1,1.8-14.4,2.7-14.4c0.8,0,2.7,4.4,2.7,14.8v19.6c0,5.8-0.9,15-1.3,18h-2.9c-0.4-3.2-1.3-12.2-1.3-18L126.1,192.1z"/>
<g id="g5582" transform="translate(2.5479901,0)">
	<path style="fill:none;stroke:#1F1A17;stroke-width:4.0909;" d="M0,19.7"/>
	<path id="path3780" d="M25,147l6.2-11.3l2.6,12.6C31.5,146.1,27.8,145.5,25,147z"/>
	<path id="path3742" sodipodi:nodetypes="cs" d="M30.2,160.2"/>
	<path d="M0,19.7"/>
	<path id="path3780_1_" d="M218.7,148.4l2.6-12.6l6.2,11.3C224.7,145.5,221.1,146.1,218.7,148.4z"/>
	<path id="path5574" sodipodi:nodetypes="cs" d="M100.4,160.2"/>
</g>
</svg>
