<?xml version="1.0" encoding="utf-8"?>
<!-- Generator: Adobe Illustrator 17.0.0, SVG Export Plug-In . SVG Version: 6.00 Build 0)  -->
<!DOCTYPE svg PUBLIC "-//W3C//DTD SVG 1.1//EN" "http://www.w3.org/Graphics/SVG/1.1/DTD/svg11.dtd" [
	<!ENTITY ns_flows "http://ns.adobe.com/Flows/1.0/">
	<!ENTITY ns_extend "http://ns.adobe.com/Extensibility/1.0/">
	<!ENTITY ns_ai "http://ns.adobe.com/AdobeIllustrator/10.0/">
	<!ENTITY ns_graphs "http://ns.adobe.com/Graphs/1.0/">
]>
<svg version="1.1"
	 id="svg3036" xmlns:x="&ns_extend;" xmlns:i="&ns_ai;" xmlns:graph="&ns_graphs;" xmlns:rdf="http://www.w3.org/1999/02/22-rdf-syntax-ns#" xmlns:cc="http://creativecommons.org/ns#" xmlns:dc="http://purl.org/dc/elements/1.1/" xmlns:svg="http://www.w3.org/2000/svg"
	 xmlns="http://www.w3.org/2000/svg" xmlns:xlink="http://www.w3.org/1999/xlink" xmlns:a="http://ns.adobe.com/AdobeSVGViewerExtensions/3.0/"
	 x="0px" y="0px" width="256px" height="256px" viewBox="0 0 256 256" style="enable-background:new 0 0 256 256;"
	 xml:space="preserve">
<g id="layer1" transform="translate(-304.11 -272.73)">
	<path id="path5603" style="fill:none;stroke:#000000;stroke-width:2;stroke-miterlimit:10;" d="M504.9,308.4c-0.8,0-1.8,0.1-3,0.1
		c-7.8,0.5-17.3,2.5-21.2,4.4c-3.7,1.6-6.4,2.7-9.9,4.6c-3.5,1.9-6.3,3.7-8.6,5.5c-4,2.5-3.5,2.7-7.2,5.6c-3.2,2.7-6.5,5.1-10,7.2
		c-3.6,2.2-5.7,3.1-12.7,8.5c-3.7,2.8-10.1,4.4-15.6,6.4c-9.1,1.5-13.5,0.7-22.1-0.3c-3.5-0.4-14.7-2.7-21.6-4.6
		c-7.7-2.1-17.7-0.4-28.7,4.9c-4.8,2.3-10.2,9.2-12.3,15.7c-1.9,6.2-1.9,11.2,0.2,19.7c1.7,6.7,6.6,16.3,10.6,20.6
		c1,1.1,1.9,2.2,1.9,2.5c0,0.2-0.8,0.4-1.8,0.4c-1.7,0-2.6-0.3-6.4-1.9c-0.9-0.4-3-0.8-4.5-1c-2.6-0.3-3-0.2-4.2,1
		c-1.8,1.8-1.7,2.9,0.5,6.8c1,1.8,1.8,3.5,1.8,3.9c0,1.3,2.8,4.2,5,5.3c2.3,1.1,3.7,2.6,7.3,8c4.3,6.4,4.4,6.5,3.5,8.9
		c-0.9,2.7-0.9,5.8,0.1,6.6c0.4,0.4,0.8,1.1,0.8,1.6c0,0.7-0.3,0.9-1.4,0.7c-1.7-0.3-5.3,2.5-6.3,4.9c-0.9,2.2-0.9,8.1,0,10.2
		c1.1,2.7,3.5,4.9,6.1,5.6c2.6,0.7,2.1,1,5.5-4.2c1.6-2.4,1.9-3.5,2.3-6.9c0.4-3.4,0.7-4.6,2.7-7.8c1.8-3,2.2-4.3,2.2-6.2
		c-0.1-3-1.5-6.3-3.7-8.4c-1.3-1.1-6.5-8.1-7.3-9.7c-0.3-0.6-0.6-2-0.7-3.1c-0.2-1.9-0.1-2.1,1.1-2c0.7,0.1,2.9,0.7,4.9,1.5
		c4.1,1.6,8.7,1.8,12.7,0.6c1.6-0.5,3.4-0.7,4.8-0.5c4.6,0.7,10.6-3.9,11.4-8.8c0.3-2,0.3-2,2.2-1.7c2.6,0.5,2.7,0.6,2.3,2.3
		c-0.2,0.8,0,2.8,0.3,4.5c0.6,2.9,0.6,3.1-1.1,6.2c-0.9,1.8-3.3,5.1-5.3,7.4c-2,2.3-3.5,4.4-3.3,4.9c0.2,0.4,0.1,0.7-0.2,0.7
		c-1.9,0,3.4,8.1,6.5,10c1.7,1,2.8,2.4,8.3,10.3c2,2.9,3.1,5.5,3.7,9c0.4,2.3,2.2,4.1,4.2,4.2c2.2,0.2,5.6,2.5,5.1,3.5
		c-0.2,0.5-0.6,1.6-0.9,2.5l-0.6,1.7l1.7,3.2c2.1,3,4.5,3.8,11.3,3.5c4.4-0.2,5.7-0.4,6.6-1.2c1.5-1.4,1.4-2.5-0.5-4.2
		c-0.9-0.8-2.2-2.8-3.1-4.2c-1.1-2-2.1-3-3.8-3.8c-1.3-0.6-2.6-1.1-3-1.1s-1.3-0.8-1.9-1.7c-3.7-5.2-5.8-7.8-7.8-9.2
		c-1.3-0.9-3.4-3.3-5-5.9c-5.4-8.4-6.1-10.3-5-14.4c0.8-2.9,0.8-2.9,0.9-4.2c0.1-0.5,1.4-2,2.9-3.1c1.6-1.2,2.9-2.6,2.9-3
		c0-0.5,0.3-0.7,0.6-0.4c0.4,0.2,0.5,0.2,0.3-0.1c-0.2-0.3,0.1-0.7,0.7-1c0.6-0.3,2.2-2.7,3.5-5.3l2.5-4.7l8.6-0.2
		c4.7,0,10.3-0.3,12.5-0.6c4.8-0.7,11.2-2.4,12.3-3.3c0.4-0.4,0.8-0.5,0.8-0.3c0,0.2,0.8-0.1,1.7-0.7c2.8-1.7,3.4-1.4,5.4,2.4
		c0.5,0.9,1.6,2.3,2.5,3.2c11.6,10.8,13.8,13.3,17.4,20.7c1.3,2.6,3.1,5.2,5,7.2c1.9,1.9,3.9,4.8,5.3,7.6c1.3,2.5,3.1,6.2,4.2,8.1
		c1.2,2.3,2,4.8,2.1,6.6c0.4,3.8,3.1,7.3,5.5,7.3c1.9,0,4.4,1.2,4.9,2.4c0.2,0.6-0.3,1.6-1.4,3c-1.5,1.8-1.6,2.2-1.1,3.5
		c0.5,1.4,0.5,1.5-0.7,1.1c-3.5-0.9-3.8,0.2-0.3,1.5c1.3,0.5,2.9,1.4,3.5,2c0.8,0.7,2.5,1.4,4.5,1.8c3.4,0.6,11.3,0.5,12-0.2
		c0.2-0.2-2.1-0.4-5.2-0.4c-6.2,0-8.8-0.6-10.4-2.4c-1.1-1.3-2.4-3.5-2.1-3.8c0.1-0.1,1.5-0.3,3.1-0.5c3-0.3,8.6-2.1,9.1-3
		c0.2-0.3,0.7-0.2,1.3,0.2c0.5,0.4,0.9,0.8,0.7,1c-0.2,0.2,1.1,1.8,2.7,3.5c2.5,2.7,2.8,3.3,2.2,4c-0.6,0.7-0.5,0.8,0.4,0.6
		c1.4-0.3,1.6-2.7,0.4-3.9c-0.9-0.9-0.8-0.9,1.1-0.5c4.8,1,10.4,0.2,12.6-1.8c1.5-1.5,0.2-0.4,1.7-1.7c0-0.4-0.4-2.9-1.9-2.9
		c-1.4,0-0.5-0.7-3-3.5c-2.2-2.4-5.1-4.9-6.4-5.6c-1.3-0.7-2.3-1.4-2.3-1.6c0-0.2-0.7-1.1-1.5-2.1c-0.8-0.9-1.7-2.6-2-3.7
		c-0.4-1.3-1.6-3-3.9-5.2c-2.1-2.1-4.2-4.9-5.8-7.8c-1.4-2.5-2.9-4.9-3.3-5.3c-0.6-0.6-1.4-7.7-1.2-11l-0.9-0.5l-0.7-2.2
		c-0.4-1.4-1.4-2.8-2.6-3.7c-1-0.8-2.3-2.5-2.8-3.5c-2.7-6.5-4.1-10.7-4.4-13.5c-0.2-1.8-1.1-5.1-2.3-7.8c-2.6-6-2.7-7.3-0.9-10.2
		c0.8-1.3,1.1-1.7,1.4-3c0.7-1.8,1.9-3.2,3.1-5.7c0.8-0.8-0.3-7.5,0.4-9.7c0-1,0.1-2.8-1.1-4.9c-0.4-1-0.7-2.6-0.8-3.2
		c-1.3-1.7-0.5-1.8-1.2-4.1c3-3.9,4.3-5.5,7.4-10.1c1.9-2.8,4-6.1,4.6-6.8c2.5-2.7,4.8-3.4,7.4-3.7c0.8-0.1,1.4-0.9,1.6-1.1
		c0.2-0.1,1.3-0.9,1.9-1.7c1.8-2.2,4-4.3,5-4.3c0.7,0-0.7,0.7-1.9,1.6c-1.2,0.8-3.1,2.9-3.2,3.2c-0.5,1.8,1.9-0.6,3-1.5
		c2.8-2.2,4.3-2.8,8-3.9c1.2-0.3,2.9-0.5,4.6-0.4c1.6,0.1,2.6,0.1,3.8,0.4c0.4,0.2,0.6,0.2,0.6,0.4c0,0.4,0.3-0.1-3.8-0.2
		c-5.1-0.2-6.8,0.3-9.2,1.5c-2.9,1.5-5.7,4.6-7,7c-0.3,0.6-0.5,1.2-0.5,2c0,0.9-0.1,1.2-0.5,1.6l-0.5,0.5l0.6-0.2
		c0.3-0.1,0.8-0.2,1-0.3c0.2-0.1,0.9-0.2,1.5-0.3c1-0.1,1.1-0.1,1,0.2c-0.1,0.4-0.6,0.6-3.3,1.2l-1.5,0.4v1.8c0,1.6,0.1,2,0.6,3.3
		c0.6,1.5,0.8,2.9,0.4,2.9c-0.1,0-0.4-0.3-0.6-0.5l-0.4-0.5l0.2,0.7c0.1,0.4,0.2,1.1,0.2,1.7c0,1-0.1,1.3-1.4,3.4
		c-0.8,1.3-1.8,3.4-2.5,4.7c-0.8,1.7-2.3,4.2-3.5,6c-0.5,0.4,0.9-2.9-0.4-1.7c-1.6,1.5-2,2-2.8,4.1c0,0.1-2.2,2.1-2.1,2.2
		c-2,0.7-1.8,1.5-2,3.4c-0.3,2.2-1.6,2.7,0.2,6.5c0.2,0.4,0.3,0.7,0.3,0.9c0,0.5,0.4,1.2,0.9,1.7c1.3,1.1,4.4,2.3,5.2,2.1
		c0.4-0.2,1.5,0.3,2.6,0.9c3.7,2.2,7.5,1.4,10.1-2.2c0.9-1.3,2.6-2.8,3.7-3.5c1.1-0.7,2-1.5,2-1.8c0-0.7,6.2-7.1,10.1-10.3
		c1.7-1.5,4.2-3.6,5.4-4.8s2.6-2.3,3.1-2.6c0.5-0.3,1.4-0.9,2.1-1.6c1.1-1,1.2-1,1.9-0.1c1,1.4,1.5,0.7,0.8-1
		c-0.4-0.9,0.8-2.7,1.5-3.5c0,0.5-0.1,1-0.1,1.5c-0.1,3.2,0.6,4.9,1.9,4.9c1.1,0,2.5,1.9,2.3,3.2c-0.2,1-0.5,1.2-1.6,1.1
		c-0.9-0.1-1.4,0.2-1.4,0.7c0,1.2,2,0.9,3.4-0.5c0.7-0.7,1.3-1.5,1.3-1.8c0-0.3-0.8-1.5-1.9-2.7c-2.1-2.3-2.1-3.1-0.4-7
		c0.5-1.1,0.9-2.2,0.8-2.5c-0.1-0.2,0.7-1,1.7-1.7c1-0.8,1.7-1.6,1.5-1.9c-0.2-0.3-0.6-0.2-1,0.4c-0.4,0.5-1.8,1.7-3.1,2.7
		c-2.3,1.7-2.4,1.7-1.8,0.4c0.4-0.7,0.8-1.4,1-1.4c0.2,0,1.5-0.9,2.8-2.1c2.2-1.9,2.4-2.3,2.1-3.8c-0.2-1.2-0.1-1.9,0.5-2.6
		c1.3-1.3,2.1-1,2.8,0.9c1.1,3.2-0.7,8.8-3.8,11.1c-1.6,1.3-1.8,1.5-1.1,2.2c0.7,0.7,1,0.7,2.5-0.2c3.1-1.8,5.1-5.9,5.1-10.6
		c0-1.8-0.7-2.8,0.6-3.3c0.8-0.4,1.3-0.9,2.1-2.1c1.1-1.6,1.5-1.9,1.5-3.2c-1.9,0.4-3.9,1-6.5,2.3c3.5-2.4,4.4-3.6,5.8-5.2
		c-1.1-0.7-2.8-0.9-5.5-0.2c-2.2,0.6-1.4,0.3-3.3,1.1c-2.3-2.6-3.5-2.3-5.6-5.6c-1.8-2.7-4.2-6.9-6.8-9.4c-0.7-0.7-1.6-1.6-2.8-2.9
		c-1.1-1.1-1.5-1.4-4.3-4c-4.1-3.8-11.7-7.8-17.7-9.2C509.1,308.7,507.4,308.4,504.9,308.4L504.9,308.4z M505.9,309.9
		c1.8,0,2.1,0.1,5.1,0.8c2.9,0.7,7.2,2.3,9.6,3.5c3.9,1.9,10.2,6.4,12.5,9c2.1,1.7,8.3,9.6,14.7,19.2c-4.5-4.8-6-7.6-8.4-10.3
		c-3.9-4.2-7.5-8.7-8.8-9.9c-0.9-0.8-3-2.7-5.7-4.5c-4.1-2.8-8.4-4.8-14.2-6.3c-2.9-0.8-2.2-0.6-5.9-0.8c-7.3,0.7-11.2,0.8-18.2,3
		c-2,0.6-9.4,3.5-16.7,7.9c-5.8,3.4-9.5,5.1-12.3,7.3c4-3.4,13.3-9.5,21.9-13.2s16.3-5,21.4-5.6
		C502.6,309.7,504.9,309.9,505.9,309.9L505.9,309.9z M504.2,314.1c0.1,0,0.1,0,0.2,0c0.1,0,0.2,0,0.3,0.1c1.6,0.3,5,1.8,8.1,3.5
		c0.7,0.4,2.3,1.1,3.8,1.6c6,2,10.9,5,14.8,8.8c1.6,1.6,1.8,1.8,1.8,2.5c0,0.4-0.1,0.7-0.1,0.7s-0.7-0.7-1.5-1.5
		c-2.8-2.9-6.6-5.6-10.8-7.6c-1.4-0.7-3-1.4-3.5-1.5c-2-0.4-3-0.8-4.8-2c-2.4-1.5-5.7-3-7-3.3c-1.2-0.3-1.6-0.6-1.5-1
		C504,314.2,504,314.1,504.2,314.1z M533.6,334.5c0.8-0.1,1.7,0.1,2.2,0.4c0.5,0.4,0.5,0.4,0.2,0.6s-3.2,0.4-4.1,0.2
		c-0.5-0.1-0.3-0.5,0.5-0.9C532.6,334.7,533.1,334.5,533.6,334.5z M547.2,352c-0.7-1.7,0.1,0.1,0.1,0.2c-0.1,0.4-1.4,1.6-2.8,2.5
		c-0.8,0.6-1.5,1-1.9,1.6c0.4-0.5,0.9-0.9,1.5-1.4c1.1-0.8,1.3-1.2,0.2-0.6c-0.3,0.2-0.5,0.2-0.8,0.3c0.7-0.2,0.4-1.4,1.3-2.2
		C545.4,351.7,545.4,349.7,547.2,352z M539.7,353.4c0.1,0,0.1,0,0.2,0c-0.2,0-0.3,0.1-0.3,0.3C539.5,353.5,539.5,353.4,539.7,353.4z
		 M540.3,353.4c0.2,0,0.3,0,0.5,0.1l1.3,0.2c-0.2,0.1-0.7,0.1-1.3-0.1C540.6,353.5,540.4,353.4,540.3,353.4z M529.5,353.5
		c0.1,0,0.1,0,0.2,0.1c0.6,0.2,2,1.5,2.5,2.1c0.3,0.5,0.4,1,0.4,2.2v1.6l0.9,0.9c1.1,1.1,1.1,1.7-0.1,1.7c-1.5-0.1-2.3-1.4-2-3.7
		c0.2-1.4-0.2-1.4-0.6,0.2c-0.5,1.6-0.9,2-2.6,2.1c-0.7,0.1-0.7,0.1-0.7,0.9c0,0.5-0.1,1-0.1,1c-0.1,0.1-0.5-0.2-0.8-0.5
		c-1.2-1.2-1.5-3.2-0.6-5C526.7,355.2,528.5,353.4,529.5,353.5z M542,353.5c0,0,0.1,0,0.1,0.1c0,0,0,0.1-0.1,0.1L542,353.5z
		 M540.2,354.3c0.1,0.1,0.2,0.1,0.4,0.2c0.4,0.1,0.8,0.2,1.3,0.2c0.5,0.1,0.8,0.1,1.1,0c-0.8,0.1-1.7,0-2.4-0.3
		C540.4,354.4,540.3,354.4,540.2,354.3z M541.8,357.3c-0.1,0.1-0.1,0.2-0.2,0.3c-0.4,0.8-0.5,1.8-0.6,3.1c-0.5,0.3-1.1,1.2-1.6,1.2
		c-0.7,0.2-0.7,0.9-1.4,0.9c-0.6-0.9,2.8-2.1,2.9-3.1c0.1-0.8,0.3-1.5,0.6-2.1C541.7,357.5,541.7,357.4,541.8,357.3z M507.1,357.6
		c0.2-0.1,0.3,0.1,0.5,0.3c0.5,0.6,0.5,3.5,0,4c-0.2,0.2-0.4,0.3-0.5,0.3c-0.2,0-0.4-1.8-0.4-3.2C506.8,358,506.9,357.6,507.1,357.6
		z M518.4,361c0.2-0.1,0.2,0.2-0.3,0.8c-0.6,0.9-0.4,0.9,0.9-0.1c1.1-0.9,1.4-0.9,1.4-0.4c0,0.8-2.8,2.9-5.3,4.1
		c-1.5,0.7-2,0.7-2.2,0.1c-0.2-0.6,0-0.9,0.5-0.9c0.5,0,1.4-0.6,2.9-2C517.4,361.6,518.1,361.1,518.4,361z M538.4,362.1
		c-0.3,0.3,0,0.8-0.3,1.3c-0.7,1-2,1.8-4.4,2.6c-1.3,0.2-1.9,1.3-2.5,2c-0.4,0.4-1.3,2-3.6,3.9c-1.1,0.9-2.5,2.7-5.3,4.1
		c1.6-2.3,4.8-6.2,7-8.2c1.6-1.5,5.1-3.4,3.9-2.1C536.6,364.2,537.1,363.4,538.4,362.1C538.8,361.7,538.1,362.3,538.4,362.1z
		 M506.8,372.7c0.1,0,0.2,0,0.2,0c-0.1,0-0.2,0-0.3,0C506.8,372.7,506.8,372.7,506.8,372.7z M502.7,374.2c3.5-3.2,6.5-0.3,6,0.4
		c-0.2,0.3,0.2,0.6-0.3,0.8C509.5,374.8,508.6,372.1,502.7,374.2z M500.4,372.9c1.6,0,1.7,0.5,3.3,0.9c-1.3,0.5-5.3-0.3-5.2-1.2
		C498.6,371.8,500,373.1,500.4,372.9z M506.8,375.6c-0.5,0.2-1.4,0.1-2.4,0.5c-1.9,0.7-2.2,0.9-2.5,2s-0.8,2-2.3,3.8
		c-1.5,1.6-1.8,1.8-4,2.8c-1.9,0.8-2.3,1.3-2.3,2.4c0,0.9,0.3,1.4,1.1,2.1c0.9,0.7,2.4,1,4.2,1c0.8,0,1.8,0.1,2.3,0.2
		c-0.4-0.1-0.7-1-1.4-1c-3.8,0.2-6.8-0.6-6.3-2.9c0.2-0.8,0.9-1.4,2.3-1.8c1.1-0.3,2.4-1,2.9-1.5c2.6-2.8,3.5-4.1,3.5-5.1
		c0-1.1-0.1,0,3.8-1.2C505.8,376.8,506.7,375.7,506.8,375.6L506.8,375.6z M513.3,377.2c0.4,0,0,0.6-0.7,1.3c-1.1,0.9-2.7,1.8-5.6,3
		c-1.4,0.5-2.9,1.3-3.5,1.6s-1.2,0.6-1.4,0.6c-0.9-0.1-1-0.6-0.4-1c0.3-0.2,1.3-0.6,2.4-0.9c3-1,5.1-2,7.1-3.3
		C512.3,377.7,513.2,377.2,513.3,377.2z M523.4,375.1c-0.4,1.7-4.3,3.9-5,4.6c-11.2,11.6-15,14.4-16.5,11.6c-0.2-0.3-0.8-0.7-1-0.8
		c0.3,0.2,1,0.6,1.2,0.8c0.3,0.4,0.7,0.8,0.9,0.8c0.6,0.2,1.2,0.1,2.5-0.6c1.8-0.9,4.6-3.9,10.6-10.3
		C517.8,379.4,521.8,375.6,523.4,375.1L523.4,375.1z M506.3,383.2c0.7,0,1.1,0.2,1.5,0.6c0.4,0.5,0.6,0.7,0.6,1.4
		c0,0.4-0.1,0.8-0.2,0.8c-0.1,0-0.4-0.3-0.8-0.6l-0.6-0.6l0.1,1.1c0.1,1.4-0.1,1.5-1.2,1.1c-1.3-0.5-1.6-0.5-2-0.2
		c-0.6,0.5-0.5,0.8,0.5,1.3c0.6,0.3,0.9,0.5,0.8,0.7c-0.1,0.3-0.3,0.4-0.9,0.4c-1.6,0.1-2.6-0.5-3.1-1.7c-0.3-0.7-0.1-1.2,0.9-2.3
		c0.7-0.8,2.7-2,3.6-2C505.8,383.2,506,383.2,506.3,383.2z"/>
	<path id="path5599" style="fill:none;stroke:#000000;stroke-width:2;stroke-miterlimit:10;" d="M509.2,479.6c0-0.3,0.8-0.5,1.7-0.5
		s3.2-0.8,5-1.8c4-2.1,4-1.3,0.1,1.1C513.2,480,509.2,480.7,509.2,479.6z"/>
	<path id="path5597" style="fill:none;stroke:#000000;stroke-width:2;stroke-miterlimit:10;" d="M486.9,435.1
		c-0.8-0.8-0.8-4.8-0.1-4.3c0.3,0.2,0.5,1.1,0.6,2l0.1,1.7l0.4-1.6c0.4-1.5,0.4-1.4,0.5,0.7C488.3,435.8,488,436.2,486.9,435.1z"/>
	<path id="path5595" style="fill:none;stroke:#000000;stroke-width:2;stroke-miterlimit:10;" d="M485.5,424.4
		c-1.1-1.7-2.5-5.4-1.9-5.4c0.2,0,1.1,1.5,2.1,3.4C487.2,425.7,487.2,427.1,485.5,424.4L485.5,424.4z"/>
	<path id="path5593" style="fill:none;stroke:#000000;stroke-width:2;stroke-miterlimit:10;" d="M475.1,420.5
		c-2.7-2.2-6.7-10.3-5.1-10.3c0.3,0,0.5,0.4,0.5,0.8c0,1.8,2.9,6.7,5.1,8.5c2.1,1.8,2.8,2.8,1.9,2.7
		C477.3,422.1,476.2,421.4,475.1,420.5L475.1,420.5z"/>
	<path id="path5589" style="fill:none;stroke:#000000;stroke-width:2;stroke-miterlimit:10;" d="M405.6,479.3c2-1.6,6.3-3.3,8.2-3.3
		c1.2,0,1.9,0.2,1.7,0.5c-0.2,0.3-1.1,0.5-2.1,0.5c-1,0-3.2,0.7-4.9,1.6C405.1,480.2,404,480.5,405.6,479.3z"/>
	<path id="path5587" style="fill:none;stroke:#000000;stroke-width:2;stroke-miterlimit:10;" d="M382.7,443.7
		c-1.6-0.9-2.7-3.2-2.3-4.6c0.2-0.9,0.3-0.9,0.6,0.1c1.1,2.9,1.4,3.4,2.7,3.9c1.4,0.5,1.6,0.8,0.9,1.3
		C384.3,444.4,383.5,444.1,382.7,443.7L382.7,443.7z"/>
	<path id="path5585" style="fill:none;stroke:#000000;stroke-width:2;stroke-miterlimit:10;" d="M387.7,439.9
		c-0.1-2,0.1-3.8,0.3-3.9c0.2-0.2,0.5,1.5,0.5,3.6c0.1,2.1-0.1,3.9-0.3,3.9C388,443.5,387.7,441.9,387.7,439.9z"/>
	<path id="path5583" style="fill:none;stroke:#000000;stroke-width:2;stroke-miterlimit:10;" d="M382.9,434.9c0.7-0.7,1.4-1.2,1.5-1
		c0.4,0.4-1.5,2.3-2.2,2.3C381.9,436.2,382.2,435.7,382.9,434.9L382.9,434.9z"/>
	<path id="path5581" style="fill:none;stroke:#000000;stroke-width:2;stroke-miterlimit:10;" d="M391.2,418.2
		c-0.7-0.7-1-1.3-0.7-1.3c0.7,0,2.5,2,2.2,2.3C392.5,419.4,391.9,419,391.2,418.2L391.2,418.2z"/>
	<path id="path5577" style="fill:none;stroke:#000000;stroke-width:2;stroke-miterlimit:10;" d="M481.7,456.5
		c-0.8-1.8-2.4-4.3-3.5-5.6c-2.7-3.3-2.5-4,0.3-1c2.1,2.3,6,9.8,5.1,9.8C483.5,459.7,482.6,458.3,481.7,456.5L481.7,456.5z"/>
	<path id="path5575" style="fill:none;stroke:#000000;stroke-width:2;stroke-miterlimit:10;" d="M477.6,442.8c0.2-0.7,0.1-2.1-0.3-3
		c-0.6-1.8-0.3-2.7,0.5-1.5c0.7,1,0.6,5.1-0.1,5.5C477.5,444,477.4,443.7,477.6,442.8z"/>
	<path id="path5573" style="fill:none;stroke:#000000;stroke-width:2;stroke-miterlimit:10;" d="M474.2,437.8c0.3-0.6,0.7-1,0.8-0.9
		c0.4,0.4-0.4,1.9-0.9,1.9C473.9,438.8,473.9,438.4,474.2,437.8L474.2,437.8z"/>
	<path id="path5571" style="fill:none;stroke:#000000;stroke-width:2;stroke-miterlimit:10;" d="M472.9,436.5c1-0.8,1.7-0.7,1.1,0.3
		c-0.2,0.3-0.7,0.5-1.2,0.5C472,437.3,472,437.2,472.9,436.5L472.9,436.5z"/>
	<path id="path5569" style="fill:none;stroke:#000000;stroke-width:2;stroke-miterlimit:10;" d="M463.4,429.6
		c-1.8-1.8-3.1-3.3-2.9-3.3c0.6,0,4.9,3.8,5.7,5C467.7,433.6,466.8,433,463.4,429.6L463.4,429.6z"/>
	<path id="path5567" style="fill:none;stroke:#000000;stroke-width:2;stroke-miterlimit:10;" d="M437.1,411.7c-1-0.6-2-1.4-2.2-1.9
		c-0.3-0.8-0.3-0.8,0.6,0c0.5,0.5,1.7,1.1,2.6,1.5c0.9,0.3,1.7,0.8,1.7,1C439.8,413,439.3,412.9,437.1,411.7L437.1,411.7z"/>
	<path id="path5565" style="fill:none;stroke:#000000;stroke-width:2;stroke-miterlimit:10;" d="M438.5,410.1c-0.5-0.6-0.7-1-0.4-1
		c0.7,0,2,1.5,1.6,1.8C439.5,411.1,439,410.7,438.5,410.1L438.5,410.1z"/>
	<path id="path5563" style="fill:none;stroke:#000000;stroke-width:2;stroke-miterlimit:10;" d="M450.5,403.9
		c-1.7-1-3.8-4.1-3.1-4.6c0.2-0.2,0.5-0.1,0.6,0.3c0.5,1.4,3.4,4.2,4.4,4.2c0.5,0,1,0.3,1,0.5C453.4,405.2,452.3,405,450.5,403.9z"
		/>
	<path id="path5561" style="fill:none;stroke:#000000;stroke-width:2;stroke-miterlimit:10;" d="M468.2,403.8
		c0.2-0.3,0.7-0.4,1.1-0.3c0.6,0.2,0.7,0,0.5-0.7c-0.4-1,0.4-1.9,1.3-1.4c0.8,0.5-0.8,2.5-2.1,2.7
		C468.3,404.3,468,404.2,468.2,403.8L468.2,403.8z"/>
	<path id="path5559" style="fill:none;stroke:#000000;stroke-width:2;stroke-miterlimit:10;" d="M457.3,403.4c0.2-0.3,0.6-0.5,1-0.5
		c0.8,0,3.9-3.4,3.9-4.2c0-0.3,0.3-0.5,0.5-0.5c1,0,0.5,0.8-1.8,3.3c-1.3,1.4-2.7,2.5-3.2,2.5C457.3,403.9,457.1,403.7,457.3,403.4z
		"/>
	<path id="path5557" style="fill:none;stroke:#000000;stroke-width:2;stroke-miterlimit:10;" d="M446.3,402.8
		c-0.2-0.3-0.2-0.7-0.1-0.8c0.2-0.2,0.4,0.1,0.6,0.6C447.1,403.5,446.8,403.6,446.3,402.8L446.3,402.8z"/>
	<path id="path5555" style="fill:none;stroke:#000000;stroke-width:2;stroke-miterlimit:10;" d="M471.6,400.9c0-0.2,0.3-0.8,0.5-1.2
		c0.4-0.7,0.5-0.7,0.5,0.1c0,0.5-0.2,1-0.5,1.2C471.8,401.2,471.6,401.2,471.6,400.9z"/>
	<path id="path5553" style="fill:none;stroke:#000000;stroke-width:2;stroke-miterlimit:10;" d="M445.3,394.6
		c-0.5-0.5-0.9-1.4-0.9-1.9s-1.5-2.4-3.4-4.2s-3.4-3.7-3.4-4.2c0-1,0.1-1,2.1,1.9c0.4,0.6,1.6,1.6,2.5,2.2c1,0.6,2.1,2,2.8,3.3
		c0.6,1.3,1.3,2.4,1.6,2.6c0.6,0.4,0.7,1.3,0.1,1.3C446.4,395.5,445.8,395.1,445.3,394.6z"/>
	<path id="path5551" style="fill:none;stroke:#000000;stroke-width:2;stroke-miterlimit:10;" d="M436,390.6c-0.6-1-1.6-6.1-1.3-6.8
		c0.2-0.5,0.1-0.7-0.2-0.5c-0.5,0.3-1.1-1.5-1-3.3c0.1-1,0.2-0.9,0.8,0.8l0.7,2.1l-0.3-2.1c-0.5-3.2-0.3-9.1,0.4-11.2
		c0.7-2.2,1.8-3.5,1.3-1.6c-1,3.9-1.4,8.2-0.8,11.6c0.3,1.9,0.4,3.8,0.2,4.1c-0.2,0.3-0.1,1.6,0.3,2.8
		C436.7,388.5,436.7,391.6,436,390.6L436,390.6z"/>
	<path id="path5549" style="fill:none;stroke:#000000;stroke-width:2;stroke-miterlimit:10;" d="M444.5,360.6c0-0.3,0.3-0.6,0.5-0.6
		c0.3,0,0.5,0.1,0.5,0.2c0,0.2-0.3,0.4-0.5,0.6C444.7,361,444.5,360.9,444.5,360.6z"/>
	<path id="path5547" style="fill:none;stroke:#000000;stroke-width:2;stroke-miterlimit:10;" d="M441.8,356.4
		c1.3-1.1,2.2-1.2,2.6-0.1c0.1,0.3-0.3,0.6-0.8,0.6s-1.5,0.2-2,0.3C440.8,357.4,440.8,357.3,441.8,356.4L441.8,356.4z"/>
	<path id="path5545" style="fill:none;stroke:#000000;stroke-width:2;stroke-miterlimit:10;" d="M438.7,354.3c0-0.5,1.3-1,2.4-1
		c0.4,0,0.6,0.2,0.5,0.5C441.2,354.3,438.7,354.8,438.7,354.3z"/>
	<path id="path5543" style="fill:none;stroke:#000000;stroke-width:2;stroke-miterlimit:10;" d="M438,349.8c1.6-1.3,3.2-1.8,2.6-0.8
		c-0.2,0.3-0.6,0.5-1,0.5c-0.4,0-1,0.4-1.4,0.8c-0.4,0.4-0.9,0.8-1.3,0.8S437.1,350.5,438,349.8z"/>
	<path id="path5541" style="fill:none;stroke:#000000;stroke-width:2;stroke-miterlimit:10;" d="M447.4,348.1
		c-0.7-1.2-1.3-5.8-0.8-7c0.4-1,0.5-0.9,0.5,0.9c0,1.1,0.3,3,0.6,4.1C448.2,348.1,448,349.2,447.4,348.1z"/>
	<path id="path5539" style="fill:none;stroke:#000000;stroke-width:2;stroke-miterlimit:10;" d="M508.9,474.9c-0.6-2-3-3.5-5.6-3.7
		c-1.3-0.1-3.9-4.2-4.3-6.9c-0.2-1.3-0.9-3.1-1.5-4.1c-0.6-1-1.3-2.3-1.5-2.8c-1.1,0.3-1.2-2.5-2.4-4.5c-0.5-0.7-1.8-3.1-2.9-5.2
		c-1.1-2.1-2.4-4.2-2.9-4.5c-1.1-0.8-4.2-5.5-4.2-6.5c0-0.4-0.5-1-1-1.4c-0.6-0.4-1-0.9-1-1.4c0-0.4-0.5-1.1-1.1-1.7
		s-1.4-1.6-1.8-2.4c-0.4-0.8-1.3-2-1.9-2.6c-0.6-0.7-2.3-2.5-3.7-4.1c-1.5-1.7-2.5-2.5-2.5-2c0,1.7,3.3,7.5,5.4,9.6
		c2.5,2.3,3.9,5.7,4.5,10.6c0.9,6.5,8.4,20.5,13,24.1c2.3,1.8,3.7,4,3.7,5.8c0,1.6,4.6,6.5,6.9,7.5c1,0.4,2,1,2.2,1.4
		C506.9,481,509.3,476.1,508.9,474.9L508.9,474.9z"/>
	<path id="path5533" style="fill:none;stroke:#000000;stroke-width:2;stroke-miterlimit:10;" d="M365.8,420.5
		c-0.9-0.3-1.7-0.7-1.7-1c0-0.7,0.9-0.7,1.3,0c0.2,0.3,0.8,0.5,1.5,0.5c1,0,1-0.1,0.2-0.5c-0.5-0.3-0.9-0.8-0.9-1.1
		c0-0.4,0.2-0.4,0.7-0.1c0.4,0.3,1.7,0.7,3,0.8c2.9,0.4,3.2,0.7,1,1.1c-0.9,0.2-2.1,0.4-2.5,0.5
		C367.8,420.9,366.7,420.8,365.8,420.5z"/>
	<path id="path5531" style="fill:none;stroke:#000000;stroke-width:2;stroke-miterlimit:10;" d="M334.6,419.6
		c-0.5-0.8,0.6-1.1,1.3-0.3c0.5,0.6,0.5,0.8-0.2,0.8C335.3,420.1,334.7,419.8,334.6,419.6z"/>
	<path id="path5529" style="fill:none;stroke:#000000;stroke-width:2;stroke-miterlimit:10;" d="M341.9,418.5
		c-0.4-0.6,0.2-0.6,1.6,0c1,0.4,1,0.5-0.1,0.5C342.7,419,342.1,418.8,341.9,418.5z"/>
	<path id="path5527" style="fill:none;stroke:#000000;stroke-width:2;stroke-miterlimit:10;" d="M332.7,416.3
		c-1.8-1.9-1.9-3.1-0.6-4.3c1-0.9,3.2-1.2,3.2-0.4c0,0.3-0.5,0.5-1,0.5c-0.6,0-1.3,0.5-1.5,1.2c-0.4,0.9-0.2,1.4,1,2.4
		c0.8,0.7,1.5,1.4,1.5,1.7C335.4,418.4,334.2,418,332.7,416.3L332.7,416.3z"/>
	<path id="path5525" style="fill:none;stroke:#000000;stroke-width:2;stroke-miterlimit:10;" d="M336.6,412.5
		c-0.6-0.4-0.9-0.9-0.7-1c0.3-0.3,3.9,0.8,4.5,1.4C341.1,413.6,337.6,413.3,336.6,412.5z"/>
	<path id="path5523" style="fill:none;stroke:#000000;stroke-width:2;stroke-miterlimit:10;" d="M375.7,408.3
		c-2.3-2.3-6.4-8-6.7-9.3c-0.1-0.3-0.4-1.5-0.7-2.6c-1.1-4.1-1.8-9.6-1.3-10.5c0.4-0.6,0.6,0,0.8,2.5c0.2,1.9,1,5.2,1.9,7.5
		c1.6,4.2,6.1,11.3,8,12.8c0.6,0.5,0.9,1.1,0.8,1.5C378.4,410.6,377.4,410,375.7,408.3L375.7,408.3z"/>
	<path id="path5521" style="fill:none;stroke:#000000;stroke-width:2;stroke-miterlimit:10;" d="M352.6,406.7
		c-3.1-1.8-4.1-2.8-5.1-4.5c-1-2-0.5-2.3,1.4-0.7c0.9,0.7,1.9,1.4,2.2,1.6c0.4,0.2,0.5,0.4,0.3,0.6c-0.2,0.2-0.9,0.1-1.5-0.3
		c-0.7-0.4-1-0.4-0.8-0.1c0.2,0.3,1.7,1.3,3.4,2.2c1.7,0.9,3.1,1.9,3.1,2.1C355.7,408.3,355.1,408.1,352.6,406.7L352.6,406.7z"/>
	<path id="path5519" style="fill:none;stroke:#000000;stroke-width:2;stroke-miterlimit:10;" d="M346.4,397.1
		c-1.2-0.8-2.3-1.6-2.4-1.6c-0.3,0-2.7-2-3.9-3.3c-1.3-1.4-3.8-6.5-3.5-7.3c0.1-0.4,0.8,0.5,1.5,1.9c1.6,3.3,4.6,6.6,8.5,9.2
		c1.7,1.1,3,2.1,3,2.3C349.5,399,348.4,398.5,346.4,397.1L346.4,397.1z"/>
	<path id="path5517" style="fill:none;stroke:#000000;stroke-width:2;stroke-miterlimit:10;" d="M340.3,389.1
		c-1-1.6-1.8-3.2-1.7-3.6c0.2-0.4,0.6,0.1,1.2,1.1c0.5,1,1.4,2.5,2,3.2c0.6,0.8,0.9,1.6,0.7,1.8
		C342.4,391.8,341.4,390.7,340.3,389.1z"/>
	<path id="path5515" style="fill:none;stroke:#000000;stroke-width:2;stroke-miterlimit:10;" d="M335.4,380.7
		c-0.7-3.9-0.8-7.1-0.2-8.1c0.3-0.4,0.6,1.4,0.7,4.4c0.2,2.8,0.5,5.5,0.7,6.1c0.2,0.5,0.2,0.9-0.1,0.9
		C336.3,384,335.8,382.6,335.4,380.7L335.4,380.7z"/>
	<path id="path5513" style="fill:none;stroke:#000000;stroke-width:2;stroke-miterlimit:10;" d="M337.8,383.7
		c-0.2-0.2-0.4-0.6-0.4-0.9c0-0.3,0.3-0.3,0.6,0.1c0.4,0.3,0.5,0.7,0.4,0.9S338,383.9,337.8,383.7z"/>
	<path id="path5509" style="fill:none;stroke:#000000;stroke-width:2;stroke-miterlimit:10;" d="M414.6,414.8
		c-0.9-0.9-1.4-1.8-1.2-2s0.9,0.3,1.6,1c0.7,0.8,1.5,1.5,1.8,1.5c0.3,0,0.5,0.3,0.5,0.5C417.3,416.9,416.2,416.4,414.6,414.8
		L414.6,414.8z"/>
	<path id="path5507" style="fill:none;stroke:#000000;stroke-width:2;stroke-miterlimit:10;" d="M419.4,415.9
		c-0.6-0.4-0.5-0.5,0.7-0.5c0.8,0,1.5,0.2,1.5,0.5C421.5,416.6,420.4,416.6,419.4,415.9z"/>
	<path id="path5495" style="fill:none;stroke:#000000;stroke-width:2;stroke-miterlimit:10;" d="M494.2,383.9
		c0.4-0.4,1.1-0.9,1.7-1.3c1-0.6,1-0.6-0.2-0.6c-0.7,0-1.8,0.6-2.6,1.3c-1.1,1-1.2,1.3-0.5,1.3C493.1,384.6,493.8,384.2,494.2,383.9
		z"/>
	<path id="path5489" style="fill:none;stroke:#000000;stroke-width:2;stroke-miterlimit:10;" d="M499.3,380.1
		c0.5-0.5,0.9-1.2,0.9-1.6c0-0.5-0.4-0.3-1.1,0.6c-0.6,0.8-1.6,1.4-2.2,1.4c-1.1,0-1-0.1,0.3-1.1c1.6-1.1,1.9-2.9,0.6-3.4
		c-1-0.4-2.4,0.8-2.2,1.8c0.1,0.5-0.1,1.1-0.3,1.5C494.4,380.9,497.7,381.6,499.3,380.1z"/>
	<path id="path5487" style="fill:none;stroke:#000000;stroke-width:2;stroke-miterlimit:10;" d="M496.2,377.8c0-0.3,0.4-0.5,0.8-0.5
		c0.5,0,0.7,0.3,0.5,0.5c-0.2,0.3-0.5,0.5-0.8,0.5S496.2,378.1,496.2,377.8z"/>
	<path id="path5481" style="fill:none;stroke:#000000;stroke-width:2;stroke-miterlimit:10;" d="M506.1,374.5c0.7-0.3,1-0.6,0.7-0.7
		c-0.3-0.1-1.6,0.3-2.9,0.8c-1.8,0.8-1.9,1-0.7,0.7C504,375.2,505.3,374.8,506.1,374.5z"/>
	<path id="path5477" style="fill:none;stroke:#000000;stroke-width:2;stroke-miterlimit:10;" d="M543.9,358.6
		c-0.3-0.3-1.9,2.8-1.9,3.6c0,0.4,0.5-0.3,1-1.4C543.7,359.7,544.1,358.7,543.9,358.6z"/>
	<path id="path5475" style="fill:none;stroke:#000000;stroke-width:2;stroke-miterlimit:10;" d="M552,357.8c0.5-1.2,1.1-2.9,1.3-3.8
		c0.2-0.9-0.1-0.5-0.7,1c-0.6,1.4-1.9,3.5-3,4.6l-2,2l1.7-0.9C550.4,360.3,551.4,359.2,552,357.8z"/>
	<path id="path5465" style="fill:none;stroke:#000000;stroke-width:2;stroke-miterlimit:10;" d="M546.4,349.4c0.2-1-0.1-1.4-1.8-2
		c-2.7-1-2.8-2.7-0.2-2.2c1.4,0.3,1.9,0.2,2.1-0.5c0.4-0.9,4.4-3.2,4.4-2.5c0,0.3-1,1.1-2.2,1.9c-1.2,0.8-1.9,1.6-1.6,1.7
		c1,0.3,3.9-1.2,7.2-3.7l3.1-2.4h-2c-1.1,0-2.8,0.5-3.7,1c-1.3,0.8-2.5,1-5.5,0.9c-6.5-0.2-7.5,0.9-4.4,4.5c0.9,1.1,2.1,2.8,2.5,3.7
		C545,351.8,546,351.5,546.4,349.4L546.4,349.4z"/>
	<path id="path5463" style="fill:none;stroke:#000000;stroke-width:2;stroke-miterlimit:10;" d="M556.2,345.6c1.1-1,2-2,1.8-2.1
		c-0.2-0.2-1.3,0.3-2.6,0.8c-1.3,0.6-2.6,1.1-2.9,1.1c-0.6,0-0.7,1.2-0.2,1.7C553.1,347.9,554.2,347.4,556.2,345.6L556.2,345.6z"/>
	<path id="path5425" style="fill:none;stroke:#000000;stroke-width:2;stroke-miterlimit:10;" d="M307.6,415.5
		c0.4-0.2,1.5-1.4,2.5-2.7c1-1.3,1.8-2.1,1.8-1.7c0,1.1-3.2,4.7-4.1,4.7C307.2,415.8,307.1,415.7,307.6,415.5L307.6,415.5z"/>
	<path id="path5421" style="fill:none;stroke:#000000;stroke-width:2;stroke-miterlimit:10;" d="M313.4,408.1c0-0.3,0.7-2,1.6-3.9
		l1.6-3.4l-0.8-4.2c-0.4-2.3-1.3-5-1.8-5.9c-4.2-6.6-6.1-12.5-6.6-20.4c-0.3-4.1-0.2-4.8,0.5-4.8c0.8,0,1.6,1.6,1.2,2.3
		c-0.1,0.2-0.1,0.9,0.2,1.5s0.4-2.7,0.4-7.2c0-4.5,0.3-9.7,0.6-11.4c0.3-1.8,0.5-3.3,0.3-3.4c-0.6-0.6-1.9,8.8-1.9,13.8
		c0,2.9-0.2,3.8-0.8,3.8c-1.5,0-1.7-8-0.5-14.3c0.2-1,0.1-1.5-0.2-1.3c-0.8,0.5-1.9,8.2-1.9,13.2c0,5.2,0.4,8.6,1.8,13.6
		c0.6,2.1,1,4.3,1,4.8c0,1.4-0.8,0.2-1.6-2.5l-0.7-2.3l-0.2,1.9c-0.1,1,0.1,3.3,0.4,4.9c0.5,2.9,0.4,3.9-0.3,3.1
		c-0.7-0.7-1.2-5.8-1.5-17.3c-0.3-11.8-0.3-12.1,1.1-17.7c2.6-10.6,6.3-16.2,13.3-20.2c2.5-1.4,3.4-1.7,6.3-1.7
		c6.5,0,9.7,2.8,11.5,9.8c0.5,2.1,1.9,5.7,3.1,8.1c2.1,4.2,2.3,5.6,0.7,4.3c-1.3-1-3.9-7.1-5-11.3c-1.4-5.4-2.6-7.1-6.2-8.6
		c-3.3-1.4-4.5-1.4-6.3,0.1c-0.7,0.5-1.6,1-1.9,1c-1,0-6.4,5.9-7.3,8c-1.1,2.8-3,12-2.9,14.8c0,1.4,0.2,2.2,0.3,1.8
		c0.7-1.9,1.2-0.1,1.2,4.4c0,3.3-0.2,4.8-0.5,4.1c-0.8-2-0.6,8.7,0.3,11.7c0.5,1.6,0.9,3.4,1,4.2c0.2,1.3,0.6,3.2,1.9,7.8
		c0.4,1.3,0.9,2.8,1.3,3.3s0.5,1.6,0.4,2.4c-0.2,0.8-0.1,1.6,0.3,1.8c0.4,0.3,0.6-0.2,0.5-1.1c0-0.8,0.1-2.3,0.2-3.3
		c0.2-1.3-0.3-3.3-1.5-6.5c-2.6-7-5.1-18.5-4.1-18.5c0.3,0,0.7,1.7,1,3.8c0.7,4.3,3.9,15.5,4.2,14.6c0.2-0.6-0.1-2.3-1.9-11.3
		c-1.1-5.2-1.4-12.6-0.6-13.1c0.3-0.2,0.6,2.1,0.7,5.1c0.3,5.1,2,14.4,3,16.8c0.4,0.9,0.5,0.9,0.2-0.3c-0.4-2-1.3-11-1.5-15
		c-0.2-3.5,0.5-11.9,0.9-12.4c0.6-0.6,0.7,0.4,0.2,5.7c-0.3,3.4-0.3,6,0,6.8c0.4,1,0.5,0.8,0.5-1.4c0-1.5,0.4-4.1,0.7-5.9
		c0.4-2.1,0.5-4.1,0.3-5.5c-0.5-2.7,0.2-6.4,1.6-9.2c1-1.9,2.1-2.8,2.1-1.6c0,0.3-0.2,0.5-0.5,0.5c-0.7,0-2.1,5.7-2.1,8.2
		c0,1.8,0.2,2.1,0.8,1.8c0.7-0.3,0.7-0.2,0.3,0.8c-0.5,0.8-2.1,7.7-2.1,8.8c0,0.1,0.2,0.2,0.5,0.2s1-1.6,1.6-3.5s1.6-4.4,2.2-5.6
		c1.6-3.1,5.1-7.6,5.9-7.6c1.1,0,0.9,0.9-0.3,1.3c-1.4,0.5-5.5,7.6-6.8,11.7c-1.7,5.8-2.3,12.6-1.3,15.6c0.2,0.6,0.1,1.1-0.2,1.1
		c-0.8,0-1.1-2-1.1-6.7c0-2.4-0.2-4.2-0.3-4.1c-0.2,0.2-0.3,3.4-0.3,7.2c0.1,5.2,0.3,7.5,0.9,9.3c1.4,3.8,5.1,9.2,8.4,12.4
		c1.6,1.6,2.7,2.9,2.4,2.9c-1,0-5.2-4.1-7.3-6.9c-1-1.5-2.4-3.2-2.9-3.8c-0.5-0.6-1.3-1.5-1.7-2.1c-0.7-0.9-0.7-0.9-0.2,0.7
		c1.1,3.5,3.3,6.6,6.8,10c3.9,3.8,4.7,5.1,1.6,2.8c-2.8-2.1-5.4-4.8-5.4-5.4c0-0.3-0.2-0.6-0.4-0.6c-0.2,0-1.2-1.5-2.1-3.3l-1.7-3.3
		l0.3,2.2c0.4,2.5,1.6,4.4,5,7.7c1.3,1.3,2.1,2.5,1.9,2.7c-0.5,0.5-6.7-6.1-6.3-6.7c0.2-0.3,0.1-0.5-0.3-0.5c-0.3,0-0.6,0.8-0.6,1.7
		c-0.1,2.9-1.3,7.3-3,11C314,408.4,313.4,409.2,313.4,408.1L313.4,408.1z"/>
	<path id="path5419" style="fill:none;stroke:#000000;stroke-width:2;stroke-miterlimit:10;" d="M312.4,383.9
		c-0.5-1.8-1.5-4.6-2-6.3c-0.6-1.7-1.1-3.5-1.1-4.1c0-0.5-0.2-1-0.5-1s-0.3,0.7-0.1,1.7c0.2,0.9,0.7,3,1.1,4.5
		c0.6,2.6,3,8.4,3.4,8.4C313.3,387.2,312.9,385.7,312.4,383.9L312.4,383.9z"/>
	<path id="path5417" style="fill:none;stroke:#000000;stroke-width:2;stroke-miterlimit:10;" d="M308.8,371c0-0.3-0.3-0.5-0.6-0.5
		c-0.3,0-0.4,0.3-0.2,0.5s0.4,0.5,0.6,0.5S308.8,371.3,308.8,371z"/>
	<path id="path5415" style="fill:none;stroke:#000000;stroke-width:2;stroke-miterlimit:10;" d="M308,355c-0.2-0.2-0.3,0.2-0.3,0.7
		c0,0.6,0.2,0.7,0.3,0.3C308.2,355.6,308.2,355.1,308,355z"/>
	<path id="path5413" style="fill:none;stroke:#000000;stroke-width:2;stroke-miterlimit:10;" d="M311,343.5c1.8-4.8,4.5-8.2,8.6-11
		c1.8-1.3,3.1-2.2,2.9-2.2c-1,0-4.4,2-6.3,3.8c-1.1,1.1-2.7,2.3-3.3,2.8c-0.6,0.5-1.4,1.5-1.7,2.2c-0.8,2.2-3.1,11.1-3,12
		c0,0.5,0.4-0.2,0.7-1.6C309.3,348.2,310.3,345.5,311,343.5L311,343.5z"/>
	<path id="path5401" style="fill:none;stroke:#000000;stroke-width:2;stroke-miterlimit:10;" d="M501.6,388.4c-1.1-1.1-1-2,0.5-3.5
		c2.2-2.2,5.6-2.4,6.3-0.3c0.5,1.5-0.2,1.8-1.1,0.7c-0.7-0.9-0.8-0.9-0.5,0.4c0.4,1.6-0.2,1.8-1.8,0.9c-0.7-0.4-1.1-0.3-1.6,0.3
		c-0.6,0.7-0.5,0.8,0.5,1.1c0.6,0.2,1.1,0.5,1.1,0.8C505,389.6,502.5,389.3,501.6,388.4L501.6,388.4z"/>
	<path id="path5399" style="fill:none;stroke:#000000;stroke-width:2;stroke-miterlimit:10;" d="M505.1,384.7
		c-0.4-0.2-0.8-0.2-1,0.1c-0.2,0.2,0.2,0.3,0.7,0.3C505.4,385,505.6,384.9,505.1,384.7L505.1,384.7z"/>
	<path id="path5397" style="fill:none;stroke:#000000;stroke-width:2;stroke-miterlimit:10;" d="M501.4,383c0-0.3,0.4-0.6,0.9-0.7
		c3.5-1,7.4-2.7,8.8-3.7c2.2-1.6,2.9-2,2.9-1.5c-0.1,0.9-3.3,2.9-6.6,4.1c-1.9,0.7-3.7,1.5-4,1.8C502.6,383.7,501.4,383.7,501.4,383
		z"/>
	<path id="path5395" style="fill:none;stroke:#000000;stroke-width:2;stroke-miterlimit:10;" d="M472.1,380.4c0-0.3,0.3-0.5,0.5-0.5
		s0.5,0.3,0.5,0.5s-0.3,0.5-0.5,0.5S472.1,380.7,472.1,380.4z"/>
	<path id="path5391" style="fill:none;stroke:#000000;stroke-width:2;stroke-miterlimit:10;" d="M487.1,378.6c-0.4-0.3-0.4-1.4,0-3
		c0.4-2.1,0.4-2.9-0.6-5c-0.6-1.4-1.1-3-1.1-3.5s-0.3-1.1-0.5-1.3c-0.3-0.2-0.5-0.1-0.5,0.1s-1.4,2-3.1,3.9s-3.2,3.8-3.3,4.1
		c-0.1,0.4-0.5,0.5-0.8,0.3c-0.9-0.6,1-4,5.7-9.8c4.1-5.1,6.4-8.4,10-14.1c3.4-5.5,7.5-8.8,10.8-8.8c1.6,0,2.1-0.3,3.2-1.8
		c1.5-2.1,5.4-5.2,6.4-4.8c0.4,0.2,0.1,0.5-0.7,0.8c-1.2,0.5-4.6,3.9-4.6,4.6c0,0.2,1.2-0.8,2.7-2c1.8-1.6,3.8-2.7,6.2-3.4
		c4-1.3,5.7-1.4,10.3-0.5c4.2,0.8,4.5,1.8,0.3,1.2c-5.7-0.8-9.6-0.5-12.4,0.9c-4.4,2.2-8.6,7.1-7.8,9.1c0.2,0.5-0.1,1.1-0.6,1.6
		c-0.9,0.7-0.9,0.7,0.1,0.4c2.3-0.7,4.1-0.9,3.8-0.4c-0.2,0.3-1.4,0.7-2.7,0.9c-2.3,0.4-2.3,0.4-2.3,2.3c0,1,0.4,2.5,0.8,3.2
		s0.7,1.8,0.7,2.3c0,1,0,1-0.8,0c-0.8-1-0.8-1-0.5,0c0.8,2.3,0.8,2.7-1,5.4c-1,1.6-2.2,3.9-2.7,5.2c-0.8,2.5-3.2,5.6-3.8,5.1
		c-0.2-0.2,0.2-1,0.7-1.8c0.6-0.8,1.5-2.6,2-4c0.5-1.4,1.7-3.5,2.5-4.6l1.6-2l-0.7-3.5c-0.7-4-0.5-8.1,0.8-10.5
		c0.6-1.3,0.7-1.7,0.2-2c-0.9-0.6-1.5-0.5-3.9,0.6c-2.3,1.1-4.9,4.2-11.9,14.7l-3.8,5.7l1.6,4.1c1.9,4.8,2.5,9.5,1.4,10.4
		C487.9,378.9,487.4,379,487.1,378.6L487.1,378.6z"/>
	<path id="path5389" style="fill:none;stroke:#000000;stroke-width:2;stroke-miterlimit:10;" d="M324.3,376.4
		c-0.2-0.3-0.6-2.6-0.9-5c-0.5-3.7-0.4-4.9,0.3-6.7c1.3-3.7,3.7-7.4,6.5-10.2c2.6-2.5,2.7-2.6,3.4-1.6c0.9,1.2,1,1.8,0.3,1.8
		c-0.3,0-1,0.9-1.6,2c-1.1,2.1-0.6,2.6,1.3,1.1c1.5-1.3,1.3-0.4-0.8,3.2c-1.2,2.1-2.1,4.6-2.3,6.2c-0.3,2.1-0.5,2.6-1.4,2.6
		s-1-0.3-0.8-1.6c0.2-1,0-1.6-0.4-1.6c-0.9,0-1.4-1.8-1-4.1l0.3-1.9l-0.8,2.1c-0.5,1.2-1,4.6-1.1,8.1
		C324.8,374.3,324.5,376.7,324.3,376.4L324.3,376.4z"/>
	<path id="path5387" style="fill:none;stroke:#000000;stroke-width:2;stroke-miterlimit:10;" d="M328.7,363.4c0.3-2.1,2-6,3.7-8.2
		c1.4-2,0.6-2.6-1-0.6c-2,2.5-3.3,5.6-3.7,8.6C327.3,366.3,328.2,366.5,328.7,363.4L328.7,363.4z"/>
	<path id="path5381" style="fill:none;stroke:#000000;stroke-width:2;stroke-miterlimit:10;" d="M513.2,365.9
		c-0.6-0.6-0.3-1.2,0.5-1.2c0.4,0,1.6-0.8,2.6-1.8c1.7-1.8,3.1-2.6,1.9-1c-1,1.2,0.1,0.9,1.4-0.4c1-0.9,1.2-1,1.2-0.3
		C520.7,362.4,513.9,366.7,513.2,365.9L513.2,365.9z"/>
	<path id="path5379" style="fill:none;stroke:#000000;stroke-width:2;stroke-miterlimit:10;" d="M526,361.6
		c-1.2-1.9-0.8-4.3,1.1-6.5c1.5-1.6,2-1.9,2.8-1.5c2,1,2.9,2.6,2.5,4.2c-0.3,1.3-0.1,1.7,1,2.6c1.7,1.3,1.7,1.7,0.1,1.7
		c-1.7,0-2.6-1.6-2.1-3.8c0.3-1.1,0.2-1.5-0.2-1.1c-0.3,0.3-0.6,1-0.7,1.6c-0.2,1.3-0.9,1.8-2.5,1.8c-1,0-1.1,0.2-0.9,1
		C527.6,362.9,526.9,362.9,526,361.6L526,361.6z"/>
	<path id="path5377" style="fill:none;stroke:#000000;stroke-width:2;stroke-miterlimit:10;" d="M529,358c0-0.3,0.2-0.9,0.3-1.5
		c0.3-0.9,0.3-0.9-0.5-0.1c-0.4,0.5-1,0.9-1.4,0.9c-0.3,0-0.6,0.3-0.6,0.5s0.5,0.5,1,0.5S529,358.2,529,358z"/>
	<path id="path5371" style="fill:none;stroke:#000000;stroke-width:2;stroke-miterlimit:10;" d="M332.2,358.1c0-0.7,1.4-2.7,1.7-2.3
		c0.2,0.2-0.2,0.8-0.7,1.6C332.7,358.1,332.2,358.5,332.2,358.1L332.2,358.1z"/>
	<path id="path5369" style="fill:none;stroke:#000000;stroke-width:2;stroke-miterlimit:10;" d="M335.1,356.1c-0.4-1,0.1-1.8,1-1.8
		c1,0,1,1.9,0,2.2C335.8,356.7,335.3,356.5,335.1,356.1L335.1,356.1z"/>
	<path id="path5365" style="fill:none;stroke:#000000;stroke-width:2;stroke-miterlimit:10;" d="M323.1,352.3
		c1.2-2.3,3.9-5.9,4.5-5.9c0.3,0-0.6,1.6-2,3.7C323.1,353.8,321.6,355,323.1,352.3z"/>
	<path id="path5359" style="fill:none;stroke:#000000;stroke-width:2;stroke-miterlimit:10;" d="M470.6,344.6c0-0.2,0.8-1,1.8-1.9
		c2.9-2.6,2.5-5.6-1-8c-3-2-4.6-4.2-4.6-6.3c-0.1-2.5-0.8-1.6-0.8,0.9c0,2.2,0.3,2.6,5.2,6.9l1.7,1.5l-1.1,1.2
		c-0.6,0.7-1.4,1.1-1.6,0.9c-0.3-0.2-0.1-0.6,0.5-1c0.9-0.7,0.8-0.8-0.8-2.6c-1-1-2-1.9-2.3-1.9c-0.9,0-2.3-2.9-2.3-4.6
		c0-1.7,0.9-4.2,1.6-4.2c0.2,0,0.7-0.2,1.2-0.3c0.6-0.3,0.7-0.1,0.4,1.2c-0.6,2.3,0.3,4,3.8,7.2c1.9,1.7,3.4,3.4,3.5,4.2
		c0.3,1.5-0.8,4.4-2.1,5.4C471.9,344.2,470.6,345,470.6,344.6z"/>
	<path id="path5353" style="fill:none;stroke:#000000;stroke-width:2;stroke-miterlimit:10;" d="M531.7,335.4c0-0.6,2.1-1.1,3.4-0.8
		c2,0.5,1.5,1.1-1.1,1.1C532.7,335.9,531.7,335.6,531.7,335.4z"/>
	<path id="path5349" style="fill:none;stroke:#000000;stroke-width:2;stroke-miterlimit:10;" d="M510.4,333.8
		c0.3-0.8,1.5-1.2,1.5-0.5c0,0.3-0.4,0.7-0.8,0.8C510.5,334.3,510.3,334.2,510.4,333.8z"/>
	<path id="path5345" style="fill:none;stroke:#000000;stroke-width:2;stroke-miterlimit:10;" d="M509,332.9c0.6-0.6,1.4-1.1,1.7-1
		c0.3,0.1-0.2,0.6-1.1,1.2l-1.7,1L509,332.9L509,332.9z"/>
	<path id="path5333" style="fill:none;stroke:#000000;stroke-width:2;stroke-miterlimit:10;" d="M470.9,328.6
		c-1.1-0.9-1.5-1.5-1.5-3.3c0-1.2,0.4-2.7,0.8-3.2c0.7-0.9,0.8-0.9,0.5,0.9c-0.4,2.6,0.6,5,2.2,5.4c0.7,0.2,1.3,0.5,1.3,0.8
		C474.2,330.1,472.5,329.7,470.9,328.6L470.9,328.6z"/>
	<path id="path5331" style="fill:none;stroke:#000000;stroke-width:2;stroke-miterlimit:10;" d="M478.2,325.8
		c-0.8-2.2,0.5-7.3,2.4-8.9c1-0.9,1-0.8-0.1,1.4c-0.7,1.4-1.3,3.5-1.3,5.1C479,326.4,478.7,327.1,478.2,325.8L478.2,325.8z"/>
	<path id="path3687" style="fill:none;stroke:#000000;stroke-width:2;stroke-miterlimit:10;" d="M495.9,482.6
		c0.1-0.3,0.9-0.4,1.8-0.2c0.9,0.2,3.3-0.1,5.3-0.7c4.3-1.2,4.2-0.4-0.2,1.1C499.7,484,495.7,483.8,495.9,482.6L495.9,482.6z"/>
	<path id="path5335" style="fill:none;stroke:#000000;stroke-width:2;stroke-miterlimit:10;" d="M531.7,329.8
		c-3-3.6-12.5-9.4-15.3-9.4c-0.7,0-2.1-0.6-3.3-1.4c-2.6-1.8-7-3.8-8.1-3.8c-0.5,0-0.9-0.3-0.9-0.5s0.1-0.5,0.3-0.5
		c1,0,5.6,1.9,7.6,3.1c1.3,0.8,3,1.6,3.9,1.8c2.4,0.5,6.4,2.3,10.2,4.6c3.7,2.2,8.4,6.7,8.4,7.9C534.3,332.8,534,332.6,531.7,329.8
		L531.7,329.8z"/>
	<path id="path2932" style="fill:none;stroke:#000000;stroke-width:2;stroke-miterlimit:10;" d="M495.7,327.4
		c-2.9-5.5-4.4-9.5-4.2-14.6C489.6,318.9,493.9,325.5,495.7,327.4z"/>
	<path id="path3514" style="fill:none;stroke:#000000;stroke-width:2;stroke-miterlimit:10;" d="M487,330.4
		c-1.6-6.1-2.2-10.2-0.7-15.2C483.1,320.7,485.7,328.1,487,330.4z"/>
	<path id="path3516" style="fill:none;stroke:#000000;stroke-width:2;stroke-miterlimit:10;" d="M466.1,341.7
		c-3.9-4.9-6.2-8.4-6.9-13.5C458.6,334.5,464,340.2,466.1,341.7z"/>
	<path id="path3520" style="fill:none;stroke:#000000;stroke-width:2;stroke-miterlimit:10;" d="M501.3,324.2
		c-1.9-4.6-2.9-8-2.1-12.4C497,317.2,499.9,322.6,501.3,324.2z"/>
	<g id="g3526">
		<path id="path3518" style="fill:none;stroke:#000000;stroke-width:2;stroke-miterlimit:10;" d="M460.9,347.2
			c-3.1-5.4-5-9.4-5.6-15.1C454.9,339.3,459.2,345.6,460.9,347.2z"/>
		<path id="path3522" style="fill:none;stroke:#000000;stroke-width:2;stroke-miterlimit:10;" d="M460.4,347.4
			c-2.3-0.4-6-4.2-6.4-6.7c-0.3-1.4-0.2-1.3,1.1,0.8c0.8,1.3,2.3,2.9,3.7,3.8C461.3,347.1,461.8,347.7,460.4,347.4L460.4,347.4z"/>
		<path id="path3524" style="fill:none;stroke:#000000;stroke-width:2;stroke-miterlimit:10;" d="M457.5,351.5
			c-1.9-1.4-4-7.2-3.7-10.2c0.2-1.7,0.2-1.6,0.7,1.4c0.4,1.8,1.2,4.2,2.1,5.8C458.4,351.4,458.6,352.3,457.5,351.5L457.5,351.5z"/>
	</g>
	<g id="g3531">
		<path id="path3533" style="fill:none;stroke:#000000;stroke-width:2;stroke-miterlimit:10;" d="M460.9,347.2
			c-3.1-5.4-5-9.4-5.6-15.1C454.9,339.3,459.2,345.6,460.9,347.2z"/>
		<path id="path3535" style="fill:none;stroke:#000000;stroke-width:2;stroke-miterlimit:10;" d="M460.4,347.4
			c-2.3-0.4-6-4.2-6.4-6.7c-0.3-1.4-0.2-1.3,1.1,0.8c0.8,1.3,2.3,2.9,3.7,3.8C461.3,347.1,461.8,347.7,460.4,347.4L460.4,347.4z"/>
		<path id="path3537" style="fill:none;stroke:#000000;stroke-width:2;stroke-miterlimit:10;" d="M457.5,351.5
			c-1.9-1.4-4-7.2-3.7-10.2c0.2-1.7,0.2-1.6,0.7,1.4c0.4,1.8,1.2,4.2,2.1,5.8C458.4,351.4,458.6,352.3,457.5,351.5L457.5,351.5z"/>
	</g>
	<g id="g3547" transform="matrix(.659 .17492 -.13974 .82492 300.01 -77.203)">
		<path id="path3549" style="fill:none;stroke:#000000;stroke-width:2;stroke-miterlimit:10;" d="M368.2,415.9
			c-3.1-5.4-5-9.4-5.6-15.1C362.1,408,366.5,414.3,368.2,415.9z"/>
		<path id="path3551" style="fill:none;stroke:#000000;stroke-width:2;stroke-miterlimit:10;" d="M367.7,416.1
			c-2.3-0.4-6-4.2-6.4-6.7c-0.3-1.4-0.2-1.3,1.1,0.8c0.8,1.3,2.3,2.9,3.7,3.8C368.6,415.8,369.1,416.4,367.7,416.1L367.7,416.1z"/>
		<path id="path3553" style="fill:none;stroke:#000000;stroke-width:2;stroke-miterlimit:10;" d="M364.8,420.2
			c-1.9-1.4-4-7.2-3.7-10.2c0.2-1.7,0.2-1.6,0.7,1.4c0.4,1.8,1.2,4.2,2.1,5.8C365.7,420.1,365.9,421,364.8,420.2L364.8,420.2z"/>
	</g>
	<g id="g3555" transform="matrix(.78069 .43516 -.44067 .85539 377.75 -253.74)">
		<path id="path3557" style="fill:none;stroke:#000000;stroke-width:2;stroke-miterlimit:10;" d="M427.6,460
			c-3.1-5.4-5-9.4-5.6-15.1C421.5,452.1,425.8,458.3,427.6,460z"/>
		<path id="path3559" style="fill:none;stroke:#000000;stroke-width:2;stroke-miterlimit:10;" d="M427,460.2c-2.3-0.4-6-4.2-6.4-6.7
			c-0.3-1.4-0.2-1.3,1.1,0.8c0.8,1.3,2.3,2.9,3.7,3.8C428,459.9,428.5,460.5,427,460.2L427,460.2z"/>
		<path id="path3561" style="fill:none;stroke:#000000;stroke-width:2;stroke-miterlimit:10;" d="M424.1,464.2
			c-1.9-1.4-4-7.2-3.7-10.2c0.2-1.7,0.2-1.6,0.7,1.4c0.4,1.8,1.2,4.2,2.1,5.8C425.1,464.2,425.3,465.1,424.1,464.2L424.1,464.2z"/>
	</g>
	<g id="g3563" transform="matrix(.54064 .53066 -.71469 .47141 642.22 -174.23)">
		<path id="path3565" style="fill:none;stroke:#000000;stroke-width:2;stroke-miterlimit:10;" d="M475.8,529.1
			c-3.1-5.4-5-9.4-5.6-15.1C469.8,521.1,474.1,527.4,475.8,529.1z"/>
		<path id="path3567" style="fill:none;stroke:#000000;stroke-width:2;stroke-miterlimit:10;" d="M475.3,529.3
			c-2.3-0.4-6-4.2-6.4-6.7c-0.3-1.4-0.2-1.3,1.1,0.8c0.8,1.3,2.3,2.9,3.7,3.8C476.2,528.9,476.7,529.5,475.3,529.3L475.3,529.3z"/>
		<path id="path3569" style="fill:none;stroke:#000000;stroke-width:2;stroke-miterlimit:10;" d="M472.4,533.3
			c-1.9-1.4-4-7.2-3.7-10.2c0.2-1.7,0.2-1.6,0.7,1.4c0.4,1.8,1.2,4.2,2.1,5.8C473.3,533.3,473.5,534.1,472.4,533.3L472.4,533.3z"/>
	</g>
	<path id="path3571" style="fill:none;stroke:#000000;stroke-width:2;stroke-miterlimit:10;" d="M512.2,327.9
		c1.9-6,3.5-9.9,7.4-13.3C514,317.6,512.2,325.3,512.2,327.9z"/>
	<path id="path3573" style="fill:none;stroke:#000000;stroke-width:2;stroke-miterlimit:10;" d="M495.6,314
		c-2.9,8,9.6,10.6-0.3,17.6c2.1-2.6,4.2-5.4,2.5-7.6C495.5,321.1,493.6,317.6,495.6,314z"/>
	<path id="path3575" style="fill:none;stroke:#000000;stroke-width:2;stroke-miterlimit:10;" d="M451.2,338.5
		c-2.9,8,9.6,10.6-0.3,17.6c2.1-2.6,4.2-5.4,2.5-7.6C451.1,345.5,449.2,342,451.2,338.5z"/>
	<path id="path3577" style="fill:none;stroke:#000000;stroke-width:2;stroke-miterlimit:10;" d="M475.8,318.9
		c-2.9,8,9.6,10.6-0.3,17.6c2.1-2.6,4.2-5.4,2.5-7.6C475.6,325.9,473.8,322.5,475.8,318.9L475.8,318.9z"/>
	<path id="path3579" style="fill:none;stroke:#000000;stroke-width:2;stroke-miterlimit:10;" d="M488.4,319.4
		c-2.6,6.8,6.5,9.7-1.3,15.2c1.7-2.1,3.4-4.4,2.3-6.4C487.9,325.4,486.7,322.3,488.4,319.4z"/>
	<path id="path3581" style="fill:none;stroke:#000000;stroke-width:2;stroke-miterlimit:10;" d="M490.9,320.8c-3.5,6,6.4,9.7-3.5,14
		c2-1.7,4.7-3.3,3.9-5.3C490.2,326.7,488.7,323.3,490.9,320.8L490.9,320.8z"/>
	<path id="path3583" style="fill:none;stroke:#000000;stroke-width:2;stroke-miterlimit:10;" d="M495.6,314
		c-2.9,8,9.6,10.6-0.3,17.6c2.1-2.6,4.2-5.4,2.5-7.6C495.5,321.1,493.6,317.6,495.6,314z"/>
	<path id="path3585" style="fill:none;stroke:#000000;stroke-width:2;stroke-miterlimit:10;" d="M505.2,313.1
		c-5,4.9,2,11.1-5.2,13.6c3-2.8,3.1-1.4,2.9-5C502.5,318.7,502.5,315,505.2,313.1L505.2,313.1z"/>
	<path id="path3587" style="fill:none;stroke:#000000;stroke-width:2;stroke-miterlimit:10;" d="M531.4,320.5
		c-6.6,2.1-2.5,12.5-11.8,8.9c2.7,0.2,5.5,0.2,6.2-2.1C526.7,324,528.2,320.8,531.4,320.5z"/>
	<path id="path3589" style="fill:none;stroke:#000000;stroke-width:2;stroke-miterlimit:10;" d="M522.9,315.7
		c-5.4,1.6-2,9.7-9.6,6.9c2.2,0.2,4.5,0.2,5.1-1.6C519.1,318.5,520.3,316,522.9,315.7L522.9,315.7z"/>
</g>
</svg>
