<?xml version="1.0" encoding="utf-8"?>
<!-- Generator: Adobe Illustrator 17.0.0, SVG Export Plug-In . SVG Version: 6.00 Build 0)  -->
<!DOCTYPE svg PUBLIC "-//W3C//DTD SVG 1.1//EN" "http://www.w3.org/Graphics/SVG/1.1/DTD/svg11.dtd" [
	<!ENTITY ns_flows "http://ns.adobe.com/Flows/1.0/">
	<!ENTITY ns_extend "http://ns.adobe.com/Extensibility/1.0/">
	<!ENTITY ns_ai "http://ns.adobe.com/AdobeIllustrator/10.0/">
	<!ENTITY ns_graphs "http://ns.adobe.com/Graphs/1.0/">
]>
<svg version="1.1" id="Layer_1" xmlns:x="&ns_extend;" xmlns:i="&ns_ai;" xmlns:graph="&ns_graphs;"
	 xmlns="http://www.w3.org/2000/svg" xmlns:xlink="http://www.w3.org/1999/xlink" xmlns:a="http://ns.adobe.com/AdobeSVGViewerExtensions/3.0/"
	 x="0px" y="0px" width="256px" height="256px" viewBox="0 0 256 256" style="enable-background:new 0 0 256 256;"
	 xml:space="preserve">
<path style="fill:none;stroke:#000000;stroke-miterlimit:10;" d="M177.2,119.8c0,0-3,4.2-3.7,4.9c-1.5,1.5-4.4,2.3-4.4,2.3
	s-1.8,6.8-2.7,13.2c-0.5,3.7-0.6,7.1-0.7,8.8c-0.3,4.6,0.7,6.5,0.6,8.2c-0.2,1.7-0.3,9-0.3,11.1c0,2.1,0.3,6.6,0.4,8.2
	s0.6,5.8,1.4,7.4s1.7,3.7,1.8,4.1c0.1,0.4,0,1.6,0.2,1.9c0.3,0.4,1.4,1.3,1.4,1.6s-2.3,2.3-4.3,2.2c-2.1-0.1-3.3,0.4-4.3,0.1
	c-1.1-0.3-1-0.3-1.7-0.8s-1.9-2.4-1.9-2.6c0.1-0.2,0.2-3.7,0.2-5.6c0-1.8-0.3-6.6-0.6-8.4c-0.3-1.8-1.1-5.1-1.1-7c0-1.9-1.4-5-1.8-6
	s-0.9-7.2-1.3-10s-1.7-8.8-2.1-11.6c-0.3-2.8-2-8.6-2.6-9.3c-0.6-0.7-0.9-1.5-1.3-1.2c-0.3,0.3-7.8,11.8-8.4,12.9
	c-0.6,1.1-2.8,5.1-3.6,7s-3.5,8.7-4.2,9.8c-0.7,1.1-3.4,4.6-4.1,5.6c-0.6,1-3,6.1-3.5,6.9c-0.4,0.8-2.9,7.8-3.1,8.6
	c-0.2,0.8-0.6,2.3-0.4,2.6c0.2,0.3,2,4,2.1,4.8c0.1,0.7,0.1,2.2-0.4,2.4c-0.5,0.2-0.7,0.4-0.7,0.4s4.7,0.6-2.2,0.5s-7.6,0.5-8.7-0.9
	c-1-1.4-0.4-2.3,0-2.5c0.5-0.3,0.8-0.3,0.7-1.2c0-0.9-0.8-1.3,1.9-6.6s5.3-11.4,5.7-12.6c0.3-1.2,1.4-4.9,1.8-6.3
	c0.3-1.4,0-3.6,1.4-7.9c1.4-4.3,2.9-8.5,4.5-13.4c1.6-4.9,3.5-11.7,3.3-11.7s-8.8,2.7-13.7,2.4s-12.5-0.4-13.1-0.5
	c-0.6-0.1-0.3,0.3-7.6-2.2c-7.3-2.5-9.9-2.9-11.6-4.4c-1.7-1.5-6.8-6.4-7.1-6.4s-0.9,0.4-1.5,0.8c-0.6,0.4-2.8,2.4-3,2.9
	c-0.2,0.5-1.6,3.7-3.7,6.7c-2.1,2.9-4.8,7.5-5.3,8.2c-0.5,0.8-2.9,5.6-3,6.3c-0.1,0.7-1.5,4.1-1.6,6.1c-0.1,2,0,3.8,0.2,5.2
	c0.3,1.4,1.2,5.9,1,6.8c-0.2,0.9-0.8,3-1,3.6c-0.2,0.6-0.5,2.4-0.7,3.8s0.1,5.2,0.4,7.1s0.9,4.3,1.2,5.5c0.4,1.2,1.7,7.4,2.5,9
	c0.8,1.6,0.9,2.9,1.5,3.7c0.6,0.9,3.6,5,3.8,5.3c0.2,0.3,0.3,1.5-0.2,1.6c-0.5,0.1-1.9,0.7-4.9,0.6c-2.9,0-6.6-0.2-6.9-0.7
	c-0.3-0.5,0.9-1.4,0.2-2.3c-0.7-0.9-1.9-2.6-1.9-3.3c0-0.7-0.1-5-0.5-6.8c-0.4-1.8-1.2-6.2-2.1-9.5c-0.9-3.4-0.9-4.5-1.5-6.8
	c-0.6-2.3-1.3-3.7-1.3-3.7s-0.7,1.1-1.1,3.5c-0.3,2.3,0.2,7.6,0.3,8.3s0.5,6.4,0.5,8.5c0,2.1,0.1,4.7,0.2,5.4
	c0.1,0.7,0.5,2.6,0.8,2.9c0.3,0.3,2.2,3.5,2.3,4.3s-0.5,2.8-1.5,3c-1,0.2-7.1,0.8-8.8,0.3c-1.7-0.5-2-0.8-2.2-2.3
	c-0.2-1.4,0.6-1.9,0.2-2.3c-0.3-0.3-1.1-1.2-1.1-1.2s0.9-2.3,0.3-6.6c-0.6-4.3-1.6-14.7-2.2-18.2c-0.5-3.5-1-8.2-1.7-10
	c-0.6-1.7-1.6-3.1-1.6-4.5s-0.2-3,0.8-4.7c1-1.7,2.3-2.9,3.2-4.5c0.8-1.5,6.7-12.6,7-15.1c0.3-2.5-0.1-7.9-1.1-10.9
	c-0.9-2.9-2.4-6.6-5-12.1c-2.6-5.6-6.9-13.7-7.5-15.3c-0.6-1.6-1.6-6.4-1.6-6.4s-0.9,12.1,0.6,21.6c1.5,9.5,1.9,13.3,2.1,15
	c0.2,1.8,0.5,2.6,0.4,6.4c-0.1,3.7-0.6,5.9-0.1,8.3c0.5,2.5,1.5,7.6,2,8.4c0.5,0.8,0.9,1.8,0.4,1.2c-0.5-0.6-1.1-0.3-1.1,0.2
	c0,0.5,0.1,1.6-0.5,0.4c-0.6-1.2-3.1-5.9-3.2-6.1c-0.1-0.2-0.4-2-0.3,0c0.1,1.9,0.5,3.7,0.4,3.5c-0.1-0.2-2.7-6.7-2.7-5.2
	s0.4,3.6-0.1,1.8s-1.2-9.3-1.1-5.4c0.1,4,0.6,8.6-0.2,4.3c-0.8-4.3-1.7-6.3-1.6-11.4s0.4-7.9,0.4-7.9s0.5-0.6,0-0.3
	c-0.5,0.4-2.4,2.9-1.7,1.9c0.6-1,1.3-4.8,0.5-3.1c-0.8,1.7-5,7-3.4,5.3c1.6-1.7,3.1-6.7,2.6-5.9c-0.6,0.9-3.4,4.1-1.9,1.9
	c1.4-2.2,2.8-5.1,3.2-6.4c0.4-1.3,0.6-5.6,1-6.1c0.4-0.5,2.1-2.7,0.3-0.4c-1.8,2.3-2.6,5.2-2,3.1c0.6-2,1.2-4,1.2-4.4
	c0-0.4,0.9-2.4,0.1-1.3c-0.8,1.1-1.8,2.3-1.3,0.9c0.5-1.4,0-2.8-0.4-2.5c-0.4,0.3-1.1,1.3-0.5-0.4c0.6-1.7,3.9-6.1,3.1-5.6
	c-0.8,0.4-2.6,2.7-2.7,2.5c0-0.2,1.5-2.9,1.1-2.5c-0.4,0.4-2.1,2.3-1.7,1.6c0.3-0.7,0-1.5,1.1-2.6c1.1-1.1,1.8-2.4,0.2-0.8
	c-1.6,1.6-2.7,3.5-1.6,1.8c1-1.7,2.4-3.3,1.3-2.3c-1.1,1.1-2.8,2.6-1.9,1.3c0.9-1.2,2.9-3.6,2.5-3.4c-0.3,0.2,0.8-1.7-0.1-0.9
	c-0.9,0.8-2.5,1.5-2.5,1.5s0-0.6,0.5-1.1c0.5-0.5,1.2-2.2,1-2.1c-0.2,0.1-2.9,1.4-2.6,0.9c0.3-0.4,2.6-3.6,2.6-3.6s0.5-0.1-0.6,0.6
	c-1.1,0.7-1.9,0.9-1.2,0.2c0.6-0.7,1.7-2.6,2.5-3.7c0.8-1.1,2.9-2.6,2.9-2.6S24.8,88,24,88.3c-0.9,0.3,0.3-0.5,0.5-0.6
	c0.2-0.1-0.1-0.2-0.7-0.2c-0.6,0-0.6,0.4,0.8-0.9c1.3-1.3,3.2-2.7,1.3-1.7c-1.9,1-2.9,1.8-2.3,1.2c0.6-0.5,0.6-1.2,0.2-1
	c-0.4,0.2-0.7,0,0-0.2c0.7-0.3,1-1.2,1-1.2s0.9-0.3,0-0.1c-0.9,0.1-1.5,0-0.9-0.1c0.5-0.1,1.4-0.7,1.2-0.6c-0.2,0-1,0.1-0.6-0.2
	c0.4-0.3,2.5-0.9,2.7-1.4c0.2-0.4,2.7-7.9,5.5-11.3c2.8-3.3,5.9-6.5,9.3-8.3c3.4-1.9,9-4,11.8-4.7c2.8-0.7,9.6-2,12.3-2
	c2.6,0,5.7-0.2,10.6,0.5c4.9,0.7,8.2,1.6,9.6,1.6c1.5,0,2-0.3,6.4,0.6s5.9,1.2,11.5,2c5.6,0.7,8.2,0.9,9.3,1.2
	c1.2,0.3,1.7,0.8,4.5,0.9c2.7,0.1,7.5,0,9.9,0s4.7-0.2,7.1-0.3c2.4-0.1,6.1-0.3,8-0.3c1.9,0,2.6-0.2,4.7-0.2c2.1,0,5.6,1.1,6.7,1.5
	s1.9,0.7,1.6,0.5c-0.2-0.3-0.2-1.6,0.3-1c0.6,0.6,0.9,0.7,0.9,0.2c0-0.6-0.5-1.4,0.5-0.2c0.9,1.2,0.5,0.7,1.1,0.8
	c0.6,0,0.2-0.5,0.7-0.1c0.5,0.4,0.9,1,1.1,2c0.2,1-0.3,1.7,0.3,1.2s0.3-0.6,0.6-0.2c0.3,0.4,0.3,0.5,0.7,0.8c0.4,0.3,3,2.6,3,2.6
	s2.9-2.7,3.4-2.8c0.6-0.1,3.5-1.3,3.5-1.3s-0.1,0.5,0.5,0.6c0.6,0,1.3,0,1.3,0.3c0,0.4-0.6,0.6-0.1,0.5c0.6,0,2.4-0.2,2.4-0.2
	s0.9-1,1.2-0.7s0.8,0.3,1.2,0.2c0.4-0.2,0.6-0.4,1,0c0.4,0.4,0.9,1.2,0.9,1.2s0.4-0.9,0.5-0.6c0.1,0.3,1,4.4,1.1,4.7
	c0.1,0.3-1,5-1,5s1.1-0.6,1.3-1.6c0.2-0.9,0.7-3.5,0.6-1.8c-0.1,1.6-1.5,5.1-1.2,4.9c0.2-0.2,1.4,0.2,1.8-1.8c0.3-2,1.7-6.9,1.9-7
	c0.2-0.2,0.4-0.9,0.8,1.1c0.4,1.9,1,2.6,1.2,3.4c0.2,0.7,0.3,2.8,0.6,1.9c0.3-0.9,0.4-1.3,0.8-2.2s1.8-1.3,1.8-0.6
	c0,0.7-1.1,5.7-0.8,4.7c0.3-0.9,2.1-3.5,2.3-3.2c0.3,0.3,0.5,0.6,0.2,1.6c-0.3,1,0.8-0.8,1-0.9c0.3-0.1,1.1-0.4,1-0.2
	c0,0.2-0.6,2.5-0.4,2.3c0.1-0.2,1.8-2.4,2.1-2c0.3,0.4-0.6,2.5-0.6,2.5l0.5,0.2c0,0,0,2.4,0.2,2.1c0.2-0.3,0.4-1.6,0.4-0.5
	c0,1.1,0.2,2.4,0.2,3.2s-0.1,3,0,2.3c0-0.7,0.6-1.8,0.6-0.5s-0.4,2.8,0.1,1.6c0.5-1.1,0.8-2.3,0.9-2.1c0.1,0.3,0.6,2.4,0.7,2.9
	c0,0.5-0.5,1.3,0,0.7c0.5-0.6,1.4-2.3,1.4-1.9c0,0.4-0.5,2.6,0,1.9c0.5-0.7,0.3-1.4,0.9-1.6s1.1-0.8,1-0.3c-0.1,0.4-0.3,0.8,0,0.6
	c0.3-0.3,0.6,0.2,0.6,0.4c0,0.2-0.3,0.8,0,0.5c0.3-0.3,0.8-0.7,0.9,0.7s-0.3,2.9,0.2,2.6c0.4-0.3,0.5-1,0.9-0.6
	c0.4,0.4,1.1,0.2,1.5-0.1c0.4-0.3,1.5-0.3,0.9,0.7c-0.6,0.9-0.6,1.2,0.1,2.1c0.7,0.9,0.8,1,1.1,0.4c0.3-0.6,1.5-0.8,1.3-0.4
	c-0.2,0.4-0.6,1.4-0.2,0.9c0.4-0.5,1.1-0.5,1-0.1c-0.1,0.4-1.2,0.1-0.1,0.4c1.1,0.3,1.6,0.6,1.1,1.5c-0.5,0.9-1.3,1.2-0.5,0.9
	c0.8-0.3,1.2-1.1,1.1,0.7c-0.1,1.8,0.1,2.8,0.2,3.3c0.1,0.5,0.7,0.8,1.2,1.2c0.5,0.3,1.5,1.4,1.9,1.9c0.3,0.5,0.7,1.3,1.2,1.9
	c0.5,0.6,1.2,1.1,1.1,1.3c-0.1,0.3-0.3,1.2,0,1.1s1-0.4,0.7-0.1s-0.8,0.9-0.3,0.7c0.5-0.2,1,0,0.9,0.2s-0.5,0.4-0.3,0.8
	c0.2,0.4,1,1.7,1.1,1.5c0.1-0.3,1.1-0.7,0.8-0.3c-0.3,0.5-0.6,0.6-0.3,0.6c0.4,0,1-0.3,0.9,0.3c-0.1,0.6-0.4,1.1,0.1,0.7
	c0.5-0.4,1-0.6,1-0.2c0,0.4,0.6,0.5,0.9,1.2c0.3,0.7,0.9,1.5,1.2,1.9c0.3,0.4,0.6,0.7,1.1,0.9c0.4,0.2,1.4,0.8,1.6,1.5
	c0.2,0.8-0.1,2,0.2,2.5c0.2,0.4,0.6,3.4,0.8,2.3c0.2-1,1.8-4.5,2.1-5c0.3-0.6,1.6-2.2,2.4-2c0.8,0.2,1.1-0.1,2,1.7
	c0.9,1.8,1.5,3.8,1.5,4.4s-0.2,2.1-0.8,3.2c-0.3,0.6-1.1,1.9-1.8,2.9c-0.6,0.9-0.9,1.7-1.4,1.9c-0.5,0.2,0.2,1.3-0.3,1.3
	c-1.2,0.1,1.1,0.5,1.2,0.6c0.1,0.1-0.6,0.6-0.6,0.6s0.7,0.3,0.4,0.6c-0.5,0.6-1.1,0.1-0.5,0.6c0.8,0.7,0.4,0.6,0.4,0.9
	c0,0.3-0.4,0.6,0,0.9c0.4,0.3,1.1,0.8,0.5,1c-0.3,0.2-0.9-0.6-0.7,0.5c0.2,1.2,0.6,2.3,0.9,2.9c0.3,0.6,0.5,2.3,1.2,3.3
	c0.7,1,1.6,3.5,2.3,4.5c0.7,0.9,0.8,1.9,0.6,3.1c-0.2,1.2-0.4,2.2-0.7,3c-0.3,0.8-0.3,3.9-0.5,5.4c-0.2,1.4-0.7,2,0,3.7
	c0.7,1.7,3.6,12,3.9,13.1c0.3,1.1,0.8,3.9,0.9,4.6c0,0.6-0.2,0.8-0.2,1.9c0,1.1-0.4,3-0.6,3.9c-0.2,0.9-0.4,2.5-1.1,3.5
	c-0.7,0.9-1.5,2.4-3.2,2.3c-1.7-0.1-3.5-1.2-3.5-1.2s0.9,0.6,0,0.4c-0.9-0.2-2.9-1.6-3.2-2.3c-0.3-0.8-0.9-1.7-1.8-2.6
	c-0.8-0.9-2.6-2.3-3.6-3.4c-0.9-1-1-2-1.9-2.9c-0.9-0.8-1.3-0.9-2.6-2.1c-1.3-1.2-3.6-4.3-4.2-5.4c-0.6-1-0.6-1.9-1.5-2
	c-0.9-0.2-1.6-0.2-2.9-1.2c-1.3-1-2.8-1.4-4.8-6.4c-2-5-1-6-1.2-9.5c-0.3-3.6-0.8-6.3-1.5-8c-1.1-2.5-4.3-6.1-7.1-8.9
	c-1.9-1.9-4.5-5.1-5.4-6.1c-0.9-0.9-3.1-2.7-4.2-3.6c-1-0.9-3.1-2.6-4.7-3.6c-1.6-1-3-1.5-3.8-1.8
	C178.2,120.1,177.2,119.8,177.2,119.8L177.2,119.8z"/>
<path d="M36.4,65.8c0,0-2.3,2.9-3.7,6.6c0,0,0.4-2.2,1.1-3.3C34.5,67.8,35.5,66.3,36.4,65.8L36.4,65.8z"/>
<path d="M36.5,74.5c-0.1,0.3-2,5.3-2.2,6.2C33.4,85,33.9,92,34.6,96.1c0.7,4.1,0.8,4.4,0.7,4.1c-0.1-0.3-2.2-6.7-2.3-8.4
	c-0.1-1.7-1.2-7.3-1.2-7.3S30,88,29.8,89.1c-0.1,1.1-0.9,3.8-0.9,6.5c0.1,2.7-0.3,2.9-0.3,6.6s0.9,10.7,0.9,10.7s0.9,7.1,1.1,8.4
	c0.2,1.3,0.9,5.3,1,7.9c-0.4-2.9-1.8-9.9-2.3-13c-0.5-3-1.6-9-1.7-13.9c-0.1-5-0.3-8.1,0.7-12.5c0.8-3.3,2.2-5.7,2.9-6.9
	c0.8-1.2,2.1-4,2.9-4.7C35.1,77.6,36.5,74.5,36.5,74.5L36.5,74.5z"/>
<path d="M35.7,71.4c0.1,0.2,0.4,0.8,0.3,1.2c-0.1,0.4-0.3,0.8-0.2,1.5c0,0.6,0.2,1.1,0.2,1.1s-1-1-1-1.7c0-0.6,0.3-1.4,0.5-1.7
	C35.7,71.5,35.7,71.4,35.7,71.4L35.7,71.4z"/>
<path d="M34.1,77.9C33.4,78,33,75.9,33,75.9c-0.3,0-0.6,0.1-0.6,0.4c0,0.3,0.4,1.2,0.8,1.6c0.4,0.4,0.7,0.5,0.7,0.5L34.1,77.9z"/>
<path d="M29.6,80.6c0,0,0.7-0.6,0.9-0.5c0.2,0.1,0.8,0.6,0.8,0.9s0.3,1.4,0,1.1C31,81.8,30.1,81.7,29.6,80.6z"/>
<path d="M27.8,84.1c0.3,0.3,1.5,1,1.5,1s0,0-0.2,0.3s-0.6,0.9-1,0.6c-0.4-0.3-1-1-0.9-1.3C27.3,84.4,27.8,84.1,27.8,84.1L27.8,84.1z
	"/>
<path d="M27.9,88.7c-0.5,0.3-1.5,1.4-1.9,1.7c-0.4,0.3-1,0.6-0.6,0.6c0.5,0,1.9-0.6,2.2-1.2C27.9,89.2,27.9,88.7,27.9,88.7
	L27.9,88.7z"/>
<path d="M27.3,92.8c-0.3-0.2-2.9,0.8-2.9,1.2c0,0.5,0.6,1.2,0.8,0.9C25.4,94.6,27.3,92.8,27.3,92.8L27.3,92.8z"/>
<path d="M26.8,96c-0.6,0.6-2,1.6-2,1.9c0,0.3,0.4,0.6,1-0.1c0.6-0.7,1.4-1.2,1.3-1.4C27,96.2,26.8,96,26.8,96L26.8,96z"/>
<path d="M26.9,99.2c0.6,0.9,1.4,0.9,0.6,1.2c-0.8,0.4-2.7,2-2.6,1.6C25.1,101.7,26.9,99.2,26.9,99.2L26.9,99.2z"/>
<path d="M27.5,103.4c-0.1,0.3-0.6,1.4-0.6,1.4s0.7-0.4,0.7-0.8C27.5,103.6,27.5,103.4,27.5,103.4L27.5,103.4z"/>
<path d="M26.7,102.9c-0.3,0.5-2.4,2.8-2.2,2.9c0.2,0,2.1-1.3,2.2-1.9C26.8,103.4,26.7,102.9,26.7,102.9L26.7,102.9z"/>
<path d="M27.1,105.5c-0.4,0.6-1.6,2.3-1.6,2.4c0,0.1-0.5,0.1-0.3-0.5S27.1,105.5,27.1,105.5L27.1,105.5z"/>
<path d="M27,106.9c0.1,0.4,0.5,1.2,0.2,1.8c-0.3,0.6-1.7,1.5-1.5,0.5c0.3-1,0.6-1.3,0.9-1.7C26.8,107.1,27,106.9,27,106.9L27,106.9z
	"/>
<path d="M27.4,110.3c-0.3,0.9-0.6,2.7-0.4,3.5c0.2,0.8,0.5,3.1,0.5,3.9c0,0.8,0.3,0.3-0.1,2.3c-0.5,2.1-0.8,4.9-0.4,3.7
	c0.4-1.2,1-4.3,1.1-4.9s-0.3-3.4-0.3-4.8c0-1.3-0.5-1-0.2-2.2C27.8,110.7,27.4,110.3,27.4,110.3L27.4,110.3z"/>
<path d="M28.5,120.7c0.3,1.3,1.3,5.4,1.3,5.4s-0.2,1.4-0.8-0.5S28.5,120.7,28.5,120.7L28.5,120.7z"/>
<path d="M28.2,115.5c0.1,0.8,0.1,1.8,0.3,2.7s1.2,2.3,1,1.1c-0.2-1.2-0.5-2.4-0.6-3.3c-0.1-0.9-0.3-1.6-0.4-1.1
	C28.5,115.3,28.2,115.5,28.2,115.5L28.2,115.5z"/>
<path d="M26.5,124.3c-0.2,0.6-0.6,2-0.6,2.6c0,0.6,0,1.2,0,1.9c0,0.6,0.1,3.2,0.1,3.5s0.3,0.3,0.2-0.9c0-1.2,0-2.9,0.3-3.4
	c0.3-0.5,0.3-1.5,0.3-2.1l-0.1-1.3L26.5,124.3z"/>
<path d="M24.7,126.5c-0.2,1.1-0.3,5.4-0.3,6.1c0,0.7,0.2,1.8,0.3,0c0-1.8,0.3-5.2,0.3-5.7C25,126.2,24.7,126.5,24.7,126.5
	L24.7,126.5z"/>
<path d="M26.5,129.9c0.1,1.5,0.3,3.3,0.6,4.6c0.2,1.2,0.4,2.1,0.5,0.4c0.1-1.7-0.3-3.1-0.4-4.4c-0.1-1.3-0.3-2.4-0.3-2
	C26.7,128.7,26.5,129.9,26.5,129.9L26.5,129.9z"/>
<path d="M27.7,123.7c0.3,0.6-0.1,0.9,0.1,1.3C28.1,125.5,27.7,123.7,27.7,123.7z"/>
<path d="M28.6,125.7c0,0.9,0.8,3.1,0.9,4.3c0.1,1.2,0.7,2.6,0.7,2.9c0,0.3-0.6-3.6-0.7-4.9C29.2,126.8,28.6,125.7,28.6,125.7
	L28.6,125.7z"/>
<path d="M27.7,125.9c-0.2,1.2,0.2,4,0.7,4.8c0.5,0.9,0.8,2.3,0.8,2.4c0,0.1,0,1.2,0,0s-0.4-1.9-0.6-3.8
	C28.3,127.3,27.7,125.9,27.7,125.9L27.7,125.9z"/>
<path d="M30.4,127.1c0.2,0.7,0.3,1.8,0.3,3.5s0.1,3.3,0.3,1.8C31.3,130.9,30.4,127.1,30.4,127.1L30.4,127.1z"/>
<path d="M30.1,134.1c0,0.4,0.2,2.9,0.6,3.6s0.6,1.6,0.4,2.6c-0.3,1,0,2.4,0,2c0-0.3,0.4-4.4,0.1-5.7c-0.3-1.3-1.5-2.9-1.5-2.9
	S29,134,29,135.4s0.9,3.3,0.9,3.3s-0.2-1.5-0.3-1.9C29.6,136.3,30.1,134.1,30.1,134.1L30.1,134.1z"/>
<path d="M26.9,137.8c0.3,0.8,0.3,2.6,0.9,4.4s0.9,3.7,0.2,2.5c-0.7-1.2-1.3-5.4-1.2-6C27,138.2,26.9,137.8,26.9,137.8L26.9,137.8z"
	/>
<path d="M25.3,131.5c-0.1,1.5-0.6,4.7-0.6,5s0.6,0.5,0.5-0.9C25.1,134,25.3,131.5,25.3,131.5L25.3,131.5z"/>
<path d="M27.7,136.6c0.3,1.6,1.6,4.7,1.2,3.6c-0.3-1-1-4.5-1-4.1C27.9,136.5,27.7,136.6,27.7,136.6L27.7,136.6z"/>
<path d="M29.5,142.1c1,1.9,2.7,6,2.8,6.5c0.1,0.5,0.4,1.7-0.9-0.8C30.2,145.2,29.5,142.1,29.5,142.1L29.5,142.1z"/>
<path d="M28.3,79.8c0.1-0.2,6.2-10.1,10.3-14.2c5.7-5.7,13.3-7.4,16.6-8.5c3.3-1.1,8.3-1.5,10.5-1.7C67.8,55.2,69,55,69,55
	s-5.1,0.6-7.6,1.1c-2.5,0.4-4.6,1.1-5.9,1.4c-1.3,0.3-11.8,3.6-16.1,7.9c-1.3,1.3-5.2,5.7-7.2,8.8c-0.9,1.4-2.2,3.6-2.9,4.4
	C28.6,79.5,28.3,79.8,28.3,79.8L28.3,79.8z"/>
<path d="M36.3,76.4c0,0,4.6-2.4,7-2.3c2.3,0.2,4.5,1.1,7.3,0.8c2.8-0.3,3.7-0.3,7.2,0.7c3.5,1,1.4,0.2,6.8,1.4
	c5.4,1.2,9.7,4.3,11,4.9c1.3,0.6,2.1,0.5,4.6,3.1c2.5,2.6,3.8,4.2,5.4,7c1.6,2.9,4.3,7.5,5,9.1s0.3,1.4,1.7,2.6
	c1.4,1.2,2.9,2.4,3.3,3.9c0.3,1.5,0.4,2.1-0.3,4c-0.7,1.9-1.5,4.3-1.9,5.6c-0.4,1.3-0.6,2-0.8,3c-0.2,1-0.9,2.7-1.9,3
	c-0.9,0.3-2.7,1.1-2.7,1.1s2.7-1.8,3.3-3.3c0.5-1.5,0.6-4.7,0.9-5.2c0.3-0.5,0.9,0.1,0.6-1.6c-0.3-1.6,0.4-2.1,0.7-3.3
	c0.3-1.2,1.7-2.5-0.8-4.9c-2.5-2.3-3.7-2.8-4.7-5c-0.9-2.2-4.4-6.4-6.9-9.1c-2.4-2.7-8.9-7.6-12-9.1s-5.9-2.3-8.9-3.3
	c-3-0.9-3.8-1.5-6-1.9c-2.2-0.4-2.5-0.5-4.3-0.5s-2.8,0.7-4.9-0.4s-4-1.6-5.2-1.6c-1.2,0.1-1.9,0.8-2.8,1
	C36.3,76.6,36.3,76.4,36.3,76.4L36.3,76.4z"/>
<path d="M89.5,107c-0.5,0-1.7,0.4-1.7,0.9s0.3,1.6-0.2,2.2c-0.4,0.5-2,0.9-2.7,1.3c-0.7,0.4-2.9,2.8-2.9,2.8s-1.1,0.4,0.3,0.1
	c1.4-0.3,3.6-0.7,4.1-1.6c0.4-0.9,0.1-0.9,1.4-1.6c1.3-0.7,2-0.4,1.8-1.4C89.4,108.7,89.5,107,89.5,107L89.5,107z"/>
<path d="M89,115.9c-0.3,0.1-2.2,0.2-4.2,0.3c-2,0.1-3.2-0.2-3.2-0.2s3.8,1.2,4.8,1.1C87.3,117,89,115.9,89,115.9L89,115.9z"/>
<path d="M78.4,118.3l-1,0.5c0,0,0-0.3,0.7,0.5c0.7,0.8,4.1,4.3,7,6.1c2.7,1.6,13.8,5.4,16,5.6c2.3,0.2,5.6,0.4,5.6,0.4
	s0.1,0-1.3-0.5c-1.4-0.4-3.9,0.1-5.9-0.6c-2-0.7-6.4-2-7.9-2.4c-1.5-0.3-3.9-2.3-5-3.1C81.7,121.8,78.4,118.3,78.4,118.3L78.4,118.3
	z"/>
<path d="M82.4,112.8c0.6-0.5,1.8-2.4,2.1-3.3s1-2.1,1.4-3.2c0.3-1.1-0.1-5.2-1.7-7c-1.6-1.7-5.5-5.3-9.6-7.4
	c-4.2-2.1-13.1-5.8-16.1-6.4C55.5,85,48,83.1,46,82.5c-1.9-0.6-5-1.3-6.9-1.8s-4.1-0.5-4.1-0.5s0-0.9-0.1,0c1.6,2.7,5.2,2,8.2,4
	c3.4,1.2,11.3,4.2,13.8,5.1c2.5,0.9,9.7,3.2,11.2,4.5c1.5,1.3,6.7,2.9,8.4,4.1c4.3,3.2,7,7.1,7.2,11.4
	C84,110.2,82.4,112.8,82.4,112.8L82.4,112.8z"/>
<path d="M34.4,89.7c0.6-0.3,2.3-0.9,3.6-1.3c1.3-0.4,1.8-0.4,2.9,0.7c1.1,1.1,3.2,0.9,4.7,1.5c1.5,0.5,4.4,1.2,6.2,1.4
	c1.7,0.2,3.8,1.5,6.2,1.6c2.3,0.2,3.6,0.7,5,1.3c1.3,0.6,3.9,2.3,6.3,2.5s4.3,1.1,5.5,2c1.2,0.9,5.6,3.6,6.4,4.6
	c0.9,1,2.1,2.1,2.2,3.2c0.1,1.1-0.4,4.2-0.4,4.2s0.2-2-0.3-3.3c-0.5-1.3-2-3.2-4.1-4.3c-2.1-1.1-5.8-3.2-8.9-3.7
	c-3.1-0.5-7.3-2.2-8.2-2.7c-0.9-0.5-2.1-0.3-3.7-0.9c-1.6-0.7-4.3-1.4-6-2c-1.7-0.6-7-2.3-8.3-3.1c-1.3-0.8-4.8-1.5-5.5-1.5
	C36.9,89.7,34.4,89.7,34.4,89.7L34.4,89.7z"/>
<path d="M35.9,97c0.4-0.3,5.1-1.6,6.5-1.6c1.4,0.1,5.6,0.9,7.5,1.4s5.3,0.1,6.7,0.9c1.4,0.8,4.3,2,6.6,2.3c2.3,0.3,4.8,1.6,2.9,0.9
	c-2.9-0.9-6-0.7-8.3-1.3c-2.3-0.6-8.7-2.3-9.5-2.5c-0.8-0.2-4-0.6-6.4-0.6C39.5,96.6,35.9,97,35.9,97L35.9,97z"/>
<path d="M74.4,120.2c1.2-0.8,2.7-1.5,3.4-2.8c0.2-1.4-0.2-3.3-2-3.1c-1.5,0.1-2.8-1-4.2-1c-0.9,0.9-1.1-1.6-1.1-2.1
	c1.6,0.5,3.2,1.1,4.9,1.2c1.3,0.3,3.2,0.3,3.8,1.8c0.2,0.8-1.2,2.7,0.2,1.3c1.2-1.6-0.6-3.4-1.8-4.4c-1.7-1.2-4-0.9-5.7-2
	c-1.3-0.2-2.7,0.4-4-0.3c-2-0.8-4.2-1.3-6.4-1c-1.9,0.1-3.9,0.4-5.8,0.5c-1.9-0.2-3.7-0.9-5.7-0.9c-1-0.9-2.3-1.5-3.5-2
	c-1-0.6-2.4-0.1-3.6-0.4c-1.1,0.1-3-0.3-3.5,0.1c0.8,1.5,2.7,0.3,4,0.8c1.6,0.1,3.3,0.2,4.6,1.3c2.8,2.6,6.4,3.2,10.2,3.1
	c1.7,0.1,3.6-0.2,5.2,0.6c1.4,0.4,3.1,1.2,4.5,0.4c1.3-0.8,2.6,2.6,1.2,2.8c-3.7,0.2-7.4,0.1-11.2,0.2c-1.6,0.1-3.2-0.3-4.8-0.5
	c-2.6-0.1-5.2,0.5-7.8,0.2c-1,0.3-2.5-0.8-3-0.3c-0.8,1.1,1.8,1.2,2.6,1.4c3.3,0.3,6.8,0,10.1,0.8c2.3,0.5,4.6,0.7,6.9,1
	c1.9,0.5,3.9,0.6,5.7,0c1.8-0.6,3.7-0.6,5.5-0.1c1,0.4,3.8,0.2,2.9,1.9C75.5,119.2,74.9,119.7,74.4,120.2L74.4,120.2z"/>
<path d="M36.3,100.3c0.9-0.3,2-0.6,4-0.6c2,0,3.6-0.3,7.4,0.6s11.4,1.6,13,1.9c1.6,0.3,8.6,0.3,10.8,1.3c2.2,0.9,4.1,1.8,5.2,2.3
	c1.1,0.4,3.8,1.9,4.4,2.9c0.6,0.9,1.4,2.8,1,3.5c-0.3,0.7-2.3,3.6-2.3,3.6s1.1-2,1.2-2.8c0.1-0.8-1.8-3.1-2.5-3.5
	c-0.7-0.3-5-1.6-7-2.3s-4.1-1.5-6.4-1.6c-2.3-0.2-9.3-0.9-11.3-1.6c-2-0.6-9.6-2.7-10.3-2.8c-0.7-0.1-4.4-0.3-5.4-0.3
	c-0.9,0.1-1.7,0.3-1.7,0.3L36.3,100.3z"/>
<path d="M37.1,73.6c0,0,1.9-2.7,2.9-3.7c0.9-1,3.6-2.2,6.1-1.8c2.4,0.3,5.7,0.3,6.4,0.5c0.8,0.2,6.3,0.4,8.2,1.6
	c2,1.2,7.5,2.5,10.1,4.1c2.6,1.6,6.7,3.2,8.3,4.9s1.3,1.5,2.6,2.3c1.3,0.8,4.8,6.4,5.6,7.9c0.8,1.6,2.1,4.2,2.5,5.7
	c0.4,1.5,3.9,4.9,4.7,6.1c0.8,1.2,5.1,3.1,6.4,7.2c1.2,4.1,0.9,11.4,0.6,12.4c-0.3,1-3,5.1-3.5,5.7c-0.4,0.6-2,3-2,3
	s1.9,0.9,2.1,0.6c0.2-0.3,4.5-8.2,5-9.6s2.5-3.1,2.8-6.4c0.3-3.2,0.8-6,0.4-7.8c-0.3-1.8-1-3.9-0.9-5.1c0.2-1.2,1.6-2.6,1.2-3.5
	c-0.3-0.9-3.6-8.3-5.7-11.6c-2.1-3.2-5.6-5.7-6.8-7.5c-1.2-1.7-5.6-8.4-7.2-10c-1.6-1.6-5.1-2.3-6.7-3.2c-1.6-0.9-5.3-2.3-6.8-2.3
	c-1.5-0.1-4.8-0.8-6.7-0.9c-1.9-0.1-5-0.8-6.4-0.8c-1.3,0-2.8,0-4.7,0.2c-1.9,0.2-2.6,0.7-2.6,0.7s2.6,0,4.9-0.1
	c2.3-0.1,6-0.3,8,0.7c2,0.9,5.3,1.6,7.9,2.6c2.6,1,5.3,1.9,6.7,2.8c1.4,0.9,4.4,2.2,6,4.1c1.6,1.9,3.9,6.8,5.2,8.3
	c1.3,1.6,4.3,4.1,5.6,6.4c1.2,2.3,3.3,7.9,4.6,9.5c1.3,1.6,2.5,3.1,2.4,3.8s-1,2.6-1.4,2.5c-0.3-0.1-4.3-3.4-5.8-4.9
	C95.6,96.5,93.3,94,93,92c-0.3-2-3.6-9.8-5.6-12.3c-2-2.4-4.2-5.7-6.3-7.1c-2.1-1.4-5.1-2.8-9.5-4.6c-4.3-1.8-11.9-3.4-13.2-3.4
	c-1.3,0-8-0.1-8.8,0.3c-0.9,0.3-4.6,2.4-5.3,2.3c-0.7-0.1-2.9-1.2-0.1-2.4c2.8-1.2,4.6-2.3,6-2.8c1.4-0.5,4.3-1.3,5.6-1.6
	c1.3-0.3,2.7-1.4,4.8-0.8c2.1,0.6,4.2,1.3,6.7,1.3c2.5,0,3.8-0.6,6.4,0c2.6,0.6,8.1,2.3,8.8,2.8c0.8,0.4,3.9,1.1,5.7,2.9
	s3.5,3.6,5.3,6.2c1.8,2.5,6.8,5.7,8.1,6.9c1.3,1.2,4.1,4.8,4.8,6.2c0.7,1.4,1.6,3.6,2.7,5.6c1,2,1.5,6.5,2.6,8.1
	c1.1,1.6,2.8,9.2,2.1,13.6c-0.7,4.3-2,8.8-3.2,10.5c-1.2,1.6-4.4,6.5-4.7,7.1c-0.3,0.6-0.3,0.9,0.5,0.9s0.7,0.2,2.1-1.9
	c1.4-2.1,8.2-13.6,8.8-15.4c0.6-1.8,1.5-12.2,0.3-14.7c-1.2-2.5-2.1-8-3.9-11.4c-1.8-3.4-5-7.2-7.8-10.9c-2.4-3-4.6-2.6-7.3-5.1
	c-2.7-2.5-5.6-6.9-9.3-8.8c-3.6-1.9-10.5-5.1-11.8-5.3c-1.3-0.2-6.1-0.8-6.8-0.5c-0.7,0.3-5.5,0.7-6.2,0.5c-0.7-0.2-0.3-1.6-1.6-1.6
	c-1.3,0-3.6,1-4.1,1.3s-7.4,2.3-8.8,2.9c-1.5,0.6-6.7,4.3-7.5,4.9c-0.8,0.5-3.2,4.5-3.7,5C38.3,71,37.1,73.6,37.1,73.6L37.1,73.6z"
	/>
<path d="M107.6,91.9c0.3,0.6,2.1,2.8,2.2,5.4c0.1,2.6,0.9,4.3,1.4,8.5c0.5,4.2,0.1,9.4-0.9,11.2c-1,1.8-4.1,5.9-4.1,5.9
	s0.5-1.7,1.7-4.3s1.3-8.1,1.5-9.4c0.2-1.3,0.8-5.7,0.2-7c-0.6-1.2-2.1-2.4-1.8-3.2s0.7-3.8,0.5-4.6
	C108.1,93.7,107.6,91.9,107.6,91.9L107.6,91.9z"/>
<path d="M44.3,131.9l0.1,1c1.1-0.4,1.9,0.7,2.8,0.8c1.2,0.1,2.2,0.1,3.3,0.5c1.1,0.4,5.2,1.3,6.3,1.7c1.2,0.4,2,0.4,3.6,0.9
	c1.6,0.5,2,0.6,2.4,1s0.2,0.7,0.2,0.7l0.5-1.1c0,0-0.7-1.2-1.3-1.7c-0.6-0.5-3-1.6-4.6-1.8s-5-1.3-6.3-1.3c-1.3-0.1-3.4-0.3-4.8-0.6
	c-1.4-0.3-2.4-0.8-2.4-0.8L44.3,131.9z"/>
<path d="M43,139.7l-0.7,1.9c0,0,0.9,0.7,1.7,0.8c0.8,0.1,1.6,0.1,2.6,0.2c1.1,0.2,4.3,0.5,5.5,1c1.2,0.5,4.6,1.9,5.5,1.8
	c0.9-0.1,2.6-0.4,2.6-0.4l0.9-1.5c0,0-1.2-0.6-2-0.9s-0.4-0.2-2-0.3c-1.7-0.1-3.1-0.5-3.7-0.9c-0.7-0.4-0.4,0-1.9-0.4
	c-1.5-0.4-2.6-0.4-4.2-0.9c-1.6-0.4-1.6-0.5-2.3-0.5C44,139.7,43,139.7,43,139.7L43,139.7z"/>
<path d="M48.8,127.8c0,0,1.7,0.3,3.1,0.5c1.3,0.2,3.4,0.3,4.3,0.8c1,0.5,2.9,1.3,3.7,1.4c0.8,0.1,2.8-0.1,3.4,0
	c0.6,0.1,1.3,0.2,2,0.9c0.6,0.6,1.5,1.5,1.5,1.5l-0.7,1c0,0-1.6-1.7-2.2-1.9c-0.5-0.2-0.7-0.2-1.2-0.2s-1.9-0.7-2-0.2
	c-0.2,0.5-1.3,0.2-1.8,0c-0.4-0.2-2.6-0.7-3.4-1.2c-0.9-0.5-2.6-1.6-3.9-1.6C50.3,128.7,48.8,127.8,48.8,127.8L48.8,127.8z"/>
<path d="M43.4,123.1c0,0-0.4,0.2,0.9,0c1.3-0.2,2-0.7,3.5-0.4c1.5,0.2,6.1,1.4,7.9,2c1.8,0.5,5.5,1.3,7,1.7c1.6,0.3,3.2-0.1,4.2,0.7
	c1,0.8,1.9,1.9,1.9,1.9l-0.5,0.9c0,0-1-1-1.9-1.3c-0.9-0.2-3.2-0.2-4.5-0.3c-1.3-0.1-6-1.6-6.6-1.8c-0.6-0.2-4.8-1.3-5.1-1.5
	c-0.3-0.1-3.1-1.3-3.7-1.3c-0.6,0-1,0.5-1.4,0.7c-0.4,0.2-1.7-0.3-1.7-0.3L43.4,123.1z"/>
<path d="M57.7,117.2c0.9,0.4,3.9,0.9,5.7,0.9c1.7,0,3.8-0.4,4.7,0c0.9,0.4,2.2,0.8,2.8,0.8s2.4,0.4,2.4-0.1c0-0.5-0.7-1.9-0.7-1.9
	s1,1.1,1.5,1.3s1,0.5,0.8,0.9c-0.2,0.4-1.1,1.4-1.3,1.9c-0.2,0.4-0.7,1-0.7,0.2s0.4-1.6,0.1-1.7c-0.2-0.1-0.7-0.4-0.8,0.2
	c-0.1,0.6,0.1,1.2-0.2,1.6c-0.2,0.3-0.4-0.1-0.4,0.8c0,0.9,0.2,1.6,0.1,1.8c-0.1,0.2-1.3,2.3-1.3,2.3s0.1-0.4-0.1-1s0.1-1.7-0.4-2
	c-0.4-0.4-0.6-0.7-1.6-0.4c-1,0.2-3.6,0.3-3.2,0.8c0.4,0.5-0.2,1,1.6,0.6c1.7-0.4,2.3-0.4,2.3,0.4c0.1,0.8-0.4,1.7-1,1.2
	c-0.6-0.5-1.9-0.7-2.5-1.2c-0.7-0.4-0.3-0.9-1.1-1.1c-0.8-0.2-4.5-1.4-4.7-1.7c-0.2-0.2-0.4-0.7-1.6-0.7c-1.2,0-4.5-1.6-5.4-1.7
	c-0.9-0.1-3.4-0.5-5.4-0.5s-3.6-0.4-3.6-0.4s3.6-0.4,5.3-0.4c1.7,0,4.3,0.2,6.1,0.5c1.7,0.2,2.7,0.9,4.1,1.2s2.6,1.5,4,1.5
	c1.5,0,5.7,0.4,6.2,0.2c0.5-0.1,1.9-0.1,2-0.5c0.1-0.4,0.2-1-0.4-1c-0.6,0-3.2-0.2-3.6-0.4s-2.1-0.9-2.5-0.9c-0.4,0-3.1-0.4-3.9-0.5
	C60.3,118.1,57.7,117.2,57.7,117.2L57.7,117.2z"/>
<path d="M40.4,149.5l-1.9-0.6L40,147c0,0,3.5-0.3,3.7-0.3c0.2,0,0.1,0.7,1.9,1c1.9,0.2,3.4,0.6,4.2,1.2s4.2,1.9,5.2,2
	c1,0.1,1.9-0.4,1.9-0.4l-1.2,1.9c-1.6,0.9-2.7-0.2-4-0.8c-1.2-0.5-1.9-0.7-2.7-0.9c-0.9-0.2-9.7-2.6-8.2-0.1l1,1.6
	c0,0,3.6,1.5,4.2,1.3c0.6-0.2,2.8,0.7,4.1,1.3s3.4,1.2,3.4,1.2l-0.3,1c0,0-0.6,0.5-1.3,0.2c-0.7-0.3-2.5-1.5-3.7-1.8
	c-1.2-0.3-2.2-0.4-3.3-0.4c-1.1,0.1-2.7,0.5-3.9,1.4c-1.2,0.9-2.6,1.7-3.4,1.7s-3,0.2-3.3,0.2s-0.5-0.1-0.5-0.1l0.2-0.9
	c0,0-0.1,0.2,0.7,0.2c0.8,0.1,0.9-0.5,1.7-0.8c0.7-0.3,0.2-0.4,1.6-0.2c1.3,0.1,2.2-1,3.5-1.3c1.3-0.2,1.9-0.9,1.9-0.9
	s-0.3-0.3-1.3-0.3c-1,0-2.3,0.1-3,0.1h-2.2c-0.6,0-1.5-0.1-1.5-0.1l1.7-2.4c0,0.7,0.1,1.3,0.9,1.2s1.8-0.8,2.8-0.5
	c1,0.3,1.7-0.4,3,0.3C43.1,150.3,42.5,150.4,40.4,149.5L40.4,149.5z"/>
<path d="M59.1,152.2c0.1,0.2,0.1,1.2,0.1,1.2l-0.6,0.1c-0.3,0.1-1.2-0.5-1.8,0.1c-0.6,0.5-0.8,0.8-1.4,0.8c-0.6,0-0.7,0.1-0.7,0.1
	l0.7-1c0,0,0.2-0.3,0.5-0.4s0.9-0.7,1.5-0.7C57.9,152.3,59.1,152.2,59.1,152.2L59.1,152.2z"/>
<path d="M52.7,158.1l-0.5,1.3c0,0,0.5-0.5,1.1-0.8c0.6-0.3,1.2-0.6,2.1-0.6c0.9,0,1.3-0.1,2,0c0.6,0.1,2.3,0.2,2.3,0.2l-0.2-1.1
	c0,0-0.5-0.2-1.6-0.2c-1,0.1-1.9-0.2-2.8,0.1C54.3,157.2,52.7,158.1,52.7,158.1L52.7,158.1z"/>
<path d="M51.3,162.3c0.2,0,1.9-0.6,2.3-0.7s1.5-0.5,2.5-0.6c1-0.1,1.9-0.2,2.5-0.2c0.6-0.1,1.6-0.7,1.6-0.7l0.1,0.9v0.5
	c-0.3-0.7-0.9,0-1.5,0.1c-0.5,0.1-1-0.3-1.9-0.1c-0.8,0.2-3.4,1.1-3.9,1.3s-2.5,1.5-2.3,1.2C50.7,163.9,51.3,162.3,51.3,162.3
	L51.3,162.3z"/>
<path d="M55,164.1c-0.4,0.2-1.6,1.3-2.3,1.7c-0.8,0.3-2.4,0.9-1.2,0.6c1.2-0.3,3-1,3.2-1.3C54.9,164.8,55,164.1,55,164.1L55,164.1z"
	/>
<path d="M56.1,164.7c0.2,0.2,0.3,0.8,0.9,0.7c0.6-0.1,1.1-0.2,1.6-0.2h0.9l0.4-0.7c0,0-0.4-0.1-1.2,0c-0.7,0.1-1.2,0.1-1.6,0.2
	C56.7,164.7,56.1,164.7,56.1,164.7L56.1,164.7z"/>
<path d="M49.4,170l0.3,1.2c0.9,0.2,1.1-0.7,1.6-1c0.5-0.3,1.7-0.9,1.7-0.9s-0.2-0.4-1-0.1C50.7,169.6,50.7,169.7,49.4,170L49.4,170z
	"/>
<path d="M51.2,161.9l0.4-0.7c0,0-0.8-2-1.8-2.6c-1-0.7-3.4-1.2-4.2-1c-0.9,0.1-3,0.4-3.9,0.8c-0.9,0.4-4.7,1.9-5.4,2.1
	s-2.8,0.7-2.8,0.7s-0.4,0,1,0.2c1.4,0.2,2,0.3,2.7,0.1s0.9-0.8,2.3-1.2c1.4-0.4,2.8-1.9,3.2-1.3c0.4,0.5,1,0.5-0.4,1.3
	c-1.5,0.7-2.2,1.6-3.4,1.9s-2.9,0.5-3.3,0.7s-0.9,0.7-0.9,0.7l0.2,0.7c0,0-0.5-0.6,1.2-0.6c1.7,0,3.9-0.3,5.6-1.8
	c1.7-1.5,4-2.3,5.2-2.3c1.2-0.1,3.3,1.2,3.6,1.4C50.9,161,51.2,161.9,51.2,161.9L51.2,161.9z"/>
<path d="M35.9,168.7l-0.2-0.9c0,0,0.7-0.2,1.2-0.1c0.4,0.2,0.6,0.4,1.6,0.5c0.9,0.1,2.2-0.4,2.2-0.4s-0.9,0.7-1.4,0.8
	s-1.2,0.2-1.7,0.1C36.9,168.7,35.9,168.7,35.9,168.7L35.9,168.7z"/>
<path d="M50.1,165l0.4-1.7c0,0-0.7-2-1.8-2.1c-1-0.1-3.4,0.5-4.4,1.1s-2.6,2.2-4.7,2.4s-4.4,0.9-4.4,0.9s1.1,1.5,2.6,0.7
	c1.9-0.9,5.4-1.6,6.2-2.2c0.8-0.5,2.8-2.2,4.6-1.3C49.5,163.3,49.7,164.1,50.1,165L50.1,165z"/>
<path d="M58.7,167.9c-0.1,0.2-0.1,1.5-0.1,1.5S58,169,57.2,169c-0.8-0.1-1.6-0.4-2.4-0.1c-0.8,0.3-1.7,0.1-1-0.2
	c0.7-0.4,1-0.6,2.1-0.6C57,168.1,58.7,167.9,58.7,167.9L58.7,167.9z"/>
<path d="M58.4,173l0.1,1.3c0,0.3-1.9-0.9-2.5-0.9c-0.6,0-2.3-0.2-2.9,0s-1.7,0.2-1.7,0.2s-0.1-0.3,0.8-0.5s2.6-0.6,4.1-0.3
	C57.9,173.1,58.4,173,58.4,173L58.4,173z"/>
<path d="M50.6,175.1c0,0,0.7,0,1.3-0.1c0.6-0.1,1.6-0.4,1.6-0.4l0.1,0.9c0,0-0.5,0.2-1.5,0.2C51.2,175.7,50.6,175.1,50.6,175.1
	L50.6,175.1z"/>
<path d="M47.5,172.8c-0.1,0.2-0.2,2.3-0.2,2.8c0,0.5,0.1,2.3,0.1,2.3s-0.7-0.9-0.8-1.7c-0.1-0.9,0.3-2.3-0.1-3.3
	c-0.4-1-0.5-1-0.8-1.4c-0.3-0.4-0.4-0.9-0.5-0.2c-0.1,0.6,0.5,1-1,1.4c-1.5,0.4-3.6,1-3.1,0.4c0.5-0.5,1.2-0.5,2.5-1.3
	c1.3-0.8,1.9-1.6,2.3-1.7c0.4-0.2,1-0.1,1.2,0.3c0.2,0.4,0.7,1.4,0.7,1.4L47.5,172.8z"/>
<path d="M49.6,166.2l-0.8,2c0,0,0.1-0.5,0.1-0.9s0.1-0.8-0.9-0.2c-0.9,0.5-3.7,2.6-4.5,3.2c-0.8,0.7-2.5,1.8-3.5,1.9
	c-1,0.1-3.5,0.2-3.5,0.2s0.5-1.3,1-1.3c0.5,0,3.9,0.5,4.2-0.2c0.2-0.8,0.1-1.1,1.9-2.1c1.7-1,4.7-3.1,4.9-3.1
	C48.7,165.5,49.6,166.2,49.6,166.2L49.6,166.2z"/>
<path d="M59.4,178.8l0.2,1.6c0,0-1.9-1.2-2.7-1.4c-0.8-0.2-2.6-0.7-2.6-0.7s1.2-0.4,2.1-0.4C57,177.7,58,178.2,59.4,178.8
	L59.4,178.8z"/>
<path d="M54.8,179.4c0,0-0.6,0.2-1.2,0.4c-0.6,0.2-1.6,0.2-1.6,0.2l0.2,0.9c0,0,0.6,0,1.5-0.3C54.5,180.1,54.8,179.4,54.8,179.4
	L54.8,179.4z"/>
<path d="M47.7,179.3l0.2,1.6l-0.7,0.1c0,0-1.1-1.7-1.7-1.2c-0.6,0.5-1.9,1.6-2.2,1.8c-0.3,0.2-1.7,1.4-2.6,1.2c-0.9-0.3-3.2-1-3.2-1
	s-0.2-1.1-0.1-1c0.1,0.1,1.1,0.8,1.6,0.7c0.5-0.1-0.1-1,0.7-0.8c0.8,0.2,1.4,0.7,2.6,0.3c1.1-0.4,3.6-1.6,3.4-2.4
	c-0.2-0.8-1-2.7-2-2.6c-1,0.2-1.3,0.6-1.7,0.5c-0.3-0.1-0.8-0.1-1.2,0s-1.1,0.2-1.5,0.2c-0.4-0.1-2.2,0.2-2.2,0.2l-0.1-1
	c0,0,0.4,0.3,1.3,0.1c0.9-0.2,0.9-0.3,1.8-0.5c0.9-0.2,1.6-0.2,2.2-0.5c0.6-0.3,2.5-1.2,2.6-0.9s0.4,2.1,0.7,2.9s1.1,1.9,1.4,2.2
	C47.2,179.4,47.7,179.3,47.7,179.3L47.7,179.3z"/>
<path d="M54.5,181c0.1,0,1.7,0.1,2.2,0.5c0.5,0.4,1.2,1,1.7,1.3c0.5,0.4,2.2,0.5,2.2,0.5l0.2,1.2c0,0-1.3-0.2-1.7-0.5
	c-0.4-0.2-1.9-2.1-2.6-2.4C55.8,181.4,54.5,181,54.5,181L54.5,181z"/>
<path d="M48,181.8c0,0.1,0,0.8,0,0.8s-0.7-0.1-0.5,0.4c0.2,0.5,0.6,0.8,0.6,0.8l0.1,1c0,0-0.4-0.6-0.8-0.8c-0.5-0.1-0.6-0.2-1-0.2
	c-0.4,0.1-0.8-0.1-1-0.2c-0.2-0.2-0.2-0.2-0.8-0.2s-2-0.2-1.1-0.5c0.9-0.3,2.1-0.7,2.7-0.5c0.6,0.2,1-0.2,1.2-0.4
	C47.6,181.9,48,181.8,48,181.8L48,181.8z"/>
<path d="M40.5,187.6c0.5-0.2,1.6-0.4,1.9-0.8c0.4-0.4,1.7-1.2,2.1-1c1.4,0.4,1.9,0.1,2.3,0.5c0.3,0.3,0.1,0.2,0.6,0.5
	s0.9,0.3,0.9,0.3l0,1.2c0,0-0.7-0.3-0.9-0.7c-0.2-0.4,0.2-0.5-0.4-0.4c-1.4,0.3-2.8-0.7-4.4-0.2C42,187.2,41.1,187.8,40.5,187.6
	L40.5,187.6z"/>
<path d="M38.3,189c0,0,1.4-0.5,1.8-0.5c0.4,0.1,1.2,0.7,1.9,1.1c0.7,0.4,1.4,0.7,2.2,0.6c0.7-0.1,2.3-0.2,2.8-0.2s1.5-0.2,1.5-0.2
	v0.8c0,0-0.3,0-0.8-0.1c-0.5,0-2.6,0.2-3,0.2c-0.4,0.1-0.9,0.6-1.8,0.4c-0.9-0.2-2.1-2-2.5-2s-2,0.3-2,0.3L38.3,189z"/>
<path d="M38.7,193.4c0.1,0,0.4,0.1,1.2,0.2s2.1,0.1,3.2,0.1s4.5-0.9,4.8-1.2c0.3-0.2,0.4-0.4,0.4-0.3c-0.1,0.1-1.2,1.6-2.2,1.7
	c-0.9,0.1-1.8,0.5-2.8,0.5c-1,0-1.9-0.1-2.8-0.1s-1.7,0-1.7,0L38.7,193.4z"/>
<path d="M38.8,199.6c0,0,0.8,0.1,0.8-0.2s0.2-1,1.2-1.2c1-0.2,6.2-1.9,6.8-2.4s1.2-1,1.2-1l0-0.5c0,0-3.3,2.4-6.6,3
	C39,198.1,39,198.2,38.8,199.6L38.8,199.6z"/>
<path d="M57.3,185.6c-0.5,0-0.4,0.2-1.2,0.1s-1-0.2-1.5-0.1c-0.5,0.1-1.2,0.3-1.2,0.3l0.2,1c0,0,0.3-0.2,0.8-0.5
	c0.5-0.2,0.5-0.2,1.4-0.2C56.7,186.2,57.3,185.6,57.3,185.6L57.3,185.6z"/>
<path d="M61.2,186.9l0.3,1.2c-0.7,0.2-0.9,0.6-1.7,0.7c-0.4,0-1.1-0.3-1.9-0.3s-1.9-0.1-2.4-0.1s-1.3,0.2-0.5-0.1
	c0.9-0.2,2.4-0.4,3.5-0.3C59.7,188,61.2,186.9,61.2,186.9L61.2,186.9z"/>
<path d="M62.2,190l0.2,0.8c0,0,0.1,0.2-0.5,0.5s-0.2,0.3-0.9,0.5c-0.8,0.2-2,0.3-2.6,0.2c-0.5-0.1-1.9-0.2-2.2-0.2s-0.7,0.2-0.2,0
	c0.5-0.2,1.8-0.9,2.3-0.7s1.2,0.3,2,0C61.1,190.9,62.2,190,62.2,190L62.2,190z"/>
<path d="M50.4,199.3c0,0,3,4.9-0.8,5.3c-3.8,0.4-7.9,0.4-8.8,0c-0.9-0.4-1.7-2.2-0.6-2.7c1.2-0.5,4.2-1,5.3-2.6s2.3-1.6,3.1-1.8
	C49.7,197.2,50.4,199.3,50.4,199.3L50.4,199.3z"/>
<path d="M66.3,197.6c0.2,0.6,3.4,3.8-0.3,4c-3.7,0.2-8.8,0-9-0.2c-0.2-0.2-0.6-1.9-0.2-2c0.5-0.2,2.1-0.7,3.3-2.8
	c1.2-2,3.6-2,3.8-1.9C64.3,194.9,66.3,197.6,66.3,197.6L66.3,197.6z"/>
<path d="M63.1,192.1l0.4,0.8c0,0-1.1,1.6-1.7,1.6s-0.9-0.2-1.2-0.2s-0.2-0.3-0.5,0.2c-0.3,0.5-0.9,1-0.9,1.2s-0.3,0.9-0.5,1.1
	c-0.3,0.2-0.7,0.5-1,0.7c-0.2,0.2-0.8,0.5-0.8,0.5s0.2-0.5-0.3-0.4c-0.5,0.1-0.5,0.2-0.9-0.2c-0.4-0.4-1.1-0.9-0.7-0.9
	c0.4,0,0.3,0.3,0.9,0.4c0.6,0.1,1.4,0,2-0.2c0.6-0.3,1-0.9,1.2-1.4c0.2-0.4,0.8-0.4,0.3-0.5c-6.6,0.8-0.9,0.2,0.2-0.8
	c0.2-0.4,0.8-0.2,1.6-0.4C61.8,193.6,63.1,192.1,63.1,192.1L63.1,192.1z"/>
<path d="M54.7,194.7c0.5,0.3,1.2,0.5,1.4,0.5s0.3-0.1,0.2,0.3c-0.1,0.3-0.5,1.1-0.5,1.1s-0.2-1-0.5-1c-0.4,0-0.6,0.2-0.6,0
	c0-0.1,0-0.9,0-0.9L54.7,194.7z"/>
<path d="M57.1,192.6c-0.3,0.2-0.7,0.4-1.1,0.4c-0.4,0-1.5-0.9-1.5-0.9l0.1,1c0,0,0-0.5,0.5,0.1c0.5,0.6,0.4,0.9,0.8,0.7
	c0.4-0.2,1-0.8,1.3-1c0.3-0.2,0.7-0.3,0.9-0.3c0.2,0-0.1-0.2,0.2,0c0.3,0.2,0.9,0.8,1,0.9s0.2,0.2,0.4,0.2c0.2,0,0.7,0.2,0.1-0.4
	s-1.7-1-1.9-0.9C57.7,192.5,57.1,192.6,57.1,192.6L57.1,192.6z"/>
<path d="M44.6,196.8c0,0-1.3,0.4-1.4,0.4s-2.4-0.1-2.9-0.1c-0.5-0.1-1.3-0.5-1.3-0.5s-0.4-1,0-0.6c0.4,0.3,1.5,0.6,2.3,0.6
	C42,196.5,44.6,196.8,44.6,196.8L44.6,196.8z"/>
<path d="M43.3,71.2c0.3,0,2.5-0.4,4.2-0.4c1.7,0,5.3,0.1,7.3,0.5c2,0.5,7.1,1.8,7.8,2.2c0.6,0.4,2.3,1,2.3,1s-1.6-0.3-2.5-0.5
	c-0.9-0.2-5.8-1.5-6.7-1.7c-0.9-0.2-2.1-0.5-3.8-0.5c-1.7,0.1-4.2,0.2-5.2,0.2C45.6,72.1,43.3,71.2,43.3,71.2L43.3,71.2z"/>
<path d="M118.6,94.6c0,0,1.3-3.2-0.6-6.3c-2-3.1-5-6.6-6.1-9.2c-1.1-2.6-2.8-3.5-3.4-5.5c-0.6-2.1-2.8-5.1-5.9-6
	c-3.1-0.9-7.4-5-12.7-6.7c-5.3-1.7-5.4-1.7-5.4-1.7s2.5,1.2,4.7,2.4c2.2,1.2,6.2,3.7,8,5c1.7,1.2,3.4,3.8,3.8,4.1
	c0.5,0.3,0.6,0.6,0.8-0.3c0.2-0.9,0.5-1.8,1-1.2c0.5,0.6,2.7,4.3,4.5,6.2c1.8,1.9,2.6,3.3,3.8,5.2C112.4,82.6,115.9,86.3,118.6,94.6
	L118.6,94.6z"/>
<path d="M110.8,131.9c0,0,9.3-15,9.4-22c0-7-0.1-12,0.3-14.8c0.4-2.8,0.7-5.1-0.6-7.6c-1.2-2.5-3.6-2.8-4.7-5.9
	c-1.1-3.1-4-10.3-5.6-12.3c-1.5-1.9-5.6-3.2-7.2-3.7c-1.6-0.5-2.3-1.3-4-2.2c-1.7-0.9-6.9-3.2-9.2-3.7c-2.4-0.5-4.3-1.6-6.7-1.8
	c-2.4-0.3-4.8-0.5-5.9-0.8c-1-0.3-3.7-1.1-4.4-1.1c-0.6,0,0.5,0-1.1,0.5c-1.6,0.5-5.1-0.1-5.1-0.1s0.1-0.9,1.4-1
	c1.3-0.1,3.9-0.5,6.4,0c2.5,0.5,3.8,0.9,5.1,0.9c1.3,0,3.2,0.1,4.1,0.5c0.9,0.4,3.5,1,5.2,1.2c1.7,0.2,3.6,0.6,4.9,0.9
	s3.6,0.6,6.1,1.8c2.5,1.1,5.2,3,6.6,2.9c1.3-0.1,4-0.3,5.1,0.9c1.1,1.3,6.2,13.2,7.5,14.6c1.2,1.4,5.9,5.5,5.7,9.1
	c-0.2,3.6,0,4.6-0.6,7.3s-0.5,7.7-0.8,9.8c-0.3,2.1-2.5,11.6-3.3,13c-0.7,1.2-6.4,10.8-7.8,13.4L110.8,131.9z"/>
<path d="M114,132c0,0,2.6,0.2,2.8,0c0.2-0.2,8.2-13.6,10-20.4c1.8-6.9,2.2-9.2,2.8-14.7s2-15.6,2.1-21.9c0.1-6.3-0.1-9.3-1.7-10.5
	c-1.6-1.2-3.3-1.9-4.6-2.2c-1.3-0.3-3.6-0.1-4.6-0.1c-1-0.1-3.3-0.2-2.3-0.1c1,0.1,5.8,0.4,7.7,3.8c1.9,3.4,2,7.5,1.9,10.8
	c-0.1,3.3,0.1,10.7-0.8,14.5c-0.9,3.8-1.2,1.7-1.7,6.7c-0.5,5-1.3,8.1-1.6,10.7c-0.2,2.6-1,6.4-1.9,9.2
	C121.3,120.5,119,125.2,114,132L114,132z"/>
<path d="M119.3,62.5c1.3,0.6,4.9,0.9,5.8,5.2c0.9,4.2,1.2,9.2,1.2,10.6c0,1.5-0.1,1.6-0.1,1.6s-0.1-6.7-2.4-11.3
	C121.6,64,119.3,62.5,119.3,62.5L119.3,62.5z"/>
<path d="M91.5,57.7c1.9,0.3,6.4,1.2,10.6,1.9c4.2,0.7,13.8,1.4,15.5,2.9c1.7,1.6,4.9,4.6,5.4,7.9s1.6,8.7,1.7,9.9
	c0.2,1.2,1.3,4.4,1.3,4.4s-1.4-0.5-2.3-2.6c-0.9-2.1-3.3-4.4-3.5-8.8c-0.2-4.3-2.2-8.2-5-9.9c-2.8-1.7-8.2-2.5-8.9-2.5
	c-0.7,0-2.5,0.4-4.3-0.3C100.1,60,93.3,58.8,91.5,57.7L91.5,57.7z"/>
<path d="M102,61.5c1.1,0.2,2.8,0.3,4.7,0.7c1.9,0.4,4.3,0.4,6.6,3.4c3.5,4.7,2.6,5.9,4,8.5c1.3,2.6,2.6,4.2,2.6,4.2
	s-0.6-0.7-1.7-5.4c-1-4.7-3.7-8.3-5.2-9.1c-1.5-0.8-4.9-2-6.4-2C105.1,61.8,102,61.5,102,61.5L102,61.5z"/>
<path d="M126.6,62.2c1.6,0,3.3-0.1,3.7,0.1c0.4,0.1,1.9,0.2,2.6,0.4c0.7,0.2,1.2-0.1,3.3,1.6c2,1.7,1.7,2.5,1.7,2.5
	s-1.3-1.1-1.8-1.3c-0.5-0.2-1.5-0.3-0.8,0.6s1.3,8.7,0.4,13.2c-0.9,4.5-0.7,3.7-0.9,6s-1.2,10.1-2.7,16.6
	c-1.5,6.5-4.2,14.9-4.5,16.6c-0.6,3.3-1.5,2.5-1,1.3c0.4-1.2,1.8-5.3,2-6.6c0.2-1.3,1.7-12.5,2.4-15.2c0.7-2.7,1.8-8.2,1.8-9.7
	s0.4-4.4,0.9-6c0.4-1.6,1.4-8.8,0.7-11.5c-0.7-2.7-1.8-4.4-1.3-4.6c0.5-0.2,1.1,0.2,0.9-0.4c-0.2-0.6-1.3-1.7-2.8-2.3
	C129.6,62.8,130.5,63,126.6,62.2L126.6,62.2z"/>
<path d="M132.2,61.9c0,0,4.5,0.2,5,0.7c0.5,0.4,1.5,1,1.4,2c-0.1,1-0.7,0.4-0.5,1.9c0.2,1.5,0.4,9.8-0.7,17.1
	c-1.1,7.3-2,11.7-3.1,15.1c-1.1,3.4-2.1,9.8-3,12.2s-2.7,9.3-3.4,11.4c-0.7,2.2-4.1,6.9-4.6,7.9c-0.5,0.9-1.3,1.6-1.3,1.6l3.2-0.7
	c0,0,7.6-12.6,11-26.6s3.9-23.2,5.4-28.5c1.6-5.4,2.3-9.7,1.9-11.4c-0.4-1.7-1.6-1.7-1.3-2c0.2-0.3,2.5-1.2,2-1.2
	C140.7,61.6,135.2,61.6,132.2,61.9L132.2,61.9z"/>
<path d="M144.9,62.5c0.9,0.2,2.4-1,2.7,0.4c0.3,1.3,1.2,4.9-0.4,9.5c-1.6,4.6-3.1,9.5-4.4,14.6c-1.3,5.1-2.3,9.4-2.3,9.2
	s2.7-14.4,3.7-17.6s2.3-7.5,2.5-10.7C146.9,64.7,144.9,62.5,144.9,62.5L144.9,62.5z"/>
<path d="M145.8,61.2c0,0,4.4,0,5.8,0.5c0.7,0.3,2.8,1,3.6,1.4s4,2.3,4.6,5.4c0.5,3.1,1,16.3-0.8,20.5c-1.8,4.2-5.8,9-6.9,10.2
	c-1.1,1.3-6.7,10.9-7.1,11.9c-0.4,1-2,7.5-2,7.5s-0.7-5,0.6-8c1.3-3,2.6-9.8,6-14.3c3.4-4.5,6.2-11.1,6.3-18.5s0.2-9.4,0.2-10.4
	s-2.6-3.9-2.9-0.9c-0.2,2.9-1,7.9-1.5,9.9c-0.4,2-0.8,8.4-2.9,12.8c-2.1,4.4-5,10.2-5.4,13.1c-0.3,2.9-2.6,6.6-3.6,9.1
	c-1,2.5-1.9,4.2-2.3,5.8c-0.4,1.7-3,8.4-3.1,8.8c-0.1,0.4-0.1,2.6-0.1,2.6l-4.1,0.9c0,0,2.5-4.2,4-9c1.6-4.8,5-13.4,5.5-15.1
	s1.2-2,1.5-5c0.3-3,1.3-5.3,2.6-9.9c1.3-4.7,2.2-8.2,2.2-9.7s0.5-2.2,1.9-6c1.3-3.8,2.9-8.7,2.3-10.3
	C149.5,62.2,148.1,62,145.8,61.2L145.8,61.2z"/>
<path d="M154.7,71.3c0,0.3-0.1,8.2-1.2,12.3c-1.2,4-1.2,4.1-1.2,4.1S154.3,74.1,154.7,71.3L154.7,71.3z"/>
<path d="M159.9,65.6c0.4,0.4,3.6,2.1,3.6,2.9s0.7,4.6,0.5,6.3c-0.2,1.7-0.7,5.5-0.8,8.1c-0.1,2.6-0.7,6.3-2.5,8.7
	c-1.7,2.4-3.6,5.4-2.3,2.8c1.3-2.6,3.4-6.1,3.9-11.8c0.5-5.7-0.5-8.1-0.3-10.3c0.2-2.2,0.1-2.7-0.2-3.6
	C161.6,67.7,159.9,65.6,159.9,65.6L159.9,65.6z"/>
<path d="M165.9,69.7c0.6,0.5,3.6,3.3,3.6,3.3s1.7,4.2,1.2,5.8c-0.4,1.7-2.3,5-3.4,8.2c-1.1,3.3-2,6.3-2.6,7.4
	c-0.6,1-3.6,4.2-4.3,5.4c-0.8,1.2-1.7,3-4.2,4.7c-2.5,1.7-3.3,2.3-4.4,3.5c-1.2,1.2-4.9,5.4-5.2,6.8c-0.4,1.3-0.5,3.2-0.5,1.6
	c0-1.7,1.2-6.6,6.1-11.2c4.9-4.6,12.2-14.6,12.8-19.3C165.4,81.2,165.4,73.2,165.9,69.7L165.9,69.7z"/>
<path d="M171.1,81.2c0,0.2-0.7,2.3-0.4,4c0.3,1.7,0.2,2.5-0.4,3.7c-0.6,1.2-0.7,2.9-0.1,6.1c0.7,3.2,3.7,14,3.9,17.9
	s-0.4,8.8-2.3,11.3c-1.9,2.5,0.7-1.9,1-4.7s0.5-6.3-1.7-13s-4.2-11.1-4.3-12.2c-0.1-1.2,0.5-3.9,1.3-4.5c0.7-0.5,0.3-2.2,0.9-3.6
	C169.6,84.9,170.3,82.7,171.1,81.2L171.1,81.2z"/>
<path d="M172.9,76.4l2.5,2.1c0,0,1.2,3.7,1,5.2c-0.2,1.5-1.2,6-0.2,11.6c1,5.6,2.3,16.7,2,18.1c-0.4,1.4-1.1,3.6-1.6,5
	c-0.5,1.3-0.9,2.4-1,3.1s-2.4,3.2-2.4,3.2s0.9-1.1,1-2.8c0.2-1.7,1.3-1.9,1.7-4.4c0.3-2.6-0.1-6.9-0.6-11.6s-1.4-8.5-2.2-12.3
	c-0.8-3.7-0.5-4.3-0.4-7.9c0.2-3.6,1-4.9,0.7-6.6C173,77.3,172.9,76.4,172.9,76.4L172.9,76.4z"/>
<path d="M184.2,84.9l4.2,3.7c0,0,0.4-1,1.7-2.7c1.3-1.7,1.3-4.3,2.5-5.6c1.2-1.2,2.9-2.5,3-3.4s1.6-3,0.2-1.7
	c-1.4,1.3-1.9,3.1-1.7,1.9c0.2-1.3,1-3.9-0.3-2c-1.3,1.9-3.4,5-2.5,3.3c1-1.7,1.6-4.8,0.9-3.9c-0.8,0.9-3.5,5.3-3.5,5.3
	s-0.7,0.8,0.2-1c0.9-1.8,1.3-3.3,0.1-1.2c-1.3,2.2-2.3,4.3-3.3,5.6C184.8,84.4,184.2,84.9,184.2,84.9L184.2,84.9z"/>
<path d="M196.9,81.4c-0.1,0.6-0.6,5.4-1,6.1c-0.4,0.8-3.6,4.2-3.6,4.2l4.7,5.2c0,0,0.6-2.2,1.6-3.3c1-1,1.3-2.9,2.9-3.7
	c1.6-0.8,2-1.9,2.2-1.1c0.2,0.7,1,1.8,1,0.9c0-0.9-0.1-4-0.5-3.4c-0.4,0.5-0.9,1.2-0.7,0.5c0.2-0.7,0.1-1.7-0.4-0.6
	c-0.5,1.1-1.4,2-0.6,0.9c0.8-1.2,0.5-2.2-0.3-1c-0.9,1.2-2.2,3.3-1.7,2.1c0.5-1.2,0.9-3.4,0.4-2.1s-1.8,3.4-1.4,1.9
	c0.4-1.6-0.4-5-0.4-3.6c-0.1,1.4-1.4,3.8-1.4,2.9c0-0.9,0.3-3.6,0.2-3.3c-0.1,0.2-0.7,3.9-0.6,2.3C197.1,84.6,196.9,81.4,196.9,81.4
	L196.9,81.4z"/>
<path d="M199.8,100.7l3.9,3.7c0,0-0.1-0.7,1-1.9c1-1.1,2.3-3.2,3.1-4c0.8-0.8,1.2-1.9,1.3-1.3c0.1,0.6-0.2,0.9,0.3,0.5
	s0.9-0.8,1-0.2c0.1,0.6,0.6,0.6,1.1,1.3s0.9,2.7,0.7,0.9c-0.2-1.9,0.6-4.2,0-3.7c-0.6,0.5-0.6,2-0.6,0.5c0-1.5,0.1-2.5,0.1-2.7
	c-0.1-0.2-0.5-1-0.8,0s-1.1,0.8-0.4,0.1c0.7-0.7,0.4-1.3-0.2-0.4c-0.5,0.9-1.2,1.7-0.6,0.2c0.6-1.4,0.6-2.3,0.1-1.3
	c-0.5,1-1.7,2.4-1.3,1.7c0.3-0.7,0.2-1.2-0.1-0.7c-0.4,0.5-0.5,0.7-0.4,0.2c0.1-0.5-0.5-0.8-0.5-0.5c0,0.3,0.4,0.1,0,0.5
	c-0.4,0.4-1.1,0.7-0.9,0.9c0.2,0.2,1.9,0.2,0.8,0.8c-1.1,0.5-5.5,3.4-6.5,4.3C199.7,100.7,199.8,100.7,199.8,100.7L199.8,100.7z"/>
<path d="M206.2,107.2l2.9,3c0,0,2.5-3.6,3.1-4.2c0.5-0.5,1.9-1.6,1.8-1c-0.1,0.6,0.1,0.9,0.6,0.7s1.3-0.1,0.8,0.4
	c-0.5,0.4-1.4,1.2-0.7,0.9c0.7-0.3,1.2-0.5,1.6,0.1c0.4,0.6,0.7,1.2,0.7,1.2s-1.4,1.3-2.3,1.6c-0.9,0.3-3.6,2.3-3.6,2.3l-0.4,0.3
	c0,0,1.9,2.8,1.9,2.5c0-0.2,2.3-2.7,3.2-3.3c0.9-0.5,1.7-1.5,2.3-1.5c0.6,0,1.3,0.1,1.4,0.3c0.1,0.2,0.2,0.2,0.2,0.2
	s1.1-0.7,0.9-0.8c-0.2-0.1-0.7-0.5-0.7-0.7c-0.1-0.2-0.4-0.5-0.5-0.8c-0.2-0.2-0.2-0.5-0.5-0.9c-0.4-0.3-0.3-0.7-0.9-1
	c-0.5-0.2-0.5-0.7-0.9-0.9c-0.4-0.1-0.7-0.2-0.3-0.8c0.4-0.6,0.8-0.4-0.2-1.6s-1.9-2.4-2.5-2.5c-0.7-0.1-0.7,0.4-1-0.2
	c-0.4-0.5-0.5-1.9-0.7-1.1c-0.2,0.8-0.3,2.3-0.7,2.8c-0.4,0.5-1,1.2-1.6,1.7c-0.5,0.5-0.1,0.4-1.6,1.6
	C206.7,107.2,206.2,107.2,206.2,107.2L206.2,107.2z"/>
<path d="M209.6,131.8c-0.5-0.4-3.1-3.7-3.4-6.7c-0.3-2.9,0.1-3.5,0.6-3.5c0.5,0,1.7,0.3,1.9,0.3c0.3,0,1.5,0.3,2.5,1.3
	c1,1.1,2.5,3.5,2.3,3.7c-0.1,0.2-0.1,0.9-0.6,0c-0.5-0.9-1.7-2.6-2.4-3.2c-0.7-0.6-1.1-0.9-1.1-0.6c0,0.3,0.9,1.5,0.6,1.6
	c-0.3,0-1.6-0.6-1.2,0c0.4,0.7,0.7,1.8,1.2,2.1s1.2,0.7,1,0.8c-0.2,0.1-1.1,0.1-1.1,0.1s0.8,0.9,0.6,1c-0.3,0.1-0.2,0.2-0.8,0
	c-0.6-0.2-0.6-0.3-0.6-0.1c0,0.2,0.2,0.5,0.3,0.8c0.2,0.3,0.6,0.7,0.6,1.3C210,131.4,209.6,131.8,209.6,131.8L209.6,131.8z"/>
<path d="M218.5,128.3c-0.5,0.3-1.4,0.5-2,0.7c-0.6,0.2-1.1,0.3-1,1.2c0.1,0.9,0.3,2.9,1.7,2.3c1.4-0.6,4-1.9,3.7-2.3
	c0,0-0.1-0.8-0.2-1.1C220.3,128.6,218.5,128.3,218.5,128.3L218.5,128.3z"/>
<path d="M213.6,124.7c0,0,0.6,0.1,1.6,0.8l0.9,0.6c0,0,1.5-2.3,2.3-3.4c0.7-1.1,1.8-2.7,2.5-3.3s0.5-0.8,1.2-1.3
	c0.7-0.5,0.9-2.1,0.9-2.1s-1,0.6-1.4,1c-0.4,0.4-1.6,1.6-2.2,1.9c-0.6,0.3-2.4,2.4-2.9,2.7c-0.5,0.3-1.8,1.6-2.1,1.9
	C214.2,123.9,213.6,124.7,213.6,124.7L213.6,124.7z"/>
<path d="M227.4,128.1c0,0-1.4,0.7-2.1,0.9c0,0-0.1,0-0.1,0c0,0,0,0.1,0,0.1c0,0-0.1,0-0.1,0s0,0,0,0c0,0.1-0.1,0-0.1,0c0,0,0,0,0,0
	c-0.1,0-0.2,0-0.2,0c0,0-0.1,0-0.1,0h0c0,0-0.9,0.7-0.9,0.7l-1.4,1.4c0-0.1,1.4-1.5,1.6-1.9c0.1-0.4,1.1-1.6,1.4-1.6
	c0.3,0,1.9-0.8,2.5-0.9c0.5-0.1,0.9-0.4,0.9-0.6c0-0.3-0.3-0.5-0.8-0.3c-0.6,0.2-1.8,0.6-2.3,0.8c-0.5,0.2-0.9,0.3-0.4-0.2
	c0.5-0.5,2-1.1,2.4-1.3c0.4-0.2,0.9-0.5,1-0.6c0.1-0.2,0.3-0.6-0.4-0.4c-0.7,0.2-1-0.1-0.6-0.4c0.4-0.3,1-0.9,0.4-0.7
	c-0.6,0.3-1.9,1.6-2.6,2c-0.7,0.4-0.7,0,0.1-0.6c0.8-0.6,2.1-2.1,2.1-2.1s0.3-1.2-0.2-0.7c-0.4,0.5-3.3,1.9-2.6,1.5
	c0.7-0.5,2-1.5,2-1.9c0-0.5,0.7-1.3,0.2-0.9c-0.5,0.4-2.2,1.6-2.7,2.2c-0.5,0.6-0.9,0.6,0-0.2c0.9-0.8,1.8-1.6,2.1-2
	c0.3-0.4,0.5-0.9,0-0.9c-0.5,0-1.2-0.1-0.6-0.5c0.6-0.3,1-0.2,0.6-0.5c-0.3-0.3,0.1-0.8-0.6-0.4c-0.7,0.4-1.2,2.2-1.6,2.8
	s-0.9,0.6-1.7,1.6c-0.8,1.1,0.1,2.5-1.5,3.3c-1.6,0.8-3.3,1.1-3.3,0.9c0-0.2-1.3,0.5,0.4-0.8c1.7-1.3,2.1-2.6,2.7-3.4
	s0.8-0.9,0.9-1.2s0.7-0.9,1-1.4c0.3-0.5,1.3-1.4,1.7-1.7c0.4-0.3,0.8-0.4,0.9-0.7c0.1-0.3-0.4-1.2-0.7-1c-0.3,0.2-0.7,0.8-0.9,1.1
	c-0.2,0.3-0.3,0.8-0.3,0.3c0-0.5,0.3-1.2,0.4-1.6c0-0.3-0.2-1.2-0.5-1.4c-0.3-0.2-0.6-0.4-1.2-0.2c-0.6,0.2-1.3,0.4-1.3,0.3
	c0-0.2-0.1-0.5-0.4,0c-0.3,0.5-1,1.3-1.8,1.9s-2,2.4-2.7,2.8c-3.4,1.3-3,4.1-3.6,3.7l-0.8-1l-1.4-1c1.2-0.9,0-1.2,0.8-2
	c0.8-0.8,2.2-2.1,3-2.6c0.8-0.4,3.1-1.9,3.8-2.2c0.6-0.3,2.3-1.2,2.5-1.7c0.3-0.4,0.5-0.7,0-0.5c-0.6,0.2-1.2,0.2-0.8-0.1
	c0.4-0.3,0.4-1.2,0.4-1.2s1.1-0.9,1.1-0.8c0,0.2,1.3,0.6,1.1,1.1c-0.2,0.4-0.7,0.7-0.1,0.9c0.6,0.2,2.1-0.2,2.2,0.1
	c0.1,0.3,0.6,0.6,0.6,0.9c0,0.3,0.3,0.5,0.4,0.7c0,0.2,0.3,0.3,0.6,0.7c0.3,0.4,0.5,0.6,0.8,0.8c0.3,0.2,0.3-0.3,0.9,0.5
	c0.7,0.8,0.7,1.4,0.6,2.1c0,0.7-0.2,0.5,0.1,1.4s0.3,1.2,0.3,1.5c0,0.3,0.3,1.3,0.6,1.2c0.2-0.1,1.1-1.1,0.9-0.4
	c-0.1,0.7-0.1,0.9,0.1,0.9c0.2-0.1,0.6-0.4,0.4,0.2s-0.3,1,0,1c0.3,0,0.4,0,0.5,0.5c0,0.5,0.8,0.2,0.8,0.6c0,0.3,0.8,0.3,0.8,0.3
	s-0.1,0.3,0.8,0.1c0.9-0.2,2.3-1.3,2.3-0.6s-1.2,1.6-1.6,2.7c-0.5,1.1-1.1,1.2-1.1,1.4c0,0.2,0,0.7,0,0.9s-0.8,0.5-0.3,0.6
	c0.5,0.2,1.4,0.2,1.2,0.4c-0.3,0.2-0.5,0.5-0.2,0.6c0.3,0.1,0.3,0.5-0.1,0.5s-1,0-0.5,0.3c0.5,0.3,0.9,0.9,0.8,0.9
	c-0.1,0-0.7,0.2-0.4,0.3c0.3,0.1-0.2,0.3,0,0.4c0.2,0.1-0.7,0,0,0.3c0.7,0.3,1.4,0.9,0.8,0.7c-0.6-0.2-1.6-0.3-1.9-0.7
	c-0.4-0.3-1.2-1.5-2.3-1.8c-1-0.3-2.7-0.2-2.7-0.2s1.4-0.6,2.8-0.1c1.4,0.5,1.8,0.1,0.6-0.2c-1.1-0.3-1.2-0.6-0.8-1.1
	c0.4-0.4,0.9-1.1-0.3-0.4c-1.2,0.7-1.9-0.2-0.4-0.6c1.5-0.4,0.3-1-0.5-0.7c-0.9,0.3-2.3,0.5-1.3,0.2c1-0.3,3.1-0.5,3.2-0.9
	c0.1-0.3-0.3-0.7-0.6-0.8c-0.3,0-0.3-0.1-0.9,0.2c-0.6,0.3-0.5-0.1-0.5-0.1s0.4-0.5-0.2-0.1C227.4,128.3,227.1,128.1,227.4,128.1"/>
<path d="M230.2,119.5c0.1-0.2,0.9-2.7,2.2-4c0.4-0.4,1.8-1.2,2.7,0.3c0.9,1.6,1.9,4.4,1.8,5.4c-0.1,0.9-0.7,2.9-0.8,2.7
	c-0.1-0.2,0.1-2.8-0.3-3.3c-0.4-0.5-0.5-0.9-0.7-0.7c-0.2,0.1-0.4,0.2-0.5-0.2c0-0.4-0.2-0.5-0.4-0.3c-0.2,0.2-0.9,0-0.7-0.2
	c0,0-0.6-0.1-0.9,0s-0.1-0.4-0.2-0.9c-0.1-0.6-0.6,0.2-1.1-0.3C230.7,117.5,230.4,119.5,230.2,119.5L230.2,119.5z"/>
<path d="M212.7,131.4c0,0-1.7,0.4-2.1,0.9c-0.4,0.5,0.5,0.8,0.5,0.8s0.2-0.9,0.6-1C212.1,132,212.9,131.5,212.7,131.4L212.7,131.4z"
	/>
<path d="M177.8,80.7l3.1,2.6c0,0-0.1,1.8,0.2,4c0.3,2.2,0.6,6.6,1.9,11.7s1.3,9.4,0.1,12.4c-1.2,2.9-2.3,5-2.9,6.2
	c-0.7,1.2-2.2,2-2.3,2.1c-0.2,0.1-0.4,0.1-0.3-0.1c0.1-0.2,2.5-3.5,2.6-6c0.1-2.5-0.2-3.9-0.2-5.4c0-1.5,0.2-1.7-0.3-4.4
	c-0.5-2.7-1-3.3-0.8-4.2c0.2-0.9-0.2-2.7-0.3-5.9c0-3.2-0.4-8.5-0.7-9.5c-0.3-0.9-0.4-2.1-0.5-2.6C177.3,81.1,177.8,80.7,177.8,80.7
	L177.8,80.7z"/>
<path d="M187.6,97.6c0.2-0.4,1.6-2.3,1-4.3c-0.5-2.1-0.8-2.9-0.6-3.4s0.1-1,0.1-1s-3.6-2.9-4.2-3.2c-0.6-0.3-1.7-1-1.4-0.2
	s0.9,1.5,0.6,2.3c-0.3,0.8-0.8,1.7-0.2,4.4c0.6,2.6,1.8,4.8,1.9,7c0.1,2.2-0.6,2.9-0.3,4.5s0.9,7.8-1.1,10.1c-2,2.3-2.2,2.6-2.3,3.6
	c-0.1,1-0.4,2.1-1.4,2.3c-0.9,0.2-2.3,0.4-1.5,0.5c0.8,0,1.9,0.4,2,0.5c0.1,0.1,0,0.3,0.3,0.2c0.2-0.1,1.7-1.8,1.7-1.8
	c0.4-0.9,1.5-1.6,2.6-2.2c1.2-0.6,3.9-2.9,4.5-3.7c0.6-0.8,2.2-2.6,2.9-3.2c0.6-0.6,3.4-6.8,4-9.8c0.2-0.7,1.1-2.5,0.5-3.1
	c-2-2.2-4.6-4.7-4.6-4.7s-0.9,0.3-1.2,1.6c-0.3,1.3,0.5,2.9-0.2,3.8c-0.7,0.9-1,3.3-1,3.7s-0.3,0.3-0.7,1.1
	c-0.3,0.8-0.3,3.9-0.6,4.8c-0.3,0.9-2.6,2.7-1.5-0.2c1.1-2.9,1.5-4.2,1.5-5.1c0-0.9-0.6-4.4-0.6-4.4"/>
<path d="M166,94.4c0,0.2-1.9,2.3-0.6,5.9c1.2,3.6,2.6,5.2,3.1,7.2c0.5,2,1.6,2.9,1.9,4.1c0.3,1.2,1,6.4,1,7.6s-1.5,4.3-1.5,4.3
	s2-4-0.5-9.3c-2.5-5.4-1.9-5.9-3.5-6.9s-3.6-2.8-3.3-4.9c0.3-2.1,0.2-2.5,1.3-4.7C165.1,95.6,166,94.4,166,94.4L166,94.4z"/>
<path d="M161.5,101.3c-0.2,0.4-2.7,2.9-2.7,2.9s1.4,0.8,0.3,2.5c-1.1,1.7-2.9,3.2-5.6,4.7c-3,1.6-4.5,2.4-6.1,4.5
	c-1.9,2.7-1.3,3.1-1.3,3.1s-0.2,0,0,0c0.2,0,0.6-1.2,2.1-2.2c1.6-0.9,5.6-4.2,7.9-4.8c2.3-0.6,2.3-2.2,4.3-1.2c2.1,1,3.8,2.2,5,3.9
	c1.2,1.7,3,4.2,3.3,5.7c0.3,1.6,0.2,2.4,0.3,1.3c0.2-1.1-0.3-3.7-0.9-5.1c-1-2.3-2.8-5.1-4.3-6.3c-2.4-1.9-3.6-1.3-3.9-2.2
	c-0.3-0.9,0.2-0.9,0.9-1.9C161.6,105.5,161.9,104,161.5,101.3L161.5,101.3z"/>
<path d="M195.2,117.4c0.1,0.2-0.9,2.3-1.6,3.5c-0.7,1.2-3.3,4.4-3.8,4.7c-0.5,0.3-1.2,0.8-1.2,0.8s1.1,0.7,1.8,1.3l0.7,0.7
	c0,0-0.4,0.1,0.2-0.2c0.5-0.4,1.2,0.3,2.2-0.8c1-1.1,5.2-8.5,7.5-15.2c2.3-6.7,2.4-7,2.4-7l-3.7-4.3c0,0-2.6,4.6-2.7,6.4
	c-0.1,1.8-1.5,3.7-2.6,4.7c-1.2,1-4.9,6-6.1,7.1c-1.3,1.1-2.4,2.5-2.4,3.4v1.7l2.1,1.6c0,0,0-0.9,1-1.6c1-0.7,3.2-2.8,3.6-3.4
	c0.4-0.5,0.9-2.3,1.3-2.6C194.4,117.8,195.2,117.4,195.2,117.4L195.2,117.4z"/>
<path d="M205.7,107.6l3.1,3.3c0,0-0.4,0.9-1.2,1.7c-0.8,0.8-0.7,1.9-2.1,4.1c-1.4,2.3-1.7,2.9-1.7,3.5c0,0.5-0.1,1.7,0.8-0.1
	c0.9-1.7,2.8-5,3.4-5.7c0.6-0.7,2.3-1.6,2.3-1.6l2.5,2c0,0-0.2,0.6-1.2,1.2c-0.9,0.6-2.3,2.5-2.7,3.1c-0.4,0.6-0.9,1.6-1.3,1.7
	c-0.4,0.1-2.2,0.7-2.2,1.3s-0.1,1.2-0.5,1.7c-0.4,0.5-2.8,5.2-3.4,6.6c-0.6,1.3-0.8,2.9-1,3.8c-0.2,0.9-1.7,2.9-1.7,2.9
	s-1.6-1.6-3.3-3.5l-1.7-1.9c0,0,0.3-0.2,0.9-1.4c0.5-1.2,1.3-2.7,2.4-3.9c1.1-1.2,1.7-2.3,2.6-4.2c2.1-4.7,1.8-4.1,2.6-7
	C203.2,112.4,203.9,110.9,205.7,107.6L205.7,107.6z"/>
<path d="M219.2,127.8c0,0,2.9-1,3,0.3c0.1,1.3-0.7,2-0.7,2S222.1,128.5,219.2,127.8L219.2,127.8z"/>
<path d="M226.4,129.8c-1.2,0.5-3.1,1.2-3.6,2.5c0.4,2-2.3,1.3-2.9,2.7c0.8,1.4,0.3,3-0.9,4c-1,1.6-2,3.1-2.6,4.9
	c-0.2,1.9-0.4,3.7-1.3,5.4c-0.5,2-0.5,3.5-2.2,4.4c-1.2,1.4-2.1,1.8-3.8,2.1c0,0-3,0-3.1,1.6c0,0,0.4,3,0.9,3.1
	c0.5-1.5,1.3-2.8,2.9-3c2.2-0.8,4-2.3,5.4-4.2c1.3-1.9,1.4-4.3,1.8-6.5c0.5,0.3,0.7,2.5,1.1,3.4c0.7,1.4-0.1,2.9-1.1,4
	c-2.1,2.1-4.6,3.9-6,6.6c-1,1.7-1.7,3.3-1.6,5.3c0.5,0.5,2.3,2.5,1.7,0.7c-0.4-1.5-0.1-3,0.9-4.2c1.3-1.7,3-3.2,4.3-4.9
	c1-1.3,2.2-2.6,2.8-4.2c0.1-1.6-0.1-3.3-0.6-4.8c-0.9-1.2-1.3-2.6-1.1-4c0.1-2.9,2.2-5.2,4.5-6.8c1.3-1,0.6-2.9,1-4.2
	C222.3,131.5,226,131.1,226.4,129.8L226.4,129.8z"/>
<path d="M214.2,135.6c0.1,0.4,0.4,1.3,0.9,1.4c0.5,0.1,1.3-0.2,1.7-0.4c0.4-0.2,1.1-1,1.7-0.9c0.5,0.1,1,0.7,0.9,1
	c-0.1,0.3-0.3,1.2-0.8,1.6s-0.7,1-0.8,1.3c-0.1,0.2-0.7,0.1-1,0.5c-0.3,0.4-0.8,1.7-1.2,2.9c-0.4,1.2-0.4,1.1-0.7,2.8
	c-0.3,1.7,0,2.9-0.5,2.8s-0.1-4.9,0.4-6.2c0.5-1.3,0.9-1.7,1.1-2c0.2-0.3,0.1-0.7,0.5-0.9c0.4-0.2,1.8-1.4,2-1.8
	c0.2-0.4,0.5-1.1-0.2-0.5c-0.7,0.5-2,1-2.9,0.7C214.1,137.7,213.2,136.3,214.2,135.6L214.2,135.6z"/>
<path d="M209.7,132.4c0,0,1.5,1.6,1.9,1.7c0.4,0.1,0.5,0.1,0.5,0.1s-2,3.8-2.5,4.6c-0.5,0.7-0.4,1.9-1.2,3.6c-0.8,1.7-1,3.4-1.9,3.2
	c-0.8-0.2-0.6,0.1-0.7,0.7s-0.3,2.7-0.5,1.4c-0.2-1.3-0.5-2.9-1.3-4.2c-0.8-1.2-1.4-2.1-1.5-2.4c-0.1-0.3,0.3-0.9-0.2-1.8
	c-0.5-0.9-0.9-0.1-0.3-1.4s0.2-1.1,0.5-2.6c0.3-1.6,0.3-2.5,0.9-3.5c0.5-1,2.8-4.9,2.8-4.6c0,0.3,0.6,2.2,1.3,3
	c0.7,0.8,0.6,0.8,0.6,0.8s-0.1,1-0.7,1.8c-0.5,0.8-0.8,1.6-1.6,2.4c-0.7,0.9-1.6,3.1-1.8,4.6c-0.2,1.5,0,2.9,0.5,2.8s0.9-1.7,1.7-3
	c0.9-1.3,2.6-3.4,2.7-4.3C209.3,134.3,209.7,132.4,209.7,132.4L209.7,132.4z"/>
<path d="M213.2,134.6c0,0-0.7,1.2-1.1,2.6c-0.4,1.4,0.1,2.2-0.4,3.2c-0.5,1-1.3,3.4-1.8,4.7c-0.4,1.3-0.3,2-1,2.6
	c-0.7,0.6-2.1,1.9-2.1,1.9s-0.9,0-0.9,0.5s0,2,0.3,1.7s1.7-0.4,2.6-1.8c0.9-1.3,1.5-4.2,2.1-5.8c0.6-1.6,1.3-3.1,1.6-4.9
	c0.2-1.7,0.9-3.5,0.9-3.9L213.2,134.6z"/>
<path d="M215.2,138.6c-0.5,0-1.9,1-2.2,2c-0.3,1-0.7,3.6-0.7,4.7c0,1.2-0.1,4-0.9,5.4c-0.7,1.3-2.1,2.7-2.1,2.7s-0.4,0.4,0.5-0.1
	c0.9-0.5,3.2-2.5,3.2-3.8s0.1-6.8,0.5-7.8s1-2,1.3-2.2C215.2,139.3,215.3,138.9,215.2,138.6L215.2,138.6z"/>
<path d="M222.5,138.7c-0.3,0.2-2.2,1.2-2.4,2.5c-0.2,1.2-0.2,2.9-0.2,3.9c0,1-0.8,2.5-0.5,3.2c0.2,0.7,0.5,0.6,0.7,2.3
	c0.2,1.7-0.2,2.3,0.2,4.1s0.5,1.8,0.5,1.8s0.7-0.1-0.1,0c-0.8,0.1-1.6,1.7-2.6,2.6s-3.9,3.6-4.3,4.4c-0.5,0.9-1,2.3-1.1,2.6
	c-0.1,0.3-0.7,2-0.7,2l0.5,0.4l0.7,0.4c0,0-0.6,0.7,0.8-1.9c1.5-2.6,2-2.2,2.2-3.4c0.2-1.2,2.1-2.8,2.5-3.2c0.4-0.4,1.5-2.3,1.7-2.6
	c0.2-0.3-0.2-0.9,0.7-0.5c0.9,0.4,1.5,1.2,2.6,1.2c1.1-0.1,1.6-0.4,2.1,0.5c0.5,0.9,1.2,0.9,1.9,2c0.7,1,2.6,3.5,3.3,4.3
	c0.7,0.9,2,3.6,2.3,4.7c0.3,1.2,1,4.7,1,4.7h0.1c0,0,0-0.7,0-0.9c0-0.2-0.2-2.3-0.6-4c-0.4-1.7-1-2.9-1.7-4.3
	c-0.7-1.5-1.7-3.3-2.2-4.2c-0.5-0.9-1.2-2.3-1.2-2.3v-0.1c0-0.6-0.5-1.9-0.4-3.5c0.1-1.6-0.5-3.8-2.1-4.5c-1.6-0.7-2.8-0.5-3.4-0.4
	s-1.5,0.4-1.5,0c0-0.4,0.4-1.7,0.1-1.2c-0.2,0.5-0.5,1.4-0.2,2c1.9,3.5,2.1,3.1,4.4,3.5c0,0-0.3,0.3-0.8,0.3
	c-2.7-0.2-3.2-2.3-3.2-2.3c-0.2,1.6,1.3,2.8,2.3,2.9c0.5,0.1,2.4,0.2,2.7,0.1c0.3-0.1,0.6-0.6,0.8-0.4s0.5,0.4,0.5,1.1
	c0.1,0.7,0.3,2.6,0.1,2.2c-0.2-0.4-1-1.9-1.6-1.9c-0.6-0.1-1.3,0.5-3.2-0.1c-2.5-0.8-1.6-2.5-2.2-3.7c-0.5-0.9-0.4-4-0.4-4.6
	c0-0.5,0.2-2.8,0.2-3.9s0.9-3.5,1.1-4.3c0.2-0.8,0.9-1.6,0.9-1.6L222.5,138.7z"/>
<path d="M227.8,130.4c-0.2,0.2-0.8,0.3-1.3,0.5c-0.5,0.2-2,1-2.2,1.8c-0.2,0.7-0.4,2.3-0.2,2.6c0.2,0.4,0.5,0.3,0.2,0.9
	c-0.3,0.5-1.5,3.2-1.8,5.4c-0.3,2.1-0.2,2.9-0.5,3.6c-0.4,0.8-0.5,3.2-0.2,3.6s0.9,0.8,1.1,0.6c0.3-0.2,0.5-2.7,0.4-3.6
	c-0.1-0.9,0.5-1.1,0.6-2.3c0.1-1.2-0.4-2.3,0-3.2c0.4-0.9,1.8-3.3,1.6-4.2c-0.2-0.9-0.4-1.9,0-2.8
	C225.9,132.3,226.3,131.6,227.8,130.4L227.8,130.4z"/>
<path d="M139.7,121.8c0,0-0.5,1.1-0.9,1.8c-0.4,0.7,0.3,3.6,0.3,3.6S139.3,125.1,139.7,121.8z"/>
<path d="M155.8,113.8c0.3-0.1,4.1-1.3,4.6-1c0.5,0.3,4.6,3.5,4.9,3.7c0.3,0.3-0.4,0-1.9-0.6C161.8,115.3,159.2,114.1,155.8,113.8
	L155.8,113.8z"/>
<path d="M146,123.4c0-0.7,0.9-2.5,1.5-2.9c0.6-0.4,4.4-1.3,6-1.9s4-2.5,6-1.9s4.4,2.1,5.7,3.1c1.3,1,2.3,1.6,2.5,2
	c0.2,0.4,2.1,4,1.6,3.3c-0.5-0.7-1.6-1.7-3-2.9c-1.5-1.2-4.9-3.6-7.3-3.1c-2.4,0.4-5.1,1.4-6.5,1.4c-1.4,0-2.9,0.2-4.2,1.2
	S146,123.4,146,123.4L146,123.4z"/>
<path d="M160.2,123c-1.2,0-2.1,0.2-3.9,0.3c-1.8,0.1-3.1-0.2-4.3,0.1s-3.4,1.7-3.8,2.3c-0.4,0.5-1.4,2.4-0.9,1.6
	c0.4-0.9,3.2-2.3,5.9-2.4c2.7-0.1,5-0.1,6.3-0.1s3.2,0.1,4.3,0.5c1,0.4,3.6,0.6,4.2,1.4s1.3,2.1,0.9,1.1c-0.4-0.9-1-2.8-2.9-3.1
	C164,124.2,160.2,123,160.2,123L160.2,123z"/>
<path d="M168.2,128.4c-0.6,0.2-1.6,0.8-5.7,0.3c-4.1-0.5-7-1-7.9-0.8c-0.9,0.3-6.1,2.9-6.1,2.9s-0.9,0.3,0.9,0
	c1.9-0.3,6.4-2.4,8.7-1.6c2.3,0.9,7.8,1.4,8.7,0.9C167.3,129.6,169,129,168.2,128.4L168.2,128.4z"/>
<path d="M233.3,135.5c0,1.1,0.4,1.6,0.5,2.3c0.2,0.7-2.1-1.9-2.9-2.3c-0.6-0.4-0.4,1.7-0.7,0.7c0-0.3-0.2-1.2-0.3-0.4
	c-0.5,0.9,0-0.8-0.4-0.8c-0.3,0.9-0.5-0.7-1.2-0.5c-0.5,0.5,0.1,1.2,0.2,1.7c-0.2,0.5-0.9,0.5-0.9,1.1c-0.4,0.9,0.3,1.8-0.2,2.6
	c-0.3,0.7-0.2,1.5-0.3,2.3c-0.2,0.5-0.4,1.1-0.3,1.7c0,0.7,0.1,1.4-0.1,2.1c-0.5,1.2-1.4,2.3-1.5,3.6c-0.5,0.3-1.4-0.1-1.1-0.8
	c-0.1-0.7-0.2-1.4,0.1-2c0.3-0.7,0.6-1.4,0.5-2.1c0-0.6-0.6-1.3-0.2-1.9c0.7,0.2,0.6-0.9,0.8-1.3c0.5-2,1.1-4.1,1-6.2
	c0-0.6,0.2-1.4,0.9-1.6c0.7-0.3,1.6-0.5,2.3-0.1C231.2,135.6,232.8,135.5,233.3,135.5L233.3,135.5z"/>
<path d="M229.9,136.9c-0.3,0.1-0.9,0.5-0.9,0.9c0,0.4-0.2,0.7-0.4,1s-0.3,0.6-0.4,1.7c-0.1,1.1,0,2.3-0.2,3.5
	c-0.2,1.2-0.2,1.6-0.4,2.2c-0.2,0.5-0.2,1.4-0.4,1.9c-0.1,0.5-0.5,1.1-0.5,1.3c0,0.2,0,0.4,0.2,0.7c0.2,0.4,0.5,0.8,0.9,1.6
	c0.4,0.9,0.5,1.9,0.5,1.6c0-0.3-0.2-1.2,0.4-1.9c0.6-0.6,0.6-1.3,0.7-3.1c0.1-1.8,0.4-4,0.5-4.6c0.1-0.6,0-1.6,0.2-2.7
	c0.2-1,0-2.4-0.1-2s-0.5,1.2-0.5,2c0,0.8,0,1.8-0.1,2.4c-0.1,0.6-0.1,1.2-0.3,0.8c-0.2-0.4-0.3-1.4-0.2-2c0.1-0.6,0.4-1.6,0.4-2.2
	c0-0.5-0.1-1.6,0.1-1.9C229.6,137.7,229.9,136.9,229.9,136.9L229.9,136.9z"/>
<path d="M238.5,149.4c0,0,0.3-1.2-0.7-2.6c-0.3-0.5-0.5-1.2-1.6-3.1c-0.3-0.5-1.3-2.2-1.4-2.9c-0.2-0.5-0.3-1.2-0.6-2
	c-0.1-0.2-0.4,0.4-0.2,0.8s-0.1,0.8-0.2,0.2c-0.1-0.5-0.7-1.2-0.7-0.7c0,0.5,0,1-0.2,0.4s-0.7-0.8-0.7-0.3c-0.1,0.5-0.2,1.4,0.2,2
	c0.3,0.5,1.1,1.8,1.1,1.3c0-0.5,0-1.1,0.1-0.7s0.2,0.9,0.3,1.1s0.5,0.3,0.7,1.1c0.2,0.7,0,1,0,2c0,0.9,0.3,1.6,0.5,2.5
	c0.2,0.9,0.7,2.8,1.1,4.2s0.5,3.2,0.6,3.7c0.1,0.5,0.3,2.2,0.3,2c0-0.1,0.2-2.7,0.2-3.4c0-0.7-0.6-3.9-0.9-4.3
	c-0.2-0.5-0.9-2.2-1-2.7s-0.3-1.6,0-1.2s0.5,1.6,0.9,2.4c0.5,0.8,1.1,2.2,1.2,2.6c0.1,0.4-0.1,1.5,0.1,1.2s0.5-0.9,0.3-2.1
	c-0.3-1.2-1.2-3.3-1.7-4c-0.5-0.7-1-1.8-1.2-2.9s-0.8-2.9-0.3-1.6c0.5,1.3,1.7,3.2,2,3.7c0.4,0.5,1,1.7,1.3,2.3
	C238.4,148.9,238.5,149.4,238.5,149.4L238.5,149.4z"/>
<path d="M230.9,136.7c-0.1,0.3-0.4,0.4-0.3,1.1c0,0.7,0.6,1.4,0.5,2c-0.1,0.6-0.4,1.9-0.4,1.6c0.1-0.3,0.8-1.8,0.6-2.4
	c-0.2-0.6-0.5-0.9-0.5-1.4C230.8,137.2,230.9,136.9,230.9,136.7L230.9,136.7z"/>
<path d="M136.3,137.5c-0.7,0-1.7-0.1-2.8,0.5s-2.4,2.5-2.6,3.1s-0.5,2-0.5,3s0.1,2,0.7,2.1s0.9,0.1,2-0.7c1-0.8,1.7-2,2.3-2.7
	c0.6-0.7,1.4-1.1,1.1-2c-0.3-0.9-0.4-1.9-0.3-2.1s0.5-0.8,0.5-0.9C136.5,137.7,136.3,137.5,136.3,137.5L136.3,137.5z"/>
<path d="M125.3,146.2c0.2-0.1,1.1-0.9,1.3-0.8c0.3,0.1,0.9,0.8,1.2,1.2c0.4,0.5,0.9,1.1,1.6,1.4c0.6,0.3,2.3,1.1,2.8,1.6
	c0.5,0.4,2.8,2,2.8,2.2s0.2,1.8,0.2,1.8l-0.6,0.9c0,0,0-0.1,0.1-0.9c0.1-0.7-0.4-1.2-1-1.7c-0.5-0.4-1.2-1.1-1.9-1.7
	c-0.7-0.6-1.3-1.3-2.7-2.1c-1.3-0.7-2.2-0.9-2.3-1.4c-0.1-0.5-1.3-0.1-1.9,0.2L125.3,146.2z"/>
<path d="M146.4,133.8l-0.5,0.8c0,0,0.3,0.4,0,0c-0.3-0.4-0.7-0.6-1.1-0.6s-1.4,0.7-1.9,0.7c-0.5,0-0.8-0.5-1.3-0.7
	c-0.5-0.1-1.1,0-2.1,0.1c-1,0.1-2.6-0.1-2.3-0.1c0.3,0,2.7-0.2,3.5-0.3s1.4,0,1.9,0.3c0.5,0.2,0.7,0.3,1.2,0s0.8-0.7,1.4-0.7
	C145.7,133.2,146.4,133.8,146.4,133.8L146.4,133.8z"/>
<path d="M130.2,130.4c0.3,0.2,0.9,0.7,1.6,1c0.7,0.3,1.6,0.7,2.5,0.8c0.9,0.1,2.2,0,2.5,0.1s0.3,0.6,1,0.6c0.7,0,1.5-0.2,2.3-0.4
	c0.9-0.1,1.8-0.2,2.2-0.1c0.3,0.1,0.4,0.4,0.4,0.4s-1.5,0-2.2,0c-0.7,0-1.8,0.2-2.4,0.3s-0.9-0.2-1.2-0.4c-0.4-0.2-0.8-0.2-2.2-0.3
	c-1.4-0.2-1.9-0.2-2.9-0.7c-0.9-0.5-1.7-1.1-1.7-1.1L130.2,130.4z"/>
<path d="M137,128.5c0.2-0.1,2.7-0.4,3.6-0.3c0.9,0.1,2.3,0.6,3.4,0.9c1,0.2,3.6,0.4,3.6,0.6c0,0.2,0.3,0.9,0.2,1.2
	c-0.1,0.3,0.7,0.4-0.3,0.4c-1,0-3-0.1-4,0c-1,0.1-1.2,0-2.5-0.7c-1.3-0.7-2.3-1-2.8-1.2S137,128.5,137,128.5L137,128.5z"/>
<path d="M143,138.4l0.8-0.9H143c-0.7,0-3.2,0.4-3.5,0.5c-0.4,0.1-0.5,0.3-0.6,0.2s-0.3-0.6-0.2-1.2c0.1-0.5-0.3-1.3-1.3-1.5
	c-1-0.2-2.9-0.2-4.2-0.4c-1.3-0.2-2.3-0.4-1.2-0.1c1.1,0.3,5.4,0.7,5.6,0.8c0.2,0.1,0.5,0.5,0.8,1.4c0.2,0.9,0.5,1.6,0.9,1.6
	c0.4-0.1,1.7-0.9,2.3-0.9s0.9-0.1,1.1,0C142.8,138,143,138.4,143,138.4L143,138.4z"/>
<path d="M142,140.6c-0.1,0.1-0.7,1-0.7,1s0,0.1-0.2-0.2c-0.2-0.4-0.6-0.6-0.7-0.6s-0.6-0.1,0-0.2C141,140.6,142,140.6,142,140.6z"/>
<path d="M138.4,143.2c0,0.1,0.3,1.1,0.4,1.5c0.1,0.3,0.3,0.7,0.2,0.9c-0.1,0.2-0.6,1-0.9,1.3c-0.2,0.3-0.6,1.2-0.6,1.2
	s-0.1,0-0.1-0.4c0-0.4,0-0.7-0.4-0.5s-1,0.1-0.5-0.2c0.5-0.3,0.9-0.4,1-0.4c0.1-0.1,0.2-0.2,0.2,0s0.3,0,0.5-0.4
	c0.2-0.4,0.2-0.7,0.1-1.5C138.3,144,138.4,143.2,138.4,143.2L138.4,143.2z"/>
<path d="M135.6,147.5c0.1,0.7-0.2,3.4-0.2,3.4l0.6-2l-0.1,2.9c0.2-1,0.6-1.8,1-2.8c0,0,0.5-0.3,0,0c-0.5,0.3-0.6,1.1-0.6,0.3
	s0.1-1.3-0.2-1.3c-0.2,0-0.3,0-0.3-0.2C135.8,147.7,135.6,147.5,135.6,147.5L135.6,147.5z"/>
<path d="M128.6,143.8c0.3,0.6,0.5,1,1.2,1.9c0.8,0.9,0.6,1,1.7,1.7c1,0.6,3.1,1.2,2.5,1s-3.4-0.9-3.8-1.3c-0.5-0.5-0.8-1.9-1.1-1.4
	c-0.3,0.5-1.3,0.8-0.9,0.4c0.5-0.3,0.9-0.4,0.5-1C128.3,144.5,128.6,143.8,128.6,143.8L128.6,143.8z"/>
<path d="M124.2,150.2l-0.3,1.2c0,0-0.2,0,0.3-0.2s0.9-0.4,1.4-0.4c0.6,0,1.7,0.2,1.9,0.2c0.3,0,0.6-0.1,0.4-0.3
	c-0.3-0.2-0.9-0.9-1-1.2c-0.1-0.4-0.4-1.5,0.1-0.9s0.7,0.7,1.1,1c0.4,0.3,0.4,0.1,0.6,0.9c0.2,0.8,0.3,0.8,0.9,1.3s0.7,1.7,0.7,1.7
	s0.3-0.6,0.5-0.9s0.9-0.7,0-1s-1.7-0.2-1.6-0.9c0.1-0.7,0-1.1-0.6-1.5c-0.7-0.3-1.6-1.9-2.1-1.6c-0.5,0.4-0.4,1.6-0.1,2.2
	c0.4,0.6,1.5,1.2,0.9,1.1c-0.6-0.1-1.8-0.2-2.2-0.4C124.8,150.2,124.2,150.2,124.2,150.2L124.2,150.2z"/>
<path d="M131.3,154.5c0.1,0,1.8-0.3,2-0.3s0.8,1.3,0.8,1.3l0.2,0.4c0,0-0.5,0.8-0.8,1.6c-0.3,0.7-0.6,2-0.6,1.3
	c-0.1-0.7-0.2-1.7-0.6-1.7s-1.1-0.5-1.7-0.5s-1.2,0.1-2,0.1c-0.8,0-1.9,0-2.1-0.3c-0.2-0.3-0.2-0.5-1.1-0.5c-0.9,0-2.7-0.5-2.7-0.5
	s0.3-1,0.5-0.7s0.4,0.9,1.3,0.7c1-0.2,1.2,0.1,2.6,0c1.4-0.1,2.1,0.1,3.1,0.3c1,0.2,1.9,0.3,2.3,0.8c0.3,0.5,0.6,1.4,0.6,1.4
	s0.9-1.4,0.9-1.6c-0.1-0.2-0.4-0.7-0.7-1c-0.4-0.3-0.2-0.8-0.9-0.5c-0.6,0.3-1.2,0.3-1.9,0.2c-0.6-0.2-2.2-0.8-3.2-0.5
	s-2.1,0.4-2.9,0.3s-1.4-0.6-1.4-0.6l0.2-0.7c0,0,1.7,0,2.6,0.3c0.9,0.3,1.6,0.4,1.6,0.3c0-0.1-1.9-0.6-2.3-0.7
	c-0.5-0.1-1.7-0.7-1.7-0.7l1.7,0c-0.3,0,3.2,0.9,3.9,1.2c0.7,0.3,1.2,0.5,1.6,0.5S131.4,154.5,131.3,154.5L131.3,154.5z"/>
<path d="M131.2,162.1c0-0.1,0.7-1.5,0.7-1.6c0-0.1,0.5-0.5-0.3-0.9c-0.8-0.3,0-0.6-2.1-0.3c-2.1,0.3-3.2,0.4-4,0.3
	c-0.7-0.2-0.9-0.3-1.2-0.2s-0.5,0.4-0.7,0s0-0.4-0.5-0.5c-0.5-0.1-1.3-0.9-1.3-0.9l-0.2,1.1c0,0,0.7,0.2,1,0.4
	c0.3,0.1,1,0.1,1.2,0.2c0.2,0.2,0.1,0.2,1.1,0.5c0.9,0.2,3.2,0.5,3.4,0.5c0.2,0,1.2-0.1,1.4-0.2c0.2-0.2,1.4-0.4,1.6-0.1
	C131.5,160.4,131.5,161.2,131.2,162.1L131.2,162.1z"/>
<path d="M121.4,160.6c0,0.1,0,1.6,0,1.6s-0.4-0.1,0.2,0.4c0.6,0.5,0.9,0.5,1.3,0.5s0.4,0.3,1,0.4c0.6,0.1,0.9,0,1.3-0.1
	s0.9,0.3,1.6,0.4c0.7,0.1,1.6-0.2,2-0.4s1-0.3,1-0.3s-0.2-0.4-0.6-0.4c-0.4,0-0.6,0-1.2,0.2c-0.6,0.2-1,0.3-1.5,0.1
	c-0.5-0.2-0.3-0.2-1.1-0.2c-0.8,0-1.7,0.1-2.3,0.1c-0.6,0-1.4-1.1-1.2-1c0.2,0.1,1.9,0.5,2.1,0.5c0.2-0.1,1.3,0-0.1-0.4
	c-1.4-0.4-2.1-0.7-2.3-0.9C121.5,160.9,121.4,160.6,121.4,160.6L121.4,160.6z"/>
<path d="M120.7,165.2l-0.3,1c0,0-0.2,0.1,0.2,0.2c0.4,0.2,0.4,0.1,1,0c0.6-0.1,1.8-0.2,2.2,0c0.4,0.2,1,0.6,1.9,0.9
	c0.8,0.3,1.8,0,1.8,0s0.4-0.2,0,0s-1.4,0.5-1.9,0.5c-0.5,0-1.1-0.4-1.9-0.7c-0.7-0.2-0.8,0-1.4-0.5
	C121.7,166.2,120.7,165.2,120.7,165.2L120.7,165.2z"/>
<path d="M125.5,171.1l0.4-0.9c0,0,0.5,0-0.2-0.3c-0.7-0.2-2-0.3-2.3-0.2c-0.3,0.1-0.5,0.2-0.7,0.3s-3.9,0.3-3.9,0.3s2.8-0.3,3.5-0.2
	c0.6,0.1,1.2,0,1.7,0c0.5,0,1.6,0,1.7,0.1C125.7,170.3,125.5,171.1,125.5,171.1L125.5,171.1z"/>
<path d="M121.6,165.4c0.4,0,1.4,0.1,1.8,0.1c0.4-0.1,2.3,0.4,1.8,0.4c-0.5,0-1.4,0-2.3,0C122.2,165.8,121.6,165.4,121.6,165.4
	L121.6,165.4z"/>
<path d="M120.2,172.5c0.2-0.1,1.2-0.3,1.6-0.3s1.1-0.3,1.3,0s0.3,0.5,0.6,0.5c0.3,0,0.9,0.1,0.9,0.1l0.1,0.1l-0.3,0.6
	c0,0,0.1,0.2-0.2,0.1c-0.2-0.2-0.5-0.4-0.7-0.3c-0.2,0.1-0.4,0.2-0.6-0.1c-0.2-0.3-0.3-0.3-0.8-0.3c-0.5,0-0.8-0.1-1.3-0.1
	C120.3,172.5,120.2,172.5,120.2,172.5L120.2,172.5z"/>
<path d="M117.2,174.7c0.3-0.1,2.3-0.3,3.6-0.2c0.4,0,2.9,0.6,2.9,0.6l-0.1,0.4c0,0-2.1-0.4-2.7-0.5c-0.6,0-2.9-0.1-3.4-0.1
	c-0.5,0-0.7,0-0.6-0.1C117,174.8,117.2,174.7,117.2,174.7L117.2,174.7z"/>
<path d="M120,177.2c1,0.2,1,0.3,1.9,0.2s1.1-0.2,1.1-0.1c0,0.1-0.3,0.6-0.3,0.6s-0.3-0.5-0.5-0.4s-0.7,0.5-1.1,0.2
	c-0.4-0.2-1.1-0.5-1.1-0.5V177.2z"/>
<path d="M118.9,179.7c0.1,0.2,0,0.3,0.5,0.3c0.6,0,0.9,0,0.8,0.1c0,0.1-1.1,0.6-1.3,0.3C118.8,180.1,118.9,179.7,118.9,179.7z"/>
<path d="M120.8,180.1c0.2,0.1,0.5,0.2,0.7,0.4c0.2,0.2,0.2,0.2,0.2,0.2l-0.2,0.5c0,0-0.2,0.1-0.3-0.2c-0.2-0.2-0.4-0.2-0.4-0.4
	C120.7,180.5,120.8,180.1,120.8,180.1L120.8,180.1z"/>
<path d="M121.1,182.5c-0.3,0-0.8,0-1-0.2c-0.2-0.2-0.6-0.2-0.9-0.3c-0.3-0.1-0.5-0.2-1-0.2c-0.5,0-0.9,0.1-1.2-0.1
	c-0.4-0.2-0.9-0.4-1.2-0.3c-0.3,0.1-1.1,0.3-1.3,0.3s-0.6,0.1-0.3,0.1c0.3,0,1.2-0.1,1.6-0.1c0.4,0,0.4-0.1,0.9,0.2s0.9,0.5,1.2,0.5
	c0.3-0.1,0.3-0.2,0.8-0.1c0.5,0.1,1,0,1.1,0.1c0.2,0.1,0.3,0.2,0.7,0.2C120.8,182.6,121.1,182.5,121.1,182.5L121.1,182.5z"/>
<path d="M119,184.1c0.6,0.1,0.7-0.1,1.2-0.1s0.6-0.2,0.6,0.1c0,0.2,0.1,0.3-0.3,0.4s-0.2,0.6-0.8,0.5s-2.5-0.9-2.7-0.8
	c-0.2,0.1-0.7,0.1-0.8,0.3c-0.1,0.2-0.3,0.7-0.2,0.8s0.1,0.1,0.6,0.3c0.6,0.3,1-0.2,1.6,0.3c0.5,0.5,0.7,0,1.2,0s0.5,0.3,0.5,0.2
	s0.7-0.3,0.7-0.3c-0.7,1.5-2.1,1.9-2.4,0.5c0-0.3,0-0.7-0.2-0.3c-0.2,0.5,0,0.6-0.7,0.5s-0.7,0-1.1,0.2c-0.5,0.2-1.1,0.6-1.4,0.6
	c-0.3,0-0.4,0.2-0.2,0.4c0.2,0.2,0.4,0.5-0.3,0.6c-0.7,0.1-1.4-0.1-1.2-0.3c0.2-0.2,0.3-0.7-0.1-0.5s-0.9,0.2-0.5-0.1
	c0.4-0.3,0.4-0.6,0.1-0.6c-0.3,0-0.6-0.2-0.5-0.5c0.1-0.2,0.5-1.9,0.5-1.8c0,0.2-0.2,0.6,0.3,0.6c0.4,0,0.5-0.4,1.2-0.1
	c0.7,0.3,1.7,0.3,1.6,0.1c-0.1-0.2,0.1-0.5-0.9-0.5c-1-0.1-2.1-0.4-2.1-0.4s0.4-0.4,0.3-0.7c-0.1-0.3-0.2-0.9,0.2-0.6
	s0.9,0.8,1.8,0.8c0.8,0,1.8-0.2,2.4,0C118,183.9,119,184.1,119,184.1L119,184.1z"/>
<path d="M121.7,186.9c0,0,3,4.9-0.8,5.3c-3.8,0.4-7.9,0.4-8.8,0c-0.9-0.4-1.7-2.2-0.6-2.7c1.2-0.5,4.2-1,5.3-2.6
	c1.2-1.7,2.3-1.6,3.1-1.8C121,184.8,121.7,186.9,121.7,186.9L121.7,186.9z"/>
<path d="M150.8,134c0.2-0.1,2.1-1.1,3-1.1c0.9,0,2.4-0.2,3.4,0c1,0.2,1.6,0.5,2.7,0.4c1.1-0.1,4.3-0.9,5-1.1
	c0.7-0.3,3.1-0.9,3.1-0.9l-0.3,0.9c0,0-2.6,1.4-3.4,1.4c-0.7,0-3.6,0.5-3.6,0.7c0,0.3-0.1,0.6,1.7,0.6c1.8,0,5-1.1,5-1.1l-0.3,1.2
	c0,0,0.2,0-0.8,0.3c-0.9,0.4-2,2-4.5,0.8c-2.5-1.2-4.6-1.9-5.7-2c-1-0.1-2.5-0.3-3.5-0.4C152.4,133.7,150.4,134.3,150.8,134
	L150.8,134z"/>
<path d="M166.8,136.9l-0.2,1.2c0,0,0.9-0.1-0.1,0.1c-1,0.2-0.8,0-1.8,0.3c-1,0.4-4.3,1.4-5.8,1.5c-1.5,0-2.1-0.5-3.3-0.6
	c-1.2-0.1-3.6-0.9-3.5-0.9s0.1-0.3,1.8-0.3c1.7,0,1.1-0.2,4.2,0c3,0.2,5.4-0.3,6.5-0.4C165.7,137.5,166.8,136.9,166.8,136.9
	L166.8,136.9z"/>
<path d="M166.2,139.6c-0.3-0.2-1.4-0.6-1.8,0c-0.4,0.5-1,1.3-2.2,1.5c-1.1,0.2-3.3,0.3-3.7,0.3c-0.4,0-1.6-0.9-0.6-0.1
	c1,0.9,2.3,2,3.4,1.4c1-0.6,2.5-2,3.3-2.1c0.8-0.1,1.5-0.1,1.5-0.1L166.2,139.6z"/>
<path d="M152.7,142c0.4,0.1,2.5,0.7,3.7,0.9c1.2,0.2,2.9,0.6,3.3,0.6c0.4,0,1.1-0.6,0.4,0.1c-0.7,0.7-3,0-4.6-0.1
	c-1.6,0-2.6-0.4-2.7-0.7C152.7,142.4,152.7,142,152.7,142z"/>
<path d="M166,141.2c-0.4,0.2-1.6,1-2.6,1.7c-1,0.7-2.6,1.1-2.9,1.4c-0.3,0.3-0.1,1.3-1.3,1.5c-1.2,0.2-3.8,0.3-4.7,0.3
	s-1.9-0.4-1.9-0.4s0.2,1,1.2,1.4c1,0.4,3.9,0.3,4.3,0.6c0.3,0.3,1.8,1.4,3.6,0.5c1.8-0.9,2.2-0.9,2.4-1.3c0.2-0.4,1.5-1.5,1.5-1.5
	l0.3-1.2c0,0-0.2-0.6-0.7-0.2c-0.5,0.5-0.6,1-0.6,1s-0.7,0.3-0.9,0.6c-0.1,0.3-0.9,0.2-1.3,0.5c-0.4,0.3-2.6,1-3.1,1
	c-0.5,0-1.8-0.6-1-0.7c0.7-0.1,2.6-0.7,3.1-1.2c0.5-0.5,1.7-1.1,2.4-1.4s1-1.2,1.3-1.4c0.3-0.2,0.8-0.4,0.8-0.4L166,141.2z"/>
<path d="M165.7,147.4l-0.1,1.2c0,0-0.6-0.2-0.8-0.2c-0.3,0-0.6-0.1-0.3-0.6c0.3-0.5,0.6-0.9,0.7-0.7
	C165.3,147.3,165.7,147.4,165.7,147.4z"/>
<path d="M165.4,151.2c0-0.2,0-1.3,0-1.3s0-0.4-0.6-0.2c-0.6,0.2-0.8,0.3-1.4,0.1c-0.6-0.2-0.7-0.4-1.9-0.3c-1.2,0-1.2,0.4-2.9-0.2
	c-1.6-0.6-3.3-1.8-2.6-0.8c0.7,0.9,1.3,1.4,3.4,1.7c2,0.3,3.2,0,3.9,0.4c0.7,0.4,0.9,0.5,1.4,0.6
	C165.1,151.2,165.4,151.2,165.4,151.2L165.4,151.2z"/>
<path d="M165.5,152.5l0.1,1.2c0.1,0.5-2.1-0.3-3-0.4c-0.9-0.1-0.3,0-2.3,0c-2,0-3.7-0.6-4.3-0.7c-0.7-0.1-2.7-1.2-2.4-1.1
	s0.9-0.3,1.7-0.3c0.8,0-0.4-0.9,1.9-0.1c2.3,0.9,4.6,1,5.4,1.1c0.8,0,1.3,0,1.6,0.1C164.3,152.2,165.5,152.5,165.5,152.5
	L165.5,152.5z"/>
<path d="M166.1,155.9l-0.1-1c0,0-0.7-0.4-1.1-0.4c-0.4,0-0.4,0.6-1.7,0.6c-1.3,0-2.1-0.6-3.6-0.3c-1.4,0.4-4.9,1-5.1,1.1
	c-0.2,0.1-0.2,0.6-0.2,0.6s1.4,0.6,2.6,0.4c1.1-0.1,2.7,0,2.9-0.1c0.2-0.1,1-1.1,1.7-0.9c0.6,0.2,1.5,0.5,2.4,1.1
	c0.9,0.6,2.1,1.3,2.1,1.3L166,157c0,0-0.9-0.6-1.2-0.6c-0.4,0-1.6-0.5-1.6-0.6c0-0.2,0.6-0.3,1.1-0.3
	C164.7,155.4,166.1,155.9,166.1,155.9L166.1,155.9z"/>
<path d="M160.7,157.6c0.5,0.1,2,0.1,2.7,0.2c0.6,0,0.2-0.3,1.2,0.6c1,0.9,1.6,1.6,1.6,1.6s-0.1,1.2-0.1,1.1c0-0.2-1.4-1.7-1.9-1.9
	c-0.6-0.3-1.4-0.2-2.1-0.4C161.2,158.4,160.7,157.6,160.7,157.6L160.7,157.6z"/>
<path d="M155,159.9c0,0,0,1.4,0.1,1.4c0.2,0,3.1-0.6,4-0.6s3.3,0,3.7,0.3c0.5,0.2,1,0.8,1.4,0.9c0.4,0.2,0.7,0.1,0.9,0.5
	c0.2,0.4,0.9,1.6,0.9,1.6l0-1.2c0,0-0.7-1.5-1.2-2c-0.5-0.5-1.2-1.1-1.7-0.9s-0.6,0.2-1.2,0c-0.5-0.3-0.3-0.4-1.5-0.5
	c-1.2-0.1-1.8-0.3-2.8,0C156.8,159.6,155,159.9,155,159.9L155,159.9z"/>
<path d="M155.5,163.6c1.6,0.1,3.7-0.5,3.7-0.5s0.7,0.1,1.2,0c0.4-0.1,2.3-0.7,2.9-0.5c0.6,0.3,2.4,1.3,2.5,1.9s0.1,2.5,0.1,2.5
	s0-0.2-0.1-0.6c-0.1-0.5-0.6-1.5-1.2-1.8c-0.6-0.3-2.3-1.1-2.8-0.8c-0.5,0.3-3,1.2-4,1C156.9,164.5,155.5,163.6,155.5,163.6
	L155.5,163.6z"/>
<path d="M156.8,166.2c0.2-0.3,0.7-0.9,0.7-0.9l0.1,0.9l-0.5,1L156.8,166.2z"/>
<path d="M157.4,169.9c0.4-0.6,1.1-2.8,1.9-2.7s2.9-0.9,3.5-1c0.6-0.2,1.1-0.8,1.6-0.2c0.5,0.6,0.6,1.9,0.9,2.4
	c0.2,0.5,0.4,1.5,0.4,1.5s-0.6-1.6-0.9-2.1c-0.3-0.5-0.1-1.1-0.8-0.6s-0.4,0.9-1.2,0.9c-0.9,0-1.2,0.1-1.9,0.4
	c-0.8,0.3-0.9-0.2-1.4,0.4c-0.5,0.6-1.8,1.9-1.8,1.9L157.4,169.9z"/>
<path d="M162.9,171.8c-0.5,0-1.4,0.6-2.2,0.6c-0.8,0-1.4-0.3-0.9-0.6c0.5-0.2,1.8-0.7,2.9-0.9c1.1-0.2,2.3-0.7,2.3-0.9
	s-0.2-0.6,0.1-0.3c0.3,0.3,0.7,1.9,0.7,1.9s-0.1-1-0.9-0.9c-0.8,0.2-1.2,0.2-1.4,0.6C163.5,171.6,162.9,171.8,162.9,171.8
	L162.9,171.8z"/>
<path d="M158.6,176.3l-0.1-0.7c0,0,0.7-1,1.3-1c0.6,0,2.4,0,3.1-0.2c0.7-0.2,1.7-1.2,2.2-1.3s0.8-0.1,0.9,0.1c0,0.3,0.3,1.7,0.3,1.7
	s-0.3,0.8-0.3,0.4c0-0.4,0.1-1.8-0.4-1.7s-0.4,0.3-1,0.6c-0.6,0.3-1,1.2-2.5,1.1c-1.4-0.1-2.1-0.3-2.5,0
	C159.2,175.6,158.6,176.3,158.6,176.3L158.6,176.3z"/>
<path d="M166.2,175.8c0,0.2,0.1,1.2,0.1,1.2s-0.4-0.3-0.6,0s-1.1,1.2-2,1.2c-0.9,0-2.5,0.2-2.8,0.3s-1.9,1.2-1.9,1.2s-0.7-0.1,0-0.5
	c0.7-0.4,2.4-1.4,3.2-1.5c0.8,0,2.3-0.2,2.9-0.6C165.4,176.8,166.2,175.8,166.2,175.8L166.2,175.8z"/>
<path d="M162.6,180.6c-0.4,0.3-0.9,0.6-1.2,0.6c-0.4,0-0.4,0.3-0.9,0.5c-0.5,0.2-1.6,0.6-1.4,0.6s1.8,0,2.1-0.1
	c0.3-0.1,1.2-1.2,1.3-1.3C162.7,180.7,162.6,180.6,162.6,180.6z"/>
<path d="M162.5,182.2c1.8,0.1,2.9-0.1,2.6,0s-1.3,0.4-1.9,0.3C162.6,182.5,162.5,182.2,162.5,182.2L162.5,182.2z"/>
<path d="M159.9,184.5c0.5-0.2,1.3-0.4,2.5-0.3c1.2,0.1,1.7-0.2,2.2-0.6s1.3-0.3,1.3-0.3s0.1,0-0.4,0.3c-0.5,0.3-2.1,1.1-2.8,1.1
	c-0.7,0-1.5-0.2-1.9-0.2H159.9L159.9,184.5z"/>
<path d="M159.8,187.2c0.9-0.5,3-0.9,3.5-0.9c0.5,0,2.4-1.5,2.6-1.6c0.2-0.2,1.7-0.7,0.7,0.1c-1,0.9-1.7,1.6-3.1,1.8
	C162.2,186.8,159.8,187.2,159.8,187.2L159.8,187.2z"/>
<path d="M167.8,185.1c-0.5,0.8-2.1,2.6-3.2,2.8c-1.1,0.3-2.5,0.3-1.6,0.4c0.9,0,3.9-1.2,4.3-1.8C167.8,185.9,168,185.3,167.8,185.1
	L167.8,185.1z"/>
<path d="M162.2,188.6c-0.8,0.1-2.8-0.3-2.7,0.6c0,0.9-0.6,1.4,0,1c0.6-0.4,1.4-0.8,1.7-0.9C161.5,189.3,162.2,188.6,162.2,188.6z"/>
<path d="M168.9,187.2c-0.5,0.1-1.4,0.8-2.1,1.3c-0.7,0.5-0.8,1.1-1.9,1c-1.1-0.1-2.6-0.5-1.9-0.2c0.7,0.3,2.5,0.3,1.9,0.7
	c-0.6,0.4-0.9,0.9-1.6,1.3c-0.7,0.4-3,1.8-3,1.8s0.3,0.8,0.9,0.2c0.6-0.6,2.5-1.6,3.2-2.3c0.7-0.7,2-1.5,2.6-1.5s2.6-0.1,2.6-0.1
	l-0.3-0.9c0,0-1.4,0.6-1.9,0.6c-0.5,0-0.9,0.4,0.2-0.4l1.4-1L168.9,187.2z"/>
<path d="M162.9,190c-1.1,0.5-3.3,1.3-3.3,1.5s0,0.8,0.2,0.7c0.2-0.1,1.6-1,2.2-1.1C162.4,190.9,162.9,190,162.9,190L162.9,190z"/>
<path d="M215.5,169.6c0.3,0.4,0.4,1.1,0.8,1.8c0.4,0.6,0.7,1.2,0.7,1.1c0-0.2,0.8-3.3,0.9-4c0.1-0.7,0.7-3.2,1.2-3.3
	c0.4-0.2,1.5-0.6,1.9-0.9s1.6-1.3,2.2-1.2c0.6,0.1,2.8,1.1,3.6,1.9c0.7,0.8,2.8,2.4,3,2.6c0.2,0.3,0.4,0.7,0,0.6
	c-0.4-0.1-2.9-1.5-3.7-1.6s-2-0.3-3-0.1c-0.9,0.2-3.1,1.6-3.5,2.4c-0.4,0.9-0.9,3-1.2,3.5c-0.2,0.5-0.3,1.5-0.3,1.5s1.2,1.9,1,1
	c-0.2-0.9-0.4-4,0.9-4.7c1.4-0.7,2.6-0.5,3.7-0.9c1-0.5,2.3-0.9,3.3-0.4c0.9,0.5,1.3,0.1,2.2,0.1s1.9,0.3,2.4,1.1
	c0.5,0.8,1.4,3.5,1.5,4c0.1,0.4,0.6,2.4,0.6,1.8c0-0.6-0.5-3.5-0.9-4.7c-0.4-1.2-1.2-2.9-3.1-5.2c-1.9-2.3-3.1-2.7-4-4.2
	c-0.9-1.5-2.9-1.9-4.3-1.1c-1.5,0.9-2.8,2.7-3.6,4c-0.8,1.3-0.8,2.8-1.3,3.6C215.8,169.2,215.5,169.6,215.5,169.6L215.5,169.6z"/>
<path d="M220.8,177c0,0-1.2-0.8-1.2-1.4c0-0.6,0-1.6,0.5-2.1c0.5-0.5,1.2-1.7,2-1.7c0.8,0,2.6,0,4.4,0c1.7,0,2.7-1.1,4-0.2
	c1.3,0.9,1.9,2.2,2,3.1c0,0.9,0.7,2.6,0.7,2.6s0.1,1.1-0.2,0.2c-0.3-0.9,0.2-2.1-1.2-2.9c-1.3-0.7-2.3-1.1-3.5-1.1
	c-1.2,0-1.4,0.2-3,0s-2.6-0.6-3.3,0c-0.6,0.6-1.1,2.1-1.2,2.3C221,176,221.5,176.5,220.8,177L220.8,177z"/>
<path d="M228.9,154.8c0.2,0.3,0.3,1.3,0.6,1.9c0.3,0.6,0.7,1.3,1.2,2c0.4,0.7,1.1,1.7,1.6,3.3c0.5,1.6,1.6,3,1.9,3.8
	c0.3,0.8,0.8,3.1,1,3.6c0.2,0.5,1,4.3,1.1,4.5s-0.4,0.1-0.4,0.1s-0.5-2.4-0.9-3.3c-0.4-0.8-1.3-3.5-1.6-4.3
	c-0.3-0.9-0.5-2.7-1.9-4.6s-2.3-3.3-2.3-3.9c-0.1-0.6-0.1-1.9-0.1-2.3C229,155.4,228.9,154.8,228.9,154.8L228.9,154.8z"/>
<path d="M239.1,174.2c-0.2-0.2-1.7-3.5-1.9-5.1c-0.2-1.5-2-4.7-2.8-6.5c-0.8-1.8-1.8-5.7-2.4-6.8c-0.6-1.1-0.7-2-0.6-2.7
	c0.1-0.6,0.1-2.5,0.1-3.3c0-0.9-0.1-1.8,0-2.8c0.1-1,0.1-2.1,0.1-1.4c0,0.7-0.1,2.5,0.3,3.9c0.4,1.3,0.3,2.1,0.7,3.4
	s1.5,6.1,1.7,6.7c0.2,0.6,2.1,4.7,2.9,6.7c0.8,2,2.6,6.9,2.8,7.3c0.2,0.4,0.5,2.1,0.5,2.2c0,0.1,0.3,0.6,0.3,0
	c0-0.5-1.2-4.1-1.6-5.4c-0.4-1.2-1.1-3.2-1.8-5c-0.7-1.8-0.3-0.8-1-3.2c-0.7-2.3-1.8-6.8-2.2-7.7c-0.4-0.9-1-3-1.3-4.3
	s-0.6-3.9-0.4-4c0.2-0.2,0.3-0.3,0.3,0s0.6,2.6,0.8,3.7c0.2,1.1,1.5,5.2,1.7,6.1c0.2,0.8,1.6,6.4,1.8,7.1c0.2,0.6,2,6.1,2.5,7.1
	c0.5,1,1.2,3,1.2,3s-0.8-3.3-1.2-4.3c-0.3-1-2.7-7.5-3-8.7c-0.3-1.2-1.3-6.4-1.6-7c-0.2-0.6-1.2-2.7-1.2-4s-0.5-3.9-0.3-3.2
	c0.3,0.7,0.4,1.2,0.6,2.3c0.2,1.2,0.7,2.6,0.9,3c0.2,0.4,0.7,1.8,0.8,2.5c0,0.7,0.9,5.2,0.9,5.8c0,0.6,0.9,3.2,0.9,2.9
	s-0.5-4.7-0.6-5.5c-0.1-0.8-0.5-3.9-0.9-4.8c-0.5-0.9-1.4-2.2-1.5-3.6c-0.1-1.4-0.2-2.4-0.4-3c-0.2-0.6-0.2-1.1-0.7-1.1
	c-0.5,0-0.7-0.2-0.6-0.5c0-0.3,0.3,0,0.5-0.4c0.2-0.4,0.6,0-0.3-0.9c-0.9-0.9-2.1-2.2-2.2-1.4c0,0.8,0,2.3,0.1,3
	c0.1,0.7-0.4,2.2-0.4,3.4c0,1.2,0.6,2.1,0,3.4c-0.5,1.2-1.1,2.4-0.5,3.6c0.6,1.2,3,5.4,3.6,7.3s1.8,3.8,2,4.4
	c0.2,0.6,0.7,2.4,1.5,4.3C237.8,172.4,239.1,174.2,239.1,174.2L239.1,174.2z"/>
<path d="M169.3,187.6c0,0.5,0,1.9,0.4,2.5c0.4,0.6,2.2,1.2,0.7,2.3c-1.5,1.1-3.4,1.3-6.8,1.3c-3.3,0-4.5-3.4-4.5-3.4"/>
<path d="M202.8,90.6c0.5-0.2,1.1-0.6,1.1-0.6s0.2,0.5,0.3,0.5s0.2,0.1,0.2,0.1s0.2,0.2,0.4,0.3c0.2,0.1,0.2-0.1,0.3,0.1
	s0.1,0.9-0.1,1.1s-0.5,0.7-0.8,0.9c-0.2,0.2-0.5,1.4-0.8,1.6c-0.2,0.2-0.9,0.7-1.6,1.4c-0.6,0.7-0.8,0.8-0.1-0.1
	c0.7-0.9,1.6-1.6,1.7-1.9c0.2-0.3,0.7-0.9,0.1-0.6s-1.2,0.7-0.3-0.2c0.9-0.9,1.6-1.5,1.6-1.7c0.1-0.2-0.1-0.5-0.2-0.5
	s-0.5-0.6-0.8-0.6C203.7,90.5,203.2,90.7,202.8,90.6L202.8,90.6z"/>
<path d="M205,92.7c0.7-0.4,1.3-1.5,1.2-1.1c-0.1,0.4-0.8,1.1-0.2,0.7c0.5-0.4,0.9-0.8,0.8-0.4s-0.6,0.7-0.2,0.7c0.4,0,0.8-0.3,0.5,0
	c-0.2,0.2-0.2,0.8-0.7,1.1c-0.5,0.3-0.8,0.5-0.9,0.6c-0.1,0.1-1.4,0.8-1,0.4c0.4-0.4,1.2-1.1,1.5-1.3c0.2-0.2,0.3-0.7-0.1-0.4
	c-0.4,0.3-0.6,0.2-0.4,0.1c0.2-0.1,0.7-0.5-0.2-0.1c-0.8,0.4-1.1,0.3-0.8,0.2C204.8,93,205,92.7,205,92.7L205,92.7z"/>
<path d="M195.1,78.3c0.6-0.3,1.2-1.2,1.2-1.2s0-0.2,0,0s-0.1,0.5,0,0.7c0,0.3,0.1,0.6,0.1,1.2c0,0.7,0.5,2.9,0.2,1.6
	c-0.3-1.3-0.5-2.9-0.8-2s-0.5,2.2-1.3,2.9c-0.8,0.7-1.2,1.9-0.9,0.4c0.4-1.5,1.3-2.8,1.4-3c0.1-0.2,0-0.5,0-0.5L195.1,78.3z"/>
<path d="M221.5,177.7l1.2,0.8c0,0,0.2-0.9,0.4-1.2s0.1-1.2,1.2-0.3c1.1,0.9,2.4,1.2,3.8,1.7c1.4,0.5,3.1,1.4,3.6,1.8
	s2.1,0.4,2.1,0.4s-0.2-1.1-0.8-1.6c-0.6-0.5-0.9-2.5-4.3-2.7s-3.9-0.6-4.3-0.7s-1.2-0.3-1.6-0.1
	C222.4,175.9,221.5,177.7,221.5,177.7L221.5,177.7z"/>
<path d="M224.1,180c0,0,0.8,1.6,0.8,1.3c0-0.3-0.5-2.7,0.3-2.1c0.8,0.6,2.9,3.3,3.6,3.8c0.8,0.6,1.1,0.8,1.1,0.8s0.8-0.4,0.5-0.7
	s-3.1-1.3-3.9-2.7c-0.7-1.4-2-2.7-2.2-2.6c-0.2,0.1-0.3,1-0.3,1.4C224,179.6,224.1,180,224.1,180L224.1,180z"/>
<path d="M233.6,181.5c0-0.7-0.3-2.1-0.1-1.9c0.2,0.2,0.5-0.1,0.2-0.5c-0.3-0.4-0.5-1.7-0.1-1.6c0.4,0,0.4-0.2,0.5-0.5
	c0.2-0.3-0.1-1.1,0.2-0.8s0.1,0.9,0.4,0.3s0.1-0.6,0.6-0.4s0.4-0.9,0.9-0.3c0.5,0.5,0.9,1.3,1.3,0.9c0.3-0.5-0.5-2.3,0.2-1.6
	c0.8,0.8,1.4,1.6,1.8,2.3c0.4,0.6,0.2,0.7,0.6,0.7c0.3,0,0.9-1.4,1.2-0.7c0.3,0.6,0.5,3.7-0.2,7.1s-1.1,3.7-1.3,4.3
	c-0.3,0.6-1.2,1.7-1.6,1.7c-0.4,0-1.2,0.3-2.2,0.2c-1-0.2-2-0.4-2.4-1.2c-0.4-0.7-0.8-1.6-0.5-0.7c0.3,0.8,0.9,1.8-0.1,1.1
	c-1.9-1.2-1.9-1.5-2.6-2.5c-0.7-1-1-1.7-1.7-2.3c-1.2-1.1-1.7-1.2-2.3-1.8c-0.5-0.5-0.6-0.8-0.2-0.8s1.5,0.6,2,1.3
	c0.5,0.7,2.3-1.3,2.8-0.7c1,1.5,2.7,3.2,3.3,2.6c0,0-0.7-0.6-1.2-1.6C229.3,181.3,233.4,182.7,233.6,181.5L233.6,181.5z"/>
<path d="M177.2,80.2c0.8-0.2,2-0.9,2.4-2.5c0.4-1.6,1.9-5.9,1.9-5.9l-0.6,5.1c0,0,1.4-0.9,1.8-2.3c0.4-1.3,0.5-3.5,0-0.3
	c-0.5,3.1-1.9,4.8-0.3,2.9c1.6-1.9,1.3-0.6,1.9-3.1c0.6-2.5,1.3-6.4,1.7-5.3c0.4,1,0.8,2.3,0.9,3c0.2,0.7,0.8,1,0.8,1.7
	s-0.2,1.9-0.3,2.5c-0.2,0.6-1.6,3.5-1.1,2c0.4-1.5,1.6-3.1,1.3-4.1c-0.3-0.9-0.1-2.6-1-1.4c-0.9,1.2-2.1,3.4-1.2,1.6s1-4.6,0.3-2.6
	c-0.8,2-1.8,7.7-2.4,8.4c-0.6,0.7-1.3,2.3-1.8,2.4c-0.5,0.1-0.9,0.3-0.9,0.3L177.2,80.2z"/>
<path d="M175.1,78.2c0,0,1-1.6,2.1-2.9c1-1.3,2.3-5.5,2.5-6c0.3-0.5,0.9-0.8,0.9-0.4c0,0.4-0.3,0.8,0.2,0.7c0.5-0.1,1.2-0.8,0.9,0.4
	c-0.3,1.2-2.2,3.5-1.1,2.8c1-0.7,1.9-0.7,1.8-1.5c-0.1-0.8-0.6-1.7-0.6-2.6c0-0.9-0.2-2.8-0.3-2.4c-0.2,0.3-0.3,1.3-0.5,0.9
	c-0.2-0.3-0.9-2.4-1-1.1c-0.1,1.3-0.1,2.4-0.2,1.2c-0.1-1.2-0.1-2.1-0.5-1.8c-0.4,0.3-1.2,0.5-1.2,0.5s-0.7-1.2-1.1,0.4
	c-0.4,1.6-0.9,2.6-0.9,2.6s-0.3-3-0.6-2.6c-0.3,0.4-0.9-0.3-1.2,0.7c-0.3,0.9-0.8,4-0.8,4.9s-0.4,4.4-0.4,4.4
	C173,76.8,176.2,78.2,175.1,78.2L175.1,78.2z"/>
<path d="M169.2,72.8c0-0.6,1.4-2.3,2.3-2.9c0.9-0.7,2.5-4.1,2.5-4.1s0.1-0.6-0.9,0.3s-1.2,2.3-2.6,2.8c-1.4,0.5-2.6,1.5-2.3,0.8
	c0.3-0.7,1.3-1,2.3-2.1c1-1,2.2-3.3,0.8-2.3c-1.4,1-2.9,2-3.5,2.7c-0.5,0.7-1.6,2.1-0.7,0.8c0.9-1.3,1.2-2.5,0.3-1.7
	c-0.9,0.8-2.3,2.1-2.3,2.1s1.9,1.5,2.3,1.9C167.8,71.4,169.2,72.8,169.2,72.8L169.2,72.8z"/>
</svg>
