<?xml version="1.0" encoding="utf-8"?>
<!-- Generator: Adobe Illustrator 23.0.0, SVG Export Plug-In . SVG Version: 6.00 Build 0)  -->
<svg version="1.1" id="Layer_1" xmlns="http://www.w3.org/2000/svg" xmlns:xlink="http://www.w3.org/1999/xlink" x="0px" y="0px"
	 viewBox="0 0 256 256" style="enable-background:new 0 0 256 256;" xml:space="preserve">
<g>
	<path style="fill:#E8E7E7;stroke:#4C4C4C;stroke-width:5;stroke-linecap:round;stroke-linejoin:round;stroke-miterlimit:10;" d="
		M62,36.2c0,0,8.9-14.7-11.4-30.2c-13.9,12.1-11.5,23.1,1.7,34.3"/>
	<path style="fill:#E8E7E7;stroke:#4C4C4C;stroke-width:5;stroke-linecap:round;stroke-linejoin:round;stroke-miterlimit:10;" d="
		M57.8,32.9c0,0,7.4-11.9,21.7-14.9c13.2-2.8,44.6,17.4,40,39.3s-5.1,45.9,9.5,50.6s-9.5,25-9.5,25"/>
	<path style="fill:#E8E7E7;stroke:#4C4C4C;stroke-miterlimit:10;" d="M69.6,78.1C59.5,98.3,42.2,91.3,42.2,91.3l-9.4,7.3
		c-11.1,6.3-16.3-3.5-16.3-3.5C6,82.6,28.3,62.5,28.3,62.5l1.5-6.5c1.1-4.6,3.5-8.7,7.1-11.8l8.4-7.3c3-2.6,6.7-4,10.7-4h1.9
		c0,0,19.1-7.6,32.7,5.6s16,28.5,13.6,34.1"/>
	<path style="opacity:0.3;fill:#FFFFFF;" d="M21.2,92.4c0,0-5.6-3.1,0-11s11.8-14.5,11.8-14.5s0.2-9.4,6.4-16.7S52.5,37.7,61,36.1
		l-1.7-3.7l-11.1,2.4l-11.3,9.3L31.1,52l-3.6,7.2l-0.7,5.4l-9.4,8.9L14.3,83v10.3l3.1,1.6l4.5-0.8L21.2,92.4z"/>
	<circle style="fill:#4C4C4C;" cx="43.8" cy="57.3" r="4.3"/>
	<path style="fill:#FFFFFF;stroke:#4C4C4C;stroke-width:5;stroke-linecap:round;stroke-linejoin:round;stroke-miterlimit:10;" d="
		M17.4,96.5c0,0,12.2-5.4,17.4-15.1"/>
	<path style="fill:#E8E7E7;" d="M69.6,78.1c-15.1,44-8.9,67.5,6.3,92.2c9.8,16,7.3,32.8,7.3,48.2v32.2h19.7c0,0-6.3-59.4,47.4-62
		c61.6-3,52.1,62,52.1,62h17c0,0,19.7-23.5,16.7-71.1c-2.9-45.8-23.8-61.3-74.8-54.4c-5.9,0.8-12,0.9-17.9,0
		C96.3,118.2,104,72.6,104,72.6"/>
	<path style="opacity:0.1;" d="M190.6,124.1c0,0,12.7,49.6-13.5,68.9l10.1,6.4l9.5,12.6L202,229l0.5,21.8h17l7.1-12l6.2-17.8l3-17
		l0-29.4l-5.3-23.6l-9.4-14.6l-11.9-7.9L190.6,124.1z"/>
	<path style="fill:none;stroke:#4C4C4C;stroke-width:5;stroke-linecap:round;stroke-linejoin:round;stroke-miterlimit:10;" d="
		M102.8,94c0,0-7.5,6.3-20.3,6.7"/>
	<path style="fill:none;stroke:#4C4C4C;stroke-width:5;stroke-linecap:round;stroke-linejoin:round;stroke-miterlimit:10;" d="
		M119.5,117.5c0,0-7.2,17.1-19.7,20.2"/>
	<path style="fill:none;stroke:#4C4C4C;stroke-width:5;stroke-linecap:round;stroke-linejoin:round;stroke-miterlimit:10;" d="
		M143.4,125.3c0,0,3.3,16.5-8.7,24.8"/>
	<path style="fill:none;stroke:#4C4C4C;stroke-width:5;stroke-linecap:round;stroke-linejoin:round;stroke-miterlimit:10;" d="
		M184.2,125.3c0,0,5.7,19.6-4.7,29.5"/>
	<path style="fill:none;stroke:#4C4C4C;stroke-width:5;stroke-linecap:round;stroke-linejoin:round;stroke-miterlimit:10;" d="
		M69.6,78.1C59.5,98.3,42.2,91.3,42.2,91.3l-9.4,7.3c-11.1,6.3-16.3-3.5-16.3-3.5C6,82.6,28.3,62.5,28.3,62.5l1.5-6.5
		c1.1-4.6,3.5-8.7,7.1-11.8l8.4-7.3c3-2.6,6.7-4,10.7-4h1.9c0,0,19.1-7.6,32.7,5.6s14.4,26,13.6,34.1l-0.8,6.3
		c0,0-6.9,39.4,40.2,46.5c5.9,0.9,12,0.8,17.9,0c51-6.9,71.9,8.6,74.8,54.4c3,47.5-16.7,71.1-16.7,71.1h-17c0,0,9.4-65-52.1-62
		c-53.7,2.6-47.4,62-47.4,62H83.2v-32.2c0-15.4,2.5-32.3-7.3-48.2C60.8,145.6,54.6,122.1,69.6,78.1"/>
	<path style="fill:#E8E7E7;stroke:#4C4C4C;stroke-width:5;stroke-linecap:round;stroke-linejoin:round;stroke-miterlimit:10;" d="
		M69.2,40.7c0,0,17.2,0,20-25.4c-17.5-5.7-25.7,2.1-28.5,19.2"/>
	<path style="fill:none;stroke:#4C4C4C;stroke-width:5;stroke-linecap:round;stroke-linejoin:round;stroke-miterlimit:10;" d="
		M221,136.4c0,0,17.7,15.5,26,46.8"/>
</g>
</svg>
