<?xml version="1.0" encoding="utf-8"?>
<!-- Generator: Adobe Illustrator 17.0.0, SVG Export Plug-In . SVG Version: 6.00 Build 0)  -->
<!DOCTYPE svg PUBLIC "-//W3C//DTD SVG 1.1//EN" "http://www.w3.org/Graphics/SVG/1.1/DTD/svg11.dtd" [
	<!ENTITY ns_flows "http://ns.adobe.com/Flows/1.0/">
	<!ENTITY ns_extend "http://ns.adobe.com/Extensibility/1.0/">
	<!ENTITY ns_ai "http://ns.adobe.com/AdobeIllustrator/10.0/">
	<!ENTITY ns_graphs "http://ns.adobe.com/Graphs/1.0/">
]>
<svg version="1.1" id="Layer_1" xmlns:x="&ns_extend;" xmlns:i="&ns_ai;" xmlns:graph="&ns_graphs;"
	 xmlns="http://www.w3.org/2000/svg" xmlns:xlink="http://www.w3.org/1999/xlink" xmlns:a="http://ns.adobe.com/AdobeSVGViewerExtensions/3.0/"
	 x="0px" y="0px" width="256px" height="256px" viewBox="0 0 256 256" style="enable-background:new 0 0 256 256;"
	 xml:space="preserve">
<polygon style="fill:none;stroke:#000000;stroke-miterlimit:10;" points="82,166.7 60.5,166.7 36.9,210.7 61.3,210.7 "/>
<path style="fill:none;stroke:#000000;stroke-miterlimit:10;" d="M105.6,190.3c-1.1,3.1-2,5.4-2,5.4l-4.3,14.5H73.8l16.5-44
	c0,0,7.4-0.3,6.2,0l0,0c0.3,0,0.9,0,2,0l-5.4,19.6l1.4,2.8l3.7,2.3h5.4L105.6,190.3z"/>
<polygon style="fill:none;stroke:#000000;stroke-miterlimit:10;" points="115.5,168.7 114.1,179.2 111.3,210.7 137.1,210.7 
	136.2,184.3 134.2,168.7 "/>
<path style="fill:none;stroke:#000000;stroke-miterlimit:10;" d="M175.4,211h-25.3l-2.8-18.2c0,0-1.7-7.1-2.3-13.1l7.4,8.8
	c0,0,1.7,0.6,4.3-1.4c2.6-2.3,4.8-3.1,3.1-6.5c-1.1-2-5.4-8.5-8.8-13.9c3.1,0,6.5,0.3,6.5,0.3h4.5L175.4,211z"/>
<polygon style="fill:none;stroke:#000000;stroke-miterlimit:10;" points="170,167.6 189,210.7 213.1,210.4 189.6,167.6 "/>
<path style="fill:none;stroke:#000000;stroke-miterlimit:10;" d="M156.9,187.2c-2.6,2.3-4.3,1.4-4.3,1.4l-7.4-8.8l-8.5-10.2
	l-7.4-18.4l-2.3,0.9l-13.1,12.2l-7.1,25.5l-1.4,0.6l-2.6,1.1h-5.4l-3.7-2.3l-1.4-2.8l5.4-19.6l2-6.8c0,0,14.2-14.8,21-21
	c1.7-1.7,0.3-9.4,0.6-11.9c0.3-2.8-1.7-6.2-3.4-3.1c-3.1,6-12.5,9.9-12.5,9.9s-3.4,2-9.6,1.4c-2.6-0.3-4.3-1.1-4.3-1.1
	s-3.4-3.1-0.3-6.5c1.1-1.4,7.1-1.1,11.1-3.4s6-9.9,8.5-14.2c8.8-13.9,15.9-14.2,15.9-14.2s7.4-1.1,12.2-0.9
	c8.8,0.3,19.3,21.9,19.3,21.9v21c0,0-1.1,2-5.7,2c-5.1,0-4.8-4.5-4.8-4.5v-15l-3.7-4.8l2,44.6c0,0,2.3,3.4,4.8,7.4
	c3.7,5.4,7.9,11.9,8.8,13.9C161.8,184.1,159.5,185.2,156.9,187.2z"/>
<ellipse style="fill:none;stroke:#000000;stroke-miterlimit:10;" cx="125.7" cy="84.4" rx="11.6" ry="10.8"/>
</svg>
