<?xml version="1.0" encoding="utf-8"?>
<!-- Generator: Adobe Illustrator 22.1.0, SVG Export Plug-In . SVG Version: 6.00 Build 0)  -->
<svg version="1.1" id="Layer_1" xmlns="http://www.w3.org/2000/svg" xmlns:xlink="http://www.w3.org/1999/xlink" x="0px" y="0px"
	 viewBox="0 0 512 512" style="enable-background:new 0 0 512 512;" xml:space="preserve">
<g>
	<g>
		<path d="M278.9,242.2l-1.5-0.6c-0.7-0.3-1.4-0.5-2.1-0.7c-0.8-0.2-1.5-0.5-2.3-0.8l-2.8-1.1l1.5-2.6c2-3.4,13.5-20.6,38.8-24.2
			c16.2-2.2,28.4-8,33.4-15.8c2.8-4.3,3.4-9.1,1.9-14.3c-2.8-9.4,2.5-13,6.4-15.6c4.5-3,7.8-5.2,3.3-15.8
			c-5.6-13.1,5.3-17.9,13.3-21.3c5.2-2.2,10.1-4.3,11.2-7.8c0.7-2.3-0.3-5.6-3-9.7c-6.7-10.3-4-21.8,7.3-30.8
			c14.3-11.4,38.4-15.7,49.4-4.3c8.5,8.8,8.7,12.9,8,18.6c-0.5,4.2-1,8.9,6.4,20.6l0,0c3.7,5.8,5,11.3,3.7,16.2
			c-2.2,8.8-11.8,14.1-19.4,18.4c-4.6,2.6-9.4,5.2-10.1,7.4c-0.8,2.4-0.8,6.4-0.7,10.5c0.1,10.9,0.3,25.8-16.2,28.1
			c-17.4,2.5-30.4,8.4-35.6,16.2l-0.1,0.2c-4.6,5.7-16.3,14.5-27.1,6.9c-5.1-3.5-39.7-2.6-62.4,20.8L278.9,242.2z M309.5,217.6
			c-16.6,2.8-26.5,12.4-30.9,17.9C288,226.5,299,220.9,309.5,217.6z M332.8,213.7c5.9,0,10.4,0.9,12.5,2.4
			c9.4,6.6,19.3-4.7,20.3-5.9c6.2-9,20-15.5,39-18.3c11.3-1.5,12.1-10.5,11.9-23.1c-0.1-4.6-0.1-9,1-12.2c1.4-4,6.5-6.9,12.4-10.2
			c7.2-4,15.4-8.6,17-15.3c0.9-3.6-0.1-7.6-3.1-12.3c-8.4-13.2-7.7-19.1-7.2-23.9c0.5-4.1,0.8-6.8-6.7-14.5
			c-9-9.3-30.4-5.1-42.7,4.8c-5.4,4.3-13.4,13.2-6.2,24.1c3.6,5.4,4.7,10,3.6,13.8c-1.7,5.7-7.9,8.4-14,11
			c-9.2,3.9-14.2,6.6-10.7,14.7c6.1,14.4-0.3,18.7-5.1,21.9c-3.8,2.6-6.1,4.1-4.4,10c1.9,6.6,1.1,13-2.5,18.5
			c-4.2,6.5-12,11.5-22.5,14.9C328.1,213.9,330.6,213.7,332.8,213.7z"/>
	</g>
	<g>
		<path d="M275.1,240.4l-3.2-0.6c-0.7-0.1-1.3-0.4-1.8-0.5c-0.2-0.1-0.5-0.2-0.7-0.2l-0.4-0.1l-0.3-0.2c0,0-1-0.6-2.7-1.7l-0.9-0.6
			l-0.2-1.1c-1.1-6.5-2.4-23.6,9.4-40.8c9.4-13.7,13.2-26.3,10.9-35.4c-1.3-4.9-4.4-8.6-9.2-11c-8.9-4.4-8-10.8-7.3-15.4
			c0.8-5.4,1.4-9.2-9.4-13c-4.1-1.4-7-3.7-8.4-6.6c-2.5-5.2-0.3-11.5,1.8-17.5c1.9-5.3,3.7-10.4,1.8-13.5c-1.2-2.1-4.3-3.6-9.1-4.4
			l0,0c-12.2-2-18.9-11.8-17.8-26.2c1.3-18.2,14.5-38.9,30.3-39.3c12.4-0.3,15.5,2.3,19.2,6.6c2.8,3.2,5.9,6.8,19.5,9.2
			c6.8,1.2,11.7,4,14.5,8.2c5,7.5,2.5,18.2,0.5,26.7c-1.2,5.2-2.5,10.6-1.3,12.7c1.2,2.2,4.1,4.7,7.1,7.4
			c8.2,7.3,19.4,17.2,9.9,31.1c-10,14.4-14.5,27.9-12.3,37.2l0,0.2c1,7.3-0.5,21.8-13.3,24.7c-6.2,1.3-29.3,27.6-26.9,60.8
			L275.1,240.4z M269.7,233.4C269.7,233.4,269.7,233.4,269.7,233.4c-0.2-12.5,2.9-24,7.2-33.7C268.3,213.8,268.8,227.2,269.7,233.4z
			 M259.8,17.2c-0.5,0-1.1,0-1.7,0c-13,0.3-24.4,18.8-25.5,34.6c-0.5,6.9,0.7,18.8,13.7,20.9l0,0c6.4,1.1,10.5,3.3,12.6,6.8
			c3,5.2,0.8,11.6-1.4,17.7c-1.8,5-3.6,10.3-2,13.6c0.8,1.8,2.7,3.1,5.5,4.1c14.7,5.1,13.5,12.8,12.7,18.4
			c-0.7,4.6-1.1,7.4,4.5,10.2c6.1,3,10.2,8,11.8,14.2c1.9,7.4,0.5,16.5-4.1,26.4c5.6-7.5,11.3-12.2,14.8-12.9
			c11.1-2.5,9.6-17.6,9.5-19c-1.4-6.3-1.6-19.9,13.1-41c6.5-9.5,0.3-16.1-9.1-24.5c-3.4-3-6.5-5.8-8.2-8.7
			c-2.1-3.8-0.8-9.6,0.8-16.2c1.9-8,4-17.1,0.2-22.8c-2.1-3.1-5.7-5.1-11.2-6.1c-15.4-2.7-19.3-7.2-22.5-10.9
			C270.8,19.2,269.1,17.2,259.8,17.2z"/>
	</g>
</g>
</svg>
