<?xml version="1.0" encoding="utf-8"?>
<!-- Generator: Adobe Illustrator 22.1.0, SVG Export Plug-In . SVG Version: 6.00 Build 0)  -->
<svg version="1.1" id="Layer_1" xmlns="http://www.w3.org/2000/svg" xmlns:xlink="http://www.w3.org/1999/xlink" x="0px" y="0px"
	 viewBox="0 0 512 512" style="enable-background:new 0 0 512 512;" xml:space="preserve">
<g>
	<g>
		<path d="M390.9,225.1c-8.3,0-25.8-12.7-32.3-18.3l3.3-3.8c11.2,9.7,23.1,16,27.7,17c-0.8-1.3-2.3-3.1-3.6-4.7
			c-4.9-6.2-12.4-15.7-17.2-28.8c-4.3-12.1-0.2-27.1,3.8-41.6c3.4-12.6,6.7-24.4,4.4-33.3c-4.3-15.6-14.5-30.1-31.1-44.2l-0.9-0.8
			c-1.1-0.7-3.1-2.1-5.8-3.7l-2.5-1.5l31.9-37.9c0.9-1.1,1.4-2.5,1.4-4c0-1.8-0.8-3.6-2.2-4.8c-2.3-2-5.2-2.7-8.2-2.1
			c-3.1,0.6-5.6,2.6-6.9,5.5l-19.4,41.7l-2.2-0.8c-1.4-0.5-2.3-0.8-3.2-1h-0.1c-22.3-5-40.5-4.9-54.1,0.3
			c-8.5,3.2-16.3,12.6-24.5,22.6c-9.6,11.7-19.6,23.7-32,27.2c-13.4,3.7-25.4,3.1-33.3,2.7c-2.1-0.1-4.5-0.2-6-0.2
			c3.5,3.1,15.6,9.3,30,13c0.3,0.1,0.7,0.1,1.1,0.2c0.5,0.1,1,0.2,1.4,0.3l-1.2,4.9c-0.3-0.1-0.7-0.1-1.1-0.2
			c-0.5-0.1-1-0.2-1.4-0.3c-9.7-2.5-35.9-11.6-34.7-19.3v-0.1c0.8-3.8,5.1-3.6,12.2-3.2c7.6,0.4,19.1,1,31.7-2.5
			c10.9-3,20.4-14.5,29.5-25.5c8.7-10.5,16.9-20.5,26.6-24.1c14.5-5.5,33.6-5.7,56.9-0.5c0.6,0.1,1.1,0.2,1.8,0.4l17.4-37.5
			c2-4.2,5.9-7.3,10.4-8.2s9,0.2,12.5,3.2c2.5,2.1,4,5.3,4,8.6c0,2.7-0.9,5.1-2.6,7.2l-28.1,33.5c3.1,1.9,4.5,2.9,5.2,3.7
			c17.2,14.7,27.8,29.9,32.4,46.5c2.7,10.2-0.7,22.7-4.4,35.9c-3.8,13.8-7.7,28.1-3.9,38.6c4.5,12.4,11.7,21.5,16.4,27.5
			c4.3,5.4,7.1,9,4.3,11.8C393.4,224.8,392.3,225.1,390.9,225.1z"/>
	</g>
</g>
<g style="opacity:0;">
	<circle cx="205.5" cy="129.5" r="3.5"/>
	<circle cx="181.5" cy="157.5" r="3.5"/>
	<circle cx="157.5" cy="191.5" r="3.5"/>
	<circle cx="134.5" cy="225.5" r="3.5"/>
	<circle cx="112.5" cy="265.5" r="3.5"/>
	<circle cx="92.5" cy="301.5" r="3.5"/>
	<circle cx="77.5" cy="339.5" r="3.5"/>
	<circle cx="66.5" cy="378.5" r="3.5"/>
	<circle cx="67.5" cy="406.5" r="3.5"/>
	<circle cx="77.5" cy="433.5" r="3.5"/>
	<circle cx="94.5" cy="456.5" r="3.5"/>
	<circle cx="119.5" cy="470.5" r="3.5"/>
	<circle cx="150.5" cy="480.5" r="3.5"/>
	<circle cx="179.5" cy="482.5" r="3.5"/>
	<circle cx="215.5" cy="464.5" r="3.5"/>
	<circle cx="241.5" cy="440.5" r="3.5"/>
	<circle cx="263.5" cy="409.5" r="3.5"/>
	<circle cx="285.5" cy="371.5" r="3.5"/>
	<circle cx="301.5" cy="335.5" r="3.5"/>
	<circle cx="319.5" cy="297.5" r="3.5"/>
	<circle cx="332.5" cy="265.5" r="3.5"/>
	<circle cx="344.5" cy="232.5" r="3.5"/>
</g>
</svg>
